<?xml version="1.0" encoding="UTF-8" standalone="no"?>
<!DOCTYPE svg PUBLIC "-//W3C//DTD SVG 1.1//EN"
"http://www.w3.org/Graphics/SVG/1.1/DTD/svg11.dtd">


<!-- Page 59 -->
<svg x="0" y="0" width="921" height="1196" viewBox="0 0 921 1196" version="1.1" xmlns="http://www.w3.org/2000/svg" xmlns:xlink="http://www.w3.org/1999/xlink"
style="display: block;margin-left: auto;margin-right: auto;">
<defs>
<clipPath id="c0_59"><path d="M706.1,789.5l0,-14.4l90.9,0l0,14.4Z" /></clipPath>

<style type="text/css"><![CDATA[

.g1_59{
fill: none;
stroke: #872B91;
stroke-width: 0.6248611;
stroke-linecap: butt;
stroke-linejoin: miter;
}
.g2_59{
fill: none;
stroke: #872B91;
stroke-width: 1.8730555;
stroke-linecap: butt;
stroke-linejoin: miter;
}
.g3_59{
fill: none;
stroke: #872B91;
stroke-width: 2.2916667;
stroke-linecap: butt;
stroke-linejoin: miter;
}
.g4_59{
fill: none;
stroke: #872B91;
stroke-width: 1.5277778;
stroke-linecap: butt;
stroke-linejoin: miter;
stroke-miterlimit: 4;
}
.g5_59{
fill: none;
stroke: #872B91;
stroke-width: 0.5102778;
stroke-linecap: butt;
stroke-linejoin: miter;
stroke-miterlimit: 4;
}
.g6_59{
fill: none;
stroke: #872B91;
stroke-width: 0.7638889;
stroke-linecap: butt;
stroke-linejoin: miter;
stroke-miterlimit: 4;
}
.g7_59{
fill: #872B91;
stroke: #B2B3B7;
stroke-width: 1.5277778;
stroke-linecap: butt;
stroke-linejoin: miter;
stroke-miterlimit: 4;
}

.s1_59{
font-size: 35.14px;
font-family: ProximaNova-Extrabld_2th;
fill: #872B91;
}
.s2_59{
font-size: 19.86px;
font-family: ProximaNova-Extrabld_2th;
fill: #872B91;
}
.s3_59{
font-size: 24.44px;
font-family: ProximaNova-Bold_2tj;
fill: #872B91;
}
.s4_59{
font-size: 15.28px;
font-family: ProximaNova-Light_2t-;
fill: #3F3F40;
}
.s5_59{
font-size: 21.39px;
font-family: STKaiti-SC-Regular_2t7;
fill: #872B91;
}
.s6_59{
font-size: 17.57px;
font-family: Marion-Italic_2si;
fill: #3F3F40;
}
.s7_59{
font-size: 15.28px;
font-family: STKaiti-SC-Bold_2sb;
fill: #A8A9AD;
}
.s8_59{
font-size: 32.08px;
font-family: STKaiti-SC-Regular_2t7;
fill: #3F3F40;
}
.s9_59{
font-size: 16.81px;
font-family: ProximaNova-Semibold_2u1;
fill: #808285;
}
.s10_59{
font-size: 16.81px;
font-family: ProximaNova-Extrabld_2th;
fill: #872B91;
}
.s11_59{
font-size: 10.31px;
font-family: ProximaNova-Regular_2u2;
fill: #872B91;
}
.s12_59{
font-size: 11.46px;
font-family: ProximaNova-Semibold_2u1;
fill: #FFFFFF;
}

]]></style>

</defs>
<path d="M0,0
L0,1196
L921,1196
L921,0 Z " 
fill="#FFFFFF" stroke="none" />
<path d="M0,72.5l346.6,0" class="g1_59" />
<path d="M0,74.9l346.6,0" class="g2_59" />
<path d="M105.3,146.1l13,0" class="g3_59" />
<path d="M105.3,788.8l13,0" class="g3_59" />
<text 
x="41" 
y="62" 
dx="0,0.2,0.4,0.4,0.4,0.4,0.4,0.4,0.4,0.4,0.4,0.4,0.4,0.4,0.4,0.4,0.4" 
class="s1_59"
>Language Practice</text>

<text 
x="105" 
y="142" 
dx="0,0" 
class="s2_59"
>C </text>

<text 
x="360" 
y="147" 
dx="0,0,0,0,0,0,0,0,0,0,0,0,0,0,0,0,0,0,0" 
class="s3_59"
>Getting to know you</text>

<text 
x="143" 
y="209" 
dx="0,0,0,0,0,0,0,0,0,0,0,0,0,0,0,0,0,0,0,0,0,0,0,0,0,0,0,0,0,0,0,0,0,0,0,0,-1.3,0,0,0,0,0,0,0,0,0,0,0" 
class="s4_59"
>In pairs, form a question-and-answer, inserting </text>

<text 
x="449" 
y="209" 
dx="0" 
class="s5_59"
>是</text>

<text 
x="474" 
y="209" 
dx="0,0,0,0,0" 
class="s6_59"
>(shì)</text>

<text 
x="503" 
y="209" 
dx="0,0,0,0,0,0,0" 
class="s4_59"
>in the </text>

<text 
x="544" 
y="209" 
dx="0" 
class="s7_59"
>◇</text>

<text 
x="563" 
y="209" 
dx="0,0,0,0" 
class="s4_59"
>and </text>

<text 
x="592" 
y="209" 
dx="0" 
class="s5_59"
>吗</text>

<text 
x="617" 
y="209" 
dx="0,0,0,0" 
class="s6_59"
>(ma)</text>

<text 
x="648" 
y="209" 
dx="0,0,0,0,0,0,0,0,0,0,0,0,0,0,-0.1,-0.1,0,0" 
class="s4_59"
>when needed, e.g.:</text>

<text 
x="143" 
y="254" 
dx="0,0,0" 
class="s8_59"
>王朋 </text>

<text 
x="215" 
y="249" 
dx="0" 
class="s7_59"
>◇</text>

<text 
x="239" 
y="254" 
dx="0,0" 
class="s8_59"
>学生</text>

<text 
x="143" 
y="292" 
dx="0,-1.8,0,0,0,0,-1.2,0,0" 
class="s6_59"
>Wáng Péng</text>

<text 
x="219" 
y="292" 
dx="0" 
class="s7_59"
>◇</text>

<text 
x="238" 
y="292" 
dx="0,0,0,0,0,0,0,0" 
class="s6_59"
>xuésheng</text>

<text 
x="143" 
y="345" 
dx="0,0.2" 
class="s9_59"
>Q:</text>

<text 
x="184" 
y="345" 
dx="0,0,0,0,0,0,0,0" 
class="s8_59"
>王朋是学生吗? </text>

<text 
x="537" 
y="345" 
dx="0,-1.8,0,0,0,0,-1.2,0,0,0,0,0,0,0,0,0,0,0,0,0,0,0,0,0,0,0" 
class="s6_59"
>Wáng Péng shì xuésheng ma?</text>

<text 
x="143" 
y="383" 
dx="0,0.2" 
class="s9_59"
>A:</text>

<text 
x="184" 
y="383" 
dx="0,0,0,0,0,0,0" 
class="s8_59"
>王朋是学生。 </text>

<text 
x="537" 
y="383" 
dx="0,-1.8,0,0,0,0,-1.2,0,0,0,0,0,0,0,0,0,0,0,0,0,0,0,0" 
class="s6_59"
>Wáng Péng shì xuésheng.</text>

<text 
x="154" 
y="443" 
dx="0,0.2" 
class="s10_59"
>1 </text>

<text 
x="183" 
y="443" 
dx="0,0" 
class="s8_59"
>李友</text>

<text 
x="247" 
y="438" 
dx="0" 
class="s7_59"
>◇</text>

<text 
x="262" 
y="443" 
dx="0,0,0,0" 
class="s8_59"
>美国人 </text>

<text 
x="537" 
y="443" 
dx="0,0,0,0,0,0" 
class="s6_59"
>Lǐ Yǒu</text>

<text 
x="588" 
y="443" 
dx="0" 
class="s7_59"
>◇</text>

<text 
x="611" 
y="443" 
dx="0,0,0,0,0,0,0,0,0,0" 
class="s6_59"
>Měiguó rén</text>

<text 
x="154" 
y="495" 
dx="0,0.2" 
class="s10_59"
>2 </text>

<text 
x="183" 
y="495" 
dx="0,0" 
class="s8_59"
>王朋</text>

<text 
x="247" 
y="490" 
dx="0" 
class="s7_59"
>◇</text>

<text 
x="262" 
y="495" 
dx="0,0,0,0" 
class="s8_59"
>中国人 </text>

<text 
x="537" 
y="495" 
dx="0,-1.8,0,0,0,0,-1.2,0,0" 
class="s6_59"
>Wáng Péng</text>

<text 
x="613" 
y="495" 
dx="0" 
class="s7_59"
>◇</text>

<text 
x="636" 
y="495" 
dx="0,0,0,0,0,0,0,0,0,0,0,0" 
class="s6_59"
>Zhōngguó rén</text>

<text 
x="154" 
y="548" 
dx="0,0.2" 
class="s10_59"
>3 </text>

<text 
x="183" 
y="548" 
dx="0,0" 
class="s8_59"
>李友</text>

<text 
x="247" 
y="542" 
dx="0" 
class="s7_59"
>◇</text>

<text 
x="262" 
y="548" 
dx="0,0,0,0,0" 
class="s8_59"
>美国学生 </text>

<text 
x="537" 
y="548" 
dx="0,0,0,0,0,0" 
class="s6_59"
>Lǐ Yǒu</text>

<text 
x="588" 
y="548" 
dx="0" 
class="s7_59"
>◇</text>

<text 
x="611" 
y="548" 
dx="0,0,0,0,0,0,0,0,0,0,0,0,0,0,0" 
class="s6_59"
>Měiguó xuésheng</text>

<text 
x="154" 
y="600" 
dx="0,0.2" 
class="s10_59"
>4 </text>

<text 
x="183" 
y="600" 
dx="0,0" 
class="s8_59"
>王朋</text>

<text 
x="247" 
y="595" 
dx="0" 
class="s7_59"
>◇</text>

<text 
x="262" 
y="600" 
dx="0,0,0,0" 
class="s8_59"
>北京人 </text>

<text 
x="537" 
y="600" 
dx="0,-1.8,0,0,0,0,-1.2,0,0" 
class="s6_59"
>Wáng Péng</text>

<text 
x="613" 
y="600" 
dx="0" 
class="s7_59"
>◇</text>

<text 
x="636" 
y="600" 
dx="0,0,0,0,0,0,0,0,0,0,0" 
class="s6_59"
>Běijīng rén</text>

<text 
x="154" 
y="652" 
dx="0,0.2" 
class="s10_59"
>5 </text>

<text 
x="183" 
y="652" 
dx="0,0" 
class="s8_59"
>李友</text>

<text 
x="247" 
y="647" 
dx="0" 
class="s7_59"
>◇</text>

<text 
x="262" 
y="652" 
dx="0,0,0,0" 
class="s8_59"
>纽约人 </text>

<text 
x="537" 
y="652" 
dx="0,0,0,0,0,0" 
class="s6_59"
>Lǐ Yǒu</text>

<text 
x="588" 
y="652" 
dx="0" 
class="s7_59"
>◇</text>

<text 
x="611" 
y="652" 
dx="0,0,0,0,0,0,0,0,0,0" 
class="s6_59"
>Niǔyuē rén</text>

<text 
x="154" 
y="704" 
dx="0,0.2" 
class="s10_59"
>6 </text>

<text 
x="183" 
y="704" 
dx="0" 
class="s8_59"
>你</text>

<text 
x="215" 
y="699" 
dx="0" 
class="s7_59"
>◇</text>

<text 
x="230" 
y="704" 
dx="0,0,0" 
class="s8_59"
>学生 </text>

<text 
x="537" 
y="704" 
dx="0,0" 
class="s6_59"
>nǐ</text>

<text 
x="557" 
y="704" 
dx="0" 
class="s7_59"
>◇</text>

<text 
x="580" 
y="704" 
dx="0,0,0,0,0,0,0,0" 
class="s6_59"
>xuésheng</text>

<text 
x="105" 
y="785" 
dx="0,0.2" 
class="s2_59"
>D </text>

<text 
x="394" 
y="789" 
dx="0,0,0,0,0,0,0,0,0,0,0,0,0,0,0" 
class="s3_59"
>On the contrary</text>

<text 
x="143" 
y="851" 
dx="0,0,0,0,0,0,0,0,0,0,0,0,0,0,0,0,0,0,0,0,0,0,0,0,0,0,0,0,0,0,0,0,0,0,0,0,0,0,0,0,0,0,0,0,0,0,0,0,0,0,0,0,0,0,0,0" 
class="s4_59"
>In pairs, ask and answer the following questions, using </text>

<text 
x="504" 
y="851" 
dx="0" 
class="s5_59"
>不</text>

<text 
x="529" 
y="851" 
dx="0,0,0,0" 
class="s6_59"
>(bú)</text>

<text 
x="557" 
y="851" 
dx="0,0,0,0,0,0,0,0,0,0,0,0,0,0,0,0,0,-0.1,0,0,-0.1,-0.1,0,0" 
class="s4_59"
>where appropriate, e.g.:</text>

<text 
x="143" 
y="897" 
dx="0,0.2" 
class="s9_59"
>Q:</text>

<text 
x="184" 
y="897" 
dx="0,0,0,0,0,0,0,0,0" 
class="s8_59"
>李小姐叫李朋吗？ </text>

<text 
x="537" 
y="897" 
dx="0,0,0,0,0,0,0,0,0,0,0,0,0,0,0,0,0,0,0,0,-1.2,0,0,0,0,0,0" 
class="s6_59"
>Lǐ xiǎojiě jiào Lǐ Péng ma?</text>

<text 
x="143" 
y="935" 
dx="0,0.2" 
class="s9_59"
>A:</text>

<text 
x="184" 
y="935" 
dx="0,0,0,0,0,0,0,0,0" 
class="s8_59"
>李小姐不叫李朋。 </text>

<text 
x="537" 
y="935" 
dx="0,0,0,0,0,0,0,0,0,0,0,0,0,0,0,0,0,0,0,0,0,0,0,-1.2,0,0,0" 
class="s6_59"
>Lǐ xiǎojiě bú jiào Lǐ Péng.</text>

<text 
x="154" 
y="995" 
dx="0,0.2" 
class="s10_59"
>1 </text>

<text 
x="183" 
y="995" 
dx="0,0,0,0,0,0,0,0,0" 
class="s8_59"
>李友是中国人吗？ </text>

<text 
x="537" 
y="995" 
dx="0,0,0,0,0,0,0,0,0,0,0,0,0,0,0,0,0,0,0,0,0,0,0,0,0,0,0" 
class="s6_59"
>Lǐ Yǒu shì Zhōngguó rén ma?</text>

<text 
x="154" 
y="1047" 
dx="0,0.2" 
class="s10_59"
>2 </text>

<text 
x="183" 
y="1047" 
dx="0,0,0,0,0,0,0" 
class="s8_59"
>你是王朋吗？ </text>

<text 
x="537" 
y="1047" 
dx="0,0,0,0,0,0,0,0,-1.8,0,0,0,0,-1.2,0,0,0,0,0,0" 
class="s6_59"
>Nǐ shì Wáng Péng ma?</text>

<text 
x="154" 
y="1100" 
dx="0,0.2" 
class="s10_59"
>3 </text>

<text 
x="183" 
y="1100" 
dx="0,0,0,0,0,0,0,0,0" 
class="s8_59"
>王朋是纽约人吗？ </text>

<text 
x="537" 
y="1100" 
dx="0,-1.8,0,0,0,0,-1.2,0,0,0,0,0,0,0,0,0,0,0,0,0,0,0,0,0,0,0,0,0" 
class="s6_59"
>Wáng Péng shì Niǔyuē rén ma?</text>

<path d="M132.9,111.9l0,53.5l0,0.7l0.7,0l676.9,0l0.8,0l0,-0.7l0,-53.5l0,-0.8l-0.8,0l-676.9,0l-0.7,0l0,0.8Z" class="g4_59" />
<path d="M134.9,164.1l674.4,0l0,-50.9l-674.4,0l0,50.9Z" class="g5_59" />
<text 
x="711" 
y="143" 
dx="0,0.1,0.1,0.1,0.1,0.1,0.1,0.1,0.1,0.1,0.1,0.1,0.1" 
class="s11_59"
>INTERPERSONAL</text>

<path d="M706.1,146.8l90.9,0l0,-14.4l-90.9,0l0,14.4Z" class="g6_59" />
<path d="M132.9,754.6l0,53.5l0,0.8l0.7,0l676.9,0l0.8,0l0,-0.8l0,-53.5l0,-0.7l-0.8,0l-676.9,0l-0.7,0l0,0.7Z" class="g4_59" />
<path d="M134.9,806.8l674.4,0l0,-50.9l-674.4,0l0,50.9Z" class="g5_59" />
<text 
x="711" 
y="785" 
dx="0,0.1,0.1,0.1,0.1,0.1,0.1,0.1,0.1,0.1,0.1,0.1,0.1" 
class="s11_59"
>INTERPERSONAL</text>

<g clip-path="url(#c0_59)">
<path d="M706.1,789.5l90.9,0l0,-14.4l-90.9,0l0,14.4Z" class="g6_59" />
</g>
<path d="M-31.2,1209.2l67.1,0l0,-1222.1l-67.1,0l0,1222.1Z" class="g7_59" />
<text 
transform="matrix(0, -1, 1, 0, 26, 1173)"
dx="0,0.3,0.3" 
class="s12_59"
>38 </text>

<text 
transform="matrix(0, -1, 1, 0, 26, 1149)"
dx="0,0.3,0.3,0.3,0.3,0.3,0.3,0.3,0.3,0.3,0.3,0.3,0.3,0.3,0.3,0.3,0.3,0.3,0.3,0.3,0.3" 
class="s12_59"
>Integrated Chinese 1 </text>

<text 
transform="matrix(0, -1, 1, 0, 26, 1027)"
dx="0,0.3" 
class="s12_59"
>| </text>

<text 
transform="matrix(0, -1, 1, 0, 26, 1015)"
dx="0,-0.9,-0.1,0.3,0.3,0.3,0.3,0.3" 
class="s12_59"
>Textbook</text>



<!-- Any embedded fonts defined here -->
<style type="text/css" ><![CDATA[

@font-face {
	font-family: Marion-Italic_2si;
	src: url("fonts/Marion-Italic_2si.woff") format("woff");
}

@font-face {
	font-family: ProximaNova-Extrabld_2th;
	src: url("fonts/ProximaNova-Extrabld_2th.woff") format("woff");
}

@font-face {
	font-family: STKaiti-SC-Bold_2sb;
	src: url("fonts/STKaiti-SC-Bold_2sb.woff") format("woff");
}

@font-face {
	font-family: ProximaNova-Light_2t-;
	src: url("fonts/ProximaNova-Light_2t-.woff") format("woff");
}

@font-face {
	font-family: ProximaNova-Semibold_2u1;
	src: url("fonts/ProximaNova-Semibold_2u1.woff") format("woff");
}

@font-face {
	font-family: ProximaNova-Bold_2tj;
	src: url("fonts/ProximaNova-Bold_2tj.woff") format("woff");
}

@font-face {
	font-family: ProximaNova-Regular_2u2;
	src: url("fonts/ProximaNova-Regular_2u2.woff") format("woff");
}

@font-face {
	font-family: STKaiti-SC-Regular_2t7;
	src: url("fonts/STKaiti-SC-Regular_2t7.woff") format("woff");
}

]]></style>

</svg>
