<?xml version="1.0" encoding="UTF-8" standalone="no"?>
<!DOCTYPE svg PUBLIC "-//W3C//DTD SVG 1.1//EN"
"http://www.w3.org/Graphics/SVG/1.1/DTD/svg11.dtd">


<!-- Page 331 -->
<svg x="0" y="0" width="921" height="1196" viewBox="0 0 921 1196" version="1.1" xmlns="http://www.w3.org/2000/svg" xmlns:xlink="http://www.w3.org/1999/xlink"
style="display: block;margin-left: auto;margin-right: auto;">
<defs>

<style type="text/css"><![CDATA[

.g1_331{
fill: #F0F1F2;
}
.g2_331{
fill: #BDBEC1;
}
.g3_331{
fill: none;
stroke: #BDBEC1;
stroke-width: 0.38194445;
stroke-linecap: butt;
stroke-linejoin: miter;
}
.g4_331{
fill: none;
stroke: #DADBDD;
stroke-width: 1.5277778;
stroke-linecap: butt;
stroke-linejoin: miter;
}
.g5_331{
fill: none;
stroke: #BDBEC1;
stroke-width: 1.5277778;
stroke-linecap: butt;
stroke-linejoin: miter;
}
.g6_331{
fill: #57585A;
stroke: #B2B3B7;
stroke-width: 1.5277778;
stroke-linecap: butt;
stroke-linejoin: miter;
stroke-miterlimit: 4;
}

.s1_331{
font-size: 15.28px;
font-family: ProximaNova-Bold_378;
fill: #57585A;
}
.s2_331{
font-size: 15.28px;
font-family: ProximaNova-Light_372;
fill: #3F3F40;
}
.s3_331{
font-size: 24.44px;
font-family: STKaiti-SC-Regular_2t7;
fill: #57585A;
}
.s4_331{
font-size: 24.44px;
font-family: STKaiTi-TC-Regular_371;
fill: #57585A;
}
.s5_331{
font-size: 16.81px;
font-family: Marion-Italic_2si;
fill: #3F3F40;
}
.s6_331{
font-size: 15.28px;
font-family: ProximaNova-Regular_377;
fill: #3F3F40;
}
.s7_331{
font-size: 15.28px;
font-family: ProximaNova-Semibold_376;
fill: #77787B;
}
.s8_331{
font-size: 21.39px;
font-family: ProximaNova-Semibold_376;
fill: #3F3F40;
}
.s9_331{
font-size: 16.81px;
font-family: Marion-Italic_374;
fill: #3F3F40;
}
.s10_331{
font-size: 11.46px;
font-family: ProximaNova-Semibold_376;
fill: #FFFFFF;
}

]]></style>

</defs>
<path d="M0,0
L0,1196
L921,1196
L921,0 Z " 
fill="#FFFFFF" stroke="none" />
<path d="M55,135.8l178.8,0l0,42.1L55,177.9l0,-42.1Zm178.8,0l196.9,0l0,42.1l-196.9,0l0,-42.1Zm196.9,0l196.9,0l0,42.1l-196.9,0l0,-42.1Zm196.9,0l104.5,0l0,42.1l-104.5,0l0,-42.1Zm104.5,0l70.4,0l0,42.1l-70.4,0l0,-42.1Zm70.4,0l63.8,0l0,42.1l-63.8,0l0,-42.1ZM55,220.1l178.8,0l0,42.2L55,262.3l0,-42.2Zm178.8,0l196.9,0l0,42.2l-196.9,0l0,-42.2Zm196.9,0l196.9,0l0,42.2l-196.9,0l0,-42.2Zm196.9,0l104.5,0l0,42.2l-104.5,0l0,-42.2Zm104.5,0l70.4,0l0,42.2l-70.4,0l0,-42.2Zm70.4,0l63.8,0l0,42.2l-63.8,0l0,-42.2ZM55,304.4l178.8,0l0,42.2L55,346.6l0,-42.2Zm178.8,0l196.9,0l0,42.2l-196.9,0l0,-42.2Zm196.9,0l196.9,0l0,42.2l-196.9,0l0,-42.2Zm196.9,0l104.5,0l0,42.2l-104.5,0l0,-42.2Zm104.5,0l70.4,0l0,42.2l-70.4,0l0,-42.2Zm70.4,0l63.8,0l0,42.2l-63.8,0l0,-42.2ZM55,473.1l178.8,0l0,42.1L55,515.2l0,-42.1Zm178.8,0l196.9,0l0,42.1l-196.9,0l0,-42.1Zm196.9,0l196.9,0l0,42.1l-196.9,0l0,-42.1Zm196.9,0l104.5,0l0,42.1l-104.5,0l0,-42.1Zm104.5,0l70.4,0l0,42.1l-70.4,0l0,-42.1Zm70.4,0l63.8,0l0,42.1l-63.8,0l0,-42.1ZM55,557.4l178.8,0l0,42.2L55,599.6l0,-42.2Zm178.8,0l196.9,0l0,42.2l-196.9,0l0,-42.2Zm196.9,0l196.9,0l0,42.2l-196.9,0l0,-42.2Zm196.9,0l104.5,0l0,42.2l-104.5,0l0,-42.2Zm104.5,0l70.4,0l0,42.2l-70.4,0l0,-42.2Zm70.4,0l63.8,0l0,42.2l-63.8,0l0,-42.2ZM55,641.7l178.8,0l0,42.2L55,683.9l0,-42.2Zm178.8,0l196.9,0l0,42.2l-196.9,0l0,-42.2Zm196.9,0l196.9,0l0,42.2l-196.9,0l0,-42.2Zm196.9,0l104.5,0l0,42.2l-104.5,0l0,-42.2Zm104.5,0l70.4,0l0,42.2l-70.4,0l0,-42.2Zm70.4,0l63.8,0l0,42.2l-63.8,0l0,-42.2ZM55,726.1l178.8,0l0,44.1L55,770.2l0,-44.1Zm178.8,0l196.9,0l0,44.1l-196.9,0l0,-44.1Zm196.9,0l196.9,0l0,44.1l-196.9,0l0,-44.1Zm196.9,0l104.5,0l0,44.1l-104.5,0l0,-44.1Zm104.5,0l70.4,0l0,44.1l-70.4,0l0,-44.1Zm70.4,0l63.8,0l0,44.1l-63.8,0l0,-44.1ZM55,812.4l178.8,0l0,42.1L55,854.5l0,-42.1Zm178.8,0l196.9,0l0,42.1l-196.9,0l0,-42.1Zm196.9,0l196.9,0l0,42.1l-196.9,0l0,-42.1Zm196.9,0l104.5,0l0,42.1l-104.5,0l0,-42.1Zm104.5,0l70.4,0l0,42.1l-70.4,0l0,-42.1Zm70.4,0l63.8,0l0,42.1l-63.8,0l0,-42.1ZM55,896.7l178.8,0l0,42.2L55,938.9l0,-42.2Zm178.8,0l196.9,0l0,42.2l-196.9,0l0,-42.2Zm196.9,0l196.9,0l0,42.2l-196.9,0l0,-42.2Zm196.9,0l104.5,0l0,42.2l-104.5,0l0,-42.2Zm104.5,0l70.4,0l0,42.2l-70.4,0l0,-42.2Zm70.4,0l63.8,0l0,42.2l-63.8,0l0,-42.2ZM55,1065.4l178.8,0l0,42.1l-178.8,0l0,-42.1Zm178.8,0l196.9,0l0,42.1l-196.9,0l0,-42.1Zm196.9,0l196.9,0l0,42.1l-196.9,0l0,-42.1Zm196.9,0l104.5,0l0,42.1l-104.5,0l0,-42.1Zm104.5,0l70.4,0l0,42.1l-70.4,0l0,-42.1Zm70.4,0l63.8,0l0,42.1l-63.8,0l0,-42.1Z" class="g1_331" />
<path d="M55,388.8l811.3,0l0,42.1L55,430.9l0,-42.1ZM55,981l811.3,0l0,42.2l-811.3,0L55,981Z" class="g2_331" />
<path d="M55,388.8l178.8,0" class="g3_331" />
<path d="M233.8,388.8l196.9,0" class="g3_331" />
<path d="M430.7,388.8l196.9,0" class="g3_331" />
<path d="M627.6,388.8l104.5,0" class="g3_331" />
<path d="M732.1,388.8l70.4,0" class="g3_331" />
<path d="M802.5,388.8l63.8,0" class="g3_331" />
<path d="M55,430.9l178.8,0" class="g3_331" />
<path d="M233.8,430.9l196.9,0" class="g3_331" />
<path d="M430.7,430.9l196.9,0" class="g3_331" />
<path d="M627.6,430.9l104.5,0" class="g3_331" />
<path d="M732.1,430.9l70.4,0" class="g3_331" />
<path d="M802.5,430.9l63.8,0" class="g3_331" />
<path d="M55,981l178.8,0" class="g3_331" />
<path d="M233.8,981l196.9,0" class="g3_331" />
<path d="M430.7,981l196.9,0" class="g3_331" />
<path d="M627.6,981l104.5,0" class="g3_331" />
<path d="M732.1,981l70.4,0" class="g3_331" />
<path d="M802.5,981l63.8,0" class="g3_331" />
<path d="M55,1023.2l178.8,0" class="g3_331" />
<path d="M233.8,1023.2l196.9,0" class="g3_331" />
<path d="M430.7,1023.2l196.9,0" class="g3_331" />
<path d="M627.6,1023.2l104.5,0" class="g3_331" />
<path d="M732.1,1023.2l70.4,0" class="g3_331" />
<path d="M802.5,1023.2l63.8,0" class="g3_331" />
<path d="M55,93l178.8,0" class="g4_331" />
<path d="M233.8,93l196.9,0" class="g4_331" />
<path d="M430.7,93l196.9,0" class="g4_331" />
<path d="M627.6,93l104.5,0" class="g4_331" />
<path d="M732.1,93l70.4,0" class="g4_331" />
<path d="M802.5,93l63.8,0" class="g4_331" />
<path d="M55,1150.3l178.8,0" class="g5_331" />
<path d="M233.8,1150.3l196.9,0" class="g5_331" />
<path d="M430.7,1150.3l196.9,0" class="g5_331" />
<path d="M627.6,1150.3l104.5,0" class="g5_331" />
<path d="M732.1,1150.3l70.4,0" class="g5_331" />
<path d="M802.5,1150.3l63.8,0" class="g5_331" />
<path d="M55,135.8l178.8,0" class="g3_331" />
<path d="M233.8,135.8l196.9,0" class="g3_331" />
<path d="M430.7,135.8l196.9,0" class="g3_331" />
<path d="M627.6,135.8l104.5,0" class="g3_331" />
<path d="M732.1,135.8l70.4,0" class="g3_331" />
<path d="M802.5,135.8l63.8,0" class="g3_331" />
<path d="M55,177.9l178.8,0" class="g3_331" />
<path d="M233.8,177.9l196.9,0" class="g3_331" />
<path d="M430.7,177.9l196.9,0" class="g3_331" />
<path d="M627.6,177.9l104.5,0" class="g3_331" />
<path d="M732.1,177.9l70.4,0" class="g3_331" />
<path d="M802.5,177.9l63.8,0" class="g3_331" />
<path d="M55,220.1l178.8,0" class="g3_331" />
<path d="M233.8,220.1l196.9,0" class="g3_331" />
<path d="M430.7,220.1l196.9,0" class="g3_331" />
<path d="M627.6,220.1l104.5,0" class="g3_331" />
<path d="M732.1,220.1l70.4,0" class="g3_331" />
<path d="M802.5,220.1l63.8,0" class="g3_331" />
<path d="M55,262.3l178.8,0" class="g3_331" />
<path d="M233.8,262.3l196.9,0" class="g3_331" />
<path d="M430.7,262.3l196.9,0" class="g3_331" />
<path d="M627.6,262.3l104.5,0" class="g3_331" />
<path d="M732.1,262.3l70.4,0" class="g3_331" />
<path d="M802.5,262.3l63.8,0" class="g3_331" />
<path d="M55,304.4l178.8,0" class="g3_331" />
<path d="M233.8,304.4l196.9,0" class="g3_331" />
<path d="M430.7,304.4l196.9,0" class="g3_331" />
<path d="M627.6,304.4l104.5,0" class="g3_331" />
<path d="M732.1,304.4l70.4,0" class="g3_331" />
<path d="M802.5,304.4l63.8,0" class="g3_331" />
<path d="M55,346.6l178.8,0" class="g3_331" />
<path d="M233.8,346.6l196.9,0" class="g3_331" />
<path d="M430.7,346.6l196.9,0" class="g3_331" />
<path d="M627.6,346.6l104.5,0" class="g3_331" />
<path d="M732.1,346.6l70.4,0" class="g3_331" />
<path d="M802.5,346.6l63.8,0" class="g3_331" />
<path d="M55,473.1l178.8,0" class="g3_331" />
<path d="M233.8,473.1l196.9,0" class="g3_331" />
<path d="M430.7,473.1l196.9,0" class="g3_331" />
<path d="M627.6,473.1l104.5,0" class="g3_331" />
<path d="M732.1,473.1l70.4,0" class="g3_331" />
<path d="M802.5,473.1l63.8,0" class="g3_331" />
<path d="M55,515.2l178.8,0" class="g3_331" />
<path d="M233.8,515.2l196.9,0" class="g3_331" />
<path d="M430.7,515.2l196.9,0" class="g3_331" />
<path d="M627.6,515.2l104.5,0" class="g3_331" />
<path d="M732.1,515.2l70.4,0" class="g3_331" />
<path d="M802.5,515.2l63.8,0" class="g3_331" />
<path d="M55,557.4l178.8,0" class="g3_331" />
<path d="M233.8,557.4l196.9,0" class="g3_331" />
<path d="M430.7,557.4l196.9,0" class="g3_331" />
<path d="M627.6,557.4l104.5,0" class="g3_331" />
<path d="M732.1,557.4l70.4,0" class="g3_331" />
<path d="M802.5,557.4l63.8,0" class="g3_331" />
<path d="M55,599.6l178.8,0" class="g3_331" />
<path d="M233.8,599.6l196.9,0" class="g3_331" />
<path d="M430.7,599.6l196.9,0" class="g3_331" />
<path d="M627.6,599.6l104.5,0" class="g3_331" />
<path d="M732.1,599.6l70.4,0" class="g3_331" />
<path d="M802.5,599.6l63.8,0" class="g3_331" />
<path d="M55,641.7l178.8,0" class="g3_331" />
<path d="M233.8,641.7l196.9,0" class="g3_331" />
<path d="M430.7,641.7l196.9,0" class="g3_331" />
<path d="M627.6,641.7l104.5,0" class="g3_331" />
<path d="M732.1,641.7l70.4,0" class="g3_331" />
<path d="M802.5,641.7l63.8,0" class="g3_331" />
<path d="M55,683.9l178.8,0" class="g3_331" />
<path d="M233.8,683.9l196.9,0" class="g3_331" />
<path d="M430.7,683.9l196.9,0" class="g3_331" />
<path d="M627.6,683.9l104.5,0" class="g3_331" />
<path d="M732.1,683.9l70.4,0" class="g3_331" />
<path d="M802.5,683.9l63.8,0" class="g3_331" />
<path d="M55,726.1l178.8,0" class="g3_331" />
<path d="M233.8,726.1l196.9,0" class="g3_331" />
<path d="M430.7,726.1l196.9,0" class="g3_331" />
<path d="M627.6,726.1l104.5,0" class="g3_331" />
<path d="M732.1,726.1l70.4,0" class="g3_331" />
<path d="M802.5,726.1l63.8,0" class="g3_331" />
<path d="M55,770.2l178.8,0" class="g3_331" />
<path d="M233.8,770.2l196.9,0" class="g3_331" />
<path d="M430.7,770.2l196.9,0" class="g3_331" />
<path d="M627.6,770.2l104.5,0" class="g3_331" />
<path d="M732.1,770.2l70.4,0" class="g3_331" />
<path d="M802.5,770.2l63.8,0" class="g3_331" />
<path d="M55,812.4l178.8,0" class="g3_331" />
<path d="M233.8,812.4l196.9,0" class="g3_331" />
<path d="M430.7,812.4l196.9,0" class="g3_331" />
<path d="M627.6,812.4l104.5,0" class="g3_331" />
<path d="M732.1,812.4l70.4,0" class="g3_331" />
<path d="M802.5,812.4l63.8,0" class="g3_331" />
<path d="M55,854.5l178.8,0" class="g3_331" />
<path d="M233.8,854.5l196.9,0" class="g3_331" />
<path d="M430.7,854.5l196.9,0" class="g3_331" />
<path d="M627.6,854.5l104.5,0" class="g3_331" />
<path d="M732.1,854.5l70.4,0" class="g3_331" />
<path d="M802.5,854.5l63.8,0" class="g3_331" />
<path d="M55,896.7l178.8,0" class="g3_331" />
<path d="M233.8,896.7l196.9,0" class="g3_331" />
<path d="M430.7,896.7l196.9,0" class="g3_331" />
<path d="M627.6,896.7l104.5,0" class="g3_331" />
<path d="M732.1,896.7l70.4,0" class="g3_331" />
<path d="M802.5,896.7l63.8,0" class="g3_331" />
<path d="M55,938.9l178.8,0" class="g3_331" />
<path d="M233.8,938.9l196.9,0" class="g3_331" />
<path d="M430.7,938.9l196.9,0" class="g3_331" />
<path d="M627.6,938.9l104.5,0" class="g3_331" />
<path d="M732.1,938.9l70.4,0" class="g3_331" />
<path d="M802.5,938.9l63.8,0" class="g3_331" />
<path d="M55,1065.4l178.8,0" class="g3_331" />
<path d="M233.8,1065.4l196.9,0" class="g3_331" />
<path d="M430.7,1065.4l196.9,0" class="g3_331" />
<path d="M627.6,1065.4l104.5,0" class="g3_331" />
<path d="M732.1,1065.4l70.4,0" class="g3_331" />
<path d="M802.5,1065.4l63.8,0" class="g3_331" />
<path d="M55,1107.5l178.8,0" class="g3_331" />
<path d="M233.8,1107.5l196.9,0" class="g3_331" />
<path d="M430.7,1107.5l196.9,0" class="g3_331" />
<path d="M627.6,1107.5l104.5,0" class="g3_331" />
<path d="M732.1,1107.5l70.4,0" class="g3_331" />
<path d="M802.5,1107.5l63.8,0" class="g3_331" />
<text 
x="61" 
y="80" 
dx="0,0,0,0,0,0,0" 
class="s1_331"
>English</text>

<text 
x="239" 
y="80" 
dx="0,0,0,0,0,0,0,0,0,0" 
class="s1_331"
>Simplified</text>

<text 
x="436" 
y="80" 
dx="0,-1,0,0,0,0,0,0,0,0,0" 
class="s1_331"
>Traditional</text>

<text 
x="633" 
y="80" 
dx="0,0,0,0,0,0" 
class="s1_331"
>Pinyin</text>

<text 
x="738" 
y="73" 
dx="0,-0.3,0,0,0,0,0,0" 
class="s1_331"
>Part of </text>

<text 
x="738" 
y="86" 
dx="0,0,0,0,0,0" 
class="s1_331"
>Speech</text>

<text 
x="808" 
y="80" 
dx="0,-0.2,0,0,0,0" 
class="s1_331"
>Lesson</text>

<text 
x="61" 
y="120" 
dx="0,0,0,0,0,0,0,0,0,0,0,0,0,0,0,0" 
class="s2_331"
>English language</text>

<text 
x="239" 
y="123" 
dx="0,0" 
class="s3_331"
>英文</text>

<text 
x="436" 
y="123" 
dx="0,0" 
class="s4_331"
>英文</text>

<text 
x="633" 
y="120" 
dx="0,0,0,0,0,0,0" 
class="s5_331"
>Yīngwén</text>

<text 
x="738" 
y="120" 
dx="0" 
class="s6_331"
>n</text>

<text 
x="808" 
y="120" 
dx="0" 
class="s7_331"
>2</text>

<text 
x="61" 
y="162" 
dx="0,0,0,0,0" 
class="s2_331"
>enter</text>

<text 
x="239" 
y="165" 
dx="0" 
class="s3_331"
>进</text>

<text 
x="436" 
y="165" 
dx="0" 
class="s4_331"
>進</text>

<text 
x="633" 
y="162" 
dx="0,0,0" 
class="s5_331"
>jìn</text>

<text 
x="738" 
y="162" 
dx="0" 
class="s6_331"
>v</text>

<text 
x="808" 
y="162" 
dx="0" 
class="s7_331"
>5</text>

<text 
x="61" 
y="205" 
dx="0,0,0,0,0,0,0,0,0,0" 
class="s2_331"
>especially</text>

<text 
x="239" 
y="207" 
dx="0,0" 
class="s3_331"
>特别</text>

<text 
x="436" 
y="207" 
dx="0,0" 
class="s4_331"
>特別</text>

<text 
x="633" 
y="204" 
dx="0,0,0,0,0" 
class="s5_331"
>tèbié</text>

<text 
x="738" 
y="205" 
dx="0,0,0" 
class="s6_331"
>adv</text>

<text 
x="808" 
y="205" 
dx="0,0" 
class="s7_331"
>10</text>

<text 
x="61" 
y="247" 
dx="0,0,0,0,0,0,0,0,0,0,0,0,0,0" 
class="s2_331"
>evening, night</text>

<text 
x="239" 
y="249" 
dx="0,0" 
class="s3_331"
>晚上</text>

<text 
x="633" 
y="247" 
dx="0,0,0,0,0,0,0,0" 
class="s5_331"
>wǎnshang</text>

<text 
x="738" 
y="247" 
dx="0" 
class="s6_331"
>t</text>

<text 
x="808" 
y="247" 
dx="0" 
class="s7_331"
>3</text>

<text 
x="61" 
y="289" 
dx="0,0,0,0,0,-0.9,0,0,0,0,0" 
class="s2_331"
>every, each</text>

<text 
x="239" 
y="292" 
dx="0" 
class="s3_331"
>每</text>

<text 
x="633" 
y="289" 
dx="0,0,0" 
class="s5_331"
>měi</text>

<text 
x="738" 
y="289" 
dx="0,0" 
class="s6_331"
>pr</text>

<text 
x="808" 
y="289" 
dx="0,0" 
class="s7_331"
>10</text>

<text 
x="61" 
y="331" 
dx="0,0,0,0,0,0,0,0,0" 
class="s2_331"
>everybody</text>

<text 
x="239" 
y="334" 
dx="0,0" 
class="s3_331"
>大家</text>

<text 
x="633" 
y="331" 
dx="0,0,0,0,0" 
class="s5_331"
>dàjiā</text>

<text 
x="738" 
y="331" 
dx="0,0" 
class="s6_331"
>pr</text>

<text 
x="808" 
y="331" 
dx="0" 
class="s7_331"
>7</text>

<text 
x="61" 
y="373" 
dx="0,-0.4,-0.6,0,0,0,0,0,-0.1,0,0,0,0,0,0,0" 
class="s2_331"
>exchange, change</text>

<text 
x="239" 
y="376" 
dx="0" 
class="s3_331"
>换</text>

<text 
x="436" 
y="376" 
dx="0" 
class="s4_331"
>換</text>

<text 
x="633" 
y="373" 
dx="0,0,0,0" 
class="s5_331"
>huàn</text>

<text 
x="738" 
y="373" 
dx="0" 
class="s6_331"
>v</text>

<text 
x="808" 
y="373" 
dx="0" 
class="s7_331"
>9</text>

<text 
x="454" 
y="418" 
dx="0" 
class="s8_331"
>F</text>

<text 
x="61" 
y="458" 
dx="0,0,0,0,0,0,-0.9,0,0,0,0,0" 
class="s2_331"
>family, home</text>

<text 
x="239" 
y="460" 
dx="0" 
class="s3_331"
>家</text>

<text 
x="633" 
y="457" 
dx="0,0,0" 
class="s5_331"
>jiā</text>

<text 
x="738" 
y="458" 
dx="0" 
class="s6_331"
>n</text>

<text 
x="808" 
y="458" 
dx="0" 
class="s7_331"
>2</text>

<text 
x="61" 
y="500" 
dx="0,0,0,0,0,0,0,0,0,0,0,0,0,0,0,0,0,0,0,0" 
class="s2_331"
>fast, quick; quickly</text>

<text 
x="239" 
y="502" 
dx="0" 
class="s3_331"
>快</text>

<text 
x="633" 
y="500" 
dx="0,0,0,0" 
class="s5_331"
>kuài</text>

<text 
x="738" 
y="500" 
dx="0,0,0,0,0,0,0" 
class="s6_331"
>adj/adv</text>

<text 
x="808" 
y="500" 
dx="0" 
class="s7_331"
>5</text>

<text 
x="61" 
y="542" 
dx="0,0,0,0,0,0,-1.3,0,0,0,0" 
class="s2_331"
>father, dad</text>

<text 
x="239" 
y="545" 
dx="0,0" 
class="s3_331"
>爸爸</text>

<text 
x="633" 
y="542" 
dx="0,0,0,0" 
class="s9_331"
>bàba</text>

<text 
x="738" 
y="542" 
dx="0" 
class="s6_331"
>n</text>

<text 
x="808" 
y="542" 
dx="0" 
class="s7_331"
>2</text>

<text 
x="61" 
y="584" 
dx="0,0,0,0,0,0,0,0,0,0,0" 
class="s2_331"
>feel, think</text>

<text 
x="239" 
y="587" 
dx="0,0" 
class="s3_331"
>觉得</text>

<text 
x="436" 
y="587" 
dx="0,0" 
class="s4_331"
>覺得</text>

<text 
x="633" 
y="584" 
dx="0,0,0,0,0" 
class="s5_331"
>juéde</text>

<text 
x="738" 
y="584" 
dx="0" 
class="s6_331"
>v</text>

<text 
x="808" 
y="584" 
dx="0" 
class="s7_331"
>4</text>

<text 
x="61" 
y="626" 
dx="0,0,0,0,0,0,0,0,0,0,0,0,0,0,0,0" 
class="s2_331"
>feel embarrassed</text>

<text 
x="239" 
y="629" 
dx="0,0,0,0" 
class="s3_331"
>不好意思</text>

<text 
x="633" 
y="626" 
dx="0,0,0,0,0,0,0,0,0,0" 
class="s5_331"
>bù hǎoyìsi</text>

<text 
x="808" 
y="626" 
dx="0,0" 
class="s7_331"
>10</text>

<text 
x="61" 
y="668" 
dx="0,0,0,0,0,0" 
class="s2_331"
>female</text>

<text 
x="239" 
y="671" 
dx="0" 
class="s3_331"
>女</text>

<text 
x="633" 
y="668" 
dx="0,0" 
class="s5_331"
>nǚ</text>

<text 
x="738" 
y="668" 
dx="0,0,0" 
class="s6_331"
>adj</text>

<text 
x="808" 
y="668" 
dx="0" 
class="s7_331"
>2</text>

<text 
x="61" 
y="711" 
dx="0,0,0,0,0,0,0,0,0,0,0" 
class="s2_331"
>final, last</text>

<text 
x="239" 
y="713" 
dx="0,0" 
class="s3_331"
>最后</text>

<text 
x="436" 
y="713" 
dx="0,0" 
class="s4_331"
>最後</text>

<text 
x="633" 
y="710" 
dx="0,0,0,0,0,0" 
class="s5_331"
>zuìhòu</text>

<text 
x="808" 
y="711" 
dx="0,0" 
class="s7_331"
>10</text>

<text 
x="61" 
y="744" 
dx="0,0,0,0,-0.1,0,0,0,0,0,0,0,0,0,0,0,-0.1,0,0,0,0,0" 
class="s2_331"
>fine, good, nice, OK, </text>

<text 
x="61" 
y="764" 
dx="0,0,0,-0.5,0,0,0,0,0,0,0,0" 
class="s2_331"
>it’s settled</text>

<text 
x="239" 
y="756" 
dx="0" 
class="s3_331"
>好</text>

<text 
x="633" 
y="754" 
dx="0,0,0" 
class="s5_331"
>hǎo</text>

<text 
x="738" 
y="754" 
dx="0,0,0" 
class="s6_331"
>adj</text>

<text 
x="808" 
y="754" 
dx="0" 
class="s7_331"
>1</text>

<text 
x="61" 
y="797" 
dx="0,0,0,0,0" 
class="s2_331"
>first</text>

<text 
x="239" 
y="800" 
dx="0" 
class="s3_331"
>先</text>

<text 
x="633" 
y="797" 
dx="0,0,0,0" 
class="s5_331"
>xiān</text>

<text 
x="738" 
y="797" 
dx="0,0,0" 
class="s6_331"
>adv</text>

<text 
x="808" 
y="797" 
dx="0,0" 
class="s7_331"
>10</text>

<text 
x="61" 
y="839" 
dx="0,0,0,0,0,0,0,0,0,0,0,0,0,0,0" 
class="s2_331"
>foreign country</text>

<text 
x="239" 
y="842" 
dx="0,0" 
class="s3_331"
>外国</text>

<text 
x="436" 
y="842" 
dx="0,0" 
class="s4_331"
>外國</text>

<text 
x="633" 
y="839" 
dx="0,0,0,0,0,0" 
class="s5_331"
>wàiguó</text>

<text 
x="738" 
y="839" 
dx="0" 
class="s6_331"
>n</text>

<text 
x="808" 
y="839" 
dx="0" 
class="s7_331"
>4</text>

<text 
x="61" 
y="881" 
dx="0,0,0,0,0,0,0,0,0,0,0,0,0,0,0,0,0,0,0,0,0" 
class="s2_331"
>forget it, never mind</text>

<text 
x="239" 
y="884" 
dx="0,0" 
class="s3_331"
>算了</text>

<text 
x="633" 
y="881" 
dx="0,0,0,0,0,0,0" 
class="s5_331"
>suàn le</text>

<text 
x="808" 
y="881" 
dx="0" 
class="s7_331"
>4</text>

<text 
x="61" 
y="923" 
dx="0,0,0,0,0,0,0,0,0" 
class="s2_331"
>free time</text>

<text 
x="239" 
y="926" 
dx="0,0,0,0" 
class="s3_331"
>空（儿）</text>

<text 
x="436" 
y="926" 
dx="0,0,0,0" 
class="s4_331"
>空（兒）</text>

<text 
x="633" 
y="923" 
dx="0,0,0,0,0,0,0" 
class="s5_331"
>kòng(r)</text>

<text 
x="738" 
y="923" 
dx="0" 
class="s6_331"
>n</text>

<text 
x="808" 
y="923" 
dx="0" 
class="s7_331"
>6</text>

<text 
x="61" 
y="965" 
dx="0,0,0,0,0,0" 
class="s2_331"
>friend</text>

<text 
x="239" 
y="968" 
dx="0,0" 
class="s3_331"
>朋友</text>

<text 
x="633" 
y="965" 
dx="0,0,0,0,0,0,0" 
class="s5_331"
>péngyou</text>

<text 
x="738" 
y="965" 
dx="0" 
class="s6_331"
>n</text>

<text 
x="808" 
y="965" 
dx="0" 
class="s7_331"
>3</text>

<text 
x="452" 
y="1010" 
dx="0" 
class="s8_331"
>G</text>

<text 
x="61" 
y="1050" 
dx="0,0,0,0,0,-0.6,0,0,0,0,0,0" 
class="s2_331"
>Gao Wenzhong</text>

<text 
x="239" 
y="1053" 
dx="0,0,0" 
class="s3_331"
>高文中</text>

<text 
x="633" 
y="1050" 
dx="0,0,0,0,0,-1.8,0,0,0,0,0,0" 
class="s5_331"
>Gāo Wénzhōng</text>

<text 
x="738" 
y="1050" 
dx="0,0" 
class="s6_331"
>pn</text>

<text 
x="808" 
y="1050" 
dx="0" 
class="s7_331"
>2</text>

<text 
x="61" 
y="1092" 
dx="0,0,0,0,0,0,0,0,0,0,0" 
class="s2_331"
>Gao Xiaoyin</text>

<text 
x="239" 
y="1095" 
dx="0,0,0" 
class="s3_331"
>高小音</text>

<text 
x="633" 
y="1092" 
dx="0,0,0,0,0,0,0,0,0,0,0" 
class="s5_331"
>Gāo Xiǎoyīn</text>

<text 
x="738" 
y="1092" 
dx="0,0" 
class="s6_331"
>pn</text>

<text 
x="808" 
y="1092" 
dx="0" 
class="s7_331"
>5</text>

<text 
x="61" 
y="1134" 
dx="0,0,0,0,0,0,0,0,0,0,0,0,0,0,0,0,0,0,0,0,0,0,0,0,0,0,0,0" 
class="s2_331"
>get off (a bus, train, etc.)</text>

<text 
x="239" 
y="1137" 
dx="0,0" 
class="s3_331"
>下车</text>

<text 
x="436" 
y="1137" 
dx="0,0" 
class="s4_331"
>下車</text>

<text 
x="633" 
y="1134" 
dx="0,0,0,0,0,0,0" 
class="s5_331"
>xià chē</text>

<text 
x="738" 
y="1134" 
dx="0,0" 
class="s6_331"
>vo</text>

<text 
x="808" 
y="1134" 
dx="0,0" 
class="s7_331"
>10</text>

<path d="M-22.1,1213.8l58,0l0,-1229.7l-58,0l0,1229.7Z" class="g6_331" />
<text 
transform="matrix(0, -1, 1, 0, 26, 1173)"
dx="0,0.3,0.3,0.3" 
class="s10_331"
>310 </text>

<text 
transform="matrix(0, -1, 1, 0, 26, 1138)"
dx="0,0.3,0.3,0.3,0.3,0.3,0.3,0.3,0.3,0.3,0.3,0.3,0.3,0.3,0.3,0.3,0.3,0.3,0.3,0.3,0.3" 
class="s10_331"
>Integrated Chinese 1 </text>

<text 
transform="matrix(0, -1, 1, 0, 26, 1016)"
dx="0,0.3" 
class="s10_331"
>| </text>

<text 
transform="matrix(0, -1, 1, 0, 26, 1003)"
dx="0,-0.9,-0.1,0.3,0.3,0.3,0.3,0.3" 
class="s10_331"
>Textbook</text>



<!-- Any embedded fonts defined here -->
<style type="text/css" ><![CDATA[

@font-face {
	font-family: Marion-Italic_2si;
	src: url("fonts/Marion-Italic_2si.woff") format("woff");
}

@font-face {
	font-family: ProximaNova-Light_372;
	src: url("fonts/ProximaNova-Light_372.woff") format("woff");
}

@font-face {
	font-family: ProximaNova-Semibold_376;
	src: url("fonts/ProximaNova-Semibold_376.woff") format("woff");
}

@font-face {
	font-family: Marion-Italic_374;
	src: url("fonts/Marion-Italic_374.woff") format("woff");
}

@font-face {
	font-family: ProximaNova-Bold_378;
	src: url("fonts/ProximaNova-Bold_378.woff") format("woff");
}

@font-face {
	font-family: ProximaNova-Regular_377;
	src: url("fonts/ProximaNova-Regular_377.woff") format("woff");
}

@font-face {
	font-family: STKaiTi-TC-Regular_371;
	src: url("fonts/STKaiTi-TC-Regular_371.woff") format("woff");
}

@font-face {
	font-family: STKaiti-SC-Regular_2t7;
	src: url("fonts/STKaiti-SC-Regular_2t7.woff") format("woff");
}

]]></style>

</svg>
