<?xml version="1.0" encoding="UTF-8" standalone="no"?>
<!DOCTYPE svg PUBLIC "-//W3C//DTD SVG 1.1//EN"
"http://www.w3.org/Graphics/SVG/1.1/DTD/svg11.dtd">


<!-- Page 25 -->
<svg x="0" y="0" width="921" height="1196" viewBox="0 0 921 1196" version="1.1" xmlns="http://www.w3.org/2000/svg" xmlns:xlink="http://www.w3.org/1999/xlink"
style="display: block;margin-left: auto;margin-right: auto;">
<defs>

<style type="text/css"><![CDATA[

.g1_25{
fill: #7AAD35;
}
.g2_25{
fill: #F3F4F4;
}
.g3_25{
fill: none;
stroke: #BDBEC1;
stroke-width: 1.5277778;
stroke-linecap: butt;
stroke-linejoin: miter;
}
.g4_25{
fill: none;
stroke: #BDBEC1;
stroke-width: 0.38194445;
stroke-linecap: butt;
stroke-linejoin: miter;
}
.g5_25{
fill: none;
stroke: #A8A9AD;
stroke-width: 1.5277778;
stroke-linecap: butt;
stroke-linejoin: miter;
}
.g6_25{
fill: none;
stroke: #7AAD35;
stroke-width: 1.5277778;
stroke-linecap: butt;
stroke-linejoin: miter;
stroke-miterlimit: 4;
}
.g7_25{
fill: none;
stroke: #7AAD35;
stroke-width: 0.5102778;
stroke-linecap: butt;
stroke-linejoin: miter;
stroke-miterlimit: 4;
}
.g8_25{
fill: #7AAD35;
stroke: #B2B3B7;
stroke-width: 1.5277778;
stroke-linecap: butt;
stroke-linejoin: miter;
stroke-miterlimit: 4;
}

.s1_25{
font-size: 24.44px;
font-family: Marion-Italic_2sy;
fill: #537D23;
}
.s2_25{
font-size: 17.57px;
font-family: Marion-Italic_2sy;
fill: #537D23;
}
.s3_25{
font-size: 14.82px;
font-family: ProximaNova-Regular_2sw;
fill: #3F3F40;
}
.s4_25{
font-size: 14.82px;
font-family: ProximaNova-Bold_2ss;
fill: #FFFFFF;
}
.s5_25{
font-size: 14.82px;
font-family: ProximaNova-Medium_2sm;
fill: #7AAD35;
}
.s6_25{
font-size: 18.33px;
font-family: Marion-Italic_2sy;
fill: #537D23;
}
.s7_25{
font-size: 19.10px;
font-family: Marion-Italic_2sy;
fill: #537D23;
}
.s8_25{
font-size: 14.82px;
font-family: ProximaNova-Bold_2ss;
fill: #7AAD35;
}
.s9_25{
font-size: 22.15px;
font-family: Marion-Italic_2sy;
fill: #537D23;
}
.s10_25{
font-size: 15.28px;
font-family: ProximaNova-Bold_2ss;
fill: #3F3F40;
}
.s11_25{
font-size: 11.46px;
font-family: ProximaNova-Semibold_2s-;
fill: #FFFFFF;
}

]]></style>

</defs>
<path d="M0,0
L0,1196
L921,1196
L921,0 Z " 
fill="#FFFFFF" stroke="none" />
<text 
x="171" 
y="587" 
dx="0,0,0,0,0,0,0" 
class="s1_25"
>g, k, h</text>

<text 
x="171" 
y="626" 
dx="0" 
class="s2_25"
>g</text>

<text 
x="181" 
y="626" 
dx="0,0,0,0,0,0,0,0,0,0,0,0,0,0,0,0,0,0,0,0,0,0,0,0,0,0,0,0,0,0,0,0,0,0,0,0,0" 
class="s3_25"
>is unaspirated and voiceless, whereas</text>

<text 
x="431" 
y="626" 
dx="0" 
class="s2_25"
>k</text>

<text 
x="442" 
y="626" 
dx="0,0,0,0,0,0,0,0,0,0,0,0,0,0,0,0,0,0,0,0,0,0,0,0,0,0,0,0,0,0,0,0,0,0,0,0,0,0,0,0,0,0,0,0,0" 
class="s3_25"
>is aspirated and voiceless. When pronouncing </text>

<text 
x="744" 
y="626" 
dx="0" 
class="s2_25"
>g</text>

<text 
x="754" 
y="626" 
dx="0,0,0,0" 
class="s3_25"
>and </text>

<text 
x="782" 
y="626" 
dx="0" 
class="s2_25"
>k</text>

<text 
x="789" 
y="626" 
dx="0,0" 
class="s3_25"
>, </text>

<text 
x="171" 
y="644" 
dx="0,0,0,0,0,0,0,0,0,0,0,0,0,0,0,0,0,0,0,0,0,0,0,0,0,0,0,0,0,0,0,0,0,0,0,0,0,0,0,0,0,0,0,0,0,0,0,0,0,0,0,0,0,0,-0.1,0,0,-0.4,0,0,0,0,0,-0.8,0" 
class="s3_25"
>raise the back of your tongue against your soft palate. Roughly, </text>

<text 
x="582" 
y="644" 
dx="0" 
class="s2_25"
>g</text>

<text 
x="593" 
y="644" 
dx="0,0,0,0,0,0,0,0,0,0,-0.3,0,0,0,0,0,0,0,0,0,0,0,0,0,-0.4,0,0,-0.8,-1.1,0,0,0,0,0" 
class="s3_25"
>sounds like the “k” in “sky,” and </text>

<text 
x="799" 
y="644" 
dx="0" 
class="s2_25"
>k</text>

<text 
x="171" 
y="661" 
dx="0,0,0,0,0,0,0,0,0,0,-0.3,0,0,0,0,0,0,0,0,0,0,0,0,0,0,0,0,0,-0.1,-1.1" 
class="s3_25"
>sounds like the “k” in “kite.”</text>

<text 
x="171" 
y="686" 
dx="0" 
class="s2_25"
>h</text>

<text 
x="182" 
y="686" 
dx="0,0,0,0,0,0,0,0,0,0,0,0,0,0,0,0,0,0,0,0,0,0,0,0,0,0,0,0,0,0,0" 
class="s3_25"
>is voiceless. When pronouncing </text>

<text 
x="392" 
y="686" 
dx="0" 
class="s2_25"
>h</text>

<text 
x="399" 
y="686" 
dx="0,0,0,0,0,0,0,0,0,0,0,0,0,0,0,0,0,0,0,0,0,0,0,0,0,0,0,0,0,0,0,0,0,0,0,0,0,0,0,0,0,0,0,0,0,0,0,0,0,0,0,0,0,0,0,0,-0.1,0,0,0,0,0,0,-0.3,0" 
class="s3_25"
>, raise the back of your tongue towards your soft palate. Unlike </text>

<text 
x="171" 
y="704" 
dx="0,0,0,0,0,0,0,0,0,0,0,0,0,0,0,0,0,0,0,0,0,0,0,0,0,0,0,0,0,0,0,0,0,0,0,0,0,0,0,0,0,0,0,0,0,0,0,0,0,0,0,0,0,0,0,0,0,0,0,0,0,0,0,0,0,0,0,0,0,0,0,0,-0.1,0" 
class="s3_25"
>the pronunciation of its English counterpart, the friction is noticeable. </text>

<text 
x="171" 
y="728" 
dx="0,0,0,0,0,0,0,0,0,0,0,0,0,0,0,0,0,0,0,0,0,0,0" 
class="s3_25"
>Only the simple finals </text>

<text 
x="314" 
y="728" 
dx="0" 
class="s2_25"
>a</text>

<text 
x="321" 
y="728" 
dx="0,0" 
class="s3_25"
>, </text>

<text 
x="328" 
y="728" 
dx="0" 
class="s2_25"
>e</text>

<text 
x="334" 
y="728" 
dx="0,0,0,0,0,0" 
class="s3_25"
>, and </text>

<text 
x="370" 
y="728" 
dx="0" 
class="s2_25"
>u</text>

<text 
x="381" 
y="728" 
dx="0,0,0,0,0,0,0,0,0,0,0,0,0,0,0,0,0,0,0,0,0,0,0,0,0,0,0,0,0,0,0,0,0,0,0,0,0,0,0,0" 
class="s3_25"
>and the compound finals that start with </text>

<text 
x="637" 
y="728" 
dx="0" 
class="s2_25"
>a</text>

<text 
x="644" 
y="728" 
dx="0,0" 
class="s3_25"
>, </text>

<text 
x="651" 
y="728" 
dx="0" 
class="s2_25"
>e</text>

<text 
x="657" 
y="728" 
dx="0,0,0,0,0" 
class="s3_25"
>, or </text>

<text 
x="682" 
y="728" 
dx="0" 
class="s2_25"
>u</text>

<text 
x="693" 
y="728" 
dx="0,0,0,0,0,0,0,0,0,0,0,0,0,0,0,0" 
class="s3_25"
>can be combined </text>

<text 
x="171" 
y="746" 
dx="0,0,0,0,0" 
class="s3_25"
>with </text>

<text 
x="202" 
y="746" 
dx="0" 
class="s2_25"
>g</text>

<text 
x="208" 
y="746" 
dx="0,0" 
class="s3_25"
>, </text>

<text 
x="215" 
y="746" 
dx="0" 
class="s2_25"
>k</text>

<text 
x="222" 
y="746" 
dx="0,0,0,0,0,0" 
class="s3_25"
>, and </text>

<text 
x="258" 
y="746" 
dx="0" 
class="s2_25"
>h</text>

<text 
x="265" 
y="746" 
dx="0" 
class="s3_25"
>.</text>

<text 
x="171" 
y="771" 
dx="0,0,0,0,0,0,0,0,0,0,0,0,0,0,0,0,0,0,0,0,0,0,0,0,0,0,0,0,0,0,0,0,0,0,0,0,0,0,0,0,0,0,0,0,-0.5,-0.5,0,0,0,0,0,0,0,0,0,0,0,0,0" 
class="s3_25"
>Practice your pronunciation with the audio exercises below:</text>

<path d="M231.8,257.2l55,0l0,23.9l-55,0l0,-23.9Z" class="g1_25" />
<path d="M231.8,281.1l44,0l0,34.4l-44,0l0,-34.4Zm44,0l44,0l0,34.4l-44,0l0,-34.4Zm44,0l44,0l0,34.4l-44,0l0,-34.4Zm44,0l44,0l0,34.4l-44,0l0,-34.4Zm44,0l44,0l0,34.4l-44,0l0,-34.4Zm-176,68.8l44,0l0,34.4l-44,0l0,-34.4Zm44,0l44,0l0,34.4l-44,0l0,-34.4Zm44,0l44,0l0,34.4l-44,0l0,-34.4Zm44,0l44,0l0,34.4l-44,0l0,-34.4Zm44,0l44,0l0,34.4l-44,0l0,-34.4Z" class="g2_25" />
<path d="M231.8,418.6l44,0" class="g3_25" />
<path d="M275.8,418.6l11,0" class="g3_25" />
<path d="M286.8,418.6l33,0" class="g3_25" />
<path d="M319.8,418.6l44,0" class="g3_25" />
<path d="M363.8,418.6l44,0" class="g3_25" />
<path d="M407.8,418.6l44,0" class="g3_25" />
<path d="M231.8,315.5l44,0" class="g4_25" />
<path d="M275.8,315.5l11,0" class="g4_25" />
<path d="M286.8,315.5l33,0" class="g4_25" />
<path d="M319.8,315.5l44,0" class="g4_25" />
<path d="M363.8,315.5l44,0" class="g4_25" />
<path d="M407.8,315.5l44,0" class="g4_25" />
<path d="M231.8,349.9l44,0" class="g4_25" />
<path d="M275.8,349.9l11,0" class="g4_25" />
<path d="M286.8,349.9l33,0" class="g4_25" />
<path d="M319.8,349.9l44,0" class="g4_25" />
<path d="M363.8,349.9l44,0" class="g4_25" />
<path d="M407.8,349.9l44,0" class="g4_25" />
<path d="M231.8,384.3l44,0" class="g4_25" />
<path d="M275.8,384.3l11,0" class="g4_25" />
<path d="M286.8,384.3l33,0" class="g4_25" />
<path d="M319.8,384.3l44,0" class="g4_25" />
<path d="M363.8,384.3l44,0" class="g4_25" />
<path d="M407.8,384.3l44,0" class="g4_25" />
<path d="M231.8,281.1l44,0" class="g5_25" />
<path d="M275.8,281.1l11,0" class="g5_25" />
<path d="M286.8,281.1l33,0" class="g5_25" />
<path d="M319.8,281.1l44,0" class="g5_25" />
<path d="M363.8,281.1l44,0" class="g5_25" />
<path d="M407.8,281.1l44,0" class="g5_25" />
<text 
x="237" 
y="275" 
dx="0,0,0,0,0,0" 
class="s4_25"
>B.2.a </text>

<text 
transform="matrix(0.9, 0, 0, 1, 292, 275)"
dx="0,-0.3,-0.3,-0.3,-0.3,-0.3,-0.3,-0.3,-0.3,-0.3,-0.3,-0.3,-0.3,-0.3,-0.3,-0.3,-0.3,-0.3,-0.3,-0.3,-0.3,-0.3,-0.3,-0.3,-0.3,-0.3,-0.3,-0.3" 
class="s5_25"
>(Initial-Final Combinations)</text>

<text 
x="237" 
y="304" 
dx="0,0" 
class="s6_25"
>da</text>

<text 
x="281" 
y="304" 
dx="0,0" 
class="s6_25"
>di</text>

<text 
x="325" 
y="304" 
dx="0,0" 
class="s6_25"
>du</text>

<text 
x="369" 
y="304" 
dx="0,0" 
class="s6_25"
>de</text>

<text 
x="237" 
y="339" 
dx="0,0" 
class="s6_25"
>ta</text>

<text 
x="281" 
y="339" 
dx="0,0" 
class="s6_25"
>ti</text>

<text 
x="325" 
y="339" 
dx="0,0" 
class="s6_25"
>tu</text>

<text 
x="369" 
y="339" 
dx="0,0" 
class="s6_25"
>te</text>

<text 
x="237" 
y="373" 
dx="0,0" 
class="s6_25"
>na</text>

<text 
x="281" 
y="373" 
dx="0,0" 
class="s6_25"
>ni</text>

<text 
x="325" 
y="373" 
dx="0,0" 
class="s6_25"
>nu</text>

<text 
x="369" 
y="373" 
dx="0,0" 
class="s6_25"
>ne</text>

<text 
x="413" 
y="373" 
dx="0,0" 
class="s6_25"
>nü</text>

<text 
x="237" 
y="407" 
dx="0,0" 
class="s6_25"
>la</text>

<text 
x="281" 
y="407" 
dx="0,0" 
class="s6_25"
>li</text>

<text 
x="325" 
y="407" 
dx="0,0" 
class="s6_25"
>lu</text>

<text 
x="369" 
y="407" 
dx="0,0" 
class="s6_25"
>le</text>

<text 
x="413" 
y="407" 
dx="0,0" 
class="s6_25"
>lü</text>

<path d="M475.5,257.2l55,0l0,25.6l-55,0l0,-25.6Z" class="g1_25" />
<path d="M475.5,282.8l55,0l0,34.4l-55,0l0,-34.4Zm55,0l55,0l0,34.4l-55,0l0,-34.4Zm55,0l55,0l0,34.4l-55,0l0,-34.4Zm55,0l55,0l0,34.4l-55,0l0,-34.4Z" class="g2_25" />
<path d="M475.5,317.2l55,0" class="g4_25" />
<path d="M530.5,317.2l55,0" class="g4_25" />
<path d="M585.5,317.2l55,0" class="g4_25" />
<path d="M640.5,317.2l55,0" class="g4_25" />
<path d="M475.5,282.8l55,0" class="g5_25" />
<path d="M530.5,282.8l55,0" class="g5_25" />
<path d="M585.5,282.8l55,0" class="g5_25" />
<path d="M640.5,282.8l55,0" class="g5_25" />
<path d="M475.5,351.5l55,0" class="g3_25" />
<path d="M530.5,351.5l55,0" class="g3_25" />
<path d="M585.5,351.5l55,0" class="g3_25" />
<path d="M640.5,351.5l55,0" class="g3_25" />
<text 
x="481" 
y="275" 
dx="0,0,0,0,-0.1" 
class="s4_25"
>B.2.c</text>

<text 
x="564" 
y="276" 
dx="0" 
class="s7_25"
>l</text>

<text 
x="571" 
y="276" 
dx="0,0,0,0" 
class="s8_25"
>vs. </text>

<text 
x="593" 
y="276" 
dx="0" 
class="s7_25"
>n</text>

<text 
x="481" 
y="306" 
dx="0,0" 
class="s6_25"
>lu</text>

<text 
x="536" 
y="306" 
dx="0,0" 
class="s6_25"
>lü</text>

<text 
x="591" 
y="306" 
dx="0,0" 
class="s6_25"
>nu</text>

<text 
x="646" 
y="306" 
dx="0,0" 
class="s6_25"
>nü</text>

<text 
x="481" 
y="340" 
dx="0,0" 
class="s6_25"
>lu</text>

<text 
x="536" 
y="340" 
dx="0,0" 
class="s6_25"
>nu</text>

<text 
x="591" 
y="340" 
dx="0,0" 
class="s6_25"
>lü</text>

<text 
x="646" 
y="340" 
dx="0,0" 
class="s6_25"
>nü</text>

<path d="M475.5,370.7l55,0l0,25.6l-55,0l0,-25.6Z" class="g1_25" />
<path d="M475.5,396.3l55,0l0,34.3l-55,0l0,-34.3Zm55,0l55,0l0,34.3l-55,0l0,-34.3Zm55,0l55,0l0,34.3l-55,0l0,-34.3Zm55,0l55,0l0,34.3l-55,0l0,-34.3Z" class="g2_25" />
<path d="M475.5,430.6l55,0" class="g4_25" />
<path d="M530.5,430.6l55,0" class="g4_25" />
<path d="M585.5,430.6l55,0" class="g4_25" />
<path d="M640.5,430.6l55,0" class="g4_25" />
<path d="M475.5,396.3l55,0" class="g5_25" />
<path d="M530.5,396.3l55,0" class="g5_25" />
<path d="M585.5,396.3l55,0" class="g5_25" />
<path d="M640.5,396.3l55,0" class="g5_25" />
<path d="M475.5,465l55,0" class="g3_25" />
<path d="M530.5,465l55,0" class="g3_25" />
<path d="M585.5,465l55,0" class="g3_25" />
<path d="M640.5,465l55,0" class="g3_25" />
<text 
x="481" 
y="388" 
dx="0,0,0,0,-0.1" 
class="s4_25"
>B.2.d</text>

<text 
x="564" 
y="390" 
dx="0" 
class="s7_25"
>d</text>

<text 
x="572" 
y="390" 
dx="0,0" 
class="s8_25"
>, </text>

<text 
x="580" 
y="390" 
dx="0" 
class="s7_25"
>t</text>

<text 
x="584" 
y="390" 
dx="0,0" 
class="s8_25"
>, </text>

<text 
x="592" 
y="390" 
dx="0" 
class="s7_25"
>n</text>

<text 
x="601" 
y="390" 
dx="0,0" 
class="s8_25"
>, </text>

<text 
x="608" 
y="390" 
dx="0" 
class="s7_25"
>l</text>

<text 
x="481" 
y="419" 
dx="0,0" 
class="s6_25"
>le</text>

<text 
x="536" 
y="419" 
dx="0,0" 
class="s6_25"
>ne</text>

<text 
x="591" 
y="419" 
dx="0,0" 
class="s6_25"
>te</text>

<text 
x="646" 
y="419" 
dx="0,0" 
class="s6_25"
>de</text>

<text 
x="481" 
y="454" 
dx="0,0" 
class="s6_25"
>du</text>

<text 
x="536" 
y="454" 
dx="0,0" 
class="s6_25"
>tu</text>

<text 
x="591" 
y="454" 
dx="0,0" 
class="s6_25"
>lu</text>

<text 
x="646" 
y="454" 
dx="0,0" 
class="s6_25"
>nu</text>

<path d="M231.8,433.4l55,0l0,27.7l-55,0l0,-27.7Z" class="g1_25" />
<path d="M231.8,461.1l55,0l0,34.4l-55,0l0,-34.4Zm55,0l55,0l0,34.4l-55,0l0,-34.4Zm55,0l55,0l0,34.4l-55,0l0,-34.4Zm55,0l55,0l0,34.4l-55,0l0,-34.4Z" class="g2_25" />
<path d="M231.8,495.5l55,0" class="g4_25" />
<path d="M286.8,495.5l55,0" class="g4_25" />
<path d="M341.8,495.5l55,0" class="g4_25" />
<path d="M396.8,495.5l55,0" class="g4_25" />
<path d="M231.8,461.1l55,0" class="g5_25" />
<path d="M286.8,461.1l55,0" class="g5_25" />
<path d="M341.8,461.1l55,0" class="g5_25" />
<path d="M396.8,461.1l55,0" class="g5_25" />
<path d="M231.8,529.8l55,0" class="g3_25" />
<path d="M286.8,529.8l55,0" class="g3_25" />
<path d="M341.8,529.8l55,0" class="g3_25" />
<path d="M396.8,529.8l55,0" class="g3_25" />
<text 
x="237" 
y="451" 
dx="0,0,0,0,0,0" 
class="s4_25"
>B.2.b </text>

<text 
x="320" 
y="454" 
dx="0" 
class="s7_25"
>d</text>

<text 
x="332" 
y="454" 
dx="0,0,0,0" 
class="s8_25"
>vs. </text>

<text 
x="354" 
y="454" 
dx="0" 
class="s9_25"
>t</text>

<text 
x="237" 
y="484" 
dx="0,0" 
class="s6_25"
>da</text>

<text 
x="292" 
y="484" 
dx="0,0" 
class="s6_25"
>ta</text>

<text 
x="347" 
y="484" 
dx="0,0" 
class="s6_25"
>di</text>

<text 
x="402" 
y="484" 
dx="0,0" 
class="s6_25"
>ti</text>

<text 
x="237" 
y="519" 
dx="0,0" 
class="s6_25"
>du</text>

<text 
x="292" 
y="519" 
dx="0,0" 
class="s6_25"
>tu</text>

<text 
x="347" 
y="519" 
dx="0,0" 
class="s6_25"
>de</text>

<text 
x="402" 
y="519" 
dx="0,0" 
class="s6_25"
>te</text>

<path d="M475.5,950.6l55,0l0,25.6l-55,0l0,-25.6Z" class="g1_25" />
<path d="M475.5,976.2l73.3,0l0,34.4l-73.3,0l0,-34.4Zm73.3,0l73.3,0l0,34.4l-73.3,0l0,-34.4Zm73.3,0l73.4,0l0,34.4l-73.4,0l0,-34.4Z" class="g2_25" />
<path d="M475.5,1010.6l55,0" class="g4_25" />
<path d="M530.5,1010.6l18.3,0" class="g4_25" />
<path d="M548.8,1010.6l73.3,0" class="g4_25" />
<path d="M622.1,1010.6l73.4,0" class="g4_25" />
<path d="M475.5,976.2l55,0" class="g5_25" />
<path d="M530.5,976.2l18.3,0" class="g5_25" />
<path d="M548.8,976.2l73.3,0" class="g5_25" />
<path d="M622.1,976.2l73.4,0" class="g5_25" />
<path d="M475.5,1045l55,0" class="g3_25" />
<path d="M530.5,1045l18.3,0" class="g3_25" />
<path d="M548.8,1045l73.3,0" class="g3_25" />
<path d="M622.1,1045l73.4,0" class="g3_25" />
<text 
x="481" 
y="968" 
dx="0,0,0,0,-0.1" 
class="s4_25"
>B.3.e</text>

<text 
x="564" 
y="970" 
dx="0" 
class="s7_25"
>g</text>

<text 
x="571" 
y="970" 
dx="0,0" 
class="s8_25"
>, </text>

<text 
x="578" 
y="970" 
dx="0" 
class="s7_25"
>k</text>

<text 
x="586" 
y="970" 
dx="0,0" 
class="s8_25"
>, </text>

<text 
x="593" 
y="970" 
dx="0" 
class="s7_25"
>h</text>

<text 
x="481" 
y="999" 
dx="0,0" 
class="s6_25"
>gu</text>

<text 
x="554" 
y="999" 
dx="0,0" 
class="s6_25"
>ku</text>

<text 
x="628" 
y="999" 
dx="0,0" 
class="s6_25"
>hu</text>

<text 
x="481" 
y="1034" 
dx="0,0" 
class="s6_25"
>he</text>

<text 
x="554" 
y="1034" 
dx="0,0" 
class="s6_25"
>ke</text>

<text 
x="628" 
y="1034" 
dx="0,0" 
class="s6_25"
>ge</text>

<path d="M231.8,944.6l55,0l0,25.6l-55,0l0,-25.6Z" class="g1_25" />
<path d="M231.8,970.2l55,0l0,34.4l-55,0l0,-34.4Zm55,0l55,0l0,34.4l-55,0l0,-34.4Zm55,0l55,0l0,34.4l-55,0l0,-34.4Zm55,0l55,0l0,34.4l-55,0l0,-34.4Z" class="g2_25" />
<path d="M231.8,970.2l55,0" class="g5_25" />
<path d="M286.8,970.2l55,0" class="g5_25" />
<path d="M341.8,970.2l55,0" class="g5_25" />
<path d="M396.8,970.2l55,0" class="g5_25" />
<path d="M231.8,1004.6l55,0" class="g3_25" />
<path d="M286.8,1004.6l55,0" class="g3_25" />
<path d="M341.8,1004.6l55,0" class="g3_25" />
<path d="M396.8,1004.6l55,0" class="g3_25" />
<text 
x="237" 
y="962" 
dx="0,0,0,0,0" 
class="s4_25"
>B.3.b</text>

<text 
x="320" 
y="964" 
dx="0" 
class="s7_25"
>g</text>

<text 
x="331" 
y="964" 
dx="0,0,0,0" 
class="s8_25"
>vs. </text>

<text 
x="353" 
y="964" 
dx="0" 
class="s7_25"
>k</text>

<text 
x="237" 
y="993" 
dx="0,0" 
class="s6_25"
>gu</text>

<text 
x="292" 
y="993" 
dx="0,0" 
class="s6_25"
>ku</text>

<text 
x="347" 
y="993" 
dx="0,0" 
class="s6_25"
>ge</text>

<text 
x="402" 
y="993" 
dx="0,0" 
class="s6_25"
>ke</text>

<path d="M475.5,875.5l55,0l0,25.6l-55,0l0,-25.6Z" class="g1_25" />
<path d="M475.5,901.1l55,0l0,34.4l-55,0l0,-34.4Zm55,0l55,0l0,34.4l-55,0l0,-34.4Zm55,0l55,0l0,34.4l-55,0l0,-34.4Zm55,0l55,0l0,34.4l-55,0l0,-34.4Z" class="g2_25" />
<path d="M475.5,901.1l55,0" class="g5_25" />
<path d="M530.5,901.1l55,0" class="g5_25" />
<path d="M585.5,901.1l55,0" class="g5_25" />
<path d="M640.5,901.1l55,0" class="g5_25" />
<path d="M475.5,935.5l55,0" class="g3_25" />
<path d="M530.5,935.5l55,0" class="g3_25" />
<path d="M585.5,935.5l55,0" class="g3_25" />
<path d="M640.5,935.5l55,0" class="g3_25" />
<text 
x="481" 
y="893" 
dx="0,0,0,0,-0.1" 
class="s4_25"
>B.3.d</text>

<text 
x="564" 
y="895" 
dx="0" 
class="s7_25"
>k</text>

<text 
x="575" 
y="895" 
dx="0,0,0,0" 
class="s8_25"
>vs. </text>

<text 
x="597" 
y="895" 
dx="0" 
class="s7_25"
>h</text>

<text 
x="481" 
y="924" 
dx="0,0" 
class="s6_25"
>ke</text>

<text 
x="536" 
y="924" 
dx="0,0" 
class="s6_25"
>he</text>

<text 
x="591" 
y="924" 
dx="0,0" 
class="s6_25"
>ku</text>

<text 
x="646" 
y="924" 
dx="0,0" 
class="s6_25"
>hu</text>

<path d="M475.5,803.2l55,0l0,25.6l-55,0l0,-25.6Z" class="g1_25" />
<path d="M475.5,828.8l55,0l0,34.4l-55,0l0,-34.4Zm55,0l55,0l0,34.4l-55,0l0,-34.4Zm55,0l55,0l0,34.4l-55,0l0,-34.4Zm55,0l55,0l0,34.4l-55,0l0,-34.4Z" class="g2_25" />
<path d="M475.5,828.8l55,0" class="g5_25" />
<path d="M530.5,828.8l55,0" class="g5_25" />
<path d="M585.5,828.8l55,0" class="g5_25" />
<path d="M640.5,828.8l55,0" class="g5_25" />
<path d="M475.5,863.2l55,0" class="g3_25" />
<path d="M530.5,863.2l55,0" class="g3_25" />
<path d="M585.5,863.2l55,0" class="g3_25" />
<path d="M640.5,863.2l55,0" class="g3_25" />
<text 
x="481" 
y="821" 
dx="0,0,0,0,-0.1" 
class="s4_25"
>B.3.c</text>

<text 
x="564" 
y="822" 
dx="0" 
class="s7_25"
>g</text>

<text 
x="574" 
y="822" 
dx="0,0,0,0" 
class="s8_25"
>vs. </text>

<text 
x="597" 
y="822" 
dx="0" 
class="s7_25"
>h</text>

<text 
x="481" 
y="852" 
dx="0,0" 
class="s6_25"
>gu</text>

<text 
x="536" 
y="852" 
dx="0,0" 
class="s6_25"
>hu</text>

<text 
x="591" 
y="852" 
dx="0,0" 
class="s6_25"
>ge</text>

<text 
x="646" 
y="852" 
dx="0,0" 
class="s6_25"
>he</text>

<text 
x="114" 
y="590" 
dx="0,0,0" 
class="s10_25"
>B.3</text>

<path d="M115.4,566.1c-0.1,0,-7.7,0.1,-7.7,7.6l0,20.9c0,0.1,0.1,7.6,7.7,7.6l22.1,0c0.1,0,7.7,0,7.7,-7.6l0,-20.9c0,-0.1,-0.1,-7.6,-7.7,-7.6l-22.1,0Z" class="g6_25" />
<path d="M115.4,568.1c-0.6,0,-5.6,0.2,-5.6,5.6l0,20.9c0,0.6,0.2,5.6,5.6,5.6l22.1,0c0.6,0,5.7,-0.2,5.7,-5.6l0,-20.9c-0.1,-0.5,-0.3,-5.6,-5.7,-5.6l-22.1,0Z" class="g7_25" />
<text 
x="171" 
y="72" 
dx="0,0,0,0,0,0,0,0,0,0" 
class="s1_25"
>d, t, n, l</text>

<text 
x="171" 
y="111" 
dx="0,0,0,0,0,0,0,0,0,0,0,0,0,0,0,0,0" 
class="s3_25"
>When pronouncing </text>

<text 
x="299" 
y="111" 
dx="0" 
class="s2_25"
>d</text>

<text 
x="307" 
y="111" 
dx="0,0" 
class="s3_25"
>, </text>

<text 
x="314" 
y="111" 
dx="0" 
class="s2_25"
>t</text>

<text 
x="318" 
y="111" 
dx="0,0,0,0,0,0" 
class="s3_25"
>, and </text>

<text 
x="354" 
y="111" 
dx="0" 
class="s2_25"
>n</text>

<text 
x="362" 
y="111" 
dx="0,0,0,0,0,0,0,0,0,0,0,0,0,0,0,0,0,0,0,0,0,0,0,0,0,0,0,0,0,0,0,0,0,0,0,0,0,0,0,0,0,0,0,0,0,0,0,0,0,0,-0.1,0,0,0,0,0,0,0,0,0,0,0,0" 
class="s3_25"
>, touch your upper gum with the tip of your tongue. The tongue </text>

<text 
x="171" 
y="129" 
dx="0,0,0,0,0,0,0,0,0,0,0,0,0,0,0,0,0,0,0,0,0,0,0,0,0,0,0,0,0,0,0,0,0,0,0,0,0,0,0,0,0,0,0,0,0,0,0,0,0,0,0,0,0,0,0,0,0,0,0,0,0,0,0,0,0,0,0,0,0,0,0,0,0,0,0,0,0,0,0,0,0,0,0,0,0" 
class="s3_25"
>is raised more to the back than it would be to pronounce their English counterparts. </text>

<text 
x="715" 
y="129" 
dx="0" 
class="s2_25"
>d</text>

<text 
x="726" 
y="129" 
dx="0,0,0,0" 
class="s3_25"
>and </text>

<text 
x="755" 
y="129" 
dx="0" 
class="s2_25"
>t</text>

<text 
x="171" 
y="146" 
dx="0,0,0,0,0,0,0,0,0,0,0,0,0,0,0,0,-0.4,0,0,0,0,0,-0.8,0" 
class="s3_25"
>are voiceless. Roughly, </text>

<text 
x="323" 
y="146" 
dx="0" 
class="s2_25"
>d</text>

<text 
x="334" 
y="146" 
dx="0,0,0,0,0,0,0,0,0,0,-0.3,0,0,0,0,0,0,0,0,0,0,0,0,0,-0.4,0,0,0,0,0,-1.1,0,0,0,0,0" 
class="s3_25"
>sounds like the “t” in “stand,” and </text>

<text 
x="552" 
y="146" 
dx="0" 
class="s2_25"
>t</text>

<text 
x="560" 
y="146" 
dx="0,0,0,0,0,0,0,0,0,0,-0.3,0,0,0,0,0,0,0,0,0,0,0,0,0,0,0,0,0,-1.1,0,0,0,0,0,0" 
class="s3_25"
>sounds like the “t” in “tea.” When </text>

<text 
x="171" 
y="164" 
dx="0,0,0,0,0,0,0,0,0,0,0,0" 
class="s3_25"
>pronouncing </text>

<text 
x="257" 
y="164" 
dx="0" 
class="s2_25"
>l</text>

<text 
x="261" 
y="164" 
dx="0,0,0,0,0,0,0,0,0,0,0,0,0,0,0,0,0,0,0,0,0,0,0,0,0,0,0,0,0,0,0,0,0,0,0,0,0,0,0,0,0,0,0,0,0,0,0,-0.1,0" 
class="s3_25"
>, touch your palate with the tip of your tongue. </text>

<text 
x="562" 
y="164" 
dx="0" 
class="s2_25"
>n</text>

<text 
x="574" 
y="164" 
dx="0,0,0,0,0,0,0,0,0" 
class="s3_25"
>is nasal.</text>

<text 
x="171" 
y="189" 
dx="0,-0.4,-0.4,-0.4,-0.4,-0.4,-0.4,-0.4,-0.4,-0.4,-0.4,-0.4,-0.4,-0.4,-0.4,-0.4,-0.4,-0.4,-0.4,-0.4,-0.4,-0.4,-0.4" 
class="s3_25"
>Only the simple finals </text>

<text 
x="305" 
y="189" 
dx="0" 
class="s2_25"
>a</text>

<text 
x="312" 
y="189" 
dx="0,-0.4" 
class="s3_25"
>, </text>

<text 
x="319" 
y="189" 
dx="0" 
class="s2_25"
>i</text>

<text 
x="322" 
y="189" 
dx="0,-0.4" 
class="s3_25"
>, </text>

<text 
x="329" 
y="189" 
dx="0" 
class="s2_25"
>e</text>

<text 
x="334" 
y="189" 
dx="0,-0.4,-0.4,-0.4,-0.4,-0.4" 
class="s3_25"
>, and </text>

<text 
x="368" 
y="189" 
dx="0" 
class="s2_25"
>u</text>

<text 
x="378" 
y="189" 
dx="0,-0.4,-0.4,-0.4,-0.4,-0.4,-0.4,-0.4,-0.4,-0.4,-0.4,-0.4,-0.4,-0.4,-0.4,-0.4,-0.4,-0.4,-0.4,-0.4,-0.4,-0.4,-0.4,-0.4,-0.4,-0.4,-0.4,-0.4,-0.4,-0.4,-0.4,-0.4,-0.4,-0.4,-0.4,-0.4" 
class="s3_25"
>and compound finals that start with </text>

<text 
x="595" 
y="189" 
dx="0" 
class="s2_25"
>a</text>

<text 
x="602" 
y="189" 
dx="0,-0.4" 
class="s3_25"
>, </text>

<text 
x="609" 
y="189" 
dx="0" 
class="s2_25"
>i</text>

<text 
x="612" 
y="189" 
dx="0,-0.4" 
class="s3_25"
>, </text>

<text 
x="619" 
y="189" 
dx="0" 
class="s2_25"
>e</text>

<text 
x="625" 
y="189" 
dx="0,-0.4,-0.4,-0.4,-0.4" 
class="s3_25"
>, or </text>

<text 
x="647" 
y="189" 
dx="0" 
class="s2_25"
>u</text>

<text 
x="658" 
y="189" 
dx="0,-0.4,-0.4,-0.4,-0.4,-0.4,-0.4,-0.4,-0.4,-0.4,-0.4,-0.4,-0.4,-0.4,-0.4,-0.4,-0.4,-0.4,-0.4,-0.4,-0.4" 
class="s3_25"
>can be combined with </text>

<text 
x="797" 
y="189" 
dx="0" 
class="s2_25"
>d</text>

<text 
x="804" 
y="189" 
dx="0,0" 
class="s3_25"
>, </text>

<text 
x="171" 
y="207" 
dx="0" 
class="s2_25"
>t</text>

<text 
x="175" 
y="207" 
dx="0,-0.4" 
class="s3_25"
>, </text>

<text 
x="182" 
y="207" 
dx="0" 
class="s2_25"
>n</text>

<text 
x="189" 
y="207" 
dx="0,-0.4,-0.4,-0.4,-0.4,-0.4" 
class="s3_25"
>, and </text>

<text 
x="223" 
y="207" 
dx="0" 
class="s2_25"
>l</text>

<text 
x="225" 
y="207" 
dx="0,-0.4" 
class="s3_25"
>; </text>

<text 
x="232" 
y="207" 
dx="0" 
class="s2_25"
>n</text>

<text 
x="243" 
y="207" 
dx="0,-0.4,-0.4,-0.4" 
class="s3_25"
>and </text>

<text 
x="270" 
y="207" 
dx="0" 
class="s2_25"
>l</text>

<text 
x="276" 
y="207" 
dx="0,-0.4,-0.4,-0.4,-0.4,-0.4,-0.4,-0.4,-0.4,-0.4,-0.4,-0.4,-0.4,-0.4,-0.4,-0.4,-0.4,-0.4,-0.4,-0.4,-0.4,-0.4,-0.4,-0.4,-0.4,-0.4" 
class="s3_25"
>can also be combined with </text>

<text 
x="444" 
y="207" 
dx="0" 
class="s2_25"
>ü</text>

<text 
x="454" 
y="207" 
dx="0,-0.4,-0.4,-0.4,-0.4,-0.4,-0.4,-0.4,-0.4,-0.4,-0.4,-0.4,-0.4,-0.4,-0.4,-0.4,-0.4,-0.4,-0.4,-0.4,-0.4,-0.4,-0.4,-0.4,-0.4,-0.4,-0.4,-0.4,-0.4,-0.4,-0.4,-0.4,-0.4,-0.4,-0.4,-0.4,-0.4,-0.4,-0.4,-0.4" 
class="s3_25"
>and the compound finals that start with </text>

<text 
x="695" 
y="207" 
dx="0" 
class="s2_25"
>ü</text>

<text 
x="702" 
y="207" 
dx="0" 
class="s3_25"
>.</text>

<text 
x="171" 
y="231" 
dx="0,0,0,0,0,0,0,0,0,0,0,0,0,0,0,0,0,0,0,0,0,0,0,0,0,0,0,0,0,0,0,0,0,0,0,0,0,0,0,0,0,0,0,0,-0.5,-0.5,0,0,0,0,0,0,0,0,0,0,0,0,0" 
class="s3_25"
>Practice your pronunciation with the audio exercises below:</text>

<text 
x="117" 
y="71" 
dx="0,0,0" 
class="s10_25"
>B.2</text>

<path d="M118.4,49.1c-0.1,0,-7.6,0.1,-7.6,7.6l0,19.4c0,0,0.1,7.6,7.6,7.6l22.2,0c0.1,0,7.6,-0.1,7.6,-7.6l0,-19.4c0,-0.1,-0.1,-7.6,-7.6,-7.6l-22.2,0Z" class="g6_25" />
<path d="M118.4,51.1c-0.6,0,-5.6,0.2,-5.6,5.6l0,19.4c0,0.5,0.2,5.6,5.6,5.6l22.2,0c0.5,0,5.6,-0.2,5.6,-5.6l0,-19.4c0,-0.6,-0.2,-5.6,-5.6,-5.6l-22.2,0Z" class="g7_25" />
<path d="M231.8,803.2l55,0l0,23.9l-55,0l0,-23.9Z" class="g1_25" />
<path d="M231.8,827.1l55,0l0,34.4l-55,0l0,-34.4Zm55,0l55,0l0,34.4l-55,0l0,-34.4Zm55,0l79.8,0l0,34.4l-79.8,0l0,-34.4Zm79.8,0l30.2,0l0,34.4l-30.2,0l0,-34.4ZM231.8,895.9l55,0l0,34.4l-55,0l0,-34.4Zm55,0l55,0l0,34.4l-55,0l0,-34.4Zm55,0l79.8,0l0,34.4l-79.8,0l0,-34.4Zm79.8,0l30.2,0l0,34.4l-30.2,0l0,-34.4Z" class="g2_25" />
<path d="M231.8,930.3l55,0" class="g3_25" />
<path d="M286.8,930.3l55,0" class="g3_25" />
<path d="M341.8,930.3l79.8,0" class="g3_25" />
<path d="M421.6,930.3l30.2,0" class="g3_25" />
<path d="M231.8,861.5l55,0" class="g4_25" />
<path d="M286.8,861.5l55,0" class="g4_25" />
<path d="M341.8,861.5l79.8,0" class="g4_25" />
<path d="M421.6,861.5l30.2,0" class="g4_25" />
<path d="M231.8,895.9l55,0" class="g4_25" />
<path d="M286.8,895.9l55,0" class="g4_25" />
<path d="M341.8,895.9l79.8,0" class="g4_25" />
<path d="M421.6,895.9l30.2,0" class="g4_25" />
<path d="M231.8,827.1l55,0" class="g5_25" />
<path d="M286.8,827.1l55,0" class="g5_25" />
<path d="M341.8,827.1l79.8,0" class="g5_25" />
<path d="M421.6,827.1l30.2,0" class="g5_25" />
<text 
x="237" 
y="821" 
dx="0,0,0,0,0,0" 
class="s4_25"
>B.3.a </text>

<text 
transform="matrix(0.9, 0, 0, 1, 292, 821)"
dx="0,-0.3,-0.3,-0.3,-0.3,-0.3,-0.3,-0.3,-0.3,-0.3,-0.3,-0.3,-0.3,-0.3,-0.3,-0.3,-0.3,-0.3,-0.3,-0.3,-0.3,-0.3,-0.3,-0.3,-0.3,-0.3,-0.3,-0.3" 
class="s5_25"
>(Initial-Final Combinations)</text>

<text 
x="237" 
y="850" 
dx="0,0" 
class="s6_25"
>gu</text>

<text 
x="322" 
y="850" 
dx="0,0" 
class="s6_25"
>ge</text>

<text 
x="401" 
y="850" 
dx="0,0" 
class="s6_25"
>ga</text>

<text 
x="237" 
y="885" 
dx="0,0" 
class="s6_25"
>ku</text>

<text 
x="322" 
y="885" 
dx="0,0" 
class="s6_25"
>ke</text>

<text 
x="400" 
y="885" 
dx="0,0" 
class="s6_25"
>ka</text>

<text 
x="237" 
y="919" 
dx="0,0" 
class="s6_25"
>hu</text>

<text 
x="321" 
y="919" 
dx="0,0" 
class="s6_25"
>he</text>

<text 
x="400" 
y="919" 
dx="0,0" 
class="s6_25"
>ha</text>

<path d="M-15.9,1224.5l51.8,0l0,-1256.9l-51.8,0l0,1256.9Z" class="g8_25" />
<text 
transform="matrix(0, -1, 1, 0, 26, 1173)"
dx="0,0.3" 
class="s11_25"
>4 </text>

<text 
transform="matrix(0, -1, 1, 0, 26, 1156)"
dx="0,0.3,0.3,0.3,0.3,0.3,0.3,0.3,0.3,0.3,0.3,0.3,0.3,0.3,0.3,0.3,0.3,0.3,0.3,0.3,0.3" 
class="s11_25"
>Integrated Chinese 1 </text>

<text 
transform="matrix(0, -1, 1, 0, 26, 1034)"
dx="0,0.3" 
class="s11_25"
>| </text>

<text 
transform="matrix(0, -1, 1, 0, 26, 1022)"
dx="0,-0.9,-0.1,0.3,0.3,0.3,0.3,0.3" 
class="s11_25"
>Textbook</text>



<!-- Any embedded fonts defined here -->
<style type="text/css" ><![CDATA[

@font-face {
	font-family: ProximaNova-Bold_2ss;
	src: url("fonts/ProximaNova-Bold_2ss.woff") format("woff");
}

@font-face {
	font-family: ProximaNova-Regular_2sw;
	src: url("fonts/ProximaNova-Regular_2sw.woff") format("woff");
}

@font-face {
	font-family: ProximaNova-Medium_2sm;
	src: url("fonts/ProximaNova-Medium_2sm.woff") format("woff");
}

@font-face {
	font-family: Marion-Italic_2sy;
	src: url("fonts/Marion-Italic_2sy.woff") format("woff");
}

@font-face {
	font-family: ProximaNova-Semibold_2s-;
	src: url("fonts/ProximaNova-Semibold_2s-.woff") format("woff");
}

]]></style>

</svg>
