<?xml version="1.0" encoding="UTF-8" standalone="no"?>
<!DOCTYPE svg PUBLIC "-//W3C//DTD SVG 1.1//EN"
"http://www.w3.org/Graphics/SVG/1.1/DTD/svg11.dtd">


<!-- Page 128 -->
<svg x="0" y="0" width="921" height="1196" viewBox="0 0 921 1196" version="1.1" xmlns="http://www.w3.org/2000/svg" xmlns:xlink="http://www.w3.org/1999/xlink"
style="display: block;margin-left: auto;margin-right: auto;">
<defs>
<clipPath id="c0_128"><path d="M542.5,214l0,-17.1l17,0l0,17.1Z" /></clipPath>
<clipPath id="c1_128"><path d="M542.5,349.1l0,-17l17,0l0,17Z" /></clipPath>
<clipPath id="c2_128"><path d="M542.5,484.3l0,-17.1l17,0l0,17.1Z" /></clipPath>
<clipPath id="c3_128"><path d="M233.6,727l0,-17l17.1,0l0,17Z" /></clipPath>

<style type="text/css"><![CDATA[

.g1_128{
fill: #DC262E;
}
.g2_128{
fill: none;
stroke: #FFFFFF;
stroke-width: 2.2916667;
stroke-linecap: round;
stroke-linejoin: round;
stroke-miterlimit: 4;
}
.g3_128{
fill: none;
stroke: #007598;
stroke-width: 1.5277778;
stroke-linecap: butt;
stroke-linejoin: miter;
stroke-miterlimit: 4;
}
.g4_128{
fill: none;
stroke: #007598;
stroke-width: 0.5102778;
stroke-linecap: butt;
stroke-linejoin: miter;
stroke-miterlimit: 4;
}
.g5_128{
fill: #007598;
stroke: #B2B3B7;
stroke-width: 1.5277778;
stroke-linecap: butt;
stroke-linejoin: miter;
stroke-miterlimit: 4;
}

.s1_128{
font-size: 16.81px;
font-family: ProximaNova-Extrabld_2yv;
fill: #3F3F40;
}
.s2_128{
font-size: 32.08px;
font-family: STKaiti-SC-Regular_2t7;
fill: #3F3F40;
}
.s3_128{
font-size: 32.08px;
font-family: STKaiti-SC-Regular_2t7;
fill: #007D9F;
}
.s4_128{
font-size: 17.57px;
font-family: Marion-Italic_2si;
fill: #3F3F40;
}
.s5_128{
font-size: 17.57px;
font-family: Marion-Italic_2si;
fill: #007D9F;
}
.s6_128{
font-size: 15.28px;
font-family: ProximaNova-Light_2z3;
fill: #3F3F40;
}
.s7_128{
font-size: 32.08px;
font-family: STKaiti-SC-Regular_2zf;
fill: #3F3F40;
}
.s8_128{
font-size: 16.81px;
font-family: ProximaNova-Bold_2yz;
fill: #007598;
}
.s9_128{
font-size: 16.81px;
font-family: ProximaNova-Bold_2yz;
fill: #939598;
}
.s10_128{
font-size: 11.46px;
font-family: ProximaNova-Semibold_2z7;
fill: #FFFFFF;
}

]]></style>

</defs>
<path d="M0,0
L0,1196
L921,1196
L921,0 Z " 
fill="#FFFFFF" stroke="none" />
<text 
x="154" 
y="75" 
dx="0,0" 
class="s1_128"
>B </text>

<text 
x="220" 
y="78" 
dx="0,0,0,0,0" 
class="s2_128"
>她今天晚上</text>

<text 
x="380" 
y="78" 
dx="0,0,0" 
class="s3_128"
>看不看</text>

<text 
x="476" 
y="78" 
dx="0,0,0" 
class="s2_128"
>电视？</text>

<text 
x="224" 
y="115" 
dx="0,0.2,0.2,0.2,0.2,0.2,0.2,0.2,0.2,0.2,0.2,0.2,0.2,0.2,0.2,0.2,0.2,0.2,0.2,0.2" 
class="s4_128"
>Tā jīntiān wǎnshang </text>

<text 
x="355" 
y="115" 
dx="0,0.2,0.2,0.2,0.2,0.2,0.2,0.2,0.2,0.2,0.2" 
class="s5_128"
>kàn bu kàn </text>

<text 
x="428" 
y="115" 
dx="0,0.2,0.2,0.2,0.2,0.2,0.2,0.2" 
class="s4_128"
>diànshì?</text>

<text 
x="224" 
y="147" 
dx="0,0,0,0,0,0,0,0,0,0,0,0,0,0,0,0,0,0,0,0,0,0,0,0,0,0,0,0,0,0,0,0,0" 
class="s6_128"
>Is she going to watch TV tonight?</text>

<text 
x="154" 
y="210" 
dx="0,-0.5" 
class="s1_128"
>C </text>

<text 
x="220" 
y="213" 
dx="0,-1,-1,-1,-1,-1,-1,-1" 
class="s2_128"
>他们都是学生吗？</text>

<text 
x="534" 
y="213" 
dx="0" 
class="s7_128"
>[</text>

<g clip-path="url(#c0_128)">
<path d="M551,214c4.7,0,8.5,-3.8,8.5,-8.5c0,-4.7,-3.8,-8.6,-8.5,-8.6c-4.7,0,-8.5,3.9,-8.5,8.6c0,4.7,3.8,8.5,8.5,8.5Z" class="g1_128" />
</g>
<path d="M547.2,201.7l7.5,7.5" class="g2_128" />
<path d="M554.7,201.7l-7.5,7.5" class="g2_128" />
<text 
x="565" 
y="210" 
dx="0,-1,-1,-1,-1,-1,-1,-1,-1" 
class="s2_128"
>他们都是不是学生？</text>

<text 
x="845" 
y="213" 
dx="0" 
class="s7_128"
>]</text>

<text 
x="224" 
y="250" 
dx="0,0.2,0.2,0.2,0.2,0.2,0.2,0.2,0.2,0.2,0.2,0.2,0.2,0.2,0.2,0.2,0.2,0.2,0.2,0.2,0.2,0.2,0.2,0.2,0.2,0.2" 
class="s4_128"
>Tāmen dōu shì xuésheng ma?</text>

<text 
x="224" 
y="282" 
dx="0,0,0,0,0,0,0,0,0,0,0,0,0,0,0,0,0,0,0,0,0,-0.6" 
class="s6_128"
>Are they all students?</text>

<text 
x="154" 
y="346" 
dx="0,-0.5" 
class="s1_128"
>D </text>

<text 
x="220" 
y="348" 
dx="0,-1,-1,-1,-1,-1,-1,-1" 
class="s2_128"
>你常常看电影吗？</text>

<text 
x="534" 
y="348" 
dx="0" 
class="s7_128"
>[</text>

<g clip-path="url(#c1_128)">
<path d="M551,349.1c4.7,0,8.5,-3.8,8.5,-8.5c0,-4.7,-3.8,-8.5,-8.5,-8.5c-4.7,0,-8.5,3.8,-8.5,8.5c0,4.7,3.8,8.5,8.5,8.5Z" class="g1_128" />
</g>
<path d="M547.2,336.9l7.5,7.4" class="g2_128" />
<path d="M554.7,336.9l-7.5,7.4" class="g2_128" />
<text 
x="565" 
y="346" 
dx="0,-1,-1,-1,-1,-1,-1,-1,-1" 
class="s2_128"
>你常常看不看电影？</text>

<text 
x="845" 
y="348" 
dx="0" 
class="s7_128"
>]</text>

<text 
x="224" 
y="385" 
dx="0,0.2,0.2,0.2,0.2,0.2,0.2,0.2,0.2,0.2,0.2,0.2,0.2,0.2,0.2,0.2,0.2,0.2,0.2,0.2,0.2,0.2,0.2,0.2,0.2,0.2,0.2,0.2,0.2,0.2" 
class="s4_128"
>Nǐ chángcháng kàn diànyǐng ma?</text>

<text 
x="224" 
y="417" 
dx="0,0,0,0,0,0,0,0,0,0,0,0,0,0,0,0,0,0,0,0,0,0,0,0,0,0,0,0,0,-0.6" 
class="s6_128"
>Do you often go to the movies?</text>

<text 
x="154" 
y="481" 
dx="0,-0.5" 
class="s1_128"
>E </text>

<text 
x="220" 
y="483" 
dx="0" 
class="s2_128"
>你</text>

<text 
x="251" 
y="483" 
dx="0,-1,-1,-1,-1" 
class="s3_128"
>喜欢不喜欢</text>

<text 
x="406" 
y="483" 
dx="0,-1,-1" 
class="s2_128"
>跳舞？</text>

<text 
x="534" 
y="483" 
dx="0" 
class="s7_128"
>[</text>

<g clip-path="url(#c2_128)">
<path d="M551,484.3c4.7,0,8.5,-3.9,8.5,-8.6c0,-4.7,-3.8,-8.5,-8.5,-8.5c-4.7,0,-8.5,3.8,-8.5,8.5c0,4.7,3.8,8.6,8.5,8.6Z" class="g1_128" />
</g>
<path d="M547.2,472l7.5,7.5" class="g2_128" />
<path d="M554.7,472l-7.5,7.5" class="g2_128" />
<text 
x="565" 
y="481" 
dx="0,-1,-1,-1,-1,-1,-1,-1" 
class="s2_128"
>你喜欢跳不跳舞？</text>

<text 
x="814" 
y="483" 
dx="0" 
class="s7_128"
>]</text>

<text 
x="224" 
y="520" 
dx="0,0.2,0.2" 
class="s4_128"
>Nǐ </text>

<text 
x="245" 
y="520" 
dx="0,0.2,0.2,0.2,0.2,0.2,0.2,0.2,0.2,0.2,0.2,0.2,0.2,0.2,0.2,0.2,0.2" 
class="s5_128"
>xǐhuan bu xǐhuan </text>

<text 
x="358" 
y="520" 
dx="0,0.2,0.2,0.2,0.2,0.2,0.2,0.2" 
class="s4_128"
>tiào wǔ?</text>

<text 
x="224" 
y="552" 
dx="0,0,0,0,0,0,0,0,0,0,-0.3,0,0,0,0,0,0,0,0,-0.3" 
class="s6_128"
>Do you like dancing?</text>

<text 
x="154" 
y="616" 
dx="0,-0.3" 
class="s1_128"
>F </text>

<text 
x="220" 
y="618" 
dx="0,-0.6,-0.6,-0.6" 
class="s2_128"
>你的同学</text>

<text 
x="345" 
y="618" 
dx="0,-0.6,-0.6" 
class="s3_128"
>去不去</text>

<text 
x="440" 
y="618" 
dx="0,-0.6,-0.6" 
class="s2_128"
>打球？</text>

<text 
x="224" 
y="655" 
dx="0,0.2,0.2,0.2,0.2,0.2,0.2,0.2,0.2,0.2,0.2,0.2,0.2,0.2" 
class="s4_128"
>Nǐ de tóngxué </text>

<text 
x="315" 
y="655" 
dx="0,0.2,0.2,0.2,0.2,0.2,0.2,0.2,0.2" 
class="s5_128"
>qù bu qù </text>

<text 
x="374" 
y="655" 
dx="0,0.2,0.2,0.2,0.2,0.2,0.2" 
class="s4_128"
>dǎ qiú?</text>

<text 
x="224" 
y="687" 
dx="0,0,0,0,0,0,0,0,0,0,0,0,0,0,0,0,0,0,0,0,0,0,0,0,0,0,0,0,0,0,0,0,0,0,0,0,0,0,0,0" 
class="s6_128"
>Are your classmates going to play ball? </text>

<text 
x="224" 
y="726" 
dx="0" 
class="s7_128"
>[</text>

<g clip-path="url(#c3_128)">
<path d="M242.2,727c4.7,0,8.5,-3.8,8.5,-8.5c0,-4.7,-3.8,-8.5,-8.5,-8.5c-4.7,0,-8.6,3.8,-8.6,8.5c0,4.7,3.9,8.5,8.6,8.5Z" class="g1_128" />
</g>
<path d="M238.4,714.8l7.5,7.4" class="g2_128" />
<path d="M245.9,714.8l-7.5,7.4" class="g2_128" />
<text 
x="258" 
y="723" 
dx="0,0,0,0,0,0,0,0,0,0" 
class="s2_128"
>你的同学去打不打球？</text>

<text 
x="579" 
y="726" 
dx="0" 
class="s7_128"
>]</text>

<text 
x="143" 
y="783" 
dx="0,0.2,0.2,0.2,0.2,0.2,0.2,0.2,0.2" 
class="s8_128"
>EXERCISES</text>

<text 
x="143" 
y="810" 
dx="0,0,0,0,0,0,0,0,0,0,0,0,0,0,0,0,0,0,0,0,0,0,0,0,0,0,0,0,0,0,0,0,0,0,0,0,0,0,0,0,0,0,0,0,0,0,0,0,0,0,0,0,0,0,0,0,0,0,0,0,0,0,0,0,0,0,0,0,0,0,0,0,0,0,0,0,-0.7,0,0,0,0,0,0,-0.4,-0.6,0,0,0,0,0,0,0,0" 
class="s6_128"
>In pairs, form an A-not-A question-and-answer based on the information below. Use exercise 1 </text>

<text 
x="143" 
y="838" 
dx="0,0,0,0,0,0,0,-0.4,0,0,0,0,0,-0.1,0" 
class="s6_128"
>as an example. </text>

<text 
x="145" 
y="880" 
dx="0,0" 
class="s9_128"
>1 </text>

<text 
x="187" 
y="882" 
dx="0,0,0" 
class="s2_128"
>白英爱</text>

<text 
x="348" 
y="882" 
dx="0,0" 
class="s2_128"
>明天</text>

<text 
x="539" 
y="882" 
dx="0,0,0" 
class="s2_128"
>去跳舞</text>

<text 
x="187" 
y="926" 
dx="0" 
class="s2_128"
>→</text>

<text 
x="228" 
y="925" 
dx="0,0,0" 
class="s9_128"
>Q: </text>

<text 
x="249" 
y="926" 
dx="0,0,0,0,0,0,0,0,0,0,0" 
class="s2_128"
>白英爱明天去不去跳舞？</text>

<text 
x="228" 
y="969" 
dx="0,0,0" 
class="s9_128"
>A: </text>

<text 
x="248" 
y="970" 
dx="0,0,0,0,0,0,0,0,0,0,0,0" 
class="s2_128"
>白英爱明天去/不去跳舞。</text>

<text 
x="145" 
y="1013" 
dx="0,0" 
class="s9_128"
>2 </text>

<text 
x="187" 
y="1015" 
dx="0,0" 
class="s2_128"
>李友</text>

<text 
x="348" 
y="1015" 
dx="0,0,0,0" 
class="s2_128"
>今天晚上</text>

<text 
x="539" 
y="1015" 
dx="0,0,0,0,0" 
class="s2_128"
>听中国音乐</text>

<text 
x="145" 
y="1058" 
dx="0,0" 
class="s9_128"
>3 </text>

<text 
x="187" 
y="1059" 
dx="0,0,0" 
class="s2_128"
>白英爱</text>

<text 
x="348" 
y="1059" 
dx="0,0,0,0" 
class="s2_128"
>明天晚上</text>

<text 
x="539" 
y="1059" 
dx="0,0,0,0,0" 
class="s2_128"
>请李友吃饭</text>

<path d="M149.1,52.3c-0.1,0,-7.6,0.1,-7.6,7.6l0,19.7c0,0.1,0,7.7,7.6,7.7l22.4,0c0.1,0,7.6,-0.1,7.6,-7.7l0,-19.7c0,-0.1,0,-7.6,-7.6,-7.6l-22.4,0Z" class="g3_128" />
<path d="M149.1,54.3c-0.6,0,-5.6,0.2,-5.6,5.6l0,19.7c0,0.6,0.2,5.6,5.6,5.6l22.4,0c0.6,0,5.6,-0.2,5.6,-5.6l0,-19.7c0,-0.5,-0.2,-5.6,-5.6,-5.6l-22.4,0Z" class="g4_128" />
<path d="M149.1,187.6c-0.1,0,-7.6,0.1,-7.6,7.6l0,19.7c0,0.1,0,7.6,7.6,7.6l22.4,0c0.1,0,7.6,0,7.6,-7.6l0,-19.7c0,-0.1,0,-7.6,-7.6,-7.6l-22.4,0Z" class="g3_128" />
<path d="M149.1,189.6c-0.6,0,-5.6,0.2,-5.6,5.6l0,19.7c0,0.6,0.2,5.6,5.6,5.6l22.4,0c0.6,0,5.6,-0.2,5.6,-5.6l0,-19.7c0,-0.6,-0.2,-5.6,-5.6,-5.6l-22.4,0Z" class="g4_128" />
<path d="M149.1,322.7c-0.1,0,-7.6,0.1,-7.6,7.6l0,19.7c0,0.1,0,7.7,7.6,7.7l22.4,0c0.1,0,7.6,-0.1,7.6,-7.7l0,-19.7c0,0,0,-7.6,-7.6,-7.6l-22.4,0Z" class="g3_128" />
<path d="M149.1,324.7c-0.6,0,-5.6,0.2,-5.6,5.6l0,19.7c0,0.6,0.2,5.6,5.6,5.6l22.4,0c0.6,0,5.6,-0.2,5.6,-5.6l0,-19.7c0,-0.5,-0.2,-5.6,-5.6,-5.6l-22.4,0Z" class="g4_128" />
<path d="M149.1,457.8c-0.1,0,-7.6,0.1,-7.6,7.7l0,19.7c0,0,0,7.6,7.6,7.6l22.4,0c0.1,0,7.6,-0.1,7.6,-7.6l0,-19.7c0,-0.1,0,-7.7,-7.6,-7.7l-22.4,0Z" class="g3_128" />
<path d="M149.1,459.9c-0.6,0,-5.6,0.2,-5.6,5.6l0,19.7c0,0.5,0.2,5.6,5.6,5.6l22.4,0c0.6,0,5.6,-0.2,5.6,-5.6l0,-19.7c0,-0.6,-0.2,-5.6,-5.6,-5.6l-22.4,0Z" class="g4_128" />
<path d="M149.1,593c-0.1,0,-7.6,0.1,-7.6,7.6l0,19.7c0,0.1,0,7.6,7.6,7.6l22.4,0c0.1,0,7.6,-0.1,7.6,-7.6l0,-19.7c0,-0.1,0,-7.6,-7.6,-7.6l-22.4,0Z" class="g3_128" />
<path d="M149.1,595c-0.6,0,-5.6,0.2,-5.6,5.6l0,19.7c0,0.6,0.2,5.6,5.6,5.6l22.4,0c0.6,0,5.6,-0.2,5.6,-5.6l0,-19.7c0,-0.6,-0.2,-5.6,-5.6,-5.6l-22.4,0Z" class="g4_128" />
<path d="M885.3,1236.7l69.6,0L954.9,-35l-69.6,0l0,1271.7Z" class="g5_128" />
<text 
transform="matrix(0, 1, -1, 0, 894, 947)"
dx="0,0.2,0.3,0.3,0.3,0.3,0.3,0.3,0.3" 
class="s10_128"
>Lesson 4 </text>

<text 
transform="matrix(0, 1, -1, 0, 894, 1005)"
dx="0,0.3" 
class="s10_128"
>| </text>

<text 
transform="matrix(0, 1, -1, 0, 894, 1018)"
dx="0,0.3,0.3,0.3,0.3,0.3,0.3,0.3" 
class="s10_128"
>Hobbies </text>

<text 
transform="matrix(0, 1, -1, 0, 894, 1073)"
dx="0,0.3" 
class="s10_128"
>| </text>

<text 
transform="matrix(0, 1, -1, 0, 894, 1085)"
dx="0,0.3,0.3,0.3,0.3,0.3,0.3,0.3" 
class="s10_128"
>Grammar </text>

<text 
transform="matrix(0, 1, -1, 0, 894, 1155)"
dx="0,0.3,0.3" 
class="s10_128"
>107</text>



<!-- Any embedded fonts defined here -->
<style type="text/css" ><![CDATA[

@font-face {
	font-family: Marion-Italic_2si;
	src: url("fonts/Marion-Italic_2si.woff") format("woff");
}

@font-face {
	font-family: ProximaNova-Extrabld_2yv;
	src: url("fonts/ProximaNova-Extrabld_2yv.woff") format("woff");
}

@font-face {
	font-family: ProximaNova-Semibold_2z7;
	src: url("fonts/ProximaNova-Semibold_2z7.woff") format("woff");
}

@font-face {
	font-family: ProximaNova-Light_2z3;
	src: url("fonts/ProximaNova-Light_2z3.woff") format("woff");
}

@font-face {
	font-family: ProximaNova-Bold_2yz;
	src: url("fonts/ProximaNova-Bold_2yz.woff") format("woff");
}

@font-face {
	font-family: STKaiti-SC-Regular_2zf;
	src: url("fonts/STKaiti-SC-Regular_2zf.woff") format("woff");
}

@font-face {
	font-family: STKaiti-SC-Regular_2t7;
	src: url("fonts/STKaiti-SC-Regular_2t7.woff") format("woff");
}

]]></style>

</svg>
