<?xml version="1.0" encoding="UTF-8" standalone="no"?>
<!DOCTYPE svg PUBLIC "-//W3C//DTD SVG 1.1//EN"
"http://www.w3.org/Graphics/SVG/1.1/DTD/svg11.dtd">


<!-- Page 298 -->
<svg x="0" y="0" width="921" height="1196" viewBox="0 0 921 1196" version="1.1" xmlns="http://www.w3.org/2000/svg" xmlns:xlink="http://www.w3.org/1999/xlink"
style="display: block;margin-left: auto;margin-right: auto;">
<defs>

<style type="text/css"><![CDATA[

.g1_298{
fill: none;
stroke: #007D9F;
stroke-width: 2.2916667;
stroke-linecap: butt;
stroke-linejoin: miter;
}
.g2_298{
fill: none;
stroke: #007598;
stroke-width: 1.5277778;
stroke-linecap: butt;
stroke-linejoin: miter;
stroke-miterlimit: 4;
}
.g3_298{
fill: none;
stroke: #007598;
stroke-width: 0.5102778;
stroke-linecap: butt;
stroke-linejoin: miter;
stroke-miterlimit: 4;
}
.g4_298{
fill: #007598;
stroke: #B2B3B7;
stroke-width: 1.5277778;
stroke-linecap: butt;
stroke-linejoin: miter;
stroke-miterlimit: 4;
}

.s1_298{
font-size: 19.86px;
font-family: ProximaNova-Extrabld_35m;
fill: #007D9F;
}
.s2_298{
font-size: 24.44px;
font-family: ProximaNova-Bold_35e;
fill: #007D9F;
}
.s3_298{
font-size: 27.50px;
font-family: STKaiti-SC-Regular_2t7;
fill: #3F3F40;
}
.s4_298{
font-size: 22.92px;
font-family: Marion-Italic_2si;
fill: #3F3F40;
}
.s5_298{
font-size: 15.28px;
font-family: ProximaNova-Light_35x;
fill: #3F3F40;
}
.s6_298{
font-size: 21.39px;
font-family: STKaiti-SC-Bold_2sb;
fill: #007598;
}
.s7_298{
font-size: 17.57px;
font-family: Marion-Italic_2si;
fill: #3F3F40;
}
.s8_298{
font-size: 16.81px;
font-family: ProximaNova-Extrabld_35m;
fill: #3F3F40;
}
.s9_298{
font-size: 32.08px;
font-family: STKaiti-SC-Regular_2t7;
fill: #3F3F40;
}
.s10_298{
font-size: 32.08px;
font-family: STKaiti-SC-Regular_2t7;
fill: #007D9F;
}
.s11_298{
font-size: 17.57px;
font-family: Marion-Italic_2si;
fill: #007D9F;
}
.s12_298{
font-size: 16.81px;
font-family: ProximaNova-Bold_35e;
fill: #007598;
}
.s13_298{
font-size: 16.81px;
font-family: ProximaNova-Bold_35e;
fill: #939598;
}
.s14_298{
font-size: 11.46px;
font-family: ProximaNova-Semibold_35r;
fill: #FFFFFF;
}

]]></style>

</defs>
<path d="M0,0
L0,1196
L921,1196
L921,0 Z " 
fill="#FFFFFF" stroke="none" />
<path d="M105.3,73.7l13,0" class="g1_298" />
<text 
x="105" 
y="70" 
dx="0,0" 
class="s1_298"
>6 </text>

<text 
x="222" 
y="74" 
dx="0,0,0,0,0,0,0,0,0,0,0,0,0,0,0,0,0,0,0,0,0,0" 
class="s2_298"
>Indicating imminence: </text>

<text 
x="472" 
y="74" 
dx="0,0,0" 
class="s3_298"
>要…了</text>

<text 
x="560" 
y="74" 
dx="0,0,0,0,0,0,0,0,0,0,0,0,0,0" 
class="s4_298"
>(yào . . . le)</text>

<text 
x="655" 
y="74" 
dx="0,0,0,0,0,0" 
class="s2_298"
>(soon)</text>

<text 
x="143" 
y="136" 
dx="0,0,0,0" 
class="s5_298"
>The </text>

<text 
x="173" 
y="136" 
dx="0,0,0,0" 
class="s6_298"
>要…了 </text>

<text 
x="242" 
y="136" 
dx="0,0,0,0,0,0,0,0,0,0,0,0,0,0" 
class="s7_298"
>(yào . . . le)</text>

<text 
x="313" 
y="136" 
dx="0,0,0,0,0,0,0,0,0,0,0,0,0,0,0,0,0,0,0,0,0,0,0,0,0,0,0,0,0,0,0,0,0,0,0,0,0,0,0,0,0,0,0,0,0,0,0,0,0,0,0,0,0,0,0,0,0,0,0,0,0,0,0,0,0,0,0,0,0" 
class="s5_298"
>(soon) structure indicates the imminence of an anticipated action or </text>

<text 
x="143" 
y="164" 
dx="0,0,0,0,0,0,0,0,0,0,0,0,0,0,0,0,0,0,0,0,0,0,0,0,0,0,0,0,0,0,0,0,0,0,0,0,0,0,0,0,0,0" 
class="s5_298"
>situation. It also appears in the form of </text>

<text 
x="397" 
y="164" 
dx="0,0,0,0,0" 
class="s6_298"
>快要…了 </text>

<text 
x="488" 
y="164" 
dx="0,0,0,0,0,0,0,0,0,0,0,0,0,0,0,0,0,0,0" 
class="s7_298"
>(kuài yào . . . le)</text>

<text 
x="585" 
y="164" 
dx="0" 
class="s5_298"
>.</text>

<text 
x="154" 
y="227" 
dx="0,0" 
class="s8_298"
>A </text>

<text 
x="220" 
y="230" 
dx="0,0" 
class="s9_298"
>新年</text>

<text 
x="284" 
y="230" 
dx="0,0" 
class="s10_298"
>快要</text>

<text 
x="348" 
y="230" 
dx="0" 
class="s9_298"
>到</text>

<text 
x="380" 
y="230" 
dx="0" 
class="s10_298"
>了</text>

<text 
x="412" 
y="230" 
dx="0,0,0,0,0,0,0,0" 
class="s9_298"
>，我们给爸爸妈妈</text>

<text 
x="220" 
y="268" 
dx="0,0,0,0,0,0,0" 
class="s9_298"
>打一个电话吧。</text>

<text 
x="224" 
y="305" 
dx="0,0.2,0.2,0.2,0.2,0.2,0.2,0.2" 
class="s7_298"
>Xīnnián </text>

<text 
x="280" 
y="305" 
dx="0,0.2,0.2,0.2" 
class="s11_298"
>kuài</text>

<text 
x="311" 
y="305" 
dx="0,0.2,0.2,0.2" 
class="s11_298"
>yào </text>

<text 
x="337" 
y="305" 
dx="0,0.2,0.2,0.2" 
class="s7_298"
>dào </text>

<text 
x="364" 
y="305" 
dx="0,0.2" 
class="s11_298"
>le</text>

<text 
x="373" 
y="305" 
dx="0,0.2,0.2,0.2,0.2,0.2,0.2,0.2,0.2,0.2,0.2,0.2,0.2,0.2,0.2,0.2,0.2,0.2,0.2,0.2,0.2,0.2,0.2,0.2,0.2,0.2,0.2,0.2,0.2,0.2,0.2,0.2,0.2,0.2,0.2,0.2,0.2,0.2,0.2,0.2,0.2,0.2" 
class="s7_298"
>, wǒmen gěi bàba māma dǎ yí ge diànhuà ba.</text>

<text 
x="224" 
y="337" 
dx="0,0,0,0,0,-2,0,0,0,0,0,0,0,0,0,0,0,0,0,0,0,0,0,0,0,0,0,0,0,-1.3,0,0,-0.4,0,0,-0.5,0,0,0,0,0,0,0,0,0,0,0,0,0,0,0,0,0,0" 
class="s5_298"
>New Year is around the corner. Let’s call Mom and Dad.</text>

<text 
x="154" 
y="401" 
dx="0,0" 
class="s8_298"
>B </text>

<text 
x="220" 
y="403" 
dx="0,0" 
class="s9_298"
>寒假</text>

<text 
x="284" 
y="403" 
dx="0" 
class="s10_298"
>要</text>

<text 
x="316" 
y="403" 
dx="0" 
class="s9_298"
>到</text>

<text 
x="348" 
y="403" 
dx="0" 
class="s10_298"
>了</text>

<text 
x="380" 
y="403" 
dx="0,0,0,0,0,0,0" 
class="s9_298"
>，你要做什么？</text>

<text 
x="224" 
y="440" 
dx="0,0.2,0.2,0.2,0.2,0.2,0.2" 
class="s7_298"
>Hánjià </text>

<text 
x="272" 
y="440" 
dx="0,0.2,0.2,0.2" 
class="s11_298"
>yào </text>

<text 
x="298" 
y="440" 
dx="0,0.2,0.2,0.2" 
class="s7_298"
>dào </text>

<text 
x="325" 
y="440" 
dx="0,0.2" 
class="s11_298"
>le</text>

<text 
x="335" 
y="440" 
dx="0,0.2,0.2,0.2,0.2,0.2,0.2,0.2,0.2,0.2,0.2,0.2,0.2,0.2,0.2,0.2,0.2,0.2,0.2,0.2" 
class="s7_298"
>, nǐ yào zuò shénme?</text>

<text 
x="224" 
y="472" 
dx="0,0,0,0,0,0,0,0,0,0,0,0,0,0,0,0,0,0,0,0,0,0,0,0,0,0,0,0,0,0,0,0,0,0,0,0,0,0,0,0,0,0,0,0,0,0,0,0,0,0,-0.7" 
class="s5_298"
>It’ll be winter break soon. What do you want to do?</text>

<text 
x="154" 
y="536" 
dx="0,0" 
class="s8_298"
>C </text>

<text 
x="220" 
y="538" 
dx="0,0" 
class="s9_298"
>电影</text>

<text 
x="284" 
y="538" 
dx="0,0" 
class="s10_298"
>快要</text>

<text 
x="348" 
y="538" 
dx="0,0" 
class="s9_298"
>开始</text>

<text 
x="412" 
y="538" 
dx="0" 
class="s10_298"
>了</text>

<text 
x="444" 
y="538" 
dx="0,0,0,0,0,0,0" 
class="s9_298"
>，你买票了吗？</text>

<text 
x="224" 
y="575" 
dx="0,0.2,0.2,0.2,0.2,0.2,0.2,0.2,0.2" 
class="s7_298"
>Diànyǐng </text>

<text 
x="286" 
y="575" 
dx="0,0.2,0.2,0.2" 
class="s11_298"
>kuài</text>

<text 
x="317" 
y="575" 
dx="0,0.2,0.2,0.2" 
class="s11_298"
>yào </text>

<text 
x="343" 
y="575" 
dx="0,0.2,0.2,0.2,0.2,0.2,0.2" 
class="s7_298"
>kāishǐ </text>

<text 
x="383" 
y="575" 
dx="0,0.2" 
class="s11_298"
>le</text>

<text 
x="392" 
y="575" 
dx="0,0.2,0.2,0.2,0.2,0.2,0.2,0.2,0.2,0.2,0.2,0.2,0.2,0.2,0.2,0.2,0.2,0.2,0.2,0.2" 
class="s7_298"
>, nǐ mǎi piào le ma?</text>

<text 
x="224" 
y="608" 
dx="0,0,0,0,0,0,0,0,0,0,0,0,0,0,0,0,0,0,0,0,0,0,0,0,0,0,0,0,0,0,0,0,0,0,0,0,0,0,0,0,0,0,0,0,0,0,0,0,0,0,0,0,0,0,-0.3,0,0,-0.6" 
class="s5_298"
>The movie is going to start soon. Did you get the tickets?</text>

<text 
x="154" 
y="671" 
dx="0,0" 
class="s8_298"
>D </text>

<text 
x="220" 
y="674" 
dx="0,0" 
class="s10_298"
>快要</text>

<text 
x="284" 
y="674" 
dx="0,0" 
class="s9_298"
>考试</text>

<text 
x="348" 
y="674" 
dx="0" 
class="s10_298"
>了</text>

<text 
x="380" 
y="674" 
dx="0,0,0,0,0,0,0,0,0,0,0" 
class="s9_298"
>，我们大家得准备一下。</text>

<text 
x="224" 
y="711" 
dx="0,0.2,0.2,0.2" 
class="s11_298"
>Kuài</text>

<text 
x="260" 
y="711" 
dx="0,0.2,0.2,0.2" 
class="s11_298"
>yào </text>

<text 
x="286" 
y="711" 
dx="0,0.2,0.2,0.2,0.2,0.2,0.2,0.2" 
class="s7_298"
>kǎo shì </text>

<text 
x="333" 
y="711" 
dx="0,0.2" 
class="s11_298"
>le</text>

<text 
x="343" 
y="711" 
dx="0,0.2,0.2,0.2,0.2,0.2,0.2,0.2,0.2,0.2,0.2,0.2,0.2,0.2,0.2,0.2,0.2,0.2,0.2,0.2,0.2,0.2,0.2,0.2,0.2,0.2,0.2,0.2,0.2,0.2,0.2,0.2,0.2" 
class="s7_298"
>, wǒmen dàjiā děi zhǔnbèi yí xià.</text>

<text 
x="224" 
y="743" 
dx="0,0,0,0,0,-0.4,0,0,0,0,0,0,0,0,0,0,0,0,0,0,0,-0.6,0,0,0,0,0,0,0,0,0,0,0,0,0,0,0,0,-0.1" 
class="s5_298"
>The exam is coming. We have to prepare.</text>

<text 
x="143" 
y="799" 
dx="0,0.2,0.2,0.2,0.2,0.2,0.2,0.2,0.2" 
class="s12_298"
>EXERCISES</text>

<text 
x="143" 
y="827" 
dx="0,0,0,0,0,0,0,0,0,0,0,0,0,0,0,0,0,0,0,0,0,0,0,0,0,0,0,0,0,0,0,0,0,0,0,0,0,0,0,0,0,0,0,0,0,0,0,0,0,0,0,0,0,0,0,0,0,0,0,0,0,0,0,0,0,0,0,0,0,0,0,0,0,0,0,0,0,0,0,0,0,0,0,0,0" 
class="s5_298"
>Form a new sentence to indicate the imminence of an action or situation by inserting </text>

<text 
x="131" 
y="854" 
dx="0,0,0,0,0,0" 
class="s6_298"
>（快）要…了</text>

<text 
x="263" 
y="854" 
dx="0,0,0,0,0,0,0,0,0,0,0,0,0,0,0,0,0,-0.1,0,0,0,0,0,0,-0.4,-0.6,0,0,0,0,0,0,0,0,0,0,0,0,0,0,0,-0.4,0,0,0,0,0,-0.1" 
class="s5_298"
>where appropriate. Use exercise 1 as an example.</text>

<text 
x="145" 
y="897" 
dx="0,0" 
class="s13_298"
>1 </text>

<text 
x="187" 
y="899" 
dx="0,0,0,0,0,0,0,0,0,0,0,0,0" 
class="s9_298"
>新年到 → 新年快要到了。</text>

<text 
x="145" 
y="942" 
dx="0,0" 
class="s13_298"
>2 </text>

<text 
x="187" 
y="943" 
dx="0,0,0,0,0" 
class="s9_298"
>我们考中文</text>

<text 
x="145" 
y="986" 
dx="0,0" 
class="s13_298"
>3 </text>

<text 
x="187" 
y="987" 
dx="0,0,0,0" 
class="s9_298"
>我们上课</text>

<path d="M132.9,39.5l0,53.5l0,0.7l0.7,0l676.9,0l0.8,0l0,-0.7l0,-53.5l0,-0.8l-0.8,0l-676.9,0l-0.7,0l0,0.8Z" class="g2_298" />
<path d="M134.9,91.7l674.4,0l0,-50.9l-674.4,0l0,50.9Z" class="g3_298" />
<path d="M149.1,204.5c-0.1,0,-7.6,0.1,-7.6,7.7l0,19.6c0,0.1,0,7.7,7.6,7.7l22.4,0c0.1,0,7.6,-0.1,7.6,-7.7l0,-19.6c0,-0.1,0,-7.7,-7.6,-7.7l-22.4,0Z" class="g2_298" />
<path d="M149.1,206.5c-0.6,0.1,-5.6,0.3,-5.6,5.7l0,19.6c0,0.6,0.2,5.6,5.6,5.6l22.4,0c0.6,0,5.6,-0.2,5.6,-5.6l0,-19.6c0,-0.6,-0.2,-5.7,-5.6,-5.7l-22.4,0Z" class="g3_298" />
<path d="M149.1,378.1c-0.1,0,-7.6,0.1,-7.6,7.7l0,19.7c0,0.1,0,7.6,7.6,7.6l22.4,0c0.1,0,7.6,-0.1,7.6,-7.6l0,-19.7c0,-0.1,0,-7.7,-7.6,-7.7l-22.4,0Z" class="g2_298" />
<path d="M149.1,380.2c-0.6,0,-5.6,0.2,-5.6,5.6l0,19.7c0,0.5,0.2,5.6,5.6,5.6l22.4,0c0.6,0,5.6,-0.2,5.6,-5.6l0,-19.7c0,-0.6,-0.2,-5.6,-5.6,-5.6l-22.4,0Z" class="g3_298" />
<path d="M149.1,513.3c-0.1,0,-7.6,0.1,-7.6,7.6l0,19.7c0,0.1,0,7.6,7.6,7.6l22.4,0c0.1,0,7.6,0,7.6,-7.6l0,-19.7c0,-0.1,0,-7.6,-7.6,-7.6l-22.4,0Z" class="g2_298" />
<path d="M149.1,515.3c-0.6,0,-5.6,0.2,-5.6,5.6l0,19.7c0,0.6,0.2,5.6,5.6,5.6l22.4,0c0.6,0,5.6,-0.2,5.6,-5.6l0,-19.7c0,-0.6,-0.2,-5.6,-5.6,-5.6l-22.4,0Z" class="g3_298" />
<path d="M149.1,648.4c-0.1,0,-7.6,0.1,-7.6,7.6l0,19.7c0,0.1,0,7.7,7.6,7.7l22.4,0c0.1,0,7.6,-0.1,7.6,-7.7l0,-19.7c0,0,0,-7.6,-7.6,-7.6l-22.4,0Z" class="g2_298" />
<path d="M149.1,650.4c-0.6,0,-5.6,0.3,-5.6,5.6l0,19.7c0,0.6,0.2,5.6,5.6,5.6l22.4,0c0.6,0,5.6,-0.2,5.6,-5.6l0,-19.7c0,-0.5,-0.2,-5.6,-5.6,-5.6l-22.4,0Z" class="g3_298" />
<path d="M885.3,1209.2l69.6,0l0,-1222.1l-69.6,0l0,1222.1Z" class="g4_298" />
<text 
transform="matrix(0, 1, -1, 0, 894, 906)"
dx="0,0.2,0.3,0.3,0.3,0.3,0.3,0.3,0.3,0.3" 
class="s14_298"
>Lesson 10 </text>

<text 
transform="matrix(0, 1, -1, 0, 894, 969)"
dx="0,0.3" 
class="s14_298"
>| </text>

<text 
transform="matrix(0, 1, -1, 0, 894, 982)"
dx="0,-0.5,0.3,0.3,0.3,0.3,0.3,0.3,0.3,0.3,0.3,0.3,0.3,0.3,0.3" 
class="s14_298"
>Transportation </text>

<text 
transform="matrix(0, 1, -1, 0, 894, 1071)"
dx="0,0.3" 
class="s14_298"
>| </text>

<text 
transform="matrix(0, 1, -1, 0, 894, 1084)"
dx="0,0.3,0.3,0.3,0.3,0.3,0.3,0.3" 
class="s14_298"
>Grammar </text>

<text 
transform="matrix(0, 1, -1, 0, 894, 1153)"
dx="0,0.3,0.3" 
class="s14_298"
>277</text>



<!-- Any embedded fonts defined here -->
<style type="text/css" ><![CDATA[

@font-face {
	font-family: Marion-Italic_2si;
	src: url("fonts/Marion-Italic_2si.woff") format("woff");
}

@font-face {
	font-family: ProximaNova-Bold_35e;
	src: url("fonts/ProximaNova-Bold_35e.woff") format("woff");
}

@font-face {
	font-family: ProximaNova-Semibold_35r;
	src: url("fonts/ProximaNova-Semibold_35r.woff") format("woff");
}

@font-face {
	font-family: STKaiti-SC-Bold_2sb;
	src: url("fonts/STKaiti-SC-Bold_2sb.woff") format("woff");
}

@font-face {
	font-family: ProximaNova-Light_35x;
	src: url("fonts/ProximaNova-Light_35x.woff") format("woff");
}

@font-face {
	font-family: ProximaNova-Extrabld_35m;
	src: url("fonts/ProximaNova-Extrabld_35m.woff") format("woff");
}

@font-face {
	font-family: STKaiti-SC-Regular_2t7;
	src: url("fonts/STKaiti-SC-Regular_2t7.woff") format("woff");
}

]]></style>

</svg>
