<?xml version="1.0" encoding="UTF-8" standalone="no"?>
<!DOCTYPE svg PUBLIC "-//W3C//DTD SVG 1.1//EN"
"http://www.w3.org/Graphics/SVG/1.1/DTD/svg11.dtd">


<!-- Page 338 -->
<svg x="0" y="0" width="921" height="1196" viewBox="0 0 921 1196" version="1.1" xmlns="http://www.w3.org/2000/svg" xmlns:xlink="http://www.w3.org/1999/xlink"
style="display: block;margin-left: auto;margin-right: auto;">
<defs>

<style type="text/css"><![CDATA[

.g1_338{
fill: #F0F1F2;
}
.g2_338{
fill: #BDBEC1;
}
.g3_338{
fill: none;
stroke: #BDBEC1;
stroke-width: 0.38194445;
stroke-linecap: butt;
stroke-linejoin: miter;
}
.g4_338{
fill: none;
stroke: #DADBDD;
stroke-width: 1.5277778;
stroke-linecap: butt;
stroke-linejoin: miter;
}
.g5_338{
fill: none;
stroke: #BDBEC1;
stroke-width: 1.5277778;
stroke-linecap: butt;
stroke-linejoin: miter;
}
.g6_338{
fill: #57585A;
stroke: #B2B3B7;
stroke-width: 1.5277778;
stroke-linecap: butt;
stroke-linejoin: miter;
stroke-miterlimit: 4;
}

.s1_338{
font-size: 15.28px;
font-family: ProximaNova-Bold_378;
fill: #57585A;
}
.s2_338{
font-size: 15.28px;
font-family: ProximaNova-Light_372;
fill: #3F3F40;
}
.s3_338{
font-size: 24.44px;
font-family: STKaiti-SC-Regular_2t7;
fill: #57585A;
}
.s4_338{
font-size: 24.44px;
font-family: STKaiTi-TC-Regular_371;
fill: #57585A;
}
.s5_338{
font-size: 16.81px;
font-family: Marion-Italic_2si;
fill: #3F3F40;
}
.s6_338{
font-size: 15.28px;
font-family: ProximaNova-Regular_377;
fill: #3F3F40;
}
.s7_338{
font-size: 15.28px;
font-family: ProximaNova-Semibold_376;
fill: #77787B;
}
.s8_338{
font-size: 16.81px;
font-family: Marion-Italic_374;
fill: #3F3F40;
}
.s9_338{
font-size: 21.39px;
font-family: ProximaNova-Semibold_376;
fill: #3F3F40;
}
.s10_338{
font-size: 11.46px;
font-family: ProximaNova-Semibold_376;
fill: #FFFFFF;
}

]]></style>

</defs>
<path d="M0,0
L0,1196
L921,1196
L921,0 Z " 
fill="#FFFFFF" stroke="none" />
<path d="M55,93l178.8,0l0,42.8L55,135.8L55,93Zm178.8,0l196.9,0l0,42.8l-196.9,0l0,-42.8Zm196.9,0l196.9,0l0,42.8l-196.9,0l0,-42.8Zm196.9,0l104.5,0l0,42.8l-104.5,0l0,-42.8Zm104.5,0l70.4,0l0,42.8l-70.4,0l0,-42.8Zm70.4,0l63.8,0l0,42.8l-63.8,0l0,-42.8ZM55,177.9l178.8,0l0,42.2L55,220.1l0,-42.2Zm178.8,0l196.9,0l0,42.2l-196.9,0l0,-42.2Zm196.9,0l196.9,0l0,42.2l-196.9,0l0,-42.2Zm196.9,0l104.5,0l0,42.2l-104.5,0l0,-42.2Zm104.5,0l70.4,0l0,42.2l-70.4,0l0,-42.2Zm70.4,0l63.8,0l0,42.2l-63.8,0l0,-42.2ZM55,262.3l178.8,0l0,42.1L55,304.4l0,-42.1Zm178.8,0l196.9,0l0,42.1l-196.9,0l0,-42.1Zm196.9,0l196.9,0l0,42.1l-196.9,0l0,-42.1Zm196.9,0l104.5,0l0,42.1l-104.5,0l0,-42.1Zm104.5,0l70.4,0l0,42.1l-70.4,0l0,-42.1Zm70.4,0l63.8,0l0,42.1l-63.8,0l0,-42.1ZM55,346.6l178.8,0l0,64L55,410.6l0,-64Zm178.8,0l196.9,0l0,64l-196.9,0l0,-64Zm196.9,0l196.9,0l0,64l-196.9,0l0,-64Zm196.9,0l104.5,0l0,64l-104.5,0l0,-64Zm104.5,0l70.4,0l0,64l-70.4,0l0,-64Zm70.4,0l63.8,0l0,64l-63.8,0l0,-64ZM55,452.8l178.8,0l0,44.1L55,496.9l0,-44.1Zm178.8,0l196.9,0l0,44.1l-196.9,0l0,-44.1Zm196.9,0l196.9,0l0,44.1l-196.9,0l0,-44.1Zm196.9,0l104.5,0l0,44.1l-104.5,0l0,-44.1Zm104.5,0l70.4,0l0,44.1l-70.4,0l0,-44.1Zm70.4,0l63.8,0l0,44.1l-63.8,0l0,-44.1ZM55,539.1l178.8,0l0,42.1L55,581.2l0,-42.1Zm178.8,0l196.9,0l0,42.1l-196.9,0l0,-42.1Zm196.9,0l196.9,0l0,42.1l-196.9,0l0,-42.1Zm196.9,0l104.5,0l0,42.1l-104.5,0l0,-42.1Zm104.5,0l70.4,0l0,42.1l-70.4,0l0,-42.1Zm70.4,0l63.8,0l0,42.1l-63.8,0l0,-42.1ZM55,625.4l178.8,0l0,42.2L55,667.6l0,-42.2Zm178.8,0l196.9,0l0,42.2l-196.9,0l0,-42.2Zm196.9,0l196.9,0l0,42.2l-196.9,0l0,-42.2Zm196.9,0l104.5,0l0,42.2l-104.5,0l0,-42.2Zm104.5,0l70.4,0l0,42.2l-70.4,0l0,-42.2Zm70.4,0l63.8,0l0,42.2l-63.8,0l0,-42.2ZM55,709.7l178.8,0l0,42.2L55,751.9l0,-42.2Zm178.8,0l196.9,0l0,42.2l-196.9,0l0,-42.2Zm196.9,0l196.9,0l0,42.2l-196.9,0l0,-42.2Zm196.9,0l104.5,0l0,42.2l-104.5,0l0,-42.2Zm104.5,0l70.4,0l0,42.2l-70.4,0l0,-42.2Zm70.4,0l63.8,0l0,42.2l-63.8,0l0,-42.2ZM55,794.1l178.8,0l0,42.1L55,836.2l0,-42.1Zm178.8,0l196.9,0l0,42.1l-196.9,0l0,-42.1Zm196.9,0l196.9,0l0,42.1l-196.9,0l0,-42.1Zm196.9,0l104.5,0l0,42.1l-104.5,0l0,-42.1Zm104.5,0l70.4,0l0,42.1l-70.4,0l0,-42.1Zm70.4,0l63.8,0l0,42.1l-63.8,0l0,-42.1ZM55,962.7l178.8,0l0,42.2l-178.8,0l0,-42.2Zm178.8,0l196.9,0l0,42.2l-196.9,0l0,-42.2Zm196.9,0l196.9,0l0,42.2l-196.9,0l0,-42.2Zm196.9,0l104.5,0l0,42.2l-104.5,0l0,-42.2Zm104.5,0l70.4,0l0,42.2l-70.4,0l0,-42.2Zm70.4,0l63.8,0l0,42.2l-63.8,0l0,-42.2ZM55,1047l178.8,0l0,42.8l-178.8,0L55,1047Zm178.8,0l196.9,0l0,42.8l-196.9,0l0,-42.8Zm196.9,0l196.9,0l0,42.8l-196.9,0l0,-42.8Zm196.9,0l104.5,0l0,42.8l-104.5,0l0,-42.8Zm104.5,0l70.4,0l0,42.8l-70.4,0l0,-42.8Zm70.4,0l63.8,0l0,42.8l-63.8,0l0,-42.8Z" class="g1_338" />
<path d="M55,878.4l811.3,0l0,42.1L55,920.5l0,-42.1Z" class="g2_338" />
<path d="M55,878.4l178.8,0" class="g3_338" />
<path d="M233.8,878.4l196.9,0" class="g3_338" />
<path d="M430.7,878.4l196.9,0" class="g3_338" />
<path d="M627.6,878.4l104.5,0" class="g3_338" />
<path d="M732.1,878.4l70.4,0" class="g3_338" />
<path d="M802.5,878.4l63.8,0" class="g3_338" />
<path d="M55,93l178.8,0" class="g4_338" />
<path d="M233.8,93l196.9,0" class="g4_338" />
<path d="M430.7,93l196.9,0" class="g4_338" />
<path d="M627.6,93l104.5,0" class="g4_338" />
<path d="M732.1,93l70.4,0" class="g4_338" />
<path d="M802.5,93l63.8,0" class="g4_338" />
<path d="M55,1089.8l178.8,0" class="g5_338" />
<path d="M233.8,1089.8l196.9,0" class="g5_338" />
<path d="M430.7,1089.8l196.9,0" class="g5_338" />
<path d="M627.6,1089.8l104.5,0" class="g5_338" />
<path d="M732.1,1089.8l70.4,0" class="g5_338" />
<path d="M802.5,1089.8l63.8,0" class="g5_338" />
<path d="M55,135.8l178.8,0" class="g3_338" />
<path d="M233.8,135.8l196.9,0" class="g3_338" />
<path d="M430.7,135.8l196.9,0" class="g3_338" />
<path d="M627.6,135.8l104.5,0" class="g3_338" />
<path d="M732.1,135.8l70.4,0" class="g3_338" />
<path d="M802.5,135.8l63.8,0" class="g3_338" />
<path d="M55,177.9l178.8,0" class="g3_338" />
<path d="M233.8,177.9l196.9,0" class="g3_338" />
<path d="M430.7,177.9l196.9,0" class="g3_338" />
<path d="M627.6,177.9l104.5,0" class="g3_338" />
<path d="M732.1,177.9l70.4,0" class="g3_338" />
<path d="M802.5,177.9l63.8,0" class="g3_338" />
<path d="M55,220.1l178.8,0" class="g3_338" />
<path d="M233.8,220.1l196.9,0" class="g3_338" />
<path d="M430.7,220.1l196.9,0" class="g3_338" />
<path d="M627.6,220.1l104.5,0" class="g3_338" />
<path d="M732.1,220.1l70.4,0" class="g3_338" />
<path d="M802.5,220.1l63.8,0" class="g3_338" />
<path d="M55,262.3l178.8,0" class="g3_338" />
<path d="M233.8,262.3l196.9,0" class="g3_338" />
<path d="M430.7,262.3l196.9,0" class="g3_338" />
<path d="M627.6,262.3l104.5,0" class="g3_338" />
<path d="M732.1,262.3l70.4,0" class="g3_338" />
<path d="M802.5,262.3l63.8,0" class="g3_338" />
<path d="M55,304.4l178.8,0" class="g3_338" />
<path d="M233.8,304.4l196.9,0" class="g3_338" />
<path d="M430.7,304.4l196.9,0" class="g3_338" />
<path d="M627.6,304.4l104.5,0" class="g3_338" />
<path d="M732.1,304.4l70.4,0" class="g3_338" />
<path d="M802.5,304.4l63.8,0" class="g3_338" />
<path d="M55,346.6l178.8,0" class="g3_338" />
<path d="M233.8,346.6l196.9,0" class="g3_338" />
<path d="M430.7,346.6l196.9,0" class="g3_338" />
<path d="M627.6,346.6l104.5,0" class="g3_338" />
<path d="M732.1,346.6l70.4,0" class="g3_338" />
<path d="M802.5,346.6l63.8,0" class="g3_338" />
<path d="M55,410.6l178.8,0" class="g3_338" />
<path d="M233.8,410.6l196.9,0" class="g3_338" />
<path d="M430.7,410.6l196.9,0" class="g3_338" />
<path d="M627.6,410.6l104.5,0" class="g3_338" />
<path d="M732.1,410.6l70.4,0" class="g3_338" />
<path d="M802.5,410.6l63.8,0" class="g3_338" />
<path d="M55,452.8l178.8,0" class="g3_338" />
<path d="M233.8,452.8l196.9,0" class="g3_338" />
<path d="M430.7,452.8l196.9,0" class="g3_338" />
<path d="M627.6,452.8l104.5,0" class="g3_338" />
<path d="M732.1,452.8l70.4,0" class="g3_338" />
<path d="M802.5,452.8l63.8,0" class="g3_338" />
<path d="M55,496.9l178.8,0" class="g3_338" />
<path d="M233.8,496.9l196.9,0" class="g3_338" />
<path d="M430.7,496.9l196.9,0" class="g3_338" />
<path d="M627.6,496.9l104.5,0" class="g3_338" />
<path d="M732.1,496.9l70.4,0" class="g3_338" />
<path d="M802.5,496.9l63.8,0" class="g3_338" />
<path d="M55,539.1l178.8,0" class="g3_338" />
<path d="M233.8,539.1l196.9,0" class="g3_338" />
<path d="M430.7,539.1l196.9,0" class="g3_338" />
<path d="M627.6,539.1l104.5,0" class="g3_338" />
<path d="M732.1,539.1l70.4,0" class="g3_338" />
<path d="M802.5,539.1l63.8,0" class="g3_338" />
<path d="M55,581.2l178.8,0" class="g3_338" />
<path d="M233.8,581.2l196.9,0" class="g3_338" />
<path d="M430.7,581.2l196.9,0" class="g3_338" />
<path d="M627.6,581.2l104.5,0" class="g3_338" />
<path d="M732.1,581.2l70.4,0" class="g3_338" />
<path d="M802.5,581.2l63.8,0" class="g3_338" />
<path d="M55,625.4l178.8,0" class="g3_338" />
<path d="M233.8,625.4l196.9,0" class="g3_338" />
<path d="M430.7,625.4l196.9,0" class="g3_338" />
<path d="M627.6,625.4l104.5,0" class="g3_338" />
<path d="M732.1,625.4l70.4,0" class="g3_338" />
<path d="M802.5,625.4l63.8,0" class="g3_338" />
<path d="M55,667.6l178.8,0" class="g3_338" />
<path d="M233.8,667.6l196.9,0" class="g3_338" />
<path d="M430.7,667.6l196.9,0" class="g3_338" />
<path d="M627.6,667.6l104.5,0" class="g3_338" />
<path d="M732.1,667.6l70.4,0" class="g3_338" />
<path d="M802.5,667.6l63.8,0" class="g3_338" />
<path d="M55,709.7l178.8,0" class="g3_338" />
<path d="M233.8,709.7l196.9,0" class="g3_338" />
<path d="M430.7,709.7l196.9,0" class="g3_338" />
<path d="M627.6,709.7l104.5,0" class="g3_338" />
<path d="M732.1,709.7l70.4,0" class="g3_338" />
<path d="M802.5,709.7l63.8,0" class="g3_338" />
<path d="M55,751.9l178.8,0" class="g3_338" />
<path d="M233.8,751.9l196.9,0" class="g3_338" />
<path d="M430.7,751.9l196.9,0" class="g3_338" />
<path d="M627.6,751.9l104.5,0" class="g3_338" />
<path d="M732.1,751.9l70.4,0" class="g3_338" />
<path d="M802.5,751.9l63.8,0" class="g3_338" />
<path d="M55,794.1l178.8,0" class="g3_338" />
<path d="M233.8,794.1l196.9,0" class="g3_338" />
<path d="M430.7,794.1l196.9,0" class="g3_338" />
<path d="M627.6,794.1l104.5,0" class="g3_338" />
<path d="M732.1,794.1l70.4,0" class="g3_338" />
<path d="M802.5,794.1l63.8,0" class="g3_338" />
<path d="M55,836.2l178.8,0" class="g3_338" />
<path d="M233.8,836.2l196.9,0" class="g3_338" />
<path d="M430.7,836.2l196.9,0" class="g3_338" />
<path d="M627.6,836.2l104.5,0" class="g3_338" />
<path d="M732.1,836.2l70.4,0" class="g3_338" />
<path d="M802.5,836.2l63.8,0" class="g3_338" />
<path d="M55,920.5l178.8,0" class="g3_338" />
<path d="M233.8,920.5l196.9,0" class="g3_338" />
<path d="M430.7,920.5l196.9,0" class="g3_338" />
<path d="M627.6,920.5l104.5,0" class="g3_338" />
<path d="M732.1,920.5l70.4,0" class="g3_338" />
<path d="M802.5,920.5l63.8,0" class="g3_338" />
<path d="M55,962.7l178.8,0" class="g3_338" />
<path d="M233.8,962.7l196.9,0" class="g3_338" />
<path d="M430.7,962.7l196.9,0" class="g3_338" />
<path d="M627.6,962.7l104.5,0" class="g3_338" />
<path d="M732.1,962.7l70.4,0" class="g3_338" />
<path d="M802.5,962.7l63.8,0" class="g3_338" />
<path d="M55,1004.9l178.8,0" class="g3_338" />
<path d="M233.8,1004.9l196.9,0" class="g3_338" />
<path d="M430.7,1004.9l196.9,0" class="g3_338" />
<path d="M627.6,1004.9l104.5,0" class="g3_338" />
<path d="M732.1,1004.9l70.4,0" class="g3_338" />
<path d="M802.5,1004.9l63.8,0" class="g3_338" />
<path d="M55,1047l178.8,0" class="g3_338" />
<path d="M233.8,1047l196.9,0" class="g3_338" />
<path d="M430.7,1047l196.9,0" class="g3_338" />
<path d="M627.6,1047l104.5,0" class="g3_338" />
<path d="M732.1,1047l70.4,0" class="g3_338" />
<path d="M802.5,1047l63.8,0" class="g3_338" />
<text 
x="61" 
y="80" 
dx="0,0,0,0,0,0,0" 
class="s1_338"
>English</text>

<text 
x="239" 
y="80" 
dx="0,0,0,0,0,0,0,0,0,0" 
class="s1_338"
>Simplified</text>

<text 
x="436" 
y="80" 
dx="0,-1,0,0,0,0,0,0,0,0,0" 
class="s1_338"
>Traditional</text>

<text 
x="633" 
y="80" 
dx="0,0,0,0,0,0" 
class="s1_338"
>Pinyin</text>

<text 
x="738" 
y="73" 
dx="0,-0.3,0,0,0,0,0,0" 
class="s1_338"
>Part of </text>

<text 
x="738" 
y="86" 
dx="0,0,0,0,0,0" 
class="s1_338"
>Speech</text>

<text 
x="808" 
y="80" 
dx="0,-0.2,0,0,0,0" 
class="s1_338"
>Lesson</text>

<text 
x="61" 
y="120" 
dx="0,0,0,0,0,0,0,0,0" 
class="s2_338"
>pay money</text>

<text 
x="239" 
y="123" 
dx="0,0" 
class="s3_338"
>付钱</text>

<text 
x="436" 
y="123" 
dx="0,0" 
class="s4_338"
>付錢</text>

<text 
x="633" 
y="120" 
dx="0,0,0,0,0,0,0" 
class="s5_338"
>fù qián</text>

<text 
x="738" 
y="120" 
dx="0,0" 
class="s6_338"
>vo</text>

<text 
x="808" 
y="120" 
dx="0" 
class="s7_338"
>9</text>

<text 
x="61" 
y="162" 
dx="0,0,0,0,0,0,0,0,0,0,0,0,0,0,0,0,0,0,0,0,0,0" 
class="s2_338"
>pay with a credit card</text>

<text 
x="239" 
y="165" 
dx="0,0" 
class="s3_338"
>刷卡</text>

<text 
x="633" 
y="162" 
dx="0,0,0,0,0,0,0" 
class="s5_338"
>shuā kǎ</text>

<text 
x="738" 
y="162" 
dx="0,0" 
class="s6_338"
>vo</text>

<text 
x="808" 
y="162" 
dx="0" 
class="s7_338"
>9</text>

<text 
x="61" 
y="205" 
dx="0,0,0" 
class="s2_338"
>pen</text>

<text 
x="239" 
y="207" 
dx="0" 
class="s3_338"
>笔</text>

<text 
x="436" 
y="207" 
dx="0" 
class="s4_338"
>筆</text>

<text 
x="633" 
y="204" 
dx="0,0" 
class="s5_338"
>bǐ</text>

<text 
x="738" 
y="205" 
dx="0" 
class="s6_338"
>n</text>

<text 
x="808" 
y="205" 
dx="0" 
class="s7_338"
>7</text>

<text 
x="61" 
y="247" 
dx="0,0,0,0,0,0,-0.1,0,0,0,0,0,0,0" 
class="s2_338"
>people, person</text>

<text 
x="239" 
y="249" 
dx="0" 
class="s3_338"
>人</text>

<text 
x="633" 
y="247" 
dx="0,0,0" 
class="s5_338"
>rén</text>

<text 
x="738" 
y="247" 
dx="0" 
class="s6_338"
>n</text>

<text 
x="808" 
y="247" 
dx="0" 
class="s7_338"
>1</text>

<text 
x="61" 
y="289" 
dx="0,0,0,0,0,0,0,-0.1,0,0,0,0,0,0" 
class="s2_338"
>picture, photo</text>

<text 
x="239" 
y="292" 
dx="0,0" 
class="s3_338"
>照片</text>

<text 
x="633" 
y="289" 
dx="0,0,0,0,0,0,0,0" 
class="s5_338"
>zhàopiàn</text>

<text 
x="738" 
y="289" 
dx="0" 
class="s6_338"
>n</text>

<text 
x="808" 
y="289" 
dx="0" 
class="s7_338"
>2</text>

<text 
x="61" 
y="331" 
dx="0,0,0,0,0,0,0,0,0" 
class="s2_338"
>play ball</text>

<text 
x="239" 
y="334" 
dx="0,0" 
class="s3_338"
>打球</text>

<text 
x="633" 
y="331" 
dx="0,0,0,0,0,0" 
class="s5_338"
>dǎ qiú</text>

<text 
x="738" 
y="331" 
dx="0,0" 
class="s6_338"
>vo</text>

<text 
x="808" 
y="331" 
dx="0" 
class="s7_338"
>4</text>

<text 
x="61" 
y="364" 
dx="0,0,0,0,0,0,0,0,0,0,0,0,0,0,0,0,0,0,0,0,0,0,0" 
class="s2_338"
>please (polite form of </text>

<text 
x="61" 
y="384" 
dx="0,0,0,0,0,0,0,0,0,0,0,0,0,0,0,0,0,0,0,0,0,0,0,0,0" 
class="s2_338"
>request), to treat or to </text>

<text 
x="61" 
y="404" 
dx="0,0,0,0,0,0,0,0,0,0,0,0,0,0,0,0,0" 
class="s2_338"
>invite (somebody)</text>

<text 
x="239" 
y="387" 
dx="0" 
class="s3_338"
>请</text>

<text 
x="436" 
y="387" 
dx="0" 
class="s4_338"
>請</text>

<text 
x="633" 
y="384" 
dx="0,0,0,0" 
class="s5_338"
>qǐng</text>

<text 
x="738" 
y="384" 
dx="0" 
class="s6_338"
>v</text>

<text 
x="808" 
y="384" 
dx="0" 
class="s7_338"
>1</text>

<text 
x="61" 
y="437" 
dx="0,0,0,0,0,0" 
class="s2_338"
>polite</text>

<text 
x="239" 
y="440" 
dx="0,0" 
class="s3_338"
>客气</text>

<text 
x="436" 
y="440" 
dx="0,0" 
class="s4_338"
>客氣</text>

<text 
x="633" 
y="437" 
dx="0,0,0,0" 
class="s5_338"
>kèqi</text>

<text 
x="738" 
y="437" 
dx="0,0,0" 
class="s6_338"
>adj</text>

<text 
x="808" 
y="437" 
dx="0" 
class="s7_338"
>6</text>

<text 
x="61" 
y="470" 
dx="0,0,0,0,0,0,0,0,0,0,0,0,0,0,0" 
class="s2_338"
>(possessive or </text>

<text 
x="61" 
y="490" 
dx="0,0,0,0,0,0,0,0,0,0,0,0,0,0,0,0,0,0,0,0,0" 
class="s2_338"
>descriptive particle)</text>

<text 
x="239" 
y="483" 
dx="0" 
class="s3_338"
>的</text>

<text 
x="633" 
y="480" 
dx="0,0" 
class="s5_338"
>de</text>

<text 
x="738" 
y="480" 
dx="0" 
class="s6_338"
>p</text>

<text 
x="808" 
y="480" 
dx="0" 
class="s7_338"
>2</text>

<text 
x="61" 
y="524" 
dx="0,0,0,0,0,0,0,0" 
class="s2_338"
>practice</text>

<text 
x="239" 
y="526" 
dx="0,0" 
class="s3_338"
>练习</text>

<text 
x="436" 
y="526" 
dx="0,0" 
class="s4_338"
>練習</text>

<text 
x="633" 
y="523" 
dx="0,0,0,0,0,0" 
class="s5_338"
>liànxí</text>

<text 
x="738" 
y="524" 
dx="0" 
class="s6_338"
>v</text>

<text 
x="808" 
y="524" 
dx="0" 
class="s7_338"
>6</text>

<text 
x="61" 
y="566" 
dx="0,0,0,0,0,0,0,0,0,-0.9,0,0,-0.4,0,0,0,0,0" 
class="s2_338"
>precisely, exactly</text>

<text 
x="239" 
y="568" 
dx="0" 
class="s3_338"
>就</text>

<text 
x="633" 
y="566" 
dx="0,0,0" 
class="s5_338"
>jiù</text>

<text 
x="738" 
y="566" 
dx="0,0,0" 
class="s6_338"
>adv</text>

<text 
x="808" 
y="566" 
dx="0" 
class="s7_338"
>6</text>

<text 
x="61" 
y="599" 
dx="0,0,0,0,0,0,0,0,0,0,0,0,0,0,0,0,0,0,0,0" 
class="s2_338"
>(prefix for ordinal </text>

<text 
x="61" 
y="619" 
dx="0,0,0,0,0,0,0,0" 
class="s2_338"
>numbers)</text>

<text 
x="239" 
y="612" 
dx="0" 
class="s3_338"
>第</text>

<text 
x="633" 
y="609" 
dx="0,0" 
class="s5_338"
>dì</text>

<text 
x="738" 
y="609" 
dx="0,0,0,0,0,0" 
class="s6_338"
>prefix</text>

<text 
x="808" 
y="609" 
dx="0" 
class="s7_338"
>7</text>

<text 
x="61" 
y="652" 
dx="0,0,0,0,0,0,0" 
class="s2_338"
>prepare</text>

<text 
x="239" 
y="655" 
dx="0,0" 
class="s3_338"
>准备</text>

<text 
x="436" 
y="655" 
dx="0,0" 
class="s4_338"
>準備</text>

<text 
x="633" 
y="652" 
dx="0,0,0,0,0,0,0" 
class="s5_338"
>zhǔnbèi</text>

<text 
x="738" 
y="652" 
dx="0" 
class="s6_338"
>v</text>

<text 
x="808" 
y="652" 
dx="0" 
class="s7_338"
>6</text>

<text 
x="61" 
y="694" 
dx="0,0,0,0,0,0" 
class="s2_338"
>pretty</text>

<text 
x="239" 
y="697" 
dx="0,0" 
class="s3_338"
>漂亮</text>

<text 
x="436" 
y="697" 
dx="0,0" 
class="s4_338"
>漂亮</text>

<text 
x="633" 
y="694" 
dx="0,0,0,0,0,0,0,0,0" 
class="s5_338"
>piàoliang</text>

<text 
x="738" 
y="694" 
dx="0,0,0" 
class="s6_338"
>adj</text>

<text 
x="808" 
y="694" 
dx="0" 
class="s7_338"
>5</text>

<text 
x="61" 
y="736" 
dx="0,0,0,0,0,0,0,0,0,0,0" 
class="s2_338"
>pretty good</text>

<text 
x="239" 
y="739" 
dx="0,0" 
class="s3_338"
>不错</text>

<text 
x="436" 
y="739" 
dx="0,0" 
class="s4_338"
>不錯</text>

<text 
x="633" 
y="736" 
dx="0,0,0,0,0" 
class="s8_338"
>búcuò</text>

<text 
x="738" 
y="736" 
dx="0,0,0" 
class="s6_338"
>adj</text>

<text 
x="808" 
y="736" 
dx="0" 
class="s7_338"
>4</text>

<text 
x="61" 
y="779" 
dx="0,0,0,0,0,0,0" 
class="s2_338"
>preview</text>

<text 
x="239" 
y="781" 
dx="0,0" 
class="s3_338"
>预习</text>

<text 
x="436" 
y="781" 
dx="0,0" 
class="s4_338"
>預習</text>

<text 
x="633" 
y="778" 
dx="0,0,0,0" 
class="s5_338"
>yùxí</text>

<text 
x="738" 
y="779" 
dx="0" 
class="s6_338"
>v</text>

<text 
x="808" 
y="779" 
dx="0" 
class="s7_338"
>7</text>

<text 
x="61" 
y="821" 
dx="0,0,0,0,0,0,0,0,0,0,0,0" 
class="s2_338"
>previous one</text>

<text 
x="239" 
y="823" 
dx="0,0" 
class="s3_338"
>上个</text>

<text 
x="436" 
y="823" 
dx="0,0" 
class="s4_338"
>上個</text>

<text 
x="633" 
y="821" 
dx="0,0,0,0,0,0,0,0" 
class="s5_338"
>shàng ge</text>

<text 
x="808" 
y="821" 
dx="0" 
class="s7_338"
>7</text>

<text 
x="61" 
y="863" 
dx="0,0,0,0,0,0,0,0,0,0,0,0,0" 
class="s2_338"
>pronunciation</text>

<text 
x="239" 
y="866" 
dx="0,0" 
class="s3_338"
>发音</text>

<text 
x="436" 
y="866" 
dx="0,0" 
class="s4_338"
>發音</text>

<text 
x="633" 
y="863" 
dx="0,0,0,0,0" 
class="s5_338"
>fāyīn</text>

<text 
x="738" 
y="863" 
dx="0" 
class="s6_338"
>n</text>

<text 
x="808" 
y="863" 
dx="0" 
class="s7_338"
>8</text>

<text 
x="452" 
y="907" 
dx="0" 
class="s9_338"
>Q</text>

<text 
x="61" 
y="947" 
dx="0,0,0,0,0,0,0,0,0,0,0,0,0,0,0,0,0,0,0,0" 
class="s2_338"
>quarter (of an hour)</text>

<text 
x="239" 
y="950" 
dx="0" 
class="s3_338"
>刻</text>

<text 
x="633" 
y="947" 
dx="0,0" 
class="s5_338"
>kè</text>

<text 
x="738" 
y="947" 
dx="0" 
class="s6_338"
>m</text>

<text 
x="808" 
y="947" 
dx="0" 
class="s7_338"
>3</text>

<text 
x="61" 
y="989" 
dx="0,0,0,0,0,0,0,0,0,0,0,0,0,0,0,0,0,0,0" 
class="s2_338"
>(question particle)</text>

<text 
x="239" 
y="992" 
dx="0" 
class="s3_338"
>吗</text>

<text 
x="436" 
y="992" 
dx="0" 
class="s4_338"
>嗎</text>

<text 
x="633" 
y="989" 
dx="0,0" 
class="s5_338"
>ma</text>

<text 
x="738" 
y="989" 
dx="0,0" 
class="s6_338"
>qp</text>

<text 
x="808" 
y="989" 
dx="0" 
class="s7_338"
>1</text>

<text 
x="61" 
y="1031" 
dx="0,0,0,0,0,0,0,0,0,0,0,0,0,0,0,0,0,0,0" 
class="s2_338"
>(question particle)</text>

<text 
x="239" 
y="1034" 
dx="0" 
class="s3_338"
>呢</text>

<text 
x="633" 
y="1031" 
dx="0,0" 
class="s5_338"
>ne</text>

<text 
x="738" 
y="1031" 
dx="0,0" 
class="s6_338"
>qp</text>

<text 
x="808" 
y="1031" 
dx="0" 
class="s7_338"
>1</text>

<text 
x="61" 
y="1074" 
dx="0,0,0,0,0,0,0,0,0,0,0,0,0,0,0,0,0" 
class="s2_338"
>question, problem</text>

<text 
x="239" 
y="1076" 
dx="0,0" 
class="s3_338"
>问题</text>

<text 
x="436" 
y="1076" 
dx="0,0" 
class="s4_338"
>問題</text>

<text 
x="633" 
y="1073" 
dx="0,0,0,0,0" 
class="s5_338"
>wèntí</text>

<text 
x="738" 
y="1074" 
dx="0" 
class="s6_338"
>n</text>

<text 
x="808" 
y="1074" 
dx="0" 
class="s7_338"
>6</text>

<path d="M885.3,1213.8l65,0l0,-1229.7l-65,0l0,1229.7Z" class="g6_338" />
<text 
transform="matrix(0, 1, -1, 0, 894, 944)"
dx="0,-0.3,0.3,0.3,0.3,0.3,0.3,0.3,0.3,0.3,0.3,0.3,0.3,0.3,0.3,-0.1,0.3,0.3,0.3,0.3,0.3,0.3,0.3,0.3,0.3,0.3,0.3,0.3,0.3,0.3,0.3,0.3,0.3,0.3,0.3" 
class="s10_338"
>Vocabulary Index (English-Chinese) </text>

<text 
transform="matrix(0, 1, -1, 0, 894, 1155)"
dx="0,0.3,0.3" 
class="s10_338"
>317</text>



<!-- Any embedded fonts defined here -->
<style type="text/css" ><![CDATA[

@font-face {
	font-family: Marion-Italic_2si;
	src: url("fonts/Marion-Italic_2si.woff") format("woff");
}

@font-face {
	font-family: ProximaNova-Light_372;
	src: url("fonts/ProximaNova-Light_372.woff") format("woff");
}

@font-face {
	font-family: ProximaNova-Semibold_376;
	src: url("fonts/ProximaNova-Semibold_376.woff") format("woff");
}

@font-face {
	font-family: Marion-Italic_374;
	src: url("fonts/Marion-Italic_374.woff") format("woff");
}

@font-face {
	font-family: ProximaNova-Bold_378;
	src: url("fonts/ProximaNova-Bold_378.woff") format("woff");
}

@font-face {
	font-family: ProximaNova-Regular_377;
	src: url("fonts/ProximaNova-Regular_377.woff") format("woff");
}

@font-face {
	font-family: STKaiTi-TC-Regular_371;
	src: url("fonts/STKaiTi-TC-Regular_371.woff") format("woff");
}

@font-face {
	font-family: STKaiti-SC-Regular_2t7;
	src: url("fonts/STKaiti-SC-Regular_2t7.woff") format("woff");
}

]]></style>

</svg>
