<?xml version="1.0" encoding="UTF-8" standalone="no"?>
<!DOCTYPE svg PUBLIC "-//W3C//DTD SVG 1.1//EN"
"http://www.w3.org/Graphics/SVG/1.1/DTD/svg11.dtd">


<!-- Page 312 -->
<svg x="0" y="0" width="921" height="1196" viewBox="0 0 921 1196" version="1.1" xmlns="http://www.w3.org/2000/svg" xmlns:xlink="http://www.w3.org/1999/xlink"
style="display: block;margin-left: auto;margin-right: auto;">
<defs>

<style type="text/css"><![CDATA[

.g1_312{
fill: #F0F1F2;
}
.g2_312{
fill: none;
stroke: #BDBEC1;
stroke-width: 1.5277778;
stroke-linecap: butt;
stroke-linejoin: miter;
}
.g3_312{
fill: none;
stroke: #DADBDD;
stroke-width: 1.5277778;
stroke-linecap: butt;
stroke-linejoin: miter;
}
.g4_312{
fill: none;
stroke: #BDBEC1;
stroke-width: 0.38194445;
stroke-linecap: butt;
stroke-linejoin: miter;
}
.g5_312{
fill: #57585A;
stroke: #B2B3B7;
stroke-width: 1.5277778;
stroke-linecap: butt;
stroke-linejoin: miter;
stroke-miterlimit: 4;
}

.s1_312{
font-size: 15.28px;
font-family: ProximaNova-Bold_378;
fill: #57585A;
}
.s2_312{
font-size: 24.44px;
font-family: STKaiti-SC-Regular_2t7;
fill: #57585A;
}
.s3_312{
font-size: 16.81px;
font-family: Marion-Italic_2si;
fill: #3F3F40;
}
.s4_312{
font-size: 15.28px;
font-family: ProximaNova-Regular_377;
fill: #3F3F40;
}
.s5_312{
font-size: 14.51px;
font-family: ProximaNova-Light_372;
fill: #3F3F40;
}
.s6_312{
font-size: 15.28px;
font-family: ProximaNova-Semibold_376;
fill: #77787B;
}
.s7_312{
font-size: 24.44px;
font-family: STKaiTi-TC-Regular_371;
fill: #57585A;
}
.s8_312{
font-size: 11.46px;
font-family: ProximaNova-Semibold_376;
fill: #FFFFFF;
}

]]></style>

</defs>
<path d="M0,0
L0,1196
L921,1196
L921,0 Z " 
fill="#FFFFFF" stroke="none" />
<path d="M55,99.2l178.8,0l0,42.7L55,141.9L55,99.2Zm178.8,0l178.7,0l0,42.7l-178.7,0l0,-42.7Zm178.7,0l135.2,0l0,42.7l-135.2,0l0,-42.7Zm135.2,0l66.1,0l0,42.7l-66.1,0l0,-42.7Zm66.1,0l189.2,0l0,42.7l-189.2,0l0,-42.7Zm189.2,0l63.3,0l0,42.7l-63.3,0l0,-42.7ZM55,184.1l178.8,0l0,42.1L55,226.2l0,-42.1Zm178.8,0l178.7,0l0,42.1l-178.7,0l0,-42.1Zm178.7,0l135.2,0l0,42.1l-135.2,0l0,-42.1Zm135.2,0l66.1,0l0,42.1l-66.1,0l0,-42.1Zm66.1,0l189.2,0l0,42.1l-189.2,0l0,-42.1Zm189.2,0l63.3,0l0,42.1l-63.3,0l0,-42.1ZM55,268.4l178.8,0l0,43.5L55,311.9l0,-43.5Zm178.8,0l178.7,0l0,43.5l-178.7,0l0,-43.5Zm178.7,0l135.2,0l0,43.5l-135.2,0l0,-43.5Zm135.2,0l66.1,0l0,43.5l-66.1,0l0,-43.5Zm66.1,0l189.2,0l0,43.5l-189.2,0l0,-43.5Zm189.2,0l63.3,0l0,43.5l-63.3,0l0,-43.5ZM55,354.1l178.8,0l0,42.2L55,396.3l0,-42.2Zm178.8,0l178.7,0l0,42.2l-178.7,0l0,-42.2Zm178.7,0l135.2,0l0,42.2l-135.2,0l0,-42.2Zm135.2,0l66.1,0l0,42.2l-66.1,0l0,-42.2Zm66.1,0l189.2,0l0,42.2l-189.2,0l0,-42.2Zm189.2,0l63.3,0l0,42.2l-63.3,0l0,-42.2ZM55,438.4l178.8,0l0,42.2L55,480.6l0,-42.2Zm178.8,0l178.7,0l0,42.2l-178.7,0l0,-42.2Zm178.7,0l135.2,0l0,42.2l-135.2,0l0,-42.2Zm135.2,0l66.1,0l0,42.2l-66.1,0l0,-42.2Zm66.1,0l189.2,0l0,42.2l-189.2,0l0,-42.2Zm189.2,0l63.3,0l0,42.2l-63.3,0l0,-42.2ZM55,522.7l178.8,0l0,42.2L55,564.9l0,-42.2Zm178.8,0l178.7,0l0,42.2l-178.7,0l0,-42.2Zm178.7,0l135.2,0l0,42.2l-135.2,0l0,-42.2Zm135.2,0l66.1,0l0,42.2l-66.1,0l0,-42.2Zm66.1,0l189.2,0l0,42.2l-189.2,0l0,-42.2Zm189.2,0l63.3,0l0,42.2l-63.3,0l0,-42.2ZM55,608.5l178.8,0l0,42.1L55,650.6l0,-42.1Zm178.8,0l178.7,0l0,42.1l-178.7,0l0,-42.1Zm178.7,0l135.2,0l0,42.1l-135.2,0l0,-42.1Zm135.2,0l66.1,0l0,42.1l-66.1,0l0,-42.1Zm66.1,0l189.2,0l0,42.1l-189.2,0l0,-42.1Zm189.2,0l63.3,0l0,42.1l-63.3,0l0,-42.1ZM55,692.8l178.8,0l0,42.1L55,734.9l0,-42.1Zm178.8,0l178.7,0l0,42.1l-178.7,0l0,-42.1Zm178.7,0l135.2,0l0,42.1l-135.2,0l0,-42.1Zm135.2,0l66.1,0l0,42.1l-66.1,0l0,-42.1Zm66.1,0l189.2,0l0,42.1l-189.2,0l0,-42.1Zm189.2,0l63.3,0l0,42.1l-63.3,0l0,-42.1ZM55,777.1l178.8,0l0,42.2L55,819.3l0,-42.2Zm178.8,0l178.7,0l0,42.2l-178.7,0l0,-42.2Zm178.7,0l135.2,0l0,42.2l-135.2,0l0,-42.2Zm135.2,0l66.1,0l0,42.2l-66.1,0l0,-42.2Zm66.1,0l189.2,0l0,42.2l-189.2,0l0,-42.2Zm189.2,0l63.3,0l0,42.2l-63.3,0l0,-42.2ZM55,861.4l178.8,0l0,42.2L55,903.6l0,-42.2Zm178.8,0l178.7,0l0,42.2l-178.7,0l0,-42.2Zm178.7,0l135.2,0l0,42.2l-135.2,0l0,-42.2Zm135.2,0l66.1,0l0,42.2l-66.1,0l0,-42.2Zm66.1,0l189.2,0l0,42.2l-189.2,0l0,-42.2Zm189.2,0l63.3,0l0,42.2l-63.3,0l0,-42.2ZM55,945.8l178.8,0l0,42.1L55,987.9l0,-42.1Zm178.8,0l178.7,0l0,42.1l-178.7,0l0,-42.1Zm178.7,0l135.2,0l0,42.1l-135.2,0l0,-42.1Zm135.2,0l66.1,0l0,42.1l-66.1,0l0,-42.1Zm66.1,0l189.2,0l0,42.1l-189.2,0l0,-42.1Zm189.2,0l63.3,0l0,42.1l-63.3,0l0,-42.1ZM55,1030.1l178.8,0l0,44.1l-178.8,0l0,-44.1Zm178.8,0l178.7,0l0,44.1l-178.7,0l0,-44.1Zm178.7,0l135.2,0l0,44.1l-135.2,0l0,-44.1Zm135.2,0l66.1,0l0,44.1l-66.1,0l0,-44.1Zm66.1,0l189.2,0l0,44.1l-189.2,0l0,-44.1Zm189.2,0l63.3,0l0,44.1l-63.3,0l0,-44.1Z" class="g1_312" />
<path d="M55,1074.2l178.8,0" class="g2_312" />
<path d="M233.8,1074.2l178.7,0" class="g2_312" />
<path d="M412.5,1074.2l135.2,0" class="g2_312" />
<path d="M547.7,1074.2l66.1,0" class="g2_312" />
<path d="M613.8,1074.2l189.2,0" class="g2_312" />
<path d="M803,1074.2l63.3,0" class="g2_312" />
<path d="M55,99.2l178.8,0" class="g3_312" />
<path d="M233.8,99.2l178.7,0" class="g3_312" />
<path d="M412.5,99.2l135.2,0" class="g3_312" />
<path d="M547.7,99.2l66.1,0" class="g3_312" />
<path d="M613.8,99.2l189.2,0" class="g3_312" />
<path d="M803,99.2l63.3,0" class="g3_312" />
<path d="M55,141.9l178.8,0" class="g4_312" />
<path d="M233.8,141.9l178.7,0" class="g4_312" />
<path d="M412.5,141.9l135.2,0" class="g4_312" />
<path d="M547.7,141.9l66.1,0" class="g4_312" />
<path d="M613.8,141.9l189.2,0" class="g4_312" />
<path d="M803,141.9l63.3,0" class="g4_312" />
<path d="M55,184.1l178.8,0" class="g4_312" />
<path d="M233.8,184.1l178.7,0" class="g4_312" />
<path d="M412.5,184.1l135.2,0" class="g4_312" />
<path d="M547.7,184.1l66.1,0" class="g4_312" />
<path d="M613.8,184.1l189.2,0" class="g4_312" />
<path d="M803,184.1l63.3,0" class="g4_312" />
<path d="M55,226.2l178.8,0" class="g4_312" />
<path d="M233.8,226.2l178.7,0" class="g4_312" />
<path d="M412.5,226.2l135.2,0" class="g4_312" />
<path d="M547.7,226.2l66.1,0" class="g4_312" />
<path d="M613.8,226.2l189.2,0" class="g4_312" />
<path d="M803,226.2l63.3,0" class="g4_312" />
<path d="M55,268.4l178.8,0" class="g4_312" />
<path d="M233.8,268.4l178.7,0" class="g4_312" />
<path d="M412.5,268.4l135.2,0" class="g4_312" />
<path d="M547.7,268.4l66.1,0" class="g4_312" />
<path d="M613.8,268.4l189.2,0" class="g4_312" />
<path d="M803,268.4l63.3,0" class="g4_312" />
<path d="M55,311.9l178.8,0" class="g4_312" />
<path d="M233.8,311.9l178.7,0" class="g4_312" />
<path d="M412.5,311.9l135.2,0" class="g4_312" />
<path d="M547.7,311.9l66.1,0" class="g4_312" />
<path d="M613.8,311.9l189.2,0" class="g4_312" />
<path d="M803,311.9l63.3,0" class="g4_312" />
<path d="M55,354.1l178.8,0" class="g4_312" />
<path d="M233.8,354.1l178.7,0" class="g4_312" />
<path d="M412.5,354.1l135.2,0" class="g4_312" />
<path d="M547.7,354.1l66.1,0" class="g4_312" />
<path d="M613.8,354.1l189.2,0" class="g4_312" />
<path d="M803,354.1l63.3,0" class="g4_312" />
<path d="M55,396.3l178.8,0" class="g4_312" />
<path d="M233.8,396.3l178.7,0" class="g4_312" />
<path d="M412.5,396.3l135.2,0" class="g4_312" />
<path d="M547.7,396.3l66.1,0" class="g4_312" />
<path d="M613.8,396.3l189.2,0" class="g4_312" />
<path d="M803,396.3l63.3,0" class="g4_312" />
<path d="M55,438.4l178.8,0" class="g4_312" />
<path d="M233.8,438.4l178.7,0" class="g4_312" />
<path d="M412.5,438.4l135.2,0" class="g4_312" />
<path d="M547.7,438.4l66.1,0" class="g4_312" />
<path d="M613.8,438.4l189.2,0" class="g4_312" />
<path d="M803,438.4l63.3,0" class="g4_312" />
<path d="M55,480.6l178.8,0" class="g4_312" />
<path d="M233.8,480.6l178.7,0" class="g4_312" />
<path d="M412.5,480.6l135.2,0" class="g4_312" />
<path d="M547.7,480.6l66.1,0" class="g4_312" />
<path d="M613.8,480.6l189.2,0" class="g4_312" />
<path d="M803,480.6l63.3,0" class="g4_312" />
<path d="M55,522.7l178.8,0" class="g4_312" />
<path d="M233.8,522.7l178.7,0" class="g4_312" />
<path d="M412.5,522.7l135.2,0" class="g4_312" />
<path d="M547.7,522.7l66.1,0" class="g4_312" />
<path d="M613.8,522.7l189.2,0" class="g4_312" />
<path d="M803,522.7l63.3,0" class="g4_312" />
<path d="M55,564.9l178.8,0" class="g4_312" />
<path d="M233.8,564.9l178.7,0" class="g4_312" />
<path d="M412.5,564.9l135.2,0" class="g4_312" />
<path d="M547.7,564.9l66.1,0" class="g4_312" />
<path d="M613.8,564.9l189.2,0" class="g4_312" />
<path d="M803,564.9l63.3,0" class="g4_312" />
<path d="M55,608.5l178.8,0" class="g4_312" />
<path d="M233.8,608.5l178.7,0" class="g4_312" />
<path d="M412.5,608.5l135.2,0" class="g4_312" />
<path d="M547.7,608.5l66.1,0" class="g4_312" />
<path d="M613.8,608.5l189.2,0" class="g4_312" />
<path d="M803,608.5l63.3,0" class="g4_312" />
<path d="M55,650.6l178.8,0" class="g4_312" />
<path d="M233.8,650.6l178.7,0" class="g4_312" />
<path d="M412.5,650.6l135.2,0" class="g4_312" />
<path d="M547.7,650.6l66.1,0" class="g4_312" />
<path d="M613.8,650.6l189.2,0" class="g4_312" />
<path d="M803,650.6l63.3,0" class="g4_312" />
<path d="M55,692.8l178.8,0" class="g4_312" />
<path d="M233.8,692.8l178.7,0" class="g4_312" />
<path d="M412.5,692.8l135.2,0" class="g4_312" />
<path d="M547.7,692.8l66.1,0" class="g4_312" />
<path d="M613.8,692.8l189.2,0" class="g4_312" />
<path d="M803,692.8l63.3,0" class="g4_312" />
<path d="M55,734.9l178.8,0" class="g4_312" />
<path d="M233.8,734.9l178.7,0" class="g4_312" />
<path d="M412.5,734.9l135.2,0" class="g4_312" />
<path d="M547.7,734.9l66.1,0" class="g4_312" />
<path d="M613.8,734.9l189.2,0" class="g4_312" />
<path d="M803,734.9l63.3,0" class="g4_312" />
<path d="M55,777.1l178.8,0" class="g4_312" />
<path d="M233.8,777.1l178.7,0" class="g4_312" />
<path d="M412.5,777.1l135.2,0" class="g4_312" />
<path d="M547.7,777.1l66.1,0" class="g4_312" />
<path d="M613.8,777.1l189.2,0" class="g4_312" />
<path d="M803,777.1l63.3,0" class="g4_312" />
<path d="M55,819.3l178.8,0" class="g4_312" />
<path d="M233.8,819.3l178.7,0" class="g4_312" />
<path d="M412.5,819.3l135.2,0" class="g4_312" />
<path d="M547.7,819.3l66.1,0" class="g4_312" />
<path d="M613.8,819.3l189.2,0" class="g4_312" />
<path d="M803,819.3l63.3,0" class="g4_312" />
<path d="M55,861.4l178.8,0" class="g4_312" />
<path d="M233.8,861.4l178.7,0" class="g4_312" />
<path d="M412.5,861.4l135.2,0" class="g4_312" />
<path d="M547.7,861.4l66.1,0" class="g4_312" />
<path d="M613.8,861.4l189.2,0" class="g4_312" />
<path d="M803,861.4l63.3,0" class="g4_312" />
<path d="M55,903.6l178.8,0" class="g4_312" />
<path d="M233.8,903.6l178.7,0" class="g4_312" />
<path d="M412.5,903.6l135.2,0" class="g4_312" />
<path d="M547.7,903.6l66.1,0" class="g4_312" />
<path d="M613.8,903.6l189.2,0" class="g4_312" />
<path d="M803,903.6l63.3,0" class="g4_312" />
<path d="M55,945.8l178.8,0" class="g4_312" />
<path d="M233.8,945.8l178.7,0" class="g4_312" />
<path d="M412.5,945.8l135.2,0" class="g4_312" />
<path d="M547.7,945.8l66.1,0" class="g4_312" />
<path d="M613.8,945.8l189.2,0" class="g4_312" />
<path d="M803,945.8l63.3,0" class="g4_312" />
<path d="M55,987.9l178.8,0" class="g4_312" />
<path d="M233.8,987.9l178.7,0" class="g4_312" />
<path d="M412.5,987.9l135.2,0" class="g4_312" />
<path d="M547.7,987.9l66.1,0" class="g4_312" />
<path d="M613.8,987.9l189.2,0" class="g4_312" />
<path d="M803,987.9l63.3,0" class="g4_312" />
<path d="M55,1030.1l178.8,0" class="g4_312" />
<path d="M233.8,1030.1l178.7,0" class="g4_312" />
<path d="M412.5,1030.1l135.2,0" class="g4_312" />
<path d="M547.7,1030.1l66.1,0" class="g4_312" />
<path d="M613.8,1030.1l189.2,0" class="g4_312" />
<path d="M803,1030.1l63.3,0" class="g4_312" />
<text 
x="61" 
y="83" 
dx="0,0,0,0,0,0,0,0,0,0" 
class="s1_312"
>Simplified</text>

<text 
x="239" 
y="83" 
dx="0,-1,0,0,0,0,0,0,0,0,0" 
class="s1_312"
>Traditional</text>

<text 
x="418" 
y="83" 
dx="0,0,0,0,0,0" 
class="s1_312"
>Pinyin</text>

<text 
x="553" 
y="73" 
dx="0,-0.3,0,0,0,0,0,0" 
class="s1_312"
>Part of </text>

<text 
x="553" 
y="93" 
dx="0,0,0,0,0,0" 
class="s1_312"
>Speech</text>

<text 
x="619" 
y="83" 
dx="0,0,0,0,0,0,0,0,0,0" 
class="s1_312"
>Definition</text>

<text 
x="809" 
y="83" 
dx="0,-0.2,0,0,0,0" 
class="s1_312"
>Lesson</text>

<text 
x="61" 
y="129" 
dx="0,0" 
class="s2_312"
>大小</text>

<text 
x="418" 
y="126" 
dx="0,0,0,0,0,0" 
class="s3_312"
>dàxiǎo</text>

<text 
x="553" 
y="126" 
dx="0" 
class="s4_312"
>n</text>

<text 
x="619" 
y="126" 
dx="0,0,0,0" 
class="s5_312"
>size</text>

<text 
x="809" 
y="126" 
dx="0" 
class="s6_312"
>9</text>

<text 
x="61" 
y="171" 
dx="0,0,0" 
class="s2_312"
>大学生</text>

<text 
x="239" 
y="171" 
dx="0,0,0" 
class="s7_312"
>大學生</text>

<text 
x="418" 
y="168" 
dx="0,0,0,0,0,0,0,0,0,0" 
class="s3_312"
>dàxuéshēng</text>

<text 
x="553" 
y="169" 
dx="0" 
class="s4_312"
>n</text>

<text 
x="619" 
y="168" 
dx="0,0,0,0,0,0,0,0,0,0,0,0,0,0,0" 
class="s5_312"
>college student</text>

<text 
x="809" 
y="169" 
dx="0" 
class="s6_312"
>2</text>

<text 
x="61" 
y="213" 
dx="0,0" 
class="s2_312"
>但是</text>

<text 
x="418" 
y="211" 
dx="0,0,0,0,0,0" 
class="s3_312"
>dànshì</text>

<text 
x="553" 
y="211" 
dx="0,0,0,0" 
class="s4_312"
>conj</text>

<text 
x="619" 
y="210" 
dx="0,0,0" 
class="s5_312"
>but</text>

<text 
x="809" 
y="211" 
dx="0" 
class="s6_312"
>6</text>

<text 
x="61" 
y="256" 
dx="0" 
class="s2_312"
>到</text>

<text 
x="418" 
y="253" 
dx="0,0,0" 
class="s3_312"
>dào</text>

<text 
x="553" 
y="253" 
dx="0" 
class="s4_312"
>v</text>

<text 
x="619" 
y="253" 
dx="0,0,0,0,0,0,0,0,-0.1,0,0,0,0,0,0,0,0,0,0" 
class="s5_312"
>to go to, to arrive</text>

<text 
x="809" 
y="253" 
dx="0,0" 
class="s6_312"
>6 </text>

<text 
x="61" 
y="298" 
dx="0" 
class="s2_312"
>的</text>

<text 
x="418" 
y="296" 
dx="0,0" 
class="s3_312"
>de</text>

<text 
x="553" 
y="296" 
dx="0" 
class="s4_312"
>p</text>

<text 
x="619" 
y="285" 
dx="0,0,0,0,0,0,0,0,0,0,0,0,0,0,0,0,0" 
class="s5_312"
>(a possessive or </text>

<text 
x="619" 
y="305" 
dx="0,0,0,0,0,0,0,0,0,0,0,0,0,0,0,0,0,0,0,0,0" 
class="s5_312"
>descriptive particle)</text>

<text 
x="809" 
y="296" 
dx="0" 
class="s6_312"
>2</text>

<text 
x="61" 
y="341" 
dx="0" 
class="s2_312"
>得</text>

<text 
x="418" 
y="338" 
dx="0,0" 
class="s3_312"
>de</text>

<text 
x="553" 
y="339" 
dx="0" 
class="s4_312"
>p</text>

<text 
x="619" 
y="338" 
dx="0,0,0,0,0,0,0,0,0,0,0,0,0,0,0,0,0,0,0,0,0,0,0" 
class="s5_312"
>(a structural particle)</text>

<text 
x="809" 
y="339" 
dx="0" 
class="s6_312"
>7</text>

<text 
x="61" 
y="383" 
dx="0" 
class="s2_312"
>得</text>

<text 
x="418" 
y="381" 
dx="0,0,0" 
class="s3_312"
>děi</text>

<text 
x="553" 
y="381" 
dx="0,0" 
class="s4_312"
>av</text>

<text 
x="619" 
y="380" 
dx="0,0,0,0,0,0,0,0,0,0,0,0,0,0,0,0" 
class="s5_312"
>must, to have to</text>

<text 
x="809" 
y="381" 
dx="0" 
class="s6_312"
>6</text>

<text 
x="61" 
y="426" 
dx="0" 
class="s2_312"
>等</text>

<text 
x="418" 
y="423" 
dx="0,0,0,0" 
class="s3_312"
>děng</text>

<text 
x="553" 
y="423" 
dx="0" 
class="s4_312"
>v</text>

<text 
x="619" 
y="423" 
dx="0,0,0,0,0,0,0,0,0,0,0,0,0,0,0,0,0,0,0,0" 
class="s5_312"
>to wait, to wait for</text>

<text 
x="809" 
y="423" 
dx="0" 
class="s6_312"
>6</text>

<text 
x="61" 
y="468" 
dx="0" 
class="s2_312"
>第</text>

<text 
x="418" 
y="465" 
dx="0,0" 
class="s3_312"
>dì</text>

<text 
x="553" 
y="465" 
dx="0,0,0,0,0,0" 
class="s4_312"
>prefix</text>

<text 
x="619" 
y="465" 
dx="0,0,0,0,0,0,0,0,0,0,0,0,0,0,0,0,0,0,0,0,0,0,0,0,0,0,0,0" 
class="s5_312"
>(prefix for ordinal numbers)</text>

<text 
x="809" 
y="465" 
dx="0" 
class="s6_312"
>7</text>

<text 
x="61" 
y="510" 
dx="0,0" 
class="s2_312"
>弟弟</text>

<text 
x="418" 
y="507" 
dx="0,0,0,0" 
class="s3_312"
>dìdi</text>

<text 
x="553" 
y="507" 
dx="0" 
class="s4_312"
>n</text>

<text 
x="619" 
y="507" 
dx="0,0,0,0,0,0,0,0,0,0,0,0,0,0,0" 
class="s5_312"
>younger brother</text>

<text 
x="809" 
y="507" 
dx="0" 
class="s6_312"
>2</text>

<text 
x="61" 
y="552" 
dx="0,0" 
class="s2_312"
>地铁</text>

<text 
x="239" 
y="552" 
dx="0,0" 
class="s7_312"
>地鐵</text>

<text 
x="418" 
y="549" 
dx="0,0,0,0,0" 
class="s3_312"
>dìtiě</text>

<text 
x="553" 
y="549" 
dx="0" 
class="s4_312"
>n</text>

<text 
x="619" 
y="549" 
dx="0,0,0,0,0,0" 
class="s5_312"
>subway</text>

<text 
x="809" 
y="549" 
dx="0,0" 
class="s6_312"
>10</text>

<text 
x="61" 
y="595" 
dx="0,0" 
class="s2_312"
>点 </text>

<text 
x="239" 
y="595" 
dx="0" 
class="s7_312"
>點</text>

<text 
x="418" 
y="592" 
dx="0,0,0,0" 
class="s3_312"
>diǎn</text>

<text 
x="553" 
y="592" 
dx="0" 
class="s4_312"
>m</text>

<text 
x="619" 
y="582" 
dx="0,-0.1,0,0,0,0,0,0,0,0,0,0,0,0,0,0,0,0,0,0,0,0,0,0,0,0,0,0,0,0,0" 
class="s5_312"
>o’clock (lit. dot, point, thus </text>

<text 
x="619" 
y="602" 
dx="0,0,0,0,0,0,0,0,0,0,0,0,0,0,0,0,0,0,0,0,0,0" 
class="s5_312"
>“points on the clock”)</text>

<text 
x="809" 
y="592" 
dx="0" 
class="s6_312"
>3</text>

<text 
x="61" 
y="638" 
dx="0,0,0,0" 
class="s2_312"
>点（儿）</text>

<text 
x="239" 
y="638" 
dx="0,0,0,0" 
class="s7_312"
>點（兒）</text>

<text 
x="418" 
y="635" 
dx="0,0,0,0,0,0,0" 
class="s3_312"
>diǎn(r)</text>

<text 
x="553" 
y="635" 
dx="0" 
class="s4_312"
>m</text>

<text 
x="619" 
y="635" 
dx="0,0,0,0,0,0,0,0,-0.1,0,0,0,0,0,0,0,0,0,0,0,0" 
class="s5_312"
>a little, a bit, some</text>

<text 
x="809" 
y="635" 
dx="0,0" 
class="s6_312"
>5 </text>

<text 
x="61" 
y="680" 
dx="0,0" 
class="s2_312"
>电脑</text>

<text 
x="239" 
y="680" 
dx="0,0" 
class="s7_312"
>電腦</text>

<text 
x="418" 
y="677" 
dx="0,0,0,0,0,0,0" 
class="s3_312"
>diànnǎo</text>

<text 
x="553" 
y="677" 
dx="0" 
class="s4_312"
>n</text>

<text 
x="619" 
y="677" 
dx="0,0,0,0,0,0,0,0" 
class="s5_312"
>computer</text>

<text 
x="809" 
y="677" 
dx="0" 
class="s6_312"
>8</text>

<text 
x="61" 
y="722" 
dx="0,0" 
class="s2_312"
>电视</text>

<text 
x="239" 
y="722" 
dx="0,0" 
class="s7_312"
>電視</text>

<text 
x="418" 
y="719" 
dx="0,0,0,0,0,0,0" 
class="s3_312"
>diànshì</text>

<text 
x="553" 
y="719" 
dx="0" 
class="s4_312"
>n</text>

<text 
x="619" 
y="719" 
dx="0,0,0,0,0,0,0,0,0,0" 
class="s5_312"
>television</text>

<text 
x="809" 
y="719" 
dx="0" 
class="s6_312"
>4</text>

<text 
x="61" 
y="764" 
dx="0,0" 
class="s2_312"
>电影</text>

<text 
x="239" 
y="764" 
dx="0,0" 
class="s7_312"
>電影</text>

<text 
x="418" 
y="761" 
dx="0,0,0,0,0,0,0,0" 
class="s3_312"
>diànyǐng</text>

<text 
x="553" 
y="762" 
dx="0" 
class="s4_312"
>n</text>

<text 
x="619" 
y="761" 
dx="0,0,0,0,0" 
class="s5_312"
>movie</text>

<text 
x="809" 
y="762" 
dx="0" 
class="s6_312"
>4</text>

<text 
x="61" 
y="806" 
dx="0,0,0,0" 
class="s2_312"
>电子邮件</text>

<text 
x="239" 
y="806" 
dx="0,0,0,0" 
class="s7_312"
>電子郵件</text>

<text 
x="418" 
y="804" 
dx="0,0,0,0,0,0,0,0,0,0,0,0,0,0" 
class="s3_312"
>diànzǐ yóujiàn</text>

<text 
x="553" 
y="804" 
dx="0" 
class="s4_312"
>n</text>

<text 
x="619" 
y="803" 
dx="0,0,0,0,0,0,0,0,0,0,0,0,0,0,0,0,0,0,0,0,0" 
class="s5_312"
>email/electronic mail</text>

<text 
x="809" 
y="804" 
dx="0,0" 
class="s6_312"
>10</text>

<text 
x="61" 
y="849" 
dx="0,0" 
class="s2_312"
>东西</text>

<text 
x="239" 
y="849" 
dx="0,0" 
class="s7_312"
>東西</text>

<text 
x="418" 
y="846" 
dx="0,0,0,0,0,0" 
class="s3_312"
>dōngxi</text>

<text 
x="553" 
y="846" 
dx="0" 
class="s4_312"
>n</text>

<text 
x="619" 
y="846" 
dx="0,0,0,0,0,0,0,0,0,0,0,0,0,0,0" 
class="s5_312"
>things, objects</text>

<text 
x="809" 
y="846" 
dx="0" 
class="s6_312"
>9</text>

<text 
x="61" 
y="891" 
dx="0" 
class="s2_312"
>懂</text>

<text 
x="239" 
y="891" 
dx="0" 
class="s7_312"
>懂</text>

<text 
x="418" 
y="888" 
dx="0,0,0,0" 
class="s3_312"
>dǒng</text>

<text 
x="553" 
y="888" 
dx="0" 
class="s4_312"
>v</text>

<text 
x="619" 
y="888" 
dx="0,0,0,0,0,0,0,0,0,0,0,0,0" 
class="s5_312"
>to understand</text>

<text 
x="809" 
y="888" 
dx="0" 
class="s6_312"
>7</text>

<text 
x="61" 
y="933" 
dx="0" 
class="s2_312"
>都</text>

<text 
x="418" 
y="930" 
dx="0,0,0" 
class="s3_312"
>dōu</text>

<text 
x="553" 
y="930" 
dx="0,0,0" 
class="s4_312"
>adv</text>

<text 
x="619" 
y="930" 
dx="0,0,0,0,0,0,0,0,0" 
class="s5_312"
>both, all</text>

<text 
x="809" 
y="930" 
dx="0" 
class="s6_312"
>2</text>

<text 
x="61" 
y="975" 
dx="0" 
class="s2_312"
>对</text>

<text 
x="239" 
y="975" 
dx="0" 
class="s7_312"
>對</text>

<text 
x="418" 
y="972" 
dx="0,0,0" 
class="s3_312"
>duì</text>

<text 
x="553" 
y="972" 
dx="0,0,0" 
class="s4_312"
>adj</text>

<text 
x="619" 
y="972" 
dx="0,0,0,0,0,0,0,0,0,0,0,0,0,0" 
class="s5_312"
>right, correct</text>

<text 
x="809" 
y="972" 
dx="0" 
class="s6_312"
>4</text>

<text 
x="61" 
y="1017" 
dx="0,0,0" 
class="s2_312"
>对不起</text>

<text 
x="239" 
y="1017" 
dx="0,0,0" 
class="s7_312"
>對不起</text>

<text 
x="418" 
y="1014" 
dx="0,0,0,0,0,0,0" 
class="s3_312"
>duìbuqǐ</text>

<text 
x="553" 
y="1015" 
dx="0" 
class="s4_312"
>v</text>

<text 
x="619" 
y="1014" 
dx="0,0,0,0,0" 
class="s5_312"
>sorry</text>

<text 
x="809" 
y="1015" 
dx="0" 
class="s6_312"
>5</text>

<text 
x="61" 
y="1060" 
dx="0" 
class="s2_312"
>多</text>

<text 
x="418" 
y="1057" 
dx="0,0,0" 
class="s3_312"
>duō</text>

<text 
x="553" 
y="1057" 
dx="0,0,0" 
class="s4_312"
>adv</text>

<text 
x="619" 
y="1047" 
dx="0,0,0,0,0,0,0,0,0,0,0,0,0,0,0" 
class="s5_312"
>how many/much, </text>

<text 
x="619" 
y="1067" 
dx="0,0,0,0,0,0,0,0,0,-0.4,0,0,0,0" 
class="s5_312"
>to what extent</text>

<text 
x="809" 
y="1057" 
dx="0" 
class="s6_312"
>3</text>

<path d="M885.3,1213.8l65,0l0,-1229.7l-65,0l0,1229.7Z" class="g5_312" />
<text 
transform="matrix(0, 1, -1, 0, 894, 943)"
dx="0,-0.3,0.3,0.3,0.3,0.3,0.3,0.3,0.3,0.3,0.3,0.3,0.3,0.3,0.3,-0.1,0.3,0.3,0.3,0.3,0.3,0.3,0.3,0.3,0.3,0.3,0.3,0.3,0.3,0.3,0.3,0.3,0.3,0.3,0.3" 
class="s8_312"
>Vocabulary Index (Chinese-English) </text>

<text 
transform="matrix(0, 1, -1, 0, 894, 1154)"
dx="0,0.3,0.3" 
class="s8_312"
>291</text>



<!-- Any embedded fonts defined here -->
<style type="text/css" ><![CDATA[

@font-face {
	font-family: Marion-Italic_2si;
	src: url("fonts/Marion-Italic_2si.woff") format("woff");
}

@font-face {
	font-family: ProximaNova-Light_372;
	src: url("fonts/ProximaNova-Light_372.woff") format("woff");
}

@font-face {
	font-family: ProximaNova-Semibold_376;
	src: url("fonts/ProximaNova-Semibold_376.woff") format("woff");
}

@font-face {
	font-family: ProximaNova-Bold_378;
	src: url("fonts/ProximaNova-Bold_378.woff") format("woff");
}

@font-face {
	font-family: STKaiTi-TC-Regular_371;
	src: url("fonts/STKaiTi-TC-Regular_371.woff") format("woff");
}

@font-face {
	font-family: ProximaNova-Regular_377;
	src: url("fonts/ProximaNova-Regular_377.woff") format("woff");
}

@font-face {
	font-family: STKaiti-SC-Regular_2t7;
	src: url("fonts/STKaiti-SC-Regular_2t7.woff") format("woff");
}

]]></style>

</svg>
