<?xml version="1.0" encoding="UTF-8" standalone="no"?>
<!DOCTYPE svg PUBLIC "-//W3C//DTD SVG 1.1//EN"
"http://www.w3.org/Graphics/SVG/1.1/DTD/svg11.dtd">


<!-- Page 241 -->
<svg x="0" y="0" width="921" height="1196" viewBox="0 0 921 1196" version="1.1" xmlns="http://www.w3.org/2000/svg" xmlns:xlink="http://www.w3.org/1999/xlink"
style="display: block;margin-left: auto;margin-right: auto;">
<defs>
<clipPath id="c0_241"><path d="M0,1196.3L0,0L921.3,0l0,1196.3Z" /></clipPath>

<style type="text/css"><![CDATA[

.g1_241{
fill: none;
stroke: #DC262E;
stroke-width: 0.6248611;
stroke-linecap: butt;
stroke-linejoin: miter;
}
.g2_241{
fill: none;
stroke: #DC262E;
stroke-width: 1.8730555;
stroke-linecap: butt;
stroke-linejoin: miter;
}
.g3_241{
fill: none;
stroke: #007598;
stroke-width: 1.5277778;
stroke-linecap: butt;
stroke-linejoin: miter;
}
.g4_241{
fill: none;
stroke: #DC262E;
stroke-width: 1.5277778;
stroke-linecap: butt;
stroke-linejoin: miter;
}
.g5_241{
fill: #D1D2D4;
}
.g6_241{
fill: none;
stroke: #D1D2D4;
stroke-width: 3.0555556;
stroke-linecap: butt;
stroke-linejoin: miter;
stroke-miterlimit: 4;
}
.g7_241{
fill: #DC262E;
}
.g8_241{
fill: none;
stroke: #B2B3B7;
stroke-width: 1.5277778;
stroke-linecap: butt;
stroke-linejoin: miter;
stroke-miterlimit: 4;
}

.s1_241{
font-size: 50.42px;
font-family: MuseoSlab-300_32-;
fill: #3F3F40;
}
.s2_241{
font-size: 35.14px;
font-family: ProximaNova-Extrabld_32x;
fill: #DC262E;
}
.s3_241{
font-size: 24.44px;
font-family: STKaiti-SC-Regular_2t7;
fill: #3F3F40;
}
.s4_241{
font-size: 33.61px;
font-family: STKaiti-SC-Regular_2t7;
fill: #3F3F40;
}
.s5_241{
font-size: 33.61px;
font-family: STKaiti-SC-Bold_2sb;
fill: #007598;
}
.s6_241{
font-size: 14.25px;
font-family: ProximaNova-Extrabld_32x;
fill: #007598;
}
.s7_241{
font-size: 33.61px;
font-family: STKaiti-SC-Bold_2sb;
fill: #DC262E;
}
.s8_241{
font-size: 15.14px;
font-family: ProximaNova-Extrabld_32x;
fill: #DC262E;
}
.s9_241{
font-size: 11.46px;
font-family: ProximaNova-Semibold_32_;
fill: #FFFFFF;
}

]]></style>

</defs>
<path d="M0,0
L0,1196
L921,1196
L921,0 Z " 
fill="#FFFFFF" stroke="none" />
<path d="M0,197.5l138.1,0" class="g1_241" />
<path d="M0,200l138.1,0" class="g2_241" />
<path d="M260.8,446.3l9,0" class="g3_241" />
<path d="M600.3,501.3l8.9,0" class="g3_241" />
<path d="M736.1,610.8l8.5,0" class="g4_241" />
<path d="M600.3,666.3l15.5,0" class="g3_241" />
<path d="M794.3,665.8l9.1,0" class="g4_241" />
<path d="M702.1,776.3l9,0" class="g3_241" />
<text 
x="252" 
y="84" 
dx="0,-1.5,-0.5,-0.8,-0.5,-0.5,-0.5,-0.5,-0.5,-0.5,-0.5,-0.5,-0.5,-0.5,-1.9,-0.5,-0.7,-0.5,-0.5" 
class="s1_241"
>Writing to a Friend</text>

<text 
x="41" 
y="187" 
dx="0,0.2,0.4,0.4,0.4,0.4" 
class="s2_241"
>Letter</text>

<text 
x="226" 
y="199" 
dx="0,0,0" 
class="s3_241"
>一封信</text>

<text 
x="226" 
y="235" 
dx="0,0,0,0,0,0,0,0,0,0,0,0,0" 
class="s3_241"
>这是李友给高小音的一封信。</text>

<text 
x="226" 
y="304" 
dx="0,0.3,0.3" 
class="s4_241"
>小音：</text>

<text 
x="299" 
y="359" 
dx="0,0.3,0.3,0.3,0.3,0.3,0.3,0.3,0.3,0.3,0.3,0.3,0.3,0.3" 
class="s4_241"
>你好！好久不见，最近怎么样？</text>

<text 
x="299" 
y="414" 
dx="0,0.3,0.3,0.3,0.3,0.3,0.3,0.3" 
class="s4_241"
>这个学期我很忙，</text>

<text 
x="571" 
y="414" 
dx="0,0.3" 
class="s5_241"
>除了</text>

<text 
x="638" 
y="414" 
dx="0,0.3,0.3" 
class="s4_241"
>专业课</text>

<text 
x="740" 
y="414" 
dx="0,0.3,0.3" 
class="s5_241"
>以外，</text>

<text 
x="226" 
y="469" 
dx="0" 
class="s5_241"
>还</text>

<text 
x="260" 
y="443" 
dx="0" 
class="s6_241"
>8</text>

<text 
x="269" 
y="469" 
dx="0,0.3,0.3,0.3,0.3,0.3,0.3,0.3,0.3,0.3,0.3,0.3,0.3,0.3,0.3,0.3" 
class="s4_241"
>得学中文。我们的中文课很有意思。</text>

<text 
x="226" 
y="524" 
dx="0,0.3,0.3,0.3,0.3,0.3,0.3,0.3,0.3,0.3" 
class="s4_241"
>因为我们的中文老师只</text>

<text 
x="566" 
y="524" 
dx="0" 
class="s5_241"
>会</text>

<text 
x="600" 
y="498" 
dx="0" 
class="s6_241"
>9</text>

<text 
x="609" 
y="524" 
dx="0,0.3,0.3,0.3,0.3,0.3" 
class="s4_241"
>说中文，不会</text>

<text 
x="226" 
y="579" 
dx="0,0.3,0.3,0.3,0.3,0.3,0.3,0.3,0.3,0.3,0.3,0.3,0.3,0.3,0.3,0.3,0.3,0.3" 
class="s4_241"
>说英文，所以上课的时候我们只说中文，</text>

<text 
x="226" 
y="634" 
dx="0,0.3,0.3,0.3,0.3,0.3,0.3,0.3,0.3,0.3,0.3,0.3,0.3" 
class="s4_241"
>不说英文。开始我觉得很难，</text>

<text 
x="668" 
y="634" 
dx="0,0.3" 
class="s7_241"
>后来</text>

<text 
x="736" 
y="607" 
dx="0" 
class="s8_241"
>a</text>

<text 
x="744" 
y="634" 
dx="0,0.3" 
class="s4_241"
>，王</text>

<text 
x="226" 
y="689" 
dx="0,0.3,0.3,0.3,0.3,0.3,0.3,0.3,0.3,0.3" 
class="s4_241"
>朋常常帮我练习中文，</text>

<text 
x="566" 
y="689" 
dx="0" 
class="s5_241"
>就</text>

<text 
x="600" 
y="663" 
dx="0,0.1" 
class="s6_241"
>10</text>

<text 
x="624" 
y="689" 
dx="0,0.3,0.3,0.3" 
class="s4_241"
>觉得不难</text>

<text 
x="760" 
y="689" 
dx="0" 
class="s7_241"
>了</text>

<text 
x="794" 
y="662" 
dx="0" 
class="s8_241"
>b</text>

<text 
x="803" 
y="689" 
dx="0" 
class="s4_241"
>。</text>

<text 
x="299" 
y="744" 
dx="0,0.3,0.3,0.3,0.3,0.3,0.3,0.3,0.3,0.3,0.3,0.3,0.3,0.3,0.3" 
class="s4_241"
>你喜欢听音乐吗？下个星期六，我</text>

<text 
x="226" 
y="799" 
dx="0,0.3,0.3,0.3,0.3,0.3,0.3,0.3,0.3,0.3,0.3,0.3,0.3" 
class="s4_241"
>们学校有一个音乐会，希望你</text>

<text 
x="668" 
y="799" 
dx="0" 
class="s5_241"
>能</text>

<text 
x="702" 
y="773" 
dx="0" 
class="s6_241"
>9</text>

<text 
x="711" 
y="799" 
dx="0,0.3,0.3" 
class="s4_241"
>来。我</text>

<text 
x="226" 
y="854" 
dx="0,0.3,0.3,0.3,0.3,0.3,0.3,0.3,0.3,0.3,0.3,0.3,0.3,0.3,0.3,0.3,0.3" 
class="s4_241"
>用中文写信写得很不好，请别笑我。祝</text>

<text 
x="226" 
y="909" 
dx="0,0.3" 
class="s4_241"
>好!</text>

<text 
x="692" 
y="979" 
dx="0,0.3,0.3,0.3" 
class="s4_241"
>你的朋友</text>

<text 
x="760" 
y="1034" 
dx="0,0.3" 
class="s4_241"
>李友</text>

<text 
x="624" 
y="1089" 
dx="0,0.3,0.3,0.3,0.3,0.3" 
class="s4_241"
>十一月十八日</text>

<path d="M27.7,34.5l893.6,0l0,-11.4l-893.6,0l0,11.4Z" class="g5_241" />
<path d="M28.3,105.3l893,0" class="g6_241" />
<path d="M0,1196.3l35.9,0L35.9,0L0,0L0,1196.3Z" class="g7_241" />
<g clip-path="url(#c0_241)">
<path d="M-15.9,1209.2l51.8,0l0,-1222.1l-51.8,0l0,1222.1Z" class="g8_241" />
</g>
<text 
transform="matrix(0, -1, 1, 0, 26, 1173)"
dx="0,0.3,0.3,0.3" 
class="s9_241"
>220 </text>

<text 
transform="matrix(0, -1, 1, 0, 26, 1141)"
dx="0,0.3,0.3,0.3,0.3,0.3,0.3,0.3,0.3,0.3,0.3,0.3,0.3,0.3,0.3,0.3,0.3,0.3,0.3,0.3,0.3" 
class="s9_241"
>Integrated Chinese 1 </text>

<text 
transform="matrix(0, -1, 1, 0, 26, 1020)"
dx="0,0.3" 
class="s9_241"
>| </text>

<text 
transform="matrix(0, -1, 1, 0, 26, 1007)"
dx="0,-0.9,-0.1,0.3,0.3,0.3,0.3,0.3" 
class="s9_241"
>Textbook</text>



<!-- Any embedded fonts defined here -->
<style type="text/css" ><![CDATA[

@font-face {
	font-family: ProximaNova-Extrabld_32x;
	src: url("fonts/ProximaNova-Extrabld_32x.woff") format("woff");
}

@font-face {
	font-family: ProximaNova-Semibold_32_;
	src: url("fonts/ProximaNova-Semibold_32_.woff") format("woff");
}

@font-face {
	font-family: STKaiti-SC-Bold_2sb;
	src: url("fonts/STKaiti-SC-Bold_2sb.woff") format("woff");
}

@font-face {
	font-family: MuseoSlab-300_32-;
	src: url("fonts/MuseoSlab-300_32-.woff") format("woff");
}

@font-face {
	font-family: STKaiti-SC-Regular_2t7;
	src: url("fonts/STKaiti-SC-Regular_2t7.woff") format("woff");
}

]]></style>

</svg>
