<?xml version="1.0" encoding="UTF-8" standalone="no"?>
<!DOCTYPE svg PUBLIC "-//W3C//DTD SVG 1.1//EN"
"http://www.w3.org/Graphics/SVG/1.1/DTD/svg11.dtd">


<!-- Page 349 -->
<svg x="0" y="0" width="921" height="1196" viewBox="0 0 921 1196" version="1.1" xmlns="http://www.w3.org/2000/svg" xmlns:xlink="http://www.w3.org/1999/xlink"
style="display: block;margin-left: auto;margin-right: auto;">
<defs>

<style type="text/css"><![CDATA[

.g1_349{
fill: none;
stroke: #BDBEC1;
stroke-width: 1.1458334;
stroke-linecap: butt;
stroke-linejoin: miter;
stroke-miterlimit: 4;
}
.g2_349{
fill: #FFFFFF;
}
.g3_349{
fill: none;
stroke: #57585A;
stroke-width: 1.5277778;
stroke-linecap: butt;
stroke-linejoin: miter;
stroke-miterlimit: 4;
}
.g4_349{
fill: none;
stroke: #57585A;
stroke-width: 0.5102778;
stroke-linecap: butt;
stroke-linejoin: miter;
stroke-miterlimit: 4;
}
.g5_349{
fill: #57585A;
stroke: #B2B3B7;
stroke-width: 1.5277778;
stroke-linecap: butt;
stroke-linejoin: miter;
stroke-miterlimit: 4;
}

.s1_349{
font-size: 21.39px;
font-family: ProximaNova-Extrabld_37f;
fill: #909295;
}
.s2_349{
font-size: 15.28px;
font-family: ProximaNova-Bold_378;
fill: #3F3F40;
}
.s3_349{
font-size: 24.44px;
font-family: STKaiti-SC-Regular_2t7;
fill: #3F3F40;
}
.s4_349{
font-size: 15.28px;
font-family: ProximaNova-Semibold_376;
fill: #77787B;
}
.s5_349{
font-size: 11.46px;
font-family: ProximaNova-Semibold_376;
fill: #FFFFFF;
}

]]></style>

</defs>
<path d="M0,0
L0,1196
L921,1196
L921,0 Z " 
fill="#FFFFFF" stroke="none" />
<text 
x="119" 
y="361" 
dx="0,-0.1,0,0,0,0,0,0,0" 
class="s1_349"
>Lesson 10</text>

<text 
x="335" 
y="72" 
dx="0,0,0,0,0,0" 
class="s2_349"
>Noun: </text>

<text 
x="480" 
y="72" 
dx="0,0,0,0,0,0,0,0,0,0,0,0,0" 
class="s3_349"
>鞋，大小，咖啡色，样子，信</text>

<text 
x="480" 
y="100" 
dx="0,0" 
class="s3_349"
>用卡</text>

<text 
x="335" 
y="127" 
dx="0,0,0,0,0,0,0,0,0,-0.6,0,0,0" 
class="s2_349"
>Measure Word:</text>

<text 
x="480" 
y="127" 
dx="0,0,0" 
class="s3_349"
>双，种</text>

<text 
x="335" 
y="155" 
dx="0,0,0,0,0,0,0,0" 
class="s2_349"
>Pronoun:</text>

<text 
x="480" 
y="155" 
dx="0,0,0,0" 
class="s3_349"
>它，这儿</text>

<text 
x="335" 
y="182" 
dx="0,-0.9,0,0,0" 
class="s2_349"
>Verb:</text>

<text 
x="480" 
y="182" 
dx="0,0,0,0,0,0,0,0,0" 
class="s3_349"
>换，刷卡，收，付钱</text>

<text 
x="335" 
y="210" 
dx="0,0,0,0,0,0,0,0,0,0" 
class="s2_349"
>Adjective:</text>

<text 
x="480" 
y="210" 
dx="0,0,0,0" 
class="s3_349"
>一样，黑</text>

<text 
x="335" 
y="237" 
dx="0,0,0,0,0,0,0,0" 
class="s2_349"
>Adverb: </text>

<text 
x="480" 
y="237" 
dx="0,0,0" 
class="s3_349"
>挺，再</text>

<text 
x="335" 
y="265" 
dx="0,0,0,0,0,0,0,0,0,0,0,0" 
class="s2_349"
>Conjunction:</text>

<text 
x="480" 
y="265" 
dx="0,0,0,0,0" 
class="s3_349"
>虽然，不过</text>

<text 
x="335" 
y="347" 
dx="0,0,0,0,0,0" 
class="s2_349"
>Noun: </text>

<text 
x="480" 
y="347" 
dx="0,0,0,0,0,0,0,0,0,0,0,0" 
class="s3_349"
>寒假，飞机，票，（飞）机</text>

<text 
x="480" 
y="375" 
dx="0,0,0,0,0,0,0,0,0,0,0,0,0,0" 
class="s3_349"
>场，公共汽车，地铁， 路， </text>

<text 
x="480" 
y="402" 
dx="0,0,0,0,0,0" 
class="s3_349"
>线，出租汽车</text>

<text 
x="335" 
y="430" 
dx="0,0,0,0,0,0,0,0,0,-0.6,0,0,0" 
class="s2_349"
>Measure Word:</text>

<text 
x="480" 
y="430" 
dx="0" 
class="s3_349"
>站</text>

<text 
x="335" 
y="457" 
dx="0,-0.9,0,0,0" 
class="s2_349"
>Verb:</text>

<text 
x="480" 
y="457" 
dx="0,0,0,0,0,0,0,0,0,0,0,0,0" 
class="s3_349"
>坐，走，下车，打车，开车，</text>

<text 
x="480" 
y="485" 
dx="0" 
class="s3_349"
>送</text>

<text 
x="335" 
y="512" 
dx="0,0,0,0,0,0,0,0,0,0" 
class="s2_349"
>Adjective:</text>

<text 
x="480" 
y="512" 
dx="0,0,0,0,0,0" 
class="s3_349"
>绿，蓝，麻烦</text>

<text 
x="335" 
y="540" 
dx="0,0,0,0,0,0,0" 
class="s2_349"
>Adverb:</text>

<text 
x="480" 
y="540" 
dx="0,0,0,0" 
class="s3_349"
>先，然后</text>

<text 
x="335" 
y="567" 
dx="0,0,0,0,0,0,0,0,0,0,0,0" 
class="s2_349"
>Conjunction:</text>

<text 
x="480" 
y="567" 
dx="0,0" 
class="s3_349"
>或者</text>

<text 
x="335" 
y="595" 
dx="0,0,0,0,0,0,0" 
class="s2_349"
>Others:</text>

<text 
x="480" 
y="595" 
dx="0,0" 
class="s3_349"
>最后</text>

<text 
x="335" 
y="677" 
dx="0,0,0,0,0,0" 
class="s2_349"
>Noun: </text>

<text 
x="480" 
y="677" 
dx="0,0,0,0,0,0,0,0,0,0,0,0,0" 
class="s3_349"
>电子邮件，城市，高速公路，</text>

<text 
x="480" 
y="705" 
dx="0,0,0,0,0" 
class="s3_349"
>手机，新年</text>

<text 
x="335" 
y="732" 
dx="0,0,0,0,0,0,0,0" 
class="s2_349"
>Pronoun:</text>

<text 
x="480" 
y="732" 
dx="0,0,0,0" 
class="s3_349"
>每，自己</text>

<text 
x="335" 
y="760" 
dx="0,-0.9,0,0,0" 
class="s2_349"
>Verb:</text>

<text 
x="480" 
y="760" 
dx="0,0,0,0,0,0,0,0,0,0,0,0" 
class="s3_349"
>让，花， 出去， 发短信</text>

<text 
x="335" 
y="787" 
dx="0,0,0,0,0,0,0,0,0,0" 
class="s2_349"
>Adjective:</text>

<text 
x="480" 
y="787" 
dx="0,0,0,0,0" 
class="s3_349"
>紧张，快乐</text>

<text 
x="335" 
y="815" 
dx="0,0,0,0,0,0,0" 
class="s2_349"
>Adverb:</text>

<text 
x="480" 
y="815" 
dx="0,0" 
class="s3_349"
>特别</text>

<text 
x="335" 
y="842" 
dx="0,0,0,0,0,0,0" 
class="s2_349"
>Others:</text>

<text 
x="480" 
y="842" 
dx="0,0,0,0" 
class="s3_349"
>不好意思</text>

<path d="M288.1,96.2l0,748.3" class="g1_349" />
<path d="M277.2,56.5c0,0,-16.8,0,-16.8,16.8l0,4.6c0,0,0,16.8,16.8,16.8l21.8,0c0,0,16.8,0,16.8,-16.8l0,-4.6c0,0,0,-16.8,-16.8,-16.8Z" class="g2_349" />
<text 
x="271" 
y="81" 
dx="0,0,0,0" 
class="s4_349"
>L9-2</text>

<path d="M277.2,55.8c-0.2,0,-17.6,0.2,-17.6,17.5l0,4.6c0,0.2,0.2,17.6,17.6,17.6l21.8,0c0.1,0,17.5,-0.2,17.5,-17.6l0,-4.6c0,-0.1,-0.2,-17.5,-17.5,-17.5l-21.8,0Z" class="g3_349" />
<path d="M277.2,57.8c-0.6,0,-15.5,0.2,-15.5,15.5l0,4.6c0,0.7,0.2,15.6,15.5,15.6l21.8,0c0.6,0,15.5,-0.3,15.5,-15.6l0,-4.6c0,-0.6,-0.2,-15.5,-15.5,-15.5l-21.8,0Z" class="g4_349" />
<path d="M277.2,333.5c0,0,-16.8,0,-16.8,16.8l0,4.6c0,0,0,16.8,16.8,16.8l21.8,0c0,0,16.8,0,16.8,-16.8l0,-4.6c0,0,0,-16.8,-16.8,-16.8Z" class="g2_349" />
<text 
x="270" 
y="358" 
dx="0,0,0,0,0" 
class="s4_349"
>L10-1</text>

<path d="M277.2,332.7c-0.2,0,-17.6,0.3,-17.6,17.6l0,4.6c0,0.2,0.2,17.6,17.6,17.6l21.8,0c0.1,0,17.5,-0.2,17.5,-17.6l0,-4.6c0,-0.2,-0.2,-17.6,-17.5,-17.6l-21.8,0Z" class="g3_349" />
<path d="M277.2,334.8c-0.6,0,-15.5,0.2,-15.5,15.5l0,4.6c0,0.7,0.2,15.6,15.5,15.6l21.8,0c0.6,0,15.5,-0.3,15.5,-15.6l0,-4.6c0,-0.6,-0.2,-15.5,-15.5,-15.5l-21.8,0Z" class="g4_349" />
<path d="M277.2,664.6c0,0,-16.8,0,-16.8,16.8l0,4.6c0,0,0,16.8,16.8,16.8l21.8,0c0,0,16.8,0,16.8,-16.8l0,-4.6c0,0,0,-16.8,-16.8,-16.8Z" class="g2_349" />
<text 
x="268" 
y="689" 
dx="0,0,0,0,0" 
class="s4_349"
>L10-2</text>

<path d="M277.2,663.8c-0.2,0,-17.6,0.2,-17.6,17.6l0,4.6c0,0.2,0.2,17.6,17.6,17.6l21.8,0c0.1,0,17.5,-0.2,17.5,-17.6l0,-4.6c0,-0.2,-0.2,-17.6,-17.5,-17.6l-21.8,0Z" class="g3_349" />
<path d="M277.2,665.9c-0.6,0,-15.5,0.2,-15.5,15.5l0,4.6c0,0.6,0.2,15.5,15.5,15.5l21.8,0c0.6,0,15.5,-0.2,15.5,-15.5l0,-4.6c0,-0.6,-0.2,-15.5,-15.5,-15.5l-21.8,0Z" class="g4_349" />
<path d="M-22.1,1213.8l58,0l0,-1229.7l-58,0l0,1229.7Z" class="g5_349" />
<text 
transform="matrix(0, -1, 1, 0, 26, 1173)"
dx="0,0.3,0.3,0.3" 
class="s5_349"
>328 </text>

<text 
transform="matrix(0, -1, 1, 0, 26, 1135)"
dx="0,0.3,0.3,0.3,0.3,0.3,0.3,0.3,0.3,0.3,0.3,0.3,0.3,0.3,0.3,0.3,0.3,0.3,0.3,0.3,0.3" 
class="s5_349"
>Integrated Chinese 1 </text>

<text 
transform="matrix(0, -1, 1, 0, 26, 1014)"
dx="0,0.3" 
class="s5_349"
>| </text>

<text 
transform="matrix(0, -1, 1, 0, 26, 1001)"
dx="0,-0.9,-0.1,0.3,0.3,0.3,0.3,0.3" 
class="s5_349"
>Textbook</text>



<!-- Any embedded fonts defined here -->
<style type="text/css" ><![CDATA[

@font-face {
	font-family: ProximaNova-Extrabld_37f;
	src: url("fonts/ProximaNova-Extrabld_37f.woff") format("woff");
}

@font-face {
	font-family: ProximaNova-Semibold_376;
	src: url("fonts/ProximaNova-Semibold_376.woff") format("woff");
}

@font-face {
	font-family: ProximaNova-Bold_378;
	src: url("fonts/ProximaNova-Bold_378.woff") format("woff");
}

@font-face {
	font-family: STKaiti-SC-Regular_2t7;
	src: url("fonts/STKaiti-SC-Regular_2t7.woff") format("woff");
}

]]></style>

</svg>
