<?xml version="1.0" encoding="UTF-8" standalone="no"?>
<!DOCTYPE svg PUBLIC "-//W3C//DTD SVG 1.1//EN"
"http://www.w3.org/Graphics/SVG/1.1/DTD/svg11.dtd">


<!-- Page 356 -->
<svg x="0" y="0" width="921" height="1196" viewBox="0 0 921 1196" version="1.1" xmlns="http://www.w3.org/2000/svg" xmlns:xlink="http://www.w3.org/1999/xlink"
style="display: block;margin-left: auto;margin-right: auto;">
<defs>

<style type="text/css"><![CDATA[

.g1_356{
fill: none;
stroke: #DC252E;
stroke-width: 1.5277778;
stroke-linecap: butt;
stroke-linejoin: miter;
}
.g2_356{
fill: none;
stroke: #007598;
stroke-width: 1.5277778;
stroke-linecap: butt;
stroke-linejoin: miter;
}
.g3_356{
fill: none;
stroke: #BDBEC1;
stroke-width: 1.1458334;
stroke-linecap: butt;
stroke-linejoin: miter;
stroke-miterlimit: 4;
}
.g4_356{
fill: #FFFFFF;
}
.g5_356{
fill: none;
stroke: #57585A;
stroke-width: 1.5277778;
stroke-linecap: butt;
stroke-linejoin: miter;
stroke-miterlimit: 4;
}
.g6_356{
fill: none;
stroke: #57585A;
stroke-width: 0.5102778;
stroke-linecap: butt;
stroke-linejoin: miter;
stroke-miterlimit: 4;
}
.g7_356{
fill: #A8A9AD;
stroke: #B2B3B7;
stroke-width: 1.5277778;
stroke-linecap: butt;
stroke-linejoin: miter;
stroke-miterlimit: 4;
}

.s1_356{
font-size: 15.28px;
font-family: ProximaNova-Medium_37g;
fill: #3F3F40;
}
.s2_356{
font-size: 22.92px;
font-family: STKaiTi-TC-Regular_371;
fill: #3F3F40;
}
.s3_356{
font-size: 22.92px;
font-family: STKaiTi-TC-Regular_371;
fill: #DC252E;
}
.s4_356{
font-size: 9.80px;
font-family: ProximaNova-Extrabld_37f;
fill: #DC252E;
}
.s5_356{
font-size: 22.92px;
font-family: STKaiTi-TC-Regular_371;
fill: #77787B;
}
.s6_356{
font-size: 22.92px;
font-family: STKaiTi-TC-Regular_371;
fill: #007598;
}
.s7_356{
font-size: 9.80px;
font-family: ProximaNova-Extrabld_37f;
fill: #007598;
}
.s8_356{
font-size: 15.28px;
font-family: ProximaNova-Regular_377;
fill: #77787B;
}
.s9_356{
font-size: 15.28px;
font-family: ProximaNova-Semibold_376;
fill: #77787B;
}
.s10_356{
font-size: 21.39px;
font-family: ProximaNova-Extrabld_37f;
fill: #909295;
}
.s11_356{
font-size: 11.46px;
font-family: ProximaNova-Semibold_376;
fill: #FFFFFF;
}

]]></style>

</defs>
<path d="M0,0
L0,1196
L921,1196
L921,0 Z " 
fill="#FFFFFF" stroke="none" />
<path d="M502.9,109.7l5.4,0" class="g1_356" />
<path d="M622.9,109.7l5.8,0" class="g1_356" />
<path d="M720.3,109.7l4.9,0" class="g1_356" />
<path d="M709.1,161.7l6.1,0" class="g2_356" />
<path d="M755,265.6l5.8,0" class="g1_356" />
<path d="M640.4,317.5l5.5,0" class="g2_356" />
<path d="M651.6,317.5l5.4,0" class="g1_356" />
<path d="M618.9,562l4.4,0" class="g2_356" />
<path d="M618.9,691.8l6,0" class="g2_356" />
<path d="M573.1,717.8l5.4,0" class="g1_356" />
<path d="M618.9,743.8l5.9,0" class="g2_356" />
<path d="M670.7,743.8l5.8,0" class="g1_356" />
<path d="M527.3,795.7l4.3,0" class="g2_356" />
<path d="M596,821.7l6.1,0" class="g2_356" />
<path d="M593.8,1026.4l6.1,0" class="g2_356" />
<path d="M387.6,1078.3l5.4,0" class="g1_356" />
<path d="M530.5,1078.3l6,0" class="g2_356" />
<path d="M570.9,1130.3l6,0" class="g2_356" />
<text 
x="364" 
y="72" 
dx="0,-0.6,0,0,0,0,-0.2,0,0,0,0,0,0,0,0,0,0,0,0,0,0,0,-0.6,0,0,0,0,0,0,0,0,0,0,0,0,0,0,0,0,0,0,0,0,0,0,0,0,0,0,0,0,0,0,0,0,0,0,0,0" 
class="s1_356"
>Wang Peng visits Gao Wenzhong and invites him to play ball </text>

<text 
x="364" 
y="92" 
dx="0,0,0,0,0,0,0,0,0,0,0,0,0,-0.4,0,0,0" 
class="s1_356"
>over the weekend.</text>

<text 
x="364" 
y="118" 
dx="0,0,0" 
class="s2_356"
>王朋：</text>

<text 
x="457" 
y="118" 
dx="0,0" 
class="s3_356"
>小高</text>

<text 
x="502" 
y="106" 
dx="0" 
class="s4_356"
>a</text>

<text 
x="508" 
y="118" 
dx="0" 
class="s5_356"
>，</text>

<text 
x="531" 
y="118" 
dx="0,0,0,0" 
class="s3_356"
>好久不見</text>

<text 
x="622" 
y="106" 
dx="0" 
class="s4_356"
>b</text>

<text 
x="628" 
y="118" 
dx="0" 
class="s5_356"
>，</text>

<text 
x="651" 
y="118" 
dx="0,0,0" 
class="s3_356"
>你好嗎</text>

<text 
x="720" 
y="106" 
dx="0" 
class="s4_356"
>c</text>

<text 
x="725" 
y="118" 
dx="0" 
class="s5_356"
>？</text>

<text 
x="364" 
y="144" 
dx="0,0,0,0" 
class="s2_356"
>高文中：</text>

<text 
x="457" 
y="144" 
dx="0,0,0,0,0,0,0,0,0" 
class="s5_356"
>我很好。你怎麼樣？</text>

<text 
x="364" 
y="170" 
dx="0,0,0" 
class="s2_356"
>王朋：</text>

<text 
x="457" 
y="170" 
dx="0,0,0,0,0,0,0,0,0,0" 
class="s5_356"
>我也不錯。這個週末你</text>

<text 
x="686" 
y="170" 
dx="0" 
class="s6_356"
>想</text>

<text 
x="709" 
y="158" 
dx="0" 
class="s7_356"
>6</text>

<text 
x="715" 
y="170" 
dx="0,0" 
class="s5_356"
>做什</text>

<text 
x="457" 
y="196" 
dx="0,0,0,0,0,0,0,0,0" 
class="s5_356"
>麼？想不想去打球？</text>

<text 
x="364" 
y="222" 
dx="0,0,0,0" 
class="s2_356"
>高文中：</text>

<text 
x="457" 
y="222" 
dx="0,0,0,0,0,0,0,0,0,0" 
class="s5_356"
>打球？我不喜歡打球。</text>

<text 
x="364" 
y="248" 
dx="0,0,0" 
class="s2_356"
>王朋：</text>

<text 
x="457" 
y="248" 
dx="0,0,0,0,0,0,0,0,0,0,0" 
class="s5_356"
>那我們去看球，怎麼樣？</text>

<text 
x="364" 
y="274" 
dx="0,0,0,0" 
class="s2_356"
>高文中：</text>

<text 
x="457" 
y="274" 
dx="0,0,0" 
class="s5_356"
>看球？</text>

<text 
x="525" 
y="274" 
dx="0,0,0,0,0,0,0,0,0,0" 
class="s3_356"
>我覺得看球也沒有意思</text>

<text 
x="754" 
y="262" 
dx="0" 
class="s4_356"
>d</text>

<text 
x="760" 
y="274" 
dx="0" 
class="s5_356"
>。</text>

<text 
x="364" 
y="300" 
dx="0,0,0" 
class="s2_356"
>王朋：</text>

<text 
x="457" 
y="300" 
dx="0,0,0,0,0,0,0,0,0,0,0" 
class="s5_356"
>那你這個週末想做什麼？</text>

<text 
x="364" 
y="326" 
dx="0,0,0,0" 
class="s2_356"
>高文中：</text>

<text 
x="457" 
y="326" 
dx="0,0,0,0,0,0" 
class="s5_356"
>我只想吃飯、</text>

<text 
x="594" 
y="326" 
dx="0,0" 
class="s6_356"
>睡覺</text>

<text 
x="640" 
y="314" 
dx="0" 
class="s7_356"
>7</text>

<text 
x="651" 
y="314" 
dx="0" 
class="s4_356"
>e</text>

<text 
x="656" 
y="326" 
dx="0" 
class="s5_356"
>。</text>

<text 
x="364" 
y="352" 
dx="0,0,0" 
class="s2_356"
>王朋：</text>

<text 
x="457" 
y="352" 
dx="0,0,0,0,0,0,0,0,0" 
class="s5_356"
>算了，我去找別人。</text>

<text 
x="364" 
y="426" 
dx="0,-0.6,0,0,0,0,-0.2,0,0,0,0,0,0,0,0,0,0,0,-1.9,0,0,0,0,0,0,0,0,0,0,0,0,0,-0.6,0,0,0,0,0,0,0,0,0,0,0,0,0,0,0,0,0,0,0,0,0,0,0,0,0,0,-1.3,0" 
class="s1_356"
>Wang Peng and Li You visit Gao Wenzhong and meet his sister, </text>

<text 
x="364" 
y="446" 
dx="0,0,0,0,0,0,0,0,0,0,0,0,0" 
class="s1_356"
>Gao Xiaoyin. </text>

<text 
x="364" 
y="466" 
dx="0,0,0,0,0,0,0,0,0,0,0,0,0,0,0,0,0,0,0,0,0" 
class="s1_356"
>(The doorbell rings.)</text>

<text 
x="364" 
y="492" 
dx="0,0,0,0" 
class="s2_356"
>高文中：</text>

<text 
x="504" 
y="492" 
dx="0,0,0" 
class="s5_356"
>誰呀？</text>

<text 
x="364" 
y="518" 
dx="0,0,0" 
class="s2_356"
>王朋：</text>

<text 
x="504" 
y="518" 
dx="0,0,0,0,0,0,0,0,0,0,0" 
class="s5_356"
>是我，王朋，還有李友。</text>

<text 
x="364" 
y="544" 
dx="0,0,0,0" 
class="s2_356"
>高文中：</text>

<text 
x="504" 
y="544" 
dx="0,0,0,0,0,0,0,0,0,0,0,0" 
class="s5_356"
>請進，請進，快進來！來，</text>

<text 
x="504" 
y="570" 
dx="0,0,0" 
class="s5_356"
>我介紹</text>

<text 
x="573" 
y="570" 
dx="0,0" 
class="s6_356"
>一下</text>

<text 
x="618" 
y="558" 
dx="0" 
class="s7_356"
>1</text>

<text 
x="623" 
y="570" 
dx="0,0,0,0,0,0,0" 
class="s5_356"
>，這是我姐姐，</text>

<text 
x="504" 
y="596" 
dx="0,0,0,0" 
class="s5_356"
>高小音。</text>

<text 
x="364" 
y="622" 
dx="0,0,0,0,0,0" 
class="s2_356"
>李友和王朋：</text>

<text 
x="504" 
y="622" 
dx="0,0,0,0,0,0,0,0,0,0,0" 
class="s5_356"
>小音，你好。認識你很高</text>

<text 
x="504" 
y="648" 
dx="0,0" 
class="s5_356"
>興。</text>

<text 
x="364" 
y="674" 
dx="0,0,0,0" 
class="s2_356"
>高小音：</text>

<text 
x="504" 
y="674" 
dx="0,0,0,0,0,0,0,0,0,0" 
class="s5_356"
>認識你們我也很高興。</text>

<text 
x="364" 
y="700" 
dx="0,0,0" 
class="s2_356"
>李友：</text>

<text 
x="504" 
y="700" 
dx="0,0,0" 
class="s5_356"
>你們家</text>

<text 
x="573" 
y="700" 
dx="0,0" 
class="s6_356"
>很大</text>

<text 
x="618" 
y="688" 
dx="0" 
class="s7_356"
>2</text>

<text 
x="624" 
y="700" 
dx="0,0,0,0,0,0" 
class="s5_356"
>，也很漂亮。</text>

<text 
x="364" 
y="726" 
dx="0,0,0,0" 
class="s2_356"
>高小音：</text>

<text 
x="504" 
y="726" 
dx="0,0,0" 
class="s3_356"
>是嗎？</text>

<text 
x="573" 
y="714" 
dx="0" 
class="s4_356"
>a</text>

<text 
x="578" 
y="726" 
dx="0,0,0,0,0,0" 
class="s5_356"
>請坐，請坐。</text>

<text 
x="364" 
y="752" 
dx="0,0,0" 
class="s2_356"
>王朋：</text>

<text 
x="504" 
y="752" 
dx="0,0,0,0" 
class="s5_356"
>小音，你</text>

<text 
x="596" 
y="752" 
dx="0" 
class="s6_356"
>在</text>

<text 
x="618" 
y="740" 
dx="0" 
class="s7_356"
>3</text>

<text 
x="624" 
y="752" 
dx="0,0" 
class="s3_356"
>哪兒</text>

<text 
x="670" 
y="740" 
dx="0" 
class="s4_356"
>b</text>

<text 
x="676" 
y="752" 
dx="0,0,0" 
class="s5_356"
>工作？</text>

<text 
x="364" 
y="778" 
dx="0,0,0,0" 
class="s2_356"
>高小音：</text>

<text 
x="504" 
y="778" 
dx="0,0,0,0,0,0,0,0,0,0,0" 
class="s5_356"
>我在學校工作。你們想喝</text>

<text 
x="756" 
y="778" 
dx="0" 
class="s6_356"
>點</text>

<text 
x="504" 
y="804" 
dx="0" 
class="s6_356"
>兒</text>

<text 
x="527" 
y="792" 
dx="0" 
class="s7_356"
>1</text>

<text 
x="531" 
y="804" 
dx="0,0,0,0,0,0,0,0,0,0,0" 
class="s5_356"
>什麼？喝茶還是喝咖啡？</text>

<text 
x="364" 
y="830" 
dx="0,0,0" 
class="s2_356"
>王朋：</text>

<text 
x="504" 
y="830" 
dx="0,0,0" 
class="s5_356"
>我喝茶</text>

<text 
x="573" 
y="830" 
dx="0" 
class="s6_356"
>吧</text>

<text 
x="596" 
y="818" 
dx="0" 
class="s7_356"
>4</text>

<text 
x="602" 
y="830" 
dx="0" 
class="s5_356"
>。</text>

<text 
x="364" 
y="856" 
dx="0,0,0" 
class="s2_356"
>李友：</text>

<text 
x="504" 
y="856" 
dx="0,0,0,0,0,0,0,0,0,0,0" 
class="s5_356"
>我要一瓶可樂，可以嗎？</text>

<text 
x="364" 
y="882" 
dx="0,0,0,0" 
class="s2_356"
>高小音：</text>

<text 
x="504" 
y="882" 
dx="0,0,0,0,0,0,0,0,0,0,0,0" 
class="s5_356"
>對不起，我們家沒有可樂。</text>

<text 
x="364" 
y="908" 
dx="0,0,0" 
class="s2_356"
>李友：</text>

<text 
x="504" 
y="908" 
dx="0,0,0,0,0,0,0,0" 
class="s5_356"
>那給我一杯水吧。</text>

<text 
x="364" 
y="983" 
dx="0,-0.3,-0.3,-0.3,-0.3,-0.3,-0.3,-0.3,-0.3,-0.3,-0.3,-0.3,-0.3,-0.3,-0.9,-0.3,-0.3,-0.3,-0.3,-0.5,-0.3,-0.3,-0.3,-0.3,-0.3,-0.3,-0.3,-0.3,-0.3,-0.3,-0.3,-0.3,-2.2,-0.3,-0.3,-0.3,-0.3,-0.3,-0.3,-0.3,-0.3,-0.3,-0.3,-0.3,-0.3,-0.3,-0.3,-0.3,-0.9,-0.3,-0.3,-0.3,-0.3,-0.3,-0.3,-0.3,-0.8,-0.3,-0.3,-0.3,-0.3,-0.3,-0.3,-0.4" 
class="s1_356"
>Gao Xiaoyin, Wang Peng, and Li You visited Gao Wenzhong’s place.</text>

<text 
x="364" 
y="1009" 
dx="0,0,0,0,0,0,0,0,0,0,0,0,0,0,0,0,0,0,0" 
class="s5_356"
>昨天晚上，王朋和李友去高文中家玩兒。在</text>

<text 
x="364" 
y="1035" 
dx="0,0,0,0,0,0,0,0,0" 
class="s5_356"
>高文中家，他們認識</text>

<text 
x="570" 
y="1035" 
dx="0" 
class="s6_356"
>了</text>

<text 
x="593" 
y="1023" 
dx="0" 
class="s7_356"
>5</text>

<text 
x="599" 
y="1035" 
dx="0,0,0,0,0,0,0,0" 
class="s5_356"
>高文中的姐姐。她</text>

<text 
x="364" 
y="1061" 
dx="0,0,0,0,0,0,0,0,0,0,0,0,0,0,0,0,0,0,0" 
class="s5_356"
>叫高小音，在學校的圖書館工作。她請王朋</text>

<text 
x="364" 
y="1086" 
dx="0" 
class="s3_356"
>喝</text>

<text 
x="387" 
y="1075" 
dx="0" 
class="s4_356"
>a</text>

<text 
x="392" 
y="1086" 
dx="0,0,0,0,0" 
class="s5_356"
>茶，王朋喝</text>

<text 
x="507" 
y="1086" 
dx="0" 
class="s6_356"
>了</text>

<text 
x="530" 
y="1075" 
dx="0" 
class="s7_356"
>5</text>

<text 
x="536" 
y="1086" 
dx="0,0,0,0,0,0,0,0,0,0,0" 
class="s5_356"
>兩杯。李友不喝茶，只喝</text>

<text 
x="364" 
y="1112" 
dx="0,0,0,0,0,0,0,0,0,0,0,0,0,0,0,0,0,0,0" 
class="s5_356"
>了一杯水。他們一起聊天兒、看電視。王朋</text>

<text 
x="364" 
y="1138" 
dx="0,0,0,0,0,0,0,0" 
class="s5_356"
>和李友晚上十二點</text>

<text 
x="547" 
y="1138" 
dx="0" 
class="s6_356"
>才</text>

<text 
x="570" 
y="1127" 
dx="0" 
class="s7_356"
>6</text>

<text 
x="576" 
y="1138" 
dx="0,0,0" 
class="s5_356"
>回家。</text>

<path d="M275.2,57.5l0,1084.4" class="g3_356" />
<path d="M204,133.2l143.6,0l0,-45.2L204,88l0,45.2Z" class="g4_356" />
<text 
x="260" 
y="107" 
dx="0,-0.3,0,0,-0.5,0" 
class="s8_356"
>Let’s </text>

<text 
x="247" 
y="124" 
dx="0,0,0,0,0,0,0,0,0" 
class="s8_356"
>Play Ball</text>

<path d="M238.7,56.5c0,0,-12.3,0,-12.3,12.3l0,5.5c0,0,0,12.2,12.3,12.2l74.2,0c0,0,12.3,0,12.3,-12.2l0,-5.5c0,0,0,-12.3,-12.3,-12.3Z" class="g4_356" />
<text 
x="238" 
y="77" 
dx="0,0,0,0,0,0,0,0,0,0" 
class="s9_356"
>Dialogue 2</text>

<path d="M238.7,55.8c-0.2,0,-13,0.1,-13,13l0,5.5c0,0.1,0.1,13,13,13l74.2,0c0.2,0,13,-0.2,13,-13l0,-5.5c0,-0.2,-0.1,-13,-13,-13l-74.2,0Z" class="g5_356" />
<path d="M238.7,57.8c-0.5,0,-11,0.2,-11,11l0,5.5c0,0.4,0.2,10.9,11,10.9l74.2,0c0.5,0,11,-0.1,11,-10.9l0,-5.5c0,-0.5,-0.2,-11,-11,-11l-74.2,0Z" class="g6_356" />
<text 
x="119" 
y="438" 
dx="0,-0.1,0,0,0,0,0,0" 
class="s10_356"
>Lesson 5</text>

<path d="M204,492.3l143.6,0l0,-45.2l-143.6,0l0,45.2Z" class="g4_356" />
<text 
x="245" 
y="466" 
dx="0,0,0,0,0,0,0,0,0,0,0" 
class="s8_356"
>Visiting a </text>

<text 
x="229" 
y="483" 
dx="0,0,0,0,0,0,0,-0.5,0,0,0,0,0,0" 
class="s8_356"
>Friend’s Place</text>

<path d="M238.7,415.6c0,0,-12.3,0,-12.3,12.2l0,5.5c0,0,0,12.2,12.3,12.2l74.2,0c0,0,12.3,0,12.3,-12.2l0,-5.5c0,0,0,-12.2,-12.3,-12.2Z" class="g4_356" />
<text 
x="244" 
y="436" 
dx="0,0,0,0,0,0,0,0" 
class="s9_356"
>Dialogue</text>

<path d="M238.7,414.8c-0.2,0,-13,0.1,-13,13l0,5.5c0,0.1,0.1,13,13,13l74.2,0c0.2,0,13,-0.1,13,-13l0,-5.5c0,-0.2,-0.1,-13,-13,-13l-74.2,0Z" class="g5_356" />
<path d="M238.7,416.8c-0.5,0,-11,0.2,-11,11l0,5.5c0,0.5,0.2,11,11,11l74.2,0c0.5,0,11,-0.2,11,-11l0,-5.5c0,-0.5,-0.2,-11,-11,-11l-74.2,0Z" class="g6_356" />
<path d="M204,1044.5l143.6,0l0,-45.2l-143.6,0l0,45.2Z" class="g4_356" />
<text 
x="234" 
y="1018" 
dx="0,-0.2,0,0,0,0,0,0,0,0,0,0,-0.5,0" 
class="s8_356"
>At a Friend’s </text>

<text 
x="257" 
y="1035" 
dx="0,0,0,0,0,0" 
class="s8_356"
>Place </text>

<path d="M238.7,967.8c0,0,-12.3,0,-12.3,12.2l0,5.6c0,0,0,12.2,12.3,12.2l74.2,0c0,0,12.3,0,12.3,-12.2l0,-5.6c0,0,0,-12.2,-12.3,-12.2Z" class="g4_356" />
<text 
x="243" 
y="988" 
dx="0,0,0,0,0,0,0,0,0" 
class="s9_356"
>Narrative</text>

<path d="M238.7,967.1c-0.2,0,-13,0.1,-13,12.9l0,5.6c0,0.1,0.1,13,13,13l74.2,0c0.2,0,13,-0.2,13,-13l0,-5.6c0,-0.1,-0.1,-12.9,-13,-12.9l-74.2,0Z" class="g5_356" />
<path d="M238.7,969.1c-0.5,0,-11,0.2,-11,10.9l0,5.6c0,0.4,0.2,10.9,11,10.9l74.2,0c0.5,0,11,-0.1,11,-10.9l0,-5.6c0,-0.4,-0.2,-10.9,-11,-10.9l-74.2,0Z" class="g6_356" />
<path d="M885.3,1213.8l65,0l0,-1231.3l-65,0l0,1231.3Z" class="g7_356" />
<text 
transform="matrix(0, 1, -1, 0, 894, 858)"
dx="0,0.3,0.3,0.3,0.3,0.3,0.3,0.3,0.3,0.3,0.3,0.3,0.3,0.2,0.3,0.3,0.3,0.3,0.3,0.3,-0.9,-0.1,0.3,0.3,0.3,0.3,0.3,0.3,0.3,-0.5,0.3,0.3,0.3,0.3,0.3,0.3,0.3,0.3,0.3,0.3" 
class="s11_356"
>Appendix 1: Lesson Texts in Traditional </text>

<text 
transform="matrix(0, 1, -1, 0, 894, 1073)"
dx="0,0.3,0.3,0.3,0.3,0.3,0.3,0.3,0.3,0.3,0.3" 
class="s11_356"
>Characters </text>

<text 
transform="matrix(0, 1, -1, 0, 894, 1152)"
dx="0,0.3,0.3" 
class="s11_356"
>335</text>



<!-- Any embedded fonts defined here -->
<style type="text/css" ><![CDATA[

@font-face {
	font-family: ProximaNova-Medium_37g;
	src: url("fonts/ProximaNova-Medium_37g.woff") format("woff");
}

@font-face {
	font-family: ProximaNova-Extrabld_37f;
	src: url("fonts/ProximaNova-Extrabld_37f.woff") format("woff");
}

@font-face {
	font-family: ProximaNova-Semibold_376;
	src: url("fonts/ProximaNova-Semibold_376.woff") format("woff");
}

@font-face {
	font-family: ProximaNova-Regular_377;
	src: url("fonts/ProximaNova-Regular_377.woff") format("woff");
}

@font-face {
	font-family: STKaiTi-TC-Regular_371;
	src: url("fonts/STKaiTi-TC-Regular_371.woff") format("woff");
}

]]></style>

</svg>
