<?xml version="1.0" encoding="UTF-8" standalone="no"?>
<!DOCTYPE svg PUBLIC "-//W3C//DTD SVG 1.1//EN"
"http://www.w3.org/Graphics/SVG/1.1/DTD/svg11.dtd">


<!-- Page 321 -->
<svg x="0" y="0" width="921" height="1196" viewBox="0 0 921 1196" version="1.1" xmlns="http://www.w3.org/2000/svg" xmlns:xlink="http://www.w3.org/1999/xlink"
style="display: block;margin-left: auto;margin-right: auto;">
<defs>

<style type="text/css"><![CDATA[

.g1_321{
fill: #F0F1F2;
}
.g2_321{
fill: #BDBEC1;
}
.g3_321{
fill: none;
stroke: #BDBEC1;
stroke-width: 1.5277778;
stroke-linecap: butt;
stroke-linejoin: miter;
}
.g4_321{
fill: none;
stroke: #DADBDD;
stroke-width: 1.5277778;
stroke-linecap: butt;
stroke-linejoin: miter;
}
.g5_321{
fill: none;
stroke: #BDBEC1;
stroke-width: 0.38194445;
stroke-linecap: butt;
stroke-linejoin: miter;
}
.g6_321{
fill: #57585A;
stroke: #B2B3B7;
stroke-width: 1.5277778;
stroke-linecap: butt;
stroke-linejoin: miter;
stroke-miterlimit: 4;
}

.s1_321{
font-size: 15.28px;
font-family: ProximaNova-Bold_378;
fill: #57585A;
}
.s2_321{
font-size: 24.44px;
font-family: STKaiti-SC-Regular_2t7;
fill: #57585A;
}
.s3_321{
font-size: 24.44px;
font-family: STKaiTi-TC-Regular_371;
fill: #57585A;
}
.s4_321{
font-size: 16.81px;
font-family: Marion-Italic_2si;
fill: #3F3F40;
}
.s5_321{
font-size: 15.28px;
font-family: ProximaNova-Regular_377;
fill: #3F3F40;
}
.s6_321{
font-size: 14.51px;
font-family: ProximaNova-Light_372;
fill: #3F3F40;
}
.s7_321{
font-size: 15.28px;
font-family: ProximaNova-Semibold_376;
fill: #77787B;
}
.s8_321{
font-size: 21.39px;
font-family: ProximaNova-Semibold_376;
fill: #3F3F40;
}
.s9_321{
font-size: 11.46px;
font-family: ProximaNova-Semibold_376;
fill: #FFFFFF;
}

]]></style>

</defs>
<path d="M0,0
L0,1196
L921,1196
L921,0 Z " 
fill="#FFFFFF" stroke="none" />
<path d="M55,141.9l178.8,0l0,42.2L55,184.1l0,-42.2Zm178.8,0l178.7,0l0,42.2l-178.7,0l0,-42.2Zm178.7,0l135.2,0l0,42.2l-135.2,0l0,-42.2Zm135.2,0l66.1,0l0,42.2l-66.1,0l0,-42.2Zm66.1,0l189.2,0l0,42.2l-189.2,0l0,-42.2Zm189.2,0l63.3,0l0,42.2l-63.3,0l0,-42.2ZM55,226.2l178.8,0l0,42.2L55,268.4l0,-42.2Zm178.8,0l178.7,0l0,42.2l-178.7,0l0,-42.2Zm178.7,0l135.2,0l0,42.2l-135.2,0l0,-42.2Zm135.2,0l66.1,0l0,42.2l-66.1,0l0,-42.2Zm66.1,0l189.2,0l0,42.2l-189.2,0l0,-42.2Zm189.2,0l63.3,0l0,42.2l-63.3,0l0,-42.2ZM55,310.5l178.8,0l0,43.6L55,354.1l0,-43.6Zm178.8,0l178.7,0l0,43.6l-178.7,0l0,-43.6Zm178.7,0l135.2,0l0,43.6l-135.2,0l0,-43.6Zm135.2,0l66.1,0l0,43.6l-66.1,0l0,-43.6Zm66.1,0l189.2,0l0,43.6l-189.2,0l0,-43.6Zm189.2,0l63.3,0l0,43.6l-63.3,0l0,-43.6ZM55,396.3l178.8,0l0,42.1L55,438.4l0,-42.1Zm178.8,0l178.7,0l0,42.1l-178.7,0l0,-42.1Zm178.7,0l135.2,0l0,42.1l-135.2,0l0,-42.1Zm135.2,0l66.1,0l0,42.1l-66.1,0l0,-42.1Zm66.1,0l189.2,0l0,42.1l-189.2,0l0,-42.1Zm189.2,0l63.3,0l0,42.1l-63.3,0l0,-42.1ZM55,480.6l178.8,0l0,42.1L55,522.7l0,-42.1Zm178.8,0l178.7,0l0,42.1l-178.7,0l0,-42.1Zm178.7,0l135.2,0l0,42.1l-135.2,0l0,-42.1Zm135.2,0l66.1,0l0,42.1l-66.1,0l0,-42.1Zm66.1,0l189.2,0l0,42.1l-189.2,0l0,-42.1Zm189.2,0l63.3,0l0,42.1l-63.3,0l0,-42.1ZM55,649.2l178.8,0l0,42.2L55,691.4l0,-42.2Zm178.8,0l178.7,0l0,42.2l-178.7,0l0,-42.2Zm178.7,0l135.2,0l0,42.2l-135.2,0l0,-42.2Zm135.2,0l66.1,0l0,42.2l-66.1,0l0,-42.2Zm66.1,0l189.2,0l0,42.2l-189.2,0l0,-42.2Zm189.2,0l63.3,0l0,42.2l-63.3,0l0,-42.2ZM55,733.6l178.8,0l0,42.1L55,775.7l0,-42.1Zm178.8,0l178.7,0l0,42.1l-178.7,0l0,-42.1Zm178.7,0l135.2,0l0,42.1l-135.2,0l0,-42.1Zm135.2,0l66.1,0l0,42.1l-66.1,0l0,-42.1Zm66.1,0l189.2,0l0,42.1l-189.2,0l0,-42.1Zm189.2,0l63.3,0l0,42.1l-63.3,0l0,-42.1ZM55,817.9l178.8,0l0,42.1L55,860l0,-42.1Zm178.8,0l178.7,0l0,42.1l-178.7,0l0,-42.1Zm178.7,0l135.2,0l0,42.1l-135.2,0l0,-42.1Zm135.2,0l66.1,0l0,42.1l-66.1,0l0,-42.1Zm66.1,0l189.2,0l0,42.1l-189.2,0l0,-42.1Zm189.2,0l63.3,0l0,42.1L803,860l0,-42.1ZM55,903.6l178.8,0l0,42.2L55,945.8l0,-42.2Zm178.8,0l178.7,0l0,42.2l-178.7,0l0,-42.2Zm178.7,0l135.2,0l0,42.2l-135.2,0l0,-42.2Zm135.2,0l66.1,0l0,42.2l-66.1,0l0,-42.2Zm66.1,0l189.2,0l0,42.2l-189.2,0l0,-42.2Zm189.2,0l63.3,0l0,42.2l-63.3,0l0,-42.2ZM55,987.9l178.8,0l0,42.2l-178.8,0l0,-42.2Zm178.8,0l178.7,0l0,42.2l-178.7,0l0,-42.2Zm178.7,0l135.2,0l0,42.2l-135.2,0l0,-42.2Zm135.2,0l66.1,0l0,42.2l-66.1,0l0,-42.2Zm66.1,0l189.2,0l0,42.2l-189.2,0l0,-42.2Zm189.2,0l63.3,0l0,42.2l-63.3,0l0,-42.2ZM55,1072.2l178.8,0l0,42.8L55,1115l0,-42.8Zm178.8,0l178.7,0l0,42.8l-178.7,0l0,-42.8Zm178.7,0l135.2,0l0,42.8l-135.2,0l0,-42.8Zm135.2,0l66.1,0l0,42.8l-66.1,0l0,-42.8Zm66.1,0l189.2,0l0,42.8l-189.2,0l0,-42.8Zm189.2,0l63.3,0l0,42.8l-63.3,0l0,-42.8Z" class="g1_321" />
<path d="M55,564.9l811.3,0l0,42.2L55,607.1l0,-42.2Z" class="g2_321" />
<path d="M55,1115l178.8,0" class="g3_321" />
<path d="M233.8,1115l178.7,0" class="g3_321" />
<path d="M412.5,1115l135.2,0" class="g3_321" />
<path d="M547.7,1115l66.1,0" class="g3_321" />
<path d="M613.8,1115l189.2,0" class="g3_321" />
<path d="M803,1115l63.3,0" class="g3_321" />
<path d="M55,99.2l178.8,0" class="g4_321" />
<path d="M233.8,99.2l178.7,0" class="g4_321" />
<path d="M412.5,99.2l135.2,0" class="g4_321" />
<path d="M547.7,99.2l66.1,0" class="g4_321" />
<path d="M613.8,99.2l189.2,0" class="g4_321" />
<path d="M803,99.2l63.3,0" class="g4_321" />
<path d="M55,141.9l178.8,0" class="g5_321" />
<path d="M233.8,141.9l178.7,0" class="g5_321" />
<path d="M412.5,141.9l135.2,0" class="g5_321" />
<path d="M547.7,141.9l66.1,0" class="g5_321" />
<path d="M613.8,141.9l189.2,0" class="g5_321" />
<path d="M803,141.9l63.3,0" class="g5_321" />
<path d="M55,184.1l178.8,0" class="g5_321" />
<path d="M233.8,184.1l178.7,0" class="g5_321" />
<path d="M412.5,184.1l135.2,0" class="g5_321" />
<path d="M547.7,184.1l66.1,0" class="g5_321" />
<path d="M613.8,184.1l189.2,0" class="g5_321" />
<path d="M803,184.1l63.3,0" class="g5_321" />
<path d="M55,226.2l178.8,0" class="g5_321" />
<path d="M233.8,226.2l178.7,0" class="g5_321" />
<path d="M412.5,226.2l135.2,0" class="g5_321" />
<path d="M547.7,226.2l66.1,0" class="g5_321" />
<path d="M613.8,226.2l189.2,0" class="g5_321" />
<path d="M803,226.2l63.3,0" class="g5_321" />
<path d="M55,268.4l178.8,0" class="g5_321" />
<path d="M233.8,268.4l178.7,0" class="g5_321" />
<path d="M412.5,268.4l135.2,0" class="g5_321" />
<path d="M547.7,268.4l66.1,0" class="g5_321" />
<path d="M613.8,268.4l189.2,0" class="g5_321" />
<path d="M803,268.4l63.3,0" class="g5_321" />
<path d="M55,310.5l178.8,0" class="g5_321" />
<path d="M233.8,310.5l178.7,0" class="g5_321" />
<path d="M412.5,310.5l135.2,0" class="g5_321" />
<path d="M547.7,310.5l66.1,0" class="g5_321" />
<path d="M613.8,310.5l189.2,0" class="g5_321" />
<path d="M803,310.5l63.3,0" class="g5_321" />
<path d="M55,354.1l178.8,0" class="g5_321" />
<path d="M233.8,354.1l178.7,0" class="g5_321" />
<path d="M412.5,354.1l135.2,0" class="g5_321" />
<path d="M547.7,354.1l66.1,0" class="g5_321" />
<path d="M613.8,354.1l189.2,0" class="g5_321" />
<path d="M803,354.1l63.3,0" class="g5_321" />
<path d="M55,396.3l178.8,0" class="g5_321" />
<path d="M233.8,396.3l178.7,0" class="g5_321" />
<path d="M412.5,396.3l135.2,0" class="g5_321" />
<path d="M547.7,396.3l66.1,0" class="g5_321" />
<path d="M613.8,396.3l189.2,0" class="g5_321" />
<path d="M803,396.3l63.3,0" class="g5_321" />
<path d="M55,438.4l178.8,0" class="g5_321" />
<path d="M233.8,438.4l178.7,0" class="g5_321" />
<path d="M412.5,438.4l135.2,0" class="g5_321" />
<path d="M547.7,438.4l66.1,0" class="g5_321" />
<path d="M613.8,438.4l189.2,0" class="g5_321" />
<path d="M803,438.4l63.3,0" class="g5_321" />
<path d="M55,480.6l178.8,0" class="g5_321" />
<path d="M233.8,480.6l178.7,0" class="g5_321" />
<path d="M412.5,480.6l135.2,0" class="g5_321" />
<path d="M547.7,480.6l66.1,0" class="g5_321" />
<path d="M613.8,480.6l189.2,0" class="g5_321" />
<path d="M803,480.6l63.3,0" class="g5_321" />
<path d="M55,522.7l178.8,0" class="g5_321" />
<path d="M233.8,522.7l178.7,0" class="g5_321" />
<path d="M412.5,522.7l135.2,0" class="g5_321" />
<path d="M547.7,522.7l66.1,0" class="g5_321" />
<path d="M613.8,522.7l189.2,0" class="g5_321" />
<path d="M803,522.7l63.3,0" class="g5_321" />
<path d="M55,607.1l178.8,0" class="g5_321" />
<path d="M233.8,607.1l178.7,0" class="g5_321" />
<path d="M412.5,607.1l135.2,0" class="g5_321" />
<path d="M547.7,607.1l66.1,0" class="g5_321" />
<path d="M613.8,607.1l189.2,0" class="g5_321" />
<path d="M803,607.1l63.3,0" class="g5_321" />
<path d="M55,649.2l178.8,0" class="g5_321" />
<path d="M233.8,649.2l178.7,0" class="g5_321" />
<path d="M412.5,649.2l135.2,0" class="g5_321" />
<path d="M547.7,649.2l66.1,0" class="g5_321" />
<path d="M613.8,649.2l189.2,0" class="g5_321" />
<path d="M803,649.2l63.3,0" class="g5_321" />
<path d="M55,691.4l178.8,0" class="g5_321" />
<path d="M233.8,691.4l178.7,0" class="g5_321" />
<path d="M412.5,691.4l135.2,0" class="g5_321" />
<path d="M547.7,691.4l66.1,0" class="g5_321" />
<path d="M613.8,691.4l189.2,0" class="g5_321" />
<path d="M803,691.4l63.3,0" class="g5_321" />
<path d="M55,733.6l178.8,0" class="g5_321" />
<path d="M233.8,733.6l178.7,0" class="g5_321" />
<path d="M412.5,733.6l135.2,0" class="g5_321" />
<path d="M547.7,733.6l66.1,0" class="g5_321" />
<path d="M613.8,733.6l189.2,0" class="g5_321" />
<path d="M803,733.6l63.3,0" class="g5_321" />
<path d="M55,775.7l178.8,0" class="g5_321" />
<path d="M233.8,775.7l178.7,0" class="g5_321" />
<path d="M412.5,775.7l135.2,0" class="g5_321" />
<path d="M547.7,775.7l66.1,0" class="g5_321" />
<path d="M613.8,775.7l189.2,0" class="g5_321" />
<path d="M803,775.7l63.3,0" class="g5_321" />
<path d="M55,817.9l178.8,0" class="g5_321" />
<path d="M233.8,817.9l178.7,0" class="g5_321" />
<path d="M412.5,817.9l135.2,0" class="g5_321" />
<path d="M547.7,817.9l66.1,0" class="g5_321" />
<path d="M613.8,817.9l189.2,0" class="g5_321" />
<path d="M803,817.9l63.3,0" class="g5_321" />
<path d="M55,860l178.8,0" class="g5_321" />
<path d="M233.8,860l178.7,0" class="g5_321" />
<path d="M412.5,860l135.2,0" class="g5_321" />
<path d="M547.7,860l66.1,0" class="g5_321" />
<path d="M613.8,860L803,860" class="g5_321" />
<path d="M803,860l63.3,0" class="g5_321" />
<path d="M55,903.6l178.8,0" class="g5_321" />
<path d="M233.8,903.6l178.7,0" class="g5_321" />
<path d="M412.5,903.6l135.2,0" class="g5_321" />
<path d="M547.7,903.6l66.1,0" class="g5_321" />
<path d="M613.8,903.6l189.2,0" class="g5_321" />
<path d="M803,903.6l63.3,0" class="g5_321" />
<path d="M55,945.8l178.8,0" class="g5_321" />
<path d="M233.8,945.8l178.7,0" class="g5_321" />
<path d="M412.5,945.8l135.2,0" class="g5_321" />
<path d="M547.7,945.8l66.1,0" class="g5_321" />
<path d="M613.8,945.8l189.2,0" class="g5_321" />
<path d="M803,945.8l63.3,0" class="g5_321" />
<path d="M55,987.9l178.8,0" class="g5_321" />
<path d="M233.8,987.9l178.7,0" class="g5_321" />
<path d="M412.5,987.9l135.2,0" class="g5_321" />
<path d="M547.7,987.9l66.1,0" class="g5_321" />
<path d="M613.8,987.9l189.2,0" class="g5_321" />
<path d="M803,987.9l63.3,0" class="g5_321" />
<path d="M55,1030.1l178.8,0" class="g5_321" />
<path d="M233.8,1030.1l178.7,0" class="g5_321" />
<path d="M412.5,1030.1l135.2,0" class="g5_321" />
<path d="M547.7,1030.1l66.1,0" class="g5_321" />
<path d="M613.8,1030.1l189.2,0" class="g5_321" />
<path d="M803,1030.1l63.3,0" class="g5_321" />
<path d="M55,1072.2l178.8,0" class="g5_321" />
<path d="M233.8,1072.2l178.7,0" class="g5_321" />
<path d="M412.5,1072.2l135.2,0" class="g5_321" />
<path d="M547.7,1072.2l66.1,0" class="g5_321" />
<path d="M613.8,1072.2l189.2,0" class="g5_321" />
<path d="M803,1072.2l63.3,0" class="g5_321" />
<path d="M55,564.9l178.8,0" class="g5_321" />
<path d="M233.8,564.9l178.7,0" class="g5_321" />
<path d="M412.5,564.9l135.2,0" class="g5_321" />
<path d="M547.7,564.9l66.1,0" class="g5_321" />
<path d="M613.8,564.9l189.2,0" class="g5_321" />
<path d="M803,564.9l63.3,0" class="g5_321" />
<text 
x="61" 
y="83" 
dx="0,0,0,0,0,0,0,0,0,0" 
class="s1_321"
>Simplified</text>

<text 
x="239" 
y="83" 
dx="0,-1,0,0,0,0,0,0,0,0,0" 
class="s1_321"
>Traditional</text>

<text 
x="418" 
y="83" 
dx="0,0,0,0,0,0" 
class="s1_321"
>Pinyin</text>

<text 
x="553" 
y="73" 
dx="0,-0.3,0,0,0,0,0,0" 
class="s1_321"
>Part of </text>

<text 
x="553" 
y="93" 
dx="0,0,0,0,0,0" 
class="s1_321"
>Speech</text>

<text 
x="619" 
y="83" 
dx="0,0,0,0,0,0,0,0,0,0" 
class="s1_321"
>Definition</text>

<text 
x="809" 
y="83" 
dx="0,-0.2,0,0,0,0" 
class="s1_321"
>Lesson</text>

<text 
x="61" 
y="129" 
dx="0" 
class="s2_321"
>双</text>

<text 
x="239" 
y="129" 
dx="0" 
class="s3_321"
>雙</text>

<text 
x="418" 
y="126" 
dx="0,0,0,0,0,0" 
class="s4_321"
>shuāng</text>

<text 
x="553" 
y="126" 
dx="0,0" 
class="s5_321"
>m </text>

<text 
x="619" 
y="126" 
dx="0,0,0,0,0,0,0,0,0,0,0,0,0,0,0,0,0,0,0,0,0,0,0,0,0" 
class="s6_321"
>(measure word for a pair)</text>

<text 
x="809" 
y="126" 
dx="0" 
class="s7_321"
>9</text>

<text 
x="61" 
y="171" 
dx="0" 
class="s2_321"
>水</text>

<text 
x="418" 
y="168" 
dx="0,0,0,0" 
class="s4_321"
>shuǐ</text>

<text 
x="553" 
y="169" 
dx="0" 
class="s5_321"
>n</text>

<text 
x="619" 
y="168" 
dx="0,0,0,0,0" 
class="s6_321"
>water</text>

<text 
x="809" 
y="169" 
dx="0" 
class="s7_321"
>5</text>

<text 
x="61" 
y="213" 
dx="0,0" 
class="s2_321"
>睡觉</text>

<text 
x="239" 
y="213" 
dx="0,0" 
class="s3_321"
>睡覺</text>

<text 
x="418" 
y="211" 
dx="0,0,0,0,0,0,0,0,0" 
class="s4_321"
>shuì jiào</text>

<text 
x="553" 
y="211" 
dx="0,0" 
class="s5_321"
>vo</text>

<text 
x="619" 
y="210" 
dx="0,0,0,0,0,0,0,0" 
class="s6_321"
>to sleep</text>

<text 
x="809" 
y="211" 
dx="0" 
class="s7_321"
>4</text>

<text 
x="61" 
y="256" 
dx="0" 
class="s2_321"
>说</text>

<text 
x="239" 
y="256" 
dx="0" 
class="s3_321"
>說</text>

<text 
x="418" 
y="253" 
dx="0,0,0,0" 
class="s4_321"
>shuō</text>

<text 
x="553" 
y="253" 
dx="0" 
class="s5_321"
>v</text>

<text 
x="619" 
y="253" 
dx="0,0,0,0,0,0,-0.9,0,0,0,0,0,0,0,0,0" 
class="s6_321"
>to say, to speak</text>

<text 
x="809" 
y="253" 
dx="0" 
class="s7_321"
>6</text>

<text 
x="61" 
y="298" 
dx="0,0" 
class="s2_321"
>说话</text>

<text 
x="239" 
y="298" 
dx="0,0" 
class="s3_321"
>說話</text>

<text 
x="418" 
y="295" 
dx="0,0,0,0,0,0,0,0" 
class="s4_321"
>shuō huà</text>

<text 
x="553" 
y="295" 
dx="0,0" 
class="s5_321"
>vo</text>

<text 
x="619" 
y="295" 
dx="0,0,0,0,0,0,0" 
class="s6_321"
>to talk</text>

<text 
x="809" 
y="295" 
dx="0" 
class="s7_321"
>7</text>

<text 
x="61" 
y="341" 
dx="0" 
class="s2_321"
>送</text>

<text 
x="418" 
y="338" 
dx="0,0,0,0" 
class="s4_321"
>sòng</text>

<text 
x="553" 
y="338" 
dx="0" 
class="s5_321"
>v</text>

<text 
x="619" 
y="328" 
dx="0,0,0,0,0,0,0,0,0,0,0,0,0,0,0,0,0,0,0,0,0,0,0,0,0,-0.3,0" 
class="s6_321"
>to see off or out, to take </text>

<text 
x="619" 
y="347" 
dx="0,0,0,0,0,0,0,0,0,0,0,0,0,0,0,0,0,0,0" 
class="s6_321"
>(someone somewhere)</text>

<text 
x="809" 
y="338" 
dx="0,0" 
class="s7_321"
>10</text>

<text 
x="61" 
y="383" 
dx="0,0" 
class="s2_321"
>宿舍</text>

<text 
x="418" 
y="381" 
dx="0,0,0,0,0" 
class="s4_321"
>sùshè</text>

<text 
x="553" 
y="381" 
dx="0" 
class="s5_321"
>n</text>

<text 
x="619" 
y="380" 
dx="0,0,0,0,0,0,0,0,0" 
class="s6_321"
>dormitory</text>

<text 
x="809" 
y="381" 
dx="0" 
class="s7_321"
>8</text>

<text 
x="61" 
y="426" 
dx="0,0" 
class="s2_321"
>算了</text>

<text 
x="418" 
y="423" 
dx="0,0,0,0,0,0,0" 
class="s4_321"
>suàn le</text>

<text 
x="619" 
y="423" 
dx="0,0,0,0,0,0,0,0,0,0,0,0,0,0,0,0,0,0,0,0,0" 
class="s6_321"
>forget it, never mind</text>

<text 
x="809" 
y="423" 
dx="0" 
class="s7_321"
>4</text>

<text 
x="61" 
y="468" 
dx="0,0" 
class="s2_321"
>虽然</text>

<text 
x="239" 
y="468" 
dx="0,0" 
class="s3_321"
>雖然</text>

<text 
x="418" 
y="465" 
dx="0,0,0,0,0,0" 
class="s4_321"
>suīrán</text>

<text 
x="553" 
y="465" 
dx="0,0,0,0" 
class="s5_321"
>conj</text>

<text 
x="619" 
y="465" 
dx="0,0,0,0,0,0,0,0" 
class="s6_321"
>although</text>

<text 
x="809" 
y="465" 
dx="0" 
class="s7_321"
>9</text>

<text 
x="61" 
y="510" 
dx="0" 
class="s2_321"
>岁</text>

<text 
x="239" 
y="510" 
dx="0" 
class="s3_321"
>歲</text>

<text 
x="418" 
y="507" 
dx="0,0,0" 
class="s4_321"
>suì</text>

<text 
x="553" 
y="507" 
dx="0" 
class="s5_321"
>n</text>

<text 
x="619" 
y="507" 
dx="0,0,0,0,0,0,0,0,0,0,0,0,0" 
class="s6_321"
>year (of age)</text>

<text 
x="809" 
y="507" 
dx="0" 
class="s7_321"
>3</text>

<text 
x="61" 
y="552" 
dx="0,0" 
class="s2_321"
>所以</text>

<text 
x="418" 
y="549" 
dx="0,0,0,0,0" 
class="s4_321"
>suǒyǐ</text>

<text 
x="553" 
y="549" 
dx="0,0,0,0" 
class="s5_321"
>conj</text>

<text 
x="619" 
y="549" 
dx="0,0" 
class="s6_321"
>so</text>

<text 
x="809" 
y="549" 
dx="0" 
class="s7_321"
>4</text>

<text 
x="454" 
y="594" 
dx="0" 
class="s8_321"
>T</text>

<text 
x="61" 
y="636" 
dx="0" 
class="s2_321"
>他</text>

<text 
x="418" 
y="634" 
dx="0,0" 
class="s4_321"
>tā</text>

<text 
x="553" 
y="634" 
dx="0,0" 
class="s5_321"
>pr</text>

<text 
x="619" 
y="633" 
dx="0,0,-0.1,0,0,0,0,0" 
class="s6_321"
>he, him </text>

<text 
x="809" 
y="634" 
dx="0" 
class="s7_321"
>2</text>

<text 
x="61" 
y="679" 
dx="0" 
class="s2_321"
>她</text>

<text 
x="418" 
y="676" 
dx="0,0" 
class="s4_321"
>tā</text>

<text 
x="553" 
y="676" 
dx="0,0" 
class="s5_321"
>pr</text>

<text 
x="619" 
y="676" 
dx="0,0,0,-0.1,0,0,0,0" 
class="s6_321"
>she, her</text>

<text 
x="809" 
y="676" 
dx="0" 
class="s7_321"
>2</text>

<text 
x="61" 
y="721" 
dx="0" 
class="s2_321"
>它</text>

<text 
x="418" 
y="718" 
dx="0,0" 
class="s4_321"
>tā</text>

<text 
x="553" 
y="718" 
dx="0,0" 
class="s5_321"
>pr</text>

<text 
x="619" 
y="718" 
dx="0,0" 
class="s6_321"
>it</text>

<text 
x="809" 
y="718" 
dx="0" 
class="s7_321"
>9</text>

<text 
x="61" 
y="763" 
dx="0,0,0" 
class="s2_321"
>太…了</text>

<text 
x="418" 
y="760" 
dx="0,0,0,0,0,0,0,0,0,0,0,0" 
class="s4_321"
>tài . . . le</text>

<text 
x="619" 
y="760" 
dx="0,0,0,-0.1,0,0,-0.4,0,0,0,0,0,0,0" 
class="s6_321"
>too, extremely</text>

<text 
x="809" 
y="760" 
dx="0" 
class="s7_321"
>3</text>

<text 
x="61" 
y="805" 
dx="0,0" 
class="s2_321"
>特别</text>

<text 
x="239" 
y="805" 
dx="0,0" 
class="s3_321"
>特別</text>

<text 
x="418" 
y="802" 
dx="0,0,0,0,0" 
class="s4_321"
>tèbié</text>

<text 
x="553" 
y="802" 
dx="0,0,0" 
class="s5_321"
>adv</text>

<text 
x="619" 
y="802" 
dx="0,0,0,0,0,0,0,0,0,0" 
class="s6_321"
>especially</text>

<text 
x="809" 
y="802" 
dx="0,0" 
class="s7_321"
>10</text>

<text 
x="61" 
y="847" 
dx="0" 
class="s2_321"
>天</text>

<text 
x="418" 
y="844" 
dx="0,0,0,0" 
class="s4_321"
>tiān</text>

<text 
x="553" 
y="844" 
dx="0" 
class="s5_321"
>n</text>

<text 
x="619" 
y="844" 
dx="0,0,0" 
class="s6_321"
>day</text>

<text 
x="809" 
y="844" 
dx="0" 
class="s7_321"
>3</text>

<text 
x="61" 
y="890" 
dx="0" 
class="s2_321"
>条</text>

<text 
x="239" 
y="890" 
dx="0" 
class="s3_321"
>條</text>

<text 
x="418" 
y="887" 
dx="0,0,0,0" 
class="s4_321"
>tiáo</text>

<text 
x="553" 
y="887" 
dx="0" 
class="s5_321"
>m</text>

<text 
x="619" 
y="877" 
dx="0,0,0,0,0,0,0,0,0,0,0,0,0,0,0,0,0,0,0,0,0,0,0,0" 
class="s6_321"
>(measure word for pants </text>

<text 
x="619" 
y="897" 
dx="0,0,0,0,0,0,0,0,0,0,0,0,0,0,0,0,0,0,0,0,0,0,0" 
class="s6_321"
>and long, thin objects)</text>

<text 
x="809" 
y="887" 
dx="0" 
class="s7_321"
>9</text>

<text 
x="61" 
y="933" 
dx="0,0" 
class="s2_321"
>跳舞</text>

<text 
x="418" 
y="930" 
dx="0,0,0,0,0,0,0" 
class="s4_321"
>tiào wǔ</text>

<text 
x="553" 
y="930" 
dx="0,0" 
class="s5_321"
>vo</text>

<text 
x="619" 
y="930" 
dx="0,0,0,0,0,0,0,0" 
class="s6_321"
>to dance</text>

<text 
x="809" 
y="930" 
dx="0" 
class="s7_321"
>4</text>

<text 
x="61" 
y="975" 
dx="0" 
class="s2_321"
>听</text>

<text 
x="239" 
y="975" 
dx="0" 
class="s3_321"
>聽</text>

<text 
x="418" 
y="972" 
dx="0,0,0,0" 
class="s4_321"
>tīng</text>

<text 
x="553" 
y="972" 
dx="0" 
class="s5_321"
>v</text>

<text 
x="619" 
y="972" 
dx="0,0,0,0,0,0,0,0,0" 
class="s6_321"
>to listen</text>

<text 
x="809" 
y="972" 
dx="0" 
class="s7_321"
>4</text>

<text 
x="61" 
y="1017" 
dx="0" 
class="s2_321"
>挺</text>

<text 
x="418" 
y="1014" 
dx="0,0,0,0" 
class="s4_321"
>tǐng</text>

<text 
x="553" 
y="1015" 
dx="0,0,0" 
class="s5_321"
>adv</text>

<text 
x="619" 
y="1014" 
dx="0,0,0,0,-0.9,0,0,0,0,0,0,0" 
class="s6_321"
>very, rather</text>

<text 
x="809" 
y="1015" 
dx="0" 
class="s7_321"
>9</text>

<text 
x="61" 
y="1059" 
dx="0,0" 
class="s2_321"
>同学</text>

<text 
x="239" 
y="1059" 
dx="0,0" 
class="s3_321"
>同學</text>

<text 
x="418" 
y="1057" 
dx="0,0,0,0,0,0,0" 
class="s4_321"
>tóngxué</text>

<text 
x="553" 
y="1057" 
dx="0" 
class="s5_321"
>n</text>

<text 
x="619" 
y="1056" 
dx="0,0,0,0,0,0,0,0,0" 
class="s6_321"
>classmate</text>

<text 
x="809" 
y="1057" 
dx="0" 
class="s7_321"
>3</text>

<text 
x="61" 
y="1102" 
dx="0,0,0" 
class="s2_321"
>图书馆</text>

<text 
x="239" 
y="1102" 
dx="0,0,0" 
class="s3_321"
>圖書館</text>

<text 
x="418" 
y="1099" 
dx="0,0,0,0,0,0,0,0,0" 
class="s4_321"
>túshūguǎn</text>

<text 
x="553" 
y="1099" 
dx="0" 
class="s5_321"
>n</text>

<text 
x="619" 
y="1099" 
dx="0,0,0,0,0,0,0" 
class="s6_321"
>library</text>

<text 
x="809" 
y="1099" 
dx="0" 
class="s7_321"
>5</text>

<path d="M-22.1,1213.8l58,0l0,-1229.7l-58,0l0,1229.7Z" class="g6_321" />
<text 
transform="matrix(0, -1, 1, 0, 26, 1173)"
dx="0,0.3,0.3,0.3" 
class="s9_321"
>300 </text>

<text 
transform="matrix(0, -1, 1, 0, 26, 1135)"
dx="0,0.3,0.3,0.3,0.3,0.3,0.3,0.3,0.3,0.3,0.3,0.3,0.3,0.3,0.3,0.3,0.3,0.3,0.3,0.3,0.3" 
class="s9_321"
>Integrated Chinese 1 </text>

<text 
transform="matrix(0, -1, 1, 0, 26, 1013)"
dx="0,0.3" 
class="s9_321"
>| </text>

<text 
transform="matrix(0, -1, 1, 0, 26, 1001)"
dx="0,-0.9,-0.1,0.3,0.3,0.3,0.3,0.3" 
class="s9_321"
>Textbook</text>



<!-- Any embedded fonts defined here -->
<style type="text/css" ><![CDATA[

@font-face {
	font-family: Marion-Italic_2si;
	src: url("fonts/Marion-Italic_2si.woff") format("woff");
}

@font-face {
	font-family: ProximaNova-Light_372;
	src: url("fonts/ProximaNova-Light_372.woff") format("woff");
}

@font-face {
	font-family: ProximaNova-Semibold_376;
	src: url("fonts/ProximaNova-Semibold_376.woff") format("woff");
}

@font-face {
	font-family: ProximaNova-Bold_378;
	src: url("fonts/ProximaNova-Bold_378.woff") format("woff");
}

@font-face {
	font-family: ProximaNova-Regular_377;
	src: url("fonts/ProximaNova-Regular_377.woff") format("woff");
}

@font-face {
	font-family: STKaiTi-TC-Regular_371;
	src: url("fonts/STKaiTi-TC-Regular_371.woff") format("woff");
}

@font-face {
	font-family: STKaiti-SC-Regular_2t7;
	src: url("fonts/STKaiti-SC-Regular_2t7.woff") format("woff");
}

]]></style>

</svg>
