<?xml version="1.0" encoding="UTF-8" standalone="no"?>
<!DOCTYPE svg PUBLIC "-//W3C//DTD SVG 1.1//EN"
"http://www.w3.org/Graphics/SVG/1.1/DTD/svg11.dtd">


<!-- Page 333 -->
<svg x="0" y="0" width="921" height="1196" viewBox="0 0 921 1196" version="1.1" xmlns="http://www.w3.org/2000/svg" xmlns:xlink="http://www.w3.org/1999/xlink"
style="display: block;margin-left: auto;margin-right: auto;">
<defs>

<style type="text/css"><![CDATA[

.g1_333{
fill: #F0F1F2;
}
.g2_333{
fill: #BDBEC1;
}
.g3_333{
fill: none;
stroke: #BDBEC1;
stroke-width: 0.38194445;
stroke-linecap: butt;
stroke-linejoin: miter;
}
.g4_333{
fill: none;
stroke: #DADBDD;
stroke-width: 1.5277778;
stroke-linecap: butt;
stroke-linejoin: miter;
}
.g5_333{
fill: none;
stroke: #BDBEC1;
stroke-width: 1.5277778;
stroke-linecap: butt;
stroke-linejoin: miter;
}
.g6_333{
fill: #57585A;
stroke: #B2B3B7;
stroke-width: 1.5277778;
stroke-linecap: butt;
stroke-linejoin: miter;
stroke-miterlimit: 4;
}

.s1_333{
font-size: 15.28px;
font-family: ProximaNova-Bold_378;
fill: #57585A;
}
.s2_333{
font-size: 15.28px;
font-family: ProximaNova-Light_372;
fill: #3F3F40;
}
.s3_333{
font-size: 24.44px;
font-family: STKaiti-SC-Regular_2t7;
fill: #57585A;
}
.s4_333{
font-size: 16.81px;
font-family: Marion-Italic_2si;
fill: #3F3F40;
}
.s5_333{
font-size: 15.28px;
font-family: ProximaNova-Regular_377;
fill: #3F3F40;
}
.s6_333{
font-size: 15.28px;
font-family: ProximaNova-Semibold_376;
fill: #77787B;
}
.s7_333{
font-size: 24.44px;
font-family: STKaiTi-TC-Regular_371;
fill: #57585A;
}
.s8_333{
font-size: 21.39px;
font-family: ProximaNova-Semibold_376;
fill: #3F3F40;
}
.s9_333{
font-size: 11.46px;
font-family: ProximaNova-Semibold_376;
fill: #FFFFFF;
}

]]></style>

</defs>
<path d="M0,0
L0,1196
L921,1196
L921,0 Z " 
fill="#FFFFFF" stroke="none" />
<path d="M55,93l178.8,0l0,44.8L55,137.8L55,93Zm178.8,0l196.9,0l0,44.8l-196.9,0l0,-44.8Zm196.9,0l196.9,0l0,44.8l-196.9,0l0,-44.8Zm196.9,0l104.5,0l0,44.8l-104.5,0l0,-44.8Zm104.5,0l70.4,0l0,44.8l-70.4,0l0,-44.8Zm70.4,0l63.8,0l0,44.8l-63.8,0l0,-44.8ZM55,179.9l178.8,0l0,42.2L55,222.1l0,-42.2Zm178.8,0l196.9,0l0,42.2l-196.9,0l0,-42.2Zm196.9,0l196.9,0l0,42.2l-196.9,0l0,-42.2Zm196.9,0l104.5,0l0,42.2l-104.5,0l0,-42.2Zm104.5,0l70.4,0l0,42.2l-70.4,0l0,-42.2Zm70.4,0l63.8,0l0,42.2l-63.8,0l0,-42.2ZM55,264.3l178.8,0l0,42.1L55,306.4l0,-42.1Zm178.8,0l196.9,0l0,42.1l-196.9,0l0,-42.1Zm196.9,0l196.9,0l0,42.1l-196.9,0l0,-42.1Zm196.9,0l104.5,0l0,42.1l-104.5,0l0,-42.1Zm104.5,0l70.4,0l0,42.1l-70.4,0l0,-42.1Zm70.4,0l63.8,0l0,42.1l-63.8,0l0,-42.1ZM55,348.6l178.8,0l0,42.1L55,390.7l0,-42.1Zm178.8,0l196.9,0l0,42.1l-196.9,0l0,-42.1Zm196.9,0l196.9,0l0,42.1l-196.9,0l0,-42.1Zm196.9,0l104.5,0l0,42.1l-104.5,0l0,-42.1Zm104.5,0l70.4,0l0,42.1l-70.4,0l0,-42.1Zm70.4,0l63.8,0l0,42.1l-63.8,0l0,-42.1ZM55,432.9l178.8,0l0,42.2L55,475.1l0,-42.2Zm178.8,0l196.9,0l0,42.2l-196.9,0l0,-42.2Zm196.9,0l196.9,0l0,42.2l-196.9,0l0,-42.2Zm196.9,0l104.5,0l0,42.2l-104.5,0l0,-42.2Zm104.5,0l70.4,0l0,42.2l-70.4,0l0,-42.2Zm70.4,0l63.8,0l0,42.2l-63.8,0l0,-42.2ZM55,519.2l178.8,0l0,42.2L55,561.4l0,-42.2Zm178.8,0l196.9,0l0,42.2l-196.9,0l0,-42.2Zm196.9,0l196.9,0l0,42.2l-196.9,0l0,-42.2Zm196.9,0l104.5,0l0,42.2l-104.5,0l0,-42.2Zm104.5,0l70.4,0l0,42.2l-70.4,0l0,-42.2Zm70.4,0l63.8,0l0,42.2l-63.8,0l0,-42.2ZM55,603.6l178.8,0l0,42.1L55,645.7l0,-42.1Zm178.8,0l196.9,0l0,42.1l-196.9,0l0,-42.1Zm196.9,0l196.9,0l0,42.1l-196.9,0l0,-42.1Zm196.9,0l104.5,0l0,42.1l-104.5,0l0,-42.1Zm104.5,0l70.4,0l0,42.1l-70.4,0l0,-42.1Zm70.4,0l63.8,0l0,42.1l-63.8,0l0,-42.1ZM55,687.9l178.8,0l0,42.1L55,730l0,-42.1Zm178.8,0l196.9,0l0,42.1l-196.9,0l0,-42.1Zm196.9,0l196.9,0l0,42.1l-196.9,0l0,-42.1Zm196.9,0l104.5,0l0,42.1l-104.5,0l0,-42.1Zm104.5,0l70.4,0l0,42.1l-70.4,0l0,-42.1Zm70.4,0l63.8,0l0,42.1l-63.8,0l0,-42.1ZM55,773.9l178.8,0l0,42.2L55,816.1l0,-42.2Zm178.8,0l196.9,0l0,42.2l-196.9,0l0,-42.2Zm196.9,0l196.9,0l0,42.2l-196.9,0l0,-42.2Zm196.9,0l104.5,0l0,42.2l-104.5,0l0,-42.2Zm104.5,0l70.4,0l0,42.2l-70.4,0l0,-42.2Zm70.4,0l63.8,0l0,42.2l-63.8,0l0,-42.2ZM55,858.2l178.8,0l0,42.2L55,900.4l0,-42.2Zm178.8,0l196.9,0l0,42.2l-196.9,0l0,-42.2Zm196.9,0l196.9,0l0,42.2l-196.9,0l0,-42.2Zm196.9,0l104.5,0l0,42.2l-104.5,0l0,-42.2Zm104.5,0l70.4,0l0,42.2l-70.4,0l0,-42.2Zm70.4,0l63.8,0l0,42.2l-63.8,0l0,-42.2ZM55,944.5l178.8,0l0,42.2L55,986.7l0,-42.2Zm178.8,0l196.9,0l0,42.2l-196.9,0l0,-42.2Zm196.9,0l196.9,0l0,42.2l-196.9,0l0,-42.2Zm196.9,0l104.5,0l0,42.2l-104.5,0l0,-42.2Zm104.5,0l70.4,0l0,42.2l-70.4,0l0,-42.2Zm70.4,0l63.8,0l0,42.2l-63.8,0l0,-42.2ZM55,1030.8l178.8,0l0,42.8l-178.8,0l0,-42.8Zm178.8,0l196.9,0l0,42.8l-196.9,0l0,-42.8Zm196.9,0l196.9,0l0,42.8l-196.9,0l0,-42.8Zm196.9,0l104.5,0l0,42.8l-104.5,0l0,-42.8Zm104.5,0l70.4,0l0,42.8l-70.4,0l0,-42.8Zm70.4,0l63.8,0l0,42.8l-63.8,0l0,-42.8Z" class="g1_333" />
<path d="M55,645.7l811.3,0l0,42.2L55,687.9l0,-42.2Z" class="g2_333" />
<path d="M55,645.7l178.8,0" class="g3_333" />
<path d="M233.8,645.7l196.9,0" class="g3_333" />
<path d="M430.7,645.7l196.9,0" class="g3_333" />
<path d="M627.6,645.7l104.5,0" class="g3_333" />
<path d="M732.1,645.7l70.4,0" class="g3_333" />
<path d="M802.5,645.7l63.8,0" class="g3_333" />
<path d="M55,687.9l178.8,0" class="g3_333" />
<path d="M233.8,687.9l196.9,0" class="g3_333" />
<path d="M430.7,687.9l196.9,0" class="g3_333" />
<path d="M627.6,687.9l104.5,0" class="g3_333" />
<path d="M732.1,687.9l70.4,0" class="g3_333" />
<path d="M802.5,687.9l63.8,0" class="g3_333" />
<path d="M55,93l178.8,0" class="g4_333" />
<path d="M233.8,93l196.9,0" class="g4_333" />
<path d="M430.7,93l196.9,0" class="g4_333" />
<path d="M627.6,93l104.5,0" class="g4_333" />
<path d="M732.1,93l70.4,0" class="g4_333" />
<path d="M802.5,93l63.8,0" class="g4_333" />
<path d="M55,1073.6l178.8,0" class="g5_333" />
<path d="M233.8,1073.6l196.9,0" class="g5_333" />
<path d="M430.7,1073.6l196.9,0" class="g5_333" />
<path d="M627.6,1073.6l104.5,0" class="g5_333" />
<path d="M732.1,1073.6l70.4,0" class="g5_333" />
<path d="M802.5,1073.6l63.8,0" class="g5_333" />
<path d="M55,137.8l178.8,0" class="g3_333" />
<path d="M233.8,137.8l196.9,0" class="g3_333" />
<path d="M430.7,137.8l196.9,0" class="g3_333" />
<path d="M627.6,137.8l104.5,0" class="g3_333" />
<path d="M732.1,137.8l70.4,0" class="g3_333" />
<path d="M802.5,137.8l63.8,0" class="g3_333" />
<path d="M55,179.9l178.8,0" class="g3_333" />
<path d="M233.8,179.9l196.9,0" class="g3_333" />
<path d="M430.7,179.9l196.9,0" class="g3_333" />
<path d="M627.6,179.9l104.5,0" class="g3_333" />
<path d="M732.1,179.9l70.4,0" class="g3_333" />
<path d="M802.5,179.9l63.8,0" class="g3_333" />
<path d="M55,222.1l178.8,0" class="g3_333" />
<path d="M233.8,222.1l196.9,0" class="g3_333" />
<path d="M430.7,222.1l196.9,0" class="g3_333" />
<path d="M627.6,222.1l104.5,0" class="g3_333" />
<path d="M732.1,222.1l70.4,0" class="g3_333" />
<path d="M802.5,222.1l63.8,0" class="g3_333" />
<path d="M55,264.3l178.8,0" class="g3_333" />
<path d="M233.8,264.3l196.9,0" class="g3_333" />
<path d="M430.7,264.3l196.9,0" class="g3_333" />
<path d="M627.6,264.3l104.5,0" class="g3_333" />
<path d="M732.1,264.3l70.4,0" class="g3_333" />
<path d="M802.5,264.3l63.8,0" class="g3_333" />
<path d="M55,306.4l178.8,0" class="g3_333" />
<path d="M233.8,306.4l196.9,0" class="g3_333" />
<path d="M430.7,306.4l196.9,0" class="g3_333" />
<path d="M627.6,306.4l104.5,0" class="g3_333" />
<path d="M732.1,306.4l70.4,0" class="g3_333" />
<path d="M802.5,306.4l63.8,0" class="g3_333" />
<path d="M55,348.6l178.8,0" class="g3_333" />
<path d="M233.8,348.6l196.9,0" class="g3_333" />
<path d="M430.7,348.6l196.9,0" class="g3_333" />
<path d="M627.6,348.6l104.5,0" class="g3_333" />
<path d="M732.1,348.6l70.4,0" class="g3_333" />
<path d="M802.5,348.6l63.8,0" class="g3_333" />
<path d="M55,390.7l178.8,0" class="g3_333" />
<path d="M233.8,390.7l196.9,0" class="g3_333" />
<path d="M430.7,390.7l196.9,0" class="g3_333" />
<path d="M627.6,390.7l104.5,0" class="g3_333" />
<path d="M732.1,390.7l70.4,0" class="g3_333" />
<path d="M802.5,390.7l63.8,0" class="g3_333" />
<path d="M55,432.9l178.8,0" class="g3_333" />
<path d="M233.8,432.9l196.9,0" class="g3_333" />
<path d="M430.7,432.9l196.9,0" class="g3_333" />
<path d="M627.6,432.9l104.5,0" class="g3_333" />
<path d="M732.1,432.9l70.4,0" class="g3_333" />
<path d="M802.5,432.9l63.8,0" class="g3_333" />
<path d="M55,475.1l178.8,0" class="g3_333" />
<path d="M233.8,475.1l196.9,0" class="g3_333" />
<path d="M430.7,475.1l196.9,0" class="g3_333" />
<path d="M627.6,475.1l104.5,0" class="g3_333" />
<path d="M732.1,475.1l70.4,0" class="g3_333" />
<path d="M802.5,475.1l63.8,0" class="g3_333" />
<path d="M55,519.2l178.8,0" class="g3_333" />
<path d="M233.8,519.2l196.9,0" class="g3_333" />
<path d="M430.7,519.2l196.9,0" class="g3_333" />
<path d="M627.6,519.2l104.5,0" class="g3_333" />
<path d="M732.1,519.2l70.4,0" class="g3_333" />
<path d="M802.5,519.2l63.8,0" class="g3_333" />
<path d="M55,561.4l178.8,0" class="g3_333" />
<path d="M233.8,561.4l196.9,0" class="g3_333" />
<path d="M430.7,561.4l196.9,0" class="g3_333" />
<path d="M627.6,561.4l104.5,0" class="g3_333" />
<path d="M732.1,561.4l70.4,0" class="g3_333" />
<path d="M802.5,561.4l63.8,0" class="g3_333" />
<path d="M55,603.5l178.8,0" class="g3_333" />
<path d="M233.8,603.5l196.9,0" class="g3_333" />
<path d="M430.7,603.5l196.9,0" class="g3_333" />
<path d="M627.6,603.5l104.5,0" class="g3_333" />
<path d="M732.1,603.5l70.4,0" class="g3_333" />
<path d="M802.5,603.5l63.8,0" class="g3_333" />
<path d="M55,730l178.8,0" class="g3_333" />
<path d="M233.8,730l196.9,0" class="g3_333" />
<path d="M430.7,730l196.9,0" class="g3_333" />
<path d="M627.6,730l104.5,0" class="g3_333" />
<path d="M732.1,730l70.4,0" class="g3_333" />
<path d="M802.5,730l63.8,0" class="g3_333" />
<path d="M55,773.9l178.8,0" class="g3_333" />
<path d="M233.8,773.9l196.9,0" class="g3_333" />
<path d="M430.7,773.9l196.9,0" class="g3_333" />
<path d="M627.6,773.9l104.5,0" class="g3_333" />
<path d="M732.1,773.9l70.4,0" class="g3_333" />
<path d="M802.5,773.9l63.8,0" class="g3_333" />
<path d="M55,816l178.8,0" class="g3_333" />
<path d="M233.8,816l196.9,0" class="g3_333" />
<path d="M430.7,816l196.9,0" class="g3_333" />
<path d="M627.6,816l104.5,0" class="g3_333" />
<path d="M732.1,816l70.4,0" class="g3_333" />
<path d="M802.5,816l63.8,0" class="g3_333" />
<path d="M55,858.2l178.8,0" class="g3_333" />
<path d="M233.8,858.2l196.9,0" class="g3_333" />
<path d="M430.7,858.2l196.9,0" class="g3_333" />
<path d="M627.6,858.2l104.5,0" class="g3_333" />
<path d="M732.1,858.2l70.4,0" class="g3_333" />
<path d="M802.5,858.2l63.8,0" class="g3_333" />
<path d="M55,900.4l178.8,0" class="g3_333" />
<path d="M233.8,900.4l196.9,0" class="g3_333" />
<path d="M430.7,900.4l196.9,0" class="g3_333" />
<path d="M627.6,900.4l104.5,0" class="g3_333" />
<path d="M732.1,900.4l70.4,0" class="g3_333" />
<path d="M802.5,900.4l63.8,0" class="g3_333" />
<path d="M55,944.5l178.8,0" class="g3_333" />
<path d="M233.8,944.5l196.9,0" class="g3_333" />
<path d="M430.7,944.5l196.9,0" class="g3_333" />
<path d="M627.6,944.5l104.5,0" class="g3_333" />
<path d="M732.1,944.5l70.4,0" class="g3_333" />
<path d="M802.5,944.5l63.8,0" class="g3_333" />
<path d="M55,986.7l178.8,0" class="g3_333" />
<path d="M233.8,986.7l196.9,0" class="g3_333" />
<path d="M430.7,986.7l196.9,0" class="g3_333" />
<path d="M627.6,986.7l104.5,0" class="g3_333" />
<path d="M732.1,986.7l70.4,0" class="g3_333" />
<path d="M802.5,986.7l63.8,0" class="g3_333" />
<path d="M55,1030.8l178.8,0" class="g3_333" />
<path d="M233.8,1030.8l196.9,0" class="g3_333" />
<path d="M430.7,1030.8l196.9,0" class="g3_333" />
<path d="M627.6,1030.8l104.5,0" class="g3_333" />
<path d="M732.1,1030.8l70.4,0" class="g3_333" />
<path d="M802.5,1030.8l63.8,0" class="g3_333" />
<text 
x="61" 
y="80" 
dx="0,0,0,0,0,0,0" 
class="s1_333"
>English</text>

<text 
x="239" 
y="80" 
dx="0,0,0,0,0,0,0,0,0,0" 
class="s1_333"
>Simplified</text>

<text 
x="436" 
y="80" 
dx="0,-1,0,0,0,0,0,0,0,0,0" 
class="s1_333"
>Traditional</text>

<text 
x="633" 
y="80" 
dx="0,0,0,0,0,0" 
class="s1_333"
>Pinyin</text>

<text 
x="738" 
y="73" 
dx="0,-0.3,0,0,0,0,0,0" 
class="s1_333"
>Part of </text>

<text 
x="738" 
y="86" 
dx="0,0,0,0,0,0" 
class="s1_333"
>Speech</text>

<text 
x="808" 
y="80" 
dx="0,-0.2,0,0,0,0" 
class="s1_333"
>Lesson</text>

<text 
x="61" 
y="111" 
dx="0,0,0,0,0,0,0,0,0,0,0,0,0" 
class="s2_333"
>Hello!, Hey! </text>

<text 
x="61" 
y="131" 
dx="0,0,0,0,0,0,0,0,0,0,0,0,0,0" 
class="s2_333"
>(on the phone)</text>

<text 
x="239" 
y="124" 
dx="0" 
class="s3_333"
>喂</text>

<text 
x="633" 
y="121" 
dx="0,0,0,0,0,0,0" 
class="s4_333"
>wéi/wèi</text>

<text 
x="738" 
y="121" 
dx="0,0,0,0,0,0" 
class="s5_333"
>interj</text>

<text 
x="808" 
y="121" 
dx="0" 
class="s6_333"
>6</text>

<text 
x="61" 
y="164" 
dx="0,0,0,0" 
class="s2_333"
>help</text>

<text 
x="239" 
y="167" 
dx="0" 
class="s3_333"
>帮</text>

<text 
x="436" 
y="167" 
dx="0" 
class="s7_333"
>幫</text>

<text 
x="633" 
y="164" 
dx="0,0,0,0" 
class="s4_333"
>bāng</text>

<text 
x="738" 
y="164" 
dx="0" 
class="s5_333"
>v</text>

<text 
x="808" 
y="164" 
dx="0" 
class="s6_333"
>6</text>

<text 
x="61" 
y="207" 
dx="0,0,0,0" 
class="s2_333"
>here</text>

<text 
x="239" 
y="209" 
dx="0,0" 
class="s3_333"
>这儿</text>

<text 
x="436" 
y="209" 
dx="0,0" 
class="s7_333"
>這兒</text>

<text 
x="633" 
y="206" 
dx="0,0,0,0" 
class="s4_333"
>zhèr</text>

<text 
x="738" 
y="207" 
dx="0,0" 
class="s5_333"
>pr</text>

<text 
x="808" 
y="207" 
dx="0" 
class="s6_333"
>9</text>

<text 
x="61" 
y="249" 
dx="0,0,0,0,0,0,0" 
class="s2_333"
>highway</text>

<text 
x="239" 
y="251" 
dx="0,0,0,0" 
class="s3_333"
>高速公路</text>

<text 
x="633" 
y="249" 
dx="0,0,0,0,0,0,0,0,0,0,0,0" 
class="s4_333"
>gāosù gōnglù</text>

<text 
x="738" 
y="249" 
dx="0" 
class="s5_333"
>n</text>

<text 
x="808" 
y="249" 
dx="0,0" 
class="s6_333"
>10</text>

<text 
x="61" 
y="291" 
dx="0,0,0,0,0,0,0,0,0,0,0,0,0,0,0,0,0,0,0,0" 
class="s2_333"
>homework, schoolwork</text>

<text 
x="239" 
y="294" 
dx="0,0" 
class="s3_333"
>功课</text>

<text 
x="436" 
y="294" 
dx="0,0" 
class="s7_333"
>功課</text>

<text 
x="633" 
y="291" 
dx="0,0,0,0,0,0" 
class="s4_333"
>gōngkè</text>

<text 
x="738" 
y="291" 
dx="0" 
class="s5_333"
>n</text>

<text 
x="808" 
y="291" 
dx="0" 
class="s6_333"
>7</text>

<text 
x="61" 
y="333" 
dx="0,0,0,0,0,0,0,0,0,-0.1,0,0,-0.4,0,0,0,0,0,0,0" 
class="s2_333"
>honorable, expensive</text>

<text 
x="239" 
y="336" 
dx="0" 
class="s3_333"
>贵</text>

<text 
x="436" 
y="336" 
dx="0" 
class="s7_333"
>貴</text>

<text 
x="633" 
y="333" 
dx="0,0,0" 
class="s4_333"
>guì</text>

<text 
x="738" 
y="333" 
dx="0,0,0" 
class="s5_333"
>adj</text>

<text 
x="808" 
y="333" 
dx="0" 
class="s6_333"
>1</text>

<text 
x="61" 
y="375" 
dx="0,0,0,0,0,0,0,0,0,0" 
class="s2_333"
>hope; hope</text>

<text 
x="239" 
y="378" 
dx="0,0" 
class="s3_333"
>希望</text>

<text 
x="436" 
y="378" 
dx="0,0" 
class="s7_333"
>希望</text>

<text 
x="633" 
y="375" 
dx="0,0,0,0,0,0" 
class="s4_333"
>xīwàng</text>

<text 
x="738" 
y="375" 
dx="0,0,0" 
class="s5_333"
>v/n</text>

<text 
x="808" 
y="375" 
dx="0" 
class="s6_333"
>8</text>

<text 
x="61" 
y="417" 
dx="0,0,0,-0.7,0,0,0,0,0,0,0,0,0" 
class="s2_333"
>how, how come</text>

<text 
x="239" 
y="420" 
dx="0,0" 
class="s3_333"
>怎么</text>

<text 
x="436" 
y="420" 
dx="0,0" 
class="s7_333"
>怎麼</text>

<text 
x="633" 
y="417" 
dx="0,0,0,0,0" 
class="s4_333"
>zěnme</text>

<text 
x="738" 
y="417" 
dx="0,0,0" 
class="s5_333"
>qpr</text>

<text 
x="808" 
y="417" 
dx="0" 
class="s6_333"
>7</text>

<text 
x="61" 
y="460" 
dx="0,0,0,0,0,0,0,0,-0.9,0,0,0,0,0,-0.1,0,0,0,0,0,0" 
class="s2_333"
>how many, some, a few</text>

<text 
x="239" 
y="462" 
dx="0" 
class="s3_333"
>几</text>

<text 
x="436" 
y="462" 
dx="0" 
class="s7_333"
>幾</text>

<text 
x="633" 
y="459" 
dx="0,0" 
class="s4_333"
>jǐ</text>

<text 
x="738" 
y="460" 
dx="0,0" 
class="s5_333"
>nu</text>

<text 
x="808" 
y="460" 
dx="0" 
class="s6_333"
>2</text>

<text 
x="61" 
y="493" 
dx="0,0,0,0,0,0,0,0,0,0,0,0,0,0,0" 
class="s2_333"
>how many/much, </text>

<text 
x="61" 
y="513" 
dx="0,0,0,0,0,0,0,0,0,-0.4,0,0,0,0" 
class="s2_333"
>to what extent</text>

<text 
x="239" 
y="505" 
dx="0" 
class="s3_333"
>多</text>

<text 
x="633" 
y="503" 
dx="0,0,0" 
class="s4_333"
>duō</text>

<text 
x="738" 
y="503" 
dx="0,0,0" 
class="s5_333"
>adv</text>

<text 
x="808" 
y="503" 
dx="0" 
class="s6_333"
>3</text>

<text 
x="61" 
y="546" 
dx="0,0,0,0,0,0,0,0,0,0,0,0,0" 
class="s2_333"
>how much/many</text>

<text 
x="239" 
y="549" 
dx="0,0" 
class="s3_333"
>多少</text>

<text 
x="633" 
y="546" 
dx="0,0,0,0,0,0,0" 
class="s4_333"
>duōshao</text>

<text 
x="738" 
y="546" 
dx="0,0,0" 
class="s5_333"
>qpr</text>

<text 
x="808" 
y="546" 
dx="0" 
class="s6_333"
>9</text>

<text 
x="61" 
y="588" 
dx="0,0,0,0,0,0,0,-1.3,0,0,0,0" 
class="s2_333"
>however, but</text>

<text 
x="239" 
y="591" 
dx="0,0" 
class="s3_333"
>不过</text>

<text 
x="436" 
y="591" 
dx="0,0" 
class="s7_333"
>不過</text>

<text 
x="633" 
y="588" 
dx="0,0,0,0,0" 
class="s4_333"
>búguò</text>

<text 
x="738" 
y="588" 
dx="0,0,0,0" 
class="s5_333"
>conj</text>

<text 
x="808" 
y="588" 
dx="0" 
class="s6_333"
>9</text>

<text 
x="61" 
y="630" 
dx="0,0,0,0,0,0,0" 
class="s2_333"
>hundred</text>

<text 
x="239" 
y="633" 
dx="0" 
class="s3_333"
>百</text>

<text 
x="633" 
y="630" 
dx="0,0,0" 
class="s4_333"
>bǎi</text>

<text 
x="738" 
y="630" 
dx="0,0" 
class="s5_333"
>nu</text>

<text 
x="808" 
y="630" 
dx="0" 
class="s6_333"
>9</text>

<text 
x="457" 
y="675" 
dx="0" 
class="s8_333"
>I</text>

<text 
x="61" 
y="714" 
dx="0,0,0,0,0" 
class="s2_333"
>I, me</text>

<text 
x="239" 
y="717" 
dx="0" 
class="s3_333"
>我</text>

<text 
x="633" 
y="714" 
dx="0,0" 
class="s4_333"
>wǒ</text>

<text 
x="738" 
y="714" 
dx="0,0" 
class="s5_333"
>pr</text>

<text 
x="808" 
y="714" 
dx="0" 
class="s6_333"
>1</text>

<text 
x="61" 
y="757" 
dx="0,0" 
class="s2_333"
>if</text>

<text 
x="239" 
y="760" 
dx="0,0,0,0,0" 
class="s3_333"
>如果…的话</text>

<text 
x="436" 
y="760" 
dx="0,0,0,0,0" 
class="s7_333"
>如果…的話</text>

<text 
x="633" 
y="747" 
dx="0,0,0,0,0,0,0,0,0,0,0,0,0,0,0" 
class="s4_333"
>rúguǒ . . . de </text>

<text 
x="633" 
y="767" 
dx="0,0,0" 
class="s4_333"
>huà</text>

<text 
x="738" 
y="757" 
dx="0,0,0,0" 
class="s5_333"
>conj</text>

<text 
x="808" 
y="757" 
dx="0" 
class="s6_333"
>9</text>

<text 
x="61" 
y="801" 
dx="0,0" 
class="s2_333"
>if</text>

<text 
x="239" 
y="803" 
dx="0,0" 
class="s3_333"
>要是</text>

<text 
x="633" 
y="800" 
dx="0,0,0,0,0,0" 
class="s4_333"
>yàoshi</text>

<text 
x="738" 
y="801" 
dx="0,0,0,0" 
class="s5_333"
>conj</text>

<text 
x="808" 
y="801" 
dx="0" 
class="s6_333"
>6</text>

<text 
x="61" 
y="843" 
dx="0,0,0,0,0,0,0,0,0,0,0,0,0,0,-0.1,0,0,0,0,0,0,0,0" 
class="s2_333"
>in addition to, besides</text>

<text 
x="239" 
y="845" 
dx="0,0,0,0,0" 
class="s3_333"
>除了…以外</text>

<text 
x="633" 
y="843" 
dx="0,0,0,0,0,0,0,0,0,0,0,0,0,0,0,0,0" 
class="s4_333"
>chúle . . . yǐwài</text>

<text 
x="738" 
y="843" 
dx="0,0,0,0" 
class="s5_333"
>conj</text>

<text 
x="808" 
y="843" 
dx="0" 
class="s6_333"
>8</text>

<text 
x="61" 
y="885" 
dx="0,0,0,0,0,0,0,0,0,0,0,0,-0.1,0,0,0,0,0" 
class="s2_333"
>in that case, then</text>

<text 
x="239" 
y="888" 
dx="0" 
class="s3_333"
>那</text>

<text 
x="633" 
y="885" 
dx="0,0" 
class="s4_333"
>nà</text>

<text 
x="738" 
y="885" 
dx="0,0,0,0" 
class="s5_333"
>conj</text>

<text 
x="808" 
y="885" 
dx="0" 
class="s6_333"
>4</text>

<text 
x="61" 
y="918" 
dx="0,0,0,0,0,0,0,0,0,0,0,0,0,0,0,0,0" 
class="s2_333"
>in the middle of </text>

<text 
x="61" 
y="938" 
dx="0,0,0,0,0,0,0,0,0,0,0,0,0,0,0,0,0" 
class="s2_333"
>(doing something)</text>

<text 
x="239" 
y="931" 
dx="0,0" 
class="s3_333"
>正在</text>

<text 
x="633" 
y="928" 
dx="0,0,0,0,0,0,0,0" 
class="s4_333"
>zhèngzài</text>

<text 
x="738" 
y="928" 
dx="0,0,0" 
class="s5_333"
>adv</text>

<text 
x="808" 
y="928" 
dx="0" 
class="s6_333"
>8</text>

<text 
x="61" 
y="971" 
dx="0,0,0,0,0,0,0,0,0,0,0" 
class="s2_333"
>interesting</text>

<text 
x="239" 
y="974" 
dx="0,0,0" 
class="s3_333"
>有意思</text>

<text 
x="633" 
y="971" 
dx="0,0,0,0,0,0,0,0" 
class="s4_333"
>yǒu yìsi</text>

<text 
x="738" 
y="971" 
dx="0,0,0" 
class="s5_333"
>adj</text>

<text 
x="808" 
y="971" 
dx="0" 
class="s6_333"
>4</text>

<text 
x="61" 
y="1004" 
dx="0,0,0,0,0,0,0,0,0,0,0,0,0,0,0,0,0,0,0,0,0,0,0,0,0,0,0,0" 
class="s2_333"
>(interjectory particle used </text>

<text 
x="61" 
y="1024" 
dx="0,0,0,0,0,0,0,0,0,0,0,0,0,0,0,0,0,0,0,0,0" 
class="s2_333"
>to soften a question)</text>

<text 
x="239" 
y="1017" 
dx="0" 
class="s3_333"
>呀</text>

<text 
x="633" 
y="1014" 
dx="0,0" 
class="s4_333"
>ya</text>

<text 
x="738" 
y="1014" 
dx="0" 
class="s5_333"
>p</text>

<text 
x="808" 
y="1014" 
dx="0" 
class="s6_333"
>5</text>

<text 
x="61" 
y="1057" 
dx="0,0,0,0,0,0,0,0,0" 
class="s2_333"
>introduce</text>

<text 
x="239" 
y="1060" 
dx="0,0" 
class="s3_333"
>介绍</text>

<text 
x="436" 
y="1060" 
dx="0,0" 
class="s7_333"
>介紹</text>

<text 
x="633" 
y="1057" 
dx="0,0,0,0,0,0,0" 
class="s4_333"
>jièshào</text>

<text 
x="738" 
y="1057" 
dx="0" 
class="s5_333"
>v</text>

<text 
x="808" 
y="1057" 
dx="0" 
class="s6_333"
>5</text>

<path d="M-22.1,1213.8l58,0l0,-1229.7l-58,0l0,1229.7Z" class="g6_333" />
<text 
transform="matrix(0, -1, 1, 0, 26, 1173)"
dx="0,0.3,0.3,0.3" 
class="s9_333"
>312 </text>

<text 
transform="matrix(0, -1, 1, 0, 26, 1138)"
dx="0,0.3,0.3,0.3,0.3,0.3,0.3,0.3,0.3,0.3,0.3,0.3,0.3,0.3,0.3,0.3,0.3,0.3,0.3,0.3,0.3" 
class="s9_333"
>Integrated Chinese 1 </text>

<text 
transform="matrix(0, -1, 1, 0, 26, 1016)"
dx="0,0.3" 
class="s9_333"
>| </text>

<text 
transform="matrix(0, -1, 1, 0, 26, 1003)"
dx="0,-0.9,-0.1,0.3,0.3,0.3,0.3,0.3" 
class="s9_333"
>Textbook</text>



<!-- Any embedded fonts defined here -->
<style type="text/css" ><![CDATA[

@font-face {
	font-family: Marion-Italic_2si;
	src: url("fonts/Marion-Italic_2si.woff") format("woff");
}

@font-face {
	font-family: ProximaNova-Light_372;
	src: url("fonts/ProximaNova-Light_372.woff") format("woff");
}

@font-face {
	font-family: ProximaNova-Semibold_376;
	src: url("fonts/ProximaNova-Semibold_376.woff") format("woff");
}

@font-face {
	font-family: ProximaNova-Bold_378;
	src: url("fonts/ProximaNova-Bold_378.woff") format("woff");
}

@font-face {
	font-family: STKaiTi-TC-Regular_371;
	src: url("fonts/STKaiTi-TC-Regular_371.woff") format("woff");
}

@font-face {
	font-family: ProximaNova-Regular_377;
	src: url("fonts/ProximaNova-Regular_377.woff") format("woff");
}

@font-face {
	font-family: STKaiti-SC-Regular_2t7;
	src: url("fonts/STKaiti-SC-Regular_2t7.woff") format("woff");
}

]]></style>

</svg>
