<?xml version="1.0" encoding="UTF-8" standalone="no"?>
<!DOCTYPE svg PUBLIC "-//W3C//DTD SVG 1.1//EN"
"http://www.w3.org/Graphics/SVG/1.1/DTD/svg11.dtd">


<!-- Page 343 -->
<svg x="0" y="0" width="921" height="1196" viewBox="0 0 921 1196" version="1.1" xmlns="http://www.w3.org/2000/svg" xmlns:xlink="http://www.w3.org/1999/xlink"
style="display: block;margin-left: auto;margin-right: auto;">
<defs>

<style type="text/css"><![CDATA[

.g1_343{
fill: #F0F1F2;
}
.g2_343{
fill: #BDBEC1;
}
.g3_343{
fill: none;
stroke: #BDBEC1;
stroke-width: 0.38194445;
stroke-linecap: butt;
stroke-linejoin: miter;
}
.g4_343{
fill: none;
stroke: #DADBDD;
stroke-width: 1.5277778;
stroke-linecap: butt;
stroke-linejoin: miter;
}
.g5_343{
fill: none;
stroke: #BDBEC1;
stroke-width: 1.5277778;
stroke-linecap: butt;
stroke-linejoin: miter;
}
.g6_343{
fill: #57585A;
stroke: #B2B3B7;
stroke-width: 1.5277778;
stroke-linecap: butt;
stroke-linejoin: miter;
stroke-miterlimit: 4;
}

.s1_343{
font-size: 15.28px;
font-family: ProximaNova-Bold_378;
fill: #57585A;
}
.s2_343{
font-size: 15.28px;
font-family: ProximaNova-Light_372;
fill: #3F3F40;
}
.s3_343{
font-size: 24.44px;
font-family: STKaiti-SC-Regular_2t7;
fill: #57585A;
}
.s4_343{
font-size: 24.44px;
font-family: STKaiTi-TC-Regular_371;
fill: #57585A;
}
.s5_343{
font-size: 16.81px;
font-family: Marion-Italic_2si;
fill: #3F3F40;
}
.s6_343{
font-size: 15.28px;
font-family: ProximaNova-Regular_377;
fill: #3F3F40;
}
.s7_343{
font-size: 15.28px;
font-family: ProximaNova-Semibold_376;
fill: #77787B;
}
.s8_343{
font-size: 21.39px;
font-family: ProximaNova-Semibold_376;
fill: #3F3F40;
}
.s9_343{
font-size: 18.33px;
font-family: STKaiti-SC-Regular_2t7;
fill: #3F3F40;
}
.s10_343{
font-size: 11.46px;
font-family: ProximaNova-Semibold_376;
fill: #FFFFFF;
}

]]></style>

</defs>
<path d="M0,0
L0,1196
L921,1196
L921,0 Z " 
fill="#FFFFFF" stroke="none" />
<path d="M55,93l178.8,0l0,42.8L55,135.8L55,93Zm178.8,0l196.9,0l0,42.8l-196.9,0l0,-42.8Zm196.9,0l196.9,0l0,42.8l-196.9,0l0,-42.8Zm196.9,0l104.5,0l0,42.8l-104.5,0l0,-42.8Zm104.5,0l70.4,0l0,42.8l-70.4,0l0,-42.8Zm70.4,0l63.8,0l0,42.8l-63.8,0l0,-42.8ZM55,177.9l178.8,0l0,42.2L55,220.1l0,-42.2Zm178.8,0l196.9,0l0,42.2l-196.9,0l0,-42.2Zm196.9,0l196.9,0l0,42.2l-196.9,0l0,-42.2Zm196.9,0l104.5,0l0,42.2l-104.5,0l0,-42.2Zm104.5,0l70.4,0l0,42.2l-70.4,0l0,-42.2Zm70.4,0l63.8,0l0,42.2l-63.8,0l0,-42.2ZM55,262.3l178.8,0l0,42.1L55,304.4l0,-42.1Zm178.8,0l196.9,0l0,42.1l-196.9,0l0,-42.1Zm196.9,0l196.9,0l0,42.1l-196.9,0l0,-42.1Zm196.9,0l104.5,0l0,42.1l-104.5,0l0,-42.1Zm104.5,0l70.4,0l0,42.1l-70.4,0l0,-42.1Zm70.4,0l63.8,0l0,42.1l-63.8,0l0,-42.1ZM55,346.6l178.8,0l0,42.2L55,388.8l0,-42.2Zm178.8,0l196.9,0l0,42.2l-196.9,0l0,-42.2Zm196.9,0l196.9,0l0,42.2l-196.9,0l0,-42.2Zm196.9,0l104.5,0l0,42.2l-104.5,0l0,-42.2Zm104.5,0l70.4,0l0,42.2l-70.4,0l0,-42.2Zm70.4,0l63.8,0l0,42.2l-63.8,0l0,-42.2ZM55,430.9l178.8,0l0,42.2L55,473.1l0,-42.2Zm178.8,0l196.9,0l0,42.2l-196.9,0l0,-42.2Zm196.9,0l196.9,0l0,42.2l-196.9,0l0,-42.2Zm196.9,0l104.5,0l0,42.2l-104.5,0l0,-42.2Zm104.5,0l70.4,0l0,42.2l-70.4,0l0,-42.2Zm70.4,0l63.8,0l0,42.2l-63.8,0l0,-42.2ZM55,515.2l178.8,0l0,44.2L55,559.4l0,-44.2Zm178.8,0l196.9,0l0,44.2l-196.9,0l0,-44.2Zm196.9,0l196.9,0l0,44.2l-196.9,0l0,-44.2Zm196.9,0l104.5,0l0,44.2l-104.5,0l0,-44.2Zm104.5,0l70.4,0l0,44.2l-70.4,0l0,-44.2Zm70.4,0l63.8,0l0,44.2l-63.8,0l0,-44.2ZM55,601.6l178.8,0l0,42.1L55,643.7l0,-42.1Zm178.8,0l196.9,0l0,42.1l-196.9,0l0,-42.1Zm196.9,0l196.9,0l0,42.1l-196.9,0l0,-42.1Zm196.9,0l104.5,0l0,42.1l-104.5,0l0,-42.1Zm104.5,0l70.4,0l0,42.1l-70.4,0l0,-42.1Zm70.4,0l63.8,0l0,42.1l-63.8,0l0,-42.1ZM55,685.9l178.8,0l0,42.2L55,728.1l0,-42.2Zm178.8,0l196.9,0l0,42.2l-196.9,0l0,-42.2Zm196.9,0l196.9,0l0,42.2l-196.9,0l0,-42.2Zm196.9,0l104.5,0l0,42.2l-104.5,0l0,-42.2Zm104.5,0l70.4,0l0,42.2l-70.4,0l0,-42.2Zm70.4,0l63.8,0l0,42.2l-63.8,0l0,-42.2ZM55,770.2l178.8,0l0,42.2L55,812.4l0,-42.2Zm178.8,0l196.9,0l0,42.2l-196.9,0l0,-42.2Zm196.9,0l196.9,0l0,42.2l-196.9,0l0,-42.2Zm196.9,0l104.5,0l0,42.2l-104.5,0l0,-42.2Zm104.5,0l70.4,0l0,42.2l-70.4,0l0,-42.2Zm70.4,0l63.8,0l0,42.2l-63.8,0l0,-42.2ZM55,854.5l178.8,0l0,42.2L55,896.7l0,-42.2Zm178.8,0l196.9,0l0,42.2l-196.9,0l0,-42.2Zm196.9,0l196.9,0l0,42.2l-196.9,0l0,-42.2Zm196.9,0l104.5,0l0,42.2l-104.5,0l0,-42.2Zm104.5,0l70.4,0l0,42.2l-70.4,0l0,-42.2Zm70.4,0l63.8,0l0,42.2l-63.8,0l0,-42.2ZM55,938.9l178.8,0l0,42.1L55,981l0,-42.1Zm178.8,0l196.9,0l0,42.1l-196.9,0l0,-42.1Zm196.9,0l196.9,0l0,42.1l-196.9,0l0,-42.1Zm196.9,0l104.5,0l0,42.1l-104.5,0l0,-42.1Zm104.5,0l70.4,0l0,42.1l-70.4,0l0,-42.1Zm70.4,0l63.8,0l0,42.1l-63.8,0l0,-42.1ZM55,1023.2l178.8,0l0,42.7l-178.8,0l0,-42.7Zm178.8,0l196.9,0l0,42.7l-196.9,0l0,-42.7Zm196.9,0l196.9,0l0,42.7l-196.9,0l0,-42.7Zm196.9,0l104.5,0l0,42.7l-104.5,0l0,-42.7Zm104.5,0l70.4,0l0,42.7l-70.4,0l0,-42.7Zm70.4,0l63.8,0l0,42.7l-63.8,0l0,-42.7Z" class="g1_343" />
<path d="M55,728l811.3,0l0,42.2L55,770.2L55,728Z" class="g2_343" />
<path d="M55,728l178.8,0" class="g3_343" />
<path d="M233.8,728l196.9,0" class="g3_343" />
<path d="M430.7,728l196.9,0" class="g3_343" />
<path d="M627.6,728l104.5,0" class="g3_343" />
<path d="M732.1,728l70.4,0" class="g3_343" />
<path d="M802.5,728l63.8,0" class="g3_343" />
<path d="M55,770.2l178.8,0" class="g3_343" />
<path d="M233.8,770.2l196.9,0" class="g3_343" />
<path d="M430.7,770.2l196.9,0" class="g3_343" />
<path d="M627.6,770.2l104.5,0" class="g3_343" />
<path d="M732.1,770.2l70.4,0" class="g3_343" />
<path d="M802.5,770.2l63.8,0" class="g3_343" />
<path d="M55,93l178.8,0" class="g4_343" />
<path d="M233.8,93l196.9,0" class="g4_343" />
<path d="M430.7,93l196.9,0" class="g4_343" />
<path d="M627.6,93l104.5,0" class="g4_343" />
<path d="M732.1,93l70.4,0" class="g4_343" />
<path d="M802.5,93l63.8,0" class="g4_343" />
<path d="M55,1065.9l178.8,0" class="g5_343" />
<path d="M233.8,1065.9l196.9,0" class="g5_343" />
<path d="M430.7,1065.9l196.9,0" class="g5_343" />
<path d="M627.6,1065.9l104.5,0" class="g5_343" />
<path d="M732.1,1065.9l70.4,0" class="g5_343" />
<path d="M802.5,1065.9l63.8,0" class="g5_343" />
<path d="M55,135.8l178.8,0" class="g3_343" />
<path d="M233.8,135.8l196.9,0" class="g3_343" />
<path d="M430.7,135.8l196.9,0" class="g3_343" />
<path d="M627.6,135.8l104.5,0" class="g3_343" />
<path d="M732.1,135.8l70.4,0" class="g3_343" />
<path d="M802.5,135.8l63.8,0" class="g3_343" />
<path d="M55,177.9l178.8,0" class="g3_343" />
<path d="M233.8,177.9l196.9,0" class="g3_343" />
<path d="M430.7,177.9l196.9,0" class="g3_343" />
<path d="M627.6,177.9l104.5,0" class="g3_343" />
<path d="M732.1,177.9l70.4,0" class="g3_343" />
<path d="M802.5,177.9l63.8,0" class="g3_343" />
<path d="M55,220.1l178.8,0" class="g3_343" />
<path d="M233.8,220.1l196.9,0" class="g3_343" />
<path d="M430.7,220.1l196.9,0" class="g3_343" />
<path d="M627.6,220.1l104.5,0" class="g3_343" />
<path d="M732.1,220.1l70.4,0" class="g3_343" />
<path d="M802.5,220.1l63.8,0" class="g3_343" />
<path d="M55,262.3l178.8,0" class="g3_343" />
<path d="M233.8,262.3l196.9,0" class="g3_343" />
<path d="M430.7,262.3l196.9,0" class="g3_343" />
<path d="M627.6,262.3l104.5,0" class="g3_343" />
<path d="M732.1,262.3l70.4,0" class="g3_343" />
<path d="M802.5,262.3l63.8,0" class="g3_343" />
<path d="M55,304.4l178.8,0" class="g3_343" />
<path d="M233.8,304.4l196.9,0" class="g3_343" />
<path d="M430.7,304.4l196.9,0" class="g3_343" />
<path d="M627.6,304.4l104.5,0" class="g3_343" />
<path d="M732.1,304.4l70.4,0" class="g3_343" />
<path d="M802.5,304.4l63.8,0" class="g3_343" />
<path d="M55,346.6l178.8,0" class="g3_343" />
<path d="M233.8,346.6l196.9,0" class="g3_343" />
<path d="M430.7,346.6l196.9,0" class="g3_343" />
<path d="M627.6,346.6l104.5,0" class="g3_343" />
<path d="M732.1,346.6l70.4,0" class="g3_343" />
<path d="M802.5,346.6l63.8,0" class="g3_343" />
<path d="M55,388.8l178.8,0" class="g3_343" />
<path d="M233.8,388.8l196.9,0" class="g3_343" />
<path d="M430.7,388.8l196.9,0" class="g3_343" />
<path d="M627.6,388.8l104.5,0" class="g3_343" />
<path d="M732.1,388.8l70.4,0" class="g3_343" />
<path d="M802.5,388.8l63.8,0" class="g3_343" />
<path d="M55,430.9l178.8,0" class="g3_343" />
<path d="M233.8,430.9l196.9,0" class="g3_343" />
<path d="M430.7,430.9l196.9,0" class="g3_343" />
<path d="M627.6,430.9l104.5,0" class="g3_343" />
<path d="M732.1,430.9l70.4,0" class="g3_343" />
<path d="M802.5,430.9l63.8,0" class="g3_343" />
<path d="M55,473.1l178.8,0" class="g3_343" />
<path d="M233.8,473.1l196.9,0" class="g3_343" />
<path d="M430.7,473.1l196.9,0" class="g3_343" />
<path d="M627.6,473.1l104.5,0" class="g3_343" />
<path d="M732.1,473.1l70.4,0" class="g3_343" />
<path d="M802.5,473.1l63.8,0" class="g3_343" />
<path d="M55,515.2l178.8,0" class="g3_343" />
<path d="M233.8,515.2l196.9,0" class="g3_343" />
<path d="M430.7,515.2l196.9,0" class="g3_343" />
<path d="M627.6,515.2l104.5,0" class="g3_343" />
<path d="M732.1,515.2l70.4,0" class="g3_343" />
<path d="M802.5,515.2l63.8,0" class="g3_343" />
<path d="M55,559.4l178.8,0" class="g3_343" />
<path d="M233.8,559.4l196.9,0" class="g3_343" />
<path d="M430.7,559.4l196.9,0" class="g3_343" />
<path d="M627.6,559.4l104.5,0" class="g3_343" />
<path d="M732.1,559.4l70.4,0" class="g3_343" />
<path d="M802.5,559.4l63.8,0" class="g3_343" />
<path d="M55,601.6l178.8,0" class="g3_343" />
<path d="M233.8,601.6l196.9,0" class="g3_343" />
<path d="M430.7,601.6l196.9,0" class="g3_343" />
<path d="M627.6,601.6l104.5,0" class="g3_343" />
<path d="M732.1,601.6l70.4,0" class="g3_343" />
<path d="M802.5,601.6l63.8,0" class="g3_343" />
<path d="M55,643.7l178.8,0" class="g3_343" />
<path d="M233.8,643.7l196.9,0" class="g3_343" />
<path d="M430.7,643.7l196.9,0" class="g3_343" />
<path d="M627.6,643.7l104.5,0" class="g3_343" />
<path d="M732.1,643.7l70.4,0" class="g3_343" />
<path d="M802.5,643.7l63.8,0" class="g3_343" />
<path d="M55,685.9l178.8,0" class="g3_343" />
<path d="M233.8,685.9l196.9,0" class="g3_343" />
<path d="M430.7,685.9l196.9,0" class="g3_343" />
<path d="M627.6,685.9l104.5,0" class="g3_343" />
<path d="M732.1,685.9l70.4,0" class="g3_343" />
<path d="M802.5,685.9l63.8,0" class="g3_343" />
<path d="M55,812.4l178.8,0" class="g3_343" />
<path d="M233.8,812.4l196.9,0" class="g3_343" />
<path d="M430.7,812.4l196.9,0" class="g3_343" />
<path d="M627.6,812.4l104.5,0" class="g3_343" />
<path d="M732.1,812.4l70.4,0" class="g3_343" />
<path d="M802.5,812.4l63.8,0" class="g3_343" />
<path d="M55,854.5l178.8,0" class="g3_343" />
<path d="M233.8,854.5l196.9,0" class="g3_343" />
<path d="M430.7,854.5l196.9,0" class="g3_343" />
<path d="M627.6,854.5l104.5,0" class="g3_343" />
<path d="M732.1,854.5l70.4,0" class="g3_343" />
<path d="M802.5,854.5l63.8,0" class="g3_343" />
<path d="M55,896.7l178.8,0" class="g3_343" />
<path d="M233.8,896.7l196.9,0" class="g3_343" />
<path d="M430.7,896.7l196.9,0" class="g3_343" />
<path d="M627.6,896.7l104.5,0" class="g3_343" />
<path d="M732.1,896.7l70.4,0" class="g3_343" />
<path d="M802.5,896.7l63.8,0" class="g3_343" />
<path d="M55,938.9l178.8,0" class="g3_343" />
<path d="M233.8,938.9l196.9,0" class="g3_343" />
<path d="M430.7,938.9l196.9,0" class="g3_343" />
<path d="M627.6,938.9l104.5,0" class="g3_343" />
<path d="M732.1,938.9l70.4,0" class="g3_343" />
<path d="M802.5,938.9l63.8,0" class="g3_343" />
<path d="M55,981l178.8,0" class="g3_343" />
<path d="M233.8,981l196.9,0" class="g3_343" />
<path d="M430.7,981l196.9,0" class="g3_343" />
<path d="M627.6,981l104.5,0" class="g3_343" />
<path d="M732.1,981l70.4,0" class="g3_343" />
<path d="M802.5,981l63.8,0" class="g3_343" />
<path d="M55,1023.2l178.8,0" class="g3_343" />
<path d="M233.8,1023.2l196.9,0" class="g3_343" />
<path d="M430.7,1023.2l196.9,0" class="g3_343" />
<path d="M627.6,1023.2l104.5,0" class="g3_343" />
<path d="M732.1,1023.2l70.4,0" class="g3_343" />
<path d="M802.5,1023.2l63.8,0" class="g3_343" />
<text 
x="61" 
y="80" 
dx="0,0,0,0,0,0,0" 
class="s1_343"
>English</text>

<text 
x="239" 
y="80" 
dx="0,0,0,0,0,0,0,0,0,0" 
class="s1_343"
>Simplified</text>

<text 
x="436" 
y="80" 
dx="0,-1,0,0,0,0,0,0,0,0,0" 
class="s1_343"
>Traditional</text>

<text 
x="633" 
y="80" 
dx="0,0,0,0,0,0" 
class="s1_343"
>Pinyin</text>

<text 
x="738" 
y="73" 
dx="0,-0.3,0,0,0,0,0,0" 
class="s1_343"
>Part of </text>

<text 
x="738" 
y="86" 
dx="0,0,0,0,0,0" 
class="s1_343"
>Speech</text>

<text 
x="808" 
y="80" 
dx="0,-0.2,0,0,0,0" 
class="s1_343"
>Lesson</text>

<text 
x="61" 
y="120" 
dx="0,0,-0.1,0,0,0" 
class="s2_343"
>we, us</text>

<text 
x="239" 
y="123" 
dx="0,0" 
class="s3_343"
>我们</text>

<text 
x="436" 
y="123" 
dx="0,0" 
class="s4_343"
>我們</text>

<text 
x="633" 
y="120" 
dx="0,0,0,0,0" 
class="s5_343"
>wǒmen</text>

<text 
x="738" 
y="120" 
dx="0,0" 
class="s6_343"
>pr</text>

<text 
x="808" 
y="120" 
dx="0" 
class="s7_343"
>3</text>

<text 
x="61" 
y="162" 
dx="0,0,0,0,-1.3,0,0,0,0,0,0,0" 
class="s2_343"
>wear, put on</text>

<text 
x="239" 
y="165" 
dx="0" 
class="s3_343"
>穿</text>

<text 
x="633" 
y="162" 
dx="0,0,0,0,0" 
class="s5_343"
>chuān</text>

<text 
x="738" 
y="162" 
dx="0" 
class="s6_343"
>v</text>

<text 
x="808" 
y="162" 
dx="0" 
class="s7_343"
>9</text>

<text 
x="61" 
y="205" 
dx="0,0,0,0" 
class="s2_343"
>week</text>

<text 
x="239" 
y="207" 
dx="0,0" 
class="s3_343"
>星期</text>

<text 
x="633" 
y="204" 
dx="0,0,0,0,0,0" 
class="s5_343"
>xīngqī</text>

<text 
x="738" 
y="205" 
dx="0" 
class="s6_343"
>n</text>

<text 
x="808" 
y="205" 
dx="0" 
class="s7_343"
>3</text>

<text 
x="61" 
y="247" 
dx="0,0,0,0,-0.3,0,0" 
class="s2_343"
>weekend</text>

<text 
x="239" 
y="249" 
dx="0,0" 
class="s3_343"
>周末</text>

<text 
x="436" 
y="249" 
dx="0,0" 
class="s4_343"
>週末</text>

<text 
x="633" 
y="247" 
dx="0,0,0,0,0,0" 
class="s5_343"
>zhōumò</text>

<text 
x="738" 
y="247" 
dx="0" 
class="s6_343"
>n</text>

<text 
x="808" 
y="247" 
dx="0" 
class="s7_343"
>4</text>

<text 
x="61" 
y="289" 
dx="0,0,0,0" 
class="s2_343"
>what</text>

<text 
x="239" 
y="292" 
dx="0,0" 
class="s3_343"
>什么</text>

<text 
x="436" 
y="292" 
dx="0,0" 
class="s4_343"
>什麼</text>

<text 
x="633" 
y="289" 
dx="0,0,0,0,0,0" 
class="s5_343"
>shénme</text>

<text 
x="738" 
y="289" 
dx="0,0,0" 
class="s6_343"
>qpr</text>

<text 
x="808" 
y="289" 
dx="0" 
class="s7_343"
>1</text>

<text 
x="61" 
y="331" 
dx="0,0,0,0,0" 
class="s2_343"
>where</text>

<text 
x="239" 
y="334" 
dx="0,0" 
class="s3_343"
>哪里</text>

<text 
x="436" 
y="334" 
dx="0,0" 
class="s4_343"
>哪裡</text>

<text 
x="633" 
y="331" 
dx="0,0,0,0" 
class="s5_343"
>nǎli</text>

<text 
x="738" 
y="331" 
dx="0,0" 
class="s6_343"
>pr</text>

<text 
x="808" 
y="331" 
dx="0" 
class="s7_343"
>7</text>

<text 
x="61" 
y="373" 
dx="0,0,0,0,0" 
class="s2_343"
>where</text>

<text 
x="239" 
y="376" 
dx="0,0" 
class="s3_343"
>哪儿</text>

<text 
x="436" 
y="376" 
dx="0,0" 
class="s4_343"
>哪兒</text>

<text 
x="633" 
y="373" 
dx="0,0,0" 
class="s5_343"
>nǎr</text>

<text 
x="738" 
y="373" 
dx="0,0,0" 
class="s6_343"
>qpr</text>

<text 
x="808" 
y="373" 
dx="0" 
class="s7_343"
>5</text>

<text 
x="61" 
y="415" 
dx="0,0,0,0,0" 
class="s2_343"
>which</text>

<text 
x="239" 
y="418" 
dx="0" 
class="s3_343"
>哪</text>

<text 
x="633" 
y="415" 
dx="0,0,0,0,0,0" 
class="s5_343"
>nǎ/něi</text>

<text 
x="738" 
y="415" 
dx="0,0,0" 
class="s6_343"
>qpr</text>

<text 
x="808" 
y="415" 
dx="0" 
class="s7_343"
>6</text>

<text 
x="61" 
y="458" 
dx="0,0,0,-0.1,0,0,0,0,0" 
class="s2_343"
>who, whom</text>

<text 
x="239" 
y="460" 
dx="0" 
class="s3_343"
>谁</text>

<text 
x="436" 
y="460" 
dx="0" 
class="s4_343"
>誰</text>

<text 
x="633" 
y="457" 
dx="0,0,0,0" 
class="s5_343"
>shéi</text>

<text 
x="738" 
y="458" 
dx="0,0,0" 
class="s6_343"
>qpr</text>

<text 
x="808" 
y="458" 
dx="0" 
class="s7_343"
>2</text>

<text 
x="61" 
y="500" 
dx="0,0,0" 
class="s2_343"
>why</text>

<text 
x="239" 
y="502" 
dx="0,0,0" 
class="s3_343"
>为什么</text>

<text 
x="436" 
y="502" 
dx="0,0,0" 
class="s4_343"
>為什麼</text>

<text 
x="633" 
y="500" 
dx="0,0,0,0,0,0,0,0,0" 
class="s5_343"
>wèishénme</text>

<text 
x="738" 
y="500" 
dx="0,0,0" 
class="s6_343"
>qpr</text>

<text 
x="808" 
y="500" 
dx="0" 
class="s7_343"
>3</text>

<text 
x="61" 
y="533" 
dx="0,0,0,0,0,0,0,0,0,0,0,0,0,0,0,0,0,0,0,0,0,0,0,0,0,0,-0.1,0" 
class="s2_343"
>will, be going to; want to, </text>

<text 
x="61" 
y="553" 
dx="0,0,0,0,0,0,0,0,0,0,0,0,0,0,0,0" 
class="s2_343"
>have a desire to</text>

<text 
x="239" 
y="546" 
dx="0" 
class="s3_343"
>要</text>

<text 
x="633" 
y="543" 
dx="0,0,0" 
class="s5_343"
>yào</text>

<text 
x="738" 
y="543" 
dx="0,0" 
class="s6_343"
>mv</text>

<text 
x="808" 
y="543" 
dx="0" 
class="s7_343"
>6</text>

<text 
x="61" 
y="586" 
dx="0,0,0,0,0,0,0,0,0,0,0,0,0,0,0" 
class="s2_343"
>winter vacation</text>

<text 
x="239" 
y="589" 
dx="0,0" 
class="s3_343"
>寒假</text>

<text 
x="633" 
y="586" 
dx="0,0,0,0,0,0" 
class="s5_343"
>hánjià</text>

<text 
x="738" 
y="586" 
dx="0" 
class="s6_343"
>n</text>

<text 
x="808" 
y="586" 
dx="0,0" 
class="s7_343"
>10</text>

<text 
x="61" 
y="628" 
dx="0,0,0,0,0,0,0,0,0,0,0" 
class="s2_343"
>wish (well)</text>

<text 
x="239" 
y="631" 
dx="0" 
class="s3_343"
>祝</text>

<text 
x="633" 
y="628" 
dx="0,0,0" 
class="s5_343"
>zhù</text>

<text 
x="738" 
y="628" 
dx="0" 
class="s6_343"
>v</text>

<text 
x="808" 
y="628" 
dx="0" 
class="s7_343"
>8</text>

<text 
x="61" 
y="670" 
dx="0,0,0,0" 
class="s2_343"
>with</text>

<text 
x="239" 
y="673" 
dx="0" 
class="s3_343"
>跟</text>

<text 
x="633" 
y="670" 
dx="0,0,0" 
class="s5_343"
>gēn</text>

<text 
x="738" 
y="670" 
dx="0,0,0,0" 
class="s6_343"
>prep</text>

<text 
x="808" 
y="670" 
dx="0" 
class="s7_343"
>6</text>

<text 
x="61" 
y="713" 
dx="0,0,0,0,0" 
class="s2_343"
>write</text>

<text 
x="239" 
y="715" 
dx="0" 
class="s3_343"
>写</text>

<text 
x="436" 
y="715" 
dx="0" 
class="s4_343"
>寫</text>

<text 
x="633" 
y="712" 
dx="0,0,0" 
class="s5_343"
>xiě</text>

<text 
x="738" 
y="713" 
dx="0" 
class="s6_343"
>v</text>

<text 
x="808" 
y="713" 
dx="0" 
class="s7_343"
>7</text>

<text 
x="453" 
y="757" 
dx="0" 
class="s8_343"
>Y</text>

<text 
x="61" 
y="797" 
dx="0,0,0,0,0,0,0,0,0,0,0,0,0" 
class="s2_343"
>year (of age)</text>

<text 
x="239" 
y="800" 
dx="0" 
class="s3_343"
>岁</text>

<text 
x="436" 
y="800" 
dx="0" 
class="s4_343"
>歲</text>

<text 
x="633" 
y="797" 
dx="0,0,0" 
class="s5_343"
>suì</text>

<text 
x="738" 
y="797" 
dx="0" 
class="s6_343"
>n</text>

<text 
x="808" 
y="797" 
dx="0" 
class="s7_343"
>3</text>

<text 
x="61" 
y="839" 
dx="0,0,0,0,0,0" 
class="s2_343"
>yellow</text>

<text 
x="239" 
y="842" 
dx="0" 
class="s3_343"
>黄</text>

<text 
x="436" 
y="842" 
dx="0" 
class="s4_343"
>黃</text>

<text 
x="633" 
y="839" 
dx="0,0,0,0,0" 
class="s5_343"
>huáng</text>

<text 
x="738" 
y="839" 
dx="0,0,0" 
class="s6_343"
>adj</text>

<text 
x="808" 
y="839" 
dx="0" 
class="s7_343"
>9</text>

<text 
x="61" 
y="881" 
dx="0,0,0,0,0,0,0,0,0" 
class="s2_343"
>yesterday</text>

<text 
x="239" 
y="884" 
dx="0,0" 
class="s3_343"
>昨天</text>

<text 
x="633" 
y="881" 
dx="0,0,0,0,0,0,0" 
class="s5_343"
>zuótiān</text>

<text 
x="738" 
y="881" 
dx="0" 
class="s6_343"
>t</text>

<text 
x="808" 
y="881" 
dx="0" 
class="s7_343"
>4</text>

<text 
x="61" 
y="923" 
dx="0,0,0" 
class="s2_343"
>you</text>

<text 
x="239" 
y="926" 
dx="0" 
class="s3_343"
>你</text>

<text 
x="633" 
y="923" 
dx="0,0" 
class="s5_343"
>nǐ</text>

<text 
x="738" 
y="923" 
dx="0,0" 
class="s6_343"
>pr</text>

<text 
x="808" 
y="923" 
dx="0" 
class="s7_343"
>1</text>

<text 
x="61" 
y="966" 
dx="0,0,0,0,0,0,0,0,0,0,0,0,0,0,0,0,0,0,0" 
class="s2_343"
>you (honorific for </text>

<text 
x="175" 
y="966" 
dx="0" 
class="s9_343"
>你</text>

<text 
x="193" 
y="966" 
dx="0" 
class="s2_343"
>)</text>

<text 
x="239" 
y="968" 
dx="0" 
class="s3_343"
>您</text>

<text 
x="633" 
y="965" 
dx="0,0,0" 
class="s5_343"
>nín</text>

<text 
x="738" 
y="965" 
dx="0,0" 
class="s6_343"
>pr</text>

<text 
x="808" 
y="965" 
dx="0" 
class="s7_343"
>6</text>

<text 
x="61" 
y="1008" 
dx="0,0,0,0,0,0,0,0,0,0,0,0,0,0,0" 
class="s2_343"
>younger brother</text>

<text 
x="239" 
y="1010" 
dx="0,0" 
class="s3_343"
>弟弟</text>

<text 
x="633" 
y="1007" 
dx="0,0,0,0" 
class="s5_343"
>dìdi</text>

<text 
x="738" 
y="1008" 
dx="0" 
class="s6_343"
>n</text>

<text 
x="808" 
y="1008" 
dx="0" 
class="s7_343"
>2</text>

<text 
x="61" 
y="1050" 
dx="0,0,0,0,0,0,0,0,0,0,0,0,0,0" 
class="s2_343"
>younger sister</text>

<text 
x="239" 
y="1053" 
dx="0,0" 
class="s3_343"
>妹妹</text>

<text 
x="633" 
y="1050" 
dx="0,0,0,0,0,0" 
class="s5_343"
>mèimei</text>

<text 
x="738" 
y="1050" 
dx="0" 
class="s6_343"
>n</text>

<text 
x="808" 
y="1050" 
dx="0" 
class="s7_343"
>2</text>

<path d="M-22.1,1213.8l58,0l0,-1229.7l-58,0l0,1229.7Z" class="g6_343" />
<text 
transform="matrix(0, -1, 1, 0, 26, 1173)"
dx="0,0.3,0.3,0.3" 
class="s10_343"
>322 </text>

<text 
transform="matrix(0, -1, 1, 0, 26, 1135)"
dx="0,0.3,0.3,0.3,0.3,0.3,0.3,0.3,0.3,0.3,0.3,0.3,0.3,0.3,0.3,0.3,0.3,0.3,0.3,0.3,0.3" 
class="s10_343"
>Integrated Chinese 1 </text>

<text 
transform="matrix(0, -1, 1, 0, 26, 1014)"
dx="0,0.3" 
class="s10_343"
>| </text>

<text 
transform="matrix(0, -1, 1, 0, 26, 1001)"
dx="0,-0.9,-0.1,0.3,0.3,0.3,0.3,0.3" 
class="s10_343"
>Textbook</text>



<!-- Any embedded fonts defined here -->
<style type="text/css" ><![CDATA[

@font-face {
	font-family: Marion-Italic_2si;
	src: url("fonts/Marion-Italic_2si.woff") format("woff");
}

@font-face {
	font-family: ProximaNova-Light_372;
	src: url("fonts/ProximaNova-Light_372.woff") format("woff");
}

@font-face {
	font-family: ProximaNova-Semibold_376;
	src: url("fonts/ProximaNova-Semibold_376.woff") format("woff");
}

@font-face {
	font-family: ProximaNova-Bold_378;
	src: url("fonts/ProximaNova-Bold_378.woff") format("woff");
}

@font-face {
	font-family: ProximaNova-Regular_377;
	src: url("fonts/ProximaNova-Regular_377.woff") format("woff");
}

@font-face {
	font-family: STKaiTi-TC-Regular_371;
	src: url("fonts/STKaiTi-TC-Regular_371.woff") format("woff");
}

@font-face {
	font-family: STKaiti-SC-Regular_2t7;
	src: url("fonts/STKaiti-SC-Regular_2t7.woff") format("woff");
}

]]></style>

</svg>
