<?xml version="1.0" encoding="UTF-8" standalone="no"?>
<!DOCTYPE svg PUBLIC "-//W3C//DTD SVG 1.1//EN"
"http://www.w3.org/Graphics/SVG/1.1/DTD/svg11.dtd">


<!-- Page 38 -->
<svg x="0" y="0" width="921" height="1196" viewBox="0 0 921 1196" version="1.1" xmlns="http://www.w3.org/2000/svg" xmlns:xlink="http://www.w3.org/1999/xlink"
style="display: block;margin-left: auto;margin-right: auto;">
<defs>
<clipPath id="c0_38"><path d="M113.7,215.9l0,-16.4l18.4,0l0,16.4Z" /></clipPath>
<clipPath id="c1_38"><path d="M110.1,251.6l0,-9.1l25.7,0l0,9.1Z" /></clipPath>
<clipPath id="c2_38"><path d="M120,297.9L120,275l5.8,0l0,22.9Z" /></clipPath>
<clipPath id="c3_38"><path d="M111.8,337.3l0,-22.9l22.3,0l0,22.9Z" /></clipPath>
<clipPath id="c4_38"><path d="M110.8,376.6l0,-22.9l24.2,0l0,22.9Z" /></clipPath>
<clipPath id="c5_38"><path d="M110.1,414.1l0,-19.1l25.7,0l0,19.1Z" /></clipPath>
<clipPath id="c6_38"><path d="M110.1,450.1l0,-12.5l25.7,0l0,12.5Z" /></clipPath>
<clipPath id="c7_38"><path d="M115.5,494.7l0,-22.9l12.1,0l0,22.9Z" /></clipPath>
<clipPath id="c8_38"><path d="M111.8,534.1l0,-22.9l22.2,0l0,22.9Z" /></clipPath>
<clipPath id="c9_38"><path d="M110.1,572.5l0,-19l25.5,0l0,19Z" /></clipPath>
<clipPath id="c10_38"><path d="M110.1,610.4l0,-18.2l25.7,0l0,18.2Z" /></clipPath>
<clipPath id="c11_38"><path d="M162.8,752.4l0,-22.7l25.5,0l0,22.7Z" /></clipPath>
<clipPath id="c12_38"><path d="M294.1,749.2l0,-17.4l49.2,0l0,17.4Z" /></clipPath>
<clipPath id="c13_38"><path d="M442.1,755.3l0,-28.9l30.6,0l0,28.9Z" /></clipPath>
<clipPath id="c14_38"><path d="M595,755l0,-29.9l7.7,0l0,29.9Z" /></clipPath>
<clipPath id="c15_38"><path d="M715.9,755.8l0,-31.7l30.9,0l0,31.7Z" /></clipPath>
<clipPath id="c16_38"><path d="M104.7,114.8l0,-59l705.8,0l0,59Z" /></clipPath>
<clipPath id="c17_38"><path d="M104.7,861.4l0,-59l705.8,0l0,59Z" /></clipPath>

<style type="text/css"><![CDATA[

.g1_38{
fill: #F3F4F4;
}
.g2_38{
fill: none;
stroke: #BDBEC1;
stroke-width: 0.38194445;
stroke-linecap: butt;
stroke-linejoin: miter;
}
.g3_38{
fill: none;
stroke: #A8A9AD;
stroke-width: 1.5277778;
stroke-linecap: butt;
stroke-linejoin: miter;
}
.g4_38{
fill: none;
stroke: #BDBEC1;
stroke-width: 1.5277778;
stroke-linecap: butt;
stroke-linejoin: miter;
}
.g5_38{
fill: #231F20;
}
.g6_38{
fill: none;
stroke: #7AAD35;
stroke-width: 3.0555556;
stroke-linecap: butt;
stroke-linejoin: miter;
}
.g7_38{
fill: none;
stroke: #7AAD35;
stroke-width: 1.5277778;
stroke-linecap: butt;
stroke-linejoin: miter;
stroke-miterlimit: 4;
}
.g8_38{
fill: none;
stroke: #7AAD35;
stroke-width: 0.5102778;
stroke-linecap: butt;
stroke-linejoin: miter;
stroke-miterlimit: 4;
}
.g9_38{
fill: none;
stroke: #BDBEC1;
stroke-width: 0.7638889;
stroke-linecap: butt;
stroke-linejoin: miter;
}
.g10_38{
fill: #7AAD35;
stroke: #B2B3B7;
stroke-width: 1.5277778;
stroke-linecap: butt;
stroke-linejoin: miter;
stroke-miterlimit: 4;
}

.s1_38{
font-size: 14.82px;
font-family: ProximaNova-Regular_2sw;
fill: #3F3F40;
}
.s2_38{
font-size: 14.82px;
font-family: ProximaNova-Semibold_2s-;
fill: #86B345;
}
.s3_38{
font-size: 32.85px;
font-family: STKaiti-SC-Regular_2t7;
fill: #67962C;
}
.s4_38{
font-size: 18.33px;
font-family: Marion-Italic_2si;
fill: #537D23;
}
.s5_38{
font-size: 14.82px;
font-family: ProximaNova-Semibold_2s-;
fill: #77787B;
}
.s6_38{
font-size: 18.33px;
font-family: Marion-Italic_2sy;
fill: #537D23;
}
.s7_38{
font-size: 18.33px;
font-family: ProximaNova-Bold_2ss;
fill: #7AAD35;
}
.s8_38{
font-size: 24.44px;
font-family: ProximaNova-Bold_2ss;
fill: #7AAD35;
}
.s9_38{
font-size: 16.04px;
font-family: ProximaNova-Semibold_2s-;
fill: #77787B;
}
.s10_38{
font-size: 32.85px;
font-family: STKaiti-SC-Bold_2sb;
fill: #618731;
}
.s11_38{
font-size: 11.46px;
font-family: ProximaNova-Semibold_2s-;
fill: #FFFFFF;
}

]]></style>

</defs>
<path d="M0,0
L0,1196
L921,1196
L921,0 Z " 
fill="#FFFFFF" stroke="none" />
<text 
x="103" 
y="151" 
dx="0,0,0,0,0,0,0,0,0,0,0,0,0,0,0,0,0,0,0,0,0,0,0,0,0,0,0,0,0,0,0,0,0,0,0,0,0,0,0,0,0,0,0,0,0,0,0,0,0,-0.3,0,0,0,0,0,0,0,0,0,0,0,0,0,0,0,0,0,-0.5,0,0,0,0,0,0,0" 
class="s1_38"
>As you review the chart, identify where the strokes appear in the examples.</text>

<path d="M104,188l135.8,0l0,39.4l-135.8,0L104,188Zm135.8,0l142.9,0l0,39.4l-142.9,0l0,-39.4Zm142.9,0l142.8,0l0,39.4l-142.8,0l0,-39.4Zm142.8,0l142.9,0l0,39.4l-142.9,0l0,-39.4Zm142.9,0l142.9,0l0,39.4l-142.9,0l0,-39.4ZM104,266.8l135.8,0l0,39.3l-135.8,0l0,-39.3Zm135.8,0l142.9,0l0,39.3l-142.9,0l0,-39.3Zm142.9,0l142.8,0l0,39.3l-142.8,0l0,-39.3Zm142.8,0l142.9,0l0,39.3l-142.9,0l0,-39.3Zm142.9,0l142.9,0l0,39.3l-142.9,0l0,-39.3ZM104,345.5l135.8,0l0,39.3l-135.8,0l0,-39.3Zm135.8,0l142.9,0l0,39.3l-142.9,0l0,-39.3Zm142.9,0l142.8,0l0,39.3l-142.8,0l0,-39.3Zm142.8,0l142.9,0l0,39.3l-142.9,0l0,-39.3Zm142.9,0l142.9,0l0,39.3l-142.9,0l0,-39.3ZM104,424.2l135.8,0l0,39.4l-135.8,0l0,-39.4Zm135.8,0l142.9,0l0,39.4l-142.9,0l0,-39.4Zm142.9,0l142.8,0l0,39.4l-142.8,0l0,-39.4Zm142.8,0l142.9,0l0,39.4l-142.9,0l0,-39.4Zm142.9,0l142.9,0l0,39.4l-142.9,0l0,-39.4ZM104,502.9l135.8,0l0,39.4l-135.8,0l0,-39.4Zm135.8,0l142.9,0l0,39.4l-142.9,0l0,-39.4Zm142.9,0l142.8,0l0,39.4l-142.8,0l0,-39.4Zm142.8,0l142.9,0l0,39.4l-142.9,0l0,-39.4Zm142.9,0l142.9,0l0,39.4l-142.9,0l0,-39.4ZM104,581.7l135.8,0l0,39.3L104,621l0,-39.3Zm135.8,0l142.9,0l0,39.3l-142.9,0l0,-39.3Zm142.9,0l142.8,0l0,39.3l-142.8,0l0,-39.3Zm142.8,0l142.9,0l0,39.3l-142.9,0l0,-39.3Zm142.9,0l142.9,0l0,39.3l-142.9,0l0,-39.3Z" class="g1_38" />
<path d="M104,227.4l135.8,0" class="g2_38" />
<path d="M239.8,227.4l142.9,0" class="g2_38" />
<path d="M382.7,227.4l142.8,0" class="g2_38" />
<path d="M525.5,227.4l142.9,0" class="g2_38" />
<path d="M668.4,227.4l142.9,0" class="g2_38" />
<path d="M104,266.8l135.8,0" class="g2_38" />
<path d="M239.8,266.8l142.9,0" class="g2_38" />
<path d="M382.7,266.8l142.8,0" class="g2_38" />
<path d="M525.5,266.8l142.9,0" class="g2_38" />
<path d="M668.4,266.8l142.9,0" class="g2_38" />
<path d="M104,306.1l135.8,0" class="g2_38" />
<path d="M239.8,306.1l142.9,0" class="g2_38" />
<path d="M382.7,306.1l142.8,0" class="g2_38" />
<path d="M525.5,306.1l142.9,0" class="g2_38" />
<path d="M668.4,306.1l142.9,0" class="g2_38" />
<path d="M104,345.5l135.8,0" class="g2_38" />
<path d="M239.8,345.5l142.9,0" class="g2_38" />
<path d="M382.7,345.5l142.8,0" class="g2_38" />
<path d="M525.5,345.5l142.9,0" class="g2_38" />
<path d="M668.4,345.5l142.9,0" class="g2_38" />
<path d="M104,384.8l135.8,0" class="g2_38" />
<path d="M239.8,384.8l142.9,0" class="g2_38" />
<path d="M382.7,384.8l142.8,0" class="g2_38" />
<path d="M525.5,384.8l142.9,0" class="g2_38" />
<path d="M668.4,384.8l142.9,0" class="g2_38" />
<path d="M104,424.2l135.8,0" class="g2_38" />
<path d="M239.8,424.2l142.9,0" class="g2_38" />
<path d="M382.7,424.2l142.8,0" class="g2_38" />
<path d="M525.5,424.2l142.9,0" class="g2_38" />
<path d="M668.4,424.2l142.9,0" class="g2_38" />
<path d="M104,463.6l135.8,0" class="g2_38" />
<path d="M239.8,463.6l142.9,0" class="g2_38" />
<path d="M382.7,463.6l142.8,0" class="g2_38" />
<path d="M525.5,463.6l142.9,0" class="g2_38" />
<path d="M668.4,463.6l142.9,0" class="g2_38" />
<path d="M104,502.9l135.8,0" class="g2_38" />
<path d="M239.8,502.9l142.9,0" class="g2_38" />
<path d="M382.7,502.9l142.8,0" class="g2_38" />
<path d="M525.5,502.9l142.9,0" class="g2_38" />
<path d="M668.4,502.9l142.9,0" class="g2_38" />
<path d="M104,542.3l135.8,0" class="g2_38" />
<path d="M239.8,542.3l142.9,0" class="g2_38" />
<path d="M382.7,542.3l142.8,0" class="g2_38" />
<path d="M525.5,542.3l142.9,0" class="g2_38" />
<path d="M668.4,542.3l142.9,0" class="g2_38" />
<path d="M104,581.7l135.8,0" class="g2_38" />
<path d="M239.8,581.7l142.9,0" class="g2_38" />
<path d="M382.7,581.7l142.8,0" class="g2_38" />
<path d="M525.5,581.7l142.9,0" class="g2_38" />
<path d="M668.4,581.7l142.9,0" class="g2_38" />
<path d="M104,188l135.8,0" class="g3_38" />
<path d="M239.8,188l142.9,0" class="g3_38" />
<path d="M382.7,188l142.8,0" class="g3_38" />
<path d="M525.5,188l142.9,0" class="g3_38" />
<path d="M668.4,188l142.9,0" class="g3_38" />
<path d="M104,621l135.8,0" class="g4_38" />
<path d="M239.8,621l142.9,0" class="g4_38" />
<path d="M382.7,621l142.8,0" class="g4_38" />
<path d="M525.5,621l142.9,0" class="g4_38" />
<path d="M668.4,621l142.9,0" class="g4_38" />
<text 
x="110" 
y="181" 
dx="0,0,0,0,0,0,0,-0.2,0,0,0,-0.4" 
class="s2_38"
>Basic Stroke</text>

<text 
x="245" 
y="181" 
dx="0,0,0,0,0,0,0" 
class="s2_38"
>Chinese</text>

<text 
x="388" 
y="181" 
dx="0,0,0,0,0,0" 
class="s2_38"
>Pinyin</text>

<text 
x="531" 
y="181" 
dx="0,0,0,0,0,0,0" 
class="s2_38"
>English</text>

<text 
x="674" 
y="181" 
dx="0,0,0,0,0,0,0,0" 
class="s2_38"
>Examples</text>

<g clip-path="url(#c0_38)">
<path d="M113.8,199.6c0,0,-0.5,0.7,1.1,2.7c1.6,1.9,12.1,13.1,12.7,13.4c0.6,0.2,3.4,0.8,4.2,-2.1c0.7,-2.8,0.4,-7.6,-1.6,-8.9c-2,-1.3,-4.2,-2.6,-7.9,-3.3c-3.7,-0.7,-7.2,-1.8,-7.6,-1.9c-0.5,-0.1,-0.6,0,-0.9,0.1Z" class="g5_38" />
</g>
<text 
x="245" 
y="219" 
dx="0" 
class="s3_38"
>点</text>

<text 
x="388" 
y="214" 
dx="0,0,0,0" 
class="s4_38"
>diǎn</text>

<text 
x="531" 
y="213" 
dx="0,0,0" 
class="s5_38"
>dot</text>

<text 
x="674" 
y="219" 
dx="0,0,0" 
class="s3_38"
>小，六</text>

<g clip-path="url(#c1_38)">
<path d="M110.1,245.7c0,0,-0.2,0.3,0.1,1.1c0.3,0.8,2.2,4.6,4,4.8c1.9,0.3,3.9,-1.3,5.4,-1.7c1.5,-0.5,5.3,-1.3,8.3,-1.2c3,0,5.4,0.8,6.5,0.7c1.2,-0.1,1.8,-0.6,1,-2.4c-0.8,-1.7,-3.8,-4.2,-5,-4.4c-1.2,-0.3,-2.7,1.9,-3.4,2.1c-0.7,0.2,-3.2,0.5,-5,0.7c-1.9,0.2,-8.4,1.1,-9.7,1c-1.4,-0.1,-1.5,0.1,-2.2,-0.7Z" class="g5_38" />
</g>
<text 
x="245" 
y="258" 
dx="0" 
class="s3_38"
>横</text>

<text 
x="388" 
y="253" 
dx="0,0,0,0" 
class="s4_38"
>héng</text>

<text 
x="531" 
y="252" 
dx="0,0,0,0,0,0,0,0,0,0" 
class="s5_38"
>horizontal</text>

<text 
x="674" 
y="258" 
dx="0,0,0" 
class="s3_38"
>一，六</text>

<g clip-path="url(#c2_38)">
<path d="M120,275.7c0,0,0.2,-0.6,1,-0.7c0.9,0,1,0,1.5,0.2c0.6,0.3,0.9,0.4,1.7,0.4c0.8,0,1.4,-0.1,1.5,0.2c0.2,0.4,0.2,1.4,0,1.8c-0.2,0.4,-0.6,1.1,-0.7,1.8c0,0.6,-0.3,2.4,-0.2,4.7c0.1,2.2,0.1,7,-0.4,9.8c-0.5,2.7,-1.3,4,-1.6,4c-0.2,0,-0.9,-0.7,-1.2,-1.9c-0.2,-1.2,-1.2,-5.2,-1,-7.4c0.2,-2.2,1.2,-7.3,1,-9.8c-0.2,-2.6,-0.9,-2.8,-1.6,-3.1Z" class="g5_38" />
</g>
<text 
x="245" 
y="298" 
dx="0" 
class="s3_38"
>竖</text>

<text 
x="388" 
y="292" 
dx="0,0,0" 
class="s6_38"
>shù</text>

<text 
x="531" 
y="292" 
dx="0,0,0,0,0,0,0,0" 
class="s5_38"
>vertical</text>

<text 
x="674" 
y="298" 
dx="0,0,0" 
class="s3_38"
>十，中</text>

<g clip-path="url(#c3_38)">
<path d="M111.8,336.8c0,0,0,-0.2,1.2,-0.6c1.3,-0.4,4.5,-2.6,8.4,-7.5c3.9,-4.9,4.5,-7.8,5.1,-8.9c0.5,-1.1,2.4,-5.3,3.5,-5.4c1,-0.2,2.7,1.3,3.3,1.6c0.5,0.4,0.9,1.3,0.7,1.8c-0.2,0.5,-0.5,1,-0.7,1.4c-0.3,0.4,-0.7,0.8,-1.2,0.9c-0.5,0.2,-0.6,0.5,-1,1.1c-0.4,0.6,-3.8,5.4,-4.7,6.4c-1,0.9,-6.1,5.4,-8.5,6.9c-2.4,1.6,-5.7,3.7,-6.1,2.3Z" class="g5_38" />
</g>
<text 
x="245" 
y="337" 
dx="0" 
class="s3_38"
>撇</text>

<text 
x="388" 
y="332" 
dx="0,0,0" 
class="s4_38"
>piě</text>

<text 
x="531" 
y="331" 
dx="0,0,0,0,0,0,0,0,0,0,0,0,0" 
class="s5_38"
>downward left</text>

<text 
x="674" 
y="337" 
dx="0,0,0" 
class="s3_38"
>人，大</text>

<g clip-path="url(#c4_38)">
<path d="M111.6,355.1c0,0,-1.1,-0.5,-0.7,-1c0.4,-0.6,1.8,-0.4,3,-0.2c1.2,0.1,1.4,0.7,2,1.4c0.6,0.7,3.3,5.8,4.1,6.5c0.9,0.6,5.5,6.5,6.7,7.4c1.2,0.9,1.2,2,4.8,3.9c3.5,1.9,3.6,1.7,3.5,2.8c-0.1,1.1,-2.7,0.5,-4.3,0.7c-1.6,0.2,-6.5,-0.8,-8.4,-4.3c-1.9,-3.5,-4.9,-10.5,-6.2,-12.4c-1.3,-2,-4.5,-4.8,-4.5,-4.8Z" class="g5_38" />
</g>
<text 
x="245" 
y="376" 
dx="0" 
class="s3_38"
>捺</text>

<text 
x="388" 
y="371" 
dx="0,0" 
class="s4_38"
>nà</text>

<text 
x="531" 
y="371" 
dx="0,0,0,0,0,0,0,0,0,0,0,0,0,0" 
class="s5_38"
>downward right</text>

<text 
x="674" 
y="376" 
dx="0,0,0" 
class="s3_38"
>八，人</text>

<g clip-path="url(#c5_38)">
<path d="M135.8,395.7c0,0,-0.8,-1.1,-2.2,-0.5c-1.4,0.6,-4.2,3.4,-5.3,3.7c-1.2,0.2,-2.3,0.3,-3.1,1.1c-0.8,0.8,-13.2,8.1,-14.5,8.2c-1.3,0.1,-0.2,1.8,0.3,2.8c0.5,1,2.1,3.6,3.7,3c1.7,-0.7,5,-3.8,6.3,-5.2c1.3,-1.3,4.2,-2.8,5.1,-3.9c1,-1,4.4,-3.9,5.1,-4.8c0.8,-0.8,1.3,-1.5,1.9,-1.6c0.5,0,1.4,-0.8,1.5,-1.2c0.2,-0.3,1.1,-0.9,1.2,-1.6Z" class="g5_38" />
</g>
<text 
x="245" 
y="416" 
dx="0" 
class="s3_38"
>提</text>

<text 
x="388" 
y="410" 
dx="0,0" 
class="s6_38"
>tí</text>

<text 
x="531" 
y="410" 
dx="0,0,0,0,0,0" 
class="s5_38"
>upward</text>

<text 
x="674" 
y="416" 
dx="0,0,0" 
class="s3_38"
>我，江</text>

<g clip-path="url(#c6_38)">
<path d="M110.4,439.5c-0.6,0.3,-0.3,2.1,0.2,3c0.5,0.9,0.7,2.2,1.7,2.2c1,0,18,-3.3,19.1,-3c1.1,0.2,-3.7,6.4,-3.8,6.7c-0.1,0.3,0.5,2,1.2,1.7c0.7,-0.2,4.9,-5,5.5,-5.3c0.7,-0.4,1.4,-0.7,1.5,-1.4c0,-0.7,-2.4,-5.7,-2.9,-5.8c-0.5,0,-1.5,0.5,-3.4,0.9c-1.8,0.4,-16.4,2.3,-19.1,1Z" class="g5_38" />
</g>
<text 
x="245" 
y="455" 
dx="0,0" 
class="s3_38"
>横钩</text>

<text 
x="388" 
y="450" 
dx="0,0,0,0,0,0,0" 
class="s4_38"
>hénggōu</text>

<text 
x="531" 
y="449" 
dx="0,0,0,0,0,0,0,0,0,0,0,0,0,0,0" 
class="s5_38"
>horizontal hook</text>

<text 
x="674" 
y="455" 
dx="0,0,0" 
class="s3_38"
>你，字</text>

<g clip-path="url(#c7_38)">
<path d="M121.1,471.9c0.5,-0.1,3.5,-0.2,4.5,0.2c1,0.3,2.2,0.4,2,0.9c-0.3,0.5,-1.1,1.1,-1,1.7c0,0.5,0.4,16.5,0.2,17.4c-0.3,0.8,-2.5,2.5,-3.6,2.5c-1.2,0.1,-3,-0.7,-3.8,-1.4c-0.7,-0.7,-4,-1.7,-3.9,-2.1c0,-0.2,1.2,-0.1,2.4,0.2c1.2,0.3,2.8,0.9,3.7,0.5c0.8,-0.3,0.7,-17.9,0.5,-18.3c-0.2,-0.3,-2.1,-1.4,-1,-1.6Z" class="g5_38" />
</g>
<text 
x="245" 
y="495" 
dx="0,0" 
class="s3_38"
>竖钩</text>

<text 
x="388" 
y="489" 
dx="0,0,0,0,0,0" 
class="s4_38"
>shùgōu</text>

<text 
x="531" 
y="489" 
dx="0,0,0,0,0,0,0,0,0,0,0,0,0" 
class="s5_38"
>vertical hook</text>

<text 
x="674" 
y="495" 
dx="0,0,0" 
class="s3_38"
>小，你</text>

<g clip-path="url(#c8_38)">
<path d="M111.8,511.3c0,0,2.5,-0.5,3.5,0.3c0.9,0.9,0.8,1.1,0.7,1.9c-0.1,0.8,-0.6,2.3,0,3.7c0.5,1.5,0.8,3.2,2.6,5.5c1.7,2.4,5.1,7,11.8,8.3c1.9,-0.4,2.4,-3.2,2.4,-3.2c0,0,0.3,-0.1,0.4,1.1c0.1,1.1,1,4.7,0.8,4.9c-0.2,0.2,-0.7,0.6,-4.6,-0.3c-4,-0.8,-8.5,-3.3,-11.3,-6.8c-2.6,-3.4,-3.9,-6.7,-3.9,-9.6c0,-0.3,0,-0.7,-0.1,-1c-0.8,-1.8,-2.3,-3.6,-2.3,-4.8Z" class="g5_38" />
</g>
<text 
x="245" 
y="534" 
dx="0,0" 
class="s3_38"
>斜钩</text>

<text 
x="388" 
y="529" 
dx="0,0,0,0,0,0" 
class="s4_38"
>xiégōu</text>

<text 
x="531" 
y="528" 
dx="0,0,0,0,0,0,0,0,0,0,0,0" 
class="s5_38"
>slanted hook</text>

<text 
x="674" 
y="534" 
dx="0,0,0" 
class="s3_38"
>戈，我</text>

<g clip-path="url(#c9_38)">
<path d="M110,556.3c-0.3,-0.3,0,-0.8,1.2,-0.9c1.2,0,2.3,0,3.8,-0.2c1.4,-0.3,9.9,-1.2,11.6,-1.4c1.7,-0.2,7.1,-0.7,8.1,0.4c1,1,1,1.5,0.8,1.9c-0.3,0.4,-2,2.1,-2,2.8c0,0.8,0.5,3.9,0.2,4.3c-0.4,0.4,-0.8,0.2,-0.8,0.8c0,0.6,0.3,7.4,-2.7,8.4c-3,1,-1.1,-4.5,-0.7,-5.2c0.4,-0.8,1.6,-5.7,1.6,-6.3c0,-0.7,0.7,-3.9,0.1,-4.3c-0.6,-0.3,-2.4,0.1,-3.4,0.2c-1.1,0.1,-7.3,0,-8,0.4c-0.7,0.4,-2.7,0.2,-3.6,0.3c-1,0.1,-3.9,0.1,-4.5,0.1c-0.5,0,-1,-0.8,-1.7,-1.3Z" class="g5_38" />
</g>
<text 
x="245" 
y="573" 
dx="0,0" 
class="s3_38"
>横折</text>

<text 
x="388" 
y="568" 
dx="0,0,0,0,0,0,0" 
class="s4_38"
>héngzhé</text>

<text 
x="531" 
y="567" 
dx="0,0,0,0,0,0,0,0,0,0,0,0,0,0,0" 
class="s5_38"
>horizontal bend</text>

<text 
x="674" 
y="573" 
dx="0,0,0" 
class="s3_38"
>五，口</text>

<g clip-path="url(#c10_38)">
<path d="M114.9,606.6l0,-3.4c0,-0.7,0.7,-8.5,0.2,-9.5c-0.5,-1,-1,-1.2,-1.6,-1.4c-0.6,-0.2,-1.9,0,-2,0.4c-0.2,0.4,-0.4,0.7,-0.4,1.1c0.1,0.4,0.7,0.2,0.8,0.7c0.2,0.5,0.1,0.9,0.2,1.5c0.1,0.5,-0.2,6.6,-0.2,7.2c0,0.6,-0.5,3.3,-1.2,3.7c-0.8,0.5,-0.7,1,-0.6,1.4c0.1,0.5,1.5,2.1,2.4,2.1c0.8,0,2.1,-1.5,2.8,-1.6c0.6,0,2.1,-0.2,2.6,-0.4c0.4,-0.1,13.3,0,14.8,0.2c1.4,0.2,2.8,1.2,3,-1.4c0.3,-2.6,-6.8,-2.3,-7.9,-2.1c-1.2,0.1,-7.2,0.7,-8.1,0.8c-1,0.1,-4.8,0.7,-4.8,0.7Z" class="g5_38" />
</g>
<text 
x="245" 
y="613" 
dx="0,0" 
class="s3_38"
>竖折</text>

<text 
x="388" 
y="607" 
dx="0,0,0,0,0,0" 
class="s4_38"
>shùzhé</text>

<text 
x="531" 
y="607" 
dx="0,0,0,0,0,0,0,0,0,0,0,0,0" 
class="s5_38"
>vertical bend</text>

<text 
x="674" 
y="613" 
dx="0,0,0" 
class="s3_38"
>七，亡</text>

<text 
x="103" 
y="657" 
dx="0,0,0,0,0,0,0,0,0,0,0,0,0,0,0,0,-0.5,-0.5,0,0,0,0,0,0,0,0,0,0,0,0,0,0,0" 
class="s1_38"
>Note: With the exception of the “</text>

<text 
x="314" 
y="657" 
dx="0,0,0" 
class="s6_38"
>tí </text>

<text 
x="326" 
y="657" 
dx="0,0,0,0,0,0,0,-0.3,0,0,0,0,0,0,0,0,0,0,0,0,0,0,0,0,0,0,0,0,0,0,0,0,0,0,0,0,0,0,0,0,0,0,0,0,0,0,0,0,0,0,0,0" 
class="s1_38"
>” stroke (which moves upward to the right) and the “</text>

<text 
x="661" 
y="657" 
dx="0,0,0,0" 
class="s4_38"
>piě </text>

<text 
x="682" 
y="657" 
dx="0,0,0,0,0,0,0,-0.3,0,0,0,0,0,0,0,0" 
class="s1_38"
>” stroke (which </text>

<text 
x="103" 
y="675" 
dx="0,0,0,0,0,0,0,0,0,0,0,0,0,0,0,0,0,0,0,0,0,0,0,0,0,0,0,0,0,0,0,0,0,0,0,0,0,0,0,0,0,0,0,0,0,0,-0.3,0,0,0,0,0,0,0,0,0,0,0,0,0,0,0,0,0,0,0,0,0,0,0,0,0,0,0,0,0,0,0,0,0,0,0,0,0,0,0,0,0" 
class="s1_38"
>moves downward to the left), all Chinese strokes move from top to bottom, left to right.</text>

<text 
x="103" 
y="699" 
dx="0,0,0,0,0,0,0,0,0,0,0,0,0,0,0,0,0,0,0,0,0,0,0,0,0,0,0,0,0,0,0,0,0,0,-0.3,0,0,0,0,0,0,0,0,0,0,0,0,0,0,0,0,0,0,0,0,0,0,0,0,0,0,0,0,0,0,0,0,0,0,0,0,0" 
class="s1_38"
>Do you know the names of the strokes below? Can you write them properly?</text>

<g clip-path="url(#c11_38)">
<path d="M162.9,729.9c0,0,-0.7,0.9,1.6,3.6c2.2,2.8,16.7,18.2,17.5,18.6c0.9,0.4,4.9,1.1,5.8,-2.8c1,-3.9,0.7,-10.6,-2.1,-12.4c-2.8,-1.8,-5.9,-3.7,-11,-4.6c-5.1,-0.9,-9.9,-2.4,-10.6,-2.6c-0.6,-0.1,-0.8,0,-1.2,0.2Z" class="g5_38" />
</g>
<g clip-path="url(#c12_38)">
<path d="M294.2,737.8c0,0,-0.3,0.5,0.3,2.1c0.5,1.6,4.1,8.8,7.6,9.3c3.5,0.4,7.4,-2.5,10.2,-3.4c2.9,-0.8,10.2,-2.4,16,-2.3c5.7,0.1,10.3,1.6,12.5,1.4c2.1,-0.1,3.3,-1.1,1.8,-4.5c-1.5,-3.4,-7.3,-8,-9.5,-8.6c-2.3,-0.5,-5.1,3.8,-6.5,4.1c-1.4,0.4,-6.1,1,-9.7,1.4c-3.6,0.3,-16,2.1,-18.5,1.9c-2.6,-0.3,-2.8,0.2,-4.2,-1.4Z" class="g5_38" />
</g>
<g clip-path="url(#c13_38)">
<path d="M443.1,728.1c0,0,-1.3,-0.5,-0.9,-1.2c0.5,-0.7,2.3,-0.4,3.8,-0.3c1.5,0.2,1.8,0.9,2.6,1.8c0.7,0.9,4.1,7.4,5.2,8.2c1.1,0.8,6.9,8.2,8.4,9.3c1.5,1.2,1.6,2.6,6,5c4.4,2.5,4.6,2.1,4.4,3.5c-0.1,1.4,-3.3,0.7,-5.4,0.9c-2,0.2,-8.2,-0.9,-10.6,-5.4c-2.4,-4.4,-6.2,-13.3,-7.8,-15.7c-1.6,-2.5,-5.7,-6.1,-5.7,-6.1Z" class="g5_38" />
</g>
<g clip-path="url(#c14_38)">
<path d="M595,726c0,0,0.3,-0.8,1.4,-0.9c1.2,0,1.3,-0.1,2,0.3c0.7,0.3,1.2,0.5,2.2,0.5c0.9,-0.1,1.8,-0.2,2,0.3c0.2,0.5,0.1,1.8,-0.1,2.3c-0.3,0.6,-0.7,1.5,-0.8,2.3c-0.2,0.8,-0.4,3.2,-0.3,6.1c0.1,3,0.1,9.2,-0.6,12.9c-0.6,3.6,-1.7,5.3,-2,5.2c-0.3,0,-1.2,-0.9,-1.6,-2.5c-0.4,-1.6,-1.6,-6.8,-1.3,-9.6c0.2,-2.9,1.5,-9.5,1.3,-12.9c-0.3,-3.3,-1.2,-3.6,-2.2,-4Z" class="g5_38" />
</g>
<g clip-path="url(#c15_38)">
<path d="M715.9,755.2c0,0,0.1,-0.3,1.8,-0.9c1.7,-0.6,6.2,-3.5,11.6,-10.3c5.4,-6.9,6.2,-10.8,7,-12.4c0.7,-1.5,3.4,-7.3,4.8,-7.5c1.5,-0.1,3.8,1.8,4.6,2.3c0.8,0.5,1.3,1.7,1,2.5c-0.3,0.7,-0.6,1.4,-1,1.9c-0.4,0.5,-0.9,1.1,-1.6,1.3c-0.8,0.3,-0.9,0.7,-1.4,1.5c-0.5,0.8,-5.3,7.5,-6.6,8.8c-1.3,1.3,-8.3,7.5,-11.7,9.7c-3.4,2.1,-7.9,5,-8.5,3.1Z" class="g5_38" />
</g>
<path d="M55,91.6l13.8,0" class="g6_38" />
<text 
x="55" 
y="85" 
dx="0" 
class="s7_38"
>D</text>

<text 
x="385" 
y="90" 
dx="0,0,0,0,0,0,0,-0.3,0,0,0,-0.5,0" 
class="s8_38"
>Basic Strokes</text>

<g clip-path="url(#c16_38)">
<path d="M105.5,57l0,57l0,0.8l0.8,0l703.4,0l0.8,0l0,-0.8l0,-57l0,-0.7l-0.8,0l-703.4,0l-0.8,0l0,0.7Z" class="g7_38" />
</g>
<path d="M107.6,112.8l700.8,0l0,-54.5l-700.8,0l0,54.5Z" class="g8_38" />
<path d="M104.7,114.8l705.8,0l0,-59l-705.8,0l0,59Z" class="g7_38" />
<text 
x="103" 
y="898" 
dx="0,0,0,0,0,0,0,0,0,0,0,0,0,0,0,0,0,0,0,0,0,-0.3,0,0,0,0,0,0,0,0,0,0,0,0,0,0,0,0,0,0,0,0,0,-0.3,0,0,0,0,0,0,0,0,0,0,0,0,0,0,0,0,0,0,0,0,0,0,0,0,0,0,0,0,0,0,0,0,0,0,0,0,0,0,0,0,0,0,0,0,0,0,0,0,0,0,0,0,0,0,0,0,0,0,-0.3,0,0,0,0,0,0,0" 
class="s1_38"
>Following these stroke order rules will make it easier for you to accurately count the number of strokes in a </text>

<text 
x="103" 
y="915" 
dx="0,0,0,0,0,0,0,0,0,-1.2,0,0,0,0,0,0,0,0,0,0,0,0,0,0,-0.5,0,0,0,0,0,0,0,0,0,0,0,0,0,0,0,0,0,0,0,-0.3,0,0,0,0,0,0,0,0,0,0,0,0,0,0,0,0,0,0,0,0,0,0,0,0,0,0,0,0,0,0,0,0,0,0,0,0,0,0,0,0,0,0,0,0,0,0,0,0,0,0,0,0,0,0,0,0,0,0,0,0,0,0,0" 
class="s1_38"
>character. Knowing the exact number of strokes in a character will help you find the character in a radical-</text>

<text 
x="103" 
y="933" 
dx="0,0,0,0,0,0,0,0,0,0,0,0,0,0,0,0,-0.8,0,0,0,0,0,0,0,0,-0.8,0,0,0,0,0,0,0,0,0,0,0,0,0,0,0,0,0,0,0,0,0,0,0,0,0,0,0,0,0,0,0,0,0,0,0,0,0,0,0,0,0,0,0,0,0,0,0,0,0,0,0,0,0,0,0,0,0,0,0,0,0,0,0,0,0,0,0,0,0,0,0,0,0,0,0,0,0,0,0,0,-0.3,0,0,0,0,0,0,0" 
class="s1_38"
>based dictionary. Finally, your Chinese characters will look better if you write them in the correct stroke order!</text>

<text 
x="103" 
y="1112" 
dx="0,0,0,0,0,0,0,-0.3,0,0,0,0,0,0,0,0,0,0,0,0,0,0,0,0,0,0,0,0,0,-0.3,0,0,0,0,0,0,0,0,0,0,0,0,0,0,0,0,0,0,0,0,0,0,0,0,0,0,0,0,0,0,0,0,0,0,0,0,0,0,0,0,0,0,0,0,0,0,0,0,0,0,0,0,0,0,0,0,0,0,0,0,0,0,0,0,0,0,0,0,0,0,0,0,0" 
class="s1_38"
>Note: Learn the correct stroke order of the characters introduced in this book by using the associated </text>

<text 
x="103" 
y="1129" 
dx="0,0,0,0,0,0,0,0,0,0,0,-0.6,0,0,0,0,0,0,0" 
class="s1_38"
>Character Workbook.</text>

<path d="M55,838.2l13.8,0" class="g6_38" />
<text 
x="55" 
y="832" 
dx="0" 
class="s7_38"
>E</text>

<text 
x="388" 
y="836" 
dx="0,-0.3,0,0,0,-0.5,0,0,0,0,0,0" 
class="s8_38"
>Stroke Order</text>

<g clip-path="url(#c17_38)">
<path d="M105.5,803.7l0,57l0,0.7l0.8,0l703.4,0l0.8,0l0,-0.7l0,-57l0,-0.8l-0.8,0l-703.4,0l-0.8,0l0,0.8Z" class="g7_38" />
</g>
<path d="M107.6,859.4l700.8,0l0,-54.5l-700.8,0l0,54.5Z" class="g8_38" />
<path d="M104.7,861.4l705.8,0l0,-59l-705.8,0l0,59Z" class="g7_38" />
<path d="M104,987.1l353.6,0" class="g9_38" />
<path d="M104,1025.7l353.6,0" class="g9_38" />
<path d="M104,1064.4l353.6,0" class="g9_38" />
<text 
x="103" 
y="979" 
dx="0,0,0" 
class="s9_38"
>1. </text>

<text 
x="131" 
y="979" 
dx="0,0,0,0,0,0,0,0,0,0,0,0,0,0,0,0,0,0,0" 
class="s9_38"
>From left to right </text>

<text 
x="359" 
y="979" 
dx="0,0,0" 
class="s10_38"
>川，人</text>

<text 
x="103" 
y="1018" 
dx="0,0,0" 
class="s9_38"
>2. </text>

<text 
x="131" 
y="1018" 
dx="0,0,0,0,0,0,0,0,0,0,0,0,0,0,0,0,0,0" 
class="s9_38"
>From top to bottom</text>

<text 
x="359" 
y="1018" 
dx="0" 
class="s10_38"
>三</text>

<text 
x="103" 
y="1057" 
dx="0,0,0,10.2,0,0,0,0,0,0,0,0,0,0,0,0,0,0,0,0,0,0,0,0,0,0,0,0,0" 
class="s9_38"
>3. Horizontal before vertical</text>

<text 
x="359" 
y="1057" 
dx="0" 
class="s10_38"
>十</text>

<path d="M498.8,987.1l312.5,0" class="g9_38" />
<path d="M498.8,1025.7l312.5,0" class="g9_38" />
<path d="M498.8,1064.4l312.5,0" class="g9_38" />
<text 
x="498" 
y="979" 
dx="0,0,0" 
class="s9_38"
>4. </text>

<text 
x="526" 
y="979" 
dx="0,0,0,0,0,0,0,0,0,0,0,0,0,0,0,0,0,0,0,0,0,0" 
class="s9_38"
>From outside to inside</text>

<text 
x="712" 
y="979" 
dx="0" 
class="s10_38"
>月</text>

<text 
x="498" 
y="1018" 
dx="0,0,0" 
class="s9_38"
>5. </text>

<text 
x="526" 
y="1018" 
dx="0,0,0,0,0,0,0,0,0,0,0,0,0,0,0,0,0,0,0,0,0,0,0" 
class="s9_38"
>Middle before two sides</text>

<text 
x="712" 
y="1018" 
dx="0" 
class="s10_38"
>小</text>

<text 
x="498" 
y="1057" 
dx="0,0,0,9.8,0,0,0,0,0,0,0,0,0,0,0,0,0,0,0,0,0,0,0,0" 
class="s9_38"
>6. Inside before closing</text>

<text 
x="712" 
y="1057" 
dx="0,0,0" 
class="s10_38"
>日，回</text>

<path d="M885.3,1224.5l55,0l0,-1252.7l-55,0l0,1252.7Z" class="g10_38" />
<text 
transform="matrix(0, 1, -1, 0, 894, 1117)"
dx="0,0.3,0.3,0.3,0.3,0.3,0.3" 
class="s11_38"
>Basics </text>

<text 
transform="matrix(0, 1, -1, 0, 894, 1162)"
dx="0,0.3" 
class="s11_38"
>17</text>



<!-- Any embedded fonts defined here -->
<style type="text/css" ><![CDATA[

@font-face {
	font-family: Marion-Italic_2si;
	src: url("fonts/Marion-Italic_2si.woff") format("woff");
}

@font-face {
	font-family: ProximaNova-Bold_2ss;
	src: url("fonts/ProximaNova-Bold_2ss.woff") format("woff");
}

@font-face {
	font-family: ProximaNova-Regular_2sw;
	src: url("fonts/ProximaNova-Regular_2sw.woff") format("woff");
}

@font-face {
	font-family: Marion-Italic_2sy;
	src: url("fonts/Marion-Italic_2sy.woff") format("woff");
}

@font-face {
	font-family: STKaiti-SC-Bold_2sb;
	src: url("fonts/STKaiti-SC-Bold_2sb.woff") format("woff");
}

@font-face {
	font-family: STKaiti-SC-Regular_2t7;
	src: url("fonts/STKaiti-SC-Regular_2t7.woff") format("woff");
}

@font-face {
	font-family: ProximaNova-Semibold_2s-;
	src: url("fonts/ProximaNova-Semibold_2s-.woff") format("woff");
}

]]></style>

</svg>
