<?xml version="1.0" encoding="UTF-8" standalone="no"?>
<!DOCTYPE svg PUBLIC "-//W3C//DTD SVG 1.1//EN"
"http://www.w3.org/Graphics/SVG/1.1/DTD/svg11.dtd">


<!-- Page 131 -->
<svg x="0" y="0" width="921" height="1196" viewBox="0 0 921 1196" version="1.1" xmlns="http://www.w3.org/2000/svg" xmlns:xlink="http://www.w3.org/1999/xlink"
style="display: block;margin-left: auto;margin-right: auto;">
<defs>

<style type="text/css"><![CDATA[

.g1_131{
fill: none;
stroke: #007D9F;
stroke-width: 2.2916667;
stroke-linecap: butt;
stroke-linejoin: miter;
}
.g2_131{
fill: none;
stroke: #007598;
stroke-width: 1.5277778;
stroke-linecap: butt;
stroke-linejoin: miter;
stroke-miterlimit: 4;
}
.g3_131{
fill: none;
stroke: #007598;
stroke-width: 0.5102778;
stroke-linecap: butt;
stroke-linejoin: miter;
stroke-miterlimit: 4;
}
.g4_131{
fill: #007598;
stroke: #B2B3B7;
stroke-width: 1.5277778;
stroke-linecap: butt;
stroke-linejoin: miter;
stroke-miterlimit: 4;
}

.s1_131{
font-size: 19.86px;
font-family: ProximaNova-Extrabld_2yv;
fill: #007D9F;
}
.s2_131{
font-size: 27.50px;
font-family: STKaiti-SC-Regular_2t7;
fill: #3F3F40;
}
.s3_131{
font-size: 22.92px;
font-family: Marion-Italic_2si;
fill: #3F3F40;
}
.s4_131{
font-size: 24.44px;
font-family: ProximaNova-Bold_2yz;
fill: #007D9F;
}
.s5_131{
font-size: 15.28px;
font-family: ProximaNova-Light_2z3;
fill: #3F3F40;
}
.s6_131{
font-size: 16.81px;
font-family: ProximaNova-Extrabld_2yv;
fill: #3F3F40;
}
.s7_131{
font-size: 32.08px;
font-family: STKaiti-SC-Regular_2t7;
fill: #3F3F40;
}
.s8_131{
font-size: 32.08px;
font-family: STKaiti-SC-Regular_2t7;
fill: #007D9F;
}
.s9_131{
font-size: 17.57px;
font-family: Marion-Italic_2si;
fill: #3F3F40;
}
.s10_131{
font-size: 17.57px;
font-family: Marion-Italic_2si;
fill: #007D9F;
}
.s11_131{
font-size: 17.57px;
font-family: Marion-Italic_2y-;
fill: #3F3F40;
}
.s12_131{
font-size: 16.81px;
font-family: ProximaNova-Bold_2yz;
fill: #007598;
}
.s13_131{
font-size: 21.39px;
font-family: STKaiti-SC-Bold_2sb;
fill: #007598;
}
.s14_131{
font-size: 16.81px;
font-family: ProximaNova-Bold_2yz;
fill: #939598;
}
.s15_131{
font-size: 11.46px;
font-family: ProximaNova-Semibold_2z7;
fill: #FFFFFF;
}

]]></style>

</defs>
<path d="M0,0
L0,1196
L921,1196
L921,0 Z " 
fill="#FFFFFF" stroke="none" />
<path d="M105.3,73.7l13,0" class="g1_131" />
<text 
x="105" 
y="70" 
dx="0,0" 
class="s1_131"
>4 </text>

<text 
x="355" 
y="74" 
dx="0" 
class="s2_131"
>去</text>

<text 
x="389" 
y="74" 
dx="0,0,0,0" 
class="s3_131"
>(qù)</text>

<text 
x="426" 
y="74" 
dx="0,0,0,0,0,0,0,0,0,0,0,0,0,0,0,0" 
class="s4_131"
>(to go) + action</text>

<text 
x="143" 
y="136" 
dx="0,0,0,0,0,0,0,0,0,0,0,0,0,0,0,0,0,0,0,0,0,0,0,0,0,0,0,0,0,0,0,0,0,0,0,0,0,0,0,0,0,0,0,0,0,0,0,0,0,0,0,0,0,0,0,0,0,0,0,0,0,0,0,0,0,0,0,0,0,0,0,0,0,0,0,0,0,0,0,0,0,0,0,0,0,0,0,0,0,0,0,0,0,0,-0.7" 
class="s5_131"
>If the performance of an action involves a change of location, then use the construction below.</text>

<text 
x="154" 
y="192" 
dx="0,-0.3" 
class="s6_131"
>A </text>

<text 
x="220" 
y="195" 
dx="0,-0.6,-0.6,-0.6" 
class="s7_131"
>我们明天</text>

<text 
x="220" 
y="233" 
dx="0,-0.6,-0.6,-0.6" 
class="s8_131"
>去看电影</text>

<text 
x="345" 
y="233" 
dx="0" 
class="s7_131"
>。</text>

<text 
x="224" 
y="270" 
dx="0,0.2,0.2,0.2,0.2,0.2,0.2,0.2,0.2,0.2,0.2,0.2,0.2,0.2,0.2" 
class="s9_131"
>Wǒmen míngtiān </text>

<text 
x="335" 
y="270" 
dx="0,0.2,0.2,0.2,0.2,0.2,0.2,0.2,0.2,0.2,0.2,0.2,0.2,0.2,0.2" 
class="s10_131"
>qù kàn diànyǐng</text>

<text 
x="434" 
y="270" 
dx="0" 
class="s11_131"
>.</text>

<text 
x="571" 
y="192" 
dx="0,0" 
class="s6_131"
>C </text>

<text 
x="637" 
y="195" 
dx="0,-2.6,-2.6" 
class="s7_131"
>晚上我</text>

<text 
x="637" 
y="233" 
dx="0,-2.6,-2.6,-2.6" 
class="s8_131"
>不去跳舞</text>

<text 
x="755" 
y="233" 
dx="0" 
class="s7_131"
>。</text>

<text 
x="642" 
y="270" 
dx="0,0.2,0.2,0.2,0.2,0.2,0.2,0.2,0.2,0.2,0.2,0.2" 
class="s9_131"
>Wǎnshang wǒ </text>

<text 
x="733" 
y="270" 
dx="0,0.2" 
class="s10_131"
>bú</text>

<text 
x="753" 
y="270" 
dx="0,0.2,0.2,0.2,0.2,0.2,0.2,0.2,0.2,0.2" 
class="s10_131"
>qù tiào wǔ</text>

<text 
x="818" 
y="270" 
dx="0" 
class="s11_131"
>.</text>

<text 
x="642" 
y="302" 
dx="0,0,0,0,0,0,0,0,0,0,0,0,0,0,0,0,0,0,0,0,0,0,0,0,0,0,0,0,0,0" 
class="s5_131"
>I will not go dancing tonight.</text>

<path d="M105.3,790.9l13,0" class="g1_131" />
<text 
x="154" 
y="358" 
dx="0,0" 
class="s6_131"
>B </text>

<text 
x="220" 
y="361" 
dx="0,0,0" 
class="s7_131"
>周末我</text>

<text 
x="316" 
y="361" 
dx="0,0,0" 
class="s8_131"
>去跳舞</text>

<text 
x="412" 
y="361" 
dx="0,0,0,0,0,0" 
class="s7_131"
>，你去不去？</text>

<text 
x="224" 
y="398" 
dx="0,0.2,0.2,0.2,0.2,0.2,0.2,0.2,0.2,0.2" 
class="s9_131"
>Zhōumò wǒ </text>

<text 
x="301" 
y="398" 
dx="0,0.2,0.2,0.2,0.2,0.2,0.2,0.2,0.2,0.2" 
class="s10_131"
>qù tiào wǔ</text>

<text 
x="366" 
y="398" 
dx="0,0.2,0.2,0.2,0.2,0.2,0.2,0.2,0.2,0.2,0.2,0.2,0.2,0.2" 
class="s9_131"
>, nǐ qù bu qù?</text>

<text 
x="224" 
y="430" 
dx="0,0,0,0,0,0,0,0,0,0,0,0,0,0,0,0,0,0,0,0,0,0,0,0,0,-0.3,0,0,0,0,0,0,0,0,0,0,0,0,0,0,0,0,0,-0.3" 
class="s5_131"
>I’ll go dancing this weekend. Are you going?</text>

<text 
x="143" 
y="474" 
dx="0,0.2,0.2,0.2,0.2,0.2,0.2,0.2,0.2" 
class="s12_131"
>EXERCISES</text>

<text 
x="143" 
y="502" 
dx="0,0,0,0,0,0,0,0,0,0,0,0,0,0,0,0,0,0,0,0,0,0,0,0,0,0,0,0,0,0,0,0,0,0,0,0,0,0,0,0,0,0,0,0,0,0,0,0,0,0,0,0,0,0,0,0,0,0,0,0,0" 
class="s5_131"
>Answer these questions, inserting the given verb phrases and </text>

<text 
x="553" 
y="502" 
dx="0" 
class="s13_131"
>去</text>

<text 
x="579" 
y="502" 
dx="0,0,0,0,0,0,0,0,0,0,0,0,0,0,0,0,0,-0.1,0,0,0,0,0" 
class="s5_131"
>where appropriate. Use </text>

<text 
x="143" 
y="529" 
dx="0,-0.4,-0.6,0,0,0,0,0,0,0,0,0,0,0,0,0,0,0,-0.4,0,0,0,0,0,-0.1,0" 
class="s5_131"
>exercise 1 as an example. </text>

<text 
x="145" 
y="572" 
dx="0,0" 
class="s14_131"
>1 </text>

<text 
x="187" 
y="572" 
dx="0,0" 
class="s14_131"
>Q:</text>

<text 
x="213" 
y="574" 
dx="0,0,0,0,0,0,0,0,0,0" 
class="s7_131"
>李友明天晚上做什么？</text>

<text 
x="681" 
y="574" 
dx="0,0,0,0,0" 
class="s7_131"
>看中国电影</text>

<text 
x="187" 
y="618" 
dx="0" 
class="s7_131"
>→</text>

<text 
x="228" 
y="616" 
dx="0,0" 
class="s14_131"
>A:</text>

<text 
x="251" 
y="618" 
dx="0,0,0,0,0,0,0,0,0,0,0,0,0" 
class="s7_131"
>李友明天晚上去看中国电影。</text>

<text 
x="145" 
y="661" 
dx="0,0" 
class="s14_131"
>2 </text>

<text 
x="187" 
y="661" 
dx="0,0" 
class="s14_131"
>Q:</text>

<text 
x="213" 
y="662" 
dx="0,0,0,0,0,0,0,0,0,0,0,0" 
class="s7_131"
>白英爱星期天晚上做什么？</text>

<text 
x="681" 
y="662" 
dx="0,0" 
class="s7_131"
>打球</text>

<text 
x="145" 
y="705" 
dx="0,0" 
class="s14_131"
>3 </text>

<text 
x="187" 
y="705" 
dx="0,0" 
class="s14_131"
>Q:</text>

<text 
x="213" 
y="706" 
dx="0,0,0,0,0,0,0,0,0,0,0,0,0" 
class="s7_131"
>王朋和李友今天晚上做什么？</text>

<text 
x="681" 
y="706" 
dx="0,0,0,0" 
class="s7_131"
>吃美国菜</text>

<text 
x="105" 
y="787" 
dx="0,0" 
class="s1_131"
>5 </text>

<text 
x="288" 
y="792" 
dx="0,0,0,0,0,0,0,0,0,0,0,0,0,0,0" 
class="s4_131"
>Questions with </text>

<text 
x="460" 
y="792" 
dx="0,0" 
class="s2_131"
>好吗</text>

<text 
x="521" 
y="792" 
dx="0,0,0,0,0,0,0,0" 
class="s3_131"
>(hǎo ma)</text>

<text 
x="597" 
y="792" 
dx="0,0,0,0,0" 
class="s4_131"
>(OK?)</text>

<text 
x="143" 
y="853" 
dx="0,-1.9,0,0,0,0,0,0,0,0,0,0,0,0,0,0,0,0,0,-0.5,0,0,0,0,0,0,0,0,0,0,0,0,0,0,0,0,0,0,0,0,0" 
class="s5_131"
>To solicit someone’s opinion, we can ask </text>

<text 
x="414" 
y="853" 
dx="0,0" 
class="s13_131"
>好吗</text>

<text 
x="461" 
y="853" 
dx="0,0,0,0,0,0,0,0" 
class="s9_131"
>(hǎo ma)</text>

<text 
x="518" 
y="853" 
dx="0,0,0,0,0,0,0,0,0,0,0,0,0,0,0,0,0,0,0,0,0,0,0,0,0,0,0,0,0,0,0,0,0,0,0,0,0,0,0,0,0,0,0" 
class="s5_131"
>(OK?) after stating an idea or suggestion. </text>

<text 
x="143" 
y="881" 
dx="0,0,0,0,0,0,0,0,0,0,0,0,0,0,0,0,0,-0.1,0,0,0,0,0,0,0,0,0,0,0,0,0,0,0,0,0" 
class="s5_131"
>As an alternative, we can also say </text>

<text 
x="368" 
y="881" 
dx="0,0,0" 
class="s13_131"
>好不好</text>

<text 
x="437" 
y="881" 
dx="0,0,0,0,0,0,0,0,0,0,0,0" 
class="s9_131"
>(hǎo bu hǎo)</text>

<text 
x="517" 
y="881" 
dx="0,0,0,0,0,0,0,0,0,0,0,0,0" 
class="s5_131"
>(all right?).</text>

<text 
x="154" 
y="937" 
dx="0,0" 
class="s6_131"
>A </text>

<text 
x="220" 
y="939" 
dx="0,0,0,0,0,0,0" 
class="s7_131"
>我们去看电影，</text>

<text 
x="444" 
y="939" 
dx="0,0" 
class="s8_131"
>好吗</text>

<text 
x="508" 
y="939" 
dx="0" 
class="s7_131"
>？</text>

<text 
x="224" 
y="976" 
dx="0,0.2,0.2,0.2,0.2,0.2,0.2,0.2,0.2,0.2,0.2,0.2,0.2,0.2,0.2,0.2,0.2,0.2,0.2,0.2,0.2,0.2,0.2" 
class="s9_131"
>Wǒmen qù kàn diànyǐng, </text>

<text 
x="384" 
y="976" 
dx="0,0.2,0.2,0.2,0.2,0.2" 
class="s10_131"
>hǎo ma</text>

<text 
x="430" 
y="976" 
dx="0" 
class="s11_131"
>?</text>

<text 
x="224" 
y="1008" 
dx="0,-0.6,0,0,0,0,0,0,0,0,0,0,0,0,0,0,0,0,0,0,-0.1,0,0,0,0" 
class="s5_131"
>We’ll go see a movie, OK?</text>

<text 
x="154" 
y="1065" 
dx="0,0" 
class="s6_131"
>B </text>

<text 
x="220" 
y="1067" 
dx="0,0,0,0,0,0,0,0,0,0,0" 
class="s7_131"
>我们今天晚上吃中国菜，</text>

<text 
x="572" 
y="1067" 
dx="0,0" 
class="s8_131"
>好吗</text>

<text 
x="637" 
y="1067" 
dx="0" 
class="s7_131"
>？</text>

<text 
x="224" 
y="1104" 
dx="0,0.2,0.2,0.2,0.2,0.2,0.2,0.2,0.2,0.2,0.2,0.2,0.2,0.2,0.2,0.2,0.2,0.2,0.2,0.2,0.2,0.2,0.2,0.2,0.2,0.2,0.2,0.2,0.2,0.2,0.2,0.2,0.2,0.2,0.2,0.2,0.2,0.2,0.2,0.2,0.2" 
class="s9_131"
>Wǒmen jīntiān wǎnshang chī Zhōngguó cài, </text>

<text 
x="498" 
y="1104" 
dx="0,0.2,0.2,0.2,0.2,0.2" 
class="s10_131"
>hǎo ma</text>

<text 
x="544" 
y="1104" 
dx="0" 
class="s11_131"
>?</text>

<text 
x="224" 
y="1136" 
dx="0,-0.6,0,0,0,0,0,0,0,0,0,0,0,0,0,0,0,0,0,0,0,0,0,0,0,0,0,0,0,0,0,0,0,0,0" 
class="s5_131"
>We’ll eat Chinese food tonight, OK?</text>

<path d="M132.9,39.5l0,53.5l0,0.7l0.7,0l676.9,0l0.8,0l0,-0.7l0,-53.5l0,-0.8l-0.8,0l-676.9,0l-0.7,0l0,0.8Z" class="g2_131" />
<path d="M134.9,91.7l674.4,0l0,-50.9l-674.4,0l0,50.9Z" class="g3_131" />
<path d="M149.1,169.4c-0.1,0,-7.6,0.1,-7.6,7.6l0,19.7c0,0.1,0,7.6,7.6,7.6l22.4,0c0.1,0,7.6,0,7.6,-7.6l0,-19.7c0,-0.1,0,-7.6,-7.6,-7.6l-22.4,0Z" class="g2_131" />
<path d="M149.1,171.4c-0.6,0,-5.6,0.2,-5.6,5.6l0,19.7c0,0.6,0.2,5.6,5.6,5.6l22.4,0c0.6,0,5.6,-0.2,5.6,-5.6l0,-19.7c0,-0.6,-0.2,-5.6,-5.6,-5.6l-22.4,0Z" class="g3_131" />
<path d="M567.6,169.4c-0.1,0,-7.7,0.1,-7.7,7.6l0,19.7c0,0.1,0.1,7.6,7.7,7.6l22.4,0c0,0,7.6,0,7.6,-7.6l0,-19.7c0,-0.1,-0.1,-7.6,-7.6,-7.6l-22.4,0Z" class="g2_131" />
<path d="M567.6,171.4c-0.6,0,-5.6,0.2,-5.6,5.6l0,19.7c0,0.6,0.2,5.6,5.6,5.6l22.4,0c0.5,0,5.6,-0.2,5.6,-5.6l0,-19.7c0,-0.6,-0.2,-5.6,-5.6,-5.6l-22.4,0Z" class="g3_131" />
<path d="M149.1,335.4c-0.1,0,-7.6,0.1,-7.6,7.6l0,19.7c0,0.1,0,7.6,7.6,7.6l22.4,0c0.1,0,7.6,0,7.6,-7.6l0,-19.7c0,-0.1,0,-7.6,-7.6,-7.6l-22.4,0Z" class="g2_131" />
<path d="M149.1,337.4c-0.6,0,-5.6,0.2,-5.6,5.6l0,19.7c0,0.6,0.2,5.6,5.6,5.6l22.4,0c0.6,0,5.6,-0.2,5.6,-5.6l0,-19.7c0,-0.6,-0.2,-5.6,-5.6,-5.6l-22.4,0Z" class="g3_131" />
<path d="M132.9,756.8l0,53.4l0,0.8l0.7,0l676.9,0l0.8,0l0,-0.8l0,-53.4l0,-0.8l-0.8,0l-676.9,0l-0.7,0l0,0.8Z" class="g2_131" />
<path d="M134.9,809l674.4,0l0,-51l-674.4,0l0,51Z" class="g3_131" />
<path d="M149.1,914.2c-0.1,0,-7.6,0.1,-7.6,7.6l0,19.7c0,0.1,0,7.6,7.6,7.6l22.4,0c0.1,0,7.6,-0.1,7.6,-7.6l0,-19.7c0,-0.1,0,-7.6,-7.6,-7.6l-22.4,0Z" class="g2_131" />
<path d="M149.1,916.2c-0.6,0,-5.6,0.2,-5.6,5.6l0,19.7c0,0.6,0.2,5.6,5.6,5.6l22.4,0c0.6,0,5.6,-0.2,5.6,-5.6l0,-19.7c0,-0.6,-0.2,-5.6,-5.6,-5.6l-22.4,0Z" class="g3_131" />
<path d="M149.1,1041.7c-0.1,0,-7.6,0,-7.6,7.6l0,19.7c0,0.1,0,7.6,7.6,7.6l22.4,0c0.1,0,7.6,-0.1,7.6,-7.6l0,-19.7c0,-0.1,0,-7.6,-7.6,-7.6l-22.4,0Z" class="g2_131" />
<path d="M149.1,1043.7c-0.6,0,-5.6,0.2,-5.6,5.6l0,19.7c0,0.6,0.2,5.6,5.6,5.6l22.4,0c0.6,0,5.6,-0.2,5.6,-5.6l0,-19.7c0,-0.6,-0.2,-5.6,-5.6,-5.6l-22.4,0Z" class="g3_131" />
<text 
x="228" 
y="301" 
dx="0,-0.6,0,0,0,0,0,0,0,0,0,0,0,0,0,0,0,0,0,0,0,0,0,0,0,0,0,0,0,0,0,0,0,0,0,0,-0.7" 
class="s5_131"
>We are going to see a movie tomorrow.</text>

<path d="M-22.1,1236.7l58,0L35.9,-35l-58,0l0,1271.7Z" class="g4_131" />
<text 
transform="matrix(0, -1, 1, 0, 26, 1173)"
dx="0,0.3,0.3,0.3" 
class="s15_131"
>110 </text>

<text 
transform="matrix(0, -1, 1, 0, 26, 1140)"
dx="0,0.3,0.3,0.3,0.3,0.3,0.3,0.3,0.3,0.3,0.3,0.3,0.3,0.3,0.3,0.3,0.3,0.3,0.3,0.3,0.3" 
class="s15_131"
>Integrated Chinese 1 </text>

<text 
transform="matrix(0, -1, 1, 0, 26, 1018)"
dx="0,0.3" 
class="s15_131"
>| </text>

<text 
transform="matrix(0, -1, 1, 0, 26, 1005)"
dx="0,-0.9,-0.1,0.3,0.3,0.3,0.3,0.3" 
class="s15_131"
>Textbook</text>



<!-- Any embedded fonts defined here -->
<style type="text/css" ><![CDATA[

@font-face {
	font-family: Marion-Italic_2si;
	src: url("fonts/Marion-Italic_2si.woff") format("woff");
}

@font-face {
	font-family: ProximaNova-Extrabld_2yv;
	src: url("fonts/ProximaNova-Extrabld_2yv.woff") format("woff");
}

@font-face {
	font-family: ProximaNova-Semibold_2z7;
	src: url("fonts/ProximaNova-Semibold_2z7.woff") format("woff");
}

@font-face {
	font-family: ProximaNova-Light_2z3;
	src: url("fonts/ProximaNova-Light_2z3.woff") format("woff");
}

@font-face {
	font-family: STKaiti-SC-Bold_2sb;
	src: url("fonts/STKaiti-SC-Bold_2sb.woff") format("woff");
}

@font-face {
	font-family: ProximaNova-Bold_2yz;
	src: url("fonts/ProximaNova-Bold_2yz.woff") format("woff");
}

@font-face {
	font-family: Marion-Italic_2y-;
	src: url("fonts/Marion-Italic_2y-.woff") format("woff");
}

@font-face {
	font-family: STKaiti-SC-Regular_2t7;
	src: url("fonts/STKaiti-SC-Regular_2t7.woff") format("woff");
}

]]></style>

</svg>
