<?xml version="1.0" encoding="UTF-8" standalone="no"?>
<!DOCTYPE svg PUBLIC "-//W3C//DTD SVG 1.1//EN"
"http://www.w3.org/Graphics/SVG/1.1/DTD/svg11.dtd">


<!-- Page 175 -->
<svg x="0" y="0" width="921" height="1196" viewBox="0 0 921 1196" version="1.1" xmlns="http://www.w3.org/2000/svg" xmlns:xlink="http://www.w3.org/1999/xlink"
style="display: block;margin-left: auto;margin-right: auto;">
<defs>
<clipPath id="c0_175"><path d="M0,1196.3L0,0L921.3,0l0,1196.3Z" /></clipPath>

<style type="text/css"><![CDATA[

.g1_175{
fill: #FFFFFF;
}
.g2_175{
fill: none;
stroke: #FED205;
stroke-width: 4.5833335;
stroke-linecap: butt;
stroke-linejoin: miter;
stroke-miterlimit: 4;
}
.g3_175{
fill: none;
stroke: #482D8F;
stroke-width: 0.6248611;
stroke-linecap: butt;
stroke-linejoin: miter;
}
.g4_175{
fill: none;
stroke: #482D8F;
stroke-width: 1.8730555;
stroke-linecap: butt;
stroke-linejoin: miter;
}
.g5_175{
fill: #F0F1F2;
}
.g6_175{
fill: none;
stroke: #BDBEC1;
stroke-width: 0.38194445;
stroke-linecap: butt;
stroke-linejoin: miter;
}
.g7_175{
fill: none;
stroke: #A8A9AD;
stroke-width: 1.5277778;
stroke-linecap: butt;
stroke-linejoin: miter;
}
.g8_175{
fill: none;
stroke: #BDBEC1;
stroke-width: 1.5277778;
stroke-linecap: butt;
stroke-linejoin: miter;
}
.g9_175{
fill: #482D8F;
stroke: #B2B3B7;
stroke-width: 1.5277778;
stroke-linecap: butt;
stroke-linejoin: miter;
stroke-miterlimit: 4;
}

.s1_175{
font-size: 35.14px;
font-family: ProximaNova-Extrabld_30a;
fill: #482D8F;
}
.s2_175{
font-size: 15.28px;
font-family: ProximaNova-Bold_306;
fill: #482D8F;
}
.s3_175{
font-size: 15.28px;
font-family: ProximaNova-Semibold_30m;
fill: #77787B;
}
.s4_175{
font-size: 32.85px;
font-family: STKaiti-SC-Regular_2t7;
fill: #482D8F;
}
.s5_175{
font-size: 16.81px;
font-family: Marion-Italic_2si;
fill: #482D8F;
}
.s6_175{
font-size: 15.28px;
font-family: ProximaNova-Regular_30p;
fill: #3F3F40;
}
.s7_175{
font-size: 14.51px;
font-family: ProximaNova-Light_30o;
fill: #3F3F40;
}
.s8_175{
font-size: 14.51px;
font-family: STKaiti-SC-Regular_2t7;
fill: #3F3F40;
}
.s9_175{
font-size: 16.81px;
font-family: Marion-Italic_305;
fill: #482D8F;
}
.s10_175{
font-size: 11.46px;
font-family: ProximaNova-Semibold_30m;
fill: #FFFFFF;
}

]]></style>

</defs>
<path d="M0,0
L0,1196
L921,1196
L921,0 Z " 
fill="#FFFFFF" stroke="none" />
<g clip-path="url(#c0_175)">
<path d="M2279.9,-237.4c81,-492.1,-224.4,-952.2,-682.3,-1027.6C1139.8,-1340.3,703,-1002.5,622,-510.4C540.9,-18.3,846.4,441.6,1304.2,517c457.9,75.4,894.7,-262.4,975.7,-754.4Z" class="g1_175" />
</g>
<image preserveAspectRatio="none" x="918" y="0" width="3" height="340" xlink:href="175/img/1.png" />
<g clip-path="url(#c0_175)">
<path d="M2279.9,-237.4c81,-492.1,-224.4,-952.2,-682.3,-1027.6C1139.8,-1340.3,703,-1002.5,622,-510.4C540.9,-18.3,846.4,441.6,1304.2,517c457.9,75.4,894.7,-262.4,975.7,-754.4Z" class="g2_175" />
<path d="M551.6,407.8l369.7,0l0,-530.3l-369.7,0l0,530.3Z" class="g1_175" />
</g>
<path d="M0,72.5l225.5,0" class="g3_175" />
<path d="M0,74.9l225.5,0" class="g4_175" />
<text 
x="41" 
y="62" 
dx="0,-1.8,0.4,0.4,0.4,0.4,0.4,0.4,0.4,0.4" 
class="s1_175"
>Vocabulary</text>

<path d="M123.8,126.9l42.9,0l0,36.7l-42.9,0l0,-36.7Zm42.9,0l151.2,0l0,36.7l-151.2,0l0,-36.7Zm151.2,0l97.9,0l0,36.7l-97.9,0l0,-36.7Zm97.9,0l69,0l0,36.7l-69,0l0,-36.7Zm69,0l384.3,0l0,36.7l-384.3,0l0,-36.7Zm-361,73.3l42.9,0l0,36.7l-42.9,0l0,-36.7Zm42.9,0l151.2,0l0,36.7l-151.2,0l0,-36.7Zm151.2,0l97.9,0l0,36.7l-97.9,0l0,-36.7Zm97.9,0l69,0l0,36.7l-69,0l0,-36.7Zm69,0l384.3,0l0,36.7l-384.3,0l0,-36.7Zm-361,73.4l42.9,0l0,36.6l-42.9,0l0,-36.6Zm42.9,0l151.2,0l0,36.6l-151.2,0l0,-36.6Zm151.2,0l97.9,0l0,36.6l-97.9,0l0,-36.6Zm97.9,0l69,0l0,36.6l-69,0l0,-36.6Zm69,0l384.3,0l0,36.6l-384.3,0l0,-36.6Zm-361,73.3l42.9,0l0,36.7l-42.9,0l0,-36.7Zm42.9,0l151.2,0l0,36.7l-151.2,0l0,-36.7Zm151.2,0l97.9,0l0,36.7l-97.9,0l0,-36.7Zm97.9,0l69,0l0,36.7l-69,0l0,-36.7Zm69,0l384.3,0l0,36.7l-384.3,0l0,-36.7Zm-361,73.3l42.9,0l0,36.7l-42.9,0l0,-36.7Zm42.9,0l151.2,0l0,36.7l-151.2,0l0,-36.7Zm151.2,0l97.9,0l0,36.7l-97.9,0l0,-36.7Zm97.9,0l69,0l0,36.7l-69,0l0,-36.7Zm69,0l384.3,0l0,36.7l-384.3,0l0,-36.7Zm-361,73.4l42.9,0l0,36.6l-42.9,0l0,-36.6Zm42.9,0l151.2,0l0,36.6l-151.2,0l0,-36.6Zm151.2,0l97.9,0l0,36.6l-97.9,0l0,-36.6Zm97.9,0l69,0l0,36.6l-69,0l0,-36.6Zm69,0l384.3,0l0,36.6l-384.3,0l0,-36.6Zm-361,73.3l42.9,0l0,41.1l-42.9,0l0,-41.1Zm42.9,0l151.2,0l0,41.1l-151.2,0l0,-41.1Zm151.2,0l97.9,0l0,41.1l-97.9,0l0,-41.1Zm97.9,0l69,0l0,41.1l-69,0l0,-41.1Zm69,0l384.3,0l0,41.1l-384.3,0l0,-41.1Zm-361,77.8l42.9,0l0,36.7l-42.9,0l0,-36.7Zm42.9,0l151.2,0l0,36.7l-151.2,0l0,-36.7Zm151.2,0l97.9,0l0,36.7l-97.9,0l0,-36.7Zm97.9,0l69,0l0,36.7l-69,0l0,-36.7Zm69,0l384.3,0l0,36.7l-384.3,0l0,-36.7ZM123.8,718l42.9,0l0,36.7l-42.9,0l0,-36.7Zm42.9,0l151.2,0l0,36.7l-151.2,0l0,-36.7Zm151.2,0l97.9,0l0,36.7l-97.9,0l0,-36.7Zm97.9,0l69,0l0,36.7l-69,0l0,-36.7Zm69,0l384.3,0l0,36.7l-384.3,0l0,-36.7Zm-361,73.4l42.9,0l0,36.6l-42.9,0l0,-36.6Zm42.9,0l151.2,0l0,36.6l-151.2,0l0,-36.6Zm151.2,0l97.9,0l0,36.6l-97.9,0l0,-36.6Zm97.9,0l69,0l0,36.6l-69,0l0,-36.6Zm69,0l384.3,0l0,36.6l-384.3,0l0,-36.6Zm-361,73.3l42.9,0l0,36.7l-42.9,0l0,-36.7Zm42.9,0l151.2,0l0,36.7l-151.2,0l0,-36.7Zm151.2,0l97.9,0l0,36.7l-97.9,0l0,-36.7Zm97.9,0l69,0l0,36.7l-69,0l0,-36.7Zm69,0l384.3,0l0,36.7l-384.3,0l0,-36.7ZM123.8,938l42.9,0l0,36.7l-42.9,0l0,-36.7Zm42.9,0l151.2,0l0,36.7l-151.2,0l0,-36.7Zm151.2,0l97.9,0l0,36.7l-97.9,0l0,-36.7Zm97.9,0l69,0l0,36.7l-69,0l0,-36.7Zm69,0l384.3,0l0,36.7l-384.3,0l0,-36.7Zm-361,73.4l42.9,0l0,36.6l-42.9,0l0,-36.6Zm42.9,0l151.2,0l0,36.6l-151.2,0l0,-36.6Zm151.2,0l97.9,0l0,36.6l-97.9,0l0,-36.6Zm97.9,0l69,0l0,36.6l-69,0l0,-36.6Zm69,0l384.3,0l0,36.6l-384.3,0l0,-36.6Zm-361,73.3l42.9,0l0,36.7l-42.9,0l0,-36.7Zm42.9,0l151.2,0l0,36.7l-151.2,0l0,-36.7Zm151.2,0l97.9,0l0,36.7l-97.9,0l0,-36.7Zm97.9,0l69,0l0,36.7l-69,0l0,-36.7Zm69,0l384.3,0l0,36.7l-384.3,0l0,-36.7Z" class="g5_175" />
<path d="M123.8,163.6l42.9,0" class="g6_175" />
<path d="M166.7,163.6l151.2,0" class="g6_175" />
<path d="M317.9,163.6l97.9,0" class="g6_175" />
<path d="M415.8,163.6l69,0" class="g6_175" />
<path d="M484.8,163.6l384.3,0" class="g6_175" />
<path d="M123.8,200.2l42.9,0" class="g6_175" />
<path d="M166.7,200.2l151.2,0" class="g6_175" />
<path d="M317.9,200.2l97.9,0" class="g6_175" />
<path d="M415.8,200.2l69,0" class="g6_175" />
<path d="M484.8,200.2l384.3,0" class="g6_175" />
<path d="M123.8,236.9l42.9,0" class="g6_175" />
<path d="M166.7,236.9l151.2,0" class="g6_175" />
<path d="M317.9,236.9l97.9,0" class="g6_175" />
<path d="M415.8,236.9l69,0" class="g6_175" />
<path d="M484.8,236.9l384.3,0" class="g6_175" />
<path d="M123.8,273.6l42.9,0" class="g6_175" />
<path d="M166.7,273.6l151.2,0" class="g6_175" />
<path d="M317.9,273.6l97.9,0" class="g6_175" />
<path d="M415.8,273.6l69,0" class="g6_175" />
<path d="M484.8,273.6l384.3,0" class="g6_175" />
<path d="M123.8,310.2l42.9,0" class="g6_175" />
<path d="M166.7,310.2l151.2,0" class="g6_175" />
<path d="M317.9,310.2l97.9,0" class="g6_175" />
<path d="M415.8,310.2l69,0" class="g6_175" />
<path d="M484.8,310.2l384.3,0" class="g6_175" />
<path d="M123.8,346.9l42.9,0" class="g6_175" />
<path d="M166.7,346.9l151.2,0" class="g6_175" />
<path d="M317.9,346.9l97.9,0" class="g6_175" />
<path d="M415.8,346.9l69,0" class="g6_175" />
<path d="M484.8,346.9l384.3,0" class="g6_175" />
<path d="M123.8,383.6l42.9,0" class="g6_175" />
<path d="M166.7,383.6l151.2,0" class="g6_175" />
<path d="M317.9,383.6l97.9,0" class="g6_175" />
<path d="M415.8,383.6l69,0" class="g6_175" />
<path d="M484.8,383.6l384.3,0" class="g6_175" />
<path d="M123.8,420.2l42.9,0" class="g6_175" />
<path d="M166.7,420.2l151.2,0" class="g6_175" />
<path d="M317.9,420.2l97.9,0" class="g6_175" />
<path d="M415.8,420.2l69,0" class="g6_175" />
<path d="M484.8,420.2l384.3,0" class="g6_175" />
<path d="M123.8,456.9l42.9,0" class="g6_175" />
<path d="M166.7,456.9l151.2,0" class="g6_175" />
<path d="M317.9,456.9l97.9,0" class="g6_175" />
<path d="M415.8,456.9l69,0" class="g6_175" />
<path d="M484.8,456.9l384.3,0" class="g6_175" />
<path d="M123.8,493.6l42.9,0" class="g6_175" />
<path d="M166.7,493.6l151.2,0" class="g6_175" />
<path d="M317.9,493.6l97.9,0" class="g6_175" />
<path d="M415.8,493.6l69,0" class="g6_175" />
<path d="M484.8,493.6l384.3,0" class="g6_175" />
<path d="M123.8,530.2l42.9,0" class="g6_175" />
<path d="M166.7,530.2l151.2,0" class="g6_175" />
<path d="M317.9,530.2l97.9,0" class="g6_175" />
<path d="M415.8,530.2l69,0" class="g6_175" />
<path d="M484.8,530.2l384.3,0" class="g6_175" />
<path d="M123.8,566.9l42.9,0" class="g6_175" />
<path d="M166.7,566.9l151.2,0" class="g6_175" />
<path d="M317.9,566.9l97.9,0" class="g6_175" />
<path d="M415.8,566.9l69,0" class="g6_175" />
<path d="M484.8,566.9l384.3,0" class="g6_175" />
<path d="M123.8,608l42.9,0" class="g6_175" />
<path d="M166.7,608l151.2,0" class="g6_175" />
<path d="M317.9,608l97.9,0" class="g6_175" />
<path d="M415.8,608l69,0" class="g6_175" />
<path d="M484.8,608l384.3,0" class="g6_175" />
<path d="M123.8,644.7l42.9,0" class="g6_175" />
<path d="M166.7,644.7l151.2,0" class="g6_175" />
<path d="M317.9,644.7l97.9,0" class="g6_175" />
<path d="M415.8,644.7l69,0" class="g6_175" />
<path d="M484.8,644.7l384.3,0" class="g6_175" />
<path d="M123.8,681.4l42.9,0" class="g6_175" />
<path d="M166.7,681.4l151.2,0" class="g6_175" />
<path d="M317.9,681.4l97.9,0" class="g6_175" />
<path d="M415.8,681.4l69,0" class="g6_175" />
<path d="M484.8,681.4l384.3,0" class="g6_175" />
<path d="M123.8,718l42.9,0" class="g6_175" />
<path d="M166.7,718l151.2,0" class="g6_175" />
<path d="M317.9,718l97.9,0" class="g6_175" />
<path d="M415.8,718l69,0" class="g6_175" />
<path d="M484.8,718l384.3,0" class="g6_175" />
<path d="M123.8,754.7l42.9,0" class="g6_175" />
<path d="M166.7,754.7l151.2,0" class="g6_175" />
<path d="M317.9,754.7l97.9,0" class="g6_175" />
<path d="M415.8,754.7l69,0" class="g6_175" />
<path d="M484.8,754.7l384.3,0" class="g6_175" />
<path d="M123.8,791.4l42.9,0" class="g6_175" />
<path d="M166.7,791.4l151.2,0" class="g6_175" />
<path d="M317.9,791.4l97.9,0" class="g6_175" />
<path d="M415.8,791.4l69,0" class="g6_175" />
<path d="M484.8,791.4l384.3,0" class="g6_175" />
<path d="M123.8,828l42.9,0" class="g6_175" />
<path d="M166.7,828l151.2,0" class="g6_175" />
<path d="M317.9,828l97.9,0" class="g6_175" />
<path d="M415.8,828l69,0" class="g6_175" />
<path d="M484.8,828l384.3,0" class="g6_175" />
<path d="M123.8,864.7l42.9,0" class="g6_175" />
<path d="M166.7,864.7l151.2,0" class="g6_175" />
<path d="M317.9,864.7l97.9,0" class="g6_175" />
<path d="M415.8,864.7l69,0" class="g6_175" />
<path d="M484.8,864.7l384.3,0" class="g6_175" />
<path d="M123.8,901.4l42.9,0" class="g6_175" />
<path d="M166.7,901.4l151.2,0" class="g6_175" />
<path d="M317.9,901.4l97.9,0" class="g6_175" />
<path d="M415.8,901.4l69,0" class="g6_175" />
<path d="M484.8,901.4l384.3,0" class="g6_175" />
<path d="M123.8,938l42.9,0" class="g6_175" />
<path d="M166.7,938l151.2,0" class="g6_175" />
<path d="M317.9,938l97.9,0" class="g6_175" />
<path d="M415.8,938l69,0" class="g6_175" />
<path d="M484.8,938l384.3,0" class="g6_175" />
<path d="M123.8,974.7l42.9,0" class="g6_175" />
<path d="M166.7,974.7l151.2,0" class="g6_175" />
<path d="M317.9,974.7l97.9,0" class="g6_175" />
<path d="M415.8,974.7l69,0" class="g6_175" />
<path d="M484.8,974.7l384.3,0" class="g6_175" />
<path d="M123.8,1011.4l42.9,0" class="g6_175" />
<path d="M166.7,1011.4l151.2,0" class="g6_175" />
<path d="M317.9,1011.4l97.9,0" class="g6_175" />
<path d="M415.8,1011.4l69,0" class="g6_175" />
<path d="M484.8,1011.4l384.3,0" class="g6_175" />
<path d="M123.8,1048l42.9,0" class="g6_175" />
<path d="M166.7,1048l151.2,0" class="g6_175" />
<path d="M317.9,1048l97.9,0" class="g6_175" />
<path d="M415.8,1048l69,0" class="g6_175" />
<path d="M484.8,1048l384.3,0" class="g6_175" />
<path d="M123.8,1084.7l42.9,0" class="g6_175" />
<path d="M166.7,1084.7l151.2,0" class="g6_175" />
<path d="M317.9,1084.7l97.9,0" class="g6_175" />
<path d="M415.8,1084.7l69,0" class="g6_175" />
<path d="M484.8,1084.7l384.3,0" class="g6_175" />
<path d="M123.8,126.9l42.9,0" class="g7_175" />
<path d="M166.7,126.9l151.2,0" class="g7_175" />
<path d="M317.9,126.9l97.9,0" class="g7_175" />
<path d="M415.8,126.9l69,0" class="g7_175" />
<path d="M484.8,126.9l384.3,0" class="g7_175" />
<path d="M123.8,1121.4l42.9,0" class="g6_175" />
<path d="M166.7,1121.4l151.2,0" class="g6_175" />
<path d="M317.9,1121.4l97.9,0" class="g6_175" />
<path d="M415.8,1121.4l69,0" class="g6_175" />
<path d="M484.8,1121.4l384.3,0" class="g6_175" />
<path d="M123.8,1158l42.9,0" class="g8_175" />
<path d="M166.7,1158l151.2,0" class="g8_175" />
<path d="M317.9,1158l97.9,0" class="g8_175" />
<path d="M415.8,1158l69,0" class="g8_175" />
<path d="M484.8,1158l384.3,0" class="g8_175" />
<text 
x="133" 
y="113" 
dx="0,0.2,0.1" 
class="s2_175"
>No.</text>

<text 
x="180" 
y="113" 
dx="0,-0.5,0.2,0.2" 
class="s2_175"
>Word</text>

<text 
x="327" 
y="113" 
dx="0,0.2,0.2,0.2,0.2,0.2" 
class="s2_175"
>Pinyin</text>

<text 
x="425" 
y="107" 
dx="0,-0.2,0.2,0.2,0.2,0.2,0.2" 
class="s2_175"
>Part of</text>

<text 
x="425" 
y="120" 
dx="0,0.2,0.2,0.2,0.2,0.2" 
class="s2_175"
>Speech</text>

<text 
x="494" 
y="113" 
dx="0,0.2,0.2,0.2,0.2,0.2,0.2,0.2,0.2,0.2" 
class="s2_175"
>Definition</text>

<text 
x="133" 
y="151" 
dx="0" 
class="s3_175"
>1</text>

<text 
x="180" 
y="155" 
dx="0" 
class="s4_175"
>给</text>

<text 
x="330" 
y="151" 
dx="0,0.2,0.2" 
class="s5_175"
>gěi</text>

<text 
x="425" 
y="151" 
dx="0,0,0,0" 
class="s6_175"
>prep</text>

<text 
x="494" 
y="150" 
dx="0,0,-0.1,0,0,0,0,0,0,0,0,0,0,0,0,0,0,0,0,0,0,0,0,0" 
class="s7_175"
>to, for [See Grammar 1.]</text>

<text 
x="133" 
y="187" 
dx="0" 
class="s3_175"
>2</text>

<text 
x="180" 
y="193" 
dx="0,0,0" 
class="s4_175"
>打电话</text>

<text 
x="330" 
y="187" 
dx="0,0.8,0.8,0.8,0.8,0.8,0.8,0.8,0.8,0.8" 
class="s5_175"
>dǎ diànhuà</text>

<text 
x="425" 
y="187" 
dx="0,0" 
class="s6_175"
>vo</text>

<text 
x="494" 
y="187" 
dx="0,0,0,0,0,0,-0.3,0,0,0,0,0,0,0,0,0,0,0,0,0" 
class="s7_175"
>to make a phone call</text>

<text 
x="180" 
y="230" 
dx="0,0" 
class="s4_175"
>电话</text>

<text 
x="330" 
y="224" 
dx="0,0.2,0.2,0.2,0.2,0.2,0.2" 
class="s5_175"
>diànhuà</text>

<text 
x="425" 
y="224" 
dx="0" 
class="s6_175"
>n</text>

<text 
x="494" 
y="224" 
dx="0,0,0,0,0,0,0,0,0" 
class="s7_175"
>telephone</text>

<text 
x="133" 
y="261" 
dx="0" 
class="s3_175"
>3</text>

<text 
x="180" 
y="267" 
dx="0" 
class="s4_175"
>喂</text>

<text 
x="330" 
y="261" 
dx="0,0.2,0.2,0.2,0.2,0.2,0.2" 
class="s5_175"
>wéi/wèi</text>

<text 
x="425" 
y="261" 
dx="0,0,0,0,0,0" 
class="s6_175"
>interj</text>

<text 
x="494" 
y="260" 
dx="0,0,0,0,0,0,0,0,0,0,0,0,0,0,0,0,0,0,0,0,0,0,0,0,0,0,0" 
class="s7_175"
>(on the phone) Hello!, Hey!</text>

<text 
x="133" 
y="297" 
dx="0" 
class="s3_175"
>4</text>

<text 
x="180" 
y="303" 
dx="0" 
class="s4_175"
>在</text>

<text 
x="330" 
y="297" 
dx="0,0.2,0.2" 
class="s5_175"
>zài</text>

<text 
x="425" 
y="297" 
dx="0" 
class="s6_175"
>v</text>

<text 
x="494" 
y="297" 
dx="0,0,0,0,0,0,0,0,0,0,0,0,0,0,0,0,0,0,0,0,0,0,0,0,0,0,0,0,0,0,0,0,0" 
class="s7_175"
>to be present, to be at (a place)</text>

<text 
x="133" 
y="334" 
dx="0" 
class="s3_175"
>5</text>

<text 
x="180" 
y="340" 
dx="0" 
class="s4_175"
>就</text>

<text 
x="330" 
y="334" 
dx="0,0.2,0.2" 
class="s5_175"
>jiù</text>

<text 
x="425" 
y="334" 
dx="0,0,0" 
class="s6_175"
>adv</text>

<text 
x="494" 
y="334" 
dx="0,0,0,0,0,0,0,0,0,-0.9,0,0,-0.4,0,0,0,0,0" 
class="s7_175"
>precisely, exactly</text>

<text 
x="133" 
y="371" 
dx="0" 
class="s3_175"
>6</text>

<text 
x="180" 
y="377" 
dx="0" 
class="s4_175"
>您</text>

<text 
x="330" 
y="371" 
dx="0,0.2,0.2" 
class="s5_175"
>nín</text>

<text 
x="425" 
y="371" 
dx="0,0" 
class="s6_175"
>pr</text>

<text 
x="494" 
y="370" 
dx="0,0,0,0,0,0,0,0,0,0,0,0,0,0,0,0,0,0,0" 
class="s7_175"
>you (honorific for </text>

<text 
x="602" 
y="370" 
dx="0" 
class="s8_175"
>你</text>

<text 
x="617" 
y="370" 
dx="0" 
class="s7_175"
>)</text>

<text 
x="133" 
y="407" 
dx="0" 
class="s3_175"
>7</text>

<text 
x="180" 
y="413" 
dx="0" 
class="s4_175"
>哪</text>

<text 
x="330" 
y="407" 
dx="0,0.2,0.2,0.2,0.2,0.2" 
class="s5_175"
>nǎ/něi</text>

<text 
x="425" 
y="407" 
dx="0,0,0" 
class="s6_175"
>qpr</text>

<text 
x="494" 
y="407" 
dx="0,0,0,0,0" 
class="s7_175"
>which</text>

<text 
x="133" 
y="444" 
dx="0" 
class="s3_175"
>8</text>

<text 
x="180" 
y="450" 
dx="0" 
class="s4_175"
>位</text>

<text 
x="330" 
y="444" 
dx="0,0.2,0.2" 
class="s5_175"
>wèi</text>

<text 
x="425" 
y="444" 
dx="0" 
class="s6_175"
>m</text>

<text 
x="494" 
y="444" 
dx="0,0,0,0,0,0,0,0,0,0,0,0,0,0,0,0,0,0,0,0,0,0,0,0,0,0,0,0,0,0,0,0" 
class="s7_175"
>(polite measure word for people)</text>

<text 
x="133" 
y="481" 
dx="0" 
class="s3_175"
>9</text>

<text 
x="180" 
y="487" 
dx="0,0" 
class="s4_175"
>下午</text>

<text 
x="330" 
y="481" 
dx="0,0.2,0.2,0.2,0.2" 
class="s5_175"
>xiàwǔ</text>

<text 
x="425" 
y="481" 
dx="0" 
class="s6_175"
>t</text>

<text 
x="494" 
y="480" 
dx="0,0,0,0,0,0,0,0,0" 
class="s7_175"
>afternoon</text>

<text 
x="133" 
y="517" 
dx="0,0" 
class="s3_175"
>10</text>

<text 
x="180" 
y="523" 
dx="0,0" 
class="s4_175"
>时间</text>

<text 
x="330" 
y="517" 
dx="0,0.2,0.2,0.2,0.2,0.2,0.2" 
class="s5_175"
>shíjiān</text>

<text 
x="425" 
y="517" 
dx="0" 
class="s6_175"
>n</text>

<text 
x="494" 
y="517" 
dx="0,0,0,0" 
class="s7_175"
>time</text>

<text 
x="133" 
y="554" 
dx="0,0" 
class="s3_175"
>11</text>

<text 
x="180" 
y="560" 
dx="0,0" 
class="s4_175"
>问题</text>

<text 
x="330" 
y="554" 
dx="0,0.2,0.2,0.2,0.2" 
class="s5_175"
>wèntí</text>

<text 
x="425" 
y="554" 
dx="0" 
class="s6_175"
>n</text>

<text 
x="494" 
y="554" 
dx="0,0,0,0,0,0,0,0,0,0,0,0,0,0,0,0,0" 
class="s7_175"
>question, problem</text>

<text 
x="133" 
y="593" 
dx="0,0" 
class="s3_175"
>12</text>

<text 
x="180" 
y="599" 
dx="0" 
class="s4_175"
>要</text>

<text 
x="330" 
y="593" 
dx="0,0.2,0.2" 
class="s5_175"
>yào</text>

<text 
x="425" 
y="593" 
dx="0,0" 
class="s6_175"
>mv</text>

<text 
x="494" 
y="584" 
dx="0,0,0,0,0,0,0,0,0,0,0,0,0,0,0,0,0,0,0,0,-0.1,0,0,0,0,0,0,0,0,0,0,0,-0.1,0,0,0,0,0,0,0,0,0,0,0,0,0,0,0,0,0,0,0,0,0" 
class="s7_175"
>will, to be going to, to want to, to have a desire to </text>

<text 
x="494" 
y="601" 
dx="0,0,0,0,0,0,0,0,0,0,0,0,0,0,0,0" 
class="s7_175"
>[See Grammar 2.]</text>

<text 
x="133" 
y="632" 
dx="0,0" 
class="s3_175"
>13</text>

<text 
x="180" 
y="638" 
dx="0,0" 
class="s4_175"
>开会</text>

<text 
x="330" 
y="632" 
dx="0,0.2,0.2,0.2,0.2,0.2,0.2" 
class="s5_175"
>kāi huì</text>

<text 
x="425" 
y="632" 
dx="0,0" 
class="s6_175"
>vo</text>

<text 
x="494" 
y="632" 
dx="0,0,0,0,0,0,0,0,0,0,0,0,0,0,0,0,0" 
class="s7_175"
>to have a meeting</text>

<text 
x="180" 
y="674" 
dx="0" 
class="s4_175"
>开</text>

<text 
x="330" 
y="668" 
dx="0,0.2,0.2" 
class="s5_175"
>kāi</text>

<text 
x="425" 
y="669" 
dx="0" 
class="s6_175"
>v</text>

<text 
x="494" 
y="668" 
dx="0,0,0,0,0,0,0,0,0,0,0,0,0,0,0,0,0,0,0,0,0,0,0,0,0,0,0,0,0,0,0,0,0,0,-0.9,0,0,0,0,0,0" 
class="s7_175"
>to open, to hold (a meeting, party, etc.)</text>

<text 
x="180" 
y="711" 
dx="0" 
class="s4_175"
>会</text>

<text 
x="330" 
y="705" 
dx="0,0.2,0.2" 
class="s5_175"
>huì</text>

<text 
x="425" 
y="705" 
dx="0" 
class="s6_175"
>n</text>

<text 
x="494" 
y="705" 
dx="0,0,0,0,0,0,0" 
class="s7_175"
>meeting</text>

<text 
x="133" 
y="742" 
dx="0,0" 
class="s3_175"
>14</text>

<text 
x="180" 
y="748" 
dx="0,0" 
class="s4_175"
>上午</text>

<text 
x="330" 
y="742" 
dx="0,0.2,0.2,0.2,0.2,0.2,0.2" 
class="s5_175"
>shàngwǔ</text>

<text 
x="425" 
y="742" 
dx="0" 
class="s6_175"
>t</text>

<text 
x="494" 
y="742" 
dx="0,0,0,0,0,0,0" 
class="s7_175"
>morning</text>

<text 
x="133" 
y="779" 
dx="0,0" 
class="s3_175"
>15</text>

<text 
x="180" 
y="784" 
dx="0" 
class="s4_175"
>节</text>

<text 
x="330" 
y="778" 
dx="0,0.2,0.2" 
class="s5_175"
>jié</text>

<text 
x="425" 
y="779" 
dx="0" 
class="s6_175"
>m</text>

<text 
x="494" 
y="778" 
dx="0,0,0,0,0,0,0,0,0,0,0,0,0,0,0,0,0,0,0,0,0,0,0,0,0,0,0,0,0,0,0,0" 
class="s7_175"
>(measure word for class periods)</text>

<text 
x="133" 
y="815" 
dx="0,0" 
class="s3_175"
>16</text>

<text 
x="180" 
y="821" 
dx="0" 
class="s4_175"
>课</text>

<text 
x="330" 
y="815" 
dx="0,0.2" 
class="s9_175"
>kè</text>

<text 
x="425" 
y="815" 
dx="0" 
class="s6_175"
>n</text>

<text 
x="494" 
y="815" 
dx="0,0,0,0,0,0,0,0,0,0,0,0,0,-0.1,0,0,0,0,0,0,0" 
class="s7_175"
>class, course, lesson</text>

<text 
x="133" 
y="852" 
dx="0,0" 
class="s3_175"
>17</text>

<text 
x="180" 
y="858" 
dx="0,0" 
class="s4_175"
>年级</text>

<text 
x="330" 
y="852" 
dx="0,0.2,0.2,0.2,0.2,0.2" 
class="s5_175"
>niánjí</text>

<text 
x="425" 
y="852" 
dx="0" 
class="s6_175"
>n</text>

<text 
x="494" 
y="852" 
dx="0,0,0,0,0,0,0,0,0,0,0,0,0,0,0" 
class="s7_175"
>grade in school</text>

<text 
x="133" 
y="889" 
dx="0,0" 
class="s3_175"
>18</text>

<text 
x="180" 
y="894" 
dx="0,0" 
class="s4_175"
>考试</text>

<text 
x="330" 
y="888" 
dx="0,0.2,0.2,0.2,0.2,0.2,0.2" 
class="s5_175"
>kǎo shì</text>

<text 
x="425" 
y="889" 
dx="0,0,0,0" 
class="s6_175"
>vo/n</text>

<text 
x="494" 
y="888" 
dx="0,0,0,0,0,0,0,0,0,0,0,0,0,0,-0.3,0,0,0,0,0,0,0,0,0,0,0,0,0" 
class="s7_175"
>to give or take a test; test</text>

<text 
x="180" 
y="931" 
dx="0" 
class="s4_175"
>考</text>

<text 
x="330" 
y="925" 
dx="0,0.2,0.2" 
class="s5_175"
>kǎo</text>

<text 
x="425" 
y="925" 
dx="0" 
class="s6_175"
>v</text>

<text 
x="494" 
y="925" 
dx="0,0,0,0,0,0,0,0,0,0,0,0,0,0,-0.3,0,0,0,0,0,0,0" 
class="s7_175"
>to give or take a test</text>

<text 
x="180" 
y="968" 
dx="0" 
class="s4_175"
>试</text>

<text 
x="330" 
y="962" 
dx="0,0.2,0.2" 
class="s5_175"
>shì</text>

<text 
x="425" 
y="962" 
dx="0,0,0" 
class="s6_175"
>n/v</text>

<text 
x="494" 
y="962" 
dx="0,0,0,0,0,0,0,0,0,0,0,0,-0.9,0,0,0,0,0,-0.4,0,0,0,0,0,0,0,0" 
class="s7_175"
>test; to try, to experiment</text>

<text 
x="133" 
y="999" 
dx="0,0" 
class="s3_175"
>19</text>

<text 
x="180" 
y="1004" 
dx="0,0" 
class="s4_175"
>以后</text>

<text 
x="330" 
y="998" 
dx="0,0.2,0.2,0.2,0.2" 
class="s5_175"
>yǐhòu</text>

<text 
x="425" 
y="999" 
dx="0" 
class="s6_175"
>t</text>

<text 
x="494" 
y="998" 
dx="0,0,0,0,0,-1.2,0,0,0,0,0,0,0,0,0,0,0,0,0,0,0,0,0,0,0,0,0,0" 
class="s7_175"
>after, from now on, later on</text>

<text 
x="133" 
y="1035" 
dx="0,0" 
class="s3_175"
>20</text>

<text 
x="180" 
y="1041" 
dx="0,-0.1,-0.1,-0.1" 
class="s4_175"
>空（儿）</text>

<text 
x="330" 
y="1035" 
dx="0,0.2,0.2,0.2,0.2,0.2,0.2" 
class="s5_175"
>kòng(r)</text>

<text 
x="425" 
y="1035" 
dx="0" 
class="s6_175"
>n</text>

<text 
x="494" 
y="1035" 
dx="0,0,0,0,0,0,0,0,0" 
class="s7_175"
>free time</text>

<text 
x="133" 
y="1072" 
dx="0,0" 
class="s3_175"
>21</text>

<text 
x="180" 
y="1078" 
dx="0,0" 
class="s4_175"
>要是</text>

<text 
x="330" 
y="1072" 
dx="0,0.2,0.2,0.2,0.2,0.2" 
class="s5_175"
>yàoshi</text>

<text 
x="425" 
y="1072" 
dx="0,0,0,0" 
class="s6_175"
>conj</text>

<text 
x="494" 
y="1072" 
dx="0,0" 
class="s7_175"
>if</text>

<text 
x="133" 
y="1109" 
dx="0,0" 
class="s3_175"
>22</text>

<text 
x="180" 
y="1114" 
dx="0,0" 
class="s4_175"
>方便</text>

<text 
x="330" 
y="1108" 
dx="0,0.2,0.2,0.2,0.2,0.2,0.2,0.2" 
class="s5_175"
>fāngbiàn</text>

<text 
x="425" 
y="1109" 
dx="0,0,0" 
class="s6_175"
>adj</text>

<text 
x="494" 
y="1108" 
dx="0,0,0,0,0,0,0,0,0,0" 
class="s7_175"
>convenient</text>

<text 
x="133" 
y="1145" 
dx="0,0" 
class="s3_175"
>23</text>

<text 
x="180" 
y="1151" 
dx="0" 
class="s4_175"
>到</text>

<text 
x="330" 
y="1145" 
dx="0,0.2,0.2" 
class="s5_175"
>dào</text>

<text 
x="425" 
y="1145" 
dx="0" 
class="s6_175"
>v</text>

<text 
x="494" 
y="1145" 
dx="0,0,0,0,0,0,0,0,-0.1,0,0,0,0,0,0,0,0,0,0" 
class="s7_175"
>to go to, to arrive</text>

<g clip-path="url(#c0_175)">
<path d="M-18.6,1209.2l54.5,0l0,-1222.1l-54.5,0l0,1222.1Z" class="g9_175" />
</g>
<text 
transform="matrix(0, -1, 1, 0, 26, 1173)"
dx="0,0.3,0.3,0.3" 
class="s10_175"
>154 </text>

<text 
transform="matrix(0, -1, 1, 0, 26, 1144)"
dx="0,0.3,0.3,0.3,0.3,0.3,0.3,0.3,0.3,0.3,0.3,0.3,0.3,0.3,0.3,0.3,0.3,0.3,0.3,0.3,0.3" 
class="s10_175"
>Integrated Chinese 1 </text>

<text 
transform="matrix(0, -1, 1, 0, 26, 1023)"
dx="0,0.3" 
class="s10_175"
>| </text>

<text 
transform="matrix(0, -1, 1, 0, 26, 1010)"
dx="0,-0.9,-0.1,0.3,0.3,0.3,0.3,0.3" 
class="s10_175"
>Textbook</text>



<!-- Any embedded fonts defined here -->
<style type="text/css" ><![CDATA[

@font-face {
	font-family: ProximaNova-Light_30o;
	src: url("fonts/ProximaNova-Light_30o.woff") format("woff");
}

@font-face {
	font-family: Marion-Italic_2si;
	src: url("fonts/Marion-Italic_2si.woff") format("woff");
}

@font-face {
	font-family: Marion-Italic_305;
	src: url("fonts/Marion-Italic_305.woff") format("woff");
}

@font-face {
	font-family: ProximaNova-Regular_30p;
	src: url("fonts/ProximaNova-Regular_30p.woff") format("woff");
}

@font-face {
	font-family: ProximaNova-Semibold_30m;
	src: url("fonts/ProximaNova-Semibold_30m.woff") format("woff");
}

@font-face {
	font-family: ProximaNova-Extrabld_30a;
	src: url("fonts/ProximaNova-Extrabld_30a.woff") format("woff");
}

@font-face {
	font-family: ProximaNova-Bold_306;
	src: url("fonts/ProximaNova-Bold_306.woff") format("woff");
}

@font-face {
	font-family: STKaiti-SC-Regular_2t7;
	src: url("fonts/STKaiti-SC-Regular_2t7.woff") format("woff");
}

]]></style>

</svg>
