<?xml version="1.0" encoding="UTF-8" standalone="no"?>
<!DOCTYPE svg PUBLIC "-//W3C//DTD SVG 1.1//EN"
"http://www.w3.org/Graphics/SVG/1.1/DTD/svg11.dtd">


<!-- Page 315 -->
<svg x="0" y="0" width="921" height="1196" viewBox="0 0 921 1196" version="1.1" xmlns="http://www.w3.org/2000/svg" xmlns:xlink="http://www.w3.org/1999/xlink"
style="display: block;margin-left: auto;margin-right: auto;">
<defs>

<style type="text/css"><![CDATA[

.g1_315{
fill: #F0F1F2;
}
.g2_315{
fill: #BDBEC1;
}
.g3_315{
fill: none;
stroke: #BDBEC1;
stroke-width: 1.5277778;
stroke-linecap: butt;
stroke-linejoin: miter;
}
.g4_315{
fill: none;
stroke: #DADBDD;
stroke-width: 1.5277778;
stroke-linecap: butt;
stroke-linejoin: miter;
}
.g5_315{
fill: none;
stroke: #BDBEC1;
stroke-width: 0.38194445;
stroke-linecap: butt;
stroke-linejoin: miter;
}
.g6_315{
fill: #57585A;
stroke: #B2B3B7;
stroke-width: 1.5277778;
stroke-linecap: butt;
stroke-linejoin: miter;
stroke-miterlimit: 4;
}

.s1_315{
font-size: 15.28px;
font-family: ProximaNova-Bold_378;
fill: #57585A;
}
.s2_315{
font-size: 24.44px;
font-family: STKaiti-SC-Regular_2t7;
fill: #57585A;
}
.s3_315{
font-size: 24.44px;
font-family: STKaiTi-TC-Regular_371;
fill: #57585A;
}
.s4_315{
font-size: 16.81px;
font-family: Marion-Italic_2si;
fill: #3F3F40;
}
.s5_315{
font-size: 15.28px;
font-family: ProximaNova-Regular_377;
fill: #3F3F40;
}
.s6_315{
font-size: 14.51px;
font-family: ProximaNova-Light_372;
fill: #3F3F40;
}
.s7_315{
font-size: 15.28px;
font-family: ProximaNova-Semibold_376;
fill: #77787B;
}
.s8_315{
font-size: 21.39px;
font-family: ProximaNova-Semibold_376;
fill: #3F3F40;
}
.s9_315{
font-size: 11.46px;
font-family: ProximaNova-Semibold_376;
fill: #FFFFFF;
}

]]></style>

</defs>
<path d="M0,0
L0,1196
L921,1196
L921,0 Z " 
fill="#FFFFFF" stroke="none" />
<path d="M55,99.2l178.8,0l0,42.7L55,141.9L55,99.2Zm178.8,0l178.7,0l0,42.7l-178.7,0l0,-42.7Zm178.7,0l135.2,0l0,42.7l-135.2,0l0,-42.7Zm135.2,0l66.1,0l0,42.7l-66.1,0l0,-42.7Zm66.1,0l189.2,0l0,42.7l-189.2,0l0,-42.7Zm189.2,0l63.3,0l0,42.7l-63.3,0l0,-42.7ZM55,184.1l178.8,0l0,42.1L55,226.2l0,-42.1Zm178.8,0l178.7,0l0,42.1l-178.7,0l0,-42.1Zm178.7,0l135.2,0l0,42.1l-135.2,0l0,-42.1Zm135.2,0l66.1,0l0,42.1l-66.1,0l0,-42.1Zm66.1,0l189.2,0l0,42.1l-189.2,0l0,-42.1Zm189.2,0l63.3,0l0,42.1l-63.3,0l0,-42.1ZM55,268.4l178.8,0l0,42.1L55,310.5l0,-42.1Zm178.8,0l178.7,0l0,42.1l-178.7,0l0,-42.1Zm178.7,0l135.2,0l0,42.1l-135.2,0l0,-42.1Zm135.2,0l66.1,0l0,42.1l-66.1,0l0,-42.1Zm66.1,0l189.2,0l0,42.1l-189.2,0l0,-42.1Zm189.2,0l63.3,0l0,42.1l-63.3,0l0,-42.1ZM55,352.7l178.8,0l0,42.2L55,394.9l0,-42.2Zm178.8,0l178.7,0l0,42.2l-178.7,0l0,-42.2Zm178.7,0l135.2,0l0,42.2l-135.2,0l0,-42.2Zm135.2,0l66.1,0l0,42.2l-66.1,0l0,-42.2Zm66.1,0l189.2,0l0,42.2l-189.2,0l0,-42.2Zm189.2,0l63.3,0l0,42.2l-63.3,0l0,-42.2ZM55,521.4l178.8,0l0,42.1L55,563.5l0,-42.1Zm178.8,0l178.7,0l0,42.1l-178.7,0l0,-42.1Zm178.7,0l135.2,0l0,42.1l-135.2,0l0,-42.1Zm135.2,0l66.1,0l0,42.1l-66.1,0l0,-42.1Zm66.1,0l189.2,0l0,42.1l-189.2,0l0,-42.1Zm189.2,0l63.3,0l0,42.1l-63.3,0l0,-42.1ZM55,607.1l178.8,0l0,42.1L55,649.2l0,-42.1Zm178.8,0l178.7,0l0,42.1l-178.7,0l0,-42.1Zm178.7,0l135.2,0l0,42.1l-135.2,0l0,-42.1Zm135.2,0l66.1,0l0,42.1l-66.1,0l0,-42.1Zm66.1,0l189.2,0l0,42.1l-189.2,0l0,-42.1Zm189.2,0l63.3,0l0,42.1l-63.3,0l0,-42.1ZM55,691.4l178.8,0l0,42.2L55,733.6l0,-42.2Zm178.8,0l178.7,0l0,42.2l-178.7,0l0,-42.2Zm178.7,0l135.2,0l0,42.2l-135.2,0l0,-42.2Zm135.2,0l66.1,0l0,42.2l-66.1,0l0,-42.2Zm66.1,0l189.2,0l0,42.2l-189.2,0l0,-42.2Zm189.2,0l63.3,0l0,42.2l-63.3,0l0,-42.2ZM55,775.7l178.8,0l0,42.2L55,817.9l0,-42.2Zm178.8,0l178.7,0l0,42.2l-178.7,0l0,-42.2Zm178.7,0l135.2,0l0,42.2l-135.2,0l0,-42.2Zm135.2,0l66.1,0l0,42.2l-66.1,0l0,-42.2Zm66.1,0l189.2,0l0,42.2l-189.2,0l0,-42.2Zm189.2,0l63.3,0l0,42.2l-63.3,0l0,-42.2ZM55,861.4l178.8,0l0,42.2L55,903.6l0,-42.2Zm178.8,0l178.7,0l0,42.2l-178.7,0l0,-42.2Zm178.7,0l135.2,0l0,42.2l-135.2,0l0,-42.2Zm135.2,0l66.1,0l0,42.2l-66.1,0l0,-42.2Zm66.1,0l189.2,0l0,42.2l-189.2,0l0,-42.2Zm189.2,0l63.3,0l0,42.2l-63.3,0l0,-42.2ZM55,945.8l178.8,0l0,42.1L55,987.9l0,-42.1Zm178.8,0l178.7,0l0,42.1l-178.7,0l0,-42.1Zm178.7,0l135.2,0l0,42.1l-135.2,0l0,-42.1Zm135.2,0l66.1,0l0,42.1l-66.1,0l0,-42.1Zm66.1,0l189.2,0l0,42.1l-189.2,0l0,-42.1Zm189.2,0l63.3,0l0,42.1l-63.3,0l0,-42.1ZM55,1030.1l178.8,0l0,42.1l-178.8,0l0,-42.1Zm178.8,0l178.7,0l0,42.1l-178.7,0l0,-42.1Zm178.7,0l135.2,0l0,42.1l-135.2,0l0,-42.1Zm135.2,0l66.1,0l0,42.1l-66.1,0l0,-42.1Zm66.1,0l189.2,0l0,42.1l-189.2,0l0,-42.1Zm189.2,0l63.3,0l0,42.1l-63.3,0l0,-42.1Z" class="g1_315" />
<path d="M55,437l811.3,0l0,42.2L55,479.2L55,437Z" class="g2_315" />
<path d="M55,1115l178.8,0" class="g3_315" />
<path d="M233.8,1115l178.7,0" class="g3_315" />
<path d="M412.5,1115l135.2,0" class="g3_315" />
<path d="M547.7,1115l66.1,0" class="g3_315" />
<path d="M613.8,1115l189.2,0" class="g3_315" />
<path d="M803,1115l63.3,0" class="g3_315" />
<path d="M55,99.2l178.8,0" class="g4_315" />
<path d="M233.8,99.2l178.7,0" class="g4_315" />
<path d="M412.5,99.2l135.2,0" class="g4_315" />
<path d="M547.7,99.2l66.1,0" class="g4_315" />
<path d="M613.8,99.2l189.2,0" class="g4_315" />
<path d="M803,99.2l63.3,0" class="g4_315" />
<path d="M55,141.9l178.8,0" class="g5_315" />
<path d="M233.8,141.9l178.7,0" class="g5_315" />
<path d="M412.5,141.9l135.2,0" class="g5_315" />
<path d="M547.7,141.9l66.1,0" class="g5_315" />
<path d="M613.8,141.9l189.2,0" class="g5_315" />
<path d="M803,141.9l63.3,0" class="g5_315" />
<path d="M55,184.1l178.8,0" class="g5_315" />
<path d="M233.8,184.1l178.7,0" class="g5_315" />
<path d="M412.5,184.1l135.2,0" class="g5_315" />
<path d="M547.7,184.1l66.1,0" class="g5_315" />
<path d="M613.8,184.1l189.2,0" class="g5_315" />
<path d="M803,184.1l63.3,0" class="g5_315" />
<path d="M55,226.2l178.8,0" class="g5_315" />
<path d="M233.8,226.2l178.7,0" class="g5_315" />
<path d="M412.5,226.2l135.2,0" class="g5_315" />
<path d="M547.7,226.2l66.1,0" class="g5_315" />
<path d="M613.8,226.2l189.2,0" class="g5_315" />
<path d="M803,226.2l63.3,0" class="g5_315" />
<path d="M55,268.4l178.8,0" class="g5_315" />
<path d="M233.8,268.4l178.7,0" class="g5_315" />
<path d="M412.5,268.4l135.2,0" class="g5_315" />
<path d="M547.7,268.4l66.1,0" class="g5_315" />
<path d="M613.8,268.4l189.2,0" class="g5_315" />
<path d="M803,268.4l63.3,0" class="g5_315" />
<path d="M55,310.5l178.8,0" class="g5_315" />
<path d="M233.8,310.5l178.7,0" class="g5_315" />
<path d="M412.5,310.5l135.2,0" class="g5_315" />
<path d="M547.7,310.5l66.1,0" class="g5_315" />
<path d="M613.8,310.5l189.2,0" class="g5_315" />
<path d="M803,310.5l63.3,0" class="g5_315" />
<path d="M55,352.7l178.8,0" class="g5_315" />
<path d="M233.8,352.7l178.7,0" class="g5_315" />
<path d="M412.5,352.7l135.2,0" class="g5_315" />
<path d="M547.7,352.7l66.1,0" class="g5_315" />
<path d="M613.8,352.7l189.2,0" class="g5_315" />
<path d="M803,352.7l63.3,0" class="g5_315" />
<path d="M55,394.9l178.8,0" class="g5_315" />
<path d="M233.8,394.9l178.7,0" class="g5_315" />
<path d="M412.5,394.9l135.2,0" class="g5_315" />
<path d="M547.7,394.9l66.1,0" class="g5_315" />
<path d="M613.8,394.9l189.2,0" class="g5_315" />
<path d="M803,394.9l63.3,0" class="g5_315" />
<path d="M55,521.4l178.8,0" class="g5_315" />
<path d="M233.8,521.4l178.7,0" class="g5_315" />
<path d="M412.5,521.4l135.2,0" class="g5_315" />
<path d="M547.7,521.4l66.1,0" class="g5_315" />
<path d="M613.8,521.4l189.2,0" class="g5_315" />
<path d="M803,521.4l63.3,0" class="g5_315" />
<path d="M55,563.5l178.8,0" class="g5_315" />
<path d="M233.8,563.5l178.7,0" class="g5_315" />
<path d="M412.5,563.5l135.2,0" class="g5_315" />
<path d="M547.7,563.5l66.1,0" class="g5_315" />
<path d="M613.8,563.5l189.2,0" class="g5_315" />
<path d="M803,563.5l63.3,0" class="g5_315" />
<path d="M55,607.1l178.8,0" class="g5_315" />
<path d="M233.8,607.1l178.7,0" class="g5_315" />
<path d="M412.5,607.1l135.2,0" class="g5_315" />
<path d="M547.7,607.1l66.1,0" class="g5_315" />
<path d="M613.8,607.1l189.2,0" class="g5_315" />
<path d="M803,607.1l63.3,0" class="g5_315" />
<path d="M55,649.2l178.8,0" class="g5_315" />
<path d="M233.8,649.2l178.7,0" class="g5_315" />
<path d="M412.5,649.2l135.2,0" class="g5_315" />
<path d="M547.7,649.2l66.1,0" class="g5_315" />
<path d="M613.8,649.2l189.2,0" class="g5_315" />
<path d="M803,649.2l63.3,0" class="g5_315" />
<path d="M55,691.4l178.8,0" class="g5_315" />
<path d="M233.8,691.4l178.7,0" class="g5_315" />
<path d="M412.5,691.4l135.2,0" class="g5_315" />
<path d="M547.7,691.4l66.1,0" class="g5_315" />
<path d="M613.8,691.4l189.2,0" class="g5_315" />
<path d="M803,691.4l63.3,0" class="g5_315" />
<path d="M55,733.6l178.8,0" class="g5_315" />
<path d="M233.8,733.6l178.7,0" class="g5_315" />
<path d="M412.5,733.6l135.2,0" class="g5_315" />
<path d="M547.7,733.6l66.1,0" class="g5_315" />
<path d="M613.8,733.6l189.2,0" class="g5_315" />
<path d="M803,733.6l63.3,0" class="g5_315" />
<path d="M55,775.7l178.8,0" class="g5_315" />
<path d="M233.8,775.7l178.7,0" class="g5_315" />
<path d="M412.5,775.7l135.2,0" class="g5_315" />
<path d="M547.7,775.7l66.1,0" class="g5_315" />
<path d="M613.8,775.7l189.2,0" class="g5_315" />
<path d="M803,775.7l63.3,0" class="g5_315" />
<path d="M55,817.9l178.8,0" class="g5_315" />
<path d="M233.8,817.9l178.7,0" class="g5_315" />
<path d="M412.5,817.9l135.2,0" class="g5_315" />
<path d="M547.7,817.9l66.1,0" class="g5_315" />
<path d="M613.8,817.9l189.2,0" class="g5_315" />
<path d="M803,817.9l63.3,0" class="g5_315" />
<path d="M55,861.4l178.8,0" class="g5_315" />
<path d="M233.8,861.4l178.7,0" class="g5_315" />
<path d="M412.5,861.4l135.2,0" class="g5_315" />
<path d="M547.7,861.4l66.1,0" class="g5_315" />
<path d="M613.8,861.4l189.2,0" class="g5_315" />
<path d="M803,861.4l63.3,0" class="g5_315" />
<path d="M55,903.6l178.8,0" class="g5_315" />
<path d="M233.8,903.6l178.7,0" class="g5_315" />
<path d="M412.5,903.6l135.2,0" class="g5_315" />
<path d="M547.7,903.6l66.1,0" class="g5_315" />
<path d="M613.8,903.6l189.2,0" class="g5_315" />
<path d="M803,903.6l63.3,0" class="g5_315" />
<path d="M55,945.8l178.8,0" class="g5_315" />
<path d="M233.8,945.8l178.7,0" class="g5_315" />
<path d="M412.5,945.8l135.2,0" class="g5_315" />
<path d="M547.7,945.8l66.1,0" class="g5_315" />
<path d="M613.8,945.8l189.2,0" class="g5_315" />
<path d="M803,945.8l63.3,0" class="g5_315" />
<path d="M55,987.9l178.8,0" class="g5_315" />
<path d="M233.8,987.9l178.7,0" class="g5_315" />
<path d="M412.5,987.9l135.2,0" class="g5_315" />
<path d="M547.7,987.9l66.1,0" class="g5_315" />
<path d="M613.8,987.9l189.2,0" class="g5_315" />
<path d="M803,987.9l63.3,0" class="g5_315" />
<path d="M55,1030.1l178.8,0" class="g5_315" />
<path d="M233.8,1030.1l178.7,0" class="g5_315" />
<path d="M412.5,1030.1l135.2,0" class="g5_315" />
<path d="M547.7,1030.1l66.1,0" class="g5_315" />
<path d="M613.8,1030.1l189.2,0" class="g5_315" />
<path d="M803,1030.1l63.3,0" class="g5_315" />
<path d="M55,1072.2l178.8,0" class="g5_315" />
<path d="M233.8,1072.2l178.7,0" class="g5_315" />
<path d="M412.5,1072.2l135.2,0" class="g5_315" />
<path d="M547.7,1072.2l66.1,0" class="g5_315" />
<path d="M613.8,1072.2l189.2,0" class="g5_315" />
<path d="M803,1072.2l63.3,0" class="g5_315" />
<path d="M55,437l178.8,0" class="g5_315" />
<path d="M233.8,437l178.7,0" class="g5_315" />
<path d="M412.5,437l135.2,0" class="g5_315" />
<path d="M547.7,437l66.1,0" class="g5_315" />
<path d="M613.8,437L803,437" class="g5_315" />
<path d="M803,437l63.3,0" class="g5_315" />
<path d="M55,479.2l178.8,0" class="g5_315" />
<path d="M233.8,479.2l178.7,0" class="g5_315" />
<path d="M412.5,479.2l135.2,0" class="g5_315" />
<path d="M547.7,479.2l66.1,0" class="g5_315" />
<path d="M613.8,479.2l189.2,0" class="g5_315" />
<path d="M803,479.2l63.3,0" class="g5_315" />
<text 
x="61" 
y="83" 
dx="0,0,0,0,0,0,0,0,0,0" 
class="s1_315"
>Simplified</text>

<text 
x="239" 
y="83" 
dx="0,-1,0,0,0,0,0,0,0,0,0" 
class="s1_315"
>Traditional</text>

<text 
x="418" 
y="83" 
dx="0,0,0,0,0,0" 
class="s1_315"
>Pinyin</text>

<text 
x="553" 
y="73" 
dx="0,-0.3,0,0,0,0,0,0" 
class="s1_315"
>Part of </text>

<text 
x="553" 
y="93" 
dx="0,0,0,0,0,0" 
class="s1_315"
>Speech</text>

<text 
x="619" 
y="83" 
dx="0,0,0,0,0,0,0,0,0,0" 
class="s1_315"
>Definition</text>

<text 
x="809" 
y="83" 
dx="0,-0.2,0,0,0,0" 
class="s1_315"
>Lesson</text>

<text 
x="61" 
y="129" 
dx="0,0" 
class="s2_315"
>后来</text>

<text 
x="239" 
y="129" 
dx="0,0" 
class="s3_315"
>後來</text>

<text 
x="418" 
y="126" 
dx="0,0,0,0,0,0" 
class="s4_315"
>hòulái</text>

<text 
x="553" 
y="126" 
dx="0" 
class="s5_315"
>t</text>

<text 
x="619" 
y="126" 
dx="0,0,0,0,0" 
class="s6_315"
>later</text>

<text 
x="809" 
y="126" 
dx="0" 
class="s7_315"
>8</text>

<text 
x="61" 
y="171" 
dx="0" 
class="s2_315"
>花</text>

<text 
x="239" 
y="171" 
dx="0" 
class="s3_315"
>花</text>

<text 
x="418" 
y="168" 
dx="0,0,0" 
class="s4_315"
>huā</text>

<text 
x="553" 
y="169" 
dx="0" 
class="s5_315"
>v</text>

<text 
x="619" 
y="168" 
dx="0,0,0,0,0,0,0,0" 
class="s6_315"
>to spend</text>

<text 
x="809" 
y="169" 
dx="0,0" 
class="s7_315"
>10</text>

<text 
x="61" 
y="213" 
dx="0" 
class="s2_315"
>换</text>

<text 
x="239" 
y="213" 
dx="0" 
class="s3_315"
>換</text>

<text 
x="418" 
y="211" 
dx="0,0,0,0" 
class="s4_315"
>huàn</text>

<text 
x="553" 
y="211" 
dx="0" 
class="s5_315"
>v</text>

<text 
x="619" 
y="210" 
dx="0,0,0,0,-0.4,-0.5,0,0,0,0,0,-0.1,0,0,0,0,0,0,0,0,0,0" 
class="s6_315"
>to exchange, to change</text>

<text 
x="809" 
y="211" 
dx="0" 
class="s7_315"
>9</text>

<text 
x="61" 
y="256" 
dx="0" 
class="s2_315"
>黄</text>

<text 
x="239" 
y="256" 
dx="0" 
class="s3_315"
>黃</text>

<text 
x="418" 
y="253" 
dx="0,0,0,0,0" 
class="s4_315"
>huáng</text>

<text 
x="553" 
y="253" 
dx="0,0,0" 
class="s5_315"
>adj</text>

<text 
x="619" 
y="253" 
dx="0,0,0,0,0,0" 
class="s6_315"
>yellow</text>

<text 
x="809" 
y="253" 
dx="0" 
class="s7_315"
>9</text>

<text 
x="61" 
y="298" 
dx="0,0" 
class="s2_315"
>回家</text>

<text 
x="418" 
y="295" 
dx="0,0,0,0,0,0,0,0" 
class="s4_315"
>huí jiā </text>

<text 
x="553" 
y="295" 
dx="0,0" 
class="s5_315"
>vo</text>

<text 
x="619" 
y="295" 
dx="0,0,0,0,0,0,0,0,0,0" 
class="s6_315"
>to go home</text>

<text 
x="809" 
y="295" 
dx="0" 
class="s7_315"
>5</text>

<text 
x="61" 
y="340" 
dx="0,0" 
class="s2_315"
>回来</text>

<text 
x="239" 
y="340" 
dx="0,0" 
class="s3_315"
>回來</text>

<text 
x="418" 
y="337" 
dx="0,0,0,0,0,0,0" 
class="s4_315"
>huí lai</text>

<text 
x="553" 
y="337" 
dx="0,0" 
class="s5_315"
>vc</text>

<text 
x="619" 
y="337" 
dx="0,0,0,0,0,0,0,0,0,0,0,0" 
class="s6_315"
>to come back</text>

<text 
x="809" 
y="337" 
dx="0" 
class="s7_315"
>6</text>

<text 
x="61" 
y="382" 
dx="0,0" 
class="s2_315"
>会 </text>

<text 
x="239" 
y="382" 
dx="0" 
class="s3_315"
>會</text>

<text 
x="418" 
y="379" 
dx="0,0,0" 
class="s4_315"
>huì</text>

<text 
x="553" 
y="379" 
dx="0,0" 
class="s5_315"
>mv</text>

<text 
x="619" 
y="379" 
dx="0,0,0,0,0,0,0,0,0,0,0,0,0,0,0,0" 
class="s6_315"
>can, know how to</text>

<text 
x="809" 
y="379" 
dx="0" 
class="s7_315"
>8</text>

<text 
x="61" 
y="424" 
dx="0,0" 
class="s2_315"
>或者</text>

<text 
x="418" 
y="421" 
dx="0,0,0,0,0,0" 
class="s4_315"
>huòzhě</text>

<text 
x="553" 
y="421" 
dx="0,0,0,0" 
class="s5_315"
>conj</text>

<text 
x="619" 
y="421" 
dx="0,0" 
class="s6_315"
>or</text>

<text 
x="809" 
y="421" 
dx="0,0" 
class="s7_315"
>10</text>

<text 
x="455" 
y="466" 
dx="0" 
class="s8_315"
>J</text>

<text 
x="61" 
y="509" 
dx="0" 
class="s2_315"
>几</text>

<text 
x="239" 
y="509" 
dx="0" 
class="s3_315"
>幾</text>

<text 
x="418" 
y="506" 
dx="0,0" 
class="s4_315"
>jǐ</text>

<text 
x="553" 
y="506" 
dx="0,0" 
class="s5_315"
>nu</text>

<text 
x="619" 
y="506" 
dx="0,0,0,0,0,0,0,0,-0.9,0,0,0,0,0,-0.1,0,0,0,0,0,0" 
class="s6_315"
>how many, some, a few</text>

<text 
x="809" 
y="506" 
dx="0" 
class="s7_315"
>2</text>

<text 
x="61" 
y="551" 
dx="0" 
class="s2_315"
>家</text>

<text 
x="418" 
y="548" 
dx="0,0,0" 
class="s4_315"
>jiā</text>

<text 
x="553" 
y="548" 
dx="0" 
class="s5_315"
>n</text>

<text 
x="619" 
y="548" 
dx="0,0,0,0,0,0,-0.9,0,0,0,0,0" 
class="s6_315"
>family, home</text>

<text 
x="809" 
y="548" 
dx="0" 
class="s7_315"
>2</text>

<text 
x="61" 
y="594" 
dx="0" 
class="s2_315"
>件</text>

<text 
x="418" 
y="591" 
dx="0,0,0,0" 
class="s4_315"
>jiàn</text>

<text 
x="553" 
y="591" 
dx="0" 
class="s5_315"
>m</text>

<text 
x="619" 
y="581" 
dx="0,0,0,0,0,0,0,0,0,0,0,0,0,0,0,0,0,0,0,0,0,0,0,0,0,0" 
class="s6_315"
>(measure word for shirts, </text>

<text 
x="619" 
y="600" 
dx="0,0,0,0,0,0,0,0,0,0,0,0,0,-0.3,0,0,0,0,0,0,0,0,0,0,0,0,0,0,0,0" 
class="s6_315"
>dresses, jackets, coats, etc.)</text>

<text 
x="809" 
y="591" 
dx="0" 
class="s7_315"
>9</text>

<text 
x="61" 
y="636" 
dx="0" 
class="s2_315"
>见</text>

<text 
x="239" 
y="636" 
dx="0" 
class="s3_315"
>見</text>

<text 
x="418" 
y="634" 
dx="0,0,0,0" 
class="s4_315"
>jiàn</text>

<text 
x="553" 
y="634" 
dx="0" 
class="s5_315"
>v</text>

<text 
x="619" 
y="633" 
dx="0,0,0,0,0,0" 
class="s6_315"
>to see</text>

<text 
x="809" 
y="634" 
dx="0" 
class="s7_315"
>3</text>

<text 
x="61" 
y="679" 
dx="0,0" 
class="s2_315"
>见面</text>

<text 
x="239" 
y="679" 
dx="0,0" 
class="s3_315"
>見面</text>

<text 
x="418" 
y="676" 
dx="0,0,0,0,0,0,0,0,0" 
class="s4_315"
>jiàn miàn</text>

<text 
x="553" 
y="676" 
dx="0,0" 
class="s5_315"
>vo</text>

<text 
x="619" 
y="676" 
dx="0,0,0,0,0,0,0,0,0,0,-0.1,0,0,0,0,0,0,0,0,0,0,0,0,0" 
class="s6_315"
>to meet up, to meet with</text>

<text 
x="809" 
y="676" 
dx="0" 
class="s7_315"
>6</text>

<text 
x="61" 
y="721" 
dx="0" 
class="s2_315"
>教</text>

<text 
x="418" 
y="718" 
dx="0,0,0,0" 
class="s4_315"
>jiāo</text>

<text 
x="553" 
y="718" 
dx="0" 
class="s5_315"
>v</text>

<text 
x="619" 
y="718" 
dx="0,0,0,0,0,0,0,0" 
class="s6_315"
>to teach</text>

<text 
x="809" 
y="718" 
dx="0" 
class="s7_315"
>7</text>

<text 
x="61" 
y="763" 
dx="0,0" 
class="s2_315"
>教室</text>

<text 
x="418" 
y="760" 
dx="0,0,0,0,0,0,0" 
class="s4_315"
>jiàoshì</text>

<text 
x="553" 
y="760" 
dx="0" 
class="s5_315"
>n</text>

<text 
x="619" 
y="760" 
dx="0,0,0,0,0,0,0,0,0" 
class="s6_315"
>classroom</text>

<text 
x="809" 
y="760" 
dx="0" 
class="s7_315"
>8</text>

<text 
x="61" 
y="805" 
dx="0" 
class="s2_315"
>叫</text>

<text 
x="418" 
y="802" 
dx="0,0,0,0" 
class="s4_315"
>jiào</text>

<text 
x="553" 
y="802" 
dx="0" 
class="s5_315"
>v</text>

<text 
x="619" 
y="802" 
dx="0,0,0,0,0,0,0,0,0,0,0,0,0,0,0,0,0,0,0,0,0" 
class="s6_315"
>to be called, to call</text>

<text 
x="809" 
y="802" 
dx="0" 
class="s7_315"
>1</text>

<text 
x="61" 
y="848" 
dx="0" 
class="s2_315"
>节</text>

<text 
x="239" 
y="848" 
dx="0" 
class="s3_315"
>節</text>

<text 
x="418" 
y="845" 
dx="0,0,0" 
class="s4_315"
>jié</text>

<text 
x="553" 
y="845" 
dx="0" 
class="s5_315"
>m</text>

<text 
x="619" 
y="835" 
dx="0,0,0,0,0,0,0,0,0,0,0,0,0,0,0,0,0,0" 
class="s6_315"
>(measure word for </text>

<text 
x="619" 
y="855" 
dx="0,0,0,0,0,0,0,0,0,0,0,0,0,0" 
class="s6_315"
>class periods)</text>

<text 
x="809" 
y="845" 
dx="0" 
class="s7_315"
>6</text>

<text 
x="61" 
y="891" 
dx="0,0" 
class="s2_315"
>姐姐</text>

<text 
x="418" 
y="888" 
dx="0,0,0,0,0,0,0" 
class="s4_315"
>jiějie </text>

<text 
x="553" 
y="888" 
dx="0" 
class="s5_315"
>n</text>

<text 
x="619" 
y="888" 
dx="0,0,0,0,0,0,0,0,0,0,0,0" 
class="s6_315"
>older sister</text>

<text 
x="809" 
y="888" 
dx="0" 
class="s7_315"
>2</text>

<text 
x="61" 
y="933" 
dx="0,0" 
class="s2_315"
>介绍</text>

<text 
x="239" 
y="933" 
dx="0,0" 
class="s3_315"
>介紹</text>

<text 
x="418" 
y="930" 
dx="0,0,0,0,0,0,0" 
class="s4_315"
>jièshào</text>

<text 
x="553" 
y="930" 
dx="0" 
class="s5_315"
>v</text>

<text 
x="619" 
y="930" 
dx="0,0,0,0,0,0,0,0,0,0,0,0" 
class="s6_315"
>to introduce</text>

<text 
x="809" 
y="930" 
dx="0" 
class="s7_315"
>5</text>

<text 
x="61" 
y="975" 
dx="0,0" 
class="s2_315"
>今年</text>

<text 
x="418" 
y="972" 
dx="0,0,0,0,0,0,0" 
class="s4_315"
>jīnnián</text>

<text 
x="553" 
y="972" 
dx="0" 
class="s5_315"
>t</text>

<text 
x="619" 
y="972" 
dx="0,0,0,0,0,0,0,0,0" 
class="s6_315"
>this year</text>

<text 
x="809" 
y="972" 
dx="0" 
class="s7_315"
>3</text>

<text 
x="61" 
y="1017" 
dx="0,0" 
class="s2_315"
>今天</text>

<text 
x="418" 
y="1014" 
dx="0,0,0,0,0,0,0" 
class="s4_315"
>jīntiān</text>

<text 
x="553" 
y="1015" 
dx="0" 
class="s5_315"
>t</text>

<text 
x="619" 
y="1014" 
dx="0,0,0,0,0" 
class="s6_315"
>today</text>

<text 
x="809" 
y="1015" 
dx="0" 
class="s7_315"
>3</text>

<text 
x="61" 
y="1059" 
dx="0,0" 
class="s2_315"
>紧张</text>

<text 
x="239" 
y="1059" 
dx="0,0" 
class="s3_315"
>緊張</text>

<text 
x="418" 
y="1057" 
dx="0,0,0,0,0,0,0,0" 
class="s4_315"
>jǐnzhāng</text>

<text 
x="553" 
y="1057" 
dx="0,0,0" 
class="s5_315"
>adj</text>

<text 
x="619" 
y="1056" 
dx="0,0,0,0,0,0,0,0,0,0,0,0,0,0,0,0" 
class="s6_315"
>nervous, anxious</text>

<text 
x="809" 
y="1057" 
dx="0,0" 
class="s7_315"
>10</text>

<text 
x="61" 
y="1102" 
dx="0" 
class="s2_315"
>进</text>

<text 
x="239" 
y="1102" 
dx="0" 
class="s3_315"
>進</text>

<text 
x="418" 
y="1099" 
dx="0,0,0" 
class="s4_315"
>jìn</text>

<text 
x="553" 
y="1099" 
dx="0" 
class="s5_315"
>v</text>

<text 
x="619" 
y="1099" 
dx="0,0,0,0,0,0,0,0" 
class="s6_315"
>to enter</text>

<text 
x="809" 
y="1099" 
dx="0" 
class="s7_315"
>5</text>

<path d="M-22.1,1213.8l58,0l0,-1229.7l-58,0l0,1229.7Z" class="g6_315" />
<text 
transform="matrix(0, -1, 1, 0, 26, 1173)"
dx="0,0.3,0.3,0.3" 
class="s9_315"
>294 </text>

<text 
transform="matrix(0, -1, 1, 0, 26, 1135)"
dx="0,0.3,0.3,0.3,0.3,0.3,0.3,0.3,0.3,0.3,0.3,0.3,0.3,0.3,0.3,0.3,0.3,0.3,0.3,0.3,0.3" 
class="s9_315"
>Integrated Chinese 1 </text>

<text 
transform="matrix(0, -1, 1, 0, 26, 1014)"
dx="0,0.3" 
class="s9_315"
>| </text>

<text 
transform="matrix(0, -1, 1, 0, 26, 1001)"
dx="0,-0.9,-0.1,0.3,0.3,0.3,0.3,0.3" 
class="s9_315"
>Textbook</text>



<!-- Any embedded fonts defined here -->
<style type="text/css" ><![CDATA[

@font-face {
	font-family: Marion-Italic_2si;
	src: url("fonts/Marion-Italic_2si.woff") format("woff");
}

@font-face {
	font-family: ProximaNova-Light_372;
	src: url("fonts/ProximaNova-Light_372.woff") format("woff");
}

@font-face {
	font-family: ProximaNova-Semibold_376;
	src: url("fonts/ProximaNova-Semibold_376.woff") format("woff");
}

@font-face {
	font-family: ProximaNova-Bold_378;
	src: url("fonts/ProximaNova-Bold_378.woff") format("woff");
}

@font-face {
	font-family: ProximaNova-Regular_377;
	src: url("fonts/ProximaNova-Regular_377.woff") format("woff");
}

@font-face {
	font-family: STKaiTi-TC-Regular_371;
	src: url("fonts/STKaiTi-TC-Regular_371.woff") format("woff");
}

@font-face {
	font-family: STKaiti-SC-Regular_2t7;
	src: url("fonts/STKaiti-SC-Regular_2t7.woff") format("woff");
}

]]></style>

</svg>
