<?xml version="1.0" encoding="UTF-8" standalone="no"?>
<!DOCTYPE svg PUBLIC "-//W3C//DTD SVG 1.1//EN"
"http://www.w3.org/Graphics/SVG/1.1/DTD/svg11.dtd">


<!-- Page 347 -->
<svg x="0" y="0" width="921" height="1196" viewBox="0 0 921 1196" version="1.1" xmlns="http://www.w3.org/2000/svg" xmlns:xlink="http://www.w3.org/1999/xlink"
style="display: block;margin-left: auto;margin-right: auto;">
<defs>

<style type="text/css"><![CDATA[

.g1_347{
fill: none;
stroke: #BDBEC1;
stroke-width: 1.1458334;
stroke-linecap: butt;
stroke-linejoin: miter;
stroke-miterlimit: 4;
}
.g2_347{
fill: #FFFFFF;
}
.g3_347{
fill: none;
stroke: #57585A;
stroke-width: 1.5277778;
stroke-linecap: butt;
stroke-linejoin: miter;
stroke-miterlimit: 4;
}
.g4_347{
fill: none;
stroke: #57585A;
stroke-width: 0.5102778;
stroke-linecap: butt;
stroke-linejoin: miter;
stroke-miterlimit: 4;
}
.g5_347{
fill: #57585A;
stroke: #B2B3B7;
stroke-width: 1.5277778;
stroke-linecap: butt;
stroke-linejoin: miter;
stroke-miterlimit: 4;
}

.s1_347{
font-size: 21.39px;
font-family: ProximaNova-Extrabld_37f;
fill: #909295;
}
.s2_347{
font-size: 15.28px;
font-family: ProximaNova-Bold_378;
fill: #3F3F40;
}
.s3_347{
font-size: 24.44px;
font-family: STKaiti-SC-Regular_2t7;
fill: #3F3F40;
}
.s4_347{
font-size: 15.28px;
font-family: ProximaNova-Semibold_376;
fill: #77787B;
}
.s5_347{
font-size: 11.46px;
font-family: ProximaNova-Semibold_376;
fill: #FFFFFF;
}

]]></style>

</defs>
<path d="M0,0
L0,1196
L921,1196
L921,0 Z " 
fill="#FFFFFF" stroke="none" />
<text 
x="119" 
y="84" 
dx="0,-0.1,0,0,0,0,0,0" 
class="s1_347"
>Lesson 6</text>

<text 
x="119" 
y="800" 
dx="0,-0.1,0,0,0,0,0,0" 
class="s1_347"
>Lesson 7</text>

<text 
x="335" 
y="72" 
dx="0,0,0,0,0,0" 
class="s2_347"
>Noun: </text>

<text 
x="480" 
y="72" 
dx="0,0,0,0,0,0,0,0,0,0,0,0" 
class="s3_347"
>时间，问题，课，年级，空</text>

<text 
x="480" 
y="100" 
dx="0,0,0,0,0" 
class="s3_347"
>儿，办公室</text>

<text 
x="335" 
y="127" 
dx="0,0,0,0,0,0,0,0,0,-0.6,0,0,0" 
class="s2_347"
>Measure Word:</text>

<text 
x="480" 
y="127" 
dx="0,0,0" 
class="s3_347"
>位，节</text>

<text 
x="335" 
y="155" 
dx="0,0,0,0,0,0,0,0" 
class="s2_347"
>Pronoun:</text>

<text 
x="480" 
y="155" 
dx="0,0,0" 
class="s3_347"
>您，哪</text>

<text 
x="335" 
y="182" 
dx="0,-0.9,0,0,0" 
class="s2_347"
>Verb:</text>

<text 
x="480" 
y="182" 
dx="0,0,0,0,0,0,0,0,0,0,0,0" 
class="s3_347"
>打电话，在，开会，考试，</text>

<text 
x="480" 
y="210" 
dx="0,0,0,0,0" 
class="s3_347"
>到，行，等</text>

<text 
x="335" 
y="237" 
dx="0,0,0,0,0,0,0,-0.9,0,0,0,0" 
class="s2_347"
>Modal Verb: </text>

<text 
x="480" 
y="237" 
dx="0" 
class="s3_347"
>要</text>

<text 
x="335" 
y="265" 
dx="0,0,0,0,0,0,0,0,0,0" 
class="s2_347"
>Adjective:</text>

<text 
x="480" 
y="265" 
dx="0,0,0,0,0" 
class="s3_347"
>方便，客气</text>

<text 
x="335" 
y="292" 
dx="0,0,0,0,0,0,0,0" 
class="s2_347"
>Adverb: </text>

<text 
x="480" 
y="292" 
dx="0,0,0" 
class="s3_347"
>就，别</text>

<text 
x="335" 
y="320" 
dx="0,0,0,0,0,0,0,0,0,0,0,0" 
class="s2_347"
>Preposition:</text>

<text 
x="480" 
y="320" 
dx="0" 
class="s3_347"
>给</text>

<text 
x="335" 
y="347" 
dx="0,0,0,0,0,0,0,0,0,0,0,0" 
class="s2_347"
>Conjunction:</text>

<text 
x="480" 
y="347" 
dx="0,0" 
class="s3_347"
>要是</text>

<text 
x="335" 
y="375" 
dx="0,0,0,0,0,0,-0.6,0,0,0" 
class="s2_347"
>Time Word:</text>

<text 
x="480" 
y="375" 
dx="0,0,0,0,0,0,0,0" 
class="s3_347"
>下午，上午，以后</text>

<text 
x="335" 
y="402" 
dx="0,0,0,0,0,0,0" 
class="s2_347"
>Others:</text>

<text 
x="480" 
y="402" 
dx="0" 
class="s3_347"
>喂</text>

<text 
x="335" 
y="430" 
dx="0,0,0,0,0,0,0,0,0,0,0,0" 
class="s2_347"
>Proper Noun:</text>

<text 
x="480" 
y="430" 
dx="0,0,0" 
class="s3_347"
>常老师</text>

<text 
x="335" 
y="512" 
dx="0,0,0,0,0,0" 
class="s2_347"
>Noun: </text>

<text 
x="480" 
y="512" 
dx="0,0" 
class="s3_347"
>中文</text>

<text 
x="335" 
y="540" 
dx="0,-0.9,0,0,0" 
class="s2_347"
>Verb:</text>

<text 
x="480" 
y="540" 
dx="0,0,0,0,0,0,0,0,0,0,0,0,0" 
class="s3_347"
>帮，准备，练习，说，见面，</text>

<text 
x="480" 
y="567" 
dx="0,0" 
class="s3_347"
>回来</text>

<text 
x="335" 
y="595" 
dx="0,0,0,0,0,0,0,-0.9,0,0,0,0" 
class="s2_347"
>Modal Verb: </text>

<text 
x="480" 
y="595" 
dx="0" 
class="s3_347"
>得</text>

<text 
x="335" 
y="622" 
dx="0,0,0,0,0,0,0,0,0,0,0,0" 
class="s2_347"
>Preposition:</text>

<text 
x="480" 
y="622" 
dx="0" 
class="s3_347"
>跟</text>

<text 
x="335" 
y="650" 
dx="0,0,0,0,0,0,0,0,0,0,0,0" 
class="s2_347"
>Conjunction:</text>

<text 
x="480" 
y="650" 
dx="0,0" 
class="s3_347"
>但是</text>

<text 
x="335" 
y="677" 
dx="0,-0.3,0,0,0,0,0,0,0,0" 
class="s2_347"
>Particle: </text>

<text 
x="480" 
y="677" 
dx="0" 
class="s3_347"
>啊</text>

<text 
x="335" 
y="705" 
dx="0,0,0,0,0,0,0" 
class="s2_347"
>Others:</text>

<text 
x="480" 
y="705" 
dx="0,0" 
class="s3_347"
>下个</text>

<text 
x="335" 
y="787" 
dx="0,0,0,0,0,0" 
class="s2_347"
>Noun: </text>

<text 
x="480" 
y="787" 
dx="0,0,0,0,0,0,0,0,0,0,0,0,0" 
class="s3_347"
>字，笔，纸，语法，生词， </text>

<text 
x="480" 
y="815" 
dx="0,0" 
class="s3_347"
>汉字</text>

<text 
x="335" 
y="842" 
dx="0,0,0,0,0,0,0,0,0,-0.6,0,0,0" 
class="s2_347"
>Measure Word:</text>

<text 
x="480" 
y="842" 
dx="0,0,0" 
class="s3_347"
>枝，张</text>

<text 
x="335" 
y="870" 
dx="0,0,0,0,0,0,0,0" 
class="s2_347"
>Pronoun:</text>

<text 
x="480" 
y="870" 
dx="0,0,0,0,0" 
class="s3_347"
>怎么，哪里</text>

<text 
x="335" 
y="897" 
dx="0,-0.9,0,0,0" 
class="s2_347"
>Verb:</text>

<text 
x="480" 
y="897" 
dx="0,0,0,0,0,0,0,0,0,0,0,0,0" 
class="s3_347"
>说话，复习，写，教，懂，预</text>

<text 
x="480" 
y="925" 
dx="0,0,0" 
class="s3_347"
>习，学</text>

<text 
x="335" 
y="952" 
dx="0,0,0,0,0,0,0,0,0,0" 
class="s2_347"
>Adjective:</text>

<text 
x="480" 
y="952" 
dx="0,0,0,0,0,0,0,0" 
class="s3_347"
>慢，容易，多，难</text>

<text 
x="335" 
y="980" 
dx="0,0,0,0,0,0,0,0" 
class="s2_347"
>Adverb: </text>

<text 
x="480" 
y="980" 
dx="0" 
class="s3_347"
>真</text>

<text 
x="335" 
y="1007" 
dx="0,-0.3,0,0,0,0,0,0,0,0" 
class="s2_347"
>Particle: </text>

<text 
x="480" 
y="1007" 
dx="0" 
class="s3_347"
>得</text>

<text 
x="335" 
y="1035" 
dx="0,0,0,0,0,0,0" 
class="s2_347"
>Others:</text>

<text 
x="480" 
y="1035" 
dx="0,0,0,0" 
class="s3_347"
>上个，第</text>

<path d="M288.1,96.2l0,941.6" class="g1_347" />
<path d="M277.2,56.5c0,0,-16.8,0,-16.8,16.8l0,4.6c0,0,0,16.8,16.8,16.8l21.8,0c0,0,16.8,0,16.8,-16.8l0,-4.6c0,0,0,-16.8,-16.8,-16.8Z" class="g2_347" />
<text 
x="273" 
y="81" 
dx="0,0,0,0" 
class="s4_347"
>L6-1</text>

<path d="M277.2,55.8c-0.2,0,-17.6,0.2,-17.6,17.5l0,4.6c0,0.2,0.2,17.6,17.6,17.6l21.8,0c0.1,0,17.5,-0.2,17.5,-17.6l0,-4.6c0,-0.1,-0.2,-17.5,-17.5,-17.5l-21.8,0Z" class="g3_347" />
<path d="M277.2,57.8c-0.6,0,-15.5,0.2,-15.5,15.5l0,4.6c0,0.7,0.2,15.6,15.5,15.6l21.8,0c0.6,0,15.5,-0.3,15.5,-15.6l0,-4.6c0,-0.6,-0.2,-15.5,-15.5,-15.5l-21.8,0Z" class="g4_347" />
<path d="M277.2,772.7c0,0,-16.8,0,-16.8,16.8l0,4.6c0,0,0,16.8,16.8,16.8l21.8,0c0,0,16.8,0,16.8,-16.8l0,-4.6c0,0,0,-16.8,-16.8,-16.8Z" class="g2_347" />
<text 
x="273" 
y="797" 
dx="0,0,0,0" 
class="s4_347"
>L7-1</text>

<path d="M277.2,772c-0.2,0,-17.6,0.2,-17.6,17.5l0,4.6c0,0.2,0.2,17.6,17.6,17.6l21.8,0c0.1,0,17.5,-0.2,17.5,-17.6l0,-4.6C316.5,789.4,316.3,772,299,772l-21.8,0Z" class="g3_347" />
<path d="M277.2,774c-0.6,0,-15.5,0.2,-15.5,15.5l0,4.6c0,0.7,0.2,15.6,15.5,15.6l21.8,0c0.6,0,15.5,-0.3,15.5,-15.6l0,-4.6C314.5,788.9,314.3,774,299,774l-21.8,0Z" class="g4_347" />
<path d="M277.2,498.7c0,0,-16.8,0,-16.8,16.8l0,4.6c0,0,0,16.8,16.8,16.8l21.8,0c0,0,16.8,0,16.8,-16.8l0,-4.6c0,0,0,-16.8,-16.8,-16.8Z" class="g2_347" />
<text 
x="271" 
y="523" 
dx="0,0,0,0" 
class="s4_347"
>L6-2</text>

<path d="M277.2,497.9c-0.2,0,-17.6,0.2,-17.6,17.6l0,4.6c0,0.2,0.2,17.5,17.6,17.5l21.8,0c0.1,0,17.5,-0.2,17.5,-17.5l0,-4.6c0,-0.2,-0.2,-17.6,-17.5,-17.6l-21.8,0Z" class="g3_347" />
<path d="M277.2,499.9c-0.6,0,-15.5,0.3,-15.5,15.6l0,4.6c0,0.6,0.2,15.5,15.5,15.5l21.8,0c0.6,0,15.5,-0.2,15.5,-15.5l0,-4.6c0,-0.7,-0.2,-15.6,-15.5,-15.6l-21.8,0Z" class="g4_347" />
<path d="M-22.1,1213.8l58,0l0,-1229.7l-58,0l0,1229.7Z" class="g5_347" />
<text 
transform="matrix(0, -1, 1, 0, 26, 1173)"
dx="0,0.3,0.3,0.3" 
class="s5_347"
>326 </text>

<text 
transform="matrix(0, -1, 1, 0, 26, 1135)"
dx="0,0.3,0.3,0.3,0.3,0.3,0.3,0.3,0.3,0.3,0.3,0.3,0.3,0.3,0.3,0.3,0.3,0.3,0.3,0.3,0.3" 
class="s5_347"
>Integrated Chinese 1 </text>

<text 
transform="matrix(0, -1, 1, 0, 26, 1014)"
dx="0,0.3" 
class="s5_347"
>| </text>

<text 
transform="matrix(0, -1, 1, 0, 26, 1001)"
dx="0,-0.9,-0.1,0.3,0.3,0.3,0.3,0.3" 
class="s5_347"
>Textbook</text>



<!-- Any embedded fonts defined here -->
<style type="text/css" ><![CDATA[

@font-face {
	font-family: ProximaNova-Extrabld_37f;
	src: url("fonts/ProximaNova-Extrabld_37f.woff") format("woff");
}

@font-face {
	font-family: ProximaNova-Semibold_376;
	src: url("fonts/ProximaNova-Semibold_376.woff") format("woff");
}

@font-face {
	font-family: ProximaNova-Bold_378;
	src: url("fonts/ProximaNova-Bold_378.woff") format("woff");
}

@font-face {
	font-family: STKaiti-SC-Regular_2t7;
	src: url("fonts/STKaiti-SC-Regular_2t7.woff") format("woff");
}

]]></style>

</svg>
