<?xml version="1.0" encoding="UTF-8" standalone="no"?>
<!DOCTYPE svg PUBLIC "-//W3C//DTD SVG 1.1//EN"
"http://www.w3.org/Graphics/SVG/1.1/DTD/svg11.dtd">


<!-- Page 275 -->
<svg x="0" y="0" width="921" height="1196" viewBox="0 0 921 1196" version="1.1" xmlns="http://www.w3.org/2000/svg" xmlns:xlink="http://www.w3.org/1999/xlink"
style="display: block;margin-left: auto;margin-right: auto;">
<defs>
<clipPath id="c0_275"><path d="M0,1196.3L0,0L921.3,0l0,1196.3Z" /></clipPath>

<style type="text/css"><![CDATA[

.g1_275{
fill: #B81F23;
}
.g2_275{
fill: none;
stroke: #FFFFFF;
stroke-width: 2.1679168;
stroke-linecap: butt;
stroke-linejoin: miter;
stroke-miterlimit: 4;
}
.g3_275{
fill: none;
stroke: #FFFFFF;
stroke-width: 0.7241667;
stroke-linecap: butt;
stroke-linejoin: miter;
stroke-miterlimit: 4;
}
.g4_275{
fill: #FFFFFF;
}

.s1_275{
font-size: 29.03px;
font-family: MuseoSlab-900_347;
fill: #FFFFFF;
}
.s2_275{
font-size: 15.28px;
font-family: ProximaNova-Medium_345;
fill: #FFFFFF;
}
.s3_275{
font-size: 21.39px;
font-family: STKaiti-SC-Regular_2t7;
fill: #FED105;
}
.s4_275{
font-size: 17.57px;
font-family: Marion-Italic_2si;
fill: #FFFFFF;
}
.s5_275{
font-size: 68.22px;
font-family: BodoniSvtyTwoSCITCTT-Boo_35b;
fill: #FFFFFF;
}
.s6_275{
font-size: 11.46px;
font-family: ProximaNova-Semibold_34c;
fill: #FFFFFF;
}

]]></style>

</defs>
<path d="M0,0
L0,1196
L921,1196
L921,0 Z " 
fill="#FFFFFF" stroke="none" />
<path d="M0,1196.3l921.3,0L921.3,0L0,0L0,1196.3Z" class="g1_275" />
<image preserveAspectRatio="none" x="0" y="0" width="921" height="1197" xlink:href="275/img/1.png" />
<image preserveAspectRatio="none" x="230" y="162" width="376" height="327" xlink:href="275/img/2.png" />
<image preserveAspectRatio="none" x="230" y="488" width="376" height="328" xlink:href="275/img/3.png" />
<image preserveAspectRatio="none" x="230" y="815" width="376" height="327" xlink:href="275/img/4.png" />
<image preserveAspectRatio="none" x="230" y="1142" width="376" height="55" xlink:href="275/img/5.png" />
<text 
x="47" 
y="96" 
dx="0,0,0,-1.2,0,0,0,0,0,0,0,0,0,0,0,-0.2,0" 
class="s1_275"
>CULTURAL LITERACY</text>

<g clip-path="url(#c0_275)">
<path d="M-13.7,56.1l461.1,0l1.1,0l0,1.1l0,57.5l0,1.1l-1.1,0l-461.1,0" class="g2_275" />
<path d="M-13.7,59l459.3,0l0,53.9l-459.3,0" class="g3_275" />
</g>
<path d="M339.8,194c0.1,0.4,0.1,0.9,0.1,1.3l0,1.2c0,1.7,-0.4,3.4,-1.1,5c-0.8,1.6,-1.9,3,-3.2,4.2c-1.4,1.3,-3,2.3,-4.9,3c-1.8,0.7,-3.9,1.1,-6.1,1.1c-3.4,0,-5.8,-0.9,-7.5,-2.5c-1.6,-1.7,-2.5,-3.9,-2.5,-6.5c0,-2.2,0.7,-4.4,2,-6.7c1.3,-2.3,3.5,-4.4,6.6,-6.3c3,-1.9,7.1,-3.4,12,-4.7c5,-1.2,11.2,-1.8,18.6,-1.8c2.3,0,4.4,0.1,6.3,0.2c1.8,0.1,3.4,0.2,4.8,0.2c1.2,0,2.1,-0.1,2.9,-0.2c0.8,-0.1,1.5,-0.2,2.1,-0.2c0.5,0,0.9,0.2,1.3,0.5c0.4,0.3,0.6,0.8,0.6,1.4c0,0.5,-0.1,0.8,-0.3,1c-0.2,0.3,-0.6,0.4,-1.2,0.5c-0.6,0.1,-1.3,0.2,-2.3,0.2c-0.9,0,-2.1,0,-3.6,0c-2.9,0,-5.2,0.6,-7.1,1.7c-1.9,1.1,-3.7,2.8,-5.3,5c-1.6,2.2,-3.3,5,-5,8.3c-1.8,3.4,-4,7.3,-6.6,11.7c-0.9,1.6,-2,3.3,-3.4,5.2c-1.3,2,-2.9,3.8,-4.8,5.5c-1.9,1.7,-4,3.2,-6.4,4.3c-2.4,1.2,-5.1,1.8,-8.1,1.8c-1.1,0,-2.3,-0.2,-3.6,-0.5c-1.3,-0.3,-2.4,-0.7,-3.5,-1.4c-1,-0.6,-1.8,-1.5,-2.5,-2.6c-0.7,-1.1,-1,-2.4,-1,-4c0,-0.9,0.2,-1.8,0.7,-2.5c0.6,-0.7,1.3,-1,2.2,-1c0.7,0,1.2,0.2,1.6,0.7c0.5,0.4,0.7,1,0.7,1.8c0,0.6,-0.2,1.2,-0.6,1.6c-0.5,0.4,-0.9,0.6,-1.4,0.6c-0.3,0,-0.6,-0.1,-0.8,-0.1c0.2,2.1,1.1,3.8,2.8,4.9c1.6,1.1,3.6,1.7,6,1.7c2.3,0,4.4,-0.6,6.3,-1.7c1.9,-1.1,3.7,-2.6,5.3,-4.5c1.7,-1.8,3.2,-3.9,4.7,-6.3c1.4,-2.3,2.9,-4.8,4.3,-7.3c1.5,-2.6,2.9,-5.1,4.4,-7.6c1.5,-2.5,3,-4.8,4.6,-6.8c1.7,-2.1,3.4,-3.9,5.2,-5.3c1.9,-1.5,3.9,-2.4,6.2,-2.9l0,-0.1c-1.9,0,-3.9,-0.1,-6,-0.3c-2.2,-0.2,-4.1,-0.3,-6,-0.3c-5.1,0,-9.6,0.4,-13.6,1.3c-4,0.8,-7.3,2,-10,3.4c-2.8,1.5,-4.8,3.2,-6.2,5.2c-1.4,2,-2.1,4.1,-2.1,6.4c0,2.7,0.8,4.7,2.4,6.1c1.7,1.4,4,2,7,2c2.1,0,4.1,-0.3,5.8,-1c1.8,-0.7,3.3,-1.6,4.5,-2.8c1.3,-1.1,2.3,-2.4,3,-3.9c0.7,-1.5,1.1,-3,1.1,-4.6l0,-1.3c0,-0.4,-0.1,-0.9,-0.1,-1.3Z" class="g4_275" />
<path d="M356.6,204.1l-7.8,12.5l0.2,0.1c0.5,-0.8,1.3,-1.6,2.1,-2.7c0.9,-1,1.9,-2,2.9,-3.1c1,-1,2.1,-2.1,3.3,-3.1c1.1,-1,2.2,-2,3.3,-2.8c0.2,-0.4,0.4,-0.8,0.7,-1c0.2,-0.3,0.7,-0.4,1.4,-0.4c0.5,0,0.9,0,1.2,0c0.4,0,0.7,0,1.1,0.1c-0.7,0.8,-1.4,1.7,-2,2.8c-0.7,1.1,-1,2.3,-1,3.6c0,1,0.2,1.8,0.7,2.4c0.5,0.6,1.1,0.9,1.8,0.9c0.6,0,1.2,-0.1,1.8,-0.4c0.5,-0.3,1.1,-0.6,1.6,-1c0.6,-0.4,1.1,-0.8,1.6,-1.3c0.4,-0.4,0.9,-0.9,1.2,-1.2l0.4,0.3c-0.4,0.4,-0.9,0.9,-1.4,1.4c-0.5,0.5,-1.1,1,-1.7,1.5c-0.6,0.4,-1.3,0.8,-2,1.1c-0.7,0.3,-1.4,0.4,-2.1,0.4c-1.3,0,-2.3,-0.4,-3.1,-1.3c-0.8,-0.9,-1.2,-2.1,-1.2,-3.7c0,-1.1,0.2,-2,0.6,-2.9l-0.1,-0.1c-1.6,1.2,-3.5,2.9,-5.5,4.9c-2,2.1,-4.1,4.5,-6.3,7.3c-0.8,1,-1.7,2.3,-2.5,3.9c-0.9,1.6,-1.7,3.3,-2.3,5l-4,0c2.2,-3.9,4.4,-7.7,6.6,-11.5c2.2,-3.9,4.5,-7.8,6.8,-11.7Z" class="g4_275" />
<path d="M387,204.1l3.9,0c-1.5,2.3,-2.9,4.6,-4.3,6.8c-1.4,2.2,-2.6,4.2,-3.7,6.1c-1.1,1.9,-1.9,3.5,-2.6,4.9c-0.6,1.4,-1,2.6,-1,3.4c0,1.1,0.6,1.7,1.7,1.7c0.8,0,1.9,-0.4,3.2,-1.4c1.4,-0.9,2.8,-2.2,4.3,-3.8c1.6,-1.6,3.2,-3.5,4.8,-5.6c1.6,-2.2,3.2,-4.5,4.6,-6.9l0.4,0.1c-1.1,1.9,-2.4,3.9,-3.9,6c-1.5,2.1,-3,4.1,-4.6,6c-1.7,1.8,-3.3,3.3,-4.9,4.6c-1.6,1.2,-3.2,1.8,-4.6,1.8c-1.2,0,-2,-0.3,-2.6,-0.9c-0.5,-0.7,-0.8,-1.5,-0.8,-2.4c0,-0.6,0.1,-1.2,0.3,-1.8c0.1,-0.6,0.3,-1.3,0.5,-1.9l-0.1,0c-0.5,0.6,-1.2,1.3,-2,2.1c-0.8,0.9,-1.6,1.7,-2.5,2.4c-0.9,0.7,-1.9,1.3,-2.9,1.8c-0.9,0.5,-1.9,0.7,-2.8,0.7c-1.5,0,-2.5,-0.5,-3.1,-1.5c-0.6,-1.1,-0.9,-2.2,-0.9,-3.5c0,-1.9,0.5,-3.9,1.5,-6.1c1.1,-2.3,2.4,-4.3,4.1,-6.3c1.6,-2,3.4,-3.6,5.3,-4.9c1.9,-1.3,3.7,-1.9,5.4,-1.9c0.8,0,1.5,0.1,2.1,0.3c0.6,0.3,1.1,0.6,1.6,1c0.4,0.5,0.7,0.9,0.9,1.5c0.2,0.5,0.4,1.1,0.5,1.7l0.1,0ZM367,223c0,1,0.2,1.8,0.6,2.4c0.4,0.5,0.9,0.8,1.6,0.8c0.7,0,1.5,-0.3,2.4,-0.8c1,-0.6,2,-1.3,3,-2.3c1,-0.9,2,-2,3,-3.3c1,-1.2,1.9,-2.5,2.6,-3.9c0.8,-1.4,1.4,-2.8,1.9,-4.3c0.5,-1.4,0.8,-2.8,0.8,-4.1c0,-1,-0.3,-1.8,-0.8,-2.3c-0.6,-0.6,-1.2,-0.8,-2,-0.8c-1.2,0,-2.6,0.5,-4.1,1.7c-1.5,1.2,-2.9,2.7,-4.2,4.5c-1.4,1.8,-2.5,3.8,-3.4,6c-0.9,2.2,-1.4,4.4,-1.4,6.4Z" class="g4_275" />
<path d="M431.7,180.6c-1.6,2.8,-3.3,5.8,-5.2,8.9c-1.9,3.1,-3.7,6.1,-5.6,9.2c-1.9,3.1,-3.7,6,-5.4,8.9c-1.7,2.8,-3.2,5.4,-4.6,7.8c-1.3,2.4,-2.4,4.5,-3.2,6.2c-0.8,1.7,-1.2,3,-1.2,3.8c0,0.5,0.1,0.9,0.4,1.2c0.2,0.3,0.5,0.4,1,0.4c1,0,2.1,-0.4,3.4,-1.3c1.3,-0.9,2.9,-2.3,4.7,-4.3c1.6,-1.7,3.2,-3.6,4.7,-5.7c1.5,-2.1,2.8,-4.1,3.9,-6.1l0.5,0.2c-0.4,0.7,-0.9,1.6,-1.5,2.6c-0.6,0.9,-1.2,1.9,-1.9,3c-0.7,1,-1.5,2,-2.3,3.1c-0.8,1,-1.7,2,-2.5,3c-1.6,1.8,-3.2,3.4,-4.8,4.5c-1.6,1.2,-3.1,1.8,-4.4,1.8c-1.3,0,-2.3,-0.3,-2.9,-0.9c-0.6,-0.6,-1,-1.4,-1,-2.3c0,-0.9,0.2,-1.7,0.5,-2.5c0.4,-0.8,0.7,-1.5,1,-2.2l-0.1,0c-0.7,0.8,-1.4,1.7,-2.2,2.6c-0.8,0.9,-1.6,1.8,-2.5,2.6c-0.9,0.8,-1.9,1.4,-2.8,2c-1,0.5,-2.1,0.7,-3.1,0.7c-1.5,0,-2.6,-0.5,-3.4,-1.5c-0.8,-0.9,-1.2,-2.1,-1.2,-3.5c0,-1.8,0.6,-3.9,1.8,-6.2c1.1,-2.2,2.6,-4.3,4.4,-6.2c1.8,-2,3.7,-3.6,5.7,-4.9c2,-1.3,3.9,-1.9,5.7,-1.9c1.3,0,2.3,0.4,3.1,1.3c0.7,0.9,1.1,2,1.1,3.4l0.1,0l15.8,-27.7Zm-21.6,27.8c0,-1.1,-0.2,-2,-0.5,-2.8c-0.4,-0.8,-1.1,-1.2,-2.3,-1.2c-0.8,0,-1.7,0.3,-2.7,0.9c-1,0.6,-2,1.5,-3,2.5c-1,1,-2,2.2,-3,3.5c-0.9,1.4,-1.8,2.7,-2.5,4.1c-0.7,1.4,-1.3,2.7,-1.8,4c-0.4,1.3,-0.6,2.5,-0.6,3.5c0,1,0.1,1.7,0.4,2.4c0.4,0.6,1,0.9,1.8,0.9c0.7,0,1.6,-0.3,2.5,-0.9c1,-0.7,2,-1.5,3.1,-2.5c1,-1,2.1,-2.2,3.1,-3.5c1,-1.3,1.9,-2.6,2.7,-3.9c0.8,-1.3,1.5,-2.6,2,-3.8c0.5,-1.2,0.8,-2.3,0.8,-3.2Z" class="g4_275" />
<path d="M431.6,204.1c-2.2,3.5,-4.1,6.5,-5.6,9c-1.6,2.4,-2.8,4.4,-3.8,6c-0.9,1.7,-1.6,2.9,-2.1,3.9c-0.4,0.9,-0.6,1.7,-0.6,2.3c0,1.1,0.4,1.7,1.3,1.7c0.8,0,1.7,-0.3,2.8,-1c1.1,-0.6,2.2,-1.4,3.4,-2.5c1.2,-1,2.4,-2.2,3.5,-3.5c1.2,-1.3,2.3,-2.6,3.4,-3.9c1,-1.3,1.9,-2.5,2.7,-3.7c0.8,-1.2,1.4,-2.1,1.7,-2.9l0.5,0.3c-0.5,0.9,-1.1,2,-1.9,3.3c-0.9,1.2,-1.8,2.5,-2.9,3.8c-1,1.4,-2.2,2.7,-3.3,4c-1.2,1.3,-2.4,2.5,-3.6,3.5c-1.3,1,-2.4,1.9,-3.6,2.5c-1.2,0.6,-2.2,0.9,-3.2,0.9c-1.1,0,-1.9,-0.3,-2.4,-1c-0.6,-0.7,-0.8,-1.4,-0.8,-2.2c0,-0.9,0.2,-1.9,0.5,-3c0.4,-1.1,1.1,-2.4,1.9,-3.9c0.9,-1.5,2,-3.4,3.3,-5.5c1.4,-2.2,3,-4.9,4.9,-8.1Zm3.6,-12.6c0.5,0,1,0.3,1.4,0.7c0.3,0.4,0.5,0.9,0.5,1.6c0,0.6,-0.2,1.1,-0.5,1.6c-0.4,0.4,-0.9,0.6,-1.4,0.6c-0.6,0,-1.1,-0.2,-1.4,-0.6c-0.4,-0.5,-0.6,-1,-0.6,-1.6c0,-0.7,0.2,-1.2,0.6,-1.6c0.3,-0.4,0.8,-0.7,1.4,-0.7Z" class="g4_275" />
<path d="M449.1,196.3l-4.8,7.8l8,0l-0.4,0.8l-8.1,0c-1.7,2.9,-3.1,5.5,-4.4,7.6c-1.3,2.1,-2.3,4,-3.2,5.5c-0.9,1.6,-1.6,2.9,-2,3.9c-0.4,1.1,-0.7,2,-0.7,2.8c0,0.9,0.3,1.5,0.8,1.8c0.5,0.4,1.2,0.5,1.8,0.5c1.5,0,3.1,-0.6,4.9,-1.8c1.8,-1.3,3.5,-2.8,5.3,-4.6c1.7,-1.8,3.4,-3.7,5,-5.7c1.6,-2,2.9,-3.9,4,-5.5l0.4,0.3c-1.4,1.9,-2.9,4,-4.6,6.1c-1.6,2.1,-3.3,4.1,-5.1,5.9c-1.7,1.7,-3.5,3.2,-5.2,4.4c-1.8,1.1,-3.5,1.7,-5.1,1.7c-1.2,0,-2.3,-0.4,-3.2,-1.2c-1,-0.9,-1.4,-2.1,-1.4,-3.6c0,-1.1,0.3,-2.2,0.8,-3.5c0.5,-1.3,1.2,-2.7,2.1,-4.1c0.8,-1.5,1.8,-3.1,2.9,-4.9c1,-1.8,2.1,-3.6,3.3,-5.6l-3.3,0l0.3,-0.8l3.5,0l4.7,-7.8Z" class="g4_275" />
<path d="M462.1,204.1c-2.2,3.5,-4.1,6.5,-5.6,9c-1.6,2.4,-2.8,4.4,-3.8,6c-1,1.7,-1.6,2.9,-2.1,3.9c-0.4,0.9,-0.6,1.7,-0.6,2.3c0,1.1,0.4,1.7,1.3,1.7c0.8,0,1.7,-0.3,2.8,-1c1.1,-0.6,2.2,-1.4,3.4,-2.5c1.2,-1,2.3,-2.2,3.5,-3.5c1.2,-1.3,2.3,-2.6,3.3,-3.9c1.1,-1.3,2,-2.5,2.8,-3.7c0.8,-1.2,1.4,-2.1,1.7,-2.9l0.5,0.3c-0.5,0.9,-1.1,2,-2,3.3c-0.8,1.2,-1.7,2.5,-2.8,3.8c-1.1,1.4,-2.2,2.7,-3.4,4c-1.1,1.3,-2.3,2.5,-3.5,3.5c-1.3,1,-2.5,1.9,-3.6,2.5c-1.2,0.6,-2.2,0.9,-3.2,0.9c-1.1,0,-1.9,-0.3,-2.5,-1c-0.5,-0.7,-0.7,-1.4,-0.7,-2.2c0,-0.9,0.1,-1.9,0.5,-3c0.4,-1.1,1,-2.4,1.9,-3.9c0.8,-1.5,2,-3.4,3.3,-5.5c1.4,-2.2,3,-4.9,4.9,-8.1Zm3.6,-12.6c0.5,0,1,0.3,1.4,0.7c0.3,0.4,0.5,0.9,0.5,1.6c0,0.6,-0.2,1.1,-0.5,1.6c-0.4,0.4,-0.9,0.6,-1.4,0.6c-0.6,0,-1.1,-0.2,-1.4,-0.6c-0.4,-0.5,-0.6,-1,-0.6,-1.6c0,-0.7,0.2,-1.2,0.6,-1.6c0.3,-0.4,0.8,-0.7,1.4,-0.7Z" class="g4_275" />
<path d="M496.2,210.2c-1,1.2,-2.1,2.2,-3.3,2.9c-1.2,0.8,-2.4,1.1,-3.6,1.1c-1.1,0,-2.1,-0.3,-2.9,-0.8c-0.8,-0.6,-1.5,-1.3,-1.9,-2l-0.1,0c-0.4,1.7,-1.2,3.5,-2.3,5.4c-1.1,2,-2.4,3.7,-3.9,5.4c-1.5,1.6,-3.2,2.9,-5,4c-1.9,1.1,-3.7,1.6,-5.7,1.6c-1.7,0,-3,-0.5,-3.9,-1.7c-0.9,-1.1,-1.4,-2.6,-1.4,-4.5c0,-1,0.3,-2.1,0.7,-3.4c0.5,-1.3,1.1,-2.6,1.9,-4c0.8,-1.3,1.7,-2.6,2.8,-3.9c1.1,-1.3,2.2,-2.4,3.5,-3.4c1.2,-1,2.6,-1.8,4,-2.4c1.4,-0.6,2.8,-0.9,4.2,-0.9c1.7,0,3,0.5,3.9,1.6c0.9,1,1.4,2.4,1.5,4.2c0.1,1,0.5,1.9,1.3,2.8c0.8,0.9,1.9,1.3,3.3,1.3c1.2,0,2.3,-0.3,3.4,-1c1.1,-0.7,2.1,-1.5,3,-2.6Zm-30.7,13c0,1.2,0.2,2.1,0.6,2.8c0.5,0.7,1.1,1,1.9,1c1.1,0,2.2,-0.3,3.2,-1c1.1,-0.6,2.1,-1.5,3.1,-2.5c1,-1.1,2,-2.3,2.8,-3.6c0.9,-1.4,1.6,-2.8,2.2,-4.2c0.7,-1.4,1.2,-2.9,1.5,-4.2c0.4,-1.4,0.6,-2.6,0.6,-3.8c0,-0.9,-0.2,-1.7,-0.7,-2.4c-0.4,-0.6,-1,-0.9,-1.9,-0.9c-0.9,0,-1.8,0.3,-2.8,0.9c-1,0.6,-1.9,1.4,-2.9,2.4c-1,1,-2,2.1,-2.9,3.4c-0.9,1.3,-1.7,2.7,-2.4,4.1c-0.7,1.3,-1.2,2.7,-1.7,4.1c-0.4,1.4,-0.6,2.7,-0.6,3.9Z" class="g4_275" />
<path d="M502,204.1l-8.1,12.3l0.2,0.2c0.8,-1.2,1.8,-2.5,3,-4c1.1,-1.5,2.3,-2.9,3.6,-4.3c1.3,-1.3,2.7,-2.4,4.1,-3.4c1.4,-0.9,2.8,-1.3,4.1,-1.3c1.3,0,2.2,0.3,2.9,1.1c0.7,0.7,1,1.7,1,2.8c0,0.8,-0.2,1.6,-0.7,2.6c-0.5,1,-1.1,2,-1.8,3.2c-0.6,1.1,-1.4,2.2,-2.2,3.4c-0.8,1.2,-1.6,2.3,-2.3,3.3c-0.7,1.1,-1.2,2.1,-1.7,2.9c-0.5,0.9,-0.7,1.7,-0.7,2.2c0,1.3,0.6,1.9,1.7,1.9c1.3,0,2.7,-0.5,4.2,-1.4c1.4,-1,3.2,-2.6,5.2,-4.9c0.8,-0.9,1.6,-1.9,2.5,-3c0.8,-1.1,1.6,-2.1,2.4,-3.2c0.7,-1,1.4,-2,2.1,-3c0.6,-0.9,1.1,-1.7,1.5,-2.4l0.4,0.3c-0.8,1.4,-1.9,3,-3.1,4.8c-1.3,1.9,-2.7,3.7,-4.2,5.5c-0.9,1.1,-1.8,2.2,-2.8,3.1c-0.9,1,-1.8,1.9,-2.8,2.6c-0.9,0.8,-1.8,1.4,-2.7,1.8c-1,0.4,-1.9,0.6,-2.8,0.6c-1.1,0,-2.1,-0.3,-2.9,-1C501.3,226,501,225,501,223.8c0,-1.4,0.4,-2.8,1.4,-4.4c1,-1.6,2.1,-3.2,3.3,-4.9c1.1,-1.6,2.2,-3.1,3.2,-4.6c1,-1.5,1.4,-2.8,1.4,-3.9c0,-0.6,-0.1,-1,-0.4,-1.2c-0.4,-0.3,-0.8,-0.4,-1.3,-0.4c-1,0,-2.2,0.4,-3.4,1.2c-1.3,0.8,-2.6,1.9,-3.9,3.3c-1.3,1.4,-2.6,2.9,-4,4.6c-1.3,1.7,-2.5,3.4,-3.7,5.1c-1.1,1.6,-2.1,3.3,-3,4.8c-0.9,1.6,-1.6,2.9,-2,3.9l-3.8,0c1.1,-2,2.2,-4,3.4,-6c1.2,-2.1,2.4,-4.1,3.6,-6.1c1.1,-2,2.3,-3.9,3.3,-5.8c1.1,-1.9,2.1,-3.6,2.9,-5.1Z" class="g4_275" />
<path d="M539.2,204.1l4,0c-1.5,2.3,-2.9,4.6,-4.3,6.8c-1.4,2.2,-2.6,4.2,-3.7,6.1c-1.1,1.9,-1.9,3.5,-2.6,4.9c-0.7,1.4,-1,2.6,-1,3.4c0,1.1,0.6,1.7,1.7,1.7c0.8,0,1.9,-0.4,3.2,-1.4c1.4,-0.9,2.8,-2.2,4.3,-3.8c1.6,-1.6,3.2,-3.5,4.8,-5.6c1.6,-2.2,3.2,-4.5,4.6,-6.9l0.4,0.1c-1.1,1.9,-2.4,3.9,-3.9,6c-1.5,2.1,-3,4.1,-4.6,6c-1.7,1.8,-3.3,3.3,-4.9,4.6c-1.7,1.2,-3.2,1.8,-4.6,1.8c-1.2,0,-2,-0.3,-2.6,-0.9c-0.5,-0.7,-0.8,-1.5,-0.8,-2.4c0,-0.6,0.1,-1.2,0.3,-1.8c0.1,-0.6,0.3,-1.3,0.5,-1.9l-0.1,0c-0.5,0.6,-1.2,1.3,-2,2.1c-0.8,0.9,-1.6,1.7,-2.5,2.4c-0.9,0.7,-1.9,1.3,-2.9,1.8c-0.9,0.5,-1.9,0.7,-2.8,0.7c-1.5,0,-2.5,-0.5,-3.1,-1.5c-0.6,-1.1,-0.9,-2.2,-0.9,-3.5c0,-1.9,0.5,-3.9,1.5,-6.1c1.1,-2.3,2.4,-4.3,4.1,-6.3c1.6,-2,3.4,-3.6,5.3,-4.9c1.9,-1.3,3.7,-1.9,5.4,-1.9c0.8,0,1.5,0.1,2.1,0.3c0.6,0.3,1.1,0.6,1.5,1c0.5,0.5,0.8,0.9,1,1.5c0.2,0.5,0.4,1.1,0.5,1.7l0.1,0ZM519.3,223c0,1,0.2,1.8,0.6,2.4c0.4,0.5,0.9,0.8,1.6,0.8c0.7,0,1.5,-0.3,2.4,-0.8c1,-0.6,2,-1.3,3,-2.3c1,-0.9,2,-2,3,-3.3c1,-1.2,1.9,-2.5,2.6,-3.9c0.8,-1.4,1.4,-2.8,1.9,-4.3c0.5,-1.4,0.8,-2.8,0.8,-4.1c0,-1,-0.3,-1.8,-0.8,-2.3c-0.6,-0.6,-1.2,-0.8,-2,-0.8c-1.2,0,-2.6,0.5,-4.1,1.7c-1.5,1.2,-2.9,2.7,-4.2,4.5c-1.4,1.8,-2.5,3.8,-3.4,6c-0.9,2.2,-1.4,4.4,-1.4,6.4Z" class="g4_275" />
<path d="M570.5,180.3c-3.7,6.1,-6.8,11.4,-9.5,15.8c-2.7,4.4,-5,8.2,-6.9,11.4c-1.9,3.1,-3.5,5.7,-4.7,7.8c-1.2,2,-2.1,3.7,-2.8,5c-0.7,1.3,-1.2,2.3,-1.5,3.1c-0.2,0.7,-0.4,1.4,-0.4,1.9c0,1.2,0.5,1.7,1.4,1.7c1,0,2.2,-0.4,3.5,-1.4c1.4,-0.9,2.9,-2.1,4.4,-3.7c1.6,-1.6,3.2,-3.5,4.8,-5.6c1.6,-2.2,3.2,-4.5,4.8,-6.9l0.6,0.3c-1.4,2.3,-3,4.5,-4.6,6.6c-1.6,2.2,-3.2,4,-4.7,5.6c-2,2.1,-3.7,3.6,-5.1,4.5c-1.5,1,-2.8,1.4,-4,1.4c-1.2,0,-2.1,-0.3,-2.7,-0.9c-0.5,-0.6,-0.8,-1.5,-0.8,-2.5c0,-1,0.1,-1.9,0.5,-2.9c0.3,-1.1,0.8,-2.3,1.5,-3.7c0.7,-1.4,1.7,-3.1,2.9,-5.1c1.2,-2.1,2.7,-4.5,4.5,-7.5c1.7,-2.9,3.8,-6.4,6.2,-10.5c2.4,-4.1,5.2,-8.9,8.3,-14.4Z" class="g4_275" />
<text 
x="259" 
y="295" 
dx="0,-0.3,-0.3,-0.3,-0.3,-0.3,-0.3,-0.3,-0.3,-0.3,-0.3,-0.3,-0.3,-0.3,-0.3,-0.3,-0.3,-0.3,-0.3,-0.3,-0.3,-0.3,-0.3,-0.3,-0.3,-0.3,-0.3,-0.3,-0.3,-0.3,-0.3,-0.3,-0.3,-0.3,-0.3,-0.3,-0.3,-0.3,-0.3,-0.3,-0.3,-0.3,-0.3,-0.3,-0.3,-0.3,-0.3,0" 
class="s2_275"
>Contemporary Chinese fashion is largely similar </text>

<text 
x="259" 
y="317" 
dx="0,-0.3,-0.3,-0.3,-0.3,-0.3,-0.3,-0.3,-0.3,-0.3,-0.3,-0.3,-0.3,-0.3,-0.3,-0.3,-0.9,-0.3,-0.3,-0.3,-0.3,-0.3,-0.3,-0.3,-0.3,-0.3,-0.3,-0.3,-0.3,-0.3,-0.3,-0.3,-0.3,-0.3,-0.3,-0.3,-0.3,-0.3,-0.3,-0.3,-0.3,-0.3,-0.3,-0.3,-0.3,-0.3,-0.3,-0.3,-0.3,0" 
class="s2_275"
>to that of the West. On formal occasions, Chinese </text>

<text 
x="259" 
y="340" 
dx="0,-0.3,-0.3,-0.3,-0.3,-0.3,-0.3,-0.3,-0.3,-0.3,-0.3,-0.3,-0.3,-0.3,-0.3,-0.3,-0.3,-0.3,-0.3,-0.3,-0.3,-0.3,-0.3,-0.3,-0.3,-0.3,-0.3,-0.3,-0.3,-0.3,-0.3,-0.3,-0.3,-0.3,-0.3,-0.3,-0.3,-0.3,0" 
class="s2_275"
>men wear suits and ties and women wear </text>

<text 
x="259" 
y="363" 
dx="0,-0.9,-0.3,-0.3,-0.3,-0.3,-0.3,-0.3,-0.3,-0.3,-0.3,-0.3,-0.3,-0.3,-0.3,-0.3,-0.3,-0.3,-0.3,-0.3,-0.3,-0.3,-0.3,-0.3,-0.3,-0.3,-0.3,-0.3,-0.3,-0.3,-0.3,-0.3,-0.3,-0.3,-0.3,-0.3,-0.3,-0.3,-0.3,-0.3,-0.3,-0.3,-0.3,-0.3,-0.3,-1.2,0" 
class="s2_275"
>Western-style dresses. When dressing casually, </text>

<text 
x="259" 
y="386" 
dx="0,-0.3,-0.3,-0.3,-0.3,-0.3,-0.3,-0.3,-0.3,-0.3,-0.3,-0.3,-0.3,-0.3,-0.3,-0.3,-0.3,-0.3,-0.3,-0.3,-0.3,-0.3,-0.3,-0.3,-0.3,-0.3,-0.3,-0.3,-0.3,-0.3,-0.3,-0.3,-0.3,-0.3,-1.2,-0.3,-0.3,-0.3,-0.3,-0.3,-0.3,-0.3,0" 
class="s2_275"
>many young people wear jeans and T-shirts. </text>

<text 
x="259" 
y="409" 
dx="0,-0.3,-0.3,-0.3,-0.3,-0.3,-0.3,-1.6,-0.3,-0.3,-0.3,-0.3,-0.3,-0.3,-0.3,-0.3,-0.3,-0.3,-0.3,-0.3,-0.3,-0.3,-0.3,-0.3,-0.3,-0.3,-0.3,-0.3,-0.3,-0.3,-0.3,-0.3,-0.3,-0.3,-0.3,-0.3,-0.3,-0.3,-0.3,-0.3,-0.3,-0.3,-0.3,-0.3,-0.3,-0.3,-0.3,-0.3,-0.3,0" 
class="s2_275"
>However, more traditional clothing from the early </text>

<text 
x="259" 
y="432" 
dx="0,-0.3,-0.3,-0.3,-0.3,-0.3,-0.3,-0.3,-0.3,-0.3,-0.3,-0.3,-0.3,-0.3,-0.3,-0.3,-0.3,-0.3,-0.3,-0.3,-0.3,-0.3,-0.3,-0.3,-0.3,-0.3,-0.3,-0.3,-0.3,-0.3,-0.3,-0.3,-0.3,-0.3,-0.3,-0.3,-0.3,-0.3,-0.3,-0.3,-0.3,-0.3,-0.3,-0.3,-0.3,-0.3,-0.3,-0.3,-0.3,0" 
class="s2_275"
>tewntieth century can still be seen around China. </text>

<text 
x="259" 
y="462" 
dx="0,-0.3,-0.3,-0.3,-0.3,-0.3,-0.3,-0.3,-0.3,-0.3,-0.3,-0.3,-0.3,-0.3,-0.3,-0.3,-0.3,-0.3,-0.3,-0.3,-0.3,-0.3,-0.3,-0.3,-0.3,-0.3,-0.9,-0.3,-0.3,-0.3,-0.3,-0.3,-0.3,-0.3,-0.3,-0.3,-0.3,-0.3,-0.3,-0.3,-0.3,-0.3,-0.3,-0.3,-0.3,-0.3,-0.3,-0.3,0" 
class="s2_275"
>One of the most enduring examples of traditional </text>

<text 
x="259" 
y="485" 
dx="0,-0.3,-0.3,-0.3,-0.3,-0.3,-0.3,-0.3,-0.3,-0.3,-0.3,-0.3,-0.3,-0.3,-0.3,-0.3,-0.3,-0.3,-0.3" 
class="s2_275"
>Chinese fashion is </text>

<text 
x="380" 
y="485" 
dx="0,-0.4" 
class="s3_275"
>旗袍</text>

<text 
x="425" 
y="485" 
dx="0,0,0,0,0,0,0" 
class="s4_275"
>(qípáo)</text>

<text 
x="467" 
y="485" 
dx="0,-0.3,-0.3,-0.3,-0.3,-0.3,-0.3,-0.3,-0.3,-0.3,-0.3,-0.3,-0.3,-0.3,-0.3,-0.3,-0.3,0" 
class="s2_275"
>, a close-fitting </text>

<text 
x="259" 
y="508" 
dx="0,-0.3,-0.3,-0.3,-0.3,-0.4,-0.8,-0.3,-0.3,-0.3,-0.3,-0.3,-0.3,-0.3,-0.3,-0.3,-0.3,-0.3,-0.3,-0.3,-0.3,-0.3,-0.3,-0.3,-0.3,-0.3,-0.3,-0.3,-0.3,-0.3,-0.3,-0.3,-0.3,-0.3,-0.3,-0.3,-0.3,-0.3,-0.3,-0.3,-0.3,-0.3,-0.3,-0.3,-0.3,-0.3,-0.3,-0.3,-0.3,-0.3,-0.3,-0.3,-0.3,0" 
class="s2_275"
>woman’s dress with a high collar and a slit skirt. It </text>

<text 
x="259" 
y="531" 
dx="0,-0.3,-0.3,-0.3,-0.3,-0.9,-0.3,-0.3,-0.3,-0.3,-0.3,-0.3,-0.3,-0.3,-0.3,-0.3,-0.3,-0.3,-0.3,-0.3,-0.3,-0.3,-0.3,-0.3,-0.3,-0.3,-0.3,-0.3,-0.3,-0.3,-0.3,-0.3,-0.3,-0.3,-0.3,-0.3,-0.3,-0.3,-0.3,-0.3,-0.3,-0.3,-0.3,-0.3,-0.3,0" 
class="s2_275"
>was extremely popular among urban women until </text>

<text 
x="259" 
y="553" 
dx="0,-0.3,-0.3,-0.3,-0.3,-0.3,-0.3,-0.3,-0.3,-0.3,-0.3,-0.3,-0.3,-0.3,-0.3,-0.3,-0.3,-0.3,-0.3,-0.3,-0.3,-0.3,-0.3,-0.3,-0.3,-0.3,-0.3,-0.3,-0.3,-0.3,-0.3,-0.3,-0.3,-0.3,-0.3,-0.3,-0.3,-0.3,-0.3,-0.3,-0.3,-0.3,-0.3,-0.3,-0.3,0" 
class="s2_275"
>1949 in Mainland China and into the 1960s and </text>

<text 
x="259" 
y="576" 
dx="0,-0.3,-0.3,-0.3,-0.3,-0.3,-0.3,-0.3,-1.7,-0.3,-0.3,-0.3,-0.3,-0.3,-0.3,-0.3,-2,-0.3,-0.3,-0.3,-1.2,-0.3,-0.3,-0.3,-0.3,-0.3,-0.3,-0.3,-0.3,-0.3,-0.3,-0.3,-0.3,-0.3,-0.3,-0.3,-0.3,-0.3,-0.3,-0.3,-0.3,-0.3,-0.3,-0.3,-0.3,-0.3,-0.3,-0.3,0" 
class="s2_275"
>70s in Taiwan. Today, you can still see women in </text>

<text 
x="259" 
y="599" 
dx="0,0,0,0,0" 
class="s4_275"
>qipao</text>

<text 
x="295" 
y="599" 
dx="0,-0.3,-0.3,-0.3,-0.3,-0.3,-0.3,-0.3,-0.3,-0.3,-0.3,-0.3,-0.3,-0.3,-0.3,-0.3,-0.3,-0.3,-0.3,-0.3,-0.3,-0.3,-0.3,-0.3,-0.3,-0.3,-0.3,-0.3,-0.3,-0.3,-0.3,-0.3,-0.3,-0.3,-0.3,-0.3,-0.3,-0.3,-0.3,-0.3,-0.3,-0.3,-0.3,0" 
class="s2_275"
>at weddings and formal parties. Specialized </text>

<text 
x="259" 
y="622" 
dx="0,-0.3,-0.3,-0.3,-0.3,-0.3,-0.3,-0.3,-0.3,-0.3,-0.3,-0.3,-0.3" 
class="s2_275"
>stores offer </text>

<text 
x="335" 
y="622" 
dx="0,0,0,0,0" 
class="s4_275"
>qipao</text>

<text 
x="372" 
y="622" 
dx="0,-0.3,-0.3,-0.3,-0.3,-0.3,-0.3,-0.3,-0.3,-0.3,-0.3,-0.3,-0.3,-0.3,-0.3,-0.3,-0.3,-0.3,-0.3,-0.3,-0.3,-0.3,-0.3,-0.3,-0.3,-0.3,0" 
class="s2_275"
>designs in both modernized </text>

<text 
x="259" 
y="645" 
dx="0,-0.3,-0.3,-0.3,-0.3,-0.3,-0.3,-0.3,-0.3,-0.3,-0.3,-0.3,-0.3,-0.3,-0.3,-0.3,-0.3,-0.3,-0.3,-0.3,-0.3,-0.3,-0.3,-0.3,-0.3,-0.3,-0.3,-0.3,-0.3,-0.3,-0.3,-0.3,-0.3,-0.3,-0.3,-0.3,-0.3,-0.3,-0.3,-0.3,-0.3,-0.3,-0.3,-0.3,-0.3,-0.3,-0.3,-0.3,0" 
class="s2_275"
>and traditional versions. They are popular among </text>

<text 
x="259" 
y="668" 
dx="0,-0.3,-0.3,-0.3,-0.3,-0.3,-0.3,-0.3,-0.3,-0.3,-0.3,-0.3,-0.3,-0.3,-0.3,-0.3,-0.3,-0.3,-0.3,-0.3,-0.3,-0.3,-0.3,-0.3,-0.3,-0.3,-0.3,-0.3,-0.3,-0.3,-0.3,-0.3,-0.3,-0.3,-0.3,-0.3,-0.3,-0.3,-0.3,-0.3,-0.3,-0.3,-0.3,-0.3,-0.3,-0.3,-0.3,0" 
class="s2_275"
>foreign tourists, and several fashion brands in </text>

<text 
x="259" 
y="691" 
dx="0,-0.3,-0.3,-0.3,-0.3,-0.3,-0.3,-0.3,-0.3,-0.3,-0.3,-0.3,-0.3,-0.3,-0.3,-0.3,-0.3,-0.3,-0.3,-0.3,-0.3,-0.3,-0.3,-0.3,-0.3,-0.3,-0.3,-0.3,-0.3,-0.3,-0.3,-0.3,-0.3,-0.3,-0.3,-0.3,-0.3,-0.3,-0.3,-0.3,-0.3" 
class="s2_275"
>Europe and North America have introduced </text>

<text 
x="543" 
y="691" 
dx="0,0,0,0,0" 
class="s4_275"
>qipao</text>

<text 
x="576" 
y="691" 
dx="0" 
class="s2_275"
>-</text>

<text 
x="259" 
y="714" 
dx="0,-0.3,-0.3,-0.3,-0.3,-0.3,-0.3,-0.3,-0.3,-0.3,-0.3,-0.3,-0.3,-0.3,-0.3,-0.3,-0.3,-0.3,-0.3" 
class="s2_275"
>influenced designs.</text>

<text 
x="259" 
y="744" 
dx="0,-0.3,-0.3,-0.3,-0.3,-0.3,-0.3,-0.3,-0.3,-0.3,-0.3,-0.3,-0.3,-0.3,-0.3,-0.3,-0.3,-0.3,-0.3,-0.3,-0.3,-0.3,-0.3,-0.3,-0.3,-0.3,-0.3,-0.3,-0.3,-0.3,-0.3,-0.3,-0.3,-0.3,-0.3,-0.3,-0.3,-0.3,-0.3,-0.3,-0.3,-0.3,-0.3,-0.3,-0.3,-0.3,-1.2,0" 
class="s2_275"
>For Chinese men in the early twentieth century, </text>

<text 
x="259" 
y="767" 
dx="0,-0.3,-0.3,-0.3,-0.3,-0.3,-0.3,-0.3,-0.3,-0.3,-0.3,-0.3,-0.3,-0.3,-0.3,-0.3,-0.3,-0.3,-0.3,-0.3,-0.3,-0.3,-0.3,-0.3,-0.3,-0.3,-0.3,-0.3,-0.3,-0.3,-0.3,-0.3,-0.3,-0.3,-0.3,-0.3,-0.3,-0.3,-0.3,-0.3,-0.3,-0.3,-0.3,-0.3,-0.3,-0.3,-0.3,-0.3,-0.3,-0.3,-0.3,-0.3,0" 
class="s2_275"
>the traditional formal attire was a long robe called </text>

<text 
x="259" 
y="790" 
dx="0,-0.4" 
class="s3_275"
>长袍</text>

<text 
x="305" 
y="790" 
dx="0,0,0,0,0,0,0,0,0,0" 
class="s4_275"
>(chángpáo)</text>

<text 
x="374" 
y="790" 
dx="0,-0.3,-0.3,-0.3,-0.3,-0.3,-0.3,-0.3,-0.3,-0.3,-0.3,-0.3,-0.3,-0.3,-0.3,-0.3,-0.3,-0.3,-0.3,-0.3,-0.3,-0.3,-0.3,-0.3,-0.3,-0.3,-0.3,-0.3,0" 
class="s2_275"
>(lit. long gown) and a short </text>

<text 
x="259" 
y="812" 
dx="0,-0.3,-0.3,-0.3,-0.7,-0.3,-0.3,-0.3,-0.3,-0.3,-0.3,-0.3,-0.3,-0.3" 
class="s2_275"
>jacket called </text>

<text 
x="342" 
y="812" 
dx="0,-0.4" 
class="s3_275"
>马褂</text>

<text 
x="388" 
y="812" 
dx="0,0,0,0,0,0,0" 
class="s4_275"
>(mǎguà)</text>

<text 
x="440" 
y="812" 
dx="0,-0.3,-0.3,-0.3,-0.3,-0.3,-0.3,-0.3,-0.3,-0.3,-0.3,-0.3,-0.3,-0.3,-0.7,-0.3,-0.3,-0.3,0" 
class="s2_275"
>(Mandarin jacket). </text>

<text 
x="259" 
y="835" 
dx="0,-2,-0.3,-0.3,-0.3,-0.3,-0.3,-0.3,-0.3,-0.3,-0.3,-0.3,-0.3,-0.3,-0.3,-0.3,-0.3,-0.3,-0.3,-0.3,-0.3,-0.3,-0.3,-0.3,-0.3,-0.3,-0.3,-0.3,-0.3,-0.3,-0.3,-0.3,-0.3,-0.3,-0.3,-0.3,-0.3,-0.3,-0.3,-0.3,-0.3,-0.3,-0.3,-0.3,-0.3,-0.3,0" 
class="s2_275"
>Today they have disappeared from city streets, </text>

<text 
x="259" 
y="858" 
dx="0,-0.3,-0.3,-0.3,-0.3,-0.3,-0.3,-0.3,-0.3,-0.3,-0.3,-0.3,-0.3,-0.3,-0.3,-0.3,-0.3,-0.3,-0.3,-0.3,-0.3,-0.3,-0.3,-0.3,-0.3,-0.3,-0.3,-0.3,-0.3,-0.3,-0.3,-0.3,-0.3,-0.3,-0.3,-0.3,-0.3,-0.3,-0.3,-0.3,-0.3,-0.3,-0.3,-0.3,-0.3,-0.3,0" 
class="s2_275"
>but remain an important part of Chinese visual </text>

<text 
x="259" 
y="881" 
dx="0,-0.3,-0.3,-0.3,-0.3,-0.3,-0.3,-0.4,-0.3,-0.3,-0.3,-0.3,-0.3,-0.3,-0.3,-0.3,-0.3,-0.3,-0.3,-0.3,-0.3,-0.3,-0.3,-0.3,-0.3,-0.3,-0.3,-0.3,-0.3,-0.3,-0.3,-0.3,-0.3,-0.3,-0.3,-0.3,-0.3,-0.3,-0.3,-0.3,-0.3,-0.3,-0.3,-0.3,-0.3,-0.3,-0.3,-0.3,0" 
class="s2_275"
>culture. Characters in popular period dramas and </text>

<text 
x="259" 
y="904" 
dx="0,-0.3,-0.3,-0.3,-0.3,-0.3,-0.3,-0.3,-0.3,-0.3,-0.3,-0.3,-0.3,-0.3,-0.3,-0.3,-0.3,-0.3,-0.3,-0.3,-0.3,-0.3,-0.3,-0.3,-0.3,-0.3,-0.3,-0.3,-0.3,-0.3,-0.3,-0.3" 
class="s2_275"
>films, as well as performers of </text>

<text 
x="453" 
y="904" 
dx="0,-0.4" 
class="s3_275"
>相声</text>

<text 
x="498" 
y="904" 
dx="0,0,0,0,0,0,0,0,0,0,0,0" 
class="s4_275"
>(xiàngsheng)</text>

<text 
x="259" 
y="927" 
dx="0,-0.3,-0.3,-0.3,-0.3,-0.3,-0.3,-0.3,-0.3,-0.3,-0.3,-0.3,-0.3,-0.3,-0.3,-0.3,-0.3,-0.3,-0.3,-0.3,-0.3,-0.3,-0.3,-0.3,-0.3,-0.3,-0.3,-0.3,-0.3,-0.3,-0.3,-0.3,-0.3,-0.3,-0.3,-0.3,-0.3,-0.3,-0.3,-0.3,-0.3,-0.3,-0.3,-0.3,-0.3,-0.3,-0.3,-0.3,-0.3,-0.3,-0.3,0" 
class="s2_275"
>(cross-talk), a type of traditional stand-up comedy </text>

<text 
x="259" 
y="950" 
dx="0,-0.3,-0.3,-0.3,-0.3,-0.3,-0.3,-0.3,-0.3,-0.3,-0.3,-0.3,-0.3,-0.3,-0.3,-0.3,-0.3,-0.3,-0.3,-0.3,-0.3,-0.3,-0.3,-0.3,-0.3,-0.3,-0.3,-0.3,-0.3,-0.3,-0.3,-0.3,-0.3,-0.3,-0.3,-0.3,-0.3,-0.3,-0.3,-0.3,-0.3,-0.3,-0.3,-0.3,-0.3,-0.3,-0.3,-0.3,0" 
class="s2_275"
>involving two comics, and storytelling arts such </text>

<text 
x="259" 
y="973" 
dx="0,-0.3" 
class="s2_275"
>as</text>

<text 
x="279" 
y="973" 
dx="0,0" 
class="s3_275"
>评弹</text>

<text 
x="325" 
y="973" 
dx="0,0,0,0,0,0,0,0,0" 
class="s4_275"
>(píngtán)</text>

<text 
x="382" 
y="973" 
dx="0,-0.3,-0.3,-0.3,-0.3,-0.3,-0.3,-0.3,-0.3,-0.3,-0.3,-0.3,-0.3,-0.3,-0.3,-0.3,-0.3,-0.3,-0.3,-0.3,-0.3,-0.3,-0.3,-0.3,-0.3,-0.3,-0.3,-0.3,-0.3,-0.3,0" 
class="s2_275"
>(Suzhou-style ballad singing), </text>

<text 
x="259" 
y="996" 
dx="0,-0.3,-0.3,-0.3,-0.3,-0.3,-0.3,-0.3,-0.3,-0.3,-0.3,-0.3,-0.3,-0.3,-0.3,-0.3,-0.3,-0.3,-0.3,-0.3,-0.3,-0.3" 
class="s2_275"
>are frequently seen in</text>

<text 
x="404" 
y="996" 
dx="0,0" 
class="s3_275"
>长袍</text>

<text 
x="452" 
y="996" 
dx="0,0,0,0,0,0,0,0,0,0" 
class="s4_275"
>(chángpáo)</text>

<text 
x="518" 
y="996" 
dx="0,-0.3,-0.3,-0.3,-0.3,-0.3,-0.3,0" 
class="s2_275"
>. Until </text>

<text 
x="259" 
y="1019" 
dx="0,-0.3,-0.3,-0.3,-0.3,-0.3,-0.3,-0.3,-0.3,-0.3,-0.3,-0.3,-0.3,-0.3,-0.3,-0.3,-0.3,-0.3,-0.3,-0.3,-0.3,-0.3,-0.3,-0.3,-0.3,-0.3,-0.3,-0.3,-0.3,-0.3,-0.3,-0.3,-0.3,-0.3,-0.3,-0.3,-0.3,-0.3,-0.3,-0.3,-0.3,-0.3,-0.3,-0.3,0" 
class="s2_275"
>the 1990s, almost every Chinese man wore the </text>

<text 
x="259" 
y="1042" 
dx="0,-0.4,-0.4" 
class="s3_275"
>中山装</text>

<text 
x="325" 
y="1042" 
dx="0,0,0,0,0,0,0,0,0,0,0,0,0,0,0,0,0" 
class="s4_275"
>(Zhōngshānzhuāng)</text>

<text 
x="445" 
y="1042" 
dx="0,-0.3,-0.3,-0.3,-0.3,-0.3,-0.3,-2.1,-0.3,-0.3,-0.3,-0.3,-0.3,-0.3,-0.3,-0.3,-0.3,-0.3,-0.3,-0.3,-0.3,0" 
class="s2_275"
>(“Sun Yat-sen suit”), </text>

<text 
x="259" 
y="1065" 
dx="0,-0.3,-0.3,-0.3,-0.3,-0.3,-0.3,-0.3,-0.3,-0.3,-0.3,-0.3,-0.3,-0.3,-0.3,-0.3,-0.3,-0.3,-0.3,-0.3,-0.3,-0.9,-0.3,-0.3,-0.3,-0.3,-0.3,-0.3,-0.3,-0.3,-0.3,-0.3,-0.3,-0.3,-0.3,-0.3,-0.3,-0.3,-0.3,-0.3,-0.3,-0.3,-1.5,-0.3,-0.3,-0.3,-0.3,-0.3,0" 
class="s2_275"
>better known in the West as the “Mao suit.” Even </text>

<text 
x="259" 
y="1087" 
dx="0,-0.3,-0.3,-0.3,-0.3,-1.2,-0.3,-0.3,-0.3,-0.3,-0.3,-0.3,-0.3,-0.3,-0.3,-0.3,-0.3,-0.3,-0.3,-0.3,-0.3,-0.3,-0.3,-0.3,-0.3,-0.3,-0.3,-0.3,-0.3,-0.3,-0.3,-0.3,-0.3,-0.3,-0.3,-0.3,-0.3,-0.3,-0.3,-0.3,-0.3,-0.3,-0.3,-0.3,-0.3,0" 
class="s2_275"
>today, Chinese leaders wear the high-collared </text>

<text 
x="259" 
y="1110" 
dx="0,-0.3,-0.3,-0.3,-0.7,-0.3,-0.3,-0.3,-0.3,-0.3,-0.3,-0.3,-0.3,-0.3,-0.3,-0.3,-0.3,-0.3,-0.3,-0.3,-0.3,-0.3,-0.9,-0.3,-0.3,-0.3,-0.3,-0.3,-0.3,-0.3,-0.3,-0.3,-0.3,-0.3,-0.3,-0.3,-0.3,-0.3,-0.3,-0.3,-0.3,-0.3,-0.3,-0.3,-0.7,-0.3,-0.3,-0.3,-0.3,0" 
class="s2_275"
>jacket in place of a Western-style suit jacket on </text>

<text 
x="259" 
y="1133" 
dx="0,-0.3,-0.3,-0.3,-0.3,-0.3,-0.3,-0.3,-0.3,-0.3,-0.3,-0.3,-0.3,-0.3,-0.3,-0.3,-0.3,-0.3,-0.3,-0.3,-0.3,-0.3,-0.3,-0.3,-0.3,-0.3,-0.3,-0.3,-0.3,-0.3,-0.3,-0.3,-0.3,-0.3,-0.3,-0.3,-0.3,-0.3,-0.3,-0.3,-0.3,-0.3,0" 
class="s2_275"
>some formal occasions, and padded versions </text>

<text 
x="259" 
y="1156" 
dx="0,-0.3,-0.3,-0.3,-0.3,-0.3,-0.3,-0.3,-0.3,-0.3,-0.3,-0.3,-0.3,-0.3,-0.3,-0.3,-0.3,-0.3,-0.3,-0.3,-0.3,-0.3,-0.3,-0.3,-0.3,-0.3,-0.3,-0.3,-0.3,-0.3,-0.3,-0.3,-0.3,-0.3,-0.3,-0.3,-0.3,-0.3,-0.3,-0.3,-0.3,-0.3,-1.6" 
class="s2_275"
>can still be seen in rural China in winter.</text>

<text 
x="259" 
y="268" 
dx="0,-1.4,-1.4,-1.4,-1.4,-1.4,-1.4" 
class="s5_275"
>Clothes</text>

<text 
x="18" 
y="1171" 
dx="0,0.3,0.3" 
class="s6_275"
>254</text>



<!-- Any embedded fonts defined here -->
<style type="text/css" ><![CDATA[

@font-face {
	font-family: Marion-Italic_2si;
	src: url("fonts/Marion-Italic_2si.woff") format("woff");
}

@font-face {
	font-family: ProximaNova-Medium_345;
	src: url("fonts/ProximaNova-Medium_345.woff") format("woff");
}

@font-face {
	font-family: ProximaNova-Semibold_34c;
	src: url("fonts/ProximaNova-Semibold_34c.woff") format("woff");
}

@font-face {
	font-family: MuseoSlab-900_347;
	src: url("fonts/MuseoSlab-900_347.woff") format("woff");
}

@font-face {
	font-family: BodoniSvtyTwoSCITCTT-Boo_35b;
	src: url("fonts/BodoniSvtyTwoSCITCTT-Boo_35b.woff") format("woff");
}

@font-face {
	font-family: STKaiti-SC-Regular_2t7;
	src: url("fonts/STKaiti-SC-Regular_2t7.woff") format("woff");
}

]]></style>

</svg>
