<?xml version="1.0" encoding="UTF-8" standalone="no"?>
<!DOCTYPE svg PUBLIC "-//W3C//DTD SVG 1.1//EN"
"http://www.w3.org/Graphics/SVG/1.1/DTD/svg11.dtd">


<!-- Page 286 -->
<svg x="0" y="0" width="921" height="1196" viewBox="0 0 921 1196" version="1.1" xmlns="http://www.w3.org/2000/svg" xmlns:xlink="http://www.w3.org/1999/xlink"
style="display: block;margin-left: auto;margin-right: auto;">
<defs>
<clipPath id="c0_286"><path d="M233.6,975.8l0,-17.1l17.1,0l0,17.1Z" /></clipPath>

<style type="text/css"><![CDATA[

.g1_286{
fill: none;
stroke: #007D9F;
stroke-width: 2.2916667;
stroke-linecap: butt;
stroke-linejoin: miter;
}
.g2_286{
fill: #DC262E;
}
.g3_286{
fill: none;
stroke: #FFFFFF;
stroke-width: 2.2916667;
stroke-linecap: round;
stroke-linejoin: round;
stroke-miterlimit: 4;
}
.g4_286{
fill: none;
stroke: #007598;
stroke-width: 1.5277778;
stroke-linecap: butt;
stroke-linejoin: miter;
stroke-miterlimit: 4;
}
.g5_286{
fill: none;
stroke: #007598;
stroke-width: 0.5102778;
stroke-linecap: butt;
stroke-linejoin: miter;
stroke-miterlimit: 4;
}
.g6_286{
fill: #007598;
stroke: #B2B3B7;
stroke-width: 1.5277778;
stroke-linecap: butt;
stroke-linejoin: miter;
stroke-miterlimit: 4;
}

.s1_286{
font-size: 19.86px;
font-family: ProximaNova-Extrabld_35m;
fill: #007D9F;
}
.s2_286{
font-size: 24.44px;
font-family: ProximaNova-Bold_35e;
fill: #007D9F;
}
.s3_286{
font-size: 27.50px;
font-family: STKaiti-SC-Regular_2t7;
fill: #3F3F40;
}
.s4_286{
font-size: 22.92px;
font-family: Marion-Italic_2si;
fill: #3F3F40;
}
.s5_286{
font-size: 15.28px;
font-family: ProximaNova-Light_35x;
fill: #3F3F40;
}
.s6_286{
font-size: 21.39px;
font-family: STKaiti-SC-Bold_2sb;
fill: #007598;
}
.s7_286{
font-size: 17.57px;
font-family: Marion-Italic_2si;
fill: #3F3F40;
}
.s8_286{
font-size: 16.81px;
font-family: ProximaNova-Extrabld_35m;
fill: #3F3F40;
}
.s9_286{
font-size: 32.08px;
font-family: STKaiti-SC-Regular_2t7;
fill: #3F3F40;
}
.s10_286{
font-size: 32.08px;
font-family: STKaiti-SC-Regular_2t7;
fill: #007D9F;
}
.s11_286{
font-size: 17.57px;
font-family: Marion-Italic_2si;
fill: #007D9F;
}
.s12_286{
font-size: 16.81px;
font-family: ProximaNova-Bold_35e;
fill: #939598;
}
.s13_286{
font-size: 32.08px;
font-family: STKaiti-SC-Regular_35-;
fill: #3F3F40;
}
.s14_286{
font-size: 11.46px;
font-family: ProximaNova-Semibold_35r;
fill: #FFFFFF;
}

]]></style>

</defs>
<path d="M0,0
L0,1196
L921,1196
L921,0 Z " 
fill="#FFFFFF" stroke="none" />
<path d="M105.3,73.2l13,0" class="g1_286" />
<text 
x="105" 
y="69" 
dx="0,0" 
class="s1_286"
>3 </text>

<text 
x="358" 
y="74" 
dx="0,0,0,0,0,0,0,0,0,0,0,0,0,0,0,0,0,0,0,0,0" 
class="s2_286"
>Indicating sequence: </text>

<text 
x="236" 
y="111" 
dx="0,0,0,0" 
class="s3_286"
>先…再…</text>

<text 
x="353" 
y="111" 
dx="0,0,0,0,0,0,0,0,0,0,0,0,0,0,0,0,0,0,0,0,0,0,0" 
class="s4_286"
>(xiān . . . zài . . . )</text>

<text 
x="501" 
y="111" 
dx="0,0,0,0,0,0,0,0,0,0,0,0,0,0,0,0,0,0,0,0,0,0,0,0,0,0,0" 
class="s2_286"
>(first . . . , then . . . )</text>

<text 
x="143" 
y="173" 
dx="0,0,0,0,0,0,0,0,0,0,0,0,0,0,0,0,0,-0.1,0" 
class="s5_286"
>In this structure, </text>

<text 
x="250" 
y="173" 
dx="0" 
class="s6_286"
>再</text>

<text 
x="276" 
y="173" 
dx="0,0,0,0,0" 
class="s7_286"
>(zài)</text>

<text 
x="306" 
y="173" 
dx="0,0,0,0,0,0,0,0,0,0,0,0,0,0,0,0,0,0,0,0,0,0,0,0,0,0,0,0,0,0,0,0,0,0,0,0,0,0,0,0,0,0,0,0,0,0,0,0,0,0,0,0,0,0,0,0,0,0,0,0,0,0" 
class="s5_286"
>(then) indicates a sequence of actions rather than repetition.</text>

<text 
x="154" 
y="236" 
dx="0,0" 
class="s8_286"
>A </text>

<text 
x="220" 
y="239" 
dx="0,0" 
class="s9_286"
>我想</text>

<text 
x="284" 
y="239" 
dx="0" 
class="s10_286"
>先</text>

<text 
x="316" 
y="239" 
dx="0,0" 
class="s9_286"
>打球</text>

<text 
x="380" 
y="239" 
dx="0" 
class="s10_286"
>再</text>

<text 
x="412" 
y="239" 
dx="0,0,0,0,0" 
class="s9_286"
>去图书馆。</text>

<text 
x="224" 
y="276" 
dx="0,0.2,0.2,0.2,0.2,0.2,0.2,0.2,0.2" 
class="s7_286"
>Wǒ xiǎng </text>

<text 
x="289" 
y="276" 
dx="0,0.2,0.2,0.2,0.2" 
class="s11_286"
>xiān </text>

<text 
x="320" 
y="276" 
dx="0,0.2,0.2,0.2,0.2,0.2,0.2" 
class="s7_286"
>dǎ qiú </text>

<text 
x="363" 
y="276" 
dx="0,0.2,0.2,0.2" 
class="s11_286"
>zài </text>

<text 
x="386" 
y="276" 
dx="0,0.2,0.2,0.2,0.2,0.2,0.2,0.2,0.2,0.2,0.2,0.2,0.2" 
class="s7_286"
>qù túshūguǎn.</text>

<text 
x="224" 
y="308" 
dx="0,0,0,0,0,0,0,-0.3,0,0,0,0,0,0,0,0,0,0,0,0,0,0,0,0,0,0,0,0,0,0,0,0,0,0,0,0,0,0,0,0,0,0,0,0,0,0,0,0,-0.9" 
class="s5_286"
>I’d like to play ball and then go to the library.</text>

<text 
x="154" 
y="371" 
dx="0,0" 
class="s8_286"
>B </text>

<text 
x="220" 
y="374" 
dx="0,0,0,0" 
class="s9_286"
>弟弟常常</text>

<text 
x="348" 
y="374" 
dx="0" 
class="s10_286"
>先</text>

<text 
x="380" 
y="374" 
dx="0,0,0" 
class="s9_286"
>做功课</text>

<text 
x="476" 
y="374" 
dx="0" 
class="s10_286"
>再</text>

<text 
x="508" 
y="374" 
dx="0,0,0,0,0,0" 
class="s9_286"
>上网聊天儿。</text>

<text 
x="224" 
y="411" 
dx="0,0.2,0.2,0.2,0.2,0.2,0.2,0.2,0.2,0.2,0.2,0.2,0.2,0.2,0.2,0.2" 
class="s7_286"
>Dìdi chángcháng </text>

<text 
x="333" 
y="411" 
dx="0,0.2,0.2,0.2,0.2" 
class="s11_286"
>xiān </text>

<text 
x="364" 
y="411" 
dx="0,0.2,0.2,0.2,0.2,0.2,0.2,0.2,0.2,0.2,0.2" 
class="s7_286"
>zuò gōngkè </text>

<text 
x="436" 
y="411" 
dx="0,0.2,0.2,0.2" 
class="s11_286"
>zài </text>

<text 
x="459" 
y="411" 
dx="0,0.2,0.2,0.2,0.2,0.2,0.2,0.2,0.2,0.2,0.2,0.2,0.2,0.2,0.2,0.2,0.2,0.2,0.2,0.2,0.2,0.2" 
class="s7_286"
>shàng wǎng liáo tiānr.</text>

<text 
x="224" 
y="443" 
dx="0,0,0,0,0,0,0,0,0,0,0,0,0,0,0,0,0,0,0,0,0,0,0,0,0,0,0,0,0,0,0,0,0,0,0,0,0,0,0,0,0,0,0,0,0,0,0,0,0,0,0,0,0,0,0,0,0,0,0,0,0,0,0,0,0,0,0,0,0,-0.1" 
class="s5_286"
>My little brother often does his homework first and then chats online.</text>

<text 
x="155" 
y="512" 
dx="0,0" 
class="s8_286"
>C </text>

<text 
x="198" 
y="513" 
dx="0,0,0" 
class="s12_286"
>Q: </text>

<text 
x="224" 
y="515" 
dx="0,0,0,0,0,0,0,0,0,0,0,0" 
class="s9_286"
>你什么时候给妈妈打电话?</text>

<text 
x="230" 
y="552" 
dx="0,0.2,0.2,0.2,0.2,0.2,0.2,0.2,0.2,0.2,0.2,0.2,0.2,0.2,0.2,0.2,0.2,0.2,0.2,0.2,0.2,0.2,0.2,0.2,0.2,0.2,0.2,0.2,0.2,0.2,0.2,0.2,0.2,0.2,0.2,0.2,0.2" 
class="s7_286"
>Nǐ shénme shíhou gěi māma dǎ diànhuà?</text>

<text 
x="230" 
y="584" 
dx="0,0,0,0,0,0,0,0,0,0,0,0,0,0,0,0,0,0,0,0,0,0,0,0,0,0,0,0,0,0,-0.5" 
class="s5_286"
>When are you going to call Mom?</text>

<text 
x="198" 
y="654" 
dx="0,0" 
class="s12_286"
>A:</text>

<text 
x="224" 
y="656" 
dx="0,0,0,0" 
class="s9_286"
>下课以后</text>

<text 
x="352" 
y="656" 
dx="0" 
class="s10_286"
>再</text>

<text 
x="385" 
y="656" 
dx="0,0" 
class="s9_286"
>打。</text>

<text 
x="230" 
y="693" 
dx="0,0.2,0.2,0.2,0.2,0.2,0.2,0.2,0.2,0.2,0.2,0.2,0.2" 
class="s7_286"
>Xià kè yǐhòu </text>

<text 
x="313" 
y="693" 
dx="0,0.2,0.2,0.2" 
class="s11_286"
>zài </text>

<text 
x="335" 
y="693" 
dx="0,0.2,0.2" 
class="s7_286"
>dǎ.</text>

<text 
x="230" 
y="725" 
dx="0,0,0,0,0,0,0,0,0,0,0,0,0,0,0,0,0,0,0,0,0,0,0,0,0,0" 
class="s5_286"
>I’ll call her after class.</text>

<text 
x="143" 
y="766" 
dx="0,0,0,0,0,0,0,0,0,0,0,0" 
class="s5_286"
>As adverbs, </text>

<text 
x="225" 
y="766" 
dx="0" 
class="s6_286"
>先</text>

<text 
x="250" 
y="766" 
dx="0,0,0,0,0,0" 
class="s7_286"
>(xiān)</text>

<text 
x="289" 
y="766" 
dx="0,0,0,0" 
class="s5_286"
>and </text>

<text 
x="318" 
y="766" 
dx="0" 
class="s6_286"
>再</text>

<text 
x="343" 
y="766" 
dx="0,0,0,0,0" 
class="s7_286"
>(zài)</text>

<text 
x="373" 
y="766" 
dx="0,0,0,0,0,0,0,0,0,0,0,0,0,0,0,0,0,0,0,0,0,0,0,-0.1,0,0,0,0,0,0,0,0,0,0,0,0,0,0,0,0,0,0,0,0,0,0,0,0,0,0,0,0,0,0" 
class="s5_286"
>must come before a verb. They should not be placed in </text>

<text 
x="143" 
y="794" 
dx="0,0,0,0,0,0,0,0,0,0,0,0,0,0,0,0,0,0,0,0,0" 
class="s5_286"
>front of the subject.</text>

<text 
x="154" 
y="857" 
dx="0,0" 
class="s8_286"
>D </text>

<text 
x="220" 
y="860" 
dx="0,0" 
class="s9_286"
>小王</text>

<text 
x="284" 
y="860" 
dx="0" 
class="s10_286"
>先</text>

<text 
x="316" 
y="860" 
dx="0,0,0" 
class="s9_286"
>买东西</text>

<text 
x="412" 
y="860" 
dx="0" 
class="s10_286"
>再</text>

<text 
x="444" 
y="860" 
dx="0,0,0,0" 
class="s9_286"
>吃晚饭。</text>

<text 
x="224" 
y="897" 
dx="0,0.2,0.2,0.2,0.2,0.2,-1.6,0.2,0.2,0.2" 
class="s7_286"
>Xiǎo Wáng </text>

<text 
x="298" 
y="897" 
dx="0,0.2,0.2,0.2,0.2" 
class="s11_286"
>xiān </text>

<text 
x="330" 
y="897" 
dx="0,0.2,0.2,0.2,0.2,0.2,0.2,0.2,0.2,0.2,0.2" 
class="s7_286"
>mǎi dōngxi </text>

<text 
x="402" 
y="897" 
dx="0,0.2,0.2,0.2" 
class="s11_286"
>zài </text>

<text 
x="425" 
y="897" 
dx="0,0.2,0.2,0.2,0.2,0.2,0.2,0.2,0.2,0.2,0.2" 
class="s7_286"
>chī wǎnfàn.</text>

<text 
x="224" 
y="929" 
dx="0,0,0,0,0,0,0,0,-0.6,0,0,0,0,0,0,0,0,0,0,0,0,0,0,0,0,0,0,0,0,0,0,0,0,0,0,0,0,0,0,0,0,0,0,0,0,0,0,0,-1.3" 
class="s5_286"
>Little Wang will shop first before having dinner.</text>

<text 
x="224" 
y="978" 
dx="0" 
class="s13_286"
>[</text>

<g clip-path="url(#c0_286)">
<path d="M242.2,975.8c4.7,0,8.5,-3.8,8.5,-8.5c0,-4.8,-3.8,-8.6,-8.5,-8.6c-4.7,0,-8.6,3.8,-8.6,8.6c0,4.7,3.9,8.5,8.6,8.5Z" class="g2_286" />
</g>
<path d="M238.4,963.5l7.5,7.5" class="g3_286" />
<path d="M245.9,963.5l-7.5,7.5" class="g3_286" />
<text 
x="258" 
y="978" 
dx="0,0,0,0,0,0,0,0,0,0,0,0" 
class="s9_286"
>先小王买东西再吃晚饭。]</text>

<path d="M132.9,45.3l0,81.7l0,0.8l0.7,0l676.9,0l0.8,0l0,-0.8l0,-81.7l0,-0.8l-0.8,0l-676.9,0l-0.7,0l0,0.8Z" class="g4_286" />
<path d="M134.9,125.7l674.4,0l0,-79.2l-674.4,0l0,79.2Z" class="g5_286" />
<path d="M149.1,213.5c-0.1,0,-7.6,0.1,-7.6,7.6l0,19.7c0,0.1,0,7.7,7.6,7.7l22.4,0c0.1,0,7.6,-0.1,7.6,-7.7l0,-19.7c0,0,0,-7.6,-7.6,-7.6l-22.4,0Z" class="g4_286" />
<path d="M149.1,215.5c-0.6,0,-5.6,0.2,-5.6,5.6l0,19.7c0,0.6,0.2,5.6,5.6,5.6l22.4,0c0.6,0,5.6,-0.2,5.6,-5.6l0,-19.7c0,-0.5,-0.2,-5.6,-5.6,-5.6l-22.4,0Z" class="g5_286" />
<path d="M149.1,348.6c-0.1,0,-7.6,0.1,-7.6,7.7l0,19.7c0,0,0,7.6,7.6,7.6l22.4,0c0.1,0,7.6,-0.1,7.6,-7.6l0,-19.7c0,-0.1,0,-7.7,-7.6,-7.7l-22.4,0Z" class="g4_286" />
<path d="M149.1,350.7c-0.6,0,-5.6,0.2,-5.6,5.6l0,19.7c0,0.5,0.2,5.6,5.6,5.6l22.4,0c0.6,0,5.6,-0.2,5.6,-5.6l0,-19.7c0,-0.6,-0.2,-5.6,-5.6,-5.6l-22.4,0Z" class="g5_286" />
<path d="M149.1,489.6c-0.1,0,-7.6,0.1,-7.6,7.6l0,19.7c0,0.1,0,7.6,7.6,7.6l22.4,0c0.1,0,7.6,-0.1,7.6,-7.6l0,-19.7c0,-0.1,0,-7.6,-7.6,-7.6l-22.4,0Z" class="g4_286" />
<path d="M149.1,491.6c-0.6,0,-5.6,0.2,-5.6,5.6l0,19.7c0,0.6,0.2,5.6,5.6,5.6l22.4,0c0.6,0,5.6,-0.2,5.6,-5.6l0,-19.7c0,-0.6,-0.2,-5.6,-5.6,-5.6l-22.4,0Z" class="g5_286" />
<path d="M149.1,834.4c-0.1,0,-7.6,0.1,-7.6,7.6l0,19.7c0,0.1,0,7.7,7.6,7.7l22.4,0c0.1,0,7.6,-0.1,7.6,-7.7l0,-19.7c0,-0.1,0,-7.6,-7.6,-7.6l-22.4,0Z" class="g4_286" />
<path d="M149.1,836.4c-0.6,0,-5.6,0.2,-5.6,5.6l0,19.7c0,0.6,0.2,5.6,5.6,5.6l22.4,0c0.6,0,5.6,-0.2,5.6,-5.6l0,-19.7c0,-0.5,-0.2,-5.6,-5.6,-5.6l-22.4,0Z" class="g5_286" />
<path d="M885.3,1209.2l69.6,0l0,-1222.1l-69.6,0l0,1222.1Z" class="g6_286" />
<text 
transform="matrix(0, 1, -1, 0, 894, 905)"
dx="0,0.2,0.3,0.3,0.3,0.3,0.3,0.3,0.3,0.3" 
class="s14_286"
>Lesson 10 </text>

<text 
transform="matrix(0, 1, -1, 0, 894, 968)"
dx="0,0.3" 
class="s14_286"
>| </text>

<text 
transform="matrix(0, 1, -1, 0, 894, 981)"
dx="0,-0.5,0.3,0.3,0.3,0.3,0.3,0.3,0.3,0.3,0.3,0.3,0.3,0.3,0.3" 
class="s14_286"
>Transportation </text>

<text 
transform="matrix(0, 1, -1, 0, 894, 1069)"
dx="0,0.3" 
class="s14_286"
>| </text>

<text 
transform="matrix(0, 1, -1, 0, 894, 1082)"
dx="0,0.3,0.3,0.3,0.3,0.3,0.3,0.3" 
class="s14_286"
>Grammar </text>

<text 
transform="matrix(0, 1, -1, 0, 894, 1152)"
dx="0,0.3,0.3" 
class="s14_286"
>265</text>



<!-- Any embedded fonts defined here -->
<style type="text/css" ><![CDATA[

@font-face {
	font-family: Marion-Italic_2si;
	src: url("fonts/Marion-Italic_2si.woff") format("woff");
}

@font-face {
	font-family: ProximaNova-Bold_35e;
	src: url("fonts/ProximaNova-Bold_35e.woff") format("woff");
}

@font-face {
	font-family: ProximaNova-Semibold_35r;
	src: url("fonts/ProximaNova-Semibold_35r.woff") format("woff");
}

@font-face {
	font-family: STKaiti-SC-Bold_2sb;
	src: url("fonts/STKaiti-SC-Bold_2sb.woff") format("woff");
}

@font-face {
	font-family: ProximaNova-Light_35x;
	src: url("fonts/ProximaNova-Light_35x.woff") format("woff");
}

@font-face {
	font-family: STKaiti-SC-Regular_35-;
	src: url("fonts/STKaiti-SC-Regular_35-.woff") format("woff");
}

@font-face {
	font-family: ProximaNova-Extrabld_35m;
	src: url("fonts/ProximaNova-Extrabld_35m.woff") format("woff");
}

@font-face {
	font-family: STKaiti-SC-Regular_2t7;
	src: url("fonts/STKaiti-SC-Regular_2t7.woff") format("woff");
}

]]></style>

</svg>
