<?xml version="1.0" encoding="UTF-8" standalone="no"?>
<!DOCTYPE svg PUBLIC "-//W3C//DTD SVG 1.1//EN"
"http://www.w3.org/Graphics/SVG/1.1/DTD/svg11.dtd">


<!-- Page 146 -->
<svg x="0" y="0" width="921" height="1196" viewBox="0 0 921 1196" version="1.1" xmlns="http://www.w3.org/2000/svg" xmlns:xlink="http://www.w3.org/1999/xlink"
style="display: block;margin-left: auto;margin-right: auto;">
<defs>
<clipPath id="c0_146"><path d="M0,1196.3L0,0L921.3,0l0,1196.3Z" /></clipPath>

<style type="text/css"><![CDATA[

.g1_146{
fill: #28449C;
stroke: #DCDDDF;
stroke-width: 2.2916667;
stroke-linecap: butt;
stroke-linejoin: miter;
stroke-miterlimit: 4;
}
.g2_146{
fill: #28449C;
}
.g3_146{
fill: none;
stroke: #DCDDDF;
stroke-width: 2.2916667;
stroke-linecap: butt;
stroke-linejoin: miter;
stroke-miterlimit: 4;
}
.g4_146{
fill: none;
stroke: #FFFFFF;
stroke-width: 2.2916667;
stroke-linecap: butt;
stroke-linejoin: miter;
stroke-miterlimit: 4;
}
.g5_146{
fill: none;
stroke: #FFFFFF;
stroke-width: 0.7654167;
stroke-linecap: butt;
stroke-linejoin: miter;
stroke-miterlimit: 4;
}
.g6_146{
fill: none;
stroke: #D1D2D4;
stroke-width: 0.5102778;
stroke-linecap: butt;
stroke-linejoin: round;
stroke-miterlimit: 4;
}
.g7_146{
fill: none;
stroke: #D1D2D4;
stroke-width: 1.5277778;
stroke-linecap: butt;
stroke-linejoin: round;
stroke-miterlimit: 4;
}

.s1_146{
font-size: 38.19px;
font-family: ProximaNova-Extrabld_2-a;
fill: #28449C;
}
.s2_146{
font-size: 33.61px;
font-family: SourceHanSansCN-Medium_2tw;
fill: #FFFFFF;
}
.s3_146{
font-size: 18.33px;
font-family: Marion-Italic_2si;
fill: #56565A;
}
.s4_146{
font-size: 148.19px;
font-family: STKaiti-SC-Regular_2t7;
fill: #28449C;
}
.s5_146{
font-size: 25.97px;
font-family: Marion-Italic_2-8;
fill: #56565A;
}
.s6_146{
font-size: 36.67px;
font-family: MuseoSlab-900_2-7;
fill: #FFFFFF;
}
.s7_146{
font-size: 24.44px;
font-family: ProximaNova-Extrabld_2-a;
fill: #FFFFFF;
}
.s8_146{
font-size: 16.04px;
font-family: ProximaNova-Bold_2-2;
fill: #231F20;
}
.s9_146{
font-size: 15.28px;
font-family: Wingdings2_2tu;
fill: #E7C654;
}
.s10_146{
font-size: 16.04px;
font-family: ProximaNova-Medium_2-4;
fill: #231F20;
}

]]></style>

</defs>
<path d="M0,0
L0,1196
L921,1196
L921,0 Z " 
fill="#FFFFFF" stroke="none" />
<image preserveAspectRatio="none" x="20" y="22" width="877" height="911" xlink:href="146/img/1.png" />
<path d="M473.2,955.7l310.4,0l0,-45.9l-310.4,0l0,45.9Z" class="g1_146" />
<path d="M133.2,955.7l310.4,0l0,-45.9l-310.4,0l0,45.9Z" class="g1_146" />
<image preserveAspectRatio="none" x="133" y="590" width="597" height="214" xlink:href="146/img/2.png" />
<image preserveAspectRatio="none" x="729" y="590" width="55" height="214" xlink:href="146/img/3.png" />
<image preserveAspectRatio="none" x="744" y="215" width="106" height="22" xlink:href="146/img/4.png" />
<image preserveAspectRatio="none" x="742" y="213" width="110" height="26" xlink:href="146/img/5.png" />
<path d="M721.2,155.6c0,0,-3.6,0,-3.6,3.6l0,41.8c0,0,0,3.6,3.6,3.6l148.8,0c0,0,3.6,0,3.6,-3.6l0,-41.8c0,0,0,-3.6,-3.6,-3.6Z" class="g2_146" />
<path d="M721.2,155.6c0,0,-3.6,0,-3.6,3.6l0,41.8c0,0,0,3.6,3.6,3.6l148.8,0c0,0,3.6,0,3.6,-3.6l0,-41.8c0,0,0,-3.6,-3.6,-3.6l-148.8,0Z" class="g3_146" />
<text 
x="717" 
y="115" 
dx="0,-0.2,0,0,0,0,0,0" 
class="s1_146"
>Lesson 5</text>

<text 
x="741" 
y="191" 
dx="0,-1.7,-1.7,-1.7,-1.7" 
class="s2_146"
>第 五 课</text>

<text 
x="766" 
y="233" 
dx="0,0.2,0.2,0.2,0.2,0.2,0.2,0.2" 
class="s3_146"
>Dì wǔ kè</text>

<text 
x="236" 
y="720" 
dx="0,0,0" 
class="s4_146"
>看朋友</text>

<text 
x="398" 
y="779" 
dx="0,0.3,0.3,0.3,0.3,0.3,0.3,0.3,0.3,0.3,0.3" 
class="s5_146"
>Kàn péngyou</text>

<text 
x="277" 
y="864" 
dx="0,0,0,0,0,0,0,-0.2,0,0,0,0,0,0,0,0" 
class="s6_146"
>VISITING FRIENDS</text>

<path d="M136.1,821.4l0,60.8l0,1.1l1.2,0l645.8,0l1.2,0l0,-1.1l0,-60.8l0,-1.2l-1.2,0l-645.8,0l-1.2,0l0,1.2Z" class="g4_146" />
<path d="M139.2,880.2l642,0l0,-56.9l-642,0l0,56.9Z" class="g5_146" />
<text 
x="175" 
y="942" 
dx="0,0.1,0.2,0.2,0.2,0.2,0.2,0.2,0.2,0.2,0.2,0.2,0.2,0.2,0.2,0.2,0.2,0.2,0.2" 
class="s7_146"
>Learning Objectives</text>

<text 
x="168" 
y="992" 
dx="0,0,0,0,0,0,0,0,0,0,0,0,0,0,0,0,0,0,0,0,0,0,0,0,0,0,0,0,0,0,0,0,0,0" 
class="s8_146"
>In this lesson, you will learn to:</text>

<text 
x="163" 
y="1020" 
dx="0" 
class="s9_146"
>±</text>

<text 
x="182" 
y="1020" 
dx="0,-0.6,0,0,0,0,0,0,0,0,0,0,0,0,0,0,0" 
class="s10_146"
>Welcome a visitor</text>

<text 
x="163" 
y="1042" 
dx="0" 
class="s9_146"
>±</text>

<text 
x="182" 
y="1042" 
dx="0,0,0,0,0,0,0,0,0,0,0,0,0,0,0,0,0,0,0,0,0,0,0,0,0,0,0,0,0,0,0" 
class="s10_146"
>Introduce one person to another</text>

<text 
x="163" 
y="1063" 
dx="0" 
class="s9_146"
>±</text>

<text 
x="182" 
y="1063" 
dx="0,0,0,0,0,0,0,0,0,0,0,0,0,0,0,0,0,0,0" 
class="s10_146"
>Be a gracious guest</text>

<text 
x="163" 
y="1084" 
dx="0" 
class="s9_146"
>±</text>

<text 
x="182" 
y="1084" 
dx="0,0,0,0,0,0,0,0,0,0,0,0,0,0,0,0,0,0,0,0,0,0,0,0,0,0,0,0" 
class="s10_146"
>Ask for beverages as a guest</text>

<text 
x="163" 
y="1106" 
dx="0" 
class="s9_146"
>±</text>

<text 
x="182" 
y="1106" 
dx="0,0,0,0,0,0,0,0,0,0,0,0,0,0,0,0,0,0,0,0,0,0,0,0,0,0,0,0" 
class="s10_146"
>Offer beverages to a visitor</text>

<text 
x="163" 
y="1127" 
dx="0" 
class="s9_146"
>±</text>

<text 
x="182" 
y="1127" 
dx="0,0,0,0,0,0,0,0,0,0,0,0,0,0,0,0,0,0,0,0,0,0,0,0,0,0,0,0,0" 
class="s10_146"
>Briefly describe a visit to a</text>

<text 
x="182" 
y="1149" 
dx="0,0,0,0,0,0,0,-0.5,0,0,0,0,0,0" 
class="s10_146"
>friend’s place</text>

<text 
x="519" 
y="942" 
dx="0,-0.5,0.2,0.2,0.2,0.2,0.2,0.2,0.2,0.2,0.2,0.2,0.2,0.2,-0.5,0.2,0.2,0.2" 
class="s7_146"
>Relate &amp; Get Ready</text>

<text 
x="507" 
y="992" 
dx="0,0,0,0,0,0,0,0,0,0,0,0,0,0,0,0,0,0,0,0,0,0,0,0,0,0,0,0,0,0" 
class="s8_146"
>In your own culture/community:</text>

<text 
x="502" 
y="1020" 
dx="0" 
class="s9_146"
>±</text>

<text 
x="521" 
y="1020" 
dx="0,0,0,0,0,0,0,0,0,0,0,0,0,0,0,0,0,0,0,0,0,0,0,0,0,0,0,0,0,0,0,-0.5,0,0,0,0,0,0,0" 
class="s10_146"
>Is it common to visit a friend’s place </text>

<text 
x="521" 
y="1042" 
dx="0,0,0,0,0,0,0,0,0,0,0,0,0,0,0,0,0,0,0,0,0,0,-0.6" 
class="s10_146"
>without advance notice?</text>

<text 
x="502" 
y="1063" 
dx="0" 
class="s9_146"
>±</text>

<text 
x="521" 
y="1063" 
dx="0,0,0,0,0,0,0,0,0,0,0,0,0,0,0,0,0,0,0,0,0,0,0,0,0,0,0,0,0,0" 
class="s10_146"
>Do people bring anything when </text>

<text 
x="521" 
y="1084" 
dx="0,0,0,0,0,0,0,0,0,0,0,0,0,0,0,0,0,0,-0.5,0,0,0,0,0,-0.6" 
class="s10_146"
>visiting a friend’s home?</text>

<text 
x="502" 
y="1106" 
dx="0" 
class="s9_146"
>±</text>

<text 
x="521" 
y="1106" 
dx="0,0,0,0,0,0,0,0,0,0,0,0,0,0,0,0,0,0,0,-0.1,0,0,0,0,0,0,0,0,0,0" 
class="s10_146"
>What food and drinks do hosts </text>

<text 
x="521" 
y="1127" 
dx="0,0,0,0,0,0,0,0,0,0,0,0,0,0,0,0,0,0,0,0,0,-0.7" 
class="s10_146"
>commonly offer guests?</text>

<g clip-path="url(#c0_146)">
<path d="M670,134.3l269.6,0" class="g6_146" />
<path d="M670,136.4l269.6,0" class="g7_146" />
</g>


<!-- Any embedded fonts defined here -->
<style type="text/css" ><![CDATA[

@font-face {
	font-family: Wingdings2_2tu;
	src: url("fonts/Wingdings2_2tu.woff") format("woff");
}

@font-face {
	font-family: Marion-Italic_2si;
	src: url("fonts/Marion-Italic_2si.woff") format("woff");
}

@font-face {
	font-family: ProximaNova-Medium_2-4;
	src: url("fonts/ProximaNova-Medium_2-4.woff") format("woff");
}

@font-face {
	font-family: MuseoSlab-900_2-7;
	src: url("fonts/MuseoSlab-900_2-7.woff") format("woff");
}

@font-face {
	font-family: Marion-Italic_2-8;
	src: url("fonts/Marion-Italic_2-8.woff") format("woff");
}

@font-face {
	font-family: SourceHanSansCN-Medium_2tw;
	src: url("fonts/SourceHanSansCN-Medium_2tw.woff") format("woff");
}

@font-face {
	font-family: ProximaNova-Bold_2-2;
	src: url("fonts/ProximaNova-Bold_2-2.woff") format("woff");
}

@font-face {
	font-family: ProximaNova-Extrabld_2-a;
	src: url("fonts/ProximaNova-Extrabld_2-a.woff") format("woff");
}

@font-face {
	font-family: STKaiti-SC-Regular_2t7;
	src: url("fonts/STKaiti-SC-Regular_2t7.woff") format("woff");
}

]]></style>

</svg>
