<?xml version="1.0" encoding="UTF-8" standalone="no"?>
<!DOCTYPE svg PUBLIC "-//W3C//DTD SVG 1.1//EN"
"http://www.w3.org/Graphics/SVG/1.1/DTD/svg11.dtd">


<!-- Page 172 -->
<svg x="0" y="0" width="921" height="1196" viewBox="0 0 921 1196" version="1.1" xmlns="http://www.w3.org/2000/svg" xmlns:xlink="http://www.w3.org/1999/xlink"
style="display: block;margin-left: auto;margin-right: auto;">
<defs>
<clipPath id="c0_172"><path d="M178.2,531.9l0,-26.1l26.1,0l0,26.1Z" /></clipPath>
<clipPath id="c1_172"><path d="M178.2,567.8l0,-26.1l26.1,0l0,26.1Z" /></clipPath>
<clipPath id="c2_172"><path d="M178.2,603.7l0,-26.1l26.1,0l0,26.1Z" /></clipPath>
<clipPath id="c3_172"><path d="M179.9,638.7l0,-26.2l21.8,0l0,26.2Z" /></clipPath>
<clipPath id="c4_172"><path d="M178.2,724.9l0,-26.1l26.1,0l0,26.1Z" /></clipPath>
<clipPath id="c5_172"><path d="M178.2,761.2l0,-26.2l26.1,0l0,26.2Z" /></clipPath>
<clipPath id="c6_172"><path d="M179.9,795.9l0,-26.1l21.8,0l0,26.1Z" /></clipPath>
<clipPath id="c7_172"><path d="M178.2,880.5l0,-26.1l26.1,0l0,26.1Z" /></clipPath>
<clipPath id="c8_172"><path d="M178.2,940.7l0,-26.1l21.8,0l0,26.1Z" /></clipPath>

<style type="text/css"><![CDATA[

.g1_172{
fill: none;
stroke: #9B9B9C;
stroke-width: 1.5277778;
stroke-linecap: butt;
stroke-linejoin: miter;
}
.g2_172{
fill: none;
stroke: #DC262E;
stroke-width: 1.1458334;
stroke-linecap: butt;
stroke-linejoin: miter;
}
.g3_172{
fill: none;
stroke: #007598;
stroke-width: 1.1458334;
stroke-linecap: butt;
stroke-linejoin: miter;
}
.g4_172{
fill: #00AEEF;
}
.g5_172{
fill: #523711;
}
.g6_172{
fill: #91268F;
}
.g7_172{
fill: #652D91;
}
.g8_172{
fill: #4C4D4E;
stroke: #B2B3B7;
stroke-width: 1.5277778;
stroke-linecap: butt;
stroke-linejoin: miter;
stroke-miterlimit: 4;
}

.s1_172{
font-size: 16.81px;
font-family: LibreFranklin-SemiBold_cvz;
fill: #4C4D4E;
}
.s2_172{
font-size: 14.90px;
font-family: GentiumBookBasic-Italic_chu;
fill: #3F3F40;
}
.s3_172{
font-size: 14.90px;
font-family: GentiumBookBasic-Italic_cw4;
fill: #DC262E;
}
.s4_172{
font-size: 8.02px;
font-family: LibreFranklin-Bold_cuv;
fill: #DC262E;
}
.s5_172{
font-size: 14.90px;
font-family: GentiumBookBasic-Italic_chu;
fill: #749E3C;
}
.s6_172{
font-size: 14.90px;
font-family: GentiumBookBasic-Italic_chu;
fill: #DC262E;
}
.s7_172{
font-size: 14.90px;
font-family: GentiumBookBasic-Italic_cw4;
fill: #749E3C;
}
.s8_172{
font-size: 14.90px;
font-family: GentiumBookBasic-Italic_cw4;
fill: #007598;
}
.s9_172{
font-size: 14.90px;
font-family: GentiumBookBasic-Italic_chu;
fill: #007598;
}
.s10_172{
font-size: 8.02px;
font-family: LibreFranklin-Bold-SC700_cx9;
fill: #007598;
}
.s11_172{
font-size: 13.75px;
font-family: LibreFranklin-Medium_cuw;
fill: #231F20;
}
.s12_172{
font-size: 13.75px;
font-family: LibreFranklin-SemiBold_1bp;
fill: #FFFFFF;
}

]]></style>

</defs>
<path d="M0,0
L0,1196
L921,1196
L921,0 Z " 
fill="#FFFFFF" stroke="none" />
<path d="M772,78.9l144.7,0" class="g1_172" />
<text 
x="771" 
y="63" 
dx="0,0.2,0.2,0.2,0.2,0.2,0.2,0.2,-1.7,-0.3,-0.3" 
class="s1_172"
>Pinyin Text</text>

<path d="M253.7,164.4l4.6,0" class="g2_172" />
<path d="M503,249.2l5,0" class="g2_172" />
<path d="M504.6,588.4l4.2,0" class="g3_172" />
<path d="M329.4,648.7l5.2,0" class="g3_172" />
<path d="M419.6,890.1l4.5,0" class="g2_172" />
<text 
x="209" 
y="122" 
dx="0,0.2,0.2,0.2,0.2,0.2,0.2,0.2,0.2,0.2,0.2,0.2,0.2,0.2,0.2,0.2,0.2,0.2,0.2,0.2,0.2,0.2,0.2,0.2,0.2,0.2,0.2,0.2,0.2,0.2,0.2,0.2,0.2,0.2,0.2,0.2,0.2,0.2,0.2,0.2,0.2,0.2,0.2,0.2,0.2,0.2,0.2,0.2,0.2,0.2,0.2,0.2,0.2,0.2,0.2,0.2,0.2,0.2,0.2,0.2,0.2,0.2,0.2,0.2,0.2,0.2,0.2,0.2,0.2,0.2,0.2,0.2,0.2,0.2,0.2,0.2,0.2,0.2,0.2,0.2,0" 
class="s2_172"
>Zài lìshǐ shang, Zhōngguó shì yí ge zhòng nán qīng nǚ de shèhuì, fùnǚ de jiātíng </text>

<text 
x="209" 
y="146" 
dx="0,0.2,0.2,0.2,0.2,0.2,0.2,0.2,0.2,0.2,0.2,0.2,0.2,0.2,0.2,0.2,0.2,0.2,0.2,0.2,0.2,0.2,0.2,0.2,0.2,0.2,0.2,0.2,0.2,0.2,0.2,0.2,0.2,0.2,0.2,0.2,0.2,0.2,0.2,0.2,0.2,0.2,0.2,0.2,0.2,0.2,0.2,0.2,0.2,0.2,0.2,0.2,0.2,0.2,0.2,0.2,0.2,0.2,0.2,0.2,0.2,0.2,0.2,0.2,0.2,0.2,0.2,0.2,0.2,0.2,0.2,0.2,0.2,0.2,0.2,0.2,0.2,0.2,0.2,0.2,0.2,0.2,0.2,0" 
class="s2_172"
>dìwèi hé shèhuì dìwèi dōu bǐ nánrén dī de duō. Yī jiǔ wǔ líng nián yǐhòu, qíngkuàng </text>

<text 
x="209" 
y="171" 
dx="0,0.2,0.2,0.2,0.2,0.2,0.2" 
class="s3_172"
>zhújiàn</text>

<text 
x="253" 
y="162" 
dx="0" 
class="s4_172"
>a</text>

<text 
x="261" 
y="171" 
dx="0,0.2,0.2,0.2,0.2,0.2,0.2,0.2,0.2,0.2,0.2,0.2,0.2,0.2,0.2,0.2,0.2,0.2,0.2,0.2,0.2,0.2,0.2,0.2,0.2,0.2,0.2,0.2,0.2,0.2,0.2,0.2,0.2,0.2,0.2,0.2,0.2,0.2,0.2,0.2,0.2,0.2,0.2,0.2,0.2,0.2,0.2,0.2,0.2,0.2,0.2,0.2,0.2,0.2,0.2,0.2,0.2,0.2,0.2,0.2,0.2,0.2,0.2,0.2,0.2,0.2,0.2,0.2,0.2,0.2,0.2,0.2,0.2,0.2,0.2,0" 
class="s2_172"
>fāshēng le biànhuà. Tèbié shì zài chéngshì li, nǚ háizi hé nán háizi yíyàng </text>

<text 
x="209" 
y="195" 
dx="0,0.2,0.2,0.2,0.2,0.2,0.2,0.2,0.2,0.2,0.2,0.2,0.2,0.2,0.2,0.2,0.2,0.2,0.2,0.2,0.2,0.2,0.2,0.2,0.2,0.2,0.2,0.2,0.2,0.2,0.2,0.2,0.2,0.2,0.2,0.2,0.2,0.2,0.2,0.2,0.2,0.2,0.2,0.2,0.2,0.2,0.2,0.2,0.2,0.2,0.2,0.2,0.2,0.2,0.2,0.2,0.2,0.2,0.2,0.2,0.2,0.2,0.2,0.2,0.2,0.2,0.2,0.2,0.2,0.2,0.2,0.2,0.2,0.2,0.2,0.2,0.2,0.2,0.2,0.2,0.2,0.2,0.2,0.2,0" 
class="s2_172"
>yǒu shòu jiàoyù hé cānjiā gōngzuò de jīhuì, fùnǚ de shèhuì dìwèi yě yǒu le hěn dà de </text>

<text 
x="209" 
y="220" 
dx="0,0.2,0.2,0.2,0.2" 
class="s5_172"
>tígāo</text>

<text 
x="238" 
y="220" 
dx="0" 
class="s2_172"
>.</text>

<text 
x="209" 
y="256" 
dx="0,0.2,0.2,0.2,0.2,0.2,0.2,0.2,0.2,0.2,0.2,0.2,0.2,0.2" 
class="s2_172"
>Gǎigé kāifàng </text>

<text 
x="293" 
y="256" 
dx="0,0.2,0.2,0.2,0.2" 
class="s5_172"
>yǐlái</text>

<text 
x="319" 
y="256" 
dx="0,0.2,0.2,0.2,0.2,0.2,0.2,0.2,0.2,0.2,0.2,0.2,0.2" 
class="s2_172"
>, zài yì xiē </text>

<text 
x="381" 
y="256" 
dx="0,0.2,0.2,0.2,0.2" 
class="s6_172"
>qǐyè </text>

<text 
x="409" 
y="256" 
dx="0,0.2,0.2" 
class="s2_172"
>hé </text>

<text 
x="426" 
y="256" 
dx="0,0.2,0.2,0.2,0.2,0.2,0.2,0.2,0.2,0.2,0.2,0.2" 
class="s6_172"
>shìyè dānwèi</text>

<text 
x="502" 
y="246" 
dx="0" 
class="s4_172"
>b</text>

<text 
x="507" 
y="256" 
dx="0,0.2,0.2,0.2,0.2,0.2,0.2,0.2,0.2,0.2,0.2,0.2,0.2,0.2,0.2,0.2,0.2,0.2,0.2,0.2,0.2,0.2,0.2,0.2,0.2,0" 
class="s2_172"
>, yòu chūxiàn le nánnǚ bù </text>

<text 
x="209" 
y="280" 
dx="0,0.2,0.2,0.2,0.2,0.2,0.2,0.2,0.2,0.2,0.2,0.2,0.2,0.2,0.2,0.2,0.2,0.2,0.2,0.2,0.2,0.2,0.2,0.2,0.2,0.2,0.2,0.2,0.2,0.2,0.2,0.2,0.2,0.2,0.2,0.2,0.2,0.2,0.2,0.2,0.2,0.2,0.2,0.2,0.2,0.2,0.2,0.2,0.2,0.2,0.2,0.2,0.2,0.2,0.2,0.2,0.2,0.2,0.2,0.2,0.2,0.2,0.2,0.2,0.2,0.2,0.2,0.2,0.2,0.2,0.2,0.2,0.2,0.2,0.2,0.2,0.2,0.2,0" 
class="s2_172"
>píngděng de xiànxiàng. Bǐfāng shuō, zhǎo gōngzuò de shíhou, fùnǚ chángcháng bǐ </text>

<text 
x="209" 
y="304" 
dx="0,0.2,0.2,0.2,0.2,0.2,0.2,0.2,0.2,0.2,0.2,0.2,0.2,0.2,0.2,0.2,0.2,0.2,0.2,0.2,0.2,0.2,0.2,0.2,0.2,0.2,0.2,0.2,0.2,0.2,0.2,0.2,0.2,0.2,0.2,0.2,0.2,0.2,0.2,0.2,0.2,0.2,0.2,0.2,0.2,0.2,0.2,0.2,0.2,0.2,0.2,0.2,0.2,0.2,0.2,0.2,0.2,0.2,0.2,0.2,0.2,0.2,0.2,0.2,0.2,0.2,0.2,0.2,0.2,0.2,0.2,0.2,0.2,0.2,0.2,0.2,0.2,0" 
class="s2_172"
>nánrén gèng nán; yìxiē gōngchǎng hé gōngsī hái méiyǒu zuò dào nánnǚ tóng gōng </text>

<text 
x="209" 
y="329" 
dx="0,0.2,0.2,0.2,0.2,0.2,0.2,0.2,0.2,0.2,0.2,0.2,0.2,0.2,0.2,0.2,0.2,0.2,0.2,0.2,0.2,0.2,0.2,0.2,0.2,0.2,0.2,0.2,0.2,0.2,0.2,0.2,0.2,0.2,0.2,0.2,0.2,0.2,0.2,0.2,0.2,0.2,0.2,0.2,0.2,0.2,0.2,0.2,0.2,0.2,0.2,0.2,0.2,0.2,0.2,0.2,0.2,0.2,0.2,0.2,0.2,0.2,0.2,0.2,0.2,0.2,0.2,0.2,0.2,0.2,0.2,0.2,0.2,0.2,0.2,0.2,0.2,0.2,0.2,0" 
class="s2_172"
>tóng chóu. Dāngrán, yě yǒu yì xiē nǚxìng, wúlùn zài gōngzuò shang háishi shōurù </text>

<text 
x="209" 
y="353" 
dx="0,0.2,0.2,0.2,0.2,0.2,0.2,0.2,0.2,0.2,0.2,0.2,0.2,0.2,0.2,0.2,0.2,0.2,0.2,0.2,0.2,0.2,0.2,0.2,0.2,0.2,0.2,0.2,0.2,0.2,0.2,0.2,0.2,0.2,0.2,0.2,0.2,0.2,0.2,0.2,0.2,0.2,0.2,0.2,0.2,0.2,0.2,0.2,0.2,0.2,0.2,0.2,0.2,0.2,0.2,0.2,0.2,0.2,0.2,0.2,0.2,0.2,0.2,0.2,0.2,0.2,0.2,0.2,0.2,0.2,0.2,0.2,0.2,0.2,0.2,0.2,0.2,0.2" 
class="s2_172"
>shang, dōu chāoguò yìbān nánrén. Búguò tāmen zài nǚxìng zhōng zhǐ shì shǎoshù.</text>

<text 
x="209" 
y="389" 
dx="0,0.2,0.2,0.2,0.2,0.2,0.2,0.2,0.2,0.2,0.2,0.2,0.2,0.2,0.2,0.2,0.2,0.2,0.2,0.2,0.2,0.2,0.2,0.2,0.2,0.2,0.2,0.2,0.2,0.2,0.2,0.2,0.2,0.2,0.2,0.2,0.2,0.2,0.2,0.2,0.2,0.2,0.2,0.2,0.2,0.2,0.2,0.2,0.2,0.2,0.2,0.2,0.2,0.2,0.2,0.2,0.2,0.2,0.2,0.2,0.2,0.2,0.2,0.2,0.2,0.2,0.2,0.2,0.2,0.2,0.2,0.2,0.2,0.2,0.2,0.2,0.2,0.2,0.2,0.2,0.2,0.2,0" 
class="s2_172"
>Dànshì zài hěn duō Zhōngguó jiātíng zhōng, zhàngfu hé qīzǐ dōu shì hùxiāng zhàogù, </text>

<text 
x="209" 
y="414" 
dx="0,0.2,0.2,0.2,0.2,0.2,0.2,0.2,0.2,0.2,0.2,0.2,0.2,0.2,0.2,0.2,0.2,0.2,0.2,0.2,0.2,0.2,0.2,0.2,0.2,0.2,0.2,0.2,0.2,0.2,0.2,0.2,0.2,0.2,0.2,0.2,0.2,0.2,0.2,0.2,0.2,0.2,0.2,0.2,0.2,0.2,0.2,0.2,0.2,0.2,0.2,0.2,0.2,0.2,0.2,0.2,0.2,0.2,0.2,0.2,0.2,0.2,0.2,0.2,0.2,0.2,0.2,0.2,0.2,0.2,0.2,0.2,0.2,0.2,0.2,0.2,0.2,0.2,0.2,0" 
class="s2_172"
>suǒyǐ, jiātíng kěnéng shì xiànzài Zhōngguó shèhuì nánnǚ zuì píngděng de dìfang. </text>

<text 
x="209" 
y="438" 
dx="0,0.2" 
class="s7_172"
>Ná</text>

<text 
x="229" 
y="438" 
dx="0,0.2,0.2,0.2,0.2,0.2,0.2,0.2,0.2,0.2,0.2,0.2,0.2,0.2,0.2,0.2,0.2,0.2,0.2,0.2,0.2" 
class="s2_172"
>Lín Xuěméi de jiùjiu </text>

<text 
x="351" 
y="438" 
dx="0,0.2,0.2,0.2,0.2,0.2,0.2,0.2,0.2" 
class="s5_172"
>lái shuō </text>

<text 
x="400" 
y="438" 
dx="0,0.2,0.2,0.2,0.2,0.2,0.2,0.2,0.2,0.2,0.2,0.2,0.2,0.2,0.2,0.2,0.2,0.2,0.2,0.2,0.2,0.2,0.2,0.2" 
class="s2_172"
>ba, tā shì ge dà qiúmí, </text>

<text 
x="533" 
y="438" 
dx="0,0.2,0.2,0.2,0.2,0.2,0.2,0.2" 
class="s5_172"
>zhǐ yǒu </text>

<text 
x="579" 
y="438" 
dx="0,0.2,0.2,0.2,0.2,0.2,0.2,0.2,0.2,0.2,0.2,0.2,0.2,0.2,0.2,0.2,0.2,0.2,0.2,0.2,0.2,0" 
class="s2_172"
>zài kàn diànshì li de </text>

<text 
x="209" 
y="463" 
dx="0,0.2,0.2,0.2,0.2,0.2,0.2,0.2,0.2,0.2,0.2,0.2,0.2,0.2,0.2,0.2,0.2,0.2,0.2,0.2" 
class="s2_172"
>zúqiú sài de shíhou </text>

<text 
x="325" 
y="463" 
dx="0,0.2,0.2" 
class="s7_172"
>cái</text>

<text 
x="346" 
y="463" 
dx="0,0.2,0.2,0.2,0.2,0.2,0.2,0.2,0.2,0.2,0.2,0.2,0.2,0.2,0.2,0.2,0.2,0.2,0.2,0.2,0.2,0.2,0.2,0.2,0.2,0.2,0.2,0.2,0.2,0.2,0.2,0.2,0.2,0.2,0.2,0.2,0.2,0.2,0.2,0.2,0.2,0.2,0.2,0.2,0.2,0.2,0.2,0.2,0.2,0.2,0.2,0.2,0.2,0.2,0.2,0.2,0.2,0.2,0.2,0.2,0" 
class="s2_172"
>shénme jiāwù dōu bú zuò. Kěshì bǐsài yì wán, tā jiù máng zhe </text>

<text 
x="209" 
y="487" 
dx="0,0.2,0.2,0.2,0.2,0.2,0.2,0.2,0.2,0.2,0.2,0.2,0.2,0.2,0.2,0.2,0.2,0.2,0.2,0.2,0.2,0.2,0.2,0.2,0.2,0.2,0.2,0.2,0.2,0.2,0.2,0.2,0.2,0.2,0.2,0.2,0.2,0.2,0.2,0.2,0.2,0.2,0.2,0.2,0.2,0.2,0.2,0.2,0.2,0.2,0.2,0.2,0.2,0.2,0.2,0.2,0.2,0.2,0.2,0.2,0.2,0.2,0.2,0.2" 
class="s2_172"
>bāng jiùmā zuò fàn, xǐ wǎn, yòu chéng le yí wèi “mófàn zhàngfu”.</text>

<text 
x="209" 
y="523" 
dx="0,0.2,0.2,0.2,0.2,0.2,0.2,0.2,0.2,0.2,0.2,0.2,0.2,0.2,0.2,0.2,0.2,0.2,0.2,0.2,0.2,0.2,0.2,0.2,0.2,0.2,0.2,0.2,0.2,0.2,0.2,0.2,0.2,0.2,0.2,0.2" 
class="s2_172"
>Jiùjiu, jīntiān zěnme nín xǐ wǎn ya?</text>

<text 
x="209" 
y="559" 
dx="0,0.2,0.2,0.2,0.2,0.2,0.2,0.2,0.2,0.2,0.2,0.2,0.2,0.2,0.2,0.2,0.2,0.2,0.2,0.2,0.2,0.2,0.2,0.2,0.2,0.2,0.2,0.2,0.2,0.2,0.2,0.2,0.2,0.2,0.2,0.2,0.2,0.2,0.2,0.2,0.2,0.2,0.2,0.2,0.2,0.2,0.2,0.2,0.2,0.2,0.2,0.2" 
class="s2_172"
>Hā ha, yīnwèi wǒ xǐ wǎn bǐ nǐ jiùmā xǐ de gānjìng a.</text>

<text 
x="209" 
y="595" 
dx="0,0.2,0.2,0.2,0.2,0.2,0.2,0.2,0.2,0.2,0.2,0.2,0.2,0.2,0.2,0.2,0.2,0.2,0.2,0.2,0.2,0.2,0.2,0.2,0.2,0.2,0.2" 
class="s2_172"
>Wǒ lái xǐ ba! Wǒ xǐ wǎn yě </text>

<text 
x="365" 
y="595" 
dx="0,0.2,0.2" 
class="s8_172"
>shì</text>

<text 
x="386" 
y="595" 
dx="0,0.2,0.2,0.2,0.2,0.2,0.2,0.2,0.2,0.2,0.2,0.2,0.2,0.2,0.2,0.2,0.2,0.2" 
class="s2_172"
>xǐ de hěn gānjìng </text>

<text 
x="490" 
y="595" 
dx="0,0.2" 
class="s9_172"
>de</text>

<text 
x="504" 
y="586" 
dx="0" 
class="s10_172"
>1</text>

<text 
x="508" 
y="595" 
dx="0" 
class="s2_172"
>.</text>

<text 
x="209" 
y="631" 
dx="0,0.2,0.2,0.2,0.2,0.2,0.2,0.2,0.2,0.2,0.2,0.2,0.2,0.2,0.2,0.2,0.2,0.2,0.2,0.2,0.2,0.2,0.2,0.2,0.2,0.2,0.2,0.2,0.2,0.2,0.2,0.2,0.2,0.2,0.2,0.2,0.2,0.2,0.2,0.2,0.2,0.2,0.2,0.2,0.2,0.2,0.2,0.2,0.2,0.2,0.2,0.2,0.2,0.2,0.2,0.2,0.2,0.2,0.2,0.2,0.2,0.2,0.2,0.2,0.2,0.2,0.2,0.2,0.2,0.2,0.2,0.2,0.2,0.2,0.2,0.2,0.2,0.2,0.2,0.2,0.2,0.2,0.2,0" 
class="s2_172"
>Bié, bié, bié, nǐmen cóng Yúnnán lǚyóu huí lai, jiù máng zhe zhǎo gōngzuò, miànshì, </text>

<text 
x="209" 
y="655" 
dx="0,0.2,0.2,0.2,0.2,0.2,0.2,0.2,0.2,0.2,0.2,0.2,0.2,0.2" 
class="s2_172"
>hái méi xiūxi </text>

<text 
x="289" 
y="655" 
dx="0,0.2,0.2,0.2,0.2,0.2,0.2" 
class="s9_172"
>guo lai</text>

<text 
x="329" 
y="646" 
dx="0" 
class="s10_172"
>2</text>

<text 
x="337" 
y="655" 
dx="0,0.2,0.2,0.2,0.2,0.2,0.2,0.2,0.2,0.2,0.2,0.2,0.2,0.2,0.2,0.2,0.2,0.2,0.2,0.2,0.2,0.2,0.2,0.2,0.2,0.2,0.2,0.2,0.2,0.2,0.2,0.2,0.2,0.2,0.2,0.2,0.2,0.2,0.2,0.2,0.2,0.2,0.2,0.2,0.2,0.2,0.2,0.2,0.2,0.2,0.2,0.2,0.2,0.2,0.2,0.2,0.2,0.2,0.2,0" 
class="s2_172"
>ne. Zàishuō, nǐ jiùjiu ya, zuótiān wǎnshang kàn qiú kàn dào </text>

<text 
x="209" 
y="680" 
dx="0,0.2,0.2,0.2,0.2,0.2,0.2,0.2,0.2,0.2,0.2,0.2,0.2,0.2,0.2,0.2,0.2,0.2,0.2,0.2,0.2,0.2,0.2,0.2,0.2,0.2,0.2,0.2,0.2,0.2,0.2,0.2,0.2,0.2,0.2,0.2,0.2,0.2,0.2,0.2,0.2" 
class="s2_172"
>yèli yī diǎn, jīntiān hái bù děi hǎo hāo </text>

<text 
x="435" 
y="680" 
dx="0,0.2,0.2,0.2,0.2,0.2,0.2,0.2,0.2" 
class="s5_172"
>biǎoxian </text>

<text 
x="490" 
y="680" 
dx="0,0.2,0.2,0.2,0.2,0.2,0.2,0.2,0.2" 
class="s2_172"
>biǎoxian?</text>

<text 
x="209" 
y="715" 
dx="0,0.2,0.2,0.2,0.2,0.2,0.2,0.2,0.2,0.2,0.2,0.2,0.2,0.2,0.2,0.2,0.2,0.2,0.2,0.2,0.2,0.2,0.2,0.2,0.2,0.2,0.2,0.2,0.2,0.2,0.2,0.2,0.2,0.2,0.2,0.2,0.2,0.2,0.2,0.2,0.2,0.2,0.2,0.2" 
class="s2_172"
>Jiùjiu, zuótiān wǎnshang shì shénme bǐsài a?</text>

<text 
x="209" 
y="751" 
dx="0,0.2,0.2,0.2,0.2,0.2,0.2,0.2,0.2,0.2,0.2,0.2,0.2,0.2,0.2,0.2,0.2,0.2,0.2,0.2,0.2,0.2,0.2,0.2,0.2,0.2,0.2,0.2,0.2,0.2,0.2,0.2,0.2,0.2,0.2,0.2,0.2,0.2,0.2,0.2,0.2,0.2,0.2,0.2,0.2,0.2" 
class="s2_172"
>Nánzǐ zúqiú sài, Běijīng duì duì Shànghǎi duì.</text>

<text 
x="209" 
y="787" 
dx="0,0.2,0.2,0.2,0.2,0.2,0.2,0.2,0.2,0.2,0.2,0.2,0.2,0.2,0.2,0.2,0.2,0.2,0.2,0.2,0.2,0.2,0.2,0.2,0.2,0.2,0.2,0.2,0.2,0.2,0.2,0.2,0.2,0.2,0.2,0.2,0.2,0.2,0.2,0.2,0.2,0.2,0.2,0.2,0.2,0.2,0.2,0.2,0.2,0.2,0.2,0.2,0.2,0.2,0.2,0.2,0.2,0.2,0.2,0.2,0.2,0.2,0.2,0.2,0.2,0.2,0.2,0.2,0.2,0.2,0.2,0.2,0.2,0.2,0" 
class="s2_172"
>Nà yǒu shénme hǎokàn de? Wǒ zuì tǎoyàn nà xiē nán zú duìyuán le, píngcháng </text>

<text 
x="209" 
y="812" 
dx="0,0.2,0.2,0.2,0.2,0.2,0.2,0.2,0.2,0.2,0.2,0.2,0.2,0.2,0.2,0.2,0.2,0.2,0.2,0.2,0.2,0.2,0.2,0.2,0.2,0.2,0.2,0.2,0.2,0.2,0.2,0.2,0.2,0.2,0.2,0.2,0.2,0.2,0.2,0.2,0.2,0.2,0.2,0.2,0.2,0.2,0.2,0.2,0.2,0.2,0.2,0.2,0.2,0.2,0.2,0.2,0.2,0.2,0.2,0.2,0.2,0.2,0.2,0.2,0.2,0.2,0.2,0.2,0.2,0.2,0.2,0.2,0.2,0" 
class="s2_172"
>jiāo’ào de bùdéliǎo, kěshì bǐsài de shíhou lǎo shū qiú. Suǒyǐ, wǒ zhǐ kàn </text>

<text 
x="209" 
y="836" 
dx="0,0.2,0.2,0.2,0.2,0.2,0.2,0.2,0.2,0.2,0.2,0.2,0.2,0.2,0.2,0.2,0.2,0.2,0.2,0.2,0.2,0.2,0.2,0.2,0.2,0.2,0.2,0.2,0.2,0.2,0.2,0.2,0.2,0.2,0.2,0.2,0.2,0.2,0.2,0.2,0.2,0.2,0.2,0.2" 
class="s2_172"
>Zhōngguó nǚ zú, tāmen bǐ nán zú bàng duō le.</text>

<text 
x="209" 
y="872" 
dx="0,0.2,0.2,0.2,0.2,0.2,0.2,0.2,0.2,0.2,0.2,0.2,0.2,0.2,0.2,0.2,0.2,0.2,0.2,0.2,0.2,0.2,0.2,0.2,0.2,0.2,0.2,0.2,0.2,0.2,0.2,0.2,0.2,0.2,0.2,0.2,0.2,0.2,0.2,0.2,0.2,0.2,0.2,0.2,0.2,0.2,0.2,0.2,0.2,0.2,0.2,0.2,0.2,0.2,0.2,0.2,0.2,0.2,0.2,0.2,0.2,0.2,0.2,0.2,0.2,0.2,0.2,0.2,0.2,0.2,0.2,0.2,0.2,0.2,0.2,0.2,0.2,0.2,0.2,0.2,0" 
class="s2_172"
>Búcuò, nǚ zú shì bǐ nán zú chéngjì hǎo, kěshì wǒ tīngshuō nǚ zú duìyuán zhèng de </text>

<text 
x="209" 
y="896" 
dx="0,0.2,0.2,0.2,0.2,0.2,0.2,0.2,0.2,0.2,0.2,0.2,0.2,0.2,0.2,0.2,0.2,0.2,0.2,0.2,0.2,0.2,0.2" 
class="s2_172"
>qián zhǐ yǒu nán zú de </text>

<text 
x="344" 
y="896" 
dx="0,0.2,0.2,0.2,0.2,0.2,0.2,0.2,0.2,0.2,0.2,0.2,0.2,0.2" 
class="s6_172"
>shí fēn zhī yī</text>

<text 
x="419" 
y="887" 
dx="0" 
class="s4_172"
>c</text>

<text 
x="424" 
y="896" 
dx="0,0.2,0.2,0.2,0.2,0.2,0.2,0.2,0.2,0.2,0.2,0.2,0.2,0.2,0.2,0.2,0.2,0.2,0.2" 
class="s2_172"
>, zhēn bù gōngpíng.</text>

<text 
x="209" 
y="932" 
dx="0,0.2,0.2,0.2,0.2,0.2,0.2,0.2,0.2,0.2,0.2,0.2,0.2,0.2,0.2,0.2,0.2,0.2,0.2,0.2,0.2,0.2,0.2,0.2,0.2,0.2,0.2,0.2,0.2,0.2,0.2,0.2,0.2" 
class="s2_172"
>Bié wàng le, tāmen de shōurù shì </text>

<text 
x="405" 
y="932" 
dx="0,0.2,0.2" 
class="s7_172"
>yóu</text>

<text 
x="430" 
y="932" 
dx="0,0.2,0.2,0.2,0.2,0.2,0.2,0.2,0.2,0.2,0.2,0.2,0.2,0.2,0.2,0.2,0.2,0.2,0.2,0.2,0.2,0.2,0.2,0.2,0.2,0.2,0.2,0.2,0.2,0.2,0.2,0.2,0.2,0.2,0.2,0.2,0.2,0.2,0.2,0.2,0.2,0.2,0.2,0.2,0" 
class="s2_172"
>shìchǎng lái juédìng de. Měiguó zhíyè nǚ lán </text>

<text 
x="209" 
y="957" 
dx="0,0.2,0.2,0.2,0.2,0.2,0.2,0.2,0.2,0.2,0.2,0.2,0.2,0.2,0.2,0.2,0.2,0.2,0.2,0.2,0.2,0.2,0.2,0.2,0.2,0.2,0.2,0.2,0.2,0.2,0.2,0.2,0.2,0.2,0.2,0.2,0.2,0.2,0.2,0.2,0.2,0.2,0.2,0.2,0.2,0.2,0.2,0.2,0.2,0.2,0.2,0.2,0.2,0.2,0.2,0.2" 
class="s2_172"
>duìyuán de xīnshuǐ gēn zhíyè nán lán bǐ, yě shǎo duō le.</text>

<path d="M191.3,517.1c0,0,0.2,-0.4,-0.3,-0.6c-0.5,-0.3,-1.1,-0.5,-2.4,-0.5c-1.3,0.1,-1.5,0.4,-1.5,0.4c0,0,0.8,-0.1,1.2,0c0.5,0,1,0,1.6,0.3c0.6,0.3,1.1,0.6,1.4,0.4Z" class="g4_172" />
<path d="M196.1,517.1c0,0,-0.9,-0.2,-1.3,-0.1c-0.3,0.1,-0.6,0.2,-0.5,0.4c0.2,0.2,0.6,0.3,1.3,0.3c0.7,0,0.7,0,0.8,0.1c0.1,0,-0.3,-0.7,-0.3,-0.7Z" class="g4_172" />
<path d="M189.4,518.1c-0.1,0,-0.1,-0.1,-0.1,-0.1c0,-0.1,0,-0.2,0.1,-0.2c0.1,0,0.1,0.1,0.1,0.2c0,0,0,0.1,-0.1,0.1m0.4,-0.5c-1,-0.4,-2,0.2,-2,0.2l0.5,0.2c0,0,0.1,-0.2,0.3,-0.2c0.3,-0.1,0.4,-0.1,0.4,-0.1c0,0,-0.2,0.6,0.3,0.7c0.5,0.2,0.7,0,0.8,-0.1c0,-0.2,0,-0.3,0,-0.3c0,0,0.3,0,0.7,0.7c0,0,0,-0.6,-1,-1.1Z" class="g4_172" />
<path d="M195.5,519c-0.1,0,-0.2,0,-0.2,-0.1c0,-0.1,0.1,-0.1,0.2,-0.1c0.1,0,0.1,0,0.1,0.1c0,0.1,0,0.1,-0.1,0.1m0.8,-0.3c0,0,-0.4,-0.2,-0.9,-0.1c-0.5,0,-1.1,0.7,-1.1,0.7l0.4,-0.1c0,0,0,-0.2,0.4,-0.4c0,0.2,-0.1,0.4,0.4,0.5c0.4,0.2,0.6,0,0.6,-0.1c0.1,-0.2,0,-0.4,0,-0.4Z" class="g4_172" />
<path d="M193.7,518.3c-0.1,0,-0.8,1.1,-0.9,1.8c-0.1,0.7,-0.2,1.5,0,1.7c0.1,0.3,0.3,0.8,0.3,0.9c0,0.1,0.3,0,0.4,-0.1c0,-0.1,0.1,-0.6,0.2,-0.5c0.1,0,0.3,0.4,0.3,0.5c-0.1,0.2,0,0.6,-0.2,0.6c-0.2,0.1,-0.3,-0.1,-0.6,0c-0.3,0,-0.3,0.1,-0.6,0.2c-0.2,0.1,-0.6,0.2,-0.8,0.1c-0.2,-0.1,-0.4,-0.5,-0.7,-0.6c-0.3,-0.1,-0.5,0,-0.5,0c0,0,0.3,0,0.6,0.2c0.2,0.2,0.6,0.5,0.9,0.5c0.3,0,0.8,-0.2,1.2,-0.2c0,0,0.2,0,0.5,0c0.2,0,0.5,-0.5,0.3,-1.1c-0.2,-0.5,-0.3,-0.4,-0.5,-0.8c-0.2,-0.3,-0.3,-1.1,-0.3,-1.7c0,-0.5,0.4,-1.5,0.4,-1.5Z" class="g4_172" />
<path d="M189.7,522.1c-0.1,0.1,-1.1,0.7,-1.5,1c-0.4,0.3,-0.6,0.4,-0.5,0.8c0.1,0.3,0.3,0.9,0.3,0.9c0,0,-0.6,-1.1,-0.6,-1.3c0,-0.2,2.3,-1.4,2.3,-1.4Z" class="g4_172" />
<path d="M191.9,525.8c-1.1,0,-1.3,-0.4,-1.6,-0.6c-0.3,-0.2,-1,-0.8,-1,-0.8c0,0,2.2,0.6,2.5,0.6c0.2,0,0.8,0,1.3,0.1c0.6,0,0.7,0.1,0.7,0.1c0,0,-0.9,0.7,-1.9,0.6m2.5,-0.9c-0.1,0,-0.5,0,-1,-0.1c-0.6,-0.1,-0.9,-0.3,-1.1,-0.3c-0.2,0,-0.4,0,-0.7,0c-0.3,0,-0.7,-0.2,-0.9,-0.2c-0.2,0,-1.1,-0.1,-1.4,-0.2c-0.3,0,-0.8,-0.4,-0.9,-0.3c0,0,0.7,1.4,1.2,1.8c0.5,0.3,1.1,0.7,1.1,0.7c0,0,-0.2,-0.1,-0.4,-0.3c-0.1,-0.2,0.4,0,0.3,-0.1c-0.1,-0.1,-0.5,-0.2,-0.7,-0.3c-0.1,-0.1,0.3,-0.2,0.6,0c0.2,0.2,0.3,0.2,0.5,0.3c0.2,0.1,0.1,0.2,0.2,0.4c0,0.1,-0.4,0.2,0,0.2c0.4,0,1.4,0,1.9,-0.2c0.6,-0.2,0.8,-0.5,1,-0.9c0.2,-0.4,0.4,-0.6,0.3,-0.5Z" class="g4_172" />
<path d="M190.6,529c0,0,0.5,0.3,1.4,0.1c1,-0.3,3.3,-2.2,3.3,-2.2c0,0,0,0.1,0,0.5c0,0.4,-0.3,0.3,-0.1,1.2c0.1,0.9,0.3,1.3,0.3,1.6c0.1,0.2,0.1,0.3,-0.1,0.5c-0.1,0.1,0.1,-0.7,-0.2,-1.1c-0.3,-0.5,-0.2,-0.6,-0.7,-0.7c-0.5,-0.1,-0.6,-0.2,-1,0.1c-0.3,0.2,0.1,0.2,-0.9,0.3c-0.9,0.2,-1.9,-0.1,-2,-0.3Z" class="g4_172" />
<g clip-path="url(#c0_172)">
<path d="M179.3,532.3c-0.1,0.2,0.5,-0.7,0.6,-0.5c0.2,0.2,0.1,0,0.5,1.4c0.4,1.4,1.7,5.1,5.9,5.3c4.2,0.1,7.8,-1.4,7.8,-1.4c0,0,-5.7,1.8,-8.8,0.8c-3.1,-1.1,-3.4,-2.4,-3.8,-3.2c-0.4,-0.8,-0.6,-1.5,-1,-2.1c-0.3,-0.6,-0.6,-1.7,-1.2,-0.3Z" class="g4_172" />
<path d="M202.4,530.8c0.2,0,0.5,0.2,0.5,0.3c0,0,-0.6,0.3,-1,0.6c-0.4,0.4,-1.6,2.1,-2.6,3c-1,0.9,-1.9,2.2,-4,3.2c-2.1,0.9,-3.7,1.2,-3.8,1.2c-0.1,0,4.6,-1.6,6.5,-3.5c1.9,-1.9,2.5,-2.9,3.1,-3.4c0.5,-0.6,1.3,-1.4,1.3,-1.4Z" class="g4_172" />
<path d="M178.3,532.2c-0.5,0.2,-0.4,0.3,-1,0.5c-0.7,0.2,-2.7,2.4,-3,5.2c-0.3,2.8,0.7,-0.9,1,-0.6c0.4,0.3,0.8,0.4,1,1c0.3,0.6,1.7,1.6,1.6,0.8c-0.2,-0.7,-0.9,-1.9,-0.1,-2.5c0.7,-0.6,0.5,-1.9,1,-2.1c0.6,-0.2,1.1,0.5,1.4,1.2c0.2,0.7,1.1,1.4,1.1,1.3c-0.1,-0.1,-1.4,-2.6,-1.5,-3.3c-0.2,-0.8,-0.4,-1,-0.7,-1.2c-0.3,-0.1,-0.8,-0.3,-0.8,-0.3Z" class="g4_172" />
<path d="M202.4,535.6c-1,1.5,-1.3,3.9,-1.3,3.9c0,0,0.9,-3,1.7,-3.9c0.8,-1,1.8,-2.2,2.5,-2.4c0.8,-0.2,1.3,-0.3,1.7,0.5c0.4,0.7,1,2.3,1,2.6c0,0.3,0,-0.3,0.2,-0.6c0.2,-0.2,0.1,-0.3,-0.2,-0.9c-0.3,-0.6,-0.8,-2.3,-2.5,-2.7c-1.6,-0.4,-2,-0.5,-2.4,-0.3c-0.4,0.1,-1.5,1,-2.7,2.4c-1.1,1.4,1.5,-1.3,2.6,-1.7c1.1,-0.4,2.9,-0.4,2.5,0c-0.3,0.3,-2.1,1.7,-3.1,3.1Z" class="g4_172" />
<path d="M181.6,532.4c0,0,1.4,-0.2,3.9,-2c2.4,-1.8,1.7,-1.3,1.8,-1.8c0,-0.5,-0.1,2.1,-2.5,2.9c-2.4,0.7,-3.2,0.9,-3.2,0.9Z" class="g4_172" />
<path d="M200.7,525.4c-0.1,0,-0.1,-0.1,-0.2,-0.1c-1.2,-0.5,-1,-0.9,-1.7,-1.8c-0.7,-0.9,-1.2,-2.6,-2.1,-5.3c-0.9,-2.6,-1.4,-3.1,-1.4,-3.1c-0.4,-0.8,-2.2,-3.4,-2.1,-3.2c0.1,0.1,3.1,3.5,3.7,6c0.6,2.5,2.3,5.2,3,6.6c0.2,0.4,0.5,0.7,0.8,0.9c1,0.4,1.4,0.5,1.4,0.5c0,0,-0.7,-0.1,-1.4,-0.5m-9.4,-17.1c0.1,0,1.8,0,3.5,1.3c1.7,1.2,2.2,1.3,3.6,3.4c1.4,2.1,-0.1,0.2,-1.9,-1.7c-2.4,-2.4,-5.2,-3,-5.2,-3m2.4,-1.4c0.9,0.2,2.3,0.8,2.7,1.1c0.6,0.4,1.2,1.1,1.8,1.8c0.6,0.7,1.2,1.4,2,3c0.8,1.6,1.8,4.4,2.2,6.4c0.3,1.6,0.7,2.8,0.9,3.2c0,0.1,0.1,0.2,0.1,0.2c0,0,-0.1,-0.1,-0.1,-0.2c-0.3,-0.9,-1.6,-4.5,-1.9,-5.5c-0.3,-1.2,-1.6,-4.5,-2.7,-5.9c-1,-1.4,-1.9,-2.3,-2.9,-2.8C194.7,507.6,192,507,192,507c0.2,-0.2,0.8,-0.2,1.7,-0.1m-6.6,4.4c-0.6,0.5,-1,1,-1.8,2.2c-0.9,1.2,-1.2,6.2,-1.3,6.7c0,0.3,-0.7,2.1,-1.2,3.4c-0.2,0.6,-0.3,1.1,-0.5,1.4c-0.1,0.1,0.2,-0.6,0.5,-1.4c0.1,-0.4,0.2,-0.7,0.3,-1.2c0.3,-1.2,0.5,-3.1,0.5,-3.1c0,0,-0.4,1,-1,1.6c-0.7,0.6,-1.8,1.7,-1.9,1.7c-0.1,0.1,0.5,-0.6,1.1,-1.4c0.6,-0.7,1.8,-2.3,2,-3.4c0.3,-1.1,0.5,-3,0.1,-2.4c-0.2,0.5,-1,1.8,-1.4,2.6c-0.1,0.2,-0.2,0.3,-0.3,0.4c0,0.1,0.1,-0.1,0.3,-0.4c0.2,-0.6,0.7,-1.6,1,-2.5c0.4,-1.1,0.4,-1.9,0.8,-2.8c0.4,-0.9,1,-1,1.5,-1.6c0.5,-0.6,1.1,-0.6,1.2,-0.6c0,0,-0.1,0.4,-0.7,0.8c-0.6,0.4,-0.6,0.5,-0.8,0.8c-0.3,0.4,-0.8,2.1,-0.8,2.1c0,0,0.2,-0.4,0.7,-1.3c0.5,-0.9,1.9,-1.9,1.7,-1.6M181,526.9c-0.3,-1.5,-0.6,-2,-0.5,-2.2c0,-0.2,0.3,-0.5,0.5,-0.6c-0.1,0.1,-0.3,0.3,-0.2,0.8c0,0.7,0.1,1.7,0.6,2.5c0.2,0.4,0.5,0.8,0.9,1.3c-0.4,-0.2,-1.1,-0.7,-1.3,-1.8m20.8,1.3c0.4,-0.2,2,-3.3,1.9,-5.7c0,-2.4,-1.6,-8.5,-2.8,-11c-1.1,-2.4,-3.3,-4.8,-5,-5.4c-1.6,-0.6,-3.5,-0.2,-3.8,-0.2c-0.3,0,-1.6,-0.2,-1.9,-0.1c-0.4,0.1,-1.3,0,-2,0.4c-0.8,0.3,-3.5,2.2,-4.8,5c-1.2,2.7,-1.1,5.5,-1.3,6.3c-0.2,0.7,-1.3,1.9,-1.3,2.9c0,0.9,-0.3,1.3,-0.5,2.1c-0.1,0.7,-0.7,1.9,-0.4,3.2c0.3,1.4,0.5,2.4,1.7,2.8c0.4,0.1,0.6,0.2,0.7,0.3c0.6,0.6,1.2,1.3,1.5,1.4c0.5,0.2,1,0.3,1.7,0.2c0.6,-0.1,1.6,-1,1.7,-1.2c0.2,-0.1,0,-0.6,0.1,-1.1c0,-0.5,-0.2,-2.1,-0.2,-2.1c0,0,-1.4,-1.8,-1.6,-3.3c-0.2,-1.4,-0.2,-7.2,0.5,-8.5c0.7,-1.4,1.1,-2.6,2.3,-3.1c1.3,-0.6,1.4,-1.1,1.4,-1.4c0.1,-0.2,0.1,-0.3,0,-0.4c0.1,0.2,0.2,0.5,0.6,0.7c0.5,0.4,1,0.7,2.3,2.1c1.3,1.3,2.6,3.1,2.9,4.2c0.4,1.1,0.6,1.8,0.9,3.1c0.4,1.2,0.6,3,1.4,4.1c0.2,0.6,-2.1,2.9,-2.1,2.9l0,1.6c0,0.6,0.1,1.1,0.4,1.4c0.2,0.2,0,0.4,-0.2,0.8c-0.2,0.3,-0.3,0.8,-0.2,1.3l0.1,0.5c0,0,0,-0.2,0.8,-0.3c0.8,0,1.8,-0.9,1.8,-0.9c0,0,0.4,0.8,0.9,1.2c0.5,0.3,1.2,0.2,1.2,0.2c0,0,-1.1,-0.6,-1.1,-0.9c0,-0.3,0.7,-0.3,1,-0.1c0.4,0.2,0.6,0.2,1,0.1c0.4,-0.2,0.7,-0.4,0.7,-0.4c0,0,-0.6,-1.1,-0.7,-1.5c0,-0.4,0.1,-0.9,0.4,-1.2Z" class="g4_172" />
</g>
<g clip-path="url(#c1_172)">
<path d="M199.2,551.8c-0.1,0.1,-0.9,-1.1,-0.8,-1.8c0.2,-0.7,0.1,-1.9,0.1,-2.1c-0.1,-0.3,-0.8,-1.8,-1.2,-2.3c-0.4,-0.4,-1.5,-1.8,-1.7,-2.1c0.2,0.2,0.8,0.6,1.4,1.2c0.6,0.5,1.1,1.2,1.3,1.7c0.2,0.4,0.8,2.1,0.8,2.6c0.1,0.8,0,0.8,0,0.8c0,0,-0.3,-0.5,-0.3,0c0,0.5,0.4,1.8,0.4,2m-5.4,-6.6c-0.6,-0.1,-2.1,0.2,-2.1,0.2c0,0,-1.1,0.6,-1.3,0.8c-0.2,0.1,0.7,-1.7,2.1,-1.6c0.3,0,1.4,0,1.8,0.2c0.4,0.2,1.4,0.5,1.7,0.6c0.2,0,-1.5,-0.1,-2.2,-0.2m-2.3,-2.8c0.7,-0.1,1.1,-0.2,1.1,-0.2c0,0,-0.4,0.5,-0.7,0.6c-0.3,0.1,-1.6,0.4,-1.6,0.4c0,0,0.6,-0.7,1.2,-0.8m-4.5,2.1c-0.1,0,-0.8,-0.1,-1.3,0c-0.5,0.1,-0.7,0.2,-1.2,0.4C184,545.1,183,546,183,546c0,0,0.8,-1.1,1,-1.2c0.1,-0.1,0.7,-0.4,0.8,-0.6c0.2,-0.1,0.9,-0.2,1.4,-0.1c0.8,0.1,1.7,0.7,1.7,0.7c0,0,-0.8,-0.3,-0.9,-0.3m-0.5,1.6c-0.4,0.3,-1,0.4,-1.3,0.6c-0.4,0.2,-1.1,0.5,-1.4,0.7c-0.3,0.2,-0.8,1.7,-1.2,3.1c-0.5,1.4,-0.5,0.3,-0.4,0.2c0,-0.2,0.4,-1.2,0.7,-1.8c0.4,-0.6,-0.2,-0.5,-0.5,-0.2c-0.2,0.2,-0.8,1.5,-0.8,1.3c0,-0.1,0.4,-1.1,0.4,-1.1c0,0,0.4,-1.3,0.6,-1.4c0.2,-0.2,0.4,-0.4,0.8,-0.7c0.2,-0.2,1.1,-0.5,1.6,-0.7c0.5,-0.2,1.9,-0.2,1.5,0m13.5,5.5c0,-0.5,-0.4,-4.3,-0.9,-5.1c-0.6,-0.8,-0.4,-1.1,-0.6,-1.4c-0.2,-0.2,-1.1,-0.6,-1.1,-0.6c0,0,-0.1,-0.6,-0.3,-0.8c-0.2,-0.2,-1,-0.9,-1.4,-1.1c-0.5,-0.2,-1.4,-0.7,-2,-0.7c-0.6,-0.1,-1.3,-0.1,-1.5,0c-0.3,0,-1.6,-0.3,-2,-0.2c-0.4,0,-1.7,0.2,-2.3,0.3c-0.5,0.2,-1.7,1,-2.4,1c-0.6,0,-1.6,0.7,-2.2,1.3c-0.6,0.5,-1.5,1.9,-1.8,2.3c-0.2,0.5,-1,1.9,-1.1,3.4c0,1.5,0.2,2.4,0.3,3.1c0.1,0.7,-0.1,1.4,0.4,1.9c0.5,0.5,0.9,1.2,1.3,1.7c0.4,0.6,0.8,2.1,0.8,2.1c0,0,-0.8,-2.8,-0.6,-3.9c0.2,-1,0.1,-1.5,0.2,-1.7c0.1,-0.3,0.1,-2.5,0.3,-2.7c0.1,-0.3,0,-1.6,1.2,-2.4c1.1,-0.8,2.1,-0.9,2.8,-0.9c0.7,0.1,1.8,0.1,2.1,0.1c0.3,0,2,-0.7,2.6,-0.8c0.5,-0.2,1.3,-0.7,2.5,-0.4c1.7,0.4,2.3,1.4,2.6,1.8c0.2,0.3,0.2,1.7,0.4,2.1c0.1,0.5,0.8,1.5,1.2,2.2c0.3,0.8,0.2,1.6,0.2,2.4c0,0.8,0.1,1.9,0.1,1.9c0,0,0.4,-1.1,0.4,-1.2c0,-0.1,0,-1.2,0.2,-1.4c0.1,-0.2,0.7,-1.9,0.6,-2.3Z" class="g5_172" />
</g>
<path d="M188.2,552.5c0,0,-0.6,-0.3,-1.1,-0.3c-0.4,-0.1,-0.7,-0.2,-1.1,-0.1c-0.3,0,-0.9,0.3,-1,0.4c-0.1,0.1,-0.9,1.3,-0.9,1.3c0,0,0.6,-0.7,1.3,-0.8c0.7,-0.1,0.9,-0.2,1.5,-0.1c0.6,0,1.5,-0.1,1.3,-0.4Z" class="g5_172" />
<path d="M191.6,552.1c0,0,0.6,-0.8,1.7,-1c1.1,-0.1,1.6,0.1,2,0.3c0.4,0.2,0.7,0.6,0.7,0.6c0,0,-1.4,-0.4,-1.5,-0.4c-0.2,0,-0.6,0.1,-0.7,0.1c-0.2,0,-0.9,0.1,-1.2,0.3c-0.3,0.1,-0.7,0.7,-1,0.1Z" class="g5_172" />
<path d="M187.2,555.1c0,0.1,-0.1,0.1,-0.2,0c0,-0.1,0,-0.2,0.2,-0.2c0,0,0.1,0.1,0,0.2m0.7,-0.4c-0.3,-0.1,-1,-0.2,-1.4,0c-0.4,0.2,-1.4,1.2,-1.4,1.2c0,0,0.4,-0.3,0.6,-0.3c0.2,0,0.5,0,0.5,0c0,0,-0.1,-0.5,0.2,-0.5c0,0.1,-0.1,0.5,0.7,0.5c0.7,0,0.7,-0.5,0.7,-0.7c0,-0.1,0.3,0.2,0.4,0.4c0,0.1,0.5,0,0.5,0c0,0,-0.4,-0.5,-0.8,-0.6Z" class="g5_172" />
<path d="M193.8,554.1c-0.1,0,-0.3,0,-0.2,-0.2c0,-0.1,0.1,-0.1,0.1,-0.1c0.3,0.1,0.1,0.2,0.1,0.3m2.1,0c0,0,-1.2,-0.7,-2.2,-0.5c-1.1,0.1,-1.3,1.1,-1.3,1.1c0,0,0.3,-0.1,0.3,-0.1c0.1,-0.4,0.4,-0.6,0.4,-0.6c0,0,0,0.3,0.2,0.5c0.1,0.1,0.5,0.1,0.8,0c0.5,-0.1,0.4,-0.5,0.3,-0.7c0.2,0,0.5,0.3,0.5,0.3c0,0,0.3,0,0.4,0c0.1,0,0.7,0.1,0.6,0Z" class="g5_172" />
<path d="M189.4,557.4c0,0,0,0.4,-0.1,0.6c-0.1,0.2,-0.3,0.5,-0.3,0.6c0,0.1,-0.1,0.6,-0.1,0.7c0,0,-0.4,0.5,-0.5,0.6c0,0.1,-0.4,0.8,-0.5,0.9c-0.2,0.2,-0.4,0.3,-0.4,0.3c0,0,0.7,-1,0.8,-1.4c0,-0.3,0.1,-0.6,0.2,-0.9c0.2,-0.4,0.2,-0.7,0.4,-1c0.1,-0.2,0.5,-0.5,0.5,-0.4Z" class="g5_172" />
<path d="M192.5,557c0,0,0.6,0.5,0.9,0.8c0.2,0.3,0.6,1.1,0.9,1.3c0.3,0.2,0.9,1.1,0.9,1.1c0,0,-1.3,-1.2,-1.5,-1.4c-0.2,-0.2,-0.5,-0.2,-0.5,-0.2c0,0,-0.3,-0.8,-0.4,-1.1c-0.2,-0.2,-0.3,-0.5,-0.3,-0.5Z" class="g5_172" />
<path d="M190.8,559.4c0,0,-0.3,-0.4,-0.7,-0.4c-0.4,0,-0.6,0.2,-0.6,0.3c0,0.1,0.1,0.3,0.3,0.3c0.1,0.1,-0.2,0.2,-0.3,0.2c-0.1,0,-0.4,-0.1,-0.4,-0.1c0,0,0.1,0.2,0.5,0.3c0.5,0,1.3,-0.2,1.2,-0.6Z" class="g5_172" />
<path d="M192.7,559.1c0,0,0.1,-0.3,-0.5,-0.4c-0.3,0,-0.8,0.4,-0.8,0.7c0,0.1,0.5,0.2,0.8,0.2c0.3,0,0.9,-0.3,0.9,-0.5c0.1,-0.2,-0.1,0.2,-0.4,0Z" class="g5_172" />
<path d="M183.5,560c0,0,-1.1,-0.9,-1.2,-1.7c0,-0.8,0,-1,0,-1.2c0,-0.1,-0.4,-0.9,-0.5,-0.9c-0.2,0,-0.3,0.4,-0.2,0.6c0,0.3,0.3,1,0.4,1.2c0.1,0.2,0.6,1.2,0.8,1.6c0.2,0.3,0.5,0.8,0.6,0.7c0.1,-0.1,0.1,-0.2,0.1,-0.3Z" class="g5_172" />
<path d="M181.8,558.2c0,0,0.6,1.2,0.8,1.5c0.2,0.2,0.5,0.9,0.6,1c0.1,0.1,0.2,1,0.5,1.1c0.2,0.1,0.5,-0.1,0.6,-0.1c0.1,-0.1,0.2,0.3,0.3,0.6c0.1,0.4,1.3,2,1.4,2.1c0.1,0.2,-1.1,-1.4,-1.2,-2c-0.1,-0.5,-0.4,-1,-0.4,-1c0,0,-0.4,0.3,-0.6,0.2c-0.2,-0.2,-0.4,-0.9,-0.6,-1.2c-0.2,-0.4,-1.4,-2.2,-1.4,-2.2Z" class="g5_172" />
<path d="M188.1,562.1c0.2,0,0.5,0.1,1,-0.1c0.4,-0.1,0.6,-0.5,0.9,-0.5c0.2,0,1.2,0,1.2,0c0,0,0.7,-0.2,0.9,-0.3c0.2,-0.1,0.7,-0.1,1,-0.1c0.3,0,1,0.2,1.3,0.2c0.3,0,-0.1,0.1,-0.2,0.3c-0.1,0.1,-0.3,0.4,-0.5,0.6c-0.2,0.1,0,-0.4,-0.2,-0.4c-0.2,0,-0.8,0,-1,0c-0.3,0,-0.7,0.2,-0.9,0.2c-0.1,0,-0.5,0.1,-0.9,0.1c-0.4,0,-1,0,-1.3,0.1c-0.2,0,-0.1,0.2,0,0.3c0,0,0.1,0.4,1.3,0.4c1.2,0,2.3,-0.2,2.3,-0.2c0,0,-0.6,0.4,-1.4,0.4c-0.7,0.1,-1.4,0.2,-2,0c-0.7,-0.2,-1.5,-1,-1.5,-1Z" class="g5_172" />
<path d="M200.3,554.3c0,0,0.1,-0.8,-0.1,-1c-0.2,-0.2,-0.3,-0.1,-0.3,0c-0.1,0.2,-0.3,0.4,-0.3,0.7c0,0.2,-0.2,0.4,0.1,0.4c0.3,0,0.6,-0.1,0.6,-0.1Z" class="g5_172" />
<path d="M200.1,555.2c0,0,-0.1,1.4,-0.2,1.6c-0.2,0.3,-0.5,0.4,-0.4,0.5c0,0.1,0.2,0.2,0.3,0c0.2,-0.2,0.4,-0.7,0.4,-1c0,-0.2,-0.1,-1.1,-0.1,-1.1Z" class="g5_172" />
<path d="M200.5,553.6c0,-0.1,0.1,1,0.1,1.3c0,0.4,-0.2,2.1,-0.3,2.4c0,0.4,0,1.1,-0.1,1.3c-0.1,0.2,0.1,0.5,-0.4,0.5c-0.4,0.1,-0.7,0,-0.8,-0.1c-0.1,0,-0.3,2.1,-0.3,2.4c-0.1,0.3,0.2,2.6,0.2,2.6c0,0,-0.3,-1,-0.3,-1.4c0,-0.4,-0.2,-0.5,-0.2,-0.5c0,0,-1,1.6,-1,2.2c-0.1,0.6,-1.3,2.2,-1.8,2.6c-0.4,0.3,-1.4,0.8,-2.1,0.8c-0.7,0,-0.4,-0.9,0,-1.2c0.3,-0.2,0.6,-0.3,1.2,-0.8c0.7,-0.4,2.1,-1.7,2.2,-2.2c0,-0.5,0.1,-1.3,0.3,-1.5c0.2,-0.2,0.8,-1.1,1.1,-1.6c0.2,-0.6,-0.4,-2.1,-0.2,-2.9c0.2,-0.7,0.5,-1.1,0.5,-1.1c0,0,0.3,0,0.3,0.6c0.1,0.6,0,1.5,0.1,1.7c0.1,0.1,0.6,0.3,0.8,0.2c0.3,0,0.3,-1.1,0.3,-1.6c0.1,-0.4,0.5,-2.4,0.4,-3.7Z" class="g5_172" />
<g clip-path="url(#c1_172)">
<path d="M186.4,564.9c0,0,1.2,2,1.6,2.5c0.3,0.5,1.7,2.1,2.3,2.4c0.6,0.4,2.1,1.3,2.3,1.4c0.2,0,0.5,0,0.6,0c0.2,0,0.4,0,0.6,-0.1c0.2,-0.2,1.7,-1.3,2,-1.4c0.2,-0.2,1.4,-1.3,1.8,-1.8c0.5,-0.6,1.3,-2.2,1.3,-2.9c-1.6,3.7,-3.8,4.8,-4.6,5.3c-0.8,0.5,-0.9,0.5,-1.7,0.3c-0.8,-0.1,-2.6,-1.3,-3.3,-2c-0.8,-0.8,-2.9,-3.7,-2.9,-3.7Z" class="g5_172" />
<path d="M186.1,564.6c0,0,-1.2,0.3,-1.6,0.5c-0.4,0.2,-2,0.9,-2.8,1.2c-0.7,0.3,-3.2,1.2,-3.7,1.4c-0.5,0.2,-2.3,0.8,-2.6,1c-0.3,0.1,1.1,-0.2,1.7,-0.3c0.5,-0.2,0.9,0,1.4,0.1c0.6,0.1,1.1,0.9,1.4,1.2c0.3,0.3,0.8,1.6,1,1.9c0.2,0.4,0.1,1.8,0.5,1.9c0.4,0.2,0.5,0.7,0.6,0.6c0.1,-0.1,2.2,-0.9,2.3,-1.1c0.1,-0.2,0.2,-0.4,0.2,-0.4c0,0,-1.5,-0.8,-1.5,-0.9c0,-0.1,1.6,-3.4,1.7,-3.8c0.2,-0.3,-0.2,-0.9,-0.1,-1.4c0.1,-0.5,1.1,-0.8,1.3,-1.1c0.2,-0.3,0.2,-0.8,0.2,-0.8Z" class="g5_172" />
<path d="M187.6,568.9c0.1,0,-0.4,0.4,-0.7,0.8c-0.2,0.5,-0.6,1.4,-1.1,1.8c-0.5,0.5,-1.3,1.2,-1.3,1.2c0,0,0.8,-0.4,1.2,-0.7c0.4,-0.4,0.8,-1.1,1.1,-1.6c0.3,-0.5,0.7,-1.4,0.8,-1.5Z" class="g5_172" />
<path d="M199.2,562.7c0,0,1.1,1.2,1.6,1.5c0.6,0.3,0.8,0.3,1.4,0.4c0.6,0,4.2,1,4.8,1.4c0.6,0.4,-0.5,0,-1.2,0c-0.7,0,-1.7,-0.2,-2.2,-0.2c-0.5,0,0,0.4,0.1,1.5c0,1,0.8,3.3,0.8,3.3c0,0,-1.5,1.2,-1.4,1.4c0,0.1,1.8,1.2,1.8,1.8c-0.1,0.3,-0.2,0.7,-0.2,0.7l-0.5,-0.8l-2,-1.9c0,0,2.1,-1.2,2,-1.3c-0.1,-0.1,-1.1,-3.1,-2.2,-3.9c-1.1,-0.8,-0.6,-0.3,-1,-0.2c-0.5,0.1,-0.9,1.3,-1.1,1.6c-0.2,0.2,-1.7,1.2,-1.6,1.1c0,-0.1,1.4,-3.2,1,-4.2c-0.4,-1,-0.5,-2.2,-0.5,-2.2Z" class="g5_172" />
</g>
<path d="M191.3,588.9c0,0,0.2,-0.4,-0.3,-0.6c-0.5,-0.3,-1.1,-0.5,-2.4,-0.5c-1.3,0.1,-1.5,0.4,-1.5,0.4c0,0,0.8,-0.1,1.2,0c0.5,0,1,0,1.6,0.3c0.6,0.3,1.1,0.6,1.4,0.4Z" class="g4_172" />
<path d="M196.1,588.9c0,0,-0.9,-0.2,-1.3,-0.1c-0.3,0.1,-0.6,0.3,-0.5,0.4c0.2,0.2,0.6,0.3,1.3,0.3c0.7,0,0.7,0,0.8,0.1c0.1,0,-0.3,-0.7,-0.3,-0.7Z" class="g4_172" />
<path d="M189.4,589.9c-0.1,0,-0.1,-0.1,-0.1,-0.1c0,-0.1,0,-0.2,0.1,-0.2c0.1,0,0.1,0.1,0.1,0.2c0,0,0,0.1,-0.1,0.1m0.4,-0.5c-1,-0.4,-2,0.2,-2,0.2l0.5,0.2c0,0,0.1,-0.2,0.3,-0.2c0.3,-0.1,0.4,-0.1,0.4,-0.1c0,0,-0.2,0.6,0.3,0.7c0.5,0.2,0.7,0.1,0.8,-0.1c0,-0.2,0,-0.3,0,-0.3c0,0,0.3,0,0.7,0.7c0,0,0,-0.6,-1,-1.1Z" class="g4_172" />
<path d="M195.5,590.8c-0.1,0,-0.2,0,-0.2,-0.1c0,-0.1,0.1,-0.1,0.2,-0.1c0.1,0,0.1,0,0.1,0.1c0,0.1,0,0.1,-0.1,0.1m0.8,-0.3c0,0,-0.4,-0.2,-0.9,-0.1c-0.5,0,-1.1,0.7,-1.1,0.7l0.4,-0.1c0,0,0,-0.2,0.4,-0.4c0,0.2,-0.1,0.4,0.4,0.5c0.4,0.2,0.6,0,0.6,-0.1c0.1,-0.1,0,-0.4,0,-0.4Z" class="g4_172" />
<path d="M193.7,590.1c-0.1,0,-0.8,1.1,-0.9,1.8c-0.1,0.7,-0.2,1.5,0,1.8c0.1,0.2,0.3,0.7,0.3,0.8c0,0.1,0.3,0,0.4,-0.1c0,-0.1,0.1,-0.6,0.2,-0.5c0.1,0,0.3,0.4,0.3,0.5c-0.1,0.2,0,0.6,-0.2,0.6c-0.2,0.1,-0.3,-0.1,-0.6,0c-0.3,0,-0.3,0.1,-0.6,0.2c-0.2,0.1,-0.6,0.2,-0.8,0.1c-0.2,-0.1,-0.4,-0.5,-0.7,-0.6c-0.3,-0.1,-0.5,0,-0.5,0c0,0,0.3,0,0.6,0.2c0.2,0.2,0.6,0.6,0.9,0.6c0.3,0,0.8,-0.3,1.2,-0.3c0,0,0.2,0,0.5,0c0.2,0,0.5,-0.5,0.3,-1.1c-0.2,-0.5,-0.3,-0.4,-0.5,-0.8c-0.2,-0.3,-0.3,-1.1,-0.3,-1.7c0,-0.5,0.4,-1.5,0.4,-1.5Z" class="g4_172" />
<path d="M189.7,593.9c-0.1,0.1,-1.1,0.7,-1.5,1c-0.4,0.3,-0.6,0.4,-0.5,0.8c0.1,0.3,0.3,0.9,0.3,0.9c0,0,-0.6,-1.1,-0.6,-1.3c0,-0.2,2.3,-1.4,2.3,-1.4Z" class="g4_172" />
<path d="M191.9,597.6c-1.1,0,-1.3,-0.4,-1.6,-0.6c-0.3,-0.2,-1,-0.8,-1,-0.8c0,0,2.2,0.6,2.5,0.6c0.2,0,0.8,0,1.3,0.1c0.6,0,0.7,0.1,0.7,0.1c0,0,-0.9,0.7,-1.9,0.6m2.5,-0.9c-0.1,0,-0.5,0,-1,-0.1c-0.6,-0.1,-0.9,-0.3,-1.1,-0.3c-0.2,0,-0.4,0,-0.7,0c-0.3,0,-0.7,-0.2,-0.9,-0.2c-0.2,0,-1.1,-0.1,-1.4,-0.1c-0.3,-0.1,-0.8,-0.5,-0.9,-0.4c0,0,0.7,1.4,1.2,1.8c0.5,0.3,1.1,0.7,1.1,0.7c0,0,-0.2,-0.1,-0.4,-0.3c-0.1,-0.2,0.4,0,0.3,-0.1c-0.1,-0.1,-0.5,-0.2,-0.7,-0.3c-0.1,-0.1,0.3,-0.2,0.6,0c0.2,0.2,0.3,0.2,0.5,0.3c0.2,0.1,0.1,0.2,0.2,0.4c0,0.1,-0.4,0.2,0,0.2c0.4,0,1.4,0,1.9,-0.2c0.6,-0.2,0.8,-0.5,1,-0.9c0.2,-0.4,0.4,-0.6,0.3,-0.5Z" class="g4_172" />
<path d="M190.6,600.8c0,0,0.5,0.3,1.4,0.1c1,-0.3,3.3,-2.2,3.3,-2.2c0,0,0,0.1,0,0.5c0,0.4,-0.3,0.3,-0.1,1.2c0.1,0.9,0.3,1.4,0.3,1.6c0.1,0.2,0.1,0.4,-0.1,0.5c-0.1,0.1,0.1,-0.7,-0.2,-1.1c-0.3,-0.5,-0.2,-0.6,-0.7,-0.7c-0.5,-0.1,-0.6,-0.2,-1,0.1c-0.3,0.2,0.1,0.2,-0.9,0.4c-0.9,0.1,-1.9,-0.2,-2,-0.4Z" class="g4_172" />
<g clip-path="url(#c2_172)">
<path d="M179.3,604.1c-0.1,0.2,0.5,-0.7,0.6,-0.5c0.2,0.2,0.1,0,0.5,1.4c0.4,1.4,1.7,5.1,5.9,5.3c4.2,0.2,7.8,-1.4,7.8,-1.4c0,0,-5.7,1.8,-8.8,0.8c-3.1,-1,-3.4,-2.4,-3.8,-3.2c-0.4,-0.8,-0.6,-1.5,-1,-2.1c-0.3,-0.6,-0.6,-1.7,-1.2,-0.3Z" class="g4_172" />
<path d="M202.4,602.6c0.2,0,0.5,0.2,0.5,0.4c0,0,-0.6,0.2,-1,0.5c-0.4,0.4,-1.6,2.1,-2.6,3c-1,0.9,-1.9,2.2,-4,3.2c-2.1,0.9,-3.7,1.2,-3.8,1.2c-0.1,0,4.6,-1.6,6.5,-3.5c1.9,-1.9,2.5,-2.9,3.1,-3.4c0.5,-0.6,1.3,-1.4,1.3,-1.4Z" class="g4_172" />
<path d="M178.3,604c-0.5,0.2,-0.4,0.3,-1,0.5c-0.7,0.2,-2.7,2.4,-3,5.2c-0.3,2.8,0.7,-0.9,1,-0.6c0.4,0.3,0.8,0.4,1,1c0.3,0.6,1.7,1.6,1.6,0.8c-0.2,-0.7,-0.9,-1.9,-0.1,-2.5c0.7,-0.6,0.5,-1.9,1,-2.1c0.6,-0.2,1.1,0.5,1.4,1.2c0.2,0.7,1.1,1.4,1.1,1.3c-0.1,-0.1,-1.4,-2.6,-1.5,-3.3c-0.2,-0.8,-0.4,-1,-0.7,-1.2c-0.3,-0.1,-0.8,-0.3,-0.8,-0.3Z" class="g4_172" />
<path d="M202.4,607.4c-1,1.5,-1.3,3.9,-1.3,3.9c0,0,0.9,-3,1.7,-3.9c0.8,-1,1.8,-2.2,2.5,-2.4c0.8,-0.2,1.3,-0.3,1.7,0.5c0.4,0.7,1,2.3,1,2.6c0,0.3,0,-0.3,0.2,-0.6c0.2,-0.2,0.1,-0.3,-0.2,-0.9c-0.3,-0.6,-0.8,-2.3,-2.5,-2.7c-1.6,-0.3,-2,-0.4,-2.4,-0.3c-0.4,0.1,-1.5,1.1,-2.7,2.4c-1.1,1.4,1.5,-1.3,2.6,-1.7c1.1,-0.4,2.9,-0.4,2.5,0c-0.3,0.3,-2.1,1.7,-3.1,3.1Z" class="g4_172" />
<path d="M181.6,604.2c0,0,1.4,-0.2,3.9,-2c2.4,-1.8,1.7,-1.3,1.8,-1.8c0,-0.5,-0.1,2.1,-2.5,2.9c-2.4,0.8,-3.2,0.9,-3.2,0.9Z" class="g4_172" />
<path d="M200.7,597.2c-0.1,0,-0.1,-0.1,-0.2,-0.1c-1.2,-0.5,-1,-0.9,-1.7,-1.8c-0.7,-0.9,-1.2,-2.6,-2.1,-5.3c-0.9,-2.6,-1.4,-3.1,-1.4,-3.1c-0.4,-0.7,-2.2,-3.4,-2.1,-3.2c0.1,0.2,3.1,3.5,3.7,6c0.6,2.5,2.3,5.2,3,6.6c0.2,0.4,0.5,0.7,0.8,0.9c1,0.4,1.4,0.5,1.4,0.5c0,0,-0.7,0,-1.4,-0.5m-9.4,-17.1c0.1,0,1.8,0,3.5,1.3c1.7,1.2,2.2,1.3,3.6,3.4c1.4,2.1,-0.1,0.2,-1.9,-1.7c-2.4,-2.4,-5.2,-3,-5.2,-3m2.4,-1.4c0.9,0.2,2.3,0.8,2.7,1.1c0.6,0.4,1.2,1.1,1.8,1.8c0.6,0.7,1.2,1.4,2,3c0.8,1.6,1.8,4.4,2.2,6.4c0.3,1.6,0.7,2.8,0.9,3.2c0,0.1,0.1,0.2,0.1,0.2c0,0,-0.1,-0.1,-0.1,-0.2c-0.3,-0.9,-1.6,-4.5,-1.9,-5.5c-0.3,-1.2,-1.6,-4.5,-2.7,-5.9c-1,-1.4,-1.9,-2.3,-2.9,-2.8c-1.1,-0.6,-3.8,-1.2,-3.8,-1.2c0.2,-0.2,0.8,-0.2,1.7,-0.1m-6.6,4.4c-0.6,0.5,-1,1,-1.8,2.2c-0.9,1.2,-1.2,6.2,-1.3,6.7c0,0.3,-0.7,2.1,-1.2,3.4c-0.2,0.6,-0.3,1.1,-0.5,1.4c-0.1,0.1,0.2,-0.6,0.5,-1.4c0.1,-0.4,0.2,-0.7,0.3,-1.1c0.3,-1.3,0.5,-3.2,0.5,-3.2c0,0,-0.4,1,-1,1.6c-0.7,0.6,-1.8,1.7,-1.9,1.7c-0.1,0.1,0.5,-0.6,1.1,-1.3c0.6,-0.8,1.8,-2.4,2,-3.5c0.3,-1,0.5,-3,0.1,-2.4c-0.2,0.5,-1,1.8,-1.4,2.6c-0.1,0.2,-0.2,0.3,-0.3,0.4c0,0.1,0.1,-0.1,0.3,-0.4c0.2,-0.6,0.7,-1.6,1,-2.4c0.4,-1.1,0.4,-2,0.8,-2.9c0.4,-0.9,1,-1,1.5,-1.6c0.5,-0.6,1.1,-0.6,1.2,-0.6c0,0,-0.1,0.5,-0.7,0.8c-0.6,0.4,-0.6,0.5,-0.8,0.9c-0.3,0.3,-0.8,2,-0.8,2c0,0,0.2,-0.4,0.7,-1.3c0.5,-0.9,1.9,-1.9,1.7,-1.6M181,598.7c-0.3,-1.5,-0.6,-2,-0.5,-2.2c0,-0.2,0.3,-0.5,0.5,-0.6c-0.1,0.1,-0.3,0.3,-0.2,0.8c0,0.7,0.1,1.7,0.6,2.5c0.2,0.4,0.5,0.8,0.9,1.3c-0.4,-0.2,-1.1,-0.7,-1.3,-1.8m20.8,1.3c0.4,-0.2,2,-3.3,1.9,-5.7c0,-2.3,-1.6,-8.5,-2.8,-11c-1.1,-2.4,-3.3,-4.8,-5,-5.4c-1.6,-0.6,-3.5,-0.2,-3.8,-0.2c-0.3,0,-1.6,-0.2,-1.9,-0.1c-0.4,0.1,-1.3,0,-2,0.4c-0.8,0.3,-3.5,2.2,-4.8,5c-1.2,2.7,-1.1,5.6,-1.3,6.3c-0.2,0.7,-1.3,1.9,-1.3,2.9c0,1,-0.3,1.3,-0.5,2.1c-0.1,0.7,-0.7,1.9,-0.4,3.2c0.3,1.4,0.5,2.4,1.7,2.8c0.4,0.1,0.6,0.2,0.7,0.3c0.6,0.6,1.2,1.3,1.5,1.4c0.5,0.2,1,0.3,1.7,0.2c0.6,-0.1,1.6,-1,1.7,-1.2c0.2,-0.1,0,-0.6,0.1,-1.1c0,-0.5,-0.2,-2.1,-0.2,-2.1c0,0,-1.4,-1.8,-1.6,-3.3c-0.2,-1.4,-0.2,-7.1,0.5,-8.5c0.7,-1.4,1.1,-2.6,2.3,-3.1c1.3,-0.6,1.4,-1.1,1.4,-1.4c0.1,-0.1,0.1,-0.3,0,-0.4c0.1,0.2,0.2,0.5,0.6,0.7c0.5,0.4,1,0.7,2.3,2.1c1.3,1.3,2.6,3.1,2.9,4.2c0.4,1.1,0.6,1.8,0.9,3.1c0.4,1.2,0.6,3,1.4,4.1c0.2,0.6,-2.1,2.9,-2.1,2.9l0,1.6c0,0.6,0.1,1.1,0.4,1.4c0.2,0.2,0,0.4,-0.2,0.8c-0.2,0.3,-0.3,0.8,-0.2,1.3l0.1,0.5c0,0,0,-0.2,0.8,-0.2c0.8,-0.1,1.8,-1,1.8,-1c0,0,0.4,0.9,0.9,1.2c0.5,0.3,1.2,0.2,1.2,0.2c0,0,-1.1,-0.5,-1.1,-0.9c0,-0.3,0.7,-0.3,1,-0.1c0.4,0.2,0.6,0.2,1,0.1c0.4,-0.1,0.7,-0.4,0.7,-0.4c0,0,-0.6,-1.1,-0.7,-1.5c0,-0.4,0.1,-0.9,0.4,-1.2Z" class="g4_172" />
</g>
<path d="M189.4,623.3c0,0,0.1,-0.4,-0.9,-0.6c-0.9,-0.2,-1.4,-0.4,-1.7,-0.4c-0.4,0,-0.9,0.2,-1.2,0.6c-0.3,0.5,-0.5,1,-0.5,1c0,0,0.6,-1.2,1.2,-1.1c0.5,0,1.1,0.4,1.6,0.4c0.5,0.1,1.5,0.1,1.5,0.1Z" class="g6_172" />
<path d="M192.3,623.6c-0.1,-0.2,0.1,-0.5,0.5,-0.6c0.4,-0.2,2.2,-0.6,2.7,-0.5c0.4,0.1,1.4,1,1.4,1c0,0,-0.7,-0.5,-1.2,-0.5c-0.4,0,-1.2,0,-1.8,0.1c-0.6,0.2,-0.7,0.5,-1.1,0.6c-0.2,0.1,-0.5,-0.1,-0.5,-0.1Z" class="g6_172" />
<path d="M189.2,625.1c0,0,-0.4,-0.5,-0.7,-0.7c-0.3,-0.1,-0.6,-0.1,-1.5,-0.1c-0.8,0,-1.2,1,-1.2,1c0,0,-0.2,0.1,-0.5,0.1l-0.3,0c0,0,0.5,0,0.6,0c0.1,0,-0.7,0.1,-0.8,0.1c-0.1,0.1,0.9,0.1,1,0c0.1,0,0.4,-0.2,0.4,-0.3c0,-0.1,0.2,-0.5,0.3,-0.6c0,0,0.3,-0.2,0.9,-0.2c0.6,0,0.8,0.1,1.1,0.2c0.2,0.2,0.7,0.5,0.7,0.5Z" class="g6_172" />
<path d="M187.7,625c-0.1,-0.1,0,-0.2,0,-0.2c0,0,0.1,-0.1,0.2,0c0,0.1,0,0.2,-0.2,0.2m0.5,-0.2c-0.4,-0.2,-0.9,-0.2,-1.1,-0.2c-0.2,0,-0.6,0.2,-0.7,0.3c-0.1,0.2,-0.2,0.3,-0.2,0.3l0.3,0c0,0,0.1,-0.4,0.5,-0.4c0.1,0.4,0,0.6,0.6,0.7c0.5,0,0.6,-0.4,0.6,-0.6c0,-0.1,0.4,0.3,0.4,0.4c0,0.1,-0.1,0.2,-0.1,0.2c0.2,0,0.6,0,0.6,0c0,0,-0.4,-0.6,-0.9,-0.7Z" class="g6_172" />
<path d="M188.4,625.5l0.1,0c-0.1,0,-0.1,0,-0.1,0Z" class="g6_172" />
<g clip-path="url(#c3_172)">
<path d="M197.2,617.7c-0.6,-0.9,-1,-0.8,-1.2,-0.8c-0.3,0,-0.6,-0.2,-0.6,-0.2c0.1,0,0.5,0,0.5,0c0,0,-0.4,-0.2,-0.2,-0.2c0.2,0,0.4,-0.2,0.3,-0.2c-0.2,0,-0.5,-0.1,-0.5,-0.2c0.1,0,-0.1,-0.2,-0.2,-0.2c-0.2,0,-0.6,0.2,-0.6,0.2c0,-0.1,0,-0.3,0.1,-0.3c0.1,-0.1,0.7,-0.3,0.7,-0.3c0,0,-0.1,-0.2,-1.1,0.1c0,0,0.6,-0.8,1.8,-0.7c1.2,0.2,1.6,0.7,1.9,0.8c0.2,0.2,0.7,0.6,0.9,0.8c0.1,0.1,0.1,0.1,0.1,0.1L199,616.5c-0.2,-0.1,-0.8,-0.6,-1.2,-0.7c-0.5,-0.2,-1.7,-0.4,-1.9,-0.4c-0.2,0.1,0.7,0.2,1,0.5c0.4,0.2,1.4,1.9,1.6,2.1c0.1,0.3,0.9,1.7,0.9,1.7c0,0,-0.5,-0.5,-0.9,-1.1c-0.4,-0.5,-1.2,-1.6,-1.3,-1.7c-0.1,-0.1,1.4,2,1.7,2.8c0.4,0.8,1.3,3.3,1.5,4.4c-2.1,-4.8,-2.5,-5.5,-3.2,-6.4m-3.5,-2c-0.1,-0.2,-0.5,-0.8,-0.6,-0.9c0,0,0,0.2,0,0.2c0,0,-0.3,-0.6,-0.7,-1c-0.4,-0.4,-0.6,-0.4,-0.9,-0.6c-0.4,-0.2,-2,-0.3,-2,-0.3c0,0,1.5,-0.1,2.7,0.3c1.1,0.3,1.5,1.9,1.5,1.9c0.1,0.2,0.1,0.5,0,0.4M193,615.3c-0.3,-0.3,-0.3,-0.6,-1.2,-1.6c0.8,0.5,1.6,2.1,1.7,2.2c0,0,-0.3,-0.3,-0.5,-0.6m-0.7,0.8c-0.4,-0.2,-1.1,-0.8,-1.6,-1.2c-0.4,-0.4,-0.8,-0.3,-1.3,-0.4c-0.4,-0.1,-1,0.1,-1.5,0.3c-0.5,0.2,-1.2,0.8,-2,1.4c-0.8,0.5,-1.8,2.1,-1.8,2.1c0,0,1.1,-1.3,1.3,-1.4c0.1,-0.1,1.2,-0.9,1.9,-1.1c0.4,-0.1,1.2,-0.1,1.6,0c0.5,0,1.6,0.7,1.6,0.7c-2.3,-0.9,-3.2,-0.4,-3.7,-0.3c-0.4,0.1,-1,0.6,-1.7,1.3c-0.7,0.6,-1.8,2.6,-2.5,5.2c0.4,-2.5,1.1,-4.2,1.5,-4.8c0.3,-0.7,2.2,-2.7,2.3,-2.7c0.1,-0.1,1.2,-0.9,1.8,-1c0.6,-0.1,1.7,-0.2,2.1,0c0.5,0.2,0.9,0.7,1.2,1.1c0.3,0.3,1.3,0.9,1.3,0.9c0,0,-0.1,0.1,-0.5,-0.1m9.1,10c0,-0.2,0.3,-2.3,0.3,-3c0,-0.6,-0.7,-3.8,-2.1,-6.3c-1.3,-2.4,-2.4,-2.7,-3.8,-3.1c-1.2,-1.1,-3.3,-1.2,-4.4,-1.2c-1.1,0.1,-3.1,0.7,-4.9,2.2c-1.8,1.5,-3,3.5,-3.9,6.4c-0.8,2.9,0.2,7.4,0.1,7.6c0,0.1,-0.1,1.5,-0.2,2.1c0,0.6,-0.3,2.8,0.5,4.3c0.7,1.5,1.9,2.5,1.9,2.4c-0.4,-0.4,-1.7,-3.5,-1.9,-4.2c-0.3,-0.8,-0.1,-1.2,-0.1,-1.6c0,-0.5,0.2,-2.1,0.4,-1.7c0.2,0.9,1.2,1.9,1.2,1.9c0,0,-0.4,-0.8,-0.7,-1.3c-0.2,-0.5,-0.1,-0.9,-0.1,-0.9c0,0,0.7,0.2,0.3,0c-0.3,-0.4,-0.2,-0.8,-0.2,-1.1c0.1,-0.2,0.2,-0.5,0.2,-0.9c0,-0.4,0.3,-2.9,0.3,-3.4c0,-0.6,0.6,-3.7,0.9,-4.2c0.2,-0.5,0.6,-1.4,1.8,-2.1c1.2,-0.8,2.4,-1,3.4,-1c1,0,2.3,0,2.9,0c0.6,-0.1,0.8,-0.5,0.8,-0.5c0,0,0.4,0.6,1.6,1.4c1.2,0.7,2,2.2,2.5,3.7c0.5,1.5,1,4.6,1,5.5c0,0.8,-0.2,1.7,-0.2,1.7c0,0,0.6,-0.3,0.6,-0.1c0,0.3,-0.1,1,-0.2,1.1c-0.1,0.2,0.5,-0.6,0.5,-0.6c0,0,-0.1,1.2,-0.3,1.7c-0.2,0.5,-0.3,1.6,-0.4,2.2c-0.2,0.7,-1,2.8,-1.2,3.4c-0.2,0.6,-0.9,2.3,-0.7,2.2c0.3,-0.1,1.9,-2.4,2.4,-3.7c0.5,-1.2,1,-4.5,1.1,-3.8c0.2,1.5,-0.5,4.4,-0.5,4.4c0.7,-1.3,0.8,-4.6,0.8,-5c0,-0.4,-0.2,-2,-0.3,-2.3c0,-0.3,0.3,-2.4,0.3,-2.3c0,0.2,0.2,3.4,0.2,3.4c0,0,0.1,-0.4,0.1,-1.2c0.1,-0.8,0,-1.9,0,-2.1Z" class="g6_172" />
</g>
<path d="M199.3,625.8c0,0,0.1,0.8,0.5,1.5c0.4,0.6,0.9,1.7,0.9,1.8c0,0.1,0.1,-0.9,-0.1,-1.3c-0.2,-0.5,-1.3,-1.7,-1.3,-2Z" class="g6_172" />
<path d="M193.4,624.7c0,0,0.2,-0.4,0.6,-0.4c0.3,-0.1,1.1,0,1.4,0.1c0.3,0.1,0.8,0.4,1,0.6c0.2,0.2,0.5,0.4,0.5,0.4l0.9,0.1c0,0,-1.1,0.1,-1.1,0.1c-0.1,-0.1,-0.5,-0.6,-0.7,-0.7c-0.2,-0.1,-0.7,-0.5,-1.1,-0.5c-0.4,0,-0.6,0,-0.9,0c-0.3,0.1,-0.6,0.3,-0.6,0.3Z" class="g6_172" />
<path d="M194.7,624.9c-0.1,-0.1,0,-0.2,0,-0.2c0.2,0,0.2,0.1,0.2,0.2c0,0,-0.1,0,-0.2,0m1.2,0.1c-0.3,-0.1,-0.3,-0.3,-1.2,-0.4c-0.9,-0.2,-1.8,0.8,-1.8,0.8c0,0,1,-0.8,1.1,-0.6c0.1,0.3,0.2,0.6,0.7,0.6c0.7,0,0.5,-0.6,0.6,-0.6c0,0,0.4,0.4,0.5,0.4c0.1,0.1,0.5,0.1,0.5,0.1c0,0,-0.2,-0.1,-0.4,-0.3Z" class="g6_172" />
<path d="M190.3,629.3c0,0,-0.3,-0.4,-0.9,-0.4c-0.5,-0.1,-0.4,0.3,-0.4,0.3c0,0,0.3,0.1,0.7,0.1c0.3,0,0.6,0,0.6,0Z" class="g6_172" />
<path d="M191.1,629.3c0.1,-0.1,0.4,-0.3,0.7,-0.3c0.4,0,0.6,0,0.7,0.1c0.1,0.1,0.1,0.2,0,0.2c-0.2,0,-1.4,0,-1.4,0Z" class="g6_172" />
<path d="M188.5,628.6c0,0,-0.1,0.3,0,0.5c0.1,0.2,0.3,0.3,0.5,0.4c0.3,0,0.6,0,0.9,0c0.4,0,0.4,0,0.7,0.1c0.3,0,0.6,0,0.6,-0.1c0.1,0,-0.1,0.3,-0.8,0.2c0,0,-0.4,-0.1,-0.9,-0.1c-0.4,0,-1.1,-0.1,-1.1,-0.3c-0.1,-0.2,0.1,-0.7,0.1,-0.7Z" class="g6_172" />
<path d="M187.5,629.6c0,0,-0.6,0.4,-0.8,0.5c-0.1,0.2,-0.3,0.5,-0.1,0.9c0.1,0.4,0.5,0.8,0.5,0.8c0,0,-0.5,-0.9,-0.3,-1.2c0.1,-0.3,0.7,-1,0.7,-1Z" class="g6_172" />
<path d="M193.8,629.3c0,0,1.3,1,1.3,1.5c0,0.6,-0.4,1.6,-0.5,1.8c-0.1,0.2,0.8,-0.8,0.7,-1.8c-0.1,-1,-1.5,-1.5,-1.5,-1.5Z" class="g6_172" />
<path d="M187.5,631.5c0,0,0.1,0.1,0.6,0.8c0.6,0.7,1.1,1.1,2.5,1.2c0,0,1.7,0.1,2.7,-0.7c1,-0.8,-0.7,0.3,-2,0.3c-1.4,0,-2.6,-0.6,-2.6,-0.6c0,0,1.5,0.4,2.2,0.3c0.6,0,1.3,-0.1,1.8,-0.2c0.4,-0.1,1.6,-0.8,1.6,-0.9c0,-0.1,-0.9,0.9,-3.2,0.9c-2.3,0,-2.7,-0.4,-3.6,-1.1Z" class="g6_172" />
<path d="M191.5,630.9c-0.3,-0.1,-1.7,0,-2,0c-0.4,0,-1.8,0.2,-2,0.5c0.1,0.1,1.4,0.1,2,0.1c0.6,0,1.3,0.1,1.8,0.1c0.6,0,3,0.1,3,0.1c0,0,-0.1,-0.3,-2.8,-0.8Z" class="g6_172" />
<g clip-path="url(#c3_172)">
<path d="M184.2,630.6c0,-0.1,0.6,2.2,1.1,3c0.5,0.6,2.5,2.6,3,3.1c1,1.1,4.9,0.5,4.9,0.4c-1.1,0.2,-3.8,1.3,-3.5,2.5c0.4,2.8,2.9,2.5,2.6,3c-0.3,0.5,-0.9,1,-0.8,1c0,-0.1,0.5,-1,0.5,-1.1c-0.1,-0.1,-0.5,0.3,-1.3,-0.1c-0.8,-0.5,-1.2,-1,-1.4,-1.7C189,640,189.1,639.4,189,639.2c-0.1,-0.1,-0.1,-0.9,-0.8,-1.7c0,2.2,-0.5,2.6,-1.2,2.6c0.4,-0.2,0.8,-1.3,0.9,-1.7c0.1,-0.5,0,-1.8,-0.1,-1.9c-0.1,-0.1,-2.3,-2.3,-2.7,-3c-0.5,-0.7,-0.9,-2.9,-0.9,-2.9Z" class="g6_172" />
<path d="M193.9,636.7c0.1,0,2,-1.2,2.3,-1.5c0.3,-0.3,1.3,-1.5,1.4,-1.7c0.2,-0.3,0.7,-1.3,0.8,-2.3c0,-0.9,0.4,-1.9,0.4,-1.9c0,0,0,0.5,-0.1,1c0,0.4,-0.3,2.5,-0.8,3.1c-0.5,0.6,-1.1,1.2,-1.2,1.5c0,0.2,0,1.6,0.1,1.9c0.1,0.2,-0.2,1.2,-0.6,1.7c-0.3,0.4,-0.9,1.6,-1.3,1.9c-0.4,0.3,0,-0.9,0.4,-1.8c0.4,-0.9,0.6,-1.8,0.6,-2.2c0.1,-0.3,0.1,-0.5,-0.5,-0.1c-0.6,0.4,-1.5,0.4,-1.5,0.4Z" class="g6_172" />
<path d="M187.6,638.8c0,0,-0.8,0.3,-1,0.3c-0.1,0.1,-0.4,0.5,-0.5,0.6c-0.1,0.2,-0.4,1.1,-0.4,1.3c-0.1,0.1,-0.3,1.6,-0.3,1.7c0,0.2,0.1,0.4,0.4,0.5c0.3,0.1,3.2,0.7,5.4,0.7c-1.4,-0.2,-4.9,-0.4,-5.2,-1c-0.3,-0.7,-0.1,-0.6,0.1,-1.2c0.1,-0.5,-0.1,-1.6,0.2,-1.8c0.2,-0.2,0,-0.6,1.3,-1.1Z" class="g6_172" />
<path d="M187.7,638.7c0,0,-1,0.2,-1.3,0.3c-0.2,0.1,-0.6,0.4,-0.9,0.5c-0.4,0,-0.9,0.4,-1.4,0.4c-0.5,0,-2,0.6,-2.4,0.6c-0.4,0.1,-1.4,0.3,-1.4,0.3c0,0,-0.4,0.4,-0.4,0.4c0.1,0,0,-0.1,0.7,-0.3c0.8,-0.1,1.1,-0.1,1.1,-0.1c0,0,-0.4,0.8,-0.6,1.1c-0.2,0.2,-0.8,1.3,-1,1.6c-0.2,0.3,1.5,-1,1.7,-1.6c0.3,-0.5,0.7,-1.1,1,-1.2c0.2,-0.1,0.7,-0.3,0.9,-0.3c0.1,0,-0.4,0.8,-0.8,1.4c-0.5,0.5,-1,1.3,-1,1.3c0.1,0,2,-2.5,2.6,-2.8c0.5,-0.3,1.1,-0.6,1.3,-0.7c0.3,-0.2,0.8,-0.7,1.9,-0.9Z" class="g6_172" />
</g>
<path d="M191.3,710.1c0,0,0.2,-0.4,-0.3,-0.6c-0.5,-0.3,-1.1,-0.5,-2.4,-0.5c-1.3,0.1,-1.5,0.4,-1.5,0.4c0,0,0.8,0,1.2,0c0.5,0.1,1,0,1.6,0.3c0.6,0.4,1.1,0.6,1.4,0.4Z" class="g4_172" />
<path d="M196.1,710.1c0,0,-0.9,-0.1,-1.3,-0.1c-0.3,0.1,-0.6,0.3,-0.5,0.5c0.2,0.1,0.6,0.2,1.3,0.2c0.7,0,0.7,0.1,0.8,0.1c0.1,0,-0.3,-0.7,-0.3,-0.7Z" class="g4_172" />
<path d="M189.4,711.1c-0.1,0,-0.1,0,-0.1,-0.1c0,-0.1,0,-0.2,0.1,-0.2c0.1,0,0.1,0.1,0.1,0.2c0,0.1,0,0.1,-0.1,0.1m0.4,-0.4c-1,-0.5,-2,0.1,-2,0.1l0.5,0.2c0,0,0.1,-0.2,0.3,-0.2c0.3,-0.1,0.4,-0.1,0.4,-0.1c0,0,-0.2,0.6,0.3,0.7c0.5,0.2,0.7,0.1,0.8,-0.1c0,-0.2,0,-0.3,0,-0.3c0,0,0.3,0,0.7,0.7c0,0,0,-0.6,-1,-1Z" class="g4_172" />
<path d="M195.5,712c-0.1,0,-0.2,0,-0.2,-0.1c0,-0.1,0.1,-0.1,0.2,-0.1c0.1,0,0.1,0,0.1,0.1c0,0.1,0,0.1,-0.1,0.1m0.8,-0.3c0,0,-0.4,-0.1,-0.9,-0.1c-0.5,0,-1.1,0.7,-1.1,0.7l0.4,0c0,0,0,-0.3,0.4,-0.4c0,0.1,-0.1,0.3,0.4,0.5c0.4,0.1,0.6,-0.1,0.6,-0.2c0.1,-0.1,0,-0.4,0,-0.4Z" class="g4_172" />
<path d="M193.7,711.3c-0.1,0.1,-0.8,1.1,-0.9,1.8c-0.1,0.7,-0.2,1.5,0,1.8c0.1,0.2,0.3,0.7,0.3,0.8c0,0.1,0.3,0,0.4,-0.1c0,-0.1,0.1,-0.6,0.2,-0.5c0.1,0.1,0.3,0.4,0.3,0.6c-0.1,0.1,0,0.5,-0.2,0.6c-0.2,0,-0.3,-0.2,-0.6,-0.1c-0.3,0.1,-0.3,0.1,-0.6,0.2c-0.2,0.1,-0.6,0.2,-0.8,0.1c-0.2,-0.1,-0.4,-0.5,-0.7,-0.6c-0.3,-0.1,-0.5,0,-0.5,0c0,0,0.3,0.1,0.6,0.2c0.2,0.2,0.6,0.6,0.9,0.6c0.3,0,0.8,-0.3,1.2,-0.3c0,0,0.2,0.1,0.5,0c0.2,0,0.5,-0.5,0.3,-1.1c-0.2,-0.5,-0.3,-0.4,-0.5,-0.7c-0.2,-0.4,-0.3,-1.2,-0.3,-1.7c0,-0.6,0.4,-1.6,0.4,-1.6Z" class="g4_172" />
<path d="M189.7,715.1c-0.1,0.1,-1.1,0.7,-1.5,1c-0.4,0.3,-0.6,0.5,-0.5,0.8c0.1,0.3,0.3,0.9,0.3,0.9c0,0,-0.6,-1.1,-0.6,-1.3c0,-0.1,2.3,-1.4,2.3,-1.4Z" class="g4_172" />
<path d="M191.9,718.8c-1.1,0,-1.3,-0.4,-1.6,-0.6c-0.3,-0.1,-1,-0.8,-1,-0.8c0,0,2.2,0.6,2.5,0.6c0.2,0,0.8,0,1.3,0.1c0.6,0,0.7,0.1,0.7,0.1c0,0,-0.9,0.7,-1.9,0.6m2.5,-0.9c-0.1,0,-0.5,0,-1,-0.1c-0.6,-0.1,-0.9,-0.3,-1.1,-0.3c-0.2,0,-0.4,0,-0.7,0c-0.3,0,-0.7,-0.2,-0.9,-0.2c-0.2,0,-1.1,-0.1,-1.4,-0.1c-0.3,-0.1,-0.8,-0.4,-0.9,-0.4c0,0,0.7,1.5,1.2,1.8c0.5,0.3,1.1,0.7,1.1,0.7c0,0,-0.2,-0.1,-0.4,-0.3c-0.1,-0.2,0.4,0,0.3,-0.1c-0.1,-0.1,-0.5,-0.2,-0.7,-0.3c-0.1,0,0.3,-0.2,0.6,0c0.2,0.2,0.3,0.2,0.5,0.3c0.2,0.1,0.1,0.2,0.2,0.4c0,0.1,-0.4,0.2,0,0.2c0.4,0,1.4,0,1.9,-0.2c0.6,-0.2,0.8,-0.5,1,-0.9c0.2,-0.4,0.4,-0.6,0.3,-0.5Z" class="g4_172" />
<path d="M190.6,722.1c0,0,0.5,0.2,1.4,0c1,-0.3,3.3,-2.2,3.3,-2.2c0,0,0,0.1,0,0.5c0,0.5,-0.3,0.3,-0.1,1.2c0.1,1,0.3,1.4,0.3,1.6c0.1,0.2,0.1,0.4,-0.1,0.5c-0.1,0.1,0.1,-0.7,-0.2,-1.1c-0.3,-0.4,-0.2,-0.6,-0.7,-0.7c-0.5,-0.1,-0.6,-0.2,-1,0.1c-0.3,0.2,0.1,0.2,-0.9,0.4c-0.9,0.1,-1.9,-0.1,-2,-0.3Z" class="g4_172" />
<g clip-path="url(#c4_172)">
<path d="M179.3,725.3c-0.1,0.2,0.5,-0.7,0.6,-0.5c0.2,0.2,0.1,0.1,0.5,1.4c0.4,1.4,1.7,5.1,5.9,5.3c4.2,0.2,7.8,-1.3,7.8,-1.3c0,0,-5.7,1.8,-8.8,0.7c-3.1,-1,-3.4,-2.4,-3.8,-3.2c-0.4,-0.8,-0.6,-1.5,-1,-2.1c-0.3,-0.6,-0.6,-1.7,-1.2,-0.3Z" class="g4_172" />
<path d="M202.4,723.8c0.2,0,0.5,0.2,0.5,0.4c0,0,-0.6,0.2,-1,0.5c-0.4,0.4,-1.6,2.2,-2.6,3c-1,0.9,-1.9,2.2,-4,3.2c-2.1,1,-3.7,1.2,-3.8,1.2c-0.1,0,4.6,-1.6,6.5,-3.5c1.9,-1.8,2.5,-2.9,3.1,-3.4c0.5,-0.6,1.3,-1.4,1.3,-1.4Z" class="g4_172" />
<path d="M178.3,725.2c-0.5,0.2,-0.4,0.3,-1,0.5c-0.7,0.2,-2.7,2.4,-3,5.2c-0.3,2.8,0.7,-0.9,1,-0.6c0.4,0.3,0.8,0.5,1,1.1c0.3,0.6,1.7,1.5,1.6,0.7c-0.2,-0.7,-0.9,-1.8,-0.1,-2.5c0.7,-0.6,0.5,-1.9,1,-2.1c0.6,-0.1,1.1,0.5,1.4,1.2c0.2,0.7,1.1,1.4,1.1,1.3c-0.1,-0.1,-1.4,-2.5,-1.5,-3.3c-0.2,-0.8,-0.4,-1,-0.7,-1.1c-0.3,-0.2,-0.8,-0.4,-0.8,-0.4Z" class="g4_172" />
<path d="M202.4,728.6c-1,1.5,-1.3,3.9,-1.3,3.9c0,0,0.9,-3,1.7,-3.9c0.8,-1,1.8,-2.2,2.5,-2.4c0.8,-0.2,1.3,-0.3,1.7,0.5c0.4,0.7,1,2.4,1,2.6c0,0.3,0,-0.3,0.2,-0.6c0.2,-0.2,0.1,-0.3,-0.2,-0.9c-0.3,-0.6,-0.8,-2.3,-2.5,-2.7c-1.6,-0.3,-2,-0.4,-2.4,-0.3c-0.4,0.1,-1.5,1.1,-2.7,2.4c-1.1,1.4,1.5,-1.3,2.6,-1.7c1.1,-0.4,2.9,-0.3,2.5,0c-0.3,0.3,-2.1,1.7,-3.1,3.1Z" class="g4_172" />
<path d="M181.6,725.4c0,0,1.4,-0.2,3.9,-2c2.4,-1.8,1.7,-1.3,1.8,-1.8c0,-0.5,-0.1,2.1,-2.5,2.9c-2.4,0.8,-3.2,0.9,-3.2,0.9Z" class="g4_172" />
<path d="M200.7,718.4c-0.1,0,-0.1,0,-0.2,-0.1c-1.2,-0.5,-1,-0.8,-1.7,-1.8c-0.7,-0.9,-1.2,-2.6,-2.1,-5.2c-0.9,-2.7,-1.4,-3.1,-1.4,-3.1c-0.4,-0.8,-2.2,-3.4,-2.1,-3.3c0.1,0.2,3.1,3.5,3.7,6c0.6,2.5,2.3,5.2,3,6.6c0.2,0.4,0.5,0.7,0.8,0.9c1,0.5,1.4,0.5,1.4,0.5c0,0,-0.7,0,-1.4,-0.5m-9.4,-17.1c0.1,0,1.8,0.1,3.5,1.3c1.7,1.2,2.2,1.3,3.6,3.4c1.4,2.1,-0.1,0.2,-1.9,-1.6c-2.4,-2.5,-5.2,-3.1,-5.2,-3.1m2.4,-1.3c0.9,0.1,2.3,0.7,2.7,1c0.6,0.4,1.2,1.1,1.8,1.8c0.6,0.7,1.2,1.4,2,3c0.8,1.6,1.8,4.4,2.2,6.4c0.3,1.6,0.7,2.8,0.9,3.2c0,0.2,0.1,0.2,0.1,0.2c0,0,-0.1,0,-0.1,-0.2c-0.3,-0.8,-1.6,-4.5,-1.9,-5.5c-0.3,-1.1,-1.6,-4.5,-2.7,-5.9c-1,-1.4,-1.9,-2.2,-2.9,-2.8C194.7,700.7,192,700,192,700c0.2,-0.2,0.8,-0.2,1.7,0m-6.6,4.3c-0.6,0.5,-1,1,-1.8,2.2c-0.9,1.3,-1.2,6.2,-1.3,6.8c0,0.3,-0.7,2,-1.2,3.3c-0.2,0.7,-0.3,1.2,-0.5,1.4c-0.1,0.1,0.2,-0.5,0.5,-1.4c0.1,-0.3,0.2,-0.7,0.3,-1.1c0.3,-1.3,0.5,-3.2,0.5,-3.2c0,0,-0.4,1,-1,1.6c-0.7,0.6,-1.8,1.7,-1.9,1.8c-0.1,0,0.5,-0.6,1.1,-1.4c0.6,-0.8,1.8,-2.4,2,-3.5c0.3,-1,0.5,-3,0.1,-2.3c-0.2,0.4,-1,1.8,-1.4,2.5c-0.1,0.2,-0.2,0.4,-0.3,0.4c0,0.1,0.1,-0.1,0.3,-0.4c0.2,-0.6,0.7,-1.6,1,-2.4c0.4,-1.1,0.4,-2,0.8,-2.9c0.4,-0.8,1,-1,1.5,-1.6c0.5,-0.6,1.1,-0.6,1.2,-0.5c0,0,-0.1,0.4,-0.7,0.8c-0.6,0.4,-0.6,0.4,-0.8,0.8c-0.3,0.3,-0.8,2,-0.8,2c0,0,0.2,-0.4,0.7,-1.3c0.5,-0.9,1.9,-1.9,1.7,-1.6M181,720c-0.3,-1.6,-0.6,-2,-0.5,-2.3c0,-0.2,0.3,-0.5,0.5,-0.6c-0.1,0.1,-0.3,0.4,-0.2,0.8c0,0.7,0.1,1.8,0.6,2.6c0.2,0.3,0.5,0.8,0.9,1.2C181.9,721.5,181.2,721,181,720m20.8,1.2c0.4,-0.2,2,-3.3,1.9,-5.7c0,-2.3,-1.6,-8.5,-2.8,-11c-1.1,-2.4,-3.3,-4.8,-5,-5.4c-1.6,-0.6,-3.5,-0.2,-3.8,-0.2c-0.3,0,-1.6,-0.2,-1.9,-0.1c-0.4,0.1,-1.3,0.1,-2,0.4c-0.8,0.3,-3.5,2.2,-4.8,5c-1.2,2.7,-1.1,5.6,-1.3,6.3c-0.2,0.7,-1.3,1.9,-1.3,2.9c0,1,-0.3,1.3,-0.5,2.1c-0.1,0.8,-0.7,1.9,-0.4,3.3c0.3,1.3,0.5,2.4,1.7,2.8c0.4,0.1,0.6,0.1,0.7,0.2c0.6,0.7,1.2,1.3,1.5,1.4c0.5,0.2,1,0.3,1.7,0.2c0.6,-0.1,1.6,-1,1.7,-1.1c0.2,-0.2,0,-0.7,0.1,-1.2c0,-0.5,-0.2,-2,-0.2,-2c0,0,-1.4,-1.9,-1.6,-3.3c-0.2,-1.5,-0.2,-7.2,0.5,-8.6c0.7,-1.3,1.1,-2.5,2.3,-3.1c1.3,-0.6,1.4,-1,1.4,-1.4c0.1,-0.1,0.1,-0.3,0,-0.4c0.1,0.2,0.2,0.5,0.6,0.8c0.5,0.3,1,0.7,2.3,2c1.3,1.3,2.6,3.1,2.9,4.2c0.4,1.1,0.6,1.8,0.9,3.1c0.4,1.2,0.6,3,1.4,4.1c0.2,0.6,-2.1,2.9,-2.1,2.9l0,1.7c0,0.5,0.1,1.1,0.4,1.3c0.2,0.2,0,0.4,-0.2,0.8c-0.2,0.3,-0.3,0.8,-0.2,1.3l0.1,0.6c0,0,0,-0.3,0.8,-0.3c0.8,-0.1,1.8,-0.9,1.8,-0.9c0,0,0.4,0.8,0.9,1.1c0.5,0.3,1.2,0.2,1.2,0.2c0,0,-1.1,-0.5,-1.1,-0.8c0,-0.4,0.7,-0.4,1,-0.2c0.4,0.2,0.6,0.2,1,0.1c0.4,-0.1,0.7,-0.4,0.7,-0.4c0,0,-0.6,-1.1,-0.7,-1.5c0,-0.4,0.1,-0.9,0.4,-1.2Z" class="g4_172" />
</g>
<g clip-path="url(#c5_172)">
<path d="M199.2,745.1c-0.1,0.2,-0.9,-1.1,-0.8,-1.7c0.1,-0.7,0.1,-1.9,0.1,-2.2c-0.1,-0.2,-0.8,-1.8,-1.2,-2.3c-0.4,-0.4,-1.5,-1.7,-1.7,-2c-0.1,0,0,0,0,0c0.2,0.2,0.8,0.6,1.4,1.1c0.5,0.6,1.1,1.3,1.3,1.8c0.2,0.4,0.8,2.1,0.8,2.5c0.1,0.8,0,0.9,0,0.9c0,0,-0.3,-0.5,-0.3,0c0,0.5,0.4,1.8,0.4,1.9m-5.4,-6.5c-0.6,-0.1,-2.1,0.2,-2.1,0.2c0,0,-1.1,0.6,-1.3,0.7c-0.2,0.2,0.7,-1.6,2,-1.5c0.4,-0.1,1.5,0,1.9,0.2c0.4,0.1,1.4,0.4,1.7,0.5c0.2,0.1,-1.6,-0.1,-2.2,-0.1m-2.3,-2.8c0.7,-0.1,1.1,-0.3,1.1,-0.3c0,0,-0.4,0.6,-0.7,0.7c-0.3,0.1,-1.6,0.4,-1.6,0.4c0,0,0.6,-0.7,1.2,-0.8m-4.5,2.1c-0.1,-0.1,-0.8,-0.1,-1.3,0c-0.5,0,-0.7,0.1,-1.2,0.3c-0.5,0.2,-1.5,1.1,-1.5,1.1c0,0,0.8,-1,1,-1.1c0.1,-0.1,0.7,-0.5,0.8,-0.6c0.2,-0.1,0.9,-0.3,1.4,-0.2c0.8,0.2,1.7,0.8,1.7,0.8c0,0,-0.8,-0.3,-0.9,-0.3m-0.5,1.6c-0.4,0.2,-1,0.4,-1.3,0.6c-0.4,0.2,-1.1,0.4,-1.4,0.6c-0.3,0.3,-0.8,1.7,-1.3,3.2c-0.4,1.4,-0.4,0.3,-0.4,0.1c0.1,-0.1,0.5,-1.2,0.8,-1.8c0.4,-0.6,-0.2,-0.4,-0.5,-0.2c-0.3,0.3,-0.8,1.6,-0.8,1.4c0,-0.1,0.4,-1.1,0.4,-1.1c0,0,0.4,-1.3,0.6,-1.5c0.2,-0.2,0.4,-0.4,0.8,-0.7c0.1,-0.1,1.1,-0.5,1.6,-0.6c0.5,-0.2,1.9,-0.2,1.5,0m13.5,5.4c-0.1,-0.4,-0.4,-4.2,-0.9,-5c-0.6,-0.9,-0.4,-1.2,-0.6,-1.4c-0.2,-0.2,-1.1,-0.7,-1.1,-0.7c0,0,-0.1,-0.6,-0.3,-0.7c-0.2,-0.2,-1,-0.9,-1.4,-1.1c-0.5,-0.2,-1.4,-0.7,-2,-0.8c-0.6,0,-1.3,0,-1.5,0c-0.3,0.1,-1.6,-0.2,-2,-0.2c-0.4,0.1,-1.7,0.2,-2.3,0.4c-0.5,0.1,-1.7,0.9,-2.4,0.9c-0.6,0,-1.6,0.8,-2.2,1.3c-0.6,0.6,-1.5,1.9,-1.8,2.4c-0.2,0.4,-1.1,1.8,-1.1,3.3c0,1.5,0.2,2.4,0.3,3.1c0.1,0.7,-0.1,1.5,0.4,2c0.5,0.4,0.9,1.2,1.3,1.7c0.4,0.5,0.8,2,0.8,2c0,0,-0.8,-2.8,-0.6,-3.8c0.2,-1.1,0.1,-1.5,0.2,-1.8c0.1,-0.3,0.1,-2.5,0.3,-2.7c0.1,-0.2,0,-1.6,1.1,-2.4c1.2,-0.7,2.2,-0.8,2.9,-0.8c0.7,0,1.8,0.1,2.1,0.1c0.3,-0.1,2,-0.7,2.6,-0.9c0.5,-0.1,1.3,-0.7,2.5,-0.4c1.7,0.4,2.3,1.5,2.5,1.8c0.3,0.4,0.3,1.7,0.5,2.2c0.1,0.5,0.8,1.4,1.2,2.2c0.3,0.7,0.2,1.5,0.2,2.4c0,0.8,0.1,1.9,0.1,1.9c0,0,0.4,-1.1,0.4,-1.2c0,-0.1,0,-1.2,0.2,-1.4c0.1,-0.2,0.7,-1.9,0.6,-2.4Z" class="g5_172" />
</g>
<path d="M188.2,745.8c0,0,-0.6,-0.2,-1.1,-0.3c-0.4,-0.1,-0.7,-0.1,-1.1,-0.1c-0.3,0.1,-0.9,0.3,-1,0.4c-0.1,0.2,-0.9,1.3,-0.9,1.3c0,0,0.6,-0.6,1.3,-0.7c0.7,-0.2,0.9,-0.3,1.5,-0.2c0.6,0.1,1.5,0,1.3,-0.4Z" class="g5_172" />
<path d="M191.6,745.5c0,0,0.6,-0.9,1.7,-1c1.1,-0.2,1.6,0.1,2,0.2c0.4,0.2,0.7,0.6,0.7,0.6c0,0,-1.4,-0.4,-1.6,-0.4c-0.1,0,-0.5,0.2,-0.7,0.2c-0.1,0,-0.8,0.1,-1.1,0.2c-0.3,0.2,-0.7,0.8,-1,0.2Z" class="g5_172" />
<path d="M187.2,748.5c0,0,-0.1,0.1,-0.2,0c0,-0.1,0,-0.2,0.1,-0.2c0,0,0.2,0.1,0.1,0.2m0.7,-0.5c-0.3,-0.1,-1,-0.1,-1.4,0.1c-0.4,0.2,-1.4,1.2,-1.4,1.2c0,0,0.4,-0.3,0.6,-0.3c0.2,0,0.5,-0.1,0.5,-0.1c0,0,-0.1,-0.4,0.2,-0.4c0,0,-0.1,0.5,0.7,0.5c0.7,-0.1,0.6,-0.6,0.7,-0.7c0,-0.2,0.3,0.2,0.4,0.4c0,0,0.4,0,0.4,0c0,0,-0.3,-0.5,-0.7,-0.7Z" class="g5_172" />
<path d="M193.7,747.4c0,0,-0.2,0,-0.2,-0.1c0.1,-0.1,0.2,-0.1,0.2,-0.1c0.3,0,0.1,0.2,0,0.2m2.2,0.1c0,-0.1,-1.2,-0.7,-2.3,-0.6c-1,0.2,-1.2,1.1,-1.2,1.1c0,0,0.3,0,0.3,0c0.1,-0.5,0.4,-0.6,0.4,-0.6c0,0,0,0.3,0.2,0.4c0.1,0.1,0.4,0.2,0.8,0.1c0.5,-0.2,0.4,-0.6,0.3,-0.7c0.2,0,0.5,0.3,0.5,0.3c0,0,0.3,0,0.4,0c0.1,0,0.7,0,0.6,0Z" class="g5_172" />
<path d="M189.4,750.8c0,0,0,0.4,-0.1,0.6c-0.1,0.2,-0.3,0.5,-0.3,0.6c0,0.1,-0.1,0.6,-0.1,0.6c0,0.1,-0.4,0.5,-0.5,0.6c0,0.1,-0.4,0.8,-0.5,1c-0.2,0.1,-0.4,0.3,-0.4,0.3c0,0,0.7,-1.1,0.8,-1.4c0,-0.4,0.1,-0.7,0.2,-1c0.2,-0.3,0.2,-0.7,0.4,-0.9c0.1,-0.2,0.5,-0.6,0.5,-0.4Z" class="g5_172" />
<path d="M192.5,750.4c0,0,0.6,0.5,0.9,0.8c0.2,0.3,0.6,1,0.9,1.2c0.3,0.3,0.9,1.2,0.9,1.2c0,0,-1.3,-1.3,-1.5,-1.4C193.5,752,193.2,752,193.2,752c0,0,-0.3,-0.8,-0.4,-1.1c-0.2,-0.3,-0.3,-0.5,-0.3,-0.5Z" class="g5_172" />
<path d="M190.8,752.8c0,0,-0.3,-0.4,-0.7,-0.4c-0.4,0,-0.6,0.2,-0.6,0.3c0,0.1,0.1,0.3,0.3,0.3c0.1,0,-0.2,0.1,-0.3,0.1c-0.2,0,-0.4,-0.1,-0.4,-0.1c0,0,0.1,0.3,0.5,0.3c0.5,0,1.3,-0.1,1.2,-0.5Z" class="g5_172" />
<path d="M192.6,752.5c0,0,0.2,-0.4,-0.4,-0.4c-0.3,0,-0.8,0.4,-0.8,0.7c0,0.1,0.5,0.2,0.8,0.2c0.3,-0.1,0.9,-0.3,0.9,-0.5c0.1,-0.2,-0.1,0.2,-0.5,0Z" class="g5_172" />
<path d="M183.5,753.3c0,0,-1.1,-0.8,-1.2,-1.6c0,-0.9,0,-1.1,0,-1.2c0,-0.2,-0.4,-0.9,-0.5,-0.9c-0.2,0,-0.3,0.3,-0.2,0.6c0,0.2,0.3,0.9,0.4,1.1c0.1,0.3,0.6,1.3,0.8,1.6c0.2,0.4,0.5,0.8,0.6,0.7c0.1,0,0.1,-0.1,0.1,-0.3Z" class="g5_172" />
<path d="M181.8,751.6c0,0,0.6,1.2,0.8,1.4c0.2,0.3,0.5,0.9,0.6,1.1c0.1,0.1,0.2,1,0.5,1.1c0.2,0,0.5,-0.1,0.6,-0.2c0.1,0,0.2,0.3,0.3,0.7c0.1,0.4,1.3,2,1.3,2.1c0.1,0.1,-1,-1.5,-1.1,-2c-0.1,-0.5,-0.4,-1,-0.4,-1c0,0,-0.4,0.3,-0.6,0.1c-0.2,-0.2,-0.4,-0.8,-0.6,-1.2c-0.3,-0.3,-1.4,-2.1,-1.4,-2.1Z" class="g5_172" />
<path d="M188.1,755.5c0.2,0,0.5,0,1,-0.1c0.4,-0.2,0.6,-0.5,0.9,-0.6c0.2,0,1.2,0,1.2,0c0,0,0.7,-0.2,0.9,-0.3c0.2,-0.1,0.6,0,1,0c0.3,0,1,0.1,1.3,0.1c0.3,0,-0.1,0.1,-0.2,0.3c-0.1,0.2,-0.3,0.4,-0.5,0.6c-0.2,0.2,0,-0.3,-0.2,-0.3c-0.2,-0.1,-0.8,-0.1,-1,-0.1c-0.3,0.1,-0.7,0.2,-0.9,0.3c-0.1,0,-0.5,0,-0.9,0c-0.4,0,-1,0.1,-1.3,0.1c-0.2,0.1,-0.1,0.3,-0.1,0.4c0,0,0.2,0.3,1.4,0.4c1.2,0,2.3,-0.3,2.3,-0.3c0,0,-0.6,0.4,-1.4,0.5c-0.7,0.1,-1.4,0.2,-2,0c-0.7,-0.2,-1.5,-1,-1.5,-1Z" class="g5_172" />
<path d="M200.3,747.7c0,-0.1,0.1,-0.9,-0.1,-1.1c-0.2,-0.1,-0.3,-0.1,-0.3,0.1c-0.1,0.1,-0.3,0.4,-0.3,0.6c0,0.3,-0.2,0.4,0.1,0.4c0.3,0,0.6,0,0.6,0Z" class="g5_172" />
<path d="M200.1,748.5c0,0,-0.1,1.4,-0.2,1.7c-0.2,0.2,-0.5,0.4,-0.4,0.5c0,0.1,0.2,0.2,0.3,0c0.2,-0.2,0.4,-0.8,0.4,-1c0,-0.2,-0.1,-1.2,-0.1,-1.2Z" class="g5_172" />
<path d="M200.5,746.9c0,-0.1,0.1,1.1,0.1,1.4c0,0.3,-0.2,2,-0.3,2.4c0,0.4,0,1,-0.1,1.3c-0.1,0.2,0.1,0.4,-0.4,0.5c-0.4,0.1,-0.7,-0.1,-0.8,-0.1c-0.1,0,-0.3,2.1,-0.3,2.4c-0.1,0.3,0.2,2.6,0.2,2.6c0,0,-0.3,-1,-0.3,-1.4c0,-0.5,-0.2,-0.5,-0.2,-0.5c0,0,-1,1.6,-1,2.2c-0.1,0.5,-1.3,2.2,-1.8,2.5c-0.4,0.4,-1.4,0.9,-2.1,0.9c-0.7,-0.1,-0.4,-1,0,-1.2c0.3,-0.3,0.6,-0.4,1.2,-0.8c0.7,-0.4,2.1,-1.8,2.2,-2.3c0,-0.4,0.1,-1.2,0.3,-1.4c0.2,-0.2,0.8,-1.1,1.1,-1.7c0.2,-0.5,-0.4,-2,-0.2,-2.8c0.2,-0.8,0.5,-1.2,0.5,-1.2c0,0,0.3,0.1,0.3,0.7c0.1,0.6,0,1.4,0.1,1.6c0.1,0.2,0.6,0.4,0.8,0.3c0.3,-0.1,0.3,-1.1,0.3,-1.6c0.1,-0.4,0.5,-2.4,0.4,-3.8Z" class="g5_172" />
<g clip-path="url(#c5_172)">
<path d="M186.4,758.3c0,0,1.2,2,1.6,2.5c0.3,0.5,1.7,2.1,2.3,2.4c0.6,0.3,2.1,1.3,2.3,1.3c0.2,0.1,0.5,0.1,0.6,0.1c0.2,0,0.4,-0.1,0.6,-0.2c0.2,-0.1,1.7,-1.2,1.9,-1.4c0.3,-0.1,1.5,-1.2,1.9,-1.8c0.5,-0.5,1.3,-2.1,1.3,-2.9c-1.6,3.8,-3.8,4.8,-4.6,5.4c-0.8,0.5,-0.9,0.5,-1.7,0.3c-0.8,-0.2,-2.6,-1.3,-3.3,-2.1c-0.8,-0.7,-2.9,-3.6,-2.9,-3.6Z" class="g5_172" />
<path d="M186.1,758c0,0,-1.2,0.3,-1.6,0.4c-0.4,0.2,-2,0.9,-2.8,1.2c-0.7,0.4,-3.2,1.3,-3.7,1.5c-0.5,0.2,-2.3,0.8,-2.6,0.9c-0.3,0.2,1.1,-0.2,1.7,-0.3c0.5,-0.1,0.9,0,1.4,0.1c0.6,0.2,1.1,1,1.4,1.3c0.3,0.2,0.8,1.5,1,1.9c0.2,0.3,0,1.7,0.5,1.9c0.4,0.2,0.5,0.7,0.6,0.6c0.1,-0.1,2.2,-1,2.3,-1.2c0.1,-0.1,0.2,-0.4,0.2,-0.4c0,0,-1.5,-0.7,-1.5,-0.8c0,-0.1,1.6,-3.4,1.7,-3.8c0.2,-0.4,-0.3,-1,-0.1,-1.5c0.1,-0.4,1.1,-0.8,1.3,-1c0.1,-0.3,0.2,-0.8,0.2,-0.8Z" class="g5_172" />
<path d="M187.6,762.3c0.1,0,-0.4,0.3,-0.7,0.8c-0.2,0.5,-0.6,1.3,-1.1,1.8c-0.5,0.5,-1.3,1.2,-1.3,1.2c0,0,0.8,-0.4,1.2,-0.8c0.4,-0.3,0.8,-1,1.1,-1.5c0.3,-0.6,0.7,-1.4,0.8,-1.5Z" class="g5_172" />
<path d="M199.2,756c0,0,1,1.2,1.6,1.6c0.6,0.3,0.8,0.3,1.4,0.3c0.6,0.1,4.2,1.1,4.8,1.5c0.6,0.3,-0.5,0,-1.3,0c-0.7,-0.1,-1.6,-0.2,-2.1,-0.2c-0.5,0,0,0.4,0,1.4c0.1,1.1,0.9,3.4,0.9,3.4c0,0,-1.5,1.2,-1.4,1.3c0,0.2,1.8,1.2,1.8,1.9c-0.1,0.3,-0.2,0.6,-0.2,0.6l-0.5,-0.7l-2,-1.9c0,0,2.1,-1.2,2,-1.3c-0.1,-0.1,-1.1,-3.1,-2.2,-3.9c-1.1,-0.9,-0.6,-0.3,-1.1,-0.2c-0.4,0,-0.8,1.3,-1,1.5c-0.2,0.3,-1.7,1.3,-1.6,1.2c0,-0.1,1.4,-3.2,0.9,-4.3c-0.3,-0.9,-0.4,-2.2,-0.4,-2.2Z" class="g5_172" />
</g>
<path d="M189.3,780.6c0,0,0.1,-0.5,-0.8,-0.7c-0.9,-0.2,-1.4,-0.4,-1.8,-0.4c-0.4,0,-0.8,0.2,-1.1,0.7c-0.3,0.4,-0.6,1,-0.6,1c0,0,0.7,-1.3,1.2,-1.2c0.6,0.1,1.2,0.4,1.7,0.5c0.5,0,1.4,0.1,1.4,0.1Z" class="g6_172" />
<path d="M192.3,780.8c-0.1,-0.1,0.1,-0.4,0.5,-0.6c0.3,-0.1,2.1,-0.6,2.6,-0.4c0.5,0.1,1.4,0.9,1.4,0.9c0,0,-0.6,-0.5,-1.1,-0.5c-0.5,0,-1.3,0,-1.8,0.2c-0.6,0.2,-0.8,0.4,-1.1,0.5c-0.3,0.1,-0.5,-0.1,-0.5,-0.1Z" class="g6_172" />
<path d="M189.1,782.4c0,0,-0.4,-0.5,-0.7,-0.7c-0.3,-0.2,-0.5,-0.2,-1.5,-0.1c-0.7,0,-1.1,0.9,-1.1,0.9c0,0,-0.2,0.1,-0.5,0.1l-0.4,0c0,0,0.6,0.1,0.7,0.1c0.1,0,-0.8,0.1,-0.8,0.1c-0.1,0,0.8,0,0.9,0c0.1,0,0.4,-0.3,0.4,-0.4c0.1,-0.1,0.3,-0.4,0.4,-0.5c0,0,0.2,-0.3,0.8,-0.3c0.7,0.1,0.8,0.1,1.1,0.3c0.3,0.2,0.7,0.5,0.7,0.5Z" class="g6_172" />
<path d="M187.7,782.2c-0.1,0,0,-0.1,0,-0.1c0,0,0.1,-0.1,0.1,0c0.1,0.1,0,0.2,-0.1,0.1m0.5,-0.2c-0.4,-0.2,-1,-0.1,-1.2,-0.1c-0.2,0,-0.5,0.1,-0.6,0.3c-0.2,0.2,-0.3,0.2,-0.3,0.2l0.4,0.1c0,0,0,-0.4,0.4,-0.5c0.1,0.5,0.1,0.7,0.6,0.7c0.6,0,0.6,-0.3,0.7,-0.5c0,-0.2,0.4,0.2,0.4,0.4c0,0.1,-0.1,0.1,-0.2,0.2c0.2,0,0.6,0,0.7,-0.1c0,0,-0.5,-0.5,-0.9,-0.7Z" class="g6_172" />
<path d="M188.3,782.8c0.1,0,0.1,0,0.1,0c-0.1,0,-0.1,0,-0.1,0Z" class="g6_172" />
<g clip-path="url(#c6_172)">
<path d="M197.2,774.9c-0.7,-0.8,-1,-0.8,-1.3,-0.8c-0.2,0,-0.6,-0.2,-0.5,-0.2c0.1,0,0.4,0,0.4,0c0,0,-0.3,-0.1,-0.1,-0.2c0.1,0,0.4,-0.1,0.2,-0.2c-0.1,0,-0.5,-0.1,-0.4,-0.1c0,-0.1,-0.1,-0.3,-0.3,-0.3c-0.1,0,-0.5,0.3,-0.5,0.2c0,0,-0.1,-0.2,0.1,-0.3c0.1,-0.1,0.6,-0.2,0.6,-0.2c0,0,-0.1,-0.2,-1.1,0.1c0,0,0.7,-0.9,1.9,-0.7c1.2,0.1,1.6,0.6,1.9,0.8c0.2,0.1,0.7,0.6,0.9,0.8c0.1,0.1,0.1,0.1,0.1,0.1c0,0,-0.1,0,-0.1,-0.1c-0.2,-0.2,-0.9,-0.6,-1.3,-0.7c-0.5,-0.3,-1.6,-0.5,-1.9,-0.4c-0.2,0,0.7,0.2,1.1,0.4c0.4,0.3,1.4,1.9,1.6,2.2c0.1,0.3,0.9,1.7,0.9,1.7c0,0,-0.6,-0.5,-1,-1.1c-0.4,-0.6,-1.1,-1.6,-1.2,-1.7c-0.2,-0.1,1.3,2,1.7,2.8c0.3,0.8,1.2,3.3,1.5,4.3c-2.1,-4.8,-2.6,-5.5,-3.2,-6.4m-3.5,-2c-0.1,-0.1,-0.5,-0.8,-0.6,-0.8C193,772,193,772.3,193,772.3c0,0,-0.3,-0.6,-0.7,-1.1c-0.3,-0.4,-0.5,-0.3,-0.9,-0.6c-0.4,-0.2,-1.9,-0.2,-1.9,-0.2c0,0,1.5,-0.1,2.6,0.2c1.2,0.4,1.6,2,1.6,2c0.1,0.1,0.1,0.5,0,0.3m-0.8,-0.3c-0.2,-0.3,-0.3,-0.7,-1.2,-1.7c0.8,0.5,1.7,2.2,1.7,2.2c0,0,-0.2,-0.2,-0.5,-0.5m-0.7,0.8c-0.3,-0.2,-1,-0.8,-1.5,-1.2c-0.5,-0.5,-0.8,-0.4,-1.3,-0.5c-0.5,-0.1,-1,0.1,-1.5,0.3c-0.6,0.2,-1.2,0.8,-2,1.4c-0.8,0.6,-1.9,2.1,-1.9,2.1c0,0,1.2,-1.2,1.4,-1.3c0.1,-0.2,1.2,-1,1.9,-1.2c0.3,-0.1,1.2,0,1.6,0.1c0.4,0,1.6,0.6,1.6,0.6c-2.3,-0.9,-3.2,-0.3,-3.7,-0.2c-0.4,0.1,-1.1,0.6,-1.7,1.2c-0.7,0.7,-1.9,2.7,-2.5,5.3c0.3,-2.5,1.1,-4.2,1.4,-4.9c0.4,-0.6,2.3,-2.6,2.4,-2.7c0,0,1.1,-0.8,1.7,-0.9c0.7,-0.1,1.8,-0.3,2.2,-0.1c0.4,0.2,0.8,0.8,1.1,1.1c0.4,0.4,1.4,1,1.4,1c0,0,-0.2,0,-0.6,-0.1m9.2,10c0,-0.2,0.3,-2.4,0.3,-3c0,-0.6,-0.8,-3.8,-2.1,-6.3c-1.4,-2.4,-2.5,-2.7,-3.8,-3.2c-1.3,-1.1,-3.3,-1.1,-4.4,-1.1c-1.2,0,-3.1,0.6,-4.9,2.2c-1.9,1.5,-3.1,3.4,-3.9,6.3c-0.9,2.9,0.1,7.5,0.1,7.6c0,0.1,-0.1,1.5,-0.2,2.1c-0.1,0.6,-0.3,2.8,0.4,4.3c0.7,1.6,1.9,2.5,2,2.4c-0.4,-0.3,-1.7,-3.5,-2,-4.2c-0.2,-0.7,-0.1,-1.2,-0.1,-1.6c0,-0.4,0.3,-2,0.4,-1.7c0.2,0.9,1.2,1.9,1.2,1.9c0,0,-0.4,-0.8,-0.6,-1.2c-0.3,-0.5,-0.2,-0.9,-0.2,-0.9c0,0,0.8,0.2,0.4,-0.1c-0.4,-0.4,-0.2,-0.8,-0.2,-1c0,-0.3,0.2,-0.5,0.2,-0.9c0,-0.5,0.3,-2.9,0.3,-3.5c0,-0.5,0.6,-3.7,0.8,-4.1c0.3,-0.5,0.7,-1.4,1.9,-2.2c1.2,-0.7,2.3,-0.9,3.3,-0.9c1.1,0,2.3,0,3,-0.1c0.6,0,0.8,-0.4,0.8,-0.4c0,0,0.3,0.6,1.6,1.3c1.2,0.7,2,2.3,2.5,3.8c0.5,1.5,0.9,4.5,0.9,5.4c0,0.9,-0.1,1.8,-0.1,1.8c0,0,0.5,-0.4,0.5,-0.1c0,0.2,-0.1,0.9,-0.2,1.1c0,0.2,0.5,-0.6,0.5,-0.6c0,0,-0.1,1.1,-0.3,1.7c-0.1,0.5,-0.2,1.5,-0.4,2.2c-0.1,0.7,-0.9,2.7,-1.1,3.4c-0.2,0.6,-1,2.3,-0.7,2.2c0.2,-0.2,1.8,-2.4,2.3,-3.7c0.5,-1.3,1,-4.5,1.2,-3.8c0.2,1.5,-0.5,4.3,-0.5,4.3c0.6,-1.3,0.8,-4.6,0.8,-4.9c0,-0.4,-0.3,-2,-0.3,-2.3c-0.1,-0.3,0.2,-2.5,0.2,-2.3c0,0.2,0.3,3.4,0.3,3.4c0,0,0,-0.5,0.1,-1.3c0.1,-0.8,-0.1,-1.8,0,-2Z" class="g6_172" />
</g>
<path d="M199.3,783.1c0,0,0.1,0.8,0.5,1.4c0.3,0.7,0.9,1.7,0.9,1.9c0,0.1,0,-0.9,-0.2,-1.4c-0.1,-0.4,-1.3,-1.6,-1.2,-1.9Z" class="g6_172" />
<path d="M193.3,781.9c0,0,0.3,-0.3,0.6,-0.4c0.3,0,1.1,0,1.4,0.1c0.3,0.1,0.8,0.4,1.1,0.6c0.2,0.2,0.5,0.5,0.5,0.5l0.8,0c0,0,-1,0.2,-1.1,0.1c0,0,-0.5,-0.5,-0.6,-0.7c-0.2,-0.1,-0.7,-0.4,-1.1,-0.4c-0.5,-0.1,-0.7,-0.1,-1,0c-0.2,0.1,-0.6,0.2,-0.6,0.2Z" class="g6_172" />
<path d="M194.7,782.1c-0.1,0,0,-0.1,0,-0.1c0.2,-0.1,0.2,0,0.2,0.1c0,0,-0.2,0.1,-0.2,0m1.1,0.2c-0.2,-0.2,-0.2,-0.3,-1.1,-0.5c-1,-0.2,-1.9,0.9,-1.9,0.9c0,0,1.1,-0.9,1.2,-0.6c0.1,0.3,0.2,0.6,0.7,0.6c0.7,-0.1,0.4,-0.6,0.5,-0.6c0.1,0,0.5,0.4,0.6,0.4c0.1,0,0.5,0.1,0.5,0.1c0,0,-0.3,-0.2,-0.5,-0.3Z" class="g6_172" />
<path d="M190.3,786.6c0,0,-0.3,-0.4,-0.9,-0.5c-0.6,0,-0.4,0.4,-0.4,0.4c0,0,0.3,0.1,0.6,0.1c0.4,0,0.7,0,0.7,0Z" class="g6_172" />
<path d="M191.1,786.5c0,0,0.3,-0.3,0.7,-0.3c0.4,0,0.6,0,0.7,0.1c0.1,0.2,0,0.3,-0.1,0.3c-0.1,0,-1.3,-0.1,-1.3,-0.1Z" class="g6_172" />
<path d="M188.4,785.8c0,0,0,0.4,0,0.6c0.1,0.2,0.4,0.3,0.6,0.3c0.2,0,0.5,0.1,0.9,0.1c0.3,0,0.4,0,0.7,0c0.3,0.1,0.5,0,0.6,0c0.1,0,-0.2,0.2,-0.8,0.1c0,0,-0.5,0,-0.9,0c-0.5,0,-1.1,-0.2,-1.2,-0.4c0,-0.2,0.1,-0.7,0.1,-0.7Z" class="g6_172" />
<path d="M187.5,786.8c0,0,-0.7,0.5,-0.8,0.6c-0.1,0.2,-0.3,0.5,-0.2,0.9c0.1,0.4,0.6,0.7,0.6,0.7c0,0,-0.5,-0.8,-0.4,-1.1c0.1,-0.3,0.8,-1.1,0.8,-1.1Z" class="g6_172" />
<path d="M193.7,786.5c0,0,1.3,1,1.3,1.6c0,0.6,-0.4,1.6,-0.5,1.8c-0.1,0.2,0.8,-0.8,0.7,-1.8c-0.1,-1,-1.5,-1.6,-1.5,-1.6Z" class="g6_172" />
<path d="M187.5,788.7c0,0,0.1,0.2,0.6,0.9c0.5,0.6,1.1,1.1,2.4,1.1c0,0,1.7,0.2,2.7,-0.6c1,-0.8,-0.6,0.3,-2,0.3c-1.4,-0.1,-2.6,-0.7,-2.6,-0.7c0,0,1.6,0.4,2.2,0.4c0.7,0,1.4,-0.1,1.8,-0.2c0.5,-0.1,1.7,-0.9,1.7,-0.9c0,-0.1,-0.9,0.9,-3.2,0.9c-2.3,-0.1,-2.7,-0.5,-3.6,-1.2Z" class="g6_172" />
<path d="M191.5,788.1c-0.4,0,-1.7,0,-2.1,0c-0.3,0.1,-1.7,0.3,-2,0.5c0.2,0.1,1.5,0.2,2.1,0.2c0.6,0,1.2,0.1,1.8,0.1c0.6,0,3,0.1,3,0.1c0,0,-0.2,-0.4,-2.8,-0.9Z" class="g6_172" />
<g clip-path="url(#c6_172)">
<path d="M184.2,787.8c0,0,0.5,2.2,1.1,3c0.4,0.7,2.4,2.7,2.9,3.2c1.1,1,5,0.4,4.9,0.3c-1,0.3,-3.7,1.4,-3.5,2.5c0.5,2.8,3,2.6,2.7,3.1c-0.3,0.4,-1,1,-0.9,0.9c0.1,0,0.6,-0.9,0.5,-1c0,-0.1,-0.5,0.3,-1.3,-0.2c-0.8,-0.4,-1.1,-0.9,-1.4,-1.6c-0.2,-0.8,-0.1,-1.3,-0.3,-1.5c-0.1,-0.2,-0.1,-0.9,-0.8,-1.8c0,2.3,-0.4,2.6,-1.2,2.7c0.4,-0.2,0.8,-1.3,1,-1.8c0.1,-0.4,-0.1,-1.8,-0.2,-1.9c-0.1,0,-2.3,-2.3,-2.6,-2.9c-0.5,-0.7,-0.9,-3,-0.9,-3Z" class="g6_172" />
<path d="M193.9,794c0.1,0,1.9,-1.2,2.3,-1.5c0.3,-0.3,1.3,-1.5,1.4,-1.8c0.1,-0.2,0.7,-1.2,0.7,-2.2c0.1,-1,0.5,-2,0.5,-2c0,0,-0.1,0.6,-0.1,1c0,0.4,-0.4,2.5,-0.8,3.1c-0.5,0.6,-1.2,1.2,-1.2,1.5c-0.1,0.3,0,1.7,0.1,1.9c0.1,0.3,-0.3,1.3,-0.6,1.7c-0.3,0.5,-0.9,1.7,-1.3,2c-0.4,0.3,-0.1,-0.9,0.4,-1.8c0.4,-1,0.5,-1.9,0.6,-2.2c0.1,-0.4,0.1,-0.6,-0.5,-0.2c-0.6,0.4,-1.5,0.5,-1.5,0.5Z" class="g6_172" />
<path d="M187.6,796.1c0,0,-0.9,0.2,-1,0.3c-0.2,0.1,-0.4,0.5,-0.6,0.6c-0.1,0.2,-0.3,1.1,-0.4,1.2c0,0.2,-0.3,1.7,-0.3,1.8c0.1,0.1,0.2,0.4,0.5,0.5c0.3,0,3.2,0.7,5.4,0.6c-1.4,-0.2,-4.9,-0.4,-5.3,-1c-0.3,-0.6,0,-0.5,0.1,-1.1c0.2,-0.6,0,-1.6,0.2,-1.8c0.2,-0.3,0,-0.6,1.4,-1.1Z" class="g6_172" />
<path d="M187.7,795.9c0,0,-1,0.2,-1.3,0.3c-0.3,0.2,-0.6,0.5,-1,0.5c-0.3,0.1,-0.8,0.5,-1.3,0.5c-0.6,0,-2,0.6,-2.4,0.6c-0.4,0,-1.5,0.3,-1.5,0.3c0,0,-0.4,0.4,-0.3,0.4c0,-0.1,-0.1,-0.1,0.7,-0.3c0.8,-0.2,1.1,-0.1,1.1,-0.1c0,0,-0.5,0.8,-0.6,1c-0.2,0.3,-0.9,1.4,-1.1,1.7c-0.2,0.3,1.5,-1.1,1.8,-1.6c0.3,-0.6,0.7,-1.1,0.9,-1.2c0.3,-0.2,0.8,-0.3,0.9,-0.3c0.2,0,-0.3,0.8,-0.8,1.3c-0.4,0.6,-1,1.4,-0.9,1.4c0,-0.1,2,-2.6,2.5,-2.9c0.6,-0.3,1.1,-0.5,1.4,-0.7c0.2,-0.1,0.7,-0.6,1.9,-0.9Z" class="g6_172" />
</g>
<path d="M191.3,865.7c0,0,0.2,-0.3,-0.3,-0.6c-0.5,-0.3,-1.1,-0.5,-2.4,-0.5c-1.3,0.1,-1.5,0.4,-1.5,0.4c0,0,0.8,0,1.2,0c0.5,0.1,1,0,1.6,0.4c0.6,0.3,1.1,0.5,1.4,0.3Z" class="g4_172" />
<path d="M196.1,865.7c0,0,-0.9,-0.1,-1.3,-0.1c-0.3,0.1,-0.6,0.3,-0.5,0.5c0.2,0.1,0.6,0.2,1.3,0.2c0.7,0,0.7,0.1,0.8,0.1c0.1,0,-0.3,-0.7,-0.3,-0.7Z" class="g4_172" />
<path d="M189.4,866.7c-0.1,0,-0.1,0,-0.1,-0.1c0,-0.1,0,-0.2,0.1,-0.2c0.1,0,0.1,0.1,0.1,0.2c0,0.1,0,0.1,-0.1,0.1m0.4,-0.4c-1,-0.5,-2,0.1,-2,0.1l0.5,0.2c0,0,0.1,-0.2,0.3,-0.2c0.3,-0.1,0.4,-0.1,0.4,-0.1c0,0,-0.2,0.6,0.3,0.7c0.5,0.2,0.7,0.1,0.8,-0.1c0,-0.2,0,-0.3,0,-0.3c0,0,0.3,0,0.7,0.7c0,0,0,-0.6,-1,-1Z" class="g4_172" />
<path d="M195.5,867.7c-0.1,0,-0.2,-0.1,-0.2,-0.2c0,-0.1,0.1,-0.1,0.2,-0.1c0.1,0,0.1,0,0.1,0.1c0,0.1,0,0.2,-0.1,0.2m0.8,-0.4c0,0,-0.4,-0.1,-0.9,-0.1c-0.5,0,-1.1,0.7,-1.1,0.7l0.4,0c0,0,0,-0.3,0.4,-0.4c0,0.2,-0.1,0.3,0.4,0.5c0.4,0.1,0.6,-0.1,0.6,-0.2c0.1,-0.1,0,-0.4,0,-0.4Z" class="g4_172" />
<path d="M193.7,866.9c-0.1,0.1,-0.8,1.1,-0.9,1.8c-0.1,0.7,-0.2,1.5,0,1.8c0.1,0.2,0.3,0.7,0.3,0.8c0,0.1,0.3,0,0.4,-0.1c0,-0.1,0.1,-0.6,0.2,-0.5c0.1,0.1,0.3,0.4,0.3,0.6c-0.1,0.1,0,0.5,-0.2,0.6c-0.2,0,-0.3,-0.1,-0.6,-0.1c-0.3,0.1,-0.3,0.1,-0.6,0.2c-0.2,0.1,-0.6,0.2,-0.8,0.1c-0.2,-0.1,-0.4,-0.5,-0.7,-0.6c-0.3,-0.1,-0.5,0,-0.5,0c0,0,0.3,0.1,0.6,0.2c0.2,0.2,0.6,0.6,0.9,0.6c0.3,0,0.8,-0.3,1.2,-0.3c0,0,0.2,0.1,0.5,0c0.2,0,0.5,-0.5,0.3,-1.1c-0.2,-0.5,-0.3,-0.4,-0.5,-0.7c-0.2,-0.4,-0.3,-1.2,-0.3,-1.7c0,-0.6,0.4,-1.6,0.4,-1.6Z" class="g4_172" />
<path d="M189.7,870.7c-0.1,0.1,-1.1,0.7,-1.5,1c-0.4,0.3,-0.6,0.5,-0.5,0.8c0.1,0.4,0.3,0.9,0.3,0.9c0,0,-0.6,-1.1,-0.6,-1.3c0,-0.1,2.3,-1.4,2.3,-1.4Z" class="g4_172" />
<path d="M191.9,874.4c-1.1,0,-1.3,-0.4,-1.6,-0.6c-0.3,-0.1,-1,-0.8,-1,-0.8c0,0,2.2,0.6,2.5,0.6c0.2,0,0.8,0,1.3,0.1c0.6,0,0.7,0.1,0.7,0.1c0,0,-0.9,0.7,-1.9,0.6m2.5,-0.9c-0.1,0,-0.5,0,-1,-0.1c-0.6,-0.1,-0.9,-0.3,-1.1,-0.3c-0.2,0,-0.4,0,-0.7,0c-0.3,0,-0.7,-0.2,-0.9,-0.2c-0.2,0,-1.1,-0.1,-1.4,-0.1c-0.3,-0.1,-0.8,-0.4,-0.9,-0.4c0,0,0.7,1.5,1.2,1.8c0.5,0.3,1.1,0.7,1.1,0.7c0,0,-0.2,-0.1,-0.4,-0.3c-0.1,-0.2,0.4,0,0.3,-0.1c-0.1,-0.1,-0.5,-0.2,-0.7,-0.3c-0.1,0,0.3,-0.1,0.6,0c0.2,0.2,0.3,0.2,0.5,0.3c0.2,0.1,0.1,0.2,0.2,0.4c0,0.1,-0.4,0.2,0,0.2c0.4,0,1.4,0,1.9,-0.2c0.6,-0.2,0.8,-0.5,1,-0.9c0.2,-0.4,0.4,-0.6,0.3,-0.5Z" class="g4_172" />
<path d="M190.6,877.7c0,0,0.5,0.2,1.4,0c1,-0.3,3.3,-2.2,3.3,-2.2c0,0,0,0.1,0,0.5c0,0.5,-0.3,0.3,-0.1,1.2c0.1,1,0.3,1.4,0.3,1.6c0.1,0.2,0.1,0.4,-0.1,0.5c-0.1,0.1,0.1,-0.7,-0.2,-1.1c-0.3,-0.4,-0.2,-0.6,-0.7,-0.7c-0.5,0,-0.6,-0.2,-1,0.1c-0.3,0.2,0.1,0.2,-0.9,0.4c-0.9,0.1,-1.9,-0.1,-2,-0.3Z" class="g4_172" />
<g clip-path="url(#c7_172)">
<path d="M179.3,881c-0.1,0.1,0.5,-0.8,0.6,-0.6c0.2,0.2,0.1,0.1,0.5,1.4c0.4,1.4,1.7,5.1,5.9,5.3c4.2,0.2,7.8,-1.3,7.8,-1.3c0,0,-5.7,1.8,-8.8,0.7c-3.1,-1,-3.4,-2.4,-3.8,-3.2c-0.4,-0.8,-0.6,-1.5,-1,-2.1c-0.3,-0.6,-0.6,-1.7,-1.2,-0.2Z" class="g4_172" />
<path d="M202.4,879.4c0.2,0,0.5,0.2,0.5,0.4c0,0,-0.6,0.2,-1,0.6c-0.4,0.3,-1.6,2.1,-2.6,2.9c-1,0.9,-1.9,2.2,-4,3.2c-2.1,1,-3.7,1.2,-3.8,1.2c-0.1,0,4.6,-1.6,6.5,-3.5c1.9,-1.8,2.5,-2.9,3.1,-3.4c0.5,-0.6,1.3,-1.4,1.3,-1.4Z" class="g4_172" />
<path d="M178.3,880.8c-0.5,0.2,-0.4,0.3,-1,0.5c-0.7,0.2,-2.7,2.4,-3,5.2c-0.3,2.8,0.7,-0.9,1,-0.6c0.4,0.3,0.8,0.5,1,1.1c0.3,0.6,1.7,1.5,1.6,0.7c-0.2,-0.7,-0.9,-1.8,-0.1,-2.5c0.7,-0.6,0.5,-1.9,1,-2.1c0.6,-0.1,1.1,0.5,1.4,1.2c0.2,0.7,1.1,1.4,1.1,1.3c-0.1,-0.1,-1.4,-2.5,-1.5,-3.3c-0.2,-0.8,-0.4,-1,-0.7,-1.1c-0.3,-0.2,-0.8,-0.4,-0.8,-0.4Z" class="g4_172" />
<path d="M202.4,884.2c-1,1.5,-1.3,3.9,-1.3,3.9c0,0,0.9,-3,1.7,-3.9c0.8,-0.9,1.8,-2.2,2.5,-2.4c0.8,-0.2,1.3,-0.3,1.7,0.5c0.4,0.7,1,2.4,1,2.7c0,0.2,0,-0.4,0.2,-0.7c0.2,-0.2,0.1,-0.3,-0.2,-0.9c-0.3,-0.6,-0.8,-2.3,-2.5,-2.7c-1.6,-0.3,-2,-0.4,-2.4,-0.3c-0.4,0.1,-1.5,1.1,-2.7,2.4c-1.1,1.4,1.5,-1.3,2.6,-1.7c1.1,-0.4,2.9,-0.3,2.5,0c-0.3,0.3,-2.1,1.7,-3.1,3.1Z" class="g4_172" />
<path d="M181.6,881c0,0,1.4,-0.2,3.9,-2c2.4,-1.8,1.7,-1.3,1.8,-1.8c0,-0.5,-0.1,2.1,-2.5,2.9c-2.4,0.8,-3.2,0.9,-3.2,0.9Z" class="g4_172" />
<path d="M200.7,874c-0.1,0,-0.1,0,-0.2,-0.1c-1.2,-0.5,-1,-0.8,-1.7,-1.8c-0.7,-0.9,-1.2,-2.6,-2.1,-5.2c-0.9,-2.7,-1.4,-3.1,-1.4,-3.1c-0.4,-0.8,-2.2,-3.4,-2.1,-3.3c0.1,0.2,3.1,3.5,3.7,6c0.6,2.5,2.3,5.3,3,6.6c0.2,0.4,0.5,0.7,0.8,0.9c1,0.5,1.4,0.5,1.4,0.5c0,0,-0.7,0,-1.4,-0.5m-9.4,-17.1c0.1,0,1.8,0.1,3.5,1.3c1.7,1.2,2.2,1.3,3.6,3.4c1.4,2.1,-0.1,0.3,-1.9,-1.6c-2.4,-2.5,-5.2,-3.1,-5.2,-3.1m2.4,-1.3c0.9,0.1,2.3,0.7,2.7,1c0.6,0.4,1.2,1.1,1.8,1.8c0.6,0.7,1.2,1.4,2,3c0.8,1.6,1.8,4.4,2.2,6.4c0.3,1.6,0.7,2.8,0.9,3.2c0,0.2,0.1,0.2,0.1,0.2c0,0,-0.1,0,-0.1,-0.2c-0.3,-0.8,-1.6,-4.5,-1.9,-5.5c-0.3,-1.1,-1.6,-4.5,-2.7,-5.9c-1,-1.4,-1.9,-2.2,-2.9,-2.8c-1.1,-0.5,-3.8,-1.2,-3.8,-1.2c0.2,-0.2,0.8,-0.2,1.7,0m-6.6,4.3c-0.6,0.5,-1,1,-1.8,2.2c-0.9,1.3,-1.2,6.2,-1.3,6.8c0,0.3,-0.7,2,-1.2,3.3c-0.2,0.7,-0.3,1.2,-0.5,1.4c-0.1,0.1,0.2,-0.5,0.5,-1.4c0.1,-0.3,0.2,-0.7,0.3,-1.1c0.3,-1.3,0.5,-3.2,0.5,-3.2c0,0,-0.4,1,-1,1.6c-0.7,0.6,-1.8,1.7,-1.9,1.8c-0.1,0,0.5,-0.6,1.1,-1.4c0.6,-0.8,1.8,-2.4,2,-3.5c0.3,-1,0.5,-3,0.1,-2.3c-0.2,0.4,-1,1.8,-1.4,2.5c-0.1,0.2,-0.2,0.4,-0.3,0.4c0,0.1,0.1,-0.1,0.3,-0.4c0.2,-0.6,0.7,-1.6,1,-2.4c0.4,-1.1,0.4,-2,0.8,-2.8c0.4,-0.9,1,-1.1,1.5,-1.7c0.5,-0.6,1.1,-0.6,1.2,-0.5c0,0,-0.1,0.4,-0.7,0.8c-0.6,0.4,-0.6,0.4,-0.8,0.8c-0.3,0.3,-0.8,2,-0.8,2c0,0,0.2,-0.3,0.7,-1.3c0.5,-0.9,1.9,-1.9,1.7,-1.6M181,875.6c-0.3,-1.6,-0.6,-2,-0.5,-2.3c0,-0.2,0.3,-0.5,0.5,-0.6c-0.1,0.1,-0.3,0.4,-0.2,0.8c0,0.7,0.1,1.8,0.6,2.6c0.2,0.3,0.5,0.8,0.9,1.2c-0.4,-0.2,-1.1,-0.6,-1.3,-1.7m20.8,1.2c0.4,-0.2,2,-3.3,1.9,-5.7c0,-2.3,-1.6,-8.5,-2.8,-10.9c-1.1,-2.5,-3.3,-4.9,-5,-5.5c-1.6,-0.6,-3.5,-0.2,-3.8,-0.2c-0.3,0,-1.6,-0.2,-1.9,-0.1c-0.4,0.1,-1.3,0.1,-2,0.4c-0.8,0.3,-3.5,2.2,-4.8,5c-1.2,2.7,-1.1,5.6,-1.3,6.3c-0.2,0.7,-1.3,1.9,-1.3,2.9c0,1,-0.3,1.3,-0.5,2.1c-0.1,0.8,-0.7,1.9,-0.4,3.3c0.3,1.3,0.5,2.4,1.7,2.8c0.4,0.1,0.6,0.1,0.7,0.2c0.6,0.7,1.2,1.3,1.5,1.4c0.5,0.2,1,0.3,1.7,0.2c0.6,-0.1,1.6,-1,1.7,-1.1c0.2,-0.2,0,-0.7,0.1,-1.2c0,-0.5,-0.2,-2,-0.2,-2c0,0,-1.4,-1.9,-1.6,-3.3c-0.2,-1.5,-0.2,-7.2,0.5,-8.6c0.7,-1.3,1.1,-2.5,2.3,-3.1c1.3,-0.6,1.4,-1,1.4,-1.4c0.1,-0.1,0.1,-0.3,0,-0.4c0.1,0.2,0.2,0.5,0.6,0.8c0.5,0.4,1,0.7,2.3,2c1.3,1.3,2.6,3.1,2.9,4.2c0.4,1.1,0.6,1.8,0.9,3.1c0.4,1.2,0.6,3,1.4,4.1c0.2,0.6,-2.1,2.9,-2.1,2.9l0,1.7c0,0.5,0.1,1.1,0.4,1.3c0.2,0.2,0,0.4,-0.2,0.8c-0.2,0.3,-0.3,0.8,-0.2,1.3l0.1,0.6c0,0,0,-0.3,0.8,-0.3c0.8,-0.1,1.8,-0.9,1.8,-0.9c0,0,0.4,0.8,0.9,1.1c0.5,0.3,1.2,0.2,1.2,0.2c0,0,-1.1,-0.5,-1.1,-0.8c0,-0.4,0.7,-0.4,1,-0.2c0.4,0.2,0.6,0.2,1,0.1c0.4,-0.1,0.7,-0.4,0.7,-0.4c0,0,-0.6,-1.1,-0.7,-1.5c0,-0.4,0.1,-0.9,0.4,-1.2Z" class="g4_172" />
</g>
<path d="M189.2,926.8c-0.1,0,-0.1,-0.1,-0.1,-0.2c0,0,0,-0.1,0.1,-0.1c0.1,0,0.2,0.1,0.2,0.1c0,0.1,-0.1,0.2,-0.2,0.2m0.5,-0.4c-0.1,-0.1,-0.7,-0.1,-0.9,-0.1c-0.3,0,-1.2,0.4,-1.2,0.4c0,0,0.2,0,0.2,0c0.1,0,0.5,-0.2,0.5,-0.2c0,0,-0.1,0.5,0.5,0.7c0.5,0.1,0.8,-0.3,0.8,-0.5c0.1,-0.3,1,0.4,1.2,0.6c-0.2,-0.1,-0.9,-0.8,-1.1,-0.9Z" class="g7_172" />
<path d="M196.3,927.1c-0.1,0,-0.2,-0.1,-0.2,-0.2c0,-0.1,0.1,-0.1,0.2,-0.1c0.1,0,0.1,0,0.1,0.1c0,0.1,0,0.2,-0.1,0.2m1.4,-0.1c0,0,-0.6,-0.3,-1,-0.4c-0.3,-0.1,-0.6,0,-1,0.1c-0.5,0.2,-1.3,0.8,-1.3,0.8c0,0,1,-0.7,1.1,-0.5c0.1,0.3,0.1,0.6,0.7,0.5c0.7,-0.1,0.5,-0.7,0.5,-0.7c0,0,0.1,0,0.4,0.1c0.3,0.1,0.6,0.1,0.6,0.1Z" class="g7_172" />
<path d="M191.5,926.1c0.1,-0.1,0.3,-0.7,-0.3,-1c-0.6,-0.3,-1.8,-0.5,-2.3,-0.5c-0.5,0,-1.5,0.3,-1.8,0.4c-0.3,0.1,-0.6,0.5,-0.6,0.5c0,0,0.9,-0.2,1.4,-0.1c0.6,0,1.1,0,1.7,0.2c0.6,0.1,1.3,0.5,1.5,0.5c0.2,0.1,0.4,0,0.4,0Z" class="g7_172" />
<path d="M194.3,926.1c0,0,0.1,-0.9,1,-1.1c0.8,-0.1,2,-0.3,2.4,-0.2c0.4,0.2,1,0.5,1.2,1c-0.2,-0.1,-0.8,-0.3,-1.4,-0.3c-0.6,0.1,-1.8,0.4,-2.3,0.5c-0.4,0.2,-0.8,0.3,-0.9,0.1Z" class="g7_172" />
<path d="M190.8,930.2c-0.1,0,-0.6,0.5,-0.7,0.8c-0.2,0.4,-0.1,0.7,0,0.8c0.1,0.1,0.6,0.2,0.9,0.1c0.4,0,1,0.1,1.1,0.1c0.1,0.1,0.4,0.3,0.5,0.4c0,0,0.5,0.1,0.7,0c0.2,-0.1,0.3,-0.3,0.5,-0.4c0.2,0,0.6,0,0.9,0c0.3,0,0.4,0,0.4,0.1c-0.1,0,-0.5,0.2,-0.7,0.1c-0.2,0,-0.6,0,-0.7,0c-0.1,0.1,-0.4,0.4,-0.6,0.4c-0.2,0,-0.4,0.1,-0.9,-0.2c-0.6,-0.4,-0.9,-0.3,-1.4,-0.3c-0.6,-0.1,-0.9,-0.2,-1,-0.6c0,-0.7,1,-1.3,1,-1.3Z" class="g7_172" />
<path d="M194.5,929.9c0,0,0,0.2,0.1,0.4c0.1,0.3,0.5,0.4,0.6,0.6c0.2,0.2,0.2,0.4,0.2,0.5c0,0,0.1,-0.3,-0.1,-0.6c-0.1,-0.3,-0.5,-0.4,-0.6,-0.6c-0.1,-0.2,-0.2,-0.3,-0.2,-0.3Z" class="g7_172" />
<path d="M188.4,933.6c0,0,2,-0.4,3.3,-0.4c0.8,0.1,1.6,0.1,1.9,0c0.2,-0.1,2.2,0.5,2.2,0.5c0,0,0,0.2,-0.2,0.3c-0.1,0.2,-0.6,0.3,-0.8,0.3c-0.1,0,-1.4,-0.1,-1.8,-0.1c-0.4,0,-1.2,-0.2,-1.7,-0.1c-0.5,0,-1.5,0,-1.7,-0.1c-0.2,-0.1,-0.8,-0.2,-0.8,-0.2c0,0,0.6,0.3,1,0.6c0.4,0.2,2,0.8,2.4,0.9c0.4,0.1,0.9,-0.1,1.3,-0.2c0.4,-0.2,0.2,-0.2,0.7,-0.3c0.6,-0.1,1,-0.4,1.1,-0.4c0,0,0.1,0.1,-0.1,0.4c-0.3,0.4,-0.6,1.3,-1.8,1.6c-1.2,0.2,-2.2,-0.1,-3.1,-0.8c-1,-0.7,-1.2,-1.1,-1.2,-1.1c0,0,1.5,1.3,2.4,1.5c0.9,0.2,1.3,0.1,1.8,-0.1c0.6,-0.1,1,-0.5,1,-0.6c0,-0.1,0,-0.1,-0.7,0.2c-0.6,0.2,-1.1,0.4,-2,0.2c-0.9,-0.2,-1.5,-0.7,-1.8,-0.9c-0.3,-0.2,-1,-0.9,-1.4,-1.2Z" class="g7_172" />
<path d="M195.8,932.5c0,0,0.4,0.6,0.6,0.8c0.2,0.3,0.2,0.5,0.2,0.5c0,0,0.2,-0.2,0.1,-0.4c-0.1,-0.2,-0.5,-0.8,-0.9,-0.9Z" class="g7_172" />
<path d="M188.9,932.2c0.1,-0.1,-0.8,0.7,-0.8,0.8c0,0.2,0,1.2,0,1.3c0.1,0.2,-0.2,-1.2,0.8,-2.1Z" class="g7_172" />
<g clip-path="url(#c8_172)">
<path d="M183.4,924.6c-0.1,-0.1,0.4,0.3,0.5,0.3c0,0.1,0.1,-0.2,0,-0.4c0,-0.1,-0.3,-0.6,-0.3,-1c-0.1,-0.5,-0.1,-1.9,-0.1,-2.2c0,-0.4,0.2,-2.7,0.6,-3.5c0.5,-0.8,1,-1.5,1.2,-1.8c0.2,-0.3,1.9,-1.6,3.3,-2c1.4,-0.4,2.5,-0.7,4.2,-0.4c1.7,0.3,3,0.8,3.5,1.2c0.5,0.4,1.8,1.7,2.2,2.1c0.4,0.5,0.3,0.6,0.7,1c0.3,0.4,0.5,1.7,0.6,2.1c0,0.3,-0.1,1.9,-0.1,2c-0.1,0.2,-0.1,0.8,-0.2,1.3c-0.1,0.5,-0.2,1.2,-0.2,1.6c0.1,0.5,-0.2,1.3,-0.2,1.3c0,0,-0.1,-1.2,-0.1,-1.4c0,-0.3,0,-2.4,-0.1,-2.8c-0.1,-0.3,0.1,-0.7,0.1,-1c0,-0.3,0,-0.9,-0.1,-1.2c-0.1,-0.3,-0.2,-1.1,-0.5,-1.5c-0.4,-0.3,-0.7,-0.5,-0.9,-0.4c-0.1,0.1,0,0.3,-0.4,0.2c-0.3,-0.1,-0.3,-0.2,-0.4,-0.2c-0.1,-0.1,-0.2,0,-0.4,0.1c-0.2,0.1,-0.6,-0.1,-0.8,-0.1c-0.1,0,-0.5,0.1,-0.7,0.1c-0.2,-0.1,-0.3,0.1,-0.7,0c-0.4,-0.1,-0.7,0,-0.7,-0.1c-0.1,-0.1,-0.2,-0.1,-0.4,-0.2c-0.2,-0.1,-0.5,0,-0.3,0.1c0.2,0,0.4,0.3,0.2,0.2c-0.2,0,-0.3,0,-0.6,-0.1c-0.4,-0.1,-0.4,0.1,-0.6,0.1c-0.1,0,-0.7,0.2,-0.9,0.1C190.6,918,190.2,918,190,918c-0.3,-0.1,-0.7,0.1,-0.8,0c-0.1,-0.1,-0.2,-0.1,-0.5,-0.1c-0.2,0,-0.3,0,-0.5,0c-0.1,0,-0.5,-0.1,-0.5,-0.1c0,0,-0.1,0.2,-0.4,0.2c-0.2,0,-0.5,0,-0.6,0c-0.1,0,-0.3,0.3,-0.4,0.3c-0.1,0,-0.2,0.1,-0.3,0.3c0,0.1,-0.1,0.6,-0.1,0.6l0,0.5c0,0,-0.2,0.8,-0.2,1c0,0.1,0.1,0.9,0.1,1.1c-0.1,0.3,-0.1,0.9,-0.1,1c-0.1,0.1,-0.4,0.5,-0.5,0.6c0,0.1,-0.3,0.2,-0.3,0.4c0,0.2,-0.2,0.4,-0.3,0.5c-0.1,0.1,-0.3,1.2,-0.3,1.2c0,0,-0.7,-0.9,-0.9,-0.9Z" class="g7_172" />
</g>
<path d="M199.7,925c0,0,-0.1,0.4,-0.1,0.6c-0.1,0.1,-0.3,0.3,-0.4,0.7c-0.1,0.4,0.1,0.9,0.1,1.1c0.1,0.3,0.1,0.5,0.1,0.5c0,0,0.1,-1,0.1,-1.2c0,-0.1,0,-0.6,0,-0.7c0,-0.2,0.2,-0.7,0.2,-1Z" class="g7_172" />
<path d="M184,927.3c0.1,-0.1,0.1,-0.5,0,-0.5c0,-0.1,-0.1,-0.2,-0.3,0.1c-0.2,0.2,-0.4,0.3,-0.5,0.5c-0.1,0.3,-0.2,0.5,0,0.7c0.1,0.2,0.5,0.2,0.6,0.5c0.2,0.3,0.6,0.4,0.6,0.4c0,0,-0.3,-0.4,-0.3,-0.6c0,-0.1,-0.3,-0.1,-0.4,-0.3c0,-0.3,0,-0.5,0,-0.5c0.1,0.1,0.2,0.4,0.3,0.4c0.1,0,0,-0.7,0,-0.7Z" class="g7_172" />
<g clip-path="url(#c8_172)">
<path d="M182.9,926.9c0.1,-0.1,0.5,-1.1,0.5,-1.3c-0.1,-0.1,0.2,0.4,0.3,0.6c0.2,0.1,0.4,0.3,0.3,0.2c0,-0.2,-0.3,-0.9,-0.5,-1.1c-0.1,-0.1,-0.4,-0.5,-0.5,-0.4c-0.2,0.2,-0.3,0.9,-0.3,1.2c-0.1,0.3,0,0.6,0.1,0.9c0,0.3,0,0.5,0,0.9c0.1,0.3,0.2,1,0.3,1.3c0.1,0.3,0.1,0.4,0.3,0.8c0.2,0.4,0.3,0.5,0.6,0.5c0.2,0.1,0.6,0,0.6,0c0,0,0.1,0.7,0.1,0.8c0.1,0.2,0.4,2.3,0.8,3.6c0.2,0.7,-0.3,2.7,-0.3,2.7c0,0,-1.4,1.6,-3,2.1c-1.7,0.5,-4.2,1.9,-4.1,2c-0.2,0,2.1,-1.2,2.7,-1c0.5,0.2,1.2,-0.2,1.4,-0.4c0.2,-0.2,1.4,-0.8,1.6,-1c0.2,-0.2,1,-0.9,1.1,-1c0.2,-0.2,0.4,-0.4,0.6,-1c0.1,-0.7,0.2,-1.8,0.1,-2.4c-0.1,-0.6,-0.7,-2.1,-0.8,-4.5c0,-0.2,-0.7,0,-1,-0.2c-0.3,-0.1,-0.3,-0.4,-0.4,-0.7c-0.1,-0.2,-0.1,-0.4,-0.2,-0.6c0,-0.3,-0.2,-0.6,-0.2,-0.8c0,-0.3,-0.1,-1.2,-0.1,-1.2Z" class="g7_172" />
<path d="M186.7,936.5c0.1,0,1.5,1.6,2,1.9c0.4,0.4,1.2,1.1,1.5,1.2c0.3,0.2,1.4,0.5,2,0.5c0.5,0,1,0,1.3,-0.1c0.3,-0.1,1.3,-0.9,1.5,-1.2c0.2,-0.3,1.3,-1.7,1.6,-2.1c0.3,-0.3,0.9,-0.9,1.1,-1.4c0.2,-0.6,0.8,-1.8,1,-2.7c0.2,-0.8,0.7,-4.2,0.7,-4.3c0.1,0.2,-0.3,4.1,-1.2,6c-0.8,1.9,-1.8,2.8,-1.9,2.9c0,0.2,-0.1,1.3,-0.1,1.6c0,0.3,-0.1,0.5,0.4,0.9c0.5,0.3,1.1,0.4,1.6,0.7c0.5,0.3,1.8,1.4,1.8,1.4c0,0,-2.2,-1.4,-2.4,-1.4c-0.1,0,-1,-0.3,-1.3,-0.4c-0.2,-0.2,-0.1,-0.9,-0.5,-0.9c-0.4,-0.1,-0.5,0,-0.7,0.1c-0.1,0.1,-0.9,0.6,-1.2,0.8c-0.2,0.2,-1.3,0.5,-2.3,0.3c-0.9,-0.1,-1.6,-0.2,-2.8,-1.5c-1.2,-1.2,-2.1,-2.3,-2.1,-2.3Z" class="g7_172" />
<path d="M180.7,940.3c0,0,2,1.5,2.3,1.8c0.3,0.3,1.7,1.4,2.1,1.8c0.4,0.5,2.2,1.7,4.2,1.9c2,0.2,3.5,0.3,4.5,0.2c1,-0.2,1.5,-0.6,1.5,-0.6c0,0,-0.9,0.8,-1.7,0.9c-0.9,0.1,-3.2,-0.1,-3.9,-0.2c-0.7,0,-1.9,-0.1,-3.4,-1c-1.5,-0.9,-3.9,-3,-4.4,-3.5c-0.5,-0.4,-1,-0.7,-1.6,-0.8c-0.7,0,-2.2,0.9,-2.2,0.9c0,0,2.3,-1.3,2.6,-1.4Z" class="g7_172" />
</g>
<path d="M186.7,926.7c0,0,0.6,-0.3,0.9,-0.3c0.5,-0.1,0.9,-0.1,1.2,-0.1c0.3,0,1.3,0.1,1.6,0.1c0.1,0.1,0.9,0.6,1,0.8c-0.9,-0.7,-1.3,-0.6,-1.7,-0.8c-0.3,-0.1,-1.2,0,-1.8,0c-0.6,0.1,-1.2,0.3,-1.2,0.3Z" class="g7_172" />
<path d="M194.5,927.2c0,0,0.9,-0.6,1.1,-0.6c0.3,-0.1,1.2,-0.2,1.4,-0.1c0.3,0,0.9,0.3,0.9,0.3c0.1,0,-0.3,-0.1,-0.6,-0.1c-0.2,-0.1,-1.1,-0.1,-1.3,-0.1c-0.3,0,-1.4,0.5,-1.5,0.6Z" class="g7_172" />
<path d="M876.9,1141.6l57.3,0l0,-1153.4l-57.3,0l0,1153.4Z" class="g8_172" />
<text 
x="874" 
y="1166" 
dx="0,1.2,1.2,0" 
class="s11_172"
>149 </text>

<text 
transform="matrix(0, 1, -1, 0, 888, 785)"
dx="0,1.2,1.2,1.2,1.2,1.2,1.2,1.2,1.2,1.2" 
class="s12_172"
>Lesson 15 </text>

<text 
transform="matrix(0, 1, -1, 0, 888, 875)"
dx="0,1.2" 
class="s12_172"
>| </text>

<text 
transform="matrix(0, 1, -1, 0, 888, 892)"
dx="0,1.2,1.2,1.2,1.2,1.2,1.2,1.2,1.2,1.2,1.2,1.2,1.2,1.2,1.2,1.2" 
class="s12_172"
>Gender Equality </text>

<text 
transform="matrix(0, 1, -1, 0, 888, 1028)"
dx="0,1.2" 
class="s12_172"
>| </text>

<text 
transform="matrix(0, 1, -1, 0, 888, 1045)"
dx="0,1.2,1.2,1.2,1.2,1.2,1.2,1.2,-0.3,0.9,0.9,0" 
class="s12_172"
>Pinyin Text </text>



<!-- Any embedded fonts defined here -->
<style type="text/css" ><![CDATA[

@font-face {
	font-family: GentiumBookBasic-Italic_chu;
	src: url("fonts/GentiumBookBasic-Italic_chu.woff") format("woff");
}

@font-face {
	font-family: GentiumBookBasic-Italic_cw4;
	src: url("fonts/GentiumBookBasic-Italic_cw4.woff") format("woff");
}

@font-face {
	font-family: LibreFranklin-SemiBold_1bp;
	src: url("fonts/LibreFranklin-SemiBold_1bp.woff") format("woff");
}

@font-face {
	font-family: LibreFranklin-SemiBold_cvz;
	src: url("fonts/LibreFranklin-SemiBold_cvz.woff") format("woff");
}

@font-face {
	font-family: LibreFranklin-Medium_cuw;
	src: url("fonts/LibreFranklin-Medium_cuw.woff") format("woff");
}

@font-face {
	font-family: LibreFranklin-Bold_cuv;
	src: url("fonts/LibreFranklin-Bold_cuv.woff") format("woff");
}

@font-face {
	font-family: LibreFranklin-Bold-SC700_cx9;
	src: url("fonts/LibreFranklin-Bold-SC700_cx9.woff") format("woff");
}

]]></style>

</svg>
