<?xml version="1.0" encoding="UTF-8" standalone="no"?>
<!DOCTYPE svg PUBLIC "-//W3C//DTD SVG 1.1//EN"
"http://www.w3.org/Graphics/SVG/1.1/DTD/svg11.dtd">


<!-- Page 253 -->
<svg x="0" y="0" width="921" height="1196" viewBox="0 0 921 1196" version="1.1" xmlns="http://www.w3.org/2000/svg" xmlns:xlink="http://www.w3.org/1999/xlink"
style="display: block;margin-left: auto;margin-right: auto;">
<defs>
<clipPath id="c0_253"><path d="M286.3,77.9l0,-26.1l26.1,0l0,26.1Z" /></clipPath>
<clipPath id="c1_253"><path d="M286.3,139l0,-26.1l26.1,0l0,26.1Z" /></clipPath>
<clipPath id="c2_253"><path d="M286.3,203.4l0,-26.2l26.1,0l0,26.2Z" /></clipPath>
<clipPath id="c3_253"><path d="M286.3,264.6l0,-26.1l26.1,0l0,26.1Z" /></clipPath>
<clipPath id="c4_253"><path d="M286.3,327l0,-26.2l26.1,0l0,26.2Z" /></clipPath>
<clipPath id="c5_253"><path d="M286.3,389.7l0,-26.1l26.1,0l0,26.1Z" /></clipPath>
<clipPath id="c6_253"><path d="M0,1196.3L0,0L921.3,0l0,1196.3Z" /></clipPath>
<clipPath id="c7_253"><path d="M717,768.4l0,-17.1l17.1,0l0,17.1Z" /></clipPath>

<style type="text/css"><![CDATA[

.g1_253{
fill: #F15422;
}
.g2_253{
fill: #AF0C14;
}
.g3_253{
fill: #00A54F;
}
.g4_253{
fill: none;
stroke: #9B9B9C;
stroke-width: 1.5277778;
stroke-linecap: butt;
stroke-linejoin: miter;
}
.g5_253{
fill: none;
stroke: #DC262E;
stroke-width: 1.5277778;
stroke-linecap: butt;
stroke-linejoin: miter;
}
.g6_253{
fill: #D9272E;
}
.g7_253{
fill: none;
stroke: #FFFFFF;
stroke-width: 2.2916667;
stroke-linecap: round;
stroke-linejoin: round;
stroke-miterlimit: 4;
}
.g8_253{
fill: none;
stroke: #F8D3C4;
stroke-width: 1.5277778;
stroke-linecap: butt;
stroke-linejoin: miter;
stroke-miterlimit: 4;
}
.g9_253{
fill: #DC262E;
stroke: #B2B3B7;
stroke-width: 0.4323611;
stroke-linecap: butt;
stroke-linejoin: miter;
stroke-miterlimit: 4;
}

.s1_253{
font-size: 25.97px;
font-family: STKaiti-SC-Regular_cf1;
fill: #3F3F40;
}
.s2_253{
font-size: 16.04px;
font-family: LibreFranklin-SemiBold_dai;
fill: #DC262E;
}
.s3_253{
font-size: 15.28px;
font-family: LibreFranklin-Bold_d98;
fill: #DC262E;
}
.s4_253{
font-size: 25.97px;
font-family: STKaiti-SC-Bold_cdn;
fill: #DC262E;
}
.s5_253{
font-size: 25.97px;
font-family: STKaiTi-TC-Bold_cdt;
fill: #DC262E;
}
.s6_253{
font-size: 12.22px;
font-family: LibreFranklin-Regular_d9v;
fill: #231F20;
}
.s7_253{
font-size: 12.22px;
font-family: LibreFranklin-Italic_dak;
fill: #231F20;
}
.s8_253{
font-size: 19.86px;
font-family: STKaiti-SC-Regular_cf1;
fill: #3F3F40;
}
.s9_253{
font-size: 19.86px;
font-family: STKaiTi-TC-Regular_cev;
fill: #3F3F40;
}
.s10_253{
font-size: 13.75px;
font-family: GentiumBookBasic-Italic_chu;
fill: #3F3F40;
}
.s11_253{
font-size: 12.22px;
font-family: LibreFranklin-Regular_cqt;
fill: #231F20;
}
.s12_253{
font-size: 16.81px;
font-family: MuseoSans-700_d9u;
fill: #DC262E;
}
.s13_253{
font-size: 12.22px;
font-family: LibreFranklin-Regular_d9v;
fill: #3F3F40;
}
.s14_253{
font-size: 15.28px;
font-family: LibreFranklin-Bold_d98;
fill: #939598;
}
.s15_253{
font-size: 16.81px;
font-family: SourceHanSansCN-Regular_cgj;
fill: #3F3F40;
}
.s16_253{
font-size: 13.75px;
font-family: LibreFranklin-Medium_d9h;
fill: #231F20;
}
.s17_253{
font-size: 13.75px;
font-family: LibreFranklin-SemiBold_cg0;
fill: #FFFFFF;
}

]]></style>

</defs>
<path d="M0,0
L0,1196
L921,1196
L921,0 Z " 
fill="#FFFFFF" stroke="none" />
<text 
x="313" 
y="73" 
dx="0,0,0,0,0" 
class="s1_253"
>什么声音？</text>

<text 
x="313" 
y="136" 
dx="0,0,0,0,0,0,0" 
class="s1_253"
>历史的脚步声。</text>

<text 
x="313" 
y="198" 
dx="0,0,0,0,0,0,0,0,0,0" 
class="s1_253"
>我也听到了一个声音。</text>

<text 
x="313" 
y="261" 
dx="0,0,0,0,0,0,0,0,0" 
class="s1_253"
>你要说肚子叫的……</text>

<text 
x="313" 
y="324" 
dx="0,0,0" 
class="s1_253"
>对了。</text>

<text 
x="313" 
y="386" 
dx="0,0,0,0,0,0,0,0" 
class="s1_253"
>你们在说什么呀？</text>

<path d="M299.9,64.6c-0.1,-0.2,0.1,-0.3,0.1,-0.3c0.2,0,0.2,0.1,0.2,0.2c0,0.1,-0.2,0.3,-0.3,0.1m1.4,0.3c0,0,-0.4,-0.7,-0.8,-0.8C300.1,64,299.9,64,299.6,64c-0.3,0.1,-1.1,0.7,-1.1,0.7l0.2,0.1c0,0,0.5,-0.5,0.5,-0.4c0,0.1,0,0.7,0.6,0.7c0.7,0,0.6,-0.8,0.5,-0.9c0,-0.1,0.1,-0.2,1,0.7Z" class="g1_253" />
<path d="M305.8,63.9c0,0.1,-0.2,0.1,-0.3,0c0,-0.2,0.2,-0.2,0.2,-0.2c0.2,0,0.2,0.2,0.1,0.2m1,-0.4c-0.2,-0.2,-0.6,-0.2,-0.9,-0.2c-0.4,0.1,-0.6,0.1,-0.8,0.3c-0.2,0.2,-0.3,0.4,-0.3,0.7c0,-0.1,0,-0.3,0.2,-0.4c0,0.4,0.2,0.6,0.5,0.6c0.3,0,0.6,-0.2,0.6,-0.5c0.1,-0.3,0,-0.4,-0.1,-0.5c-0.1,-0.1,0.5,-0.1,1,0.3c0,0,0.1,-0.1,0.1,-0.1c0,0,-0.1,-0.1,-0.3,-0.2Z" class="g1_253" />
<path d="M304.8,64.3c-0.1,0.1,-0.1,0.1,-0.1,0.1c0,0,0,-0.1,0.1,-0.1Z" class="g1_253" />
<path d="M301.9,63.2c0,0,-0.3,-0.4,-0.8,-0.5c-0.5,-0.1,-2,-0.2,-2.1,-0.2c-0.2,0,-0.7,0.2,-0.7,0.2c0,0,0.5,0.1,1,0.1c0.5,0.1,1.1,0,1.5,0.2c0.3,0.3,0.5,0.3,0.5,0.3c0.1,0,0.6,-0.1,0.6,-0.1Z" class="g1_253" />
<path d="M304.5,62.9c0.1,-0.1,1.5,-1.3,2.3,-1.3c0.7,0,0.7,0.6,0.7,0.6c0,0,-0.3,-0.1,-0.5,-0.1c-0.2,0,-0.7,0,-0.9,0.2c-0.2,0.1,-0.8,0.4,-1,0.5c-0.2,0.1,-0.6,0.1,-0.6,0.1Z" class="g1_253" />
<path d="M302.1,67.6c0,0,-0.3,0.1,-0.5,0.3c-0.2,0.2,-0.3,0.5,-0.1,0.9c0.3,0.3,0.9,0.2,0.9,0.2c0,0,-0.9,-0.1,-0.8,-0.7c0.1,-0.6,0.5,-0.7,0.5,-0.7Z" class="g1_253" />
<path d="M302.6,68.6c0.1,0,0.3,-0.2,0.5,-0.1c0.2,0,0.5,0.2,0.6,0.2c0,0.1,-0.2,0,-0.4,0c-0.2,0,-0.7,-0.1,-0.7,-0.1Z" class="g1_253" />
<path d="M304.1,68.7c0.1,-0.1,0.3,-0.3,0.5,-0.4c0.1,0,0.2,0,0.2,0.1c0.1,0.1,0,0.1,-0.1,0.1c-0.1,0,-0.6,0.2,-0.6,0.2Z" class="g1_253" />
<path d="M300.7,70.5c0,0,0.8,0,1.1,0c0.4,-0.1,1.2,-0.3,1.4,-0.3c0.2,0,0.6,0.2,0.6,0.2c0,0,0.2,-0.3,0.3,-0.3c0.2,0,0.6,0.1,0.8,0.1c0.2,0,0.6,0,0.6,0c0,0,-0.4,0.3,-0.8,0.3c-0.3,0.1,-0.7,0.3,-0.8,0.3c-0.2,0,-0.9,0.1,-1.2,0c-0.3,0,-1.8,-0.2,-2,-0.3Z" class="g1_253" />
<path d="M305.4,70.3c0,0,-0.4,0.6,-0.5,0.8c-0.1,0.1,-0.5,0.5,-0.7,0.6c-0.2,0,-0.6,0,-0.6,0c0,0,0.6,-0.1,0.8,-0.4c0.1,-0.2,0,-0.4,-0.1,-0.3c-0.2,0.1,-0.7,0.2,-1.1,0.1c-0.4,0,-0.8,-0.2,-0.7,-0.1c0,0.2,0.5,0.4,0.7,0.5c0.1,0,0.2,0.3,0.1,0.3c0,0,-0.8,-0.1,-1.4,-0.4c-0.7,-0.3,-0.8,-0.6,-0.8,-0.6c0,0,0.3,0,0.6,0c0.3,0.1,1.5,0.2,2.2,0.1c0.7,-0.1,1.5,-0.6,1.5,-0.6Z" class="g1_253" />
<path d="M303.4,74.4l-0.9,0c-0.5,0,-1.3,-0.1,-1.8,-0.4c-0.6,-0.2,-1.9,-1.1,-2,-1.3l-0.6,-0.8c0,0,0.3,1,0.3,1.2c-0.1,0.1,0.2,0.5,0.3,0.7c0.2,0.2,0.6,0.4,1,0.4c0.5,0.1,1,0.1,1.3,0.1c0.3,0.1,0.8,0.3,1.3,0.3c0.6,0,1.1,-0.2,1.1,-0.2Z" class="g1_253" />
<g clip-path="url(#c0_253)">
<path d="M307.7,76.6c-0.3,0.6,1.1,-2.7,1,-5.3c-0.2,-2.6,-0.1,-5.7,-0.6,-7.3c-0.5,-1.6,-0.1,-2.2,-0.5,-4.1c-0.4,-1.8,-1.4,-3.8,-2.1,-4.4c-0.7,-0.5,-2,-1.2,-2,-1.2c0,0,1.5,0.1,2.2,1.1c0.8,1.1,1.6,2.6,1.8,3.1c0.3,0.5,0.6,3.3,0.7,4.1c0.1,0.8,0.5,3.3,0.7,4c0.1,0.7,0.3,4.7,0.2,5.4c-0.1,0.7,-1,3.9,-1.4,4.6M296.2,55c-0.7,0.8,-1.1,1.4,-1.6,2.2c-0.4,0.7,-1,2.2,-1.2,3c-0.1,0.9,-0.7,2.6,-0.6,3.6c0,1,0,3.5,0.1,5.1c0,1.6,0.3,7.6,-1.7,8.5c-0.2,0.1,-0.4,0.2,-0.6,0.2c-0.5,0.3,-1,0.6,-1.4,0.7c-0.4,0.1,-0.5,0.2,-0.6,0.2c0,-0.1,0.2,-0.1,0.6,-0.2c0.3,-0.2,0.7,-0.4,1.4,-0.7c0.5,-0.3,1,-0.7,1.1,-1.3c0.2,-1.7,0.3,-1.4,0.3,-2.8c-0.1,-1.3,0.1,-3.5,0.1,-4c0,-0.6,0.2,-1.5,0.3,-2.4c0,-0.9,-0.1,-1.8,-0.1,-1.8c0,0,-0.7,5.8,-0.7,6.3c0,0.6,0.1,2.7,0,2.8c-0.1,0.1,-0.2,-5.8,0,-6.7c0.2,-0.9,0.7,-2.7,0.7,-3.6c0,-0.8,0.6,-3.4,0.8,-4c0.2,-0.7,0.8,-2.4,1,-2.6c0.1,-0.1,1.7,-2.8,3.9,-3.6c0,0,0,-0.1,0,-0.1c0,0.1,0,0.1,0,0.1c-0.2,0,-1.1,0.4,-1.8,1.1m16.7,22.5c0.1,0.3,-0.2,1.3,-0.9,1.5c-0.6,0.3,-0.5,0.2,-1.3,0c-0.7,-0.3,-1.3,-0.9,-1.6,-1.5c-0.3,-0.6,-0.3,-0.8,-0.1,-1.6c0.1,-0.8,0.4,-2.2,0.4,-2.8c0,-0.5,-0.1,-2.3,-0.1,-2.9c0,-0.6,-0.1,-2.4,-0.2,-3.4c-0.2,-0.9,0.2,-1.7,-0.4,-5.1c-0.8,-3.8,-1.6,-5.5,-3.3,-7c-1.7,-1.6,-2.7,-1.8,-3.5,-2c-0.7,-0.2,-2.1,0.1,-2.5,0.1c-0.3,0,-1.6,-0.3,-2.8,0.1c-1.3,0.4,-2.9,1.8,-3.8,3.1c-0.8,1.4,-1.6,4.6,-1.9,6.1c-0.2,1.5,-0.9,5.2,-0.9,6c0,0.9,-0.6,3.9,-0.8,4.6c-0.2,0.8,-0.7,2.9,-1,3.6c-0.3,0.6,-1.3,2.3,-1.5,2.8c-0.3,0.5,-0.3,1.5,-0.3,1.5c0,0,0.4,-0.4,0.4,-0.6c0,-0.2,0.3,-0.8,0.4,-1.3c0,-0.5,0.8,-1.4,0.9,-1.8c0.2,-0.5,0.8,-1.7,0.8,-1.7c0,0,-0.2,1.6,-0.7,2.4c-0.5,0.7,-0.3,1.1,-0.8,1.7c-0.5,0.5,-0.3,0.9,-0.6,1.2c-0.4,0.3,-0.6,0.5,-0.8,0.8c-0.1,0.3,0.5,1.8,0.6,2.2c0.2,0.3,0.2,0.7,0.4,0.6c0.1,0,0.7,0.1,0.7,0.1c0,0,0.3,-1.1,0.3,-1.5c0,-0.3,0,-0.7,0.3,-1c0.3,-0.2,0.6,-0.8,0.9,-1.1c0.2,-0.4,0.6,-0.4,1.1,-0.6c0.4,-0.2,1.4,-0.3,1.9,-0.5c0.5,-0.1,0.7,-0.4,1,-0.5c0.2,0,1,0,1.1,0.2c0.1,0.3,0.1,0.5,0.5,0.7c0.3,0.1,0.3,0.3,0.7,0.5c0.4,0.1,0.5,0.2,0.8,0.1c0.3,-0.1,1,-0.2,1,0.1c0.1,0.2,-0.1,0.5,0.3,0.4c0.4,-0.1,0.4,-0.1,0.6,-0.1c0.1,0,0.4,0.4,0.2,0.7c-0.3,0.4,0,0.8,-0.1,1.4c-0.1,0.7,-0.3,1,0.1,0.9c0.3,0,0.8,-0.2,1.2,-0.3c0.4,0,1.1,-0.1,1.5,-0.1c0.4,0,1.1,0.6,1.5,0.6c0.4,0,1.9,0.1,1.9,0.1c0.1,-0.1,0.4,-0.3,0.4,-0.5c0.1,-0.3,0.6,-0.9,0.3,-0.6c-0.4,0.3,-1.1,0.6,-2,0.4c-1,-0.2,-3.7,-2.3,-3.8,-2.4c-0.2,-0.2,-1.2,-1.2,-1.2,-1.2c0,0,0.2,-0.3,0.3,-0.5c0,-0.3,-0.2,-1.4,-0.2,-1.9c-0.1,-0.5,-0.2,-1.9,-0.4,-2.4c-0.2,-0.4,-0.2,-1.2,-0.2,-1.2c0,0,0.2,0.4,0.5,1c0.2,0.6,0.5,1.6,0.6,1.9c0,0.3,0.1,1.7,1.1,3.4c1,1.7,1.9,1.8,1.9,1.8c-0.4,-0.1,-1.1,-0.9,-1.5,-1.5c-0.5,-0.6,-0.7,-1.4,-0.8,-1.8c-0.1,-0.4,-0.4,-1.8,-0.5,-2.1c-0.1,-0.3,-0.5,-2.2,-0.6,-2.6c-0.1,-0.4,0,-0.9,-0.4,-2.5c-0.4,-1.7,-0.1,-2.9,-0.1,-3.2c0,-0.3,0.3,-1.5,0.4,-1.9c0.1,-0.4,0.2,-1.3,0.8,-4.5c0.6,-3.1,1,-3.5,1.2,-4c0.2,-0.5,0.7,-0.9,0.9,-1.1c0.3,-0.2,0.8,-0.3,0.8,-0.3c0,0,-0.1,-0.1,-0.2,-0.1c-0.2,-0.1,-0.3,-0.1,-0.4,-0.3c-0.1,-0.2,0,-0.2,-0.3,-0.4c-0.3,-0.3,-0.2,-0.3,-0.2,-0.3c0,0,0.1,-0.2,-0.1,-0.3c-0.1,-0.1,0,-0.4,0,-0.6c0,-0.2,0,-0.3,-0.1,-0.4c-0.1,-0.1,-0.1,-0.3,0.1,-0.3c0.1,0.1,0.7,0.6,0.7,0.7c0,0.1,0.2,0.7,0.2,0.7c0,0,0.4,0,0.4,0.1c0,0,-0.3,0.2,-0.3,0.2c0,0,0.2,0,0.4,0.1c0.2,0,0.5,0.2,0.2,0.1c-0.3,0,-1,0,-0.8,0.1c0.1,0.1,0.6,0.7,1,0.7c0.5,0,1.5,0.4,2,0.6c0.5,0.3,1.2,1.3,1.6,2c0.4,0.7,0.9,2.4,1,3.1c0.2,0.6,0.1,1.4,0.1,1.8c0,0.4,0.5,1.7,0.6,1.9c0,0.2,-0.1,1,-0.1,1.4c-0.1,0.4,-0.1,1.9,-0.4,2.6c-0.2,0.6,-1.2,2.1,-1.5,2.5c-0.2,0.3,-0.8,1.2,-1,1.5c-0.3,0.2,-0.8,0.4,-0.8,0.4c0,0,-0.2,2.2,0,2.8c0.1,0.6,1,1.1,1.4,1.3c0.3,0.3,0.9,0.4,0.9,0.4c0,0,0.2,0.6,0.4,0.8c0.3,0.2,0.8,0.2,1.2,0.2c0.4,0,0.7,0.2,1,0.3c0.3,0.1,0.6,0,0.9,0.2c0.3,0.2,0.5,0.1,0.5,0.1L310.3,80c0,0,0.6,0,0.8,0c0.3,0,0.6,-0.1,0.6,-0.1l-0.3,-0.2c0.1,0,0.3,-0.1,0.8,-0.4c0.7,-0.5,0.8,-1.4,0.7,-1.8Z" class="g1_253" />
</g>
<path d="M294.1,124.8c-0.1,0.1,-0.1,0,-0.1,-0.1c0,0,0,-0.1,0.1,-0.1c0,0,0.1,0.1,0.1,0.1c0,0.1,0,0.1,-0.1,0.1m-0.2,-0.5c-0.9,0.1,-1.2,0.7,-1.5,0.8c0,0,0.4,0.1,0.5,0.1c0,-0.1,0.7,-0.8,0.7,-0.5c0,0.3,0.1,0.6,0.7,0.6c0.5,0,0.6,-0.5,0.6,-0.5c0,0,0.1,-0.2,0.5,0.5c-0.1,-0.7,-0.7,-1.1,-1.5,-1Z" class="g2_253" />
<path d="M300.3,124.5c-0.1,0,-0.1,0,-0.1,-0.1c0,0,0,-0.1,0,-0.1c0.1,0,0.2,0.1,0.2,0.1c0,0.1,-0.1,0.1,-0.1,0.1m1.6,0.2c-0.1,-0.2,-0.5,-0.7,-1.3,-0.8c-0.6,-0.1,-0.9,0,-1.3,0.3c-0.3,0.2,-0.8,0.9,-0.8,0.9c0,0,0.4,-0.1,0.6,-0.4c0.3,-0.5,0.7,-0.4,0.7,-0.4c0,0,-0.2,0.4,0.2,0.6c0.6,0.3,1,-0.2,1,-0.2c0,0,0,-0.1,0.1,-0.1c0.2,0,0.3,0.2,0.4,0.2c0.1,0,0.5,0.1,0.4,-0.1Z" class="g2_253" />
<path d="M295,123.8c0,0,-0.7,-0.5,-1.3,-0.6c-0.6,-0.1,-0.8,0,-1.1,0.1c-0.2,0.1,-0.7,0.6,-0.8,0.9l-0.2,0.2c0,0,0.5,-0.5,0.9,-0.6c0.4,-0.1,0.7,-0.3,1.2,-0.1c0.4,0.1,0.7,0.2,0.9,0.3c0.3,0,0.4,-0.2,0.4,-0.2Z" class="g2_253" />
<path d="M298.2,123.6c0,0,0.2,-0.5,0.6,-0.6c0.4,-0.2,1.5,-0.4,2.1,-0.2c0.7,0.2,1.4,0.7,1.4,0.7c0,0,-1.3,-0.4,-1.7,-0.3c-0.5,0.1,-0.9,0.1,-1.3,0.3c-0.5,0.2,-1.2,0.3,-1.1,0.1Z" class="g2_253" />
<path d="M295.3,124.4c-0.1,0,0.4,0.2,0.4,0.5c0,0.2,-0.1,1.2,-0.1,1.4c-0.1,0.2,0.1,-1.6,-0.3,-1.9Z" class="g2_253" />
<path d="M295,127.7c0.1,-0.1,-0.2,0.7,-0.2,0.9c0,0.3,0,0.5,0.2,0.5c0.2,0,0.4,-0.1,0.6,-0.1c0.1,0.1,0.5,0.3,0.6,0.4c0.1,0,-0.4,0,-0.5,-0.1c-0.2,-0.1,-0.1,-0.2,-0.4,-0.2c-0.3,0.1,-0.5,0.1,-0.6,-0.1c0,-0.1,-0.1,-0.5,0.3,-1.3Z" class="g2_253" />
<path d="M296.8,129.1c0,0,0,-0.3,0.2,-0.3c0.3,0,0.8,0.1,0.9,0.1c0,-0.1,-0.5,0.2,-0.4,0.2c0.1,0,0.7,-0.1,0.8,-0.3c0.2,-0.2,0.3,-0.7,0.3,-0.9c-0.1,-0.2,-0.2,-0.4,-0.2,-0.4c0,0,0.3,0.2,0.3,0.7c0.1,0.5,-0.4,0.8,-0.5,0.9c-0.2,0,-0.7,0.1,-0.8,0.1c-0.1,0,-0.2,-0.1,-0.4,-0.1c-0.1,0,-0.2,0,-0.2,0Z" class="g2_253" />
<path d="M300.1,130.9c0,0,-0.5,0.5,-0.8,0.6c-0.3,0.1,-0.4,0.1,-0.6,0.2c-0.3,0.1,-0.6,0.2,-1,0.2c-0.4,0.1,-0.9,0.1,-1.3,0.1c-0.4,-0.1,-0.4,-0.1,-0.6,-0.2c-0.2,-0.1,-0.3,-0.2,-0.3,-0.3c-0.3,-0.2,-0.1,-0.5,-0.1,-0.5c0,0,0.3,-0.1,0.7,-0.1c0.4,0,0.8,0.1,1,0.1c0.2,-0.1,1.1,-0.2,1.4,-0.3c0.3,-0.1,1,0,1.3,0.1c0.3,0,0.3,0.1,0.3,0.1m0.5,-0.3c-0.7,0,-1.8,-0.5,-2.4,-0.5c-0.7,0.1,-0.7,0.3,-1.2,0.2c-0.7,-0.1,-1.1,0,-1.5,0.1c-0.4,0,-1.1,0.5,-1.1,0.5c0,0,0.5,0.7,0.8,0.9c0.3,0.1,0.9,0.4,1.2,0.4c0.3,0.1,1.3,0,1.8,0c0.4,-0.1,0.9,-0.3,1.1,-0.4c0.2,-0.1,0.1,0,-0.1,0.1c-0.2,0.2,-0.7,0.4,-1.2,0.5c-0.6,0.1,-0.7,0.1,-1.3,0.1c-0.6,-0.1,-0.7,-0.1,-1.1,-0.2c-0.4,-0.2,-0.4,-0.4,-0.6,-0.4c0,0.1,0.5,0.7,0.9,0.9c0.4,0.2,0.7,0.2,0.9,0.2c0.3,0,1.3,0,1.8,-0.2c0.4,-0.2,0.9,-0.8,1.2,-1.1c0.4,-0.3,1.3,-1.1,0.8,-1.1Z" class="g2_253" />
<g clip-path="url(#c1_253)">
<path d="M291.8,124.5c0,0,-0.1,0.8,-0.1,1.2c-0.1,0.5,-0.2,1.3,-0.2,1.7c0,0.4,0.2,1.3,0.2,1.7c0.1,0.4,0.3,1.7,0.5,1.9c0.1,0.3,0.4,0.9,1,1.9c0.7,1,1.9,2.1,2.5,2.4c0.6,0.3,1.2,0.6,2.6,0.3c1.5,-0.3,2.8,-0.9,3.6,-1.6c-0.2,0.4,-1.1,1,-2.2,1.4c-1.2,0.5,-2.3,0.6,-3.5,0.4c-0.7,-0.2,-0.6,0,-0.7,0.6c-0.1,0.6,-0.2,1.4,-0.5,1.8c-0.3,0.5,-1.2,1.2,-1.5,1.4c-0.4,0.1,1.2,-1,1.5,-1.8c0,-0.5,-0.2,-0.9,-0.3,-1.5c-0.1,-0.6,-0.4,-0.8,-0.4,-1.2c-0.1,-0.5,-0.7,-1.2,-0.7,-1.2c0,0,0.3,1,0.3,1.2c0.1,0.2,0.9,2.5,0.9,2.5c0,0,-0.9,-1.8,-0.9,-1.9c-0.1,-0.2,0.7,2.2,0.8,2.3c0,0.1,-0.6,-0.7,-0.7,-1.1c-0.1,-0.4,0.1,1.2,0.2,1.4c0.1,0.1,-0.5,-0.6,-0.5,-0.8c0,-0.2,-0.2,0.6,-0.3,1.2c-0.2,0.6,0,1.4,-0.4,1.8c-0.4,0.4,-1,0.4,-1,0.4c0,0,0.9,-1,0.9,-2c0.1,-0.9,-0.1,-2.6,-0.1,-3.4c0.1,-0.8,-0.6,-2.2,-0.6,-2.2c0,0,0.5,4,0.4,4.7c-0.1,0.7,-0.3,1.2,-0.5,1.7c-0.1,0.6,-0.4,1.6,-0.5,1.8c-0.2,0.2,0,-2.6,0,-3c0,-0.3,0.2,0.8,0.2,0.7c0,-0.1,0,-1.7,0,-2.5c0,-0.8,-0.1,-0.9,-0.1,-1.6c-0.1,-0.7,-0.3,-3.7,-0.3,-4.1c0.1,-0.5,0,-2.8,0,-2.8c0,0,0,5.4,-0.1,5.8c0,0.4,-0.1,2.4,-0.1,3c0,0.5,0,2.4,0,2.9c0,0.5,0,2.2,0,2.5c0.1,0.3,0.2,2.7,0.3,3.3c0.1,0.6,0.1,2.7,-0.1,3.1c-0.1,0.4,-0.1,-3.4,-0.2,-4c-0.1,-0.7,-0.3,-4.2,-0.2,-4.5c0,-0.3,-0.2,-1.3,-0.1,-1.7c0.1,-0.5,0,-2.4,0.1,-2.8c0,-0.5,-0.1,-1.6,0,-2c0.1,-0.3,0.2,-2.1,0.2,-2.5c0,-0.4,-0.1,-2,-0.1,-2c0,0,-0.7,7.3,-0.8,8.8c-0.2,1.5,-0.3,2.5,-0.4,3.4c-0.1,0.8,-0.2,2.1,-0.3,2.6c-0.2,0.5,-0.1,2,-0.1,2c0,0,0.2,-5.6,0.3,-6.4c0,-0.9,0.2,-3.8,0.3,-4.5c0.2,-0.8,0.3,-3.5,0.6,-4.4c0.2,-0.8,0,-1.4,0.2,-2.4c0.2,-1.1,0.4,-3.2,0.4,-3.3c0.1,-0.2,0.4,-1.7,0.5,-2.3c0.2,-0.6,0.6,-1.8,0.8,-2.4c0.2,-0.6,0.4,-1.2,0.6,-1.6c0.2,-0.4,-0.6,2.1,-0.7,2.4c-0.1,0.4,-0.3,1.4,-0.3,1.4c0,0,0.8,-2,1.3,-2.6c0.5,-0.5,1.4,-1.4,1.9,-1.6c0.4,-0.2,0.8,-0.3,0.8,-0.3c0,0,-1.6,0.8,-2.5,1.9c-0.8,1.2,-1.3,2.5,-1.5,2.8c-0.1,0.3,-0.4,1.7,-0.4,1.7Z" class="g2_253" />
</g>
<path d="M297.2,117c0,0,-0.3,0,-0.8,0.4c-0.4,0.3,-0.6,0,-1,0.5c-0.4,0.5,-1.1,1.1,-1.6,1.5c-0.5,0.4,-0.7,0.6,-0.7,0.6c0,0,1.1,-1.2,1.4,-1.6c0.2,-0.4,1.3,-1,1.5,-1.1c0.2,-0.2,0.5,-0.5,0.4,-0.5c0,0,-0.4,0,-0.8,0.3c-0.4,0.3,-1.4,1.3,-1.4,1.3l1.1,-1.3l-1.2,1.1c0,0,1,-1.2,1.8,-1.7c0.7,-0.4,0.7,-0.5,0.4,-0.5c-0.2,0.1,-1.5,1,-1.9,1.4c-0.4,0.4,0.9,-1,1.2,-1.3c0.4,-0.3,-0.7,0.3,-0.6,0.2c0,-0.1,0.9,-1,1.4,-1.1c0.5,-0.1,0.8,0,0.9,-0.1c0.2,0,0,0.3,0,0.6c0,0.2,0,0.9,0,1.1c-0.1,0.2,-0.1,0.2,-0.1,0.2Z" class="g2_253" />
<path d="M297.5,114.9c0,0,-1,-0.1,-1.3,0c-0.3,0.1,-1.1,0.6,-1.4,1c-0.3,0.4,-1.1,1.4,-1.3,1.8c-0.2,0.4,-0.5,0.6,-0.8,1.3c-0.3,0.6,-1,2.8,-1.1,3.2c0,0.4,-0.2,1.7,-0.5,2.1c-0.3,0.3,-0.4,0.4,-0.4,0.4c0,0,0.3,-1.7,0.4,-2.3c0.2,-0.6,0.5,-2.7,0.8,-3.2c0.2,-0.4,0.8,-2,1.1,-2.1c0.3,-0.2,-0.4,0.8,-0.5,1.1c0,0.4,1,-1.6,1.6,-2.1c0.6,-0.5,1,-0.9,1.2,-1c0.3,-0.1,-1.1,0.8,-1.5,1.5c-0.4,0.8,-1,1.7,-0.9,1.6c0,0,1.6,-2.5,2.9,-3.3c0.9,-0.5,1.7,0,1.7,0Z" class="g2_253" />
<g clip-path="url(#c1_253)">
<path d="M288.1,143.7c0,0,0.7,-2.4,0.8,-2.8c0.2,-0.5,0.6,-3.6,0.7,-4.3c0.1,-0.6,0.2,-1.3,0.2,-1.5c0,-0.2,0.1,-0.7,0.2,-1c0.1,-0.4,-0.1,-1.5,0.1,-1.8c0.1,-0.4,0.4,-1.8,0.4,-2.4c0,-0.5,0,-1.8,0.1,-2.5c0,-0.7,0,-1.5,0,-1.5c0,0,-0.1,0.9,-0.3,1.4c-0.2,0.5,-0.1,1,-0.3,1.5c-0.1,0.6,-0.2,1,-0.2,1.7c0,0.6,-0.2,1,-0.1,1.6c0,0.7,0,0.9,-0.2,1.4c-0.1,0.6,-0.3,1.8,-0.4,2.3c-0.2,0.5,-0.5,2.5,-0.7,3.3c-0.3,0.8,-1.2,4.4,-1.3,4.8c-0.1,0.4,0,1.5,0.2,1.9c0.2,0.4,0.5,0.8,0.5,0.8c0,0,-0.8,-1.5,-0.4,-2.8c0.3,-1.2,0.8,-2.9,1.1,-3.6c0.3,-0.8,0.7,-3.8,0.9,-4.4c0.1,-0.6,0.1,1,-0.1,1.8c-0.2,0.7,-1.2,6.1,-1.2,6.1Z" class="g2_253" />
<path d="M286.9,142.1c0,-0.1,0.6,-3.5,0.6,-4c0.1,-0.5,0.3,-3,0.8,-3.9c0.5,-0.9,0.8,-3.1,1,-3.7c0.1,-0.7,0.3,-1.9,0.4,-2.3c0.1,-0.4,0.1,-1.7,0.3,-2.4c0.2,-0.7,0.1,-2.7,0.3,-3.1c0.1,-0.4,0.2,-1.6,0.3,-1.8c0,-0.2,0.8,-1.2,0.8,-1.2c0,0,-0.6,1.4,-0.7,1.7c-0.1,0.3,0.5,-0.5,0.5,-0.4c-0.1,0,0,1.2,-0.3,1.8c-0.3,0.6,-0.4,1.9,-0.5,2.6c-0.2,0.6,-0.2,1.5,-0.2,1.7c-0.1,0.2,-0.4,1.8,-0.5,2.1c-0.1,0.3,-0.3,2.3,-0.5,3.1c-0.2,0.9,-0.4,2,-0.7,2.4c-0.2,0.5,-0.6,2.2,-0.7,2.7c-0.1,0.5,-0.3,2.8,-0.6,3.4c-0.2,0.7,-0.3,1.3,-0.3,1.3Z" class="g2_253" />
</g>
<path d="M290.7,120.1c0,0,0.9,-2,1,-2.5c0.2,-0.5,1.4,-2,1.8,-2.4c0.5,-0.3,1.1,-0.5,1.1,-0.5c0,0,-1,0.7,-1.4,1.1c-0.4,0.3,-1.1,1.6,-1.3,2c-0.3,0.4,-0.2,0.5,-0.4,0.9c-0.3,0.4,-0.8,1.4,-0.8,1.4Z" class="g2_253" />
<path d="M295.9,114.4c-0.1,0,-0.5,0,-1,0.3c-0.6,0.3,-1.4,1.2,-1.7,1.4c-0.2,0.3,-0.5,0.6,-0.8,1.2c-0.3,0.6,-0.5,1.4,-0.5,1.4c0,0,0.9,-1.9,1.4,-2.5c0.6,-0.5,0.9,-0.9,1.4,-1.1c0.5,-0.2,1.2,-0.7,1.2,-0.7Z" class="g2_253" />
<path d="M294.2,114.5c0.2,-0.2,0.9,-0.5,1.2,-0.7c0.4,-0.2,0.6,0,0.6,0c0,0,-0.5,0.2,-0.8,0.4c-0.2,0.2,-1,0.3,-1,0.3Z" class="g2_253" />
<path d="M297.6,114.2c0,0,-0.4,-0.7,-0.9,-0.8c-0.5,-0.1,-1.1,-0.1,-1.4,0.1c-0.3,0.1,0.2,-0.4,1.1,-0.3c0.9,0.1,0.9,0.2,1.1,0.3c0.1,0.1,-0.2,-0.6,-0.2,-0.6c0,0,0.3,0.2,0.3,0.3c0,0.1,0.4,0.5,0.5,0.5c0.2,0,0.8,0.1,1,0.2c0.3,0.1,0.8,0.4,0.8,0.4c0,0,-1.1,-0.3,-1.4,-0.3c-0.2,0,-0.4,0.1,-0.2,0.1c0.3,0.1,1.5,0.2,1.8,0.4c0.4,0.2,1.6,0.9,1.9,1.1c0.2,0.2,2.1,2,2.5,2.2c0.4,0.3,0.2,0,-0.1,-0.3c-0.2,-0.3,-0.8,-1,-0.9,-1.1c0,0,0.7,0.2,1.6,1.6c1,1.5,1.6,3.6,1.8,4.3c0.2,0.7,0.3,1.3,0.3,1.8c0,0.4,0.2,3.5,0.2,4.1c0.1,0.6,0.3,2.9,0.2,3.4c0,0.6,0,1.1,0,1.1c0,0,-0.4,-4.5,-0.4,-4.8c-0.1,-0.2,-0.3,-2.1,-0.3,-2.3c-0.1,-0.3,-0.1,-0.4,-0.4,-0.6c-0.3,-0.2,-1.1,-1.1,-1.3,-1.3c-0.1,-0.2,-0.8,-1.1,-0.8,-1.2c0,-0.1,0.5,0.4,1,0.7c0.6,0.4,1.3,0.6,1.3,0.6c0,0,-0.9,-0.6,-1.3,-0.9c-0.5,-0.3,-1.4,-1.5,-1.5,-1.7c0,-0.1,1.3,1,1.4,1c0.1,0,-0.4,-0.8,-0.5,-0.9c-0.2,-0.2,-1.2,-0.7,-1.7,-1.1c-0.5,-0.4,-1.5,-0.8,-1.8,-1.1c-0.3,-0.3,-1.9,-1.2,-2.1,-1.5c-0.2,-0.2,-0.9,-0.7,-0.9,-0.7c0,0,1.5,1,1.8,1.2c0.3,0.1,1.1,0.7,1.6,1c0.4,0.3,0.8,0.5,1.3,0.8c0.6,0.2,1.1,0.5,1.4,0.7c0.3,0.3,0.9,0.7,1,0.8c0.2,0.1,0.8,0.6,0.8,0.6c0,0,-1.9,-1.7,-2,-1.8c-0.1,-0.1,-1.5,-0.7,-1.6,-0.8c-0.1,-0.1,-2.5,-1.7,-2.6,-1.8c-0.2,-0.2,-1.2,-1.1,-1.4,-1.2c-0.2,-0.1,0.1,-0.3,0.3,-0.1c0.3,0.3,1,0.7,1.5,1.1c0.5,0.4,1.7,1.5,2.1,1.7c0.3,0.3,0.9,0.5,0.9,0.5l-2.9,-2.4c0,0,2.1,1.6,2.2,1.7c0.1,0,-2.5,-2.2,-2.7,-2.4c-0.3,-0.2,1.8,1.3,2.5,1.8c0.6,0.6,1.1,1.1,1.5,1.3c0.5,0.3,1.1,1.1,1.5,1.5c0.4,0.4,0.8,0.6,0.8,0.6c-0.1,0,-1.1,-1.4,-1.2,-1.6c-0.2,-0.2,-2.8,-2.4,-2.9,-2.5c-0.1,-0.1,2.4,1.7,3.1,2.5c0.7,0.8,0.7,0.8,0.5,0.4c-0.3,-0.5,-1.9,-2,-2.4,-2.6c-0.5,-0.6,1.2,1,1.4,1.1c0.1,0.1,0.7,0.7,0.7,0.7c0.1,0,-0.2,-1,-0.6,-1.3c-0.4,-0.3,-2,-1.8,-2.6,-2.3c-0.6,-0.4,-1.5,-1,-2,-1.2c-0.5,-0.2,-1.2,-0.4,-1.4,-0.4c-0.3,0,0.5,0.3,0.8,0.4c0.3,0.2,2,1.1,2.4,1.4c0.4,0.3,0.8,0.7,0.8,0.7c0,0,-2.6,-1.8,-3.3,-1.9c-0.7,-0.2,-0.9,-0.1,-0.8,-0.1c0,0,1,0.4,1.5,0.6c0.5,0.2,2.5,1.6,2.6,2c-0.3,-0.3,-2.1,-1.6,-2.2,-1.6c-0.2,-0.1,1.5,1.3,1.7,1.4c0.2,0.2,-2.2,-1.6,-2.6,-1.8c-0.5,-0.2,-1.4,-0.6,-1.7,-0.6c-0.2,0,0.1,-0.4,0.1,-0.4c0,-0.1,-0.6,-0.2,-0.6,-0.2Z" class="g2_253" />
<g clip-path="url(#c1_253)">
<path d="M305.1,123.8c0,0,0.4,1.3,0.4,1.8c0,0.4,0,1.2,-0.2,1.9c-0.1,0.7,-0.3,4.1,-1.6,5.4c-1.2,1.3,-1.4,1.6,-1.4,1.6c0,0,1.9,-1.4,2.3,-2.4c0.5,-1,0.6,-1.6,0.6,-1.6c0,0,-0.7,3.3,-0.8,3.8c-0.1,0.5,-0.1,3.1,-0.1,4c0,0.9,0.3,2.1,0.2,2.5c0,0.5,-0.1,1.8,0.1,2.2c0.1,0.4,0.2,0.8,0.2,0.8c0,0,-0.3,-1.9,-0.2,-2.3c0.2,-0.4,0.2,-0.4,0.2,-0.3c0.1,0.1,0.2,0.7,0.3,1.1c0,0.4,0,0.5,0,0.5c0,0,0.2,-1,0.3,-1.4c0,-0.3,0.5,-2.2,0.5,-2.4c0.1,-0.3,-0.6,2,-0.7,2c0,0.1,0.3,-1.4,0.3,-1.5c0.1,-0.2,0.4,-1.4,0.4,-1.8c0.1,-0.4,0.1,-1.3,0.2,-1.5c0.1,-0.2,0.3,-1.8,0.2,-2.3c0,-0.5,0.4,-0.9,0.4,-1.1c0.1,-0.3,0,-2.2,0.1,-2.7c0,-0.4,0.3,-0.4,0.3,-0.8c0,-0.3,-0.1,-0.9,-0.1,-0.9c-0.1,0,-0.6,0.5,-0.8,0.6c-0.2,0.1,-0.5,0.1,-0.6,0c-0.1,0,-0.2,-0.8,-0.1,-1.4c0.1,-0.6,0.1,-0.8,0.1,-1.2c0.1,-0.3,0.1,-0.5,0.3,-0.4c0.1,0.1,0.5,0.4,0.6,0.4c0.2,0,0.1,-0.2,0,-0.4c-0.1,-0.2,0,-0.4,-0.2,-0.7c-0.1,-0.3,-1.2,-1.4,-1.2,-1.5Z" class="g2_253" />
</g>
<path d="M306.1,126.5c-0.1,0.2,0,0.3,-0.1,0.6c-0.1,0.3,-0.4,0.6,-0.2,0.5c0.2,0,0.4,-0.3,0.6,-0.4c0.2,-0.2,0.4,-0.2,0.4,-0.2c0,0,-0.7,-0.6,-0.7,-0.5Z" class="g2_253" />
<g clip-path="url(#c1_253)">
<path d="M290.4,139.7c0,0.1,0.2,1.8,0.2,2.5c0,0.8,-0.2,3,-0.3,3.4c0,0.4,-0.1,2.1,-0.1,2.2c0,0.2,0.4,-3.2,0.5,-3.5c0.1,-0.2,0.1,0.9,0.1,0.9c0,0.1,0.1,-2.1,0,-2.7c0,-0.5,-0.4,-2.8,-0.4,-2.8Z" class="g2_253" />
<path d="M299.3,113.2c0,0,0.8,-0.1,1.5,0.2c0.7,0.3,1,0.3,1.8,0.8c0.8,0.5,0.8,0.7,1.5,1.1c0.7,0.4,1.2,0.9,1.8,1.5c0.5,0.6,1.5,1.9,1.7,2.2c0.1,0.3,-1.9,-2.4,-2.4,-2.6c-0.6,-0.2,1.6,1.4,3,4.1c1.3,2.7,1.3,3.6,1.4,4.3c0.1,0.6,0.8,3.3,0.8,4.5c0,1.3,0.3,2.6,0.6,3.8c0.3,1.3,0.5,3,0.5,3c0,0,-0.9,-3.3,-1.1,-3.2c-0.2,0.1,0.2,1.9,0.3,2.4c0.1,0.6,0.6,1.4,0.6,1.8c0,0.4,-0.7,-1.4,-0.8,-1.5c-0.2,-0.1,0.4,4,0.4,4.9c0,0.9,0.4,5,0.4,5.6c0,0.5,0.1,2.8,0.1,3.4c0,0.7,-0.1,1.3,-0.2,2.1c-0.1,0.9,-0.3,1.8,-0.2,1.7c0,-0.1,-0.3,-3.8,-0.1,-4.3c0.1,-0.5,0,-3.4,-0.1,-4.1c0,-0.7,-0.5,-3.7,-0.6,-4.5c0,-0.8,0.5,5,0.4,5.6c-0.1,0.6,-0.3,3,-0.3,3.8c0.1,0.9,-0.1,1.3,-0.1,2.9c0.1,1.6,0.1,3,0,3.7c-0.1,0.8,-0.4,3,-0.4,3c0,0,-1.6,-5.6,-0.9,-8.4c0.6,-2.8,0.8,-3.2,0.8,-3.7c0.1,-0.5,0.4,-3.8,0.4,-3.8c0,0,-0.6,-1.7,-0.6,-1.9c-0.1,-0.3,0.3,2.3,0.2,2.8c-0.2,0.4,-0.3,2,-0.2,1.9c0,0,-0.2,-4.7,-0.2,-4.8c0,-0.2,0,6.9,-0.2,7.2c-0.1,0.4,-0.2,-5.9,-0.2,-6.2c0,-0.2,-0.1,5.9,-0.1,5.9L308.6,143c0,0,0.4,-1.6,0.6,-3c0.1,-1.4,0,-4.2,0.1,-5.3c0.1,-1,0,-2.6,0,-5.2c0,-2.6,-0.4,-4.6,-0.5,-5.4c-0.1,-0.7,0,-1.8,-2.1,-5.3c-2.1,-3.5,-3,-3.4,-3.8,-4.1c-0.8,-0.7,-1.6,-0.9,-2.1,-1.2c-0.6,-0.2,-1.5,-0.3,-1.5,-0.3Z" class="g2_253" />
<path d="M302.5,114.7c0,0.1,1.1,0.7,2.7,2.7c1.8,2.2,1.9,3.5,2.1,4.2c0.2,0.6,0.6,1.6,0.7,3.6c0.1,1.9,0.4,4.7,0.3,6c-0.1,1.3,-0.2,3.1,-0.1,4.4c0.2,1.2,0.4,4.1,0.3,4.9c-0.1,0.8,-0.1,4.1,-0.8,5.4c-0.6,1.4,-0.9,2.4,-0.9,2.4c0,0,0.9,-4.7,1,-5.2c0,-0.5,0.2,-3.9,0.2,-4.6c-0.1,-0.8,-0.3,-4,-0.3,-4.7c0.1,-0.8,-0.1,-7.1,-0.1,-7.8c-0.1,-0.7,-0.4,-3.7,-0.7,-4.6c-0.3,-0.9,-0.8,-2.8,-2.4,-4.5c-1.6,-1.8,-2,-2.2,-2,-2.2Z" class="g2_253" />
<path d="M307,130.1c0,0.1,0.1,2.9,0,3.7c-0.1,0.7,-0.1,2.2,0,3.1c0.1,0.9,0.2,1.1,0.3,1.9c0.1,0.8,-0.3,3.8,-0.5,4.5c-0.2,0.7,0.8,-3.2,0.8,-4.4c0.1,-1.2,0,-3.7,0,-4.4c-0.1,-0.8,-0.2,2.7,-0.3,2.8c0,0,0,-4.2,0,-4.8c0,-0.6,-0.3,-2.4,-0.3,-2.4Z" class="g2_253" />
<path d="M304,147.1c0.1,-0.1,0.9,-2.6,1.3,-4.4c0.4,-1.9,0.7,-2.6,0.7,-2.8c0,-0.2,0.3,1.7,0.3,2.4c0.1,0.7,0.3,0.9,0.2,2.4c-0.1,1.5,-0.9,3.5,-1.3,4.1c0.6,-1.3,1.1,-2.8,1.1,-3.8c0,-0.9,-0.2,-1.3,-0.2,-1.3c0,0,-0.1,2.3,-0.2,2.7c-0.2,0.5,-0.3,-1.6,-0.4,-2c0,-0.5,-0.6,0.7,-0.7,1c-0.1,0.3,-0.8,1.7,-0.8,1.7Z" class="g2_253" />
<path d="M302.6,153.7c-0.1,0.1,1.4,-1.7,1.7,-2.5c0,-0.2,-0.6,0.5,-1.1,0.7c0.3,-0.2,0.8,-0.6,1.5,-1.7c0.8,-1.1,0.7,-1.1,1,-1.7c0.3,-0.7,0.9,-3.1,1,-3.4c0.1,-0.4,0.9,-3.6,0.9,-3.6c0,0,-0.4,3.2,-0.7,4.2c-0.4,0.9,-0.9,2.4,-1.1,3c-0.2,0.5,-2.4,4.5,-3.2,5Z" class="g2_253" />
<path d="M293.8,139.4c0,0,1,1.5,1.7,2.1c0.7,0.7,2,1.1,3,1.2c1,0,2.7,-0.2,4.3,-1c1.5,-0.8,2,-1.4,2.2,-1.5c0.2,0,0.2,0.7,-0.2,1.1c-0.4,0.3,-1.7,1.4,-2.7,1.7c-0.9,0.4,-3.1,0.9,-4.9,0.2c-1.7,-0.6,-3.5,-2.5,-3.8,-3.1c-0.4,-0.8,0.2,0.2,0.7,0.5c0.5,0.7,-0.3,-1.2,-0.3,-1.2Z" class="g2_253" />
<path d="M312.2,141.3c0.1,0.1,0.9,0.3,1.9,0.8c1.5,0.8,2.8,2.1,3.2,2.5c0.5,0.5,2,2.8,2.3,4.7c0.3,1.4,0,2.6,0,2.6c0,0,-0.2,-3.8,-2.6,-7c-1.2,-1.5,-2.2,-1.9,-2.9,-2.3c-0.6,-0.3,-1.8,-0.7,-1.9,-0.5c-0.2,0.1,0,2.5,0,3.3c-0.1,0.8,-0.5,3,-0.5,3c0,0,-0.4,-5.8,-0.3,-7c0,-1.2,-0.3,-3.9,-0.3,-3.9Z" class="g2_253" />
<path d="M289.3,140.5c-0.3,0.2,-2.6,0.7,-3.2,1c-0.7,0.3,-2.6,1.6,-3.3,2.6c-0.7,0.9,-1.6,3.7,-1.6,3.7c0,0,1.1,-3.3,2.5,-4.3c1.4,-1,1.8,-1.7,3,-1.9c1.2,-0.2,2.6,-1.1,2.6,-1.1Z" class="g2_253" />
</g>
<path d="M296.7,190.8l0,-0.1c0,0,0,-0.1,0,-0.1c0.1,0,0.1,0.1,0.1,0.1c0,0.1,0,0.1,-0.1,0.1m0.7,-0.2c-0.4,-0.1,-1.1,-0.1,-1.3,-0.1c-0.2,0,-0.8,0.3,-1,0.4c-0.1,0.1,-0.3,0.3,-0.5,0.3c-0.1,0,-0.2,0.1,-0.2,0.1c0,0,0.5,-0.1,0.6,-0.1c0.1,-0.1,0.2,-0.2,0.3,-0.1c0.2,0,0.4,0,0.4,0c0,0,-0.1,-0.3,0,-0.3c0.1,-0.1,0.3,-0.1,0.3,-0.1c0.1,0,0,0.3,0.3,0.4c0.3,0.2,0.8,0,0.8,-0.1c0,-0.1,0.1,-0.3,0.1,-0.3c0,0,0.2,-0.2,0.9,0.5c0,0,-0.3,-0.6,-0.7,-0.6Z" class="g3_253" />
<path d="M303.4,190.4c-0.1,0,-0.1,-0.1,-0.1,-0.1c0,-0.1,0,-0.1,0.1,-0.1c0,0,0.1,0,0.1,0.1c0,0,-0.1,0.1,-0.1,0.1m1.6,0.1c-0.3,-0.1,-0.2,-0.2,-0.6,-0.3c-0.4,-0.2,-1.1,-0.1,-1.7,-0.1c-0.6,0,-1.1,0.9,-1.1,0.9c0,0,0.8,-0.8,0.9,-0.6c0.1,0.1,0.3,0.3,0.8,0.3c0.5,0,0.5,-0.5,0.6,-0.5c0.2,0,0.1,0.2,0.2,0.2c0.1,0,0.4,0.1,0.5,0.1c0.1,0,0.7,0,0.7,0c0,0,-0.1,0,-0.3,0Z" class="g3_253" />
<path d="M298.3,189.5c0,0,-0.2,-0.3,-0.7,-0.3c-0.5,-0.1,-1.6,-0.1,-2,-0.1c-0.3,0,-1.1,0.3,-1.2,0.4c-0.1,0.1,-0.5,0.3,-0.5,0.3c0,0,1.1,-0.2,1.5,-0.2c0.4,0,1.4,0.1,1.8,0.1c0.5,0,1,0,1.1,-0.2Z" class="g3_253" />
<path d="M301.2,189.3c0,0,-0.1,-0.4,0.4,-0.5c0.6,-0.1,0.8,-0.1,1.5,-0.2c0.7,-0.1,0.8,-0.2,1.1,-0.2c0.3,0,1.3,0.3,1.5,0.4c0.2,0.1,-0.6,0.1,-0.8,0.1c-0.1,0.1,-1.4,0.2,-1.7,0.3c-0.3,0,-1.9,0.1,-2,0.1Z" class="g3_253" />
<path d="M297.8,194.4c0,0,0,0.5,0.1,0.6c0.1,0.1,0.3,0.2,0.6,0.2c0.4,0,0.6,0,0.7,0.1c0.1,0.1,0.2,0.2,0.2,0.2c0,0,-0.5,-0.1,-0.7,-0.1c-0.3,0,-0.5,0,-0.6,-0.1c-0.2,0,-0.5,-0.4,-0.3,-0.9Z" class="g3_253" />
<path d="M299.9,195.7c-0.1,0,0.4,0,0.6,0c0.2,-0.1,0.4,-0.4,0.6,-0.5c0.2,-0.1,0.3,-0.2,0.6,-0.2c0.3,0,0.4,-0.1,0.5,-0.2c0,-0.2,0.1,-0.5,0,-0.8c0.5,0.7,-0.2,1,-0.2,1c0,0,-0.6,0.2,-0.7,0.2c-0.2,0.1,-0.7,0.8,-1.4,0.5Z" class="g3_253" />
<path d="M302.1,193.4c0,0,0.4,0.3,0.6,0.4c0.2,0.2,0.4,0.6,0.6,0.8c0.2,0.2,0.3,0.5,0.6,0.7c0.4,0.2,0.5,0.2,0.7,0.3c0.1,0.2,0.2,0.8,0.2,0.8c0,0,0.1,-0.8,-0.2,-1c-0.3,-0.2,-0.6,-0.2,-0.9,-0.5c-0.7,-0.5,-0.6,-1.2,-1.6,-1.5Z" class="g3_253" />
<path d="M297,194.5c0,0,-0.3,0.7,-0.5,0.8c-0.2,0.2,-0.5,0.5,-0.7,0.6c-0.2,0.2,-0.4,0.5,-0.1,1.1c0,-0.7,0,-0.8,0.2,-0.9c0.1,-0.2,0.5,-0.4,0.7,-0.6c0.2,-0.2,0.4,-0.9,0.4,-1Z" class="g3_253" />
<path d="M296.6,197c0,0,0.8,0,1.1,-0.1c0.2,-0.1,0.8,-0.1,1.1,-0.1c0.3,0,0.9,0,1.1,0.1c0.2,0,0.5,-0.1,0.6,-0.1c0.2,-0.1,2,-0.2,2.4,-0.2c0.3,0,0.9,0,0.9,0c0,0,-0.2,0.2,-0.3,0.5c-0.1,0.2,-0.9,2.3,-2.8,2.5c-2,0.2,-2.9,-1,-2.9,-1c0,0,0.7,0.6,1.6,0.7c0.9,0.2,1.5,0,2,-0.2c0.4,-0.2,0.7,-0.4,0.8,-0.7c0.1,-0.3,0.2,0.2,-2.1,0.3c-0.4,0,2.4,-0.5,3,-1.4c0.1,-0.2,0,-0.5,0,-0.5c0,0,-0.9,-0.1,-1.3,0c-0.4,0.1,-0.8,0.3,-1,0.3c-0.1,0,-0.9,0,-1.2,0c-0.2,0,-0.9,-0.1,-1.2,-0.1c-0.3,0,-0.9,0.1,-0.9,0.1l0,0.4c0,0,0.2,0.3,0.5,0.5c0.3,0.2,1.1,0.6,1.1,0.6c0.1,0,-1.2,-0.4,-1.8,-0.8c-0.6,-0.5,-0.7,-0.8,-0.7,-0.8Z" class="g3_253" />
<path d="M304.4,187.9c0,0.1,1.2,-0.8,1.3,-1.5c0.1,-0.6,0.2,-0.2,0.2,-0.2c0,0,-0.1,0.6,0,0.8c0.1,0.2,0.2,0.5,0.6,1c0.4,0.5,0.3,0.4,0.4,1c0.1,0.5,0.1,1.3,0.2,1.7c0.1,0.4,0.1,0.8,0.1,1.1c0,0.4,-0.1,1.3,-0.2,1.6c0,0.4,-0.1,2.3,-0.2,2.6c0,0.3,-0.2,1.8,-0.8,2.6c-0.6,0.7,-2.3,3.1,-3.1,3.4c-0.7,0.3,-1.5,0.5,-1.9,0.5c-0.5,-0.1,-1.4,0,-1.7,-0.1c-0.2,-0.1,-1,-0.2,-1.4,-0.6c-0.3,-0.3,-1.2,-1.2,-1.8,-1.8c-0.5,-0.5,-1.2,-1.4,-1.2,-1.3c0.1,0,1.2,1.5,1.4,1.8c0.2,0.2,1,1.1,1.5,1.5c0.6,0.5,1.2,0.8,2.3,0.9c1,0,2,-0.1,2.4,-0.2c0.4,-0.2,1.3,-1,1.6,-1.5c0.3,-0.5,1.6,-2.1,1.9,-2.5c0.3,-0.3,0.8,-1.6,0.9,-2.5c0.2,-0.9,0.2,-2.4,0.3,-2.8c0,-0.4,0.1,-1,0.3,-1.1c0.1,-0.2,0.1,-0.9,0.2,-1.2c0,-0.3,-0.1,-0.5,0,-0.8c0.1,-0.2,0.3,-0.3,0.3,-0.3c0,0,0,-1.3,0,-1.3c0,-0.1,0.2,0,0.2,0c0,0,-0.1,-0.7,-0.1,-0.7c0.1,-0.1,0.5,0.4,0.5,0.4c0,0,-0.1,-0.5,0,-0.5c0.1,0,0.4,0.1,0.4,0.1c0,0,-0.3,-0.4,-0.4,-0.5c0,-0.1,-0.1,-0.2,0,-0.3c0.1,-0.1,0.4,-0.1,0.4,-0.1c0,0,-0.4,-0.3,-0.4,-0.4c0,-0.1,0.1,-0.3,0.1,-0.3c0,0,-0.1,0.1,-0.2,0c-0.1,-0.1,-0.1,-0.4,-0.1,-0.4l0.3,0.2c0,0,-0.3,-0.3,-0.3,-0.3c0.1,-0.1,0.2,-0.1,0.2,-0.1c0,0,-0.3,-0.1,-0.3,-0.3c-0.1,-0.1,0.1,-0.1,0.1,-0.1c0,0,-0.2,-0.1,-0.2,-0.2c0,-0.2,-0.1,-0.5,-0.1,-0.6c0,-0.2,-0.2,-0.5,-0.1,-0.5c0,0,0.3,0,0.3,0c0,0,-0.1,-0.1,-0.3,-0.2c-0.2,0,-0.4,-0.2,-0.4,-0.2l0.5,-0.1c0,0,-0.1,-0.1,-0.3,-0.2c-0.2,0,-0.2,-0.1,0,-0.1c0.1,0,0.2,-0.1,0.2,-0.1c0,0,-0.3,-0.3,-0.4,-0.3c-0.1,0,-0.2,-0.2,-0.2,-0.2c0.1,0,0.2,-0.2,0.2,-0.2c0,0,-0.1,-0.1,-0.3,-0.2c-0.1,-0.1,-0.1,-0.2,-0.1,-0.3c-0.1,-0.1,-0.3,0,-0.4,-0.1c-0.1,0,-0.2,-0.4,-0.2,-0.4c0,0,0,-0.3,0,-0.4c0,0,-0.2,-0.4,0,-0.4c0,0,-0.3,0,-0.3,0.1c-0.1,0.1,0.1,0.5,-0.2,0.5c-0.2,0.1,-0.9,0.6,-1.1,0.6c-0.2,0,-0.5,0.1,-0.7,0.2c-0.1,0,-0.4,0.2,-0.4,0.2c0,0,0.7,0,0.9,-0.1c0.3,0,0.6,0,0.8,-0.1c0.2,-0.1,0.3,-0.1,0.2,0c0,0.1,-0.6,0.7,-0.7,0.8c-0.1,0.1,-0.5,0.3,-0.4,0.3c0.2,0,1.2,-0.6,1.3,-0.7c0,-0.1,0.2,0.1,0.1,0.2c0,0.1,-0.3,0.7,-0.5,0.8c-0.3,0.1,-1.4,0.6,-1.4,0.6c0,0,0.6,0,1,-0.2c0.5,-0.2,1.1,-0.8,1.2,-0.9c0,-0.1,0.1,0.4,0,0.6c0,0.2,-0.3,0.6,-0.3,0.6l0.5,-0.5c0,0,-0.2,0.7,-0.3,0.9c0,0.2,-0.2,0.6,-0.2,0.7c0.1,0.2,-0.2,0.6,-0.3,0.6c-0.1,0,-0.4,1.4,-1.4,2Z" class="g3_253" />
<path d="M308.7,188.7c0,0,0.1,0.3,0,0.6c0,0.2,-0.1,0.4,-0.1,0.5c0,0.1,-0.2,-0.3,-0.3,-0.3c0,-0.1,0.1,-0.6,0.1,-0.9c0,-0.2,-0.1,-0.3,-0.1,-0.3Z" class="g3_253" />
<path d="M308.2,189.9c0.1,0,0.1,0.4,0.1,0.7c0,0.2,-0.4,0.6,-0.5,0.6c0,0.1,-0.1,-0.5,0,-0.6c0,-0.1,0.4,-0.7,0.4,-0.7Z" class="g3_253" />
<path d="M308.9,188.7c0,0,0.1,0.2,0,0.5c-0.1,0.2,-0.2,0.7,-0.2,1c-0.1,0.3,-0.1,1.1,-0.2,1.2c0,0.1,-0.5,0.8,-0.6,0.9c-0.1,0.1,-0.1,0.7,-0.3,0.9c0,-0.4,0.2,-1,0.2,-1c0,0,0.5,-0.7,0.6,-0.9c0.1,-0.2,0.1,-1,0.2,-1.2c0,-0.2,0.4,-1.2,0.3,-1.4Z" class="g3_253" />
<path d="M302.7,187.7c0.1,-0.1,2,-1.1,2.3,-1.6c0.4,-0.4,0.9,-1,0.9,-1.1c0,0,0.1,-0.5,0.1,-0.5c0,0,-1,1.3,-1,1.4c-0.1,0.1,-2.3,1.8,-2.3,1.8Z" class="g3_253" />
<path d="M301.5,186.7c0.1,0,1,-0.7,1.1,-0.7c0.2,0,0.8,0,1.4,-0.2c0.6,-0.3,0.8,-0.5,1.1,-0.8c0.3,-0.2,0.7,-0.6,0.7,-0.6c0,0,-0.6,0,-0.8,0c-0.2,0.1,-0.5,0.2,-0.9,0.4c-0.3,0.1,-1.1,0.4,-1.2,0.5c0,0.2,-0.1,0.4,-0.2,0.5c-0.2,0.1,-1.2,0.9,-1.2,0.9Z" class="g3_253" />
<path d="M299.1,186.4c0.1,0,1.3,-0.6,1.6,-0.7c0.3,-0.1,0.7,-0.3,0.9,-0.4c0.2,0,-0.1,0.2,-0.1,0.3c-0.1,0.1,-1.5,1.1,-1.4,1.1c0.1,0,1.5,-1.1,1.8,-1.2c0.3,-0.1,0,0.4,-0.2,0.6c-0.3,0.2,-1,0.8,-0.9,0.8c0,-0.1,1.6,-1.3,1.8,-1.5c0.2,-0.3,0.5,-0.7,0.7,-0.7c0.3,-0.1,0.9,-0.2,0.9,-0.2c0,0,-1.1,0,-1,-0.1c0.1,-0.1,0.8,-0.3,0.9,-0.4c0.2,-0.1,-0.2,0,-0.9,0c-0.6,0,-1.5,0.1,-1.9,0.1C301,184,300.5,184,300.4,183.9c-0.2,0,-0.1,0.3,0,0.3c0.1,0,-0.7,0.4,-0.9,0.5c-0.2,0,-0.8,0.5,-1.3,0.7c-0.5,0.1,-1.5,0.8,-1.6,0.9c-0.1,0,1.3,-0.6,1.3,-0.5c0,0.2,-0.4,0.9,-0.8,1.4c-0.5,0.4,-1.8,1.3,-1.8,1.3c0,0,1.3,-0.6,2.1,-1.4c0.8,-0.8,1,-1.2,1.1,-1.3c0.2,0,0.5,-0.3,0.7,-0.3c0.2,-0.1,-0.1,0.4,-0.1,0.4l-1.2,1.3c0,0,1.8,-1.5,2.2,-1.7c0.3,-0.1,0.6,-0.2,0.6,-0.2Z" class="g3_253" />
<path d="M302.8,183.8c0,0,1.3,-0.6,1.3,-0.7c0,-0.1,-0.1,-0.2,-0.4,-0.1c-0.4,0.2,-1,0.6,-1.7,0.6c0,-0.1,1.2,-0.6,1.2,-0.6c0,0,0.5,-0.1,0.9,-0.2c0.4,0,1,-0.4,1,-0.4c0,0,-0.7,0.6,-0.9,0.9c-0.2,0.2,-0.3,0.4,-0.7,0.4c-0.4,0.1,-0.7,0.1,-0.7,0.1Z" class="g3_253" />
<g clip-path="url(#c2_253)">
<path d="M302.5,181.9c-0.1,0,0.7,0.1,1.4,0c0.8,-0.2,1.2,-0.5,1.4,-0.7c0.2,-0.2,1,-0.7,1.1,-0.7c0.1,-0.1,0.1,-0.1,0.4,0.1c0.3,0.1,1,0.6,1,0.9c0,0.3,0.1,0.8,0.1,0.8c0,-0.1,0.1,-0.7,0.1,-0.7c0,0,0.2,0.4,0.4,1c0.4,-0.3,-0.8,-2.3,-1.9,-2.4c-1.1,-0.2,-0.7,0,-0.8,0c-0.1,-0.1,-0.1,-0.2,-0.1,-0.4c0.1,-0.1,-0.1,-0.1,-0.1,-0.1l0.3,-0.5c0,0,-0.6,0.4,-0.7,0.4c-0.1,-0.1,0,-0.3,0.1,-0.4c0.1,0,0.3,-0.1,0.3,-0.1c0,0,-0.3,-0.1,-0.5,0.1c-0.2,0.3,-0.4,0.3,-0.4,0.4c-0.1,0,-0.2,-0.1,-0.1,-0.3c0.2,-0.2,0.6,-0.5,0.6,-0.6c0,0,-0.7,0.6,-0.7,0.4c0,-0.1,0.1,-0.5,-0.4,-1c-0.5,-0.5,-0.8,-0.7,-1.5,-0.9c-0.7,-0.2,-1.4,-0.1,-1.4,-0.1c-0.1,0,1.1,0.2,1.5,0.4c0.4,0.2,1,0.5,1.3,1.2c-0.3,-0.2,-0.7,-0.8,-1.2,-0.9c0.5,0.4,0.8,0.7,0.9,1c0,0.2,-0.5,-0.6,-1.6,-1.1c-1.1,-0.4,-1.9,-0.5,-2.3,-0.4c-0.4,0.1,-1.1,0.4,-1.1,0.4c0,0,1.5,0,2.2,0.2c0.7,0.2,0.7,0.4,0.9,0.3c0.2,0,0.3,0,0.6,0.1c0.3,0.1,1,0.4,0.5,0.4c-0.4,0,-1.6,-0.2,-2.2,-0.2c-0.6,0,-0.7,0,-0.7,0c0,0,0.9,0.3,1.3,0.3c0.5,0,1.5,0,1.7,0.2c0.3,0.1,0.8,0.5,0.5,0.4c-0.3,0,-0.5,0,-0.5,0c0,0,0.7,0.3,0.6,0.4c-0.1,0.1,-0.6,-0.1,-0.9,-0.2c-0.2,-0.1,0.4,0.4,0.7,0.5c0.4,0.1,0.6,0.1,1,0.2c0.3,0.1,0.9,0,0.8,0.2c-0.1,0.1,0.2,0.3,-0.6,0.1c-0.9,-0.1,-2.1,-0.6,-2.5,-0.7c-0.4,0,-0.5,0,-0.5,0c0,0,0.6,0.3,0.9,0.4c0.3,0.1,1.3,0.5,1.5,0.6c0.3,0,-0.8,-0.1,-1.1,-0.1c-0.3,0,-0.6,0,-0.6,0c0,0,1.3,0.2,1.3,0.3c0,0,-0.9,0.1,-1.1,0.1C302.2,181.1,301,181,300.9,181c-0.1,0,2,0.4,1.8,0.4c-0.1,0.1,-1.6,0.6,-3.9,-0.5c-0.2,-0.2,0.8,0.6,1.1,0.8c0.3,0.1,1.1,0.2,1.5,0.2c0.3,-0.1,1.8,-0.5,2,-0.4c0.1,0.1,-0.4,0.5,-0.9,0.4Z" class="g3_253" />
</g>
<path d="M297.4,180.5c0.4,0.1,0.4,0.3,0.9,0.7c0.5,0.3,1.2,0.5,1.5,0.7c0.4,0.3,0.8,0.3,1.1,0.6c0.4,0.2,1.1,0.6,1.4,0.6c0.3,0,-0.4,0.3,-0.8,0.3c-0.3,-0.1,-0.6,-0.4,-1.1,-0.4c-0.4,0,-0.8,-0.1,-1.6,0.1c-0.8,0.2,-1.1,0.1,-1.4,0.2c-0.3,0.1,-0.9,0.2,-1.4,0.1c-0.5,0,-0.7,0.1,-1.4,0.1c-0.6,-0.1,-1.2,0,-1.5,0.1c-0.4,0.1,-0.9,0.5,-1,0.5c-0.1,0,-0.3,0.1,-0.5,0.1c-0.1,0.1,-0.5,0.6,-0.5,0.8c-0.1,0.1,0.2,-0.8,0.6,-1.1c0.4,-0.2,0.9,-0.4,1.3,-0.5c0.3,-0.2,0.3,-0.4,1,-0.3c0.8,0.1,1.7,0.1,2.1,0.1c0.3,-0.1,1.1,0,1.6,-0.1c0.5,-0.2,1.8,-0.3,1.9,-0.4c0.2,-0.1,-0.4,-0.1,-0.9,-0.1c-0.5,0,-1.1,0.1,-1.7,0c-0.7,0,1.5,-0.1,1.6,-0.3c0.1,-0.1,0.1,-0.3,-0.1,-0.3c-0.2,-0.1,-0.6,-0.1,-0.9,-0.2c-0.4,0,-1.3,0,-1.9,0c-0.7,0,-1.5,0,-1.9,0.1c-0.5,0.2,-1.4,0.9,-1.5,1c-0.1,0,1,-1.2,1.7,-1.3c0.7,-0.1,3.2,0,3.8,0.1c0.5,0,1.2,0.4,1.5,0.4c0.3,0.1,0.5,0,0.1,-0.1c-0.4,-0.2,-1.5,-0.7,-1.8,-0.7c-0.2,0,-1.5,0,-1.9,0.1c-0.4,0.1,0.7,-0.2,1.2,-0.3c0.6,0,0.8,-0.1,0.6,-0.2c-0.2,-0.1,-0.5,0,-0.9,0.1c-0.3,0,-1.1,-0.1,-1.4,0c-0.4,0.1,-1.3,0.3,-1.6,0.4c-0.3,0.1,-1,0.3,-0.9,0.3c0.1,-0.1,1.3,-0.6,1.7,-0.8c0.5,-0.1,2.1,-0.2,2.1,-0.2c0,0,-0.1,-0.2,-0.7,-0.2c-0.7,0.1,-1.8,0.3,-1.9,0.3c-0.2,0,0.6,-0.3,1.1,-0.4c0.4,-0.1,1.3,-0.3,2.4,0.1Z" class="g3_253" />
<g clip-path="url(#c2_253)">
<path d="M298.4,177.3c0,0,-0.6,-0.2,-1.2,-0.1c-0.6,0,-0.9,0.1,-1.4,0.2c-0.5,0.2,-1.5,0.5,-1.8,0.7c-0.2,0.1,-1.2,0.7,-1.5,0.9c-0.3,0.3,-1,1,-1,1c0.1,-0.1,1.2,-1,1.4,-0.9c0.2,0,0.2,0.2,-0.3,0.4c-0.4,0.2,-0.9,0.6,-0.9,0.6c0.1,0,0.4,-0.1,0.3,0c-0.1,0.1,-1.1,1,-1.2,1.3c-0.2,0.2,0.9,-0.8,0.8,-0.6c-0.1,0.2,-1.2,1.5,-1.3,1.7c-0.1,0.2,-0.2,0.9,-0.2,0.9c0,0,0.4,-0.8,0.6,-0.8c0.1,0,-0.1,0.5,-0.3,0.7c-0.2,0.3,-0.4,0.6,-0.4,0.8c0,0.2,0,0.9,0.1,0.9c0.1,0.1,0.2,1.5,0.2,1.5c0,0,0.3,-0.4,0.4,-0.3c0.1,0,0,0.8,0,0.9c0,0.1,0,0.6,0,0.6c0,-0.1,0.6,-0.4,0.5,-0.3c-0.2,0.2,-0.4,0.3,-0.5,0.5c-0.1,0.2,0.1,0.2,0.2,0.3c0.1,0.2,-0.1,0.8,-0.1,0.8c0,0,0.1,0.2,0.2,0.1c0.1,0,0.4,-0.3,0.5,-0.3c0,0.1,-0.1,0.7,-0.1,0.7c0,0,0,0.5,0.2,0.5c0.1,0,0.2,0.2,0.2,0.3c0,0.1,0,0.6,0,0.7c0,0.1,0.1,0.4,0.3,0.6c0,0,0.2,0.6,0.1,0.8c0,0.2,0.2,0.5,0.2,0.5c0,0,0.6,0.8,0.7,1.2c0.1,0.4,0.3,0.8,0.3,0.8c0,0,-0.2,-0.9,-0.3,-1.2c-0.1,-0.3,-0.4,-1,-0.5,-1.5c0,-0.5,0,-1.6,0.1,-1.8c0.1,-0.3,0.3,-0.3,0.3,-0.1c0,0.1,0.1,0.4,0.2,0.3c0.1,-0.1,0.3,-0.1,0.3,-0.2c0.1,-0.1,0.1,0.1,0.2,0c0,0,-0.1,-0.7,0,-0.7c0,0,0.1,0.3,0.1,0.3c0,0,0.1,-0.5,0.1,-0.5c0.1,-0.1,0.5,-0.3,0.6,-0.3c0.1,-0.1,0.1,-0.5,0.1,-0.7c0,-0.1,0.4,-0.5,0.4,-0.5c0,0,-0.1,0.7,-0.2,0.9c0,0.2,0.1,1.2,0.1,1.2c0,-0.1,0.2,-1.7,0.4,-2c0.1,-0.2,0.6,-0.8,0.6,-0.8c0,0,-0.6,0.6,-0.6,0.5c0,0,0.6,-0.6,0.5,-0.6c-0.1,0.1,-1.2,0.9,-1.2,0.9c0,0,-0.5,0.6,-0.6,0.7c0,0.1,0,-0.4,0.2,-0.6c0.1,-0.3,-0.5,0.6,-0.6,0.6c-0.1,0.1,-0.2,0.1,-0.2,-0.4c0.1,-0.5,0.3,-0.9,0.3,-0.9c0,0,-0.5,0.4,-0.5,0.9c-0.1,0.4,-0.3,0.5,-0.3,0.5c0,0,0.1,-1.1,0.2,-1.4c0.1,-0.3,0.3,-0.7,0.3,-0.8c0.1,-0.1,0.2,-0.6,0.2,-0.6c0,-0.1,-0.5,0.2,-0.5,0.5c-0.1,0.2,-0.1,0.4,-0.3,0.6c-0.2,0.3,-0.6,0.8,-0.6,0.9c0,0,-0.2,-0.6,-0.1,-0.8c0,-0.3,0.3,-1,0.5,-1.2c0.2,-0.2,0,0.3,0,0.3c0,0,0.4,-0.5,0.5,-0.6c0.2,0,0.4,-0.6,0.4,-0.6c0,0,-0.1,0.8,-0.1,0.6c0.1,-0.1,0.6,-0.6,0.6,-0.6c0,0,-0.4,1,-0.3,1c0.2,-0.1,0.7,-0.7,0.9,-0.9c0.2,-0.1,0.4,-0.1,0.4,-0.1c0,0,-0.8,1.3,-0.8,1.2c0.1,0,1.2,-1.2,1.4,-1.2c0.1,-0.1,0.2,0.2,0.1,0.3c-0.1,0,-1.2,1.2,-1.2,1.1c0,0,1.3,-0.7,1.4,-1c0.2,-0.2,0.3,-0.4,0.3,-0.4c0,0,-0.1,-0.3,0,-0.3c0.1,0,0.9,-0.5,1.7,-0.4c0.8,0,0.8,0,1,0c0.3,-0.1,0.5,-0.2,0.5,-0.2c0,0,-0.7,-0.1,-1,-0.1c-0.3,0,0.6,0,0.8,-0.1c0.3,-0.1,-1.3,0,-1.5,-0.1c-0.2,-0.1,-0.5,-0.2,-0.8,-0.1c-0.4,0.2,-0.7,0.4,-1.1,0.4c-0.4,0.1,-0.3,0,-1,0c-0.6,0.1,-0.8,0.2,-1.1,0.3c-0.2,0.1,-0.8,0.5,-0.8,0.6c-0.1,0,0.1,-0.3,0.3,-0.4c0.2,-0.2,-0.5,0.3,-1.1,0.4c-0.6,0.1,-0.7,0.5,-0.7,0.5c0,0,0,-0.5,0.1,-0.5c0.1,-0.1,0.4,-0.2,0.9,-0.4c0.4,-0.3,0.6,-0.5,1.1,-0.6c0.5,0,1.3,-0.2,1.5,-0.2c0.1,0,-0.9,-0.1,-1.2,-0.1c-0.4,0,-1.5,0.6,-1.6,0.7c-0.2,0.2,-0.8,0.3,-0.8,0.4c-0.1,0,-0.5,0.3,-0.5,0.3c0,0,-0.1,-0.9,0.3,-1.2c0.4,-0.2,0.6,-0.9,0.7,-0.9c0.2,0,0.6,-0.1,0.6,-0.1c0,0,-0.3,-0.1,-0.9,0.1c-0.6,0.1,0.4,-0.5,0.6,-0.8c0.2,-0.3,-0.4,-0.2,-0.4,-0.2c0,0,-0.6,0.5,-0.8,0.9c-0.1,0.4,0.2,-0.9,0.5,-1.2c0.3,-0.3,0.5,-0.5,0.7,-0.8c0.3,-0.2,1,-0.3,1,-0.3c0,0,0.7,-0.2,0.9,-0.4c0.1,-0.2,-0.5,0,-0.3,-0.2c0.2,-0.2,0.6,-0.3,0.3,-0.3c-0.3,-0.1,-0.7,0.4,-1.1,0.6c-0.4,0.1,0.1,-0.4,0.1,-0.4c0,0,0.4,-0.6,1.3,-0.6c1,0,1.2,-0.3,1.4,-0.3c0.2,0,0,0.2,0.7,0.3c0.7,0.2,1.2,0.3,1.2,0.3c0,0,-0.6,-0.3,-0.5,-0.4c0.1,-0.1,1,0,1.4,0.1c0.5,0.1,1.4,0.3,1.7,0.3c0.3,0,-0.7,-0.4,-0.9,-0.5c-0.3,0,-1.6,-0.4,-1.9,-0.3c-0.4,0.2,-0.4,0.6,-0.9,0.3c-0.4,-0.2,-1,-0.5,-0.5,-0.5c0.4,-0.1,1,-0.1,1.3,0c0.3,0,1.5,0.1,1.7,0c0.2,0,-1,-0.2,-1.2,-0.3c-0.1,0,-0.8,-0.1,-1.5,-0.1c-0.7,0,-1.2,0.3,-1.5,0.4c-0.3,0.1,-1.3,0.5,-1.5,0.6c-0.1,0,0.6,-0.8,0.9,-0.9c0.3,-0.1,1,-0.9,2.2,-1c1.1,-0.1,1.9,-0.2,1.9,-0.2Z" class="g3_253" />
</g>
<path d="M291.3,189.1c0,-0.1,-0.3,0.4,-0.3,0.7c0,0.2,0.1,0.6,0.1,0.6c0,0,0,-0.3,0.2,-0.3c0.1,0,0.1,0.3,0.3,0.5c0.1,0.1,0.1,-0.2,0,-0.3c-0.1,-0.2,-0.4,-0.6,-0.3,-1.2Z" class="g3_253" />
<path d="M291.2,191.1c0,0,0.2,0.4,0.2,0.7c-0.1,0.2,0.1,0.6,0.5,1.1c0.4,0.5,0.3,0.5,0.6,0.8c0.2,0.3,0.5,0.5,0.5,0.5c0,0,-0.3,-0.4,-0.5,-0.6c-0.1,-0.3,-0.9,-1,-1,-1.6c-0.1,-0.7,-0.3,-0.9,-0.3,-0.9Z" class="g3_253" />
<g clip-path="url(#c2_253)">
<path d="M294.9,198.9c0,0,0.2,1.2,0.1,1.6c0,0.5,0.1,0.8,0,1.1c-0.2,0.3,-0.5,0.7,-0.8,0.8c-0.3,0.1,-0.3,0,-0.6,0.1c-0.4,0.1,-0.8,0.3,-1.2,0.4c-0.4,0.2,-1,0.4,-1.3,0.6c-0.3,0.1,-0.6,0.3,-1.1,0.4c-0.5,0.1,-0.9,0.3,-1.4,0.6c-0.5,0.2,-2.2,1.2,-2.7,1.4c-0.5,0.2,2.5,-1.2,2.7,-1.2c0.2,0,-3.2,2.3,-2.4,2c0.9,-0.4,2.8,-1.6,3.3,-2c0.6,-0.4,0.8,-0.5,1,-0.5c0.3,0,-0.2,0.9,-0.6,1.3c-0.4,0.4,-1.2,2,-1.1,1.9c0.1,-0.1,2.2,-3.1,2.6,-3.3c0.3,-0.3,0.7,-0.5,0.7,-0.4c0.1,0.2,-0.1,1.1,0,1.5c0.1,0.5,0.8,2.6,0.9,2.8c0.1,0.2,-0.2,-1.3,-0.1,-1.8c0,-0.4,0.2,-1,0.3,-0.7c0.2,0.2,1.4,3.4,1.9,4c0.4,0.6,1.4,1.8,1.4,1.8c0,0,-3.4,-5.4,-3.2,-7c0.2,-1.5,0.6,-1.5,1.1,-1.6c0.4,-0.1,0.6,-0.3,0.9,-1.1c0.1,-0.3,-0.4,-2.7,-0.4,-2.7Z" class="g3_253" />
<path d="M306,200.3c0.1,0.3,0.6,1.1,1.2,1.3c0.6,0.3,1.5,0.3,1.8,0.5c0.3,0.1,1.1,0.5,1.8,0.6c0.6,0.2,2.7,0.6,2.8,0.6c0.1,0,-2.5,-0.3,-2.8,-0.2c-0.3,0.1,-0.2,0.7,-0.2,1c0,0.3,-0.3,-0.3,-0.5,-0.8c-0.2,-0.4,-0.6,-0.5,-0.6,0c-0.1,0.5,-0.4,1.6,-0.8,2.3c-0.3,0.6,-1.6,1.7,-1.9,2.1c-0.3,0.5,-1,0.8,-1,0.8c0,0,1.5,-2.8,1.8,-3.4c0.2,-0.7,0.8,-2.6,0.5,-2.8c-0.2,-0.2,-1.2,-0.4,-1.7,-0.9C306.1,201,306,200.3,306,200.3Z" class="g3_253" />
</g>
<path d="M294.1,250.4c-0.1,0,-0.1,0,-0.1,-0.1c0,0,0,-0.1,0.1,-0.1c0,0,0.1,0.1,0.1,0.1c0,0.1,0,0.1,-0.1,0.1m-0.2,-0.5c-0.9,0.1,-1.2,0.7,-1.5,0.8c0,0,0.4,0.1,0.5,0.1c0,-0.1,0.7,-0.8,0.7,-0.5c0,0.3,0.1,0.6,0.7,0.6c0.5,0,0.6,-0.5,0.6,-0.5c0,0,0.1,-0.2,0.5,0.5c-0.1,-0.7,-0.7,-1.1,-1.5,-1Z" class="g2_253" />
<path d="M300.3,250.1c-0.1,0,-0.1,0,-0.1,-0.1c0,0,0,-0.1,0,-0.1c0.1,0,0.2,0,0.2,0.1c0,0.1,-0.1,0.1,-0.1,0.1m1.6,0.2c-0.1,-0.2,-0.5,-0.8,-1.3,-0.8c-0.6,-0.1,-0.9,0,-1.3,0.3c-0.3,0.1,-0.8,0.9,-0.8,0.9c0,0,0.4,-0.1,0.6,-0.5c0.3,-0.4,0.7,-0.3,0.7,-0.3c0,0,-0.2,0.4,0.2,0.6c0.6,0.3,1,-0.2,1,-0.2c0,0,0,-0.1,0.1,-0.1c0.2,-0.1,0.3,0.2,0.4,0.2c0.1,0,0.5,0,0.4,-0.1Z" class="g2_253" />
<path d="M295,249.4c0,0,-0.7,-0.5,-1.3,-0.6c-0.6,-0.1,-0.8,-0.1,-1.1,0.1c-0.2,0.1,-0.7,0.6,-0.8,0.9l-0.2,0.2c0,0,0.5,-0.5,0.9,-0.6c0.4,-0.2,0.7,-0.3,1.2,-0.2c0.4,0.2,0.7,0.3,0.9,0.3c0.3,0.1,0.4,-0.1,0.4,-0.1Z" class="g2_253" />
<path d="M298.2,249.2c0,0,0.2,-0.5,0.6,-0.7c0.4,-0.1,1.5,-0.3,2.1,-0.1c0.7,0.2,1.4,0.7,1.4,0.7c0,0,-1.3,-0.4,-1.7,-0.3c-0.5,0.1,-0.9,0.1,-1.3,0.3c-0.5,0.2,-1.2,0.3,-1.1,0.1Z" class="g2_253" />
<path d="M295.3,250c-0.1,0,0.4,0.2,0.4,0.4c0,0.3,-0.1,1.3,-0.1,1.5c-0.1,0.2,0.1,-1.6,-0.3,-1.9Z" class="g2_253" />
<path d="M295,253.3c0.1,-0.1,-0.2,0.7,-0.2,0.9c0,0.3,0,0.4,0.2,0.5c0.2,0,0.4,-0.1,0.6,-0.1c0.1,0,0.5,0.3,0.6,0.4c0.1,0,-0.4,0,-0.5,-0.1c-0.2,-0.1,-0.1,-0.2,-0.4,-0.2c-0.3,0,-0.5,0.1,-0.6,-0.1c0,-0.1,-0.1,-0.5,0.3,-1.3Z" class="g2_253" />
<path d="M296.8,254.7c0,0,0,-0.3,0.2,-0.3c0.3,0,0.8,0.1,0.9,0c0,0,-0.5,0.3,-0.4,0.3c0.1,0,0.7,-0.1,0.8,-0.3c0.2,-0.2,0.3,-0.7,0.3,-0.9c-0.1,-0.2,-0.2,-0.4,-0.2,-0.4c0,0,0.3,0.2,0.3,0.7c0.1,0.5,-0.4,0.8,-0.5,0.8c-0.2,0.1,-0.7,0.2,-0.8,0.2c-0.1,0,-0.2,-0.2,-0.4,-0.1c-0.1,0,-0.2,0,-0.2,0Z" class="g2_253" />
<path d="M300.1,256.5c0,0,-0.5,0.5,-0.8,0.6c-0.3,0.1,-0.4,0.1,-0.6,0.2c-0.3,0.1,-0.6,0.1,-1,0.2c-0.4,0.1,-0.9,0.1,-1.3,0.1c-0.4,-0.1,-0.4,-0.2,-0.6,-0.2c-0.2,-0.1,-0.3,-0.2,-0.3,-0.3c-0.3,-0.3,-0.1,-0.5,-0.1,-0.5c0,0,0.3,-0.1,0.7,-0.1c0.4,0,0.8,0.1,1,0c0.2,0,1.1,-0.1,1.4,-0.2c0.3,-0.1,1,0,1.3,0c0.3,0.1,0.3,0.2,0.3,0.2m0.5,-0.3c-0.7,0,-1.8,-0.5,-2.4,-0.5c-0.7,0,-0.7,0.3,-1.2,0.2c-0.7,-0.1,-1.1,0,-1.5,0c-0.4,0.1,-1.1,0.6,-1.1,0.6c0,0,0.5,0.7,0.8,0.9c0.3,0.1,0.9,0.4,1.2,0.4c0.3,0,1.3,0,1.8,-0.1c0.4,0,0.9,-0.3,1.1,-0.3c0.2,-0.1,0.1,0,-0.1,0.1c-0.2,0.2,-0.7,0.4,-1.2,0.5c-0.6,0.1,-0.7,0.1,-1.3,0.1C296.1,258,296,258,295.6,257.8c-0.4,-0.2,-0.4,-0.3,-0.6,-0.3c0,0.1,0.5,0.7,0.9,0.9c0.4,0.2,0.7,0.2,0.9,0.2c0.3,0,1.3,-0.1,1.8,-0.2c0.4,-0.2,0.9,-0.8,1.2,-1.1c0.4,-0.3,1.3,-1.1,0.8,-1.1Z" class="g2_253" />
<g clip-path="url(#c3_253)">
<path d="M291.8,250.1c0,0,-0.1,0.8,-0.1,1.2c-0.1,0.5,-0.2,1.2,-0.2,1.7c0,0.4,0.2,1.3,0.2,1.7c0.1,0.4,0.3,1.7,0.5,1.9c0.1,0.3,0.4,0.9,1,1.9c0.7,1,1.9,2.1,2.5,2.4c0.6,0.3,1.2,0.6,2.6,0.3c1.5,-0.3,2.8,-0.9,3.6,-1.6c-0.2,0.4,-1.1,1,-2.2,1.4c-1.2,0.5,-2.3,0.6,-3.5,0.4c-0.7,-0.2,-0.6,0,-0.7,0.6c-0.1,0.5,-0.2,1.4,-0.5,1.8c-0.3,0.4,-1.2,1.2,-1.5,1.3c-0.4,0.2,1.2,-0.9,1.5,-1.7c0,-0.5,-0.2,-0.9,-0.3,-1.5c-0.1,-0.6,-0.4,-0.8,-0.4,-1.3c-0.1,-0.4,-0.7,-1.1,-0.7,-1.1c0,0,0.3,1,0.3,1.2c0.1,0.2,0.9,2.5,0.9,2.5c0,0,-0.9,-1.8,-0.9,-1.9c-0.1,-0.2,0.7,2.1,0.8,2.3c0,0.1,-0.6,-0.7,-0.7,-1.1c-0.1,-0.4,0.1,1.2,0.2,1.4c0.1,0.1,-0.5,-0.6,-0.5,-0.8c0,-0.2,-0.2,0.5,-0.3,1.2c-0.2,0.6,0,1.4,-0.4,1.8c-0.4,0.4,-1,0.4,-1,0.4c0,0,0.9,-1,0.9,-2c0.1,-0.9,-0.1,-2.6,-0.1,-3.4c0.1,-0.8,-0.6,-2.2,-0.6,-2.2c0,0,0.5,4,0.4,4.7c-0.1,0.7,-0.3,1.2,-0.5,1.7c-0.1,0.6,-0.4,1.6,-0.5,1.8c-0.2,0.2,0,-2.6,0,-3c0,-0.3,0.2,0.8,0.2,0.7c0,-0.1,0,-1.8,0,-2.5c0,-0.8,-0.1,-0.9,-0.1,-1.6c-0.1,-0.7,-0.3,-3.7,-0.3,-4.2c0.1,-0.4,0,-2.7,0,-2.7c0,0,0,5.4,-0.1,5.8c0,0.4,-0.1,2.4,-0.1,3c0,0.5,0,2.4,0,2.9c0,0.5,0,2.2,0,2.5c0.1,0.3,0.2,2.7,0.3,3.3c0.1,0.6,0.1,2.7,-0.1,3c-0.1,0.4,-0.1,-3.3,-0.2,-4c-0.1,-0.6,-0.3,-4.1,-0.2,-4.4c0,-0.3,-0.2,-1.3,-0.1,-1.8c0.1,-0.4,0,-2.3,0.1,-2.7c0,-0.5,-0.1,-1.6,0,-2c0.1,-0.3,0.2,-2.1,0.2,-2.5c0,-0.4,-0.1,-2,-0.1,-2c0,0,-0.7,7.3,-0.8,8.8c-0.2,1.4,-0.3,2.5,-0.4,3.3c-0.1,0.9,-0.2,2.1,-0.3,2.7c-0.2,0.5,-0.1,2,-0.1,2c0,0,0.2,-5.6,0.3,-6.4c0,-0.9,0.2,-3.8,0.3,-4.6c0.2,-0.7,0.3,-3.4,0.6,-4.3c0.2,-0.8,0,-1.4,0.2,-2.4c0.2,-1.1,0.4,-3.2,0.4,-3.4c0.1,-0.1,0.4,-1.6,0.5,-2.2c0.2,-0.6,0.6,-1.8,0.8,-2.4c0.2,-0.6,0.4,-1.2,0.6,-1.6c0.2,-0.4,-0.6,2.1,-0.7,2.4c-0.1,0.4,-0.3,1.4,-0.3,1.4c0,0,0.8,-2,1.3,-2.6c0.5,-0.5,1.4,-1.4,1.9,-1.6c0.4,-0.2,0.8,-0.3,0.8,-0.3c0,0,-1.6,0.7,-2.5,1.9c-0.8,1.2,-1.3,2.5,-1.5,2.8c-0.1,0.3,-0.4,1.7,-0.4,1.7Z" class="g2_253" />
</g>
<path d="M297.2,242.6c0,0,-0.3,0,-0.8,0.3c-0.4,0.4,-0.6,0.1,-1,0.6c-0.4,0.5,-1.1,1.1,-1.6,1.5c-0.5,0.4,-0.7,0.6,-0.7,0.6c0,0,1.1,-1.2,1.4,-1.6c0.2,-0.4,1.3,-1,1.5,-1.2c0.2,-0.1,0.5,-0.4,0.4,-0.4c0,0,-0.4,0,-0.8,0.3c-0.4,0.3,-1.4,1.3,-1.4,1.3l1.1,-1.3l-1.2,1.1c0,0,1,-1.2,1.8,-1.7c0.7,-0.4,0.7,-0.6,0.4,-0.5c-0.2,0.1,-1.5,1,-1.9,1.4c-0.4,0.3,0.9,-1,1.2,-1.3c0.4,-0.3,-0.7,0.3,-0.6,0.2c0,-0.1,0.9,-1,1.4,-1.2c0.5,-0.1,0.8,0.1,0.9,0c0.2,0,0,0.3,0,0.5c0,0.3,0,1,0,1.2c-0.1,0.2,-0.1,0.2,-0.1,0.2Z" class="g2_253" />
<path d="M297.5,240.5c0,0,-1,-0.1,-1.3,0c-0.3,0.1,-1.1,0.6,-1.4,1c-0.3,0.4,-1.1,1.4,-1.3,1.8c-0.2,0.3,-0.5,0.5,-0.8,1.2c-0.3,0.7,-1,2.9,-1.1,3.3c0,0.4,-0.2,1.7,-0.5,2.1c-0.3,0.3,-0.4,0.4,-0.4,0.4c0,0,0.3,-1.7,0.4,-2.3c0.2,-0.6,0.5,-2.7,0.8,-3.2c0.2,-0.5,0.8,-2,1.1,-2.1c0.3,-0.2,-0.4,0.8,-0.5,1.1c0,0.4,1,-1.6,1.6,-2.1c0.6,-0.6,1,-0.9,1.2,-1c0.3,-0.1,-1.1,0.8,-1.5,1.5c-0.4,0.7,-1,1.7,-0.9,1.6c0,0,1.6,-2.6,2.9,-3.3c0.9,-0.5,1.7,0,1.7,0Z" class="g2_253" />
<g clip-path="url(#c3_253)">
<path d="M288.1,269.3c0,0,0.7,-2.4,0.8,-2.8c0.2,-0.5,0.6,-3.6,0.7,-4.3c0.1,-0.7,0.2,-1.4,0.2,-1.5c0,-0.2,0.1,-0.7,0.2,-1.1c0.1,-0.3,-0.1,-1.4,0.1,-1.7c0.1,-0.4,0.4,-1.9,0.4,-2.4c0,-0.5,0,-1.8,0.1,-2.5c0,-0.7,0,-1.6,0,-1.6c0,0,-0.1,1,-0.3,1.5c-0.2,0.5,-0.1,1,-0.3,1.5c-0.1,0.6,-0.2,1,-0.2,1.7c0,0.6,-0.2,1,-0.1,1.6c0,0.7,0,0.9,-0.2,1.4c-0.1,0.6,-0.3,1.7,-0.4,2.3c-0.2,0.5,-0.5,2.4,-0.7,3.3c-0.3,0.8,-1.2,4.3,-1.3,4.8c-0.1,0.4,0,1.5,0.2,1.9c0.2,0.4,0.5,0.8,0.5,0.8c0,0,-0.8,-1.5,-0.4,-2.8c0.3,-1.2,0.8,-2.9,1.1,-3.7c0.3,-0.7,0.7,-3.7,0.9,-4.3c0.1,-0.6,0.1,1,-0.1,1.7c-0.2,0.8,-1.2,6.2,-1.2,6.2Z" class="g2_253" />
<path d="M286.9,267.7c0,-0.1,0.6,-3.5,0.6,-4c0.1,-0.5,0.3,-3,0.8,-3.9c0.5,-0.9,0.8,-3.1,1,-3.7c0.1,-0.7,0.3,-1.9,0.4,-2.3c0.1,-0.4,0.1,-1.7,0.3,-2.4c0.2,-0.7,0.1,-2.8,0.3,-3.1c0.1,-0.4,0.2,-1.7,0.3,-1.8c0,-0.2,0.8,-1.2,0.8,-1.2c0,0,-0.6,1.4,-0.7,1.7c-0.1,0.3,0.5,-0.5,0.5,-0.5c-0.1,0.1,0,1.3,-0.3,1.9c-0.3,0.6,-0.4,1.9,-0.5,2.6c-0.2,0.6,-0.2,1.5,-0.2,1.7c-0.1,0.2,-0.4,1.8,-0.5,2.1c-0.1,0.3,-0.3,2.3,-0.5,3.1c-0.2,0.8,-0.4,2,-0.7,2.4c-0.2,0.5,-0.6,2.1,-0.7,2.7c-0.1,0.5,-0.3,2.8,-0.6,3.4c-0.2,0.7,-0.3,1.3,-0.3,1.3Z" class="g2_253" />
</g>
<path d="M290.7,245.7c0,0,0.9,-2,1,-2.5c0.2,-0.5,1.4,-2,1.8,-2.4c0.5,-0.4,1.1,-0.5,1.1,-0.5c0,0,-1,0.7,-1.4,1c-0.4,0.4,-1.1,1.7,-1.3,2.1c-0.3,0.4,-0.2,0.5,-0.4,0.9c-0.3,0.3,-0.8,1.4,-0.8,1.4Z" class="g2_253" />
<path d="M295.9,240c-0.1,0,-0.5,0,-1,0.3c-0.6,0.3,-1.4,1.2,-1.7,1.4c-0.2,0.3,-0.5,0.6,-0.8,1.2c-0.3,0.6,-0.5,1.4,-0.5,1.4c0,0,0.9,-1.9,1.4,-2.5c0.6,-0.6,0.9,-0.9,1.4,-1.1c0.5,-0.2,1.2,-0.7,1.2,-0.7Z" class="g2_253" />
<path d="M294.2,240c0.2,-0.1,0.9,-0.4,1.2,-0.6c0.4,-0.2,0.6,0,0.6,0c0,0,-0.5,0.2,-0.8,0.4c-0.2,0.2,-1,0.2,-1,0.2Z" class="g2_253" />
<path d="M297.6,239.8c0,0,-0.4,-0.7,-0.9,-0.8c-0.5,-0.1,-1.1,-0.1,-1.4,0.1c-0.3,0.1,0.2,-0.4,1.1,-0.3c0.9,0,0.9,0.1,1.1,0.3c0.1,0.1,-0.2,-0.6,-0.2,-0.6c0,0,0.3,0.2,0.3,0.3c0,0.1,0.4,0.5,0.5,0.5c0.2,0,0.8,0.1,1,0.2c0.3,0.1,0.8,0.4,0.8,0.4c0,0,-1.1,-0.3,-1.4,-0.3c-0.2,0,-0.4,0.1,-0.2,0.1c0.3,0.1,1.5,0.2,1.8,0.4c0.4,0.2,1.6,0.9,1.9,1.1c0.2,0.1,2.1,2,2.5,2.2c0.4,0.3,0.2,0,-0.1,-0.3c-0.2,-0.4,-0.8,-1,-0.9,-1.1c0,-0.1,0.7,0.2,1.6,1.6c1,1.5,1.6,3.6,1.8,4.3c0.2,0.7,0.3,1.3,0.3,1.8c0,0.4,0.2,3.5,0.2,4.1c0.1,0.6,0.3,2.9,0.2,3.4c0,0.6,0,1.1,0,1.1c0,0,-0.4,-4.5,-0.4,-4.8c-0.1,-0.2,-0.3,-2.1,-0.3,-2.4c-0.1,-0.2,-0.1,-0.3,-0.4,-0.5c-0.3,-0.2,-1.1,-1.1,-1.3,-1.3c-0.1,-0.2,-0.8,-1.1,-0.8,-1.2c0,-0.1,0.5,0.4,1,0.7c0.6,0.4,1.3,0.6,1.3,0.6c0,0,-0.9,-0.7,-1.3,-0.9c-0.5,-0.3,-1.4,-1.5,-1.5,-1.7c0,-0.1,1.3,1,1.4,1c0.1,0,-0.4,-0.8,-0.5,-0.9c-0.2,-0.2,-1.2,-0.7,-1.7,-1.1c-0.5,-0.4,-1.5,-0.8,-1.8,-1.1c-0.3,-0.3,-1.9,-1.2,-2.1,-1.5c-0.2,-0.2,-0.9,-0.7,-0.9,-0.7c0,0,1.5,1,1.8,1.2c0.3,0.1,1.1,0.7,1.6,1c0.4,0.3,0.8,0.5,1.3,0.7c0.6,0.3,1.1,0.5,1.4,0.8c0.3,0.3,0.9,0.7,1,0.8c0.2,0.1,0.8,0.6,0.8,0.6c0,0,-1.9,-1.7,-2,-1.8c-0.1,-0.1,-1.5,-0.7,-1.6,-0.8c-0.1,-0.1,-2.5,-1.7,-2.6,-1.8c-0.2,-0.2,-1.2,-1.1,-1.4,-1.2c-0.2,-0.2,0.1,-0.3,0.3,-0.1c0.3,0.3,1,0.7,1.5,1.1c0.5,0.4,1.7,1.5,2.1,1.7c0.3,0.3,0.9,0.5,0.9,0.5l-2.9,-2.4c0,0,2.1,1.6,2.2,1.6c0.1,0.1,-2.5,-2.1,-2.7,-2.3c-0.3,-0.3,1.8,1.3,2.5,1.8c0.6,0.6,1.1,1,1.5,1.3c0.5,0.3,1.1,1.1,1.5,1.5c0.4,0.4,0.8,0.6,0.8,0.6c-0.1,0,-1.1,-1.4,-1.2,-1.6c-0.2,-0.2,-2.8,-2.4,-2.9,-2.5c-0.1,-0.1,2.4,1.7,3.1,2.5c0.7,0.8,0.7,0.8,0.5,0.3c-0.3,-0.4,-1.9,-1.9,-2.4,-2.5c-0.5,-0.6,1.2,1,1.4,1.1c0.1,0.1,0.7,0.7,0.7,0.7c0.1,0,-0.2,-1,-0.6,-1.3c-0.4,-0.4,-2,-1.8,-2.6,-2.3c-0.6,-0.4,-1.5,-1,-2,-1.2c-0.5,-0.2,-1.2,-0.4,-1.4,-0.4c-0.3,0,0.5,0.3,0.8,0.4c0.3,0.1,2,1.1,2.4,1.4c0.4,0.3,0.8,0.7,0.8,0.7c0,0,-2.6,-1.8,-3.3,-1.9c-0.7,-0.2,-0.9,-0.2,-0.8,-0.2c0,0.1,1,0.5,1.5,0.7c0.5,0.2,2.5,1.6,2.6,1.9c-0.3,-0.2,-2.1,-1.5,-2.2,-1.5c-0.2,-0.1,1.5,1.2,1.7,1.4c0.2,0.2,-2.2,-1.6,-2.6,-1.8c-0.5,-0.2,-1.4,-0.6,-1.7,-0.6c-0.2,0,0.1,-0.4,0.1,-0.4c0,-0.1,-0.6,-0.2,-0.6,-0.2Z" class="g2_253" />
<g clip-path="url(#c3_253)">
<path d="M305.1,249.4c0,-0.1,0.4,1.3,0.4,1.8c0,0.4,0,1.2,-0.2,1.9c-0.1,0.7,-0.3,4.1,-1.6,5.4c-1.2,1.3,-1.4,1.6,-1.4,1.6c0,0,1.9,-1.4,2.3,-2.4c0.5,-1,0.6,-1.6,0.6,-1.6c0,0,-0.7,3.3,-0.8,3.8c-0.1,0.5,-0.1,3,-0.1,3.9c0,0.9,0.3,2.1,0.2,2.6c0,0.5,-0.1,1.7,0.1,2.2c0.1,0.4,0.2,0.8,0.2,0.8c0,0,-0.3,-1.9,-0.2,-2.3c0.2,-0.4,0.2,-0.4,0.2,-0.3c0.1,0.1,0.2,0.7,0.3,1.1c0,0.4,0,0.5,0,0.5c0,0,0.2,-1,0.3,-1.4c0,-0.3,0.5,-2.2,0.5,-2.5c0.1,-0.2,-0.6,2,-0.7,2.1c0,0.1,0.3,-1.4,0.3,-1.6c0.1,-0.1,0.4,-1.3,0.4,-1.7c0.1,-0.4,0.1,-1.3,0.2,-1.5c0.1,-0.2,0.3,-1.8,0.2,-2.3c0,-0.5,0.4,-0.9,0.4,-1.1c0.1,-0.3,0,-2.2,0.1,-2.7c0,-0.5,0.3,-0.4,0.3,-0.8c0,-0.4,-0.1,-0.9,-0.1,-0.9c-0.1,0,-0.6,0.5,-0.8,0.6c-0.2,0.1,-0.5,0.1,-0.6,0c-0.1,0,-0.2,-0.8,-0.1,-1.4c0.1,-0.6,0.1,-0.9,0.1,-1.2c0.1,-0.3,0.1,-0.5,0.3,-0.4c0.1,0.1,0.5,0.4,0.6,0.4c0.2,0,0.1,-0.2,0,-0.4c-0.1,-0.3,0,-0.4,-0.2,-0.7c-0.1,-0.3,-1.2,-1.4,-1.2,-1.5Z" class="g2_253" />
</g>
<path d="M306.1,252.1c-0.1,0.1,0,0.3,-0.1,0.6c-0.1,0.3,-0.4,0.6,-0.2,0.5c0.2,0,0.4,-0.3,0.6,-0.4c0.2,-0.2,0.4,-0.2,0.4,-0.2c0,0,-0.7,-0.6,-0.7,-0.5Z" class="g2_253" />
<g clip-path="url(#c3_253)">
<path d="M290.4,265.3c0,0.1,0.2,1.8,0.2,2.5c0,0.8,-0.2,3,-0.3,3.4c0,0.4,-0.1,2.1,-0.1,2.2c0,0.2,0.4,-3.3,0.5,-3.5c0.1,-0.2,0.1,0.9,0.1,0.9c0,0.1,0.1,-2.1,0,-2.7c0,-0.5,-0.4,-2.8,-0.4,-2.8Z" class="g2_253" />
<path d="M299.3,238.8c0,0,0.8,-0.1,1.5,0.2c0.7,0.3,1,0.3,1.8,0.8c0.8,0.5,0.8,0.7,1.5,1.1c0.7,0.4,1.2,0.9,1.8,1.5c0.5,0.6,1.5,1.9,1.7,2.2c0.1,0.3,-1.9,-2.4,-2.4,-2.6c-0.6,-0.2,1.6,1.4,3,4.1c1.3,2.7,1.3,3.6,1.4,4.2c0.1,0.7,0.8,3.3,0.8,4.6c0,1.3,0.3,2.6,0.6,3.8c0.3,1.2,0.5,3,0.5,3c0,0,-0.9,-3.4,-1.1,-3.3c-0.2,0.2,0.2,2,0.3,2.5c0.1,0.6,0.6,1.3,0.6,1.8c0,0.4,-0.7,-1.5,-0.8,-1.5c-0.2,-0.1,0.4,4,0.4,4.9c0,0.9,0.4,5,0.4,5.5c0,0.6,0.1,2.9,0.1,3.5c0,0.6,-0.1,1.3,-0.2,2.1c-0.1,0.9,-0.3,1.8,-0.2,1.7c0,-0.1,-0.3,-3.9,-0.1,-4.3c0.1,-0.5,0,-3.4,-0.1,-4.1c0,-0.7,-0.5,-3.7,-0.6,-4.5c0,-0.8,0.5,5,0.4,5.6c-0.1,0.6,-0.3,3,-0.3,3.8c0.1,0.9,-0.1,1.3,-0.1,2.9c0.1,1.6,0.1,3,0,3.7c-0.1,0.8,-0.4,2.9,-0.4,2.9c0,0,-1.6,-5.5,-0.9,-8.3c0.6,-2.8,0.8,-3.3,0.8,-3.7c0.1,-0.5,0.4,-3.8,0.4,-3.8c0,0,-0.6,-1.7,-0.6,-2c-0.1,-0.2,0.3,2.4,0.2,2.9c-0.2,0.4,-0.3,2,-0.2,1.9c0,-0.1,-0.2,-4.7,-0.2,-4.8c0,-0.2,0,6.9,-0.2,7.2c-0.1,0.4,-0.2,-6,-0.2,-6.2c0,-0.2,-0.1,5.8,-0.1,5.8l-0.2,-5.3c0,0,0.4,-1.6,0.6,-3c0.1,-1.4,0,-4.2,0.1,-5.3c0.1,-1,0,-2.6,0,-5.2c0,-2.6,-0.4,-4.7,-0.5,-5.4c-0.1,-0.8,0,-1.8,-2.1,-5.3c-2.1,-3.5,-3,-3.4,-3.8,-4.1c-0.8,-0.7,-1.6,-0.9,-2.1,-1.2c-0.6,-0.2,-1.5,-0.3,-1.5,-0.3Z" class="g2_253" />
<path d="M302.5,240.3c0,0,1.1,0.7,2.7,2.7c1.8,2.2,1.9,3.5,2.1,4.2c0.2,0.6,0.6,1.6,0.7,3.6c0.1,1.9,0.4,4.7,0.3,6c-0.1,1.3,-0.2,3.1,-0.1,4.4c0.2,1.2,0.4,4.1,0.3,4.9c-0.1,0.8,-0.1,4.1,-0.8,5.4c-0.6,1.4,-0.9,2.4,-0.9,2.4c0,0,0.9,-4.7,1,-5.2c0,-0.5,0.2,-3.9,0.2,-4.7c-0.1,-0.7,-0.3,-3.9,-0.3,-4.6c0.1,-0.8,-0.1,-7.1,-0.1,-7.8c-0.1,-0.7,-0.4,-3.8,-0.7,-4.6c-0.3,-0.9,-0.8,-2.8,-2.4,-4.6c-1.6,-1.7,-2,-2.1,-2,-2.1Z" class="g2_253" />
<path d="M307,255.7c0,0.1,0.1,2.9,0,3.7c-0.1,0.7,-0.1,2.2,0,3.1c0.1,0.8,0.2,1.1,0.3,1.9c0.1,0.7,-0.3,3.8,-0.5,4.5c-0.2,0.7,0.8,-3.2,0.8,-4.4c0.1,-1.2,0,-3.7,0,-4.4c-0.1,-0.8,-0.2,2.6,-0.3,2.7c0,0.1,0,-4.1,0,-4.7c0,-0.6,-0.3,-2.4,-0.3,-2.4Z" class="g2_253" />
<path d="M304,272.7c0.1,-0.1,0.9,-2.6,1.3,-4.5c0.4,-1.8,0.7,-2.6,0.7,-2.7c0,-0.2,0.3,1.7,0.3,2.4c0.1,0.7,0.3,0.9,0.2,2.4c-0.1,1.5,-0.9,3.5,-1.3,4.1c0.6,-1.4,1.1,-2.8,1.1,-3.8c0,-0.9,-0.2,-1.3,-0.2,-1.3c0,0,-0.1,2.3,-0.2,2.7c-0.2,0.5,-0.3,-1.6,-0.4,-2c0,-0.5,-0.6,0.7,-0.7,1c-0.1,0.3,-0.8,1.7,-0.8,1.7Z" class="g2_253" />
<path d="M302.6,279.3c-0.1,0,1.4,-1.7,1.7,-2.5c0,-0.2,-0.6,0.5,-1.1,0.7c0.3,-0.2,0.8,-0.6,1.5,-1.7c0.8,-1.1,0.7,-1.1,1,-1.7c0.3,-0.7,0.9,-3.1,1,-3.5c0.1,-0.3,0.9,-3.5,0.9,-3.5c0,0,-0.4,3.2,-0.7,4.1c-0.4,1,-0.9,2.5,-1.1,3c-0.2,0.5,-2.4,4.6,-3.2,5.1Z" class="g2_253" />
<path d="M293.8,264.9c0,0,1,1.6,1.7,2.2c0.7,0.7,2,1.1,3,1.1c1,0.1,2.7,-0.1,4.3,-0.9c1.5,-0.8,2,-1.4,2.2,-1.5c0.2,0,0.2,0.7,-0.2,1c-0.4,0.4,-1.7,1.4,-2.7,1.8c-0.9,0.4,-3.1,0.9,-4.9,0.2c-1.7,-0.6,-3.5,-2.6,-3.8,-3.2c-0.4,-0.7,0.2,0.3,0.7,0.6c0.5,0.6,-0.3,-1.3,-0.3,-1.3Z" class="g2_253" />
<path d="M312.2,266.9c0.1,0.1,0.9,0.3,1.9,0.8c1.5,0.8,2.8,2.1,3.2,2.5c0.5,0.5,2,2.7,2.3,4.7c0.3,1.4,0,2.6,0,2.6c0,0,-0.2,-3.8,-2.6,-7c-1.2,-1.5,-2.2,-1.9,-2.9,-2.3c-0.6,-0.4,-1.8,-0.7,-1.9,-0.5c-0.2,0.1,0,2.5,0,3.3c-0.1,0.8,-0.5,3,-0.5,3c0,0,-0.4,-5.8,-0.3,-7c0,-1.2,-0.3,-3.9,-0.3,-3.9Z" class="g2_253" />
<path d="M289.3,266.1c-0.3,0.1,-2.6,0.6,-3.2,0.9c-0.7,0.3,-2.6,1.7,-3.3,2.7c-0.7,0.9,-1.6,3.7,-1.6,3.7c0,0,1.1,-3.3,2.5,-4.3c1.4,-1,1.8,-1.7,3,-1.9c1.2,-0.2,2.6,-1.1,2.6,-1.1Z" class="g2_253" />
</g>
<path d="M296.7,314.4l0,-0.1c0,0,0,-0.1,0,-0.1c0.1,0,0.1,0.1,0.1,0.1c0,0.1,0,0.1,-0.1,0.1m0.7,-0.2c-0.4,-0.1,-1.1,-0.1,-1.3,-0.1c-0.2,0,-0.8,0.3,-1,0.4c-0.1,0.1,-0.3,0.3,-0.5,0.3c-0.1,0,-0.2,0.1,-0.2,0.1c0,0,0.5,-0.1,0.6,-0.1c0.1,-0.1,0.2,-0.2,0.3,-0.1c0.2,0,0.4,0,0.4,0c0,0,-0.1,-0.3,0,-0.3c0.1,-0.1,0.3,-0.1,0.3,-0.1c0.1,0,0,0.2,0.3,0.4c0.3,0.2,0.8,0,0.8,-0.1c0,-0.1,0.1,-0.3,0.1,-0.3c0,0,0.2,-0.2,0.9,0.5c0,0,-0.3,-0.6,-0.7,-0.6Z" class="g3_253" />
<path d="M303.4,314c-0.1,0,-0.1,-0.1,-0.1,-0.1c0,-0.1,0,-0.1,0.1,-0.1c0,0,0.1,0,0.1,0.1c0,0,-0.1,0.1,-0.1,0.1m1.6,0.1c-0.3,-0.1,-0.2,-0.2,-0.6,-0.3c-0.4,-0.2,-1.1,-0.1,-1.7,-0.1c-0.6,0,-1.1,0.9,-1.1,0.9c0,0,0.8,-0.8,0.9,-0.6c0.1,0.1,0.3,0.3,0.8,0.3c0.5,0,0.5,-0.5,0.6,-0.5c0.2,0,0.1,0.2,0.2,0.2c0.1,0,0.4,0.1,0.5,0.1c0.1,0,0.7,0,0.7,0c0,0,-0.1,0,-0.3,0Z" class="g3_253" />
<path d="M298.3,313.1c0,0,-0.2,-0.3,-0.7,-0.3c-0.5,-0.1,-1.6,-0.1,-2,-0.1c-0.3,0,-1.1,0.3,-1.2,0.4c-0.1,0.1,-0.5,0.3,-0.5,0.3c0,0,1.1,-0.2,1.5,-0.2c0.4,0,1.4,0.1,1.8,0.1c0.5,0,1,0,1.1,-0.2Z" class="g3_253" />
<path d="M301.2,312.9c0,0,-0.1,-0.4,0.4,-0.5c0.6,-0.1,0.8,-0.1,1.5,-0.2c0.7,-0.1,0.8,-0.2,1.1,-0.2c0.3,0,1.3,0.3,1.5,0.4c0.2,0.1,-0.6,0.1,-0.8,0.1c-0.1,0.1,-1.4,0.2,-1.7,0.3c-0.3,0,-1.9,0.1,-2,0.1Z" class="g3_253" />
<path d="M297.8,318c0,0,0,0.5,0.1,0.6c0.1,0.1,0.3,0.2,0.6,0.2c0.4,0,0.6,0,0.7,0.1c0.1,0.1,0.2,0.2,0.2,0.2c0,0,-0.5,-0.1,-0.7,-0.1c-0.3,0,-0.5,0,-0.6,-0.1c-0.2,0,-0.5,-0.4,-0.3,-0.9Z" class="g3_253" />
<path d="M299.9,319.3c-0.1,0,0.4,0,0.6,0c0.2,-0.1,0.4,-0.4,0.6,-0.5c0.2,-0.1,0.3,-0.2,0.6,-0.2c0.3,0,0.4,-0.1,0.5,-0.2c0,-0.2,0.1,-0.5,0,-0.8c0.5,0.7,-0.2,1,-0.2,1c0,0,-0.6,0.2,-0.7,0.2c-0.2,0.1,-0.7,0.8,-1.4,0.5Z" class="g3_253" />
<path d="M302.1,317c0,0,0.4,0.3,0.6,0.4c0.2,0.2,0.4,0.6,0.6,0.8c0.2,0.2,0.3,0.5,0.6,0.7c0.4,0.2,0.5,0.2,0.7,0.3c0.1,0.2,0.2,0.8,0.2,0.8c0,0,0.1,-0.8,-0.2,-1c-0.3,-0.2,-0.6,-0.2,-0.9,-0.5C303,318,303.1,317.3,302.1,317Z" class="g3_253" />
<path d="M297,318.1c0,0,-0.3,0.7,-0.5,0.8c-0.2,0.2,-0.5,0.5,-0.7,0.6c-0.2,0.2,-0.4,0.5,-0.1,1.1c0,-0.7,0,-0.8,0.2,-0.9c0.1,-0.2,0.5,-0.4,0.7,-0.6c0.2,-0.2,0.4,-0.9,0.4,-1Z" class="g3_253" />
<path d="M296.6,320.6c0,0,0.8,0,1.1,-0.1c0.2,-0.1,0.8,-0.1,1.1,-0.1c0.3,0,0.9,0,1.1,0.1c0.2,0,0.5,-0.1,0.6,-0.1c0.2,-0.1,2,-0.2,2.4,-0.2c0.3,0,0.9,0,0.9,0c0,0,-0.2,0.2,-0.3,0.5c-0.1,0.2,-0.9,2.3,-2.8,2.5c-2,0.2,-2.9,-1,-2.9,-1c0,0,0.7,0.6,1.6,0.7c0.9,0.2,1.5,0,2,-0.2c0.4,-0.2,0.7,-0.4,0.8,-0.7c0.1,-0.3,0.2,0.2,-2.1,0.3c-0.4,0,2.4,-0.5,3,-1.4c0.1,-0.2,0,-0.5,0,-0.5c0,0,-0.9,-0.1,-1.3,0c-0.4,0.1,-0.8,0.3,-1,0.3c-0.1,0,-0.9,0,-1.2,0c-0.2,0,-0.9,-0.1,-1.2,-0.1c-0.3,0,-0.9,0.1,-0.9,0.1l0,0.4c0,0,0.2,0.3,0.5,0.5c0.3,0.2,1.1,0.6,1.1,0.6c0.1,0,-1.2,-0.4,-1.8,-0.8c-0.6,-0.5,-0.7,-0.8,-0.7,-0.8Z" class="g3_253" />
<path d="M304.4,311.5c0,0.1,1.2,-0.8,1.3,-1.5c0.1,-0.6,0.2,-0.2,0.2,-0.2c0,0,-0.1,0.6,0,0.8c0.1,0.2,0.2,0.5,0.6,1c0.4,0.5,0.3,0.4,0.4,1c0.1,0.5,0.1,1.3,0.2,1.7c0.1,0.4,0.1,0.8,0.1,1.1c0,0.3,-0.1,1.3,-0.2,1.6c0,0.4,-0.1,2.3,-0.2,2.6c0,0.3,-0.2,1.8,-0.8,2.6c-0.6,0.7,-2.3,3,-3.1,3.4c-0.7,0.3,-1.5,0.5,-1.9,0.5c-0.5,-0.1,-1.4,0,-1.7,-0.1c-0.2,-0.1,-1,-0.2,-1.4,-0.6c-0.3,-0.3,-1.2,-1.2,-1.8,-1.8c-0.5,-0.5,-1.2,-1.4,-1.2,-1.3c0.1,0,1.2,1.5,1.4,1.8c0.2,0.2,1,1.1,1.5,1.5c0.6,0.5,1.2,0.8,2.3,0.9c1,0,2,-0.1,2.4,-0.2c0.4,-0.2,1.3,-1,1.6,-1.5c0.3,-0.5,1.6,-2.1,1.9,-2.5c0.3,-0.3,0.8,-1.6,0.9,-2.5c0.2,-0.9,0.2,-2.4,0.3,-2.8c0,-0.4,0.1,-1,0.3,-1.1c0.1,-0.2,0.1,-0.9,0.2,-1.2c0,-0.3,-0.1,-0.5,0,-0.8c0.1,-0.2,0.3,-0.3,0.3,-0.3c0,0,0,-1.3,0,-1.3c0,-0.1,0.2,0,0.2,0c0,0,-0.1,-0.7,-0.1,-0.7c0.1,-0.1,0.5,0.4,0.5,0.4c0,0,-0.1,-0.5,0,-0.5c0.1,0,0.4,0.1,0.4,0.1c0,0,-0.3,-0.4,-0.4,-0.5c0,-0.1,-0.1,-0.2,0,-0.3c0.1,-0.1,0.4,-0.1,0.4,-0.1c0,0,-0.4,-0.3,-0.4,-0.4c0,-0.1,0.1,-0.3,0.1,-0.3c0,0,-0.1,0,-0.2,0c-0.1,-0.1,-0.1,-0.4,-0.1,-0.4l0.3,0.2c0,0,-0.3,-0.3,-0.3,-0.3c0.1,-0.1,0.2,-0.1,0.2,-0.1c0,0,-0.3,-0.2,-0.3,-0.3c-0.1,-0.1,0.1,-0.1,0.1,-0.1c0,0,-0.2,-0.1,-0.2,-0.2c0,-0.2,-0.1,-0.5,-0.1,-0.6c0,-0.2,-0.2,-0.5,-0.1,-0.5c0,0,0.3,0,0.3,0c0,0,-0.1,-0.1,-0.3,-0.2c-0.2,0,-0.4,-0.2,-0.4,-0.2l0.5,-0.1c0,0,-0.1,-0.1,-0.3,-0.2c-0.2,0,-0.2,-0.1,0,-0.1c0.1,0,0.2,-0.1,0.2,-0.1c0,0,-0.3,-0.3,-0.4,-0.3c-0.1,0,-0.2,-0.2,-0.2,-0.2c0.1,0,0.2,-0.2,0.2,-0.2c0,0,-0.1,-0.1,-0.3,-0.2c-0.1,-0.1,-0.1,-0.2,-0.1,-0.3c-0.1,-0.1,-0.3,0,-0.4,-0.1c-0.1,0,-0.2,-0.4,-0.2,-0.4c0,0,0,-0.3,0,-0.4c0,0,-0.2,-0.4,0,-0.4c0,0,-0.3,0,-0.3,0.1c-0.1,0.1,0.1,0.5,-0.2,0.5c-0.2,0.1,-0.9,0.6,-1.1,0.6c-0.2,0,-0.5,0.1,-0.7,0.2c-0.1,0,-0.4,0.2,-0.4,0.2c0,0,0.7,0,0.9,-0.1c0.3,0,0.6,0,0.8,-0.1c0.2,-0.1,0.3,-0.1,0.2,0c0,0.1,-0.6,0.7,-0.7,0.8c-0.1,0.1,-0.5,0.3,-0.4,0.3c0.2,0,1.2,-0.6,1.3,-0.7c0,-0.1,0.2,0.1,0.1,0.2c0,0.1,-0.3,0.7,-0.5,0.8c-0.3,0.1,-1.4,0.6,-1.4,0.6c0,0,0.6,0,1,-0.2c0.5,-0.2,1.1,-0.9,1.2,-0.9c0,-0.1,0.1,0.4,0,0.6c0,0.2,-0.3,0.6,-0.3,0.6l0.5,-0.5c0,0,-0.2,0.7,-0.3,0.9c0,0.2,-0.2,0.6,-0.2,0.7c0.1,0.2,-0.2,0.6,-0.3,0.6c-0.1,0,-0.4,1.4,-1.4,2Z" class="g3_253" />
<path d="M308.7,312.3c0,0,0.1,0.3,0,0.6c0,0.2,-0.1,0.4,-0.1,0.5c0,0.1,-0.2,-0.3,-0.3,-0.3c0,-0.1,0.1,-0.6,0.1,-0.9c0,-0.2,-0.1,-0.3,-0.1,-0.3Z" class="g3_253" />
<path d="M308.2,313.5c0.1,0,0.1,0.4,0.1,0.7c0,0.2,-0.4,0.6,-0.5,0.6c0,0.1,-0.1,-0.5,0,-0.6c0,-0.1,0.4,-0.7,0.4,-0.7Z" class="g3_253" />
<path d="M308.9,312.3c0,0,0.1,0.2,0,0.5c-0.1,0.2,-0.2,0.7,-0.2,1c-0.1,0.3,-0.1,1.1,-0.2,1.2c0,0.1,-0.5,0.8,-0.6,0.9c-0.1,0.1,-0.1,0.7,-0.3,0.9c0,-0.4,0.2,-1,0.2,-1c0,0,0.5,-0.7,0.6,-0.9c0.1,-0.2,0.1,-1,0.2,-1.2c0,-0.2,0.4,-1.2,0.3,-1.4Z" class="g3_253" />
<path d="M302.7,311.3c0.1,-0.1,2,-1.1,2.3,-1.6c0.4,-0.4,0.9,-1,0.9,-1.1c0,0,0.1,-0.5,0.1,-0.5c0,0,-1,1.3,-1,1.4c-0.1,0.1,-2.3,1.8,-2.3,1.8Z" class="g3_253" />
<path d="M301.5,310.3c0.1,0,1,-0.7,1.1,-0.7c0.2,0,0.8,0,1.4,-0.2c0.6,-0.3,0.8,-0.6,1.1,-0.8c0.3,-0.2,0.7,-0.6,0.7,-0.6c0,0,-0.6,0,-0.8,0c-0.2,0.1,-0.5,0.2,-0.9,0.4c-0.3,0.1,-1.1,0.4,-1.2,0.5c0,0.2,-0.1,0.4,-0.2,0.5c-0.2,0.1,-1.2,0.9,-1.2,0.9Z" class="g3_253" />
<path d="M299.1,310c0.1,0,1.3,-0.6,1.6,-0.7c0.3,-0.1,0.7,-0.3,0.9,-0.4c0.2,0,-0.1,0.1,-0.1,0.3c-0.1,0.1,-1.5,1.1,-1.4,1.1c0.1,0,1.5,-1.1,1.8,-1.2c0.3,-0.1,0,0.4,-0.2,0.6c-0.3,0.2,-1,0.8,-0.9,0.8c0,-0.1,1.6,-1.3,1.8,-1.5c0.2,-0.3,0.5,-0.7,0.7,-0.8c0.3,0,0.9,-0.1,0.9,-0.1c0,0,-1.1,0,-1,-0.1c0.1,-0.1,0.8,-0.4,0.9,-0.4c0.2,-0.1,-0.2,0,-0.9,0c-0.6,0,-1.5,0.1,-1.9,0c-0.3,0,-0.8,0,-0.9,-0.1c-0.2,-0.1,-0.1,0.3,0,0.3c0.1,0,-0.7,0.4,-0.9,0.4c-0.2,0.1,-0.8,0.6,-1.3,0.8c-0.5,0.1,-1.5,0.8,-1.6,0.9c-0.1,0,1.3,-0.6,1.3,-0.5c0,0.2,-0.4,0.9,-0.8,1.4c-0.5,0.4,-1.8,1.3,-1.8,1.3c0,0,1.3,-0.6,2.1,-1.4c0.8,-0.8,1,-1.2,1.1,-1.3c0.2,0,0.5,-0.3,0.7,-0.4c0.2,0,-0.1,0.5,-0.1,0.5l-1.2,1.3c0,0,1.8,-1.5,2.2,-1.7c0.3,-0.1,0.6,-0.2,0.6,-0.2Z" class="g3_253" />
<path d="M302.8,307.4c0,0,1.3,-0.6,1.3,-0.7c0,-0.1,-0.1,-0.2,-0.4,-0.1c-0.4,0.2,-1,0.6,-1.7,0.6c0,-0.1,1.2,-0.6,1.2,-0.6c0,0,0.5,-0.1,0.9,-0.2c0.4,0,1,-0.4,1,-0.4c0,0,-0.7,0.6,-0.9,0.9c-0.2,0.2,-0.3,0.4,-0.7,0.4c-0.4,0.1,-0.7,0.1,-0.7,0.1Z" class="g3_253" />
<g clip-path="url(#c4_253)">
<path d="M302.5,305.5c-0.1,0,0.7,0.1,1.4,0c0.8,-0.2,1.2,-0.5,1.4,-0.7c0.2,-0.2,1,-0.7,1.1,-0.7c0.1,-0.1,0.1,-0.1,0.4,0.1c0.3,0.1,1,0.6,1,0.9c0,0.3,0.1,0.8,0.1,0.7c0,0,0.1,-0.6,0.1,-0.6c0,0,0.2,0.4,0.4,1c0.4,-0.3,-0.8,-2.3,-1.9,-2.4c-1.1,-0.2,-0.7,0,-0.8,0c-0.1,-0.1,-0.1,-0.2,-0.1,-0.4c0.1,-0.1,-0.1,-0.1,-0.1,-0.1l0.3,-0.5c0,0,-0.6,0.4,-0.7,0.4c-0.1,-0.1,0,-0.3,0.1,-0.4c0.1,0,0.3,-0.1,0.3,-0.1c0,0,-0.3,-0.1,-0.5,0.1c-0.2,0.3,-0.4,0.3,-0.4,0.4c-0.1,0,-0.2,-0.1,-0.1,-0.3c0.2,-0.2,0.6,-0.5,0.6,-0.6c0,0,-0.7,0.6,-0.7,0.4c0,-0.1,0.1,-0.5,-0.4,-1c-0.5,-0.5,-0.8,-0.8,-1.5,-0.9c-0.7,-0.2,-1.4,-0.1,-1.4,-0.1c-0.1,0,1.1,0.2,1.5,0.4c0.4,0.2,1,0.5,1.3,1.2c-0.3,-0.2,-0.7,-0.8,-1.2,-0.9c0.5,0.4,0.8,0.7,0.9,1c0,0.2,-0.5,-0.6,-1.6,-1.1c-1.1,-0.4,-1.9,-0.5,-2.3,-0.4c-0.4,0.1,-1.1,0.4,-1.1,0.4c0,0,1.5,0,2.2,0.2c0.7,0.2,0.7,0.4,0.9,0.3c0.2,0,0.3,0,0.6,0.1c0.3,0.1,1,0.4,0.5,0.4c-0.4,0,-1.6,-0.2,-2.2,-0.2c-0.6,0,-0.7,0,-0.7,0c0,0,0.9,0.3,1.3,0.3c0.5,0,1.5,0,1.7,0.2c0.3,0.1,0.8,0.5,0.5,0.4c-0.3,0,-0.5,0,-0.5,0c0,0,0.7,0.3,0.6,0.4c-0.1,0.1,-0.6,-0.1,-0.9,-0.2c-0.2,-0.1,0.4,0.4,0.7,0.5c0.4,0.1,0.6,0.1,1,0.2c0.3,0.1,0.9,0,0.8,0.2c-0.1,0.1,0.2,0.3,-0.6,0.1c-0.9,-0.1,-2.1,-0.6,-2.5,-0.7c-0.4,0,-0.5,0,-0.5,0c0,0,0.6,0.3,0.9,0.4c0.3,0.1,1.3,0.5,1.5,0.6c0.3,0,-0.8,-0.2,-1.1,-0.1c-0.3,0,-0.6,0,-0.6,0c0,0,1.3,0.2,1.3,0.3c0,0,-0.9,0.1,-1.1,0.1c-0.2,-0.1,-1.4,-0.2,-1.5,-0.2c-0.1,0,2,0.4,1.8,0.4c-0.1,0.1,-1.6,0.6,-3.9,-0.5c-0.2,-0.2,0.8,0.6,1.1,0.7c0.3,0.2,1.1,0.3,1.5,0.3c0.3,-0.1,1.8,-0.5,2,-0.4c0.1,0.1,-0.4,0.5,-0.9,0.4Z" class="g3_253" />
</g>
<path d="M297.4,304.1c0.4,0.1,0.4,0.3,0.9,0.7c0.5,0.3,1.2,0.5,1.5,0.7c0.4,0.3,0.8,0.3,1.1,0.6c0.4,0.2,1.1,0.6,1.4,0.6c0.3,0,-0.4,0.3,-0.8,0.3c-0.3,-0.1,-0.6,-0.4,-1.1,-0.4c-0.4,0,-0.8,-0.1,-1.6,0.1c-0.8,0.2,-1.1,0.1,-1.4,0.2c-0.3,0.1,-0.9,0.2,-1.4,0.1c-0.5,0,-0.7,0.1,-1.4,0.1c-0.6,-0.1,-1.2,0,-1.5,0.1c-0.4,0.1,-0.9,0.5,-1,0.5c-0.1,0,-0.3,0.1,-0.5,0.1c-0.1,0.1,-0.5,0.6,-0.5,0.8c-0.1,0.1,0.2,-0.8,0.6,-1.1c0.4,-0.2,0.9,-0.4,1.3,-0.5c0.3,-0.2,0.3,-0.4,1,-0.3c0.8,0.1,1.7,0.1,2.1,0.1c0.3,-0.1,1.1,0,1.6,-0.2c0.5,-0.1,1.8,-0.2,1.9,-0.3c0.2,-0.1,-0.4,-0.1,-0.9,-0.1c-0.5,0,-1.1,0.1,-1.7,0c-0.7,0,1.5,-0.1,1.6,-0.3c0.1,-0.1,0.1,-0.3,-0.1,-0.3c-0.2,-0.1,-0.6,-0.1,-0.9,-0.2c-0.4,0,-1.3,0,-1.9,0c-0.7,0,-1.5,0,-1.9,0.1c-0.5,0.2,-1.4,0.9,-1.5,1c-0.1,0,1,-1.2,1.7,-1.3c0.7,-0.1,3.2,0,3.8,0.1c0.5,0,1.2,0.4,1.5,0.4c0.3,0.1,0.5,0,0.1,-0.1c-0.4,-0.2,-1.5,-0.7,-1.8,-0.7c-0.2,0,-1.5,0,-1.9,0.1c-0.4,0.1,0.7,-0.2,1.2,-0.3c0.6,0,0.8,-0.1,0.6,-0.2c-0.2,-0.1,-0.5,0,-0.9,0.1c-0.3,0,-1.1,-0.1,-1.4,0c-0.4,0.1,-1.3,0.3,-1.6,0.4c-0.3,0.1,-1,0.3,-0.9,0.3c0.1,-0.1,1.3,-0.6,1.7,-0.8c0.5,-0.1,2.1,-0.2,2.1,-0.2c0,0,-0.1,-0.2,-0.7,-0.2c-0.7,0.1,-1.8,0.3,-1.9,0.3c-0.2,0,0.6,-0.3,1.1,-0.4c0.4,-0.1,1.3,-0.3,2.4,0.1Z" class="g3_253" />
<g clip-path="url(#c4_253)">
<path d="M298.4,300.9c0,0,-0.6,-0.2,-1.2,-0.2c-0.6,0.1,-0.9,0.2,-1.4,0.3c-0.5,0.2,-1.5,0.5,-1.8,0.7c-0.2,0.1,-1.2,0.7,-1.5,0.9c-0.3,0.3,-1,1,-1,1c0.1,-0.1,1.2,-1,1.4,-0.9c0.2,0,0.2,0.2,-0.3,0.4c-0.4,0.2,-0.9,0.6,-0.9,0.6c0.1,0,0.4,-0.1,0.3,0c-0.1,0.1,-1.1,1,-1.2,1.3c-0.2,0.2,0.9,-0.8,0.8,-0.6c-0.1,0.2,-1.2,1.5,-1.3,1.7c-0.1,0.2,-0.2,0.9,-0.2,0.9c0,0,0.4,-0.8,0.6,-0.8c0.1,0,-0.1,0.5,-0.3,0.7c-0.2,0.3,-0.4,0.6,-0.4,0.8c0,0.2,0,0.9,0.1,0.9c0.1,0,0.2,1.5,0.2,1.5c0,0,0.3,-0.4,0.4,-0.3c0.1,0,0,0.8,0,0.9c0,0.1,0,0.6,0,0.6c0,-0.1,0.6,-0.4,0.5,-0.3c-0.2,0.2,-0.4,0.3,-0.5,0.5c-0.1,0.2,0.1,0.2,0.2,0.3c0.1,0.2,-0.1,0.8,-0.1,0.8c0,0,0.1,0.2,0.2,0.1c0.1,0,0.4,-0.3,0.5,-0.3c0,0.1,-0.1,0.7,-0.1,0.7c0,0,0,0.5,0.2,0.5c0.1,0,0.2,0.2,0.2,0.3c0,0.1,0,0.6,0,0.7c0,0.1,0.1,0.4,0.3,0.6c0,0,0.2,0.5,0.1,0.8c0,0.2,0.2,0.5,0.2,0.5c0,0,0.6,0.8,0.7,1.2c0.1,0.4,0.3,0.8,0.3,0.8c0,0,-0.2,-0.9,-0.3,-1.2c-0.1,-0.3,-0.4,-1,-0.5,-1.5c0,-0.5,0,-1.6,0.1,-1.8c0.1,-0.3,0.3,-0.3,0.3,-0.1c0,0.1,0.1,0.4,0.2,0.3c0.1,-0.1,0.3,-0.1,0.3,-0.2c0.1,-0.1,0.1,0.1,0.2,0c0,0,-0.1,-0.7,0,-0.7c0,0,0.1,0.3,0.1,0.3c0,0,0.1,-0.5,0.1,-0.5c0.1,-0.1,0.5,-0.3,0.6,-0.3c0.1,-0.1,0.1,-0.5,0.1,-0.7c0,-0.1,0.4,-0.5,0.4,-0.5c0,0,-0.1,0.7,-0.2,0.9c0,0.2,0.1,1.2,0.1,1.2c0,-0.1,0.2,-1.7,0.4,-2c0.1,-0.2,0.6,-0.8,0.6,-0.8c0,0,-0.6,0.6,-0.6,0.5c0,0,0.6,-0.6,0.5,-0.6c-0.1,0.1,-1.2,0.9,-1.2,0.9c0,0,-0.5,0.6,-0.6,0.7c0,0.1,0,-0.4,0.2,-0.6c0.1,-0.3,-0.5,0.6,-0.6,0.6c-0.1,0.1,-0.2,0.1,-0.2,-0.4c0.1,-0.5,0.3,-0.9,0.3,-0.9c0,0,-0.5,0.4,-0.5,0.9c-0.1,0.4,-0.3,0.5,-0.3,0.5c0,0,0.1,-1.1,0.2,-1.4c0.1,-0.3,0.3,-0.7,0.3,-0.8c0.1,-0.1,0.2,-0.6,0.2,-0.7c0,0,-0.5,0.3,-0.5,0.6c-0.1,0.2,-0.1,0.4,-0.3,0.6c-0.2,0.3,-0.6,0.8,-0.6,0.9c0,0,-0.2,-0.6,-0.1,-0.8c0,-0.3,0.3,-1,0.5,-1.2c0.2,-0.2,0,0.3,0,0.3c0,0,0.4,-0.5,0.5,-0.6c0.2,0,0.4,-0.6,0.4,-0.6c0,0,-0.1,0.8,-0.1,0.6c0.1,-0.1,0.6,-0.6,0.6,-0.6c0,0,-0.4,1,-0.3,1c0.2,-0.1,0.7,-0.7,0.9,-0.9c0.2,-0.1,0.4,-0.1,0.4,-0.1c0,0,-0.8,1.3,-0.8,1.2c0.1,0,1.2,-1.2,1.4,-1.2c0.1,-0.1,0.2,0.2,0.1,0.3c-0.1,0,-1.2,1.2,-1.2,1.1c0,0,1.3,-0.7,1.4,-1c0.2,-0.2,0.3,-0.4,0.3,-0.4c0,0,-0.1,-0.3,0,-0.3c0.1,-0.1,0.9,-0.5,1.7,-0.5c0.8,0.1,0.8,0.1,1,0.1c0.3,-0.1,0.5,-0.2,0.5,-0.2c0,0,-0.7,-0.1,-1,-0.1c-0.3,0,0.6,0,0.8,-0.1c0.3,-0.1,-1.3,0,-1.5,-0.1c-0.2,-0.1,-0.5,-0.2,-0.8,-0.1c-0.4,0.1,-0.7,0.3,-1.1,0.4c-0.4,0.1,-0.3,-0.1,-1,0c-0.6,0.1,-0.8,0.2,-1.1,0.3c-0.2,0.1,-0.8,0.5,-0.8,0.6c-0.1,0,0.1,-0.3,0.3,-0.4c0.2,-0.2,-0.5,0.3,-1.1,0.4c-0.6,0.1,-0.7,0.5,-0.7,0.5c0,0,0,-0.5,0.1,-0.5c0.1,-0.1,0.4,-0.2,0.9,-0.4c0.4,-0.3,0.6,-0.6,1.1,-0.6c0.5,0,1.3,-0.2,1.5,-0.2c0.1,0,-0.9,-0.1,-1.2,-0.1c-0.4,0,-1.5,0.6,-1.6,0.7c-0.2,0.2,-0.8,0.3,-0.8,0.4c-0.1,0,-0.5,0.2,-0.5,0.2c0,0,-0.1,-0.8,0.3,-1.1c0.4,-0.2,0.6,-0.9,0.7,-0.9c0.2,0,0.6,-0.1,0.6,-0.1c0,0,-0.3,-0.1,-0.9,0.1c-0.6,0.1,0.4,-0.5,0.6,-0.8c0.2,-0.3,-0.4,-0.2,-0.4,-0.2c0,0,-0.6,0.5,-0.8,0.9c-0.1,0.4,0.2,-0.9,0.5,-1.2c0.3,-0.3,0.5,-0.5,0.7,-0.8c0.3,-0.2,1,-0.3,1,-0.3c0,0,0.7,-0.2,0.9,-0.4c0.1,-0.2,-0.5,0,-0.3,-0.2c0.2,-0.2,0.6,-0.3,0.3,-0.3c-0.3,-0.1,-0.7,0.4,-1.1,0.6c-0.4,0.1,0.1,-0.4,0.1,-0.4c0,0,0.4,-0.6,1.3,-0.6c1,0,1.2,-0.3,1.4,-0.3c0.2,0,0,0.2,0.7,0.3c0.7,0.2,1.2,0.3,1.2,0.3c0,0,-0.6,-0.3,-0.5,-0.4c0.1,-0.1,1,0,1.4,0.1c0.5,0.1,1.4,0.3,1.7,0.3c0.3,0,-0.7,-0.4,-0.9,-0.5c-0.3,0,-1.6,-0.4,-1.9,-0.3c-0.4,0.2,-0.4,0.6,-0.9,0.3c-0.4,-0.2,-1,-0.5,-0.5,-0.5c0.4,-0.1,1,-0.1,1.3,0c0.3,0,1.5,0.1,1.7,0c0.2,0,-1,-0.2,-1.2,-0.3c-0.1,0,-0.8,-0.1,-1.5,-0.1c-0.7,0,-1.2,0.3,-1.5,0.4c-0.3,0.1,-1.3,0.5,-1.5,0.6c-0.1,0,0.6,-0.8,0.9,-0.9c0.3,-0.1,1,-0.9,2.2,-1c1.1,-0.1,1.9,-0.2,1.9,-0.2Z" class="g3_253" />
</g>
<path d="M291.3,312.7c0,-0.1,-0.3,0.4,-0.3,0.7c0,0.2,0.1,0.6,0.1,0.6c0,0,0,-0.3,0.2,-0.3c0.1,0,0.1,0.3,0.3,0.5c0.1,0.1,0.1,-0.2,0,-0.3c-0.1,-0.2,-0.4,-0.6,-0.3,-1.2Z" class="g3_253" />
<path d="M291.2,314.7c0,0,0.2,0.4,0.2,0.6c-0.1,0.3,0.1,0.7,0.5,1.2c0.4,0.4,0.3,0.5,0.6,0.8c0.2,0.3,0.5,0.5,0.5,0.5c0,0,-0.3,-0.4,-0.5,-0.6c-0.1,-0.3,-0.9,-1,-1,-1.6c-0.1,-0.7,-0.3,-0.9,-0.3,-0.9Z" class="g3_253" />
<g clip-path="url(#c4_253)">
<path d="M294.9,322.5c0,0,0.2,1.2,0.1,1.6c0,0.5,0.1,0.8,0,1.1c-0.2,0.3,-0.5,0.7,-0.8,0.8c-0.3,0.1,-0.3,0,-0.6,0.1c-0.4,0.1,-0.8,0.3,-1.2,0.4c-0.4,0.2,-1,0.4,-1.3,0.6c-0.3,0.1,-0.6,0.3,-1.1,0.4c-0.5,0.1,-0.9,0.3,-1.4,0.6c-0.5,0.2,-2.2,1.2,-2.7,1.4c-0.5,0.2,2.5,-1.2,2.7,-1.2c0.2,0,-3.2,2.3,-2.4,2c0.9,-0.4,2.8,-1.6,3.3,-2c0.6,-0.4,0.8,-0.5,1,-0.5c0.3,0,-0.2,0.9,-0.6,1.3c-0.4,0.4,-1.2,2,-1.1,1.9c0.1,-0.1,2.2,-3.1,2.6,-3.3c0.3,-0.3,0.7,-0.5,0.7,-0.4c0.1,0.2,-0.1,1.1,0,1.5c0.1,0.5,0.8,2.6,0.9,2.8c0.1,0.2,-0.2,-1.3,-0.1,-1.8c0,-0.4,0.2,-1,0.3,-0.7c0.2,0.2,1.4,3.3,1.9,4c0.4,0.6,1.4,1.8,1.4,1.8c0,0,-3.4,-5.4,-3.2,-7c0.2,-1.5,0.6,-1.5,1.1,-1.6c0.4,-0.1,0.6,-0.3,0.9,-1.1c0.1,-0.3,-0.4,-2.7,-0.4,-2.7Z" class="g3_253" />
<path d="M306,323.9c0.1,0.3,0.6,1.1,1.2,1.3c0.6,0.3,1.5,0.3,1.8,0.5c0.3,0.1,1.1,0.5,1.8,0.6c0.6,0.2,2.7,0.6,2.8,0.6c0.1,0,-2.5,-0.3,-2.8,-0.2c-0.3,0.1,-0.2,0.7,-0.2,1c0,0.3,-0.3,-0.3,-0.5,-0.8c-0.2,-0.4,-0.6,-0.5,-0.6,0c-0.1,0.5,-0.4,1.6,-0.8,2.3c-0.3,0.6,-1.6,1.7,-1.9,2.1c-0.3,0.5,-1,0.8,-1,0.8c0,0,1.5,-2.8,1.8,-3.4c0.2,-0.7,0.8,-2.6,0.5,-2.8c-0.2,-0.2,-1.2,-0.4,-1.7,-0.9c-0.3,-0.4,-0.4,-1.1,-0.4,-1.1Z" class="g3_253" />
</g>
<path d="M299.9,376.4c-0.1,-0.2,0.1,-0.2,0.1,-0.2c0.2,0,0.2,0,0.2,0.1c0,0.2,-0.2,0.3,-0.3,0.1m1.4,0.3c0,0,-0.4,-0.6,-0.8,-0.7c-0.4,-0.2,-0.6,-0.2,-0.9,-0.1c-0.3,0.1,-1.1,0.6,-1.1,0.6l0.2,0.1c0,0,0.5,-0.4,0.5,-0.4c0,0.1,0,0.7,0.6,0.7c0.7,0,0.6,-0.7,0.5,-0.8c0,-0.1,0.1,-0.2,1,0.6Z" class="g1_253" />
<path d="M305.8,375.8c0,0,-0.2,0.1,-0.3,-0.1c0,-0.2,0.2,-0.2,0.2,-0.2c0.2,0,0.2,0.2,0.1,0.3m1,-0.5c-0.2,-0.1,-0.6,-0.2,-0.9,-0.1c-0.4,0,-0.6,0.1,-0.8,0.3c-0.2,0.1,-0.3,0.3,-0.3,0.6c0,-0.1,0,-0.2,0.2,-0.3c0,0.3,0.2,0.5,0.5,0.5c0.3,0,0.6,-0.1,0.6,-0.4c0.1,-0.3,0,-0.5,-0.1,-0.6c-0.1,0,0.5,-0.1,1,0.3c0,0.1,0.1,0,0.1,0c0,0,-0.1,-0.2,-0.3,-0.3Z" class="g1_253" />
<path d="M304.8,376.1c-0.1,0.1,-0.1,0.2,-0.1,0.2c0,-0.1,0,-0.1,0.1,-0.2Z" class="g1_253" />
<path d="M301.9,375.1c0,0,-0.3,-0.4,-0.8,-0.5c-0.5,-0.2,-2,-0.3,-2.1,-0.3c-0.2,0,-0.7,0.2,-0.7,0.2c0,0,0.5,0.2,1,0.2c0.5,0,1.1,-0.1,1.5,0.2c0.3,0.2,0.5,0.2,0.5,0.2c0.1,0,0.6,0,0.6,0Z" class="g1_253" />
<path d="M304.5,374.7c0.1,-0.1,1.5,-1.3,2.3,-1.3c0.7,0.1,0.7,0.6,0.7,0.6c0,0,-0.3,-0.1,-0.5,-0.1c-0.2,0,-0.7,0.1,-0.9,0.2c-0.2,0.2,-0.8,0.5,-1,0.6c-0.2,0.1,-0.6,0,-0.6,0Z" class="g1_253" />
<path d="M302.1,379.5c0,0,-0.3,0.1,-0.5,0.2c-0.2,0.2,-0.3,0.6,-0.1,0.9c0.3,0.3,0.9,0.3,0.9,0.3c0,0,-0.9,-0.2,-0.8,-0.8c0.1,-0.6,0.5,-0.6,0.5,-0.6Z" class="g1_253" />
<path d="M302.6,380.5c0.1,-0.1,0.3,-0.2,0.5,-0.2c0.2,0.1,0.5,0.3,0.6,0.3c0,0,-0.2,0,-0.4,-0.1c-0.2,0,-0.7,0,-0.7,0Z" class="g1_253" />
<path d="M304.1,380.5c0.1,-0.1,0.3,-0.3,0.5,-0.4c0.1,0,0.2,0,0.2,0.1c0.1,0.1,0,0.1,-0.1,0.1c-0.1,0,-0.6,0.2,-0.6,0.2Z" class="g1_253" />
<path d="M300.7,382.4c0,-0.1,0.8,0,1.1,-0.1c0.4,-0.1,1.2,-0.2,1.4,-0.3c0.2,0,0.6,0.2,0.6,0.2c0,0,0.2,-0.2,0.3,-0.3c0.2,0,0.6,0.1,0.8,0.1c0.2,0.1,0.6,0,0.6,0c0,0,-0.4,0.3,-0.8,0.4c-0.3,0.1,-0.7,0.2,-0.8,0.3c-0.2,0,-0.9,0,-1.2,0c-0.3,-0.1,-1.8,-0.2,-2,-0.3Z" class="g1_253" />
<path d="M305.4,382.2c0,0,-0.4,0.6,-0.5,0.7c-0.1,0.2,-0.5,0.5,-0.7,0.6c-0.2,0.1,-0.6,0.1,-0.6,0.1c0,0,0.6,-0.2,0.8,-0.4c0.1,-0.2,0,-0.4,-0.1,-0.3c-0.2,0,-0.7,0.1,-1.1,0.1c-0.4,0,-0.8,-0.3,-0.7,-0.1c0,0.1,0.5,0.3,0.7,0.4c0.1,0.1,0.2,0.3,0.1,0.3c0,0,-0.8,0,-1.4,-0.4c-0.7,-0.3,-0.8,-0.6,-0.8,-0.6c0,0,0.3,0,0.6,0.1c0.3,0,1.5,0.2,2.2,0c0.7,-0.1,1.5,-0.5,1.5,-0.5Z" class="g1_253" />
<path d="M303.4,386.2l-0.9,0c-0.5,0,-1.3,-0.1,-1.8,-0.3c-0.6,-0.3,-1.9,-1.2,-2,-1.4l-0.6,-0.7c0,0,0.3,0.9,0.3,1.1c-0.1,0.2,0.2,0.5,0.3,0.8c0.2,0.2,0.6,0.3,1,0.4c0.5,0,1,0,1.3,0.1c0.3,0,0.8,0.2,1.3,0.2c0.6,0,1.1,-0.2,1.1,-0.2Z" class="g1_253" />
<g clip-path="url(#c5_253)">
<path d="M307.7,388.4c-0.3,0.7,1.1,-2.7,1,-5.3c-0.2,-2.6,-0.1,-5.7,-0.6,-7.3c-0.5,-1.5,-0.1,-2.2,-0.5,-4c-0.4,-1.9,-1.4,-3.9,-2.1,-4.4c-0.7,-0.6,-2,-1.3,-2,-1.3c0,0,1.5,0.2,2.2,1.2c0.8,1,1.6,2.6,1.8,3.1c0.3,0.5,0.6,3.2,0.7,4c0.1,0.9,0.5,3.4,0.7,4c0.1,0.7,0.3,4.8,0.2,5.5c-0.1,0.6,-1,3.8,-1.4,4.5M296.2,366.9c-0.7,0.7,-1.1,1.4,-1.6,2.1c-0.4,0.8,-1,2.2,-1.2,3.1c-0.1,0.8,-0.7,2.6,-0.6,3.6c0,1,0,3.5,0.1,5.1c0,1.6,0.3,7.6,-1.7,8.4c-0.2,0.1,-0.4,0.2,-0.6,0.3c-0.5,0.3,-1,0.5,-1.4,0.6c-0.4,0.2,-0.5,0.2,-0.6,0.2c0,0,0.2,-0.1,0.6,-0.2c0.3,-0.1,0.7,-0.3,1.4,-0.6c0.5,-0.4,1,-0.8,1.1,-1.4c0.2,-1.6,0.3,-1.4,0.3,-2.8c-0.1,-1.3,0.1,-3.4,0.1,-4c0,-0.5,0.2,-1.5,0.3,-2.4c0,-0.8,-0.1,-1.7,-0.1,-1.7c0,0,-0.7,5.8,-0.7,6.3c0,0.5,0.1,2.7,0,2.7c-0.1,0.1,-0.2,-5.8,0,-6.7c0.2,-0.8,0.7,-2.6,0.7,-3.5c0,-0.9,0.6,-3.5,0.8,-4.1c0.2,-0.6,0.8,-2.4,1,-2.5c0.1,-0.2,1.7,-2.9,3.9,-3.7c-0.2,0,-1.1,0.4,-1.8,1.2m16.7,22.5c0.1,0.3,-0.2,1.2,-0.9,1.5c-0.6,0.2,-0.5,0.2,-1.3,-0.1c-0.7,-0.3,-1.3,-0.9,-1.6,-1.5c-0.3,-0.6,-0.3,-0.8,-0.1,-1.6c0.1,-0.7,0.4,-2.2,0.4,-2.7c0,-0.6,-0.1,-2.4,-0.1,-3c0,-0.5,-0.1,-2.4,-0.2,-3.3c-0.2,-1,0.2,-1.8,-0.4,-5.2c-0.8,-3.8,-1.6,-5.4,-3.3,-7c-1.7,-1.6,-2.7,-1.8,-3.5,-2c-0.7,-0.2,-2.1,0.1,-2.5,0.1c-0.3,0,-1.6,-0.3,-2.8,0.1c-1.3,0.4,-2.9,1.8,-3.8,3.2c-0.8,1.3,-1.6,4.5,-1.9,6c-0.2,1.5,-0.9,5.2,-0.9,6.1c0,0.8,-0.6,3.8,-0.8,4.6c-0.2,0.7,-0.7,2.8,-1,3.5c-0.3,0.6,-1.3,2.3,-1.5,2.8c-0.3,0.5,-0.3,1.5,-0.3,1.5c0,0,0.4,-0.3,0.4,-0.6c0,-0.2,0.3,-0.8,0.4,-1.3c0,-0.5,0.8,-1.4,0.9,-1.8c0.2,-0.4,0.8,-1.6,0.8,-1.6c0,0,-0.2,1.5,-0.7,2.3c-0.5,0.8,-0.3,1.2,-0.8,1.7c-0.5,0.5,-0.3,0.9,-0.6,1.2c-0.4,0.3,-0.6,0.6,-0.8,0.8c-0.1,0.3,0.5,1.9,0.6,2.2c0.2,0.3,0.2,0.7,0.4,0.7c0.1,0,0.7,0,0.7,0c0,0,0.3,-1.1,0.3,-1.4c0,-0.4,0,-0.8,0.3,-1c0.3,-0.3,0.6,-0.9,0.9,-1.2c0.2,-0.4,0.6,-0.3,1.1,-0.5c0.4,-0.2,1.4,-0.4,1.9,-0.5c0.5,-0.2,0.7,-0.5,1,-0.5c0.2,-0.1,1,-0.1,1.1,0.2c0.1,0.2,0.1,0.5,0.5,0.6c0.3,0.2,0.3,0.3,0.7,0.5c0.4,0.2,0.5,0.2,0.8,0.1c0.3,0,1,-0.1,1,0.1c0.1,0.2,-0.1,0.6,0.3,0.5c0.4,-0.2,0.4,-0.2,0.6,-0.2c0.1,0,0.4,0.5,0.2,0.8c-0.3,0.3,0,0.7,-0.1,1.4c-0.1,0.6,-0.3,0.9,0.1,0.9c0.3,-0.1,0.8,-0.3,1.2,-0.3c0.4,-0.1,1.1,-0.1,1.5,-0.1c0.4,0,1.1,0.5,1.5,0.5c0.4,0,1.9,0.1,1.9,0.1c0.1,0,0.4,-0.3,0.4,-0.5c0.1,-0.2,0.6,-0.9,0.3,-0.5c-0.4,0.3,-1.1,0.5,-2,0.3c-1,-0.2,-3.7,-2.3,-3.8,-2.4c-0.2,-0.1,-1.2,-1.2,-1.2,-1.2c0,0,0.2,-0.2,0.3,-0.5c0,-0.3,-0.2,-1.4,-0.2,-1.9c-0.1,-0.5,-0.2,-1.8,-0.4,-2.3c-0.2,-0.5,-0.2,-1.3,-0.2,-1.3c0,0,0.2,0.5,0.5,1c0.2,0.6,0.5,1.6,0.6,2c0,0.3,0.1,1.7,1.1,3.4c1,1.7,1.9,1.7,1.9,1.7c-0.4,-0.1,-1.1,-0.9,-1.5,-1.4c-0.5,-0.6,-0.7,-1.5,-0.8,-1.9c-0.1,-0.4,-0.4,-1.7,-0.5,-2.1c-0.1,-0.3,-0.5,-2.2,-0.6,-2.5c-0.1,-0.4,0,-1,-0.4,-2.6c-0.4,-1.6,-0.1,-2.9,-0.1,-3.2c0,-0.3,0.3,-1.5,0.4,-1.9c0.1,-0.4,0.2,-1.2,0.8,-4.4c0.6,-3.2,1,-3.5,1.2,-4c0.2,-0.6,0.7,-1,0.9,-1.2c0.3,-0.1,0.8,-0.2,0.8,-0.2c0,0,-0.1,-0.1,-0.2,-0.2c-0.2,-0.1,-0.3,-0.1,-0.4,-0.3c-0.1,-0.1,0,-0.2,-0.3,-0.4c-0.3,-0.2,-0.2,-0.3,-0.2,-0.3c0,0,0.1,-0.2,-0.1,-0.3c-0.1,-0.1,0,-0.3,0,-0.5c0,-0.2,0,-0.4,-0.1,-0.5c-0.1,-0.1,-0.1,-0.3,0.1,-0.2c0.1,0,0.7,0.5,0.7,0.6c0,0.1,0.2,0.7,0.2,0.7c0,0,0.4,0.1,0.4,0.1c0,0.1,-0.3,0.2,-0.3,0.2c0,0,0.2,0.1,0.4,0.1c0.2,0,0.5,0.2,0.2,0.2c-0.3,-0.1,-1,0,-0.8,0c0.1,0.1,0.6,0.8,1,0.8c0.5,0,1.5,0.3,2,0.6c0.5,0.2,1.2,1.2,1.6,1.9c0.4,0.7,0.9,2.5,1,3.1c0.2,0.6,0.1,1.5,0.1,1.8c0,0.4,0.5,1.7,0.6,1.9c0,0.2,-0.1,1.1,-0.1,1.5c-0.1,0.4,-0.1,1.8,-0.4,2.5c-0.2,0.7,-1.2,2.2,-1.5,2.5c-0.2,0.4,-0.8,1.3,-1,1.5c-0.3,0.2,-0.8,0.5,-0.8,0.5c0,0,-0.2,2.1,0,2.7c0.1,0.6,1,1.1,1.4,1.4c0.3,0.2,0.9,0.3,0.9,0.3c0,0,0.2,0.6,0.4,0.8c0.3,0.3,0.8,0.2,1.2,0.2c0.4,0,0.7,0.2,1,0.3c0.3,0.2,0.6,0,0.9,0.2c0.3,0.3,0.5,0.1,0.5,0.1l-0.1,-0.4c0,0,0.6,0,0.8,0c0.3,0,0.6,-0.1,0.6,-0.1l-0.3,-0.2c0.1,0,0.3,0,0.8,-0.3c0.7,-0.6,0.8,-1.4,0.7,-1.8Z" class="g1_253" />
</g>
<g clip-path="url(#c6_253)">
<path d="M-3,601.1l189.5,0" class="g4_253" />
</g>
<text 
x="59" 
y="585" 
dx="0,0.2,0.2,0.2,0.2,0.2,0.2,-0.1,0.2,0.2,0.2,0,-0.1,0.2" 
class="s2_253"
>Language Notes</text>

<path d="M59.6,646.9l8.8,0" class="g5_253" />
<path d="M59.6,957.1l8.8,0" class="g5_253" />
<path d="M59.6,1045.7l8.8,0" class="g5_253" />
<text 
x="59" 
y="641" 
dx="0,0" 
class="s3_253"
>a </text>

<text 
x="80" 
y="646" 
dx="0,0,0,0,0,0,0,0,0,0,0,0" 
class="s4_253"
>有朋自远方来，不亦乐乎/</text>

<text 
x="82" 
y="672" 
dx="0,0,0,0,0,0,0,0,0,0,0" 
class="s5_253"
>有朋自遠方來，不亦樂乎</text>

<text 
x="82" 
y="696" 
dx="0,0.1,0.1,0.1,0.1,0.1,0.1,0.1,0.1,0.1,0.1,0.1,0.1,0.1,0.1,0.1,0.1,0,0.1,0.1" 
class="s6_253"
>This saying is from </text>

<text 
x="193" 
y="696" 
dx="0,0.1,0.1,0.1,0.1,0.1,0.1,0.1,0.1,0.1,0.1,0.1" 
class="s7_253"
>The Analects</text>

<text 
x="272" 
y="696" 
dx="0,0,0.1,0.1,0.1,0.1,0.1,0.1,0.1,0.1,0.1,0.1,0.1,0.1,0.1,0.1,0.1,0.1,0.1,0.1,0.1,0,0.1,0,0.1,0" 
class="s6_253"
>of Confucius. It is often </text>

<text 
x="82" 
y="721" 
dx="0,0.1,0.1,0,0,0.1,0.1,0.1,0,0.1,0.1,0.1,0.1,0.1,0.1,0.1,0.1,0.1,0.1,0.1,0.1,0.1,0.1,0.1,0.1,0.1,0.1,0.1,0.1,0.1,0,0.1,0.1,0.1,0.1,0.1,0.1,0.1,0.1,0,0.1,0.1,0.1,0.1,-0.2,0.1,0.1,0.1,0.1,0.1,0.1,0.1,0.1,0.1,0.1,0.1,0,0.1,0" 
class="s6_253"
>quoted to mean, “Isn’t it a great joy to have friends from </text>

<text 
x="82" 
y="745" 
dx="0,0.1,0.1,0.1,0.1,0.1,0.1,0.1,0.1,0.1,0.1,0.1,0.1,0.1,0.1,0.1,0,0.1,0.1,0.1,0.1,0.1,0,0.1,0.1,0.1,0.1,0.1,0.1,-0.9,0.1,0.1,0.1,0.1,0.1,0.1,0.1,0.1,0.1,0.1,0.1,0.1,0,0.1,0.1" 
class="s6_253"
>far away?” According to the Tang commentator </text>

<text 
x="359" 
y="745" 
dx="0,0.2" 
class="s8_253"
>孔颖</text>

<text 
x="82" 
y="769" 
dx="0" 
class="s8_253"
>达</text>

<text 
x="102" 
y="769" 
dx="0" 
class="s6_253"
>/</text>

<text 
x="106" 
y="769" 
dx="0,0.2,0.2" 
class="s9_253"
>孔潁達</text>

<text 
x="169" 
y="769" 
dx="0" 
class="s6_253"
>(</text>

<text 
x="173" 
y="769" 
dx="0,0,0,0,0,0,0,0,0,0,0" 
class="s10_253"
>Kǒng Yǐngdá</text>

<text 
x="240" 
y="769" 
dx="0,0.1,0.1,0.1,0.1,0.1,0.1,0.1,0.1,0.1,0.1,0.1" 
class="s6_253"
>, 574–648), </text>

<text 
x="310" 
y="769" 
dx="0" 
class="s8_253"
>朋</text>

<text 
x="332" 
y="769" 
dx="0,0.1,0.1,0,0.1,0.1,0.1,0.1,0.1,0.1,0" 
class="s6_253"
>here means </text>

<text 
x="82" 
y="794" 
dx="0,0.1,0.1,0.1,0.1,0.1,0.1,0.1,0.1,0,0.1,0.1,0.1,0.1,0.1,0.1,0.1,0.1,0.1,0.1,0.1,0.1,0.1,0.1,0.1,0.1,0.1,0.1,0.1,0.1,0.1,0.1,0.1,0.1" 
class="s6_253"
>“classmate” or “study companion” (</text>

<text 
x="285" 
y="794" 
dx="0,0.2" 
class="s8_253"
>同门</text>

<text 
x="325" 
y="794" 
dx="0" 
class="s6_253"
>/</text>

<text 
x="330" 
y="794" 
dx="0,0.2" 
class="s9_253"
>同門</text>

<text 
x="370" 
y="794" 
dx="0,0.1,0.1,0.1,0.1,0.1,0" 
class="s6_253"
>). The </text>

<text 
x="82" 
y="818" 
dx="0,0.1,0.1,0.1,0.1,0.1,0.1,0.1,0.1,0.1,0.1,0.1,0.1,0.1,0.1,0.1,0.1" 
class="s6_253"
>Song philosopher </text>

<text 
x="186" 
y="818" 
dx="0,0.2" 
class="s8_253"
>朱熹</text>

<text 
x="229" 
y="818" 
dx="0" 
class="s6_253"
>(</text>

<text 
x="233" 
y="818" 
dx="0,0,0,0,0,0" 
class="s10_253"
>Zhū Xī</text>

<text 
x="268" 
y="818" 
dx="0,0.1,0.1,0.1,0.1,0.1,0.1,0.1,0.1,0.1,0.1,0.1,0.1,0.1,0.1,0.1,0.1,0.1,0.1,0.1,0" 
class="s6_253"
>, 1130–1200) glosses </text>

<text 
x="82" 
y="843" 
dx="0" 
class="s8_253"
>朋</text>

<text 
x="105" 
y="843" 
dx="0,0.1,0.1,0.1,0.1,0.1,0.1,0.1,0.1,0,0.1,0.1,0.1,0.1,0.1,0.1,0.1,0.1,0.5,0.1,0.1,0.1,0.1,0.1,0.1,0.1,0.1,-0.2,0.1,0.1,0.1,0.1,0.1,0.1,0.1,0.1,0.1,0.1,0.1,0.1,0.1,0.1,0.1,0.1,0.1,0.1,0.1,0.1,0.1,0.1,0.1,0.1,0.1,0.1,0" 
class="s6_253"
>as “kindred spirit” or “like-minded person” (lit. same </text>

<text 
x="82" 
y="867" 
dx="0,0.1,0.1,0.1,0.1,0.1,0.1,0,0.1,0.1,0.1,0.1,0.1,0.1,0.1,0.1,0.1,0.1,0.1" 
class="s6_253"
>type [of person]), </text>

<text 
x="183" 
y="867" 
dx="0,0.2" 
class="s8_253"
>同类</text>

<text 
x="223" 
y="867" 
dx="0" 
class="s6_253"
>/</text>

<text 
x="227" 
y="867" 
dx="0,0.2" 
class="s9_253"
>同類</text>

<text 
x="267" 
y="867" 
dx="0,0.1,0.1" 
class="s6_253"
>. [</text>

<text 
x="276" 
y="867" 
dx="0" 
class="s8_253"
>自</text>

<text 
x="299" 
y="867" 
dx="0,0.1" 
class="s6_253"
>= </text>

<text 
x="309" 
y="867" 
dx="0" 
class="s8_253"
>从</text>

<text 
x="329" 
y="867" 
dx="0" 
class="s6_253"
>/</text>

<text 
x="333" 
y="867" 
dx="0" 
class="s9_253"
>從</text>

<text 
x="353" 
y="867" 
dx="0,0.1" 
class="s6_253"
>; </text>

<text 
x="359" 
y="867" 
dx="0" 
class="s8_253"
>不</text>

<text 
x="82" 
y="892" 
dx="0,0.2,0.2" 
class="s8_253"
>亦…乎</text>

<text 
x="145" 
y="892" 
dx="0,0.1" 
class="s6_253"
>= </text>

<text 
x="155" 
y="892" 
dx="0,0.2,0.2,0.2" 
class="s8_253"
>不是…吗</text>

<text 
x="235" 
y="892" 
dx="0" 
class="s6_253"
>/</text>

<text 
x="239" 
y="892" 
dx="0,0.2,0.2,0.2" 
class="s9_253"
>不是…嗎</text>

<text 
x="319" 
y="892" 
dx="0,0.1" 
class="s6_253"
>; </text>

<text 
x="325" 
y="892" 
dx="0" 
class="s8_253"
>乐</text>

<text 
x="345" 
y="892" 
dx="0" 
class="s6_253"
>/</text>

<text 
x="349" 
y="892" 
dx="0" 
class="s9_253"
>樂</text>

<text 
x="372" 
y="892" 
dx="0,0.1" 
class="s6_253"
>= </text>

<text 
x="382" 
y="892" 
dx="0" 
class="s8_253"
>快</text>

<text 
x="82" 
y="916" 
dx="0" 
class="s8_253"
>乐</text>

<text 
x="102" 
y="916" 
dx="0" 
class="s6_253"
>/</text>

<text 
x="106" 
y="916" 
dx="0,0.2" 
class="s9_253"
>快樂</text>

<text 
x="146" 
y="916" 
dx="0,0.1" 
class="s6_253"
>].</text>

<text 
x="59" 
y="951" 
dx="0,0" 
class="s3_253"
>b </text>

<text 
x="80" 
y="956" 
dx="0,0,0" 
class="s4_253"
>汉族/</text>

<text 
x="145" 
y="956" 
dx="0,0" 
class="s5_253"
>漢族</text>

<text 
x="82" 
y="980" 
dx="0,0.2" 
class="s8_253"
>汉族</text>

<text 
x="122" 
y="980" 
dx="0" 
class="s6_253"
>/</text>

<text 
x="126" 
y="980" 
dx="0,0.2" 
class="s9_253"
>漢族</text>

<text 
x="169" 
y="980" 
dx="0,0.1,0.1,0.1,0.1,0.1,0.1,0.1,0.1,0.1,-0.1,0.1,0.1" 
class="s6_253"
>is short for </text>

<text 
x="234" 
y="980" 
dx="0,0.2,0.2" 
class="s8_253"
>汉民族</text>

<text 
x="295" 
y="980" 
dx="0" 
class="s6_253"
>/</text>

<text 
x="299" 
y="980" 
dx="0,0.2,0.2" 
class="s9_253"
>漢民族</text>

<text 
x="359" 
y="980" 
dx="0,0.1,0.1,0.1,0.1,0.1,0.1,0.1,0.1,0" 
class="s6_253"
>, the Han </text>

<text 
x="82" 
y="1005" 
dx="0,0.1,0.1,0.1,0.1,0.1,0.1,0.1,0.1,0,0.1,0.1,0.1" 
class="s6_253"
>ethnic group.</text>

<text 
x="59" 
y="1040" 
dx="0,0" 
class="s3_253"
>c </text>

<text 
x="80" 
y="1044" 
dx="0,0,0,0,0" 
class="s4_253"
>丝绸之路/</text>

<text 
x="197" 
y="1044" 
dx="0,0,0,0" 
class="s5_253"
>絲綢之路</text>

<text 
x="82" 
y="1069" 
dx="0,0.2,0.2,0.2" 
class="s8_253"
>丝绸之路</text>

<text 
x="162" 
y="1069" 
dx="0" 
class="s6_253"
>/</text>

<text 
x="167" 
y="1069" 
dx="0,0.2,0.2,0.2" 
class="s9_253"
>絲綢之路</text>

<text 
x="250" 
y="1069" 
dx="0,0.1,0.1,0.1,0.1,0.1,0.1,0.1,0.1,0.1,0.1,0.1,0.1,0.1,0.1,0.1,0.1,0.1,0.1,0.1,0.1,0.1,0.1,0.1,0.1,0.1,0" 
class="s6_253"
>is the Chinese translation </text>

<text 
x="82" 
y="1093" 
dx="0,0,0.1,0.1,0.1,0.1,0.1,0.1,0.1,0.1,0.1,0.1,0.1,0.1,0.1,0.1,0.1,0.1,0.1,0,0.1,0.1,0.1,0.1,0.1,0.1,0.1,0.1,0.1,0.1,0.1,0.1,0.1,0.1,0.1,0.1,0.1,0.1,0.1,0.1,0.1,0.1,0.1,0.1,0.1,0.1,0.1,0.1,-0.2,0.1,0.1,0.1,0.1,0.1,0.1,0.1,0" 
class="s6_253"
>of “Silk Road,” a term coined by the German traveler and </text>

<text 
x="82" 
y="1118" 
dx="0,0,0.1,0.1,0.1,0.1,0.1,0.1,0.1,0.1,0.1,0.1,-0.8,0.1,0,0.1,0.1,0.1,0.1,0.1,0.1,0.1,-0.2,0.1,0.1,0.1,0.1,0.1,0.1,0.1,0.1,0.1,0.1,0.1,-0.1,0.1,0.1,0.1,0.1,0.1,0.1,0.1,0.1,0.1,0.1,0.1,0.1,0.1,0.1" 
class="s6_253"
>geographer Ferdinand von Richtholfen (1833–1905).</text>

<path d="M464.1,646.9l8.7,0" class="g5_253" />
<path d="M464.1,882.2l8.7,0" class="g5_253" />
<path d="M464.1,970.8l8.7,0" class="g5_253" />
<text 
x="464" 
y="641" 
dx="0,0" 
class="s3_253"
>d </text>

<text 
x="485" 
y="646" 
dx="0,0,0" 
class="s4_253"
>进行/</text>

<text 
x="550" 
y="646" 
dx="0,0" 
class="s5_253"
>進行</text>

<text 
x="486" 
y="670" 
dx="0,0.2" 
class="s8_253"
>进行</text>

<text 
x="527" 
y="670" 
dx="0" 
class="s6_253"
>/</text>

<text 
x="531" 
y="670" 
dx="0,0.2" 
class="s9_253"
>進行</text>

<text 
x="574" 
y="670" 
dx="0,0.1,0.1,0.1,0.1,0.1,0.1,0.1,0.1,-0.1,0.1,0.1,0.1,0.1,0.1,0.1,0.1,0.1,0.1,0.1,0.1,0.1,0.1,0.1,0.1,0.1,0.1,0.1,0.1,0.1,0.1,0.1,0.1,0.1,0.1,0.1,-0.2,0.1,0.1,0" 
class="s6_253"
>must be followed by a two-syllable verb </text>

<text 
x="486" 
y="695" 
dx="0,0.1,0.1,0.1,0,0.1,0.1,0.1,0.1,0.1,0.1,0.1,0.1,-0.1,0,0,0.1,0.1,0.1,0.1,0,-0.2,0.1,0.1,0.1,0.1,0.1,0.1,0.1,0.1,0.1,0,0.1,0.1,0.1,0.1,0.1,0.1,0.1,0.1,0.1,0.1,0.1,0.1,0.1,0.1,0.1,0.1,0.1,0,-0.2,0.1,0.1,0.1,0.1,0" 
class="s11_253"
>denoting an extended activity of some importance, e.g., </text>

<text 
x="486" 
y="719" 
dx="0,0.2" 
class="s8_253"
>研究</text>

<text 
x="527" 
y="719" 
dx="0,0.1" 
class="s6_253"
>, </text>

<text 
x="532" 
y="719" 
dx="0,0.2" 
class="s8_253"
>讨论</text>

<text 
x="572" 
y="719" 
dx="0" 
class="s6_253"
>/</text>

<text 
x="576" 
y="719" 
dx="0,0.2" 
class="s9_253"
>討論</text>

<text 
x="617" 
y="719" 
dx="0,0.1" 
class="s6_253"
>, </text>

<text 
x="622" 
y="719" 
dx="0,0.2" 
class="s8_253"
>教育</text>

<text 
x="662" 
y="719" 
dx="0,0.1" 
class="s6_253"
>, </text>

<text 
x="668" 
y="719" 
dx="0,0.2" 
class="s8_253"
>贸易</text>

<text 
x="708" 
y="719" 
dx="0" 
class="s6_253"
>/</text>

<text 
x="712" 
y="719" 
dx="0,0.2" 
class="s9_253"
>貿易</text>

<text 
x="752" 
y="719" 
dx="0,0.1,0.1,0.1,0,0.1,0" 
class="s6_253"
>, etc. </text>

<text 
x="486" 
y="743" 
dx="0,0.1,0.1,0.1,0.1,0.1,0.1,0.1,0.1,0.1,0.1,0.1,0.1,0.1,0.1,0.1,0.1,0.1,0.1,0.1,0.1,0.1,0.1,-0.2,0.1,0.1,0.1,0.1,0.1,0.1,0.1,0.1,0,0.1,0.1,0.1,0.1,0.1,0.1,0.1,0.1,0.1,-0.4,0.1,0.1,0.1,0,0.1,0.1,0.1,0.1,0.1,0" 
class="s6_253"
>It can't be used with verbs denoting brief, ordinary </text>

<text 
x="486" 
y="768" 
dx="0,0.1,0.1,0.1,0.1,0.1,0.1,0.1,0.1,0.1,0.1,0.1,0.1,-0.8,0.1,0.1,0.1,0.1,0.1,0.1,0.1,0.1,0.1,0.1,0.1,0.1,0.1,0.1,0.1,0.1,0.1,0.1,0.1,0.1,0.1,0.1,0.1,0.1,0.1,0.1,0.1,0.1" 
class="s6_253"
>activities. For instance, we wouldn't say </text>

<g clip-path="url(#c7_253)">
<path d="M725.6,768.4c4.7,0,8.5,-3.8,8.5,-8.5c0,-4.7,-3.8,-8.6,-8.5,-8.6c-4.7,0,-8.6,3.9,-8.6,8.6c0,4.7,3.9,8.5,8.6,8.5Z" class="g6_253" />
</g>
<path d="M721.8,756.1l7.5,7.5" class="g7_253" />
<path d="M729.3,756.1l-7.5,7.5" class="g7_253" />
<text 
x="736" 
y="768" 
dx="0,0.2" 
class="s8_253"
>进行</text>

<text 
x="486" 
y="792" 
dx="0,0.2" 
class="s8_253"
>洗澡</text>

<text 
x="527" 
y="792" 
dx="0" 
class="s6_253"
>/</text>

<text 
x="531" 
y="792" 
dx="0,0.2,0.2,0.2" 
class="s9_253"
>進行洗澡</text>

<text 
x="611" 
y="792" 
dx="0,0.1" 
class="s6_253"
>. </text>

<text 
x="617" 
y="792" 
dx="0,0.2" 
class="s8_253"
>进行</text>

<text 
x="657" 
y="792" 
dx="0" 
class="s6_253"
>/</text>

<text 
x="661" 
y="792" 
dx="0,0.2" 
class="s9_253"
>進行</text>

<text 
x="704" 
y="792" 
dx="0,0.1,0.1,0.1,0.1,0.1,0.1,0.1,0.1,0.1,0.1,0.1,0,0.1,0" 
class="s6_253"
>can be omitted </text>

<text 
x="486" 
y="817" 
dx="0,0.1,0.1,0.1,0.1,0.1,0.1,0.1,0.1,0.1,0.1,-0.1,0.1,0.1,0.1,0.1,0.1,0.1,0.1,0.1,0.1,0.1,0.1,0.1,0.1,0.1,0.1,0.1,0.1,0.1,0.1" 
class="s6_253"
>without affecting the meaning. </text>

<text 
x="667" 
y="817" 
dx="0,0.2,0.2,0.2" 
class="s8_253"
>进行贸易</text>

<text 
x="747" 
y="817" 
dx="0" 
class="s6_253"
>/</text>

<text 
x="751" 
y="817" 
dx="0,0.2,0.2" 
class="s9_253"
>進行貿</text>

<text 
x="486" 
y="841" 
dx="0" 
class="s9_253"
>易</text>

<text 
x="509" 
y="841" 
dx="0,0.1,0.1,0.1,0.1,0.1,0,0.1,0.1,-0.1,0.1,0.1,0.1,0.1,0.1,0.1,0.1,0.1,0.1,0.1" 
class="s6_253"
>is more formal than </text>

<text 
x="624" 
y="841" 
dx="0,0.2" 
class="s8_253"
>贸易</text>

<text 
x="664" 
y="841" 
dx="0" 
class="s6_253"
>/</text>

<text 
x="669" 
y="841" 
dx="0,0.2" 
class="s9_253"
>貿易</text>

<text 
x="709" 
y="841" 
dx="0" 
class="s6_253"
>.</text>

<text 
x="464" 
y="876" 
dx="0,0" 
class="s3_253"
>e </text>

<text 
x="485" 
y="881" 
dx="0,0,0" 
class="s4_253"
>那时/</text>

<text 
x="550" 
y="881" 
dx="0,0" 
class="s5_253"
>那時</text>

<text 
x="486" 
y="905" 
dx="0,0.2" 
class="s8_253"
>那时</text>

<text 
x="527" 
y="905" 
dx="0" 
class="s6_253"
>/</text>

<text 
x="531" 
y="905" 
dx="0,0.2" 
class="s9_253"
>那時</text>

<text 
x="574" 
y="905" 
dx="0,0.1,0.1,0.1,0.1,0.1,0.1,0.1,0.1,0.1,-0.1,0.1,0.1" 
class="s6_253"
>is short for </text>

<text 
x="639" 
y="905" 
dx="0,0.2,0.2,0.2" 
class="s8_253"
>那个时候</text>

<text 
x="719" 
y="905" 
dx="0" 
class="s6_253"
>/</text>

<text 
x="723" 
y="905" 
dx="0,0.2,0.2,0.2" 
class="s9_253"
>那個時候</text>

<text 
x="486" 
y="930" 
dx="0,0.1,0.1,0.1,0.1,0.1,0.1,0.1,0.1,0.1,0.1,0.1,0.1,0.1,0.1" 
class="s6_253"
>(at that time).</text>

<text 
x="464" 
y="965" 
dx="0,0" 
class="s3_253"
>f </text>

<text 
x="485" 
y="970" 
dx="0,0" 
class="s4_253"
>革命</text>

<text 
x="486" 
y="994" 
dx="0,0.1,0.1,0.1,-0.2,0.1,0.1,0.1,0.1,0.1,0.1,0.1,0.1,0.1,0.1,0.1,0,0.1,0.1,0,0.1,-0.1,0.1,0.1,0.1,0.1,0,0.1" 
class="s6_253"
>“Revolution” here refers to </text>

<text 
x="643" 
y="994" 
dx="0,0.2,0.2,0.2" 
class="s8_253"
>辛亥革命</text>

<text 
x="726" 
y="994" 
dx="0" 
class="s6_253"
>(</text>

<text 
x="730" 
y="994" 
dx="0,0,0,0,0,0,0" 
class="s10_253"
>Xīnhài </text>

<text 
x="486" 
y="1018" 
dx="0,0,0,0,0,0" 
class="s10_253"
>Gémìng</text>

<text 
x="526" 
y="1018" 
dx="0,0.1,0.1,0.1,0.1,0.1,0.1,0.1,0.1,0.1,0.1,0.1,0.1,0.1,0.1,0.1,0.1,-0.2,0.1,0.1,0.1,0.1,0.1,0.1,0.1,0.1,0.1,0.1,0.1,0.1,0.1,0.1,0.1,0.1,0.1,0.1,0.1,0.1,0.1,0.1,0.1,0.1,0.1,0" 
class="s6_253"
>), the Xinhai Revolution, also known as the </text>

<text 
x="486" 
y="1043" 
dx="0,0.1,0.1,-0.2,0.1,0.1,0.1,0.1,0.1,0.1,0.1,0.1,0,0.1,0.1,0.1,0.1,0.1,0.1" 
class="s6_253"
>Revolution of 1911.</text>

<text 
x="59" 
y="67" 
dx="0,0,0,0,0,0,0,-0.9,0,0,0,0,0,0,0" 
class="s12_253"
>After You Study</text>

<text 
x="59" 
y="89" 
dx="0,0.1,0.1,0.1,0.1,0.1,0.1,0.1,0.1,0.1,0.1,0.1,-0.1,0.1,0.1,0.1,0.1,0.1,0.1,0.1,0" 
class="s13_253"
>Answer the following </text>

<text 
x="59" 
y="103" 
dx="0,0.1,0.1,0.1,0.1,0.1,0.1,0.1,0.1,0.1,0.1,0.1,0.1,0.1,0.1,0.1,0.1,0.1,0.1,0.1,0.1" 
class="s13_253"
>questions in Chinese.</text>

<text 
x="59" 
y="133" 
dx="0,0" 
class="s14_253"
>1 </text>

<text 
x="82" 
y="135" 
dx="0,0,0,0,0,0,0,0,0" 
class="s15_253"
>为什么中国人认为秦</text>

<text 
x="82" 
y="159" 
dx="0,0,0,0,0,0,0,0,0" 
class="s15_253"
>始皇是中国历史上最</text>

<text 
x="82" 
y="184" 
dx="0,0,0,0,0,0,0,0" 
class="s15_253"
>重要的皇帝之一？</text>

<text 
x="59" 
y="213" 
dx="0,0" 
class="s14_253"
>2 </text>

<text 
x="82" 
y="214" 
dx="0,0,0,0,0,0,0,0,0" 
class="s15_253"
>请说说为什么中国人</text>

<text 
x="82" 
y="239" 
dx="0,0,0,0,0,0,0,0.2" 
class="s15_253"
>认为孔子很重要。</text>

<text 
x="59" 
y="268" 
dx="0,0" 
class="s14_253"
>3 </text>

<text 
x="82" 
y="269" 
dx="0,0,0,0,0,-1.1" 
class="s15_253"
>跟唐朝一样，</text>

<text 
x="183" 
y="269" 
dx="0,0,0" 
class="s15_253"
>现在有</text>

<text 
x="82" 
y="294" 
dx="0,0,0,0,0,0,0,0,0" 
class="s15_253"
>很多外国人去中国留</text>

<text 
x="82" 
y="318" 
dx="0,-1.1" 
class="s15_253"
>学，</text>

<text 
x="111" 
y="318" 
dx="0,0,0,0" 
class="s15_253"
>为什么？</text>

<text 
x="59" 
y="347" 
dx="0,0" 
class="s14_253"
>4 </text>

<text 
x="82" 
y="349" 
dx="0,0,0,0,0,0,0,0,0" 
class="s15_253"
>中国的四大发明是什</text>

<text 
x="82" 
y="373" 
dx="0,0" 
class="s15_253"
>么？</text>

<text 
x="59" 
y="402" 
dx="0,0" 
class="s14_253"
>5 </text>

<text 
x="82" 
y="404" 
dx="0,0,0,0,0,0,0,0,0" 
class="s15_253"
>为什么清朝以后再也</text>

<text 
x="82" 
y="428" 
dx="0,0,0,0,0,0" 
class="s15_253"
>没有皇帝了？</text>

<path d="M247.5,55l0,374.8" class="g8_253" />
<path d="M-12.9,1140.5l58,0l0,-1222.1l-58,0l0,1222.1Z" class="g9_253" />
<text 
x="20" 
y="1166" 
dx="0,1.2,1.2,0" 
class="s16_253"
>230 </text>

<text 
transform="matrix(0, -1, 1, 0, 34, 1129)"
dx="0,1.2,1.2,1,1.2,1.2,1.2,1.2,1,1.2,1.2,1.2,1.2,1.2,1.2,1.2,1.2,1.2,1.2,1.2,1.2" 
class="s17_253"
>Integrated Chinese 4 </text>

<text 
transform="matrix(0, -1, 1, 0, 34, 955)"
dx="0,1.2" 
class="s17_253"
>| </text>

<text 
transform="matrix(0, -1, 1, 0, 34, 938)"
dx="0,-0.3,0.9,0.9,1.2,1.2,1.2,1.2" 
class="s17_253"
>Textbook</text>

<text 
transform="matrix(0, -1, 1, 0, 34, 1129)"
dx="0,1.2,1.2,1,1.2,1.2,1.2,1.2,1,1.2,1.2,1.2,1.2,1.2,1.2,1.2,1.2,1.2,1.2,1.2,1.2" 
class="s17_253"
>Integrated Chinese 4 </text>

<text 
transform="matrix(0, -1, 1, 0, 34, 955)"
dx="0,1.2" 
class="s17_253"
>| </text>

<text 
transform="matrix(0, -1, 1, 0, 34, 938)"
dx="0,-0.3,0.9,0.9,1.2,1.2,1.2,1.2" 
class="s17_253"
>Textbook</text>

<text 
transform="matrix(0, -1, 1, 0, 34, 1129)"
dx="0,1.2,1.2,1,1.2,1.2,1.2,1.2,1,1.2,1.2,1.2,1.2,1.2,1.2,1.2,1.2,1.2,1.2,1.2,1.2" 
class="s17_253"
>Integrated Chinese 4 </text>

<text 
transform="matrix(0, -1, 1, 0, 34, 955)"
dx="0,1.2" 
class="s17_253"
>| </text>

<text 
transform="matrix(0, -1, 1, 0, 34, 938)"
dx="0,-0.3,0.9,0.9,1.2,1.2,1.2,1.2" 
class="s17_253"
>Textbook</text>



<!-- Any embedded fonts defined here -->
<style type="text/css" ><![CDATA[

@font-face {
	font-family: LibreFranklin-Regular_cqt;
	src: url("fonts/LibreFranklin-Regular_cqt.woff") format("woff");
}

@font-face {
	font-family: LibreFranklin-Bold_d98;
	src: url("fonts/LibreFranklin-Bold_d98.woff") format("woff");
}

@font-face {
	font-family: MuseoSans-700_d9u;
	src: url("fonts/MuseoSans-700_d9u.woff") format("woff");
}

@font-face {
	font-family: LibreFranklin-Regular_d9v;
	src: url("fonts/LibreFranklin-Regular_d9v.woff") format("woff");
}

@font-face {
	font-family: SourceHanSansCN-Regular_cgj;
	src: url("fonts/SourceHanSansCN-Regular_cgj.woff") format("woff");
}

@font-face {
	font-family: STKaiti-SC-Bold_cdn;
	src: url("fonts/STKaiti-SC-Bold_cdn.woff") format("woff");
}

@font-face {
	font-family: GentiumBookBasic-Italic_chu;
	src: url("fonts/GentiumBookBasic-Italic_chu.woff") format("woff");
}

@font-face {
	font-family: STKaiTi-TC-Regular_cev;
	src: url("fonts/STKaiTi-TC-Regular_cev.woff") format("woff");
}

@font-face {
	font-family: LibreFranklin-Medium_d9h;
	src: url("fonts/LibreFranklin-Medium_d9h.woff") format("woff");
}

@font-face {
	font-family: STKaiTi-TC-Bold_cdt;
	src: url("fonts/STKaiTi-TC-Bold_cdt.woff") format("woff");
}

@font-face {
	font-family: STKaiti-SC-Regular_cf1;
	src: url("fonts/STKaiti-SC-Regular_cf1.woff") format("woff");
}

@font-face {
	font-family: LibreFranklin-Italic_dak;
	src: url("fonts/LibreFranklin-Italic_dak.woff") format("woff");
}

@font-face {
	font-family: LibreFranklin-SemiBold_dai;
	src: url("fonts/LibreFranklin-SemiBold_dai.woff") format("woff");
}

@font-face {
	font-family: LibreFranklin-SemiBold_cg0;
	src: url("fonts/LibreFranklin-SemiBold_cg0.woff") format("woff");
}

]]></style>

</svg>
