<?xml version="1.0" encoding="UTF-8" standalone="no"?>
<!DOCTYPE svg PUBLIC "-//W3C//DTD SVG 1.1//EN"
"http://www.w3.org/Graphics/SVG/1.1/DTD/svg11.dtd">


<!-- Page 19 -->
<svg x="0" y="0" width="921" height="1196" viewBox="0 0 921 1196" version="1.1" xmlns="http://www.w3.org/2000/svg" xmlns:xlink="http://www.w3.org/1999/xlink"
style="display: block;margin-left: auto;margin-right: auto;">
<defs>

<style type="text/css"><![CDATA[

.g1_19{
fill: #438CCA;
}
.g2_19{
fill: none;
stroke: #FFFFFF;
stroke-width: 0.7638889;
stroke-linecap: butt;
stroke-linejoin: miter;
}
.g3_19{
fill: none;
stroke: #BDBEC1;
stroke-width: 0.38194445;
stroke-linecap: butt;
stroke-linejoin: miter;
}
.g4_19{
fill: none;
stroke: #BDBEC1;
stroke-width: 0.7638889;
stroke-linecap: round;
stroke-linejoin: round;
stroke-dasharray: 0,2;
}

.s1_19{
font-size: 13.75px;
font-family: MuseoSlab-700_ce3;
fill: #808285;
}
.s2_19{
font-size: 13.75px;
font-family: LibreFranklin-ExtraBold_cdg;
fill: #FFFFFF;
}
.s3_19{
font-size: 13.75px;
font-family: LibreFranklin-ExtraBold_cdg;
fill: #438CCA;
}
.s4_19{
font-size: 22.92px;
font-family: STKaiti-SC-Bold_cdn;
fill: #438CCA;
}
.s5_19{
font-size: 22.92px;
font-family: STKaiTi-TC-Bold_cdt;
fill: #438CCA;
}
.s6_19{
font-size: 14.51px;
font-family: LibreFranklin-Regular_cc_;
fill: #808285;
}
.s7_19{
font-size: 14.51px;
font-family: LibreFranklin-Regular_cc_;
fill: #231F20;
}
.s8_19{
font-size: 22.92px;
font-family: STKaiti-SC-Bold_cdz;
fill: #438CCA;
}

]]></style>

</defs>
<path d="M0,0
L0,1196
L921,1196
L921,0 Z " 
fill="#FFFFFF" stroke="none" />
<text 
x="26" 
y="1166" 
dx="0,0,0,0,0" 
class="s1_19"
>xviii</text>

<path d="M61.9,55.2l123.7,0l0,31.6l-123.7,0l0,-31.6Zm123.7,0l169.4,0l0,31.6l-169.4,0l0,-31.6Zm169.4,0l173,0l0,31.6l-173,0l0,-31.6Zm173,0l165.8,0l0,31.6L528,86.8l0,-31.6Zm165.8,0l138.1,0l0,31.6l-138.1,0l0,-31.6Z" class="g1_19" />
<path d="M185.6,384.4l0,-297" class="g2_19" />
<path d="M355,384.4l0,-297" class="g2_19" />
<path d="M528,384.4l0,-297" class="g2_19" />
<path d="M693.8,384.4l0,-297" class="g2_19" />
<path d="M185.6,828.7l0,-443.1" class="g2_19" />
<path d="M355,828.7l0,-443.1" class="g2_19" />
<path d="M528,828.7l0,-443.1" class="g2_19" />
<path d="M693.8,828.7l0,-443.1" class="g2_19" />
<path d="M185.6,893.9l0,-64.1" class="g2_19" />
<path d="M355,893.9l0,-64.1" class="g2_19" />
<path d="M528,893.9l0,-64.1" class="g2_19" />
<path d="M693.8,893.9l0,-64.1" class="g2_19" />
<path d="M185.6,86.2l0,-30.4" class="g2_19" />
<path d="M355,86.2l0,-30.4" class="g2_19" />
<path d="M528,86.2l0,-30.4" class="g2_19" />
<path d="M693.8,86.2l0,-30.4" class="g2_19" />
<path d="M61.9,385l123.7,0" class="g3_19" />
<path d="M693.8,385l138.1,0" class="g3_19" />
<path d="M61.9,829.3l123.7,0" class="g3_19" />
<path d="M693.8,829.3l138.1,0" class="g3_19" />
<path d="M61.9,894.5l123.7,0" class="g3_19" />
<path d="M693.8,894.5l138.1,0" class="g3_19" />
<path d="M185.6,382.9l0,-294.8" class="g4_19" />
<path d="M355,382.9L355,88.1" class="g4_19" />
<path d="M528,382.9L528,88.1" class="g4_19" />
<path d="M693.8,382.9l0,-294.8" class="g4_19" />
<path d="M185.6,827.2l0,-440.9" class="g4_19" />
<path d="M355,827.2l0,-440.9" class="g4_19" />
<path d="M528,827.2l0,-440.9" class="g4_19" />
<path d="M693.8,827.2l0,-440.9" class="g4_19" />
<path d="M185.6,892.4l0,-61.8" class="g4_19" />
<path d="M355,892.4l0,-61.8" class="g4_19" />
<path d="M528,892.4l0,-61.8" class="g4_19" />
<path d="M693.8,892.4l0,-61.8" class="g4_19" />
<path d="M185.6,385L355,385" class="g3_19" />
<path d="M355,385l173,0" class="g3_19" />
<path d="M528,385l165.8,0" class="g3_19" />
<path d="M185.6,829.3l169.4,0" class="g3_19" />
<path d="M355,829.3l173,0" class="g3_19" />
<path d="M528,829.3l165.8,0" class="g3_19" />
<path d="M185.6,894.5l169.4,0" class="g3_19" />
<path d="M355,894.5l173,0" class="g3_19" />
<path d="M528,894.5l165.8,0" class="g3_19" />
<path d="M61.9,55.2l123.7,0" class="g3_19" />
<path d="M185.6,55.2l169.4,0" class="g3_19" />
<path d="M355,55.2l173,0" class="g3_19" />
<path d="M528,55.2l165.8,0" class="g3_19" />
<path d="M693.8,55.2l138.1,0" class="g3_19" />
<path d="M61.9,86.8l123.7,0" class="g3_19" />
<path d="M185.6,86.8l169.4,0" class="g3_19" />
<path d="M355,86.8l173,0" class="g3_19" />
<path d="M528,86.8l165.8,0" class="g3_19" />
<path d="M693.8,86.8l138.1,0" class="g3_19" />
<path d="M185.6,84.7l0,-28.2" class="g4_19" />
<path d="M355,84.7l0,-28.2" class="g4_19" />
<path d="M528,84.7l0,-28.2" class="g4_19" />
<path d="M693.8,84.7l0,-28.2" class="g4_19" />
<text 
x="72" 
y="77" 
dx="0,0,0,0,0,0" 
class="s2_19"
>Lesson</text>

<text 
x="194" 
y="77" 
dx="0,0,0,0,0,0,0,0,0,0,0,0,0,0,0,0,0,-0.4,0" 
class="s2_19"
>Learning Objectives</text>

<text 
x="365" 
y="77" 
dx="0,0,-0.1,0,0,0,0" 
class="s2_19"
>Grammar</text>

<text 
x="534" 
y="77" 
dx="0,-1.2,0,-0.2,0,0,0,0,0,0,0,-0.1,0,0,0" 
class="s2_19"
>Words &amp; Phrases</text>

<text 
x="704" 
y="77" 
dx="0,0,0,0,0,0,-0.1,0,0,0,0,0,-0.3,0,-0.1,0,0" 
class="s2_19"
>Cultural Literacy</text>

<text 
x="72" 
y="109" 
dx="0,0,0" 
class="s3_19"
>14 </text>

<text 
x="72" 
y="132" 
dx="0,0,0" 
class="s4_19"
>生活与</text>

<text 
x="72" 
y="156" 
dx="0,0,0" 
class="s4_19"
>健康/</text>

<text 
x="72" 
y="180" 
dx="0,0,0" 
class="s5_19"
>生活與</text>

<text 
x="72" 
y="203" 
dx="0,0" 
class="s5_19"
>健康</text>

<text 
x="72" 
y="227" 
dx="0,0,0,-0.3,0,0,0,0,0,0,0,0,0,0" 
class="s3_19"
>Lifestyle and </text>

<text 
x="72" 
y="244" 
dx="0,0,0,0,0,0" 
class="s3_19"
>Health</text>

<text 
x="194" 
y="109" 
dx="0,0" 
class="s6_19"
>• </text>

<text 
x="201" 
y="109" 
dx="0,-1.2,0,0,0,0,0,0,0,0,0,0,0,0,0,0,0,0,0" 
class="s7_19"
>Talk about various </text>

<text 
x="201" 
y="128" 
dx="0,0,0,0,0,0,0,-0.2,0,0,-0.3,-0.4,0,-0.2,0,0,0" 
class="s7_19"
>types of exercise</text>

<text 
x="194" 
y="153" 
dx="0,0" 
class="s6_19"
>• </text>

<text 
x="201" 
y="153" 
dx="0,0,0,0,0,0,0,0,0,0,0,0,0,0,0,0,0,0,0,0,0" 
class="s7_19"
>Outline some healthy </text>

<text 
x="201" 
y="171" 
dx="0,0,0,0,0,0,0,0,0,0,0,0,0" 
class="s7_19"
>eating habits</text>

<text 
x="194" 
y="197" 
dx="0,0" 
class="s6_19"
>• </text>

<text 
x="201" 
y="197" 
dx="0,0,0,0,0,0,-0.2,0,0,-0.3,-0.4,0,-0.2,0,0,0,0" 
class="s7_19"
>Compare exercise </text>

<text 
x="201" 
y="215" 
dx="0,0,0,0,0,0,0,0,0,0,0,0,0,0,0,0,0,0,0,0" 
class="s7_19"
>habits in China and </text>

<text 
x="201" 
y="233" 
dx="0,0,0,0,0,0,0,0,0" 
class="s7_19"
>the U.S. </text>

<text 
x="194" 
y="258" 
dx="0,0" 
class="s6_19"
>• </text>

<text 
x="201" 
y="258" 
dx="0,-0.8,0,0,0,0,0,0,0,0,0,0,0,0" 
class="s7_19"
>Point out the </text>

<text 
x="201" 
y="277" 
dx="0,0,0,0,0,0,0,0,0,0,0,0,-0.2,0,0,0" 
class="s7_19"
>importance of a </text>

<text 
x="201" 
y="295" 
dx="0,0,0,0,0,0,0,0,0,0,0,0,-0.1" 
class="s7_19"
>balanced diet</text>

<text 
x="194" 
y="320" 
dx="0,0" 
class="s6_19"
>• </text>

<text 
x="201" 
y="320" 
dx="0,0,0,0,0,0,0,0,0,0,0,0,0,0,0,0,0,0,0,0,0" 
class="s7_19"
>Describe habits that </text>

<text 
x="201" 
y="339" 
dx="0,0,0,0,0,0,0,0,-0.1,0,0,0,0,0,0,0,0" 
class="s7_19"
>could age people </text>

<text 
x="201" 
y="357" 
dx="0,0,-0.2,0,0,0,0,0,-0.2,0,0,0,0,0,0,0,0,0,0,0" 
class="s7_19"
>prematurely or harm </text>

<text 
x="201" 
y="375" 
dx="0,0,0,0,0,0,0,0,0,0,0,0" 
class="s7_19"
>their health</text>

<text 
x="365" 
y="109" 
dx="0,0,0" 
class="s7_19"
>1. </text>

<text 
x="379" 
y="109" 
dx="0,0,0,0,0,0,0,0,0,0,0,0,0,0,-0.3,0,0,0,0" 
class="s7_19"
>Monosyllabic forms </text>

<text 
x="379" 
y="126" 
dx="0,-0.2,0,0,0,0,0,0,0,0,0,0,0,0,0,0,0,-0.2,0" 
class="s7_19"
>of disyllabic words</text>

<text 
x="365" 
y="155" 
dx="0,0,0" 
class="s7_19"
>2. </text>

<text 
x="379" 
y="155" 
dx="0,0,0,0,0,0,0,0,0,0,0,0,0,0,0,0,0,0,0,0" 
class="s7_19"
>The conjunction and </text>

<text 
x="379" 
y="178" 
dx="0,0,-0.2,0,0,0,0,0,0,0,0,0" 
class="s7_19"
>preposition </text>

<text 
x="459" 
y="178" 
dx="0" 
class="s5_19"
>与</text>

<text 
x="482" 
y="178" 
dx="0" 
class="s7_19"
>/</text>

<text 
x="487" 
y="178" 
dx="0" 
class="s4_19"
>與</text>

<text 
x="365" 
y="209" 
dx="0,0" 
class="s7_19"
>3.</text>

<text 
x="379" 
y="209" 
dx="0,0,0,0,0" 
class="s4_19"
>只要…就…</text>

<text 
x="365" 
y="239" 
dx="0,0" 
class="s7_19"
>4.</text>

<text 
x="379" 
y="239" 
dx="0,0,0,0,0" 
class="s4_19"
>即使…也…</text>

<text 
x="534" 
y="109" 
dx="0,0,0" 
class="s7_19"
>A. </text>

<text 
x="550" 
y="109" 
dx="0,0,0,0" 
class="s4_19"
>有的…，</text>

<text 
x="550" 
y="133" 
dx="0,0,0" 
class="s4_19"
>有的…</text>

<text 
x="534" 
y="163" 
dx="0,0,0" 
class="s7_19"
>B. </text>

<text 
x="550" 
y="163" 
dx="0,0" 
class="s4_19"
>重视</text>

<text 
x="596" 
y="163" 
dx="0" 
class="s7_19"
>/</text>

<text 
x="601" 
y="163" 
dx="0,0" 
class="s5_19"
>重視</text>

<text 
x="550" 
y="180" 
dx="0,0,-0.2,0,0,0,0,0,0,0,0" 
class="s7_19"
>(to attach </text>

<text 
x="550" 
y="197" 
dx="0,0,0,0,0,0,0,0,0,0,0,0,-0.2,-0.4,0,0,-0.2,0" 
class="s7_19"
>importance to, to </text>

<text 
x="550" 
y="214" 
dx="0,0,0,0,0,0,0,0,0,0,0,0,0,0,-0.2,1" 
class="s7_19"
>think highly of)</text>

<text 
x="534" 
y="244" 
dx="0,0,0" 
class="s7_19"
>C. </text>

<text 
x="550" 
y="244" 
dx="0,0" 
class="s4_19"
>等于</text>

<text 
x="596" 
y="244" 
dx="0" 
class="s7_19"
>/</text>

<text 
x="601" 
y="244" 
dx="0,0" 
class="s5_19"
>等於</text>

<text 
x="550" 
y="261" 
dx="0,0,-0.2,0,0,0,0,0,0,0,0,0,-0.2,0,0,0,0" 
class="s7_19"
>(to equal, to be </text>

<text 
x="550" 
y="278" 
dx="0,0,0,0,0,0,0,0,0,0,0,0,-0.2,-0.4,0,0,-0.2,0" 
class="s7_19"
>equivalent to, to </text>

<text 
x="550" 
y="295" 
dx="0,0,0,0,0,0,0,0,-0.2,0" 
class="s7_19"
>amount to)</text>

<text 
x="534" 
y="325" 
dx="0,-0.9,0" 
class="s7_19"
>D. </text>

<text 
x="550" 
y="325" 
dx="0,0" 
class="s4_19"
>随便</text>

<text 
x="596" 
y="325" 
dx="0" 
class="s7_19"
>/</text>

<text 
x="601" 
y="325" 
dx="0,0" 
class="s5_19"
>隨便</text>

<text 
x="550" 
y="342" 
dx="0,0,0,0,0,0,0,0,0,0,0,0,-0.2,0,0,0,0,0,0,0,0,0" 
class="s7_19"
>(casual, careless, as </text>

<text 
x="550" 
y="359" 
dx="0,0,0,0,0,0,0,0,0,0,0,0" 
class="s7_19"
>one pleases)</text>

<text 
x="704" 
y="109" 
dx="0,0" 
class="s6_19"
>• </text>

<text 
x="711" 
y="109" 
dx="0,0,0,0,0,0,0,0,0,0,0,0" 
class="s7_19"
>Cultivating </text>

<text 
x="711" 
y="128" 
dx="0,0,0,0,0,0,0,0" 
class="s7_19"
>vitality</text>

<text 
x="704" 
y="153" 
dx="0,0" 
class="s6_19"
>• </text>

<text 
x="711" 
y="153" 
dx="0,0,0,0,0,0,0,0,0,0,0,0" 
class="s7_19"
>Therapeutic </text>

<text 
x="711" 
y="171" 
dx="0,0,0,0,0,0,0,0,0" 
class="s7_19"
>practices</text>

<text 
x="704" 
y="197" 
dx="0,0" 
class="s6_19"
>• </text>

<text 
x="711" 
y="197" 
dx="0,0,0,0,0,0,0" 
class="s7_19"
>Smoking</text>

<text 
x="72" 
y="407" 
dx="0,0,0" 
class="s3_19"
>15 </text>

<text 
x="72" 
y="437" 
dx="0,0,0,0" 
class="s4_19"
>男女平等</text>

<text 
x="72" 
y="461" 
dx="0,0,0,0,0,0,0" 
class="s3_19"
>Gender </text>

<text 
x="72" 
y="478" 
dx="0,0,0,0,0,0,0,0" 
class="s3_19"
>Equality</text>

<text 
x="194" 
y="408" 
dx="0,0" 
class="s6_19"
>• </text>

<text 
x="201" 
y="408" 
dx="0,-1.2,0,0,0,0,0,0,0,0,0,0,0,0,0,0,0" 
class="s7_19"
>Talk about equal </text>

<text 
x="201" 
y="426" 
dx="0,0,-0.2,0,0,0,0,0,0,0,0,0,0" 
class="s7_19"
>treatment in </text>

<text 
x="201" 
y="444" 
dx="0,-0.2,0,0,0,0,0,0,0,0,0,0,0,0" 
class="s7_19"
>relationships </text>

<text 
x="194" 
y="470" 
dx="0,0" 
class="s6_19"
>• </text>

<text 
x="201" 
y="470" 
dx="0,0,0,0,0,0,0,0,0,-0.1,0,0,0,0,0" 
class="s7_19"
>Discuss gender </text>

<text 
x="201" 
y="488" 
dx="0,0,0,0,0,0,0,0,0,0,0,0,0,0,0,0" 
class="s7_19"
>equality in the </text>

<text 
x="201" 
y="506" 
dx="0,0,0,0,0,0,0,0,0" 
class="s7_19"
>workplace</text>

<text 
x="194" 
y="531" 
dx="0,0" 
class="s6_19"
>• </text>

<text 
x="201" 
y="531" 
dx="0,0,0,0,0,0,0,0,0,0,0,0,0,0" 
class="s7_19"
>Summarize the </text>

<text 
x="201" 
y="550" 
dx="0,0,0,0,0,-0.1,0,0,0,0,0,0,0,0,0,0,0,0,0" 
class="s7_19"
>changes in Chinese </text>

<text 
x="201" 
y="568" 
dx="0,0,0,0,0,0,-0.9,0,0,0,0,0,0,0,0" 
class="s7_19"
>women’s social </text>

<text 
x="201" 
y="586" 
dx="0,0,0,0,0,0,0,0,0,0,0,0,0,0,0,0,0" 
class="s7_19"
>status since 1950</text>

<text 
x="194" 
y="612" 
dx="0,0" 
class="s6_19"
>• </text>

<text 
x="201" 
y="612" 
dx="0,0,0,0,0,0,0,0,0,0,0,0,0" 
class="s7_19"
>Describe how </text>

<text 
x="201" 
y="630" 
dx="0,0,0,0,0,0,0,0,0,0,0,0,-0.2,0" 
class="s7_19"
>couples share </text>

<text 
x="201" 
y="648" 
dx="0,0,0,0,0,0,0,0,0,0,0,0,0,0,-0.2,0" 
class="s7_19"
>household chores</text>

<text 
x="365" 
y="408" 
dx="0,0,0" 
class="s7_19"
>1. </text>

<text 
x="379" 
y="408" 
dx="0,0,0,0,-0.2,0,0,0,0,0,0,0,0,0,0" 
class="s7_19"
>Sentences with </text>

<text 
x="379" 
y="431" 
dx="0,0,0" 
class="s4_19"
>是…的</text>

<text 
x="451" 
y="431" 
dx="0,0,0,0" 
class="s7_19"
>(II)</text>

<text 
x="365" 
y="462" 
dx="0,0,0" 
class="s7_19"
>2. </text>

<text 
x="379" 
y="462" 
dx="0,0" 
class="s4_19"
>过来</text>

<text 
x="425" 
y="462" 
dx="0" 
class="s7_19"
>/</text>

<text 
x="430" 
y="462" 
dx="0,0" 
class="s5_19"
>過來</text>

<text 
x="479" 
y="462" 
dx="0,0,0,0,0" 
class="s7_19"
>as a </text>

<text 
x="379" 
y="479" 
dx="0,0,0,0,0,0,0,0,0,0" 
class="s7_19"
>complement</text>

<text 
x="534" 
y="407" 
dx="0,0,0" 
class="s7_19"
>A. </text>

<text 
x="550" 
y="407" 
dx="0,0" 
class="s4_19"
>逐渐</text>

<text 
x="596" 
y="407" 
dx="0" 
class="s7_19"
>/</text>

<text 
x="601" 
y="407" 
dx="0,0" 
class="s5_19"
>逐漸</text>

<text 
x="550" 
y="424" 
dx="0,0,0,0,0,0,0,0,0,0,-1,0,0,0,0,0,0,0,0" 
class="s7_19"
>(gradually, little </text>

<text 
x="550" 
y="441" 
dx="0,0,0,0,0,0,0,0,0,0" 
class="s7_19"
>by little)</text>

<text 
x="534" 
y="471" 
dx="0,0,0" 
class="s7_19"
>B. </text>

<text 
x="550" 
y="471" 
dx="0,0" 
class="s4_19"
>提高</text>

<text 
x="599" 
y="471" 
dx="0,0,-0.2,0" 
class="s7_19"
>(to </text>

<text 
x="550" 
y="488" 
dx="0,0,0,0,-0.2,-0.3,-0.4,0,0,0,-0.2,0,0,0,0,0,0,0,0" 
class="s7_19"
>improve, to raise; </text>

<text 
x="550" 
y="505" 
dx="0,0,0,0,-0.2,-0.3,-0.4,0,0,0,0,0" 
class="s7_19"
>improvement)</text>

<text 
x="534" 
y="535" 
dx="0,0,0" 
class="s7_19"
>C. </text>

<text 
x="550" 
y="535" 
dx="0,0,0" 
class="s4_19"
>…以来</text>

<text 
x="619" 
y="535" 
dx="0" 
class="s7_19"
>/</text>

<text 
x="624" 
y="535" 
dx="0,0" 
class="s5_19"
>…以</text>

<text 
x="550" 
y="559" 
dx="0" 
class="s5_19"
>來</text>

<text 
x="576" 
y="559" 
dx="0,0,0,0,0,0,0" 
class="s7_19"
>(since)</text>

<text 
x="534" 
y="590" 
dx="0,-0.9,0" 
class="s7_19"
>D. </text>

<text 
x="550" 
y="590" 
dx="0,0,0,0" 
class="s4_19"
>拿…来说</text>

<text 
x="642" 
y="590" 
dx="0,0" 
class="s7_19"
>/ </text>

<text 
x="550" 
y="613" 
dx="0" 
class="s5_19"
>拿</text>

<text 
x="573" 
y="613" 
dx="0" 
class="s8_19"
>…</text>

<text 
x="596" 
y="613" 
dx="0,0" 
class="s5_19"
>來說</text>

<text 
x="550" 
y="630" 
dx="0,0,0,0,-0.4,0,0,0,0,0,0,0,0,-0.3,0,0" 
class="s7_19"
>(take . . . for </text>

<text 
x="550" 
y="647" 
dx="0,-0.3,0,0,0,0,0,0" 
class="s7_19"
>example)</text>

<text 
x="534" 
y="678" 
dx="0,0,0" 
class="s7_19"
>E. </text>

<text 
x="550" 
y="678" 
dx="0,0,0,0" 
class="s4_19"
>只有…才</text>

<text 
x="645" 
y="678" 
dx="0" 
class="s8_19"
>…</text>

<text 
x="550" 
y="694" 
dx="0,0,0,0,0,0,0,0,1" 
class="s7_19"
>(only if)</text>

<text 
x="534" 
y="725" 
dx="0,-1.9,0" 
class="s7_19"
>F. </text>

<text 
x="550" 
y="725" 
dx="0,0" 
class="s4_19"
>表现</text>

<text 
x="596" 
y="725" 
dx="0" 
class="s7_19"
>/</text>

<text 
x="601" 
y="725" 
dx="0,0" 
class="s5_19"
>表現</text>

<text 
x="650" 
y="725" 
dx="0,0,-0.2,0" 
class="s7_19"
>(to </text>

<text 
x="550" 
y="742" 
dx="0,0,0,0,-1,0,0,-0.2,0,0,0,0,0,0,0,0,-1,0" 
class="s7_19"
>show, to display, </text>

<text 
x="550" 
y="758" 
dx="0,-0.2,0,0,0,0,0,0,-0.3,0,0,0,0" 
class="s7_19"
>to manifest; </text>

<text 
x="550" 
y="775" 
dx="0,0,0,0,-0.3,0,0,0,0,0,0,0,0" 
class="s7_19"
>performance, </text>

<text 
x="550" 
y="792" 
dx="0,0,0,0,0,-0.3,0,0,0,0,0,0,0,0" 
class="s7_19"
>manifestation)</text>

<text 
x="534" 
y="823" 
dx="0,0,0" 
class="s7_19"
>G. </text>

<text 
x="550" 
y="823" 
dx="0" 
class="s4_19"
>由</text>

<text 
x="576" 
y="823" 
dx="0,0,0,0" 
class="s7_19"
>(by)</text>

<text 
x="704" 
y="408" 
dx="0,0" 
class="s6_19"
>• </text>

<text 
x="711" 
y="408" 
dx="0,-1,0,0,0,0,0,0,0,0,0,0,0" 
class="s7_19"
>Women in the </text>

<text 
x="711" 
y="426" 
dx="0,0,0,0,0,-0.3,0,-0.2,0" 
class="s7_19"
>workforce</text>

<text 
x="704" 
y="451" 
dx="0,0" 
class="s6_19"
>• </text>

<text 
x="711" 
y="451" 
dx="0,0,0,0,0,0,0,0,-0.2,0,0,0" 
class="s7_19"
>Gender terms</text>

<text 
x="704" 
y="476" 
dx="0,0" 
class="s6_19"
>• </text>

<text 
x="711" 
y="476" 
dx="0,-1,0,0,0,0,-0.9,0,0,0,0,0,0,0" 
class="s7_19"
>Women’s script</text>

<text 
x="72" 
y="851" 
dx="0,0,0,0,0,0,0,0,0,0,0,0" 
class="s3_19"
>Bringing It </text>

<text 
x="72" 
y="868" 
dx="0,-1.6,0,-0.4,-0.2,0,0,0,0" 
class="s3_19"
>Together </text>

<text 
x="72" 
y="885" 
dx="0,0,0,0,0,0,0,0,0" 
class="s3_19"
>(L11–L15)</text>

<text 
x="194" 
y="852" 
dx="0,0" 
class="s6_19"
>• </text>

<text 
x="201" 
y="852" 
dx="0,0,0,0,0,0,0,0,-0.2,0,0,0,0,0,0,0,0" 
class="s7_19"
>Review of L11–L15</text>



<!-- Any embedded fonts defined here -->
<style type="text/css" ><![CDATA[

@font-face {
	font-family: STKaiti-SC-Bold_cdn;
	src: url("fonts/STKaiti-SC-Bold_cdn.woff") format("woff");
}

@font-face {
	font-family: STKaiTi-TC-Bold_cdt;
	src: url("fonts/STKaiTi-TC-Bold_cdt.woff") format("woff");
}

@font-face {
	font-family: MuseoSlab-700_ce3;
	src: url("fonts/MuseoSlab-700_ce3.woff") format("woff");
}

@font-face {
	font-family: LibreFranklin-Regular_cc_;
	src: url("fonts/LibreFranklin-Regular_cc_.woff") format("woff");
}

@font-face {
	font-family: LibreFranklin-ExtraBold_cdg;
	src: url("fonts/LibreFranklin-ExtraBold_cdg.woff") format("woff");
}

@font-face {
	font-family: STKaiti-SC-Bold_cdz;
	src: url("fonts/STKaiti-SC-Bold_cdz.woff") format("woff");
}

]]></style>

</svg>
