<?xml version="1.0" encoding="UTF-8" standalone="no"?>
<!DOCTYPE svg PUBLIC "-//W3C//DTD SVG 1.1//EN"
"http://www.w3.org/Graphics/SVG/1.1/DTD/svg11.dtd">


<!-- Page 50 -->
<svg x="0" y="0" width="921" height="1196" viewBox="0 0 921 1196" version="1.1" xmlns="http://www.w3.org/2000/svg" xmlns:xlink="http://www.w3.org/1999/xlink"
style="display: block;margin-left: auto;margin-right: auto;">
<defs>

<style type="text/css"><![CDATA[

.g1_50{
fill: #FDD05C;
}
.g2_50{
fill: #FFFFFF;
}
.g3_50{
fill: #D92326;
}
.g4_50{
fill: none;
stroke: #FFFFFF;
stroke-width: 1.0175;
stroke-linecap: butt;
stroke-linejoin: miter;
stroke-miterlimit: 4;
}
.g5_50{
fill: #FEEBBC;
}

.s1_50{
font-size: 13.75px;
font-family: LibreFranklin-Medium_cey;
fill: #231F20;
}
.s2_50{
font-size: 13.75px;
font-family: LibreFranklin-BoldItalic_clf;
fill: #231F20;
}
.s3_50{
font-size: 21.39px;
font-family: STKaiti-SC-Bold_cdn;
fill: #A52021;
}
.s4_50{
font-size: 21.39px;
font-family: STKaiTi-TC-Bold_cdt;
fill: #A52021;
}
.s5_50{
font-size: 15.28px;
font-family: ZapfDingbatsITC_ckl;
fill: #D92326;
}
.s6_50{
font-size: 24.44px;
font-family: Athelas-Bold_cl1;
fill: #D92326;
}
.s7_50{
font-size: 64.17px;
font-family: Athelas-Bold_cl1;
fill: #D92326;
}
.s8_50{
font-size: 13.75px;
font-family: AvenirNextCondensed-DemiB_cks;
fill: #231F20;
}
.s9_50{
font-size: 13.75px;
font-family: LibreFranklin-SemiBold_chd;
fill: #231F20;
}

]]></style>

</defs>
<path d="M0,0
L0,1196
L921,1196
L921,0 Z " 
fill="#FFFFFF" stroke="none" />
<image x="0" y="0" width="923" height="1199" xlink:href="50/shade/1.png" />
<image x="522" y="89" width="375" height="125" xlink:href="50/shade/2.png" />
<path d="M570.4,1138.7l-21.7,21.7l-468.2,0L58.9,1138.7l0,-436.1L80.5,681l468.2,0l21.7,21.6Z" class="g1_50" />
<path d="M570.4,1138.7l0.2,0.2l-21.8,21.7l-468.4,0L58.6,1138.8l0,-436.3L80.4,680.8l468.4,0l21.8,21.7l0,436.3l0,0.1l-0.2,-0.2l-0.2,0l0,-436L548.7,681.2l-468.1,0L59.1,702.7l0,435.9l21.5,21.5l468.1,0l21.5,-21.6l0.2,0.2l-0.2,0Z" class="g2_50" />
<text 
x="98" 
y="794" 
dx="0,0.3,0.3,0.3,0.3,0.3,0.3,0.3,0.3,0.3,0.3,0.3,0.3,0.3,0.3,0.3,0.3,0.3,0.3,0.3,0.3,0.3,0.3,0.3,0.3,0.3,0.3,0.3,0.3,0.3,0.3,0.3,0.3,0.3,0.3,0.3,0.3,0.3,0.3,0.3,0.3,0.3,0.3,0.3,0.3,0.3,0.3,0.3,0.3,0.3,0.3,0.3,0.3,0.3,0" 
class="s1_50"
>Though holidays may appear timeless, their meaning and </text>

<text 
x="98" 
y="816" 
dx="0,0.3,0.3,0.3,0.3,0.3,0.3,0.3,0.3,0.3,0.3,0.1,0.3,0.3,0.3,0.3,0.3,0.3,0.3,0.2,0.3,0.1,0.3,0.3,0.3,0.3,0.1,0.3,0.3,0.1,0.3,0.1,0.3,0.3,0.3,0.3,0.3,0.3,0.3,0.1,0.3,0.3,0.3,0.3,0.3,0.3,0.1,0.3,0.3,0.3,0.3,0.3,0.3,0.1,0.2,0.3,0.3,0.3,0.3,0.3,0.3,0" 
class="s1_50"
>how they are celebrated are often the result of a negotiation </text>

<text 
x="98" 
y="837" 
dx="0,0.3,0.2,0.3,0.3,0.3,0.3,0.3,0.3,0.3,0.3,0.3,0.3,0.3,0.3,0.3,0.3,0.3,0.3,0.1,0.3,0.3,0.3,0.3,0.3,0.3,0.3,0.3,0.3,0.3,0.3,0.3,0.3,0.3,0.3,0.1,0.3,0.3,0.3,0.3,0.3,0.3,0.3,0.3,0.1,0.3,0.3,0.1,0.3,0.3,0.3,0.3,0.3,0.3,0.3,0.3,0.3,0.3,0.3,0.3,0" 
class="s1_50"
>between past and present. Seeking to navigate technological, </text>

<text 
x="98" 
y="858" 
dx="0,0.3,0.3,0.3,0.3,0.3,0.3,0.3,0.3,0.3,0.3,0.3,0.3,0.3,0.3,0.3,0.3,0.3,0.2,0.3,0.3,0.3,0.3,0.3,0.3,0.3,0.1,0.3,0.3,0.3,0.3,0.3,0.3,0.3,0.3,0.3,0.3,0.3,0.3,0.3,0.3,0.3,0.3,0.3,0.3,0.3,0.3,0.3,0.3,0.3,0.3,0.3,0.3,0.1,0.3,0.1,0.3,0" 
class="s1_50"
>social, and cultural change, people and communities often </text>

<text 
x="98" 
y="880" 
dx="0,0.3,0.2,0.3,0.3,0.3,0,0.3,0.3,0.3,0.3,0.3,0.2,0.3,0.3,0.3,0.3,0.3,0.3,0.3,0.3,0.3,0.3,0.3,0.3,0.3,0.3,0.3,0.3,0.3,0.3,0.3,0.3,0.3,0.3,0.3,0.3,0.3,0.3,0.3,0.3,0.3,0.3,0.3,0.3,0.3,0.3,0.3,0.3,0.3,0.3,0.3,0.3,0.3,0.3,0.2,0.3,0.3,0.3,0.3,0.3,0.3,0.3,0.3,0.3,0" 
class="s1_50"
>transform traditions in ways that their original celebrants could </text>

<text 
x="98" 
y="901" 
dx="0,0.3,0.2,0.3,0.3,0.3,0.3,-0.1,0.3,0.3,0.3,0.1,0.3,0.3,0.3,0.3,0.1,0.3,0.3,0.3,0.3,0.3,0.3,0.3,0.3,0.3,0.3,0.3,0.3,0.3,0.3,0.3,0.3,0.3,0.3,0.3,0.3,0.3,0.3,0.3,0.3,0.3,0.3,0.3,0.3,0.3,0.3,0.3,0.3,0.3,0.3,0,0.3,0.3,0.3,0.3,0.3,0.3,0.3,0" 
class="s1_50"
>not have predicted. In 2017, people in China sent forty-six </text>

<text 
x="98" 
y="923" 
dx="0,0.3,0.3,0.3,0.3,0.3,0.3,0.3,0.3,0.3,0.3,0.3,0.3,0.3,0.1,0.3,0.3,0.3,0.3" 
class="s1_50"
>billion electronic </text>

<text 
x="212" 
y="923" 
dx="0,0.3,0.3,0.3,0.3,0.3,0.3" 
class="s2_50"
>hongbao</text>

<text 
x="275" 
y="923" 
dx="0" 
class="s1_50"
>(</text>

<text 
x="279" 
y="923" 
dx="0,0" 
class="s3_50"
>红包</text>

<text 
x="322" 
y="923" 
dx="0" 
class="s1_50"
>/</text>

<text 
x="327" 
y="923" 
dx="0,0" 
class="s4_50"
>紅包</text>

<text 
x="370" 
y="923" 
dx="0,0.3,0.3,0.3,0.3,0.3,0.3,0.3,0.3,0.3,0.3,0.3,0.3,0.3,0.3,0.3,0.3,0.3,0.3,0.2,0" 
class="s1_50"
>). Senders could opt </text>

<text 
x="98" 
y="944" 
dx="0,0.1,0.3,0.3,0.3,0.2,0.1,0.3,0.3,0.3,0.3,0.3,0.3,0.3,0.3,0.3,0.3,0.3,0.1,0.2,0.3,0.3,0.3,0.3,0.3,0.3,0.3,0.3,0.3,0.3,0.3,0.1,0.3,0.3,0.3,0.3,0.3,0.3,0.3,0.3,0.1,0.3,0.3,0.3,0.3,-0.1,0.3,0.3,0.3,0.3,0.3,0.3,0.3,0.3,0.3,0.3,0.3,0.3,0.3,0.3,0" 
class="s1_50"
>to determine the total amount of money to give out among all </text>

<text 
x="98" 
y="965" 
dx="0,0.1,0.3,0.3,0.3,0.3,-0.1,0.3,0.3,0.3,0.3,0.3,0.3,0.3,0.3,0.3,0.2,0.3,0.3,0.3,0.3,0.3,0.3,0.3,0.3,0.3,0.3,-0.1,0.3,0.3,0.3,0.3,0.3,0.3,0.3,0.1,0.3,0.3,0.3,0.3,0.3,0.3,0.3,0.3,0.3,0.3,0.3,0.3,0.3,0.3,0.3,0.3,0.3,0.3,0.3,0.3,0.2,0.3,0.3,0.3,0.3,0.3,0.3,0" 
class="s1_50"
>receivers and let the delivery system divide the money randomly </text>

<text 
x="98" 
y="987" 
dx="0,0.3,0.3,0.3,0.3,0.3,0.3,0.3,0.3,0.3,0.3,0.3,0.3,0.3,0.1,0.3,0.3,0.3,0.1,0.3,0.3,0.3,0.3,-0.1,0.3,0.3,0.3,0.3,0.3,0.3,0.3,0.3,0.3,0.3,0.3,0.3,0.3,0.3,0.3,0.3,0.1,0.3,0.3,0.3,0.3" 
class="s1_50"
>among designated receivers. While electronic </text>

<text 
x="408" 
y="987" 
dx="0,0.3,0.3,0.3,0.3,0.3,0.3" 
class="s2_50"
>hongbao</text>

<text 
x="470" 
y="987" 
dx="0,0.3,0.1,0" 
class="s1_50"
>are </text>

<text 
x="98" 
y="1008" 
dx="0,0.3,0.3,0.3,0.3,0.3,0.2,0.3,0.3,0.3,0.3,0.3,0.3,0.3,0.3,0.3,0.3,0.3,0.3,0.3,0.3,0.3,0.1,0.3,0.3,0.3,0.3,0.3,0.3,0.3" 
class="s1_50"
>conceptually similar to paper </text>

<text 
x="295" 
y="1008" 
dx="0,0.3,0.3,0.3,0.3,0.3,0.3" 
class="s2_50"
>hongbao</text>

<text 
x="354" 
y="1008" 
dx="0,0.3,0.3,0.3,0.3,0.3,0.3,0.3,0.3,0.3,0.3,0.3,0.3,0.3,0.3,0.3,0.3,0.3,0.3,0.3,0.3,0.3,0.3,0" 
class="s1_50"
>, it is undeniable that </text>

<text 
x="98" 
y="1029" 
dx="0,0.3,0.3,0.3,0.3,0.3,0.3,0.1,-0.1,0.3,0.3,0.3,0.3,0.3,0.3,0.3,0.3,0.3,0.3,0,0.3,0.1,0.3,0.3,0.3,0.3,0,0.3,0.3,0.3,0.3,0.3,0.3,0.3,0.3,0.3,0.3,0.3,0.3,0.3,0.3,0.3,0.3,0.3,0.3,0.3,0.3,0.3,0.3,0.3,0.3,-0.1,0.3,0.3,0.3,0.3,0.3,-0.1,0.3,0.3,0" 
class="s1_50"
>they provide a different experience, and perhaps even have a </text>

<text 
x="98" 
y="1051" 
dx="0,0.3,0.3,0.3,0,0.3,0.1,0.3,0.3,0.3,0.3,0.3,0.3,0.3,0.3,0.3,0.3,0.3,0.3,0.3,0.3,0.3,0.3,0.3,0.3,0.3,0.3,0.3,0.3,0.3,0.3,0.1,0.3,0.3,0.3,0.3,0.3,0.3,0.3,0.3,0.3,0.3,0.3,0.3,0.3,0.3,0.3,0.3,0.3,0.3,0.2,0.3,0.3,0.3,0.3,0.3,0.3,0.3,0.3,0.3,0.3,0.3,0.3,0" 
class="s1_50"
>different meaning. Do you engage in any holiday traditions that </text>

<text 
x="98" 
y="1072" 
dx="0,0.3,0.3,-0.1,0.3,0.3,0.3,0.3,0.3,0.3,0.3,0.3,0.3,0.3,0.3,0.3,0.3,0.3,0.3,0.3,0.3,0.3,0.3,0.1,0.3,0.3,0.1,0.3,0.3,0.3,0.3,0.3,0.3,0.3,0.3,0.3,0.3,0.3,0.3,0.3,0.3,0.3,0.3,0.3,0.3,0.3,0.3,0.3,0.3,0.3,0.3,0.3,0.3,0.3,0.3,0.3,0.3,0.3,0.2,0.3,0" 
class="s1_50"
>have borne the impact of technological, social, and cultural </text>

<text 
x="98" 
y="1094" 
dx="0,0.3,0.3,0.3,0.3,0.1,0.3,0.3,0.3,0.3,0.3,0.3,0.3,0.3,0.3,0.3,0.3,0.3,0.3,0.3,0.3,0.3,0.1,0.3,0.3,0.3,0.3,0.3,0.3,0.3,0.3,0.3,0.3,0.3,0.3,0.3,0.3,0.3,0.2,0.3,0.1,0.3,0.3,0.3,0.3,0.3,0.3,0.3,0.3,0.3,0.2,0.3,0.3,0.3,0.3,0.3,0.3,0.3,0" 
class="s1_50"
>change? What aspects of how you celebrate those traditions </text>

<text 
x="98" 
y="1115" 
dx="0,0.3,0.3,0.3,0.3,0.3,0.3,0.3,0.3,0.3,0.3,0.3,0.3,0.3,0.3,0.3,0.3,0.3,0.3,0.3,0.3,0.3,0.3,0.1,0.3,0.3,0.3,0.3,0.3,0.3,0.3,0.3,0.3,0.3,0.3,0.3,0.3,0.3,0.3,0.3,0.3,0.3,0.3,0.3,0.3,0.3,0.3,0.3,0.3,0.1,0.3,0.3,0.1,0.3,0.3,0.3,0.2,0.3,0.3,0.3,0.3" 
class="s1_50"
>do you think someone from the past would find hard to grasp? </text>

<text 
x="515" 
y="1115" 
dx="0" 
class="s5_50"
>◆</text>

<path d="M203.4,739.8c3.2,0,5,-1.7,6,-3.5l-2.6,-1.2c-0.6,1.1,-1.9,2,-3.4,2c-2.5,0,-4.4,-2,-4.4,-4.6c0,-2.7,1.9,-4.7,4.4,-4.7c1.5,0,2.8,0.9,3.4,2.1l2.6,-1.3c-1,-1.8,-2.8,-3.5,-6,-3.5c-4.2,0,-7.5,3,-7.5,7.4c0,4.3,3.3,7.3,7.5,7.3m7.2,-7.3c0,4.2,3.1,7.3,7.4,7.3c4.3,0,7.4,-3.1,7.4,-7.3c0,-4.3,-3.1,-7.4,-7.4,-7.4c-4.3,0,-7.4,3.1,-7.4,7.4m11.7,0c0,2.6,-1.7,4.6,-4.3,4.6c-2.6,0,-4.3,-2,-4.3,-4.6c0,-2.7,1.7,-4.7,4.3,-4.7c2.6,0,4.3,2,4.3,4.7m17.6,7.1l3,0l0,-14.3l-4.2,0l-3.5,8.9l-3.4,-8.9l-4.3,0l0,14.3l3.1,0l0,-10.3l4,10.3l1.3,0l4,-10.3Zm5.9,0l3,0l0,-5.1l3.6,0c3.1,0,4.8,-2.1,4.8,-4.6c0,-2.5,-1.7,-4.6,-4.8,-4.6l-6.6,0Zm8.3,-9.7c0,1.2,-0.9,2,-2.1,2l-3.2,0l0,-4l3.2,0c1.2,0,2.1,0.8,2.1,2m13.3,9.7l3.3,0l-5.4,-14.3l-3.8,0L256,739.6l3.3,0l0.9,-2.5l6.3,0Zm-4,-11.6l2.3,6.5l-4.7,0Zm16.7,11.6l3.5,0l-3.2,-5.5c1.5,-0.3,3.1,-1.7,3.1,-4.2c0,-2.6,-1.8,-4.6,-4.8,-4.6l-6.6,0l0,14.3l3,0l0,-5.1l2.2,0Zm0.3,-9.7c0,1.2,-0.9,2,-2.1,2l-3.2,0l0,-4l3.2,0c1.2,0,2.1,0.8,2.1,2m5.4,9.7l10,0l0,-2.7l-7,0l0,-3.3l6.9,0l0,-2.6l-6.9,0l0,-3.1l7,0l0,-2.6l-10,0Z" class="g3_50" />
<path d="M320.8,744.5c2.3,-3.2,4.1,-6.8,5.5,-9.9l-5.1,-2.4c-0.8,2.3,-2.1,5.5,-4,8.4c-1.3,-1.5,-2.6,-3,-3.9,-4.7c-1.2,-1.3,-2.6,-3,-3.9,-4.9c4.9,-2.4,9.9,-5,9.9,-11c0,-5.2,-4.4,-8.2,-9.9,-8.2c-6.2,0,-10.8,4,-10.8,9.4c0,2.8,1.1,5.8,2.8,8.8c-4.5,2.4,-8.7,5.5,-8.7,11.6c0,7.6,5.8,11.4,12.9,11.4c4.5,0,8.2,-1.7,11.2,-4.2c1.3,1.3,2.6,2.6,3.5,3.5l8.2,0c-2.8,-2.8,-5.3,-5.3,-7.7,-7.8M304.9,721.3c0,-2.8,2.1,-4.9,4.8,-4.9c2.3,0,4,1.4,4,3.9c0,3.3,-3,5.2,-6.8,7c-1.1,-2.1,-2,-4.2,-2,-6m1.5,26.7c-3.7,0,-7,-2.5,-7,-6.9c0,-3.4,1.9,-5.5,4.5,-7.2c1.5,2,3,4,4.5,5.8c1,1.2,2.9,3.3,4.9,5.5c-2,1.6,-4.4,2.8,-6.9,2.8Z" class="g2_50" />
<path d="M195.9,744.6l99.9,0" class="g4_50" />
<path d="M195.9,746.6l99.9,0" class="g4_50" />
<path d="M315.8,744.6l116.6,0" class="g4_50" />
<path d="M315.8,746.6l116.6,0" class="g4_50" />
<path d="M330,739.8c3.2,0,5,-1.7,6,-3.5l-2.6,-1.2c-0.6,1.1,-1.8,2,-3.4,2c-2.5,0,-4.4,-2,-4.4,-4.6c0,-2.7,1.9,-4.7,4.4,-4.7c1.6,0,2.8,0.9,3.4,2.1l2.6,-1.3c-1,-1.8,-2.8,-3.5,-6,-3.5c-4.2,0,-7.5,3,-7.5,7.4c0,4.3,3.3,7.3,7.5,7.3m7.2,-7.3c0,4.2,3.1,7.3,7.4,7.3c4.3,0,7.4,-3.1,7.4,-7.3c0,-4.3,-3.1,-7.4,-7.4,-7.4c-4.3,0,-7.4,3.1,-7.4,7.4m11.7,0c0,2.6,-1.7,4.6,-4.3,4.6c-2.6,0,-4.3,-2,-4.3,-4.6c0,-2.7,1.7,-4.7,4.3,-4.7c2.6,0,4.3,2,4.3,4.7m15.1,7.1l2.9,0l0,-14.3l-3,0l0,9.2l-6.6,-9.2l-3.1,0l0,14.3l3,0l0,-9.6Zm9,0l3,0L376,728l4.2,0l0,-2.7l-11.4,0l0,2.7l4.2,0Zm17.1,0l3.5,0l-3.2,-5.5c1.5,-0.3,3.1,-1.7,3.1,-4.2c0,-2.6,-1.8,-4.6,-4.7,-4.6l-6.7,0l0,14.3l3,0l0,-5.1l2.2,0Zm0.3,-9.7c0,1.2,-0.9,2,-2.1,2l-3.2,0l0,-4l3.2,0c1.2,0,2.1,0.8,2.1,2m15.4,9.7l3.3,0l-5.5,-14.3l-3.8,0l-5.5,14.3l3.3,0l0.9,-2.5l6.4,0ZM401.7,728l2.3,6.5l-4.7,0Zm7.6,9.5c1.3,1.4,3.3,2.3,6,2.3c3.8,0,5.7,-2,5.7,-4.6c0,-3.1,-3,-3.8,-5.4,-4.3c-1.6,-0.4,-2.8,-0.7,-2.8,-1.7c0,-0.8,0.7,-1.4,2.1,-1.4c1.4,0,2.9,0.5,4.1,1.5l1.7,-2.2c-1.5,-1.3,-3.3,-2,-5.6,-2c-3.3,0,-5.4,1.9,-5.4,4.3c0,3.2,3,3.8,5.3,4.4c1.7,0.3,2.9,0.7,2.9,1.8c0,0.8,-0.8,1.6,-2.5,1.6c-1.9,0,-3.5,-0.9,-4.5,-2Zm16.9,2.1l3,0l0,-11.6l4.1,0l0,-2.7l-11.3,0l0,2.7l4.2,0Z" class="g3_50" />
<image preserveAspectRatio="none" x="56" y="278" width="452" height="319" xlink:href="50/img/1.png" />
<path d="M55.8,278.1l-0.3,0l0,319.4l453.2,0l0,-319.7l-453.2,0l0,0.3l0.3,0l0,0.2l452.4,0l0,318.7L56,597L56,278.1l-0.2,0l0,0.2Z" class="g1_50" />
<image preserveAspectRatio="none" x="412" y="569" width="79" height="28" xlink:href="50/img/2.png" />
<image x="342" y="577" width="248" height="68" xlink:href="50/shade/3.png" />
<image preserveAspectRatio="none" x="385" y="578" width="123" height="19" xlink:href="50/img/3.png" />
<path d="M508.7,578.1c-0.2,0,-0.3,0,-0.5,0l0,18.9l-15.1,0c0,0.2,0,0.3,0,0.5l15.6,0l0,-19.4M489.5,597l-77.2,0c-0.6,0.1,-1.2,0.3,-1.8,0.5l78.9,0c0,-0.2,0,-0.3,0.1,-0.5m-82.9,0l-21.9,0c-0.1,0.2,-0.1,0.3,-0.2,0.5l22.4,0c-0.1,-0.2,-0.2,-0.3,-0.3,-0.5Z" class="g5_50" />
<image preserveAspectRatio="none" x="98" y="0" width="455" height="278" xlink:href="50/img/4.png" />
<image preserveAspectRatio="none" x="484" y="142" width="60" height="48" xlink:href="50/img/5.png" />
<image preserveAspectRatio="none" x="217" y="278" width="218" height="28" xlink:href="50/img/6.png" />
<image x="215" y="277" width="223" height="3" xlink:href="50/shade/4.png" />
<image preserveAspectRatio="none" x="530" y="649" width="167" height="35" xlink:href="50/img/7.png" />
<image preserveAspectRatio="none" x="530" y="681" width="21" height="7" xlink:href="50/img/8.png" />
<image preserveAspectRatio="none" x="530" y="680" width="22" height="4" xlink:href="50/img/9.png" />
<image preserveAspectRatio="none" x="570" y="1123" width="3" height="9" xlink:href="50/img/10.png" />
<image preserveAspectRatio="none" x="530" y="948" width="40" height="184" xlink:href="50/img/11.png" />
<image preserveAspectRatio="none" x="570" y="1120" width="1" height="12" xlink:href="50/img/12.png" />
<image preserveAspectRatio="none" x="729" y="1097" width="149" height="35" xlink:href="50/img/13.png" />
<image preserveAspectRatio="none" x="696" y="605" width="202" height="96" xlink:href="50/img/14.png" />
<image preserveAspectRatio="none" x="850" y="657" width="120" height="321" xlink:href="50/img/15.png" />
<image preserveAspectRatio="none" x="827" y="771" width="119" height="322" xlink:href="50/img/16.png" />
<image preserveAspectRatio="none" x="827" y="989" width="72" height="115" xlink:href="50/img/17.png" />
<image preserveAspectRatio="none" x="473" y="688" width="115" height="261" xlink:href="50/img/18.png" />
<image preserveAspectRatio="none" x="497" y="805" width="7" height="14" xlink:href="50/img/19.png" />
<image preserveAspectRatio="none" x="497" y="805" width="7" height="14" xlink:href="50/img/20.png" />
<image preserveAspectRatio="none" x="502" y="825" width="11" height="16" xlink:href="50/img/21.png" />
<image preserveAspectRatio="none" x="502" y="825" width="11" height="16" xlink:href="50/img/22.png" />
<image preserveAspectRatio="none" x="512" y="868" width="12" height="16" xlink:href="50/img/23.png" />
<image preserveAspectRatio="none" x="512" y="868" width="12" height="16" xlink:href="50/img/24.png" />
<image preserveAspectRatio="none" x="572" y="1097" width="158" height="69" xlink:href="50/img/25.png" />
<image preserveAspectRatio="none" x="522" y="644" width="234" height="201" xlink:href="50/img/26.png" />
<image preserveAspectRatio="none" x="720" y="610" width="196" height="241" xlink:href="50/img/27.png" />
<image preserveAspectRatio="none" x="558" y="799" width="234" height="201" xlink:href="50/img/28.png" />
<image preserveAspectRatio="none" x="521" y="896" width="109" height="270" xlink:href="50/img/29.png" />
<image preserveAspectRatio="none" x="767" y="828" width="159" height="281" xlink:href="50/img/30.png" />
<image preserveAspectRatio="none" x="866" y="816" width="62" height="64" xlink:href="50/img/31.png" />
<image preserveAspectRatio="none" x="594" y="954" width="234" height="201" xlink:href="50/img/32.png" />
<image preserveAspectRatio="none" x="473" y="680" width="153" height="284" xlink:href="50/img/33.png" />
<image preserveAspectRatio="none" x="533" y="953" width="83" height="168" xlink:href="50/img/34.png" />
<image preserveAspectRatio="none" x="519" y="679" width="108" height="275" xlink:href="50/img/35.png" />
<image preserveAspectRatio="none" x="522" y="901" width="95" height="222" xlink:href="50/img/36.png" />
<text 
x="169" 
y="72" 
dx="0,0,0,0" 
class="s6_50"
>The </text>

<text 
x="169" 
y="135" 
dx="0,0,0,0,-2.9,-2.9,-0.3,0,0,0" 
class="s7_50"
>Mid-Autumn</text>

<text 
x="169" 
y="204" 
dx="0,-3.8,0,0,0,-1.9,-1.6,0" 
class="s7_50"
>Festival</text>

<text 
x="528" 
y="291" 
dx="0,0.3,0.3,0.3,0.3,0.3,0.3,0.3,0.1,0.3,0.3,0.3,0.3,0.3,0.3,0.3,0.3,0.3,0.3,0.1,0.3,0.3,0.3,0.3,0.3,0.3,0.3,0.3,0.3,0.3,0.3,0.3,0.3,0.3,0.3,0.3,0.3,0.3,0.3,0.1,0.3,0.3,0.3,0.3,0" 
class="s1_50"
>The fifteenth day of the eighth month of the </text>

<text 
x="528" 
y="312" 
dx="0,0.3,0.3,0.3,0.3,0.3,0.3,0.3,0.3,0.3,0.3,0.3,0.3,0.3,-0.9,0.3,0.3,0.3,0.3,0.3,0.3,0.3,0.3,0.3,0.3,0.3,0.3,0.3,0.3,0.3,0.3,0.3,0.3,0.3,0.2,0.1,0.3,0.3,0.3,0.3,0.3,0.3,0.3,0.3,0.3,0.3,0.3,0.3,0.3,0" 
class="s1_50"
>lunar calendar, which falls in September or early </text>

<text 
x="528" 
y="334" 
dx="0,0.3,0.3,0.1,0.3,0.3,0.3,-0.9,0.3,0.3,0.3,0.3,0.3,0.1,0.3,0.3,0.3,0.3,0.3,0.3,0.3,0.3,0.3,0.3,0.3,0.3,0.3,0.3,0.3,0.3,0.3,-0.9,0.3,0.3,0.3,0.3,0.3,0.3,0.3,0.3,0.3,0.3,0.3,0.3,0.3,0.3,0.3,0" 
class="s1_50"
>October, marks the Mid-Autumn Festival. It is a </text>

<text 
x="528" 
y="355" 
dx="0,0.3,0.3,0.3,0.3,0,0.3,0.3,0.3,0.3,0.3,0.3,0.3,0.3,0.3,0.3,0.1,0.3,0.3,0.3,0.3,0.3,0.3,0.3,0.3,0.3,0.3,0.3,0.3,0.3,0.3,0.3,0.3,0.3,0.3,0.3,0.3,0.3,0.3,0.3,0.3,0.3,0.3,0.3,0.3,0.3,0.3,0.3,0.3,0.3,0" 
class="s1_50"
>day for family reunion, which is symbolized by the </text>

<text 
x="528" 
y="376" 
dx="0,0.3,0.3,0.3,0.3,0.3,0.3,0.3,0.3,0.3,0.3,0.3,0.3,0.3,0.3,0.3,0.3,0.3,0.3,0.3,0.3,0.3,0.3,0.3,0.3,0.3,0.3,0.3,0.3,0.3,0.3,0.3,0.3,0.3,0.3,0.3,0.3,0.3,0.3,0.3,0.1,0.3,0.3,0.3,0.3,0.3,0.3,0.3,0.3,0.3,0.3,0.3,0" 
class="s1_50"
>full moon. While admiring the fullness of the bright </text>

<text 
x="528" 
y="398" 
dx="0,0.3,0.3,0.3,0.3,0.3,0.3,0.3,0.3,0.3,0.3,0.3,0.3,0.3,0.3,0.3,0.3,0.3,0.3,0.3,0.3,0.3,0.3,0.3,0.3,0.3,0.3,-0.2,0.3,0.3,0.3,0.3,0.3,0.3,0.3,0.3,0.3,0.3,0.3,0.3,0.3,0.3,0.3,0.3,0" 
class="s1_50"
>moon, people enjoy moon cakes, which come in </text>

<text 
x="528" 
y="419" 
dx="0,0.3,0.3,0.3,0.3,0.3,0.1,0.3,0.3,0.3,0.3,0.3,0.3,0.3,0.3,0.3,0.3,0.3,0.3,0.3,0.3,0.3,0.3,0.3,0.3,0.3,0.3,0.3,0.3,0.1,0.3,0.3,0.3,0.3,0.3,0.3,0.3,0.3,0.3,0.3,0.3,0.3,-0.2,0.3,0.3,0.3,0.3,0.3,0.3,0" 
class="s1_50"
>many regional styles. They are usually baked with </text>

<text 
x="528" 
y="440" 
dx="0,0.3,0.3,0.3,0.2,0.3,0.3,0.3,0.3,0.3,0.3,0.3,0.3,0.3,0.3,0.3,0.3,0.3,0.3,0.3,0.3,0.3,0.3,0.3,0.3,0.3,0.3,0.3,0.3,0.3,0.3,0.3,0.3,0.3,0.3,0.1,0.3,0.3,0.3,0.3,-0.1,0.3,0.3,0.3,0.3,0.3,0.3,0.3,0.3,0.3,0.3,0.3,0" 
class="s1_50"
>sweet fillings including nuts or preserved fruit, or </text>

<text 
x="528" 
y="462" 
dx="0,0.3,-0.1,0.3,0.3,0.3,0.3,0.3,0.3,0.3,0.3,0.3,0.3,0.3,0.1,0.3,0.3,0.3,0.3,0.3,0.3,-0.5,0.3,0.3,0.3,0.3,0.3,0.3,0.3,0.3,0.1,0.3,0.3,0.3,0.3,0.3,0.3,0.3,0.3,0.3,0.3,0.3,0.3,0.3,0.3,0.3,0" 
class="s1_50"
>even with salted duck-egg yolks. In Suzhou and </text>

<text 
x="528" 
y="483" 
dx="0,0.3,0.3,0.3,0.3,0.3,0.3,0.3,0.3,0.3,0.3,0.3,0.1,0.3,0.3,0.3,0.3,0.3,0.3,0.3,0.3,0.3,0.2,0.3,0.3,0.3,0.3,0.3,0.3,0.3,0.3,0.3,-0.2,0.3,0.3,0.3,0.3,0.3,0.3,0.3,0.3,0.3,0.3,0.3,0.3,0.3,0" 
class="s1_50"
>Shanghai, fresh and hot moon cakes with minced </text>

<text 
x="528" 
y="505" 
dx="0,0.3,0.3,0.3,0.3,0.3,0.3,0.1,0.3,0.3,0.3,0.3,0.3,0.3,0.3,-0.1,0.3,0.3,0.3,0.3,0.3,0.3,0.3,0.3,0.3,0.3,-0.9,0.3" 
class="s1_50"
>pork are also very popular. </text>

<text 
x="707" 
y="505" 
dx="0" 
class="s5_50"
>◆</text>

<text 
x="528" 
y="556" 
dx="0,0.3,0.3,0.3,0.3,0.3,0.3,0.3,0.3,0.3,0.3,0.3,0.3,0.1,0.3,0.3,0.3,0.3,0.3,0.3,0.3,0.3,0.3,0.3,0.3,0.3,0.3,0.3,0.3,0.3,0.3,0.3,0.3,0.3,0.3,0.3,0.3,0.3,0.3,0.3,0.3,0.3,0.3,0.3,0" 
class="s8_50"
>Some moon cakes have intricate designs; this </text>

<text 
x="528" 
y="573" 
dx="0,0.3,0.3,0.3,0.3,0.2,0.3,0.3,0.1,0.3,0.2,0.3,0.2,0.3,0.3,0.3,0.2,0.3,0.3,0.2,0.3,0.3,0.3,0.1,0.2,0.3,0.3,0.3,0.2,0.2,0.3,0.3,0.3,0.3,0.3,-0.1,0.2,0.3,0.2,0.3,0.3,0.3,0.3,0.3,0.3,0.3,0.3,0" 
class="s8_50"
>moon cake features the Jade Rabbit, a companion </text>

<text 
x="528" 
y="589" 
dx="0,0.3,0.6,0.3,0.3,0.3,0.3,0.3,0.3,0.3,0.3,0.3,0.3,0.3,0.3,0.3,0.3,0.3,0.2,0.3,0.3,0.3,0.3,0.3,0.3,0.3,0.3" 
class="s8_50"
>of the moon goddess Chang'e</text>

<text 
x="884" 
y="1176" 
dx="0,0.4,0" 
class="s9_50"
>27 </text>



<!-- Any embedded fonts defined here -->
<style type="text/css" ><![CDATA[

@font-face {
	font-family: LibreFranklin-SemiBold_chd;
	src: url("fonts/LibreFranklin-SemiBold_chd.woff") format("woff");
}

@font-face {
	font-family: STKaiti-SC-Bold_cdn;
	src: url("fonts/STKaiti-SC-Bold_cdn.woff") format("woff");
}

@font-face {
	font-family: ZapfDingbatsITC_ckl;
	src: url("fonts/ZapfDingbatsITC_ckl.woff") format("woff");
}

@font-face {
	font-family: STKaiTi-TC-Bold_cdt;
	src: url("fonts/STKaiTi-TC-Bold_cdt.woff") format("woff");
}

@font-face {
	font-family: Athelas-Bold_cl1;
	src: url("fonts/Athelas-Bold_cl1.woff") format("woff");
}

@font-face {
	font-family: LibreFranklin-BoldItalic_clf;
	src: url("fonts/LibreFranklin-BoldItalic_clf.woff") format("woff");
}

@font-face {
	font-family: LibreFranklin-Medium_cey;
	src: url("fonts/LibreFranklin-Medium_cey.woff") format("woff");
}

@font-face {
	font-family: AvenirNextCondensed-DemiB_cks;
	src: url("fonts/AvenirNextCondensed-DemiB_cks.woff") format("woff");
}

]]></style>

</svg>
