<?xml version="1.0" encoding="UTF-8" standalone="no"?>
<!DOCTYPE svg PUBLIC "-//W3C//DTD SVG 1.1//EN"
"http://www.w3.org/Graphics/SVG/1.1/DTD/svg11.dtd">


<!-- Page 134 -->
<svg x="0" y="0" width="921" height="1196" viewBox="0 0 921 1196" version="1.1" xmlns="http://www.w3.org/2000/svg" xmlns:xlink="http://www.w3.org/1999/xlink"
style="display: block;margin-left: auto;margin-right: auto;">
<defs>
<clipPath id="c0_134"><path d="M199.3,842.6l0,-81.2l133.8,0l0,81.2Z" /></clipPath>
<clipPath id="c1_134"><path d="M380.7,847.1l0,-95.3l119.4,0l0,95.3Z" /></clipPath>
<clipPath id="c2_134"><path d="M197.1,1080l0,-132.9l89,0l0,132.9Z" /></clipPath>
<clipPath id="c3_134"><path d="M388.4,1074.1l0,-120l91.7,0l0,120Z" /></clipPath>

<style type="text/css"><![CDATA[

.g1_134{
fill: none;
stroke: #8F4198;
stroke-width: 2.2916667;
stroke-linecap: butt;
stroke-linejoin: miter;
}
.g2_134{
fill: none;
stroke: #872B91;
stroke-width: 1.5277778;
stroke-linecap: butt;
stroke-linejoin: miter;
stroke-miterlimit: 4;
}
.g3_134{
fill: none;
stroke: #872B91;
stroke-width: 0.5102778;
stroke-linecap: butt;
stroke-linejoin: miter;
stroke-miterlimit: 4;
}
.g4_134{
fill: none;
stroke: #872B91;
stroke-width: 0.7638889;
stroke-linecap: butt;
stroke-linejoin: miter;
stroke-miterlimit: 4;
}
.g5_134{
fill: #3B246D;
}
.g6_134{
fill: #FFFFFF;
}
.g7_134{
fill: none;
stroke: #231F20;
stroke-width: 0.15277778;
stroke-linecap: butt;
stroke-linejoin: miter;
}
.g8_134{
fill: #B97CB4;
}
.g9_134{
fill: #FEE7CB;
}
.g10_134{
fill: #D281B6;
}
.g11_134{
fill: #9859A4;
}
.g12_134{
fill: #C65DA3;
}
.g13_134{
fill: #EAEBEC;
}
.g14_134{
fill: none;
stroke: #939598;
stroke-width: 0.15277778;
stroke-linecap: butt;
stroke-linejoin: miter;
}
.g15_134{
fill: #D4D5D7;
}
.g16_134{
fill: #74BDE2;
}
.g17_134{
fill: #E5D1BC;
}
.g18_134{
fill: #7ACAF1;
}
.g19_134{
fill: none;
stroke: #A8A9AD;
stroke-width: 0.15277778;
stroke-linecap: butt;
stroke-linejoin: miter;
}
.g20_134{
fill: #698BB0;
}
.g21_134{
fill: #82B4E1;
}
.g22_134{
fill: #6FA7CB;
}
.g23_134{
fill: #06567A;
}
.g24_134{
fill: #6086BA;
}
.g25_134{
fill: none;
stroke: #231F20;
stroke-width: 0.16194445;
stroke-linecap: butt;
stroke-linejoin: miter;
}
.g26_134{
fill: #70D0F6;
}
.g27_134{
fill: #E7D3BA;
}
.g28_134{
fill: #57A5C4;
}
.g29_134{
fill: #615B26;
}
.g30_134{
fill: #ACB143;
}
.g31_134{
fill: #0A7467;
}
.g32_134{
fill: none;
stroke: #231F20;
stroke-width: 0.22916667;
stroke-linecap: butt;
stroke-linejoin: miter;
}
.g33_134{
fill: #C5E1F4;
}
.g34_134{
fill: #BDC9E6;
}
.g35_134{
fill: #ABCCEA;
}
.g36_134{
fill: #FEC845;
}
.g37_134{
fill: #FDD65D;
}
.g38_134{
fill: #FDCC8B;
}
.g39_134{
fill: none;
stroke: #231F20;
stroke-width: 0.19708335;
stroke-linecap: butt;
stroke-linejoin: miter;
}
.g40_134{
fill: #603812;
}
.g41_134{
fill: #AFB651;
}
.g42_134{
fill: #7D844A;
}
.g43_134{
fill: #9C877A;
}
.g44_134{
fill: #70585E;
}
.g45_134{
fill: #FBB040;
}
.g46_134{
fill: #55556A;
}
.g47_134{
fill: #4C5070;
}
.g48_134{
fill: #424C3F;
}
.g49_134{
fill: #656B5F;
}
.g50_134{
fill: #213222;
}
.g51_134{
fill: #872B91;
stroke: #B2B3B7;
stroke-width: 1.5277778;
stroke-linecap: butt;
stroke-linejoin: miter;
stroke-miterlimit: 4;
}

.s1_134{
font-size: 18.33px;
font-family: LibreFranklin-ExtraBold_cs2;
fill: #8F4198;
}
.s2_134{
font-size: 22.92px;
font-family: LibreFranklin-Bold_cru;
fill: #8F4198;
}
.s3_134{
font-size: 14.51px;
font-family: LibreFranklin-Regular_csl;
fill: #3F3F40;
}
.s4_134{
font-size: 25.97px;
font-family: STKaiti-SC-Regular_cf1;
fill: #3F3F40;
}
.s5_134{
font-size: 25.97px;
font-family: STKaiTi-TC-Regular_cev;
fill: #3F3F40;
}
.s6_134{
font-size: 15.28px;
font-family: LibreFranklin-ExtraBold_cs2;
fill: #872B91;
}
.s7_134{
font-size: 23.68px;
font-family: STKaiti-SC-Regular_cf1;
fill: #3F3F40;
}
.s8_134{
font-size: 9.55px;
font-family: LibreFranklin-Medium_cs0;
fill: #872B91;
}
.s9_134{
font-size: 13.75px;
font-family: LibreFranklin-Medium_cs0;
fill: #231F20;
}
.s10_134{
font-size: 13.75px;
font-family: LibreFranklin-SemiBold_ctv;
fill: #FFFFFF;
}

]]></style>

</defs>
<path d="M0,0
L0,1196
L921,1196
L921,0 Z " 
fill="#FFFFFF" stroke="none" />
<path d="M119.1,86.8l13.8,0" class="g1_134" />
<path d="M119.1,513l13.8,0" class="g1_134" />
<text 
x="119" 
y="83" 
dx="0" 
class="s1_134"
>C</text>

<text 
x="360" 
y="87" 
dx="0,-2.6,0,0,-0.1,-0.7,0,0,0,0,0,0,0,0,0,0,0,0" 
class="s2_134"
>You’ve been warned</text>

<text 
x="157" 
y="149" 
dx="0,-0.8,0,0,0,0,0,0,0,0,0,0,0,0,0,-0.2,0,0,0,0,0,0,0,0,-0.4,0,0,0,0,0,0,0,0,0,0,-0.4,0,0,0,0,0,0,0,0,0,0,0,0,0,0,0,0,0,0,0,0,0,0,0,0,0,0,0,0,0,0,-0.2,0,0,0,0,0,0,0,0,-0.1,0,0,0,0,0,0,0,0,0,0,0" 
class="s3_134"
>Warn a friend of the likely negative consequence if he/she fails to do something, e.g.:</text>

<text 
x="197" 
y="196" 
dx="0,0,0" 
class="s4_134"
>复习/</text>

<text 
x="262" 
y="196" 
dx="0,0" 
class="s5_134"
>復習</text>

<text 
x="157" 
y="242" 
dx="0,0,0,0,0,0,0,0,0,0,0,0,0,0,0,0" 
class="s4_134"
>你得复习，要不然考试会考得不好。</text>

<text 
x="157" 
y="289" 
dx="0,0,0,0,0,0,0,0,0,0,0,0,0,0,0,0" 
class="s5_134"
>你得復習，要不然考試會考得不好。</text>

<text 
x="168" 
y="336" 
dx="0,0.2" 
class="s6_134"
>1 </text>

<text 
x="197" 
y="336" 
dx="0,0" 
class="s4_134"
>锻炼</text>

<text 
x="249" 
y="338" 
dx="0" 
class="s7_134"
>/</text>

<text 
x="260" 
y="336" 
dx="0,0" 
class="s5_134"
>鍛煉</text>

<text 
x="168" 
y="384" 
dx="0,0.2" 
class="s6_134"
>2 </text>

<text 
x="197" 
y="384" 
dx="0,0,0,0,0" 
class="s4_134"
>注意饮食/</text>

<text 
x="313" 
y="384" 
dx="0,0,0,0" 
class="s5_134"
>注意飲食</text>

<text 
x="168" 
y="431" 
dx="0,0.2" 
class="s6_134"
>3 </text>

<text 
x="197" 
y="431" 
dx="0,0,0,0,0" 
class="s4_134"
>早睡早起/</text>

<text 
x="313" 
y="431" 
dx="0,0,0,0" 
class="s5_134"
>早睡早起</text>

<text 
x="119" 
y="509" 
dx="0" 
class="s1_134"
>D</text>

<text 
x="257" 
y="514" 
dx="0,0,0,0,0,0,0,0,0,0,0,0,0,0,0,0,0,0,0,0,0,0,0,0,0,-1,0,0,0,0,-0.4,0,0,0,0,0,0" 
class="s2_134"
>Chinese and American workout routines</text>

<text 
x="157" 
y="576" 
dx="0,0,0,0,0,0,0,0,0,0,0,0,0,0,0,0,0,0,0,0,0,0,0,0,0,0,0,0,0,0,0,0,0,0,0,-0.2,0,0,0,0,0" 
class="s3_134"
>Answer the question based on the prompts.</text>

<text 
x="157" 
y="621" 
dx="0,0,0,0,0,0,0,0,0,0,0,0,0,0,0,0" 
class="s4_134"
>中国人和美国人常常怎么锻炼身体？</text>

<text 
x="157" 
y="668" 
dx="0,0,0,0,0,0,0,0,0,0,0,0,0,0,0,0" 
class="s5_134"
>中國人和美國人常常怎麼鍛煉身體？</text>

<text 
x="197" 
y="715" 
dx="0,0,0,0" 
class="s4_134"
>中国人/</text>

<text 
x="287" 
y="715" 
dx="0,0,0" 
class="s5_134"
>中國人</text>

<text 
x="168" 
y="810" 
dx="0,0.2" 
class="s6_134"
>1 </text>

<text 
x="351" 
y="810" 
dx="0,0.2" 
class="s6_134"
>2 </text>

<text 
x="197" 
y="901" 
dx="0,0,0,0" 
class="s4_134"
>美国人/</text>

<text 
x="287" 
y="901" 
dx="0,0,0" 
class="s5_134"
>美國人</text>

<text 
x="168" 
y="1028" 
dx="0,0.2" 
class="s6_134"
>1 </text>

<text 
x="351" 
y="1028" 
dx="0,0.2" 
class="s6_134"
>2 </text>

<path d="M145.1,55.2l0,53.4l0,0.8l0.8,0l676.8,0l0.8,0l0,-0.8l0,-53.4l0,-0.8l-0.8,0l-676.8,0l-0.8,0l0,0.8Z" class="g2_134" />
<path d="M147.1,107.4l674.4,0l0,-51l-674.4,0l0,51Z" class="g3_134" />
<text 
x="720" 
y="84" 
dx="0,0,0,0,0,0,0,-1,-1,0,0,0,0,0" 
class="s8_134"
>PRESENTATIONAL</text>

<path d="M718.4,87.5l90.8,0l0,-14.5l-90.8,0l0,14.5Z" class="g4_134" />
<path d="M144.4,478.9l0,53.5l0,0.7l0.8,0l676.9,0l0.7,0l0,-0.7l0,-53.5l0,-0.8l-0.7,0l-676.9,0l-0.8,0l0,0.8Z" class="g2_134" />
<path d="M146.5,531.1l674.3,0l0,-50.9l-674.3,0l0,50.9Z" class="g3_134" />
<text 
x="724" 
y="511" 
dx="0,0,0,0,0,0,0,0,0,0,0,0,0" 
class="s8_134"
>INTERPERSONAL</text>

<path d="M719.9,514.2l90.9,0l0,-14.4l-90.9,0l0,14.4Z" class="g4_134" />
<path d="M215.9,821.8c0,0,0.2,0.9,-0.1,1.3c-0.3,0.5,-1,1,-1.3,1.2c-0.4,0.5,-0.8,0.9,-0.1,1.8c0.2,0.3,2.8,0,3.4,-0.4c0.7,-0.5,1.2,-1.3,1.7,-1.5l0.5,-0.1c0,0,0.9,-0.6,1,-0.6c0.1,-0.1,0.1,-1.8,0,-2c-0.1,-0.2,-5.1,0.3,-5.1,0.3Z" class="g5_134" />
<path d="M247.3,817.1c0,0,0.2,0.9,1,1.3c0.7,0.5,1.3,0.9,1.3,0.9c0,0,0,0.9,-1,1.3c-0.9,0.4,-2.1,0.4,-2.3,0.2c-0.1,-0.1,-1.5,-1.6,-1.5,-1.6c0,0,1.6,-2,2.5,-2.1Z" class="g6_134" />
<path d="M247.3,817.1c0,0,0.2,0.9,1,1.3c0.7,0.5,1.3,0.9,1.3,0.9c0,0,0,0.9,-1,1.3c-0.9,0.4,-2.1,0.4,-2.3,0.2c-0.1,-0.1,-1.5,-1.6,-1.5,-1.6c0,0,1.6,-2,2.5,-2.1Z" class="g7_134" />
<path d="M225.4,801c0,0,3,4.6,4.4,6.5c1.4,2,6.1,7.5,6.5,7.7c0.4,0.2,1.9,1.5,2.3,1.9c0.5,0.4,2.5,2.5,3.6,2.9c1.2,0.4,3.2,0.4,3.2,0.4c0,0,0,-0.6,0.1,-0.7c0,-0.1,0.8,-1.8,1.1,-2c0.3,-0.2,1.1,-0.2,1.3,-0.3C248,817.3,248,817,247.8,817c-0.2,-0.1,-1.9,-1.6,-2,-1.9c-0.1,-0.2,-0.8,-1.2,-1.3,-1.3c-0.5,-0.1,-0.4,-0.6,-0.7,-0.9c-0.3,-0.3,-1.5,-1.8,-1.8,-2.2c-0.4,-0.4,-1.1,-1.4,-1.4,-1.4c-0.2,-0.1,-0.7,-0.1,-0.7,-0.3c0,-0.2,-0.4,-0.3,-0.6,-0.6c-0.1,-0.2,0,-0.4,0,-0.4l-0.6,-0.1c0,0,0,-0.3,-0.3,-0.5c-0.2,-0.2,-0.5,-0.1,-0.6,-0.3c-0.1,-0.1,-0.5,-0.8,-0.8,-1.3c-0.3,-0.4,-0.6,-1,-0.8,-1.2c-0.1,-0.3,-1.3,-1.7,-1.6,-1.9c-0.3,-0.2,-0.9,-0.5,-0.9,-0.6c0,-0.1,-5,-4.7,-5.2,-4.8c-0.2,0,-4.4,1,-3.1,3.7Z" class="g8_134" />
<path d="M213.2,797.8c0,0,-0.1,3.3,-0.1,3.8c0.1,0.5,0.5,3.5,0.8,4.5c0.4,1,0.5,2.7,0.6,3.1c0.1,0.3,-0.4,0.8,-0.3,1.4c0,0.6,0.4,0.9,0.5,1.6c0.1,0.7,0.8,4.5,0.9,5.2c0,0.7,-0.4,4.6,-0.1,4.7c0.2,0.2,0.7,0.2,1.9,0.2c1.2,0,2,0.2,3.2,-0.2c1.2,-0.5,1.7,-0.9,1.5,-1.4c-0.2,-0.4,-1,-0.7,-0.9,-1c0.1,-0.4,0.1,-1,0.5,-1.7c0.5,-0.8,0.9,-1.4,0.6,-3c-0.3,-1.6,-2.2,-4.6,-2.4,-5.4c-0.3,-0.9,-0.5,-3.6,-0.2,-4.7c0.4,-1.2,-6.5,-7.1,-6.5,-7.1Z" class="g8_134" />
<path d="M227.5,807.1c0,0,0.1,0.8,-0.7,0.8c-0.7,0.1,-1.8,0.1,-2.6,0.2c-0.8,0,-1.1,0.4,-1.6,0.6c-0.5,0.2,-1.2,0.3,-0.7,0c0.4,-0.3,1.7,-1.2,1.7,-1.2c0,0,-0.9,0,-1.2,0.2c-0.2,0.1,-0.9,0.4,-1.3,0.6c-0.3,0.2,-0.9,0.2,-0.7,-0.1c0.2,-0.2,0.5,-0.5,0.9,-0.6c0.4,-0.2,0.8,-0.5,0.8,-0.5c0,0,-1.6,1.1,-2.1,1.1c-0.5,-0.1,-0.9,-0.2,-0.2,-0.6c0.6,-0.3,1.6,-0.9,1.9,-1c0.3,-0.1,1.1,-0.2,1.1,-0.2c0,0,-1.6,0.2,-1.9,0.3c-0.3,0.1,-0.9,0.3,-1,0.3c-0.1,0,-0.5,-0.3,0.5,-0.7c1,-0.5,1.7,-0.5,2.5,-0.6c0.7,-0.1,3.6,-0.3,3.6,-0.3l1,1.7Z" class="g7_134" />
<path d="M222.4,776.4l-1.4,2.3l1.5,3.2l6.1,-3.1l-1.3,-3Z" class="g9_134" />
<path d="M222.4,776.4l-1.4,2.3l1.5,3.2l6.1,-3.1l-1.3,-3l-4.9,0.6Z" class="g7_134" />
<path d="M205.8,762.3c0,0,-0.5,-0.6,-0.7,-0.7c-0.3,0,-3.8,-0.1,-4.1,-0.1c-0.2,0,-1.6,1.8,-1.7,2c0,0.2,0.4,2,0.6,2c0.2,0,0.4,-0.4,0.4,-0.4c0,0,0.3,0.5,0.5,0.5c0.1,-0.1,0.4,-0.3,0.4,-0.3c0,0,0,0.4,0.2,0.4c0.2,0.1,0.2,-0.3,0.4,-0.6c0.2,-0.4,0,-1.1,0.8,-1.1c0.8,0,1.5,-0.2,2,-0.2c0.5,0.1,1.2,-1.5,1.2,-1.5Z" class="g9_134" />
<path d="M205.8,762.3c0,0,-0.5,-0.6,-0.7,-0.7c-0.3,0,-3.8,-0.1,-4.1,-0.1c-0.2,0,-1.6,1.8,-1.7,2c0,0.2,0.4,2,0.6,2c0.2,0,0.4,-0.4,0.4,-0.4c0,0,0.3,0.5,0.5,0.5c0.1,-0.1,0.4,-0.3,0.4,-0.3c0,0,0,0.4,0.2,0.4c0.2,0.1,0.2,-0.3,0.4,-0.6c0.2,-0.4,0,-1.1,0.8,-1.1c0.8,0,1.5,-0.2,2,-0.2c0.5,0.1,1.2,-1.5,1.2,-1.5Z" class="g7_134" />
<path d="M201.5,762.6c0,0,-1,0.4,-1.1,0.6c-0.2,0.2,-0.2,1,-0.2,1l1.3,-1.6Z" class="g7_134" />
<path d="M202.7,763.3c0,0,-2.1,2.3,-2.4,1.8c0,0,-0.3,-0.3,-0.3,-0.7" class="g7_134" />
<path d="M222.5,779.9c0,0,0.1,-2.2,0,-2.7c-0.1,-0.4,-1.4,-3.3,-2.4,-4c-1,-0.8,-2.6,-1.6,-2.6,-1.6c0,0,0.1,-0.3,-0.9,-0.9c-0.9,-0.5,-1.7,-0.3,-1.7,-0.7c-0.1,-0.5,-0.9,-1,-1.4,-1.8c-0.6,-0.7,-1.9,-0.7,-2.1,-1.2c-0.1,-0.6,-0.5,-0.9,-0.5,-0.9l-1,-1c0,0,-1.1,-1.5,-1.5,-1.7c-0.5,-0.3,-1,-0.1,-1,-0.1l-1.5,-1.4c0,0,-1.1,0.9,-1.6,1.8c0.2,0.4,0.7,1,0.7,1c0,0,0.3,1.9,0.9,2.5c0.5,0.7,1,0.6,1.4,1.6c0.4,1,0.6,1.8,0.7,2.6c0.1,0.8,0.8,1.8,1.4,2.3c0.6,0.4,2.3,1.7,2.8,2.5c0.5,0.7,2.5,2,2.9,3.3c0.4,1.2,0.6,1.6,0.4,2.4c-0.2,0.7,-0.2,1.7,-0.2,2.5c-0.1,0.9,-0.4,2.6,-0.5,4.2c-0.1,1.7,-0.7,1.8,-1,3c-0.3,1.3,-0.4,1.9,-0.6,2.6c-0.2,0.7,-0.3,1.2,-0.4,2c-0.1,0.8,-0.7,1.8,-0.4,2.1c0.2,0.4,1.6,2.9,1.7,3.3c0,0.4,1.1,-1.2,1.1,-1.2c0,0,-0.5,5.7,-0.5,5.9c-0.1,0.1,1.9,-0.5,2.8,-0.4c0.5,0.1,1.4,0.5,2.6,0.4c1.3,-0.5,2.9,-0.9,3.8,-0.8c0.6,0,2,-0.2,2,-0.2c1,-0.8,1.1,-2.9,1,-3.8c0,-1.1,0.2,-2.9,0.3,-3c0.1,-0.2,0.9,0.5,1.5,0.8c0.5,0.3,0.6,0.5,0.6,0.5c0,0,-1.4,0.4,-1.7,1.1c-0.4,0.7,-0.3,1.1,-0.4,1.7c0,0.7,-0.4,1.7,-0.8,2.2c-0.5,0.5,-0.6,0.7,-0.6,0.7l1.5,2.3l1.5,-1.4c0,0,1.1,1,1.3,1c0.1,0,1.6,-2.2,2.4,-3.4c0.8,-1.1,1.1,-2.1,1.6,-4.1c0.5,-2.1,0.5,-2.9,0.4,-4.2c-0.2,-1.3,-0.8,-5.2,-1,-6.9c-0.1,-1.7,-1.3,-5.2,-1.8,-6.6c-0.5,-1.4,-1.8,-2.2,-2.7,-3c-0.9,-0.8,-1.3,-1.4,-1.3,-1.4c0,0,-0.5,1.4,-1.8,1.4c-1.3,0.1,-1.4,-0.1,-2.2,0.1c-0.7,0.2,-1.2,0.6,-1.2,0.6Z" class="g10_134" />
<path d="M222.5,779.9c0,0,-3.8,7.4,-4.3,8.9c-0.5,1.4,-1.7,4.9,-1.8,5.7c-0.2,0.8,-1.2,5.9,-1.2,5.9" class="g7_134" />
<path d="M219.6,781.6l0,0.5c0,0,0.4,0,0.8,0.3c0.4,0.2,1.2,1,1.5,1.4c0.3,0.5,1,1.4,1.2,1.3c0.2,0,0.4,-0.2,0.1,-0.6c-0.4,-0.3,-1.7,-1.9,-2.2,-2.2c-0.4,-0.4,-1.4,-0.7,-1.4,-0.7Z" class="g11_134" />
<path d="M218.1,784.7c0,0,-0.2,0.3,0,0.4c0.3,0.1,0.8,0.3,1.2,0.6c0.9,0.4,2.4,2.1,2.4,2.1c0,0,0.3,-0.1,0.2,-0.3c-0.2,-0.3,-2,-2,-2.5,-2.2c-0.2,-0.2,-1.3,-0.6,-1.3,-0.6Z" class="g11_134" />
<path d="M216.8,788c0,0,-0.2,0.2,0,0.3c0,0,1.2,0.7,1.7,1c0.6,0.3,2,1.5,2.1,1.5c0.1,-0.1,0.2,-0.3,0.1,-0.4c-0.1,-0.1,-2.1,-1.7,-2.4,-1.8c-0.4,-0.2,-1.5,-0.6,-1.5,-0.6Z" class="g11_134" />
<path d="M215.8,791c0,0,-0.2,0.4,-0.1,0.5c0.1,0.2,1,0.4,1.4,0.7c0.5,0.3,1.7,0.8,2.2,1.1c0.4,0.2,1,0.5,1,0.1c-0.1,-0.3,-0.3,-0.2,-1,-0.5c-0.6,-0.3,-1.7,-0.7,-2,-0.9c-0.3,-0.3,-1.5,-1,-1.5,-1Z" class="g11_134" />
<path d="M215,794c-0.1,0.1,-0.2,0.3,-0.1,0.4c0.1,0.1,0.6,0.2,1,0.5c0.4,0.3,0.4,0.3,1.1,0.7c0.7,0.4,1.6,1,1.9,0.9c0.3,0,0.5,-0.1,0.3,-0.3c-0.3,-0.1,-0.5,-0.1,-1.2,-0.5c-0.7,-0.3,-1.4,-0.8,-1.8,-1C215.9,794.4,215,794,215,794Z" class="g11_134" />
<path d="M214.4,797c-0.2,0,-0.4,0.2,-0.3,0.4c0.1,0.2,1.5,1.1,1.8,1.2c0.2,0.2,0.6,0.3,1.2,0.7c0.6,0.3,1.1,0.4,1,0.1c-0.1,-0.2,-2,-0.9,-2.6,-1.4c-0.6,-0.5,-1.1,-1,-1.1,-1Z" class="g11_134" />
<path d="M230.1,785.3c0,0,-0.9,3.9,-0.8,5c0.1,1.2,-0.1,1.4,0.1,3.1c0.1,1.8,0.3,2.5,0.3,3.8c-0.1,1.3,-0.2,2.6,-0.4,2.6" class="g7_134" />
<path d="M217.6,811.6c0,0.1,-0.3,0.7,0.7,3.1c1,2.4,2.9,5,2.9,5c-0.2,-0.3,0.4,-1.2,0.2,-2c-0.2,-0.9,-1.1,-2.4,-1.9,-3.8c-0.8,-1.4,-1.5,-3.3,-1.9,-2.3Z" class="g11_134" />
<path d="M215.6,817.4c0.2,-0.1,0.9,-1.4,0.9,-3.2c-0.1,-1.9,0,-3,-0.2,-3c-0.1,0.1,-0.4,2.3,-0.3,3.1c0,0.7,-0.4,3.1,-0.4,3.1Z" class="g11_134" />
<path d="M214.9,808.6c0.3,0.1,0.9,0.6,1.8,0.3c0.9,-0.2,2.4,-1.1,2.5,-1.1c0.1,0.1,0.8,3,1.4,3.6c0.6,0.6,-1,0.4,-1.3,-0.2c-0.3,-0.6,-0.7,-1.6,-1.4,-1.6c-0.6,0,-1.2,-0.2,-2.1,-0.1c-0.8,0,-1,1.8,-1.2,1.6c-0.1,-0.3,0,-0.9,0.1,-1.4c0.1,-0.6,-0.4,-1.2,0.2,-1.1Z" class="g11_134" />
<path d="M229.6,803c-0.2,-0.1,-0.7,-0.8,-0.5,-1.1c0.5,0,1.2,-0.8,1.3,-0.5c-0.4,0.6,-0.5,1.6,-0.8,1.6m3.8,-4.2c-0.2,0.1,-0.8,1.3,-1.9,1.7c-1.2,0.4,-2.9,0.2,-3.3,0.4c-0.4,0.3,-0.1,0.5,0.4,1c0.6,0.4,0.5,1.3,0.9,1.2c0.3,0,0.8,0.3,1.4,0.2c0.7,-0.1,1,-0.2,1.3,-1.2c0.3,-1,1.4,-2.2,1.6,-2.6c0.1,-0.5,-0.3,-0.9,-0.4,-0.7Z" class="g12_134" />
<path d="M209.5,765.1c0,0,-0.2,0,-0.8,0c-0.7,0,-1,0.3,-1.6,0.7c-0.6,0.4,-1.4,1.2,-1.2,1.4c0.1,0.3,0.5,-0.3,0.6,-0.4c0.2,0,0.8,0.5,1.1,1.1c0.4,0.7,0.6,3,0.6,3.4c0.1,0.3,0.1,1,1,1.6c0.8,0.7,4.7,4.7,5.2,5.2c0.5,0.4,1.5,2.8,1.9,2.4c0.4,-0.3,-0.5,-1.6,-0.8,-2.3c-0.2,-0.7,-0.2,-1.9,-2,-3.2c-1.8,-1.4,-3.7,-2.8,-3.7,-3.8c0,-1.1,0.2,-1.9,0.3,-2.4c0.1,-0.5,0.6,-0.6,-0.2,-1.2c-0.8,-0.5,-1.6,-1.6,-2.1,-1.5c-0.4,0,-0.9,0.4,-0.7,0.1c0.2,-0.4,0.6,-0.7,1.2,-0.7c0.7,-0.1,1.1,-0.2,1.2,0.3c0.2,0.4,1,0.5,1,1.2c0.1,0.7,0.2,1,0.6,0.7c0.4,-0.3,0.1,-0.7,0,-1.1c-0.2,-0.3,-1.6,-1.5,-1.6,-1.5Z" class="g12_134" />
<path d="M235.1,803.5c-0.1,-0.1,-0.4,-0.2,-1.1,0c-0.6,0.1,-0.8,0.2,-0.5,-0.2c0.4,-0.3,1.1,-0.2,1.1,-0.4c-0.1,-0.1,-0.7,-0.3,-0.9,-0.3c-0.2,0,-1.6,1.7,-0.9,1.5c0.7,-0.1,1.2,-0.2,1.9,-0.2c0.7,0,0.4,-0.4,0.4,-0.4Z" class="g11_134" />
<path d="M236,804.9c-0.5,-0.2,-1.6,0,-2.4,-0.1c-0.8,-0.1,-1.3,-0.3,-1.2,0c0.1,0.2,0.8,0.3,1.3,0.3c0.6,0,1.3,0.2,2,0.2c0.7,0.1,0.7,-0.3,0.3,-0.4Z" class="g11_134" />
<path d="M236.5,805.6c-0.3,-0.1,-2,0.2,-2.6,0.1c-0.5,-0.1,-0.6,-0.2,-1.1,-0.1c-0.5,0,-1.2,0.1,-0.9,0.2c0.3,0.2,0.7,0,1.3,0c0.5,0.1,0.7,0.3,1.9,0.3c1.1,0,1.9,-0.3,1.4,-0.5Z" class="g11_134" />
<path d="M237.5,813.8c-0.1,-0.1,0.9,1,2.5,1.6c1.6,0.6,2.5,0.5,2.5,0.5c0,0,-4.8,-1.7,-5,-2.1Z" class="g11_134" />
<path d="M238.7,813.8c0.1,0,1.1,1.1,3.2,1.4c2,0.3,3.9,-0.1,3.9,-0.1c0,0,-0.5,-0.6,-1.3,-1c-0.7,-0.3,-0.6,-0.3,-2.1,-0.2c-1.5,0,-3.7,-0.1,-3.7,-0.1Z" class="g11_134" />
<path d="M239.1,816.9c0.1,0.1,0.9,1.4,2.8,1.9c1.8,0.5,2.3,0.7,2.9,0.4c0.6,-0.2,1,-0.6,0.9,-0.6c-0.1,0,-2,0.1,-1.3,-0.2c0.7,-0.2,1.2,0,1.2,-0.3c-0.1,-0.2,-0.4,-0.4,-1.1,-0.4c-0.7,0.1,-0.3,0.4,-1.6,0.3c-1.3,0,-3.8,-1.1,-3.8,-1.1Z" class="g11_134" />
<path d="M241.5,816.7c-0.1,-0.1,3.8,0.6,4.4,0.6c0.5,0,0.3,0.3,0,0.3c-0.3,-0.1,-3.9,-0.6,-4.4,-0.9Z" class="g11_134" />
<path d="M245.9,820.4c0,0,0,0.7,0.1,1.4c0,0.6,-0.1,0.9,0.3,0.9c0.4,0,1.2,0,2.4,0.1c1.3,0,0.9,0,2.1,0.3c1.2,0.4,2.6,0.5,3.5,0.2c0.9,-0.2,1.3,-0.6,1.1,-1.2c-0.1,-0.6,0,-0.3,-0.8,-0.6c-0.9,-0.2,-1.7,-0.6,-2,-0.8c-0.4,-0.3,-2.9,-1.7,-3,-1.7c-0.2,0,-0.3,-0.1,-0.7,0.4c-0.4,0.4,-0.7,0.9,-1,1c-0.4,0.2,-1.7,0.5,-2,0Z" class="g5_134" />
<path d="M226.1,768c0,0,-1.7,-0.4,-3.4,1.2c-1.8,1.5,-2.6,7.9,1.1,9.1c3.7,1.2,5.7,-2.5,5.7,-4.2c0.1,-1.6,0.8,-5.5,-3.4,-6.1Z" class="g9_134" />
<path d="M226.1,768c0,0,-1.7,-0.4,-3.4,1.2c-1.8,1.5,-2.6,7.9,1.1,9.1c3.7,1.2,5.7,-2.5,5.7,-4.2c0.1,-1.6,0.8,-5.5,-3.4,-6.1Z" class="g7_134" />
<path d="M219.6,777.5c0,0,-0.6,0.3,-0.5,0.8c0.1,0.4,0.3,0.5,1.3,1.1c0.9,0.6,1.3,0.4,1.6,-0.1c0.3,-0.5,1,-0.9,0.4,-1.8c-0.5,-0.8,-0.8,-1.7,-0.9,-2.6c-0.2,-1,-0.2,-1.3,0.1,-2.1c0.4,-0.8,0.6,-1.5,0.9,-2.1c0.3,-0.5,0.2,-1.4,1.2,-1.7c1,-0.2,1.2,-0.5,1.9,-0.3c0.8,0.3,1.3,0.1,1.7,0.3c0.5,0.3,0.8,0.5,1.1,0.9c0.2,0.3,0,0.8,0.3,1.3c0.3,0.5,0.7,0.7,0.8,1.2c0.2,0.6,0.2,1.4,0,1.7c-0.1,0.4,-0.5,2.2,-0.9,2.7c-0.3,0.5,-0.1,-0.4,-0.3,0.5c-0.2,1,-0.4,1.3,-0.1,1.6c0.3,0.4,0.4,1,1.1,0.5c0.7,-0.5,1.3,-0.3,1.6,-1.2c0.3,-0.9,0.1,-3.2,0.3,-4.1c0.3,-0.8,0.2,-2,-0.1,-2.8c-0.3,-0.9,-1.2,-3,-1.6,-3.7c-0.5,-0.8,-1.1,-1.1,-2.2,-1.5c-1,-0.5,-1,-0.5,-2,-0.5c-0.9,0,-1.5,0.1,-2.1,0.4c-0.6,0.3,-1.1,0.7,-1.5,1.2c-0.4,0.5,-1.1,1.3,-1.3,1.8c-0.1,0.6,-0.5,2.9,-1,3.4c-0.4,0.4,-0.5,2.2,-0.6,2.6c-0.1,0.3,0.2,2,0.8,2.5Z" class="g13_134" />
<path d="M219.6,777.5c0,0,-0.6,0.3,-0.5,0.8c0.1,0.4,0.3,0.5,1.3,1.1c0.9,0.6,1.3,0.4,1.6,-0.1c0.3,-0.5,1,-0.9,0.4,-1.8c-0.5,-0.8,-0.8,-1.7,-0.9,-2.6c-0.2,-1,-0.2,-1.3,0.1,-2.1c0.4,-0.8,0.6,-1.5,0.9,-2.1c0.3,-0.5,0.2,-1.4,1.2,-1.7c1,-0.2,1.2,-0.5,1.9,-0.3c0.8,0.3,1.3,0.1,1.7,0.3c0.5,0.3,0.8,0.5,1.1,0.9c0.2,0.3,0,0.8,0.3,1.3c0.3,0.5,0.7,0.7,0.8,1.2c0.2,0.6,0.2,1.4,0,1.7c-0.1,0.4,-0.5,2.2,-0.9,2.7c-0.3,0.5,-0.1,-0.4,-0.3,0.5c-0.2,1,-0.4,1.3,-0.1,1.6c0.3,0.4,0.4,1,1.1,0.5c0.7,-0.5,1.3,-0.3,1.6,-1.2c0.3,-0.9,0.1,-3.2,0.3,-4.1c0.3,-0.8,0.2,-2,-0.1,-2.8c-0.3,-0.9,-1.2,-3,-1.6,-3.7c-0.5,-0.8,-1.1,-1.1,-2.2,-1.5c-1,-0.5,-1,-0.5,-2,-0.5c-0.9,0,-1.5,0.1,-2.1,0.4c-0.6,0.3,-1.1,0.7,-1.5,1.2c-0.4,0.5,-1.1,1.3,-1.3,1.8c-0.1,0.6,-0.5,2.9,-1,3.4c-0.4,0.4,-0.5,2.2,-0.6,2.6c-0.1,0.3,0.2,2,0.8,2.5Z" class="g14_134" />
<path d="M283.8,830.3c0,0,-0.7,-0.1,-0.9,0.1c-0.3,0.1,-0.4,0.8,0.7,0.7c1,-0.2,0.2,-0.8,0.2,-0.8Z" class="g9_134" />
<path d="M283.8,830.3c0,0,-0.7,-0.1,-0.9,0.1c-0.3,0.1,-0.4,0.8,0.7,0.7c1,-0.2,0.2,-0.8,0.2,-0.8Z" class="g7_134" />
<path d="M323.2,830.3c0,0,2.7,2.6,3,3c0.4,0.3,0.3,1.4,0.1,1.7c-0.2,0.3,-2.2,0.8,-2.2,0.8L322.5,834Z" class="g15_134" />
<path d="M289.2,826.8c0,0,0,0.8,-0.5,0.9c-0.5,0.2,-0.8,0.6,-1.5,0.7c-0.7,0.1,-1.5,0.9,-1.7,0.9c-0.2,0.1,-0.8,0.1,-1,0.3c-0.2,0.2,-1.2,1.3,-1.2,1.5c-0.1,0.2,0.4,0.5,0.7,0.3c0.3,-0.1,0.7,-0.3,0.9,-0.6c0.3,-0.4,0.6,-0.7,1,-0.9c0.3,-0.2,1,-0.7,1,-0.7c0,0,-1.4,0.9,-1.7,2c-0.3,1.1,0.2,0.9,0.5,0.8c0.2,-0.1,0.5,-0.5,0.9,-1c0.4,-0.5,0.7,-0.9,0.9,-1.1c0.3,-0.1,0.9,-0.5,0.9,-0.5c0,0,-2.3,1.9,-1.9,2.6c0.4,0.6,1.3,-0.5,1.4,-0.6c0.2,-0.1,1.2,-0.7,1.3,-0.8c0.2,-0.2,0.7,-0.8,0.7,-0.8c0,0,-0.8,1.2,-0.9,1.5c-0.1,0.2,0.3,0.6,0.7,0.5c0.3,0,0.7,-0.8,1,-1c0.2,-0.1,0.9,-0.3,1.3,-0.6c0.4,-0.4,0.9,-2.1,0.9,-2.6c0.1,-0.5,-3.7,-0.8,-3.7,-0.8Z" class="g9_134" />
<path d="M289.2,826.8c0,0,0,0.8,-0.5,0.9c-0.5,0.2,-0.8,0.6,-1.5,0.7c-0.7,0.1,-1.5,0.9,-1.7,0.9c-0.2,0.1,-0.8,0.1,-1,0.3c-0.2,0.2,-1.2,1.3,-1.2,1.5c-0.1,0.2,0.4,0.5,0.7,0.3c0.3,-0.1,0.7,-0.3,0.9,-0.6c0.3,-0.4,0.6,-0.7,1,-0.9c0.3,-0.2,1,-0.7,1,-0.7c0,0,-1.4,0.9,-1.7,2c-0.3,1.1,0.2,0.9,0.5,0.8c0.2,-0.1,0.5,-0.5,0.9,-1c0.4,-0.5,0.7,-0.9,0.9,-1.1c0.3,-0.1,0.9,-0.5,0.9,-0.5c0,0,-2.3,1.9,-1.9,2.6c0.4,0.6,1.3,-0.5,1.4,-0.6c0.2,-0.1,1.2,-0.7,1.3,-0.8c0.2,-0.2,0.7,-0.8,0.7,-0.8c0,0,-0.8,1.2,-0.9,1.5c-0.1,0.2,0.3,0.6,0.7,0.5c0.3,0,0.7,-0.8,1,-1c0.2,-0.1,0.9,-0.3,1.3,-0.6c0.4,-0.4,0.9,-2.1,0.9,-2.6c0.1,-0.5,-3.7,-0.8,-3.7,-0.8Z" class="g7_134" />
<path d="M270.8,834.1c0,0,1.5,1.6,1.4,2.2c0,0.5,-2.3,2.2,-3,2.1c-0.7,0,-2.7,-1.3,-2.7,-1.3l0.6,-2.2Z" class="g15_134" />
<path d="M293,815.4c0,0,1.4,0.5,2.7,1.4c1.2,1,1.9,1.5,3.4,2.4c1.5,0.9,3.5,1.7,4.3,1.9c0.7,0.2,1.2,0.2,1.8,0.4c0.5,0.2,0.6,0.4,1.3,0.8c0.7,0.3,2.1,0.7,2.7,0.8c0.5,0,2.2,0.7,3.1,1.2c0.9,0.4,4.1,2.5,5,3c1,0.5,1.6,1.6,2.4,1.6c0.7,0,2.6,0,3.2,0.4c0.6,0.3,1,0.8,1.1,1.5c0.1,0.8,-0.1,2.5,-0.4,3.1c-0.4,0.6,-2,2.2,-2.7,2.2c-0.6,0,-1.9,-0.1,-3.1,-0.2c-1.2,-0.2,-2.9,-0.9,-4.1,-1.2c-1.2,-0.4,-3,-0.8,-4.4,-1.4c-1.5,-0.7,-5.5,-3.1,-6.8,-3.6c-1.4,-0.6,-3.3,-1.1,-5,-1.5c-1.6,-0.3,-3.7,-1.1,-4.6,-1.4c-0.9,-0.4,-6.1,-1.7,-6.7,-2.5c-0.5,-0.8,6.8,-8.9,6.8,-8.9Z" class="g16_134" />
<path d="M264,814.8c0,0,-2.8,1.2,-4.2,1.8c0,0,-3.4,0.9,-4.3,3.1c-0.9,2.2,-0.3,3.7,-0.1,4.6c0.3,0.9,2.6,3.8,4,5.7c1.3,1.8,5.9,5.4,6.2,5.6c0.3,0.1,0.7,-0.1,1.2,0.1c0.5,0.2,0.9,0.6,1.6,0.6c0.6,0,0.9,-0.1,1.5,-0.2c0.6,-0.1,1.1,-0.4,1.3,-0.8c0.3,-0.5,0.3,-0.8,0.6,-1.1c0.4,-0.3,-0.2,-0.6,-0.2,-1.6c0,-0.9,-0.2,-0.8,-0.8,-1.4c-0.6,-0.6,-2.1,-1.1,-2.1,-1.1c0,0,0.1,-1.7,-0.1,-1.8c-0.2,-0.2,-1.2,-0.7,-1.2,-0.7c0,0,0.1,-1.9,0,-2.4c0,-0.4,-0.2,-0.6,0.1,-0.6c0.4,0,2.6,0.1,2.6,0.1c0,0,0.8,-5.9,-0.7,-8c-1.5,-2.1,-5.4,-1.9,-5.4,-1.9Z" class="g16_134" />
<path d="M269.3,823.5c0,0,-0.2,1.6,0.2,2.1c0.3,0.5,1.5,1.5,1.6,1.9c0.1,0.3,-0.1,1.1,-0.1,1.1c0,0,0.7,-1.1,1,-2.2c0.3,-1.2,0.2,-2.2,0.6,-2.6c0.4,-0.3,1.4,-0.3,1.4,-0.3L273.6,821Z" class="g16_134" />
<path d="M269.3,784.8L269,787l3.4,6c0,0,4.1,-3.1,4,-3.2c0,-0.2,-0.3,-1.8,-0.3,-2.1c0,-0.3,-6.8,-2.9,-6.8,-2.9Z" class="g9_134" />
<path d="M269.3,784.8L269,787l3.4,6c0,0,4.1,-3.1,4,-3.2c0,-0.2,-0.3,-1.8,-0.3,-2.1c0,-0.3,-6.8,-2.9,-6.8,-2.9Z" class="g7_134" />
<path d="M228.3,782.4c0,0,-0.9,1,-0.8,1.3c0.1,0.3,0.7,3.1,1,3.5c0.3,0.3,0.5,0.4,0.6,0c0.1,-0.3,0.2,-0.4,0.5,-0.2c0.3,0.2,0.7,0.5,0.8,0.1C230.5,786.7,230,786,230,786c0,0,0.9,1.2,1.2,1c0.3,-0.2,-0.5,-1.1,-0.9,-1.6C230,784.8,230,784,230,784c0,0,1.1,1.2,1.5,1.6c0.4,0.5,0.8,0.1,0.5,-0.3c-0.4,-0.5,-1.4,-2,-1.5,-2.1c-0.1,-0.2,-2.2,-0.8,-2.2,-0.8Z" class="g17_134" />
<path d="M228.3,782.4c0,0,-0.9,1,-0.8,1.3c0.1,0.3,0.7,3.1,1,3.5c0.3,0.3,0.5,0.4,0.6,0c0.1,-0.3,0.2,-0.4,0.5,-0.2c0.3,0.2,0.7,0.5,0.8,0.1C230.5,786.7,230,786,230,786c0,0,0.9,1.2,1.2,1c0.3,-0.2,-0.5,-1.1,-0.9,-1.6C230,784.8,230,784,230,784c0,0,1.1,1.2,1.5,1.6c0.4,0.5,0.8,0.1,0.5,-0.3c-0.4,-0.5,-1.4,-2,-1.5,-2.1c-0.1,-0.2,-2.2,-0.8,-2.2,-0.8Z" class="g7_134" />
<path d="M232.5,779.3c0,0,-1.5,0,-1.7,0.1c-0.3,0.1,-1.5,0.6,-1.9,0.9c-0.4,0.2,-2,0.9,-2.1,1.4c-0.1,0.4,0.4,3.1,0.6,3.8c0.3,0.7,0.3,1.5,0.6,1.4c0.3,0,0.5,-0.5,0.5,-1c0,-0.5,-0.3,-0.5,-0.3,-1.2c0,-0.6,-0.2,-1.4,0.1,-1.6c0.3,-0.2,0.8,0.1,0.8,0.5c0.1,0.4,0.2,0.7,0,1.2c-0.1,0.5,-0.4,1.9,0.1,2c0.5,0.1,0.6,-0.1,0.8,-0.8c0.3,-0.7,0.3,-1.6,0.9,-2c0.6,-0.4,1.9,-2.1,2,-2.3c0.1,-0.1,-0.4,-2.4,-0.4,-2.4Z" class="g9_134" />
<path d="M232.5,779.3c0,0,-1.5,0,-1.7,0.1c-0.3,0.1,-1.5,0.6,-1.9,0.9c-0.4,0.2,-2,0.9,-2.1,1.4c-0.1,0.4,0.4,3.1,0.6,3.8c0.3,0.7,0.3,1.5,0.6,1.4c0.3,0,0.5,-0.5,0.5,-1c0,-0.5,-0.3,-0.5,-0.3,-1.2c0,-0.6,-0.2,-1.4,0.1,-1.6c0.3,-0.2,0.8,0.1,0.8,0.5c0.1,0.4,0.2,0.7,0,1.2c-0.1,0.5,-0.4,1.9,0.1,2c0.5,0.1,0.6,-0.1,0.8,-0.8c0.3,-0.7,0.3,-1.6,0.9,-2c0.6,-0.4,1.9,-2.1,2,-2.3c0.1,-0.1,-0.4,-2.4,-0.4,-2.4Z" class="g7_134" />
<path d="M231.8,779.1c0,0,-0.2,0.5,0.1,1.3c0.3,0.8,0.6,2.2,0.6,2.2l1.8,0c0,0,-0.3,1.5,1.5,3.3c1.7,1.7,4.9,3.8,6.3,4.5c1.4,0.7,1.6,0.8,2.5,1.3c0.9,0.6,3.6,2.1,5.1,2.8c1.4,0.8,5.7,2.4,6,2.4c0.3,0.1,0.5,0,0.5,0c0,0,-0.1,0.7,0.8,1.1c0.9,0.3,1.4,0.3,1.4,0.3c0,0,0.7,1.2,1.2,1.2c0.6,0,0.7,0,0.9,0.2c0.2,0.2,0.7,0.9,1,1.5c0.4,0.7,0.7,1.4,0.7,2.2c0,0.9,0.9,2.3,0.9,2.3c0,0,-0.1,6.3,0,6.7c0.1,0.3,-0.1,0.5,-0.2,0.8c-0.1,0.2,0.5,1.6,0.3,1.9c-0.2,0.3,0.8,-0.2,1.3,0c1.2,0.4,0.9,0.7,1.5,1.5c0.6,0.7,2.9,2.9,2.9,2.9c0,0,-0.3,3.9,0.2,5.1c0.3,-0.1,1.2,-1.3,1.9,-1.5c0.8,-0.3,2.2,-1.5,2.2,-1.5c0,0,0.3,2.1,0.4,2.9c0.2,0.7,0.1,0.9,0.3,2c0.2,1,0.4,2.1,0.4,2.3c0,0.3,-0.4,4.3,-0.4,4.3c0,0,1.1,0.3,2.2,-0.2c1,-0.4,2.3,-1.3,3.3,-2c0.9,-0.7,1.6,-0.9,3.1,-2.2c1.5,-1.3,4.7,-4.1,4.7,-4.1c0,0,0.5,1.4,0.8,1.9c0.3,0.4,0.9,0.8,0.9,0.8c0,0,0.7,-0.1,2.1,-0.1c1.4,0.1,2,1,2,1l0.9,-1.4c0,0,0.5,0.7,0.8,-0.1c0.2,-0.8,0.6,-1.8,0.4,-2.3c-0.1,-0.5,-0.2,-0.6,-0.4,-1.3c-0.1,-0.7,-0.1,-3.3,0,-3.8c0.1,-0.5,0.2,-1.3,-0.2,-2.1c-0.5,-0.7,-0.7,-1.1,-0.6,-1.9c0,-0.7,0.3,-2.5,-0.1,-3.1c-0.4,-0.6,-1.2,-0.7,-1.2,-1.5c0,-0.8,-2.6,-6.7,-3.4,-9.2c-0.8,-2.5,-1.2,-4.1,-2.5,-6.1c-1.3,-2,-4.9,-5.4,-6.1,-6.4c-1.2,-1,-2.6,-1.6,-2.6,-1.6c0,0,-0.6,1.2,-0.7,1.3c-0.1,0,-0.7,0.4,-1.8,0.7c-1.1,0.4,-3.3,1.7,-3.3,1.7c0,0,-2.5,-3.8,-2.6,-4c-0.1,-0.2,-0.5,-2.5,-1.1,-2.6c-0.6,-0.2,-2,1.3,-2.6,1.4c-0.6,0,-3.5,-0.2,-4.9,-0.3c-1.4,0,-2,-0.5,-2.4,-0.3c-0.4,0.1,-0.3,0.3,-1.1,0.3c-0.8,-0.1,-3.8,0.2,-4.1,-0.1c-0.2,-0.2,-1,-0.9,-1.7,-1.1c-0.8,-0.2,-3.3,-1,-3.7,-1.2c-0.4,-0.3,-3.8,-1.8,-4.8,-2.2c-1.1,-0.3,-2.9,-1.3,-3.5,-1.4c-0.6,-0.1,-3.4,-0.8,-4.1,-1c-0.7,-0.3,-0.8,-0.3,-1.7,-0.2c-0.9,0.2,-2.1,0.7,-2.1,0.7Z" class="g18_134" />
<path d="M274.5,774.2c0,0,2.7,0,3.9,2.9c1.2,2.9,1.1,5.9,0.9,7.1c-0.1,1.3,-1,4.2,-2,4.5c-0.9,0.2,-1,0.5,-3.2,0.2c-2.2,-0.3,-4.6,-2.9,-4.8,-3.1c-0.2,-0.3,-0.7,-0.2,-1,-0.5c-0.7,-0.5,-1,-1.4,-0.8,-2.6c0.2,-1.3,-0.3,-6.3,1.9,-7.2c2.1,-1,3.4,-1.6,5.1,-1.3Z" class="g9_134" />
<path d="M274.5,774.2c0,0,2.7,0,3.9,2.9c1.2,2.9,1.1,5.9,0.9,7.1c-0.1,1.3,-1,4.2,-2,4.5c-0.9,0.2,-1,0.5,-3.2,0.2c-2.2,-0.3,-4.6,-2.9,-4.8,-3.1c-0.2,-0.3,-0.7,-0.2,-1,-0.5c-0.7,-0.5,-1,-1.4,-0.8,-2.6c0.2,-1.3,-0.3,-6.3,1.9,-7.2c2.1,-1,3.4,-1.6,5.1,-1.3Z" class="g7_134" />
<path d="M270.2,784.2c0.1,-0.2,0,-2,0.3,-2.5c0.3,-0.5,0.9,-1.4,0.9,-2.1c-0.1,-0.8,-0.7,-2.4,0.3,-2.4c0.9,0,1.1,0.5,1.6,0.3c0.5,-0.2,0.9,-0.9,1.5,-1c0.5,-0.1,0.7,0.2,1.1,-0.2c0.5,-0.4,0.8,-0.7,0.8,-0.7c0,0,0.8,-0.1,2.2,3.1c0.3,-0.4,0.4,-1.4,0.3,-1.8c-0.1,-0.3,-0.2,-1.2,-0.2,-1.7c-0.1,-0.4,-1.6,-1.2,-2,-1.2c-0.4,-0.1,0.2,-0.7,-0.3,-0.7c-0.5,-0.1,-1.3,0,-1.9,-0.1C274.2,773,272,772.9,271.3,773c-0.7,0,-2.8,1.4,-3,1.7c-0.1,0.3,-1,1.8,-1.3,2.2c-0.2,0.5,-0.3,1.4,-0.3,2.1c0.1,0.6,-0.2,1.8,0.1,2.5c0.2,0.6,0.8,2.2,0.8,2.2c0,0,-0.2,-1.6,0.4,-1.5c0.5,0.2,0.5,0.5,1.1,0.5c0.6,0.1,1.1,1.5,1.1,1.5Z" class="g13_134" />
<path d="M270.2,784.2c0.1,-0.2,0,-2,0.3,-2.5c0.3,-0.5,0.9,-1.4,0.9,-2.1c-0.1,-0.8,-0.7,-2.4,0.3,-2.4c0.9,0,1.1,0.5,1.6,0.3c0.5,-0.2,0.9,-0.9,1.5,-1c0.5,-0.1,0.7,0.2,1.1,-0.2c0.5,-0.4,0.8,-0.7,0.8,-0.7c0,0,0.8,-0.1,2.2,3.1c0.3,-0.4,0.4,-1.4,0.3,-1.8c-0.1,-0.3,-0.2,-1.2,-0.2,-1.7c-0.1,-0.4,-1.6,-1.2,-2,-1.2c-0.4,-0.1,0.2,-0.7,-0.3,-0.7c-0.5,-0.1,-1.3,0,-1.9,-0.1C274.2,773,272,772.9,271.3,773c-0.7,0,-2.8,1.4,-3,1.7c-0.1,0.3,-1,1.8,-1.3,2.2c-0.2,0.5,-0.3,1.4,-0.3,2.1c0.1,0.6,-0.2,1.8,0.1,2.5c0.2,0.6,0.8,2.2,0.8,2.2c0,0,-0.2,-1.6,0.4,-1.5c0.5,0.2,0.5,0.5,1.1,0.5c0.6,0.1,1.1,1.5,1.1,1.5Z" class="g19_134" />
<path d="M272.2,791.1c0,0,-0.3,2.1,-0.4,3.8c-0.1,1.7,-0.2,6,-0.2,6.6c-0.1,0.7,0.3,5,0.3,6.1c0.1,1.1,0.6,4,0.8,7.2c0.3,3.3,0.5,6.8,0.5,6.8" class="g7_134" />
<path d="M269,795.9c-0.2,0.2,-0.2,0.6,0,0.6c0.2,0,1.9,-0.1,2.5,0c0.6,0,1,0.2,2.1,0.3c1.2,0.1,1.7,0.1,1.7,-0.1c-0.1,-0.2,0.2,-0.3,-0.5,-0.3c-0.7,0,-2.3,-0.2,-3,-0.4c-0.7,-0.1,-2.8,-0.1,-2.8,-0.1Z" class="g20_134" />
<path d="M269.1,800.6c0,0,-0.1,0.6,0.2,0.6c0.4,0.1,1.4,0.1,1.9,0.2c0.5,0,3.3,0.5,3.8,0.5c0.4,-0.1,0.3,-0.5,0.2,-0.5c-0.2,-0.1,-3,-0.4,-3.5,-0.5c-0.6,-0.1,-2.6,-0.3,-2.6,-0.3Z" class="g20_134" />
<path d="M269.2,805.4c0,0.2,-0.3,0.6,0.4,0.6c0.6,0,1.6,0.2,2.4,0.3c0.7,0.1,2.1,0.3,2.5,0.2c0.4,-0.2,0.3,-0.6,0,-0.6c-0.3,0,-2.3,-0.2,-2.8,-0.2c-0.4,0,-2.5,-0.3,-2.5,-0.3Z" class="g20_134" />
<path d="M269.5,810.3c0,0,-0.1,0.4,0.2,0.5c0.3,0.1,1.8,0.1,3,0.1c1.2,0,2.8,-0.1,2.9,-0.3c0,-0.2,0,-0.5,-0.4,-0.5c-0.4,0,-2.4,0.2,-3.4,0.2c-1,-0.1,-2.3,0,-2.3,0Z" class="g20_134" />
<path d="M269.7,814.5c0,0,0.1,0.4,0.5,0.5c0.5,0.1,2.2,0.3,2.8,0.3c0.6,0,3.1,-0.2,3.1,-0.4c0,-0.3,0,-0.4,-0.5,-0.4c-0.4,0,-2.5,0.3,-2.9,0.3c-0.6,0.1,-2.7,-0.3,-3,-0.3Z" class="g20_134" />
<path d="M271.1,819c0,0,-0.3,0,0.4,0.4c0.7,0.3,1,0.3,2,0.4c1.1,0,2.4,0,2.5,-0.3c0.1,-0.2,0.2,-0.6,-0.1,-0.5c-0.3,0.1,-1.2,0.6,-2.8,0.3c-1.7,-0.3,-1.9,-0.6,-2,-0.3Z" class="g20_134" />
<path d="M294,826.4c0.2,-0.2,0.1,-0.5,0.2,-0.8c0.2,-0.3,0.1,0,-0.3,-0.3c-0.4,-0.3,-0.5,-0.5,-0.8,-0.5c-0.2,0,-0.1,0.2,-0.5,0c-0.4,-0.1,-0.8,-0.2,-1,-0.3c-0.2,-0.1,-0.2,-0.7,0.6,-1c0.8,-0.2,0.9,-0.6,0.9,-0.6c0,0,-2,0.2,-1.9,0.6c0,0.4,0.4,0.8,0,0.8c-0.4,0,-1.1,0,-1,-0.1c0.2,-0.1,-0.7,-0.1,-0.4,-0.3c0.3,-0.3,0.8,-0.3,0.3,-0.3c-0.5,0.1,-0.9,0.4,-1.1,0.7c-0.1,0.3,-1,1,-0.7,1.2c0.3,0.1,0.5,0.5,0.7,0.1c0.1,-0.5,-0.3,-1,0.6,-0.9c0.9,0.1,3.3,0.4,3.7,0.6c0.3,0.2,0.7,1.1,0.7,1.1Z" class="g21_134" />
<path d="M288.1,823.8c0,0,1.3,-1.2,1.8,-1.5c0.5,-0.3,3.6,-3.2,3.6,-3.2c0,0,0.9,1.2,0.7,1.5c-0.2,0.2,-0.8,0.3,-1.2,0.1c-0.4,-0.2,-0.6,0,-0.4,0.4c0.2,0.4,-0.4,0.4,-0.8,0.4c-0.5,0.1,-0.2,0,-0.7,0.7c-0.6,0.7,-0.8,0.7,-1.7,1c-0.8,0.3,-1.3,0.6,-1.3,0.6Z" class="g21_134" />
<path d="M294.1,822.7c0,0,-0.1,0.6,-0.1,1c-0.1,0.4,-1.9,0.6,-0.8,0.6c1.1,0.1,1.1,0.6,1.1,0.1c0.1,-0.5,-0.2,-1.7,-0.2,-1.7Z" class="g21_134" />
<path d="M266.2,786.5c0,0,0.6,0.8,0,1.9c-0.6,1.1,-1.6,3.9,-2.2,4c-0.5,0.2,-0.6,0,-1,0c-0.3,0,-0.3,4.1,0.3,4c0.5,-0.2,1.1,-3.3,1.6,-4.4c0.6,-1.1,2,-2.9,2.2,-3.7c0.2,-0.8,-0.8,-1.8,-0.9,-1.8Z" class="g21_134" />
<path d="M266.3,799.2c0.4,0,0.1,-6.6,0.3,-7c0.2,-0.4,0.7,-0.8,0.8,-1.6c0.1,-0.7,0,-2,-0.3,-1.6c-0.2,0.4,-0.3,1,-0.5,1.8c-0.2,0.8,-1,0.2,-1,1.2c0,0.9,0.1,7.3,0.7,7.2Z" class="g21_134" />
<path d="M256.5,787.1c0,0,-1.4,1.7,-1.2,2c0.3,0.3,0.9,1.6,1.2,1.3c0.2,-0.3,0,-0.7,0,-1.5c0,-0.7,0.4,-1.8,0,-1.8Z" class="g21_134" />
<path d="M258.2,786.3c-0.2,0.2,-0.1,2.7,0,3.1c0.1,0.5,0.2,3.9,1,4.2c0.7,0.3,1.2,0.2,0.7,-0.8c-0.5,-1.1,-1.3,-3.2,-1.2,-4.5c0.1,-1.3,-0.1,-2.7,-0.5,-2Z" class="g21_134" />
<path d="M235.9,779.4c0,0,1.3,1.1,2.1,1.4c0.9,0.3,1.5,0.4,2.7,1.1c1.3,0.7,4.1,1.9,4.7,2.5c0.6,0.5,2,2.7,2.4,3.5c0.3,0.8,0.5,1,1,0.6c0.4,-0.4,1,-0.5,0.2,-0.9c-0.8,-0.4,-1.6,-0.9,-1.7,-2c-0.1,-1.2,-0.5,-2.2,-1.7,-2.7c-1.2,-0.6,-1.6,-1.2,-2.4,-1.6c-0.9,-0.3,-1.1,-0.1,-2.3,-0.8c-1.1,-0.7,-1,-0.7,-2.1,-0.8c-1.1,-0.1,-2.9,-0.3,-2.9,-0.3Z" class="g21_134" />
<path d="M247.9,783.7c0,0,-0.4,0.8,0.3,1.2c0.7,0.4,0.9,0,1.9,0.6c0.9,0.7,1.2,0.3,1.5,1.8c0.4,1.5,0.6,2.3,0.9,2.6c0.3,0.2,1.5,0.8,0.7,-0.5c-0.9,-1.3,-1,-2.2,-1.4,-3.1c-0.4,-1,-0.9,-1.5,-1.7,-1.6c-0.8,-0.1,-2.1,-1.2,-2.2,-1Z" class="g21_134" />
<path d="M258.1,823.6c0,0,0.4,1.2,1.3,1.9c0.9,0.7,6.7,4,7.4,4.5c0.8,0.4,3,1.5,3.2,1.3c0.2,-0.1,0.6,-0.4,-0.3,-0.6c-0.9,-0.2,-1.9,-0.5,-1.7,-0.6c0.2,-0.2,0.3,-0.2,0.4,-0.6c0,-0.3,0.1,-1.6,-0.5,-1.4c-0.5,0.2,-0.2,1,-0.6,1c-0.4,0,-1.3,-0.2,-1.1,-0.7c0.2,-0.4,1,-1.9,1.1,-2.1c0,-0.3,-0.8,0.8,-1.3,1.2c-0.5,0.3,-0.3,0.6,-1,0.3c-0.8,-0.3,-1.9,-0.7,-2.9,-1.2c-1,-0.6,-2.1,-1,-2.9,-1.7c-0.7,-0.8,-1.1,-1.3,-1.1,-1.3Z" class="g22_134" />
<path d="M259.7,822.4c0,0,0.7,1.2,2,1.9c1.4,0.7,2.3,1.1,3.3,1.2c0.9,0.1,1.8,0,1.8,-0.2c-0.1,-0.3,-0.8,-1.2,-1.7,-1.1c-0.9,0.2,-1.1,0.3,-1.9,-0.5c-0.8,-0.7,-3.4,-1.6,-3.5,-1.3Z" class="g22_134" />
<path d="M301.7,828.8c-0.2,0.1,1.7,0.2,4.5,0.2c2.8,0.1,5.9,-0.5,6.7,-1.1c0.8,-0.6,0.9,-2.5,0.9,-2.5c0,0,-0.4,1.8,-1.3,2.2c-0.9,0.3,-3.1,1.1,-4.6,1c-1.5,-0.1,-6.1,0,-6.2,0.2Z" class="g22_134" />
<path d="M313,828.3c0.6,-0.3,2,-1.4,2.3,-1.5c0.2,-0.1,1.1,0.5,0.3,1c-0.7,0.5,-2.6,0.5,-2.6,0.5Z" class="g22_134" />
<path d="M316.3,827c0,0,0.9,0.8,0.6,1.5c-0.3,0.8,-1.8,1.3,-2.4,1.4c-0.5,0.2,2.4,-1.3,1.8,-2.9Z" class="g22_134" />
<path d="M317.4,827.6c0,0,0.8,0.3,0.8,1c0,0.6,-0.7,1.3,-1,1.4c-0.2,0,-2.1,0.2,-1.8,0.2c0.2,0,1.9,-0.4,2,-1.2c0,-0.7,-0.3,-1.4,0,-1.4Z" class="g22_134" />
<path d="M303,825.6c0.4,0.3,1.7,-0.6,2.6,-1.3c0.8,-0.8,1.2,-1.2,1,-1.6c-0.2,-0.3,-0.8,-0.9,-0.8,-0.7c0,0.3,0.2,0.7,-0.6,1.6c-0.9,0.9,-2.4,1.9,-2.2,2Z" class="g22_134" />
<path d="M303.4,826.6c0.2,-0.1,1.3,0.2,2.3,-0.7c1,-0.9,1.1,-0.9,2.2,-1.1c1.2,-0.1,2.6,-0.7,1.8,-1c-0.8,-0.2,-2,0.2,-2.2,0.2c-0.3,0.1,0,-1.6,-0.3,-1.1c-0.3,0.6,0.1,0.6,-0.7,1.1c-0.8,0.6,-1,1.4,-2,1.7c-0.9,0.3,-1.5,0.9,-1.1,0.9Z" class="g22_134" />
<path d="M299.6,824.1c0.3,-0.1,2.3,0.2,3.4,-0.7c1.1,-1,0.9,-1.4,1.1,-1c0.1,0.4,-0.9,1.6,-2.9,2.3c-1.9,0.7,-2.5,0.8,-2.5,0.8c0,0,0.1,-1.1,0.9,-1.4Z" class="g22_134" />
<g clip-path="url(#c0_134)">
<path d="M272.4,835.3c0,0,0.1,2.1,0.4,2.5c0.4,0.5,0.4,1.8,-0.2,2.1c-0.6,0.3,-0.8,0.5,-2.4,0.6c-1.7,0,-3.5,0.9,-5,1.4c-1.4,0.5,-3.4,1,-5.2,0.4c-1.2,-0.7,-0.2,-2.1,0.3,-2.3c0.6,-0.2,1.4,-0.5,2.2,-1.3c0.7,-0.9,2.8,-2.8,3.2,-2.8c0.3,-0.1,0.4,-0.3,1.3,0.1c1,0.3,1.2,1,2.4,1c1.2,0.1,1.8,0.1,2.2,-0.6c0.4,-0.8,0.5,-1.2,0.8,-1.1Z" class="g23_134" />
</g>
<path d="M289.2,826.8L289,825.2" class="g7_134" />
<g clip-path="url(#c0_134)">
<path d="M322.7,834.9c0,0,0.5,1.2,1,1.7c0.5,0.4,0.6,0,1.3,0.5c0.7,0.6,1.5,2.1,2.5,2.9c1,0.8,3.5,1.2,4.5,0.6c1,-0.5,1.3,-1.2,1,-2.1c-0.4,-0.8,-0.7,-1.6,-1.6,-1.9c-0.8,-0.4,-1.3,-0.6,-2,-1.2c-0.7,-0.6,-3,-2.5,-3.2,-2.5c-0.2,0,-1,0.4,-1.5,1.1c-0.5,0.7,-0.4,1,-0.9,1c-0.4,0,-0.7,-0.4,-0.7,-0.4Z" class="g23_134" />
</g>
<path d="M278.6,796.3c0,0,1.2,0.6,1.3,1.8c0,1.2,0.3,2.2,0.8,3.7c0.6,1.5,1.3,3.1,2,4.7c0.8,1.6,1.2,2.3,1.4,3c0.3,0.8,0.9,4.2,1.5,5.4c0.6,1.1,2.2,3.8,2.2,4.2c0.1,0.3,0.1,1.1,0.1,1.6c0,0.4,-0.7,3.9,-0.7,3.9c0,0,0.8,-4.1,0.3,-5.2c-0.6,-1.2,-1.2,-1.8,-2,-3.7c-0.7,-1.8,-1.4,-4.6,-1.4,-4.8c0,-0.3,0,-0.3,-1.3,0.3c-1.3,0.7,-1.6,0.9,-2.8,0.8c-1.2,-0.2,-3.9,-2.2,-4.1,-2.9c-0.1,-0.7,2.1,2,3.1,1.8c1.1,-0.1,1.7,-0.9,2.5,-0.9c0.8,0,1.8,0.4,2.1,0.3c0.2,-0.2,0.2,-0.2,-1.2,-1.2c-1.4,-1,-1.7,-1.8,-0.6,-1.6l1.1,0.3c0,0,-0.6,0,-1.3,-1.5c-0.8,-1.6,-2.9,-4.5,-2.9,-4.5c0,0,3.2,4.6,3.1,3.7c-0.2,-1,-1,-1.7,-1.2,-2.8c-0.2,-1.1,-0.7,-2.1,-1.3,-3.8c-0.7,-1.7,-1.2,-2.8,-0.7,-2.6Z" class="g21_134" />
<path d="M284.1,797.2c-0.8,0.6,-0.5,3.4,-0.6,6.3c0,3,0.6,5.1,0.6,5.1c0,0,-0.1,-6.4,0.2,-7.6c0.3,-1.1,1.1,-4.6,-0.2,-3.8Z" class="g21_134" />
<path d="M284.7,802.9c0,0,-0.4,2.2,-0.1,4c0.3,1.9,0.6,4.1,0.8,4c0.2,0,0.8,-4,1.2,-5.9c0.3,-1.8,0.2,-3.8,0.1,-4.3c0,-0.4,-1.1,-2.3,-1.1,-2c0,0.3,-0.2,2.6,0.1,2.6c0.3,-0.1,0.7,-0.4,0.7,0.4c0,0.8,-0.4,5.5,-1,4.7c-0.6,-0.9,-0.2,-3.4,-0.7,-3.5Z" class="g21_134" />
<path d="M404,826c0,0,-0.3,3.7,-0.3,5c0,1.3,-0.1,10.4,0.1,11.7c0.2,1.3,1.1,4.4,1.1,4.4L440.4,847c0,0,-0.4,-9.9,-0.9,-13.6c-0.6,-3.7,-1.3,-10.8,-2.5,-11.9c-1.2,-1.1,-33,4.5,-33,4.5Z" class="g24_134" />
<path d="M413.3,778.6c0,0,-5.2,-2.9,-4.7,-5.1c0.4,-2.3,2.7,-5.3,2.7,-5.3l4,5.3c0,0,2.6,4.5,1.2,5.7c-1.4,1.2,-3.2,-0.6,-3.2,-0.6Z" class="g13_134" />
<path d="M413.3,778.6c0,0,-5.2,-2.9,-4.7,-5.1c0.4,-2.3,2.7,-5.3,2.7,-5.3l4,5.3c0,0,2.6,4.5,1.2,5.7c-1.4,1.2,-3.2,-0.6,-3.2,-0.6Z" class="g14_134" />
<path d="M414.4,771.8c0,0,1.7,7.3,1.4,7.5c-0.3,0.2,-4.2,-0.1,-6,0.2c-1.9,0.4,-2,3.1,-0.9,3.8c1.1,0.8,3.1,6,9.7,5.8c6.7,-0.2,8.3,-0.8,10.3,-2.8c2.1,-2.1,0,-6.9,0,-6.9l-2.3,0.1c0,0,-1.6,-2,-1.7,-2.3c-0.1,-0.4,-10.5,-5.4,-10.5,-5.4Z" class="g9_134" />
<path d="M414.4,771.8c0,0,1.7,7.3,1.4,7.5c-0.3,0.2,-4.2,-0.1,-6,0.2c-1.9,0.4,-2,3.1,-0.9,3.8c1.1,0.8,3.1,6,9.7,5.8c6.7,-0.2,8.3,-0.8,10.3,-2.8c2.1,-2.1,0,-6.9,0,-6.9l-2.3,0.1c0,0,-1.6,-2,-1.7,-2.3c-0.1,-0.4,-10.5,-5.4,-10.5,-5.4Z" class="g25_134" />
<path d="M423.8,755.7c1,0.2,3.6,1.5,5.2,6.6c1.7,5.1,2.1,14.3,-2.7,16.2c-4.7,1.8,-11,-5,-11,-5c0,0,-2.4,-0.8,-2.9,-2.5c-0.6,-1.8,-2.1,-3.6,-0.5,-3.8c0.4,-0.5,-1.9,-13.8,11.9,-11.5Z" class="g9_134" />
<path d="M423.8,755.7c1,0.2,3.6,1.5,5.2,6.6c1.7,5.1,2.1,14.3,-2.7,16.2c-4.7,1.8,-11,-5,-11,-5c0,0,-2.4,-0.8,-2.9,-2.5c-0.6,-1.8,-2.1,-3.6,-0.5,-3.8c0.4,-0.5,-1.9,-13.8,11.9,-11.5Z" class="g25_134" />
<path d="M425.7,757.9c0,0,-0.8,4.2,-1.7,4.9c-1,0.8,-6.6,3,-7.4,3.6c-0.9,0.7,-2,2.3,-2,2.3c0,0,-1.6,-1.2,-2,-1.2c-0.5,0,-1.2,0.2,-1.3,0.7c-0.1,0.4,-1.3,-0.4,-0.9,-4.6c0.4,-4.2,1.6,-8.3,7.5,-10c4.1,-1.1,4.7,0.7,4.7,0.7c0,0,3.4,-0.4,5.3,1.5c2,2.1,3.7,6.1,2,9.3C429,762.3,427,758,425.7,757.9Z" class="g13_134" />
<path d="M425.7,757.9c0,0,-0.8,4.2,-1.7,4.9c-1,0.8,-6.6,3,-7.4,3.6c-0.9,0.7,-2,2.3,-2,2.3c0,0,-1.6,-1.2,-2,-1.2c-0.5,0,-1.2,0.2,-1.3,0.7c-0.1,0.4,-1.3,-0.4,-0.9,-4.6c0.4,-4.2,1.6,-8.3,7.5,-10c4.1,-1.1,4.7,0.7,4.7,0.7c0,0,3.4,-0.4,5.3,1.5c2,2.1,3.7,6.1,2,9.3C429,762.3,427,758,425.7,757.9Z" class="g14_134" />
<path d="M414.3,779.3c0,0,-0.3,1,-0.1,2.3c0.2,1.3,1.4,2.8,2.8,3.7c1.4,0.8,1.6,1.3,3.4,0.1c1.7,-1.2,3.6,-3.6,5,-4.9c0.3,-0.3,0.5,-0.5,0.8,-0.9c0.1,-0.4,-0.3,-0.6,-0.4,-0.9c1.9,-0.5,2.6,-1.8,2.9,-2.3c0.4,-0.3,0.9,0,2.3,0c1.4,0,3,-1.3,4.9,-0.1c1.8,1.2,2.5,1.6,3.1,3c0.7,1.4,1,3.5,1.2,5.1c0.2,1.6,1.3,4,0.9,5.2c-0.5,1.2,-1.6,3.2,-3.1,5.3c-1.4,2.2,-0.2,4.7,-0.9,6.8c-0.8,2,-0.2,5.5,-0.2,7c0,1.5,1.4,12.5,1.6,13.9c0.2,1.4,-6.2,5.2,-8.7,5.8c-2.5,0.7,-2.7,1.3,-6.9,1.7c-4.3,0.3,-2.2,1,-6.4,0.3c-4.3,-0.8,-6.5,-1.6,-7.7,-1.9c-1.2,-0.2,-1.7,-0.6,-3.8,-1c-2.2,-0.5,-2.2,-0.3,-1.8,-1.8c0.5,-1.5,1.3,-3.6,1.3,-6.2c0,-2.6,0.6,-6.7,0.2,-10.4c-0.5,-3.7,0.4,-5.5,0.4,-8.4c0,-3,-0.2,-2.6,-0.7,-3.2c-0.4,-0.5,-1.6,-0.6,-3.3,-1.9c-1.8,-1.3,-2.2,-0.1,-2.7,-1.8c-0.6,-1.6,-1,-0.5,-1.3,-2.9c-0.4,-2.4,-1.8,-9.7,3.2,-11.1c5,-1.5,2.9,-0.7,7,-0.8c4,-0.1,2.6,0.2,4,0.2c1.4,0,3,0.1,3,0.1Z" class="g26_134" />
<path d="M431.1,782c0,0,1.8,-2.9,4.1,-3c2.3,-0.1,3.5,1.5,3.6,2.3c0.1,0.7,-0.1,4.3,-0.2,5.5c-0.1,1.2,-0.3,2.4,-2.1,3.3c-1.7,0.8,-3.8,0.9,-6.2,0.8c-2.3,-0.1,-5.7,-1.1,-6.3,-1c-0.7,0.2,-2.4,1.1,-3.6,1.2c-1.2,0.1,-4.4,1.9,-5.6,1.9c-1.1,0,-1.8,0.1,-2.8,0.3c-0.9,0.2,-3.1,1.2,-4,1.1c-0.9,-0.1,-2,-0.9,-0.7,-1.9c1.3,-0.9,6.1,-1.9,6.1,-1.9c0,0,-2.3,-1.2,-2.9,-1.4c-0.9,-0.3,-3.6,-1.6,-3.4,-2.1c0.3,-0.4,1.2,-0.4,2,-0.1c0.7,0.3,4.2,1.7,4.8,1.9c0.5,0.3,-5.5,-2.3,-4.5,-2.9c1,-0.7,5.8,1.6,5.8,1.6c0,0,-2.8,-3.1,-2.6,-3.6c0.2,-0.6,0.6,-0.9,1.6,-0.1c1,0.7,1.4,1.7,2.8,2.4c1.4,0.6,1.8,1,2.5,0.3c0.2,-0.3,0.6,-3.3,1.3,-3.7c0.4,-0.2,1.2,-0.2,1.2,0.9c0,1,-0.1,1.6,1.5,1.4c1.6,-0.2,3.3,-1.2,4.9,-1.8c1.6,-0.5,2.7,-1.4,2.7,-1.4Z" class="g9_134" />
<path d="M431.1,782c0,0,1.8,-2.9,4.1,-3c2.3,-0.1,3.5,1.5,3.6,2.3c0.1,0.7,-0.1,4.3,-0.2,5.5c-0.1,1.2,-0.3,2.4,-2.1,3.3c-1.7,0.8,-3.8,0.9,-6.2,0.8c-2.3,-0.1,-5.7,-1.1,-6.3,-1c-0.7,0.2,-2.4,1.1,-3.6,1.2c-1.2,0.1,-4.4,1.9,-5.6,1.9c-1.1,0,-1.8,0.1,-2.8,0.3c-0.9,0.2,-3.1,1.2,-4,1.1c-0.9,-0.1,-2,-0.9,-0.7,-1.9c1.3,-0.9,6.1,-1.9,6.1,-1.9c0,0,-2.3,-1.2,-2.9,-1.4c-0.9,-0.3,-3.6,-1.6,-3.4,-2.1c0.3,-0.4,1.2,-0.4,2,-0.1c0.7,0.3,4.2,1.7,4.8,1.9c0.5,0.3,-5.5,-2.3,-4.5,-2.9c1,-0.7,5.8,1.6,5.8,1.6c0,0,-2.8,-3.1,-2.6,-3.6c0.2,-0.6,0.6,-0.9,1.6,-0.1c1,0.7,1.4,1.7,2.8,2.4c1.4,0.6,1.8,1,2.5,0.3c0.2,-0.3,0.6,-3.3,1.3,-3.7c0.4,-0.2,1.2,-0.2,1.2,0.9c0,1,-0.1,1.6,1.5,1.4c1.6,-0.2,3.3,-1.2,4.9,-1.8c1.6,-0.5,2.7,-1.4,2.7,-1.4Z" class="g25_134" />
<path d="M434.6,782.4c0,0,-1.3,-1,-3.5,-0.4" class="g25_134" />
<path d="M421.7,787.5l0.3,-3.4" class="g25_134" />
<g clip-path="url(#c1_134)">
<path d="M401.7,791.7c0,0,0,0.3,-1.2,0.1c-1.5,-0.3,-2.6,0,-4.1,-0.3c-1.5,-0.4,-3,-1.2,-5.7,-1.4c-2.7,-0.3,-4.3,-0.5,-5.8,-0.8c-1.5,-0.3,-4,-1.4,-4.1,-3.3c-0.1,-1.8,3.6,-4.8,5,-4.7c1.4,0.1,3.6,0.6,3.6,0.6c0,0,-1.2,-3.9,-0.5,-4.3c0.8,-0.4,1.3,0.9,1.6,1.5c0.2,0.7,0.2,2.6,0.5,2.9c0.3,0.4,1.1,0.8,1.5,-0.2c0.4,-1,1,-2.8,1.5,-3c0.6,-0.2,1,-0.1,1,0.5c0,0.7,-0.9,2.9,-0.9,3.3c0,0.3,0.6,-0.4,1.7,-1.2c1,-0.9,2,-1.9,2.6,-1.9c0.5,0,0.6,0.7,0.4,1c-0.2,0.3,-2,3,-2,3c0,0,3.5,-2.2,3.8,-2.2c0.4,0,1.9,0.7,-0.3,2.4c-2.2,1.6,-1.9,2.1,-1,2.1c1,0,2,-0.8,3.6,-0.6c1.6,0.2,2.4,0.5,2.5,0.9c0.1,0.5,-0.5,1.4,-1.3,1.4c-0.9,0,-3,0.2,-3,0.2c0,0,-0.2,1.5,0.4,2.7c0.6,0.9,0.2,1.3,0.2,1.3Z" class="g9_134" />
<path d="M401.7,791.7c0,0,0,0.3,-1.2,0.1c-1.5,-0.3,-2.6,0,-4.1,-0.3c-1.5,-0.4,-3,-1.2,-5.7,-1.4c-2.7,-0.3,-4.3,-0.5,-5.8,-0.8c-1.5,-0.3,-4,-1.4,-4.1,-3.3c-0.1,-1.8,3.6,-4.8,5,-4.7c1.4,0.1,3.6,0.6,3.6,0.6c0,0,-1.2,-3.9,-0.5,-4.3c0.8,-0.4,1.3,0.9,1.6,1.5c0.2,0.7,0.2,2.6,0.5,2.9c0.3,0.4,1.1,0.8,1.5,-0.2c0.4,-1,1,-2.8,1.5,-3c0.6,-0.2,1,-0.1,1,0.5c0,0.7,-0.9,2.9,-0.9,3.3c0,0.3,0.6,-0.4,1.7,-1.2c1,-0.9,2,-1.9,2.6,-1.9c0.5,0,0.6,0.7,0.4,1c-0.2,0.3,-2,3,-2,3c0,0,3.5,-2.2,3.8,-2.2c0.4,0,1.9,0.7,-0.3,2.4c-2.2,1.6,-1.9,2.1,-1,2.1c1,0,2,-0.8,3.6,-0.6c1.6,0.2,2.4,0.5,2.5,0.9c0.1,0.5,-0.5,1.4,-1.3,1.4c-0.9,0,-3,0.2,-3,0.2c0,0,-0.2,1.5,0.4,2.7c0.6,0.9,0.2,1.3,0.2,1.3Z" class="g25_134" />
</g>
<path d="M401.7,791.7c0,0,0,0.3,-1.2,0.1c-1.5,-0.3,-2.6,0,-4.1,-0.4c-1.5,-0.3,-3,-1.2,-5.8,-1.4c-2.7,-0.2,-5.3,-0.6,-6.9,-1.1c2.9,0.2,3.6,-0.2,5.7,-0.2c10,1.1,11.6,-1.1,11.6,-1.1c0,0,-0.1,1.6,0.5,2.8c0.5,1.1,0.2,1.3,0.2,1.3Z" class="g27_134" />
<path d="M390.3,786.7c0,0,-0.6,1.1,-1.6,1.9c-1,0.9,-1.5,1.1,-1.5,1.1" class="g25_134" />
<path d="M401.1,787.7c0,0,-1.7,0.9,-2.2,0.9c-0.6,0.1,-1.4,0,-2.3,-0.2c-1,-0.2,-1.3,-0.4,-2.2,-0.6c-0.9,-0.2,-1.5,-0.3,-2.1,-0.4c-0.7,-0.2,-3.1,-1.1,-3.3,-2.2c-0.1,-1.1,0.3,-2,0.4,-2.5c0.1,-0.4,0,-0.8,0,-0.8" class="g25_134" />
<path d="M401.7,791.7c0,0,0.6,-0.2,-0.7,1.4c-1.2,1.6,-1.8,1.7,-2,1.7c-0.3,0,-0.5,-1.1,-1,-1.8c-0.6,-0.6,-1.1,-1.3,-0.9,-1.3c0.2,0.1,2.9,0.1,3.4,0.1c0.5,-0.1,1.2,-0.1,1.2,-0.1Z" class="g28_134" />
<path d="M435.2,790.6c0,0,0.5,2.1,1.2,2.8c0.8,0.7,0.5,2.5,1.2,1.6c0.7,-0.9,3.6,-4.5,3.5,-5.4c-0.1,-0.9,-0.7,-4,-1.3,-5.6c-0.4,-0.9,-0.5,-1.5,-0.7,-2c0,1.9,-0.2,4.4,-0.8,6.5c-0.1,1.3,-3.1,2.1,-3.1,2.1Z" class="g28_134" />
<path d="M470.6,809.8c0,0,-0.9,2.7,-0.7,4.1c0.3,1.4,0.3,3.7,0.1,6.3c-0.2,2.6,-0.1,5.2,-0.1,6.1c0,0.8,-0.2,2.7,-1,3.8c-0.7,1,-2.2,5.3,-2.3,5.9c-0.1,0.6,-0.5,4.9,-0.3,6.7c0.3,1.8,0.1,4.1,0.1,4.1l11.4,0.2c0,0,-0.6,-6.2,-0.7,-6.7c-0.1,-0.5,0.9,-5.2,1.1,-6.2c0.3,-1.1,1.1,-3.3,1.2,-5.8c0.2,-2.5,1.5,-6.4,2.7,-8.2c1.2,-1.8,1.5,-2.3,1.5,-2.3L483,815.9c0,0,1.9,3.9,2.1,5.1c0.3,1.1,0.3,5.9,0.2,7.5c-0.1,1.5,0.2,4.9,0.5,5.4c0.2,0.5,-2.5,12.9,-2.5,12.9l10.8,0.2c0,0,1.3,-10,1.6,-10.7c0.2,-0.8,1.9,-7.9,2,-9.4c0.1,-1.5,0.2,-11.4,0,-12.6c-0.1,-1.2,-0.2,-6.4,-0.2,-6.4Z" class="g29_134" />
<path d="M485.8,766.1c0,0,-0.2,2.5,0.2,3c0,0,-0.6,0.5,2.3,1.1c2.8,0.5,1.4,1.6,0.1,2.6c-1.3,0.9,-1,0.9,-3.4,3.5c-2.5,2.5,-4.3,7.3,-5.5,7.2c-1.2,-0.1,-6.4,-4.2,-6.6,-4.6c-0.1,-0.4,0.7,-5.5,0.7,-5.5c0,0,4,-0.7,4.5,-1.2c0.5,-0.5,-0.1,-4.1,-0.1,-4.1Z" class="g9_134" />
<path d="M485.8,766.1c0,0,-0.2,2.5,0.2,3c0,0,-0.6,0.5,2.3,1.1c2.8,0.5,1.4,1.6,0.1,2.6c-1.3,0.9,-1,0.9,-3.4,3.5c-2.5,2.5,-4.3,7.3,-5.5,7.2c-1.2,-0.1,-6.4,-4.2,-6.6,-4.6c-0.1,-0.4,0.7,-5.5,0.7,-5.5c0,0,4,-0.7,4.5,-1.2c0.5,-0.5,-0.1,-4.1,-0.1,-4.1l7.8,-2Z" class="g25_134" />
<path d="M483.8,754.3c-2.4,-0.6,-4.9,0.1,-6.2,1.5c-1.4,1.4,-3.3,9.7,0.6,13.4c3.9,3.6,9.1,-3.3,9.6,-5.8c0.5,-2.4,0.7,-7.9,-4,-9.1Z" class="g9_134" />
<path d="M483.8,754.3c-2.4,-0.6,-4.9,0.1,-6.2,1.5c-1.4,1.4,-3.3,9.7,0.6,13.4c3.9,3.6,9.1,-3.3,9.6,-5.8c0.5,-2.4,0.7,-7.9,-4,-9.1Z" class="g25_134" />
<g clip-path="url(#c1_134)">
<path d="M483.7,756.1c0,0,-0.4,0.7,-2.1,0.9c-1.6,0.2,-1.6,0.1,-2.8,0.6c-1.2,0.4,-2.1,0.6,-2.5,1.4c-0.4,0.8,-0.4,2.3,-0.4,2.3c0,0,-1.3,-3.8,0.4,-6c1.9,-2.7,5.2,-3.8,7.9,-3.4c2.8,0.5,5.1,2.4,5.8,4.8c0.7,2.7,0.5,4.9,-2.4,8.4c-1.6,1.9,-2,2,-2,2c0,0,1.1,-3,0.7,-5.2c-0.4,-2.1,-2.1,-3.2,-2.6,-5.8Z" class="g13_134" />
<path d="M483.7,756.1c0,0,-0.4,0.7,-2.1,0.9c-1.6,0.2,-1.6,0.1,-2.8,0.6c-1.2,0.4,-2.1,0.6,-2.5,1.4c-0.4,0.8,-0.4,2.3,-0.4,2.3c0,0,-1.3,-3.8,0.4,-6c1.9,-2.7,5.2,-3.8,7.9,-3.4c2.8,0.5,5.1,2.4,5.8,4.8c0.7,2.7,0.5,4.9,-2.4,8.4c-1.6,1.9,-2,2,-2,2c0,0,1.1,-3,0.7,-5.2c-0.4,-2.1,-2.1,-3.2,-2.6,-5.8Z" class="g14_134" />
<path d="M478.9,780.6c0,0,0.2,-0.8,1.3,-1.7c1,-0.8,1.9,-1.8,2.8,-2.8c0.9,-1,2.1,-3.5,3.1,-4.3c1,-0.8,2.2,-1.6,2.2,-1.6c0,0,3.5,0.3,4.3,0.9c0.8,0.7,1.1,0.3,1.1,1.7c-0.1,1.3,-0.8,1.7,0.1,3.4c0.9,1.7,1.9,3.2,1.8,4.3c-0.1,1,-0.2,2,-0.8,1.4c-0.6,-0.5,-1.1,-0.3,-1.1,-0.3c0,0,-0.3,2.9,0.2,4.3c0.5,1.5,0.5,5.7,0.5,5.7c0,0,0.8,1,1.2,2.7c0.4,1.7,1.8,5.6,2.2,8.1c0.4,2.6,2.3,8.5,2.3,8.5c0,0,-1.2,0.2,-2.2,0.3c-1.1,0.1,-1.5,0.6,-4.3,1.3c-2.9,0.8,-6.4,1.7,-8.3,2c-2,0.2,-3.9,1.4,-6.5,0.6c-2.6,-0.8,-2.9,-2.1,-4.2,-3.1c-1.4,-0.9,-1.8,-1,-3.2,-0.7c-1.4,0.3,-2.1,1.1,-2.1,1.1c0,0,0.8,-2.6,0.8,-3.1c0,-0.6,0.1,-9.8,0.5,-12.4c0.5,-2.6,0,-4.3,0.5,-5.5c0.4,-1.2,-0.6,-1.6,-0.4,-4.6c0.3,-2.9,-0.5,-4.1,-0.9,-4.9c-0.3,-0.8,0,-1.7,-0.1,-2.1c-0.2,-0.4,-2.7,-4.2,-2.7,-4.2c0,0,2.2,-2.1,3.6,-2.6c1.3,-0.5,3.2,-0.5,3.2,-0.5c0,0,1.2,0,1.3,0.6c0.1,0.6,0.3,3.7,1,4.5c0.7,0.9,2.8,3,2.8,3Z" class="g30_134" />
</g>
<path d="M469.9,782.4c0,0,-4.8,2,-7.2,2.4c-2.5,0.4,-4.8,0,-5.5,-0.2c-0.8,-0.3,-2.4,-3.1,-2,-3.9c0.4,-0.8,3.7,-4.4,5,-5.1c1.4,-0.6,4.4,-2.3,6,-3.4c1.5,-1.1,2.7,-2.1,3.4,-2.4c0.7,-0.4,2.3,-2.2,2.6,-2.2c0.3,-0.1,1,-0.2,1.4,-0.1c0.4,0.1,0.6,-0.1,1.2,0c0.6,0.1,1.1,1.5,1.3,1.4c0.2,0,1.1,0,1.6,0.4c0.6,0.5,1.4,2.2,1.2,2.4c-0.1,0.2,-1.9,1.1,-2.8,1.3c-0.9,0.3,-1.5,0.8,-2.5,0.4c-1,-0.4,-0.8,-0.6,-1.7,-0.4c-0.8,0.2,-4.7,3.1,-4.7,3.1c0,0,2.4,3.2,2.5,3.7c0.1,0.5,-0.1,0.8,0.1,1.5c0.1,0.6,0.1,1.1,0.1,1.1Z" class="g9_134" />
<path d="M469.9,782.4c0,0,-4.8,2,-7.2,2.4c-2.5,0.4,-4.8,0,-5.5,-0.2c-0.8,-0.3,-2.4,-3.1,-2,-3.9c0.4,-0.8,3.7,-4.4,5,-5.1c1.4,-0.6,4.4,-2.3,6,-3.4c1.5,-1.1,2.7,-2.1,3.4,-2.4c0.7,-0.4,2.3,-2.2,2.6,-2.2c0.3,-0.1,1,-0.2,1.4,-0.1c0.4,0.1,0.6,-0.1,1.2,0c0.6,0.1,1.1,1.5,1.3,1.4c0.2,0,1.1,0,1.6,0.4c0.6,0.5,1.4,2.2,1.2,2.4c-0.1,0.2,-1.9,1.1,-2.8,1.3c-0.9,0.3,-1.5,0.8,-2.5,0.4c-1,-0.4,-0.8,-0.6,-1.7,-0.4c-0.8,0.2,-4.7,3.1,-4.7,3.1c0,0,2.4,3.2,2.5,3.7c0.1,0.5,-0.1,0.8,0.1,1.5c0.1,0.6,0.1,1.1,0.1,1.1Z" class="g25_134" />
<path d="M460.9,783.3c0.2,0,2.1,-0.5,2.9,-2c0.8,-1.5,3.4,-5.2,3.4,-5.2" class="g25_134" />
<path d="M470.3,772c0.3,0,0.9,0.4,1,-0.7c0.1,-1.1,-0.1,-2,0.2,-2.3c0.4,-0.2,0.4,0.3,0.9,0.8c0.4,0.4,0.6,0.5,0.9,0.2c0.4,-0.3,-0.3,-1.8,-0.3,-1.8c0,0,1,1.8,0.8,2.2c-0.1,0.4,0.1,2.2,0.5,2.2c0.4,0,0.8,0.4,0.8,-1.1c0,-1.4,-0.2,-2.3,-0.2,-2.3c0,0,0.3,3.8,0.7,3.9c0.4,0.1,0.7,0.1,0.8,-0.7c0.1,-0.9,-0.1,-2.5,-0.1,-2.5c0,0,0.9,1.5,1.2,1.8c0.3,0.3,1.5,0.3,1.4,0" class="g25_134" />
<path d="M486.4,775.9c0,0,1.2,-1.8,3.1,-1.5c2,0.2,2.4,0.1,2.9,1c0.4,1,1,3.2,0.9,4.2c-0.2,1,-1.8,3,-2.7,3.3c-0.9,0.4,-2.1,0.8,-2.3,0.9c-0.3,0.2,-2.4,2.5,-2.8,3.1c-0.3,0.6,-0.6,1,-0.1,1.6c0.5,0.5,1.3,1.3,1.5,2c0.2,0.6,0.2,1.7,-0.2,1.8c-0.4,0.1,-0.5,0.3,-0.6,-0.5c-0.1,-0.8,-1.9,-3.2,-1.9,-3.2c0,0,2.2,2.9,1,3c-1.2,0.2,-2,-2.5,-2,-2.5c0,0,0.5,2.3,0.1,2.3c-0.5,0,-1.3,0.1,-2,-2.5c-0.3,-1.1,-0.5,2.6,-0.5,2.6c0,0,-1.1,1.3,-1.5,-0.4c-0.3,-1.7,-0.4,-2.5,-0.4,-2.5c0,0,0.7,3,0.4,3.7c-0.4,0.6,-0.3,1.5,-1,1.4c-0.7,-0.2,-0.8,-0.9,-0.6,-2.1c0.3,-1.2,0.8,-3.1,1.8,-4.6c1,-1.5,2.8,-3.2,3.1,-3.8c0.3,-0.7,1.4,-3,1.9,-3.6c0.5,-0.6,1.3,-3.3,1.9,-3.7Z" class="g9_134" />
<path d="M486.4,775.9c0,0,1.2,-1.8,3.1,-1.5c2,0.2,2.4,0.1,2.9,1c0.4,1,1,3.2,0.9,4.2c-0.2,1,-1.8,3,-2.7,3.3c-0.9,0.4,-2.1,0.8,-2.3,0.9c-0.3,0.2,-2.4,2.5,-2.8,3.1c-0.3,0.6,-0.6,1,-0.1,1.6c0.5,0.5,1.3,1.3,1.5,2c0.2,0.6,0.2,1.7,-0.2,1.8c-0.4,0.1,-0.5,0.3,-0.6,-0.5c-0.1,-0.8,-1.9,-3.2,-1.9,-3.2c0,0,2.2,2.9,1,3c-1.2,0.2,-2,-2.5,-2,-2.5c0,0,0.5,2.3,0.1,2.3c-0.5,0,-1.3,0.1,-2,-2.5c-0.3,-1.1,-0.5,2.6,-0.5,2.6c0,0,-1.1,1.3,-1.5,-0.4c-0.3,-1.7,-0.4,-2.5,-0.4,-2.5c0,0,0.7,3,0.4,3.7c-0.4,0.6,-0.3,1.5,-1,1.4c-0.7,-0.2,-0.8,-0.9,-0.6,-2.1c0.3,-1.2,0.8,-3.1,1.8,-4.6c1,-1.5,2.8,-3.2,3.1,-3.8c0.3,-0.7,1.4,-3,1.9,-3.6c0.5,-0.6,1.3,-3.3,1.9,-3.7Z" class="g25_134" />
<path d="M456.4,764c-1.2,-0.3,-1.9,0.8,-1.9,0.8l0,0.2l0,1.4l0,4.8c-0.6,-0.5,-1.7,-0.4,-2.7,0.2c-1.2,0.7,-1.8,1.8,-1.4,2.6c0.4,0.7,1.8,0.8,3,0.1c0.9,-0.5,1.5,-1.4,1.5,-2l0,-6.1c0.6,-0.5,1.4,-0.7,2.6,0.4c1,0.9,1.7,-0.5,1.7,-0.5c-0.8,-0.1,-1.6,-1.6,-2.8,-1.9Z" class="g31_134" />
<path d="M395.3,757.4c-1.3,-0.3,-2,0.8,-2,0.8l0,0.2l0,1.4l0,4.8c-0.5,-0.5,-1.6,-0.4,-2.6,0.2c-1.2,0.6,-1.9,1.8,-1.4,2.6c0.4,0.7,1.7,0.7,2.9,0.1c0.9,-0.6,1.5,-1.4,1.5,-2.1l0.1,0l0,-6c0.5,-0.5,1.3,-0.8,2.5,0.3c1.1,1,1.8,-0.4,1.8,-0.4c-0.9,-0.1,-1.6,-1.7,-2.8,-1.9Z" class="g31_134" />
<path d="M442.5,754.3c-1,-0.3,-1.6,0.7,-1.6,0.7l0,0.1l0,1.2l0,4c-0.5,-0.3,-1.4,-0.3,-2.3,0.2c-1,0.6,-1.5,1.6,-1.2,2.2c0.4,0.6,1.5,0.7,2.5,0.1c0.8,-0.5,1.3,-1.1,1.3,-1.7l0,-5.1c0.5,-0.5,1.2,-0.7,2.2,0.3c0.9,0.8,1.5,-0.4,1.5,-0.4c-0.7,-0.1,-1.3,-1.4,-2.4,-1.6Z" class="g31_134" />
<path d="M498.2,753.5c-0.7,-0.2,-1,0.4,-1,0.4l0,0.1l0,0.7l0,2.4c-0.3,-0.2,-0.9,-0.2,-1.4,0.1c-0.6,0.4,-0.9,1,-0.7,1.3c0.2,0.4,0.9,0.4,1.5,0.1c0.5,-0.3,0.8,-0.7,0.8,-1l0,-3.1c0.3,-0.3,0.7,-0.4,1.3,0.2c0.5,0.4,0.9,-0.3,0.9,-0.3c-0.5,0,-0.8,-0.8,-1.4,-0.9Z" class="g31_134" />
<path d="M271.7,967.3c-2.2,0,-4.2,4.3,1.8,3.7c2,-0.2,1.7,-3.8,-1.8,-3.7Z" class="g13_134" />
<path d="M271.7,967.3c-2.2,0,-4.2,4.3,1.8,3.7c2,-0.2,1.7,-3.8,-1.8,-3.7Z" class="g14_134" />
<path d="M224.5,1078.5c0,0,0.6,1.1,1.1,1.3c0.5,0.1,0.9,0.2,1.3,0.1c0.4,0,0.4,-0.3,1.1,-0.2c0.7,0.1,1.7,-0.2,2.1,-0.2c0.5,0,1.4,0.2,1.4,-0.2c0.1,-0.4,-1.1,-0.9,-1.1,-0.9c0,0,-0.3,-2.2,-2.7,-2.4c-2.4,-0.2,-3.2,2.5,-3.2,2.5Z" class="g9_134" />
<path d="M224.5,1078.5c0,0,0.6,1.1,1.1,1.3c0.5,0.1,0.9,0.2,1.3,0.1c0.4,0,0.4,-0.3,1.1,-0.2c0.7,0.1,1.7,-0.2,2.1,-0.2c0.5,0,1.4,0.2,1.4,-0.2c0.1,-0.4,-1.1,-0.9,-1.1,-0.9c0,0,-0.3,-2.2,-2.7,-2.4c-2.4,-0.2,-3.2,2.5,-3.2,2.5Z" class="g32_134" />
<g clip-path="url(#c2_134)">
<path d="M216.5,1018.4c0,0,-0.6,0.6,-0.6,1.4c-0.9,0.3,-0.9,0.8,-2.1,1.3c-1.3,0.5,-0.6,0.3,-1.7,0.3c-1.1,0,-1.4,0,-2,0.4c-0.6,0.4,-1.9,1.5,-3.2,2.4c-1.3,0.8,-1.9,0.9,-3,1.8c-1.1,0.9,-0.7,1.2,-1.7,1.3c-1,0.2,-3,2.7,-3.2,2.7c-0.1,0.1,-3.3,1.3,-1.2,6.6c1.8,2.9,5.3,4.3,7.4,5.8c2.2,1.5,13.7,8.5,13.7,8.5c0,0,2.6,-3.2,4.6,-6.2c2,-3,2.6,-4,2.9,-5.7c0.3,-1.7,0.2,-3.5,0.2,-3.5c0,0,-1.4,0,-1.6,-0.1c-0.2,-0.1,-1.5,-0.4,-2.1,-0.4c-0.5,0.1,-1.7,-0.3,-2.2,-0.3c-0.5,-0.1,-2,-1,-4.6,-0.9c0.4,0,-0.8,-0.8,-0.8,-0.8c0,0,-0.4,0.1,-1.4,0.1c-1,0,-1.7,-0.1,-2,0c-0.2,0.1,-0.8,0.3,-0.8,0.3c0,0,0.9,-0.7,1.2,-0.7c0.3,0,2.8,0.2,3,0.1c0.3,-0.2,2,-1.5,2.8,-1.8c0.8,-0.3,0.7,0.3,1.9,-0.3c1.2,-0.6,1.5,-1.4,2.2,-1.4c0.7,0.1,1.2,0.2,1.5,-0.2c0.4,-0.3,0.5,-0.5,0.9,-0.6c0.4,-0.2,1.3,-0.2,1.3,-0.2c0,0,0.2,2,0.3,2.7c0,0.8,0.8,3.6,0.9,4.2c0.1,0.5,-2.3,14,-2.6,15.2c-0.2,1.2,-0.7,5.4,-1,6.8c-0.2,1.4,-0.1,10,0,11.1c0,1,0.2,1.7,0,2.1c-0.3,0.4,-1.2,2,-1.4,2.7c-0.2,0.7,0,2.4,0,2.4c0,0,-0.4,0.4,-0.3,0.8c0.1,0.3,0.2,0.5,0,1c-0.1,0.4,0,1,0.1,1c0.2,0.1,0.7,0.4,1.5,0.4c0.7,-0.1,1.2,-0.2,1.7,-0.7c0.5,-0.5,0.3,-0.9,1.1,-0.8c0.9,0,2.6,-0.1,3.2,0.4c0.6,0.6,1,0.8,1,0.8c0,0,0.4,-2.3,0.4,-3.2c0,-0.8,-0.3,-2.4,-0.3,-2.4c0,0,3.3,-1.9,4.3,-3.6c1.3,-2.2,0.9,-6.7,0.9,-11.3c0,-4.7,1.3,-11.6,1.2,-15.3c-0.2,-3.6,0.7,-6.6,0.8,-9.9c0.1,-3.3,0.5,-8.1,0.2,-8.7c-0.3,-0.6,-20.4,-6.1,-21.4,-5.6Z" class="g33_134" />
</g>
<path d="M224.5,982.4c0,0,0.8,2.8,0.6,3.4c-0.2,0.6,-1.5,1.6,-1.5,1.6c0,0,-3.1,-3.7,-3.5,-4c-0.4,-0.3,-0.7,-4.2,-0.7,-5.6c0,-1.5,-1.4,-3.7,-1.1,-4.8c0.1,-0.4,-0.1,-1.4,1.4,-3.6c1.4,-2.2,6,-9.7,6.4,-10c0.4,-0.3,0.4,-0.5,0.5,-1.8c0.1,-1.3,-0.4,-7.9,-0.4,-7.9c0,0,0.5,-2.1,0.1,-2.3c-0.3,-0.3,-0.4,-0.1,-0.4,0.8c-0.1,0.9,-0.3,0.9,-0.5,1.4c-0.1,0.5,-0.5,3.9,-0.8,4.6c-0.2,0.7,-0.6,3.6,-1,4c-0.3,0.4,-6.6,7.7,-7.7,9.4c-1.1,1.7,-1.7,3,-1.8,3.4c-0.1,0.3,-0.1,2.8,-0.1,3.2c-0.1,0.5,-0.1,6.4,0.1,7.8c0.1,1.4,0.7,3.3,0.8,4c0,0.7,1.4,4.8,1.8,5.7c0.3,0.9,3.8,5.9,9.4,6.3c5.6,0.3,11.8,-2.7,13,-4.4c1.1,-1.6,2.1,-4.4,2.1,-5.2c0.1,-0.8,0,-4.7,0.2,-5.1c0.2,-0.5,0.5,-2.2,0.3,-3.9c-0.1,-1.7,-0.7,-6,-0.9,-7.1c-0.2,-1.2,-0.3,-2.8,-1.2,-3.7c-0.9,-0.9,-1.7,-1.9,-2.2,-2.7c-0.5,-0.8,-2.1,-2.7,-4.1,-4.5c-2.1,-1.9,-3.4,-2.8,-3.6,-3.8c-0.3,-0.9,-1.9,-5,-1.8,-5.4c0,-0.5,-0.2,-5,-0.4,-5c-0.2,0,-0.5,0,-0.6,0.4c0,0.4,-0.1,1.5,-0.1,1.6c-0.1,0.2,0.4,2.3,0.4,2.3c0,0,-0.5,-2.1,-0.7,-2c-0.2,0,0.1,8.8,0.4,9.3c0.2,0.6,2.2,2.4,4.1,4.9c1.9,2.6,2.7,3.8,3.2,4.4c0.4,0.6,1.8,2.5,2.1,3.1c0.2,0.6,0,2.2,0,3.2c-0.1,1,0,8.1,0,8.5c0.1,0.5,-0.9,1,-1.3,1.8c-0.4,0.9,-0.3,1.5,-1.2,1.7c-0.8,0.2,-2,0.1,-2.2,-0.1c-0.2,-0.2,-0.6,-1,-0.6,-1.9c0,-0.8,0.2,-2.6,0.2,-2.6Z" class="g9_134" />
<path d="M224.5,982.4c0,0,0.8,2.8,0.6,3.4c-0.2,0.6,-1.5,1.6,-1.5,1.6c0,0,-3.1,-3.7,-3.5,-4c-0.4,-0.3,-0.7,-4.2,-0.7,-5.6c0,-1.5,-1.4,-3.7,-1.1,-4.8c0.1,-0.4,-0.1,-1.4,1.4,-3.6c1.4,-2.2,6,-9.7,6.4,-10c0.4,-0.3,0.4,-0.5,0.5,-1.8c0.1,-1.3,-0.4,-7.9,-0.4,-7.9c0,0,0.5,-2.1,0.1,-2.3c-0.3,-0.3,-0.4,-0.1,-0.4,0.8c-0.1,0.9,-0.3,0.9,-0.5,1.4c-0.1,0.5,-0.5,3.9,-0.8,4.6c-0.2,0.7,-0.6,3.6,-1,4c-0.3,0.4,-6.6,7.7,-7.7,9.4c-1.1,1.7,-1.7,3,-1.8,3.4c-0.1,0.3,-0.1,2.8,-0.1,3.2c-0.1,0.5,-0.1,6.4,0.1,7.8c0.1,1.4,0.7,3.3,0.8,4c0,0.7,1.4,4.8,1.8,5.7c0.3,0.9,3.8,5.9,9.4,6.3c5.6,0.3,11.8,-2.7,13,-4.4c1.1,-1.6,2.1,-4.4,2.1,-5.2c0.1,-0.8,0,-4.7,0.2,-5.1c0.2,-0.5,0.5,-2.2,0.3,-3.9c-0.1,-1.7,-0.7,-6,-0.9,-7.1c-0.2,-1.2,-0.3,-2.8,-1.2,-3.7c-0.9,-0.9,-1.7,-1.9,-2.2,-2.7c-0.5,-0.8,-2.1,-2.7,-4.1,-4.5c-2.1,-1.9,-3.4,-2.8,-3.6,-3.8c-0.3,-0.9,-1.9,-5,-1.8,-5.4c0,-0.5,-0.2,-5,-0.4,-5c-0.2,0,-0.5,0,-0.6,0.4c0,0.4,-0.1,1.5,-0.1,1.6c-0.1,0.2,0.4,2.3,0.4,2.3c0,0,-0.5,-2.1,-0.7,-2c-0.2,0,0.1,8.8,0.4,9.3c0.2,0.6,2.2,2.4,4.1,4.9c1.9,2.6,2.7,3.8,3.2,4.4c0.4,0.6,1.8,2.5,2.1,3.1c0.2,0.6,0,2.2,0,3.2c-0.1,1,0,8.1,0,8.5c0.1,0.5,-0.9,1,-1.3,1.8c-0.4,0.9,-0.3,1.5,-1.2,1.7c-0.8,0.2,-2,0.1,-2.2,-0.1c-0.2,-0.2,-0.6,-1,-0.6,-1.9c0,-0.8,0.2,-2.6,0.2,-2.6l-6.7,0.6Z" class="g32_134" />
<path d="M226.8,970.9c0,0,-4.2,-0.1,-4.6,5.7c-0.4,5.9,2.7,8,5.1,8.2c2.4,0.2,5.1,-2.3,5.2,-6.3c0.1,-4.1,-1.3,-8.5,-5.7,-7.6Z" class="g9_134" />
<path d="M226.8,970.9c0,0,-4.2,-0.1,-4.6,5.7c-0.4,5.9,2.7,8,5.1,8.2c2.4,0.2,5.1,-2.3,5.2,-6.3c0.1,-4.1,-1.3,-8.5,-5.7,-7.6Z" class="g32_134" />
<path d="M228.5,973.2c0,0,-2.3,1.2,-2.8,1.5c-0.5,0.3,2.1,-1.6,2.1,-1.6c0,0,-4.1,2.8,-4.5,3c-0.4,0.2,-0.6,1.7,-0.6,2.6c0,0.9,0.5,3.6,0.5,3.6c0,0,-1.1,-1.3,-1.4,-1.9c-0.3,-0.6,-2.4,-9.5,4.4,-11.3c6.9,-1.8,8.1,5.5,8.2,6.6c0.1,1.1,-0.9,4.3,-1.5,5.2c-0.6,0.9,-1,2.6,-1,2.6c0,0,-0.7,-0.9,-0.6,-1.2c0.1,-0.3,1.1,-3.4,0.3,-6c-0.8,-2.5,-3.1,-3.1,-3.1,-3.1Z" class="g13_134" />
<path d="M228.5,973.2c0,0,-2.3,1.2,-2.8,1.5c-0.5,0.3,2.1,-1.6,2.1,-1.6c0,0,-4.1,2.8,-4.5,3c-0.4,0.2,-0.6,1.7,-0.6,2.6c0,0.9,0.5,3.6,0.5,3.6c0,0,-1.1,-1.3,-1.4,-1.9c-0.3,-0.6,-2.4,-9.5,4.4,-11.3c6.9,-1.8,8.1,5.5,8.2,6.6c0.1,1.1,-0.9,4.3,-1.5,5.2c-0.6,0.9,-1,2.6,-1,2.6c0,0,-0.7,-0.9,-0.6,-1.2c0.1,-0.3,1.1,-3.4,0.3,-6c-0.8,-2.5,-3.1,-3.1,-3.1,-3.1Z" class="g14_134" />
<path d="M220.9,984.2l2,2c0,0,0.2,-0.1,0.8,0.1c0.5,0.2,1.1,0.3,1.6,1.3c0.4,1,0.8,0.8,0.9,1.8c0.1,0.9,0,1.6,0.4,2.4c0.4,0.9,1.1,2.1,1.6,2c0.4,-0.1,0.7,-1.2,1,-1.3c0.4,-0.2,0.5,-0.7,0.6,-1.1c0.2,-0.4,0.5,-3,0.9,-3.6c0.3,-0.7,1.1,-1.8,1.1,-1.8c0,0,1.6,0.2,1.9,0.1c0.2,-0.1,1.4,-1.8,1.4,-1.8c0,0,3.1,6.7,4,7c1,0.4,2,-1.4,2,-1.4c0,0,-1.2,2.6,-1.3,3.3c0,0.7,-0.1,2.1,-0.4,3.1c-0.4,0.9,-0.2,0.8,-0.5,3.1c-0.2,2.3,-1.5,7.5,-1.4,8.7c0.1,1.2,-0.1,2.5,0.3,4.7c0.5,2.2,0.5,2.8,0.6,5c0.1,2.1,-0.3,6.9,-0.3,6.9c0,0,-0.8,0.5,-4.2,0.1c-3.3,-0.3,-4.2,-0.3,-6.6,-1c-2.3,-0.7,-6.2,-1.8,-6.7,-1.9c-0.6,-0.2,-3.7,-3.1,-4.4,-3.2c-0.7,-0.1,0.6,-1,0.6,-1c0,0,0.2,-1.4,0.8,-1.6c-0.1,-0.9,0.4,-2.3,0.9,-3.1c0.5,-0.8,0.8,-1.4,0.8,-1.4c0,0,-0.3,-1.1,0.4,-1.3c0.6,-0.1,0,-1.5,0.3,-2.2c0.2,-0.7,-0.3,-1.2,-0.3,-1.4c0,-0.2,-0.1,-1.4,-0.2,-2c0,-0.7,-1.6,-4.4,-1.7,-6c-0.1,-1.6,-0.7,-5.2,-0.8,-5.8c-0.2,-0.7,-0.3,-1.2,-0.3,-1.2c0,0,0.8,0,1.4,-1.3c0.5,-1.3,2.3,-5.7,2.8,-6.2Z" class="g34_134" />
<path d="M224.1,1043.7c0,0,0,0.9,0.3,1.8c0.2,0.9,0.5,1.5,0.5,2c0,0.5,0.1,1.8,0.3,2.2c0.2,0.4,0.5,0.5,0.5,0.5c0,0,0.2,1,0.8,1c0.5,0.1,1.2,-0.4,1.2,-1.1c0,-0.7,0.3,-1.6,0,-3c-0.3,-1.4,-0.8,-3.8,-0.7,-5.1c0.2,-1.2,0.7,-5,0.7,-5.5c0.1,-0.8,-0.9,-0.7,-0.9,-0.7c0,0,-0.4,2.6,-0.4,3.2c0,0.6,-0.2,1.4,-0.7,2.2c-0.5,0.8,-1.6,2.5,-1.6,2.5Z" class="g9_134" />
<path d="M224.1,1043.7c0,0,0,0.9,0.3,1.8c0.2,0.9,0.5,1.5,0.5,2c0,0.5,0.1,1.8,0.3,2.2c0.2,0.4,0.5,0.5,0.5,0.5c0,0,0.2,1,0.8,1c0.5,0.1,1.2,-0.4,1.2,-1.1c0,-0.7,0.3,-1.6,0,-3c-0.3,-1.4,-0.8,-3.8,-0.7,-5.1c0.2,-1.2,0.7,-5,0.7,-5.5c0.1,-0.8,-0.9,-0.7,-0.9,-0.7c0,0,-0.4,2.6,-0.4,3.2c0,0.6,-0.2,1.4,-0.7,2.2c-0.5,0.8,-1.6,2.5,-1.6,2.5Z" class="g32_134" />
<path d="M227.3,1074.6c0,0,3.9,-3.3,3.1,-4.3c-0.8,-1.1,-1.7,-1.4,-1.7,-1.9c0,-0.4,3.7,-13.6,3.8,-14.7c0.2,-1.1,-3,0.1,-2.6,-0.3c0.5,-0.5,1.6,-3.9,1.6,-3.9c0,0,-3.4,2.3,-3,1.8c0.3,-0.4,3.6,-3.6,4.4,-6.7c0.8,-3,2.5,-8.7,2.5,-9.1c0,-0.5,-3.8,2.1,-3.2,1.1c0.6,-1,3.7,-2.5,3.9,-3.5c0.1,-1,-2.5,2.8,-3.3,2.5c-0.8,-0.4,4.3,-4.9,4.3,-4.9l-3.8,1.5l1.7,-1.6c0,0,-1.8,-0.2,-0.9,-0.6c0.9,-0.3,3,-1.3,3,-1.3c0,0,-3.1,30.3,-3,33.1c0.1,1.2,0.6,3.6,-0.3,5.9c-1.1,2.7,-3.8,5.4,-6.5,6.9Z" class="g35_134" />
<path d="M268.7,1078.5c0,0,0.6,1.1,1.1,1.3c0.5,0.1,0.9,0.2,1.3,0.1c0.4,0,0.4,-0.3,1.2,-0.2c0.7,0.1,1.6,-0.2,2.1,-0.2c0.4,0,1.3,0.2,1.3,-0.2c0.1,-0.4,-1.1,-0.9,-1.1,-0.9c0,0,-0.2,-2.2,-2.6,-2.4c-2.5,-0.2,-3.3,2.5,-3.3,2.5Z" class="g9_134" />
<path d="M268.7,1078.5c0,0,0.6,1.1,1.1,1.3c0.5,0.1,0.9,0.2,1.3,0.1c0.4,0,0.4,-0.3,1.2,-0.2c0.7,0.1,1.6,-0.2,2.1,-0.2c0.4,0,1.3,0.2,1.3,-0.2c0.1,-0.4,-1.1,-0.9,-1.1,-0.9c0,0,-0.2,-2.2,-2.6,-2.4c-2.5,-0.2,-3.3,2.5,-3.3,2.5Z" class="g32_134" />
<path d="M260.7,1018.4c0,0,-0.6,0.6,-0.6,1.4c-0.9,0.3,-0.9,0.8,-2.1,1.3c-1.2,0.5,-0.5,0.3,-1.6,0.3c-1.1,0,-1.5,0,-2.1,0.4c-0.6,0.4,-1.9,1.5,-3.2,2.4c-1.2,0.8,-1.9,0.9,-3,1.8c-1.1,0.9,-0.7,1.2,-1.7,1.3c-1,0.2,-3,2.7,-3.2,2.7c-0.1,0.1,-3.3,1.3,-1.2,6.6c1.8,2.9,5.3,4.3,7.5,5.8c2.1,1.5,13.6,8.5,13.6,8.5c0,0,2.6,-3.2,4.6,-6.2c2,-3,2.6,-4,2.9,-5.7c0.3,-1.7,0.2,-3.5,0.2,-3.5c0,0,-1.4,0,-1.6,-0.1c-0.2,-0.1,-1.5,-0.4,-2,-0.4c-0.6,0.1,-1.8,-0.3,-2.3,-0.3c-0.5,-0.1,-1.9,-1,-4.6,-0.9c0.4,0,-0.8,-0.8,-0.8,-0.8c0,0,-0.4,0.1,-1.4,0.1c-1,0,-1.7,-0.1,-1.9,0c-0.3,0.1,-0.8,0.3,-0.8,0.3c0,0,0.9,-0.7,1.2,-0.7c0.3,0,2.7,0.2,2.9,0.1c0.3,-0.2,2.1,-1.5,2.9,-1.8c0.8,-0.3,0.6,0.3,1.8,-0.3c1.2,-0.6,1.5,-1.4,2.2,-1.4c0.7,0.1,1.2,0.2,1.6,-0.2c0.3,-0.3,0.4,-0.5,0.8,-0.6c0.4,-0.2,1.3,-0.2,1.3,-0.2c0,0,0.2,2,0.3,2.7c0,0.8,0.8,3.6,0.9,4.2c0.1,0.5,-2.3,14,-2.5,15.2c-0.3,1.2,-0.8,5.4,-1,6.8c-0.3,1.4,-0.1,10,-0.1,11.1c0.1,1,0.3,1.7,0,2.1c-0.2,0.4,-1.2,2,-1.4,2.7c-0.2,0.7,0.1,2.4,0.1,2.4c0,0,-0.5,0.4,-0.4,0.8c0.1,0.3,0.2,0.5,0,1c-0.1,0.4,0,1,0.2,1c0.1,0.1,0.7,0.4,1.4,0.4c0.8,-0.1,1.2,-0.2,1.7,-0.7c0.5,-0.5,0.3,-0.9,1.1,-0.8c0.9,0,2.7,-0.1,3.3,0.4c0.6,0.6,0.9,0.8,0.9,0.8c0,0,0.4,-2.3,0.4,-3.2c0,-0.8,-0.3,-2.4,-0.3,-2.4c0,0,3.4,-1.9,4.4,-3.6c1.2,-2.2,0.8,-6.7,0.8,-11.3c0,-4.7,1.3,-11.6,1.2,-15.3c-0.2,-3.6,0.7,-6.6,0.8,-9.9c0.1,-3.3,0.5,-8.1,0.2,-8.7c-0.3,-0.6,-20.4,-6.1,-21.4,-5.6Z" class="g36_134" />
<path d="M268.7,982.4c0,0,0.8,2.8,0.6,3.4c-0.2,0.6,-1.5,1.6,-1.5,1.6c0,0,-3.1,-3.7,-3.5,-4c-0.4,-0.3,-0.7,-4.2,-0.7,-5.6c0,-1.5,-1.3,-3.7,-1,-4.8c0.1,-0.4,-0.1,-1.4,1.3,-3.6c1.4,-2.2,6,-9.7,6.4,-10c0.4,-0.3,0.4,-0.5,0.5,-1.8c0.1,-1.3,-0.4,-7.9,-0.4,-7.9c0,0,0.5,-2.1,0.1,-2.3c-0.3,-0.3,-0.4,-0.1,-0.4,0.8c-0.1,0.9,-0.3,0.9,-0.5,1.4c-0.1,0.5,-0.5,3.9,-0.7,4.6c-0.3,0.7,-0.7,3.6,-1,4c-0.4,0.4,-6.6,7.7,-7.8,9.4c-1.1,1.7,-1.7,3,-1.8,3.4c-0.1,0.3,-0.1,2.8,-0.1,3.2c-0.1,0.5,-0.1,6.4,0.1,7.8c0.1,1.4,0.7,3.3,0.8,4c0,0.7,1.5,4.8,1.8,5.7c0.4,0.9,3.8,5.9,9.4,6.3c5.6,0.3,11.8,-2.7,13,-4.4c1.2,-1.6,2.1,-4.4,2.2,-5.2c0,-0.8,-0.1,-4.7,0.1,-5.1c0.2,-0.5,0.5,-2.2,0.4,-3.9c-0.1,-1.7,-0.7,-6,-0.9,-7.1c-0.2,-1.2,-0.3,-2.8,-1.2,-3.7c-1,-0.9,-1.8,-1.9,-2.3,-2.7c-0.5,-0.8,-2,-2.7,-4.1,-4.5c-2.1,-1.9,-3.3,-2.8,-3.6,-3.8c-0.2,-0.9,-1.8,-5,-1.8,-5.4c0.1,-0.5,-0.1,-5,-0.4,-5c-0.2,0,-0.5,0,-0.6,0.4c0,0.4,-0.1,1.5,-0.1,1.6c-0.1,0.2,0.4,2.3,0.4,2.3c0,0,-0.5,-2.1,-0.7,-2c-0.2,0,0.2,8.8,0.4,9.3c0.2,0.6,2.3,2.4,4.1,4.9c1.9,2.6,2.8,3.8,3.2,4.4c0.5,0.6,1.8,2.5,2.1,3.1c0.2,0.6,0,2.2,0,3.2c-0.1,1,0,8.1,0,8.5c0.1,0.5,-0.8,1,-1.2,1.8c-0.4,0.9,-0.4,1.5,-1.2,1.7c-0.9,0.2,-2.1,0.1,-2.3,-0.1c-0.2,-0.2,-0.6,-1,-0.6,-1.9c0,-0.8,0.2,-2.6,0.2,-2.6Z" class="g9_134" />
<path d="M268.7,982.4c0,0,0.8,2.8,0.6,3.4c-0.2,0.6,-1.5,1.6,-1.5,1.6c0,0,-3.1,-3.7,-3.5,-4c-0.4,-0.3,-0.7,-4.2,-0.7,-5.6c0,-1.5,-1.3,-3.7,-1,-4.8c0.1,-0.4,-0.1,-1.4,1.3,-3.6c1.4,-2.2,6,-9.7,6.4,-10c0.4,-0.3,0.4,-0.5,0.5,-1.8c0.1,-1.3,-0.4,-7.9,-0.4,-7.9c0,0,0.5,-2.1,0.1,-2.3c-0.3,-0.3,-0.4,-0.1,-0.4,0.8c-0.1,0.9,-0.3,0.9,-0.5,1.4c-0.1,0.5,-0.5,3.9,-0.7,4.6c-0.3,0.7,-0.7,3.6,-1,4c-0.4,0.4,-6.6,7.7,-7.8,9.4c-1.1,1.7,-1.7,3,-1.8,3.4c-0.1,0.3,-0.1,2.8,-0.1,3.2c-0.1,0.5,-0.1,6.4,0.1,7.8c0.1,1.4,0.7,3.3,0.8,4c0,0.7,1.5,4.8,1.8,5.7c0.4,0.9,3.8,5.9,9.4,6.3c5.6,0.3,11.8,-2.7,13,-4.4c1.2,-1.6,2.1,-4.4,2.2,-5.2c0,-0.8,-0.1,-4.7,0.1,-5.1c0.2,-0.5,0.5,-2.2,0.4,-3.9c-0.1,-1.7,-0.7,-6,-0.9,-7.1c-0.2,-1.2,-0.3,-2.8,-1.2,-3.7c-1,-0.9,-1.8,-1.9,-2.3,-2.7c-0.5,-0.8,-2,-2.7,-4.1,-4.5c-2.1,-1.9,-3.3,-2.8,-3.6,-3.8c-0.2,-0.9,-1.8,-5,-1.8,-5.4c0.1,-0.5,-0.1,-5,-0.4,-5c-0.2,0,-0.5,0,-0.6,0.4c0,0.4,-0.1,1.5,-0.1,1.6c-0.1,0.2,0.4,2.3,0.4,2.3c0,0,-0.5,-2.1,-0.7,-2c-0.2,0,0.2,8.8,0.4,9.3c0.2,0.6,2.3,2.4,4.1,4.9c1.9,2.6,2.8,3.8,3.2,4.4c0.5,0.6,1.8,2.5,2.1,3.1c0.2,0.6,0,2.2,0,3.2c-0.1,1,0,8.1,0,8.5c0.1,0.5,-0.8,1,-1.2,1.8c-0.4,0.9,-0.4,1.5,-1.2,1.7c-0.9,0.2,-2.1,0.1,-2.3,-0.1c-0.2,-0.2,-0.6,-1,-0.6,-1.9c0,-0.8,0.2,-2.6,0.2,-2.6l-6.7,0.6Z" class="g32_134" />
<path d="M271,970.9c0,0,-4.2,-0.1,-4.6,5.7c-0.4,5.9,2.7,8,5.1,8.2c2.5,0.2,5.1,-2.3,5.2,-6.3c0.1,-4.1,-1.3,-8.5,-5.7,-7.6Z" class="g9_134" />
<path d="M271,970.9c0,0,-4.2,-0.1,-4.6,5.7c-0.4,5.9,2.7,8,5.1,8.2c2.5,0.2,5.1,-2.3,5.2,-6.3c0.1,-4.1,-1.3,-8.5,-5.7,-7.6Z" class="g32_134" />
<path d="M265.1,984.2l2,2c0,0,0.3,-0.1,0.8,0.1c0.6,0.2,1.1,0.3,1.6,1.3c0.4,1,0.8,0.8,0.9,1.8c0.1,0.9,0,1.6,0.4,2.4c0.4,0.9,1.2,2.1,1.6,2c0.5,-0.1,0.7,-1.2,1.1,-1.3c0.3,-0.2,0.4,-0.7,0.6,-1.1c0.1,-0.4,0.4,-3,0.8,-3.6c0.3,-0.7,1.1,-1.8,1.1,-1.8c0,0,1.7,0.2,1.9,0.1c0.3,-0.1,1.4,-1.8,1.4,-1.8c0,0,3.1,6.7,4.1,7c0.9,0.4,1.9,-1.4,1.9,-1.4c0,0,-1.2,2.6,-1.2,3.3c-0.1,0.7,-0.1,2.1,-0.5,3.1c-0.3,0.9,-0.2,0.8,-0.5,3.1c-0.2,2.3,-1.5,7.5,-1.4,8.7c0.1,1.2,-0.1,2.5,0.3,4.7c0.5,2.2,0.5,2.8,0.6,5c0.1,2.1,-0.3,6.9,-0.3,6.9c0,0,-0.8,0.5,-4.1,0.1c-3.4,-0.3,-4.3,-0.3,-6.7,-1c-2.3,-0.7,-6.2,-1.8,-6.7,-1.9c-0.6,-0.2,-3.7,-3.1,-4.4,-3.2c-0.7,-0.1,0.7,-1,0.7,-1c0,0,0.1,-1.4,0.8,-1.6c-0.2,-0.9,0.3,-2.3,0.8,-3.1c0.5,-0.8,0.8,-1.4,0.8,-1.4c0,0,-0.2,-1.1,0.4,-1.3c0.6,-0.1,0,-1.5,0.3,-2.2c0.2,-0.7,-0.3,-1.2,-0.3,-1.4c0,-0.2,-0.1,-1.4,-0.2,-2c0,-0.7,-1.6,-4.4,-1.7,-6c-0.1,-1.6,-0.6,-5.2,-0.8,-5.8c-0.1,-0.7,-0.3,-1.2,-0.3,-1.2c0,0,0.9,0,1.4,-1.3c0.6,-1.3,2.3,-5.7,2.8,-6.2Z" class="g37_134" />
<path d="M268.3,1043.7c0,0,0.1,0.9,0.3,1.8c0.3,0.9,0.5,1.5,0.5,2c0,0.5,0.1,1.8,0.3,2.2c0.2,0.4,0.5,0.5,0.5,0.5c0,0,0.2,1,0.8,1c0.5,0.1,1.2,-0.4,1.2,-1.1c0,-0.7,0.3,-1.6,0,-3c-0.3,-1.4,-0.8,-3.8,-0.7,-5.1c0.2,-1.2,0.7,-5,0.8,-5.5c0.1,-0.8,-1,-0.7,-1,-0.7c0,0,-0.4,2.6,-0.4,3.2c0,0.6,-0.2,1.4,-0.7,2.2c-0.5,0.8,-1.6,2.5,-1.6,2.5Z" class="g9_134" />
<path d="M268.3,1043.7c0,0,0.1,0.9,0.3,1.8c0.3,0.9,0.5,1.5,0.5,2c0,0.5,0.1,1.8,0.3,2.2c0.2,0.4,0.5,0.5,0.5,0.5c0,0,0.2,1,0.8,1c0.5,0.1,1.2,-0.4,1.2,-1.1c0,-0.7,0.3,-1.6,0,-3c-0.3,-1.4,-0.8,-3.8,-0.7,-5.1c0.2,-1.2,0.7,-5,0.8,-5.5c0.1,-0.8,-1,-0.7,-1,-0.7c0,0,-0.4,2.6,-0.4,3.2c0,0.6,-0.2,1.4,-0.7,2.2c-0.5,0.8,-1.6,2.5,-1.6,2.5Z" class="g32_134" />
<path d="M271.6,1074.6c0,0,3.8,-3.3,3,-4.3c-0.8,-1.1,-1.7,-1.4,-1.7,-1.9c0,-0.4,3.8,-13.6,3.9,-14.7c0.1,-1.1,-3.1,0.1,-2.6,-0.3c0.4,-0.5,1.5,-3.9,1.5,-3.9c0,0,-3.4,2.3,-3,1.8c0.3,-0.4,3.6,-3.6,4.4,-6.7c0.8,-3,2.5,-8.7,2.5,-9.1c0,-0.5,-3.7,2.1,-3.2,1.1c0.6,-1,3.8,-2.5,3.9,-3.5c0.1,-1,-2.5,2.8,-3.3,2.5c-0.8,-0.4,4.3,-4.9,4.3,-4.9l-3.7,1.5l1.7,-1.6c0,0,-1.9,-0.2,-0.9,-0.6c0.9,-0.3,2.9,-1.3,2.9,-1.3c0,0,-3.1,30.3,-2.9,33.1c0,1.2,0.5,3.6,-0.4,5.9c-1.1,2.7,-3.7,5.4,-6.4,6.9Z" class="g38_134" />
<path d="M266.4,978.2c-0.1,-0.3,1.2,-4.4,3.3,-4.8c2.1,-0.5,5.2,0.1,6.2,2.4c1,2.2,0.7,2.7,0.7,2.7c0,0,1.7,-2.9,0.7,-5.8c-1,-2.5,-2.9,-3.9,-4.5,-4.1c-1.6,-0.1,-4.9,0.2,-6.4,2.8c-1.1,1.9,-1.1,6.2,0,6.8Z" class="g13_134" />
<path d="M266.4,978.2c-0.1,-0.3,1.2,-4.4,3.3,-4.8c2.1,-0.5,5.2,0.1,6.2,2.4c1,2.2,0.7,2.7,0.7,2.7c0,0,1.7,-2.9,0.7,-5.8c-1,-2.5,-2.9,-3.9,-4.5,-4.1c-1.6,-0.1,-4.9,0.2,-6.4,2.8c-1.1,1.9,-1.1,6.2,0,6.8Z" class="g14_134" />
<path d="M455.9,978.2c0,0,2.6,4.6,1.8,5.7c-0.7,1.2,-1.5,1.2,-2.9,1.5c-1.5,0.3,-3.3,-2.8,-2.9,-3.6c0.3,-0.8,2.1,-4.1,4,-3.6Z" class="g9_134" />
<path d="M455.9,978.2c0,0,2.6,4.6,1.8,5.7c-0.7,1.2,-1.5,1.2,-2.9,1.5c-1.5,0.3,-3.3,-2.8,-2.9,-3.6c0.3,-0.8,2.1,-4.1,4,-3.6Z" class="g39_134" />
<path d="M449.1,955.9c0,0,5.7,1.2,5.7,8.2c0,6.7,-8,6.5,-9.1,6.5c-1.2,0,-4,-12.7,-1.9,-14.7c1.7,-0.8,5.3,0,5.3,0Z" class="g9_134" />
<path d="M449.1,955.9c0,0,5.7,1.2,5.7,8.2c0,6.7,-8,6.5,-9.1,6.5c-1.2,0,-4,-12.7,-1.9,-14.7c1.7,-0.8,5.3,0,5.3,0Z" class="g39_134" />
<g clip-path="url(#c3_134)">
<path d="M453.7,957.4c0,0,-3.5,1.6,-3.9,2.4c-0.3,0.4,-1.8,2.1,-2.9,2.4c-3.8,-1.7,-2,1.6,-2,1.6l-4.1,2.4c0,0,-3.9,-8.2,3.4,-11.5c5.2,-2.3,9.5,2.7,9.5,2.7Z" class="g40_134" />
</g>
<path d="M457,985.1c0,0,-1.1,0.9,-1.1,1.7c0,0.7,-4.8,6.3,-4.8,6.3l-0.7,-9.6l1.5,-0.9c0,0,2.3,2.4,5.1,2.5Z" class="g41_134" />
<path d="M450.4,970.6c0,0,-1.7,1.6,-2.2,2.4c-0.4,0.7,-0.3,2.8,0.7,3.5c1,0.8,2.3,4.8,2.9,7.6c0.6,2.8,-2.4,21.5,-3.8,23.6c-1.4,2,-15.2,-0.8,-15.2,-0.8l0,-17.4c0,0.1,-5.5,-3.5,-5.3,-4.8c0.1,-1.4,2.7,-6.8,4.3,-7.9c1.6,-1,7.9,-9.6,7.9,-9.6Z" class="g42_134" />
<path d="M448,1007.7c0,0,7.4,14.8,7.6,16.6c0.3,1.7,1.5,5.3,2.3,6.5c0.7,1.2,0.7,5.8,1.8,7.2c1,1.5,5.9,15.5,10,18.6c4.2,3.1,-4.6,4.6,-6.2,1.7c-1.6,-2.8,-9.5,-13.7,-10.7,-15.7c-1.2,-1.9,-15.4,-24.4,-15.4,-24.4c0,0,-4.1,17.3,-6.4,18.5c-2.2,1.2,-19.2,6.5,-24,13c-5.6,1.2,-2.3,-5.6,-2.3,-5.6c0,0,10.5,-9.5,12.4,-10.4c1.9,-0.8,8.6,-2.5,9.4,-4c0.7,-1.4,1.1,-10.2,2.9,-13.3c1.8,-3.1,2.8,-10.4,2.8,-10.4Z" class="g43_134" />
<g clip-path="url(#c3_134)">
<path d="M480.1,1059.8c0,0,0.2,3.1,-4.3,4.5c-3.3,0.5,-4.7,-0.5,-7.6,0c-2.9,0.4,-5.3,-0.2,-6,-0.8c-0.8,-0.6,-0.8,-5.2,0.9,-5.6c3.1,3.5,6.6,-1.3,6.6,-1.3c0,0,3.7,2.3,4.8,2.6c1,0.3,4.6,-0.8,5.6,0.6Z" class="g44_134" />
</g>
<path d="M407,1049.7c0,0,-1,2,-2.3,4c-1.4,2.1,-1,3.6,-1.7,6.1c-0.4,1.6,-2.7,2.3,-2.9,-1.3c-0.6,-11.1,-2.6,-9.6,-1.8,-13.2c0.7,-3.6,7.2,-1.9,7.2,-1.9c0,0,-1.7,5.6,1.5,6.3Z" class="g44_134" />
<path d="M443.4,957c0,0,2.9,5.8,2.1,9.2c-0.7,3.3,-3.1,4.6,-4.7,4.4c-3.7,-0.4,-7,-1.9,-7,-1.9c0,0,-3.7,-5.9,-2.5,-8.5c1.2,-2.5,2.8,-4.6,6.4,-4.6c3.5,0,3.2,-0.3,5.7,1.4Z" class="g9_134" />
<path d="M443.4,957c0,0,2.9,5.8,2.1,9.2c-0.7,3.3,-3.1,4.6,-4.7,4.4c-3.7,-0.4,-7,-1.9,-7,-1.9c0,0,-3.7,-5.9,-2.5,-8.5c1.2,-2.5,2.8,-4.6,6.4,-4.6c3.5,0,3.2,-0.3,5.7,1.4Z" class="g39_134" />
<g clip-path="url(#c3_134)">
<path d="M438.7,963.3l4.7,-6.3c0,0,-2.8,-4,-9.3,-1.4c-3.1,1.5,-4,4,-4,4c0,0,-2.5,-3.9,-8.8,-0.7c-2.6,1.3,-4.1,0,-4.1,0c0,0,1.5,2.5,3,2.5c1.4,0,0.9,1.4,2.2,1.8c1.3,0.3,3.5,-0.8,4.1,0c0.6,0.7,0.9,1.9,0,1.9c-0.9,0,0.8,1.8,2.3,1.1c1.4,-0.8,2.4,-3.4,2.5,-3c0.1,2.3,1.7,4,1.7,4l3,-1c0,0,-1.8,-4.2,0.9,-4.4c1.4,-0.3,1.8,1.5,1.8,1.5Z" class="g45_134" />
</g>
<path d="M410.7,1034.8c0,0,-11.1,0,-11.8,0.6c-0.7,0.6,-2.2,4.6,-1.2,5.5c1,0.8,4.8,-2.1,12.2,0c5.2,-1.8,0.8,-6.1,0.8,-6.1Z" class="g9_134" />
<path d="M410.7,1034.8c0,0,-11.1,0,-11.8,0.6c-0.7,0.6,-2.2,4.6,-1.2,5.5c1,0.8,4.8,-2.1,12.2,0c5.2,-1.8,0.8,-6.1,0.8,-6.1Z" class="g39_134" />
<path d="M454.8,1065.8c0,0,-2.6,-3.4,-4.4,-15.8c-4,1.3,-6,2.4,-6,2.4l3.9,14c0,0,3.7,2.3,3.7,2.1c0,-0.1,2.8,-2.7,2.8,-2.7Z" class="g9_134" />
<path d="M454.8,1065.8c0,0,-2.6,-3.4,-4.4,-15.8c-4,1.3,-6,2.4,-6,2.4l3.9,14c0,0,3.7,2.3,3.7,2.1c0,-0.1,2.8,-2.7,2.8,-2.7Z" class="g39_134" />
<path d="M434.9,1024.4c0.1,0.4,1.1,7.1,-2.4,13.8c-3.6,6.7,-4,5,-7,4.8c-3,-0.2,-15.6,-2.1,-15.6,-2.1l0.9,-7c0,0,10.2,-0.2,12.2,0.6c2.1,0.7,-0.8,-15.7,0.4,-18.5c1.2,-2.9,11.5,8.4,11.5,8.4Z" class="g46_134" />
<path d="M439.9,1010c0,0,0.3,2.7,2.5,4.9c2.2,2.2,8,19.1,7.6,20c-0.3,0.9,1,17,1,17c0,0,-5.6,1.6,-6.4,1.3c-0.7,-0.3,-1.9,-3.6,-2.4,-6.6c-0.4,-2.9,-0.5,-8.9,-0.8,-9.7c-0.3,-0.9,-10.1,-14,-12.6,-15.6c-2.5,-1.6,-8.7,-6.5,-5.4,-13.5c2.6,0.7,16.5,2.2,16.5,2.2Z" class="g47_134" />
<path d="M442.4,971.8c0,0,-2.1,1.3,-2.4,2.5c-0.3,1.2,3.6,9.4,4.8,11.1c1.1,1.8,-2.7,6.5,-2.4,7c0.3,0.4,1,4.4,1,4.4c0,0,8.8,4.2,11.4,4.6c-0.8,1.2,-0.7,4.6,-0.7,4.6c0,0,-7.1,-1.6,-8.5,-1.8c-1.3,-0.1,-3.2,-0.1,-3.2,-0.1l-2.2,7.2c0,0,-4.3,-2,-8.5,-2c-4.1,0,-8.3,-1.5,-8.3,-1.5c0,0,3.6,-4.1,3.6,-5.2c0,-1,-0.3,-4.3,-0.3,-4.3c0,0,-0.5,-20.7,0.3,-21.5c0.8,-0.7,5.9,-6.2,5.9,-6.2l0.9,-1.9Z" class="g48_134" />
<path d="M436.9,975.9c1.5,0.6,0,5.1,-1.1,6.7c-1,1.6,-9.2,8.5,-9.2,8.5c0,0,7.7,6.2,9.2,6.9c1.6,0.8,-1.1,4.9,-1.7,5.1c-0.6,0.1,-13.3,-8,-13.9,-9.1c-0.6,-1,1.6,-8.6,7.7,-15.1c6,-6.5,7.8,-3.4,9,-3Z" class="g49_134" />
<path d="M436.9,999.1c0,0,4.4,-0.3,5.5,0c1,0.3,2.7,1.6,2.1,4c-0.5,2.3,-4,1.4,-5.4,1.1c-1.3,-0.3,-3.9,-2.4,-3.9,-2.4c0,0,-0.2,-2.6,1.7,-2.7Z" class="g9_134" />
<path d="M436.9,999.1c0,0,4.4,-0.3,5.5,0c1,0.3,2.7,1.6,2.1,4c-0.5,2.3,-4,1.4,-5.4,1.1c-1.3,-0.3,-3.9,-2.4,-3.9,-2.4c0,0,-0.2,-2.6,1.7,-2.7Z" class="g39_134" />
<path d="M454.8,1001.4c0,0,4.6,-1,6,-1c1.3,0,2.9,-0.2,2.5,1c-0.5,1.2,-1.2,4.2,-1.8,4.3c-0.6,0.2,-7.4,0.3,-7.4,0.3c0,0,-0.5,-4.3,0.7,-4.6Z" class="g9_134" />
<path d="M454.8,1001.4c0,0,4.6,-1,6,-1c1.3,0,2.9,-0.2,2.5,1c-0.5,1.2,-1.2,4.2,-1.8,4.3c-0.6,0.2,-7.4,0.3,-7.4,0.3c0,0,-0.5,-4.3,0.7,-4.6Z" class="g39_134" />
<g clip-path="url(#c3_134)">
<path d="M454,1064.4c0,0,-3,1.4,-6,0.9c-1,-0.3,-2.4,5.3,-2.4,5.3c0,0,2.8,2.4,7.5,1.5c1.8,2.1,7.5,3.1,11.1,0.2c3.5,-2.8,-4.2,-1.5,-6.4,-4.6c-2.2,-3.1,-3.8,-3.3,-3.8,-3.3Z" class="g50_134" />
<path d="M395,1031.8c0,0,4.6,2.7,4.7,3c0.1,0.4,-2.6,3.9,-0.8,6.2c0,1.4,-4.1,1.9,-5.4,4.3c-1.4,2.4,-1.6,4,-2.5,4.6c-0.9,0.6,-2.4,-0.7,-2.6,-5.2c-0.1,-4.4,2.6,-5.7,2.7,-6.8c0.2,-1,0,-5.3,3.9,-6.1Z" class="g50_134" />
</g>
<path d="M876.9,1141.6l57.3,0l0,-1153.4l-57.3,0l0,1153.4Z" class="g51_134" />
<text 
x="879" 
y="1166" 
dx="0,1.2,1.2,0" 
class="s9_134"
>111 </text>

<text 
transform="matrix(0, 1, -1, 0, 888, 695)"
dx="0,1.2,1.2,1.2,1.2,1.2,1.2,1.2,1.2,1.2" 
class="s10_134"
>Lesson 14 </text>

<text 
transform="matrix(0, 1, -1, 0, 888, 785)"
dx="0,1.2" 
class="s10_134"
>| </text>

<text 
transform="matrix(0, 1, -1, 0, 888, 802)"
dx="0,1.2,1.2,1,1.2,1.2,1.2,1.2,1.2,1.2,1.2,1.2,1.2,1.2,1.2,1.2,1.2,1.2,1.2,1.2,1.2" 
class="s10_134"
>Lifestyle and Health </text>

<text 
transform="matrix(0, 1, -1, 0, 888, 969)"
dx="0,1.2" 
class="s10_134"
>| </text>

<text 
transform="matrix(0, 1, -1, 0, 888, 986)"
dx="0,1.2,1.2,1.2,1.2,1.2,1.2,1,1.2,1.2,1.2,1.2,1.2,1.2,1.2,1.2,1.2,0" 
class="s10_134"
>Language Practice </text>



<!-- Any embedded fonts defined here -->
<style type="text/css" ><![CDATA[

@font-face {
	font-family: LibreFranklin-Medium_cs0;
	src: url("fonts/LibreFranklin-Medium_cs0.woff") format("woff");
}

@font-face {
	font-family: STKaiTi-TC-Regular_cev;
	src: url("fonts/STKaiTi-TC-Regular_cev.woff") format("woff");
}

@font-face {
	font-family: LibreFranklin-SemiBold_ctv;
	src: url("fonts/LibreFranklin-SemiBold_ctv.woff") format("woff");
}

@font-face {
	font-family: LibreFranklin-ExtraBold_cs2;
	src: url("fonts/LibreFranklin-ExtraBold_cs2.woff") format("woff");
}

@font-face {
	font-family: STKaiti-SC-Regular_cf1;
	src: url("fonts/STKaiti-SC-Regular_cf1.woff") format("woff");
}

@font-face {
	font-family: LibreFranklin-Regular_csl;
	src: url("fonts/LibreFranklin-Regular_csl.woff") format("woff");
}

@font-face {
	font-family: LibreFranklin-Bold_cru;
	src: url("fonts/LibreFranklin-Bold_cru.woff") format("woff");
}

]]></style>

</svg>
