<?xml version="1.0" encoding="UTF-8" standalone="no"?>
<!DOCTYPE svg PUBLIC "-//W3C//DTD SVG 1.1//EN"
"http://www.w3.org/Graphics/SVG/1.1/DTD/svg11.dtd">


<!-- Page 408 -->
<svg x="0" y="0" width="921" height="1196" viewBox="0 0 921 1196" version="1.1" xmlns="http://www.w3.org/2000/svg" xmlns:xlink="http://www.w3.org/1999/xlink"
style="display: block;margin-left: auto;margin-right: auto;">
<defs>

<style type="text/css"><![CDATA[

.g1_408{
fill: #DC262E;
stroke: #B2B3B7;
stroke-width: 1.5277778;
stroke-linecap: butt;
stroke-linejoin: miter;
stroke-miterlimit: 4;
}
.g2_408{
fill: #57585A;
stroke: #B2B3B7;
stroke-width: 1.5277778;
stroke-linecap: butt;
stroke-linejoin: miter;
stroke-miterlimit: 4;
}
.g3_408{
fill: #F0F1F2;
}
.g4_408{
fill: none;
stroke: #BDBEC1;
stroke-width: 0.38194445;
stroke-linecap: butt;
stroke-linejoin: miter;
}
.g5_408{
fill: none;
stroke: #DADBDD;
stroke-width: 1.5277778;
stroke-linecap: butt;
stroke-linejoin: miter;
}

.s1_408{
font-size: 13.75px;
font-family: LibreFranklin-Medium_dhv;
fill: #231F20;
}
.s2_408{
font-size: 13.75px;
font-family: LibreFranklin-SemiBold_di0;
fill: #FFFFFF;
}
.s3_408{
font-size: 13.75px;
font-family: LibreFranklin-SemiBold_di3;
fill: #FFFFFF;
}
.s4_408{
font-size: 14.51px;
font-family: LibreFranklin-SemiBold_di3;
fill: #57585A;
}
.s5_408{
font-size: 13.75px;
font-family: LibreFranklin-Light_dib;
fill: #3F3F40;
}
.s6_408{
font-size: 24.44px;
font-family: STKaiti-SC-Regular_cf1;
fill: #57585A;
}
.s7_408{
font-size: 24.44px;
font-family: STKaiTi-TC-Regular_cev;
fill: #57585A;
}
.s8_408{
font-size: 14.90px;
font-family: GentiumBookBasic-Italic_chu;
fill: #3F3F40;
}
.s9_408{
font-size: 14.51px;
font-family: LibreFranklin-Regular_di7;
fill: #3F3F40;
}
.s10_408{
font-size: 14.51px;
font-family: LibreFranklin-SemiBold_di3;
fill: #77787B;
}

]]></style>

</defs>
<path d="M0,0
L0,1196
L921,1196
L921,0 Z " 
fill="#FFFFFF" stroke="none" />
<path d="M876.9,1141.6l57.3,0l0,-1153.4l-57.3,0l0,1153.4Z" class="g1_408" />
<text 
x="871" 
y="1166" 
dx="0,1.2,1.2,0" 
class="s1_408"
>385 </text>

<text 
transform="matrix(0, 1, -1, 0, 888, 736)"
dx="0,1.2,1.2,1.2,1.2,1.2,1.2,1.2,1.2,1.2" 
class="s2_408"
>Lesson 20 </text>

<text 
transform="matrix(0, 1, -1, 0, 888, 828)"
dx="0,1.2" 
class="s2_408"
>| </text>

<text 
transform="matrix(0, 1, -1, 0, 888, 845)"
dx="0,1.2,1.2,1.2,1.2,0.2,1.2,1.2,1.2,1.2,1.2,1.2,1.2,1.2,1.2,1.1,1.2,1.2,1.2,1.2,1.2,1.2,1.2,1.2,1.2,1.2,1.2,1.2,1.2" 
class="s2_408"
>The World Is Getting Smaller </text>

<text 
transform="matrix(0, 1, -1, 0, 888, 1080)"
dx="0,1.2" 
class="s2_408"
>| </text>

<text 
transform="matrix(0, 1, -1, 0, 888, 1097)"
dx="0,-0.3,0.9,0.9" 
class="s2_408"
>Text</text>

<path d="M876.9,1141.6l57.3,0l0,-1153.4l-57.3,0l0,1153.4Z" class="g2_408" />
<text 
x="871" 
y="1166" 
dx="0,1.2,1.2,0" 
class="s1_408"
>385 </text>

<text 
transform="matrix(0, 1, -1, 0, 888, 751)"
dx="0,0.2,1.2,1.2,1.2,1.2,1.2,1.2,1.2,1.2,1.2,1.2,1.2,1.2,1.2,0.9,1.2,1.2,1.2,1.2,1.2,1.2,1.2,1.2,1.2,1.2,1.2,1.2,1.2,1.2,1.2,1.2,1.2,1.2,1.2,1.2,1.2,0.2,1.2,1.2,1.2,1.2,1.2,1.2,1.2,1.2,1.2" 
class="s3_408"
>Vocabulary Index (English-Chinese), Volumes 3–4</text>

<path d="M55,101.1l189.1,0l0,45.9L55,147l0,-45.9Zm189.1,0l179.6,0l0,45.9l-179.6,0l0,-45.9Zm179.6,0l177.9,0l0,45.9l-177.9,0l0,-45.9Zm177.9,0l135.2,0l0,45.9l-135.2,0l0,-45.9Zm135.2,0l66.2,0l0,45.9l-66.2,0l0,-45.9Zm66.2,0l63.3,0l0,45.9L803,147l0,-45.9ZM55,191.3l189.1,0l0,65.3L55,256.6l0,-65.3Zm189.1,0l179.6,0l0,65.3l-179.6,0l0,-65.3Zm179.6,0l177.9,0l0,65.3l-177.9,0l0,-65.3Zm177.9,0l135.2,0l0,65.3l-135.2,0l0,-65.3Zm135.2,0l66.2,0l0,65.3l-66.2,0l0,-65.3Zm66.2,0l63.3,0l0,65.3l-63.3,0l0,-65.3ZM55,301.9l189.1,0l0,45.4L55,347.3l0,-45.4Zm189.1,0l179.6,0l0,45.4l-179.6,0l0,-45.4Zm179.6,0l177.9,0l0,45.4l-177.9,0l0,-45.4Zm177.9,0l135.2,0l0,45.4l-135.2,0l0,-45.4Zm135.2,0l66.2,0l0,45.4l-66.2,0l0,-45.4Zm66.2,0l63.3,0l0,45.4l-63.3,0l0,-45.4ZM55,392.7l189.1,0l0,45.3L55,438l0,-45.3Zm189.1,0l179.6,0l0,45.3l-179.6,0l0,-45.3Zm179.6,0l177.9,0l0,45.3l-177.9,0l0,-45.3Zm177.9,0l135.2,0l0,45.3l-135.2,0l0,-45.3Zm135.2,0l66.2,0l0,45.3l-66.2,0l0,-45.3Zm66.2,0l63.3,0l0,45.3L803,438l0,-45.3ZM55,503.3l189.1,0l0,45.3L55,548.6l0,-45.3Zm189.1,0l179.6,0l0,45.3l-179.6,0l0,-45.3Zm179.6,0l177.9,0l0,45.3l-177.9,0l0,-45.3Zm177.9,0l135.2,0l0,45.3l-135.2,0l0,-45.3Zm135.2,0l66.2,0l0,45.3l-66.2,0l0,-45.3Zm66.2,0l63.3,0l0,45.3l-63.3,0l0,-45.3ZM55,591.4l189.1,0l0,42.8L55,634.2l0,-42.8Zm189.1,0l179.6,0l0,42.8l-179.6,0l0,-42.8Zm179.6,0l177.9,0l0,42.8l-177.9,0l0,-42.8Zm177.9,0l135.2,0l0,42.8l-135.2,0l0,-42.8Zm135.2,0l66.2,0l0,42.8l-66.2,0l0,-42.8Zm66.2,0l63.3,0l0,42.8l-63.3,0l0,-42.8ZM55,677l189.1,0l0,42.7L55,719.7L55,677Zm189.1,0l179.6,0l0,42.7l-179.6,0l0,-42.7Zm179.6,0l177.9,0l0,42.7l-177.9,0l0,-42.7Zm177.9,0l135.2,0l0,42.7l-135.2,0l0,-42.7Zm135.2,0l66.2,0l0,42.7l-66.2,0l0,-42.7Zm66.2,0l63.3,0l0,42.7l-63.3,0L803,677ZM55,765.1l189.1,0l0,42.8L55,807.9l0,-42.8Zm189.1,0l179.6,0l0,42.8l-179.6,0l0,-42.8Zm179.6,0l177.9,0l0,42.8l-177.9,0l0,-42.8Zm177.9,0l135.2,0l0,42.8l-135.2,0l0,-42.8Zm135.2,0l66.2,0l0,42.8l-66.2,0l0,-42.8Zm66.2,0l63.3,0l0,42.8l-63.3,0l0,-42.8ZM55,853.3l189.1,0l0,42.7L55,896l0,-42.7Zm189.1,0l179.6,0l0,42.7l-179.6,0l0,-42.7Zm179.6,0l177.9,0l0,42.7l-177.9,0l0,-42.7Zm177.9,0l135.2,0l0,42.7l-135.2,0l0,-42.7Zm135.2,0l66.2,0l0,42.7l-66.2,0l0,-42.7Zm66.2,0l63.3,0l0,42.7L803,896l0,-42.7ZM55,938.8l189.1,0l0,42.8L55,981.6l0,-42.8Zm189.1,0l179.6,0l0,42.8l-179.6,0l0,-42.8Zm179.6,0l177.9,0l0,42.8l-177.9,0l0,-42.8Zm177.9,0l135.2,0l0,42.8l-135.2,0l0,-42.8Zm135.2,0l66.2,0l0,42.8l-66.2,0l0,-42.8Zm66.2,0l63.3,0l0,42.8l-63.3,0l0,-42.8ZM55,1024.4l189.1,0l0,42.7l-189.1,0l0,-42.7Zm189.1,0l179.6,0l0,42.7l-179.6,0l0,-42.7Zm179.6,0l177.9,0l0,42.7l-177.9,0l0,-42.7Zm177.9,0l135.2,0l0,42.7l-135.2,0l0,-42.7Zm135.2,0l66.2,0l0,42.7l-66.2,0l0,-42.7Zm66.2,0l63.3,0l0,42.7l-63.3,0l0,-42.7ZM55,1109.9l189.1,0l0,42.8l-189.1,0l0,-42.8Zm189.1,0l179.6,0l0,42.8l-179.6,0l0,-42.8Zm179.6,0l177.9,0l0,42.8l-177.9,0l0,-42.8Zm177.9,0l135.2,0l0,42.8l-135.2,0l0,-42.8Zm135.2,0l66.2,0l0,42.8l-66.2,0l0,-42.8Zm66.2,0l63.3,0l0,42.8l-63.3,0l0,-42.8Z" class="g3_408" />
<path d="M55,147l189.1,0" class="g4_408" />
<path d="M244.1,147l179.6,0" class="g4_408" />
<path d="M423.7,147l177.9,0" class="g4_408" />
<path d="M601.6,147l135.2,0" class="g4_408" />
<path d="M736.8,147l66.2,0" class="g4_408" />
<path d="M803,147l63.3,0" class="g4_408" />
<path d="M55,191.3l189.1,0" class="g4_408" />
<path d="M244.1,191.3l179.6,0" class="g4_408" />
<path d="M423.7,191.3l177.9,0" class="g4_408" />
<path d="M601.6,191.3l135.2,0" class="g4_408" />
<path d="M736.8,191.3l66.2,0" class="g4_408" />
<path d="M803,191.3l63.3,0" class="g4_408" />
<path d="M55,256.6l189.1,0" class="g4_408" />
<path d="M244.1,256.6l179.6,0" class="g4_408" />
<path d="M423.7,256.6l177.9,0" class="g4_408" />
<path d="M601.6,256.6l135.2,0" class="g4_408" />
<path d="M736.8,256.6l66.2,0" class="g4_408" />
<path d="M803,256.6l63.3,0" class="g4_408" />
<path d="M55,301.9l189.1,0" class="g4_408" />
<path d="M244.1,301.9l179.6,0" class="g4_408" />
<path d="M423.7,301.9l177.9,0" class="g4_408" />
<path d="M601.6,301.9l135.2,0" class="g4_408" />
<path d="M736.8,301.9l66.2,0" class="g4_408" />
<path d="M803,301.9l63.3,0" class="g4_408" />
<path d="M55,347.3l189.1,0" class="g4_408" />
<path d="M244.1,347.3l179.6,0" class="g4_408" />
<path d="M423.7,347.3l177.9,0" class="g4_408" />
<path d="M601.6,347.3l135.2,0" class="g4_408" />
<path d="M736.8,347.3l66.2,0" class="g4_408" />
<path d="M803,347.3l63.3,0" class="g4_408" />
<path d="M55,392.7l189.1,0" class="g4_408" />
<path d="M244.1,392.7l179.6,0" class="g4_408" />
<path d="M423.7,392.7l177.9,0" class="g4_408" />
<path d="M601.6,392.7l135.2,0" class="g4_408" />
<path d="M736.8,392.7l66.2,0" class="g4_408" />
<path d="M803,392.7l63.3,0" class="g4_408" />
<path d="M55,438l189.1,0" class="g4_408" />
<path d="M244.1,438l179.6,0" class="g4_408" />
<path d="M423.7,438l177.9,0" class="g4_408" />
<path d="M601.6,438l135.2,0" class="g4_408" />
<path d="M736.8,438l66.2,0" class="g4_408" />
<path d="M803,438l63.3,0" class="g4_408" />
<path d="M55,503.3l189.1,0" class="g4_408" />
<path d="M244.1,503.3l179.6,0" class="g4_408" />
<path d="M423.7,503.3l177.9,0" class="g4_408" />
<path d="M601.6,503.3l135.2,0" class="g4_408" />
<path d="M736.8,503.3l66.2,0" class="g4_408" />
<path d="M803,503.3l63.3,0" class="g4_408" />
<path d="M55,548.6l189.1,0" class="g4_408" />
<path d="M244.1,548.6l179.6,0" class="g4_408" />
<path d="M423.7,548.6l177.9,0" class="g4_408" />
<path d="M601.6,548.6l135.2,0" class="g4_408" />
<path d="M736.8,548.6l66.2,0" class="g4_408" />
<path d="M803,548.6l63.3,0" class="g4_408" />
<path d="M55,591.4l189.1,0" class="g4_408" />
<path d="M244.1,591.4l179.6,0" class="g4_408" />
<path d="M423.7,591.4l177.9,0" class="g4_408" />
<path d="M601.6,591.4l135.2,0" class="g4_408" />
<path d="M736.8,591.4l66.2,0" class="g4_408" />
<path d="M803,591.4l63.3,0" class="g4_408" />
<path d="M55,634.2l189.1,0" class="g4_408" />
<path d="M244.1,634.2l179.6,0" class="g4_408" />
<path d="M423.7,634.2l177.9,0" class="g4_408" />
<path d="M601.6,634.2l135.2,0" class="g4_408" />
<path d="M736.8,634.2l66.2,0" class="g4_408" />
<path d="M803,634.2l63.3,0" class="g4_408" />
<path d="M55,677l189.1,0" class="g4_408" />
<path d="M244.1,677l179.6,0" class="g4_408" />
<path d="M423.7,677l177.9,0" class="g4_408" />
<path d="M601.6,677l135.2,0" class="g4_408" />
<path d="M736.8,677l66.2,0" class="g4_408" />
<path d="M803,677l63.3,0" class="g4_408" />
<path d="M55,719.7l189.1,0" class="g4_408" />
<path d="M244.1,719.7l179.6,0" class="g4_408" />
<path d="M423.7,719.7l177.9,0" class="g4_408" />
<path d="M601.6,719.7l135.2,0" class="g4_408" />
<path d="M736.8,719.7l66.2,0" class="g4_408" />
<path d="M803,719.7l63.3,0" class="g4_408" />
<path d="M55,765.1l189.1,0" class="g4_408" />
<path d="M244.1,765.1l179.6,0" class="g4_408" />
<path d="M423.7,765.1l177.9,0" class="g4_408" />
<path d="M601.6,765.1l135.2,0" class="g4_408" />
<path d="M736.8,765.1l66.2,0" class="g4_408" />
<path d="M803,765.1l63.3,0" class="g4_408" />
<path d="M55,807.9l189.1,0" class="g4_408" />
<path d="M244.1,807.9l179.6,0" class="g4_408" />
<path d="M423.7,807.9l177.9,0" class="g4_408" />
<path d="M601.6,807.9l135.2,0" class="g4_408" />
<path d="M736.8,807.9l66.2,0" class="g4_408" />
<path d="M803,807.9l63.3,0" class="g4_408" />
<path d="M55,853.2l189.1,0" class="g4_408" />
<path d="M244.1,853.2l179.6,0" class="g4_408" />
<path d="M423.7,853.2l177.9,0" class="g4_408" />
<path d="M601.6,853.2l135.2,0" class="g4_408" />
<path d="M736.8,853.2l66.2,0" class="g4_408" />
<path d="M803,853.2l63.3,0" class="g4_408" />
<path d="M55,896l189.1,0" class="g4_408" />
<path d="M244.1,896l179.6,0" class="g4_408" />
<path d="M423.7,896l177.9,0" class="g4_408" />
<path d="M601.6,896l135.2,0" class="g4_408" />
<path d="M736.8,896l66.2,0" class="g4_408" />
<path d="M803,896l63.3,0" class="g4_408" />
<path d="M55,938.8l189.1,0" class="g4_408" />
<path d="M244.1,938.8l179.6,0" class="g4_408" />
<path d="M423.7,938.8l177.9,0" class="g4_408" />
<path d="M601.6,938.8l135.2,0" class="g4_408" />
<path d="M736.8,938.8l66.2,0" class="g4_408" />
<path d="M803,938.8l63.3,0" class="g4_408" />
<path d="M55,981.6l189.1,0" class="g4_408" />
<path d="M244.1,981.6l179.6,0" class="g4_408" />
<path d="M423.7,981.6l177.9,0" class="g4_408" />
<path d="M601.6,981.6l135.2,0" class="g4_408" />
<path d="M736.8,981.6l66.2,0" class="g4_408" />
<path d="M803,981.6l63.3,0" class="g4_408" />
<path d="M55,1024.4l189.1,0" class="g4_408" />
<path d="M244.1,1024.4l179.6,0" class="g4_408" />
<path d="M423.7,1024.4l177.9,0" class="g4_408" />
<path d="M601.6,1024.4l135.2,0" class="g4_408" />
<path d="M736.8,1024.4l66.2,0" class="g4_408" />
<path d="M803,1024.4l63.3,0" class="g4_408" />
<path d="M55,1067.1l189.1,0" class="g4_408" />
<path d="M244.1,1067.1l179.6,0" class="g4_408" />
<path d="M423.7,1067.1l177.9,0" class="g4_408" />
<path d="M601.6,1067.1l135.2,0" class="g4_408" />
<path d="M736.8,1067.1l66.2,0" class="g4_408" />
<path d="M803,1067.1l63.3,0" class="g4_408" />
<path d="M55,1109.9l189.1,0" class="g4_408" />
<path d="M244.1,1109.9l179.6,0" class="g4_408" />
<path d="M423.7,1109.9l177.9,0" class="g4_408" />
<path d="M601.6,1109.9l135.2,0" class="g4_408" />
<path d="M736.8,1109.9l66.2,0" class="g4_408" />
<path d="M803,1109.9l63.3,0" class="g4_408" />
<path d="M55,1152.7l189.1,0" class="g4_408" />
<path d="M244.1,1152.7l179.6,0" class="g4_408" />
<path d="M423.7,1152.7l177.9,0" class="g4_408" />
<path d="M601.6,1152.7l135.2,0" class="g4_408" />
<path d="M736.8,1152.7l66.2,0" class="g4_408" />
<path d="M803,1152.7l63.3,0" class="g4_408" />
<path d="M55,101.1l189.1,0" class="g5_408" />
<path d="M244.1,101.1l179.6,0" class="g5_408" />
<path d="M423.7,101.1l177.9,0" class="g5_408" />
<path d="M601.6,101.1l135.2,0" class="g5_408" />
<path d="M736.8,101.1l66.2,0" class="g5_408" />
<path d="M803,101.1l63.3,0" class="g5_408" />
<text 
x="61" 
y="85" 
dx="0,0,0,0,0,0,0" 
class="s4_408"
>English</text>

<text 
x="250" 
y="85" 
dx="0,0,0,0,0,0,0,0,0,0" 
class="s4_408"
>Simplified</text>

<text 
x="429" 
y="85" 
dx="0,-1.2,-0.1,0,0,0,0,0,0,0,0" 
class="s4_408"
>Traditional</text>

<text 
x="607" 
y="85" 
dx="0,0,0,0,0,0" 
class="s4_408"
>Pinyin</text>

<text 
x="742" 
y="75" 
dx="0,0,0,0,0,0,-0.2,0" 
class="s4_408"
>Part of </text>

<text 
x="742" 
y="94" 
dx="0,0,0,0,0,0" 
class="s4_408"
>Speech</text>

<text 
x="809" 
y="85" 
dx="0,0,0,0,0,0" 
class="s4_408"
>Lesson</text>

<text 
x="61" 
y="121" 
dx="0,0,0,0,0,0,0,-0.2,0,0,0,0,-0.2,0" 
class="s5_408"
>(measure word </text>

<text 
x="61" 
y="140" 
dx="0,-0.3,0,0,0,0,0,0,0,0,0,0,0" 
class="s5_408"
>for machines)</text>

<text 
x="250" 
y="133" 
dx="0" 
class="s6_408"
>台</text>

<text 
x="429" 
y="133" 
dx="0" 
class="s7_408"
>台</text>

<text 
x="607" 
y="130" 
dx="0,0.2,0.2" 
class="s8_408"
>tái</text>

<text 
x="742" 
y="131" 
dx="0" 
class="s9_408"
>m</text>

<text 
x="809" 
y="131" 
dx="0" 
class="s10_408"
>2</text>

<text 
x="61" 
y="175" 
dx="0,0,0,0,0,0,0,-0.2,0,0,0,0,-0.2,0,0,-0.3,0,0,0,0,0,0,0,0" 
class="s5_408"
>(measure word for meals)</text>

<text 
x="250" 
y="177" 
dx="0" 
class="s6_408"
>顿</text>

<text 
x="429" 
y="177" 
dx="0" 
class="s7_408"
>頓</text>

<text 
x="607" 
y="175" 
dx="0,0.2,0.2" 
class="s8_408"
>dùn</text>

<text 
x="742" 
y="176" 
dx="0" 
class="s9_408"
>m</text>

<text 
x="809" 
y="176" 
dx="0,0" 
class="s10_408"
>13</text>

<text 
x="61" 
y="210" 
dx="0,0,0,0,0,0,0,-0.2,0,0,0,0,-0.2,0,0,-0.3,0,0,0,0,0,0,0,-0.2,0" 
class="s5_408"
>(measure word for one of </text>

<text 
x="61" 
y="230" 
dx="0,0,0,0,0,0,0,0,0,0,0,0,-0.2,0,0,0,0,0,0,0,0,0,0,0,0,0" 
class="s5_408"
>certain paired things and </text>

<text 
x="61" 
y="250" 
dx="0,0,0,0,0,0,0,0,0,0,0,0,0" 
class="s5_408"
>some animals)</text>

<text 
x="250" 
y="232" 
dx="0" 
class="s6_408"
>只</text>

<text 
x="429" 
y="232" 
dx="0" 
class="s7_408"
>隻</text>

<text 
x="607" 
y="230" 
dx="0,0.2,0.2" 
class="s8_408"
>zhī</text>

<text 
x="742" 
y="230" 
dx="0" 
class="s9_408"
>m</text>

<text 
x="809" 
y="230" 
dx="0,0" 
class="s10_408"
>14</text>

<text 
x="61" 
y="275" 
dx="0,0,0,0,0,0,0,-0.2,0,0,0,0,-0.2,0,0,-0.3,0,0,0,0,0,0,0,0,0,0,0" 
class="s5_408"
>(measure word for section, </text>

<text 
x="61" 
y="295" 
dx="0,0,0,0,0,0,0,0,0,0,0,0,0,0,0,0,0" 
class="s5_408"
>segment, or part)</text>

<text 
x="250" 
y="288" 
dx="0" 
class="s6_408"
>段</text>

<text 
x="429" 
y="288" 
dx="0" 
class="s7_408"
>段</text>

<text 
x="607" 
y="285" 
dx="0,0.2,0.2,0.2" 
class="s8_408"
>duàn</text>

<text 
x="742" 
y="286" 
dx="0" 
class="s9_408"
>m</text>

<text 
x="809" 
y="286" 
dx="0,0" 
class="s10_408"
>16</text>

<text 
x="61" 
y="321" 
dx="0,0,0,0,0,0,0,-0.2,0,0,0,0,-0.2,0,0,-0.3,0,0" 
class="s5_408"
>(measure word for </text>

<text 
x="61" 
y="341" 
dx="0,0,0,0,-0.2,0,0,0,0,0" 
class="s5_408"
>sentences)</text>

<text 
x="250" 
y="333" 
dx="0" 
class="s6_408"
>句</text>

<text 
x="429" 
y="333" 
dx="0" 
class="s7_408"
>句</text>

<text 
x="607" 
y="331" 
dx="0,0.2" 
class="s8_408"
>jù</text>

<text 
x="742" 
y="331" 
dx="0" 
class="s9_408"
>m</text>

<text 
x="809" 
y="331" 
dx="0,0" 
class="s10_408"
>12</text>

<text 
x="61" 
y="366" 
dx="0,0,0,0,0,0,0,-0.2,0,0,0,0,-0.2,0,0,-0.3,0,0,0,0,-0.2,0,0,0,0,0" 
class="s5_408"
>(measure word for stories </text>

<text 
x="61" 
y="386" 
dx="0,-0.2,0,0,0,0,0,0,0,0,0,0,0,0" 
class="s5_408"
>of a building)</text>

<text 
x="250" 
y="378" 
dx="0" 
class="s6_408"
>层</text>

<text 
x="429" 
y="378" 
dx="0" 
class="s7_408"
>層</text>

<text 
x="607" 
y="376" 
dx="0,0.2,0.2,0.2" 
class="s8_408"
>céng</text>

<text 
x="742" 
y="376" 
dx="0" 
class="s9_408"
>m</text>

<text 
x="809" 
y="376" 
dx="0" 
class="s10_408"
>2</text>

<text 
x="61" 
y="412" 
dx="0,0,0,0,0,0,0,-0.2,0,0,0,0,-0.2,0,0,-0.3,0,0,0,0,0,0,0" 
class="s5_408"
>(measure word for sums </text>

<text 
x="61" 
y="431" 
dx="0,-0.2,0,0,0,0,0,0,0" 
class="s5_408"
>of money)</text>

<text 
x="250" 
y="424" 
dx="0" 
class="s6_408"
>笔</text>

<text 
x="429" 
y="424" 
dx="0" 
class="s7_408"
>筆</text>

<text 
x="607" 
y="421" 
dx="0,0.2" 
class="s8_408"
>bǐ</text>

<text 
x="742" 
y="422" 
dx="0" 
class="s9_408"
>m</text>

<text 
x="809" 
y="422" 
dx="0,0" 
class="s10_408"
>17</text>

<text 
x="61" 
y="457" 
dx="0,0,0,0,0,0,0,-0.2,0,0,0,0,-0.2,0,0,-0.3,0,0,0,0,0,0,0,0" 
class="s5_408"
>(measure word for times </text>

<text 
x="61" 
y="477" 
dx="0,0,0,0,0,0,0,0,0,0,0,0,0,0,0,0,0,0,0" 
class="s5_408"
>by which something </text>

<text 
x="61" 
y="497" 
dx="0,0,0,0,0,0,0,0,0,0,0,0,0,0" 
class="s5_408"
>is multiplied)</text>

<text 
x="250" 
y="479" 
dx="0" 
class="s6_408"
>倍</text>

<text 
x="429" 
y="479" 
dx="0" 
class="s7_408"
>倍</text>

<text 
x="607" 
y="477" 
dx="0,0.2,0.2" 
class="s8_408"
>bèi</text>

<text 
x="742" 
y="477" 
dx="0" 
class="s9_408"
>m</text>

<text 
x="809" 
y="477" 
dx="0,0" 
class="s10_408"
>10</text>

<text 
x="61" 
y="522" 
dx="0,0,0,0,0,0,0,-0.2,0,0,0,0,-0.2,0,0,-0.3,0,0,0,0,0,0,0" 
class="s5_408"
>(measure word for type </text>

<text 
x="61" 
y="542" 
dx="0,0,0,0,0,0,0,0" 
class="s5_408"
>or kind)</text>

<text 
x="250" 
y="534" 
dx="0" 
class="s6_408"
>番</text>

<text 
x="429" 
y="534" 
dx="0" 
class="s7_408"
>番</text>

<text 
x="607" 
y="532" 
dx="0,0.2,0.2" 
class="s8_408"
>fān</text>

<text 
x="742" 
y="532" 
dx="0" 
class="s9_408"
>m</text>

<text 
x="809" 
y="532" 
dx="0" 
class="s10_408"
>9</text>

<text 
x="61" 
y="576" 
dx="0,0,0,0,0,0,0,-0.2,0,0,0,0,-0.2,0,0,-0.3,0,0,0,-0.4,0,0,0,0,0,0,0" 
class="s5_408"
>(measure word for vehicles)</text>

<text 
x="250" 
y="578" 
dx="0" 
class="s6_408"
>辆</text>

<text 
x="429" 
y="578" 
dx="0" 
class="s7_408"
>輛</text>

<text 
x="607" 
y="576" 
dx="0,0.2,0.2,0.2,0.2" 
class="s8_408"
>liàng</text>

<text 
x="742" 
y="577" 
dx="0" 
class="s9_408"
>m</text>

<text 
x="809" 
y="577" 
dx="0" 
class="s10_408"
>1</text>

<text 
x="61" 
y="619" 
dx="0,0,0,0,0,0,0,0,0,0,0,0,0,0,0,0,0" 
class="s5_408"
>mention, bring up</text>

<text 
x="250" 
y="621" 
dx="0" 
class="s6_408"
>提</text>

<text 
x="429" 
y="621" 
dx="0" 
class="s7_408"
>提</text>

<text 
x="607" 
y="619" 
dx="0,0.2" 
class="s8_408"
>tí</text>

<text 
x="742" 
y="619" 
dx="0" 
class="s9_408"
>v</text>

<text 
x="809" 
y="619" 
dx="0" 
class="s10_408"
>6</text>

<text 
x="61" 
y="662" 
dx="0,0,0,0" 
class="s5_408"
>menu</text>

<text 
x="250" 
y="664" 
dx="0,0" 
class="s6_408"
>菜单</text>

<text 
x="429" 
y="664" 
dx="0,0" 
class="s7_408"
>菜單</text>

<text 
x="607" 
y="662" 
dx="0,0.2,0.2,0.2,0.2,0.2" 
class="s8_408"
>càidān</text>

<text 
x="742" 
y="662" 
dx="0" 
class="s9_408"
>n</text>

<text 
x="809" 
y="662" 
dx="0" 
class="s10_408"
>3</text>

<text 
x="61" 
y="704" 
dx="0,0,0,0,-0.1,0,0,0,0,-0.2,-0.4,0,0,0,0,0,0,0,0,0,-0.2" 
class="s5_408"
>merge into, meld into</text>

<text 
x="250" 
y="707" 
dx="0,0" 
class="s6_408"
>融入</text>

<text 
x="429" 
y="707" 
dx="0,0" 
class="s7_408"
>融入</text>

<text 
x="607" 
y="704" 
dx="0,0.2,0.2,0.2,0.2,0.2" 
class="s8_408"
>róngrù</text>

<text 
x="742" 
y="705" 
dx="0" 
class="s9_408"
>v</text>

<text 
x="809" 
y="705" 
dx="0,0" 
class="s10_408"
>12</text>

<text 
x="61" 
y="739" 
dx="0,0,0,0,0,0,0,0,0,0,-0.2,0,0,0,0,0,0,0,0,0,0" 
class="s5_408"
>merit, strong point, </text>

<text 
x="61" 
y="758" 
dx="0,0,0,0,0,0,0,0,-0.1" 
class="s5_408"
>advantage</text>

<text 
x="250" 
y="751" 
dx="0,0" 
class="s6_408"
>优点</text>

<text 
x="429" 
y="751" 
dx="0,0" 
class="s7_408"
>優點</text>

<text 
x="607" 
y="748" 
dx="0,0.2,0.2,0.2,0.2,0.2,0.2" 
class="s8_408"
>yōudiǎn</text>

<text 
x="742" 
y="749" 
dx="0" 
class="s9_408"
>n</text>

<text 
x="809" 
y="749" 
dx="0,0" 
class="s10_408"
>19</text>

<text 
x="61" 
y="793" 
dx="0,0,-0.2,0,0,0" 
class="s5_408"
>Mexico</text>

<text 
x="250" 
y="795" 
dx="0,0,0" 
class="s6_408"
>墨西哥</text>

<text 
x="429" 
y="795" 
dx="0,0,0" 
class="s7_408"
>墨西哥</text>

<text 
x="607" 
y="793" 
dx="0,0.2,0.2,0.2,0.2,0.2" 
class="s8_408"
>Mòxīgē</text>

<text 
x="742" 
y="793" 
dx="0,0" 
class="s9_408"
>pn</text>

<text 
x="809" 
y="793" 
dx="0" 
class="s10_408"
>9</text>

<text 
x="61" 
y="827" 
dx="0,0,0,0,0,0,0,0,0,0,0,0,-1,0,0,0,0,0,0,0,0" 
class="s5_408"
>Mid-Autumn Festival, </text>

<text 
x="61" 
y="847" 
dx="0,0,0,0,0,0,-1,0,0,0,0,0,0" 
class="s5_408"
>Moon Festival</text>

<text 
x="250" 
y="839" 
dx="0,0,0" 
class="s6_408"
>中秋节</text>

<text 
x="429" 
y="839" 
dx="0,0,0" 
class="s7_408"
>中秋節</text>

<text 
x="607" 
y="837" 
dx="0,0.2,0.2,0.2,0.2,0.2,0.2,0.2,0.2,0.2,0.2" 
class="s8_408"
>Zhōngqiūjié</text>

<text 
x="742" 
y="837" 
dx="0,0" 
class="s9_408"
>pn</text>

<text 
x="809" 
y="837" 
dx="0,0" 
class="s10_408"
>11</text>

<text 
x="61" 
y="881" 
dx="0,0,0,0,0,0,0,0,0,-0.2" 
class="s5_408"
>mind, care</text>

<text 
x="250" 
y="883" 
dx="0,0" 
class="s6_408"
>在乎</text>

<text 
x="429" 
y="883" 
dx="0,0" 
class="s7_408"
>在乎</text>

<text 
x="607" 
y="881" 
dx="0,0.2,0.2,0.2,0.2" 
class="s8_408"
>zàihu</text>

<text 
x="742" 
y="881" 
dx="0" 
class="s9_408"
>v</text>

<text 
x="809" 
y="881" 
dx="0" 
class="s10_408"
>4</text>

<text 
x="61" 
y="924" 
dx="0,0,0,0,0,0,0,0,-0.3" 
class="s5_408"
>moon cake</text>

<text 
x="250" 
y="926" 
dx="0,0" 
class="s6_408"
>月饼</text>

<text 
x="429" 
y="926" 
dx="0,0" 
class="s7_408"
>月餅</text>

<text 
x="607" 
y="923" 
dx="0,0.2,0.2,0.2,0.2,0.2,0.2" 
class="s8_408"
>yuèbǐng</text>

<text 
x="742" 
y="924" 
dx="0" 
class="s9_408"
>n</text>

<text 
x="809" 
y="924" 
dx="0,0" 
class="s10_408"
>11</text>

<text 
x="61" 
y="966" 
dx="0,0,0,-0.2,0,0,-0.2,0,-0.2,0,0,0,0,0,0,0,0,0,0" 
class="s5_408"
>more often than not</text>

<text 
x="250" 
y="968" 
dx="0,0" 
class="s6_408"
>往往</text>

<text 
x="429" 
y="968" 
dx="0,0" 
class="s7_408"
>往往</text>

<text 
x="607" 
y="966" 
dx="0,0.2,0.2,0.2,0.2,0.2,0.2,0.2" 
class="s8_408"
>wǎngwǎng</text>

<text 
x="742" 
y="967" 
dx="0,0,0" 
class="s9_408"
>adv</text>

<text 
x="809" 
y="967" 
dx="0,0" 
class="s10_408"
>19</text>

<text 
x="61" 
y="1009" 
dx="0,0,0,0,0,0,0,0,0,0,0,0,0,0,0,0,0,0,0,0,0,0" 
class="s5_408"
>morning, early morning</text>

<text 
x="250" 
y="1011" 
dx="0,0" 
class="s6_408"
>早晨</text>

<text 
x="429" 
y="1011" 
dx="0,0" 
class="s7_408"
>早晨</text>

<text 
x="607" 
y="1009" 
dx="0,0.2,0.2,0.2,0.2,0.2,0.2" 
class="s8_408"
>zǎochen</text>

<text 
x="742" 
y="1009" 
dx="0" 
class="s9_408"
>n</text>

<text 
x="809" 
y="1009" 
dx="0,0" 
class="s10_408"
>14</text>

<text 
x="61" 
y="1052" 
dx="0,0,0,0,0,0,0,-0.1" 
class="s5_408"
>mortgage</text>

<text 
x="250" 
y="1054" 
dx="0,0" 
class="s6_408"
>抵押</text>

<text 
x="429" 
y="1054" 
dx="0,0" 
class="s7_408"
>抵押</text>

<text 
x="607" 
y="1052" 
dx="0,0.2,0.2,0.2" 
class="s8_408"
>dǐyā</text>

<text 
x="742" 
y="1052" 
dx="0" 
class="s9_408"
>v</text>

<text 
x="809" 
y="1052" 
dx="0,0" 
class="s10_408"
>17</text>

<text 
x="61" 
y="1095" 
dx="0,0,0,0,0,0,-0.9,0,0,-0.3,0,0,0,0,0,0,0,0,0,0,0,0,0,0,0" 
class="s5_408"
>mostly, for the most part</text>

<text 
x="250" 
y="1097" 
dx="0,0" 
class="s6_408"
>大多</text>

<text 
x="429" 
y="1097" 
dx="0,0" 
class="s7_408"
>大多</text>

<text 
x="607" 
y="1095" 
dx="0,0.2,0.2,0.2,0.2" 
class="s8_408"
>dàduō</text>

<text 
x="742" 
y="1095" 
dx="0,0,0" 
class="s9_408"
>adv</text>

<text 
x="809" 
y="1095" 
dx="0,0" 
class="s10_408"
>10</text>

<text 
x="61" 
y="1137" 
dx="0,0,0,0,0,0,0,0,0,0,0,0,0,0" 
class="s5_408"
>mountain, hill</text>

<text 
x="250" 
y="1140" 
dx="0" 
class="s6_408"
>山</text>

<text 
x="429" 
y="1140" 
dx="0" 
class="s7_408"
>山</text>

<text 
x="607" 
y="1137" 
dx="0,0.2,0.2,0.2" 
class="s8_408"
>shān</text>

<text 
x="742" 
y="1138" 
dx="0" 
class="s9_408"
>n</text>

<text 
x="809" 
y="1138" 
dx="0,0" 
class="s10_408"
>10</text>



<!-- Any embedded fonts defined here -->
<style type="text/css" ><![CDATA[

@font-face {
	font-family: LibreFranklin-SemiBold_di3;
	src: url("fonts/LibreFranklin-SemiBold_di3.woff") format("woff");
}

@font-face {
	font-family: GentiumBookBasic-Italic_chu;
	src: url("fonts/GentiumBookBasic-Italic_chu.woff") format("woff");
}

@font-face {
	font-family: LibreFranklin-Light_dib;
	src: url("fonts/LibreFranklin-Light_dib.woff") format("woff");
}

@font-face {
	font-family: STKaiTi-TC-Regular_cev;
	src: url("fonts/STKaiTi-TC-Regular_cev.woff") format("woff");
}

@font-face {
	font-family: LibreFranklin-Regular_di7;
	src: url("fonts/LibreFranklin-Regular_di7.woff") format("woff");
}

@font-face {
	font-family: LibreFranklin-Medium_dhv;
	src: url("fonts/LibreFranklin-Medium_dhv.woff") format("woff");
}

@font-face {
	font-family: STKaiti-SC-Regular_cf1;
	src: url("fonts/STKaiti-SC-Regular_cf1.woff") format("woff");
}

@font-face {
	font-family: LibreFranklin-SemiBold_di0;
	src: url("fonts/LibreFranklin-SemiBold_di0.woff") format("woff");
}

]]></style>

</svg>
