<?xml version="1.0" encoding="UTF-8" standalone="no"?>
<!DOCTYPE svg PUBLIC "-//W3C//DTD SVG 1.1//EN"
"http://www.w3.org/Graphics/SVG/1.1/DTD/svg11.dtd">


<!-- Page 359 -->
<svg x="0" y="0" width="921" height="1196" viewBox="0 0 921 1196" version="1.1" xmlns="http://www.w3.org/2000/svg" xmlns:xlink="http://www.w3.org/1999/xlink"
style="display: block;margin-left: auto;margin-right: auto;">
<defs>

<style type="text/css"><![CDATA[

.g1_359{
fill: #DC262E;
stroke: #B2B3B7;
stroke-width: 1.5277778;
stroke-linecap: butt;
stroke-linejoin: miter;
stroke-miterlimit: 4;
}
.g2_359{
fill: #57585A;
stroke: #B2B3B7;
stroke-width: 1.5277778;
stroke-linecap: butt;
stroke-linejoin: miter;
stroke-miterlimit: 4;
}
.g3_359{
fill: #F0F1F2;
}
.g4_359{
fill: none;
stroke: #BDBEC1;
stroke-width: 0.38194445;
stroke-linecap: butt;
stroke-linejoin: miter;
}
.g5_359{
fill: none;
stroke: #DADBDD;
stroke-width: 1.5277778;
stroke-linecap: butt;
stroke-linejoin: miter;
}
.g6_359{
fill: none;
stroke: #DADBDD;
stroke-width: 0.38194445;
stroke-linecap: butt;
stroke-linejoin: miter;
}

.s1_359{
font-size: 13.75px;
font-family: LibreFranklin-Medium_dhv;
fill: #231F20;
}
.s2_359{
font-size: 13.75px;
font-family: LibreFranklin-SemiBold_dig;
fill: #FFFFFF;
}
.s3_359{
font-size: 13.75px;
font-family: LibreFranklin-SemiBold_cg0;
fill: #FFFFFF;
}
.s4_359{
font-size: 14.51px;
font-family: LibreFranklin-SemiBold_di3;
fill: #57585A;
}
.s5_359{
font-size: 24.44px;
font-family: STKaiti-SC-Regular_cf1;
fill: #57585A;
}
.s6_359{
font-size: 24.44px;
font-family: STKaiTi-TC-Regular_cev;
fill: #57585A;
}
.s7_359{
font-size: 14.90px;
font-family: GentiumBookBasic-Italic_chu;
fill: #3F3F40;
}
.s8_359{
font-size: 14.51px;
font-family: LibreFranklin-Regular_di7;
fill: #3F3F40;
}
.s9_359{
font-size: 13.75px;
font-family: LibreFranklin-Light_dib;
fill: #3F3F40;
}
.s10_359{
font-size: 14.51px;
font-family: LibreFranklin-SemiBold_di3;
fill: #77787B;
}

]]></style>

</defs>
<path d="M0,0
L0,1196
L921,1196
L921,0 Z " 
fill="#FFFFFF" stroke="none" />
<path d="M-12.9,1140.6l58,0l0,-1153.5l-58,0l0,1153.5Z" class="g1_359" />
<text 
x="20" 
y="1166" 
dx="0,1.2,1.2,0" 
class="s1_359"
>336 </text>

<text 
transform="matrix(0, -1, 1, 0, 34, 1129)"
dx="0,1.2,1.2,1,1.2,1.2,1.2,1.2,1,1.2,1.2,1.2,1.2,1.2,1.2,1.2,1.2,1.2,1.2,1.2,1.2" 
class="s2_359"
>Integrated Chinese 4 </text>

<text 
transform="matrix(0, -1, 1, 0, 34, 955)"
dx="0,1.2" 
class="s2_359"
>| </text>

<text 
transform="matrix(0, -1, 1, 0, 34, 938)"
dx="0,-0.3,0.9,0.9,1.2,1.2,1.2,1.2" 
class="s2_359"
>Textbook</text>

<text 
transform="matrix(0, -1, 1, 0, 34, 1129)"
dx="0,1.2,1.2,1,1.2,1.2,1.2,1.2,1,1.2,1.2,1.2,1.2,1.2,1.2,1.2,1.2,1.2,1.2,1.2,1.2" 
class="s2_359"
>Integrated Chinese 4 </text>

<text 
transform="matrix(0, -1, 1, 0, 34, 955)"
dx="0,1.2" 
class="s2_359"
>| </text>

<text 
transform="matrix(0, -1, 1, 0, 34, 938)"
dx="0,-0.3,0.9,0.9,1.2,1.2,1.2,1.2" 
class="s2_359"
>Textbook</text>

<text 
transform="matrix(0, -1, 1, 0, 34, 1129)"
dx="0,1.2,1.2,1,1.2,1.2,1.2,1.2,1,1.2,1.2,1.2,1.2,1.2,1.2,1.2,1.2,1.2,1.2,1.2,1.2" 
class="s2_359"
>Integrated Chinese 4 </text>

<text 
transform="matrix(0, -1, 1, 0, 34, 955)"
dx="0,1.2" 
class="s2_359"
>| </text>

<text 
transform="matrix(0, -1, 1, 0, 34, 938)"
dx="0,-0.3,0.9,0.9,1.2,1.2,1.2,1.2" 
class="s2_359"
>Textbook</text>

<path d="M-12.9,1140.6l58,0l0,-1153.5l-58,0l0,1153.5Z" class="g2_359" />
<text 
x="20" 
y="1166" 
dx="0,1.2,1.2,0" 
class="s1_359"
>336 </text>

<text 
transform="matrix(0, -1, 1, 0, 34, 1129)"
dx="0,1.2,1.2,1,1.2,1.2,1.2,1.2,1,1.2,1.2,1.2,1.2,1.2,1.2,1.2,1.2,1.2,1.2,1.2,1.2" 
class="s3_359"
>Integrated Chinese 4 </text>

<text 
transform="matrix(0, -1, 1, 0, 34, 955)"
dx="0,1.2" 
class="s3_359"
>| </text>

<text 
transform="matrix(0, -1, 1, 0, 34, 938)"
dx="0,-0.3,0.9,0.9,1.2,1.2,1.2,1.2" 
class="s3_359"
>Textbook</text>

<text 
transform="matrix(0, -1, 1, 0, 34, 1129)"
dx="0,1.2,1.2,1,1.2,1.2,1.2,1.2,1,1.2,1.2,1.2,1.2,1.2,1.2,1.2,1.2,1.2,1.2,1.2,1.2" 
class="s3_359"
>Integrated Chinese 4 </text>

<text 
transform="matrix(0, -1, 1, 0, 34, 955)"
dx="0,1.2" 
class="s3_359"
>| </text>

<text 
transform="matrix(0, -1, 1, 0, 34, 938)"
dx="0,-0.3,0.9,0.9,1.2,1.2,1.2,1.2" 
class="s3_359"
>Textbook</text>

<text 
transform="matrix(0, -1, 1, 0, 34, 1129)"
dx="0,1.2,1.2,1,1.2,1.2,1.2,1.2,1,1.2,1.2,1.2,1.2,1.2,1.2,1.2,1.2,1.2,1.2,1.2,1.2" 
class="s3_359"
>Integrated Chinese 4 </text>

<text 
transform="matrix(0, -1, 1, 0, 34, 955)"
dx="0,1.2" 
class="s3_359"
>| </text>

<text 
transform="matrix(0, -1, 1, 0, 34, 938)"
dx="0,-0.3,0.9,0.9,1.2,1.2,1.2,1.2" 
class="s3_359"
>Textbook</text>

<path d="M55,146l179.1,0l0,42.8L55,188.8L55,146Zm179.1,0l177.6,0l0,42.8l-177.6,0l0,-42.8Zm177.6,0l135.2,0l0,42.8l-135.2,0l0,-42.8Zm135.2,0l66.5,0l0,42.8l-66.5,0l0,-42.8Zm66.5,0l188.7,0l0,42.8l-188.7,0l0,-42.8Zm188.7,0l64.2,0l0,42.8l-64.2,0l0,-42.8ZM55,231.5l179.1,0l0,42.8L55,274.3l0,-42.8Zm179.1,0l177.6,0l0,42.8l-177.6,0l0,-42.8Zm177.6,0l135.2,0l0,42.8l-135.2,0l0,-42.8Zm135.2,0l66.5,0l0,42.8l-66.5,0l0,-42.8Zm66.5,0l188.7,0l0,42.8l-188.7,0l0,-42.8Zm188.7,0l64.2,0l0,42.8l-64.2,0l0,-42.8ZM55,317.1l179.1,0l0,42.8L55,359.9l0,-42.8Zm179.1,0l177.6,0l0,42.8l-177.6,0l0,-42.8Zm177.6,0l135.2,0l0,42.8l-135.2,0l0,-42.8Zm135.2,0l66.5,0l0,42.8l-66.5,0l0,-42.8Zm66.5,0l188.7,0l0,42.8l-188.7,0l0,-42.8Zm188.7,0l64.2,0l0,42.8l-64.2,0l0,-42.8ZM55,402.6l179.1,0l0,45.4L55,448l0,-45.4Zm179.1,0l177.6,0l0,45.4l-177.6,0l0,-45.4Zm177.6,0l135.2,0l0,45.4l-135.2,0l0,-45.4Zm135.2,0l66.5,0l0,45.4l-66.5,0l0,-45.4Zm66.5,0l188.7,0l0,45.4l-188.7,0l0,-45.4Zm188.7,0l64.2,0l0,45.4l-64.2,0l0,-45.4ZM55,490.8l179.1,0l0,42.8L55,533.6l0,-42.8Zm179.1,0l177.6,0l0,42.8l-177.6,0l0,-42.8Zm177.6,0l135.2,0l0,42.8l-135.2,0l0,-42.8Zm135.2,0l66.5,0l0,42.8l-66.5,0l0,-42.8Zm66.5,0l188.7,0l0,42.8l-188.7,0l0,-42.8Zm188.7,0l64.2,0l0,42.8l-64.2,0l0,-42.8ZM55,576.3l179.1,0l0,45.4L55,621.7l0,-45.4Zm179.1,0l177.6,0l0,45.4l-177.6,0l0,-45.4Zm177.6,0l135.2,0l0,45.4l-135.2,0l0,-45.4Zm135.2,0l66.5,0l0,45.4l-66.5,0l0,-45.4Zm66.5,0l188.7,0l0,45.4l-188.7,0l0,-45.4Zm188.7,0l64.2,0l0,45.4l-64.2,0l0,-45.4ZM55,664.5l179.1,0l0,42.8L55,707.3l0,-42.8Zm179.1,0l177.6,0l0,42.8l-177.6,0l0,-42.8Zm177.6,0l135.2,0l0,42.8l-135.2,0l0,-42.8Zm135.2,0l66.5,0l0,42.8l-66.5,0l0,-42.8Zm66.5,0l188.7,0l0,42.8l-188.7,0l0,-42.8Zm188.7,0l64.2,0l0,42.8l-64.2,0l0,-42.8ZM55,750l179.1,0l0,45.4L55,795.4L55,750Zm179.1,0l177.6,0l0,45.4l-177.6,0l0,-45.4Zm177.6,0l135.2,0l0,45.4l-135.2,0l0,-45.4Zm135.2,0l66.5,0l0,45.4l-66.5,0l0,-45.4Zm66.5,0l188.7,0l0,45.4l-188.7,0l0,-45.4Zm188.7,0l64.2,0l0,45.4l-64.2,0l0,-45.4ZM55,838.2l179.1,0l0,42.8L55,881l0,-42.8Zm179.1,0l177.6,0l0,42.8l-177.6,0l0,-42.8Zm177.6,0l135.2,0l0,42.8l-135.2,0l0,-42.8Zm135.2,0l66.5,0l0,42.8l-66.5,0l0,-42.8Zm66.5,0l188.7,0l0,42.8l-188.7,0l0,-42.8Zm188.7,0l64.2,0l0,42.8l-64.2,0l0,-42.8ZM55,923.7l179.1,0l0,45.4L55,969.1l0,-45.4Zm179.1,0l177.6,0l0,45.4l-177.6,0l0,-45.4Zm177.6,0l135.2,0l0,45.4l-135.2,0l0,-45.4Zm135.2,0l66.5,0l0,45.4l-66.5,0l0,-45.4Zm66.5,0l188.7,0l0,45.4l-188.7,0l0,-45.4Zm188.7,0l64.2,0l0,45.4l-64.2,0l0,-45.4ZM55,1014.5l179.1,0l0,45.3l-179.1,0l0,-45.3Zm179.1,0l177.6,0l0,45.3l-177.6,0l0,-45.3Zm177.6,0l135.2,0l0,45.3l-135.2,0l0,-45.3Zm135.2,0l66.5,0l0,45.3l-66.5,0l0,-45.3Zm66.5,0l188.7,0l0,45.3l-188.7,0l0,-45.3Zm188.7,0l64.2,0l0,45.3l-64.2,0l0,-45.3ZM55,1102.6l179.1,0l0,45.4L55,1148l0,-45.4Zm179.1,0l177.6,0l0,45.4l-177.6,0l0,-45.4Zm177.6,0l135.2,0l0,45.4l-135.2,0l0,-45.4Zm135.2,0l66.5,0l0,45.4l-66.5,0l0,-45.4Zm66.5,0l188.7,0l0,45.4l-188.7,0l0,-45.4Zm188.7,0l64.2,0l0,45.4l-64.2,0l0,-45.4Z" class="g3_359" />
<path d="M55,146l179.1,0" class="g4_359" />
<path d="M234.1,146l177.6,0" class="g4_359" />
<path d="M411.7,146l135.2,0" class="g4_359" />
<path d="M546.9,146l66.5,0" class="g4_359" />
<path d="M613.4,146l188.7,0" class="g4_359" />
<path d="M802.1,146l64.2,0" class="g4_359" />
<path d="M55,188.8l179.1,0" class="g4_359" />
<path d="M234.1,188.8l177.6,0" class="g4_359" />
<path d="M411.7,188.8l135.2,0" class="g4_359" />
<path d="M546.9,188.8l66.5,0" class="g4_359" />
<path d="M613.4,188.8l188.7,0" class="g4_359" />
<path d="M802.1,188.8l64.2,0" class="g4_359" />
<path d="M55,231.5l179.1,0" class="g4_359" />
<path d="M234.1,231.5l177.6,0" class="g4_359" />
<path d="M411.7,231.5l135.2,0" class="g4_359" />
<path d="M546.9,231.5l66.5,0" class="g4_359" />
<path d="M613.4,231.5l188.7,0" class="g4_359" />
<path d="M802.1,231.5l64.2,0" class="g4_359" />
<path d="M55,274.3l179.1,0" class="g4_359" />
<path d="M234.1,274.3l177.6,0" class="g4_359" />
<path d="M411.7,274.3l135.2,0" class="g4_359" />
<path d="M546.9,274.3l66.5,0" class="g4_359" />
<path d="M613.4,274.3l188.7,0" class="g4_359" />
<path d="M802.1,274.3l64.2,0" class="g4_359" />
<path d="M55,317.1l179.1,0" class="g4_359" />
<path d="M234.1,317.1l177.6,0" class="g4_359" />
<path d="M411.7,317.1l135.2,0" class="g4_359" />
<path d="M546.9,317.1l66.5,0" class="g4_359" />
<path d="M613.4,317.1l188.7,0" class="g4_359" />
<path d="M802.1,317.1l64.2,0" class="g4_359" />
<path d="M55,359.9l179.1,0" class="g4_359" />
<path d="M234.1,359.9l177.6,0" class="g4_359" />
<path d="M411.7,359.9l135.2,0" class="g4_359" />
<path d="M546.9,359.9l66.5,0" class="g4_359" />
<path d="M613.4,359.9l188.7,0" class="g4_359" />
<path d="M802.1,359.9l64.2,0" class="g4_359" />
<path d="M55,402.6l179.1,0" class="g4_359" />
<path d="M234.1,402.6l177.6,0" class="g4_359" />
<path d="M411.7,402.6l135.2,0" class="g4_359" />
<path d="M546.9,402.6l66.5,0" class="g4_359" />
<path d="M613.4,402.6l188.7,0" class="g4_359" />
<path d="M802.1,402.6l64.2,0" class="g4_359" />
<path d="M55,448l179.1,0" class="g4_359" />
<path d="M234.1,448l177.6,0" class="g4_359" />
<path d="M411.7,448l135.2,0" class="g4_359" />
<path d="M546.9,448l66.5,0" class="g4_359" />
<path d="M613.4,448l188.7,0" class="g4_359" />
<path d="M802.1,448l64.2,0" class="g4_359" />
<path d="M55,490.8l179.1,0" class="g4_359" />
<path d="M234.1,490.8l177.6,0" class="g4_359" />
<path d="M411.7,490.8l135.2,0" class="g4_359" />
<path d="M546.9,490.8l66.5,0" class="g4_359" />
<path d="M613.4,490.8l188.7,0" class="g4_359" />
<path d="M802.1,490.8l64.2,0" class="g4_359" />
<path d="M55,533.6l179.1,0" class="g4_359" />
<path d="M234.1,533.6l177.6,0" class="g4_359" />
<path d="M411.7,533.6l135.2,0" class="g4_359" />
<path d="M546.9,533.6l66.5,0" class="g4_359" />
<path d="M613.4,533.6l188.7,0" class="g4_359" />
<path d="M802.1,533.6l64.2,0" class="g4_359" />
<path d="M55,576.3l179.1,0" class="g4_359" />
<path d="M234.1,576.3l177.6,0" class="g4_359" />
<path d="M411.7,576.3l135.2,0" class="g4_359" />
<path d="M546.9,576.3l66.5,0" class="g4_359" />
<path d="M613.4,576.3l188.7,0" class="g4_359" />
<path d="M802.1,576.3l64.2,0" class="g4_359" />
<path d="M55,621.7l179.1,0" class="g4_359" />
<path d="M234.1,621.7l177.6,0" class="g4_359" />
<path d="M411.7,621.7l135.2,0" class="g4_359" />
<path d="M546.9,621.7l66.5,0" class="g4_359" />
<path d="M613.4,621.7l188.7,0" class="g4_359" />
<path d="M802.1,621.7l64.2,0" class="g4_359" />
<path d="M55,664.5l179.1,0" class="g4_359" />
<path d="M234.1,664.5l177.6,0" class="g4_359" />
<path d="M411.7,664.5l135.2,0" class="g4_359" />
<path d="M546.9,664.5l66.5,0" class="g4_359" />
<path d="M613.4,664.5l188.7,0" class="g4_359" />
<path d="M802.1,664.5l64.2,0" class="g4_359" />
<path d="M55,707.3l179.1,0" class="g4_359" />
<path d="M234.1,707.3l177.6,0" class="g4_359" />
<path d="M411.7,707.3l135.2,0" class="g4_359" />
<path d="M546.9,707.3l66.5,0" class="g4_359" />
<path d="M613.4,707.3l188.7,0" class="g4_359" />
<path d="M802.1,707.3l64.2,0" class="g4_359" />
<path d="M55,750l179.1,0" class="g4_359" />
<path d="M234.1,750l177.6,0" class="g4_359" />
<path d="M411.7,750l135.2,0" class="g4_359" />
<path d="M546.9,750l66.5,0" class="g4_359" />
<path d="M613.4,750l188.7,0" class="g4_359" />
<path d="M802.1,750l64.2,0" class="g4_359" />
<path d="M55,795.4l179.1,0" class="g4_359" />
<path d="M234.1,795.4l177.6,0" class="g4_359" />
<path d="M411.7,795.4l135.2,0" class="g4_359" />
<path d="M546.9,795.4l66.5,0" class="g4_359" />
<path d="M613.4,795.4l188.7,0" class="g4_359" />
<path d="M802.1,795.4l64.2,0" class="g4_359" />
<path d="M55,838.2l179.1,0" class="g4_359" />
<path d="M234.1,838.2l177.6,0" class="g4_359" />
<path d="M411.7,838.2l135.2,0" class="g4_359" />
<path d="M546.9,838.2l66.5,0" class="g4_359" />
<path d="M613.4,838.2l188.7,0" class="g4_359" />
<path d="M802.1,838.2l64.2,0" class="g4_359" />
<path d="M55,881l179.1,0" class="g4_359" />
<path d="M234.1,881l177.6,0" class="g4_359" />
<path d="M411.7,881l135.2,0" class="g4_359" />
<path d="M546.9,881l66.5,0" class="g4_359" />
<path d="M613.4,881l188.7,0" class="g4_359" />
<path d="M802.1,881l64.2,0" class="g4_359" />
<path d="M55,923.7l179.1,0" class="g4_359" />
<path d="M234.1,923.7l177.6,0" class="g4_359" />
<path d="M411.7,923.7l135.2,0" class="g4_359" />
<path d="M546.9,923.7l66.5,0" class="g4_359" />
<path d="M613.4,923.7l188.7,0" class="g4_359" />
<path d="M802.1,923.7l64.2,0" class="g4_359" />
<path d="M55,969.1l179.1,0" class="g4_359" />
<path d="M234.1,969.1l177.6,0" class="g4_359" />
<path d="M411.7,969.1l135.2,0" class="g4_359" />
<path d="M546.9,969.1l66.5,0" class="g4_359" />
<path d="M613.4,969.1l188.7,0" class="g4_359" />
<path d="M802.1,969.1l64.2,0" class="g4_359" />
<path d="M55,1014.5l179.1,0" class="g4_359" />
<path d="M234.1,1014.5l177.6,0" class="g4_359" />
<path d="M411.7,1014.5l135.2,0" class="g4_359" />
<path d="M546.9,1014.5l66.5,0" class="g4_359" />
<path d="M613.4,1014.5l188.7,0" class="g4_359" />
<path d="M802.1,1014.5l64.2,0" class="g4_359" />
<path d="M55,1059.8l179.1,0" class="g4_359" />
<path d="M234.1,1059.8l177.6,0" class="g4_359" />
<path d="M411.7,1059.8l135.2,0" class="g4_359" />
<path d="M546.9,1059.8l66.5,0" class="g4_359" />
<path d="M613.4,1059.8l188.7,0" class="g4_359" />
<path d="M802.1,1059.8l64.2,0" class="g4_359" />
<path d="M55,1102.6l179.1,0" class="g4_359" />
<path d="M234.1,1102.6l177.6,0" class="g4_359" />
<path d="M411.7,1102.6l135.2,0" class="g4_359" />
<path d="M546.9,1102.6l66.5,0" class="g4_359" />
<path d="M613.4,1102.6l188.7,0" class="g4_359" />
<path d="M802.1,1102.6l64.2,0" class="g4_359" />
<path d="M55,101.1l179.1,0" class="g5_359" />
<path d="M234.1,101.1l177.6,0" class="g5_359" />
<path d="M411.7,101.1l135.2,0" class="g5_359" />
<path d="M546.9,101.1l66.5,0" class="g5_359" />
<path d="M613.4,101.1l188.7,0" class="g5_359" />
<path d="M802.1,101.1l64.2,0" class="g5_359" />
<path d="M55,1148l179.1,0" class="g6_359" />
<path d="M234.1,1148l177.6,0" class="g6_359" />
<path d="M411.7,1148l135.2,0" class="g6_359" />
<path d="M546.9,1148l66.5,0" class="g6_359" />
<path d="M613.4,1148l188.7,0" class="g6_359" />
<path d="M802.1,1148l64.2,0" class="g6_359" />
<text 
x="61" 
y="85" 
dx="0,0,0,0,0,0,0,0,0,0" 
class="s4_359"
>Simplified</text>

<text 
x="240" 
y="85" 
dx="0,-1.2,-0.1,0,0,0,0,0,0,0,0" 
class="s4_359"
>Traditional</text>

<text 
x="417" 
y="85" 
dx="0,0,0,0,0,0" 
class="s4_359"
>Pinyin</text>

<text 
x="553" 
y="75" 
dx="0,0,0,0,0,0,-0.2,0" 
class="s4_359"
>Part of </text>

<text 
x="553" 
y="94" 
dx="0,0,0,0,0,0" 
class="s4_359"
>Speech</text>

<text 
x="619" 
y="85" 
dx="0,0,0,0,0,0,0" 
class="s4_359"
>English</text>

<text 
x="808" 
y="85" 
dx="0,0,0,0,0,0" 
class="s4_359"
>Lesson</text>

<text 
x="61" 
y="132" 
dx="0,0" 
class="s5_359"
>超过</text>

<text 
x="240" 
y="132" 
dx="0,0" 
class="s6_359"
>超過</text>

<text 
x="417" 
y="130" 
dx="0,0.2,0.2,0.2,0.2,0.2,0.2" 
class="s7_359"
>chāoguò</text>

<text 
x="553" 
y="130" 
dx="0" 
class="s8_359"
>v</text>

<text 
x="619" 
y="130" 
dx="0,-0.2,0,0,0,0,0,0,0,0,0,0,0,-0.2,0,0,-0.2,-0.3,0,0,0" 
class="s9_359"
>to surpass, to exceed</text>

<text 
x="808" 
y="130" 
dx="0,0" 
class="s10_359"
>15</text>

<text 
x="61" 
y="176" 
dx="0,0" 
class="s5_359"
>超市</text>

<text 
x="240" 
y="176" 
dx="0,0" 
class="s6_359"
>超市</text>

<text 
x="417" 
y="173" 
dx="0,0.2,0.2,0.2,0.2,0.2,0.2" 
class="s7_359"
>chāoshì</text>

<text 
x="553" 
y="174" 
dx="0" 
class="s8_359"
>n</text>

<text 
x="619" 
y="174" 
dx="0,0,0,0,0,0,0,0,0,-0.3,0" 
class="s9_359"
>supermarket</text>

<text 
x="808" 
y="174" 
dx="0,0" 
class="s10_359"
>16</text>

<text 
x="61" 
y="218" 
dx="0,0" 
class="s5_359"
>朝代</text>

<text 
x="240" 
y="218" 
dx="0,0" 
class="s6_359"
>朝代</text>

<text 
x="417" 
y="216" 
dx="0,0.2,0.2,0.2,0.2,0.2,0.2" 
class="s7_359"
>cháodài</text>

<text 
x="553" 
y="217" 
dx="0" 
class="s8_359"
>n</text>

<text 
x="619" 
y="216" 
dx="0,0,0,0,0,0,0" 
class="s9_359"
>dynasty</text>

<text 
x="808" 
y="217" 
dx="0,0" 
class="s10_359"
>18</text>

<text 
x="61" 
y="261" 
dx="0,0" 
class="s5_359"
>炒股</text>

<text 
x="240" 
y="261" 
dx="0,0" 
class="s6_359"
>炒股</text>

<text 
x="417" 
y="259" 
dx="0,0.2,0.2,0.2,0.2,0.2,0.2" 
class="s7_359"
>chǎo gǔ</text>

<text 
x="553" 
y="259" 
dx="0,-0.4" 
class="s8_359"
>vo</text>

<text 
x="619" 
y="259" 
dx="0,-0.2,0,0,0,0,0,0,0,0,-0.2,0,0,-0.2" 
class="s9_359"
>to flip stocks</text>

<text 
x="808" 
y="259" 
dx="0,0" 
class="s10_359"
>17</text>

<text 
x="61" 
y="304" 
dx="0,0" 
class="s5_359"
>吵架</text>

<text 
x="240" 
y="304" 
dx="0,0" 
class="s6_359"
>吵架</text>

<text 
x="417" 
y="302" 
dx="0,0.2,0.2,0.2,0.2,0.2,0.2,0.2" 
class="s7_359"
>chǎo jià</text>

<text 
x="553" 
y="302" 
dx="0,-0.4" 
class="s8_359"
>vo</text>

<text 
x="619" 
y="302" 
dx="0,-0.2,0,0,0,0,0,0,-0.2,0" 
class="s9_359"
>to quarrel</text>

<text 
x="808" 
y="302" 
dx="0" 
class="s10_359"
>6</text>

<text 
x="61" 
y="347" 
dx="0,0" 
class="s5_359"
>车厢</text>

<text 
x="240" 
y="347" 
dx="0,0" 
class="s6_359"
>車廂</text>

<text 
x="417" 
y="344" 
dx="0,0.2,0.2,0.2,0.2,0.2,0.2,0.2" 
class="s7_359"
>chēxiāng</text>

<text 
x="553" 
y="345" 
dx="0" 
class="s8_359"
>n</text>

<text 
x="619" 
y="345" 
dx="0,0,0,0,0,0,0,0,0,0,0,0,0,-0.1" 
class="s9_359"
>train carriage</text>

<text 
x="808" 
y="345" 
dx="0,0" 
class="s10_359"
>13</text>

<text 
x="61" 
y="390" 
dx="0,0" 
class="s5_359"
>成功</text>

<text 
x="240" 
y="390" 
dx="0,0" 
class="s6_359"
>成功</text>

<text 
x="417" 
y="387" 
dx="0,0.2,0.2,0.2,0.2,0.2,0.2,0.2,0.2" 
class="s7_359"
>chénggōng</text>

<text 
x="553" 
y="388" 
dx="0,0,0,0,0" 
class="s8_359"
>v/adj</text>

<text 
x="619" 
y="387" 
dx="0,-0.2,0,0,0,0,0,0,0,0,0,0,0,0,0,0,0,0,0,0,0,0" 
class="s9_359"
>to succeed; successful</text>

<text 
x="808" 
y="388" 
dx="0,0" 
class="s10_359"
>11</text>

<text 
x="61" 
y="434" 
dx="0,0" 
class="s5_359"
>成绩</text>

<text 
x="240" 
y="434" 
dx="0,0" 
class="s6_359"
>成績</text>

<text 
x="417" 
y="431" 
dx="0,0.2,0.2,0.2,0.2,0.2,0.2" 
class="s7_359"
>chéngjì</text>

<text 
x="553" 
y="432" 
dx="0" 
class="s8_359"
>n</text>

<text 
x="619" 
y="422" 
dx="0,0,0,0,-0.3,0,0,0,0,0,0,0,0,0,0,0,0,0,0,-0.4,0,0,0,0,0,0" 
class="s9_359"
>performance, achievement, </text>

<text 
x="619" 
y="441" 
dx="0,-0.2,0,0,0,0,0,0,0,0,0,0,-0.2,0,0,0,0,0,0,0" 
class="s9_359"
>result, score, grade</text>

<text 
x="808" 
y="432" 
dx="0,0" 
class="s10_359"
>15</text>

<text 
x="61" 
y="478" 
dx="0,0" 
class="s5_359"
>成为</text>

<text 
x="240" 
y="478" 
dx="0,0" 
class="s6_359"
>成為</text>

<text 
x="417" 
y="475" 
dx="0,0.2,0.2,0.2,0.2,0.2,0.2,0.2" 
class="s7_359"
>chéngwéi</text>

<text 
x="553" 
y="476" 
dx="0" 
class="s8_359"
>v</text>

<text 
x="619" 
y="476" 
dx="0,-0.2,0,0,0,0,0,0,0,0,0,0,-0.2,0,0,0,0,0,0,0,0,0,-0.2" 
class="s9_359"
>to become, to turn into</text>

<text 
x="808" 
y="476" 
dx="0,0" 
class="s10_359"
>14</text>

<text 
x="61" 
y="520" 
dx="0,0" 
class="s5_359"
>迟到</text>

<text 
x="240" 
y="520" 
dx="0,0" 
class="s6_359"
>遲到</text>

<text 
x="417" 
y="518" 
dx="0,0.2,0.2,0.2,0.2,0.2" 
class="s7_359"
>chídào</text>

<text 
x="553" 
y="519" 
dx="0" 
class="s8_359"
>v</text>

<text 
x="619" 
y="518" 
dx="0,-0.2,0,0,0,0,0,0,-0.4,0,0,0,0,-0.2" 
class="s9_359"
>to arrive late</text>

<text 
x="808" 
y="519" 
dx="0" 
class="s10_359"
>7</text>

<text 
x="61" 
y="563" 
dx="0" 
class="s5_359"
>初</text>

<text 
x="240" 
y="563" 
dx="0" 
class="s6_359"
>初</text>

<text 
x="417" 
y="561" 
dx="0,0.2,0.2" 
class="s7_359"
>chū</text>

<text 
x="619" 
y="561" 
dx="0,0,0,0,0,0,0,0,0,0,0,0,0,0,0,0,0,0,0,-0.2" 
class="s9_359"
>first, early part of</text>

<text 
x="808" 
y="561" 
dx="0,0" 
class="s10_359"
>11</text>

<text 
x="61" 
y="607" 
dx="0,0" 
class="s5_359"
>出差</text>

<text 
x="240" 
y="607" 
dx="0,0" 
class="s6_359"
>出差</text>

<text 
x="417" 
y="605" 
dx="0,0.2,0.2,0.2,0.2,0.2,0.2,0.2" 
class="s7_359"
>chū chāi</text>

<text 
x="553" 
y="606" 
dx="0,-0.4" 
class="s8_359"
>vo</text>

<text 
x="619" 
y="595" 
dx="0,-0.4,-0.3,-0.3,-0.3,-0.3,-0.3,-0.3,-0.3,-0.3,-0.3,-0.3,-0.3,-0.3,-0.3,-0.3,-0.3,-0.3,-0.3,-0.3,-0.3,-0.3,-0.3,-0.3,-0.3,0" 
class="s9_359"
>to be away on business or </text>

<text 
x="619" 
y="615" 
dx="0,-0.3,-0.3,-0.3,-0.3,-0.3,-0.3,-0.3,-0.3,-0.3,-0.3,-0.3,-0.3,-0.3,-0.3,-0.3,-0.3,-0.3" 
class="s9_359"
>on a business trip</text>

<text 
x="808" 
y="606" 
dx="0,0" 
class="s10_359"
>20</text>

<text 
x="61" 
y="651" 
dx="0,0" 
class="s5_359"
>出汗</text>

<text 
x="240" 
y="651" 
dx="0,0" 
class="s6_359"
>出汗</text>

<text 
x="417" 
y="649" 
dx="0,0.2,0.2,0.2,0.2,0.2,0.2" 
class="s7_359"
>chū hàn</text>

<text 
x="553" 
y="650" 
dx="0,-0.4" 
class="s8_359"
>vo</text>

<text 
x="619" 
y="649" 
dx="0,-0.2,0,0,0,0,0,0" 
class="s9_359"
>to sweat</text>

<text 
x="808" 
y="650" 
dx="0,0" 
class="s10_359"
>16</text>

<text 
x="61" 
y="694" 
dx="0,0" 
class="s5_359"
>出门</text>

<text 
x="240" 
y="694" 
dx="0,0" 
class="s6_359"
>出門</text>

<text 
x="417" 
y="692" 
dx="0,0.2,0.2,0.2,0.2,0.2,0.2" 
class="s7_359"
>chū mén</text>

<text 
x="553" 
y="692" 
dx="0,-0.4" 
class="s8_359"
>vo</text>

<text 
x="619" 
y="692" 
dx="0,-0.2,0,0,-0.1,0,0,0,0,0,0,0,-0.2,0,0,0,0,0,-0.4,0,0,0,0,0" 
class="s9_359"
>to go out, to leave home</text>

<text 
x="808" 
y="692" 
dx="0,0" 
class="s10_359"
>14</text>

<text 
x="61" 
y="737" 
dx="0,0" 
class="s5_359"
>出生</text>

<text 
x="240" 
y="737" 
dx="0,0" 
class="s6_359"
>出生</text>

<text 
x="417" 
y="735" 
dx="0,0.2,0.2,0.2,0.2,0.2,0.2,0.2" 
class="s7_359"
>chūshēng</text>

<text 
x="553" 
y="735" 
dx="0" 
class="s8_359"
>v</text>

<text 
x="619" 
y="735" 
dx="0,-0.2,0,0,0,0,0,0,0,0" 
class="s9_359"
>to be born</text>

<text 
x="808" 
y="735" 
dx="0" 
class="s10_359"
>1</text>

<text 
x="61" 
y="781" 
dx="0,0" 
class="s5_359"
>出现</text>

<text 
x="240" 
y="781" 
dx="0,0" 
class="s6_359"
>出現</text>

<text 
x="417" 
y="779" 
dx="0,0.2,0.2,0.2,0.2,0.2,0.2" 
class="s7_359"
>chūxiàn</text>

<text 
x="553" 
y="779" 
dx="0" 
class="s8_359"
>v</text>

<text 
x="619" 
y="769" 
dx="0,-0.2,0,0,0,0,0,0,0,-1.1,0,0,-0.2,0,0,0,0,0,0,0,0" 
class="s9_359"
>to appear, to arise, </text>

<text 
x="619" 
y="789" 
dx="0,-0.2,0,0,0,0,0,0,-0.1" 
class="s9_359"
>to emerge</text>

<text 
x="808" 
y="779" 
dx="0,0" 
class="s10_359"
>15</text>

<text 
x="61" 
y="825" 
dx="0,0" 
class="s5_359"
>除夕</text>

<text 
x="240" 
y="825" 
dx="0,0" 
class="s6_359"
>除夕</text>

<text 
x="417" 
y="823" 
dx="0,0.2,0.2,0.2,0.2" 
class="s7_359"
>chúxī</text>

<text 
x="553" 
y="823" 
dx="0" 
class="s8_359"
>n</text>

<text 
x="619" 
y="823" 
dx="0,0,0,0,0,0,0,0,0,0,0,0,0,-1.4,0,0,0,-0.9,0,0,-0.9,-0.4" 
class="s9_359"
>Chinese New Year’s Eve</text>

<text 
x="808" 
y="823" 
dx="0,0" 
class="s10_359"
>11</text>

<text 
x="61" 
y="868" 
dx="0" 
class="s5_359"
>船</text>

<text 
x="240" 
y="868" 
dx="0" 
class="s6_359"
>船</text>

<text 
x="417" 
y="866" 
dx="0,0.2,0.2,0.2,0.2" 
class="s7_359"
>chuán</text>

<text 
x="553" 
y="866" 
dx="0" 
class="s8_359"
>n</text>

<text 
x="619" 
y="866" 
dx="0,0,0,0,0,0,0,0,0,0" 
class="s9_359"
>boat, ship</text>

<text 
x="808" 
y="866" 
dx="0,0" 
class="s10_359"
>10</text>

<text 
x="61" 
y="911" 
dx="0,0" 
class="s5_359"
>传统</text>

<text 
x="240" 
y="911" 
dx="0,0" 
class="s6_359"
>傳統</text>

<text 
x="417" 
y="908" 
dx="0,0.2,0.2,0.2,0.2,0.2,0.2,0.2,0.2" 
class="s7_359"
>chuántǒng</text>

<text 
x="553" 
y="909" 
dx="0,0,0,0,0" 
class="s8_359"
>n/adj</text>

<text 
x="619" 
y="908" 
dx="0,0,0,0,0,0,0,0,0,0,0,0,0,0,0,0,0,0,0,0,0,0" 
class="s9_359"
>tradition; traditional</text>

<text 
x="808" 
y="909" 
dx="0,0" 
class="s10_359"
>11</text>

<text 
x="61" 
y="955" 
dx="0,0" 
class="s5_359"
>春节</text>

<text 
x="240" 
y="955" 
dx="0,0" 
class="s6_359"
>春節</text>

<text 
x="417" 
y="952" 
dx="0,0.2,0.2,0.2,0.2,0.2,0.2" 
class="s7_359"
>Chūnjié</text>

<text 
x="553" 
y="953" 
dx="0,0" 
class="s8_359"
>pn</text>

<text 
x="619" 
y="943" 
dx="0,0,0,0,0,0,0,0,-1,0,0,0,0,0,0,0,0" 
class="s9_359"
>Spring Festival, </text>

<text 
x="619" 
y="962" 
dx="0,0,0,0,0,0,0,0,0,0,0,0,0,-1.4,0,0" 
class="s9_359"
>Chinese New Year</text>

<text 
x="808" 
y="953" 
dx="0,0" 
class="s10_359"
>11</text>

<text 
x="61" 
y="1000" 
dx="0,0" 
class="s5_359"
>纯棉</text>

<text 
x="240" 
y="1000" 
dx="0,0" 
class="s6_359"
>純棉</text>

<text 
x="417" 
y="998" 
dx="0,0.2,0.2,0.2,0.2,0.2,0.2,0.2" 
class="s7_359"
>chúnmián</text>

<text 
x="553" 
y="998" 
dx="0,0,0" 
class="s8_359"
>adj</text>

<text 
x="619" 
y="988" 
dx="0,0,0,-0.2,0,0,0,0,0,-0.2,0,0,0,0,0,0,0,0" 
class="s9_359"
>pure cotton, one- </text>

<text 
x="619" 
y="1008" 
dx="0,0,0,0,0,-0.2,0,0,0,0,0,-0.2,0,0,0,0,0,0,0,0,-0.2,0" 
class="s9_359"
>hundred-percent cotton</text>

<text 
x="808" 
y="998" 
dx="0" 
class="s10_359"
>4</text>

<text 
x="61" 
y="1045" 
dx="0,0" 
class="s5_359"
>从来</text>

<text 
x="240" 
y="1045" 
dx="0,0" 
class="s6_359"
>從來</text>

<text 
x="417" 
y="1043" 
dx="0,0.2,0.2,0.2,0.2,0.2,0.2" 
class="s7_359"
>cónglái</text>

<text 
x="553" 
y="1044" 
dx="0,0,0" 
class="s8_359"
>adv</text>

<text 
x="619" 
y="1033" 
dx="0,0,-0.2,0,0,0,0,0,0,0,0,0,0,0,0,0,0,-0.2,0,0,0,0,0,0" 
class="s9_359"
>from past till present, </text>

<text 
x="619" 
y="1053" 
dx="0,0,0,0,0,0,0,0,0,0,0,0,0,0,0,0,0,0,0,0" 
class="s9_359"
>always, at all times</text>

<text 
x="808" 
y="1044" 
dx="0,0" 
class="s10_359"
>12</text>

<text 
x="61" 
y="1090" 
dx="0" 
class="s5_359"
>存</text>

<text 
x="240" 
y="1090" 
dx="0" 
class="s6_359"
>存</text>

<text 
x="417" 
y="1087" 
dx="0,0.2,0.2" 
class="s7_359"
>cún</text>

<text 
x="553" 
y="1088" 
dx="0" 
class="s8_359"
>v</text>

<text 
x="619" 
y="1087" 
dx="0,-0.2,0,0,0,0,0,0,0,0,0,0,0,-0.2,0,0,0,0,0,0,0,0,0,0,-0.2" 
class="s9_359"
>to deposit, to accumulate</text>

<text 
x="808" 
y="1088" 
dx="0" 
class="s10_359"
>8</text>

<text 
x="61" 
y="1134" 
dx="0,0" 
class="s5_359"
>存款</text>

<text 
x="240" 
y="1134" 
dx="0,0" 
class="s6_359"
>存款</text>

<text 
x="417" 
y="1131" 
dx="0,0.2,0.2,0.2,0.2,0.2,0.2" 
class="s7_359"
>cúnkuǎn</text>

<text 
x="553" 
y="1132" 
dx="0,0,0,-0.4" 
class="s8_359"
>n/vo</text>

<text 
x="619" 
y="1122" 
dx="0,0,0,0,0,0,0,0,0,0,0,0,0,0,0,-0.2,0,0,0,0,0,0,0,0,0" 
class="s9_359"
>bank savings; to deposit </text>

<text 
x="619" 
y="1141" 
dx="0,0,0,0,0,0,0,0,0,0,0,0,0,0,0" 
class="s9_359"
>money at a bank</text>

<text 
x="808" 
y="1132" 
dx="0,0" 
class="s10_359"
>17</text>



<!-- Any embedded fonts defined here -->
<style type="text/css" ><![CDATA[

@font-face {
	font-family: LibreFranklin-SemiBold_di3;
	src: url("fonts/LibreFranklin-SemiBold_di3.woff") format("woff");
}

@font-face {
	font-family: GentiumBookBasic-Italic_chu;
	src: url("fonts/GentiumBookBasic-Italic_chu.woff") format("woff");
}

@font-face {
	font-family: LibreFranklin-Light_dib;
	src: url("fonts/LibreFranklin-Light_dib.woff") format("woff");
}

@font-face {
	font-family: LibreFranklin-SemiBold_dig;
	src: url("fonts/LibreFranklin-SemiBold_dig.woff") format("woff");
}

@font-face {
	font-family: STKaiTi-TC-Regular_cev;
	src: url("fonts/STKaiTi-TC-Regular_cev.woff") format("woff");
}

@font-face {
	font-family: LibreFranklin-Regular_di7;
	src: url("fonts/LibreFranklin-Regular_di7.woff") format("woff");
}

@font-face {
	font-family: LibreFranklin-Medium_dhv;
	src: url("fonts/LibreFranklin-Medium_dhv.woff") format("woff");
}

@font-face {
	font-family: STKaiti-SC-Regular_cf1;
	src: url("fonts/STKaiti-SC-Regular_cf1.woff") format("woff");
}

@font-face {
	font-family: LibreFranklin-SemiBold_cg0;
	src: url("fonts/LibreFranklin-SemiBold_cg0.woff") format("woff");
}

]]></style>

</svg>
