<?xml version="1.0" encoding="UTF-8" standalone="no"?>
<!DOCTYPE svg PUBLIC "-//W3C//DTD SVG 1.1//EN"
"http://www.w3.org/Graphics/SVG/1.1/DTD/svg11.dtd">


<!-- Page 216 -->
<svg x="0" y="0" width="921" height="1196" viewBox="0 0 921 1196" version="1.1" xmlns="http://www.w3.org/2000/svg" xmlns:xlink="http://www.w3.org/1999/xlink"
style="display: block;margin-left: auto;margin-right: auto;">
<defs>
<clipPath id="c0_216"><path d="M0,1196.3L0,0L921.3,0l0,1196.3Z" /></clipPath>

<style type="text/css"><![CDATA[

.g1_216{
fill: #808181;
}
.g2_216{
fill: none;
stroke: #FFFFFF;
stroke-width: 2.2916667;
stroke-linecap: butt;
stroke-linejoin: miter;
stroke-miterlimit: 4;
}
.g3_216{
fill: #808181;
stroke: #DCDDDF;
stroke-width: 2.2916667;
stroke-linecap: butt;
stroke-linejoin: miter;
stroke-miterlimit: 4;
}
.g4_216{
fill: none;
stroke: #D1D2D4;
stroke-width: 0.5102778;
stroke-linecap: butt;
stroke-linejoin: round;
stroke-miterlimit: 4;
}
.g5_216{
fill: none;
stroke: #D1D2D4;
stroke-width: 1.5277778;
stroke-linecap: butt;
stroke-linejoin: round;
stroke-miterlimit: 4;
}
.g6_216{
fill: none;
stroke: #FFFFFF;
stroke-width: 0.7654167;
stroke-linecap: butt;
stroke-linejoin: miter;
stroke-miterlimit: 4;
}

.s1_216{
font-size: 22.92px;
font-family: LibreFranklin-ExtraBold_dzb;
fill: #FFFFFF;
}
.s2_216{
font-size: 14.51px;
font-family: LibreFranklin-Bold_dzc;
fill: #231F20;
}
.s3_216{
font-size: 15.28px;
font-family: Wingdings2_cft;
fill: #E5C354;
}
.s4_216{
font-size: 13.37px;
font-family: LibreFranklin-Medium_dze;
fill: #231F20;
}
.s5_216{
font-size: 32.85px;
font-family: LibreFranklin-ExtraBold_dzb;
fill: #FFFFFF;
}
.s6_216{
font-size: 27.50px;
font-family: SourceHanSansCN-Medium_cfk;
fill: #FFFFFF;
}
.s7_216{
font-size: 27.50px;
font-family: SourceHanSansTW-Medium_ceq;
fill: #FFFFFF;
}
.s8_216{
font-size: 91.67px;
font-family: STKaiti-SC-Regular_cf1;
fill: #808181;
}
.s9_216{
font-size: 91.67px;
font-family: STKaiTi-TC-Regular_cev;
fill: #808181;
}
.s10_216{
font-size: 36.67px;
font-family: MuseoSlab-900_dzj;
fill: #FFFFFF;
}

]]></style>

</defs>
<path d="M0,0
L0,1196
L921,1196
L921,0 Z " 
fill="#FFFFFF" stroke="none" />
<image preserveAspectRatio="none" x="20" y="21" width="206" height="162" xlink:href="216/img/1.png" />
<image preserveAspectRatio="none" x="226" y="21" width="207" height="162" xlink:href="216/img/2.png" />
<image preserveAspectRatio="none" x="432" y="21" width="207" height="162" xlink:href="216/img/3.png" />
<image preserveAspectRatio="none" x="639" y="21" width="207" height="162" xlink:href="216/img/4.png" />
<image preserveAspectRatio="none" x="845" y="21" width="52" height="645" xlink:href="216/img/5.png" />
<image preserveAspectRatio="none" x="20" y="182" width="206" height="162" xlink:href="216/img/6.png" />
<image preserveAspectRatio="none" x="226" y="182" width="207" height="162" xlink:href="216/img/7.png" />
<image preserveAspectRatio="none" x="432" y="182" width="207" height="162" xlink:href="216/img/8.png" />
<image preserveAspectRatio="none" x="639" y="182" width="207" height="162" xlink:href="216/img/9.png" />
<image preserveAspectRatio="none" x="20" y="343" width="206" height="162" xlink:href="216/img/10.png" />
<image preserveAspectRatio="none" x="226" y="343" width="207" height="162" xlink:href="216/img/11.png" />
<image preserveAspectRatio="none" x="432" y="343" width="207" height="162" xlink:href="216/img/12.png" />
<image preserveAspectRatio="none" x="639" y="343" width="207" height="162" xlink:href="216/img/13.png" />
<image preserveAspectRatio="none" x="20" y="504" width="155" height="215" xlink:href="216/img/14.png" />
<image preserveAspectRatio="none" x="174" y="504" width="310" height="108" xlink:href="216/img/15.png" />
<image preserveAspectRatio="none" x="484" y="504" width="310" height="108" xlink:href="216/img/16.png" />
<image preserveAspectRatio="none" x="794" y="504" width="52" height="269" xlink:href="216/img/17.png" />
<image preserveAspectRatio="none" x="742" y="612" width="52" height="161" xlink:href="216/img/18.png" />
<image preserveAspectRatio="none" x="174" y="665" width="568" height="54" xlink:href="216/img/19.png" />
<image preserveAspectRatio="none" x="845" y="665" width="52" height="269" xlink:href="216/img/20.png" />
<image preserveAspectRatio="none" x="20" y="719" width="155" height="54" xlink:href="216/img/21.png" />
<image preserveAspectRatio="none" x="20" y="745" width="206" height="142" xlink:href="216/img/22.png" />
<image preserveAspectRatio="none" x="226" y="745" width="207" height="142" xlink:href="216/img/23.png" />
<image preserveAspectRatio="none" x="432" y="745" width="207" height="142" xlink:href="216/img/24.png" />
<image preserveAspectRatio="none" x="639" y="745" width="207" height="142" xlink:href="216/img/25.png" />
<image preserveAspectRatio="none" x="845" y="745" width="52" height="189" xlink:href="216/img/26.png" />
<image preserveAspectRatio="none" x="20" y="886" width="671" height="48" xlink:href="216/img/27.png" />
<image preserveAspectRatio="none" x="690" y="886" width="156" height="48" xlink:href="216/img/28.png" />
<image preserveAspectRatio="none" x="133" y="562" width="300" height="105" xlink:href="216/img/29.png" />
<image preserveAspectRatio="none" x="433" y="562" width="301" height="105" xlink:href="216/img/30.png" />
<image preserveAspectRatio="none" x="734" y="562" width="50" height="105" xlink:href="216/img/31.png" />
<image preserveAspectRatio="none" x="133" y="676" width="451" height="70" xlink:href="216/img/32.png" />
<image preserveAspectRatio="none" x="583" y="676" width="201" height="70" xlink:href="216/img/33.png" />
<image preserveAspectRatio="none" x="133" y="745" width="651" height="36" xlink:href="216/img/34.png" />
<path d="M721.9,152.6c0,0,-3.6,0,-3.6,3.5l0,42.1c0,0,0,3.5,3.6,3.5l118.6,0c0,0,3.6,0,3.6,-3.5l0,-42.1c0,0,0,-3.5,-3.6,-3.5Z" class="g1_216" />
<path d="M721.9,152.6c0,0,-3.6,0,-3.6,3.5l0,42.1c0,0,0,3.5,3.6,3.5l118.6,0c0,0,3.6,0,3.6,-3.5l0,-42.1c0,0,0,-3.5,-3.6,-3.5l-118.6,0Z" class="g2_216" />
<path d="M721.9,212.6c0,0,-3.6,0,-3.6,3.5l0,42.1c0,0,0,3.6,3.6,3.6l118.6,0c0,0,3.6,0,3.6,-3.6l0,-42.1c0,0,0,-3.5,-3.6,-3.5Z" class="g1_216" />
<path d="M721.9,212.6c0,0,-3.6,0,-3.6,3.5l0,42.1c0,0,0,3.6,3.6,3.6l118.6,0c0,0,3.6,0,3.6,-3.6l0,-42.1c0,0,0,-3.5,-3.6,-3.5l-118.6,0Z" class="g2_216" />
<path d="M473.2,956.6l310.4,0l0,-46l-310.4,0l0,46Z" class="g3_216" />
<path d="M133.2,956.6l310.4,0l0,-46l-310.4,0l0,46Z" class="g3_216" />
<text 
x="175" 
y="939" 
dx="0,0.2,0.2,0.2,0.2,0.2,0.2,0.2,0.2,0.2,0.2,0.2,0.2,0.2,0.2,0.2,0.2,-0.5,0.2" 
class="s1_216"
>Learning Objectives</text>

<text 
x="161" 
y="987" 
dx="0,0,0,0,0,0,0,0,0,0,0,0,0,0,0,0,0,0,0,0,0,0,0,0,0,0,0,0,0,0,0,0,-0.2,0" 
class="s2_216"
>In this lesson, you will learn to:</text>

<text 
x="163" 
y="1012" 
dx="0" 
class="s3_216"
></text>

<text 
x="182" 
y="1012" 
dx="0,0,0,0,0,0,0,0,0,0,0,-0.1,0,0,0,0,0,0,0,0,-0.2,-0.2,0,0,0,0,0,0,-0.4,0,0" 
class="s4_216"
>Discuss whether you’re a saver </text>

<text 
x="182" 
y="1030" 
dx="0,0,0,0,0,0,0,0,0,0,0,0" 
class="s4_216"
>or a spender</text>

<text 
x="163" 
y="1052" 
dx="0" 
class="s3_216"
></text>

<text 
x="182" 
y="1052" 
dx="0,0,0,0,0,0,0,0,0,0,0,0,0,0,0,-0.2,0,0,0,0,-0.4,0,0,0,0,0,0,0,0" 
class="s4_216"
>Identify ways to invest money</text>

<text 
x="163" 
y="1073" 
dx="0" 
class="s3_216"
></text>

<text 
x="182" 
y="1073" 
dx="0,0,0,0,0,0,0,0,0,0,0,-0.2,0,0,0,0,-0.2,0,0,0,0,0,0,0,0,0,0,0,0,0,0,0,-0.4,-0.1,0,0,0,-0.2,0" 
class="s4_216"
>List ways to purchase a big-ticket item</text>

<text 
x="163" 
y="1094" 
dx="0" 
class="s3_216"
></text>

<text 
x="182" 
y="1094" 
dx="0,0,0,0,0,0,0,0,0,0,0,0,0,0,0,0,0,0,0,0,0,0,0,0,0,0,0,0,0" 
class="s4_216"
>Describe your spending habits</text>

<text 
x="163" 
y="1116" 
dx="0" 
class="s3_216"
></text>

<text 
x="182" 
y="1116" 
dx="0,0,0,0,0,0,0,0,0,0,0,0,0,0,0,0,0,0,-0.2,0,0,0,0,0,0,0,0,0,0,0,0,0,0,0,0,0,0,0,0,0,0" 
class="s4_216"
>Recount in basic terms the ups and downs </text>

<text 
x="182" 
y="1134" 
dx="0,-0.2,0,0,0,0,0,0,0,-0.2,0,0,0,0,0,0,0,-0.4,-0.1" 
class="s4_216"
>of the stock market</text>

<text 
x="506" 
y="939" 
dx="0,0.2,0.2,0.2,0.2,-0.2,0.2,0.2,0.2,0.2,0.2,0.2,0.2,-0.1,0.2,0.2,0.2,0.2,0.2,0.2" 
class="s1_216"
>Relate and Get Ready</text>

<text 
x="500" 
y="987" 
dx="0,0,0,0,0,0,0,0,0,0,0,0,0,0,0,0,0,0,-0.2,0,0,0,0,0,0,0,0,0,0,0" 
class="s2_216"
>In your own culture/community:</text>

<text 
x="502" 
y="1012" 
dx="0" 
class="s3_216"
></text>

<text 
x="521" 
y="1012" 
dx="0,0,0,0,0,0,0,0,0,0,0,0,0,0,0,0,0,-0.2,0,0,0,-0.4,0,0,0,0,0,0,0,0,0,0,0,0,0,0,0" 
class="s4_216"
>How do people perceive saving money? </text>

<text 
x="502" 
y="1033" 
dx="0" 
class="s3_216"
></text>

<text 
x="521" 
y="1033" 
dx="0,0,0,0,0,0,0,0,0,0,0,0,0,0,0,0,0,0,-0.4,0,0,0,0,0,0,0,0,0,0,0,0,-0.2,0,0,0" 
class="s4_216"
>Do many people invest in the stock </text>

<text 
x="521" 
y="1052" 
dx="0,0,0,0,-0.4,-0.1,0,0,0,0,0,-0.2,0,0,0,0,0,0,0,0,-0.2,0" 
class="s4_216"
>market or real estate?</text>

<text 
x="502" 
y="1073" 
dx="0" 
class="s3_216"
></text>

<text 
x="521" 
y="1073" 
dx="0,0,0,0,0,0,0,0,0,-0.2,0,0,0,0,0,0,0,0,0,-0.2,0,0,-0.2,-0.1,0,0,0,0,0,0,0,0,0,0,-0.2,0,0,0,0" 
class="s4_216"
>Is it more common to get a mortgage or </text>

<text 
x="521" 
y="1091" 
dx="0,-0.2,0,0,0,0,0,0,0,0,0,0,0,0,0,0,0,0,0,0,-0.2,0,0,0,0,0,0,0,0,0,0,0,0,0,0,0" 
class="s4_216"
>to pay cash when purchasing a house?</text>

<text 
x="701" 
y="117" 
dx="0,0,0,0,0,0,0,0,0" 
class="s5_216"
>Lesson 17</text>

<text 
x="727" 
y="187" 
dx="0,-1.4,-1.4,-1.4" 
class="s6_216"
>第十七课</text>

<text 
x="727" 
y="248" 
dx="0,-1.4,-1.4,-1.4" 
class="s7_216"
>第十七課</text>

<g clip-path="url(#c0_216)">
<path d="M670,134.3l302.8,0" class="g4_216" />
<path d="M670,136.4l302.8,0" class="g5_216" />
</g>
<text 
x="229" 
y="640" 
dx="0,0,0,0,0" 
class="s8_216"
>理财与投资</text>

<text 
x="229" 
y="756" 
dx="0,0,0,0,0" 
class="s9_216"
>理財與投資</text>

<text 
x="225" 
y="837" 
dx="0,0,0,0,-1.5,0,0,0,0,0,-0.4,-0.3,0,0,0,0,0,0" 
class="s10_216"
>WEALTH MANAGEMENT </text>

<text 
x="299" 
y="876" 
dx="0,0,0,0,0,0,0,0,0,0,0,0,-0.2" 
class="s10_216"
>AND INVESTING</text>

<path d="M133.6,791.4l0,102.6l0,1.2l1.2,0l645.8,0l1.2,0l0,-1.2l0,-102.6l0,-1.2l-1.2,0l-645.8,0l-1.2,0l0,1.2Z" class="g2_216" />
<path d="M136.7,892.1l642,0l0,-98.8l-642,0l0,98.8Z" class="g6_216" />


<!-- Any embedded fonts defined here -->
<style type="text/css" ><![CDATA[

@font-face {
	font-family: LibreFranklin-Medium_dze;
	src: url("fonts/LibreFranklin-Medium_dze.woff") format("woff");
}

@font-face {
	font-family: SourceHanSansTW-Medium_ceq;
	src: url("fonts/SourceHanSansTW-Medium_ceq.woff") format("woff");
}

@font-face {
	font-family: LibreFranklin-Bold_dzc;
	src: url("fonts/LibreFranklin-Bold_dzc.woff") format("woff");
}

@font-face {
	font-family: LibreFranklin-ExtraBold_dzb;
	src: url("fonts/LibreFranklin-ExtraBold_dzb.woff") format("woff");
}

@font-face {
	font-family: STKaiTi-TC-Regular_cev;
	src: url("fonts/STKaiTi-TC-Regular_cev.woff") format("woff");
}

@font-face {
	font-family: SourceHanSansCN-Medium_cfk;
	src: url("fonts/SourceHanSansCN-Medium_cfk.woff") format("woff");
}

@font-face {
	font-family: STKaiti-SC-Regular_cf1;
	src: url("fonts/STKaiti-SC-Regular_cf1.woff") format("woff");
}

@font-face {
	font-family: Wingdings2_cft;
	src: url("fonts/Wingdings2_cft.woff") format("woff");
}

@font-face {
	font-family: MuseoSlab-900_dzj;
	src: url("fonts/MuseoSlab-900_dzj.woff") format("woff");
}

]]></style>

</svg>
