<?xml version="1.0" encoding="UTF-8" standalone="no"?>
<!DOCTYPE svg PUBLIC "-//W3C//DTD SVG 1.1//EN"
"http://www.w3.org/Graphics/SVG/1.1/DTD/svg11.dtd">


<!-- Page 276 -->
<svg x="0" y="0" width="921" height="1196" viewBox="0 0 921 1196" version="1.1" xmlns="http://www.w3.org/2000/svg" xmlns:xlink="http://www.w3.org/1999/xlink"
style="display: block;margin-left: auto;margin-right: auto;">
<defs>

<style type="text/css"><![CDATA[

.g1_276{
fill: #85215E;
}
.g2_276{
fill: none;
stroke: #E1DCD8;
stroke-width: 2.2916667;
stroke-linecap: butt;
stroke-linejoin: miter;
stroke-miterlimit: 4;
}
.g3_276{
fill: none;
stroke: #E1DCD8;
stroke-width: 0.7654167;
stroke-linecap: butt;
stroke-linejoin: miter;
stroke-miterlimit: 4;
}
.g4_276{
fill: none;
stroke: #E1BB32;
stroke-width: 16.805555;
stroke-linecap: butt;
stroke-linejoin: miter;
stroke-miterlimit: 4;
}
.g5_276{
fill: #FFFFFF;
}
.g6_276{
fill: #85215E;
stroke: #B2B3B7;
stroke-width: 1.5277778;
stroke-linecap: butt;
stroke-linejoin: miter;
stroke-miterlimit: 4;
}

.s1_276{
font-size: 14.51px;
font-family: LibreFranklin-Regular_d9v;
fill: #3F3F40;
}
.s2_276{
font-size: 23.68px;
font-family: STKaiti-SC-Bold_cdn;
fill: #85215E;
}
.s3_276{
font-size: 23.68px;
font-family: STKaiTi-TC-Bold_cdt;
fill: #85215E;
}
.s4_276{
font-size: 9.17px;
font-family: Wingdings-Regular_clp;
fill: #8D3768;
}
.s5_276{
font-size: 25.97px;
font-family: STKaiti-SC-Regular_cf1;
fill: #3F3F40;
}
.s6_276{
font-size: 25.97px;
font-family: STKaiTi-TC-Regular_cev;
fill: #3F3F40;
}
.s7_276{
font-size: 17.19px;
font-family: GentiumBasic-Italic_cic;
fill: #3F3F40;
}
.s8_276{
font-size: 14.51px;
font-family: LibreFranklin-SemiBold_dai;
fill: #FFFFFF;
}
.s9_276{
font-size: 14.51px;
font-family: Wingdings2_cft;
fill: #E4C048;
}
.s10_276{
font-size: 14.51px;
font-family: LibreFranklin-Regular_d9v;
fill: #FFFFFF;
}
.s11_276{
font-size: 13.75px;
font-family: LibreFranklin-Medium_d9h;
fill: #231F20;
}
.s12_276{
font-size: 13.75px;
font-family: LibreFranklin-SemiBold_dbl;
fill: #FFFFFF;
}

]]></style>

</defs>
<path d="M0,0
L0,1196
L921,1196
L921,0 Z " 
fill="#FFFFFF" stroke="none" />
<text 
x="144" 
y="69" 
dx="0,0,0,0,0,0,0,-0.2,0,0,0,0,0,0,0,0,0,0,0,0,0,0,0,0,0,0,0,0,0,0,0,0,0,0,0,0,0,0,0,-0.9,0,0,0,0,0,-0.2,0,0,0,0,0,0,0,0,0,0,0,0,0,0,0,0,0,-0.2,0,0,0,0,0,0,0,0,0,0,0,0,-0.4,0,0,0,0,0,0,0,0,0" 
class="s1_276"
>What are your thoughts on your country’s history? Use as many of the cohesive devices </text>

<text 
x="144" 
y="93" 
dx="0,0,0,0,0,0,0,0,0,-0.2,0,0,0,0,0,0,0,0,0,0,-0.3,0,0,0,0,0,0,0,0,0,0,0,0,0,0,0,-0.2,0,0,0,0,0,0,0,0,0,-0.1,0,0,0,0,0,0,0,0,0,0,0,0,0,0,-0.2,0,0,0,0,0,0,0,0,0,-0.2,0,-0.1,-0.1,0,0,0,0,0,0,0,-0.2,0,0,0,0,0,0,0,0" 
class="s1_276"
>highlighted in the example on the previous page as possible to string together a response, </text>

<text 
x="144" 
y="117" 
dx="0,0,0,0,0,0,0,0,0,0,0,0,0,0,0,-0.2,0,0,0,0,0,0,0,0,0,0,0,0,0,0,0,0,0,0,0,0,0,-0.2,0,0,0,0,0,0,0,0,0,0,0,0,0,0,0,0,0,0" 
class="s1_276"
>based on the prompts. Other phrases to consider include </text>

<text 
x="528" 
y="119" 
dx="0,0" 
class="s2_276"
>可是</text>

<text 
x="575" 
y="117" 
dx="0,0" 
class="s1_276"
>, </text>

<text 
x="582" 
y="119" 
dx="0,0" 
class="s2_276"
>不但</text>

<text 
x="629" 
y="117" 
dx="0,0" 
class="s1_276"
>, </text>

<text 
x="635" 
y="119" 
dx="0,0" 
class="s2_276"
>还是</text>

<text 
x="683" 
y="117" 
dx="0" 
class="s1_276"
>/</text>

<text 
x="688" 
y="119" 
dx="0,0" 
class="s3_276"
>還是</text>

<text 
x="735" 
y="117" 
dx="0,0" 
class="s1_276"
>, </text>

<text 
x="144" 
y="143" 
dx="0,0" 
class="s2_276"
>因为</text>

<text 
x="191" 
y="142" 
dx="0" 
class="s1_276"
>/</text>

<text 
x="196" 
y="143" 
dx="0,0" 
class="s3_276"
>因為</text>

<text 
x="244" 
y="142" 
dx="0,0,0,0,0,0" 
class="s1_276"
>, and </text>

<text 
x="278" 
y="143" 
dx="0" 
class="s2_276"
>也</text>

<text 
x="302" 
y="142" 
dx="0" 
class="s1_276"
>.</text>

<text 
x="166" 
y="200" 
dx="0" 
class="s4_276"
>¡</text>

<text 
x="186" 
y="200" 
dx="0,0,0,0,0,0,0,0,0,0,0,0,0" 
class="s5_276"
>你们国家的历史有多少年了？</text>

<text 
x="186" 
y="238" 
dx="0,0,0,0,0,0,0,0,0,0,0,0,0" 
class="s6_276"
>你們國家的歷史有多少年了？</text>

<text 
x="166" 
y="281" 
dx="0" 
class="s4_276"
>¡</text>

<text 
x="186" 
y="281" 
dx="0,0,0,0,0,0,0,0,0,0,0,0,0,0,0" 
class="s5_276"
>你们国家的历史可以分成多少时期</text>

<text 
x="582" 
y="281" 
dx="0,0.3,0.3,0.3,0.3,0.3,0.3" 
class="s7_276"
>(shíqī)</text>

<text 
x="631" 
y="281" 
dx="0,0,0,0,0,0,0,0" 
class="s1_276"
>(period)</text>

<text 
x="683" 
y="281" 
dx="0" 
class="s5_276"
>？</text>

<text 
x="186" 
y="319" 
dx="0,0,0,0,0,0,0,0,0,0,0,0,0,0,0" 
class="s6_276"
>你們國家的歷史可以分成多少時期</text>

<text 
x="582" 
y="319" 
dx="0,0.3,0.3,0.3,0.3,0.3,0.3" 
class="s7_276"
>(shíqī)</text>

<text 
x="631" 
y="319" 
dx="0,0,0,0,0,0,0,0" 
class="s1_276"
>(period)</text>

<text 
x="683" 
y="319" 
dx="0" 
class="s6_276"
>？</text>

<text 
x="166" 
y="362" 
dx="0" 
class="s4_276"
>¡</text>

<text 
x="186" 
y="362" 
dx="0,0,0,0,0,0,0,0,0,0,0,0,0,0,0,0,0,0,0,0,0,0" 
class="s5_276"
>每一个时期有什么重要的事情？比如哪个时期经济</text>

<text 
x="186" 
y="395" 
dx="0,0,0,0,0,0,0,0,0,0,0,0,0,0,0,0,0,0,0,0,0,0" 
class="s5_276"
>最好、哪个时期文化最发达、哪个时期跟别的国家</text>

<text 
x="186" 
y="429" 
dx="0,0,0,0,0,0,0,0,0,0" 
class="s5_276"
>开始进行贸易，等等。</text>

<text 
x="186" 
y="467" 
dx="0,0,0,0,0,0,0,0,0,0,0,0,0,0,0,0,0,0,0,0,0,0" 
class="s6_276"
>每一個時期有什麼重要的事情？比如哪个時期經濟</text>

<text 
x="186" 
y="501" 
dx="0,0,0,0,0,0,0,0,0,0,0,0,0,0,0,0,0,0,0,0,0,0" 
class="s6_276"
>最好、哪個時期文化最發達、哪個時期跟別的國家</text>

<text 
x="186" 
y="534" 
dx="0,0,0,0,0,0,0,0,0,0" 
class="s6_276"
>開始進行貿易，等等。</text>

<path d="M235.8,732c0,0,-17.4,-0.3,-17.8,16.8l34.4,230.3c0,0,-0.4,17.2,17.1,17.5L787.7,976c0,0,17.5,0.4,17.8,-16.8l4,-187.9c0,0,0.4,-17.1,-17,-17.5Z" class="g1_276" />
<path d="M235.8,730.9c-0.1,0,-18.6,-0.2,-19,17.9l34.4,230.5c0,0,-0.2,18.1,18.2,18.5L787.7,977.1c0.2,0,18.6,0.2,19,-17.9l4,-187.8c0,-0.2,0.2,-18.4,-18.2,-18.8L235.9,730.9l-0.1,0Z" class="g2_276" />
<path d="M235.8,733.9c-0.9,0,-15.6,0,-15.9,15l34.4,229.9c0,1,-0.1,15.6,15.2,15.9L787.6,974.1c0.8,0,15.7,0.1,16,-14.9l4,-187.9c0,-0.6,0.1,-15.3,-15.2,-15.6C606.9,748.4,421.3,741.2,235.8,733.9Z" class="g3_276" />
<path d="M122.2,809.6c0,0,-17.3,2.4,-14.8,19.7l16.3,116.4c0,0,2.5,17.3,19.7,14.9L259.9,944.2c0,0,17.2,-2.4,14.8,-19.7L258.3,808.1c0,0,-2.4,-17.3,-19.7,-14.9Z" class="g1_276" />
<path d="M122.1,808.5c-0.2,0,-18.4,2.8,-15.9,21l16.4,116.4c0,0.2,2.8,18.4,21,15.8L260,945.4c0.2,-0.1,18.4,-2.8,15.8,-21L259.5,807.9c0,-0.1,-2.8,-18.3,-21,-15.8L122.1,808.5Z" class="g2_276" />
<path d="M122.5,811.5c-0.6,0.1,-15.4,2.4,-13.2,17.5l16.3,116.5c0.1,0.6,2.4,15.3,17.6,13.2L259.6,942.3c0.6,-0.1,15.3,-2.4,13.2,-17.5L256.5,808.4C256.4,807.7,254,793,238.9,795.1L122.5,811.5Z" class="g3_276" />
<path d="M203.7,898.9l31.4,23.5l59,-77.9" class="g4_276" />
<path d="M133.2,915.3l16.9,0l0,-6.7l-3.5,0l0,3.4l-6.6,0l0,-15.6l2.7,0l0,-3.3l-9.5,0l0,3.3l2.7,0l0,15.8l-2.7,0Zm21.1,-18.7l4,0l0,-3.5l-4,0l0,3.5ZM152,915.3l8.6,0l0,-3l-2.3,0l0,-13l-6.5,0l0,3l2.5,0l0,10l-2.3,0Zm10.3,-3.5c0,2.6,3.6,3.9,6.5,3.9c3.6,0,6.7,-1.7,6.7,-4.9c0,-3.1,-2.9,-4.1,-5.3,-4.9c-1.8,-0.5,-3.4,-1.1,-3.4,-2.4c0,-1,1.1,-1.4,2.4,-1.4c1.4,0,2.3,0.5,2.3,1.3l0,0.9l3.4,0l0,-2c0,-2.4,-3.4,-3.4,-5.7,-3.4c-3,0,-6.3,1.2,-6.3,4.6c0,3.1,2.7,4.2,5,5c2.1,0.8,3.6,1.1,3.6,2.4c0,1.1,-1.1,1.7,-2.7,1.7c-1.7,0,-3.1,-0.6,-3.1,-1.7l0,-0.9l-3.4,0Zm17.1,-2.4c0,5.4,4.4,6.1,6.7,6.1c0.7,0,1.2,-0.1,1.2,-0.1l0,-3.3c0,0,-0.3,0,-0.7,0c-1.2,0,-3.2,-0.3,-3.2,-3.1l0,-6.7l3.6,0l0,-3l-3.6,0l0,-4.3l-3.9,0l0,4.3l-2.5,0l0,3l2.4,0Z" class="g5_276" />
<path d="M133,870.5c0,6.5,4.9,11.6,11.6,11.6c3.1,0,8.8,-1.1,8.8,-4.4l0,-3.1l-3.7,0l0,1.8c0,1.7,-3.5,2.2,-4.8,2.2c-4.4,0,-7.7,-3.3,-7.7,-8.3c0,-4.7,3.1,-7.7,7.4,-7.7c1.8,0,4.8,0.5,4.8,2.2l0,1.7l3.7,0l0,-3c0,-3.5,-6,-4.4,-8.7,-4.4c-6.4,0,-11.4,4.8,-11.4,11.4m22.6,11.2l8.5,0l0,-3l-2.2,0l0,-4.3c0,-3,1.7,-5.4,4.5,-5.4c2,0,2.5,1.3,2.5,3.2l0,9.5l6.3,0l0,-3l-2.3,0l0,-7.3c0,-4.2,-2,-6.1,-5.6,-6.1c-2.7,0,-4.7,1.7,-5.5,3.3c0,0,0.1,-0.6,0.1,-1.4l0,-7.8l-6.5,0l0,3l2.5,0l0,16.3l-2.3,0Zm21.1,-8c0,4.5,3.3,8.4,8.6,8.4c4,0,6.4,-2.3,6.4,-2.3L190.2,877c0,0,-2,1.7,-4.6,1.7c-2.4,0,-4.6,-1.5,-4.8,-4.4l11,0c0,0,0.1,-0.9,0.1,-1.4c0,-4.2,-2.5,-7.6,-7.1,-7.6c-4.8,0,-8.1,3.5,-8.1,8.4m4.2,-1.8c0.3,-2.1,1.8,-3.5,3.8,-3.5c1.7,0,3.1,1.3,3.1,3.5Zm12.9,1.8c0,5.2,4.2,8.4,8.8,8.4c3.1,0,5.5,-1.5,6.6,-2.5l-1.4,-2.8c-0.8,0.7,-2.7,1.9,-4.9,1.9c-2.8,0,-5.1,-1.8,-5.1,-5.1c0,-2.9,1.8,-4.9,4.7,-4.9c1.4,0,3,0.5,3,1.6l0,1.1l3.5,0l0,-2.2c0,-2.9,-3.9,-3.9,-6.6,-3.9c-4.9,0,-8.6,3.7,-8.6,8.4m17,8l8.1,0l0,-3l-1.8,0l0,-4l1,0c0.5,0,1,0,1.4,0.6l2.8,5c0.7,1.2,1.2,1.4,2.5,1.4l3,0l0,-3l-0.9,0c-0.7,0,-1,-0.1,-1.3,-0.6l-2.3,-3.9c-0.6,-1.1,-1.2,-1.3,-1.2,-1.3l0,-0.1l3.5,-4.1l2.1,0l0,-3l-7.7,0l0,3l1.8,0l-2.6,3.1l-2.1,0l0,-12.4l-6.4,0l0,3l2.5,0l0,16.3l-2.4,0Z" class="g5_276" />
<path d="M133,836.9c0,6.4,4.9,11.6,11.6,11.6c3.1,0,8.8,-1.1,8.8,-4.4l0,-3.1l-3.7,0l0,1.8c0,1.7,-3.5,2.1,-4.8,2.1c-4.4,0,-7.7,-3.2,-7.7,-8.2c0,-4.7,3.1,-7.7,7.4,-7.7c1.8,0,4.8,0.5,4.8,2.2l0,1.7l3.7,0l0,-3c0,-3.5,-6,-4.4,-8.7,-4.4c-6.4,0,-11.4,4.8,-11.4,11.4m22.5,6.7c0,3.3,2.6,4.9,5.3,4.9c3.7,0,5.1,-3.1,5.1,-3.1c0,0,-0.1,0.3,-0.1,0.8l0,0.2c0,0.9,0.6,1.7,2.1,1.7l3.7,0l0,-3l-1.4,0c-0.5,0,-0.7,-0.2,-0.7,-0.7l0,-6.4c0,-4,-2.3,-6.3,-6.6,-6.3c-3.8,0,-6.3,2,-6.3,2l1.5,2.8c0,0,2.1,-1.6,4.5,-1.6c1.6,0,2.9,0.7,2.9,2.8l0,0.5l-1,0c-2.6,0,-9,0.5,-9,5.4m4,-0.3c0,-2.4,3.8,-2.7,5.4,-2.7l0.7,0l0,0.6c0,2,-1.6,4.3,-3.7,4.3c-1.5,0,-2.4,-1,-2.4,-2.2m14,4.8l8.6,0l0,-3l-2.3,0l0,-4.2c0,-2.8,1.7,-5.5,4.5,-5.5c2,0,2.6,1.3,2.6,3.2l0,9.5l6.2,0l0,-3l-2.3,0l0,-7.3c0,-4.2,-1.9,-6.1,-5.3,-6.1c-4,0,-5.7,3.1,-5.9,3.6l-0.1,0c0,0,0.1,-0.3,0.1,-0.7l0,-0.7c0,-1.1,-0.7,-1.8,-2.1,-1.8l-4.2,0l0,3l1.8,0c0.4,0,0.7,0.2,0.7,0.7l0,9.3l-2.3,0Zm22.6,-7.2l9.4,0l0,-3.5l-9.4,0l0,3.5Zm12.8,7.2l9.7,0c1.8,0,3.4,-0.1,4.9,-0.7c4.2,-1.4,6.9,-5.2,6.9,-10.4c0,-5.5,-2.9,-9.3,-7.2,-10.6c-1.5,-0.5,-2.9,-0.6,-4.7,-0.6l-9.6,0l0,3.1l2.7,0l0,16.1l-2.7,0Zm6.8,-3.3l0,-15.7l2.7,0c1.3,0,2.3,0.1,3.5,0.5c2.6,1,4.3,3.6,4.3,7.4c0,3.6,-1.6,6.2,-4.2,7.2c-1.1,0.5,-2.2,0.6,-3.6,0.6Zm16.9,-4.7c0,4.9,3.9,8.4,8.8,8.4c4.8,0,8.7,-3.5,8.7,-8.4c0,-4.9,-3.9,-8.4,-8.8,-8.4c-4.8,0,-8.7,3.5,-8.7,8.4m4,0c0,-3,2.2,-5,4.8,-5c2.5,0,4.7,2,4.7,5c0,3,-2.2,5,-4.7,5c-2.6,0,-4.8,-2,-4.8,-5Z" class="g5_276" />
<path d="M309.9,885.6l7.9,0l0,-2.5l-2.2,0l0,-13.3l2.2,0l0,-2.6l-7.9,0l0,2.6l2.2,0l0,13.3l-2.2,0ZM326,879c0,4.3,3.4,6.9,7.3,6.9c2.5,0,4.5,-1.2,5.4,-2l-1.1,-2.4c-0.8,0.6,-2.3,1.7,-4.2,1.7c-2.2,0,-4.1,-1.5,-4.1,-4.3c0,-2.4,1.5,-4,3.9,-4c1.1,0,2.5,0.4,2.5,1.3l0,0.8l2.8,0l0,-1.8c0,-2.3,-3.2,-3.1,-5.4,-3.1c-4.1,0,-7.1,3,-7.1,6.9m14,2.9c0,2.7,2.2,4,4.4,4c3.1,0,4.2,-2.5,4.2,-2.5l0.1,0c0,0,-0.1,0.2,-0.1,0.7l0,0.1c0,0.8,0.5,1.4,1.7,1.4l3.1,0l0,-2.4l-1.2,0c-0.4,0,-0.6,-0.2,-0.6,-0.6l0,-5.3c0,-3.4,-1.9,-5.2,-5.4,-5.2c-3.2,0,-5.3,1.6,-5.3,1.6l1.2,2.3c0,0,1.8,-1.3,3.8,-1.3c1.4,0,2.4,0.6,2.4,2.3l0,0.4l-0.8,0c-2.1,0,-7.5,0.5,-7.5,4.5m3.4,-0.3c0,-2,3.1,-2.2,4.4,-2.2l0.6,0l0,0.5c0,1.6,-1.3,3.6,-3.1,3.6c-1.2,0,-1.9,-0.9,-1.9,-1.9m11.5,4l7.1,0l0,-2.4l-1.9,0l0,-3.5c0,-2.3,1.4,-4.6,3.8,-4.6c1.7,0,2.1,1.1,2.1,2.7l0,7.8l5.2,0l0,-2.4l-1.9,0l0,-6.1c0,-3.5,-1.6,-5,-4.4,-5c-3.4,0,-4.8,2.5,-4.9,2.9l-0.1,0c0,0,0.1,-0.3,0.1,-0.5l0,-0.6c0,-1,-0.6,-1.5,-1.7,-1.5l-3.5,0l0,2.4l1.5,0c0.3,0,0.5,0.2,0.5,0.6l0,7.8l-1.9,0Z" class="g5_276" />
<text 
x="307" 
y="787" 
dx="0,0,0,-0.3,0,-0.2,0,0,0,-0.2,0,0,0,0,0,0,0,0,0,-0.2,0,0,0,0,0,0,0,0,0,0,0,0,0,0,0,-0.5,0,0,0,0,-0.2,0,0,0,0,0,0,0,0,0,0,0,0,0,0,0,-0.1,-0.2,0,0,0,0,0" 
class="s8_276"
>Before proceeding to Lesson 19, make sure you can complete the </text>

<text 
x="307" 
y="805" 
dx="0,-0.3,0,0,0,0,0,0,0,0,0,0,0,0,-0.2,0,0,0,0,0,0,0,0,0,0,0,0" 
class="s8_276"
>following tasks in Chinese:</text>

<text 
x="404" 
y="839" 
dx="0" 
class="s9_276"
>±</text>

<text 
x="431" 
y="839" 
dx="0,0,0,0,0,0,-0.2,0,0,0,0,0,0,-0.1,0,0,0,0,0,0,0,0,0,0,0,0,0,0,0,0,-0.2,0,0,0,0,0,0,0,0,0,0,0,0,0,-0.2,0,0" 
class="s10_276"
>Narrate the general timeline of Chinese history</text>

<text 
x="404" 
y="859" 
dx="0" 
class="s9_276"
>±</text>

<text 
x="431" 
y="859" 
dx="0,0,0,0,0,0,0,0,0,0,0,0,0,0,0,0,0,-0.2,0,0,0,0,0,0,0,0,0,0,0,0,0,0,0,0,0,0,0,0,-0.2,0,0,0,0,0,0,0" 
class="s10_276"
>Describe the historical significance of major </text>

<text 
x="431" 
y="878" 
dx="0,0,0,0,0,0,0,0,0,0,0,0,0,0,0,0,0" 
class="s10_276"
>Chinese dynasties</text>

<text 
x="404" 
y="898" 
dx="0" 
class="s9_276"
>±</text>

<text 
x="431" 
y="898" 
dx="0,-1.2,0,0,0,0,0,0,0,0,0,0,0,0,0,0,0,0,0,0,0,0,0,0,0,0,0,0,0,0,0,0,-0.2,0,0,0,0,0,0,0,0,0" 
class="s10_276"
>Talk about important Chinese material and </text>

<text 
x="431" 
y="918" 
dx="0,0,0,0,0,0,0,0,0,0,0,0,0,0,0,0,0,0" 
class="s10_276"
>cultural artifacts</text>

<text 
x="404" 
y="938" 
dx="0" 
class="s9_276"
>±</text>

<text 
x="431" 
y="938" 
dx="0,0,0,0,0,0,0,0,0,0,0,0,0,0,0,0,0,0,0,0,0,0,0,0,0,0,0,-0.2,0,0,-0.4,0,0,0,0,0,0,0,0,0,0" 
class="s10_276"
>Discuss the contributions of key Chinese </text>

<text 
x="431" 
y="958" 
dx="0,0,0,0,-0.2,0,0,0,0,0,0,0,0,0,0,0,-0.2,0" 
class="s10_276"
>historical figures</text>

<path d="M876.9,1141.6l57.3,0l0,-1222.1l-57.3,0l0,1222.1Z" class="g6_276" />
<text 
x="872" 
y="1166" 
dx="0,1.2,1.2,0" 
class="s11_276"
>253 </text>

<text 
transform="matrix(0, 1, -1, 0, 888, 750)"
dx="0,1.2,1.2,1.2,1.2,1.2,1.2,1.2,1.2,1.2" 
class="s12_276"
>Lesson 18 </text>

<text 
transform="matrix(0, 1, -1, 0, 888, 840)"
dx="0,1.2" 
class="s12_276"
>| </text>

<text 
transform="matrix(0, 1, -1, 0, 888, 857)"
dx="0,1.2,1.2,1.2,1.2,1.2,0.7,1.2,1.2,1.2,1.2,1.2,1,1.2,1.2,1.2" 
class="s12_276"
>China's History </text>

<text 
transform="matrix(0, 1, -1, 0, 888, 986)"
dx="0,1.2" 
class="s12_276"
>| </text>

<text 
transform="matrix(0, 1, -1, 0, 888, 1003)"
dx="0,1.2,1.2,1.2,1.2,1.2,1.2,1.2,1.2,1.2,1.2,1.2,1.2,1.2,0" 
class="s12_276"
>Lesson Wrap-Up </text>



<!-- Any embedded fonts defined here -->
<style type="text/css" ><![CDATA[

@font-face {
	font-family: STKaiti-SC-Bold_cdn;
	src: url("fonts/STKaiti-SC-Bold_cdn.woff") format("woff");
}

@font-face {
	font-family: GentiumBasic-Italic_cic;
	src: url("fonts/GentiumBasic-Italic_cic.woff") format("woff");
}

@font-face {
	font-family: LibreFranklin-SemiBold_dbl;
	src: url("fonts/LibreFranklin-SemiBold_dbl.woff") format("woff");
}

@font-face {
	font-family: Wingdings-Regular_clp;
	src: url("fonts/Wingdings-Regular_clp.woff") format("woff");
}

@font-face {
	font-family: STKaiTi-TC-Regular_cev;
	src: url("fonts/STKaiTi-TC-Regular_cev.woff") format("woff");
}

@font-face {
	font-family: LibreFranklin-Medium_d9h;
	src: url("fonts/LibreFranklin-Medium_d9h.woff") format("woff");
}

@font-face {
	font-family: LibreFranklin-Regular_d9v;
	src: url("fonts/LibreFranklin-Regular_d9v.woff") format("woff");
}

@font-face {
	font-family: STKaiTi-TC-Bold_cdt;
	src: url("fonts/STKaiTi-TC-Bold_cdt.woff") format("woff");
}

@font-face {
	font-family: STKaiti-SC-Regular_cf1;
	src: url("fonts/STKaiti-SC-Regular_cf1.woff") format("woff");
}

@font-face {
	font-family: LibreFranklin-SemiBold_dai;
	src: url("fonts/LibreFranklin-SemiBold_dai.woff") format("woff");
}

@font-face {
	font-family: Wingdings2_cft;
	src: url("fonts/Wingdings2_cft.woff") format("woff");
}

]]></style>

</svg>
