<?xml version="1.0" encoding="UTF-8" standalone="no"?>
<!DOCTYPE svg PUBLIC "-//W3C//DTD SVG 1.1//EN"
"http://www.w3.org/Graphics/SVG/1.1/DTD/svg11.dtd">


<!-- Page 391 -->
<svg x="0" y="0" width="921" height="1196" viewBox="0 0 921 1196" version="1.1" xmlns="http://www.w3.org/2000/svg" xmlns:xlink="http://www.w3.org/1999/xlink"
style="display: block;margin-left: auto;margin-right: auto;">
<defs>

<style type="text/css"><![CDATA[

.g1_391{
fill: #DC262E;
stroke: #B2B3B7;
stroke-width: 1.5277778;
stroke-linecap: butt;
stroke-linejoin: miter;
stroke-miterlimit: 4;
}
.g2_391{
fill: #57585A;
stroke: #B2B3B7;
stroke-width: 1.5277778;
stroke-linecap: butt;
stroke-linejoin: miter;
stroke-miterlimit: 4;
}
.g3_391{
fill: #F0F1F2;
}
.g4_391{
fill: none;
stroke: #BDBEC1;
stroke-width: 0.38194445;
stroke-linecap: butt;
stroke-linejoin: miter;
}
.g5_391{
fill: none;
stroke: #DADBDD;
stroke-width: 1.5277778;
stroke-linecap: butt;
stroke-linejoin: miter;
}

.s1_391{
font-size: 13.75px;
font-family: LibreFranklin-Medium_dhv;
fill: #231F20;
}
.s2_391{
font-size: 13.75px;
font-family: LibreFranklin-SemiBold_dig;
fill: #FFFFFF;
}
.s3_391{
font-size: 13.75px;
font-family: LibreFranklin-SemiBold_cg0;
fill: #FFFFFF;
}
.s4_391{
font-size: 14.51px;
font-family: LibreFranklin-SemiBold_di3;
fill: #57585A;
}
.s5_391{
font-size: 13.75px;
font-family: LibreFranklin-Light_dib;
fill: #3F3F40;
}
.s6_391{
font-size: 24.44px;
font-family: STKaiti-SC-Regular_cf1;
fill: #57585A;
}
.s7_391{
font-size: 24.44px;
font-family: STKaiTi-TC-Regular_cev;
fill: #57585A;
}
.s8_391{
font-size: 14.90px;
font-family: GentiumBookBasic-Italic_chu;
fill: #3F3F40;
}
.s9_391{
font-size: 14.51px;
font-family: LibreFranklin-Regular_di7;
fill: #3F3F40;
}
.s10_391{
font-size: 14.51px;
font-family: LibreFranklin-SemiBold_di3;
fill: #77787B;
}

]]></style>

</defs>
<path d="M0,0
L0,1196
L921,1196
L921,0 Z " 
fill="#FFFFFF" stroke="none" />
<path d="M-12.9,1140.6l58,0l0,-1153.5l-58,0l0,1153.5Z" class="g1_391" />
<text 
x="20" 
y="1166" 
dx="0,1.2,1.2,0" 
class="s1_391"
>368 </text>

<text 
transform="matrix(0, -1, 1, 0, 34, 1129)"
dx="0,1.2,1.2,1,1.2,1.2,1.2,1.2,1,1.2,1.2,1.2,1.2,1.2,1.2,1.2,1.2,1.2,1.2,1.2,1.2" 
class="s2_391"
>Integrated Chinese 4 </text>

<text 
transform="matrix(0, -1, 1, 0, 34, 955)"
dx="0,1.2" 
class="s2_391"
>| </text>

<text 
transform="matrix(0, -1, 1, 0, 34, 938)"
dx="0,-0.3,0.9,0.9,1.2,1.2,1.2,1.2" 
class="s2_391"
>Textbook</text>

<text 
transform="matrix(0, -1, 1, 0, 34, 1129)"
dx="0,1.2,1.2,1,1.2,1.2,1.2,1.2,1,1.2,1.2,1.2,1.2,1.2,1.2,1.2,1.2,1.2,1.2,1.2,1.2" 
class="s2_391"
>Integrated Chinese 4 </text>

<text 
transform="matrix(0, -1, 1, 0, 34, 955)"
dx="0,1.2" 
class="s2_391"
>| </text>

<text 
transform="matrix(0, -1, 1, 0, 34, 938)"
dx="0,-0.3,0.9,0.9,1.2,1.2,1.2,1.2" 
class="s2_391"
>Textbook</text>

<text 
transform="matrix(0, -1, 1, 0, 34, 1129)"
dx="0,1.2,1.2,1,1.2,1.2,1.2,1.2,1,1.2,1.2,1.2,1.2,1.2,1.2,1.2,1.2,1.2,1.2,1.2,1.2" 
class="s2_391"
>Integrated Chinese 4 </text>

<text 
transform="matrix(0, -1, 1, 0, 34, 955)"
dx="0,1.2" 
class="s2_391"
>| </text>

<text 
transform="matrix(0, -1, 1, 0, 34, 938)"
dx="0,-0.3,0.9,0.9,1.2,1.2,1.2,1.2" 
class="s2_391"
>Textbook</text>

<path d="M-12.9,1140.6l58,0l0,-1153.5l-58,0l0,1153.5Z" class="g2_391" />
<text 
x="20" 
y="1166" 
dx="0,1.2,1.2,0" 
class="s1_391"
>368 </text>

<text 
transform="matrix(0, -1, 1, 0, 34, 1129)"
dx="0,1.2,1.2,1,1.2,1.2,1.2,1.2,1,1.2,1.2,1.2,1.2,1.2,1.2,1.2,1.2,1.2,1.2,1.2,1.2" 
class="s3_391"
>Integrated Chinese 4 </text>

<text 
transform="matrix(0, -1, 1, 0, 34, 955)"
dx="0,1.2" 
class="s3_391"
>| </text>

<text 
transform="matrix(0, -1, 1, 0, 34, 938)"
dx="0,-0.3,0.9,0.9,1.2,1.2,1.2,1.2" 
class="s3_391"
>Textbook</text>

<text 
transform="matrix(0, -1, 1, 0, 34, 1129)"
dx="0,1.2,1.2,1,1.2,1.2,1.2,1.2,1,1.2,1.2,1.2,1.2,1.2,1.2,1.2,1.2,1.2,1.2,1.2,1.2" 
class="s3_391"
>Integrated Chinese 4 </text>

<text 
transform="matrix(0, -1, 1, 0, 34, 955)"
dx="0,1.2" 
class="s3_391"
>| </text>

<text 
transform="matrix(0, -1, 1, 0, 34, 938)"
dx="0,-0.3,0.9,0.9,1.2,1.2,1.2,1.2" 
class="s3_391"
>Textbook</text>

<text 
transform="matrix(0, -1, 1, 0, 34, 1129)"
dx="0,1.2,1.2,1,1.2,1.2,1.2,1.2,1,1.2,1.2,1.2,1.2,1.2,1.2,1.2,1.2,1.2,1.2,1.2,1.2" 
class="s3_391"
>Integrated Chinese 4 </text>

<text 
transform="matrix(0, -1, 1, 0, 34, 955)"
dx="0,1.2" 
class="s3_391"
>| </text>

<text 
transform="matrix(0, -1, 1, 0, 34, 938)"
dx="0,-0.3,0.9,0.9,1.2,1.2,1.2,1.2" 
class="s3_391"
>Textbook</text>

<path d="M55,146l189.1,0l0,44.3L55,190.3L55,146Zm189.1,0l179.6,0l0,44.3l-179.6,0l0,-44.3Zm179.6,0l177.9,0l0,44.3l-177.9,0l0,-44.3Zm177.9,0l135.2,0l0,44.3l-135.2,0l0,-44.3Zm135.2,0l66.2,0l0,44.3l-66.2,0l0,-44.3Zm66.2,0l63.3,0l0,44.3l-63.3,0L803,146ZM55,234.6l189.1,0l0,44.3L55,278.9l0,-44.3Zm189.1,0l179.6,0l0,44.3l-179.6,0l0,-44.3Zm179.6,0l177.9,0l0,44.3l-177.9,0l0,-44.3Zm177.9,0l135.2,0l0,44.3l-135.2,0l0,-44.3Zm135.2,0l66.2,0l0,44.3l-66.2,0l0,-44.3Zm66.2,0l63.3,0l0,44.3l-63.3,0l0,-44.3ZM55,323.2l189.1,0l0,65.2L55,388.4l0,-65.2Zm189.1,0l179.6,0l0,65.2l-179.6,0l0,-65.2Zm179.6,0l177.9,0l0,65.2l-177.9,0l0,-65.2Zm177.9,0l135.2,0l0,65.2l-135.2,0l0,-65.2Zm135.2,0l66.2,0l0,65.2l-66.2,0l0,-65.2Zm66.2,0l63.3,0l0,65.2l-63.3,0l0,-65.2ZM55,432.7l189.1,0l0,44.3L55,477l0,-44.3Zm189.1,0l179.6,0l0,44.3l-179.6,0l0,-44.3Zm179.6,0l177.9,0l0,44.3l-177.9,0l0,-44.3Zm177.9,0l135.2,0l0,44.3l-135.2,0l0,-44.3Zm135.2,0l66.2,0l0,44.3l-66.2,0l0,-44.3Zm66.2,0l63.3,0l0,44.3L803,477l0,-44.3ZM55,521.3l189.1,0l0,46.2L55,567.5l0,-46.2Zm189.1,0l179.6,0l0,46.2l-179.6,0l0,-46.2Zm179.6,0l177.9,0l0,46.2l-177.9,0l0,-46.2Zm177.9,0l135.2,0l0,46.2l-135.2,0l0,-46.2Zm135.2,0l66.2,0l0,46.2l-66.2,0l0,-46.2Zm66.2,0l63.3,0l0,46.2l-63.3,0l0,-46.2ZM55,611.8l189.1,0l0,44.3L55,656.1l0,-44.3Zm189.1,0l179.6,0l0,44.3l-179.6,0l0,-44.3Zm179.6,0l177.9,0l0,44.3l-177.9,0l0,-44.3Zm177.9,0l135.2,0l0,44.3l-135.2,0l0,-44.3Zm135.2,0l66.2,0l0,44.3l-66.2,0l0,-44.3Zm66.2,0l63.3,0l0,44.3l-63.3,0l0,-44.3ZM55,700.4l189.1,0l0,44.3L55,744.7l0,-44.3Zm189.1,0l179.6,0l0,44.3l-179.6,0l0,-44.3Zm179.6,0l177.9,0l0,44.3l-177.9,0l0,-44.3Zm177.9,0l135.2,0l0,44.3l-135.2,0l0,-44.3Zm135.2,0l66.2,0l0,44.3l-66.2,0l0,-44.3Zm66.2,0l63.3,0l0,44.3l-63.3,0l0,-44.3ZM55,789l189.1,0l0,44.3L55,833.3L55,789Zm189.1,0l179.6,0l0,44.3l-179.6,0l0,-44.3Zm179.6,0l177.9,0l0,44.3l-177.9,0l0,-44.3Zm177.9,0l135.2,0l0,44.3l-135.2,0l0,-44.3Zm135.2,0l66.2,0l0,44.3l-66.2,0l0,-44.3Zm66.2,0l63.3,0l0,44.3l-63.3,0L803,789ZM55,877.6l189.1,0l0,44.3L55,921.9l0,-44.3Zm189.1,0l179.6,0l0,44.3l-179.6,0l0,-44.3Zm179.6,0l177.9,0l0,44.3l-177.9,0l0,-44.3Zm177.9,0l135.2,0l0,44.3l-135.2,0l0,-44.3Zm135.2,0l66.2,0l0,44.3l-66.2,0l0,-44.3Zm66.2,0l63.3,0l0,44.3l-63.3,0l0,-44.3ZM55,967.3l189.1,0l0,44.3l-189.1,0l0,-44.3Zm189.1,0l179.6,0l0,44.3l-179.6,0l0,-44.3Zm179.6,0l177.9,0l0,44.3l-177.9,0l0,-44.3Zm177.9,0l135.2,0l0,44.3l-135.2,0l0,-44.3Zm135.2,0l66.2,0l0,44.3l-66.2,0l0,-44.3Zm66.2,0l63.3,0l0,44.3l-63.3,0l0,-44.3ZM55,1055.9l189.1,0l0,44.3l-189.1,0l0,-44.3Zm189.1,0l179.6,0l0,44.3l-179.6,0l0,-44.3Zm179.6,0l177.9,0l0,44.3l-177.9,0l0,-44.3Zm177.9,0l135.2,0l0,44.3l-135.2,0l0,-44.3Zm135.2,0l66.2,0l0,44.3l-66.2,0l0,-44.3Zm66.2,0l63.3,0l0,44.3l-63.3,0l0,-44.3Z" class="g3_391" />
<path d="M55,146l189.1,0" class="g4_391" />
<path d="M244.1,146l179.6,0" class="g4_391" />
<path d="M423.7,146l177.9,0" class="g4_391" />
<path d="M601.6,146l135.2,0" class="g4_391" />
<path d="M736.8,146l66.2,0" class="g4_391" />
<path d="M803,146l63.3,0" class="g4_391" />
<path d="M55,190.3l189.1,0" class="g4_391" />
<path d="M244.1,190.3l179.6,0" class="g4_391" />
<path d="M423.7,190.3l177.9,0" class="g4_391" />
<path d="M601.6,190.3l135.2,0" class="g4_391" />
<path d="M736.8,190.3l66.2,0" class="g4_391" />
<path d="M803,190.3l63.3,0" class="g4_391" />
<path d="M55,234.6l189.1,0" class="g4_391" />
<path d="M244.1,234.6l179.6,0" class="g4_391" />
<path d="M423.7,234.6l177.9,0" class="g4_391" />
<path d="M601.6,234.6l135.2,0" class="g4_391" />
<path d="M736.8,234.6l66.2,0" class="g4_391" />
<path d="M803,234.6l63.3,0" class="g4_391" />
<path d="M55,278.9l189.1,0" class="g4_391" />
<path d="M244.1,278.9l179.6,0" class="g4_391" />
<path d="M423.7,278.9l177.9,0" class="g4_391" />
<path d="M601.6,278.9l135.2,0" class="g4_391" />
<path d="M736.8,278.9l66.2,0" class="g4_391" />
<path d="M803,278.9l63.3,0" class="g4_391" />
<path d="M55,323.2l189.1,0" class="g4_391" />
<path d="M244.1,323.2l179.6,0" class="g4_391" />
<path d="M423.7,323.2l177.9,0" class="g4_391" />
<path d="M601.6,323.2l135.2,0" class="g4_391" />
<path d="M736.8,323.2l66.2,0" class="g4_391" />
<path d="M803,323.2l63.3,0" class="g4_391" />
<path d="M55,388.4l189.1,0" class="g4_391" />
<path d="M244.1,388.4l179.6,0" class="g4_391" />
<path d="M423.7,388.4l177.9,0" class="g4_391" />
<path d="M601.6,388.4l135.2,0" class="g4_391" />
<path d="M736.8,388.4l66.2,0" class="g4_391" />
<path d="M803,388.4l63.3,0" class="g4_391" />
<path d="M55,432.7l189.1,0" class="g4_391" />
<path d="M244.1,432.7l179.6,0" class="g4_391" />
<path d="M423.7,432.7l177.9,0" class="g4_391" />
<path d="M601.6,432.7l135.2,0" class="g4_391" />
<path d="M736.8,432.7l66.2,0" class="g4_391" />
<path d="M803,432.7l63.3,0" class="g4_391" />
<path d="M55,477l189.1,0" class="g4_391" />
<path d="M244.1,477l179.6,0" class="g4_391" />
<path d="M423.7,477l177.9,0" class="g4_391" />
<path d="M601.6,477l135.2,0" class="g4_391" />
<path d="M736.8,477l66.2,0" class="g4_391" />
<path d="M803,477l63.3,0" class="g4_391" />
<path d="M55,521.3l189.1,0" class="g4_391" />
<path d="M244.1,521.3l179.6,0" class="g4_391" />
<path d="M423.7,521.3l177.9,0" class="g4_391" />
<path d="M601.6,521.3l135.2,0" class="g4_391" />
<path d="M736.8,521.3l66.2,0" class="g4_391" />
<path d="M803,521.3l63.3,0" class="g4_391" />
<path d="M55,567.5l189.1,0" class="g4_391" />
<path d="M244.1,567.5l179.6,0" class="g4_391" />
<path d="M423.7,567.5l177.9,0" class="g4_391" />
<path d="M601.6,567.5l135.2,0" class="g4_391" />
<path d="M736.8,567.5l66.2,0" class="g4_391" />
<path d="M803,567.5l63.3,0" class="g4_391" />
<path d="M55,611.8l189.1,0" class="g4_391" />
<path d="M244.1,611.8l179.6,0" class="g4_391" />
<path d="M423.7,611.8l177.9,0" class="g4_391" />
<path d="M601.6,611.8l135.2,0" class="g4_391" />
<path d="M736.8,611.8l66.2,0" class="g4_391" />
<path d="M803,611.8l63.3,0" class="g4_391" />
<path d="M55,656.1l189.1,0" class="g4_391" />
<path d="M244.1,656.1l179.6,0" class="g4_391" />
<path d="M423.7,656.1l177.9,0" class="g4_391" />
<path d="M601.6,656.1l135.2,0" class="g4_391" />
<path d="M736.8,656.1l66.2,0" class="g4_391" />
<path d="M803,656.1l63.3,0" class="g4_391" />
<path d="M55,700.4l189.1,0" class="g4_391" />
<path d="M244.1,700.4l179.6,0" class="g4_391" />
<path d="M423.7,700.4l177.9,0" class="g4_391" />
<path d="M601.6,700.4l135.2,0" class="g4_391" />
<path d="M736.8,700.4l66.2,0" class="g4_391" />
<path d="M803,700.4l63.3,0" class="g4_391" />
<path d="M55,744.7l189.1,0" class="g4_391" />
<path d="M244.1,744.7l179.6,0" class="g4_391" />
<path d="M423.7,744.7l177.9,0" class="g4_391" />
<path d="M601.6,744.7l135.2,0" class="g4_391" />
<path d="M736.8,744.7l66.2,0" class="g4_391" />
<path d="M803,744.7l63.3,0" class="g4_391" />
<path d="M55,789l189.1,0" class="g4_391" />
<path d="M244.1,789l179.6,0" class="g4_391" />
<path d="M423.7,789l177.9,0" class="g4_391" />
<path d="M601.6,789l135.2,0" class="g4_391" />
<path d="M736.8,789l66.2,0" class="g4_391" />
<path d="M803,789l63.3,0" class="g4_391" />
<path d="M55,833.3l189.1,0" class="g4_391" />
<path d="M244.1,833.3l179.6,0" class="g4_391" />
<path d="M423.7,833.3l177.9,0" class="g4_391" />
<path d="M601.6,833.3l135.2,0" class="g4_391" />
<path d="M736.8,833.3l66.2,0" class="g4_391" />
<path d="M803,833.3l63.3,0" class="g4_391" />
<path d="M55,877.6l189.1,0" class="g4_391" />
<path d="M244.1,877.6l179.6,0" class="g4_391" />
<path d="M423.7,877.6l177.9,0" class="g4_391" />
<path d="M601.6,877.6l135.2,0" class="g4_391" />
<path d="M736.8,877.6l66.2,0" class="g4_391" />
<path d="M803,877.6l63.3,0" class="g4_391" />
<path d="M55,921.9l189.1,0" class="g4_391" />
<path d="M244.1,921.9l179.6,0" class="g4_391" />
<path d="M423.7,921.9l177.9,0" class="g4_391" />
<path d="M601.6,921.9l135.2,0" class="g4_391" />
<path d="M736.8,921.9l66.2,0" class="g4_391" />
<path d="M803,921.9l63.3,0" class="g4_391" />
<path d="M55,967.3l189.1,0" class="g4_391" />
<path d="M244.1,967.3l179.6,0" class="g4_391" />
<path d="M423.7,967.3l177.9,0" class="g4_391" />
<path d="M601.6,967.3l135.2,0" class="g4_391" />
<path d="M736.8,967.3l66.2,0" class="g4_391" />
<path d="M803,967.3l63.3,0" class="g4_391" />
<path d="M55,1011.6l189.1,0" class="g4_391" />
<path d="M244.1,1011.6l179.6,0" class="g4_391" />
<path d="M423.7,1011.6l177.9,0" class="g4_391" />
<path d="M601.6,1011.6l135.2,0" class="g4_391" />
<path d="M736.8,1011.6l66.2,0" class="g4_391" />
<path d="M803,1011.6l63.3,0" class="g4_391" />
<path d="M55,1055.9l189.1,0" class="g4_391" />
<path d="M244.1,1055.9l179.6,0" class="g4_391" />
<path d="M423.7,1055.9l177.9,0" class="g4_391" />
<path d="M601.6,1055.9l135.2,0" class="g4_391" />
<path d="M736.8,1055.9l66.2,0" class="g4_391" />
<path d="M803,1055.9l63.3,0" class="g4_391" />
<path d="M55,1100.2l189.1,0" class="g4_391" />
<path d="M244.1,1100.2l179.6,0" class="g4_391" />
<path d="M423.7,1100.2l177.9,0" class="g4_391" />
<path d="M601.6,1100.2l135.2,0" class="g4_391" />
<path d="M736.8,1100.2l66.2,0" class="g4_391" />
<path d="M803,1100.2l63.3,0" class="g4_391" />
<path d="M55,1144.5l189.1,0" class="g4_391" />
<path d="M244.1,1144.5l179.6,0" class="g4_391" />
<path d="M423.7,1144.5l177.9,0" class="g4_391" />
<path d="M601.6,1144.5l135.2,0" class="g4_391" />
<path d="M736.8,1144.5l66.2,0" class="g4_391" />
<path d="M803,1144.5l63.3,0" class="g4_391" />
<path d="M55,101.1l189.1,0" class="g5_391" />
<path d="M244.1,101.1l179.6,0" class="g5_391" />
<path d="M423.7,101.1l177.9,0" class="g5_391" />
<path d="M601.6,101.1l135.2,0" class="g5_391" />
<path d="M736.8,101.1l66.2,0" class="g5_391" />
<path d="M803,101.1l63.3,0" class="g5_391" />
<text 
x="61" 
y="85" 
dx="0,0,0,0,0,0,0" 
class="s4_391"
>English</text>

<text 
x="250" 
y="85" 
dx="0,0,0,0,0,0,0,0,0,0" 
class="s4_391"
>Simplified</text>

<text 
x="429" 
y="85" 
dx="0,-1.2,-0.1,0,0,0,0,0,0,0,0" 
class="s4_391"
>Traditional</text>

<text 
x="607" 
y="85" 
dx="0,0,0,0,0,0" 
class="s4_391"
>Pinyin</text>

<text 
x="742" 
y="75" 
dx="0,0,0,0,0,0,-0.2,0" 
class="s4_391"
>Part of </text>

<text 
x="742" 
y="94" 
dx="0,0,0,0,0,0" 
class="s4_391"
>Speech</text>

<text 
x="809" 
y="85" 
dx="0,0,0,0,0,0" 
class="s4_391"
>Lesson</text>

<text 
x="61" 
y="130" 
dx="0,0,0,0,0,0,-0.2,0,0,0,0,0,0,0,0,0,0,-0.3,-0.4,0" 
class="s5_391"
>all around, all over</text>

<text 
x="250" 
y="132" 
dx="0,0" 
class="s6_391"
>到处</text>

<text 
x="429" 
y="132" 
dx="0,0" 
class="s7_391"
>到處</text>

<text 
x="607" 
y="130" 
dx="0,0.2,0.2,0.2,0.2,0.2" 
class="s8_391"
>dàochù</text>

<text 
x="742" 
y="130" 
dx="0,0,0" 
class="s9_391"
>adv</text>

<text 
x="809" 
y="130" 
dx="0,0" 
class="s10_391"
>10</text>

<text 
x="61" 
y="174" 
dx="0,0,0,0,0,0,0,0,0,0,0,0" 
class="s5_391"
>all day long</text>

<text 
x="250" 
y="176" 
dx="0,0" 
class="s6_391"
>整天</text>

<text 
x="429" 
y="176" 
dx="0,0" 
class="s7_391"
>整天</text>

<text 
x="607" 
y="174" 
dx="0,0.2,0.2,0.2,0.2,0.2,0.2,0.2,0.2,0.2" 
class="s8_391"
>zhěng tiān</text>

<text 
x="809" 
y="175" 
dx="0" 
class="s10_391"
>5</text>

<text 
x="61" 
y="219" 
dx="0,0,0,0,0,0,0,0,0,0,0,0,0,0,0,0,0,0,0,0,0,0,0,0,0" 
class="s5_391"
>allowance, spending money</text>

<text 
x="250" 
y="221" 
dx="0,0,0" 
class="s6_391"
>零用钱</text>

<text 
x="429" 
y="221" 
dx="0,0,0" 
class="s7_391"
>零用錢</text>

<text 
x="607" 
y="218" 
dx="0,0.2,0.2,0.2,0.2,0.2,0.2,0.2,0.2,0.2,0.2,0.2" 
class="s8_391"
>língyòngqián</text>

<text 
x="742" 
y="219" 
dx="0" 
class="s9_391"
>n</text>

<text 
x="809" 
y="219" 
dx="0" 
class="s10_391"
>8</text>

<text 
x="61" 
y="263" 
dx="0,0,0,0,0,0" 
class="s5_391"
>always</text>

<text 
x="250" 
y="265" 
dx="0,0" 
class="s6_391"
>老是</text>

<text 
x="429" 
y="265" 
dx="0,0" 
class="s7_391"
>老是</text>

<text 
x="607" 
y="263" 
dx="0,0.2,0.2,0.2,0.2,0.2" 
class="s8_391"
>lǎoshì</text>

<text 
x="742" 
y="263" 
dx="0,0,0" 
class="s9_391"
>adv</text>

<text 
x="809" 
y="263" 
dx="0" 
class="s10_391"
>7</text>

<text 
x="61" 
y="307" 
dx="0,0,0,0,0,0,0,0,0,-0.3,0,-0.2,0,-0.4,0" 
class="s5_391"
>always, forever</text>

<text 
x="250" 
y="309" 
dx="0,0" 
class="s6_391"
>永远</text>

<text 
x="429" 
y="309" 
dx="0,0" 
class="s7_391"
>永遠</text>

<text 
x="607" 
y="307" 
dx="0,0.2,0.2,0.2,0.2,0.2,0.2,0.2" 
class="s8_391"
>yǒngyuǎn</text>

<text 
x="742" 
y="308" 
dx="0,0,0" 
class="s9_391"
>adv</text>

<text 
x="809" 
y="308" 
dx="0,0" 
class="s10_391"
>20</text>

<text 
x="61" 
y="342" 
dx="0,0,0,0,0,0,0,0,0,0,0,0,0,0,0,0,0,0" 
class="s5_391"
>among which/whom, </text>

<text 
x="61" 
y="362" 
dx="0,0,0,0,0,0,0,0,0,0,0,0,0,0,0" 
class="s5_391"
>in which/whom, </text>

<text 
x="61" 
y="382" 
dx="0,-0.2,0,0,0,0,0,0,0,0,0,0,0" 
class="s5_391"
>of which/whom</text>

<text 
x="250" 
y="364" 
dx="0,0" 
class="s6_391"
>其中</text>

<text 
x="429" 
y="364" 
dx="0,0" 
class="s7_391"
>其中</text>

<text 
x="607" 
y="362" 
dx="0,0.2,0.2,0.2,0.2,0.2,0.2" 
class="s8_391"
>qízhōng</text>

<text 
x="809" 
y="362" 
dx="0,0" 
class="s10_391"
>18</text>

<text 
x="61" 
y="417" 
dx="0,0,0,0,0,0,0,0,0,0,0,0" 
class="s5_391"
>ancient, old</text>

<text 
x="250" 
y="419" 
dx="0,0" 
class="s6_391"
>古老</text>

<text 
x="429" 
y="419" 
dx="0,0" 
class="s7_391"
>古老</text>

<text 
x="607" 
y="417" 
dx="0,0.2,0.2,0.2,0.2" 
class="s8_391"
>gǔlǎo</text>

<text 
x="742" 
y="417" 
dx="0,0,0" 
class="s9_391"
>adj</text>

<text 
x="809" 
y="417" 
dx="0,0" 
class="s10_391"
>13</text>

<text 
x="61" 
y="461" 
dx="0,0,0,0,0,0,0,0,0,0,-0.2" 
class="s5_391"
>and no more</text>

<text 
x="250" 
y="463" 
dx="0,0" 
class="s6_391"
>而已</text>

<text 
x="429" 
y="463" 
dx="0,0" 
class="s7_391"
>而已</text>

<text 
x="607" 
y="461" 
dx="0,0.2,0.2,0.2" 
class="s8_391"
>éryǐ</text>

<text 
x="742" 
y="461" 
dx="0" 
class="s9_391"
>p</text>

<text 
x="809" 
y="461" 
dx="0,0" 
class="s10_391"
>20</text>

<text 
x="61" 
y="505" 
dx="0,0,0,0,0,0,0,0,-0.3,0,0,0,0,0,0,0,-0.2,0" 
class="s5_391"
>and so forth, etc.</text>

<text 
x="250" 
y="507" 
dx="0" 
class="s6_391"
>等</text>

<text 
x="429" 
y="507" 
dx="0" 
class="s7_391"
>等</text>

<text 
x="607" 
y="505" 
dx="0,0.2,0.2,0.2" 
class="s8_391"
>děng</text>

<text 
x="742" 
y="506" 
dx="0" 
class="s9_391"
>p</text>

<text 
x="809" 
y="506" 
dx="0,0" 
class="s10_391"
>14</text>

<text 
x="61" 
y="551" 
dx="0,0,0,0,0,0,0,0,0" 
class="s5_391"
>and; with</text>

<text 
x="250" 
y="553" 
dx="0" 
class="s6_391"
>与</text>

<text 
x="429" 
y="553" 
dx="0" 
class="s7_391"
>與</text>

<text 
x="607" 
y="550" 
dx="0,0.2" 
class="s8_391"
>yǔ</text>

<text 
x="742" 
y="541" 
dx="0,0,0,0,0" 
class="s9_391"
>conj/</text>

<text 
x="742" 
y="561" 
dx="0,0,-0.2,0" 
class="s9_391"
>prep</text>

<text 
x="809" 
y="551" 
dx="0,0" 
class="s10_391"
>14</text>

<text 
x="61" 
y="596" 
dx="0,0,0,0,0,0,0,0,0" 
class="s5_391"
>apologize</text>

<text 
x="250" 
y="598" 
dx="0,0" 
class="s6_391"
>道歉</text>

<text 
x="429" 
y="598" 
dx="0,0" 
class="s7_391"
>道歉</text>

<text 
x="607" 
y="596" 
dx="0,0.2,0.2,0.2,0.2,0.2,0.2,0.2" 
class="s8_391"
>dào qiàn</text>

<text 
x="742" 
y="596" 
dx="0,-0.4" 
class="s9_391"
>vo</text>

<text 
x="809" 
y="596" 
dx="0" 
class="s10_391"
>6</text>

<text 
x="61" 
y="640" 
dx="0,0,0,0,0,0,-1.1,0,0,0,0,0,0,0,0,0,0,0,0,0,-0.1" 
class="s5_391"
>appear, arise, emerge</text>

<text 
x="250" 
y="642" 
dx="0,0" 
class="s6_391"
>出现</text>

<text 
x="429" 
y="642" 
dx="0,0" 
class="s7_391"
>出現</text>

<text 
x="607" 
y="640" 
dx="0,0.2,0.2,0.2,0.2,0.2,0.2" 
class="s8_391"
>chūxiàn</text>

<text 
x="742" 
y="640" 
dx="0" 
class="s9_391"
>v</text>

<text 
x="809" 
y="640" 
dx="0,0" 
class="s10_391"
>15</text>

<text 
x="61" 
y="684" 
dx="0,0,0,0,0,0,0,0,-0.2,0,0,0,0,0,0,0,0,0,0,0,0,0,0,0,0,0" 
class="s5_391"
>apply (to a school or job)</text>

<text 
x="250" 
y="687" 
dx="0,0" 
class="s6_391"
>申请</text>

<text 
x="429" 
y="687" 
dx="0,0" 
class="s7_391"
>申請</text>

<text 
x="607" 
y="684" 
dx="0,0.2,0.2,0.2,0.2,0.2,0.2,0.2" 
class="s8_391"
>shēnqǐng</text>

<text 
x="742" 
y="685" 
dx="0" 
class="s9_391"
>v</text>

<text 
x="809" 
y="685" 
dx="0" 
class="s10_391"
>5</text>

<text 
x="61" 
y="729" 
dx="0,0,0,0,-0.2,-0.3,-0.4,0,0,0,0,0,0,0,0,0" 
class="s5_391"
>approve, support</text>

<text 
x="250" 
y="731" 
dx="0,0" 
class="s6_391"
>赞成</text>

<text 
x="429" 
y="731" 
dx="0,0" 
class="s7_391"
>贊成</text>

<text 
x="607" 
y="729" 
dx="0,0.2,0.2,0.2,0.2,0.2,0.2,0.2" 
class="s8_391"
>zànchéng</text>

<text 
x="742" 
y="729" 
dx="0" 
class="s9_391"
>v</text>

<text 
x="809" 
y="729" 
dx="0,0" 
class="s10_391"
>16</text>

<text 
x="61" 
y="773" 
dx="0,0,-0.2,0,0,0,-0.2,0,0,0,0,-0.2,0,0,0,0,0,0,0" 
class="s5_391"
>architecture; build</text>

<text 
x="250" 
y="775" 
dx="0,0" 
class="s6_391"
>建筑</text>

<text 
x="429" 
y="775" 
dx="0,0" 
class="s7_391"
>建築</text>

<text 
x="607" 
y="773" 
dx="0,0.2,0.2,0.2,0.2,0.2,0.2" 
class="s8_391"
>jiànzhù</text>

<text 
x="742" 
y="773" 
dx="0,0,0" 
class="s9_391"
>n/v</text>

<text 
x="809" 
y="773" 
dx="0,0" 
class="s10_391"
>12</text>

<text 
x="61" 
y="817" 
dx="0,0,-0.2,0,0,0,0,-0.2,0,0,0,0,0,0" 
class="s5_391"
>area (of land)</text>

<text 
x="250" 
y="819" 
dx="0,0" 
class="s6_391"
>面积</text>

<text 
x="429" 
y="819" 
dx="0,0" 
class="s7_391"
>面積</text>

<text 
x="607" 
y="817" 
dx="0,0.2,0.2,0.2,0.2,0.2" 
class="s8_391"
>miànjī</text>

<text 
x="742" 
y="818" 
dx="0" 
class="s9_391"
>n</text>

<text 
x="809" 
y="818" 
dx="0,0" 
class="s10_391"
>10</text>

<text 
x="61" 
y="862" 
dx="0,0,0,0,0,0,-0.1" 
class="s5_391"
>arrange</text>

<text 
x="250" 
y="864" 
dx="0,0" 
class="s6_391"
>安排</text>

<text 
x="429" 
y="864" 
dx="0,0" 
class="s7_391"
>安排</text>

<text 
x="607" 
y="861" 
dx="0,0.2,0.2,0.2,0.2" 
class="s8_391"
>ānpái</text>

<text 
x="742" 
y="862" 
dx="0" 
class="s9_391"
>v</text>

<text 
x="809" 
y="862" 
dx="0" 
class="s10_391"
>9</text>

<text 
x="61" 
y="906" 
dx="0,0,0,0,0,-0.4,0,0,0,0,-0.2" 
class="s5_391"
>arrive late</text>

<text 
x="250" 
y="908" 
dx="0,0" 
class="s6_391"
>迟到</text>

<text 
x="429" 
y="908" 
dx="0,0" 
class="s7_391"
>遲到</text>

<text 
x="607" 
y="906" 
dx="0,0.2,0.2,0.2,0.2,0.2" 
class="s8_391"
>chídào</text>

<text 
x="742" 
y="906" 
dx="0" 
class="s9_391"
>v</text>

<text 
x="809" 
y="906" 
dx="0" 
class="s10_391"
>7</text>

<text 
x="61" 
y="941" 
dx="0,0,0,0,0,0,0,0,0,-0.2,0,0,0,-0.2,0,0,0,0,0,0,0" 
class="s5_391"
>as a matter of fact; </text>

<text 
x="61" 
y="961" 
dx="0,0,0,0,0,0,0,0,0,0,0,-0.3,0,0,0,0" 
class="s5_391"
>original, former</text>

<text 
x="250" 
y="953" 
dx="0,0" 
class="s6_391"
>原来</text>

<text 
x="429" 
y="953" 
dx="0,0" 
class="s7_391"
>原來</text>

<text 
x="607" 
y="951" 
dx="0,0.2,0.2,0.2,0.2,0.2,0.2" 
class="s8_391"
>yuánlái</text>

<text 
x="742" 
y="951" 
dx="0,0,0,0,0,0,0" 
class="s9_391"
>adv/adj</text>

<text 
x="809" 
y="951" 
dx="0" 
class="s10_391"
>6</text>

<text 
x="61" 
y="996" 
dx="0,0,0,0,0,0,-0.2,0,0,0,0,0,0,0,-0.2,0,0,0,0" 
class="s5_391"
>as a result; result</text>

<text 
x="250" 
y="998" 
dx="0,0" 
class="s6_391"
>结果</text>

<text 
x="429" 
y="998" 
dx="0,0" 
class="s7_391"
>結果</text>

<text 
x="607" 
y="995" 
dx="0,0.2,0.2,0.2,0.2,0.2" 
class="s8_391"
>jiéguǒ</text>

<text 
x="742" 
y="996" 
dx="0,0,0,0,0,0" 
class="s9_391"
>conj/n</text>

<text 
x="809" 
y="996" 
dx="0" 
class="s10_391"
>7</text>

<text 
x="61" 
y="1040" 
dx="0,0,0,0,0,0,0,0,0,0,0,0,0,0,-0.2,-0.3,0,0,0,0" 
class="s5_391"
>as long as, provided</text>

<text 
x="250" 
y="1042" 
dx="0,0" 
class="s6_391"
>只要</text>

<text 
x="429" 
y="1042" 
dx="0,0" 
class="s7_391"
>只要</text>

<text 
x="607" 
y="1040" 
dx="0,0.2,0.2,0.2,0.2,0.2" 
class="s8_391"
>zhǐyào</text>

<text 
x="742" 
y="1040" 
dx="0,0,0,0" 
class="s9_391"
>conj</text>

<text 
x="809" 
y="1040" 
dx="0,0" 
class="s10_391"
>14</text>

<text 
x="61" 
y="1084" 
dx="0,0,0,0,0,0,0,0,0,0,0,0,0,0,0,0,0,0,0" 
class="s5_391"
>as much as possible</text>

<text 
x="250" 
y="1086" 
dx="0,0,0" 
class="s6_391"
>尽可能</text>

<text 
x="429" 
y="1086" 
dx="0,0,0" 
class="s7_391"
>儘可能</text>

<text 
x="607" 
y="1084" 
dx="0,0.2,0.2,0.2,0.2,0.2,0.2,0.2,0.2,0.2" 
class="s8_391"
>jǐn kěnéng</text>

<text 
x="809" 
y="1085" 
dx="0,0" 
class="s10_391"
>12</text>

<text 
x="61" 
y="1128" 
dx="0,0,0,0,0,0,0,0,0,-0.2,0,0,0,0,0" 
class="s5_391"
>aspect, respect</text>

<text 
x="250" 
y="1131" 
dx="0,0" 
class="s6_391"
>方面</text>

<text 
x="429" 
y="1131" 
dx="0,0" 
class="s7_391"
>方面</text>

<text 
x="607" 
y="1128" 
dx="0,0.2,0.2,0.2,0.2,0.2,0.2,0.2" 
class="s8_391"
>fāngmiàn</text>

<text 
x="742" 
y="1129" 
dx="0" 
class="s9_391"
>n</text>

<text 
x="809" 
y="1129" 
dx="0,0" 
class="s10_391"
>14</text>



<!-- Any embedded fonts defined here -->
<style type="text/css" ><![CDATA[

@font-face {
	font-family: LibreFranklin-SemiBold_di3;
	src: url("fonts/LibreFranklin-SemiBold_di3.woff") format("woff");
}

@font-face {
	font-family: GentiumBookBasic-Italic_chu;
	src: url("fonts/GentiumBookBasic-Italic_chu.woff") format("woff");
}

@font-face {
	font-family: LibreFranklin-Light_dib;
	src: url("fonts/LibreFranklin-Light_dib.woff") format("woff");
}

@font-face {
	font-family: LibreFranklin-SemiBold_dig;
	src: url("fonts/LibreFranklin-SemiBold_dig.woff") format("woff");
}

@font-face {
	font-family: STKaiTi-TC-Regular_cev;
	src: url("fonts/STKaiTi-TC-Regular_cev.woff") format("woff");
}

@font-face {
	font-family: LibreFranklin-Regular_di7;
	src: url("fonts/LibreFranklin-Regular_di7.woff") format("woff");
}

@font-face {
	font-family: LibreFranklin-Medium_dhv;
	src: url("fonts/LibreFranklin-Medium_dhv.woff") format("woff");
}

@font-face {
	font-family: STKaiti-SC-Regular_cf1;
	src: url("fonts/STKaiti-SC-Regular_cf1.woff") format("woff");
}

@font-face {
	font-family: LibreFranklin-SemiBold_cg0;
	src: url("fonts/LibreFranklin-SemiBold_cg0.woff") format("woff");
}

]]></style>

</svg>
