<?xml version="1.0" encoding="UTF-8" standalone="no"?>
<!DOCTYPE svg PUBLIC "-//W3C//DTD SVG 1.1//EN"
"http://www.w3.org/Graphics/SVG/1.1/DTD/svg11.dtd">


<!-- Page 352 -->
<svg x="0" y="0" width="921" height="1196" viewBox="0 0 921 1196" version="1.1" xmlns="http://www.w3.org/2000/svg" xmlns:xlink="http://www.w3.org/1999/xlink"
style="display: block;margin-left: auto;margin-right: auto;">
<defs>

<style type="text/css"><![CDATA[

.g1_352{
fill: #D4EFFB;
}
.g2_352{
fill: #00AEEF;
stroke: #B2B3B7;
stroke-width: 1.5277778;
stroke-linecap: butt;
stroke-linejoin: miter;
stroke-miterlimit: 4;
}
.g3_352{
fill: none;
stroke: #3F3F40;
stroke-width: 0.7638889;
stroke-linecap: butt;
stroke-linejoin: miter;
}
.g4_352{
fill: none;
stroke: #231F20;
stroke-width: 0.7638889;
stroke-linecap: butt;
stroke-linejoin: miter;
}

.s1_352{
font-size: 13.75px;
font-family: LibreFranklin-Medium_dh3;
fill: #231F20;
}
.s2_352{
font-size: 13.75px;
font-family: LibreFranklin-SemiBold_dgv;
fill: #FFFFFF;
}
.s3_352{
font-size: 14.51px;
font-family: LibreFranklin-Regular_dh2;
fill: #3F3F40;
}
.s4_352{
font-size: 25.97px;
font-family: STKaiti-SC-Bold_cdn;
fill: #3F3F40;
}
.s5_352{
font-size: 25.97px;
font-family: STKaiTi-TC-Bold_cdt;
fill: #3F3F40;
}

]]></style>

</defs>
<path d="M0,0
L0,1196
L921,1196
L921,0 Z " 
fill="#FFFFFF" stroke="none" />
<path d="M0,1209.2l935,0L935,-12.9l-935,0L0,1209.2Z" class="g1_352" />
<path d="M876.9,1141.6l57.3,0l0,-1222.1l-57.3,0l0,1222.1Z" class="g2_352" />
<text 
x="872" 
y="1166" 
dx="0,1.2,1.2,0" 
class="s1_352"
>329 </text>

<text 
transform="matrix(0, 1, -1, 0, 888, 844)"
dx="0,1.2,1.2,1.2,1.2,1.2,1.2,1.2,1.2,1.2,1.2,1.2,1.2,-0.3,1.2,1,1.1,1.2,1.2,1.2,1.2,1.2,1.2,1.2,1.2,1.2,1.2,1.2,1.2,1.2,1.2,1.2,1.2,1.2,1.2,1.2" 
class="s2_352"
>Bringing It Together (Lessons 16–20)</text>

<path d="M198.6,407.8l615,0" class="g3_352" />
<path d="M198.6,448.9l615,0" class="g3_352" />
<path d="M198.6,490l615,0" class="g3_352" />
<path d="M198.6,531.1l615,0" class="g3_352" />
<path d="M198.6,568.5l615,0" class="g3_352" />
<path d="M198.6,605.9l615,0" class="g3_352" />
<path d="M198.6,711.2l615,0" class="g3_352" />
<path d="M198.6,752.3l615,0" class="g3_352" />
<path d="M198.6,793.4l615,0" class="g3_352" />
<path d="M198.6,834.5l615,0" class="g3_352" />
<path d="M198.6,871.9l615,0" class="g3_352" />
<path d="M198.6,909.3l615,0" class="g3_352" />
<text 
x="197" 
y="69" 
dx="0,0" 
class="s3_352"
>• </text>

<text 
x="215" 
y="69" 
dx="0,0,0,0,0,0,0,0,0,0,0,0,0,0,0,0,0,0,0,0,0,0,0,0,0,0,0,0,0,0,0,0,0,0,0,-0.2,0,0,0,0,0,0,0,0,0,0,0,-0.2,0,0,0,0,0,0,0,0,0,0,0,0,0,0,0,0,0,0,0,0,0,0,0,0" 
class="s3_352"
>briefly talk about one Chinese historical figure and one Chinese dynasty</text>

<path d="M198.6,162.8l275,0" class="g4_352" />
<path d="M540.1,162.8l275,0" class="g4_352" />
<path d="M198.6,208.3l275,0" class="g4_352" />
<path d="M540.1,208.3l275,0" class="g4_352" />
<path d="M198.6,253.9l275,0" class="g4_352" />
<path d="M540.1,253.9l275,0" class="g4_352" />
<path d="M198.6,299.4l275,0" class="g4_352" />
<path d="M540.1,299.4l275,0" class="g4_352" />
<text 
x="225" 
y="113" 
dx="0,0,0,0,0" 
class="s4_352"
>历史人物/</text>

<text 
x="342" 
y="113" 
dx="0,0,0,0" 
class="s5_352"
>歷史人物</text>

<text 
x="651" 
y="113" 
dx="0,0" 
class="s4_352"
>朝代</text>

<text 
x="197" 
y="362" 
dx="0,0" 
class="s3_352"
>• </text>

<text 
x="215" 
y="362" 
dx="0,-0.3,0,0,0,0,0,0,0,0,0,0,0,0,0,0,0,0,0,0,0,0,0,0,0,0,0,0,0,0,0,0,0,0,0,0,-0.2,0,0,0,-0.1,0,0,0,0,0,0,0,0,0,0,0,0,0" 
class="s3_352"
>explain why China attracts people from other countries</text>

<text 
x="197" 
y="665" 
dx="0,0" 
class="s3_352"
>• </text>

<text 
x="215" 
y="665" 
dx="0,0,0,0,0,0,0,0,0,0,0,0,0,0,0,0,0,0,0,0,0,-0.2,0,0,0,-0.1,0,0,0,0,0,0,0,0,0,0,0,0,0,0,0,0,0,0,0,0,0,-0.2,0,0,0,0,-0.3,0,0,0,0,0,0,0,0,0" 
class="s3_352"
>discuss how people from other countries adapt to life in China</text>



<!-- Any embedded fonts defined here -->
<style type="text/css" ><![CDATA[

@font-face {
	font-family: STKaiti-SC-Bold_cdn;
	src: url("fonts/STKaiti-SC-Bold_cdn.woff") format("woff");
}

@font-face {
	font-family: LibreFranklin-Medium_dh3;
	src: url("fonts/LibreFranklin-Medium_dh3.woff") format("woff");
}

@font-face {
	font-family: LibreFranklin-SemiBold_dgv;
	src: url("fonts/LibreFranklin-SemiBold_dgv.woff") format("woff");
}

@font-face {
	font-family: STKaiTi-TC-Bold_cdt;
	src: url("fonts/STKaiTi-TC-Bold_cdt.woff") format("woff");
}

@font-face {
	font-family: LibreFranklin-Regular_dh2;
	src: url("fonts/LibreFranklin-Regular_dh2.woff") format("woff");
}

]]></style>

</svg>
