<?xml version="1.0" encoding="UTF-8" standalone="no"?>
<!DOCTYPE svg PUBLIC "-//W3C//DTD SVG 1.1//EN"
"http://www.w3.org/Graphics/SVG/1.1/DTD/svg11.dtd">


<!-- Page 305 -->
<svg x="0" y="0" width="921" height="1196" viewBox="0 0 921 1196" version="1.1" xmlns="http://www.w3.org/2000/svg" xmlns:xlink="http://www.w3.org/1999/xlink"
style="display: block;margin-left: auto;margin-right: auto;">
<defs>
<clipPath id="c0_305"><path d="M0,1196.3L0,0L921.3,0l0,1196.3Z" /></clipPath>

<style type="text/css"><![CDATA[

.g1_305{
fill: #EAEBEC;
}
.g2_305{
fill: none;
stroke: #231F20;
stroke-width: 0.5301389;
stroke-linecap: butt;
stroke-linejoin: miter;
}
.g3_305{
fill: none;
stroke: #231F20;
stroke-width: 0.5301389;
stroke-linecap: butt;
stroke-linejoin: miter;
stroke-dasharray: 4,3;
}
.g4_305{
fill: #D8DEF0;
}
.g5_305{
fill: none;
stroke: #6D6E71;
stroke-width: 0.7990278;
stroke-linecap: butt;
stroke-linejoin: miter;
}
.g6_305{
fill: none;
stroke: #6D6E71;
stroke-width: 0.7776389;
stroke-linecap: butt;
stroke-linejoin: miter;
}
.g7_305{
fill: none;
stroke: #6D6E71;
stroke-width: 0.8525;
stroke-linecap: butt;
stroke-linejoin: miter;
}
.g8_305{
fill: none;
stroke: #85215E;
stroke-width: 0.6248611;
stroke-linecap: butt;
stroke-linejoin: miter;
}
.g9_305{
fill: none;
stroke: #85215E;
stroke-width: 1.8730555;
stroke-linecap: butt;
stroke-linejoin: miter;
}
.g10_305{
fill: none;
stroke: #9B9B9C;
stroke-width: 1.5277778;
stroke-linecap: butt;
stroke-linejoin: miter;
}
.g11_305{
fill: #85215E;
}
.g12_305{
fill: none;
stroke: #B2B3B7;
stroke-width: 1.5277778;
stroke-linecap: butt;
stroke-linejoin: miter;
stroke-miterlimit: 4;
}

.s1_305{
font-size: 35.61px;
font-family: SourceHanSansCN-Bold_btq;
fill: #1667B3;
}
.s2_305{
font-size: 14.91px;
font-family: SourceHanSansCN-Regular_cgj;
fill: #231F20;
}
.s3_305{
font-size: 14.91px;
font-family: SourceHanSansCN-Regular_cgj;
fill: #3F3F40;
}
.s4_305{
font-size: 32.08px;
font-family: LibreFranklin-ExtraBold_dm8;
fill: #85215E;
}
.s5_305{
font-size: 16.81px;
font-family: LibreFranklin-SemiBold_dmu;
fill: #85215E;
}
.s6_305{
font-size: 14.51px;
font-family: LibreFranklin-Regular_dmj;
fill: #3F3F40;
}
.s7_305{
font-size: 13.75px;
font-family: LibreFranklin-Medium_dmb;
fill: #231F20;
}
.s8_305{
font-size: 13.75px;
font-family: LibreFranklin-SemiBold_dmu;
fill: #FFFFFF;
}

]]></style>

</defs>
<path d="M0,0
L0,1196
L921,1196
L921,0 Z " 
fill="#FFFFFF" stroke="none" />
<path d="M729.9,525.8l-95,0l0,-114l95,0l0,114Z" class="g1_305" />
<path d="M729.9,524.2l0,1.6l-1.6,0" class="g2_305" />
<path d="M726.2,525.8l-88.6,0" class="g3_305" />
<path d="M636.5,525.8l-1.6,0l0,-1.6" class="g2_305" />
<path d="M634.9,522l0,-107.5" class="g3_305" />
<path d="M634.9,413.4l0,-1.6l1.6,0" class="g2_305" />
<path d="M638.6,411.8l88.6,0" class="g3_305" />
<path d="M728.3,411.8l1.6,0l0,1.6" class="g2_305" />
<path d="M729.9,415.6l0,107.5" class="g3_305" />
<path d="M397.8,442.4l58.4,0l0,-30.5l-58.4,0l0,30.5Z" class="g4_305" />
<path d="M260.9,524.9l76.5,0l0,-54.1l-76.5,0l0,54.1Z" class="g4_305" />
<path d="M447.5,524.9l81,0l0,-54.1l-81,0l0,54.1Z" class="g4_305" />
<path d="M515.6,442.4l60.9,0l0,-30.5l-60.9,0l0,30.5Z" class="g4_305" />
<path d="M189.2,1152.8l71.7,0l0,-740.9l-71.7,0l0,740.9Z" class="g4_305" />
<text 
x="372" 
y="380" 
dx="0,0,-1.1,0,-1.1,0,-1.1" 
class="s1_305"
>个 人 简 历</text>

<text 
x="561" 
y="404" 
dx="0,0,0,0,0" 
class="s2_305"
>填表日期：</text>

<text 
x="657" 
y="474" 
dx="0,0,0,0,0" 
class="s3_305"
>[贴照片]</text>

<path d="M729.7,1152.9l-540.2,0l0,-741l540.2,0Z" class="g5_305" />
<path d="M189.9,442.4l444.1,0" class="g5_305" />
<path d="M261.6,470.8l372.6,0" class="g5_305" />
<path d="M261.6,619.1l467.7,0" class="g5_305" />
<path d="M261.6,499.2l372.6,0" class="g5_305" />
<path d="M191.3,525.4l442.9,0" class="g5_305" />
<path d="M189.9,564.5l540.1,0" class="g5_305" />
<path d="M189.9,592.2l540.1,0" class="g5_305" />
<path d="M189.9,722.8l540.1,0" class="g5_305" />
<path d="M189.9,823.5l540.1,0" class="g5_305" />
<path d="M189.9,850.5l540.1,0" class="g5_305" />
<path d="M189.9,954.1l540.1,0" class="g5_305" />
<path d="M189.9,981.1l540.1,0" class="g5_305" />
<path d="M189.9,1050l540.1,0" class="g5_305" />
<path d="M260.9,412.5l0,740.6" class="g5_305" />
<path d="M337.5,470.8l0,54.6" class="g6_305" />
<path d="M422.7,591.6l0,130.6" class="g5_305" />
<path d="M447.5,470.8l0,54.6" class="g6_305" />
<path d="M528.6,470.8l0,54.6" class="g6_305" />
<path d="M397.4,411.2l0,31.2" class="g7_305" />
<path d="M455.9,411.2l0,31.2" class="g7_305" />
<path d="M515.5,411.2l0,31.2" class="g7_305" />
<path d="M575.9,411.2l0,31.2" class="g7_305" />
<text 
x="210" 
y="433" 
dx="0,0" 
class="s2_305"
>姓名</text>

<text 
x="217" 
y="480" 
dx="0" 
class="s2_305"
>地</text>

<text 
x="217" 
y="498" 
dx="0" 
class="s2_305"
>址</text>

<text 
x="410" 
y="433" 
dx="0,0" 
class="s2_305"
>性别</text>

<text 
x="530" 
y="433" 
dx="0,0" 
class="s2_305"
>年龄</text>

<text 
x="266" 
y="491" 
dx="0,0,0,0" 
class="s2_305"
>邮政编码</text>

<text 
x="455" 
y="491" 
dx="0,0,0,0" 
class="s2_305"
>电子邮件</text>

<text 
x="281" 
y="519" 
dx="0,0" 
class="s2_305"
>电话</text>

<text 
x="472" 
y="519" 
dx="0,0" 
class="s2_305"
>传真</text>

<text 
x="195" 
y="541" 
dx="0,0,0,0" 
class="s2_305"
>毕业学校</text>

<text 
x="195" 
y="558" 
dx="0,0,0" 
class="s2_305"
>及专业</text>

<text 
x="195" 
y="583" 
dx="0,0,0,0" 
class="s2_305"
>应聘职务</text>

<text 
x="217" 
y="641" 
dx="0" 
class="s2_305"
>教</text>

<text 
x="217" 
y="673" 
dx="0" 
class="s2_305"
>育</text>

<text 
x="217" 
y="761" 
dx="0" 
class="s2_305"
>奖</text>

<text 
x="217" 
y="793" 
dx="0" 
class="s2_305"
>励</text>

<text 
x="210" 
y="841" 
dx="0,0" 
class="s2_305"
>语言</text>

<text 
x="217" 
y="878" 
dx="0" 
class="s2_305"
>工</text>

<text 
x="217" 
y="896" 
dx="0" 
class="s2_305"
>作</text>

<text 
x="217" 
y="914" 
dx="0" 
class="s2_305"
>经</text>

<text 
x="217" 
y="932" 
dx="0" 
class="s2_305"
>历</text>

<text 
x="210" 
y="972" 
dx="0,0" 
class="s2_305"
>推荐</text>

<text 
x="217" 
y="1001" 
dx="0" 
class="s2_305"
>技</text>

<text 
x="217" 
y="1040" 
dx="0" 
class="s2_305"
>能</text>

<text 
x="217" 
y="1079" 
dx="0" 
class="s2_305"
>获</text>

<text 
x="217" 
y="1097" 
dx="0" 
class="s2_305"
>得</text>

<text 
x="217" 
y="1115" 
dx="0" 
class="s2_305"
>证</text>

<text 
x="217" 
y="1133" 
dx="0" 
class="s2_305"
>书</text>

<path d="M11.5,98.1l313.4,0" class="g8_305" />
<path d="M11.5,100.6l313.4,0" class="g9_305" />
<path d="M5.3,164.3l111.9,0" class="g10_305" />
<text 
x="60" 
y="86" 
dx="0,0.3,0.3,0.3,0.3,0.3,0.3,0.3,0.3,0,0.3,0.3,0.3,0.3" 
class="s4_305"
>Lesson Wrap-Up</text>

<text 
x="60" 
y="149" 
dx="0,-0.4,-0.7,-0.4,-0.4,-0.4,-0.4" 
class="s5_305"
>Project</text>

<text 
x="149" 
y="194" 
dx="0,-1.5,0,0,0,0,-0.2,0,0,0,0,-0.2,0,-0.2,0,0,-0.2,0,0,0,0,0,0,0,0,0,0,0,-0.4,-0.1,0,0,0,0,0,0,0,0,0,0,0,0,0,0,0,0,0,0,0,0,0,0,0,0,0,0,0,0,0,0,0,0,0,0,0,0,0,0,0,0,0,0,-0.2,0,0,0,0,0,0,-0.2,0,0,0,0,0,0,0,0,0,0,0" 
class="s6_305"
>You are interested in a marketing job that has opened up at the branch office of a Chinese </text>

<text 
x="149" 
y="219" 
dx="0,0,0,0,0,0,0,0,0,0,0,0,0,0,0,0,0,0,0,0,0,0,0,-1,0,0,0,0,0,0,0,0,0,0,0,0,0,0,0,0,0,0,0,0,0,0,0,0,0,0,0,0,0,-0.2,0,0,0,0,0,-1,0,0,0,0,0,0,0,0,0,0,0,0,0,0,0,0,0,0,0,0,-0.2,0,0,0,0,0,0,-0.2,0,0,0,0,0,-0.2,0,0,-0.2,0" 
class="s6_305"
>company in your country. In pairs, conduct a mock interview. First, study this resume template to </text>

<text 
x="149" 
y="243" 
dx="0,-0.1,-0.1,0,0,0,0,0,0,0,0,0,0,-0.2,0,0,0,0,0,0,0,0,0,-0.3,0,0,0,0,0,0,0,0,0,0,0,0,0,0,0,0,0,0,0,0,0,0,0,0,0,0,0,0,0,0,0,0,-0.3,0,-1.2,0,0,0,-0.3,-0.2,0,0,0,-0.2,0,0,0,0,0,0,0,0,0,0,0,-0.2,0,0,0,0,0,-0.2,0,0,0,0,0,0,0,0,0,0,0" 
class="s6_305"
>get an idea of what information Chinese employers look for. Next, rehearse appropriate questions </text>

<text 
x="149" 
y="268" 
dx="0,0,0,0,0,-0.2,0,0,0,0,0,0,0,0,0,-0.2,0,-0.1,-0.1,0,0,0,-0.8,0,0,0,0,0,-0.2,0,0,0,0,0,0,0,0,0,0,0,0,0,0,0,0,0,0,0,0,0,0,0,0,0,0,0,0,0,0,0,0,0,0,0,0,0,0,0,-0.2,0,0,0,0,0,-1,0,0,0,0,0,0,0,0,-1,0,0,0,0,-0.4,0,0,0,0,0,0,0" 
class="s6_305"
>and responses together—how to begin, carry out, and conclude the interview. Finally, take turns </text>

<text 
x="149" 
y="292" 
dx="0,-0.2,0,0,0,0,0,0,0,0,0,0,0,0,0,0,0,0,0,0,-0.2,0,0,0,0,0,0,0,0,0,0,0,0,0,0,0,0,0,0,0,0,0,0,0,0,0,0" 
class="s6_305"
>role-playing the interviewer and the applicant.</text>

<path d="M0,1140.5l45.1,0L45.1,0L0,0L0,1140.5Z" class="g11_305" />
<g clip-path="url(#c0_305)">
<path d="M-12.9,1140.5l58,0l0,-1222.1l-58,0l0,1222.1Z" class="g12_305" />
</g>
<text 
x="20" 
y="1166" 
dx="0,1.2,1.2,0" 
class="s7_305"
>282 </text>

<text 
transform="matrix(0, -1, 1, 0, 34, 1129)"
dx="0,1.2,1.2,1,1.2,1.2,1.2,1.2,1,1.2,1.2,1.2,1.2,1.2,1.2,1.2,1.2,1.2,1.2,1.2,1.2" 
class="s8_305"
>Integrated Chinese 4 </text>

<text 
transform="matrix(0, -1, 1, 0, 34, 955)"
dx="0,1.2" 
class="s8_305"
>| </text>

<text 
transform="matrix(0, -1, 1, 0, 34, 938)"
dx="0,-0.3,0.9,0.9,1.2,1.2,1.2,1.2" 
class="s8_305"
>Textbook</text>

<text 
transform="matrix(0, -1, 1, 0, 34, 1129)"
dx="0,1.2,1.2,1,1.2,1.2,1.2,1.2,1,1.2,1.2,1.2,1.2,1.2,1.2,1.2,1.2,1.2,1.2,1.2,1.2" 
class="s8_305"
>Integrated Chinese 4 </text>

<text 
transform="matrix(0, -1, 1, 0, 34, 955)"
dx="0,1.2" 
class="s8_305"
>| </text>

<text 
transform="matrix(0, -1, 1, 0, 34, 938)"
dx="0,-0.3,0.9,0.9,1.2,1.2,1.2,1.2" 
class="s8_305"
>Textbook</text>

<text 
transform="matrix(0, -1, 1, 0, 34, 1129)"
dx="0,1.2,1.2,1,1.2,1.2,1.2,1.2,1,1.2,1.2,1.2,1.2,1.2,1.2,1.2,1.2,1.2,1.2,1.2,1.2" 
class="s8_305"
>Integrated Chinese 4 </text>

<text 
transform="matrix(0, -1, 1, 0, 34, 955)"
dx="0,1.2" 
class="s8_305"
>| </text>

<text 
transform="matrix(0, -1, 1, 0, 34, 938)"
dx="0,-0.3,0.9,0.9,1.2,1.2,1.2,1.2" 
class="s8_305"
>Textbook</text>



<!-- Any embedded fonts defined here -->
<style type="text/css" ><![CDATA[

@font-face {
	font-family: LibreFranklin-ExtraBold_dm8;
	src: url("fonts/LibreFranklin-ExtraBold_dm8.woff") format("woff");
}

@font-face {
	font-family: LibreFranklin-Regular_dmj;
	src: url("fonts/LibreFranklin-Regular_dmj.woff") format("woff");
}

@font-face {
	font-family: SourceHanSansCN-Bold_btq;
	src: url("fonts/SourceHanSansCN-Bold_btq.woff") format("woff");
}

@font-face {
	font-family: SourceHanSansCN-Regular_cgj;
	src: url("fonts/SourceHanSansCN-Regular_cgj.woff") format("woff");
}

@font-face {
	font-family: LibreFranklin-Medium_dmb;
	src: url("fonts/LibreFranklin-Medium_dmb.woff") format("woff");
}

@font-face {
	font-family: LibreFranklin-SemiBold_dmu;
	src: url("fonts/LibreFranklin-SemiBold_dmu.woff") format("woff");
}

]]></style>

</svg>
