<?xml version="1.0" encoding="UTF-8" standalone="no"?>
<!DOCTYPE svg PUBLIC "-//W3C//DTD SVG 1.1//EN"
"http://www.w3.org/Graphics/SVG/1.1/DTD/svg11.dtd">


<!-- Page 196 -->
<svg x="0" y="0" width="921" height="1196" viewBox="0 0 921 1196" version="1.1" xmlns="http://www.w3.org/2000/svg" xmlns:xlink="http://www.w3.org/1999/xlink"
style="display: block;margin-left: auto;margin-right: auto;">
<defs>

<style type="text/css"><![CDATA[

.g1_196{
fill: none;
stroke: #007598;
stroke-width: 2.2916667;
stroke-linecap: butt;
stroke-linejoin: miter;
}
.g2_196{
fill: none;
stroke: #007598;
stroke-width: 1.5277778;
stroke-linecap: butt;
stroke-linejoin: miter;
stroke-miterlimit: 4;
}
.g3_196{
fill: none;
stroke: #007598;
stroke-width: 0.5102778;
stroke-linecap: butt;
stroke-linejoin: miter;
stroke-miterlimit: 4;
}
.g4_196{
fill: #007598;
stroke: #B2B3B7;
stroke-width: 1.5277778;
stroke-linecap: butt;
stroke-linejoin: miter;
stroke-miterlimit: 4;
}

.s1_196{
font-size: 15.28px;
font-family: LibreFranklin-ExtraBold_cyv;
fill: #3F3F40;
}
.s2_196{
font-size: 25.97px;
font-family: STKaiti-SC-Regular_cf1;
fill: #3F3F40;
}
.s3_196{
font-size: 25.97px;
font-family: STKaiti-SC-Bold_cdn;
fill: #007D9F;
}
.s4_196{
font-size: 25.97px;
font-family: STKaiTi-TC-Regular_cev;
fill: #3F3F40;
}
.s5_196{
font-size: 25.97px;
font-family: STKaiTi-TC-Bold_cdt;
fill: #007D9F;
}
.s6_196{
font-size: 14.51px;
font-family: LibreFranklin-Regular_cz7;
fill: #3F3F40;
}
.s7_196{
font-size: 23.68px;
font-family: STKaiti-SC-Regular_cf1;
fill: #3F3F40;
}
.s8_196{
font-size: 23.68px;
font-family: STKaiTi-TC-Regular_cev;
fill: #3F3F40;
}
.s9_196{
font-size: 18.33px;
font-family: LibreFranklin-ExtraBold_cyv;
fill: #007D9F;
}
.s10_196{
font-size: 22.92px;
font-family: LibreFranklin-Bold_cyr;
fill: #007D9F;
}
.s11_196{
font-size: 27.50px;
font-family: STKaiti-SC-Bold_cdn;
fill: #3F3F40;
}
.s12_196{
font-size: 13.75px;
font-family: LibreFranklin-Medium_cyp;
fill: #231F20;
}
.s13_196{
font-size: 13.75px;
font-family: LibreFranklin-SemiBold_c-4;
fill: #FFFFFF;
}

]]></style>

</defs>
<path d="M0,0
L0,1196
L921,1196
L921,0 Z " 
fill="#FFFFFF" stroke="none" />
<path d="M119.2,818.1l12.2,0" class="g1_196" />
<text 
x="169" 
y="71" 
dx="0,0" 
class="s1_196"
>C </text>

<text 
x="239" 
y="73" 
dx="0,0,0,0" 
class="s2_196"
>洗个澡，</text>

<text 
x="343" 
y="73" 
dx="0,0,0,0" 
class="s3_196"
>舒服舒服</text>

<text 
x="447" 
y="73" 
dx="0" 
class="s2_196"
>。</text>

<text 
x="239" 
y="114" 
dx="0,0,0,0" 
class="s4_196"
>洗個澡，</text>

<text 
x="343" 
y="114" 
dx="0,0,0,0" 
class="s5_196"
>舒服舒服</text>

<text 
x="447" 
y="114" 
dx="0" 
class="s4_196"
>。</text>

<text 
x="245" 
y="154" 
dx="0,-1.2,0,-0.4,0,0,0,0,0,0,0,0,0,0,0,0,0,0,0,0,-0.2,0,0,0,0,0,0,0,0" 
class="s6_196"
>Take a bath/shower to unwind.</text>

<text 
x="245" 
y="195" 
dx="0,0,0,0,-0.2,0,0" 
class="s6_196"
>(Here, </text>

<text 
x="289" 
y="197" 
dx="0,0,0,0" 
class="s7_196"
>舒服舒服</text>

<text 
x="387" 
y="195" 
dx="0,0,0,0,0,0,0,-0.2,0,0,0,0,0,0,0,0,0,-0.2,0,0,-0.2,0,0,0,0,0,0,0,0,-0.1,0,0,0,0,0,0,0,0,-0.4,0,0,0,0,0,0,-0.4,0,0,0,0,0,0,0,0,0,0,0,0,0,0,0,0,0,0,0" 
class="s6_196"
>indicates a desire to do something (i.e., take a bath/shower) in </text>

<text 
x="245" 
y="215" 
dx="0,0,-0.2,0,0,0,0,-0.2,0,0,-0.3,0,0,0,0,0,0,0,-0.3,0,0,0,0,0,0,0,0" 
class="s6_196"
>order to feel comfortable.)</text>

<text 
x="169" 
y="267" 
dx="0,0" 
class="s1_196"
>D </text>

<text 
x="239" 
y="270" 
dx="0,0,0,0,0,0,0,0,0,0,0,0,0,0,0,0,0,0,0" 
class="s2_196"
>爷爷今年过八十岁生日，我们应该好好儿地</text>

<text 
x="733" 
y="270" 
dx="0,0,0" 
class="s3_196"
>热闹热</text>

<text 
x="239" 
y="303" 
dx="0" 
class="s3_196"
>闹</text>

<text 
x="265" 
y="303" 
dx="0" 
class="s2_196"
>。</text>

<text 
x="239" 
y="344" 
dx="0,0,0,0,0,0,0,0,0,0,0,0,0,0,0,0,0,0,0" 
class="s4_196"
>爺爺今年過八十歲生日，我們應該好好兒地</text>

<text 
x="733" 
y="344" 
dx="0,0,0" 
class="s5_196"
>熱鬧熱</text>

<text 
x="239" 
y="377" 
dx="0" 
class="s5_196"
>鬧</text>

<text 
x="265" 
y="377" 
dx="0" 
class="s4_196"
>。</text>

<text 
x="245" 
y="418" 
dx="0,0,0,0,0,0,0,0,0,0,0,0,0,0,0,0,0,0,0,0,0,-0.9,0,0,0,0,0,0,0,0,-0.1,0,0,0,0,0,0,0,0,0,0,-1,0,0,-1,0,0,0,0,0,0,0,0,0,0,0,-0.4,0,0,0,0,0,0,0,0,0,0,0,0,0,0,0,0,0,0,0,0,0,0,0,0,0,0,-0.4,0" 
class="s6_196"
>This year is Grandpa’s eightieth birthday. We should have a big celebration and have </text>

<text 
x="245" 
y="438" 
dx="0,0,0,0,-0.2,0,0,0,0,0,0,0,0" 
class="s6_196"
>a great time.</text>

<text 
x="245" 
y="479" 
dx="0" 
class="s6_196"
>(</text>

<text 
x="250" 
y="480" 
dx="0,0,0,0" 
class="s7_196"
>热闹热闹</text>

<text 
x="344" 
y="479" 
dx="0" 
class="s6_196"
>/</text>

<text 
x="349" 
y="480" 
dx="0,0,0,0" 
class="s8_196"
>熱鬧熱鬧</text>

<text 
x="447" 
y="479" 
dx="0,0,0,0,0,0,0,-0.2,0,0,0,-0.1,0,0,0,0,0,0,0,0,0,-0.2,0,0,0,0,0,-0.9,0,0,0,0,0,0,-0.2,0,0,0,0,-0.4,0,0,0,0,0" 
class="s6_196"
>indicates going out of one’s way to make the </text>

<text 
x="245" 
y="499" 
dx="0,0,0,0,0,0,0,0,0,0,0,0,0,0,0,0,0,-0.4,0,0,-1,0,0,-0.3,0,0,0,0,-0.4,0,0,0,0,0,0,0,0,0,0,0" 
class="s6_196"
>celebration a lively, festive occasion.)</text>

<text 
x="157" 
y="540" 
dx="0,0,0,-0.2,0,0,0,0,0,0,0,0,-0.2,0,0,0,0,0,0,0,0,0,0,-0.4,0,0,0,0,0,0,0,0,0,0,-0.3,0,0,0,0,0,0,0,0,0,0,-0.1,0,0,0,0,0,0,0,-0.2,0,0,0,0,0,0,0,0,0,0,0,0,0,0,-0.4,0,0,0" 
class="s6_196"
>A reduplicated adjective in this form is sometimes preceded by the verb </text>

<text 
x="641" 
y="541" 
dx="0" 
class="s7_196"
>让</text>

<text 
x="665" 
y="540" 
dx="0" 
class="s6_196"
>/</text>

<text 
x="670" 
y="541" 
dx="0" 
class="s8_196"
>讓</text>

<text 
x="696" 
y="540" 
dx="0,0,0" 
class="s6_196"
>or </text>

<text 
x="714" 
y="541" 
dx="0" 
class="s7_196"
>叫</text>

<text 
x="738" 
y="540" 
dx="0" 
class="s6_196"
>:</text>

<text 
x="169" 
y="596" 
dx="0,0" 
class="s1_196"
>E </text>

<text 
x="239" 
y="599" 
dx="0,0,0,0,0,0,0,0,0,0,0,0,0" 
class="s2_196"
>你把这个好消息告诉他，让他</text>

<text 
x="577" 
y="599" 
dx="0,0,0,0" 
class="s3_196"
>高兴高兴</text>

<text 
x="681" 
y="599" 
dx="0" 
class="s2_196"
>。</text>

<text 
x="239" 
y="639" 
dx="0,0,0,0,0,0,0,0,0,0,0,0,0" 
class="s4_196"
>你把這個好消息告訴他，讓他</text>

<text 
x="577" 
y="639" 
dx="0,0,0,0" 
class="s5_196"
>高興高興</text>

<text 
x="681" 
y="639" 
dx="0" 
class="s4_196"
>。</text>

<text 
x="245" 
y="673" 
dx="0,-1.5,0,0,0,0,0,0,0,0,0,0,0,0,-0.1,0,0,0,0,0,0,0,0,0,-0.2,0,0,0,0,0,0,0,0,0,0,0,0,0,0" 
class="s6_196"
>Tell him the good news to cheer him up.</text>

<text 
x="245" 
y="714" 
dx="0" 
class="s6_196"
>(</text>

<text 
x="250" 
y="716" 
dx="0,0,0,0,0,0" 
class="s7_196"
>让他高兴高兴</text>

<text 
x="392" 
y="714" 
dx="0" 
class="s6_196"
>/</text>

<text 
x="397" 
y="716" 
dx="0,0,0,0,0,0" 
class="s8_196"
>讓他高興高興</text>

<text 
x="542" 
y="714" 
dx="0,0,0,0,0,0,0,-0.2,0,0,0,0,0,0,0,0,0,0,0,0,0,0,0,0,0,0,0,0,0,0,0,0,0,-0.2,0,0,0,0,-0.4,0" 
class="s6_196"
>indicates that the person wants to make </text>

<text 
x="245" 
y="734" 
dx="0,0,0,0,0,0,0,0,0,0,0,0,0,0,0,0,0,0,-1,0" 
class="s6_196"
>someone else happy.)</text>

<text 
x="119" 
y="812" 
dx="0,0" 
class="s9_196"
>3 </text>

<text 
x="200" 
y="816" 
dx="0,0,0,0,-0.5,0,0,0,0,0,0,0,0,0,0,0,0,0,0,0,0,0,0,-0.4,0,0,0,0,0,0,-0.7,0,0,0,0,0,0,0" 
class="s10_196"
>Suggesting multiple alternatives with </text>

<text 
x="617" 
y="816" 
dx="0,0,0,0,0" 
class="s11_196"
>…吧，…吧</text>

<text 
x="157" 
y="878" 
dx="0,0,0,0,0,0,0,0,0,0,0,0,0,0,0,0,0,0,0,0,0,0,0,0,0,0,0,0,0,0,-0.3,0,0,0,0,0,0,0,0,0,0,0,-0.4,0,0,0,0,0,0,0,0,0,0,0,0,0,0,0,0,0,0,0,0,0,0,0,-0.2,0,0,0,0,0,0,0,0,-0.2,0,0,0,0,0,0,0,0,0,0,0,0,0,0,0,-0.4,0,0,0,0,0,0,0,0" 
class="s6_196"
>This construction is usually found in spoken Chinese. It is used to indicate that the speaker is in </text>

<text 
x="157" 
y="906" 
dx="0,0,0,0,0,0,0,0,0,0,0,0,0,0,0,0,0,0,0,0,0,0,-0.2,0,0,0,0,-0.4,0,0,0,0,0,0,0,0,0,0,0,0,0,0,0,0,0,0,0,0,0,0,0,0,0,-0.2,0,0,0,0,0,0,-0.4,0,0" 
class="s6_196"
>a dilemma and unable to make a decision among the alternatives.</text>

<text 
x="169" 
y="962" 
dx="0,0" 
class="s1_196"
>A </text>

<text 
x="239" 
y="965" 
dx="0,0,0,0,0,0,0,0,0,0,0" 
class="s2_196"
>可是怎么去呢？坐出租车</text>

<text 
x="525" 
y="965" 
dx="0" 
class="s3_196"
>吧</text>

<text 
x="551" 
y="965" 
dx="0,0,0,0,0,0,0,0,0,0,0" 
class="s2_196"
>，太贵，而且也没意思；</text>

<text 
x="239" 
y="998" 
dx="0,0,0,0" 
class="s2_196"
>坐公交车</text>

<text 
x="343" 
y="998" 
dx="0" 
class="s3_196"
>吧</text>

<text 
x="369" 
y="998" 
dx="0,0,0,0,0,0,0,0" 
class="s2_196"
>，人太多，太挤。</text>

<text 
x="239" 
y="1039" 
dx="0,0,0,0,0,0,0,0,0,0,0" 
class="s4_196"
>可是怎麼去呢？坐出租車</text>

<text 
x="525" 
y="1039" 
dx="0" 
class="s5_196"
>吧</text>

<text 
x="551" 
y="1039" 
dx="0,0,0,0,0,0,0,0,0,0,0" 
class="s4_196"
>，太貴，而且也沒意思；</text>

<text 
x="239" 
y="1072" 
dx="0,0,0,0" 
class="s4_196"
>坐公交車</text>

<text 
x="343" 
y="1072" 
dx="0" 
class="s5_196"
>吧</text>

<text 
x="369" 
y="1072" 
dx="0,0,0,0,0,0,0,0" 
class="s4_196"
>，人太多，太擠。</text>

<text 
x="245" 
y="1106" 
dx="0,0,0,0,0,0,0,0,0,0,0,0,0,0,0,0,0,0,0,0,0,-0.1,-0.1,0,0,0,0,0,-0.2,0,0,0,-1.2,0,0,0,0,0,0,0,0,0,0,0,0,0,0,0,0,0,0,0,0,0,-0.2,0,0,0,-0.3,0,0,0,0,0,0,-0.4,0,0,0,0,0,0,0,0,0,0,0,0,0,0,0,-0.2,0,-0.4,0" 
class="s6_196"
>But how should they get there? Taking a cab would be too expensive, and boring, too. </text>

<text 
x="245" 
y="1126" 
dx="0,0,0,0,0,0,0,0,0,0,0,0,0,0,0,0,0,0,0,0,0,0,0,0,0,0,0,-0.2,0,0,0,0,0,0,0,0,0,0,0,0,0,0,0,0,0,0,0,0,0,0,0,-0.2,0,0,0,0,-0.2,0,0,0,0,0" 
class="s6_196"
>Public transportation has too many people, and is too crowded.</text>

<path d="M163.5,47.5c-0.1,0,-7.7,0.1,-7.7,7.6l0,19.7c0,0.1,0.1,7.6,7.7,7.6l22.4,0c0.1,0,7.6,0,7.6,-7.6l0,-19.7c0,-0.1,-0.1,-7.6,-7.6,-7.6l-22.4,0Z" class="g2_196" />
<path d="M163.5,49.5c-0.6,0,-5.6,0.2,-5.6,5.6l0,19.7c0,0.6,0.2,5.6,5.6,5.6l22.4,0c0.6,0,5.6,-0.2,5.6,-5.6l0,-19.7c0,-0.6,-0.2,-5.6,-5.6,-5.6l-22.4,0Z" class="g3_196" />
<path d="M163.5,244.6c-0.1,0,-7.7,0.1,-7.7,7.6l0,19.7c0,0.1,0.1,7.6,7.7,7.6l22.4,0c0.1,0,7.6,0,7.6,-7.6l0,-19.7c0,-0.1,-0.1,-7.6,-7.6,-7.6l-22.4,0Z" class="g2_196" />
<path d="M163.5,246.6c-0.6,0,-5.6,0.2,-5.6,5.6l0,19.7c0,0.6,0.2,5.6,5.6,5.6l22.4,0c0.6,0,5.6,-0.2,5.6,-5.6l0,-19.7c0,-0.6,-0.2,-5.6,-5.6,-5.6l-22.4,0Z" class="g3_196" />
<path d="M163.5,573.8c-0.1,0,-7.7,0.1,-7.7,7.7l0,19.7c0,0,0.1,7.6,7.7,7.6l22.4,0c0.1,0,7.6,-0.1,7.6,-7.6l0,-19.7c0,-0.1,-0.1,-7.7,-7.6,-7.7l-22.4,0Z" class="g2_196" />
<path d="M163.5,575.9c-0.6,0,-5.6,0.2,-5.6,5.6l0,19.7c0,0.5,0.2,5.6,5.6,5.6l22.4,0c0.6,0,5.6,-0.2,5.6,-5.6l0,-19.7c0,-0.6,-0.2,-5.6,-5.6,-5.6l-22.4,0Z" class="g3_196" />
<path d="M147.7,783.6l0,53.5l0,0.7l0.8,0l676.8,0l0.8,0l0,-0.7l0,-53.5l0,-0.8l-0.8,0l-676.8,0l-0.8,0l0,0.8Z" class="g2_196" />
<path d="M149.7,835.8l674.4,0l0,-50.9l-674.4,0l0,50.9Z" class="g3_196" />
<path d="M163.5,938.9c-0.1,0,-7.7,0.1,-7.7,7.7l0,19.7c0,0,0.1,7.6,7.7,7.6l22.4,0c0.1,0,7.6,-0.1,7.6,-7.6l0,-19.7c0,-0.1,-0.1,-7.7,-7.6,-7.7l-22.4,0Z" class="g2_196" />
<path d="M163.5,941c-0.6,0,-5.6,0.2,-5.6,5.6l0,19.7c0,0.5,0.2,5.6,5.6,5.6l22.4,0c0.6,0,5.6,-0.2,5.6,-5.6l0,-19.7c0,-0.6,-0.2,-5.6,-5.6,-5.6l-22.4,0Z" class="g3_196" />
<path d="M876.9,1141.6l57.3,0l0,-1222.1l-57.3,0l0,1222.1Z" class="g4_196" />
<text 
x="875" 
y="1166" 
dx="0,1.2,1.2,0" 
class="s12_196"
>173 </text>

<text 
transform="matrix(0, 1, -1, 0, 888, 528)"
dx="0,1.2,1.2,1.2,1.2,1.2,1.2,1.2,1.2,1.2" 
class="s13_196"
>Lesson 16 </text>

<text 
transform="matrix(0, 1, -1, 0, 888, 618)"
dx="0,1.2" 
class="s13_196"
>| </text>

<text 
transform="matrix(0, 1, -1, 0, 888, 635)"
dx="0,1.2,1.2,1.2,1.2,1,1.2,1.2,1.2,1.2,1.2,1.2,1.2,1.2,1.2,1.2,1,1.1,1,1.2,1.2,1.2,1.2,1.2,1.2,1.2,1.2,1.2,1.2,1.2,1.2,1.2,1.2,1.2,1.2,1.2,1.2,1.2,1.2,1.2,1.2,1.2,1.2,1.2,1.2,1.2,1.2,1.2,1.2" 
class="s13_196"
>Environmental Protection and Energy Conservation </text>

<text 
transform="matrix(0, 1, -1, 0, 888, 1043)"
dx="0,1.2" 
class="s13_196"
>| </text>

<text 
transform="matrix(0, 1, -1, 0, 888, 1060)"
dx="0,1.2,1.2,1.2,1.2,1.2,1.2,0" 
class="s13_196"
>Grammar </text>



<!-- Any embedded fonts defined here -->
<style type="text/css" ><![CDATA[

@font-face {
	font-family: STKaiti-SC-Bold_cdn;
	src: url("fonts/STKaiti-SC-Bold_cdn.woff") format("woff");
}

@font-face {
	font-family: LibreFranklin-Bold_cyr;
	src: url("fonts/LibreFranklin-Bold_cyr.woff") format("woff");
}

@font-face {
	font-family: STKaiTi-TC-Regular_cev;
	src: url("fonts/STKaiTi-TC-Regular_cev.woff") format("woff");
}

@font-face {
	font-family: STKaiTi-TC-Bold_cdt;
	src: url("fonts/STKaiTi-TC-Bold_cdt.woff") format("woff");
}

@font-face {
	font-family: LibreFranklin-Regular_cz7;
	src: url("fonts/LibreFranklin-Regular_cz7.woff") format("woff");
}

@font-face {
	font-family: STKaiti-SC-Regular_cf1;
	src: url("fonts/STKaiti-SC-Regular_cf1.woff") format("woff");
}

@font-face {
	font-family: LibreFranklin-ExtraBold_cyv;
	src: url("fonts/LibreFranklin-ExtraBold_cyv.woff") format("woff");
}

@font-face {
	font-family: LibreFranklin-SemiBold_c-4;
	src: url("fonts/LibreFranklin-SemiBold_c-4.woff") format("woff");
}

@font-face {
	font-family: LibreFranklin-Medium_cyp;
	src: url("fonts/LibreFranklin-Medium_cyp.woff") format("woff");
}

]]></style>

</svg>
