<?xml version="1.0" encoding="UTF-8" standalone="no"?>
<!DOCTYPE svg PUBLIC "-//W3C//DTD SVG 1.1//EN"
"http://www.w3.org/Graphics/SVG/1.1/DTD/svg11.dtd">


<!-- Page 397 -->
<svg x="0" y="0" width="921" height="1196" viewBox="0 0 921 1196" version="1.1" xmlns="http://www.w3.org/2000/svg" xmlns:xlink="http://www.w3.org/1999/xlink"
style="display: block;margin-left: auto;margin-right: auto;">
<defs>

<style type="text/css"><![CDATA[

.g1_397{
fill: #DC262E;
stroke: #B2B3B7;
stroke-width: 1.5277778;
stroke-linecap: butt;
stroke-linejoin: miter;
stroke-miterlimit: 4;
}
.g2_397{
fill: #57585A;
stroke: #B2B3B7;
stroke-width: 1.5277778;
stroke-linecap: butt;
stroke-linejoin: miter;
stroke-miterlimit: 4;
}
.g3_397{
fill: #F0F1F2;
}
.g4_397{
fill: none;
stroke: #BDBEC1;
stroke-width: 0.38194445;
stroke-linecap: butt;
stroke-linejoin: miter;
}
.g5_397{
fill: none;
stroke: #DADBDD;
stroke-width: 1.5277778;
stroke-linecap: butt;
stroke-linejoin: miter;
}

.s1_397{
font-size: 13.75px;
font-family: LibreFranklin-Medium_dhv;
fill: #231F20;
}
.s2_397{
font-size: 13.75px;
font-family: LibreFranklin-SemiBold_dig;
fill: #FFFFFF;
}
.s3_397{
font-size: 13.75px;
font-family: LibreFranklin-SemiBold_cg0;
fill: #FFFFFF;
}
.s4_397{
font-size: 14.51px;
font-family: LibreFranklin-SemiBold_di3;
fill: #57585A;
}
.s5_397{
font-size: 13.75px;
font-family: LibreFranklin-Light_dib;
fill: #3F3F40;
}
.s6_397{
font-size: 24.44px;
font-family: STKaiti-SC-Regular_cf1;
fill: #57585A;
}
.s7_397{
font-size: 24.44px;
font-family: STKaiTi-TC-Regular_cev;
fill: #57585A;
}
.s8_397{
font-size: 14.90px;
font-family: GentiumBookBasic-Italic_chu;
fill: #3F3F40;
}
.s9_397{
font-size: 14.51px;
font-family: LibreFranklin-Regular_di7;
fill: #3F3F40;
}
.s10_397{
font-size: 14.51px;
font-family: LibreFranklin-SemiBold_di3;
fill: #77787B;
}

]]></style>

</defs>
<path d="M0,0
L0,1196
L921,1196
L921,0 Z " 
fill="#FFFFFF" stroke="none" />
<path d="M-12.9,1140.6l58,0l0,-1153.5l-58,0l0,1153.5Z" class="g1_397" />
<text 
x="20" 
y="1166" 
dx="0,1.2,1.2,0" 
class="s1_397"
>374 </text>

<text 
transform="matrix(0, -1, 1, 0, 34, 1129)"
dx="0,1.2,1.2,1,1.2,1.2,1.2,1.2,1,1.2,1.2,1.2,1.2,1.2,1.2,1.2,1.2,1.2,1.2,1.2,1.2" 
class="s2_397"
>Integrated Chinese 4 </text>

<text 
transform="matrix(0, -1, 1, 0, 34, 955)"
dx="0,1.2" 
class="s2_397"
>| </text>

<text 
transform="matrix(0, -1, 1, 0, 34, 938)"
dx="0,-0.3,0.9,0.9,1.2,1.2,1.2,1.2" 
class="s2_397"
>Textbook</text>

<text 
transform="matrix(0, -1, 1, 0, 34, 1129)"
dx="0,1.2,1.2,1,1.2,1.2,1.2,1.2,1,1.2,1.2,1.2,1.2,1.2,1.2,1.2,1.2,1.2,1.2,1.2,1.2" 
class="s2_397"
>Integrated Chinese 4 </text>

<text 
transform="matrix(0, -1, 1, 0, 34, 955)"
dx="0,1.2" 
class="s2_397"
>| </text>

<text 
transform="matrix(0, -1, 1, 0, 34, 938)"
dx="0,-0.3,0.9,0.9,1.2,1.2,1.2,1.2" 
class="s2_397"
>Textbook</text>

<text 
transform="matrix(0, -1, 1, 0, 34, 1129)"
dx="0,1.2,1.2,1,1.2,1.2,1.2,1.2,1,1.2,1.2,1.2,1.2,1.2,1.2,1.2,1.2,1.2,1.2,1.2,1.2" 
class="s2_397"
>Integrated Chinese 4 </text>

<text 
transform="matrix(0, -1, 1, 0, 34, 955)"
dx="0,1.2" 
class="s2_397"
>| </text>

<text 
transform="matrix(0, -1, 1, 0, 34, 938)"
dx="0,-0.3,0.9,0.9,1.2,1.2,1.2,1.2" 
class="s2_397"
>Textbook</text>

<path d="M-12.9,1140.6l58,0l0,-1153.5l-58,0l0,1153.5Z" class="g2_397" />
<text 
x="20" 
y="1166" 
dx="0,1.2,1.2,0" 
class="s1_397"
>374 </text>

<text 
transform="matrix(0, -1, 1, 0, 34, 1129)"
dx="0,1.2,1.2,1,1.2,1.2,1.2,1.2,1,1.2,1.2,1.2,1.2,1.2,1.2,1.2,1.2,1.2,1.2,1.2,1.2" 
class="s3_397"
>Integrated Chinese 4 </text>

<text 
transform="matrix(0, -1, 1, 0, 34, 955)"
dx="0,1.2" 
class="s3_397"
>| </text>

<text 
transform="matrix(0, -1, 1, 0, 34, 938)"
dx="0,-0.3,0.9,0.9,1.2,1.2,1.2,1.2" 
class="s3_397"
>Textbook</text>

<text 
transform="matrix(0, -1, 1, 0, 34, 1129)"
dx="0,1.2,1.2,1,1.2,1.2,1.2,1.2,1,1.2,1.2,1.2,1.2,1.2,1.2,1.2,1.2,1.2,1.2,1.2,1.2" 
class="s3_397"
>Integrated Chinese 4 </text>

<text 
transform="matrix(0, -1, 1, 0, 34, 955)"
dx="0,1.2" 
class="s3_397"
>| </text>

<text 
transform="matrix(0, -1, 1, 0, 34, 938)"
dx="0,-0.3,0.9,0.9,1.2,1.2,1.2,1.2" 
class="s3_397"
>Textbook</text>

<text 
transform="matrix(0, -1, 1, 0, 34, 1129)"
dx="0,1.2,1.2,1,1.2,1.2,1.2,1.2,1,1.2,1.2,1.2,1.2,1.2,1.2,1.2,1.2,1.2,1.2,1.2,1.2" 
class="s3_397"
>Integrated Chinese 4 </text>

<text 
transform="matrix(0, -1, 1, 0, 34, 955)"
dx="0,1.2" 
class="s3_397"
>| </text>

<text 
transform="matrix(0, -1, 1, 0, 34, 938)"
dx="0,-0.3,0.9,0.9,1.2,1.2,1.2,1.2" 
class="s3_397"
>Textbook</text>

<path d="M55,146l189.1,0l0,42.8L55,188.8L55,146Zm189.1,0l179.6,0l0,42.8l-179.6,0l0,-42.8Zm179.6,0l177.9,0l0,42.8l-177.9,0l0,-42.8Zm177.9,0l135.2,0l0,42.8l-135.2,0l0,-42.8Zm135.2,0l66.2,0l0,42.8l-66.2,0l0,-42.8Zm66.2,0l63.3,0l0,42.8l-63.3,0L803,146ZM55,231.5l189.1,0l0,42.8L55,274.3l0,-42.8Zm189.1,0l179.6,0l0,42.8l-179.6,0l0,-42.8Zm179.6,0l177.9,0l0,42.8l-177.9,0l0,-42.8Zm177.9,0l135.2,0l0,42.8l-135.2,0l0,-42.8Zm135.2,0l66.2,0l0,42.8l-66.2,0l0,-42.8Zm66.2,0l63.3,0l0,42.8l-63.3,0l0,-42.8ZM55,317.1l189.1,0l0,42.8L55,359.9l0,-42.8Zm189.1,0l179.6,0l0,42.8l-179.6,0l0,-42.8Zm179.6,0l177.9,0l0,42.8l-177.9,0l0,-42.8Zm177.9,0l135.2,0l0,42.8l-135.2,0l0,-42.8Zm135.2,0l66.2,0l0,42.8l-66.2,0l0,-42.8Zm66.2,0l63.3,0l0,42.8l-63.3,0l0,-42.8ZM55,402.6l189.1,0l0,42.8L55,445.4l0,-42.8Zm189.1,0l179.6,0l0,42.8l-179.6,0l0,-42.8Zm179.6,0l177.9,0l0,42.8l-177.9,0l0,-42.8Zm177.9,0l135.2,0l0,42.8l-135.2,0l0,-42.8Zm135.2,0l66.2,0l0,42.8l-66.2,0l0,-42.8Zm66.2,0l63.3,0l0,42.8l-63.3,0l0,-42.8ZM55,488.2l189.1,0l0,42.8L55,531l0,-42.8Zm189.1,0l179.6,0l0,42.8l-179.6,0l0,-42.8Zm179.6,0l177.9,0l0,42.8l-177.9,0l0,-42.8Zm177.9,0l135.2,0l0,42.8l-135.2,0l0,-42.8Zm135.2,0l66.2,0l0,42.8l-66.2,0l0,-42.8Zm66.2,0l63.3,0l0,42.8L803,531l0,-42.8ZM55,573.8l189.1,0l0,42.7L55,616.5l0,-42.7Zm189.1,0l179.6,0l0,42.7l-179.6,0l0,-42.7Zm179.6,0l177.9,0l0,42.7l-177.9,0l0,-42.7Zm177.9,0l135.2,0l0,42.7l-135.2,0l0,-42.7Zm135.2,0l66.2,0l0,42.7l-66.2,0l0,-42.7Zm66.2,0l63.3,0l0,42.7l-63.3,0l0,-42.7ZM55,659.3l189.1,0l0,45.4L55,704.7l0,-45.4Zm189.1,0l179.6,0l0,45.4l-179.6,0l0,-45.4Zm179.6,0l177.9,0l0,45.4l-177.9,0l0,-45.4Zm177.9,0l135.2,0l0,45.4l-135.2,0l0,-45.4Zm135.2,0l66.2,0l0,45.4l-66.2,0l0,-45.4Zm66.2,0l63.3,0l0,45.4l-63.3,0l0,-45.4ZM55,750l189.1,0l0,45.4L55,795.4L55,750Zm189.1,0l179.6,0l0,45.4l-179.6,0l0,-45.4Zm179.6,0l177.9,0l0,45.4l-177.9,0l0,-45.4Zm177.9,0l135.2,0l0,45.4l-135.2,0l0,-45.4Zm135.2,0l66.2,0l0,45.4l-66.2,0l0,-45.4Zm66.2,0l63.3,0l0,45.4l-63.3,0L803,750ZM55,840.8l189.1,0l0,45.3L55,886.1l0,-45.3Zm189.1,0l179.6,0l0,45.3l-179.6,0l0,-45.3Zm179.6,0l177.9,0l0,45.3l-177.9,0l0,-45.3Zm177.9,0l135.2,0l0,45.3l-135.2,0l0,-45.3Zm135.2,0l66.2,0l0,45.3l-66.2,0l0,-45.3Zm66.2,0l63.3,0l0,45.3l-63.3,0l0,-45.3ZM55,928.9l189.1,0l0,42.8L55,971.7l0,-42.8Zm189.1,0l179.6,0l0,42.8l-179.6,0l0,-42.8Zm179.6,0l177.9,0l0,42.8l-177.9,0l0,-42.8Zm177.9,0l135.2,0l0,42.8l-135.2,0l0,-42.8Zm135.2,0l66.2,0l0,42.8l-66.2,0l0,-42.8Zm66.2,0l63.3,0l0,42.8l-63.3,0l0,-42.8ZM55,1014.5l189.1,0l0,42.8l-189.1,0l0,-42.8Zm189.1,0l179.6,0l0,42.8l-179.6,0l0,-42.8Zm179.6,0l177.9,0l0,42.8l-177.9,0l0,-42.8Zm177.9,0l135.2,0l0,42.8l-135.2,0l0,-42.8Zm135.2,0l66.2,0l0,42.8l-66.2,0l0,-42.8Zm66.2,0l63.3,0l0,42.8l-63.3,0l0,-42.8ZM55,1100l189.1,0l0,45.4l-189.1,0L55,1100Zm189.1,0l179.6,0l0,45.4l-179.6,0l0,-45.4Zm179.6,0l177.9,0l0,45.4l-177.9,0l0,-45.4Zm177.9,0l135.2,0l0,45.4l-135.2,0l0,-45.4Zm135.2,0l66.2,0l0,45.4l-66.2,0l0,-45.4Zm66.2,0l63.3,0l0,45.4l-63.3,0l0,-45.4Z" class="g3_397" />
<path d="M55,146l189.1,0" class="g4_397" />
<path d="M244.1,146l179.6,0" class="g4_397" />
<path d="M423.7,146l177.9,0" class="g4_397" />
<path d="M601.6,146l135.2,0" class="g4_397" />
<path d="M736.8,146l66.2,0" class="g4_397" />
<path d="M803,146l63.3,0" class="g4_397" />
<path d="M55,188.8l189.1,0" class="g4_397" />
<path d="M244.1,188.8l179.6,0" class="g4_397" />
<path d="M423.7,188.8l177.9,0" class="g4_397" />
<path d="M601.6,188.8l135.2,0" class="g4_397" />
<path d="M736.8,188.8l66.2,0" class="g4_397" />
<path d="M803,188.8l63.3,0" class="g4_397" />
<path d="M55,231.5l189.1,0" class="g4_397" />
<path d="M244.1,231.5l179.6,0" class="g4_397" />
<path d="M423.7,231.5l177.9,0" class="g4_397" />
<path d="M601.6,231.5l135.2,0" class="g4_397" />
<path d="M736.8,231.5l66.2,0" class="g4_397" />
<path d="M803,231.5l63.3,0" class="g4_397" />
<path d="M55,274.3l189.1,0" class="g4_397" />
<path d="M244.1,274.3l179.6,0" class="g4_397" />
<path d="M423.7,274.3l177.9,0" class="g4_397" />
<path d="M601.6,274.3l135.2,0" class="g4_397" />
<path d="M736.8,274.3l66.2,0" class="g4_397" />
<path d="M803,274.3l63.3,0" class="g4_397" />
<path d="M55,317.1l189.1,0" class="g4_397" />
<path d="M244.1,317.1l179.6,0" class="g4_397" />
<path d="M423.7,317.1l177.9,0" class="g4_397" />
<path d="M601.6,317.1l135.2,0" class="g4_397" />
<path d="M736.8,317.1l66.2,0" class="g4_397" />
<path d="M803,317.1l63.3,0" class="g4_397" />
<path d="M55,359.9l189.1,0" class="g4_397" />
<path d="M244.1,359.9l179.6,0" class="g4_397" />
<path d="M423.7,359.9l177.9,0" class="g4_397" />
<path d="M601.6,359.9l135.2,0" class="g4_397" />
<path d="M736.8,359.9l66.2,0" class="g4_397" />
<path d="M803,359.9l63.3,0" class="g4_397" />
<path d="M55,402.6l189.1,0" class="g4_397" />
<path d="M244.1,402.6l179.6,0" class="g4_397" />
<path d="M423.7,402.6l177.9,0" class="g4_397" />
<path d="M601.6,402.6l135.2,0" class="g4_397" />
<path d="M736.8,402.6l66.2,0" class="g4_397" />
<path d="M803,402.6l63.3,0" class="g4_397" />
<path d="M55,445.4l189.1,0" class="g4_397" />
<path d="M244.1,445.4l179.6,0" class="g4_397" />
<path d="M423.7,445.4l177.9,0" class="g4_397" />
<path d="M601.6,445.4l135.2,0" class="g4_397" />
<path d="M736.8,445.4l66.2,0" class="g4_397" />
<path d="M803,445.4l63.3,0" class="g4_397" />
<path d="M55,488.2l189.1,0" class="g4_397" />
<path d="M244.1,488.2l179.6,0" class="g4_397" />
<path d="M423.7,488.2l177.9,0" class="g4_397" />
<path d="M601.6,488.2l135.2,0" class="g4_397" />
<path d="M736.8,488.2l66.2,0" class="g4_397" />
<path d="M803,488.2l63.3,0" class="g4_397" />
<path d="M55,531l189.1,0" class="g4_397" />
<path d="M244.1,531l179.6,0" class="g4_397" />
<path d="M423.7,531l177.9,0" class="g4_397" />
<path d="M601.6,531l135.2,0" class="g4_397" />
<path d="M736.8,531l66.2,0" class="g4_397" />
<path d="M803,531l63.3,0" class="g4_397" />
<path d="M55,573.8l189.1,0" class="g4_397" />
<path d="M244.1,573.8l179.6,0" class="g4_397" />
<path d="M423.7,573.8l177.9,0" class="g4_397" />
<path d="M601.6,573.8l135.2,0" class="g4_397" />
<path d="M736.8,573.8l66.2,0" class="g4_397" />
<path d="M803,573.8l63.3,0" class="g4_397" />
<path d="M55,616.5l189.1,0" class="g4_397" />
<path d="M244.1,616.5l179.6,0" class="g4_397" />
<path d="M423.7,616.5l177.9,0" class="g4_397" />
<path d="M601.6,616.5l135.2,0" class="g4_397" />
<path d="M736.8,616.5l66.2,0" class="g4_397" />
<path d="M803,616.5l63.3,0" class="g4_397" />
<path d="M55,659.3l189.1,0" class="g4_397" />
<path d="M244.1,659.3l179.6,0" class="g4_397" />
<path d="M423.7,659.3l177.9,0" class="g4_397" />
<path d="M601.6,659.3l135.2,0" class="g4_397" />
<path d="M736.8,659.3l66.2,0" class="g4_397" />
<path d="M803,659.3l63.3,0" class="g4_397" />
<path d="M55,704.7l189.1,0" class="g4_397" />
<path d="M244.1,704.7l179.6,0" class="g4_397" />
<path d="M423.7,704.7l177.9,0" class="g4_397" />
<path d="M601.6,704.7l135.2,0" class="g4_397" />
<path d="M736.8,704.7l66.2,0" class="g4_397" />
<path d="M803,704.7l63.3,0" class="g4_397" />
<path d="M55,750l189.1,0" class="g4_397" />
<path d="M244.1,750l179.6,0" class="g4_397" />
<path d="M423.7,750l177.9,0" class="g4_397" />
<path d="M601.6,750l135.2,0" class="g4_397" />
<path d="M736.8,750l66.2,0" class="g4_397" />
<path d="M803,750l63.3,0" class="g4_397" />
<path d="M55,795.4l189.1,0" class="g4_397" />
<path d="M244.1,795.4l179.6,0" class="g4_397" />
<path d="M423.7,795.4l177.9,0" class="g4_397" />
<path d="M601.6,795.4l135.2,0" class="g4_397" />
<path d="M736.8,795.4l66.2,0" class="g4_397" />
<path d="M803,795.4l63.3,0" class="g4_397" />
<path d="M55,840.8l189.1,0" class="g4_397" />
<path d="M244.1,840.8l179.6,0" class="g4_397" />
<path d="M423.7,840.8l177.9,0" class="g4_397" />
<path d="M601.6,840.8l135.2,0" class="g4_397" />
<path d="M736.8,840.8l66.2,0" class="g4_397" />
<path d="M803,840.8l63.3,0" class="g4_397" />
<path d="M55,886.1l189.1,0" class="g4_397" />
<path d="M244.1,886.1l179.6,0" class="g4_397" />
<path d="M423.7,886.1l177.9,0" class="g4_397" />
<path d="M601.6,886.1l135.2,0" class="g4_397" />
<path d="M736.8,886.1l66.2,0" class="g4_397" />
<path d="M803,886.1l63.3,0" class="g4_397" />
<path d="M55,928.9l189.1,0" class="g4_397" />
<path d="M244.1,928.9l179.6,0" class="g4_397" />
<path d="M423.7,928.9l177.9,0" class="g4_397" />
<path d="M601.6,928.9l135.2,0" class="g4_397" />
<path d="M736.8,928.9l66.2,0" class="g4_397" />
<path d="M803,928.9l63.3,0" class="g4_397" />
<path d="M55,971.7l189.1,0" class="g4_397" />
<path d="M244.1,971.7l179.6,0" class="g4_397" />
<path d="M423.7,971.7l177.9,0" class="g4_397" />
<path d="M601.6,971.7l135.2,0" class="g4_397" />
<path d="M736.8,971.7l66.2,0" class="g4_397" />
<path d="M803,971.7l63.3,0" class="g4_397" />
<path d="M55,1014.5l189.1,0" class="g4_397" />
<path d="M244.1,1014.5l179.6,0" class="g4_397" />
<path d="M423.7,1014.5l177.9,0" class="g4_397" />
<path d="M601.6,1014.5l135.2,0" class="g4_397" />
<path d="M736.8,1014.5l66.2,0" class="g4_397" />
<path d="M803,1014.5l63.3,0" class="g4_397" />
<path d="M55,1057.3l189.1,0" class="g4_397" />
<path d="M244.1,1057.3l179.6,0" class="g4_397" />
<path d="M423.7,1057.3l177.9,0" class="g4_397" />
<path d="M601.6,1057.3l135.2,0" class="g4_397" />
<path d="M736.8,1057.3l66.2,0" class="g4_397" />
<path d="M803,1057.3l63.3,0" class="g4_397" />
<path d="M55,1100l189.1,0" class="g4_397" />
<path d="M244.1,1100l179.6,0" class="g4_397" />
<path d="M423.7,1100l177.9,0" class="g4_397" />
<path d="M601.6,1100l135.2,0" class="g4_397" />
<path d="M736.8,1100l66.2,0" class="g4_397" />
<path d="M803,1100l63.3,0" class="g4_397" />
<path d="M55,1145.4l189.1,0" class="g4_397" />
<path d="M244.1,1145.4l179.6,0" class="g4_397" />
<path d="M423.7,1145.4l177.9,0" class="g4_397" />
<path d="M601.6,1145.4l135.2,0" class="g4_397" />
<path d="M736.8,1145.4l66.2,0" class="g4_397" />
<path d="M803,1145.4l63.3,0" class="g4_397" />
<path d="M55,101.1l189.1,0" class="g5_397" />
<path d="M244.1,101.1l179.6,0" class="g5_397" />
<path d="M423.7,101.1l177.9,0" class="g5_397" />
<path d="M601.6,101.1l135.2,0" class="g5_397" />
<path d="M736.8,101.1l66.2,0" class="g5_397" />
<path d="M803,101.1l63.3,0" class="g5_397" />
<text 
x="61" 
y="85" 
dx="0,0,0,0,0,0,0" 
class="s4_397"
>English</text>

<text 
x="250" 
y="85" 
dx="0,0,0,0,0,0,0,0,0,0" 
class="s4_397"
>Simplified</text>

<text 
x="429" 
y="85" 
dx="0,-1.2,-0.1,0,0,0,0,0,0,0,0" 
class="s4_397"
>Traditional</text>

<text 
x="607" 
y="85" 
dx="0,0,0,0,0,0" 
class="s4_397"
>Pinyin</text>

<text 
x="742" 
y="75" 
dx="0,0,0,0,0,0,-0.2,0" 
class="s4_397"
>Part of </text>

<text 
x="742" 
y="94" 
dx="0,0,0,0,0,0" 
class="s4_397"
>Speech</text>

<text 
x="809" 
y="85" 
dx="0,0,0,0,0,0" 
class="s4_397"
>Lesson</text>

<text 
x="61" 
y="130" 
dx="0,0,0,0,0,0,-0.2,0,0,0,0,0,0,0,0,0,-0.3,0,0,0,0,0,-0.4" 
class="s5_397"
>(day-to-day) life; live</text>

<text 
x="250" 
y="132" 
dx="0,0" 
class="s6_397"
>生活</text>

<text 
x="429" 
y="132" 
dx="0,0" 
class="s7_397"
>生活</text>

<text 
x="607" 
y="130" 
dx="0,0.2,0.2,0.2,0.2,0.2,0.2,0.2" 
class="s8_397"
>shēnghuó</text>

<text 
x="742" 
y="130" 
dx="0,0,0" 
class="s9_397"
>n/v</text>

<text 
x="809" 
y="130" 
dx="0" 
class="s10_397"
>1</text>

<text 
x="61" 
y="174" 
dx="0,0,0,0,0,0,0,0,0" 
class="s5_397"
>deal with</text>

<text 
x="250" 
y="176" 
dx="0,0,0" 
class="s6_397"
>打交道</text>

<text 
x="429" 
y="176" 
dx="0,0,0" 
class="s7_397"
>打交道</text>

<text 
x="607" 
y="173" 
dx="0,0.2,0.2,0.2,0.2,0.2,0.2,0.2,0.2,0.2" 
class="s8_397"
>dǎ jiāodào</text>

<text 
x="742" 
y="174" 
dx="0,-0.4" 
class="s9_397"
>vo</text>

<text 
x="809" 
y="174" 
dx="0" 
class="s10_397"
>5</text>

<text 
x="61" 
y="216" 
dx="0,0,0,0,0,0,0,0,0,0,0,0,0,0,0,0" 
class="s5_397"
>decide; decision</text>

<text 
x="250" 
y="218" 
dx="0,0" 
class="s6_397"
>决定</text>

<text 
x="429" 
y="218" 
dx="0,0" 
class="s7_397"
>決定</text>

<text 
x="607" 
y="216" 
dx="0,0.2,0.2,0.2,0.2,0.2,0.2" 
class="s8_397"
>juédìng</text>

<text 
x="742" 
y="217" 
dx="0,0,0" 
class="s9_397"
>v/n</text>

<text 
x="809" 
y="217" 
dx="0" 
class="s10_397"
>5</text>

<text 
x="61" 
y="259" 
dx="0,0,0,0,0,0,0,0,-0.2,-0.2,-0.3,0,0,0,0,0,0,0,0,0,0,0,0,0,0,0,0,0" 
class="s5_397"
>deep, profound, dark (color)</text>

<text 
x="250" 
y="261" 
dx="0" 
class="s6_397"
>深</text>

<text 
x="429" 
y="261" 
dx="0" 
class="s7_397"
>深</text>

<text 
x="607" 
y="259" 
dx="0,0.2,0.2,0.2" 
class="s8_397"
>shēn</text>

<text 
x="742" 
y="259" 
dx="0,0,0" 
class="s9_397"
>adj</text>

<text 
x="809" 
y="259" 
dx="0,0" 
class="s10_397"
>13</text>

<text 
x="61" 
y="302" 
dx="0,0,0,0,0,0,0,0,0,0" 
class="s5_397"
>dependable</text>

<text 
x="250" 
y="304" 
dx="0,0" 
class="s6_397"
>可靠</text>

<text 
x="429" 
y="304" 
dx="0,0" 
class="s7_397"
>可靠</text>

<text 
x="607" 
y="302" 
dx="0,0.2,0.2,0.2,0.2" 
class="s8_397"
>kěkào</text>

<text 
x="742" 
y="302" 
dx="0,0,0" 
class="s9_397"
>adj</text>

<text 
x="809" 
y="302" 
dx="0" 
class="s10_397"
>7</text>

<text 
x="61" 
y="345" 
dx="0,0,0,0,0,0,0,0,0,0,0,0,0,0,0,0,0,0,-0.2" 
class="s5_397"
>deposit, accumulate</text>

<text 
x="250" 
y="347" 
dx="0" 
class="s6_397"
>存</text>

<text 
x="429" 
y="347" 
dx="0" 
class="s7_397"
>存</text>

<text 
x="607" 
y="344" 
dx="0,0.2,0.2" 
class="s8_397"
>cún</text>

<text 
x="742" 
y="345" 
dx="0" 
class="s9_397"
>v</text>

<text 
x="809" 
y="345" 
dx="0" 
class="s10_397"
>8</text>

<text 
x="61" 
y="387" 
dx="0,0,0,0,0,0" 
class="s5_397"
>desert</text>

<text 
x="250" 
y="390" 
dx="0,0" 
class="s6_397"
>沙漠</text>

<text 
x="429" 
y="390" 
dx="0,0" 
class="s7_397"
>沙漠</text>

<text 
x="607" 
y="387" 
dx="0,0.2,0.2,0.2,0.2" 
class="s8_397"
>shāmò</text>

<text 
x="742" 
y="388" 
dx="0" 
class="s9_397"
>n</text>

<text 
x="809" 
y="388" 
dx="0,0" 
class="s10_397"
>10</text>

<text 
x="61" 
y="430" 
dx="0,0,0,0,0,0,0,0,0,0,0,0,0,0" 
class="s5_397"
>design; design</text>

<text 
x="250" 
y="432" 
dx="0,0" 
class="s6_397"
>设计</text>

<text 
x="429" 
y="432" 
dx="0,0" 
class="s7_397"
>設計</text>

<text 
x="607" 
y="430" 
dx="0,0.2,0.2,0.2,0.2" 
class="s8_397"
>shèjì</text>

<text 
x="742" 
y="431" 
dx="0,0,0" 
class="s9_397"
>v/n</text>

<text 
x="809" 
y="431" 
dx="0" 
class="s10_397"
>9</text>

<text 
x="61" 
y="473" 
dx="0,0,0,-0.4,0,0,0,0,0,0,0,0,-0.4,0,0,0,0,0,0,0,0" 
class="s5_397"
>develop; development </text>

<text 
x="250" 
y="475" 
dx="0,0" 
class="s6_397"
>发展</text>

<text 
x="429" 
y="475" 
dx="0,0" 
class="s7_397"
>發展</text>

<text 
x="607" 
y="473" 
dx="0,0.2,0.2,0.2,0.2,0.2" 
class="s8_397"
>fāzhǎn</text>

<text 
x="742" 
y="473" 
dx="0,0,0" 
class="s9_397"
>v/n</text>

<text 
x="809" 
y="473" 
dx="0,0" 
class="s10_397"
>18</text>

<text 
x="61" 
y="516" 
dx="0,0,0,-0.4,0,0,0,0,0,0,0,0,0,0,0,0,0,0,0,0,0,0" 
class="s5_397"
>developed, flourishing</text>

<text 
x="250" 
y="518" 
dx="0,0" 
class="s6_397"
>发达</text>

<text 
x="429" 
y="518" 
dx="0,0" 
class="s7_397"
>發達</text>

<text 
x="607" 
y="516" 
dx="0,0.2,0.2,0.2" 
class="s8_397"
>fādá</text>

<text 
x="742" 
y="516" 
dx="0,0,0" 
class="s9_397"
>adj</text>

<text 
x="809" 
y="516" 
dx="0,0" 
class="s10_397"
>18</text>

<text 
x="61" 
y="559" 
dx="0,0,0,0,0,0,0,-0.3,0,0,0,0,0,0,0,0,0,0,0,0" 
class="s5_397"
>diet, food and drink</text>

<text 
x="250" 
y="561" 
dx="0,0" 
class="s6_397"
>饮食</text>

<text 
x="429" 
y="561" 
dx="0,0" 
class="s7_397"
>飲食</text>

<text 
x="607" 
y="558" 
dx="0,0.2,0.2,0.2,0.2,0.2" 
class="s8_397"
>yǐnshí</text>

<text 
x="742" 
y="559" 
dx="0" 
class="s9_397"
>n</text>

<text 
x="809" 
y="559" 
dx="0,0" 
class="s10_397"
>13</text>

<text 
x="61" 
y="601" 
dx="0,0,0,0,-0.3,0,-0.2,0,0,0,0,0,0,0,0,0,0,0,0,0,0,0,0" 
class="s5_397"
>different, not the same</text>

<text 
x="250" 
y="603" 
dx="0,0" 
class="s6_397"
>不同</text>

<text 
x="429" 
y="603" 
dx="0,0" 
class="s7_397"
>不同</text>

<text 
x="607" 
y="601" 
dx="0,0.2,0.2,0.2,0.2,0.2,0.2" 
class="s8_397"
>bù tóng</text>

<text 
x="809" 
y="602" 
dx="0" 
class="s10_397"
>6</text>

<text 
x="61" 
y="644" 
dx="0,0,0,0,0,0,0" 
class="s5_397"
>discuss</text>

<text 
x="250" 
y="646" 
dx="0,0" 
class="s6_397"
>讨论</text>

<text 
x="429" 
y="646" 
dx="0,0" 
class="s7_397"
>討論</text>

<text 
x="607" 
y="644" 
dx="0,0.2,0.2,0.2,0.2,0.2" 
class="s8_397"
>tǎolùn</text>

<text 
x="742" 
y="644" 
dx="0" 
class="s9_397"
>v</text>

<text 
x="809" 
y="644" 
dx="0" 
class="s10_397"
>5</text>

<text 
x="61" 
y="678" 
dx="0,0,0,0,0,0,-0.3,0,0,0,0,0,0,0,0,0,0,0,0,0,0,0,0,0,0,0,0,0,0" 
class="s5_397"
>dislike, loathe; disgusting, </text>

<text 
x="61" 
y="698" 
dx="0,0,0,0,0,0,-0.2,0,0,0,0,0" 
class="s5_397"
>disagreeable</text>

<text 
x="250" 
y="690" 
dx="0,0" 
class="s6_397"
>讨厌</text>

<text 
x="429" 
y="690" 
dx="0,0" 
class="s7_397"
>討厭</text>

<text 
x="607" 
y="688" 
dx="0,0.2,0.2,0.2,0.2,0.2" 
class="s8_397"
>tǎoyàn</text>

<text 
x="742" 
y="689" 
dx="0,0,0,0,0" 
class="s9_397"
>v/adj</text>

<text 
x="809" 
y="689" 
dx="0,0" 
class="s10_397"
>15</text>

<text 
x="61" 
y="724" 
dx="0,0,0,0,0,0,0,-0.9,0,0,0,0,0,0,-0.3,0,0,0,0" 
class="s5_397"
>display, manifest; </text>

<text 
x="61" 
y="743" 
dx="0,0,0,0,-0.3,0,0,0,0,0,0,0,0,0,0,0,0,0,-0.3,0,0,0,0,0,0,0" 
class="s5_397"
>performance; manifestation</text>

<text 
x="250" 
y="736" 
dx="0,0" 
class="s6_397"
>表现</text>

<text 
x="429" 
y="736" 
dx="0,0" 
class="s7_397"
>表現</text>

<text 
x="607" 
y="733" 
dx="0,0.2,0.2,0.2,0.2,0.2,0.2,0.2" 
class="s8_397"
>biǎoxiàn</text>

<text 
x="742" 
y="734" 
dx="0,0,0" 
class="s9_397"
>v/n</text>

<text 
x="809" 
y="734" 
dx="0,0" 
class="s10_397"
>15</text>

<text 
x="61" 
y="769" 
dx="0,0,0,0,0,0,0,0,0,0,0,0,0,0,0,0,-0.3,0,0,0,0,-0.2,0,0,0,0" 
class="s5_397"
>distinguishing feature or </text>

<text 
x="61" 
y="789" 
dx="0,0,0,0,0,0,0,-0.9,0,0,0,0,0,0,0,0,-0.2,0,0,0,0,0,0" 
class="s5_397"
>quality, characteristic</text>

<text 
x="250" 
y="781" 
dx="0,0" 
class="s6_397"
>特色</text>

<text 
x="429" 
y="781" 
dx="0,0" 
class="s7_397"
>特色</text>

<text 
x="607" 
y="779" 
dx="0,0.2,0.2,0.2" 
class="s8_397"
>tèsè</text>

<text 
x="742" 
y="779" 
dx="0" 
class="s9_397"
>n</text>

<text 
x="809" 
y="779" 
dx="0,0" 
class="s10_397"
>12</text>

<text 
x="61" 
y="814" 
dx="0,0,-0.4,0,0,0,0,0,0,0,0,0,0,0,0,0,0" 
class="s5_397"
>do, carry on, be </text>

<text 
x="61" 
y="834" 
dx="0,0,0,0,0,-0.1,0,0,0,0" 
class="s5_397"
>engaged in</text>

<text 
x="250" 
y="826" 
dx="0" 
class="s6_397"
>搞</text>

<text 
x="429" 
y="826" 
dx="0" 
class="s7_397"
>搞</text>

<text 
x="607" 
y="824" 
dx="0,0.2,0.2" 
class="s8_397"
>gǎo</text>

<text 
x="742" 
y="825" 
dx="0" 
class="s9_397"
>v</text>

<text 
x="809" 
y="825" 
dx="0,0" 
class="s10_397"
>20</text>

<text 
x="61" 
y="860" 
dx="0,0,0,0,-0.2,0,0,0,-0.2,0,0,0,0,0,0,0,0,0,0,0" 
class="s5_397"
>doctorate (academic </text>

<text 
x="61" 
y="880" 
dx="0,0,0,0,-0.2,0,0,0,0,0,0,-1.1,0,0,0,0,0,0,0,0,0,0,0,0,0,0,0,0,0" 
class="s5_397"
>degree), Dr. (academic title)</text>

<text 
x="250" 
y="872" 
dx="0,0" 
class="s6_397"
>博士</text>

<text 
x="429" 
y="872" 
dx="0,0" 
class="s7_397"
>博士</text>

<text 
x="607" 
y="869" 
dx="0,0.2,0.2,0.2,0.2" 
class="s8_397"
>bóshì</text>

<text 
x="742" 
y="870" 
dx="0" 
class="s9_397"
>n</text>

<text 
x="809" 
y="870" 
dx="0" 
class="s10_397"
>9</text>

<text 
x="61" 
y="914" 
dx="0,0,0,0" 
class="s5_397"
>door</text>

<text 
x="250" 
y="916" 
dx="0" 
class="s6_397"
>门</text>

<text 
x="429" 
y="916" 
dx="0" 
class="s7_397"
>門</text>

<text 
x="607" 
y="914" 
dx="0,0.2,0.2" 
class="s8_397"
>mén</text>

<text 
x="742" 
y="914" 
dx="0" 
class="s9_397"
>n</text>

<text 
x="809" 
y="914" 
dx="0" 
class="s10_397"
>2</text>

<text 
x="61" 
y="956" 
dx="0,0,0,0,0,0,0,-0.9,0,0,0,0,0,0,0,0,0" 
class="s5_397"
>doorway, entrance</text>

<text 
x="250" 
y="959" 
dx="0,0" 
class="s6_397"
>门口</text>

<text 
x="429" 
y="959" 
dx="0,0" 
class="s7_397"
>門口</text>

<text 
x="607" 
y="956" 
dx="0,0.2,0.2,0.2,0.2,0.2" 
class="s8_397"
>ménkǒu</text>

<text 
x="742" 
y="957" 
dx="0" 
class="s9_397"
>n</text>

<text 
x="809" 
y="957" 
dx="0" 
class="s10_397"
>3</text>

<text 
x="61" 
y="999" 
dx="0,0,0,0,0,0,0,0" 
class="s5_397"
>download</text>

<text 
x="250" 
y="1001" 
dx="0,0" 
class="s6_397"
>下载</text>

<text 
x="429" 
y="1001" 
dx="0,0" 
class="s7_397"
>下載</text>

<text 
x="607" 
y="999" 
dx="0,0.2,0.2,0.2,0.2,0.2" 
class="s8_397"
>xiàzài</text>

<text 
x="742" 
y="1000" 
dx="0" 
class="s9_397"
>v</text>

<text 
x="809" 
y="1000" 
dx="0" 
class="s10_397"
>7</text>

<text 
x="61" 
y="1042" 
dx="0,0,0,0,-0.1,0,0,0,0,0,0,0,0,-1,0,0,0,0,0,0" 
class="s5_397"
>Dragon Boat Festival</text>

<text 
x="250" 
y="1044" 
dx="0,0,0" 
class="s6_397"
>端午节</text>

<text 
x="429" 
y="1044" 
dx="0,0,0" 
class="s7_397"
>端午節</text>

<text 
x="607" 
y="1042" 
dx="0,0.2,0.2,0.2,0.2,0.2,0.2,0.2,0.2" 
class="s8_397"
>Duānwǔjié</text>

<text 
x="742" 
y="1042" 
dx="0,0" 
class="s9_397"
>pn</text>

<text 
x="809" 
y="1042" 
dx="0,0" 
class="s10_397"
>11</text>

<text 
x="61" 
y="1085" 
dx="0,0,0,0,-1,0,0,0,0,0,0" 
class="s5_397"
>draw, paint</text>

<text 
x="250" 
y="1087" 
dx="0,0,0" 
class="s6_397"
>画画儿</text>

<text 
x="429" 
y="1087" 
dx="0,0,0" 
class="s7_397"
>畫畫兒</text>

<text 
x="607" 
y="1085" 
dx="0,0.2,0.2,0.2,0.2,0.2,0.2,0.2" 
class="s8_397"
>huà huàr</text>

<text 
x="742" 
y="1085" 
dx="0,-0.4" 
class="s9_397"
>vo</text>

<text 
x="809" 
y="1085" 
dx="0" 
class="s10_397"
>9</text>

<text 
x="61" 
y="1119" 
dx="0,0,0,0,0,0,0,0,0,-0.2,0,0,0,0" 
class="s5_397"
>drink a toast </text>

<text 
x="61" 
y="1139" 
dx="0,0,0,0,0,0,0,0,0,0,0,0,0,0,0,0,0,0" 
class="s5_397"
>(lit. dry the cup)</text>

<text 
x="250" 
y="1131" 
dx="0,0" 
class="s6_397"
>干杯</text>

<text 
x="429" 
y="1131" 
dx="0,0" 
class="s7_397"
>乾杯</text>

<text 
x="607" 
y="1129" 
dx="0,0.2,0.2,0.2,0.2,0.2,0.2" 
class="s8_397"
>gān bēi</text>

<text 
x="742" 
y="1129" 
dx="0,-0.4" 
class="s9_397"
>vo</text>

<text 
x="809" 
y="1129" 
dx="0,0" 
class="s10_397"
>11</text>



<!-- Any embedded fonts defined here -->
<style type="text/css" ><![CDATA[

@font-face {
	font-family: LibreFranklin-SemiBold_di3;
	src: url("fonts/LibreFranklin-SemiBold_di3.woff") format("woff");
}

@font-face {
	font-family: GentiumBookBasic-Italic_chu;
	src: url("fonts/GentiumBookBasic-Italic_chu.woff") format("woff");
}

@font-face {
	font-family: LibreFranklin-Light_dib;
	src: url("fonts/LibreFranklin-Light_dib.woff") format("woff");
}

@font-face {
	font-family: LibreFranklin-SemiBold_dig;
	src: url("fonts/LibreFranklin-SemiBold_dig.woff") format("woff");
}

@font-face {
	font-family: STKaiTi-TC-Regular_cev;
	src: url("fonts/STKaiTi-TC-Regular_cev.woff") format("woff");
}

@font-face {
	font-family: LibreFranklin-Regular_di7;
	src: url("fonts/LibreFranklin-Regular_di7.woff") format("woff");
}

@font-face {
	font-family: LibreFranklin-Medium_dhv;
	src: url("fonts/LibreFranklin-Medium_dhv.woff") format("woff");
}

@font-face {
	font-family: STKaiti-SC-Regular_cf1;
	src: url("fonts/STKaiti-SC-Regular_cf1.woff") format("woff");
}

@font-face {
	font-family: LibreFranklin-SemiBold_cg0;
	src: url("fonts/LibreFranklin-SemiBold_cg0.woff") format("woff");
}

]]></style>

</svg>
