<?xml version="1.0" encoding="UTF-8" standalone="no"?>
<!DOCTYPE svg PUBLIC "-//W3C//DTD SVG 1.1//EN"
"http://www.w3.org/Graphics/SVG/1.1/DTD/svg11.dtd">


<!-- Page 127 -->
<svg x="0" y="0" width="921" height="1196" viewBox="0 0 921 1196" version="1.1" xmlns="http://www.w3.org/2000/svg" xmlns:xlink="http://www.w3.org/1999/xlink"
style="display: block;margin-left: auto;margin-right: auto;">
<defs>

<style type="text/css"><![CDATA[

.g1_127{
fill: none;
stroke: #007598;
stroke-width: 2.2916667;
stroke-linecap: butt;
stroke-linejoin: miter;
}
.g2_127{
fill: none;
stroke: #007598;
stroke-width: 1.5277778;
stroke-linecap: butt;
stroke-linejoin: miter;
stroke-miterlimit: 4;
}
.g3_127{
fill: none;
stroke: #007598;
stroke-width: 0.5102778;
stroke-linecap: butt;
stroke-linejoin: miter;
stroke-miterlimit: 4;
}
.g4_127{
fill: none;
stroke: #C6EAFA;
stroke-width: 1.5277778;
stroke-linecap: butt;
stroke-linejoin: miter;
stroke-miterlimit: 4;
}
.g5_127{
fill: #DAEFEB;
}
.g6_127{
fill: none;
stroke: #C6EAFA;
stroke-width: 0.7638889;
stroke-linecap: butt;
stroke-linejoin: miter;
stroke-miterlimit: 4;
}
.g7_127{
fill: #CAE7E2;
}
.g8_127{
fill: none;
stroke: #00A3AF;
stroke-width: 0.7638889;
stroke-linecap: butt;
stroke-linejoin: miter;
stroke-miterlimit: 4;
}
.g9_127{
fill: #00A3AF;
}
.g10_127{
fill: #007598;
stroke: #B2B3B7;
stroke-width: 1.5277778;
stroke-linecap: butt;
stroke-linejoin: miter;
stroke-miterlimit: 4;
}

.s1_127{
font-size: 18.33px;
font-family: LibreFranklin-ExtraBold_cs2;
fill: #007D9F;
}
.s2_127{
font-size: 27.50px;
font-family: STKaiti-SC-Bold_cdn;
fill: #3F3F40;
}
.s3_127{
font-size: 14.51px;
font-family: LibreFranklin-Regular_csl;
fill: #3F3F40;
}
.s4_127{
font-size: 23.68px;
font-family: STKaiti-SC-Regular_cf1;
fill: #3F3F40;
}
.s5_127{
font-size: 15.28px;
font-family: LibreFranklin-ExtraBold_cs2;
fill: #3F3F40;
}
.s6_127{
font-size: 25.97px;
font-family: STKaiti-SC-Bold_cdn;
fill: #007D9F;
}
.s7_127{
font-size: 25.97px;
font-family: STKaiti-SC-Regular_cf1;
fill: #3F3F40;
}
.s8_127{
font-size: 25.97px;
font-family: STKaiTi-TC-Bold_cdt;
fill: #007D9F;
}
.s9_127{
font-size: 25.97px;
font-family: STKaiTi-TC-Regular_cev;
fill: #3F3F40;
}
.s10_127{
font-size: 14.51px;
font-family: LibreFranklin-Medium_cs0;
fill: #231F20;
}
.s11_127{
font-size: 36.67px;
font-family: STKaiti-SC-Bold_cdn;
fill: #F7931D;
}
.s12_127{
font-size: 25.97px;
font-family: STKaiti-SC-Regular_cf1;
fill: #231F20;
}
.s13_127{
font-size: 25.97px;
font-family: STKaiti-SC-Bold_cdn;
fill: #00AEEF;
}
.s14_127{
font-size: 36.67px;
font-family: STKaiTi-TC-Bold_cdt;
fill: #F7931D;
}
.s15_127{
font-size: 25.97px;
font-family: STKaiTi-TC-Regular_cev;
fill: #231F20;
}
.s16_127{
font-size: 25.97px;
font-family: STKaiTi-TC-Bold_cdt;
fill: #00AEEF;
}
.s17_127{
font-size: 13.75px;
font-family: LibreFranklin-Medium_cs0;
fill: #231F20;
}
.s18_127{
font-size: 13.75px;
font-family: LibreFranklin-SemiBold_cg0;
fill: #FFFFFF;
}

]]></style>

</defs>
<path d="M0,0
L0,1196
L921,1196
L921,0 Z " 
fill="#FFFFFF" stroke="none" />
<path d="M124.2,90.6l12.2,0" class="g1_127" />
<text 
x="124" 
y="84" 
dx="0,0" 
class="s1_127"
>4 </text>

<text 
x="415" 
y="89" 
dx="0,0,0,0,0" 
class="s2_127"
>即使…也…</text>

<text 
x="162" 
y="151" 
dx="0,0,0,0,0,0,0,0,0,0,0,0,0,0,0,-0.2,0,0" 
class="s3_127"
>In the structure “</text>

<text 
x="275" 
y="152" 
dx="0,0,0,0,0" 
class="s4_127"
>即使…也…</text>

<text 
x="393" 
y="151" 
dx="0,0,0" 
class="s3_127"
>,” </text>

<text 
x="405" 
y="152" 
dx="0,0,0" 
class="s4_127"
>即使…</text>

<text 
x="479" 
y="151" 
dx="0,0,0,0,0,0,0,0,0,0,-0.2,0,0,0,0,0,0,0,0,0,0,-0.3,-0.2,0,-0.2,0,0,0,0,0,0,0,0,0,0,0,-0.4,0,0,0,0" 
class="s3_127"
>usually presents an extreme scenario, and</text>

<text 
x="162" 
y="180" 
dx="0,0" 
class="s4_127"
>也…</text>

<text 
x="212" 
y="178" 
dx="0,0,0,0,0,0,0,-0.2,0,0,0,0,0,0,0,-0.2,0,0,0,0,0,0,0,0,0,0,0,0,0,0,0,0,0,0,0,0,0,0,0,0,0,0,0,0,0,0,0,0,0,-0.2,0,0,0,0,0,0,0,0,-0.4,0,0,0,0,0,0,0,0,0,0,0,-0.2,0,0,0,0,0,0,0,0,0,0,0,0,0,0,0,0,0,0" 
class="s3_127"
>indicates the result or conclusion that will be reached even if the previously mentioned </text>

<text 
x="162" 
y="206" 
dx="0,0,0,0,-0.1,0,0,-0.1,0,0,0,0,0,0,0,0,0,0,0,0" 
class="s3_127"
>hypothetical occurs.</text>

<text 
x="174" 
y="262" 
dx="0,0" 
class="s5_127"
>A </text>

<text 
x="244" 
y="265" 
dx="0,0" 
class="s6_127"
>即使</text>

<text 
x="296" 
y="265" 
dx="0,0,0,0,0,0,0" 
class="s7_127"
>熬夜不睡觉，我</text>

<text 
x="478" 
y="265" 
dx="0" 
class="s6_127"
>也</text>

<text 
x="504" 
y="265" 
dx="0,0,0,0,0,0,0,0,0" 
class="s7_127"
>要把这篇文章写完。</text>

<text 
x="244" 
y="305" 
dx="0,0" 
class="s8_127"
>即使</text>

<text 
x="296" 
y="305" 
dx="0,0,0,0,0,0,0" 
class="s9_127"
>熬夜不睡覺，我</text>

<text 
x="478" 
y="305" 
dx="0" 
class="s8_127"
>也</text>

<text 
x="504" 
y="305" 
dx="0,0,0,0,0,0,0,0,0" 
class="s9_127"
>要把這篇文章寫完。</text>

<text 
x="250" 
y="339" 
dx="0,-0.9,-0.4,0,0,0,0,0,0,0,0,0,0,0,-0.4,0,0,-0.2,0,0,0,0,0,0,0,0,0,0,0,0,0,0,0,0,0,0,0,0,0,0,0,0,0,0,0,0,0,0,0,0,0,0,0,0,0,0,0,0,0,0,0,0,0,0,0,0,0,0,0,0,0,0,0,0" 
class="s3_127"
>Even if I [have to] stay up all night, I will finish writing this article.</text>

<text 
x="174" 
y="398" 
dx="0,0" 
class="s5_127"
>B </text>

<text 
x="244" 
y="400" 
dx="0,0,0" 
class="s7_127"
>我啊，</text>

<text 
x="322" 
y="400" 
dx="0,0" 
class="s6_127"
>即使</text>

<text 
x="374" 
y="400" 
dx="0,0,0,0,0,0,0,0" 
class="s7_127"
>不吃东西只喝水，</text>

<text 
x="582" 
y="400" 
dx="0" 
class="s6_127"
>也</text>

<text 
x="608" 
y="400" 
dx="0,0,0" 
class="s7_127"
>会胖。</text>

<text 
x="244" 
y="440" 
dx="0,0,0" 
class="s9_127"
>我啊，</text>

<text 
x="322" 
y="440" 
dx="0,0" 
class="s8_127"
>即使</text>

<text 
x="374" 
y="440" 
dx="0,0,0,0,0,0,0,0" 
class="s9_127"
>不吃東西只喝水，</text>

<text 
x="582" 
y="440" 
dx="0" 
class="s8_127"
>也</text>

<text 
x="608" 
y="440" 
dx="0,0,0" 
class="s9_127"
>會胖。</text>

<text 
x="250" 
y="474" 
dx="0,-1.1,0,0,0,0,0,0,0,0,-0.4,0,0,0,0,0,0,0,0,0,0,0,0,0,0,0,0,0,0,0,0,0,0,0,0,0,0,0,0,0,0,0,0,0,0,0,0,0,0,0,0,0,0,0,0,0,-0.2,0,-1.2,0,0,0,-1,0,0,0,0,0,0,0,0,0,0,0,0,0,0,0,0,0,0,0,0,0" 
class="s3_127"
>For me, even if I didn’t eat anything and just drank water, I’d still put on weight.</text>

<text 
x="174" 
y="533" 
dx="0,0" 
class="s5_127"
>C </text>

<text 
x="244" 
y="535" 
dx="0,0,0,0,0,0,0,0,0,0,0,0,0,0" 
class="s7_127"
>他的事业非常成功，但是太忙。</text>

<text 
x="608" 
y="535" 
dx="0,0" 
class="s6_127"
>即使</text>

<text 
x="660" 
y="535" 
dx="0,0,0,0,0,0" 
class="s7_127"
>是感恩节， </text>

<text 
x="244" 
y="569" 
dx="0" 
class="s6_127"
>也</text>

<text 
x="270" 
y="569" 
dx="0,0,0,0,0,0,0" 
class="s7_127"
>在办公室工作。</text>

<text 
x="244" 
y="609" 
dx="0,0,0,0,0,0,0,0,0,0,0,0,0,0" 
class="s9_127"
>他的事業非常成功，但是太忙。</text>

<text 
x="608" 
y="609" 
dx="0,0" 
class="s8_127"
>即使</text>

<text 
x="660" 
y="609" 
dx="0,0,0,0,0" 
class="s9_127"
>是感恩節，</text>

<text 
x="244" 
y="643" 
dx="0" 
class="s8_127"
>也</text>

<text 
x="270" 
y="643" 
dx="0,0,0,0,0,0,0" 
class="s9_127"
>在辦公室工作。</text>

<text 
x="250" 
y="676" 
dx="0,0,-0.3,-0.6,0,0,0,0,0,0,0,-0.4,0,0,0,0,0,0,0,0,0,0,0,0,0,0,0,0,0,0,0,0,0,0,0,0,-0.2,0,0,-1.2,0,0,0,0,0,0,0,0,0,0,0,0,-0.2,0,0,0,0,0,0,-1,0,0,0,0,0,0,0,0,0,-0.2,0,0,0,0,0,0,0,0,0,0,0,0,0,0,-0.2,0,0,0,0,0" 
class="s3_127"
>He's been very successful in his career, but he is too busy. He has to work in the office </text>

<text 
x="250" 
y="696" 
dx="0,0,-0.4,0,0,0,0,0,0,0,0,0,0,-0.2,0,0,0,0,0,0,0" 
class="s3_127"
>even on Thanksgiving.</text>

<path d="M151.1,56.3l0,53.4l0,0.8l0.7,0l676.9,0l0.8,0l0,-0.8l0,-53.4l0,-0.8l-0.8,0l-676.9,0l-0.7,0l0,0.8Z" class="g2_127" />
<path d="M153.1,108.5l674.4,0l0,-51l-674.4,0l0,51Z" class="g3_127" />
<path d="M169.7,239.6c-0.1,0,-7.6,0.1,-7.6,7.6l0,19.7c0,0.1,0.1,7.7,7.6,7.7l22.4,0c0.1,0,7.7,-0.1,7.7,-7.7l0,-19.7c0,0,-0.1,-7.6,-7.7,-7.6l-22.4,0Z" class="g2_127" />
<path d="M169.7,241.6c-0.6,0,-5.6,0.2,-5.6,5.6l0,19.7c0,0.6,0.2,5.6,5.6,5.6l22.4,0c0.6,0,5.6,-0.2,5.6,-5.6l0,-19.7c0,-0.5,-0.2,-5.6,-5.6,-5.6l-22.4,0Z" class="g3_127" />
<path d="M168.2,374c-0.1,0,-7.7,0.1,-7.7,7.6l0,19.7c0,0.1,0.1,7.7,7.7,7.7l22.4,0c0.1,0,7.6,-0.1,7.6,-7.7l0,-19.7c0,0,-0.1,-7.6,-7.6,-7.6l-22.4,0Z" class="g2_127" />
<path d="M168.2,376c-0.6,0,-5.6,0.2,-5.6,5.6l0,19.7c0,0.6,0.2,5.6,5.6,5.6l22.4,0c0.6,0,5.6,-0.2,5.6,-5.6l0,-19.7c0,-0.5,-0.2,-5.6,-5.6,-5.6l-22.4,0Z" class="g3_127" />
<path d="M168.2,509.9c-0.1,0,-7.7,0.1,-7.7,7.7l0,19.7c0,0.1,0.1,7.6,7.7,7.6l22.4,0c0.1,0,7.6,-0.1,7.6,-7.6l0,-19.7c0,-0.1,-0.1,-7.7,-7.6,-7.7l-22.4,0Z" class="g2_127" />
<path d="M168.2,512c-0.6,0,-5.6,0.2,-5.6,5.6l0,19.7c0,0.5,0.2,5.6,5.6,5.6l22.4,0c0.6,0,5.6,-0.2,5.6,-5.6l0,-19.7c0,-0.6,-0.2,-5.6,-5.6,-5.6l-22.4,0Z" class="g3_127" />
<path d="M76.2,1113.2l768.9,0" class="g4_127" />
<path d="M845.1,866.3l0,-37.6L826.7,810.3l-264.3,0l0,56.1Z" class="g5_127" />
<path d="M76.2,974.2l768.9,0" class="g6_127" />
<path d="M363.3,1124.5l194.6,0l0,-293.2l-194.6,0l0,293.2Z" class="g7_127" />
<text 
x="377" 
y="874" 
dx="0,0,0,0,0,0,0,0,0,0,0,0,0,-0.2,0,0,0,0,-0.1,0,0,0" 
class="s10_127"
>Using the word/phrase </text>

<text 
x="377" 
y="893" 
dx="0,0,0,0,0,-0.1,0,0,-0.2,0,0,0,0,0,0,0,0,0,0,0,0,0,0,0,0,0,-0.2,0" 
class="s10_127"
>in orange as a clue, try to </text>

<text 
x="377" 
y="911" 
dx="0,0,0,0,0,-0.2,0,0,0,0,0,0,0,0,0,0,0,0,0,0,0,0,0" 
class="s10_127"
>figure out the meaning </text>

<text 
x="377" 
y="929" 
dx="0,-0.2,0,0,0,0,0,0,0,0,-0.2,0,0,0,0,0,-0.1,0,0,0,0,0,0,0" 
class="s10_127"
>of the words/phrases in </text>

<text 
x="377" 
y="948" 
dx="0,0,0,0,0,0,0,0,0,0,0,0,0,0,0,0,0,0,0,0,0,0,0,0,0,0,0" 
class="s10_127"
>blue; consult a dictionary </text>

<text 
x="377" 
y="966" 
dx="0,0,0,0,0,0,0,0,0,0,0,0,-1,0,0,0,0,0,0,0,0,0,0" 
class="s10_127"
>if necessary. Consider </text>

<text 
x="377" 
y="984" 
dx="0,0,0,0,0,0,0,0,0,0,0,-0.2,0,-0.1,0,0,0,0,0,0" 
class="s10_127"
>how the literal and </text>

<text 
x="377" 
y="1003" 
dx="0,-0.3,-0.3,-0.2,0,0,0,0,0,0,0,0,0,0,0,0,0,0,-0.2,0" 
class="s10_127"
>extended senses are </text>

<text 
x="377" 
y="1021" 
dx="0,-0.2,0,0,0,-0.2,0,0,0,0,0,0,0,0,0,0,0,0,0,0,0" 
class="s10_127"
>related in each case.</text>

<path d="M359.4,866.6l0,-56.3l-264.9,0L76.2,828.7l0,38.1Z" class="g5_127" />
<text 
x="179" 
y="848" 
dx="0,0" 
class="s11_127"
>退休</text>

<text 
x="76" 
y="900" 
dx="0,0,0,0,0,0,0,0,0,0" 
class="s12_127"
>我两个星期没有练习说</text>

<text 
x="76" 
y="928" 
dx="0,0,0,0,0,0,0,0,0,0" 
class="s12_127"
>中文了，老师说我的中</text>

<text 
x="76" 
y="955" 
dx="0" 
class="s12_127"
>文</text>

<text 
x="102" 
y="955" 
dx="0,0" 
class="s13_127"
>退步</text>

<text 
x="154" 
y="955" 
dx="0,0" 
class="s12_127"
>了。</text>

<text 
x="76" 
y="1013" 
dx="0,0,0,0,0,0,0,0,0,0" 
class="s12_127"
>小李家只有她和爸爸两</text>

<text 
x="76" 
y="1041" 
dx="0,0,0,0,0,0,0,0,0,0" 
class="s12_127"
>个人。最近她爸爸病得</text>

<text 
x="76" 
y="1068" 
dx="0,0,0,0,0,0" 
class="s12_127"
>很厉害，她想</text>

<text 
x="232" 
y="1068" 
dx="0,0" 
class="s13_127"
>退学</text>

<text 
x="283" 
y="1068" 
dx="0,0" 
class="s12_127"
>回家</text>

<text 
x="76" 
y="1096" 
dx="0,0,0,0,0,0" 
class="s12_127"
>去照顾爸爸。</text>

<text 
x="665" 
y="848" 
dx="0,0" 
class="s14_127"
>退休</text>

<text 
x="567" 
y="900" 
dx="0,0,0,0,0,0,0,0,0,0" 
class="s15_127"
>我兩個星期沒有練習說</text>

<text 
x="567" 
y="928" 
dx="0,0,0,0,0,0,0,0,0,0" 
class="s15_127"
>中文了，老師說我的中</text>

<text 
x="567" 
y="955" 
dx="0" 
class="s15_127"
>文</text>

<text 
x="593" 
y="955" 
dx="0,0" 
class="s16_127"
>退步</text>

<text 
x="645" 
y="955" 
dx="0,0" 
class="s15_127"
>了。</text>

<text 
x="567" 
y="1013" 
dx="0,0,0,0,0,0,0,0,0,0" 
class="s15_127"
>小李家只有她和爸爸兩</text>

<text 
x="567" 
y="1041" 
dx="0,0,0,0,0,0,0,0,0,0" 
class="s15_127"
>個人。最近她爸爸病得</text>

<text 
x="567" 
y="1068" 
dx="0,0,0,0,0,0" 
class="s15_127"
>很厲害，她想</text>

<text 
x="723" 
y="1068" 
dx="0,0" 
class="s16_127"
>退學</text>

<text 
x="775" 
y="1068" 
dx="0,0" 
class="s15_127"
>回家</text>

<text 
x="567" 
y="1096" 
dx="0,0,0,0,0,0" 
class="s15_127"
>去照顧爸爸。</text>

<path d="M394.5,784.7l-89.8,0l-15.8,10.6l0,15" class="g8_127" />
<path d="M533.8,784.7l99.5,0L650,795.3l0,15" class="g8_127" />
<path d="M494.7,768.4c-1.5,2.9,-2.7,5.4,-5.3,10.9l-19.6,43.1l-0.8,0L457.8,797.8l-11.3,24.6l-0.9,0L425.4,779c-1.9,-4.2,-3.6,-7.6,-5.5,-10.6l7.8,0c0.8,2.5,2.2,5.6,3.8,9.2l15.2,34.1L455.2,792l-5.9,-12.9c-2.5,-5.5,-3.6,-7.7,-5.5,-10.7l7.2,0c0.8,2.5,1.7,4.6,4.2,10.1l3,6.6l2.9,-6.8c2.2,-5,3.2,-7.5,4,-9.9l6.6,0c-1,1.6,-2.7,5.2,-5.4,10.8l-5.5,12l8.8,20.2l14.1,-32.9c2.6,-5.7,3.6,-8.3,4.2,-10.1Z" class="g9_127" />
<path d="M496,799.9c6.3,0,11.2,5,11.2,11.2c0,6.2,-4.9,11.2,-11.2,11.2c-6.3,0,-11.2,-5,-11.2,-11.2c0,-6.2,4.9,-11.2,11.2,-11.2m0,20.2c4.8,0,8.6,-4,8.6,-9c0,-5,-3.8,-9,-8.6,-9c-4.7,0,-8.6,4,-8.6,9c0,5,3.9,9,8.6,9Z" class="g9_127" />
<path d="M511.8,816.5c0,2.1,0,4.5,0.1,5.5l-2.8,0c0.1,-1,0.1,-3.4,0.1,-5.5l0,-10.6c0,-2.1,0,-4.7,-0.1,-5.6l4.5,0c4.9,0,7.5,2.6,7.5,6.3c0,3.4,-2.1,5.2,-4.3,5.9c2.3,2.8,5,7.1,7.5,9.5l-3.5,0c-1.8,-2.3,-4.4,-5.9,-6.2,-9.1c-0.4,0.1,-0.7,0.1,-1.1,0.1l-1.7,0Zm0,-5.4l2.1,0c2.6,0,4.6,-1.8,4.6,-4.4c0,-2.3,-1.7,-4.4,-5,-4.4l-1.7,0Z" class="g9_127" />
<path d="M525,822c0.1,-1,0.2,-3.6,0.2,-5.7l0,-10.4c0,-2.1,-0.1,-4.7,-0.2,-5.6l6.1,0c6,0,10.9,4.8,10.9,10.8c0,6,-4.9,10.9,-10.9,10.9Zm2.8,-2.2l3.2,0c4.7,0,8.4,-4,8.4,-8.7c0,-4.7,-3.7,-8.7,-8.4,-8.7l-3.2,0Z" class="g9_127" />
<path d="M553.3,816.3c0,3.6,-2.6,6.1,-6.5,6.1c-2.1,0,-3.3,-0.5,-5,-0.8l0,-3.6c0.8,1.4,2.9,2.4,5,2.4c2.4,0,3.8,-1.6,3.8,-3.8c0,-4.7,-8.1,-4.7,-8.1,-10.9c0,-3.7,2.6,-5.9,6.3,-5.9c1.6,0,2.6,0.5,4,0.6l0,3.4c-0.6,-1.3,-2.2,-2,-4,-2c-2.1,0,-3.7,1.3,-3.7,3.5c0,4.6,8.2,4.7,8.2,11Z" class="g9_127" />
<path d="M495.9,789.4l2.2,0c0.2,0,0.4,-0.1,0.4,-0.3l1.8,-5.1c0.1,-0.1,0.2,-0.2,0.4,-0.2l7.7,0c0.1,0,0.2,0,0.3,0.1c0,0,0,0.1,0.1,0.1l1.8,5c0,0.3,0.2,0.4,0.4,0.4l2.7,0c0.2,0,0.3,-0.2,0.3,-0.4c0,-0.1,0,-0.2,0,-0.2l-7.1,-19.7c-0.1,-0.3,-0.4,-0.5,-0.7,-0.5l-2.8,0c-0.2,0,-0.3,0,-0.4,0.1c-0.1,0.1,-0.2,0.2,-0.2,0.4l-7.2,19.7l0,0.2c0,0.3,0.1,0.4,0.3,0.4m5.6,-8.2c-0.2,0,-0.3,-0.1,-0.3,-0.2l0.1,-0.2l3.1,-8.4c0,-0.1,0.1,-0.2,0.2,-0.2c0,0,0.1,0.1,0.2,0.2l3,8.4c0,0.1,0,0.2,0,0.3c0,0,-0.1,0.1,-0.2,0.1Zm28.7,-12.6l-2.3,0c-0.2,0,-0.3,0,-0.4,0.1c-0.1,0,-0.1,0.1,-0.2,0.3l-4.9,8.5c0,0.1,-0.1,0.2,-0.2,0.2c-0.1,0,-0.2,-0.1,-0.3,-0.3L517,769c-0.1,-0.1,-0.2,-0.3,-0.3,-0.3c-0.1,-0.1,-0.2,-0.1,-0.4,-0.1l-2.7,0c-0.2,0,-0.4,0.1,-0.4,0.3c0,0.1,0,0.1,0.1,0.2l6.7,11.3c0.1,0.1,0.2,0.3,0.2,0.4c0,0.1,0.1,0.2,0.1,0.4l0,7.7c0,0.3,0.1,0.5,0.4,0.5l2.3,0c0.2,0,0.4,-0.1,0.5,-0.2c0.1,0,0.1,-0.2,0.1,-0.4l0,-7.6c0,-0.4,0,-0.6,0.1,-0.7c0,-0.2,0,-0.3,0.1,-0.4l6.6,-11c0.1,-0.2,0.1,-0.3,0.1,-0.4c-0.1,0,-0.2,-0.1,-0.3,-0.1Z" class="g9_127" />
<path d="M400,789.4l1.5,0c0.2,0,0.3,-0.1,0.3,-0.2l1.3,-3.6c0,-0.1,0.1,-0.1,0.2,-0.1l5.4,0c0.1,0,0.1,0,0.2,0c0,0.1,0,0.1,0,0.2l1.3,3.4c0,0.2,0.2,0.3,0.3,0.3l1.9,0c0.1,0,0.2,-0.1,0.2,-0.3c0,-0.1,0,-0.1,0,-0.1l-5,-13.7c0,-0.3,-0.2,-0.4,-0.4,-0.4l-2,0c-0.1,0,-0.2,0.1,-0.3,0.1c0,0,-0.1,0.1,-0.1,0.2l-5,13.8l0,0.1c0,0.2,0,0.3,0.2,0.3m3.9,-5.7c-0.1,0,-0.2,-0.1,-0.2,-0.2l0,-0.1l2.2,-5.8c0,-0.1,0.1,-0.2,0.1,-0.2c0.1,0,0.1,0.1,0.2,0.2l2.1,5.8c0,0.1,0,0.2,0,0.2c0,0,-0.1,0.1,-0.2,0.1Z" class="g9_127" />
<path d="M389.2,805.4l-1.2,0c-0.2,0,-0.3,0,-0.4,0.2l-3.8,13.5c0,0.1,-0.1,0.2,-0.1,0.2c0,0,-0.1,-0.1,-0.1,-0.2l-3.8,-13.5c0,-0.1,-0.1,-0.1,-0.1,-0.2c-0.1,0,-0.2,0,-0.3,0l-1.3,0c-0.2,0,-0.4,0,-0.4,0.2l-3.9,13.5c0,0.1,0,0.2,-0.1,0.2c0,0,-0.1,-0.1,-0.1,-0.3l-3.8,-13.4c0,-0.1,-0.2,-0.2,-0.4,-0.2l-1.5,0c-0.2,0,-0.3,0.1,-0.3,0.3l0,0.1l4.7,16.3c0.1,0.2,0.2,0.3,0.5,0.3l1.5,0c0.1,0,0.2,0,0.3,0c0.1,-0.1,0.1,-0.2,0.2,-0.3l3.7,-13c0,-0.2,0.1,-0.2,0.1,0l3.7,13c0.1,0.2,0.3,0.3,0.6,0.3l1.4,0c0.1,0,0.2,0,0.3,0c0.1,-0.1,0.1,-0.2,0.2,-0.3l4.7,-16.3c0,-0.1,0,-0.2,0,-0.3c-0.1,-0.1,-0.2,-0.1,-0.3,-0.1m3.9,0c-0.2,0,-0.3,0.1,-0.3,0.3l0,16.4c0,0.1,0,0.2,0.1,0.3c0,0,0.1,0,0.2,0l1.5,0c0.1,0,0.2,0,0.3,0c0.1,-0.1,0.1,-0.2,0.1,-0.4l0,-16.3c0,-0.2,-0.1,-0.3,-0.3,-0.3Zm5.1,1.4c0,0.1,0,0.2,0.1,0.2c0,0,0.1,0,0.2,0l5,0c0.1,0,0.1,0.1,0.2,0.1c0,0,0,0.1,0,0.2l0,14.8c0,0.2,0.1,0.3,0.3,0.3l1.7,0c0.1,0,0.2,-0.1,0.2,-0.3l0,-14.8c0,-0.1,0,-0.2,0.1,-0.2c0,0,0.1,-0.1,0.2,-0.1l4.6,0c0.1,0,0.2,0,0.3,0c0,0,0,-0.1,0,-0.2l0,-1.2c0,-0.2,-0.1,-0.2,-0.3,-0.2l-12.3,0c-0.2,0,-0.3,0,-0.3,0.2Zm26.1,7.7c0.2,0,0.2,0,0.2,0.2l0,7.4c0,0.1,0.1,0.2,0.1,0.3c0.1,0,0.2,0,0.3,0l1.5,0c0.2,0,0.3,-0.1,0.3,-0.3l0,-16.4c0,-0.1,0,-0.2,0,-0.3c-0.1,0,-0.1,0,-0.2,0l-1.7,0c-0.2,0,-0.3,0.1,-0.3,0.2l0,6.8c0,0.2,0,0.3,-0.2,0.3l-7.5,0c-0.1,0,-0.2,0,-0.2,-0.1c-0.1,0,-0.1,-0.1,-0.1,-0.2l0,-6.7c0,-0.2,-0.1,-0.3,-0.3,-0.3l-1.6,0c-0.2,0,-0.3,0.1,-0.3,0.3l0,16.4c0,0.1,0,0.2,0.1,0.3c0,0,0.1,0,0.2,0l1.5,0c0.2,0,0.3,0,0.3,0c0.1,-0.1,0.1,-0.2,0.1,-0.3l0,-7.5c0,0,0,-0.1,0.1,-0.1l0.1,0Z" class="g9_127" />
<path d="M-12.9,1140.6l58,0l0,-1153.5l-58,0l0,1153.5Z" class="g10_127" />
<text 
x="20" 
y="1166" 
dx="0,1.2,1.2,0" 
class="s17_127"
>104 </text>

<text 
transform="matrix(0, -1, 1, 0, 34, 1129)"
dx="0,1.2,1.2,1,1.2,1.2,1.2,1.2,1,1.2,1.2,1.2,1.2,1.2,1.2,1.2,1.2,1.2,1.2,1.2,1.2" 
class="s18_127"
>Integrated Chinese 4 </text>

<text 
transform="matrix(0, -1, 1, 0, 34, 955)"
dx="0,1.2" 
class="s18_127"
>| </text>

<text 
transform="matrix(0, -1, 1, 0, 34, 938)"
dx="0,-0.3,0.9,0.9,1.2,1.2,1.2,1.2" 
class="s18_127"
>Textbook</text>

<text 
transform="matrix(0, -1, 1, 0, 34, 1129)"
dx="0,1.2,1.2,1,1.2,1.2,1.2,1.2,1,1.2,1.2,1.2,1.2,1.2,1.2,1.2,1.2,1.2,1.2,1.2,1.2" 
class="s18_127"
>Integrated Chinese 4 </text>

<text 
transform="matrix(0, -1, 1, 0, 34, 955)"
dx="0,1.2" 
class="s18_127"
>| </text>

<text 
transform="matrix(0, -1, 1, 0, 34, 938)"
dx="0,-0.3,0.9,0.9,1.2,1.2,1.2,1.2" 
class="s18_127"
>Textbook</text>

<text 
transform="matrix(0, -1, 1, 0, 34, 1129)"
dx="0,1.2,1.2,1,1.2,1.2,1.2,1.2,1,1.2,1.2,1.2,1.2,1.2,1.2,1.2,1.2,1.2,1.2,1.2,1.2" 
class="s18_127"
>Integrated Chinese 4 </text>

<text 
transform="matrix(0, -1, 1, 0, 34, 955)"
dx="0,1.2" 
class="s18_127"
>| </text>

<text 
transform="matrix(0, -1, 1, 0, 34, 938)"
dx="0,-0.3,0.9,0.9,1.2,1.2,1.2,1.2" 
class="s18_127"
>Textbook</text>



<!-- Any embedded fonts defined here -->
<style type="text/css" ><![CDATA[

@font-face {
	font-family: STKaiti-SC-Bold_cdn;
	src: url("fonts/STKaiti-SC-Bold_cdn.woff") format("woff");
}

@font-face {
	font-family: LibreFranklin-Medium_cs0;
	src: url("fonts/LibreFranklin-Medium_cs0.woff") format("woff");
}

@font-face {
	font-family: STKaiTi-TC-Regular_cev;
	src: url("fonts/STKaiTi-TC-Regular_cev.woff") format("woff");
}

@font-face {
	font-family: STKaiTi-TC-Bold_cdt;
	src: url("fonts/STKaiTi-TC-Bold_cdt.woff") format("woff");
}

@font-face {
	font-family: LibreFranklin-ExtraBold_cs2;
	src: url("fonts/LibreFranklin-ExtraBold_cs2.woff") format("woff");
}

@font-face {
	font-family: STKaiti-SC-Regular_cf1;
	src: url("fonts/STKaiti-SC-Regular_cf1.woff") format("woff");
}

@font-face {
	font-family: LibreFranklin-Regular_csl;
	src: url("fonts/LibreFranklin-Regular_csl.woff") format("woff");
}

@font-face {
	font-family: LibreFranklin-SemiBold_cg0;
	src: url("fonts/LibreFranklin-SemiBold_cg0.woff") format("woff");
}

]]></style>

</svg>
