<?xml version="1.0" encoding="UTF-8" standalone="no"?>
<!DOCTYPE svg PUBLIC "-//W3C//DTD SVG 1.1//EN"
"http://www.w3.org/Graphics/SVG/1.1/DTD/svg11.dtd">


<!-- Page 231 -->
<svg x="0" y="0" width="921" height="1196" viewBox="0 0 921 1196" version="1.1" xmlns="http://www.w3.org/2000/svg" xmlns:xlink="http://www.w3.org/1999/xlink"
style="display: block;margin-left: auto;margin-right: auto;">
<defs>

<style type="text/css"><![CDATA[

.g1_231{
fill: none;
stroke: #7AAD35;
stroke-width: 0.6248611;
stroke-linecap: butt;
stroke-linejoin: miter;
}
.g2_231{
fill: none;
stroke: #7AAD35;
stroke-width: 1.8730555;
stroke-linecap: butt;
stroke-linejoin: miter;
}
.g3_231{
fill: none;
stroke: #7AAD35;
stroke-width: 2.2916667;
stroke-linecap: butt;
stroke-linejoin: miter;
}
.g4_231{
fill: none;
stroke: #7AAD35;
stroke-width: 1.5277778;
stroke-linecap: butt;
stroke-linejoin: miter;
stroke-miterlimit: 4;
}
.g5_231{
fill: none;
stroke: #7AAD35;
stroke-width: 0.5102778;
stroke-linecap: butt;
stroke-linejoin: miter;
stroke-miterlimit: 4;
}
.g6_231{
fill: #7AAD35;
stroke: #B2B3B7;
stroke-width: 1.5277778;
stroke-linecap: butt;
stroke-linejoin: miter;
stroke-miterlimit: 4;
}

.s1_231{
font-size: 32.08px;
font-family: LibreFranklin-ExtraBold_dzb;
fill: #7AAD35;
}
.s2_231{
font-size: 18.33px;
font-family: LibreFranklin-ExtraBold_dzb;
fill: #86B345;
}
.s3_231{
font-size: 27.50px;
font-family: STKaiti-SC-Bold_cdn;
fill: #3F3F40;
}
.s4_231{
font-size: 27.50px;
font-family: STKaiTi-TC-Bold_cdt;
fill: #3F3F40;
}
.s5_231{
font-size: 22.92px;
font-family: LibreFranklin-Bold_dzc;
fill: #7AAD35;
}
.s6_231{
font-size: 14.51px;
font-family: LibreFranklin-Regular_dzn;
fill: #3F3F40;
}
.s7_231{
font-size: 23.68px;
font-family: STKaiti-SC-Regular_cf1;
fill: #3F3F40;
}
.s8_231{
font-size: 23.68px;
font-family: STKaiTi-TC-Regular_cev;
fill: #3F3F40;
}
.s9_231{
font-size: 15.28px;
font-family: LibreFranklin-ExtraBold_dzb;
fill: #3F3F40;
}
.s10_231{
font-size: 25.97px;
font-family: STKaiti-SC-Regular_cf1;
fill: #3F3F40;
}
.s11_231{
font-size: 25.97px;
font-family: STKaiti-SC-Bold_cdn;
fill: #749E3C;
}
.s12_231{
font-size: 25.97px;
font-family: STKaiTi-TC-Regular_cev;
fill: #3F3F40;
}
.s13_231{
font-size: 25.97px;
font-family: STKaiTi-TC-Bold_cdt;
fill: #749E3C;
}
.s14_231{
font-size: 13.75px;
font-family: LibreFranklin-Medium_dze;
fill: #231F20;
}
.s15_231{
font-size: 13.75px;
font-family: LibreFranklin-SemiBold_d-9;
fill: #FFFFFF;
}

]]></style>

</defs>
<path d="M0,0
L0,1196
L921,1196
L921,0 Z " 
fill="#FFFFFF" stroke="none" />
<path d="M4.6,97.3l329.7,0" class="g1_231" />
<path d="M4.6,99.8l329.7,0" class="g2_231" />
<path d="M123.8,183.4l13.7,0" class="g3_231" />
<path d="M123.8,758.6l13.7,0" class="g3_231" />
<text 
x="59" 
y="85" 
dx="0,-2.4,0.3,-0.3,0.3,0.3,0.3,0.3,0.3,0.3,0.3,0,0.3,0.3,0.3" 
class="s1_231"
>Words &amp; Phrases</text>

<text 
x="123" 
y="177" 
dx="0,0" 
class="s2_231"
>A </text>

<text 
x="289" 
y="182" 
dx="0,0,0" 
class="s3_231"
>引起/</text>

<text 
x="358" 
y="182" 
dx="0,0" 
class="s4_231"
>引起</text>

<text 
x="417" 
y="182" 
dx="0,0,-0.4,0,0,0,0,-0.7,0,0,0,0,0,0,0,-0.4,-0.5,0,0,-0.4,0,0,0,0,0,0,0,-0.4,0" 
class="s5_231"
>(to give rise to, to lead to)</text>

<text 
x="161" 
y="244" 
dx="0,0,0,0,0,-0.4,0,0,0" 
class="s6_231"
>The verb </text>

<text 
x="224" 
y="245" 
dx="0,0" 
class="s7_231"
>引起</text>

<text 
x="272" 
y="244" 
dx="0" 
class="s6_231"
>/</text>

<text 
x="276" 
y="245" 
dx="0,0" 
class="s8_231"
>引起</text>

<text 
x="327" 
y="244" 
dx="0,0,0,0,0,0,0,0,0,0,0,-0.4,0,0,0,0,0,0,0,0,0,0,0,0,0,0,0,0,0,0,0,0,0,0,0,0,0,0,0,0,0,0,0,0,0,0,0,0,0,0,0,0,0,0,0,0,0,0,0,0,0,0" 
class="s6_231"
>usually takes as objects two-syllable abstract nouns, such as </text>

<text 
x="735" 
y="245" 
dx="0,0" 
class="s7_231"
>注意</text>

<text 
x="783" 
y="244" 
dx="0,0" 
class="s6_231"
>, </text>

<text 
x="161" 
y="273" 
dx="0,0" 
class="s7_231"
>思考</text>

<text 
x="209" 
y="271" 
dx="0,0" 
class="s6_231"
>, </text>

<text 
x="215" 
y="273" 
dx="0,0" 
class="s7_231"
>重视</text>

<text 
x="262" 
y="271" 
dx="0" 
class="s6_231"
>/</text>

<text 
x="267" 
y="273" 
dx="0,0" 
class="s8_231"
>重視</text>

<text 
x="315" 
y="271" 
dx="0,0" 
class="s6_231"
>, </text>

<text 
x="321" 
y="273" 
dx="0,0" 
class="s7_231"
>反对</text>

<text 
x="368" 
y="271" 
dx="0" 
class="s6_231"
>/</text>

<text 
x="373" 
y="273" 
dx="0,0" 
class="s8_231"
>反對</text>

<text 
x="421" 
y="271" 
dx="0,0" 
class="s6_231"
>, </text>

<text 
x="427" 
y="273" 
dx="0,0" 
class="s7_231"
>讨论</text>

<text 
x="474" 
y="271" 
dx="0" 
class="s6_231"
>/</text>

<text 
x="479" 
y="273" 
dx="0,0" 
class="s8_231"
>討論</text>

<text 
x="526" 
y="271" 
dx="0,0" 
class="s6_231"
>, </text>

<text 
x="533" 
y="273" 
dx="0,0" 
class="s7_231"
>兴趣</text>

<text 
x="580" 
y="271" 
dx="0" 
class="s6_231"
>/</text>

<text 
x="585" 
y="273" 
dx="0,0" 
class="s8_231"
>興趣</text>

<text 
x="632" 
y="271" 
dx="0,0,0,0,0" 
class="s6_231"
>, or </text>

<text 
x="656" 
y="273" 
dx="0,0" 
class="s7_231"
>危机</text>

<text 
x="703" 
y="271" 
dx="0" 
class="s6_231"
>/</text>

<text 
x="708" 
y="273" 
dx="0,0" 
class="s8_231"
>危機</text>

<text 
x="756" 
y="271" 
dx="0" 
class="s6_231"
>.</text>

<text 
x="174" 
y="328" 
dx="0,0" 
class="s9_231"
>1 </text>

<text 
x="244" 
y="330" 
dx="0,0,0,0,0,0,0,0,0,0,0,0,0" 
class="s10_231"
>这两个孩子的教育问题还没有</text>

<text 
x="582" 
y="330" 
dx="0,0" 
class="s11_231"
>引起</text>

<text 
x="634" 
y="330" 
dx="0,0,0,0,0" 
class="s10_231"
>他们父母的</text>

<text 
x="763" 
y="330" 
dx="0,0" 
class="s11_231"
>注意</text>

<text 
x="815" 
y="330" 
dx="0" 
class="s10_231"
>。</text>

<text 
x="244" 
y="370" 
dx="0,0,0,0,0,0,0,0,0,0,0,0,0" 
class="s12_231"
>這兩個孩子的教育問題還沒有</text>

<text 
x="582" 
y="370" 
dx="0,0" 
class="s13_231"
>引起</text>

<text 
x="634" 
y="370" 
dx="0,0,0,0,0" 
class="s12_231"
>他們父母的</text>

<text 
x="763" 
y="370" 
dx="0,0" 
class="s13_231"
>注意</text>

<text 
x="815" 
y="370" 
dx="0" 
class="s12_231"
>。</text>

<text 
x="250" 
y="404" 
dx="0,0,0,0,0,0,0,0,0,0,0,-0.2,0,0,0,0,0,0,0,0,0,0,0,0,0,0,0,0,0,-0.2,0,0,-0.9,0,0,0,0,0,0,0,0,0,0,0,0,0,0,0,0,0,-0.1,0,0,0,0,0,0,0,0,-0.2,0,0,0,0,0,0,0,0,0,0,0,-0.2,0,0,0,0,0,0,0,0,-0.2,0,0,0,0,0,0" 
class="s6_231"
>The issue of these two children’s education has not attracted their parents’ attention.</text>

<text 
x="174" 
y="463" 
dx="0,0" 
class="s9_231"
>2 </text>

<text 
x="244" 
y="465" 
dx="0,0,0,0,0,0" 
class="s10_231"
>环保问题已经</text>

<text 
x="400" 
y="465" 
dx="0,0" 
class="s11_231"
>引起</text>

<text 
x="452" 
y="465" 
dx="0,0,0,0,0" 
class="s10_231"
>各个国家的</text>

<text 
x="582" 
y="465" 
dx="0,0" 
class="s11_231"
>重视</text>

<text 
x="634" 
y="465" 
dx="0" 
class="s10_231"
>。</text>

<text 
x="244" 
y="506" 
dx="0,0,0,0,0,0" 
class="s12_231"
>環保問題已經</text>

<text 
x="400" 
y="506" 
dx="0,0" 
class="s13_231"
>引起</text>

<text 
x="452" 
y="506" 
dx="0,0,0,0,0" 
class="s12_231"
>各個國家的</text>

<text 
x="582" 
y="506" 
dx="0,0" 
class="s13_231"
>重視</text>

<text 
x="634" 
y="506" 
dx="0" 
class="s12_231"
>。</text>

<text 
x="250" 
y="539" 
dx="0,0,0,0,0,0,0,0,0,0,0,-0.2,0,0,0,0,0,0,-0.2,0,0,0,0,0,0,0,0,0,0,-0.2,-0.1,-0.2,0,0,0,0,0,0,0,0,0,0,0,0,0,0,0,0,0,0,0,0,0,0,0,0,-0.2,0,0,0,0,0,0,0,0,0,0,0,0,0,-0.3,0,-0.2,0,0,0,0,0,0,0,0,0,0,0,0,0" 
class="s6_231"
>The issue of environmental protection has drawn much attention in different countries.</text>

<text 
x="174" 
y="598" 
dx="0,0" 
class="s9_231"
>3 </text>

<text 
x="244" 
y="600" 
dx="0,0,0,0,0" 
class="s10_231"
>小王的建议</text>

<text 
x="374" 
y="600" 
dx="0,0" 
class="s11_231"
>引起</text>

<text 
x="426" 
y="600" 
dx="0,0,0,0" 
class="s10_231"
>同学们的</text>

<text 
x="530" 
y="600" 
dx="0,0" 
class="s11_231"
>反对</text>

<text 
x="582" 
y="600" 
dx="0" 
class="s10_231"
>。</text>

<text 
x="244" 
y="641" 
dx="0,0,0,0,0" 
class="s12_231"
>小王的建議</text>

<text 
x="374" 
y="641" 
dx="0,0" 
class="s13_231"
>引起</text>

<text 
x="426" 
y="641" 
dx="0,0,0,0" 
class="s12_231"
>同學們的</text>

<text 
x="530" 
y="641" 
dx="0,0" 
class="s13_231"
>反對</text>

<text 
x="582" 
y="641" 
dx="0" 
class="s12_231"
>。</text>

<text 
x="250" 
y="674" 
dx="0,0,0,0,0,0,0,0,-0.8,0,0,0,-0.9,0,0,0,-0.2,0,0,0,0,0,0,0,0,-0.1,0,0,0,0,0,0,0,0,0,0,0,0,0,0,0,0,0,0,0,-0.2,0,0,0,-0.1,0,0,0,0,0,0,0,0,0,0,0,0,0" 
class="s6_231"
>Little Wang’s proposal met with objections from other students.</text>

<text 
x="123" 
y="752" 
dx="0,0" 
class="s2_231"
>B </text>

<text 
x="248" 
y="757" 
dx="0,0,0,0" 
class="s3_231"
>算（是）</text>

<text 
x="358" 
y="757" 
dx="0,0,-0.4,0,0,0,0,0,0,0,0,0,0,0,0,-0.4,0,0,0,0,0,0,0,0,0,0,0,0,-0.4,0,0,0,0,0" 
class="s5_231"
>(to count as, to be considered as)</text>

<text 
x="161" 
y="819" 
dx="0,0,0,0,0,0,0,0,0,0,0,0,0,0,0,0,0,0,0,-0.2,0" 
class="s6_231"
>The basic meaning of </text>

<text 
x="308" 
y="820" 
dx="0" 
class="s7_231"
>算</text>

<text 
x="335" 
y="819" 
dx="0,0,0,0,0,-0.2,0,0,0,0,0,0,0,0,0,0,0,0,0,0,0,0,0,0,0,0,0,0,0,0" 
class="s6_231"
>is “to count.” In this lesson </text>

<text 
x="514" 
y="820" 
dx="0" 
class="s7_231"
>算</text>

<text 
x="541" 
y="819" 
dx="0,0,0,0,0,0,0,0,-0.2,0,0,0,0,0,0,0,0,0,0,0,0,0,0,0,0,0,0,0,0,0,0,0,0,0,0,-0.4,0,0" 
class="s6_231"
>means “to count as,” or “can be taken </text>

<text 
x="161" 
y="846" 
dx="0,0,0,0,0" 
class="s6_231"
>as.” </text>

<text 
x="189" 
y="848" 
dx="0" 
class="s7_231"
>是</text>

<text 
x="216" 
y="846" 
dx="0,0,0,0,0,0,0,0,0,0,0,0" 
class="s6_231"
>is optional.</text>

<text 
x="174" 
y="903" 
dx="0,0" 
class="s9_231"
>1 </text>

<text 
x="244" 
y="905" 
dx="0,0,0,0,0,0,0,0,0,0,0,0,0,0,0,0" 
class="s10_231"
>姑妈要给表哥的未婚妻买一辆新车，</text>

<text 
x="660" 
y="905" 
dx="0,0" 
class="s11_231"
>算是</text>

<text 
x="711" 
y="905" 
dx="0,0,0,0,0" 
class="s10_231"
>结婚礼物。</text>

<text 
x="244" 
y="946" 
dx="0,0,0,0,0,0,0,0,0,0,0,0,0,0,0,0" 
class="s12_231"
>姑媽要給表哥的未婚妻買一輛新車，</text>

<text 
x="660" 
y="946" 
dx="0,0" 
class="s13_231"
>算是</text>

<text 
x="711" 
y="946" 
dx="0,0,0,0,0" 
class="s12_231"
>結婚禮物。</text>

<text 
x="250" 
y="979" 
dx="0,0,0,0,0,0,0,0,0,0,-0.9,0,0,0,0,0,0,0,0,0,0,0,-0.2,0,0,0,-0.2,0,0,0,0,0,0,0,0,0,0,0,0,0,0,0,0,-0.3,0,0,0,0,0,0,0,0,0,0,0,0,-0.9,0,0,0,0,0,0,0,0,0,-0.9,0,0,0,0,0,0,0,0,0,0,0,0,0,0" 
class="s6_231"
>[Tianming’s] aunt wanted to buy a new car for [Tianming’s] cousin’s fiancée as a </text>

<text 
x="250" 
y="999" 
dx="0,0,0,0,0,0,0,0,0,0,0,0,0" 
class="s6_231"
>wedding gift.</text>

<text 
x="174" 
y="1058" 
dx="0,0" 
class="s9_231"
>2 </text>

<text 
x="244" 
y="1060" 
dx="0,0" 
class="s10_231"
>这钱</text>

<text 
x="296" 
y="1060" 
dx="0" 
class="s11_231"
>算</text>

<text 
x="322" 
y="1060" 
dx="0,0,0,0,0,0,0,0,0,0,0,0,0,0,0,0,0" 
class="s10_231"
>我借给你的，你什么时候还给我都行。</text>

<text 
x="244" 
y="1101" 
dx="0,0" 
class="s12_231"
>這錢</text>

<text 
x="296" 
y="1101" 
dx="0" 
class="s13_231"
>算</text>

<text 
x="322" 
y="1101" 
dx="0,0,0,0,0,0,0,0,0,0,0,0,0,0,0,0,0" 
class="s12_231"
>我借給你的，你什麼時候還給我都行。</text>

<text 
x="250" 
y="1134" 
dx="0,-1.2,0,-0.4,0,0,0,0,0,0,0,0,0,0,0,0,0,0,0,0,0,0,0,0,0,0,0,0,-0.2,0,0,0,0,0,0,0,-1.5,0,0,0,0,0,0,0,-0.2,-0.1,0,0,0,0,0,0,0,0,0,0,0,0,0,-0.4,0,-1.2" 
class="s6_231"
>Take this money as a loan from me. You can return it whenever.</text>

<path d="M153.2,148.2l0,53.5l0,0.7l0.8,0l676.9,0l0.8,0l0,-0.7l0,-53.5l0,-0.8l-0.8,0l-676.9,0l-0.8,0l0,0.8Z" class="g4_231" />
<path d="M155.3,200.4l674.3,0l0,-50.9l-674.3,0l0,50.9Z" class="g5_231" />
<path d="M167.4,305c-0.1,0,-7.6,0.1,-7.6,7.6l0,19.7c0,0.1,0.1,7.7,7.6,7.7l22.4,0c0.1,0,7.7,-0.1,7.7,-7.7l0,-19.7c0,0,-0.1,-7.6,-7.7,-7.6l-22.4,0Z" class="g4_231" />
<path d="M167.4,307c-0.6,0,-5.6,0.2,-5.6,5.6l0,19.7c0,0.6,0.2,5.6,5.6,5.6l22.4,0c0.6,0,5.6,-0.2,5.6,-5.6l0,-19.7c0,-0.5,-0.2,-5.6,-5.6,-5.6l-22.4,0Z" class="g5_231" />
<path d="M167.4,440.8c-0.1,0,-7.6,0.1,-7.6,7.6l0,19.7c0,0.1,0.1,7.6,7.6,7.6l22.4,0c0.1,0,7.7,-0.1,7.7,-7.6l0,-19.7c0,-0.1,-0.1,-7.6,-7.7,-7.6l-22.4,0Z" class="g4_231" />
<path d="M167.4,442.8c-0.6,0,-5.6,0.2,-5.6,5.6l0,19.7c0,0.6,0.2,5.6,5.6,5.6l22.4,0c0.6,0,5.6,-0.2,5.6,-5.6l0,-19.7c0,-0.6,-0.2,-5.6,-5.6,-5.6l-22.4,0Z" class="g5_231" />
<path d="M168.1,576.2c0,0,-7.6,0.1,-7.6,7.6l0,19.7c0,0.1,0.1,7.7,7.6,7.7l22.4,0c0.1,0,7.7,-0.1,7.7,-7.7l0,-19.7c0,0,-0.1,-7.6,-7.7,-7.6l-22.4,0Z" class="g4_231" />
<path d="M168.1,578.2c-0.5,0,-5.6,0.2,-5.6,5.6l0,19.7c0,0.6,0.2,5.6,5.6,5.6l22.4,0c0.6,0,5.7,-0.2,5.7,-5.6l0,-19.7c-0.1,-0.5,-0.3,-5.6,-5.7,-5.6l-22.4,0Z" class="g5_231" />
<path d="M152.2,721.7l0,53.5l0,0.8l0.8,0l676.9,0l0.8,0l0,-0.8l0,-53.5l0,-0.7l-0.8,0L153,721l-0.8,0l0,0.7Z" class="g4_231" />
<path d="M154.3,773.9l674.3,0l0,-50.9l-674.3,0l0,50.9Z" class="g5_231" />
<path d="M167.3,880.8c-0.1,0,-7.6,0,-7.6,7.6l0,19.7c0,0.1,0,7.6,7.6,7.6l22.4,0c0.1,0,7.6,-0.1,7.6,-7.6l0,-19.7c0,-0.1,0,-7.6,-7.6,-7.6l-22.4,0Z" class="g4_231" />
<path d="M167.3,882.8c-0.6,0,-5.6,0.2,-5.6,5.6l0,19.7c0,0.6,0.2,5.6,5.6,5.6l22.4,0c0.6,0,5.6,-0.2,5.6,-5.6l0,-19.7c0,-0.6,-0.2,-5.6,-5.6,-5.6l-22.4,0Z" class="g5_231" />
<path d="M167.5,1035.9c0,0,-7.6,0.1,-7.6,7.6l0,19.7c0,0.1,0.1,7.7,7.6,7.7l22.5,0c0,0,7.6,-0.1,7.6,-7.7l0,-19.7c0,0,-0.1,-7.6,-7.6,-7.6l-22.5,0Z" class="g4_231" />
<path d="M167.6,1037.9c-0.6,0,-5.7,0.2,-5.7,5.6l0,19.7c0.1,0.6,0.2,5.6,5.6,5.6l22.5,0c0.5,0,5.6,-0.2,5.6,-5.6l0,-19.7c0,-0.5,-0.2,-5.6,-5.6,-5.6l-22.4,0Z" class="g5_231" />
<path d="M-12.9,1140.5l58,0l0,-1222.1l-58,0l0,1222.1Z" class="g6_231" />
<text 
x="20" 
y="1166" 
dx="0,1.2,1.2,0" 
class="s14_231"
>208 </text>

<text 
transform="matrix(0, -1, 1, 0, 34, 1129)"
dx="0,1.2,1.2,1,1.2,1.2,1.2,1.2,1,1.2,1.2,1.2,1.2,1.2,1.2,1.2,1.2,1.2,1.2,1.2,1.2" 
class="s15_231"
>Integrated Chinese 4 </text>

<text 
transform="matrix(0, -1, 1, 0, 34, 955)"
dx="0,1.2" 
class="s15_231"
>| </text>

<text 
transform="matrix(0, -1, 1, 0, 34, 938)"
dx="0,-0.3,0.9,0.9,1.2,1.2,1.2,1.2" 
class="s15_231"
>Textbook</text>

<text 
transform="matrix(0, -1, 1, 0, 34, 1129)"
dx="0,1.2,1.2,1,1.2,1.2,1.2,1.2,1,1.2,1.2,1.2,1.2,1.2,1.2,1.2,1.2,1.2,1.2,1.2,1.2" 
class="s15_231"
>Integrated Chinese 4 </text>

<text 
transform="matrix(0, -1, 1, 0, 34, 955)"
dx="0,1.2" 
class="s15_231"
>| </text>

<text 
transform="matrix(0, -1, 1, 0, 34, 938)"
dx="0,-0.3,0.9,0.9,1.2,1.2,1.2,1.2" 
class="s15_231"
>Textbook</text>

<text 
transform="matrix(0, -1, 1, 0, 34, 1129)"
dx="0,1.2,1.2,1,1.2,1.2,1.2,1.2,1,1.2,1.2,1.2,1.2,1.2,1.2,1.2,1.2,1.2,1.2,1.2,1.2" 
class="s15_231"
>Integrated Chinese 4 </text>

<text 
transform="matrix(0, -1, 1, 0, 34, 955)"
dx="0,1.2" 
class="s15_231"
>| </text>

<text 
transform="matrix(0, -1, 1, 0, 34, 938)"
dx="0,-0.3,0.9,0.9,1.2,1.2,1.2,1.2" 
class="s15_231"
>Textbook</text>



<!-- Any embedded fonts defined here -->
<style type="text/css" ><![CDATA[

@font-face {
	font-family: LibreFranklin-Regular_dzn;
	src: url("fonts/LibreFranklin-Regular_dzn.woff") format("woff");
}

@font-face {
	font-family: STKaiti-SC-Bold_cdn;
	src: url("fonts/STKaiti-SC-Bold_cdn.woff") format("woff");
}

@font-face {
	font-family: LibreFranklin-Medium_dze;
	src: url("fonts/LibreFranklin-Medium_dze.woff") format("woff");
}

@font-face {
	font-family: LibreFranklin-SemiBold_d-9;
	src: url("fonts/LibreFranklin-SemiBold_d-9.woff") format("woff");
}

@font-face {
	font-family: LibreFranklin-Bold_dzc;
	src: url("fonts/LibreFranklin-Bold_dzc.woff") format("woff");
}

@font-face {
	font-family: LibreFranklin-ExtraBold_dzb;
	src: url("fonts/LibreFranklin-ExtraBold_dzb.woff") format("woff");
}

@font-face {
	font-family: STKaiTi-TC-Regular_cev;
	src: url("fonts/STKaiTi-TC-Regular_cev.woff") format("woff");
}

@font-face {
	font-family: STKaiTi-TC-Bold_cdt;
	src: url("fonts/STKaiTi-TC-Bold_cdt.woff") format("woff");
}

@font-face {
	font-family: STKaiti-SC-Regular_cf1;
	src: url("fonts/STKaiti-SC-Regular_cf1.woff") format("woff");
}

]]></style>

</svg>
