<?xml version="1.0" encoding="UTF-8" standalone="no"?>
<!DOCTYPE svg PUBLIC "-//W3C//DTD SVG 1.1//EN"
"http://www.w3.org/Graphics/SVG/1.1/DTD/svg11.dtd">


<!-- Page 214 -->
<svg x="0" y="0" width="921" height="1196" viewBox="0 0 921 1196" version="1.1" xmlns="http://www.w3.org/2000/svg" xmlns:xlink="http://www.w3.org/1999/xlink"
style="display: block;margin-left: auto;margin-right: auto;">
<defs>

<style type="text/css"><![CDATA[

.g1_214{
fill: #85215E;
}
.g2_214{
fill: none;
stroke: #E1DCD8;
stroke-width: 2.2916667;
stroke-linecap: butt;
stroke-linejoin: miter;
stroke-miterlimit: 4;
}
.g3_214{
fill: none;
stroke: #E1DCD8;
stroke-width: 0.7654167;
stroke-linecap: butt;
stroke-linejoin: miter;
stroke-miterlimit: 4;
}
.g4_214{
fill: none;
stroke: #E1BB32;
stroke-width: 16.805555;
stroke-linecap: butt;
stroke-linejoin: miter;
stroke-miterlimit: 4;
}
.g5_214{
fill: #FFFFFF;
}
.g6_214{
fill: #85215E;
stroke: #B2B3B7;
stroke-width: 1.5277778;
stroke-linecap: butt;
stroke-linejoin: miter;
stroke-miterlimit: 4;
}

.s1_214{
font-size: 25.97px;
font-family: STKaiTi-TC-Bold_cdt;
fill: #3F3F40;
}
.s2_214{
font-size: 25.97px;
font-family: STKaiTi-TC-Regular_cev;
fill: #3F3F40;
}
.s3_214{
font-size: 25.97px;
font-family: STKaiTi-TC-Bold_cdt;
fill: #8D3768;
}
.s4_214{
font-size: 14.51px;
font-family: LibreFranklin-Regular_cz7;
fill: #3F3F40;
}
.s5_214{
font-size: 9.17px;
font-family: Wingdings-Regular_clp;
fill: #8D3768;
}
.s6_214{
font-size: 25.97px;
font-family: STKaiti-SC-Regular_cf1;
fill: #3F3F40;
}
.s7_214{
font-size: 14.51px;
font-family: LibreFranklin-SemiBold_czv;
fill: #FFFFFF;
}
.s8_214{
font-size: 14.51px;
font-family: Wingdings2_cft;
fill: #E4C048;
}
.s9_214{
font-size: 14.51px;
font-family: LibreFranklin-Regular_cz7;
fill: #FFFFFF;
}
.s10_214{
font-size: 13.75px;
font-family: LibreFranklin-Medium_cyp;
fill: #231F20;
}
.s11_214{
font-size: 13.75px;
font-family: LibreFranklin-SemiBold_b8j;
fill: #FFFFFF;
}

]]></style>

</defs>
<path d="M0,0
L0,1196
L921,1196
L921,0 Z " 
fill="#FFFFFF" stroke="none" />
<text 
x="318" 
y="73" 
dx="0,0,0,0,0,0,0,0,0,0" 
class="s1_214"
>張天明他們很注意環保</text>

<text 
x="192" 
y="119" 
dx="0,0.7,0.7,0.7,0.7,0.7,0.7,0.7,0.7,0.7,0.7,0.7,0.7,0.7,0.7,0.7,0.7,0.7,0.7,0.7" 
class="s2_214"
>張天明、麗莎、柯林和林雪梅都很注意環保。</text>

<text 
x="725" 
y="119" 
dx="0" 
class="s3_214"
>他</text>

<text 
x="144" 
y="156" 
dx="0,0.4,0.4,0.4,0.4" 
class="s3_214"
>們上個週末</text>

<text 
x="276" 
y="156" 
dx="0,0.4,0.4,0.4" 
class="s2_214"
>去爬山，</text>

<text 
x="382" 
y="156" 
dx="0,0.4" 
class="s3_214"
>為了</text>

<text 
x="434" 
y="156" 
dx="0,0.4,0.4,0.4,0.4,0.4,0.4,0.4,0.4,0.4" 
class="s2_214"
>環保，沒有坐出租车，</text>

<text 
x="699" 
y="156" 
dx="0" 
class="s3_214"
>也</text>

<text 
x="725" 
y="156" 
dx="0" 
class="s2_214"
>沒</text>

<text 
x="144" 
y="192" 
dx="0,0.4,0.4,0.4,0.4,0.4" 
class="s2_214"
>坐公共汽車，</text>

<text 
x="302" 
y="192" 
dx="0,0.4" 
class="s3_214"
>而是</text>

<text 
x="355" 
y="192" 
dx="0,0.4,0.4,0.4,0.4,0.4,0.4,0.4,0.4,0.4,0.4,0.4,0.4,0.4" 
class="s2_214"
>騎自行車。他們不亂扔空瓶子，</text>

<text 
x="725" 
y="192" 
dx="0" 
class="s3_214"
>而</text>

<text 
x="144" 
y="229" 
dx="0" 
class="s3_214"
>是</text>

<text 
x="170" 
y="229" 
dx="0,0.4,0.4,0.4,0.4,0.4,0.4,0.4,0.4,0.4,0.4,0.4,0.4,0.4,0.4,0.4,0.4" 
class="s2_214"
>把它們扔進樹下的垃圾回收筒裡。他們</text>

<text 
x="619" 
y="229" 
dx="0" 
class="s3_214"
>也</text>

<text 
x="646" 
y="229" 
dx="0,0.4,0.4,0.4" 
class="s2_214"
>同意不買</text>

<text 
x="144" 
y="266" 
dx="0,0.4,0.4,0.4,0.4,0.4,0.4" 
class="s2_214"
>瓶装水的建議，</text>

<text 
x="329" 
y="266" 
dx="0" 
class="s3_214"
>還</text>

<text 
x="355" 
y="266" 
dx="0,0.4,0.4,0.4,0.4,0.4,0.4,0.4,0.4,0.4,0.4,0.4,0.4,0.4,0.4" 
class="s2_214"
>希望全世界都能多用太陽能和風能</text>

<text 
x="144" 
y="302" 
dx="0,0,0" 
class="s2_214"
>發電。</text>

<text 
x="144" 
y="336" 
dx="0,0,0,0,0,0,0,0,0,0,0,0,0,0,0,0,-0.2,0,0,0,-0.2,-0.1,-0.2,0,0,0,0,0,0,0,0,0,0,0,0,-0.2,0,0,0,0,0,0,0,0,0,0,0,0,0,0,0,0,0,0,0,0,-0.2,0,0,0,0,0,0,0,0,0,0,0,0,-0.4,0,0,0,0,0,0,0,0,0,0,0,0,0,0,0,0,0,0,-0.2,0,0" 
class="s4_214"
>What do you do to protect the environment? Use as many of the cohesive devices highlighted </text>

<text 
x="144" 
y="360" 
dx="0,0,0,0,0,0,0,0,-0.3,0,0,0,0,0,0,0,0,0,0,0,0,0,0,0,-0.2,0,0,0,0,0,0,0,0,0,-0.1,0,0,0,0,-0.3,-0.4,0,0,0,0,0,0,0,0,0,0,0,0,0,0,-0.2,0,0,0,0,0,0,0,0,0,-0.2,0,-0.1,-0.1,0,0,0,0,0,0,0,-0.2,0,0,0,0,0,0,0,0,0,0,0,0,0,0,0,0,0" 
class="s4_214"
>in the example on the previous page/above as possible to string together a response, based on </text>

<text 
x="144" 
y="385" 
dx="0,0,0,0,0,0,-0.2,0,0,0,0,0" 
class="s4_214"
>the prompts.</text>

<text 
x="166" 
y="423" 
dx="0" 
class="s5_214"
>¡</text>

<text 
x="186" 
y="423" 
dx="0,0,0,0,0,0,0,0,0,0,0,0,0" 
class="s6_214"
>你以前注意环保吗？现在呢？</text>

<text 
x="186" 
y="461" 
dx="0,0,0,0,0,0,0,0,0,0,0,0,0" 
class="s2_214"
>你以前注意環保嗎？現在呢？</text>

<text 
x="166" 
y="504" 
dx="0" 
class="s5_214"
>¡</text>

<text 
x="186" 
y="504" 
dx="0,0,0,0,0,0,0,0,0,0,0,0,0,0,0,0,0,0,0,0,0" 
class="s6_214"
>为了环保，你注意做这些事情吗：吃饭自己带餐</text>

<text 
x="186" 
y="538" 
dx="0,0,0,0,0,0,0,0,0,0,0,0,0,0,0" 
class="s6_214"
>具、不买瓶装水、不随便扔垃圾？</text>

<text 
x="186" 
y="576" 
dx="0,0,0,0,0,0,0,0,0,0,0,0,0,0,0,0,0,0,0,0,0" 
class="s2_214"
>為了環保，你注意做這些事情嗎：吃飯自己帶餐</text>

<text 
x="186" 
y="609" 
dx="0,0,0,0,0,0,0,0,0,0,0,0,0,0,0" 
class="s2_214"
>具、不買瓶装水、不隨便扔垃圾？</text>

<text 
x="166" 
y="652" 
dx="0" 
class="s5_214"
>¡</text>

<text 
x="186" 
y="652" 
dx="0,0,0,0,0,0,0,0,0,0,0,0,0,0,0,0,0" 
class="s6_214"
>你对用太阳能和风能发电有什么看法？</text>

<text 
x="186" 
y="690" 
dx="0,0,0,0,0,0,0,0,0,0,0,0,0,0,0,0,0" 
class="s2_214"
>你對用太陽能和風能發電有什麼看法？</text>

<path d="M235.1,807.4c0,0,-17.5,-0.4,-17.8,13.1L253,1043.4c0,0,-0.3,13.5,17.2,13.9l518.1,-13.9c0,0,17.4,0.4,17.7,-13.2L808.9,841c0,0,0.3,-13.5,-17.1,-13.9Z" class="g1_214" />
<path d="M235.1,806.3c-0.2,-0.1,-18.6,-0.3,-18.9,14.2l35.7,223c0,0,-0.1,14.5,18.3,14.9l518.1,-13.9c0.1,0,18.6,0.3,18.9,-14.2L810.1,841c0,-0.1,0.1,-14.6,-18.3,-15L235.1,806.3Z" class="g2_214" />
<path d="M235,809.3c-0.8,0,-15.5,-0.1,-15.8,11.3l35.7,222.5c0,0.8,0.1,11.9,15.3,12.2l518,-13.8c0.8,0,15.7,0.1,15.9,-11.3L807,841c0,-0.5,0,-11.6,-15.3,-12C606.2,822.4,420.6,815.9,235,809.3Z" class="g3_214" />
<path d="M122.2,877.6c0,0,-17.3,2.4,-14.8,19.7l16.3,116.4c0,0,2.5,17.3,19.7,14.9l116.5,-16.4c0,0,17.2,-2.4,14.8,-19.7L258.3,876.1c0,0,-2.4,-17.3,-19.7,-14.9Z" class="g1_214" />
<path d="M122.1,876.5c-0.2,0,-18.4,2.8,-15.9,21l16.4,116.4c0,0.2,2.8,18.4,21,15.8L260,1013.3c0.2,0,18.4,-2.8,15.8,-21L259.5,875.9c0,-0.2,-2.8,-18.4,-21,-15.8L122.1,876.5Z" class="g2_214" />
<path d="M122.5,879.5c-0.6,0.1,-15.4,2.4,-13.2,17.5l16.3,116.4c0.1,0.7,2.4,15.4,17.6,13.3l116.4,-16.4c0.6,-0.1,15.3,-2.4,13.2,-17.5L256.5,876.3C256.4,875.7,254,861,238.9,863.1L122.5,879.5Z" class="g3_214" />
<path d="M203.7,966.9l31.4,23.5l59,-77.9" class="g4_214" />
<path d="M133.2,983.3l16.9,0l0,-6.8l-3.5,0l0,3.5l-6.6,0l0,-15.7l2.7,0l0,-3.3l-9.5,0l0,3.3l2.7,0l0,15.9l-2.7,0Zm21.1,-18.7l4,0l0,-3.6l-4,0l0,3.6ZM152,983.3l8.6,0l0,-3l-2.3,0l0,-13l-6.5,0l0,3l2.5,0l0,10l-2.3,0Zm10.3,-3.5c0,2.6,3.6,3.9,6.5,3.9c3.6,0,6.7,-1.7,6.7,-4.9c0,-3.1,-2.9,-4.1,-5.3,-4.9c-1.8,-0.5,-3.4,-1.1,-3.4,-2.4c0,-1,1.1,-1.4,2.4,-1.4c1.4,0,2.3,0.5,2.3,1.3l0,0.9l3.4,0l0,-2c0,-2.5,-3.4,-3.4,-5.7,-3.4c-3,0,-6.3,1.2,-6.3,4.6c0,3,2.7,4.1,5,5c2.1,0.7,3.6,1.1,3.6,2.4c0,1.1,-1.1,1.7,-2.7,1.7c-1.7,0,-3.1,-0.6,-3.1,-1.7l0,-0.9l-3.4,0Zm17.1,-2.4c0,5.4,4.4,6,6.7,6c0.7,0,1.2,-0.1,1.2,-0.1l0,-3.2c0,0,-0.3,0,-0.7,0c-1.2,0,-3.2,-0.4,-3.2,-3.1l0,-6.7l3.6,0l0,-3l-3.6,0l0,-4.3l-3.9,0l0,4.3l-2.5,0l0,3l2.4,0Z" class="g5_214" />
<path d="M133,938.5c0,6.4,4.9,11.5,11.6,11.5c3.1,0,8.8,-1,8.8,-4.3l0,-3.1l-3.7,0l0,1.7c0,1.8,-3.5,2.2,-4.8,2.2c-4.4,0,-7.7,-3.2,-7.7,-8.2c0,-4.7,3.1,-7.7,7.4,-7.7c1.8,0,4.8,0.5,4.8,2.2l0,1.7l3.7,0l0,-3c0,-3.5,-6,-4.4,-8.7,-4.4c-6.4,0,-11.4,4.8,-11.4,11.4m22.6,11.2l8.5,0l0,-3l-2.2,0l0,-4.4c0,-2.9,1.7,-5.3,4.5,-5.3c2,0,2.5,1.3,2.5,3.2l0,9.5l6.3,0l0,-3l-2.3,0l0,-7.3c0,-4.2,-2,-6.1,-5.6,-6.1c-2.7,0,-4.7,1.7,-5.5,3.2c0,0,0.1,-0.5,0.1,-1.3l0,-7.8l-6.5,0l0,3l2.5,0l0,16.3l-2.3,0Zm21.1,-8c0,4.5,3.3,8.3,8.6,8.3c4,0,6.4,-2.2,6.4,-2.2L190.2,945c0,0,-2,1.7,-4.6,1.7c-2.4,0,-4.6,-1.5,-4.8,-4.5l11,0c0,0,0.1,-0.8,0.1,-1.3c0,-4.2,-2.5,-7.6,-7.1,-7.6c-4.8,0,-8.1,3.5,-8.1,8.4m4.2,-1.8c0.3,-2.1,1.8,-3.5,3.8,-3.5c1.7,0,3.1,1.3,3.1,3.5Zm12.9,1.8c0,5.2,4.2,8.3,8.8,8.3c3.1,0,5.5,-1.4,6.6,-2.4l-1.4,-2.8c-0.8,0.6,-2.7,1.9,-4.9,1.9c-2.8,0,-5.1,-1.8,-5.1,-5.1c0,-2.9,1.8,-4.9,4.7,-4.9c1.4,0,3,0.5,3,1.6l0,1l3.5,0l0,-2.2c0,-2.8,-3.9,-3.8,-6.6,-3.8c-4.9,0,-8.6,3.7,-8.6,8.4m17,8l8.1,0l0,-3l-1.8,0l0,-4l1,0c0.5,0,1,0,1.4,0.6l2.8,5c0.7,1.2,1.2,1.4,2.5,1.4l3,0l0,-3l-0.9,0c-0.7,0,-1,-0.1,-1.3,-0.6l-2.3,-3.9c-0.6,-1.1,-1.2,-1.4,-1.2,-1.4l3.5,-4.1l2.1,0l0,-3l-7.7,0l0,3l1.8,0l-2.6,3l-2.1,0l0,-12.3l-6.4,0l0,3l2.5,0l0,16.3l-2.4,0Z" class="g5_214" />
<path d="M133,904.8c0,6.5,4.9,11.6,11.6,11.6c3.1,0,8.8,-1,8.8,-4.3l0,-3.1l-3.7,0l0,1.7c0,1.8,-3.5,2.2,-4.8,2.2c-4.4,0,-7.7,-3.2,-7.7,-8.2c0,-4.7,3.1,-7.7,7.4,-7.7c1.8,0,4.8,0.5,4.8,2.2l0,1.7l3.7,0l0,-3c0,-3.5,-6,-4.5,-8.7,-4.5c-6.4,0,-11.4,4.9,-11.4,11.4m22.5,6.8c0,3.2,2.6,4.8,5.3,4.8c3.7,0,5.1,-3,5.1,-3c0,0,-0.1,0.3,-0.1,0.8l0,0.2c0,0.9,0.6,1.7,2.1,1.7l3.7,0l0,-3l-1.4,0c-0.5,0,-0.7,-0.2,-0.7,-0.7l0,-6.4c0,-4.1,-2.3,-6.3,-6.6,-6.3c-3.8,0,-6.3,2,-6.3,2l1.5,2.7c0,0,2.1,-1.5,4.5,-1.5c1.6,0,2.9,0.7,2.9,2.8l0,0.5l-1,0c-2.6,0,-9,0.5,-9,5.4m4,-0.3c0,-2.4,3.8,-2.7,5.4,-2.7l0.7,0l0,0.5c0,2,-1.6,4.4,-3.7,4.4c-1.5,0,-2.4,-1,-2.4,-2.2m14,4.8l8.6,0l0,-3l-2.3,0l0,-4.2c0,-2.8,1.7,-5.6,4.5,-5.6c2,0,2.6,1.4,2.6,3.3l0,9.5l6.2,0l0,-3l-2.3,0l0,-7.3c0,-4.2,-1.9,-6.1,-5.3,-6.1c-4,0,-5.7,3.1,-5.9,3.6l-0.1,0c0,0,0.1,-0.4,0.1,-0.7l0,-0.7c0,-1.2,-0.7,-1.8,-2.1,-1.8l-4.2,0l0,3l1.8,0c0.4,0,0.7,0.2,0.7,0.7l0,9.3l-2.3,0Zm22.6,-7.2l9.4,0l0,-3.5l-9.4,0l0,3.5Zm12.8,7.2l9.7,0c1.8,0,3.4,-0.2,4.9,-0.7c4.2,-1.4,6.9,-5.2,6.9,-10.5c0,-5.4,-2.9,-9.3,-7.2,-10.5c-1.5,-0.5,-2.9,-0.6,-4.7,-0.6l-9.6,0l0,3.1l2.7,0l0,16.1l-2.7,0Zm6.8,-3.3l0,-15.7l2.7,0c1.3,0,2.3,0.1,3.5,0.5c2.6,1,4.3,3.6,4.3,7.3c0,3.7,-1.6,6.3,-4.2,7.3c-1.1,0.4,-2.2,0.6,-3.6,0.6Zm16.9,-4.7c0,4.9,3.9,8.3,8.8,8.3c4.8,0,8.7,-3.4,8.7,-8.3c0,-4.9,-3.9,-8.4,-8.8,-8.4c-4.8,0,-8.7,3.5,-8.7,8.4m4,0c0,-3,2.2,-5,4.8,-5c2.5,0,4.7,2,4.7,5c0,3,-2.2,5,-4.7,5c-2.6,0,-4.8,-2,-4.8,-5Z" class="g5_214" />
<text 
x="307" 
y="855" 
dx="0,0,0,-0.3,0,-0.2,0,0,0,-0.2,0,0,0,0,0,0,0,0,0,-0.2,0,0,0,0,0,0,0,0,0,0,0,0,0,0,0,-0.5,0,0,0,0,-0.2,0,0,0,0,0,0,0,0,0,0,0,0,0,0,0,-0.1,-0.2,0,0,0,0,0" 
class="s7_214"
>Before proceeding to Lesson 17, make sure you can complete the </text>

<text 
x="307" 
y="873" 
dx="0,-0.3,0,0,0,0,0,0,0,0,0,0,0,0,-0.2,0,0,0,0,0,0,0,0,0,0,0,0" 
class="s7_214"
>following tasks in Chinese:</text>

<text 
x="404" 
y="907" 
dx="0" 
class="s8_214"
>±</text>

<text 
x="431" 
y="907" 
dx="0,0,0,0,0,0,0,0,0,0,0,0,0,0,-0.2,0,0,-0.1,-0.1,0,0,0,0,0,0,0,0,-0.2,0,0,0,0,0,0,-0.2,0,0,0,0,0,0,0,0,0,0,0,0,-0.2" 
class="s9_214"
>Describe how to get close to and relax in nature</text>

<text 
x="404" 
y="927" 
dx="0" 
class="s8_214"
>±</text>

<text 
x="431" 
y="927" 
dx="0,-1.2,0,0,0,0,0,0,0,0,0,0,0,0,0,0,0,0,-0.2,0,0,0,0,-0.2,0,0,0,0,0,0,0,0,0,0,0,0,0,0,-0.2,0,0,0,0,0" 
class="s9_214"
>Talk about indicators of a clean environment</text>

<text 
x="404" 
y="946" 
dx="0" 
class="s8_214"
>±</text>

<text 
x="431" 
y="946" 
dx="0,0,0,0,0,0,0,0,0,0,-0.2,0,0,0,0,0,0,0,0,-0.2,0,0,0,0,0,0,0,0,0,0,0,0,0,0" 
class="s9_214"
>Discuss green and renewable energy</text>

<text 
x="404" 
y="966" 
dx="0" 
class="s8_214"
>±</text>

<text 
x="431" 
y="966" 
dx="0,-0.3,0,0,0,0,0,0,0,0,0,0,0,0,-0.1,-0.3,-0.4,0,0,0,0,0,0,0,0,0,0,0,0,0,0,0,-0.2,0" 
class="s9_214"
>Explain what government can do to </text>

<text 
x="431" 
y="986" 
dx="0,-0.2,0,0,0,0,0,0,0,0,0,0,0,0,0,0" 
class="s9_214"
>reduce pollution</text>

<text 
x="404" 
y="1006" 
dx="0" 
class="s8_214"
>±</text>

<text 
x="431" 
y="1006" 
dx="0,0,0,0,0,0,0,0,0,0,0,0,0,0,0,0,0,0,0,0,0,0,0,0,0,0,0,0,0,0,0,0,0,0,-0.2,0,0,0,-0.2,-0.1,-0.2,0,0,0" 
class="s9_214"
>Identify what individuals can do to protect </text>

<text 
x="431" 
y="1026" 
dx="0,0,0,0,0,0,0,0,0,-0.2,0,0,0,0,0" 
class="s9_214"
>the environment</text>

<path d="M309.9,953.6l7.9,0l0,-2.5l-2.2,0l0,-13.4l2.2,0l0,-2.5l-7.9,0l0,2.5l2.2,0l0,13.4l-2.2,0ZM326,947c0,4.3,3.4,6.9,7.3,6.9c2.5,0,4.5,-1.2,5.4,-2l-1.1,-2.4c-0.8,0.6,-2.3,1.6,-4.2,1.6c-2.2,0,-4.1,-1.4,-4.1,-4.2c0,-2.4,1.5,-4,3.9,-4c1.1,0,2.5,0.4,2.5,1.3l0,0.8l2.8,0l0,-1.8c0,-2.3,-3.2,-3.2,-5.4,-3.2c-4.1,0,-7.1,3.1,-7.1,7m14,2.9c0,2.7,2.2,4,4.4,4c3.1,0,4.2,-2.5,4.2,-2.5l0.1,0c0,0,-0.1,0.2,-0.1,0.6l0,0.2c0,0.8,0.5,1.4,1.7,1.4l3.1,0l0,-2.5l-1.2,0c-0.4,0,-0.6,-0.1,-0.6,-0.5l0,-5.3c0,-3.4,-1.9,-5.3,-5.4,-5.3c-3.2,0,-5.3,1.7,-5.3,1.7l1.2,2.3c0,0,1.8,-1.3,3.8,-1.3c1.4,0,2.4,0.6,2.4,2.3l0,0.4l-0.8,0c-2.1,0,-7.5,0.4,-7.5,4.5m3.4,-0.3c0,-2,3.1,-2.2,4.4,-2.2l0.6,0l0,0.5c0,1.6,-1.3,3.5,-3.1,3.5c-1.2,0,-1.9,-0.8,-1.9,-1.8m11.5,4l7.1,0l0,-2.5l-1.9,0l0,-3.4c0,-2.4,1.4,-4.6,3.8,-4.6c1.7,0,2.1,1.1,2.1,2.7l0,7.8l5.2,0l0,-2.5l-1.9,0l0,-6c0,-3.5,-1.6,-5.1,-4.4,-5.1c-3.4,0,-4.8,2.6,-4.9,3l-0.1,0c0,0,0.1,-0.3,0.1,-0.6l0,-0.6c0,-0.9,-0.6,-1.4,-1.7,-1.4l-3.5,0l0,2.4l1.5,0c0.3,0,0.5,0.2,0.5,0.6l0,7.7l-1.9,0Z" class="g5_214" />
<path d="M876.9,1141.6l57.3,0l0,-1222.1l-57.3,0l0,1222.1Z" class="g6_214" />
<text 
x="876" 
y="1166" 
dx="0,1.2,1.2,0" 
class="s10_214"
>191 </text>

<text 
transform="matrix(0, 1, -1, 0, 888, 471)"
dx="0,1.2,1.2,1.2,1.2,1.2,1.2,1.2,1.2,1.2" 
class="s11_214"
>Lesson 16 </text>

<text 
transform="matrix(0, 1, -1, 0, 888, 561)"
dx="0,1.2" 
class="s11_214"
>| </text>

<text 
transform="matrix(0, 1, -1, 0, 888, 578)"
dx="0,1.2,1.2,1.2,1.2,1,1.2,1.2,1.2,1.2,1.2,1.2,1.2,1.2,1.2,1.2,1,1.1,1,1.2,1.2,1.2,1.2,1.2,1.2,1.2,1.2,1.2,1.2,1.2,1.2,1.2,1.2,1.2,1.2,1.2,1.2,1.2,1.2,1.2,1.2,1.2,1.2,1.2,1.2,1.2,1.2,1.2,1.2" 
class="s11_214"
>Environmental Protection and Energy Conservation </text>

<text 
transform="matrix(0, 1, -1, 0, 888, 986)"
dx="0,1.2" 
class="s11_214"
>| </text>

<text 
transform="matrix(0, 1, -1, 0, 888, 1003)"
dx="0,1.2,1.2,1.2,1.2,1.2,1.2,1.2,1.2,1.2,1.2,1.2,1.2,1.2,0" 
class="s11_214"
>Lesson Wrap-Up </text>



<!-- Any embedded fonts defined here -->
<style type="text/css" ><![CDATA[

@font-face {
	font-family: LibreFranklin-SemiBold_czv;
	src: url("fonts/LibreFranklin-SemiBold_czv.woff") format("woff");
}

@font-face {
	font-family: Wingdings-Regular_clp;
	src: url("fonts/Wingdings-Regular_clp.woff") format("woff");
}

@font-face {
	font-family: STKaiTi-TC-Regular_cev;
	src: url("fonts/STKaiTi-TC-Regular_cev.woff") format("woff");
}

@font-face {
	font-family: STKaiTi-TC-Bold_cdt;
	src: url("fonts/STKaiTi-TC-Bold_cdt.woff") format("woff");
}

@font-face {
	font-family: LibreFranklin-SemiBold_b8j;
	src: url("fonts/LibreFranklin-SemiBold_b8j.woff") format("woff");
}

@font-face {
	font-family: LibreFranklin-Regular_cz7;
	src: url("fonts/LibreFranklin-Regular_cz7.woff") format("woff");
}

@font-face {
	font-family: STKaiti-SC-Regular_cf1;
	src: url("fonts/STKaiti-SC-Regular_cf1.woff") format("woff");
}

@font-face {
	font-family: Wingdings2_cft;
	src: url("fonts/Wingdings2_cft.woff") format("woff");
}

@font-face {
	font-family: LibreFranklin-Medium_cyp;
	src: url("fonts/LibreFranklin-Medium_cyp.woff") format("woff");
}

]]></style>

</svg>
