<?xml version="1.0" encoding="UTF-8" standalone="no"?>
<!DOCTYPE svg PUBLIC "-//W3C//DTD SVG 1.1//EN"
"http://www.w3.org/Graphics/SVG/1.1/DTD/svg11.dtd">


<!-- Page 198 -->
<svg x="0" y="0" width="921" height="1196" viewBox="0 0 921 1196" version="1.1" xmlns="http://www.w3.org/2000/svg" xmlns:xlink="http://www.w3.org/1999/xlink"
style="display: block;margin-left: auto;margin-right: auto;">
<defs>

<style type="text/css"><![CDATA[

.g1_198{
fill: none;
stroke: #007598;
stroke-width: 2.2916667;
stroke-linecap: butt;
stroke-linejoin: miter;
}
.g2_198{
fill: none;
stroke: #007598;
stroke-width: 1.5277778;
stroke-linecap: butt;
stroke-linejoin: miter;
stroke-miterlimit: 4;
}
.g3_198{
fill: none;
stroke: #007598;
stroke-width: 0.5102778;
stroke-linecap: butt;
stroke-linejoin: miter;
stroke-miterlimit: 4;
}
.g4_198{
fill: #007598;
stroke: #B2B3B7;
stroke-width: 1.5277778;
stroke-linecap: butt;
stroke-linejoin: miter;
stroke-miterlimit: 4;
}

.s1_198{
font-size: 18.33px;
font-family: LibreFranklin-ExtraBold_cyv;
fill: #007D9F;
}
.s2_198{
font-size: 27.50px;
font-family: STKaiti-SC-Bold_cdn;
fill: #3F3F40;
}
.s3_198{
font-size: 22.92px;
font-family: LibreFranklin-Bold_cyr;
fill: #007D9F;
}
.s4_198{
font-size: 27.50px;
font-family: STKaiTi-TC-Bold_cdt;
fill: #3F3F40;
}
.s5_198{
font-size: 14.51px;
font-family: LibreFranklin-Regular_cz7;
fill: #3F3F40;
}
.s6_198{
font-size: 23.68px;
font-family: STKaiti-SC-Regular_cf1;
fill: #3F3F40;
}
.s7_198{
font-size: 23.68px;
font-family: STKaiTi-TC-Regular_cev;
fill: #3F3F40;
}
.s8_198{
font-size: 15.28px;
font-family: LibreFranklin-ExtraBold_cyv;
fill: #3F3F40;
}
.s9_198{
font-size: 25.97px;
font-family: STKaiti-SC-Regular_cf1;
fill: #3F3F40;
}
.s10_198{
font-size: 25.97px;
font-family: STKaiti-SC-Bold_cdn;
fill: #007D9F;
}
.s11_198{
font-size: 25.97px;
font-family: STKaiTi-TC-Regular_cev;
fill: #3F3F40;
}
.s12_198{
font-size: 25.97px;
font-family: STKaiTi-TC-Bold_cdt;
fill: #007D9F;
}
.s13_198{
font-size: 13.75px;
font-family: LibreFranklin-Medium_cyp;
fill: #231F20;
}
.s14_198{
font-size: 13.75px;
font-family: LibreFranklin-SemiBold_c-4;
fill: #FFFFFF;
}

]]></style>

</defs>
<path d="M0,0
L0,1196
L921,1196
L921,0 Z " 
fill="#FFFFFF" stroke="none" />
<path d="M119.2,94.3l12.2,0" class="g1_198" />
<text 
x="119" 
y="88" 
dx="0,0" 
class="s1_198"
>4 </text>

<text 
x="335" 
y="93" 
dx="0,0,0,0,0" 
class="s2_198"
>（有益）于</text>

<text 
x="473" 
y="93" 
dx="0" 
class="s3_198"
>/</text>

<text 
x="481" 
y="93" 
dx="0,0,0,0,0" 
class="s4_198"
>（有益）於</text>

<text 
x="157" 
y="155" 
dx="0,0,0,0,0,0,-0.2,0,0,0,0,0,0,0,0,0" 
class="s5_198"
>The preposition </text>

<text 
x="266" 
y="156" 
dx="0" 
class="s6_198"
>于</text>

<text 
x="290" 
y="155" 
dx="0" 
class="s5_198"
>/</text>

<text 
x="295" 
y="156" 
dx="0" 
class="s7_198"
>於</text>

<text 
x="322" 
y="155" 
dx="0,0,0,0,-0.1,0,0,0,0,0,0,0,0,0,0,0,0,0,0,0,0,0,-0.3,0,0,0,0,0,0,0,0,0,0,0,0,0,0,0,-0.2,0,-0.2,0,0,0,0,0,-0.2,0,0,0,0,0,-0.4,0,0,0,0" 
class="s5_198"
>is generally used in formal Chinese, often after a verb. </text>

<text 
x="683" 
y="156" 
dx="0" 
class="s6_198"
>于</text>

<text 
x="707" 
y="155" 
dx="0" 
class="s5_198"
>/</text>

<text 
x="712" 
y="156" 
dx="0" 
class="s7_198"
>於</text>

<text 
x="739" 
y="155" 
dx="0,0,0,0" 
class="s5_198"
>has </text>

<text 
x="157" 
y="182" 
dx="0,0,0,0,0,0,0,0,0,0,0,0,0,0,0,0,0,0" 
class="s5_198"
>many meanings. In </text>

<text 
x="285" 
y="184" 
dx="0,0,0" 
class="s6_198"
>有益于</text>

<text 
x="356" 
y="182" 
dx="0" 
class="s5_198"
>/</text>

<text 
x="361" 
y="184" 
dx="0,0,0" 
class="s7_198"
>有益於</text>

<text 
x="432" 
y="182" 
dx="0,0" 
class="s5_198"
>, </text>

<text 
x="439" 
y="184" 
dx="0" 
class="s6_198"
>于</text>

<text 
x="462" 
y="182" 
dx="0" 
class="s5_198"
>/</text>

<text 
x="467" 
y="184" 
dx="0" 
class="s7_198"
>於</text>

<text 
x="494" 
y="182" 
dx="0,0,0,0,0,0" 
class="s5_198"
>means </text>

<text 
x="543" 
y="184" 
dx="0" 
class="s6_198"
>对</text>

<text 
x="566" 
y="182" 
dx="0" 
class="s5_198"
>/</text>

<text 
x="571" 
y="184" 
dx="0" 
class="s7_198"
>對</text>

<text 
x="598" 
y="182" 
dx="0,0,-0.2,0,0,0" 
class="s5_198"
>(to). </text>

<text 
x="627" 
y="184" 
dx="0,0,0" 
class="s6_198"
>有益于</text>

<text 
x="698" 
y="182" 
dx="0" 
class="s5_198"
>/</text>

<text 
x="703" 
y="184" 
dx="0,0,0" 
class="s7_198"
>有益於</text>

<text 
x="157" 
y="210" 
dx="0,0,0,0,0,0,0,0,0,0,0,0,0,0,0,0,0,0,0,0,0,0,0,0" 
class="s5_198"
>has the same meaning as </text>

<text 
x="330" 
y="211" 
dx="0,0,0,0,0" 
class="s6_198"
>对…有好处</text>

<text 
x="448" 
y="210" 
dx="0" 
class="s5_198"
>/</text>

<text 
x="453" 
y="211" 
dx="0,0,0,0,0" 
class="s7_198"
>對…有好處</text>

<text 
x="575" 
y="210" 
dx="0,0,0,0.4,-0.9,0,0,-0.1,0,0,0,0,0,0,0,0,0,0,0,0,0,0,0,0,0,0,-0.2,0,0,0,0,0,0,0,0,0" 
class="s5_198"
>(It’s good or beneficial to . . . ).</text>

<text 
x="169" 
y="266" 
dx="0,0" 
class="s8_198"
>A </text>

<text 
x="239" 
y="268" 
dx="0,0,0,0,0,0,0,0,0,0,0,0,0,0,0,0,0,0,0" 
class="s9_198"
>大家觉得骑自行车又能锻炼身体，又省钱，</text>

<text 
x="239" 
y="302" 
dx="0,0" 
class="s9_198"
>而且</text>

<text 
x="291" 
y="302" 
dx="0,0,0" 
class="s10_198"
>有益于</text>

<text 
x="369" 
y="302" 
dx="0,0,0,0,0" 
class="s9_198"
>环境保护。</text>

<text 
x="239" 
y="342" 
dx="0,0,0,0,0,0,0,0,0,0,0,0,0,0,0,0,0,0,0" 
class="s11_198"
>大家覺得騎自行車又能鍛煉身體，又省錢，</text>

<text 
x="239" 
y="376" 
dx="0,0" 
class="s11_198"
>而且</text>

<text 
x="291" 
y="376" 
dx="0,0,0" 
class="s12_198"
>有益於</text>

<text 
x="369" 
y="376" 
dx="0,0,0,0,0" 
class="s11_198"
>環境保護。</text>

<text 
x="245" 
y="410" 
dx="0,-0.9,-0.4,0,0,0,0,0,0,0,0,-0.3,0,0,0,0,0,0,0,0,0,0,0,0,0,0,0,0,0,0,0,0,-0.1,0,0,0,0,-0.3,-0.4,0,-0.2,0,0,0,0,0,0,0,0,0,0,0,-0.4,0,0,0,0,0,0,0,-1,0,0,-0.5,0,0,0,0,0,0,0,0,-0.2,0,0" 
class="s5_198"
>Everybody feels that biking is good exercise and saves money. Furthermore, </text>

<text 
x="245" 
y="430" 
dx="0,0,0,0,0,0,0,0,0,0,-0.2,0,0,0,-0.2,-0.1,-0.2,0,0,0,0,0,0,0,0,0,0,0,0,-0.2,0,0,0,0,0,0" 
class="s5_198"
>it helps to protect the environment.</text>

<text 
x="169" 
y="488" 
dx="0,0" 
class="s8_198"
>B </text>

<text 
x="239" 
y="491" 
dx="0,0,0,0,0" 
class="s9_198"
>多听录音，</text>

<text 
x="369" 
y="491" 
dx="0,0,0" 
class="s10_198"
>有益于</text>

<text 
x="447" 
y="491" 
dx="0,0,0,0,0" 
class="s9_198"
>中文学习。</text>

<text 
x="239" 
y="531" 
dx="0,0,0,0,0" 
class="s11_198"
>多聽錄音，</text>

<text 
x="369" 
y="531" 
dx="0,0,0" 
class="s12_198"
>有益於</text>

<text 
x="447" 
y="531" 
dx="0,0,0,0,0" 
class="s11_198"
>中文學習。</text>

<text 
x="245" 
y="565" 
dx="0,0,0,0,-0.2,0,0,0,0,0,0,-0.2,0,0,-0.2,0,0,0,-0.2,0,0,0,0,0,0,0,0,-0.2,0,0,0,0,0,0,0,0,0,0,0,0,0,0,0,0,-0.3,0,0,0,0,0,0,0,0,0,0,0,0,0,0,0,0,0,0,0" 
class="s5_198"
>Listening to recordings more is beneficial for learning Chinese.</text>

<text 
x="169" 
y="624" 
dx="0,0" 
class="s8_198"
>C </text>

<text 
x="239" 
y="626" 
dx="0,0,0,0,0,0,0" 
class="s9_198"
>多听别人意见，</text>

<text 
x="421" 
y="626" 
dx="0,0,0" 
class="s10_198"
>有益于</text>

<text 
x="499" 
y="626" 
dx="0,0,0,0,0" 
class="s9_198"
>与人相处。</text>

<text 
x="239" 
y="666" 
dx="0,0,0,0,0,0,0" 
class="s11_198"
>多聽別人意見，</text>

<text 
x="421" 
y="666" 
dx="0,0,0" 
class="s12_198"
>有益於</text>

<text 
x="499" 
y="666" 
dx="0,0,0,0,0" 
class="s11_198"
>與人相處。</text>

<text 
x="245" 
y="700" 
dx="0,0,0,0,-0.2,0,0,0,0,0,0,-0.2,0,0,-0.1,0,0,0,0,0,0,0,0,-0.2,0,0,0,0,0,0,0,0,-0.2,0,0,0,0,-0.3,0,0,0,-0.1,-0.1,0,0,0,0,0,0,0,0,0,0,0,0,0,0,0,0,0,0,0,0,0,0,0" 
class="s5_198"
>Listening to others more is helpful for getting along with people.</text>

<text 
x="169" 
y="759" 
dx="0,0" 
class="s8_198"
>D </text>

<text 
x="239" 
y="761" 
dx="0,0,0,0" 
class="s9_198"
>体育运动</text>

<text 
x="343" 
y="761" 
dx="0,0,0" 
class="s10_198"
>有益于</text>

<text 
x="421" 
y="761" 
dx="0,0,0,0,0" 
class="s9_198"
>身体健康。</text>

<text 
x="239" 
y="802" 
dx="0,0,0,0" 
class="s11_198"
>體育運動</text>

<text 
x="343" 
y="802" 
dx="0,0,0" 
class="s12_198"
>有益於</text>

<text 
x="421" 
y="802" 
dx="0,0,0,0,0" 
class="s11_198"
>身體健康。</text>

<text 
x="245" 
y="835" 
dx="0,0,0,0,0,0,0,0,0,-0.2,0,0,-0.1,0,0,0,0,-0.3,0,0,0,0,0,0,0,0,0,0,0,0,0,0" 
class="s5_198"
>Sports are good for your health.</text>

<path d="M147.8,56.2l0,53.5l0,0.8l0.8,0l676.9,0l0.8,0l0,-0.8l0,-53.5l0,-0.7l-0.8,0l-676.9,0l-0.8,0l0,0.7Z" class="g2_198" />
<path d="M149.9,108.4l674.3,0l0,-50.9l-674.3,0l0,50.9Z" class="g3_198" />
<path d="M163.5,244.4c-0.1,0,-7.7,0.1,-7.7,7.7l0,19.7c0,0.1,0.1,7.6,7.7,7.6l22.4,0c0.1,0,7.6,-0.1,7.6,-7.6l0,-19.7c0,-0.1,0,-7.7,-7.6,-7.7l-22.4,0Z" class="g2_198" />
<path d="M163.5,246.5c-0.6,0,-5.6,0.2,-5.6,5.6l0,19.7c0,0.5,0.2,5.6,5.6,5.6l22.4,0c0.6,0,5.6,-0.2,5.6,-5.6l0,-19.7c0,-0.6,-0.2,-5.6,-5.6,-5.6l-22.4,0Z" class="g3_198" />
<path d="M163.5,465.2c-0.1,0,-7.7,0.1,-7.7,7.6l0,19.7c0,0.1,0.1,7.7,7.7,7.7l22.4,0c0.1,0,7.6,-0.1,7.6,-7.7l0,-19.7c0,0,0,-7.6,-7.6,-7.6l-22.4,0Z" class="g2_198" />
<path d="M163.5,467.2c-0.6,0,-5.6,0.3,-5.6,5.6l0,19.7c0,0.6,0.2,5.6,5.6,5.6l22.4,0c0.6,0,5.6,-0.2,5.6,-5.6l0,-19.7c0,-0.5,-0.2,-5.6,-5.6,-5.6l-22.4,0Z" class="g3_198" />
<path d="M163.5,600.4c-0.1,0,-7.7,0.1,-7.7,7.6l0,19.7c0,0.1,0.1,7.7,7.7,7.7l22.4,0c0.1,0,7.6,-0.1,7.6,-7.7l0,-19.7c0,0,0,-7.6,-7.6,-7.6l-22.4,0Z" class="g2_198" />
<path d="M163.5,602.4c-0.6,0,-5.6,0.2,-5.6,5.6l0,19.7c0,0.6,0.2,5.6,5.6,5.6l22.4,0c0.6,0,5.6,-0.2,5.6,-5.6l0,-19.7c0,-0.5,-0.2,-5.6,-5.6,-5.6l-22.4,0Z" class="g3_198" />
<path d="M163.5,735.6c-0.1,0,-7.7,0.1,-7.7,7.7l0,19.6c0,0.1,0.1,7.7,7.7,7.7l22.4,0c0.1,0,7.6,-0.1,7.6,-7.7l0,-19.6c0,-0.1,0,-7.7,-7.6,-7.7l-22.4,0Z" class="g2_198" />
<path d="M163.5,737.6c-0.6,0.1,-5.6,0.3,-5.6,5.7l0,19.6c0,0.6,0.2,5.6,5.6,5.6l22.4,0c0.6,0,5.6,-0.2,5.6,-5.6l0,-19.6c0,-0.6,-0.2,-5.7,-5.6,-5.7l-22.4,0Z" class="g3_198" />
<path d="M876.9,1141.6l57.3,0l0,-1222.1l-57.3,0l0,1222.1Z" class="g4_198" />
<text 
x="874" 
y="1166" 
dx="0,1.2,1.2,0" 
class="s13_198"
>175 </text>

<text 
transform="matrix(0, 1, -1, 0, 888, 528)"
dx="0,1.2,1.2,1.2,1.2,1.2,1.2,1.2,1.2,1.2" 
class="s14_198"
>Lesson 16 </text>

<text 
transform="matrix(0, 1, -1, 0, 888, 618)"
dx="0,1.2" 
class="s14_198"
>| </text>

<text 
transform="matrix(0, 1, -1, 0, 888, 635)"
dx="0,1.2,1.2,1.2,1.2,1,1.2,1.2,1.2,1.2,1.2,1.2,1.2,1.2,1.2,1.2,1,1.1,1,1.2,1.2,1.2,1.2,1.2,1.2,1.2,1.2,1.2,1.2,1.2,1.2,1.2,1.2,1.2,1.2,1.2,1.2,1.2,1.2,1.2,1.2,1.2,1.2,1.2,1.2,1.2,1.2,1.2,1.2" 
class="s14_198"
>Environmental Protection and Energy Conservation </text>

<text 
transform="matrix(0, 1, -1, 0, 888, 1043)"
dx="0,1.2" 
class="s14_198"
>| </text>

<text 
transform="matrix(0, 1, -1, 0, 888, 1060)"
dx="0,1.2,1.2,1.2,1.2,1.2,1.2,0" 
class="s14_198"
>Grammar </text>



<!-- Any embedded fonts defined here -->
<style type="text/css" ><![CDATA[

@font-face {
	font-family: STKaiti-SC-Bold_cdn;
	src: url("fonts/STKaiti-SC-Bold_cdn.woff") format("woff");
}

@font-face {
	font-family: LibreFranklin-Bold_cyr;
	src: url("fonts/LibreFranklin-Bold_cyr.woff") format("woff");
}

@font-face {
	font-family: STKaiTi-TC-Regular_cev;
	src: url("fonts/STKaiTi-TC-Regular_cev.woff") format("woff");
}

@font-face {
	font-family: STKaiTi-TC-Bold_cdt;
	src: url("fonts/STKaiTi-TC-Bold_cdt.woff") format("woff");
}

@font-face {
	font-family: LibreFranklin-Regular_cz7;
	src: url("fonts/LibreFranklin-Regular_cz7.woff") format("woff");
}

@font-face {
	font-family: STKaiti-SC-Regular_cf1;
	src: url("fonts/STKaiti-SC-Regular_cf1.woff") format("woff");
}

@font-face {
	font-family: LibreFranklin-ExtraBold_cyv;
	src: url("fonts/LibreFranklin-ExtraBold_cyv.woff") format("woff");
}

@font-face {
	font-family: LibreFranklin-SemiBold_c-4;
	src: url("fonts/LibreFranklin-SemiBold_c-4.woff") format("woff");
}

@font-face {
	font-family: LibreFranklin-Medium_cyp;
	src: url("fonts/LibreFranklin-Medium_cyp.woff") format("woff");
}

]]></style>

</svg>
