<?xml version="1.0" encoding="UTF-8" standalone="no"?>
<!DOCTYPE svg PUBLIC "-//W3C//DTD SVG 1.1//EN"
"http://www.w3.org/Graphics/SVG/1.1/DTD/svg11.dtd">


<!-- Page 178 -->
<svg x="0" y="0" width="921" height="1196" viewBox="0 0 921 1196" version="1.1" xmlns="http://www.w3.org/2000/svg" xmlns:xlink="http://www.w3.org/1999/xlink"
style="display: block;margin-left: auto;margin-right: auto;">
<defs>

<style type="text/css"><![CDATA[

.g1_178{
fill: #D4EFFB;
}
.g2_178{
fill: #00AEEF;
stroke: #B2B3B7;
stroke-width: 1.5277778;
stroke-linecap: butt;
stroke-linejoin: miter;
stroke-miterlimit: 4;
}
.g3_178{
fill: none;
stroke: #231F20;
stroke-width: 0.7638889;
stroke-linecap: butt;
stroke-linejoin: miter;
}

.s1_178{
font-size: 13.75px;
font-family: LibreFranklin-Medium_cxm;
fill: #231F20;
}
.s2_178{
font-size: 13.75px;
font-family: LibreFranklin-SemiBold_cxu;
fill: #FFFFFF;
}
.s3_178{
font-size: 14.51px;
font-family: LibreFranklin-Regular_cy1;
fill: #3F3F40;
}

]]></style>

</defs>
<path d="M0,0
L0,1196
L921,1196
L921,0 Z " 
fill="#FFFFFF" stroke="none" />
<path d="M0,1209.2l935,0L935,-12.9l-935,0L0,1209.2Z" class="g1_178" />
<path d="M876.9,1141.6l57.3,0l0,-1153.4l-57.3,0l0,1153.4Z" class="g2_178" />
<text 
x="874" 
y="1166" 
dx="0,1.2,1.2,0" 
class="s1_178"
>155 </text>

<text 
transform="matrix(0, 1, -1, 0, 888, 849)"
dx="0,1.2,1.2,1.2,1.2,1.2,1.2,1.2,1.2,1.2,1.2,1.2,1.2,-0.3,1.2,1,1.1,1.2,1.2,1.2,1.2,1.2,1.2,1.2,1.2,1.2,1.2,1.2,1.2,1.2,1.2,1.2,1.2,1.2,1.2,1.2" 
class="s2_178"
>Bringing It Together (Lessons 11–15)</text>

<text 
x="197" 
y="69" 
dx="0,0" 
class="s3_178"
>• </text>

<text 
x="215" 
y="69" 
dx="0,0,0,0,0,0,0,0,0,0,0,0,0,0,0,0,-0.1,0,0,0,0,0,0,0,0,0,0,0" 
class="s3_178"
>talk about changes in a city</text>

<path d="M198.6,154.6l259.7,0" class="g3_178" />
<path d="M524.8,154.6l259.7,0" class="g3_178" />
<path d="M198.6,201.9l259.7,0" class="g3_178" />
<path d="M524.8,201.9l259.7,0" class="g3_178" />
<path d="M198.6,249.3l259.7,0" class="g3_178" />
<path d="M524.8,249.3l259.7,0" class="g3_178" />
<path d="M198.6,296.7l259.7,0" class="g3_178" />
<path d="M524.8,296.7l259.7,0" class="g3_178" />
<text 
x="313" 
y="104" 
dx="0,0,0,0" 
class="s3_178"
>past</text>

<text 
x="628" 
y="104" 
dx="0,0,-0.2,0,0,0,0" 
class="s3_178"
>present</text>

<text 
x="197" 
y="344" 
dx="0,0" 
class="s3_178"
>• </text>

<text 
x="215" 
y="344" 
dx="0,-0.2,0,-0.3,0,0,0,0,0,0,0,0,0,0,0,0,0,0,0,0,0,-0.2,0,0,0,0,0,0,0,-0.2,0,0,0,0,0,0,0,0,0,0,0,0,0,0,0,0,0,0,0,0,0" 
class="s3_178"
>offer advice and share ways to stay healthy and fit</text>

<path d="M198.6,430l259.7,0" class="g3_178" />
<path d="M524.8,430l259.7,0" class="g3_178" />
<path d="M198.6,477.3l259.7,0" class="g3_178" />
<path d="M524.8,477.3l259.7,0" class="g3_178" />
<path d="M198.6,524.7l259.7,0" class="g3_178" />
<path d="M524.8,524.7l259.7,0" class="g3_178" />
<path d="M198.6,572l259.7,0" class="g3_178" />
<path d="M524.8,572l259.7,0" class="g3_178" />
<text 
x="284" 
y="379" 
dx="0,0,0,0,0,0,0,0,0,0,0,0,0" 
class="s3_178"
>eating habits</text>

<text 
x="617" 
y="379" 
dx="0,-0.1,0,0,0,0,0,0,0,0" 
class="s3_178"
>other ways</text>

<text 
x="197" 
y="619" 
dx="0,0" 
class="s3_178"
>• </text>

<text 
x="215" 
y="619" 
dx="0,0,0,0,0,0,0,0,0,0,0,0,0,0,0,0,0,0,0,0,0,0,0,0,0,0,0,0,0,0,0,-0.2,0,0,0,0,0,0,0,-0.2,0,0,0,0,0,0,0,-0.1,0,0,0,0,0,0,0,0,0,0,0,0,0,0,0,0,0,0,0,0,0,0,0,0,0,0,0,0" 
class="s3_178"
>describe a model couple that are nice to each other or a model company that </text>

<text 
x="215" 
y="642" 
dx="0,0,0,0,0,0,0,0,0,-0.2,0,0,0,0,0,0,0,0,0,0,0,0,0,0" 
class="s3_178"
>is fair to its employees</text>

<path d="M198.6,728.3l259.7,0" class="g3_178" />
<path d="M524.8,728.3l258.3,0" class="g3_178" />
<path d="M198.6,775.6l259.7,0" class="g3_178" />
<path d="M524.8,775.6l258.3,0" class="g3_178" />
<path d="M198.6,823l259.7,0" class="g3_178" />
<path d="M524.8,823l258.3,0" class="g3_178" />
<path d="M198.6,870.3l259.7,0" class="g3_178" />
<path d="M524.8,870.3l258.3,0" class="g3_178" />
<text 
x="305" 
y="677" 
dx="0,0,0,0,0,0" 
class="s3_178"
>couple</text>

<text 
x="622" 
y="677" 
dx="0,0,0,0,0,0,0" 
class="s3_178"
>company</text>



<!-- Any embedded fonts defined here -->
<style type="text/css" ><![CDATA[

@font-face {
	font-family: LibreFranklin-SemiBold_cxu;
	src: url("fonts/LibreFranklin-SemiBold_cxu.woff") format("woff");
}

@font-face {
	font-family: LibreFranklin-Medium_cxm;
	src: url("fonts/LibreFranklin-Medium_cxm.woff") format("woff");
}

@font-face {
	font-family: LibreFranklin-Regular_cy1;
	src: url("fonts/LibreFranklin-Regular_cy1.woff") format("woff");
}

]]></style>

</svg>
