<?xml version="1.0" encoding="UTF-8" standalone="no"?>
<!DOCTYPE svg PUBLIC "-//W3C//DTD SVG 1.1//EN"
"http://www.w3.org/Graphics/SVG/1.1/DTD/svg11.dtd">


<!-- Page 254 -->
<svg x="0" y="0" width="921" height="1196" viewBox="0 0 921 1196" version="1.1" xmlns="http://www.w3.org/2000/svg" xmlns:xlink="http://www.w3.org/1999/xlink"
style="display: block;margin-left: auto;margin-right: auto;">
<defs>
<clipPath id="c0_254"><path d="M121.4,76.6l0,-26.2l26.1,0l0,26.2Z" /></clipPath>
<clipPath id="c1_254"><path d="M121.4,138.7l0,-26.1l26.1,0l0,26.1Z" /></clipPath>
<clipPath id="c2_254"><path d="M121.4,202.8l0,-26.2l26.1,0l0,26.2Z" /></clipPath>
<clipPath id="c3_254"><path d="M121.4,264.9l0,-26.2l26.1,0l0,26.2Z" /></clipPath>
<clipPath id="c4_254"><path d="M121.4,327.9l0,-26.2l26.1,0l0,26.2Z" /></clipPath>
<clipPath id="c5_254"><path d="M121.4,390l0,-26.1l26.1,0l0,26.1Z" /></clipPath>
<clipPath id="c6_254"><path d="M0,1196.3L0,0L921.3,0l0,1196.3Z" /></clipPath>

<style type="text/css"><![CDATA[

.g1_254{
fill: #F15422;
}
.g2_254{
fill: #AF0C14;
}
.g3_254{
fill: #00A54F;
}
.g4_254{
fill: none;
stroke: #9B9B9C;
stroke-width: 1.5277778;
stroke-linecap: butt;
stroke-linejoin: miter;
}
.g5_254{
fill: none;
stroke: #F8D3C4;
stroke-width: 1.5277778;
stroke-linecap: butt;
stroke-linejoin: miter;
stroke-miterlimit: 4;
}
.g6_254{
fill: #DC262E;
}
.g7_254{
fill: none;
stroke: #B2B3B7;
stroke-width: 0.4323611;
stroke-linecap: butt;
stroke-linejoin: miter;
stroke-miterlimit: 4;
}

.s1_254{
font-size: 25.97px;
font-family: STKaiTi-TC-Regular_cev;
fill: #3F3F40;
}
.s2_254{
font-size: 16.81px;
font-family: LibreFranklin-SemiBold_dai;
fill: #DC262E;
}
.s3_254{
font-size: 12.22px;
font-family: LibreFranklin-Regular_d9v;
fill: #3F3F40;
}
.s4_254{
font-size: 16.81px;
font-family: MuseoSans-700_d9u;
fill: #DC262E;
}
.s5_254{
font-size: 15.28px;
font-family: LibreFranklin-Bold_d98;
fill: #939598;
}
.s6_254{
font-size: 16.81px;
font-family: SourceHanSansTW-Regular_chz;
fill: #3F3F40;
}
.s7_254{
font-size: 13.75px;
font-family: LibreFranklin-Medium_d9h;
fill: #231F20;
}
.s8_254{
font-size: 13.75px;
font-family: LibreFranklin-SemiBold_dai;
fill: #FFFFFF;
}

]]></style>

</defs>
<path d="M0,0
L0,1196
L921,1196
L921,0 Z " 
fill="#FFFFFF" stroke="none" />
<text 
x="148" 
y="73" 
dx="0,0,0,0,0" 
class="s1_254"
>什麼聲音？</text>

<text 
x="148" 
y="136" 
dx="0,0,0,0,0,0,0" 
class="s1_254"
>歷史的腳步聲。</text>

<text 
x="148" 
y="198" 
dx="0,0,0,0,0,0,0,0,0,0" 
class="s1_254"
>我也聽到了一個聲音。</text>

<text 
x="148" 
y="261" 
dx="0,0,0,0,0,0,0,0,0" 
class="s1_254"
>你要說肚子叫的……</text>

<text 
x="148" 
y="324" 
dx="0,0,0" 
class="s1_254"
>對了。</text>

<text 
x="148" 
y="386" 
dx="0,0,0,0,0,0,0,0" 
class="s1_254"
>你們在說什麼呀？</text>

<path d="M135,63.2C134.9,63,135.1,63,135.1,63c0.1,0,0.2,0.1,0.2,0.2c0,0.1,-0.2,0.2,-0.3,0m1.4,0.3c0,0,-0.4,-0.6,-0.8,-0.7c-0.4,-0.1,-0.6,-0.2,-0.9,-0.1c-0.4,0.1,-1.1,0.6,-1.1,0.6l0.2,0.1c0,0,0.4,-0.4,0.5,-0.4c-0.1,0.2,0,0.7,0.6,0.7c0.7,0,0.6,-0.7,0.5,-0.8c0,-0.1,0.1,-0.2,1,0.6Z" class="g1_254" />
<path d="M140.9,62.6c-0.1,0.1,-0.2,0.1,-0.3,-0.1c0,-0.2,0.1,-0.2,0.1,-0.2c0.3,0,0.3,0.2,0.2,0.3m1,-0.5c-0.2,-0.1,-0.6,-0.2,-1,-0.1c-0.3,0,-0.5,0.1,-0.7,0.3c-0.2,0.1,-0.3,0.3,-0.4,0.7c0.1,-0.2,0.1,-0.3,0.3,-0.4c0,0.3,0.2,0.6,0.5,0.5c0.3,0,0.5,-0.1,0.6,-0.4c0,-0.3,0,-0.5,-0.1,-0.6c-0.1,0,0.4,0,0.9,0.3c0.1,0.1,0.2,0,0.2,0c0,0,-0.2,-0.2,-0.3,-0.3Z" class="g1_254" />
<path d="M139.8,63c0,0,0,0.1,0,0.1c0,-0.1,0,-0.1,0,-0.1Z" class="g1_254" />
<path d="M137,61.9c0,0,-0.3,-0.4,-0.8,-0.5c-0.5,-0.1,-2,-0.3,-2.2,-0.3c-0.1,0,-0.6,0.2,-0.6,0.2c0,0,0.5,0.2,1,0.2c0.4,0,1.1,0,1.5,0.2c0.3,0.2,0.5,0.2,0.5,0.2c0.1,0,0.6,0,0.6,0Z" class="g1_254" />
<path d="M139.5,61.5c0.2,-0.1,1.6,-1.3,2.3,-1.3c0.8,0.1,0.8,0.7,0.8,0.7c0,0,-0.3,-0.2,-0.5,-0.2c-0.3,0.1,-0.7,0.1,-0.9,0.2c-0.2,0.2,-0.8,0.5,-1,0.6c-0.2,0.1,-0.7,0,-0.7,0Z" class="g1_254" />
<path d="M137.2,66.3c0,0,-0.4,0.1,-0.5,0.2c-0.2,0.2,-0.4,0.6,-0.1,0.9c0.2,0.4,0.8,0.3,0.8,0.3c0,0,-0.8,-0.2,-0.7,-0.8c0.1,-0.6,0.5,-0.6,0.5,-0.6Z" class="g1_254" />
<path d="M137.7,67.3c0.1,0,0.3,-0.2,0.5,-0.2c0.2,0.1,0.5,0.3,0.5,0.3c0.1,0,-0.1,0,-0.3,0c-0.3,-0.1,-0.7,-0.1,-0.7,-0.1Z" class="g1_254" />
<path d="M139.1,67.3c0.2,-0.1,0.4,-0.3,0.5,-0.3c0.2,-0.1,0.3,0,0.3,0c0,0.1,0,0.1,-0.1,0.1c-0.1,0,-0.7,0.2,-0.7,0.2Z" class="g1_254" />
<path d="M135.8,69.2c-0.1,-0.1,0.8,0,1.1,-0.1c0.4,0,1.1,-0.2,1.4,-0.3c0.2,0,0.6,0.2,0.6,0.2c0,0,0.1,-0.2,0.3,-0.3c0.2,0,0.6,0.1,0.8,0.1c0.2,0.1,0.6,0,0.6,0c0,0,-0.5,0.3,-0.8,0.4c-0.3,0.1,-0.7,0.3,-0.9,0.3c-0.1,0,-0.8,0,-1.1,0c-0.4,-0.1,-1.8,-0.2,-2,-0.3Z" class="g1_254" />
<path d="M140.5,69c0,0,-0.4,0.6,-0.5,0.7c-0.1,0.2,-0.5,0.6,-0.7,0.6c-0.2,0.1,-0.6,0.1,-0.6,0.1c0,0,0.6,-0.2,0.7,-0.4c0.1,-0.2,0.1,-0.4,0,-0.3c-0.2,0,-0.7,0.1,-1.1,0.1c-0.4,0,-0.8,-0.3,-0.8,-0.1c0.1,0.2,0.6,0.4,0.7,0.4c0.2,0.1,0.3,0.3,0.2,0.3c0,0,-0.8,0,-1.4,-0.3c-0.7,-0.4,-0.8,-0.6,-0.8,-0.6c0,0,0.2,-0.1,0.5,0c0.3,0,1.6,0.2,2.3,0.1c0.7,-0.2,1.5,-0.6,1.5,-0.6Z" class="g1_254" />
<path d="M138.5,73.1l-1,0c-0.4,0,-1.2,-0.2,-1.7,-0.4c-0.6,-0.2,-2,-1.2,-2.1,-1.3l-0.5,-0.8c0,0,0.3,0.9,0.3,1.1c-0.1,0.2,0.2,0.5,0.3,0.8c0.1,0.2,0.6,0.3,1,0.4c0.5,0,0.9,0,1.3,0.1c0.3,0,0.7,0.2,1.3,0.2c0.6,0,1.1,-0.1,1.1,-0.1Z" class="g1_254" />
<g clip-path="url(#c0_254)">
<path d="M142.8,75.2c-0.4,0.7,1.1,-2.7,0.9,-5.3c-0.1,-2.6,0,-5.6,-0.5,-7.2c-0.5,-1.6,-0.1,-2.3,-0.5,-4.1c-0.4,-1.9,-1.5,-3.9,-2.1,-4.4c-0.7,-0.6,-2,-1.3,-2,-1.3c0,0,1.5,0.2,2.2,1.2c0.8,1,1.6,2.6,1.8,3.1c0.2,0.5,0.6,3.2,0.7,4c0.1,0.9,0.5,3.4,0.6,4.1c0.2,0.7,0.4,4.7,0.3,5.4c-0.1,0.7,-1.1,3.9,-1.4,4.5M131.3,53.7c-0.7,0.7,-1.1,1.4,-1.6,2.1c-0.4,0.8,-1.1,2.2,-1.2,3.1c-0.1,0.8,-0.7,2.6,-0.6,3.6c0,1,0,3.5,0.1,5.1c0,1.6,0.3,7.6,-1.7,8.4c-0.2,0.1,-0.4,0.2,-0.6,0.3c-0.5,0.3,-1,0.5,-1.4,0.6c-0.4,0.2,-0.5,0.3,-0.6,0.2c0,0,0.2,-0.1,0.6,-0.2c0.3,-0.1,0.7,-0.3,1.4,-0.6c0.5,-0.3,1,-0.8,1,-1.4c0.3,-1.6,0.4,-1.4,0.4,-2.7c-0.1,-1.4,0.1,-3.5,0.1,-4.1c0,-0.5,0.2,-1.5,0.2,-2.4c0.1,-0.8,0,-1.7,0,-1.7c0,0,-0.8,5.8,-0.7,6.3c0,0.5,0,2.7,-0.1,2.8c-0.1,0,-0.1,-5.9,0.1,-6.8c0.2,-0.8,0.7,-2.6,0.7,-3.5c0,-0.9,0.6,-3.5,0.8,-4.1c0.2,-0.6,0.8,-2.4,0.9,-2.5c0.1,-0.2,1.8,-2.9,3.9,-3.7c0,0,0.1,0,0.1,0c-0.1,0,-0.1,0,-0.1,0c-0.1,0,-1,0.5,-1.7,1.2M148,76.2c0,0.3,-0.2,1.2,-0.9,1.5c-0.6,0.2,-0.6,0.2,-1.3,-0.1c-0.8,-0.3,-1.4,-0.9,-1.6,-1.5c-0.3,-0.6,-0.3,-0.8,-0.2,-1.6c0.2,-0.7,0.5,-2.1,0.5,-2.7c0,-0.6,-0.1,-2.4,-0.1,-3c0,-0.5,-0.1,-2.4,-0.3,-3.3c-0.1,-1,0.2,-1.8,-0.4,-5.2c-0.7,-3.8,-1.5,-5.4,-3.2,-7c-1.7,-1.6,-2.8,-1.7,-3.5,-2c-0.7,-0.2,-2.2,0.1,-2.5,0.1c-0.3,0,-1.6,-0.3,-2.8,0.1c-1.3,0.4,-2.9,1.8,-3.8,3.2c-0.8,1.3,-1.6,4.5,-1.9,6c-0.2,1.5,-0.9,5.2,-0.9,6.1c0,0.8,-0.7,3.8,-0.8,4.6c-0.2,0.7,-0.7,2.8,-1,3.5c-0.3,0.7,-1.3,2.3,-1.5,2.8c-0.3,0.5,-0.3,1.5,-0.3,1.5c0,0,0.4,-0.3,0.4,-0.6c0,-0.2,0.3,-0.8,0.3,-1.3c0.1,-0.5,0.8,-1.3,1,-1.8c0.2,-0.4,0.8,-1.6,0.8,-1.6c0,0,-0.3,1.5,-0.7,2.3c-0.5,0.8,-0.3,1.2,-0.8,1.7c-0.5,0.5,-0.3,0.9,-0.6,1.2c-0.4,0.3,-0.6,0.6,-0.8,0.8c-0.2,0.3,0.5,1.9,0.6,2.2c0.1,0.4,0.2,0.7,0.4,0.7c0.1,0,0.7,0,0.7,0c0,0,0.3,-1.1,0.3,-1.4c0,-0.3,0,-0.8,0.3,-1c0.3,-0.3,0.6,-0.8,0.8,-1.2c0.3,-0.4,0.7,-0.3,1.1,-0.5c0.5,-0.2,1.4,-0.4,2,-0.5c0.5,-0.2,0.7,-0.5,0.9,-0.5c0.3,-0.1,1.1,-0.1,1.2,0.2c0.1,0.3,0.1,0.5,0.4,0.6c0.4,0.2,0.4,0.3,0.8,0.5c0.3,0.2,0.5,0.2,0.8,0.1c0.3,0,1,-0.1,1,0.1c0.1,0.2,-0.1,0.6,0.3,0.5c0.4,-0.1,0.4,-0.1,0.5,-0.1c0.2,0,0.5,0.4,0.3,0.7c-0.3,0.3,0,0.8,-0.1,1.4c-0.1,0.6,-0.3,0.9,0,0.9c0.4,-0.1,0.8,-0.3,1.3,-0.3c0.4,-0.1,1.1,-0.1,1.5,-0.1c0.4,0,1.1,0.5,1.5,0.5c0.4,0,1.9,0.1,1.9,0.1c0.1,0,0.4,-0.3,0.4,-0.5c0.1,-0.2,0.6,-0.8,0.3,-0.5c-0.4,0.3,-1.1,0.6,-2,0.3c-1,-0.2,-3.7,-2.3,-3.9,-2.4c-0.1,-0.1,-1.1,-1.2,-1.1,-1.2c0,0,0.2,-0.2,0.3,-0.5c0,-0.2,-0.2,-1.4,-0.2,-1.9c-0.1,-0.5,-0.2,-1.8,-0.4,-2.3c-0.2,-0.5,-0.2,-1.3,-0.2,-1.3c0,0,0.2,0.5,0.5,1c0.2,0.6,0.5,1.7,0.5,2c0.1,0.3,0.1,1.7,1.2,3.4c1,1.7,1.8,1.8,1.8,1.8c-0.3,-0.2,-1,-1,-1.4,-1.5c-0.5,-0.6,-0.8,-1.5,-0.9,-1.9c-0.1,-0.4,-0.3,-1.7,-0.4,-2.1C134,74.9,133.6,73,133.5,72.7c-0.1,-0.4,-0.1,-0.9,-0.5,-2.6c-0.4,-1.6,0,-2.9,0,-3.2c0,-0.3,0.3,-1.5,0.4,-1.9c0.1,-0.4,0.2,-1.2,0.8,-4.4c0.6,-3.2,0.9,-3.5,1.2,-4c0.2,-0.5,0.7,-1,0.9,-1.2c0.3,-0.1,0.8,-0.2,0.8,-0.2c0,0,-0.1,-0.1,-0.3,-0.2c-0.1,-0.1,-0.2,-0.1,-0.3,-0.2c-0.2,-0.2,-0.1,-0.3,-0.3,-0.5C135.9,54.1,136,54,136,54c0,0,0,-0.2,-0.1,-0.3c-0.1,-0.1,-0.1,-0.3,0,-0.5c0,-0.2,0,-0.4,-0.1,-0.5c-0.2,-0.1,-0.1,-0.3,0,-0.2c0.2,0,0.8,0.5,0.8,0.6c0,0.1,0.2,0.8,0.2,0.8c0,0,0.4,0,0.4,0c0,0.1,-0.4,0.2,-0.4,0.2c0,0,0.2,0.1,0.5,0.1c0.2,0,0.5,0.2,0.2,0.2c-0.3,-0.1,-1,0,-0.8,0c0.1,0.1,0.6,0.8,1,0.8c0.4,0,1.5,0.3,2,0.6c0.5,0.3,1.2,1.2,1.6,1.9c0.4,0.8,0.9,2.5,1,3.1c0.1,0.7,0.1,1.5,0.1,1.8c0,0.4,0.5,1.7,0.5,1.9c0.1,0.2,0,1.1,-0.1,1.5c0,0.4,-0.1,1.8,-0.3,2.5c-0.2,0.7,-1.2,2.2,-1.5,2.5c-0.2,0.4,-0.8,1.3,-1,1.5c-0.3,0.2,-0.9,0.5,-0.9,0.5c0,0,-0.1,2.1,0.1,2.7c0.1,0.6,1,1.1,1.4,1.4c0.3,0.2,0.9,0.3,0.9,0.3c0,0,0.2,0.7,0.4,0.9c0.2,0.2,0.8,0.1,1.2,0.1c0.3,0,0.7,0.2,1,0.3c0.3,0.2,0.5,0,0.9,0.2c0.3,0.3,0.5,0.1,0.5,0.1l-0.1,-0.4c0,0,0.6,0,0.8,0c0.3,0,0.6,-0.1,0.6,-0.1l-0.4,-0.2c0.1,0,0.4,0,0.8,-0.3c0.8,-0.6,0.9,-1.4,0.8,-1.8Z" class="g1_254" />
</g>
<path d="M129.2,124.6c-0.1,0,-0.1,-0.1,-0.1,-0.1c0,-0.1,0,-0.2,0.1,-0.2c0,0,0.1,0.1,0.1,0.1c0,0.1,-0.1,0.1,-0.1,0.2M128.9,124c-0.8,0.1,-1.1,0.7,-1.4,0.8c0,0,0.3,0.1,0.4,0.1c0.1,-0.1,0.8,-0.8,0.8,-0.5c-0.1,0.3,0.1,0.7,0.7,0.6c0.5,0,0.6,-0.5,0.6,-0.5c0,0,0.1,-0.1,0.5,0.5c-0.1,-0.7,-0.7,-1.1,-1.6,-1Z" class="g2_254" />
<path d="M135.3,124.2c0,0,-0.1,0,-0.1,-0.1c0,0,0.1,-0.1,0.1,-0.1c0.1,0,0.1,0.1,0.1,0.1c0,0.1,0,0.1,-0.1,0.1m1.6,0.2c-0.1,-0.2,-0.4,-0.7,-1.2,-0.8c-0.7,-0.1,-1,0,-1.3,0.3c-0.3,0.2,-0.9,0.9,-0.9,0.9c0,0,0.4,-0.1,0.7,-0.4c0.3,-0.5,0.7,-0.4,0.7,-0.4c0,0,-0.2,0.4,0.2,0.6c0.6,0.3,0.9,-0.2,0.9,-0.2c0,0,0.1,-0.1,0.2,-0.1c0.1,0,0.3,0.2,0.4,0.2c0.1,0,0.5,0.1,0.3,-0.1Z" class="g2_254" />
<path d="M130.1,123.5c0,0,-0.7,-0.5,-1.3,-0.6c-0.6,-0.1,-0.9,0,-1.1,0.1c-0.2,0.1,-0.7,0.6,-0.9,0.9l-0.1,0.3c0,0,0.5,-0.6,0.9,-0.7c0.4,-0.1,0.7,-0.3,1.1,-0.1c0.5,0.1,0.8,0.2,1,0.3c0.3,0,0.4,-0.2,0.4,-0.2Z" class="g2_254" />
<path d="M133.2,123.3c0,0,0.2,-0.5,0.7,-0.6c0.4,-0.2,1.5,-0.3,2.1,-0.2c0.6,0.2,1.4,0.7,1.4,0.7c0,0,-1.3,-0.4,-1.8,-0.3c-0.4,0.1,-0.8,0.1,-1.2,0.3c-0.5,0.2,-1.2,0.3,-1.2,0.1Z" class="g2_254" />
<path d="M130.4,124.1c-0.1,0,0.4,0.2,0.4,0.5c0,0.2,-0.1,1.2,-0.1,1.4c-0.1,0.2,0.1,-1.6,-0.3,-1.9Z" class="g2_254" />
<path d="M130.1,127.4c0,-0.1,-0.3,0.7,-0.3,0.9c0,0.3,0.1,0.5,0.3,0.5c0.1,0,0.4,-0.1,0.6,-0.1c0.1,0.1,0.5,0.3,0.6,0.4c0,0,-0.4,0,-0.5,-0.1c-0.2,-0.1,-0.1,-0.2,-0.4,-0.2c-0.3,0.1,-0.6,0.1,-0.6,-0.1c-0.1,-0.1,-0.1,-0.5,0.3,-1.3Z" class="g2_254" />
<path d="M131.8,128.8c0,0,0.1,-0.3,0.3,-0.3c0.3,0,0.8,0.1,0.8,0.1c0.1,-0.1,-0.4,0.2,-0.3,0.2c0.1,0,0.7,-0.1,0.8,-0.3c0.2,-0.2,0.3,-0.7,0.2,-0.9c0,-0.2,-0.1,-0.3,-0.1,-0.3c0,0,0.2,0.1,0.3,0.6c0,0.5,-0.4,0.8,-0.5,0.9c-0.2,0,-0.7,0.1,-0.8,0.1c-0.2,0,-0.2,-0.1,-0.4,-0.1c-0.1,0,-0.3,0,-0.3,0Z" class="g2_254" />
<path d="M135.2,130.7c0,0,-0.5,0.4,-0.8,0.5c-0.3,0.1,-0.4,0.1,-0.6,0.2c-0.3,0.1,-0.6,0.2,-1,0.2c-0.4,0.1,-0.9,0.1,-1.3,0.1c-0.4,-0.1,-0.4,-0.1,-0.6,-0.2c-0.2,-0.1,-0.3,-0.2,-0.3,-0.3c-0.3,-0.2,-0.1,-0.5,-0.1,-0.5c0,0,0.2,-0.1,0.7,-0.1c0.4,0,0.8,0.1,1,0.1c0.2,-0.1,1,-0.2,1.4,-0.3c0.3,-0.1,1,0,1.3,0.1c0.3,0,0.3,0.2,0.3,0.2m0.4,-0.4c-0.7,0,-1.7,-0.5,-2.4,-0.5c-0.6,0.1,-0.6,0.3,-1.1,0.2c-0.7,-0.1,-1.1,0,-1.5,0.1c-0.4,0,-1.1,0.5,-1.1,0.5c0,0,0.5,0.7,0.8,0.9c0.2,0.2,0.8,0.4,1.2,0.4c0.3,0.1,1.3,0,1.7,0c0.5,-0.1,1,-0.3,1.2,-0.4c0.2,0,0.1,0,-0.1,0.2c-0.2,0.1,-0.7,0.3,-1.3,0.4c-0.5,0.1,-0.6,0.1,-1.2,0.1c-0.6,-0.1,-0.7,-0.1,-1.1,-0.2c-0.4,-0.2,-0.5,-0.4,-0.6,-0.4c0,0.1,0.5,0.7,0.9,0.9c0.3,0.2,0.7,0.2,0.9,0.2c0.3,0,1.3,0,1.8,-0.2c0.4,-0.2,0.9,-0.8,1.2,-1.1c0.3,-0.3,1.3,-1.1,0.7,-1.1Z" class="g2_254" />
<g clip-path="url(#c1_254)">
<path d="M126.9,124.2c0,0,-0.1,0.8,-0.2,1.3c0,0.4,-0.1,1.2,-0.1,1.6c0,0.4,0.2,1.3,0.2,1.7c0,0.4,0.3,1.7,0.5,1.9c0.1,0.3,0.3,0.9,1,1.9c0.6,1,1.9,2.1,2.5,2.4c0.6,0.3,1.2,0.6,2.6,0.3c1.4,-0.3,2.8,-0.9,3.6,-1.6c-0.2,0.4,-1.1,1,-2.2,1.4c-1.2,0.5,-2.3,0.7,-3.5,0.4c-0.7,-0.2,-0.6,0.1,-0.7,0.6c-0.1,0.6,-0.2,1.4,-0.5,1.8c-0.3,0.5,-1.2,1.2,-1.5,1.4c-0.4,0.1,1.2,-1,1.5,-1.8c0,-0.5,-0.2,-0.9,-0.3,-1.5c-0.2,-0.6,-0.4,-0.8,-0.5,-1.2c0,-0.5,-0.6,-1.2,-0.6,-1.2c0,0,0.2,1,0.3,1.2c0,0.2,0.9,2.5,0.9,2.5c0,0,-0.9,-1.8,-1,-1.9c0,-0.2,0.8,2.2,0.9,2.3c0,0.1,-0.6,-0.7,-0.7,-1.1c-0.1,-0.4,0.1,1.3,0.2,1.4c0.1,0.1,-0.5,-0.6,-0.5,-0.8c0,-0.2,-0.2,0.6,-0.4,1.2c-0.1,0.6,0.1,1.4,-0.3,1.8c-0.5,0.4,-1,0.5,-1,0.5c0,0,0.8,-1.1,0.9,-2.1c0.1,-0.9,-0.1,-2.6,-0.1,-3.4c0,-0.8,-0.6,-2.2,-0.6,-2.2c0,0,0.5,4,0.4,4.7c-0.1,0.7,-0.4,1.2,-0.5,1.7c-0.1,0.6,-0.4,1.6,-0.5,1.8c-0.2,0.2,-0.1,-2.6,0,-3c0,-0.3,0.2,0.8,0.2,0.7c0,-0.1,0,-1.7,0,-2.5c0,-0.8,-0.1,-0.9,-0.2,-1.6c0,-0.7,-0.2,-3.7,-0.2,-4.1c0,-0.5,0,-2.8,0,-2.8c0,0,0,5.4,-0.1,5.8c-0.1,0.4,-0.1,2.4,-0.1,3c0,0.5,0,2.4,0,2.9c-0.1,0.5,0,2.3,0,2.5c0.1,0.3,0.2,2.7,0.3,3.3c0,0.6,0.1,2.7,-0.1,3.1c-0.2,0.4,-0.1,-3.4,-0.2,-4C126.2,143.8,126,140.3,126,140c0.1,-0.3,-0.2,-1.3,-0.1,-1.7c0.2,-0.5,0.1,-2.4,0.2,-2.8c0,-0.5,-0.1,-1.6,0,-2c0.1,-0.3,0.2,-2.1,0.2,-2.5c0,-0.4,-0.1,-2,-0.1,-2c0,0,-0.7,7.3,-0.8,8.8c-0.2,1.5,-0.3,2.5,-0.4,3.4c-0.1,0.8,-0.3,2.1,-0.4,2.6c-0.1,0.5,0,2,0,2c0,0,0.2,-5.6,0.2,-6.4c0.1,-0.9,0.2,-3.8,0.4,-4.5c0.2,-0.8,0.3,-3.5,0.5,-4.3c0.3,-0.9,0,-1.5,0.3,-2.5c0.2,-1.1,0.4,-3.1,0.4,-3.3c0.1,-0.2,0.4,-1.7,0.5,-2.3c0.1,-0.6,0.6,-1.8,0.8,-2.4c0.2,-0.6,0.4,-1.2,0.6,-1.6c0.2,-0.4,-0.6,2.1,-0.7,2.4c-0.2,0.4,-0.4,1.4,-0.4,1.4c0,0,0.8,-2,1.4,-2.6c0.5,-0.5,1.4,-1.4,1.9,-1.6c0.4,-0.2,0.8,-0.3,0.8,-0.3c0,0,-1.7,0.8,-2.5,1.9c-0.8,1.2,-1.3,2.5,-1.5,2.8c-0.1,0.3,-0.4,1.7,-0.4,1.7Z" class="g2_254" />
</g>
<path d="M132.3,116.7c0,0,-0.4,0,-0.8,0.4c-0.4,0.3,-0.6,0.1,-1,0.5c-0.5,0.5,-1.2,1.1,-1.6,1.5c-0.5,0.4,-0.7,0.7,-0.7,0.7c0,0,1.1,-1.3,1.4,-1.7c0.2,-0.4,1.3,-1,1.4,-1.1c0.2,-0.2,0.6,-0.5,0.5,-0.5c0,0,-0.5,0,-0.8,0.3c-0.4,0.3,-1.4,1.3,-1.4,1.3l1.1,-1.3l-1.2,1.1c0,0,1,-1.2,1.7,-1.7c0.8,-0.4,0.7,-0.5,0.5,-0.5c-0.3,0.1,-1.5,1,-1.9,1.4c-0.4,0.4,0.8,-1,1.2,-1.3c0.4,-0.3,-0.7,0.3,-0.6,0.2c0,0,0.8,-1,1.4,-1.1c0.5,-0.1,0.8,0,0.9,-0.1c0.2,0,0,0.3,0,0.6c0,0.2,0,0.9,-0.1,1.1c0,0.2,0,0.2,0,0.2Z" class="g2_254" />
<path d="M132.6,114.6c0,0,-1,-0.1,-1.3,0c-0.3,0.1,-1.1,0.6,-1.4,1c-0.3,0.4,-1.1,1.4,-1.3,1.8c-0.2,0.4,-0.5,0.6,-0.8,1.3c-0.3,0.6,-1,2.8,-1.1,3.2c-0.1,0.5,-0.2,1.7,-0.5,2.1c-0.3,0.3,-0.4,0.4,-0.4,0.4c0,0,0.3,-1.7,0.4,-2.3c0.2,-0.6,0.5,-2.7,0.8,-3.2c0.2,-0.4,0.8,-2,1.1,-2.1c0.2,-0.2,-0.4,0.8,-0.5,1.1c-0.1,0.4,1,-1.6,1.6,-2.1c0.6,-0.5,1,-0.9,1.2,-1c0.3,-0.1,-1.1,0.8,-1.5,1.5c-0.4,0.8,-1,1.7,-1,1.6c0.1,0,1.7,-2.5,3,-3.3c0.9,-0.5,1.7,0,1.7,0Z" class="g2_254" />
<g clip-path="url(#c1_254)">
<path d="M123.2,143.4c0,0,0.6,-2.4,0.8,-2.8c0.1,-0.5,0.6,-3.6,0.7,-4.3c0.1,-0.6,0.1,-1.3,0.2,-1.5c0,-0.2,0.1,-0.7,0.2,-1c0.1,-0.4,-0.1,-1.5,0,-1.8c0.2,-0.4,0.5,-1.8,0.5,-2.4c0,-0.5,0,-1.8,0,-2.5c0.1,-0.7,0.1,-1.5,0.1,-1.5c0,0,-0.1,0.9,-0.3,1.4c-0.2,0.5,-0.2,1,-0.3,1.5c-0.1,0.6,-0.2,1,-0.2,1.7c0,0.6,-0.2,1,-0.2,1.6c0,0.7,0.1,0.9,-0.1,1.4c-0.1,0.6,-0.3,1.8,-0.5,2.3c-0.1,0.5,-0.4,2.5,-0.6,3.3c-0.3,0.8,-1.2,4.4,-1.3,4.8c-0.1,0.4,0,1.5,0.2,1.9c0.1,0.4,0.5,0.8,0.5,0.8c0,0,-0.8,-1.5,-0.4,-2.7c0.3,-1.3,0.7,-3,1.1,-3.7c0.3,-0.8,0.7,-3.8,0.8,-4.4c0.2,-0.6,0.2,1,0,1.8c-0.2,0.7,-1.2,6.1,-1.2,6.1Z" class="g2_254" />
<path d="M121.9,141.8c0.1,-0.1,0.7,-3.5,0.7,-4c0.1,-0.5,0.3,-3,0.8,-3.9c0.5,-0.9,0.7,-3.1,0.9,-3.7c0.2,-0.7,0.4,-1.9,0.5,-2.3c0.1,-0.4,0,-1.7,0.3,-2.4c0.2,-0.7,0.1,-2.7,0.2,-3.1c0.2,-0.4,0.2,-1.6,0.3,-1.8c0.1,-0.2,0.8,-1.2,0.8,-1.2c0,0,-0.5,1.4,-0.6,1.7c-0.1,0.3,0.4,-0.5,0.4,-0.4c0,0,0.1,1.2,-0.2,1.8c-0.3,0.6,-0.4,1.9,-0.5,2.6c-0.2,0.6,-0.2,1.5,-0.3,1.7c0,0.2,-0.3,1.8,-0.4,2.1c-0.1,0.3,-0.4,2.3,-0.5,3.1c-0.2,0.9,-0.5,2,-0.7,2.4c-0.2,0.5,-0.6,2.2,-0.7,2.7c-0.1,0.5,-0.3,2.8,-0.6,3.4c-0.2,0.7,-0.4,1.3,-0.4,1.3Z" class="g2_254" />
</g>
<path d="M125.8,119.8c0,0,0.9,-2,1,-2.5c0.1,-0.5,1.4,-2,1.8,-2.4c0.5,-0.3,1.1,-0.5,1.1,-0.5c0,0,-1,0.7,-1.4,1.1c-0.4,0.3,-1.1,1.6,-1.3,2c-0.3,0.4,-0.3,0.5,-0.5,0.9c-0.2,0.4,-0.7,1.4,-0.7,1.4Z" class="g2_254" />
<path d="M131,114.1c-0.1,0,-0.5,0,-1.1,0.3c-0.5,0.4,-1.4,1.2,-1.6,1.4c-0.2,0.3,-0.5,0.6,-0.8,1.2c-0.3,0.6,-0.5,1.4,-0.5,1.4c0,0,0.8,-1.9,1.4,-2.5c0.6,-0.5,0.9,-0.9,1.4,-1.1c0.4,-0.2,1.2,-0.7,1.2,-0.7Z" class="g2_254" />
<path d="M129.3,114.2c0.2,-0.2,0.9,-0.4,1.2,-0.7c0.4,-0.2,0.5,0,0.5,0c0,0,-0.4,0.2,-0.7,0.4c-0.3,0.2,-1,0.3,-1,0.3Z" class="g2_254" />
<path d="M132.7,113.9c0,0,-0.4,-0.7,-0.9,-0.8c-0.5,-0.1,-1.1,-0.1,-1.4,0.1c-0.3,0.1,0.2,-0.4,1.1,-0.3c0.9,0.1,0.9,0.2,1.1,0.3c0.1,0.1,-0.2,-0.6,-0.2,-0.6c0,0,0.3,0.2,0.3,0.3c0,0.1,0.4,0.5,0.5,0.5c0.2,0,0.8,0.1,1,0.2c0.3,0.1,0.8,0.4,0.8,0.4c0,0,-1.2,-0.3,-1.4,-0.3c-0.3,0,-0.5,0.1,-0.2,0.2c0.3,0,1.4,0.2,1.8,0.3c0.4,0.2,1.6,0.9,1.8,1.1c0.3,0.2,2.2,2,2.6,2.3c0.4,0.2,0.1,-0.1,-0.1,-0.4c-0.2,-0.3,-0.9,-1,-0.9,-1.1c0,0,0.7,0.2,1.6,1.6c1,1.5,1.6,3.6,1.7,4.3c0.2,0.7,0.4,1.3,0.4,1.8c0,0.4,0.1,3.5,0.2,4.1c0,0.6,0.3,2.9,0.2,3.4c-0.1,0.6,-0.1,1.1,-0.1,1.1c0,0,-0.3,-4.5,-0.4,-4.8c0,-0.2,-0.2,-2.1,-0.3,-2.3c0,-0.3,0,-0.4,-0.3,-0.6c-0.3,-0.2,-1.1,-1.1,-1.3,-1.3c-0.1,-0.2,-0.9,-1.1,-0.8,-1.2c0,-0.1,0.5,0.4,1,0.7c0.5,0.4,1.3,0.6,1.3,0.6c0,0,-0.9,-0.6,-1.4,-0.9c-0.4,-0.3,-1.3,-1.5,-1.4,-1.7c0,-0.1,1.2,1,1.4,1c0.1,0,-0.4,-0.8,-0.6,-0.9c-0.1,-0.2,-1.1,-0.7,-1.6,-1.1c-0.6,-0.4,-1.6,-0.8,-1.8,-1.1c-0.3,-0.3,-2,-1.2,-2.2,-1.5c-0.2,-0.2,-0.9,-0.7,-0.9,-0.7c0,0,1.6,1,1.9,1.2c0.3,0.1,1.1,0.7,1.5,1c0.5,0.3,0.8,0.5,1.4,0.8c0.6,0.2,1.1,0.5,1.4,0.8c0.3,0.2,0.9,0.6,1,0.7c0.2,0.1,0.8,0.6,0.8,0.6c0,0,-1.9,-1.7,-2,-1.8c-0.1,-0.1,-1.5,-0.7,-1.6,-0.8c-0.2,-0.1,-2.5,-1.7,-2.7,-1.8c-0.1,-0.2,-1.1,-1.1,-1.3,-1.2c-0.2,-0.1,0.1,-0.3,0.3,-0.1c0.3,0.3,1,0.7,1.5,1.1c0.5,0.5,1.7,1.5,2,1.8c0.4,0.2,1,0.4,1,0.4l-3,-2.4c0,0,2.1,1.6,2.3,1.7c0.1,0,-2.5,-2.2,-2.7,-2.4c-0.3,-0.2,1.8,1.3,2.4,1.8c0.7,0.6,1.2,1.1,1.6,1.3c0.4,0.3,1.1,1.1,1.5,1.5c0.4,0.4,0.8,0.6,0.7,0.6c0,0,-1,-1.4,-1.2,-1.6c-0.2,-0.2,-2.7,-2.4,-2.8,-2.5c-0.1,-0.1,2.3,1.7,3.1,2.5c0.7,0.8,0.7,0.8,0.5,0.4c-0.3,-0.5,-1.9,-2,-2.4,-2.6c-0.5,-0.6,1.2,1,1.3,1.1c0.2,0.1,0.8,0.7,0.8,0.7c0.1,0,-0.3,-1,-0.7,-1.3c-0.4,-0.3,-1.9,-1.8,-2.5,-2.3c-0.6,-0.4,-1.5,-1,-2,-1.2c-0.5,-0.2,-1.2,-0.4,-1.4,-0.4c-0.3,0,0.5,0.3,0.8,0.4c0.3,0.2,2,1.1,2.4,1.4c0.4,0.3,0.8,0.7,0.8,0.7c0,0,-2.7,-1.8,-3.3,-1.9c-0.7,-0.2,-0.9,-0.1,-0.9,-0.1c0.1,0,1.1,0.4,1.6,0.6c0.4,0.2,2.4,1.6,2.6,2c-0.3,-0.3,-2.1,-1.6,-2.3,-1.6c-0.1,-0.1,1.6,1.3,1.8,1.4c0.1,0.2,-2.2,-1.6,-2.6,-1.8c-0.5,-0.2,-1.4,-0.6,-1.7,-0.6c-0.2,0,0.1,-0.4,0.1,-0.4c0,-0.1,-0.6,-0.2,-0.6,-0.2Z" class="g2_254" />
<g clip-path="url(#c1_254)">
<path d="M140.1,123.5c0,0,0.5,1.4,0.5,1.8c0,0.4,-0.1,1.2,-0.2,1.9c-0.1,0.7,-0.3,4.1,-1.6,5.4c-1.2,1.3,-1.4,1.6,-1.4,1.6c0,0,1.8,-1.4,2.3,-2.4c0.4,-1,0.6,-1.6,0.6,-1.6c0,0,-0.8,3.3,-0.8,3.8c-0.1,0.5,-0.1,3.1,-0.1,4c0,0.9,0.2,2.1,0.2,2.5c0,0.5,-0.1,1.8,0,2.2c0.2,0.4,0.3,0.8,0.3,0.8c0,0,-0.3,-1.9,-0.2,-2.3c0.1,-0.4,0.2,-0.4,0.2,-0.3c0.1,0.2,0.2,0.7,0.2,1.1c0.1,0.4,0.1,0.5,0.1,0.5c0,0,0.2,-1,0.2,-1.4c0.1,-0.3,0.6,-2.2,0.6,-2.4c0.1,-0.3,-0.6,2,-0.7,2c0,0.1,0.3,-1.4,0.3,-1.5c0,-0.2,0.4,-1.4,0.4,-1.8c0,-0.4,0.1,-1.3,0.2,-1.5c0,-0.2,0.3,-1.8,0.2,-2.3c-0.1,-0.5,0.4,-0.9,0.4,-1.1c0.1,-0.3,0,-2.2,0.1,-2.7c0,-0.4,0.2,-0.4,0.2,-0.8c0.1,-0.3,0,-0.9,0,-0.9c-0.1,0,-0.6,0.5,-0.8,0.6c-0.2,0.1,-0.5,0.1,-0.6,0c-0.1,0,-0.2,-0.8,-0.1,-1.4c0.1,-0.5,0,-0.8,0.1,-1.2c0.1,-0.3,0.1,-0.5,0.2,-0.4c0.2,0.2,0.5,0.4,0.7,0.4c0.2,0,0,-0.2,0,-0.4c-0.1,-0.2,0,-0.4,-0.2,-0.7c-0.1,-0.3,-1.3,-1.4,-1.3,-1.5Z" class="g2_254" />
</g>
<path d="M141.2,126.2c-0.1,0.2,0,0.3,-0.1,0.6c-0.1,0.3,-0.4,0.6,-0.2,0.5c0.2,0,0.4,-0.3,0.6,-0.4c0.2,-0.2,0.4,-0.2,0.4,-0.2c0,0,-0.7,-0.6,-0.7,-0.5Z" class="g2_254" />
<g clip-path="url(#c1_254)">
<path d="M125.5,139.4c0,0.1,0.1,1.8,0.1,2.5c0.1,0.8,-0.1,3,-0.2,3.4c0,0.4,-0.1,2.1,-0.1,2.2c-0.1,0.2,0.4,-3.2,0.5,-3.5c0.1,-0.2,0.1,0.9,0.1,0.9c0,0.1,0.1,-2.1,0,-2.7c0,-0.5,-0.4,-2.8,-0.4,-2.8Z" class="g2_254" />
<path d="M134.4,112.9c0,0,0.8,-0.1,1.5,0.2c0.7,0.3,0.9,0.3,1.7,0.8c0.9,0.5,0.8,0.8,1.6,1.1c0.7,0.4,1.2,0.9,1.8,1.5c0.5,0.6,1.5,1.9,1.7,2.2c0.1,0.3,-1.9,-2.4,-2.4,-2.6c-0.6,-0.2,1.6,1.4,3,4.1c1.3,2.7,1.3,3.6,1.4,4.3c0.1,0.6,0.7,3.3,0.8,4.5c0,1.3,0.3,2.6,0.6,3.8c0.3,1.3,0.4,3,0.4,3c0,0,-0.8,-3.3,-1,-3.2c-0.3,0.1,0.2,1.9,0.3,2.4c0.1,0.6,0.6,1.4,0.6,1.8c0,0.4,-0.7,-1.4,-0.8,-1.5c-0.2,-0.1,0.4,4,0.4,4.9c-0.1,0.9,0.4,5,0.4,5.6c0,0.5,0.1,2.8,0.1,3.4c0,0.7,-0.1,1.3,-0.2,2.1c-0.1,0.9,-0.3,1.8,-0.3,1.7c0,-0.1,-0.2,-3.8,0,-4.3c0.1,-0.5,0,-3.4,-0.1,-4.1c0,-0.7,-0.6,-3.7,-0.6,-4.5c-0.1,-0.8,0.4,5,0.4,5.6c-0.1,0.6,-0.3,3,-0.3,3.8c0.1,0.9,-0.1,1.3,-0.1,2.9c0.1,1.6,0,3,0,3.7c-0.1,0.8,-0.4,3,-0.4,3c0,0,-1.6,-5.6,-0.9,-8.4c0.6,-2.8,0.8,-3.2,0.8,-3.7c0.1,-0.5,0.3,-3.7,0.3,-3.7c0,0,-0.5,-1.8,-0.6,-2c0,-0.3,0.3,2.3,0.2,2.8c-0.1,0.4,-0.2,2,-0.1,1.9c0,0,-0.2,-4.7,-0.2,-4.8c0,-0.1,0,6.9,-0.2,7.2c-0.2,0.4,-0.2,-5.9,-0.2,-6.2c0,-0.2,-0.1,5.9,-0.1,5.9l-0.2,-5.4c0,0,0.4,-1.6,0.5,-3c0.2,-1.4,0.1,-4.2,0.2,-5.3c0.1,-1,0,-2.6,0,-5.2c0,-2.6,-0.4,-4.6,-0.5,-5.4c-0.1,-0.7,0,-1.8,-2.1,-5.3c-2.1,-3.5,-3,-3.4,-3.8,-4.1c-0.8,-0.7,-1.6,-0.9,-2.2,-1.1c-0.5,-0.3,-1.4,-0.4,-1.4,-0.4Z" class="g2_254" />
<path d="M137.5,114.5c0.1,0,1.2,0.6,2.8,2.6c1.7,2.2,1.9,3.5,2.1,4.2c0.1,0.7,0.6,1.6,0.7,3.6c0.1,1.9,0.3,4.7,0.2,6c-0.1,1.3,-0.2,3.1,0,4.4c0.2,1.2,0.3,4.1,0.3,4.9c-0.1,0.8,-0.1,4.1,-0.8,5.4c-0.7,1.4,-0.9,2.4,-0.9,2.4c0,0,0.9,-4.7,0.9,-5.2c0.1,-0.5,0.3,-3.9,0.2,-4.6c0,-0.8,-0.2,-3.9,-0.2,-4.7c0,-0.8,-0.1,-7.1,-0.1,-7.8C142.6,125,142.2,122,142,121.1c-0.3,-0.9,-0.8,-2.8,-2.4,-4.5c-1.6,-1.8,-2.1,-2.1,-2.1,-2.1Z" class="g2_254" />
<path d="M142.1,129.8c0,0.1,0.1,2.9,0,3.7c-0.1,0.7,-0.1,2.2,0,3.1c0,0.9,0.2,1.1,0.3,1.9c0.1,0.8,-0.3,3.8,-0.5,4.5c-0.2,0.7,0.8,-3.2,0.8,-4.4c0.1,-1.2,0,-3.7,-0.1,-4.4c0,-0.8,-0.2,2.7,-0.2,2.8c-0.1,0.1,-0.1,-4.2,0,-4.8c0,-0.6,-0.3,-2.4,-0.3,-2.4Z" class="g2_254" />
<path d="M139.1,146.8c0,-0.1,0.9,-2.6,1.3,-4.4c0.4,-1.9,0.6,-2.6,0.7,-2.8c0,-0.2,0.3,1.7,0.3,2.4c0.1,0.7,0.2,1,0.2,2.4c-0.1,1.5,-0.9,3.5,-1.3,4.1c0.6,-1.3,1,-2.8,1,-3.7c0.1,-1,-0.2,-1.4,-0.2,-1.4c0,0,0,2.3,-0.2,2.7c-0.1,0.5,-0.3,-1.6,-0.3,-2c0,-0.5,-0.6,0.7,-0.7,1c-0.1,0.3,-0.8,1.7,-0.8,1.7Z" class="g2_254" />
<path d="M128.9,139.1c0,0,1,1.5,1.7,2.2c0.7,0.6,2,1,3,1.1c1,0,2.7,-0.2,4.3,-1c1.5,-0.8,2,-1.4,2.2,-1.5c0.2,0,0.2,0.7,-0.2,1.1c-0.4,0.3,-1.7,1.4,-2.7,1.7c-0.9,0.4,-3.1,0.9,-4.9,0.2c-1.7,-0.6,-3.5,-2.5,-3.8,-3.1c-0.5,-0.8,0.2,0.2,0.7,0.5c0.5,0.7,-0.3,-1.2,-0.3,-1.2Z" class="g2_254" />
<path d="M147.2,141c0.2,0.1,1,0.3,2,0.8c1.4,0.8,2.8,2.1,3.2,2.5c0.5,0.5,1.9,2.8,2.3,4.7c0.3,1.4,0,2.6,0,2.6c0,0,-0.2,-3.8,-2.6,-7c-1.2,-1.5,-2.3,-1.9,-2.9,-2.3c-0.6,-0.3,-1.8,-0.7,-2,-0.5c-0.1,0.1,0.1,2.5,0,3.3c-0.1,0.8,-0.4,3,-0.4,3c0,0,-0.4,-5.8,-0.3,-7c0,-1.2,-0.4,-3.9,-0.4,-3.9Z" class="g2_254" />
<path d="M124.4,140.2c-0.3,0.2,-2.7,0.7,-3.3,1c-0.6,0.3,-2.5,1.6,-3.2,2.6c-0.7,0.9,-1.6,3.7,-1.6,3.7c0,0,1,-3.3,2.5,-4.3c1.4,-0.9,1.8,-1.7,3,-1.9c1.2,-0.2,2.6,-1.1,2.6,-1.1Z" class="g2_254" />
</g>
<path d="M131.8,190.2c0,0,-0.1,0,-0.1,-0.1c0,0,0.1,-0.1,0.1,-0.1c0.1,0,0.1,0.1,0.1,0.1c0,0.1,0,0.1,-0.1,0.1m0.7,-0.2c-0.4,-0.1,-1.1,-0.1,-1.3,-0.1c-0.2,0,-0.8,0.3,-1,0.4c-0.2,0.1,-0.3,0.3,-0.5,0.3c-0.2,0,-0.2,0.1,-0.2,0.1c0,0,0.5,-0.1,0.6,-0.1c0.1,-0.1,0.2,-0.2,0.3,-0.1c0.1,0,0.4,0,0.4,0c0,0,-0.1,-0.3,0,-0.3c0.1,-0.1,0.3,-0.1,0.3,-0.1c0.1,0,-0.1,0.2,0.3,0.4c0.3,0.2,0.8,0,0.8,-0.1c0,-0.1,0.1,-0.3,0.1,-0.3c0,0,0.2,-0.2,0.9,0.5c0,0,-0.3,-0.6,-0.7,-0.6Z" class="g3_254" />
<path d="M138.4,189.8c0,0,0,-0.1,0,-0.1c0,-0.1,0,-0.1,0,-0.1c0.1,0,0.1,0,0.1,0.1c0,0,0,0.1,-0.1,0.1m1.6,0.1c-0.2,-0.1,-0.1,-0.2,-0.5,-0.3c-0.4,-0.2,-1.1,-0.1,-1.7,-0.1c-0.6,0,-1.1,0.9,-1.1,0.9c0,0,0.7,-0.8,0.9,-0.6c0.1,0.1,0.3,0.3,0.8,0.3c0.5,0,0.5,-0.5,0.6,-0.5c0.2,0,0,0.2,0.2,0.2c0.1,0,0.4,0.1,0.5,0.1c0.1,0,0.7,0,0.7,0c0,0,-0.1,0,-0.4,0Z" class="g3_254" />
<path d="M133.4,188.9c0,0,-0.2,-0.3,-0.7,-0.3c-0.6,-0.1,-1.6,-0.1,-2,-0.1c-0.3,0,-1.1,0.3,-1.2,0.4c-0.1,0.1,-0.5,0.3,-0.5,0.3c0,0,1.1,-0.2,1.5,-0.2c0.4,0,1.4,0.1,1.8,0.1c0.5,0,1,0,1.1,-0.2Z" class="g3_254" />
<path d="M136.3,188.7c0,0,-0.2,-0.4,0.4,-0.5c0.6,-0.1,0.8,-0.1,1.5,-0.2c0.7,-0.1,0.8,-0.2,1.1,-0.2c0.3,0,1.3,0.3,1.5,0.4c0.2,0.1,-0.6,0.1,-0.8,0.1c-0.2,0.1,-1.5,0.2,-1.7,0.3c-0.3,0,-2,0.1,-2,0.1Z" class="g3_254" />
<path d="M132.9,193.8c0,0,0,0.5,0.1,0.6c0.1,0.1,0.3,0.2,0.6,0.2c0.4,0,0.5,0,0.6,0.1c0.1,0,0.3,0.2,0.3,0.2c0,0,-0.5,-0.1,-0.8,-0.1c-0.2,0,-0.4,0,-0.6,-0.1c-0.1,0,-0.4,-0.4,-0.2,-0.9Z" class="g3_254" />
<path d="M134.9,195.1c-0.1,0,0.5,0,0.7,0c0.1,-0.1,0.3,-0.4,0.6,-0.5c0.2,-0.1,0.3,-0.2,0.6,-0.2c0.3,0,0.4,-0.1,0.5,-0.2c0,-0.2,0.1,-0.5,0,-0.8c0.4,0.7,-0.2,1,-0.2,1c0,0,-0.6,0.1,-0.7,0.2c-0.2,0.1,-0.7,0.8,-1.5,0.5Z" class="g3_254" />
<path d="M137.2,192.8c0,0,0.4,0.3,0.6,0.4c0.2,0.2,0.4,0.6,0.6,0.8c0.2,0.2,0.3,0.5,0.6,0.7c0.4,0.2,0.5,0.2,0.6,0.3c0.2,0.1,0.2,0.8,0.2,0.8c0,0,0.2,-0.8,-0.1,-1c-0.3,-0.2,-0.6,-0.2,-0.9,-0.5c-0.7,-0.5,-0.7,-1.2,-1.6,-1.5Z" class="g3_254" />
<path d="M132.1,193.9c0,0,-0.4,0.7,-0.5,0.8c-0.2,0.2,-0.6,0.5,-0.7,0.6c-0.2,0.2,-0.4,0.5,-0.2,1.1c0.1,-0.7,0.1,-0.8,0.3,-0.9c0.1,-0.2,0.5,-0.4,0.7,-0.6c0.2,-0.2,0.3,-0.9,0.4,-1Z" class="g3_254" />
<path d="M131.7,196.4c0,0,0.8,0,1,-0.1c0.3,-0.1,0.9,-0.1,1.2,-0.1c0.3,0,0.9,0,1.1,0.1c0.2,0,0.4,-0.1,0.6,-0.1c0.2,-0.1,2,-0.2,2.4,-0.2c0.3,0,0.9,0,0.9,0c0,0,-0.2,0.2,-0.3,0.5c-0.2,0.2,-0.9,2.3,-2.8,2.5c-2,0.2,-2.9,-1,-2.9,-1c0,0,0.7,0.6,1.6,0.7c0.8,0.2,1.5,0,1.9,-0.2c0.5,-0.2,0.8,-0.4,0.9,-0.7c0.1,-0.3,0.2,0.2,-2.2,0.3c-0.3,0,2.5,-0.5,3.1,-1.4c0.1,-0.2,-0.1,-0.5,-0.1,-0.5c0,0,-0.8,-0.1,-1.2,0c-0.4,0.1,-0.8,0.3,-1,0.3c-0.2,0,-0.9,0,-1.2,0c-0.3,0,-0.9,-0.1,-1.2,-0.1c-0.3,0,-1,0.1,-1,0.1l0.1,0.4c0,0,0.2,0.3,0.5,0.5c0.3,0.2,1,0.6,1.1,0.6c0.1,0,-1.2,-0.4,-1.8,-0.8c-0.6,-0.5,-0.7,-0.8,-0.7,-0.8Z" class="g3_254" />
<path d="M139.5,187.3c0,0.1,1.2,-0.8,1.3,-1.5c0.1,-0.6,0.2,-0.2,0.2,-0.2c0,0,-0.1,0.6,0,0.8c0.1,0.2,0.2,0.5,0.6,1c0.3,0.5,0.3,0.4,0.4,1c0.1,0.5,0.1,1.3,0.2,1.7c0.1,0.4,0.1,0.8,0.1,1.1c0,0.3,-0.1,1.3,-0.2,1.6c0,0.4,-0.2,2.3,-0.2,2.6c-0.1,0.3,-0.3,1.8,-0.9,2.6c-0.5,0.7,-2.2,3,-3,3.4c-0.7,0.3,-1.5,0.5,-2,0.5c-0.4,-0.1,-1.3,0,-1.6,-0.1c-0.3,-0.1,-1,-0.2,-1.4,-0.6c-0.3,-0.3,-1.2,-1.2,-1.8,-1.8C130.7,198.9,130,198,130,198.1c0.1,0,1.2,1.5,1.4,1.8c0.2,0.2,1,1.1,1.5,1.5c0.5,0.5,1.2,0.8,2.2,0.9c1.1,0,2.1,-0.1,2.5,-0.3c0.3,-0.1,1.2,-0.9,1.6,-1.4c0.3,-0.5,1.6,-2.1,1.9,-2.5c0.3,-0.3,0.8,-1.6,0.9,-2.5c0.2,-0.9,0.2,-2.4,0.2,-2.8c0.1,-0.4,0.2,-1,0.3,-1.1c0.2,-0.2,0.2,-0.9,0.2,-1.2c0.1,-0.3,-0.1,-0.5,0,-0.8c0.1,-0.2,0.4,-0.3,0.4,-0.3c0,0,-0.1,-1.3,0,-1.3c0,-0.1,0.2,0,0.2,0c0,0,-0.1,-0.7,-0.1,-0.7c0.1,-0.1,0.5,0.4,0.5,0.4c0,0,-0.1,-0.5,0,-0.5c0.1,0,0.4,0.1,0.4,0.1c0,0,-0.3,-0.4,-0.4,-0.5c0,-0.1,-0.1,-0.2,0,-0.3c0.1,-0.2,0.3,-0.1,0.3,-0.1c0,0,-0.3,-0.3,-0.3,-0.4c0,-0.1,0.1,-0.3,0.1,-0.3c0,0,-0.1,0,-0.2,0c-0.1,-0.1,-0.2,-0.4,-0.2,-0.4l0.4,0.2c0,0,-0.3,-0.3,-0.3,-0.3c0,-0.1,0.2,-0.1,0.2,-0.1c0,0,-0.3,-0.2,-0.4,-0.3c0,-0.1,0.2,-0.1,0.2,-0.1c0,0,-0.2,-0.1,-0.2,-0.2c-0.1,-0.2,-0.1,-0.5,-0.1,-0.6c0,-0.2,-0.2,-0.5,-0.2,-0.5c0.1,0,0.4,0,0.4,0c0,0,-0.1,-0.1,-0.3,-0.2c-0.2,0,-0.5,-0.2,-0.5,-0.2l0.6,-0.1c0,0,-0.2,-0.1,-0.3,-0.2c-0.2,0,-0.2,-0.1,-0.1,-0.1c0.2,0,0.3,-0.1,0.3,-0.1c0,0,-0.3,-0.3,-0.4,-0.3c-0.1,0,-0.2,-0.2,-0.2,-0.2c0.1,0,0.2,-0.2,0.2,-0.2c0,0,-0.1,-0.1,-0.3,-0.2c-0.1,-0.1,-0.1,-0.2,-0.2,-0.3c0,-0.1,-0.2,0,-0.3,-0.1c-0.2,0,-0.2,-0.4,-0.2,-0.4c0,0,-0.1,-0.3,-0.1,-0.4c0,0,-0.1,-0.4,0,-0.4c0,0,-0.2,0,-0.3,0.1c0,0.1,0.1,0.5,-0.1,0.5c-0.2,0.1,-1,0.6,-1.1,0.6c-0.2,0,-0.5,0.1,-0.7,0.2c-0.2,0,-0.4,0.2,-0.4,0.2c0,0,0.7,0,0.9,-0.1c0.3,0,0.6,0,0.8,-0.1c0.2,-0.1,0.3,-0.1,0.2,0c0,0.1,-0.6,0.7,-0.7,0.8c-0.1,0.1,-0.5,0.3,-0.4,0.3c0.1,0,1.2,-0.6,1.3,-0.7c0,-0.1,0.1,0.1,0.1,0.2c0,0.1,-0.3,0.7,-0.6,0.8c-0.3,0.1,-1.3,0.6,-1.3,0.6c0,0,0.6,0,1,-0.2c0.5,-0.2,1.1,-0.9,1.1,-0.9c0.1,-0.1,0.2,0.4,0.1,0.6c-0.1,0.2,-0.3,0.6,-0.3,0.6l0.5,-0.5c0,0,-0.2,0.7,-0.3,0.9c0,0.2,-0.2,0.6,-0.2,0.7c0,0.2,-0.2,0.6,-0.3,0.6c-0.1,0,-0.4,1.4,-1.4,2Z" class="g3_254" />
<path d="M143.8,188.1c0,0,0,0.3,0,0.6c0,0.2,-0.1,0.4,-0.1,0.5c-0.1,0.1,-0.2,-0.3,-0.3,-0.3c0,-0.1,0.1,-0.6,0.1,-0.9c-0.1,-0.2,-0.1,-0.3,-0.1,-0.3Z" class="g3_254" />
<path d="M143.3,189.3c0,0,0.1,0.4,0.1,0.7c-0.1,0.2,-0.4,0.6,-0.5,0.6c0,0.1,-0.1,-0.5,-0.1,-0.6c0,-0.1,0.5,-0.7,0.5,-0.7Z" class="g3_254" />
<path d="M143.9,188.1c0,0,0.2,0.2,0.1,0.5c-0.1,0.2,-0.2,0.7,-0.3,1c0,0.3,-0.1,1.1,-0.1,1.2c0,0.1,-0.6,0.8,-0.6,0.9c-0.1,0.1,-0.2,0.7,-0.4,0.9c0.1,-0.4,0.2,-1,0.2,-1c0,0,0.6,-0.7,0.7,-0.9c0.1,-0.2,0.1,-1,0.1,-1.2c0.1,-0.2,0.5,-1.2,0.3,-1.4Z" class="g3_254" />
<path d="M137.8,187c0.1,0,1.9,-1,2.3,-1.5c0.4,-0.4,0.9,-1,0.9,-1.1c0,0,0.1,-0.5,0.1,-0.5c0,0,-1,1.3,-1.1,1.4c0,0.1,-2.2,1.7,-2.2,1.7Z" class="g3_254" />
<path d="M136.6,186.1c0.1,0,1,-0.7,1.1,-0.7c0.2,0,0.8,0,1.4,-0.2c0.6,-0.3,0.8,-0.6,1.1,-0.8c0.3,-0.2,0.6,-0.6,0.6,-0.6c0,0,-0.5,0,-0.7,0c-0.2,0.1,-0.5,0.2,-0.9,0.4c-0.3,0.1,-1.1,0.4,-1.2,0.5c0,0.2,-0.1,0.4,-0.3,0.5c-0.1,0.1,-1.1,0.9,-1.1,0.9Z" class="g3_254" />
<path d="M134.1,185.8c0.2,0,1.4,-0.6,1.6,-0.7c0.3,-0.1,0.8,-0.3,1,-0.4c0.1,0,-0.1,0.1,-0.1,0.3c-0.1,0.1,-1.5,1.1,-1.4,1.1c0.1,0,1.5,-1.1,1.8,-1.2c0.3,-0.1,0,0.4,-0.3,0.6c-0.2,0.2,-0.9,0.8,-0.9,0.7c0.1,0,1.7,-1.2,1.9,-1.4c0.1,-0.3,0.4,-0.7,0.7,-0.8c0.3,0,0.9,-0.1,0.9,-0.1c0,0,-1.1,0,-1,-0.1c0.1,-0.1,0.7,-0.4,0.9,-0.4c0.2,-0.1,-0.3,0,-0.9,0c-0.6,0,-1.6,0.1,-1.9,0c-0.3,0,-0.8,0,-0.9,-0.1c-0.2,-0.1,-0.1,0.3,0,0.3c0.1,0,-0.8,0.4,-1,0.4c-0.1,0.1,-0.7,0.6,-1.2,0.8c-0.5,0.1,-1.5,0.8,-1.6,0.8c-0.1,0.1,1.3,-0.5,1.3,-0.4c0,0.2,-0.4,0.9,-0.9,1.4c-0.4,0.4,-1.7,1.3,-1.7,1.3c0,0,1.3,-0.6,2.1,-1.4c0.8,-0.8,1,-1.2,1.1,-1.3c0.1,0,0.5,-0.3,0.7,-0.4c0.2,0,-0.2,0.5,-0.2,0.5l-1.2,1.3c0,0,1.9,-1.5,2.2,-1.7c0.4,-0.1,0.7,-0.2,0.7,-0.2Z" class="g3_254" />
<path d="M137.9,183.2c0,0,1.3,-0.6,1.3,-0.7c0,-0.1,-0.1,-0.2,-0.5,-0.1c-0.3,0.2,-0.9,0.6,-1.6,0.6c0,-0.1,1.2,-0.6,1.2,-0.6c0,0,0.5,-0.1,0.9,-0.2c0.4,0,1,-0.4,1,-0.4c0,0,-0.8,0.6,-0.9,0.9c-0.2,0.2,-0.3,0.4,-0.7,0.4c-0.4,0.1,-0.7,0.1,-0.7,0.1Z" class="g3_254" />
<g clip-path="url(#c2_254)">
<path d="M137.6,181.3c-0.1,0,0.7,0.1,1.4,0c0.7,-0.2,1.1,-0.5,1.4,-0.7c0.2,-0.2,1,-0.7,1.1,-0.7c0.1,-0.1,0,-0.1,0.3,0.1c0.4,0.1,1.1,0.6,1.1,0.9c0,0.3,0,0.8,0.1,0.7c0,0,0,-0.6,0,-0.6c0,0,0.3,0.4,0.4,1c0.5,-0.3,-0.7,-2.3,-1.8,-2.4c-1.1,-0.2,-0.8,0,-0.8,0c-0.1,-0.1,-0.1,-0.2,-0.1,-0.4c0.1,-0.1,-0.2,-0.1,-0.2,-0.1l0.4,-0.5c0,0,-0.6,0.4,-0.7,0.4c-0.1,-0.1,-0.1,-0.3,0.1,-0.4c0.1,0,0.3,-0.1,0.3,-0.1c0,0,-0.4,-0.1,-0.5,0.1c-0.2,0.3,-0.4,0.3,-0.4,0.3c-0.1,0.1,-0.3,0,-0.1,-0.2c0.2,-0.2,0.6,-0.5,0.6,-0.6c-0.1,0,-0.7,0.6,-0.7,0.4c0,-0.1,0.1,-0.5,-0.4,-1c-0.5,-0.5,-0.8,-0.8,-1.5,-0.9c-0.7,-0.2,-1.4,-0.1,-1.4,-0.1c-0.1,0,1.1,0.2,1.5,0.4c0.3,0.2,1,0.5,1.2,1.2c-0.2,-0.2,-0.6,-0.8,-1.1,-0.9c0.5,0.4,0.8,0.7,0.9,1c0,0.2,-0.5,-0.6,-1.6,-1.1c-1.1,-0.4,-1.9,-0.5,-2.3,-0.4c-0.4,0.1,-1.1,0.4,-1.1,0.4c0,0,1.5,0,2.2,0.2c0.6,0.2,0.7,0.4,0.9,0.3c0.2,0,0.3,0,0.6,0.1c0.3,0.1,1,0.4,0.5,0.4c-0.4,0,-1.6,-0.2,-2.2,-0.2c-0.6,0,-0.7,0,-0.7,0c0,0,0.8,0.3,1.3,0.3c0.5,0,1.4,0,1.7,0.2c0.3,0.1,0.8,0.5,0.5,0.4c-0.3,0,-0.5,0,-0.5,0c0,0,0.7,0.3,0.6,0.4c-0.1,0.1,-0.7,-0.1,-0.9,-0.2c-0.2,-0.1,0.4,0.4,0.7,0.5c0.3,0.1,0.6,0.1,1,0.2c0.3,0.1,0.9,0,0.8,0.2c-0.1,0.1,0.2,0.3,-0.7,0.1c-0.8,-0.1,-2,-0.6,-2.4,-0.7c-0.4,0,-0.6,0,-0.6,0c0,0,0.7,0.3,1,0.4c0.3,0.1,1.3,0.5,1.5,0.6c0.2,0,-0.8,-0.2,-1.1,-0.1c-0.3,0,-0.6,0,-0.6,0c0,0,1.3,0.2,1.3,0.3c0,0,-0.9,0.1,-1.1,0.1c-0.3,-0.1,-1.4,-0.2,-1.5,-0.2c-0.1,0,2,0.4,1.8,0.4c-0.1,0.1,-1.6,0.6,-4,-0.5c-0.2,-0.2,0.9,0.6,1.2,0.7c0.3,0.2,1.1,0.3,1.5,0.3c0.3,-0.1,1.8,-0.5,2,-0.4c0.1,0.1,-0.5,0.5,-0.9,0.4Z" class="g3_254" />
</g>
<path d="M132.5,179.9c0.4,0.1,0.4,0.3,0.9,0.7c0.4,0.3,1.2,0.5,1.5,0.7c0.3,0.3,0.7,0.3,1.1,0.6c0.4,0.2,1.1,0.6,1.4,0.6c0.2,0,-0.4,0.3,-0.8,0.3c-0.4,-0.1,-0.6,-0.4,-1.1,-0.4c-0.5,0,-0.8,-0.1,-1.6,0.1c-0.8,0.2,-1.2,0.1,-1.4,0.2c-0.3,0.1,-0.9,0.2,-1.4,0.1c-0.5,0,-0.7,0.1,-1.4,0.1c-0.7,-0.1,-1.2,0,-1.6,0.1c-0.3,0.1,-0.8,0.5,-0.9,0.5c-0.1,0,-0.4,0.1,-0.5,0.1c-0.1,0.1,-0.5,0.6,-0.6,0.8c-0.1,0.1,0.3,-0.8,0.7,-1.1c0.4,-0.2,0.9,-0.4,1.2,-0.5c0.4,-0.2,0.4,-0.4,1.1,-0.3c0.8,0.1,1.7,0.1,2.1,0c0.3,0,1.1,0.1,1.6,-0.1c0.4,-0.1,1.8,-0.2,1.9,-0.3c0.2,-0.1,-0.4,-0.2,-0.9,-0.1c-0.5,0,-1.1,0.1,-1.8,0c-0.6,-0.1,1.6,-0.1,1.7,-0.3c0.1,-0.1,0.1,-0.3,-0.1,-0.3c-0.2,-0.1,-0.6,-0.1,-1,-0.2c-0.4,0,-1.2,0,-1.9,0c-0.6,0,-1.4,0,-1.9,0.1c-0.4,0.2,-1.3,0.9,-1.4,1c-0.1,0,0.9,-1.2,1.6,-1.3c0.7,-0.1,3.3,0,3.8,0.1c0.6,0,1.3,0.4,1.6,0.4c0.3,0.1,0.4,0,0.1,-0.1c-0.4,-0.2,-1.6,-0.7,-1.8,-0.7c-0.2,0,-1.5,0,-1.9,0.1c-0.5,0.1,0.6,-0.2,1.2,-0.3c0.6,0,0.8,-0.1,0.6,-0.2c-0.2,-0.1,-0.6,0,-0.9,0.1c-0.4,0,-1.1,-0.1,-1.4,0c-0.4,0.1,-1.3,0.3,-1.6,0.4c-0.3,0.1,-1,0.3,-0.9,0.3c0.1,-0.1,1.3,-0.6,1.7,-0.8c0.5,-0.1,2.1,-0.2,2.1,-0.2c0,0,-0.1,-0.2,-0.8,-0.2c-0.6,0.1,-1.7,0.3,-1.9,0.3c-0.1,0,0.7,-0.3,1.2,-0.4c0.4,-0.1,1.3,-0.3,2.4,0.1Z" class="g3_254" />
<g clip-path="url(#c2_254)">
<path d="M133.5,176.7c0,0,-0.6,-0.2,-1.2,-0.2c-0.6,0.1,-1,0.2,-1.4,0.3c-0.5,0.2,-1.6,0.5,-1.8,0.7c-0.2,0.1,-1.2,0.7,-1.5,0.9c-0.3,0.3,-1,1,-1,1c0.1,-0.1,1.1,-1,1.4,-0.9c0.2,0,0.2,0.2,-0.3,0.4c-0.5,0.2,-1,0.6,-0.9,0.6c0,0,0.4,-0.1,0.3,0c-0.1,0.1,-1.1,1,-1.3,1.3c-0.1,0.2,0.9,-0.8,0.9,-0.6c-0.1,0.2,-1.2,1.5,-1.3,1.7c-0.1,0.2,-0.2,0.9,-0.2,0.9c0,0,0.4,-0.8,0.5,-0.8c0.2,0,0,0.5,-0.2,0.7c-0.2,0.3,-0.4,0.6,-0.4,0.8c-0.1,0.2,0,0.9,0.1,0.9c0,0,0.2,1.5,0.2,1.5c0,0,0.3,-0.4,0.4,-0.3c0,0,-0.1,0.8,-0.1,0.9c0,0.1,0,0.6,0.1,0.5c0,0,0.5,-0.3,0.4,-0.2c-0.1,0.2,-0.4,0.3,-0.4,0.5c-0.1,0.2,0.1,0.2,0.2,0.3c0,0.2,-0.1,0.8,-0.1,0.8c0,0,0.1,0.2,0.2,0.1c0.1,0,0.4,-0.3,0.5,-0.3c0,0.1,-0.1,0.7,-0.1,0.7c0,0,0,0.5,0.1,0.5c0.2,0,0.3,0.2,0.3,0.3c0,0.1,0,0.6,0,0.7c0,0.1,0.1,0.4,0.2,0.6c0,0,0.3,0.5,0.2,0.8c0,0.2,0.2,0.5,0.2,0.5c0,0,0.6,0.8,0.7,1.2c0.1,0.4,0.2,0.8,0.2,0.8c0,0,-0.1,-0.9,-0.2,-1.2c-0.2,-0.3,-0.5,-1,-0.5,-1.5c0,-0.5,-0.1,-1.6,0.1,-1.8c0.1,-0.3,0.3,-0.3,0.3,-0.1c0,0.1,0.1,0.4,0.2,0.3c0.1,-0.1,0.2,-0.1,0.3,-0.2c0.1,-0.1,0.1,0.1,0.1,0c0.1,0,0,-0.7,0,-0.7c0.1,0,0.2,0.3,0.2,0.3c0,0,0.1,-0.5,0.1,-0.5c0.1,-0.1,0.5,-0.3,0.6,-0.3c0.1,-0.1,0.1,-0.5,0.1,-0.7c0,-0.1,0.4,-0.5,0.4,-0.5c0,0,-0.1,0.7,-0.2,0.9c0,0.2,0.1,1.2,0.1,1.2c0,-0.1,0.2,-1.7,0.4,-2c0.1,-0.2,0.6,-0.8,0.6,-0.8c0,0,-0.6,0.6,-0.6,0.5c0,0,0.6,-0.6,0.5,-0.6c-0.1,0,-1.2,0.9,-1.2,0.9c0,0,-0.5,0.6,-0.6,0.7c0,0.1,0,-0.4,0.2,-0.6c0.1,-0.3,-0.5,0.6,-0.6,0.6c-0.1,0.1,-0.3,0.1,-0.2,-0.4c0.1,-0.5,0.3,-0.9,0.3,-0.9c0,0,-0.5,0.4,-0.5,0.9c-0.1,0.4,-0.3,0.5,-0.3,0.5c0,0,0.1,-1.1,0.2,-1.4c0.1,-0.3,0.3,-0.7,0.3,-0.8c0.1,-0.1,0.2,-0.6,0.2,-0.7c0,0,-0.5,0.3,-0.6,0.6c0,0.2,0,0.4,-0.2,0.6c-0.2,0.3,-0.6,0.8,-0.6,0.8c-0.1,0.1,-0.2,-0.5,-0.2,-0.7c0.1,-0.3,0.3,-1,0.6,-1.2c0.2,-0.2,0,0.3,0,0.3c0,0,0.4,-0.5,0.5,-0.6c0.1,0,0.4,-0.6,0.4,-0.6c0,0,-0.1,0.8,-0.1,0.6c0.1,-0.1,0.6,-0.6,0.6,-0.6c0,0,-0.4,1,-0.3,1c0.1,-0.1,0.7,-0.7,0.9,-0.9c0.2,-0.1,0.4,-0.1,0.4,-0.1c0,0,-0.8,1.2,-0.8,1.2c0,0,1.2,-1.2,1.4,-1.2c0.1,-0.1,0.1,0.2,0.1,0.3c-0.1,0,-1.2,1.1,-1.2,1.1c0,0,1.3,-0.7,1.4,-1c0.2,-0.2,0.2,-0.4,0.2,-0.4c0,0,0,-0.3,0.1,-0.3c0.1,-0.1,0.9,-0.5,1.7,-0.5c0.8,0.1,0.8,0.1,1,0.1c0.3,-0.1,0.5,-0.2,0.5,-0.2c0,0,-0.7,-0.1,-1,-0.1c-0.3,0,0.6,0,0.8,-0.1c0.2,-0.1,-1.3,0,-1.5,-0.1c-0.2,-0.1,-0.5,-0.2,-0.9,-0.1c-0.3,0.1,-0.6,0.3,-1,0.4c-0.5,0.1,-0.3,-0.1,-1,0c-0.6,0.1,-0.9,0.2,-1.1,0.3c-0.3,0.1,-0.8,0.5,-0.8,0.6c-0.1,0,0.1,-0.3,0.3,-0.4c0.2,-0.2,-0.5,0.3,-1.1,0.4c-0.6,0.1,-0.7,0.5,-0.7,0.5c0,0,0,-0.5,0.1,-0.5c0,-0.1,0.4,-0.2,0.8,-0.4c0.5,-0.3,0.7,-0.6,1.1,-0.6c0.5,0,1.4,-0.2,1.6,-0.2c0.1,0,-0.9,-0.1,-1.2,-0.1c-0.4,0,-1.5,0.6,-1.7,0.7c-0.1,0.2,-0.7,0.3,-0.8,0.4c0,0,-0.4,0.2,-0.4,0.2c0,0,-0.1,-0.8,0.3,-1.1c0.4,-0.2,0.6,-0.9,0.7,-0.9c0.2,0,0.6,-0.1,0.6,-0.1c0,0,-0.3,-0.1,-0.9,0.1c-0.6,0.1,0.3,-0.5,0.5,-0.8c0.3,-0.3,-0.3,-0.2,-0.3,-0.2c0,0,-0.6,0.5,-0.8,0.9c-0.1,0.4,0.2,-0.9,0.5,-1.2c0.2,-0.3,0.4,-0.5,0.7,-0.8c0.3,-0.2,1,-0.3,1,-0.3c0,0,0.7,-0.2,0.8,-0.4c0.2,-0.2,-0.4,0,-0.2,-0.2c0.2,-0.2,0.5,-0.3,0.3,-0.3c-0.3,-0.1,-0.8,0.4,-1.1,0.6c-0.4,0.1,0.1,-0.4,0.1,-0.4c0,0,0.3,-0.6,1.3,-0.6c1,0,1.2,-0.3,1.4,-0.3c0.1,0,0,0.1,0.7,0.3c0.7,0.2,1.2,0.3,1.2,0.3c0,0,-0.7,-0.3,-0.5,-0.4c0.1,-0.1,1,0,1.4,0.1c0.5,0.1,1.4,0.3,1.7,0.3c0.3,0,-0.7,-0.5,-1,-0.5c-0.2,0,-1.5,-0.4,-1.9,-0.3c-0.3,0.2,-0.4,0.6,-0.8,0.3c-0.4,-0.2,-1,-0.5,-0.5,-0.6c0.4,0,1,0,1.3,0c0.3,0.1,1.5,0.2,1.7,0.1c0.2,0,-1,-0.3,-1.2,-0.3c-0.1,0,-0.8,-0.1,-1.5,-0.1c-0.7,0,-1.2,0.3,-1.5,0.4c-0.3,0.1,-1.4,0.5,-1.5,0.6c-0.1,0,0.5,-0.8,0.9,-0.9c0.3,-0.1,1,-0.9,2.1,-1c1.1,-0.1,2,-0.2,2,-0.2Z" class="g3_254" />
</g>
<path d="M126.4,188.5c0,-0.1,-0.3,0.4,-0.3,0.7c0,0.2,0.1,0.6,0.1,0.6c0,0,0,-0.3,0.1,-0.3c0.2,0,0.2,0.3,0.3,0.5c0.2,0.1,0.2,-0.2,0.1,-0.3c-0.1,-0.2,-0.5,-0.6,-0.3,-1.2Z" class="g3_254" />
<path d="M126.2,190.5c0.1,0,0.2,0.4,0.2,0.6c0,0.3,0.2,0.7,0.6,1.2c0.4,0.4,0.3,0.5,0.5,0.8c0.3,0.3,0.6,0.5,0.6,0.5c0,0,-0.4,-0.4,-0.5,-0.6c-0.1,-0.3,-1,-1,-1,-1.6c-0.1,-0.7,-0.4,-0.9,-0.4,-0.9Z" class="g3_254" />
<g clip-path="url(#c2_254)">
<path d="M130,198.3c0,0,0.2,1.2,0.1,1.6c0,0.5,0.1,0.8,-0.1,1.1c-0.1,0.3,-0.4,0.7,-0.7,0.8c-0.3,0.1,-0.3,0,-0.6,0.1c-0.4,0.1,-0.8,0.2,-1.2,0.4c-0.4,0.2,-1,0.4,-1.3,0.6c-0.3,0.1,-0.6,0.3,-1.1,0.4c-0.5,0.1,-0.9,0.3,-1.4,0.6c-0.5,0.2,-2.2,1.2,-2.7,1.4c-0.5,0.2,2.5,-1.2,2.7,-1.2c0.1,0,-3.2,2.3,-2.4,2c0.9,-0.4,2.7,-1.6,3.3,-2c0.5,-0.4,0.8,-0.5,1,-0.5c0.3,0,-0.2,0.9,-0.6,1.3c-0.4,0.4,-1.2,2,-1.1,1.9c0.1,-0.1,2.2,-3.1,2.5,-3.3c0.4,-0.3,0.8,-0.5,0.8,-0.4c0.1,0.2,-0.2,1.1,-0.1,1.5c0.2,0.5,0.9,2.6,1,2.8c0.1,0.2,-0.2,-1.3,-0.1,-1.8c0,-0.4,0.2,-1,0.3,-0.8c0.2,0.3,1.4,3.4,1.9,4.1c0.4,0.6,1.4,1.8,1.4,1.8c0,0,-3.4,-5.4,-3.2,-7c0.2,-1.6,0.5,-1.5,1.1,-1.6c0.4,-0.1,0.6,-0.3,0.9,-1.1c0,-0.3,-0.4,-2.7,-0.4,-2.7Z" class="g3_254" />
<path d="M141.1,199.7c0.1,0.3,0.6,1.1,1.2,1.3c0.6,0.3,1.4,0.3,1.7,0.5c0.3,0.1,1.2,0.5,1.9,0.6c0.6,0.2,2.7,0.6,2.8,0.6c0.1,0,-2.6,-0.3,-2.8,-0.2c-0.3,0.1,-0.2,0.7,-0.2,1c0,0.3,-0.3,-0.3,-0.5,-0.8c-0.2,-0.4,-0.6,-0.5,-0.7,0c0,0.5,-0.3,1.6,-0.7,2.3c-0.3,0.6,-1.6,1.7,-1.9,2.1c-0.4,0.5,-1,0.8,-1,0.8c0,0,1.5,-2.8,1.7,-3.4c0.3,-0.7,0.8,-2.6,0.6,-2.8c-0.2,-0.2,-1.3,-0.4,-1.7,-0.9c-0.4,-0.4,-0.4,-1.1,-0.4,-1.1Z" class="g3_254" />
</g>
<path d="M129.2,250.7c-0.1,0,-0.1,-0.1,-0.1,-0.1c0,-0.1,0,-0.1,0.1,-0.1c0,0,0.1,0,0.1,0.1c0,0,-0.1,0.1,-0.1,0.1m-0.3,-0.6c-0.8,0.2,-1.1,0.8,-1.4,0.9c0,0,0.3,0.1,0.4,0c0.1,0,0.8,-0.8,0.8,-0.5c-0.1,0.3,0.1,0.7,0.7,0.7c0.5,0,0.6,-0.6,0.6,-0.6c0,0,0.1,-0.1,0.5,0.5c-0.1,-0.7,-0.7,-1.1,-1.6,-1Z" class="g2_254" />
<path d="M135.3,250.4c0,0,-0.1,-0.1,-0.1,-0.1c0,-0.1,0.1,-0.1,0.1,-0.1c0.1,-0.1,0.1,0,0.1,0.1c0,0,0,0.1,-0.1,0.1m1.6,0.1c-0.1,-0.2,-0.4,-0.7,-1.2,-0.8c-0.7,-0.1,-1,0.1,-1.3,0.3c-0.3,0.2,-0.9,0.9,-0.9,0.9c0,0,0.4,-0.1,0.7,-0.4c0.3,-0.4,0.7,-0.4,0.7,-0.4c0,0,-0.2,0.4,0.2,0.6c0.6,0.3,0.9,-0.1,0.9,-0.1c0,0,0.1,-0.1,0.2,-0.2c0.1,0,0.3,0.2,0.4,0.2c0.1,0,0.5,0.1,0.3,-0.1Z" class="g2_254" />
<path d="M130.1,249.6c0,0,-0.7,-0.5,-1.3,-0.6c-0.6,-0.1,-0.9,0,-1.1,0.2c-0.2,0.1,-0.7,0.5,-0.9,0.8l-0.1,0.3c0,0,0.5,-0.6,0.9,-0.7c0.4,-0.1,0.7,-0.3,1.1,-0.1c0.5,0.2,0.8,0.3,1,0.3c0.3,0,0.4,-0.2,0.4,-0.2Z" class="g2_254" />
<path d="M133.2,249.5c0,0,0.2,-0.5,0.7,-0.7c0.4,-0.2,1.5,-0.3,2.1,-0.2c0.6,0.2,1.4,0.8,1.4,0.8c0,0,-1.3,-0.4,-1.8,-0.3c-0.4,0,-0.8,0.1,-1.2,0.3c-0.5,0.2,-1.2,0.2,-1.2,0.1Z" class="g2_254" />
<path d="M130.4,250.3c-0.1,-0.1,0.4,0.2,0.4,0.4c0,0.2,-0.1,1.2,-0.1,1.4c-0.1,0.2,0.1,-1.5,-0.3,-1.8Z" class="g2_254" />
<path d="M130.1,253.5c0,0,-0.3,0.7,-0.3,1c0,0.3,0.1,0.4,0.3,0.4c0.1,0,0.4,-0.1,0.6,-0.1c0.1,0.1,0.5,0.4,0.6,0.4c0,0,-0.4,0,-0.5,-0.1c-0.2,0,-0.1,-0.1,-0.4,-0.1c-0.3,0,-0.6,0,-0.6,-0.1c-0.1,-0.2,-0.1,-0.6,0.3,-1.4Z" class="g2_254" />
<path d="M131.8,255c0,-0.1,0.1,-0.3,0.3,-0.3c0.3,0,0.8,0,0.8,0c0.1,0,-0.4,0.2,-0.3,0.2c0.1,0,0.7,-0.1,0.8,-0.3c0.2,-0.1,0.3,-0.6,0.2,-0.8c0,-0.3,-0.1,-0.4,-0.1,-0.4c0,0,0.2,0.1,0.3,0.6c0,0.5,-0.4,0.8,-0.5,0.9c-0.2,0.1,-0.7,0.1,-0.8,0.1c-0.2,0,-0.2,-0.1,-0.4,-0.1c-0.1,0,-0.3,0.1,-0.3,0.1Z" class="g2_254" />
<path d="M135.2,256.8c0,0,-0.5,0.4,-0.8,0.5c-0.3,0.1,-0.4,0.2,-0.6,0.3c-0.3,0.1,-0.6,0.1,-1,0.2c-0.4,0,-0.9,0.1,-1.3,0c-0.4,0,-0.4,-0.1,-0.6,-0.2c-0.2,0,-0.3,-0.2,-0.3,-0.2c-0.3,-0.3,-0.1,-0.6,-0.1,-0.6c0,0,0.2,0,0.7,-0.1c0.4,0,0.8,0.1,1,0.1c0.2,0,1,-0.2,1.4,-0.3c0.3,0,1,0,1.3,0.1c0.3,0,0.3,0.2,0.3,0.2m0.4,-0.3c-0.7,0,-1.7,-0.5,-2.4,-0.5c-0.6,0,-0.6,0.3,-1.1,0.1c-0.7,-0.1,-1.1,0,-1.5,0.1c-0.4,0.1,-1.1,0.5,-1.1,0.5c0,0,0.5,0.7,0.8,0.9c0.2,0.2,0.8,0.4,1.2,0.5c0.3,0,1.3,-0.1,1.7,-0.1c0.5,-0.1,1,-0.3,1.2,-0.4c0.2,0,0.1,0,-0.1,0.2c-0.2,0.1,-0.7,0.3,-1.3,0.4c-0.5,0.1,-0.6,0.2,-1.2,0.1c-0.6,0,-0.7,0,-1.1,-0.2c-0.4,-0.2,-0.5,-0.3,-0.6,-0.4c0,0.1,0.5,0.8,0.9,1c0.3,0.1,0.7,0.2,0.9,0.2c0.3,-0.1,1.3,-0.1,1.8,-0.3c0.4,-0.2,0.9,-0.8,1.2,-1.1c0.3,-0.3,1.3,-1,0.7,-1Z" class="g2_254" />
<g clip-path="url(#c3_254)">
<path d="M126.9,250.3c0,0,-0.1,0.9,-0.2,1.3c0,0.4,-0.1,1.2,-0.1,1.6c0,0.5,0.2,1.4,0.2,1.7c0,0.4,0.3,1.7,0.5,2c0.1,0.2,0.3,0.9,1,1.8c0.6,1,1.9,2.2,2.5,2.4c0.6,0.3,1.2,0.6,2.6,0.3c1.4,-0.2,2.8,-0.8,3.6,-1.6c-0.2,0.4,-1.1,1,-2.2,1.5c-1.2,0.4,-2.3,0.6,-3.5,0.3c-0.7,-0.2,-0.6,0.1,-0.7,0.6c-0.1,0.6,-0.2,1.4,-0.5,1.9c-0.3,0.4,-1.2,1.2,-1.5,1.3c-0.4,0.1,1.2,-0.9,1.5,-1.8c0,-0.4,-0.2,-0.9,-0.3,-1.5c-0.2,-0.5,-0.4,-0.8,-0.5,-1.2c0,-0.5,-0.6,-1.1,-0.6,-1.1c0,0,0.2,0.9,0.3,1.1c0,0.2,0.9,2.5,0.9,2.5c0,0,-0.9,-1.7,-1,-1.9c0,-0.1,0.8,2.2,0.9,2.3c0,0.1,-0.6,-0.7,-0.7,-1.1c-0.1,-0.4,0.1,1.3,0.2,1.4c0.1,0.2,-0.5,-0.5,-0.5,-0.8c0,-0.2,-0.2,0.6,-0.4,1.2c-0.1,0.7,0.1,1.4,-0.3,1.8c-0.5,0.5,-1,0.5,-1,0.5c0,0,0.8,-1.1,0.9,-2c0.1,-1,-0.1,-2.6,-0.1,-3.4c0,-0.9,-0.6,-2.3,-0.6,-2.3c0,0,0.5,4.1,0.4,4.8c-0.1,0.7,-0.4,1.1,-0.5,1.7c-0.1,0.5,-0.4,1.5,-0.5,1.7c-0.2,0.2,-0.1,-2.6,0,-2.9c0,-0.4,0.2,0.7,0.2,0.6c0,-0.1,0,-1.7,0,-2.5c0,-0.8,-0.1,-0.9,-0.2,-1.5c0,-0.7,-0.2,-3.8,-0.2,-4.2c0,-0.4,0,-2.7,0,-2.7c0,0,0,5.3,-0.1,5.7c-0.1,0.4,-0.1,2.5,-0.1,3c0,0.5,0,2.4,0,2.9c-0.1,0.5,0,2.3,0,2.6c0.1,0.3,0.2,2.7,0.3,3.3c0,0.6,0.1,2.6,-0.1,3c-0.2,0.4,-0.1,-3.4,-0.2,-4c-0.1,-0.7,-0.3,-4.1,-0.3,-4.5c0.1,-0.3,-0.2,-1.3,-0.1,-1.7c0.2,-0.4,0.1,-2.3,0.2,-2.8c0,-0.5,-0.1,-1.6,0,-1.9c0.1,-0.4,0.2,-2.2,0.2,-2.6c0,-0.3,-0.1,-2,-0.1,-2c0,0,-0.7,7.3,-0.8,8.8c-0.2,1.5,-0.3,2.5,-0.4,3.4c-0.1,0.9,-0.3,2.1,-0.4,2.6c-0.1,0.5,0,2.1,0,2.1c0,0,0.2,-5.7,0.2,-6.5c0.1,-0.8,0.2,-3.8,0.4,-4.5c0.2,-0.7,0.3,-3.4,0.5,-4.3c0.3,-0.9,0,-1.4,0.3,-2.5c0.2,-1,0.4,-3.1,0.4,-3.3c0.1,-0.2,0.4,-1.6,0.5,-2.2c0.1,-0.6,0.6,-1.8,0.8,-2.4c0.2,-0.6,0.4,-1.3,0.6,-1.7c0.2,-0.3,-0.6,2.1,-0.7,2.5c-0.2,0.3,-0.4,1.4,-0.4,1.4c0,0,0.8,-2,1.4,-2.6c0.5,-0.6,1.4,-1.4,1.9,-1.7c0.4,-0.2,0.8,-0.3,0.8,-0.3c0,0,-1.7,0.8,-2.5,2c-0.8,1.2,-1.3,2.4,-1.5,2.8c-0.1,0.3,-0.4,1.6,-0.4,1.6Z" class="g2_254" />
</g>
<path d="M132.3,242.8c0,0,-0.4,0.1,-0.8,0.4c-0.4,0.3,-0.6,0.1,-1,0.6c-0.5,0.5,-1.2,1,-1.6,1.4c-0.5,0.4,-0.7,0.7,-0.7,0.7c0,0,1.1,-1.3,1.4,-1.6c0.2,-0.4,1.3,-1.1,1.4,-1.2c0.2,-0.1,0.6,-0.4,0.5,-0.5c0,0,-0.5,0,-0.8,0.3c-0.4,0.4,-1.4,1.3,-1.4,1.3l1.1,-1.3l-1.2,1.1c0,0,1,-1.2,1.7,-1.6c0.8,-0.5,0.7,-0.6,0.5,-0.5c-0.3,0,-1.5,0.9,-1.9,1.3c-0.4,0.4,0.8,-1,1.2,-1.3c0.4,-0.3,-0.7,0.3,-0.6,0.2c0,0,0.8,-1,1.4,-1.1c0.5,-0.1,0.8,0,0.9,0c0.2,-0.1,0,0.3,0,0.5c0,0.2,0,1,-0.1,1.1c0,0.2,0,0.2,0,0.2Z" class="g2_254" />
<path d="M132.6,240.8c0,0,-1,-0.2,-1.3,-0.1c-0.3,0.1,-1.1,0.7,-1.4,1c-0.3,0.4,-1.1,1.5,-1.3,1.8c-0.2,0.4,-0.5,0.6,-0.8,1.3c-0.3,0.7,-1,2.8,-1.1,3.3c-0.1,0.4,-0.2,1.7,-0.5,2c-0.3,0.4,-0.4,0.4,-0.4,0.4c0,0,0.3,-1.6,0.4,-2.2c0.2,-0.6,0.5,-2.8,0.8,-3.2c0.2,-0.5,0.8,-2,1.1,-2.2c0.2,-0.2,-0.4,0.8,-0.5,1.2c-0.1,0.3,1,-1.7,1.6,-2.2c0.6,-0.5,1,-0.9,1.2,-1c0.3,-0.1,-1.1,0.9,-1.5,1.6c-0.4,0.7,-1,1.6,-1,1.6c0.1,-0.1,1.7,-2.6,3,-3.3c0.9,-0.6,1.7,0,1.7,0Z" class="g2_254" />
<g clip-path="url(#c3_254)">
<path d="M123.2,269.5c0,0,0.6,-2.3,0.8,-2.8c0.1,-0.4,0.6,-3.5,0.7,-4.2c0.1,-0.7,0.1,-1.4,0.2,-1.6c0,-0.2,0.1,-0.6,0.2,-1c0.1,-0.4,-0.1,-1.5,0,-1.8c0.2,-0.3,0.5,-1.8,0.5,-2.3c0,-0.6,0,-1.8,0,-2.5c0.1,-0.8,0.1,-1.6,0.1,-1.6c0,0,-0.1,1,-0.3,1.5c-0.2,0.4,-0.2,0.9,-0.3,1.5c-0.1,0.5,-0.2,1,-0.2,1.6c0,0.7,-0.2,1,-0.2,1.7c0,0.6,0.1,0.8,-0.1,1.4c-0.1,0.5,-0.3,1.7,-0.5,2.2c-0.1,0.5,-0.4,2.5,-0.6,3.3c-0.3,0.8,-1.2,4.4,-1.3,4.8c-0.1,0.5,0,1.5,0.2,1.9c0.1,0.4,0.5,0.9,0.5,0.9c0,0,-0.8,-1.5,-0.4,-2.8c0.3,-1.3,0.7,-2.9,1.1,-3.7c0.3,-0.8,0.7,-3.8,0.8,-4.4c0.2,-0.6,0.2,1,0,1.8c-0.2,0.7,-1.2,6.1,-1.2,6.1Z" class="g2_254" />
<path d="M121.9,267.9c0.1,-0.1,0.7,-3.5,0.7,-4c0.1,-0.5,0.3,-3,0.8,-3.9c0.5,-0.9,0.7,-3.1,0.9,-3.7c0.2,-0.6,0.4,-1.8,0.5,-2.2c0.1,-0.4,0,-1.7,0.3,-2.5c0.2,-0.7,0.1,-2.7,0.2,-3.1c0.2,-0.4,0.2,-1.6,0.3,-1.8c0.1,-0.2,0.8,-1.1,0.8,-1.1c0,0,-0.5,1.4,-0.6,1.6c-0.1,0.3,0.4,-0.5,0.4,-0.4c0,0.1,0.1,1.2,-0.2,1.8c-0.3,0.6,-0.4,2,-0.5,2.6c-0.2,0.6,-0.2,1.6,-0.3,1.8c0,0.2,-0.3,1.8,-0.4,2.1c-0.1,0.3,-0.4,2.2,-0.5,3c-0.2,0.9,-0.5,2,-0.7,2.5c-0.2,0.4,-0.6,2.1,-0.7,2.6c-0.1,0.6,-0.3,2.8,-0.6,3.5c-0.2,0.6,-0.4,1.2,-0.4,1.2Z" class="g2_254" />
</g>
<path d="M125.8,245.9c0,0,0.9,-2,1,-2.5c0.1,-0.5,1.4,-1.9,1.8,-2.3c0.5,-0.4,1.1,-0.6,1.1,-0.6c0,0,-1,0.8,-1.4,1.1c-0.4,0.3,-1.1,1.6,-1.3,2c-0.3,0.4,-0.3,0.5,-0.5,0.9c-0.2,0.4,-0.7,1.4,-0.7,1.4Z" class="g2_254" />
<path d="M131,240.2c-0.1,0,-0.5,0.1,-1.1,0.4c-0.5,0.3,-1.4,1.1,-1.6,1.4c-0.2,0.2,-0.5,0.6,-0.8,1.1c-0.3,0.6,-0.5,1.5,-0.5,1.5c0,0,0.8,-1.9,1.4,-2.5c0.6,-0.6,0.9,-0.9,1.4,-1.2c0.4,-0.2,1.2,-0.7,1.2,-0.7Z" class="g2_254" />
<path d="M129.3,240.3c0.2,-0.1,0.9,-0.4,1.2,-0.6c0.4,-0.2,0.5,-0.1,0.5,-0.1c0,0,-0.4,0.2,-0.7,0.5c-0.3,0.2,-1,0.2,-1,0.2Z" class="g2_254" />
<path d="M132.7,240c0,0,-0.4,-0.7,-0.9,-0.7c-0.5,-0.1,-1.1,-0.1,-1.4,0c-0.3,0.2,0.2,-0.4,1.1,-0.3c0.9,0.1,0.9,0.2,1.1,0.3c0.1,0.2,-0.2,-0.6,-0.2,-0.6c0,0,0.3,0.2,0.3,0.3c0,0.1,0.4,0.5,0.5,0.5c0.2,0,0.8,0.2,1,0.2c0.3,0.1,0.8,0.4,0.8,0.4c0,0,-1.2,-0.3,-1.4,-0.3c-0.3,0,-0.5,0.1,-0.2,0.2c0.3,0,1.4,0.2,1.8,0.4c0.4,0.2,1.6,0.8,1.8,1c0.3,0.2,2.2,2,2.6,2.3c0.4,0.2,0.1,0,-0.1,-0.4c-0.2,-0.3,-0.9,-1,-0.9,-1c0,-0.1,0.7,0.1,1.6,1.6c1,1.4,1.6,3.5,1.7,4.2c0.2,0.7,0.4,1.3,0.4,1.8c0,0.5,0.1,3.5,0.2,4.1c0,0.7,0.3,2.9,0.2,3.5c-0.1,0.5,-0.1,1.1,-0.1,1.1c0,0,-0.3,-4.6,-0.4,-4.8c0,-0.3,-0.2,-2.2,-0.3,-2.4c0,-0.2,0,-0.4,-0.3,-0.6c-0.3,-0.2,-1.1,-1,-1.3,-1.2c-0.1,-0.3,-0.9,-1.2,-0.8,-1.3c0,0,0.5,0.4,1,0.8c0.5,0.3,1.3,0.6,1.3,0.6c0,0,-0.9,-0.7,-1.4,-1c-0.4,-0.2,-1.3,-1.5,-1.4,-1.6c0,-0.2,1.2,0.9,1.4,0.9c0.1,0.1,-0.4,-0.7,-0.6,-0.9c-0.1,-0.1,-1.1,-0.7,-1.6,-1.1c-0.6,-0.3,-1.6,-0.8,-1.8,-1.1c-0.3,-0.2,-2,-1.2,-2.2,-1.4c-0.2,-0.3,-0.9,-0.8,-0.9,-0.8c0,0,1.6,1.1,1.9,1.2c0.3,0.2,1.1,0.7,1.5,1c0.5,0.3,0.8,0.5,1.4,0.8c0.6,0.3,1.1,0.5,1.4,0.8c0.3,0.3,0.9,0.7,1,0.8c0.2,0.1,0.8,0.6,0.8,0.6c0,0,-1.9,-1.8,-2,-1.9c-0.1,-0.1,-1.5,-0.7,-1.6,-0.8c-0.2,-0.1,-2.5,-1.6,-2.7,-1.8c-0.1,-0.1,-1.1,-1.1,-1.3,-1.2c-0.2,-0.1,0.1,-0.3,0.3,0c0.3,0.2,1,0.6,1.5,1.1c0.5,0.4,1.7,1.4,2,1.7c0.4,0.3,1,0.5,1,0.5l-3,-2.5c0,0,2.1,1.6,2.3,1.7c0.1,0.1,-2.5,-2.2,-2.7,-2.4c-0.3,-0.2,1.8,1.4,2.4,1.9c0.7,0.5,1.2,1,1.6,1.3c0.4,0.3,1.1,1,1.5,1.4c0.4,0.4,0.8,0.7,0.7,0.6c0,0,-1,-1.4,-1.2,-1.6c-0.2,-0.2,-2.7,-2.3,-2.8,-2.4c-0.1,-0.2,2.3,1.6,3.1,2.4c0.7,0.8,0.7,0.8,0.5,0.4c-0.3,-0.4,-1.9,-2,-2.4,-2.6c-0.5,-0.5,1.2,1,1.3,1.1c0.2,0.1,0.8,0.8,0.8,0.8c0.1,0,-0.3,-1.1,-0.7,-1.4c-0.4,-0.3,-1.9,-1.8,-2.5,-2.2c-0.6,-0.5,-1.5,-1,-2,-1.3c-0.5,-0.2,-1.2,-0.3,-1.4,-0.4c-0.3,0,0.5,0.3,0.8,0.5c0.3,0.1,2,1,2.4,1.3c0.4,0.3,0.8,0.8,0.8,0.8c0,0,-2.7,-1.8,-3.3,-2c-0.7,-0.1,-0.9,-0.1,-0.9,-0.1c0.1,0,1.1,0.4,1.6,0.6c0.4,0.3,2.4,1.7,2.6,2c-0.3,-0.2,-2.1,-1.5,-2.3,-1.6c-0.1,0,1.6,1.3,1.8,1.5c0.1,0.2,-2.2,-1.6,-2.6,-1.8c-0.5,-0.2,-1.4,-0.6,-1.7,-0.6c-0.2,0,0.1,-0.4,0.1,-0.5c0,-0.1,-0.6,-0.1,-0.6,-0.1Z" class="g2_254" />
<g clip-path="url(#c3_254)">
<path d="M140.1,249.6c0,0,0.5,1.4,0.5,1.8c0,0.4,-0.1,1.2,-0.2,1.9c-0.1,0.7,-0.3,4.1,-1.6,5.5c-1.2,1.3,-1.4,1.5,-1.4,1.5c0,0,1.8,-1.4,2.3,-2.3c0.4,-1,0.6,-1.6,0.6,-1.6c0,0,-0.8,3.3,-0.8,3.8c-0.1,0.4,-0.1,3,-0.1,3.9c0,0.9,0.2,2.1,0.2,2.6c0,0.4,-0.1,1.7,0,2.1c0.2,0.4,0.3,0.8,0.3,0.8c0,0,-0.3,-1.8,-0.2,-2.2c0.1,-0.5,0.2,-0.4,0.2,-0.3c0.1,0.1,0.2,0.7,0.2,1.1c0.1,0.4,0.1,0.4,0.1,0.4c0,0,0.2,-1,0.2,-1.3c0.1,-0.4,0.6,-2.2,0.6,-2.5c0.1,-0.3,-0.6,2,-0.7,2.1c0,0.1,0.3,-1.5,0.3,-1.6c0,-0.1,0.4,-1.4,0.4,-1.8c0,-0.4,0.1,-1.3,0.2,-1.5c0,-0.1,0.3,-1.8,0.2,-2.3c-0.1,-0.5,0.4,-0.8,0.4,-1.1c0.1,-0.2,0,-2.2,0.1,-2.6c0,-0.5,0.2,-0.5,0.2,-0.8c0.1,-0.4,0,-1,0,-0.9c-0.1,0,-0.6,0.4,-0.8,0.5c-0.2,0.1,-0.5,0.1,-0.6,0.1c-0.1,-0.1,-0.2,-0.9,-0.1,-1.4c0.1,-0.6,0,-0.9,0.1,-1.2c0.1,-0.3,0.1,-0.6,0.2,-0.4c0.2,0.1,0.5,0.3,0.7,0.3c0.2,0.1,0,-0.2,0,-0.4c-0.1,-0.2,0,-0.3,-0.2,-0.7c-0.1,-0.3,-1.3,-1.4,-1.3,-1.5Z" class="g2_254" />
</g>
<path d="M141.2,252.4c-0.1,0.1,0,0.3,-0.1,0.5c-0.1,0.3,-0.4,0.6,-0.2,0.6c0.2,-0.1,0.4,-0.4,0.6,-0.5c0.2,-0.1,0.4,-0.1,0.4,-0.1c0,0,-0.7,-0.6,-0.7,-0.5Z" class="g2_254" />
<g clip-path="url(#c3_254)">
<path d="M125.5,265.5c0,0.1,0.1,1.8,0.1,2.6c0.1,0.7,-0.1,2.9,-0.2,3.3c0,0.4,-0.1,2.1,-0.1,2.3c-0.1,0.1,0.4,-3.3,0.5,-3.5c0.1,-0.3,0.1,0.8,0.1,0.9c0,0,0.1,-2.2,0,-2.7c0,-0.6,-0.4,-2.9,-0.4,-2.9Z" class="g2_254" />
<path d="M134.4,239c0,0,0.8,0,1.5,0.3c0.7,0.2,0.9,0.2,1.7,0.7c0.9,0.5,0.8,0.8,1.6,1.2c0.7,0.4,1.2,0.8,1.8,1.4c0.5,0.6,1.5,2,1.7,2.3c0.1,0.3,-1.9,-2.4,-2.4,-2.6c-0.6,-0.2,1.6,1.4,3,4c1.3,2.7,1.3,3.6,1.4,4.3c0.1,0.7,0.7,3.3,0.8,4.6c0,1.3,0.3,2.5,0.6,3.8c0.3,1.2,0.4,3,0.4,3c0,0,-0.8,-3.4,-1,-3.3c-0.3,0.1,0.2,1.9,0.3,2.5c0.1,0.5,0.6,1.3,0.6,1.7c0,0.4,-0.7,-1.4,-0.8,-1.5c-0.2,-0.1,0.4,4.1,0.4,5c-0.1,0.9,0.4,5,0.4,5.5c0,0.5,0.1,2.8,0.1,3.5c0,0.6,-0.1,1.3,-0.2,2.1c-0.1,0.8,-0.3,1.7,-0.3,1.6c0,-0.1,-0.2,-3.8,0,-4.3c0.1,-0.5,0,-3.4,-0.1,-4.1c0,-0.7,-0.6,-3.7,-0.6,-4.5c-0.1,-0.7,0.4,5.1,0.4,5.7c-0.1,0.6,-0.3,2.9,-0.3,3.8c0.1,0.8,-0.1,1.2,-0.1,2.8c0.1,1.7,0,3,0,3.8c-0.1,0.7,-0.4,2.9,-0.4,2.9c0,0,-1.6,-5.5,-0.9,-8.3c0.6,-2.8,0.8,-3.3,0.8,-3.8c0.1,-0.5,0.3,-3.7,0.3,-3.7c0,0,-0.5,-1.8,-0.6,-2c0,-0.2,0.3,2.4,0.2,2.8c-0.1,0.5,-0.2,2,-0.1,2c0,-0.1,-0.2,-4.8,-0.2,-4.9c0,-0.1,0,6.9,-0.2,7.3c-0.2,0.3,-0.2,-6,-0.2,-6.2c0,-0.3,-0.1,5.8,-0.1,5.8l-0.2,-5.4c0,0,0.4,-1.6,0.5,-2.9c0.2,-1.4,0.1,-4.3,0.2,-5.3c0.1,-1.1,0,-2.6,0,-5.2c0,-2.6,-0.4,-4.7,-0.5,-5.5c-0.1,-0.7,0,-1.8,-2.1,-5.2c-2.1,-3.5,-3,-3.5,-3.8,-4.2c-0.8,-0.7,-1.6,-0.9,-2.2,-1.1c-0.5,-0.2,-1.4,-0.4,-1.4,-0.4Z" class="g2_254" />
<path d="M137.5,240.6c0.1,0,1.2,0.6,2.8,2.6c1.7,2.2,1.9,3.6,2.1,4.2c0.1,0.7,0.6,1.7,0.7,3.6c0.1,2,0.3,4.7,0.2,6c-0.1,1.4,-0.2,3.1,0,4.4c0.2,1.3,0.3,4.1,0.3,5c-0.1,0.8,-0.1,4,-0.8,5.4c-0.7,1.3,-0.9,2.4,-0.9,2.4c0,0,0.9,-4.7,0.9,-5.2c0.1,-0.5,0.3,-4,0.2,-4.7c0,-0.7,-0.2,-3.9,-0.2,-4.7c0,-0.8,-0.1,-7,-0.1,-7.8c-0.1,-0.7,-0.5,-3.7,-0.7,-4.6c-0.3,-0.8,-0.8,-2.7,-2.4,-4.5c-1.6,-1.8,-2.1,-2.1,-2.1,-2.1Z" class="g2_254" />
<path d="M142.1,256c0,0.1,0.1,2.9,0,3.6c-0.1,0.8,-0.1,2.2,0,3.1c0,0.9,0.2,1.1,0.3,1.9c0.1,0.8,-0.3,3.9,-0.5,4.6c-0.2,0.7,0.8,-3.3,0.8,-4.5c0.1,-1.2,0,-3.6,-0.1,-4.4c0,-0.7,-0.2,2.7,-0.2,2.8c-0.1,0.1,-0.1,-4.1,0,-4.7c0,-0.6,-0.3,-2.4,-0.3,-2.4Z" class="g2_254" />
<path d="M139.1,272.9c0,-0.1,0.9,-2.6,1.3,-4.4c0.4,-1.8,0.6,-2.6,0.7,-2.8c0,-0.1,0.3,1.8,0.3,2.5c0.1,0.6,0.2,0.9,0.2,2.4c-0.1,1.4,-0.9,3.4,-1.3,4c0.6,-1.3,1,-2.8,1,-3.7c0.1,-1,-0.2,-1.3,-0.2,-1.3c0,0,0,2.2,-0.2,2.7c-0.1,0.4,-0.3,-1.6,-0.3,-2.1c0,-0.4,-0.6,0.7,-0.7,1.1c-0.1,0.3,-0.8,1.6,-0.8,1.6Z" class="g2_254" />
<path d="M128.9,265.2c0,0,1,1.5,1.7,2.2c0.7,0.6,2,1.1,3,1.1c1,0,2.7,-0.2,4.3,-1c1.5,-0.8,2,-1.4,2.2,-1.4c0.2,-0.1,0.2,0.7,-0.2,1c-0.4,0.3,-1.7,1.4,-2.7,1.8c-0.9,0.3,-3.1,0.8,-4.9,0.2c-1.7,-0.7,-3.5,-2.6,-3.8,-3.2c-0.5,-0.8,0.2,0.3,0.7,0.5c0.5,0.7,-0.3,-1.2,-0.3,-1.2Z" class="g2_254" />
<path d="M147.2,267.1c0.2,0.1,1,0.3,2,0.9c1.4,0.8,2.8,2,3.2,2.4c0.5,0.6,1.9,2.8,2.3,4.8c0.3,1.3,0,2.5,0,2.5c0,0,-0.2,-3.7,-2.6,-6.9c-1.2,-1.6,-2.3,-2,-2.9,-2.3c-0.6,-0.4,-1.8,-0.8,-2,-0.6c-0.1,0.2,0.1,2.6,0,3.4c-0.1,0.8,-0.4,2.9,-0.4,2.9c0,0,-0.4,-5.7,-0.3,-7c0,-1.2,-0.4,-3.8,-0.4,-3.8Z" class="g2_254" />
<path d="M124.4,266.4c-0.3,0.1,-2.7,0.6,-3.3,0.9c-0.6,0.3,-2.5,1.7,-3.2,2.6c-0.7,0.9,-1.6,3.8,-1.6,3.8c0,0,1,-3.4,2.5,-4.3c1.4,-1,1.8,-1.7,3,-1.9c1.2,-0.2,2.6,-1.1,2.6,-1.1Z" class="g2_254" />
</g>
<path d="M131.8,315.3c0,0,-0.1,0,-0.1,0c0,-0.1,0.1,-0.1,0.1,-0.1c0.1,0,0.1,0,0.1,0.1l-0.1,0m0.7,-0.2c-0.4,-0.1,-1.1,-0.1,-1.3,0c-0.2,0,-0.8,0.2,-1,0.3c-0.2,0.1,-0.3,0.3,-0.5,0.3c-0.2,0,-0.2,0.1,-0.2,0.1c0,0,0.5,-0.1,0.6,-0.1c0.1,0,0.2,-0.1,0.3,-0.1c0.1,0,0.4,0,0.4,0c0,0,-0.1,-0.2,0,-0.3c0.1,-0.1,0.3,-0.1,0.3,-0.1c0.1,0.1,-0.1,0.3,0.3,0.4c0.3,0.2,0.8,0.1,0.8,-0.1c0,-0.1,0.1,-0.3,0.1,-0.3c0,0,0.2,-0.1,0.9,0.5c0,0,-0.3,-0.5,-0.7,-0.6Z" class="g3_254" />
<path d="M138.4,314.9l0,-0.1c0,0,0,-0.1,0,-0.1c0.1,0,0.1,0.1,0.1,0.1c0,0.1,0,0.1,-0.1,0.1M140,315c-0.2,0,-0.1,-0.1,-0.5,-0.3c-0.4,-0.2,-1.1,-0.1,-1.7,-0.1c-0.6,0.1,-1.1,0.9,-1.1,0.9c0,0,0.7,-0.8,0.9,-0.6c0.1,0.2,0.3,0.3,0.8,0.3c0.5,0,0.5,-0.4,0.6,-0.4c0.2,0,0,0.1,0.2,0.1c0.1,0,0.4,0.1,0.5,0.1c0.1,0.1,0.7,0,0.7,0c0,0,-0.1,0,-0.4,0Z" class="g3_254" />
<path d="M133.4,314.1c0,0,-0.2,-0.4,-0.7,-0.4c-0.6,-0.1,-1.6,0,-2,0c-0.3,0,-1.1,0.3,-1.2,0.3c-0.1,0.1,-0.5,0.3,-0.5,0.3c0,0,1.1,-0.1,1.5,-0.2c0.4,0,1.4,0.1,1.8,0.1c0.5,0,1,0.1,1.1,-0.1Z" class="g3_254" />
<path d="M136.3,313.9c0,0,-0.2,-0.5,0.4,-0.6c0.6,-0.1,0.8,-0.1,1.5,-0.2c0.7,-0.1,0.8,-0.2,1.1,-0.2c0.3,0,1.3,0.3,1.5,0.4c0.2,0.2,-0.6,0.1,-0.8,0.2c-0.2,0,-1.5,0.2,-1.7,0.2c-0.3,0.1,-2,0.1,-2,0.2Z" class="g3_254" />
<path d="M132.9,318.9c0,0,0,0.5,0.1,0.6c0.1,0.1,0.3,0.2,0.6,0.2c0.4,0,0.5,0,0.6,0.1c0.1,0.1,0.3,0.2,0.3,0.2c0,0,-0.5,-0.1,-0.8,-0.1c-0.2,0,-0.4,0,-0.6,-0.1c-0.1,0,-0.4,-0.3,-0.2,-0.9Z" class="g3_254" />
<path d="M134.9,320.2c-0.1,0,0.5,0,0.7,0c0.1,-0.1,0.3,-0.4,0.6,-0.5c0.2,-0.1,0.3,-0.2,0.6,-0.2c0.3,0,0.4,-0.1,0.5,-0.2c0,-0.1,0.1,-0.5,0,-0.8c0.4,0.7,-0.2,1.1,-0.2,1.1c0,0,-0.6,0.1,-0.7,0.1c-0.2,0.1,-0.7,0.8,-1.5,0.5Z" class="g3_254" />
<path d="M137.2,317.9c0,0,0.4,0.3,0.6,0.5c0.2,0.1,0.4,0.6,0.6,0.8c0.2,0.2,0.3,0.4,0.6,0.6c0.4,0.2,0.5,0.3,0.6,0.4c0.2,0.1,0.2,0.7,0.2,0.7c0,0,0.2,-0.8,-0.1,-1c-0.3,-0.2,-0.6,-0.1,-0.9,-0.5c-0.7,-0.5,-0.7,-1.2,-1.6,-1.5Z" class="g3_254" />
<path d="M132.1,319c0,0,-0.4,0.7,-0.5,0.9c-0.2,0.1,-0.6,0.4,-0.7,0.5c-0.2,0.2,-0.4,0.5,-0.2,1.2c0.1,-0.7,0.1,-0.8,0.3,-1c0.1,-0.2,0.5,-0.4,0.7,-0.6c0.2,-0.2,0.3,-0.9,0.4,-1Z" class="g3_254" />
<path d="M131.7,321.5c0,0,0.8,0,1,-0.1c0.3,0,0.9,-0.1,1.2,-0.1c0.3,0,0.9,0.1,1.1,0.1c0.2,0,0.4,-0.1,0.6,-0.1c0.2,0,2,-0.2,2.4,-0.2c0.3,0,0.9,0,0.9,0c0,0,-0.2,0.3,-0.3,0.5c-0.2,0.2,-0.9,2.3,-2.8,2.5c-2,0.2,-2.9,-1,-2.9,-1c0,0,0.7,0.6,1.6,0.7c0.8,0.2,1.5,0,1.9,-0.2c0.5,-0.2,0.8,-0.4,0.9,-0.7c0.1,-0.2,0.2,0.2,-2.2,0.3c-0.3,0,2.5,-0.5,3.1,-1.4c0.1,-0.2,-0.1,-0.5,-0.1,-0.5c0,0,-0.8,-0.1,-1.2,0.1c-0.4,0.1,-0.8,0.2,-1,0.2c-0.2,0,-0.9,0,-1.2,0c-0.3,0,-0.9,0,-1.2,0c-0.3,0,-1,0,-1,0l0.1,0.4c0,0,0.2,0.4,0.5,0.6c0.3,0.1,1,0.5,1.1,0.6c0.1,0,-1.2,-0.5,-1.8,-0.9c-0.6,-0.5,-0.7,-0.8,-0.7,-0.8Z" class="g3_254" />
<path d="M139.5,312.5c0,0,1.2,-0.9,1.3,-1.5c0.1,-0.7,0.2,-0.2,0.2,-0.2c0,0,-0.1,0.5,0,0.7c0.1,0.2,0.2,0.5,0.6,1c0.3,0.5,0.3,0.5,0.4,1c0.1,0.6,0.1,1.3,0.2,1.7c0.1,0.4,0.1,0.8,0.1,1.1c0,0.4,-0.1,1.3,-0.2,1.7c0,0.3,-0.2,2.2,-0.2,2.5c-0.1,0.3,-0.3,1.8,-0.9,2.6c-0.5,0.8,-2.2,3.1,-3,3.4c-0.7,0.3,-1.5,0.5,-2,0.5c-0.4,0,-1.3,0,-1.6,-0.1c-0.3,-0.1,-1,-0.2,-1.4,-0.5c-0.3,-0.4,-1.2,-1.2,-1.8,-1.8C130.7,324,130,323.2,130,323.2c0.1,0.1,1.2,1.5,1.4,1.8c0.2,0.3,1,1.1,1.5,1.5c0.5,0.5,1.2,0.9,2.2,0.9c1.1,0,2.1,-0.1,2.5,-0.2c0.3,-0.2,1.2,-1,1.6,-1.5c0.3,-0.5,1.6,-2.1,1.9,-2.4c0.3,-0.4,0.8,-1.7,0.9,-2.6c0.2,-0.9,0.2,-2.4,0.2,-2.8c0.1,-0.4,0.2,-0.9,0.3,-1.1c0.2,-0.1,0.2,-0.9,0.2,-1.2c0.1,-0.3,-0.1,-0.5,0,-0.7c0.1,-0.3,0.4,-0.4,0.4,-0.4c0,0,-0.1,-1.2,0,-1.3c0,-0.1,0.2,0.1,0.2,0.1c0,0,-0.1,-0.8,-0.1,-0.8c0.1,-0.1,0.5,0.4,0.5,0.4c0,0,-0.1,-0.5,0,-0.5c0.1,0.1,0.4,0.1,0.4,0.1c0,0,-0.3,-0.3,-0.4,-0.4c0,-0.2,-0.1,-0.3,0,-0.4c0.1,-0.1,0.3,-0.1,0.3,-0.1c0,0,-0.3,-0.2,-0.3,-0.4c0,-0.1,0.1,-0.2,0.1,-0.2c0,0,-0.1,0,-0.2,-0.1c-0.1,-0.1,-0.2,-0.3,-0.2,-0.3l0.4,0.1c0,0,-0.3,-0.3,-0.3,-0.3c0,-0.1,0.2,-0.1,0.2,-0.1c0,0,-0.3,-0.1,-0.4,-0.2c0,-0.1,0.2,-0.2,0.2,-0.2c0,0,-0.2,0,-0.2,-0.2c-0.1,-0.2,-0.1,-0.5,-0.1,-0.6c0,-0.2,-0.2,-0.4,-0.2,-0.5c0.1,0,0.4,0,0.4,0c0,0,-0.1,-0.1,-0.3,-0.2c-0.2,0,-0.5,-0.2,-0.5,-0.2l0.6,-0.1c0,0,-0.2,-0.1,-0.3,-0.1c-0.2,-0.1,-0.2,-0.2,-0.1,-0.2c0.2,0,0.3,-0.1,0.3,-0.1c0,0,-0.3,-0.3,-0.4,-0.3c-0.1,0,-0.2,-0.2,-0.2,-0.2c0.1,0,0.2,-0.2,0.2,-0.2c0,0,-0.1,0,-0.3,-0.2c-0.1,-0.1,-0.1,-0.2,-0.2,-0.3c0,0,-0.2,0,-0.3,-0.1c-0.2,0,-0.2,-0.4,-0.2,-0.4c0,0,-0.1,-0.3,-0.1,-0.4c0,0,-0.1,-0.4,0,-0.4c0,0,-0.2,0,-0.3,0.2c0,0.1,0.1,0.4,-0.1,0.5c-0.2,0,-1,0.5,-1.1,0.5c-0.2,0,-0.5,0.2,-0.7,0.2c-0.2,0,-0.4,0.2,-0.4,0.2c0,0,0.7,0,0.9,0c0.3,-0.1,0.6,-0.1,0.8,-0.2c0.2,-0.1,0.3,0,0.2,0.1c0,0.1,-0.6,0.6,-0.7,0.7c-0.1,0.1,-0.5,0.3,-0.4,0.3c0.1,0,1.2,-0.6,1.3,-0.7c0,-0.1,0.1,0.2,0.1,0.2c0,0.1,-0.3,0.7,-0.6,0.8c-0.3,0.1,-1.3,0.6,-1.3,0.6c0,0,0.6,0,1,-0.2c0.5,-0.2,1.1,-0.8,1.1,-0.9c0.1,-0.1,0.2,0.4,0.1,0.6c-0.1,0.2,-0.3,0.6,-0.3,0.6l0.5,-0.5c0,0,-0.2,0.8,-0.3,1c0,0.2,-0.2,0.5,-0.2,0.7c0,0.1,-0.2,0.5,-0.3,0.5c-0.1,0,-0.4,1.5,-1.4,2.1Z" class="g3_254" />
<path d="M143.8,313.2c0,0,0,0.3,0,0.6c0,0.2,-0.1,0.4,-0.1,0.5c-0.1,0.1,-0.2,-0.2,-0.3,-0.3c0,-0.1,0.1,-0.6,0.1,-0.9c-0.1,-0.2,-0.1,-0.3,-0.1,-0.3Z" class="g3_254" />
<path d="M143.3,314.4c0,0.1,0.1,0.5,0.1,0.7c-0.1,0.2,-0.4,0.6,-0.5,0.7c0,0,-0.1,-0.6,-0.1,-0.7c0,-0.1,0.5,-0.7,0.5,-0.7Z" class="g3_254" />
<path d="M143.9,313.2c0,0,0.2,0.2,0.1,0.5c-0.1,0.3,-0.2,0.8,-0.3,1c0,0.3,-0.1,1.1,-0.1,1.2c0,0.1,-0.6,0.8,-0.6,0.9c-0.1,0.2,-0.2,0.7,-0.4,0.9c0.1,-0.4,0.2,-1,0.2,-1c0,0,0.6,-0.7,0.7,-0.9c0.1,-0.2,0.1,-1,0.1,-1.2c0.1,-0.2,0.5,-1.2,0.3,-1.4Z" class="g3_254" />
<path d="M137.8,312.2c0.1,0,1.9,-1.1,2.3,-1.6c0.4,-0.4,0.9,-1,0.9,-1c0,-0.1,0.1,-0.6,0.1,-0.6c0,0,-1,1.4,-1.1,1.4c0,0.1,-2.2,1.8,-2.2,1.8Z" class="g3_254" />
<path d="M136.6,311.3c0.1,0,1,-0.8,1.1,-0.8c0.2,0,0.8,0,1.4,-0.2c0.6,-0.3,0.8,-0.5,1.1,-0.8c0.3,-0.2,0.6,-0.6,0.6,-0.6c0,0,-0.5,0,-0.7,0c-0.2,0.1,-0.5,0.2,-0.9,0.4c-0.3,0.2,-1.1,0.4,-1.2,0.5c0,0.2,-0.1,0.4,-0.3,0.5c-0.1,0.1,-1.1,1,-1.1,1Z" class="g3_254" />
<path d="M134.1,311c0.2,0,1.4,-0.7,1.6,-0.8c0.3,-0.1,0.8,-0.3,1,-0.4c0.1,0,-0.1,0.2,-0.1,0.3c-0.1,0.1,-1.5,1.2,-1.4,1.1c0.1,0,1.5,-1.1,1.8,-1.2c0.3,0,0,0.4,-0.3,0.6c-0.2,0.2,-0.9,0.8,-0.9,0.8c0.1,-0.1,1.7,-1.3,1.9,-1.5c0.1,-0.3,0.4,-0.7,0.7,-0.7c0.3,-0.1,0.9,-0.2,0.9,-0.2c0,0,-1.1,0,-1,-0.1c0.1,-0.1,0.7,-0.3,0.9,-0.4c0.2,-0.1,-0.3,0,-0.9,0c-0.6,0,-1.6,0.1,-1.9,0.1c-0.3,0,-0.8,-0.1,-0.9,-0.2c-0.2,0,-0.1,0.3,0,0.3c0.1,0.1,-0.8,0.5,-1,0.5c-0.1,0,-0.7,0.5,-1.2,0.7c-0.5,0.1,-1.5,0.8,-1.6,0.9c-0.1,0,1.3,-0.6,1.3,-0.5c0,0.2,-0.4,0.9,-0.9,1.4c-0.4,0.5,-1.7,1.4,-1.7,1.4c0,0,1.3,-0.6,2.1,-1.5c0.8,-0.8,1,-1.2,1.1,-1.2c0.1,-0.1,0.5,-0.4,0.7,-0.4c0.2,0,-0.2,0.5,-0.2,0.5l-1.2,1.2c0,0,1.9,-1.5,2.2,-1.6c0.4,-0.2,0.7,-0.3,0.7,-0.3Z" class="g3_254" />
<path d="M137.9,308.3c0,0,1.3,-0.6,1.3,-0.7c0,0,-0.1,-0.2,-0.5,0c-0.3,0.1,-0.9,0.5,-1.6,0.5c0,0,1.2,-0.6,1.2,-0.6c0,0,0.5,-0.1,0.9,-0.2c0.4,0,1,-0.4,1,-0.4c0,0,-0.8,0.7,-0.9,0.9c-0.2,0.2,-0.3,0.4,-0.7,0.4c-0.4,0.1,-0.7,0.1,-0.7,0.1Z" class="g3_254" />
<g clip-path="url(#c4_254)">
<path d="M137.6,306.5c-0.1,0,0.7,0.1,1.4,-0.1c0.7,-0.2,1.1,-0.5,1.4,-0.7c0.2,-0.1,1,-0.7,1.1,-0.7c0.1,-0.1,0,-0.1,0.3,0.1c0.4,0.1,1.1,0.6,1.1,0.9c0,0.3,0,0.8,0.1,0.8c0,-0.1,0,-0.6,0,-0.6c0,0,0.3,0.3,0.4,0.9c0.5,-0.3,-0.7,-2.3,-1.8,-2.4c-1.1,-0.1,-0.8,0,-0.8,0c-0.1,-0.1,-0.1,-0.2,-0.1,-0.3c0.1,-0.2,-0.2,-0.2,-0.2,-0.2l0.4,-0.5c0,0,-0.6,0.4,-0.7,0.4c-0.1,0,-0.1,-0.3,0.1,-0.3c0.1,-0.1,0.3,-0.2,0.3,-0.2c0,0,-0.4,-0.1,-0.5,0.2c-0.2,0.2,-0.4,0.3,-0.4,0.3c-0.1,0,-0.3,-0.1,-0.1,-0.3c0.2,-0.1,0.6,-0.5,0.6,-0.5c-0.1,-0.1,-0.7,0.5,-0.7,0.4c0,-0.2,0.1,-0.5,-0.4,-1.1c-0.5,-0.5,-0.8,-0.7,-1.5,-0.9c-0.7,-0.2,-1.4,-0.1,-1.4,-0.1c-0.1,0,1.1,0.2,1.5,0.4c0.3,0.2,1,0.6,1.2,1.2c-0.2,-0.1,-0.6,-0.7,-1.1,-0.8c0.5,0.4,0.8,0.6,0.9,0.9c0,0.3,-0.5,-0.6,-1.6,-1.1c-1.1,-0.4,-1.9,-0.5,-2.3,-0.4c-0.4,0.1,-1.1,0.4,-1.1,0.4c0,0,1.5,0,2.2,0.2c0.6,0.2,0.7,0.4,0.9,0.4c0.2,0,0.3,-0.1,0.6,0c0.3,0.1,1,0.4,0.5,0.4c-0.4,0,-1.6,-0.2,-2.2,-0.2c-0.6,0,-0.7,0.1,-0.7,0.1c0,0,0.8,0.2,1.3,0.2c0.5,0.1,1.4,0,1.7,0.2c0.3,0.1,0.8,0.5,0.5,0.5c-0.3,-0.1,-0.5,-0.1,-0.5,-0.1c0,0,0.7,0.3,0.6,0.4c-0.1,0.2,-0.7,-0.1,-0.9,-0.2c-0.2,-0.1,0.4,0.4,0.7,0.5c0.3,0.2,0.6,0.2,1,0.2c0.3,0.1,0.9,0.1,0.8,0.2c-0.1,0.2,0.2,0.3,-0.7,0.2c-0.8,-0.1,-2,-0.7,-2.4,-0.8c-0.4,0,-0.6,0,-0.6,0c0,0,0.7,0.3,1,0.4c0.3,0.1,1.3,0.5,1.5,0.6c0.2,0.1,-0.8,-0.1,-1.1,-0.1c-0.3,0,-0.6,0.1,-0.6,0.1c0,0,1.3,0.1,1.3,0.2c0,0,-0.9,0.1,-1.1,0.1c-0.3,-0.1,-1.4,-0.2,-1.5,-0.2c-0.1,0.1,2,0.4,1.8,0.4c-0.1,0.1,-1.6,0.6,-4,-0.5c-0.2,-0.1,0.9,0.7,1.2,0.8c0.3,0.1,1.1,0.2,1.5,0.2c0.3,0,1.8,-0.4,2,-0.4c0.1,0.1,-0.5,0.5,-0.9,0.5Z" class="g3_254" />
</g>
<path d="M132.5,305c0.4,0.2,0.4,0.4,0.9,0.7c0.4,0.3,1.2,0.5,1.5,0.7c0.3,0.3,0.7,0.3,1.1,0.6c0.4,0.2,1.1,0.7,1.4,0.7c0.2,-0.1,-0.4,0.2,-0.8,0.2c-0.4,0,-0.6,-0.4,-1.1,-0.4c-0.5,0,-0.8,-0.1,-1.6,0.1c-0.8,0.2,-1.2,0.1,-1.4,0.2c-0.3,0.1,-0.9,0.2,-1.4,0.2c-0.5,-0.1,-0.7,0.1,-1.4,0c-0.7,-0.1,-1.2,0,-1.6,0.1c-0.3,0.1,-0.8,0.5,-0.9,0.5c-0.1,0,-0.4,0.1,-0.5,0.1c-0.1,0.1,-0.5,0.6,-0.6,0.8c-0.1,0.1,0.3,-0.8,0.7,-1c0.4,-0.3,0.9,-0.4,1.2,-0.6c0.4,-0.2,0.4,-0.4,1.1,-0.3c0.8,0.1,1.7,0.1,2.1,0.1c0.3,0,1.1,0,1.6,-0.1c0.4,-0.2,1.8,-0.3,1.9,-0.4c0.2,-0.1,-0.4,-0.1,-0.9,-0.1c-0.5,0,-1.1,0.1,-1.8,0c-0.6,0,1.6,0,1.7,-0.2c0.1,-0.2,0.1,-0.4,-0.1,-0.4c-0.2,-0.1,-0.6,-0.1,-1,-0.1c-0.4,-0.1,-1.2,-0.1,-1.9,-0.1c-0.6,0,-1.4,0,-1.9,0.2c-0.4,0.1,-1.3,0.9,-1.4,0.9c-0.1,0.1,0.9,-1.2,1.6,-1.3c0.7,0,3.3,0,3.8,0.1c0.6,0.1,1.3,0.4,1.6,0.4c0.3,0.1,0.4,0,0.1,-0.1c-0.4,-0.1,-1.6,-0.7,-1.8,-0.7c-0.2,0,-1.5,0,-1.9,0.1c-0.5,0.1,0.6,-0.2,1.2,-0.2c0.6,-0.1,0.8,-0.2,0.6,-0.3c-0.2,-0.1,-0.6,0,-0.9,0.1c-0.4,0,-1.1,0,-1.4,0c-0.4,0.1,-1.3,0.3,-1.6,0.4c-0.3,0.1,-1,0.4,-0.9,0.3c0.1,-0.1,1.3,-0.6,1.7,-0.8c0.5,-0.1,2.1,-0.2,2.1,-0.2c0,0,-0.1,-0.2,-0.8,-0.1c-0.6,0,-1.7,0.2,-1.9,0.2c-0.1,0,0.7,-0.3,1.2,-0.4c0.4,0,1.3,-0.3,2.4,0.1Z" class="g3_254" />
<g clip-path="url(#c4_254)">
<path d="M133.5,301.8c0,0,-0.6,-0.2,-1.2,-0.1c-0.6,0,-1,0.1,-1.4,0.2c-0.5,0.2,-1.6,0.5,-1.8,0.7c-0.2,0.2,-1.2,0.7,-1.5,1c-0.3,0.2,-1,0.9,-1,0.9c0.1,0,1.1,-0.9,1.4,-0.9c0.2,0,0.2,0.2,-0.3,0.4c-0.5,0.2,-1,0.6,-0.9,0.6c0,0,0.4,-0.1,0.3,0c-0.1,0.2,-1.1,1,-1.3,1.3c-0.1,0.3,0.9,-0.7,0.9,-0.6c-0.1,0.2,-1.2,1.5,-1.3,1.7c-0.1,0.2,-0.2,0.9,-0.2,0.9c0,0,0.4,-0.8,0.5,-0.8c0.2,0,0,0.5,-0.2,0.7c-0.2,0.3,-0.4,0.6,-0.4,0.8c-0.1,0.2,0,0.9,0.1,0.9c0,0.1,0.2,1.5,0.2,1.5c0,0,0.3,-0.4,0.4,-0.3c0,0.1,-0.1,0.9,-0.1,0.9c0,0.1,0,0.6,0.1,0.6c0,-0.1,0.5,-0.4,0.4,-0.2c-0.1,0.1,-0.4,0.3,-0.4,0.4c-0.1,0.2,0.1,0.2,0.2,0.4c0,0.1,-0.1,0.7,-0.1,0.7c0,0,0.1,0.2,0.2,0.2c0.1,-0.1,0.4,-0.4,0.5,-0.3c0,0,-0.1,0.6,-0.1,0.6c0,0,0,0.5,0.1,0.5c0.2,0,0.3,0.2,0.3,0.3c0,0.1,0,0.6,0,0.7c0,0.1,0.1,0.4,0.2,0.6c0,0,0.3,0.6,0.2,0.8c0,0.3,0.2,0.6,0.2,0.6c0,0,0.6,0.7,0.7,1.1c0.1,0.4,0.2,0.8,0.2,0.8c0,0,-0.1,-0.9,-0.2,-1.2c-0.2,-0.2,-0.5,-1,-0.5,-1.5c0,-0.5,-0.1,-1.6,0.1,-1.8c0.1,-0.2,0.3,-0.2,0.3,-0.1c0,0.2,0.1,0.4,0.2,0.3c0.1,-0.1,0.2,-0.1,0.3,-0.2c0.1,-0.1,0.1,0.1,0.1,0.1c0.1,-0.1,0,-0.7,0,-0.8c0.1,0,0.2,0.3,0.2,0.3c0,0,0.1,-0.4,0.1,-0.5c0.1,-0.1,0.5,-0.3,0.6,-0.3c0.1,-0.1,0.1,-0.5,0.1,-0.6c0,-0.2,0.4,-0.6,0.4,-0.6c0,0,-0.1,0.8,-0.2,0.9c0,0.2,0.1,1.3,0.1,1.2c0,-0.1,0.2,-1.7,0.4,-1.9c0.1,-0.3,0.6,-0.8,0.6,-0.8c0,0,-0.6,0.5,-0.6,0.5c0,-0.1,0.6,-0.7,0.5,-0.7c-0.1,0.1,-1.2,0.9,-1.2,0.9c0,0,-0.5,0.7,-0.6,0.8c0,0.1,0,-0.5,0.2,-0.7c0.1,-0.2,-0.5,0.6,-0.6,0.7c-0.1,0,-0.3,0.1,-0.2,-0.5c0.1,-0.5,0.3,-0.8,0.3,-0.8c0,0,-0.5,0.3,-0.5,0.8c-0.1,0.4,-0.3,0.6,-0.3,0.6c0,0,0.1,-1.2,0.2,-1.5c0.1,-0.3,0.3,-0.7,0.3,-0.8c0.1,-0.1,0.2,-0.6,0.2,-0.6c0,-0.1,-0.5,0.3,-0.6,0.5c0,0.2,0,0.4,-0.2,0.7c-0.2,0.2,-0.6,0.7,-0.6,0.8c-0.1,0.1,-0.2,-0.5,-0.2,-0.8c0.1,-0.2,0.3,-0.9,0.6,-1.2c0.2,-0.2,0,0.3,0,0.3c0,0,0.4,-0.5,0.5,-0.6c0.1,0,0.4,-0.6,0.4,-0.6c0,0,-0.1,0.8,-0.1,0.7c0.1,-0.2,0.6,-0.6,0.6,-0.6c0,0,-0.4,1,-0.3,0.9c0.1,-0.1,0.7,-0.7,0.9,-0.8c0.2,-0.2,0.4,-0.2,0.4,-0.2c0,0,-0.8,1.3,-0.8,1.2c0,0,1.2,-1.2,1.4,-1.2c0.1,-0.1,0.1,0.3,0.1,0.3c-0.1,0,-1.2,1.2,-1.2,1.1c0,0,1.3,-0.7,1.4,-0.9c0.2,-0.3,0.2,-0.5,0.2,-0.5c0,0,0,-0.3,0.1,-0.3c0.1,0,0.9,-0.5,1.7,-0.4c0.8,0.1,0.8,0,1,0c0.3,0,0.5,-0.2,0.5,-0.2c0,0,-0.7,-0.1,-1,-0.1c-0.3,0,0.6,0,0.8,-0.1c0.2,-0.1,-1.3,0,-1.5,-0.1c-0.2,-0.1,-0.5,-0.2,-0.9,-0.1c-0.3,0.2,-0.6,0.4,-1,0.5c-0.5,0.1,-0.3,-0.1,-1,-0.1c-0.6,0.1,-0.9,0.2,-1.1,0.3c-0.3,0.2,-0.8,0.5,-0.8,0.6c-0.1,0.1,0.1,-0.3,0.3,-0.4c0.2,-0.1,-0.5,0.3,-1.1,0.4c-0.6,0.1,-0.7,0.5,-0.7,0.5c0,0,0,-0.4,0.1,-0.5c0,0,0.4,-0.2,0.8,-0.4c0.5,-0.2,0.7,-0.5,1.1,-0.6c0.5,0,1.4,-0.2,1.6,-0.2c0.1,0,-0.9,-0.1,-1.2,-0.1c-0.4,0.1,-1.5,0.6,-1.7,0.7c-0.1,0.2,-0.7,0.3,-0.8,0.4c0,0,-0.4,0.3,-0.4,0.3c0,0,-0.1,-0.9,0.3,-1.1c0.4,-0.3,0.6,-0.9,0.7,-1c0.2,0,0.6,-0.1,0.6,-0.1c0,0,-0.3,-0.1,-0.9,0.1c-0.6,0.1,0.3,-0.5,0.5,-0.8c0.3,-0.3,-0.3,-0.2,-0.3,-0.2c0,0,-0.6,0.5,-0.8,0.9c-0.1,0.4,0.2,-0.9,0.5,-1.2c0.2,-0.2,0.4,-0.5,0.7,-0.8c0.3,-0.2,1,-0.3,1,-0.3c0,0,0.7,-0.2,0.8,-0.4c0.2,-0.2,-0.4,0.1,-0.2,-0.2c0.2,-0.2,0.5,-0.3,0.3,-0.3c-0.3,0,-0.8,0.5,-1.1,0.6c-0.4,0.1,0.1,-0.4,0.1,-0.4c0,0,0.3,-0.5,1.3,-0.6c1,0,1.2,-0.3,1.4,-0.3c0.1,0,0,0.2,0.7,0.4c0.7,0.1,1.2,0.2,1.2,0.2c0,0,-0.7,-0.3,-0.5,-0.4c0.1,-0.1,1,0,1.4,0.1c0.5,0.1,1.4,0.3,1.7,0.3c0.3,0,-0.7,-0.4,-1,-0.5c-0.2,0,-1.5,-0.4,-1.9,-0.2c-0.3,0.1,-0.4,0.5,-0.8,0.3c-0.4,-0.3,-1,-0.5,-0.5,-0.6c0.4,-0.1,1,0,1.3,0c0.3,0,1.5,0.1,1.7,0.1c0.2,-0.1,-1,-0.3,-1.2,-0.3c-0.1,-0.1,-0.8,-0.2,-1.5,-0.2c-0.7,0,-1.2,0.3,-1.5,0.4c-0.3,0.1,-1.4,0.5,-1.5,0.6c-0.1,0.1,0.5,-0.7,0.9,-0.9c0.3,-0.1,1,-0.8,2.1,-0.9c1.1,-0.2,2,-0.3,2,-0.3Z" class="g3_254" />
</g>
<path d="M126.4,313.6c0,-0.1,-0.3,0.4,-0.3,0.7c0,0.3,0.1,0.6,0.1,0.6c0,0,0,-0.3,0.1,-0.3c0.2,0.1,0.2,0.3,0.3,0.5c0.2,0.2,0.2,-0.2,0.1,-0.3c-0.1,-0.2,-0.5,-0.6,-0.3,-1.2Z" class="g3_254" />
<path d="M126.2,315.6c0.1,0,0.2,0.4,0.2,0.7c0,0.2,0.2,0.6,0.6,1.1c0.4,0.5,0.3,0.5,0.5,0.8c0.3,0.3,0.6,0.5,0.6,0.5c0,0,-0.4,-0.4,-0.5,-0.6c-0.1,-0.2,-1,-1,-1,-1.6c-0.1,-0.6,-0.4,-0.9,-0.4,-0.9Z" class="g3_254" />
<g clip-path="url(#c4_254)">
<path d="M130,323.5c0,0,0.2,1.1,0.1,1.6c0,0.4,0.1,0.7,-0.1,1c-0.1,0.3,-0.4,0.7,-0.7,0.8c-0.3,0.2,-0.3,0,-0.6,0.1c-0.4,0.1,-0.8,0.3,-1.2,0.5c-0.4,0.1,-1,0.4,-1.3,0.5c-0.3,0.1,-0.6,0.4,-1.1,0.4c-0.5,0.1,-0.9,0.3,-1.4,0.6c-0.5,0.2,-2.2,1.2,-2.7,1.4c-0.5,0.2,2.5,-1.2,2.7,-1.2c0.1,0,-3.2,2.3,-2.4,2c0.9,-0.3,2.7,-1.6,3.3,-2c0.5,-0.4,0.8,-0.5,1,-0.5c0.3,0,-0.2,1,-0.6,1.3c-0.4,0.4,-1.2,2.1,-1.1,1.9c0.1,-0.1,2.2,-3.1,2.5,-3.3c0.4,-0.3,0.8,-0.4,0.8,-0.3c0.1,0.1,-0.2,1,-0.1,1.5c0.2,0.5,0.9,2.5,1,2.7c0.1,0.2,-0.2,-1.3,-0.1,-1.7c0,-0.5,0.2,-1.1,0.3,-0.8c0.2,0.3,1.4,3.4,1.9,4c0.4,0.6,1.4,1.9,1.4,1.9c0,0,-3.4,-5.4,-3.2,-7c0.2,-1.6,0.5,-1.5,1.1,-1.7c0.4,-0.1,0.6,-0.3,0.9,-1.1c0,-0.3,-0.4,-2.6,-0.4,-2.6Z" class="g3_254" />
<path d="M141.1,324.8c0.1,0.3,0.6,1.1,1.2,1.4c0.6,0.2,1.4,0.2,1.7,0.4c0.3,0.1,1.2,0.5,1.9,0.6c0.6,0.2,2.7,0.6,2.8,0.6c0.1,0,-2.6,-0.3,-2.8,-0.2c-0.3,0.2,-0.2,0.8,-0.2,1.1c0,0.3,-0.3,-0.4,-0.5,-0.9c-0.2,-0.4,-0.6,-0.5,-0.7,0c0,0.5,-0.3,1.6,-0.7,2.3c-0.3,0.7,-1.6,1.7,-1.9,2.2c-0.4,0.4,-1,0.7,-1,0.7c0,0,1.5,-2.7,1.7,-3.4c0.3,-0.6,0.8,-2.6,0.6,-2.8c-0.2,-0.2,-1.3,-0.4,-1.7,-0.9c-0.4,-0.4,-0.4,-1.1,-0.4,-1.1Z" class="g3_254" />
</g>
<path d="M135,376.7c-0.1,-0.2,0.1,-0.2,0.1,-0.2c0.1,-0.1,0.2,0,0.2,0.1c0,0.1,-0.2,0.3,-0.3,0.1m1.4,0.3c0,0,-0.4,-0.7,-0.8,-0.8c-0.4,-0.1,-0.6,-0.1,-0.9,0c-0.4,0,-1.1,0.6,-1.1,0.6l0.2,0.1c0,0,0.4,-0.4,0.5,-0.4c-0.1,0.1,0,0.7,0.6,0.7c0.7,0,0.6,-0.8,0.5,-0.8c0,-0.1,0.1,-0.3,1,0.6Z" class="g1_254" />
<path d="M140.9,376.1c-0.1,0,-0.2,0,-0.3,-0.1c0,-0.2,0.1,-0.2,0.1,-0.2c0.3,0,0.3,0.2,0.2,0.3m1,-0.5c-0.2,-0.2,-0.6,-0.2,-1,-0.1c-0.3,0,-0.5,0.1,-0.7,0.2c-0.2,0.2,-0.3,0.4,-0.4,0.7c0.1,-0.1,0.1,-0.2,0.3,-0.3c0,0.3,0.2,0.5,0.5,0.5c0.3,0,0.5,-0.1,0.6,-0.4c0,-0.3,0,-0.5,-0.1,-0.6c-0.1,-0.1,0.4,-0.1,0.9,0.3c0.1,0,0.2,-0.1,0.2,-0.1c0,0,-0.2,-0.1,-0.3,-0.2Z" class="g1_254" />
<path d="M139.8,376.4c0,0.1,0,0.2,0,0.2c0,-0.1,0,-0.1,0,-0.2Z" class="g1_254" />
<path d="M137,375.3c0,0,-0.3,-0.3,-0.8,-0.5c-0.5,-0.1,-2,-0.2,-2.2,-0.2c-0.1,0,-0.6,0.2,-0.6,0.2c0,0,0.5,0.1,1,0.2c0.4,0,1.1,-0.1,1.5,0.2c0.3,0.2,0.5,0.2,0.5,0.2c0.1,0,0.6,-0.1,0.6,-0.1Z" class="g1_254" />
<path d="M139.5,375c0.2,-0.1,1.6,-1.3,2.3,-1.3c0.8,0.1,0.8,0.6,0.8,0.6c0,0,-0.3,-0.1,-0.5,-0.1c-0.3,0,-0.7,0.1,-0.9,0.2c-0.2,0.2,-0.8,0.5,-1,0.5c-0.2,0.1,-0.7,0.1,-0.7,0.1Z" class="g1_254" />
<path d="M137.2,379.7c0,0,-0.4,0.1,-0.5,0.3c-0.2,0.2,-0.4,0.6,-0.1,0.9c0.2,0.3,0.8,0.2,0.8,0.2c0,0,-0.8,-0.1,-0.7,-0.7c0.1,-0.6,0.5,-0.7,0.5,-0.7Z" class="g1_254" />
<path d="M137.7,380.8c0.1,-0.1,0.3,-0.3,0.5,-0.2c0.2,0.1,0.5,0.2,0.5,0.3c0.1,0,-0.1,-0.1,-0.3,-0.1c-0.3,0,-0.7,0,-0.7,0Z" class="g1_254" />
<path d="M139.1,380.8c0.2,-0.1,0.4,-0.3,0.5,-0.4c0.2,0,0.3,0,0.3,0.1c0,0.1,0,0.1,-0.1,0.1c-0.1,0,-0.7,0.2,-0.7,0.2Z" class="g1_254" />
<path d="M135.8,382.6c-0.1,0,0.8,0.1,1.1,0c0.4,-0.1,1.1,-0.3,1.4,-0.3c0.2,0,0.6,0.2,0.6,0.2c0,0,0.1,-0.3,0.3,-0.3c0.2,0,0.6,0.1,0.8,0.1c0.2,0.1,0.6,0,0.6,0c0,0,-0.5,0.3,-0.8,0.4c-0.3,0,-0.7,0.2,-0.9,0.2c-0.1,0.1,-0.8,0.1,-1.1,0c-0.4,0,-1.8,-0.2,-2,-0.3Z" class="g1_254" />
<path d="M140.5,382.4c0,0,-0.4,0.6,-0.5,0.8c-0.1,0.2,-0.5,0.5,-0.7,0.6c-0.2,0.1,-0.6,0.1,-0.6,0.1c0,0,0.6,-0.2,0.7,-0.4c0.1,-0.2,0.1,-0.4,0,-0.4c-0.2,0.1,-0.7,0.2,-1.1,0.2c-0.4,-0.1,-0.8,-0.3,-0.8,-0.1c0.1,0.1,0.6,0.3,0.7,0.4c0.2,0,0.3,0.3,0.2,0.3c0,0,-0.8,-0.1,-1.4,-0.4c-0.7,-0.3,-0.8,-0.6,-0.8,-0.6c0,0,0.2,0,0.5,0c0.3,0.1,1.6,0.2,2.3,0.1c0.7,-0.1,1.5,-0.6,1.5,-0.6Z" class="g1_254" />
<path d="M138.5,386.5l-1,0c-0.4,0,-1.2,-0.1,-1.7,-0.3c-0.6,-0.3,-2,-1.2,-2.1,-1.4l-0.5,-0.7c0,0,0.3,0.9,0.3,1.1c-0.1,0.2,0.2,0.5,0.3,0.7c0.1,0.3,0.6,0.4,1,0.4c0.5,0.1,0.9,0.1,1.3,0.1c0.3,0.1,0.7,0.3,1.3,0.3c0.6,0,1.1,-0.2,1.1,-0.2Z" class="g1_254" />
<g clip-path="url(#c5_254)">
<path d="M142.8,388.7c-0.4,0.6,1.1,-2.7,0.9,-5.3c-0.1,-2.6,0,-5.7,-0.5,-7.3c-0.5,-1.6,-0.1,-2.2,-0.5,-4.1c-0.4,-1.8,-1.5,-3.8,-2.1,-4.4c-0.7,-0.5,-2,-1.2,-2,-1.2c0,0,1.5,0.2,2.2,1.2c0.8,1,1.6,2.6,1.8,3c0.2,0.5,0.6,3.3,0.7,4.1c0.1,0.8,0.5,3.3,0.6,4c0.2,0.7,0.4,4.7,0.3,5.4c-0.1,0.7,-1.1,3.9,-1.4,4.6M131.3,367.1c-0.7,0.8,-1.1,1.4,-1.6,2.2c-0.4,0.8,-1.1,2.2,-1.2,3c-0.1,0.9,-0.7,2.6,-0.6,3.7c0,1,0,3.5,0.1,5.1c0,1.5,0.3,7.5,-1.7,8.4c-0.2,0.1,-0.4,0.2,-0.6,0.3c-0.5,0.3,-1,0.5,-1.4,0.6c-0.4,0.2,-0.5,0.2,-0.6,0.2c0,0,0.2,-0.1,0.6,-0.2c0.3,-0.1,0.7,-0.4,1.4,-0.6c0.5,-0.4,1,-0.8,1,-1.4c0.3,-1.7,0.4,-1.4,0.4,-2.8c-0.1,-1.3,0.1,-3.4,0.1,-4c0,-0.5,0.2,-1.5,0.2,-2.4c0.1,-0.9,0,-1.8,0,-1.8c0,0,-0.8,5.8,-0.7,6.4c0,0.5,0,2.7,-0.1,2.7c-0.1,0.1,-0.1,-5.8,0.1,-6.7c0.2,-0.9,0.7,-2.7,0.7,-3.5c0,-0.9,0.6,-3.5,0.8,-4.1c0.2,-0.6,0.8,-2.4,0.9,-2.6c0.1,-0.1,1.8,-2.8,3.9,-3.6c0,0,0.1,0,0.1,0c-0.1,0,-0.1,0,-0.1,0c-0.1,0,-1,0.4,-1.7,1.1M148,389.6c0,0.3,-0.2,1.3,-0.9,1.5c-0.6,0.3,-0.6,0.2,-1.3,0c-0.8,-0.3,-1.4,-0.9,-1.6,-1.5C143.9,389,143.9,388.8,144,388c0.2,-0.8,0.5,-2.2,0.5,-2.8c0,-0.5,-0.1,-2.3,-0.1,-2.9c0,-0.5,-0.1,-2.4,-0.3,-3.4c-0.1,-0.9,0.2,-1.7,-0.4,-5.1c-0.7,-3.8,-1.5,-5.4,-3.2,-7c-1.7,-1.6,-2.8,-1.8,-3.5,-2c-0.7,-0.2,-2.2,0.1,-2.5,0.1c-0.3,0,-1.6,-0.3,-2.8,0.1c-1.3,0.4,-2.9,1.8,-3.8,3.1c-0.8,1.4,-1.6,4.6,-1.9,6.1c-0.2,1.5,-0.9,5.2,-0.9,6c0,0.9,-0.7,3.9,-0.8,4.6c-0.2,0.8,-0.7,2.9,-1,3.6c-0.3,0.6,-1.3,2.3,-1.5,2.8c-0.3,0.5,-0.3,1.5,-0.3,1.5c0,0,0.4,-0.3,0.4,-0.6c0,-0.2,0.3,-0.8,0.3,-1.3c0.1,-0.5,0.8,-1.4,1,-1.8c0.2,-0.4,0.8,-1.6,0.8,-1.6c0,0,-0.3,1.5,-0.7,2.3c-0.5,0.8,-0.3,1.2,-0.8,1.7c-0.5,0.5,-0.3,0.9,-0.6,1.2c-0.4,0.3,-0.6,0.5,-0.8,0.8c-0.2,0.3,0.5,1.8,0.6,2.2c0.1,0.3,0.2,0.7,0.4,0.7c0.1,-0.1,0.7,0,0.7,0c0,0,0.3,-1.1,0.3,-1.4c0,-0.4,0,-0.8,0.3,-1.1c0.3,-0.2,0.6,-0.8,0.8,-1.1c0.3,-0.4,0.7,-0.3,1.1,-0.6c0.5,-0.2,1.4,-0.3,2,-0.5c0.5,-0.1,0.7,-0.4,0.9,-0.5c0.3,0,1.1,0,1.2,0.3c0.1,0.2,0.1,0.5,0.4,0.6c0.4,0.2,0.4,0.3,0.8,0.5c0.3,0.2,0.5,0.2,0.8,0.1c0.3,0,1,-0.1,1,0.1c0.1,0.2,-0.1,0.5,0.3,0.4c0.4,-0.1,0.4,-0.1,0.5,-0.1c0.2,0,0.5,0.4,0.3,0.8c-0.3,0.3,0,0.7,-0.1,1.4c-0.1,0.6,-0.3,0.9,0,0.9c0.4,-0.1,0.8,-0.3,1.3,-0.3c0.4,-0.1,1.1,-0.2,1.5,-0.2c0.4,0.1,1.1,0.6,1.5,0.6c0.4,0,1.9,0.1,1.9,0.1c0.1,0,0.4,-0.3,0.4,-0.5c0.1,-0.2,0.6,-0.9,0.3,-0.6c-0.4,0.3,-1.1,0.6,-2,0.4c-1,-0.2,-3.7,-2.3,-3.9,-2.4C134.3,393,133.3,392,133.3,392c0,0,0.2,-0.3,0.3,-0.5c0,-0.3,-0.2,-1.4,-0.2,-1.9c-0.1,-0.5,-0.2,-1.9,-0.4,-2.3c-0.2,-0.5,-0.2,-1.3,-0.2,-1.3c0,0,0.2,0.4,0.5,1c0.2,0.6,0.5,1.6,0.5,1.9c0.1,0.4,0.1,1.7,1.2,3.4c1,1.7,1.8,1.8,1.8,1.8c-0.3,-0.1,-1,-0.9,-1.4,-1.5c-0.5,-0.5,-0.8,-1.4,-0.9,-1.8c-0.1,-0.4,-0.3,-1.8,-0.4,-2.1c-0.1,-0.3,-0.5,-2.2,-0.6,-2.6c-0.1,-0.4,-0.1,-0.9,-0.5,-2.5c-0.4,-1.7,0,-2.9,0,-3.2c0,-0.3,0.3,-1.5,0.4,-1.9c0.1,-0.4,0.2,-1.3,0.8,-4.4c0.6,-3.2,0.9,-3.5,1.2,-4.1c0.2,-0.5,0.7,-0.9,0.9,-1.1c0.3,-0.2,0.8,-0.3,0.8,-0.3c0,0,-0.1,-0.1,-0.3,-0.1c-0.1,-0.1,-0.2,-0.1,-0.3,-0.3c-0.2,-0.1,-0.1,-0.2,-0.3,-0.4c-0.3,-0.2,-0.2,-0.3,-0.2,-0.3c0,0,0,-0.2,-0.1,-0.3c-0.1,-0.1,-0.1,-0.3,0,-0.6c0,-0.2,0,-0.3,-0.1,-0.4c-0.2,-0.1,-0.1,-0.3,0,-0.3c0.2,0.1,0.8,0.6,0.8,0.7c0,0.1,0.2,0.7,0.2,0.7c0,0,0.4,0,0.4,0.1c0,0,-0.4,0.2,-0.4,0.2c0,0,0.2,0,0.5,0.1c0.2,0,0.5,0.2,0.2,0.1c-0.3,0,-1,0,-0.8,0.1c0.1,0.1,0.6,0.7,1,0.7c0.4,0,1.5,0.4,2,0.6c0.5,0.3,1.2,1.3,1.6,2c0.4,0.7,0.9,2.4,1,3.1c0.1,0.6,0.1,1.4,0.1,1.8c0,0.4,0.5,1.7,0.5,1.9c0.1,0.2,0,1,-0.1,1.4c0,0.4,-0.1,1.9,-0.3,2.6c-0.2,0.7,-1.2,2.2,-1.5,2.5c-0.2,0.3,-0.8,1.2,-1,1.5c-0.3,0.2,-0.9,0.4,-0.9,0.4c0,0,-0.1,2.2,0.1,2.8c0.1,0.6,1,1.1,1.4,1.4c0.3,0.2,0.9,0.3,0.9,0.3c0,0,0.2,0.6,0.4,0.8c0.2,0.2,0.8,0.2,1.2,0.2c0.3,0,0.7,0.2,1,0.3c0.3,0.1,0.5,0,0.9,0.2c0.3,0.2,0.5,0.1,0.5,0.1l-0.1,-0.4c0,0,0.6,0,0.8,0c0.3,0,0.6,-0.1,0.6,-0.1l-0.4,-0.2c0.1,0,0.4,0,0.8,-0.4c0.8,-0.5,0.9,-1.4,0.8,-1.8Z" class="g1_254" />
</g>
<path d="M737.7,601.8l169.8,0" class="g4_254" />
<text 
x="737" 
y="586" 
dx="0,0.2,0.2,0.2,0.2,0.2,0.2,0.2,-0.1,0.2,0.2,0.2,0.2,-0.1" 
class="s2_254"
>View &amp; Explore</text>

<text 
x="88" 
y="635" 
dx="0,-1,0,0,0,0,0,0,0,0,0,0,0,0,0,0,0,0,-0.1,0,0,0,0,0,0,0,0,0,0,0,0,0,0,0,0,0,0,-0.2,0,0,0,0,0,0,0,0,0,0,0,0,0,-0.3,0,0,0,0,0,0,0,0,0,0,0,0,-0.2,0,0,0,0,0,0,0,0,0,0,0,-0.2,0,0,0,0,-0.2,0,0,0,0,0,0,0,0,0,-0.1,0,0,0,0,0,0,0,0,0,0,0,0,0,0,0,0,0,0,0,0,0,0,0,0,0,0,0,0,0,0,0" 
class="s3_254"
>For deeper language immersion and more cultural information, watch “The History of a Village,” a short, supplemental video </text>

<text 
x="88" 
y="655" 
dx="0,0,0,0,0,0,0,0,0,0,0,0,0,0,0,0,0,-1.2,0,0,0,0,0,0,0,0,0,0,0,0,0,0,0,0,0,0,-0.5,0,0,0,0,0,0,0" 
class="s3_254"
>clip by Cheng &amp; Tsui on this lesson's theme.</text>

<image preserveAspectRatio="none" x="89" y="681" width="96" height="45" xlink:href="254/img/1.png" />
<image preserveAspectRatio="none" x="185" y="681" width="96" height="45" xlink:href="254/img/2.png" />
<image preserveAspectRatio="none" x="281" y="681" width="96" height="45" xlink:href="254/img/3.png" />
<image preserveAspectRatio="none" x="89" y="726" width="96" height="45" xlink:href="254/img/4.png" />
<image preserveAspectRatio="none" x="185" y="726" width="96" height="45" xlink:href="254/img/5.png" />
<image preserveAspectRatio="none" x="281" y="726" width="96" height="45" xlink:href="254/img/6.png" />
<image preserveAspectRatio="none" x="89" y="771" width="96" height="45" xlink:href="254/img/7.png" />
<image preserveAspectRatio="none" x="185" y="771" width="96" height="45" xlink:href="254/img/8.png" />
<image preserveAspectRatio="none" x="281" y="771" width="96" height="45" xlink:href="254/img/9.png" />
<image preserveAspectRatio="none" x="89" y="815" width="96" height="45" xlink:href="254/img/10.png" />
<image preserveAspectRatio="none" x="185" y="815" width="96" height="45" xlink:href="254/img/11.png" />
<image preserveAspectRatio="none" x="281" y="815" width="96" height="45" xlink:href="254/img/12.png" />
<image preserveAspectRatio="none" x="554" y="681" width="100" height="47" xlink:href="254/img/13.png" />
<image preserveAspectRatio="none" x="654" y="681" width="100" height="47" xlink:href="254/img/14.png" />
<image preserveAspectRatio="none" x="754" y="681" width="50" height="94" xlink:href="254/img/15.png" />
<image preserveAspectRatio="none" x="554" y="728" width="100" height="47" xlink:href="254/img/16.png" />
<image preserveAspectRatio="none" x="654" y="728" width="100" height="47" xlink:href="254/img/17.png" />
<image preserveAspectRatio="none" x="554" y="774" width="100" height="47" xlink:href="254/img/18.png" />
<image preserveAspectRatio="none" x="654" y="774" width="100" height="47" xlink:href="254/img/19.png" />
<image preserveAspectRatio="none" x="754" y="774" width="50" height="94" xlink:href="254/img/20.png" />
<image preserveAspectRatio="none" x="554" y="821" width="100" height="47" xlink:href="254/img/21.png" />
<image preserveAspectRatio="none" x="654" y="821" width="100" height="47" xlink:href="254/img/22.png" />
<image preserveAspectRatio="none" x="554" y="868" width="100" height="46" xlink:href="254/img/23.png" />
<image preserveAspectRatio="none" x="654" y="868" width="100" height="46" xlink:href="254/img/24.png" />
<image preserveAspectRatio="none" x="754" y="868" width="50" height="46" xlink:href="254/img/25.png" />
<image preserveAspectRatio="none" x="89" y="866" width="96" height="51" xlink:href="254/img/26.png" />
<image preserveAspectRatio="none" x="185" y="866" width="96" height="51" xlink:href="254/img/27.png" />
<image preserveAspectRatio="none" x="281" y="866" width="96" height="51" xlink:href="254/img/28.png" />
<image preserveAspectRatio="none" x="89" y="917" width="96" height="51" xlink:href="254/img/29.png" />
<image preserveAspectRatio="none" x="185" y="917" width="96" height="51" xlink:href="254/img/30.png" />
<image preserveAspectRatio="none" x="281" y="917" width="96" height="51" xlink:href="254/img/31.png" />
<image preserveAspectRatio="none" x="89" y="968" width="96" height="50" xlink:href="254/img/32.png" />
<image preserveAspectRatio="none" x="185" y="968" width="96" height="50" xlink:href="254/img/33.png" />
<image preserveAspectRatio="none" x="281" y="968" width="96" height="50" xlink:href="254/img/34.png" />
<image preserveAspectRatio="none" x="89" y="1018" width="96" height="51" xlink:href="254/img/35.png" />
<image preserveAspectRatio="none" x="185" y="1018" width="96" height="51" xlink:href="254/img/36.png" />
<image preserveAspectRatio="none" x="281" y="1018" width="96" height="51" xlink:href="254/img/37.png" />
<image preserveAspectRatio="none" x="383" y="834" width="110" height="47" xlink:href="254/img/38.png" />
<image preserveAspectRatio="none" x="493" y="834" width="55" height="94" xlink:href="254/img/39.png" />
<image preserveAspectRatio="none" x="383" y="881" width="110" height="47" xlink:href="254/img/40.png" />
<image preserveAspectRatio="none" x="383" y="928" width="110" height="47" xlink:href="254/img/41.png" />
<image preserveAspectRatio="none" x="493" y="928" width="55" height="94" xlink:href="254/img/42.png" />
<image preserveAspectRatio="none" x="383" y="975" width="110" height="47" xlink:href="254/img/43.png" />
<image preserveAspectRatio="none" x="383" y="1022" width="110" height="47" xlink:href="254/img/44.png" />
<image preserveAspectRatio="none" x="493" y="1022" width="55" height="47" xlink:href="254/img/45.png" />
<image preserveAspectRatio="none" x="554" y="920" width="50" height="50" xlink:href="254/img/46.png" />
<image preserveAspectRatio="none" x="604" y="920" width="50" height="50" xlink:href="254/img/47.png" />
<image preserveAspectRatio="none" x="654" y="920" width="50" height="50" xlink:href="254/img/48.png" />
<image preserveAspectRatio="none" x="704" y="920" width="50" height="50" xlink:href="254/img/49.png" />
<image preserveAspectRatio="none" x="754" y="920" width="50" height="50" xlink:href="254/img/50.png" />
<image preserveAspectRatio="none" x="554" y="970" width="50" height="49" xlink:href="254/img/51.png" />
<image preserveAspectRatio="none" x="604" y="970" width="50" height="49" xlink:href="254/img/52.png" />
<image preserveAspectRatio="none" x="654" y="970" width="50" height="49" xlink:href="254/img/53.png" />
<image preserveAspectRatio="none" x="704" y="970" width="50" height="49" xlink:href="254/img/54.png" />
<image preserveAspectRatio="none" x="754" y="970" width="50" height="49" xlink:href="254/img/55.png" />
<image preserveAspectRatio="none" x="554" y="1019" width="50" height="50" xlink:href="254/img/56.png" />
<image preserveAspectRatio="none" x="604" y="1019" width="50" height="50" xlink:href="254/img/57.png" />
<image preserveAspectRatio="none" x="654" y="1019" width="50" height="50" xlink:href="254/img/58.png" />
<image preserveAspectRatio="none" x="704" y="1019" width="50" height="50" xlink:href="254/img/59.png" />
<image preserveAspectRatio="none" x="754" y="1019" width="50" height="50" xlink:href="254/img/60.png" />
<image preserveAspectRatio="none" x="383" y="681" width="55" height="49" xlink:href="254/img/61.png" />
<image preserveAspectRatio="none" x="438" y="681" width="55" height="49" xlink:href="254/img/62.png" />
<image preserveAspectRatio="none" x="493" y="681" width="55" height="49" xlink:href="254/img/63.png" />
<image preserveAspectRatio="none" x="383" y="730" width="55" height="49" xlink:href="254/img/64.png" />
<image preserveAspectRatio="none" x="438" y="730" width="55" height="49" xlink:href="254/img/65.png" />
<image preserveAspectRatio="none" x="493" y="730" width="55" height="49" xlink:href="254/img/66.png" />
<image preserveAspectRatio="none" x="383" y="779" width="55" height="49" xlink:href="254/img/67.png" />
<image preserveAspectRatio="none" x="438" y="779" width="55" height="49" xlink:href="254/img/68.png" />
<image preserveAspectRatio="none" x="493" y="779" width="55" height="49" xlink:href="254/img/69.png" />
<text 
x="687" 
y="67" 
dx="0,0,0,0,0,0,0,-0.9,0,0,0,0,0,0,0" 
class="s4_254"
>After You Study</text>

<text 
x="687" 
y="89" 
dx="0,0.1,0.1,0.1,0.1,0.1,0.1,0.1,0.1,0.1,0.1,0.1,-0.1,0.1,0.1,0.1,0.1,0.1,0.1,0.1,0" 
class="s3_254"
>Answer the following </text>

<text 
x="687" 
y="103" 
dx="0,0.1,0.1,0.1,0.1,0.1,0.1,0.1,0.1,0.1,0.1,0.1,0.1,0.1,0.1,0.1,0.1,0.1,0.1,0.1,0.1" 
class="s3_254"
>questions in Chinese.</text>

<text 
x="687" 
y="133" 
dx="0,0" 
class="s5_254"
>1 </text>

<text 
x="710" 
y="135" 
dx="0,0,0,0,0,0,0,0,0" 
class="s6_254"
>為什麼中國人認為秦</text>

<text 
x="710" 
y="159" 
dx="0,0,0,0,0,0,0,0,0" 
class="s6_254"
>始皇是中國歷史上最</text>

<text 
x="710" 
y="184" 
dx="0,0,0,0,0,0,0,-2.3" 
class="s6_254"
>重要的皇帝之一？</text>

<text 
x="687" 
y="213" 
dx="0,0" 
class="s5_254"
>2 </text>

<text 
x="710" 
y="214" 
dx="0,0,0,0,0,0,0,0,0" 
class="s6_254"
>請說說為什麼中國人</text>

<text 
x="710" 
y="239" 
dx="0,0,0,0,0,0,0,-4.2" 
class="s6_254"
>認為孔子很重要。</text>

<text 
x="687" 
y="268" 
dx="0,0" 
class="s5_254"
>3 </text>

<text 
x="710" 
y="269" 
dx="0,0,0,0,0,0,-4.2" 
class="s6_254"
>跟唐朝一樣 ，</text>

<text 
x="810" 
y="269" 
dx="0,0,0" 
class="s6_254"
>現在有</text>

<text 
x="710" 
y="294" 
dx="0,0,0,0,0,0,0,0,0" 
class="s6_254"
>很多外國人去中國留</text>

<text 
x="710" 
y="318" 
dx="0,0,-4.2" 
class="s6_254"
>學 ，</text>

<text 
x="743" 
y="318" 
dx="0,0,0,-2.3" 
class="s6_254"
>為什麼？</text>

<text 
x="687" 
y="347" 
dx="0,0" 
class="s5_254"
>4 </text>

<text 
x="710" 
y="349" 
dx="0,0,0,0,0,0,0,0,0" 
class="s6_254"
>中國的四大發明是什</text>

<text 
x="710" 
y="373" 
dx="0,-2.3" 
class="s6_254"
>麼？</text>

<text 
x="687" 
y="402" 
dx="0,0" 
class="s5_254"
>5 </text>

<text 
x="710" 
y="404" 
dx="0,0,0,0,0,0,0,0,0" 
class="s6_254"
>為什麼清朝以後再也</text>

<text 
x="710" 
y="428" 
dx="0,0,0,0,0,-2.3" 
class="s6_254"
>沒有皇帝了？</text>

<path d="M674.6,55l0,374.6" class="g5_254" />
<path d="M876.9,1141.6l44.4,0L921.3,0L876.9,0l0,1141.6Z" class="g6_254" />
<g clip-path="url(#c6_254)">
<path d="M876.9,1141.6l57.3,0l0,-1222.1l-57.3,0l0,1222.1Z" class="g7_254" />
</g>
<text 
x="874" 
y="1166" 
dx="0,1.2,1.2,0" 
class="s7_254"
>231 </text>

<text 
transform="matrix(0, 1, -1, 0, 888, 844)"
dx="0,1.2,1.2,1.2,1.2,1.2,1.2,1.2,1.2,1.2" 
class="s8_254"
>Lesson 18 </text>

<text 
transform="matrix(0, 1, -1, 0, 888, 934)"
dx="0,1.2" 
class="s8_254"
>| </text>

<text 
transform="matrix(0, 1, -1, 0, 888, 951)"
dx="0,1.2,1.2,1.2,1.2,1.2,0.7,1.2,1.2,1.2,1.2,1.2,1,1.2,1.2,1.2" 
class="s8_254"
>China's History </text>

<text 
transform="matrix(0, 1, -1, 0, 888, 1080)"
dx="0,1.2" 
class="s8_254"
>| </text>

<text 
transform="matrix(0, 1, -1, 0, 888, 1097)"
dx="0,-0.3,0.9,0.9" 
class="s8_254"
>Text</text>



<!-- Any embedded fonts defined here -->
<style type="text/css" ><![CDATA[

@font-face {
	font-family: LibreFranklin-Bold_d98;
	src: url("fonts/LibreFranklin-Bold_d98.woff") format("woff");
}

@font-face {
	font-family: STKaiTi-TC-Regular_cev;
	src: url("fonts/STKaiTi-TC-Regular_cev.woff") format("woff");
}

@font-face {
	font-family: MuseoSans-700_d9u;
	src: url("fonts/MuseoSans-700_d9u.woff") format("woff");
}

@font-face {
	font-family: LibreFranklin-Medium_d9h;
	src: url("fonts/LibreFranklin-Medium_d9h.woff") format("woff");
}

@font-face {
	font-family: LibreFranklin-Regular_d9v;
	src: url("fonts/LibreFranklin-Regular_d9v.woff") format("woff");
}

@font-face {
	font-family: SourceHanSansTW-Regular_chz;
	src: url("fonts/SourceHanSansTW-Regular_chz.woff") format("woff");
}

@font-face {
	font-family: LibreFranklin-SemiBold_dai;
	src: url("fonts/LibreFranklin-SemiBold_dai.woff") format("woff");
}

]]></style>

</svg>
