<?xml version="1.0" encoding="UTF-8" standalone="no"?>
<!DOCTYPE svg PUBLIC "-//W3C//DTD SVG 1.1//EN"
"http://www.w3.org/Graphics/SVG/1.1/DTD/svg11.dtd">


<!-- Page 192 -->
<svg x="0" y="0" width="921" height="1196" viewBox="0 0 921 1196" version="1.1" xmlns="http://www.w3.org/2000/svg" xmlns:xlink="http://www.w3.org/1999/xlink"
style="display: block;margin-left: auto;margin-right: auto;">
<defs>

<style type="text/css"><![CDATA[

.g1_192{
fill: none;
stroke: #BDBEC1;
stroke-width: 1.1305556;
stroke-linecap: butt;
stroke-linejoin: miter;
}
.g2_192{
fill: none;
stroke: #BDBEC1;
stroke-width: 0.36666667;
stroke-linecap: butt;
stroke-linejoin: miter;
}
.g3_192{
fill: none;
stroke: #9B9B9C;
stroke-width: 1.5583333;
stroke-linecap: butt;
stroke-linejoin: miter;
stroke-miterlimit: 4;
}
.g4_192{
fill: none;
stroke: #9B9B9C;
stroke-width: 0.5209722;
stroke-linecap: butt;
stroke-linejoin: miter;
stroke-miterlimit: 4;
}
.g5_192{
fill: #9B9B9C;
}
.g6_192{
fill: none;
stroke: #231F20;
stroke-width: 0.34375;
stroke-linecap: butt;
stroke-linejoin: miter;
stroke-miterlimit: 4;
}
.g7_192{
fill: none;
stroke: #231F20;
stroke-width: 0.2475;
stroke-linecap: butt;
stroke-linejoin: miter;
stroke-miterlimit: 4;
}
.g8_192{
fill: #E9E7E6;
}
.g9_192{
fill: none;
stroke: #9B9B9C;
stroke-width: 1.5277778;
stroke-linecap: butt;
stroke-linejoin: miter;
stroke-miterlimit: 4;
}
.g10_192{
fill: #472D8E;
stroke: #B2B3B7;
stroke-width: 1.5277778;
stroke-linecap: butt;
stroke-linejoin: miter;
stroke-miterlimit: 4;
}

.s1_192{
font-size: 14.13px;
font-family: LibreFranklin-Bold_cyr;
fill: #472D8E;
}
.s2_192{
font-size: 13.75px;
font-family: LibreFranklin-SemiBold_czv;
fill: #77787B;
}
.s3_192{
font-size: 25.97px;
font-family: STKaiti-SC-Regular_cf1;
fill: #472D8E;
}
.s4_192{
font-size: 25.97px;
font-family: STKaiTi-TC-Regular_cev;
fill: #472D8E;
}
.s5_192{
font-size: 14.90px;
font-family: GentiumBookBasic-Italic_chu;
fill: #3F3F40;
}
.s6_192{
font-size: 14.51px;
font-family: LibreFranklin-Regular_cz7;
fill: #3F3F40;
}
.s7_192{
font-size: 13.75px;
font-family: LibreFranklin-Regular_cz7;
fill: #3F3F40;
}
.s8_192{
font-size: 14.90px;
font-family: GentiumBookBasic-Italic_czt;
fill: #3F3F40;
}
.s9_192{
font-size: 19.86px;
font-family: SourceHanSansCN-Normal_cgd;
fill: #231F20;
}
.s10_192{
font-size: 19.86px;
font-family: SourceHanSansTW-Normal_cgo;
fill: #231F20;
}
.s11_192{
font-size: 13.75px;
font-family: LibreFranklin-Medium_cyp;
fill: #231F20;
}
.s12_192{
font-size: 13.75px;
font-family: LibreFranklin-SemiBold_1jb;
fill: #FFFFFF;
}

]]></style>

</defs>
<path d="M0,0
L0,1196
L921,1196
L921,0 Z " 
fill="#FFFFFF" stroke="none" />
<path d="M113.1,97.8l55,0" class="g1_192" />
<path d="M168.1,97.8l161.3,0" class="g1_192" />
<path d="M329.4,97.8l161.3,0" class="g1_192" />
<path d="M490.7,97.8l133.9,0" class="g1_192" />
<path d="M624.6,97.8l76,0" class="g1_192" />
<path d="M700.6,97.8l160.5,0" class="g1_192" />
<path d="M113.1,140.9l55,0" class="g2_192" />
<path d="M168.1,140.9l161.3,0" class="g2_192" />
<path d="M329.4,140.9l161.3,0" class="g2_192" />
<path d="M490.7,140.9l133.9,0" class="g2_192" />
<path d="M624.6,140.9l76,0" class="g2_192" />
<path d="M700.6,140.9l160.5,0" class="g2_192" />
<path d="M113.1,183.7l55,0" class="g2_192" />
<path d="M168.1,183.7l161.3,0" class="g2_192" />
<path d="M329.4,183.7l161.3,0" class="g2_192" />
<path d="M490.7,183.7l133.9,0" class="g2_192" />
<path d="M624.6,183.7l76,0" class="g2_192" />
<path d="M700.6,183.7l160.5,0" class="g2_192" />
<path d="M113.1,226.5l55,0" class="g2_192" />
<path d="M168.1,226.5l161.3,0" class="g2_192" />
<path d="M329.4,226.5l161.3,0" class="g2_192" />
<path d="M490.7,226.5l133.9,0" class="g2_192" />
<path d="M624.6,226.5l76,0" class="g2_192" />
<path d="M700.6,226.5l160.5,0" class="g2_192" />
<path d="M113.1,269.3l55,0" class="g2_192" />
<path d="M168.1,269.3l161.3,0" class="g2_192" />
<path d="M329.4,269.3l161.3,0" class="g2_192" />
<path d="M490.7,269.3l133.9,0" class="g2_192" />
<path d="M624.6,269.3l76,0" class="g2_192" />
<path d="M700.6,269.3l160.5,0" class="g2_192" />
<path d="M113.1,327.8l55,0" class="g2_192" />
<path d="M168.1,327.8l161.3,0" class="g2_192" />
<path d="M329.4,327.8l161.3,0" class="g2_192" />
<path d="M490.7,327.8l133.9,0" class="g2_192" />
<path d="M624.6,327.8l76,0" class="g2_192" />
<path d="M700.6,327.8l160.5,0" class="g2_192" />
<path d="M113.1,370.9l55,0" class="g2_192" />
<path d="M168.1,370.9l161.3,0" class="g2_192" />
<path d="M329.4,370.9l161.3,0" class="g2_192" />
<path d="M490.7,370.9l133.9,0" class="g2_192" />
<path d="M624.6,370.9l76,0" class="g2_192" />
<path d="M700.6,370.9l160.5,0" class="g2_192" />
<path d="M113.1,413.7l55,0" class="g2_192" />
<path d="M168.1,413.7l161.3,0" class="g2_192" />
<path d="M329.4,413.7l161.3,0" class="g2_192" />
<path d="M490.7,413.7l133.9,0" class="g2_192" />
<path d="M624.6,413.7l76,0" class="g2_192" />
<path d="M700.6,413.7l160.5,0" class="g2_192" />
<path d="M113.1,456.4l55,0" class="g2_192" />
<path d="M168.1,456.4l161.3,0" class="g2_192" />
<path d="M329.4,456.4l161.3,0" class="g2_192" />
<path d="M490.7,456.4l133.9,0" class="g2_192" />
<path d="M624.6,456.4l76,0" class="g2_192" />
<path d="M700.6,456.4l160.5,0" class="g2_192" />
<path d="M113.1,548l55,0" class="g2_192" />
<path d="M168.1,548l161.3,0" class="g2_192" />
<path d="M329.4,548l161.3,0" class="g2_192" />
<path d="M490.7,548l133.9,0" class="g2_192" />
<path d="M624.6,548l76,0" class="g2_192" />
<path d="M700.6,548l160.5,0" class="g2_192" />
<path d="M113.1,590.7l55,0" class="g2_192" />
<path d="M168.1,590.7l161.3,0" class="g2_192" />
<path d="M329.4,590.7l161.3,0" class="g2_192" />
<path d="M490.7,590.7l133.9,0" class="g2_192" />
<path d="M624.6,590.7l76,0" class="g2_192" />
<path d="M700.6,590.7l160.5,0" class="g2_192" />
<path d="M113.1,633.5l55,0" class="g2_192" />
<path d="M168.1,633.5l161.3,0" class="g2_192" />
<path d="M329.4,633.5l161.3,0" class="g2_192" />
<path d="M490.7,633.5l133.9,0" class="g2_192" />
<path d="M624.6,633.5l76,0" class="g2_192" />
<path d="M700.6,633.5l160.5,0" class="g2_192" />
<path d="M113.1,676.3l55,0" class="g2_192" />
<path d="M168.1,676.3l161.3,0" class="g2_192" />
<path d="M329.4,676.3l161.3,0" class="g2_192" />
<path d="M490.7,676.3l133.9,0" class="g2_192" />
<path d="M624.6,676.3l76,0" class="g2_192" />
<path d="M700.6,676.3l160.5,0" class="g2_192" />
<path d="M113.1,719.1l55,0" class="g2_192" />
<path d="M168.1,719.1l161.3,0" class="g2_192" />
<path d="M329.4,719.1l161.3,0" class="g2_192" />
<path d="M490.7,719.1l133.9,0" class="g2_192" />
<path d="M624.6,719.1l76,0" class="g2_192" />
<path d="M700.6,719.1l160.5,0" class="g2_192" />
<text 
x="122" 
y="83" 
dx="0,0.3,0" 
class="s1_192"
>No.</text>

<text 
x="177" 
y="83" 
dx="0,0.3,0.3,0.3,0.3,0.3,0.3,0.3,0.3,0.3" 
class="s1_192"
>Simplified</text>

<text 
x="339" 
y="83" 
dx="0,-0.9,0.2,0.3,0.3,0.3,0.3,0.3,0.3,0.3,0.3" 
class="s1_192"
>Traditional</text>

<text 
x="500" 
y="83" 
dx="0,0.3,0.3,0.3,0.3,0.3" 
class="s1_192"
>Pinyin</text>

<text 
x="634" 
y="76" 
dx="0,0.3,0.3,0.3,0.3,0.3,0,0" 
class="s1_192"
>Part of </text>

<text 
x="634" 
y="89" 
dx="0,0.3,0.3,0.3,0.3,0.3" 
class="s1_192"
>Speech</text>

<text 
x="710" 
y="83" 
dx="0,0.3,0.3,0.3,0.3,0.3,0.3,0.3,0.3,0.3" 
class="s1_192"
>Definition</text>

<text 
x="122" 
y="126" 
dx="0,-0.4" 
class="s2_192"
>22</text>

<text 
x="182" 
y="128" 
dx="0,0" 
class="s3_192"
>危机</text>

<text 
x="343" 
y="128" 
dx="0,0" 
class="s4_192"
>危機</text>

<text 
x="503" 
y="126" 
dx="0,0.2,0.2,0.2,0.2" 
class="s5_192"
>wēijī</text>

<text 
x="634" 
y="126" 
dx="0" 
class="s6_192"
>n</text>

<text 
x="710" 
y="126" 
dx="0,0,0,0,0,0" 
class="s7_192"
>crisis</text>

<text 
x="122" 
y="168" 
dx="0,-0.4" 
class="s2_192"
>23</text>

<text 
x="182" 
y="171" 
dx="0" 
class="s3_192"
>风</text>

<text 
x="343" 
y="171" 
dx="0" 
class="s4_192"
>風</text>

<text 
x="503" 
y="168" 
dx="0,0.2,0.2,0.2" 
class="s5_192"
>fēng</text>

<text 
x="634" 
y="169" 
dx="0" 
class="s6_192"
>n</text>

<text 
x="710" 
y="168" 
dx="0,0,0,0" 
class="s7_192"
>wind</text>

<text 
x="122" 
y="211" 
dx="0,-0.7" 
class="s2_192"
>24</text>

<text 
x="182" 
y="214" 
dx="0,0" 
class="s3_192"
>石油</text>

<text 
x="343" 
y="214" 
dx="0,0" 
class="s4_192"
>石油</text>

<text 
x="503" 
y="211" 
dx="0,0.2,0.2,0.2,0.2,0.2" 
class="s8_192"
>shíyóu</text>

<text 
x="634" 
y="212" 
dx="0" 
class="s6_192"
>n</text>

<text 
x="710" 
y="211" 
dx="0,0,-0.1,0,-0.2,0,0,0,0,0,0,0,0,0" 
class="s7_192"
>petroleum, oil</text>

<text 
x="122" 
y="254" 
dx="0,-0.4" 
class="s2_192"
>25</text>

<text 
x="182" 
y="257" 
dx="0" 
class="s3_192"
>煤</text>

<text 
x="343" 
y="257" 
dx="0" 
class="s4_192"
>煤</text>

<text 
x="503" 
y="254" 
dx="0,0.2,0.2" 
class="s5_192"
>méi</text>

<text 
x="634" 
y="254" 
dx="0" 
class="s6_192"
>n</text>

<text 
x="710" 
y="254" 
dx="0,0,0,0" 
class="s7_192"
>coal</text>

<text 
x="122" 
y="305" 
dx="0,-0.6" 
class="s2_192"
>26</text>

<text 
x="182" 
y="307" 
dx="0,0" 
class="s3_192"
>规定</text>

<text 
x="343" 
y="307" 
dx="0,0" 
class="s4_192"
>規定</text>

<text 
x="503" 
y="305" 
dx="0,0.2,0.2,0.2,0.2,0.2,0.2" 
class="s5_192"
>guīdìng</text>

<text 
x="634" 
y="305" 
dx="0,0,0" 
class="s6_192"
>v/n</text>

<text 
x="710" 
y="288" 
dx="0,-0.2,0,0,-0.2,0,0,0,0,0,-0.2,0,0,0,-0.2,0,0,0,0,0,0,0,0,0,0" 
class="s7_192"
>to regulate, to specify; </text>

<text 
x="710" 
y="305" 
dx="0,0,0,0,0,0,0,0,0,0,0,-0.2,0,0,0,0,0,0,0,0,0,0,0" 
class="s7_192"
>rules and regulations, </text>

<text 
x="710" 
y="321" 
dx="0,0,-0.2,-0.3,0,0,0,0,0,0" 
class="s7_192"
>provisions</text>

<text 
x="122" 
y="355" 
dx="0,-0.5" 
class="s2_192"
>27</text>

<text 
x="182" 
y="358" 
dx="0,0,0,0" 
class="s3_192"
>公共场所</text>

<text 
x="343" 
y="358" 
dx="0,0,0,0" 
class="s4_192"
>公共場所</text>

<text 
x="503" 
y="346" 
dx="0,0.2,0.2,0.2,0.2,0.2,0.2,0.2,0" 
class="s5_192"
>gōnggòng </text>

<text 
x="503" 
y="364" 
dx="0,0.2,0.2,0.2,0.2,0.2,0.2,0.2" 
class="s5_192"
>chǎngsuǒ</text>

<text 
x="634" 
y="356" 
dx="0" 
class="s6_192"
>n</text>

<text 
x="710" 
y="355" 
dx="0,0,0,0,0,0,0,0,0,0,0,0,0,0,0,0,0,0,0,0,0" 
class="s7_192"
>public place or space</text>

<text 
x="122" 
y="398" 
dx="0,-0.5" 
class="s2_192"
>28</text>

<text 
x="182" 
y="401" 
dx="0,0" 
class="s3_192"
>暖气</text>

<text 
x="343" 
y="401" 
dx="0,0" 
class="s4_192"
>暖氣</text>

<text 
x="503" 
y="398" 
dx="0,0.2,0.2,0.2,0.2,0.2" 
class="s5_192"
>nuǎnqì</text>

<text 
x="634" 
y="399" 
dx="0" 
class="s6_192"
>n</text>

<text 
x="710" 
y="398" 
dx="0,0,0,0,0,0,0,0,0,0,0,0,0,0,0,0,0,0,0,0,0,0,0" 
class="s7_192"
>heating (lit. warm air)</text>

<text 
x="122" 
y="441" 
dx="0,-0.5" 
class="s2_192"
>29</text>

<text 
x="182" 
y="444" 
dx="0,0" 
class="s3_192"
>温度</text>

<text 
x="343" 
y="444" 
dx="0,0" 
class="s4_192"
>溫度</text>

<text 
x="503" 
y="441" 
dx="0,0.2,0.2,0.2,0.2" 
class="s5_192"
>wēndù</text>

<text 
x="634" 
y="442" 
dx="0" 
class="s6_192"
>n</text>

<text 
x="710" 
y="441" 
dx="0,-0.2,0,0,0,0,0,0,0,0,-0.2" 
class="s7_192"
>temperature</text>

<text 
x="122" 
y="508" 
dx="0,-0.6" 
class="s2_192"
>30</text>

<text 
x="182" 
y="511" 
dx="0" 
class="s3_192"
>度</text>

<text 
x="343" 
y="511" 
dx="0" 
class="s4_192"
>度</text>

<text 
x="503" 
y="508" 
dx="0,0.2" 
class="s5_192"
>dù</text>

<text 
x="634" 
y="509" 
dx="0" 
class="s6_192"
>m</text>

<text 
x="710" 
y="475" 
dx="0,0,0,0,0,0,0,-0.2,0,0,0,0,-0.2,0,0,-0.3,0,0" 
class="s7_192"
>(measure word for </text>

<text 
x="710" 
y="492" 
dx="0,0,0,0,-0.2,0,0,0,0,-0.2,0" 
class="s7_192"
>degrees of </text>

<text 
x="710" 
y="508" 
dx="0,-0.2,0,0,0,0,0,0,0,0,-0.2,0,0,0,0,0,0,0,0" 
class="s7_192"
>temperature, heat, </text>

<text 
x="710" 
y="525" 
dx="0,0,0,-0.2,0,0,0,0,0,0" 
class="s7_192"
>hardness, </text>

<text 
x="710" 
y="541" 
dx="0,0,0,0,0,0,0,0,-0.9,0,0,-0.1,-0.2,0,0" 
class="s7_192"
>humidity, etc.)</text>

<text 
x="122" 
y="575" 
dx="0,-0.5" 
class="s2_192"
>31</text>

<text 
x="182" 
y="578" 
dx="0,0" 
class="s3_192"
>赞成</text>

<text 
x="343" 
y="578" 
dx="0,0" 
class="s4_192"
>贊成</text>

<text 
x="503" 
y="575" 
dx="0,0.2,0.2,0.2,0.2,0.2,0.2,0.2" 
class="s8_192"
>zànchéng</text>

<text 
x="634" 
y="576" 
dx="0" 
class="s6_192"
>v</text>

<text 
x="710" 
y="575" 
dx="0,-0.2,0,0,0,0,0,-0.2,-0.3,-0.4,0,0,0,-0.2,0,0,0,0,0,0,0,0" 
class="s7_192"
>to approve, to support</text>

<text 
x="122" 
y="618" 
dx="0,-0.6" 
class="s2_192"
>32</text>

<text 
x="182" 
y="621" 
dx="0,0" 
class="s3_192"
>出汗</text>

<text 
x="343" 
y="621" 
dx="0,0" 
class="s4_192"
>出汗</text>

<text 
x="503" 
y="618" 
dx="0,0.2,0.2,0.2,0.2,0.2,0.2" 
class="s5_192"
>chū hàn</text>

<text 
x="634" 
y="619" 
dx="0,-0.4" 
class="s6_192"
>vo</text>

<text 
x="710" 
y="618" 
dx="0,-0.2,0,0,0,0,0,0" 
class="s7_192"
>to sweat</text>

<text 
x="122" 
y="661" 
dx="0,-0.4" 
class="s2_192"
>33</text>

<text 
x="182" 
y="664" 
dx="0,0" 
class="s3_192"
>餐具</text>

<text 
x="343" 
y="664" 
dx="0,0" 
class="s4_192"
>餐具</text>

<text 
x="503" 
y="661" 
dx="0,0.2,0.2,0.2,0.2" 
class="s5_192"
>cānjù</text>

<text 
x="634" 
y="661" 
dx="0" 
class="s6_192"
>n</text>

<text 
x="710" 
y="653" 
dx="0,0,0,0,0,0,0,0,0,-0.2,0,0,0,0,0,0" 
class="s7_192"
>eating utensil, </text>

<text 
x="710" 
y="669" 
dx="0,0,0,0,0,0,0,0,-0.2" 
class="s7_192"
>tableware</text>

<text 
x="122" 
y="704" 
dx="0,-0.4" 
class="s2_192"
>34</text>

<text 
x="182" 
y="707" 
dx="0,0,0" 
class="s3_192"
>一次性</text>

<text 
x="343" 
y="707" 
dx="0,0,0" 
class="s4_192"
>一次性</text>

<text 
x="503" 
y="704" 
dx="0,0.2,0.2,0.2,0.2,0.2,0.2,0.2" 
class="s8_192"
>yícìxìng</text>

<text 
x="634" 
y="704" 
dx="0,0,0" 
class="s6_192"
>adj</text>

<text 
x="710" 
y="704" 
dx="0,0,0,0,0,0,0,0" 
class="s7_192"
>one-time</text>

<path d="M389.3,849.6c-0.1,0,-14.6,1.7,-14.8,16.2l-2.3,228.7c0,0.1,0,14.7,14.5,15.8l408.8,30c0.2,0,6.6,0.4,10.9,-3.6c2.6,-2.4,3.9,-5.8,3.9,-10.2l0,-304.2c0,-0.2,0,-6.6,-4.4,-10.5c-2.6,-2.3,-6.1,-3.3,-10.4,-2.9L389.3,849.6Z" class="g3_192" />
<path d="M389.6,851.7c-0.6,0,-12.8,1.5,-13,14.1l-2.4,228.7c0,0.5,0.1,12.8,12.7,13.7l408.7,30c0.1,0,5.8,0.4,9.4,-3c2.2,-2,3.2,-4.9,3.2,-8.7l0,-304.2c0,0,0,-5.7,-3.7,-9c-2.1,-1.9,-5.1,-2.7,-8.8,-2.3L389.6,851.7Z" class="g4_192" />
<path d="M809.8,834.8l0,11.4l4.4,0l0,-2.7l5.2,0l0,8.6l-5.2,0l0,-2.7l-4.4,0l0,11.4l4.4,0l0,-2.7l15.3,0l0,2.7l4.3,0l0,-11.4l-4.3,0l0,2.7l-5.4,0l0,-8.6l5.4,0l0,2.7l4.3,0l0,-11.4l-4.3,0l0,2.7l-15.3,0l0,-2.7Zm8.6,28.1c-5.4,0,-9,4.4,-9,9.8c0,5.5,3.6,9.9,9,9.9c5.4,0,9.1,-4.4,9.1,-9.9c0,-5.4,-3.7,-9.8,-9.1,-9.8m0,5.9c2.6,0,4.3,1.8,4.3,3.9c0,2.2,-1.7,4,-4.3,4c-2.6,0,-4.2,-1.8,-4.2,-4c0,-2.1,1.6,-3.9,4.2,-3.9m4.5,14.9l0,2L809.8,889l0,6.7l8,2c1.1,0.3,2.3,0.3,2.3,0.3l0,0.1c0,0,-1.2,0.1,-2.3,0.3l-8,2l0,6.7l13.1,3.3l0,2l4.2,0l0,-9.2l-4.2,0l0,1.7l-6,-1.3c-1,-0.2,-2.3,-0.3,-2.3,-0.3l0,-0.1c0,0,1.3,0,2.3,-0.3l10.2,-2.4l0,-4.9l-10.2,-2.4c-1,-0.3,-2.3,-0.3,-2.3,-0.3l0,-0.1c0,0,1.3,-0.1,2.3,-0.3l6,-1.3l0,1.7l4.2,0l0,-9.2Zm-13.1,37.7l0,10.1l4.4,0l0,-2.1l3.2,0.9l0,6.2l-3.2,0.9l0,-2.1l-4.4,0l0,10.1l4.4,0l0,-2l19.6,-6.6l0,-6.8l-19.6,-6.6l0,-2Zm12.1,10.2l4.5,1.3c1.4,0.4,2.5,0.4,2.5,0.4l0,0.2c0,0,-1.1,0.1,-2.5,0.5l-4.5,1.2Zm-12.1,16.3l0,5.5l0.6,0c0.5,0,1.1,0,1.1,0c0,0,-2.1,1.3,-2.1,4.8c0,4.6,3.5,8,9,8c5.4,0,9.1,-3.1,9.1,-7.8c0,-3,-1.8,-4.6,-1.8,-4.6l0,-0.1c0,0,0.6,0.1,1.4,0.1l6.7,0l0,-8.2l-4.2,0l0,2.3Zm8.5,5.7c3,0,4.3,1.6,4.3,3.4c0,2,-1.7,3.4,-4.3,3.4c-2.6,0,-4.1,-1.6,-4.1,-3.4c0,-2.3,2,-3.4,4.1,-3.4m0.1,14.4c-5.4,0,-9,4.3,-9,9.8c0,5.4,3.6,9.8,9,9.8c5.4,0,9.1,-4.4,9.1,-9.8c0,-5.5,-3.7,-9.8,-9.1,-9.8m0,5.9c2.6,0,4.3,1.8,4.3,3.9c0,2.1,-1.7,3.9,-4.3,3.9c-2.6,0,-4.2,-1.8,-4.2,-3.9c0,-2.1,1.6,-3.9,4.2,-3.9m-2.5,17.6c-4.9,0,-6.5,2.6,-6.5,5.7c0,4.4,3.3,5.9,3.3,5.9c0,0,-0.3,0,-0.5,0l-0.5,0c-1.1,0,-1.9,0.8,-1.9,2.4l0,5.3l4.2,0l0,-1.4c0,-0.5,0.3,-0.8,0.7,-0.8l12.4,0l0,-8.1l-4.2,0l0,2.3l-3.1,0c-2.6,0,-5.3,-1.3,-5.3,-3.6c0,-1.2,0.7,-1.9,2.3,-1.9l10.3,0l0,-8.2l-4.2,0l0,2.4Zm0.3,23.1c-5.8,0,-6.6,5.3,-6.6,8.1c0,0.9,0.1,1.5,0.1,1.5l4.7,0c0,0,0,-0.3,0,-0.7c0,-1.1,0.3,-3.1,2.4,-3.1l6.1,0l0,3.6l4.2,0l0,-3.6l4.7,0l0,-5.7l-4.7,0l0,-2.5l-4.2,0l0,2.4Zm-6.4,24.7l0,11.4l4.4,0l0,-2.7l5.4,0l9.9,5.9l0,2l4.3,0l0,-9.9l-4.3,0l0,2l-4.5,-2.4c-0.7,-0.4,-1.2,-0.6,-1.2,-0.6c0,0,0.5,-0.2,1.2,-0.6l4.5,-2.4l0,2l4.3,0l0,-10l-4.3,0l0,2.1l-9.9,5.9l-5.4,0l0,-2.7Zm8.6,15.7c-5.4,0,-9,4.3,-9,9.8c0,5.4,3.6,9.8,9,9.8c5.4,0,9.1,-4.4,9.1,-9.8c0,-5.5,-3.7,-9.8,-9.1,-9.8m0,5.9c2.6,0,4.3,1.8,4.3,3.9c0,2.1,-1.7,3.9,-4.3,3.9c-2.6,0,-4.2,-1.8,-4.2,-3.9c0,-2.1,1.6,-3.9,4.2,-3.9m-2.5,17.6c-4.9,0,-6.5,2.6,-6.5,5.7c0,4.4,3.3,5.9,3.3,5.9c0,0,-0.3,0,-0.5,0l-0.5,0c-1.1,0,-1.9,0.8,-1.9,2.4l0,5.3l4.2,0l0,-1.4c0,-0.5,0.3,-0.8,0.7,-0.8l12.4,0l0,-8.1l-4.2,0l0,2.3l-3.1,0c-2.6,0,-5.3,-1.3,-5.3,-3.6c0,-1.2,0.7,-1.9,2.3,-1.9l10.3,0l0,-8.2l-4.2,0l0,2.4Zm1.3,24.7l0,5.6l1.2,0c3,0,3.8,5.7,9.3,5.7c4.4,0,6.6,-4.1,6.6,-7.8c0,-4.5,-2.8,-7.1,-2.8,-7.1l-3.9,3.3c0,0,1.4,1.6,1.4,3.2c0,1.2,-0.8,2.4,-1.9,2.4c-2.9,0,-3.7,-5.3,-8.2,-5.3Zm-7.4,5.4l5,0l0,-5.3l-5,0l0,5.3Z" class="g5_192" />
<image preserveAspectRatio="none" x="412" y="799" width="235" height="146" xlink:href="192/img/1.png" />
<path d="M413.7,943.2l232,0l0,-142.8l-232,0l0,142.8Z" class="g6_192" />
<image preserveAspectRatio="none" x="655" y="814" width="121" height="283" xlink:href="192/img/2.png" />
<path d="M656.2,1095.3l118.3,0l0,-279.4l-118.3,0l0,279.4Z" class="g6_192" />
<image preserveAspectRatio="none" x="441" y="949" width="206" height="169" xlink:href="192/img/3.png" />
<path d="M442.4,1116.4l203.3,0l0,-165.5l-203.3,0l0,165.5Z" class="g7_192" />
<path d="M91.1,977.2c0,0,-6.9,0,-6.9,6.9l0,73c0,0,0,6.9,6.9,6.9l292.8,0c0,0,6.9,0,6.9,-6.9l0,-73c0,0,0,-6.9,-6.9,-6.9Z" class="g8_192" />
<path d="M91.1,977.2c0,0,-6.9,0,-6.9,6.9l0,73c0,0,0,6.9,6.9,6.9l292.8,0c0,0,6.9,0,6.9,-6.9l0,-73c0,0,0,-6.9,-6.9,-6.9l-292.8,0Z" class="g9_192" />
<path d="M91.1,885.3c0,0,-6.9,0,-6.9,6.9l0,73c0,0,0,6.9,6.9,6.9l292.8,0c0,0,6.9,0,6.9,-6.9l0,-73c0,0,0,-6.9,-6.9,-6.9Z" class="g8_192" />
<path d="M91.1,885.3c0,0,-6.9,0,-6.9,6.9l0,73c0,0,0,6.9,6.9,6.9l292.8,0c0,0,6.9,0,6.9,-6.9l0,-73c0,0,0,-6.9,-6.9,-6.9l-292.8,0Z" class="g9_192" />
<text 
x="99" 
y="912" 
dx="0,1.6,1.6,1.6,1.6,1.6,1.6,1.6,1.6,1.6,1.6,1.6,1.6" 
class="s9_192"
>柯林他们觉得骑自行车又节能</text>

<text 
x="99" 
y="938" 
dx="0,0,0,0,-0.4,0,0,0,0,0,0,0,0,0" 
class="s9_192"
>又环保，你在生活中怎么节能环</text>

<text 
x="99" 
y="963" 
dx="0,0" 
class="s9_192"
>保？</text>

<text 
x="99" 
y="1001" 
dx="0,1.6,1.6,1.6,1.6,1.6,1.6,1.6,1.6,1.6,1.6,1.6,1.6" 
class="s10_192"
>柯林他們覺得騎自行車又節能</text>

<text 
x="99" 
y="1027" 
dx="0,0,0,0,-0.4,0,0,0,0,0,0,0,0,0" 
class="s10_192"
>又環保，你在生活中怎麼節能環</text>

<text 
x="99" 
y="1053" 
dx="0,0" 
class="s10_192"
>保？</text>

<path d="M876.9,1141.6l57.3,0l0,-1222.1l-57.3,0l0,1222.1Z" class="g10_192" />
<text 
x="873" 
y="1166" 
dx="0,1.2,1.2,0" 
class="s11_192"
>169 </text>

<text 
transform="matrix(0, 1, -1, 0, 888, 513)"
dx="0,1.2,1.2,1.2,1.2,1.2,1.2,1.2,1.2,1.2" 
class="s12_192"
>Lesson 16 </text>

<text 
transform="matrix(0, 1, -1, 0, 888, 603)"
dx="0,1.2" 
class="s12_192"
>| </text>

<text 
transform="matrix(0, 1, -1, 0, 888, 620)"
dx="0,1.2,1.2,1.2,1.2,1,1.2,1.2,1.2,1.2,1.2,1.2,1.2,1.2,1.2,1.2,1,1.1,1,1.2,1.2,1.2,1.2,1.2,1.2,1.2,1.2,1.2,1.2,1.2,1.2,1.2,1.2,1.2,1.2,1.2,1.2,1.2,1.2,1.2,1.2,1.2,1.2,1.2,1.2,1.2,1.2,1.2,1.2" 
class="s12_192"
>Environmental Protection and Energy Conservation </text>

<text 
transform="matrix(0, 1, -1, 0, 888, 1028)"
dx="0,1.2" 
class="s12_192"
>| </text>

<text 
transform="matrix(0, 1, -1, 0, 888, 1045)"
dx="0,0.2,1.2,1.2,1.2,1.2,1.2,1.2,1.2,1.2,0" 
class="s12_192"
>Vocabulary </text>



<!-- Any embedded fonts defined here -->
<style type="text/css" ><![CDATA[

@font-face {
	font-family: LibreFranklin-SemiBold_czv;
	src: url("fonts/LibreFranklin-SemiBold_czv.woff") format("woff");
}

@font-face {
	font-family: GentiumBookBasic-Italic_chu;
	src: url("fonts/GentiumBookBasic-Italic_chu.woff") format("woff");
}

@font-face {
	font-family: LibreFranklin-Bold_cyr;
	src: url("fonts/LibreFranklin-Bold_cyr.woff") format("woff");
}

@font-face {
	font-family: GentiumBookBasic-Italic_czt;
	src: url("fonts/GentiumBookBasic-Italic_czt.woff") format("woff");
}

@font-face {
	font-family: STKaiTi-TC-Regular_cev;
	src: url("fonts/STKaiTi-TC-Regular_cev.woff") format("woff");
}

@font-face {
	font-family: SourceHanSansTW-Normal_cgo;
	src: url("fonts/SourceHanSansTW-Normal_cgo.woff") format("woff");
}

@font-face {
	font-family: LibreFranklin-Regular_cz7;
	src: url("fonts/LibreFranklin-Regular_cz7.woff") format("woff");
}

@font-face {
	font-family: STKaiti-SC-Regular_cf1;
	src: url("fonts/STKaiti-SC-Regular_cf1.woff") format("woff");
}

@font-face {
	font-family: SourceHanSansCN-Normal_cgd;
	src: url("fonts/SourceHanSansCN-Normal_cgd.woff") format("woff");
}

@font-face {
	font-family: LibreFranklin-SemiBold_1jb;
	src: url("fonts/LibreFranklin-SemiBold_1jb.woff") format("woff");
}

@font-face {
	font-family: LibreFranklin-Medium_cyp;
	src: url("fonts/LibreFranklin-Medium_cyp.woff") format("woff");
}

]]></style>

</svg>
