<?xml version="1.0" encoding="UTF-8" standalone="no"?>
<!DOCTYPE svg PUBLIC "-//W3C//DTD SVG 1.1//EN"
"http://www.w3.org/Graphics/SVG/1.1/DTD/svg11.dtd">


<!-- Page 361 -->
<svg x="0" y="0" width="921" height="1196" viewBox="0 0 921 1196" version="1.1" xmlns="http://www.w3.org/2000/svg" xmlns:xlink="http://www.w3.org/1999/xlink"
style="display: block;margin-left: auto;margin-right: auto;">
<defs>

<style type="text/css"><![CDATA[

.g1_361{
fill: #DC262E;
stroke: #B2B3B7;
stroke-width: 1.5277778;
stroke-linecap: butt;
stroke-linejoin: miter;
stroke-miterlimit: 4;
}
.g2_361{
fill: #57585A;
stroke: #B2B3B7;
stroke-width: 1.5277778;
stroke-linecap: butt;
stroke-linejoin: miter;
stroke-miterlimit: 4;
}
.g3_361{
fill: #F0F1F2;
}
.g4_361{
fill: #BDBEC1;
}
.g5_361{
fill: none;
stroke: #BDBEC1;
stroke-width: 0.38194445;
stroke-linecap: butt;
stroke-linejoin: miter;
}
.g6_361{
fill: none;
stroke: #DADBDD;
stroke-width: 1.5277778;
stroke-linecap: butt;
stroke-linejoin: miter;
}
.g7_361{
fill: none;
stroke: #DADBDD;
stroke-width: 0.38194445;
stroke-linecap: butt;
stroke-linejoin: miter;
}
.g8_361{
fill: none;
stroke: #EAEBEC;
stroke-width: 0.38194445;
stroke-linecap: butt;
stroke-linejoin: miter;
}

.s1_361{
font-size: 13.75px;
font-family: LibreFranklin-Medium_dhv;
fill: #231F20;
}
.s2_361{
font-size: 13.75px;
font-family: LibreFranklin-SemiBold_dig;
fill: #FFFFFF;
}
.s3_361{
font-size: 13.75px;
font-family: LibreFranklin-SemiBold_cg0;
fill: #FFFFFF;
}
.s4_361{
font-size: 14.51px;
font-family: LibreFranklin-SemiBold_di3;
fill: #57585A;
}
.s5_361{
font-size: 24.44px;
font-family: STKaiti-SC-Regular_cf1;
fill: #57585A;
}
.s6_361{
font-size: 24.44px;
font-family: STKaiTi-TC-Regular_cev;
fill: #57585A;
}
.s7_361{
font-size: 14.90px;
font-family: GentiumBookBasic-Italic_chu;
fill: #3F3F40;
}
.s8_361{
font-size: 14.51px;
font-family: LibreFranklin-Regular_di7;
fill: #3F3F40;
}
.s9_361{
font-size: 13.75px;
font-family: LibreFranklin-Light_dib;
fill: #3F3F40;
}
.s10_361{
font-size: 14.51px;
font-family: LibreFranklin-SemiBold_di3;
fill: #77787B;
}
.s11_361{
font-size: 13.75px;
font-family: LibreFranklin-Light_dim;
fill: #3F3F40;
}
.s12_361{
font-size: 19.86px;
font-family: LibreFranklin-SemiBold_di3;
fill: #3F3F40;
}

]]></style>

</defs>
<path d="M0,0
L0,1196
L921,1196
L921,0 Z " 
fill="#FFFFFF" stroke="none" />
<path d="M-12.9,1140.6l58,0l0,-1153.5l-58,0l0,1153.5Z" class="g1_361" />
<text 
x="20" 
y="1166" 
dx="0,1.2,1.2,0" 
class="s1_361"
>338 </text>

<text 
transform="matrix(0, -1, 1, 0, 34, 1129)"
dx="0,1.2,1.2,1,1.2,1.2,1.2,1.2,1,1.2,1.2,1.2,1.2,1.2,1.2,1.2,1.2,1.2,1.2,1.2,1.2" 
class="s2_361"
>Integrated Chinese 4 </text>

<text 
transform="matrix(0, -1, 1, 0, 34, 955)"
dx="0,1.2" 
class="s2_361"
>| </text>

<text 
transform="matrix(0, -1, 1, 0, 34, 938)"
dx="0,-0.3,0.9,0.9,1.2,1.2,1.2,1.2" 
class="s2_361"
>Textbook</text>

<text 
transform="matrix(0, -1, 1, 0, 34, 1129)"
dx="0,1.2,1.2,1,1.2,1.2,1.2,1.2,1,1.2,1.2,1.2,1.2,1.2,1.2,1.2,1.2,1.2,1.2,1.2,1.2" 
class="s2_361"
>Integrated Chinese 4 </text>

<text 
transform="matrix(0, -1, 1, 0, 34, 955)"
dx="0,1.2" 
class="s2_361"
>| </text>

<text 
transform="matrix(0, -1, 1, 0, 34, 938)"
dx="0,-0.3,0.9,0.9,1.2,1.2,1.2,1.2" 
class="s2_361"
>Textbook</text>

<text 
transform="matrix(0, -1, 1, 0, 34, 1129)"
dx="0,1.2,1.2,1,1.2,1.2,1.2,1.2,1,1.2,1.2,1.2,1.2,1.2,1.2,1.2,1.2,1.2,1.2,1.2,1.2" 
class="s2_361"
>Integrated Chinese 4 </text>

<text 
transform="matrix(0, -1, 1, 0, 34, 955)"
dx="0,1.2" 
class="s2_361"
>| </text>

<text 
transform="matrix(0, -1, 1, 0, 34, 938)"
dx="0,-0.3,0.9,0.9,1.2,1.2,1.2,1.2" 
class="s2_361"
>Textbook</text>

<path d="M-12.9,1140.6l58,0l0,-1153.5l-58,0l0,1153.5Z" class="g2_361" />
<text 
x="20" 
y="1166" 
dx="0,1.2,1.2,0" 
class="s1_361"
>338 </text>

<text 
transform="matrix(0, -1, 1, 0, 34, 1129)"
dx="0,1.2,1.2,1,1.2,1.2,1.2,1.2,1,1.2,1.2,1.2,1.2,1.2,1.2,1.2,1.2,1.2,1.2,1.2,1.2" 
class="s3_361"
>Integrated Chinese 4 </text>

<text 
transform="matrix(0, -1, 1, 0, 34, 955)"
dx="0,1.2" 
class="s3_361"
>| </text>

<text 
transform="matrix(0, -1, 1, 0, 34, 938)"
dx="0,-0.3,0.9,0.9,1.2,1.2,1.2,1.2" 
class="s3_361"
>Textbook</text>

<text 
transform="matrix(0, -1, 1, 0, 34, 1129)"
dx="0,1.2,1.2,1,1.2,1.2,1.2,1.2,1,1.2,1.2,1.2,1.2,1.2,1.2,1.2,1.2,1.2,1.2,1.2,1.2" 
class="s3_361"
>Integrated Chinese 4 </text>

<text 
transform="matrix(0, -1, 1, 0, 34, 955)"
dx="0,1.2" 
class="s3_361"
>| </text>

<text 
transform="matrix(0, -1, 1, 0, 34, 938)"
dx="0,-0.3,0.9,0.9,1.2,1.2,1.2,1.2" 
class="s3_361"
>Textbook</text>

<text 
transform="matrix(0, -1, 1, 0, 34, 1129)"
dx="0,1.2,1.2,1,1.2,1.2,1.2,1.2,1,1.2,1.2,1.2,1.2,1.2,1.2,1.2,1.2,1.2,1.2,1.2,1.2" 
class="s3_361"
>Integrated Chinese 4 </text>

<text 
transform="matrix(0, -1, 1, 0, 34, 955)"
dx="0,1.2" 
class="s3_361"
>| </text>

<text 
transform="matrix(0, -1, 1, 0, 34, 938)"
dx="0,-0.3,0.9,0.9,1.2,1.2,1.2,1.2" 
class="s3_361"
>Textbook</text>

<path d="M55,146l179.1,0l0,41.2L55,187.2L55,146Zm179.1,0l177.6,0l0,41.2l-177.6,0l0,-41.2Zm177.6,0l135.2,0l0,41.2l-135.2,0l0,-41.2Zm135.2,0l66.5,0l0,41.2l-66.5,0l0,-41.2Zm66.5,0l188.7,0l0,41.2l-188.7,0l0,-41.2Zm188.7,0l64.2,0l0,41.2l-64.2,0l0,-41.2ZM55,231.5l179.1,0l0,43.5L55,275l0,-43.5Zm179.1,0l177.6,0l0,43.5l-177.6,0l0,-43.5Zm177.6,0l135.2,0l0,43.5l-135.2,0l0,-43.5Zm135.2,0l66.5,0l0,43.5l-66.5,0l0,-43.5Zm66.5,0l188.7,0l0,43.5l-188.7,0l0,-43.5Zm188.7,0l64.2,0l0,43.5l-64.2,0l0,-43.5ZM55,317l179.1,0l0,44.3L55,361.3L55,317Zm179.1,0l177.6,0l0,44.3l-177.6,0l0,-44.3Zm177.6,0l135.2,0l0,44.3l-135.2,0l0,-44.3Zm135.2,0l66.5,0l0,44.3l-66.5,0l0,-44.3Zm66.5,0l188.7,0l0,44.3l-188.7,0l0,-44.3Zm188.7,0l64.2,0l0,44.3l-64.2,0l0,-44.3ZM55,405.6l179.1,0l0,45.4L55,451l0,-45.4Zm179.1,0l177.6,0l0,45.4l-177.6,0l0,-45.4Zm177.6,0l135.2,0l0,45.4l-135.2,0l0,-45.4Zm135.2,0l66.5,0l0,45.4l-66.5,0l0,-45.4Zm66.5,0l188.7,0l0,45.4l-188.7,0l0,-45.4Zm188.7,0l64.2,0l0,45.4l-64.2,0l0,-45.4ZM55,491.2l179.1,0l0,45.3L55,536.5l0,-45.3Zm179.1,0l177.6,0l0,45.3l-177.6,0l0,-45.3Zm177.6,0l135.2,0l0,45.3l-135.2,0l0,-45.3Zm135.2,0l66.5,0l0,45.3l-66.5,0l0,-45.3Zm66.5,0l188.7,0l0,45.3l-188.7,0l0,-45.3Zm188.7,0l64.2,0l0,45.3l-64.2,0l0,-45.3ZM55,601.8l179.1,0l0,44.3L55,646.1l0,-44.3Zm179.1,0l177.6,0l0,44.3l-177.6,0l0,-44.3Zm177.6,0l135.2,0l0,44.3l-135.2,0l0,-44.3Zm135.2,0l66.5,0l0,44.3l-66.5,0l0,-44.3Zm66.5,0l188.7,0l0,44.3l-188.7,0l0,-44.3Zm188.7,0l64.2,0l0,44.3l-64.2,0l0,-44.3ZM55,690.4l179.1,0l0,44.3L55,734.7l0,-44.3Zm179.1,0l177.6,0l0,44.3l-177.6,0l0,-44.3Zm177.6,0l135.2,0l0,44.3l-135.2,0l0,-44.3Zm135.2,0l66.5,0l0,44.3l-66.5,0l0,-44.3Zm66.5,0l188.7,0l0,44.3l-188.7,0l0,-44.3Zm188.7,0l64.2,0l0,44.3l-64.2,0l0,-44.3ZM55,780.1l179.1,0l0,45.3L55,825.4l0,-45.3Zm179.1,0l177.6,0l0,45.3l-177.6,0l0,-45.3Zm177.6,0l135.2,0l0,45.3l-135.2,0l0,-45.3Zm135.2,0l66.5,0l0,45.3l-66.5,0l0,-45.3Zm66.5,0l188.7,0l0,45.3l-188.7,0l0,-45.3Zm188.7,0l64.2,0l0,45.3l-64.2,0l0,-45.3ZM55,890.6l179.1,0l0,44.4L55,935l0,-44.4Zm179.1,0l177.6,0l0,44.4l-177.6,0l0,-44.4Zm177.6,0l135.2,0l0,44.4l-135.2,0l0,-44.4Zm135.2,0l66.5,0l0,44.4l-66.5,0l0,-44.4Zm66.5,0l188.7,0l0,44.4l-188.7,0l0,-44.4Zm188.7,0l64.2,0l0,44.4l-64.2,0l0,-44.4ZM55,979.3l179.1,0l0,44.3l-179.1,0l0,-44.3Zm179.1,0l177.6,0l0,44.3l-177.6,0l0,-44.3Zm177.6,0l135.2,0l0,44.3l-135.2,0l0,-44.3Zm135.2,0l66.5,0l0,44.3l-66.5,0l0,-44.3Zm66.5,0l188.7,0l0,44.3l-188.7,0l0,-44.3Zm188.7,0l64.2,0l0,44.3l-64.2,0l0,-44.3ZM55,1067.9l179.1,0l0,45.3l-179.1,0l0,-45.3Zm179.1,0l177.6,0l0,45.3l-177.6,0l0,-45.3Zm177.6,0l135.2,0l0,45.3l-135.2,0l0,-45.3Zm135.2,0l66.5,0l0,45.3l-66.5,0l0,-45.3Zm66.5,0l188.7,0l0,45.3l-188.7,0l0,-45.3Zm188.7,0l64.2,0l0,45.3l-64.2,0l0,-45.3Z" class="g3_361" />
<path d="M55,1023.6l811.3,0l0,44.3l-811.3,0l0,-44.3Z" class="g4_361" />
<path d="M55,146l179.1,0" class="g5_361" />
<path d="M234.1,146l177.6,0" class="g5_361" />
<path d="M411.7,146l135.2,0" class="g5_361" />
<path d="M546.9,146l66.5,0" class="g5_361" />
<path d="M613.4,146l188.7,0" class="g5_361" />
<path d="M802.1,146l64.2,0" class="g5_361" />
<path d="M55,187.2l179.1,0" class="g5_361" />
<path d="M234.1,187.2l177.6,0" class="g5_361" />
<path d="M411.7,187.2l135.2,0" class="g5_361" />
<path d="M546.9,187.2l66.5,0" class="g5_361" />
<path d="M613.4,187.2l188.7,0" class="g5_361" />
<path d="M802.1,187.2l64.2,0" class="g5_361" />
<path d="M55,231.5l179.1,0" class="g5_361" />
<path d="M234.1,231.5l177.6,0" class="g5_361" />
<path d="M411.7,231.5l135.2,0" class="g5_361" />
<path d="M546.9,231.5l66.5,0" class="g5_361" />
<path d="M613.4,231.5l188.7,0" class="g5_361" />
<path d="M802.1,231.5l64.2,0" class="g5_361" />
<path d="M55,275l179.1,0" class="g5_361" />
<path d="M234.1,275l177.6,0" class="g5_361" />
<path d="M411.7,275l135.2,0" class="g5_361" />
<path d="M546.9,275l66.5,0" class="g5_361" />
<path d="M613.4,275l188.7,0" class="g5_361" />
<path d="M802.1,275l64.2,0" class="g5_361" />
<path d="M55,317l179.1,0" class="g5_361" />
<path d="M234.1,317l177.6,0" class="g5_361" />
<path d="M411.7,317l135.2,0" class="g5_361" />
<path d="M546.9,317l66.5,0" class="g5_361" />
<path d="M613.4,317l188.7,0" class="g5_361" />
<path d="M802.1,317l64.2,0" class="g5_361" />
<path d="M55,361.3l179.1,0" class="g5_361" />
<path d="M234.1,361.3l177.6,0" class="g5_361" />
<path d="M411.7,361.3l135.2,0" class="g5_361" />
<path d="M546.9,361.3l66.5,0" class="g5_361" />
<path d="M613.4,361.3l188.7,0" class="g5_361" />
<path d="M802.1,361.3l64.2,0" class="g5_361" />
<path d="M55,405.6l179.1,0" class="g5_361" />
<path d="M234.1,405.6l177.6,0" class="g5_361" />
<path d="M411.7,405.6l135.2,0" class="g5_361" />
<path d="M546.9,405.6l66.5,0" class="g5_361" />
<path d="M613.4,405.6l188.7,0" class="g5_361" />
<path d="M802.1,405.6l64.2,0" class="g5_361" />
<path d="M55,451l179.1,0" class="g5_361" />
<path d="M234.1,451l177.6,0" class="g5_361" />
<path d="M411.7,451l135.2,0" class="g5_361" />
<path d="M546.9,451l66.5,0" class="g5_361" />
<path d="M613.4,451l188.7,0" class="g5_361" />
<path d="M802.1,451l64.2,0" class="g5_361" />
<path d="M55,491.2l179.1,0" class="g5_361" />
<path d="M234.1,491.2l177.6,0" class="g5_361" />
<path d="M411.7,491.2l135.2,0" class="g5_361" />
<path d="M546.9,491.2l66.5,0" class="g5_361" />
<path d="M613.4,491.2l188.7,0" class="g5_361" />
<path d="M802.1,491.2l64.2,0" class="g5_361" />
<path d="M55,536.5l179.1,0" class="g5_361" />
<path d="M234.1,536.5l177.6,0" class="g5_361" />
<path d="M411.7,536.5l135.2,0" class="g5_361" />
<path d="M546.9,536.5l66.5,0" class="g5_361" />
<path d="M613.4,536.5l188.7,0" class="g5_361" />
<path d="M802.1,536.5l64.2,0" class="g5_361" />
<path d="M55,601.8l179.1,0" class="g5_361" />
<path d="M234.1,601.8l177.6,0" class="g5_361" />
<path d="M411.7,601.8l135.2,0" class="g5_361" />
<path d="M546.9,601.8l66.5,0" class="g5_361" />
<path d="M613.4,601.8l188.7,0" class="g5_361" />
<path d="M802.1,601.8l64.2,0" class="g5_361" />
<path d="M55,646.1l179.1,0" class="g5_361" />
<path d="M234.1,646.1l177.6,0" class="g5_361" />
<path d="M411.7,646.1l135.2,0" class="g5_361" />
<path d="M546.9,646.1l66.5,0" class="g5_361" />
<path d="M613.4,646.1l188.7,0" class="g5_361" />
<path d="M802.1,646.1l64.2,0" class="g5_361" />
<path d="M55,690.4l179.1,0" class="g5_361" />
<path d="M234.1,690.4l177.6,0" class="g5_361" />
<path d="M411.7,690.4l135.2,0" class="g5_361" />
<path d="M546.9,690.4l66.5,0" class="g5_361" />
<path d="M613.4,690.4l188.7,0" class="g5_361" />
<path d="M802.1,690.4l64.2,0" class="g5_361" />
<path d="M55,734.7l179.1,0" class="g5_361" />
<path d="M234.1,734.7l177.6,0" class="g5_361" />
<path d="M411.7,734.7l135.2,0" class="g5_361" />
<path d="M546.9,734.7l66.5,0" class="g5_361" />
<path d="M613.4,734.7l188.7,0" class="g5_361" />
<path d="M802.1,734.7l64.2,0" class="g5_361" />
<path d="M55,780.1l179.1,0" class="g5_361" />
<path d="M234.1,780.1l177.6,0" class="g5_361" />
<path d="M411.7,780.1l135.2,0" class="g5_361" />
<path d="M546.9,780.1l66.5,0" class="g5_361" />
<path d="M613.4,780.1l188.7,0" class="g5_361" />
<path d="M802.1,780.1l64.2,0" class="g5_361" />
<path d="M55,825.4l179.1,0" class="g5_361" />
<path d="M234.1,825.4l177.6,0" class="g5_361" />
<path d="M411.7,825.4l135.2,0" class="g5_361" />
<path d="M546.9,825.4l66.5,0" class="g5_361" />
<path d="M613.4,825.4l188.7,0" class="g5_361" />
<path d="M802.1,825.4l64.2,0" class="g5_361" />
<path d="M55,890.6l179.1,0" class="g5_361" />
<path d="M234.1,890.6l177.6,0" class="g5_361" />
<path d="M411.7,890.6l135.2,0" class="g5_361" />
<path d="M546.9,890.6l66.5,0" class="g5_361" />
<path d="M613.4,890.6l188.7,0" class="g5_361" />
<path d="M802.1,890.6l64.2,0" class="g5_361" />
<path d="M55,935l179.1,0" class="g5_361" />
<path d="M234.1,935l177.6,0" class="g5_361" />
<path d="M411.7,935l135.2,0" class="g5_361" />
<path d="M546.9,935l66.5,0" class="g5_361" />
<path d="M613.4,935l188.7,0" class="g5_361" />
<path d="M802.1,935l64.2,0" class="g5_361" />
<path d="M55,979.3l179.1,0" class="g5_361" />
<path d="M234.1,979.3l177.6,0" class="g5_361" />
<path d="M411.7,979.3l135.2,0" class="g5_361" />
<path d="M546.9,979.3l66.5,0" class="g5_361" />
<path d="M613.4,979.3l188.7,0" class="g5_361" />
<path d="M802.1,979.3l64.2,0" class="g5_361" />
<path d="M55,1113.2l179.1,0" class="g5_361" />
<path d="M234.1,1113.2l177.6,0" class="g5_361" />
<path d="M411.7,1113.2l135.2,0" class="g5_361" />
<path d="M546.9,1113.2l66.5,0" class="g5_361" />
<path d="M613.4,1113.2l188.7,0" class="g5_361" />
<path d="M802.1,1113.2l64.2,0" class="g5_361" />
<path d="M55,101.1l179.1,0" class="g6_361" />
<path d="M234.1,101.1l177.6,0" class="g6_361" />
<path d="M411.7,101.1l135.2,0" class="g6_361" />
<path d="M546.9,101.1l66.5,0" class="g6_361" />
<path d="M613.4,101.1l188.7,0" class="g6_361" />
<path d="M802.1,101.1l64.2,0" class="g6_361" />
<path d="M55,1023.6l179.1,0" class="g7_361" />
<path d="M234.1,1023.6l177.6,0" class="g7_361" />
<path d="M411.7,1023.6l135.2,0" class="g7_361" />
<path d="M546.9,1023.6l66.5,0" class="g7_361" />
<path d="M613.4,1023.6l188.7,0" class="g7_361" />
<path d="M802.1,1023.6l64.2,0" class="g7_361" />
<path d="M55,1157.5l179.1,0" class="g7_361" />
<path d="M234.1,1157.5l177.6,0" class="g7_361" />
<path d="M411.7,1157.5l135.2,0" class="g7_361" />
<path d="M546.9,1157.5l66.5,0" class="g7_361" />
<path d="M613.4,1157.5l188.7,0" class="g7_361" />
<path d="M802.1,1157.5l64.2,0" class="g7_361" />
<path d="M55,1067.9l179.1,0" class="g8_361" />
<path d="M234.1,1067.9l177.6,0" class="g8_361" />
<path d="M411.7,1067.9l135.2,0" class="g8_361" />
<path d="M546.9,1067.9l66.5,0" class="g8_361" />
<path d="M613.4,1067.9l188.7,0" class="g8_361" />
<path d="M802.1,1067.9l64.2,0" class="g8_361" />
<text 
x="61" 
y="85" 
dx="0,0,0,0,0,0,0,0,0,0" 
class="s4_361"
>Simplified</text>

<text 
x="240" 
y="85" 
dx="0,-1.2,-0.1,0,0,0,0,0,0,0,0" 
class="s4_361"
>Traditional</text>

<text 
x="417" 
y="85" 
dx="0,0,0,0,0,0" 
class="s4_361"
>Pinyin</text>

<text 
x="553" 
y="75" 
dx="0,0,0,0,0,0,-0.2,0" 
class="s4_361"
>Part of </text>

<text 
x="553" 
y="94" 
dx="0,0,0,0,0,0" 
class="s4_361"
>Speech</text>

<text 
x="619" 
y="85" 
dx="0,0,0,0,0,0,0" 
class="s4_361"
>English</text>

<text 
x="808" 
y="85" 
dx="0,0,0,0,0,0" 
class="s4_361"
>Lesson</text>

<text 
x="61" 
y="132" 
dx="0,0" 
class="s5_361"
>地位</text>

<text 
x="240" 
y="132" 
dx="0,0" 
class="s6_361"
>地位</text>

<text 
x="417" 
y="130" 
dx="0,0.2,0.2,0.2,0.2" 
class="s7_361"
>dìwèi</text>

<text 
x="553" 
y="130" 
dx="0" 
class="s8_361"
>n</text>

<text 
x="619" 
y="130" 
dx="0,0,0,0,0,0,0,0,0,0,0,0,0,0,0,0" 
class="s9_361"
>position, status</text>

<text 
x="808" 
y="130" 
dx="0,0" 
class="s10_361"
>15</text>

<text 
x="61" 
y="175" 
dx="0,0" 
class="s5_361"
>地形</text>

<text 
x="240" 
y="175" 
dx="0,0" 
class="s6_361"
>地形</text>

<text 
x="417" 
y="173" 
dx="0,0.2,0.2,0.2,0.2,0.2" 
class="s7_361"
>dìxíng</text>

<text 
x="553" 
y="173" 
dx="0" 
class="s8_361"
>n</text>

<text 
x="619" 
y="173" 
dx="0,-0.2,0,0,0,0,0,0,0,0,-0.2,0,0,0,0,0,0,0,0" 
class="s9_361"
>terrain, topography</text>

<text 
x="808" 
y="173" 
dx="0,0" 
class="s10_361"
>10</text>

<text 
x="61" 
y="218" 
dx="0,0" 
class="s5_361"
>电池</text>

<text 
x="240" 
y="218" 
dx="0,0" 
class="s6_361"
>電池</text>

<text 
x="417" 
y="215" 
dx="0,0.2,0.2,0.2,0.2,0.2,0.2,0" 
class="s7_361"
>diànchí </text>

<text 
x="553" 
y="216" 
dx="0" 
class="s8_361"
>n</text>

<text 
x="619" 
y="215" 
dx="0,0,0,0,-0.2,0,0,0" 
class="s11_361"
>battery </text>

<text 
x="808" 
y="216" 
dx="0,0" 
class="s10_361"
>20</text>

<text 
x="61" 
y="262" 
dx="0,0,0" 
class="s5_361"
>电视剧</text>

<text 
x="240" 
y="262" 
dx="0,0,0" 
class="s6_361"
>電視劇</text>

<text 
x="417" 
y="259" 
dx="0,0.2,0.2,0.2,0.2,0.2,0.2,0.2,0.2" 
class="s7_361"
>diànshìjù</text>

<text 
x="553" 
y="260" 
dx="0" 
class="s8_361"
>n</text>

<text 
x="619" 
y="259" 
dx="0,0,0,0,0,0,0,0,0,0,0,0,0,0,0,0,0,0,0" 
class="s9_361"
>TV drama, TV series</text>

<text 
x="808" 
y="260" 
dx="0,0" 
class="s10_361"
>20</text>

<text 
x="61" 
y="304" 
dx="0,0,0" 
class="s5_361"
>电影院</text>

<text 
x="240" 
y="304" 
dx="0,0,0" 
class="s6_361"
>電影院</text>

<text 
x="417" 
y="302" 
dx="0,0.2,0.2,0.2,0.2,0.2,0.2,0.2,0.2,0.2,0.2,0.2" 
class="s7_361"
>diànyǐngyuàn</text>

<text 
x="553" 
y="303" 
dx="0" 
class="s8_361"
>n</text>

<text 
x="619" 
y="302" 
dx="0,0,-0.3,0,0,0,0,0,0,0,0,-0.2,0" 
class="s9_361"
>movie theater</text>

<text 
x="808" 
y="303" 
dx="0" 
class="s10_361"
>6</text>

<text 
x="61" 
y="347" 
dx="0" 
class="s5_361"
>跌</text>

<text 
x="240" 
y="347" 
dx="0" 
class="s6_361"
>跌</text>

<text 
x="417" 
y="345" 
dx="0,0.2,0.2" 
class="s7_361"
>diē</text>

<text 
x="553" 
y="346" 
dx="0" 
class="s8_361"
>v</text>

<text 
x="619" 
y="345" 
dx="0,-0.2,0,0,0,0,0" 
class="s9_361"
>to fall</text>

<text 
x="808" 
y="346" 
dx="0,0" 
class="s10_361"
>17</text>

<text 
x="61" 
y="392" 
dx="0,0,0,0" 
class="s5_361"
>丢三拉四</text>

<text 
x="240" 
y="392" 
dx="0,0,0,0" 
class="s6_361"
>丟三拉四</text>

<text 
x="417" 
y="389" 
dx="0,0.2,0.2,0.2,0.2,0.2,0.2,0.2,0.2,0.2,0.2,0.2,0.2" 
class="s7_361"
>diū sān là sì</text>

<text 
x="619" 
y="390" 
dx="0,0,0,0,0,-0.2,0,0,0,0,0,0,0,0,0,0,0,-0.3,0,0,-0.1,0,0,0,0" 
class="s9_361"
>scatterbrained, forgetful</text>

<text 
x="808" 
y="390" 
dx="0" 
class="s10_361"
>6</text>

<text 
x="61" 
y="437" 
dx="0" 
class="s5_361"
>栋</text>

<text 
x="240" 
y="437" 
dx="0" 
class="s6_361"
>棟</text>

<text 
x="417" 
y="434" 
dx="0,0.2,0.2,0.2" 
class="s7_361"
>dòng</text>

<text 
x="553" 
y="435" 
dx="0" 
class="s8_361"
>m</text>

<text 
x="619" 
y="425" 
dx="0,0,0,0,0,0,0,-0.2,0,0,0,0,-0.2,0" 
class="s9_361"
>(measure word </text>

<text 
x="619" 
y="444" 
dx="0,-0.3,0,0,0,0,0,0,0,0,0,0,0,0" 
class="s9_361"
>for buildings)</text>

<text 
x="808" 
y="435" 
dx="0" 
class="s10_361"
>2</text>

<text 
x="61" 
y="479" 
dx="0,0" 
class="s5_361"
>动作</text>

<text 
x="240" 
y="479" 
dx="0,0" 
class="s6_361"
>動作</text>

<text 
x="417" 
y="477" 
dx="0,0.2,0.2,0.2,0.2,0.2,0.2" 
class="s7_361"
>dòngzuò</text>

<text 
x="553" 
y="478" 
dx="0" 
class="s8_361"
>n</text>

<text 
x="619" 
y="477" 
dx="0,0,-0.3,-0.4,0,0,0,0,0,0,0,0,0,0,0,0" 
class="s9_361"
>movement, action</text>

<text 
x="808" 
y="478" 
dx="0,0" 
class="s10_361"
>14</text>

<text 
x="61" 
y="522" 
dx="0,0" 
class="s5_361"
>读书</text>

<text 
x="240" 
y="522" 
dx="0,0" 
class="s6_361"
>讀書</text>

<text 
x="417" 
y="520" 
dx="0,0.2,0.2,0.2,0.2,0.2" 
class="s7_361"
>dú shū</text>

<text 
x="553" 
y="520" 
dx="0,-0.4" 
class="s8_361"
>vo</text>

<text 
x="619" 
y="510" 
dx="0,-0.2,0,0,0,0,-0.2,0,0,0,0,0,0,0,0,0,0,0,0,-0.2,0,0,0,0,0,0,-0.9,0" 
class="s9_361"
>to attend school, to study, </text>

<text 
x="619" 
y="530" 
dx="0,-0.2,0,0,-0.2,0,0,0,0,0,0,0,0" 
class="s9_361"
>to read aloud</text>

<text 
x="808" 
y="520" 
dx="0" 
class="s10_361"
>8</text>

<text 
x="61" 
y="577" 
dx="0" 
class="s5_361"
>度</text>

<text 
x="240" 
y="577" 
dx="0" 
class="s6_361"
>度</text>

<text 
x="417" 
y="575" 
dx="0,0.2" 
class="s7_361"
>dù</text>

<text 
x="553" 
y="576" 
dx="0" 
class="s8_361"
>m</text>

<text 
x="619" 
y="555" 
dx="0,0,0,0,0,0,0,-0.2,0,0,0,0,-0.2,0,0,-0.3,0,0,0,0,0,0,-0.2,0,0,0" 
class="s9_361"
>(measure word for degrees </text>

<text 
x="619" 
y="575" 
dx="0,-0.2,0,0,-0.2,0,0,0,0,0,0,0,0,-0.2,0,0,0,0,0,0,0,0" 
class="s9_361"
>of temperature, heat, </text>

<text 
x="619" 
y="595" 
dx="0,0,0,-0.2,0,0,0,0,0,0,0,0,0,0,0,0,0,0,-0.9,0,0,0,-0.2,0,0" 
class="s9_361"
>hardness, humidity, etc.)</text>

<text 
x="808" 
y="576" 
dx="0,0" 
class="s10_361"
>16</text>

<text 
x="61" 
y="632" 
dx="0,0,0" 
class="s5_361"
>端午节</text>

<text 
x="240" 
y="632" 
dx="0,0,0" 
class="s6_361"
>端午節</text>

<text 
x="417" 
y="630" 
dx="0,0.2,0.2,0.2,0.2,0.2,0.2,0.2,0.2" 
class="s7_361"
>Duānwǔjié</text>

<text 
x="553" 
y="630" 
dx="0,0" 
class="s8_361"
>pn</text>

<text 
x="619" 
y="630" 
dx="0,0,0,0,-0.1,0,0,0,0,0,0,0,0,-1,0,0,0,0,0,0" 
class="s9_361"
>Dragon Boat Festival</text>

<text 
x="808" 
y="630" 
dx="0,0" 
class="s10_361"
>11</text>

<text 
x="61" 
y="677" 
dx="0" 
class="s5_361"
>短</text>

<text 
x="240" 
y="677" 
dx="0" 
class="s6_361"
>短</text>

<text 
x="417" 
y="674" 
dx="0,0.2,0.2,0.2" 
class="s7_361"
>duǎn</text>

<text 
x="553" 
y="675" 
dx="0,0,0" 
class="s8_361"
>adj</text>

<text 
x="619" 
y="674" 
dx="0,0,0,0,0" 
class="s9_361"
>short</text>

<text 
x="808" 
y="675" 
dx="0,0" 
class="s10_361"
>10</text>

<text 
x="61" 
y="721" 
dx="0,0" 
class="s5_361"
>短期</text>

<text 
x="240" 
y="721" 
dx="0,0" 
class="s6_361"
>短期</text>

<text 
x="417" 
y="719" 
dx="0,0.2,0.2,0.2,0.2,0.2" 
class="s7_361"
>duǎnqī</text>

<text 
x="553" 
y="719" 
dx="0" 
class="s8_361"
>n</text>

<text 
x="619" 
y="719" 
dx="0,0,0,0,0,0,0,-0.2,0,0" 
class="s9_361"
>short term</text>

<text 
x="808" 
y="719" 
dx="0,0" 
class="s10_361"
>19</text>

<text 
x="61" 
y="766" 
dx="0" 
class="s5_361"
>段</text>

<text 
x="240" 
y="766" 
dx="0" 
class="s6_361"
>段</text>

<text 
x="417" 
y="763" 
dx="0,0.2,0.2,0.2" 
class="s7_361"
>duàn</text>

<text 
x="553" 
y="764" 
dx="0" 
class="s8_361"
>m</text>

<text 
x="619" 
y="754" 
dx="0,0,0,0,0,0,0,-0.2,0,0,0,0,-0.2,0,0,-0.3,0,0,0,0,0,0,0,0,0,0,0" 
class="s9_361"
>(measure word for section, </text>

<text 
x="619" 
y="773" 
dx="0,0,0,0,0,0,0,0,0,0,0,0,0,0,0,0,0" 
class="s9_361"
>segment, or part)</text>

<text 
x="808" 
y="764" 
dx="0,0" 
class="s10_361"
>16</text>

<text 
x="61" 
y="811" 
dx="0,0" 
class="s5_361"
>锻炼</text>

<text 
x="240" 
y="811" 
dx="0,0" 
class="s6_361"
>鍛煉</text>

<text 
x="417" 
y="809" 
dx="0,0.2,0.2,0.2,0.2,0.2,0.2,0.2" 
class="s7_361"
>duànliàn</text>

<text 
x="553" 
y="809" 
dx="0" 
class="s8_361"
>v</text>

<text 
x="619" 
y="799" 
dx="0,-0.2,0,0,-0.2,-0.3,0,-0.2,0,0,0,0,0,0,-0.2,0,0,0,0,0,0,0,0,0,0,0,0,-0.2,0" 
class="s9_361"
>to exercise, to work out, to </text>

<text 
x="619" 
y="819" 
dx="0,0,0,0,0,0,-0.1,0,0,0,0,0,0,0,0,0,0,0,0,0,0,0,0,0,0" 
class="s9_361"
>undergo physical training</text>

<text 
x="808" 
y="809" 
dx="0,0" 
class="s10_361"
>14</text>

<text 
x="61" 
y="866" 
dx="0" 
class="s5_361"
>队</text>

<text 
x="240" 
y="866" 
dx="0" 
class="s6_361"
>隊</text>

<text 
x="417" 
y="864" 
dx="0,0.2,0.2" 
class="s7_361"
>duì</text>

<text 
x="553" 
y="865" 
dx="0" 
class="s8_361"
>n</text>

<text 
x="619" 
y="844" 
dx="0,-0.2,0,0,0,0,0,0,0,-0.2,0,0,0,0,0,0,0,0,0,0,0,-0.2,0" 
class="s9_361"
>team, a row or line of </text>

<text 
x="619" 
y="864" 
dx="0,0,0,0,0,0,0,0,0,0,0,0,0,0,0,-0.2,0,0,0,0,-0.2,0,0,-0.3,0,0" 
class="s9_361"
>people, (measure word for </text>

<text 
x="619" 
y="884" 
dx="0,-0.2,0,0,0,0,0,0,0,0,0,0,0,0,0,0" 
class="s9_361"
>teams and lines)</text>

<text 
x="808" 
y="865" 
dx="0,0" 
class="s10_361"
>15</text>

<text 
x="61" 
y="921" 
dx="0,0" 
class="s5_361"
>队员</text>

<text 
x="240" 
y="921" 
dx="0,0" 
class="s6_361"
>隊員</text>

<text 
x="417" 
y="919" 
dx="0,0.2,0.2,0.2,0.2,0.2,0.2" 
class="s7_361"
>duìyuán</text>

<text 
x="553" 
y="919" 
dx="0" 
class="s8_361"
>n</text>

<text 
x="619" 
y="919" 
dx="0,-0.2,0,0,0,0,0,0,0,0,0" 
class="s9_361"
>team member</text>

<text 
x="808" 
y="919" 
dx="0,0" 
class="s10_361"
>15</text>

<text 
x="61" 
y="965" 
dx="0,0" 
class="s5_361"
>对面</text>

<text 
x="240" 
y="965" 
dx="0,0" 
class="s6_361"
>對面</text>

<text 
x="417" 
y="963" 
dx="0,0.2,0.2,0.2,0.2,0.2,0.2" 
class="s7_361"
>duìmiàn</text>

<text 
x="553" 
y="964" 
dx="0" 
class="s8_361"
>n</text>

<text 
x="619" 
y="963" 
dx="0,0,0,0,0,0,0,-0.2,0,0,0,0,0" 
class="s9_361"
>opposite side</text>

<text 
x="808" 
y="964" 
dx="0,0" 
class="s10_361"
>12</text>

<text 
x="61" 
y="1010" 
dx="0" 
class="s5_361"
>顿</text>

<text 
x="240" 
y="1010" 
dx="0" 
class="s6_361"
>頓</text>

<text 
x="417" 
y="1007" 
dx="0,0.2,0.2" 
class="s7_361"
>dùn</text>

<text 
x="553" 
y="1008" 
dx="0" 
class="s8_361"
>m</text>

<text 
x="619" 
y="1008" 
dx="0,0,0,0,0,0,0,-0.2,0,0,0,0,-0.2,0,0,-0.3,0,0,0,0,0,0,0,0" 
class="s9_361"
>(measure word for meals)</text>

<text 
x="808" 
y="1008" 
dx="0,0" 
class="s10_361"
>13</text>

<text 
x="454" 
y="1055" 
dx="0" 
class="s12_361"
>E</text>

<text 
x="61" 
y="1099" 
dx="0" 
class="s5_361"
>而</text>

<text 
x="240" 
y="1099" 
dx="0" 
class="s6_361"
>而</text>

<text 
x="417" 
y="1097" 
dx="0,0.2" 
class="s7_361"
>ér</text>

<text 
x="553" 
y="1097" 
dx="0,0,0,0" 
class="s8_361"
>conj</text>

<text 
x="619" 
y="1087" 
dx="0,0,0,0,0,0,0,0,0,0,0,0,0,0,-0.2,0,0,0,0,0,0,0,0,0" 
class="s9_361"
>(conjunction to connect </text>

<text 
x="619" 
y="1107" 
dx="0,0,0,0,0,0,0,0,0,0,0,0" 
class="s9_361"
>two clauses)</text>

<text 
x="808" 
y="1097" 
dx="0,0" 
class="s10_361"
>10</text>

<text 
x="61" 
y="1144" 
dx="0,0" 
class="s5_361"
>而已</text>

<text 
x="240" 
y="1144" 
dx="0,0" 
class="s6_361"
>而已</text>

<text 
x="417" 
y="1141" 
dx="0,0.2,0.2,0.2" 
class="s7_361"
>éryǐ</text>

<text 
x="553" 
y="1142" 
dx="0" 
class="s8_361"
>p</text>

<text 
x="619" 
y="1142" 
dx="0,0,0,0,0,0,0,0,0,0,-0.2" 
class="s9_361"
>and no more</text>

<text 
x="808" 
y="1142" 
dx="0,0" 
class="s10_361"
>20</text>



<!-- Any embedded fonts defined here -->
<style type="text/css" ><![CDATA[

@font-face {
	font-family: LibreFranklin-SemiBold_di3;
	src: url("fonts/LibreFranklin-SemiBold_di3.woff") format("woff");
}

@font-face {
	font-family: GentiumBookBasic-Italic_chu;
	src: url("fonts/GentiumBookBasic-Italic_chu.woff") format("woff");
}

@font-face {
	font-family: LibreFranklin-Light_dim;
	src: url("fonts/LibreFranklin-Light_dim.woff") format("woff");
}

@font-face {
	font-family: LibreFranklin-Light_dib;
	src: url("fonts/LibreFranklin-Light_dib.woff") format("woff");
}

@font-face {
	font-family: LibreFranklin-SemiBold_dig;
	src: url("fonts/LibreFranklin-SemiBold_dig.woff") format("woff");
}

@font-face {
	font-family: STKaiTi-TC-Regular_cev;
	src: url("fonts/STKaiTi-TC-Regular_cev.woff") format("woff");
}

@font-face {
	font-family: LibreFranklin-Regular_di7;
	src: url("fonts/LibreFranklin-Regular_di7.woff") format("woff");
}

@font-face {
	font-family: LibreFranklin-Medium_dhv;
	src: url("fonts/LibreFranklin-Medium_dhv.woff") format("woff");
}

@font-face {
	font-family: STKaiti-SC-Regular_cf1;
	src: url("fonts/STKaiti-SC-Regular_cf1.woff") format("woff");
}

@font-face {
	font-family: LibreFranklin-SemiBold_cg0;
	src: url("fonts/LibreFranklin-SemiBold_cg0.woff") format("woff");
}

]]></style>

</svg>
