<?xml version="1.0" encoding="UTF-8" standalone="no"?>
<!DOCTYPE svg PUBLIC "-//W3C//DTD SVG 1.1//EN"
"http://www.w3.org/Graphics/SVG/1.1/DTD/svg11.dtd">


<!-- Page 411 -->
<svg x="0" y="0" width="921" height="1196" viewBox="0 0 921 1196" version="1.1" xmlns="http://www.w3.org/2000/svg" xmlns:xlink="http://www.w3.org/1999/xlink"
style="display: block;margin-left: auto;margin-right: auto;">
<defs>

<style type="text/css"><![CDATA[

.g1_411{
fill: #DC262E;
stroke: #B2B3B7;
stroke-width: 1.5277778;
stroke-linecap: butt;
stroke-linejoin: miter;
stroke-miterlimit: 4;
}
.g2_411{
fill: #57585A;
stroke: #B2B3B7;
stroke-width: 1.5277778;
stroke-linecap: butt;
stroke-linejoin: miter;
stroke-miterlimit: 4;
}
.g3_411{
fill: #F0F1F2;
}
.g4_411{
fill: #BDBEC1;
}
.g5_411{
fill: none;
stroke: #BDBEC1;
stroke-width: 0.38194445;
stroke-linecap: butt;
stroke-linejoin: miter;
}
.g6_411{
fill: none;
stroke: #DADBDD;
stroke-width: 1.5277778;
stroke-linecap: butt;
stroke-linejoin: miter;
}
.g7_411{
fill: none;
stroke: #DADBDD;
stroke-width: 0.38194445;
stroke-linecap: butt;
stroke-linejoin: miter;
}
.g8_411{
fill: none;
stroke: #EAEBEC;
stroke-width: 0.38194445;
stroke-linecap: butt;
stroke-linejoin: miter;
}

.s1_411{
font-size: 13.75px;
font-family: LibreFranklin-Medium_dhv;
fill: #231F20;
}
.s2_411{
font-size: 13.75px;
font-family: LibreFranklin-SemiBold_dig;
fill: #FFFFFF;
}
.s3_411{
font-size: 13.75px;
font-family: LibreFranklin-SemiBold_cg0;
fill: #FFFFFF;
}
.s4_411{
font-size: 14.51px;
font-family: LibreFranklin-SemiBold_di3;
fill: #57585A;
}
.s5_411{
font-size: 13.75px;
font-family: LibreFranklin-Light_dib;
fill: #3F3F40;
}
.s6_411{
font-size: 24.44px;
font-family: STKaiti-SC-Regular_cf1;
fill: #57585A;
}
.s7_411{
font-size: 24.44px;
font-family: STKaiTi-TC-Regular_cev;
fill: #57585A;
}
.s8_411{
font-size: 14.90px;
font-family: GentiumBookBasic-Italic_chu;
fill: #3F3F40;
}
.s9_411{
font-size: 14.51px;
font-family: LibreFranklin-Regular_di7;
fill: #3F3F40;
}
.s10_411{
font-size: 14.51px;
font-family: LibreFranklin-SemiBold_di3;
fill: #77787B;
}
.s11_411{
font-size: 19.86px;
font-family: LibreFranklin-SemiBold_di3;
fill: #3F3F40;
}

]]></style>

</defs>
<path d="M0,0
L0,1196
L921,1196
L921,0 Z " 
fill="#FFFFFF" stroke="none" />
<path d="M-12.9,1140.6l58,0l0,-1153.5l-58,0l0,1153.5Z" class="g1_411" />
<text 
x="20" 
y="1166" 
dx="0,1.2,1.2,0" 
class="s1_411"
>388 </text>

<text 
transform="matrix(0, -1, 1, 0, 34, 1129)"
dx="0,1.2,1.2,1,1.2,1.2,1.2,1.2,1,1.2,1.2,1.2,1.2,1.2,1.2,1.2,1.2,1.2,1.2,1.2,1.2" 
class="s2_411"
>Integrated Chinese 4 </text>

<text 
transform="matrix(0, -1, 1, 0, 34, 955)"
dx="0,1.2" 
class="s2_411"
>| </text>

<text 
transform="matrix(0, -1, 1, 0, 34, 938)"
dx="0,-0.3,0.9,0.9,1.2,1.2,1.2,1.2" 
class="s2_411"
>Textbook</text>

<text 
transform="matrix(0, -1, 1, 0, 34, 1129)"
dx="0,1.2,1.2,1,1.2,1.2,1.2,1.2,1,1.2,1.2,1.2,1.2,1.2,1.2,1.2,1.2,1.2,1.2,1.2,1.2" 
class="s2_411"
>Integrated Chinese 4 </text>

<text 
transform="matrix(0, -1, 1, 0, 34, 955)"
dx="0,1.2" 
class="s2_411"
>| </text>

<text 
transform="matrix(0, -1, 1, 0, 34, 938)"
dx="0,-0.3,0.9,0.9,1.2,1.2,1.2,1.2" 
class="s2_411"
>Textbook</text>

<text 
transform="matrix(0, -1, 1, 0, 34, 1129)"
dx="0,1.2,1.2,1,1.2,1.2,1.2,1.2,1,1.2,1.2,1.2,1.2,1.2,1.2,1.2,1.2,1.2,1.2,1.2,1.2" 
class="s2_411"
>Integrated Chinese 4 </text>

<text 
transform="matrix(0, -1, 1, 0, 34, 955)"
dx="0,1.2" 
class="s2_411"
>| </text>

<text 
transform="matrix(0, -1, 1, 0, 34, 938)"
dx="0,-0.3,0.9,0.9,1.2,1.2,1.2,1.2" 
class="s2_411"
>Textbook</text>

<path d="M-12.9,1140.6l58,0l0,-1153.5l-58,0l0,1153.5Z" class="g2_411" />
<text 
x="20" 
y="1166" 
dx="0,1.2,1.2,0" 
class="s1_411"
>388 </text>

<text 
transform="matrix(0, -1, 1, 0, 34, 1129)"
dx="0,1.2,1.2,1,1.2,1.2,1.2,1.2,1,1.2,1.2,1.2,1.2,1.2,1.2,1.2,1.2,1.2,1.2,1.2,1.2" 
class="s3_411"
>Integrated Chinese 4 </text>

<text 
transform="matrix(0, -1, 1, 0, 34, 955)"
dx="0,1.2" 
class="s3_411"
>| </text>

<text 
transform="matrix(0, -1, 1, 0, 34, 938)"
dx="0,-0.3,0.9,0.9,1.2,1.2,1.2,1.2" 
class="s3_411"
>Textbook</text>

<text 
transform="matrix(0, -1, 1, 0, 34, 1129)"
dx="0,1.2,1.2,1,1.2,1.2,1.2,1.2,1,1.2,1.2,1.2,1.2,1.2,1.2,1.2,1.2,1.2,1.2,1.2,1.2" 
class="s3_411"
>Integrated Chinese 4 </text>

<text 
transform="matrix(0, -1, 1, 0, 34, 955)"
dx="0,1.2" 
class="s3_411"
>| </text>

<text 
transform="matrix(0, -1, 1, 0, 34, 938)"
dx="0,-0.3,0.9,0.9,1.2,1.2,1.2,1.2" 
class="s3_411"
>Textbook</text>

<text 
transform="matrix(0, -1, 1, 0, 34, 1129)"
dx="0,1.2,1.2,1,1.2,1.2,1.2,1.2,1,1.2,1.2,1.2,1.2,1.2,1.2,1.2,1.2,1.2,1.2,1.2,1.2" 
class="s3_411"
>Integrated Chinese 4 </text>

<text 
transform="matrix(0, -1, 1, 0, 34, 955)"
dx="0,1.2" 
class="s3_411"
>| </text>

<text 
transform="matrix(0, -1, 1, 0, 34, 938)"
dx="0,-0.3,0.9,0.9,1.2,1.2,1.2,1.2" 
class="s3_411"
>Textbook</text>

<path d="M55,146l189.1,0l0,44.3L55,190.3L55,146Zm189.1,0l179.6,0l0,44.3l-179.6,0l0,-44.3Zm179.6,0l177.9,0l0,44.3l-177.9,0l0,-44.3Zm177.9,0l135.2,0l0,44.3l-135.2,0l0,-44.3Zm135.2,0l66.2,0l0,44.3l-66.2,0l0,-44.3Zm66.2,0l63.3,0l0,44.3l-63.3,0L803,146ZM55,255.5l189.1,0l0,44.3L55,299.8l0,-44.3Zm189.1,0l179.6,0l0,44.3l-179.6,0l0,-44.3Zm179.6,0l177.9,0l0,44.3l-177.9,0l0,-44.3Zm177.9,0l135.2,0l0,44.3l-135.2,0l0,-44.3Zm135.2,0l66.2,0l0,44.3l-66.2,0l0,-44.3Zm66.2,0l63.3,0l0,44.3l-63.3,0l0,-44.3ZM55,344.1l189.1,0l0,45.4L55,389.5l0,-45.4Zm189.1,0l179.6,0l0,45.4l-179.6,0l0,-45.4Zm179.6,0l177.9,0l0,45.4l-177.9,0l0,-45.4Zm177.9,0l135.2,0l0,45.4l-135.2,0l0,-45.4Zm135.2,0l66.2,0l0,45.4l-66.2,0l0,-45.4Zm66.2,0l63.3,0l0,45.4l-63.3,0l0,-45.4ZM55,433.8l189.1,0l0,44.3L55,478.1l0,-44.3Zm189.1,0l179.6,0l0,44.3l-179.6,0l0,-44.3Zm179.6,0l177.9,0l0,44.3l-177.9,0l0,-44.3Zm177.9,0l135.2,0l0,44.3l-135.2,0l0,-44.3Zm135.2,0l66.2,0l0,44.3l-66.2,0l0,-44.3Zm66.2,0l63.3,0l0,44.3l-63.3,0l0,-44.3ZM55,522.4l189.1,0l0,44.3L55,566.7l0,-44.3Zm189.1,0l179.6,0l0,44.3l-179.6,0l0,-44.3Zm179.6,0l177.9,0l0,44.3l-177.9,0l0,-44.3Zm177.9,0l135.2,0l0,44.3l-135.2,0l0,-44.3Zm135.2,0l66.2,0l0,44.3l-66.2,0l0,-44.3Zm66.2,0l63.3,0l0,44.3l-63.3,0l0,-44.3ZM55,611l189.1,0l0,44.3L55,655.3L55,611Zm189.1,0l179.6,0l0,44.3l-179.6,0l0,-44.3Zm179.6,0l177.9,0l0,44.3l-177.9,0l0,-44.3Zm177.9,0l135.2,0l0,44.3l-135.2,0l0,-44.3Zm135.2,0l66.2,0l0,44.3l-66.2,0l0,-44.3Zm66.2,0l63.3,0l0,44.3l-63.3,0L803,611ZM55,700.7l189.1,0l0,45.4L55,746.1l0,-45.4Zm189.1,0l179.6,0l0,45.4l-179.6,0l0,-45.4Zm179.6,0l177.9,0l0,45.4l-177.9,0l0,-45.4Zm177.9,0l135.2,0l0,45.4l-135.2,0l0,-45.4Zm135.2,0l66.2,0l0,45.4l-66.2,0l0,-45.4Zm66.2,0l63.3,0l0,45.4l-63.3,0l0,-45.4ZM55,790.4l189.1,0l0,44.3L55,834.7l0,-44.3Zm189.1,0l179.6,0l0,44.3l-179.6,0l0,-44.3Zm179.6,0l177.9,0l0,44.3l-177.9,0l0,-44.3Zm177.9,0l135.2,0l0,44.3l-135.2,0l0,-44.3Zm135.2,0l66.2,0l0,44.3l-66.2,0l0,-44.3Zm66.2,0l63.3,0l0,44.3l-63.3,0l0,-44.3ZM55,879l189.1,0l0,45.3L55,924.3L55,879Zm189.1,0l179.6,0l0,45.3l-179.6,0l0,-45.3Zm179.6,0l177.9,0l0,45.3l-177.9,0l0,-45.3Zm177.9,0l135.2,0l0,45.3l-135.2,0l0,-45.3Zm135.2,0l66.2,0l0,45.3l-66.2,0l0,-45.3Zm66.2,0l63.3,0l0,45.3l-63.3,0L803,879ZM55,968.6l189.1,0l0,44.3l-189.1,0l0,-44.3Zm189.1,0l179.6,0l0,44.3l-179.6,0l0,-44.3Zm179.6,0l177.9,0l0,44.3l-177.9,0l0,-44.3Zm177.9,0l135.2,0l0,44.3l-135.2,0l0,-44.3Zm135.2,0l66.2,0l0,44.3l-66.2,0l0,-44.3Zm66.2,0l63.3,0l0,44.3l-63.3,0l0,-44.3ZM55,1057.3l189.1,0l0,44.3l-189.1,0l0,-44.3Zm189.1,0l179.6,0l0,44.3l-179.6,0l0,-44.3Zm179.6,0l177.9,0l0,44.3l-177.9,0l0,-44.3Zm177.9,0l135.2,0l0,44.3l-135.2,0l0,-44.3Zm135.2,0l66.2,0l0,44.3l-66.2,0l0,-44.3Zm66.2,0l63.3,0l0,44.3l-63.3,0l0,-44.3Z" class="g3_411" />
<path d="M55,478.1l811.3,0l0,44.3L55,522.4l0,-44.3Z" class="g4_411" />
<path d="M55,146l189.1,0" class="g5_411" />
<path d="M244.1,146l179.6,0" class="g5_411" />
<path d="M423.7,146l177.9,0" class="g5_411" />
<path d="M601.6,146l135.2,0" class="g5_411" />
<path d="M736.8,146l66.2,0" class="g5_411" />
<path d="M803,146l63.3,0" class="g5_411" />
<path d="M55,190.3l189.1,0" class="g5_411" />
<path d="M244.1,190.3l179.6,0" class="g5_411" />
<path d="M423.7,190.3l177.9,0" class="g5_411" />
<path d="M601.6,190.3l135.2,0" class="g5_411" />
<path d="M736.8,190.3l66.2,0" class="g5_411" />
<path d="M803,190.3l63.3,0" class="g5_411" />
<path d="M55,255.5l189.1,0" class="g5_411" />
<path d="M244.1,255.5l179.6,0" class="g5_411" />
<path d="M423.7,255.5l177.9,0" class="g5_411" />
<path d="M601.6,255.5l135.2,0" class="g5_411" />
<path d="M736.8,255.5l66.2,0" class="g5_411" />
<path d="M803,255.5l63.3,0" class="g5_411" />
<path d="M55,299.8l189.1,0" class="g5_411" />
<path d="M244.1,299.8l179.6,0" class="g5_411" />
<path d="M423.7,299.8l177.9,0" class="g5_411" />
<path d="M601.6,299.8l135.2,0" class="g5_411" />
<path d="M736.8,299.8l66.2,0" class="g5_411" />
<path d="M803,299.8l63.3,0" class="g5_411" />
<path d="M55,344.1l189.1,0" class="g5_411" />
<path d="M244.1,344.1l179.6,0" class="g5_411" />
<path d="M423.7,344.1l177.9,0" class="g5_411" />
<path d="M601.6,344.1l135.2,0" class="g5_411" />
<path d="M736.8,344.1l66.2,0" class="g5_411" />
<path d="M803,344.1l63.3,0" class="g5_411" />
<path d="M55,389.5l189.1,0" class="g5_411" />
<path d="M244.1,389.5l179.6,0" class="g5_411" />
<path d="M423.7,389.5l177.9,0" class="g5_411" />
<path d="M601.6,389.5l135.2,0" class="g5_411" />
<path d="M736.8,389.5l66.2,0" class="g5_411" />
<path d="M803,389.5l63.3,0" class="g5_411" />
<path d="M55,433.8l189.1,0" class="g5_411" />
<path d="M244.1,433.8l179.6,0" class="g5_411" />
<path d="M423.7,433.8l177.9,0" class="g5_411" />
<path d="M601.6,433.8l135.2,0" class="g5_411" />
<path d="M736.8,433.8l66.2,0" class="g5_411" />
<path d="M803,433.8l63.3,0" class="g5_411" />
<path d="M55,566.7l189.1,0" class="g5_411" />
<path d="M244.1,566.7l179.6,0" class="g5_411" />
<path d="M423.7,566.7l177.9,0" class="g5_411" />
<path d="M601.6,566.7l135.2,0" class="g5_411" />
<path d="M736.8,566.7l66.2,0" class="g5_411" />
<path d="M803,566.7l63.3,0" class="g5_411" />
<path d="M55,611l189.1,0" class="g5_411" />
<path d="M244.1,611l179.6,0" class="g5_411" />
<path d="M423.7,611l177.9,0" class="g5_411" />
<path d="M601.6,611l135.2,0" class="g5_411" />
<path d="M736.8,611l66.2,0" class="g5_411" />
<path d="M803,611l63.3,0" class="g5_411" />
<path d="M55,655.3l189.1,0" class="g5_411" />
<path d="M244.1,655.3l179.6,0" class="g5_411" />
<path d="M423.7,655.3l177.9,0" class="g5_411" />
<path d="M601.6,655.3l135.2,0" class="g5_411" />
<path d="M736.8,655.3l66.2,0" class="g5_411" />
<path d="M803,655.3l63.3,0" class="g5_411" />
<path d="M55,700.7l189.1,0" class="g5_411" />
<path d="M244.1,700.7l179.6,0" class="g5_411" />
<path d="M423.7,700.7l177.9,0" class="g5_411" />
<path d="M601.6,700.7l135.2,0" class="g5_411" />
<path d="M736.8,700.7l66.2,0" class="g5_411" />
<path d="M803,700.7l63.3,0" class="g5_411" />
<path d="M55,746.1l189.1,0" class="g5_411" />
<path d="M244.1,746.1l179.6,0" class="g5_411" />
<path d="M423.7,746.1l177.9,0" class="g5_411" />
<path d="M601.6,746.1l135.2,0" class="g5_411" />
<path d="M736.8,746.1l66.2,0" class="g5_411" />
<path d="M803,746.1l63.3,0" class="g5_411" />
<path d="M55,790.4l189.1,0" class="g5_411" />
<path d="M244.1,790.4l179.6,0" class="g5_411" />
<path d="M423.7,790.4l177.9,0" class="g5_411" />
<path d="M601.6,790.4l135.2,0" class="g5_411" />
<path d="M736.8,790.4l66.2,0" class="g5_411" />
<path d="M803,790.4l63.3,0" class="g5_411" />
<path d="M55,834.7l189.1,0" class="g5_411" />
<path d="M244.1,834.7l179.6,0" class="g5_411" />
<path d="M423.7,834.7l177.9,0" class="g5_411" />
<path d="M601.6,834.7l135.2,0" class="g5_411" />
<path d="M736.8,834.7l66.2,0" class="g5_411" />
<path d="M803,834.7l63.3,0" class="g5_411" />
<path d="M55,879l189.1,0" class="g5_411" />
<path d="M244.1,879l179.6,0" class="g5_411" />
<path d="M423.7,879l177.9,0" class="g5_411" />
<path d="M601.6,879l135.2,0" class="g5_411" />
<path d="M736.8,879l66.2,0" class="g5_411" />
<path d="M803,879l63.3,0" class="g5_411" />
<path d="M55,924.3l189.1,0" class="g5_411" />
<path d="M244.1,924.3l179.6,0" class="g5_411" />
<path d="M423.7,924.3l177.9,0" class="g5_411" />
<path d="M601.6,924.3l135.2,0" class="g5_411" />
<path d="M736.8,924.3l66.2,0" class="g5_411" />
<path d="M803,924.3l63.3,0" class="g5_411" />
<path d="M55,968.6l189.1,0" class="g5_411" />
<path d="M244.1,968.6l179.6,0" class="g5_411" />
<path d="M423.7,968.6l177.9,0" class="g5_411" />
<path d="M601.6,968.6l135.2,0" class="g5_411" />
<path d="M736.8,968.6l66.2,0" class="g5_411" />
<path d="M803,968.6l63.3,0" class="g5_411" />
<path d="M55,1012.9l189.1,0" class="g5_411" />
<path d="M244.1,1012.9l179.6,0" class="g5_411" />
<path d="M423.7,1012.9l177.9,0" class="g5_411" />
<path d="M601.6,1012.9l135.2,0" class="g5_411" />
<path d="M736.8,1012.9l66.2,0" class="g5_411" />
<path d="M803,1012.9l63.3,0" class="g5_411" />
<path d="M55,1057.3l189.1,0" class="g5_411" />
<path d="M244.1,1057.3l179.6,0" class="g5_411" />
<path d="M423.7,1057.3l177.9,0" class="g5_411" />
<path d="M601.6,1057.3l135.2,0" class="g5_411" />
<path d="M736.8,1057.3l66.2,0" class="g5_411" />
<path d="M803,1057.3l63.3,0" class="g5_411" />
<path d="M55,1101.6l189.1,0" class="g5_411" />
<path d="M244.1,1101.6l179.6,0" class="g5_411" />
<path d="M423.7,1101.6l177.9,0" class="g5_411" />
<path d="M601.6,1101.6l135.2,0" class="g5_411" />
<path d="M736.8,1101.6l66.2,0" class="g5_411" />
<path d="M803,1101.6l63.3,0" class="g5_411" />
<path d="M55,101.1l189.1,0" class="g6_411" />
<path d="M244.1,101.1l179.6,0" class="g6_411" />
<path d="M423.7,101.1l177.9,0" class="g6_411" />
<path d="M601.6,101.1l135.2,0" class="g6_411" />
<path d="M736.8,101.1l66.2,0" class="g6_411" />
<path d="M803,101.1l63.3,0" class="g6_411" />
<path d="M55,478.1l189.1,0" class="g7_411" />
<path d="M244.1,478.1l179.6,0" class="g7_411" />
<path d="M423.7,478.1l177.9,0" class="g7_411" />
<path d="M601.6,478.1l135.2,0" class="g7_411" />
<path d="M736.8,478.1l66.2,0" class="g7_411" />
<path d="M803,478.1l63.3,0" class="g7_411" />
<path d="M55,522.4l189.1,0" class="g8_411" />
<path d="M244.1,522.4l179.6,0" class="g8_411" />
<path d="M423.7,522.4l177.9,0" class="g8_411" />
<path d="M601.6,522.4l135.2,0" class="g8_411" />
<path d="M736.8,522.4l66.2,0" class="g8_411" />
<path d="M803,522.4l63.3,0" class="g8_411" />
<text 
x="61" 
y="85" 
dx="0,0,0,0,0,0,0" 
class="s4_411"
>English</text>

<text 
x="250" 
y="85" 
dx="0,0,0,0,0,0,0,0,0,0" 
class="s4_411"
>Simplified</text>

<text 
x="429" 
y="85" 
dx="0,-1.2,-0.1,0,0,0,0,0,0,0,0" 
class="s4_411"
>Traditional</text>

<text 
x="607" 
y="85" 
dx="0,0,0,0,0,0" 
class="s4_411"
>Pinyin</text>

<text 
x="742" 
y="75" 
dx="0,0,0,0,0,0,-0.2,0" 
class="s4_411"
>Part of </text>

<text 
x="742" 
y="94" 
dx="0,0,0,0,0,0" 
class="s4_411"
>Speech</text>

<text 
x="809" 
y="85" 
dx="0,0,0,0,0,0" 
class="s4_411"
>Lesson</text>

<text 
x="61" 
y="130" 
dx="0,0,-0.2,0,0,0,0,0,-0.3,0,0,0" 
class="s5_411"
>order (food)</text>

<text 
x="250" 
y="132" 
dx="0,0,0,0" 
class="s6_411"
>叫（菜）</text>

<text 
x="429" 
y="132" 
dx="0,0,0,0" 
class="s7_411"
>叫（菜）</text>

<text 
x="607" 
y="130" 
dx="0,0.2,0.2,0.2,0.2,0.2,0.2,0.2,0.2,0.2" 
class="s8_411"
>jiào (cài)</text>

<text 
x="742" 
y="130" 
dx="0,0,0,0,0" 
class="s9_411"
>v (o)</text>

<text 
x="809" 
y="130" 
dx="0" 
class="s10_411"
>3</text>

<text 
x="61" 
y="174" 
dx="0,0,-0.2,0,0,0,0,0,0,0,0,0,0,0,0" 
class="s5_411"
>ordinary people</text>

<text 
x="250" 
y="176" 
dx="0,0,0" 
class="s6_411"
>老百姓</text>

<text 
x="429" 
y="176" 
dx="0,0,0" 
class="s7_411"
>老百姓</text>

<text 
x="607" 
y="174" 
dx="0,0.2,0.2,0.2,0.2,0.2,0.2,0.2,0.2,0.2" 
class="s8_411"
>lǎobǎixìng</text>

<text 
x="742" 
y="175" 
dx="0" 
class="s9_411"
>n</text>

<text 
x="809" 
y="175" 
dx="0,0" 
class="s10_411"
>12</text>

<text 
x="61" 
y="209" 
dx="0,0,-0.2,0,0,0,0,0,0,0,0,0,0,0,0,0" 
class="s5_411"
>ordinary people </text>

<text 
x="61" 
y="229" 
dx="0,0,0,0,0,0,0,0,0,0,-0.3,0,0,0,0,0,0" 
class="s5_411"
>consider food as </text>

<text 
x="61" 
y="249" 
dx="0,0,0,0,0,0,0,0,0,0,0,0,0,0,0,0,0,-0.4,0" 
class="s5_411"
>important as heaven</text>

<text 
x="250" 
y="231" 
dx="0,0,0,0,0" 
class="s6_411"
>民以食为天</text>

<text 
x="429" 
y="231" 
dx="0,0,0,0,0" 
class="s7_411"
>民以食為天</text>

<text 
x="607" 
y="229" 
dx="0,0.2,0.2,0.2,0.2,0.2,0.2,0.2,0.2,0.2,0.2,0.2,0.2,0.2,0.2,0.2,0.2,0.2,0.2" 
class="s8_411"
>mín yǐ shí wéi tiān</text>

<text 
x="809" 
y="229" 
dx="0,0" 
class="s10_411"
>12</text>

<text 
x="61" 
y="284" 
dx="0,0,0,0,0,0,0" 
class="s5_411"
>organic</text>

<text 
x="250" 
y="286" 
dx="0,0" 
class="s6_411"
>有机</text>

<text 
x="429" 
y="286" 
dx="0,0" 
class="s7_411"
>有機</text>

<text 
x="607" 
y="284" 
dx="0,0.2,0.2,0.2,0.2" 
class="s8_411"
>yǒujī</text>

<text 
x="742" 
y="284" 
dx="0,0,0" 
class="s9_411"
>adj</text>

<text 
x="809" 
y="284" 
dx="0" 
class="s10_411"
>3</text>

<text 
x="61" 
y="328" 
dx="0,0,0,0,0,-1.1,0,0,0,0,0" 
class="s5_411"
>other, else</text>

<text 
x="250" 
y="330" 
dx="0,0" 
class="s6_411"
>其他</text>

<text 
x="429" 
y="330" 
dx="0,0" 
class="s7_411"
>其他</text>

<text 
x="607" 
y="328" 
dx="0,0.2,0.2,0.2" 
class="s8_411"
>qítā</text>

<text 
x="742" 
y="328" 
dx="0,0" 
class="s9_411"
>pr</text>

<text 
x="809" 
y="328" 
dx="0" 
class="s10_411"
>5</text>

<text 
x="61" 
y="363" 
dx="0,-0.3,-0.4,0,-0.2,0,0,0,0,0,0,0,0,0,0,0,0,0,0,-0.2,0,0" 
class="s5_411"
>overcast, hidden from </text>

<text 
x="61" 
y="383" 
dx="0,0,0,0,0,0,0" 
class="s5_411"
>the sun</text>

<text 
x="250" 
y="375" 
dx="0" 
class="s6_411"
>阴</text>

<text 
x="429" 
y="375" 
dx="0" 
class="s7_411"
>陰</text>

<text 
x="607" 
y="373" 
dx="0,0.2,0.2" 
class="s8_411"
>yīn</text>

<text 
x="742" 
y="373" 
dx="0,0,0" 
class="s9_411"
>adj</text>

<text 
x="809" 
y="373" 
dx="0,0" 
class="s10_411"
>19</text>

<text 
x="61" 
y="418" 
dx="0,-0.3,-0.4,0,0,0,0,0" 
class="s5_411"
>overseas</text>

<text 
x="250" 
y="420" 
dx="0,0" 
class="s6_411"
>海外</text>

<text 
x="429" 
y="420" 
dx="0,0" 
class="s7_411"
>海外</text>

<text 
x="607" 
y="418" 
dx="0,0.2,0.2,0.2,0.2,0.2" 
class="s8_411"
>hǎiwài</text>

<text 
x="742" 
y="418" 
dx="0" 
class="s9_411"
>n</text>

<text 
x="809" 
y="418" 
dx="0,0" 
class="s10_411"
>19</text>

<text 
x="61" 
y="462" 
dx="0,0,0" 
class="s5_411"
>owe</text>

<text 
x="250" 
y="464" 
dx="0" 
class="s6_411"
>欠</text>

<text 
x="429" 
y="464" 
dx="0" 
class="s7_411"
>欠</text>

<text 
x="607" 
y="462" 
dx="0,0.2,0.2,0.2" 
class="s8_411"
>qiàn</text>

<text 
x="742" 
y="462" 
dx="0" 
class="s9_411"
>v</text>

<text 
x="809" 
y="462" 
dx="0" 
class="s10_411"
>8</text>

<text 
x="453" 
y="509" 
dx="0" 
class="s11_411"
>P</text>

<text 
x="61" 
y="551" 
dx="0,0,0,0,0,0" 
class="s5_411"
>palace</text>

<text 
x="250" 
y="553" 
dx="0,0" 
class="s6_411"
>宫殿</text>

<text 
x="429" 
y="553" 
dx="0,0,0" 
class="s7_411"
>宮殿 </text>

<text 
x="607" 
y="551" 
dx="0,0.2,0.2,0.2,0.2,0.2,0.2,0.2" 
class="s8_411"
>gōngdiàn</text>

<text 
x="742" 
y="551" 
dx="0" 
class="s9_411"
>n</text>

<text 
x="809" 
y="551" 
dx="0,0" 
class="s10_411"
>18</text>

<text 
x="61" 
y="595" 
dx="0,0,0,0,0" 
class="s5_411"
>panda</text>

<text 
x="250" 
y="597" 
dx="0,0" 
class="s6_411"
>熊猫</text>

<text 
x="429" 
y="597" 
dx="0,0" 
class="s7_411"
>熊貓</text>

<text 
x="607" 
y="595" 
dx="0,0.2,0.2,0.2,0.2,0.2,0.2,0.2" 
class="s8_411"
>xióngmāo</text>

<text 
x="742" 
y="595" 
dx="0" 
class="s9_411"
>n</text>

<text 
x="809" 
y="595" 
dx="0,0" 
class="s10_411"
>14</text>

<text 
x="61" 
y="639" 
dx="0,0,0,0,0,0,0,0,0,0,0,0,0" 
class="s5_411"
>part, section</text>

<text 
x="250" 
y="641" 
dx="0" 
class="s6_411"
>部</text>

<text 
x="429" 
y="641" 
dx="0" 
class="s7_411"
>部</text>

<text 
x="607" 
y="639" 
dx="0,0.2" 
class="s8_411"
>bù</text>

<text 
x="742" 
y="640" 
dx="0" 
class="s9_411"
>n</text>

<text 
x="809" 
y="640" 
dx="0,0" 
class="s10_411"
>10</text>

<text 
x="61" 
y="674" 
dx="0,0,0,0,0,0,0,0,0,0,-0.2,0,0,0,0,0,-0.3,0,0,0,0,0,0,0" 
class="s5_411"
>participate, take part, </text>

<text 
x="61" 
y="694" 
dx="0,0,0,-0.2,0,0" 
class="s5_411"
>attend</text>

<text 
x="250" 
y="686" 
dx="0,0" 
class="s6_411"
>参加</text>

<text 
x="429" 
y="686" 
dx="0,0" 
class="s7_411"
>參加</text>

<text 
x="607" 
y="684" 
dx="0,0.2,0.2,0.2,0.2,0.2" 
class="s8_411"
>cānjiā</text>

<text 
x="742" 
y="685" 
dx="0" 
class="s9_411"
>v</text>

<text 
x="809" 
y="685" 
dx="0,0" 
class="s10_411"
>13</text>

<text 
x="61" 
y="720" 
dx="0,0,0,0,0,0,0,0,0,0,0,0,0,0,0,0,-0.2,0,0,0,0,0,0,0,0,0,0,0" 
class="s5_411"
>(particle used to emphasize </text>

<text 
x="61" 
y="739" 
dx="0,0,0,0,0,0,-0.4,0,0,0,0,0" 
class="s5_411"
>the obvious)</text>

<text 
x="250" 
y="732" 
dx="0" 
class="s6_411"
>嘛</text>

<text 
x="429" 
y="732" 
dx="0" 
class="s7_411"
>嘛</text>

<text 
x="607" 
y="729" 
dx="0,0.2" 
class="s8_411"
>ma</text>

<text 
x="742" 
y="730" 
dx="0" 
class="s9_411"
>p</text>

<text 
x="809" 
y="730" 
dx="0,0" 
class="s10_411"
>11</text>

<text 
x="61" 
y="774" 
dx="0,0,0,0,0,0,0,-0.1,0,-1.1,0,0,-0.4,0,0,0,-0.1,0,-1.1,0,0,0,0,0,-0.4,0,0,0" 
class="s5_411"
>passenger, voyager, traveler</text>

<text 
x="250" 
y="777" 
dx="0,0" 
class="s6_411"
>旅客</text>

<text 
x="429" 
y="777" 
dx="0,0" 
class="s7_411"
>旅客</text>

<text 
x="607" 
y="774" 
dx="0,0.2,0.2,0.2" 
class="s8_411"
>lǚkè</text>

<text 
x="742" 
y="775" 
dx="0" 
class="s9_411"
>n</text>

<text 
x="809" 
y="775" 
dx="0,0" 
class="s10_411"
>13</text>

<text 
x="61" 
y="819" 
dx="0,0,0,0,-0.2,0,0,0,0,0,0" 
class="s5_411"
>paste, glue</text>

<text 
x="250" 
y="821" 
dx="0" 
class="s6_411"
>贴</text>

<text 
x="429" 
y="821" 
dx="0" 
class="s7_411"
>貼</text>

<text 
x="607" 
y="819" 
dx="0,0.2,0.2" 
class="s8_411"
>tiē</text>

<text 
x="742" 
y="819" 
dx="0" 
class="s9_411"
>v</text>

<text 
x="809" 
y="819" 
dx="0,0" 
class="s10_411"
>11</text>

<text 
x="61" 
y="863" 
dx="0,0,0,0,0,0,0,-0.2,0,0,0,0,0,0,0,-0.2,0,0,0,0,0,-0.2,0,0,0,0,0" 
class="s5_411"
>pay attention to; attention</text>

<text 
x="250" 
y="865" 
dx="0,0" 
class="s6_411"
>注意</text>

<text 
x="429" 
y="865" 
dx="0,0" 
class="s7_411"
>注意</text>

<text 
x="607" 
y="863" 
dx="0,0.2,0.2,0.2,0.2" 
class="s8_411"
>zhùyì</text>

<text 
x="742" 
y="863" 
dx="0,0,0" 
class="s9_411"
>v/n</text>

<text 
x="809" 
y="863" 
dx="0,0" 
class="s10_411"
>14</text>

<text 
x="61" 
y="898" 
dx="0,0,0,0,-0.3,0,0,0,0,0,0,0,0,0,0,0,0,0,0,-0.4,0,0,0,0,0,0" 
class="s5_411"
>performance, achievement, </text>

<text 
x="61" 
y="918" 
dx="0,-0.2,0,0,0,0,0,0,0,0,0,0,-0.2,0,0,0,0,0,0,0" 
class="s5_411"
>result, score, grade</text>

<text 
x="250" 
y="910" 
dx="0,0" 
class="s6_411"
>成绩</text>

<text 
x="429" 
y="910" 
dx="0,0" 
class="s7_411"
>成績</text>

<text 
x="607" 
y="908" 
dx="0,0.2,0.2,0.2,0.2,0.2,0.2" 
class="s8_411"
>chéngjì</text>

<text 
x="742" 
y="908" 
dx="0" 
class="s9_411"
>n</text>

<text 
x="809" 
y="908" 
dx="0,0" 
class="s10_411"
>15</text>

<text 
x="61" 
y="953" 
dx="0,0,0,0,0,0,0,0,0,0,0,0,0,0" 
class="s5_411"
>perhaps, maybe</text>

<text 
x="250" 
y="955" 
dx="0,0,0" 
class="s6_411"
>说不定</text>

<text 
x="429" 
y="955" 
dx="0,0,0" 
class="s7_411"
>說不定</text>

<text 
x="607" 
y="953" 
dx="0,0.2,0.2,0.2,0.2,0.2,0.2,0.2,0.2,0.2" 
class="s8_411"
>shuōbudìng</text>

<text 
x="742" 
y="953" 
dx="0,0,0" 
class="s9_411"
>adv</text>

<text 
x="809" 
y="953" 
dx="0" 
class="s10_411"
>6</text>

<text 
x="61" 
y="997" 
dx="0,0,0,0,0,0,0,0,-0.2,0,0,0,0,0,0,0,0,0,0,0,0,0,0,0,0,0,0,0" 
class="s5_411"
>person of ability and talent</text>

<text 
x="250" 
y="999" 
dx="0,0" 
class="s6_411"
>人材</text>

<text 
x="429" 
y="999" 
dx="0,0" 
class="s7_411"
>人材</text>

<text 
x="607" 
y="997" 
dx="0,0.2,0.2,0.2,0.2,0.2" 
class="s8_411"
>réncái</text>

<text 
x="742" 
y="997" 
dx="0" 
class="s9_411"
>v</text>

<text 
x="809" 
y="997" 
dx="0,0" 
class="s10_411"
>19</text>

<text 
x="61" 
y="1041" 
dx="0,0,0,0,0,0,0,0,0,0,0,0,0,0,0,-0.2" 
class="s5_411"
>(personal) taste</text>

<text 
x="250" 
y="1043" 
dx="0,0" 
class="s6_411"
>口味</text>

<text 
x="429" 
y="1043" 
dx="0,0" 
class="s7_411"
>口味</text>

<text 
x="607" 
y="1041" 
dx="0,0.2,0.2,0.2,0.2,0.2" 
class="s8_411"
>kǒuwèi</text>

<text 
x="742" 
y="1042" 
dx="0" 
class="s9_411"
>n</text>

<text 
x="809" 
y="1042" 
dx="0" 
class="s10_411"
>3</text>

<text 
x="61" 
y="1086" 
dx="0,0,0,0,0,0,0,0,0,0,0,0,0,0,0,0,0,0,0,0,0,-0.1" 
class="s5_411"
>persuade, advise, urge</text>

<text 
x="250" 
y="1088" 
dx="0" 
class="s6_411"
>劝</text>

<text 
x="429" 
y="1088" 
dx="0" 
class="s7_411"
>勸</text>

<text 
x="607" 
y="1085" 
dx="0,0.2,0.2,0.2" 
class="s8_411"
>quàn</text>

<text 
x="742" 
y="1086" 
dx="0" 
class="s9_411"
>v</text>

<text 
x="809" 
y="1086" 
dx="0,0" 
class="s10_411"
>17</text>



<!-- Any embedded fonts defined here -->
<style type="text/css" ><![CDATA[

@font-face {
	font-family: LibreFranklin-SemiBold_di3;
	src: url("fonts/LibreFranklin-SemiBold_di3.woff") format("woff");
}

@font-face {
	font-family: GentiumBookBasic-Italic_chu;
	src: url("fonts/GentiumBookBasic-Italic_chu.woff") format("woff");
}

@font-face {
	font-family: LibreFranklin-Light_dib;
	src: url("fonts/LibreFranklin-Light_dib.woff") format("woff");
}

@font-face {
	font-family: LibreFranklin-SemiBold_dig;
	src: url("fonts/LibreFranklin-SemiBold_dig.woff") format("woff");
}

@font-face {
	font-family: STKaiTi-TC-Regular_cev;
	src: url("fonts/STKaiTi-TC-Regular_cev.woff") format("woff");
}

@font-face {
	font-family: LibreFranklin-Regular_di7;
	src: url("fonts/LibreFranklin-Regular_di7.woff") format("woff");
}

@font-face {
	font-family: LibreFranklin-Medium_dhv;
	src: url("fonts/LibreFranklin-Medium_dhv.woff") format("woff");
}

@font-face {
	font-family: STKaiti-SC-Regular_cf1;
	src: url("fonts/STKaiti-SC-Regular_cf1.woff") format("woff");
}

@font-face {
	font-family: LibreFranklin-SemiBold_cg0;
	src: url("fonts/LibreFranklin-SemiBold_cg0.woff") format("woff");
}

]]></style>

</svg>
