<?xml version="1.0" encoding="UTF-8" standalone="no"?>
<!DOCTYPE svg PUBLIC "-//W3C//DTD SVG 1.1//EN"
"http://www.w3.org/Graphics/SVG/1.1/DTD/svg11.dtd">


<!-- Page 279 -->
<svg x="0" y="0" width="921" height="1196" viewBox="0 0 921 1196" version="1.1" xmlns="http://www.w3.org/2000/svg" xmlns:xlink="http://www.w3.org/1999/xlink"
style="display: block;margin-left: auto;margin-right: auto;">
<defs>
<clipPath id="c0_279"><path d="M287.2,712.7l0,-26.1l26.2,0l0,26.1Z" /></clipPath>
<clipPath id="c1_279"><path d="M287.2,767.4l0,-26.1l26.2,0l0,26.1Z" /></clipPath>
<clipPath id="c2_279"><path d="M287.2,860l0,-26.2l26.2,0l0,26.2Z" /></clipPath>
<clipPath id="c3_279"><path d="M287.2,913.6l0,-26.1l26.2,0l0,26.1Z" /></clipPath>
<clipPath id="c4_279"><path d="M287.2,1048.1l0,-26.2l26.2,0l0,26.2Z" /></clipPath>
<clipPath id="c5_279"><path d="M0,1196.3L0,0L921.3,0l0,1196.3Z" /></clipPath>

<style type="text/css"><![CDATA[

.g1_279{
fill: none;
stroke: #DC262E;
stroke-width: 1.5277778;
stroke-linecap: butt;
stroke-linejoin: miter;
}
.g2_279{
fill: #AF0C14;
}
.g3_279{
fill: #00AEEF;
}
.g4_279{
fill: #D1D2D4;
}
.g5_279{
fill: none;
stroke: #D1D2D4;
stroke-width: 3.0555556;
stroke-linecap: butt;
stroke-linejoin: miter;
stroke-miterlimit: 4;
}
.g6_279{
fill: none;
stroke: #F8D3C4;
stroke-width: 1.5277778;
stroke-linecap: butt;
stroke-linejoin: miter;
stroke-miterlimit: 4;
}
.g7_279{
fill: none;
stroke: #DC262E;
stroke-width: 0.6248611;
stroke-linecap: butt;
stroke-linejoin: miter;
}
.g8_279{
fill: none;
stroke: #DC262E;
stroke-width: 1.8730555;
stroke-linecap: butt;
stroke-linejoin: miter;
}
.g9_279{
fill: #DC262E;
stroke: #B2B3B7;
stroke-width: 1.5277778;
stroke-linecap: butt;
stroke-linejoin: miter;
stroke-miterlimit: 4;
}

.s1_279{
font-size: 25.97px;
font-family: STKaiti-SC-Regular_cf1;
fill: #3F3F40;
}
.s2_279{
font-size: 25.97px;
font-family: STKaiti-SC-Bold_cdn;
fill: #DE4639;
}
.s3_279{
font-size: 10.69px;
font-family: LibreFranklin-ExtraBold_dm8;
fill: #DC262E;
}
.s4_279{
font-size: 25.97px;
font-family: STKaiti-SC-Bold_cdn;
fill: #67962C;
}
.s5_279{
font-size: 16.81px;
font-family: MuseoSans-700_dmi;
fill: #DC262E;
}
.s6_279{
font-size: 12.22px;
font-family: LibreFranklin-Regular_dmj;
fill: #3F3F40;
}
.s7_279{
font-size: 15.28px;
font-family: LibreFranklin-Bold_dm9;
fill: #939598;
}
.s8_279{
font-size: 16.81px;
font-family: SourceHanSansCN-Regular_cgj;
fill: #3F3F40;
}
.s9_279{
font-size: 42.78px;
font-family: SourceHanSansCN-Normal_cgd;
fill: #3F3F40;
}
.s10_279{
font-size: 32.08px;
font-family: LibreFranklin-ExtraBold_dm8;
fill: #DC262E;
}
.s11_279{
font-size: 13.75px;
font-family: LibreFranklin-Medium_dmb;
fill: #231F20;
}
.s12_279{
font-size: 13.75px;
font-family: LibreFranklin-SemiBold_dmm;
fill: #FFFFFF;
}

]]></style>

</defs>
<path d="M0,0
L0,1196
L921,1196
L921,0 Z " 
fill="#FFFFFF" stroke="none" />
<path d="M600.4,267.2l6.1,0" class="g1_279" />
<path d="M429.1,386.4l6.6,0" class="g1_279" />
<text 
x="339" 
y="206" 
dx="0,0,0,0,0,0,0,0,0,0,0,0,0,0,0,0,0,0" 
class="s1_279"
>21世纪初以来，中国的经济有了很大的</text>

<text 
x="288" 
y="245" 
dx="0,0,0,0,0,0,0,0,0,0,0,0,0,0,0,0,0,0,0" 
class="s1_279"
>发展，不少跨国公司进入中国。这些大公司</text>

<text 
x="288" 
y="285" 
dx="0,0,0,0,0,0,0,0,0,0" 
class="s1_279"
>吸引了世界各地不少的</text>

<text 
x="548" 
y="285" 
dx="0,0" 
class="s2_279"
>人材</text>

<text 
x="600" 
y="264" 
dx="0" 
class="s3_279"
>a</text>

<text 
x="606" 
y="285" 
dx="0,0,0,0,0,0" 
class="s1_279"
>，包括一些在</text>

<text 
x="288" 
y="325" 
dx="0,0,0,0,0,0,0,0,0,0,0,0,0,0,0,0,0,0,0" 
class="s1_279"
>国外学习毕业的中国留学生。他们从海外归</text>

<text 
x="288" 
y="364" 
dx="0,0,0" 
class="s1_279"
>来，被</text>

<text 
x="366" 
y="364" 
dx="0,0" 
class="s4_279"
>叫做</text>

<text 
x="418" 
y="364" 
dx="0,0,0,0,0,0,0,0,0,0,0,0,0,0,0" 
class="s1_279"
>“海归”。有的人还开玩笑地把他</text>

<text 
x="288" 
y="404" 
dx="0,0,0,0" 
class="s1_279"
>们叫做“</text>

<text 
x="377" 
y="404" 
dx="0,0" 
class="s2_279"
>海龟</text>

<text 
x="429" 
y="383" 
dx="0" 
class="s3_279"
>b</text>

<text 
x="435" 
y="404" 
dx="0,0,0,0,0,0,0,0,0,0,0,0,0,0" 
class="s1_279"
>”。林雪梅现在就是其中的一只</text>

<text 
x="288" 
y="444" 
dx="0,0,0,0,0,0" 
class="s1_279"
>新“海龟”。</text>

<text 
x="339" 
y="497" 
dx="0,0,0,0,0,0,0,0,0,0,0,0,0,0,0,0,0" 
class="s1_279"
>雪梅回到中国以后不久，就开始上网查</text>

<text 
x="288" 
y="537" 
dx="0,0,0,0,0,0,0,0,0,0,0,0,0,0,0,0,0,0,0" 
class="s1_279"
>资料、找工作。她去过几家公司实习，但是</text>

<text 
x="288" 
y="577" 
dx="0,0,0,0,0,0,0,0,0,0,0,0,0,0,0,0,0,0,0" 
class="s1_279"
>都不太满意。昨天有一家她非常喜欢的大公</text>

<text 
x="288" 
y="617" 
dx="0,0,0,0,0,0,0,0,0,0,0,0,0,0,0,0,0,0,0" 
class="s1_279"
>司叫她今天上午去面试销售经理的工作。面</text>

<text 
x="288" 
y="656" 
dx="0,0,0,0,0,0,0,0,0,0,0,0,0,0,0,0,0,0" 
class="s1_279"
>试以后，刚回到家里就接到丽莎的电话。</text>

<text 
x="313" 
y="710" 
dx="0,0,0,0,0,0,0,0,0,0,0,0,0,0,0,0,0,0" 
class="s1_279"
>哎，“海龟”小姐，今天的面试怎么样？</text>

<text 
x="313" 
y="763" 
dx="0,0,0,0,0,0,0,0,0,0,0,0,0,0,0,0,0,0" 
class="s1_279"
>哈，开始有些紧张，出了好多汗，套装的</text>

<text 
x="313" 
y="803" 
dx="0,0,0,0,0,0,0" 
class="s1_279"
>上衣都快湿了。</text>

<text 
x="313" 
y="856" 
dx="0,0,0,0,0,0,0,0,0,0,0,-1.1,-8.3,0,0,0,0,0,0" 
class="s1_279"
>你已经不是第一次面试了，干吗那么紧张？</text>

<text 
x="313" 
y="910" 
dx="0,0,0,0,0,0,0,0,0,0,0,0,0,0,0,0,0,0" 
class="s1_279"
>给我面试的是他们公司的总经理，挺严肃</text>

<text 
x="313" 
y="950" 
dx="0,0,0,0,0,0,0,0,0,0,0,0,0,0,0,0,0,0,0" 
class="s1_279"
>的，第一句话就是：“你是不是在美国找不</text>

<text 
x="313" 
y="989" 
dx="0,0,0,0,0,0,0,0,0,0,0" 
class="s1_279"
>到工作才回中国来的？”</text>

<text 
x="313" 
y="1043" 
dx="0,0,0,0,0,0,0,0,0,0,0,0,0,-7.8,0,0,0,0,0" 
class="s1_279"
>这个总经理可真的挺吓人的！难怪你紧张。</text>

<path d="M295.3,698c-0.1,0,-0.1,0,-0.1,-0.1c0,0,0,-0.1,0.1,-0.1c0,0,0.1,0.1,0.1,0.1c0,0.1,-0.1,0.1,-0.1,0.1M295,697.5c-0.7,0.1,-1.1,0.7,-1.3,0.8c0,0,0.3,0.1,0.4,0c0.1,0,0.7,-0.7,0.7,-0.4c0,0.3,0.1,0.6,0.7,0.6c0.5,0,0.6,-0.5,0.6,-0.5c0,0,0.1,-0.2,0.5,0.4c-0.2,-0.6,-0.8,-1,-1.6,-0.9Z" class="g2_279" />
<path d="M301.2,697.7c-0.1,0,-0.1,0,-0.1,-0.1c0,0,0,-0.1,0.1,-0.1c0,0,0.1,0.1,0.1,0.1c0,0.1,0,0.1,-0.1,0.1m1.5,0.2c-0.1,-0.2,-0.4,-0.7,-1.2,-0.8c-0.6,-0.1,-0.9,0,-1.2,0.3c-0.3,0.2,-0.8,0.9,-0.8,0.9c0,0,0.3,-0.1,0.6,-0.4c0.3,-0.4,0.6,-0.4,0.6,-0.4c0,0,-0.1,0.4,0.3,0.6c0.6,0.3,0.9,-0.2,0.9,-0.2c0,0,0,-0.1,0.1,-0.1c0.2,0,0.3,0.2,0.4,0.2c0.1,0,0.4,0.1,0.3,-0.1Z" class="g2_279" />
<path d="M296.1,697c0,0,-0.6,-0.5,-1.2,-0.6c-0.6,-0.1,-0.8,0,-1.1,0.2c-0.1,0.1,-0.6,0.5,-0.8,0.8l-0.1,0.3c0,0,0.5,-0.6,0.9,-0.7c0.3,-0.1,0.6,-0.3,1.1,-0.1c0.4,0.2,0.7,0.3,0.9,0.3c0.2,0,0.3,-0.2,0.3,-0.2Z" class="g2_279" />
<path d="M299.2,696.9c0,0,0.2,-0.5,0.6,-0.7c0.4,-0.1,1.4,-0.3,2,-0.1c0.6,0.1,1.4,0.7,1.4,0.7c0,0,-1.3,-0.4,-1.7,-0.3c-0.5,0.1,-0.8,0.1,-1.2,0.3c-0.5,0.2,-1.2,0.2,-1.1,0.1Z" class="g2_279" />
<path d="M296.4,697.6c0,0,0.4,0.2,0.4,0.5c0,0.2,-0.1,1.1,-0.1,1.3c0,0.2,0.2,-1.5,-0.3,-1.8Z" class="g2_279" />
<path d="M296.2,700.7c0,0,-0.3,0.7,-0.3,1c0,0.2,0.1,0.4,0.2,0.4c0.2,0,0.5,-0.1,0.6,-0.1c0.1,0.1,0.5,0.3,0.6,0.4c0.1,0,-0.4,0,-0.5,-0.1c-0.1,-0.1,-0.1,-0.2,-0.3,-0.1c-0.3,0,-0.6,0,-0.6,-0.1c-0.1,-0.2,-0.1,-0.6,0.3,-1.4Z" class="g2_279" />
<path d="M297.8,702.1c0,0,0.1,-0.3,0.3,-0.2c0.3,0,0.7,0,0.8,0c0,0,-0.4,0.2,-0.4,0.2c0.1,0,0.7,-0.1,0.8,-0.3c0.2,-0.1,0.3,-0.6,0.3,-0.8c-0.1,-0.2,-0.2,-0.4,-0.2,-0.4c0,0,0.3,0.1,0.3,0.6c0,0.5,-0.4,0.8,-0.5,0.9c-0.2,0.1,-0.7,0.1,-0.8,0.1c-0.1,0,-0.2,-0.1,-0.3,-0.1c-0.1,0,-0.3,0,-0.3,0Z" class="g2_279" />
<path d="M301,703.9c0,0,-0.4,0.4,-0.7,0.5c-0.3,0.1,-0.4,0.1,-0.6,0.2c-0.3,0.1,-0.5,0.2,-0.9,0.2c-0.4,0.1,-0.9,0.1,-1.3,0.1c-0.4,-0.1,-0.4,-0.1,-0.6,-0.2c-0.2,-0.1,-0.2,-0.2,-0.3,-0.2c-0.2,-0.3,0,-0.6,0,-0.6c0,0,0.2,0,0.6,0c0.4,-0.1,0.8,0,1,0c0.1,0,1,-0.2,1.3,-0.2c0.3,-0.1,1,0,1.3,0c0.3,0.1,0.2,0.2,0.2,0.2m0.5,-0.3c-0.7,0,-1.7,-0.5,-2.3,-0.5c-0.7,0,-0.6,0.3,-1.2,0.2c-0.6,-0.2,-1,0,-1.4,0c-0.3,0.1,-1,0.5,-1,0.5c0,0,0.5,0.7,0.7,0.9c0.3,0.2,0.9,0.4,1.2,0.4c0.3,0,1.3,0,1.7,0c0.4,-0.1,0.9,-0.3,1.1,-0.4c0.2,0,0.1,0,-0.1,0.2c-0.2,0.1,-0.7,0.3,-1.2,0.4c-0.5,0.1,-0.7,0.1,-1.2,0.1c-0.6,-0.1,-0.7,-0.1,-1.1,-0.3c-0.4,-0.1,-0.4,-0.3,-0.5,-0.3c-0.1,0.1,0.4,0.7,0.8,0.9c0.4,0.1,0.7,0.2,0.9,0.2c0.3,0,1.2,-0.1,1.7,-0.3c0.4,-0.1,0.9,-0.7,1.2,-1c0.3,-0.3,1.2,-1,0.7,-1Z" class="g2_279" />
<g clip-path="url(#c0_279)">
<path d="M293.1,697.7c0,0,-0.1,0.8,-0.2,1.2c0,0.4,-0.1,1.2,-0.1,1.6c0,0.4,0.2,1.3,0.2,1.6c0,0.4,0.3,1.6,0.4,1.9c0.2,0.2,0.4,0.8,1,1.8c0.7,0.9,1.9,2,2.4,2.3c0.6,0.3,1.2,0.5,2.5,0.3c1.4,-0.3,2.7,-0.9,3.5,-1.6c-0.2,0.4,-1,1,-2.1,1.4c-1.2,0.4,-2.3,0.6,-3.4,0.4c-0.7,-0.2,-0.6,0,-0.7,0.5c-0.1,0.6,-0.1,1.4,-0.5,1.8c-0.3,0.4,-1.1,1.1,-1.4,1.3c-0.4,0.1,1.2,-0.9,1.4,-1.7c0.1,-0.5,-0.1,-0.9,-0.3,-1.5c-0.1,-0.5,-0.3,-0.7,-0.4,-1.2c0,-0.4,-0.6,-1,-0.6,-1c0,0,0.3,0.9,0.3,1.1c0.1,0.2,0.9,2.4,0.9,2.4c0,0,-0.9,-1.7,-0.9,-1.9c-0.1,-0.1,0.7,2.1,0.7,2.2c0.1,0.1,-0.5,-0.6,-0.6,-1c-0.1,-0.4,0.1,1.2,0.2,1.3c0.1,0.2,-0.5,-0.5,-0.5,-0.7c0,-0.2,-0.2,0.5,-0.3,1.1c-0.2,0.6,0,1.3,-0.4,1.8c-0.4,0.4,-0.9,0.4,-0.9,0.4c0,0,0.8,-1,0.9,-1.9c0,-0.9,-0.2,-2.6,-0.1,-3.3c0,-0.8,-0.6,-2.2,-0.6,-2.2c0,0,0.5,3.9,0.4,4.6c-0.2,0.7,-0.4,1.1,-0.5,1.6c-0.1,0.6,-0.4,1.5,-0.5,1.7c-0.2,0.2,-0.1,-2.5,0,-2.8c0,-0.4,0.1,0.7,0.2,0.6c0,-0.1,0,-1.7,0,-2.4c0,-0.8,-0.1,-0.8,-0.2,-1.5c0,-0.7,-0.2,-3.6,-0.2,-4c0,-0.4,0,-2.6,0,-2.6c0,0,0,5.1,-0.1,5.5c0,0.4,-0.1,2.4,-0.1,2.9c0,0.5,0,2.3,0,2.8c0,0.5,0,2.1,0,2.4c0.1,0.3,0.2,2.6,0.3,3.2c0,0.5,0.1,2.5,-0.1,2.9c-0.1,0.4,-0.1,-3.2,-0.2,-3.9c-0.1,-0.6,-0.3,-3.9,-0.2,-4.2c0,-0.3,-0.2,-1.3,-0.1,-1.7c0.1,-0.4,0,-2.2,0.1,-2.7c0,-0.4,-0.1,-1.5,0,-1.8c0.1,-0.4,0.2,-2.1,0.2,-2.5c0,-0.3,-0.1,-1.9,-0.1,-1.9c0,0,-0.6,7,-0.8,8.4c-0.1,1.4,-0.2,2.4,-0.3,3.3c-0.1,0.8,-0.3,2,-0.4,2.5c-0.1,0.5,0,2,0,2c0,0,0.1,-5.4,0.2,-6.2c0.1,-0.8,0.2,-3.7,0.4,-4.4c0.1,-0.7,0.2,-3.3,0.5,-4.1c0.3,-0.8,0,-1.4,0.2,-2.4c0.2,-1,0.4,-3,0.4,-3.2c0.1,-0.1,0.4,-1.5,0.5,-2.1c0.1,-0.6,0.5,-1.7,0.7,-2.3c0.2,-0.6,0.4,-1.2,0.6,-1.6c0.2,-0.3,-0.5,2,-0.7,2.4c-0.1,0.3,-0.3,1.3,-0.3,1.3c0,0,0.8,-1.9,1.3,-2.5c0.5,-0.5,1.4,-1.3,1.8,-1.5c0.4,-0.2,0.8,-0.4,0.8,-0.4c0,0,-1.6,0.8,-2.4,1.9c-0.7,1.2,-1.3,2.4,-1.4,2.7c-0.2,0.3,-0.4,1.6,-0.4,1.6Z" class="g2_279" />
</g>
<path d="M298.3,690.5c0,0,-0.4,0,-0.8,0.3c-0.4,0.4,-0.6,0.1,-1,0.6c-0.4,0.5,-1.1,1,-1.5,1.4c-0.5,0.4,-0.6,0.6,-0.6,0.6c0,0,1,-1.2,1.3,-1.5c0.2,-0.4,1.2,-1,1.4,-1.1c0.2,-0.2,0.5,-0.5,0.4,-0.5c0,0,-0.4,0,-0.8,0.3c-0.3,0.3,-1.3,1.2,-1.3,1.2l1.1,-1.2l-1.2,1c0,0,1,-1.1,1.7,-1.5c0.7,-0.5,0.6,-0.6,0.4,-0.5c-0.2,0,-1.4,0.9,-1.8,1.3c-0.4,0.3,0.8,-1,1.2,-1.3c0.3,-0.3,-0.7,0.3,-0.7,0.2c0.1,0,0.9,-1,1.4,-1.1c0.4,-0.1,0.8,0.1,0.9,0c0.1,0,-0.1,0.3,-0.1,0.5c0,0.2,0.1,0.9,0,1.1c-0.1,0.2,0,0.2,0,0.2Z" class="g2_279" />
<path d="M298.5,688.5c0,0,-0.9,-0.1,-1.2,0c-0.3,0.1,-1,0.6,-1.3,1c-0.3,0.3,-1.1,1.3,-1.3,1.7c-0.2,0.3,-0.5,0.5,-0.8,1.2c-0.2,0.6,-0.9,2.7,-1,3.1c-0.1,0.4,-0.2,1.6,-0.5,2c-0.2,0.3,-0.3,0.4,-0.3,0.4c0,0,0.2,-1.6,0.3,-2.2c0.2,-0.6,0.5,-2.6,0.8,-3.1c0.2,-0.4,0.8,-1.9,1,-2c0.3,-0.2,-0.4,0.8,-0.4,1.1c-0.1,0.3,0.9,-1.6,1.5,-2.1c0.6,-0.5,0.9,-0.8,1.2,-0.9c0.2,-0.1,-1.1,0.8,-1.5,1.5c-0.4,0.7,-1,1.5,-0.9,1.5c0,0,1.6,-2.5,2.8,-3.2c0.9,-0.5,1.6,0,1.6,0Z" class="g2_279" />
<g clip-path="url(#c0_279)">
<path d="M289.6,716.1c0,0,0.6,-2.3,0.7,-2.7c0.2,-0.4,0.6,-3.4,0.7,-4c0.1,-0.7,0.1,-1.4,0.2,-1.6c0,-0.1,0,-0.6,0.1,-0.9c0.1,-0.4,-0.1,-1.4,0.1,-1.7c0.2,-0.4,0.4,-1.8,0.4,-2.3c0,-0.5,0,-1.7,0.1,-2.4c0,-0.7,0.1,-1.5,0.1,-1.5c0,0,-0.2,0.9,-0.4,1.4c-0.1,0.5,-0.1,0.9,-0.2,1.5c-0.1,0.5,-0.2,0.9,-0.2,1.6c0,0.6,-0.2,0.9,-0.2,1.5c0,0.7,0,0.8,-0.1,1.4c-0.1,0.5,-0.3,1.6,-0.5,2.1c-0.1,0.5,-0.4,2.4,-0.6,3.2c-0.2,0.8,-1.2,4.2,-1.3,4.6c-0.1,0.4,0.1,1.5,0.2,1.8c0.2,0.4,0.5,0.8,0.5,0.8c0,0,-0.7,-1.4,-0.4,-2.6c0.4,-1.3,0.8,-2.8,1.1,-3.6c0.3,-0.7,0.7,-3.6,0.8,-4.2c0.2,-0.5,0.2,1,0,1.7c-0.2,0.8,-1.1,5.9,-1.1,5.9Z" class="g2_279" />
<path d="M288.3,714.6c0,-0.1,0.6,-3.4,0.7,-3.9c0,-0.5,0.3,-2.8,0.7,-3.7c0.5,-0.9,0.7,-3,0.9,-3.6c0.2,-0.6,0.4,-1.7,0.5,-2.1c0.1,-0.4,0,-1.6,0.2,-2.3c0.2,-0.7,0.1,-2.7,0.3,-3c0.1,-0.4,0.2,-1.6,0.3,-1.8c0.1,-0.2,0.8,-1.1,0.8,-1.1c0,0,-0.6,1.4,-0.7,1.6c-0.1,0.3,0.5,-0.5,0.5,-0.4c-0.1,0.1,0,1.2,-0.3,1.8c-0.3,0.6,-0.3,1.8,-0.5,2.4c-0.1,0.7,-0.1,1.5,-0.2,1.7c-0.1,0.2,-0.3,1.8,-0.4,2.1c-0.1,0.2,-0.4,2.1,-0.5,2.9c-0.2,0.8,-0.5,1.9,-0.6,2.3c-0.2,0.4,-0.6,2.1,-0.8,2.6c-0.1,0.5,-0.3,2.6,-0.5,3.3c-0.2,0.6,-0.4,1.2,-0.4,1.2Z" class="g2_279" />
</g>
<path d="M292,693.5c0,0,0.9,-2,1,-2.4c0.1,-0.5,1.3,-1.9,1.7,-2.3c0.5,-0.4,1.1,-0.5,1.1,-0.5c0,0,-1,0.7,-1.4,1c-0.4,0.3,-1,1.6,-1.2,2c-0.3,0.3,-0.3,0.5,-0.5,0.8c-0.2,0.4,-0.7,1.4,-0.7,1.4Z" class="g2_279" />
<path d="M297,688c-0.1,0,-0.4,0,-1,0.3c-0.5,0.3,-1.3,1.1,-1.5,1.4c-0.3,0.2,-0.5,0.5,-0.8,1.1c-0.3,0.6,-0.5,1.4,-0.5,1.4c0,0,0.8,-1.9,1.3,-2.4c0.6,-0.6,0.9,-0.9,1.3,-1.1c0.5,-0.2,1.2,-0.7,1.2,-0.7Z" class="g2_279" />
<path d="M295.4,688.1c0.2,-0.2,0.9,-0.4,1.2,-0.6c0.3,-0.2,0.5,-0.1,0.5,-0.1c0,0,-0.5,0.2,-0.7,0.4c-0.3,0.3,-1,0.3,-1,0.3Z" class="g2_279" />
<g clip-path="url(#c0_279)">
<path d="M298.6,687.8c0,0,-0.3,-0.7,-0.8,-0.7c-0.5,-0.1,-1.1,-0.1,-1.4,0c-0.2,0.2,0.2,-0.3,1.1,-0.3c0.8,0.1,0.9,0.2,1,0.3c0.2,0.2,-0.1,-0.5,-0.1,-0.5c0,0,0.2,0.2,0.3,0.2c0,0.1,0.3,0.5,0.4,0.5c0.2,0,0.8,0.2,1,0.2c0.2,0.1,0.7,0.4,0.7,0.4c0,0,-1,-0.3,-1.3,-0.3c-0.2,0,-0.4,0.1,-0.2,0.2c0.3,0,1.4,0.2,1.8,0.3c0.3,0.2,1.5,0.9,1.7,1.1c0.3,0.1,2.1,1.9,2.5,2.1c0.4,0.3,0.1,0,-0.1,-0.3c-0.2,-0.3,-0.9,-1,-0.9,-1.1c0,0,0.7,0.2,1.6,1.6c0.9,1.4,1.5,3.4,1.6,4.1c0.2,0.7,0.3,1.2,0.3,1.7c0.1,0.4,0.2,3.4,0.3,4c0,0.6,0.2,2.7,0.2,3.3c-0.1,0.5,-0.1,1,-0.1,1c0,0,-0.4,-4.4,-0.4,-4.6c0,-0.2,-0.3,-2,-0.3,-2.3c0,-0.2,-0.1,-0.3,-0.3,-0.5c-0.3,-0.2,-1.1,-1,-1.2,-1.2c-0.2,-0.3,-0.9,-1.1,-0.8,-1.2c0,-0.1,0.4,0.3,0.9,0.7c0.6,0.3,1.3,0.6,1.3,0.6c0,0,-0.9,-0.7,-1.3,-0.9c-0.4,-0.3,-1.3,-1.5,-1.4,-1.6c0,-0.2,1.2,0.9,1.3,0.9c0.1,0,-0.4,-0.7,-0.5,-0.9c-0.1,-0.1,-1.1,-0.7,-1.6,-1c-0.5,-0.4,-1.5,-0.8,-1.7,-1.1c-0.3,-0.2,-1.9,-1.2,-2.1,-1.4c-0.1,-0.2,-0.8,-0.7,-0.8,-0.7c0,0,1.5,1,1.8,1.1c0.3,0.2,1,0.7,1.4,1c0.4,0.3,0.8,0.5,1.3,0.8c0.6,0.2,1.1,0.4,1.4,0.7c0.3,0.3,0.8,0.7,1,0.8c0.1,0.1,0.7,0.5,0.7,0.5c0,0,-1.8,-1.6,-1.9,-1.7c-0.1,-0.1,-1.4,-0.7,-1.6,-0.8c-0.1,-0.1,-2.3,-1.6,-2.5,-1.7c-0.1,-0.2,-1.1,-1.1,-1.3,-1.2c-0.2,-0.1,0.1,-0.3,0.3,0c0.3,0.2,0.9,0.6,1.4,1c0.5,0.4,1.7,1.4,2,1.7c0.4,0.2,0.9,0.4,0.9,0.4l-2.8,-2.3c0,0,2,1.5,2.1,1.6c0.2,0.1,-2.3,-2.1,-2.6,-2.3c-0.2,-0.2,1.8,1.3,2.4,1.8c0.6,0.5,1.1,1,1.5,1.2c0.4,0.3,1,1,1.4,1.4c0.4,0.4,0.8,0.7,0.7,0.6c0,0,-0.9,-1.3,-1.1,-1.5c-0.2,-0.2,-2.7,-2.3,-2.7,-2.4c-0.1,-0.1,2.2,1.6,2.9,2.4c0.7,0.7,0.7,0.7,0.5,0.3c-0.2,-0.4,-1.8,-1.9,-2.3,-2.4c-0.4,-0.6,1.1,0.9,1.3,1c0.2,0.1,0.7,0.7,0.8,0.7c0,0,-0.3,-1,-0.7,-1.3c-0.4,-0.3,-1.9,-1.7,-2.4,-2.1c-0.6,-0.5,-1.5,-1,-1.9,-1.2c-0.5,-0.2,-1.2,-0.4,-1.4,-0.4c-0.3,0,0.4,0.3,0.8,0.4c0.3,0.1,1.9,1,2.3,1.3c0.4,0.3,0.8,0.7,0.8,0.7c0,0,-2.6,-1.7,-3.3,-1.8c-0.6,-0.2,-0.8,-0.2,-0.7,-0.1c0,0,0.9,0.3,1.4,0.6c0.5,0.2,2.4,1.5,2.5,1.8c-0.2,-0.2,-2,-1.4,-2.1,-1.5c-0.2,0,1.5,1.3,1.6,1.4c0.2,0.2,-2,-1.5,-2.5,-1.7c-0.4,-0.2,-1.3,-0.6,-1.5,-0.6c-0.3,0,0,-0.4,0,-0.4c0,-0.1,-0.5,-0.1,-0.5,-0.1Z" class="g2_279" />
<path d="M305.8,697c0,0,0.4,1.3,0.4,1.7c0,0.4,0,1.2,-0.1,1.9c-0.2,0.6,-0.4,3.9,-1.6,5.2c-1.2,1.3,-1.4,1.5,-1.4,1.5c0,0,1.8,-1.3,2.3,-2.3c0.4,-0.9,0.5,-1.5,0.5,-1.5c0,0,-0.7,3.2,-0.7,3.6c-0.1,0.5,-0.1,2.9,-0.1,3.8c0,0.9,0.2,2,0.2,2.5c0,0.4,-0.2,1.6,0,2c0.2,0.4,0.3,0.8,0.3,0.8c0,0,-0.3,-1.8,-0.2,-2.2c0.1,-0.4,0.1,-0.3,0.2,-0.2c0,0.1,0.2,0.6,0.2,1c0,0.4,0,0.5,0,0.5c0,0,0.2,-1,0.3,-1.3c0.1,-0.4,0.5,-2.2,0.6,-2.4c0,-0.3,-0.6,1.9,-0.7,2c-0.1,0.1,0.2,-1.4,0.3,-1.5c0,-0.2,0.3,-1.4,0.3,-1.8c0.1,-0.3,0.1,-1.2,0.2,-1.4c0,-0.1,0.3,-1.7,0.2,-2.2c-0.1,-0.5,0.4,-0.8,0.4,-1.1c0.1,-0.2,0,-2.1,0.1,-2.5c0,-0.5,0.2,-0.4,0.2,-0.8c0,-0.3,0,-0.8,-0.1,-0.8c0,0,-0.5,0.4,-0.7,0.5c-0.2,0.1,-0.5,0.1,-0.6,0c-0.1,0,-0.2,-0.8,-0.1,-1.3c0.1,-0.5,0.1,-0.8,0.1,-1.1c0.1,-0.3,0.1,-0.6,0.3,-0.4c0.1,0.1,0.4,0.3,0.6,0.3c0.2,0,0,-0.2,0,-0.4c-0.1,-0.2,0,-0.3,-0.2,-0.6c-0.1,-0.3,-1.2,-1.4,-1.2,-1.5Z" class="g2_279" />
</g>
<path d="M306.8,699.7c-0.1,0.1,0,0.2,-0.1,0.5c-0.1,0.3,-0.4,0.6,-0.2,0.5c0.2,0,0.4,-0.3,0.6,-0.4c0.2,-0.2,0.4,-0.2,0.4,-0.2c0,0,-0.7,-0.5,-0.7,-0.4Z" class="g2_279" />
<g clip-path="url(#c0_279)">
<path d="M291.8,712.3c0,0.1,0.1,1.7,0.1,2.4c0,0.7,-0.2,2.9,-0.2,3.3c-0.1,0.3,-0.1,1.9,-0.2,2.1c0,0.1,0.4,-3.1,0.5,-3.4c0.1,-0.2,0.1,0.8,0.1,0.9c0,0.1,0.1,-2.1,0,-2.6c0,-0.5,-0.3,-2.7,-0.3,-2.7Z" class="g2_279" />
<path d="M300.3,686.9c0,0,0.7,-0.1,1.4,0.2c0.7,0.2,0.9,0.2,1.7,0.7c0.8,0.5,0.8,0.7,1.5,1.1c0.6,0.4,1.2,0.8,1.7,1.4c0.5,0.6,1.5,1.9,1.6,2.1c0.2,0.3,-1.8,-2.2,-2.3,-2.4c-0.5,-0.2,1.6,1.3,2.9,3.9c1.3,2.5,1.3,3.4,1.4,4.1c0.1,0.6,0.7,3.1,0.7,4.3c0,1.3,0.3,2.5,0.6,3.7c0.3,1.2,0.4,2.9,0.4,2.9c0,0,-0.7,-3.3,-1,-3.2c-0.2,0.1,0.2,1.9,0.3,2.4c0.1,0.5,0.6,1.3,0.6,1.7c0,0.4,-0.7,-1.4,-0.8,-1.5c-0.1,-0.1,0.4,3.9,0.4,4.8c0,0.8,0.4,4.8,0.4,5.3c0,0.5,0.1,2.7,0.1,3.3c0,0.6,-0.1,1.3,-0.2,2.1c-0.1,0.7,-0.3,1.6,-0.2,1.5c0,-0.1,-0.2,-3.6,-0.1,-4.1c0.1,-0.5,0,-3.3,0,-3.9c-0.1,-0.7,-0.6,-3.6,-0.7,-4.3c0,-0.8,0.5,4.8,0.4,5.4c0,0.5,-0.3,2.8,-0.2,3.6c0,0.8,-0.2,1.2,-0.1,2.8c0,1.5,0,2.9,-0.1,3.6c-0.1,0.7,-0.4,2.8,-0.4,2.8c0,0,-1.5,-5.3,-0.8,-8c0.6,-2.7,0.7,-3.2,0.8,-3.6c0,-0.5,0.3,-3.6,0.3,-3.6c0,0,-0.5,-1.7,-0.6,-1.9c0,-0.2,0.3,2.2,0.2,2.7c-0.1,0.4,-0.2,1.9,-0.2,1.9c0.1,-0.1,-0.1,-4.6,-0.1,-4.7c0,-0.1,-0.1,6.6,-0.2,7c-0.2,0.3,-0.2,-5.8,-0.2,-6c0,-0.2,-0.1,5.6,-0.1,5.6l-0.2,-5.1c0,0,0.4,-1.6,0.5,-2.9c0.2,-1.3,0.1,-4.1,0.2,-5.1c0.1,-1,-0.1,-2.5,0,-5c0,-2.5,-0.4,-4.4,-0.5,-5.2c-0.1,-0.7,0,-1.7,-2,-5c-2,-3.4,-2.9,-3.3,-3.7,-4c-0.8,-0.7,-1.5,-0.9,-2,-1.1c-0.5,-0.2,-1.4,-0.3,-1.4,-0.3Z" class="g2_279" />
<path d="M303.3,688.3c0.1,0.1,1.1,0.7,2.6,2.6c1.7,2.1,1.9,3.4,2,4c0.2,0.6,0.6,1.6,0.7,3.5c0.1,1.8,0.4,4.5,0.3,5.7c-0.1,1.3,-0.2,3,-0.1,4.2c0.2,1.3,0.4,4,0.3,4.8c-0.1,0.8,-0.1,3.9,-0.7,5.2c-0.7,1.3,-0.9,2.3,-0.9,2.3c0,0,0.9,-4.5,0.9,-5c0,-0.5,0.3,-3.8,0.2,-4.5c-0.1,-0.7,-0.3,-3.8,-0.2,-4.5c0,-0.8,-0.1,-6.8,-0.2,-7.5c0,-0.7,-0.4,-3.6,-0.6,-4.4c-0.3,-0.8,-0.8,-2.6,-2.3,-4.3c-1.5,-1.7,-2,-2.1,-2,-2.1Z" class="g2_279" />
<path d="M307.7,703.1c0,0.1,0,2.8,0,3.5c-0.1,0.7,-0.1,2.1,0,3c0,0.8,0.2,1.1,0.3,1.8c0,0.8,-0.3,3.7,-0.5,4.4c-0.2,0.6,0.7,-3.1,0.8,-4.3c0,-1.1,0,-3.5,-0.1,-4.2c-0.1,-0.7,-0.2,2.6,-0.2,2.6c-0.1,0.1,-0.1,-3.9,-0.1,-4.5c0.1,-0.6,-0.2,-2.3,-0.2,-2.3Z" class="g2_279" />
<path d="M304.8,719.4c0,-0.1,0.8,-2.5,1.2,-4.3c0.4,-1.7,0.7,-2.5,0.7,-2.6c0,-0.2,0.3,1.6,0.3,2.3c0.1,0.7,0.2,0.9,0.2,2.3c-0.1,1.4,-0.9,3.3,-1.2,3.9c0.5,-1.3,0.9,-2.7,1,-3.6c0,-0.9,-0.2,-1.3,-0.2,-1.3c0,0,-0.1,2.2,-0.2,2.7c-0.2,0.4,-0.3,-1.6,-0.4,-2c0,-0.4,-0.5,0.7,-0.6,1c-0.1,0.3,-0.8,1.6,-0.8,1.6Z" class="g2_279" />
<path d="M303.5,725.7c-0.2,0.1,1.3,-1.6,1.5,-2.4c0.1,-0.2,-0.5,0.5,-1,0.7c0.3,-0.2,0.8,-0.6,1.5,-1.6c0.7,-1.1,0.6,-1.1,0.9,-1.7c0.3,-0.6,0.9,-3,1,-3.3c0.1,-0.3,0.9,-3.3,0.9,-3.3c0,0,-0.4,3,-0.8,3.9c-0.3,1,-0.8,2.4,-1,2.9c-0.1,0.5,-2.3,4.4,-3,4.8Z" class="g2_279" />
<path d="M295,712c0,0,1,1.4,1.6,2.1c0.7,0.6,1.9,1,2.9,1c0.9,0,2.6,-0.1,4.1,-0.9c1.5,-0.8,2,-1.4,2.2,-1.4c0.1,0,0.2,0.7,-0.2,1c-0.4,0.3,-1.7,1.3,-2.6,1.7c-0.9,0.3,-3,0.8,-4.7,0.2c-1.7,-0.7,-3.4,-2.5,-3.7,-3.1c-0.4,-0.7,0.2,0.3,0.7,0.5C295.8,713.8,295,712,295,712Z" class="g2_279" />
<path d="M312.6,713.8c0.1,0.1,0.9,0.3,1.9,0.8c1.4,0.8,2.7,2,3,2.4c0.5,0.5,1.9,2.6,2.3,4.5c0.2,1.4,0,2.5,0,2.5c0,0,-0.2,-3.6,-2.5,-6.7c-1.1,-1.5,-2.2,-1.9,-2.8,-2.2c-0.6,-0.4,-1.7,-0.7,-1.9,-0.5c-0.2,0.1,0.1,2.4,0,3.2c-0.1,0.8,-0.4,2.8,-0.4,2.8c0,0,-0.4,-5.5,-0.3,-6.7c0,-1.2,-0.3,-3.7,-0.3,-3.7Z" class="g2_279" />
<path d="M290.7,713.1c-0.3,0.1,-2.6,0.6,-3.1,0.9c-0.6,0.3,-2.5,1.6,-3.2,2.5c-0.6,0.9,-1.5,3.6,-1.5,3.6c0,0,1,-3.2,2.4,-4.1c1.4,-1,1.7,-1.7,2.9,-1.9c1.1,-0.1,2.5,-1,2.5,-1Z" class="g2_279" />
</g>
<path d="M300.4,752.4c0,0,0.1,-0.4,-0.4,-0.6c-0.5,-0.3,-1,-0.5,-2.3,-0.4c-1.3,0,-1.5,0.3,-1.5,0.3c0,0,0.7,0,1.2,0c0.5,0.1,0.9,0,1.5,0.3c0.6,0.4,1.1,0.6,1.5,0.4Z" class="g3_279" />
<path d="M305,752.4c0,0,-0.8,-0.1,-1.2,-0.1c-0.4,0.1,-0.6,0.3,-0.5,0.4c0.1,0.2,0.5,0.3,1.2,0.3c0.7,0,0.7,0,0.8,0.1c0.1,0,-0.3,-0.7,-0.3,-0.7Z" class="g3_279" />
<path d="M298.4,753.4c0,0,-0.1,-0.1,-0.1,-0.1c0,-0.1,0.1,-0.2,0.1,-0.2c0.1,0,0.2,0.1,0.2,0.2c0,0,-0.1,0.1,-0.2,0.1m0.4,-0.5c-1,-0.4,-1.9,0.2,-1.9,0.2l0.4,0.2c0,0,0.1,-0.2,0.4,-0.2c0.2,-0.1,0.4,-0.1,0.4,-0.1c0,0,-0.2,0.6,0.3,0.7c0.5,0.1,0.6,0,0.7,-0.1c0.1,-0.2,0,-0.3,0,-0.3c0,0,0.4,0,0.7,0.6c0,0,0.1,-0.5,-1,-1Z" class="g3_279" />
<path d="M304.4,754.3c-0.1,0,-0.1,-0.1,-0.1,-0.1c0,-0.1,0,-0.1,0.1,-0.1c0.1,0,0.2,0,0.2,0.1c0,0,-0.1,0.1,-0.2,0.1m0.8,-0.4c0,0,-0.4,-0.1,-0.9,-0.1c-0.5,0.1,-1,0.8,-1,0.8l0.3,-0.1c0,0,0,-0.2,0.4,-0.4c0,0.2,-0.1,0.4,0.4,0.5c0.5,0.1,0.6,0,0.7,-0.1c0,-0.2,-0.1,-0.4,-0.1,-0.4Z" class="g3_279" />
<path d="M302.6,753.6c-0.1,0,-0.7,1.1,-0.8,1.8c-0.1,0.7,-0.2,1.5,-0.1,1.7c0.2,0.2,0.4,0.7,0.4,0.8c0,0.1,0.3,0,0.3,-0.1c0.1,-0.1,0.2,-0.6,0.3,-0.5c0.1,0.1,0.3,0.4,0.2,0.6c0,0.1,0.1,0.5,-0.1,0.5c-0.3,0.1,-0.4,-0.1,-0.7,0c-0.2,0,-0.3,0.1,-0.5,0.2c-0.2,0.1,-0.6,0.2,-0.8,0.1c-0.2,-0.1,-0.4,-0.5,-0.7,-0.6c-0.3,-0.1,-0.4,0,-0.4,0c0,0,0.2,0.1,0.5,0.2c0.3,0.2,0.6,0.6,0.9,0.6c0.3,0,0.8,-0.3,1.2,-0.3c0,0,0.2,0.1,0.4,0c0.3,0,0.6,-0.5,0.4,-1.1c-0.2,-0.5,-0.3,-0.4,-0.5,-0.7c-0.2,-0.4,-0.3,-1.2,-0.3,-1.7c0,-0.5,0.3,-1.5,0.3,-1.5Z" class="g3_279" />
<path d="M298.7,757.3c-0.1,0.1,-1,0.7,-1.4,1c-0.4,0.3,-0.6,0.5,-0.5,0.8c0,0.3,0.3,0.9,0.3,0.9c0,0,-0.7,-1.1,-0.6,-1.3c0,-0.2,2.2,-1.4,2.2,-1.4Z" class="g3_279" />
<path d="M300.9,761c-1.1,-0.1,-1.3,-0.4,-1.6,-0.6c-0.3,-0.2,-1,-0.8,-1,-0.8c0,0,2.2,0.5,2.5,0.5c0.2,0,0.8,0.1,1.3,0.1c0.5,0.1,0.7,0.1,0.7,0.1c0,0,-0.9,0.7,-1.9,0.7m2.4,-1c-0.1,0.1,-0.4,0.1,-0.9,0c-0.6,-0.1,-0.9,-0.3,-1.1,-0.3c-0.2,0,-0.4,0,-0.7,0c-0.2,0,-0.6,-0.2,-0.8,-0.2c-0.2,0,-1.2,-0.1,-1.5,-0.2c-0.3,0,-0.8,-0.4,-0.9,-0.3c0,0,0.7,1.4,1.2,1.8c0.5,0.3,1.1,0.7,1.1,0.7c0,0,-0.1,-0.2,-0.3,-0.3c-0.2,-0.2,0.3,0,0.2,-0.1c-0.1,-0.1,-0.5,-0.2,-0.6,-0.3c-0.2,-0.1,0.2,-0.2,0.5,0c0.3,0.2,0.3,0.2,0.5,0.3c0.2,0.1,0.1,0.2,0.2,0.3c0,0.2,-0.4,0.2,0,0.2c0.4,0,1.4,0,1.9,-0.2c0.6,-0.2,0.7,-0.5,0.9,-0.8c0.3,-0.4,0.4,-0.6,0.3,-0.6Z" class="g3_279" />
<path d="M299.6,764.1c0,0,0.5,0.3,1.4,0.1c0.9,-0.3,3.3,-2.2,3.3,-2.2c0,0,0,0.1,0,0.6c-0.1,0.4,-0.3,0.2,-0.2,1.1c0.2,0.9,0.3,1.3,0.4,1.6c0,0.2,0,0.3,-0.1,0.4c-0.1,0.1,0,-0.6,-0.3,-1c-0.3,-0.4,-0.1,-0.6,-0.6,-0.7c-0.5,-0.1,-0.7,-0.2,-1,0.1c-0.3,0.2,0.1,0.2,-0.9,0.4c-0.9,0.1,-1.9,-0.1,-2,-0.4Z" class="g3_279" />
<g clip-path="url(#c1_279)">
<path d="M288.5,767.4c-0.1,0.2,0.5,-0.8,0.6,-0.6c0.2,0.3,0.1,0.1,0.5,1.5c0.4,1.3,1.7,4.9,5.8,5.1c4.1,0.2,7.6,-1.3,7.6,-1.3c0,0,-5.6,1.8,-8.6,0.8c-3,-1.1,-3.4,-2.4,-3.7,-3.2c-0.4,-0.8,-0.7,-1.4,-1,-2.1c-0.3,-0.6,-0.6,-1.6,-1.2,-0.2Z" class="g3_279" />
<path d="M311.2,765.9c0.3,0,0.5,0.2,0.5,0.3c0,0,-0.6,0.3,-1,0.6c-0.4,0.3,-1.6,2.1,-2.6,2.9c-0.9,0.9,-1.8,2.2,-3.9,3.1c-2.1,1,-3.6,1.3,-3.7,1.3c-0.1,0,4.6,-1.6,6.4,-3.5c1.9,-1.8,2.5,-2.8,3,-3.4c0.5,-0.5,1.3,-1.3,1.3,-1.3Z" class="g3_279" />
<path d="M287.5,767.3c-0.4,0.1,-0.3,0.3,-1,0.4c-0.7,0.2,-2.6,2.4,-2.9,5.2c-0.3,2.7,0.7,-0.9,1,-0.7c0.4,0.3,0.7,0.5,1,1.1c0.3,0.6,1.7,1.5,1.5,0.8c-0.2,-0.8,-0.8,-1.9,-0.1,-2.5c0.7,-0.6,0.5,-1.9,1.1,-2.1c0.5,-0.1,1,0.5,1.3,1.2c0.2,0.7,1.1,1.4,1,1.3c0,-0.1,-1.3,-2.5,-1.4,-3.3c-0.2,-0.8,-0.4,-0.9,-0.7,-1.1c-0.3,-0.2,-0.8,-0.3,-0.8,-0.3Z" class="g3_279" />
<path d="M311.2,770.6c-0.9,1.4,-1.3,3.9,-1.3,3.9c0,0,1,-3,1.7,-3.9c0.8,-1,1.8,-2.2,2.5,-2.4c0.7,-0.2,1.2,-0.2,1.6,0.5c0.5,0.7,1.1,2.3,1,2.6c0,0.3,0,-0.3,0.2,-0.6c0.2,-0.2,0.1,-0.3,-0.2,-0.9c-0.2,-0.6,-0.8,-2.3,-2.4,-2.6c-1.6,-0.4,-2,-0.5,-2.4,-0.4c-0.4,0.2,-1.5,1.1,-2.6,2.4c-1.2,1.4,1.5,-1.3,2.5,-1.7c1.1,-0.3,2.8,-0.3,2.5,0c-0.3,0.3,-2.1,1.7,-3.1,3.1Z" class="g3_279" />
<path d="M290.7,767.4c0,0,1.5,-0.1,3.9,-1.9c2.4,-1.8,1.7,-1.3,1.7,-1.8c0.1,-0.5,0,2.1,-2.4,2.8c-2.3,0.8,-3.2,0.9,-3.2,0.9Z" class="g3_279" />
<path d="M309.6,760.6c-0.1,-0.1,-0.2,-0.1,-0.3,-0.1c-1.1,-0.5,-0.9,-0.9,-1.6,-1.8c-0.7,-0.9,-1.2,-2.6,-2.1,-5.2c-0.9,-2.6,-1.4,-3,-1.4,-3c-0.4,-0.8,-2.2,-3.4,-2,-3.2c0.1,0.1,3,3.4,3.6,5.9c0.6,2.5,2.3,5.1,3,6.5c0.2,0.4,0.5,0.7,0.8,0.9c1,0.4,1.3,0.5,1.3,0.5c0,0,-0.7,-0.1,-1.3,-0.5m-9.3,-16.9c0.1,0,1.8,0.1,3.5,1.3c1.7,1.2,2.1,1.3,3.5,3.4c1.4,2,-0.1,0.2,-1.9,-1.7c-2.3,-2.4,-5.1,-3,-5.1,-3m2.4,-1.3c0.9,0.2,2.2,0.8,2.6,1c0.6,0.4,1.2,1.1,1.8,1.8c0.5,0.7,1.2,1.4,2,3c0.8,1.6,1.7,4.3,2.1,6.3c0.4,1.5,0.8,2.7,0.9,3.1c0,0.2,0.1,0.2,0.1,0.2c0,0,-0.1,0,-0.1,-0.2c-0.3,-0.8,-1.6,-4.4,-1.8,-5.4c-0.3,-1.1,-1.7,-4.4,-2.7,-5.8c-1,-1.3,-1.9,-2.2,-2.9,-2.8c-1,-0.5,-3.7,-1.1,-3.7,-1.1c0.2,-0.2,0.8,-0.2,1.7,-0.1m-6.5,4.3c-0.6,0.5,-1,1,-1.8,2.2c-0.9,1.2,-1.2,6.1,-1.2,6.6c-0.1,0.3,-0.8,2,-1.3,3.3c-0.1,0.6,-0.2,1.1,-0.4,1.3c-0.1,0.2,0.1,-0.5,0.4,-1.3c0.1,-0.3,0.2,-0.7,0.3,-1.1c0.4,-1.3,0.5,-3.1,0.5,-3.1c0,0,-0.3,0.9,-1,1.5c-0.6,0.6,-1.7,1.7,-1.8,1.8c-0.1,0,0.4,-0.6,1,-1.4c0.6,-0.8,1.8,-2.3,2.1,-3.4c0.2,-1,0.4,-3,0.1,-2.3c-0.3,0.4,-1.1,1.8,-1.5,2.5c-0.1,0.2,-0.2,0.3,-0.2,0.4c-0.1,0.1,0,-0.1,0.2,-0.4c0.3,-0.6,0.7,-1.6,1,-2.4c0.5,-1.1,0.4,-1.9,0.8,-2.8c0.4,-0.9,1,-1,1.5,-1.6c0.5,-0.6,1.1,-0.6,1.2,-0.5c0,0,-0.1,0.4,-0.7,0.8c-0.6,0.3,-0.6,0.4,-0.8,0.7c-0.3,0.4,-0.8,2,-0.8,2c0,0,0.2,-0.3,0.7,-1.2c0.5,-0.9,1.9,-1.9,1.7,-1.6m-6,15.4c-0.4,-1.5,-0.6,-2,-0.5,-2.2c0,-0.2,0.3,-0.5,0.5,-0.6c-0.2,0.1,-0.3,0.3,-0.3,0.8c0.1,0.6,0.1,1.7,0.7,2.5c0.2,0.3,0.5,0.8,0.9,1.2c-0.4,-0.2,-1.1,-0.6,-1.3,-1.7m20.5,1.3c0.3,-0.3,1.9,-3.4,1.8,-5.7c0,-2.3,-1.6,-8.4,-2.7,-10.8c-1.1,-2.4,-3.3,-4.7,-5,-5.3c-1.6,-0.6,-3.4,-0.2,-3.7,-0.2c-0.3,0,-1.5,-0.2,-1.9,-0.1c-0.4,0.1,-1.2,0,-2,0.4c-0.8,0.3,-3.3,2.2,-4.6,4.9c-1.3,2.7,-1.1,5.5,-1.3,6.2c-0.3,0.7,-1.3,1.8,-1.3,2.8c0,1,-0.3,1.4,-0.5,2.1c-0.1,0.7,-0.7,1.9,-0.4,3.2c0.3,1.3,0.5,2.4,1.7,2.8c0.3,0.1,0.6,0.1,0.7,0.2c0.5,0.7,1.1,1.3,1.4,1.4c0.5,0.2,1,0.3,1.7,0.2c0.6,-0.1,1.6,-1,1.7,-1.1c0.1,-0.2,0,-0.7,0,-1.2c0.1,-0.4,-0.2,-2,-0.2,-2c0,0,-1.3,-1.8,-1.5,-3.2c-0.2,-1.5,-0.2,-7.1,0.5,-8.4c0.7,-1.4,1.1,-2.6,2.3,-3.1c1.2,-0.6,1.4,-1,1.4,-1.4c0,-0.1,0,-0.3,0,-0.4c0,0.2,0.2,0.5,0.5,0.8c0.5,0.4,1,0.7,2.3,2c1.3,1.3,2.5,3,2.9,4.1c0.3,1.1,0.5,1.8,0.9,3c0.3,1.3,0.5,3,1.3,4.1c0.2,0.6,-2,2.9,-2,2.9l0,1.6c0,0.5,0,1.1,0.3,1.3c0.3,0.2,0.1,0.4,-0.1,0.8c-0.2,0.3,-0.3,0.8,-0.3,1.3l0.1,0.5c0,0,0,-0.2,0.8,-0.3c0.8,0,1.8,-0.9,1.8,-0.9c0,0,0.4,0.8,0.9,1.1c0.4,0.3,1.1,0.3,1.1,0.3c0,0,-1.1,-0.6,-1.1,-0.9c0,-0.3,0.7,-0.3,1.1,-0.1c0.4,0.1,0.6,0.1,1,0c0.4,-0.1,0.6,-0.3,0.6,-0.3c0,0,-0.6,-1.1,-0.6,-1.5c-0.1,-0.4,0,-0.9,0.4,-1.1Z" class="g3_279" />
</g>
<path d="M295.3,845.3c-0.1,0,-0.1,0,-0.1,-0.1c0,0,0,-0.1,0.1,-0.1c0,0,0.1,0,0.1,0.1c0,0.1,-0.1,0.1,-0.1,0.1M295,844.8c-0.7,0.1,-1.1,0.7,-1.3,0.8c0,0,0.3,0.1,0.4,0c0.1,0,0.7,-0.7,0.7,-0.4c0,0.3,0.1,0.6,0.7,0.6c0.5,0,0.6,-0.5,0.6,-0.5c0,0,0.1,-0.2,0.5,0.4c-0.2,-0.6,-0.8,-1,-1.6,-0.9Z" class="g2_279" />
<path d="M301.2,845c-0.1,0,-0.1,0,-0.1,-0.1c0,0,0,-0.1,0.1,-0.1c0,0,0.1,0,0.1,0.1c0,0.1,0,0.1,-0.1,0.1m1.5,0.1c-0.1,-0.1,-0.4,-0.6,-1.2,-0.7c-0.6,-0.1,-0.9,0,-1.2,0.3c-0.3,0.1,-0.8,0.9,-0.8,0.9c0,0,0.3,-0.1,0.6,-0.5c0.3,-0.4,0.6,-0.3,0.6,-0.3c0,0,-0.1,0.4,0.3,0.6c0.6,0.2,0.9,-0.2,0.9,-0.2c0,0,0,-0.1,0.1,-0.1c0.2,-0.1,0.3,0.2,0.4,0.2c0.1,0,0.4,0,0.3,-0.2Z" class="g2_279" />
<path d="M296.1,844.3c0,0,-0.6,-0.5,-1.2,-0.6c-0.6,-0.1,-0.8,0,-1.1,0.1c-0.1,0.2,-0.6,0.6,-0.8,0.9l-0.1,0.2c0,0,0.5,-0.5,0.9,-0.6c0.3,-0.1,0.6,-0.3,1.1,-0.1c0.4,0.1,0.7,0.2,0.9,0.3c0.2,0,0.3,-0.2,0.3,-0.2Z" class="g2_279" />
<path d="M299.2,844.1c0,0,0.2,-0.4,0.6,-0.6c0.4,-0.2,1.4,-0.3,2,-0.1c0.6,0.1,1.4,0.7,1.4,0.7c0,0,-1.3,-0.4,-1.7,-0.3c-0.5,0,-0.8,0,-1.2,0.2c-0.5,0.2,-1.2,0.3,-1.1,0.1Z" class="g2_279" />
<path d="M296.4,844.9c0,0,0.4,0.2,0.4,0.4c0,0.2,-0.1,1.2,-0.1,1.4c0,0.2,0.2,-1.5,-0.3,-1.8Z" class="g2_279" />
<path d="M296.2,848c0,0,-0.3,0.7,-0.3,1c0,0.2,0.1,0.4,0.2,0.4c0.2,0,0.5,-0.1,0.6,-0.1c0.1,0.1,0.5,0.3,0.6,0.4c0.1,0,-0.4,0,-0.5,-0.1c-0.1,-0.1,-0.1,-0.2,-0.3,-0.2c-0.3,0.1,-0.6,0.1,-0.6,-0.1c-0.1,-0.1,-0.1,-0.5,0.3,-1.3Z" class="g2_279" />
<path d="M297.8,849.4c0,0,0.1,-0.3,0.3,-0.3c0.3,0,0.7,0.1,0.8,0.1c0,-0.1,-0.4,0.2,-0.4,0.2c0.1,0,0.7,-0.1,0.8,-0.3c0.2,-0.2,0.3,-0.6,0.3,-0.8c-0.1,-0.2,-0.2,-0.4,-0.2,-0.4c0,0,0.3,0.1,0.3,0.6c0,0.5,-0.4,0.8,-0.5,0.9c-0.2,0,-0.7,0.1,-0.8,0.1c-0.1,0,-0.2,-0.1,-0.3,-0.1c-0.1,0,-0.3,0,-0.3,0Z" class="g2_279" />
<path d="M301,851.2c0,0,-0.4,0.4,-0.7,0.5c-0.3,0.1,-0.4,0.1,-0.6,0.2c-0.3,0.1,-0.5,0.1,-0.9,0.2c-0.4,0.1,-0.9,0.1,-1.3,0.1c-0.4,-0.1,-0.4,-0.2,-0.6,-0.2c-0.2,-0.1,-0.2,-0.2,-0.3,-0.3c-0.2,-0.2,0,-0.5,0,-0.5c0,0,0.2,0,0.6,-0.1c0.4,0,0.8,0.1,1,0.1c0.1,0,1,-0.2,1.3,-0.3c0.3,0,1,0,1.3,0.1c0.3,0,0.2,0.2,0.2,0.2m0.5,-0.3c-0.7,0,-1.7,-0.5,-2.3,-0.5c-0.7,0,-0.6,0.3,-1.2,0.2c-0.6,-0.2,-1,-0.1,-1.4,0c-0.3,0.1,-1,0.5,-1,0.5c0,0,0.5,0.7,0.7,0.9c0.3,0.1,0.9,0.4,1.2,0.4c0.3,0,1.3,0,1.7,-0.1c0.4,0,0.9,-0.3,1.1,-0.3c0.2,-0.1,0.1,0,-0.1,0.1c-0.2,0.2,-0.7,0.4,-1.2,0.5c-0.5,0.1,-0.7,0.1,-1.2,0c-0.6,0,-0.7,0,-1.1,-0.2c-0.4,-0.2,-0.4,-0.3,-0.5,-0.3c-0.1,0.1,0.4,0.7,0.8,0.9c0.4,0.1,0.7,0.2,0.9,0.2c0.3,-0.1,1.2,-0.1,1.7,-0.3c0.4,-0.2,0.9,-0.7,1.2,-1c0.3,-0.3,1.2,-1,0.7,-1Z" class="g2_279" />
<g clip-path="url(#c2_279)">
<path d="M293.1,845c0,0,-0.1,0.8,-0.2,1.2c0,0.4,-0.1,1.1,-0.1,1.6c0,0.4,0.2,1.2,0.2,1.6c0,0.4,0.3,1.6,0.4,1.9c0.2,0.2,0.4,0.8,1,1.8c0.7,0.9,1.9,2,2.4,2.3c0.6,0.2,1.2,0.5,2.5,0.2c1.4,-0.2,2.7,-0.8,3.5,-1.5c-0.2,0.4,-1,1,-2.1,1.4c-1.2,0.4,-2.3,0.6,-3.4,0.3c-0.7,-0.2,-0.6,0.1,-0.7,0.6c-0.1,0.5,-0.1,1.4,-0.5,1.8c-0.3,0.4,-1.1,1.1,-1.4,1.2c-0.4,0.1,1.2,-0.9,1.4,-1.7c0.1,-0.4,-0.1,-0.8,-0.3,-1.4c-0.1,-0.5,-0.3,-0.8,-0.4,-1.2c0,-0.4,-0.6,-1.1,-0.6,-1.1c0,0,0.3,1,0.3,1.1c0.1,0.2,0.9,2.5,0.9,2.5c0,0,-0.9,-1.8,-0.9,-1.9c-0.1,-0.1,0.7,2.1,0.7,2.2c0.1,0.1,-0.5,-0.6,-0.6,-1c-0.1,-0.4,0.1,1.2,0.2,1.3c0.1,0.1,-0.5,-0.5,-0.5,-0.7c0,-0.2,-0.2,0.5,-0.3,1.1c-0.2,0.6,0,1.3,-0.4,1.7c-0.4,0.4,-0.9,0.5,-0.9,0.5c0,0,0.8,-1.1,0.9,-2c0,-0.9,-0.2,-2.5,-0.1,-3.2c0,-0.8,-0.6,-2.2,-0.6,-2.2c0,0,0.5,3.9,0.4,4.6c-0.2,0.6,-0.4,1.1,-0.5,1.6c-0.1,0.6,-0.4,1.5,-0.5,1.7c-0.2,0.2,-0.1,-2.5,0,-2.8c0,-0.4,0.1,0.7,0.2,0.6c0,-0.1,0,-1.7,0,-2.4c0,-0.8,-0.1,-0.9,-0.2,-1.5c0,-0.7,-0.2,-3.6,-0.2,-4c0,-0.4,0,-2.6,0,-2.6c0,0,0,5.1,-0.1,5.5c0,0.4,-0.1,2.3,-0.1,2.8c0,0.6,0,2.4,0,2.9c0,0.4,0,2.1,0,2.4c0.1,0.3,0.2,2.6,0.3,3.1c0,0.6,0.1,2.6,-0.1,3c-0.1,0.3,-0.1,-3.3,-0.2,-3.9c-0.1,-0.6,-0.3,-3.9,-0.2,-4.2c0,-0.3,-0.2,-1.3,-0.1,-1.7c0.1,-0.4,0,-2.3,0.1,-2.7c0,-0.4,-0.1,-1.5,0,-1.9c0.1,-0.3,0.2,-2,0.2,-2.4c0,-0.4,-0.1,-1.9,-0.1,-1.9c0,0,-0.6,7,-0.8,8.4c-0.1,1.4,-0.2,2.4,-0.3,3.3c-0.1,0.8,-0.3,2,-0.4,2.5c-0.1,0.5,0,1.9,0,1.9c0,0,0.1,-5.4,0.2,-6.2c0.1,-0.8,0.2,-3.6,0.4,-4.3c0.1,-0.7,0.2,-3.3,0.5,-4.1c0.3,-0.9,0,-1.4,0.2,-2.4c0.2,-1,0.4,-3,0.4,-3.2c0.1,-0.2,0.4,-1.5,0.5,-2.1c0.1,-0.6,0.5,-1.7,0.7,-2.3c0.2,-0.6,0.4,-1.2,0.6,-1.6c0.2,-0.4,-0.5,2,-0.7,2.4c-0.1,0.3,-0.3,1.3,-0.3,1.3c0,0,0.8,-1.9,1.3,-2.5c0.5,-0.5,1.4,-1.4,1.8,-1.6c0.4,-0.2,0.8,-0.3,0.8,-0.3c0,0,-1.6,0.8,-2.4,1.9c-0.7,1.1,-1.3,2.4,-1.4,2.7c-0.2,0.3,-0.4,1.6,-0.4,1.6Z" class="g2_279" />
</g>
<path d="M298.3,837.8c0,0,-0.4,0,-0.8,0.3c-0.4,0.3,-0.6,0.1,-1,0.6c-0.4,0.4,-1.1,1,-1.5,1.4c-0.5,0.3,-0.6,0.6,-0.6,0.6c0,0,1,-1.2,1.3,-1.6c0.2,-0.3,1.2,-0.9,1.4,-1.1c0.2,-0.1,0.5,-0.4,0.4,-0.4c0,0,-0.4,0,-0.8,0.3c-0.3,0.3,-1.3,1.2,-1.3,1.2l1.1,-1.2l-1.2,1c0,0,1,-1.1,1.7,-1.6c0.7,-0.4,0.6,-0.5,0.4,-0.5c-0.2,0.1,-1.4,1,-1.8,1.3c-0.4,0.4,0.8,-0.9,1.2,-1.2c0.3,-0.3,-0.7,0.3,-0.7,0.2c0.1,0,0.9,-1,1.4,-1.1c0.4,-0.1,0.8,0,0.9,0c0.1,0,-0.1,0.3,-0.1,0.5c0,0.2,0.1,0.9,0,1.1c-0.1,0.2,0,0.2,0,0.2Z" class="g2_279" />
<path d="M298.5,835.8c0,0,-0.9,-0.1,-1.2,0c-0.3,0.1,-1,0.6,-1.3,0.9c-0.3,0.4,-1.1,1.4,-1.3,1.8c-0.2,0.3,-0.5,0.5,-0.8,1.2c-0.2,0.6,-0.9,2.7,-1,3.1c-0.1,0.4,-0.2,1.6,-0.5,2c-0.2,0.3,-0.3,0.4,-0.3,0.4c0,0,0.2,-1.6,0.3,-2.2c0.2,-0.6,0.5,-2.6,0.8,-3.1c0.2,-0.4,0.8,-1.9,1,-2.1c0.3,-0.1,-0.4,0.8,-0.4,1.2c-0.1,0.3,0.9,-1.6,1.5,-2.1c0.6,-0.5,0.9,-0.9,1.2,-1c0.2,0,-1.1,0.9,-1.5,1.5c-0.4,0.7,-1,1.6,-0.9,1.6c0,-0.1,1.6,-2.5,2.8,-3.2c0.9,-0.5,1.6,0,1.6,0Z" class="g2_279" />
<g clip-path="url(#c2_279)">
<path d="M289.6,863.4c0,0,0.6,-2.3,0.7,-2.7c0.2,-0.4,0.6,-3.4,0.7,-4.1c0.1,-0.6,0.1,-1.3,0.2,-1.5c0,-0.2,0,-0.6,0.1,-0.9c0.1,-0.4,-0.1,-1.4,0.1,-1.8c0.2,-0.3,0.4,-1.7,0.4,-2.2c0,-0.5,0,-1.7,0.1,-2.4c0,-0.7,0.1,-1.5,0.1,-1.5c0,0,-0.2,0.9,-0.4,1.4c-0.1,0.4,-0.1,0.9,-0.2,1.4c-0.1,0.6,-0.2,1,-0.2,1.6c0,0.7,-0.2,1,-0.2,1.6c0,0.7,0,0.8,-0.1,1.3c-0.1,0.6,-0.3,1.7,-0.5,2.2c-0.1,0.5,-0.4,2.4,-0.6,3.2c-0.2,0.7,-1.2,4.2,-1.3,4.6c-0.1,0.4,0.1,1.4,0.2,1.8c0.2,0.4,0.5,0.8,0.5,0.8c0,0,-0.7,-1.4,-0.4,-2.7c0.4,-1.2,0.8,-2.8,1.1,-3.5c0.3,-0.7,0.7,-3.6,0.8,-4.2c0.2,-0.6,0.2,1,0,1.7c-0.2,0.7,-1.1,5.9,-1.1,5.9Z" class="g2_279" />
<path d="M288.3,861.9c0,-0.1,0.6,-3.4,0.7,-3.9c0,-0.5,0.3,-2.9,0.7,-3.7c0.5,-0.9,0.7,-3,0.9,-3.6c0.2,-0.6,0.4,-1.8,0.5,-2.1c0.1,-0.4,0,-1.7,0.2,-2.4c0.2,-0.7,0.1,-2.6,0.3,-3c0.1,-0.3,0.2,-1.5,0.3,-1.7c0.1,-0.2,0.8,-1.1,0.8,-1.1c0,0,-0.6,1.3,-0.7,1.6c-0.1,0.3,0.5,-0.5,0.5,-0.4c-0.1,0,0,1.1,-0.3,1.7c-0.3,0.6,-0.3,1.9,-0.5,2.5c-0.1,0.6,-0.1,1.5,-0.2,1.7c-0.1,0.2,-0.3,1.7,-0.4,2c-0.1,0.3,-0.4,2.2,-0.5,3c-0.2,0.8,-0.5,1.9,-0.6,2.3c-0.2,0.4,-0.6,2,-0.8,2.5c-0.1,0.6,-0.3,2.7,-0.5,3.4c-0.2,0.6,-0.4,1.2,-0.4,1.2Z" class="g2_279" />
</g>
<path d="M292,840.7c0,0,0.9,-1.9,1,-2.4c0.1,-0.4,1.3,-1.8,1.7,-2.2c0.5,-0.4,1.1,-0.5,1.1,-0.5c0,0,-1,0.7,-1.4,1c-0.4,0.3,-1,1.5,-1.2,1.9c-0.3,0.4,-0.3,0.5,-0.5,0.9c-0.2,0.4,-0.7,1.3,-0.7,1.3Z" class="g2_279" />
<path d="M297,835.3c-0.1,0,-0.4,0,-1,0.3c-0.5,0.3,-1.3,1.1,-1.5,1.3c-0.3,0.3,-0.5,0.6,-0.8,1.2c-0.3,0.5,-0.5,1.3,-0.5,1.3c0,0,0.8,-1.8,1.3,-2.3c0.6,-0.6,0.9,-0.9,1.3,-1.1c0.5,-0.2,1.2,-0.7,1.2,-0.7Z" class="g2_279" />
<path d="M295.4,835.3c0.2,-0.1,0.9,-0.3,1.2,-0.5c0.3,-0.2,0.5,-0.1,0.5,-0.1c0,0,-0.5,0.2,-0.7,0.4c-0.3,0.2,-1,0.2,-1,0.2Z" class="g2_279" />
<g clip-path="url(#c2_279)">
<path d="M298.6,835.1c0,0,-0.3,-0.7,-0.8,-0.8c-0.5,0,-1.1,-0.1,-1.4,0.1c-0.2,0.1,0.2,-0.4,1.1,-0.3c0.8,0.1,0.9,0.2,1,0.3c0.2,0.2,-0.1,-0.6,-0.1,-0.6c0,0,0.2,0.2,0.3,0.3c0,0.1,0.3,0.5,0.4,0.5c0.2,0,0.8,0.1,1,0.2c0.2,0.1,0.7,0.4,0.7,0.4c0,0,-1,-0.3,-1.3,-0.3c-0.2,0,-0.4,0.1,-0.2,0.1c0.3,0.1,1.4,0.2,1.8,0.4c0.3,0.2,1.5,0.9,1.7,1c0.3,0.2,2.1,2,2.5,2.2c0.4,0.2,0.1,0,-0.1,-0.3c-0.2,-0.4,-0.9,-1,-0.9,-1.1c0,0,0.7,0.2,1.6,1.6c0.9,1.4,1.5,3.4,1.6,4c0.2,0.7,0.3,1.3,0.3,1.8c0.1,0.4,0.2,3.3,0.3,3.9c0,0.6,0.2,2.8,0.2,3.3c-0.1,0.6,-0.1,1.1,-0.1,1.1c0,0,-0.4,-4.4,-0.4,-4.6c0,-0.2,-0.3,-2.1,-0.3,-2.3c0,-0.2,-0.1,-0.4,-0.3,-0.6c-0.3,-0.1,-1.1,-0.9,-1.2,-1.2c-0.2,-0.2,-0.9,-1.1,-0.8,-1.1c0,-0.1,0.4,0.3,0.9,0.7c0.6,0.3,1.3,0.5,1.3,0.5c0,0,-0.9,-0.6,-1.3,-0.9c-0.4,-0.2,-1.3,-1.4,-1.4,-1.5c0,-0.2,1.2,0.9,1.3,0.9c0.1,0,-0.4,-0.8,-0.5,-0.9c-0.1,-0.2,-1.1,-0.7,-1.6,-1c-0.5,-0.4,-1.5,-0.8,-1.7,-1.1c-0.3,-0.3,-1.9,-1.2,-2.1,-1.4c-0.1,-0.2,-0.8,-0.7,-0.8,-0.7c0,0,1.5,1,1.8,1.1c0.3,0.2,1,0.7,1.4,1c0.4,0.3,0.8,0.5,1.3,0.7c0.6,0.3,1.1,0.5,1.4,0.8c0.3,0.3,0.8,0.6,1,0.7c0.1,0.1,0.7,0.6,0.7,0.6c0,0,-1.8,-1.7,-1.9,-1.8c-0.1,-0.1,-1.4,-0.6,-1.6,-0.7c-0.1,-0.1,-2.3,-1.6,-2.5,-1.7c-0.1,-0.2,-1.1,-1.1,-1.3,-1.2c-0.2,-0.1,0.1,-0.3,0.3,0c0.3,0.2,0.9,0.6,1.4,1c0.5,0.4,1.7,1.4,2,1.6c0.4,0.3,0.9,0.5,0.9,0.5L301.4,838c0,0,2,1.5,2.1,1.6c0.2,0.1,-2.3,-2.1,-2.6,-2.3c-0.2,-0.2,1.8,1.3,2.4,1.8c0.6,0.5,1.1,0.9,1.5,1.2c0.4,0.3,1,1,1.4,1.4c0.4,0.4,0.8,0.6,0.7,0.6c0,0,-0.9,-1.3,-1.1,-1.5c-0.2,-0.2,-2.7,-2.3,-2.7,-2.4c-0.1,-0.1,2.2,1.6,2.9,2.3c0.7,0.8,0.7,0.8,0.5,0.4c-0.2,-0.4,-1.8,-1.9,-2.3,-2.4c-0.4,-0.6,1.1,0.9,1.3,1c0.2,0.1,0.7,0.7,0.8,0.7c0,0,-0.3,-1,-0.7,-1.3c-0.4,-0.3,-1.9,-1.7,-2.4,-2.1c-0.6,-0.5,-1.5,-1,-1.9,-1.2c-0.5,-0.2,-1.2,-0.4,-1.4,-0.4c-0.3,0,0.4,0.3,0.8,0.4c0.3,0.1,1.9,1,2.3,1.3c0.4,0.3,0.8,0.7,0.8,0.7c0,0,-2.6,-1.7,-3.3,-1.9c-0.6,-0.1,-0.8,-0.1,-0.7,-0.1c0,0,0.9,0.4,1.4,0.6c0.5,0.3,2.4,1.6,2.5,1.9c-0.2,-0.2,-2,-1.4,-2.1,-1.5c-0.2,0,1.5,1.2,1.6,1.4c0.2,0.2,-2,-1.6,-2.5,-1.7c-0.4,-0.2,-1.3,-0.6,-1.5,-0.6c-0.3,0,0,-0.4,0,-0.5c0,0,-0.5,-0.1,-0.5,-0.1Z" class="g2_279" />
<path d="M305.8,844.3c0,0,0.4,1.3,0.4,1.7c0,0.4,0,1.2,-0.1,1.8c-0.2,0.7,-0.4,4,-1.6,5.3c-1.2,1.2,-1.4,1.5,-1.4,1.5c0,0,1.8,-1.4,2.3,-2.3c0.4,-1,0.5,-1.5,0.5,-1.5c0,0,-0.7,3.2,-0.7,3.6c-0.1,0.5,-0.1,2.9,-0.1,3.8c0,0.8,0.2,2,0.2,2.4c0,0.5,-0.2,1.7,0,2.1c0.2,0.4,0.3,0.8,0.3,0.8c0,0,-0.3,-1.8,-0.2,-2.2c0.1,-0.4,0.1,-0.3,0.2,-0.2c0,0.1,0.2,0.6,0.2,1c0,0.4,0,0.5,0,0.5c0,0,0.2,-1,0.3,-1.4c0.1,-0.3,0.5,-2.1,0.6,-2.3c0,-0.3,-0.6,1.9,-0.7,2c-0.1,0,0.2,-1.5,0.3,-1.6c0,-0.1,0.3,-1.3,0.3,-1.7c0.1,-0.4,0.1,-1.2,0.2,-1.4c0,-0.2,0.3,-1.7,0.2,-2.2c-0.1,-0.5,0.4,-0.8,0.4,-1.1c0.1,-0.2,0,-2.1,0.1,-2.5c0,-0.5,0.2,-0.4,0.2,-0.8c0,-0.3,0,-0.9,-0.1,-0.8c0,0,-0.5,0.4,-0.7,0.5c-0.2,0.1,-0.5,0.1,-0.6,0c-0.1,0,-0.2,-0.8,-0.1,-1.3c0.1,-0.6,0.1,-0.9,0.1,-1.2c0.1,-0.3,0.1,-0.5,0.3,-0.4c0.1,0.2,0.4,0.4,0.6,0.4c0.2,0,0,-0.2,0,-0.4c-0.1,-0.2,0,-0.3,-0.2,-0.6c-0.1,-0.3,-1.2,-1.4,-1.2,-1.5Z" class="g2_279" />
</g>
<path d="M306.8,846.9c-0.1,0.2,0,0.3,-0.1,0.6c-0.1,0.3,-0.4,0.5,-0.2,0.5c0.2,-0.1,0.4,-0.3,0.6,-0.5c0.2,-0.1,0.4,-0.1,0.4,-0.1c0,0,-0.7,-0.6,-0.7,-0.5Z" class="g2_279" />
<g clip-path="url(#c2_279)">
<path d="M291.8,859.5c0,0.2,0.1,1.8,0.1,2.5c0,0.7,-0.2,2.9,-0.2,3.2c-0.1,0.4,-0.1,2,-0.2,2.2c0,0.1,0.4,-3.2,0.5,-3.4c0.1,-0.2,0.1,0.8,0.1,0.9c0,0,0.1,-2.1,0,-2.6c0,-0.5,-0.3,-2.8,-0.3,-2.8Z" class="g2_279" />
<path d="M300.3,834.1c0,0,0.7,0,1.4,0.2c0.7,0.3,0.9,0.3,1.7,0.8c0.8,0.5,0.8,0.7,1.5,1.1c0.6,0.4,1.2,0.8,1.7,1.4c0.5,0.6,1.5,1.8,1.6,2.1c0.2,0.3,-1.8,-2.3,-2.3,-2.5c-0.5,-0.1,1.6,1.4,2.9,3.9c1.3,2.6,1.3,3.5,1.4,4.1c0.1,0.7,0.7,3.2,0.7,4.4c0,1.3,0.3,2.5,0.6,3.7c0.3,1.1,0.4,2.8,0.4,2.8c0,0,-0.7,-3.2,-1,-3.1c-0.2,0.1,0.2,1.9,0.3,2.4c0.1,0.5,0.6,1.2,0.6,1.6c0,0.4,-0.7,-1.3,-0.8,-1.4c-0.1,-0.1,0.4,3.9,0.4,4.8c0,0.8,0.4,4.8,0.4,5.3c0,0.5,0.1,2.7,0.1,3.3c0,0.6,-0.1,1.2,-0.2,2c-0.1,0.8,-0.3,1.7,-0.2,1.6c0,-0.1,-0.2,-3.7,-0.1,-4.1c0.1,-0.5,0,-3.3,0,-4c-0.1,-0.6,-0.6,-3.5,-0.7,-4.3c0,-0.7,0.5,4.9,0.4,5.4c0,0.6,-0.3,2.9,-0.2,3.7c0,0.8,-0.2,1.2,-0.1,2.8c0,1.5,0,2.8,-0.1,3.5c-0.1,0.7,-0.4,2.8,-0.4,2.8c0,0,-1.5,-5.3,-0.8,-8c0.6,-2.7,0.7,-3.1,0.8,-3.6c0,-0.4,0.3,-3.5,0.3,-3.5c0,0,-0.5,-1.7,-0.6,-1.9c0,-0.3,0.3,2.2,0.2,2.7c-0.1,0.4,-0.2,1.9,-0.2,1.8c0.1,0,-0.1,-4.5,-0.1,-4.6c0,-0.1,-0.1,6.6,-0.2,6.9c-0.2,0.4,-0.2,-5.7,-0.2,-5.9c0,-0.2,-0.1,5.6,-0.1,5.6l-0.2,-5.2c0,0,0.4,-1.5,0.5,-2.8c0.2,-1.3,0.1,-4.1,0.2,-5.1c0.1,-1,-0.1,-2.5,0,-5c0,-2.5,-0.4,-4.5,-0.5,-5.2c-0.1,-0.7,0,-1.7,-2,-5.1c-2,-3.3,-2.9,-3.3,-3.7,-3.9c-0.8,-0.7,-1.5,-0.9,-2,-1.1c-0.5,-0.2,-1.4,-0.4,-1.4,-0.4Z" class="g2_279" />
<path d="M303.3,835.6c0.1,0,1.1,0.7,2.6,2.6c1.7,2.1,1.9,3.4,2,4c0.2,0.6,0.6,1.6,0.7,3.4c0.1,1.9,0.4,4.6,0.3,5.8c-0.1,1.3,-0.2,3,-0.1,4.2c0.2,1.2,0.4,4,0.3,4.8c-0.1,0.7,-0.1,3.9,-0.7,5.2c-0.7,1.3,-0.9,2.2,-0.9,2.2c0,0,0.9,-4.5,0.9,-4.9c0,-0.5,0.3,-3.8,0.2,-4.5c-0.1,-0.7,-0.3,-3.8,-0.2,-4.5c0,-0.8,-0.1,-6.8,-0.2,-7.5c0,-0.7,-0.4,-3.6,-0.6,-4.4c-0.3,-0.8,-0.8,-2.6,-2.3,-4.3c-1.5,-1.8,-2,-2.1,-2,-2.1Z" class="g2_279" />
<path d="M307.7,850.4c0,0.1,0,2.8,0,3.5c-0.1,0.7,-0.1,2.1,0,3c0,0.8,0.2,1,0.3,1.8c0,0.7,-0.3,3.7,-0.5,4.3c-0.2,0.7,0.7,-3,0.8,-4.2c0,-1.1,0,-3.5,-0.1,-4.2c-0.1,-0.8,-0.2,2.5,-0.2,2.6c-0.1,0.1,-0.1,-3.9,-0.1,-4.5c0.1,-0.6,-0.2,-2.3,-0.2,-2.3Z" class="g2_279" />
<path d="M304.8,866.7c0,-0.1,0.8,-2.5,1.2,-4.3c0.4,-1.7,0.7,-2.5,0.7,-2.6c0,-0.2,0.3,1.6,0.3,2.3c0.1,0.6,0.2,0.9,0.2,2.3c-0.1,1.4,-0.9,3.3,-1.2,3.9c0.5,-1.3,0.9,-2.7,1,-3.6c0,-0.9,-0.2,-1.3,-0.2,-1.3c0,0,-0.1,2.2,-0.2,2.6c-0.2,0.5,-0.3,-1.5,-0.4,-1.9c0,-0.5,-0.5,0.7,-0.6,1c-0.1,0.3,-0.8,1.6,-0.8,1.6Z" class="g2_279" />
<path d="M303.5,873c-0.2,0.1,1.3,-1.6,1.5,-2.4c0.1,-0.2,-0.5,0.5,-1,0.7c0.3,-0.2,0.8,-0.6,1.5,-1.6c0.7,-1.1,0.6,-1.1,0.9,-1.7c0.3,-0.7,0.9,-3,1,-3.3c0.1,-0.3,0.9,-3.4,0.9,-3.4c0,0,-0.4,3,-0.8,4c-0.3,0.9,-0.8,2.4,-1,2.9c-0.1,0.4,-2.3,4.3,-3,4.8Z" class="g2_279" />
<path d="M295,859.2c0,0,1,1.5,1.6,2.1c0.7,0.7,1.9,1.1,2.9,1.1c0.9,0,2.6,-0.1,4.1,-0.9c1.5,-0.8,2,-1.4,2.2,-1.4c0.1,-0.1,0.2,0.6,-0.2,1c-0.4,0.3,-1.7,1.3,-2.6,1.7c-0.9,0.3,-3,0.8,-4.7,0.2c-1.7,-0.7,-3.4,-2.5,-3.7,-3.1c-0.4,-0.7,0.2,0.3,0.7,0.5c0.5,0.7,-0.3,-1.2,-0.3,-1.2Z" class="g2_279" />
<path d="M312.6,861.1c0.1,0.1,0.9,0.3,1.9,0.8c1.4,0.8,2.7,2,3,2.3c0.5,0.6,1.9,2.7,2.3,4.6c0.2,1.3,0,2.5,0,2.5c0,0,-0.2,-3.6,-2.5,-6.7c-1.1,-1.5,-2.2,-1.9,-2.8,-2.2c-0.6,-0.4,-1.7,-0.7,-1.9,-0.6c-0.2,0.2,0.1,2.5,0,3.3c-0.1,0.7,-0.4,2.8,-0.4,2.8c0,0,-0.4,-5.5,-0.3,-6.7c0,-1.2,-0.3,-3.7,-0.3,-3.7Z" class="g2_279" />
<path d="M290.7,860.4c-0.3,0.1,-2.6,0.6,-3.1,0.9c-0.6,0.2,-2.5,1.6,-3.2,2.5c-0.6,0.9,-1.5,3.6,-1.5,3.6c0,0,1,-3.2,2.4,-4.2c1.4,-0.9,1.7,-1.6,2.9,-1.8c1.1,-0.2,2.5,-1,2.5,-1Z" class="g2_279" />
</g>
<path d="M300.4,898.6c0,0,0.1,-0.3,-0.4,-0.6c-0.5,-0.3,-1,-0.5,-2.3,-0.4c-1.3,0,-1.5,0.4,-1.5,0.4c0,0,0.7,-0.1,1.2,-0.1c0.5,0.1,0.9,0.1,1.5,0.4c0.6,0.3,1.1,0.5,1.5,0.3Z" class="g3_279" />
<path d="M305,898.6c0,0,-0.8,-0.1,-1.2,-0.1c-0.4,0.1,-0.6,0.3,-0.5,0.5c0.1,0.1,0.5,0.2,1.2,0.2c0.7,0,0.7,0.1,0.8,0.1c0.1,0,-0.3,-0.7,-0.3,-0.7Z" class="g3_279" />
<path d="M298.4,899.6c0,0,-0.1,0,-0.1,-0.1c0,-0.1,0.1,-0.2,0.1,-0.2c0.1,0,0.2,0.1,0.2,0.2c0,0.1,-0.1,0.1,-0.2,0.1m0.4,-0.4c-1,-0.5,-1.9,0.1,-1.9,0.1l0.4,0.2c0,0,0.1,-0.2,0.4,-0.2c0.2,-0.1,0.4,-0.1,0.4,-0.1c0,0,-0.2,0.6,0.3,0.7c0.5,0.2,0.6,0.1,0.7,-0.1c0.1,-0.2,0,-0.3,0,-0.3c0,0,0.4,0,0.7,0.7c0,0,0.1,-0.6,-1,-1Z" class="g3_279" />
<path d="M304.4,900.5c-0.1,0,-0.1,0,-0.1,-0.1c0,-0.1,0,-0.1,0.1,-0.1c0.1,0,0.2,0,0.2,0.1c0,0.1,-0.1,0.1,-0.2,0.1m0.8,-0.3c0,0,-0.4,-0.2,-0.9,-0.1c-0.5,0,-1,0.7,-1,0.7l0.3,-0.1c0,0,0,-0.2,0.4,-0.4c0,0.2,-0.1,0.4,0.4,0.5c0.5,0.2,0.6,0,0.7,-0.1c0,-0.2,-0.1,-0.4,-0.1,-0.4Z" class="g3_279" />
<path d="M302.6,899.8c-0.1,0.1,-0.7,1.1,-0.8,1.8c-0.1,0.7,-0.2,1.5,-0.1,1.7c0.2,0.2,0.4,0.7,0.4,0.8c0,0.2,0.3,0,0.3,-0.1c0.1,-0.1,0.2,-0.6,0.3,-0.5c0.1,0.1,0.3,0.4,0.2,0.6c0,0.1,0.1,0.5,-0.1,0.6c-0.3,0,-0.4,-0.1,-0.7,-0.1c-0.2,0.1,-0.3,0.1,-0.5,0.2c-0.2,0.1,-0.6,0.2,-0.8,0.1c-0.2,-0.1,-0.4,-0.5,-0.7,-0.6c-0.3,-0.1,-0.4,0,-0.4,0c0,0,0.2,0.1,0.5,0.2c0.3,0.2,0.6,0.6,0.9,0.6c0.3,0,0.8,-0.3,1.2,-0.3c0,0,0.2,0.1,0.4,0c0.3,0,0.6,-0.5,0.4,-1c-0.2,-0.6,-0.3,-0.4,-0.5,-0.8c-0.2,-0.4,-0.3,-1.2,-0.3,-1.7c0,-0.5,0.3,-1.5,0.3,-1.5Z" class="g3_279" />
<path d="M298.7,903.6c-0.1,0.1,-1,0.6,-1.4,0.9c-0.4,0.3,-0.6,0.5,-0.5,0.8c0,0.3,0.3,0.9,0.3,0.9c0,0,-0.7,-1.1,-0.6,-1.3c0,-0.1,2.2,-1.3,2.2,-1.3Z" class="g3_279" />
<path d="M300.9,907.2c-1.1,0,-1.3,-0.4,-1.6,-0.6c-0.3,-0.2,-1,-0.8,-1,-0.8c0,0,2.2,0.6,2.5,0.6c0.2,0,0.8,0,1.3,0.1c0.5,0,0.7,0.1,0.7,0.1c0,0,-0.9,0.7,-1.9,0.6m2.4,-0.9c-0.1,0,-0.4,0,-0.9,-0.1c-0.6,-0.1,-0.9,-0.3,-1.1,-0.3c-0.2,0,-0.4,0,-0.7,0c-0.2,0,-0.6,-0.2,-0.8,-0.2c-0.2,0,-1.2,-0.1,-1.5,-0.1c-0.3,-0.1,-0.8,-0.5,-0.9,-0.4c0,0,0.7,1.4,1.2,1.8c0.5,0.3,1.1,0.7,1.1,0.7c0,0,-0.1,-0.1,-0.3,-0.3c-0.2,-0.2,0.3,0,0.2,-0.1c-0.1,-0.1,-0.5,-0.2,-0.6,-0.3c-0.2,-0.1,0.2,-0.2,0.5,0c0.3,0.2,0.3,0.2,0.5,0.3c0.2,0.1,0.1,0.2,0.2,0.3c0,0.2,-0.4,0.2,0,0.2c0.4,0,1.4,0,1.9,-0.2c0.6,-0.2,0.7,-0.4,0.9,-0.8c0.3,-0.4,0.4,-0.6,0.3,-0.5Z" class="g3_279" />
<path d="M299.6,910.4c0,0,0.5,0.2,1.4,0c0.9,-0.3,3.3,-2.1,3.3,-2.1c0,0,0,0.1,0,0.5c-0.1,0.4,-0.3,0.3,-0.2,1.2c0.2,0.9,0.3,1.3,0.4,1.5c0,0.2,0,0.4,-0.1,0.5c-0.1,0.1,0,-0.7,-0.3,-1.1c-0.3,-0.4,-0.1,-0.6,-0.6,-0.7c-0.5,0,-0.7,-0.2,-1,0.1c-0.3,0.2,0.1,0.2,-0.9,0.4c-0.9,0.1,-1.9,-0.1,-2,-0.3Z" class="g3_279" />
<g clip-path="url(#c3_279)">
<path d="M288.5,913.6c-0.1,0.2,0.5,-0.7,0.6,-0.5c0.2,0.2,0.1,0,0.5,1.4c0.4,1.3,1.7,5,5.8,5.1c4.1,0.2,7.6,-1.3,7.6,-1.3c0,0,-5.6,1.8,-8.6,0.8c-3,-1.1,-3.4,-2.4,-3.7,-3.2c-0.4,-0.8,-0.7,-1.4,-1,-2c-0.3,-0.7,-0.6,-1.7,-1.2,-0.3Z" class="g3_279" />
<path d="M311.2,912.1c0.3,0,0.5,0.2,0.5,0.3c0,0,-0.6,0.3,-1,0.6c-0.4,0.3,-1.6,2.1,-2.6,2.9c-0.9,0.9,-1.8,2.2,-3.9,3.2c-2.1,0.9,-3.6,1.2,-3.7,1.2c-0.1,0,4.6,-1.6,6.4,-3.5c1.9,-1.8,2.5,-2.8,3,-3.4c0.5,-0.5,1.3,-1.3,1.3,-1.3Z" class="g3_279" />
<path d="M287.5,913.5c-0.4,0.2,-0.3,0.3,-1,0.5c-0.7,0.1,-2.6,2.4,-2.9,5.1c-0.3,2.7,0.7,-0.9,1,-0.6c0.4,0.2,0.7,0.4,1,1c0.3,0.6,1.7,1.5,1.5,0.8c-0.2,-0.8,-0.8,-1.9,-0.1,-2.5c0.7,-0.6,0.5,-1.9,1.1,-2c0.5,-0.2,1,0.4,1.3,1.1c0.2,0.7,1.1,1.4,1,1.3c0,-0.1,-1.3,-2.5,-1.4,-3.3c-0.2,-0.8,-0.4,-0.9,-0.7,-1.1c-0.3,-0.2,-0.8,-0.3,-0.8,-0.3Z" class="g3_279" />
<path d="M311.2,916.8c-0.9,1.5,-1.3,3.9,-1.3,3.9c0,0,1,-3,1.7,-3.9c0.8,-0.9,1.8,-2.2,2.5,-2.4c0.7,-0.2,1.2,-0.2,1.6,0.5c0.5,0.8,1.1,2.4,1,2.6c0,0.3,0,-0.3,0.2,-0.6c0.2,-0.2,0.1,-0.3,-0.2,-0.9c-0.2,-0.6,-0.8,-2.2,-2.4,-2.6c-1.6,-0.4,-2,-0.5,-2.4,-0.3c-0.4,0.1,-1.5,1,-2.6,2.4c-1.2,1.3,1.5,-1.4,2.5,-1.7c1.1,-0.4,2.8,-0.4,2.5,-0.1c-0.3,0.3,-2.1,1.7,-3.1,3.1Z" class="g3_279" />
<path d="M290.7,913.6c0,0,1.5,-0.1,3.9,-1.9c2.4,-1.8,1.7,-1.3,1.7,-1.8c0.1,-0.5,0,2.1,-2.4,2.9c-2.3,0.7,-3.2,0.8,-3.2,0.8Z" class="g3_279" />
<path d="M309.6,906.8c-0.1,0,-0.2,-0.1,-0.3,-0.1c-1.1,-0.5,-0.9,-0.9,-1.6,-1.8c-0.7,-0.9,-1.2,-2.6,-2.1,-5.1c-0.9,-2.6,-1.4,-3.1,-1.4,-3.1c-0.4,-0.8,-2.2,-3.3,-2,-3.2c0.1,0.2,3,3.5,3.6,5.9c0.6,2.5,2.3,5.2,3,6.5c0.2,0.4,0.5,0.7,0.8,0.9c1,0.4,1.3,0.5,1.3,0.5c0,0,-0.7,-0.1,-1.3,-0.5M300.3,890c0.1,-0.1,1.8,0,3.5,1.2c1.7,1.2,2.1,1.3,3.5,3.4c1.4,2.1,-0.1,0.2,-1.9,-1.6c-2.3,-2.5,-5.1,-3,-5.1,-3m2.4,-1.4c0.9,0.2,2.2,0.8,2.6,1c0.6,0.5,1.2,1.1,1.8,1.8c0.5,0.7,1.2,1.4,2,3c0.8,1.6,1.7,4.4,2.1,6.3c0.4,1.5,0.8,2.7,0.9,3.2c0,0.1,0.1,0.1,0.1,0.1c0,0,-0.1,0,-0.1,-0.1c-0.3,-0.9,-1.6,-4.5,-1.8,-5.5c-0.3,-1.1,-1.7,-4.4,-2.7,-5.8c-1,-1.3,-1.9,-2.2,-2.9,-2.7c-1,-0.6,-3.7,-1.2,-3.7,-1.2c0.2,-0.2,0.8,-0.2,1.7,-0.1m-6.5,4.3c-0.6,0.5,-1,1,-1.8,2.2c-0.9,1.2,-1.2,6.1,-1.2,6.6c-0.1,0.3,-0.8,2,-1.3,3.3c-0.1,0.7,-0.2,1.1,-0.4,1.4c-0.1,0.1,0.1,-0.6,0.4,-1.4c0.1,-0.3,0.2,-0.7,0.3,-1.1c0.4,-1.2,0.5,-3.1,0.5,-3.1c0,0,-0.3,0.9,-1,1.5c-0.6,0.7,-1.7,1.7,-1.8,1.8c-0.1,0,0.4,-0.6,1,-1.4c0.6,-0.8,1.8,-2.3,2.1,-3.4c0.2,-1,0.4,-2.9,0.1,-2.3c-0.3,0.4,-1.1,1.8,-1.5,2.5c-0.1,0.2,-0.2,0.3,-0.2,0.4c-0.1,0.1,0,-0.1,0.2,-0.4c0.3,-0.6,0.7,-1.6,1,-2.4c0.5,-1.1,0.4,-1.9,0.8,-2.8c0.4,-0.8,1,-1,1.5,-1.6c0.5,-0.6,1.1,-0.6,1.2,-0.5c0,0,-0.1,0.4,-0.7,0.8c-0.6,0.4,-0.6,0.4,-0.8,0.8c-0.3,0.3,-0.8,1.9,-0.8,1.9c0,0,0.2,-0.3,0.7,-1.2c0.5,-0.9,1.9,-1.9,1.7,-1.6m-6,15.4c-0.4,-1.5,-0.6,-2,-0.5,-2.2c0,-0.2,0.3,-0.5,0.5,-0.6c-0.2,0.1,-0.3,0.3,-0.3,0.8c0.1,0.6,0.1,1.7,0.7,2.5c0.2,0.3,0.5,0.8,0.9,1.2c-0.4,-0.1,-1.1,-0.6,-1.3,-1.7m20.5,1.3c0.3,-0.3,1.9,-3.3,1.8,-5.7c0,-2.3,-1.6,-8.3,-2.7,-10.8c-1.1,-2.4,-3.3,-4.7,-5,-5.3c-1.6,-0.6,-3.4,-0.2,-3.7,-0.2c-0.3,0,-1.5,-0.2,-1.9,-0.1c-0.4,0.1,-1.2,0,-2,0.4c-0.8,0.3,-3.3,2.2,-4.6,4.9c-1.3,2.7,-1.1,5.5,-1.3,6.2c-0.3,0.7,-1.3,1.9,-1.3,2.8c0,1,-0.3,1.4,-0.5,2.1c-0.1,0.8,-0.7,1.9,-0.4,3.2c0.3,1.3,0.5,2.4,1.7,2.8c0.3,0.1,0.6,0.2,0.7,0.2c0.5,0.7,1.1,1.3,1.4,1.4c0.5,0.2,1,0.3,1.7,0.2c0.6,-0.1,1.6,-1,1.7,-1.1c0.1,-0.2,0,-0.6,0,-1.1c0.1,-0.5,-0.2,-2.1,-0.2,-2.1c0,0,-1.3,-1.8,-1.5,-3.2c-0.2,-1.5,-0.2,-7.1,0.5,-8.4c0.7,-1.4,1.1,-2.5,2.3,-3.1c1.2,-0.6,1.4,-1,1.4,-1.3c0,-0.2,0,-0.3,0,-0.5c0,0.3,0.2,0.5,0.5,0.8c0.5,0.4,1,0.7,2.3,2c1.3,1.3,2.5,3,2.9,4.1c0.3,1.1,0.5,1.8,0.9,3.1c0.3,1.2,0.5,2.9,1.3,4c0.2,0.6,-2,2.9,-2,2.9l0,1.6c0,0.6,0,1.1,0.3,1.3c0.3,0.2,0.1,0.4,-0.1,0.8c-0.2,0.3,-0.3,0.8,-0.3,1.3l0.1,0.5c0,0,0,-0.2,0.8,-0.3c0.8,0,1.8,-0.9,1.8,-0.9c0,0,0.4,0.8,0.9,1.1c0.4,0.4,1.1,0.3,1.1,0.3c0,0,-1.1,-0.6,-1.1,-0.9c0,-0.3,0.7,-0.3,1.1,-0.1c0.4,0.2,0.6,0.2,1,0c0.4,-0.1,0.6,-0.3,0.6,-0.3c0,0,-0.6,-1.1,-0.6,-1.5c-0.1,-0.4,0,-0.9,0.4,-1.1Z" class="g3_279" />
</g>
<path d="M295.3,1033.4c-0.1,0,-0.1,-0.1,-0.1,-0.1c0,-0.1,0,-0.1,0.1,-0.1c0,0,0.1,0,0.1,0.1c0,0,-0.1,0.1,-0.1,0.1m-0.3,-0.5c-0.7,0.1,-1.1,0.7,-1.3,0.8c0,0,0.3,0,0.4,0c0.1,-0.1,0.7,-0.7,0.7,-0.5c0,0.3,0.1,0.7,0.7,0.7c0.5,-0.1,0.6,-0.6,0.6,-0.6c0,0,0.1,-0.1,0.5,0.5c-0.2,-0.7,-0.8,-1.1,-1.6,-0.9Z" class="g2_279" />
<path d="M301.2,1033.1c-0.1,0,-0.1,-0.1,-0.1,-0.1c0,-0.1,0,-0.1,0.1,-0.1c0,0,0.1,0,0.1,0.1c0,0,0,0.1,-0.1,0.1m1.5,0.1c-0.1,-0.2,-0.4,-0.7,-1.2,-0.8c-0.6,0,-0.9,0.1,-1.2,0.3c-0.3,0.2,-0.8,0.9,-0.8,0.9c0,0,0.3,-0.1,0.6,-0.4c0.3,-0.4,0.6,-0.3,0.6,-0.3c0,0,-0.1,0.4,0.3,0.5c0.6,0.3,0.9,-0.1,0.9,-0.1c0,0,0,-0.1,0.1,-0.2c0.2,0,0.3,0.2,0.4,0.2c0.1,0,0.4,0.1,0.3,-0.1Z" class="g2_279" />
<path d="M296.1,1032.4c0,0,-0.6,-0.5,-1.2,-0.6c-0.6,-0.1,-0.8,0,-1.1,0.1c-0.1,0.1,-0.6,0.6,-0.8,0.8l-0.1,0.3c0,0,0.5,-0.5,0.9,-0.6c0.3,-0.2,0.6,-0.3,1.1,-0.2c0.4,0.2,0.7,0.3,0.9,0.3c0.2,0.1,0.3,-0.1,0.3,-0.1Z" class="g2_279" />
<path d="M299.2,1032.2c0,0,0.2,-0.5,0.6,-0.6c0.4,-0.2,1.4,-0.3,2,-0.2c0.6,0.2,1.4,0.7,1.4,0.7c0,0,-1.3,-0.4,-1.7,-0.3c-0.5,0.1,-0.8,0.1,-1.2,0.3c-0.5,0.2,-1.2,0.3,-1.1,0.1Z" class="g2_279" />
<path d="M296.4,1033c0,-0.1,0.4,0.2,0.4,0.4c0,0.2,-0.1,1.2,-0.1,1.4c0,0.2,0.2,-1.5,-0.3,-1.8Z" class="g2_279" />
<path d="M296.2,1036.1c0,0,-0.3,0.7,-0.3,0.9c0,0.3,0.1,0.4,0.2,0.4c0.2,0,0.5,-0.1,0.6,0c0.1,0,0.5,0.3,0.6,0.3c0.1,0.1,-0.4,0,-0.5,0c-0.1,-0.1,-0.1,-0.2,-0.3,-0.2c-0.3,0,-0.6,0.1,-0.6,-0.1c-0.1,-0.1,-0.1,-0.5,0.3,-1.3Z" class="g2_279" />
<path d="M297.8,1037.5c0,-0.1,0.1,-0.3,0.3,-0.3c0.3,0,0.7,0,0.8,0c0,0,-0.4,0.2,-0.4,0.2c0.1,0.1,0.7,-0.1,0.8,-0.2c0.2,-0.2,0.3,-0.7,0.3,-0.9c-0.1,-0.2,-0.2,-0.3,-0.2,-0.3c0,0,0.3,0.1,0.3,0.6c0,0.5,-0.4,0.8,-0.5,0.8c-0.2,0.1,-0.7,0.2,-0.8,0.2c-0.1,0,-0.2,-0.2,-0.3,-0.2c-0.1,0,-0.3,0.1,-0.3,0.1Z" class="g2_279" />
<path d="M301,1039.2c0,0,-0.4,0.5,-0.7,0.6c-0.3,0.1,-0.4,0.1,-0.6,0.2c-0.3,0.1,-0.5,0.1,-0.9,0.2c-0.4,0,-0.9,0.1,-1.3,0c-0.4,0,-0.4,-0.1,-0.6,-0.2c-0.2,0,-0.2,-0.2,-0.3,-0.2c-0.2,-0.3,0,-0.5,0,-0.5c0,0,0.2,-0.1,0.6,-0.1c0.4,0,0.8,0.1,1,0.1c0.1,-0.1,1,-0.2,1.3,-0.3c0.3,-0.1,1,0,1.3,0.1c0.3,0,0.2,0.1,0.2,0.1m0.5,-0.3c-0.7,0,-1.7,-0.5,-2.3,-0.4c-0.7,0,-0.6,0.2,-1.2,0.1c-0.6,-0.1,-1,0,-1.4,0.1c-0.3,0,-1,0.5,-1,0.5c0,0,0.5,0.7,0.7,0.8c0.3,0.2,0.9,0.4,1.2,0.5c0.3,0,1.3,0,1.7,-0.1c0.4,-0.1,0.9,-0.3,1.1,-0.3c0.2,-0.1,0.1,-0.1,-0.1,0.1c-0.2,0.2,-0.7,0.3,-1.2,0.4c-0.5,0.1,-0.7,0.2,-1.2,0.1c-0.6,0,-0.7,0,-1.1,-0.2c-0.4,-0.2,-0.4,-0.3,-0.5,-0.4c-0.1,0.1,0.4,0.8,0.8,0.9c0.4,0.2,0.7,0.2,0.9,0.2c0.3,0,1.2,0,1.7,-0.2c0.4,-0.2,0.9,-0.8,1.2,-1.1c0.3,-0.3,1.2,-1,0.7,-1Z" class="g2_279" />
<g clip-path="url(#c4_279)">
<path d="M293.1,1033.1c0,0,-0.1,0.7,-0.2,1.2c0,0.4,-0.1,1.1,-0.1,1.5c0,0.4,0.2,1.3,0.2,1.7c0,0.3,0.3,1.6,0.4,1.8c0.2,0.3,0.4,0.9,1,1.8c0.7,1,1.9,2.1,2.4,2.3c0.6,0.3,1.2,0.6,2.5,0.3c1.4,-0.3,2.7,-0.8,3.5,-1.5c-0.2,0.4,-1,0.9,-2.1,1.3c-1.2,0.5,-2.3,0.6,-3.4,0.4c-0.7,-0.2,-0.6,0,-0.7,0.6c-0.1,0.5,-0.1,1.3,-0.5,1.7c-0.3,0.4,-1.1,1.2,-1.4,1.3c-0.4,0.1,1.2,-0.9,1.4,-1.7c0.1,-0.4,-0.1,-0.9,-0.3,-1.4c-0.1,-0.6,-0.3,-0.8,-0.4,-1.2c0,-0.5,-0.6,-1.1,-0.6,-1.1c0,0,0.3,0.9,0.3,1.1c0.1,0.2,0.9,2.4,0.9,2.4c0,0,-0.9,-1.7,-0.9,-1.8c-0.1,-0.2,0.7,2.1,0.7,2.2c0.1,0.1,-0.5,-0.7,-0.6,-1c-0.1,-0.4,0.1,1.1,0.2,1.3c0.1,0.1,-0.5,-0.6,-0.5,-0.8c0,-0.2,-0.2,0.6,-0.3,1.2c-0.2,0.6,0,1.3,-0.4,1.7c-0.4,0.4,-0.9,0.4,-0.9,0.4c0,0,0.8,-1,0.9,-1.9c0,-0.9,-0.2,-2.5,-0.1,-3.3c0,-0.7,-0.6,-2.1,-0.6,-2.1c0,0,0.5,3.9,0.4,4.5c-0.2,0.7,-0.4,1.1,-0.5,1.7c-0.1,0.5,-0.4,1.5,-0.5,1.7c-0.2,0.2,-0.1,-2.5,0,-2.9c0,-0.3,0.1,0.7,0.2,0.7c0,-0.1,0,-1.7,0,-2.5c0,-0.7,-0.1,-0.8,-0.2,-1.5c0,-0.6,-0.2,-3.5,-0.2,-3.9c0,-0.5,0,-2.7,0,-2.7c0,0,0,5.2,-0.1,5.6c0,0.3,-0.1,2.3,-0.1,2.8c0,0.5,0,2.3,0,2.8c0,0.5,0,2.2,0,2.5c0.1,0.2,0.2,2.5,0.3,3.1c0,0.6,0.1,2.6,-0.1,2.9c-0.1,0.4,-0.1,-3.2,-0.2,-3.8c-0.1,-0.6,-0.3,-4,-0.2,-4.3c0,-0.3,-0.2,-1.3,-0.1,-1.7c0.1,-0.4,0,-2.2,0.1,-2.6c0,-0.5,-0.1,-1.5,0,-1.9c0.1,-0.3,0.2,-2.1,0.2,-2.4c0,-0.4,-0.1,-1.9,-0.1,-1.9c0,0,-0.6,7,-0.8,8.4c-0.1,1.4,-0.2,2.4,-0.3,3.2c-0.1,0.8,-0.3,2,-0.4,2.5c-0.1,0.5,0,2,0,2c0,0,0.1,-5.4,0.2,-6.2c0.1,-0.8,0.2,-3.6,0.4,-4.3c0.1,-0.7,0.2,-3.3,0.5,-4.2c0.3,-0.8,0,-1.3,0.2,-2.3c0.2,-1,0.4,-3,0.4,-3.2c0.1,-0.2,0.4,-1.6,0.5,-2.1c0.1,-0.6,0.5,-1.8,0.7,-2.3c0.2,-0.6,0.4,-1.2,0.6,-1.6c0.2,-0.4,-0.5,2,-0.7,2.3c-0.1,0.4,-0.3,1.4,-0.3,1.4c0,0,0.8,-2,1.3,-2.5c0.5,-0.6,1.4,-1.4,1.8,-1.6c0.4,-0.2,0.8,-0.3,0.8,-0.3c0,0,-1.6,0.7,-2.4,1.9c-0.7,1.1,-1.3,2.3,-1.4,2.6c-0.2,0.3,-0.4,1.7,-0.4,1.7Z" class="g2_279" />
</g>
<path d="M298.3,1025.8c0,0,-0.4,0.1,-0.8,0.4c-0.4,0.3,-0.6,0.1,-1,0.6c-0.4,0.4,-1.1,1,-1.5,1.3c-0.5,0.4,-0.6,0.7,-0.6,0.7c0,0,1,-1.2,1.3,-1.6c0.2,-0.4,1.2,-1,1.4,-1.1c0.2,-0.1,0.5,-0.4,0.4,-0.4c0,0,-0.4,0,-0.8,0.3c-0.3,0.3,-1.3,1.2,-1.3,1.2l1.1,-1.3l-1.2,1.1c0,0,1,-1.2,1.7,-1.6c0.7,-0.4,0.6,-0.5,0.4,-0.5c-0.2,0.1,-1.4,0.9,-1.8,1.3c-0.4,0.4,0.8,-0.9,1.2,-1.2c0.3,-0.3,-0.7,0.2,-0.7,0.2c0.1,-0.1,0.9,-1,1.4,-1.1c0.4,-0.1,0.8,0,0.9,0c0.1,-0.1,-0.1,0.3,-0.1,0.5c0,0.2,0.1,0.9,0,1.1c-0.1,0.1,0,0.1,0,0.1Z" class="g2_279" />
<path d="M298.5,1023.9c0,0,-0.9,-0.2,-1.2,-0.1c-0.3,0.1,-1,0.6,-1.3,1c-0.3,0.4,-1.1,1.4,-1.3,1.7c-0.2,0.4,-0.5,0.6,-0.8,1.2c-0.2,0.7,-0.9,2.8,-1,3.2c-0.1,0.4,-0.2,1.6,-0.5,1.9c-0.2,0.4,-0.3,0.4,-0.3,0.4c0,0,0.2,-1.6,0.3,-2.1c0.2,-0.6,0.5,-2.7,0.8,-3.1c0.2,-0.5,0.8,-1.9,1,-2.1c0.3,-0.2,-0.4,0.8,-0.4,1.1c-0.1,0.4,0.9,-1.5,1.5,-2c0.6,-0.5,0.9,-0.9,1.2,-1c0.2,-0.1,-1.1,0.8,-1.5,1.5c-0.4,0.7,-1,1.6,-0.9,1.5c0,0,1.6,-2.4,2.8,-3.1c0.9,-0.5,1.6,0,1.6,0Z" class="g2_279" />
<g clip-path="url(#c4_279)">
<path d="M289.6,1051.5c0,0,0.6,-2.3,0.7,-2.7c0.2,-0.5,0.6,-3.4,0.7,-4.1c0.1,-0.6,0.1,-1.3,0.2,-1.5c0,-0.2,0,-0.6,0.1,-1c0.1,-0.3,-0.1,-1.4,0.1,-1.7c0.2,-0.3,0.4,-1.7,0.4,-2.2c0,-0.6,0,-1.8,0.1,-2.4c0,-0.7,0.1,-1.5,0.1,-1.5c0,0,-0.2,0.9,-0.4,1.4c-0.1,0.4,-0.1,0.9,-0.2,1.4c-0.1,0.5,-0.2,1,-0.2,1.6c0,0.6,-0.2,0.9,-0.2,1.6c0,0.6,0,0.8,-0.1,1.3c-0.1,0.5,-0.3,1.7,-0.5,2.2c-0.1,0.5,-0.4,2.4,-0.6,3.1c-0.2,0.8,-1.2,4.2,-1.3,4.7c-0.1,0.4,0.1,1.4,0.2,1.8c0.2,0.4,0.5,0.8,0.5,0.8c0,0,-0.7,-1.5,-0.4,-2.7c0.4,-1.2,0.8,-2.8,1.1,-3.5c0.3,-0.8,0.7,-3.6,0.8,-4.2c0.2,-0.6,0.2,0.9,0,1.7c-0.2,0.7,-1.1,5.9,-1.1,5.9Z" class="g2_279" />
<path d="M288.3,1049.9c0,-0.1,0.6,-3.3,0.7,-3.8c0,-0.5,0.3,-2.9,0.7,-3.8c0.5,-0.8,0.7,-2.9,0.9,-3.5c0.2,-0.6,0.4,-1.8,0.5,-2.2c0.1,-0.3,0,-1.6,0.2,-2.3c0.2,-0.7,0.1,-2.6,0.3,-3c0.1,-0.3,0.2,-1.6,0.3,-1.7c0.1,-0.2,0.8,-1.1,0.8,-1.1c0,0,-0.6,1.3,-0.7,1.6c-0.1,0.2,0.5,-0.5,0.5,-0.5c-0.1,0.1,0,1.2,-0.3,1.8c-0.3,0.6,-0.3,1.9,-0.5,2.5c-0.1,0.6,-0.1,1.5,-0.2,1.7c-0.1,0.2,-0.3,1.7,-0.4,2c-0.1,0.3,-0.4,2.1,-0.5,2.9c-0.2,0.9,-0.5,1.9,-0.6,2.4c-0.2,0.4,-0.6,2,-0.8,2.5c-0.1,0.5,-0.3,2.7,-0.5,3.3c-0.2,0.7,-0.4,1.2,-0.4,1.2Z" class="g2_279" />
</g>
<path d="M292,1028.8c0,0,0.9,-1.9,1,-2.4c0.1,-0.5,1.3,-1.9,1.7,-2.2c0.5,-0.4,1.1,-0.6,1.1,-0.6c0,0,-1,0.7,-1.4,1.1c-0.4,0.3,-1,1.5,-1.2,1.9c-0.3,0.4,-0.3,0.5,-0.5,0.9c-0.2,0.3,-0.7,1.3,-0.7,1.3Z" class="g2_279" />
<path d="M297,1023.4c-0.1,0,-0.4,0,-1,0.3c-0.5,0.3,-1.3,1.1,-1.5,1.3c-0.3,0.3,-0.5,0.6,-0.8,1.1c-0.3,0.6,-0.5,1.4,-0.5,1.4c0,0,0.8,-1.8,1.3,-2.4c0.6,-0.5,0.9,-0.8,1.3,-1.1c0.5,-0.2,1.2,-0.6,1.2,-0.6Z" class="g2_279" />
<path d="M295.4,1023.4c0.2,-0.1,0.9,-0.4,1.2,-0.6c0.3,-0.2,0.5,0,0.5,0c0,0,-0.5,0.2,-0.7,0.4c-0.3,0.2,-1,0.2,-1,0.2Z" class="g2_279" />
<g clip-path="url(#c4_279)">
<path d="M298.6,1023.1c0,0,-0.3,-0.6,-0.8,-0.7c-0.5,-0.1,-1.1,-0.1,-1.4,0.1c-0.2,0.1,0.2,-0.4,1.1,-0.3c0.8,0.1,0.9,0.2,1,0.3c0.2,0.1,-0.1,-0.6,-0.1,-0.6c0,0,0.2,0.2,0.3,0.3c0,0.1,0.3,0.5,0.4,0.5c0.2,0,0.8,0.1,1,0.2c0.2,0.1,0.7,0.4,0.7,0.4c0,0,-1,-0.4,-1.3,-0.3c-0.2,0,-0.4,0.1,-0.2,0.1c0.3,0.1,1.4,0.2,1.8,0.4c0.3,0.2,1.5,0.8,1.7,1c0.3,0.2,2.1,1.9,2.5,2.2c0.4,0.2,0.1,0,-0.1,-0.4c-0.2,-0.3,-0.9,-0.9,-0.9,-1c0,-0.1,0.7,0.2,1.6,1.5c0.9,1.4,1.5,3.4,1.6,4.1c0.2,0.7,0.3,1.3,0.3,1.7c0.1,0.5,0.2,3.4,0.3,4c0,0.6,0.2,2.8,0.2,3.3c-0.1,0.5,-0.1,1.1,-0.1,1.1c0,0,-0.4,-4.4,-0.4,-4.6c0,-0.3,-0.3,-2.1,-0.3,-2.3c0,-0.3,-0.1,-0.4,-0.3,-0.6c-0.3,-0.2,-1.1,-1,-1.2,-1.2c-0.2,-0.2,-0.9,-1.1,-0.8,-1.2c0,0,0.4,0.4,0.9,0.7c0.6,0.4,1.3,0.6,1.3,0.6c0,0,-0.9,-0.6,-1.3,-0.9c-0.4,-0.3,-1.3,-1.4,-1.4,-1.6c0,-0.1,1.2,0.9,1.3,1c0.1,0,-0.4,-0.8,-0.5,-0.9c-0.1,-0.2,-1.1,-0.7,-1.6,-1.1c-0.5,-0.3,-1.5,-0.8,-1.7,-1c-0.3,-0.3,-1.9,-1.2,-2.1,-1.4c-0.1,-0.3,-0.8,-0.7,-0.8,-0.7c0,0,1.5,1,1.8,1.1c0.3,0.1,1,0.7,1.4,1c0.4,0.3,0.8,0.4,1.3,0.7c0.6,0.2,1.1,0.5,1.4,0.8c0.3,0.2,0.8,0.6,1,0.7c0.1,0.1,0.7,0.6,0.7,0.6c0,0,-1.8,-1.7,-1.9,-1.8c-0.1,-0.1,-1.4,-0.6,-1.6,-0.7c-0.1,-0.1,-2.3,-1.6,-2.5,-1.8c-0.1,-0.1,-1.1,-1,-1.3,-1.1c-0.2,-0.2,0.1,-0.3,0.3,-0.1c0.3,0.3,0.9,0.7,1.4,1.1c0.5,0.4,1.7,1.4,2,1.6c0.4,0.3,0.9,0.5,0.9,0.5l-2.8,-2.4c0,0,2,1.6,2.1,1.6c0.2,0.1,-2.3,-2,-2.6,-2.3c-0.2,-0.2,1.8,1.3,2.4,1.8c0.6,0.6,1.1,1,1.5,1.3c0.4,0.3,1,1,1.4,1.4c0.4,0.4,0.8,0.6,0.7,0.6c0,-0.1,-0.9,-1.4,-1.1,-1.6c-0.2,-0.2,-2.7,-2.3,-2.7,-2.4c-0.1,-0.1,2.2,1.7,2.9,2.4c0.7,0.8,0.7,0.8,0.5,0.4c-0.2,-0.4,-1.8,-1.9,-2.3,-2.5c-0.4,-0.5,1.1,1,1.3,1.1c0.2,0.1,0.7,0.7,0.8,0.7c0,0,-0.3,-1,-0.7,-1.3c-0.4,-0.3,-1.9,-1.7,-2.4,-2.2c-0.6,-0.4,-1.5,-1,-1.9,-1.2c-0.5,-0.2,-1.2,-0.3,-1.4,-0.3c-0.3,0,0.4,0.2,0.8,0.4c0.3,0.1,1.9,1,2.3,1.3c0.4,0.3,0.8,0.7,0.8,0.7c0,0,-2.6,-1.7,-3.3,-1.9c-0.6,-0.1,-0.8,-0.1,-0.7,-0.1c0,0,0.9,0.4,1.4,0.6c0.5,0.2,2.4,1.6,2.5,1.9c-0.2,-0.2,-2,-1.5,-2.1,-1.5c-0.2,-0.1,1.5,1.2,1.6,1.4c0.2,0.1,-2,-1.6,-2.5,-1.8c-0.4,-0.1,-1.3,-0.5,-1.5,-0.5c-0.3,0,0,-0.4,0,-0.5c0,-0.1,-0.5,-0.1,-0.5,-0.1Z" class="g2_279" />
<path d="M305.8,1032.4c0,-0.1,0.4,1.3,0.4,1.7c0,0.4,0,1.1,-0.1,1.8c-0.2,0.7,-0.4,4,-1.6,5.2c-1.2,1.3,-1.4,1.5,-1.4,1.5c0,0,1.8,-1.3,2.3,-2.2c0.4,-1,0.5,-1.6,0.5,-1.6c0,0,-0.7,3.2,-0.7,3.7c-0.1,0.4,-0.1,2.9,-0.1,3.8c0,0.8,0.2,2,0.2,2.4c0,0.5,-0.2,1.7,0,2.1c0.2,0.4,0.3,0.7,0.3,0.7c0,0,-0.3,-1.7,-0.2,-2.1c0.1,-0.4,0.1,-0.4,0.2,-0.3c0,0.1,0.2,0.7,0.2,1.1c0,0.3,0,0.4,0,0.4c0,0,0.2,-1,0.3,-1.3c0.1,-0.3,0.5,-2.1,0.6,-2.4c0,-0.2,-0.6,1.9,-0.7,2c-0.1,0.1,0.2,-1.4,0.3,-1.5c0,-0.1,0.3,-1.3,0.3,-1.7c0.1,-0.4,0.1,-1.3,0.2,-1.4c0,-0.2,0.3,-1.8,0.2,-2.2c-0.1,-0.5,0.4,-0.9,0.4,-1.1c0.1,-0.2,0,-2.1,0.1,-2.6c0,-0.4,0.2,-0.4,0.2,-0.7c0,-0.4,0,-0.9,-0.1,-0.9c0,0,-0.5,0.5,-0.7,0.6c-0.2,0.1,-0.5,0,-0.6,0c-0.1,0,-0.2,-0.8,-0.1,-1.4c0.1,-0.5,0.1,-0.8,0.1,-1.1c0.1,-0.3,0.1,-0.5,0.3,-0.4c0.1,0.1,0.4,0.4,0.6,0.4c0.2,0,0,-0.2,0,-0.4c-0.1,-0.2,0,-0.4,-0.2,-0.7c-0.1,-0.3,-1.2,-1.3,-1.2,-1.4Z" class="g2_279" />
</g>
<path d="M306.8,1035c-0.1,0.1,0,0.3,-0.1,0.6c-0.1,0.2,-0.4,0.5,-0.2,0.5c0.2,-0.1,0.4,-0.4,0.6,-0.5c0.2,-0.1,0.4,-0.1,0.4,-0.1c0,0,-0.7,-0.6,-0.7,-0.5Z" class="g2_279" />
<g clip-path="url(#c4_279)">
<path d="M291.8,1047.6c0,0.1,0.1,1.8,0.1,2.5c0,0.7,-0.2,2.8,-0.2,3.2c-0.1,0.4,-0.1,2,-0.2,2.1c0,0.2,0.4,-3.1,0.5,-3.3c0.1,-0.3,0.1,0.8,0.1,0.9c0,0,0.1,-2.1,0,-2.6c0,-0.6,-0.3,-2.8,-0.3,-2.8Z" class="g2_279" />
<path d="M300.3,1022.2c0,0,0.7,0,1.4,0.2c0.7,0.3,0.9,0.3,1.7,0.8c0.8,0.4,0.8,0.7,1.5,1.1c0.6,0.3,1.2,0.8,1.7,1.4c0.5,0.5,1.5,1.8,1.6,2.1c0.2,0.3,-1.8,-2.3,-2.3,-2.5c-0.5,-0.2,1.6,1.4,2.9,3.9c1.3,2.6,1.3,3.4,1.4,4.1c0.1,0.7,0.7,3.2,0.7,4.4c0,1.2,0.3,2.4,0.6,3.6c0.3,1.2,0.4,2.9,0.4,2.9c0,0,-0.7,-3.2,-1,-3.1c-0.2,0.1,0.2,1.8,0.3,2.3c0.1,0.6,0.6,1.3,0.6,1.7c0,0.4,-0.7,-1.3,-0.8,-1.4c-0.1,-0.1,0.4,3.9,0.4,4.7c0,0.9,0.4,4.8,0.4,5.3c0,0.5,0.1,2.8,0.1,3.4c0,0.6,-0.1,1.2,-0.2,2c-0.1,0.8,-0.3,1.7,-0.2,1.6c0,-0.1,-0.2,-3.7,-0.1,-4.2c0.1,-0.4,0,-3.2,0,-3.9c-0.1,-0.7,-0.6,-3.5,-0.7,-4.3c0,-0.7,0.5,4.8,0.4,5.4c0,0.6,-0.3,2.8,-0.2,3.6c0,0.9,-0.2,1.3,-0.1,2.8c0,1.6,0,2.9,-0.1,3.6c-0.1,0.7,-0.4,2.8,-0.4,2.8c0,0,-1.5,-5.3,-0.8,-8c0.6,-2.7,0.7,-3.1,0.8,-3.6c0,-0.4,0.3,-3.6,0.3,-3.6c0,0,-0.5,-1.7,-0.6,-1.9c0,-0.2,0.3,2.3,0.2,2.7c-0.1,0.5,-0.2,2,-0.2,1.9c0.1,-0.1,-0.1,-4.5,-0.1,-4.7c0,-0.1,-0.1,6.7,-0.2,7c-0.2,0.4,-0.2,-5.7,-0.2,-6c0,-0.2,-0.1,5.6,-0.1,5.6l-0.2,-5.1c0,0,0.4,-1.5,0.5,-2.9c0.2,-1.3,0.1,-4,0.2,-5c0.1,-1,-0.1,-2.5,0,-5c0,-2.5,-0.4,-4.5,-0.5,-5.2c-0.1,-0.7,0,-1.8,-2,-5.1c-2,-3.3,-2.9,-3.3,-3.7,-4c-0.8,-0.6,-1.5,-0.8,-2,-1.1c-0.5,-0.2,-1.4,-0.3,-1.4,-0.3Z" class="g2_279" />
<path d="M303.3,1023.7c0.1,0,1.1,0.6,2.6,2.5c1.7,2.2,1.9,3.4,2,4.1c0.2,0.6,0.6,1.5,0.7,3.4c0.1,1.9,0.4,4.5,0.3,5.8c-0.1,1.2,-0.2,2.9,-0.1,4.2c0.2,1.2,0.4,3.9,0.3,4.7c-0.1,0.8,-0.1,3.9,-0.7,5.2c-0.7,1.3,-0.9,2.3,-0.9,2.3c0,0,0.9,-4.5,0.9,-5c0,-0.4,0.3,-3.8,0.2,-4.5c-0.1,-0.6,-0.3,-3.7,-0.2,-4.5c0,-0.7,-0.1,-6.7,-0.2,-7.4c0,-0.7,-0.4,-3.6,-0.6,-4.4c-0.3,-0.8,-0.8,-2.7,-2.3,-4.4c-1.5,-1.7,-2,-2,-2,-2Z" class="g2_279" />
<path d="M307.7,1038.5c0,0.1,0,2.7,0,3.4c-0.1,0.8,-0.1,2.2,0,3c0,0.9,0.2,1.1,0.3,1.9c0,0.7,-0.3,3.6,-0.5,4.3c-0.2,0.7,0.7,-3.1,0.8,-4.2c0,-1.2,0,-3.5,-0.1,-4.3c-0.1,-0.7,-0.2,2.6,-0.2,2.7c-0.1,0.1,-0.1,-4,-0.1,-4.5c0.1,-0.6,-0.2,-2.3,-0.2,-2.3Z" class="g2_279" />
<path d="M304.8,1054.7c0,-0.1,0.8,-2.5,1.2,-4.2c0.4,-1.8,0.7,-2.5,0.7,-2.7c0,-0.1,0.3,1.7,0.3,2.3c0.1,0.7,0.2,0.9,0.2,2.4c-0.1,1.4,-0.9,3.3,-1.2,3.8c0.5,-1.2,0.9,-2.6,1,-3.5c0,-1,-0.2,-1.3,-0.2,-1.3c0,0,-0.1,2.2,-0.2,2.6c-0.2,0.4,-0.3,-1.5,-0.4,-2c0,-0.4,-0.5,0.7,-0.6,1c-0.1,0.3,-0.8,1.6,-0.8,1.6Z" class="g2_279" />
<path d="M303.5,1061c-0.2,0.1,1.3,-1.6,1.5,-2.3c0.1,-0.2,-0.5,0.5,-1,0.7c0.3,-0.2,0.8,-0.6,1.5,-1.7c0.7,-1,0.6,-1,0.9,-1.7c0.3,-0.6,0.9,-2.9,1,-3.2c0.1,-0.3,0.9,-3.4,0.9,-3.4c0,0,-0.4,3,-0.8,4c-0.3,0.9,-0.8,2.3,-1,2.8c-0.1,0.5,-2.3,4.4,-3,4.8Z" class="g2_279" />
<path d="M295,1047.3c0,0,1,1.5,1.6,2.1c0.7,0.6,1.9,1.1,2.9,1.1c0.9,0,2.6,-0.2,4.1,-0.9c1.5,-0.8,2,-1.4,2.2,-1.4c0.1,-0.1,0.2,0.6,-0.2,0.9c-0.4,0.4,-1.7,1.4,-2.6,1.7c-0.9,0.4,-3,0.8,-4.7,0.2c-1.7,-0.6,-3.4,-2.4,-3.7,-3c-0.4,-0.7,0.2,0.2,0.7,0.5c0.5,0.6,-0.3,-1.2,-0.3,-1.2Z" class="g2_279" />
<path d="M312.6,1049.2c0.1,0,0.9,0.2,1.9,0.8c1.4,0.7,2.7,1.9,3,2.3c0.5,0.5,1.9,2.7,2.3,4.6c0.2,1.3,0,2.4,0,2.4c0,0,-0.2,-3.6,-2.5,-6.6c-1.1,-1.5,-2.2,-1.9,-2.8,-2.3c-0.6,-0.3,-1.7,-0.6,-1.9,-0.5c-0.2,0.2,0.1,2.5,0,3.2c-0.1,0.8,-0.4,2.9,-0.4,2.9c0,0,-0.4,-5.5,-0.3,-6.7c0,-1.2,-0.3,-3.7,-0.3,-3.7Z" class="g2_279" />
<path d="M290.7,1048.4c-0.3,0.2,-2.6,0.6,-3.1,0.9c-0.6,0.3,-2.5,1.6,-3.2,2.5c-0.6,0.9,-1.5,3.6,-1.5,3.6c0,0,1,-3.1,2.4,-4.1c1.4,-0.9,1.7,-1.6,2.9,-1.8c1.1,-0.2,2.5,-1.1,2.5,-1.1Z" class="g2_279" />
</g>
<path d="M27.7,40.7l893.6,0l0,-11.4l-893.6,0l0,11.4Z" class="g4_279" />
<g clip-path="url(#c5_279)">
<path d="M28.8,116l1840.6,0" class="g5_279" />
</g>
<text 
x="59" 
y="361" 
dx="0,0,0,0,0,0,0,0,-0.9,0,0,0,0,0,0,0" 
class="s5_279"
>Before You Study</text>

<text 
x="59" 
y="383" 
dx="0,0.1,0.1,0.1,0.1,0.1,0.1,0.1,0.1,0.1,0.1,0.1,-0.1,0.1,0.1,0.1,0.1,0.1,0.1,0.1,0" 
class="s6_279"
>Answer the following </text>

<text 
x="59" 
y="398" 
dx="0,0.1,0.1,0.1,0.1,0.1,0.1,0.1,0.1,0.1,0.1,0.1,0.1,0.1,0.1,0.1,0.1,0.1,0.1,0.1,0.1,0.1,0,0" 
class="s6_279"
>questions in Chinese to </text>

<text 
x="59" 
y="412" 
dx="0,0.1,0,0.1,0.1,0.1,0,0.1,0.1,-0.1,0.1,0.1,0.1,0.1,0.1,0.1,0.1,0,0.1,0.1,0.1,0.1,0.1,0.1" 
class="s6_279"
>prepare for the reading.</text>

<text 
x="59" 
y="442" 
dx="0,0" 
class="s7_279"
>1 </text>

<text 
x="82" 
y="444" 
dx="0,0,0,0,0,0,0,0,0" 
class="s8_279"
>你觉得面试前应该怎</text>

<text 
x="82" 
y="468" 
dx="0,0,0,0" 
class="s8_279"
>么准备？</text>

<text 
x="59" 
y="497" 
dx="0,0" 
class="s7_279"
>2 </text>

<text 
x="82" 
y="499" 
dx="0,0,0,0,0,0,0,0,0" 
class="s8_279"
>你觉得面试的时候怎</text>

<text 
x="82" 
y="523" 
dx="0,0,0,0,0,0,0,0,0" 
class="s8_279"
>么能让自己不紧张？</text>

<text 
x="59" 
y="552" 
dx="0,0" 
class="s7_279"
>3 </text>

<text 
x="82" 
y="554" 
dx="0,0,0,0,0,0,0,0,0" 
class="s8_279"
>你觉得面试的时候应</text>

<text 
x="82" 
y="578" 
dx="0,0,0,0,0,0,0" 
class="s8_279"
>该注意些什么？</text>

<text 
x="59" 
y="612" 
dx="0,0,0,0,0,0,-0.9,0,0,0,0,0,0,0" 
class="s5_279"
>When You Study</text>

<text 
x="59" 
y="633" 
dx="0,0.1,0.1,0.1,0,0.1,0.1,0.1,0,0.1,0.1,0.1,0.1,0.1,0.1,0.1,0.1,0.1,0.1,0.1,0.1,0,0.1,0.1,0.1,0,0.1,0.1,0.1,0" 
class="s6_279"
>Listen to the audio recording </text>

<text 
x="59" 
y="648" 
dx="0,0.1,0.1,0.1,0.1,0.1,0.1,0.1,0.1,0.1,0.1,0.1,0.1,0.1,0,-0.1,0,0.1,0.1,0.1,0.1,0.1,0.1,0" 
class="s6_279"
>and scan the text; then </text>

<text 
x="59" 
y="663" 
dx="0,0.1,0.1,0.1,0.1,0.1,0.1,0.1,0.1,0.1,0.1,0.1,-0.1,0.1,0.1,0.1,0.1,0.1,0.1,0.1,0" 
class="s6_279"
>answer the following </text>

<text 
x="59" 
y="677" 
dx="0,0.1,0.1,0.1,0.1,0.1,0.1,0.1,0.1,0.1,0.1,0.1,0.1,0.1,0.1,0.1,0.1,0.1,0.1,0.1,0.1" 
class="s6_279"
>questions in Chinese.</text>

<text 
x="59" 
y="707" 
dx="0,0" 
class="s7_279"
>1 </text>

<text 
x="82" 
y="709" 
dx="0,0,0,0,0,0,0,0,0" 
class="s8_279"
>雪梅到底为什么回中</text>

<text 
x="82" 
y="733" 
dx="0,0,0,0" 
class="s8_279"
>国工作？</text>

<text 
x="59" 
y="762" 
dx="0,0" 
class="s7_279"
>2 </text>

<text 
x="82" 
y="764" 
dx="0,0,0,0,0,0,0,0,0" 
class="s8_279"
>雪梅觉得自己的缺点</text>

<text 
x="82" 
y="788" 
dx="0,0,0,0" 
class="s8_279"
>是什么？</text>

<text 
x="59" 
y="817" 
dx="0,0" 
class="s7_279"
>3 </text>

<text 
x="82" 
y="819" 
dx="0,0,0,0,0,0,0,0,0" 
class="s8_279"
>总经理对雪梅的面试</text>

<text 
x="82" 
y="843" 
dx="0,0,0,0,0,0,0,0,0" 
class="s8_279"
>表现满意不满意？为</text>

<text 
x="82" 
y="867" 
dx="0,0,0" 
class="s8_279"
>什么？</text>

<path d="M247.5,349.4l0,518.6" class="g6_279" />
<text 
x="497" 
y="95" 
dx="0,0.4" 
class="s9_279"
>课文</text>

<path d="M5.7,182.5l124.3,0" class="g7_279" />
<path d="M5.7,185L130,185" class="g8_279" />
<text 
x="60" 
y="171" 
dx="0,-3.5,-0.8,-1.1" 
class="s10_279"
>Text</text>

<path d="M-12.9,1140.5l58,0l0,-1222.1l-58,0l0,1222.1Z" class="g9_279" />
<text 
x="20" 
y="1166" 
dx="0,1.2,1.2,0" 
class="s11_279"
>256 </text>

<text 
transform="matrix(0, -1, 1, 0, 34, 1129)"
dx="0,1.2,1.2,1,1.2,1.2,1.2,1.2,1,1.2,1.2,1.2,1.2,1.2,1.2,1.2,1.2,1.2,1.2,1.2,1.2" 
class="s12_279"
>Integrated Chinese 4 </text>

<text 
transform="matrix(0, -1, 1, 0, 34, 955)"
dx="0,1.2" 
class="s12_279"
>| </text>

<text 
transform="matrix(0, -1, 1, 0, 34, 938)"
dx="0,-0.3,0.9,0.9,1.2,1.2,1.2,1.2" 
class="s12_279"
>Textbook</text>

<text 
transform="matrix(0, -1, 1, 0, 34, 1129)"
dx="0,1.2,1.2,1,1.2,1.2,1.2,1.2,1,1.2,1.2,1.2,1.2,1.2,1.2,1.2,1.2,1.2,1.2,1.2,1.2" 
class="s12_279"
>Integrated Chinese 4 </text>

<text 
transform="matrix(0, -1, 1, 0, 34, 955)"
dx="0,1.2" 
class="s12_279"
>| </text>

<text 
transform="matrix(0, -1, 1, 0, 34, 938)"
dx="0,-0.3,0.9,0.9,1.2,1.2,1.2,1.2" 
class="s12_279"
>Textbook</text>

<text 
transform="matrix(0, -1, 1, 0, 34, 1129)"
dx="0,1.2,1.2,1,1.2,1.2,1.2,1.2,1,1.2,1.2,1.2,1.2,1.2,1.2,1.2,1.2,1.2,1.2,1.2,1.2" 
class="s12_279"
>Integrated Chinese 4 </text>

<text 
transform="matrix(0, -1, 1, 0, 34, 955)"
dx="0,1.2" 
class="s12_279"
>| </text>

<text 
transform="matrix(0, -1, 1, 0, 34, 938)"
dx="0,-0.3,0.9,0.9,1.2,1.2,1.2,1.2" 
class="s12_279"
>Textbook</text>



<!-- Any embedded fonts defined here -->
<style type="text/css" ><![CDATA[

@font-face {
	font-family: LibreFranklin-Bold_dm9;
	src: url("fonts/LibreFranklin-Bold_dm9.woff") format("woff");
}

@font-face {
	font-family: STKaiti-SC-Bold_cdn;
	src: url("fonts/STKaiti-SC-Bold_cdn.woff") format("woff");
}

@font-face {
	font-family: LibreFranklin-ExtraBold_dm8;
	src: url("fonts/LibreFranklin-ExtraBold_dm8.woff") format("woff");
}

@font-face {
	font-family: MuseoSans-700_dmi;
	src: url("fonts/MuseoSans-700_dmi.woff") format("woff");
}

@font-face {
	font-family: LibreFranklin-Regular_dmj;
	src: url("fonts/LibreFranklin-Regular_dmj.woff") format("woff");
}

@font-face {
	font-family: LibreFranklin-SemiBold_dmm;
	src: url("fonts/LibreFranklin-SemiBold_dmm.woff") format("woff");
}

@font-face {
	font-family: STKaiti-SC-Regular_cf1;
	src: url("fonts/STKaiti-SC-Regular_cf1.woff") format("woff");
}

@font-face {
	font-family: SourceHanSansCN-Regular_cgj;
	src: url("fonts/SourceHanSansCN-Regular_cgj.woff") format("woff");
}

@font-face {
	font-family: SourceHanSansCN-Normal_cgd;
	src: url("fonts/SourceHanSansCN-Normal_cgd.woff") format("woff");
}

@font-face {
	font-family: LibreFranklin-Medium_dmb;
	src: url("fonts/LibreFranklin-Medium_dmb.woff") format("woff");
}

]]></style>

</svg>
