<?xml version="1.0" encoding="UTF-8" standalone="no"?>
<!DOCTYPE svg PUBLIC "-//W3C//DTD SVG 1.1//EN"
"http://www.w3.org/Graphics/SVG/1.1/DTD/svg11.dtd">


<!-- Page 181 -->
<svg x="0" y="0" width="921" height="1196" viewBox="0 0 921 1196" version="1.1" xmlns="http://www.w3.org/2000/svg" xmlns:xlink="http://www.w3.org/1999/xlink"
style="display: block;margin-left: auto;margin-right: auto;">
<defs>

<style type="text/css"><![CDATA[

.g1_181{
fill: none;
stroke: #3986C6;
stroke-width: 1.6194444;
stroke-linecap: butt;
stroke-linejoin: miter;
stroke-miterlimit: 4;
}
.g2_181{
fill: #3986C6;
}
.g3_181{
fill: none;
stroke: #3986C6;
stroke-width: 1.1458334;
stroke-linecap: butt;
stroke-linejoin: miter;
}
.g4_181{
fill: #ACBF3B;
}
.g5_181{
fill: #DCDDDF;
}
.g6_181{
fill: none;
stroke: #939598;
stroke-width: 0.38194445;
stroke-linecap: butt;
stroke-linejoin: miter;
}
.g7_181{
fill: none;
stroke: #231F20;
stroke-width: 1.1458334;
stroke-linecap: butt;
stroke-linejoin: miter;
}
.g8_181{
fill: none;
stroke: #3986C6;
stroke-width: 1.5277778;
stroke-linecap: butt;
stroke-linejoin: miter;
stroke-miterlimit: 4;
}

.s1_181{
font-size: 12.99px;
font-family: ProximaNova-Semibold_cqy;
fill: #231F20;
}
.s2_181{
font-size: 18.33px;
font-family: ProximaNova-Bold_c-5;
fill: #231F20;
}
.s3_181{
font-size: 25.97px;
font-family: ProximaNova-Bold_c-5;
fill: #FFFFFF;
}
.s4_181{
font-size: 25.97px;
font-family: ProximaNova-Bold_c-5;
fill: #231F20;
}
.s5_181{
font-size: 13.75px;
font-family: ProximaNova-Extrabld_c-a;
fill: #FFFFFF;
}
.s6_181{
font-size: 19.10px;
font-family: Alegreya-Regular_c-8;
fill: #231F20;
}
.s7_181{
font-size: 19.10px;
font-family: Alegreya-Bold_c-c;
fill: #3986C6;
}
.s8_181{
font-size: 32.08px;
font-family: STKaiti_c-m;
fill: #231F20;
}
.s9_181{
font-size: 19.10px;
font-family: Alegreya-Bold_c-c;
fill: #231F20;
}
.s10_181{
font-size: 32.08px;
font-family: STKaitiSC-Regular_cof;
fill: #3986C6;
}
.s11_181{
font-size: 19.86px;
font-family: ProximaNova-Bold_c-5;
fill: #231F20;
}

]]></style>

</defs>
<path d="M0,0
L0,1196
L921,1196
L921,0 Z " 
fill="#FFFFFF" stroke="none" />
<text 
transform="matrix(0, -1, 1, 0, 54, 1084)"
dx="0,0,0,0,0,0,0,0,0,0,0,0,0,0,0,0,0,0,0" 
class="s1_181"
>Go Far with Chinese</text>

<text 
x="33" 
y="1149" 
dx="0,0,0" 
class="s2_181"
>158</text>

<path d="M50.4,1089.3l0,38.7" class="g1_181" />
<path d="M50.4,1125.4c-1.4,0,-2.5,1.1,-2.5,2.6c0,1.4,1.1,2.6,2.5,2.6c1.5,0,2.6,-1.2,2.6,-2.6c0,-1.5,-1.1,-2.6,-2.6,-2.6Z" class="g2_181" />
<path d="M128.2,560.2c-10.2,0,-18.4,-8.2,-18.4,-18.3l0,-20.2l23.2,0c10.1,0,18.3,8.2,18.3,18.3l0,20.2Z" class="g2_181" />
<path d="M120.8,522.3l359,0" class="g3_181" />
<path d="M134.5,559.7l345.3,0" class="g3_181" />
<text 
x="119" 
y="548" 
dx="0,0,0" 
class="s3_181"
>1c </text>

<text 
x="162" 
y="548" 
dx="0,0,0,0,0,0,0,0,0,0,0,0,0,0" 
class="s4_181"
>Puzzle It Out </text>

<path d="M336.1,553c-6,0,-10.8,-4.9,-10.8,-10.9l0,-10.8l140.7,0c6,0,10.9,4.8,10.9,10.8l0,10.9Z" class="g4_181" />
<text 
x="340" 
y="546" 
dx="0,0,0,0,0,0,0,0,0,0,0,0,0,0" 
class="s5_181"
>Pr²Gre±± CheCK</text>

<text 
x="110" 
y="609" 
dx="0,-0.4,0,0,0,0,0,0,0,0,0,0,0,0,-0.4,-0.4,0,-0.2,0,0,0,0,0,0,0,0,0,-0.3,0,0,0,0,0,0,0,0,0,0,0,-0.3,0,0,0,0,0,0,0,0,0,0,0,0,0,0,0,0,0,0,0,0,0,0,0,0,0,0,-0.3,0,0,0,0,0,0,0,0,0,0,0,0,0,0,-0.4,0,0,0,0,0,0,0,0,-0.4" 
class="s6_181"
>Complete the exercises below to check your understanding of what you learned in Section 1. </text>

<text 
x="109" 
y="635" 
dx="0,0,0,0,-0.3,0,0,0,0,-0.4,-0.3,0,0,0,0,0,0,0,0,0,0,-0.4,-0.4,0,-0.3,0,0,0,0,0,0,0,0,0,0,0,0,0,0,0,0,0,0,0,0,-0.6,0,-0.3,0,-0.2,0,0,-0.3,0,0,0,0,0,0,0,0,0" 
class="s6_181"
>If you have questions, consult the Language Reference section.</text>

<text 
x="109" 
y="683" 
dx="0,-0.4,0,0,0,0,0,0,0,0,0,0,0,0,0,0,0,0,0,0,0,0,0,-0.3,0,0,0,0,0,0,0,0,0,0,0,0,0,-0.2,0,0,0,0,0,0,0,0,0,0,0,0,0,0,-0.3,-1.3" 
class="s6_181"
>Fill in the blanks to complete the translations below.</text>

<text 
x="110" 
y="743" 
dx="0" 
class="s7_181"
>1</text>

<text 
x="132" 
y="746" 
dx="0,0,0,0,0,0,0,0,0,0,0,0,0,0" 
class="s8_181"
>_____ 是星期 ___。</text>

<text 
x="134" 
y="773" 
dx="0,-0.2,0,0,0,0,-0.4,0,0,0,0,0,0,0,0,0,0,0,0,0,-0.2,-0.3,0,0,0,0,0,-0.4,0,0,0,-0.4,-1.3,-0.4" 
class="s6_181"
>The day after tomorrow is Monday. </text>

<text 
x="110" 
y="826" 
dx="0" 
class="s7_181"
>2</text>

<text 
x="135" 
y="829" 
dx="0,0,0,0,0,0,0,0,0,0,0,0,0,0,0" 
class="s8_181"
>他星期 ___ 没有 ___。</text>

<text 
x="134" 
y="856" 
dx="0,-0.4,0,0,0,0,0,0,-1.5,0,0,0,0,-0.4,-0.3,0,0,0,-0.2,0,0,0,0,0,0,0,0,0,0,0,0,0,0,0,-0.4,-1.3" 
class="s6_181"
>He doesn’t have free time on Sunday.</text>

<text 
x="109" 
y="909" 
dx="0" 
class="s7_181"
>3</text>

<text 
x="134" 
y="912" 
dx="0,0,0,0,0,0,0,0,0,0,0,0,0,0,0,0,0,0,0,0,0" 
class="s8_181"
>你想星期 ___ ___ ___ 电影 ?</text>

<text 
x="133" 
y="939" 
dx="0,-0.2,0,0,0,0,0,0,-0.4,0,0,0,0,0,0,0,0,0,-0.3,0,0,0,0,0,0,0,-0.3,0,0,0,-0.3,0,0,0,0,0,0,0,0,0,0,0,0,0,0,0,0,0,-0.3,0,0,0" 
class="s6_181"
>Which day of the week do you want to go see a movie?</text>

<text 
x="109" 
y="993" 
dx="0" 
class="s7_181"
>4</text>

<text 
x="134" 
y="995" 
dx="0,0,0,0,0,0,0,0,0,0,0,0,0,0,0,0,0,0,0" 
class="s8_181"
>_____ 是 ________ 吗？</text>

<text 
x="134" 
y="1023" 
dx="0,-0.4,0,0,0,0,0,0,0,-0.2,-0.3,0,0,-0.4,0,0,0,-0.4,0" 
class="s6_181"
>Is tomorrow Friday?</text>

<path d="M110.1,114l54.9,0l0,36.3l-54.9,0l0,-36.3Zm54.9,0l165.1,0l0,36.3l-165.1,0L165,114Zm165.1,0l156.2,0l0,36.3l-156.2,0l0,-36.3Zm156.2,0l336.9,0l0,36.3l-336.9,0l0,-36.3Z" class="g5_181" />
<path d="M110.1,425.3l54.9,0" class="g6_181" />
<path d="M165,425.3l165.1,0" class="g6_181" />
<path d="M330.1,425.3l156.2,0" class="g6_181" />
<path d="M486.3,425.3l336.9,0" class="g6_181" />
<path d="M110.1,480.3l54.9,0" class="g7_181" />
<path d="M165,480.3l165.1,0" class="g7_181" />
<path d="M330.1,480.3l156.2,0" class="g7_181" />
<path d="M486.3,480.3l336.9,0" class="g7_181" />
<path d="M110.1,260.3l54.9,0" class="g6_181" />
<path d="M165,260.3l165.1,0" class="g6_181" />
<path d="M330.1,260.3l156.2,0" class="g6_181" />
<path d="M486.3,260.3l336.9,0" class="g6_181" />
<path d="M110.1,315.3l54.9,0" class="g6_181" />
<path d="M165,315.3l165.1,0" class="g6_181" />
<path d="M330.1,315.3l156.2,0" class="g6_181" />
<path d="M486.3,315.3l336.9,0" class="g6_181" />
<path d="M110.1,370.3l54.9,0" class="g6_181" />
<path d="M165,370.3l165.1,0" class="g6_181" />
<path d="M330.1,370.3l156.2,0" class="g6_181" />
<path d="M486.3,370.3l336.9,0" class="g6_181" />
<path d="M110.1,205.3l54.9,0" class="g6_181" />
<path d="M165,205.3l165.1,0" class="g6_181" />
<path d="M330.1,205.3l156.2,0" class="g6_181" />
<path d="M486.3,205.3l336.9,0" class="g6_181" />
<text 
x="183" 
y="139" 
dx="0,-0.7,0,0" 
class="s2_181"
>Word</text>

<text 
x="349" 
y="139" 
dx="0,0,0,0,0,0" 
class="s2_181"
>Pinyin</text>

<text 
x="505" 
y="139" 
dx="0,0,0,0,0,0,0" 
class="s2_181"
>Meaning</text>

<text 
x="128" 
y="185" 
dx="0,0" 
class="s9_181"
>1 </text>

<text 
x="179" 
y="185" 
dx="0,0" 
class="s10_181"
>今天</text>

<text 
x="348" 
y="185" 
dx="0,0,0,0,0,0,0" 
class="s6_181"
>jīntiān</text>

<text 
x="504" 
y="185" 
dx="0,0,0,0,-0.4" 
class="s6_181"
>today</text>

<text 
x="128" 
y="240" 
dx="0" 
class="s9_181"
>2</text>

<text 
x="177" 
y="240" 
dx="0,0,0" 
class="s10_181"
>星期五</text>

<text 
x="348" 
y="240" 
dx="0,0,0,0,0,0,0,0" 
class="s6_181"
>xīngqīwǔ</text>

<text 
x="503" 
y="240" 
dx="0,-0.4,0,0,0,-0.4" 
class="s6_181"
>Friday</text>

<text 
x="128" 
y="295" 
dx="0" 
class="s9_181"
>3</text>

<text 
x="175" 
y="295" 
dx="0,0" 
class="s10_181"
>电影</text>

<text 
x="349" 
y="295" 
dx="0,0,0,0,-0.4,0,0,0" 
class="s6_181"
>diànyǐng</text>

<text 
x="504" 
y="295" 
dx="0,0,-0.3,0,0,-0.6,-0.4,0,0,0,0,0,0,0,0,0,0,0,0,0,-0.2" 
class="s6_181"
>movie, motion picture</text>

<text 
x="127" 
y="350" 
dx="0" 
class="s9_181"
>4</text>

<text 
x="180" 
y="350" 
dx="0,0" 
class="s10_181"
>有空</text>

<text 
x="348" 
y="350" 
dx="0,-0.3,0,0,0,-0.4,0,0" 
class="s6_181"
>yǒu kòng</text>

<text 
x="504" 
y="350" 
dx="0,0,0,0,0,-0.4,-0.3,0,0,0,-0.2,0,0,0,0,0,0,-0.6,-0.4,0,0,0,0,0,0,0,0,-0.2,0" 
class="s6_181"
>to have free time, to be free</text>

<text 
x="128" 
y="405" 
dx="0" 
class="s9_181"
>5</text>

<text 
x="179" 
y="405" 
dx="0,0" 
class="s10_181"
>明天</text>

<text 
x="348" 
y="405" 
dx="0,0,0,0,0,0,0,0" 
class="s6_181"
>míngtiān</text>

<text 
x="504" 
y="405" 
dx="0,0,0,0,0,0,-0.2,-0.3" 
class="s6_181"
>tomorrow</text>

<text 
x="128" 
y="460" 
dx="0" 
class="s9_181"
>6</text>

<text 
x="179" 
y="460" 
dx="0,0" 
class="s10_181"
>后天</text>

<text 
x="348" 
y="460" 
dx="0,0,0,0,0,0,0" 
class="s6_181"
>hòutiān</text>

<text 
x="504" 
y="460" 
dx="0,0,0,0,0,0,-0.4,0,0,0,0,0,0,0,0,0,0,0,0,0,-0.2,-0.3" 
class="s6_181"
>the day after tomorrow</text>

<text 
x="109" 
y="97" 
dx="0,-1.2,0,0,0,0,0,0,0,0" 
class="s11_181"
>Vocabulary</text>

<path d="M223.7,93.7l611.1,0" class="g8_181" />
<path d="M223.7,96.8c1.7,0,3,-1.4,3,-3.1c0,-1.7,-1.3,-3,-3,-3c-1.7,0,-3.1,1.3,-3.1,3c0,1.7,1.4,3.1,3.1,3.1Z" class="g2_181" />


<!-- Any embedded fonts defined here -->
<style type="text/css" ><![CDATA[

@font-face {
	font-family: ProximaNova-Bold_c-5;
	src: url("fonts/ProximaNova-Bold_c-5.woff") format("woff");
}

@font-face {
	font-family: Alegreya-Bold_c-c;
	src: url("fonts/Alegreya-Bold_c-c.woff") format("woff");
}

@font-face {
	font-family: Alegreya-Regular_c-8;
	src: url("fonts/Alegreya-Regular_c-8.woff") format("woff");
}

@font-face {
	font-family: STKaiti_c-m;
	src: url("fonts/STKaiti_c-m.woff") format("woff");
}

@font-face {
	font-family: ProximaNova-Semibold_cqy;
	src: url("fonts/ProximaNova-Semibold_cqy.woff") format("woff");
}

@font-face {
	font-family: STKaitiSC-Regular_cof;
	src: url("fonts/STKaitiSC-Regular_cof.woff") format("woff");
}

@font-face {
	font-family: ProximaNova-Extrabld_c-a;
	src: url("fonts/ProximaNova-Extrabld_c-a.woff") format("woff");
}

]]></style>

</svg>
