<?xml version="1.0" encoding="UTF-8" standalone="no"?>
<!DOCTYPE svg PUBLIC "-//W3C//DTD SVG 1.1//EN"
"http://www.w3.org/Graphics/SVG/1.1/DTD/svg11.dtd">


<!-- Page 347 -->
<svg x="0" y="0" width="921" height="1196" viewBox="0 0 921 1196" version="1.1" xmlns="http://www.w3.org/2000/svg" xmlns:xlink="http://www.w3.org/1999/xlink"
style="display: block;margin-left: auto;margin-right: auto;">
<defs>

<style type="text/css"><![CDATA[

.g1_347{
fill: none;
stroke: #3986C6;
stroke-width: 1.6194444;
stroke-linecap: butt;
stroke-linejoin: miter;
stroke-miterlimit: 4;
}
.g2_347{
fill: #3986C6;
}
.g3_347{
fill: none;
stroke: #3986C6;
stroke-width: 1.1458334;
stroke-linecap: butt;
stroke-linejoin: miter;
}
.g4_347{
fill: #ACBF3B;
}
.g5_347{
fill: none;
stroke: #ACBF3B;
stroke-width: 2.2916667;
stroke-linecap: butt;
stroke-linejoin: miter;
stroke-miterlimit: 4;
}

.s1_347{
font-size: 12.99px;
font-family: ProximaNova-Semibold_cqy;
fill: #231F20;
}
.s2_347{
font-size: 18.33px;
font-family: ProximaNova-Bold_d9-;
fill: #231F20;
}
.s3_347{
font-size: 18.33px;
font-family: ProximaNova-Bold_d9-;
fill: #3986C6;
}
.s4_347{
font-size: 19.10px;
font-family: Alegreya-Regular_da1;
fill: #231F20;
}
.s5_347{
font-size: 19.10px;
font-family: Alegreya-Bold_da6;
fill: #231F20;
}
.s6_347{
font-size: 32.08px;
font-family: STKaitiSC-Regular_cof;
fill: #231F20;
}
.s7_347{
font-size: 25.97px;
font-family: ProximaNova-Bold_d9-;
fill: #FFFFFF;
}
.s8_347{
font-size: 25.97px;
font-family: ProximaNova-Bold_d9-;
fill: #231F20;
}
.s9_347{
font-size: 13.75px;
font-family: ProximaNova-Extrabld_da2;
fill: #FFFFFF;
}
.s10_347{
font-size: 19.10px;
font-family: Alegreya-Bold_da6;
fill: #3986C6;
}

]]></style>

</defs>
<path d="M0,0
L0,1196
L921,1196
L921,0 Z " 
fill="#FFFFFF" stroke="none" />
<text 
transform="matrix(0, -1, 1, 0, 54, 1084)"
dx="0,0,0,0,0,0,0,0,0,0,0,0,0,0,0,0,0,0,0" 
class="s1_347"
>Go Far with Chinese</text>

<text 
x="32" 
y="1149" 
dx="0,0,0" 
class="s2_347"
>324</text>

<path d="M50.4,1089.3l0,38.7" class="g1_347" />
<path d="M50.4,1125.4c-1.4,0,-2.5,1.1,-2.5,2.6c0,1.4,1.1,2.6,2.5,2.6c1.5,0,2.6,-1.2,2.6,-2.6c0,-1.5,-1.1,-2.6,-2.6,-2.6Z" class="g2_347" />
<text 
x="110" 
y="101" 
dx="0,-0.4,0,0,0,0,0,0,0" 
class="s3_347"
>Passage 2</text>

<text 
x="205" 
y="101" 
dx="0,-0.6,0,0,0,0,0,0,0,0,0,-0.4,0,0,0,0,0,0,0,0,0,0,0,0" 
class="s4_347"
>Read the saying on this </text>

<text 
x="110" 
y="127" 
dx="0,0,0,0,0,0,0,0,-0.2,0,0,-0.6,-0.4,0,0,0,0,0,-0.3,0,0,0,0,0,0,0,0,0,0,0,0,0" 
class="s4_347"
>pencil case. Can you guess what </text>

<text 
x="110" 
y="153" 
dx="0,0,0,0,0,0,0,0,0,-0.3,0,0,0,0,0,0,0,0,0,0,0,0,0,0,0,0,0,0,0,0,0,0,0,0,-0.3,0,0,0" 
class="s4_347"
>the advice is based on the first four </text>

<text 
x="110" 
y="179" 
dx="0,0,0,0,-0.2,0,0,0,0,0,0" 
class="s4_347"
>characters?</text>

<path d="M129.9,756.5c-10.2,0,-18.4,-8.2,-18.4,-18.3l0,-20.1l23.2,0c10.1,0,18.3,8.2,18.3,18.3l0,20.1Z" class="g2_347" />
<text 
x="110" 
y="795" 
dx="0,-0.4,-0.3,0,0,0,0,0,0,0,0,0,0,-0.3,0,0,0,0,0,-0.3,0,0,0,0,0,0,0,0,-0.3,0,0,0,0,0,0,0,0,0,0,0,0,0,0,-0.4,0,0,0,-0.3,0,0,0,0,-0.2,0,0,0,0,0,0,-0.4,-0.4,0,0,0,0,0,0,0,0,0,0,0,0,0,0,0,0,0,0,0,0,0,0,0" 
class="s4_347"
>How much do you know about your classmates’ lives? In pairs, ask about each other’s </text>

<text 
x="111" 
y="821" 
dx="0,-0.3,0,0,-0.4,0,0,0,0,0,0,0,0,-0.4,-0.4,0,-0.4,0,0,0,0,0,0,0,-1.4,0,-0.2,0,0,0,0,0,0,0,0,0,0,0,0,0,0,0,0,0,0,0,0,0,0,0,0,0,0,0,0,-0.3,0,0,0,0,0,0,0,0,0,0,0,0,0,0,0,0,0,0,0,0,0,0,0,0,0,-0.3,0,0,0,0,0,0,0,0" 
class="s4_347"
>weekend plans. See the Word Bank on the opposite page for additional activities you might </text>

<text 
x="111" 
y="847" 
dx="0,-0.3,0,0,0,0,0,0,0,0,0,0,0,0,0,0,0,0,0,-0.4,0,-0.2,0,0,0,0,-0.3,0,0,0,0,0,0,0,0,0,0,0,0,-0.3,0,0,0,0,0,0,0,0,0,0,-0.3,0,0,0,-0.4,0,0,0,-0.2,0,-0.4,0,0,0,0,0,0,0,0,0,0,-0.4,-1.3,-0.4,0,0,0,0,0,0,0,0,0,0,0,-0.2,0,0,0,0,0" 
class="s4_347"
>want to talk about. When you describe your plans for Saturday and Sunday, mention three to </text>

<text 
x="111" 
y="873" 
dx="0,-0.3,0,0,0,0,0,0,0,0,0,0,0,0,0,0,0,-0.3,0,0,0,0,0,0,0,0,0,-0.4,0,0,-0.4,0,0,0,0,0,0,0,-0.4,0,0,0,0,0,0,0,0,0,0,0,0,0,0,0,0,0,0,0,0,0,0,0,0,0,0,0,0,0,0,0,0,0,0,0,-0.2,0,0,0,0,0,0,0,0,0,0,0,0,0,0,0,0,0,0,0,0,0,0" 
class="s4_347"
>four activities for each day — but make at least one of those activities false (and at least one </text>

<text 
x="111" 
y="899" 
dx="0,0,0,0,0,0,0,0,-0.2,0,0,0,0,-0.3,0,0,0,0,0,0,0,0,0,0,0,0,0,0,0,0,0,0,0,0,0,0,0,0,0,0,0,0,0,0,0,0,0,0,0,0,0,0,0,0,-0.3,0,0,0,0,0,0,0,0,0,0,0,0,0,0,0,0,0,0,0,0" 
class="s4_347"
>true)! Then your partner will guess which activities you will not be doing.</text>

<text 
x="112" 
y="972" 
dx="0,0,0" 
class="s5_347"
>Q: </text>

<text 
x="137" 
y="975" 
dx="0,0,0,0,0,0,0,0,0,0,0,0,0,0,0,0,0,0,0,0,0,0,0" 
class="s6_347"
>你这个周末的计划是什么？ / 你这个周末有什么</text>

<text 
x="133" 
y="1011" 
dx="0,0,0" 
class="s6_347"
>计划？</text>

<text 
x="111" 
y="1045" 
dx="0,0" 
class="s5_347"
>A:</text>

<text 
x="135" 
y="1048" 
dx="0,0,0,0,0,0,0,0,0,0,0,-8,0,0,0,0,0,0,0,0,0,0" 
class="s6_347"
>我这个周末的计划是 ：星期六我想先……再……</text>

<text 
x="135" 
y="1085" 
dx="0,0,0,0,0,0,0,0" 
class="s6_347"
>然后……最后……</text>

<path d="M120.9,718.8l305.6,0" class="g3_347" />
<path d="M134.7,756.2l291.8,0" class="g3_347" />
<text 
x="121" 
y="745" 
dx="0,0" 
class="s7_347"
>B </text>

<text 
x="162" 
y="745" 
dx="0,0,0,0,0,0,0,0,0" 
class="s8_347"
>Speaking </text>

<path d="M296.2,749.4c-5.9,0,-10.8,-4.8,-10.8,-10.8l0,-10.8l131,0c6,0,10.9,4.9,10.9,10.8l0,10.8Z" class="g4_347" />
<path d="M297.6,746.8l119.4,0l0,-15.1l-119.4,0l0,15.1Z" class="g4_347" />
<text 
x="301" 
y="742" 
dx="0,0,0,0,0,0,0,0,0,0,0,0,0" 
class="s9_347"
>´¶³e¸Pe¸Sµ¶·L</text>

<image preserveAspectRatio="none" x="406" y="84" width="426" height="284" xlink:href="347/img/1.png" />
<text 
x="110" 
y="431" 
dx="0,-0.4,0,0,0,0,0,0,0" 
class="s3_347"
>Passage 3</text>

<text 
x="204" 
y="431" 
dx="0,0,0,0,0,0,0,0,0,0,0,0,0,0,0,-0.3,0,-0.4,-0.3,0,0,0,0,0,0,0,0,0,0,0,0,-0.3,0,0,0,0,-0.4,0,0,0,-0.4,-1.3,-0.4,0,0,0,-0.8,-0.4,0,0,0,0,0,-0.2,-0.4,-0.3,0,0,0,0,0,0,0,0,0,0,0,0,0,0,-0.3,0,0,0,0,0,0" 
class="s4_347"
>Listen to the conversation between Sanjay, Leo, and Maya and then answer the </text>

<text 
x="110" 
y="457" 
dx="0,0,0,0,0,0,0,0,0,0,0,0,0,0,-0.3,-1.3,-0.4" 
class="s4_347"
>questions below. </text>

<text 
x="721" 
y="499" 
dx="0" 
class="s10_347"
>T</text>

<text 
x="762" 
y="499" 
dx="0" 
class="s10_347"
>F</text>

<text 
x="116" 
y="534" 
dx="0" 
class="s10_347"
>1</text>

<text 
x="140" 
y="534" 
dx="0,-0.4,0,0,0,-0.4,0,0,0,0,0,0,0,0,0,0,0,0,0,0,0,0,0,-0.3,0,0,0,0,-0.2,0,0,0,0,0,0,0,0,0,0,0,0,0,0,0,-0.3,0,0,0,-0.4,0,-0.3,0,0,0,0,0,0,0,0,0,0,0,0,0,0,0,0,0,0,0,0,0,0" 
class="s4_347"
>Sanjay thinks that if you preview the classwork, you will find the class </text>

<text 
x="140" 
y="560" 
dx="0,0,0,-0.2,0,0,0,0,0,0,-0.2,0,0,0,0,0,0" 
class="s4_347"
>more interesting.</text>

<path d="M726.9,550.4c5.8,0,10.5,-4.7,10.5,-10.5c0,-5.8,-4.7,-10.5,-10.5,-10.5c-5.8,0,-10.5,4.7,-10.5,10.5c0,5.8,4.7,10.5,10.5,10.5Z" class="g5_347" />
<path d="M767.9,550.4c5.8,0,10.4,-4.7,10.4,-10.5c0,-5.8,-4.6,-10.5,-10.4,-10.5c-5.8,0,-10.5,4.7,-10.5,10.5c0,5.8,4.7,10.5,10.5,10.5Z" class="g5_347" />
<text 
x="116" 
y="595" 
dx="0" 
class="s10_347"
>2</text>

<text 
x="139" 
y="595" 
dx="0,-0.2,-0.4,-0.3,0,0,0,0,0,0,0,0,0,0,0,0,0,0,0,0,0,-0.3,0,0,0,-0.2,0,0,0,0,0,0,0,-0.3,0,0.3,0,0,0,-0.4,-1.3,-0.4,0,-0.3,0,-1,0,0,0,0,0,0,0,0,0,0,0,0,0,0,0,0,0,0,-0.3,0,0,0,0,0,0" 
class="s4_347"
>Maya thinks that if you review every day, you’ll find that homework is </text>

<text 
x="140" 
y="621" 
dx="0,0,0,0,0,0,0,0,0,0,-0.8" 
class="s4_347"
>easy to do.</text>

<path d="M726.9,611.4c5.8,0,10.5,-4.7,10.5,-10.4c0,-5.8,-4.7,-10.5,-10.5,-10.5c-5.8,0,-10.5,4.7,-10.5,10.5c0,5.7,4.7,10.4,10.5,10.4Z" class="g5_347" />
<path d="M767.9,611.4c5.8,0,10.4,-4.7,10.4,-10.4c0,-5.8,-4.6,-10.5,-10.4,-10.5c-5.8,0,-10.5,4.7,-10.5,10.5c0,5.7,4.7,10.4,10.5,10.4Z" class="g5_347" />
<text 
x="115" 
y="657" 
dx="0" 
class="s10_347"
>3</text>

<text 
x="139" 
y="660" 
dx="0,0,0,0,0,0,0,0,0,0,0,0,0,0,0,0,0,0,-0.2,0,0,0,0,0,0,0,0,0,0,0,0,0,0,-0.2,0,0,0,0,0,0,0,0,0,0,0,0,0,0,0,0,0,-0.2,0,0,0,0,0,0,0,0,-0.4" 
class="s4_347"
>Leo thinks that previewing is more important than reviewing. </text>

<path d="M726.9,662.6c5.8,0,10.5,-4.7,10.5,-10.5c0,-5.8,-4.7,-10.4,-10.5,-10.4c-5.8,0,-10.5,4.6,-10.5,10.4c0,5.8,4.7,10.5,10.5,10.5Z" class="g5_347" />
<path d="M767.9,662.6c5.8,0,10.4,-4.7,10.4,-10.5c0,-5.8,-4.6,-10.4,-10.4,-10.4c-5.8,0,-10.5,4.6,-10.5,10.4c0,5.8,4.7,10.5,10.5,10.5Z" class="g5_347" />


<!-- Any embedded fonts defined here -->
<style type="text/css" ><![CDATA[

@font-face {
	font-family: Alegreya-Bold_da6;
	src: url("fonts/Alegreya-Bold_da6.woff") format("woff");
}

@font-face {
	font-family: ProximaNova-Extrabld_da2;
	src: url("fonts/ProximaNova-Extrabld_da2.woff") format("woff");
}

@font-face {
	font-family: ProximaNova-Semibold_cqy;
	src: url("fonts/ProximaNova-Semibold_cqy.woff") format("woff");
}

@font-face {
	font-family: STKaitiSC-Regular_cof;
	src: url("fonts/STKaitiSC-Regular_cof.woff") format("woff");
}

@font-face {
	font-family: Alegreya-Regular_da1;
	src: url("fonts/Alegreya-Regular_da1.woff") format("woff");
}

@font-face {
	font-family: ProximaNova-Bold_d9-;
	src: url("fonts/ProximaNova-Bold_d9-.woff") format("woff");
}

]]></style>

</svg>
