<?xml version="1.0" encoding="UTF-8" standalone="no"?>
<!DOCTYPE svg PUBLIC "-//W3C//DTD SVG 1.1//EN"
"http://www.w3.org/Graphics/SVG/1.1/DTD/svg11.dtd">


<!-- Page 367 -->
<svg x="0" y="0" width="921" height="1196" viewBox="0 0 921 1196" version="1.1" xmlns="http://www.w3.org/2000/svg" xmlns:xlink="http://www.w3.org/1999/xlink"
style="display: block;margin-left: auto;margin-right: auto;">
<defs>

<style type="text/css"><![CDATA[

.g1_367{
fill: #ACBF3B;
}
.g2_367{
fill: #3986C6;
}
.g3_367{
fill: none;
stroke: #FFFFFF;
stroke-width: 1.5277778;
stroke-linecap: butt;
stroke-linejoin: miter;
stroke-miterlimit: 4;
}
.g4_367{
fill: none;
stroke: #3986C6;
stroke-width: 1.1458334;
stroke-linecap: butt;
stroke-linejoin: miter;
}
.g5_367{
fill: #FFFFFF;
}

.s1_367{
font-size: 12.99px;
font-family: ProximaNova-Semibold_db4;
fill: #231F20;
}
.s2_367{
font-size: 16.81px;
font-family: ProximaNova-Extrabld_db2;
fill: #FFFFFF;
}
.s3_367{
font-size: 25.97px;
font-family: ProximaNova-Bold_da-;
fill: #FFFFFF;
}
.s4_367{
font-size: 25.97px;
font-family: ProximaNova-Bold_da-;
fill: #231F20;
}
.s5_367{
font-size: 13.75px;
font-family: ProximaNova-Extrabld_db2;
fill: #FFFFFF;
}
.s6_367{
font-size: 44.31px;
font-family: ProximaNova-Bold_da-;
fill: #FFFFFF;
}
.s7_367{
font-size: 18.33px;
font-family: ProximaNova-Bold_da-;
fill: #3986C6;
}
.s8_367{
font-size: 15.28px;
font-family: CCMeanwhile_dbs;
fill: #231F20;
}
.s9_367{
font-size: 18.33px;
font-family: ProximaNova-Bold_da-;
fill: #231F20;
}

]]></style>

</defs>
<path d="M0,0
L0,1196
L921,1196
L921,0 Z " 
fill="#FFFFFF" stroke="none" />
<text 
transform="matrix(0, 1, -1, 0, 855, 832)"
dx="0,0,0,0,0,0,0,0,0,0" 
class="s1_367"
>Chapter 9 </text>

<text 
transform="matrix(0, 1, -1, 0, 855, 897)"
dx="0,0" 
class="s1_367"
>• </text>

<text 
transform="matrix(0, 1, -1, 0, 855, 908)"
dx="0,0,0,0,0,0,0,0,0,0,0,0,0,0,0,0,0,0" 
class="s1_367"
>A Birthday Dinner </text>

<text 
transform="matrix(0, 1, -1, 0, 855, 1017)"
dx="0,0" 
class="s1_367"
>• </text>

<text 
transform="matrix(0, 1, -1, 0, 855, 1029)"
dx="0,0,0,0,0,0,0,0,0" 
class="s1_367"
>Section 3</text>

<image preserveAspectRatio="none" x="32" y="234" width="378" height="330" xlink:href="367/img/1.png" />
<image preserveAspectRatio="none" x="409" y="234" width="378" height="330" xlink:href="367/img/2.png" />
<image preserveAspectRatio="none" x="786" y="234" width="109" height="933" xlink:href="367/img/3.png" />
<image preserveAspectRatio="none" x="32" y="563" width="378" height="330" xlink:href="367/img/4.png" />
<image preserveAspectRatio="none" x="409" y="563" width="378" height="330" xlink:href="367/img/5.png" />
<image preserveAspectRatio="none" x="32" y="892" width="432" height="275" xlink:href="367/img/6.png" />
<image preserveAspectRatio="none" x="463" y="892" width="324" height="275" xlink:href="367/img/7.png" />
<image preserveAspectRatio="none" x="853" y="833" width="12" height="250" xlink:href="367/img/8.png" />
<image preserveAspectRatio="none" x="853" y="833" width="12" height="250" xlink:href="367/img/9.png" />
<path d="M0,110l921.3,0l0,-110L0,0L0,110Z" class="g1_367" />
<path d="M98.3,196C88.1,196,79.9,187.8,79.9,177.6l0,-20.1l23.2,0c10.1,0,18.3,8.2,18.3,18.3l0,20.2Z" class="g2_367" />
<path d="M777.6,125.7l0,-35.6c0,-18.9,-15.4,-34.3,-34.3,-34.3l-555.4,0l0,35.6c0,18.9,15.4,34.3,34.4,34.3Z" class="g2_367" />
<path d="M777.6,125.7l0,-35.6c0,-18.9,-15.4,-34.3,-34.3,-34.3l-555.4,0l0,35.6c0,18.9,15.4,34.3,34.4,34.3l555.3,0Z" class="g3_367" />
<text 
x="74" 
y="95" 
dx="0,0,0,0,0,0,0,0,0,0" 
class="s2_367"
>Ch¶Pt²· 14</text>

<path d="M98.3,196C88.1,196,79.9,187.8,79.9,177.6l0,-20.1l23.2,0c10.1,0,18.3,8.2,18.3,18.3l0,20.2Z" class="g2_367" />
<path d="M90.4,158.2l439.7,0" class="g4_367" />
<path d="M104.1,195.6l426,0" class="g4_367" />
<text 
x="90" 
y="184" 
dx="0,0" 
class="s3_367"
>A </text>

<text 
x="131" 
y="184" 
dx="0,-0.8,0,0,0,0,0,0,0,0,0,0,0,0,0,0,0,0,0,0,0,0" 
class="s4_367"
>Reading and Listening </text>

<path d="M417.4,188.9c-6,0,-10.9,-4.9,-10.9,-10.9l0,-10.9l112.3,0c6.1,0,10.9,4.8,10.9,10.9l0,10.9Z" class="g1_367" />
<text 
x="420" 
y="182" 
dx="0,0,0,0,0,0,0,0,0,0,0,0" 
class="s5_367"
>³µt²·P·²t³V²</text>

<path d="M777.6,125.7l0,-35.6c0,-18.9,-15.4,-34.3,-34.3,-34.3l-555.4,0l0,35.6c0,18.9,15.4,34.3,34.4,34.3Z" class="g2_367" />
<path d="M777.6,125.7l0,-35.6c0,-18.9,-15.4,-34.3,-34.3,-34.3l-555.4,0l0,35.6c0,18.9,15.4,34.3,34.4,34.3l555.3,0Z" class="g3_367" />
<text 
x="236" 
y="103" 
dx="0,0,0,0,0,0,0,0,0,0,0,0,0,0,0,0,-4.3,0,0,0,0,0,0,0" 
class="s6_367"
>Put the Pieces Together!</text>

<path d="M113.4,501l160.7,0l0,-239.7l-160.7,0l0,239.7Z" class="g5_367" />
<text 
x="113" 
y="280" 
dx="0,-0.4,0,0,0,0,0,0,0" 
class="s7_367"
>Passage 1</text>

<text 
x="113" 
y="311" 
dx="0,0.2,0.3,0.1,-0.2,0.3,0,0,0.5,0.5,0" 
class="s8_367"
>Martin and </text>

<text 
x="113" 
y="311" 
dx="0,0.2,0.3,0.1,-0.2,0.3,0,0,0.5,0.5,0" 
class="s8_367"
>Martin and </text>

<text 
x="114" 
y="337" 
dx="0,0.3,-0.5,-1,0,0,0.4,-0.4,-0.2,0,0,0.3,-0.3,0" 
class="s8_367"
>maya have met </text>

<text 
x="114" 
y="337" 
dx="0,0.3,-0.5,-1,0,0,0.4,-0.4,-0.2,0,0,0.3,-0.3,0" 
class="s8_367"
>maya have met </text>

<text 
x="114" 
y="363" 
dx="0,0.4,0,0,0.1,-0.1,-0.1,0,0" 
class="s8_367"
>up after </text>

<text 
x="114" 
y="363" 
dx="0,0.4,0,0,0.1,-0.1,-0.1,0,0" 
class="s8_367"
>up after </text>

<text 
x="113" 
y="388" 
dx="0,-0.1,0.1,0.5,0.1,0.2,0,0,0.5,0.5" 
class="s8_367"
>school and</text>

<text 
x="113" 
y="388" 
dx="0,-0.1,0.1,0.5,0.1,0.2,0,0,0.5,0.5" 
class="s8_367"
>school and</text>

<text 
x="113" 
y="414" 
dx="0,0.3,0.1,0,0,-0.1,0.1,0.1,-1,0.3,0.1,0.3,0.3,0" 
class="s8_367"
>are preparing </text>

<text 
x="113" 
y="414" 
dx="0,0.3,0.1,0,0,-0.1,0.1,0.1,-1,0.3,0.1,0.3,0.3,0" 
class="s8_367"
>are preparing </text>

<text 
x="112" 
y="440" 
dx="0,-1,0,0,0.3,0.2,0.2,0,0,0.3" 
class="s8_367"
>to work on</text>

<text 
x="112" 
y="440" 
dx="0,-1,0,0,0.3,0.2,0.2,0,0,0.3" 
class="s8_367"
>to work on</text>

<text 
x="114" 
y="465" 
dx="0,0.5,0.2,0.3,-0.1,0.3,0.2,0.2,0,0,-1,0.7,0" 
class="s8_367"
>homework to- </text>

<text 
x="114" 
y="465" 
dx="0,0.5,0.2,0.3,-0.1,0.3,0.2,0.2,0,0,-1,0.7,0" 
class="s8_367"
>homework to- </text>

<text 
x="113" 
y="491" 
dx="0,0.2,-0.3,-0.1,0.5,0,0.5" 
class="s8_367"
>gether.</text>

<text 
x="113" 
y="491" 
dx="0,0.2,-0.3,-0.1,0.5,0,0.5" 
class="s8_367"
>gether.</text>

<text 
x="42" 
y="1149" 
dx="0,0,0" 
class="s9_367"
>344</text>



<!-- Any embedded fonts defined here -->
<style type="text/css" ><![CDATA[

@font-face {
	font-family: ProximaNova-Extrabld_db2;
	src: url("fonts/ProximaNova-Extrabld_db2.woff") format("woff");
}

@font-face {
	font-family: ProximaNova-Bold_da-;
	src: url("fonts/ProximaNova-Bold_da-.woff") format("woff");
}

@font-face {
	font-family: ProximaNova-Semibold_db4;
	src: url("fonts/ProximaNova-Semibold_db4.woff") format("woff");
}

@font-face {
	font-family: CCMeanwhile_dbs;
	src: url("fonts/CCMeanwhile_dbs.woff") format("woff");
}

]]></style>

</svg>
