<?xml version="1.0" encoding="UTF-8" standalone="no"?>
<!DOCTYPE svg PUBLIC "-//W3C//DTD SVG 1.1//EN"
"http://www.w3.org/Graphics/SVG/1.1/DTD/svg11.dtd">


<!-- Page 346 -->
<svg x="0" y="0" width="921" height="1196" viewBox="0 0 921 1196" version="1.1" xmlns="http://www.w3.org/2000/svg" xmlns:xlink="http://www.w3.org/1999/xlink"
style="display: block;margin-left: auto;margin-right: auto;">
<defs>

<style type="text/css"><![CDATA[

.g1_346{
fill: none;
stroke: #ACBF3B;
stroke-width: 2.2916667;
stroke-linecap: butt;
stroke-linejoin: miter;
stroke-miterlimit: 4;
}
.g2_346{
fill: none;
stroke: #3986C6;
stroke-width: 1.1458334;
stroke-linecap: butt;
stroke-linejoin: miter;
stroke-miterlimit: 4;
}
.g3_346{
fill: #3986C6;
}
.g4_346{
fill: #FFFFFF;
}
.g5_346{
fill: none;
stroke: #3986C6;
stroke-width: 1.1458334;
stroke-linecap: butt;
stroke-linejoin: miter;
}
.g6_346{
fill: #ACBF3B;
}

.s1_346{
font-size: 12.99px;
font-family: ProximaNova-Semibold_da4;
fill: #231F20;
}
.s2_346{
font-size: 18.33px;
font-family: ProximaNova-Bold_d9-;
fill: #231F20;
}
.s3_346{
font-size: 19.10px;
font-family: Alegreya-Bold_da6;
fill: #3986C6;
}
.s4_346{
font-size: 19.10px;
font-family: Alegreya-Regular_da1;
fill: #231F20;
}
.s5_346{
font-size: 19.86px;
font-family: ProximaNova-Bold_d9-;
fill: #231F20;
}

]]></style>

</defs>
<path d="M0,0
L0,1196
L921,1196
L921,0 Z " 
fill="#FFFFFF" stroke="none" />
<text 
transform="matrix(0, 1, -1, 0, 867, 887)"
dx="0,0,0,0,0,0,0,0,0,0,0" 
class="s1_346"
>Chapter 13 </text>

<text 
transform="matrix(0, 1, -1, 0, 867, 956)"
dx="0,0" 
class="s1_346"
>• </text>

<text 
transform="matrix(0, 1, -1, 0, 867, 968)"
dx="0,-0.2,0,0,0,0,0,0,0,0,0,0,0,0,0,0,0,0,0" 
class="s1_346"
>Looking for Support</text>

<text 
x="855" 
y="1155" 
dx="0,0,0" 
class="s2_346"
>323</text>

<image preserveAspectRatio="none" x="17" y="22" width="365" height="370" xlink:href="346/img/1.png" />
<image preserveAspectRatio="none" x="382" y="22" width="364" height="370" xlink:href="346/img/2.png" />
<image preserveAspectRatio="none" x="746" y="22" width="157" height="845" xlink:href="346/img/3.png" />
<image preserveAspectRatio="none" x="17" y="391" width="365" height="370" xlink:href="346/img/4.png" />
<image preserveAspectRatio="none" x="382" y="391" width="364" height="370" xlink:href="346/img/5.png" />
<image preserveAspectRatio="none" x="17" y="761" width="729" height="106" xlink:href="346/img/6.png" />
<text 
x="743" 
y="922" 
dx="0" 
class="s3_346"
>T</text>

<text 
x="784" 
y="922" 
dx="0" 
class="s3_346"
>F</text>

<text 
x="138" 
y="960" 
dx="0" 
class="s3_346"
>1</text>

<text 
x="161" 
y="960" 
dx="0,-0.2,0,0,0,0,0,0,-0.3,0,0,0,0,0,0,0,0,0,0,0,0,0,0,0,0,0,0,-0.3,0,0,0,0,0,0,0,0,0,0,0,0,0,0,0,0,0,0,0,0,0,-0.4,-1.3" 
class="s4_346"
>Martin was late to school for the first time today.</text>

<path d="M749.2,962.9c5.8,0,10.5,-4.6,10.5,-10.4C759.7,946.7,755,942,749.2,942c-5.7,0,-10.4,4.7,-10.4,10.5c0,5.8,4.7,10.4,10.4,10.4Z" class="g1_346" />
<path d="M790.2,962.9c5.8,0,10.5,-4.6,10.5,-10.4C800.7,946.7,796,942,790.2,942c-5.8,0,-10.5,4.7,-10.5,10.5c0,5.8,4.7,10.4,10.5,10.4Z" class="g1_346" />
<text 
x="138" 
y="998" 
dx="0" 
class="s3_346"
>2</text>

<text 
x="161" 
y="1001" 
dx="0,-0.2,0,0,0,0,0,0,-0.3,0,0,0,0,0,0,0,0,0,0,0,0,0,0,0,0,0,0,0,0,0,0,0,0,0,0,0,0,0,0,0,0,0,0,0,0,0,0,0,0,0,0,0,0,0,0,0,0,-0.3,0,0,0" 
class="s4_346"
>Martin went to bed right after he finished his math homework.</text>

<path d="M749.2,1004.2c5.8,0,10.5,-4.7,10.5,-10.5c0,-5.8,-4.7,-10.4,-10.5,-10.4c-5.7,0,-10.4,4.6,-10.4,10.4c0,5.8,4.7,10.5,10.4,10.5Z" class="g1_346" />
<path d="M790.2,1004.2c5.8,0,10.5,-4.7,10.5,-10.5c0,-5.8,-4.7,-10.4,-10.5,-10.4c-5.8,0,-10.5,4.6,-10.5,10.4c0,5.8,4.7,10.5,10.5,10.5Z" class="g1_346" />
<text 
x="138" 
y="1039" 
dx="0" 
class="s3_346"
>3</text>

<text 
x="161" 
y="1042" 
dx="0,-0.4,0,0,0,0,0,0,0,0,0,0,0,0,0,0,0,0,0,-0.3,0,0,0,0,0,0,0,-0.3,0,0,0,0,0,0,0,0,-0.2,0,0,0,0,0,0,0,0,0,0,-0.2,0,0,0,0,0,0,-0.3,0,0,0,0,0,-0.3,0,0.3,0,0,0,-0.4,-1.3" 
class="s4_346"
>Isabella does homework as well as preview and review work every day.</text>

<path d="M749.2,1045.4c5.8,0,10.5,-4.6,10.5,-10.4c0,-5.8,-4.7,-10.5,-10.5,-10.5c-5.7,0,-10.4,4.7,-10.4,10.5c0,5.8,4.7,10.4,10.4,10.4Z" class="g1_346" />
<path d="M790.2,1045.4c5.8,0,10.5,-4.6,10.5,-10.4c0,-5.8,-4.7,-10.5,-10.5,-10.5c-5.8,0,-10.5,4.7,-10.5,10.5c0,5.8,4.7,10.4,10.5,10.4Z" class="g1_346" />
<text 
x="137" 
y="1081" 
dx="0" 
class="s3_346"
>4</text>

<text 
x="161" 
y="1081" 
dx="0,-0.2,0,-0.2,0,0,0,0,0,0,0,0,0,0,0,0,0,0,0,0,0,0,0,0,0,0,0,0,0,0,0,0,-0.3,0,0.3,0,0,0,-0.4,-1.3,-0.4,0,-0.4,0,0,0,0,0,0,0,0,0,0,0,0,0,0,0,0,0,0,0,0,0,0,0,0,0,0,0,0,0,0" 
class="s4_346"
>Because she has so much to do every day, Isabella is also late to school </text>

<text 
x="162" 
y="1107" 
dx="0,0,0,0,0,0,0,0,0,-0.4" 
class="s4_346"
>sometimes.</text>

<path d="M749.2,1096.6c5.8,0,10.5,-4.7,10.5,-10.5c0,-5.8,-4.7,-10.4,-10.5,-10.4c-5.7,0,-10.4,4.6,-10.4,10.4c0,5.8,4.7,10.5,10.4,10.5Z" class="g1_346" />
<path d="M790.2,1096.6c5.8,0,10.5,-4.7,10.5,-10.5c0,-5.8,-4.7,-10.4,-10.5,-10.4c-5.8,0,-10.5,4.6,-10.5,10.4c0,5.8,4.7,10.5,10.5,10.5Z" class="g1_346" />
<path d="M88.7,955.3l0,-60.5l330.4,0" class="g2_346" />
<path d="M419.1,897.5c1.5,0,2.7,-1.2,2.7,-2.7c0,-1.6,-1.2,-2.8,-2.7,-2.8c-1.5,0,-2.8,1.2,-2.8,2.8c0,1.5,1.3,2.7,2.8,2.7Z" class="g3_346" />
<path d="M382.9,886.4c5.5,10.7,1.2,23.9,-9.5,29.3c-10.8,5.5,-23.9,1.3,-29.4,-9.5c-5.5,-10.7,-1.2,-23.9,9.5,-29.3c10.8,-5.5,23.9,-1.3,29.4,9.5Z" class="g4_346" />
<path d="M382.9,886.4c5.5,10.7,1.2,23.9,-9.5,29.3c-10.8,5.5,-23.9,1.3,-29.4,-9.5c-5.5,-10.7,-1.2,-23.9,9.5,-29.3c10.8,-5.5,23.9,-1.3,29.4,9.5Z" class="g5_346" />
<path d="M390.5,874.5c-1.2,-1,-3,-0.7,-4.1,0.6l-20.5,24.4c-1.1,1.3,-3,1.4,-4.2,0.2l-2.9,-2.9c-1.3,-1.2,-3.1,-1.3,-4.2,-0.2c-1.1,1.1,-1,3,0.2,4.2l7.3,7.1c1.2,1.2,3.1,1.1,4.2,-0.2l24.4,-29c1.1,-1.3,1,-3.2,-0.2,-4.2Z" class="g6_346" />
<path d="M104,907.1l226.5,0l0,-23.4l-226.5,0l0,23.4Z" class="g4_346" />
<text 
x="114" 
y="899" 
dx="0,0,0,0,0,0,0,0,0,0,0,0,0,0,0,0,0,0,0" 
class="s5_346"
>Comprehension Check</text>



<!-- Any embedded fonts defined here -->
<style type="text/css" ><![CDATA[

@font-face {
	font-family: Alegreya-Bold_da6;
	src: url("fonts/Alegreya-Bold_da6.woff") format("woff");
}

@font-face {
	font-family: Alegreya-Regular_da1;
	src: url("fonts/Alegreya-Regular_da1.woff") format("woff");
}

@font-face {
	font-family: ProximaNova-Bold_d9-;
	src: url("fonts/ProximaNova-Bold_d9-.woff") format("woff");
}

@font-face {
	font-family: ProximaNova-Semibold_da4;
	src: url("fonts/ProximaNova-Semibold_da4.woff") format("woff");
}

]]></style>

</svg>
