<?xml version="1.0" encoding="UTF-8" standalone="no"?>
<!DOCTYPE svg PUBLIC "-//W3C//DTD SVG 1.1//EN"
"http://www.w3.org/Graphics/SVG/1.1/DTD/svg11.dtd">


<!-- Page 420 -->
<svg x="0" y="0" width="921" height="1196" viewBox="0 0 921 1196" version="1.1" xmlns="http://www.w3.org/2000/svg" xmlns:xlink="http://www.w3.org/1999/xlink"
style="display: block;margin-left: auto;margin-right: auto;">
<defs>

<style type="text/css"><![CDATA[

.g1_420{
fill: none;
stroke: #3986C6;
stroke-width: 1.6194444;
stroke-linecap: butt;
stroke-linejoin: miter;
stroke-miterlimit: 4;
}
.g2_420{
fill: #3986C6;
}
.g3_420{
fill: #F0F1F2;
}
.g4_420{
fill: #BDBEC1;
}
.g5_420{
fill: none;
stroke: #BDBEC1;
stroke-width: 1.5277778;
stroke-linecap: butt;
stroke-linejoin: miter;
}

.s1_420{
font-size: 12.99px;
font-family: ProximaNova-Semibold_de4;
fill: #231F20;
}
.s2_420{
font-size: 18.33px;
font-family: ProximaNova-Bold_ddv;
fill: #231F20;
}
.s3_420{
font-size: 18.33px;
font-family: ProximaNova-Bold_ddv;
fill: #57585A;
}
.s4_420{
font-size: 32.08px;
font-family: STKaitiSC-Regular_cof;
fill: #231F20;
}
.s5_420{
font-size: 19.10px;
font-family: Alegreya-Regular_ddy;
fill: #231F20;
}
.s6_420{
font-size: 21.39px;
font-family: ProximaNova-Semibold_ddu;
fill: #3F3F40;
}

]]></style>

</defs>
<path d="M0,0
L0,1196
L921,1196
L921,0 Z " 
fill="#FFFFFF" stroke="none" />
<text 
transform="matrix(0, 1, -1, 0, 867, 869)"
dx="0,-0.8,0,0,0,0,0,0,0,0,0,0,0,0,0,-0.5,0,0,0,0,0,0,0,0,0,0,0,0,0,0,0,0,0,0,0,0" 
class="s1_420"
>Vocabulary Index (Chinese – English)</text>

<text 
x="856" 
y="1149" 
dx="0,0,0" 
class="s2_420"
>397</text>

<path d="M872.3,1089.3l0,38.7" class="g1_420" />
<path d="M872.3,1125.4c-1.5,0,-2.6,1.1,-2.6,2.6c0,1.4,1.1,2.6,2.6,2.6c1.4,0,2.6,-1.2,2.6,-2.6c0,-1.5,-1.2,-2.6,-2.6,-2.6Z" class="g2_420" />
<path d="M87.6,167l115.7,0l0,42.3l-115.7,0l0,-42.3Zm115.7,0l140.3,0l0,42.3l-140.3,0l0,-42.3Zm140.3,0l402.6,0l0,42.3l-402.6,0l0,-42.3Zm402.6,0l62.2,0l0,42.3l-62.2,0l0,-42.3ZM87.6,251.6l115.7,0l0,42.3l-115.7,0l0,-42.3Zm115.7,0l140.3,0l0,42.3l-140.3,0l0,-42.3Zm140.3,0l402.6,0l0,42.3l-402.6,0l0,-42.3Zm402.6,0l62.2,0l0,42.3l-62.2,0l0,-42.3ZM87.6,336.2l115.7,0l0,42.4l-115.7,0l0,-42.4Zm115.7,0l140.3,0l0,42.4l-140.3,0l0,-42.4Zm140.3,0l402.6,0l0,42.4l-402.6,0l0,-42.4Zm402.6,0l62.2,0l0,42.4l-62.2,0l0,-42.4ZM87.6,508.1l115.7,0l0,61.1l-115.7,0l0,-61.1Zm115.7,0l140.3,0l0,61.1l-140.3,0l0,-61.1Zm140.3,0l402.6,0l0,61.1l-402.6,0l0,-61.1Zm402.6,0l62.2,0l0,61.1l-62.2,0l0,-61.1ZM87.6,614.2l115.7,0l0,45.1l-115.7,0l0,-45.1Zm115.7,0l140.3,0l0,45.1l-140.3,0l0,-45.1Zm140.3,0l402.6,0l0,45.1l-402.6,0l0,-45.1Zm402.6,0l62.2,0l0,45.1l-62.2,0l0,-45.1ZM87.6,704.4l115.7,0l0,45l-115.7,0l0,-45Zm115.7,0l140.3,0l0,45l-140.3,0l0,-45Zm140.3,0l402.6,0l0,45l-402.6,0l0,-45Zm402.6,0l62.2,0l0,45l-62.2,0l0,-45ZM87.6,794.5l115.7,0l0,45.1l-115.7,0l0,-45.1Zm115.7,0l140.3,0l0,45.1l-140.3,0l0,-45.1Zm140.3,0l402.6,0l0,45.1l-402.6,0l0,-45.1Zm402.6,0l62.2,0l0,45.1l-62.2,0l0,-45.1ZM87.6,884.7l115.7,0l0,45l-115.7,0l0,-45Zm115.7,0l140.3,0l0,45l-140.3,0l0,-45Zm140.3,0l402.6,0l0,45l-402.6,0l0,-45Zm402.6,0l62.2,0l0,45l-62.2,0l0,-45ZM87.6,974.8l115.7,0l0,45.1l-115.7,0l0,-45.1Zm115.7,0l140.3,0l0,45.1l-140.3,0l0,-45.1Zm140.3,0l402.6,0l0,45.1l-402.6,0l0,-45.1Zm402.6,0l62.2,0l0,45.1l-62.2,0l0,-45.1ZM87.6,1064.9l115.7,0l0,45.1l-115.7,0l0,-45.1Zm115.7,0l140.3,0l0,45.1l-140.3,0l0,-45.1Zm140.3,0l402.6,0l0,45.1l-402.6,0l0,-45.1Zm402.6,0l62.2,0l0,45.1l-62.2,0l0,-45.1Z" class="g3_420" />
<path d="M87.6,420.9l720.8,0l0,42.1L87.6,463l0,-42.1Z" class="g4_420" />
<path d="M87.6,124.7l115.7,0" class="g5_420" />
<path d="M203.3,124.7l140.3,0" class="g5_420" />
<path d="M343.6,124.7l402.6,0" class="g5_420" />
<path d="M746.2,124.7l62.2,0" class="g5_420" />
<path d="M87.6,1110l115.7,0" class="g5_420" />
<path d="M203.3,1110l140.3,0" class="g5_420" />
<path d="M343.6,1110l402.6,0" class="g5_420" />
<path d="M746.2,1110l62.2,0" class="g5_420" />
<text 
x="93" 
y="110" 
dx="0,0,0,0,0,0,0" 
class="s3_420"
>Chinese</text>

<text 
x="209" 
y="110" 
dx="0,0,0,0,0,0" 
class="s3_420"
>Pinyin</text>

<text 
x="349" 
y="110" 
dx="0,0,0,0,0,0,0" 
class="s3_420"
>English</text>

<text 
x="752" 
y="110" 
dx="0,-0.4,0,0" 
class="s3_420"
>Page</text>

<text 
x="93" 
y="153" 
dx="0,0" 
class="s4_420"
>休息</text>

<text 
x="209" 
y="153" 
dx="0,0,0,0,0" 
class="s5_420"
>xiūxi</text>

<text 
x="349" 
y="153" 
dx="0,0,0,0,-0.2,0,0,0,-0.4,0,0,0,0,0,0,-0.4,0,0,0,0,0,-0.2,0,0" 
class="s5_420"
>to rest, to take a break</text>

<text 
x="752" 
y="153" 
dx="0,0,0" 
class="s5_420"
>286</text>

<text 
x="93" 
y="196" 
dx="0" 
class="s4_420"
>选</text>

<text 
x="209" 
y="196" 
dx="0,0,0,0" 
class="s5_420"
>xuǎn</text>

<text 
x="349" 
y="196" 
dx="0,0,0,0,0,0,0,0,0" 
class="s5_420"
>to choose</text>

<text 
x="752" 
y="196" 
dx="0,0,0" 
class="s5_420"
>238</text>

<text 
x="93" 
y="238" 
dx="0" 
class="s4_420"
>学</text>

<text 
x="209" 
y="238" 
dx="0,0,0" 
class="s5_420"
>xué</text>

<text 
x="349" 
y="238" 
dx="0,0,0,0,0,0,0,0,0,-0.4,0,0,0,0,0,0,0,0" 
class="s5_420"
>to learn, to study</text>

<text 
x="752" 
y="238" 
dx="0,0" 
class="s5_420"
>84</text>

<text 
x="93" 
y="280" 
dx="0,0" 
class="s4_420"
>学期</text>

<text 
x="209" 
y="280" 
dx="0,0,0,0,0" 
class="s5_420"
>xuéqī</text>

<text 
x="349" 
y="280" 
dx="0,0,0,0,0,0,0,0,0,0,0,0,-0.4,0,0,0,0,0,0,0,0" 
class="s5_420"
>school term, semester</text>

<text 
x="752" 
y="280" 
dx="0,0,0" 
class="s5_420"
>365</text>

<text 
x="93" 
y="323" 
dx="0,0" 
class="s4_420"
>学生</text>

<text 
x="209" 
y="323" 
dx="0,0,0,0,0,0,0,0" 
class="s5_420"
>xúeshēng</text>

<text 
x="349" 
y="323" 
dx="0,0,0,0,0,0,0" 
class="s5_420"
>student</text>

<text 
x="752" 
y="323" 
dx="0,0" 
class="s5_420"
>21</text>

<text 
x="93" 
y="365" 
dx="0,0" 
class="s4_420"
>学习</text>

<text 
x="209" 
y="365" 
dx="0,0,0,-0.4,0" 
class="s5_420"
>xuéxí</text>

<text 
x="349" 
y="365" 
dx="0,0,0,0,0,0,0,0,0,0,0,0,0,0,0,0,0,-1.3,-0.4,0,0,0,0,0,0,0,0" 
class="s5_420"
>studies; to study, to learn</text>

<text 
x="752" 
y="365" 
dx="0,0,0" 
class="s5_420"
>312</text>

<text 
x="93" 
y="407" 
dx="0,0" 
class="s4_420"
>学校</text>

<text 
x="209" 
y="407" 
dx="0,0,0,-0.4,0,0,0" 
class="s5_420"
>xuéxiào</text>

<text 
x="349" 
y="407" 
dx="0,0,0,0,0,0" 
class="s5_420"
>school</text>

<text 
x="752" 
y="407" 
dx="0,0" 
class="s5_420"
>94</text>

<text 
x="441" 
y="450" 
dx="0" 
class="s6_420"
>Y</text>

<text 
x="93" 
y="493" 
dx="0,0" 
class="s4_420"
>颜色</text>

<text 
x="209" 
y="493" 
dx="0,-0.3,0,0,0" 
class="s5_420"
>yánsè</text>

<text 
x="349" 
y="493" 
dx="0,-0.3,0,0,0" 
class="s5_420"
>color</text>

<text 
x="752" 
y="493" 
dx="0,0,0" 
class="s5_420"
>191</text>

<text 
x="93" 
y="546" 
dx="0" 
class="s4_420"
>要</text>

<text 
x="209" 
y="546" 
dx="0,-0.3,0" 
class="s5_420"
>yào</text>

<text 
x="349" 
y="533" 
dx="0,0,0,0,0,0,0,0,0,0,0,0,0,0,0,0,0,0,0,0,0,0,0,0,0,0,0,0,0,0,-0.4,0,0,0,0,-0.3,0,0,0" 
class="s5_420"
>to be going to (do something), to want </text>

<text 
x="349" 
y="559" 
dx="0,0,0,0,0,0,0,0,0,0,0,0,0,0,0,0,0,0,0,0,0,0,0,0,0,0,0,0" 
class="s5_420"
>(something; to do something)</text>

<text 
x="752" 
y="546" 
dx="0,0,0" 
class="s5_420"
>182</text>

<text 
x="93" 
y="599" 
dx="0" 
class="s4_420"
>也</text>

<text 
x="209" 
y="599" 
dx="0,-0.3" 
class="s5_420"
>yě</text>

<text 
x="349" 
y="599" 
dx="0,0,0,0,-0.8,-0.4,0,0,0,-0.8,-0.4,0,0,0,0,-0.3,0,0,0,0,0" 
class="s5_420"
>also, too, as well as</text>

<text 
x="752" 
y="599" 
dx="0,0" 
class="s5_420"
>41</text>

<text 
x="93" 
y="644" 
dx="0" 
class="s4_420"
>一</text>

<text 
x="209" 
y="644" 
dx="0,0" 
class="s5_420"
>yī</text>

<text 
x="349" 
y="644" 
dx="0,0,0" 
class="s5_420"
>one</text>

<text 
x="752" 
y="644" 
dx="0,0" 
class="s5_420"
>18</text>

<text 
x="93" 
y="689" 
dx="0,0" 
class="s4_420"
>一定</text>

<text 
x="209" 
y="689" 
dx="0,0,0,0,0,0" 
class="s5_420"
>yídìng</text>

<text 
x="349" 
y="689" 
dx="0,-0.3,0,0,0,0,0,0,0,-1.3,-0.4,0,0,0,0,0,0,0,0,0,0" 
class="s5_420"
>certainly, definitely</text>

<text 
x="752" 
y="689" 
dx="0,0,0" 
class="s5_420"
>168</text>

<text 
x="93" 
y="734" 
dx="0,0" 
class="s4_420"
>一样</text>

<text 
x="209" 
y="734" 
dx="0,0,0,-0.3,0,0" 
class="s5_420"
>yíyàng</text>

<text 
x="349" 
y="734" 
dx="0,0,0,0,-0.6,-0.4,0,0,0,0,-0.4,0,0,0,0,-0.4,0,0,0,0" 
class="s5_420"
>same, alike; as...as</text>

<text 
x="752" 
y="734" 
dx="0,0,0" 
class="s5_420"
>268</text>

<text 
x="93" 
y="777" 
dx="0" 
class="s5_420"
>(</text>

<text 
x="97" 
y="780" 
dx="0" 
class="s4_420"
>一</text>

<text 
x="128" 
y="777" 
dx="0" 
class="s5_420"
>)</text>

<text 
x="136" 
y="780" 
dx="0,-3.2" 
class="s4_420"
>点儿</text>

<text 
x="209" 
y="779" 
dx="0,0,0,0,0,0,0,0,0" 
class="s5_420"
>(yì)diǎnr</text>

<text 
x="349" 
y="779" 
dx="0,0,0,0,0,0,-0.4,0,0,0,0,0,0,0,0,-0.6,-0.4,0,0,0,0" 
class="s5_420"
>a bit, a little, some</text>

<text 
x="752" 
y="779" 
dx="0,0,0" 
class="s5_420"
>281</text>

<text 
x="93" 
y="825" 
dx="0,0" 
class="s4_420"
>一起</text>

<text 
x="209" 
y="825" 
dx="0,0,0,0" 
class="s5_420"
>yìqǐ</text>

<text 
x="349" 
y="825" 
dx="0,0,0,0,0,0,0,0" 
class="s5_420"
>together</text>

<text 
x="752" 
y="825" 
dx="0,0,0" 
class="s5_420"
>268</text>

<text 
x="93" 
y="870" 
dx="0,0" 
class="s4_420"
>衣服</text>

<text 
x="209" 
y="870" 
dx="0,0,0,0" 
class="s5_420"
>yīfu</text>

<text 
x="349" 
y="870" 
dx="0,0,0,0,0,0,0,0" 
class="s5_420"
>clothing</text>

<text 
x="752" 
y="870" 
dx="0,0,0" 
class="s5_420"
>191</text>

<text 
x="93" 
y="915" 
dx="0,0" 
class="s4_420"
>已经</text>

<text 
x="209" 
y="915" 
dx="0,0,0,0,0,0" 
class="s5_420"
>yǐjīng</text>

<text 
x="349" 
y="915" 
dx="0,0,0,-0.2,0,0,0" 
class="s5_420"
>already</text>

<text 
x="752" 
y="915" 
dx="0,0,0" 
class="s5_420"
>268</text>

<text 
x="93" 
y="960" 
dx="0,0" 
class="s4_420"
>以前</text>

<text 
x="209" 
y="960" 
dx="0,0,0,0,0,0" 
class="s5_420"
>yǐqián</text>

<text 
x="349" 
y="960" 
dx="0,0,0,-0.3,0,-0.2,-0.6,-0.4,0,0,0" 
class="s5_420"
>before, ago</text>

<text 
x="752" 
y="960" 
dx="0,0,0" 
class="s5_420"
>331</text>

<text 
x="93" 
y="1005" 
dx="0,0" 
class="s4_420"
>以为</text>

<text 
x="209" 
y="1005" 
dx="0,0,0,-0.3,0" 
class="s5_420"
>yǐwéi</text>

<text 
x="349" 
y="1005" 
dx="0,0,0,0,0,0,0,0,0,-0.4,0,0,0,0,0,0,0,0,0,0,-0.4,0,0,0,0,0,0,0,0,0,0,0,0,0,-0.3,0,0,-0.2,0,0,0,0" 
class="s5_420"
>to mistakenly think, to assume incorrectly</text>

<text 
x="752" 
y="1005" 
dx="0,0,0" 
class="s5_420"
>331</text>

<text 
x="93" 
y="1050" 
dx="0,0" 
class="s4_420"
>因为</text>

<text 
x="209" 
y="1050" 
dx="0,0,0,-0.4,-0.3,0" 
class="s5_420"
>yīnwèi</text>

<text 
x="349" 
y="1050" 
dx="0,0,0,-0.2,0,0,0" 
class="s5_420"
>because</text>

<text 
x="752" 
y="1050" 
dx="0,0,0" 
class="s5_420"
>216</text>

<text 
x="93" 
y="1095" 
dx="0,0" 
class="s4_420"
>音乐</text>

<text 
x="209" 
y="1095" 
dx="0,0,0,-0.4,0,0" 
class="s5_420"
>yīnyuè</text>

<text 
x="349" 
y="1095" 
dx="0,0,0,0,0" 
class="s5_420"
>music</text>

<text 
x="752" 
y="1095" 
dx="0,0,0" 
class="s5_420"
>141</text>



<!-- Any embedded fonts defined here -->
<style type="text/css" ><![CDATA[

@font-face {
	font-family: Alegreya-Regular_ddy;
	src: url("fonts/Alegreya-Regular_ddy.woff") format("woff");
}

@font-face {
	font-family: ProximaNova-Semibold_de4;
	src: url("fonts/ProximaNova-Semibold_de4.woff") format("woff");
}

@font-face {
	font-family: ProximaNova-Bold_ddv;
	src: url("fonts/ProximaNova-Bold_ddv.woff") format("woff");
}

@font-face {
	font-family: STKaitiSC-Regular_cof;
	src: url("fonts/STKaitiSC-Regular_cof.woff") format("woff");
}

@font-face {
	font-family: ProximaNova-Semibold_ddu;
	src: url("fonts/ProximaNova-Semibold_ddu.woff") format("woff");
}

]]></style>

</svg>
