<?xml version="1.0" encoding="UTF-8" standalone="no"?>
<!DOCTYPE svg PUBLIC "-//W3C//DTD SVG 1.1//EN"
"http://www.w3.org/Graphics/SVG/1.1/DTD/svg11.dtd">


<!-- Page 104 -->
<svg x="0" y="0" width="921" height="1196" viewBox="0 0 921 1196" version="1.1" xmlns="http://www.w3.org/2000/svg" xmlns:xlink="http://www.w3.org/1999/xlink"
style="display: block;margin-left: auto;margin-right: auto;">
<defs>
<clipPath id="c0_104"><path d="M0,1196.3L0,0L921.3,0l0,1196.3Z" /></clipPath>

<style type="text/css"><![CDATA[

.g1_104{
fill: none;
stroke: #933728;
stroke-width: 1.5277778;
stroke-linecap: butt;
stroke-linejoin: miter;
stroke-miterlimit: 4;
}
.g2_104{
fill: #933728;
}
.g3_104{
fill: #943626;
}
.g4_104{
fill: #B34533;
}
.g5_104{
fill: #FFFFFF;
}
.g6_104{
fill: #B9BABB;
}
.g7_104{
fill: none;
stroke: #B34636;
stroke-width: 3.0555556;
stroke-linecap: butt;
stroke-linejoin: miter;
stroke-miterlimit: 4;
}

.s1_104{
font-size: 22.92px;
font-family: Alegreya-Black_cuw;
fill: #B34533;
}
.s2_104{
font-size: 19.10px;
font-family: Alegreya-Regular_cus;
fill: #211E1E;
}
.s3_104{
font-size: 19.86px;
font-family: Alegreya-Bold_cuj;
fill: #FFFFFF;
}
.s4_104{
font-size: 24.44px;
font-family: ProximaNova-Extrabld_cuq;
fill: #C94E3C;
}
.s5_104{
font-size: 22.92px;
font-family: ProximaNova-Extrabld_cuq;
fill: #FFFFFF;
}
.s6_104{
font-size: 24.44px;
font-family: Alegreya-Black_cuw;
fill: #231F20;
}
.s7_104{
font-size: 13.75px;
font-family: Alegreya-Regular_cus;
fill: #231F20;
}
.s8_104{
font-size: 18.33px;
font-family: Alegreya-Black_cuw;
fill: #B34636;
}
.s9_104{
font-size: 13.75px;
font-family: ProximaNovaA-Regular_cuy;
fill: #57585A;
}
.s10_104{
font-size: 10.69px;
font-family: ProximaNovaA-Regular_cuy;
fill: #57585A;
}
.s11_104{
font-size: 18.33px;
font-family: ProximaNova-Bold_cur;
fill: #FFFFFF;
}

]]></style>

</defs>
<path d="M0,0
L0,1196
L921,1196
L921,0 Z " 
fill="#FFFFFF" stroke="none" />
<path d="M163.4,894.8l399.8,0" class="g1_104" />
<path d="M563.2,900.3c3,0,5.5,-2.4,5.5,-5.5c0,-3,-2.5,-5.5,-5.5,-5.5c-3,0,-5.5,2.5,-5.5,5.5c0,3.1,2.5,5.5,5.5,5.5Z" class="g2_104" />
<g clip-path="url(#c0_104)">
<path d="M491.3,929.1l0,-34.3c0,-18.9,-15.4,-34.2,-34.3,-34.2l-457,0l0,68.5Z" class="g3_104" />
<path d="M0,1210l932.6,0l0,-281.8L0,928.2L0,1210Z" class="g4_104" />
</g>
<text 
x="624" 
y="522" 
dx="0,0,0,0,0,0,0,0,-0.5,0,0,0,0,0" 
class="s1_104"
>By the Numbers</text>

<text 
x="623" 
y="547" 
dx="0,-0.2,0,0,0,0,0,0,0,0,-0.2,-0.4,0,0,0,-0.3,0,0,0,0,0" 
class="s2_104"
>Whether drawn by the </text>

<text 
x="625" 
y="573" 
dx="0,0,0,0,1.1,0,0,0,0,0,0,0,0,0,0,0,0,0,0.3,0,0,0,0" 
class="s2_104"
>city’s long history or </text>

<text 
x="624" 
y="599" 
dx="0,0,0,0,0,0,0,0,0,0,0,0,-0.4,0,0,0,0,-0.2,0,0,0,0,-0.2,0" 
class="s2_104"
>looking to explore more </text>

<text 
x="624" 
y="625" 
dx="0,0,0,0,0,0,0,0,0,0,0,-0.2,0,0,0,0,0,0,-0.4,-0.4" 
class="s2_104"
>modern attractions, </text>

<text 
x="624" 
y="651" 
dx="0,0,0,0,0,0,0,0,0,0,0,0,0,0,0,0,0,0,0,0,0,0,0,0,0,0" 
class="s2_104"
>millions of international </text>

<text 
x="624" 
y="677" 
dx="0,0,0,0,0,0,0,0,0,0,0,0,0,0,0,0,0,0,0,0,0,0,0,0,0,0,0" 
class="s2_104"
>and Chinese tourists visit </text>

<text 
x="623" 
y="703" 
dx="0,-0.2,0,0,0,0,0,0,0,0,-0.3,0,0.3,0,0,-0.3,0,0,-1.5" 
class="s2_104"
>Beijing every year.</text>

<text 
x="205" 
y="989" 
dx="0,0,0,0,0,0,0,0,0,0,0,0,0,-0.2,0,0,0,0,0,0,0,0,0,0,0,0,0,0,0,-0.3,0,0,0,0,-0.3,0,0,0,0,0.3,0,0,-0.1,0,0,0,0,0,0,-0.2,0,0,0" 
class="s3_104"
>What is the capital city of your country famous for? </text>

<text 
x="205" 
y="1015" 
dx="0,-0.4,-0.3,0,0,0,0,0,-0.3,0,0,0,0,0,0,0,0,0,0,0,0,0,0,0,0,0,0,0,0,0,0,0,0,0,0,0,0,0,0,0,0,-0.2,0,-0.2,0,0,0,0,0,-0.2,0,0,0,-0.1,0,0,0,0,0,0" 
class="s3_104"
>How do you think it is similar to or different from Beijing?</text>

<text 
x="205" 
y="1063" 
dx="0,0,0,0,0,0,-0.3,0,0,0,0,0,-0.3,0,0,0,0,0,0,-0.1,0,0,0,0,0,0,0,0,0,0,0,0,0,0,0,0,0,0,0,0,0,0,0,0,0,0,0,0,0,0,0,0,0,0,0,-0.3,0,0,0,0,0,0,0,0,0,-0.3,0,0" 
class="s3_104"
>What would you suggest people do or see when visiting your hometown?</text>

<path d="M164,1012c9.7,0,17.6,-7.9,17.6,-17.7c0,-9.8,-7.9,-17.7,-17.6,-17.7c-9.8,0,-17.7,7.9,-17.7,17.7c0,9.8,7.9,17.7,17.7,17.7Z" class="g5_104" />
<path d="M164,1072.8c9.7,0,17.6,-7.9,17.6,-17.7c0,-9.7,-7.9,-17.6,-17.6,-17.6c-9.8,0,-17.7,7.9,-17.7,17.6c0,9.8,7.9,17.7,17.7,17.7Z" class="g5_104" />
<path d="M164,1133.7c9.7,0,17.6,-8,17.6,-17.7c0,-9.8,-7.9,-17.7,-17.6,-17.7c-9.8,0,-17.7,7.9,-17.7,17.7c0,9.7,7.9,17.7,17.7,17.7Z" class="g5_104" />
<text 
x="157" 
y="1001" 
dx="0" 
class="s4_104"
>1</text>

<text 
x="155" 
y="1062" 
dx="0" 
class="s4_104"
>2</text>

<text 
x="156" 
y="1123" 
dx="0" 
class="s4_104"
>3</text>

<text 
x="205" 
y="1111" 
dx="0,-0.4,-0.3,0,0,-0.3,0,0,0,0,0,-0.3,0,0,0,0,0,0,-0.2,0,0,-0.1,0,0,0,-0.1,0,0,0,0,0,-0.3,0,0,0,0,-0.3,-0.3,0,0,0,0,0,0,0,0,0,0,0,-0.2,0,-0.2,0,0,0,0,0,0,0,0,0" 
class="s3_104"
>How would your life change if you moved to a different city? </text>

<text 
x="204" 
y="1137" 
dx="0,0,0,0,0,0,-0.2,0,-0.2,0,0,0,0,-0.3,0,0,0,0,0.3,0" 
class="s3_104"
>A different country?</text>

<text 
x="143" 
y="889" 
dx="0,0.1,0.1,0.1,0.1,0.1,0.1,0.1,0.1,0.1,0.1,0.1,0.1,0.1,0.1" 
class="s5_104"
>REFLEcT ON THE </text>

<text 
x="143" 
y="914" 
dx="0,0.1,0.1,0.1,0.1,0.1,0.1,0.1,0.1,0.1,0.1,0.1,0.1,0.1,0.1,0.1,0.1,0.1,0.1" 
class="s5_104"
>ESSENTIAL QUESTION </text>

<text 
x="597" 
y="883" 
dx="0,-0.5,-0.2,0,0,0,0,0,0,0,0,0,0,-0.2,0,0,-0.2,0" 
class="s6_104"
>How does where you</text>

<text 
x="598" 
y="911" 
dx="0,0,0,-0.2,0,0,0,0,0,0,0,0,0,0,0,0,0,0,-0.2,0,0,0,0,0" 
class="s6_104"
>live affect what you do?</text>

<text 
x="624" 
y="731" 
dx="0,-0.3,0,0,-0.2,-0.2,0,0,0,-0.2,0,0,0,0,0,0,0,0,0,0,0,0,0,0,0,-0.2,0,0,0,-0.6,0,0,0,0,0,0,0,0,0,0,0" 
class="s7_104"
>Source: Beijing Statistical Yearbook 2017</text>

<image preserveAspectRatio="none" x="392" y="86" width="453" height="349" xlink:href="104/img/1.png" />
<text 
x="87" 
y="110" 
dx="0,-0.5,0,0,0,0,0,0,0,0,0,0,0,-0.2,0,0,0,0,0,-0.5,0,-0.7,0" 
class="s1_104"
>Ancient…but Modern, Too</text>

<text 
x="86" 
y="134" 
dx="0,-0.2,0,0,0,0,0,0,0,0,-0.4,0,0,0,0,0,0,0,0,0,0,0,0,0,0,0,0,0,0,0,-1.3,-0.4" 
class="s2_104"
>Beijing may be an ancient city, </text>

<text 
x="87" 
y="160" 
dx="0,0,0,0,0,0,0,0,0,0,0,0,0,0,0,0,0,0,0,0,0,0,0,0,0,0,0,0,0,0,0,0,0,-0.4,-0.4" 
class="s2_104"
>but it also has modern activities. </text>

<text 
x="86" 
y="186" 
dx="0,-0.2,0,0,0,0,0,0,1.1,0,0,0,-0.2,0,0,0,0,0,0,0,0,0,-0.2,0,0,0,0,0,0,-0.3,0" 
class="s2_104"
>The city’s residents can enjoy </text>

<text 
x="87" 
y="212" 
dx="0,0,0,0,0,0,0,0,0,0,0,0,0,0,0,0,0,0,0,0,0,-0.4,0,0,0,0,-0.2,0" 
class="s2_104"
>amusement parks and explore </text>

<text 
x="87" 
y="238" 
dx="0,0,0,0,-0.2,0,0,0,0,0,0,0,0,0,0,0,0,0,0,-0.3,0,0,-0.6,-0.4,0,-0.2,0,0,0,0,0,0,0,0,-0.4" 
class="s2_104"
>a great shopping scene. This mall, </text>

<text 
x="87" 
y="264" 
dx="0,0,0,-0.3,0,0,0,0,0,0,0,0,0,0,0,0,-0.4,0,-0.2,0,0,0,0,0,0,-0.3,-0.6,-1.1,-0.4,0,0,0,0" 
class="s2_104"
>known simply as “The Place,” has </text>

<text 
x="87" 
y="290" 
dx="0,0,0,-0.4,0,0,0,0,0,-0.2,0,0,0,0,0,0,-0.4,-0.4,0,0,0,0,0,0,0,0,0,0" 
class="s2_104"
>many attractions, including </text>

<text 
x="87" 
y="316" 
dx="0,0,0,0,0,-0.4,-0.4,0,0,0,0,0,0,0,0,0,0,0,0,0,0,0,-0.2,0,0,0,0,0,-0.2,0,0,0,-0.4,-0.4" 
class="s2_104"
>shops, international restaurants, </text>

<text 
x="87" 
y="342" 
dx="0,0,0,0,0,0,0,0,0,0,0,0,-0.3,0,0,0,0,0,0,0,0,0,0,0,0,-0.2,0,0,0" 
class="s2_104"
>and a massive outdoor screen </text>

<text 
x="86" 
y="368" 
dx="0,0,0,0,0,0,0,0,0,0,-0.3,0,-0.4,0,0,0,0,0,0,0,0,0,0,0,0,0,0,0,-0.4,-1.3" 
class="s2_104"
>with an ever-changing display.</text>

<text 
x="197" 
y="495" 
dx="0,-0.4,0,0,0,0,0,0,0,0,0,-0.6,0,0,0,0,0,0,0,0,0,0,0,0,0,0,0,0,0,0,0,0,0,0,0,0,0,0,0,0,0,0,0" 
class="s8_104"
>Number of Tourists (In Millions) to Beijing</text>

<path d="M145.4,744.9l0,0.8l435.3,0.4l0,-0.8Z" class="g6_104" />
<text 
transform="matrix(0, -1, 1, 0, 99, 689)"
dx="0,0,0,0,0,0,0,0,0,0,0,-1.6,0,0,0,0,0,0" 
class="s9_104"
>Number of Tourists</text>

<text 
x="349" 
y="790" 
dx="0,-1.7,0,0" 
class="s9_104"
>Year</text>

<text 
x="135" 
y="748" 
dx="0" 
class="s10_104"
>0</text>

<text 
x="125" 
y="677" 
dx="0,0,0" 
class="s10_104"
>100</text>

<text 
x="155" 
y="758" 
dx="0,0,0,0" 
class="s10_104"
>1995</text>

<text 
x="251" 
y="758" 
dx="0,0,0,0" 
class="s10_104"
>2000</text>

<text 
x="350" 
y="758" 
dx="0,0,0,0" 
class="s10_104"
>2005</text>

<text 
x="450" 
y="758" 
dx="0,0,0,0" 
class="s10_104"
>2010</text>

<text 
x="550" 
y="758" 
dx="0,0,0,0" 
class="s10_104"
>2015</text>

<text 
x="122" 
y="606" 
dx="0,0,0" 
class="s10_104"
>200</text>

<text 
x="123" 
y="536" 
dx="0,0,0" 
class="s10_104"
>300</text>

<path d="M576.8,532.2c-0.3,0,-0.5,0.3,-0.5,0.6c0,0.3,0.2,0.6,0.5,0.6c0.4,0,0.6,-0.3,0.6,-0.6c0,-0.3,-0.2,-0.6,-0.6,-0.6m-3.4,0c-0.3,0,-0.6,0.3,-0.6,0.6c0,0.3,0.3,0.6,0.6,0.6c0.3,0,0.6,-0.3,0.6,-0.6c0,-0.3,-0.3,-0.6,-0.6,-0.6m-3.5,0c-0.3,0,-0.5,0.3,-0.5,0.6c0,0.3,0.2,0.6,0.5,0.6c0.4,0,0.6,-0.3,0.6,-0.6c0,-0.3,-0.2,-0.6,-0.6,-0.6m-3.4,0c-0.3,0,-0.6,0.3,-0.6,0.6c0,0.3,0.3,0.6,0.6,0.6c0.3,0,0.6,-0.3,0.6,-0.6c0,-0.3,-0.3,-0.6,-0.6,-0.6m-3.5,0c-0.3,0,-0.5,0.3,-0.5,0.6c0,0.3,0.2,0.6,0.5,0.6c0.4,0,0.6,-0.3,0.6,-0.6c0,-0.3,-0.2,-0.6,-0.6,-0.6m-3.4,0c-0.3,0,-0.6,0.3,-0.6,0.6c0,0.3,0.3,0.6,0.6,0.6c0.3,0,0.6,-0.3,0.6,-0.6c0,-0.3,-0.3,-0.6,-0.6,-0.6m-3.4,0c-0.4,0,-0.6,0.3,-0.6,0.6c0,0.3,0.2,0.6,0.6,0.6c0.3,0,0.5,-0.3,0.5,-0.6c0,-0.3,-0.2,-0.6,-0.5,-0.6m-3.5,0c-0.3,0,-0.6,0.3,-0.6,0.6c0,0.3,0.3,0.6,0.6,0.6c0.3,0,0.6,-0.3,0.6,-0.6c0,-0.3,-0.3,-0.6,-0.6,-0.6m-3.4,0c-0.4,0,-0.6,0.3,-0.6,0.6c0,0.3,0.2,0.6,0.6,0.6c0.3,0,0.5,-0.3,0.5,-0.6c0,-0.3,-0.2,-0.6,-0.5,-0.6m-3.5,0c-0.3,0,-0.6,0.3,-0.6,0.6c0,0.3,0.3,0.6,0.6,0.6c0.3,0,0.6,-0.3,0.6,-0.6c0,-0.3,-0.3,-0.6,-0.6,-0.6m-3.4,0c-0.4,0,-0.6,0.3,-0.6,0.6c0,0.3,0.2,0.6,0.6,0.6c0.3,0,0.5,-0.3,0.5,-0.6c0,-0.3,-0.2,-0.6,-0.5,-0.6m-3.5,0c-0.3,0,-0.6,0.3,-0.6,0.6c0,0.3,0.3,0.6,0.6,0.6c0.3,0,0.6,-0.3,0.6,-0.6c0,-0.3,-0.3,-0.6,-0.6,-0.6m-3.4,0c-0.4,0,-0.6,0.3,-0.6,0.6c0,0.3,0.2,0.6,0.6,0.6c0.3,0,0.5,-0.3,0.5,-0.6c0,-0.3,-0.2,-0.6,-0.5,-0.6m-3.5,0c-0.3,0,-0.6,0.3,-0.6,0.6c0,0.3,0.3,0.6,0.6,0.6c0.3,0,0.6,-0.3,0.6,-0.6c0,-0.3,-0.3,-0.6,-0.6,-0.6m-3.4,0c-0.3,0,-0.6,0.3,-0.6,0.6c0,0.3,0.3,0.6,0.6,0.6c0.3,0,0.5,-0.3,0.5,-0.6c0,-0.3,-0.2,-0.6,-0.5,-0.6m-3.5,0c-0.3,0,-0.6,0.3,-0.6,0.6c0,0.3,0.3,0.6,0.6,0.6c0.3,0,0.6,-0.3,0.6,-0.6c0,-0.3,-0.3,-0.6,-0.6,-0.6m-3.4,0c-0.3,0,-0.6,0.3,-0.6,0.6c0,0.3,0.3,0.6,0.6,0.6c0.3,0,0.5,-0.3,0.5,-0.6c0,-0.3,-0.2,-0.6,-0.5,-0.6m-3.5,0c-0.3,0,-0.5,0.3,-0.5,0.6c0,0.3,0.2,0.6,0.5,0.6c0.3,0,0.6,-0.3,0.6,-0.6c0,-0.3,-0.3,-0.6,-0.6,-0.6m-3.4,0c-0.3,0,-0.6,0.3,-0.6,0.6c0,0.3,0.3,0.6,0.6,0.6c0.3,0,0.6,-0.3,0.6,-0.6c0,-0.3,-0.3,-0.6,-0.6,-0.6m-3.5,0c-0.3,0,-0.5,0.3,-0.5,0.6c0,0.3,0.2,0.6,0.5,0.6c0.3,0,0.6,-0.3,0.6,-0.6c0,-0.3,-0.3,-0.6,-0.6,-0.6m-3.4,0c-0.3,0,-0.6,0.3,-0.6,0.6c0,0.3,0.3,0.6,0.6,0.6c0.3,0,0.6,-0.3,0.6,-0.6c0,-0.3,-0.3,-0.6,-0.6,-0.6m-3.5,0c-0.3,0,-0.5,0.3,-0.5,0.6c0,0.3,0.2,0.6,0.5,0.6c0.4,0,0.6,-0.3,0.6,-0.6c0,-0.3,-0.2,-0.6,-0.6,-0.6m-3.4,0c-0.3,0,-0.6,0.3,-0.6,0.6c0,0.3,0.3,0.6,0.6,0.6c0.3,0,0.6,-0.3,0.6,-0.6c0,-0.3,-0.3,-0.6,-0.6,-0.6m-3.5,0c-0.3,0,-0.5,0.3,-0.5,0.6c0,0.3,0.2,0.6,0.5,0.6c0.4,0,0.6,-0.3,0.6,-0.6c0,-0.3,-0.2,-0.6,-0.6,-0.6m-3.4,0c-0.3,0,-0.6,0.3,-0.6,0.6c0,0.3,0.3,0.6,0.6,0.6c0.3,0,0.6,-0.3,0.6,-0.6c0,-0.3,-0.3,-0.6,-0.6,-0.6m-3.5,0c-0.3,0,-0.5,0.3,-0.5,0.6c0,0.3,0.2,0.6,0.5,0.6c0.4,0,0.6,-0.3,0.6,-0.6c0,-0.3,-0.2,-0.6,-0.6,-0.6m-3.4,0c-0.3,0,-0.6,0.3,-0.6,0.6c0,0.3,0.3,0.6,0.6,0.6c0.3,0,0.6,-0.3,0.6,-0.6c0,-0.3,-0.3,-0.6,-0.6,-0.6m-3.5,0c-0.3,0,-0.5,0.3,-0.5,0.6c0,0.3,0.2,0.6,0.5,0.6c0.4,0,0.6,-0.3,0.6,-0.6c0,-0.3,-0.2,-0.6,-0.6,-0.6m-3.4,0c-0.3,0,-0.6,0.3,-0.6,0.6c0,0.3,0.3,0.6,0.6,0.6c0.3,0,0.6,-0.3,0.6,-0.6c0,-0.3,-0.3,-0.6,-0.6,-0.6m-3.5,0c-0.3,0,-0.5,0.3,-0.5,0.6c0,0.3,0.2,0.6,0.5,0.6c0.4,0,0.6,-0.3,0.6,-0.6c0,-0.3,-0.2,-0.6,-0.6,-0.6m-3.4,0c-0.3,0,-0.6,0.3,-0.6,0.6c0,0.3,0.3,0.6,0.6,0.6c0.3,0,0.6,-0.3,0.6,-0.6c0,-0.3,-0.3,-0.6,-0.6,-0.6m-3.4,0c-0.4,0,-0.6,0.3,-0.6,0.6c0,0.3,0.2,0.6,0.6,0.6c0.3,0,0.5,-0.3,0.5,-0.6c0,-0.3,-0.2,-0.6,-0.5,-0.6m-3.5,0c-0.3,0,-0.6,0.3,-0.6,0.6c0,0.3,0.3,0.6,0.6,0.6c0.3,0,0.6,-0.3,0.6,-0.6c0,-0.3,-0.3,-0.6,-0.6,-0.6m-3.4,0c-0.4,0,-0.6,0.3,-0.6,0.6c0,0.3,0.2,0.6,0.6,0.6c0.3,0,0.5,-0.3,0.5,-0.6c0,-0.3,-0.2,-0.6,-0.5,-0.6m-3.5,0c-0.3,0,-0.6,0.3,-0.6,0.6c0,0.3,0.3,0.6,0.6,0.6c0.3,0,0.6,-0.3,0.6,-0.6c0,-0.3,-0.3,-0.6,-0.6,-0.6m-3.4,0c-0.4,0,-0.6,0.3,-0.6,0.6c0,0.3,0.2,0.6,0.6,0.6c0.3,0,0.5,-0.3,0.5,-0.6c0,-0.3,-0.2,-0.6,-0.5,-0.6m-3.5,0c-0.3,0,-0.6,0.3,-0.6,0.6c0,0.3,0.3,0.6,0.6,0.6c0.3,0,0.6,-0.3,0.6,-0.6c0,-0.3,-0.3,-0.6,-0.6,-0.6m-3.4,0c-0.4,0,-0.6,0.3,-0.6,0.6c0,0.3,0.2,0.6,0.6,0.6c0.3,0,0.5,-0.3,0.5,-0.6c0,-0.3,-0.2,-0.6,-0.5,-0.6m-3.5,0c-0.3,0,-0.6,0.3,-0.6,0.6c0,0.3,0.3,0.6,0.6,0.6c0.3,0,0.6,-0.3,0.6,-0.6c0,-0.3,-0.3,-0.6,-0.6,-0.6m-3.4,0c-0.3,0,-0.6,0.3,-0.6,0.6c0,0.3,0.3,0.6,0.6,0.6c0.3,0,0.5,-0.3,0.5,-0.6c0,-0.3,-0.2,-0.6,-0.5,-0.6m-3.5,0c-0.3,0,-0.6,0.3,-0.6,0.6c0,0.3,0.3,0.6,0.6,0.6c0.3,0,0.6,-0.3,0.6,-0.6c0,-0.3,-0.3,-0.6,-0.6,-0.6m-3.4,0c-0.3,0,-0.6,0.3,-0.6,0.6c0,0.3,0.3,0.6,0.6,0.6c0.3,0,0.5,-0.3,0.5,-0.6c0,-0.3,-0.2,-0.6,-0.5,-0.6m-3.5,0c-0.3,0,-0.5,0.3,-0.5,0.6c0,0.3,0.2,0.6,0.5,0.6c0.3,0,0.6,-0.3,0.6,-0.6c0,-0.3,-0.3,-0.6,-0.6,-0.6m-3.4,0c-0.3,0,-0.6,0.3,-0.6,0.6c0,0.3,0.3,0.6,0.6,0.6c0.3,0,0.6,-0.3,0.6,-0.6c0,-0.3,-0.3,-0.6,-0.6,-0.6m-3.5,0c-0.3,0,-0.5,0.3,-0.5,0.6c0,0.3,0.2,0.6,0.5,0.6c0.3,0,0.6,-0.3,0.6,-0.6c0,-0.3,-0.3,-0.6,-0.6,-0.6m-3.4,0c-0.3,0,-0.6,0.3,-0.6,0.6c0,0.3,0.3,0.6,0.6,0.6c0.3,0,0.6,-0.3,0.6,-0.6c0,-0.3,-0.3,-0.6,-0.6,-0.6m-3.5,0c-0.3,0,-0.5,0.3,-0.5,0.6c0,0.3,0.2,0.6,0.5,0.6c0.4,0,0.6,-0.3,0.6,-0.6c0,-0.3,-0.2,-0.6,-0.6,-0.6m-3.4,0c-0.3,0,-0.6,0.3,-0.6,0.6c0,0.3,0.3,0.6,0.6,0.6c0.3,0,0.6,-0.3,0.6,-0.6c0,-0.3,-0.3,-0.6,-0.6,-0.6m-3.5,0c-0.3,0,-0.5,0.3,-0.5,0.6c0,0.3,0.2,0.6,0.5,0.6c0.4,0,0.6,-0.3,0.6,-0.6c0,-0.3,-0.2,-0.6,-0.6,-0.6m-3.4,0c-0.3,0,-0.6,0.3,-0.6,0.6c0,0.3,0.3,0.6,0.6,0.6c0.3,0,0.6,-0.3,0.6,-0.6c0,-0.3,-0.3,-0.6,-0.6,-0.6m-3.5,0c-0.3,0,-0.5,0.3,-0.5,0.6c0,0.3,0.2,0.6,0.5,0.6c0.4,0,0.6,-0.3,0.6,-0.6c0,-0.3,-0.2,-0.6,-0.6,-0.6m-3.4,0c-0.3,0,-0.6,0.3,-0.6,0.6c0,0.3,0.3,0.6,0.6,0.6c0.3,0,0.6,-0.3,0.6,-0.6c0,-0.3,-0.3,-0.6,-0.6,-0.6m-3.5,0c-0.3,0,-0.5,0.3,-0.5,0.6c0,0.3,0.2,0.6,0.5,0.6c0.4,0,0.6,-0.3,0.6,-0.6c0,-0.3,-0.2,-0.6,-0.6,-0.6m-3.4,0c-0.3,0,-0.6,0.3,-0.6,0.6c0,0.3,0.3,0.6,0.6,0.6c0.3,0,0.6,-0.3,0.6,-0.6c0,-0.3,-0.3,-0.6,-0.6,-0.6m-3.5,0c-0.3,0,-0.5,0.3,-0.5,0.6c0,0.3,0.2,0.6,0.5,0.6c0.4,0,0.6,-0.3,0.6,-0.6c0,-0.3,-0.2,-0.6,-0.6,-0.6m-3.4,0c-0.3,0,-0.6,0.3,-0.6,0.6c0,0.3,0.3,0.6,0.6,0.6c0.3,0,0.6,-0.3,0.6,-0.6c0,-0.3,-0.3,-0.6,-0.6,-0.6m-3.4,0c-0.4,0,-0.6,0.3,-0.6,0.6c0,0.3,0.2,0.6,0.6,0.6c0.3,0,0.5,-0.3,0.5,-0.6c0,-0.3,-0.2,-0.6,-0.5,-0.6m-3.5,0c-0.3,0,-0.6,0.3,-0.6,0.6c0,0.3,0.3,0.6,0.6,0.6c0.3,0,0.6,-0.3,0.6,-0.6c0,-0.3,-0.3,-0.6,-0.6,-0.6m-3.4,0c-0.4,0,-0.6,0.3,-0.6,0.6c0,0.3,0.2,0.6,0.6,0.6c0.3,0,0.5,-0.3,0.5,-0.6c0,-0.3,-0.2,-0.6,-0.5,-0.6m-3.5,0c-0.3,0,-0.6,0.3,-0.6,0.6c0,0.3,0.3,0.6,0.6,0.6c0.3,0,0.6,-0.3,0.6,-0.6c0,-0.3,-0.3,-0.6,-0.6,-0.6m-3.4,0c-0.4,0,-0.6,0.3,-0.6,0.6c0,0.3,0.2,0.6,0.6,0.6c0.3,0,0.5,-0.3,0.5,-0.6c0,-0.3,-0.2,-0.6,-0.5,-0.6m-3.5,0c-0.3,0,-0.6,0.3,-0.6,0.6c0,0.3,0.3,0.6,0.6,0.6c0.3,0,0.6,-0.3,0.6,-0.6c0,-0.3,-0.3,-0.6,-0.6,-0.6m-3.4,0c-0.4,0,-0.6,0.3,-0.6,0.6c0,0.3,0.2,0.6,0.6,0.6c0.3,0,0.5,-0.3,0.5,-0.6c0,-0.3,-0.2,-0.6,-0.5,-0.6m-3.5,0c-0.3,0,-0.6,0.3,-0.6,0.6c0,0.3,0.3,0.6,0.6,0.6c0.3,0,0.6,-0.3,0.6,-0.6c0,-0.3,-0.3,-0.6,-0.6,-0.6m-3.4,0c-0.4,0,-0.6,0.3,-0.6,0.6c0,0.3,0.2,0.6,0.6,0.6c0.3,0,0.5,-0.3,0.5,-0.6c0,-0.3,-0.2,-0.6,-0.5,-0.6m-3.5,0c-0.3,0,-0.6,0.3,-0.6,0.6c0,0.3,0.3,0.6,0.6,0.6c0.3,0,0.6,-0.3,0.6,-0.6c0,-0.3,-0.3,-0.6,-0.6,-0.6m-3.4,0c-0.3,0,-0.6,0.3,-0.6,0.6c0,0.3,0.3,0.6,0.6,0.6c0.3,0,0.5,-0.3,0.5,-0.6c0,-0.3,-0.2,-0.6,-0.5,-0.6m-3.5,0c-0.3,0,-0.5,0.3,-0.5,0.6c0,0.3,0.2,0.6,0.5,0.6c0.3,0,0.6,-0.3,0.6,-0.6c0,-0.3,-0.3,-0.6,-0.6,-0.6m-3.4,0c-0.3,0,-0.6,0.3,-0.6,0.6c0,0.3,0.3,0.6,0.6,0.6c0.3,0,0.5,-0.3,0.5,-0.6c0,-0.3,-0.2,-0.6,-0.5,-0.6m-3.5,0c-0.3,0,-0.5,0.3,-0.5,0.6c0,0.3,0.2,0.6,0.5,0.6c0.3,0,0.6,-0.3,0.6,-0.6c0,-0.3,-0.3,-0.6,-0.6,-0.6m-3.4,0c-0.3,0,-0.6,0.3,-0.6,0.6c0,0.3,0.3,0.6,0.6,0.6c0.3,0,0.6,-0.3,0.6,-0.6c0,-0.3,-0.3,-0.6,-0.6,-0.6m-3.5,0c-0.3,0,-0.5,0.3,-0.5,0.6c0,0.3,0.2,0.6,0.5,0.6c0.4,0,0.6,-0.3,0.6,-0.6c0,-0.3,-0.2,-0.6,-0.6,-0.6m-3.4,0c-0.3,0,-0.6,0.3,-0.6,0.6c0,0.3,0.3,0.6,0.6,0.6c0.3,0,0.6,-0.3,0.6,-0.6c0,-0.3,-0.3,-0.6,-0.6,-0.6m-3.5,0c-0.3,0,-0.5,0.3,-0.5,0.6c0,0.3,0.2,0.6,0.5,0.6c0.4,0,0.6,-0.3,0.6,-0.6c0,-0.3,-0.2,-0.6,-0.6,-0.6m-3.4,0c-0.3,0,-0.6,0.3,-0.6,0.6c0,0.3,0.3,0.6,0.6,0.6c0.3,0,0.6,-0.3,0.6,-0.6c0,-0.3,-0.3,-0.6,-0.6,-0.6m-3.5,0c-0.3,0,-0.5,0.3,-0.5,0.6c0,0.3,0.2,0.6,0.5,0.6c0.4,0,0.6,-0.3,0.6,-0.6c0,-0.3,-0.2,-0.6,-0.6,-0.6m-3.4,0c-0.3,0,-0.6,0.3,-0.6,0.6c0,0.3,0.3,0.6,0.6,0.6c0.3,0,0.6,-0.3,0.6,-0.6c0,-0.3,-0.3,-0.6,-0.6,-0.6m-3.5,0c-0.3,0,-0.5,0.3,-0.5,0.6c0,0.3,0.2,0.6,0.5,0.6c0.4,0,0.6,-0.3,0.6,-0.6c0,-0.3,-0.2,-0.6,-0.6,-0.6m-3.4,0c-0.3,0,-0.6,0.3,-0.6,0.6c0,0.3,0.3,0.6,0.6,0.6c0.3,0,0.6,-0.3,0.6,-0.6c0,-0.3,-0.3,-0.6,-0.6,-0.6m-3.5,0c-0.3,0,-0.5,0.3,-0.5,0.6c0,0.3,0.2,0.6,0.5,0.6c0.4,0,0.6,-0.3,0.6,-0.6c0,-0.3,-0.2,-0.6,-0.6,-0.6m-3.4,0c-0.3,0,-0.6,0.3,-0.6,0.6c0,0.3,0.3,0.6,0.6,0.6c0.3,0,0.6,-0.3,0.6,-0.6c0,-0.3,-0.3,-0.6,-0.6,-0.6m-3.5,0c-0.3,0,-0.5,0.3,-0.5,0.6c0,0.3,0.2,0.6,0.5,0.6c0.4,0,0.6,-0.3,0.6,-0.6c0,-0.3,-0.2,-0.6,-0.6,-0.6m-3.4,0c-0.3,0,-0.6,0.3,-0.6,0.6c0,0.3,0.3,0.6,0.6,0.6c0.3,0,0.6,-0.3,0.6,-0.6c0,-0.3,-0.3,-0.6,-0.6,-0.6m-3.4,0c-0.4,0,-0.6,0.3,-0.6,0.6c0,0.3,0.2,0.6,0.6,0.6c0.3,0,0.5,-0.3,0.5,-0.6c0,-0.3,-0.2,-0.6,-0.5,-0.6m-3.5,0c-0.3,0,-0.6,0.3,-0.6,0.6c0,0.3,0.3,0.6,0.6,0.6c0.3,0,0.6,-0.3,0.6,-0.6c0,-0.3,-0.3,-0.6,-0.6,-0.6m-3.4,0c-0.4,0,-0.6,0.3,-0.6,0.6c0,0.3,0.2,0.6,0.6,0.6c0.3,0,0.5,-0.3,0.5,-0.6c0,-0.3,-0.2,-0.6,-0.5,-0.6m-3.5,0c-0.3,0,-0.6,0.3,-0.6,0.6c0,0.3,0.3,0.6,0.6,0.6c0.3,0,0.6,-0.3,0.6,-0.6c0,-0.3,-0.3,-0.6,-0.6,-0.6m-3.4,0c-0.4,0,-0.6,0.3,-0.6,0.6c0,0.3,0.2,0.6,0.6,0.6c0.3,0,0.5,-0.3,0.5,-0.6c0,-0.3,-0.2,-0.6,-0.5,-0.6m-3.5,0c-0.3,0,-0.6,0.3,-0.6,0.6c0,0.3,0.3,0.6,0.6,0.6c0.3,0,0.6,-0.3,0.6,-0.6c0,-0.3,-0.3,-0.6,-0.6,-0.6m-3.4,0c-0.3,0,-0.6,0.3,-0.6,0.6c0,0.3,0.3,0.6,0.6,0.6c0.3,0,0.5,-0.3,0.5,-0.6c0,-0.3,-0.2,-0.6,-0.5,-0.6m-3.5,0c-0.3,0,-0.6,0.3,-0.6,0.6c0,0.3,0.3,0.6,0.6,0.6c0.3,0,0.6,-0.3,0.6,-0.6c0,-0.3,-0.3,-0.6,-0.6,-0.6m-3.4,0c-0.3,0,-0.6,0.3,-0.6,0.6c0,0.3,0.3,0.6,0.6,0.6c0.3,0,0.5,-0.3,0.5,-0.6c0,-0.3,-0.2,-0.6,-0.5,-0.6m-3.5,0c-0.3,0,-0.5,0.3,-0.5,0.6c0,0.3,0.2,0.6,0.5,0.6c0.3,0,0.6,-0.3,0.6,-0.6c0,-0.3,-0.3,-0.6,-0.6,-0.6m-3.4,0c-0.3,0,-0.6,0.3,-0.6,0.6c0,0.3,0.3,0.6,0.6,0.6c0.3,0,0.5,-0.3,0.5,-0.6c0,-0.3,-0.2,-0.6,-0.5,-0.6m-3.5,0c-0.3,0,-0.5,0.3,-0.5,0.6c0,0.3,0.2,0.6,0.5,0.6c0.3,0,0.6,-0.3,0.6,-0.6c0,-0.3,-0.3,-0.6,-0.6,-0.6m-3.4,0c-0.3,0,-0.6,0.3,-0.6,0.6c0,0.3,0.3,0.6,0.6,0.6c0.3,0,0.6,-0.3,0.6,-0.6c0,-0.3,-0.3,-0.6,-0.6,-0.6m-3.5,0c-0.3,0,-0.5,0.3,-0.5,0.6c0,0.3,0.2,0.6,0.5,0.6c0.3,0,0.6,-0.3,0.6,-0.6c0,-0.3,-0.3,-0.6,-0.6,-0.6m-3.4,0c-0.3,0,-0.6,0.3,-0.6,0.6c0,0.3,0.3,0.6,0.6,0.6c0.3,0,0.6,-0.3,0.6,-0.6c0,-0.3,-0.3,-0.6,-0.6,-0.6m-3.5,0c-0.3,0,-0.5,0.3,-0.5,0.6c0,0.3,0.2,0.6,0.5,0.6c0.4,0,0.6,-0.3,0.6,-0.6c0,-0.3,-0.2,-0.6,-0.6,-0.6m-3.4,0c-0.3,0,-0.6,0.3,-0.6,0.6c0,0.3,0.3,0.6,0.6,0.6c0.3,0,0.6,-0.3,0.6,-0.6c0,-0.3,-0.3,-0.6,-0.6,-0.6m-3.5,0c-0.3,0,-0.5,0.3,-0.5,0.6c0,0.3,0.2,0.6,0.5,0.6c0.4,0,0.6,-0.3,0.6,-0.6c0,-0.3,-0.2,-0.6,-0.6,-0.6m-3.4,0c-0.3,0,-0.6,0.3,-0.6,0.6c0,0.3,0.3,0.6,0.6,0.6c0.3,0,0.6,-0.3,0.6,-0.6c0,-0.3,-0.3,-0.6,-0.6,-0.6m-3.5,0c-0.3,0,-0.5,0.3,-0.5,0.6c0,0.3,0.2,0.6,0.5,0.6c0.4,0,0.6,-0.3,0.6,-0.6c0,-0.3,-0.2,-0.6,-0.6,-0.6m-3.4,0c-0.3,0,-0.6,0.3,-0.6,0.6c0,0.3,0.3,0.6,0.6,0.6c0.3,0,0.6,-0.3,0.6,-0.6c0,-0.3,-0.3,-0.6,-0.6,-0.6m-3.5,0c-0.3,0,-0.5,0.3,-0.5,0.6c0,0.3,0.2,0.6,0.5,0.6c0.4,0,0.6,-0.3,0.6,-0.6c0,-0.3,-0.2,-0.6,-0.6,-0.6m-3.4,0c-0.3,0,-0.6,0.3,-0.6,0.6c0,0.3,0.3,0.6,0.6,0.6c0.3,0,0.6,-0.3,0.6,-0.6c0,-0.3,-0.3,-0.6,-0.6,-0.6m-3.4,0c-0.4,0,-0.6,0.3,-0.6,0.6c0,0.3,0.2,0.6,0.6,0.6c0.3,0,0.5,-0.3,0.5,-0.6c0,-0.3,-0.2,-0.6,-0.5,-0.6m-3.5,0c-0.3,0,-0.6,0.3,-0.6,0.6c0,0.3,0.3,0.6,0.6,0.6c0.3,0,0.6,-0.3,0.6,-0.6c0,-0.3,-0.3,-0.6,-0.6,-0.6m-3.4,0c-0.4,0,-0.6,0.3,-0.6,0.6c0,0.3,0.2,0.6,0.6,0.6c0.3,0,0.5,-0.3,0.5,-0.6c0,-0.3,-0.2,-0.6,-0.5,-0.6m-3.5,0c-0.3,0,-0.6,0.3,-0.6,0.6c0,0.3,0.3,0.6,0.6,0.6c0.3,0,0.6,-0.3,0.6,-0.6c0,-0.3,-0.3,-0.6,-0.6,-0.6m-3.4,0c-0.4,0,-0.6,0.3,-0.6,0.6c0,0.3,0.2,0.6,0.6,0.6c0.3,0,0.5,-0.3,0.5,-0.6c0,-0.3,-0.2,-0.6,-0.5,-0.6m-3.5,0c-0.3,0,-0.6,0.3,-0.6,0.6c0,0.3,0.3,0.6,0.6,0.6c0.3,0,0.6,-0.3,0.6,-0.6c0,-0.3,-0.3,-0.6,-0.6,-0.6m-3.4,0c-0.4,0,-0.6,0.3,-0.6,0.6c0,0.3,0.2,0.6,0.6,0.6c0.3,0,0.5,-0.3,0.5,-0.6c0,-0.3,-0.2,-0.6,-0.5,-0.6m-3.5,0c-0.3,0,-0.6,0.3,-0.6,0.6c0,0.3,0.3,0.6,0.6,0.6c0.3,0,0.6,-0.3,0.6,-0.6c0,-0.3,-0.3,-0.6,-0.6,-0.6m-3.4,0c-0.3,0,-0.6,0.3,-0.6,0.6c0,0.3,0.3,0.6,0.6,0.6c0.3,0,0.5,-0.3,0.5,-0.6c0,-0.3,-0.2,-0.6,-0.5,-0.6m-3.5,0c-0.3,0,-0.6,0.3,-0.6,0.6c0,0.3,0.3,0.6,0.6,0.6c0.3,0,0.6,-0.3,0.6,-0.6c0,-0.3,-0.3,-0.6,-0.6,-0.6m-3.4,0c-0.3,0,-0.6,0.3,-0.6,0.6c0,0.3,0.3,0.6,0.6,0.6c0.3,0,0.5,-0.3,0.5,-0.6c0,-0.3,-0.2,-0.6,-0.5,-0.6m-3.5,0c-0.3,0,-0.6,0.3,-0.6,0.6c0,0.3,0.3,0.6,0.6,0.6c0.3,0,0.6,-0.3,0.6,-0.6c0,-0.3,-0.3,-0.6,-0.6,-0.6m-3.4,0c-0.3,0,-0.6,0.3,-0.6,0.6c0,0.3,0.3,0.6,0.6,0.6c0.3,0,0.5,-0.3,0.5,-0.6c0,-0.3,-0.2,-0.6,-0.5,-0.6m-3.5,0c-0.3,0,-0.5,0.3,-0.5,0.6c0,0.3,0.2,0.6,0.5,0.6c0.3,0,0.6,-0.3,0.6,-0.6c0,-0.3,-0.3,-0.6,-0.6,-0.6m-3.4,0c-0.3,0,-0.6,0.3,-0.6,0.6c0,0.3,0.3,0.6,0.6,0.6c0.3,0,0.6,-0.3,0.6,-0.6c0,-0.3,-0.3,-0.6,-0.6,-0.6m-3.5,0c-0.3,0,-0.5,0.3,-0.5,0.6c0,0.3,0.2,0.6,0.5,0.6c0.3,0,0.6,-0.3,0.6,-0.6c0,-0.3,-0.3,-0.6,-0.6,-0.6m-3.4,0c-0.3,0,-0.6,0.3,-0.6,0.6c0,0.3,0.3,0.6,0.6,0.6c0.3,0,0.6,-0.3,0.6,-0.6c0,-0.3,-0.3,-0.6,-0.6,-0.6m-3.5,0c-0.3,0,-0.5,0.3,-0.5,0.6c0,0.3,0.2,0.6,0.5,0.6c0.4,0,0.6,-0.3,0.6,-0.6c0,-0.3,-0.2,-0.6,-0.6,-0.6m-3.4,0c-0.3,0,-0.6,0.3,-0.6,0.6c0,0.3,0.3,0.6,0.6,0.6c0.3,0,0.6,-0.3,0.6,-0.6c0,-0.3,-0.3,-0.6,-0.6,-0.6Z" class="g6_104" />
<path d="M580.3,532.2c-0.2,0,-0.3,0.1,-0.4,0.2c-0.1,0.1,-0.2,0.2,-0.2,0.4c0,0.1,0.1,0.3,0.2,0.4c0.1,0.1,0.2,0.2,0.4,0.2c0.1,0,0.3,-0.1,0.4,-0.2c0.1,-0.1,0.2,-0.3,0.2,-0.4c0,-0.2,-0.1,-0.3,-0.2,-0.4c-0.1,-0.1,-0.3,-0.2,-0.4,-0.2m-434.5,0c-0.1,0,-0.3,0.1,-0.4,0.2c-0.1,0.1,-0.1,0.2,-0.1,0.4c0,0.1,0,0.3,0.1,0.4c0.1,0.1,0.3,0.2,0.4,0.2c0.2,0,0.3,-0.1,0.4,-0.2c0.1,-0.1,0.2,-0.3,0.2,-0.4c0,-0.2,-0.1,-0.3,-0.2,-0.4c-0.1,-0.1,-0.2,-0.2,-0.4,-0.2Z" class="g6_104" />
<path d="M576.8,603.7c-0.3,0,-0.5,0.2,-0.5,0.5c0,0.4,0.2,0.6,0.5,0.6c0.4,0,0.6,-0.2,0.6,-0.6c0,-0.3,-0.2,-0.5,-0.6,-0.5m-3.4,0c-0.3,0,-0.6,0.2,-0.6,0.5c0,0.4,0.3,0.6,0.6,0.6c0.3,0,0.6,-0.2,0.6,-0.6c0,-0.3,-0.3,-0.5,-0.6,-0.5m-3.5,0c-0.3,0,-0.5,0.2,-0.5,0.5c0,0.4,0.2,0.6,0.5,0.6c0.4,0,0.6,-0.2,0.6,-0.6c0,-0.3,-0.2,-0.5,-0.6,-0.5m-3.4,0c-0.3,0,-0.6,0.2,-0.6,0.5c0,0.4,0.3,0.6,0.6,0.6c0.3,0,0.6,-0.2,0.6,-0.6c0,-0.3,-0.3,-0.5,-0.6,-0.5m-3.5,0c-0.3,0,-0.5,0.2,-0.5,0.5c0,0.4,0.2,0.6,0.5,0.6c0.4,0,0.6,-0.2,0.6,-0.6c0,-0.3,-0.2,-0.5,-0.6,-0.5m-3.4,0c-0.3,0,-0.6,0.2,-0.6,0.5c0,0.4,0.3,0.6,0.6,0.6c0.3,0,0.6,-0.2,0.6,-0.6c0,-0.3,-0.3,-0.5,-0.6,-0.5m-3.4,0c-0.4,0,-0.6,0.2,-0.6,0.5c0,0.4,0.2,0.6,0.6,0.6c0.3,0,0.5,-0.2,0.5,-0.6c0,-0.3,-0.2,-0.5,-0.5,-0.5m-3.5,0c-0.3,0,-0.6,0.2,-0.6,0.5c0,0.4,0.3,0.6,0.6,0.6c0.3,0,0.6,-0.2,0.6,-0.6c0,-0.3,-0.3,-0.5,-0.6,-0.5m-3.4,0c-0.4,0,-0.6,0.2,-0.6,0.5c0,0.4,0.2,0.6,0.6,0.6c0.3,0,0.5,-0.2,0.5,-0.6c0,-0.3,-0.2,-0.5,-0.5,-0.5m-3.5,0c-0.3,0,-0.6,0.2,-0.6,0.5c0,0.4,0.3,0.6,0.6,0.6c0.3,0,0.6,-0.2,0.6,-0.6c0,-0.3,-0.3,-0.5,-0.6,-0.5m-3.4,0c-0.4,0,-0.6,0.2,-0.6,0.5c0,0.4,0.2,0.6,0.6,0.6c0.3,0,0.5,-0.2,0.5,-0.6c0,-0.3,-0.2,-0.5,-0.5,-0.5m-3.5,0c-0.3,0,-0.6,0.2,-0.6,0.5c0,0.4,0.3,0.6,0.6,0.6c0.3,0,0.6,-0.2,0.6,-0.6c0,-0.3,-0.3,-0.5,-0.6,-0.5m-3.4,0c-0.4,0,-0.6,0.2,-0.6,0.5c0,0.4,0.2,0.6,0.6,0.6c0.3,0,0.5,-0.2,0.5,-0.6c0,-0.3,-0.2,-0.5,-0.5,-0.5m-3.5,0c-0.3,0,-0.6,0.2,-0.6,0.5c0,0.4,0.3,0.6,0.6,0.6c0.3,0,0.6,-0.2,0.6,-0.6c0,-0.3,-0.3,-0.5,-0.6,-0.5m-3.4,0c-0.3,0,-0.6,0.2,-0.6,0.5c0,0.4,0.3,0.6,0.6,0.6c0.3,0,0.5,-0.2,0.5,-0.6c0,-0.3,-0.2,-0.5,-0.5,-0.5m-3.5,0c-0.3,0,-0.6,0.2,-0.6,0.5c0,0.4,0.3,0.6,0.6,0.6c0.3,0,0.6,-0.2,0.6,-0.6c0,-0.3,-0.3,-0.5,-0.6,-0.5m-3.4,0c-0.3,0,-0.6,0.2,-0.6,0.5c0,0.4,0.3,0.6,0.6,0.6c0.3,0,0.5,-0.2,0.5,-0.6c0,-0.3,-0.2,-0.5,-0.5,-0.5m-3.5,0c-0.3,0,-0.5,0.2,-0.5,0.5c0,0.4,0.2,0.6,0.5,0.6c0.3,0,0.6,-0.2,0.6,-0.6c0,-0.3,-0.3,-0.5,-0.6,-0.5m-3.4,0c-0.3,0,-0.6,0.2,-0.6,0.5c0,0.4,0.3,0.6,0.6,0.6c0.3,0,0.6,-0.2,0.6,-0.6c0,-0.3,-0.3,-0.5,-0.6,-0.5m-3.5,0c-0.3,0,-0.5,0.2,-0.5,0.5c0,0.4,0.2,0.6,0.5,0.6c0.3,0,0.6,-0.2,0.6,-0.6c0,-0.3,-0.3,-0.5,-0.6,-0.5m-3.4,0c-0.3,0,-0.6,0.2,-0.6,0.5c0,0.4,0.3,0.6,0.6,0.6c0.3,0,0.6,-0.2,0.6,-0.6c0,-0.3,-0.3,-0.5,-0.6,-0.5m-3.5,0c-0.3,0,-0.5,0.2,-0.5,0.5c0,0.4,0.2,0.6,0.5,0.6c0.4,0,0.6,-0.2,0.6,-0.6c0,-0.3,-0.2,-0.5,-0.6,-0.5m-3.4,0c-0.3,0,-0.6,0.2,-0.6,0.5c0,0.4,0.3,0.6,0.6,0.6c0.3,0,0.6,-0.2,0.6,-0.6c0,-0.3,-0.3,-0.5,-0.6,-0.5m-3.5,0c-0.3,0,-0.5,0.2,-0.5,0.5c0,0.4,0.2,0.6,0.5,0.6c0.4,0,0.6,-0.2,0.6,-0.6c0,-0.3,-0.2,-0.5,-0.6,-0.5m-3.4,0c-0.3,0,-0.6,0.2,-0.6,0.5c0,0.4,0.3,0.6,0.6,0.6c0.3,0,0.6,-0.2,0.6,-0.6c0,-0.3,-0.3,-0.5,-0.6,-0.5m-3.5,0c-0.3,0,-0.5,0.2,-0.5,0.5c0,0.4,0.2,0.6,0.5,0.6c0.4,0,0.6,-0.2,0.6,-0.6c0,-0.3,-0.2,-0.5,-0.6,-0.5m-3.4,0c-0.3,0,-0.6,0.2,-0.6,0.5c0,0.4,0.3,0.6,0.6,0.6c0.3,0,0.6,-0.2,0.6,-0.6c0,-0.3,-0.3,-0.5,-0.6,-0.5m-3.5,0c-0.3,0,-0.5,0.2,-0.5,0.5c0,0.4,0.2,0.6,0.5,0.6c0.4,0,0.6,-0.2,0.6,-0.6c0,-0.3,-0.2,-0.5,-0.6,-0.5m-3.4,0c-0.3,0,-0.6,0.2,-0.6,0.5c0,0.4,0.3,0.6,0.6,0.6c0.3,0,0.6,-0.2,0.6,-0.6c0,-0.3,-0.3,-0.5,-0.6,-0.5m-3.5,0c-0.3,0,-0.5,0.2,-0.5,0.5c0,0.4,0.2,0.6,0.5,0.6c0.4,0,0.6,-0.2,0.6,-0.6c0,-0.3,-0.2,-0.5,-0.6,-0.5m-3.4,0c-0.3,0,-0.6,0.2,-0.6,0.5c0,0.4,0.3,0.6,0.6,0.6c0.3,0,0.6,-0.2,0.6,-0.6c0,-0.3,-0.3,-0.5,-0.6,-0.5m-3.4,0c-0.4,0,-0.6,0.2,-0.6,0.5c0,0.4,0.2,0.6,0.6,0.6c0.3,0,0.5,-0.2,0.5,-0.6c0,-0.3,-0.2,-0.5,-0.5,-0.5m-3.5,0c-0.3,0,-0.6,0.2,-0.6,0.5c0,0.4,0.3,0.6,0.6,0.6c0.3,0,0.6,-0.2,0.6,-0.6c0,-0.3,-0.3,-0.5,-0.6,-0.5m-3.4,0c-0.4,0,-0.6,0.2,-0.6,0.5c0,0.4,0.2,0.6,0.6,0.6c0.3,0,0.5,-0.2,0.5,-0.6c0,-0.3,-0.2,-0.5,-0.5,-0.5m-3.5,0c-0.3,0,-0.6,0.2,-0.6,0.5c0,0.4,0.3,0.6,0.6,0.6c0.3,0,0.6,-0.2,0.6,-0.6c0,-0.3,-0.3,-0.5,-0.6,-0.5m-3.4,0c-0.4,0,-0.6,0.2,-0.6,0.5c0,0.4,0.2,0.6,0.6,0.6c0.3,0,0.5,-0.2,0.5,-0.6c0,-0.3,-0.2,-0.5,-0.5,-0.5m-3.5,0c-0.3,0,-0.6,0.2,-0.6,0.5c0,0.4,0.3,0.6,0.6,0.6c0.3,0,0.6,-0.2,0.6,-0.6c0,-0.3,-0.3,-0.5,-0.6,-0.5m-3.4,0c-0.4,0,-0.6,0.2,-0.6,0.5c0,0.4,0.2,0.6,0.6,0.6c0.3,0,0.5,-0.2,0.5,-0.6c0,-0.3,-0.2,-0.5,-0.5,-0.5m-3.5,0c-0.3,0,-0.6,0.2,-0.6,0.5c0,0.4,0.3,0.6,0.6,0.6c0.3,0,0.6,-0.2,0.6,-0.6c0,-0.3,-0.3,-0.5,-0.6,-0.5m-3.4,0c-0.3,0,-0.6,0.2,-0.6,0.5c0,0.4,0.3,0.6,0.6,0.6c0.3,0,0.5,-0.2,0.5,-0.6c0,-0.3,-0.2,-0.5,-0.5,-0.5m-3.5,0c-0.3,0,-0.6,0.2,-0.6,0.5c0,0.4,0.3,0.6,0.6,0.6c0.3,0,0.6,-0.2,0.6,-0.6c0,-0.3,-0.3,-0.5,-0.6,-0.5m-3.4,0c-0.3,0,-0.6,0.2,-0.6,0.5c0,0.4,0.3,0.6,0.6,0.6c0.3,0,0.5,-0.2,0.5,-0.6c0,-0.3,-0.2,-0.5,-0.5,-0.5m-3.5,0c-0.3,0,-0.5,0.2,-0.5,0.5c0,0.4,0.2,0.6,0.5,0.6c0.3,0,0.6,-0.2,0.6,-0.6c0,-0.3,-0.3,-0.5,-0.6,-0.5m-3.4,0c-0.3,0,-0.6,0.2,-0.6,0.5c0,0.4,0.3,0.6,0.6,0.6c0.3,0,0.6,-0.2,0.6,-0.6c0,-0.3,-0.3,-0.5,-0.6,-0.5m-3.5,0c-0.3,0,-0.5,0.2,-0.5,0.5c0,0.4,0.2,0.6,0.5,0.6c0.3,0,0.6,-0.2,0.6,-0.6c0,-0.3,-0.3,-0.5,-0.6,-0.5m-3.4,0c-0.3,0,-0.6,0.2,-0.6,0.5c0,0.4,0.3,0.6,0.6,0.6c0.3,0,0.6,-0.2,0.6,-0.6c0,-0.3,-0.3,-0.5,-0.6,-0.5m-3.5,0c-0.3,0,-0.5,0.2,-0.5,0.5c0,0.4,0.2,0.6,0.5,0.6c0.4,0,0.6,-0.2,0.6,-0.6c0,-0.3,-0.2,-0.5,-0.6,-0.5m-3.4,0c-0.3,0,-0.6,0.2,-0.6,0.5c0,0.4,0.3,0.6,0.6,0.6c0.3,0,0.6,-0.2,0.6,-0.6c0,-0.3,-0.3,-0.5,-0.6,-0.5m-3.5,0c-0.3,0,-0.5,0.2,-0.5,0.5c0,0.4,0.2,0.6,0.5,0.6c0.4,0,0.6,-0.2,0.6,-0.6c0,-0.3,-0.2,-0.5,-0.6,-0.5m-3.4,0c-0.3,0,-0.6,0.2,-0.6,0.5c0,0.4,0.3,0.6,0.6,0.6c0.3,0,0.6,-0.2,0.6,-0.6c0,-0.3,-0.3,-0.5,-0.6,-0.5m-3.5,0c-0.3,0,-0.5,0.2,-0.5,0.5c0,0.4,0.2,0.6,0.5,0.6c0.4,0,0.6,-0.2,0.6,-0.6c0,-0.3,-0.2,-0.5,-0.6,-0.5m-3.4,0c-0.3,0,-0.6,0.2,-0.6,0.5c0,0.4,0.3,0.6,0.6,0.6c0.3,0,0.6,-0.2,0.6,-0.6c0,-0.3,-0.3,-0.5,-0.6,-0.5m-3.5,0c-0.3,0,-0.5,0.2,-0.5,0.5c0,0.4,0.2,0.6,0.5,0.6c0.4,0,0.6,-0.2,0.6,-0.6c0,-0.3,-0.2,-0.5,-0.6,-0.5m-3.4,0c-0.3,0,-0.6,0.2,-0.6,0.5c0,0.4,0.3,0.6,0.6,0.6c0.3,0,0.6,-0.2,0.6,-0.6c0,-0.3,-0.3,-0.5,-0.6,-0.5m-3.5,0c-0.3,0,-0.5,0.2,-0.5,0.5c0,0.4,0.2,0.6,0.5,0.6c0.4,0,0.6,-0.2,0.6,-0.6c0,-0.3,-0.2,-0.5,-0.6,-0.5m-3.4,0c-0.3,0,-0.6,0.2,-0.6,0.5c0,0.4,0.3,0.6,0.6,0.6c0.3,0,0.6,-0.2,0.6,-0.6c0,-0.3,-0.3,-0.5,-0.6,-0.5m-3.4,0c-0.4,0,-0.6,0.2,-0.6,0.5c0,0.4,0.2,0.6,0.6,0.6c0.3,0,0.5,-0.2,0.5,-0.6c0,-0.3,-0.2,-0.5,-0.5,-0.5m-3.5,0c-0.3,0,-0.6,0.2,-0.6,0.5c0,0.4,0.3,0.6,0.6,0.6c0.3,0,0.6,-0.2,0.6,-0.6c0,-0.3,-0.3,-0.5,-0.6,-0.5m-3.4,0c-0.4,0,-0.6,0.2,-0.6,0.5c0,0.4,0.2,0.6,0.6,0.6c0.3,0,0.5,-0.2,0.5,-0.6c0,-0.3,-0.2,-0.5,-0.5,-0.5m-3.5,0c-0.3,0,-0.6,0.2,-0.6,0.5c0,0.4,0.3,0.6,0.6,0.6c0.3,0,0.6,-0.2,0.6,-0.6c0,-0.3,-0.3,-0.5,-0.6,-0.5m-3.4,0c-0.4,0,-0.6,0.2,-0.6,0.5c0,0.4,0.2,0.6,0.6,0.6c0.3,0,0.5,-0.2,0.5,-0.6c0,-0.3,-0.2,-0.5,-0.5,-0.5m-3.5,0c-0.3,0,-0.6,0.2,-0.6,0.5c0,0.4,0.3,0.6,0.6,0.6c0.3,0,0.6,-0.2,0.6,-0.6c0,-0.3,-0.3,-0.5,-0.6,-0.5m-3.4,0c-0.4,0,-0.6,0.2,-0.6,0.5c0,0.4,0.2,0.6,0.6,0.6c0.3,0,0.5,-0.2,0.5,-0.6c0,-0.3,-0.2,-0.5,-0.5,-0.5m-3.5,0c-0.3,0,-0.6,0.2,-0.6,0.5c0,0.4,0.3,0.6,0.6,0.6c0.3,0,0.6,-0.2,0.6,-0.6c0,-0.3,-0.3,-0.5,-0.6,-0.5m-3.4,0c-0.4,0,-0.6,0.2,-0.6,0.5c0,0.4,0.2,0.6,0.6,0.6c0.3,0,0.5,-0.2,0.5,-0.6c0,-0.3,-0.2,-0.5,-0.5,-0.5m-3.5,0c-0.3,0,-0.6,0.2,-0.6,0.5c0,0.4,0.3,0.6,0.6,0.6c0.3,0,0.6,-0.2,0.6,-0.6c0,-0.3,-0.3,-0.5,-0.6,-0.5m-3.4,0c-0.3,0,-0.6,0.2,-0.6,0.5c0,0.4,0.3,0.6,0.6,0.6c0.3,0,0.5,-0.2,0.5,-0.6c0,-0.3,-0.2,-0.5,-0.5,-0.5m-3.5,0c-0.3,0,-0.5,0.2,-0.5,0.5c0,0.4,0.2,0.6,0.5,0.6c0.3,0,0.6,-0.2,0.6,-0.6c0,-0.3,-0.3,-0.5,-0.6,-0.5m-3.4,0c-0.3,0,-0.6,0.2,-0.6,0.5c0,0.4,0.3,0.6,0.6,0.6c0.3,0,0.5,-0.2,0.5,-0.6c0,-0.3,-0.2,-0.5,-0.5,-0.5m-3.5,0c-0.3,0,-0.5,0.2,-0.5,0.5c0,0.4,0.2,0.6,0.5,0.6c0.3,0,0.6,-0.2,0.6,-0.6c0,-0.3,-0.3,-0.5,-0.6,-0.5m-3.4,0c-0.3,0,-0.6,0.2,-0.6,0.5c0,0.4,0.3,0.6,0.6,0.6c0.3,0,0.6,-0.2,0.6,-0.6c0,-0.3,-0.3,-0.5,-0.6,-0.5m-3.5,0c-0.3,0,-0.5,0.2,-0.5,0.5c0,0.4,0.2,0.6,0.5,0.6c0.4,0,0.6,-0.2,0.6,-0.6c0,-0.3,-0.2,-0.5,-0.6,-0.5m-3.4,0c-0.3,0,-0.6,0.2,-0.6,0.5c0,0.4,0.3,0.6,0.6,0.6c0.3,0,0.6,-0.2,0.6,-0.6c0,-0.3,-0.3,-0.5,-0.6,-0.5m-3.5,0c-0.3,0,-0.5,0.2,-0.5,0.5c0,0.4,0.2,0.6,0.5,0.6c0.4,0,0.6,-0.2,0.6,-0.6c0,-0.3,-0.2,-0.5,-0.6,-0.5m-3.4,0c-0.3,0,-0.6,0.2,-0.6,0.5c0,0.4,0.3,0.6,0.6,0.6c0.3,0,0.6,-0.2,0.6,-0.6c0,-0.3,-0.3,-0.5,-0.6,-0.5m-3.5,0c-0.3,0,-0.5,0.2,-0.5,0.5c0,0.4,0.2,0.6,0.5,0.6c0.4,0,0.6,-0.2,0.6,-0.6c0,-0.3,-0.2,-0.5,-0.6,-0.5m-3.4,0c-0.3,0,-0.6,0.2,-0.6,0.5c0,0.4,0.3,0.6,0.6,0.6c0.3,0,0.6,-0.2,0.6,-0.6c0,-0.3,-0.3,-0.5,-0.6,-0.5m-3.5,0c-0.3,0,-0.5,0.2,-0.5,0.5c0,0.4,0.2,0.6,0.5,0.6c0.4,0,0.6,-0.2,0.6,-0.6c0,-0.3,-0.2,-0.5,-0.6,-0.5m-3.4,0c-0.3,0,-0.6,0.2,-0.6,0.5c0,0.4,0.3,0.6,0.6,0.6c0.3,0,0.6,-0.2,0.6,-0.6c0,-0.3,-0.3,-0.5,-0.6,-0.5m-3.5,0c-0.3,0,-0.5,0.2,-0.5,0.5c0,0.4,0.2,0.6,0.5,0.6c0.4,0,0.6,-0.2,0.6,-0.6c0,-0.3,-0.2,-0.5,-0.6,-0.5m-3.4,0c-0.3,0,-0.6,0.2,-0.6,0.5c0,0.4,0.3,0.6,0.6,0.6c0.3,0,0.6,-0.2,0.6,-0.6c0,-0.3,-0.3,-0.5,-0.6,-0.5m-3.5,0c-0.3,0,-0.5,0.2,-0.5,0.5c0,0.4,0.2,0.6,0.5,0.6c0.4,0,0.6,-0.2,0.6,-0.6c0,-0.3,-0.2,-0.5,-0.6,-0.5m-3.4,0c-0.3,0,-0.6,0.2,-0.6,0.5c0,0.4,0.3,0.6,0.6,0.6c0.3,0,0.6,-0.2,0.6,-0.6c0,-0.3,-0.3,-0.5,-0.6,-0.5m-3.4,0c-0.4,0,-0.6,0.2,-0.6,0.5c0,0.4,0.2,0.6,0.6,0.6c0.3,0,0.5,-0.2,0.5,-0.6c0,-0.3,-0.2,-0.5,-0.5,-0.5m-3.5,0c-0.3,0,-0.6,0.2,-0.6,0.5c0,0.4,0.3,0.6,0.6,0.6c0.3,0,0.6,-0.2,0.6,-0.6c0,-0.3,-0.3,-0.5,-0.6,-0.5m-3.4,0c-0.4,0,-0.6,0.2,-0.6,0.5c0,0.4,0.2,0.6,0.6,0.6c0.3,0,0.5,-0.2,0.5,-0.6c0,-0.3,-0.2,-0.5,-0.5,-0.5m-3.5,0c-0.3,0,-0.6,0.2,-0.6,0.5c0,0.4,0.3,0.6,0.6,0.6c0.3,0,0.6,-0.2,0.6,-0.6c0,-0.3,-0.3,-0.5,-0.6,-0.5m-3.4,0c-0.4,0,-0.6,0.2,-0.6,0.5c0,0.4,0.2,0.6,0.6,0.6c0.3,0,0.5,-0.2,0.5,-0.6c0,-0.3,-0.2,-0.5,-0.5,-0.5m-3.5,0c-0.3,0,-0.6,0.2,-0.6,0.5c0,0.4,0.3,0.6,0.6,0.6c0.3,0,0.6,-0.2,0.6,-0.6c0,-0.3,-0.3,-0.5,-0.6,-0.5m-3.4,0c-0.3,0,-0.6,0.2,-0.6,0.5c0,0.4,0.3,0.6,0.6,0.6c0.3,0,0.5,-0.2,0.5,-0.6c0,-0.3,-0.2,-0.5,-0.5,-0.5m-3.5,0c-0.3,0,-0.6,0.2,-0.6,0.5c0,0.4,0.3,0.6,0.6,0.6c0.3,0,0.6,-0.2,0.6,-0.6c0,-0.3,-0.3,-0.5,-0.6,-0.5m-3.4,0c-0.3,0,-0.6,0.2,-0.6,0.5c0,0.4,0.3,0.6,0.6,0.6c0.3,0,0.5,-0.2,0.5,-0.6c0,-0.3,-0.2,-0.5,-0.5,-0.5m-3.5,0c-0.3,0,-0.5,0.2,-0.5,0.5c0,0.4,0.2,0.6,0.5,0.6c0.3,0,0.6,-0.2,0.6,-0.6c0,-0.3,-0.3,-0.5,-0.6,-0.5m-3.4,0c-0.3,0,-0.6,0.2,-0.6,0.5c0,0.4,0.3,0.6,0.6,0.6c0.3,0,0.5,-0.2,0.5,-0.6c0,-0.3,-0.2,-0.5,-0.5,-0.5m-3.5,0c-0.3,0,-0.5,0.2,-0.5,0.5c0,0.4,0.2,0.6,0.5,0.6c0.3,0,0.6,-0.2,0.6,-0.6c0,-0.3,-0.3,-0.5,-0.6,-0.5m-3.4,0c-0.3,0,-0.6,0.2,-0.6,0.5c0,0.4,0.3,0.6,0.6,0.6c0.3,0,0.6,-0.2,0.6,-0.6c0,-0.3,-0.3,-0.5,-0.6,-0.5m-3.5,0c-0.3,0,-0.5,0.2,-0.5,0.5c0,0.4,0.2,0.6,0.5,0.6c0.3,0,0.6,-0.2,0.6,-0.6c0,-0.3,-0.3,-0.5,-0.6,-0.5m-3.4,0c-0.3,0,-0.6,0.2,-0.6,0.5c0,0.4,0.3,0.6,0.6,0.6c0.3,0,0.6,-0.2,0.6,-0.6c0,-0.3,-0.3,-0.5,-0.6,-0.5m-3.5,0c-0.3,0,-0.5,0.2,-0.5,0.5c0,0.4,0.2,0.6,0.5,0.6c0.4,0,0.6,-0.2,0.6,-0.6c0,-0.3,-0.2,-0.5,-0.6,-0.5m-3.4,0c-0.3,0,-0.6,0.2,-0.6,0.5c0,0.4,0.3,0.6,0.6,0.6c0.3,0,0.6,-0.2,0.6,-0.6c0,-0.3,-0.3,-0.5,-0.6,-0.5m-3.5,0c-0.3,0,-0.5,0.2,-0.5,0.5c0,0.4,0.2,0.6,0.5,0.6c0.4,0,0.6,-0.2,0.6,-0.6c0,-0.3,-0.2,-0.5,-0.6,-0.5m-3.4,0c-0.3,0,-0.6,0.2,-0.6,0.5c0,0.4,0.3,0.6,0.6,0.6c0.3,0,0.6,-0.2,0.6,-0.6c0,-0.3,-0.3,-0.5,-0.6,-0.5m-3.5,0c-0.3,0,-0.5,0.2,-0.5,0.5c0,0.4,0.2,0.6,0.5,0.6c0.4,0,0.6,-0.2,0.6,-0.6c0,-0.3,-0.2,-0.5,-0.6,-0.5m-3.4,0c-0.3,0,-0.6,0.2,-0.6,0.5c0,0.4,0.3,0.6,0.6,0.6c0.3,0,0.6,-0.2,0.6,-0.6c0,-0.3,-0.3,-0.5,-0.6,-0.5m-3.5,0c-0.3,0,-0.5,0.2,-0.5,0.5c0,0.4,0.2,0.6,0.5,0.6c0.4,0,0.6,-0.2,0.6,-0.6c0,-0.3,-0.2,-0.5,-0.6,-0.5m-3.4,0c-0.3,0,-0.6,0.2,-0.6,0.5c0,0.4,0.3,0.6,0.6,0.6c0.3,0,0.6,-0.2,0.6,-0.6c0,-0.3,-0.3,-0.5,-0.6,-0.5m-3.4,0c-0.4,0,-0.6,0.2,-0.6,0.5c0,0.4,0.2,0.6,0.6,0.6c0.3,0,0.5,-0.2,0.5,-0.6c0,-0.3,-0.2,-0.5,-0.5,-0.5m-3.5,0c-0.3,0,-0.6,0.2,-0.6,0.5c0,0.4,0.3,0.6,0.6,0.6c0.3,0,0.6,-0.2,0.6,-0.6c0,-0.3,-0.3,-0.5,-0.6,-0.5m-3.4,0c-0.4,0,-0.6,0.2,-0.6,0.5c0,0.4,0.2,0.6,0.6,0.6c0.3,0,0.5,-0.2,0.5,-0.6c0,-0.3,-0.2,-0.5,-0.5,-0.5m-3.5,0c-0.3,0,-0.6,0.2,-0.6,0.5c0,0.4,0.3,0.6,0.6,0.6c0.3,0,0.6,-0.2,0.6,-0.6c0,-0.3,-0.3,-0.5,-0.6,-0.5m-3.4,0c-0.4,0,-0.6,0.2,-0.6,0.5c0,0.4,0.2,0.6,0.6,0.6c0.3,0,0.5,-0.2,0.5,-0.6c0,-0.3,-0.2,-0.5,-0.5,-0.5m-3.5,0c-0.3,0,-0.6,0.2,-0.6,0.5c0,0.4,0.3,0.6,0.6,0.6c0.3,0,0.6,-0.2,0.6,-0.6c0,-0.3,-0.3,-0.5,-0.6,-0.5m-3.4,0c-0.4,0,-0.6,0.2,-0.6,0.5c0,0.4,0.2,0.6,0.6,0.6c0.3,0,0.5,-0.2,0.5,-0.6c0,-0.3,-0.2,-0.5,-0.5,-0.5m-3.5,0c-0.3,0,-0.6,0.2,-0.6,0.5c0,0.4,0.3,0.6,0.6,0.6c0.3,0,0.6,-0.2,0.6,-0.6c0,-0.3,-0.3,-0.5,-0.6,-0.5m-3.4,0c-0.3,0,-0.6,0.2,-0.6,0.5c0,0.4,0.3,0.6,0.6,0.6c0.3,0,0.5,-0.2,0.5,-0.6c0,-0.3,-0.2,-0.5,-0.5,-0.5m-3.5,0c-0.3,0,-0.6,0.2,-0.6,0.5c0,0.4,0.3,0.6,0.6,0.6c0.3,0,0.6,-0.2,0.6,-0.6c0,-0.3,-0.3,-0.5,-0.6,-0.5m-3.4,0c-0.3,0,-0.6,0.2,-0.6,0.5c0,0.4,0.3,0.6,0.6,0.6c0.3,0,0.5,-0.2,0.5,-0.6c0,-0.3,-0.2,-0.5,-0.5,-0.5m-3.5,0c-0.3,0,-0.6,0.2,-0.6,0.5c0,0.4,0.3,0.6,0.6,0.6c0.3,0,0.6,-0.2,0.6,-0.6c0,-0.3,-0.3,-0.5,-0.6,-0.5m-3.4,0c-0.3,0,-0.6,0.2,-0.6,0.5c0,0.4,0.3,0.6,0.6,0.6c0.3,0,0.5,-0.2,0.5,-0.6c0,-0.3,-0.2,-0.5,-0.5,-0.5m-3.5,0c-0.3,0,-0.5,0.2,-0.5,0.5c0,0.4,0.2,0.6,0.5,0.6c0.3,0,0.6,-0.2,0.6,-0.6c0,-0.3,-0.3,-0.5,-0.6,-0.5m-3.4,0c-0.3,0,-0.6,0.2,-0.6,0.5c0,0.4,0.3,0.6,0.6,0.6c0.3,0,0.6,-0.2,0.6,-0.6c0,-0.3,-0.3,-0.5,-0.6,-0.5m-3.5,0c-0.3,0,-0.5,0.2,-0.5,0.5c0,0.4,0.2,0.6,0.5,0.6c0.3,0,0.6,-0.2,0.6,-0.6c0,-0.3,-0.3,-0.5,-0.6,-0.5m-3.4,0c-0.3,0,-0.6,0.2,-0.6,0.5c0,0.4,0.3,0.6,0.6,0.6c0.3,0,0.6,-0.2,0.6,-0.6c0,-0.3,-0.3,-0.5,-0.6,-0.5m-3.5,0c-0.3,0,-0.5,0.2,-0.5,0.5c0,0.4,0.2,0.6,0.5,0.6c0.4,0,0.6,-0.2,0.6,-0.6c0,-0.3,-0.2,-0.5,-0.6,-0.5m-3.4,0c-0.3,0,-0.6,0.2,-0.6,0.5c0,0.4,0.3,0.6,0.6,0.6c0.3,0,0.6,-0.2,0.6,-0.6c0,-0.3,-0.3,-0.5,-0.6,-0.5Z" class="g6_104" />
<path d="M580.3,603.7c-0.2,0,-0.3,0,-0.4,0.1c-0.1,0.1,-0.2,0.3,-0.2,0.4c0,0.2,0.1,0.3,0.2,0.4c0.1,0.1,0.2,0.2,0.4,0.2c0.1,0,0.3,-0.1,0.4,-0.2c0.1,-0.1,0.2,-0.2,0.2,-0.4c0,-0.1,-0.1,-0.3,-0.2,-0.4c-0.1,-0.1,-0.3,-0.1,-0.4,-0.1m-434.5,0c-0.1,0,-0.3,0,-0.4,0.1c-0.1,0.1,-0.1,0.3,-0.1,0.4c0,0.2,0,0.3,0.1,0.4c0.1,0.1,0.3,0.2,0.4,0.2c0.2,0,0.3,-0.1,0.4,-0.2c0.1,-0.1,0.2,-0.2,0.2,-0.4c0,-0.1,-0.1,-0.3,-0.2,-0.4c-0.1,-0.1,-0.2,-0.1,-0.4,-0.1Z" class="g6_104" />
<path d="M576.8,673.7c-0.3,0,-0.5,0.2,-0.5,0.6c0,0.3,0.2,0.5,0.5,0.5c0.4,0,0.6,-0.2,0.6,-0.5c0,-0.4,-0.2,-0.6,-0.6,-0.6m-3.4,0c-0.3,0,-0.6,0.2,-0.6,0.6c0,0.3,0.3,0.5,0.6,0.5c0.3,0,0.6,-0.2,0.6,-0.5c0,-0.4,-0.3,-0.6,-0.6,-0.6m-3.5,0c-0.3,0,-0.5,0.2,-0.5,0.6c0,0.3,0.2,0.5,0.5,0.5c0.4,0,0.6,-0.2,0.6,-0.5c0,-0.4,-0.2,-0.6,-0.6,-0.6m-3.4,0c-0.3,0,-0.6,0.2,-0.6,0.6c0,0.3,0.3,0.5,0.6,0.5c0.3,0,0.6,-0.2,0.6,-0.5c0,-0.4,-0.3,-0.6,-0.6,-0.6m-3.5,0c-0.3,0,-0.5,0.2,-0.5,0.6c0,0.3,0.2,0.5,0.5,0.5c0.4,0,0.6,-0.2,0.6,-0.5c0,-0.4,-0.2,-0.6,-0.6,-0.6m-3.4,0c-0.3,0,-0.6,0.2,-0.6,0.6c0,0.3,0.3,0.5,0.6,0.5c0.3,0,0.6,-0.2,0.6,-0.5c0,-0.4,-0.3,-0.6,-0.6,-0.6m-3.4,0c-0.4,0,-0.6,0.2,-0.6,0.6c0,0.3,0.2,0.5,0.6,0.5c0.3,0,0.5,-0.2,0.5,-0.5c0,-0.4,-0.2,-0.6,-0.5,-0.6m-3.5,0c-0.3,0,-0.6,0.2,-0.6,0.6c0,0.3,0.3,0.5,0.6,0.5c0.3,0,0.6,-0.2,0.6,-0.5c0,-0.4,-0.3,-0.6,-0.6,-0.6m-3.4,0c-0.4,0,-0.6,0.2,-0.6,0.6c0,0.3,0.2,0.5,0.6,0.5c0.3,0,0.5,-0.2,0.5,-0.5c0,-0.4,-0.2,-0.6,-0.5,-0.6m-3.5,0c-0.3,0,-0.6,0.2,-0.6,0.6c0,0.3,0.3,0.5,0.6,0.5c0.3,0,0.6,-0.2,0.6,-0.5c0,-0.4,-0.3,-0.6,-0.6,-0.6m-3.4,0c-0.4,0,-0.6,0.2,-0.6,0.6c0,0.3,0.2,0.5,0.6,0.5c0.3,0,0.5,-0.2,0.5,-0.5c0,-0.4,-0.2,-0.6,-0.5,-0.6m-3.5,0c-0.3,0,-0.6,0.2,-0.6,0.6c0,0.3,0.3,0.5,0.6,0.5c0.3,0,0.6,-0.2,0.6,-0.5c0,-0.4,-0.3,-0.6,-0.6,-0.6m-3.4,0c-0.4,0,-0.6,0.2,-0.6,0.6c0,0.3,0.2,0.5,0.6,0.5c0.3,0,0.5,-0.2,0.5,-0.5c0,-0.4,-0.2,-0.6,-0.5,-0.6m-3.5,0c-0.3,0,-0.6,0.2,-0.6,0.6c0,0.3,0.3,0.5,0.6,0.5c0.3,0,0.6,-0.2,0.6,-0.5c0,-0.4,-0.3,-0.6,-0.6,-0.6m-3.4,0c-0.3,0,-0.6,0.2,-0.6,0.6c0,0.3,0.3,0.5,0.6,0.5c0.3,0,0.5,-0.2,0.5,-0.5c0,-0.4,-0.2,-0.6,-0.5,-0.6m-3.5,0c-0.3,0,-0.6,0.2,-0.6,0.6c0,0.3,0.3,0.5,0.6,0.5c0.3,0,0.6,-0.2,0.6,-0.5c0,-0.4,-0.3,-0.6,-0.6,-0.6m-3.4,0c-0.3,0,-0.6,0.2,-0.6,0.6c0,0.3,0.3,0.5,0.6,0.5c0.3,0,0.5,-0.2,0.5,-0.5c0,-0.4,-0.2,-0.6,-0.5,-0.6m-3.5,0c-0.3,0,-0.5,0.2,-0.5,0.6c0,0.3,0.2,0.5,0.5,0.5c0.3,0,0.6,-0.2,0.6,-0.5c0,-0.4,-0.3,-0.6,-0.6,-0.6m-3.4,0c-0.3,0,-0.6,0.2,-0.6,0.6c0,0.3,0.3,0.5,0.6,0.5c0.3,0,0.6,-0.2,0.6,-0.5c0,-0.4,-0.3,-0.6,-0.6,-0.6m-3.5,0c-0.3,0,-0.5,0.2,-0.5,0.6c0,0.3,0.2,0.5,0.5,0.5c0.3,0,0.6,-0.2,0.6,-0.5c0,-0.4,-0.3,-0.6,-0.6,-0.6m-3.4,0c-0.3,0,-0.6,0.2,-0.6,0.6c0,0.3,0.3,0.5,0.6,0.5c0.3,0,0.6,-0.2,0.6,-0.5c0,-0.4,-0.3,-0.6,-0.6,-0.6m-3.5,0c-0.3,0,-0.5,0.2,-0.5,0.6c0,0.3,0.2,0.5,0.5,0.5c0.4,0,0.6,-0.2,0.6,-0.5c0,-0.4,-0.2,-0.6,-0.6,-0.6m-3.4,0c-0.3,0,-0.6,0.2,-0.6,0.6c0,0.3,0.3,0.5,0.6,0.5c0.3,0,0.6,-0.2,0.6,-0.5c0,-0.4,-0.3,-0.6,-0.6,-0.6m-3.5,0c-0.3,0,-0.5,0.2,-0.5,0.6c0,0.3,0.2,0.5,0.5,0.5c0.4,0,0.6,-0.2,0.6,-0.5c0,-0.4,-0.2,-0.6,-0.6,-0.6m-3.4,0c-0.3,0,-0.6,0.2,-0.6,0.6c0,0.3,0.3,0.5,0.6,0.5c0.3,0,0.6,-0.2,0.6,-0.5c0,-0.4,-0.3,-0.6,-0.6,-0.6m-3.5,0c-0.3,0,-0.5,0.2,-0.5,0.6c0,0.3,0.2,0.5,0.5,0.5c0.4,0,0.6,-0.2,0.6,-0.5c0,-0.4,-0.2,-0.6,-0.6,-0.6m-3.4,0c-0.3,0,-0.6,0.2,-0.6,0.6c0,0.3,0.3,0.5,0.6,0.5c0.3,0,0.6,-0.2,0.6,-0.5c0,-0.4,-0.3,-0.6,-0.6,-0.6m-3.5,0c-0.3,0,-0.5,0.2,-0.5,0.6c0,0.3,0.2,0.5,0.5,0.5c0.4,0,0.6,-0.2,0.6,-0.5c0,-0.4,-0.2,-0.6,-0.6,-0.6m-3.4,0c-0.3,0,-0.6,0.2,-0.6,0.6c0,0.3,0.3,0.5,0.6,0.5c0.3,0,0.6,-0.2,0.6,-0.5c0,-0.4,-0.3,-0.6,-0.6,-0.6m-3.5,0c-0.3,0,-0.5,0.2,-0.5,0.6c0,0.3,0.2,0.5,0.5,0.5c0.4,0,0.6,-0.2,0.6,-0.5c0,-0.4,-0.2,-0.6,-0.6,-0.6m-3.4,0c-0.3,0,-0.6,0.2,-0.6,0.6c0,0.3,0.3,0.5,0.6,0.5c0.3,0,0.6,-0.2,0.6,-0.5c0,-0.4,-0.3,-0.6,-0.6,-0.6m-3.4,0c-0.4,0,-0.6,0.2,-0.6,0.6c0,0.3,0.2,0.5,0.6,0.5c0.3,0,0.5,-0.2,0.5,-0.5c0,-0.4,-0.2,-0.6,-0.5,-0.6m-3.5,0c-0.3,0,-0.6,0.2,-0.6,0.6c0,0.3,0.3,0.5,0.6,0.5c0.3,0,0.6,-0.2,0.6,-0.5c0,-0.4,-0.3,-0.6,-0.6,-0.6m-3.4,0c-0.4,0,-0.6,0.2,-0.6,0.6c0,0.3,0.2,0.5,0.6,0.5c0.3,0,0.5,-0.2,0.5,-0.5c0,-0.4,-0.2,-0.6,-0.5,-0.6m-3.5,0c-0.3,0,-0.6,0.2,-0.6,0.6c0,0.3,0.3,0.5,0.6,0.5c0.3,0,0.6,-0.2,0.6,-0.5c0,-0.4,-0.3,-0.6,-0.6,-0.6m-3.4,0c-0.4,0,-0.6,0.2,-0.6,0.6c0,0.3,0.2,0.5,0.6,0.5c0.3,0,0.5,-0.2,0.5,-0.5c0,-0.4,-0.2,-0.6,-0.5,-0.6m-3.5,0c-0.3,0,-0.6,0.2,-0.6,0.6c0,0.3,0.3,0.5,0.6,0.5c0.3,0,0.6,-0.2,0.6,-0.5c0,-0.4,-0.3,-0.6,-0.6,-0.6m-3.4,0c-0.4,0,-0.6,0.2,-0.6,0.6c0,0.3,0.2,0.5,0.6,0.5c0.3,0,0.5,-0.2,0.5,-0.5c0,-0.4,-0.2,-0.6,-0.5,-0.6m-3.5,0c-0.3,0,-0.6,0.2,-0.6,0.6c0,0.3,0.3,0.5,0.6,0.5c0.3,0,0.6,-0.2,0.6,-0.5c0,-0.4,-0.3,-0.6,-0.6,-0.6m-3.4,0c-0.3,0,-0.6,0.2,-0.6,0.6c0,0.3,0.3,0.5,0.6,0.5c0.3,0,0.5,-0.2,0.5,-0.5c0,-0.4,-0.2,-0.6,-0.5,-0.6m-3.5,0c-0.3,0,-0.6,0.2,-0.6,0.6c0,0.3,0.3,0.5,0.6,0.5c0.3,0,0.6,-0.2,0.6,-0.5c0,-0.4,-0.3,-0.6,-0.6,-0.6m-3.4,0c-0.3,0,-0.6,0.2,-0.6,0.6c0,0.3,0.3,0.5,0.6,0.5c0.3,0,0.5,-0.2,0.5,-0.5c0,-0.4,-0.2,-0.6,-0.5,-0.6m-3.5,0c-0.3,0,-0.5,0.2,-0.5,0.6c0,0.3,0.2,0.5,0.5,0.5c0.3,0,0.6,-0.2,0.6,-0.5c0,-0.4,-0.3,-0.6,-0.6,-0.6m-3.4,0c-0.3,0,-0.6,0.2,-0.6,0.6c0,0.3,0.3,0.5,0.6,0.5c0.3,0,0.6,-0.2,0.6,-0.5c0,-0.4,-0.3,-0.6,-0.6,-0.6m-3.5,0c-0.3,0,-0.5,0.2,-0.5,0.6c0,0.3,0.2,0.5,0.5,0.5c0.3,0,0.6,-0.2,0.6,-0.5c0,-0.4,-0.3,-0.6,-0.6,-0.6m-3.4,0c-0.3,0,-0.6,0.2,-0.6,0.6c0,0.3,0.3,0.5,0.6,0.5c0.3,0,0.6,-0.2,0.6,-0.5c0,-0.4,-0.3,-0.6,-0.6,-0.6m-3.5,0c-0.3,0,-0.5,0.2,-0.5,0.6c0,0.3,0.2,0.5,0.5,0.5c0.4,0,0.6,-0.2,0.6,-0.5c0,-0.4,-0.2,-0.6,-0.6,-0.6m-3.4,0c-0.3,0,-0.6,0.2,-0.6,0.6c0,0.3,0.3,0.5,0.6,0.5c0.3,0,0.6,-0.2,0.6,-0.5c0,-0.4,-0.3,-0.6,-0.6,-0.6m-3.5,0c-0.3,0,-0.5,0.2,-0.5,0.6c0,0.3,0.2,0.5,0.5,0.5c0.4,0,0.6,-0.2,0.6,-0.5c0,-0.4,-0.2,-0.6,-0.6,-0.6m-3.4,0c-0.3,0,-0.6,0.2,-0.6,0.6c0,0.3,0.3,0.5,0.6,0.5c0.3,0,0.6,-0.2,0.6,-0.5c0,-0.4,-0.3,-0.6,-0.6,-0.6m-3.5,0c-0.3,0,-0.5,0.2,-0.5,0.6c0,0.3,0.2,0.5,0.5,0.5c0.4,0,0.6,-0.2,0.6,-0.5c0,-0.4,-0.2,-0.6,-0.6,-0.6m-3.4,0c-0.3,0,-0.6,0.2,-0.6,0.6c0,0.3,0.3,0.5,0.6,0.5c0.3,0,0.6,-0.2,0.6,-0.5c0,-0.4,-0.3,-0.6,-0.6,-0.6m-3.5,0c-0.3,0,-0.5,0.2,-0.5,0.6c0,0.3,0.2,0.5,0.5,0.5c0.4,0,0.6,-0.2,0.6,-0.5c0,-0.4,-0.2,-0.6,-0.6,-0.6m-3.4,0c-0.3,0,-0.6,0.2,-0.6,0.6c0,0.3,0.3,0.5,0.6,0.5c0.3,0,0.6,-0.2,0.6,-0.5c0,-0.4,-0.3,-0.6,-0.6,-0.6m-3.5,0c-0.3,0,-0.5,0.2,-0.5,0.6c0,0.3,0.2,0.5,0.5,0.5c0.4,0,0.6,-0.2,0.6,-0.5c0,-0.4,-0.2,-0.6,-0.6,-0.6m-3.4,0c-0.3,0,-0.6,0.2,-0.6,0.6c0,0.3,0.3,0.5,0.6,0.5c0.3,0,0.6,-0.2,0.6,-0.5c0,-0.4,-0.3,-0.6,-0.6,-0.6m-3.4,0c-0.4,0,-0.6,0.2,-0.6,0.6c0,0.3,0.2,0.5,0.6,0.5c0.3,0,0.5,-0.2,0.5,-0.5c0,-0.4,-0.2,-0.6,-0.5,-0.6m-3.5,0c-0.3,0,-0.6,0.2,-0.6,0.6c0,0.3,0.3,0.5,0.6,0.5c0.3,0,0.6,-0.2,0.6,-0.5c0,-0.4,-0.3,-0.6,-0.6,-0.6m-3.4,0c-0.4,0,-0.6,0.2,-0.6,0.6c0,0.3,0.2,0.5,0.6,0.5c0.3,0,0.5,-0.2,0.5,-0.5c0,-0.4,-0.2,-0.6,-0.5,-0.6m-3.5,0c-0.3,0,-0.6,0.2,-0.6,0.6c0,0.3,0.3,0.5,0.6,0.5c0.3,0,0.6,-0.2,0.6,-0.5c0,-0.4,-0.3,-0.6,-0.6,-0.6m-3.4,0c-0.4,0,-0.6,0.2,-0.6,0.6c0,0.3,0.2,0.5,0.6,0.5c0.3,0,0.5,-0.2,0.5,-0.5c0,-0.4,-0.2,-0.6,-0.5,-0.6m-3.5,0c-0.3,0,-0.6,0.2,-0.6,0.6c0,0.3,0.3,0.5,0.6,0.5c0.3,0,0.6,-0.2,0.6,-0.5c0,-0.4,-0.3,-0.6,-0.6,-0.6m-3.4,0c-0.4,0,-0.6,0.2,-0.6,0.6c0,0.3,0.2,0.5,0.6,0.5c0.3,0,0.5,-0.2,0.5,-0.5c0,-0.4,-0.2,-0.6,-0.5,-0.6m-3.5,0c-0.3,0,-0.6,0.2,-0.6,0.6c0,0.3,0.3,0.5,0.6,0.5c0.3,0,0.6,-0.2,0.6,-0.5c0,-0.4,-0.3,-0.6,-0.6,-0.6m-3.4,0c-0.4,0,-0.6,0.2,-0.6,0.6c0,0.3,0.2,0.5,0.6,0.5c0.3,0,0.5,-0.2,0.5,-0.5c0,-0.4,-0.2,-0.6,-0.5,-0.6m-3.5,0c-0.3,0,-0.6,0.2,-0.6,0.6c0,0.3,0.3,0.5,0.6,0.5c0.3,0,0.6,-0.2,0.6,-0.5c0,-0.4,-0.3,-0.6,-0.6,-0.6m-3.4,0c-0.3,0,-0.6,0.2,-0.6,0.6c0,0.3,0.3,0.5,0.6,0.5c0.3,0,0.5,-0.2,0.5,-0.5c0,-0.4,-0.2,-0.6,-0.5,-0.6m-3.5,0c-0.3,0,-0.5,0.2,-0.5,0.6c0,0.3,0.2,0.5,0.5,0.5c0.3,0,0.6,-0.2,0.6,-0.5c0,-0.4,-0.3,-0.6,-0.6,-0.6m-3.4,0c-0.3,0,-0.6,0.2,-0.6,0.6c0,0.3,0.3,0.5,0.6,0.5c0.3,0,0.5,-0.2,0.5,-0.5c0,-0.4,-0.2,-0.6,-0.5,-0.6m-3.5,0c-0.3,0,-0.5,0.2,-0.5,0.6c0,0.3,0.2,0.5,0.5,0.5c0.3,0,0.6,-0.2,0.6,-0.5c0,-0.4,-0.3,-0.6,-0.6,-0.6m-3.4,0c-0.3,0,-0.6,0.2,-0.6,0.6c0,0.3,0.3,0.5,0.6,0.5c0.3,0,0.6,-0.2,0.6,-0.5c0,-0.4,-0.3,-0.6,-0.6,-0.6m-3.5,0c-0.3,0,-0.5,0.2,-0.5,0.6c0,0.3,0.2,0.5,0.5,0.5c0.4,0,0.6,-0.2,0.6,-0.5c0,-0.4,-0.2,-0.6,-0.6,-0.6m-3.4,0c-0.3,0,-0.6,0.2,-0.6,0.6c0,0.3,0.3,0.5,0.6,0.5c0.3,0,0.6,-0.2,0.6,-0.5c0,-0.4,-0.3,-0.6,-0.6,-0.6m-3.5,0c-0.3,0,-0.5,0.2,-0.5,0.6c0,0.3,0.2,0.5,0.5,0.5c0.4,0,0.6,-0.2,0.6,-0.5c0,-0.4,-0.2,-0.6,-0.6,-0.6m-3.4,0c-0.3,0,-0.6,0.2,-0.6,0.6c0,0.3,0.3,0.5,0.6,0.5c0.3,0,0.6,-0.2,0.6,-0.5c0,-0.4,-0.3,-0.6,-0.6,-0.6m-3.5,0c-0.3,0,-0.5,0.2,-0.5,0.6c0,0.3,0.2,0.5,0.5,0.5c0.4,0,0.6,-0.2,0.6,-0.5c0,-0.4,-0.2,-0.6,-0.6,-0.6m-3.4,0c-0.3,0,-0.6,0.2,-0.6,0.6c0,0.3,0.3,0.5,0.6,0.5c0.3,0,0.6,-0.2,0.6,-0.5c0,-0.4,-0.3,-0.6,-0.6,-0.6m-3.5,0c-0.3,0,-0.5,0.2,-0.5,0.6c0,0.3,0.2,0.5,0.5,0.5c0.4,0,0.6,-0.2,0.6,-0.5c0,-0.4,-0.2,-0.6,-0.6,-0.6m-3.4,0c-0.3,0,-0.6,0.2,-0.6,0.6c0,0.3,0.3,0.5,0.6,0.5c0.3,0,0.6,-0.2,0.6,-0.5c0,-0.4,-0.3,-0.6,-0.6,-0.6m-3.5,0c-0.3,0,-0.5,0.2,-0.5,0.6c0,0.3,0.2,0.5,0.5,0.5c0.4,0,0.6,-0.2,0.6,-0.5c0,-0.4,-0.2,-0.6,-0.6,-0.6m-3.4,0c-0.3,0,-0.6,0.2,-0.6,0.6c0,0.3,0.3,0.5,0.6,0.5c0.3,0,0.6,-0.2,0.6,-0.5c0,-0.4,-0.3,-0.6,-0.6,-0.6m-3.5,0c-0.3,0,-0.5,0.2,-0.5,0.6c0,0.3,0.2,0.5,0.5,0.5c0.4,0,0.6,-0.2,0.6,-0.5c0,-0.4,-0.2,-0.6,-0.6,-0.6m-3.4,0c-0.3,0,-0.6,0.2,-0.6,0.6c0,0.3,0.3,0.5,0.6,0.5c0.3,0,0.6,-0.2,0.6,-0.5c0,-0.4,-0.3,-0.6,-0.6,-0.6m-3.4,0c-0.4,0,-0.6,0.2,-0.6,0.6c0,0.3,0.2,0.5,0.6,0.5c0.3,0,0.5,-0.2,0.5,-0.5c0,-0.4,-0.2,-0.6,-0.5,-0.6m-3.5,0c-0.3,0,-0.6,0.2,-0.6,0.6c0,0.3,0.3,0.5,0.6,0.5c0.3,0,0.6,-0.2,0.6,-0.5c0,-0.4,-0.3,-0.6,-0.6,-0.6m-3.4,0c-0.4,0,-0.6,0.2,-0.6,0.6c0,0.3,0.2,0.5,0.6,0.5c0.3,0,0.5,-0.2,0.5,-0.5c0,-0.4,-0.2,-0.6,-0.5,-0.6m-3.5,0c-0.3,0,-0.6,0.2,-0.6,0.6c0,0.3,0.3,0.5,0.6,0.5c0.3,0,0.6,-0.2,0.6,-0.5c0,-0.4,-0.3,-0.6,-0.6,-0.6m-3.4,0c-0.4,0,-0.6,0.2,-0.6,0.6c0,0.3,0.2,0.5,0.6,0.5c0.3,0,0.5,-0.2,0.5,-0.5c0,-0.4,-0.2,-0.6,-0.5,-0.6m-3.5,0c-0.3,0,-0.6,0.2,-0.6,0.6c0,0.3,0.3,0.5,0.6,0.5c0.3,0,0.6,-0.2,0.6,-0.5c0,-0.4,-0.3,-0.6,-0.6,-0.6m-3.4,0c-0.3,0,-0.6,0.2,-0.6,0.6c0,0.3,0.3,0.5,0.6,0.5c0.3,0,0.5,-0.2,0.5,-0.5c0,-0.4,-0.2,-0.6,-0.5,-0.6m-3.5,0c-0.3,0,-0.6,0.2,-0.6,0.6c0,0.3,0.3,0.5,0.6,0.5c0.3,0,0.6,-0.2,0.6,-0.5c0,-0.4,-0.3,-0.6,-0.6,-0.6m-3.4,0c-0.3,0,-0.6,0.2,-0.6,0.6c0,0.3,0.3,0.5,0.6,0.5c0.3,0,0.5,-0.2,0.5,-0.5c0,-0.4,-0.2,-0.6,-0.5,-0.6m-3.5,0c-0.3,0,-0.5,0.2,-0.5,0.6c0,0.3,0.2,0.5,0.5,0.5c0.3,0,0.6,-0.2,0.6,-0.5c0,-0.4,-0.3,-0.6,-0.6,-0.6m-3.4,0c-0.3,0,-0.6,0.2,-0.6,0.6c0,0.3,0.3,0.5,0.6,0.5c0.3,0,0.5,-0.2,0.5,-0.5c0,-0.4,-0.2,-0.6,-0.5,-0.6m-3.5,0c-0.3,0,-0.5,0.2,-0.5,0.6c0,0.3,0.2,0.5,0.5,0.5c0.3,0,0.6,-0.2,0.6,-0.5c0,-0.4,-0.3,-0.6,-0.6,-0.6m-3.4,0c-0.3,0,-0.6,0.2,-0.6,0.6c0,0.3,0.3,0.5,0.6,0.5c0.3,0,0.6,-0.2,0.6,-0.5c0,-0.4,-0.3,-0.6,-0.6,-0.6m-3.5,0c-0.3,0,-0.5,0.2,-0.5,0.6c0,0.3,0.2,0.5,0.5,0.5c0.3,0,0.6,-0.2,0.6,-0.5c0,-0.4,-0.3,-0.6,-0.6,-0.6m-3.4,0c-0.3,0,-0.6,0.2,-0.6,0.6c0,0.3,0.3,0.5,0.6,0.5c0.3,0,0.6,-0.2,0.6,-0.5c0,-0.4,-0.3,-0.6,-0.6,-0.6m-3.5,0c-0.3,0,-0.5,0.2,-0.5,0.6c0,0.3,0.2,0.5,0.5,0.5c0.4,0,0.6,-0.2,0.6,-0.5c0,-0.4,-0.2,-0.6,-0.6,-0.6m-3.4,0c-0.3,0,-0.6,0.2,-0.6,0.6c0,0.3,0.3,0.5,0.6,0.5c0.3,0,0.6,-0.2,0.6,-0.5c0,-0.4,-0.3,-0.6,-0.6,-0.6m-3.5,0c-0.3,0,-0.5,0.2,-0.5,0.6c0,0.3,0.2,0.5,0.5,0.5c0.4,0,0.6,-0.2,0.6,-0.5c0,-0.4,-0.2,-0.6,-0.6,-0.6m-3.4,0c-0.3,0,-0.6,0.2,-0.6,0.6c0,0.3,0.3,0.5,0.6,0.5c0.3,0,0.6,-0.2,0.6,-0.5c0,-0.4,-0.3,-0.6,-0.6,-0.6m-3.5,0c-0.3,0,-0.5,0.2,-0.5,0.6c0,0.3,0.2,0.5,0.5,0.5c0.4,0,0.6,-0.2,0.6,-0.5c0,-0.4,-0.2,-0.6,-0.6,-0.6m-3.4,0c-0.3,0,-0.6,0.2,-0.6,0.6c0,0.3,0.3,0.5,0.6,0.5c0.3,0,0.6,-0.2,0.6,-0.5c0,-0.4,-0.3,-0.6,-0.6,-0.6m-3.5,0c-0.3,0,-0.5,0.2,-0.5,0.6c0,0.3,0.2,0.5,0.5,0.5c0.4,0,0.6,-0.2,0.6,-0.5c0,-0.4,-0.2,-0.6,-0.6,-0.6m-3.4,0c-0.3,0,-0.6,0.2,-0.6,0.6c0,0.3,0.3,0.5,0.6,0.5c0.3,0,0.6,-0.2,0.6,-0.5c0,-0.4,-0.3,-0.6,-0.6,-0.6m-3.4,0c-0.4,0,-0.6,0.2,-0.6,0.6c0,0.3,0.2,0.5,0.6,0.5c0.3,0,0.5,-0.2,0.5,-0.5c0,-0.4,-0.2,-0.6,-0.5,-0.6m-3.5,0c-0.3,0,-0.6,0.2,-0.6,0.6c0,0.3,0.3,0.5,0.6,0.5c0.3,0,0.6,-0.2,0.6,-0.5c0,-0.4,-0.3,-0.6,-0.6,-0.6m-3.4,0c-0.4,0,-0.6,0.2,-0.6,0.6c0,0.3,0.2,0.5,0.6,0.5c0.3,0,0.5,-0.2,0.5,-0.5c0,-0.4,-0.2,-0.6,-0.5,-0.6m-3.5,0c-0.3,0,-0.6,0.2,-0.6,0.6c0,0.3,0.3,0.5,0.6,0.5c0.3,0,0.6,-0.2,0.6,-0.5c0,-0.4,-0.3,-0.6,-0.6,-0.6m-3.4,0c-0.4,0,-0.6,0.2,-0.6,0.6c0,0.3,0.2,0.5,0.6,0.5c0.3,0,0.5,-0.2,0.5,-0.5c0,-0.4,-0.2,-0.6,-0.5,-0.6m-3.5,0c-0.3,0,-0.6,0.2,-0.6,0.6c0,0.3,0.3,0.5,0.6,0.5c0.3,0,0.6,-0.2,0.6,-0.5c0,-0.4,-0.3,-0.6,-0.6,-0.6m-3.4,0c-0.4,0,-0.6,0.2,-0.6,0.6c0,0.3,0.2,0.5,0.6,0.5c0.3,0,0.5,-0.2,0.5,-0.5c0,-0.4,-0.2,-0.6,-0.5,-0.6m-3.5,0c-0.3,0,-0.6,0.2,-0.6,0.6c0,0.3,0.3,0.5,0.6,0.5c0.3,0,0.6,-0.2,0.6,-0.5c0,-0.4,-0.3,-0.6,-0.6,-0.6m-3.4,0c-0.3,0,-0.6,0.2,-0.6,0.6c0,0.3,0.3,0.5,0.6,0.5c0.3,0,0.5,-0.2,0.5,-0.5c0,-0.4,-0.2,-0.6,-0.5,-0.6m-3.5,0c-0.3,0,-0.6,0.2,-0.6,0.6c0,0.3,0.3,0.5,0.6,0.5c0.3,0,0.6,-0.2,0.6,-0.5c0,-0.4,-0.3,-0.6,-0.6,-0.6m-3.4,0c-0.3,0,-0.6,0.2,-0.6,0.6c0,0.3,0.3,0.5,0.6,0.5c0.3,0,0.5,-0.2,0.5,-0.5c0,-0.4,-0.2,-0.6,-0.5,-0.6m-3.5,0c-0.3,0,-0.6,0.2,-0.6,0.6c0,0.3,0.3,0.5,0.6,0.5c0.3,0,0.6,-0.2,0.6,-0.5c0,-0.4,-0.3,-0.6,-0.6,-0.6m-3.4,0c-0.3,0,-0.6,0.2,-0.6,0.6c0,0.3,0.3,0.5,0.6,0.5c0.3,0,0.5,-0.2,0.5,-0.5c0,-0.4,-0.2,-0.6,-0.5,-0.6m-3.5,0c-0.3,0,-0.5,0.2,-0.5,0.6c0,0.3,0.2,0.5,0.5,0.5c0.3,0,0.6,-0.2,0.6,-0.5c0,-0.4,-0.3,-0.6,-0.6,-0.6m-3.4,0c-0.3,0,-0.6,0.2,-0.6,0.6c0,0.3,0.3,0.5,0.6,0.5c0.3,0,0.6,-0.2,0.6,-0.5c0,-0.4,-0.3,-0.6,-0.6,-0.6m-3.5,0c-0.3,0,-0.5,0.2,-0.5,0.6c0,0.3,0.2,0.5,0.5,0.5c0.3,0,0.6,-0.2,0.6,-0.5c0,-0.4,-0.3,-0.6,-0.6,-0.6m-3.4,0c-0.3,0,-0.6,0.2,-0.6,0.6c0,0.3,0.3,0.5,0.6,0.5c0.3,0,0.6,-0.2,0.6,-0.5c0,-0.4,-0.3,-0.6,-0.6,-0.6m-3.5,0c-0.3,0,-0.5,0.2,-0.5,0.6c0,0.3,0.2,0.5,0.5,0.5c0.4,0,0.6,-0.2,0.6,-0.5c0,-0.4,-0.2,-0.6,-0.6,-0.6m-3.4,0c-0.3,0,-0.6,0.2,-0.6,0.6c0,0.3,0.3,0.5,0.6,0.5c0.3,0,0.6,-0.2,0.6,-0.5c0,-0.4,-0.3,-0.6,-0.6,-0.6Z" class="g6_104" />
<path d="M580.3,673.7c-0.2,0,-0.3,0,-0.4,0.1c-0.1,0.2,-0.2,0.3,-0.2,0.5c0,0.1,0.1,0.2,0.2,0.4c0.1,0.1,0.2,0.1,0.4,0.1c0.1,0,0.3,0,0.4,-0.1c0.1,-0.2,0.2,-0.3,0.2,-0.4c0,-0.2,-0.1,-0.3,-0.2,-0.5c-0.1,-0.1,-0.3,-0.1,-0.4,-0.1m-434.5,0c-0.1,0,-0.3,0,-0.4,0.1c-0.1,0.2,-0.1,0.3,-0.1,0.5c0,0.1,0,0.2,0.1,0.4c0.1,0.1,0.3,0.1,0.4,0.1c0.2,0,0.3,0,0.4,-0.1c0.1,-0.2,0.2,-0.3,0.2,-0.4c0,-0.2,-0.1,-0.3,-0.2,-0.5c-0.1,-0.1,-0.2,-0.1,-0.4,-0.1Z" class="g6_104" />
<path d="M148.2,696.1l18.3,3.8L186,690l55.5,-10.6c0,0,6.1,-2.8,13.8,-5.1c7.7,-2.4,25.9,-7.9,25.9,-7.9l22.8,-5l20.6,21.9l19.2,-24.6c0,0,27,-5.7,33.6,-7.7c6.6,-2.1,25.8,-9.9,25.8,-9.9l20.4,1.6c0,0,15.9,-12.6,19.2,-15.4c3.3,-2.7,19.5,-11.5,19.5,-11.5l20.1,-21.5c0,0,11.6,-7.1,18.7,-11.5c7.2,-4.4,18.2,-14.5,20.6,-15.4c2.5,-1,36.1,-13.2,39.9,-14.9c3.9,-1.6,19.3,-8.2,19.3,-8.2" class="g7_104" />
<text 
x="862" 
y="1149" 
dx="0,0" 
class="s11_104"
>81</text>



<!-- Any embedded fonts defined here -->
<style type="text/css" ><![CDATA[

@font-face {
	font-family: ProximaNovaA-Regular_cuy;
	src: url("fonts/ProximaNovaA-Regular_cuy.woff") format("woff");
}

@font-face {
	font-family: Alegreya-Black_cuw;
	src: url("fonts/Alegreya-Black_cuw.woff") format("woff");
}

@font-face {
	font-family: ProximaNova-Bold_cur;
	src: url("fonts/ProximaNova-Bold_cur.woff") format("woff");
}

@font-face {
	font-family: Alegreya-Bold_cuj;
	src: url("fonts/Alegreya-Bold_cuj.woff") format("woff");
}

@font-face {
	font-family: ProximaNova-Extrabld_cuq;
	src: url("fonts/ProximaNova-Extrabld_cuq.woff") format("woff");
}

@font-face {
	font-family: Alegreya-Regular_cus;
	src: url("fonts/Alegreya-Regular_cus.woff") format("woff");
}

]]></style>

</svg>
