<?xml version="1.0" encoding="UTF-8" standalone="no"?>
<!DOCTYPE svg PUBLIC "-//W3C//DTD SVG 1.1//EN"
"http://www.w3.org/Graphics/SVG/1.1/DTD/svg11.dtd">


<!-- Page 34 -->
<svg x="0" y="0" width="921" height="1196" viewBox="0 0 921 1196" version="1.1" xmlns="http://www.w3.org/2000/svg" xmlns:xlink="http://www.w3.org/1999/xlink"
style="display: block;margin-left: auto;margin-right: auto;">
<defs>

<style type="text/css"><![CDATA[

.g1_34{
fill: none;
stroke: #3986C6;
stroke-width: 1.6194444;
stroke-linecap: butt;
stroke-linejoin: miter;
stroke-miterlimit: 4;
}
.g2_34{
fill: #3986C6;
}
.g3_34{
fill: none;
stroke: #ACBF3B;
stroke-width: 2.2916667;
stroke-linecap: butt;
stroke-linejoin: miter;
stroke-miterlimit: 4;
}
.g4_34{
fill: none;
stroke: #3986C6;
stroke-width: 1.1458334;
stroke-linecap: butt;
stroke-linejoin: miter;
}
.g5_34{
fill: none;
stroke: #3986C6;
stroke-width: 1.1458334;
stroke-linecap: butt;
stroke-linejoin: miter;
stroke-miterlimit: 4;
}
.g6_34{
fill: #FFFFFF;
}
.g7_34{
fill: #ACBF3B;
}
.g8_34{
fill: none;
stroke: #ACBF3B;
stroke-width: 1.5277778;
stroke-linecap: butt;
stroke-linejoin: miter;
}
.g9_34{
fill: #F3F4F4;
}
.g10_34{
fill: #EE1D23;
}
.g11_34{
fill: #EBF0D4;
}

.s1_34{
font-size: 18.33px;
font-family: ProximaNova-Bold_cnt;
fill: #231F20;
}
.s2_34{
font-size: 12.99px;
font-family: ProximaNova-Semibold_cnz;
fill: #231F20;
}
.s3_34{
font-size: 19.10px;
font-family: Alegreya-Bold_cny;
fill: #3986C6;
}
.s4_34{
font-size: 19.10px;
font-family: Alegreya-Regular_cnx;
fill: #231F20;
}
.s5_34{
font-size: 25.97px;
font-family: ProximaNova-Bold_cnt;
fill: #231F20;
}
.s6_34{
font-size: 19.86px;
font-family: ProximaNova-Bold_cnt;
fill: #231F20;
}
.s7_34{
font-size: 23.26px;
font-family: Alegreya-Regular_cos;
fill: #231F20;
}
.s8_34{
font-size: 18.76px;
font-family: Alegreya-Regular_cos;
fill: #231F20;
}
.s9_34{
font-size: 18.76px;
font-family: Alegreya-Regular_cos;
fill: #EE1D23;
}
.s10_34{
font-size: 23.26px;
font-family: ProximaNova-Bold_cor;
fill: #231F20;
}

]]></style>

</defs>
<path d="M0,0
L0,1196
L921,1196
L921,0 Z " 
fill="#FFFFFF" stroke="none" />
<text 
x="864" 
y="1149" 
dx="0,0" 
class="s1_34"
>11</text>

<path d="M872.3,1089.3l0,38.7" class="g1_34" />
<path d="M872.3,1125.4c-1.5,0,-2.6,1.1,-2.6,2.6c0,1.4,1.1,2.6,2.6,2.6c1.4,0,2.6,-1.2,2.6,-2.6c0,-1.5,-1.2,-2.6,-2.6,-2.6Z" class="g2_34" />
<text 
transform="matrix(0, 1, -1, 0, 867, 808)"
dx="0,0,0,0,0,0,0,0,0,0" 
class="s2_34"
>Chapter 1 </text>

<text 
transform="matrix(0, 1, -1, 0, 867, 870)"
dx="0,0" 
class="s2_34"
>• </text>

<text 
transform="matrix(0, 1, -1, 0, 867, 881)"
dx="0,0,0,0,0,0,0,0,0,0,0,0,0,0,0,0,0,0,0,0,0,0,0,0" 
class="s2_34"
>Getting to Know Chinese </text>

<text 
transform="matrix(0, 1, -1, 0, 867, 1033)"
dx="0,0" 
class="s2_34"
>• </text>

<text 
transform="matrix(0, 1, -1, 0, 867, 1044)"
dx="0,-1.4,0,0,0,0,0" 
class="s2_34"
>Topic 1</text>

<text 
x="684" 
y="947" 
dx="0" 
class="s3_34"
>T</text>

<text 
x="725" 
y="947" 
dx="0" 
class="s3_34"
>F</text>

<text 
x="118" 
y="985" 
dx="0" 
class="s3_34"
>±</text>

<text 
x="143" 
y="985" 
dx="0,0,0,0,0,0,0,-0.2,0,0,0,0,0,0,0,0,0,0,0,0,0,0,0,0,0,0,0,0,0,0,0,0,0,0,0,0,0,0,0,0,0,-0.4,0,0,0,0,0,0,0,0,0,0,0" 
class="s4_34"
>Standard Chinese is the only dialect spoken in China.</text>

<path d="M690.1,988.4c5.8,0,10.5,-4.7,10.5,-10.5c0,-5.8,-4.7,-10.4,-10.5,-10.4c-5.8,0,-10.4,4.6,-10.4,10.4c0,5.8,4.6,10.5,10.4,10.5Z" class="g3_34" />
<path d="M731.1,988.4c5.8,0,10.5,-4.7,10.5,-10.5c0,-5.8,-4.7,-10.4,-10.5,-10.4c-5.8,0,-10.5,4.6,-10.5,10.4c0,5.8,4.7,10.5,10.5,10.5Z" class="g3_34" />
<text 
x="119" 
y="1024" 
dx="0" 
class="s3_34"
>²</text>

<text 
x="142" 
y="1024" 
dx="0,-0.4,0,0,0,0,0,0,0,0,0,0,0,0,0,0,0,-0.2,0,0,0,0,0,0,-0.2,0,0,-0.2,0,0,0,0,0,0,0,0,0,0,0,0,0,0,0,0,0,0,0,0,0,0,0,0,0,0,0,0,0,0,0,0,-0.4,0,0,0,0,0" 
class="s4_34"
>Each Chinese character represents a sound but not a meaning, just </text>

<text 
x="143" 
y="1050" 
dx="0,0,0,-0.4,0,0,0,0,0,0,0,0,0,0,0,0,0,0,0,0,0,0,-0.6,0,0,0,0,0,0,0,0,0,0,0,0,0,0,0" 
class="s4_34"
>like a letter of the English alphabet.</text>

<path d="M690.1,1039.6c5.8,0,10.5,-4.7,10.5,-10.5c0,-5.8,-4.7,-10.5,-10.5,-10.5c-5.8,0,-10.4,4.7,-10.4,10.5c0,5.8,4.6,10.5,10.4,10.5Z" class="g3_34" />
<path d="M731.1,1039.6c5.8,0,10.5,-4.7,10.5,-10.5c0,-5.8,-4.7,-10.5,-10.5,-10.5c-5.8,0,-10.5,4.7,-10.5,10.5c0,5.8,4.7,10.5,10.5,10.5Z" class="g3_34" />
<text 
x="119" 
y="1088" 
dx="0" 
class="s3_34"
>³</text>

<text 
x="142" 
y="1088" 
dx="0,-0.6,-0.2,0,0,0,0,0,0,0,0,0,0,0,0,0,-0.2,0,0,0,0,0,0,0,0,-0.2,0,0,0,0,0,0,0,0,0,0,0,0,0,0,0,0" 
class="s4_34"
>Traditional characters are no longer used.</text>

<path d="M690.1,1090.7c5.8,0,10.5,-4.7,10.5,-10.5c0,-5.7,-4.7,-10.4,-10.5,-10.4c-5.8,0,-10.4,4.7,-10.4,10.4c0,5.8,4.6,10.5,10.4,10.5Z" class="g3_34" />
<path d="M731.1,1090.7c5.8,0,10.5,-4.7,10.5,-10.5c0,-5.7,-4.7,-10.4,-10.5,-10.4c-5.8,0,-10.5,4.7,-10.5,10.4c0,5.8,4.7,10.5,10.5,10.5Z" class="g3_34" />
<path d="M107.8,120.6c-10.2,0,-18.4,-8.2,-18.4,-18.3l0,-20.2l23.2,0c10.1,0,18.3,8.2,18.3,18.4l0,20.1Z" class="g2_34" />
<path d="M98.9,82.8l371.4,0" class="g4_34" />
<path d="M112.7,120.3l357.6,0" class="g4_34" />
<text 
x="140" 
y="109" 
dx="0,-0.8,0,0,0,0,0,0,0,0,0,0,0,0,0,0,0,0,0,0,0,0,0,0,0,0,0" 
class="s5_34"
>Written Chinese: Characters</text>

<text 
x="288" 
y="170" 
dx="0,-0.4,0,0,0,0,0,0,0,0,0,0,0,0,-0.3,0,-0.2,0,0,0,0,-0.2,0,0,0,0,0,0,0,0,0,0,0,0,0,0,0,0,0,0,0,0,0,0,-0.2,0,0,0,0,0,0,-0.2,0,0,0,0,0,-0.4,-0.4,0,-0.4,0,0,0" 
class="s4_34"
>Most Chinese words are made up of one to three characters. Each </text>

<text 
x="289" 
y="196" 
dx="0,0,0,0,-0.2,0,0,0,0,0,0,-0.2,0,0,-0.2,0,0,0,0,0,0,0,0,0,0,0,0,0,0,0,0,0,0,0,0,0,0,0,0,0,0,0,0,0,0,0,0,0,0,0,0,0,0,0,0,0,0,0,0,0,0,0,0" 
class="s4_34"
>character represents a specific meaning and has a one-syllable </text>

<text 
x="289" 
y="222" 
dx="0,0,0,0,0,0,0,0,0,0,0,0,0,0,0,0,0,0,0,0,0,0,0,0,0,-0.4,0,-0.2,0,0,0,0,0,0,0,0,0,0,0,-0.4,0,0,-0.6,0,0,0,0,0,0,-0.4,0,0,0,0,0,0,0,0,0,0,0,0,0,0,0,0,0" 
class="s4_34"
>sound associated with it. This is unlike English, in which letters </text>

<text 
x="288" 
y="248" 
dx="0,-0.2,0,0,-0.2,0,0,0,0,0,0,0,0,0,0,0,0,0,0,0,0,0,0,0,0,0,0,0,0,0,0,0,0,-0.4,0,-0.2,0,0,0,0,0,0,0,0,0,0,-0.3,0,0,0,0,0,0,0,0,0,0,0,0,0,0,0,0" 
class="s4_34"
>represent sounds but not meaning. Instead of comparing Chinese </text>

<text 
x="289" 
y="274" 
dx="0,0,0,0,-0.2,0,0,0,0,0,0,0,0,0,0,0,0,0,0,-0.6,0,0,0,0,0,0,0,0,0,0,0,0,0,0,0,-0.4,0,-0.3,0,0,0,-0.2,0,0,0,-0.3,0,0,0,0,-0.2,0,0,0,0,0,0,0,0,0,0,-0.4,-0.2,0,0,0,0" 
class="s4_34"
>characters to the English alphabet, you can compare them to Arabic </text>

<text 
x="288" 
y="300" 
dx="0,0,0,0,0,-0.2,0,0,0,0,0,0,-0.4,0,0,0,-0.4,0,0,-0.4,0,0,0,0,0,0,-0.4,0,-0.2,0,0,0,0,-0.3,0,0,0,0,0,0,0,-0.4,-0.2,0,0,0,0,0,0,0,0,0,-0.2,0,0,-0.4,-0.4,0,-0.3,0,0,0,0,0,-0.3,0" 
class="s4_34"
>numerals like 1, 2, and 3. When you see Arabic numerals, you know </text>

<text 
x="288" 
y="326" 
dx="0,0,0,0,0,0,0,0,0,0,0,0,0,0,0,0,0,0,0,0,0,-0.3,0,0,0,0,0,0,-0.4,0,0,0,0,0,0,-0.4,0,0,-0.3,0,0,0,0,0,0,0,0,0,0,0,0,0,0,0,0,-0.2,0,-1.5,0,0" 
class="s4_34"
>what they mean and how to say them, even though they aren’t </text>

<text 
x="289" 
y="352" 
dx="0,0,0,0,0,0,0,0,0,0,0,0" 
class="s4_34"
>spelled out.</text>

<image preserveAspectRatio="none" x="90" y="151" width="153" height="207" xlink:href="34/img/1.png" />
<path d="M108,437.1c-10.1,0,-18.3,-8.2,-18.3,-18.3l0,-20.2l23.1,0c10.2,0,18.4,8.2,18.4,18.4l0,20.1Z" class="g2_34" />
<path d="M99.2,399.3l421.7,0" class="g4_34" />
<path d="M112.9,436.7l408,0" class="g4_34" />
<text 
x="140" 
y="425" 
dx="0,0,0,0,0,0,0,0,0,0,0,0,0,0,0,0,-1.8,0,0,0,0,0,0,0,0,0,0,0,0,0,0,0" 
class="s5_34"
>Simplified and Traditional Forms</text>

<text 
x="90" 
y="478" 
dx="0,0,0,0,0,0,0,0,0,0,0,0,0,0,0,0,0,0,0,0,0,0,0,0,0,0,0,0,0,-0.2,0,0,0,0,0,-0.4,-0.4,0,0,0,0,0,0,0,0,-0.2,0,0,0,0,0,0,0,-0.2,0,0,0,0,0,0,0,0,0,0,0,0,0,0,0,0,0,0,0,0,0,0,0,0,0,0,0,0,0,0,-0.2,0,0,0,0,-1.5,-0.4" 
class="s4_34"
>Chinese is written using characters, but there is more than one type of Chinese character. </text>

<text 
x="89" 
y="504" 
dx="0,-0.2,0,0,0,0,-0.3,0,0,0,0,0,0,0,0,0,0,0,0,0,0,0,0,0,0,0,0,0,0,0,0,0,0,0,0,0,0,0,0,0,0,-0.2,0,0,0,0,0,0,0,0,-0.2,0,0,0,0,0,0,0,0,-0.2,0,-0.3,0,0,-0.2,0,0,0,0,0,0,0,0,-0.4,0,0,0,0,0,0,0,0,0,0,0,-0.4,0,0,0,0" 
class="s4_34"
>The two main types of modern Chinese characters are often referred to as “simplified” and </text>

<text 
x="85" 
y="530" 
dx="0,0,0,-0.2,0,0,0,0,0,0,0,0,0,-1.1,-0.4,0,-0.2,0,0,0,0,0,0,0,0,0,0,0,0,0,0,0,0,0,0,0,0,0,0,0,0,0,0,0,0,-0.2,0,0,0,0,0,-0.4,-0.4,0,0,0,0,0,0,0,-0.3,0,-0.2,0,0,0,-0.2,0,0,0,0,0,0,-0.3,0,0,0,0,0,0,0,-0.3,-0.3,0,0,0,0,0,0,0,0,0,0" 
class="s4_34"
>“traditional.” This book uses simplified characters, which were created by the government of </text>

<text 
x="90" 
y="556" 
dx="0,0,0,0,0,-0.9,0,0,0,0,-1,0,0,0,-0.6,0,0,0,0,0,0,0,0,0,0,0,0,0,0,0,0,0,0,0,0,0,0,0,0,0,0,0,0,0,0,0,0,0,0,0,0,0,0,0,0,0,0,0,0,0,0,0,0,0,0,0,0,0,0,0,0,0,0,0,0,0,-0.2,0,0,0,0,0,0,0,0,0,0,0,0,0" 
class="s4_34"
>the People’s Republic of China in the mid-1900s with the hope of making characters easier </text>

<text 
x="90" 
y="582" 
dx="0,0,0,0,0,0,0,0,0,-0.4,0,-0.4,-0.3,-0.3,0,-0.3,0,-1.5,-0.4,0,-0.3,0,0,0,0,0,0,0,0,0,0,0,0,0,0,0,0,0,0,0,0,0,0,0,0,0,-0.2,0,0,-0.3,0,0,0,0,-0.4,0,0,0,-0.2,0,0,0,0,0,0,0,0,0,0,0,0,0,-0.2,0,0,0,0,0,0,0,0,0,0,0,0,-0.4,0,0,0,0,0,-0.3,0,-0.4,-0.4" 
class="s4_34"
>to learn. However, you will still find the more complex traditional characters in many places, </text>

<text 
x="90" 
y="608" 
dx="0,0,0,0,0,0,0,0,0,0,0,-0.4,0,0,0,0,-0.6,0,0,0,-0.4,0,-1,0,0,-0.3,0,0,-0.4,0,0,0,0,0,0,0,0,0,0,0,0,0,0,0,-0.3,0,0,0,-0.3,0,0,0,0,0,0,-0.2,0,0,0,0,0,0,0,0,0,0,0,-0.2,0,0,0,0,0,-0.2,0,0,0" 
class="s4_34"
>including Hong Kong, Taiwan, and possibly even your local Chinese restaurant!</text>

<path d="M88.6,980.4l0,-60.5l330.4,0" class="g5_34" />
<path d="M419,922.7c1.5,0,2.7,-1.2,2.7,-2.8c0,-1.5,-1.2,-2.7,-2.7,-2.7c-1.6,0,-2.8,1.2,-2.8,2.7c0,1.6,1.2,2.8,2.8,2.8Z" class="g2_34" />
<path d="M382.8,911.6c5.5,10.7,1.2,23.8,-9.5,29.3c-10.8,5.5,-23.9,1.2,-29.4,-9.5c-5.5,-10.7,-1.2,-23.9,9.5,-29.4c10.7,-5.5,23.9,-1.2,29.4,9.6Z" class="g6_34" />
<path d="M382.8,911.6c5.5,10.7,1.2,23.8,-9.5,29.3c-10.8,5.5,-23.9,1.2,-29.4,-9.5c-5.5,-10.7,-1.2,-23.9,9.5,-29.4c10.7,-5.5,23.9,-1.2,29.4,9.6Z" class="g4_34" />
<path d="M390.4,899.7c-1.2,-1,-3,-0.7,-4.1,0.6l-20.5,24.4c-1.1,1.3,-3,1.4,-4.2,0.2l-3,-2.9c-1.2,-1.2,-3.1,-1.3,-4.1,-0.2c-1.1,1.1,-1,3,0.2,4.2l7.3,7.1c1.2,1.2,3.1,1.1,4.2,-0.2l24.3,-29c1.1,-1.3,1.1,-3.2,-0.1,-4.2Z" class="g7_34" />
<path d="M390.4,899.7c-1.2,-1,-3,-0.7,-4.1,0.6l-20.5,24.4c-1.1,1.3,-3,1.4,-4.2,0.2l-3,-2.9c-1.2,-1.2,-3.1,-1.3,-4.1,-0.2c-1.1,1.1,-1,3,0.2,4.2l7.3,7.1c1.2,1.2,3.1,1.1,4.2,-0.2l24.3,-29c1.1,-1.3,1.1,-3.2,-0.1,-4.2Z" class="g8_34" />
<path d="M104,933.8l212.3,0l0,-24.9l-212.3,0l0,24.9Z" class="g6_34" />
<text 
x="107" 
y="924" 
dx="0,0,0,0,0,0,0,0,0,0,0,0,0,0,0,0,0,0,0" 
class="s6_34"
>Comprehension Check</text>

<image preserveAspectRatio="none" x="100" y="659" width="82" height="81" xlink:href="34/img/2.png" />
<path d="M167.5,696.5c0,16.3,-13.2,29.5,-29.5,29.5c-16.3,0,-29.5,-13.2,-29.5,-29.5c0,-16.4,13.2,-29.6,29.5,-29.6c16.3,0,29.5,13.2,29.5,29.6Z" class="g9_34" />
<path d="M167.5,696.5l-1.5,0c0,7.7,-3.1,14.7,-8.2,19.8c-5,5.1,-12,8.2,-19.8,8.2c-7.7,0,-14.7,-3.1,-19.8,-8.2C113.1,711.2,110,704.2,110,696.5c0,-7.8,3.1,-14.8,8.2,-19.9c5.1,-5,12.1,-8.2,19.8,-8.2c7.8,0,14.8,3.2,19.8,8.2c5.1,5.1,8.2,12.1,8.2,19.9l1.5,0l1.5,0c0,-17.2,-13.9,-31.1,-31,-31.1c-17.1,0,-31,13.9,-31,31.1c0,17.1,13.9,31,31,31c17.1,0,31,-13.9,31,-31Z" class="g10_34" />
<image preserveAspectRatio="none" x="221" y="664" width="484" height="205" xlink:href="34/img/3.png" />
<image preserveAspectRatio="none" x="704" y="664" width="108" height="205" xlink:href="34/img/4.png" />
<path d="M798.5,855.7l-569.4,0l0,-184.3l569.4,0l0,184.3Z" class="g11_34" />
<path d="M798.5,855.7l0,-0.7l-568.6,0l0,-182.8l567.9,0l0,183.5l0.7,0l0,-0.7l0,0.7l0.8,0l0,-185l-570.9,0l0,185.8l570.9,0l0,-0.8Z" class="g7_34" />
<g fill="#231F20" >
<use xlink:href="#f0_c" transform="matrix(14.7,0,0,14.7,285.3,752.9)" />
<use xlink:href="#f0_5" transform="matrix(14.7,0,0,14.7,307.8,752.9)" />
<use xlink:href="#f0_b" transform="matrix(14.7,0,0,14.7,330.3,752.9)" />
<use xlink:href="#f0_9" transform="matrix(24.6,0,0,24.6,120.2,709.4)" />
</g>
<text 
x="248" 
y="755" 
dx="0,0,0" 
class="s7_34"
>1 .</text>

<text 
x="459" 
y="755" 
dx="0,0,0,0,0,0,0,0,0,0,0" 
class="s8_34"
>Salted Duck</text>

<text 
x="99" 
y="655" 
dx="0,0,0,0,0,0,0,0,0" 
class="s9_34"
>Simpliﬁed</text>

<text 
x="746" 
y="755" 
dx="0,0,0,0" 
class="s7_34"
>9.50</text>

<g fill="#231F20" >
<use xlink:href="#f0_7" transform="matrix(14.7,0,0,14.7,283.3,793.4)" />
<use xlink:href="#f0_8" transform="matrix(14.7,0,0,14.7,305.9,793.4)" />
<use xlink:href="#f0_4" transform="matrix(14.7,0,0,14.7,328.4,793.4)" />
<use xlink:href="#f0_a" transform="matrix(14.7,0,0,14.7,350.9,793.4)" />
</g>
<text 
x="247" 
y="795" 
dx="0,0" 
class="s7_34"
>2.</text>

<text 
x="458" 
y="795" 
dx="0,0,0,0,0,0,0,0,0,0,0,0,0,0,0,0,0,0,0,0,0" 
class="s8_34"
>Five Spice Beef Shank</text>

<text 
x="746" 
y="795" 
dx="0,0,0,0" 
class="s7_34"
>8.50</text>

<g fill="#231F20" >
<use xlink:href="#f0_6" transform="matrix(14.7,0,0,14.7,287.1,833.9)" />
<use xlink:href="#f0_3" transform="matrix(14.7,0,0,14.7,309.6,833.9)" />
<use xlink:href="#f0_d" transform="matrix(14.7,0,0,14.7,332.1,833.9)" />
<use xlink:href="#f0_2" transform="matrix(14.7,0,0,14.7,354.6,833.9)" />
</g>
<text 
x="247" 
y="836" 
dx="0,0" 
class="s7_34"
>3.</text>

<text 
x="458" 
y="836" 
dx="0,0,0,0,0,0,0,0,0,0,0,0,0,0,0,0,0,0,0,0,0" 
class="s8_34"
>Hot and Sour Cucumber</text>

<text 
x="746" 
y="836" 
dx="0,0,0,0" 
class="s7_34"
>6.00</text>

<text 
x="245" 
y="704" 
dx="0,0,0,0,0,0,0,0,0,0" 
class="s10_34"
>Appetizers</text>

<path d="M364.2,743.1l-1.5,0c0,5.5,-2.2,10.4,-5.8,14c-3.6,3.6,-8.5,5.8,-14,5.8c-5.4,0,-10.3,-2.2,-13.9,-5.8c-3.6,-3.6,-5.8,-8.5,-5.8,-14c0,-5.4,2.2,-10.3,5.8,-13.9c3.6,-3.6,8.5,-5.8,13.9,-5.8c5.5,0,10.4,2.2,14,5.8c3.6,3.6,5.8,8.5,5.8,13.9l1.5,0l1.5,0c0,-12.5,-10.2,-22.7,-22.8,-22.7c-12.5,0,-22.7,10.2,-22.7,22.7c0,12.6,10.2,22.8,22.7,22.8c12.6,0,22.8,-10.2,22.8,-22.8Z" class="g10_34" />
<path d="M167.2,697.9L324,734.4l0.7,-2.9L167.9,695Z" class="g10_34" />

<defs>
	<path d="M563.8,42.8l0,142.1l-206.3,0l0,-142.1Zm302.5,0l0,142.1l-195.6,0l0,-142.1Zm307,0l0,142.1l-200.1,0l0,-142.1ZM84,-64.1l0,116c55,-4.5,108.5,-7.6,166.6,-9.1l0,108.5c0,59.5,-3.1,110,-6.2,134.4c85.6,-6.1,181.9,-9.2,524.1,-9.2c267.3,0,436.9,3.1,524,9.2c-3.1,-24.4,-6.1,-77.9,-6.1,-134.4l0,-108.5c58,1.5,111.5,4.6,160.4,9.1l0,-116c-166.5,10.7,-381.9,13.8,-695.1,13.8C432.4,-50.3,250.6,-53.4,84,-64.1Zm944.2,501c-1.5,32.1,-4.6,53.5,-16.8,78l71.8,10.7c4.6,-27.5,9.2,-52,19.9,-74.9l-74.9,-13.8Zm-626.4,0l0,165l-114.6,0l0,-165ZM857.1,554.6c-4.6,33.6,-13.8,65.7,-24.5,87.1L919.7,660c3.1,-35.1,7.7,-59.6,19.9,-84L857.1,554.6Zm314.7,22.9c-3,35.1,-10.7,62.6,-22.9,84l70.3,22.9c12.2,-29,19.8,-59.5,21.4,-91.6l-68.8,-15.3Zm-165,129.9c-4.6,30.5,-10.7,53.4,-19.9,77.9l78,13.7c9.1,-27.5,9.1,-45.8,10.7,-74.8l-68.8,-16.8ZM1182.5,430.8c-50.4,59.6,-91.7,105.5,-131.4,143.6C979.3,502.6,954.9,478.2,904.4,435.4c-24.4,15.3,-48.8,26,-82.5,39.7c61.2,38.2,123.8,88.7,180.3,143.7C954.9,658.5,906,692.1,846.4,725.7l39.7,58.1C945.7,744,996.1,707.4,1045,666.1c39.7,44.3,71.8,91.7,97.8,139c21.4,-21.3,41.2,-35.1,73.3,-48.8c19.9,-9.2,13.8,-19.9,-12.2,-29.1C1191.7,722.6,1181,711.9,1095.4,621.8c45.9,-38.2,91.7,-82.5,143.6,-137.5l-56.5,-53.5ZM1265,420.1l0,395.7l-455.3,0l0,-395.7ZM537.8,693.6l0,137.5l-250.6,0l0,-137.5Zm-139,229.2l0,166.5l-111.6,0l0,-166.5ZM178.8,333.1c3,45.8,6.1,116.1,6.1,186.3l0,485.9c0,113,-1.6,143.6,-6.1,184.8c39.7,-7.6,74.8,-10.7,276.5,-10.7c165,0,216.9,3.1,258.2,10.7l0,-108.4c-38.2,6.1,-77.9,7.6,-210.9,7.6l0,-166.5c82.5,0,117.7,3,148.2,9.1c-3,-27.5,-4.5,-58,-4.5,-122.2l0,-93.2c0,-59.6,1.5,-90.1,4.5,-120.7c-33.6,3.1,-67.2,6.1,-145.1,6.1l0,-165c82.5,1.6,131.4,6.2,165,13.8l0,-111.5c-39.7,4.6,-96.3,6.1,-213.9,6.1c-201.7,0,-238.3,-3.1,-278,-12.2Zm528.6,-7.7c4.5,38.2,6.1,74.9,6.1,128.4l0,330c0,50.4,-1.6,88.6,-6.1,120.6C770,898.3,826.5,893.8,974.7,893.8l0,181.8l-114.6,0C817.4,1016,765.4,948.8,739.4,921.3c-32,27.5,-62.6,44.3,-103.8,56.5c125.2,103.9,177.2,169.6,210.8,287.2c35.1,-16.8,84,-33.6,119.2,-39.7c18.3,-4.6,16.8,-10.7,0,-21.4c-7.7,-4.6,-27.5,-26,-47.4,-48.9l313.2,0c99.3,0,137.5,3.1,184.9,9.2l0,-100.9c-50.5,7.7,-87.1,12.3,-186.4,12.3l-154.3,0l0,-48.9l134.4,0c67.2,0,137.5,3,171.1,7.6l0,-90.1c-47.3,3,-102.3,4.6,-171.1,4.6l-134.4,0l0,-55c155.8,0,229.1,3,294.8,10.6c-4.6,-32,-6.1,-70.2,-6.1,-120.6l0,-330c0,-53.5,1.5,-90.2,6.1,-128.4c-82.5,6.1,-175.7,7.7,-334.6,7.7c-158.9,0,-245.9,-1.6,-328.4,-7.7Z" 
	id="f0_c"
	transform="scale(0.001,-0.001)" />

	<path d="M203.2,84c-32.1,42.8,-65.7,70.3,-123.8,90.2c220,116.1,337.7,262.7,411,592.7c-201.6,0,-296.4,-9.1,-356,-19.8l0,143.6C192.5,883.1,264.3,880,388.1,880c100.8,0,187.9,3.1,255.1,10.7C571.4,450.7,435.4,241.4,203.2,84ZM586.7,-126.7C583.6,-79.3,562.2,-21.3,521,27.5c34.7,-3,63.3,-4.5,86.7,-4.5c84.9,0,102.7,19.3,102.7,56.4l0,893.8c0,175.7,-7.6,255.1,-18.3,302.5c46.1,-7.7,95.3,-11.1,135.3,-11.1c7.7,0,15.1,0.2,22,0.4c2.4,0.1,4.7,0.1,6.9,0.1c41.3,0,48.1,-13.6,17.6,-38.3c-21.4,-16.8,-29,-29,-29,-55l0,-171.1c27.5,-105.4,68.7,-218.5,106.9,-301c100.8,87.1,206.3,206.3,287.2,320.9c30.6,-41.3,108.5,-111.6,142.1,-136c18.3,-13.8,16.8,-21.4,-21.4,-22.9c-19.8,0,-56.5,-13.8,-94.7,-41.3C1205.4,777.6,1113.8,699.7,1002.2,603.5C1113.8,423.2,1257.4,299.4,1451.4,229.2C1399.4,191,1347.5,131.4,1326.1,81C1112.2,200.1,947.2,406.4,844.9,710.4l0,-687.5c0,-94.6,-30.6,-119.1,-258.2,-149.6Z" 
	id="f0_5"
	transform="scale(0.001,-0.001)" />

	<path d="M800.6,67.2l0,0c4.5,74.9,1.5,136,-6.2,220l105.5,4.6C909,215.4,913.6,145.1,915.1,74.9L800.6,67.2ZM964,93.2c-6.1,84,-12.2,126.8,-30.5,195.6l103.9,7.6c18.3,-65.7,27.5,-108.5,39.7,-186.4L964,93.2ZM724.2,32.1L603.5,51.9c25.9,88.7,42.8,163.5,56.5,247.5L763.9,281.1C753.2,194,741,114.6,724.2,32.1Zm392.6,88.6c-10.7,71.8,-22.9,117.6,-50.4,187.9l108.5,18.3c25.9,-61.1,42.7,-114.5,56.5,-180.2l-114.6,-26ZM334.6,507.2l0,230.7l-114.6,0l0,-230.7Zm223,0l0,230.7l-114.5,0l0,-230.7Zm644.8,276.6l0,77.9l-343.8,0l0,-77.9Zm0,169.5l0,76.4l-343.8,0l0,-76.4ZM334.6,834.2l0,238.3l-114.6,0l0,-238.3Zm223,0l0,238.3l-114.5,0l0,-238.3Zm-238.3,-941c9.2,112.9,15.3,212.2,15.3,475l0,41.2l-114.6,0l0,-94.7l-119.2,0c6.1,87.1,7.7,168.1,7.7,262.8l0,458.3c0,62.7,0,96.3,-7.7,139.1c36.7,-6.1,111.6,-7.7,285.7,-7.7c168.1,0,252.1,1.6,285.7,7.7c-6.1,-42.8,-9.1,-79.5,-9.1,-139.1l0,-430.8c0,-91.7,3,-177.2,9.1,-262.8l-114.6,0l0,67.2l-114.5,0l0,-41.2c0,-259.7,9.1,-362.1,15.2,-475Zm831.1,0c-3,61.1,-16.8,97.7,-53.5,149.6c35.1,-5.1,61.9,-8.1,82.7,-8.1c54.5,0,67.4,20.4,76.2,76.8c10.7,65.7,19.9,143.6,24.5,246l-348.4,0C843.3,357.5,785.3,356,744,351.4c4.6,36.7,6.1,76.4,6.1,129.9l0,513.3c0,50.4,-1.5,96.2,-6.1,134.4c42.8,-3,82.5,-3,148.2,-3c12.2,56.5,19.9,110,22.9,160.4c41.3,-10.7,82.5,-19.9,143.7,-22.9c22.9,-1.6,29,-10.7,7.6,-30.6C1041.9,1210,1028.2,1191.7,997.6,1126l181.8,0c70.3,0,99.4,0,139.1,4.6c-4.6,-36.7,-6.1,-82.5,-6.1,-134.5l0,-175.7c0,-51.9,1.5,-99.3,6.1,-134.4c-44.3,3,-91.7,4.6,-136,4.6l-323.9,0l0,-64.2l322.4,0c99.3,0,174.1,1.5,252.1,9.2l0,-114.6c-78,9.1,-163.5,9.1,-252.1,9.1l-322.4,0l0,-76.3l330,0c105.4,0,174.2,1.5,227.7,6.1C1408.6,429.3,1401,388.1,1397.9,359C1379.6,161.9,1362.8,41.3,1350.6,0c-16.8,-53.4,-50.5,-77.8,-200.2,-106.8Z" 
	id="f0_b"
	transform="scale(0.001,-0.001)" />

	<path d="M701.3,149.7l0,122.2c65.6,-6.1,132.9,-7.6,242.9,-7.6c113,0,184.8,1.5,244.4,7.6l0,-122.2c-61.1,6.1,-131.4,9.2,-244.4,9.2c-110,0,-180.3,-3.1,-242.9,-9.2ZM352.9,447.6l0,272l-129.8,0l0,-272Zm235.3,0l0,272l-129.9,0l0,-272Zm441.5,346.8c-15.3,68.8,-29,110,-47.3,160.5l105.4,36.6c16.8,-51.9,32.1,-103.9,53.5,-163.4L1029.7,794.4ZM352.9,814.3l0,259.7l-129.8,0l0,-259.7Zm235.3,0l0,259.7l-129.9,0l0,-259.7ZM337.6,-103.8c9.2,148.1,15.3,328.4,15.3,456.7l-129.8,0l0,-125.3l-103.9,0c4.6,87.1,6.1,168.1,6.1,261.3l0,550c0,64.2,-1.5,97.8,-6.1,142.1c25.9,-6.1,82.5,-7.7,288.7,-7.7c201.7,0,258.2,1.6,284.2,7.7c-4.6,-42.8,-6.1,-81,-6.1,-142.1l0,-495c0,-94.7,1.5,-177.2,6.1,-264.3l-103.9,0l0,73.3l-129.9,0c0,-128.3,6.1,-308.6,15.3,-456.7Zm763.9,-32.1c-1.5,61.1,-12.2,99.3,-56.5,160.3C1095.1,18,1134.1,14,1164.5,14c85.6,0,103.7,31.6,112.7,129.6l19.9,278.1l-236.8,0c-48.9,0,-174.2,-6.1,-252.1,-15.3c4.6,56.5,6.1,108.5,6.1,148.2l0,452.2c0,52,-1.5,102.4,-6.1,139c32.1,-3,81,-4.5,134.4,-4.5c12.3,64.1,19.9,116.1,21.4,160.4c55,-15.3,88.6,-22.9,129.9,-29.1c22.9,-1.5,26,-16.8,9.2,-27.5c-13.8,-9.1,-32.1,-39.7,-52,-103.8l192.5,0c41.3,0,77.9,1.5,111.5,4.5c-6.1,-91.6,-13.7,-175.7,-30.5,-362c-10.7,-136,-39.7,-162,-236.8,-195.6c-4.6,47.4,-15.3,77.9,-50.4,139c34.5,-3.8,62.4,-6.3,85,-6.3c75.7,0,92.4,27,98.3,116.3l13.7,203.2l-316.2,0l0,-516.4l273.5,0c64.1,0,155.8,7.7,230.7,19.9C1414.7,369.7,1397.9,181.8,1385.7,81C1365.8,-83.9,1342.9,-96.2,1101.5,-135.9Z" 
	id="f0_9"
	transform="scale(0.001,-0.001)" />

	<path d="M1029.7,119.2l26,487.3l-320.8,0L655.4,119.2ZM105.4,-16.7l0,149.6c79.5,-9.1,215.4,-13.7,406.4,-13.7L589.7,605C478.2,603.5,378.9,597.4,275,591.3l0,142c87.1,-6.1,166.5,-9.1,334.6,-10.7l45.8,288.8c-187.9,-1.5,-333,-6.1,-447.6,-15.3l0,152.8c140.5,-10.7,322.3,-15.3,576,-15.3c253.6,0,438.4,3.1,577.5,15.3l0,-152.8c-136,10.7,-316.3,15.3,-560.7,15.3L753.2,722.6c242.9,0,343.7,3.1,444.6,10.7L1167.2,120.7c10.1,-0.1,20.1,-0.2,30.1,-0.2c103.6,0,200.3,6.8,244.9,12.4l0,-149.6C1370.4,-7.5,1266.5,-3,762.4,-3C406.4,-3,194,-7.5,105.4,-16.7Z" 
	id="f0_7"
	transform="scale(0.001,-0.001)" />

	<path d="M1058.8,96.3l0,119.1l-598.9,0l0,-119.1Zm0,221.5l0,119.1l-598.9,0l0,-119.1Zm-356,216.9l0,302.5C588.2,702.8,488.9,611.1,368.2,534.7Zm476.6,0c-151.2,81,-259.7,186.4,-330,317.8l-24.4,0l0,-317.8ZM331.5,-114.5c4.6,70.3,6.1,122.1,6.1,190.9l0,343.7c0,39.8,-1.5,68.8,-3,94.8C284.2,485.8,229.2,458.3,166.5,430.8c-30.5,45.9,-58,76.4,-105.4,107C270.4,598.9,380.4,666.1,606.5,854c-25.2,0.2,-49.8,0.3,-73.7,0.3c-164.4,0,-298.5,-4.5,-410.6,-12.5l0,120.7c123.8,-7.6,275,-10.7,580.6,-10.7l0,129.9C522.5,1066.4,386.5,1060.3,270.4,1058.8c-4.6,36.6,-18.3,70.2,-48.9,117.6c46.9,-5.7,116,-9,196.4,-9c113.7,0,250.1,6.6,378.1,22.7c210.8,26,296.4,44.3,381.9,76.4c27.5,-48.9,74.9,-111.5,94.7,-132.9c15.5,-16.8,12.5,-27,0.1,-27c-2.3,0,-4.9,0.3,-7.7,1c-41.3,9.3,-70.7,13.7,-105.7,13.7c-16.8,0,-34.9,-1,-56.2,-3C1000.7,1107.6,909,1098.5,825,1092.4l0,-140.6c314.7,0,470.6,3.1,595.8,10.7l0,-120.7c-122.2,9.2,-276.5,10.7,-464.4,10.7C1067.9,707.4,1223.8,624.9,1471.3,598.9c-38.2,-45.8,-68.8,-107,-81,-149.7c-74.9,24.4,-140.6,51.9,-200.2,82.5c-3,-24.5,-4.5,-58.1,-4.5,-111.6l0,-325.4c0,-68.7,1.5,-126.7,7.6,-190.9l-134.4,0l0,90.2L459.9,-6l0,-108.5Z" 
	id="f0_8"
	transform="scale(0.001,-0.001)" />

	<path d="M751.7,-134.3c7.6,73.3,13.7,206.1,13.7,274.9l0,233.7c-284.1,0,-495,-6.1,-650.8,-16.8l0,145.1c157.3,-9.1,366.7,-15.2,650.8,-15.2l0,342.2l-346.8,0C389.6,760.8,357.5,695.1,307.1,605c-41.3,26,-71.8,35.1,-123.8,44.3c74.9,99.3,157.4,297.9,218.5,524c44.3,-16.8,85.6,-29,142.1,-35.1c18.3,-1.5,19.9,-10.7,7.6,-24.4c-19.8,-23,-67.2,-117.7,-88.6,-171.2l302.5,0l0,108.5c0,90.2,-4.6,187.9,-9.1,226.1c31.5,-4.1,65.8,-6.1,101.5,-6.1c17.8,0,36,0.5,54.3,1.5c1.6,0.1,3.2,0.1,4.7,0.1c31.2,0,38,-14.7,6,-33.7c-13.8,-7.6,-21.4,-39.7,-21.4,-113l0,-183.4c191,1.6,326.9,4.6,401.8,12.3l0,-137.5c-74.9,6.1,-212.4,10.7,-401.8,12.2l0,-342.2c230.7,1.5,395.7,7.6,531.7,15.2l0,-145.1c-136,9.2,-301,15.3,-531.7,16.8l0,-233.7c0,-68.8,4.6,-190.9,13.7,-274.9Z" 
	id="f0_4"
	transform="scale(0.001,-0.001)" />

	<path d="M404.9,496.5l0,256.7l-120.7,0l0,-256.7Zm841.8,191l0,136l-125.3,0l0,-136Zm0,224.6l0,128.3l-125.3,0l0,-128.3ZM404.9,844.9l0,250.5l-120.7,0l0,-250.5Zm197,-953.3c-22.9,42.8,-45.8,67.2,-79.4,90.2c48.9,51.8,88.6,106.8,117.6,172.5C588.2,246,551.5,356,537.8,435.4l82.5,19.9c4.6,-42.8,24.4,-116.1,59.6,-192.5c21.4,81,33.6,180.3,36.6,302.5c-77.9,0,-106.9,-3.1,-152.7,-13.8c-3.1,35.2,-12.3,67.3,-26,97.8c32.1,12.2,55,39.7,67.2,81l82.5,270.4c-58.1,0,-84,-1.5,-119.2,-6.1l0,102.3c35.2,-3,78,-6.1,122.3,-6.1c42.7,0,91.6,3.1,132.9,6.1L681.4,655.4c76.4,0,108.5,1.5,143.6,9.2C823.5,452.2,792.9,288.8,742.5,152.8C817.1,67.2,950.9,24.9,1166,24.9c84.2,0,181,6.5,291.5,19.4c-21.4,-51.8,-30.6,-83.9,-36.7,-129.8c-66,-2.2,-125.5,-3.4,-179.4,-3.4C926,-88.9,803.5,-48.2,704.3,62.6C670.7,-6,640.1,-54.9,601.9,-108.4Zm-444.5,1.6C132.9,-65.6,103.9,-32,70.3,-7.5C136,79.4,175.7,239.9,175.7,611.1l0,397.2c0,93.2,-1.5,151.3,-4.6,192.5c52,-6.1,100.8,-7.6,174.2,-7.6c71.8,0,114.6,1.5,166.5,7.6c-3,-41.2,-3,-99.3,-3,-192.5l0,-980.8c0,-83.9,-24.5,-109.9,-163.5,-125.2C337.6,-51.8,322.4,-10.6,296.4,29c100.8,1.6,108.5,9.2,108.5,48.9l0,327l-122.3,0C278.1,145.1,239.9,16.8,157.4,-106.8ZM1017.5,59.6c4.6,42.8,6.1,76.4,6.1,114.6C913.6,172.6,881.5,171.1,831.1,165l0,108.5c48.9,-6.1,110,-9.2,194,-10.7l0,125.3C944.2,386.5,892.2,385,843.3,378.9l0,108.5c48.9,-6.1,102.4,-9.2,181.8,-10.7l0,122.2c-67.2,0,-102.3,-1.5,-154.3,-6.1l0,102.3c41.3,-3,82.5,-6.1,154.3,-7.6l0,136C935,821.9,880,818.9,818.9,812.8l0,108.5c61.1,-6.2,114.6,-7.7,206.2,-9.2l0,128.3c-56.5,-1.5,-88.6,-3,-142,-7.6l0,105.4c58,-4.6,91.6,-6.1,142,-7.6c-1.5,77.9,-4.5,119.1,-10.7,149.7c44.4,-6.1,73.4,-7.7,117.7,-7.7c42.8,0,45.8,-10.7,10.7,-30.5c-13.8,-7.7,-21.4,-33.6,-21.4,-58.1l0,-53.4c119.2,0,157.4,3,230.7,13.7c-4.6,-30.5,-4.6,-56.5,-4.6,-91.7l0,-140.5c48.9,1.5,84,4.6,108.5,9.2l0,-105.5c-22.9,3.1,-61.1,6.1,-108.5,7.7l0,-105.4c0,-47.4,1.5,-84.1,6.1,-123.8c-47.3,3.1,-97.8,4.6,-232.2,4.6l0,-122.2c111.5,0,175.7,3,235.3,10.7l0,-108.5c-58.1,6.1,-123.8,9.2,-235.3,9.2l0,-125.3c148.2,0,189.4,3,250.5,10.7l0,-108.5c-56.5,7.6,-76.3,9.2,-249,9.2c1.5,-38.2,3.1,-71.8,7.7,-114.6Z" 
	id="f0_a"
	transform="scale(0.001,-0.001)" />

	<path d="M618.8,102.4l0,114.5l-389.6,0l0,-114.5Zm495,90.1c39.7,51.9,68.7,123.8,97.7,227.6l-223,0c25.9,-88.6,74.8,-177.2,125.3,-227.6ZM809.7,-119.1c-9.1,47.4,-25.9,81,-71.8,113.1c110,21.3,204.7,54.9,302.5,129.8C986.9,180.3,953.3,244.4,925.8,334.6C895.3,287.2,866.3,246,834.2,203.2c-19.9,24.4,-45.9,45.8,-85.6,51.9c96.3,85.6,184.9,243,227.7,391.2c32,-15.3,73.3,-27.5,110,-35.2c27.5,-6.1,32,-18.3,7.6,-30.5c-10.7,-6.2,-35.1,-32.1,-61.1,-68.8l186.4,0c53.4,0,106.9,4.6,139,13.8C1298.6,322.4,1252.8,212.4,1196.3,137.5C1294,87.1,1367.4,70.3,1468.2,62.6C1430,9.2,1411.7,-35,1405.6,-79.3C1280.3,-39.6,1191.7,3.1,1119.9,55C1017.5,-33.5,927.4,-79.3,809.7,-119.1Zm580.6,663c-77.9,76.4,-154.3,134.4,-249,192.5l74.8,76.4c94.7,-61.1,180.3,-123.8,249,-175.7l-74.8,-93.2ZM618.8,299.4l0,128.4c-21.1,-2.5,-44.4,-3.7,-64.7,-3.7c-16.6,0,-31.2,0.8,-40.8,2.2c-45.8,7.6,-50.4,27.5,-50.4,106.9l0,284.2l-70.3,0c-3,-247.5,-29,-371.3,-70.2,-440c-18.4,21.4,-45.9,35.1,-79.5,45.8c42.8,76.4,59.6,142.1,61.1,394.2l-74.8,0l0,-518Zm0,203.2l0,314.8l-70.3,0l0,-261.3c0,-42.8,4.6,-51.9,70.3,-53.5Zm181.8,55c-15.3,29.1,-30.6,52,-61.2,81c97.8,59.6,171.2,119.2,212.4,189.5c29,-30.6,64.2,-52,85.6,-61.2c24.4,-10.6,24.4,-27.5,-4.6,-32c-13.8,-1.6,-29,-16.8,-64.2,-48.9C924.3,641.7,857.1,592.8,800.6,557.6ZM462.9,898.3l0,180.3l-70.3,0l0,-180.3ZM119.2,-91.6c6.1,58.1,9.1,120.6,9.1,204.7l0,656.9c0,53.5,-1.5,94.7,-4.5,134.4c47.3,-3,105.4,-6.1,180.2,-6.1l0,180.3c-74.8,-1.5,-142.1,-4.6,-195.5,-13.7l0,125.2c65.7,-10.7,152.8,-13.7,323.9,-13.7c171.1,0,258.2,3,323.9,13.7l0,-125.2c-55,9.1,-126.9,12.2,-207.8,13.7l0,-180.3c71.8,0,128.3,3.1,175.7,6.1C721.1,864.7,719.6,823.5,719.6,770l0,-606.5c0,-71.8,3,-126.8,9.2,-201.6l-110,0l0,58l-389.6,0l0,-111.5ZM1350.6,828.1c-12.3,21.3,-24.5,42.7,-39.8,64.1L1009.9,867.8C948.8,863.2,851,844.9,814.3,834.2c-3,35.1,-18.3,77.9,-38.2,113C818.9,964,851,990,907.5,1067.9c73.3,102.4,103.9,162,122.2,221.5c44.3,-27.5,100.9,-53.4,128.4,-61.1c30.5,-9.1,29,-24.4,-6.2,-35.1c-13.7,-4.6,-53.4,-38.2,-74.8,-68.8C1035.8,1067.9,979.3,1000.7,924.3,951.8l328.5,18.3c-30.6,38.2,-64.2,74.9,-97.8,111.6l70.3,56.5c85.5,-82.5,142.1,-146.7,213.9,-236.8l-88.6,-73.3Z" 
	id="f0_6"
	transform="scale(0.001,-0.001)" />

	<path d="M967.1,548.5l0,187.9l-162,0l0,-187.9Zm282.6,0l0,187.9l-175.7,0l0,-187.9ZM220,672.2c1.5,65.7,-9.2,123.8,-29,177.2l113,27.5c7.7,-59.5,21.4,-125.2,35.2,-175.6L220,672.2ZM232.2,-113c-30.5,38.2,-84,87.1,-126.8,105.5C227.6,74.9,281.1,145.1,304,273.5C229.2,271.9,174.2,268.9,125.3,261.3l0,125.2c53.5,-7.6,111.5,-10.7,191,-12.2c3,47.4,4.5,99.3,3,162C229.2,534.7,157.4,530.1,100.8,524l0,120.7c79.5,-7.6,172.7,-12.2,298,-12.2c29,74.9,48.8,184.9,53.4,264.3C499.6,875.4,539.3,861.7,577.5,854c27.5,-6.1,29,-13.7,6.1,-25.9C572.9,821.9,542.4,777.6,484.3,634c64.2,1.6,116.1,4.6,160.4,10.7l0,-120.7c-58,6.1,-125.3,10.7,-212.3,12.3c0,-61.2,0,-113.1,-3.1,-162c90.1,1.5,152.8,4.6,207.8,12.2l0,-125.2c-56.5,7.6,-122.2,12.2,-218.5,12.2C397.2,137.5,346.8,35.1,232.2,-113ZM131.4,947.2l0,119.2c62.6,-6.1,129.9,-9.2,238.3,-9.2c107,0,178.8,3.1,236.8,9.2l0,-119.2c-61.1,6.1,-129.8,10.7,-236.8,10.7C261.3,957.9,191,953.3,131.4,947.2Zm825,-1066.3C964,-7.5,967.1,61.1,967.1,168.1l0,285.7l-16.8,0C860.1,200.1,803.6,100.8,646.3,-68.7C618.8,-39.6,566.8,-6,519.4,12.2C704.3,137.5,783.8,247.5,851,453.8c-62.7,-1.6,-110,-4.6,-157.4,-7.7c7.7,47.4,10.7,129.9,10.7,207.8c0,71.8,-3,145.1,-10.7,192.5c71.8,-7.6,146.7,-10.7,273.5,-12.2l0,137.5C838.8,970.1,753.2,964,676.8,957.9l0,125.3c82.5,-7.6,163.5,-12.2,290.3,-13.8c0,120.7,-3.1,165,-10.7,210.9c35.8,-7.7,83.5,-11.1,116.8,-11.1c6.5,0,12.4,0.1,17.6,0.4c1.7,0,3.2,0.1,4.7,0.1c37.1,0,42.9,-17.6,10.6,-35.3c-24.4,-13.7,-32.1,-30.5,-32.1,-62.6l0,-102.4c163.5,0,264.3,1.6,351.4,10.7l0,-122.2c-87.1,7.7,-187.9,13.8,-351.4,13.8l0,-137.5c131.4,0,210.9,1.5,285.7,7.6c-4.6,-42.8,-7.6,-119.2,-7.6,-194c0,-77.9,3,-154.3,7.6,-204.7c-59.6,6.1,-119.1,10.7,-206.2,10.7c51.9,-174.2,143.6,-267.4,299.4,-322.4C1414.7,84,1394.9,42.8,1373.5,-13.7C1203.9,88.6,1147.4,165,1074,453.8l0,-285.7c0,-105.5,4.6,-180.2,12.3,-287.2ZM343.8,1081.7c-10.7,50.4,-32.1,120.7,-52,166.5l126.8,38.2c18.3,-52,42.8,-120.7,56.5,-163.5L343.8,1081.7Z" 
	id="f0_3"
	transform="scale(0.001,-0.001)" />

	<path d="M1324.6,-114.5c-110,62.7,-287.2,138.9,-412.5,168L983.9,139C1116.8,97.8,1298.6,35.1,1413.2,-12.1l-88.6,-102.4ZM171.1,-126.7c-18.3,29,-47.3,65.7,-84,96.2C305.6,16.8,458.3,77.9,565.3,155.8c26,-30.5,82.5,-80.9,103.9,-96.2c24.4,-16.8,24.4,-26,-13.8,-29C637.1,29,606.5,26,545.4,0C472.1,-30.5,299.4,-93.1,171.1,-126.7Zm537.8,388l0,90.1l-304,0l0,-90.1Zm424.7,0l0,90.1l-310.1,0l0,-90.1ZM708.9,440l0,88.6l-304,0l0,-88.6Zm424.7,0l0,88.6l-310.1,0l0,-88.6ZM282.6,157.4l0,0c6.2,70.2,9.2,140.5,7.7,236.8c0,96.2,-3.1,168,-7.7,236.8C388.1,623.3,521,618.8,708.9,617.2l0,77.9C395.7,693.6,191,686,106.9,679.9l0,119.1c96.3,-7.6,296.4,-13.7,411,-13.7l504.2,0c132.9,0,276.5,6.1,409.4,13.7l0,-119.1c-90.1,7.6,-287.2,13.7,-608,15.2l0,-77.9c189.4,0,331.5,4.6,432.3,12.2c-6.1,-53.4,-9.1,-140.5,-7.6,-236.8c0,-94.7,3.1,-161.9,7.6,-235.2c-113,7.6,-270.4,12.2,-488.9,12.2C548.5,169.6,395.7,165,282.6,157.4ZM959.4,933.5l0,93.2l-397.2,0l0,-93.2ZM449.2,840.3l0,186.4c-87.1,-1.6,-180.3,-6.1,-252.1,-13.8l0,117.7c71.8,-7.7,165,-12.3,252.1,-13.8c-1.6,88.6,-3.1,125.3,-7.7,149.7c24.6,-3.2,51.8,-4.8,77.1,-4.8c22,0,42.6,1.2,58.9,3.3c1.9,0.3,3.6,0.4,5.3,0.4c17.2,0,21.5,-13.8,-2.2,-26.4c-16.8,-9.1,-18.4,-15.2,-18.4,-41.2l0,-81l397.2,0c0,97.8,-1.5,134.5,-4.5,158.9c26.8,-3.7,58.1,-5.7,86.8,-5.7c18.6,0,36.2,0.8,50.7,2.6c0.9,0.1,1.9,0.2,2.8,0.2c13.3,0,18.8,-10.4,0.2,-26.1c-16.8,-13.8,-19.8,-24.5,-19.8,-48.9l0,-81c93.2,1.5,197,6.1,276.5,13.8l0,-117.7c-79.5,7.7,-183.3,12.2,-276.5,13.8l0,-186.4c-58.1,4.6,-224.6,6.1,-313.2,6.1c-94.8,0,-262.8,-1.5,-313.2,-6.1Z" 
	id="f0_d"
	transform="scale(0.001,-0.001)" />

	<path d="M200.1,-108.4C177.2,-87,110,-59.5,61.1,-50.3C218.5,143.6,262.8,339.2,273.5,658.5c6.1,200.1,-3.1,346.8,-16.8,424.7c20.7,-0.9,42.1,-1.3,64.2,-1.3c282,0,661.2,70,834.1,148c26,-53.5,82.5,-111.6,108.5,-134.5c24.4,-20.5,21.8,-33.5,0.4,-33.5c-4.1,0,-8.8,0.5,-14.2,1.4c-11.2,2.8,-30.4,4.2,-54.3,4.2c-41.3,0,-96.6,-4.1,-148.9,-11.8c4.6,-275,38.2,-534.7,126.8,-708.9c71.8,-140.5,157.4,-220,288.8,-287.2c-48.9,-38.2,-88.6,-85.5,-122.2,-142C1231.4,7.6,1126,122.2,1074,238.3C970.1,469,936.5,756.3,933.5,1035.8C869.3,1025.1,799,1014.4,730.3,1005.3L707.4,111.5c56.5,15.3,100.8,27.5,145.1,42.8c-22.9,50.4,-47.4,97.8,-67.2,132.9l102.3,47.4C931.9,236.8,1003.8,99.3,1060.3,1.5L939.6,-53.4c-12.2,36.7,-29,77.8,-45.8,117.6L710.4,7.6C656.9,-9.1,627.9,-21.3,579,-51.8C565.3,-13.7,545.4,24.4,522.5,53.5c41.3,13.7,64.2,70.3,65.7,142.1l22.9,795.9C528.6,983.9,455.3,979.3,397.2,977.8l0,-319.3C388.1,334.6,326.9,102.4,200.1,-108.4Z" 
	id="f0_2"
	transform="scale(0.001,-0.001)" />


</defs>

<!-- Any embedded fonts defined here -->
<style type="text/css" ><![CDATA[

@font-face {
	font-family: Alegreya-Regular_cnx;
	src: url("fonts/Alegreya-Regular_cnx.woff") format("woff");
}

@font-face {
	font-family: ProximaNova-Semibold_cnz;
	src: url("fonts/ProximaNova-Semibold_cnz.woff") format("woff");
}

@font-face {
	font-family: ProximaNova-Bold_cor;
	src: url("fonts/ProximaNova-Bold_cor.woff") format("woff");
}

@font-face {
	font-family: Alegreya-Bold_cny;
	src: url("fonts/Alegreya-Bold_cny.woff") format("woff");
}

@font-face {
	font-family: ProximaNova-Bold_cnt;
	src: url("fonts/ProximaNova-Bold_cnt.woff") format("woff");
}

@font-face {
	font-family: Alegreya-Regular_cos;
	src: url("fonts/Alegreya-Regular_cos.woff") format("woff");
}

]]></style>

</svg>
