<?xml version="1.0" encoding="UTF-8" standalone="no"?>
<!DOCTYPE svg PUBLIC "-//W3C//DTD SVG 1.1//EN"
"http://www.w3.org/Graphics/SVG/1.1/DTD/svg11.dtd">


<!-- Page 55 -->
<svg x="0" y="0" width="921" height="1196" viewBox="0 0 921 1196" version="1.1" xmlns="http://www.w3.org/2000/svg" xmlns:xlink="http://www.w3.org/1999/xlink"
style="display: block;margin-left: auto;margin-right: auto;">
<defs>

<style type="text/css"><![CDATA[

.g1_55{
fill: none;
stroke: #3986C6;
stroke-width: 1.6194444;
stroke-linecap: butt;
stroke-linejoin: miter;
stroke-miterlimit: 4;
}
.g2_55{
fill: #3986C6;
}
.g3_55{
fill: none;
stroke: #3986C6;
stroke-width: 1.1458334;
stroke-linecap: butt;
stroke-linejoin: miter;
}
.g4_55{
fill: #ACBF3B;
}
.g5_55{
fill: none;
stroke: #3986C6;
stroke-width: 1.1458334;
stroke-linecap: butt;
stroke-linejoin: miter;
stroke-miterlimit: 4;
}
.g6_55{
fill: none;
stroke: #3986C6;
stroke-width: 1.5277778;
stroke-linecap: butt;
stroke-linejoin: miter;
stroke-miterlimit: 4;
}
.g7_55{
fill: #DCDDDF;
}
.g8_55{
fill: none;
stroke: #939598;
stroke-width: 0.38194445;
stroke-linecap: butt;
stroke-linejoin: miter;
}
.g9_55{
fill: none;
stroke: #D1D2D4;
stroke-width: 0.38194445;
stroke-linecap: butt;
stroke-linejoin: miter;
}
.g10_55{
fill: none;
stroke: #D9ECD4;
stroke-width: 0.38194445;
stroke-linecap: butt;
stroke-linejoin: miter;
}
.g11_55{
fill: none;
stroke: #939598;
stroke-width: 0.7638889;
stroke-linecap: butt;
stroke-linejoin: miter;
}
.g12_55{
fill: #E2E3E5;
}

.s1_55{
font-size: 12.99px;
font-family: ProximaNova-Semibold_cqy;
fill: #231F20;
}
.s2_55{
font-size: 18.33px;
font-family: ProximaNova-Bold_cpr;
fill: #231F20;
}
.s3_55{
font-size: 25.97px;
font-family: ProximaNova-Bold_cpr;
fill: #FFFFFF;
}
.s4_55{
font-size: 25.97px;
font-family: ProximaNova-Bold_cpr;
fill: #231F20;
}
.s5_55{
font-size: 13.75px;
font-family: ProximaNova-Extrabld_cq3;
fill: #FFFFFF;
}
.s6_55{
font-size: 19.10px;
font-family: Alegreya-Regular_cpq;
fill: #231F20;
}
.s7_55{
font-size: 19.86px;
font-family: ProximaNova-Bold_cpr;
fill: #231F20;
}
.s8_55{
font-size: 22.92px;
font-family: STKaiti-SC-Bold_cqx;
fill: #231F20;
}
.s9_55{
font-size: 22.92px;
font-family: STKaitiSC-Regular_cof;
fill: #231F20;
}
.s10_55{
font-size: 19.10px;
font-family: Alegreya-Bold_cpw;
fill: #231F20;
}
.s11_55{
font-size: 32.08px;
font-family: STKaitiSC-Regular_cof;
fill: #231F20;
}
.s12_55{
font-size: 16.04px;
font-family: Alegreya-Regular_cpq;
fill: #231F20;
}
.s13_55{
font-size: 16.81px;
font-family: ProximaNovaCond-Extrabld_cqu;
fill: #231F20;
}
.s14_55{
font-size: 19.10px;
font-family: Alegreya-Bold_cpw;
fill: #3986C6;
}

]]></style>

</defs>
<path d="M0,0
L0,1196
L921,1196
L921,0 Z " 
fill="#FFFFFF" stroke="none" />
<text 
transform="matrix(0, -1, 1, 0, 54, 1084)"
dx="0,0,0,0,0,0,0,0,0,0,0,0,0,0,0,0,0,0,0" 
class="s1_55"
>Go Far with Chinese</text>

<text 
x="38" 
y="1149" 
dx="0,0" 
class="s2_55"
>32</text>

<path d="M50.4,1089.3l0,38.7" class="g1_55" />
<path d="M50.4,1125.4c-1.4,0,-2.5,1.1,-2.5,2.6c0,1.4,1.1,2.6,2.5,2.6c1.5,0,2.6,-1.2,2.6,-2.6c0,-1.5,-1.1,-2.6,-2.6,-2.6Z" class="g2_55" />
<path d="M128.2,120.9c-10.2,0,-18.4,-8.2,-18.4,-18.3l0,-20.1l23.2,0c10.1,0,18.3,8.2,18.3,18.3l0,20.1Z" class="g2_55" />
<path d="M120.8,83l359,0" class="g3_55" />
<path d="M134.5,120.4l345.3,0" class="g3_55" />
<text 
x="119" 
y="109" 
dx="0,0,0" 
class="s3_55"
>1c </text>

<text 
x="162" 
y="109" 
dx="0,0,0,0,0,0,0,0,0,0,0,0,0,0" 
class="s4_55"
>Puzzle It Out </text>

<path d="M336.1,113.7c-6,0,-10.8,-4.9,-10.8,-10.8l0,-10.9L466,92c6,0,10.9,4.9,10.9,10.9l0,10.8Z" class="g4_55" />
<text 
x="340" 
y="107" 
dx="0,0,0,0,0,0,0,0,0,0,0,0,0,0" 
class="s5_55"
>Pr¶Gr³²² C·³CK</text>

<text 
x="110" 
y="156" 
dx="0,-0.4,0,0,0,0,0,0,0,0,0,0,0,0,-0.4,-0.4,0,-0.2,0,0,0,0,0,0,0,0,-0.3,0,0,0,0,0,0,0,0,0,0,0,-0.3,0,0,0,0,0,0,0,0,0,0,0,0,0,0,0,0,0,0,0,0,0,0,0,0,0,0,-0.3,0,0,0,0,0,0,0,0,0,0,0,0,0,0,-0.4,0,0,0,0,0,0,0,0,-0.4" 
class="s6_55"
>Complete the exercise below to check your understanding of what you learned in Section 1. </text>

<text 
x="109" 
y="182" 
dx="0,0,0,0,-0.3,0,0,0,0,-0.4,-0.3,0,0,0,0,0,0,0,0,0,0,-0.4,-0.4,0,-0.3,0,0,0,0,0,0,0,0,0,0,0,0,0,0,0,0,0,0,0,0,-0.6,0,-0.3,0,-0.2,0,0,-0.3,0,0,0,0,0,0,0,0,0" 
class="s6_55"
>If you have questions, consult the Language Reference section.</text>

<path d="M217.2,341l0,29.3" class="g5_55" />
<path d="M185.1,430.8l0,29.3" class="g5_55" />
<path d="M350.4,430.8l0,29.3" class="g5_55" />
<path d="M185.5,249l0,30.7" class="g5_55" />
<path d="M271.5,249l0,30.7" class="g5_55" />
<path d="M270.9,341l0,30.7" class="g5_55" />
<path d="M241,430.8l0,30.7" class="g5_55" />
<path d="M404.3,430.8l0,30.7" class="g5_55" />
<path d="M493.1,430.8l0,30.7" class="g5_55" />
<text 
x="110" 
y="568" 
dx="0,-0.1,0,0,0,0,0,0,0,0,-0.6,0,0,0,0,0,0,0" 
class="s7_55"
>Language Reference</text>

<path d="M311.6,563.7l520.5,0" class="g6_55" />
<path d="M311.6,566.7c1.7,0,3.1,-1.4,3.1,-3c0,-1.7,-1.4,-3.1,-3.1,-3.1c-1.7,0,-3,1.4,-3,3.1c0,1.6,1.3,3,3,3Z" class="g2_55" />
<text 
x="139" 
y="617" 
dx="0,0,0,0,0,0,0,0,0,0,0,0,0,0,0,0,0,0,0,0,0,0,0,0,0,0,0" 
class="s2_55"
>Indicating possession with </text>

<text 
x="363" 
y="617" 
dx="0" 
class="s8_55"
>的</text>

<text 
x="137" 
y="656" 
dx="0,-0.6,-0.3,-0.3,-0.3,-0.3,-0.3" 
class="s6_55"
>Adding </text>

<text 
x="196" 
y="656" 
dx="0" 
class="s9_55"
>的</text>

<text 
x="222" 
y="656" 
dx="0,-0.3,-0.3,-0.3,-0.3,-0.3,-0.3,-0.3,-0.3,-0.6,-0.3,-0.3,-0.3,-0.3,-0.3,-0.6,-0.3,-0.3,-0.3,-0.3,-0.3,-0.3,-0.3,-0.3,-0.3,-0.3,-0.6,-0.3,-0.3,-0.3,-0.3,-0.3,-0.3,-0.3,-0.3,-0.3,-0.3,-0.3,-0.3,-0.3,-0.3,-0.6,-0.3,-0.3,-0.3,-0.3,-0.3,-0.3,-0.3,-0.3,-0.3,-0.3,-0.3,-0.3,-0.3,-0.3,-0.3,-0.3,-0.3,-0.3,-0.3,-0.3,-0.3,-0.3,-0.3,-0.3,-0.3,-0.3,-0.3,-0.3,-0.3,-0.3,-0.3,-0.3,-0.3,-0.3,-0.3,-0.3,-0.3,-0.3,-0.3,-0.3" 
class="s6_55"
>(de) between two nouns shows that the second person or thing belongs to the first.</text>

<path d="M137.5,687.5l46.5,0l0,34.7l-46.5,0l0,-34.7Zm46.5,0l113.7,0l0,34.7l-113.7,0l0,-34.7Zm113.7,0l73.6,0l0,34.7l-73.6,0l0,-34.7Zm73.6,0l142.4,0l0,34.7l-142.4,0l0,-34.7Zm142.4,0l237.3,0l0,34.7l-237.3,0l0,-34.7Z" class="g7_55" />
<path d="M137.5,810.9l46.5,0" class="g8_55" />
<path d="M184,810.9l113.5,0" class="g8_55" />
<path d="M297.8,810.9l73.3,0" class="g8_55" />
<path d="M371.4,810.9l142.1,0" class="g8_55" />
<path d="M513.9,810.9l237.1,0" class="g8_55" />
<path d="M137.5,899.6l46.5,0" class="g8_55" />
<path d="M184,899.6l113.5,0" class="g8_55" />
<path d="M297.8,899.6l73.3,0" class="g8_55" />
<path d="M371.4,899.6l142.1,0" class="g8_55" />
<path d="M513.9,899.6l237.1,0" class="g8_55" />
<path d="M297.7,810.9l0,-88.7" class="g9_55" />
<path d="M371.3,810.9l0,-88.7" class="g9_55" />
<path d="M513.7,810.9l0,-88.7" class="g9_55" />
<path d="M297.7,899.6l0,-88.7" class="g9_55" />
<path d="M371.3,899.6l0,-88.7" class="g9_55" />
<path d="M513.7,899.6l0,-88.7" class="g9_55" />
<path d="M297.7,988l0,-88.4" class="g9_55" />
<path d="M371.3,988l0,-88.4" class="g9_55" />
<path d="M513.7,988l0,-88.4" class="g9_55" />
<path d="M297.7,722.2l0,-34.7" class="g10_55" />
<path d="M371.3,722.2l0,-34.7" class="g10_55" />
<path d="M513.7,722.2l0,-34.7" class="g10_55" />
<path d="M137.5,988.4l46.5,0" class="g11_55" />
<path d="M184,988.4l113.7,0" class="g11_55" />
<path d="M297.7,988.4l73.6,0" class="g11_55" />
<path d="M371.3,988.4l142.4,0" class="g11_55" />
<path d="M513.7,988.4l237.3,0" class="g11_55" />
<text 
x="198" 
y="712" 
dx="0,0,0,0,0,0" 
class="s2_55"
>Noun 1</text>

<text 
x="316" 
y="713" 
dx="0" 
class="s8_55"
>的</text>

<text 
x="385" 
y="712" 
dx="0,0,0,0,0,0" 
class="s2_55"
>Noun 2</text>

<text 
x="528" 
y="712" 
dx="0,0,0,0,0,0,0" 
class="s2_55"
>Meaning</text>

<text 
x="151" 
y="786" 
dx="0" 
class="s10_55"
>1</text>

<text 
x="194" 
y="790" 
dx="0" 
class="s11_55"
>我</text>

<text 
x="307" 
y="790" 
dx="0" 
class="s11_55"
>的</text>

<text 
x="381" 
y="790" 
dx="0,0" 
class="s11_55"
>老师</text>

<text 
x="527" 
y="793" 
dx="0,-0.4,0,0,0,0,0,0,0,0" 
class="s6_55"
>my teacher</text>

<text 
x="151" 
y="876" 
dx="0" 
class="s10_55"
>2</text>

<text 
x="192" 
y="878" 
dx="0,0,0,0,10.7" 
class="s11_55"
>白老师 的</text>

<text 
x="381" 
y="878" 
dx="0,0" 
class="s11_55"
>学生</text>

<text 
x="527" 
y="882" 
dx="0,-0.2,-1.5,-0.4,0,0,0,0,0,0,0,0,0,0,0,0,0,0" 
class="s6_55"
>Mr. Bai’s students</text>

<text 
x="151" 
y="963" 
dx="0" 
class="s10_55"
>3</text>

<text 
x="194" 
y="967" 
dx="0,0" 
class="s11_55"
>学生</text>

<text 
x="307" 
y="967" 
dx="0" 
class="s11_55"
>的</text>

<text 
x="380" 
y="967" 
dx="0,0,0,0" 
class="s11_55"
>英文名字</text>

<text 
x="527" 
y="971" 
dx="0,0,0,0,0,0,0,0,0,0,0,0,0,0,0,-0.6,0,0,0,0,0,0,0,0,0,0" 
class="s6_55"
>the student’s English name</text>

<text 
x="316" 
y="760" 
dx="0,0.2" 
class="s12_55"
>de</text>

<text 
x="198" 
y="851" 
dx="0,0.2,0.2" 
class="s12_55"
>Bái</text>

<text 
x="316" 
y="849" 
dx="0,0.2" 
class="s12_55"
>de</text>

<text 
x="316" 
y="938" 
dx="0,0.2" 
class="s12_55"
>de</text>

<text 
x="385" 
y="938" 
dx="0,-0.4,0.2,0.2,0.2,0,0.2,0.2" 
class="s12_55"
>Yīngwén </text>

<text 
x="453" 
y="938" 
dx="0,0.2,0.2,0.2,0.2,0.2" 
class="s12_55"
>míngzi</text>

<path d="M110,622.1l20.6,0l0,-20.6l-20.6,0l0,20.6Z" class="g12_55" />
<text 
x="116" 
y="618" 
dx="0" 
class="s13_55"
>1</text>

<text 
x="109" 
y="231" 
dx="0,-0.6,0,0,0,-0.2,0,0,0,0,0,0,0,0,0,0,0,0,0,0,0,0,0,-0.3,0,-0.2,0,0,0,0,0,0,0,0,0,0,0,-0.2,-0.3,0,0,0,0,0,0,-0.2,0,0,0,0,0,0,0,0,0,0,0,0,-0.6,0,0,0,0,0,0,0,0,0,-0.2,0,0,0,-0.4" 
class="s6_55"
>Rearrange the Chinese words in each row to translate the English phrases.</text>

<text 
x="110" 
y="271" 
dx="0" 
class="s14_55"
>1</text>

<text 
x="139" 
y="274" 
dx="0" 
class="s11_55"
>我</text>

<text 
x="197" 
y="274" 
dx="0,0" 
class="s11_55"
>老师</text>

<text 
x="282" 
y="274" 
dx="0" 
class="s11_55"
>的</text>

<text 
x="140" 
y="301" 
dx="0,-0.4,0,0,0,0,0,0,0,0" 
class="s6_55"
>my teacher</text>

<text 
x="110" 
y="361" 
dx="0,0" 
class="s14_55"
>2 </text>

<text 
x="140" 
y="364" 
dx="0,0" 
class="s11_55"
>名字</text>

<text 
x="227" 
y="364" 
dx="0" 
class="s11_55"
>的</text>

<text 
x="282" 
y="364" 
dx="0,0" 
class="s11_55"
>老师</text>

<text 
x="140" 
y="391" 
dx="0,0,0,0,0,0,0,0,0,0,0,0,0,0,0,0,0,0" 
class="s6_55"
>the teacher’s name</text>

<text 
x="109" 
y="451" 
dx="0" 
class="s14_55"
>3</text>

<text 
x="138" 
y="454" 
dx="0" 
class="s11_55"
>是</text>

<text 
x="197" 
y="454" 
dx="0" 
class="s11_55"
>你</text>

<text 
x="252" 
y="454" 
dx="0,0,0,0" 
class="s11_55"
>什么 ?</text>

<text 
x="361" 
y="454" 
dx="0,0,12.6,0" 
class="s11_55"
>的 中文</text>

<text 
x="506" 
y="454" 
dx="0,0" 
class="s11_55"
>名字</text>

<text 
x="140" 
y="488" 
dx="0,-0.2,0,0,0,0,0,0,-0.3,0,0,0,0,0,0,0,0,0,0,0,0,0,0,0,0" 
class="s6_55"
>What’s your Chinese name?</text>



<!-- Any embedded fonts defined here -->
<style type="text/css" ><![CDATA[

@font-face {
	font-family: Alegreya-Bold_cpw;
	src: url("fonts/Alegreya-Bold_cpw.woff") format("woff");
}

@font-face {
	font-family: ProximaNova-Extrabld_cq3;
	src: url("fonts/ProximaNova-Extrabld_cq3.woff") format("woff");
}

@font-face {
	font-family: ProximaNovaCond-Extrabld_cqu;
	src: url("fonts/ProximaNovaCond-Extrabld_cqu.woff") format("woff");
}

@font-face {
	font-family: ProximaNova-Semibold_cqy;
	src: url("fonts/ProximaNova-Semibold_cqy.woff") format("woff");
}

@font-face {
	font-family: ProximaNova-Bold_cpr;
	src: url("fonts/ProximaNova-Bold_cpr.woff") format("woff");
}

@font-face {
	font-family: STKaitiSC-Regular_cof;
	src: url("fonts/STKaitiSC-Regular_cof.woff") format("woff");
}

@font-face {
	font-family: Alegreya-Regular_cpq;
	src: url("fonts/Alegreya-Regular_cpq.woff") format("woff");
}

@font-face {
	font-family: STKaiti-SC-Bold_cqx;
	src: url("fonts/STKaiti-SC-Bold_cqx.woff") format("woff");
}

]]></style>

</svg>
