<?xml version="1.0" encoding="UTF-8" standalone="no"?>
<!DOCTYPE svg PUBLIC "-//W3C//DTD SVG 1.1//EN"
"http://www.w3.org/Graphics/SVG/1.1/DTD/svg11.dtd">


<!-- Page 424 -->
<svg x="0" y="0" width="921" height="1196" viewBox="0 0 921 1196" version="1.1" xmlns="http://www.w3.org/2000/svg" xmlns:xlink="http://www.w3.org/1999/xlink"
style="display: block;margin-left: auto;margin-right: auto;">
<defs>

<style type="text/css"><![CDATA[

.g1_424{
fill: none;
stroke: #3986C6;
stroke-width: 1.6194444;
stroke-linecap: butt;
stroke-linejoin: miter;
stroke-miterlimit: 4;
}
.g2_424{
fill: #3986C6;
}
.g3_424{
fill: #BDBEC1;
}
.g4_424{
fill: #F0F1F2;
}
.g5_424{
fill: none;
stroke: #BDBEC1;
stroke-width: 1.5277778;
stroke-linecap: butt;
stroke-linejoin: miter;
}
.g6_424{
fill: none;
stroke: #BDBEC1;
stroke-width: 0.38194445;
stroke-linecap: butt;
stroke-linejoin: miter;
}
.g7_424{
fill: none;
stroke: #77787B;
stroke-width: 1.5277778;
stroke-linecap: butt;
stroke-linejoin: miter;
stroke-miterlimit: 4;
}
.g8_424{
fill: none;
stroke: #77787B;
stroke-width: 0.5102778;
stroke-linecap: butt;
stroke-linejoin: miter;
stroke-miterlimit: 4;
}
.g9_424{
fill: none;
stroke: #57585A;
stroke-width: 1.5277778;
stroke-linecap: butt;
stroke-linejoin: miter;
stroke-miterlimit: 4;
}

.s1_424{
font-size: 18.33px;
font-family: ProximaNova-Bold_ddv;
fill: #231F20;
}
.s2_424{
font-size: 19.10px;
font-family: Alegreya-Regular_ddy;
fill: #231F20;
}
.s3_424{
font-size: 18.33px;
font-family: ProximaNova-Bold_ddv;
fill: #57585A;
}
.s4_424{
font-size: 21.39px;
font-family: ProximaNova-Semibold_ddu;
fill: #3F3F40;
}
.s5_424{
font-size: 32.08px;
font-family: STKaitiSC-Regular_cof;
fill: #231F20;
}
.s6_424{
font-size: 24.44px;
font-family: ProximaNova-Bold_ddv;
fill: #909295;
}
.s7_424{
font-size: 12.99px;
font-family: ProximaNova-Semibold_ddu;
fill: #231F20;
}

]]></style>

</defs>
<path d="M0,0
L0,1196
L921,1196
L921,0 Z " 
fill="#FFFFFF" stroke="none" />
<text 
x="856" 
y="1149" 
dx="0,0,0" 
class="s1_424"
>401</text>

<path d="M872.3,1089.3l0,38.7" class="g1_424" />
<path d="M872.3,1125.4c-1.5,0,-2.6,1.1,-2.6,2.6c0,1.4,1.1,2.6,2.6,2.6c1.4,0,2.6,-1.2,2.6,-2.6c0,-1.5,-1.2,-2.6,-2.6,-2.6Z" class="g2_424" />
<text 
x="88" 
y="184" 
dx="0,-0.2,0,0,0,-0.6,0,0,0,0,0,0,0,-0.4,0,0,0,0,0,0,0,0,0,-1.4,0,-0.2,0,0,0,0,0,0.3,0,0,-0.2,0,0,-0.4,0,0,0,0,0,0,0,-0.3,0,0,0,0,0,0,0,0,0,0,0,0,0,0,0,0,0,0,0,0,0,0,0,0,0,0,0,0,0,-0.2,0,0,0,0,-0.2,0,0,0,0,0,0,0,0,0,0" 
class="s2_424"
>The English – Chinese Vocabulary Index is organized based on the alphabetical order of the </text>

<text 
x="88" 
y="212" 
dx="0,-0.6,0,0,0,0,0,0,0,0,0,0,0,0,0,0,0,0,0,-0.4" 
class="s2_424"
>English definitions.</text>

<path d="M89.4,272.8l721.7,0l0,42.2L89.4,315l0,-42.2Z" class="g3_424" />
<path d="M89.4,357.3l391.9,0l0,42.3l-391.9,0l0,-42.3Zm391.9,0l123.7,0l0,42.3l-123.7,0l0,-42.3Zm123.7,0l140.3,0l0,42.3l-140.3,0l0,-42.3Zm140.3,0l65.8,0l0,42.3l-65.8,0l0,-42.3ZM89.4,441.9l391.9,0l0,42.3l-391.9,0l0,-42.3Zm391.9,0l123.7,0l0,42.3l-123.7,0l0,-42.3Zm123.7,0l140.3,0l0,42.3l-140.3,0l0,-42.3Zm140.3,0l65.8,0l0,42.3l-65.8,0l0,-42.3ZM89.4,526.6l391.9,0l0,42.3l-391.9,0l0,-42.3Zm391.9,0l123.7,0l0,42.3l-123.7,0l0,-42.3Zm123.7,0l140.3,0l0,42.3l-140.3,0l0,-42.3Zm140.3,0l65.8,0l0,42.3l-65.8,0l0,-42.3ZM89.4,611.2l391.9,0l0,42.3l-391.9,0l0,-42.3Zm391.9,0l123.7,0l0,42.3l-123.7,0l0,-42.3Zm123.7,0l140.3,0l0,42.3l-140.3,0l0,-42.3Zm140.3,0l65.8,0l0,42.3l-65.8,0l0,-42.3ZM89.4,695.8l391.9,0l0,42.3l-391.9,0l0,-42.3Zm391.9,0l123.7,0l0,42.3l-123.7,0l0,-42.3Zm123.7,0l140.3,0l0,42.3l-140.3,0l0,-42.3Zm140.3,0l65.8,0l0,42.3l-65.8,0l0,-42.3ZM89.4,780.5l391.9,0l0,42.3l-391.9,0l0,-42.3Zm391.9,0l123.7,0l0,42.3l-123.7,0l0,-42.3Zm123.7,0l140.3,0l0,42.3l-140.3,0l0,-42.3Zm140.3,0l65.8,0l0,42.3l-65.8,0l0,-42.3ZM89.4,865.1l391.9,0l0,42.3l-391.9,0l0,-42.3Zm391.9,0l123.7,0l0,42.3l-123.7,0l0,-42.3Zm123.7,0l140.3,0l0,42.3l-140.3,0l0,-42.3Zm140.3,0l65.8,0l0,42.3l-65.8,0l0,-42.3ZM89.4,949.7l391.9,0l0,61.1l-391.9,0l0,-61.1Zm391.9,0l123.7,0l0,61.1l-123.7,0l0,-61.1Zm123.7,0l140.3,0l0,61.1l-140.3,0l0,-61.1Zm140.3,0l65.8,0l0,61.1l-65.8,0l0,-61.1Z" class="g4_424" />
<path d="M89.4,272.8l391.9,0" class="g5_424" />
<path d="M481.3,272.8l123.7,0" class="g5_424" />
<path d="M605,272.8l140.3,0" class="g5_424" />
<path d="M745.3,272.8l65.8,0" class="g5_424" />
<path d="M89.4,315l391.9,0" class="g6_424" />
<path d="M481.3,315L605,315" class="g6_424" />
<path d="M605,315l140.3,0" class="g6_424" />
<path d="M745.3,315l65.8,0" class="g6_424" />
<path d="M89.4,357.3l391.9,0" class="g6_424" />
<path d="M481.3,357.3l123.7,0" class="g6_424" />
<path d="M605,357.3l140.3,0" class="g6_424" />
<path d="M745.3,357.3l65.8,0" class="g6_424" />
<path d="M481.3,399.6l123.7,0" class="g6_424" />
<path d="M605,399.6l140.3,0" class="g6_424" />
<path d="M745.3,399.6l65.8,0" class="g6_424" />
<path d="M481.3,441.9l123.7,0" class="g6_424" />
<path d="M605,441.9l140.3,0" class="g6_424" />
<path d="M745.3,441.9l65.8,0" class="g6_424" />
<path d="M89.4,399.6l391.9,0" class="g6_424" />
<path d="M89.4,441.9l391.9,0" class="g6_424" />
<path d="M89.4,484.2l391.9,0" class="g6_424" />
<path d="M89.4,526.6l391.9,0" class="g6_424" />
<path d="M605,484.2l140.3,0" class="g6_424" />
<path d="M605,526.6l140.3,0" class="g6_424" />
<path d="M481.3,484.2l123.7,0" class="g6_424" />
<path d="M481.3,526.6l123.7,0" class="g6_424" />
<path d="M745.3,484.2l65.8,0" class="g6_424" />
<path d="M745.3,526.6l65.8,0" class="g6_424" />
<path d="M605,568.9l140.3,0" class="g6_424" />
<path d="M605,611.2l140.3,0" class="g6_424" />
<path d="M481.3,568.9l123.7,0" class="g6_424" />
<path d="M481.3,611.2l123.7,0" class="g6_424" />
<path d="M89.4,568.9l391.9,0" class="g6_424" />
<path d="M89.4,611.2l391.9,0" class="g6_424" />
<path d="M745.3,568.9l65.8,0" class="g6_424" />
<path d="M745.3,611.2l65.8,0" class="g6_424" />
<path d="M745.3,653.5l65.8,0" class="g6_424" />
<path d="M745.3,695.8l65.8,0" class="g6_424" />
<path d="M605,653.5l140.3,0" class="g6_424" />
<path d="M605,695.8l140.3,0" class="g6_424" />
<path d="M481.3,653.5l123.7,0" class="g6_424" />
<path d="M481.3,695.8l123.7,0" class="g6_424" />
<path d="M89.4,653.5l391.9,0" class="g6_424" />
<path d="M89.4,695.8l391.9,0" class="g6_424" />
<path d="M745.3,738.1l65.8,0" class="g6_424" />
<path d="M745.3,780.5l65.8,0" class="g6_424" />
<path d="M605,738.1l140.3,0" class="g6_424" />
<path d="M605,780.5l140.3,0" class="g6_424" />
<path d="M481.3,738.1l123.7,0" class="g6_424" />
<path d="M481.3,780.5l123.7,0" class="g6_424" />
<path d="M89.4,738.1l391.9,0" class="g6_424" />
<path d="M89.4,780.5l391.9,0" class="g6_424" />
<path d="M745.3,822.8l65.8,0" class="g6_424" />
<path d="M745.3,865.1l65.8,0" class="g6_424" />
<path d="M605,822.8l140.3,0" class="g6_424" />
<path d="M605,865.1l140.3,0" class="g6_424" />
<path d="M481.3,822.8l123.7,0" class="g6_424" />
<path d="M481.3,865.1l123.7,0" class="g6_424" />
<path d="M89.4,822.8l391.9,0" class="g6_424" />
<path d="M89.4,865.1l391.9,0" class="g6_424" />
<path d="M745.3,907.4l65.8,0" class="g6_424" />
<path d="M745.3,949.7l65.8,0" class="g6_424" />
<path d="M605,907.4l140.3,0" class="g6_424" />
<path d="M605,949.7l140.3,0" class="g6_424" />
<path d="M481.3,907.4l123.7,0" class="g6_424" />
<path d="M481.3,949.7l123.7,0" class="g6_424" />
<path d="M89.4,907.4l391.9,0" class="g6_424" />
<path d="M89.4,949.7l391.9,0" class="g6_424" />
<path d="M89.4,1010.8l391.9,0" class="g6_424" />
<path d="M481.3,1010.8l123.7,0" class="g6_424" />
<path d="M605,1010.8l140.3,0" class="g6_424" />
<path d="M745.3,1010.8l65.8,0" class="g6_424" />
<path d="M89.4,1053.1l391.9,0" class="g5_424" />
<path d="M481.3,1053.1l123.7,0" class="g5_424" />
<path d="M605,1053.1l140.3,0" class="g5_424" />
<path d="M745.3,1053.1l65.8,0" class="g5_424" />
<text 
x="96" 
y="258" 
dx="0,0,0,0,0,0,0,0" 
class="s3_424"
>English </text>

<text 
x="487" 
y="258" 
dx="0,0,0,0,0,0,0" 
class="s3_424"
>Chinese</text>

<text 
x="611" 
y="258" 
dx="0,0,0,0,0,0" 
class="s3_424"
>Pinyin</text>

<text 
x="752" 
y="258" 
dx="0,-0.4,0,0" 
class="s3_424"
>Page</text>

<text 
x="443" 
y="302" 
dx="0" 
class="s4_424"
>A</text>

<text 
x="90" 
y="344" 
dx="0,0,0,0,0,-0.6,-0.4,0,0,0,0,0,0" 
class="s2_424"
>-ache, aching</text>

<text 
x="485" 
y="344" 
dx="0" 
class="s5_424"
>疼</text>

<text 
x="611" 
y="344" 
dx="0,0,0,0" 
class="s2_424"
>téng</text>

<text 
x="750" 
y="344" 
dx="0,0,0" 
class="s2_424"
>291</text>

<text 
x="95" 
y="386" 
dx="0,0,0,0,0,0,0,0,0" 
class="s2_424"
>afternoon</text>

<text 
x="478" 
y="386" 
dx="0,0" 
class="s5_424"
>下午</text>

<text 
x="611" 
y="386" 
dx="0,0,0,-0.4,0" 
class="s2_424"
>xiàwǔ</text>

<text 
x="751" 
y="386" 
dx="0,0,0" 
class="s2_424"
>182</text>

<text 
x="95" 
y="428" 
dx="0,0,-0.2,0,0" 
class="s2_424"
>again</text>

<text 
x="480" 
y="428" 
dx="0" 
class="s5_424"
>又</text>

<text 
x="611" 
y="428" 
dx="0,-0.3,0" 
class="s2_424"
>yòu</text>

<text 
x="750" 
y="428" 
dx="0,0,0" 
class="s2_424"
>307</text>

<text 
x="95" 
y="471" 
dx="0,0,-0.2,0,0,0,0,0,0,0,0" 
class="s2_424"
>again; then</text>

<text 
x="483" 
y="471" 
dx="0" 
class="s5_424"
>再</text>

<text 
x="611" 
y="471" 
dx="0,0,0" 
class="s2_424"
>zài</text>

<text 
x="750" 
y="471" 
dx="0,0,0" 
class="s2_424"
>307</text>

<text 
x="95" 
y="513" 
dx="0,0,0,0,0,0,-0.2,0" 
class="s2_424"
>to agree</text>

<text 
x="482" 
y="513" 
dx="0,0" 
class="s5_424"
>同意</text>

<text 
x="611" 
y="513" 
dx="0,0,0,0,0,0" 
class="s2_424"
>tóngyì</text>

<text 
x="751" 
y="513" 
dx="0,0,0" 
class="s2_424"
>191</text>

<text 
x="95" 
y="555" 
dx="0,0,0,0,-0.4,0,0,0,0,0" 
class="s2_424"
>all, both </text>

<text 
x="485" 
y="555" 
dx="0" 
class="s5_424"
>都</text>

<text 
x="611" 
y="555" 
dx="0,0,0" 
class="s2_424"
>dōu</text>

<text 
x="751" 
y="555" 
dx="0,0" 
class="s2_424"
>84</text>

<text 
x="95" 
y="597" 
dx="0,0,0,-0.2,0,0,0" 
class="s2_424"
>already</text>

<text 
x="481" 
y="598" 
dx="0,0" 
class="s5_424"
>已经</text>

<text 
x="611" 
y="597" 
dx="0,0,0,0,0,0" 
class="s2_424"
>yǐjīng</text>

<text 
x="750" 
y="597" 
dx="0,0,0" 
class="s2_424"
>268</text>

<text 
x="95" 
y="640" 
dx="0,0,0,0,-0.8,-0.4,0,0,0,0,0,0,0,0,0,0,0,0,-0.4,0,0,0,-0.8,-0.4,0,0,0,0,-0.3,0,0" 
class="s2_424"
>also, in addition, too, as well</text>

<text 
x="484" 
y="640" 
dx="0" 
class="s5_424"
>还</text>

<text 
x="611" 
y="640" 
dx="0,0,0" 
class="s2_424"
>hái</text>

<text 
x="750" 
y="640" 
dx="0,0,0" 
class="s2_424"
>233</text>

<text 
x="95" 
y="682" 
dx="0,0,0,0,-0.8,-0.4,0,0,0,-0.8,-0.4,0,0,0,0,-0.3,0,0,0,0,0" 
class="s2_424"
>also, too, as well as</text>

<text 
x="483" 
y="682" 
dx="0" 
class="s5_424"
>也</text>

<text 
x="611" 
y="682" 
dx="0,-0.3" 
class="s2_424"
>yě</text>

<text 
x="750" 
y="682" 
dx="0,0" 
class="s2_424"
>41</text>

<text 
x="95" 
y="724" 
dx="0,0,0,0,0,0,0,0" 
class="s2_424"
>although</text>

<text 
x="480" 
y="725" 
dx="0,0" 
class="s5_424"
>虽然</text>

<text 
x="611" 
y="724" 
dx="0,0,0,0,-0.2,0" 
class="s2_424"
>suīrán</text>

<text 
x="750" 
y="724" 
dx="0,0,0" 
class="s2_424"
>365</text>

<text 
x="95" 
y="767" 
dx="0,0,0" 
class="s2_424"
>and</text>

<text 
x="485" 
y="767" 
dx="0" 
class="s5_424"
>和</text>

<text 
x="611" 
y="767" 
dx="0,0" 
class="s2_424"
>hé</text>

<text 
x="750" 
y="767" 
dx="0,0" 
class="s2_424"
>41</text>

<text 
x="95" 
y="809" 
dx="0,0,0,0,0,0,0,0" 
class="s2_424"
>and also</text>

<text 
x="483" 
y="809" 
dx="0,0" 
class="s5_424"
>而且</text>

<text 
x="611" 
y="809" 
dx="0,0,-0.2,0,0" 
class="s2_424"
>érqiě</text>

<text 
x="751" 
y="809" 
dx="0,0,0" 
class="s2_424"
>186</text>

<text 
x="95" 
y="851" 
dx="0,0,0,0,0,0,0,0" 
class="s2_424"
>and then</text>

<text 
x="483" 
y="851" 
dx="0,0" 
class="s5_424"
>然后</text>

<text 
x="611" 
y="851" 
dx="0,-0.2,0,0,0,0" 
class="s2_424"
>ránhòu</text>

<text 
x="750" 
y="851" 
dx="0,0,0" 
class="s2_424"
>307</text>

<text 
x="95" 
y="894" 
dx="0,0,0,0,-0.3,0" 
class="s2_424"
>answer</text>

<text 
x="483" 
y="894" 
dx="0,0" 
class="s5_424"
>答案</text>

<text 
x="611" 
y="894" 
dx="0,0,-1.5,0,0" 
class="s2_424"
>dá’àn</text>

<text 
x="750" 
y="894" 
dx="0,0,0" 
class="s2_424"
>335</text>

<text 
x="95" 
y="936" 
dx="0,0,0,0,0,0,0,0,0,0,0,0,0,0,0,0,0,0,0" 
class="s2_424"
>to ask (a question)</text>

<text 
x="482" 
y="936" 
dx="0" 
class="s5_424"
>问</text>

<text 
x="611" 
y="936" 
dx="0,-0.3,0" 
class="s2_424"
>wèn</text>

<text 
x="751" 
y="936" 
dx="0,0,0" 
class="s2_424"
>168</text>

<text 
x="95" 
y="975" 
dx="0,0,0,0,0,0,0,0,-0.3,0,0,0,0,0,0,0,0,0,0,-0.6,-0.4,0,0,0,0,0,0,0,0,0,0,0,0,0,0,-0.4,-0.4,0,0,0,0,0,0,0,-0.2,0,0" 
class="s2_424"
>to ask for time off, to ask to be excused from </text>

<text 
x="95" 
y="1001" 
dx="0,0,0,0,0,0,0,0,-0.4,0,-0.3,0,0,0" 
class="s2_424"
>(school, work)</text>

<text 
x="483" 
y="988" 
dx="0,0" 
class="s5_424"
>请假</text>

<text 
x="611" 
y="988" 
dx="0,0,0,0,0,0,0,0" 
class="s2_424"
>qǐng jià</text>

<text 
x="750" 
y="988" 
dx="0,0,0" 
class="s2_424"
>281</text>

<text 
x="95" 
y="1039" 
dx="0,0,0,-0.4,0,0" 
class="s2_424"
>at, in</text>

<text 
x="484" 
y="1039" 
dx="0,0" 
class="s5_424"
>在 </text>

<text 
x="611" 
y="1039" 
dx="0,0,0" 
class="s2_424"
>zài</text>

<text 
x="751" 
y="1039" 
dx="0,0,0" 
class="s2_424"
>118</text>

<text 
x="245" 
y="120" 
dx="0,-1.5,0,0,0,0,0,0,0,0,0,0,0,0,0,-0.8,0,0,0,0,0,0,0,0,0,0,0,0,0,0,0,0,0,0,0,0" 
class="s6_424"
>Vocabulary Index (English – Chinese)</text>

<path d="M111.1,84.5l0,53.5l0,0.8l0.8,0l676.9,0l0.7,0l0,-0.8l0,-53.5l0,-0.7l-0.7,0l-676.9,0l-0.8,0l0,0.7Z" class="g7_424" />
<path d="M113.2,136.7l674.3,0l0,-50.9l-674.3,0l0,50.9Z" class="g8_424" />
<path d="M110.3,139.8l680,0l0,-56.5l-680,0l0,56.5Z" class="g9_424" />
<text 
transform="matrix(0, 1, -1, 0, 866, 869)"
dx="0,-0.8,0,0,0,0,0,0,0,0,0,0,0,0,0,-0.5,0,0,0,0,0,0,0,0,0,0,0,0,0,0,0,0,0,0,0,0" 
class="s7_424"
>Vocabulary Index (English – Chinese)</text>



<!-- Any embedded fonts defined here -->
<style type="text/css" ><![CDATA[

@font-face {
	font-family: Alegreya-Regular_ddy;
	src: url("fonts/Alegreya-Regular_ddy.woff") format("woff");
}

@font-face {
	font-family: ProximaNova-Bold_ddv;
	src: url("fonts/ProximaNova-Bold_ddv.woff") format("woff");
}

@font-face {
	font-family: STKaitiSC-Regular_cof;
	src: url("fonts/STKaitiSC-Regular_cof.woff") format("woff");
}

@font-face {
	font-family: ProximaNova-Semibold_ddu;
	src: url("fonts/ProximaNova-Semibold_ddu.woff") format("woff");
}

]]></style>

</svg>
