<?xml version="1.0" encoding="UTF-8" standalone="no"?>
<!DOCTYPE svg PUBLIC "-//W3C//DTD SVG 1.1//EN"
"http://www.w3.org/Graphics/SVG/1.1/DTD/svg11.dtd">


<!-- Page 211 -->
<svg x="0" y="0" width="921" height="1196" viewBox="0 0 921 1196" version="1.1" xmlns="http://www.w3.org/2000/svg" xmlns:xlink="http://www.w3.org/1999/xlink"
style="display: block;margin-left: auto;margin-right: auto;">
<defs>
<clipPath id="c0_211"><path d="M0,1196.3L0,0L921.3,0l0,1196.3Z" /></clipPath>
<clipPath id="c1_211"><path d="M184.5,537.9c-0.3,-0.2,-0.6,-0.3,-1,-0.5c0.4,0.2,0.7,0.3,1,0.5Z" /></clipPath>
<clipPath id="c2_211"><path d="M167.8,541.8l0,-9.2l15.1,0l0,9.2Z" /></clipPath>
<clipPath id="c3_211"><path d="M157.4,572.2l0,-1.3l19.7,0l0,1.3Z" /></clipPath>
<clipPath id="c4_211"><path d="M151.7,586.1l0,-1.5l31.2,0l0,1.5Z" /></clipPath>
<clipPath id="c5_211"><path d="M143.3,600.9l0,-2.2l48,0l0,2.2Z" /></clipPath>
<clipPath id="c6_211"><path d="M212.6,590.1l0,-12.8l1.8,0l0,12.8Z" /></clipPath>

<style type="text/css"><![CDATA[

.g1_211{
fill: none;
stroke: #3986C6;
stroke-width: 1.6194444;
stroke-linecap: butt;
stroke-linejoin: miter;
stroke-miterlimit: 4;
}
.g2_211{
fill: #3986C6;
}
.g3_211{
fill: none;
stroke: #3986C6;
stroke-width: 1.1458334;
stroke-linecap: butt;
stroke-linejoin: miter;
}
.g4_211{
fill: #ACBF3B;
}
.g5_211{
fill: none;
stroke: #3986C6;
stroke-width: 1.9097222;
stroke-linecap: butt;
stroke-linejoin: miter;
stroke-miterlimit: 4;
}
.g6_211{
fill: #F6CC44;
}
.g7_211{
fill: #6D6E71;
}
.g8_211{
fill: none;
stroke: #88949F;
stroke-width: 1.5277778;
stroke-linecap: butt;
stroke-linejoin: miter;
}
.g9_211{
fill: none;
stroke: #CF151D;
stroke-width: 3.0555556;
stroke-linecap: butt;
stroke-linejoin: miter;
}
.g10_211{
fill: #FFFFFF;
}
.g11_211{
fill: none;
stroke: #E7E8E9;
stroke-width: 1.5079167;
stroke-linecap: butt;
stroke-linejoin: miter;
}
.g12_211{
fill: #E8E9EA;
}
.g13_211{
fill: #C62128;
}
.g14_211{
fill: #801416;
}
.g15_211{
fill: #414042;
}
.g16_211{
fill: #8C181B;
}
.g17_211{
fill: #818386;
}
.g18_211{
fill: #6E6E71;
}
.g19_211{
fill: #A7AAAC;
}
.g20_211{
fill: #73C9BD;
}
.g21_211{
fill: #347769;
}
.g22_211{
fill: #66B6A9;
}
.g23_211{
fill: #40897B;
}
.g24_211{
fill: #FBB141;
}
.g25_211{
fill: #F16238;
}
.g26_211{
fill: #C01F2E;
}
.g27_211{
fill: #15B78F;
}
.g28_211{
fill: #FDFDF1;
}
.g29_211{
fill: #9B7442;
}
.g30_211{
fill: #8B8D90;
}
.g31_211{
fill: #208267;
}
.g32_211{
fill: #939594;
}
.g33_211{
fill: #1E50A2;
}
.g34_211{
fill: #6E7477;
}
.g35_211{
fill: #5A6162;
}
.g36_211{
fill: #4C5355;
}
.g37_211{
fill: #256552;
}
.g38_211{
fill: #646B6A;
}
.g39_211{
fill: #2A4579;
}
.g40_211{
fill: #939699;
}
.g41_211{
fill: #313E60;
}
.g42_211{
fill: #22A07D;
}
.g43_211{
fill: #FDCA7A;
}
.g44_211{
fill: #E5E6E7;
}
.g45_211{
fill: #710D0F;
}
.g46_211{
fill: #211D1E;
}
.g47_211{
fill: #F69227;
}
.g48_211{
fill: #C3B69C;
}
.g49_211{
fill: #9D877B;
}
.g50_211{
fill: #E1D3BF;
}
.g51_211{
fill: #594A42;
}
.g52_211{
fill: #23A8E0;
}
.g53_211{
fill: #585A5B;
}
.g54_211{
fill: #460F0E;
}
.g55_211{
fill: #601011;
}
.g56_211{
fill: #F79420;
}
.g57_211{
fill: #BCBEC0;
}
.g58_211{
fill: #A95747;
}
.g59_211{
fill: #9D3032;
}
.g60_211{
fill: #380C0D;
}
.g61_211{
fill: #949799;
}
.g62_211{
fill: #AFB2B4;
}
.g63_211{
fill: #882933;
}
.g64_211{
fill: #3B2314;
}
.g65_211{
fill: #C18C42;
}
.g66_211{
fill: #F3F4F5;
}
.g67_211{
fill: #D1D4D4;
}
.g68_211{
fill: #A81E21;
}
.g69_211{
fill: #A8A4A5;
}
.g70_211{
fill: #9D999A;
}
.g71_211{
fill: #7A181A;
}
.g72_211{
fill: #121011;
}
.g73_211{
fill: #FDD8BD;
}
.g74_211{
fill: #D6AD93;
}
.g75_211{
fill: #0E1010;
}
.g76_211{
fill: #D7232A;
}
.g77_211{
fill: #CA9D7E;
}
.g78_211{
fill: #312D2E;
}
.g79_211{
fill: #FDFCE0;
}
.g80_211{
fill: #919284;
}
.g81_211{
fill: #B3B4A2;
}
.g82_211{
fill: #403126;
}
.g83_211{
fill: #D9867D;
}
.g84_211{
fill: #BE6560;
}
.g85_211{
fill: #C59B6D;
}
.g86_211{
fill: #FFFBD6;
}

.s1_211{
font-size: 12.99px;
font-family: ProximaNova-Semibold_d1j;
fill: #231F20;
}
.s2_211{
font-size: 18.33px;
font-family: ProximaNova-Bold_d1q;
fill: #231F20;
}
.s3_211{
font-size: 19.10px;
font-family: Alegreya-Regular_d1o;
fill: #231F20;
}
.s4_211{
font-size: 19.10px;
font-family: Alegreya-Bold_d1h;
fill: #3986C6;
}
.s5_211{
font-size: 32.08px;
font-family: STKaitiSC-Regular_cof;
fill: #231F20;
}
.s6_211{
font-size: 25.97px;
font-family: ProximaNova-Bold_d1q;
fill: #FFFFFF;
}
.s7_211{
font-size: 25.97px;
font-family: ProximaNova-Bold_d1q;
fill: #231F20;
}
.s8_211{
font-size: 24.44px;
font-family: ProximaNova-Bold_d1q;
fill: #231F20;
}
.s9_211{
font-size: 13.75px;
font-family: ProximaNova-Extrabld_d1l;
fill: #FFFFFF;
}
.s10_211{
font-size: 18.33px;
font-family: ProximaNova-Extrabld_d1l;
fill: #FFFFFF;
}
.s11_211{
font-size: 19.10px;
font-family: ProximaNovaA-Regular_d2n;
fill: #231F20;
}
.s12_211{
font-size: 19.10px;
font-family: SimHei_bos;
fill: #231F20;
}
.s13_211{
font-size: 24.20px;
font-family: DFKaiShu-SB-Estd-BF_d2b;
fill: #22A07D;
}
.s14_211{
font-size: 14.41px;
font-family: ProximaNova-Bold_d2p;
fill: #22A07D;
}
.s15_211{
font-size: 19.10px;
font-family: ProximaNovaA-Regular_d2q;
fill: #231F20;
}
.s16_211{
font-size: 20.88px;
font-family: DFKaiShu-SB-Estd-BF_d2b;
fill: #FEC40E;
}
.s17_211{
font-size: 16.52px;
font-family: Alegreya-Medium_d2u;
fill: #FEC40E;
}
.s18_211{
font-size: 19.10px;
font-family: ProximaNovaA-Regular_d2r;
fill: #231F20;
}
.s19_211{
font-size: 24.85px;
font-family: DFKaiShu-SB-Estd-BF_d2b;
fill: #25408F;
}
.s20_211{
font-size: 14.91px;
font-family: Alegreya-Medium_d2w;
fill: #25408F;
}
.s21_211{
font-size: 23.40px;
font-family: STKaiti-SC-Bold_cqx;
fill: #25408F;
}
.s22_211{
font-size: 15.96px;
font-family: Alegreya-Medium_d2x;
fill: #25408F;
}
.s23_211{
font-size: 19.10px;
font-family: ProximaNovaA-Regular_d2s;
fill: #231F20;
}

]]></style>

</defs>
<path d="M0,0
L0,1196
L921,1196
L921,0 Z " 
fill="#FFFFFF" stroke="none" />
<text 
transform="matrix(0, -1, 1, 0, 54, 1084)"
dx="0,0,0,0,0,0,0,0,0,0,0,0,0,0,0,0,0,0,0" 
class="s1_211"
>Go Far with Chinese</text>

<text 
x="33" 
y="1149" 
dx="0,0,0" 
class="s2_211"
>188</text>

<path d="M50.4,1089.3l0,38.7" class="g1_211" />
<path d="M50.4,1125.4c-1.4,0,-2.5,1.1,-2.5,2.6c0,1.4,1.1,2.6,2.5,2.6c1.5,0,2.6,-1.2,2.6,-2.6c0,-1.5,-1.1,-2.6,-2.6,-2.6Z" class="g2_211" />
<text 
x="109" 
y="159" 
dx="0,-0.2,0,0,0,0,0,0,0,0,0,0,0,0,-0.3,0,0,0,0,0,0,0,0,0,0,0,0,0,0,0,0,0,0,0,0,0,0,0,0,0,0,0,0,0,0,0,0,0,0,0,0,0,0,0,-0.2,0,0,0,0,0,0,0,-0.2,0,0.3,0,0,0,0,0,0,-0.3,0,0,0,0,0,0,0,-0.4,0,0,0,0,0,0,0,0,0,0,-0.3,0,0,0" 
class="s3_211"
>Imagine that your Chinese teacher is building a classroom library and would like to hear your </text>

<text 
x="111" 
y="185" 
dx="0,0,0,0,0,0,0,0,-0.4,-0.4" 
class="s3_211"
>opinions. </text>

<text 
x="111" 
y="218" 
dx="0,0,0,0,0,0,0" 
class="s4_211"
>Step 1:</text>

<text 
x="165" 
y="218" 
dx="0,-0.6,0,0,0,0,0,0,0,0,-0.3,0,0,0,0,0,0,0,0,0,0,0,0,-0.2,0,0,0,0,0,0,0,0,-0.2,0,0,0,0,0,0,0,0,0,0,0,0,-0.2,0,0,0,0,0,0,0,0,0,0,0,0,-0.3,0,0,0,-0.3,-1.3,-0.4" 
class="s3_211"
>Read the comments and ratings from the book reviews that follow. </text>

<text 
x="111" 
y="251" 
dx="0,0,0,0,0,0,0" 
class="s4_211"
>Step 2:</text>

<text 
x="167" 
y="250" 
dx="0,-0.2,0,0,0,0,0,0,-0.4,-0.4,0,0,0,0,0,0,0,0,0,0,0,0,0,0,0,0,0,0,0,0,-0.3,0,0,0,0,0,-0.4,0,0,0,0,0,0,0,-1.5,0,0,0,0,0,-0.4,0,0,0,0,0,0,0,0,0,0,0,0,0,0,0,0,0,0,0,0,0,0,-0.3,0,0,0,0,0,0,-0.3,-1.3,-0.4,0,-0.4,0,-0.3,0" 
class="s3_211"
>In pairs, talk about whether you like or don’t like each of the books shown below. Give </text>

<text 
x="168" 
y="276" 
dx="0,0,-0.3,0,0,-0.2,0,0,0,0,0,0,0,0,-0.4,0,0,-0.3,0,0,0,0,0,-0.4,0,0,0,0,0,0,0,-1.5,0,0,0,0,0,-0.4,0,0,0,0,0,0,0,0,0,0,0,-0.4,0,0,0,0,-0.3,0,0,0,0,0,0,0,0,0,0,-0.4,0,0,0,0,0,0,0,0,0,0,0,0,0,0,0,0,0" 
class="s3_211"
>two reasons why you like or don’t like each book. Do you both like the same books? </text>

<text 
x="166" 
y="302" 
dx="0,-0.8,0,0,0,0,0,0,0,0,0,0,0,0,0,0,0,0,0,0,0,0,0,0,0,0,0,0,0,-0.3,0,0,0,0,0,0,0,0,0,0,0,-0.4,-0.4,0,-0.2,0,0,0,-0.2,0,0,0,-0.2,0,0,0,0,0,0,0,0,0,-0.2,0,0,0,0,0,0,0,-0.3,0,0,0,0,0,0,0,0,0,0,0,0,0" 
class="s3_211"
>Your teacher will ask about your opinions. Be prepared to share both your partner’s </text>

<text 
x="168" 
y="328" 
dx="0,0,0,0,0,-0.3,0,0,0,0,-0.3,0,0" 
class="s3_211"
>and your own.</text>

<text 
x="109" 
y="374" 
dx="0,0,-0.4,0,0,0,0,0" 
class="s3_211"
>Example:</text>

<text 
x="107" 
y="417" 
dx="0,0,0,0,0,0,0,0,0,0,0,0,0,0,0,0,0,0,0,0,0" 
class="s5_211"
>我喜欢这本书。这本书很有意思，而且不太难。</text>

<path d="M129.3,121C119.2,121,111,112.8,111,102.7l0,-20.2l23.1,0c10.1,0,18.3,8.2,18.3,18.3l0,20.2Z" class="g2_211" />
<path d="M116.7,83.2l444.8,0" class="g3_211" />
<path d="M130.4,120.7l431.1,0" class="g3_211" />
<text 
x="115" 
y="109" 
dx="0,0,0" 
class="s6_211"
>2d </text>

<text 
x="157" 
y="109" 
dx="0,0,0,0,0,0,0,0,0,0,0,-0.2,0,0,0,0,0" 
class="s7_211"
>Using the Languag</text>

<text 
x="379" 
y="109" 
dx="0" 
class="s8_211"
>e</text>

<path d="M425.1,112.4c-6,0,-10.9,-4.8,-10.9,-10.8l0,-10.9l131.2,0c6,0,10.8,4.9,10.8,10.9l0,10.8Z" class="g4_211" />
<text 
x="430" 
y="105" 
dx="0,0,0,0,0,0,0,0,0,0,0,0,0" 
class="s9_211"
>µ·´³ºP³ºS¶·¹»</text>

<path d="M189.6,609.5c0,0,-9.2,0,-9.2,-9.1l0,-15.2l16,0c0,0,9.2,0,9.2,9.2l0,15.1l-16,0Z" class="g4_211" />
<text 
x="186" 
y="604" 
dx="0" 
class="s10_211"
>¹</text>

<path d="M276,1006.8c0,0,-9.1,0,-9.1,-9.2l0,-15.1l16,0c0,0,9.2,0,9.2,9.2l0,15.1Z" class="g4_211" />
<text 
x="273" 
y="1001" 
dx="0" 
class="s10_211"
>C</text>

<path d="M276.9,712.2c0,0,-9.2,0,-9.2,-9.2l0,-15.1l16.1,0c0,0,9.1,0,9.1,9.2l0,15.1Z" class="g4_211" />
<text 
x="273" 
y="707" 
dx="0" 
class="s10_211"
>¹</text>

<path d="M659.5,1006.8c0,0,-9.2,0,-9.2,-9.2l0,-15.1l16,0c0,0,9.2,0,9.2,9.2l0,15.1Z" class="g4_211" />
<text 
x="656" 
y="1001" 
dx="0" 
class="s10_211"
>D</text>

<path d="M658.8,712.2c0,0,-9.2,0,-9.2,-9.2l0,-15.1l16.1,0c0,0,9.1,0,9.1,9.2l0,15.1Z" class="g4_211" />
<text 
x="656" 
y="707" 
dx="0" 
class="s10_211"
>B</text>

<g clip-path="url(#c0_211)">
<path d="M919.7,48.9l844.2,0" class="g5_211" />
</g>
<text 
x="248" 
y="488" 
dx="0,-0.6,0,0,0,0,0,0,-0.6,0,0,0,0,0" 
class="s11_211"
>Reader Reviews</text>

<path d="M255.1,503.4l1.6,-4.7l1.5,4.7l5,0l-4,3l1.5,4.7l-4,-2.9l-4.1,2.9l1.5,-4.7l-4,-3Z" class="g6_211" />
<path d="M272.1,503.4l1.6,-4.7l1.5,4.7l5,0l-4,3l1.5,4.7l-4,-2.9l-4.1,2.9l1.6,-4.7l-4.1,-3Z" class="g6_211" />
<path d="M289.1,503.4l1.6,-4.7l1.5,4.7l5,0l-4,3l1.5,4.7l-4,-2.9l-4.1,2.9l1.6,-4.7l-4.1,-3Z" class="g6_211" />
<path d="M306.2,503.4l1.5,-4.7l1.6,4.7l5,0l-4.1,3l1.6,4.7l-4.1,-2.9l-4,2.9l1.5,-4.7l-4,-3Z" class="g6_211" />
<path d="M323.2,503.4l1.5,-4.7l1.6,4.7l5,0l-4.1,3l1.6,4.7l-4.1,-2.9l-4,2.9l1.5,-4.7l-4,-3Z" class="g7_211" />
<text 
x="251" 
y="547" 
dx="0,0" 
class="s12_211"
>简单</text>

<text 
x="373" 
y="547" 
dx="0" 
class="s12_211"
>难</text>

<text 
x="251" 
y="577" 
dx="0,0" 
class="s12_211"
>便宜</text>

<text 
x="373" 
y="577" 
dx="0" 
class="s12_211"
>贵</text>

<text 
x="232" 
y="606" 
dx="0,0,0" 
class="s12_211"
>有意思</text>

<text 
x="373" 
y="606" 
dx="0,0,0,0" 
class="s12_211"
>没有意思</text>

<text 
x="110" 
y="648" 
dx="0,0,0,0,0,0,0,0,0,0,0,0,0,0" 
class="s11_211"
>happy_reader: </text>

<text 
x="240" 
y="648" 
dx="0,0,0,0,0,0,0,0,0,0,0" 
class="s12_211"
>这本书很简单！我和我的</text>

<text 
x="240" 
y="671" 
dx="0,0,0,0,0,0,0,0,0" 
class="s12_211"
>朋友都喜欢这本书。</text>

<path d="M294.4,541.2l36,0" class="g8_211" />
<path d="M300.8,535l0,12.4" class="g9_211" />
<path d="M332,541.2l36,0" class="g8_211" />
<path d="M294.4,600.9l36,0" class="g8_211" />
<path d="M310.6,594.7l0,12.4" class="g9_211" />
<path d="M332,600.9l36,0" class="g8_211" />
<path d="M294.4,571l36,0" class="g8_211" />
<path d="M332,571l36,0" class="g8_211" />
<path d="M348.4,564.8l0,12.4" class="g9_211" />
<path d="M110.8,622.8l109.1,0l0,-145.9l-109.1,0l0,145.9Z" class="g10_211" />
<path d="M219.9,622.8l-109.1,0l0,-145.9l109.1,0Z" class="g11_211" />
<path d="M166.4,615.2C139.2,615.2,117,593.1,117,565.8c0,-5.3,0.8,-10.5,2.3,-15.3c-0.2,1.5,-0.7,2.7,-0.1,3.8c0.7,1.2,1.9,3,1.9,3c0,0,1.2,1.2,0.8,2c-0.3,0.9,-0.5,2.7,-0.5,2.7c0,0,0.2,4.4,-0.2,6.1c-0.3,1.7,-0.6,3.7,-0.5,5.1c0.2,1.3,1,6.2,1.2,7.4c0.2,1.2,0.4,3.1,1.4,3.4c1,0.3,2.8,0.7,3.3,0c0.5,-0.7,0.7,-2,0.7,-2c0,0,1.7,0,1.5,-0.9c-0.1,-0.8,-0.3,-2.7,-0.3,-2.7c0,0,2.5,0.9,2.2,-0.8c-0.3,-1.7,0.2,-4.6,0.2,-4.6c0,0,0.3,-1.8,1.3,-2.5c1,-0.7,2.5,-2,3.4,-2.7c0.8,-0.7,2.9,-1.5,2.9,-2c0,-0.5,-0.2,-2.2,-1.6,-2.1c-1.3,0.2,-2.3,-0.6,-2.3,-0.6c0,0,-0.2,-2.9,-0.2,-4.1c0,-1.2,0.8,-3,0.8,-4.2c0,-1.2,0.6,-3.2,0.6,-3.2c0,0,1.1,-0.5,1.1,0.5c0,1,0.2,3.9,0,4.5c-0.1,0.7,-0.6,2.9,-0.6,2.9c0,0,-0.5,1.9,0.1,2c0.7,0.2,4.8,0.4,4.8,0.4c0,0,3.3,-0.5,4,-0.7c0.7,-0.2,2.5,-0.5,2.2,-1.3C147.1,559,146.9,558,146.9,558c0,0,-2,0.5,-2.4,0c-0.3,-0.5,-1.3,-2.9,-1,-4.1c0.4,-1.1,1.2,-1.6,1.7,-0.6c0.5,1,1.2,3.2,2.4,3.3c1.2,0.2,2,1.4,2.8,2.1c0.9,0.6,3.2,1.8,3.9,2.8c0.7,1.1,2,4.4,2.6,5.3c0.5,0.8,2.3,5.2,2.7,6c0.3,0.9,1.5,1.4,2,0.2c0.5,-1.2,2.7,-4.4,2.7,-4.4c0,0,2.8,-0.6,4.5,-1.2c1.7,-0.5,2.7,0,3.2,1.6c0.6,1.5,0,3.3,0.9,3.3c0.8,0,2.2,0.9,2.2,0.9c0,0,-0.2,3.4,-0.4,4c-0.1,0.7,0.7,2.4,0.7,2.4l0.7,1.7c0,0,-0.7,0.3,-1.4,-0.2c-0.6,-0.5,-0.5,-1,-1.1,-1.5c-0.7,-0.5,-1.7,-0.5,-1.2,0.3c0.5,0.9,1.3,2.6,1.8,2.9c0.5,0.3,1.2,1.4,1.6,1.9c0.3,0.5,1.6,1.3,1.8,0.8c0.2,-0.5,-0.8,-1.8,-0.8,-1.8l-1.2,-1.4c0,0,1.3,0.8,1.5,0c0.2,-0.8,0.5,-2,0,-2.4c-0.5,-0.3,-1.2,-1.1,-1,-2.3c0.2,-1.2,0.7,-2.7,0.7,-2.7c0,0,1,1.3,1.8,2.2c0.9,0.8,2.4,0.5,2.9,0c0.5,-0.5,0.5,-2.6,0.5,-2.6l-1.5,-1.7c0,0,-0.7,-1.1,0,-1.6c0.7,-0.5,1.8,-1,1.8,-1c0,0,-1.1,2.3,-0.3,2.5c0.8,0.1,1.5,-1.5,1.5,-1.5c0,0,1,-0.7,1.5,-0.7c0.5,0,2.9,-1.4,3.4,-1.7c0.5,-0.3,1.9,-1.7,2.2,-2.2c0.3,-0.5,0.7,-2.4,0.5,-2.9c-0.2,-0.5,-1.3,-1.1,-1.3,-1.1c0,0,1.1,-0.9,0.6,-1.4c-0.5,-0.5,-1.1,-1.7,-1.1,-1.7l0.8,-1.2l1,0.2l0,0.8l1.4,-0.1c0,0,1,1,1,1.7c0,0.6,0.5,2.2,0.5,2.2l1.2,-1.6c0,0,-0.7,-1.1,-0.7,-1.6c0,-0.6,0.3,-1.7,0.3,-1.7l1.5,-1.2c0,0,1.4,0.2,1.9,-0.7c0.5,-0.8,2.4,-4.4,2.4,-4.4c0,0,0.5,0.7,0.6,1.7c0.2,1,0.9,0,0.9,-0.7c0,-0.6,-0.7,-3,-0.7,-3c0,0,-1.7,0.3,-2.2,-0.3c-0.5,-0.7,-0.7,-1.7,0,-2.7c0.7,-1.1,2.5,-2.4,2.5,-2.4l2.8,0.2l1.6,-1.9c0,0,1.2,0,1,1c-0.1,1,-0.5,2.9,-0.5,2.9c0,0,0.4,1.8,0.5,2.7c0.2,0.8,1.2,2.3,1.2,1.5c0,-0.8,0.4,-3.4,0.4,-4.2c0,-0.9,-0.2,-2.4,-0.2,-2.4c0,0,0.8,-0.9,1.1,-1.6c3.3,6.8,5.2,14.6,5.2,23.1c0,27.7,-21.3,49.4,-48.4,49.4M149.7,519c0.3,0,0.6,0,0.9,0c0.4,0,0.8,0.1,1.4,0c1.1,-0.1,2.1,-1,3.3,-1.2c0.6,-0.1,2.5,-0.1,3.1,-0.8c2.2,-0.4,4.6,-0.6,7,-0.6c16.8,0,30.9,7.3,39.7,19c-0.3,0.2,-0.5,0.3,-0.8,0.3c-1.7,-0.2,-4.9,0.2,-5.9,0.2c-1,0,-4.8,0.2,-4.8,0.2c0,0,-6.9,-1.1,-7.4,-1.4c-0.5,-0.3,-3.7,-1.3,-4.4,-1.3c-0.6,0,-9.2,0,-10.4,-0.4c-1.2,-0.3,-5.9,-2,-5.9,-2c0,0,-1.6,1.3,-3.2,1.3c-1.7,0,-4.4,-0.3,-4.4,-0.3L157,530.7l1.4,-1.1l3.3,1.4c0,0,-0.3,-1.2,-1,-2.2c-0.6,-1,-1,-3,-1.7,-3c-0.6,0,-4.5,-1.2,-6.4,-1.2c-1.8,0,-4,1.7,-5,1.5c-1,-0.2,-3.4,0,-3.4,0l-1.7,1.5c0,0,1.7,0.9,1.2,1.4c-0.5,0.5,-2.6,2.2,-1,1.7c1.5,-0.6,3,-0.4,3.3,-0.9c0.4,-0.5,1.1,-1.3,1.6,-1.3c0.5,0,3.2,-0.6,3.2,-0.6c0,0,2,-0.3,1.7,0.4c-0.4,0.7,-1.6,0,-2.7,0.7c-1.2,0.6,-1.9,1.3,-1.6,1.8c0.4,0.5,-0.3,1.5,-1.6,1.4c-0.6,-0.1,-1.3,0,-1.8,0.2c-0.8,0.2,-1.4,0.4,-1.8,0.1c-0.7,-0.5,-3,-0.7,-2.9,-1.2c0.2,-0.5,-1,-0.5,-1,-0.5c0,0,-2,-0.3,-2.5,0.2c-0.5,0.5,-1.5,0.2,-2.4,0.5c-0.8,0.3,-0.6,1.5,-1.1,2.2c-0.6,0.7,-1.6,1.3,-1.7,0.7c-0.2,-0.7,0,-0.7,-1,0c-1.1,0.6,-2.9,2.5,-2.2,2.8c0.6,0.4,2.5,-0.3,3,-0.8c0.5,-0.5,2,-0.9,2,-0.9l1.2,0.9c0,0,-0.2,1,-0.3,1.7c-0.2,0.7,0.1,2,-0.4,2.3l-0.5,0.4c0,0,1.5,0,1.7,-1c0.2,-1,0.3,-3.7,0.9,-3.7c0.5,0,0.8,2.1,0.8,2.1c0,0,-0.3,1.2,-0.5,1.7c-0.2,0.5,-1.4,3.1,-1.4,3.1c0,0,1.1,0.6,1.2,0.1c0.2,-0.5,1,-2.2,1,-2.2c0,0,1.9,0,1.4,1.1c-0.5,1,-1.4,1.8,-0.5,2.5c0.8,0.7,3.2,0.5,2.7,1.5c-0.5,1,-2.7,3.1,-3.2,3.2c-0.5,0.2,-3.4,-2.7,-4.2,-3.2c-0.9,-0.5,-2.6,-1.7,-2.6,-2.4c0,-0.6,1.2,-2.8,0.7,-3.2c-0.5,-0.3,-3,-1.5,-3.9,-1.3c-0.8,0.2,-1.3,0.8,-2.2,1.5c-0.8,0.7,-1.8,1.9,-2.3,2.7c-0.4,0.5,-1.5,2.3,-2.4,4c5.2,-13.4,15.8,-23.7,29.3,-28.3m15.7,-4.4c-28.2,0,-50.2,22.5,-50.2,51.2c0,28.3,23,51.3,51.2,51.3c28.2,0,50.2,-22.5,50.2,-51.3c0,-29.7,-21.5,-51.2,-51.2,-51.2Z" class="g12_211" />
<path d="M201.6,556.3l-1,1.9c0,0,-0.2,1.1,-0.2,1.7c0,0.5,-0.7,1.1,-1,1.6c-0.3,0.5,-2.2,0.9,-3.1,1.2c-0.8,0.4,-1,2.7,-1,2.7l1.9,-1.2c0,0,2,-0.6,2.9,-1c0.8,-0.3,1,-1.5,1,-1.5c0,0,0.3,-1.7,0.3,-2.4c0,-0.6,0.5,-1.1,0.5,-1.1c0,0,0.9,-0.4,1,-1.2c0.2,-0.9,-1.3,-0.7,-1.3,-0.7Z" class="g12_211" />
<path d="M134.2,577.2c-0.8,-0.1,-2.2,1.7,-2.2,1.7c0,0,0.5,2.4,0.4,3.1c-0.2,0.6,-0.7,2.2,-0.7,2.2c0,0,1.5,0.6,2.4,0.3c0.8,-0.3,0.5,-1.5,0.8,-2.2c0.3,-0.7,0.5,-2.7,0.5,-3.4c0,-0.6,-0.3,-1.5,-1.2,-1.7Z" class="g12_211" />
<path d="M180.6,585.3c0.7,-0.1,1.6,0.4,2.4,0.7c0.9,0.4,0.9,-0.7,1.2,-1.3c0.3,-0.7,1.3,-1,1.5,-1.7c0.2,-0.7,0.5,-2,0.5,-3.1c0,-1,-0.8,-0.1,-1.2,0.4c-0.3,0.5,-1.1,0.5,-1.3,1c-0.2,0.5,-0.3,1.2,-0.7,1.7c-0.3,0.5,-2.9,-0.2,-2.9,-0.2l-0.3,1.4c0,0,0.2,1.3,0.8,1.1Z" class="g12_211" />
<path d="M184,589.9c1,0.2,1.7,0.2,1.5,-0.5c-0.1,-0.7,-1.3,-0.7,-1.3,-0.7L182.5,588c0,0,-1.3,-0.5,-1.9,-0.8c-0.5,-0.3,-2.8,0,-2.8,0c0,0,1.3,1.2,1.8,1.3c0.5,0.2,3.4,1.2,4.4,1.4Z" class="g12_211" />
<path d="M197,587c-0.7,-0.1,-2,-0.5,-2,-0.5l-0.8,-0.1l-1.4,-0.9c0,0,-0.2,1.9,0.3,2c0.5,0.2,1.9,1,1.9,1l-0.2,1.4c0,0,1.5,0.5,2.1,0.5l1.3,0l1.4,0.3c0,0,-0.2,-1.3,-0.4,-1.8c-0.1,-0.5,-1.5,-1.7,-2.2,-1.9Z" class="g12_211" />
<path d="M196.5,594.6c0.2,-0.7,-0.2,-1.7,-0.7,-1.7c-0.5,0,-1.5,1.7,-1.5,1.7c0,0,-1.2,-0.1,-1.8,-1c-0.7,-0.8,0.3,-1,0.1,-1.5c-0.1,-0.5,-2.2,0,-2.2,0l-0.6,0.8c0,0,-1.2,-0.1,-1.7,-0.3c-0.5,-0.2,-1.7,0.3,-1.7,0.3c0,0,-2.2,2.4,-3,2.6c-0.9,0.1,-3.8,0.1,-4.8,0.6c-1,0.5,-1.3,2.4,-1.2,3.6c0.2,1.2,-0.3,2.5,0,2.9c0.4,0.3,2.4,0.1,3.1,0c0.7,-0.2,4.5,-1.2,5,-1.1c0.5,0.2,1.6,0.9,1.9,1.7c0.3,0.9,1.5,-0.8,1.5,-0.8c0,0,0,1.5,0.5,2.2c0.3,0.4,0.8,0.1,1.4,-0.1c0.4,-0.2,0.8,-0.3,1.2,-0.3c0.8,0.2,1.5,-0.6,1.5,-0.6c0,0,2.2,-2.7,3.5,-4.1c1.4,-1.3,0,-2,-0.3,-2.7c-0.4,-0.7,-0.4,-1.5,-0.2,-2.2Z" class="g12_211" />
<path d="M189.3,607.4c0.1,0.1,0.3,0,0.5,0.1l0.8,-0.6c0.2,-0.1,0.2,-0.2,0.5,-0.3c-0.2,-1.6,-1.6,0.1,-1.8,0.8Z" class="g12_211" />
<path d="M136.2,528.3c-0.3,0.5,-1.8,1.8,-0.3,2l-0.1,0.2c1.1,0,3.6,-2.7,3.8,-3.9c-1,-0.2,-1.5,0.7,-2.3,1c-0.8,-1.3,-2,-0.2,-2.9,0.4c0.1,1,1,0.3,1.8,0.3Z" class="g12_211" />
<path d="M157.5,549.3l1.2,0l0,-1.7Z" class="g13_211" />
<path d="M163.2,549.3l-1.2,0l0,-1.7Z" class="g13_211" />
<path d="M162.1,544.7l-3.5,0l0,19l3.5,0l0,-19Z" class="g13_211" />
<path d="M158.6,547.4l3.5,0l0,-1.5l-3.5,0l0,1.5Z" class="g14_211" />
<path d="M162.9,546.9l-5.1,0l0,-2.2l5.1,0l0,2.2Z" class="g13_211" />
<path d="M126.7,549.3l1.3,0l0,-1.7Z" class="g13_211" />
<path d="M132.5,549.3l-1.2,0l0,-1.7Z" class="g13_211" />
<path d="M131.4,544.7l-3.5,0l0,55.5l3.5,0l0,-55.5Z" class="g13_211" />
<path d="M132.2,569.7l-5.1,0l0,30.5l5.1,0l0,-30.5Z" class="g13_211" />
<path d="M127.9,547.5l3.5,0l0,-1.6l-3.5,0l0,1.6Z" class="g14_211" />
<path d="M132.2,546.9l-5.1,0l0,-2.2l5.1,0l0,2.2Z" class="g13_211" />
<path d="M131.8,569.3l0,-0.3c0,-0.6,-0.5,-1.1,-1.1,-1.1l-2.2,0c-0.6,0,-1.1,0.5,-1.1,1.1l0,0.3l-0.3,0l0,1.5l5.1,0l0,-1.5Z" class="g15_211" />
<path d="M124.1,552.4l41.7,0l0.4,-3.3l-42.5,0Z" class="g13_211" />
<path d="M166,550.4l0.2,-0.9l-42.4,0l0.1,0.9Z" class="g14_211" />
<path d="M122.6,549.9l44.8,0l0,-1l-44.8,0l0,1Z" class="g13_211" />
<path d="M124.1,544.7l41.7,0l0.4,-3.2l-42.5,0Z" class="g13_211" />
<path d="M122.6,542.3l44.8,0l0,-1l-44.8,0l0,1Z" class="g13_211" />
<path d="M165.9,543.7l0.3,-2.2l-42.5,0l0.3,2.2c13.9,0.7,27.9,0.7,41.9,0Z" class="g16_211" />
<path d="M147.6,552.1l-5.2,0l0,-7.9l5.2,0l0,7.9Z" class="g13_211" />
<path d="M143,544.5l3.9,0l0,6.7l-3.9,0l0,-6.7Z" class="g15_211" />
<path d="M172.9,542.2c-18.6,1.2,-37.2,1.2,-55.9,0c0.1,-0.9,0.2,-1.8,0.2,-2.7c18.5,1.2,37.1,1.2,55.6,0c0,0.9,0.1,1.8,0.1,2.7Z" class="g17_211" />
<path d="M172.9,541.6c0,-0.7,-0.1,-1.4,-0.1,-2.1c-18.5,1.2,-37.1,1.2,-55.6,0c0,0.7,-0.1,1.4,-0.1,2.1c18.6,1.2,37.2,1.2,55.8,0Z" class="g18_211" />
<path d="M173.7,541.1c-19.1,1.2,-38.3,1.2,-57.5,0c0.1,-1,0.2,-1.9,0.2,-2.8c19,1.2,38.1,1.2,57.2,0c0,0.9,0.1,1.8,0.1,2.8Z" class="g17_211" />
<path d="M116.4,538.6c0,0.4,0,0.7,-0.1,1c19.1,1.2,38.3,1.2,57.3,0c0,-0.3,0,-0.6,0,-1c-19.1,1.1,-38.2,1.1,-57.2,0Z" class="g18_211" />
<path d="M175.3,539c-20.2,1.3,-40.4,1.3,-60.6,0c-0.1,-0.5,-0.1,-0.9,0.2,-1c20,1.2,40.2,1.2,60.2,0c0.3,0.2,0.2,0,0.2,1Z" class="g19_211" />
<path d="M147.3,524.6l-0.2,1l-0.6,4l-1.1,0l-0.8,-4l-0.2,-1Z" class="g20_211" />
<path d="M155.4,546.3l1.2,5.9l-1.5,-1.6l-0.6,-3.2l-0.1,0.1l-0.3,-0.2l0,3.2l-3.7,0l0,-5.6l-0.9,2.1l-0.6,-0.9l-0.2,-0.3l-0.3,-0.3l-0.1,-0.2L148,544.9l0.5,-1.1l0.3,-0.5l0.4,-0.9l-0.3,-0.5L145,541.3l3.9,-0.6l0,-0.4l-3.2,-1.7l3.8,0.7l0.2,-0.3l-2,-3.8l3.2,3.1c0.3,-0.2,0.7,-0.3,1.1,-0.3l0.6,-3.8l0.6,3.8c0.2,0,0.4,0.1,0.6,0.2l3.1,-3l-1.9,3.6c0.1,0.1,0.2,0.3,0.4,0.4l3.5,-0.6l-3.1,1.6c0.1,0.2,0.1,0.3,0.1,0.5l3.7,0.6l-3.8,0.6l-0.4,1.1l0.5,2.8Z" class="g20_211" />
<path d="M150.2,544l0.3,0.9l1.8,0.9l1.5,-0.8l0,0.3l-0.8,2.6l-1.9,0.6l-0.9,0L149.4,547l0.5,-2.9Z" class="g21_211" />
<path d="M155.7,541l-0.2,1.3c0,-0.1,0,-0.3,-0.1,-0.4c0,-0.4,-0.1,-0.7,-0.3,-1l-0.2,-0.2c-0.1,-0.2,-0.2,-0.3,-0.4,-0.4l-0.1,-0.2c-0.2,-0.1,-0.3,-0.2,-0.5,-0.3l-0.2,0c-0.2,-0.1,-0.3,-0.2,-0.5,-0.2l-0.3,0l-0.3,-0.1l-0.3,0.1l-0.3,0c-0.2,0,-0.4,0,-0.5,0.1l-0.3,0.1c-0.1,0,-0.3,0.1,-0.4,0.2l-0.2,0.1c-0.1,0.1,-0.3,0.2,-0.4,0.3l-0.1,0.2c-0.2,0.1,-0.3,0.3,-0.4,0.4l-0.1,0.2c-0.1,0.3,-0.2,0.5,-0.3,0.7c0,0.2,-0.1,0.4,-0.1,0.4l0,-1.3c0,0,0.4,-2.6,3.4,-2.6c1.7,0,3,1.1,3.1,2.6Z" class="g22_211" />
<path d="M152.9,538.9l0,0.7l-0.3,-0.1l-0.3,0.1l0,-0.7c0,-0.2,0.1,-0.3,0.3,-0.3c0.1,0,0.3,0.1,0.3,0.3Z" class="g21_211" />
<path d="M152,538.9l0,0.7c-0.2,0,-0.4,0,-0.5,0.1l0,-0.8c0,-0.1,0.1,-0.2,0.2,-0.2l0.3,0.2Z" class="g21_211" />
<path d="M151.2,539.1l0,0.7c-0.1,0,-0.3,0.1,-0.4,0.2l0,-0.9l0.2,-0.2l0.2,0.2Z" class="g21_211" />
<path d="M150.6,539.5l0,0.6c-0.1,0.1,-0.3,0.2,-0.4,0.3l0,-0.9l0.2,-0.2l0.2,0.2Z" class="g21_211" />
<path d="M150.1,540.1l0,0.5c-0.2,0.1,-0.3,0.3,-0.4,0.4l0,-0.9l0.2,-0.2l0.2,0.2Z" class="g21_211" />
<path d="M149.6,540.8l0,0.4c-0.1,0.3,-0.2,0.5,-0.3,0.7l0,-1.1l0.2,-0.2l0.1,0.2Z" class="g21_211" />
<path d="M153.7,538.9l0,0.9c-0.2,-0.1,-0.3,-0.2,-0.5,-0.2l0,-0.7c0,-0.1,0.1,-0.2,0.2,-0.2l0.3,0.2Z" class="g21_211" />
<path d="M154.4,539.2l0,0.9c-0.2,-0.1,-0.3,-0.2,-0.5,-0.3l0,-0.6l0.2,-0.2l0.3,0.2Z" class="g21_211" />
<path d="M154.9,539.7l0,1c-0.1,-0.2,-0.2,-0.3,-0.4,-0.4l0,-0.6l0.2,-0.2l0.2,0.2Z" class="g21_211" />
<path d="M155.4,540.6l0,1.3c0,-0.4,-0.1,-0.7,-0.3,-1l0,-0.3l0.2,-0.2l0.1,0.2Z" class="g21_211" />
<path d="M145.6,541.3l3.2,-0.5l0,1Z" class="g23_211" />
<path d="M146.3,538.8l3,0.5l-0.4,0.9Z" class="g23_211" />
<path d="M148.1,535.7l2.6,2.5l-0.9,0.7Z" class="g23_211" />
<path d="M152.1,537.9l0.5,-3.1l0.5,3.1Z" class="g23_211" />
<path d="M154,538.1l2.6,-2.4l-1.7,3Z" class="g23_211" />
<path d="M155.5,539.3l2.8,-0.5l-2.4,1.3Z" class="g23_211" />
<path d="M156,540.8l3,0.5l-3.1,0.5Z" class="g23_211" />
<path d="M151.6,544.3l-0.6,-1l0.8,-0.5Zm1.6,0.7c0,0,-0.3,0.5,-1.3,0l0.4,-0.6c0,0,0.6,0.1,0.8,-0.1c0,0,-0.2,-0.1,-0.5,-0.1c0,0,0,-0.4,0.6,-0.1l0,-0.1c-0.1,-0.1,-0.2,-0.3,-0.5,-0.3l0.4,-0.5l-0.6,0.1l-0.4,-0.1l0.1,-1.6L152,541.4l-0.8,0.1l0,-0.1l0.9,-0.5l0.2,-0.4c0,0,-2.3,0.6,-2.8,2.3c0,0,-0.3,0.3,-0.2,0.7c0.2,0.4,0.4,1,0.9,0.6l0.2,0.8l1.9,1l1.5,-0.9Z" class="g23_211" />
<path d="M152.3,540.5l0.3,0.4l1.6,0.7l0,0.4l-0.8,-0.6l-0.7,0l0,0.2l0.1,0.6l0.3,0.3l1,-0.1l0.5,0.4l0,1.1l0.4,0.2l-0.1,0.3l-0.4,-0.2l-0.1,0.6L154,545l0.3,0.2l-0.2,2.1l0.6,1.1l0.9,0.2l-0.9,-3.3l0.3,0l0,-0.7l0.2,-0.1l0.1,-0.4l-0.2,-1.2l-0.4,-0.7l0.1,-0.5c0,0,-1.6,-1.3,-2.5,-1.2Z" class="g23_211" />
<path d="M149.7,543.1l0.1,0.4l-0.1,0.2c0,0,-0.2,-0.4,0,-0.6Z" class="g21_211" />
<path d="M151.7,541.8l0.2,0.1l-0.1,0.5c0,0,-0.3,-0.5,-0.6,-0.4Z" class="g21_211" />
<path d="M152.9,541.8l0,0.4l0.2,0.1L153,542.1l0.2,-0.3l0.2,0l-0.1,-0.1l-0.4,0Z" class="g21_211" />
<path d="M154.8,543.2l-0.1,0.5l0.3,-0.2Z" class="g21_211" />
<path d="M152.2,543.5l0.3,0.1l0.3,-0.2Z" class="g21_211" />
<path d="M155,544.6l0.5,1.3l-0.2,0.2l-0.4,-1.5Z" class="g23_211" />
<path d="M155.1,544.3l-0.2,0.3l-0.2,0l-0.2,-0.1l-0.1,0.3l-0.3,2.5l0.4,0.9l0.2,-3.1l0.3,-0.3Z" class="g21_211" />
<path d="M149.5,543.9l-0.6,1.9l0.3,-0.1l0.7,-1.6Z" class="g23_211" />
<path d="M149.4,543.4l-0.4,1.1l-0.2,-0.1l0.3,-1.5l0.4,0.2Z" class="g23_211" />
<path d="M154.4,580.3l6,0l-0.3,-2.2l1.2,-0.8l-1,-10.8l5.9,-8.6l-4.9,-3.4l-2,2.5l-1.5,-1.3l-0.1,-3.9L148,544.2l-1,-12.7l0.9,-1.9l-0.6,-1.4l0,-1.2l-2.9,0l0,1.2l-0.2,1l0.6,2.3l-0.1,11.3l-1.9,4.1c0,0,2.4,10.7,2.5,11.1c0.2,0.3,-1.6,4.1,-1.6,4.1l0,2.5l2,0l-1.3,4.4l0.9,6.7L140,592.2l0,2.5l6.5,0l0,-0.5l7.9,0l0,-13.9Z" class="g20_211" />
<path d="M163.7,560.4l2.2,1.6l0,0.3l-0.2,0.4l-0.3,0L165,562.5l-1.9,1.8l-2,0.2Z" class="g20_211" />
<path d="M147.3,524.6l-0.2,1l-2.5,0l-0.2,-1Z" class="g23_211" />
<path d="M146.6,523.8l-1.6,0l0,-1.7l1.6,0l0,1.7Z" class="g20_211" />
<path d="M145.4,521.8c0,0,-2.2,-1,0.1,-3.1c0,0,1,-0.7,0.9,-2.3c0,0,2.8,5.9,-1,5.4Z" class="g20_211" />
<path d="M145.4,518.4c0,0,0.6,-0.3,0.4,-0.8c0,0,-0.2,-0.2,-0.1,-0.8c0,0,-1.4,1,-0.3,1.6Z" class="g20_211" />
<path d="M144.5,543.9l-0.2,3.6l1.4,1.1l-1.8,0.3L143.2,547Z" class="g23_211" />
<path d="M144.5,550.6l1.5,6.6l3.8,-2.5l3.8,-4.7l-4,3.8c0,0,-2.4,1,-5.1,-3.2Z" class="g23_211" />
<path d="M145.2,547.5l1.1,1l1.6,-2.6c0,0,-1.6,2,-2.7,1.6Z" class="g23_211" />
<path d="M148.9,546.6c0,0,-0.2,3.2,-2.7,5.2c0,0,2.4,-2.9,2.3,-5.6Z" class="g23_211" />
<path d="M147.8,547.5c0,0,-0.5,3,-2,3.8l-1.7,-1.8c0,0,2.6,0.8,3.7,-2Z" class="g23_211" />
<path d="M148.2,550.1c0,0,0.3,2.2,1.1,3.4c0,0,-1.6,0,-2.1,-0.7Z" class="g23_211" />
<path d="M144.5,562.4l-0.2,1.6l1.4,0Z" class="g23_211" />
<path d="M145,561.3l1.3,2.2l7,-11.9l-5.7,7.1Z" class="g23_211" />
<path d="M145.1,560.2l3.1,-2.8l-2.5,1.4Z" class="g23_211" />
<path d="M159.2,558.2l-0.2,1.3l-0.7,0.5l1.5,5.5l1,-9.5Z" class="g23_211" />
<path d="M157.8,556.5l1,0.9l-0.8,1.5Z" class="g23_211" />
<path d="M154.9,560.6l2.1,-0.8l0.1,1.5l1.7,3.3l-0.5,2.2L158,564.2l-1.5,-2.6l-1.4,-0.4l-0.9,0.9Z" class="g23_211" />
<path d="M162.9,560.6l0.4,0.6l-0.3,0.3l-0.8,-0.3l-0.8,0.3l1.1,-1.6Z" class="g23_211" />
<path d="M161.4,562.1l0.7,0l0.2,0.3Z" class="g23_211" />
<path d="M160.8,562.8l1.2,0.6l0.4,0.2l0.7,-0.3L163,562.7l0.9,-0.3l0.5,-0.4l0.4,0.3L163,564l-1.2,0.1l-0.6,-0.7l-0.6,0Z" class="g23_211" />
<path d="M165.6,558.1l-1.7,2.5l-0.2,-0.2L163,559.5Z" class="g23_211" />
<path d="M161.8,563.8l-1.6,2.3l-0.4,-0.6l1.6,-2.1Z" class="g23_211" />
<path d="M159.1,566.3l1.6,10.3l-0.6,0.7Z" class="g23_211" />
<path d="M159.8,580.3l-1.6,-13l-1,-3.7l2.1,16.7Z" class="g23_211" />
<path d="M145.6,574.3l0.7,-6l6.5,-14.5l-6.5,11l-1.2,4.3Z" class="g23_211" />
<path d="M141.2,591.7l8.1,-5.9l1.3,-8.1l2.2,-0.8l1.5,-14.1L151.9,576l-2.2,0.9l-1.7,8.2l-6.7,5.5Z" class="g23_211" />
<path d="M145.1,545.5l1.1,1l-1.2,0.3L144.8,546Z" class="g23_211" />
<path d="M146.7,528.8l0.5,0.9l-0.6,0.8Z" class="g23_211" />
<path d="M146,528.9l-0.8,0.1l-0.4,0.2l0.2,1.3l0.2,-1.1l0.9,-0.2l0.3,-0.7Z" class="g23_211" />
<path d="M146.3,527.6l0,0.8l-0.7,-0.2l-0.8,0.3l0.3,-0.4l0.7,-0.2Z" class="g23_211" />
<path d="M146.4,531l-0.2,0.6l-1,0l0,1.9l1.4,-1.8Z" class="g23_211" />
<path d="M147.9,525l-4.1,0l0,-1.8l4.1,0l0,1.8Z" class="g20_211" />
<path d="M147.9,524.6l-4.1,0l0,-0.8l4.1,0l0,0.8Z" class="g23_211" />
<path d="M148.2,523.5l-4.8,0l0,0.7l4.8,0l0,-0.7Z" class="g20_211" />
<path d="M145.8,554.2l0.2,1.2l0.8,-0.1l-0.6,0.6l0.1,0.3l3,-1.5l-1.7,0.3l-0.8,-0.5L145.5,553Z" class="g21_211" />
<path d="M154.4,580.3l1.4,0l0.2,-3.1l1.1,1l1.1,-0.7l-0.5,-4.2l-4.2,4.6l-0.8,6.1l-1.9,3.9l3.6,2.5Z" class="g23_211" />
<path d="M146.6,575.3l1.2,3l-2.7,6.9l2,-7.3Z" class="g23_211" />
<path d="M190,537.8c0.1,-0.4,0.2,-0.7,0.5,-1c0.1,-0.1,0.2,-0.2,0.2,-0.4c0,-0.2,-0.3,-0.3,-0.5,-0.2c-0.7,0,-1.3,0.6,-1.9,1.1c-0.6,0.5,-1.3,1,-2,0.9c-0.3,0,-0.6,-0.2,-0.6,-0.5c0,-0.3,0.4,-0.4,0.8,-0.6c0.8,-0.2,1.4,-1.1,1.4,-2c-0.4,0.5,-1,0.7,-1.7,0.8c-0.6,0,-1.3,-0.1,-1.9,0.1c-0.5,0,-1,0.3,-1.3,0.7c-0.4,0.6,-0.1,0.8,0.4,1.2c1.1,0.7,2.3,1.2,3.5,1.6c0.6,0.2,1.7,0.9,2.2,0.8c0.6,-0.2,0.8,-1.2,0.8,-1.7c0,-0.2,0.1,-0.5,0.1,-0.8Z" class="g24_211" />
<path d="M165.8,531.9c-2.1,0.1,-3,0.1,-3.8,-0.6c0,0,0.1,1.4,3.5,1.5c0,0,1.6,0.3,1.2,1.3c0,0,1.3,0.6,2.3,-0.2c0,0,-1.2,-2.2,-3.2,-2Z" class="g25_211" />
<path d="M164.9,533.1l-0.3,-0.6c-0.2,0.4,-0.2,1.5,-0.2,1.5l5.1,1.3l0.1,-1.6l-4.7,-0.6Z" class="g10_211" />
<path d="M165.4,530.3c0,0,-0.6,0.8,-0.5,1.6c0,0,0.3,-0.3,0.4,-0.3c0.2,0,4.5,1.4,4.5,1.4l0,-1.2Z" class="g10_211" />
<path d="M172.4,530.2c0,0,-1,-1.1,-2.4,-1.3c-1,-0.2,-1.5,0,-1.8,-0.7c0,0,-0.3,-0.7,-1.2,-0.7c-0.9,0,-1.1,0.5,-1.1,0.5c0,0,-0.5,0.9,0.6,0.8c0,0,-0.1,0.2,-0.3,0.2c-0.2,0,-1,-0.2,-1.3,0.1c-0.2,0.2,-0.7,0,-0.9,0.7c0,0.2,0,0.4,0,0.8c0,0,0.4,-0.6,0.7,-0.4c0.6,0.2,0.7,0.6,1.1,1c0.5,0.5,1.3,0.7,2,0.9c0.5,0,1,0.1,1.3,0.4c0.4,0.3,0.6,0.9,0.3,1.2c-0.2,0.2,-0.5,0.3,-0.7,0.3c-0.2,0,-0.4,0,-0.5,-0.1c-0.7,0,-1.3,-0.3,-2,-0.4c-0.7,-0.1,-1.5,0,-2.1,0.4c-0.6,0.4,-0.9,1.2,-0.7,1.8c0.1,0.5,0.3,0.9,0.7,1.2c0.3,0.2,0.8,0.5,1.1,0.6c0,0,-0.6,-2.2,0.6,-2.1c1.1,0.1,3.4,0.9,4.7,0.2c1.3,-0.8,2.4,-2.7,2.3,-3.6c-0.1,-1,-0.4,-1.8,-0.4,-1.8Z" class="g26_211" />
<path d="M166,528.8c-0.7,-0.5,-1.7,-0.7,-2.6,-0.5c-0.6,0.1,-1.2,0.4,-1.8,0.4c-1,0,-1.9,-0.9,-2.1,-1.9c-0.1,-0.7,0.2,-1.4,0.6,-1.9c0.2,-0.2,1.6,-0.8,1.5,-1l-0.2,-0.1c-1.4,0.4,-2.7,1.4,-2.5,3.1c0,0.2,0.1,0.4,0.1,0.5c0.4,1.1,1.5,2,2.7,2c0.8,0,1.5,-0.3,2.3,-0.3c0.8,0,1.5,0.4,2.1,0.9l0.2,0.2c0.1,0.2,0.3,0.4,0.5,0.3c0.2,-0.1,0.3,-0.1,0.3,-0.2c0.4,-0.5,-0.8,-1.3,-1.1,-1.5Z" class="g24_211" />
<path d="M189,539.7c0,0,-2.7,-0.9,-4.5,-1.8c-1.9,-0.9,-4.6,-2.7,-7.9,-6l-3.7,6.2c0,0,0.9,1.2,2.5,2.7c0.2,0.1,0.3,0.2,0.4,0.3c0.7,0.6,1.4,1.2,2.2,1.7c0.7,0.5,1.6,1,2.5,1.4l0.1,0c1,0.5,2,0.8,3.1,1c0,0,2.8,2.2,4.1,0.7c1.2,-1.6,3.9,-5.1,1.2,-6.2Z" class="g27_211" />
<path d="M174.7,539.6c0.5,0.5,1.1,1,1.7,1.5c0.7,-0.4,1.2,-1.1,1.5,-1.5c-0.7,-0.5,-1.3,-1.1,-1.8,-1.5c-0.3,0.4,-0.7,1,-1.4,1.5Z" class="g28_211" />
<path d="M177.1,541.7c0.6,0.5,1.3,0.9,2.1,1.4c0.7,-0.4,1.2,-1,1.6,-1.4c-0.9,-0.5,-1.6,-1,-2.3,-1.6c-0.3,0.4,-0.8,1,-1.4,1.6Z" class="g28_211" />
<path d="M184.8,543.5c-0.2,0.4,-0.6,0.9,-1.2,1.3l0.2,0.1c0.1,0,1.4,0.4,2.5,-1l0.1,0l-0.1,-0.1c-0.5,-0.1,-1,-0.2,-1.5,-0.3Z" class="g28_211" />
<path d="M182.6,542.6c-0.4,-0.2,-0.8,-0.3,-1.2,-0.5c-0.3,0.4,-0.7,1,-1.4,1.4c0.2,0.1,0.4,0.2,0.6,0.3c0.7,0.3,1.4,0.6,2.1,0.8c0.6,-0.4,1.1,-1,1.4,-1.4c-0.5,-0.2,-1,-0.4,-1.5,-0.6Z" class="g28_211" />
<path d="M173.4,538c0.1,0.2,0.4,0.6,0.8,1c0.7,-0.5,1.1,-1.1,1.4,-1.5c-0.5,-0.5,-0.9,-1,-1.1,-1.3l-1.1,1.8Z" class="g28_211" />
<g clip-path="url(#c1_211)">
<path d="M183.5,537.9l1,0l0,-0.5l-1,0l0,0.5Z" class="g29_211" />
</g>
<path d="M175.8,541.1c0.2,0.3,0.4,0.6,0.7,0.9c0.3,0.3,0.9,0.5,1.5,0.8c-0.8,-0.5,-1.5,-1.1,-2.2,-1.7m4.7,3.1c0,0.1,0.1,0.2,0.1,0.2l0,-0.2l-0.1,0Z" class="g30_211" />
<path d="M183.5,537.4c-0.4,0.3,-1,0.5,-1.9,0.5c-0.6,0,-1.4,-0.1,-2.4,-0.5c0,0,0,0.1,0,0.3c0.1,0.2,0.2,0.5,0.5,0.9c-0.1,-0.2,-0.1,-0.3,-0.1,-0.3c1,0.4,1.8,0.5,2.5,0.5c1.2,0,1.9,-0.5,2.4,-0.9c-0.3,-0.2,-0.6,-0.3,-1,-0.5m-5,2.4c0,0,-0.1,0.2,-0.1,0.4c0,0,0,-0.1,0.1,-0.1c0.5,0.4,1.1,0.9,1.8,1.3c0.3,0.1,0.7,0.1,1,0.1c0.9,0,1.5,-0.5,1.8,-0.7c0.3,-0.2,0.5,-0.2,0.8,-0.2c0.3,0,0.5,0,0.7,0.1l0,-0.2c-0.3,-0.4,-0.7,-0.5,-1.1,-0.5c-0.3,0,-0.6,0.1,-0.6,0.1c-0.3,0.1,-0.5,0.1,-0.7,0.1c-0.4,0.2,-0.8,0.4,-1.4,0.4c-0.6,0,-1.3,-0.2,-2.3,-0.8m-3.5,0c0,0.2,0,0.4,0.1,0.7c0.1,0.1,0.2,0.2,0.3,0.3c0,-0.2,0,-0.3,0,-0.3c0,0.1,0.2,0.3,0.4,0.6c0.7,0.6,1.4,1.2,2.2,1.7c0.7,0.3,1.4,0.5,1.7,0.7c0.4,0.1,0.6,0.4,0.8,0.7l0.1,0c0.1,-0.1,0.1,-0.2,0.1,-0.3c0,-0.1,0,-0.1,-0.1,-0.1c-0.2,-0.1,-0.4,-0.2,-0.6,-0.3c0.1,0,0.1,0,0.1,-0.1c0,-0.1,-0.1,-0.4,-0.4,-0.6c-0.1,0.1,-0.3,0.2,-0.5,0.3c-0.8,-0.5,-1.5,-0.9,-2.1,-1.4c0,-0.1,0,-0.1,0,-0.1c-0.4,-0.1,-0.8,-0.4,-1,-0.6c-0.3,-0.2,-0.5,-0.5,-0.7,-0.8c-0.1,-0.1,-0.3,-0.2,-0.4,-0.4m5.3,3c0,0.2,0,0.4,-0.1,0.6c0.1,-0.1,0.2,-0.2,0.3,-0.3c0,-0.1,-0.1,-0.2,-0.2,-0.3Z" class="g31_211" />
<path d="M175,539.6l0,0.1c0,0,0,0.1,0,0.1c0.1,0.2,0.3,0.3,0.4,0.4c-0.2,-0.2,-0.3,-0.4,-0.4,-0.5c0,-0.1,0,-0.1,0,-0.1Z" class="g32_211" />
<path d="M178.5,540.1c-0.1,0,-0.1,0.1,-0.1,0.1c0,0.2,0,0.4,0.2,0.6c0.1,0.1,0.1,0.2,0.2,0.3c0.1,-0.2,0.1,-0.4,0.1,-0.4c0.5,0.3,1,0.5,1.4,0.7c-0.7,-0.4,-1.3,-0.9,-1.8,-1.3m-1.4,1.5l0,0.1c0.6,0.5,1.3,0.9,2.1,1.4c0.2,-0.1,0.4,-0.2,0.5,-0.3c-0.1,-0.1,-0.2,-0.2,-0.4,-0.3c-0.4,-0.1,-1.4,-0.4,-2.2,-0.9Z" class="g32_211" />
<path d="M180.5,543.1c-0.1,0.1,-0.2,0.2,-0.3,0.3c0,0,0,0.1,0,0.1c0,0,-0.1,0,-0.1,-0.1c0,0.1,0,0.1,-0.1,0.1c0.2,0.1,0.4,0.2,0.6,0.3c0.1,0,0.1,0,0.1,0.1c0.1,-0.5,-0.1,-0.7,-0.1,-0.7c0,0,0,-0.1,-0.1,-0.1Z" class="g32_211" />
<path d="M186.9,535.2c0.1,-2.4,-1.6,-2.8,-1.6,-2.8c1.3,-0.1,1.4,-2.1,1.4,-2.1c-0.9,1.3,-2.9,0.6,-2.9,0.6c2.5,-1.2,1.2,-2.9,1.2,-2.9c-0.7,2.1,-2.6,2.3,-4.6,1.7c-2,-0.7,-3.3,0.1,-3.3,0.1c-1.7,0.3,-3.8,2.5,-4.2,3.6c-0.4,1.1,-3.2,0.8,-4.1,1.3c-0.9,0.6,-1.2,1.9,-0.9,3.2c0.3,1.2,-0.1,2.3,0.2,3.2c0.3,1,1,1.4,1,1.4c-0.4,-0.5,-0.3,-0.9,-0.3,-1.6c-0.1,-0.7,0.3,-1.1,0.4,-1.7c0.1,-0.6,-0.1,-1.4,-0.1,-1.4c0.3,0.5,1.4,2,1.7,3.3c0.3,1.3,1.6,1.7,1.6,1.7c-0.5,-0.7,-0.3,-1.2,-0.3,-1.2c0,-1.3,-0.2,-1.3,-0.3,-1.7c0,-0.4,0.9,0.2,0.9,0.2c0.8,2.3,2.2,2.2,2.8,2.7c0.6,0.4,1.2,1.6,1.2,1.6c0.2,-1.3,-0.6,-2.1,-1.2,-2.8c-0.5,-0.7,-0.5,-2,-0.5,-2c0,0,0.4,0.8,1.1,1.4c0.7,0.7,2.6,1.3,3.2,1.5c0.6,0.2,0.9,1,0.9,1c0.3,-0.8,0,-1.2,0,-1.2c-0.7,-0.9,-1.2,-0.9,-1.6,-1.5c-0.4,-0.5,-0.1,-1,-0.1,-1c2.5,1.6,3.7,0.5,4.2,0.1c0.6,-0.5,1.6,-0.1,1.6,-0.1c-0.5,-1,-1.8,-0.6,-1.8,-0.6c-3.1,0.8,-3.3,-1.8,-3.3,-1.8c4.7,1.6,5.4,-1.4,5.4,-1.4c-1.6,0.2,-1.8,-0.9,-1.8,-0.9c0,0,0.5,-0.8,1.4,-0.8c0.8,0,1.1,1.3,2.2,2c1.2,0.7,1.7,-0.5,1.7,-0.5c-1.3,0.6,-1.2,-0.6,-1.2,-0.6Z" class="g33_211" />
<path d="M182.9,534.9c-0.1,0.1,-0.1,0.2,-0.1,0.2l0.1,-0.2m-0.1,0.2c0,0,0,0.1,0,0.1l0,-0.1m-15,2.5c0.1,0.1,0.1,0.2,0.1,0.3c0.1,0.1,0.1,0.3,0.1,0.4c0,-0.1,0,-0.3,-0.1,-0.4c0,-0.1,0,-0.2,-0.1,-0.3Z" class="g30_211" />
<path d="M168,538.3c0,0.3,0,0.5,0,0.7l0,0.1c0,-0.3,0,-0.5,0,-0.8Z" class="g34_211" />
<path d="M169.1,537.9c0.1,0.1,0.2,0.2,0.3,0.4c-0.1,-0.2,-0.2,-0.3,-0.3,-0.4Z" class="g30_211" />
<path d="M170.3,539.8l0,0.1c0,-0.1,0,-0.1,0,-0.1Z" class="g35_211" />
<path d="M170,539.3c0.1,0.2,0.2,0.3,0.3,0.5c-0.1,-0.2,-0.2,-0.3,-0.3,-0.5Z" class="g36_211" />
<path d="M169.4,538.3l0,0c0.2,0.3,0.4,0.6,0.6,1c-0.2,-0.4,-0.4,-0.7,-0.6,-1m-0.2,0.2c0,0.2,0,0.5,0,0.7c0,-0.2,0,-0.5,0,-0.7Z" class="g34_211" />
<path d="M171.9,539.8c-0.1,0,-0.1,0,-0.1,0.1c0.1,0.2,0.2,0.3,0.2,0.6c0,-0.3,-0.1,-0.4,-0.2,-0.6c0,-0.1,0,-0.1,0.1,-0.1Z" class="g35_211" />
<path d="M172.1,541.7l0,0.1l0,-0.1Z" class="g35_211" />
<path d="M172.1,541.6l0,0.1l0,-0.1Z" class="g36_211" />
<path d="M179.7,538.6c0,0,0.1,0.1,0.2,0.2c-0.1,-0.1,-0.2,-0.2,-0.2,-0.2Z" class="g31_211" />
<path d="M179.2,537.7c0.1,0.2,0.2,0.5,0.5,0.9c-0.3,-0.4,-0.4,-0.7,-0.5,-0.9Z" class="g37_211" />
<path d="M175,539.6l0,0.1c0,-0.1,0,-0.1,0,-0.1m0,0.1c0,0,0,0.1,0,0.1c0,0,0,-0.1,0,-0.1Z" class="g38_211" />
<g clip-path="url(#c2_211)">
<path d="M178.5,532.7c-0.5,0.1,-1,0.1,-1.5,0.1c-0.3,0.1,-0.5,0.2,-0.7,0.3c-0.1,0.1,-0.4,0.2,-0.6,0.2c-0.8,0,-1.8,-0.4,-1.8,-0.4c-1,2.7,-2.3,3.3,-3.6,3.3c-0.9,0,-1.7,-0.2,-2.4,-0.3c-0.1,0.3,-0.1,0.6,-0.1,1l0,0.1c0,0.2,0,0.4,0,0.6c0.1,0.1,0.1,0.2,0.1,0.3c0.1,0.1,0.1,0.3,0.1,0.4c0,0.3,0,0.5,0,0.8c0.2,0.3,0.6,0.8,0.6,0.8c-0.3,-0.6,0.1,-1.4,0.1,-1.4c0.2,0.2,0.3,0.4,0.5,0.7c0,-0.2,0,-0.5,0,-0.7c0,-0.4,-0.1,-0.7,-0.1,-0.7c0,0.1,0,0.1,0,0.1c0.1,0.1,0.2,0.2,0.3,0.4c0.2,0.3,0.4,0.6,0.6,1c0.1,0.2,0.2,0.3,0.3,0.5l0,0.1c0.1,-0.7,-0.1,-1,-0.1,-1c1,0.1,1,0.9,1,0.9c0.2,0.9,0.5,1.6,0.9,2c0,-0.1,0,-0.1,0,-0.1c0,-0.1,0,-0.1,0,-0.1c0,-0.5,0,-0.9,-0.1,-1.1c0,-0.3,-0.2,-0.4,-0.2,-0.6c0,-0.1,0,-0.1,0.1,-0.1c0.3,0,0.8,0.3,0.8,0.3c0.1,0.3,0.2,0.6,0.3,0.8c0,-0.1,0.1,-0.3,0.1,-0.4c0.4,-1.2,0.3,-1.7,0.3,-1.7c0.1,-0.1,0.3,-0.1,0.4,-0.1c0.5,0,0.9,0.5,0.9,0.5c0.1,0.3,0.2,0.5,0.3,0.6c0,0,0,-0.1,0,-0.1c0,-0.1,0,-0.1,0,-0.1l0,0.1c0.1,0.1,0.4,0.5,0.7,0.9c0.6,0.5,1.3,0.6,1.9,0.6c0.4,0,0.7,-0.1,0.7,-0.1c-1.2,-0.2,-1.8,-0.9,-1.7,-2c0.1,-1,-0.7,-1.5,-0.7,-1.5c0,0,0.7,0.1,2.7,0.9c0.5,0.2,0.9,0.3,1.3,0.3c-0.1,-0.1,-0.2,-0.2,-0.2,-0.2c-0.3,-0.4,-0.4,-0.7,-0.5,-0.9c0,-0.2,0,-0.3,0,-0.3c0.2,0.1,0.4,0.2,0.6,0.2c-0.2,-0.2,-0.4,-0.4,-0.5,-0.7c-0.4,-0.7,-1.3,-1.1,-1.3,-1.1c0.2,-0.1,0.3,-0.1,0.5,-0.1c0.7,0,1.7,0.4,1.7,0.4c0.3,0,0.6,0.1,0.8,0.1c1.2,0,1.6,-0.5,1.8,-1c0,0,0,-0.1,0,-0.1c0,0,0,-0.1,0.1,-0.2c0,-0.1,0,-0.2,0,-0.3l0,-0.1c0,-0.2,0,-0.4,0,-0.4c-0.4,0.3,-0.8,0.4,-1.2,0.4c-0.8,0,-1.5,-0.5,-2.4,-1.3c-0.3,-0.2,-0.6,-0.4,-0.8,-0.5Z" class="g39_211" />
</g>
<path d="M184.8,528.4l0,0c-0.5,1.1,-1.5,1.6,-2.6,1.6c-0.1,0,-0.3,0,-0.5,-0.1c0.2,0.1,0.3,0.1,0.5,0.1c1.1,0,2.1,-0.5,2.6,-1.6m-4.5,1.2c0,0,0.1,0,0.1,0.1c0.2,0,0.3,0.1,0.5,0.1c-0.2,0,-0.3,-0.1,-0.5,-0.1c0,-0.1,-0.1,-0.1,-0.1,-0.1" class="g40_211" />
<path d="M185.2,528.3l0,0l-0.4,0.1c-0.5,1.1,-1.5,1.6,-2.6,1.6c-0.1,0,-0.3,0,-0.5,0c-0.2,0.1,-0.4,0.2,-0.7,0.4c0,0,-0.1,-0.3,-0.1,-0.6c-0.2,0,-0.3,-0.1,-0.5,-0.1c0,-0.1,-0.1,-0.1,-0.1,-0.1c-0.2,0,-0.4,-0.1,-0.6,-0.1l0,0.2c0,0.4,0.1,0.8,-0.2,1.1c-0.2,0.2,-0.5,0.3,-0.8,0.3c-0.1,0,-0.1,0,-0.2,0c-1,-0.1,-2.1,-0.2,-3.1,-0.5c-0.7,0.5,-1.4,1.2,-1.9,1.8l0.1,0c0.9,0.3,1.9,0.4,2.9,0.4c0.1,0,0.2,0,0.4,0l0.1,0c0.2,-0.1,0.5,-0.2,0.8,-0.2c0.2,0,0.4,0.1,0.7,0.1c0.4,0,0.8,0,1.3,0c0.3,0,0.7,0,1.1,0c0.9,0.1,1.9,0.3,2.9,0.4c0.1,0,0.1,0,0.2,0.1l0.1,0c0.6,-0.1,1,-0.2,1.5,-0.7c-0.1,-0.1,-0.2,-0.1,-0.3,-0.1c0.1,0,0.3,-0.1,0.4,-0.1L185.6,532c-0.1,-0.1,-0.2,-0.1,-0.3,-0.1c-0.2,0,-0.4,0.2,-0.6,0.3c-0.2,0,-0.5,0.1,-0.7,0.1c-0.2,0,-0.4,-0.1,-0.5,-0.1c-0.6,-0.1,-1.1,-0.4,-1.6,-0.6c0.8,-0.7,1.7,-1.4,2.6,-1.9c0.3,-0.1,0.5,-0.2,0.8,-0.3c0.1,-0.4,0,-0.8,-0.1,-1.1Z" class="g39_211" />
<path d="M177.8,532.6c-0.3,0,-0.6,0.1,-0.8,0.2c0.5,0,1,0,1.5,-0.1c-0.3,0,-0.5,-0.1,-0.7,-0.1Z" class="g41_211" />
<path d="M185.6,540.8c-0.6,0,-1.1,2.1,-1.1,2.1c-0.6,1.6,-3.7,2.2,-3.9,2.2c-0.2,0.1,-1.1,-0.7,-1.1,-0.7c0,0,-1.3,-1.3,-2.9,-1.2c-1.6,0,-1.8,2,-1.8,2c-0.3,1.2,0.7,2,0.7,2c-0.3,-0.6,0.1,-1.3,0.1,-1.3c0.3,0,0.5,-0.3,0.5,-0.3c0,0,0.6,-1.3,1.6,-0.5c0.9,0.8,1.7,1.2,1.7,1.9c-0.1,0.8,-0.6,1,-0.8,1.5c-0.1,0.6,0,1,0,1c0,0.2,-1.4,-0.1,-1.4,-0.1c0.5,0.7,1.4,0.9,1.4,0.9c1.5,0.2,1.9,-1.2,2.1,-2c0.1,-0.7,0.6,-1,0.6,-1c2.9,0,3.6,-1,3.6,-1c2.5,-0.7,2.4,-2.6,2.4,-2.6c0.9,-3.1,-1,-3,-1.7,-2.9Z" class="g42_211" />
<path d="M175.6,545.9l-0.8,-0.7c-0.3,1.2,0.7,2,0.7,2c-0.3,-0.6,0.1,-1.3,0.1,-1.3Z" class="g10_211" />
<path d="M177.2,549.4c0.5,0.7,1.4,0.9,1.4,0.9l0,-0.8c0,0.2,-1.4,-0.1,-1.4,-0.1Z" class="g10_211" />
<path d="M177.5,530.4c1.3,-0.4,1.2,-1.7,1.2,-1.7c-1.3,1.2,-2.9,-0.1,-2.9,-0.1c-0.5,-0.6,-1.4,-0.9,-2.1,-1c-0.9,-0.1,-1.7,0.1,-2.3,0.7c-0.6,0.7,-0.8,2,-0.2,2.8c0.4,0.6,1.1,0.9,1.7,1.2c0.5,0.2,1.1,0.4,1.6,0.5c4.5,1.2,6.4,-2.5,6.4,-2.5c-1.3,1,-3.4,0.1,-3.4,0.1Z" class="g24_211" />
<path d="M175.8,528.6c-0.5,-0.6,-1.4,-0.9,-2.1,-1c-0.9,-0.1,-1.7,0.1,-2.3,0.7c-0.6,0.7,-0.8,2,-0.2,2.8c0.2,-3.2,2.4,-2.5,4.4,-1.5c2.1,0.9,3.1,-0.9,3.1,-0.9c-1.3,1.2,-2.9,-0.1,-2.9,-0.1Z" class="g43_211" />
<path d="M187.9,528.2l-0.1,-0.1c-1.1,-0.5,-2.5,-0.4,-3.7,0c-1.2,0.4,-2.3,1.1,-3.3,1.8l-0.2,-1c0,-0.3,0.1,-0.7,0.2,-1.1c0.2,-0.4,0.5,-0.7,0.8,-1c0.3,-0.2,1,-0.3,0.9,-0.8l-0.1,-0.1c-0.1,-0.1,-0.3,-0.2,-0.4,-0.1c-1.5,0.4,-2.6,1.8,-2.6,3.4c0,0.4,0.1,0.9,-0.2,1.2c-0.2,0.2,-0.6,0.2,-0.9,0.2c-1.3,0,-2.6,-0.3,-3.9,-0.6c-0.8,-0.3,-2.2,-1,-2.6,0.4c-0.2,1,0.8,1.3,1.5,1.5c0.5,0.2,1,0.3,1.5,0.4c0.6,0,1.2,0,1.8,0c1,0,2,-0.1,3,-0.1c0.3,0,0.5,0,0.7,0.1l0.3,0c1,0.1,1.9,0.3,2.9,0.4c0.8,0,1.3,-0.1,1.8,-0.7c0.2,-0.1,0.2,-0.4,0,-0.5c-0.3,-0.3,-0.6,0.1,-0.9,0.2c-0.4,0.1,-0.8,0.1,-1.2,0c-0.5,-0.1,-1,-0.3,-1.6,-0.6c0.9,-0.7,1.7,-1.4,2.7,-1.9c0.9,-0.4,2.1,-0.7,3.1,-0.4c0.2,0.1,0.3,0.1,0.4,0.1c0.2,0,0.4,-0.1,0.4,-0.2l0,-0.2l-0.3,-0.3Z" class="g10_211" />
<path d="M187.8,528.6c-0.2,-0.1,-3.2,-1.1,-5.9,1.5c-0.7,0.7,-1.6,1.1,-2.6,1.3c-1.2,0.2,-2.9,0.4,-4.4,0l-0.1,0.9c0.6,0,1.2,0,1.8,0c1,0,2,-0.1,3,-0.1c0.3,0,0.5,0,0.7,0.1l0.3,0c1,0,1.9,0.3,2.9,0.4c0.8,0,1.3,-0.1,1.8,-0.7c0.2,-0.1,0.2,-0.4,0,-0.5l-0.2,0.4c-0.2,0.2,-1.5,0.8,-3.3,-0.1c-0.3,-0.1,-0.5,-0.2,-0.7,-0.2l0.5,-0.5c0.9,-0.7,1.7,-1.4,2.7,-1.9c0.9,-0.4,2.1,-0.7,3.1,-0.4c0.2,0.1,0.3,0.1,0.4,0.1c0.2,0,0.4,-0.1,0.4,-0.2l0,-0.2c-0.1,0.1,-0.3,0.2,-0.4,0.1Z" class="g44_211" />
<path d="M176.6,531.7c0.2,-0.3,0.3,-0.8,0.2,-1.2c-1.1,1.2,-2.3,-0.3,-3.2,-0.8c-1.4,-0.7,-2.7,0.3,-2.4,1.7c0.5,2.7,6.2,3,5.8,0.1l-0.4,0.2Z" class="g45_211" />
<path d="M182,535.2c0.5,-0.4,0.7,-1.1,0.6,-1.7c-1.4,0.9,-2.5,0,-3.6,-0.9c-1.3,-1,-2.3,-0.5,-3,-0.1c-0.2,0.1,-0.6,0.1,-1,0.1c-0.7,-0.1,-1.4,-0.4,-1.4,-0.4c-0.6,1.7,-1.4,2.6,-2.2,3c-0.2,0.1,-0.5,0.2,-0.7,0.3c-1.2,0.2,-2.5,-0.3,-3.4,-0.3c-1.8,0,-2.5,0.8,-2.6,1.6c-0.1,0.7,0.7,1.4,0.9,2.2c0.3,0.8,-0.3,1.9,-0.3,1.9c0.6,-0.2,0.9,-0.8,1.1,-1.7c0.2,-0.7,-0.1,-1.6,-0.2,-1.9c0.1,0.1,0.2,0.3,0.4,0.6c0.5,0.6,0.6,2,0.6,2c0.4,-0.6,0.4,-1.7,0.4,-1.8c0.1,0.4,0.6,1,0.7,1.1c-0.4,-0.6,0,-1.4,0,-1.4c0.5,0.4,0.8,1.4,0.9,2.1c0.1,0.6,1,1.1,1,1.1c-0.5,-0.8,-0.3,-1,-0.2,-1.7c0.1,-0.7,-0.1,-1.1,-0.1,-1.1c0.9,0.2,1,0.9,1,0.9c0.3,2.4,2.1,2.9,2.2,2.9c-0.4,-0.3,-0.7,-1,-0.3,-2.2c0.3,-1,0.3,-1.5,0.3,-1.6c0.7,-0.5,1.3,0.4,1.3,0.4c0.8,2.4,3.3,1.9,3.5,1.8l0.1,0c-1.2,-0.1,-1.8,-0.8,-1.7,-1.9c0.1,-1.1,-0.7,-1.5,-0.7,-1.5c0,0,0.7,0,2.7,0.9c1.8,0.8,3,-0.4,3.1,-0.5c-1.1,0.3,-2,-0.4,-2.4,-1.1c-0.4,-0.8,-1.3,-1.2,-1.3,-1.2c0.7,-0.2,1.6,0.2,2.3,0.3c0.6,0.2,1.4,0.2,2,-0.2Z" class="g24_211" />
<path d="M172.8,539.8c0.3,-1,0.3,-1.5,0.3,-1.6c-0.3,-1.3,-1.2,-2.5,-1.7,-3c-0.2,-0.2,-0.3,-0.3,-0.3,-0.3l-0.5,0.5l0.1,0.1c0.9,1.4,1,3,1.2,4.5c0.3,1.6,1.1,2,1.2,2c-0.4,-0.3,-0.7,-1.1,-0.3,-2.2Z" class="g43_211" />
<path d="M176.3,538.5c0.1,-1.1,-0.7,-1.5,-0.7,-1.5c-1.3,-1.3,-2.9,-1.8,-2.9,-1.8l-0.5,0.6c2.5,1.1,2.7,1.9,3.3,3.3c0.5,1.3,2.3,1.3,2.4,1.3l0.1,0c-1.2,-0.1,-1.8,-0.8,-1.7,-1.9Z" class="g43_211" />
<path d="M179,536.3c-0.4,-0.8,-1.3,-1.2,-1.3,-1.2c-2.4,-1.3,-4.3,-1,-4.3,-1l-0.5,0.8c1.6,-0.2,4.3,1.1,5.6,2.2c1.2,1.1,2.7,0.3,2.9,0.3c-1.1,0.3,-2,-0.4,-2.4,-1.1Z" class="g43_211" />
<path d="M179,532.6c-1.3,-1,-2.3,-0.5,-3,-0.1c-0.2,0.1,-0.6,0.1,-1,0.1c-0.5,0.4,-1,0.8,-0.9,0.8c0.6,0.1,1.2,-0.1,1.8,-0.1c0.8,-0.1,1.6,-0.2,2.3,0.3c0.5,0.2,0.8,0.6,1.3,0.8c0.6,0.3,1.3,0.3,1.9,0.1c0.3,-0.1,0.6,-0.3,0.8,-0.5l0.4,-0.5c-1.4,0.9,-2.5,0,-3.6,-0.9Z" class="g43_211" />
<path d="M175.6,533.3c0.4,-0.4,1.1,-0.6,1.1,-0.6c-0.8,-0.5,-2.1,0,-2.5,0c-0.4,-0.1,-0.7,-0.8,-0.7,-0.8l-1.1,-0.6c0,0,0.2,0,0,1.8c-0.2,1.7,-4.9,1.4,-6.1,1.4c-1.1,0,-1.7,1,-1.9,1.6c-0.3,0.7,0.2,0.8,0.2,0.8c0,0,0,-0.5,0.2,-0.4c0.3,0.1,0.8,0.8,0.8,0.8c0.1,-0.6,0.1,-1.8,0.1,-1.8c0,0,0.1,0.2,0.3,0.5c0.3,0.4,0.8,0.6,0.8,0.6c-0.2,-0.4,-0.2,-1.4,-0.2,-1.4c0,0,0.3,0.3,0.6,0.6c0.3,0.3,0.5,1,0.5,1l0.2,-1.5c0,0,0.5,0.7,0.9,1.3c0.4,0.6,0.4,1.7,0.4,1.7c0,0,0.3,-0.7,0.1,-1.4c-0.1,-0.7,0.3,-1.4,0.3,-1.4c0.5,0.4,0.8,1.5,1.3,2.3c0.4,0.8,1,0.7,1,0.7c-0.5,-0.5,-0.7,-1.1,-0.5,-1.8c0.1,-0.7,-0.2,-1.1,-0.2,-1.1c1.1,0.8,1.2,0.4,1.9,0.6c0.6,0.1,1.1,0.7,1.1,0.7c-0.1,-1.5,-1.4,-2.1,-1.4,-2.1c0.6,0.4,1.5,0.1,2.1,0.1c0.5,-0.1,0.8,0,0.8,0c-0.1,-0.5,-0.4,-0.7,-1,-0.8c-0.6,-0.2,-1.3,-0.6,-1.3,-0.6c0.5,0.3,1.7,0.2,2.2,-0.2Z" class="g25_211" />
<path d="M175.9,531.8c-0.2,0,-0.4,0,-0.5,0c0.1,-0.2,0.3,-0.4,0.5,-0.5c0.1,-0.2,0.2,-0.6,0.2,-0.8c-0.2,0.1,-0.4,0.3,-0.6,0.3c-0.3,0.1,-0.5,0.2,-0.8,0.1c-0.2,-0.1,-0.4,-0.2,-0.6,-0.4c-0.2,-0.2,-0.5,-0.3,-0.8,-0.4c-0.3,-0.1,-0.6,-0.1,-0.8,0c-0.4,0.1,-0.7,0.4,-0.8,0.8c-0.2,0.5,0,1,0.4,1.4c0.3,0.3,0.6,0.4,1,0.6c0.4,0.2,0.7,0.3,1.1,0.4c0.5,0,1,0,1.4,-0.3l-0.2,-0.2c0.2,-0.1,0.4,-0.2,0.6,-0.4c0.1,-0.1,0.4,-0.5,0.3,-0.7l-0.4,0.1Z" class="g26_211" />
<path d="M173.2,530.6c-0.4,-0.2,-0.8,0,-1,0.4c-0.1,0.3,0,0.8,0.4,1c0.4,0.1,0.8,0,1,-0.4c0.2,-0.4,0,-0.8,-0.4,-1Z" class="g10_211" />
<path d="M170.6,529.3c-0.6,-0.3,-0.9,-0.1,-0.9,-0.1c-0.2,0.1,-0.3,1.4,-0.2,1.4l1,0.1c-0.3,-1,0.1,-1.4,0.1,-1.4Z" class="g45_211" />
<path d="M169.4,529.1L168.5,529c-0.4,0.5,-0.3,1.1,-0.3,1.1c0,0.3,1.1,0.5,1.1,0.5c-0.4,-0.5,0.1,-1.5,0.1,-1.5Z" class="g45_211" />
<path d="M167.7,528.6c-0.2,-0.1,-0.5,0.4,-0.5,0.4c0.1,0.4,0.6,0.9,0.6,0.9c0,-0.6,0.5,-1,0.5,-1Z" class="g45_211" />
<path d="M182.4,525.9c0,0.1,-0.1,0.2,-0.2,0.3c-0.3,0.1,-2.5,0.7,-1.9,4l0.5,-0.3l-0.2,-1c0,-0.3,0.1,-0.7,0.2,-1.1c0.2,-0.4,0.5,-0.7,0.8,-1c0.3,-0.2,1,-0.3,0.9,-0.8l-0.1,-0.1Z" class="g44_211" />
<path d="M173.2,530.8c-0.3,-0.1,-0.6,0,-0.7,0.3c-0.1,0.2,0,0.5,0.2,0.6c0.3,0.1,0.6,0,0.7,-0.2c0.1,-0.3,0,-0.6,-0.2,-0.7Z" class="g46_211" />
<path d="M166.6,530c-0.3,-0.3,-1.4,-1.4,-2.7,-1.3c-1.2,0.1,-2.8,1.4,-4.9,-1.3c0.4,1.1,1.5,2,2.7,2c0.8,0,1.5,-0.3,2.3,-0.3c0.8,0,1.5,0.4,2.1,0.9l0.2,0.2c0.1,0.2,0.3,0.4,0.5,0.3c0.2,-0.1,0.3,-0.1,0.3,-0.2c-0.1,0,-0.4,-0.1,-0.5,-0.3Z" class="g47_211" />
<path d="M184.6,540.3l-4.3,53.9l9.2,0l0,23.1l15.2,1.2l6,-76.1Z" class="g48_211" />
<path d="M208.4,530.5L189.3,529l-1,12.8l19,1.5Z" class="g48_211" />
<path d="M208.4,530.5L189.3,529l-0.2,2.6l19.1,1.6Z" class="g49_211" />
<path d="M209.2,530.4l-20.8,-1.7l-0.1,1.4l20.8,1.6Z" class="g50_211" />
<path d="M194,539.3L190.6,539l0.3,-3.8c0.1,-0.9,0.9,-1.6,1.9,-1.5c0.9,0,1.6,0.9,1.5,1.8Z" class="g51_211" />
<path d="M199.8,539.7l-3.5,-0.3l0.3,-3.7c0.1,-1,0.9,-1.7,1.9,-1.6c0.9,0.1,1.6,0.9,1.6,1.9Z" class="g51_211" />
<path d="M205.5,540.2L202,539.9l0.3,-3.8c0.1,-0.9,0.9,-1.6,1.9,-1.5c0.9,0,1.6,0.9,1.6,1.8Z" class="g51_211" />
<path d="M210.7,542.4l-0.1,1.7L184.5,542l0.1,-1.7Z" class="g49_211" />
<path d="M211.1,542.4l-26.9,-2.1l-0.1,1l27,2.1Z" class="g50_211" />
<path d="M209.8,553.5l-0.1,1.7l-26.1,-2l0.1,-1.7Z" class="g49_211" />
<path d="M210.3,553.6l-27,-2.2l-0.1,1l27,2.2Z" class="g50_211" />
<path d="M209,564.7l-0.2,1.7l-26.1,-2.1l0.1,-1.7Z" class="g49_211" />
<path d="M209.4,564.7l-27,-2.1l-0.1,1l27,2.1Z" class="g50_211" />
<path d="M208.1,575.9l-0.2,1.7l-26.1,-2.1l0.2,-1.7Z" class="g49_211" />
<path d="M208.5,575.9l-27,-2.1l0,0.9l26.9,2.2Z" class="g50_211" />
<path d="M207.2,587l-0.2,1.7l-26.1,-2l0.2,-1.7Z" class="g49_211" />
<path d="M207.6,587.1l-26.9,-2.2l-0.1,1l26.9,2.2Z" class="g50_211" />
<path d="M189.5,596.9l0,1.7l16.7,1.3l0.1,-1.7Z" class="g49_211" />
<path d="M189.5,596.9l0,0.9l17.1,1.4l0.1,-1Z" class="g50_211" />
<path d="M187,544.5l0,0c-0.6,0,-1.1,0.4,-1.2,1l-0.4,4.8l2.3,0.2l0.3,-4.8c0.1,-0.6,-0.4,-1.2,-1,-1.2Z" class="g51_211" />
<path d="M190.5,544.8l0,0c-0.6,-0.1,-1.1,0.4,-1.2,1l-0.3,4.8l2.2,0.2l0.4,-4.8c0,-0.6,-0.4,-1.2,-1.1,-1.2Z" class="g51_211" />
<path d="M194.1,545.1l0,0c-0.6,-0.1,-1.2,0.4,-1.2,1l-0.4,4.8l2.2,0.1l0.4,-4.7c0,-0.7,-0.4,-1.2,-1,-1.2Z" class="g51_211" />
<path d="M197.6,545.3l0,0c-0.6,0,-1.2,0.4,-1.2,1.1l-0.4,4.8l2.2,0.1l0.4,-4.8c0.1,-0.6,-0.4,-1.1,-1,-1.2Z" class="g51_211" />
<path d="M201.1,545.6l0,0c-0.6,0,-1.1,0.4,-1.2,1l-0.4,4.8l2.2,0.2l0.4,-4.8c0.1,-0.6,-0.4,-1.1,-1,-1.2Z" class="g51_211" />
<path d="M204.6,545.9l0,0c-0.6,0,-1.1,0.4,-1.2,1l-0.3,4.8l2.2,0.2l0.3,-4.8c0.1,-0.6,-0.4,-1.1,-1,-1.2Z" class="g51_211" />
<path d="M208.1,546.2l0,0c-0.6,-0.1,-1.1,0.4,-1.1,1l-0.4,4.8l2.2,0.2l0.4,-4.8c0,-0.6,-0.4,-1.2,-1.1,-1.2Z" class="g51_211" />
<path d="M186.1,555.5l0,0c-0.6,0,-1.1,0.5,-1.2,1.1l-0.3,4.8l2.2,0.1l0.4,-4.8c0,-0.6,-0.5,-1.1,-1.1,-1.2Z" class="g51_211" />
<path d="M189.7,555.8l0,0c-0.6,0,-1.2,0.4,-1.2,1l-0.4,4.8l2.2,0.2l0.4,-4.8c0,-0.6,-0.4,-1.1,-1,-1.2Z" class="g51_211" />
<path d="M193.2,556.1l0,0c-0.6,0,-1.2,0.4,-1.2,1l-0.4,4.8l2.2,0.2l0.4,-4.8c0,-0.6,-0.4,-1.1,-1,-1.2Z" class="g51_211" />
<path d="M196.7,556.4l0,0c-0.6,-0.1,-1.1,0.4,-1.2,1l-0.4,4.8l2.2,0.2l0.4,-4.8c0.1,-0.6,-0.4,-1.2,-1,-1.2Z" class="g51_211" />
<path d="M200.2,556.7l0,0c-0.6,-0.1,-1.1,0.4,-1.2,1l-0.4,4.8l2.3,0.2l0.3,-4.8c0.1,-0.7,-0.4,-1.2,-1,-1.2Z" class="g51_211" />
<path d="M203.7,556.9l0,0c-0.6,0,-1.1,0.5,-1.1,1.1l-0.4,4.8l2.2,0.1l0.4,-4.8c0,-0.6,-0.4,-1.1,-1.1,-1.2Z" class="g51_211" />
<path d="M207.3,557.2l0,0c-0.6,0,-1.2,0.4,-1.2,1l-0.4,4.8l2.2,0.2l0.4,-4.8c0,-0.6,-0.4,-1.1,-1,-1.2Z" class="g51_211" />
<path d="M185.3,566.6l0,0c-0.7,-0.1,-1.2,0.4,-1.2,1l-0.4,4.8l2.2,0.2l0.4,-4.8c0,-0.6,-0.4,-1.2,-1,-1.2Z" class="g51_211" />
<path d="M188.8,566.9l0,0c-0.6,-0.1,-1.2,0.4,-1.2,1l-0.4,4.8l2.2,0.2l0.4,-4.8c0,-0.6,-0.4,-1.2,-1,-1.2Z" class="g51_211" />
<path d="M192.3,567.1l0,0c-0.6,0,-1.1,0.5,-1.2,1.1l-0.4,4.8l2.2,0.1l0.4,-4.8c0.1,-0.6,-0.4,-1.1,-1,-1.2Z" class="g51_211" />
<path d="M195.8,567.4l0,0c-0.6,0,-1.1,0.4,-1.2,1l-0.4,4.8l2.3,0.2l0.3,-4.8c0.1,-0.6,-0.4,-1.1,-1,-1.2Z" class="g51_211" />
<path d="M199.3,567.7l0,0c-0.6,0,-1.1,0.4,-1.1,1l-0.4,4.8l2.2,0.2l0.4,-4.8c0,-0.6,-0.4,-1.1,-1.1,-1.2Z" class="g51_211" />
<path d="M202.9,568l0,0c-0.6,-0.1,-1.2,0.4,-1.2,1l-0.4,4.8l2.2,0.2l0.4,-4.8c0,-0.6,-0.4,-1.2,-1,-1.2Z" class="g51_211" />
<path d="M206.4,568.3l0,0c-0.6,-0.1,-1.2,0.4,-1.2,1l-0.4,4.8l2.2,0.2l0.4,-4.8c0.1,-0.6,-0.4,-1.2,-1,-1.2Z" class="g51_211" />
<path d="M184.4,577.6l0,0c-0.6,0,-1.2,0.4,-1.2,1l-0.4,4.8l2.2,0.2l0.4,-4.8c0,-0.6,-0.4,-1.1,-1,-1.2Z" class="g51_211" />
<path d="M187.9,577.9l0,0c-0.6,0,-1.1,0.4,-1.2,1l-0.4,4.8l2.2,0.2l0.4,-4.8c0.1,-0.6,-0.4,-1.1,-1,-1.2Z" class="g51_211" />
<path d="M191.4,578.2l0,0c-0.6,-0.1,-1.1,0.4,-1.2,1l-0.4,4.8l2.3,0.2l0.3,-4.8c0.1,-0.6,-0.4,-1.2,-1,-1.2Z" class="g51_211" />
<path d="M194.9,578.5l0,0c-0.6,-0.1,-1.1,0.4,-1.1,1l-0.4,4.8l2.2,0.2l0.4,-4.8c0,-0.6,-0.4,-1.2,-1.1,-1.2Z" class="g51_211" />
<path d="M198.5,578.8l0,0c-0.6,-0.1,-1.2,0.4,-1.2,1l-0.4,4.8l2.2,0.1l0.4,-4.8c0,-0.6,-0.4,-1.1,-1,-1.1Z" class="g51_211" />
<path d="M202,579l0,0c-0.6,0,-1.2,0.4,-1.2,1.1l-0.4,4.7l2.2,0.2l0.4,-4.8c0.1,-0.6,-0.4,-1.1,-1,-1.2Z" class="g51_211" />
<path d="M205.5,579.3l0,0c-0.6,0,-1.1,0.4,-1.2,1l-0.4,4.8l2.2,0.2l0.4,-4.8c0.1,-0.6,-0.4,-1.1,-1,-1.2Z" class="g51_211" />
<path d="M184.2,594.2l0.3,-4.3c0.1,-0.6,-0.4,-1.2,-1,-1.2c-0.6,-0.1,-1.1,0.4,-1.2,1l-0.4,4.5Z" class="g51_211" />
<path d="M187.7,594.2l0.3,-4.1c0.1,-0.6,-0.4,-1.1,-1,-1.1c-0.6,-0.1,-1.1,0.4,-1.2,1l-0.3,4.2Z" class="g51_211" />
<path d="M190.5,589.2c-0.6,0,-1.1,0.4,-1.1,1.1l-0.4,3.9l0.5,0l0,0.9l1.7,0.1l0.4,-4.8c0,-0.6,-0.4,-1.1,-1.1,-1.2Z" class="g51_211" />
<path d="M194.1,589.5l0,0c-0.6,0,-1.2,0.4,-1.2,1l-0.4,4.8l2.2,0.2l0.4,-4.8c0,-0.6,-0.4,-1.1,-1,-1.2Z" class="g51_211" />
<path d="M197.6,589.8l0,0c-0.6,-0.1,-1.2,0.4,-1.2,1l-0.4,4.8l2.2,0.2l0.4,-4.8c0.1,-0.6,-0.4,-1.2,-1,-1.2Z" class="g51_211" />
<path d="M201.1,590.1l0,0c-0.6,-0.1,-1.1,0.4,-1.2,1l-0.4,4.8l2.2,0.2l0.4,-4.8c0.1,-0.6,-0.4,-1.2,-1,-1.2Z" class="g51_211" />
<path d="M204.6,590.4l0,0c-0.6,-0.1,-1.1,0.4,-1.2,1l-0.3,4.8l2.2,0.1l0.4,-4.7c0,-0.7,-0.5,-1.2,-1.1,-1.2Z" class="g51_211" />
<path d="M190.1,601.4c-0.2,0,-0.4,0,-0.6,0l0,13.9l2,0.2L192.4,604c0.1,-1.3,-0.9,-2.5,-2.3,-2.6Z" class="g49_211" />
<path d="M190.1,601.4c-0.2,0,-0.4,0,-0.6,0l0,0.7c1.2,0.3,2,1.4,1.9,2.6l-0.9,10.7l1,0.1L192.4,604c0.1,-1.3,-0.9,-2.5,-2.3,-2.6Z" class="g51_211" />
<path d="M196.4,601.9l0,0c-1.3,-0.1,-2.5,0.9,-2.6,2.2l-0.9,11.5l4.9,0.4l0.9,-11.5c0.1,-1.3,-0.9,-2.5,-2.3,-2.6Z" class="g49_211" />
<path d="M196.4,601.9c-0.8,-0.1,-1.6,0.3,-2.1,0.9c0.4,-0.2,0.8,-0.3,1.2,-0.2c1.3,0.1,2.3,1.3,2.2,2.6l-0.8,10.7l0.9,0.1l0.9,-11.5c0.1,-1.3,-0.9,-2.5,-2.3,-2.6Z" class="g51_211" />
<path d="M202.7,602.4l0,0c-1.3,-0.1,-2.5,0.9,-2.6,2.2l-0.9,11.5l4.9,0.4L205,605c0.1,-1.3,-0.9,-2.5,-2.3,-2.6Z" class="g49_211" />
<path d="M202.7,602.4c-0.8,-0.1,-1.6,0.3,-2.1,0.9c0.4,-0.2,0.8,-0.3,1.2,-0.2c1.3,0.1,2.3,1.3,2.2,2.6l-0.8,10.7l0.9,0.1L205,605c0.1,-1.3,-0.9,-2.5,-2.3,-2.6Z" class="g51_211" />
<path d="M153.4,618.7l0,0.4l8.2,0l-0.3,-0.4Z" class="g52_211" />
<path d="M144.5,605.2l0.9,-1.8l0.5,0.8l-0.7,1.4c-0.2,-0.1,-0.4,-0.3,-0.7,-0.4m-1.1,-0.4l0.6,-1.5l0.8,0l-0.7,1.7c-0.2,-0.1,-0.5,-0.1,-0.7,-0.2m-1,-0.4l0.4,-1.1l0.7,0l-0.6,1.3c-0.1,-0.1,-0.3,-0.1,-0.5,-0.2m-0.5,-0.1l-0.3,-0.1l0.1,-0.9l0.6,0l-0.4,1m0,-2.2l0.8,0.5l-1.2,0l0.4,-0.5m-0.9,2L140.7,604l0.1,-0.7l0.4,0l-0.2,0.8m-0.8,-0.2l-0.3,0l0,-0.6l0.4,0l-0.1,0.6M140,602.1l0.7,0.5l-1.2,0l0.5,-0.5m-0.7,1.7l-0.3,0l0,-0.5l0.3,0l0,0.5m-1.2,-1.2l0.4,-0.4l0.5,0.4l-0.9,0m0.4,1.1l-0.3,0l-0.7,0l-0.4,0l0,-0.4l1.4,0l0,0.4m-1.3,-1.5l0.3,0.4l-0.8,0l0.5,-0.4m-0.6,1.6l-0.3,0l0,-0.5l0.3,0l0,0.5m-1.7,-1.2l0.8,-0.5l0.4,0.5l-1.2,0m0.9,1.3l-0.4,0l0,-0.6l0.4,0l0,0.6m-1.2,0.2l-0.1,-0.8l0.3,0l0.1,0.7l-0.3,0.1m-1.7,-1.5l0.8,-0.5l0.5,0.5l-1.3,0m0.8,1.7l-0.3,-1l0.5,0l0.2,0.9l-0.4,0.1m-1,0.3l-0.5,-1.3l0.6,0l0.4,1.1c-0.1,0.1,-0.3,0.1,-0.5,0.2m-1.1,0.4l-0.8,-1.7l0.8,0l0.6,1.5c-0.2,0.1,-0.4,0.1,-0.6,0.2m-1.2,0.6l-0.6,-1.4l0.4,-0.8l0.9,1.8c-0.2,0.1,-0.5,0.3,-0.7,0.4m-0.9,0.5L129,605.5l0.5,-0.8l0.5,1.1c-0.2,0.1,-0.3,0.2,-0.5,0.3m-1.5,1.1l0.7,-1.2l0.4,0.4c-0.4,0.2,-0.8,0.5,-1.1,0.8m-0.6,-0.1l-0.8,-1l1.4,0l-0.6,1m-2.4,0.4l-0.6,-0.7l1.4,-0.7l0.1,0l1.2,1.4l-2.1,0m1.4,1.4L126,608.6l0.8,-0.4l-0.4,0.7m-1,1.8l-0.9,-1l1.4,0l-0.5,1m-2.5,0.2l-0.6,-0.6l1.3,-0.6l0.2,0l1.1,1.2l-2,0m1.5,1.6L124,612.1l0.8,-0.4l-0.4,0.8m-1.1,1.8l0,0l-1.1,-1.2l1.8,0l-0.7,1.2m-1.3,2.4l-1.4,-0.8l2.3,-0.7l-0.9,1.5m-4.4,0.1l2.3,-0.7l1.3,0.7l-3.6,0m0.2,-1.9l1.5,0.8l-2.5,0.8l1,-1.6m1.1,-1.8l1.4,0l-1.9,0.9l0.5,-0.9m1,-1.6l1.1,1.1l-1.7,0l0.6,-1.1m1.2,-1.7l0.4,0.4l-1,0.4l0.6,-0.8m0.9,0.1l-0.2,-0.2l0.6,0l-0.4,0.2m-0.9,1l0.8,-0.3l0.3,0.3l-1.1,0m1,4l-2.1,0.6l-1.3,-0.6l3.4,0m-3.2,-0.6l2.6,-1.1l1.1,1.1l-3.7,0m2.7,-1.7l-1,-1.2l2.1,0l0.4,0.5l-1.5,0.7m1.8,-1.2l0.7,0l-0.5,0.3l-0.2,-0.3m0.1,0.9l0.3,0.3l-1.1,0l0.8,-0.3M122.2,608l1.1,1.2l-1.9,0l0.8,-1.2m1.1,-1.6l0.3,0.3l-0.8,0.4l0.5,-0.7m-0.2,1.1l0.8,-0.4l0.4,0.4l-1.2,0m2.5,1.3l0.3,0.4l-1.2,0l0.9,-0.4m-1.8,0.2l-1,-1l2,0l0.4,0.4l-1.4,0.6m0.9,-2.9l-0.7,0.3l-0.3,-0.3l1,0m-0.2,-1.7l1,1.2l-1.7,0l0.7,-1.2m4.5,0.1l-0.7,1.1l-1.5,0l2.2,-1.1m-0.5,-0.4l-2.5,1.3l-1,-1.3l3.5,0m-3.3,-0.8l4.4,0l-0.1,0.3l-4.5,0l0.2,-0.3m1.1,-1.6l0.3,0.3l-0.7,0.6l-0.2,0l0.6,-0.9m0.8,-0.1l-0.3,0.3l-0.3,-0.3l0.6,0m-0.1,1l-0.7,0l0.4,-0.4l0.3,0.4m0.6,-1l0,0L128,602l-0.7,0.6l-0.4,-0.5l0.7,-0.5m0.2,-2.6l0.1,0.1l2.5,-1.5c-0.2,0.5,-0.4,1,-0.6,1.6l-2,0l0,-0.2m1.4,-2.9l0.9,1.1l-1.9,1c0.3,-0.6,0.7,-1.4,1,-2.1m1.1,-2.9l1,0.9l-1.7,1c0.2,-0.6,0.5,-1.3,0.7,-1.9m1,-2.9l0.9,1l-1.5,0.9c0.2,-0.6,0.4,-1.2,0.6,-1.9m0.9,-2.5l0.8,0.8l-1.3,0.7c0.2,-0.5,0.3,-1,0.5,-1.5m1.4,-0.2c-0.1,0.2,-0.1,0.4,-0.2,0.7l-0.7,-0.7l0.9,0m-0.2,-1.8l0.4,0.6l-1.1,0l0.7,-0.6M133,585.2l0.3,0.3l-0.5,0.5c0.1,-0.3,0.2,-0.6,0.2,-0.8m1,-0.3l-0.5,0.5l-0.3,-0.5l0.8,0m0,-3.7l0.7,0.7l-0.9,0.8c0,-0.5,0.1,-1,0.2,-1.5m0.4,-2.3l0.5,0.7l-0.7,0.5c0,-0.4,0.1,-0.8,0.2,-1.2m0.3,-2.4l0.5,0.7l-0.7,0.5c0.1,-0.4,0.1,-0.8,0.2,-1.2m0.3,-2.3l0.4,0.5l-0.5,0.6c0,-0.4,0,-0.7,0.1,-1.1m0.3,-2.5l0.5,0.7l-0.7,0.6c0.1,-0.5,0.1,-0.9,0.2,-1.3m0.2,-2.2l0.5,0.6l-0.6,0.5c0,-0.3,0.1,-0.7,0.1,-1.1m0.2,-2.1l0.4,0.5l-0.5,0.5c0,-0.3,0.1,-0.7,0.1,-1m0.2,-1.9l0.3,0.3l-0.4,0.4c0,-0.2,0.1,-0.5,0.1,-0.7m0.1,-2l0.4,0.4l-0.4,0.4c0,-0.2,0,-0.5,0,-0.8m0.1,-1.5l0.3,0.3l-0.3,0.2c0,-0.2,0,-0.3,0,-0.5m0.2,-1.6l0.2,0.3l-0.3,0.2c0,-0.2,0,-0.3,0.1,-0.5m0.6,-0.9l0.4,0.4l-0.4,0.4l-0.4,-0.4l0.4,-0.4m0,-1.4l0.4,0.5l-0.3,0.2l-0.4,-0.5l0.3,-0.2m0.1,-1.4l0.3,0.4l-0.4,0.3L136.6,557l0.4,-0.3m-0.1,-1.2l0.4,0.3L137,556l-0.3,-0.3l0.2,-0.2m0.2,-1.2l0.2,0.2l-0.3,0.3l-0.2,-0.2l0.3,-0.3m0,-1.3l0.2,0.3l-0.2,0.2l-0.3,-0.3l0.3,-0.2m0.4,4.6c0,0.1,0,0.3,0,0.4l-0.2,-0.2l0.2,-0.2m1,18.4l-0.1,0.1l0.1,0c0.2,2.2,0.5,4.5,0.8,6.8l-2.9,0l-0.1,0c0.4,-2.3,0.7,-4.6,0.9,-6.8l0,-0.1c0.3,-3.2,0.5,-6.2,0.6,-9c0.2,2.8,0.3,5.8,0.7,9m-0.4,-18.4l0.3,0.2l-0.3,0.2c0,-0.1,0,-0.3,0,-0.4m0.5,-4.6l0.2,0.2l-0.2,0.3l-0.3,-0.2l0.3,-0.3m0.1,1.8l-0.4,-0.3l0.3,-0.2l0.3,0.3l-0.2,0.2m-0.1,1.2l-0.2,-0.2l0.3,-0.3l0.3,0.2l-0.4,0.3m0.1,1.4l-0.4,-0.3l0.4,-0.4L139,557l-0.3,0.4m0,1.4l-0.3,-0.2l0.4,-0.5l0.3,0.2l-0.4,0.5m0.1,1.5l-0.4,-0.4l0.3,-0.4l0.5,0.4l-0.4,0.4m0.6,0.6l-0.2,-0.2l0.2,-0.3c0,0.2,0,0.3,0,0.5m0.1,1.1c0,0.2,0,0.3,0,0.5l-0.2,-0.2l0.2,-0.3m0.2,2.3l-0.5,-0.4l0.4,-0.4c0,0.3,0,0.6,0.1,0.8m0.1,1.9l-0.3,-0.4l0.3,-0.3c0,0.2,0,0.5,0,0.7m0.2,2.2l-0.4,-0.5l0.3,-0.5c0.1,0.3,0.1,0.7,0.1,1m0.3,2.2l-0.7,-0.5l0.5,-0.6c0.1,0.4,0.1,0.8,0.2,1.1m0.2,2.4l-0.6,-0.6l0.5,-0.7c0,0.4,0.1,0.8,0.1,1.3m0.3,2.3l-0.6,-0.6l0.5,-0.5c0,0.4,0.1,0.7,0.1,1.1m0.3,2.4l-0.7,-0.5l0.6,-0.7c0,0.4,0.1,0.8,0.1,1.2m0.4,2.4l-0.8,-0.5l0.6,-0.7c0.1,0.4,0.1,0.8,0.2,1.2m0.4,2.6l-1,-0.8l0.7,-0.7c0.1,0.5,0.2,1,0.3,1.5m0.3,2.7l-0.5,-0.5l0.7,0l-0.2,0.5m0.4,-0.2c0.1,0.2,0.2,0.5,0.3,0.8l-0.5,-0.5l0.2,-0.3m-0.8,1.2l0.4,-0.6l0.7,0.6l-1.1,0m0.4,1.9c0,-0.3,-0.1,-0.5,-0.1,-0.7l0.9,0l-0.8,0.7m1.3,-0.5c0.1,0.5,0.3,1,0.5,1.5l-1.3,-0.7l0.8,-0.8m1.5,4.4l-1.6,-0.9l0.9,-1c0.2,0.7,0.5,1.3,0.7,1.9m1.1,2.9l-1.8,-1l1,-0.9c0.3,0.6,0.5,1.3,0.8,1.9m-1,1.8L145,596.8c-0.1,-0.3,-0.3,-0.6,-0.4,-0.8l1.3,0l-0.8,0.9m-1.1,5l0.3,-0.3l0.5,0.8L144,601.9m-0.1,0.2l0.7,0.5l-1.2,0l0.5,-0.5m-1.4,-0.5l0.4,0l0.7,0.4l-0.5,0.5l-1,-0.6l0.4,-0.3m-3.9,-16l-0.6,0.6l0,-1.2l0.6,0.6m0.7,-0.7l-0.5,0.5l-0.5,-0.5l1,0m0.7,-5.2l-0.5,0.6c-0.1,-0.3,-0.1,-0.7,-0.2,-1.1l0.7,0.5m-0.3,-2.4l-0.5,0.7c-0.1,-0.4,-0.1,-0.9,-0.2,-1.3l0.7,0.6m-0.2,-2.5l-0.6,0.6c0,-0.4,0,-0.8,-0.1,-1.1l0.7,0.5m-0.3,-2.4l-0.5,0.6c0,-0.3,0,-0.7,-0.1,-1.1l0.6,0.5m-0.3,-2.2l-0.4,0.4c0,-0.2,0,-0.5,0,-0.7l0.4,0.3m0,-2.2l-0.5,0.6c0,-0.4,0,-0.7,0,-1.1l0.5,0.5m-0.2,-2.1l-0.4,0.5c0,-0.3,0,-0.6,0,-1l0.4,0.5m-0.2,-2l-0.3,0.4c0,-0.2,0,-0.4,0,-0.6l0.3,0.2m0,-1.6l-0.3,0.3c0,-0.2,0,-0.4,0,-0.5l0.3,0.2m-0.3,-1.2c-0.1,-0.2,-0.1,-0.5,-0.1,-0.7l0.3,0.3l-0.2,0.4m0.7,0.8l-0.5,-0.3l0.4,-0.5l0.5,0.4l-0.4,0.4m0,1.7l-0.5,-0.5l0.5,-0.5l0.5,0.4l-0.5,0.6m0.2,1.9l-0.7,-0.7l0.5,-0.5l0.7,0.6l-0.5,0.6m0.1,2.1L138.5,567l0.6,-0.8l0.6,0.6l-0.5,0.8m0,2.2l-0.6,-0.5l0.6,-0.9l0.7,0.6l-0.7,0.8m0.3,2.2l-0.8,-0.8l0.6,-0.7l0.8,0.7l-0.6,0.8m0.3,2.4l-0.9,-0.7l0.7,-0.9l0.9,0.8l-0.7,0.8m0.3,2.4l-1,-0.8l0.8,-0.9l0.8,0.8l-0.6,0.9m0.2,2.5l-0.9,-0.7l0.7,-1l1,0.7l-0.8,1m0.2,2.3l-0.8,-0.7l0.7,-0.9l1,0.7l-0.9,0.9m-0.7,0.8c-0.1,-0.3,-0.1,-0.5,-0.2,-0.8l0.6,0.4l-0.4,0.4m-0.1,4l-1.6,0l0.8,-0.7l0.8,0.7M139,585.6l0.6,-0.6l0.2,1.1L139,585.6m1,-2.7l0.6,-0.6l0.8,0.6l-1.4,0m0.9,2.8l0.4,-0.6l0.2,1.1l-0.6,-0.5m0.1,3.7c-0.1,-0.5,-0.2,-0.9,-0.3,-1.4l1.1,0.6l-0.8,0.8m0.4,0.3l0.7,-0.7c0.1,0.3,0.2,0.5,0.2,0.7l-0.9,0m1.1,0.6c0,0.1,0.1,0.3,0.1,0.5l-0.9,-0.5l0.8,0m0.1,-0.6c-0.1,-0.2,-0.1,-0.5,-0.2,-0.7l1.3,0.7l-1.1,0M143,591c-0.1,-0.3,-0.2,-0.5,-0.3,-0.7l1,0L143,591m0.4,1.5c-0.1,-0.3,-0.1,-0.5,-0.2,-0.8l1.2,0.8l-1,0m0.5,1.3c-0.1,-0.3,-0.2,-0.5,-0.3,-0.8l1.1,0l-0.8,0.8m0.5,1.6c-0.1,-0.2,-0.2,-0.5,-0.3,-0.8l1.5,0.8l-1.2,0m-1,0.6l1,0c0,0.2,0.1,0.4,0.2,0.6L143.4,596m0.4,-1.4c0.1,0.2,0.3,0.5,0.4,0.8l-1.3,0l0.9,-0.8m-0.3,-0.4l-1.1,1c-0.1,-0.6,-0.3,-1.2,-0.5,-1.9l1.6,0.9m-1.8,-1.9c-0.2,-0.5,-0.3,-1.1,-0.4,-1.7l1.3,0.8l-0.9,0.9m1.6,0.7c0.1,0.2,0.2,0.4,0.2,0.7L142.4,593l0.9,0m-1.1,-0.5l0.7,-0.7c0.1,0.2,0.2,0.4,0.2,0.7l-0.9,0m-2,-7.4l0,-0.2l0.9,0l-0.4,0.6l-0.5,-0.4m0.5,0.8l0.6,0.5l-0.9,0l0,-0.2l0.3,-0.3m3.3,15.7l-0.2,0.2l-0.4,-0.2l0.6,0m-1.3,-5.4l2,1.1l-1.1,1.4c-0.3,-0.8,-0.6,-1.7,-0.9,-2.5m-1.1,-11l0.4,0.4l-0.3,0.5l-0.1,-0.9m0.2,2.4c0,0.1,0.1,0.3,0.1,0.5L141,587.6l0.8,0M132,602l0.7,-0.4l0.5,0l0.3,0.3l-1,0.6L132,602m-0.2,0.1l0.4,0.5l-1.2,0l0.8,-0.5m-0.5,-0.5l0.3,0.3l-0.7,0.5l0.4,-0.8M131,596c-0.1,0.2,-0.2,0.5,-0.3,0.8l-0.1,0.1L129.8,596l1.2,0m0.2,-0.6l-1.2,0l1.5,-0.8c-0.1,0.3,-0.2,0.6,-0.3,0.8m0.9,-2.4c-0.1,0.3,-0.2,0.5,-0.3,0.8L130.9,593l1.2,0m0.1,-0.5l-1,0l1.3,-0.8c-0.1,0.3,-0.2,0.5,-0.3,0.8m0.7,-2.2c-0.1,0.2,-0.1,0.4,-0.2,0.7L132,590.3l0.9,0m0.2,-0.6l-1.1,0l1.2,-0.7c0,0.2,-0.1,0.5,-0.1,0.7m0.9,0.6l-1,0.5c0.1,-0.2,0.1,-0.4,0.2,-0.5l0.8,0m0.3,-0.6l-1,0c0.1,-0.2,0.1,-0.4,0.2,-0.7l0.8,0.7m0.6,-1.7c0,0.5,-0.1,0.9,-0.2,1.4l-0.9,-0.8l1.1,-0.6m-0.6,-2.9l0.5,0.6l-0.6,0.5l0.1,-1.1m1,1.1l-0.1,0.2l-0.9,0l0.7,-0.5l0.3,0.3M135,585.5l-0.5,-0.6l1,0l0,0.2l-0.5,0.4m-1.9,5.9l1.3,-0.8c-0.1,0.6,-0.3,1.2,-0.4,1.7l-0.9,-0.9m-0.9,2.8l1.5,-0.9c-0.1,0.7,-0.3,1.3,-0.5,1.9l-1,-1m-0.7,1.2c0.1,-0.3,0.2,-0.6,0.3,-0.8l0.9,0.8l-1.2,0m0.7,0.6l-1.2,0.6c0.1,-0.2,0.2,-0.4,0.3,-0.6l0.9,0m0.3,-3.5c0.1,-0.3,0.1,-0.5,0.2,-0.7l0.7,0.7l-0.9,0m0.8,0.5l-1.2,0.7c0.1,-0.3,0.2,-0.5,0.2,-0.7l1,0m-1.1,8.6l-0.4,0.2l-0.2,-0.2l0.6,0m-0.1,-2.9l-1.2,-1.4l2,-1.1c-0.3,0.8,-0.5,1.7,-0.8,2.5m3.6,-15.8l-1.4,0l0.8,-0.6l0.6,0.6m0.3,-2l-0.9,0.7l-0.8,-0.9l0.9,-0.7l0.8,0.9m0.3,-2.3l-1,0.7l-0.7,-1l0.9,-0.7l0.8,1m0.3,-1.9c0,0.4,-0.1,0.9,-0.1,1.3l-0.6,-0.7l0.7,-0.6m0,-0.7l-1,0.8l-0.7,-0.9l0.9,-0.8l0.8,0.9m0.2,-1.7c0,0.3,0,0.7,-0.1,1.1l-0.5,-0.6l0.6,-0.5m-0.1,-0.6l-0.9,0.7l-0.6,-0.8l0.9,-0.8l0.6,0.9m0.3,-1.8c0,0.4,0,0.8,-0.1,1.1l-0.4,-0.6l0.5,-0.5m-0.1,-0.7l-0.7,0.8l-0.7,-0.8l0.8,-0.7l0.6,0.7m0.3,-1.3c-0.1,0.2,-0.1,0.5,-0.1,0.7l-0.4,-0.4l0.5,-0.3m-0.1,-0.6l-0.7,0.5L135.7,569l0.7,-0.6l0.7,0.9m0.2,-1.8c0,0.4,0,0.7,-0.1,1.1L136.8,568l0.5,-0.5M137.1,567l-0.6,0.6l-0.6,-0.8l0.6,-0.6l0.6,0.8m0.3,-1.6c0,0.4,0,0.7,-0.1,1l-0.4,-0.5l0.5,-0.5m-0.1,-0.6l-0.7,0.7l-0.5,-0.6l0.7,-0.6l0.5,0.5m0.1,-1.1c0,0.2,0,0.4,0,0.6l-0.3,-0.4l0.3,-0.2m-0.1,-0.6l-0.5,0.5L136.3,563l0.4,-0.4l0.6,0.5m0.2,-1c0,0.1,0,0.3,0,0.5l-0.3,-0.3l0.3,-0.2m-0.3,-1.4l0.3,-0.3c0,0.2,0,0.5,0,0.7l-0.3,-0.4m0.1,0.9l-0.5,0.3l-0.5,-0.4l0.5,-0.4l0.5,0.5m-1.1,18.7l-0.5,-0.6l0.6,-0.5c0,0.4,-0.1,0.8,-0.1,1.1m0.6,5.1l-0.5,-0.5l1.1,0l-0.6,0.5m0.2,0.2l0.7,-0.6l0,1.2L137,585.6m-0.2,0.1l0.7,0.7l-1.5,0l0.8,-0.7M135.5,582l0.5,-0.4c0,0.3,-0.1,0.5,-0.1,0.8L135.5,582m0.5,3l0.6,0.6l-0.7,0.5L136,585m-2.4,0.6l0.5,-0.4l-0.2,0.9l-0.3,-0.5m1.1,2l-1,0.5c0.1,-0.2,0.1,-0.4,0.1,-0.5l0.9,0M130,599.2c0.2,-0.5,0.4,-1,0.6,-1.5l1.2,1.5l0.1,-0.1l0,0.1l-1.9,0m0.6,2.5l-0.5,0.8l-0.3,-0.3l0.8,-0.5m-1,0.3l-0.3,-0.4l1,0l-0.7,0.4m0,0.3l0.2,0.3l-0.6,0l0.4,-0.3m-1.3,-0.2l0.7,-0.5l0.4,0.5l-0.7,0.4l-0.4,-0.4m-0.4,-0.5l0.7,0l-0.4,0.3l-0.3,-0.3m0.5,1l-0.7,0l0.4,-0.4l0.3,0.4m5.3,-0.8l-0.2,-0.2l0.6,0l-0.4,0.2m0.9,-0.2l0.6,0l0.3,0.3l-1,0.6L133.9,602l0.7,-0.4m5,0l0.5,0l-0.2,0.2l-0.3,-0.2m-0.5,0l0.6,0.4l-0.4,0.4L138.7,602l0.4,-0.4m-1,0l0.6,0l-0.2,0.3l-0.4,-0.3m-0.3,0.1l0.5,0.3l-0.5,0.5L137.4,602l0.4,-0.3m-0.9,-0.1l0.7,0l-0.4,0.3l-0.3,-0.3m-1.2,0.2l-0.2,-0.2l0.6,0l-0.4,0.2m0.9,-0.2L137,602l-0.6,0.4L135.9,602l0.7,-0.4m-4.2,-2.4c0.8,-2,1.4,-4,1.9,-6.2l0.1,0l0,-0.1c0.2,-0.9,0.4,-1.8,0.6,-2.6l0.1,-0.1l0.1,-0.2l-0.1,-0.2c0.2,-0.7,0.3,-1.5,0.5,-2.2l4.5,0c0.1,0.7,0.3,1.5,0.4,2.2l0,0.2l0.1,0.2l0.1,0.1c0.1,0.8,0.4,1.7,0.6,2.6l0,0.1c0.6,2.2,1.2,4.2,1.9,6.2l-10.8,0m9.3,2.8l-0.5,0.5l-1.1,-0.6l0.4,-0.3l0.5,0l0.7,0.4m-0.2,-0.4l0.6,0l-0.2,0.2l-0.4,-0.2m4.1,-2.4l-1.8,0l-0.1,-0.1l0.1,0.1l1.2,-1.5c0.2,0.5,0.4,1,0.6,1.5m0.3,3l-0.3,0.3l-0.5,-0.8l0.8,0.5m0.4,-0.6L146,602l-0.6,-0.4l0.9,0m0.2,1l-0.6,0l0.2,-0.3l0.4,0.3m0,3.1l-0.4,0.4c-0.1,-0.1,-0.3,-0.2,-0.4,-0.3l0.5,-1.1l0.3,0.5l0,-1.6l-0.3,0L146,603.3l0.5,0l0,-1l-0.3,-0.2l0.3,-0.3l0,-2.6l-0.6,0c-0.2,-0.6,-0.4,-1.1,-0.6,-1.6l1.2,0.7l0,-0.6l-1,-0.5l1,-1.1l0,-1.4c-1.3,-3.2,-2.4,-6.7,-3.4,-9.8l0,-1l0.6,0l0,-1l-1.2,0C141,574.3,140,564.2,139.5,552l0.4,0l0,-3l-0.5,0l0,-0.9l-1.2,0l0,-4.2l-0.7,0l0,4.2l-1.3,0l0,0.9l-0.4,0l0,3l0.4,0c-0.5,12.2,-1.5,22.3,-3,30.9l-1.2,0l0,1l0.6,0l0,1c-1.5,4.7,-3.4,10.3,-5.4,14.3l-1.2,0l0,1.9l-0.2,0.3l-0.7,1.2l-0.1,0l-3.2,5l-6,9.5l-0.3,0l-1.5,2l8.3,0l0,-1.8l4.5,-8.1c0,0,3,-4.6,11,-5c4.2,0.2,6.9,1.5,8.7,2.8l0,-1.3Z" class="g52_211" />
<path d="M137.5,555l0,0.3l-0.2,-0.2Z" class="g52_211" />
<path d="M137.5,553.9l0,0Z" class="g52_211" />
<path d="M138.3,555.1l-0.1,0.2l0,-0.3Z" class="g52_211" />
<path d="M138.2,553.9l0,0Z" class="g52_211" />
<path d="M138.1,552.7l0,-0.1l0.1,0.1Z" class="g52_211" />
<path d="M138.3,556.4l-0.2,0.1l0.1,-0.2Z" class="g52_211" />
<path d="M139,553.8l0,0.2l-0.1,-0.1Z" class="g52_211" />
<path d="M138.9,552.6l0.1,0l0,0.1Z" class="g52_211" />
<path d="M140.5,585.7l-0.2,0.2c0,-0.1,0,-0.3,-0.1,-0.4Z" class="g52_211" />
<path d="M138.1,559.4l0,-0.3l0.2,0.1Z" class="g52_211" />
<path d="M139.1,559.1l0.2,-0.2c0,0.1,0,0.3,0,0.4Z" class="g52_211" />
<path d="M139.1,557.7l0.1,-0.1l0,0.2Z" class="g52_211" />
<path d="M139,556.4l0.1,-0.2l0.1,0.3Z" class="g52_211" />
<path d="M137.3,559.2l0.2,-0.1l0,0.3Z" class="g52_211" />
<path d="M137.5,556.5l-0.1,-0.1l0.1,-0.1Z" class="g52_211" />
<path d="M137.5,552.7l0,0l0,-0.1Z" class="g52_211" />
<path d="M136.7,553.9l-0.1,0.1l0,-0.2Z" class="g52_211" />
<path d="M136.7,552.7l0,-0.1Z" class="g52_211" />
<path d="M136.6,556.4l-0.1,0.1l0,-0.3Z" class="g52_211" />
<path d="M136.5,557.7l-0.1,0.1l0,-0.2Z" class="g52_211" />
<path d="M136.6,559.1l-0.3,0.2l0.1,-0.4Z" class="g52_211" />
<path d="M135.2,585.7l0.2,-0.2c0,0.1,0,0.3,-0.1,0.4Z" class="g52_211" />
<path d="M125.7,608.2L125.5,608l0.5,0Z" class="g52_211" />
<path d="M146.5,596.8l-20.3,0l0,0.7l0.4,0l0,1.4l0.2,0l0,-1.4l2,0l0,1.4l0.3,0l0,-1.4l1.9,0l0,1.4l0.3,0l0,-1.4l1.9,0l0,1.4l0.3,0l0,-1.4l1.9,0l0,1.4l0.3,0l0,-1.4l2,0l0,1.4l0.2,0l0,-1.4l2,0l0,1.4l0.2,0l0,-1.4l2,0l0,1.4l0.2,0l0,-1.4l2,0l0,1.4l0.2,0l0,-1.4l2,0Z" class="g52_211" />
<path d="M146.5,599.3l-20.1,0l0,0.6l20.1,0l0,-0.6Z" class="g52_211" />
<path d="M146.5,600.7l-20.5,0l0,0.4l-0.2,0.3l20.7,0Z" class="g52_211" />
<path d="M145.5,600.5l-0.8,0l0,-1.2l0.8,0l0,1.2Zm-1.2,0l-0.9,0l0,-1.2l0.9,0l0,1.2Zm-1.3,0l-0.8,0l0,-1.2l0.8,0l0,1.2Zm-1.2,0l-0.8,0l0,-1.2l0.8,0l0,1.2Zm-1.2,0l-0.8,0l0,-1.2l0.8,0l0,1.2Zm-1.2,0l-0.8,0l0,-1.2l0.8,0l0,1.2Zm-1.2,0l-0.8,0l0,-1.2l0.8,0l0,1.2Zm-1.2,0l-0.8,0l0,-1.2l0.8,0l0,1.2Zm-1.2,0l-0.8,0l0,-1.2l0.8,0l0,1.2Zm-1.2,0l-0.8,0l0,-1.2l0.8,0l0,1.2Zm-1.2,0l-0.8,0l0,-1.2l0.8,0l0,1.2Zm-1.2,0l-0.8,0l0,-1.2l0.8,0l0,1.2Zm-1.2,0l-0.8,0l0,-1.2l0.8,0l0,1.2Zm-1.2,0l-0.8,0l0,-1.2l0.8,0l0,1.2Zm-1.2,0l-0.8,0l0,-1.2l0.8,0l0,1.2Zm-1.2,0l-0.8,0l0,-1.2l0.8,0l0,1.2Zm19.1,0l-0.6,0l0,-1.2l0.6,0l0,-0.6l-20.5,0l0,2.4l20.5,0Z" class="g52_211" />
<path d="M172.6,618l31.7,0l0,-2.7l-31.7,0l0,2.7Z" class="g40_211" />
<path d="M130.4,618l31.6,0l0,-2.7l-31.6,0l0,2.7Z" class="g40_211" />
<path d="M161.6,619.1l11.1,0l0,-6.2l-11.1,0l0,6.2Z" class="g53_211" />
<path d="M161.6,613.9l11.1,0l0,-0.9l-11.1,0l0,0.9Z" class="g40_211" />
<path d="M161.6,614.9l11.1,0l0,-0.9l-11.1,0l0,0.9Z" class="g40_211" />
<path d="M161.6,615.9l11.1,0l0,-0.8l-11.1,0l0,0.8Z" class="g40_211" />
<path d="M161.6,616.9l11.1,0l0,-0.8l-11.1,0l0,0.8Z" class="g40_211" />
<path d="M161.6,618l11.1,0l0,-0.9l-11.1,0l0,0.9Z" class="g40_211" />
<path d="M161.6,619l11.1,0l0,-0.9l-11.1,0l0,0.9Z" class="g40_211" />
<path d="M181.6,568l-28.7,0c0,5.4,28.7,5.4,28.7,0Z" class="g54_211" />
<path d="M181.6,567.4c-4.8,-2.1,-12,-6.3,-14.3,-8.8c-2.4,2.5,-9.5,6.7,-14.4,8.8c-0.3,0.1,-0.2,0.6,0.2,0.6l28.4,0c0.4,0,0.5,-0.5,0.1,-0.6Z" class="g55_211" />
<path d="M166.8,559.1l1,0l0,-4.9l-1,0l0,4.9Z" class="g56_211" />
<path d="M167.6,554l-0.6,0c-0.7,0,-1.2,0.5,-1.2,1.1l0,1.4c0,0.7,0.5,1.2,1.2,1.2l0.6,0c0.6,0,1.1,-0.5,1.1,-1.2l0,-1.4c0,-0.6,-0.5,-1.1,-1.1,-1.1Z" class="g24_211" />
<path d="M166.6,559.3l1.4,0l0,-0.4l-1.4,0l0,0.4Z" class="g55_211" />
<path d="M166.6,558.7l1.4,0l0,-0.4l-1.4,0l0,0.4Z" class="g55_211" />
<path d="M157.4,576.4l19.7,0l0,-5.5l-19.7,0l0,5.5Z" class="g57_211" />
<path d="M157.4,576.4l19.7,0l0,-1.4l-19.7,0l0,1.4Z" class="g58_211" />
<path d="M151.7,590.4l31.2,0l0,-5.8l-31.2,0l0,5.8Z" class="g57_211" />
<path d="M151.7,590.4l31.2,0l0,-2l-31.2,0l0,2Z" class="g58_211" />
<path d="M181.6,567.4c-9.4,0.3,-19,0.3,-28.7,0c-0.3,0.1,-0.2,0.6,0.2,0.6c9.7,0.5,19.2,0.5,28.4,0c0.4,0,0.5,-0.5,0.1,-0.6Z" class="g59_211" />
<path d="M179.3,566.8c-5,-1.9,-11,-6.9,-11.5,-7.3l-1.1,0c-0.4,0.4,-6.4,5.4,-11.5,7.3l0,0.1l0.1,0.1c3.5,-1.4,7.5,-4.2,9.8,-5.9c-1.9,1.6,-5,4.1,-7.9,5.7l0,0.1l0.1,0.1c3.1,-1.7,6.5,-4.5,8.3,-6.2c-1.4,1.6,-4,4.1,-6.4,6l0,0.1l0,0.1l0.1,0c2.8,-2.2,5.7,-5.2,7,-6.6c-1,1.4,-3,4.1,-5.1,6.4l0,0.2l0.1,-0.1c2.3,-2.5,4.5,-5.5,5.4,-6.7c-0.6,1.2,-1.9,3.9,-3.5,6.6l0,0.2l0.1,-0.1c1.8,-2.9,3.2,-5.8,3.7,-6.8c-0.2,1,-0.9,3.6,-1.8,6.8l0,0.1l0.1,-0.1c1,-3.1,1.6,-5.6,1.9,-6.7c0,0.6,0,1.6,0,3.1c0,1,0,2.2,0,3.6l0,0.1l0.1,0l0.1,-0.1c0,-1.4,0,-2.6,0,-3.6c0,-1.5,0,-2.5,0,-3.1c0.2,1.1,0.9,3.6,1.8,6.7l0.1,0.1l0.1,-0.1c-1,-3.2,-1.6,-5.8,-1.9,-6.8c0.6,1,2,3.9,3.7,6.8l0.1,0.1l0.1,-0.2c-1.6,-2.7,-3,-5.4,-3.6,-6.6c0.9,1.2,3.1,4.2,5.4,6.7l0.1,0.1l0.1,0l0,-0.2c-2.1,-2.3,-4.2,-5,-5.2,-6.4c1.3,1.4,4.3,4.4,7,6.6l0.1,0l0.1,-0.1l0,-0.1c-2.5,-1.9,-5,-4.4,-6.5,-6c1.8,1.7,5.2,4.5,8.4,6.2l0.1,-0.1l-0.1,-0.1c-2.9,-1.6,-6,-4.1,-7.8,-5.7c2.2,1.7,6.2,4.5,9.8,5.9l0.1,-0.1l-0.1,-0.1Z" class="g54_211" />
<path d="M158.4,573.9l3.8,0l0,-2.4l-3.8,0l0,2.4Z" class="g12_211" />
<path d="M163.1,573.9l3.8,0l0,-2.4l-3.8,0l0,2.4Z" class="g12_211" />
<path d="M167.7,573.9l3.8,0l0,-2.4l-3.8,0l0,2.4Z" class="g12_211" />
<path d="M172.3,573.9l3.8,0l0,-2.4l-3.8,0l0,2.4Z" class="g12_211" />
<path d="M153,587.6l3.8,0l0,-2.3l-3.8,0l0,2.3Z" class="g12_211" />
<path d="M157.7,587.6l3.8,0l0,-2.3l-3.8,0l0,2.3Z" class="g12_211" />
<path d="M163,587.6l3.8,0l0,-2.3l-3.8,0l0,2.3Z" class="g12_211" />
<path d="M167.7,587.6l3.8,0l0,-2.3l-3.8,0l0,2.3Z" class="g12_211" />
<path d="M173,587.6l3.9,0l0,-2.3l-3.9,0l0,2.3Z" class="g12_211" />
<path d="M177.7,587.6l3.9,0l0,-2.3l-3.9,0l0,2.3Z" class="g12_211" />
<g clip-path="url(#c3_211)">
<path d="M177.1,570.9l-19.7,0l19.7,0l0,0.2Z" class="g60_211" />
<path d="M177.1,570.9l-19.7,0l0,1.3l1,0l0,-0.7l3.8,0l0,0.7l0.9,0l0,-0.7l3.8,0l0,0.7l0.8,0l0,-0.7l3.8,0l0,0.7l0.8,0l0,-0.7l3.8,0l0,0.7l1,0l0,-1.1Z" class="g61_211" />
</g>
<path d="M162.2,571.5l-3.8,0l0,0.7l3.8,0l0,-0.7Z" class="g62_211" />
<path d="M166.9,571.5l-3.8,0l0,0.7l3.8,0l0,-0.7Z" class="g62_211" />
<path d="M171.5,571.5l-3.8,0l0,0.7l3.8,0l0,-0.7Z" class="g62_211" />
<path d="M176.1,571.5l-3.8,0l0,0.7l3.8,0l0,-0.7Z" class="g62_211" />
<path d="M157.3,576.2c0,0,-4.6,2.8,-7.5,4.7l0,0.9l1.9,2.9l31.2,0l1.8,-2.9l0,-0.9c-2.8,-1.9,-7.5,-4.7,-7.5,-4.7l-19.9,0Z" class="g55_211" />
<path d="M184.7,580.9l-34.8,0c-0.3,0,-0.5,0.2,-0.5,0.4c0,0.3,0.2,0.5,0.5,0.5l34.8,0c0.2,0,0.4,-0.2,0.4,-0.5c0,-0.2,-0.2,-0.4,-0.4,-0.4Z" class="g59_211" />
<path d="M151.7,584.7l31.2,0l1.8,-2.9l-34.9,0Z" class="g54_211" />
<path d="M143.3,613l48,0l0,-14.3l-48,0l0,14.3Z" class="g57_211" />
<path d="M145.3,603.4l5.9,0l0,-4l-5.9,0l0,4Z" class="g12_211" />
<path d="M152.5,603.4l5.9,0l0,-4l-5.9,0l0,4Z" class="g12_211" />
<path d="M160.7,603.4l5.9,0l0,-4l-5.9,0l0,4Z" class="g12_211" />
<path d="M167.9,603.4l5.9,0l0,-4l-5.9,0l0,4Z" class="g12_211" />
<path d="M176.1,603.4l5.9,0l0,-4l-5.9,0l0,4Z" class="g12_211" />
<path d="M183.4,603.4l5.9,0l0,-4l-5.9,0l0,4Z" class="g12_211" />
<path d="M152,590.3c0,0,-7.1,2.8,-11.5,4.7l0,0.9l2.8,2.8l47.9,0l2.9,-2.8l0,-0.9c-4.4,-1.9,-11.6,-4.7,-11.6,-4.7l-30.5,0Z" class="g55_211" />
<path d="M194.2,595l-53.9,0c-0.2,0,-0.4,0.2,-0.4,0.4c0,0.3,0.2,0.5,0.4,0.5l53.9,0c0.3,0,0.5,-0.2,0.5,-0.5c0,-0.2,-0.2,-0.4,-0.5,-0.4Z" class="g59_211" />
<path d="M143.3,598.7l47.9,0l2.9,-2.8l-53.6,0Z" class="g54_211" />
<path d="M165.3,576.1l4,0l0,-7.6l-4,0l0,7.6Z" class="g24_211" />
<path d="M166,575.3l2.5,0l0,-5.9l-2.5,0l0,5.9Z" class="g33_211" />
<path d="M171.3,576.3l1.1,0l0,-5.8l-1.1,0l0,5.8Z" class="g54_211" />
<path d="M162.2,576.3l1.1,0l0,-5.8l-1.1,0l0,5.8Z" class="g54_211" />
<path d="M152,590.3l1.1,0l0,-5.7l-1.1,0l0,5.7Z" class="g54_211" />
<path d="M151.9,585.1l1.3,0l0,-0.4l-1.3,0l0,0.4Z" class="g54_211" />
<path d="M151.9,590.3l1.3,0l0,-0.4l-1.3,0l0,0.4Z" class="g54_211" />
<path d="M161.8,590.3l1.1,0l0,-5.7l-1.1,0l0,5.7Z" class="g54_211" />
<path d="M161.7,585.1l1.3,0l0,-0.4l-1.3,0l0,0.4Z" class="g54_211" />
<path d="M161.7,590.3l1.3,0l0,-0.4l-1.3,0l0,0.4Z" class="g54_211" />
<path d="M171.7,590.3l1,0l0,-5.7l-1,0l0,5.7Z" class="g54_211" />
<path d="M171.5,585.1l1.3,0l0,-0.4l-1.3,0l0,0.4Z" class="g54_211" />
<path d="M171.5,590.3l1.3,0l0,-0.4l-1.3,0l0,0.4Z" class="g54_211" />
<path d="M181.5,590.3l1.1,0l0,-5.7l-1.1,0l0,5.7Z" class="g54_211" />
<path d="M181.4,585.1l1.3,0l0,-0.4l-1.3,0l0,0.4Z" class="g54_211" />
<path d="M181.4,590.3l1.3,0l0,-0.4l-1.3,0l0,0.4Z" class="g54_211" />
<g clip-path="url(#c4_211)">
<path d="M151.7,584.6l0,1.5l0.3,0l0,-1l-0.1,0l0,-0.4l-0.2,0l0,-0.1m31.2,0l0,0.1l-0.2,0l0,0.4l-0.1,0l0,1l0.3,0l0,-1.5m-1.5,0.1l-8.6,0l0,0.4l-0.1,0l0,1l0.3,0l0,-0.8l3.9,0l0,0.8l0.8,0l0,-0.8l3.8,0l0,-0.2l-0.1,0l0,-0.4m-9.9,0l-8.5,0l0,0.4l-0.1,0l0,1l0.1,0l0,-0.8l3.8,0l0,0.8l0.9,0l0,-0.8l3.8,0l0,0.8l0.2,0l0,-1l-0.2,0l0,-0.4m-9.8,0l-8.5,0l0,0.4l-0.1,0l0,0.2l3.7,0l0,0.8l0.9,0l0,-0.8l3.8,0l0,0.8l0.3,0l0,-1l-0.1,0Z" class="g61_211" />
</g>
<path d="M156.8,585.3l-3.7,0l0,0.8l3.7,0l0,-0.8Z" class="g62_211" />
<path d="M161.5,585.3l-3.8,0l0,0.8l3.8,0l0,-0.8Z" class="g62_211" />
<path d="M166.8,585.3l-3.8,0l0,0.8l3.8,0l0,-0.8Z" class="g62_211" />
<path d="M171.5,585.3l-3.8,0l0,0.8l3.8,0l0,-0.8Z" class="g62_211" />
<path d="M176.9,585.3l-3.9,0l0,0.8l3.9,0l0,-0.8Z" class="g62_211" />
<path d="M181.5,585.3l-3.8,0l0,0.8l3.8,0l0,-0.8Z" class="g62_211" />
<path d="M182.9,584.6l-31.2,0l0,0.1l0.2,0l0,-0.1l0.1,0l1.1,0l0.1,0l0,0.1l8.5,0l0,-0.1l0.1,0l1.1,0l0.1,0l0,0.1l8.5,0l0,-0.1l0.2,0l1,0l0.1,0l0,0.1l8.6,0l0,-0.1l0.1,0l1.1,0l0.1,0l0,0.1l0.2,0l0,-0.1Z" class="g60_211" />
<path d="M153.1,584.6l-1.1,0l1.1,0Zm0,0.5l-1.1,0l0,1l1.1,0l0,-0.8Z" class="g60_211" />
<path d="M153.2,584.7l-0.1,0l-1.1,0l-0.1,0l0,0.4l0.1,0l1.1,0l0.1,0l0,-0.4Z" class="g60_211" />
<path d="M162.9,584.6l-1.1,0l1.1,0Zm0,0.5l-1.1,0l0,1l1.1,0l0,-1Z" class="g60_211" />
<path d="M163,584.7l-0.1,0l-1.1,0l-0.1,0l0,0.4l0.1,0l1.1,0l0.1,0l0,-0.4Z" class="g60_211" />
<path d="M172.7,584.6l-1,0l1,0Zm0,0.5l-1,0l0,1l1,0l0,-1Z" class="g60_211" />
<path d="M172.8,584.7l-0.1,0l-1,0l-0.2,0l0,0.4l0.2,0l1,0l0.1,0l0,-0.4Z" class="g60_211" />
<path d="M182.6,584.6l-1.1,0l1.1,0Zm0,0.5l-1.1,0l0,0.2l0,0.8l1.1,0Z" class="g60_211" />
<path d="M182.7,584.7l-0.1,0l-1.1,0l-0.1,0l0,0.4l0.1,0l1.1,0l0.1,0l0,-0.4Z" class="g60_211" />
<path d="M143.3,613l48,0l0,-6.8l-48,0l0,6.8Z" class="g58_211" />
<path d="M143.7,612.4l3.5,0l0,-5.6l-3.5,0l0,5.6Z" class="g63_211" />
<path d="M147.6,612.4l3.6,0l0,-5.6l-3.6,0l0,5.6Z" class="g63_211" />
<path d="M151.6,612.4l3.6,0l0,-5.6l-3.6,0l0,5.6Z" class="g64_211" />
<path d="M155.6,612.4l3.5,0l0,-5.6l-3.5,0l0,5.6Z" class="g63_211" />
<path d="M159.5,612.4l3.6,0l0,-5.6l-3.6,0l0,5.6Z" class="g63_211" />
<path d="M167.5,606.8l-4,0l0,5.6l4,0l0.3,0l3.2,0l0,-5.6l-3.2,0Z" class="g64_211" />
<path d="M171.4,612.4l3.6,0l0,-5.6l-3.6,0l0,5.6Z" class="g63_211" />
<path d="M175.4,612.4l3.6,0l0,-5.6l-3.6,0l0,5.6Z" class="g63_211" />
<path d="M179.4,612.4l3.5,0l0,-5.6l-3.5,0l0,5.6Z" class="g64_211" />
<path d="M183.4,612.4l3.5,0l0,-5.6l-3.5,0l0,5.6Z" class="g63_211" />
<path d="M187.3,612.4l3.6,0l0,-5.6l-3.6,0l0,5.6Z" class="g63_211" />
<path d="M186.6,605.5l3.7,0l0,-1.4l-3.7,0l0,1.4Z" class="g58_211" />
<path d="M181.9,605.5l3.7,0l0,-1.4l-3.7,0l0,1.4Z" class="g58_211" />
<path d="M177.2,605.5l3.7,0l0,-1.4l-3.7,0l0,1.4Z" class="g58_211" />
<path d="M172.5,605.5l3.7,0l0,-1.4l-3.7,0l0,1.4Z" class="g58_211" />
<path d="M167.8,605.5l3.7,0l0,-1.4l-3.7,0l0,1.4Z" class="g58_211" />
<path d="M163.1,605.5l3.7,0l0,-1.4l-3.7,0l0,1.4Z" class="g58_211" />
<path d="M158.4,605.5l3.7,0l0,-1.4l-3.7,0l0,1.4Z" class="g58_211" />
<path d="M153.6,605.5l3.7,0l0,-1.4l-3.7,0l0,1.4Z" class="g58_211" />
<path d="M148.9,605.5l3.7,0l0,-1.4l-3.7,0l0,1.4Z" class="g58_211" />
<path d="M144.2,605.5l3.7,0l0,-1.4l-3.7,0l0,1.4Z" class="g58_211" />
<path d="M143.3,613.1l1.9,0l0,-14.4l-1.9,0l0,14.4Z" class="g54_211" />
<path d="M143.1,599.7l2.3,0l0,-1l-2.3,0l0,1Z" class="g54_211" />
<path d="M143.1,613.1l2.3,0l0,-1.1l-2.3,0l0,1.1Z" class="g54_211" />
<path d="M143.3,602.3l1.9,0l0,-2.2l-1.9,0l0,2.2Z" class="g24_211" />
<path d="M143.3,603.3l1.9,0l0,-0.4l-1.9,0l0,0.4Z" class="g24_211" />
<path d="M158.7,613.1l1.8,0l0,-14.4l-1.8,0l0,14.4Z" class="g54_211" />
<path d="M158.5,599.7l2.2,0l0,-1l-2.2,0l0,1Z" class="g54_211" />
<path d="M158.5,613.1l2.2,0l0,-1.1l-2.2,0l0,1.1Z" class="g54_211" />
<path d="M158.7,602.3l1.8,0l0,-2.2l-1.8,0l0,2.2Z" class="g24_211" />
<path d="M158.7,603.3l1.8,0l0,-0.4l-1.8,0l0,0.4Z" class="g24_211" />
<path d="M174,613.1l1.9,0l0,-14.4l-1.9,0l0,14.4Z" class="g54_211" />
<path d="M173.8,599.7l2.3,0l0,-1l-2.3,0l0,1Z" class="g54_211" />
<path d="M173.8,613.1l2.3,0l0,-1.1l-2.3,0l0,1.1Z" class="g54_211" />
<path d="M174,602.3l1.9,0l0,-2.2l-1.9,0l0,2.2Z" class="g24_211" />
<path d="M174,603.3l1.9,0l0,-0.4l-1.9,0l0,0.4Z" class="g24_211" />
<path d="M189.4,613.1l1.9,0l0,-14.4l-1.9,0l0,14.4Z" class="g54_211" />
<path d="M189.2,599.7l2.2,0l0,-1l-2.2,0l0,1Z" class="g54_211" />
<path d="M189.2,613.1l2.2,0l0,-1.1l-2.2,0l0,1.1Z" class="g54_211" />
<path d="M189.4,602.3l1.9,0l0,-2.2l-1.9,0l0,2.2Z" class="g24_211" />
<path d="M189.4,603.3l1.9,0l0,-0.4l-1.9,0l0,0.4Z" class="g24_211" />
<g clip-path="url(#c5_211)">
<path d="M189.2,598.7l-13.1,0l0,1l-0.2,0l0,0.4l0,0.8l0.2,0l0,-1.5l5.9,0l0,1.5l1.4,0l0,-1.5l5.8,0l0,-0.7m0.2,1l-0.1,0l0,1.2l0.1,0l0,-1.2Z" class="g61_211" />
</g>
<path d="M182,599.4l-5.9,0l0,1.5l5.9,0l0,-1.5Z" class="g62_211" />
<g clip-path="url(#c5_211)">
<path d="M189.2,599.4l-5.8,0l0,1.5l5.9,0l0,-1.2l-0.1,0Z" class="g62_211" />
<path d="M189.2,598.7l-13.1,0l13.1,0Z" class="g60_211" />
<path d="M173.8,598.7l-13.1,0l0,1l-0.2,0l0,0.4l0,0.8l0.2,0l0,-1.5l5.9,0l0,1.5l1.3,0l0,-1.5l5.9,0l0,1.5l0.2,0l0,-1.2l-0.2,0Z" class="g61_211" />
</g>
<path d="M166.6,599.4l-5.9,0l0,1.5l5.9,0l0,-1.5Z" class="g62_211" />
<path d="M173.8,599.4l-5.9,0l0,1.5l5.9,0l0,-1.5Z" class="g62_211" />
<g clip-path="url(#c5_211)">
<path d="M173.8,598.7l-13.1,0l13.1,0Z" class="g60_211" />
<path d="M158.5,598.7l-13.1,0l0,0.7l5.8,0l0,1.5l1.3,0l0,-1.5l5.9,0l0,1.5l0.3,0l0,-1.2l-0.2,0l0,-1m-13.2,1l-0.1,0l0,0.4l0,0.8l0.1,0Z" class="g61_211" />
<path d="M151.2,599.4l-5.8,0l0,0.3l-0.1,0l0,1.2l5.9,0Z" class="g62_211" />
</g>
<path d="M158.4,599.4l-5.9,0l0,1.5l5.9,0l0,-1.5Z" class="g62_211" />
<g clip-path="url(#c5_211)">
<path d="M158.5,598.7l-13.1,0l13.1,0Z" class="g60_211" />
</g>
<path d="M143.3,599.7l0,0l0,1.2l0,-1.2Z" class="g61_211" />
<path d="M145.2,599.7l-1.9,0l0,1.2l0,-0.8l1.9,0Z" class="g60_211" />
<g clip-path="url(#c5_211)">
<path d="M145.4,598.7l-2.1,0l0,1l1.9,0l0.1,0l0.1,0l0,-0.3l0,-0.7Z" class="g60_211" />
</g>
<path d="M145.2,600.1l0,0l-1.9,0l0,0.8l1.9,0Z" class="g65_211" />
<path d="M160.5,599.7l-1.8,0l0,1.2l0,-0.8l1.8,0Z" class="g60_211" />
<g clip-path="url(#c5_211)">
<path d="M160.7,598.7l-2.2,0l0,1l0.2,0l1.8,0l0.2,0l0,-1Z" class="g60_211" />
</g>
<path d="M160.5,600.1l0,0l-1.8,0l0,0.8l1.8,0Z" class="g65_211" />
<path d="M175.9,599.7l-1.9,0l0,1.2l0,-0.8l1.9,0Z" class="g60_211" />
<g clip-path="url(#c5_211)">
<path d="M176.1,598.7l-2.3,0l0,1l0.2,0l1.9,0l0.2,0l0,-1Z" class="g60_211" />
</g>
<path d="M175.9,600.1l0,0l-1.9,0l0,0.8l1.9,0Z" class="g65_211" />
<path d="M191.2,599.7l-1.8,0l0,1.2l0,-0.8l1.8,0Z" class="g60_211" />
<g clip-path="url(#c5_211)">
<path d="M191.2,598.7l-2,0l0,0.7l0,0.3l0.1,0l0.1,0l1.8,0Z" class="g60_211" />
</g>
<path d="M191.3,600.1l-1.9,0l0,0.8l1.9,0l0,-0.8Z" class="g65_211" />
<path d="M159.9,613.3l0.8,0l0,-1.7l-0.8,0l0,1.7Z" class="g57_211" />
<path d="M158.2,613.3l0.8,0l0,-1.7l-0.8,0l0,1.7Z" class="g57_211" />
<path d="M155,613.3l0.7,0l0,-1.7l-0.7,0l0,1.7Z" class="g57_211" />
<path d="M153.3,613.3l0.8,0l0,-1.7l-0.8,0l0,1.7Z" class="g57_211" />
<path d="M150.1,613.3l0.7,0l0,-1.7l-0.7,0l0,1.7Z" class="g57_211" />
<path d="M148.4,613.3l0.7,0l0,-1.7l-0.7,0l0,1.7Z" class="g57_211" />
<path d="M145.1,613.3l0.8,0l0,-1.7l-0.8,0l0,1.7Z" class="g57_211" />
<path d="M143.5,613.3l0.7,0l0,-1.7l-0.7,0l0,1.7Z" class="g57_211" />
<path d="M140.2,613.3l0.7,0l0,-1.7l-0.7,0l0,1.7Z" class="g57_211" />
<path d="M138.5,613.3l0.8,0l0,-1.7l-0.8,0l0,1.7Z" class="g57_211" />
<path d="M135.3,613.3l0.7,0l0,-1.7l-0.7,0l0,1.7Z" class="g57_211" />
<path d="M133.6,613.3l0.8,0l0,-1.7l-0.8,0l0,1.7Z" class="g57_211" />
<path d="M161.5,612.8l-4.2,0l0,-1l4.2,0l0,1Zm-5,0l-4.1,0l0,-1l4.1,0l0,1Zm-4.9,0l-4.2,0l0,-1l4.2,0l0,1Zm-4.9,0l-4.2,0l0,-1l4.2,0l0,1Zm-4.9,0l-4.2,0l0,-1l4.2,0l0,1Zm-5,0l-3.9,0l0,-1l3.9,0l0,1Zm24.7,-2l-4.2,0l0,-0.8l-0.8,0l0,0.8l-4.1,0l0,-0.8l-0.8,0l0,0.8l-4.2,0l0,-0.8l-0.7,0l0,0.8l-4.2,0l0,-0.8l-0.7,0l0,0.8l-4.2,0l0,-0.8l-0.8,0l0,0.8l-3.9,0l0,-0.8l-0.8,0l0,0.8l0,1l0,1l0,2l0.8,0l3.9,0l0.8,0l4.2,0l0.7,0l4.2,0l0.7,0l4.2,0l0.8,0l4.1,0l0.8,0l4.2,0l0.7,0l0,-2l0,-1l0,-1l0,-0.8l-0.7,0Z" class="g66_211" />
<path d="M200.1,613.3l0.7,0l0,-1.7l-0.7,0l0,1.7Z" class="g57_211" />
<path d="M198.4,613.3l0.8,0l0,-1.7l-0.8,0l0,1.7Z" class="g57_211" />
<path d="M195.2,613.3l0.7,0l0,-1.7l-0.7,0l0,1.7Z" class="g57_211" />
<path d="M193.5,613.3l0.7,0l0,-1.7l-0.7,0l0,1.7Z" class="g57_211" />
<path d="M190.2,613.3l0.8,0l0,-1.7l-0.8,0l0,1.7Z" class="g57_211" />
<path d="M188.6,613.3l0.7,0l0,-1.7l-0.7,0l0,1.7Z" class="g57_211" />
<path d="M185.3,613.3l0.7,0l0,-1.7l-0.7,0l0,1.7Z" class="g57_211" />
<path d="M183.6,613.3l0.8,0l0,-1.7l-0.8,0l0,1.7Z" class="g57_211" />
<path d="M180.4,613.3l0.7,0l0,-1.7l-0.7,0l0,1.7Z" class="g57_211" />
<path d="M178.7,613.3l0.8,0l0,-1.7l-0.8,0l0,1.7Z" class="g57_211" />
<path d="M175.4,613.3l0.8,0l0,-1.7l-0.8,0l0,1.7Z" class="g57_211" />
<path d="M173.8,613.3l0.7,0l0,-1.7l-0.7,0l0,1.7Z" class="g57_211" />
<path d="M201.7,612.8l-4.2,0l0,-1l4.2,0l0,1Zm-5,0l-4.2,0l0,-1l4.2,0l0,1Zm-4.9,0l-4.2,0l0,-1l4.2,0l0,1Zm-4.9,0l-4.2,0l0,-1l4.2,0l0,1Zm-5,0l-4.1,0l0,-1l4.1,0l0,1Zm-4.9,0l-3.9,0l0,-1l3.9,0l0,1Zm24.7,-2l-4.2,0l0,-0.8l-0.8,0l0,0.8l-4.2,0l0,-0.8l-0.7,0l0,0.8l-4.2,0l0,-0.8l-0.7,0l0,0.8l-4.2,0l0,-0.8l-0.8,0l0,0.8l-4.1,0l0,-0.8l-0.8,0l0,0.8l-3.9,0l0,-0.8l-0.8,0l0,0.8l0,1l0,1l0,2l0.8,0l3.9,0l0.8,0l4.1,0l0.8,0l4.2,0l0.7,0l4.2,0l0.7,0l4.2,0l0.8,0l4.2,0l0.7,0l0,-2l0,-1l0,-1l0,-0.8l-0.7,0Z" class="g66_211" />
<path d="M161.4,617l-0.9,0l0,-1.1l0.9,0l0,1.1Zm-1.7,0l-1,0l0,-1.1l1,0l0,1.1Zm-1.8,0l-1,0l0,-1.1l1,0l0,1.1Zm-1.8,0l-0.9,0l0,-1.1l0.9,0l0,1.1Zm-1.7,0l-1,0l0,-1.1l1,0l0,1.1Zm-1.8,0l-1,0l0,-1.1l1,0l0,1.1Zm-1.8,0l-0.9,0l0,-1.1l0.9,0l0,1.1Zm-1.7,0l-1,0l0,-1.1l1,0l0,1.1Zm-1.8,0l-1,0l0,-1.1l1,0l0,1.1Zm-1.8,0l-0.9,0l0,-1.1l0.9,0l0,1.1Zm-1.7,0l-1,0l0,-1.1l1,0l0,1.1Zm-1.8,0l-1,0l0,-1.1l1,0l0,1.1Zm-1.8,0l-0.9,0l0,-1.1l0.9,0l0,1.1Zm-1.7,0l-1,0l0,-1.1l1,0l0,1.1Zm-1.8,0l-1,0l0,-1.1l1,0l0,1.1Zm-1.8,0l-0.9,0l0,-1.1l0.9,0l0,1.1Zm-1.7,0l-1,0l0,-1.1l1,0l0,1.1Zm-1.8,0l-0.8,0l0,-1.1l0.8,0l0,1.1Zm30,-2.2l-4.5,0l0,-0.8l-0.8,0l0,0.8l-4.5,0l0,-0.8l-0.8,0l0,0.8l-4.5,0l0,-0.8l-0.8,0l0,0.8l-4.5,0l0,-0.8l-0.8,0l0,0.8l-4.5,0l0,-0.8l-0.8,0l0,0.8l-4.3,0l0,-0.8l-0.8,0l0,0.8l0,1.1l0,1.1l0,2.1l32.4,0l0,-2.1l0,-1.1l0,-1.1l0,-0.8l-0.8,0Z" class="g67_211" />
<path d="M204,617l-0.9,0l0,-1.1l0.9,0l0,1.1Zm-1.7,0l-1,0l0,-1.1l1,0l0,1.1Zm-1.8,0l-1.1,0l0,-1.1l1.1,0l0,1.1Zm-1.9,0l-0.8,0l0,-1.1l0.8,0l0,1.1Zm-1.7,0l-0.9,0l0,-1.1l0.9,0l0,1.1Zm-1.7,0l-1.1,0l0,-1.1l1.1,0l0,1.1Zm-1.9,0l-0.9,0l0,-1.1l0.9,0l0,1.1Zm-1.7,0l-1,0l0,-1.1l1,0l0,1.1Zm-1.8,0l-1,0l0,-1.1l1,0l0,1.1Zm-1.8,0l-0.9,0l0,-1.1l0.9,0l0,1.1Zm-1.7,0l-1,0l0,-1.1l1,0l0,1.1Zm-1.8,0l-1,0l0,-1.1l1,0l0,1.1Zm-1.8,0l-0.9,0l0,-1.1l0.9,0l0,1.1Zm-1.7,0l-1,0l0,-1.1l1,0l0,1.1Zm-1.8,0l-1,0l0,-1.1l1,0l0,1.1Zm-1.8,0l-0.9,0l0,-1.1l0.9,0l0,1.1Zm-1.7,0l-1,0l0,-1.1l1,0l0,1.1Zm-1.8,0l-0.8,0l0,-1.1l0.8,0l0,1.1ZM204,614.8l-4.6,0l0,-0.8l-0.8,0l0,0.8l-4.5,0l0,-0.8l-0.8,0l0,0.8l-4.5,0l0,-0.8l-0.8,0l0,0.8l-4.5,0l0,-0.8l-0.8,0l0,0.8l-4.5,0l0,-0.8l-0.8,0l0,0.8l-4.3,0l0,-0.8l-0.8,0l0,0.8l0,1.1l0,1.1l0,2.1l32.5,0l0,-2.1l0,-1.1l0,-1.1l0,-0.8l-0.8,0Z" class="g67_211" />
<path d="M213.4,588.8l2,1.2l1,-4.4c0.2,-0.6,0.1,-1.2,-0.1,-1.7l-2.6,-6.2l-1.1,-0.1l0.8,11.2Z" class="g68_211" />
<path d="M213.6,589.7l1.7,1l0.3,-1.4l-2,-1Z" class="g46_211" />
<path d="M215.5,589.5l0.1,-0.2l-2,-1l0,0.3Z" class="g10_211" />
<path d="M213.3,577.3l0,0l-0.7,0.3l0.2,2.6l-0.2,-2.6l0.8,0.1l-0.1,-0.4m-0.2,7.7l0,0l0.3,3.8L213.1,585Z" class="g69_211" />
<path d="M212.8,580.2l0.3,4.8l-0.3,-4.8Z" class="g70_211" />
<g clip-path="url(#c6_211)">
<path d="M213.6,588.9l0,0.8l0.6,0.4l-0.6,-0.4l0,-0.8Z" class="g69_211" />
</g>
<path d="M212.6,577.6l0.2,2.6l0.3,4.8l0.3,3.8l0.2,0.1l0,-0.6l0.6,0.3l0,-1.3l-0.3,0l0,-0.1c0.3,-0.2,0.4,-0.5,0.4,-0.8c0,-0.5,-0.2,-0.8,-0.5,-0.9l0.5,-0.7l0.1,-0.3l-0.8,-6.3l-0.2,-0.5l-0.8,-0.1Z" class="g71_211" />
<path d="M213.6,588.3l0,0.6l0,0.8l0.6,0.4l0,-1.2l-0.6,-0.3l0,-0.3l0.6,0.3Z" class="g72_211" />
<path d="M213.6,588.3l0,0.3l0.6,0.3l0,-0.3Z" class="g69_211" />
<path d="M201.8,595.9l0.1,1.6l0.9,0.6l0.3,-0.2l0.3,-2Z" class="g73_211" />
<path d="M201.8,596.5l1.1,0l-0.1,1.6l0.3,-0.2l0.3,-2l-1.6,0Z" class="g74_211" />
<path d="M210.5,617l4,-0.3l-1.6,-22.5l-1.9,0.1l0,-0.8l-5.3,0l0,0.8l-2.3,-0.1l-1.6,22.5l4,0.3l1.9,-18.2l0.8,0Z" class="g46_211" />
<path d="M202.5,616.5c0,0,-1.8,0.3,-2.7,2l0.1,0.6l4.6,0c0.3,0,0.5,-0.2,0.5,-0.5l0,-2.2Z" class="g75_211" />
<path d="M200.4,618.4c0,0,0.7,-1.2,1.7,-1.2c0,0,0.2,0.7,0.4,0.8c0.3,0.1,0.4,0.3,0.4,0.3Z" class="g19_211" />
<path d="M213.6,616.5c0,0,1.9,0.3,2.7,2l-0.1,0.6l-4.6,0c-0.3,0,-0.5,-0.2,-0.5,-0.5l0,-2.2Z" class="g75_211" />
<path d="M215.7,618.4c0,0,-0.7,-1.2,-1.6,-1.2c0,0,-0.2,0.7,-0.5,0.8c-0.3,0.1,-0.4,0.3,-0.4,0.3Z" class="g19_211" />
<path d="M203.7,595.2l0,-14.5c0.2,-1.4,1.5,-1.7,1.8,-1.7l-0.1,-0.5l0,-0.2l0,-0.4l-0.2,-1.1c-1.2,0.1,-3.4,1.1,-3.7,3.7l0,14.7Z" class="g76_211" />
<path d="M209.3,576.8l-2.3,0l0,-2.6l2.3,0l0,2.6Z" class="g73_211" />
<path d="M209.3,574.2l0,2c-0.3,0.1,-0.6,0.2,-0.9,0.2l-0.5,0c-0.3,0,-0.6,-0.1,-0.9,-0.2l0,-2Z" class="g77_211" />
<path d="M212.2,566.8l0,4.2c0,0.5,-0.1,1,-0.3,1.4c-0.5,1,-1.6,1.7,-2.8,1.7l-2,0c-1.2,0,-2.2,-0.7,-2.7,-1.7C204.2,572,204,571.5,204,571l0,-4.2c0,-2.1,1.7,-3.8,3.8,-3.8l0.7,0c2.1,0,3.7,1.7,3.7,3.8Z" class="g78_211" />
<path d="M211.9,572.4c-0.5,1,-1.6,1.7,-2.8,1.7l-2,0c-1.2,0,-2.2,-0.7,-2.7,-1.7c0.6,-1.3,1.9,-2.2,3.4,-2.2l0.7,0c1.5,0,2.8,0.9,3.4,2.2Z" class="g46_211" />
<path d="M210.5,573.4c0,0,0.4,0,0.6,-0.6c0,0,-0.1,-0.4,-0.4,-0.4Z" class="g74_211" />
<path d="M205.7,573.4c0,0,-0.3,0,-0.5,-0.5c0,0,0.1,-0.5,0.4,-0.4Z" class="g74_211" />
<path d="M208.4,576l-0.5,0c-1.1,0,-2,-0.8,-2,-1.9l0,-1.5c0,-0.5,0.3,-0.9,0.7,-1c1.1,-0.3,2.1,-0.4,3.1,0c0.4,0.1,0.7,0.5,0.7,1l0,1.5c0,1.1,-0.9,1.9,-2,1.9Z" class="g73_211" />
<path d="M210.1,573.6c0,0.8,-0.6,1.4,-1.4,1.4l-1.2,0c-0.7,0,-1.3,-0.6,-1.3,-1.4l0,-1.5l-0.3,0.3l0,0.2l0,1.5c0,0.3,0.1,0.7,0.3,1c0.3,0.3,0.8,0.5,1.3,0.5l1.2,0c0.6,0,1,-0.2,1.4,-0.5c0.2,-0.3,0.3,-0.7,0.3,-1l0,-1.5l-0.1,-0.3l-0.2,-0.2Z" class="g74_211" />
<path d="M209.7,571.6c-1,-0.4,-2,-0.3,-3.1,0c-0.4,0.1,-0.7,0.5,-0.7,1l0,0.6c0,-0.4,0.3,-0.8,0.7,-1c1.1,-0.3,2.1,-0.3,3.1,0c0.4,0.2,0.7,0.6,0.7,1l0,-0.6c0,-0.5,-0.3,-0.9,-0.7,-1Z" class="g74_211" />
<path d="M208.7,575.3l-1.2,0c-1,0,-1.9,-0.8,-1.9,-1.9l0,-0.9l0.6,-0.7l0,1.6c0,0.7,0.6,1.3,1.3,1.3l1.2,0c0.8,0,1.4,-0.6,1.4,-1.3l0,-1.6l0.6,0.6l0,1c0,1.1,-0.9,1.9,-2,1.9Z" class="g79_211" />
<path d="M208.7,575.1l-1.2,0c-1,0,-1.9,-0.9,-1.9,-1.9l0,0.2c0,1.1,0.9,1.9,1.9,1.9l1.2,0c1.1,0,2,-0.8,2,-1.9l0,-0.2c0,1,-0.9,1.9,-2,1.9Z" class="g80_211" />
<path d="M210.7,572.9l0,-0.5l-0.6,-0.6l0,0.6c0.3,0.1,0.5,0.3,0.6,0.5Z" class="g81_211" />
<path d="M206.2,572.4l0,-0.6l-0.6,0.7l0,0.5c0.1,-0.2,0.3,-0.5,0.6,-0.6Z" class="g81_211" />
<path d="M206.6,571.6c0,0,0.6,-0.4,1,-0.2l0,0.3Z" class="g82_211" />
<path d="M209.7,571.6c0,0,-0.6,-0.4,-1,-0.2l0,0.3Z" class="g82_211" />
<path d="M208.5,574.4l-0.4,0.1l-0.3,-0.1l-0.3,0l0.3,-0.1l0.3,0l0.5,0l0.2,0.1Z" class="g83_211" />
<path d="M207.8,574.4l0.3,0.1l0.4,-0.1l0.3,0l-0.2,0.2l-0.3,0.1l-0.3,0l-0.4,-0.1l-0.1,-0.2Z" class="g84_211" />
<path d="M203.7,595.2l0,-14.5c0.2,-1.4,1.5,-1.7,1.8,-1.7l-0.1,-0.5l-0.9,0.2c-1.2,0.3,-2,1.3,-2,2.5l0,14Z" class="g68_211" />
<path d="M213.1,596.6L213,578.9c0,-0.9,-0.6,-1.6,-1.4,-1.8l-1.8,-0.5l-3.3,0l-1.8,0.5c-0.8,0.2,-1.4,0.9,-1.4,1.8l-0.1,17.7Z" class="g76_211" />
<path d="M208.2,576.4l-0.2,0l0,0.9l0.2,0l0,-0.9Z" class="g10_211" />
<path d="M208,596.6l0,-19.1l0.4,-0.2l-0.1,-0.2l-0.5,0.3l0,0.1l0,19.1Z" class="g10_211" />
<path d="M208.1,576.4l-1.7,-0.5l0,1l1.6,0.5l0.1,0l0.1,0l1.6,-0.5l0,-1Z" class="g10_211" />
<path d="M206.5,576.9l1.6,0.4l0,-0.9L206.5,576Z" class="g78_211" />
<path d="M209.7,576.9l-1.6,0.4l0,-0.9l1.6,-0.4Z" class="g78_211" />
<path d="M208.8,578.2c0,0.2,-0.1,0.3,-0.3,0.3c-0.2,0,-0.4,-0.1,-0.4,-0.3c0,-0.2,0.2,-0.4,0.4,-0.4c0.2,0,0.3,0.2,0.3,0.4Z" class="g10_211" />
<path d="M208.8,579.1c0,0.2,-0.1,0.3,-0.3,0.3c-0.2,0,-0.4,-0.1,-0.4,-0.3c0,-0.2,0.2,-0.4,0.4,-0.4c0.2,0,0.3,0.2,0.3,0.4Z" class="g10_211" />
<path d="M208.8,580.9c0,0.2,-0.1,0.4,-0.3,0.4c-0.2,0,-0.4,-0.2,-0.4,-0.4c0,-0.1,0.2,-0.3,0.4,-0.3c0.2,0,0.3,0.2,0.3,0.3Z" class="g10_211" />
<path d="M208.8,581.9c0,0.1,-0.1,0.3,-0.3,0.3c-0.2,0,-0.4,-0.2,-0.4,-0.3c0,-0.2,0.2,-0.4,0.4,-0.4c0.2,0,0.3,0.2,0.3,0.4Z" class="g10_211" />
<path d="M208.8,583.7c0,0.2,-0.1,0.4,-0.3,0.4c-0.2,0,-0.4,-0.2,-0.4,-0.4c0,-0.2,0.2,-0.3,0.4,-0.3c0.2,0,0.3,0.1,0.3,0.3Z" class="g10_211" />
<path d="M208.8,584.6c0,0.2,-0.1,0.4,-0.3,0.4c-0.2,0,-0.4,-0.2,-0.4,-0.4c0,-0.2,0.2,-0.3,0.4,-0.3c0.2,0,0.3,0.1,0.3,0.3Z" class="g10_211" />
<path d="M208.8,586.5c0,0.1,-0.1,0.3,-0.3,0.3c-0.2,0,-0.4,-0.2,-0.4,-0.3c0,-0.2,0.2,-0.4,0.4,-0.4c0.2,0,0.3,0.2,0.3,0.4Z" class="g10_211" />
<path d="M208.8,587.4c0,0.2,-0.1,0.3,-0.3,0.3c-0.2,0,-0.4,-0.1,-0.4,-0.3c0,-0.2,0.2,-0.4,0.4,-0.4c0.2,0,0.3,0.2,0.3,0.4Z" class="g10_211" />
<path d="M213,589.7l-9.8,0l0,-1.3l9.8,0l0,1.3Z" class="g10_211" />
<path d="M205.9,577.3l-3.5,0.9l-0.1,-0.8l3.5,-0.9Z" class="g78_211" />
<path d="M210.4,577.3l3.5,0.9l0.1,-0.8l-3.5,-0.9Z" class="g78_211" />
<path d="M203.3,594.3l-2,0l0,1.9l2,0l0,-1.9Z" class="g46_211" />
<path d="M203.1,594.5l-0.6,0l0,-1.1l0.6,0l0,1.1Z" class="g40_211" />
<path d="M203.3,594.8l0,0.2l-0.2,0l0,0.7l-0.6,0l0,-0.9Z" class="g40_211" />
<path d="M203.1,593.4l-0.9,0l0,1.1l0.9,0l0,-1.1Z" class="g10_211" />
<path d="M203.3,594.7l-2,0l0,0.3l0.9,0l0,0.7l0.9,0l0,-0.7l0.2,0Z" class="g10_211" />
<path d="M203.1,594.5l-0.6,0l0,-1.1l0.6,0l0,1.1Z" class="g40_211" />
<path d="M203.3,594.8l0,0.2l-0.2,0l0,0.7l-0.6,0l0,-0.9Z" class="g40_211" />
<path d="M208.4,589.6l-1,0l0,-1.1l1,0l0,1.1Z" class="g85_211" />
<path d="M213.7,586.4c0,-0.4,-0.2,-0.8,-0.4,-0.9l0.4,-0.7l0.1,-0.3l-0.5,-8l-0.5,0l0,-1.3l0.2,0l0,-2.3c0,-0.2,-0.1,-0.3,-0.3,-0.3l-0.3,0c-0.2,0,-0.3,0.1,-0.3,0.3l0,2.3l0.2,0l0,1.3l-0.5,0l-0.5,8l0.1,0.3l0.5,0.7l0,1.8l-0.2,0l0,5.1l0.1,0l0,0.1l1.3,0c0.3,0,0.6,-0.3,0.6,-0.7l0,-1.5l-0.1,0l0,-3l-0.2,0l-0.1,-0.1c0.3,-0.2,0.4,-0.5,0.4,-0.8Z" class="g46_211" />
<path d="M213.7,591.5l-0.6,1l-1.3,0l-0.1,-0.9c0,0,-0.5,0.2,-0.5,0.5c0,0.3,0.1,1,0.1,1l1.9,0.1L215,592l0,-1.5l-1.3,-0.7Z" class="g73_211" />
<path d="M213.8,590.6l-1.5,1l0.2,0.5l1.5,-0.3Z" class="g73_211" />
<text 
transform="matrix(0.99, 0, 0, 1, 137, 497)"
dx="0,0" 
class="s13_211"
>旅游</text>

<text 
transform="matrix(0.99, 0, 0, 1, 141, 510)"
dx="0,-1,0,0,0,0" 
class="s14_211"
>Travel</text>

<text 
x="249" 
y="804" 
dx="0,-0.6,0,0,0,0,0,0,-0.6,0,0,0,0,0" 
class="s15_211"
>Reader Reviews</text>

<path d="M256.2,819.2l1.5,-4.8l1.6,4.8l5,0l-4,2.9l1.5,4.8l-4.1,-3l-4,3l1.5,-4.8l-4,-2.9Z" class="g6_211" />
<path d="M273.2,819.2l1.6,-4.8l1.5,4.8l5,0l-4,2.9l1.5,4.8l-4,-3l-4.1,3l1.6,-4.8l-4.1,-2.9Z" class="g6_211" />
<path d="M290.2,819.2l1.6,-4.8l1.5,4.8l5,0l-4,2.9l1.5,4.8l-4,-3l-4.1,3l1.6,-4.8l-4.1,-2.9Z" class="g6_211" />
<path d="M307.3,819.2l1.5,-4.8l1.5,4.8l5.1,0l-4.1,2.9l1.6,4.8l-4.1,-3l-4.1,3l1.6,-4.8l-4.1,-2.9Z" class="g6_211" />
<path d="M324.3,819.2l1.5,-4.8l1.6,4.8l5,0l-4.1,2.9l1.6,4.8l-4.1,-3l-4,3l1.5,-4.8l-4,-2.9Z" class="g6_211" />
<text 
x="252" 
y="862" 
dx="0,0" 
class="s12_211"
>简单</text>

<text 
x="374" 
y="862" 
dx="0" 
class="s12_211"
>难</text>

<text 
x="252" 
y="892" 
dx="0,0" 
class="s12_211"
>便宜</text>

<text 
x="374" 
y="892" 
dx="0" 
class="s12_211"
>贵</text>

<text 
x="233" 
y="922" 
dx="0,0,0" 
class="s12_211"
>有意思</text>

<text 
x="374" 
y="922" 
dx="0,0,0,0" 
class="s12_211"
>没有意思</text>

<text 
x="111" 
y="964" 
dx="0,0,0,0,0,0,0,0,0,0,0,0,0,0,0,0,0,0,0,0" 
class="s15_211"
>Intellireader_2002: </text>

<text 
x="279" 
y="964" 
dx="0,0,0,0,0,0,0,0" 
class="s12_211"
>这本书很有意思。</text>

<path d="M295.5,856.9l36,0" class="g8_211" />
<path d="M333.1,856.9l36,0" class="g8_211" />
<path d="M323.8,850.7l0,12.4" class="g9_211" />
<path d="M295.5,916.6l36,0" class="g8_211" />
<path d="M333.1,916.6l36,0" class="g8_211" />
<path d="M305.3,910.4l0,12.4" class="g9_211" />
<path d="M295.5,886.8l36,0" class="g8_211" />
<path d="M333.1,886.8l36,0" class="g8_211" />
<path d="M313.4,880.6l0,12.4" class="g9_211" />
<image preserveAspectRatio="none" x="112" y="793" width="109" height="146" xlink:href="211/img/1.png" />
<text 
transform="matrix(0.99, 0, 0, 1, 125, 854)"
dx="0,0,0,0" 
class="s16_211"
>民间故事</text>

<text 
x="130" 
y="877" 
dx="0,0,0,0,0,0,0" 
class="s17_211"
>CHINESE</text>

<text 
x="123" 
y="895" 
dx="0,-0.2,0,-0.3,0,-0.5,0,-0.3,0" 
class="s17_211"
>FOLKTALES</text>

<image preserveAspectRatio="none" x="493" y="477" width="55" height="37" xlink:href="211/img/2.png" />
<image preserveAspectRatio="none" x="548" y="477" width="55" height="37" xlink:href="211/img/3.png" />
<image preserveAspectRatio="none" x="493" y="514" width="55" height="36" xlink:href="211/img/4.png" />
<image preserveAspectRatio="none" x="548" y="514" width="55" height="36" xlink:href="211/img/5.png" />
<image preserveAspectRatio="none" x="493" y="550" width="55" height="37" xlink:href="211/img/6.png" />
<image preserveAspectRatio="none" x="548" y="550" width="55" height="37" xlink:href="211/img/7.png" />
<image preserveAspectRatio="none" x="493" y="587" width="55" height="36" xlink:href="211/img/8.png" />
<image preserveAspectRatio="none" x="548" y="587" width="55" height="36" xlink:href="211/img/9.png" />
<path d="M587.4,567.9c0,6.7,-5.5,12.2,-12.2,12.2l-55.4,0c-6.7,0,-12.2,-5.5,-12.2,-12.2l0,-49.5c0,-6.7,5.5,-12.2,12.2,-12.2l55.4,0c6.7,0,12.2,5.5,12.2,12.2Z" class="g86_211" />
<text 
x="631" 
y="488" 
dx="0,-0.6,0,0,0,0,0,0,-0.6,0,0,0,0,0" 
class="s18_211"
>Reader Reviews</text>

<path d="M638.1,503.4l1.6,-4.7l1.5,4.7l5,0l-4,3l1.5,4.7l-4,-2.9l-4.1,2.9l1.5,-4.7l-4,-3Z" class="g6_211" />
<path d="M655.1,503.4l1.6,-4.7l1.5,4.7l5,0l-4,3l1.5,4.7l-4,-2.9l-4.1,2.9l1.6,-4.7l-4.1,-3Z" class="g6_211" />
<path d="M672.1,503.4l1.6,-4.7l1.5,4.7l5,0l-4,3l1.5,4.7l-4,-2.9l-4.1,2.9l1.6,-4.7l-4.1,-3Z" class="g6_211" />
<path d="M689.2,503.4l1.5,-4.7l1.6,4.7l5,0l-4.1,3l1.6,4.7l-4.1,-2.9l-4.1,2.9l1.6,-4.7l-4,-3Z" class="g6_211" />
<path d="M706.2,503.4l1.5,-4.7l1.6,4.7l5,0l-4.1,3l1.6,4.7l-4.1,-2.9l-4,2.9l1.5,-4.7l-4,-3Z" class="g7_211" />
<text 
x="634" 
y="547" 
dx="0,0" 
class="s12_211"
>简单</text>

<text 
x="756" 
y="547" 
dx="0" 
class="s12_211"
>难</text>

<text 
x="634" 
y="577" 
dx="0,0" 
class="s12_211"
>便宜</text>

<text 
x="756" 
y="577" 
dx="0" 
class="s12_211"
>贵</text>

<text 
x="615" 
y="606" 
dx="0,0,0" 
class="s12_211"
>有意思</text>

<text 
x="756" 
y="606" 
dx="0,0,0,0" 
class="s12_211"
>没有意思</text>

<text 
x="493" 
y="648" 
dx="0,-0.6,0,0,0,0,0,0,0,0,0,0,0" 
class="s18_211"
>Readtome_04: </text>

<text 
x="622" 
y="648" 
dx="0,0,0,0,0,0,0,0,0,0,0" 
class="s12_211"
>这本书很有意思，可是我</text>

<text 
x="621" 
y="671" 
dx="0,0,0,0,0,0,0,0" 
class="s12_211"
>觉得这本书很难。</text>

<path d="M677.4,541.2l36,0" class="g8_211" />
<path d="M715,541.2l36,0" class="g8_211" />
<path d="M733,535l0,12.4" class="g9_211" />
<path d="M677.4,600.9l36,0" class="g8_211" />
<path d="M715,600.9l36,0" class="g8_211" />
<path d="M694.8,594.7l0,12.4" class="g9_211" />
<path d="M677.4,571l36,0" class="g8_211" />
<path d="M715,571l36,0" class="g8_211" />
<path d="M701.6,564.8l0,12.4" class="g9_211" />
<text 
transform="matrix(0.99, 0, 0, 1, 524, 533)"
dx="0,0" 
class="s19_211"
>成语</text>

<text 
x="516" 
y="555" 
dx="0,0,0,0,0,0,0" 
class="s20_211"
>CHINESE</text>

<text 
x="521" 
y="571" 
dx="0,0,0,0,0,0" 
class="s20_211"
>IDIOMS</text>

<image preserveAspectRatio="none" x="493" y="792" width="39" height="49" xlink:href="211/img/10.png" />
<image preserveAspectRatio="none" x="532" y="792" width="38" height="49" xlink:href="211/img/11.png" />
<image preserveAspectRatio="none" x="570" y="792" width="39" height="49" xlink:href="211/img/12.png" />
<image preserveAspectRatio="none" x="493" y="841" width="39" height="49" xlink:href="211/img/13.png" />
<image preserveAspectRatio="none" x="532" y="841" width="38" height="49" xlink:href="211/img/14.png" />
<image preserveAspectRatio="none" x="570" y="841" width="39" height="49" xlink:href="211/img/15.png" />
<image preserveAspectRatio="none" x="493" y="890" width="39" height="49" xlink:href="211/img/16.png" />
<image preserveAspectRatio="none" x="532" y="890" width="38" height="49" xlink:href="211/img/17.png" />
<image preserveAspectRatio="none" x="570" y="890" width="39" height="49" xlink:href="211/img/18.png" />
<text 
x="504" 
y="853" 
dx="0,0,0,0" 
class="s21_211"
>莎士比亚</text>

<text 
x="498" 
y="874" 
dx="0,0,-0.2,0,0,0,0,0,0,0,0" 
class="s22_211"
>SHAKESPEARE</text>

<text 
x="631" 
y="804" 
dx="0,-0.6,0,0,0,0,0,0,-0.6,0,0,0,0,0" 
class="s23_211"
>Reader Reviews</text>

<path d="M638,819.2l1.5,-4.8l1.6,4.8l5,0l-4.1,2.9l1.6,4.8l-4.1,-3l-4,3l1.5,-4.8l-4,-2.9Z" class="g6_211" />
<path d="M655,819.2l1.5,-4.8l1.6,4.8l5,0l-4,2.9l1.5,4.8l-4.1,-3l-4,3l1.5,-4.8l-4,-2.9Z" class="g6_211" />
<path d="M672,819.2l1.6,-4.8l1.5,4.8l5,0l-4,2.9l1.5,4.8l-4,-3l-4.1,3l1.6,-4.8L667,819.2Z" class="g7_211" />
<path d="M689,819.2l1.6,-4.8l1.5,4.8l5,0l-4,2.9l1.5,4.8l-4,-3l-4.1,3l1.6,-4.8L684,819.2Z" class="g7_211" />
<path d="M706.1,819.2l1.5,-4.8l1.5,4.8l5.1,0l-4.1,2.9l1.6,4.8l-4.1,-3l-4.1,3l1.6,-4.8L701,819.2Z" class="g7_211" />
<text 
x="634" 
y="862" 
dx="0,0" 
class="s12_211"
>简单</text>

<text 
x="755" 
y="862" 
dx="0" 
class="s12_211"
>难</text>

<text 
x="634" 
y="892" 
dx="0,0" 
class="s12_211"
>便宜</text>

<text 
x="755" 
y="892" 
dx="0" 
class="s12_211"
>贵</text>

<text 
x="615" 
y="922" 
dx="0,0,0" 
class="s12_211"
>有意思</text>

<text 
x="755" 
y="922" 
dx="0,0,0,0" 
class="s12_211"
>没有意思</text>

<text 
x="493" 
y="964" 
dx="0,-2.2,0,0,0,0,0,0,0,0,0,0,0" 
class="s23_211"
>Too_tired22: </text>

<text 
x="604" 
y="964" 
dx="0,0,0,0,0,0,0,0,0,0" 
class="s12_211"
>难！而且没有意思……</text>

<path d="M677.3,856.9l36,0" class="g8_211" />
<path d="M714.9,856.9l35.9,0" class="g8_211" />
<path d="M744.3,850.7l0,12.4" class="g9_211" />
<path d="M677.3,916.6l36,0" class="g8_211" />
<path d="M714.9,916.6l35.9,0" class="g8_211" />
<path d="M744.3,910.4l0,12.4" class="g9_211" />
<path d="M677.3,886.8l36,0" class="g8_211" />
<path d="M714.9,886.8l35.9,0" class="g8_211" />
<path d="M734.6,880.6l0,12.4" class="g9_211" />


<!-- Any embedded fonts defined here -->
<style type="text/css" ><![CDATA[

@font-face {
	font-family: DFKaiShu-SB-Estd-BF_d2b;
	src: url("fonts/DFKaiShu-SB-Estd-BF_d2b.woff") format("woff");
}

@font-face {
	font-family: ProximaNova-Bold_d2p;
	src: url("fonts/ProximaNova-Bold_d2p.woff") format("woff");
}

@font-face {
	font-family: ProximaNova-Bold_d1q;
	src: url("fonts/ProximaNova-Bold_d1q.woff") format("woff");
}

@font-face {
	font-family: ProximaNovaA-Regular_d2s;
	src: url("fonts/ProximaNovaA-Regular_d2s.woff") format("woff");
}

@font-face {
	font-family: Alegreya-Bold_d1h;
	src: url("fonts/Alegreya-Bold_d1h.woff") format("woff");
}

@font-face {
	font-family: SimHei_bos;
	src: url("fonts/SimHei_bos.woff") format("woff");
}

@font-face {
	font-family: ProximaNova-Semibold_d1j;
	src: url("fonts/ProximaNova-Semibold_d1j.woff") format("woff");
}

@font-face {
	font-family: ProximaNova-Extrabld_d1l;
	src: url("fonts/ProximaNova-Extrabld_d1l.woff") format("woff");
}

@font-face {
	font-family: Alegreya-Regular_d1o;
	src: url("fonts/Alegreya-Regular_d1o.woff") format("woff");
}

@font-face {
	font-family: Alegreya-Medium_d2u;
	src: url("fonts/Alegreya-Medium_d2u.woff") format("woff");
}

@font-face {
	font-family: STKaitiSC-Regular_cof;
	src: url("fonts/STKaitiSC-Regular_cof.woff") format("woff");
}

@font-face {
	font-family: ProximaNovaA-Regular_d2n;
	src: url("fonts/ProximaNovaA-Regular_d2n.woff") format("woff");
}

@font-face {
	font-family: Alegreya-Medium_d2w;
	src: url("fonts/Alegreya-Medium_d2w.woff") format("woff");
}

@font-face {
	font-family: STKaiti-SC-Bold_cqx;
	src: url("fonts/STKaiti-SC-Bold_cqx.woff") format("woff");
}

@font-face {
	font-family: Alegreya-Medium_d2x;
	src: url("fonts/Alegreya-Medium_d2x.woff") format("woff");
}

@font-face {
	font-family: ProximaNovaA-Regular_d2q;
	src: url("fonts/ProximaNovaA-Regular_d2q.woff") format("woff");
}

@font-face {
	font-family: ProximaNovaA-Regular_d2r;
	src: url("fonts/ProximaNovaA-Regular_d2r.woff") format("woff");
}

]]></style>

</svg>
