<?xml version="1.0" encoding="UTF-8" standalone="no"?>
<!DOCTYPE svg PUBLIC "-//W3C//DTD SVG 1.1//EN"
"http://www.w3.org/Graphics/SVG/1.1/DTD/svg11.dtd">


<!-- Page 344 -->
<svg x="0" y="0" width="921" height="1196" viewBox="0 0 921 1196" version="1.1" xmlns="http://www.w3.org/2000/svg" xmlns:xlink="http://www.w3.org/1999/xlink"
style="display: block;margin-left: auto;margin-right: auto;">
<defs>
<clipPath id="c0_344"><path d="M0,1196.3L0,0L921.3,0l0,1196.3Z" /></clipPath>

<style type="text/css"><![CDATA[

.g1_344{
fill: #3986C6;
}
.g2_344{
fill: #ACBF3B;
}
.g3_344{
fill: none;
stroke: #FFFFFF;
stroke-width: 1.5277778;
stroke-linecap: butt;
stroke-linejoin: miter;
stroke-miterlimit: 4;
}
.g4_344{
fill: none;
stroke: #3986C6;
stroke-width: 1.1458334;
stroke-linecap: butt;
stroke-linejoin: miter;
}
.g5_344{
fill: #FFFFFF;
}

.s1_344{
font-size: 18.33px;
font-family: ProximaNova-Bold_d9-;
fill: #231F20;
}
.s2_344{
font-size: 12.99px;
font-family: ProximaNova-Semibold_da4;
fill: #231F20;
}
.s3_344{
font-size: 16.81px;
font-family: ProximaNova-Extrabld_da2;
fill: #FFFFFF;
}
.s4_344{
font-size: 25.97px;
font-family: ProximaNova-Bold_d9-;
fill: #FFFFFF;
}
.s5_344{
font-size: 25.97px;
font-family: ProximaNova-Bold_d9-;
fill: #231F20;
}
.s6_344{
font-size: 13.75px;
font-family: ProximaNova-Extrabld_da2;
fill: #FFFFFF;
}
.s7_344{
font-size: 44.31px;
font-family: ProximaNova-Bold_d9-;
fill: #FFFFFF;
}
.s8_344{
font-size: 18.33px;
font-family: ProximaNova-Bold_d9-;
fill: #3986C6;
}
.s9_344{
font-size: 15.28px;
font-family: CCMeanwhile_das;
fill: #231F20;
}

]]></style>

</defs>
<path d="M0,0
L0,1196
L921,1196
L921,0 Z " 
fill="#FFFFFF" stroke="none" />
<text 
x="857" 
y="1149" 
dx="0,0,0" 
class="s1_344"
>321</text>

<path d="M871.5,1128l1.6,0l0,-38.7l-1.6,0l0,38.7Z" class="g1_344" />
<path d="M872.3,1125.4c-1.5,0,-2.6,1.1,-2.6,2.6c0,1.4,1.1,2.6,2.6,2.6c1.4,0,2.6,-1.2,2.6,-2.6c0,-1.5,-1.2,-2.6,-2.6,-2.6Z" class="g1_344" />
<text 
transform="matrix(0, 1, -1, 0, 867, 832)"
dx="0,0,0,0,0,0,0,0,0,0" 
class="s2_344"
>Chapter 9 </text>

<text 
transform="matrix(0, 1, -1, 0, 867, 897)"
dx="0,0" 
class="s2_344"
>• </text>

<text 
transform="matrix(0, 1, -1, 0, 867, 908)"
dx="0,0,0,0,0,0,0,0,0,0,0,0,0,0,0,0,0,0" 
class="s2_344"
>A Birthday Dinner </text>

<text 
transform="matrix(0, 1, -1, 0, 867, 1017)"
dx="0,0" 
class="s2_344"
>• </text>

<text 
transform="matrix(0, 1, -1, 0, 867, 1029)"
dx="0,0,0,0,0,0,0,0,0" 
class="s2_344"
>Section 3</text>

<image preserveAspectRatio="none" x="38" y="233" width="378" height="330" xlink:href="344/img/1.png" />
<image preserveAspectRatio="none" x="415" y="233" width="378" height="330" xlink:href="344/img/2.png" />
<image preserveAspectRatio="none" x="792" y="233" width="109" height="933" xlink:href="344/img/3.png" />
<image preserveAspectRatio="none" x="38" y="562" width="378" height="330" xlink:href="344/img/4.png" />
<image preserveAspectRatio="none" x="415" y="562" width="378" height="330" xlink:href="344/img/5.png" />
<image preserveAspectRatio="none" x="38" y="891" width="432" height="275" xlink:href="344/img/6.png" />
<image preserveAspectRatio="none" x="469" y="891" width="324" height="275" xlink:href="344/img/7.png" />
<image preserveAspectRatio="none" x="857" y="1136" width="29" height="14" xlink:href="344/img/8.png" />
<image preserveAspectRatio="none" x="857" y="1136" width="29" height="14" xlink:href="344/img/9.png" />
<image preserveAspectRatio="none" x="871" y="1089" width="2" height="37" xlink:href="344/img/10.png" />
<image preserveAspectRatio="none" x="869" y="1125" width="6" height="6" xlink:href="344/img/11.png" />
<image preserveAspectRatio="none" x="865" y="833" width="12" height="250" xlink:href="344/img/12.png" />
<image preserveAspectRatio="none" x="865" y="833" width="12" height="250" xlink:href="344/img/13.png" />
<g clip-path="url(#c0_344)">
<path d="M0,110l935,0l0,-129.4l-935,0L0,110Z" class="g2_344" />
</g>
<path d="M110.5,196c-10.1,0,-18.3,-8.2,-18.3,-18.4l0,-20.1l23.1,0c10.1,0,18.3,8.2,18.3,18.3l0,20.2Z" class="g1_344" />
<path d="M789.9,125.7l0,-35.6c0,-18.9,-15.4,-34.3,-34.4,-34.3l-555.4,0l0,35.6c0,18.9,15.4,34.3,34.4,34.3Z" class="g1_344" />
<path d="M789.9,125.7l0,-35.6c0,-18.9,-15.4,-34.3,-34.4,-34.3l-555.4,0l0,35.6c0,18.9,15.4,34.3,34.4,34.3l555.4,0Z" class="g3_344" />
<text 
x="86" 
y="95" 
dx="0,0,0,0,0,0,0,0,0,0" 
class="s3_344"
>Ch·P³e¸ 13</text>

<path d="M110.5,196c-10.1,0,-18.3,-8.2,-18.3,-18.4l0,-20.1l23.1,0c10.1,0,18.3,8.2,18.3,18.3l0,20.2Z" class="g1_344" />
<path d="M102.6,158.2l439.7,0" class="g4_344" />
<path d="M116.3,195.6l426,0" class="g4_344" />
<text 
x="102" 
y="184" 
dx="0,0" 
class="s4_344"
>A </text>

<text 
x="143" 
y="184" 
dx="0,-0.8,0,0,0,0,0,0,0,0,0,0,0,0,0,0,0,0,0,0,0,0" 
class="s5_344"
>Reading and Listening </text>

<path d="M429.6,188.9c-6,0,-10.9,-4.9,-10.9,-10.9l0,-10.9l112.4,0c6,0,10.9,4.8,10.9,10.9l0,10.9Z" class="g2_344" />
<text 
x="432" 
y="182" 
dx="0,0,0,0,0,0,0,0,0,0,0,0" 
class="s6_344"
>´¶³e¸P¸e³´Ve</text>

<path d="M789.9,125.7l0,-35.6c0,-18.9,-15.4,-34.3,-34.4,-34.3l-555.4,0l0,35.6c0,18.9,15.4,34.3,34.4,34.3Z" class="g1_344" />
<path d="M789.9,125.7l0,-35.6c0,-18.9,-15.4,-34.3,-34.4,-34.3l-555.4,0l0,35.6c0,18.9,15.4,34.3,34.4,34.3l555.4,0Z" class="g3_344" />
<text 
x="248" 
y="103" 
dx="0,0,0,0,0,0,0,0,0,0,0,0,0,0,0,0,-4.3,0,0,0,0,0,0,0" 
class="s7_344"
>Put the Pieces Together!</text>

<path d="M122.5,501l160.7,0l0,-239.7l-160.7,0l0,239.7Z" class="g5_344" />
<text 
x="123" 
y="280" 
dx="0,-0.4,0,0,0,0,0,0,0" 
class="s8_344"
>Passage 1</text>

<text 
x="121" 
y="311" 
dx="0,-0.1,0.5,0,0,-0.2,0.2,-0.1,-0.5,-0.2,0.2,0" 
class="s9_344"
>the lopezes </text>

<text 
x="121" 
y="311" 
dx="0,-0.1,0.5,0,0,-0.2,0.2,-0.1,-0.5,-0.2,0.2,0" 
class="s9_344"
>the lopezes </text>

<text 
x="123" 
y="337" 
dx="0,0.4,-0.4,-0.2,0,0,0.4,-0.3,0,0,0.1,0.5,0" 
class="s9_344"
>have all re- </text>

<text 
x="123" 
y="337" 
dx="0,0.4,-0.4,-0.2,0,0,0.4,-0.3,0,0,0.1,0.5,0" 
class="s9_344"
>have all re- </text>

<text 
x="122" 
y="363" 
dx="0,-0.2,0.2,-0.1,-0.2,-1.4,0,0,0.3,0.1,0.1,-0.3,-0.2,0.2,0" 
class="s9_344"
>cently arrived </text>

<text 
x="122" 
y="363" 
dx="0,-0.2,0.2,-0.1,-0.2,-1.4,0,0,0.3,0.1,0.1,-0.3,-0.2,0.2,0" 
class="s9_344"
>cently arrived </text>

<text 
x="123" 
y="388" 
dx="0,0.5,0.2,0.3,0,0,0.5,0.5,0,0,0.3,0.1,0" 
class="s9_344"
>home and are </text>

<text 
x="123" 
y="388" 
dx="0,0.5,0.2,0.3,0,0,0.5,0.5,0,0,0.3,0.1,0" 
class="s9_344"
>home and are </text>

<text 
x="122" 
y="414" 
dx="0,0.4,0.1,0.3,0.1,0,0,-1,0,0,0.4,-0.4,-0.2,0" 
class="s9_344"
>about to have </text>

<text 
x="122" 
y="414" 
dx="0,0.4,0.1,0.3,0.1,0,0,-1,0,0,0.4,-0.4,-0.2,0" 
class="s9_344"
>about to have </text>

<text 
x="123" 
y="440" 
dx="0,-0.3,0.3,0.4,0.3,0,0.5" 
class="s9_344"
>dinner.</text>

<text 
x="123" 
y="440" 
dx="0,-0.3,0.3,0.4,0.3,0,0.5" 
class="s9_344"
>dinner.</text>

<text 
x="857" 
y="1149" 
dx="0,0,0" 
class="s1_344"
>321</text>



<!-- Any embedded fonts defined here -->
<style type="text/css" ><![CDATA[

@font-face {
	font-family: ProximaNova-Extrabld_da2;
	src: url("fonts/ProximaNova-Extrabld_da2.woff") format("woff");
}

@font-face {
	font-family: ProximaNova-Bold_d9-;
	src: url("fonts/ProximaNova-Bold_d9-.woff") format("woff");
}

@font-face {
	font-family: ProximaNova-Semibold_da4;
	src: url("fonts/ProximaNova-Semibold_da4.woff") format("woff");
}

@font-face {
	font-family: CCMeanwhile_das;
	src: url("fonts/CCMeanwhile_das.woff") format("woff");
}

]]></style>

</svg>
