<?xml version="1.0" encoding="UTF-8" standalone="no"?>
<!DOCTYPE svg PUBLIC "-//W3C//DTD SVG 1.1//EN"
"http://www.w3.org/Graphics/SVG/1.1/DTD/svg11.dtd">


<!-- Page 371 -->
<svg x="0" y="0" width="921" height="1196" viewBox="0 0 921 1196" version="1.1" xmlns="http://www.w3.org/2000/svg" xmlns:xlink="http://www.w3.org/1999/xlink"
style="display: block;margin-left: auto;margin-right: auto;">
<defs>
<clipPath id="c0_371"><path d="M146.8,491.4c-19.9,0,-36,-16.2,-36,-36.1l0,-193.1l306,0c19.9,0,36.1,16.2,36.1,36.1l0,193.1Z" /></clipPath>
<clipPath id="c1_371"><path d="M169.4,770c-31.5,0,-57,-25.5,-57,-57l0,-171l285.2,0c31.4,0,56.9,25.5,56.9,56.9l0,171.1Z" /></clipPath>

<style type="text/css"><![CDATA[

.g1_371{
fill: none;
stroke: #3986C6;
stroke-width: 1.6194444;
stroke-linecap: butt;
stroke-linejoin: miter;
stroke-miterlimit: 4;
}
.g2_371{
fill: #3986C6;
}
.g3_371{
fill: none;
stroke: #3986C6;
stroke-width: 1.1458334;
stroke-linecap: butt;
stroke-linejoin: miter;
}
.g4_371{
fill: #ACBF3B;
}
.g5_371{
fill: none;
stroke: #231F20;
stroke-width: 2.1388888;
stroke-linecap: butt;
stroke-linejoin: round;
stroke-miterlimit: 4;
}

.s1_371{
font-size: 12.99px;
font-family: ProximaNova-Semibold_db4;
fill: #231F20;
}
.s2_371{
font-size: 18.33px;
font-family: ProximaNova-Bold_da-;
fill: #231F20;
}
.s3_371{
font-size: 19.10px;
font-family: Alegreya-Regular_db1;
fill: #231F20;
}
.s4_371{
font-size: 25.97px;
font-family: ProximaNova-Bold_da-;
fill: #FFFFFF;
}
.s5_371{
font-size: 25.97px;
font-family: ProximaNova-Bold_da-;
fill: #231F20;
}
.s6_371{
font-size: 13.75px;
font-family: ProximaNova-Extrabld_db2;
fill: #FFFFFF;
}
.s7_371{
font-size: 42.77px;
font-family: STBaoliSC-Regular_cj6;
fill: #F3D490;
}
.s8_371{
font-size: 41.34px;
font-family: STBaoliSC-Regular_dc3;
fill: #F3D490;
}
.s9_371{
font-size: 48.47px;
font-family: STLibianSC-Regular_cja;
fill: #231F20;
}
.s10_371{
font-size: 35.44px;
font-family: STHeitiSC-Light_cje;
fill: #231F20;
}
.s11_371{
font-size: 17.11px;
font-family: Alegreya-Regular_dc2;
fill: #231F20;
}
.s12_371{
font-size: 41.01px;
font-family: STZhongsong_cji;
fill: #FFFFFF;
}
.s13_371{
font-size: 41.01px;
font-family: STZhongsong_dc4;
fill: #FFFFFF;
}
.s14_371{
font-size: 36.51px;
font-family: STKaiti-SC-Regular_cxe;
fill: #231F20;
}
.s15_371{
font-size: 35.64px;
font-family: PingFangSC-Regular_dbv;
fill: #FFFFFF;
}
.s16_371{
font-size: 55.21px;
font-family: STXingkaiSC-Light_cjn;
fill: #FFFFFF;
}

]]></style>

</defs>
<path d="M0,0
L0,1196
L921,1196
L921,0 Z " 
fill="#FFFFFF" stroke="none" />
<text 
transform="matrix(0, -1, 1, 0, 54, 1084)"
dx="0,0,0,0,0,0,0,0,0,0,0,0,0,0,0,0,0,0,0" 
class="s1_371"
>Go Far with Chinese</text>

<text 
x="32" 
y="1149" 
dx="0,0,0" 
class="s2_371"
>348</text>

<path d="M50.4,1089.3l0,38.7" class="g1_371" />
<path d="M50.4,1125.4c-1.4,0,-2.5,1.1,-2.5,2.6c0,1.4,1.1,2.6,2.5,2.6c1.5,0,2.6,-1.2,2.6,-2.6c0,-1.5,-1.1,-2.6,-2.6,-2.6Z" class="g2_371" />
<path d="M129.1,121.8c-10.1,0,-18.3,-8.3,-18.3,-18.4l0,-20.1l23.1,0c10.1,0,18.3,8.2,18.3,18.3l0,20.2Z" class="g2_371" />
<text 
x="110" 
y="161" 
dx="0,-0.6,-0.4,-0.4,-0.4,-0.4,-0.4,-0.4,-0.4,-0.4,-0.4,-0.4,-0.4,-0.4,-0.7,-0.4,-0.4,-0.4,-0.4,-0.6,-0.4,-0.4,-0.7,-0.4,-0.4,-0.4,-0.4,-0.4,-0.4,-0.4,-0.4,-0.4,-0.4,-0.4,-0.4,-0.4,-0.4,-0.4,-0.4,-0.4,-0.4,-0.4,-0.4,-0.4,-0.4,-0.4,-0.4,-0.4,-0.4,-0.4,-0.4,-0.7,-0.4,-0.4,-0.4,-0.4,-1,-0.8,-0.4,-1.3,-0.4,-0.4,-0.4,-0.4,-0.4,-0.4,-0.4,-0.4,-0.4,-0.4,-0.4,-0.4,-0.4,-0.4,-0.4,-0.4,-0.4,-0.4,-0.4,-0.4,-0.4,-0.4,-0.4,-0.4,-0.4,-0.4,-0.4,-0.4,-0.4,-0.4,-0.4,-0.4" 
class="s3_371"
>Imagine that you are considering taking an online course. Talk to a partner and ask him/her </text>

<text 
x="110" 
y="187" 
dx="0,-0.4,-0.4,-0.4,-0.4,-0.4,-0.4,-0.4,-0.4,-0.4,-0.4,-0.4,-0.4,-0.4,-0.4,-0.4,-0.4,-0.4,-0.4,-0.4,-0.4,-0.4,-0.4,-0.4,-0.4,-0.4,-0.4,-0.7,-0.4,-0.4,-0.4,-0.4,-0.4,-0.4,-0.4,-0.4,-0.4,-0.4,-0.4,-0.4,-0.4,-0.4,-0.4,-0.4,-0.4,-0.7,-1.7,-0.8,-0.4,-0.4,-0.4,-0.4,-0.4,-0.4,-0.4,-0.4,-0.4,-0.4,-0.4,-0.4,-0.4,-0.4,-0.4,-0.4,-0.4,-0.4,-0.4,-0.4,-0.4,-0.4,-0.4,-0.4,-0.7,-0.4,-0.4,-0.4,-0.4,-0.4,-0.4,-0.4,-0.4,-0.4,-0.4,-0.4,-0.4,-0.4,-0.4,-0.4,-0.4,-0.4,-0.4,-0.4,-0.4,-0.4,-0.4,-0.4,-0.4,-0.4,-0.4" 
class="s3_371"
>what he/she thinks of the courses listed below. Does he/she think they would be easy or difficult? </text>

<text 
x="110" 
y="213" 
dx="0,-0.6,-0.4,-0.4,-0.4,-0.6,-0.4,-0.4,-0.4,-0.4,-0.4,-0.4,-0.4,-0.4,-0.4,-0.4,-0.4,-0.4,-0.4,-0.4,-0.4,-0.4,-0.4,-0.4,-0.6,-0.4,-0.4,-0.4,-0.6,-0.4,-0.4,-0.4,-0.6,-0.4,-0.4,-0.4,-0.4,-0.4,-0.4,-0.4,-0.4,-0.4,-0.6,-0.4,-0.4,-0.7,-0.4,-0.4,-0.4,-0.4,-0.4,-0.4,-0.4,-0.4,-0.4,-0.4,-0.4,-0.4,-0.4,-0.4,-0.4,-0.4,-0.4,-0.4,-0.4,-0.4,-0.4,-0.4,-0.4,-0.4,-0.4,-0.4,-0.4,-0.4,-0.4,-0.4,-0.4,-0.4,-0.6,-0.4,-0.4,-0.4,-0.4,-0.4,-0.4,-0.4,-0.4,-0.4,-0.4,-0.4,-0.4,-0.4,-0.4,-0.4,-0.8,-0.8" 
class="s3_371"
>Interesting or boring? Be prepared to share your partner’s opinions with the rest of the class. </text>

<path d="M120.2,84l305.5,0" class="g3_371" />
<path d="M133.9,121.4l291.8,0" class="g3_371" />
<text 
x="120" 
y="110" 
dx="0,0" 
class="s4_371"
>B </text>

<text 
x="161" 
y="110" 
dx="0,0,0,0,0,0,0,0,0" 
class="s5_371"
>Speaking </text>

<path d="M295.5,114.7c-6,0,-10.8,-4.9,-10.8,-10.9l0,-10.8l131,0c5.9,0,10.8,4.9,10.8,10.8l0,10.9Z" class="g4_371" />
<path d="M296.8,112l119.4,0l0,-15.1l-119.4,0l0,15.1Z" class="g4_371" />
<text 
x="300" 
y="107" 
dx="0,0,0,0,0,0,0,0,0,0,0,0,0" 
class="s6_371"
>³µt²·P²·±´µ¶¸</text>

<image preserveAspectRatio="none" x="111" y="262" width="342" height="228" xlink:href="371/img/1.png" />
<image preserveAspectRatio="none" x="111" y="376" width="140" height="35" xlink:href="371/img/2.png" />
<image preserveAspectRatio="none" x="251" y="376" width="47" height="70" xlink:href="371/img/3.png" />
<image preserveAspectRatio="none" x="111" y="411" width="140" height="35" xlink:href="371/img/4.png" />
<g clip-path="url(#c0_371)">
<path d="M153.8,403.9c-0.3,-0.5,-0.7,-1,-1.4,-1.4c-0.3,-0.3,-0.8,-0.4,-1.4,-0.5c-0.6,0,-1,0.1,-1.3,0.3c-0.5,0.5,-1,0.7,-1.5,0.9c-0.4,0.1,-0.8,0.1,-1.2,0.1c-0.8,-0.1,-1.5,-0.2,-2.1,-0.2c-0.6,-0.1,-1.1,-0.1,-1.7,-0.2c-0.5,0,-0.9,0,-1.4,-0.1c-0.4,0,-0.9,0,-1.3,0c-0.4,-0.1,-0.7,-0.1,-0.8,-0.2c0,0,-0.1,-0.3,0,-0.7c0,-0.3,0,-0.6,0,-0.8c0,-0.3,0,-0.5,0.1,-0.8c0,-0.6,0.1,-1,0,-1.2c0,-0.3,-0.1,-0.5,-0.2,-0.7c-0.1,-0.2,-0.3,-0.4,-0.5,-0.5c-0.3,-0.2,-0.6,-0.3,-0.9,-0.5c-0.3,-0.1,-0.6,-0.2,-0.9,-0.3c-0.3,0,-0.5,-0.1,-0.7,-0.1c-0.8,0,-1.3,0.2,-1.6,0.6c-0.4,0.4,-0.5,1.1,-0.5,2.2c0,0.4,0.1,0.7,0.1,1.1l0,1c0,0.4,-0.1,0.6,-0.2,0.7c-0.1,0.1,-0.4,0.1,-0.9,0.1c-1,0,-2.2,0.1,-3.5,0.1c-1.3,0.1,-2.9,0.1,-4.6,0.2c-0.4,0,-0.7,0,-0.8,0c-0.1,-0.1,-0.3,-0.2,-0.6,-0.5c-0.1,-0.2,-0.3,-0.3,-0.7,-0.4c-0.3,0,-0.7,0,-1.1,0.1c-0.7,0.1,-1.2,0.4,-1.5,1c-0.3,0.5,-0.4,1.2,-0.3,1.9c0.2,0.7,0.3,1.3,0.3,2c0.1,0.7,0.2,1.4,0.3,2c0,0.6,0.1,1.2,0.1,1.7c0,0.5,0,0.8,-0.1,1.1c-0.1,1.8,0.2,2.7,0.9,2.8c1,0.1,1.6,-0.2,2.1,-1c0.2,-0.3,0.4,-0.5,0.5,-0.5c0.2,-0.1,0.4,-0.2,0.6,-0.2c1.5,-0.1,2.9,-0.2,4.2,-0.2c1.4,-0.1,2.8,-0.1,4.4,-0.1c0.5,0,0.8,0,0.9,0.1c0.1,0.1,0.1,0.3,0.1,0.8c0.1,2.5,0.1,4.7,0,6.6c0,1,0.1,1.7,0.4,2.1c0.2,0.4,0.6,0.6,1.2,0.6c0.9,0.1,1.7,-0.1,2.2,-0.5c0.5,-0.5,0.8,-1.2,0.9,-2.4c0,-0.9,0,-1.9,0,-2.9c0,-1.1,0,-2.2,0,-3.4c0,-0.5,0.1,-0.8,0.3,-0.9c0.1,-0.1,0.5,-0.2,1,-0.1c0.9,0,1.8,0,2.5,0c0.7,0,1.5,0,2.3,0.1c0.6,0,1.2,0,1.7,0.2c0.4,0.1,1.1,0.4,1.9,0.7c0.5,0.2,0.9,0.3,1.5,0.3c0.5,0,0.9,-0.1,1.3,-0.3c0.5,-0.2,0.8,-0.5,1.1,-0.9c0.2,-0.5,0.4,-1,0.4,-1.7c0,-1.4,0,-2.6,0.1,-3.4c0.1,-0.9,0.2,-1.5,0.3,-2c0.2,-0.6,0.2,-1.2,0,-1.8Zm-5.2,6.2c-0.3,0.3,-0.9,0.4,-1.6,0.4c-0.8,-0.1,-1.4,-0.2,-2,-0.2c-0.5,0,-0.9,-0.1,-1.4,-0.1c-0.4,0,-0.8,-0.1,-1.3,-0.1c-0.4,0,-1,0,-1.7,0c-0.5,0,-0.9,-0.1,-1,-0.2c-0.1,-0.1,-0.2,-0.3,-0.2,-0.8l0,-1.7c0,-0.6,0.1,-1.1,0.1,-1.6c0,-0.4,0.1,-0.7,0.2,-0.7c0.1,-0.1,0.3,-0.2,0.7,-0.2c1.1,0,2,0,2.7,0.1c0.7,0,1.3,0,1.8,0c0.5,0,1,0.1,1.4,0.1c0.4,0.1,0.9,0.2,1.4,0.3c0.6,0.1,1.1,0.3,1.2,0.6c0.2,0.4,0.3,1.1,0.2,2.2c-0.1,0.9,-0.2,1.6,-0.5,1.9Zm-14,-0.2c-0.2,0.1,-0.5,0.1,-1.1,0.2c-1.4,0,-2.7,0.1,-3.9,0.1c-1.2,0.1,-2.4,0.2,-3.7,0.3c-0.3,0,-0.6,-0.1,-0.6,-0.2c-0.1,-0.1,-0.1,-0.3,-0.1,-0.8c0,-0.6,0,-1.1,0.1,-1.7c0,-0.6,0,-1.1,0.1,-1.6c0,-0.4,0.1,-0.6,0.2,-0.8c0.1,-0.1,0.3,-0.1,0.7,-0.2c1.1,0,2.3,-0.1,3.4,-0.1c1.2,-0.1,2.5,-0.1,3.9,-0.1c0.5,0,0.8,0,0.9,0.1c0.1,0.1,0.1,0.4,0.1,0.9c0.1,0.5,0.1,1,0.1,1.6c0,0.5,0,1.1,0,1.6c0,0.4,0,0.6,-0.1,0.7Z" class="g5_371" />
<path d="M195.8,401.5c0,-0.4,-0.2,-1,-0.4,-1.5c-0.2,-0.4,-0.4,-0.7,-0.7,-0.9c-0.4,-0.3,-0.7,-0.4,-1,-0.5c-0.4,-0.1,-0.7,-0.2,-1,-0.1c-0.3,0,-0.6,0.1,-0.8,0.2c-0.1,0,-0.3,0.1,-0.6,0.1c-0.3,0.1,-0.6,0.1,-0.9,0.1c-0.4,-0.1,-0.7,-0.1,-1.1,-0.1c-0.4,0,-0.9,0,-1.5,0l-2.5,0c-1,0,-2.4,0,-4,0l-3.6,0c-1,0,-2.1,0,-3,0c-1,0,-2,0,-3,0c-1,-0.1,-2.2,-0.1,-3.4,-0.2c-0.3,0,-0.4,0,-0.6,-0.2c-0.2,-0.3,-0.6,-0.6,-1.4,-0.7c-0.4,-0.1,-0.8,0,-1.2,0.1c-0.4,0.2,-0.7,0.5,-1,1c-0.3,0.4,-0.5,1,-0.6,1.6c-0.1,0.7,0,1.5,0.1,2.4c0.2,0.9,0.3,2,0.4,3c0.1,1.1,0.2,2.2,0.2,3.3c0,1.2,0,2.4,0,3.8c-0.1,1.3,-0.1,2.8,-0.2,4.4c-0.1,0.8,-0.1,1.5,0,2.1c0,0.6,0.1,1.1,0.2,1.5c0.1,0.3,0.3,0.7,0.5,0.9c0.2,0.2,0.4,0.4,0.7,0.5c0.3,0.1,0.6,0.2,1.1,0c0.4,-0.1,0.8,-0.3,1.1,-0.6c0.2,-0.2,0.4,-0.3,0.7,-0.3c1.6,-0.1,3.1,-0.2,4.5,-0.2c1.3,-0.1,2.5,-0.2,3.5,-0.2c1,0,1.9,0,2.7,0c0.7,0,1.4,0.1,2,0.1c1.4,0.1,2.5,0.2,3.3,0.2c0.9,0.1,1.6,0.1,2.2,0.1c0.6,0.1,1,0.1,1.4,0.1c0.4,0,0.8,0,1.3,-0.1c0.3,0,0.6,0,0.9,0c0.3,0.1,0.5,0.2,0.7,0.3c0.4,0.3,0.9,0.4,1.3,0.5c0.5,0,1,0,1.5,-0.2c0.6,-0.3,1,-0.7,1.2,-1.1c0.2,-0.5,0.4,-1.3,0.3,-2.4c0,-2.2,-0.1,-4.1,-0.1,-5.7c0,-1.6,0.1,-3,0.1,-4.3c0,-1.2,0.1,-2.2,0.2,-3c0.1,-0.9,0.2,-1.6,0.3,-2.2c0.1,-0.7,0.2,-1.3,0.2,-1.8Zm-4.3,4.6c0,1,0,2,0,3.1c0,1.1,-0.1,2.2,-0.2,3.6c0,1.3,-0.1,2.8,-0.2,4.5c0,0.2,0,0.4,-0.1,0.6c-0.1,0.1,-0.2,0.2,-0.4,0.3c-0.2,0.1,-0.6,0.2,-1,0.2c-0.4,0,-0.9,0,-1.5,0c-2.8,0,-5.9,0,-9.2,-0.1c-3.4,0,-6.9,0,-10.5,0.1c-0.3,0,-0.4,-0.1,-0.4,-0.4c-0.2,-1.1,-0.2,-2.3,-0.3,-3.6c0,-1.3,0,-2.7,-0.1,-4.1c0,-1.4,0,-2.8,0.1,-4.3c0,-1.4,0.1,-2.8,0.1,-4.1c0,-0.3,0.2,-0.5,0.5,-0.5c2.1,-0.1,4.2,-0.2,6.1,-0.3c1.9,-0.1,3.7,-0.1,5.5,-0.1c1.8,0,3.6,0,5.3,0.1c1.7,0.1,3.5,0.2,5.3,0.4c0.7,0,1,0.6,1,1.6l0,3Zm-1.7,8.4c-0.2,-0.1,-0.7,-0.3,-1.5,-0.4c-0.6,-0.1,-1.4,-0.1,-2.5,-0.2c-1,0,-2.2,0,-3.5,0c-0.2,0,-0.4,-0.1,-0.4,-0.1c-0.1,-0.1,-0.1,-0.2,-0.1,-0.4c0,-0.3,0,-0.8,0,-1.3c-0.1,-0.5,-0.1,-1,-0.1,-1.4c0,-0.2,0.1,-0.4,0.3,-0.4l1.3,0c0.9,0,1.7,0,2.4,-0.1c0.6,-0.1,1.1,-0.1,1.4,-0.2c0.4,-0.1,0.6,-0.3,0.8,-0.4c0.1,-0.1,0.2,-0.3,0.2,-0.5c0,-0.3,-0.2,-0.5,-0.7,-0.5c-0.6,-0.1,-1.4,-0.1,-2.4,-0.2c-0.9,0,-1.9,0,-2.9,0c-0.3,0,-0.4,-0.1,-0.4,-0.4c0,-0.4,0,-0.7,0,-1.1c0,-0.4,0,-0.7,0,-1c0,-0.3,0.2,-0.5,0.4,-0.5c1.7,0,3.6,0.1,5.7,0.2c0.6,0,0.9,0,1.1,-0.1c0.2,-0.1,0.2,-0.4,0.2,-0.7c0,-0.7,-0.4,-1.1,-1.3,-1.2c-0.5,-0.1,-1.2,-0.1,-2.2,-0.2c-1,0,-2.1,-0.1,-3.4,-0.1c-1.3,0,-2.7,0,-4.3,0c-1.6,0,-3.2,0.1,-4.8,0.2c-0.5,0,-0.9,-0.1,-1.2,-0.1c-0.5,-0.2,-1.1,0,-1.6,0.3c-0.6,0.4,-1,0.9,-1.2,1.7c-0.1,0.5,0,0.9,0.3,1.1c0.3,0.1,0.8,0.1,1.3,-0.2c0.2,0,0.5,-0.1,1.1,-0.2c0.6,-0.1,1.4,-0.2,2.2,-0.4c0.4,0,1,-0.1,1.7,-0.1c0.6,0,1.4,-0.1,2.1,-0.1c0.2,0,0.3,0.1,0.3,0.4l0,2.1c0,0.3,-0.1,0.4,-0.3,0.4c-0.4,0,-0.6,0.1,-0.7,0.1c-0.3,0.1,-0.8,0.1,-1.5,0.1c-0.7,-0.1,-1.4,-0.1,-2.2,-0.2c-0.5,-0.1,-1.1,0,-1.5,0.4c-0.5,0.4,-0.8,0.9,-0.9,1.4c-0.1,0.4,-0.1,0.7,0.2,0.9c0.2,0.2,0.7,0.2,1.4,0c0.6,-0.1,1.3,-0.2,2.1,-0.3c0.7,-0.1,1.5,-0.2,2.5,-0.2l0.3,0l0.2,-0.1c0.2,0,0.3,0.2,0.3,0.5c0,0.4,0,0.8,-0.1,1.2c0,0.5,0,0.9,0,1.2c0,0.3,-0.1,0.5,-0.4,0.5c-0.6,0,-1.2,0,-1.9,0c-0.7,0.1,-1.3,0.1,-1.9,0.1c-0.3,0.1,-0.6,0,-0.9,0c-0.4,-0.1,-0.8,-0.2,-1.2,-0.3c-0.5,-0.2,-0.9,-0.3,-1.2,-0.3c-0.3,0.1,-0.6,0.2,-0.9,0.4c-0.4,0.3,-0.6,0.6,-0.7,0.9c-0.1,0.4,-0.1,0.7,-0.1,1c0.1,0.5,0.4,0.8,0.9,1c0.4,0.1,1.2,0.1,2.3,-0.1c0.6,-0.1,1.3,-0.2,2.3,-0.3c0.9,-0.1,1.9,-0.1,3,-0.2c1,0,2.1,0,3.3,0c1.1,0,2.1,0,3,0.1c0.9,0.1,1.8,0.1,2.8,0.1c1,0,1.8,0,2.5,0c0.6,-0.1,0.9,-0.2,1.1,-0.4c0.2,-0.2,0.3,-0.5,0.3,-0.8c0,-0.2,-0.1,-0.4,-0.4,-0.6Zm-2.4,-3.6c-0.6,0,-0.9,0.1,-1.1,0.4c-0.1,0.3,-0.3,0.5,-0.5,0.8c-0.2,0.2,-0.4,0.4,-0.6,0.4c-0.2,0.2,-0.3,0.3,-0.3,0.4c0,0.1,0.2,0.2,0.5,0.3c0.6,0.1,1.1,0.1,1.5,0c0.4,-0.1,0.9,-0.3,1.5,-0.6c0.3,-0.1,0.5,-0.3,0.6,-0.6c0.1,-0.2,0,-0.4,-0.2,-0.6c-0.4,-0.4,-0.9,-0.6,-1.4,-0.5Z" class="g5_371" />
<path d="M242.6,398.9c-0.1,-0.2,-0.5,-0.3,-1.3,-0.3c-1.5,-0.1,-3.3,-0.1,-5.4,-0.1c-2,-0.1,-4.2,-0.1,-6.6,-0.1c-1,0,-2.1,0,-3.2,0c-1,0,-2.2,0.1,-3.3,0.1c-1.2,0,-2.5,0.1,-3.9,0.2c-1.4,0.1,-2.9,0.2,-4.6,0.3c-0.4,0.1,-0.6,0.1,-0.8,0c-0.1,0,-0.3,-0.1,-0.6,-0.4c-0.6,-0.4,-1.2,-0.5,-2,-0.4c-0.6,0.1,-1,0.4,-1.2,1c-0.3,0.6,-0.3,1.2,0,1.8c0.2,0.8,0.4,1.7,0.6,2.7c0.1,0.9,0.1,1.9,0.1,2.8c-0.1,1,-0.2,1.9,-0.3,2.8c-0.2,0.9,-0.4,1.7,-0.7,2.3c-0.4,1,-0.8,1.8,-1.2,2.4c-0.4,0.6,-0.9,1.2,-1.4,1.6c-0.5,0.4,-1.1,0.8,-1.7,1.1c-0.6,0.2,-1.3,0.5,-2.1,0.7c-0.5,0.1,-0.9,0.3,-1,0.5c-0.2,0.2,-0.2,0.5,0,0.8c0.4,1.3,1.2,2.1,2.2,2.3c0.8,0.2,1.7,0.1,2.9,-0.3c1.1,-0.4,2.1,-1.1,3.1,-2.2c0.7,-0.9,1.4,-1.7,1.9,-2.6c0.5,-0.9,0.9,-1.8,1.2,-2.9c0.3,-1.1,0.5,-2.4,0.6,-3.7c0.1,-1.4,0.2,-3.1,0.2,-5.1l0,-2c0,-0.3,0.1,-0.5,0.2,-0.5c0.1,-0.1,0.3,-0.2,0.7,-0.2c1.1,-0.1,2.3,-0.2,3.6,-0.2c1.4,-0.1,2.7,-0.2,4.1,-0.2c1.3,0,2.7,-0.1,4,-0.1c1.3,0,2.6,0,3.7,0c1.1,0.1,2.1,0.1,3,0.2c0.8,0.1,1.4,0.2,1.8,0.3c1.1,0.3,2.1,0.6,2.8,0.7c0.8,0.1,1.5,0.1,1.9,0c0.6,-0.2,1.1,-0.5,1.5,-0.9c0.5,-0.3,0.8,-0.7,1,-1.1c0.3,-0.7,0.4,-1.1,0.2,-1.3Zm-4.3,8.1c-0.4,-0.3,-1,-0.5,-1.9,-0.6c-0.5,-0.1,-1.1,-0.1,-1.7,-0.2c-0.5,0,-1.1,-0.1,-1.6,-0.2c-0.3,0,-0.5,-0.1,-0.6,-0.2c0,-0.2,0.1,-0.4,0.2,-0.7c0.2,-0.5,0.2,-0.9,0.2,-1.2c-0.1,-0.3,-0.2,-0.6,-0.4,-0.9c-0.3,-0.4,-0.6,-0.6,-1.1,-0.8c-0.5,-0.2,-1,-0.4,-1.6,-0.5c-0.3,0,-0.6,0.1,-0.7,0.3c-0.2,0.2,-0.4,0.7,-0.6,1.3c-0.1,0.3,-0.1,0.6,-0.2,0.9c-0.1,0.2,-0.2,0.5,-0.2,0.8c-0.2,0.6,-0.5,0.9,-1,0.9c-1.1,0,-1.8,0,-2.4,0c-0.6,0,-0.9,0,-1.1,0c-0.4,0,-0.7,-0.1,-1,-0.1c-0.2,-0.1,-0.5,-0.2,-0.9,-0.3c-0.3,-0.1,-0.7,-0.2,-1.1,-0.1c-0.4,0,-0.8,0.2,-1.2,0.6c-0.4,0.2,-0.7,0.5,-0.9,0.8c-0.2,0.3,-0.5,0.6,-0.8,1c-0.2,0.3,-0.3,0.5,-0.3,0.8c0.1,0.2,0.2,0.4,0.4,0.6c0.2,0.1,0.5,0.2,0.8,0.2c0.3,0,0.7,-0.1,1.1,-0.3c0.5,-0.2,1,-0.4,1.6,-0.5c0.6,-0.2,1.3,-0.3,1.9,-0.3c0.2,0,0.6,-0.1,1,-0.1c0.5,0,1.1,0,1.8,-0.1c0.3,0,0.5,0.1,0.5,0.2c0.1,0.1,0,0.3,-0.2,0.6c-0.4,0.8,-1,1.6,-1.7,2.6c-0.8,0.9,-1.6,1.8,-2.5,2.6c-1.9,1.6,-3.5,2.8,-5,3.6c-1.4,0.9,-2.8,1.5,-4.2,1.9c-0.8,0.3,-1.2,0.5,-1.3,0.8c-0.1,0.2,0.1,0.5,0.5,0.8c0.9,0.8,1.9,1.2,2.8,1.2c1,0,2.2,-0.4,3.6,-1.3c1.1,-0.6,2.3,-1.5,3.4,-2.5c1.2,-1,2.4,-2.2,3.7,-3.5c0.5,-0.6,1.2,-1.4,1.9,-2.3c0.7,-0.9,1.7,-2.2,2.8,-3.8c0.2,-0.4,0.4,-0.6,0.6,-0.7c0.1,0,0.4,-0.1,0.7,0c0.5,0,0.9,0.1,1.3,0.1c0.4,0.1,0.7,0.2,1.1,0.3c0.5,0.2,0.8,0.4,0.9,0.6c0.1,0.2,0.1,0.6,0,1.2c-0.3,1.7,-0.8,3.3,-1.5,4.5c-0.6,1.2,-1.6,2.3,-2.9,3.2c-0.4,0.3,-0.8,0.5,-1.2,0.7c-0.3,0.1,-0.7,0.2,-1,0.3c-0.4,0,-0.7,0,-1.1,-0.1c-0.4,0,-0.8,-0.1,-1.2,-0.3c-0.5,-0.1,-0.8,-0.1,-0.9,0c-0.1,0.1,-0.1,0.5,0.1,1c0.2,0.5,0.4,0.9,0.8,1.2c0.3,0.4,0.8,0.7,1.4,1.1c0.9,0.6,1.8,0.8,2.7,0.7c0.8,-0.1,1.7,-0.5,2.7,-1.1c0.5,-0.5,1,-0.9,1.5,-1.4c0.5,-0.5,1,-1.1,1.4,-1.9c0.5,-0.7,0.9,-1.5,1.4,-2.4c0.4,-0.9,0.9,-2,1.4,-3.3c0.2,-0.7,0.4,-1.2,0.6,-1.5c0.1,-0.4,0.2,-0.8,0.2,-1.1c0,-0.2,0,-0.5,0,-0.8c-0.1,-0.2,-0.1,-0.5,-0.2,-0.9c-0.2,-0.6,-0.4,-1,-0.8,-1.4Z" class="g5_371" />
<path d="M286.7,417.7c-0.2,-0.2,-0.4,-0.3,-0.6,-0.3c-0.9,0,-2,0,-3.4,-0.2c-1.3,-0.1,-2.8,-0.3,-4.5,-0.6c-1.6,-0.3,-3.4,-0.7,-5.3,-1.2c-1.8,-0.5,-3.7,-1.1,-5.7,-1.7c-0.3,-0.1,-0.3,-0.4,-0.2,-0.8c0.1,-0.4,0.2,-0.7,0.3,-1.1c0.1,-0.4,0.2,-0.8,0.2,-1.2c0.1,-0.1,0.1,-0.2,0.2,-0.3c0.1,0,0.2,-0.1,0.5,0c1.3,0.1,2.5,0.2,3.5,0.3c1.1,0.2,1.9,0.4,2.5,0.6c0.4,0.1,0.8,0.2,1.3,0.2c0.4,0,0.8,-0.2,1.1,-0.3c0.3,-0.3,0.6,-0.5,0.8,-0.9c0.2,-0.4,0.4,-0.9,0.4,-1.5c0,-0.6,0,-1.2,0.1,-1.8c0.2,-0.6,0.4,-1.1,0.6,-1.6c0.4,-0.7,0.5,-1.4,0.5,-1.9c0,-0.5,-0.3,-1,-0.7,-1.5c-0.3,-0.4,-0.6,-0.5,-1,-0.6c-0.3,0,-0.8,0.1,-1.3,0.3c-0.4,0.1,-0.7,0.2,-0.9,0.2c-0.3,0,-0.7,0,-1.1,0c-0.6,-0.1,-1.4,-0.2,-2.3,-0.2c-0.9,-0.1,-1.9,-0.1,-3,-0.2c-0.3,0,-0.4,-0.1,-0.4,-0.4c-0.1,-1.4,-0.3,-2.3,-0.6,-2.8c-0.4,-0.8,-0.9,-1.2,-1.4,-1.4c-0.6,-0.2,-1.1,-0.2,-1.8,0.1c-0.5,0.2,-0.8,0.5,-0.9,0.8c-0.1,0.3,-0.1,0.9,0,1.8c0.1,0.2,0.1,0.5,0.1,0.7c0,0.3,0,0.5,0.1,0.8c0,0.3,-0.1,0.4,-0.4,0.4c-1.2,0.1,-2.3,0.1,-3.3,0.1c-1,0.1,-2,0.1,-2.7,0.2c-0.4,0.1,-0.6,0.1,-0.7,-0.1c-0.3,-0.5,-0.7,-0.8,-1.2,-0.9c-0.5,-0.1,-1.1,0,-1.7,0.2c-0.6,0.2,-0.9,0.6,-1.1,1.2c-0.1,0.6,-0.1,1.3,0.2,2.1c0.1,0.5,0.3,1.2,0.5,2.2c0.1,0.9,0.2,1.9,0.2,2.9c0,0.5,0.2,1,0.5,1.4c0.3,0.3,0.7,0.5,1.2,0.6c0.5,0,1,-0.1,1.2,-0.5l0.3,-0.2c0.1,0,0.3,-0.1,0.5,-0.1c0.8,-0.1,1.8,-0.3,2.8,-0.3c1.1,-0.1,2.1,-0.1,3.2,0c0.3,0,0.4,0.1,0.3,0.3c-0.1,0.2,-0.1,0.4,-0.2,0.7c0,0.2,0,0.4,-0.1,0.5c-0.1,0.3,-0.3,0.4,-0.6,0.3c-0.2,-0.1,-0.4,-0.1,-0.6,-0.2c-0.1,-0.1,-0.3,-0.2,-0.5,-0.2c-1.2,-0.5,-2.2,-0.8,-2.8,-0.7c-0.6,0.1,-1.1,0.5,-1.4,1.2c-0.3,0.6,-0.4,1,-0.2,1.2c0.2,0.3,0.4,0.3,0.8,0.2c0.4,-0.2,0.8,-0.2,1.3,-0.2c0.5,0,0.9,0,1.2,0.2c0.2,0.1,0.4,0.2,0.6,0.2c0.1,0.1,0.3,0.2,0.5,0.3c0.3,0.1,0.3,0.3,0.2,0.5c-0.8,0.9,-1.8,1.7,-3,2.2c-1.2,0.6,-2.6,1.1,-4.2,1.4c-1.5,0.2,-3,0.4,-4.4,0.3c-1.5,0,-2.8,-0.2,-4.1,-0.5c-0.6,-0.1,-0.9,-0.1,-1.1,0.2c-0.1,0.3,-0.1,0.6,0.2,1.1c0.6,0.7,1.3,1.2,2.3,1.6c0.9,0.4,2,0.7,3.3,0.8c1.2,0.1,2.5,0.1,3.9,-0.1c1.4,-0.1,2.8,-0.4,4.1,-0.8c1.3,-0.5,2.5,-1.1,3.7,-1.8c1.2,-0.8,2.1,-1.7,2.9,-2.8c0.2,-0.2,0.4,-0.2,0.6,-0.1c0.9,0.4,1.7,0.8,2.4,1.2c0.8,0.4,1.5,0.8,2.1,1.2c0.7,0.4,1.4,0.8,2,1.2c0.6,0.4,1.3,0.8,2,1.3c1.6,1.2,3.1,1.8,4.2,2.1c1.2,0.2,2.4,0.1,3.6,-0.3c1.1,-0.4,1.9,-0.9,2.6,-1.5c0.6,-0.6,1.2,-1.6,1.8,-2.8c0.1,-0.3,0.1,-0.5,0,-0.7ZM263.6,407.6c-1,0,-2.1,0,-3.1,0c-1,0.1,-2,0.2,-2.9,0.2c-0.3,0.1,-0.5,-0.1,-0.5,-0.5c0,-0.5,0,-0.9,0,-1.4c0,-0.5,0,-0.9,0,-1.3c0,-0.3,0.1,-0.4,0.4,-0.4c0.9,-0.2,1.9,-0.3,3,-0.3c1,-0.1,2,-0.2,3,-0.2c0.2,0,0.3,0,0.4,0.1c0.1,0.1,0.1,0.2,0.1,0.4c0.1,0.6,0.1,1.1,0.1,1.5l0,1.5c0,0.2,-0.2,0.4,-0.5,0.4Zm10.8,-0.4c-0.1,0.2,-0.3,0.5,-0.5,0.6c-0.2,0.1,-0.5,0.2,-0.8,0.3c-0.4,0,-0.8,0,-1.4,-0.1c-0.9,-0.1,-2,-0.2,-3.2,-0.3c-0.4,0,-0.5,-0.2,-0.5,-0.6c0.1,-0.5,0.1,-1.1,0.2,-1.6c0,-0.5,0,-1,0.1,-1.6c0,-0.1,0,-0.2,0.1,-0.3c0.1,0,0.2,0,0.5,0c0.7,0,1.4,0,2.1,0c0.6,0.1,1.3,0.1,1.9,0.2c0.5,0,0.8,0.1,1.1,0.1c0.3,0.1,0.5,0.2,0.6,0.3c0.1,0.2,0.2,0.4,0.2,0.7c0,0.3,-0.1,0.7,-0.2,1.2c0,0.5,-0.1,0.8,-0.2,1.1Z" class="g5_371" />
</g>
<text 
x="115" 
y="422" 
dx="0,0,0,0" 
class="s7_371"
>中国历史</text>

<image preserveAspectRatio="none" x="138" y="490" width="269" height="2" xlink:href="371/img/5.png" />
<image preserveAspectRatio="none" x="111" y="429" width="148" height="31" xlink:href="371/img/6.png" />
<image preserveAspectRatio="none" x="259" y="429" width="148" height="31" xlink:href="371/img/7.png" />
<image preserveAspectRatio="none" x="111" y="460" width="148" height="30" xlink:href="371/img/8.png" />
<image preserveAspectRatio="none" x="259" y="460" width="148" height="30" xlink:href="371/img/9.png" />
<image preserveAspectRatio="none" x="111" y="429" width="187" height="16" xlink:href="371/img/10.png" />
<g clip-path="url(#c0_371)">
<path d="M136.1,457.9c-0.4,-0.7,-0.8,-1.3,-1.3,-1.7c-1,-1,-1.9,-1.6,-2.8,-2.1c-0.9,-0.5,-1.9,-0.8,-3,-0.8c-1.1,0,-2.4,0.2,-3.9,0.7c-1.5,0.4,-3.3,1.1,-5.5,2.1l1.8,2.9c2,-0.9,3.6,-1.5,4.9,-1.9c1.2,-0.3,2.3,-0.5,3.1,-0.5l1.4,0l1.5,1.6c-0.4,1.2,-1.1,2.4,-2.2,3.5c-1,1.2,-2.3,2.3,-3.7,3.4c-1.5,1.1,-3,2,-4.8,2.9c-1.7,0.8,-3.3,1.5,-5,2l1.9,3.8c1.4,-0.2,2.8,-0.4,3.9,-0.5c1.1,-0.1,2.2,-0.2,3.2,-0.2c1,0,2.1,0.1,3.1,0.2c1,0.1,2.2,0.3,3.4,0.5l1.6,-3.5c-1.2,-0.1,-2.2,-0.2,-3.2,-0.3c-1,-0.1,-2,-0.1,-3.1,-0.1c-1,0,-2.1,0,-3.3,0.1c-1.2,0.1,-2.5,0.2,-4,0.4c2.4,-0.9,4.6,-1.8,6.7,-2.8c2,-0.9,3.8,-1.8,5.2,-2.7c1.4,-0.9,2.6,-1.7,3.4,-2.6c0.8,-0.8,1.2,-1.6,1.2,-2.3c0,-0.7,-0.2,-1.3,-0.5,-2.1Z" class="g5_371" />
<path d="M156.3,457.9c-0.4,-0.7,-0.8,-1.3,-1.3,-1.7c-0.9,-1,-1.8,-1.6,-2.7,-2.1c-0.9,-0.5,-1.9,-0.8,-3,-0.8c-1.2,0,-2.5,0.2,-4,0.7c-1.5,0.4,-3.3,1.1,-5.4,2.1l1.8,2.9c1.9,-0.9,3.6,-1.5,4.8,-1.9c1.3,-0.3,2.3,-0.5,3.2,-0.5l1.4,0l1.5,1.6c-0.4,1.2,-1.1,2.4,-2.2,3.5c-1.1,1.2,-2.3,2.3,-3.8,3.4c-1.4,1.1,-3,2,-4.7,2.9c-1.7,0.8,-3.4,1.5,-5,2l1.8,3.8c1.5,-0.2,2.8,-0.4,3.9,-0.5c1.2,-0.1,2.2,-0.2,3.3,-0.2c1,0,2,0.1,3.1,0.2c1,0.1,2.1,0.3,3.4,0.5l1.5,-3.5c-1.1,-0.1,-2.2,-0.2,-3.1,-0.3c-1,-0.1,-2.1,-0.1,-3.1,-0.1c-1.1,0,-2.2,0,-3.4,0.1c-1.1,0.1,-2.5,0.2,-4,0.4c2.5,-0.9,4.7,-1.8,6.7,-2.8c2.1,-0.9,3.8,-1.8,5.3,-2.7c1.4,-0.9,2.5,-1.7,3.3,-2.6c0.9,-0.8,1.3,-1.6,1.3,-2.3c0,-0.7,-0.2,-1.3,-0.6,-2.1Z" class="g5_371" />
<path d="M172,454.3l-0.9,-0.7c-0.7,0.2,-1.4,0.4,-2.2,0.6c-0.7,0.2,-1.4,0.4,-2.1,0.6c-0.8,0.1,-1.5,0.3,-2.3,0.6c-0.8,0.2,-1.7,0.4,-2.6,0.6l0.5,2c0.9,-0.3,1.7,-0.5,2.2,-0.7c0.6,-0.1,1.2,-0.3,1.8,-0.5l0.7,0l0,1.6c0,0.6,-0.1,1.5,-0.4,2.6c-0.2,1.1,-0.5,2.3,-0.9,3.7c-0.4,1.3,-0.9,2.7,-1.4,4.2c-0.6,1.5,-1.3,2.8,-2,4.2l3.3,1.5c0.7,-1.4,1.5,-2.9,2.3,-4.7c0.7,-1.7,1.4,-3.4,2,-5.2c0.6,-1.7,1.1,-3.4,1.5,-5c0.4,-1.7,0.5,-3,0.5,-4.2l0,-1.2Z" class="g5_371" />
<path d="M206.7,455.2c-0.4,-0.3,-0.9,-0.6,-1.4,-0.9c-0.5,-0.3,-1.1,-0.6,-1.7,-0.8c-0.6,-0.2,-1.2,-0.3,-1.7,-0.3c-0.4,0,-0.9,0.1,-1.4,0.2c-0.5,0.2,-1,0.4,-1.6,0.8c-0.6,0.4,-1.3,0.9,-2,1.6c-0.8,0.7,-1.6,1.6,-2.6,2.6c0.3,-0.9,0.5,-1.8,0.7,-2.6c0.2,-0.8,0.3,-1.7,0.5,-2.6l-5.3,0.9c0,1.3,0,2.4,0,3.3c0,0.8,-0.1,1.6,-0.2,2.3c-0.1,0.6,-0.2,1.2,-0.4,1.8c-0.2,0.5,-0.4,1.1,-0.7,1.7c-0.3,0.7,-0.7,1.4,-1,2c-0.3,0.6,-0.7,1.2,-1,1.8c-0.3,0.6,-0.7,1.2,-1.1,1.7c-0.4,0.6,-0.8,1.3,-1.2,1.9c0,0.9,0.6,1.7,1.9,2.4c1.3,0.6,3.3,0.9,6.1,0.9c2,0,3.8,-0.2,5.6,-0.7c1.7,-0.5,3.3,-1.1,4.6,-1.9c1.3,-0.8,2.3,-1.7,3.1,-2.7c0.7,-1,1.1,-2.1,1.1,-3.1c0,-0.8,-0.4,-1.5,-1.2,-1.9c-0.7,-0.5,-1.7,-0.7,-2.9,-0.7c-0.6,0,-1.2,0,-1.7,0.1c-0.5,0,-1.2,0.1,-1.9,0.1c5.3,-1.4,7.9,-3.7,7.9,-6.8c0,-0.3,-0.2,-0.7,-0.5,-1.1Zm-3.2,1.3c-0.4,0.9,-0.9,1.7,-1.5,2.5c-0.6,0.8,-1.3,1.5,-2.1,2.1c-0.8,0.6,-1.7,1,-2.6,1.4c-0.9,0.3,-1.8,0.6,-2.8,0.6l0.5,1.7c0.9,-0.1,2,-0.1,3.1,-0.1c1.2,0,2.3,0.1,3.2,0.2c0.2,0.2,0.4,0.5,0.5,0.8c0.1,0.3,0.2,0.5,0.2,0.8c0,0.4,-0.1,0.9,-0.4,1.5c-0.3,0.7,-0.8,1.3,-1.3,1.9c-0.5,0.6,-1.1,1.2,-1.9,1.6c-0.7,0.4,-1.5,0.7,-2.3,0.7c-0.5,0,-0.9,-0.1,-1.3,-0.1c-0.4,0,-0.8,-0.1,-1.2,-0.2c-0.4,-0.1,-0.9,-0.2,-1.4,-0.4c-0.5,-0.2,-1.2,-0.4,-1.8,-0.7c0.8,-3.6,2.1,-6.7,3.9,-9.4c1.8,-2.7,4,-4.8,6.8,-6.2l2.4,1.3Z" class="g5_371" />
<path d="M231.5,456.1c-1.5,-1,-2.9,-1.7,-4.1,-2.2c-1.2,-0.5,-2.2,-0.7,-3.1,-0.7c-2.5,0,-4.8,0.5,-6.7,1.4c-2,1,-3.6,2.2,-4.9,3.6c-1.3,1.4,-2.3,2.9,-3,4.5c-0.7,1.6,-1.1,3,-1.1,4.2c0,0.8,0.2,1.7,0.7,2.5c0.4,0.8,1,1.6,1.7,2.2c0.7,0.7,1.6,1.2,2.5,1.7c0.9,0.4,1.9,0.6,2.9,0.6c0.8,0,1.6,-0.1,2.5,-0.4c0.9,-0.2,1.8,-0.5,2.8,-0.9c1,-0.4,2,-0.8,2.9,-1.3c1,-0.5,1.9,-1,2.7,-1.5l-0.6,-1.1c-1.6,0.8,-3.1,1.5,-4.6,1.9c-1.4,0.5,-2.5,0.8,-3.3,0.8c-0.7,0,-1.4,-0.2,-2,-0.5c-0.6,-0.3,-1.2,-0.6,-1.6,-1c-0.5,-0.4,-0.9,-0.8,-1.2,-1.2c-0.3,-0.5,-0.4,-0.8,-0.4,-1.1c0,-0.9,0.2,-1.9,0.6,-3.1c0.5,-1.2,1,-2.4,1.7,-3.5c0.7,-1.2,1.5,-2.3,2.5,-3.3c0.9,-1,1.8,-1.7,2.8,-2.2c0.9,0.2,1.6,0.4,2.3,0.6c0.7,0.2,1.3,0.5,1.9,0.7c0.6,0.2,1.1,0.5,1.7,0.8c0.5,0.3,1.1,0.7,1.7,1l2.7,-2.5Z" class="g5_371" />
<path d="M255.6,462.5c-1.7,0.2,-3.2,0.4,-4.5,0.5c-1.4,0.1,-2.7,0.2,-4.1,0.2c-1.4,0,-2.8,0,-4.4,-0.1c-1.5,0,-3.3,-0.1,-5.4,-0.3l1.4,3c1.4,0.1,2.7,0.1,3.8,0.2c1.1,0,2.2,0,3.2,0c0.9,0,1.9,0,2.7,0c0.9,0,1.8,-0.1,2.7,-0.1c1,-0.1,2,-0.1,3,-0.2c1.1,-0.1,2.3,-0.2,3.6,-0.3l-2,-2.9Z" class="g5_371" />
<path d="M278.8,454.3l-0.9,-0.7c-0.7,0.2,-1.5,0.4,-2.2,0.6c-0.7,0.2,-1.4,0.4,-2.1,0.6c-0.8,0.1,-1.5,0.3,-2.3,0.6c-0.8,0.2,-1.7,0.4,-2.6,0.6l0.5,2c0.9,-0.3,1.6,-0.5,2.2,-0.7c0.6,-0.1,1.2,-0.3,1.8,-0.5l0.7,0l0,1.6c0,0.6,-0.1,1.5,-0.4,2.6c-0.2,1.1,-0.5,2.3,-0.9,3.7c-0.4,1.3,-0.9,2.7,-1.5,4.2c-0.5,1.5,-1.2,2.8,-1.9,4.2l3.3,1.5c0.7,-1.4,1.5,-2.9,2.3,-4.7c0.7,-1.7,1.4,-3.4,2,-5.2c0.6,-1.7,1.1,-3.4,1.5,-5c0.3,-1.7,0.5,-3,0.5,-4.2l0,-1.2Z" class="g5_371" />
<path d="M302.8,455.3c-0.4,-0.7,-0.7,-1.1,-1.1,-1.1c-0.3,0,-0.8,0.1,-1.3,0.2c-0.6,0.2,-1.5,0.4,-2.7,0.8L295.2,454c-1.5,0.8,-2.9,1.7,-4.1,2.5c-1.3,0.9,-2.3,1.7,-3.2,2.4c-0.9,0.8,-1.6,1.6,-2.1,2.3c-0.5,0.7,-0.7,1.3,-0.7,1.9c0,0.4,0.1,0.9,0.4,1.3c0.3,0.5,0.7,0.9,1.2,1.2c0.5,0.4,1,0.7,1.7,0.9c0.6,0.2,1.3,0.3,1.9,0.3c1.3,0,2.7,-0.3,4.2,-1c1.6,-0.8,3.2,-1.8,4.7,-3.1c0,1,-0.4,2,-1.1,3c-0.8,0.9,-1.8,1.8,-3.1,2.6c-1.3,0.8,-2.8,1.6,-4.6,2.2c-1.8,0.6,-3.7,1,-5.7,1.3c0.8,0.5,1.5,0.8,2,1.1c0.6,0.2,1.3,0.5,1.9,0.7c0.4,0.2,0.8,0.3,1.1,0.3c0.3,0,0.7,0,1.1,-0.1c1,-0.3,1.9,-0.7,3,-1.3c1,-0.6,2,-1.3,3,-2c1,-0.7,1.9,-1.5,2.7,-2.2c0.8,-0.8,1.4,-1.5,1.8,-2.1c0.7,-0.9,1.3,-1.9,1.6,-3.1c0.3,-1.2,0.4,-2.5,0.4,-3.9c0,-1.9,-0.1,-3.2,-0.5,-3.9Zm-5.6,6.9c-1,0.9,-2.6,1.8,-4.8,2.6l-2.6,-1.2c0.5,-1.4,1.3,-2.8,2.5,-4.2c1.1,-1.4,2.6,-2.6,4.3,-3.6l1.7,0.6c0.1,0.5,0.3,0.9,0.4,1.4c0,0.4,0.1,0.9,0.1,1.3c0,1.2,-0.5,2.2,-1.6,3.1Z" class="g5_371" />
<path d="M319.3,454.3l-0.9,-0.7c-0.7,0.2,-1.4,0.4,-2.2,0.6c-0.7,0.2,-1.4,0.4,-2.1,0.6c-0.8,0.1,-1.5,0.3,-2.3,0.6c-0.8,0.2,-1.7,0.4,-2.6,0.6l0.6,2c0.8,-0.3,1.6,-0.5,2.1,-0.7c0.6,-0.1,1.2,-0.3,1.8,-0.5l0.7,0l0,1.6c0,0.6,-0.1,1.5,-0.3,2.6c-0.3,1.1,-0.6,2.3,-1,3.7c-0.4,1.3,-0.9,2.7,-1.4,4.2c-0.6,1.5,-1.3,2.8,-2,4.2l3.3,1.5c0.7,-1.4,1.5,-2.9,2.3,-4.7c0.7,-1.7,1.4,-3.4,2,-5.2c0.6,-1.7,1.1,-3.4,1.5,-5c0.4,-1.7,0.5,-3,0.5,-4.2l0,-1.2Z" class="g5_371" />
<path d="M344.1,457.9c-0.3,-0.7,-0.8,-1.3,-1.2,-1.7c-1,-1,-1.9,-1.6,-2.8,-2.1c-0.9,-0.5,-1.9,-0.8,-3,-0.8c-1.1,0,-2.5,0.2,-3.9,0.7c-1.5,0.4,-3.4,1.1,-5.5,2.1l1.8,2.9c2,-0.9,3.6,-1.5,4.8,-1.9c1.3,-0.3,2.3,-0.5,3.2,-0.5l1.4,0l1.5,1.6c-0.4,1.2,-1.1,2.4,-2.2,3.5c-1,1.2,-2.3,2.3,-3.7,3.4c-1.5,1.1,-3.1,2,-4.8,2.9c-1.7,0.8,-3.4,1.5,-5,2l1.8,3.8c1.5,-0.2,2.8,-0.4,4,-0.5c1.1,-0.1,2.2,-0.2,3.2,-0.2c1,0,2,0.1,3.1,0.2c1,0.1,2.2,0.3,3.4,0.5l1.6,-3.5c-1.2,-0.1,-2.2,-0.2,-3.2,-0.3c-1,-0.1,-2,-0.1,-3.1,-0.1c-1,0,-2.2,0,-3.3,0.1c-1.2,0.1,-2.6,0.2,-4,0.4c2.4,-0.9,4.6,-1.8,6.6,-2.8c2.1,-0.9,3.8,-1.8,5.3,-2.7c1.4,-0.9,2.6,-1.7,3.4,-2.6c0.8,-0.8,1.2,-1.6,1.2,-2.3c0,-0.7,-0.2,-1.3,-0.6,-2.1Z" class="g5_371" />
<path d="M373.5,472.9c-0.4,-0.8,-0.8,-1.7,-1.1,-2.5c-0.4,-0.9,-0.6,-1.8,-0.8,-2.8c-0.2,-1,-0.4,-2.2,-0.5,-3.4C371,462.9,371,461.5,371,459.8c0,-1.1,0,-2.2,0.2,-3.4c0.1,-1.2,0.3,-2.3,0.5,-3.3c-1,0.3,-1.9,0.6,-2.7,0.8c-0.9,0.2,-1.8,0.4,-2.7,0.5c-0.1,0.7,-0.3,1.4,-0.6,2.2c-0.4,0.8,-0.8,1.7,-1.4,2.6c-0.6,0.9,-1.3,1.8,-2,2.7c-0.8,0.9,-1.7,1.9,-2.6,2.8c-0.3,0.3,-0.6,0.5,-0.9,0.8c-0.3,0.2,-0.7,0.4,-1.3,0.7c-1.1,0.6,-2,1,-2.7,1.5c-0.7,0.4,-1.3,0.8,-1.7,1.2c-0.4,0.4,-0.7,0.8,-0.8,1.2c-0.1,0.4,-0.2,0.9,-0.2,1.4c0,1.6,0.5,2.4,1.4,2.4c0.2,0,0.5,-0.1,0.9,-0.3c0.4,-0.2,0.9,-0.6,1.5,-1.2c0.7,-0.5,1.4,-1.3,2.3,-2.3c0.9,-1,1.9,-2.2,3.1,-3.7c1.4,-0.1,2.5,-0.1,3.4,0c0.9,0.1,1.8,0.2,2.6,0.5c0.2,1.4,0.4,2.6,0.7,3.6c0.4,1.1,0.8,2.2,1.2,3.4l4.3,-1Zm-6.2,-13c-0.1,1.1,-0.1,2.1,-0.1,2.9l0,1.9c-1,-0.1,-1.8,-0.1,-2.5,-0.1c-0.8,0.1,-1.5,0.1,-2.3,0.2c1.1,-1.3,2.1,-2.6,2.9,-4c0.9,-1.4,1.6,-2.7,2.2,-4.1c-0.1,0.9,-0.2,2,-0.2,3.2Z" class="g5_371" />
<path d="M395.3,462.7c-0.2,-0.7,-0.5,-1.5,-1,-2.4c-0.5,-0.9,-1.2,-1.9,-2.1,-3.1c-0.9,-1.1,-2,-2.5,-3.4,-4.1l-4.5,1.3l-3.2,-1.3c-0.4,2.4,-1.2,5,-2.4,7.9c-1.2,2.8,-2.7,5.8,-4.5,8.9c-0.3,0.4,-0.3,0.8,-0.2,1.1c0,0.3,0.4,0.8,1.1,1.5c0.4,0.4,0.7,0.7,1,0.9c0.3,0.2,0.6,0.3,1,0.2c0.4,0,0.8,-0.3,1.3,-0.6c0.5,-0.4,1.1,-1,1.9,-1.7c2.8,1.7,4.7,2.6,5.7,2.6c0.8,0,1.7,-0.3,2.8,-0.7c1.1,-0.4,2.1,-1,3.1,-1.8c1.1,-0.8,1.9,-1.7,2.6,-2.9c0.8,-1.1,1.1,-2.3,1.1,-3.7c0,-0.7,-0.1,-1.4,-0.3,-2.1Zm-4.8,4.7c-0.4,0.7,-0.8,1.3,-1.4,1.8c-0.6,0.6,-1.2,1,-1.9,1.2c-0.7,0.3,-1.3,0.5,-2,0.5c-0.7,0,-1.6,-0.2,-2.6,-0.5c-1.1,-0.3,-2.1,-0.7,-3,-1.3c1.3,-2.1,2.4,-4.4,3.4,-6.8c0.9,-2.4,1.7,-4.7,2.2,-7c1.9,2,3.3,3.8,4.3,5.5c1,1.7,1.5,3.1,1.5,4.4c0,0.8,-0.2,1.5,-0.5,2.2Z" class="g5_371" />
</g>
<text 
x="115" 
y="474" 
dx="0,-2.9,-2.9,-2.9,-2.9,-2.9,-2.9,-2.9,-2.9,-2.9,-2.9,-2.9,-2.9,-2.9,-2.9,-2.9" 
class="s8_371"
>221 BC - 1912 AD</text>

<image preserveAspectRatio="none" x="491" y="262" width="342" height="228" xlink:href="371/img/11.png" />
<text 
x="506" 
y="335" 
dx="0,0" 
class="s9_371"
>中国</text>

<text 
x="506" 
y="393" 
dx="0,0,0" 
class="s9_371"
>文学史</text>

<image preserveAspectRatio="none" x="112" y="542" width="343" height="228" xlink:href="371/img/12.png" />
<g clip-path="url(#c1_371)">
<g fill="#231F20" >
<use xlink:href="#f0_1a" transform="matrix(30.8,0,0,30.8,125.2,651.1)" />
<use xlink:href="#f0_18" transform="matrix(30.8,0,0,30.8,172.2,651.1)" />
<use xlink:href="#f0_1v" transform="matrix(30.8,0,0,30.8,219.2,651.1)" />
</g>
</g>
<text 
x="125" 
y="602" 
dx="0" 
class="s10_371"
>跟</text>

<text 
x="125" 
y="724" 
dx="0" 
class="s10_371"
>学</text>

<g clip-path="url(#c1_371)">
<g fill="#231F20" >
<use xlink:href="#f0_q" transform="matrix(30.2,0,0,30.2,170.7,724.7)" />
<use xlink:href="#f0_2g" transform="matrix(30.2,0,0,30.2,216.8,724.7)" />
</g>
</g>
<text 
x="199" 
y="679" 
dx="0,0.3,0.3,0.3,0.3" 
class="s11_371"
>fāyīn</text>

<image preserveAspectRatio="none" x="487" y="542" width="342" height="229" xlink:href="371/img/13.png" />
<image preserveAspectRatio="none" x="654" y="626" width="173" height="55" xlink:href="371/img/14.png" />
<text 
x="658" 
y="663" 
dx="0,0,0,0" 
class="s12_371"
>中文语法</text>

<image preserveAspectRatio="none" x="698" y="681" width="85" height="49" xlink:href="371/img/15.png" />
<image preserveAspectRatio="none" x="698" y="675" width="85" height="6" xlink:href="371/img/16.png" />
<text 
x="702" 
y="712" 
dx="0,0,0" 
class="s13_371"
>101</text>

<image preserveAspectRatio="none" x="111" y="828" width="343" height="229" xlink:href="371/img/17.png" />
<image preserveAspectRatio="none" x="146" y="978" width="109" height="54" xlink:href="371/img/18.png" />
<image preserveAspectRatio="none" x="255" y="978" width="109" height="54" xlink:href="371/img/19.png" />
<image preserveAspectRatio="none" x="364" y="978" width="55" height="54" xlink:href="371/img/20.png" />
<text 
x="154" 
y="1015" 
dx="0,0,0,0,0,0,0" 
class="s14_371"
>一起写汉字吧！</text>

<image preserveAspectRatio="none" x="490" y="828" width="343" height="228" xlink:href="371/img/21.png" />
<text 
x="496" 
y="950" 
dx="0,0,0,0,0" 
class="s15_371"
>每天学一个</text>

<text 
x="496" 
y="997" 
dx="0,0,0,0" 
class="s15_371"
>中文生词</text>

<text 
x="621" 
y="873" 
dx="0" 
class="s16_371"
>马</text>


<defs>
	<path d="M585.1,-59.5c-21.3,0,-45.8,12.2,-58,32.1c-9.2,15.3,-21.4,53.4,-26,77.8C539,47.2,573,45.2,607.8,45.2c31,0,62.7,1.6,98,5.2C722.6,51.9,741,70.3,744,87.1c13.8,64.2,6.1,139,-7.6,203.2C528.6,281.1,323.9,255.1,125.3,218.5c1.5,18.3,3,41.2,7.6,59.6c6.1,19.8,21.4,44.3,44.3,48.8c171.1,29.1,345.3,45.9,524.1,59.6c-9.2,33.6,-29.1,68.8,-47.4,102.4C770,516.4,887.6,565.3,990,620.3c-218.5,0,-481.2,-19.9,-647.8,-62.7c1.6,18.4,3.1,39.8,7.7,58.1c6.1,19.9,18.3,42.8,39.7,47.4C508.2,692.1,809,712,998.1,712c30.1,0,57.3,-0.5,80.5,-1.6c38.2,-1.5,71.8,-13.7,77.9,-53.5c6.1,-36.6,-22.9,-62.6,-50.4,-79.4C1009.9,514.9,899.9,472.1,791.4,435.4c6.1,-10.7,15.3,-27.5,21.4,-41.2c122.6,3.4,289.9,7.7,450.3,7.7c53.5,0,106.2,-0.5,156.2,-1.6c1.5,-29,1.5,-73.4,1.5,-94.7c-35.1,0.2,-70,0.3,-104.7,0.3c-167.3,0,-327.7,-2.9,-468.2,-8c12.2,-62.6,26,-137.5,13.8,-204.7C855.6,65.7,846.4,39.7,832.6,18.3C815.8,-7.5,789.9,-27.4,756.3,-38.1C702.8,-54.9,644.7,-58,585.1,-59.5ZM154.3,553.1c-9.2,18.3,-19.9,39.7,-26,62.6c-6.1,22.9,-7.6,56.5,12.3,71.8c174.1,131.4,348.3,242.9,533.2,345.3c-174.2,-10.7,-348.4,-26,-514.9,-58.1c1.5,22.9,3,52,12.2,73.4c7.7,15.2,18.3,27.5,38.2,30.5c136,24.5,383.5,47.4,508.8,53.5c0,33.6,-1.6,71.8,-4.6,105.4C745.6,1236,796,1236,815.8,1236c4.6,-33.6,6.1,-73.4,6.1,-97.8c186.4,4.6,375.9,9.2,563.8,9.2c0,-24.5,0,-70.3,-1.5,-94.8c-171.1,0,-349.9,0,-522.5,-7.6C1045,945.7,1228.3,843.3,1396.4,713.5c16.8,-13.8,21.4,-32.1,21.4,-53.5c-1.5,-30.6,-16.8,-64.2,-26,-85.6C1232.9,716.5,1022.1,851,826.5,967.1c0,-55,-1.5,-155.8,-3,-204.7c-30.6,-3.1,-71.8,-6.1,-105.4,-6.1c3,68.7,4.5,135.9,4.5,206.2C533.2,846.4,299.4,682.9,154.3,553.1Z" 
	id="f0_1a"
	transform="scale(0.001,-0.001)" />

	<path d="M799.1,-59.1c-81.2,0,-149.7,3,-189.5,10.3C550,-38.1,490.4,21.4,484.3,84c-7.6,76.4,-1.5,201.7,10.7,284.2C420.1,304,255.1,143.6,169.6,61.1c-13.8,16.8,-35.2,44.3,-42.8,70.3c-6.1,19.9,-4.6,41.2,13.8,58C275,317.8,491.9,510.3,661.5,649.3C482.8,635.6,305.6,611.1,132.9,571.4c1.5,22.9,1.5,48.9,9.2,70.3c7.6,24.4,22.9,42.7,51.9,48.9c126.8,24.4,276.6,44.3,426.3,58c1.5,53.5,4.6,155.8,6.1,203.2C495,944.2,345.3,924.3,232.2,899.9c1.6,25.9,3.1,48.9,9.2,67.2c7.6,22.9,21.4,39.7,55,45.8c102.4,18.4,216.9,27.5,333,38.2c6.2,62.7,13.8,136,24.5,195.6l110,0c-7.6,-55,-16.8,-136,-22.9,-187.9c74.8,3,169.6,6.1,247.5,6.1c1.5,-24.5,1.5,-74.9,3,-99.3C906,964,818.9,964,734.9,956.4c-6.1,-64.2,-7.7,-129.9,-4.6,-197.1c16.8,1.5,55,3.1,71.8,3.1c177.2,154.3,346.8,304,510.3,429.3c27.5,-21.4,61.1,-47.4,84,-65.7C1231.4,997.6,1101.5,887.6,967.1,773.1c83.5,4,195.5,6.1,299.9,6.1c52.2,0,102.4,-0.5,146.2,-1.6l0,-102.3c-35.4,0.7,-76.5,1.1,-120.9,1.1c-143.9,0,-322.5,-4,-452,-13.3C782.2,615.7,666.1,517.9,608.1,469C600.4,418.6,594.3,365.1,592.8,311.7c209.3,82.5,432.3,174.1,644.7,252.1c21.4,-23,61.1,-61.2,77.9,-81C1074,397.2,803.6,291.8,588.2,197.1c1.5,-26,1.5,-61.1,3.1,-77.9C592.8,84,611.1,58.1,647.8,56.5C709.2,55.1,800,52.1,899.1,52.1c115.2,0,241.7,4.1,346,19.7c10.7,1.5,26,9.2,38.2,22.9c7.7,10.7,15.3,24.5,18.4,42.8c6.1,38.2,6.1,93.2,6.1,143.6c27.5,-4.6,53.5,-9.2,73.3,-19.8c19.9,-10.7,33.6,-29.1,36.7,-59.6c4.6,-35.2,-7.7,-88.6,-15.3,-114.6C1394.9,56.5,1376.5,26,1352.1,4.6c-29,-25.9,-65.7,-41.2,-102.4,-44.2C1116.3,-50.3,938.9,-59.1,799.1,-59.1Z" 
	id="f0_18"
	transform="scale(0.001,-0.001)" />

	<path d="M126.8,322.4l0,0c-4.6,244.4,15.3,473.6,45.8,707.3l108.5,0C247.5,799,230.7,560.7,230.7,325.4l-103.9,-3ZM933.5,-62.5c12.2,300.8,15.3,620.1,3,895.1c-64.1,-3,-142.1,-13.7,-203.2,-22.9C713.5,592.8,698.2,334.6,696.7,105.4l-107,-1.5c-4.6,229.2,15.3,458.3,38.2,681.4c-16.8,-1.5,-36.6,-4.6,-50.4,-7.7C576,799,579,825,586.7,844.9c7.6,18.3,21.4,30.5,42.7,36.6c90.2,22.9,203.2,39.8,301,47.4c0,53.5,-4.6,132.9,-10.7,194c-103.9,-4.6,-229.1,-16.8,-336.1,-32.1c-1.5,19.9,1.5,44.3,13.8,64.2c10.7,21.4,29,36.7,53.4,39.7c204.2,25.7,418,36.3,632.5,36.3c40.8,0,81.5,-0.4,122.3,-1.1l0,-94.8c-43.9,1.1,-88.9,1.6,-134,1.6c-82.2,0,-164.9,-1.7,-241.9,-4.6c3.1,-62.7,9.2,-139,9.2,-195.6c50.4,-1.5,116.1,-3,169.6,-12.2c50.4,-7.6,91.6,-30.5,119.1,-65.7c23,-27.5,36.7,-61.1,41.3,-100.8c15.3,-137.5,18.3,-382,10.7,-517.9c-1.5,-33.6,-12.2,-64.2,-30.6,-88.6c-18.3,-23,-44.3,-41.3,-76.4,-48.9C1249.9,95.9,1219.4,94,1191,94c-11.5,0,-22.8,0.3,-32.9,0.7c-23,1.6,-36.7,16.8,-44.3,35.2c-10.7,22.9,-12.3,51.9,-12.3,73.3c17.6,-1.5,39,-2.3,60.8,-2.3c21.7,0,43.9,0.8,63,2.3c21.4,1.5,41.2,19.9,44.3,41.2c15.3,136,7.6,378.9,-9.2,513.4c-6.1,41.2,-38.2,71.8,-77.9,76.4c-27.5,4,-61.1,6.1,-92.2,6.1c-15.6,0,-30.5,-0.5,-43.8,-1.5c6.1,-241.4,7.7,-591.3,-6.1,-901.3ZM411,-64.1c-30.6,6.1,-62.7,13.8,-82.5,33.6C314.7,-16.7,307.1,3.1,308.6,32.1C339.2,411,401.8,876.9,469,1248.2l105.4,0C511.8,889.2,438.5,363.6,411,-64.1Z" 
	id="f0_1v"
	transform="scale(0.001,-0.001)" />

	<path d="M1213.1,954.9c-50.5,79.4,-103.9,145.1,-168.1,209.3l85.6,58c51.9,-51.9,106.9,-102.3,142,-161.9c12.3,-19.9,10.7,-38.2,1.6,-53.5c-10.7,-21.4,-36.7,-39.7,-61.1,-51.9ZM385,-76.3c-16.8,24.5,-29,55,-27.5,82.4c0,19.9,7.6,36.7,21.4,47.4c110,84,238.3,168,326.9,224.6c-73.3,33.6,-148.2,62.6,-226.1,90.1l59.6,77.9C631,418.6,721.1,380.4,812.8,345.3c108.5,67.2,221.5,136,328.5,195.5c12.2,7.7,12.2,19.9,-6.2,19.9c-8.4,0,-16.7,0.1,-25.1,0.1c-231,0,-454.4,-20.7,-660.8,-84.1C362.1,301,275,131.4,201.7,-62.5c-26,6.1,-56.6,27.5,-71.8,50.4C116.1,7.6,114.6,29,125.3,53.5C241.4,314.7,362.1,565.3,505.7,809.7C391.1,802.1,281.1,789.9,166.5,771.5C206.3,901.4,252.1,1031.3,304,1155l108.5,-22.9C378.9,1052.6,345.3,973.2,320.8,889.2c79.5,7.6,186.4,16.8,243,21.4c67.2,111.5,152.7,255.1,204.7,342.2l100.8,-41.3C821.9,1135.1,733.3,986.9,693.6,921.3c126.4,4.1,254.2,6.9,382.1,6.9c108.6,0,217.2,-2,325.3,-6.9l0,-99.4c-134.6,5.7,-267,9.6,-400.4,9.6c-119.6,0,-240,-3.1,-363.5,-11.1C591.3,747.1,550,672.2,510.3,595.8c184.8,44.9,390.1,61.9,595.5,61.9c25.6,0,51.2,-0.2,76.7,-0.8c62.6,-1.5,103.9,-33.6,113.1,-71.8c9.1,-33.6,-6.2,-73.3,-53.5,-99.3C1142.8,429.3,1009.9,349.9,928.9,299.4C1089.3,227.6,1248.2,151.3,1401,64.2c21.4,-12.3,29,-33.6,29,-56.6c0,-27.4,-9.2,-56.4,-16.8,-76.3C1205.4,48.9,1031.3,148.2,821.9,230.7C673.8,139,527.1,32.1,385,-76.3Z" 
	id="f0_q"
	transform="scale(0.001,-0.001)" />

	<path d="M363.6,41.3l0,0C560.7,60,761.1,63.6,962.8,63.6c78.2,0,156.5,-0.5,235,-1c1.5,59.6,0,123.8,-3.1,180.3c-52.8,1.2,-105.8,1.8,-158.8,1.8C816,244.7,594.6,234.2,374.3,210.8C371.3,168.1,366.7,84,363.6,41.3Zm19.9,264.3l0,0c231.9,21.3,456.6,30.2,667.4,30.2c46.1,0,91.5,-0.4,136.2,-1.2c-1.5,29,-6.1,76.4,-15.3,102.3c-10.7,27.5,-32.1,47.4,-65.7,52c-47.4,5.6,-104.3,7.9,-166.2,7.9c-175,0,-389.5,-18.9,-539.6,-36.9C395.7,418.6,386.5,342.2,383.5,305.6ZM252.1,-68.7l0,0c7.6,172.6,19.8,343.7,44.3,510.2c-29,-3,-59.6,-9.1,-90.1,-16.8c1.5,24.5,3,48.9,10.6,68.8c6.2,19.8,19.9,35.1,45.9,39.7c200.3,38.6,473.5,59.9,691.8,59.9c49.8,0,96.7,-1.1,139.3,-3.4c47.4,-3,91.7,-15.3,126.8,-41.2c35.1,-27.5,59.6,-70.3,64.2,-136c9.1,-140.6,19.8,-301,21.4,-447.5c-126,2.1,-252,4.5,-377.7,4.5C702,-30.5,476.1,-38.2,252.1,-68.7ZM125.3,640.1c3,21.4,6.1,48.9,15.3,70.3c7.6,18.4,19.8,32.1,41.2,35.2c120.7,16.8,250.6,30.5,357.5,39.7c-9.2,41.2,-76.4,132.9,-103.9,166.5c22.9,12.2,68.8,35.1,90.2,45.8C563.8,948.8,603.5,896.8,618.8,854c7.6,-22.9,-1.6,-53.4,-29.1,-62.6C715,796,854,800.6,965.6,803.6c-15.3,15.3,-23,42.8,-16.8,59.6c18.3,50.4,68.7,105.4,105.4,148.2c22.9,-12.2,68.7,-36.7,88.6,-47.4C1098.5,916.7,1060.3,860.1,1029.7,803.6c129.9,-1.5,290.3,-4.6,385,-7.6c1.6,-29.1,1.6,-68.8,0,-94.7c-121.6,8.2,-247.1,12.3,-373.5,12.3C725,713.6,403.7,688.2,125.3,640.1Zm82.5,342.3l0,0c1.5,19.8,1.5,42.7,6.1,62.6c6.1,22.9,19.9,41.3,48.9,44.3c146.6,16.8,296.4,26,453.7,33.6c-10.7,22.9,-29,56.5,-39.7,74.9c33.6,12.2,67.2,24.4,102.4,36.6c21.4,-35.1,42.7,-74.8,59.6,-113c76.5,2.1,155.7,3.3,235.4,3.3c92.1,0,184.8,-1.6,274.8,-4.8l0,-96.3c-134.4,5.4,-270.4,9,-405.9,9c-250.9,0,-500.2,-12.5,-735.3,-50.2Z" 
	id="f0_2g"
	transform="scale(0.001,-0.001)" />


</defs>

<!-- Any embedded fonts defined here -->
<style type="text/css" ><![CDATA[

@font-face {
	font-family: ProximaNova-Extrabld_db2;
	src: url("fonts/ProximaNova-Extrabld_db2.woff") format("woff");
}

@font-face {
	font-family: STHeitiSC-Light_cje;
	src: url("fonts/STHeitiSC-Light_cje.woff") format("woff");
}

@font-face {
	font-family: STBaoliSC-Regular_dc3;
	src: url("fonts/STBaoliSC-Regular_dc3.woff") format("woff");
}

@font-face {
	font-family: STZhongsong_dc4;
	src: url("fonts/STZhongsong_dc4.woff") format("woff");
}

@font-face {
	font-family: Alegreya-Regular_db1;
	src: url("fonts/Alegreya-Regular_db1.woff") format("woff");
}

@font-face {
	font-family: Alegreya-Regular_dc2;
	src: url("fonts/Alegreya-Regular_dc2.woff") format("woff");
}

@font-face {
	font-family: ProximaNova-Semibold_db4;
	src: url("fonts/ProximaNova-Semibold_db4.woff") format("woff");
}

@font-face {
	font-family: STBaoliSC-Regular_cj6;
	src: url("fonts/STBaoliSC-Regular_cj6.woff") format("woff");
}

@font-face {
	font-family: STLibianSC-Regular_cja;
	src: url("fonts/STLibianSC-Regular_cja.woff") format("woff");
}

@font-face {
	font-family: ProximaNova-Bold_da-;
	src: url("fonts/ProximaNova-Bold_da-.woff") format("woff");
}

@font-face {
	font-family: PingFangSC-Regular_dbv;
	src: url("fonts/PingFangSC-Regular_dbv.woff") format("woff");
}

@font-face {
	font-family: STKaiti-SC-Regular_cxe;
	src: url("fonts/STKaiti-SC-Regular_cxe.woff") format("woff");
}

@font-face {
	font-family: STZhongsong_cji;
	src: url("fonts/STZhongsong_cji.woff") format("woff");
}

@font-face {
	font-family: STXingkaiSC-Light_cjn;
	src: url("fonts/STXingkaiSC-Light_cjn.woff") format("woff");
}

]]></style>

</svg>
