<?xml version="1.0" encoding="UTF-8" standalone="no"?>
<!DOCTYPE svg PUBLIC "-//W3C//DTD SVG 1.1//EN"
"http://www.w3.org/Graphics/SVG/1.1/DTD/svg11.dtd">


<!-- Page 230 -->
<svg x="0" y="0" width="921" height="1196" viewBox="0 0 921 1196" version="1.1" xmlns="http://www.w3.org/2000/svg" xmlns:xlink="http://www.w3.org/1999/xlink"
style="display: block;margin-left: auto;margin-right: auto;">
<defs>

<style type="text/css"><![CDATA[

.g1_230{
fill: none;
stroke: #3986C6;
stroke-width: 1.6194444;
stroke-linecap: butt;
stroke-linejoin: miter;
stroke-miterlimit: 4;
}
.g2_230{
fill: #3986C6;
}
.g3_230{
fill: #E2E3E5;
}
.g4_230{
fill: none;
stroke: #3986C6;
stroke-width: 1.5277778;
stroke-linecap: butt;
stroke-linejoin: miter;
stroke-miterlimit: 4;
}
.g5_230{
fill: #DCDDDF;
}
.g6_230{
fill: none;
stroke: #D9ECD4;
stroke-width: 0.38194445;
stroke-linecap: butt;
stroke-linejoin: miter;
}
.g7_230{
fill: none;
stroke: #D1D2D4;
stroke-width: 0.38194445;
stroke-linecap: butt;
stroke-linejoin: miter;
}
.g8_230{
fill: none;
stroke: #939598;
stroke-width: 0.38194445;
stroke-linecap: butt;
stroke-linejoin: miter;
}
.g9_230{
fill: none;
stroke: #939598;
stroke-width: 0.7638889;
stroke-linecap: butt;
stroke-linejoin: miter;
}

.s1_230{
font-size: 12.99px;
font-family: ProximaNova-Semibold_bqt;
fill: #231F20;
}
.s2_230{
font-size: 18.33px;
font-family: ProximaNova-Bold_d4m;
fill: #231F20;
}
.s3_230{
font-size: 22.92px;
font-family: STKaiti-SC-Bold_cqx;
fill: #231F20;
}
.s4_230{
font-size: 19.10px;
font-family: Alegreya-Regular_d4p;
fill: #231F20;
}
.s5_230{
font-size: 16.81px;
font-family: ProximaNovaCond-Extrabld_d50;
fill: #231F20;
}
.s6_230{
font-size: 19.86px;
font-family: ProximaNova-Bold_d4m;
fill: #231F20;
}
.s7_230{
font-size: 32.08px;
font-family: STKaiti_c-m;
fill: #231F20;
}
.s8_230{
font-size: 32.08px;
font-family: STKaitiSC-Regular_cof;
fill: #231F20;
}
.s9_230{
font-size: 16.04px;
font-family: Alegreya-Regular_d4p;
fill: #231F20;
}
.s10_230{
font-size: 19.10px;
font-family: Alegreya-Bold_d4i;
fill: #231F20;
}
.s11_230{
font-size: 32.08px;
font-family: STKaitiSC-Regular_d51;
fill: #231F20;
}

]]></style>

</defs>
<path d="M0,0
L0,1196
L921,1196
L921,0 Z " 
fill="#FFFFFF" stroke="none" />
<text 
transform="matrix(0, 1, -1, 0, 867, 835)"
dx="0,0,0,0,0,0,0,0,0,0" 
class="s1_230"
>Chapter 9 </text>

<text 
transform="matrix(0, 1, -1, 0, 867, 899)"
dx="0,0" 
class="s1_230"
>• </text>

<text 
transform="matrix(0, 1, -1, 0, 867, 910)"
dx="0,0,0,0,0,0,0,0,0,0,0,0,0,0,0,0,0,0" 
class="s1_230"
>A Birthday Dinner </text>

<text 
transform="matrix(0, 1, -1, 0, 867, 1020)"
dx="0,0" 
class="s1_230"
>• </text>

<text 
transform="matrix(0, 1, -1, 0, 867, 1031)"
dx="0,0,0,0,0,0,0,0,0" 
class="s1_230"
>Section 1</text>

<text 
x="856" 
y="1149" 
dx="0,0,0" 
class="s2_230"
>207</text>

<path d="M872.3,1089.3l0,38.7" class="g1_230" />
<path d="M872.3,1125.4c-1.5,0,-2.6,1.1,-2.6,2.6c0,1.4,1.1,2.6,2.6,2.6c1.4,0,2.6,-1.2,2.6,-2.6c0,-1.5,-1.2,-2.6,-2.6,-2.6Z" class="g2_230" />
<path d="M307.5,1059.4c-3.7,0,-6.8,3.1,-6.8,6.8l0,26.4c0,3.8,3.1,6.9,6.8,6.9l29.5,0c3.8,0,6.9,-3.1,6.9,-6.9l0,-26.4c0,-3.7,-3.1,-6.8,-6.9,-6.8Z" class="g3_230" />
<text 
x="116" 
y="142" 
dx="0" 
class="s3_230"
>好</text>

<text 
x="144" 
y="142" 
dx="0,0,0,0,0,0" 
class="s2_230"
>+ verb</text>

<text 
x="117" 
y="178" 
dx="0,-0.2,0,0,0,0,0,0,0,-0.2,0,0,0,-0.4,-0.4,0,0,0,0,0,0,0,0,0,-0.3,0,0,0,0,0,0,0,0,0,-0.3,0,0,0,0,0,0,0,0,0,0,0,0,0,0,0,-0.3,0,-0.2,0,0,0,0,0,0,0,-0.2,0,0,0,0,0,0,0,0,0,0,0,-0.3,0,0,0,0,0,0,0,-0.3,0,0,0,0,0,0,-0.2,0" 
class="s4_230"
>In some cases, a positive adjective (description word) is created when certain verbs are </text>

<text 
x="118" 
y="206" 
dx="0,0,0,0,0,0,0,0,0" 
class="s4_230"
>added to </text>

<text 
x="189" 
y="205" 
dx="0" 
class="s3_230"
>好</text>

<text 
x="212" 
y="206" 
dx="0,-0.4,0,-0.4,0,-0.2,0,0,0,-0.2,0,0,0,0,0,0,0,-0.3,0,0,0,0,0,0,-0.4,-0.4,0,0,0,0,0,0" 
class="s4_230"
>. Here are some common examples:</text>

<path d="M89.4,146.3l20.6,0l0,-20.6l-20.6,0l0,20.6Z" class="g3_230" />
<text 
x="96" 
y="142" 
dx="0" 
class="s5_230"
>1</text>

<text 
x="90" 
y="98" 
dx="0,-0.1,0,0,0,0,0,0,0,0,-0.6,0,0,0,0,0,0,0,0" 
class="s6_230"
>Language Reference </text>

<path d="M291,92.5l520.5,0" class="g4_230" />
<path d="M291,95.5c1.7,0,3,-1.4,3,-3c0,-1.7,-1.3,-3.1,-3,-3.1c-1.7,0,-3.1,1.4,-3.1,3.1c0,1.6,1.4,3,3.1,3Z" class="g2_230" />
<path d="M116.9,231l137.5,0l0,34.7l-137.5,0l0,-34.7Zm137.5,0l206.2,0l0,34.7l-206.2,0l0,-34.7Zm206.2,0l349.1,0l0,34.7l-349.1,0l0,-34.7Z" class="g5_230" />
<path d="M460.6,265.7l0,-34.7" class="g6_230" />
<path d="M460.6,423.2l0,-157.5" class="g7_230" />
<path d="M460.6,531l0,-107.5" class="g7_230" />
<path d="M460.6,638.6l0,-107.2" class="g7_230" />
<path d="M460.6,423.4l349.1,0" class="g8_230" />
<path d="M460.6,531.2l349.1,0" class="g8_230" />
<path d="M460.6,639l349.1,0" class="g9_230" />
<path d="M254.4,265.7l0,-34.7" class="g7_230" />
<path d="M254.4,423.2l0,-157.5" class="g7_230" />
<path d="M254.4,531l0,-107.5" class="g7_230" />
<path d="M254.4,638.6l0,-107.2" class="g7_230" />
<path d="M116.9,423.4l137.5,0" class="g8_230" />
<path d="M116.9,531.2l137.5,0" class="g8_230" />
<path d="M116.9,639l137.5,0" class="g9_230" />
<path d="M254.4,423.4l206.2,0" class="g8_230" />
<path d="M254.4,531.2l206.2,0" class="g8_230" />
<path d="M254.4,639l206.2,0" class="g9_230" />
<text 
x="131" 
y="255" 
dx="0,-0.2,0,0,0,0,0,0,0" 
class="s2_230"
>Structure</text>

<text 
x="268" 
y="255" 
dx="0,0,0,0,0,0,0" 
class="s2_230"
>Meaning</text>

<text 
x="475" 
y="255" 
dx="0,0,0,0,0,0,0" 
class="s2_230"
>Example</text>

<text 
x="128" 
y="352" 
dx="0" 
class="s7_230"
>好</text>

<text 
x="168" 
y="352" 
dx="0,0" 
class="s8_230"
>+ </text>

<text 
x="198" 
y="352" 
dx="0" 
class="s7_230"
>看</text>

<text 
x="131" 
y="380" 
dx="0,0,0,0,0,0,0,0,0,0,-0.6,-0.4" 
class="s4_230"
>good + see, </text>

<text 
x="131" 
y="406" 
dx="0,0,0,0,0,0,0" 
class="s4_230"
>look at</text>

<text 
x="268" 
y="302" 
dx="0,0,0,0,0,0,0,0,0,0,0,0,0,-0.4,0,0,0,-0.3,0" 
class="s4_230"
>good-looking, nice-</text>

<text 
x="268" 
y="328" 
dx="0,0,0,0,0,0,0,0,-0.4,0,0,0,0,-0.3,-0.3,0,0,0,0,0,0,0" 
class="s4_230"
>looking, enjoyable to </text>

<text 
x="268" 
y="354" 
dx="0,-0.3,0,0,0,0,0,0,-0.3,0,0,0,0,-0.3,0,0,0,0,0,-0.4" 
class="s4_230"
>watch (for movies), </text>

<text 
x="268" 
y="380" 
dx="0,0,0,0,-0.3,-0.3,0,0,0,0,0,0,0,0,-0.2,0,0,0,0,0,-0.3,0,0" 
class="s4_230"
>enjoyable to read (for </text>

<text 
x="268" 
y="406" 
dx="0,0,0,0,0,0,0" 
class="s4_230"
>books) </text>

<text 
x="470" 
y="302" 
dx="0,0,0,0,0,0,0,0,0,0,0" 
class="s7_230"
>你觉得这个颜色好看吗？</text>

<text 
x="473" 
y="329" 
dx="0,0,0,0,-0.3,0,0,0,0,0,0,0,0,0,0,0,0,0,0,0,0,0,0,0,0,0,-0.3,0,0,-0.3,0,0,0,0" 
class="s4_230"
>Do you think this is a nice color?</text>

<text 
x="471" 
y="378" 
dx="0,0,0,0,0,0,0" 
class="s7_230"
>这个电影很好看</text>

<text 
x="704" 
y="378" 
dx="0" 
class="s7_230"
>！</text>

<text 
x="473" 
y="406" 
dx="0,-0.2,0,0,0,0,0,-0.3,0,0,0,0,0,0,0,-0.2,0,0,0,0,0,0,0,0,0,0" 
class="s4_230"
>This movie is really good!</text>

<text 
x="205" 
y="453" 
dx="0,0.2,0.2" 
class="s9_230"
>chī</text>

<text 
x="128" 
y="486" 
dx="0" 
class="s7_230"
>好</text>

<text 
x="168" 
y="486" 
dx="0,0" 
class="s8_230"
>+ </text>

<text 
x="198" 
y="486" 
dx="0" 
class="s7_230"
>吃</text>

<text 
x="131" 
y="513" 
dx="0,0,0,0,0,0,0,0,0,0" 
class="s4_230"
>good + eat</text>

<text 
x="268" 
y="513" 
dx="0,0,0,0,0,-1.3,-0.4,0,0,0,0,0,0,0,0,0" 
class="s4_230"
>tasty, delicious</text>

<text 
x="542" 
y="453" 
dx="0,0.1,0.2,0.2" 
class="s9_230"
>cài </text>

<text 
x="609" 
y="453" 
dx="0,0.2,0.2,0.2,0.2,0.2" 
class="s9_230"
>hǎochī</text>

<text 
x="471" 
y="486" 
dx="0,0,0,0,0,0,0" 
class="s7_230"
>这个菜很好吃！</text>

<text 
x="473" 
y="513" 
dx="0,-0.2,0,0,0,0,0,0,0,0,0,0,0,0,0,0,0,0,0,0,0,0,0" 
class="s4_230"
>This dish is delicious!</text>

<text 
x="128" 
y="568" 
dx="0" 
class="s7_230"
>好</text>

<text 
x="168" 
y="568" 
dx="0,0" 
class="s8_230"
>+ </text>

<text 
x="198" 
y="568" 
dx="0" 
class="s7_230"
>听</text>

<text 
x="131" 
y="595" 
dx="0,0,0,0,0,0,0,0,0,0,0,-1.5,-0.4" 
class="s4_230"
>good + hear, </text>

<text 
x="131" 
y="621" 
dx="0,0,0,0,0,0,0,0,0" 
class="s4_230"
>listen to</text>

<text 
x="268" 
y="621" 
dx="0,0,0,0,0,0,0,0,0,0,0,0,0,0,0,0" 
class="s4_230"
>pleasant to hear</text>

<text 
x="597" 
y="561" 
dx="0,0.2,0.2,0.2,0.2" 
class="s9_230"
>zhǒng</text>

<text 
x="470" 
y="594" 
dx="0,0,0,0,0,0,0,0,0,0,0" 
class="s8_230"
>我觉得这种音乐很好听。</text>

<text 
x="473" 
y="621" 
dx="0,0,0,0,0,0,0,0,0,0,0,0,0,0,0,0,0,0,0,0,0,0,0,0,0,0,0,0,0,0,0,-0.2,0,0,0,0,0,0,0,0,-0.3,-0.6" 
class="s4_230"
>I think this kind of music is really nice.</text>

<text 
x="116" 
y="674" 
dx="0,-0.2,0,0,0,0,0,0,0,0,-0.2,0,0,0,-0.4,-0.4" 
class="s4_230"
>In other cases, </text>

<text 
x="232" 
y="676" 
dx="0" 
class="s3_230"
>好</text>

<text 
x="258" 
y="674" 
dx="0,0,0,-0.3,0,0,0,0,-0.2,0,0,0,0,0,0,0,-0.2,0,0,0,0,0,0,0,0,0,0,0,-0.4,0,0,0,0,0,0,0,0,0,0,-1.1,-0.4,0,0,0,0,-0.6,0,0,0,0,0,0,-0.4,0,0,0,0,0,0,0,0,0,0,0,0,0,-0.4,-0.4,0,0,0,0,0,0" 
class="s4_230"
>+ verb can be translated to “easy to do” in English, as in these examples:</text>

<path d="M116.9,700L300,700l0,34.7l-183.1,0l0,-34.7ZM300,700l166.1,0l0,34.7l-166.1,0L300,700Zm166.1,0l344.3,0l0,34.7l-344.3,0l0,-34.7Z" class="g5_230" />
<path d="M466.1,734.7l0,-34.7" class="g6_230" />
<path d="M466.1,815.8l0,-81.1" class="g7_230" />
<path d="M466.1,923.4l0,-107.3" class="g7_230" />
<path d="M466.1,815.9l344.3,0" class="g8_230" />
<path d="M466.1,923.8l344.3,0" class="g9_230" />
<path d="M300,734.7L300,700" class="g7_230" />
<path d="M300,815.8l0,-81.1" class="g7_230" />
<path d="M300,923.4l0,-107.3" class="g7_230" />
<path d="M116.9,815.9l183.1,0" class="g8_230" />
<path d="M116.9,923.8l183.1,0" class="g9_230" />
<path d="M300,815.9l166.1,0" class="g8_230" />
<path d="M300,923.8l166.1,0" class="g9_230" />
<text 
x="131" 
y="724" 
dx="0,-0.2,0,0,0,0,0,0,0" 
class="s2_230"
>Structure</text>

<text 
x="314" 
y="724" 
dx="0,0,0,0,0,0,0" 
class="s2_230"
>Meaning</text>

<text 
x="480" 
y="724" 
dx="0,0,0,0,0,0,0" 
class="s2_230"
>Example</text>

<text 
x="128" 
y="771" 
dx="0" 
class="s7_230"
>好</text>

<text 
x="168" 
y="771" 
dx="0,0" 
class="s8_230"
>+ </text>

<text 
x="198" 
y="771" 
dx="0" 
class="s7_230"
>学</text>

<text 
x="131" 
y="798" 
dx="0,0,0,0,0,0,0,0,0,0,0,0,-1.3,-0.4,0,0,0,0,0" 
class="s4_230"
>good + study, learn</text>

<text 
x="314" 
y="798" 
dx="0,0,0,0,0,0,0,0,0,0,0,0,0" 
class="s4_230"
>easy to learn</text>

<text 
x="473" 
y="771" 
dx="0,0,0,0,0,0" 
class="s7_230"
>中文很好学！</text>

<text 
x="480" 
y="798" 
dx="0,0,0,0,0,0,0,0,0,0,0,0,0,0,0,0,0,0,0,0,0,0,0,0,0" 
class="s4_230"
>Chinese is easy to learn!</text>

<text 
x="128" 
y="879" 
dx="0" 
class="s7_230"
>好</text>

<text 
x="168" 
y="879" 
dx="0,0" 
class="s8_230"
>+ </text>

<text 
x="198" 
y="879" 
dx="0" 
class="s7_230"
>做</text>

<text 
x="131" 
y="906" 
dx="0,0,0,0,0,0,0,0,0,0,-0.4,-0.6,-0.4,0,0" 
class="s4_230"
>good + make, do</text>

<text 
x="314" 
y="906" 
dx="0,0,0,0,0,0,0,0,0,0,0,-0.4,0,0,0,0,0,0" 
class="s4_230"
>easy to make or do</text>

<text 
x="544" 
y="845" 
dx="0,0.1,0.2" 
class="s9_230"
>cài</text>

<text 
x="473" 
y="879" 
dx="0,0,0,0,0,0,0" 
class="s7_230"
>中国菜好做吗？</text>

<text 
x="479" 
y="906" 
dx="0,-0.4,0,0,0,0,0,0,0,0,0,0,-0.3,0,0,0,0,0,0,0,0,0,0,0,0,0,0,-0.4,0" 
class="s4_230"
>Is Chinese food easy to make?</text>

<text 
x="116" 
y="976" 
dx="0,0,0,0,0,0,0,0,0,0,0,0,0,0,0,0,0" 
class="s2_230"
>The many uses of </text>

<text 
x="267" 
y="976" 
dx="0" 
class="s3_230"
>给</text>

<text 
x="117" 
y="1014" 
dx="0,0,0,0,0,0,-0.4,0,0,0,0,0,-0.3,0,-0.2,0" 
class="s4_230"
>Often, the word </text>

<text 
x="244" 
y="1016" 
dx="0" 
class="s3_230"
>给</text>

<text 
x="271" 
y="1014" 
dx="0,0,0,0,0,0,0,0,0,0,0,0,0,0,0,0,0,0,0,-0.4,0,0,0,0,0,0,-0.3,-0.6,-1.1" 
class="s4_230"
>(gěi) simply means “to give.”</text>

<path d="M89.5,980.5l20.6,0l0,-20.6l-20.6,0l0,20.6Z" class="g3_230" />
<text 
x="95" 
y="976" 
dx="0" 
class="s5_230"
>2</text>

<text 
x="131" 
y="1086" 
dx="0" 
class="s10_230"
>1</text>

<text 
x="312" 
y="1052" 
dx="0,0.2,0.2" 
class="s9_230"
>gěi</text>

<text 
x="161" 
y="1090" 
dx="0" 
class="s7_230"
>你</text>

<text 
x="217" 
y="1090" 
dx="0,0,0" 
class="s7_230"
>可以 </text>

<text 
x="305" 
y="1090" 
dx="0" 
class="s7_230"
>给</text>

<text 
x="362" 
y="1090" 
dx="0" 
class="s7_230"
>我</text>

<text 
x="418" 
y="1090" 
dx="0,0" 
class="s7_230"
>那 </text>

<text 
x="474" 
y="1090" 
dx="0" 
class="s7_230"
>本</text>

<text 
x="530" 
y="1090" 
dx="0,0" 
class="s7_230"
>书 </text>

<text 
x="586" 
y="1090" 
dx="0" 
class="s7_230"
>吗</text>

<text 
x="626" 
y="1090" 
dx="0" 
class="s11_230"
>?</text>

<text 
x="164" 
y="1117" 
dx="0,-0.8,0,0" 
class="s4_230"
>You </text>

<text 
x="233" 
y="1117" 
dx="0,-0.2,0,0" 
class="s4_230"
>can </text>

<text 
x="305" 
y="1117" 
dx="0,0,0,-0.3,0" 
class="s4_230"
>give </text>

<text 
x="366" 
y="1117" 
dx="0,0,0" 
class="s4_230"
>me </text>

<text 
x="418" 
y="1117" 
dx="0,0,0,0,0" 
class="s4_230"
>that </text>

<text 
x="530" 
y="1117" 
dx="0,0,0,0,0" 
class="s4_230"
>book </text>

<text 
x="605" 
y="1117" 
dx="0" 
class="s4_230"
>?</text>

<text 
x="670" 
y="1091" 
dx="0,0,0,0,0,0,0,-0.3,0,0,0,0,0,-0.3,0" 
class="s4_230"
>= Can you give </text>

<text 
x="670" 
y="1117" 
dx="0,0,0,0,0,0,0,0,0,0,0,0,0" 
class="s4_230"
>me that book?</text>



<!-- Any embedded fonts defined here -->
<style type="text/css" ><![CDATA[

@font-face {
	font-family: Alegreya-Bold_d4i;
	src: url("fonts/Alegreya-Bold_d4i.woff") format("woff");
}

@font-face {
	font-family: ProximaNova-Bold_d4m;
	src: url("fonts/ProximaNova-Bold_d4m.woff") format("woff");
}

@font-face {
	font-family: Alegreya-Regular_d4p;
	src: url("fonts/Alegreya-Regular_d4p.woff") format("woff");
}

@font-face {
	font-family: STKaiti_c-m;
	src: url("fonts/STKaiti_c-m.woff") format("woff");
}

@font-face {
	font-family: STKaitiSC-Regular_cof;
	src: url("fonts/STKaitiSC-Regular_cof.woff") format("woff");
}

@font-face {
	font-family: ProximaNova-Semibold_bqt;
	src: url("fonts/ProximaNova-Semibold_bqt.woff") format("woff");
}

@font-face {
	font-family: STKaiti-SC-Bold_cqx;
	src: url("fonts/STKaiti-SC-Bold_cqx.woff") format("woff");
}

@font-face {
	font-family: STKaitiSC-Regular_d51;
	src: url("fonts/STKaitiSC-Regular_d51.woff") format("woff");
}

@font-face {
	font-family: ProximaNovaCond-Extrabld_d50;
	src: url("fonts/ProximaNovaCond-Extrabld_d50.woff") format("woff");
}

]]></style>

</svg>
