<?xml version="1.0" encoding="UTF-8" standalone="no"?>
<!DOCTYPE svg PUBLIC "-//W3C//DTD SVG 1.1//EN"
"http://www.w3.org/Graphics/SVG/1.1/DTD/svg11.dtd">


<!-- Page 57 -->
<svg x="0" y="0" width="921" height="1196" viewBox="0 0 921 1196" version="1.1" xmlns="http://www.w3.org/2000/svg" xmlns:xlink="http://www.w3.org/1999/xlink"
style="display: block;margin-left: auto;margin-right: auto;">
<defs>

<style type="text/css"><![CDATA[

.g1_57{
fill: none;
stroke: #3986C6;
stroke-width: 1.6194444;
stroke-linecap: butt;
stroke-linejoin: miter;
stroke-miterlimit: 4;
}
.g2_57{
fill: #3986C6;
}
.g3_57{
fill: none;
stroke: #3986C6;
stroke-width: 1.1458334;
stroke-linecap: butt;
stroke-linejoin: miter;
}
.g4_57{
fill: #ACBF3B;
}

.s1_57{
font-size: 12.99px;
font-family: ProximaNova-Semibold_cqy;
fill: #231F20;
}
.s2_57{
font-size: 18.33px;
font-family: ProximaNova-Bold_cpr;
fill: #231F20;
}
.s3_57{
font-size: 19.10px;
font-family: Alegreya-Regular_cpq;
fill: #231F20;
}
.s4_57{
font-size: 25.97px;
font-family: ProximaNova-Bold_cpr;
fill: #FFFFFF;
}
.s5_57{
font-size: 25.97px;
font-family: ProximaNova-Bold_cpr;
fill: #231F20;
}
.s6_57{
font-size: 13.75px;
font-family: ProximaNova-Extrabld_cq3;
fill: #FFFFFF;
}
.s7_57{
font-size: 18.33px;
font-family: ProximaNova-Bold_cpr;
fill: #3986C6;
}
.s8_57{
font-size: 32.08px;
font-family: STKaitiSC-Regular_cr0;
fill: #ACBF3B;
}
.s9_57{
font-size: 32.08px;
font-family: STKaitiSC-Regular_cof;
fill: #231F20;
}
.s10_57{
font-size: 24.44px;
font-family: Alegreya-Regular_cpq;
fill: #231F20;
}
.s11_57{
font-size: 18.33px;
font-family: ProximaNova-Extrabld_cq3;
fill: #FFFFFF;
}

]]></style>

</defs>
<path d="M0,0
L0,1196
L921,1196
L921,0 Z " 
fill="#FFFFFF" stroke="none" />
<text 
transform="matrix(0, -1, 1, 0, 54, 1084)"
dx="0,0,0,0,0,0,0,0,0,0,0,0,0,0,0,0,0,0,0" 
class="s1_57"
>Go Far with Chinese</text>

<text 
x="38" 
y="1149" 
dx="0,0" 
class="s2_57"
>34</text>

<path d="M50.4,1089.3l0,38.7" class="g1_57" />
<path d="M50.4,1125.4c-1.4,0,-2.5,1.1,-2.5,2.6c0,1.4,1.1,2.6,2.5,2.6c1.5,0,2.6,-1.2,2.6,-2.6c0,-1.5,-1.1,-2.6,-2.6,-2.6Z" class="g2_57" />
<image preserveAspectRatio="none" x="586" y="478" width="183" height="186" xlink:href="57/img/1.png" />
<image preserveAspectRatio="none" x="108" y="827" width="187" height="182" xlink:href="57/img/2.png" />
<image preserveAspectRatio="none" x="584" y="827" width="188" height="183" xlink:href="57/img/3.png" />
<image preserveAspectRatio="none" x="110" y="478" width="182" height="186" xlink:href="57/img/4.png" />
<text 
x="109" 
y="732" 
dx="0,-0.4,0,0,0,-0.4,0,0,-0.2,0,0,0,0" 
class="s3_57"
>Àisàkè Niúdùn</text>

<text 
x="109" 
y="765" 
dx="0,-0.8,0,0,0,0,0,0,-0.6,0,0,0,0,0,0,0,0,0,0,0,0,0,0,0,0,0,0,0,0" 
class="s3_57"
>Famous English mathematician </text>

<text 
x="110" 
y="791" 
dx="0,0,0,0,0,0,0,0,0,0,0,0,0" 
class="s3_57"
>and scientist</text>

<text 
x="567" 
y="732" 
dx="0,-0.2,0,0,0,0,0,0,0,0,0,0,0,-0.4,0" 
class="s3_57"
>Mǎdīng Lùdé Jīn</text>

<text 
x="566" 
y="765" 
dx="0,-0.8,0,0,0,0,0,0,-0.4,0,0,0,0,-0.2,0,0,0,0,0,0,0,0,0,0" 
class="s3_57"
>Famous American activist</text>

<text 
x="109" 
y="1072" 
dx="0,-0.4,0,0,0,0,-0.8,0,0,0,0,-0.4" 
class="s3_57"
>Ānnī Fǎlánkè</text>

<text 
x="109" 
y="1105" 
dx="0,-0.8,0,0,0,0,0,0,-0.3,0,0,0,0,0,0,0,0,0,0,0.3,-1.3,-0.4,0,0,0,0,0,0,0,-0.3,0,0" 
class="s3_57"
>Famous for her diary, which was </text>

<text 
x="110" 
y="1131" 
dx="0,0,0,0,0,0,0,0,0,0,0,0,0,0,0,0,0,0,0,0,0,0,0,0,0" 
class="s3_57"
>published after her death</text>

<text 
x="539" 
y="1073" 
dx="0,-0.3,0,0,0,0,0,0,-1.4,0,0,0,0,0,0" 
class="s3_57"
>Àopǔlā Wēnfúruì</text>

<text 
x="539" 
y="1106" 
dx="0,-0.8,0,0,0,0,0,0,-0.4,0,0,0,0,-0.2,0,0,0,0,0,0,0,0,0,0,0,0,0,0,0,0,0" 
class="s3_57"
>Famous American television host</text>

<path d="M128.3,120.8c-10.1,0,-18.3,-8.2,-18.3,-18.3l0,-20.2l23.1,0c10.2,0,18.4,8.2,18.4,18.3l0,20.2Z" class="g2_57" />
<path d="M116.1,82.7l435.6,0" class="g3_57" />
<path d="M129.9,120.2l421.8,0" class="g3_57" />
<text 
x="114" 
y="109" 
dx="0,0,0" 
class="s4_57"
>1d </text>

<text 
x="157" 
y="109" 
dx="0,0,0,0,0,0,0,0,0,0,0,-0.2,0,0,0,0,0,0,0" 
class="s5_57"
>Using the Language </text>

<path d="M417.5,111.9c-5.9,0,-10.8,-4.8,-10.8,-10.8l0,-10.9l131.2,0c5.9,0,10.8,4.9,10.8,10.9l0,10.8Z" class="g4_57" />
<text 
x="423" 
y="105" 
dx="0,0,0,0,0,0,0,0,0,0,0,0,0" 
class="s6_57"
>µN´³rP³r²¶N¸¹</text>

<text 
x="109" 
y="175" 
dx="0,0,0,0,0,0,0,0,0,0" 
class="s7_57"
>Activity 1</text>

<text 
x="193" 
y="175" 
dx="0,-0.4,0,0,0,0,0,0,0,0,-0.3,0,0,0,0,0,0,0,0,0,0,0,0,0,0,-0.4,0,0,0,0,0,0,0,0,0,0,0,0,0,-0.6,0,0,0,0,0,0,0,0,0,0,0,-0.4,-0.4,0,0,0,0,0,0,0,0,0,0,0,0,0,0,0,0,0,0,0,0,0,0,-0.3,0,0,0,0" 
class="s3_57"
>Find out your classmates’ Chinese and English names. Use the questions below as </text>

<text 
x="110" 
y="201" 
dx="0,0,0,0,0,0,0,-0.6" 
class="s3_57"
>a guide.</text>

<text 
x="145" 
y="244" 
dx="0" 
class="s8_57"
>•</text>

<text 
x="164" 
y="244" 
dx="0,0,0,0,0,0,0,0,0,0" 
class="s9_57"
>你的英文名字是什么？</text>

<text 
x="145" 
y="280" 
dx="0" 
class="s8_57"
>•</text>

<text 
x="164" 
y="280" 
dx="0,0,0,0,0,0,0,0,0,0" 
class="s9_57"
>你的中文名字是什么？</text>

<text 
x="110" 
y="343" 
dx="0,0,0,0,0,0,0,0,0,0" 
class="s7_57"
>Activity 2</text>

<text 
x="197" 
y="343" 
dx="0,-0.2,0,0,0,0,0,-0.4,0,0,0,0,0,0,0,0,0,-0.3,0,-0.2,0,0,0,-0.2,0,0,0,0,0,0,0,0,0,0,0,-1,0,0,0,0,0,0,0,0,0,0,0,0,0,0,0,0,0,0,-0.2,0,0,0,0,0,-0.3,-1.3,-0.4,0,-0.2,0,0,0,0,0,0,0,-0.3,0,0" 
class="s3_57"
>The pinyin of several famous people’s Chinese names are below. What do you </text>

<text 
x="111" 
y="369" 
dx="0,0,0,0,0,0,0,0,0,0,0,0,0,-0.6,0,0,0,0,0,0,0,0,0,0,0,0,0,0,-0.2,0,0,0,-0.8,0,0,0,0,0,0,-0.3,0,0,0,0,0,0,0,-0.6,0,0,0,0,0,0,0,0,0,0,0,-0.4,-0.4,0,0,0,0,0,0,-0.3,0,0,0,0,-0.2,0,0,0,0,0,0,0,0,0,0,0,0,0,0" 
class="s3_57"
>think their English names are? Write down the English names, then compare notes with a </text>

<text 
x="111" 
y="395" 
dx="0,0,0,0,0,0,0,-1.5,-0.4,0,0,-0.2,0,0,0,0,0,-0.2,0,0,0,0,0,0,0,0,0,0,0,0,0,0,0,0,0,0,0,0,0,0,0,0,0,-0.4,0,0,0,0,0,0,-0.6,0,0,0,0,0,0,0,0,0,0,0,-0.4,0" 
class="s3_57"
>partner. (Hint: The Chinese names sound like the English names.)</text>

<text 
x="110" 
y="435" 
dx="0,0,-0.4,0,0,0,0,0" 
class="s3_57"
>Example:</text>

<text 
x="190" 
y="436" 
dx="0" 
class="s10_57"
>A</text>

<text 
x="213" 
y="438" 
dx="0,0,0,0,0,0,0,0,0" 
class="s9_57"
>的英文名字是什么？</text>

<path d="M189.5,1043.4c0,0,-9.2,0,-9.2,-9.2l0,-15.1l16,0c0,0,9.2,0,9.2,9.2l0,15.1Z" class="g4_57" />
<text 
x="186" 
y="1037" 
dx="0" 
class="s11_57"
>C</text>

<path d="M665,703.8c0,0,-9.2,0,-9.2,-9.1l0,-15.1l16,0c0,0,9.2,0,9.2,9.1l0,15.1Z" class="g4_57" />
<text 
x="662" 
y="698" 
dx="0" 
class="s11_57"
>B</text>

<path d="M665,1044c0,0,-9.2,0,-9.2,-9.1l0,-15.1l16,0c0,0,9.2,0,9.2,9.1l0,15.1Z" class="g4_57" />
<text 
x="661" 
y="1038" 
dx="0" 
class="s11_57"
>D</text>

<path d="M189.1,702.5c0,0,-9.2,0,-9.2,-9.2l0,-15.1l16,0c0,0,9.2,0,9.2,9.1l0,15.2Z" class="g4_57" />
<text 
x="186" 
y="696" 
dx="0" 
class="s11_57"
>¸</text>



<!-- Any embedded fonts defined here -->
<style type="text/css" ><![CDATA[

@font-face {
	font-family: ProximaNova-Extrabld_cq3;
	src: url("fonts/ProximaNova-Extrabld_cq3.woff") format("woff");
}

@font-face {
	font-family: STKaitiSC-Regular_cr0;
	src: url("fonts/STKaitiSC-Regular_cr0.woff") format("woff");
}

@font-face {
	font-family: ProximaNova-Semibold_cqy;
	src: url("fonts/ProximaNova-Semibold_cqy.woff") format("woff");
}

@font-face {
	font-family: ProximaNova-Bold_cpr;
	src: url("fonts/ProximaNova-Bold_cpr.woff") format("woff");
}

@font-face {
	font-family: STKaitiSC-Regular_cof;
	src: url("fonts/STKaitiSC-Regular_cof.woff") format("woff");
}

@font-face {
	font-family: Alegreya-Regular_cpq;
	src: url("fonts/Alegreya-Regular_cpq.woff") format("woff");
}

]]></style>

</svg>
