<?xml version="1.0" encoding="UTF-8" standalone="no"?>
<!DOCTYPE svg PUBLIC "-//W3C//DTD SVG 1.1//EN"
"http://www.w3.org/Graphics/SVG/1.1/DTD/svg11.dtd">


<!-- Page 277 -->
<svg x="0" y="0" width="921" height="1196" viewBox="0 0 921 1196" version="1.1" xmlns="http://www.w3.org/2000/svg" xmlns:xlink="http://www.w3.org/1999/xlink"
style="display: block;margin-left: auto;margin-right: auto;">
<defs>

<style type="text/css"><![CDATA[

.g1_277{
fill: #E3E1EC;
}
.g2_277{
fill: #4A3877;
}
.g3_277{
fill: #352257;
}
.g4_277{
fill: none;
stroke: #FFFFFF;
stroke-width: 1.5277778;
stroke-linecap: butt;
stroke-linejoin: miter;
stroke-miterlimit: 4;
}

.s1_277{
font-size: 18.33px;
font-family: ProximaNova-Bold_d7g;
fill: #FFFFFF;
}
.s2_277{
font-size: 19.10px;
font-family: Alegreya-Regular_d7j;
fill: #231F20;
}
.s3_277{
font-size: 22.92px;
font-family: Alegreya-Black_d7p;
fill: #4A3877;
}
.s4_277{
font-size: 15.28px;
font-family: ProximaNova-Regular_d7q;
fill: #040504;
}
.s5_277{
font-size: 36.67px;
font-family: Alegreya-Bold_d7o;
fill: #4A3877;
}
.s6_277{
font-size: 19.10px;
font-family: Alegreya-Medium_d7s;
fill: #040504;
}
.s7_277{
font-size: 21.39px;
font-family: ProximaNova-Bold_d7g;
fill: #FFFFFF;
}
.s8_277{
font-size: 18.33px;
font-family: ProximaNova-Bold_d7g;
fill: #231F20;
}

]]></style>

</defs>
<path d="M0,0
L0,1196
L921,1196
L921,0 Z " 
fill="#FFFFFF" stroke="none" />
<path d="M0,789l921.3,0l0,-789L0,0L0,789Z" class="g1_277" />
<image preserveAspectRatio="none" x="370" y="130" width="518" height="573" xlink:href="277/img/1.png" />
<text 
x="43" 
y="1165" 
dx="0" 
class="s1_277"
>6</text>

<text 
x="69" 
y="333" 
dx="0,0,0,0,0,0,0,0,0,0,0,0,0,0,0,-0.4,0,0,0,0,-0.2,0,0,0,0,0,0,0,0" 
class="s2_277"
>Ask students anywhere in the </text>

<text 
x="70" 
y="359" 
dx="0,-0.3,0,0,0,0,0,0,0,0,0,0,0,0,0,0,0,0,1.1,0,-0.2,0,0,0,0,0,-1.3,-0.4" 
class="s2_277"
>world whether they’re busy, </text>

<text 
x="70" 
y="385" 
dx="0,0,0,0,0,0,0,0,0,0,0,0,-0.3,0,0,0,0,0,0,0,0,0,0,-0.4,0,0,0,0,0,0,0,0" 
class="s2_277"
>and the answer will likely be a </text>

<text 
x="70" 
y="411" 
dx="0,-0.2,0,0,0,0,0,0,0,0,0,-0.4,0,-0.3,0,0,0,-0.4,0,-0.4,0,-0.2,-1,0,0,0,0,0,0,0" 
class="s2_277"
>resounding “yes!” Here’s what </text>

<text 
x="70" 
y="437" 
dx="0,0,0,0,0,0,0,0,0,0,0,0,0,0,0,0,0,0,0,0,0,0,0,0,0,0" 
class="s2_277"
>middle and high school in </text>

<text 
x="70" 
y="463" 
dx="0,0,0,0,0,0,0,0,0,0,0,0,0,0,0,0,0,0,0,0,0,-0.4,-0.6" 
class="s2_277"
>China often looks like.</text>

<text 
x="429" 
y="853" 
dx="0,0,0,0,0,0,0,0,0,0,0,0,0,0,0,-0.5,-0.2,0,0" 
class="s3_277"
>Studying as a Group</text>

<text 
x="428" 
y="883" 
dx="0,0,0,0,0,0,0,0,0,0,0,0,0,0,0,0,-0.4,-0.4,0,0,0,0,0,0,0,0,0,0,0,0,0,-0.2,0,0,0,0,0,0,0,0,0,0,0" 
class="s2_277"
>Chinese students, such as the Beijing high </text>

<text 
x="429" 
y="909" 
dx="0,0,0,0,0,0,0,0,0,0,0,0,0,0,0,0,0,0,0,-0.3,0,0,0,0,0,-0.2,-0.6,-0.4,0,0,0,0,0,0,0,0,0,0,0,-0.4,0,0,0,0,0,0" 
class="s2_277"
>school students shown here, largely stay with </text>

<text 
x="429" 
y="935" 
dx="0,0,0,0,0,0,0,0,0,0,0,0,0,0,0,0,0,0,0,0,0,0,0,-0.2,0,0,0,0,0,0,0,0,0,0,0,0,0,-0.4,0,0,0,0,0" 
class="s2_277"
>the same classmates throughout the day and </text>

<text 
x="429" 
y="961" 
dx="0,0,0,0,0,0,0,0,0,0,0,0,0,0,0,0,0,0,0,0,0,0,0,0,0,0,0,0,0,0,0,0,0,0,0,0,-0.2,0,0,-0.8,-0.4,0,0,0,0,0,0,0" 
class="s2_277"
>spend a lot of time studying as a group. During </text>

<text 
x="429" 
y="987" 
dx="0,0,0,0,0,0,0,0,0,0,0,0,0,0,0,0,0,0,0,0,0,0,-0.3,0,-0.2,0,0,0,0,0,0,0,0,0,0,0,-0.2,0,0,0,-0.4" 
class="s2_277"
>the morning period before classes begin, </text>

<text 
x="429" 
y="1013" 
dx="0,0,0,0,0,0,0,0,0,0,0,0,0,0,0,0,0,0,0,0,0,0,0,0,0,0,0,0,0,-0.2,0,0,0,0,0,0,0,0,0,0,0,0,0" 
class="s2_277"
>students in middle school (grades 7–9) and </text>

<text 
x="429" 
y="1039" 
dx="0,0,0,0,0,0,0,0,0,0,0,0,0,0,0,-0.2,0,0,0,0,0,0,0,0,0,0,0,0,0,0,0,0,0,0,0,0,0,-0.2,0,0,0,0,0,0,0,0,0" 
class="s2_277"
>high school (grades 10–12) study or read books </text>

<text 
x="429" 
y="1065" 
dx="0,0,0,0,0,0,0,0,0,0,0,0,0,0,-1.5,-0.4,0,0,0,0,0,0,-0.4,0,0,0,0,0,0,0,0,0,0,0,0,0,-0.4,-0.4,0,0,0,0,0,0,0,0,0" 
class="s2_277"
>aloud together. At many high schools, students </text>

<text 
x="428" 
y="1091" 
dx="0,0,0,0,0,0,0,0,0,0,0,-0.2,0,0,0,0,0,0,0,0,0,0,0,0,0,0,0,0,0,0,0,0,0,0,0,0,0,0,0,0,0,0,0,0,0,0,0,0,0" 
class="s2_277"
>must also return to school after dinner to study </text>

<text 
x="429" 
y="1117" 
dx="0,0,0,0,0,0,0,0,-0.4,-0.4,0,0,0,0,0,0,0,0,-0.4,0,0,0,-0.3,0,0,0,0,0,0,0,0,0,0,0,-0.4,0" 
class="s2_277"
>together—which makes for a long day!</text>

<image preserveAspectRatio="none" x="70" y="838" width="338" height="268" xlink:href="277/img/2.png" />
<text 
x="371" 
y="720" 
dx="0,-0.3,0,0,0,0,0,0,0,0,0,0,0,0,0,0,0,0,0,0,0,0,0,0,0,0,0,0,0,0,0,0,0,0,0,0,0,0,0,0,0,0,0,0,0,0,0,0,0,0,0,0,0,0,0,0,0,0" 
class="s4_277"
>Students in Chengdu, Sichuan Province enjoy lunch outside </text>

<text 
x="372" 
y="738" 
dx="0,0,0,0,0,0,0,0,0,0,0,0,0" 
class="s4_277"
>their school.</text>

<path d="M78,195c-0.9,-1.7,-1.7,-2.5,-2.2,-2.5c-0.6,0,-1,0.5,-1.3,1.6c-0.4,2.2,-1.7,4.4,-3.7,6.8c-0.4,0.6,-0.6,1.2,-0.6,2c0,0.7,0.2,1.6,0.7,2.6c0.5,0.9,1.1,1.4,1.8,1.4c0.7,0,1.6,-0.9,2.7,-2.6c1.2,-1.7,2.1,-4.1,2.9,-7.2c0.6,0.1,1.6,0.2,2.8,0.2c1.1,0,3.4,-0.3,6.6,-0.8c3.2,-0.5,6.8,-0.9,10.8,-1.2c3.9,-0.4,6.6,-0.5,8.1,-0.5c1.5,0,2.4,0,2.7,0.1c0.4,0.1,0.5,0.4,0.5,0.9c0,0.4,-0.4,1.4,-1.4,3c-1,1.7,-1.5,2.6,-1.5,2.9c0,0.2,0.2,0.4,0.5,0.4c0.3,0,1.1,-0.3,2.4,-0.8c1.3,-0.5,2.7,-1,4.2,-1.4c1.5,-0.4,2.7,-0.6,3.5,-0.6c1.7,0,2.5,-0.5,2.5,-1.3c0,-0.7,-0.6,-1.7,-1.8,-2.8c-1.2,-1.1,-2.4,-2,-3.5,-2.8c-1.1,-0.8,-2.2,-1.2,-3.3,-1.2c-1.1,0,-2.4,0.1,-3.7,0.5c-1.4,0.3,-3.4,0.6,-6.2,1c2,-2.9,3.4,-4.9,4.3,-5.9c0.8,-1,1.7,-1.9,2.6,-2.6c0.9,-0.6,1.3,-1.2,1.3,-1.6c0,-0.6,-0.9,-1.5,-2.8,-2.7c-1.8,-1.1,-3.1,-1.7,-3.9,-1.7c-0.8,0,-1.2,0.2,-1.2,0.8c0,0.6,0.1,1.1,0.3,1.5c0.2,0.4,0.2,0.8,0.2,1.3c0,1.2,-0.3,2.8,-1,4.8c-0.7,2,-1.6,4.2,-3,6.4c-6.2,0.8,-13,1.5,-20.3,2M93.6,181.7c-1.7,-1.3,-2.9,-2,-3.5,-2c-0.5,0,-0.8,0.3,-0.8,0.8c0,0.6,0.3,2,1.1,4.4c0.8,2.3,1.4,3.8,1.7,4.2c0.4,0.5,0.9,0.7,1.6,0.7c0.7,0,1.3,-0.4,1.7,-1.3c0.5,-0.8,0.8,-1.7,0.8,-2.6c0,-1.5,-0.9,-2.9,-2.6,-4.2m-9.3,2.2c-1.8,-1.3,-3.2,-1.9,-4,-1.9c-0.4,0,-0.6,0.2,-0.6,0.7c0,0.5,0.4,1.8,1.3,3.9c0.9,2.1,1.6,3.5,2.3,4.2c0.6,0.7,1.2,1,1.8,1c0.6,0,1,-0.3,1.4,-1c0.4,-0.7,0.5,-1.4,0.5,-2.3c0,-1.8,-0.9,-3.3,-2.7,-4.6m6.9,23.6c-0.7,0,-1.1,0.3,-1.1,0.8c0,0.6,0.4,1.1,1,1.7c0.6,0.6,1,1.4,1.3,2.2C81.7,213.4,75.2,214,72.9,214c-1.2,0,-2,0,-2.3,0c-0.3,0.1,-0.4,0.2,-0.4,0.6c0,0.3,0.6,0.9,1.8,1.7c1.2,0.8,2.3,1.3,3.2,1.3c1,0,1.9,-0.1,2.7,-0.3c5.1,-1.2,10.1,-2,15,-2.4c0.2,1.8,0.4,3.6,0.4,5.5c0,1.9,-0.2,3.5,-0.6,4.8c-0.3,1.3,-0.7,2.2,-1,2.7c-0.4,0.4,-0.9,0.6,-1.6,0.6c-0.6,0,-1.4,-0.1,-2.4,-0.4c-0.9,-0.2,-1.7,-0.3,-2.2,-0.3c-0.6,0,-0.8,0.1,-0.8,0.5c0,0.4,0.5,1,1.6,1.8c2.3,1.7,3.7,3.2,4.2,4.6c0.5,1.5,1.1,2.2,1.9,2.2c0.9,0,2.1,-1.2,3.6,-3.5c1.4,-2.3,2.1,-5.1,2.1,-8.2c0,-3.2,-0.3,-6.8,-0.8,-10.7c4.3,-0.2,7.7,-0.3,10.4,-0.3c2.6,0,4.5,0,5.7,0.1c1.1,0.2,2.1,0.2,2.9,0.2c2,0,3,-0.3,3,-1.1c0,-0.6,-0.7,-1.4,-2,-2.4c-1.3,-1,-2.6,-1.5,-3.8,-1.5c-1.3,0,-3,0.3,-5.2,0.7c-2.1,0.5,-6,1,-11.7,1.6c-0.4,-1,-0.9,-1.8,-1.4,-2.5c3.2,-2.2,5.6,-3.5,7.2,-3.9c1.4,-0.4,2.1,-0.9,2.1,-1.4c0,-0.6,-0.8,-1.6,-2.4,-3.1c-1.5,-1.5,-2.6,-2.3,-3.3,-2.3c-0.7,0,-1.5,0.3,-2.3,0.7c-0.8,0.5,-2.5,1,-5,1.4c-2.5,0.5,-4.8,0.7,-6.9,0.7c-2.1,0,-3.1,0.2,-3.1,0.6c0,0.4,0.6,1,1.8,1.7c1.2,0.8,2.2,1.1,3,1.1c0.7,0,1.4,-0.1,2,-0.3c3.9,-1.5,6.5,-2.2,7.9,-2.2c0.7,0,1,0.2,1,0.7c0,0.5,-1.2,2.2,-3.7,5c-0.8,-0.3,-1.6,-0.5,-2.3,-0.5m61.6,-12.7c0.8,-0.8,1.2,-1.4,1.2,-2c0,-0.7,-0.9,-1.5,-2.8,-2.4c-1.8,-0.9,-3.1,-1.4,-3.8,-1.4c-0.6,0,-1,0.3,-1,0.9c0,0.6,0.1,1.2,0.3,1.8c0.1,0.5,0.2,1,0.2,1.3c0,1.4,-0.6,3.7,-1.9,6.8c-1.4,3.2,-3.2,6.3,-5.7,9.5c-0.7,1,-1.1,1.6,-1.1,2c0,0.4,0.2,0.5,0.5,0.5c0.8,0,2.2,-0.9,4.4,-2.7c2.1,-1.8,4,-4.2,5.7,-7.3c1.1,0.3,2.4,0.5,3.9,0.5c1.6,0,3.8,-0.3,6.6,-0.7l-0.2,9.3c-3.3,0.7,-5.9,1.1,-7.9,1.2c-2.1,0.1,-3.1,0.4,-3.1,0.8c0,0.4,0.4,0.8,1.4,1.2c0.9,0.5,2.1,0.7,3.5,0.7c1.5,0,3.5,-0.2,6,-0.5l-0.3,10.2c-8.9,1,-15.9,1.6,-20.9,1.9c-1.9,0.1,-2.9,0.3,-2.9,0.6c0,0.3,0.7,1,2,1.9c1.3,0.9,2.4,1.4,3.3,1.4c0.8,0,2,-0.1,3.4,-0.4c3.9,-0.9,8.2,-1.7,13,-2.2c4.9,-0.6,8.9,-0.8,12.2,-0.8c3.3,0,6.4,0.1,9.3,0.2c2.8,0.2,4.6,0.3,5.2,0.3c2.3,0,3.5,-0.4,3.5,-1.3c0,-0.7,-0.8,-1.6,-2.4,-2.8c-1.6,-1.1,-3,-1.7,-4.1,-1.7c-1.1,0,-2.2,0.1,-3.5,0.4c-3.1,0.6,-7.6,1.3,-13.5,2l0.2,-10.3c5.4,-0.7,8.6,-1.2,9.6,-1.6c1.1,-0.4,1.6,-0.9,1.6,-1.5c0,-0.6,-0.5,-1.1,-1.5,-1.5c-0.9,-0.4,-2,-0.5,-3.3,-0.5c-1.2,0,-3.3,0.4,-6.3,1.1l0.3,-8.8c6.4,-1.1,10.1,-1.8,11,-2.2c0.9,-0.4,1.4,-0.9,1.4,-1.3c0,-0.5,-0.5,-1,-1.5,-1.5c-1.1,-0.5,-2.1,-0.8,-3,-0.8c-1,0,-2,0.1,-2.9,0.4c-0.9,0.3,-2.6,0.9,-4.9,1.6c0.2,-6.4,0.6,-10.1,1.2,-11.2c0.6,-1.2,0.9,-2,0.9,-2.5c0,-0.4,-0.3,-0.9,-1,-1.3c-0.7,-0.5,-1.8,-1,-3.5,-1.6c-1.6,-0.7,-2.9,-1,-3.9,-1c-1,0,-1.4,0.3,-1.4,1c0,0.6,0.4,1.3,1.2,2.2c0.8,0.8,1.3,2.2,1.6,4.2c0.3,2.1,0.4,5.8,0.3,11.4c-4.1,1,-7.3,1.5,-9.6,1.5c1.6,-2.9,2.6,-4.6,3,-5m67.8,0c0.8,-0.8,1.2,-1.4,1.2,-2c0,-0.7,-1,-1.5,-2.8,-2.4c-1.8,-0.9,-3.1,-1.4,-3.8,-1.4c-0.7,0,-1,0.3,-1,0.9c0,0.6,0.1,1.2,0.3,1.8c0.1,0.5,0.2,1,0.2,1.3c0,1.4,-0.6,3.7,-2,6.8c-1.3,3.2,-3.2,6.3,-5.6,9.5c-0.7,1,-1.1,1.6,-1.1,2c0,0.4,0.2,0.5,0.5,0.5c0.8,0,2.2,-0.9,4.4,-2.7c2.1,-1.8,4,-4.2,5.7,-7.3c1.1,0.3,2.4,0.5,3.9,0.5c1.6,0,3.7,-0.3,6.5,-0.7l-0.1,9.3c-3.3,0.7,-5.9,1.1,-8,1.2c-2,0.1,-3,0.4,-3,0.8c0,0.4,0.4,0.8,1.4,1.2c0.9,0.5,2.1,0.7,3.5,0.7c1.5,0,3.4,-0.2,6,-0.5l-0.3,10.2c-8.9,1,-15.9,1.6,-20.9,1.9c-1.9,0.1,-2.9,0.3,-2.9,0.6c0,0.3,0.7,1,2,1.9c1.3,0.9,2.4,1.4,3.3,1.4c0.8,0,2,-0.1,3.3,-0.4c3.9,-0.9,8.3,-1.7,13.1,-2.2c4.9,-0.6,8.9,-0.8,12.2,-0.8c3.3,0,6.4,0.1,9.3,0.2c2.8,0.2,4.6,0.3,5.2,0.3c2.3,0,3.4,-0.4,3.4,-1.3c0,-0.7,-0.7,-1.6,-2.3,-2.8c-1.6,-1.1,-3,-1.7,-4.1,-1.7c-1.1,0,-2.3,0.1,-3.5,0.4c-3.1,0.6,-7.6,1.3,-13.6,2l0.3,-10.3c5.4,-0.7,8.6,-1.2,9.6,-1.6c1.1,-0.4,1.6,-0.9,1.6,-1.5c0,-0.6,-0.5,-1.1,-1.5,-1.5c-1,-0.4,-2.1,-0.5,-3.3,-0.5c-1.2,0,-3.3,0.4,-6.3,1.1l0.3,-8.8c6.4,-1.1,10.1,-1.8,11,-2.2c0.9,-0.4,1.4,-0.9,1.4,-1.3c0,-0.5,-0.5,-1,-1.6,-1.5c-1,-0.5,-2,-0.8,-2.9,-0.8c-1,0,-2,0.1,-2.9,0.4c-0.9,0.3,-2.6,0.9,-5,1.6c0.3,-6.4,0.7,-10.1,1.3,-11.2c0.6,-1.2,0.9,-2,0.9,-2.5c0,-0.4,-0.3,-0.9,-1,-1.3c-0.7,-0.5,-1.9,-1,-3.5,-1.6c-1.7,-0.7,-3,-1,-3.9,-1c-1,0,-1.4,0.3,-1.4,1c0,0.6,0.4,1.3,1.2,2.2c0.8,0.8,1.3,2.2,1.6,4.2c0.3,2.1,0.4,5.8,0.3,11.4c-4.1,1,-7.3,1.5,-9.6,1.5c1.5,-2.9,2.6,-4.6,3,-5m78,1.8c0,1.4,-0.1,3.1,-0.3,5.1c-7.8,1.5,-12.4,2.2,-13.8,2.2c-1.4,0,-2.3,0.1,-2.7,0.3c-0.4,0.1,-0.6,0.4,-0.6,0.7c0,0.3,0.6,0.8,1.9,1.5c1.2,0.7,2.1,1,2.8,1c0.6,0,1.5,-0.2,2.6,-0.5c3.7,-1.1,6.9,-1.9,9.4,-2.3l-0.9,9.7c-1.5,0.1,-3,0.3,-4.5,0.4c-1.7,-0.5,-3,-0.8,-4,-0.8c-1,0,-1.5,0.3,-1.5,0.9c0,0.4,0.2,1,0.7,1.6c0.5,0.6,0.9,1.5,1.2,2.5c0.3,1,0.7,2.9,1.2,5.6c0.5,2.8,1,4.5,1.6,5.2c0.5,0.7,1,1,1.5,1c0.5,0,1,-0.7,1.4,-2l16.3,-1.1c0.8,-0.1,1.5,-0.3,1.9,-0.6c0.4,-0.3,0.6,-0.7,0.6,-1.1c0,-0.8,-0.6,-1.6,-1.7,-2.4c1.4,-3,2.7,-4.7,3.9,-5.3c1.2,-0.6,1.8,-1.1,1.8,-1.5c0,-0.6,-1,-1.7,-3,-3.1c-2.1,-1.4,-3.6,-2.1,-4.4,-2.1c-0.9,0,-1.8,0.2,-2.7,0.7c-1.1,0.5,-3.3,1.1,-6.5,1.6l1.7,-9.9c5.2,-0.6,10.1,-0.9,14.5,-0.9c2.9,0,4.6,-0.1,5.2,-0.4c0.7,-0.3,1,-0.6,1,-1c0,-0.7,-0.9,-1.5,-2.5,-2.4c-1.6,-0.9,-3,-1.4,-4,-1.4c-1.1,0,-2.4,0.2,-4,0.7c-1.5,0.5,-4.8,1.3,-9.7,2.2c0.5,-2.3,0.9,-3.8,1.3,-4.5c0.4,-0.7,0.6,-1.2,0.6,-1.5c0,-0.5,-0.4,-1,-1.1,-1.4c-0.8,-0.5,-1.9,-1,-3.4,-1.7c2.6,-1.1,4.7,-2,6.2,-2.7c1.5,-0.7,2.9,-1.2,4,-1.4c1.2,-0.3,1.8,-0.7,1.8,-1.3c0,-0.6,-1,-1.5,-3.2,-2.7c-2.1,-1.2,-3.6,-1.8,-4.6,-1.8c-0.9,0,-1.4,0.5,-1.5,1.4c-0.1,1,-0.5,1.8,-1,2.4c-0.5,0.6,-2,1.7,-4.4,3.2c-2.3,1.5,-4.5,2.7,-6.5,3.4c-1.9,0.8,-2.9,1.4,-2.9,1.7c0,0.4,0.4,0.6,1.3,0.6c1.5,0,4.1,-0.5,7.8,-1.6c0.8,1.1,1.2,2.4,1.2,3.8M293.4,217L307,215.8c1,0,1.5,0.3,1.5,1.1c0,0.8,-0.2,2,-0.8,3.8c-0.6,1.7,-1.1,2.7,-1.6,3.1c-0.4,0.3,-1.3,0.6,-2.6,0.8c-1.3,0.3,-4.3,0.6,-8.8,1.1ZM275.3,184.7c0,0.5,0.4,1.2,1.3,2.2c0.8,1,1.6,1.7,2.3,2.3c0.8,0.6,1.5,1.2,2.4,1.8c0.8,0.6,1.6,0.9,2.3,0.9c0.6,0,1.1,-0.2,1.5,-0.6c0.3,-0.5,0.5,-1.1,0.5,-1.9c0,-1.8,-0.7,-3.2,-2,-4.1c-1.4,-0.9,-3.5,-1.3,-6.5,-1.3c-1.2,0,-1.8,0.2,-1.8,0.7m-6,12.8c0,0.7,0.9,2.2,2.8,4.4c1.9,2.2,3.4,3.3,4.6,3.3c1.3,0,1.9,-1,1.9,-2.9c0,-1.5,-0.4,-2.7,-1.2,-3.5c-0.8,-0.8,-2,-1.3,-3.5,-1.6c-1.5,-0.2,-2.7,-0.4,-3.4,-0.4c-0.8,0,-1.2,0.2,-1.2,0.7m13.2,10.9c-0.3,0,-0.5,0.1,-0.7,0.4c-0.2,0.2,-1.2,1.8,-3.2,4.7c-1.9,3,-3.3,4.8,-4.1,5.7c-0.9,0.8,-1.7,1.2,-2.5,1.2c-0.8,0.1,-1.4,0.2,-1.6,0.4c-0.2,0.1,-0.3,0.5,-0.3,1.1c0,0.5,0.6,2.2,2,4.9c1.3,2.7,2.4,4.1,3.2,4.1c0.8,0,1.4,-1,1.7,-3c0.6,-3.2,2.3,-8.4,5.2,-15.7c0.5,-1.2,0.7,-2.1,0.7,-2.8c0,-0.6,-0.2,-1,-0.4,-1Z" class="g2_277" />
<text 
x="97" 
y="287" 
dx="0,0.9,0.9,0.9,0.9,0.9,0.9,0.9,0.9,0.9,0.9,0.6" 
class="s5_277"
>Student Life</text>

<text 
x="97" 
y="163" 
dx="0,0,0,0,0,0,0,0,0" 
class="s6_277"
>xuéshēng </text>

<text 
x="222" 
y="163" 
dx="0,0,0,0,0,0,0,0" 
class="s6_277"
>shēnghuó</text>

<path d="M343.8,82.5l0,0l0,-28c0,-23.4,-23.4,-23.4,-23.4,-23.4l-261.7,0l0,28.1C58.7,82.5,82,82.5,82,82.5Z" class="g3_277" />
<path d="M343.8,82.5l0,0l0,-28c0,-23.4,-23.4,-23.4,-23.4,-23.4l-261.7,0l0,28.1C58.7,82.5,82,82.5,82,82.5l261.8,0Z" class="g4_277" />
<text 
x="77" 
y="64" 
dx="0,0,0,-2.1,0,0,0,0,0,0,0,0,0,0,0,0,0,0" 
class="s7_277"
>CULTURE CONNECTION</text>

<text 
x="70" 
y="516" 
dx="0,0,0,0,0,0,-0.2,-0.2,0,0" 
class="s3_277"
>Long Days </text>

<text 
x="70" 
y="545" 
dx="0,-0.4,0,-0.3,0,0,0,0,0.3,-0.6,0,0,0,0,0,0,0,0,0,0,0,0,0,0,0,0,0,0" 
class="s2_277"
>Secondary-school classes in </text>

<text 
x="70" 
y="571" 
dx="0,0,0,0,0,0,0,0,0,0,0,-0.2,0,0,0,0,0,0,-0.2,0,0,0,0,0,-0.2,0,0,0,0" 
class="s2_277"
>China generally begin around </text>

<text 
x="70" 
y="597" 
dx="0,0,0,0,0,0,0,0,0,-0.4,0,0,0,0,0,0,0,0,0,0,0,0,0,0,0,0,0,0,0,-0.8,0,0,-0.4" 
class="s2_277"
>8:00 a.m. and go until 5:00 p.m. </text>

<text 
x="70" 
y="623" 
dx="0,0,0,0,0,0,0,0,-1.5,-0.4,0,-0.2,0,0,-0.2,-1,0,0,0,0,0,0,0,0,0,-0.4,0,0,0,-0.2,0,0,0,-0.4" 
class="s2_277"
>or later. There’s a midday break, </text>

<text 
x="70" 
y="649" 
dx="0,0,0,0,0,0,0,0,0,0,0,0,0,0,0,0,0,0,0,0,0,0,0,0,0,0,-0.3,0" 
class="s2_277"
>which often lasts about two </text>

<text 
x="70" 
y="675" 
dx="0,0,0,0,0,-0.4,-0.4,0,0,0,0,0,0,-0.3,0,0,0,0,0,0,0,0,0,0,0,0,0,0,0,0,0,-0.3,0" 
class="s2_277"
>hours, to give students a chance </text>

<text 
x="70" 
y="701" 
dx="0,0,0,0,0,0,0,0,0,0,0,0,0,-0.4,0,0,0,-0.8,-0.4,0,0,0,0,0,-0.2,0,0,0,0,0,0,-0.6" 
class="s2_277"
>to eat lunch, nap, and recharge.</text>

<text 
x="47" 
y="1165" 
dx="0,0,0" 
class="s8_277"
>254</text>



<!-- Any embedded fonts defined here -->
<style type="text/css" ><![CDATA[

@font-face {
	font-family: ProximaNova-Regular_d7q;
	src: url("fonts/ProximaNova-Regular_d7q.woff") format("woff");
}

@font-face {
	font-family: Alegreya-Bold_d7o;
	src: url("fonts/Alegreya-Bold_d7o.woff") format("woff");
}

@font-face {
	font-family: Alegreya-Medium_d7s;
	src: url("fonts/Alegreya-Medium_d7s.woff") format("woff");
}

@font-face {
	font-family: ProximaNova-Bold_d7g;
	src: url("fonts/ProximaNova-Bold_d7g.woff") format("woff");
}

@font-face {
	font-family: Alegreya-Black_d7p;
	src: url("fonts/Alegreya-Black_d7p.woff") format("woff");
}

@font-face {
	font-family: Alegreya-Regular_d7j;
	src: url("fonts/Alegreya-Regular_d7j.woff") format("woff");
}

]]></style>

</svg>
