<?xml version="1.0" encoding="UTF-8" standalone="no"?>
<!DOCTYPE svg PUBLIC "-//W3C//DTD SVG 1.1//EN"
"http://www.w3.org/Graphics/SVG/1.1/DTD/svg11.dtd">


<!-- Page 90 -->
<svg x="0" y="0" width="921" height="1196" viewBox="0 0 921 1196" version="1.1" xmlns="http://www.w3.org/2000/svg" xmlns:xlink="http://www.w3.org/1999/xlink"
style="display: block;margin-left: auto;margin-right: auto;">
<defs>

<style type="text/css"><![CDATA[

.g1_90{
fill: none;
stroke: #3986C6;
stroke-width: 1.6194444;
stroke-linecap: butt;
stroke-linejoin: miter;
stroke-miterlimit: 4;
}
.g2_90{
fill: #3986C6;
}
.g3_90{
fill: #DCDDDF;
}
.g4_90{
fill: none;
stroke: #939598;
stroke-width: 0.38194445;
stroke-linecap: butt;
stroke-linejoin: miter;
}
.g5_90{
fill: none;
stroke: #231F20;
stroke-width: 1.1458334;
stroke-linecap: butt;
stroke-linejoin: miter;
}
.g6_90{
fill: none;
stroke: #3986C6;
stroke-width: 1.1458334;
stroke-linecap: butt;
stroke-linejoin: miter;
}
.g7_90{
fill: #ACBF3B;
}
.g8_90{
fill: none;
stroke: #3986C6;
stroke-width: 1.5277778;
stroke-linecap: butt;
stroke-linejoin: miter;
stroke-miterlimit: 4;
}
.g9_90{
fill: #ED692E;
}
.g10_90{
fill: none;
stroke: #ED692E;
stroke-width: 1.5277778;
stroke-linecap: butt;
stroke-linejoin: miter;
}
.g11_90{
fill: #8B8D9A;
}
.g12_90{
fill: none;
stroke: #3986C6;
stroke-width: 1.5277778;
stroke-linecap: butt;
stroke-linejoin: miter;
}
.g13_90{
fill: none;
stroke: #3986C6;
stroke-width: 1.1458334;
stroke-linecap: butt;
stroke-linejoin: miter;
stroke-miterlimit: 4;
}

.s1_90{
font-size: 12.99px;
font-family: ProximaNova-Semibold_b3m;
fill: #231F20;
}
.s2_90{
font-size: 18.33px;
font-family: ProximaNova-Bold_cs-;
fill: #231F20;
}
.s3_90{
font-size: 19.10px;
font-family: Alegreya-Bold_csx;
fill: #231F20;
}
.s4_90{
font-size: 32.08px;
font-family: STKaitiSC-Regular_cof;
fill: #3986C6;
}
.s5_90{
font-size: 19.10px;
font-family: Alegreya-Regular_csr;
fill: #231F20;
}
.s6_90{
font-size: 25.97px;
font-family: ProximaNova-Bold_cs-;
fill: #FFFFFF;
}
.s7_90{
font-size: 25.97px;
font-family: ProximaNova-Bold_cs-;
fill: #231F20;
}
.s8_90{
font-size: 13.75px;
font-family: ProximaNova-Extrabld_cst;
fill: #FFFFFF;
}
.s9_90{
font-size: 19.10px;
font-family: Alegreya-Bold_csx;
fill: #3986C6;
}
.s10_90{
font-size: 32.08px;
font-family: STKaitiSC-Regular_cof;
fill: #231F20;
}
.s11_90{
font-size: 19.86px;
font-family: ProximaNova-Bold_cs-;
fill: #231F20;
}
.s12_90{
font-size: 80.97px;
font-family: STKaitiSC-Regular_cof;
fill: #ED692E;
}
.s13_90{
font-size: 16.04px;
font-family: Alegreya-Regular_csr;
fill: #231F20;
}

]]></style>

</defs>
<path d="M0,0
L0,1196
L921,1196
L921,0 Z " 
fill="#FFFFFF" stroke="none" />
<text 
transform="matrix(0, 1, -1, 0, 867, 806)"
dx="0,0,0,0,0,0,0,0,0,0" 
class="s1_90"
>Chapter 3 </text>

<text 
transform="matrix(0, 1, -1, 0, 867, 870)"
dx="0,0" 
class="s1_90"
>• </text>

<text 
transform="matrix(0, 1, -1, 0, 867, 881)"
dx="0,-1.4,0,0,0,0,0,0,0,0,0,0,0,0,0,-1.6,0,0,0,0,0,0,0" 
class="s1_90"
>Tell Me About Yourself </text>

<text 
transform="matrix(0, 1, -1, 0, 867, 1017)"
dx="0,0" 
class="s1_90"
>• </text>

<text 
transform="matrix(0, 1, -1, 0, 867, 1029)"
dx="0,0,0,0,0,0,0,0,0" 
class="s1_90"
>Section 3</text>

<text 
x="862" 
y="1149" 
dx="0,0" 
class="s2_90"
>67</text>

<path d="M872.3,1089.3l0,38.7" class="g1_90" />
<path d="M872.3,1125.4c-1.5,0,-2.6,1.1,-2.6,2.6c0,1.4,1.1,2.6,2.6,2.6c1.4,0,2.6,-1.2,2.6,-2.6c0,-1.5,-1.2,-2.6,-2.6,-2.6Z" class="g2_90" />
<path d="M89.5,122.6l55,0l0,36.3l-55,0l0,-36.3Zm55,0l212.2,0l0,36.3l-212.2,0l0,-36.3Zm212.2,0l168.3,0l0,36.3l-168.3,0l0,-36.3Zm168.3,0l281.7,0l0,36.3l-281.7,0l0,-36.3Z" class="g3_90" />
<path d="M89.5,206.8l55,0" class="g4_90" />
<path d="M144.5,206.8l212.2,0" class="g4_90" />
<path d="M356.7,206.8l168.3,0" class="g4_90" />
<path d="M525,206.8l281.7,0" class="g4_90" />
<path d="M89.5,255l55,0" class="g4_90" />
<path d="M144.5,255l212.2,0" class="g4_90" />
<path d="M356.7,255L525,255" class="g4_90" />
<path d="M525,255l281.7,0" class="g4_90" />
<path d="M89.5,303.1l55,0" class="g4_90" />
<path d="M144.5,303.1l212.2,0" class="g4_90" />
<path d="M356.7,303.1l168.3,0" class="g4_90" />
<path d="M525,303.1l281.7,0" class="g4_90" />
<path d="M89.5,351.2l55,0" class="g4_90" />
<path d="M144.5,351.2l212.2,0" class="g4_90" />
<path d="M356.7,351.2l168.3,0" class="g4_90" />
<path d="M525,351.2l281.7,0" class="g4_90" />
<path d="M89.5,399.3l55,0" class="g4_90" />
<path d="M144.5,399.3l212.2,0" class="g4_90" />
<path d="M356.7,399.3l168.3,0" class="g4_90" />
<path d="M525,399.3l281.7,0" class="g4_90" />
<path d="M89.5,447.5l55,0" class="g5_90" />
<path d="M144.5,447.5l212.2,0" class="g5_90" />
<path d="M356.7,447.5l168.3,0" class="g5_90" />
<path d="M525,447.5l281.7,0" class="g5_90" />
<text 
x="162" 
y="147" 
dx="0,-0.7,0,0" 
class="s2_90"
>Word</text>

<text 
x="375" 
y="147" 
dx="0,0,0,0,0,0" 
class="s2_90"
>Pinyin</text>

<text 
x="543" 
y="147" 
dx="0,0,0,0,0,0,0" 
class="s2_90"
>Meaning</text>

<text 
x="107" 
y="190" 
dx="0,0" 
class="s3_90"
>±6</text>

<text 
x="158" 
y="190" 
dx="0,0" 
class="s4_90"
>宠物</text>

<text 
x="375" 
y="190" 
dx="0,0,0,0,0,0,0" 
class="s5_90"
>chǒngwù</text>

<text 
x="543" 
y="190" 
dx="0,0,0,0,0,0,0,0,0,0,0,0" 
class="s5_90"
>pet (animal)</text>

<text 
x="107" 
y="238" 
dx="0,0" 
class="s3_90"
>±7</text>

<text 
x="156" 
y="238" 
dx="0" 
class="s4_90"
>只</text>

<text 
x="375" 
y="238" 
dx="0,0,0" 
class="s5_90"
>zhī</text>

<text 
x="543" 
y="238" 
dx="0,-0.1,-0.1,-0.1,-0.1,-0.1,-0.1,-0.3,-0.1,-0.1,-0.4,-0.1,-0.3,-0.1,-0.1,-0.4,-0.1,-0.1,-0.1,-0.1,-0.1,-0.1,-0.1,-0.1,-0.1,-0.1,-0.1,-0.1,-0.1,-0.1,-0.1" 
class="s5_90"
>(measure word for some animals)</text>

<text 
x="107" 
y="287" 
dx="0,0" 
class="s3_90"
>±8</text>

<text 
x="157" 
y="287" 
dx="0,0" 
class="s4_90"
>它 </text>

<text 
x="375" 
y="286" 
dx="0,0" 
class="s5_90"
>tā</text>

<text 
x="543" 
y="286" 
dx="0,0,0,0,0,0,0,0,0,0,-0.3,0,0,0,0,0,0,0,0,0,0,0,0,0,0,0,0,0,0,0,0,0" 
class="s5_90"
>it (used for animals and things)</text>

<text 
x="107" 
y="335" 
dx="0,0" 
class="s3_90"
>±9</text>

<text 
x="160" 
y="335" 
dx="0" 
class="s4_90"
>猫</text>

<text 
x="375" 
y="335" 
dx="0,0,0" 
class="s5_90"
>māo</text>

<text 
x="544" 
y="335" 
dx="0,-0.2,0" 
class="s5_90"
>cat</text>

<text 
x="108" 
y="383" 
dx="0,0" 
class="s3_90"
>²0</text>

<text 
x="160" 
y="383" 
dx="0" 
class="s4_90"
>狗</text>

<text 
x="375" 
y="383" 
dx="0,0,0" 
class="s5_90"
>gǒu</text>

<text 
x="544" 
y="383" 
dx="0,0,0" 
class="s5_90"
>dog</text>

<text 
x="158" 
y="431" 
dx="0,0" 
class="s4_90"
>小明</text>

<text 
x="374" 
y="431" 
dx="0,0,0,0,0,0,0,0" 
class="s5_90"
>Xiǎomíng</text>

<text 
x="543" 
y="431" 
dx="0,0,0,0,0,0,0,0" 
class="s5_90"
>(a name)</text>

<path d="M110.1,538.4C100,538.4,91.7,530.2,91.7,520l0,-20.1l23.2,0c10.1,0,18.3,8.2,18.3,18.3l0,20.2Z" class="g2_90" />
<path d="M99.4,500.5l359,0" class="g6_90" />
<path d="M113.1,538l345.3,0" class="g6_90" />
<text 
x="98" 
y="526" 
dx="0,0,0" 
class="s6_90"
>3c </text>

<text 
x="140" 
y="526" 
dx="0,0,0,0,0,0,0,0,0,0,0,0,0,0" 
class="s7_90"
>Puzzle It Out </text>

<path d="M314.8,530.3c-6.1,0,-10.9,-4.8,-10.9,-10.8l0,-10.9l141.9,0c6,0,10.9,4.8,10.9,10.9l0,10.8Z" class="g7_90" />
<text 
x="320" 
y="523" 
dx="0,0,0,0,0,0,0,0,0,0,0,0,0,0" 
class="s8_90"
>Pº·Gº¶µµ C¹¶CK</text>

<text 
x="89" 
y="567" 
dx="0,-0.4,0,0,0,0,0,0,0,0,0,0,0,0,-0.4,-0.4,0,-0.2,0,0,0,0,0,0,0,0,-0.3,0,0,0,0,0,0,0,0,0,0,0,-0.3,0,0,0,0,0,0,0,0,0,0,0,0,0,0,0,0,0,0,0,0,0,0,0,0,0,0,-0.3,0,0,0,0,0,0,0,0,0,0,0,0,0,0,-0.4,0,0,0,0,0,0,0,0,-0.4" 
class="s5_90"
>Complete the exercise below to check your understanding of what you learned in Section 3. </text>

<text 
x="89" 
y="593" 
dx="0,0,0,0,-0.3,0,0,0,0,-0.4,-0.3,0,0,0,0,0,0,0,0,0,0,-0.4,-0.4,0,-0.3,0,0,0,0,0,0,0,0,0,0,0,0,0,0,0,0,0,0,0,0,-0.6,0,-0.3,0,-0.2,0,0,-0.3,0,0,0,0,0,0,0,0,0" 
class="s5_90"
>If you have questions, consult the Language Reference section.</text>

<text 
x="89" 
y="640" 
dx="0,-0.2,0,-0.4,0,0,-0.3,0,0,-0.2,0,0,0,0,0,0,0,0,0,0,-0.3,0,0,0,-0.3,0,0,-0.2,0,0,0,-0.2,0,0,0,0,0,0,0,0,0,0,0,-0.3,0,-0.2,0,0,0,0,0,0,0,0,0,0,0,-0.2,-0.3,-1.3" 
class="s5_90"
>Make correct sentences by rearranging the words in each row.</text>

<text 
x="89" 
y="679" 
dx="0,0" 
class="s9_90"
>1 </text>

<text 
x="127" 
y="682" 
dx="0,0,18,0,16.4,0,0,0,1.2,0" 
class="s10_90"
>有 她 宠物。 三只</text>

<text 
x="89" 
y="725" 
dx="0" 
class="s9_90"
>2</text>

<text 
x="127" 
y="728" 
dx="0,0,0,0,8.4,0,0,0,-0.4,0,18" 
class="s10_90"
>几只  宠物？ 有 你</text>

<text 
x="89" 
y="771" 
dx="0" 
class="s9_90"
>³</text>

<text 
x="127" 
y="774" 
dx="0,0,0,2.3,0,0,0,16,0,16.4,0,0" 
class="s10_90"
>我   一只 有 宠物。</text>

<text 
x="89" 
y="106" 
dx="0,-1.2,0,0,0,0,0,0,0,0" 
class="s11_90"
>Vocabulary</text>

<path d="M203.3,99.7l611,0" class="g8_90" />
<path d="M203.3,102.7c1.6,0,3,-1.3,3,-3c0,-1.7,-1.4,-3.1,-3,-3.1c-1.7,0,-3.1,1.4,-3.1,3.1c0,1.7,1.4,3,3.1,3Z" class="g2_90" />
<text 
x="123" 
y="969" 
dx="0,-0.4,0,0,0,0,-0.3,0,0,0,0,0,0,0,0,0,-0.4,-0.4,0,0,0,-0.4,0,0,0,0,0,0,0,0,0,0,0,0,0,0,-0.4,0,-0.4,-0.4" 
class="s5_90"
>Some common pets, like dogs and snakes, </text>

<text 
x="123" 
y="994" 
dx="0,0,-0.2,0,0,0,0,0,0,0,0,0,0,0,0,0,0,0,0,0,0,0,0,0,0,0,0,0,0,0,-0.6,-0.4,0,-0.4,0,0,0,0,0,0,0" 
class="s5_90"
>are part of the Chinese zodiac. Find out </text>

<text 
x="123" 
y="1020" 
dx="0,0,0,0,0,0,0,0,0,0,0,0,0,-0.2,0,0,-0.2,0,0,0,0,0,0,0,0,0,0,0,-0.3,0,0,0,0,-0.3,0,0,0,-0.3,0,-0.2,0" 
class="s5_90"
>what animal represents the year you were </text>

<text 
x="123" 
y="1046" 
dx="0,0,0,0,0,0,0,0,0,0,-0.2,0,0,0,0,0,0,0,0,0,0,0,0,0,0,0,0,0,0,0,0,0,0,0,0,-0.3,0,0,0,0,0,0,0,0" 
class="s5_90"
>born and report to the class! Can you learn </text>

<text 
x="123" 
y="1072" 
dx="0,0,0,0,0,-0.4,0,0,0,0,0,0,0,0,0,0,0,0,0,0,0,0,0,0,0,0,0,0,0,0,0,0,0,0,0,0,0,0,0,0,0,0" 
class="s5_90"
>to say all the zodiac animals in Chinese? </text>

<path d="M96.3,887.8l0,-27.1l5.1,0l0,22.4l12,0l0,4.7Z" class="g9_90" />
<path d="M140.5,887.8l-5.2,0l-2.2,-6.5l-10.7,0l-2.2,6.5l-5.2,0l9.7,-27.1l6.3,0ZM127.8,865.2l-4,11.8l8,0Z" class="g9_90" />
<path d="M160.3,860.7l4.9,0l0,27.3l-5.5,0L147,868.1l0,19.7l-4.9,0l0,-27.1l5.6,0l12.6,19.7Z" class="g9_90" />
<path d="M181.3,888.4c-8.1,0,-13.8,-5.3,-13.8,-14.1c0,-8.8,5.6,-14.3,13.8,-14.3c3.3,0,7.1,0.9,9.4,2.4l-1.6,4.6c-2.4,-1.5,-5,-2.4,-7.7,-2.4c-5.2,0,-8.7,3.7,-8.7,9.5c0,6.1,3.3,9.8,8.7,9.8c1.9,0,3.7,-0.4,5,-1l0,-5.2l-6.9,0l0,-4.5l11.7,0l0,12.7c-2.8,1.6,-6.5,2.5,-9.9,2.5Z" class="g9_90" />
<path d="M205,888.4c-6.8,0,-11,-3.8,-11,-10.9l0,-16.8l5.2,0l0,16.1c0,4.5,1.9,7,6,7c3.7,0,5.8,-2.1,5.8,-6.8l0,-16.3l5.1,0l0,16.3c0,7.4,-4,11.4,-11.1,11.4Z" class="g9_90" />
<path d="M270.4,888.4c-8.2,0,-13.8,-5.3,-13.8,-14.1c0,-8.8,5.6,-14.3,13.8,-14.3c3.3,0,7,0.9,9.4,2.4l-1.6,4.6c-2.4,-1.5,-5,-2.4,-7.7,-2.4c-5.2,0,-8.7,3.7,-8.7,9.5c0,6.1,3.3,9.8,8.7,9.8c1.9,0,3.7,-0.4,5,-1l0,-5.2l-6.9,0l0,-4.5l11.7,0l0,12.7c-2.8,1.6,-6.6,2.5,-9.9,2.5Z" class="g9_90" />
<path d="M283.2,887.8l0,-27.1l18.1,0l0,4.4l-13,0l0,6.8l10.7,0l0,4.5l-10.7,0l0,6.9l13,0l0,4.5Z" class="g9_90" />
<path d="M175.8,899.2c-2.1,-1.4,-4.4,-2.1,-7,-2.1c-5.2,0,-8.6,3.6,-8.6,9.5c0,6,3.4,9.8,8.7,9.8c2.7,0,5.3,-1.1,7.3,-2.5l0.9,4.9c-2.1,1.3,-5.4,2.1,-8.4,2.1c-8.2,0,-13.7,-5.2,-13.7,-14.1c0,-8.7,5.5,-14.3,13.8,-14.3c3.1,0,6.3,0.9,8.6,2.2Z" class="g2_90" />
<path d="M197.3,920.3l0,-11.4l-12.6,0l0,11.4l-5.2,0l0,-27.1l5.2,0l0,11.1l12.6,0l0,-11.1l5.1,0l0,27.1Z" class="g2_90" />
<path d="M270.4,920.3l0,-27.1l5.2,0l0,22.4l11.9,0l0,4.7Z" class="g2_90" />
<path d="M290.2,920.3l0,-27.1l5.2,0l0,22.4l12,0l0,4.7Z" class="g2_90" />
<path d="M310.1,920.3l0,-27.1l18,0l0,4.4l-12.9,0l0,6.8l10.6,0l0,4.5l-10.6,0l0,6.9l12.9,0l0,4.5Z" class="g2_90" />
<path d="M348.8,893.2l4.9,0l0,27.3l-5.5,0L335.5,900.6l0,19.7l-4.9,0l0,-27.1l5.7,0l12.5,19.7Z" class="g2_90" />
<path d="M369,920.9c-8.2,0,-13.8,-5.3,-13.8,-14.1c0,-8.8,5.6,-14.3,13.8,-14.3c3.3,0,7,0.9,9.4,2.4l-1.6,4.6c-2.4,-1.5,-5,-2.4,-7.7,-2.4c-5.2,0,-8.7,3.7,-8.7,9.5c0,6.1,3.3,9.8,8.7,9.8c1.9,0,3.7,-0.4,5,-1l0,-5.2l-6.9,0l0,-4.5l11.7,0l0,12.6c-2.8,1.7,-6.6,2.6,-9.9,2.6Z" class="g2_90" />
<path d="M382.7,920.3l0,-27.1l18.1,0l0,4.4l-13,0l0,6.8l10.6,0l0,4.5l-10.6,0l0,6.9l13,0l0,4.5Z" class="g2_90" />
<path d="M268.7,920.1l-7.7,0l-7.7,-21.4l-33.2,0l-7.8,21.4l-7.6,0l27.8,-74.9l8.8,0Zm-32,-67.3l-14.1,38.9l28.1,0Z" class="g9_90" />
<path d="M268.7,920.1l-7.7,0l-7.7,-21.4l-33.2,0l-7.8,21.4l-7.6,0l27.8,-74.9l8.8,0l27.4,74.9Zm-32,-67.3l-14.1,38.9l28.1,0l-14,-38.9Z" class="g10_90" />
<path d="M237.9,828.6c0,0,3.6,-2.9,8.8,1.1c5.1,4.1,6,2.2,6,2.2c0,0,-2,3.5,-5.6,4c-3.6,0.5,-8.3,1,-9.2,-0.2Z" class="g9_90" />
<path d="M238.1,845.3l-2.5,0l0,-17.9l2.5,0l0,17.9Z" class="g11_90" />
<path d="M641.3,1080.4c-0.3,0.1,0.2,0,-0.1,0.8c-0.3,0.9,0.7,1.9,0.7,1.9c-0.8,-0.2,-1.1,-0.8,-1.1,-0.8c0,1,0.8,1.2,0.8,1.2c-1.1,-0.1,-1.1,-0.9,-1.1,-0.9c-0.1,1.1,0.6,1.7,0.6,1.7c-1.4,-0.5,-1.1,-2.6,-1.1,-2.6c0.1,0.8,-0.6,3.2,-1.4,4.5c-0.8,1.3,-1.5,1.4,-1.2,2.1c0.3,0.8,0.9,2.1,1.6,2.4c0.6,0.4,0.7,0.7,0.6,1c-0.1,0.4,-0.1,0.5,-0.1,2.1c0.1,1.7,0.2,3.5,0.5,4.6c0.3,1,-0.3,0.9,-0.7,0.9c-0.4,0,-1,0.3,-0.7,0.6c0.3,0.2,-0.1,0.7,-0.1,0.7c0,0,0.1,-0.7,-0.1,0.2c-0.1,0.9,-2.4,0.7,-2.6,0.4c-0.2,-0.3,0.1,-0.2,0.3,-1c0.3,-0.7,0,0,0.8,-0.9c0.7,-0.9,0.9,-0.6,1.2,-1.3c0.3,-0.7,0,-3,-0.1,-3.9c-0.1,-1,-0.4,-0.8,-0.9,-1.7c-0.4,-0.8,-1.4,-1.4,-1.8,-2c-0.5,-0.6,-0.6,-1.1,-0.6,-1.1c-0.4,0.6,-0.9,1.3,-0.9,2.3c0,0.9,-0.4,1.5,-0.8,1.8c-0.4,0.3,0.1,-0.2,-1.1,1c-1.2,1.3,-2,2.9,-2.1,3.5c-0.1,0.6,-0.1,0.5,-0.4,0.7c-0.2,0.1,-0.4,0.1,-0.3,0.5c0,0.3,-0.2,0.5,-0.5,0.3c-0.3,-0.3,-0.2,-0.1,-0.5,0.1c-0.4,0.2,-0.4,0.1,-0.4,0.4c0,0.2,-0.1,0.7,-0.1,0.7c-0.2,1,-1.8,0.6,-1.8,0.6c-1.4,-0.4,-0.4,-0.9,-0.1,-1.2c0.3,-0.4,0.4,-0.6,1,-0.9c0.6,-0.4,0.3,-0.3,0.6,-0.7c0.3,-0.4,0.4,-0.4,0.8,-0.8c0.3,-0.3,0.3,-0.1,1.5,-2c1.2,-1.9,1,-2,1.4,-3c0.3,-1.1,0.2,-0.6,0.6,-1.2c0.4,-0.6,-0.2,0.9,0.3,-1.4c0.4,-2.3,1,-3,1,-3c-0.3,-0.2,-0.5,-0.8,-0.5,-0.8c0,0,-0.3,0,-0.6,-0.1c-0.3,-0.1,-1.7,0.4,-1.7,0.4c-5,1.3,-8.9,1.1,-9.9,1c-1,-0.1,-0.9,0,-1.7,0.2c-0.7,0.3,-2.1,0.9,-2.6,1.1c-0.5,0.2,-0.9,0,-1,0.3c-0.2,0.2,-0.8,1,-0.9,1.6c-0.1,0.6,0.9,2.2,1,2.6c0.2,0.3,0.2,0.3,0.3,0.4c0.1,0,0.3,0.2,0.3,0.2c0,0,-0.1,0.2,0.1,0.5c0.2,0.2,0.2,0.1,0.5,0c0.4,-0.1,0.8,-0.3,0.8,-0.3c1.9,1,0.9,2.4,0.9,2.4c0,0,-0.7,-0.2,-0.9,-0.3c-0.2,-0.1,-0.6,0,-0.7,-0.2c0,-0.1,-0.3,-0.4,-0.6,-0.5c-0.2,-0.2,-0.3,-0.1,-1.3,-0.4c-0.9,-0.4,-1,-0.3,-0.8,-1.2c0.2,-1,-0.6,-1.9,-0.6,-1.9c0,0,-0.1,-0.7,0,-0.2c0,0.6,-1,1.6,-1.3,2.1c-0.3,0.5,-0.7,0.9,-0.7,1.1c-0.1,0.1,-0.8,1.2,-1.2,2.4c-0.5,1.2,-0.9,1.6,-0.9,1.6c0,0,0.1,-0.5,0,0.1c-0.2,0.7,-0.3,0.3,-0.3,0.3c0.1,-0.5,-0.9,0.7,-0.9,0.7l0.1,0.5c-0.1,1.4,-1.9,0.8,-1.9,0.8c-1.1,0,-0.8,-0.3,-0.5,-0.6c0.3,-0.4,0.3,-0.6,0.8,-1c0.5,-0.5,0.8,-0.7,1.5,-1.5c0.8,-0.9,0.8,-1.2,1.4,-2.7c0.5,-1.4,0.5,-1.8,0.9,-2.8c0.5,-1,0.5,-1,1.4,-2.4c0.8,-1.4,1.5,-4.7,1.5,-4.7c-1.2,-1.6,-0.4,-4.6,-0.3,-5.4c0,-0.9,-0.1,-0.7,-0.4,-1.8c-0.2,-1.1,-0.3,-1,-0.4,-2.3c-0.2,-1.2,-1.5,-3.4,-1.5,-3.4c-0.4,0.3,-1.6,0.5,-1.6,0.5c-0.2,0.1,-0.9,0.4,-0.9,0.4c-0.6,0.2,-1.5,1,-1.5,1c-0.4,1.1,-1.2,0.7,-1.2,0.7c0,-0.1,-0.4,-0.2,-0.4,-0.2c-1.2,-0.6,-0.9,-1.1,-0.9,-1.1c0,-0.2,-0.2,-0.4,-0.2,-0.4c-0.3,-0.5,-0.2,-0.8,0.2,-1.1c0.5,-0.4,2.1,-2.9,2.1,-2.9c0.1,-0.4,-0.3,-0.5,-0.1,-0.8c0.2,-0.4,0.3,-0.2,0.6,-0.5c0.3,-0.2,1,-1.4,1,-1.4c-1.1,-0.9,-0.7,-2.7,-0.7,-2.7c0,0,0.2,0.7,0.4,0.9c0.2,0.3,0.2,0.3,0.5,0.4c0.4,0.1,0.6,0.8,0.6,0.7c0.1,-0.1,0.6,-0.3,0.6,-0.3c0,0,-0.6,-0.4,-0.2,-0.7c0.3,-0.4,-0.1,-1.2,-0.1,-1.2c0.4,0,0.7,0.1,0.8,0.7c0.2,0.7,0.5,0.7,0.5,0.7c0.5,0,0.8,0.1,0.5,-0.2c-0.3,-0.4,0.1,-0.3,0.1,-0.3c0,0,-0.2,-0.4,0.2,0.1c0.4,0.4,0.7,0.4,0.7,0.4c-0.1,-0.2,0,-0.5,0,-0.5c0,0,-0.1,-0.4,0.1,0.1c0.2,0.4,0.5,0.5,0.5,0.5c0,0,-0.7,0.3,0.4,-0.1c1.2,-0.4,1.3,0.2,1.3,0.2c-0.5,-0.1,-1.6,0.5,-0.5,0.5c1.1,0,6.5,3,6.5,3c1.1,0.6,0.9,-0.7,1.2,-0.2c0,0.1,0,0.1,0,0.2c-0.1,0.4,-1.5,0.6,-0.8,0.8l0.1,0c0.7,0.3,0.9,0.6,0.9,0.6c-0.4,-0.2,-1.1,-0.2,-0.6,0.2c0.5,0.4,0.9,0.2,0.9,0.2c-0.6,0.3,-2.8,0.6,-1.8,0.5c1.1,-0.1,1.9,0.3,1.9,0.3c1.2,-0.4,1,0.1,1,0.1c-0.7,-0.2,-1.2,1.1,-1.2,1.1c1.2,0.5,1.6,-0.2,1.6,-0.2c-0.1,0.5,-0.6,0.6,-0.6,0.6c0.9,-0.2,0.9,0.7,0.9,0.7c-0.9,0.1,-0.1,0.4,-0.1,0.4c0.7,0.6,1.4,0.4,1.4,0.4c-0.8,0.4,-1.3,0.4,-1.3,0.4c0,0,-1.1,-0.7,0.2,0c1.3,0.8,3.2,0.7,5.1,0.6c1.9,-0.2,1.7,-0.7,4,-1c2.2,-0.3,5.5,1.1,6.3,1.6c0.8,0.5,1.5,2,1.5,2c0,0,0.5,0.3,1.6,-0.1c2.1,-0.9,6.7,0.5,7.1,4c0.4,3.5,1.9,7.7,4.8,8.1c2.4,0.4,-3.9,2.6,-7.1,-3.8c-1.6,-3.1,-1.6,-7.3,-5.3,-6.3Z" class="g2_90" />
<path d="M567.2,861.4c0,0,0.4,0.1,0.8,0.8c0.5,0.7,1.3,1.7,1.6,2.2c0.2,0.4,0.2,0.5,0.3,1c0.1,0.4,-0.2,1.3,-0.3,1.7c-0.1,0.3,0,0.3,0.2,0.2c0,0,-0.1,0.3,0.6,-0.3c0,0,1.5,-0.9,1,-1.8c-0.4,-0.8,0,-0.1,0,-0.1c0,0,0.5,-0.2,0.4,-0.6c-0.2,-0.4,-0.2,-0.6,-0.2,-1c0,-0.3,0,-0.3,-0.2,-0.6c-0.3,-0.4,-1,-1.4,-1.3,-2.1c-0.3,-0.6,-0.4,-0.7,-0.6,-1.1c-0.2,-0.4,-0.5,-1.6,-1,-2.1c-0.4,-0.4,-0.2,-0.1,-0.8,-0.6c-0.5,-0.4,-0.6,-1,-0.6,-1.5c0,0,0.1,-4.2,-0.7,-5.6c-0.8,-1.5,-1.5,-2.6,-1.8,-2.8c0,0,2.2,1.2,2.7,2c0.5,0.7,1.8,2.3,2.3,3.6c0.5,1.2,0.7,1.5,1.1,2.6c0.4,1.1,1.1,1.8,1.6,2.4c0.5,0.6,0.8,0.9,1.1,1.4c0.3,0.5,0.5,0.8,0.8,1.5c0.3,0.6,0.3,0.3,0.5,0.4c0.1,0.1,-0.1,-0.4,0.1,-1.6c0.2,-1.2,-0.5,-1.9,-1.6,-3c-1.1,-1.2,-1.1,-0.8,-1.4,-1.2c-0.4,-0.4,-0.5,-0.5,-0.7,-1.1c-0.3,-0.6,-1.5,-2.4,-1.8,-2.9c-0.3,-0.5,-1.7,-2.4,-2.2,-2.8c-0.5,-0.4,-2.9,-2,-3.2,-2.2c-0.3,-0.2,-1.3,-1.7,-2.7,-2.1c-1.4,-0.3,-5.4,-0.6,-8.4,0c-2.9,0.6,-5.9,1.7,-10.5,5.3c-4.5,3.5,-5.2,4.9,-7.5,6.5c-2.4,1.6,-4.1,3.5,-5.5,8.6c-1.4,5.2,-1,5.7,-1.5,6.1c0,0,-0.8,0.5,-1.6,0c-0.8,-0.6,-1,0,-1.1,0.1c-0.2,0.1,0,0,0,0.1c0,0,0.7,1.4,1.1,2c0.5,0.6,0.1,0.1,0.1,0.1c0,0,-1,0.7,-2.3,-0.2c-1.2,-1,-1.1,-0.7,-1.7,-0.5c0,0,0.3,2.4,2.3,2.4c0,0,2.3,-0.4,2.7,0.1c0.4,0.4,0.8,1.2,1.2,1.6c0.4,0.4,0.3,0.4,0.7,0.8c0.4,0.3,0.9,0.4,1.2,1.5c0.2,1,0.3,2.9,0.2,3.4c-0.1,0.5,-0.1,0.5,-0.3,0.7c-0.2,0.1,-0.6,0.2,0.2,0.8c0.7,0.6,1.7,0.9,2,0.8c0,0,0.7,0.1,1,0c0.4,-0.1,1.2,-0.5,1.4,-1.3c0.3,-0.7,2.8,-0.8,4.5,-4.2c0,0,0.7,-1.3,1.2,-1.8c0.4,-0.5,1.5,-2.9,1.8,-2.9c0.4,-0.1,1.6,1,2,1.4c0.5,0.4,2.1,2.3,2.3,3.1c0.2,0.8,0.4,1,0.5,1.7c0,0.7,0.1,0.9,0,1.3c-0.2,0.5,-0.8,1.3,-0.4,1.1c0,0,-0.2,0.6,1.1,-0.6c1.3,-1.2,1.4,-1.6,1.4,-1.6c0,0.1,0.5,0.5,0.4,-0.1c0,0,0,-0.9,-0.2,-1.5c-0.3,-0.6,-0.8,-1.1,-1,-1.8c-0.3,-0.7,-0.5,-1.1,-0.4,-1.5c0,-0.5,-0.1,-1.7,-0.1,-2.1c0.1,-0.3,-0.1,-0.9,-0.3,-1c-0.2,-0.2,0.1,-0.4,-0.2,-1.2c-0.4,-0.8,-0.6,-1,-0.5,-1.5c0.1,-0.4,0.4,-0.7,0.9,-1.2c0.4,-0.4,1.2,-1.2,1.7,-1.7c0.5,-0.4,4.3,-2.3,4.4,-2.4c0.1,0,1,-0.9,1.7,-0.7c0.8,0.2,4.5,-3.1,6.1,-4.5c1.6,-1.3,1.2,1.3,2.3,2.3c1.1,1,2.1,2.8,2.3,3.3c0.1,0.6,0.2,0.4,0.3,1.3c0,0.9,0,1.1,-0.3,1.6c-0.2,0.5,-0.3,0.8,0.2,0.5c0,0,1.4,-0.4,1.3,-1.4c0,0,0.6,-0.3,0.4,-1c-0.2,-0.6,0.2,-0.6,0.1,-0.9c-0.1,-0.4,0.1,-0.1,0,-0.7c-0.2,-0.5,-0.1,-0.6,-0.3,-0.8c-0.2,-0.2,-0.5,-1.7,-0.9,-2.1Z" class="g2_90" />
<path d="M485.1,922.9c0,0,-3,-1,-2.9,-1.3c0.2,-0.4,0.1,-0.2,0.5,-0.1c0,0,0.2,-0.3,0.5,-0.2c0,0,0.8,-0.1,1.4,-0.4c0.6,-0.2,1.3,-0.3,2,-0.3c0.6,0.1,0.1,0.1,0.1,0.1c0,0,2.5,-1.5,4.4,-2c1.9,-0.6,1.8,-0.8,3,-1.8c1.3,-0.9,3,-2.7,4,-4.1c1.1,-1.4,2,-3.2,3.2,-5.1c1.2,-2,2.5,-4.1,3.8,-5.3c1.3,-1.2,1.5,-1.4,1.8,-1.7c0.4,-0.3,0.4,-1.1,1,-1.5c0.6,-0.4,1,-0.5,1.4,0.5c0.4,1.1,2.4,0.3,3.4,1.5c1,1.2,2.1,0.6,3.1,0.4c1,-0.3,2,-0.4,2.8,-1.2c0.9,-0.7,1.9,-1.9,2.4,-1.9c0.4,0,2.1,0.6,3,1c0.9,0.3,2.5,0.8,2.8,1.1c0.2,0.3,-0.3,3.6,-1.1,2.2c-0.8,-1.3,0,-0.8,-0.4,-1.1c-0.3,-0.4,-2.1,-1,-2.8,-1c-0.7,0,-1.9,0.8,-2.2,1.1c-0.3,0.4,-2.2,1.9,-2.2,1.9c0,0,2.6,-1.4,3.3,-1.3c0.6,0.1,0.6,0.5,1,0.9c0.3,0.4,0.9,0.6,1.2,0.9c0.2,0.3,0.1,0.5,0.7,1c0.5,0.5,0.8,0.3,1.2,0.7c0.4,0.4,0.4,3.4,-0.8,2.8c-1.1,-0.5,-0.5,-0.5,-0.4,-0.9c0.2,-0.3,0.1,-0.6,-0.2,-0.9c-0.2,-0.3,-1,-1,-1.5,-1.3c-0.4,-0.3,-1,-0.5,-1.6,-0.4c-0.6,0.1,-3.8,1.6,-4.5,2.1c-0.7,0.6,-2.8,1.6,-4,1c-1.3,-0.7,-1.9,-0.8,-2.1,-0.2c-0.1,0.6,-1.6,5.4,-1.5,6.8c0,1.4,-0.9,3.6,-1,4.1c-0.2,0.4,0.8,0.6,1.7,1c0.9,0.4,3.1,1.4,4,1.6c1,0.2,2.4,0.6,2.7,0.9c0.3,0.3,-0.1,0.3,0.2,0.6c0.3,0.4,1.5,1.5,1.9,1.7c0.4,0.1,-1,3.7,-1.3,2c0,0,-0.1,-1.1,-0.2,-1.3c-0.2,-0.2,-1,-0.9,-1.3,-1.1c-0.2,-0.2,-1,-0.5,-1.2,-0.5c-0.2,0,-0.3,0,0.3,0.5c0.6,0.4,1.1,0.8,1.5,0.9c0.4,0.2,1.1,0.4,1.2,0.5c0.1,0.1,-0.7,3.4,-1.5,2.4c0,0,-0.5,-0.5,-0.4,-1c0.1,-0.6,-0.3,-0.9,-0.5,-1.1c-0.2,-0.2,-2.1,-1.3,-2.7,-1.5c-0.7,-0.1,-4.7,-1.4,-5.3,-1.4c-0.6,-0.1,-1.9,-0.5,-2.3,0c-0.4,0.5,-1.9,2.1,-4.5,0.9c-2.5,-1.1,-2.6,-1,-3.2,-1c-0.6,0.1,-4.7,0.6,-5.3,1.3c-0.5,0.7,-0.6,1.3,-0.7,1.9c-0.1,0.6,-0.3,1.5,-0.2,1.8c0.1,0.3,-0.7,2.3,-1.3,1.5c0,0,-0.4,-0.7,-0.4,-1.1c0,0,-0.5,1.9,-1.5,1.9c0,0,-1.1,0.7,-1.2,-0.3c0,-1,-0.3,-3.1,-0.4,-3.6c-0.2,-0.5,-1.4,-1.3,-0.9,-3.6Z" class="g2_90" />
<path d="M489.3,1017.3c0,0,-0.4,0.5,0.2,0.5c0,0,1.2,0.2,1.3,0.5c0.1,0.1,0.1,0.1,0.1,0.1c-0.1,0.1,-0.3,0.5,-0.2,0.6c0.2,0.3,1.3,0.8,1.4,0.9c0,0.1,0,0.3,0,0.3l-0.3,0.2l0.5,0.1c0,0,0.6,0.9,0.8,1.2c0.3,0.3,0.1,0.5,0.1,0.5l0.2,0.1c0,0,-0.1,-0.1,-0.2,0.3c-0.2,0.5,0.6,-0.1,1.2,0.5c0,0,5.1,3.2,7.9,3.2c2.8,-0.1,8.5,-0.3,9.5,-1.3c0.9,-1,0.6,-0.3,0.5,0.1c-0.1,0.5,-0.2,0.9,0,0.7c0.2,-0.3,0.5,-0.5,0.3,-0.2c-0.2,0.3,-0.1,0.4,0,0.4c0.1,-0.1,0.2,-0.1,0,0.2c-0.2,0.3,-0.1,0.4,0.1,0.3c0.2,-0.2,0.1,0.2,0,0.3c-0.2,0.1,0.2,0.3,0.2,0.3c0,0,0.1,0.2,0.1,0.3c-0.1,0.2,0.2,0.2,0.2,0.2c0,0,-0.1,0.4,-0.2,0.5c-0.1,0.1,0.2,-0.1,0.3,-0.1c0.1,-0.1,0.4,-0.2,-0.1,0.3c-0.4,0.5,0.2,0.2,0,0.4c-0.4,0.5,0,0.4,0,0.3c0.1,0,0.5,-0.2,-0.1,0.4c-0.5,0.6,-0.5,0.7,-0.1,0.5c0.4,-0.3,0.6,-0.4,-0.1,0.1c-0.6,0.6,-1.2,0.6,-0.6,0.6c0.7,0,1.1,-0.4,0.6,0c-0.5,0.5,-0.8,0.7,-0.2,0.6c0.5,-0.2,0.7,-0.2,0.4,0.1c-0.3,0.3,-0.3,0.3,-0.4,0.4c0,0.1,0,0.2,0.1,0.2c0,0,0,0.1,0,0.1c0,0.5,-0.1,0.5,0,0.6c0.1,0.1,0,0.3,0.1,0.1c0.2,-0.2,0.4,-0.3,0.2,-0.1c-0.3,0.3,-2.2,2.3,-2.8,2.6c-0.5,0.2,-1.9,1.3,-2.4,1.7c-0.4,0.3,-1,0.8,-1.7,0.5c-0.6,-0.4,-0.7,-0.4,-1.2,-0.9c-0.5,-0.5,-1.2,-1.3,-1.5,-1.1c-0.3,0.1,-0.5,0.1,-0.3,0.4l0.2,0.2c0,0,-0.1,0.3,0.3,0.7c0.5,0.5,1.8,2.7,2.3,3c0.6,0.4,1.9,1,2.8,0.8c0.9,-0.2,2.7,-0.7,3.4,-1c0.7,-0.4,5.2,-3.4,5.5,-3.9c0.2,-0.6,0.5,-0.5,0.6,-0.3c0.1,0.1,0.4,0.2,0.4,-0.1c0.1,-0.3,0.1,-0.3,0.2,-0.1c0.1,0.1,0.3,0.2,0.3,-0.2c0.1,-0.4,0.3,-0.6,0.2,-0.3c-0.1,0.4,0.3,0.2,0.3,0.4c-0.1,0.3,-0.1,0.3,0.2,0.1c0.3,-0.2,0.5,-0.3,0.4,0c0,0,0.1,-0.1,0.3,-0.1c0.5,-0.2,0.7,0,0.6,0.2c-0.2,0.2,0.1,0,0.3,-0.1c0.2,-0.2,0.1,0.1,-0.1,0.3c-0.1,0.2,0.4,0.2,0.5,0c0.1,-0.2,0,0,-0.1,0.2c-0.2,0.1,0.1,0.2,0.4,0.1c0.3,-0.2,0.6,-0.3,0.3,0.1c-0.3,0.4,0,0.3,0.2,0.2c0.1,-0.2,0.4,-0.4,0.2,-0.1c-0.1,0.2,0.1,0.3,0.2,0.2c0,0.1,-0.1,0.2,-0.1,0.2c-0.2,0.2,0.4,0.2,0.4,0c0,-0.1,0.2,0,0,0.2c-0.3,0.2,-0.5,0.5,-0.8,0.8c-0.4,0.2,-2,1.5,-2.5,1.8c-0.4,0.3,-2.3,0.7,-3,1.6c-0.6,0.8,-0.6,0.5,-1.5,1.4c-0.8,0.9,-1.8,2.1,-2.5,2.2c-0.7,0.1,-0.4,0.7,-1.2,0.2c-0.8,-0.5,-1.3,-1.5,-1.9,-1.8c-0.6,-0.4,-0.7,-0.2,-1,-0.5c-0.4,-0.3,-0.9,-0.7,-1.4,-0.7c-0.5,0,-0.7,0.3,-0.7,0.4c0.1,0.1,0.3,0.5,0.9,0.9c0.5,0.3,0.8,0.7,1.2,1.3c0.4,0.5,2.5,3.2,3.4,3.8c0.9,0.5,1.1,0.4,1.2,0.7c0.1,0.2,0.3,0.4,0.3,0.4c0,0,-0.5,0.6,0.3,-0.3c0.9,-0.8,2.2,-1.8,2.9,-2.2c0.6,-0.3,1.2,-0.4,2,-0.6c0.8,-0.3,1.6,-0.8,1.9,-1.2c0.3,-0.4,2.7,-1.6,2.8,-2.2c0.2,-0.6,0.4,-0.5,0.5,-0.1c0,0.4,0.3,0.9,0.3,0.5c0,-0.3,0,-0.4,0,-0.1c0,0.3,0.3,0.4,0.3,0.7c0,0.4,-0.1,0.7,-0.2,1.6c-0.1,0.9,-0.5,4.8,-0.5,5.4c0,0.7,0.1,3.9,0.4,4.8c0.2,0.9,0.3,1.9,0.4,2.5c0.1,0.6,0.3,0.1,0.3,-0.1c0,-0.2,0.3,0.1,0.2,0.4c0,0.3,0,0.7,0.1,0.5c0.1,-0.3,0.4,-0.1,0.3,0.3c-0.1,0.4,0.1,0.4,-0.3,1.1c-0.5,0.6,-1,0.9,-2,1.2c-0.9,0.3,-1.2,0.5,-1.9,0.1c-0.8,-0.4,-0.5,-0.7,-1.1,-0.5c-0.6,0.2,-0.4,0,-0.6,-0.1c-0.3,-0.1,-1.6,-1.1,-1.7,-0.6c-0.2,0.5,0,0.4,0.2,0.5c0,0,-0.7,-0.2,-0.3,0.3c0,0,0.3,0.8,0.7,1c0,0,0,0.5,0.6,0.9c0.7,0.4,1.9,1.3,2.2,1.3c0.3,0,0,0.5,0.5,0.5c0.5,0,0.1,0.2,1.1,-0.1c0.9,-0.2,-0.1,0,0.4,-0.3c0.4,-0.3,-0.2,-0.1,0.9,-0.2c1,-0.1,2.1,-0.5,2.8,-1.1c0.7,-0.5,1.8,-1.2,2.1,-1.9c0.3,-0.7,0,-0.2,0.2,-1.6c0.2,-1.4,0.3,-2.3,0.3,-3.6c0,-1.4,0.6,-3.6,-0.6,-5.2c-1.1,-1.6,-0.4,-0.7,-0.1,-0.9c0.2,-0.2,0.3,-1,1.2,-1.3c0.9,-0.4,0.4,-0.5,0.8,-0.1c0.4,0.3,0.7,0.9,0.7,0.5c0,-0.4,-0.6,-0.9,0,-0.4c0.5,0.5,0.6,0.5,0.6,0.3c0,-0.3,-0.5,-0.5,0,-0.3c0.4,0.1,0.7,0.5,0.7,0c0.1,-0.4,0,-0.7,0.3,-0.5c0.3,0.2,0.6,0.5,0.6,0c0,-0.6,-0.4,-1.2,0.1,-0.8c0.6,0.4,0.6,0.5,0.6,0.2c0.1,-0.4,0.1,-0.5,0.3,-0.3c0.2,0.3,0.2,0.3,0.2,0c-0.1,-0.3,0.1,0.6,0.4,0c0.3,-0.6,0.8,0.1,0.6,-0.2c-0.1,-0.4,-0.1,-1,0,-0.9c0.1,0.2,0.2,0.5,0.1,0.2c0,-0.3,0,-0.8,0.4,-0.6c0.3,0.3,0.3,0.2,0.4,-0.3c0.1,-0.4,0.5,-0.8,0.5,-0.9c0,-0.1,0.6,-0.1,0.6,-0.1c0,0,0.9,-0.1,0.6,1.1c-0.2,1.1,-0.2,1.5,0.3,2.4c0.6,0.9,1.3,2.5,1.3,3c-0.1,0.5,0,2.2,-0.8,3.6c-0.8,1.4,-0.5,1.5,-1.3,1.5c0,0,0.7,0.2,1.1,0c0,-0.1,0.1,-0.1,0.1,-0.2c0.2,-0.5,-0.4,2.1,-1.4,2.3c0,0,0.3,0.5,0.7,0c0,0,-1.3,1.9,-2.3,2.2c0,0,-0.1,1,0.8,0.2c0,0,-0.7,1.7,-1.3,2.1c-0.5,0.5,-1.2,1.2,-1.9,1.3c-0.1,0,-0.2,0.1,-0.3,0.1c0,0,0.4,-1.3,-0.3,-2c-0.7,-0.7,-1.8,-1.4,-2.5,-1.2c-0.7,0.3,-1.6,0.6,-2,1.6c-0.4,1.1,-0.2,2.5,0.3,2.8c0,0,-0.7,0,-0.9,-0.6c0,0,-0.1,0.9,0.5,1.4c0,0.1,0,0.1,0.1,0.1c0.7,0.5,1.2,1.3,1.8,1c0,0,0,0.3,-0.6,0.3c-0.7,0.1,-0.1,0.1,-0.1,0.1c0,0,1.2,0.4,1.8,0c0,0,0,0.4,-0.3,0.4c-0.3,0.1,0.7,0.1,1.2,-0.3c0.6,-0.5,1.9,-0.2,2.2,-0.4c0,0,0.5,-0.1,-0.1,0.3c-0.5,0.3,1,-0.5,1.5,-1.1c0,0,0.1,-0.4,0.4,-0.5c0.2,-0.1,0.5,-0.4,0.6,-0.4c0,0,0.5,0.1,0.2,0.6c-0.3,0.5,0.1,-0.1,0.1,-0.1c0,0,0.6,-0.4,1.2,-1.2c0.7,-0.9,1.9,-1.3,2.7,-2.7c0.7,-1.4,2,-3,2.5,-4c0.4,-1,1.3,-3.4,1.3,-5c0,-1.7,0.4,-4.1,0.3,-4.8c-0.1,-0.8,-0.3,-1.6,0.1,-1c0.3,0.6,0.7,-0.4,0,-1.2c-0.7,-0.8,-0.8,-0.9,-1.1,-1.6c-0.4,-0.6,-1.5,-2.3,-1.6,-3.6c-0.1,-1.4,0.5,-1.7,-0.8,-3.5c-1.3,-1.9,-3.6,-7.4,-7.1,-10c-3.4,-2.6,-5,-3.7,-5.8,-4.5c-0.9,-0.8,-1.6,-1.4,-2.2,-1.8c0,0,-0.3,-0.7,0.2,-0.5c0,0,0.3,-0.6,-0.6,-0.5c0,0,0.1,-0.4,0.2,-0.4c0,0,-0.3,-0.5,-1.1,-0.1c0,0,0.1,-0.9,0.5,-0.8c0,0,-2.1,-1.2,-2.9,-0.5c-0.9,0.7,-1.6,-2.3,-3.6,-2.3c0,0,-1.4,-2.1,-1.8,-3.2c-0.4,-1,-1.6,-2.2,-2.9,-2.4c-1.3,-0.2,-1.9,0.2,-2.6,-0.1c-0.8,-0.2,-3.4,0.1,-3.6,1.5c-0.1,1.4,0.1,1.1,-0.1,1.4c-0.1,0.2,0.1,0.4,0.2,0.7c0,0,-1.2,1,-1.6,1.2c-0.5,0.2,-0.9,0.3,-0.7,0.6c0.2,0.2,0.1,0.1,0.1,0.1c0,0,-0.3,1.9,0.2,2.4c0,0,0,0.8,0.3,1.1c0.1,0,0.1,0,0.2,0c0.4,0.1,-3,1.2,-4,1.2c-1.1,0,-3,0.2,-3.9,-0.1c-1,-0.2,-3.8,-0.6,-4.4,-0.9c-0.7,-0.4,-0.7,-1,-1.8,-1.7c-1.1,-0.7,-1.2,-0.9,-1.7,-1c-0.6,-0.1,-1.8,-0.4,-2,-0.1c0,0,-1.1,0.5,-0.7,0.8m43,47.3c0,0,-0.6,0.3,-1.1,-0.7c0,0,-0.3,-2.2,1.3,-1.1c0,0.1,0.8,1.1,-0.2,1.8M534,1063.8c-0.1,0,0,0,0,0Z" class="g2_90" />
<path d="M583.4,835.3c0,0,-1.5,1.1,-2.1,1.9c-0.6,0.7,-2.3,3.4,-2.3,3.4c0,0,0,0.9,0.2,0.9c0.2,0.1,0.6,0.4,0.9,0.3c0.2,-0.1,1.4,-0.3,1.9,-0.3c0.4,0.1,2.8,-0.2,4.2,-0.2c1.5,0,2.9,0.3,3.2,0.8c0.4,0.5,0.5,0.6,-0.1,0.9c-0.7,0.3,-1.3,0.6,-1.3,0.8c0.1,0.1,0.2,0.1,0.4,0.2l0,0.1c0,0.1,0,0.3,0.1,0.2c0.1,0,0.3,-0.1,0.4,0c0,0,0,0.2,0.1,0.2c0,0,0.6,-0.5,1.3,-0.9c0.8,-0.5,0.9,-0.8,1.2,-0.5c0.3,0.2,0.4,0.6,0.3,1c-0.1,0.2,-0.6,0.8,-1.2,1c-0.4,0.2,-0.9,0.2,-0.9,0.3c0,0.1,0.7,0.1,0.5,0.3c-0.1,0.1,-0.4,0.5,-0.2,0.4c0.2,0,0.4,-0.3,0.5,-0.1c0.1,0.3,0,0.4,0.3,0.2c0.3,-0.2,0.4,-0.2,0.5,-0.1c0.1,0.1,0.2,0.4,0.2,0.2c0.1,-0.2,0.4,-0.9,0.6,-1.1c0.2,-0.2,1.1,-1.1,1.8,-1.7c0,0,2,-1,3.2,-1.4c1.3,-0.3,1.3,-0.4,1.3,-0.4c0,0,1,0.5,1.7,0.9c0.7,0.4,1.1,0.7,0.7,0.6c-0.4,0,-0.8,-0.1,-1.6,0.1c-1,0.3,-0.9,0.4,-1.1,1c-0.3,0.5,-0.6,0.8,-0.6,0.8c0,0.2,0.6,-0.5,0.7,-0.2c0,0.1,-0.1,0.4,-0.3,0.7c-0.1,0.2,-0.2,0.5,0.2,0c0.4,-0.5,0.7,-1,0.6,-0.6c-0.2,0.5,-0.5,1.3,-0.3,1.5c0.1,0.2,0.1,-0.1,0.5,-0.8c0.2,-0.3,0.4,-0.8,0.4,-0.8c0.2,0,0.2,0.2,0.1,0.5c0,0.3,0.1,1.6,0.2,1c0.2,-0.6,0.5,-1.3,0.9,-1.6c0,0,0.5,-0.5,1.9,-1c0,0,2.9,-0.3,4.2,-0.9l1.2,-0.6c0,0,2.7,1.7,6,0.6c3.4,-1,6.1,-3.1,7.2,-3.6c2.6,-1.2,6.4,1.3,9.8,2.5c2.4,0.8,5,1.7,5.8,1.8c1.6,0.2,2.6,0,3.3,-0.2c0,0,-2.7,0.2,-6.9,-1.5c-4.3,-1.8,-7.5,-4.2,-11.3,-3.9c-3.7,0.3,-7.1,3.5,-9.2,3.5c-2.2,0.1,-3.4,-0.7,-3.5,-1.5c-0.1,-0.8,-0.9,-5.1,-3.2,-7.1c-2.3,-2,-7.5,-2.4,-10.2,-1.6c-2.7,0.7,-4.3,2.5,-4.9,2.6c-0.5,0.2,-1.6,0.4,-2.1,-0.2c-0.5,-0.5,-0.6,-1.4,-1.3,-1.6c-0.8,-0.2,-1,0.1,-1.2,0.6c-0.1,0.5,0,1.2,-0.3,1.4c-0.3,0.3,-1,0.5,-1,0.4c-0.1,-0.1,-0.5,-1.4,-1,-1.2c-0.6,0.2,-0.6,0.6,-0.5,1.3Z" class="g2_90" />
<path d="M577.5,841c0,0,3,3.1,3.1,3Z" class="g2_90" />
<path d="M577.5,844.5c0,0,3.1,-3,3.1,-3.1Z" class="g2_90" />
<path d="M582.8,844.9c0,0,-3,-3,-3,-3.1Z" class="g2_90" />
<path d="M582.9,844.9c0,0,-3.1,-3,-3.1,-3Z" class="g2_90" />
<path d="M476.4,955.8c-0.2,-0.3,-0.9,-0.9,-0.6,-1.6c0.2,-0.7,0.4,-1,0.5,-1.7c0.1,-0.7,0,-1.6,0.3,-1.6c0.2,0.1,0.7,1.3,0.9,1.1c0.3,-0.1,0.1,-0.4,0.3,-1.2c0.1,-0.7,0.6,-1.3,0.7,-1.3c0,-0.1,0,0.3,0.1,0.8c0.1,0.4,0.1,1.1,0.4,0.4c0.3,-0.7,1.4,-2.1,1.8,-2.3c0.4,-0.2,0.4,-0.5,0.4,-0.5c0,0,0.2,0.6,0.2,1.5c-0.1,0.8,0,1.2,0.6,0.6c0.6,-0.6,1.4,-1.4,1.4,-1.4c0.1,-0.1,-0.1,1.2,-0.2,1.7c0,0.5,-0.2,0.8,0.5,0.4c0.7,-0.4,1,-0.8,1.1,-0.5c0.2,0.3,0.2,0.9,-0.1,1.4c-0.3,0.4,-0.5,0.8,-0.3,0.8c0.3,0,1.4,-0.4,1.2,0.3c-0.2,0.7,-0.8,1.8,-1.5,1.8c-0.6,0,-1.9,-0.4,-1.8,-0.1c0.1,0.3,2.3,1.9,2.6,3.1c0.4,1.1,0.8,5.2,1.5,6.8c0.7,1.7,2.1,4.5,7.5,4.3c5.5,-0.3,6.7,-1.6,8.8,-2.6c2.1,-1.1,4.9,-2.2,6.7,-1.9c1.8,0.4,3.6,0.8,4.6,3.4c1,2.5,1.3,5,0.6,7.6c-0.7,2.5,-1.4,4.7,-3.1,5.8c-1.7,1.1,-3.8,1.4,-3.8,1.4c0,0,0.7,-0.2,2.2,-1.9c1.6,-1.8,2.4,-3.3,1.6,-2.7c-0.7,0.7,-1.9,1.3,-2.3,1.5l-0.5,0.2c0,0,1.3,-0.8,2,-2.7c0,0,1,-4.1,0.5,-4.2c-0.5,-0.1,-1,1.8,-1.3,2.9c-0.3,1.2,-2.4,3.9,-3,4.2c-0.5,0.3,-0.2,-0.2,0.4,-1.1c0.7,-0.9,1.4,-2.2,0.6,-1.4c-0.7,0.7,-1.5,1.6,-2.3,1.9c-0.8,0.3,-1.2,0.2,-1.2,0.2c0,0,1.1,-0.6,1,-0.7c-0.1,-0.2,-0.4,-0.2,-0.4,-0.2c0,0,0,0.1,0.8,-0.6c0.7,-0.8,1.4,-2.4,0.9,-2c-0.4,0.5,-2.5,2.6,-3.3,2.9c-0.8,0.3,-0.8,0.6,-0.9,0.9c-0.1,0.3,-1.4,2.4,-2.3,2.7c-1,0.2,-0.6,0.2,-0.6,0.2c0,0,0.6,-0.6,0.4,-1c-0.1,-0.4,-0.4,-0.1,-0.5,0c-0.1,0.1,-0.3,0.5,-1.2,1c-0.9,0.5,-1.5,0.5,-1.5,0.5c0,0,0.1,-0.1,0.8,-0.7c0.7,-0.6,1.2,-1.8,0.8,-1.7c-0.5,0.1,-1.5,1.2,-2,1.4c-0.5,0.3,-0.4,0.2,-0.2,-0.3c0.2,-0.6,0.2,-1,-0.1,-0.8c-0.3,0.2,0.2,0,-0.1,-0.2c-0.2,-0.2,-0.1,-0.2,-0.7,0.1c-0.7,0.3,-1.2,-0.1,-1.3,0.2c-0.1,0.4,-0.3,1.8,0,2c0.3,0.2,1.3,1.3,1.4,2c0,0.6,-0.1,2.2,0.6,2c0.8,-0.2,0.7,-0.2,1,-0.6l0.3,-0.4c0,0,0.2,1.2,-0.4,1.6c-0.5,0.5,-1.1,1.2,-0.8,1.5c0.3,0.3,0.8,-0.5,1.3,-0.2c0.6,0.2,0.8,1.4,0.6,1.2c-0.2,-0.1,-0.1,-0.7,-0.5,-0.4c-0.4,0.2,-0.8,0.6,-0.8,1.5c-0.1,1,0.3,2.3,-0.4,2.9c-0.8,0.6,-1.2,0.5,-1.3,1.1c-0.1,0.3,-0.3,0,-0.1,-0.4c0.3,-0.7,1.1,-1.4,0.6,-1.5c-0.5,-0.1,-0.5,0.6,-1,0.8c-0.5,0.1,-1.3,0.9,-1.8,0.5c-0.3,-0.3,0.6,-0.6,0.3,-0.5c-0.5,0.2,-1.2,-0.2,0,-0.9c1.2,-0.7,1.5,-1,1.8,-1.6c0,0,0.3,-1.6,0,-2.9c-0.3,-1.3,-0.7,-3.3,-1.3,-3.6c-0.6,-0.2,-3.2,-0.8,-3.6,-1.5c-0.4,-0.6,-0.5,-0.8,-0.8,-0.3c-0.2,0.5,0,2.3,-0.1,2.8c-0.1,0.5,-0.6,1.4,-0.9,2.1c-0.2,0.6,-0.3,1.4,0,1.5c0.3,0,0.8,-0.1,0.8,-0.1c0,0,-0.2,0.9,-0.8,0.9c-0.6,0,-1,0.7,-1,1c0,0.2,-0.3,1.7,0.1,1.6c0.4,-0.1,1.5,0,1.6,0.4c0,0.4,-0.1,1,-0.1,1c0,-0.1,0,-0.6,-0.2,-0.6c-0.3,-0.1,-1.7,0.1,-2.2,0.2c-0.5,0.1,-2.1,0.3,-2.6,0.5c-0.5,0.2,-0.5,0.7,-0.5,0.7c0,0,-0.4,-0.5,-0.1,-0.9c0.3,-0.4,0,-0.7,-0.1,-0.6c-0.1,0.1,-0.7,0.5,-0.7,0.5c0,0,-0.1,-0.7,0.4,-1c0.6,-0.2,1.2,-0.2,1.7,-0.2c0.5,0.1,1.1,-0.3,1.4,-1.1c0.3,-0.8,1.6,-4.6,1.6,-5.1c-0.1,-0.6,-2.2,-2,-2.8,-3.8c-0.6,-1.9,-0.5,-2.6,-0.9,-2.9c0,0,-8.4,-4.1,-7.6,-10.7c0.7,-6.6,1.6,-5.7,1.4,-6.2c-0.2,-0.6,-1.3,-0.9,-1.2,-2.4c0.1,-1.4,1.2,-2.2,1,-2.9c-0.1,-0.6,0.1,-0.7,-0.5,-0.7c-0.7,0,-1.1,-0.1,-1.1,-0.1c0,0,1,-0.9,0.7,-1.3Z" class="g2_90" />
<path d="M709,1022.5c0.1,-0.1,0.2,-0.1,0.2,-0.1c0.2,0,0.4,0.2,0.5,0.2c0.2,0.1,0.4,0.2,0.6,0.3c-0.1,0.1,-0.3,0.2,-0.5,0.4c-0.1,0,-0.1,0.1,0,0.2c0.4,0.3,0.8,0.4,1.2,0.7c0.1,0.1,0.2,0.1,0.1,0.2c-0.1,0.1,-0.3,0.1,-0.4,0.1c-0.2,0.1,-0.5,0.1,-0.7,0.1c-0.1,-0.1,-0.2,0.2,-0.1,0.2c0.9,0.5,1.4,1.6,2.3,2.1c-0.2,0.1,-0.4,0.3,-0.6,0.4c-0.1,0.1,-0.2,0.3,0,0.3c0.3,0,0.5,0,0.7,0.2c0.1,0,0.2,0.1,0.3,0.2c-0.1,0,-0.2,0.2,-0.1,0.2c0.2,0.2,0.8,0.3,0.9,0.6c0,0.2,-0.2,0.3,-0.2,0.5c0,0.2,0,0.3,0.1,0.4c0,0.1,0.2,0.1,0.2,0c0.1,-0.2,0.1,-0.3,0.2,-0.5c0,0.4,0.1,0.9,0.3,1.3c0.1,0.1,0.2,0.1,0.3,0c0.1,-0.2,0.1,-0.5,0.1,-0.7c0.2,0.8,0.2,1.7,0.8,2.2c0.1,0,0.3,0,0.3,-0.2c0,-0.3,0,-0.6,0.1,-0.9c0.1,0.3,0.2,0.5,0.4,0.7c0.2,0.1,0.4,0.2,0.6,0.2c0.1,0,0.1,0.1,0.2,0.1c0,0.2,0.1,0.4,0.2,0.6c0,0.1,0.2,0.1,0.3,0c0,-0.1,0,-0.1,0,-0.1c0.2,0.2,0.4,0.3,0.6,0.5c0.3,0.3,0.1,0.5,0.2,0.9c0,0.2,0,0.5,0.1,0.7c0.2,0.9,0.2,1.9,1.1,2.3c0.1,0.1,0.2,-0.1,0.2,-0.2c-0.2,-0.3,-0.3,-0.7,-0.4,-1.1c0,-0.1,0,-0.3,-0.1,-0.4c0.2,0.3,0.3,0.6,0.6,0.9c0.1,0.1,0.3,0,0.2,-0.2c0,-0.1,0,-0.3,-0.1,-0.4c0.3,0.5,0.7,1,1.2,1.4c0.8,0.6,1.7,0.9,2.6,0.9c1,0.1,2.1,0,3.1,-0.4c0.6,-0.4,1.5,-0.9,1.9,-1.6c0.1,-0.1,0,-0.3,-0.1,-0.2c-0.4,0.1,-0.8,0.1,-1.2,0.2c0.3,-0.3,0.5,-0.5,0.8,-0.9c0.3,-0.4,0.5,-1,0.7,-1.5c0.2,-0.5,0.5,-1.1,0.6,-1.7c0.1,-0.2,0.1,-0.5,0.1,-0.8c0,-0.2,0,-0.5,0,-0.8c0.1,-0.2,-0.2,-0.2,-0.3,-0.1c-0.1,0.7,-0.5,1.3,-1,1.8c-0.4,0.5,-0.8,0.9,-1.3,1.2c-0.1,-0.3,0.1,-0.7,0,-1c0,-0.4,-0.2,-0.7,-0.5,-0.9c-0.1,-0.1,-0.2,0,-0.2,0.1c-0.1,0.5,-0.2,1.2,-0.7,1.5c0,-0.3,0.1,-0.7,0.1,-1c0,-0.4,-0.1,-0.7,-0.2,-1.1c-0.1,-0.1,-0.2,-0.1,-0.3,0c-0.1,0.3,-0.2,0.5,-0.2,0.8c-0.2,0.3,-0.4,0.6,-0.7,0.8c-0.3,0.4,-1,1,-1.5,0.7c0.3,-0.7,0.4,-1.5,1.2,-1.8c0.2,-0.1,0.1,-0.4,-0.1,-0.3c-0.4,0.2,-0.8,0,-1.3,0c-0.4,-0.1,-0.7,0,-1.1,0.2c-0.3,0.2,-0.6,0.4,-0.9,0.8c0,0.1,-0.2,0.4,-0.3,0.5c-0.1,0,-0.4,-0.1,-0.5,-0.2c-0.8,-0.5,-1.5,-1,-2.2,-1.6c-0.3,-0.3,-0.7,-0.6,-0.9,-1c-0.8,-1.1,-1.4,-2.2,-1.9,-3.5c-0.2,-0.7,-0.4,-1.4,-0.4,-2.1c-0.1,-0.7,-0.1,-1.4,0,-2.2c0.1,-0.7,0.2,-1.4,0.4,-2.2c0,-0.1,0,-0.2,0,-0.2c0.1,-0.2,0.1,-0.4,0.2,-0.6c0,-0.1,0,-0.2,0.1,-0.4c0,-0.1,0.1,-0.2,0.2,-0.3c-0.1,0,-0.2,-0.1,-0.2,-0.1c0.1,0,0.1,0.1,0.2,0.1c0.1,-0.2,0.8,-1.1,1,-1.4c0.3,-0.3,0.6,-0.6,0.8,-0.9c0.2,0.6,1,1.7,1.1,1.8c-0.3,-2.1,0.6,-3,0.6,-3.5c0.2,0.9,0.6,1.6,1,2.4c0.2,-0.1,0.6,-1.5,0.7,-2.1c0,-0.2,0.1,-0.4,0.1,-0.7c0,0.5,0.1,0.9,0.3,1.3c0,0.1,0,0.2,0,0.2c0.1,0,0.1,-0.1,0.1,-0.1c0.5,-0.8,1.1,-1.4,1.8,-2c0.3,-0.3,0.7,-0.6,1.2,-0.8c0.3,-0.1,0.7,-0.1,1.1,-0.1c0.4,0.1,1,0.1,1.5,0.3c-0.5,0.2,-1.1,0.7,-1.3,1.2c0,0.1,0.1,0.2,0.2,0.1c0.1,0,0.2,0,0.3,-0.1c0,0.1,-0.1,0.2,-0.1,0.4c-0.1,0.1,0.1,0.2,0.2,0.1c0.1,0,0.3,0,0.4,-0.1c-0.5,0.7,-1.3,1.3,-2.1,1.4c-0.2,-0.1,-0.3,-0.1,-0.5,-0.1c-0.1,0.1,-0.2,0.3,0,0.3c0.1,0.1,0.2,0.1,0.4,0.1c0.1,0,0.2,0.1,0.4,0.1c0.1,0,0.3,0,0.5,-0.1c0.4,-0.1,0.7,-0.4,1.1,-0.6c-0.1,0.2,-0.1,0.3,-0.2,0.5c0,0.1,0.1,0.2,0.2,0.2c0.4,-0.2,0.9,-0.4,1.2,-0.7c0.3,-0.2,0.5,-0.4,0.8,-0.6c0,0.1,0,0.2,-0.1,0.4c0,0.1,0.1,0.2,0.2,0.1c0.3,-0.1,0.5,-0.3,0.7,-0.5c0,0.2,-0.2,0.3,-0.3,0.5c-0.1,0.1,0,0.3,0.2,0.2c0.2,0,0.5,-0.2,0.8,-0.2c0.1,0,0.1,0,0.1,0c-0.1,0.1,-0.2,0.3,-0.1,0.5c0,0.1,0.1,0.1,0.1,0.1c0.4,-0.1,0.8,0,1.2,-0.1c0.3,0,0.6,-0.1,0.8,0c-0.3,0.3,-0.6,0.8,-0.2,1.1c0.2,0.1,0.6,0.1,0.7,0.3c0.2,0.2,0.3,0.3,0.4,0.5c-0.1,0.1,-0.1,0.2,-0.1,0.2c-0.1,0.3,0.1,0.6,0.2,0.9c0.2,0.4,0.5,0.8,0.7,1.2c0.1,0.5,0.2,0.9,0.3,1.4c0.1,0.4,0.3,0.8,0.4,1.3c0.5,1.6,1,3.4,2,4.8c0.7,1,1.8,1.6,3,1.8c0.4,0.1,0.7,0.1,1.1,0c0.4,-0.1,0.7,-0.1,1,-0.2c0.1,0,0.1,0,0.1,0c0,0.1,0,0.1,-0.1,0.2c-0.1,0.2,-0.2,0.3,-0.2,0.5c-0.2,0.4,-0.3,0.7,-0.3,1.1c-0.1,0.1,0.1,0.2,0.2,0.1c0.2,-0.2,0.3,-0.5,0.5,-0.8c0.1,0,0.1,0,0.1,-0.1c-0.2,0.7,-0.3,1.3,-0.3,2c0,0.2,0.2,0.2,0.2,0.1c0.3,-0.5,0.5,-1,0.8,-1.4c-0.2,0.5,-0.3,1.1,-0.4,1.5c-0.1,0.6,-0.2,1.2,-0.4,1.7c-0.1,0.1,-0.1,0.3,-0.2,0.4c-0.4,0.2,-0.7,0.5,-0.9,0.9c-0.1,0.2,0,0.3,0.1,0.3c0.5,-0.2,0.8,-0.6,1,-1c0.5,-0.3,1,-0.5,1.5,-0.8c0.4,-0.3,0.7,-0.7,1,-1.1c0.1,-0.2,0.3,-0.4,0.4,-0.6c-0.1,0.3,-0.3,0.7,-0.4,1c-0.3,0.6,-0.6,1.2,-1.2,1.6c-0.1,0.1,0,0.3,0.1,0.3c1,-0.4,2.4,-0.5,3,-1.5c0.3,-0.6,0.1,-1.2,0.2,-1.8c0,-0.2,0,-0.4,0.2,-0.6c0.1,0,0.3,-0.1,0.4,-0.2c0.3,-0.1,0.6,-0.3,0.9,-0.4c0.2,0.4,0.7,0.3,1.1,0.2c0.4,-0.1,0.8,-0.1,1.2,0c0.3,0,0.6,0,1,0c0.4,0,0.9,0,0.9,-0.5c0.2,-0.2,0.4,-0.3,0.6,-0.5c0.1,-0.1,0,-0.3,-0.1,-0.2c-0.2,0,-0.4,0,-0.6,0.1c-0.1,-0.3,-0.3,-0.4,-0.5,-0.3c0,0,-0.1,0,-0.1,0.1c-0.1,1,-1.5,0.7,-1.1,-0.2c0.1,-0.3,0.4,-0.7,0.8,-0.6c0.2,0,0.4,0.2,0.6,0.2c0.2,0.1,0.4,0.1,0.6,-0.1c0,0,0.1,0,0.1,0c0.1,0.1,0.3,0.2,0.5,0.2c0.1,0,0.2,-0.2,0.1,-0.3c-0.1,-0.1,-0.2,-0.2,-0.2,-0.3c-0.1,0,-0.1,0,-0.2,0c0.1,-0.1,0.1,-0.3,0.1,-0.4c-0.1,-0.1,-0.1,-0.2,-0.2,-0.3c-0.2,-0.1,-0.4,-0.1,-0.6,-0.2c-0.2,-0.2,-0.3,-0.3,-0.6,-0.2c0,-0.2,-0.1,-0.4,-0.2,-0.6c0,-0.5,-0.6,-0.5,-0.9,-0.4c-0.4,0,-0.7,0.3,-0.9,0.6c0,0,-0.1,0,-0.1,-0.1c0,0,-0.1,-0.1,-0.2,0c-0.1,-0.1,-0.3,-0.1,-0.5,-0.1c-0.2,0.2,-0.4,0.4,-0.5,0.6c-0.1,0.5,-0.1,0.9,-0.1,1.4c-0.1,0,-0.3,0,-0.4,-0.1c0.1,-0.2,0.1,-0.4,0.1,-0.7c0.1,-0.3,0.1,-0.6,0.3,-0.9c0.4,-0.7,1.3,-1,1.9,-1.5c0.5,-0.4,1,-1.1,1.3,-1.8c0.4,-0.7,0.8,-1.4,1,-2.2c0,-0.1,0.1,-0.1,0.1,-0.1c0.1,-0.1,0.3,-0.1,0.4,-0.2c0.1,0.1,0.2,0.4,0.3,0.6c0,0.1,0.1,0.1,0.1,0.1c0.2,-0.1,0.3,-0.2,0.3,-0.3c0.1,0.6,-0.1,1.3,-0.3,1.8c-0.2,0.4,-0.3,0.8,-0.5,1.1c-0.1,0.1,-0.2,0.3,-0.3,0.4c-0.1,0.2,-0.1,0.4,-0.3,0.5c-0.1,0,-0.1,0.3,0.1,0.3c0.7,-0.3,1.4,-0.7,1.9,-1.2c0.3,-0.3,0.6,-0.7,0.7,-1.1c0.1,0,0.1,0,0.1,0.1c0.2,0.2,0.3,0.3,0.5,0.5c0.2,0.1,0.4,0.3,0.5,0.5c0.1,0.1,0.2,0.2,0.3,0.3c0.1,0,0.3,-0.1,0.2,-0.2c-0.1,-0.5,-0.3,-1,-0.4,-1.5c-0.1,-0.4,-0.1,-0.9,-0.2,-1.3c0.2,0.1,0.3,0.2,0.4,0.3c0.2,0.2,0.4,0.4,0.6,0.5c0.1,0,0.3,-0.1,0.2,-0.3c-0.1,-0.2,-0.3,-0.4,-0.4,-0.6c-0.2,-0.3,-0.2,-0.5,-0.1,-0.8c0.1,-0.5,-0.2,-0.9,-0.3,-1.3c-0.2,-0.5,-0.4,-1.1,-0.1,-1.6c0.1,-0.2,0.2,-0.4,0.3,-0.6c0.2,-0.2,0.4,-0.3,0.6,-0.2c0.2,0.2,0.5,0.4,0.8,0.4c0.1,0,0.2,-0.1,0.3,-0.2l0.1,0c0.2,0,0.4,-0.1,0.6,-0.2c0.1,-0.2,0,-0.3,-0.2,-0.3c0,0.1,-0.1,0.1,-0.2,0.1c-0.1,0,-0.2,0,-0.2,0.1c0,-0.3,-0.2,-0.6,-0.5,-0.7c-0.2,-0.1,-0.6,-0.1,-0.8,-0.2c-0.4,-0.2,0.1,-0.9,0.2,-1.1c0.2,-0.2,0.4,-0.3,0.6,-0.5c0,-0.1,0.1,-0.1,0.2,-0.2c0,0,0,-0.1,0,-0.1c0.1,-0.1,0.3,-0.2,0.4,-0.2c0.1,0,0.1,-0.1,0.1,-0.1c0.1,-0.1,0.1,-0.2,0,-0.3c-0.1,0,-0.3,0,-0.4,0c-0.1,0,-0.1,0,-0.2,0c0,0,-0.1,0,-0.1,0.1c0,-0.1,-0.1,-0.1,-0.2,-0.1c-0.2,0,-0.5,0.1,-0.7,0.3c0,0,0,-0.1,0,-0.1c0,-0.1,0,-0.1,0,-0.1l0,-0.1c0,0,0.1,0,0.1,0l0.1,-0.1l0.1,0c0,0,0.1,-0.1,0.1,-0.2c-0.1,-0.1,-0.1,-0.1,-0.2,-0.1c-0.2,0,-0.3,0.1,-0.5,0.2c0,0,0,0.1,0,0.1c-0.2,0,-0.4,0.2,-0.5,0.3c-0.1,0.1,-0.1,0.2,-0.2,0.3c-0.2,-0.1,-0.3,0,-0.5,0l-0.1,0c0.1,-0.1,0,-0.2,-0.1,-0.2c-0.2,0,-0.4,0,-0.5,0.1c0,0,-0.1,0,-0.1,0c-0.4,0.2,-0.8,0.7,-0.8,1.1c0,0.2,0.1,0.4,0.2,0.5c-0.1,0,-0.2,0,-0.2,0.1c-0.2,0.3,-0.3,0.6,-0.5,0.8c-0.1,0.1,-0.2,0.2,-0.3,0.3c0,-0.1,0,-0.3,-0.1,-0.5c-0.2,-1.7,-1,-3.3,-2.1,-4.6c-1,-1.1,-2.2,-2,-3.4,-2.8c-1.3,-0.9,-2.8,-1.7,-3.8,-2.9c-0.2,-0.2,-0.5,-0.5,-0.6,-0.8c0,-0.2,-0.1,-0.6,0.1,-0.7c0.2,-0.3,0.6,-0.2,0.9,-0.1c0.3,0.1,0.6,0.3,0.9,0.5c0.6,0.4,1.1,0.9,1.7,1.2c0.6,0.3,1.3,0.4,2,0.5c0.5,0.1,1.4,0,1.8,0.5c0.2,0.4,0.3,0.8,0.1,1.2c-0.1,0.2,-0.2,0.3,-0.3,0.4c-0.3,0,-0.5,0,-0.7,0.1c-0.2,0,-0.3,0.2,-0.1,0.3c0.3,0.1,0.6,0,0.8,-0.1c0.2,0,0.4,0,0.5,-0.1c0,0.2,-0.1,0.3,-0.2,0.5c-0.1,0.1,0.1,0.3,0.2,0.2c0.1,-0.1,0.3,-0.2,0.4,-0.3c0,0.1,0,0.1,-0.1,0.2c0,0.1,0,0.3,0.1,0.2c0.3,0,0.5,-0.1,0.7,-0.3c0,0.2,0,0.4,0.1,0.6c0.3,0.2,0.7,-0.2,0.8,-0.4c0.2,-0.4,0.4,-1,0.3,-1.4c0,-0.6,-0.4,-1,-0.8,-1.3c-0.2,-0.1,-1.2,-1.1,-0.6,-1.2c0.3,-0.1,0.5,0.2,0.6,0.5c0.1,0.4,0.3,0.6,0.5,0.9c0.2,0.3,0.3,0.6,0.5,0.9c0.1,0.2,0.2,0.4,0.3,0.5c-0.5,0.5,-0.5,1.4,-0.2,2c0.4,1,1.3,2,0.6,3.1c0,0.1,-0.1,0.2,0,0.1c0.2,-0.4,0.4,-0.7,0.4,-1.1c0.1,-0.5,-0.1,-0.9,-0.3,-1.3c-0.2,-0.4,-0.5,-0.8,-0.6,-1.2c-0.2,-0.4,-0.3,-1.2,0.1,-1.5c0,0,0.1,0,0.1,-0.1c0,0.1,0.1,0.1,0.2,0.2c0.5,0.2,0.9,-0.4,1.2,-0.7c0.1,-0.1,0.1,-0.1,0,-0.2c0.1,0,0.2,0,0.2,0c0.2,-0.3,0.1,-0.6,0,-0.7c0.2,-0.1,0.3,-0.3,0.4,-0.5c0.1,-0.2,0.2,-0.5,0.5,-0.3c0.4,0.3,0.7,0.8,1.1,1.1c0.5,0.3,1.1,0.3,1.7,0.3c0.5,-0.2,1.1,-0.5,1.4,-1c0.1,-0.2,0,-0.3,-0.1,-0.2c-0.4,0.7,-1.2,0.9,-1.8,0.9c-0.3,0,-0.7,0,-0.9,-0.2c-0.2,-0.1,-0.4,-0.3,-0.5,-0.4c-0.2,-0.2,-0.4,-0.4,-0.6,-0.6c-0.1,-0.1,-0.3,-0.3,-0.4,-0.3c-0.5,0,-0.5,0.8,-0.9,0.9c0,0,-0.1,0.1,-0.1,0.1l-0.1,0c-0.2,-0.2,-0.4,-0.3,-0.6,-0.5c-0.1,-0.2,-0.2,-0.4,-0.3,-0.6c-0.1,-0.3,-0.2,-0.5,-0.4,-0.8c-0.1,-0.2,-0.2,-0.4,-0.4,-0.6c-0.3,-0.5,0.1,-0.9,0.3,-1.3c0.1,-0.3,0.2,-0.8,-0.2,-0.9c-0.2,-0.1,-0.7,0,-0.8,-0.3c0,-0.2,0.2,-0.4,0.4,-0.6c0.1,-0.2,0.2,-0.4,0.3,-0.6c0.1,-0.4,0,-0.9,-0.1,-1.4c0,-0.1,-0.2,-0.1,-0.3,0c-0.2,0.3,-0.4,0.5,-0.6,0.8c-0.7,-2.1,-3,-3.4,-2.8,-5.9c0,-0.2,-0.2,-0.2,-0.3,0c0,0.1,0,0.3,-0.1,0.5c-0.1,-0.3,-0.3,-0.5,-0.4,-0.8c0,-0.2,-0.2,-0.1,-0.2,0c-0.1,1.3,0.1,2.4,0.5,3.5c-0.3,-0.4,-0.6,-0.7,-0.9,-1.1c-0.3,-0.5,-0.8,-1.1,-0.9,-1.7c0,-0.1,0,-0.1,0,-0.1c-0.1,-0.2,-0.3,-0.2,-0.3,0c0,0,0,0.1,0,0.1c0,0.3,0,0.7,0,1c-0.3,-0.5,-0.5,-1.2,-0.7,-1.8c-0.1,-0.2,-0.3,-0.2,-0.3,0c0,0.6,0,1.1,0.1,1.7c-0.8,-0.9,-2.2,-1.1,-3.3,-1.5c-0.1,-0.1,-0.2,0,-0.2,0.2c0.1,0.3,0.3,0.7,0.5,1c-1.3,-0.3,-2.7,0.6,-4,0.4c-0.2,0,-0.3,0.2,-0.2,0.3c0.3,0.3,0.6,0.5,0.9,0.7c-0.5,0,-1.1,0,-1.6,0c-0.2,-0.1,-0.2,0.1,-0.1,0.2c0.2,0.3,0.4,0.6,0.5,0.8c-1.3,0,-2.6,0.5,-3.9,0c-0.1,-0.1,-0.3,0,-0.2,0.2c0.4,0.4,0.9,0.8,1.3,1.2c-0.3,0,-0.6,0,-0.8,-0.2c-0.1,-0.1,-0.3,0,-0.2,0.2c0.2,0.4,0.5,0.8,0.8,1.2c-0.6,0.1,-1.2,-0.1,-1.9,0c-0.1,0,-0.1,0.2,0,0.3c0.4,0.5,1.1,0.9,1.7,1c0.4,0.2,0.9,0.2,1.3,0.1c-1.3,1.3,-3.1,1.9,-4.7,1.7c-0.1,0,-0.3,0.2,-0.1,0.3c0.8,0.7,1.9,0.8,2.9,0.9c-0.3,0.3,-0.9,0.5,-1.3,0.3c-0.1,0,-0.2,0.2,-0.1,0.3c0.8,0.7,1.9,0.9,2.8,1.4c-0.3,0.3,-0.5,0.7,-0.5,1.1c0,0.1,0.1,0.1,0.1,0.1c0.2,0,0.5,0,0.7,0c0.2,0.1,0.3,0.1,0.2,0.4c-0.1,0.4,-0.4,0.8,-0.4,1.2c0,0.2,0.2,0.2,0.2,0.2c0.3,-0.2,0.7,-0.4,1,-0.2c0.3,0.3,0.5,0.7,0.7,1c0.2,0.4,0.5,1,0.6,1.5c-0.1,0.4,-0.1,0.8,-0.1,1.2c0,0.1,0.2,0.2,0.3,0.1c0.1,-0.4,0.1,-0.9,0.1,-1.3c0,-0.3,0,-0.5,0.1,-0.8c0.1,0.4,0.2,0.8,0.3,1.3c0.2,0.5,0.4,1.1,0.6,1.7c0,0.1,0.3,0.1,0.3,-0.1c0,-0.4,0.1,-0.8,0.2,-1.2c0.2,0.5,0.3,1,0.6,1.5c0,0.2,0.2,0.1,0.2,-0.1c0,-0.4,0.2,-0.7,0.4,-1.1c0.1,0.3,0.3,0.7,0.4,1c0.2,0.5,0.5,1.2,0.2,1.7l-0.1,0c-0.1,0.2,0.1,0.4,0.3,0.2c0.3,-0.5,0.6,-1.1,0.8,-1.7c0.4,0.8,0.8,1.9,0.5,2.7c-0.1,0.1,-0.1,0.2,-0.2,0.3c-0.1,0.2,0.2,0.3,0.3,0.1c0,-0.1,0.1,-0.2,0.1,-0.3c0.2,-0.4,0.5,-0.8,0.7,-1.2c0.2,0.6,0.3,1.2,0.3,1.9c0,0.1,0.1,0.1,0.2,0.1c0.1,-0.1,0.3,-0.1,0.5,-0.1c-0.3,0.7,-1.1,1.1,-1.8,1.2c-0.1,0,-0.2,0.2,-0.1,0.3c0.8,0.6,1.7,0.2,2.5,-0.2c-0.3,0.3,-0.5,0.6,-0.9,0.7c-0.2,0,-0.2,0.2,-0.1,0.3c0.3,0,0.5,0.1,0.8,0.2c-0.3,0.2,-0.5,0.4,-0.8,0.4c-0.1,0,-0.2,0.2,-0.1,0.3c0.1,0.1,0.3,0.2,0.3,0.4c0,0.2,-0.2,0.4,-0.3,0.5c-0.2,0.1,-0.5,0.2,-0.7,0.2c-0.6,0.1,-1.2,0,-1.6,-0.5c0,-0.1,-0.1,-0.1,-0.2,0c0.1,-0.3,0.1,-0.5,0.2,-0.8c0,-0.1,-0.2,-0.2,-0.3,-0.1c-0.3,0.3,-0.7,0.6,-1.1,0.8c0.1,-0.4,0.3,-0.7,0.4,-1c0.1,-0.2,-0.1,-0.3,-0.2,-0.2c-0.2,0.2,-0.3,0.5,-0.5,0.6c-0.2,0.1,-0.3,0.2,-0.5,0.3c0.3,-1,0.7,-1.9,1.4,-2.7c0.1,-0.2,-0.1,-0.3,-0.2,-0.2c-0.6,0.3,-1,0.8,-1.6,1.1c0.1,-0.2,0.2,-0.4,0.4,-0.6c0,-0.2,-0.1,-0.3,-0.2,-0.2c-0.2,0,-0.3,0.2,-0.4,0.2c0,-0.2,-0.2,-0.2,-0.3,-0.1c0,0,-0.1,0.1,-0.2,0.1c0,0,0,-0.1,0,-0.2c0.1,-0.2,0.1,-0.3,0.1,-0.5c0,-0.1,-0.1,-0.2,-0.2,-0.1c-0.2,-0.1,-0.3,-0.1,-0.2,-0.2c0,-0.1,0.1,-0.1,0.1,-0.2c0,0,0,-0.1,0,-0.2c0.1,-0.2,0.2,-0.4,0.2,-0.5c0.1,-0.3,0.2,-0.5,0.3,-0.7c0.1,-0.2,0.2,-0.3,0.3,-0.4c0.1,-0.1,-0.1,-0.3,-0.2,-0.2c-0.4,0.2,-0.8,0.5,-1.1,0.8c0,-0.2,0,-0.3,0.1,-0.4c0,-0.2,-0.2,-0.3,-0.3,-0.1c0,0,0,0.1,-0.1,0.1c0,-1.1,-0.1,-2,-0.7,-2.9c-0.1,-0.1,-0.3,0,-0.3,0.1c0.1,0.4,0.1,0.8,0,1.2c0,-0.4,0.1,-0.8,0,-1.2c-0.2,-0.6,-0.5,-1.2,-0.8,-1.8c-0.1,-0.1,-0.4,0,-0.3,0.1c0.1,0.3,0.2,0.8,0,1.1c-0.3,-1.1,-0.3,-2.2,-1,-3.1c0,-0.1,-0.2,0,-0.2,0.1c0,0.2,0,0.5,0,0.7c0,-0.1,0,-0.2,0,-0.3c-0.1,-0.1,-0.2,-0.1,-0.3,0c-0.2,-0.5,-0.6,-0.9,-0.9,-1.3c-0.4,-0.5,-0.9,-0.8,-1.4,-1.1c-0.2,0,-0.3,0.1,-0.2,0.2c0.1,0.3,0.3,0.5,0.4,0.8c0,-0.1,0,-0.1,0,-0.1c-0.3,-0.3,-0.6,-0.6,-0.9,-0.9c-0.2,-0.3,-0.5,-0.5,-0.8,-0.7c-0.4,-0.1,-0.7,-0.3,-1.1,-0.4c-0.1,-0.1,-0.3,0.1,-0.1,0.2c0.2,0.3,0.5,0.5,0.6,0.9c-1,-0.8,-2,-1.7,-3.4,-1.8c-0.1,0,-0.1,0.2,0,0.3c0.2,0.1,0.4,0.3,0.6,0.6c-0.5,-0.2,-1,-0.4,-1.6,-0.5c-0.1,0,-0.2,0.1,-0.1,0.2c-0.1,0,-0.2,0,-0.4,-0.1c-0.1,0,-0.2,0.1,-0.1,0.2c0,0,0,0.1,0,0.1c-0.2,-0.1,-0.3,-0.2,-0.5,-0.2c-0.4,-0.2,-0.9,-0.3,-1.3,-0.3c-0.1,0,-0.2,0.2,-0.2,0.3c0.2,0.1,0.3,0.2,0.5,0.3c-1.1,-0.4,-2.2,-0.5,-3.3,-0.5c-0.2,0,-0.2,0.2,-0.1,0.3c0.3,0.1,0.6,0.2,0.8,0.4c0.1,0,0.2,0.1,0.3,0.2c-0.2,-0.1,-0.4,-0.2,-0.6,-0.2c-0.4,-0.1,-0.9,-0.2,-1.3,0c-0.1,0,-0.2,0.1,-0.1,0.2c0.2,0.3,0.8,0.3,1,0.5c-0.3,0,-0.5,-0.2,-0.8,-0.2c-0.5,0,-0.9,0.1,-1.4,0.2c-0.1,0.1,-0.1,0.3,0,0.3c0.3,0.1,0.6,0.1,0.8,0.3c-0.7,0,-1.3,0.1,-2,0.2c-0.8,0.1,-1.7,0.3,-2.5,0.1c-0.1,-0.1,-0.2,0.1,-0.1,0.2c0.2,0.3,0.5,0.6,0.8,0.8c-0.3,0,-0.5,0,-0.8,0c-0.1,0,-0.2,0.1,-0.1,0.2c0.2,0.4,0.6,0.5,0.8,0.8c-0.1,0,-0.3,-0.1,-0.5,0c-0.3,0,-0.5,0.2,-0.7,0.3c-0.1,0,-0.1,0.1,0,0.2c0.2,0.3,0.5,0.3,0.8,0.3c-0.2,0.1,-0.4,0.2,-0.6,0.2c-0.2,0.2,-0.5,0.4,-0.7,0.6c-0.5,0.5,-0.9,1,-1.3,1.5c-0.7,0.9,-1.5,2,-1.8,3.2c0,0.1,0.1,0.2,0.2,0.1c0.4,-0.1,0.5,-0.5,0.8,-0.8c0.2,-0.2,0.5,-0.5,0.8,-0.7c-0.3,0.4,-0.6,0.8,-0.7,1.3c-0.2,0.9,-0.4,1.8,-0.5,2.8c0,0.1,0.1,0.2,0.2,0.1c0,0,0.1,-0.1,0.1,-0.1c-0.1,0.3,-0.2,0.6,-0.3,0.9c-0.1,0.5,-0.1,1.1,-0.4,1.6c0,0,0,0.1,0.1,0.2c-0.1,0,-0.1,0,-0.2,0c-0.2,0.1,-0.4,0.2,-0.6,0.4c-0.2,-0.1,-0.3,0,-0.4,0.2c0,0.1,0.1,0.2,0.2,0.2m46.4,-8.1c0,-0.3,0.2,-0.4,0.3,-0.5c0,0.1,0,0.1,-0.1,0.2c0,0.2,-0.1,0.4,-0.2,0.5c-0.1,0.2,0,-0.2,0,-0.2m-1,0.1c0.1,-0.1,0.3,-0.3,0.4,-0.5l0.1,0c-0.1,0,-0.1,0.1,-0.1,0.1c-0.1,0.2,-0.1,0.3,-0.2,0.5c0,0.1,0,0.1,0,0.2c0,0,-0.1,0,-0.2,0c0,0,-0.1,-0.2,0,-0.3m-0.6,-0.1c0,-0.1,0,-0.2,0,-0.2c0,-0.1,0.1,-0.1,0.1,-0.2c0.1,-0.1,0.1,-0.1,0.1,-0.1c0,0,0.1,0,0.1,0c-0.1,0.1,-0.2,0.3,-0.3,0.4c0,0.1,0,0.3,0,0.1m-0.7,2.1c-0.1,0,-0.1,0,-0.2,0c0.1,-0.3,0.1,-0.7,0.3,-1.1l0,-0.1c0.2,0.3,0.5,0.6,0.6,0.8c0.2,0.3,0.4,0.7,0.2,1c-0.1,0.3,-0.2,0.6,-0.6,0.5c-0.1,0,0,-0.3,0,-0.3c0,-0.1,0,-0.2,-0.1,-0.3c-0.1,0,-0.2,0,-0.3,0c0.1,-0.1,0.2,-0.2,0.2,-0.3c0.1,-0.1,0,-0.3,-0.1,-0.2Z" class="g2_90" />
<path d="M713.3,874.2c0,0,-3.7,-0.2,-8.1,1.6c-4.3,1.8,-11,-0.8,-10,-4.6c0,0,1.3,-2.2,3.2,-1.7c0,0,1.3,0.4,0.2,1c0,0,-3.7,0.9,-1.8,2.7c0,0,1.8,2.1,5,1.5c0,0,-0.1,0.5,7.6,-2.3c0,0,6,-1.2,7.9,-0.3c2,1,5.6,2.7,6.7,4.4c1.1,1.8,3.4,5.9,4.3,7.3c0.9,1.3,2,3.4,2.5,4.9c0.5,1.4,0.3,3.2,2.3,5.1c0,0,2.9,1.2,4.2,4.6c0,0,0.5,1.2,2.3,3.1c1.7,1.8,3.3,3.6,3.6,4.9c0,0,0.9,0.4,1.3,0.8c0,0,-0.5,0.1,-0.7,0.7c-0.3,0.5,-0.1,2.9,-0.3,3.2c-0.1,0.3,-1.1,1,-1.3,1.4c-0.2,0.4,-0.8,2.7,-2.4,2.3c0,0,-1.1,0,-1.3,-0.3c0,0,-1.2,0,-1.2,-1c0,0,0.1,-1.9,-0.1,-2.6c-0.2,-0.6,-0.6,-1.2,-1.3,-1.6c-0.7,-0.4,-1.2,-0.9,-2,-1.5c-0.8,-0.7,-1.4,-1.2,-1.8,-1.2c0,0,-3.6,1.9,-4.7,1.8c0,0,-3.2,3.5,-3.8,4.6c-0.6,1,-2,2.4,-1.5,4c0.6,1.6,0.8,1.6,0.8,1.6c0,0,0.3,0.3,0.2,0.8c-0.1,0.6,0.2,2,-0.7,1.6c0,0,-2.9,-2.8,-2.8,-4.2c0,0,2.9,-12.6,4.5,-13.6c0,0,-1.4,-1.8,-1.8,-2.4c0,0,-0.6,0,-1.4,-0.3c-0.7,-0.4,-1.8,0,-2.4,0c-0.6,0,-5.4,0.1,-5.4,1.3c0,0,0.4,3.1,-0.6,2.8c0,0,-2.8,-2.1,-2.1,-3.6c0,0,-0.1,-1.2,1.8,-1.6c1.9,-0.5,3.2,-1.5,3.8,-1.8c0.6,-0.3,2.1,-1.1,2.6,-1.1c0,0,-5.1,-6.7,-4.5,-8.6c0,0,-0.2,-0.2,-0.7,-0.3c0,0,-4.1,-0.7,-5.1,-1.4c0,0,-1.3,-0.5,-1.6,0.5c0,0,-1.2,2.5,-1.1,3.7c0.1,1.3,-0.1,2.9,-1.6,2c0,0,-0.8,-0.8,-0.1,-2.7c0,0,0.7,-4.3,1,-4.4c0,0,-1.1,0.1,-1.6,-0.1c0,0,-2,1.9,-1.6,3c0,0,1.6,1.8,0.8,2.5c0,0,-1,0.7,-1.8,-0.6c0,0,-2.1,-2.2,-1.2,-3.5l2.2,-3.7c0,0,0.7,-1.8,2.1,-1.2c0,0,2.9,-0.3,4,-1c1.2,-0.7,1.4,-1.7,2.2,-2.2c0.8,-0.6,2,-4.4,3.3,-4.3Z" class="g2_90" />
<path d="M686.8,874.3c0.1,-0.9,0,-1,0.2,-1.5c0.2,-0.4,0.4,-0.8,0.5,-0.7c0,-0.4,-0.1,-1,-0.1,-1.4c0,-0.8,0,-0.7,0.4,-1.4c0.3,-0.6,0.3,-0.8,0.6,-1.5c0.2,-0.8,0.3,-1,0.7,-1.7c0.3,-0.7,0.3,-0.8,0.6,-1.5c0.2,-0.7,0.6,-0.3,-0.2,1.1c0,0,0.8,-0.4,0.7,-2.6c0,0,0.5,-1.4,0.8,-2.6c0.4,-1.2,1.7,-3,2.1,-4.5c0.4,-1.5,0.8,-4.2,0.3,-5.1c-0.5,-0.9,-1.3,-1.6,-2.5,-2.4c-1.3,-0.7,-3.4,-1.5,-3.9,-1.6c-0.5,-0.2,-1.1,-0.4,-1.6,-0.7c-0.5,-0.3,-0.5,-0.6,-2.1,-0.7c-1.6,0,-6.8,-1.4,-9,-2.9c-2.2,-1.4,-3,-2.3,-3.9,-2.8c-0.9,-0.5,-2,-1.9,-2.7,-2.4c-0.8,-0.5,-2.4,-3.2,-3.3,-3.9c0,0,-0.2,-2,-0.8,-2c0,0,-0.2,0.8,-0.2,1.4c0,0,-1.2,-0.5,-1.9,-0.6c-0.7,-0.2,-1.6,0.1,-2.3,-0.1c-0.7,-0.3,-2.2,-1.8,-3.3,-1.6c-1.1,0.2,-1.9,0.8,-1.9,0.8c0,0,-6,-0.4,-3.4,-3c0,0,1,-1.1,1.4,-1.3c0.3,-0.2,0.2,-0.4,-0.9,0.3c-1.1,0.6,-5,2.7,-0.4,4.8c0,0,-0.4,0.2,-0.5,0.4c0,0,-0.3,1.8,2.2,2.3c0,0,0,0.3,0.4,0.5c0,0,-0.7,2,-0.7,2.9c0,0,-2,1.4,-0.4,3c0,0,-0.3,1.2,0.3,1.6c0.5,0.3,0.4,0.1,0.8,0.2c0,0,0.5,1.6,0.5,2.5c0.1,1,0.3,0.8,0.1,1.7c-0.2,0.9,-0.4,0.5,-0.2,1.6c0.2,1,0,1.4,0.4,2.4c0.3,0.9,0.7,1.7,0.7,2.4c0.1,0.7,0.4,1.4,1.6,1.5c1.2,0.2,-0.1,1,-0.3,1.5c-0.3,0.6,-0.1,0.9,-0.4,1.8c-0.4,1,-1.4,3.3,-2.3,3.8c0,0,-1.4,0.1,-1.2,0.9c0,0,1.1,1.4,2.6,0.6c1.6,-0.8,0.2,0,0.2,0c0,0,0.3,0.2,0.6,0.1c0.4,-0.1,0.7,-0.3,0.7,-0.3c0,0,0.1,0.2,0.7,0.3c0.5,0,1,0,1,-0.6c0,-0.7,-0.1,-2,0.6,-3.2c0.7,-1.1,1.9,-2.6,2.3,-3.9c0,-0.1,0,-0.1,0.1,-0.1c0.5,0,2.3,-0.1,3.2,-0.1c1,0,3.5,0.9,4.1,1c0.6,0.2,2.3,0.7,2.7,1c0,0,0,0.1,0,0.1c0.6,0,1.3,0.3,1.9,0.5c0.6,0.3,1.2,0.6,1.8,0.7c0.3,0,0.5,0.1,0.8,0.1c1.6,-0.3,4.1,-0.4,4.8,-0.3c0,0,0.1,0,0.1,0c0,0,0,0.1,0,0.1c0,0,1,0.5,0.7,1.6c-0.4,1.1,-1,3.4,-0.4,5.1c0,0,0,2.3,-1.1,3.7c0,0,-1.3,2.6,-2.2,3.1c-0.8,0.4,-1,0.3,-1.1,0.6c0,0.2,-0.9,0.1,-0.8,0.5c0,0,1.9,1.2,2.3,0.8c0,0,0.4,0.1,0.4,-0.2c0.7,0.5,2.3,1.5,2.8,0.5l0,-0.1l0.7,-0.4c0,0,0.4,0,0.4,-0.6c0,-0.5,1.8,-3.5,2.6,-4.5c0.8,-1,1,-1.5,1.2,-1.7c0.1,-0.2,0.3,-0.9,0.4,-1.6c0,-0.7,-0.4,-2,1,-2.9c1.4,-0.8,3.4,-3.2,4.1,-4.4c0.1,-0.1,0.1,-0.2,0.2,-0.3c0.5,-1,-2,4,-2.8,5.3c-0.5,0.8,-1.1,1.6,-1.7,2.3c0.3,-0.3,0.7,-0.6,1.1,-1c0.1,0,0.1,-0.1,0.2,-0.1c1.4,-1,-2.3,3.9,-2.5,4.4c-0.2,0.6,0.1,1.4,-0.2,1.9c-0.4,0.5,-0.8,1.2,-0.8,1.7c0,0.4,0.2,1,0,1.5c0,0,-0.1,0.1,-0.1,0.1c-0.5,0.4,0.4,0.6,0.6,0.1c0,0,0,-0.2,0.6,0.3c0,0,1.2,0.4,1.3,-0.6m-7.2,-1.6c0.3,-0.5,0.8,-1.2,1.2,-1.8c0,0,-0.4,1.1,-1.2,1.8Z" class="g2_90" />
<path d="M685.4,1083.1c-3.2,-2.5,-5.6,-8.6,-7.6,-12.7c-1.5,-3.1,-4.3,-10.7,-7.4,-8.2c-2.4,1.9,-2.4,8.2,-2.4,11.9c0.1,2.8,0.2,6.9,-2.1,7.4l-0.5,3.4l-0.2,-1.9l-0.4,0.1l0.3,-1.5c-1.5,-0.6,-5.2,-8.1,-4.9,-11.1c0.6,-5.6,3.2,-11.9,6.7,-14.7c4.6,-3.6,8.5,2.4,10.9,8.2c1.9,4.9,5.4,14.2,9.6,16.2c6.4,2.7,6.7,-9.2,7.6,-14.5c1,-6.3,2.3,-16.1,6.5,-19.1c5.5,-3.6,8,5.3,10.9,11.3c1,2.3,3.1,6.3,5.3,5.6c1.7,-0.6,1.8,-4.6,3.4,-6.1c1.1,-1.1,3.4,-2,4.9,-0.8c1.8,1.4,2,4.7,2.6,6.4l-0.1,-0.2c-0.3,-0.9,-0.7,-1.5,-1.1,-2.3c-2.3,-3.2,-4.2,-3,-6.1,0.3c-1.3,2.3,-1.8,4.7,-3.9,6.1c-5.8,3.9,-9,-17.7,-15.5,-13.9c-2.4,1.5,-3.3,9.3,-3.8,12.7c-0.8,5.1,-0.6,13.3,-3.6,16.6c-1.9,2.1,-6.2,3.2,-9.1,0.8Z" class="g2_90" />
<path d="M728.5,963.7c0.7,0.8,3,3.2,4.3,3.1l-0.3,0.1c0.2,2.5,2,3.2,4.1,2.9c1.5,-0.3,3,-0.6,4.5,-0.5c1.5,0.1,3.1,1.1,4.5,0.4c1.3,-0.6,1.7,-2,0.7,-2.9c-0.9,-0.8,-2.1,-0.6,-3,-1l-0.4,-0.1c1.1,0.2,2.6,-0.2,3.6,-0.4c0.5,-0.1,0.9,-0.4,1.2,-0.8l-0.4,0.6c-0.1,0.3,0.3,1.3,0.5,1.7c0.5,1,1.5,2.4,2.6,2.8c0.8,0.3,2.4,0.4,3.1,-0.3c1.2,-1.3,-0.4,-2,-0.9,-2.9c-0.1,-0.2,-0.1,-0.3,-0.2,-0.5c0.6,-0.2,1.7,0,1.7,-0.8C754,964.4,753.3,964.5,753,964c-0.5,-0.9,-0.2,-2.6,0,-3.6c0.9,-0.3,1.7,-1.1,2.4,-1.6c0.7,-0.6,1.5,-1.4,2,-2.2c0.9,-1.7,0,-4.1,-1,-5.5c1.7,-0.8,2.6,-3.9,1.7,-5.5c-0.2,-0.5,-0.6,-0.8,-0.8,-1.3c-0.1,-0.3,-0.2,-0.8,-0.2,-1.2c0,-0.4,0,-0.9,-0.2,-1.2c-0.3,-0.7,-0.8,-0.7,-0.6,-1.5c0.2,-0.7,0.5,-1.3,0.9,-1.8c0.7,-1.2,1.7,-2.3,2.1,-3.6c0.4,-1.3,0.5,-2.7,0.8,-4.1c0.1,-0.7,0.9,-2.9,0.2,-3.4c-1.1,-0.8,-4.5,3.3,-5.1,4.1c-1.6,2.2,-2.6,4.6,-3.1,7.3c0,0,-0.3,-0.1,-0.3,-0.1c0.1,-2.5,-0.3,-4.9,-1.9,-6.9c-0.7,-0.9,-5.7,-6.8,-5.7,-3c0,1.2,-0.3,2.2,-0.4,3.4c0,1.5,0.5,3,1,4.3c0.4,1.3,0.9,2.4,1.3,3.6c0.3,1,0.9,2.2,0.5,3.2c0,0.1,-0.1,0.4,-0.2,0.6c-1.3,-0.7,-5.4,-1.1,-8.3,0c-2.8,1.2,-5.4,3.1,-7.2,5.7c-1,1.5,-1.6,3.5,-1.8,5.3c-0.3,1.5,0.3,3.6,-0.2,5c-0.5,-1.1,-1.3,0.8,-1.3,1.3c0,0.9,0.3,1.7,0.9,2.4Z" class="g2_90" />
<path d="M555.9,1056c0.8,-0.1,2.3,-0.2,3.5,0.4c-1,0.4,-1.5,1.1,-1.4,2c0.1,1,0.6,1.4,1,1.6c0.7,0.4,1.7,0.1,2.3,-0.2c1.5,-0.7,2.8,-0.4,3.7,0.1c0.3,0.1,0.6,0.3,1,0.6c1.2,1.1,1.6,2.5,1.1,4.1c-0.4,1.1,-1.6,2.1,-2.8,2.1c-1.2,0.1,-2.1,-0.4,-2.7,-1.5c-0.5,-0.8,-0.4,-1.7,0.1,-2.5c0.4,-0.6,0.9,-0.9,1.5,-1c0.2,0,0.4,-0.2,0.3,-0.5c0,-0.1,-0.1,-0.3,-0.2,-0.3c-0.1,-0.1,-0.1,-0.1,-0.2,-0.1c-1.3,0.1,-2.2,0.7,-2.8,1.9c-0.6,1.3,-0.5,2.7,0.3,4c0.5,0.6,1.1,1.2,1.8,1.5c1.7,0.8,3.6,0.6,5.2,-0.5c1.3,-1,2.2,-2.4,2.4,-4c0.2,-1.8,-0.3,-3.5,-1.5,-5c-0.6,-0.9,-1.5,-1.6,-2.5,-2.1c-0.7,-0.3,-1.4,-0.6,-2.2,-0.7c0.5,-0.5,1.1,-1,1.7,-1.3c1.5,-0.7,3.2,-0.7,4.6,0.1c3.5,1.7,3.4,5.7,3.4,5.7c0,0,3.3,-3.4,7.3,-1.4c1.5,0.7,2.6,2.1,2.9,3.8l0.2,1l1,-0.1c1.1,-0.2,2.3,0,3.3,0.5c2.8,1.4,3.9,4.8,2.6,7.6c-0.3,0.4,-0.5,0.8,-0.8,1.2l-0.6,0.6l0.5,0.7c0.6,0.8,0.9,1.8,0.9,2.7c1.1,1.3,2.4,3,2.2,4.4c-0.1,0.6,-0.5,1.1,-1.1,1.4c-0.4,0.2,-0.7,0.3,-1,0.2c-0.9,-0.1,-1.3,-1.3,-1.6,-2.5c-0.8,0.7,-1.9,1.1,-2.9,1.2c-0.8,1.6,-2.8,2.2,-4.4,1.4c0,0,-0.1,0,-0.1,-0.1c-0.8,1.6,-2.4,2.5,-4.1,2.3l-4.6,9.3c-0.5,0.9,-1.6,1.3,-2.5,0.9c-0.9,-0.5,-1.2,-1.6,-0.8,-2.5l3.7,-7.5c-1.2,0.5,-2.7,0.4,-4,-0.2c-1.1,-0.6,-1.9,-1.5,-2.4,-2.7L567,1082l-0.8,-0.1c-0.8,0,-1.5,-0.2,-2.2,-0.5c-1.5,-0.7,-2.5,-2.1,-2.9,-3.6l-4.3,8.7c-0.5,0.9,-1.6,1.3,-2.5,0.8c-0.9,-0.4,-1.2,-1.5,-0.8,-2.4l5.2,-10.6c-0.1,0,-0.3,-0.1,-0.4,-0.1c-2,-1,-3.1,-3.1,-2.8,-5.3c0.1,-0.5,0.3,-1.3,0.3,-1.3l0,-0.3l-0.2,0.1c-0.1,0,-5.2,0.6,-8,-0.8c-0.4,-0.2,-0.7,-0.4,-1,-0.6c-0.3,-0.3,-0.4,-0.7,-0.4,-1.3c0.6,-4.5,5.5,-8,9.7,-8.7Z" class="g2_90" />
<text 
x="539" 
y="980" 
dx="0,0" 
class="s12_90"
>生肖</text>

<text 
x="564" 
y="912" 
dx="0,0.2,0.2,0.2,0.2,0.2" 
class="s13_90"
>shēng </text>

<text 
x="649" 
y="912" 
dx="0,0.2,0.2,0.2" 
class="s13_90"
>xiào</text>

<text 
x="560" 
y="1021" 
dx="0,0,0,0,0,0,0,0,0,0,0,0,0,0" 
class="s5_90"
>Chinese zodiac</text>

<path d="M322.7,863.4l83,0c8.5,0,15.4,7.7,15.4,17.3l0,40.2l42.3,0" class="g12_90" />
<path d="M322.7,868c2.6,0,4.6,-2.1,4.6,-4.6c0,-2.6,-2,-4.6,-4.6,-4.6c-2.5,0,-4.5,2,-4.5,4.6c0,2.5,2,4.6,4.5,4.6Z" class="g2_90" />
<path d="M97.4,906.9l0.3,171c0,10.2,8.2,18.4,18.3,18.4l342.9,0" class="g12_90" />
<path d="M458.9,1100.9c2.5,0,4.5,-2.1,4.5,-4.6c0,-2.6,-2,-4.6,-4.5,-4.6c-2.6,0,-4.6,2,-4.6,4.6c0,2.5,2,4.6,4.6,4.6Z" class="g2_90" />
<path d="M172.3,658.6l0,29.9" class="g13_90" />
<path d="M202.8,704.5l0,30" class="g13_90" />
<path d="M173.8,748.8l0,30" class="g13_90" />
<path d="M229.3,658.6l0,29.9" class="g13_90" />
<path d="M333.5,658.6l0,29.9" class="g13_90" />
<path d="M307.6,704.5l0,30" class="g13_90" />
<path d="M261.7,748.8l0,30" class="g13_90" />
<path d="M365.6,704.5l0,30" class="g13_90" />
<path d="M318.3,748.8l0,30" class="g13_90" />


<!-- Any embedded fonts defined here -->
<style type="text/css" ><![CDATA[

@font-face {
	font-family: ProximaNova-Extrabld_cst;
	src: url("fonts/ProximaNova-Extrabld_cst.woff") format("woff");
}

@font-face {
	font-family: ProximaNova-Bold_cs-;
	src: url("fonts/ProximaNova-Bold_cs-.woff") format("woff");
}

@font-face {
	font-family: Alegreya-Bold_csx;
	src: url("fonts/Alegreya-Bold_csx.woff") format("woff");
}

@font-face {
	font-family: Alegreya-Regular_csr;
	src: url("fonts/Alegreya-Regular_csr.woff") format("woff");
}

@font-face {
	font-family: ProximaNova-Semibold_b3m;
	src: url("fonts/ProximaNova-Semibold_b3m.woff") format("woff");
}

@font-face {
	font-family: STKaitiSC-Regular_cof;
	src: url("fonts/STKaitiSC-Regular_cof.woff") format("woff");
}

]]></style>

</svg>
