<?xml version="1.0" encoding="UTF-8" standalone="no"?>
<!DOCTYPE svg PUBLIC "-//W3C//DTD SVG 1.1//EN"
"http://www.w3.org/Graphics/SVG/1.1/DTD/svg11.dtd">


<!-- Page 197 -->
<svg x="0" y="0" width="921" height="1196" viewBox="0 0 921 1196" version="1.1" xmlns="http://www.w3.org/2000/svg" xmlns:xlink="http://www.w3.org/1999/xlink"
style="display: block;margin-left: auto;margin-right: auto;">
<defs>
<clipPath id="c0_197"><path d="M303.6,441.9c-0.3,0,-0.5,0,-0.7,0c-2.1,-0.2,-5,-1.2,-6.4,-2c-0.8,-0.5,-1.6,-1.1,-2.3,-1.7c-0.3,-0.3,-0.7,-0.6,-0.7,-0.6c0,0,0.1,0.1,0.2,0.1c0.3,0.2,1.1,0.7,1.8,1.1c1.2,0.6,2.6,1.2,4.3,1.4c0.7,0.1,1.4,0.1,2.2,0.1c0.5,0,1,0,1.4,0c1.5,-0.2,3,-0.8,4.4,-1.7c0.4,-0.3,1.2,-0.8,2,-1.8c0.7,-0.8,1.1,-1.6,1.4,-2.2c0.3,-0.8,0.3,-1.5,0.3,-2.2c-0.1,-0.6,-0.1,-1.1,-0.3,-1.6c-0.2,-0.7,-0.7,-1.5,-1,-2c-0.3,-0.3,-0.5,-0.6,-0.6,-0.6c-0.1,-0.1,-2,-1.3,-3.8,-2.7c-0.7,-0.5,-1.3,-1,-1.9,-1.5c-0.2,-0.3,-0.5,-0.5,-0.7,-0.8c-1.1,-1.4,-1.9,-3,-2.1,-3.5c-0.8,-2.4,-0.6,-3.9,-0.2,-5.7c0.2,-1.2,1,-2.9,1.8,-4.3c0.7,-1.2,1.4,-2,1.6,-2.4c0.6,-0.8,3.2,-3.6,4.2,-6.1c0.4,-1,0.6,-1.8,0.6,-2.4c0.1,-0.9,-0.1,-1.5,-0.2,-2.2c-0.3,-1.3,-1.9,-2.2,-2.7,-2.6c-0.9,-0.4,-3.3,-1.3,-4.2,-1.7c-1,-0.4,-1.9,-1.3,-2.3,-1.7c-0.4,-0.4,-2,-1.7,-2.9,-3.9c-1,-2.3,-0.8,-4.5,-0.4,-6.5c0.2,-1.3,0.8,-2.9,1.3,-4.5c0.4,-1.1,0.8,-2.1,1.1,-3.1c0.8,-2.3,1.2,-4,1.2,-4.1c0,-0.2,-0.6,-0.4,-1.3,-0.7c-0.8,-0.4,-1.3,-0.6,-1.5,-1.2c-0.2,-0.6,1.1,-2.1,1.8,-3.1c0.7,-0.9,0.9,-2.5,0.9,-2.6c0,0,-0.1,0,-0.2,0c-0.5,0,-2.9,0.3,-3.6,0.6c-0.8,0.3,-1.2,0.4,-4.2,1.5c-3.1,1.2,-7.3,2.7,-8.2,3.1c-0.8,0.3,-1.9,1.2,-3.7,1.9c-1.7,0.7,-2.9,0.5,-3.2,0.6c-0.3,0.1,-17.9,6.6,-18.3,6.9c-0.6,0.7,-0.9,1,-1.4,1.3c-0.7,0.3,-2.2,1.1,-3.6,1.5c-0.5,0.2,-0.9,0.3,-1.2,0.3c-0.3,0,-0.5,-0.1,-0.6,-0.2c-0.2,-0.1,-0.2,-0.2,-0.3,-0.2c-0.5,0,-0.7,0.2,-1.2,0.3c-0.7,0.1,-1.2,0.1,-1.4,0.1c-0.1,0,-0.1,0.4,-0.1,0.4c0,0,0.1,0.1,-0.8,0.1c0,0,-0.1,0,-0.2,0c-1,0,-2,-0.5,-2.3,-1c-0.2,-0.5,0.1,-1,0.1,-1.4c-0.1,-0.3,-0.5,-1.1,-0.6,-1.2c0,0,-0.1,0,-0.1,0c0,0,-0.1,0,-0.1,0c-0.1,0.1,-0.2,0.1,-0.4,0.1l-0.1,0c-0.4,0,-0.8,-0.7,-0.9,-1.6c-0.1,-0.9,0,-1.1,0.3,-1.5c0.2,-0.4,1.1,-0.8,1.2,-1.3c0.1,-0.7,0.1,-1.7,0.1,-2.6c0,-0.3,-1,-0.5,-1.4,-0.9c-0.5,-0.3,-0.8,-1.8,-0.6,-3.9c0.3,-2,1.8,-5.1,2,-5.4c0.2,-0.2,0.4,-0.5,0.4,-0.6c0.1,-0.2,0.1,-0.6,0.1,-0.8c-0.1,-0.3,-0.2,-0.2,-0.7,-1.3c-0.6,-1.1,-0.7,-2,-0.8,-3.9c-0.1,-1.9,1.6,-4.8,1.8,-5.2c0.2,-0.3,0.3,-0.6,0.2,-1.1c-0.1,-0.2,-0.2,-0.4,-0.7,-1.4c-0.6,-1,-0.8,-2.3,-0.6,-3.5c0.1,-1.1,1.1,-1.9,1.4,-2.4c0.3,-0.5,0.3,-1.8,0.3,-2.6c0,-0.7,-0.6,-2.3,-1.1,-4.5c-0.6,-2.2,0,-4.6,0.6,-5.8c0.7,-1.3,0.7,-1,0.7,-1.7c0.1,-0.6,-1.6,-6.4,-2.3,-7.4c-0.8,-0.9,-2.8,-1.3,-3.4,-1.5c-0.6,-0.3,-0.7,-0.3,-0.6,-0.5c0,-0.1,0.2,-0.6,0.3,-1.2c0,-0.2,0,-0.5,0,-0.7c-0.2,-0.8,-1.7,-1.6,-2.6,-2.5c-0.9,-0.9,-1.2,-3.5,-1.3,-3.7c-0.1,-0.3,-3.2,-4,-3.6,-4.5c-0.4,-0.5,-1.9,-1.1,-2.8,-2.2c-0.3,-0.4,-0.4,-0.7,-0.5,-0.9c-0.1,-0.5,0.1,-0.9,0,-1.1c-0.2,-0.3,-3.2,-4.1,-3.4,-4.2C226,293,225,292.6,224.5,291.9c-0.5,-0.8,-0.9,-2,-1.1,-2.4c-0.2,-0.4,-2,-2.6,-2.2,-2.7c-0.5,-0.2,-1.5,-0.6,-2.6,-1.6c-0.4,-0.4,-1,-0.9,-1.4,-1.5c-0.8,-0.9,-1.3,-1.9,-1.4,-2.1c-0.2,-0.6,-0.1,-1.5,-0.1,-1.7c-0.1,-0.2,-1.5,-1.9,-1.6,-1.9c-0.1,0,0,0.7,-0.4,1c-0.1,0.1,-0.2,0.2,-0.3,0.2c-0.3,0,-0.4,-0.3,-0.5,-0.3c0,-0.1,0,-0.7,-0.1,-1.1c-0.1,-0.2,-0.1,-0.4,-0.2,-0.5c-0.2,-0.2,-0.4,-0.2,-0.6,-0.2c-0.1,0,-0.1,0,-0.1,0c-0.1,0,-0.1,0,-0.1,0c-0.2,0,-0.3,0,-0.5,-0.1c-0.3,-0.2,-0.4,-0.7,-0.2,-1.2c0.1,-0.5,0.8,-1.7,0.7,-2c-0.1,-0.1,-0.5,0,-1,-0.1c-0.4,-0.2,-0.8,-0.6,-1,-0.8c-0.2,-0.6,0.5,-1.2,0.7,-1.3c0.6,-0.1,1.9,-0.1,2.3,-0.9c0.3,-0.8,-0.4,-0.9,-0.7,-1.3c-0.4,-0.5,0.1,-0.9,0.4,-0.9c0.4,0,1,-0.5,1.7,-1c0.5,-0.4,1.8,-1.3,3,-1.4c0.1,0,0.2,0,0.3,0c0.3,0,0.6,0,0.8,0.1c0.9,0.3,1.6,0.9,2,1.2c0.1,0.1,0.2,0.3,0.3,0.3c0.1,0,0.1,0.1,0.1,0.1c0.1,0,0.3,-0.1,0.3,-0.1c0,0,4,-1.1,4.3,-1.2c0.2,-0.1,0.6,-0.8,1.6,-1.4c0.1,-0.1,0.9,-0.5,1.5,-0.7c0.9,-0.4,1.9,-0.6,2.3,-0.7c0.7,-0.2,3.7,-0.9,4.3,-1.2c0.5,-0.3,1.4,-0.9,2.8,-0.9c0,0,0.1,0,0.1,0c0.8,0,1.6,0.8,1.8,0.9c0.3,0,1.4,-0.4,1.6,-0.4c0.2,-0.2,0.3,-1.2,0.8,-1.8c0.3,-0.6,0.9,-1.1,2.7,-1.1c0.1,0,0.1,0,0.2,0c2,0.1,2.6,0.5,2.8,0.7c0.2,0.1,0.4,0.2,0.6,0.2c0.2,0,0.4,-0.1,0.7,-0.2c0.5,-0.2,0.7,-0.8,0.9,-1.2c0.3,-0.4,0.6,-0.7,1.5,-1.2c0.8,-0.4,4,-1.5,5.6,-1.7c1.6,-0.2,3.1,-0.5,4.8,-1c1.8,-0.5,3.6,-0.7,4.1,-0.7c0.7,-0.2,2.7,-1.9,2.9,-2.2c0.2,-0.2,0.1,-0.2,0.1,-0.7c0,-0.5,0.1,-0.5,0.5,-0.7c0.4,-0.2,1,-0.7,1.1,-1c0.2,-0.6,0,-1,-0.1,-1.3c-0.1,-0.4,0.1,-1.3,1.3,-2.1c1.2,-0.8,2.1,-0.5,2.3,-0.6c0.1,-0.1,1.3,-1.6,1.4,-2.1c0.1,-0.5,0,-2.2,0.3,-3.1c0.4,-0.8,2.5,-4.4,3.3,-5.6c0.8,-1.2,1.5,-1.8,2.8,-2.5c1.2,-0.7,1.5,-1.3,1.6,-2.5c0.1,-1.2,0.1,-1.8,1,-2.8c0.9,-1.1,2.2,-1.6,3.2,-2.6c1,-1,1,-2.6,1.6,-4.7c0.2,-1.1,0.6,-1.7,1.1,-2.3c0.4,-0.5,1,-0.9,1.6,-1.4c1.3,-0.8,2.9,-2.1,3.4,-3c0.4,-0.9,1.3,-3.9,1.7,-4.8c0.3,-0.8,2.2,-3.8,5.7,-3.9c0.1,0,0.1,0,0.2,0c1.4,0,2.6,0.5,3.3,1c0.9,0.8,1.1,1.6,1.2,2.2c0.2,0.6,0.3,2,0.6,3.1c0.3,0.8,0.6,1.4,0.9,1.8c0.3,0.4,0.7,0.7,1.3,1.2c0.4,0.3,1,0.6,1.4,0.9c0.9,0.6,1.5,1.2,2.1,2.2c1.3,2.5,1.2,5.9,1.3,6.4c0.1,0.3,4,6.2,4.3,6.6c0.3,0.2,0.3,0,1.7,0.5c1.5,0.6,2.8,1.5,3.2,2.8c0.4,1.4,0,3.6,0.1,4.1c0,0.1,1.4,2.5,1.7,2.6c0.3,0.1,1,0.1,1.4,0.6c0.4,0.5,1.8,2.7,2.5,3.9c0.8,1.2,2.1,2.1,2.4,3c0.3,0.9,0,1.7,0.1,2.1c0.1,0.4,2.5,2.8,2.9,2.9c0.1,0,0.1,0,0.1,0c0.1,0,0.3,-0.1,0.3,-0.2c0.1,-0.1,0,-0.3,0.1,-0.4c0.1,0,0.2,0,0.4,0c0.3,0,0.7,0,1,0.2c0.5,0.3,0.8,1.3,1.5,1.9c0.4,0.2,0.8,0.3,1.3,0.3c0.2,0,0.4,-0.1,0.6,-0.1c0.2,0,0.4,0,0.6,0c0.2,0,0.3,0,0.4,0c0.8,0.2,1.1,0.7,1.8,1.2c0.7,0.5,1.5,0.3,3,0.5c1.3,0.2,1.4,0.8,1.5,1.4c0.2,0.6,0.4,1.1,1,1.4c0.3,0.1,0.5,0.1,0.6,0.1c0.2,0,0.3,0,0.5,-0.1c0.4,-0.2,1.4,-1.3,2.6,-1.7c0.3,-0.1,0.5,-0.1,0.7,-0.1c1,0,2,0.6,2.3,1.5c0.4,1.1,0.2,2.1,0.3,2.2c0.1,0,5.6,1.6,5.8,1.6c0.2,-0.1,0.8,-0.4,2.3,-0.5c0.2,0,0.3,0,0.5,0c1.3,0,2.7,0.5,3.3,1c0.8,0.5,1.7,1.5,2,1.7c0.3,0.1,2.1,0.7,2.3,0.7c0.1,0,0.3,0,0.5,0c0.1,0,0.2,0,0.4,0c0.1,0,0.3,0,0.5,0c0.5,0,1.1,0,1.6,0.2c1.1,0.3,2.5,1,3,1.2c0.3,0.1,1.1,0.2,1.9,0.3c0.7,0,1.4,0,2,0c0.1,0,0.2,0,0.3,0c1.3,0,2.6,0.1,3.7,0.8c1,0.6,1.2,1.1,1.2,1.4c0,0.2,0.1,0.3,0.3,0.3c1.8,0.5,3,1.5,3,1.5c0.8,0.7,1.9,1.4,2,2.7c0.1,0.9,-0.6,1.4,-0.8,1.7c-0.1,0.2,-0.2,0.5,-0.8,1.5c-0.6,1.1,-2.8,3.6,-2.9,3.9c-0.1,0.1,-0.1,0.6,-0.3,1.1c-0.2,0.5,-0.6,1.1,-0.8,1.3c-1.1,1.1,-1.4,0.6,-1.5,0.8c-0.2,0.2,-4.1,5.2,-4.5,5.7c-0.4,0.5,-0.1,0.4,-0.6,1.1c-0.4,0.7,-1.4,1.5,-1.7,1.9c-0.4,0.3,-4.2,5.1,-4.2,5.1c0,0,-0.9,2.6,-1.9,4c-1.1,1.3,-2.3,1.5,-2.4,1.6c-0.2,0.1,-0.8,0.9,-2.6,3.1c-1.3,1.7,-4,4.9,-5.8,7.3c-0.5,0.8,-1,1.5,-1.3,2c-1.2,2,-2.2,5.1,-2.5,6.4c-0.1,0.5,0.2,0.9,0.4,1.7c0.3,1.3,0.8,2.7,0.8,4.7c0.1,3.5,-1.5,4.6,-1.6,4.8c-0.1,0.2,0.2,4.1,0.2,4.3c0,0.2,1.4,1.6,1.4,4.1c0,2.6,-1,4.3,-1,4.4c0,0.2,0,2.4,0.1,2.8c0.2,0.4,1,1.7,1,4.1c0,2.4,-0.6,4.8,-0.6,5.2c0,0.4,0.1,4.2,0.1,4.9c0.1,0.8,0.2,0.7,0.5,1.5c0.3,0.9,1.3,2.2,1.5,4.9c0.2,2.8,-1.4,3.5,-1.4,3.6c-0.1,0.7,-0.1,2.4,-0.1,2.4c0,0.5,-0.1,1.2,-0.7,2.1c-0.6,0.8,-1,1.2,-1.3,1.5c-0.1,0,-0.2,0.1,-0.3,0.1c-0.2,0,-0.4,-0.2,-0.5,-0.3c-0.1,0,-0.1,0,-0.1,0c-0.1,0,-0.8,0.1,-1.4,0.1c-0.1,0,-0.1,0,-0.1,0c-0.8,0,-1.3,-0.1,-1.5,-0.1c-0.1,0,-0.2,0,-0.4,0.1c-0.2,0.1,-0.5,0.2,-1,0.2c-0.1,0,-0.2,0,-0.3,0c-1.2,-0.1,-2.8,-0.6,-3.6,-1.1c-0.8,-0.6,-0.8,-1.3,-1.1,-1.5c-0.2,-0.2,-2.1,-0.9,-3.2,-1.1c-1,-0.3,-4,-0.5,-6.1,-0.9c-2.1,-0.4,-3.6,-1.5,-5.2,-2.3c-1.6,-0.8,-2.6,-0.9,-3.3,-0.9c-0.4,0,-0.6,0,-0.7,0c-0.1,0,-0.1,0,-0.2,-0.1c-0.1,-0.1,-0.1,-0.5,-0.3,-0.9c-0.2,-0.6,-0.4,-1.1,-0.6,-1.3c-0.2,-0.1,-4.3,-1.6,-5.1,-1.8c-0.5,-0.1,-1.2,-0.1,-2.2,-0.3c-0.6,-0.1,-1.6,-0.4,-2,-0.6c-1.2,-0.4,-3.1,-1.6,-4.9,-2.4c-1.3,-0.6,-2.7,-0.7,-3.4,-0.7c-0.1,0,-0.2,0,-0.3,0c-0.1,0,-0.2,-0.2,-0.2,-0.3c0,-0.3,0,-0.6,-0.1,-0.6c-0.1,-0.1,-0.6,-0.2,-1.3,-0.4c-0.5,-0.2,-1.1,-0.3,-1.8,-0.5c-1,-0.1,-1.8,-0.2,-2.3,-0.2c-0.3,0,-0.5,0.1,-0.5,0.1c0.5,1.6,1.1,3.6,1.2,6c0.1,1.1,0,1.7,-0.3,2.1c-0.2,0.6,-0.7,0.9,-1,1c-0.1,0,-0.2,0,-0.3,0c-0.2,0,-0.4,0,-0.5,-0.1c-0.2,0,-0.4,-0.1,-0.4,-0.1c-0.1,0,-0.1,0,-0.1,0c0,0.1,-0.2,1.1,-0.5,2.3c-0.4,1.4,-1,3,-1.9,5.5c-1.5,4.8,-1.6,7.2,-1.3,8.7c0.3,1.5,1,3.7,1.9,4.5c0.7,0.5,1.7,0.8,3.3,1.5c0.8,0.3,1.9,0.8,3,1.4c1.5,0.8,2.5,1.8,3.2,2.8c0.7,1,1,2.1,1.2,3.4c0.2,2.5,-1.6,5,-3.8,7.9c-1.7,2.1,-2.8,4,-3.6,6.1c-0.3,0.7,-0.6,1.6,-0.8,2.4c-0.3,1.6,-0.2,2.9,0.1,4c0.2,1.1,0.7,1.9,0.9,2.4c0.3,0.6,0.6,1.2,1.2,1.8c0.3,0.3,0.8,0.6,1.3,1c0.8,0.6,1.5,0.9,2.6,1.7c0.4,0.3,0.8,0.7,1.2,1.1c0.5,0.4,1,0.8,1.4,1.3c2.7,2.6,2.8,4.2,2.3,5.8c-0.5,1.7,-2.6,3.9,-4.7,5c-1.9,1,-3.5,1.5,-5.3,1.5Z" /></clipPath>
<clipPath id="c1_197"><path d="M569,754.7c-14.2,0,-25.7,-11.5,-25.7,-25.7l0,-220.9l220.8,0c14.2,0,25.8,11.5,25.8,25.7l0,220.9Z" /></clipPath>

<style type="text/css"><![CDATA[

.g1_197{
fill: none;
stroke: #3986C6;
stroke-width: 1.6194444;
stroke-linecap: butt;
stroke-linejoin: miter;
stroke-miterlimit: 4;
}
.g2_197{
fill: #3986C6;
}
.g3_197{
fill: #ACBF3B;
}
.g4_197{
fill: #ABE0F9;
}
.g5_197{
fill: #ECC462;
}
.g6_197{
fill: none;
stroke: #FEF0BD;
stroke-width: 1.6270834;
stroke-linecap: round;
stroke-linejoin: round;
}
.g7_197{
fill: #F3BA0E;
}
.g8_197{
fill: none;
stroke: #ACBF3B;
stroke-width: 2.2916667;
stroke-linecap: butt;
stroke-linejoin: miter;
stroke-miterlimit: 4;
}

.s1_197{
font-size: 12.99px;
font-family: ProximaNova-Semibold_cqy;
fill: #231F20;
}
.s2_197{
font-size: 18.33px;
font-family: ProximaNova-Bold_c-5;
fill: #231F20;
}
.s3_197{
font-size: 18.33px;
font-family: ProximaNova-Bold_c-5;
fill: #3986C6;
}
.s4_197{
font-size: 19.10px;
font-family: Alegreya-Regular_c-8;
fill: #231F20;
}
.s5_197{
font-size: 18.33px;
font-family: ProximaNova-Extrabld_c-a;
fill: #FFFFFF;
}
.s6_197{
font-size: 28.02px;
font-family: STHupo_bnx;
fill: #4D5DA1;
}
.s7_197{
font-size: 22.06px;
font-family: STYuanti-SC-Bold_bn_;
fill: #FFFFFF;
}
.s8_197{
font-size: 19.10px;
font-family: Alegreya-Bold_c-c;
fill: #3986C6;
}

]]></style>

</defs>
<path d="M0,0
L0,1196
L921,1196
L921,0 Z " 
fill="#FFFFFF" stroke="none" />
<text 
transform="matrix(0, -1, 1, 0, 54, 1084)"
dx="0,0,0,0,0,0,0,0,0,0,0,0,0,0,0,0,0,0,0" 
class="s1_197"
>Go Far with Chinese</text>

<text 
x="34" 
y="1149" 
dx="0,0,0" 
class="s2_197"
>174</text>

<path d="M50.4,1089.3l0,38.7" class="g1_197" />
<path d="M50.4,1125.4c-1.4,0,-2.5,1.1,-2.5,2.6c0,1.4,1.1,2.6,2.5,2.6c1.5,0,2.6,-1.2,2.6,-2.6c0,-1.5,-1.1,-2.6,-2.6,-2.6Z" class="g2_197" />
<text 
x="110" 
y="101" 
dx="0,-0.4,0,0,0,0,0,0,0" 
class="s3_197"
>Passage 2</text>

<text 
x="205" 
y="101" 
dx="0,-0.2,0,0,0,0,-0.3,0,0,-1.5,-0.4,0,-0.3,0,0,0,0,0,0,0,0,0,0,0,0,0,0,0,0,0,0,0,0,0,-0.3,0,-0.2,0,0,0,0,0,0,0,0,0,0,0,0,0,-0.2,0,0,0,0,-0.3,0,0,0,-0.3,0,0,0,0,0,0,0,0,0,0,0,0,0,0,0,0,0,0,0,0,0" 
class="s4_197"
>This year, your class plans to decorate the classroom for your Chinese teacher’s </text>

<text 
x="110" 
y="127" 
dx="0,0,0,0,0,0,0,-0.4,-1.3,-0.4,0,-0.2,0,0,0,0,0,0,0,-0.3,0,-0.2,0,0,0,0,0,0,-0.3,0,0,0,0,0,0,0,0,0,0,0,0,0,0,0,0,0,0,0,0,-0.2,0,0,0,0,0,0,0,0" 
class="s4_197"
>birthday. Which decoration would be the most appropriate? </text>

<text 
x="109" 
y="163" 
dx="0,-0.2,0,0,0,0,0,0,0,0,0,0,-0.3,0,0,0,0,0,0,0,0,0,0,0,0,0,0,0,0,0,-0.3,0,-0.2,0,0,0,0,0,0,0,0,0,-0.3,0,0,0,0,0,0,0,0,0,0,0,-0.4,0,0,0,-0.8,0,0,0" 
class="s4_197"
>Bonus: Can you guess which decoration is for Chinese New Year?</text>

<path d="M302.6,477.4c0,0,-9.1,0,-9.1,-9.1l0,-15.2l16,0c0,0,9.2,0,9.2,9.2l0,15.1Z" class="g3_197" />
<text 
x="299" 
y="472" 
dx="0" 
class="s5_197"
>´</text>

<path d="M663.5,477.4c0,0,-9.2,0,-9.2,-9.1l0,-15.2l16.1,0c0,0,9.1,0,9.1,9.2l0,15.1Z" class="g3_197" />
<text 
x="660" 
y="472" 
dx="0" 
class="s5_197"
>B</text>

<path d="M302.6,788.2c0,0,-9.1,0,-9.1,-9.2l0,-15.1l16,0c0,0,9.2,0,9.2,9.2l0,15.1Z" class="g3_197" />
<text 
x="299" 
y="783" 
dx="0" 
class="s5_197"
>C</text>

<path d="M663.1,788.2c0,0,-9.1,0,-9.1,-9.2l0,-15.1l16,0c0,0,9.2,0,9.2,9.2l0,15.1Z" class="g3_197" />
<text 
x="659" 
y="783" 
dx="0" 
class="s5_197"
>D</text>

<path d="M145.5,198.1l0,223.3c0,14.2,11.5,25.7,25.7,25.7l295.5,0l0,-223.3c0,-14.2,-11.5,-25.7,-25.7,-25.7Z" class="g4_197" />
<g clip-path="url(#c0_197)">
<path d="M299.8,361c0,0,-0.1,1.6,-0.8,2.5c-0.7,1,-2.1,2.5,-1.9,3.1c0.2,0.6,0.8,0.8,1.6,1.2c0.7,0.3,1.3,0.6,1.3,0.6c0,0,-0.4,1.9,-1.2,4.2c-0.9,2.3,-2,5.5,-2.4,7.6c-0.4,2,-0.6,4.2,0.4,6.5c0.9,2.2,2.5,3.5,2.9,3.9c0.4,0.4,1.3,1.3,2.2,1.7c1,0.4,3.4,1.3,4.3,1.7c0.8,0.4,2.4,1.3,2.7,2.6c0.2,1.1,0.5,2,-0.5,4.6c-1,2.5,-3.5,5.3,-4.1,6.1c-0.2,0.3,-0.9,1.2,-1.6,2.4c-0.9,1.4,-1.6,3.1,-1.8,4.2c-0.3,1.8,-0.6,3.4,0.2,5.8c0.2,0.5,1,2.2,2.1,3.6c0.7,0.8,1.7,1.5,2.6,2.2c1.8,1.4,3.7,2.6,3.8,2.7c0.2,0.1,1.2,1.2,1.6,2.5c0.2,1,0.6,2.4,0,3.9c-0.3,0.6,-0.7,1.4,-1.4,2.2c-0.8,0.9,-1.7,1.5,-2.1,1.8c-1.3,1,-2.7,1.5,-4.3,1.6c-1,0.2,-2.4,0.2,-3.6,0c-1.7,-0.2,-3.1,-0.8,-4.3,-1.4c-0.7,-0.4,-1.6,-1,-1.9,-1.2c-0.5,-0.3,0.1,0.2,0.6,0.6c0.6,0.6,1.5,1.2,2.3,1.7c1.4,0.8,4.3,1.8,6.4,2c2,0.1,3.9,-0.4,6,-1.5c2.1,-1.1,4.2,-3.3,4.7,-5c0.5,-1.6,0.5,-3.2,-2.2,-5.8c-1.1,-1,-2,-1.8,-2.7,-2.4c-1.1,-0.8,-1.8,-1.1,-2.6,-1.7c-0.5,-0.4,-0.9,-0.7,-1.2,-1c-0.6,-0.6,-1,-1.2,-1.3,-1.8c-0.4,-0.9,-1.8,-3.3,-0.9,-6.4c0.8,-3.1,2,-5.6,4.3,-8.5c2.2,-2.9,4,-5.4,3.8,-7.9c-0.2,-1.3,-0.5,-2.4,-1.2,-3.4c-0.7,-1,-1.7,-2,-3.2,-2.8c-3.2,-1.7,-5.2,-2.2,-6.2,-2.9c-1,-0.7,-1.7,-3,-2,-4.5c-0.3,-1.5,-0.2,-3.9,1.3,-8.7c0.9,-2.5,1.5,-4.1,1.9,-5.5c0.3,-1.2,0.5,-2.2,0.5,-2.3c0.1,-0.1,0.8,0.4,1.3,0.2c0.3,-0.1,0.8,-0.4,1,-1c0.3,-0.4,0.4,-1,0.3,-2.1c-0.1,-2.4,-0.7,-4.4,-1.2,-6c0,0,1.1,-0.1,2.8,0.1c0.7,0.2,1.3,0.3,1.8,0.5c0.7,0.2,1.2,0.3,1.3,0.4c0.1,0,0.1,0.3,0.1,0.6c0,0.1,0.1,0.3,0.2,0.3c0.6,0,2.2,0,3.7,0.7c1.8,0.8,3.7,2,4.9,2.4c0.4,0.2,1.4,0.5,2,0.6c1,0.2,1.7,0.2,2.2,0.3c0.8,0.2,4.9,1.7,5.1,1.8c0.2,0.2,0.4,0.7,0.6,1.3c0.2,0.4,0.2,0.8,0.3,0.9c0.2,0.3,0.3,0.1,0.9,0.1c0.7,0,1.7,0.1,3.3,0.9c1.6,0.8,3.1,1.9,5.2,2.3c2.1,0.4,5.1,0.6,6.1,0.9c1.1,0.2,3,0.9,3.2,1.1c0.3,0.2,0.3,0.9,1.1,1.5c0.8,0.5,2.4,1,3.6,1.1c1.3,0.1,1.5,-0.4,1.7,-0.3c0.2,0,0.8,0.2,1.6,0.1c0.7,0,1.4,-0.1,1.5,-0.1c0.1,0.1,0.4,0.5,0.7,0.2c0.3,-0.3,0.8,-0.7,1.4,-1.5c0.6,-0.9,0.7,-1.7,0.7,-2.2c0,0,0.1,-1.6,0.1,-2.3c0,-0.1,1.6,-0.8,1.4,-3.6c-0.2,-2.7,-1.2,-4,-1.5,-4.9c-0.3,-0.8,-0.4,-0.8,-0.5,-1.5c0,-0.7,-0.1,-4.5,-0.1,-4.9c0,-0.4,0.6,-2.8,0.6,-5.2c0,-2.4,-0.8,-3.7,-1,-4.1c-0.1,-0.4,-0.1,-2.6,-0.1,-2.8c0,-0.1,1,-1.8,1,-4.4c0,-2.5,-1.4,-3.9,-1.4,-4.1c0,-0.2,-0.3,-4.1,-0.2,-4.3c0.1,-0.2,1.7,-1.3,1.6,-4.8c0,-2,-0.5,-3.4,-0.8,-4.7c-0.2,-0.8,-0.5,-1.2,-0.4,-1.7c0.3,-1.3,1.3,-4.4,2.5,-6.4c1.4,-2.2,5.4,-7.1,7.1,-9.3c1.8,-2.2,2.4,-3,2.6,-3.1c0.1,-0.1,1.3,-0.3,2.4,-1.6c1,-1.4,2,-4,2,-4c0,0,3.7,-4.8,4.1,-5.1c0.3,-0.4,1.4,-1.2,1.8,-1.9c0.4,-0.7,0.1,-0.6,0.5,-1.1c0.4,-0.5,4.3,-5.5,4.5,-5.7c0.1,-0.2,0.4,0.3,1.5,-0.8c0.2,-0.2,0.6,-0.8,0.8,-1.3c0.2,-0.5,0.3,-1,0.3,-1.1c0.1,-0.3,2.4,-2.8,3,-3.9c0.6,-1,0.6,-1.2,0.7,-1.5c0.2,-0.2,0.9,-0.8,0.8,-1.7c-0.1,-1.3,-1.2,-2,-2,-2.7c0,0,-1.2,-1,-3,-1.5c-0.2,0,-0.3,-0.2,-0.3,-0.3c0,-0.3,-0.3,-0.8,-1.2,-1.4c-1.3,-0.8,-2.7,-0.8,-4.1,-0.8c-1.3,0,-3.2,-0.1,-3.8,-0.3c-0.5,-0.2,-1.9,-0.9,-3,-1.2c-1.1,-0.4,-2.5,-0.1,-3,-0.2c-0.2,0,-2,-0.6,-2.3,-0.7c-0.3,-0.2,-1.2,-1.2,-2,-1.7c-0.7,-0.6,-2.3,-1.1,-3.8,-1c-1.5,0.1,-2.1,0.4,-2.2,0.5c-0.2,0,-5.8,-1.6,-5.9,-1.6c-0.1,-0.1,0.1,-1.1,-0.3,-2.2c-0.4,-1.1,-1.7,-1.8,-3,-1.4c-1.2,0.4,-2.2,1.5,-2.6,1.7c-0.4,0.2,-0.6,0.2,-1.1,0c-0.6,-0.3,-0.8,-0.8,-1,-1.4c-0.1,-0.6,-0.2,-1.2,-1.5,-1.4c-1.5,-0.2,-2.3,0,-3,-0.5c-0.7,-0.5,-1,-1,-1.8,-1.2c-0.7,-0.1,-2.1,0.3,-2.9,-0.2c-0.7,-0.6,-1,-1.6,-1.5,-1.9c-0.4,-0.2,-1.2,-0.3,-1.4,-0.2c-0.1,0.1,0,0.3,-0.1,0.4c0,0.2,-0.2,0.3,-0.3,0.2c-0.5,-0.1,-2.9,-2.4,-3,-2.8c-0.1,-0.4,0.2,-1.3,-0.1,-2.2c-0.3,-0.9,-1.6,-1.8,-2.4,-3c-0.7,-1.2,-2.1,-3.4,-2.5,-3.9c-0.4,-0.5,-1.1,-0.5,-1.4,-0.6c-0.3,-0.1,-1.7,-2.5,-1.7,-2.7c-0.1,-0.5,0.3,-2.6,-0.1,-4c-0.4,-1.3,-1.7,-2.2,-3.2,-2.8c-1.4,-0.5,-1.4,-0.3,-1.7,-0.5c-0.3,-0.4,-4.2,-6.3,-4.3,-6.6c-0.1,-0.5,0,-3.9,-1.3,-6.4c-0.6,-1,-1.2,-1.6,-2.1,-2.2c-1.2,-0.8,-2.2,-1.5,-2.7,-2.1c-0.3,-0.4,-0.6,-1,-0.9,-1.8c-0.3,-1.1,-0.4,-2.5,-0.6,-3.1c-0.1,-0.6,-0.3,-1.4,-1.2,-2.2c-0.7,-0.5,-2,-1.1,-3.5,-1c-3.5,0.1,-5.4,3.1,-5.7,3.9c-0.4,0.9,-1.3,3.9,-1.7,4.8c-0.5,0.9,-2.1,2.2,-3.4,3.1c-1.3,0.8,-2.2,1.5,-2.7,3.6c-0.6,2.1,-0.6,3.7,-1.6,4.6c-1,1,-2.3,1.6,-3.2,2.7c-0.9,1,-0.9,1.6,-1,2.8c-0.1,1.2,-0.4,1.8,-1.6,2.5c-1.3,0.7,-2,1.3,-2.8,2.5c-0.8,1.2,-2.9,4.8,-3.3,5.6c-0.3,0.9,-0.2,2.6,-0.3,3.1c-0.1,0.5,-1.3,2,-1.4,2.1c-0.2,0.1,-1.1,-0.2,-2.3,0.6c-1.2,0.8,-1.4,1.7,-1.3,2.1c0.1,0.3,0.3,0.7,0.1,1.3c-0.1,0.3,-0.7,0.8,-1.1,1c-0.4,0.2,-0.5,0.2,-0.5,0.7c0,0.5,0.1,0.5,-0.1,0.7c-0.2,0.3,-2.2,2,-2.9,2.2c-0.5,0.1,-2.3,0.2,-4.1,0.7c-1.7,0.5,-3.2,0.8,-4.8,1c-1.6,0.2,-4.8,1.3,-5.6,1.7c-0.9,0.5,-1.2,0.8,-1.5,1.2c-0.2,0.4,-0.4,1,-0.9,1.2c-0.5,0.2,-1,0.2,-1.2,0c-0.3,-0.2,-0.9,-0.7,-2.9,-0.7c-2,0,-2.6,0.5,-2.9,1.1c-0.5,0.6,-0.6,1.6,-0.8,1.8c-0.2,0.1,-1.4,0.4,-1.6,0.4c-0.2,-0.1,-1,-0.9,-1.8,-0.9c-1.4,0,-2.4,0.6,-2.9,0.9c-0.6,0.3,-3.6,0.9,-4.3,1.1c-0.4,0.1,-1.4,0.4,-2.3,0.8c-0.6,0.2,-1.4,0.6,-1.5,0.7c-1,0.6,-1.4,1.3,-1.6,1.4c-0.3,0.1,-4.3,1.2,-4.3,1.2c0,0,-0.2,0.1,-0.4,0c-0.1,0,-0.2,-0.2,-0.3,-0.3c-0.4,-0.3,-1.2,-0.9,-2.1,-1.2c-1.4,-0.5,-3.4,0.8,-4,1.3c-0.7,0.5,-1.3,1,-1.7,1c-0.3,0,-0.8,0.4,-0.4,0.9c0.3,0.4,1,0.5,0.6,1.3c-0.3,0.7,-1.6,0.8,-2.2,0.9c-0.2,0.1,-1,0.7,-0.7,1.3c0.2,0.2,0.6,0.6,1,0.8c0.5,0.1,0.9,0,1,0.1c0.1,0.3,-0.6,1.5,-0.8,2c-0.1,0.4,0,1,0.3,1.2c0.4,0.2,1,-0.1,1.3,0.3c0.2,0.4,0.3,1.4,0.3,1.6c0.1,0.1,0.4,0.4,0.8,0.1c0.4,-0.3,0.3,-1,0.4,-1c0.1,-0.1,1.5,1.7,1.6,1.9c0,0.2,-0.1,1.1,0.1,1.7c0.1,0.2,0.6,1.2,1.4,2.1c0.4,0.6,1,1.1,1.4,1.5c1.1,1,2.1,1.4,2.6,1.6c0.2,0.1,2,2.3,2.2,2.7c0.2,0.4,0.6,1.6,1.1,2.4c0.5,0.7,1.5,1.1,1.8,1.3c0.2,0.1,3.2,3.9,3.4,4.2c0.1,0.3,-0.4,0.9,0.5,2c0.9,1.1,2.4,1.7,2.8,2.2c0.4,0.5,3.5,4.2,3.6,4.5c0.1,0.2,0.4,2.8,1.3,3.7c0.9,0.9,2.4,1.7,2.6,2.5c0,0.2,0,0.5,0,0.7c-0.1,0.6,-0.3,1.1,-0.3,1.2c-0.1,0.2,0,0.2,0.6,0.5c0.6,0.2,2.6,0.6,3.4,1.5c0.7,1,2.4,6.7,2.3,7.4c-0.1,0.7,0,0.4,-0.7,1.7c-0.6,1.2,-1.2,3.6,-0.6,5.8c0.5,2.2,1.1,3.8,1.1,4.5c0,0.8,0,2.1,-0.3,2.6c-0.3,0.5,-1.3,1.3,-1.4,2.4c-0.2,1.2,0,2.5,0.6,3.5c0.5,1,0.6,1.2,0.7,1.4c0.1,0.5,0,0.8,-0.2,1.1c-0.2,0.4,-1.9,3.3,-1.8,5.2c0.1,1.9,0.2,2.8,0.8,3.9c0.5,1.1,0.6,1,0.7,1.3c0,0.2,0,0.5,-0.1,0.8c0,0.1,-0.3,0.4,-0.4,0.6c-0.2,0.3,-1.7,3.4,-2,5.4c-0.2,2.1,0.1,3.6,0.6,3.9c0.4,0.4,1.4,0.6,1.4,0.9c0,0.9,0,1.9,-0.1,2.6c-0.1,0.5,-1,0.9,-1.2,1.3c-0.3,0.4,-0.4,0.6,-0.3,1.5c0.1,0.9,0.5,1.6,0.9,1.6c0.5,0,0.5,-0.2,0.7,-0.1c0.1,0.1,0.5,0.9,0.6,1.2c0,0.4,-0.3,0.9,-0.1,1.4c0.3,0.5,1.3,1,2.3,1c1.1,0,1,-0.1,1,-0.1c0,0,0,-0.4,0.1,-0.4c0.2,0,0.7,0,1.4,-0.1c0.5,-0.1,0.7,-0.3,1.2,-0.3c0.2,0,0.3,0.8,2.2,0.1c1.3,-0.4,2.8,-1.1,3.5,-1.5c0.5,-0.2,0.8,-0.6,1.4,-1.3c0.4,-0.3,18,-6.8,18.3,-6.9c0.3,-0.1,1.5,0.1,3.2,-0.6c1.8,-0.7,2.9,-1.6,3.7,-1.9c0.9,-0.4,5.1,-1.9,8.2,-3.1c3,-1.1,3.5,-1.2,4.3,-1.6c0.8,-0.3,3.6,-0.4,3.6,-0.4Z" class="g5_197" />
</g>
<image preserveAspectRatio="none" x="209" y="204" width="185" height="239" xlink:href="197/img/1.png" />
<path d="M262.5,298c-0.2,0,-0.4,0,-0.4,0C262,297.9,262,297.8,262,297.6l0,-1.7c0,-0.2,0,-0.4,0,-0.4c0.1,-0.1,0.2,-0.2,0.5,-0.2l3.9,0c0.9,0,1.5,-0.2,1.8,-0.6c0.4,-0.4,0.6,-1.1,0.6,-2c0,-1,-0.2,-1.7,-0.5,-2.1c-0.4,-0.4,-1,-0.6,-1.9,-0.6l-3.9,0c-0.3,0,-0.4,-0.1,-0.5,-0.1c0,-0.1,0,-0.2,0,-0.4l0,-1.7c0,-0.1,0,-0.3,0,-0.3c0.1,-0.1,0.2,-0.1,0.3,-0.1l5.1,0c0.8,0,1.4,-0.2,1.7,-0.5c0.3,-0.4,0.5,-1,0.5,-2c0,-0.9,-0.2,-1.6,-0.5,-2c-0.3,-0.4,-0.9,-0.6,-1.7,-0.6l-5,0c-0.2,0,-0.3,0,-0.3,-0.1c-0.1,0,-0.1,-0.1,-0.1,-0.3l0,-1.6c0,-1.3,-1,-1.9,-3,-1.9c-2,0,-3,0.6,-3,1.9l0,1.6c0,0.2,0,0.3,-0.1,0.3c-0.2,0.1,-0.4,0.1,-0.8,0.1c-0.4,0,-0.5,-0.1,-0.5,-0.4l0,-0.4c0,-0.6,-0.3,-1,-1,-1.4c-0.7,-0.4,-1.5,-0.6,-2.4,-0.6c-1.2,0,-2,0.5,-2.4,1.6c-0.6,1.7,-1.6,3.6,-2.7,5.8c-0.4,0.7,-0.6,1.3,-0.6,1.8c0,0.5,0.3,1.1,1,1.6c0.7,0.6,1.4,0.8,2.1,0.8c0.7,0,1.3,-0.3,1.9,-0.9c0.6,-0.6,1.2,-1.4,1.8,-2.4c0.2,-0.3,0.3,-0.4,0.5,-0.4l2.8,0c0.2,0,0.3,0,0.4,0.1c0,0,0,0.1,0,0.4l0,1.6c0,0.2,0,0.3,0,0.4c-0.1,0,-0.2,0.1,-0.4,0.1l-2.5,0c-0.3,0,-0.6,0,-0.8,0.1c-0.2,0.1,-0.4,0.3,-0.6,0.6c-0.6,0.7,-1.4,1.2,-2.4,1.5c-0.3,0.1,-0.5,0.2,-0.5,0.4c0,1,0.2,1.7,0.6,2.1c0.5,0.4,1.2,0.6,2.3,0.6l3.9,0c0.2,0,0.3,0.1,0.4,0.1c0,0.1,0,0.2,0,0.5l0,1.6c0,0.3,0,0.4,0,0.5c-0.1,0,-0.2,0,-0.4,0l-7,0c-1.1,0,-1.8,0.2,-2.3,0.7c-0.4,0.4,-0.7,1.1,-0.7,2c0,1,0.3,1.7,0.7,2.1c0.5,0.5,1.2,0.7,2.3,0.7l19.7,0c1,0,1.7,-0.2,2.2,-0.7c0.4,-0.4,0.7,-1.1,0.7,-2c0,-1,-0.3,-1.7,-0.7,-2.1C270,298.2,269.3,298,268.3,298l-5.8,0Z" class="g6_197" />
<path d="M297.3,282.9c0,-1.4,-0.4,-2.4,-1.2,-3.2c-0.9,-0.7,-2.1,-1.1,-3.7,-1.1l-12.8,0c-1.3,0,-2.3,0.4,-3.1,1.1c-0.8,0.8,-1.2,1.7,-1.2,2.9l0,16.6c0,1.6,0.3,2.9,1.1,3.7c0.7,0.8,1.8,1.2,3.4,1.2l12.7,0c1.7,0,2.9,-0.4,3.7,-1.2c0.7,-0.7,1.1,-2,1.1,-3.8l0,-16.2Zm-6.2,5.5c0,0.1,-0.2,0.1,-0.5,0.1l-8.5,0c-0.2,0,-0.4,0,-0.4,-0.1c-0.1,-0.1,-0.1,-0.2,-0.1,-0.5l0,-2.7c0,-0.2,0,-0.4,0,-0.5c0.1,-0.1,0.2,-0.1,0.5,-0.1l8.6,0c0.4,0,0.6,0.2,0.6,0.7l0,2.7c0,0.2,-0.1,0.3,-0.2,0.4Zm0.1,9.5c0,0.1,-0.2,0.1,-0.4,0.1l-8.7,0c-0.2,0,-0.4,0,-0.4,-0.1c-0.1,-0.1,-0.1,-0.3,-0.1,-0.5l0,-2.4c0,-0.3,0,-0.5,0.1,-0.6c0,-0.1,0.2,-0.1,0.4,-0.1l8.7,0c0.2,0,0.4,0.1,0.5,0.2c0,0.1,0.1,0.3,0.1,0.5l0,2.4c0,0.3,-0.1,0.4,-0.2,0.5Z" class="g6_197" />
<path d="M325.7,284c0,-1,-0.2,-1.7,-0.7,-2.2c-0.5,-0.5,-1.2,-0.8,-2.1,-0.8l-2,0c-0.2,0,-0.3,0,-0.3,-0.1c0,-0.1,-0.1,-0.2,-0.1,-0.4l0,-0.8c0,-0.7,-0.2,-1.1,-0.6,-1.4c-0.4,-0.2,-1.1,-0.3,-2.1,-0.3c-1.1,0,-1.8,0.1,-2.2,0.4c-0.4,0.2,-0.7,0.7,-0.7,1.3l0,0.9c0,0.2,0,0.3,0,0.3c0,0.1,-0.1,0.1,-0.3,0.1l-1.3,0c-0.8,0,-1.3,0.2,-1.7,0.7c-0.3,0.4,-0.5,1.1,-0.5,2.1c0,1,0.2,1.7,0.5,2.1c0.4,0.3,1,0.5,1.7,0.5l1,0c0.2,0,0.3,0.1,0.4,0.1c0,0.1,0,0.3,0,0.6c0,0.4,0,0.8,0,1.3c-0.1,0.5,-0.1,0.7,-0.1,0.8c-0.1,0,-0.2,0,-0.2,0l-2.3,0c-1.4,0,-2.2,0.9,-2.2,2.6c0,1.7,0.8,2.5,2.2,2.5l1.6,0c0.3,0,0.4,0.1,0.4,0.2c0,0.1,-0.1,0.5,-0.4,1c-0.3,0.6,-0.7,1.2,-1.3,1.8c-0.6,0.6,-1.2,1.1,-2,1.4c-0.9,0.5,-1.4,1.2,-1.4,2.2c0,0.7,0.3,1.4,0.8,2.2c0.6,0.7,1.2,1.1,2,1.1c0.8,0,1.8,-0.5,3.2,-1.6c1.4,-1.1,2.6,-2.7,3.5,-4.8c0.1,-0.1,0.2,-0.2,0.2,-0.2c0.1,0,0.3,0.1,0.5,0.2c0.2,0,0.3,0.2,0.3,0.4c0,0.2,-0.1,0.5,-0.3,0.9c-0.2,0.4,-0.3,0.7,-0.3,0.9c0,0.2,0.1,0.5,0.5,1c0.4,0.4,0.9,0.9,1.6,1.5c0.7,0.5,1.4,1,2.1,1.3c0.6,0.3,1.2,0.5,1.7,0.5c0.9,0,1.5,-0.4,2,-1.2c0.5,-0.8,0.8,-1.6,0.8,-2.2c0,-1.1,-0.6,-1.9,-1.7,-2.5c-0.9,-0.4,-1.7,-0.9,-2.4,-1.5c-0.6,-0.5,-1.1,-1,-1.4,-1.5c-0.3,-0.5,-0.4,-0.8,-0.4,-0.9c0,-0.1,0.1,-0.2,0.3,-0.2l3.9,0c1.1,0,1.6,-0.8,1.6,-2.5c0,-1.7,-0.5,-2.6,-1.5,-2.6c-0.2,0,-0.3,-0.1,-0.3,-0.3l0,-4.9Zm-4.9,5.2c-0.1,0,-0.2,0,-0.5,0c-0.3,0,-0.5,0,-0.6,0c0,-0.1,-0.1,-0.2,-0.1,-0.4l0,-2c0,-0.1,0.1,-0.2,0.1,-0.3c0.1,0,0.3,-0.1,0.6,-0.1c0.3,0,0.4,0.1,0.5,0.1c0.1,0.1,0.1,0.2,0.1,0.3l0,2c0,0.2,0,0.3,-0.1,0.4ZM313,287.9c0,-0.3,-0.3,-0.5,-0.7,-0.6c-0.5,-0.1,-0.9,-0.3,-1.1,-0.5c-0.3,-0.2,-0.5,-0.5,-0.7,-1c-0.3,-0.5,-0.4,-1.1,-0.4,-1.8l0.1,-0.8c0,-0.4,-0.1,-0.6,-0.3,-0.7c-0.2,-0.1,-0.3,-0.2,-0.3,-0.5l0,-2c0,-0.7,-0.2,-1.2,-0.7,-1.5c-0.5,-0.3,-1.2,-0.5,-2.3,-0.5c-1.7,0,-2.5,0.6,-2.5,1.7l0,1.4c0,0.2,0,0.4,0.1,0.5c0,0.1,0.2,0.2,0.5,0.2c2.1,0.3,3.1,1.4,3.1,3.4c0,0.5,-0.1,1.4,-0.3,2.7c-0.1,1.3,-0.3,2.4,-0.5,3.2c-0.3,0.8,-0.5,1.4,-0.9,1.8c-0.3,0.4,-0.7,0.6,-1.1,0.8c-0.5,0.1,-0.8,0.3,-0.8,0.4c-0.1,0.1,-0.2,0.4,-0.2,0.8l0,6.9c0,0.9,0.3,1.5,0.7,1.9c0.4,0.3,1.2,0.5,2.4,0.5c1.1,0,1.7,-0.2,1.7,-0.7c0,-0.2,-0.1,-0.4,-0.2,-0.7c-0.4,-0.6,-0.6,-1.4,-0.6,-2.1c0,-0.4,0.1,-0.8,0.3,-1.2c0.2,-0.4,0.4,-0.7,0.7,-0.8c0.2,-0.2,0.4,-0.4,0.5,-0.6c0,-0.1,0.1,-0.3,0.1,-0.6l0,-3c0,-0.2,-0.1,-0.6,-0.3,-1c-0.2,-0.4,-0.3,-1,-0.3,-1.8c0,-1.2,0.3,-2,0.8,-2.5c0.5,-0.6,1.1,-0.9,1.9,-0.9l0.7,0c0.4,0,0.6,-0.1,0.6,-0.4Zm-6.8,-4.5c-0.5,-0.5,-1.1,-0.7,-2,-0.7c-0.8,0,-1.4,0.2,-1.7,0.6c-0.4,0.3,-0.6,0.9,-0.6,1.6c-0.1,0.7,-0.2,1.6,-0.3,2.7c-0.2,1.1,-0.3,1.8,-0.4,2.2c-0.1,0.3,-0.1,0.7,-0.1,1c0,0.8,0.3,1.4,0.8,1.7c0.6,0.3,1.1,0.5,1.7,0.5c0.5,0,0.9,-0.1,1.3,-0.3c0.3,-0.2,0.5,-0.4,0.7,-0.7c0.2,-0.3,0.4,-0.9,0.6,-1.6c0.2,-0.8,0.3,-1.7,0.4,-2.8c0.2,-1,0.2,-1.8,0.2,-2.4c0,-0.8,-0.2,-1.4,-0.6,-1.8Z" class="g6_197" />
<path d="M346.5,287.4l0,-0.9c0,-1.1,-0.2,-1.8,-0.7,-2.2c-0.4,-0.3,-1,-0.4,-1.9,-0.4c-0.9,0,-1.6,0.1,-2,0.5c-0.5,0.3,-0.7,1,-0.7,2.1l0,0.9c0,0.2,-0.1,0.2,-0.3,0.2l-2.5,0c-0.2,0,-0.3,0,-0.4,0c-0.1,-0.1,-0.1,-0.2,-0.1,-0.3l0.1,-2c0,-0.2,0.1,-0.4,0.1,-0.5c0.1,-0.1,0.3,-0.1,0.5,-0.2l1.1,0c0.4,-0.1,0.6,-0.1,0.7,-0.2c0.1,0,0.2,-0.2,0.3,-0.4c0.5,-0.8,1.6,-1.2,3.2,-1.2c0.7,0,1.3,0.1,1.7,0.2c0.5,0.2,0.9,0.5,1.3,0.9c0.2,0.2,0.5,0.2,0.9,0.2c1.2,0,2.4,-0.1,3.6,-0.5c1.2,-0.3,1.9,-0.7,2.2,-1.1c0.3,-0.4,0.5,-0.9,0.5,-1.4c0,-0.6,-0.2,-1.2,-0.5,-2c-0.4,-0.8,-1.1,-1.2,-2.1,-1.2c-0.6,0,-1.5,0.1,-2.7,0.4c-2.2,0.5,-6.5,0.8,-12.7,0.9c-1.2,0,-2,0.3,-2.5,0.8c-0.5,0.4,-0.8,1.4,-0.8,2.7c-0.1,1.4,-0.5,4.4,-1.2,8.9c0,0.4,-0.1,0.6,-0.1,0.9c0,0.9,0.3,1.3,0.8,1.3c0.4,0,0.9,-0.2,1.5,-0.8c0.5,-0.5,1.2,-0.8,1.9,-0.8c0.7,0,1.5,0.3,2.4,0.8c0.4,0.3,0.8,0.4,1.4,0.4l1.4,0c0.2,0,0.3,0.1,0.3,0.3l0,4.8c0,0.2,0,0.4,-0.1,0.4c0,0.1,-0.1,0.1,-0.2,0.1c-0.2,0,-0.3,0,-0.5,0c-0.2,-0.1,-0.4,-0.1,-0.6,-0.1c-1.3,0,-2,0.9,-2,2.6c0,1,0.3,1.6,0.7,2.1c0.5,0.4,1.4,0.6,2.5,0.6l3.3,0c0.8,0,1.4,-0.2,1.7,-0.6c0.3,-0.4,0.5,-1.1,0.5,-2l0,-7.9c0,-0.2,0.1,-0.3,0.3,-0.3c0.3,0,0.5,0,0.6,-0.1c0.2,0,0.4,-0.1,0.6,-0.3c0.9,-0.7,1.8,-1,2.6,-1c0.9,0,1.6,0.3,2.3,0.8c0.3,0.3,0.6,0.4,0.8,0.4c0.6,0,0.9,-0.9,0.9,-2.9c0,-1,-0.2,-1.7,-0.5,-2.1c-0.4,-0.4,-1.1,-0.6,-2,-0.6l-5.4,0c-0.2,0,-0.2,0,-0.2,-0.2Zm2.1,6.4c-0.6,0.6,-1,1.2,-1,2.1c0,0.6,0.2,1.2,0.6,1.8c0.8,1.3,1.5,2.7,2.1,4.1c0.2,0.5,0.5,0.8,0.9,1.1c0.4,0.3,0.9,0.4,1.6,0.4c0.6,0,1.3,-0.3,2.1,-0.8c0.7,-0.5,1.1,-1.1,1.1,-1.8c0,-0.6,-0.3,-1.4,-0.7,-2.4c-0.4,-1,-1,-2,-1.6,-3c-0.6,-1,-1.1,-1.6,-1.6,-1.9c-0.4,-0.3,-0.8,-0.4,-1.3,-0.4c-0.8,0,-1.5,0.3,-2.2,0.8Zm-10.7,0.3c-0.8,-0.5,-1.5,-0.8,-2.1,-0.8c-1,0,-1.8,0.6,-2.6,2c-0.6,1,-1.4,2.1,-2.5,3.3c-0.5,0.7,-0.7,1.4,-0.7,2.1c0,0.7,0.3,1.3,1.1,1.9c0.7,0.5,1.4,0.8,2,0.8c0.4,0,0.7,-0.1,1.2,-0.3c0.4,-0.2,1,-0.7,1.7,-1.6c0.8,-0.9,1.5,-1.9,2.1,-2.9c0.7,-1.1,1,-1.9,1,-2.5c0,-0.7,-0.4,-1.4,-1.2,-2Z" class="g6_197" />
<text 
x="244" 
y="299" 
dx="0,0,0,0" 
class="s6_197"
>生日快乐</text>

<image preserveAspectRatio="none" x="545" y="197" width="246" height="244" xlink:href="197/img/2.png" />
<image preserveAspectRatio="none" x="82" y="464" width="461" height="307" xlink:href="197/img/3.png" />
<text 
transform="matrix(0.99, 0.14, -0.14, 0.99, 186, 574)"
dx="0" 
class="s7_197"
>圣</text>

<text 
transform="matrix(1, 0, 0, 1, 258, 580)"
dx="0" 
class="s7_197"
>诞</text>

<text 
transform="matrix(1, -0.02, 0.02, 1, 331, 580)"
dx="0" 
class="s7_197"
>快</text>

<text 
transform="matrix(0.99, -0.14, 0.14, 0.99, 408, 574)"
dx="0" 
class="s7_197"
>乐</text>

<image x="542" y="507" width="249" height="249" xlink:href="197/shade/1.png" />
<g clip-path="url(#c1_197)">
<path d="M706.5,736.5c0,0.2,0.3,0.4,0.3,0c0,-0.2,-0.3,-0.4,-0.3,0m1.7,-46.8c0.1,0.1,0.5,-0.2,0.4,-0.4c-0.1,-0.1,-0.6,0.2,-0.4,0.4M706.8,551c0.1,0.1,0.5,-0.2,0.4,-0.4c-0.1,-0.1,-0.6,0.2,-0.4,0.4m-0.3,153.6c-0.1,-0.1,-0.6,0.1,-0.4,0.3c0.1,0.1,0.5,-0.1,0.4,-0.3m1,35.7l0,0.7l1.1,0c0,-0.6,-0.4,-0.8,-1.1,-0.7M696.1,546.1c0.9,0.1,1.5,-0.1,1.4,-1c-0.7,0.1,-1.5,0.1,-1.4,1m10,-26.7c-0.1,-0.1,-0.5,0.1,-0.3,0.3c0.1,0.1,0.5,-0.1,0.3,-0.3M698.8,620c0.1,0.5,0,1,0.4,1.1c0,-0.2,0,-0.4,0.3,-0.4c0,-0.4,-0.1,-0.8,-0.7,-0.7m4.5,99.2c-0.2,1,-0.2,0.6,0,1.7c1.2,0.1,1.7,-0.4,1.8,-1.4c-0.9,0.1,-0.8,-0.6,-1.8,-0.3m-2.4,-146c0.1,0.4,0.4,0.2,0.7,0c0,-0.4,-0.6,-0.5,-0.7,0m16.7,145.6c0.1,0.1,0.5,-0.2,0.3,-0.3c-0.1,-0.1,-0.5,0.1,-0.3,0.3m-0.7,-14.2c0,0.2,0.3,0.4,0.3,0c0,-0.2,-0.3,-0.4,-0.3,0m1.4,46.1l0,1.8c1.6,0.1,0.8,-1.5,0,-1.8M708.9,535c0.1,0.4,-0.1,1,0.3,1c0.1,-0.2,0.1,-0.4,0.4,-0.3c0,-0.4,-0.1,-0.8,-0.7,-0.7m13.9,166.5c0.1,0.1,0.5,-0.2,0.3,-0.4c-0.1,-0.1,-0.5,0.2,-0.3,0.4m1.4,11.4c0,0.2,0.3,0.4,0.3,0c0,-0.2,-0.3,-0.4,-0.3,0M690.9,570.1c0,0.4,-0.1,0.9,0.3,1c0,-0.5,0.9,-0.3,0.7,-1Zm21.5,-49c0,0.2,0.3,0.4,0.3,0c0,-0.2,-0.3,-0.4,-0.3,0m-1.1,24l0.7,0l0,-0.7l-0.7,0l0,0.7Zm3.2,173c-0.1,0.5,-0.5,0.5,-0.4,1.1l0.7,0c0.4,-0.5,0.4,-0.9,-0.3,-1.1m-0.7,-65.9c0,0.2,0.2,0.4,0.3,0c0,-0.2,-0.3,-0.4,-0.3,0m1.7,-108.9c0.1,0.1,0.5,-0.1,0.3,-0.3c-0.1,-0.1,-0.5,0.2,-0.3,0.3M679.8,528.1c0.2,-0.1,0.6,-0.1,0.6,-0.4c-0.2,0.1,-0.6,0,-0.6,0.4m-18.4,80.8c0.1,0.1,0.5,-0.1,0.3,-0.3c-0.1,-0.1,-0.5,0.2,-0.3,0.3m-2.5,-91.6c0.1,0.1,0.6,-0.2,0.4,-0.3c-0.1,-0.1,-0.5,0.1,-0.4,0.3M661,693.1l0.7,0l0,-0.7l-0.7,0l0,0.7Zm5.9,45.8c0,0.2,0.3,0.4,0.4,0c0,-0.1,-0.3,-0.3,-0.4,0m3.1,-130c-0.1,-0.1,-0.5,0.2,-0.3,0.4c0.1,0.1,0.5,-0.2,0.3,-0.4M654.1,563.8c0.1,0.1,0.5,-0.2,0.3,-0.3c-0.1,-0.1,-0.5,0.1,-0.3,0.3m-0.7,91.5l0.7,0l0,-0.7l-0.7,0l0,0.7ZM653,729.9c0.3,-0.1,0.7,0,0.7,-0.3c-0.2,0.1,-0.7,0,-0.7,0.3m4.2,17.7l0.7,0l0,-0.7l-0.7,0l0,0.7ZM670,734.4c0.1,0.1,0.6,-0.1,0.4,-0.3c-0.1,-0.1,-0.5,0.2,-0.4,0.3M658.2,610c0.1,0.1,0.6,-0.2,0.4,-0.4c-0.1,-0.1,-0.5,0.2,-0.4,0.4m24.7,134.2c0.1,0,0.5,-0.2,0.3,-0.4c-0.1,-0.1,-0.5,0.2,-0.3,0.4m0,-60.4c-0.1,-0.1,-0.6,0.1,-0.4,0.3c0.1,0.1,0.6,-0.2,0.4,-0.3m6.6,-170.3c0.2,-0.1,0.7,0,0.7,-0.4c-0.3,0.1,-0.7,0,-0.7,0.4m-1.4,81.2c0,-0.5,0.9,-0.3,0.7,-1c-0.7,-0.3,-1.6,0.9,-0.7,1M671.4,712.2c0.4,0,0.4,0.3,0.7,0.4c0,-0.4,0.3,-0.5,0.4,-0.7c-0.4,0,-0.4,-0.3,-0.7,-0.4c0,0.4,-0.3,0.4,-0.4,0.7m53.8,-54.8c0.1,0.4,-0.1,1,0.4,1c0,-0.2,0,-0.4,0.3,-0.3c0,-0.5,-0.1,-0.9,-0.7,-0.7M685.3,531.5c0.1,0.1,0.5,-0.1,0.4,-0.3c-0.1,-0.1,-0.6,0.2,-0.4,0.3m-9.4,11.1c0.4,-0.5,0.4,-0.8,-0.3,-1c0,0.4,-0.5,0.5,-0.4,1Zm-0.7,82c0,0.6,0.4,0.7,0.4,1.3c1,0.1,1.9,0.1,1.7,-1c0,-0.9,-1.6,-0.8,-2.1,-0.3m2.1,-71.9c0,-0.2,-0.3,-0.4,-0.3,0c0,0.2,0.3,0.4,0.3,0M677,527.4c-0.6,1.7,1.2,2.1,2.1,1.4c-0.1,-1.2,-0.8,-1.6,-2.1,-1.4m1.4,89.2l0,0.7c0.3,0,0.4,0.2,0.7,0.3c-0.1,-0.5,0,-1.2,-0.7,-1m71.1,-94.8c0,0.2,0.3,0.4,0.3,0c0,-0.2,-0.2,-0.4,-0.3,0m19.1,162c-0.1,0.3,0.3,0.9,0.3,0.3c0.1,-0.4,-0.2,-0.9,-0.3,-0.3m2.4,40.9c0.1,0.1,0.5,-0.2,0.4,-0.3c-0.1,-0.1,-0.6,0.1,-0.4,0.3m2.4,-162.3c-0.1,-0.1,-0.5,0.2,-0.3,0.4c0.1,0.1,0.5,-0.2,0.3,-0.4m0,132.1c0,0.2,0.3,0.4,0.4,0c0,-0.2,-0.3,-0.4,-0.4,0M725.9,535.3c0.1,0.1,0.5,-0.1,0.3,-0.3c0,-0.1,-0.5,0.2,-0.3,0.3M776.6,560c0.2,-0.1,0.6,0,0.7,-0.4c-0.3,0.1,-0.7,0.1,-0.7,0.4m-9.7,-9l0,0.7c0.3,0,0.4,0.2,0.6,0.3c0,-0.5,0.1,-1.2,-0.6,-1M756.4,517c0.1,0,0.6,-0.2,0.4,-0.4c-0.1,-0.1,-0.5,0.2,-0.4,0.4m8,66.9c-0.1,-0.8,1,-0.3,1.1,-1c-1,-0.5,-2.1,0.6,-1.1,1M762.7,577l0,-0.7c-0.7,-1.1,-1.7,1.1,0,0.7m26,26c-0.1,-0.1,-0.5,0.2,-0.3,0.4c0.1,0.1,0.5,-0.2,0.3,-0.4m-3.5,-13.5l0,0.7l1.1,0c0,-0.6,-0.4,-0.8,-1.1,-0.7m-0.7,-69.8c0,0.2,0.3,0.4,0.4,0c0,-0.2,-0.3,-0.4,-0.4,0m-28.4,11.1l0.7,0l0,-0.7l-0.7,0l0,0.7Zm32.6,7.3c-0.3,0.1,-0.7,0,-0.7,0.4c0.3,-0.1,0.7,0,0.7,-0.4m-7.3,63.5c0.3,0,0.7,0,0.7,-0.3c-0.3,0.1,-0.7,0,-0.7,0.3m-2.8,51.6c0.3,-0.1,0.7,0,0.7,-0.3c-0.2,0,-0.6,0,-0.7,0.3m2.8,-58.8c-1,-0.3,-1.2,0.3,-2.1,0.3c-0.3,3.4,3.4,2.3,2.1,-0.3m-2.1,110.5c0.6,0,0.9,-0.2,1.1,-0.7c-0.6,0.1,-1.2,0,-1.1,0.7M778,620.4c0.2,-0.1,0.6,0,0.6,-0.4c-0.2,0.1,-0.6,0.1,-0.6,0.4m1.7,-12.2c1.2,1.1,1,-1.2,0,0m0.3,89.1c0,0.2,0.3,0.4,0.4,0c0,-0.2,-0.3,-0.4,-0.4,0M760.6,653.6c0.3,-0.1,0.7,-0.1,0.7,-0.4c-0.3,0.1,-0.7,0,-0.7,0.4M732.8,508.1l-0.7,0l0,0.2c0.4,0.2,0.6,0.1,0.7,-0.2m-1.3,219.4c0.2,-0.1,0.6,0,0.6,-0.4c-0.2,0.1,-0.6,0.1,-0.6,0.4m1,-124.8c0.1,0.4,0.4,0.2,0.7,0c0,-0.4,-0.6,-0.4,-0.7,0m0.3,-87.1c-0.1,-0.1,-0.5,0.1,-0.3,0.3c0.1,0.1,0.5,-0.2,0.3,-0.3m-1.3,229.9c0.1,0.1,0.5,-0.1,0.3,-0.3c-0.1,-0.1,-0.5,0.2,-0.3,0.3m23.9,-95.8l0,1.1l1,0c0.1,-0.8,-0.2,-1.1,-1,-1.1M727.3,603.4c-0.8,1.1,1.2,-0.9,0,0m4.2,-36.5c-0.1,-0.1,-0.6,0.2,-0.4,0.4c0.1,0.1,0.5,-0.2,0.4,-0.4m-3.9,185.2c-0.8,1.2,1.2,-0.8,0,0m0,-200.1c0.4,0,0.6,0.5,0.7,0c0,-0.3,-0.6,-0.4,-0.7,0m8.7,-0.3c0.1,0.1,0.5,-0.2,0.4,-0.4c-0.1,-0.1,-0.6,0.2,-0.4,0.4m-6.2,111.2c0,0.2,0.2,0.4,0.3,0c0,-0.2,-0.3,-0.4,-0.3,0m23.2,43.8c0.1,0.5,-0.1,1.2,0.4,1.4c0,-0.9,0.6,-1.1,-0.4,-1.4M751.9,600.6c0.6,0,0.9,-0.3,1.1,-0.7c-0.6,0,-0.9,0.3,-1.1,0.7m-9.7,127.2c0,0.2,0.3,0.4,0.4,0c0,-0.2,-0.3,-0.4,-0.4,0m8.7,-10c-0.1,0.2,0.5,0.7,0.7,0.7c0.9,-0.3,-0.2,-2,-0.7,-0.7m4.2,-140.5l-0.7,0l0,0.7l0.7,0l0,-0.7Zm0.3,1.8c-0.1,-0.1,-0.5,0.2,-0.3,0.3c0,0.1,0.5,-0.1,0.3,-0.3m-5.9,-14.9c-0.2,-0.1,-0.4,-0.1,-0.3,-0.4l-0.7,0c0,0.5,-0.2,1.3,0.3,1.4c0.1,-0.5,0.6,-0.6,0.7,-1m-4.9,163.3c0,0.3,-0.2,0.4,-0.3,0.7c0.5,0,1.2,0,1,-0.7ZM652.3,685.1c0.1,0.1,0.6,-0.1,0.4,-0.3c-0.1,-0.1,-0.5,0.2,-0.4,0.3m96.9,50.7c0,0.1,0.5,-0.1,0.3,-0.3c-0.1,-0.1,-0.5,0.1,-0.3,0.3m0.6,-153.9c0.1,0.4,0.4,0.2,0.7,0c0,-0.4,-0.6,-0.5,-0.7,0M770,576.3c0.1,0.1,0.5,-0.2,0.3,-0.3c-0.1,-0.1,-0.5,0.1,-0.3,0.3M564.6,610c-0.3,-0.2,-1.1,0.1,-1.4,0c-0.1,-0.1,0,-0.6,0,-0.7c-0.2,-0.2,-1,0,-1.1,-0.4c-0.3,0.7,0.5,1.8,1.1,1.8c0,0,0.1,0,0.1,-0.1c0,-0.1,0.1,0,0,0c0,0.1,0.1,0.2,0.2,0.4c0,0.1,1,0.4,1.1,0.4c0.1,0,0.8,0.7,1,0c-1,0.3,-0.6,-1,-1,-1.4M543.4,729.9c0.1,0.1,0.5,-0.1,0.3,-0.3c-0.1,-0.1,-0.5,0.1,-0.3,0.3M568.7,513.5c-0.1,-0.1,-0.5,0.1,-0.3,0.3c0.1,0.1,0.5,-0.1,0.3,-0.3M565.2,569c0,0.2,0.3,0.4,0.4,0c0,-0.2,-0.3,-0.4,-0.4,0m0,-13.9c0.1,0.1,0.6,-0.1,0.4,-0.3c-0.1,-0.1,-0.5,0.2,-0.4,0.3m-6.6,160.6c0.1,0.1,0.6,-0.2,0.4,-0.4c-0.1,-0.1,-0.5,0.2,-0.4,0.4M545.8,592.3l0,-1.4c-0.6,0,-1.1,0.1,-1.4,0.3c-0.1,1,0.5,1.2,1.4,1.1m0.4,93.9c-0.9,1.1,1.1,-0.9,0,0m4.1,-63c0.1,0.1,0.6,-0.2,0.4,-0.4c-0.1,-0.1,-0.6,0.2,-0.4,0.4m8,-108.3c-0.1,0.5,-0.8,0.2,-1,0c-0.1,0.8,-0.1,1.7,0.7,1.7c0.1,-0.4,1.4,-1.3,0.3,-1.7m3.1,109c0.3,-0.1,0.7,0,0.7,-0.4c-0.2,0.1,-0.7,0,-0.7,0.4m23.3,-27.1c0,0.2,0.3,0.4,0.3,0c0,-0.2,-0.3,-0.4,-0.3,0m-16,88.3c0.1,0.5,0.4,0.3,0.7,0c0,-0.3,-0.6,-0.4,-0.7,0M585,625.9c0.1,0.1,0.5,-0.1,0.4,-0.3c-0.1,-0.1,-0.6,0.2,-0.4,0.3m0.7,-23.2c0.3,-0.1,0.7,0,0.7,-0.4c-0.3,0.1,-0.7,0.1,-0.7,0.4m0,-70.5c0.3,-0.1,0.7,0,0.7,-0.3c-0.3,0.1,-0.7,0,-0.7,0.3m-1.7,155c0,0.2,0.3,0.4,0.3,0c0,-0.2,-0.3,-0.4,-0.3,0M570.4,514.9c0.1,0.1,0.6,-0.2,0.4,-0.4c-0.1,-0.1,-0.5,0.2,-0.4,0.4m1.8,166.8c0.4,-0.1,0.5,0.5,0.7,0c0,-0.4,-0.6,-0.5,-0.7,0m10.4,-12.9c0.3,-0.1,0.7,0,0.7,-0.3c-0.3,0.1,-0.7,0,-0.7,0.3M580.5,566.6c0,0.2,0.3,0.4,0.4,0c0,-0.2,-0.3,-0.4,-0.4,0m2.8,6.2c0,0.2,0.3,0.4,0.3,0c0,-0.2,-0.2,-0.4,-0.3,0M788.4,532.2c0.4,-0.4,0.4,-1.3,-0.4,-1.4c0.1,0.6,-0.1,1.3,0.4,1.4m-73.6,74.3c-0.3,0.1,-0.7,0,-0.7,0.4c0.3,-0.1,0.7,-0.1,0.7,-0.4M704.7,520.1c-0.1,-0.1,-0.5,0.1,-0.3,0.3c0.1,0.1,0.5,-0.1,0.3,-0.3m-53.1,30.5c0,-0.1,-0.5,0.2,-0.3,0.4c0.1,0.1,0.5,-0.2,0.3,-0.4M652.7,527c0,-0.3,-0.6,-0.4,-0.7,0c0.4,0,0.5,0.5,0.7,0m62.1,2.1l0,0.7c0.3,0,0.4,0.3,0.7,0.3c0,-0.5,0,-1.2,-0.7,-1M592,509c-0.1,0.4,-0.7,0.8,0,1c0,-0.4,0.6,-0.8,0,-1m193.9,34c-0.1,-0.1,-0.5,0.2,-0.3,0.3c0.1,0.1,0.5,-0.1,0.3,-0.3m-6.6,-13.6c-0.8,1.2,1.2,-0.8,0,0m-236,221.7l0,0.3c0.1,-0.1,0.2,-0.2,0.1,-0.3c0,0,-0.1,0,-0.1,0M779,558.3c1.2,1,1,-1.3,0,0M651.6,682.7c-0.2,0.1,-0.6,0,-0.6,0.4c0.2,-0.1,0.6,0,0.6,-0.4M605.5,555.8c-0.1,-0.6,0.3,-1.7,-0.7,-1.4c0,0.7,0.2,1.2,0.7,1.4M585,527c-0.8,1.2,1.2,-0.8,0,0m9.7,30.9c0,-0.2,-0.2,-0.4,-0.3,0c0,0.2,0.3,0.4,0.3,0M563.2,522.5c-0.1,-0.1,-0.6,0.2,-0.4,0.4c0.1,0,0.5,-0.2,0.4,-0.4M585,594.4c0,-0.2,-0.3,-0.4,-0.3,0c0,0.2,0.3,0.4,0.3,0m63.5,90c0.3,-0.1,0.5,-0.6,0,-0.3c-0.1,0,-0.2,0,-0.3,0c-0.5,0.1,-0.1,0.6,0.3,0.3M647.1,556.9l-0.7,0l0,0.7l0.7,0l0,-0.7Zm2.5,14.9c-0.1,-0.1,-0.6,0.2,-0.4,0.3c0.1,0.1,0.5,-0.1,0.4,-0.3m-21.9,89c0,-0.1,-0.3,-0.4,-0.3,0c0,0.2,0.2,0.4,0.3,0M608.3,592.3c0,-0.2,-0.3,-0.4,-0.4,0c0,0.2,0.3,0.4,0.4,0m43.3,98l0.7,0l0,-0.6l-0.7,0l0,0.6Zm-8.3,-75.1c0,-0.2,-0.3,-0.4,-0.3,0c0,0.2,0.3,0.4,0.3,0M643,517c-0.1,-0.1,-0.6,0.1,-0.4,0.3c0.1,0.1,0.6,-0.2,0.4,-0.3m-1.4,10.7l0,0.7l1,0c0.1,-0.6,-0.3,-0.8,-1,-0.7m1.7,225.1l0.7,0l0,-0.7l-0.7,0l0,0.7Zm2.1,-71.1c-0.8,0,-2.2,1.2,-1.4,1.7c0.6,-0.4,0.8,-1.3,1.4,-1.7m-2.1,2.4c-0.1,-0.1,-0.5,0.2,-0.3,0.3c0.1,0.1,0.5,-0.1,0.3,-0.3m-5.5,-62.3c0,0.2,0.2,0.4,0.3,0c0,-0.2,-0.3,-0.4,-0.3,0M627.4,740c0,1.2,0.2,2.2,1.7,2.1c0.5,-0.5,0.5,-2,0,-2.5c-1,-0.2,-0.9,0.5,-1.7,0.4m4.1,-24.7c-0.5,0.6,-0.4,1.6,0.7,1.4c0.1,-0.8,-0.1,-1.3,-0.7,-1.4m0.4,-125.5c-0.1,0.5,-0.5,0.7,-0.4,1.4c1,0.6,1,-1.5,0.4,-1.4m4.8,141.9c0.1,0.1,0.5,-0.2,0.4,-0.4c-0.1,-0.1,-0.6,0.2,-0.4,0.4m0.7,-34.4c0.1,0.1,0.5,-0.2,0.4,-0.4c-0.1,-0.1,-0.6,0.2,-0.4,0.4m10.4,-11.5c-0.2,0.8,-0.7,1.2,-1,1.8c0.4,0.1,1.3,1.4,1.7,0.3c-1,0.1,0.3,-2.1,-0.7,-2.1m1.4,-0.3c0.1,0.1,0.5,-0.2,0.4,-0.4c-0.1,-0.1,-0.6,0.2,-0.4,0.4m-4.1,-1.4c0,0.1,0.5,-0.2,0.3,-0.3c-0.1,-0.1,-0.5,0.1,-0.3,0.3m4.5,-2.1c0.1,0.1,0.5,-0.1,0.3,-0.3c-0.1,-0.1,-0.5,0.1,-0.3,0.3m-1.1,3.8c0.1,0.1,0.5,-0.1,0.4,-0.3c-0.1,-0.1,-0.6,0.2,-0.4,0.3m2.1,1.4c0.9,0.3,0.7,-0.7,1,-1c-0.9,-0.3,-0.6,0.7,-1,1M648.5,682c0.1,0.1,0.5,-0.1,0.4,-0.3c-0.1,-0.1,-0.6,0.1,-0.4,0.3m-2.8,42.4c0,0.2,0.3,0.4,0.4,0c0,-0.2,-0.3,-0.4,-0.4,0M645.1,513.1c0,0.1,0.5,-0.1,0.3,-0.3c-0.1,-0.1,-0.5,0.2,-0.3,0.3m1,167.9c0.1,0.1,0.5,-0.2,0.3,-0.4c-0.1,-0.1,-0.5,0.2,-0.3,0.4M626.3,601.6c0.1,0.1,0.5,-0.1,0.4,-0.3c-0.1,-0.1,-0.6,0.2,-0.4,0.3m20.5,148.8c0.5,0.4,1.3,0.5,1.4,-0.3c-0.9,-0.1,-1.1,-0.7,-1.4,0.3M607.9,616.6c0.3,-0.1,0.7,0,0.7,-0.4c-0.3,0.1,-0.7,0,-0.7,0.4m-3.1,-52.8c-0.7,0.7,-0.4,2.1,1,1.7c0,-0.8,0,-1.7,-1,-1.7m-3.5,6.6c0,0.2,0.3,0.4,0.4,0c0,-0.2,-0.3,-0.4,-0.4,0m-0.7,116.1c0,0.4,0.6,0.5,0.7,0c-0.4,0.1,-0.5,-0.5,-0.7,0m4.5,31.6c0.1,0.1,0.6,-0.1,0.4,-0.3c-0.1,-0.1,-0.5,0.1,-0.4,0.3m-2,-200.8c-0.1,0.4,-0.5,0.5,-0.4,1l0.7,0c0.4,-0.5,0.4,-0.8,-0.3,-1m-4.9,8.7c-0.4,2,1.5,0.1,0,0m23.6,25.7c-0.1,0.4,-0.5,0.3,-1,0.3c-0.1,0.9,0.4,1.1,1.4,1.1c-0.1,-0.6,0.1,-1.3,-0.4,-1.4m-24.6,56.2c-0.9,1.2,1.1,-0.8,0,0m0,-54.2c0.2,0,0.7,0,0.7,-0.3c-0.3,0.1,-0.7,0,-0.7,0.3m0.3,50c0,0.2,0.3,0.4,0.4,0c0,-0.2,-0.3,-0.4,-0.4,0m0.7,-80.8c-0.1,-0.1,-0.5,0.1,-0.3,0.3c0.1,0.1,0.5,-0.2,0.3,-0.3m-2.8,178.6c0.3,-0.1,0.7,-0.1,0.7,-0.4c-0.2,0.1,-0.7,0,-0.7,0.4m25,-189.8c-0.1,-0.1,-0.5,0.2,-0.3,0.4c0.1,0.1,0.5,-0.2,0.3,-0.4m-0.7,145.7c0,0.2,0.3,0.4,0.4,0c0,-0.2,-0.3,-0.4,-0.4,0m0.7,-107.8c0,0.6,0.3,0.9,0.7,1c0,-0.6,-0.3,-0.9,-0.7,-1M618,545.4c0,0.2,0.3,0.4,0.3,0c0,-0.2,-0.2,-0.4,-0.3,0m2.8,134.9c0.1,0.1,0.5,-0.2,0.3,-0.4c-0.1,-0.1,-0.5,0.2,-0.3,0.4M610,547.5l0.7,0l0,-0.7l-0.7,0l0,0.7ZM610.4,509c0,0.3,-0.3,0.4,-0.4,0.7c0.6,-0.1,1.2,0,1,-0.7Zm4.1,14.2c0.3,0.5,0.4,0.1,0,-0.3c-0.3,-0.5,-0.2,-0.1,0,0.3M594.4,647.3c0.4,0,0.5,0.5,0.7,0c0,-0.3,-0.6,-0.4,-0.7,0m21.2,27.4c0.4,0,0.9,0.1,1,-0.3c-0.4,0,-1,-0.1,-1,0.3Z" class="g7_197" />
</g>
<image x="555" y="520" width="224" height="223" xlink:href="197/shade/2.png" />
<image x="586" y="550" width="162" height="162" xlink:href="197/shade/3.png" />
<image x="636" y="708" width="32" height="18" xlink:href="197/shade/4.png" />
<image x="609" y="695" width="33" height="26" xlink:href="197/shade/5.png" />
<image x="588" y="675" width="29" height="31" xlink:href="197/shade/6.png" />
<image x="575" y="650" width="25" height="33" xlink:href="197/shade/7.png" />
<image x="573" y="622" width="16" height="32" xlink:href="197/shade/8.png" />
<image x="573" y="592" width="20" height="33" xlink:href="197/shade/9.png" />
<image x="581" y="567" width="28" height="32" xlink:href="197/shade/10.png" />
<image x="598" y="548" width="32" height="29" xlink:href="197/shade/11.png" />
<image x="623" y="538" width="33" height="22" xlink:href="197/shade/12.png" />
<image x="652" y="536" width="32" height="15" xlink:href="197/shade/13.png" />
<image x="681" y="538" width="33" height="22" xlink:href="197/shade/14.png" />
<image x="706" y="548" width="32" height="28" xlink:href="197/shade/15.png" />
<image x="727" y="568" width="27" height="32" xlink:href="197/shade/16.png" />
<image x="742" y="594" width="20" height="32" xlink:href="197/shade/17.png" />
<image x="746" y="624" width="17" height="33" xlink:href="197/shade/18.png" />
<image x="735" y="651" width="24" height="32" xlink:href="197/shade/19.png" />
<image x="717" y="676" width="30" height="30" xlink:href="197/shade/20.png" />
<image x="693" y="696" width="33" height="26" xlink:href="197/shade/21.png" />
<image x="666" y="708" width="32" height="18" xlink:href="197/shade/22.png" />
<image x="590" y="553" width="156" height="157" xlink:href="197/shade/23.png" />
<image x="594" y="601" width="106" height="104" xlink:href="197/shade/24.png" />
<image x="631" y="657" width="8" height="10" xlink:href="197/shade/25.png" />
<image x="618" y="621" width="8" height="9" xlink:href="197/shade/26.png" />
<image x="642" y="688" width="9" height="10" xlink:href="197/shade/27.png" />
<image x="679" y="672" width="8" height="6" xlink:href="197/shade/28.png" />
<image x="622" y="555" width="125" height="125" xlink:href="197/shade/29.png" />
<image x="621" y="553" width="128" height="128" xlink:href="197/shade/30.png" />
<image x="636" y="576" width="14" height="28" xlink:href="197/shade/31.png" />
<image x="576" y="583" width="46" height="46" xlink:href="197/shade/32.png" />
<image x="575" y="583" width="48" height="47" xlink:href="197/shade/33.png" />
<image x="585" y="593" width="27" height="28" xlink:href="197/shade/34.png" />
<image x="590" y="598" width="18" height="19" xlink:href="197/shade/35.png" />
<image x="587" y="659" width="38" height="38" xlink:href="197/shade/36.png" />
<image x="586" y="659" width="40" height="40" xlink:href="197/shade/37.png" />
<image x="594" y="667" width="23" height="23" xlink:href="197/shade/38.png" />
<image x="598" y="671" width="16" height="16" xlink:href="197/shade/39.png" />
<image x="611" y="630" width="30" height="30" xlink:href="197/shade/40.png" />
<image x="610" y="630" width="32" height="32" xlink:href="197/shade/41.png" />
<image x="617" y="637" width="20" height="19" xlink:href="197/shade/42.png" />
<image x="620" y="640" width="14" height="13" xlink:href="197/shade/43.png" />
<image x="611" y="569" width="23" height="25" xlink:href="197/shade/44.png" />
<image x="611" y="569" width="25" height="24" xlink:href="197/shade/45.png" />
<image x="615" y="574" width="14" height="14" xlink:href="197/shade/46.png" />
<image x="618" y="576" width="11" height="11" xlink:href="197/shade/47.png" />
<image x="590" y="635" width="20" height="20" xlink:href="197/shade/48.png" />
<image x="590" y="634" width="21" height="21" xlink:href="197/shade/49.png" />
<image x="594" y="638" width="14" height="13" xlink:href="197/shade/50.png" />
<image x="596" y="640" width="9" height="9" xlink:href="197/shade/51.png" />
<image x="622" y="679" width="20" height="21" xlink:href="197/shade/52.png" />
<image x="622" y="678" width="20" height="20" xlink:href="197/shade/53.png" />
<image x="626" y="682" width="13" height="13" xlink:href="197/shade/54.png" />
<image x="627" y="684" width="8" height="9" xlink:href="197/shade/55.png" />
<image x="685" y="681" width="20" height="21" xlink:href="197/shade/56.png" />
<image x="684" y="681" width="21" height="20" xlink:href="197/shade/57.png" />
<image x="689" y="685" width="14" height="13" xlink:href="197/shade/58.png" />
<image x="690" y="687" width="9" height="9" xlink:href="197/shade/59.png" />
<image x="706" y="672" width="15" height="15" xlink:href="197/shade/60.png" />
<image x="706" y="672" width="16" height="16" xlink:href="197/shade/61.png" />
<image x="709" y="675" width="10" height="10" xlink:href="197/shade/62.png" />
<image x="710" y="676" width="7" height="8" xlink:href="197/shade/63.png" />
<image x="641" y="670" width="16" height="16" xlink:href="197/shade/64.png" />
<image x="640" y="670" width="16" height="15" xlink:href="197/shade/65.png" />
<image x="643" y="672" width="10" height="10" xlink:href="197/shade/66.png" />
<image x="645" y="674" width="7" height="7" xlink:href="197/shade/67.png" />
<image x="653" y="683" width="20" height="20" xlink:href="197/shade/68.png" />
<image x="653" y="683" width="21" height="21" xlink:href="197/shade/69.png" />
<image x="657" y="687" width="12" height="13" xlink:href="197/shade/70.png" />
<image x="658" y="689" width="9" height="9" xlink:href="197/shade/71.png" />
<text 
x="110" 
y="856" 
dx="0,-0.4,0,0,0,0,0,0,0" 
class="s3_197"
>Passage 3</text>

<text 
x="204" 
y="856" 
dx="0,0,0,0,0,0,0,0,0,0,0,0,0,0,0,0,0,0,0,0,0,0,0,0,0,0,0,0,0,0,0,0,0,0,0,0,0,0,0,0,0,0,0,0,0,0,0,0,0,0,0,0,0,0,0,0,0,0,-0.3,0,0,0,0,0,-0.6,-0.4,0,-0.4,-0.2,0,0,0,0,0,0,-0.3,0,0,0,-0.3,0,0,0,0" 
class="s4_197"
>Listen to Leo talk to his mom about living a healthier lifestyle. Are the following </text>

<text 
x="110" 
y="882" 
dx="0,0,0,0,0,0,0,0,0,0,0,0,0,0,0,0,0,0,0,0,0,0,0,0,-0.2,0,0,0,0,0,0,0,0" 
class="s4_197"
>statements true (T) or false (F)?</text>

<text 
x="620" 
y="919" 
dx="0" 
class="s8_197"
>T</text>

<text 
x="661" 
y="919" 
dx="0" 
class="s8_197"
>F</text>

<text 
x="116" 
y="957" 
dx="0" 
class="s8_197"
>1</text>

<text 
x="139" 
y="957" 
dx="0,0,0,0,0,0,0,0,0,0,0,-0.2,0,0,0,0,0,-0.4,-0.4,0,-0.2,0,0,0,0,0,0,0,0,0,-0.4,-1.3,-0.4" 
class="s4_197"
>Leo has already exercised today. </text>

<path d="M625.5,959.9c5.8,0,10.5,-4.7,10.5,-10.5c0,-5.8,-4.7,-10.5,-10.5,-10.5c-5.8,0,-10.5,4.7,-10.5,10.5c0,5.8,4.7,10.5,10.5,10.5Z" class="g8_197" />
<path d="M666.5,959.9c5.7,0,10.4,-4.7,10.4,-10.5c0,-5.8,-4.7,-10.5,-10.4,-10.5c-5.8,0,-10.5,4.7,-10.5,10.5c0,5.8,4.7,10.5,10.5,10.5Z" class="g8_197" />
<text 
x="116" 
y="995" 
dx="0" 
class="s8_197"
>2</text>

<text 
x="139" 
y="998" 
dx="0,0,0,0,0,0,0,0,0,0,0,0,0,0,-0.4,-0.4,0,-0.2,0,0,0,0,0,0,0,0,0,0,-0.2,-0.3,-1.3" 
class="s4_197"
>Leo plans to exercise tomorrow.</text>

<path d="M625.5,1001.1c5.8,0,10.5,-4.6,10.5,-10.4c0,-5.8,-4.7,-10.5,-10.5,-10.5c-5.8,0,-10.5,4.7,-10.5,10.5c0,5.8,4.7,10.4,10.5,10.4Z" class="g8_197" />
<path d="M666.5,1001.1c5.7,0,10.4,-4.6,10.4,-10.4c0,-5.8,-4.7,-10.5,-10.4,-10.5c-5.8,0,-10.5,4.7,-10.5,10.5c0,5.8,4.7,10.4,10.5,10.4Z" class="g8_197" />
<text 
x="115" 
y="1039" 
dx="0" 
class="s8_197"
>3</text>

<text 
x="139" 
y="1039" 
dx="0,0,0,0,0,0,0,0,0,0,-0.4,-0.4,0,-0.2,0,0,0,0,0,0,0,0,0,0,-0.2,0,0,0,0,0,0,0,0,0,0,0,-0.4,0,0,0,0,0,0,0,0,0,0,0,0,0,-0.2,-0.3,-1.3" 
class="s4_197"
>Leo will exercise with Martin the day after tomorrow.</text>

<path d="M625.5,1042.4c5.8,0,10.5,-4.7,10.5,-10.5c0,-5.8,-4.7,-10.5,-10.5,-10.5c-5.8,0,-10.5,4.7,-10.5,10.5c0,5.8,4.7,10.5,10.5,10.5Z" class="g8_197" />
<path d="M666.5,1042.4c5.7,0,10.4,-4.7,10.4,-10.5c0,-5.8,-4.7,-10.5,-10.4,-10.5c-5.8,0,-10.5,4.7,-10.5,10.5c0,5.8,4.7,10.5,10.5,10.5Z" class="g8_197" />
<text 
x="115" 
y="1080" 
dx="0" 
class="s8_197"
>4</text>

<text 
x="139" 
y="1080" 
dx="0,0,0,0,0,0,-0.4,0,0,0,0,0,0,0,0,0,0,0,-0.4,-0.4,0,-0.2,0,0,0,0,0,0,0,0,0,0,-0.3,0,0,-0.4,0,0,0,-0.4" 
class="s4_197"
>Leo says he will exercise this weekend. </text>

<path d="M625.5,1083.3c5.8,0,10.5,-4.7,10.5,-10.4c0,-5.8,-4.7,-10.5,-10.5,-10.5c-5.8,0,-10.5,4.7,-10.5,10.5c0,5.7,4.7,10.4,10.5,10.4Z" class="g8_197" />
<path d="M666.5,1083.3c5.7,0,10.4,-4.7,10.4,-10.4c0,-5.8,-4.7,-10.5,-10.4,-10.5c-5.8,0,-10.5,4.7,-10.5,10.5c0,5.7,4.7,10.4,10.5,10.4Z" class="g8_197" />


<!-- Any embedded fonts defined here -->
<style type="text/css" ><![CDATA[

@font-face {
	font-family: ProximaNova-Bold_c-5;
	src: url("fonts/ProximaNova-Bold_c-5.woff") format("woff");
}

@font-face {
	font-family: Alegreya-Bold_c-c;
	src: url("fonts/Alegreya-Bold_c-c.woff") format("woff");
}

@font-face {
	font-family: STHupo_bnx;
	src: url("fonts/STHupo_bnx.woff") format("woff");
}

@font-face {
	font-family: Alegreya-Regular_c-8;
	src: url("fonts/Alegreya-Regular_c-8.woff") format("woff");
}

@font-face {
	font-family: STYuanti-SC-Bold_bn_;
	src: url("fonts/STYuanti-SC-Bold_bn_.woff") format("woff");
}

@font-face {
	font-family: ProximaNova-Semibold_cqy;
	src: url("fonts/ProximaNova-Semibold_cqy.woff") format("woff");
}

@font-face {
	font-family: ProximaNova-Extrabld_c-a;
	src: url("fonts/ProximaNova-Extrabld_c-a.woff") format("woff");
}

]]></style>

</svg>
