<?xml version="1.0" encoding="UTF-8" standalone="no"?>
<!DOCTYPE svg PUBLIC "-//W3C//DTD SVG 1.1//EN"
"http://www.w3.org/Graphics/SVG/1.1/DTD/svg11.dtd">


<!-- Page 198 -->
<svg x="0" y="0" width="921" height="1196" viewBox="0 0 921 1196" version="1.1" xmlns="http://www.w3.org/2000/svg" xmlns:xlink="http://www.w3.org/1999/xlink"
style="display: block;margin-left: auto;margin-right: auto;">
<defs>

<style type="text/css"><![CDATA[

.g1_198{
fill: none;
stroke: #3986C6;
stroke-width: 1.6194444;
stroke-linecap: butt;
stroke-linejoin: miter;
stroke-miterlimit: 4;
}
.g2_198{
fill: #3986C6;
}
.g3_198{
fill: #ACBF3B;
}
.g4_198{
fill: none;
stroke: #3986C6;
stroke-width: 1.1458334;
stroke-linecap: butt;
stroke-linejoin: miter;
}

.s1_198{
font-size: 18.33px;
font-family: ProximaNova-Bold_c-5;
fill: #231F20;
}
.s2_198{
font-size: 12.99px;
font-family: ProximaNova-Semibold_c-3;
fill: #231F20;
}
.s3_198{
font-size: 19.10px;
font-family: Alegreya-Regular_c-8;
fill: #231F20;
}
.s4_198{
font-size: 32.08px;
font-family: STKaiti_c-m;
fill: #231F20;
}
.s5_198{
font-size: 18.33px;
font-family: ProximaNova-Extrabld_c-a;
fill: #FFFFFF;
}
.s6_198{
font-size: 25.97px;
font-family: ProximaNova-Bold_c-5;
fill: #FFFFFF;
}
.s7_198{
font-size: 25.97px;
font-family: ProximaNova-Bold_c-5;
fill: #231F20;
}
.s8_198{
font-size: 13.75px;
font-family: ProximaNova-Extrabld_c-a;
fill: #FFFFFF;
}
.s9_198{
font-size: 21.39px;
font-family: ProximaNova-Bold_c-5;
fill: #3986C6;
}
.s10_198{
font-size: 19.10px;
font-family: Alegreya-Bold_c-c;
fill: #3986C6;
}
.s11_198{
font-size: 32.08px;
font-family: STKaitiSC-Regular_cof;
fill: #231F20;
}

]]></style>

</defs>
<path d="M0,0
L0,1196
L921,1196
L921,0 Z " 
fill="#FFFFFF" stroke="none" />
<text 
x="857" 
y="1149" 
dx="0,0,0" 
class="s1_198"
>175</text>

<path d="M872.3,1089.3l0,38.7" class="g1_198" />
<path d="M872.3,1125.4c-1.5,0,-2.6,1.1,-2.6,2.6c0,1.4,1.1,2.6,2.6,2.6c1.4,0,2.6,-1.2,2.6,-2.6c0,-1.5,-1.2,-2.6,-2.6,-2.6Z" class="g2_198" />
<text 
transform="matrix(0, 1, -1, 0, 867, 893)"
dx="0,0,0,0,0,0,0,0,0,0" 
class="s2_198"
>Chapter 7 </text>

<text 
transform="matrix(0, 1, -1, 0, 867, 957)"
dx="0,0" 
class="s2_198"
>• </text>

<text 
transform="matrix(0, 1, -1, 0, 867, 968)"
dx="0,0,0,0,-1.6,0,0,0,0,0,0,0,0,0,0,0,0,-0.6" 
class="s2_198"
>Do You Have Plans?</text>

<text 
x="89" 
y="161" 
dx="0,-0.2,0,0,0,0,0,0,0,0,0,0,0,0,-0.2,0,0,0,-0.4,-0.4,0,0,-0.2,0,0,0,0,0,0,0,0,0,0,0,0,0,0,0,0,0,0,0,0,0,0,0,0,-0.2,0,0,0,0,0,0,0,0,0,0,0,0,0,0,0,0,0,0,0,0,0,0,0,0,0,0,0,0,0,0,0,0,0,0,0,-0.3,0,0,0,0,0,0,0,0,-0.4,0,0" 
class="s3_198"
>In pairs or groups, create a skit in which a group of friends discuss their plans for the next </text>

<text 
x="90" 
y="187" 
dx="0,-0.3,0,0,0,0,-0.4,0,-0.4,-0.4,0,-0.2,0,0,-0.2,0,0,0,-0.2,0,0,0,0,0,0,0,0,0,0,0,0,-0.4,0,0,0,0,0,0,0,0,0,0,0,0,0,0,0,0,0,0,0,0,0,0,0,0,0,0,0,0,0,0,-0.6,0,-0.3,0,0,0,0,0,0,0,0,0,0,0,0,0,0,0,0,0,0,0,0" 
class="s3_198"
>few days. Where are they going, and what do they plan to do? Refer to the images and </text>

<text 
x="90" 
y="213" 
dx="0,-0.4,0,0,-0.3,0,-0.2,0,0,0,-0.3,0,0,0,0,0,0,0,0,0,-0.3,0,0,0,-0.3,0,0,0,0,0,0,0,0,-0.4,0,-0.2,-0.2,0,0,0,0,-0.3,0,0,-0.3,0,0,0,0,0,0,0,0,0,0,0,0,0,0,0,0,0,0,0,0,0,-0.3,0,0,0,0,0,0,0,-0.3,0,0,0,-0.3,0,0,0,0,0,0,0,0,-0.4,-0.4" 
class="s3_198"
>keywords for ideas for your skit. Practice your skit and then perform it for your class. </text>

<text 
x="88" 
y="259" 
dx="0,-0.6,0,0,-0.3,0,-0.2,0,0,0" 
class="s3_198"
>Keywords: </text>

<text 
x="173" 
y="262" 
dx="0,0,-5.4,0,0,-5.4,0,0,-5.4,0" 
class="s4_198"
>想，这儿，那儿，去 </text>

<text 
x="453" 
y="259" 
dx="0,0,0,0,0,0,0,0" 
class="s3_198"
>+ action</text>

<text 
x="515" 
y="262" 
dx="0,-5.4,0,0,0,-5.4,0,0,-5.4,0,0" 
class="s4_198"
>，有意思，觉得，可是，</text>

<text 
x="86" 
y="299" 
dx="0,0,0,0,0,0,0,0,0,0,0,0,0,0,0,0" 
class="s4_198"
>那，吧，今天，明天，后天，星期六</text>

<path d="M134,418.7c0,0,-9.2,0,-9.2,-9.2l0,-15.1l16,0c0,0,9.2,0,9.2,9.2l0,15.1Z" class="g3_198" />
<text 
x="130" 
y="413" 
dx="0" 
class="s5_198"
>´</text>

<path d="M134,578c0,0,-9.2,0,-9.2,-9.2l0,-15.1l16,0c0,0,9.2,0,9.2,9.1l0,15.2Z" class="g3_198" />
<text 
x="130" 
y="573" 
dx="0" 
class="s5_198"
>C</text>

<path d="M494.5,418.7c0,0,-9.2,0,-9.2,-9.2l0,-15.1l16.1,0c0,0,9.1,0,9.1,9.2l0,15.1Z" class="g3_198" />
<text 
x="491" 
y="413" 
dx="0" 
class="s5_198"
>B</text>

<path d="M494.5,578c0,0,-9.2,0,-9.2,-9.2l0,-15.1l16.1,0c0,0,9.1,0,9.1,9.1l0,15.2Z" class="g3_198" />
<text 
x="491" 
y="573" 
dx="0" 
class="s5_198"
>D</text>

<path d="M106.8,121C96.6,121,88.4,112.8,88.4,102.7l0,-20.2l23.2,0c10.1,0,18.3,8.2,18.3,18.3l0,20.2Z" class="g2_198" />
<path d="M99,83.1l305.6,0" class="g4_198" />
<path d="M112.8,120.6l291.8,0" class="g4_198" />
<text 
x="99" 
y="109" 
dx="0,0" 
class="s6_198"
>B </text>

<text 
x="140" 
y="109" 
dx="0,0,0,0,0,0,0,0,0" 
class="s7_198"
>Speaking </text>

<path d="M274.3,112.5c-6,0,-10.8,-4.8,-10.8,-10.8l0,-10.8l131,0c6,0,10.8,4.8,10.8,10.8l0,10.8Z" class="g3_198" />
<path d="M275.6,109.9l119.5,0l0,-15.2l-119.5,0l0,15.2Z" class="g3_198" />
<text 
x="276" 
y="105" 
dx="0,0,0,0,0,0,0,-0.9,-0.9,0,0,0,0,0" 
class="s8_198"
>Pre±e³t´ti²³´µ</text>

<image preserveAspectRatio="none" x="163" y="338" width="233" height="139" xlink:href="198/img/1.png" />
<image preserveAspectRatio="none" x="526" y="336" width="232" height="140" xlink:href="198/img/2.png" />
<image preserveAspectRatio="none" x="163" y="495" width="233" height="141" xlink:href="198/img/3.png" />
<image preserveAspectRatio="none" x="526" y="495" width="233" height="141" xlink:href="198/img/4.png" />
<text 
x="89" 
y="757" 
dx="0,0,0,0,0,0,0,-0.2,0,0,0" 
class="s9_198"
>Comic Strip</text>

<text 
x="88" 
y="790" 
dx="0,0,-0.2,-0.4,0,0,0,0,0,0,0,0,0,0,0,0,0,0,-0.3,0,0,0,0,0,0,0,0,0,0,0,0,0,0,0,0,0,0,0,0,0,0,-0.2,0,0,0,0,0,0,0,0,-0.2,0,0,0,0,0,0,0,-0.4,-0.4" 
class="s3_198"
>Draw and write a comic strip that has three or more panels. </text>

<text 
x="89" 
y="823" 
dx="0,0,0,0,0,0,0" 
class="s10_198"
>Step 1:</text>

<text 
x="143" 
y="823" 
dx="0,0,0,0,0,0,0,0,0,0,0,0,0,0,-0.2,0,0,0,0,0,0,0,0,0,0,0,0,0,0,0,0,0,0,0,0" 
class="s3_198"
>Decide on characters and a setting.</text>

<text 
x="89" 
y="856" 
dx="0,0,0,0,0,0,0" 
class="s10_198"
>Step 2:</text>

<text 
x="146" 
y="856" 
dx="0,-0.2,0,0,0,0,0,0,0,0,0,0,0,0,0,0,0,0,0,0,0,0,0,0,0,0,0,0,0,0,0,0,0,0,0,0,0,-0.3,-1.3,-0.4,0,0,0,0,0,0,0,0,0,-0.2,0,0,0,0,-0.3,0,0,0,0,0,0,-0.3,0,0,0,0,0,0,0,0,0,0,0,0,-0.3,0,0,0,0,-0.3,0,0" 
class="s3_198"
>Pick one of the suggested titles below, or get creative and come up with your own!</text>

<text 
x="85" 
y="905" 
dx="0,0,0,0,0,0,0,0,0,0,0" 
class="s11_198"
>爸爸的生日是几月几号？</text>

<text 
x="85" 
y="941" 
dx="0,0,0,0,0,0,0,0,0,0" 
class="s11_198"
>我这个星期没有空……</text>

<text 
x="85" 
y="978" 
dx="0,0,0,0,0,0,0,0" 
class="s11_198"
>我有一个好主意！</text>

<text 
x="85" 
y="1015" 
dx="0,0,0,0,0,0,0,0,0,0,0,0,0,0,0" 
class="s11_198"
>他 / 她一定很喜欢这个礼物！</text>

<text 
x="89" 
y="1056" 
dx="0,0,0,0,0,0,0" 
class="s10_198"
>Step 3:</text>

<text 
x="145" 
y="1056" 
dx="0,0,-0.2,0,0,0,0,0,0,0,0,0,0,0,0,0,0,0,0,0,0,0,0,0,0,0,0,-0.3,0,0,0,0,0,0,0,0,0,0,0,0,0,0,0,-0.4,-0.3,0,0,-0.3,0,0,0,0,0,0,0,0,0,0,0,0,0,0,0,0,0,0,0,0" 
class="s3_198"
>Draft the dialogue of the comic and then have your teacher check it.</text>

<text 
x="89" 
y="1089" 
dx="0,0,0,0,0,0,0" 
class="s10_198"
>Step 4:</text>

<text 
x="146" 
y="1089" 
dx="0,0,0,0,0,0,0,0,0,0,0,-0.3,0,0,0,0,0,0,0,0,0,0,-0.3,0,0,-0.3,0,0,0,0,0,0,0,0,-0.3,0,0,0,-0.3,0,0,0,0,-0.3,0,0,0,-0.6,-0.4,0,0,-0.2,-0.4,0,0,0,0,-0.2,0,0,0,0,0,0,-0.4,0,0,0,0" 
class="s3_198"
>Plan out how much space you need for your comic. Draw a rough sketch.</text>

<text 
x="89" 
y="1121" 
dx="0,0,0,0,0,0,0" 
class="s10_198"
>Step 5:</text>

<text 
x="145" 
y="1121" 
dx="0,-0.4,-0.2,0,0,0,0,0,0,0,0,0,0,0,0,0,0,-0.2,0,0,0,0,0,0,0,-0.3,0,0,0,0,-0.3,0,0,0,0,0,0,0,0,0,0,0,0,0,0,0,0,0,0,0,0,-0.3,0,0,0,0,0,0,0,0,0,0,0,0,0,0,-0.3,0,0,0,0,0,0,0,-0.4" 
class="s3_198"
>Create a final draft of your comic strip based on your teacher’s feedback. </text>

<path d="M107.7,719.9c-10.1,0,-18.3,-8.2,-18.3,-18.3l0,-20.2l23.1,0c10.1,0,18.3,8.2,18.3,18.3l0,20.2Z" class="g2_198" />
<path d="M99.9,682l350.6,0" class="g4_198" />
<path d="M113.7,719.4l336.8,0" class="g4_198" />
<text 
x="100" 
y="708" 
dx="0,0" 
class="s6_198"
>C </text>

<text 
x="141" 
y="708" 
dx="0,0,0,0,0,0,0,0,0,0,0,0,0,0" 
class="s7_198"
>Final Project </text>

<path d="M312.6,712.2c-6.2,0,-11.2,-5,-11.2,-11.2l0,-11.2l138.3,0c6.2,0,11.2,5,11.2,11.2l0,11.2Z" class="g3_198" />
<text 
x="318" 
y="704" 
dx="0,0,0,0,0,0,0,-0.9,-0.9,0,0,0,0,0" 
class="s8_198"
>Pre±e³t´ti²³´µ</text>



<!-- Any embedded fonts defined here -->
<style type="text/css" ><![CDATA[

@font-face {
	font-family: ProximaNova-Bold_c-5;
	src: url("fonts/ProximaNova-Bold_c-5.woff") format("woff");
}

@font-face {
	font-family: Alegreya-Bold_c-c;
	src: url("fonts/Alegreya-Bold_c-c.woff") format("woff");
}

@font-face {
	font-family: Alegreya-Regular_c-8;
	src: url("fonts/Alegreya-Regular_c-8.woff") format("woff");
}

@font-face {
	font-family: ProximaNova-Semibold_c-3;
	src: url("fonts/ProximaNova-Semibold_c-3.woff") format("woff");
}

@font-face {
	font-family: STKaiti_c-m;
	src: url("fonts/STKaiti_c-m.woff") format("woff");
}

@font-face {
	font-family: STKaitiSC-Regular_cof;
	src: url("fonts/STKaitiSC-Regular_cof.woff") format("woff");
}

@font-face {
	font-family: ProximaNova-Extrabld_c-a;
	src: url("fonts/ProximaNova-Extrabld_c-a.woff") format("woff");
}

]]></style>

</svg>
