<?xml version="1.0" encoding="UTF-8" standalone="no"?>
<!DOCTYPE svg PUBLIC "-//W3C//DTD SVG 1.1//EN"
"http://www.w3.org/Graphics/SVG/1.1/DTD/svg11.dtd">


<!-- Page 319 -->
<svg x="0" y="0" width="921" height="1196" viewBox="0 0 921 1196" version="1.1" xmlns="http://www.w3.org/2000/svg" xmlns:xlink="http://www.w3.org/1999/xlink"
style="display: block;margin-left: auto;margin-right: auto;">
<defs>

<style type="text/css"><![CDATA[

.g1_319{
fill: none;
stroke: #3986C6;
stroke-width: 1.6194444;
stroke-linecap: butt;
stroke-linejoin: miter;
stroke-miterlimit: 4;
}
.g2_319{
fill: #3986C6;
}
.g3_319{
fill: none;
stroke: #ACBF3B;
stroke-width: 2.2916667;
stroke-linecap: butt;
stroke-linejoin: miter;
stroke-miterlimit: 4;
}
.g4_319{
fill: none;
stroke: #3986C6;
stroke-width: 1.1458334;
stroke-linecap: butt;
stroke-linejoin: miter;
stroke-miterlimit: 4;
}
.g5_319{
fill: #FFFFFF;
}
.g6_319{
fill: none;
stroke: #3986C6;
stroke-width: 1.1458334;
stroke-linecap: butt;
stroke-linejoin: miter;
}
.g7_319{
fill: #ACBF3B;
}

.s1_319{
font-size: 12.99px;
font-family: ProximaNova-Semibold_d8z;
fill: #231F20;
}
.s2_319{
font-size: 18.33px;
font-family: ProximaNova-Bold_d8s;
fill: #231F20;
}
.s3_319{
font-size: 19.10px;
font-family: Alegreya-Bold_d8_;
fill: #3986C6;
}
.s4_319{
font-size: 19.10px;
font-family: Alegreya-Regular_d8v;
fill: #231F20;
}
.s5_319{
font-size: 19.86px;
font-family: ProximaNova-Bold_d8s;
fill: #231F20;
}

]]></style>

</defs>
<path d="M0,0
L0,1196
L921,1196
L921,0 Z " 
fill="#FFFFFF" stroke="none" />
<text 
transform="matrix(0, -1, 1, 0, 54, 1084)"
dx="0,0,0,0,0,0,0,0,0,0,0,0,0,0,0,0,0,0,0" 
class="s1_319"
>Go Far with Chinese</text>

<text 
x="32" 
y="1149" 
dx="0,0,0" 
class="s2_319"
>296</text>

<path d="M50.4,1089.3l0,38.7" class="g1_319" />
<path d="M50.4,1125.4c-1.4,0,-2.5,1.1,-2.5,2.6c0,1.4,1.1,2.6,2.5,2.6c1.5,0,2.6,-1.2,2.6,-2.6c0,-1.5,-1.1,-2.6,-2.6,-2.6Z" class="g2_319" />
<image preserveAspectRatio="none" x="17" y="22" width="365" height="370" xlink:href="319/img/1.png" />
<image preserveAspectRatio="none" x="382" y="22" width="364" height="370" xlink:href="319/img/2.png" />
<image preserveAspectRatio="none" x="746" y="22" width="157" height="845" xlink:href="319/img/3.png" />
<image preserveAspectRatio="none" x="17" y="391" width="365" height="370" xlink:href="319/img/4.png" />
<image preserveAspectRatio="none" x="382" y="391" width="364" height="370" xlink:href="319/img/5.png" />
<image preserveAspectRatio="none" x="17" y="761" width="729" height="106" xlink:href="319/img/6.png" />
<text 
x="688" 
y="922" 
dx="0" 
class="s3_319"
>T</text>

<text 
x="729" 
y="922" 
dx="0" 
class="s3_319"
>F</text>

<text 
x="159" 
y="960" 
dx="0" 
class="s3_319"
>1</text>

<text 
x="183" 
y="960" 
dx="0,-0.2,0,0,0,0,0,0,-0.3,0,0,0,0,0,-0.3,0,0,0,0,0,0,0,0,0,0,0,0,0.3,-1.3" 
class="s4_319"
>Martin feels cold and hungry.</text>

<path d="M694.2,962.9c5.8,0,10.5,-4.6,10.5,-10.4C704.7,946.7,700,942,694.2,942c-5.7,0,-10.4,4.7,-10.4,10.5c0,5.8,4.7,10.4,10.4,10.4Z" class="g3_319" />
<path d="M735.2,962.9c5.8,0,10.5,-4.6,10.5,-10.4C745.7,946.7,741,942,735.2,942c-5.8,0,-10.5,4.7,-10.5,10.5c0,5.8,4.7,10.4,10.5,10.4Z" class="g3_319" />
<text 
x="160" 
y="998" 
dx="0" 
class="s3_319"
>2</text>

<text 
x="183" 
y="1001" 
dx="0,-0.4,0,0,0,0,0,0,0,0,0,0,0,0,0,0,0,0,-0.2,0,0,0,0,0,0,0,0,0,0,0,0,-0.3,0,0,0" 
class="s4_319"
>Isabella asks if Martin has a cold.</text>

<path d="M694.2,1004.2c5.8,0,10.5,-4.7,10.5,-10.5c0,-5.8,-4.7,-10.4,-10.5,-10.4c-5.7,0,-10.4,4.6,-10.4,10.4c0,5.8,4.7,10.5,10.4,10.5Z" class="g3_319" />
<path d="M735.2,1004.2c5.8,0,10.5,-4.7,10.5,-10.5c0,-5.8,-4.7,-10.4,-10.5,-10.4c-5.8,0,-10.5,4.6,-10.5,10.4c0,5.8,4.7,10.5,10.5,10.5Z" class="g3_319" />
<text 
x="159" 
y="1039" 
dx="0" 
class="s3_319"
>3</text>

<text 
x="183" 
y="1042" 
dx="0,-0.3,-0.3,-0.3,0,-0.2,0,0,0,0,0,0,0,0,-0.6,0,0,0,-0.4,0,-0.2,0,0,0,0,0,0,0,0,0,0,0,0,0,0,0,0,0,0,0,0,0,-0.3,0,-0.3,0,-1.5" 
class="s4_319"
>According to Emma, Martin has a bit of a fever.</text>

<path d="M694.2,1045.4c5.8,0,10.5,-4.6,10.5,-10.4c0,-5.8,-4.7,-10.5,-10.5,-10.5c-5.7,0,-10.4,4.7,-10.4,10.5c0,5.8,4.7,10.4,10.4,10.4Z" class="g3_319" />
<path d="M735.2,1045.4c5.8,0,10.5,-4.6,10.5,-10.4c0,-5.8,-4.7,-10.5,-10.5,-10.5c-5.8,0,-10.5,4.7,-10.5,10.5c0,5.8,4.7,10.4,10.5,10.4Z" class="g3_319" />
<text 
x="159" 
y="1084" 
dx="0" 
class="s3_319"
>4</text>

<text 
x="183" 
y="1084" 
dx="0,-0.2,0,0,0,0,0,0,0,0,0,0,0,-0.6,0,0,0,0,-0.3,0,0,0,0,0,0,0,0,0,0,0,0,-0.3,0,0,0,0,0,0,0,0,0,0,0,0,0" 
class="s4_319"
>Martin asks Emma for some hot water to drink.</text>

<path d="M694.2,1086.7c5.8,0,10.5,-4.7,10.5,-10.5c0,-5.8,-4.7,-10.4,-10.5,-10.4c-5.7,0,-10.4,4.6,-10.4,10.4c0,5.8,4.7,10.5,10.4,10.5Z" class="g3_319" />
<path d="M735.2,1086.7c5.8,0,10.5,-4.7,10.5,-10.5c0,-5.8,-4.7,-10.4,-10.5,-10.4c-5.8,0,-10.5,4.6,-10.5,10.4c0,5.8,4.7,10.5,10.5,10.5Z" class="g3_319" />
<text 
x="160" 
y="1125" 
dx="0" 
class="s3_319"
>5</text>

<text 
x="183" 
y="1125" 
dx="0,-0.6,0,0,0,0,0,0,0,0,0,-0.2,0,0,0,0,0,0,0,0,0,0,0,0,0,0,0,0,0,0,-0.2,0,0,0,0,0,0,-0.2,0,0,0,0,0,0,0,0,0,0,0,0,0,0,0" 
class="s4_319"
>Emma will call the school to report Martin as absent.</text>

<path d="M694.2,1127.9c5.8,0,10.5,-4.6,10.5,-10.4c0,-5.8,-4.7,-10.5,-10.5,-10.5c-5.7,0,-10.4,4.7,-10.4,10.5c0,5.8,4.7,10.4,10.4,10.4Z" class="g3_319" />
<path d="M735.2,1127.9c5.8,0,10.5,-4.6,10.5,-10.4c0,-5.8,-4.7,-10.5,-10.5,-10.5c-5.8,0,-10.5,4.7,-10.5,10.5c0,5.8,4.7,10.4,10.5,10.4Z" class="g3_319" />
<path d="M110.1,955.3l0,-60.5l330.4,0" class="g4_319" />
<path d="M440.5,897.5c1.5,0,2.7,-1.2,2.7,-2.7c0,-1.6,-1.2,-2.8,-2.7,-2.8c-1.5,0,-2.8,1.2,-2.8,2.8c0,1.5,1.3,2.7,2.8,2.7Z" class="g2_319" />
<path d="M404.3,886.4c5.5,10.7,1.2,23.9,-9.5,29.3c-10.8,5.5,-23.9,1.3,-29.4,-9.5c-5.5,-10.7,-1.2,-23.9,9.5,-29.3c10.8,-5.5,23.9,-1.3,29.4,9.5Z" class="g5_319" />
<path d="M404.3,886.4c5.5,10.7,1.2,23.9,-9.5,29.3c-10.8,5.5,-23.9,1.3,-29.4,-9.5c-5.5,-10.7,-1.2,-23.9,9.5,-29.3c10.8,-5.5,23.9,-1.3,29.4,9.5Z" class="g6_319" />
<path d="M411.9,874.5c-1.2,-1,-3,-0.7,-4.1,0.6l-20.5,24.4c-1.1,1.3,-3,1.4,-4.2,0.2l-3,-2.9c-1.2,-1.2,-3.1,-1.3,-4.1,-0.2c-1.1,1.1,-1,3,0.2,4.2l7.3,7.1c1.2,1.2,3.1,1.1,4.2,-0.2l24.3,-29c1.1,-1.3,1.1,-3.2,-0.1,-4.2Z" class="g7_319" />
<path d="M125.4,907.1l226.5,0l0,-23.4l-226.5,0l0,23.4Z" class="g5_319" />
<text 
x="136" 
y="899" 
dx="0,0,0,0,0,0,0,0,0,0,0,0,0,0,0,0,0,0,0" 
class="s5_319"
>Comprehension Check</text>



<!-- Any embedded fonts defined here -->
<style type="text/css" ><![CDATA[

@font-face {
	font-family: Alegreya-Bold_d8_;
	src: url("fonts/Alegreya-Bold_d8_.woff") format("woff");
}

@font-face {
	font-family: ProximaNova-Bold_d8s;
	src: url("fonts/ProximaNova-Bold_d8s.woff") format("woff");
}

@font-face {
	font-family: Alegreya-Regular_d8v;
	src: url("fonts/Alegreya-Regular_d8v.woff") format("woff");
}

@font-face {
	font-family: ProximaNova-Semibold_d8z;
	src: url("fonts/ProximaNova-Semibold_d8z.woff") format("woff");
}

]]></style>

</svg>
