<?xml version="1.0" encoding="UTF-8" standalone="no"?>
<!DOCTYPE svg PUBLIC "-//W3C//DTD SVG 1.1//EN"
"http://www.w3.org/Graphics/SVG/1.1/DTD/svg11.dtd">


<!-- Page 427 -->
<svg x="0" y="0" width="921" height="1196" viewBox="0 0 921 1196" version="1.1" xmlns="http://www.w3.org/2000/svg" xmlns:xlink="http://www.w3.org/1999/xlink"
style="display: block;margin-left: auto;margin-right: auto;">
<defs>

<style type="text/css"><![CDATA[

.g1_427{
fill: none;
stroke: #3986C6;
stroke-width: 1.6194444;
stroke-linecap: butt;
stroke-linejoin: miter;
stroke-miterlimit: 4;
}
.g2_427{
fill: #3986C6;
}
.g3_427{
fill: #F0F1F2;
}
.g4_427{
fill: #BDBEC1;
}
.g5_427{
fill: none;
stroke: #BDBEC1;
stroke-width: 0.38194445;
stroke-linecap: butt;
stroke-linejoin: miter;
}
.g6_427{
fill: none;
stroke: #BDBEC1;
stroke-width: 1.5277778;
stroke-linecap: butt;
stroke-linejoin: miter;
}

.s1_427{
font-size: 12.99px;
font-family: ProximaNova-Semibold_cqy;
fill: #231F20;
}
.s2_427{
font-size: 18.33px;
font-family: ProximaNova-Bold_ddv;
fill: #231F20;
}
.s3_427{
font-size: 18.33px;
font-family: ProximaNova-Bold_ddv;
fill: #57585A;
}
.s4_427{
font-size: 19.10px;
font-family: Alegreya-Regular_ddy;
fill: #231F20;
}
.s5_427{
font-size: 32.08px;
font-family: STKaitiSC-Regular_cof;
fill: #231F20;
}
.s6_427{
font-size: 21.39px;
font-family: ProximaNova-Semibold_ddu;
fill: #3F3F40;
}

]]></style>

</defs>
<path d="M0,0
L0,1196
L921,1196
L921,0 Z " 
fill="#FFFFFF" stroke="none" />
<text 
transform="matrix(0, -1, 1, 0, 54, 1084)"
dx="0,0,0,0,0,0,0,0,0,0,0,0,0,0,0,0,0,0,0" 
class="s1_427"
>Go Far with Chinese</text>

<text 
x="32" 
y="1149" 
dx="0,0,0" 
class="s2_427"
>404</text>

<path d="M50.4,1089.3l0,38.7" class="g1_427" />
<path d="M50.4,1125.4c-1.4,0,-2.5,1.1,-2.5,2.6c0,1.4,1.1,2.6,2.5,2.6c1.5,0,2.6,-1.2,2.6,-2.6c0,-1.5,-1.1,-2.6,-2.6,-2.6Z" class="g2_427" />
<path d="M110,124.7l391.9,0l0,42.3L110,167l0,-42.3Zm391.9,0l123.7,0l0,42.3l-123.7,0l0,-42.3Zm123.7,0l140.4,0l0,42.3l-140.4,0l0,-42.3Zm140.4,0l65.7,0l0,42.3L766,167l0,-42.3ZM110,209.3l391.9,0l0,42.3l-391.9,0l0,-42.3Zm391.9,0l123.7,0l0,42.3l-123.7,0l0,-42.3Zm123.7,0l140.4,0l0,42.3l-140.4,0l0,-42.3Zm140.4,0l65.7,0l0,42.3l-65.7,0l0,-42.3ZM110,293.9l391.9,0l0,42.3l-391.9,0l0,-42.3Zm391.9,0l123.7,0l0,42.3l-123.7,0l0,-42.3Zm123.7,0l140.4,0l0,42.3l-140.4,0l0,-42.3Zm140.4,0l65.7,0l0,42.3l-65.7,0l0,-42.3ZM110,378.6l391.9,0l0,61l-391.9,0l0,-61Zm391.9,0l123.7,0l0,61l-123.7,0l0,-61Zm123.7,0l140.4,0l0,61l-140.4,0l0,-61Zm140.4,0l65.7,0l0,61l-65.7,0l0,-61ZM110,481.9l391.9,0l0,42.4l-391.9,0l0,-42.4Zm391.9,0l123.7,0l0,42.4l-123.7,0l0,-42.4Zm123.7,0l140.4,0l0,42.4l-140.4,0l0,-42.4Zm140.4,0l65.7,0l0,42.4l-65.7,0l0,-42.4ZM110,566.6l391.9,0l0,42.3l-391.9,0l0,-42.3Zm391.9,0l123.7,0l0,42.3l-123.7,0l0,-42.3Zm123.7,0l140.4,0l0,42.3l-140.4,0l0,-42.3Zm140.4,0l65.7,0l0,42.3l-65.7,0l0,-42.3ZM110,735.7l391.9,0l0,42.3L110,778l0,-42.3Zm391.9,0l123.7,0l0,42.3l-123.7,0l0,-42.3Zm123.7,0l140.4,0l0,42.3l-140.4,0l0,-42.3Zm140.4,0l65.7,0l0,42.3L766,778l0,-42.3ZM110,820.3l391.9,0l0,42.3l-391.9,0l0,-42.3Zm391.9,0l123.7,0l0,42.3l-123.7,0l0,-42.3Zm123.7,0l140.4,0l0,42.3l-140.4,0l0,-42.3Zm140.4,0l65.7,0l0,42.3l-65.7,0l0,-42.3ZM110,906.9l391.9,0l0,42.3l-391.9,0l0,-42.3Zm391.9,0l123.7,0l0,42.3l-123.7,0l0,-42.3Zm123.7,0l140.4,0l0,42.3l-140.4,0l0,-42.3Zm140.4,0l65.7,0l0,42.3l-65.7,0l0,-42.3ZM110,991.6l391.9,0l0,42.3l-391.9,0l0,-42.3Zm391.9,0l123.7,0l0,42.3l-123.7,0l0,-42.3Zm123.7,0l140.4,0l0,42.3l-140.4,0l0,-42.3Zm140.4,0l65.7,0l0,42.3l-65.7,0l0,-42.3Zm-656,85.9l391.9,0l0,42.4l-391.9,0l0,-42.4Zm391.9,0l123.7,0l0,42.4l-123.7,0l0,-42.4Zm123.7,0l140.4,0l0,42.4l-140.4,0l0,-42.4Zm140.4,0l65.7,0l0,42.4l-65.7,0l0,-42.4Z" class="g3_427" />
<path d="M110,651.2l721.7,0l0,42.2l-721.7,0l0,-42.2Z" class="g4_427" />
<path d="M766,293.9l65.7,0" class="g5_427" />
<path d="M766,336.2l65.7,0" class="g5_427" />
<path d="M625.6,293.9l140.4,0" class="g5_427" />
<path d="M625.6,336.2l140.4,0" class="g5_427" />
<path d="M501.9,293.9l123.7,0" class="g5_427" />
<path d="M501.9,336.2l123.7,0" class="g5_427" />
<path d="M110,293.9l391.9,0" class="g5_427" />
<path d="M110,336.2l391.9,0" class="g5_427" />
<path d="M766,378.6l65.7,0" class="g5_427" />
<path d="M766,439.6l65.7,0" class="g5_427" />
<path d="M625.6,378.6l140.4,0" class="g5_427" />
<path d="M625.6,439.6l140.4,0" class="g5_427" />
<path d="M501.9,378.6l123.7,0" class="g5_427" />
<path d="M501.9,439.6l123.7,0" class="g5_427" />
<path d="M110,378.6l391.9,0" class="g5_427" />
<path d="M110,439.6l391.9,0" class="g5_427" />
<path d="M625.6,481.9l140.4,0" class="g5_427" />
<path d="M625.6,524.3l140.4,0" class="g5_427" />
<path d="M501.9,481.9l123.7,0" class="g5_427" />
<path d="M501.9,524.3l123.7,0" class="g5_427" />
<path d="M110,481.9l391.9,0" class="g5_427" />
<path d="M110,524.3l391.9,0" class="g5_427" />
<path d="M766,481.9l65.7,0" class="g5_427" />
<path d="M766,524.3l65.7,0" class="g5_427" />
<path d="M766,566.6l65.7,0" class="g5_427" />
<path d="M766,608.9l65.7,0" class="g5_427" />
<path d="M625.6,566.6l140.4,0" class="g5_427" />
<path d="M625.6,608.9l140.4,0" class="g5_427" />
<path d="M501.9,566.6l123.7,0" class="g5_427" />
<path d="M501.9,608.9l123.7,0" class="g5_427" />
<path d="M110,566.6l391.9,0" class="g5_427" />
<path d="M110,608.9l391.9,0" class="g5_427" />
<path d="M625.6,735.7l140.4,0" class="g5_427" />
<path d="M625.6,778L766,778" class="g5_427" />
<path d="M501.9,735.7l123.7,0" class="g5_427" />
<path d="M501.9,778l123.7,0" class="g5_427" />
<path d="M110,735.7l391.9,0" class="g5_427" />
<path d="M110,778l391.9,0" class="g5_427" />
<path d="M625.6,820.3l140.4,0" class="g5_427" />
<path d="M625.6,862.6l140.4,0" class="g5_427" />
<path d="M501.9,820.3l123.7,0" class="g5_427" />
<path d="M501.9,862.6l123.7,0" class="g5_427" />
<path d="M110,820.3l391.9,0" class="g5_427" />
<path d="M110,862.6l391.9,0" class="g5_427" />
<path d="M766,906.9l65.7,0" class="g5_427" />
<path d="M766,949.2l65.7,0" class="g5_427" />
<path d="M625.6,906.9l140.4,0" class="g5_427" />
<path d="M625.6,949.2l140.4,0" class="g5_427" />
<path d="M110,906.9l391.9,0" class="g5_427" />
<path d="M110,949.2l391.9,0" class="g5_427" />
<path d="M501.9,906.9l123.7,0" class="g5_427" />
<path d="M501.9,949.2l123.7,0" class="g5_427" />
<path d="M766,735.7l65.7,0" class="g5_427" />
<path d="M766,778l65.7,0" class="g5_427" />
<path d="M766,820.3l65.7,0" class="g5_427" />
<path d="M766,862.6l65.7,0" class="g5_427" />
<path d="M766,991.6l65.7,0" class="g5_427" />
<path d="M766,1033.9l65.7,0" class="g5_427" />
<path d="M625.6,991.6l140.4,0" class="g5_427" />
<path d="M625.6,1033.9l140.4,0" class="g5_427" />
<path d="M501.9,991.6l123.7,0" class="g5_427" />
<path d="M501.9,1033.9l123.7,0" class="g5_427" />
<path d="M110,991.6l391.9,0" class="g5_427" />
<path d="M110,1033.9l391.9,0" class="g5_427" />
<path d="M110,124.7l391.9,0" class="g6_427" />
<path d="M501.9,124.7l123.7,0" class="g6_427" />
<path d="M625.6,124.7l140.4,0" class="g6_427" />
<path d="M766,124.7l65.7,0" class="g6_427" />
<path d="M110,1077.5l391.9,0" class="g5_427" />
<path d="M501.9,1077.5l123.7,0" class="g5_427" />
<path d="M625.6,1077.5l140.4,0" class="g5_427" />
<path d="M766,1077.5l65.7,0" class="g5_427" />
<path d="M110,1119.9l391.9,0" class="g5_427" />
<path d="M501.9,1119.9l123.7,0" class="g5_427" />
<path d="M625.6,1119.9l140.4,0" class="g5_427" />
<path d="M766,1119.9l65.7,0" class="g5_427" />
<path d="M110,167l391.9,0" class="g5_427" />
<path d="M501.9,167l123.7,0" class="g5_427" />
<path d="M625.6,167L766,167" class="g5_427" />
<path d="M766,167l65.7,0" class="g5_427" />
<path d="M110,209.3l391.9,0" class="g5_427" />
<path d="M501.9,209.3l123.7,0" class="g5_427" />
<path d="M625.6,209.3l140.4,0" class="g5_427" />
<path d="M766,209.3l65.7,0" class="g5_427" />
<path d="M110,251.6l391.9,0" class="g5_427" />
<path d="M501.9,251.6l123.7,0" class="g5_427" />
<path d="M625.6,251.6l140.4,0" class="g5_427" />
<path d="M766,251.6l65.7,0" class="g5_427" />
<text 
x="116" 
y="110" 
dx="0,0,0,0,0,0,0,0" 
class="s3_427"
>English </text>

<text 
x="508" 
y="110" 
dx="0,0,0,0,0,0,0" 
class="s3_427"
>Chinese</text>

<text 
x="632" 
y="110" 
dx="0,0,0,0,0,0" 
class="s3_427"
>Pinyin</text>

<text 
x="772" 
y="110" 
dx="0,-0.4,0,0" 
class="s3_427"
>Page</text>

<text 
x="116" 
y="153" 
dx="0,0,-0.4" 
class="s4_427"
>day</text>

<text 
x="502" 
y="153" 
dx="0" 
class="s5_427"
>天</text>

<text 
x="632" 
y="153" 
dx="0,0,0,0" 
class="s4_427"
>tiān</text>

<text 
x="771" 
y="153" 
dx="0,0,0" 
class="s4_427"
>262</text>

<text 
x="116" 
y="196" 
dx="0,0,0,0,0,0,-0.4,0,0,0,0,0,0,0,0,0,0,0,0,0,-0.2,-0.3" 
class="s4_427"
>the day after tomorrow</text>

<text 
x="503" 
y="196" 
dx="0,0" 
class="s5_427"
>后天</text>

<text 
x="632" 
y="196" 
dx="0,0,0,0,0,0,0" 
class="s4_427"
>hòutiān</text>

<text 
x="771" 
y="196" 
dx="0,0,0" 
class="s4_427"
>158</text>

<text 
x="116" 
y="238" 
dx="0,0,-0.4,0,0,0,0,0,0,0,0,0,0,0,0,0" 
class="s4_427"
>day of the month</text>

<text 
x="502" 
y="238" 
dx="0" 
class="s5_427"
>号</text>

<text 
x="632" 
y="238" 
dx="0,0,0" 
class="s4_427"
>hào</text>

<text 
x="771" 
y="238" 
dx="0,0,0" 
class="s4_427"
>163</text>

<text 
x="116" 
y="280" 
dx="0,0,0,0,0,0,0,0,0" 
class="s4_427"
>difficult</text>

<text 
x="505" 
y="280" 
dx="0" 
class="s5_427"
>难</text>

<text 
x="631" 
y="280" 
dx="0,0,0" 
class="s4_427"
>nán</text>

<text 
x="771" 
y="280" 
dx="0,0,0" 
class="s4_427"
>186</text>

<text 
x="116" 
y="323" 
dx="0,0,0,0,0,0,0,0,0,0,0,0,-0.3,0,0,0,0,0,0,0,0,0,0,0,0,0,0,0,-0.3,-0.2,0,0,0,0,0,0,0" 
class="s4_427"
>a dish (of food); cuisine; vegetables</text>

<text 
x="502" 
y="323" 
dx="0" 
class="s5_427"
>菜</text>

<text 
x="632" 
y="323" 
dx="0,-0.2,0" 
class="s4_427"
>cài</text>

<text 
x="771" 
y="323" 
dx="0,0,0" 
class="s4_427"
>205</text>

<text 
x="116" 
y="365" 
dx="0,0,0,0,0,-0.8,-0.4,0,0,0,0,0,0,-0.4" 
class="s4_427"
>to do, to make</text>

<text 
x="505" 
y="365" 
dx="0" 
class="s5_427"
>做</text>

<text 
x="632" 
y="365" 
dx="0,0,0" 
class="s4_427"
>zuò</text>

<text 
x="771" 
y="365" 
dx="0,0,0" 
class="s4_427"
>118</text>

<text 
x="115" 
y="404" 
dx="0,0,0,0,-0.3,0,0,0,0,0,0,0,0,0,0,-0.4,0,0,0,0,0,0,0,0,0,0,0,0,0,0,0,0,0,0,0,0,0,0,0,-0.4,-0.3,0,0,0,0,0,0,-0.4" 
class="s4_427"
>Do your best! Go! (shouted to cheer players on, </text>

<text 
x="116" 
y="430" 
dx="0,0,0,0,0,-0.2,0,0,0,0,0,0,0,0,0,0,-0.4,0,0,0,0,0,0,0,0,0,0" 
class="s4_427"
>literally means “add fuel”)</text>

<text 
x="505" 
y="417" 
dx="0,0" 
class="s5_427"
>加油</text>

<text 
x="631" 
y="417" 
dx="0,0,0,0,0,-0.3,0" 
class="s4_427"
>jiā yoú</text>

<text 
x="771" 
y="417" 
dx="0,0,0" 
class="s4_427"
>118</text>

<text 
x="116" 
y="468" 
dx="0,0,0" 
class="s4_427"
>dog</text>

<text 
x="505" 
y="468" 
dx="0" 
class="s5_427"
>狗</text>

<text 
x="632" 
y="468" 
dx="0,0,0" 
class="s4_427"
>gǒu</text>

<text 
x="771" 
y="468" 
dx="0,0" 
class="s4_427"
>67</text>

<text 
x="116" 
y="511" 
dx="0,0,0,-1.5,0,0,0,0,0,0,0,0,0,0,0,-0.3,0,0,0,0,0,0,0,-0.3,0,0,0,0,0,0" 
class="s4_427"
>don’t (in advice or a command)</text>

<text 
x="504" 
y="511" 
dx="0" 
class="s5_427"
>别</text>

<text 
x="632" 
y="511" 
dx="0,0,0" 
class="s4_427"
>bié</text>

<text 
x="771" 
y="511" 
dx="0,0,0" 
class="s4_427"
>317</text>

<text 
x="116" 
y="553" 
dx="0,0,0,-1.5,0,0,0,0,0,0,0,0,0,-0.8,-0.4,0,0,0,-1.5,0,0,0,0,-0.4,-0.3,0,0,0" 
class="s4_427"
>don’t need to, don’t have to</text>

<text 
x="502" 
y="553" 
dx="0,0" 
class="s5_427"
>不用</text>

<text 
x="632" 
y="553" 
dx="0,0,0,-0.3,0,0" 
class="s4_427"
>búyòng</text>

<text 
x="771" 
y="553" 
dx="0,0,0" 
class="s4_427"
>262</text>

<text 
x="116" 
y="595" 
dx="0,0,0,0,0,0,0,0" 
class="s4_427"
>to drink</text>

<text 
x="504" 
y="595" 
dx="0" 
class="s5_427"
>喝</text>

<text 
x="632" 
y="595" 
dx="0,0" 
class="s4_427"
>hē</text>

<text 
x="771" 
y="595" 
dx="0,0,0" 
class="s4_427"
>281</text>

<text 
x="116" 
y="638" 
dx="0,0,0,0,0,0,0,0,0,0,0,0,0,0,0,0,0,-0.3,-0.2,0,0,0,0,0,0,0,0,0,0,0,0,0,0,0,0,0,0,0,0,0,0,0,0,0,0,0" 
class="s4_427"
>dumplings (with vegetable and/or meat filling)</text>

<text 
x="505" 
y="638" 
dx="0,0" 
class="s5_427"
>饺子</text>

<text 
x="631" 
y="638" 
dx="0,0,0,0,0,0" 
class="s4_427"
>jiǎozi</text>

<text 
x="771" 
y="638" 
dx="0,0,0" 
class="s4_427"
>212</text>

<text 
x="464" 
y="680" 
dx="0" 
class="s6_427"
>E</text>

<text 
x="116" 
y="722" 
dx="0,0,0,0,0" 
class="s4_427"
>early</text>

<text 
x="504" 
y="722" 
dx="0" 
class="s5_427"
>早</text>

<text 
x="632" 
y="722" 
dx="0,0,0" 
class="s4_427"
>zǎo</text>

<text 
x="771" 
y="722" 
dx="0,0,0" 
class="s4_427"
>281</text>

<text 
x="116" 
y="764" 
dx="0,0,0,0,0,0,0,0,0,0,0,0,0,0,0,0,0,0,0,0,0,0,0,0,0,0,0,0,0,0,0,0,0,0,0,0,0" 
class="s4_427"
>early morning (until about 9:00 a.m.)</text>

<text 
x="504" 
y="764" 
dx="0,0" 
class="s5_427"
>早上</text>

<text 
x="632" 
y="764" 
dx="0,0,0,0,0,0,0,0" 
class="s4_427"
>zǎoshàng</text>

<text 
x="771" 
y="764" 
dx="0,0,0" 
class="s4_427"
>182</text>

<text 
x="116" 
y="807" 
dx="0,0,0,0" 
class="s4_427"
>easy</text>

<text 
x="503" 
y="807" 
dx="0,0" 
class="s5_427"
>容易</text>

<text 
x="631" 
y="807" 
dx="0,-0.2,0,0,0,0" 
class="s4_427"
>róngyì</text>

<text 
x="771" 
y="807" 
dx="0,0,0" 
class="s4_427"
>331</text>

<text 
x="116" 
y="849" 
dx="0,0,0,0,0,0" 
class="s4_427"
>to eat</text>

<text 
x="504" 
y="849" 
dx="0" 
class="s5_427"
>吃</text>

<text 
x="632" 
y="849" 
dx="0,0,0" 
class="s4_427"
>chī</text>

<text 
x="771" 
y="849" 
dx="0,0,0" 
class="s4_427"
>205</text>

<text 
x="116" 
y="892" 
dx="0,0,0,0,0" 
class="s4_427"
>eight</text>

<text 
x="503" 
y="892" 
dx="0" 
class="s5_427"
>八</text>

<text 
x="632" 
y="892" 
dx="0,0" 
class="s4_427"
>bā</text>

<text 
x="771" 
y="892" 
dx="0,0" 
class="s4_427"
>19</text>

<text 
x="115" 
y="936" 
dx="0,-0.6,0,0,0,0,0,0,0,0,0,0,0,0,0,0,0,0" 
class="s4_427"
>English (language)</text>

<text 
x="503" 
y="936" 
dx="0,0" 
class="s5_427"
>英文</text>

<text 
x="630" 
y="936" 
dx="0,-0.8,0,0,0,-0.3,0" 
class="s4_427"
>Yīngwén</text>

<text 
x="771" 
y="936" 
dx="0,0" 
class="s4_427"
>31</text>

<text 
x="116" 
y="978" 
dx="0,0,0,0" 
class="s4_427"
>erhu</text>

<text 
x="503" 
y="978" 
dx="0,0" 
class="s5_427"
>二胡</text>

<text 
x="632" 
y="978" 
dx="0,0,0,0" 
class="s4_427"
>èrhú</text>

<text 
x="771" 
y="978" 
dx="0,0,0" 
class="s4_427"
>133</text>

<text 
x="116" 
y="1020" 
dx="0,0,-0.3,0,0,0,0,0,-0.2" 
class="s4_427"
>even more</text>

<text 
x="502" 
y="1020" 
dx="0" 
class="s5_427"
>更</text>

<text 
x="632" 
y="1020" 
dx="0,0,0,0" 
class="s4_427"
>gèng</text>

<text 
x="771" 
y="1020" 
dx="0,0,0" 
class="s4_427"
>239</text>

<text 
x="116" 
y="1063" 
dx="0,0,-0.3,0,0.3,-1.3,-0.4,0,0,0,0" 
class="s4_427"
>every, each</text>

<text 
x="504" 
y="1063" 
dx="0" 
class="s5_427"
>每</text>

<text 
x="631" 
y="1063" 
dx="0,0,0" 
class="s4_427"
>měi</text>

<text 
x="771" 
y="1063" 
dx="0,0,0" 
class="s4_427"
>262</text>

<text 
x="116" 
y="1106" 
dx="0,-0.4,0,0,0,0,0,0,-0.3" 
class="s4_427"
>expensive</text>

<text 
x="503" 
y="1106" 
dx="0" 
class="s5_427"
>贵</text>

<text 
x="632" 
y="1106" 
dx="0,0,0" 
class="s4_427"
>guì</text>

<text 
x="771" 
y="1106" 
dx="0,0,0" 
class="s4_427"
>186</text>



<!-- Any embedded fonts defined here -->
<style type="text/css" ><![CDATA[

@font-face {
	font-family: Alegreya-Regular_ddy;
	src: url("fonts/Alegreya-Regular_ddy.woff") format("woff");
}

@font-face {
	font-family: ProximaNova-Semibold_cqy;
	src: url("fonts/ProximaNova-Semibold_cqy.woff") format("woff");
}

@font-face {
	font-family: ProximaNova-Bold_ddv;
	src: url("fonts/ProximaNova-Bold_ddv.woff") format("woff");
}

@font-face {
	font-family: STKaitiSC-Regular_cof;
	src: url("fonts/STKaitiSC-Regular_cof.woff") format("woff");
}

@font-face {
	font-family: ProximaNova-Semibold_ddu;
	src: url("fonts/ProximaNova-Semibold_ddu.woff") format("woff");
}

]]></style>

</svg>
