<?xml version="1.0" encoding="UTF-8" standalone="no"?>
<!DOCTYPE svg PUBLIC "-//W3C//DTD SVG 1.1//EN"
"http://www.w3.org/Graphics/SVG/1.1/DTD/svg11.dtd">


<!-- Page 158 -->
<svg x="0" y="0" width="921" height="1196" viewBox="0 0 921 1196" version="1.1" xmlns="http://www.w3.org/2000/svg" xmlns:xlink="http://www.w3.org/1999/xlink"
style="display: block;margin-left: auto;margin-right: auto;">
<defs>

<style type="text/css"><![CDATA[

.g1_158{
fill: none;
stroke: #3986C6;
stroke-width: 1.6194444;
stroke-linecap: butt;
stroke-linejoin: miter;
stroke-miterlimit: 4;
}
.g2_158{
fill: #3986C6;
}
.g3_158{
fill: none;
stroke: #3986C6;
stroke-width: 1.1458334;
stroke-linecap: butt;
stroke-linejoin: miter;
}
.g4_158{
fill: #ACBF3B;
}
.g5_158{
fill: none;
stroke: #ED692E;
stroke-width: 1.5277778;
stroke-linecap: butt;
stroke-linejoin: miter;
stroke-miterlimit: 4;
}
.g6_158{
fill: #ED692E;
}
.g7_158{
fill: none;
stroke: #3986C6;
stroke-width: 1.5277778;
stroke-linecap: butt;
stroke-linejoin: miter;
stroke-miterlimit: 4;
}

.s1_158{
font-size: 12.99px;
font-family: ProximaNova-Semibold_b6k;
fill: #231F20;
}
.s2_158{
font-size: 18.33px;
font-family: ProximaNova-Bold_cws;
fill: #231F20;
}
.s3_158{
font-size: 25.97px;
font-family: ProximaNova-Bold_cws;
fill: #FFFFFF;
}
.s4_158{
font-size: 25.97px;
font-family: ProximaNova-Bold_cws;
fill: #231F20;
}
.s5_158{
font-size: 24.44px;
font-family: ProximaNova-Bold_cws;
fill: #231F20;
}
.s6_158{
font-size: 13.75px;
font-family: ProximaNova-Extrabld_cx4;
fill: #FFFFFF;
}
.s7_158{
font-size: 19.10px;
font-family: Alegreya-Regular_cw_;
fill: #231F20;
}
.s8_158{
font-size: 19.10px;
font-family: Alegreya-Bold_cx0;
fill: #231F20;
}
.s9_158{
font-size: 24.44px;
font-family: Alegreya-Regular_cw_;
fill: #231F20;
}
.s10_158{
font-size: 32.08px;
font-family: STKaitiSC-Regular_cof;
fill: #231F20;
}
.s11_158{
font-size: 22.92px;
font-family: ProximaNova-Extrabld_cx4;
fill: #ED692E;
}
.s12_158{
font-size: 12.22px;
font-family: ProximaNova-Extrabld_cx4;
fill: #ED692E;
}
.s13_158{
font-size: 12.22px;
font-family: ProximaNova-Semibold_cwz;
fill: #565B6E;
}
.s14_158{
font-size: 18.33px;
font-family: Alegreya-Italic_cx9;
fill: #231F20;
}

]]></style>

</defs>
<path d="M0,0
L0,1196
L921,1196
L921,0 Z " 
fill="#FFFFFF" stroke="none" />
<text 
transform="matrix(0, 1, -1, 0, 867, 787)"
dx="0,0,0,0,0,0,0,0,0,0" 
class="s1_158"
>Chapter 6 </text>

<text 
transform="matrix(0, 1, -1, 0, 867, 851)"
dx="0,0" 
class="s1_158"
>• </text>

<text 
transform="matrix(0, 1, -1, 0, 867, 862)"
dx="0,0,0,0,0,0,0,0,0,0,0,0,0,0,0,0,0,0,0,0,0,0,0,0" 
class="s1_158"
>Appreciating New Sounds </text>

<text 
transform="matrix(0, 1, -1, 0, 867, 1020)"
dx="0,0" 
class="s1_158"
>• </text>

<text 
transform="matrix(0, 1, -1, 0, 867, 1031)"
dx="0,0,0,0,0,0,0,0,0" 
class="s1_158"
>Section 1</text>

<text 
x="856" 
y="1149" 
dx="0,0,0" 
class="s2_158"
>135</text>

<path d="M872.3,1089.3l0,38.7" class="g1_158" />
<path d="M872.3,1125.4c-1.5,0,-2.6,1.1,-2.6,2.6c0,1.4,1.1,2.6,2.6,2.6c1.4,0,2.6,-1.2,2.6,-2.6c0,-1.5,-1.2,-2.6,-2.6,-2.6Z" class="g2_158" />
<path d="M108.1,121C98,121,89.8,112.8,89.8,102.7l0,-20.2l23.1,0c10.1,0,18.3,8.2,18.3,18.3l0,20.2Z" class="g2_158" />
<path d="M95.9,82.9l445.4,0" class="g3_158" />
<path d="M109.6,120.4l431.7,0" class="g3_158" />
<text 
x="94" 
y="109" 
dx="0,0,0" 
class="s3_158"
>1d </text>

<text 
x="137" 
y="109" 
dx="0,0,0,0,0,0,0,0,0,0,0,-0.2,0,0,0,0,0" 
class="s4_158"
>Using the Languag</text>

<text 
x="358" 
y="108" 
dx="0" 
class="s5_158"
>e</text>

<path d="M404.2,112.1c-6,0,-10.9,-4.8,-10.9,-10.8l0,-10.9l131.2,0c6,0,10.8,4.9,10.8,10.9l0,10.8Z" class="g4_158" />
<text 
x="409" 
y="105" 
dx="0,0,0,0,0,0,0,0,0,0,0,0,0" 
class="s6_158"
>interPersonal</text>

<text 
x="88" 
y="160" 
dx="0,-0.8,0,0,0,0,0,0,0,-0.2,0,0,0,0,0,0,0,0,0,-0.3,0,0,0,0,0,0,0,0,0,0,0,0,0,0,0,0,0,0,0,0,0,0,0,0,0,0,0,0,0,0,-0.3,0,0,0,0,0,0,0,-0.3,0,0,0,0,-0.2,0,0,0,0,0,0,0,0,0,0,0,0,0,0,-0.2,0,0,0,0,-0.8,-0.4,0,-1,-0.3,0" 
class="s7_158"
>Write three sentences in Chinese describing what you and your family members can do. Two </text>

<text 
x="90" 
y="186" 
dx="0,0,0,0,0,0,0,0,0,0,0,0,0,0,0,0,0,0,0,0,0,0,0,0,0,0,0,0,0,0,0,0,0,0,0,0,0,0,0,0,0,0,0,0,0,-0.2,0,0,0,-0.6,-0.4,0,-0.6,0,0,0,0,-0.3,0,0,0,0,0,0,0,0,0,0,-0.3,0,0,0,0,0,0,0,0,0,0,0,0,0,0,0,0,0,0,0,0,0" 
class="s7_158"
>statements should be true and one should be false. Read your sentences to a classmate who </text>

<text 
x="89" 
y="212" 
dx="0,0,0,0,0,0,0,0.3,0,0,0,0,0,0,0,0,0,0,0,0,0,0,0,0,0,0,0,0,0,0,0,0,0,0,0,0,0,0,-0.2,0,0,0,-0.6,-0.4,0,0,0,0,-0.3,0,0,0,0,0,0,0,0,0,0,0,0,0,0,0,0,0,0,0,0,0,0,0,0,0,0,0,-0.2,0,0,0,0,0,0,0,0,0,0,0,0,0,0,-0.4,0,-0.3,0,0" 
class="s7_158"
>will try to guess which statement is false. If your partner identifies the false statement, you </text>

<text 
x="90" 
y="238" 
dx="0,0,0,0,-0.6,-0.4,0,0,0,0,0,0,0,0,-0.3,0,0,0,0,0,0,0,0,0,0,0,0,0,0,0,0,0,0,0,0,0,0,0,0,0,0,0,0,0,0,0,0,0,0,0,0,0,0,0,0,0,0,0,0,0,-0.4,-0.4,0,-0.3,0,0,0,0,0,0,-0.4" 
class="s7_158"
>lose, but if your classmate picks one of the true statements, you win. </text>

<text 
x="90" 
y="293" 
dx="0,0,0,0,0,0,0,0,0,0" 
class="s8_158"
>Student 1:</text>

<text 
x="176" 
y="295" 
dx="0" 
class="s9_158"
>A</text>

<text 
x="190" 
y="296" 
dx="0,0,0,0,0,0,0" 
class="s10_158"
>，我会踢足球。</text>

<text 
x="415" 
y="295" 
dx="0" 
class="s9_158"
>B</text>

<text 
x="430" 
y="296" 
dx="0,0,0,0,0,0,0,0,0,0" 
class="s10_158"
>，我的妈妈会弹吉他。</text>

<text 
x="176" 
y="332" 
dx="0" 
class="s9_158"
>C</text>

<text 
x="192" 
y="333" 
dx="0,0,0,0,0,0,0,0,0,0" 
class="s10_158"
>，我的哥哥会打篮球。</text>

<text 
x="90" 
y="373" 
dx="0,0,0,0,0,0,0,0,0,0" 
class="s8_158"
>Student 2:</text>

<text 
x="179" 
y="375" 
dx="0" 
class="s9_158"
>B</text>

<text 
x="201" 
y="376" 
dx="0,0,0,0,0,0,0,0,0,0,0,0,0" 
class="s10_158"
>不对，你的妈妈不会弹吉他！</text>

<text 
x="90" 
y="417" 
dx="0,0,0,0,0,0,0,0,0,0" 
class="s8_158"
>Student 1:</text>

<text 
x="176" 
y="420" 
dx="0,0,0,0,0,0,0,0,0" 
class="s10_158"
>对！她不会弹吉他。</text>

<text 
x="465" 
y="419" 
dx="0,0" 
class="s9_158"
>OR</text>

<text 
x="513" 
y="420" 
dx="0,0,0,0,0,0,0,0,0" 
class="s10_158"
>不对！她会弹吉他！</text>

<text 
x="91" 
y="582" 
dx="0,0,0,0,0,0,0,0,0,0,0" 
class="s11_158"
>connections</text>

<text 
x="125" 
y="600" 
dx="0" 
class="s12_158"
>c</text>

<text 
x="134" 
y="600" 
dx="0,0,0,0,0,0,0,0,0,0" 
class="s13_158"
>OMMUNITIES</text>

<text 
x="125" 
y="615" 
dx="0" 
class="s12_158"
>c</text>

<text 
x="134" 
y="615" 
dx="0,0,0,0,0,0,0,-0.1,-0.8,0,0,0" 
class="s13_158"
>OMMUNICATION</text>

<text 
x="125" 
y="629" 
dx="0" 
class="s12_158"
>c</text>

<text 
x="134" 
y="629" 
dx="0,0,-1.2,0,0,0,0" 
class="s13_158"
>ULTURES</text>

<text 
x="125" 
y="644" 
dx="0" 
class="s12_158"
>c</text>

<text 
x="134" 
y="644" 
dx="0,0,0,-0.9,0,0,0,0,0,0" 
class="s13_158"
>OMPARISONS</text>

<path d="M252.1,485.9l506.6,0c15.2,0,27.5,12.3,27.5,27.5l0,576.8" class="g5_158" />
<path d="M252.1,490.5c2.6,0,4.6,-2.1,4.6,-4.6c0,-2.5,-2,-4.6,-4.6,-4.6c-2.5,0,-4.5,2.1,-4.5,4.6c0,2.5,2,4.6,4.5,4.6Z" class="g6_158" />
<text 
x="280" 
y="546" 
dx="0,-0.4,0,0,0,0,0,0,0,-0.4,-0.4,0,0,0,0,0,0,0,0,0,0,0,0,-1.5,0,0,0,0,0,0,0,0,0,0,0,0,0,0,0,0,0,0,0,0,0,0,0,0,-0.4,0,0,-0.4,-0.4,0,0,0,0,0,0,-0.3,0,0" 
class="s7_158"
>Confucius, one of China’s most influential thinkers, believed </text>

<text 
x="280" 
y="572" 
dx="0,0,0,0,0,0,0,0,0,-0.3,-0.3,0,0,0,0,0,0,0,0,0,0,-0.6,-0.4,0,-0.4,0,0,0,0,-0.3,0,0,-0.2,0,0,0,0,0,0,0,0,0,-0.3,0,0,0,-0.3,-0.3,0,0,0,0,0,0,0,0,0,0,0,0" 
class="s7_158"
>in the power of music. He encouraged his followers to study </text>

<text 
x="280" 
y="598" 
dx="0,0,0,0,0,-0.6,-0.4,0,0,0,0,0,0,0,0,0,0,0,0,0,0,0,0,0,0,0,0,0,0,0,0,0,0,0,0,0,0,0,-0.3,-0.3,0,0,0,0,0,0,0,0,0,0,0,0,0,0,0,0,0,0,0,-0.4" 
class="s7_158"
>music, arguing that music is both enjoyable and beneficial. </text>

<text 
x="279" 
y="624" 
dx="0,0,0,0,0,0,0,0,-0.4,0,0,0,0,0,0,0,0,0,0,0,0,0,-0.3,0,0,0,0,0,0,0,0,0,0,0,0,-0.3,0,0,0,0,0,0,0,-0.8,-0.4,0,0,0,0,0,0,0,0,0,0,0,0,-0.3,0,0,0" 
class="s7_158"
>During Confucius’s lifetime 2,500 years ago, the music scene </text>

<text 
x="279" 
y="650" 
dx="0,-0.3,0,0,0,0,0,0,0,0,0,0,0,0,-0.3,0,-0.2,0,0,0,-0.4,0,-0.2,0,0,0,0,0,0,0,0,0,0,0,0,0,0,0,0,0,-0.3,0,0,0,0,0,0,-0.2,0,0,0,0,0,0,0,0,0" 
class="s7_158"
>was quite different. The philosopher never heard an erhu </text>

<text 
x="280" 
y="676" 
dx="0,0,0,0,0,0,0,0,0,0,0,0,0,-0.4,0,0,0,0,0,0,0,0,0,0,0,0,0,0,0,0,0,0,0,0,0,0,0,0,0,0,0,0,0,0,0,0,0,0,0,0,0,0,0,0,-0.4,-0.3,0" 
class="s7_158"
>or a guzheng, but an ancient Chinese ensemble might have </text>

<text 
x="280" 
y="702" 
dx="0,0,0,0,0,0,0,0,0,0,0,0,0,0,0,-0.4,-0.4,0,0,0,0,0,-0.4,-0.4,0,0,0,0,0,0,0,0,0,-0.4" 
class="s7_158"
>included flutes, drums, and bells.</text>

<path d="M176.6,493.3l-22.9,0l-3.6,12.3c0.5,-0.1,1,-0.1,1.5,-0.1c0.5,-0.1,1,-0.1,1.4,-0.1c7.2,0,13.1,2.4,17.8,7.3c4.6,4.9,7,11.1,7,18.7c0,7.8,-2.7,14.3,-7.9,19.3c-5.3,5.1,-11.9,7.6,-19.9,7.6c-9.9,0,-17.7,-4.6,-23.3,-13.8l8.4,-7.2c2.4,4,4.7,6.8,7.1,8.4c2.4,1.6,5.3,2.4,8.7,2.4c4.5,0,8.3,-1.5,11.3,-4.7c3.1,-3.2,4.6,-7.2,4.6,-11.8c0,-4.7,-1.5,-8.6,-4.5,-11.6c-3,-3.2,-6.8,-4.7,-11.3,-4.7c-5.1,0,-9.4,2.2,-13.1,6.6l-3.7,0l11.7,-39.1l30.7,0Z" class="g2_158" />
<path d="M209.8,491.9c6.9,0,13.7,2.7,20.1,8.2l0,-13.3c-6.2,-3.7,-12.6,-5.5,-19.3,-5.5c-12.2,0,-22.2,4.6,-29.9,13.7c-1.7,1.9,-3.1,4,-4.3,6.1l0,38.4c1.6,2.8,3.7,5.4,6.1,7.9c7.5,7.4,16.6,11.1,27.2,11.1c7.1,0,13.8,-1.8,20.2,-5.5l0,-13.5c-1.8,1.5,-3.5,2.9,-5.2,4c-1.6,1,-3.2,1.9,-4.8,2.6c-2.7,1.2,-6.1,1.9,-10,1.9c-7.7,0,-14.1,-2.7,-19.4,-8.1c-5.3,-5.3,-7.9,-11.9,-7.9,-19.7c0,-7.9,2.6,-14.6,7.9,-20c5.2,-5.5,11.7,-8.3,19.3,-8.3Z" class="g2_158" />
<path d="M176,483.4l0,77.2" class="g7_158" />
<path d="M176.8,650.9l-0.7,412.4c0,15.2,12.3,27.5,27.5,27.5l582.3,0" class="g7_158" />
<path d="M785.9,1095.4c2.5,0,4.6,-2,4.6,-4.6c0,-2.5,-2.1,-4.5,-4.6,-4.5c-2.5,0,-4.6,2,-4.6,4.5c0,2.6,2.1,4.6,4.6,4.6Z" class="g2_158" />
<path d="M233.8,552.5c2.4,2.3,6.3,3.6,10.3,3.6c6.4,0,10,-3.2,10,-7.4c0,-5.7,-5.3,-6.8,-9.3,-7.5c-2.6,-0.5,-4.4,-1.1,-4.4,-2.5c0,-1.3,1.5,-2.1,3.7,-2.1c2.8,0,5.4,1.2,6.8,2.6l2.4,-4.1c-2.3,-1.8,-5.4,-3.2,-9.3,-3.2c-6,0,-9.4,3.4,-9.4,7.3c0,5.5,5.1,6.4,9,7.2c2.6,0.5,4.6,1.1,4.6,2.7c0,1.4,-1.2,2.3,-3.8,2.3c-2.9,0,-6.3,-1.5,-8,-3.1Z" class="g2_158" />
<image preserveAspectRatio="none" x="314" y="729" width="371" height="287" xlink:href="158/img/1.png" />
<text 
x="281" 
y="1046" 
dx="0,-0.2,0,0,0,0,0,0,0,0,0,0,0,0,0,0,0,0,0,-0.2,0,0,0,-0.2,0,0,0,0,0,0,0,0,0,0,0,0,0,0,0,0,0,0,0,0,0,0,0,-0.4,0,0,0,0,0,0,0,0,0,-0.3,0,0,0,0,0,0,-0.3,-0.6,0" 
class="s14_158"
>This instrument dates to the time period when Confucius was alive. </text>

<text 
x="281" 
y="1068" 
dx="0,-0.2,0,0,0,0,0,0,0,0,0,0,0,0,0,0,0,0,0,0,0,0,0,0,0,0,0,0,-0.3,0,0,0,0,0,0,0,0,0,0,0,0,0,0" 
class="s14_158"
>What kind of instrument do you think it is?</text>



<!-- Any embedded fonts defined here -->
<style type="text/css" ><![CDATA[

@font-face {
	font-family: Alegreya-Regular_cw_;
	src: url("fonts/Alegreya-Regular_cw_.woff") format("woff");
}

@font-face {
	font-family: Alegreya-Bold_cx0;
	src: url("fonts/Alegreya-Bold_cx0.woff") format("woff");
}

@font-face {
	font-family: ProximaNova-Bold_cws;
	src: url("fonts/ProximaNova-Bold_cws.woff") format("woff");
}

@font-face {
	font-family: ProximaNova-Extrabld_cx4;
	src: url("fonts/ProximaNova-Extrabld_cx4.woff") format("woff");
}

@font-face {
	font-family: Alegreya-Italic_cx9;
	src: url("fonts/Alegreya-Italic_cx9.woff") format("woff");
}

@font-face {
	font-family: STKaitiSC-Regular_cof;
	src: url("fonts/STKaitiSC-Regular_cof.woff") format("woff");
}

@font-face {
	font-family: ProximaNova-Semibold_cwz;
	src: url("fonts/ProximaNova-Semibold_cwz.woff") format("woff");
}

@font-face {
	font-family: ProximaNova-Semibold_b6k;
	src: url("fonts/ProximaNova-Semibold_b6k.woff") format("woff");
}

]]></style>

</svg>
