<?xml version="1.0" encoding="UTF-8" standalone="no"?>
<!DOCTYPE svg PUBLIC "-//W3C//DTD SVG 1.1//EN"
"http://www.w3.org/Graphics/SVG/1.1/DTD/svg11.dtd">


<!-- Page 186 -->
<svg x="0" y="0" width="921" height="1196" viewBox="0 0 921 1196" version="1.1" xmlns="http://www.w3.org/2000/svg" xmlns:xlink="http://www.w3.org/1999/xlink"
style="display: block;margin-left: auto;margin-right: auto;">
<defs>

<style type="text/css"><![CDATA[

.g1_186{
fill: none;
stroke: #3986C6;
stroke-width: 1.6194444;
stroke-linecap: butt;
stroke-linejoin: miter;
stroke-miterlimit: 4;
}
.g2_186{
fill: #3986C6;
}
.g3_186{
fill: none;
stroke: #3986C6;
stroke-width: 1.5277778;
stroke-linecap: butt;
stroke-linejoin: miter;
stroke-miterlimit: 4;
}
.g4_186{
fill: #DCDDDF;
}
.g5_186{
fill: none;
stroke: #939598;
stroke-width: 0.38194445;
stroke-linecap: butt;
stroke-linejoin: miter;
}
.g6_186{
fill: none;
stroke: #231F20;
stroke-width: 1.1458334;
stroke-linecap: butt;
stroke-linejoin: miter;
}
.g7_186{
fill: none;
stroke: #3986C6;
stroke-width: 1.1458334;
stroke-linecap: butt;
stroke-linejoin: miter;
}
.g8_186{
fill: #ACBF3B;
}
.g9_186{
fill: #E2E3E5;
}

.s1_186{
font-size: 18.33px;
font-family: ProximaNova-Bold_c-5;
fill: #231F20;
}
.s2_186{
font-size: 12.99px;
font-family: ProximaNova-Semibold_c-3;
fill: #231F20;
}
.s3_186{
font-size: 19.86px;
font-family: ProximaNova-Bold_c-5;
fill: #231F20;
}
.s4_186{
font-size: 19.10px;
font-family: Alegreya-Regular_c-8;
fill: #231F20;
}
.s5_186{
font-size: 19.10px;
font-family: Alegreya-Bold_c-c;
fill: #231F20;
}
.s6_186{
font-size: 32.08px;
font-family: STKaitiSC-Regular_cof;
fill: #3986C6;
}
.s7_186{
font-size: 25.97px;
font-family: ProximaNova-Bold_c-5;
fill: #FFFFFF;
}
.s8_186{
font-size: 25.97px;
font-family: ProximaNova-Bold_c-5;
fill: #231F20;
}
.s9_186{
font-size: 13.75px;
font-family: ProximaNova-Extrabld_c-a;
fill: #FFFFFF;
}
.s10_186{
font-size: 32.08px;
font-family: STKaitiSC-Regular_cof;
fill: #231F20;
}
.s11_186{
font-size: 32.08px;
font-family: STKaitiSC-Bold_cmk;
fill: #231F20;
}

]]></style>

</defs>
<path d="M0,0
L0,1196
L921,1196
L921,0 Z " 
fill="#FFFFFF" stroke="none" />
<text 
x="856" 
y="1149" 
dx="0,0,0" 
class="s1_186"
>163</text>

<path d="M872.3,1089.3l0,38.7" class="g1_186" />
<path d="M872.3,1125.4c-1.5,0,-2.6,1.1,-2.6,2.6c0,1.4,1.1,2.6,2.6,2.6c1.4,0,2.6,-1.2,2.6,-2.6c0,-1.5,-1.2,-2.6,-2.6,-2.6Z" class="g2_186" />
<text 
transform="matrix(0, 1, -1, 0, 867, 821)"
dx="0,0,0,0,0,0,0,0,0,0" 
class="s2_186"
>Chapter 7 </text>

<text 
transform="matrix(0, 1, -1, 0, 867, 884)"
dx="0,0" 
class="s2_186"
>• </text>

<text 
transform="matrix(0, 1, -1, 0, 867, 895)"
dx="0,0,0,0,-1.6,0,0,0,0,0,0,0,0,0,0,0,0,-0.6,0" 
class="s2_186"
>Do You Have Plans? </text>

<text 
transform="matrix(0, 1, -1, 0, 867, 1017)"
dx="0,0" 
class="s2_186"
>• </text>

<text 
transform="matrix(0, 1, -1, 0, 867, 1029)"
dx="0,0,0,0,0,0,0,0,0" 
class="s2_186"
>Section 2</text>

<text 
x="88" 
y="105" 
dx="0,-1.2,0,0,0,0,0,0,0,0" 
class="s3_186"
>Vocabulary</text>

<text 
x="89" 
y="649" 
dx="0,-0.4,0,0,0,0,0,0,0,0,0,0,0,0,-0.4,-0.4,0,-0.2,0,0,0,0,0,0,0,0,-0.3,0,0,0,0,0,0,0,0,0,0,0,-0.3,0,0,0,0,0,0,0,0,0,0,0,0,0,0,0,0,0,0,0,0,0,0,0,0,0,0,-0.3,0,0,0,0,0,0,0,0,0,0,0,0,0,0,-0.4,0,0,0,0,0,0,0,0,-0.4" 
class="s4_186"
>Complete the exercise below to check your understanding of what you learned in Section 2. </text>

<text 
x="88" 
y="675" 
dx="0,0,0,0,-0.3,0,0,0,0,-0.4,-0.3,0,0,0,0,0,0,0,0,0,0,-0.4,-0.4,0,-0.3,0,0,0,0,0,0,0,0,0,0,0,0,0,0,0,0,0,0,0,0,-0.6,0,-0.3,0,-0.2,0,0,-0.3,0,0,0,0,0,0,0,0,0" 
class="s4_186"
>If you have questions, consult the Language Reference section.</text>

<path d="M203.3,99.7l611,0" class="g3_186" />
<path d="M203.3,102.7c1.6,0,3,-1.3,3,-3c0,-1.7,-1.4,-3.1,-3,-3.1c-1.7,0,-3.1,1.4,-3.1,3.1c0,1.7,1.4,3,3.1,3Z" class="g2_186" />
<path d="M90.2,122.2l54.9,0l0,36.3l-54.9,0l0,-36.3Zm54.9,0l165.1,0l0,36.3l-165.1,0l0,-36.3Zm165.1,0l156.2,0l0,36.3l-156.2,0l0,-36.3Zm156.2,0l336.9,0l0,36.3l-336.9,0l0,-36.3Z" class="g4_186" />
<path d="M90.2,419.8l54.9,0" class="g5_186" />
<path d="M145.1,419.8l165.1,0" class="g5_186" />
<path d="M310.2,419.8l156.2,0" class="g5_186" />
<path d="M466.4,419.8l336.9,0" class="g5_186" />
<path d="M90.2,472l54.9,0" class="g5_186" />
<path d="M145.1,472l165.1,0" class="g5_186" />
<path d="M310.2,472l156.2,0" class="g5_186" />
<path d="M466.4,472l336.9,0" class="g5_186" />
<path d="M90.2,524.3l54.9,0" class="g6_186" />
<path d="M145.1,524.3l165.1,0" class="g6_186" />
<path d="M310.2,524.3l156.2,0" class="g6_186" />
<path d="M466.4,524.3l336.9,0" class="g6_186" />
<path d="M90.2,263l54.9,0" class="g5_186" />
<path d="M145.1,263l165.1,0" class="g5_186" />
<path d="M310.2,263l156.2,0" class="g5_186" />
<path d="M466.4,263l336.9,0" class="g5_186" />
<path d="M90.2,315.3l54.9,0" class="g5_186" />
<path d="M145.1,315.3l165.1,0" class="g5_186" />
<path d="M310.2,315.3l156.2,0" class="g5_186" />
<path d="M466.4,315.3l336.9,0" class="g5_186" />
<path d="M90.2,367.5l54.9,0" class="g5_186" />
<path d="M145.1,367.5l165.1,0" class="g5_186" />
<path d="M310.2,367.5l156.2,0" class="g5_186" />
<path d="M466.4,367.5l336.9,0" class="g5_186" />
<path d="M90.2,210.8l54.9,0" class="g5_186" />
<path d="M145.1,210.8l165.1,0" class="g5_186" />
<path d="M310.2,210.8l156.2,0" class="g5_186" />
<path d="M466.4,210.8l336.9,0" class="g5_186" />
<text 
x="163" 
y="147" 
dx="0,-0.7,0,0" 
class="s1_186"
>Word</text>

<text 
x="329" 
y="147" 
dx="0,0,0,0,0,0" 
class="s1_186"
>Pinyin</text>

<text 
x="485" 
y="147" 
dx="0,0,0,0,0,0,0" 
class="s1_186"
>Meaning</text>

<text 
x="108" 
y="192" 
dx="0,0" 
class="s5_186"
>7 </text>

<text 
x="158" 
y="192" 
dx="0,0" 
class="s6_186"
>生日</text>

<text 
x="329" 
y="192" 
dx="0,0,0,0,0,0,0" 
class="s4_186"
>shēngrì</text>

<text 
x="485" 
y="192" 
dx="0,0,0,0,0,0,0,-0.4" 
class="s4_186"
>birthday</text>

<text 
x="108" 
y="244" 
dx="0" 
class="s5_186"
>8</text>

<text 
x="156" 
y="244" 
dx="0" 
class="s6_186"
>月</text>

<text 
x="328" 
y="244" 
dx="0,0,0" 
class="s4_186"
>yuè</text>

<text 
x="484" 
y="244" 
dx="0,0,0,0,0,0,-0.4,0,0,0,0" 
class="s4_186"
>month, moon</text>

<text 
x="108" 
y="297" 
dx="0" 
class="s5_186"
>9</text>

<text 
x="157" 
y="297" 
dx="0" 
class="s6_186"
>号</text>

<text 
x="329" 
y="297" 
dx="0,0,0" 
class="s4_186"
>hào</text>

<text 
x="485" 
y="297" 
dx="0,0,-0.4,0,0,0,0,0,0,0,0,0,0,0,0,0" 
class="s4_186"
>day of the month</text>

<text 
x="108" 
y="349" 
dx="0,0" 
class="s5_186"
>10</text>

<text 
x="158" 
y="349" 
dx="0,0" 
class="s6_186"
>六月</text>

<text 
x="329" 
y="349" 
dx="0,0,0,0,0,0" 
class="s4_186"
>liùyuè</text>

<text 
x="484" 
y="349" 
dx="0,-0.6,0,0" 
class="s4_186"
>June</text>

<text 
x="108" 
y="401" 
dx="0,0" 
class="s5_186"
>11</text>

<text 
x="159" 
y="401" 
dx="0,0,0" 
class="s6_186"
>二十一</text>

<text 
x="329" 
y="401" 
dx="0,0,0,0,0,0,0" 
class="s4_186"
>èrshíyī</text>

<text 
x="485" 
y="401" 
dx="0,0,-0.3,0,0,0,-0.6,0,0,0" 
class="s4_186"
>twenty-one</text>

<text 
x="108" 
y="453" 
dx="0,0" 
class="s5_186"
>12</text>

<text 
x="154" 
y="453" 
dx="0,0" 
class="s6_186"
>下个</text>

<text 
x="328" 
y="453" 
dx="0,0,0,0,0,0" 
class="s4_186"
>xià ge</text>

<text 
x="484" 
y="453" 
dx="0,0,-0.4,0" 
class="s4_186"
>next</text>

<text 
x="108" 
y="506" 
dx="0,0" 
class="s5_186"
>13</text>

<text 
x="159" 
y="506" 
dx="0,0" 
class="s6_186"
>周末</text>

<text 
x="328" 
y="506" 
dx="0,0,0,0,0,0" 
class="s4_186"
>zhōumò</text>

<text 
x="484" 
y="506" 
dx="0,-0.3,0,0,-0.4,0,0" 
class="s4_186"
>weekend</text>

<path d="M107.8,612.6c-10.1,0,-18.3,-8.2,-18.3,-18.3l0,-20.3l23.1,0c10.2,0,18.4,8.2,18.4,18.3l0,20.3Z" class="g2_186" />
<path d="M100.1,575l361.7,0" class="g7_186" />
<path d="M113.8,612.5l348,0" class="g7_186" />
<text 
x="98" 
y="601" 
dx="0,0,0" 
class="s7_186"
>2c </text>

<text 
x="141" 
y="601" 
dx="0,0,0,0,0,0,0,0,0,0,0,0,0,0" 
class="s8_186"
>Puzzle It Out </text>

<path d="M315.4,605.7c-6,0,-10.8,-4.8,-10.8,-10.8l0,-10.8l144.1,0c6,0,10.9,4.8,10.9,10.8l0,10.8Z" class="g8_186" />
<text 
x="320" 
y="598" 
dx="0,0,0,0,0,0,0,0,0,0,0,0,0,0" 
class="s9_186"
>Pr²Gre±± CheCK</text>

<path d="M90.8,818.4l101.7,0l0,-36.9l-101.7,0l0,36.9Z" class="g9_186" />
<path d="M90.8,862.2l101.7,0l0,-37l-101.7,0l0,37Z" class="g9_186" />
<path d="M90.8,905.9l101.7,0l0,-36.9L90.8,869l0,36.9Z" class="g9_186" />
<path d="M90.8,949.7l101.7,0l0,-36.9l-101.7,0l0,36.9Z" class="g9_186" />
<path d="M90.8,994.4l101.7,0l0,-36.9l-101.7,0l0,36.9Z" class="g9_186" />
<path d="M90.8,774.6l101.7,0l0,-36.9l-101.7,0l0,36.9Z" class="g9_186" />
<path d="M215.2,732.1l0,266.4" class="g3_186" />
<path d="M215.2,1002.2c2,0,3.7,-1.7,3.7,-3.7c0,-2,-1.7,-3.6,-3.7,-3.6c-2,0,-3.7,1.6,-3.7,3.6c0,2,1.7,3.7,3.7,3.7Z" class="g2_186" />
<text 
x="255" 
y="804" 
dx="0,0" 
class="s5_186"
>A:</text>

<text 
x="279" 
y="807" 
dx="0,0,0,0,0,0,0" 
class="s10_186"
>你弟弟的生日是</text>

<path d="M512.2,816.6l82.8,0l0,-36.2l-82.8,0l0,36.2Z" class="g9_186" />
<path d="M603,816.6l82.8,0l0,-36.2l-82.8,0l0,36.2Z" class="g9_186" />
<text 
x="685" 
y="807" 
dx="0" 
class="s10_186"
>？</text>

<text 
x="254" 
y="837" 
dx="0,-0.2,0,0,0,0,0,0,0,-0.3,0,0,0,0,-0.3,0,0,0,0,0,0,0,0,-0.2,0,0,0,0,0,0,0,0,0,0,0,0,0,0,-0.4,0" 
class="s4_186"
>When is your younger brother’s birthday?</text>

<text 
x="255" 
y="878" 
dx="0,0" 
class="s5_186"
>B:</text>

<text 
x="279" 
y="881" 
dx="0,0,0,0,0,0,0" 
class="s10_186"
>我弟弟的生日是</text>

<path d="M512.5,890.7l82.8,0l0,-36.2l-82.8,0l0,36.2Z" class="g9_186" />
<path d="M603.3,890.7l82.8,0l0,-36.2l-82.8,0l0,36.2Z" class="g9_186" />
<path d="M287.4,927.4l82.8,0l0,-36.3l-82.8,0l0,36.3Z" class="g9_186" />
<path d="M378.2,927.4l82.8,0l0,-36.3l-82.8,0l0,36.3Z" class="g9_186" />
<text 
x="461" 
y="918" 
dx="0" 
class="s10_186"
>。</text>

<text 
x="254" 
y="948" 
dx="0,-0.4,0,0,-0.3,0,0,0,0,0,0,0,0,-0.2,0,0,0,0,0,0,0,0,0,0,0,0,0,0,-0.4,0,0,0,0,0,0,0,-0.3,0,0,0,0,0,0,0,0,0,0" 
class="s4_186"
>My younger brother’s birthday is December 21st.</text>

<text 
x="107" 
y="765" 
dx="0,0" 
class="s11_186"
>几号</text>

<text 
x="93" 
y="809" 
dx="0,0,0" 
class="s11_186"
>二十一</text>

<text 
x="109" 
y="852" 
dx="0,0" 
class="s11_186"
>几月</text>

<text 
x="103" 
y="896" 
dx="0,0" 
class="s11_186"
>十二</text>

<text 
x="119" 
y="940" 
dx="0" 
class="s11_186"
>月</text>

<text 
x="119" 
y="985" 
dx="0" 
class="s11_186"
>号</text>

<text 
x="88" 
y="713" 
dx="0,0,0,0,0,0,0,0,0,-0.3,0,-0.2,0,0,0,0,0,0,0,0,0,-0.2,0,0,0,0,0,0,0,0,0,0,0,0,0,0,0,0,0,0,0,0,-0.3,0,0,0,0,0,0,0,0,0,0,0,0,0,-0.2,0,0,0,0,0,0,0,0,0,0,0,0,0,0,0,0,0,0,0,0,0,0,0,0,-0.6" 
class="s4_186"
>Use the words and phrases in the list to complete the translation of the dialogue.</text>



<!-- Any embedded fonts defined here -->
<style type="text/css" ><![CDATA[

@font-face {
	font-family: ProximaNova-Bold_c-5;
	src: url("fonts/ProximaNova-Bold_c-5.woff") format("woff");
}

@font-face {
	font-family: Alegreya-Bold_c-c;
	src: url("fonts/Alegreya-Bold_c-c.woff") format("woff");
}

@font-face {
	font-family: STKaitiSC-Bold_cmk;
	src: url("fonts/STKaitiSC-Bold_cmk.woff") format("woff");
}

@font-face {
	font-family: Alegreya-Regular_c-8;
	src: url("fonts/Alegreya-Regular_c-8.woff") format("woff");
}

@font-face {
	font-family: ProximaNova-Semibold_c-3;
	src: url("fonts/ProximaNova-Semibold_c-3.woff") format("woff");
}

@font-face {
	font-family: STKaitiSC-Regular_cof;
	src: url("fonts/STKaitiSC-Regular_cof.woff") format("woff");
}

@font-face {
	font-family: ProximaNova-Extrabld_c-a;
	src: url("fonts/ProximaNova-Extrabld_c-a.woff") format("woff");
}

]]></style>

</svg>
