<?xml version="1.0" encoding="UTF-8" standalone="no"?>
<!DOCTYPE svg PUBLIC "-//W3C//DTD SVG 1.1//EN"
"http://www.w3.org/Graphics/SVG/1.1/DTD/svg11.dtd">


<!-- Page 212 -->
<svg x="0" y="0" width="921" height="1196" viewBox="0 0 921 1196" version="1.1" xmlns="http://www.w3.org/2000/svg" xmlns:xlink="http://www.w3.org/1999/xlink"
style="display: block;margin-left: auto;margin-right: auto;">
<defs>
<clipPath id="c0_212"><path d="M0,1196.3L0,0L921.3,0l0,1196.3Z" /></clipPath>

<style type="text/css"><![CDATA[

.g1_212{
fill: none;
stroke: #3986C6;
stroke-width: 1.6194444;
stroke-linecap: butt;
stroke-linejoin: miter;
stroke-miterlimit: 4;
}
.g2_212{
fill: #3986C6;
}
.g3_212{
fill: none;
stroke: #3986C6;
stroke-width: 1.9097222;
stroke-linecap: butt;
stroke-linejoin: miter;
stroke-miterlimit: 4;
}
.g4_212{
fill: #ACBF3B;
}
.g5_212{
fill: none;
stroke: #FFFFFF;
stroke-width: 1.5277778;
stroke-linecap: butt;
stroke-linejoin: miter;
stroke-miterlimit: 4;
}
.g6_212{
fill: none;
stroke: #3986C6;
stroke-width: 1.1458334;
stroke-linecap: butt;
stroke-linejoin: miter;
}
.g7_212{
fill: none;
stroke: #3986C6;
stroke-width: 1.5277778;
stroke-linecap: butt;
stroke-linejoin: miter;
stroke-miterlimit: 4;
}
.g8_212{
fill: #E2E3E5;
}

.s1_212{
font-size: 18.33px;
font-family: ProximaNova-Bold_bs6;
fill: #231F20;
}
.s2_212{
font-size: 12.99px;
font-family: ProximaNova-Semibold_bs5;
fill: #231F20;
}
.s3_212{
font-size: 44.31px;
font-family: ProximaNova-Bold_bs6;
fill: #3986C6;
}
.s4_212{
font-size: 19.10px;
font-family: Alegreya-Regular_bs4;
fill: #231F20;
}
.s5_212{
font-size: 16.81px;
font-family: ProximaNova-Extrabld_bs8;
fill: #FFFFFF;
}
.s6_212{
font-size: 25.97px;
font-family: ProximaNova-Bold_bs6;
fill: #FFFFFF;
}
.s7_212{
font-size: 25.97px;
font-family: ProximaNova-Bold_bs6;
fill: #231F20;
}
.s8_212{
font-size: 13.75px;
font-family: ProximaNova-Extrabld_bs8;
fill: #FFFFFF;
}
.s9_212{
font-size: 16.04px;
font-family: Alegreya-Regular_bs4;
fill: #231F20;
}
.s10_212{
font-size: 32.08px;
font-family: STKaiti-SC-Regular_b9b;
fill: #231F20;
}
.s11_212{
font-size: 32.08px;
font-family: STKaiti-SC-Regular_b9b;
fill: #3986C6;
}
.s12_212{
font-size: 18.33px;
font-family: ProximaNova-Extrabld_bs8;
fill: #FFFFFF;
}

]]></style>

</defs>
<path d="M0,0
L0,1196
L921,1196
L921,0 Z " 
fill="#FFFFFF" stroke="none" />
<text 
x="856" 
y="1149" 
dx="0,0,0" 
class="s1_212"
>189</text>

<path d="M872.3,1089.3l0,38.7" class="g1_212" />
<path d="M872.3,1125.4c-1.5,0,-2.6,1.1,-2.6,2.6c0,1.4,1.1,2.6,2.6,2.6c1.4,0,2.6,-1.2,2.6,-2.6c0,-1.5,-1.2,-2.6,-2.6,-2.6Z" class="g2_212" />
<text 
transform="matrix(0, 1, -1, 0, 867, 769)"
dx="0,0,0,0,0,0,0,0,0,0" 
class="s2_212"
>Chapter 8 </text>

<text 
transform="matrix(0, 1, -1, 0, 867, 834)"
dx="0,0" 
class="s2_212"
>• </text>

<text 
transform="matrix(0, 1, -1, 0, 867, 845)"
dx="0,0,0,0,0,0,0,0,0,0,0,0,0,0,0,0,0,0,-0.2,0,0,0,0,0,0,0,0,0,0,0" 
class="s2_212"
>Shopping for the Perfect Gift </text>

<text 
transform="matrix(0, 1, -1, 0, 867, 1017)"
dx="0,0" 
class="s2_212"
>• </text>

<text 
transform="matrix(0, 1, -1, 0, 867, 1029)"
dx="0,0,0,0,0,0,0,0,0" 
class="s2_212"
>Section 3</text>

<path d="M106.3,195C96.2,195,88,186.8,88,176.7l0,-20.1l23.1,0c10.1,0,18.3,8.2,18.3,18.3l0,20.1Z" class="g2_212" />
<g clip-path="url(#c0_212)">
<path d="M-1.4,48.9l844,0" class="g3_212" />
</g>
<path d="M842.6,53.5c2.6,0,4.6,-2.1,4.6,-4.6c0,-2.6,-2,-4.6,-4.6,-4.6c-2.5,0,-4.5,2,-4.5,4.6c0,2.5,2,4.6,4.5,4.6Z" class="g2_212" />
<path d="M293.3,28.7c11.2,0,20.2,9,20.2,20.2l0,20.1L201.4,69l0,-40.3Z" class="g4_212" />
<path d="M109.4,69C98.3,69,89.2,60,89.2,48.9l0,-20.2l112.2,0l0,40.3Z" class="g2_212" />
<text 
x="90" 
y="120" 
dx="0,0,0,0,0,0,0,0,0,0,0,0,0,0" 
class="s3_212"
>Buying clothes</text>

<text 
x="87" 
y="233" 
dx="0,-0.8,0,0,0,0,0,0,0,0,0,0,0,0,0,0,0,0,0,0,0,0,0,0,0,0,0,0,0,0,0,0,0,0,0,0,0,0,0,0,0,0,0,0,0,0,0,0,0,0,0,0,0,0,0,0,-0.3,-1.3,-0.4,0,-0.6,0.3,0,0,0,0,0,0,0,0,0,0,0,0,0,0,0,0,0,0,0,0,0,0,0,0,0,0,0,0,-0.3,0,0" 
class="s4_212"
>Your teacher will lead a discussion about the image below. Try to participate as much as you </text>

<text 
x="89" 
y="259" 
dx="0,-0.2,0,0,-0.4,0,0,0,0,0,0,0,-0.2,0,0,0,0,0,0,-0.4,0,0,0,0,0,0,0,-0.3,0,0,0,0,0,-1.5,0,0,0,0,0,0,0,0,0,0,0,0,0,-0.4,0,0,0,0,0,-0.3,0,0,0,0,0,0,0,0,0,0,0,0,0,0,-0.3,-1.3" 
class="s4_212"
>can. If there is anything you don’t understand, let your teacher know.</text>

<path d="M202.1,23.2l0,45.8" class="g5_212" />
<text 
x="211" 
y="55" 
dx="0,0,0,0,0,0,0,0,0" 
class="s5_212"
>SECTION 3</text>

<text 
x="100" 
y="55" 
dx="0,0,0,0,0,0,0,0,0,0" 
class="s5_212"
>CHAPTER 8 </text>

<path d="M98,157.2l457.8,0" class="g6_212" />
<path d="M111.8,194.6l444,0" class="g6_212" />
<text 
x="97" 
y="183" 
dx="0,0,0" 
class="s6_212"
>3a </text>

<text 
x="139" 
y="183" 
dx="0,-0.2,0,0,0,0,0,0,0,0,0,0,0,0,0" 
class="s7_212"
>Language Model </text>

<path d="M359.8,186.7c-6,0,-10.9,-4.9,-10.9,-10.9l0,-10.8l194.5,0c5.9,0,10.8,4.9,10.8,10.8l0,10.9Z" class="g4_212" />
<text 
x="364" 
y="180" 
dx="0,-0.9,0,0,0,0,0,0,0,0,0,0,-0.5,-0.4,0,0,0,0,0,0,0" 
class="s8_212"
>TARGET LANGUAGE INPUT</text>

<path d="M708.4,345.6l-432.8,0" class="g7_212" />
<path d="M275.6,350.2c-2.5,0,-4.6,-2.1,-4.6,-4.6c0,-2.5,2.1,-4.6,4.6,-4.6c2.5,0,4.6,2.1,4.6,4.6c0,2.5,-2.1,4.6,-4.6,4.6Z" class="g2_212" />
<path d="M639.2,446.1l-315.3,0" class="g7_212" />
<path d="M336.8,320.9c-7.6,0,-13.7,6.2,-13.7,13.8l0,27.8c0,7.6,6.1,13.8,13.7,13.8l54.9,0c7.6,0,13.8,-6.2,13.8,-13.8l0,-27.8c0,-7.6,-6.2,-13.8,-13.8,-13.8Z" class="g8_212" />
<path d="M336.8,421.4c-7.6,0,-13.7,6.2,-13.7,13.8l0,27.8c0,7.6,6.1,13.8,13.7,13.8l52.2,0c7.6,0,13.7,-6.2,13.7,-13.8l0,-27.8c0,-7.6,-6.1,-13.8,-13.7,-13.8Z" class="g8_212" />
<path d="M435.9,421.4c-7.6,0,-13.7,6.2,-13.7,13.8l0,27.8c0,7.6,6.1,13.8,13.7,13.8l23.7,0c7.6,0,13.7,-6.2,13.7,-13.8l0,-27.8c0,-7.6,-6.1,-13.8,-13.7,-13.8Z" class="g8_212" />
<path d="M506.8,421.4c-7.6,0,-13.7,6.2,-13.7,13.8l0,27.8c0,7.6,6.1,13.8,13.7,13.8l54.9,0c7.6,0,13.8,-6.2,13.8,-13.8l0,-27.8c0,-7.6,-6.2,-13.8,-13.8,-13.8Z" class="g8_212" />
<path d="M655.3,320.9c-7.6,0,-13.7,6.2,-13.7,13.8l0,27.8c0,7.6,6.1,13.8,13.7,13.8l23.7,0c7.6,0,13.7,-6.2,13.7,-13.8l0,-27.8c0,-7.6,-6.1,-13.8,-13.7,-13.8Z" class="g8_212" />
<path d="M584.2,320.9c-7.6,0,-13.7,6.2,-13.7,13.8l0,27.8c0,7.6,6.1,13.8,13.7,13.8l23.7,0c7.6,0,13.7,-6.2,13.7,-13.8l0,-27.8c0,-7.6,-6.1,-13.8,-13.7,-13.8Z" class="g8_212" />
<path d="M439.8,320.9c-7.6,0,-13.8,6.2,-13.8,13.8l0,27.8c0,7.6,6.2,13.8,13.8,13.8l23.6,0c7.6,0,13.8,-6.2,13.8,-13.8l0,-27.8c0,-7.6,-6.2,-13.8,-13.8,-13.8Z" class="g8_212" />
<path d="M511.8,320.9c-7.6,0,-13.7,6.2,-13.7,13.8l0,27.8c0,7.6,6.1,13.8,13.7,13.8l23.7,0c7.6,0,13.7,-6.2,13.7,-13.8l0,-27.8c0,-7.6,-6.1,-13.8,-13.7,-13.8Z" class="g8_212" />
<path d="M606.4,421.4c-7.6,0,-13.7,6.2,-13.7,13.8l0,27.8c0,7.6,6.1,13.8,13.7,13.8l32.8,0c7.6,0,13.8,-6.2,13.8,-13.8l0,-27.8c0,-7.6,-6.2,-13.8,-13.8,-13.8Z" class="g8_212" />
<text 
x="340" 
y="315" 
dx="0,-1,0.2,0.2,0.2,0.2" 
class="s9_212"
>Wǒmen </text>

<text 
x="437" 
y="315" 
dx="0,0.2,0.2,0.2,0.2" 
class="s9_212"
>sòng </text>

<text 
x="515" 
y="315" 
dx="0,0.2,0.2" 
class="s9_212"
>tā </text>

<text 
x="588" 
y="315" 
dx="0,0.2,0.2" 
class="s9_212"
>yí </text>

<text 
x="652" 
y="315" 
dx="0,0.2,0.2,0.2" 
class="s9_212"
>jiàn</text>

<text 
x="341" 
y="415" 
dx="0,0.2,0.2,0.2,-0.1,0.2,0.2" 
class="s9_212"
>hǎokàn </text>

<text 
x="442" 
y="415" 
dx="0,0.2,0.2" 
class="s9_212"
>de </text>

<text 
x="516" 
y="415" 
dx="0,0.2,0.2,0.2,0.2" 
class="s9_212"
>yīfu </text>

<text 
x="612" 
y="415" 
dx="0,0.2,0.2" 
class="s9_212"
>ba?</text>

<text 
x="331" 
y="358" 
dx="0,0,0" 
class="s10_212"
>我们 </text>

<text 
x="436" 
y="358" 
dx="0,0" 
class="s10_212"
>送 </text>

<text 
x="505" 
y="358" 
dx="0,0" 
class="s10_212"
>他 </text>

<text 
x="577" 
y="358" 
dx="0,0" 
class="s10_212"
>一 </text>

<text 
x="650" 
y="358" 
dx="0" 
class="s10_212"
>件</text>

<text 
x="329" 
y="458" 
dx="0,0,0" 
class="s10_212"
>好看 </text>

<text 
x="433" 
y="458" 
dx="0,0" 
class="s10_212"
>的 </text>

<text 
x="501" 
y="458" 
dx="0,0,0" 
class="s10_212"
>衣服 </text>

<text 
x="599" 
y="458" 
dx="0,0" 
class="s10_212"
>吧？</text>

<text 
x="329" 
y="507" 
dx="0,0,0,0,0,0,0,0,0,-0.3,0,0,0,0,0,0,0,0,0,0,-0.3,0,0,0,0,0,0,0,0,0,0,0,0,0,-0.3,0,0,0,0,0,0,0,0,0,0,0,0,0,-0.4,0,0,-0.4,-0.4,0" 
class="s4_212"
>Let’s give him a nice-looking piece of clothing, okay?</text>

<image preserveAspectRatio="none" x="147" y="581" width="605" height="405" xlink:href="212/img/1.png" />
<image preserveAspectRatio="none" x="89" y="309" width="181" height="142" xlink:href="212/img/2.png" />
<image preserveAspectRatio="none" x="89" y="451" width="181" height="48" xlink:href="212/img/3.png" />
<text 
x="457" 
y="1050" 
dx="0,0.2,0.2,0.2" 
class="s9_212"
>yīfu</text>

<text 
x="439" 
y="1088" 
dx="0,0" 
class="s11_212"
>衣服</text>

<text 
x="439" 
y="1115" 
dx="0,0,0,0,0,0,0,0" 
class="s4_212"
>clothing</text>

<path d="M467.7,1024.1c0,0,-9.2,0,-9.2,-9.2l0,-15.1l16,0c0,0,9.2,0,9.2,9.1l0,15.2Z" class="g4_212" />
<text 
x="464" 
y="1019" 
dx="0" 
class="s12_212"
>1</text>



<!-- Any embedded fonts defined here -->
<style type="text/css" ><![CDATA[

@font-face {
	font-family: ProximaNova-Semibold_bs5;
	src: url("fonts/ProximaNova-Semibold_bs5.woff") format("woff");
}

@font-face {
	font-family: ProximaNova-Bold_bs6;
	src: url("fonts/ProximaNova-Bold_bs6.woff") format("woff");
}

@font-face {
	font-family: Alegreya-Regular_bs4;
	src: url("fonts/Alegreya-Regular_bs4.woff") format("woff");
}

@font-face {
	font-family: STKaiti-SC-Regular_b9b;
	src: url("fonts/STKaiti-SC-Regular_b9b.woff") format("woff");
}

@font-face {
	font-family: ProximaNova-Extrabld_bs8;
	src: url("fonts/ProximaNova-Extrabld_bs8.woff") format("woff");
}

]]></style>

</svg>
