<?xml version="1.0" encoding="UTF-8" standalone="no"?>
<!DOCTYPE svg PUBLIC "-//W3C//DTD SVG 1.1//EN"
"http://www.w3.org/Graphics/SVG/1.1/DTD/svg11.dtd">


<!-- Page 267 -->
<svg x="0" y="0" width="921" height="1196" viewBox="0 0 921 1196" version="1.1" xmlns="http://www.w3.org/2000/svg" xmlns:xlink="http://www.w3.org/1999/xlink"
style="display: block;margin-left: auto;margin-right: auto;">
<defs>

<style type="text/css"><![CDATA[

.g1_267{
fill: none;
stroke: #3986C6;
stroke-width: 1.6194444;
stroke-linecap: butt;
stroke-linejoin: miter;
stroke-miterlimit: 4;
}
.g2_267{
fill: #3986C6;
}
.g3_267{
fill: #E2E3E5;
}
.g4_267{
fill: none;
stroke: #3986C6;
stroke-width: 1.1458334;
stroke-linecap: butt;
stroke-linejoin: miter;
}
.g5_267{
fill: #ACBF3B;
}
.g6_267{
fill: none;
stroke: #3986C6;
stroke-width: 1.5277778;
stroke-linecap: butt;
stroke-linejoin: miter;
stroke-miterlimit: 4;
}

.s1_267{
font-size: 12.99px;
font-family: ProximaNova-Semibold_cot;
fill: #231F20;
}
.s2_267{
font-size: 18.33px;
font-family: ProximaNova-Bold_d5-;
fill: #231F20;
}
.s3_267{
font-size: 25.97px;
font-family: ProximaNova-Bold_d5-;
fill: #FFFFFF;
}
.s4_267{
font-size: 25.97px;
font-family: ProximaNova-Bold_d5-;
fill: #231F20;
}
.s5_267{
font-size: 13.75px;
font-family: ProximaNova-Extrabld_d62;
fill: #FFFFFF;
}
.s6_267{
font-size: 19.10px;
font-family: Alegreya-Regular_d61;
fill: #231F20;
}
.s7_267{
font-size: 19.10px;
font-family: Alegreya-Bold_d66;
fill: #231F20;
}
.s8_267{
font-size: 32.08px;
font-family: STKaitiSC-Regular_cof;
fill: #231F20;
}
.s9_267{
font-size: 16.04px;
font-family: Alegreya-Regular_d61;
fill: #231F20;
}
.s10_267{
font-size: 19.10px;
font-family: Alegreya-Bold_d66;
fill: #3986C6;
}
.s11_267{
font-size: 32.08px;
font-family: STKaitiSC-Bold_cmk;
fill: #231F20;
}
.s12_267{
font-size: 22.92px;
font-family: STKaitiSC-Bold_cmk;
fill: #231F20;
}
.s13_267{
font-size: 16.81px;
font-family: ProximaNovaCond-Extrabld_d6i;
fill: #231F20;
}
.s14_267{
font-size: 19.86px;
font-family: ProximaNova-Bold_d5-;
fill: #231F20;
}

]]></style>

</defs>
<path d="M0,0
L0,1196
L921,1196
L921,0 Z " 
fill="#FFFFFF" stroke="none" />
<text 
transform="matrix(0, -1, 1, 0, 54, 1084)"
dx="0,0,0,0,0,0,0,0,0,0,0,0,0,0,0,0,0,0,0" 
class="s1_267"
>Go Far with Chinese</text>

<text 
x="32" 
y="1149" 
dx="0,0,0" 
class="s2_267"
>244</text>

<path d="M50.4,1089.3l0,38.7" class="g1_267" />
<path d="M50.4,1125.4c-1.4,0,-2.5,1.1,-2.5,2.6c0,1.4,1.1,2.6,2.5,2.6c1.5,0,2.6,-1.2,2.6,-2.6c0,-1.5,-1.1,-2.6,-2.6,-2.6Z" class="g2_267" />
<path d="M190.5,874.3c-3.8,0,-6.8,3.1,-6.8,6.8l0,20.1c0,3.8,3,6.9,6.8,6.9l23.9,0c3.8,0,6.8,-3.1,6.8,-6.9l0,-20.1c0,-3.7,-3,-6.8,-6.8,-6.8Z" class="g3_267" />
<path d="M255.6,944.6c-3.8,0,-6.9,3,-6.9,6.8l0,20.1c0,3.8,3.1,6.9,6.9,6.9l23.9,0c3.8,0,6.8,-3.1,6.8,-6.9l0,-20.1c0,-3.8,-3,-6.8,-6.8,-6.8Z" class="g3_267" />
<path d="M189,1011.8c-3.8,0,-6.9,3.1,-6.9,6.8l0,20.1c0,3.8,3.1,6.9,6.9,6.9l23.8,0c3.8,0,6.9,-3.1,6.9,-6.9l0,-20.1c0,-3.7,-3.1,-6.8,-6.9,-6.8Z" class="g3_267" />
<path d="M421.8,1011.8c-3.8,0,-6.8,3.1,-6.8,6.8l0,20.1c0,3.8,3,6.9,6.8,6.9l23.9,0c3.8,0,6.9,-3.1,6.9,-6.9l0,-20.1c0,-3.7,-3.1,-6.8,-6.9,-6.8Z" class="g3_267" />
<path d="M324.7,944.6c-3.8,0,-6.9,3,-6.9,6.8l0,20.1c0,3.8,3.1,6.9,6.9,6.9l23.8,0c3.8,0,6.9,-3.1,6.9,-6.9l0,-20.1c0,-3.8,-3.1,-6.8,-6.9,-6.8Z" class="g3_267" />
<path d="M291.4,874.3c-3.8,0,-6.9,3.1,-6.9,6.8l0,20.1c0,3.8,3.1,6.9,6.9,6.9l23.8,0c3.8,0,6.9,-3.1,6.9,-6.9l0,-20.1c0,-3.7,-3.1,-6.8,-6.9,-6.8Z" class="g3_267" />
<path d="M252.3,738.3c-3.8,0,-6.9,3.1,-6.9,6.9l0,20.1c0,3.8,3.1,6.8,6.9,6.8l23.9,0c3.7,0,6.8,-3,6.8,-6.8l0,-20.1c0,-3.8,-3.1,-6.9,-6.8,-6.9Z" class="g3_267" />
<path d="M285.5,805.6c-3.8,0,-6.9,3,-6.9,6.8l0,20.1c0,3.8,3.1,6.9,6.9,6.9l23.8,0c3.8,0,6.9,-3.1,6.9,-6.9l0,-20.1c0,-3.8,-3.1,-6.8,-6.9,-6.8Z" class="g3_267" />
<path d="M419.2,805.6c-3.8,0,-6.9,3,-6.9,6.8l0,20.1c0,3.8,3.1,6.9,6.9,6.9l23.8,0c3.8,0,6.9,-3.1,6.9,-6.9l0,-20.1c0,-3.8,-3.1,-6.8,-6.9,-6.8Z" class="g3_267" />
<path d="M356.8,738.3c-3.8,0,-6.9,3.1,-6.9,6.9l0,20.1c0,3.8,3.1,6.8,6.9,6.8l23.9,0c3.7,0,6.8,-3,6.8,-6.8l0,-20.1c0,-3.8,-3.1,-6.9,-6.8,-6.9Z" class="g3_267" />
<path d="M129.2,121c-10.1,0,-18.3,-8.2,-18.3,-18.3l0,-20.2l23.1,0c10.1,0,18.3,8.2,18.3,18.3l0,20.2Z" class="g2_267" />
<path d="M116.7,83.1l359.1,0" class="g4_267" />
<path d="M130.4,120.6l345.4,0" class="g4_267" />
<text 
x="115" 
y="109" 
dx="0,0,0" 
class="s3_267"
>3c </text>

<text 
x="157" 
y="109" 
dx="0,0,0,0,0,0,0,0,0,0,0,0,0,0" 
class="s4_267"
>Puzzle It Out </text>

<path d="M332.2,112.9c-6,0,-10.9,-4.8,-10.9,-10.9l0,-10.8l142,0c6,0,10.9,4.8,10.9,10.8l0,10.9Z" class="g5_267" />
<text 
x="337" 
y="106" 
dx="0,0,0,0,0,0,0,0,0,0,0,0,0,0" 
class="s5_267"
>Pr³Gr²±± Ch²CK</text>

<text 
x="111" 
y="163" 
dx="0,-0.4,0,0,0,0,0,0,0,0,0,0,0,0,-0.4,-0.4,0,-0.2,0,0,0,0,0,0,0,0,0,-0.3,0,0,0,0,0,0,0,0,0,0,0,-0.3,0,0,0,0,0,0,0,0,0,0,0,0,0,0,0,0,0,0,0,0,0,0,0,0,0,0,-0.3,0,0,0,0,0,0,0,0,0,0,0,0,0,0,-0.4,0,0,0,0,0,0,0,0,-0.4" 
class="s6_267"
>Complete the exercises below to check your understanding of what you learned in Section 3. </text>

<text 
x="110" 
y="189" 
dx="0,0,0,0,-0.3,0,0,0,0,-0.4,-0.3,0,0,0,0,0,0,0,0,0,0,-0.4,-0.4,0,-0.3,0,0,0,0,0,0,0,0,0,0,0,0,0,0,0,0,0,0,0,0,-0.6,0,-0.3,0,-0.2,0,0,-0.3,0,0,0,0,0,0,0,0,0" 
class="s6_267"
>If you have questions, consult the Language Reference section.</text>

<text 
x="110" 
y="222" 
dx="0,0,0,0,0,0,0,0,0,-0.3,0,-0.2,0,0,0,0,0,0,0,0,0,0,0,0,0,0,0,0,0,0,0,0,0,0,0,0,0,0,0,0,0,0,-0.3,0,0,0,0,0,0,0,0,0,0,0,0,0,0,0,0,0,0,0,-0.3,0,0,0,0,0,-0.3,-1.3,-0.4,0,0,0,0,0,0,0,0,0,0,-0.3,0,-0.2,0,0,0,0,-0.3,-0.6" 
class="s6_267"
>Use the words in the list to the left to complete each sentence below. Use each word once.</text>

<text 
x="137" 
y="761" 
dx="0,0" 
class="s7_267"
>1 </text>

<text 
x="147" 
y="764" 
dx="0,0,0" 
class="s8_267"
>我今天</text>

<text 
x="247" 
y="764" 
dx="0" 
class="s8_267"
>太</text>

<text 
x="282" 
y="764" 
dx="0,0" 
class="s8_267"
>高兴</text>

<text 
x="350" 
y="764" 
dx="0" 
class="s8_267"
>了</text>

<text 
x="386" 
y="764" 
dx="0,0" 
class="s8_267"
>！ </text>

<text 
x="498" 
y="761" 
dx="0,0,0,0,0,-0.4,0,0,-0.2,0,0,0,0,0,0,0,0,0,-0.3,0,0,0,0,0,-0.4,0" 
class="s6_267"
>I’m extremely happy today!</text>

<text 
x="137" 
y="830" 
dx="0" 
class="s7_267"
>2</text>

<text 
x="147" 
y="832" 
dx="0,0,0,0" 
class="s8_267"
>网球比赛</text>

<text 
x="278" 
y="832" 
dx="0" 
class="s8_267"
>太</text>

<text 
x="314" 
y="832" 
dx="0,0,0" 
class="s8_267"
>有意思</text>

<text 
x="414" 
y="832" 
dx="0" 
class="s8_267"
>了</text>

<text 
x="449" 
y="832" 
dx="0" 
class="s8_267"
>！</text>

<text 
x="489" 
y="829" 
dx="0,-1.1,0,0,0,0,0,0,0,0,0,0,0,0,0,0,0,-0.2,0,0,-0.4,0,0,-0.2,0,0,0,0,0,0,0,0,0,0,-0.2,0,0,0,0,0,0" 
class="s6_267"
>Tennis matches are extremely interesting!</text>

<text 
x="137" 
y="898" 
dx="0,0" 
class="s7_267"
>3 </text>

<text 
x="148" 
y="901" 
dx="0" 
class="s8_267"
>他</text>

<text 
x="184" 
y="901" 
dx="0" 
class="s8_267"
>太</text>

<text 
x="219" 
y="901" 
dx="0,0" 
class="s8_267"
>紧张</text>

<text 
x="287" 
y="901" 
dx="0,0,0" 
class="s8_267"
>了。 </text>

<text 
x="498" 
y="898" 
dx="0,-0.4,0,0,0,0,0,-0.4,0,0,-0.2,0,0,0,0,0,0,-0.3,-0.3,0,0,0,0,0,0,0,0.3,-0.3,0,0,-0.4" 
class="s6_267"
>He is extremely/overly nervous.</text>

<text 
x="136" 
y="967" 
dx="0" 
class="s7_267"
>4</text>

<text 
x="149" 
y="970" 
dx="0,0,0" 
class="s8_267"
>这本书</text>

<text 
x="248" 
y="970" 
dx="0" 
class="s8_267"
>太</text>

<text 
x="284" 
y="970" 
dx="0" 
class="s8_267"
>贵</text>

<text 
x="319" 
y="970" 
dx="0" 
class="s8_267"
>了</text>

<text 
x="355" 
y="970" 
dx="0,0,0" 
class="s8_267"
>…… </text>

<text 
x="498" 
y="967" 
dx="0,-0.2,0,0,0,0,0,0,0,0,0,0,0,0,0,0,0,0,-0.4,0,0,0,0,0,0,-0.3,-0.6,0,0,-0.4" 
class="s6_267"
>This book is too expensive... </text>

<text 
x="137" 
y="1036" 
dx="0,0" 
class="s7_267"
>5 </text>

<text 
x="149" 
y="1039" 
dx="0" 
class="s8_267"
>我</text>

<text 
x="184" 
y="1039" 
dx="0" 
class="s8_267"
>太</text>

<text 
x="220" 
y="1039" 
dx="0,0,0,0,0,0" 
class="s8_267"
>喜欢这个颜色</text>

<text 
x="416" 
y="1039" 
dx="0" 
class="s8_267"
>了</text>

<text 
x="451" 
y="1039" 
dx="0" 
class="s8_267"
>！</text>

<text 
x="496" 
y="1036" 
dx="0,0,0,0,-0.3,-0.3,0,0,0,0,0,0,0,-0.3,0,0,0,0,0,0,0,0,0,0,0,0" 
class="s6_267"
>I love this color so much!</text>

<text 
x="254" 
y="732" 
dx="0,0.2,0.2" 
class="s9_267"
>tài</text>

<text 
x="290" 
y="732" 
dx="0,0,0.2,-0.1,0.2,0.2,0.2" 
class="s9_267"
>gāoxìng</text>

<text 
x="287" 
y="799" 
dx="0,0.2,0.2" 
class="s9_267"
>tài</text>

<text 
x="193" 
y="866" 
dx="0,0.2,0.2" 
class="s9_267"
>tài</text>

<text 
x="224" 
y="866" 
dx="0,0.2,0.2,0.2,0.2,0.2,0.2,0.2" 
class="s9_267"
>jǐnzhāng</text>

<text 
x="256" 
y="939" 
dx="0,0.2,0.2" 
class="s9_267"
>tài</text>

<text 
x="189" 
y="1006" 
dx="0,0.2,0.2" 
class="s9_267"
>tài</text>

<text 
x="248" 
y="318" 
dx="0" 
class="s10_267"
>±</text>

<text 
x="265" 
y="321" 
dx="0,0,0,0" 
class="s8_267"
>这个菜 </text>

<path d="M369.6,330.6l82.8,0l0,-36.3l-82.8,0l0,36.3Z" class="g3_267" />
<text 
x="460" 
y="321" 
dx="0,0,0,0" 
class="s8_267"
>好吃了！</text>

<text 
x="249" 
y="362" 
dx="0" 
class="s10_267"
>²</text>

<text 
x="266" 
y="365" 
dx="0,0,0,0,0,0" 
class="s8_267"
>我觉得红烧肉</text>

<path d="M461.8,374.5l82.8,0l0,-36.2l-82.8,0l0,36.2Z" class="g3_267" />
<text 
x="552" 
y="365" 
dx="0,0,0,0" 
class="s8_267"
>好吃的。</text>

<text 
x="249" 
y="406" 
dx="0" 
class="s10_267"
>³</text>

<text 
x="265" 
y="409" 
dx="0,0,0,0,0,0,0,0" 
class="s8_267"
>历史课太有意思 </text>

<path d="M498.3,418.5l82.8,0l0,-36.3l-82.8,0l0,36.3Z" class="g3_267" />
<text 
x="581" 
y="409" 
dx="0" 
class="s8_267"
>！</text>

<text 
x="248" 
y="450" 
dx="0" 
class="s10_267"
>´</text>

<text 
x="265" 
y="453" 
dx="0,0,0,0,0,0" 
class="s8_267"
>这门课挺难 </text>

<path d="M433.7,462.4l82.7,0l0,-36.3l-82.7,0l0,36.3Z" class="g3_267" />
<text 
x="516" 
y="453" 
dx="0" 
class="s8_267"
>。</text>

<path d="M112.8,419.4l73.7,0l0,-36.9l-73.7,0l0,36.9Z" class="g3_267" />
<path d="M112.8,463.2l73.7,0l0,-36.9l-73.7,0l0,36.9Z" class="g3_267" />
<path d="M112.8,375.7l73.7,0l0,-37l-73.7,0l0,37Z" class="g3_267" />
<path d="M112.8,331.4l73.7,0l0,-37l-73.7,0l0,37Z" class="g3_267" />
<text 
x="133" 
y="366" 
dx="0" 
class="s11_267"
>的</text>

<text 
x="131" 
y="322" 
dx="0" 
class="s11_267"
>了</text>

<text 
x="133" 
y="411" 
dx="0" 
class="s11_267"
>挺</text>

<text 
x="133" 
y="455" 
dx="0" 
class="s11_267"
>太</text>

<path d="M209.6,275.3l0,200.8" class="g6_267" />
<path d="M209.6,479.7c2,0,3.7,-1.6,3.7,-3.6c0,-2.1,-1.7,-3.7,-3.7,-3.7c-2,0,-3.7,1.6,-3.7,3.7c0,2,1.7,3.6,3.7,3.6Z" class="g2_267" />
<text 
x="139" 
y="600" 
dx="0,0,0,0,0,0,0,0,0,0,0,0,0,0,0,0,0,0,0,0,0,0,0,0,0,0,0,0,0,0,0,0,0" 
class="s2_267"
>Expressing a strong feeling with </text>

<text 
x="409" 
y="600" 
dx="0" 
class="s12_267"
>太</text>

<text 
x="437" 
y="600" 
dx="0,0,0,0,0" 
class="s2_267"
>. . .</text>

<text 
x="460" 
y="600" 
dx="0" 
class="s12_267"
>了</text>

<text 
x="138" 
y="638" 
dx="0,-0.2,0,0,0,0,0,0,0,0,0,0" 
class="s6_267"
>The pattern </text>

<text 
x="232" 
y="637" 
dx="0,0" 
class="s12_267"
>太 </text>

<text 
x="261" 
y="638" 
dx="0,0,0,0,0" 
class="s6_267"
>(tài)</text>

<text 
x="292" 
y="635" 
dx="0,-0.4,-0.4,-0.4,-0.4" 
class="s6_267"
>. . .</text>

<text 
x="314" 
y="637" 
dx="0" 
class="s12_267"
>了</text>

<text 
x="341" 
y="638" 
dx="0,0,0,0,0,0,0,0,0,0,0,0,-0.4,0,0,-0.2,0,0,0,0,0,0,0,0,-0.2,0,0,0,0,-0.3,0,0,0,0,0,0,0,0,0,0,0,0,0,0,0,0,0,0,0,0,0,0,-0.4" 
class="s6_267"
>is used to express a strong feeling about something. </text>

<text 
x="138" 
y="664" 
dx="0,0,0,0,-0.2,0,0,0,0,0,0,0,0,0,0,0,0,0,0,0,0,-0.3,0,0,-0.4,-0.4,0,0,0,0,0,0,0,0,0,0,0,0,0,0,0,-0.3,0,0,0,0,0,0,0,0,0,0,0,0,0,0,0,0,0,0,0,0,0,0,0,0,0,0,0,-0.4" 
class="s6_267"
>It can be used to show excitement or to complain about something bad. </text>

<text 
x="693" 
y="663" 
dx="0" 
class="s12_267"
>太</text>

<text 
x="720" 
y="664" 
dx="0,0,0,0,0" 
class="s6_267"
>(tài)</text>

<text 
x="751" 
y="661" 
dx="0,-0.4,-0.4,-0.4,-0.4" 
class="s6_267"
>. . .</text>

<text 
x="773" 
y="663" 
dx="0" 
class="s12_267"
>了</text>

<text 
x="139" 
y="690" 
dx="0,-0.3,0,0,0,0,0,0,-0.2,0,0,0,0,0,0,0,0,0,-0.2,0,0,0,0,0,0,0,0,0,0,0,0,0,0,0,0,0,0" 
class="s6_267"
>communicates a stronger emotion than </text>

<text 
x="449" 
y="689" 
dx="0" 
class="s12_267"
>很</text>

<text 
x="473" 
y="690" 
dx="0" 
class="s6_267"
>.</text>

<path d="M110.5,604.3l20.6,0l0,-20.6l-20.6,0l0,20.6Z" class="g3_267" />
<text 
x="116" 
y="600" 
dx="0" 
class="s13_267"
>5</text>

<text 
x="111" 
y="556" 
dx="0,-0.1,0,0,0,0,0,0,0,0,-0.6,0,0,0,0,0,0,0" 
class="s14_267"
>Language Reference</text>

<path d="M312.1,550.5l520.5,0" class="g6_267" />
<path d="M312.1,553.5c1.7,0,3.1,-1.4,3.1,-3c0,-1.7,-1.4,-3.1,-3.1,-3.1c-1.7,0,-3.1,1.4,-3.1,3.1c0,1.6,1.4,3,3.1,3Z" class="g2_267" />


<!-- Any embedded fonts defined here -->
<style type="text/css" ><![CDATA[

@font-face {
	font-family: ProximaNova-Bold_d5-;
	src: url("fonts/ProximaNova-Bold_d5-.woff") format("woff");
}

@font-face {
	font-family: STKaitiSC-Bold_cmk;
	src: url("fonts/STKaitiSC-Bold_cmk.woff") format("woff");
}

@font-face {
	font-family: ProximaNova-Extrabld_d62;
	src: url("fonts/ProximaNova-Extrabld_d62.woff") format("woff");
}

@font-face {
	font-family: ProximaNovaCond-Extrabld_d6i;
	src: url("fonts/ProximaNovaCond-Extrabld_d6i.woff") format("woff");
}

@font-face {
	font-family: Alegreya-Regular_d61;
	src: url("fonts/Alegreya-Regular_d61.woff") format("woff");
}

@font-face {
	font-family: Alegreya-Bold_d66;
	src: url("fonts/Alegreya-Bold_d66.woff") format("woff");
}

@font-face {
	font-family: STKaitiSC-Regular_cof;
	src: url("fonts/STKaitiSC-Regular_cof.woff") format("woff");
}

@font-face {
	font-family: ProximaNova-Semibold_cot;
	src: url("fonts/ProximaNova-Semibold_cot.woff") format("woff");
}

]]></style>

</svg>
