<?xml version="1.0" encoding="UTF-8" standalone="no"?>
<!DOCTYPE svg PUBLIC "-//W3C//DTD SVG 1.1//EN"
"http://www.w3.org/Graphics/SVG/1.1/DTD/svg11.dtd">


<!-- Page 94 -->
<svg x="0" y="0" width="921" height="1196" viewBox="0 0 921 1196" version="1.1" xmlns="http://www.w3.org/2000/svg" xmlns:xlink="http://www.w3.org/1999/xlink"
style="display: block;margin-left: auto;margin-right: auto;">
<defs>

<style type="text/css"><![CDATA[

.g1_94{
fill: none;
stroke: #3986C6;
stroke-width: 1.6194444;
stroke-linecap: butt;
stroke-linejoin: miter;
stroke-miterlimit: 4;
}
.g2_94{
fill: #3986C6;
}
.g3_94{
fill: none;
stroke: #ACBF3B;
stroke-width: 2.2916667;
stroke-linecap: butt;
stroke-linejoin: miter;
stroke-miterlimit: 4;
}
.g4_94{
fill: none;
stroke: #3986C6;
stroke-width: 1.1458334;
stroke-linecap: butt;
stroke-linejoin: miter;
stroke-miterlimit: 4;
}
.g5_94{
fill: #FFFFFF;
}
.g6_94{
fill: none;
stroke: #3986C6;
stroke-width: 1.1458334;
stroke-linecap: butt;
stroke-linejoin: miter;
}
.g7_94{
fill: #ACBF3B;
}

.s1_94{
font-size: 12.99px;
font-family: ProximaNova-Semibold_csu;
fill: #231F20;
}
.s2_94{
font-size: 19.10px;
font-family: Alegreya-Bold_csx;
fill: #3986C6;
}
.s3_94{
font-size: 19.10px;
font-family: Alegreya-Regular_csr;
fill: #231F20;
}
.s4_94{
font-size: 19.48px;
font-family: ProximaNova-Bold_cs-;
fill: #231F20;
}
.s5_94{
font-size: 18.33px;
font-family: ProximaNova-Bold_cs-;
fill: #231F20;
}

]]></style>

</defs>
<path d="M0,0
L0,1196
L921,1196
L921,0 Z " 
fill="#FFFFFF" stroke="none" />
<text 
transform="matrix(0, 1, -1, 0, 867, 878)"
dx="0,0,0,0,0,0,0,0,0,0" 
class="s1_94"
>Chapter 3 </text>

<text 
transform="matrix(0, 1, -1, 0, 867, 942)"
dx="0,0" 
class="s1_94"
>• </text>

<text 
transform="matrix(0, 1, -1, 0, 867, 954)"
dx="0,-1.4,0,0,0,0,0,0,0,0,0,0,0,0,0,-1.6,0,0,0,0,0,0" 
class="s1_94"
>Tell Me About Yourself</text>

<path d="M872.3,1089.3l0,38.7" class="g1_94" />
<path d="M872.3,1125.4c-1.5,0,-2.6,1.1,-2.6,2.6c0,1.4,1.1,2.6,2.6,2.6c1.4,0,2.6,-1.2,2.6,-2.6c0,-1.5,-1.2,-2.6,-2.6,-2.6Z" class="g2_94" />
<image preserveAspectRatio="none" x="13" y="20" width="369" height="369" xlink:href="94/img/1.png" />
<image preserveAspectRatio="none" x="381" y="20" width="369" height="369" xlink:href="94/img/2.png" />
<image preserveAspectRatio="none" x="750" y="20" width="158" height="842" xlink:href="94/img/3.png" />
<image preserveAspectRatio="none" x="13" y="388" width="369" height="369" xlink:href="94/img/4.png" />
<image preserveAspectRatio="none" x="381" y="388" width="369" height="369" xlink:href="94/img/5.png" />
<image preserveAspectRatio="none" x="13" y="756" width="737" height="106" xlink:href="94/img/6.png" />
<text 
x="556" 
y="952" 
dx="0" 
class="s2_94"
>T</text>

<text 
x="597" 
y="952" 
dx="0" 
class="s2_94"
>F</text>

<text 
x="127" 
y="990" 
dx="0" 
class="s2_94"
>±</text>

<text 
x="154" 
y="990" 
dx="0,0,0,0,0,0,-0.2,0,0,0,-0.3,0,0,0,0,0,0,0,0,-0.2,0,0,0,0,0,0,0,0,0,0,0,0,0,0,0,0,0,0,-0.4" 
class="s3_94"
>Daming’s younger brother is a student. </text>

<path d="M562.2,992.7c5.8,0,10.5,-4.7,10.5,-10.5c0,-5.8,-4.7,-10.5,-10.5,-10.5c-5.8,0,-10.5,4.7,-10.5,10.5c0,5.8,4.7,10.5,10.5,10.5Z" class="g3_94" />
<path d="M603.2,992.7c5.8,0,10.5,-4.7,10.5,-10.5c0,-5.8,-4.7,-10.5,-10.5,-10.5c-5.8,0,-10.5,4.7,-10.5,10.5c0,5.8,4.7,10.5,10.5,10.5Z" class="g3_94" />
<text 
x="127" 
y="1031" 
dx="0" 
class="s2_94"
>²</text>

<text 
x="154" 
y="1031" 
dx="0,0,0,0,0,0,-0.2,0,0,0,-0.3,0,0,0,0,0,0,0,0,-0.2,0,0,0,0,0,0,0,0,0,0,0,0,-0.3,0,0,0,0,0,0,0,0,0,0,0,0,-1.5,-0.4" 
class="s3_94"
>Daming’s younger brother has a younger sister. </text>

<path d="M562.2,1033.9c5.8,0,10.5,-4.7,10.5,-10.4c0,-5.8,-4.7,-10.5,-10.5,-10.5c-5.8,0,-10.5,4.7,-10.5,10.5c0,5.7,4.7,10.4,10.5,10.4Z" class="g3_94" />
<path d="M603.2,1033.9c5.8,0,10.5,-4.7,10.5,-10.4c0,-5.8,-4.7,-10.5,-10.5,-10.5c-5.8,0,-10.5,4.7,-10.5,10.5c0,5.7,4.7,10.4,10.5,10.4Z" class="g3_94" />
<text 
x="127" 
y="1072" 
dx="0" 
class="s2_94"
>3</text>

<text 
x="154" 
y="1072" 
dx="0,0,0,0,0,0,-0.2,0,0,0,-0.3,0,0,0,0,0,0,0,0,-0.2,0,0,0,0,0,0,0,0,-0.4,0,0,0,0,0,0,-0.2,0,0,0" 
class="s3_94"
>Daming’s younger brother likes to read.</text>

<path d="M562.2,1075.2c5.8,0,10.5,-4.7,10.5,-10.5c0,-5.8,-4.7,-10.5,-10.5,-10.5c-5.8,0,-10.5,4.7,-10.5,10.5c0,5.8,4.7,10.5,10.5,10.5Z" class="g3_94" />
<path d="M603.2,1075.2c5.8,0,10.5,-4.7,10.5,-10.5c0,-5.8,-4.7,-10.5,-10.5,-10.5c-5.8,0,-10.5,4.7,-10.5,10.5c0,5.8,4.7,10.5,10.5,10.5Z" class="g3_94" />
<text 
x="126" 
y="1113" 
dx="0" 
class="s2_94"
>4</text>

<text 
x="153" 
y="1113" 
dx="0,0,0,0,0,0,0,0,0,0,0,0,0,0,0,0,0,0,-0.2,0,0,0,0,0,0" 
class="s3_94"
>Xiaoming is Daming’s pet.</text>

<path d="M562.2,1116.4c5.8,0,10.5,-4.7,10.5,-10.4c0,-5.8,-4.7,-10.5,-10.5,-10.5c-5.8,0,-10.5,4.7,-10.5,10.5c0,5.7,4.7,10.4,10.5,10.4Z" class="g3_94" />
<path d="M603.2,1116.4c5.8,0,10.5,-4.7,10.5,-10.4c0,-5.8,-4.7,-10.5,-10.5,-10.5c-5.8,0,-10.5,4.7,-10.5,10.5c0,5.7,4.7,10.4,10.5,10.4Z" class="g3_94" />
<path d="M90.6,987.1l0,-60.5l330.4,0" class="g4_94" />
<path d="M421,929.4c1.5,0,2.7,-1.3,2.7,-2.8c0,-1.5,-1.2,-2.7,-2.7,-2.7c-1.5,0,-2.8,1.2,-2.8,2.7c0,1.5,1.3,2.8,2.8,2.8Z" class="g2_94" />
<path d="M106,940.5l223,0l0,-24.9l-223,0l0,24.9Z" class="g5_94" />
<text 
x="117" 
y="930" 
dx="0,0,0,0,0,0,0,0,0,0,0,0,0,0,0,0,0,0,0" 
class="s4_94"
>Comprehension Check</text>

<path d="M384.8,918.2c5.5,10.8,1.2,23.9,-9.5,29.4c-10.8,5.5,-23.9,1.2,-29.4,-9.5c-5.5,-10.8,-1.2,-23.9,9.5,-29.4c10.8,-5.5,23.9,-1.2,29.4,9.5Z" class="g5_94" />
<path d="M384.8,918.2c5.5,10.8,1.2,23.9,-9.5,29.4c-10.8,5.5,-23.9,1.2,-29.4,-9.5c-5.5,-10.8,-1.2,-23.9,9.5,-29.4c10.8,-5.5,23.9,-1.2,29.4,9.5Z" class="g6_94" />
<path d="M392.4,906.4c-1.2,-1,-3,-0.8,-4.1,0.6l-20.5,24.3c-1.1,1.4,-3,1.4,-4.2,0.2l-3,-2.8c-1.2,-1.2,-3.1,-1.3,-4.1,-0.2c-1.1,1.1,-1,2.9,0.2,4.1l7.3,7.2c1.2,1.2,3.1,1.1,4.2,-0.2l24.3,-29.1c1.1,-1.3,1.1,-3.1,-0.1,-4.1Z" class="g7_94" />
<text 
x="862" 
y="1149" 
dx="0,0" 
class="s5_94"
>71</text>



<!-- Any embedded fonts defined here -->
<style type="text/css" ><![CDATA[

@font-face {
	font-family: ProximaNova-Bold_cs-;
	src: url("fonts/ProximaNova-Bold_cs-.woff") format("woff");
}

@font-face {
	font-family: Alegreya-Bold_csx;
	src: url("fonts/Alegreya-Bold_csx.woff") format("woff");
}

@font-face {
	font-family: Alegreya-Regular_csr;
	src: url("fonts/Alegreya-Regular_csr.woff") format("woff");
}

@font-face {
	font-family: ProximaNova-Semibold_csu;
	src: url("fonts/ProximaNova-Semibold_csu.woff") format("woff");
}

]]></style>

</svg>
