<?xml version="1.0" encoding="UTF-8" standalone="no"?>
<!DOCTYPE svg PUBLIC "-//W3C//DTD SVG 1.1//EN"
"http://www.w3.org/Graphics/SVG/1.1/DTD/svg11.dtd">


<!-- Page 79 -->
<svg x="0" y="0" width="921" height="1196" viewBox="0 0 921 1196" version="1.1" xmlns="http://www.w3.org/2000/svg" xmlns:xlink="http://www.w3.org/1999/xlink"
style="display: block;margin-left: auto;margin-right: auto;">
<defs>
<clipPath id="c0_79"><path d="M0,1196.3L0,0L921.3,0l0,1196.3Z" /></clipPath>
<clipPath id="c1_79"><path d="M316.3,974l0,-386.6l123.2,0l0,386.6Z" /></clipPath>
<clipPath id="c2_79"><path d="M378.2,722.8l0,-7.1l33.5,0l0,7.1Z" /></clipPath>
<clipPath id="c3_79"><path d="M361.5,642.8l0,-40.2l74.5,0l0,40.2Z" /></clipPath>
<clipPath id="c4_79"><path d="M221,975.6l0,-386.7l109,0l0,386.7Z" /></clipPath>
<clipPath id="c5_79"><path d="M302.6,859.7L288.2,822l15.2,-4.4l14.4,37.7l-15.2,4.4Z" /></clipPath>
<clipPath id="c6_79"><path d="M300.2,870.9l-4.3,-18l13.5,-2.8l4.3,18l-13.5,2.8Z" /></clipPath>
<clipPath id="c7_79"><path d="M242.2,858.4L227,854l14.4,-37.7l15.2,4.4l-14.4,37.7Z" /></clipPath>
<clipPath id="c8_79"><path d="M244.6,869.6l-13.5,-2.8l4.3,-18l13.5,2.8l-4.3,18Z" /></clipPath>
<clipPath id="c9_79"><path d="M250.2,766.1l0,-7.8l7.8,0l0,7.8Z" /></clipPath>
<clipPath id="c10_79"><path d="M285.9,766.1l0,-7.8l7.8,0l0,7.8Z" /></clipPath>
<clipPath id="c11_79"><path d="M255.7,722.6l0,-2.6l0.8,0l0,2.6Z" /></clipPath>
<clipPath id="c12_79"><path d="M256.3,719.2l0,-2.7l0.6,0l0,2.7Z" /></clipPath>
<clipPath id="c13_79"><path d="M269.5,758.1l0,-4l4.9,0l0,4Z" /></clipPath>
<clipPath id="c14_79"><path d="M149.6,817.5l0,-6.8l5.1,0l0,6.8Z" /></clipPath>
<clipPath id="c15_79"><path d="M146.3,807.7l0,-3.5l8.3,0l0,3.5Z" /></clipPath>
<clipPath id="c16_79"><path d="M172.6,817.5l0,-6.8l5,0l0,6.8Z" /></clipPath>
<clipPath id="c17_79"><path d="M172.7,807.7l0,-3.5l8.2,0l0,3.5Z" /></clipPath>
<clipPath id="c18_79"><path d="M148.1,823.9c-1.4,-0.1,-2.6,-1.3,-2.7,-2.7l0,-0.2c0.1,-1.4,1.3,-2.6,2.8,-2.6c1.5,0,2.7,1.2,2.7,2.7c0,1.5,-1.2,2.7,-2.7,2.8Z" /></clipPath>
<clipPath id="c19_79"><path d="M176.4,823.9l0,-5.5l5.4,0l0,5.5Z" /></clipPath>
<clipPath id="c20_79"><path d="M163.2,820.7c-1,0,-1.9,-0.8,-1.9,-1.9c0,-1,0.9,-1.9,1.9,-1.9l0.9,0c1,0,1.8,0.9,1.8,1.9c0,1.1,-0.8,1.9,-1.9,1.9Z" /></clipPath>
<clipPath id="c21_79"><path d="M518.3,634.9c-3.8,0,-7,-3.1,-7,-6.9l0,-12.4c0,-3.8,3.2,-6.9,7,-6.9c3.8,0,6.9,3.1,7,6.9l0,12.4c-0.1,3.8,-3.2,6.9,-7,6.9Z" /></clipPath>
<clipPath id="c22_79"><path d="M583.5,975.6l0,-386.7l117.8,0l0,386.7Z" /></clipPath>
<clipPath id="c23_79"><path d="M627.3,698.9l0,-24.3l12.9,0l0,24.3Z" /></clipPath>
<clipPath id="c24_79"><path d="M591.3,681.5l0,-44.4l17.9,0l0,44.4Z" /></clipPath>
<clipPath id="c25_79"><path d="M756.8,765.3c-3.8,0,-6.8,-2,-6.9,-4.6l0,-8.5c0.1,-2.5,3.1,-4.6,6.9,-4.6c3.8,0,6.9,2.1,6.9,4.7l0,8.3c0,2.6,-3.1,4.7,-6.9,4.7Z" /></clipPath>

<style type="text/css"><![CDATA[

.g1_79{
fill: none;
stroke: #3986C6;
stroke-width: 1.6194444;
stroke-linecap: butt;
stroke-linejoin: miter;
stroke-miterlimit: 4;
}
.g2_79{
fill: #3986C6;
}
.g3_79{
fill: #ACBF3B;
}
.g4_79{
fill: none;
stroke: #3986C6;
stroke-width: 1.9097222;
stroke-linecap: butt;
stroke-linejoin: miter;
stroke-miterlimit: 4;
}
.g5_79{
fill: none;
stroke: #3986C6;
stroke-width: 1.5277778;
stroke-linecap: butt;
stroke-linejoin: miter;
stroke-miterlimit: 4;
}
.g6_79{
fill: #E2E3E5;
}
.g7_79{
fill: none;
stroke: #FFFFFF;
stroke-width: 1.5277778;
stroke-linecap: butt;
stroke-linejoin: miter;
stroke-miterlimit: 4;
}
.g8_79{
fill: none;
stroke: #3986C6;
stroke-width: 1.1458334;
stroke-linecap: butt;
stroke-linejoin: miter;
}
.g9_79{
fill: #A54F48;
}
.g10_79{
fill: #BC6962;
}
.g11_79{
fill: #FAB99E;
}
.g12_79{
fill: #5773A1;
}
.g13_79{
fill: #F1623D;
}
.g14_79{
fill: #C34A3A;
}
.g15_79{
fill: #E06E52;
}
.g16_79{
fill: #DD4E36;
}
.g17_79{
fill: #EE8D70;
}
.g18_79{
fill: #F6936F;
}
.g19_79{
fill: #F69F80;
}
.g20_79{
fill: #FFFFFF;
}
.g21_79{
fill: #C9786F;
}
.g22_79{
fill: #FBC1AA;
}
.g23_79{
fill: #804D45;
}
.g24_79{
fill: #B0593C;
}
.g25_79{
fill: #EF4822;
}
.g26_79{
fill: #E7F6FA;
}
.g27_79{
fill: #F9B2AC;
}
.g28_79{
fill: #F4908C;
}
.g29_79{
fill: #F7A696;
}
.g30_79{
fill: #FBC1A6;
}
.g31_79{
fill: #C8786B;
}
.g32_79{
fill: #674239;
}
.g33_79{
fill: #F69C91;
}
.g34_79{
fill: #9D5047;
}
.g35_79{
fill: #67413A;
}
.g36_79{
fill: #F59584;
}
.g37_79{
fill: #E1EDF8;
}
.g38_79{
fill: #F15E4C;
}
.g39_79{
fill: #FBF17E;
}
.g40_79{
fill: #2C3C58;
}
.g41_79{
fill: #283E4C;
}
.g42_79{
fill: #D5EFFB;
}
.g43_79{
fill: #364D6C;
}
.g44_79{
fill: #EBF6F9;
}
.g45_79{
fill: #617289;
}
.g46_79{
fill: #F1A18A;
}
.g47_79{
fill: #A56052;
}
.g48_79{
fill: #F69D7C;
}
.g49_79{
fill: #6A7A8F;
}
.g50_79{
fill: #4A5CA2;
}
.g51_79{
fill: none;
stroke: #4D5E9A;
stroke-width: 0.74250007;
stroke-linecap: butt;
stroke-linejoin: miter;
}
.g52_79{
fill: #99A3D1;
}
.g53_79{
fill: #4D5E9A;
}
.g54_79{
fill: #858ABE;
}
.g55_79{
fill: #8E7095;
}
.g56_79{
fill: #755D84;
}
.g57_79{
fill: #6772B2;
}
.g58_79{
fill: #4A5D9F;
}
.g59_79{
fill: none;
stroke: #4D5E9A;
stroke-width: 0.5530556;
stroke-linecap: butt;
stroke-linejoin: miter;
}
.g60_79{
fill: #F5AA91;
}
.g61_79{
fill: #FADF0C;
}

.s1_79{
font-size: 12.99px;
font-family: ProximaNova-Semibold_csu;
fill: #231F20;
}
.s2_79{
font-size: 18.33px;
font-family: ProximaNova-Bold_cs-;
fill: #231F20;
}
.s3_79{
font-size: 44.31px;
font-family: ProximaNova-Bold_cs-;
fill: #3986C6;
}
.s4_79{
font-size: 19.10px;
font-family: Alegreya-Regular_csr;
fill: #231F20;
}
.s5_79{
font-size: 16.04px;
font-family: Alegreya-Regular_csr;
fill: #231F20;
}
.s6_79{
font-size: 32.08px;
font-family: STKaitiSC-Regular_cof;
fill: #231F20;
}
.s7_79{
font-size: 16.81px;
font-family: ProximaNova-Extrabld_cst;
fill: #FFFFFF;
}
.s8_79{
font-size: 25.97px;
font-family: ProximaNova-Bold_cs-;
fill: #FFFFFF;
}
.s9_79{
font-size: 25.97px;
font-family: ProximaNova-Bold_cs-;
fill: #231F20;
}
.s10_79{
font-size: 13.75px;
font-family: ProximaNova-Extrabld_cst;
fill: #FFFFFF;
}
.s11_79{
font-size: 32.08px;
font-family: STKaitiSC-Regular_cof;
fill: #3986C6;
}
.s12_79{
font-size: 18.33px;
font-family: ProximaNova-Extrabld_cst;
fill: #FFFFFF;
}

]]></style>

</defs>
<path d="M0,0
L0,1196
L921,1196
L921,0 Z " 
fill="#FFFFFF" stroke="none" />
<text 
transform="matrix(0, -1, 1, 0, 54, 1084)"
dx="0,0,0,0,0,0,0,0,0,0,0,0,0,0,0,0,0,0,0" 
class="s1_79"
>Go Far with Chinese</text>

<text 
x="38" 
y="1149" 
dx="0,0" 
class="s2_79"
>56</text>

<path d="M50.4,1089.3l0,38.7" class="g1_79" />
<path d="M50.4,1125.4c-1.4,0,-2.5,1.1,-2.5,2.6c0,1.4,1.1,2.6,2.5,2.6c1.5,0,2.6,-1.2,2.6,-2.6c0,-1.5,-1.1,-2.6,-2.6,-2.6Z" class="g2_79" />
<path d="M626.9,1009c0,0,-9.2,0,-9.2,-9.1l0,-15.2l16.1,0c0,0,9.1,0,9.1,9.2l0,15.1Z" class="g3_79" />
<path d="M388.1,1009c0,0,-9.1,0,-9.1,-9.1l0,-15.2l16,0c0,0,9.2,0,9.2,9.2l0,15.1Z" class="g3_79" />
<path d="M509,1009c0,0,-9.1,0,-9.1,-9.1l0,-15.2l16,0c0,0,9.2,0,9.2,9.2l0,15.1Z" class="g3_79" />
<path d="M761.4,1009c0,0,-9.2,0,-9.2,-9.1l0,-15.2l16.1,0c0,0,9.1,0,9.1,9.2l0,15.1Z" class="g3_79" />
<path d="M267.1,1009c0,0,-9.1,0,-9.1,-9.1l0,-15.2l16,0c0,0,9.2,0,9.2,9.2l0,15.1Z" class="g3_79" />
<path d="M156.1,1009c0,0,-9.2,0,-9.2,-9.1l0,-15.2l16.1,0c0,0,9.1,0,9.1,9.2l0,15.1Z" class="g3_79" />
<path d="M127.1,197.5c-10.1,0,-18.3,-8.2,-18.3,-18.3l0,-20.2l23.1,0c10.1,0,18.3,8.2,18.3,18.3l0,20.2Z" class="g2_79" />
<g clip-path="url(#c0_79)">
<path d="M-13.7,51.3l877.1,0" class="g4_79" />
</g>
<path d="M863.4,55.9c2.6,0,4.6,-2.1,4.6,-4.6c0,-2.5,-2,-4.6,-4.6,-4.6c-2.5,0,-4.6,2.1,-4.6,4.6c0,2.5,2.1,4.6,4.6,4.6Z" class="g2_79" />
<path d="M314.1,31.1c11.2,0,20.2,9.1,20.2,20.2l0,20.2l-112.2,0l0,-40.4Z" class="g3_79" />
<path d="M130.2,71.5C119,71.5,110,62.4,110,51.3l0,-20.2l112.1,0l0,40.4Z" class="g2_79" />
<image preserveAspectRatio="none" x="571" y="279" width="209" height="184" xlink:href="79/img/1.png" />
<image preserveAspectRatio="none" x="571" y="463" width="209" height="46" xlink:href="79/img/2.png" />
<path d="M192.3,378.5l397.7,0" class="g5_79" />
<path d="M590,373.9c2.5,0,4.6,2,4.6,4.6c0,2.5,-2.1,4.5,-4.6,4.5c-2.6,0,-4.6,-2,-4.6,-4.5c0,-2.6,2,-4.6,4.6,-4.6Z" class="g2_79" />
<path d="M164,351.5c-7.6,0,-13.8,6.2,-13.8,13.8l0,27.8c0,7.6,6.2,13.8,13.8,13.8l27.8,0c7.6,0,13.8,-6.2,13.8,-13.8l0,-27.8c0,-7.6,-6.2,-13.8,-13.8,-13.8Z" class="g6_79" />
<path d="M238.9,351.5c-7.6,0,-13.8,6.2,-13.8,13.8l0,27.8c0,7.6,6.2,13.8,13.8,13.8l27.8,0c7.6,0,13.8,-6.2,13.8,-13.8l0,-27.8c0,-7.6,-6.2,-13.8,-13.8,-13.8Z" class="g6_79" />
<path d="M313.8,351.5c-7.6,0,-13.7,6.2,-13.7,13.8l0,27.8c0,7.6,6.1,13.8,13.7,13.8l60.4,0c7.6,0,13.7,-6.2,13.7,-13.8l0,-27.8c0,-7.6,-6.1,-13.8,-13.7,-13.8Z" class="g6_79" />
<path d="M421.3,351.5c-7.6,0,-13.8,6.2,-13.8,13.8l0,27.8c0,7.6,6.2,13.8,13.8,13.8l84.6,0c7.6,0,13.8,-6.2,13.8,-13.8l0,-27.8c0,-7.6,-6.2,-13.8,-13.8,-13.8Z" class="g6_79" />
<text 
x="105" 
y="122" 
dx="0,-3.5,0,0,0,0,0,0,0,0,0,0,0,0,0,0,0,0,0,0,0,0" 
class="s3_79"
>Talking about siblings</text>

<text 
x="107" 
y="236" 
dx="0,-0.8,0,0,0,0,0,0,0,0,0,0,0,0,0,0,0,0,0,0,0,0,0,0,0,0,0,0,0,0,0,0,0,0,0,0,0,0,0,0,0,0,0,0,0,0,0,-0.2,0,0,0,0,0,0,0,0,0,-0.3,-1.3,-0.4,0,-0.6,0.3,0,0,0,0,0,0,0,0,0,0,0,0,0,0,0,0,0,0,0,0,0,0,0,0,0,0,0,0,-0.3,0,0" 
class="s4_79"
>Your teacher will lead a discussion about the family below. Try to participate as much as you </text>

<text 
x="109" 
y="262" 
dx="0,-0.2,0,0,-0.4,0,0,0,0,0,0,0,-0.2,0,0,0,0,0,0,-0.4,0,0,0,0,0,0,0,-0.3,0,0,0,0,0,-1.5,0,0,0,0,0,0,0,0,0,0,0,0,0,-0.4,0,0,0,0,0,-0.3,0,0,0,0,0,0,0,0,0,0,0,0,0,0,-0.3,-1.3" 
class="s4_79"
>can. If there is anything you don't understand, let your teacher know.</text>

<text 
x="172" 
y="345" 
dx="0,0.1,0.2" 
class="s5_79"
>Nǐ </text>

<text 
x="239" 
y="345" 
dx="0,0,0.2,0.2" 
class="s5_79"
>yǒu </text>

<text 
x="319" 
y="345" 
dx="0,0.2,0.2,0.2,0,0.2,0.2" 
class="s5_79"
>méiyǒu </text>

<text 
x="442" 
y="345" 
dx="0,0.2,0.1,0.2,0.2" 
class="s5_79"
>gēge?</text>

<text 
x="161" 
y="388" 
dx="0,0" 
class="s6_79"
>你 </text>

<text 
x="236" 
y="388" 
dx="0,0" 
class="s6_79"
>有 </text>

<text 
x="310" 
y="388" 
dx="0,0,0" 
class="s6_79"
>没有 </text>

<text 
x="422" 
y="388" 
dx="0,0,0" 
class="s6_79"
>哥哥？</text>

<path d="M222.9,25.6l0,45.9" class="g7_79" />
<text 
x="232" 
y="57" 
dx="0,0,0,0,0,0,0,0,0" 
class="s7_79"
>µ¶CTI·¸ 1</text>

<text 
x="121" 
y="57" 
dx="0,0,0,0,0,0,0,0,0,0" 
class="s7_79"
>C¹APT¶º 3 </text>

<text 
x="219" 
y="440" 
dx="0,0,0,0,-0.3,0,0,0,0,-0.4,-0.3,0,0,0,0,0,0,0,0,0,0,0,0,-0.2,0,0,0,0,0" 
class="s4_79"
>Do you have an older brother?</text>

<path d="M118.8,159.6l459.2,0" class="g8_79" />
<path d="M132.6,197.1l445.4,0" class="g8_79" />
<text 
x="117" 
y="186" 
dx="0,0,0" 
class="s8_79"
>1a </text>

<text 
x="160" 
y="186" 
dx="0,-0.2,0,0,0,0,0,0,0,0,0,0,0,0,0" 
class="s9_79"
>Language Model </text>

<path d="M380.5,188.8c-5.9,0,-10.8,-4.8,-10.8,-10.8l0,-10.9l194.4,0c6,0,10.9,4.9,10.9,10.9l0,10.8Z" class="g3_79" />
<text 
x="384" 
y="182" 
dx="0,-0.9,0,0,0,0,0,0,0,0,0,0,-0.5,-0.4,0,0,0,0,0,0,0" 
class="s10_79"
>TAºG¶T »A¸G¼AG¶ I¸P¼T</text>

<text 
x="616" 
y="1035" 
dx="0,0.2,0.1,0.2,0.2" 
class="s5_79"
>gēge </text>

<text 
x="599" 
y="1073" 
dx="0,0" 
class="s11_79"
>哥哥</text>

<text 
x="580" 
y="1100" 
dx="0,0,0,0,0,0,0,0,-0.2,0,0,0,0" 
class="s4_79"
>older brother</text>

<text 
x="624" 
y="1004" 
dx="0" 
class="s12_79"
>5</text>

<text 
x="371" 
y="1035" 
dx="0,0.2,0.2,0.2,0.2" 
class="s5_79"
>māma </text>

<text 
x="361" 
y="1073" 
dx="0,0" 
class="s11_79"
>妈妈</text>

<text 
x="339" 
y="1100" 
dx="0,0,0,0,0,0,-1.5,-0.4,0,0,0" 
class="s4_79"
>mother, mom</text>

<text 
x="385" 
y="1004" 
dx="0" 
class="s12_79"
>3</text>

<text 
x="497" 
y="1035" 
dx="0,0.2,0.2,0.2,0.2" 
class="s5_79"
>bàba </text>

<text 
x="481" 
y="1073" 
dx="0,0" 
class="s11_79"
>爸爸</text>

<text 
x="471" 
y="1100" 
dx="0,-0.2,0,0,0,0,-1.5,-0.4,0,0,0" 
class="s4_79"
>father, dad</text>

<text 
x="506" 
y="1004" 
dx="0" 
class="s12_79"
>4</text>

<text 
x="750" 
y="1035" 
dx="0,0.2,0.2,0.2" 
class="s5_79"
>dìdi</text>

<text 
x="732" 
y="1073" 
dx="0,0" 
class="s11_79"
>弟弟</text>

<text 
x="700" 
y="1100" 
dx="0,-0.3,0,0,0,0,0,0,0,0,-0.2,0,0,0,0" 
class="s4_79"
>younger brother</text>

<text 
x="759" 
y="1004" 
dx="0" 
class="s12_79"
>6</text>

<text 
x="256" 
y="1035" 
dx="0,0.2,0.2,0.2,0.2,0.2" 
class="s5_79"
>jiějie</text>

<text 
x="241" 
y="1073" 
dx="0,0" 
class="s11_79"
>姐姐</text>

<text 
x="229" 
y="1100" 
dx="0,0,0,0,0,0,0,0,0,0,0,0" 
class="s4_79"
>older sister</text>

<text 
x="264" 
y="1004" 
dx="0" 
class="s12_79"
>2</text>

<text 
x="134" 
y="1035" 
dx="0,0.2,0.2,0.2,0.2,0.2" 
class="s5_79"
>mèimei</text>

<text 
x="127" 
y="1073" 
dx="0,0" 
class="s11_79"
>妹妹</text>

<text 
x="103" 
y="1100" 
dx="0,-0.3,0,0,0,0,0,0,0,0,0,0,0,0" 
class="s4_79"
>younger sister</text>

<text 
x="154" 
y="1004" 
dx="0" 
class="s12_79"
>1</text>

<g clip-path="url(#c1_79)">
<path d="M418.6,682.6c-3.8,9.7,1.4,19.7,2.2,30.2c0,1,0,2.1,-0.1,3.1c-1.2,10.5,-12.1,19.5,-22.7,17.7c-0.4,-0.1,-0.8,-0.2,-1.2,-0.3c-2.6,-0.5,-5.2,-1.4,-7.8,-1.3c-6.5,0.3,-10.9,6.2,-15.9,10.4c-9.5,7.9,-23.8,9.6,-34.8,4c-8.2,-4,-14.8,-13.7,-11.3,-22.1c2.9,-7.1,11.3,-10,16.8,-15.4c1.7,-1.7,3.2,-3.8,3.4,-6.2c0.5,-8,-13.1,-13.8,-9.2,-20.8c2,-3.4,6.7,-3.5,10.4,-4.9c5.9,-2.1,9.6,-8.1,11.8,-14c2.2,-5.9,3.2,-12.2,6.1,-17.8c5,-9.4,14.9,-15.7,25.3,-17.8c10.4,-2.2,21.3,-0.7,31.5,2.4c11.4,3.6,13,9.3,13.9,15.8c0,0.2,0,0.4,0.1,0.5c3.1,23.6,-15.1,28,-18.5,36.5Z" class="g9_79" />
<path d="M418.6,682.6c-3.8,9.7,1.4,19.7,2.2,30.2c0,1,0,2.1,-0.1,3.1c-1.2,10.5,-12.1,19.5,-22.7,17.7c-0.4,-0.1,-0.8,-0.2,-1.2,-0.3c0.3,-0.1,0.6,-0.2,1,-0.3c3.4,-0.8,6.9,-1.7,10.4,-2.5c2.2,-0.6,4.6,-1.2,5.9,-3.1c0.5,-0.7,0.8,-1.6,1,-2.4c3,-10.3,-3.5,-15.1,-6.3,-23.9c-2.3,-7,0.5,-16.4,5.1,-21.9c5.5,-6.3,9.7,-5.2,10.7,-13.8c0.9,-7.9,1,-16,0.6,-23.9c0,-0.6,-0.1,-1.2,0.3,-1.7c0.4,-0.5,1.1,-0.6,1.7,-0.6c5.5,0.1,8.6,3,9.9,6.9c3.1,23.6,-15.1,28,-18.5,36.5Z" class="g10_79" />
</g>
<path d="M376.8,642.5c-0.4,-0.7,-1.2,-1.1,-1.9,-1.5c-4.5,-2.3,-9.6,-3.5,-14.7,-3.5c-0.2,0.7,-0.6,1.3,-1,1.9c-0.1,4.3,-0.2,8.7,-0.3,13.1c-0.1,3.8,-0.2,7.8,-2.1,11.1c-2.9,5.2,-9.3,7.2,-14.3,10.6c-6,4,-10.4,11.9,-7.4,18.4c2.1,4.4,7.4,7.4,7.9,12.3c0.7,5.7,-5.1,9.7,-10.2,12.4c6,-1.4,11.6,-4.3,16.2,-8.2c4.3,-3.6,8,-9,6.8,-14.4c-0.8,-3.3,-3.3,-6.2,-2.9,-9.6c0.5,-4.2,5.1,-6.4,8.2,-9.3c8,-7.2,7.4,-20.2,14,-28.6c1.1,-1.4,2.5,-3.1,1.7,-4.7Z" class="g10_79" />
<path d="M366.4,960.4l-1.1,0.3l-4.4,-6.6c2.6,-2.5,5.5,-4.5,8.3,-6.1c5.5,-3,10.9,-4.5,14.3,-5.2l0.1,0l0.2,-0.1c1.6,-0.3,3.3,0.5,4.3,1.9c0.2,0.3,0.4,0.5,0.5,0.8c0.1,0.2,0.2,0.4,0.3,0.6l-3.1,3.1c-5.5,5.5,-12.2,9.4,-19.4,11.3Z" class="g11_79" />
<path d="M355,962.2c1.6,-3.1,3.6,-5.8,5.9,-8.1l4.4,6.6l1.1,-0.3c7.2,-1.9,13.9,-5.8,19.4,-11.3l3.1,-3.1c0.3,1,0.4,2,0.2,2.9c0,0.3,-0.1,0.6,-0.2,0.9c-0.2,0.7,-0.5,1.3,-1,1.8c-14.8,15.7,-26.5,15.4,-31.5,14.2c-0.9,-0.2,-1.4,-1,-1.6,-1.9c-0.1,-0.5,0,-1.1,0.2,-1.7Z" class="g12_79" />
<path d="M387.5,959.2c-1.1,0,-2,-0.9,-2,-2l0,-7.1c0,-1.1,0.9,-2,2,-2c1.1,0,2,0.9,2,2l0,7.1c0,1.1,-0.9,2,-2,2Z" class="g12_79" />
<path d="M422.6,960.4l1.1,0.3l4.3,-6.6c-2.5,-2.5,-5.4,-4.5,-8.3,-6.1c-5.4,-3,-10.9,-4.5,-14.2,-5.2l-0.2,0l-0.2,-0.1c-1.6,-0.3,-3.2,0.5,-4.3,1.9c-0.1,0.3,-0.3,0.5,-0.4,0.8c-0.1,0.2,-0.2,0.4,-0.3,0.6l3,3.1c5.5,5.5,12.2,9.4,19.5,11.3Z" class="g11_79" />
<path d="M433.9,962.2c-1.5,-3.1,-3.5,-5.8,-5.9,-8.1l-4.3,6.6l-1.1,-0.3c-7.3,-1.9,-14,-5.8,-19.5,-11.3l-3,-3.1c-0.3,1,-0.4,2,-0.3,2.9c0.1,0.3,0.1,0.6,0.2,0.9c0.2,0.7,0.6,1.3,1.1,1.8c14.7,15.7,26.4,15.4,31.4,14.2c0.9,-0.2,1.5,-1,1.6,-1.9c0.1,-0.5,0.1,-1.1,-0.2,-1.7Z" class="g12_79" />
<path d="M401.5,959.2c1.1,0,2,-0.9,2,-2l0,-7.1c0,-1.1,-0.9,-2,-2,-2c-1.1,0,-2,0.9,-2,2l0,7.1c0,1.1,0.9,2,2,2Z" class="g12_79" />
<path d="M382.4,768.1l-0.4,0c-10.3,-0.2,-15.1,9.1,-17.4,18.2l9.5,69.5c1.3,4.4,2.4,7.9,2.4,7.9l0,2.1c-0.1,3.6,3,6.6,6.8,6.7c3.7,0,6.8,-2.6,7.1,-6.1c1.1,-16.1,2.1,-32.1,3.2,-48.2c0.8,-11.6,10.6,-50.2,-11.2,-50.1Z" class="g11_79" />
<path d="M388,905.3c-0.3,4.9,-0.5,9.8,-0.8,14.7c-0.4,7.9,-0.8,15.8,-1.1,23.7c-0.2,2.1,-2,3.8,-4.3,3.9c-2.4,0.1,-4.5,-1.5,-4.7,-3.7L374.7,920L372,892.5C371.3,885.4,370.5,858,382.5,858c12.9,0,5.9,38.5,5.5,47.3Z" class="g11_79" />
<path d="M407.4,769.8l0.4,0c10.3,-0.2,15.2,9.1,17.4,18.2l-9.4,69.5c-1.4,4.4,-2.5,7.9,-2.5,7.9l0.1,2.1c0,3.6,-3,6.6,-6.9,6.7c-3.7,0,-6.8,-2.6,-7,-6.1C398.4,852,397.3,836,396.2,819.9c-0.8,-11.6,-10.6,-50.2,11.2,-50.1Z" class="g11_79" />
<path d="M400.5,905.3c0.3,4.9,0.5,9.8,0.7,14.7c0.4,7.9,0.8,15.8,1.2,23.7c0.1,2.1,2,3.8,4.3,3.9c2.4,0.1,4.5,-1.5,4.7,-3.7L413.8,920l2.7,-27.5C417.2,885.4,417.9,858,406,858c-13,0,-5.9,38.5,-5.5,47.3Z" class="g11_79" />
<path d="M418.3,859.6c0.3,-1.3,0.6,-2.6,0.7,-4l7.6,-53.3c2.7,-23.3,-7.7,-45.5,-23.7,-45.5l-16,0c-15.9,0,-26.4,22.2,-23.6,45.5l7.5,53.3c0.2,1.4,0.4,2.7,0.8,4Z" class="g13_79" />
<path d="M385.4,706.3l-3.9,10.2l-11.6,30.6c-0.7,1.9,-2.5,3,-4.5,3c-0.5,0,-1,0,-1.5,-0.2c-2.5,-0.8,-3.9,-3.6,-3,-6.1l10.6,-30l4,-11.2c0.7,-2.2,2.8,-3.5,5,-3.5c0.5,0,1.1,0,1.7,0.2c2.8,1,4.3,4.2,3.2,7Z" class="g11_79" />
<path d="M382.2,699.3c-0.6,-0.2,-1.2,-0.2,-1.7,-0.2l-5.7,0.1l-3.7,4.2l0.9,8.9l-0.5,1.5l10,2.7l3.9,-10.2c1.1,-2.8,-0.4,-6,-3.2,-7Z" class="g13_79" />
<path d="M361.5,743.5l-3.1,7.8c-1.1,2.9,-1.7,5.9,-1.9,8.9l-1.7,37.4c-0.1,2,1.4,3.7,3.4,3.8c1.9,0.1,3.5,-1.2,3.9,-3L370,757.7l0.3,-12.4c0.1,-1.5,-0.7,-3,-2,-3.9c-2.4,-1.7,-5.8,-0.6,-6.8,2.1Z" class="g11_79" />
<path d="M360.7,794.1l-0.6,-0.2c-0.5,-0.3,-1.1,-0.4,-1.7,-0.3c-1.4,0.1,-2.7,1.1,-3.1,2.6l-2.6,9.1c-0.1,0.6,-0.2,1.1,-0.2,1.7l0,8.1c0,1,0.2,1.9,0.6,2.8l1.9,3.7c0.9,1.7,2.4,2.9,4.3,3.3c1.4,0.3,2.7,-0.9,2.5,-2.4L361,817l0.4,-8.1l0.5,5.9c0.1,0.9,0.4,1.7,0.8,2.4c0.7,0.9,2.2,0.5,2.2,-0.7l0,-11.5l-2.2,-8.5c-0.2,-1.1,-1,-2,-2,-2.4Z" class="g11_79" />
<path d="M404.4,706.3l3.9,10.2l11.6,30.6c0.8,1.9,2.6,3,4.5,3c0.5,0,1,0,1.5,-0.2c2.5,-0.8,3.9,-3.6,3,-6.1l-10.6,-30l-3.9,-11.2c-0.8,-2.2,-2.8,-3.5,-5,-3.5c-0.6,0,-1.2,0,-1.7,0.2c-2.9,1,-4.4,4.2,-3.3,7Z" class="g11_79" />
<path d="M407.7,699.3c0.5,-0.2,1.1,-0.2,1.7,-0.2l5.7,0.1l3.7,4.2l-1,8.9l0.5,1.5l-10,2.7l-3.9,-10.2c-1.1,-2.8,0.4,-6,3.3,-7Z" class="g13_79" />
<path d="M428.4,743.5l3,7.8c1.1,2.9,1.7,5.9,1.9,8.9l1.7,37.4c0.1,2,-1.4,3.7,-3.4,3.8c-1.8,0.1,-3.5,-1.2,-3.8,-3l-7.9,-40.7l-0.4,-12.4c0,-1.5,0.7,-3,2,-3.9c2.4,-1.7,5.8,-0.6,6.9,2.1Z" class="g11_79" />
<path d="M429.2,794.1l0.5,-0.2c0.5,-0.3,1.1,-0.4,1.7,-0.3c1.5,0.1,2.7,1.1,3.1,2.6l2.6,9.1c0.2,0.6,0.2,1.1,0.2,1.7l0,8.1c0,1,-0.2,1.9,-0.6,2.8l-1.9,3.7c-0.8,1.7,-2.4,2.9,-4.2,3.3c-1.4,0.3,-2.7,-0.9,-2.5,-2.4l0.7,-5.5l-0.3,-8.1l-0.6,5.9c0,0.9,-0.3,1.7,-0.8,2.4c-0.6,0.9,-2.1,0.5,-2.1,-0.7L425,805l2.1,-8.5c0.3,-1.1,1,-2,2.1,-2.4Z" class="g11_79" />
<path d="M418.2,766.7c0.2,1,-0.5,2,-1.5,2.2l-13.5,2.4c-5.2,0.9,-11.1,0.9,-16.6,0l-13.5,-2.4c-1,-0.2,-1.7,-1.2,-1.5,-2.2L380,722.2l0.2,-1.4l-0.4,-0.6c-1.1,-1.7,-1.6,-3.5,-1.6,-5.3c-0.1,-2.7,0.9,-5.3,2.9,-7.3l0,-6.8l5.9,-4.1l4.8,-3.4c1.9,-1.3,4.4,-1.3,6.2,0l4.8,3.4l6,4.1l0,6.8c1.9,2,2.9,4.6,2.9,7.3c-0.1,1.8,-0.6,3.6,-1.7,5.3l-0.4,0.6l8.6,45.9Z" class="g13_79" />
<path d="M402.8,696.7c-1.4,1.8,-3.7,3,-6.2,3l-3.4,0c-2.5,0,-4.8,-1.1,-6.2,-3l4.8,-3.4c1.9,-1.3,4.4,-1.3,6.2,0Z" class="g13_79" />
<path d="M409.8,720.5l-0.2,0.3l0.3,1.5L410,722c0.1,-0.1,0.2,-0.2,0.2,-0.4l-0.4,-1.1Z" class="g14_79" />
<g clip-path="url(#c2_79)">
<path d="M411.7,715.7l-0.1,0c-0.1,1.6,-0.7,3.1,-1.6,4.5l-0.2,0.3l0.4,1.1c1,-1.8,1.4,-3.8,1.5,-5.8l0,-0.1Z" class="g15_79" />
</g>
<path d="M380,720.5l-0.4,1.1c0.1,0.2,0.1,0.3,0.2,0.4l0.2,0.3l0,-0.1l0.2,-1.4L380,720.5Z" class="g14_79" />
<path d="M378.2,715.7l0,0c0,2.1,0.5,4.1,1.4,5.9l0.4,-1.1l-0.2,-0.3c-0.9,-1.4,-1.4,-2.9,-1.6,-4.5Z" class="g15_79" />
<g clip-path="url(#c2_79)">
<path d="M411.6,715.7l-33.4,0c0.2,1.6,0.7,3.1,1.6,4.5l0.2,0.3l0.2,0.3l-0.2,1.4l0,0.1l0.2,0.5l29.4,0l0.3,-0.5l-0.3,-1.5l0.2,-0.3l0.2,-0.3c0.9,-1.4,1.5,-2.9,1.6,-4.5Z" class="g16_79" />
</g>
<path d="M400.8,676.6l0,21c0,2.2,-1.8,4,-4,4l-3.8,0c-2.2,0,-3.9,-1.8,-3.9,-4l0,-21c0,-2,1.6,-3.7,3.6,-3.7l4.4,0c2,0,3.7,1.7,3.7,3.7Z" class="g17_79" />
<path d="M400.8,692l0,5.6c0,2.2,-1.8,4,-4,4l-3.8,0c-2.2,0,-3.9,-1.8,-3.9,-4l0,-11.9Z" class="g11_79" />
<path d="M425.6,672.9c3.5,-2.3,6.4,-5.4,8.7,-9c1.7,-6.1,2.8,-12.5,3,-18.9c0.1,-3.6,0,-7.3,-0.4,-10.8c-0.2,-2.2,-0.5,-4.3,-0.9,-6.4c-0.6,-3,-1.4,-5.9,-2.5,-8.6c0,-0.2,-0.1,-0.3,-0.1,-0.5l-0.2,-0.3c-3.1,-7.6,-8.3,-13.4,-14.1,-14.3c-1.7,-0.2,-3.5,0,-5.2,0.7c-4.1,1.6,-7.7,5.7,-9.4,11.6l0.6,-1.2c-0.9,2.5,-0.7,5.9,0.1,8.5c0.7,1.9,0.3,3.2,0.3,4.4c-0.1,0.6,0,1.3,0.4,2c0.1,0.1,0.2,0.3,0.4,0.6c0.4,0.5,0.9,1,1.3,1.5c2.2,2.6,4.7,5.5,7.2,8.5c0.9,1.1,1.7,2.1,2.5,3.3c2.6,3.5,4.9,7.2,6.2,11.1c1.7,5.3,2.4,11.6,2.1,17.8Z" class="g10_79" />
<path d="M376.7,653.6c0,4.5,-3.7,8.1,-8.2,8.1c-4.5,0,-8.2,-3.6,-8.2,-8.1c0,-4.6,3.7,-8.2,8.2,-8.2c4.5,0,8.2,3.6,8.2,8.2Z" class="g18_79" />
<path d="M414,653.6c0,4.5,3.6,8.1,8.1,8.1c4.6,0,8.2,-3.6,8.2,-8.1c0,-4.6,-3.6,-8.2,-8.2,-8.2c-4.5,0,-8.1,3.6,-8.1,8.2Z" class="g18_79" />
<path d="M420.3,644.2L392.6,616l-0.1,-0.1l-6.2,0c-0.3,0,-0.6,0,-0.9,0c-8.3,0.4,-15,6.7,-15,14.4l0,1.4l0,22.5l0,0.1l0,7.6c0,11.7,10.5,21.3,23.5,21.3l2.9,0c12.9,0,23.5,-9.6,23.5,-21.3l0,-7.6l0,-0.1l0,-10Z" class="g11_79" />
<path d="M395.3,653.7c-1.5,0,-2.8,1.2,-2.8,2.8c0,1.5,1.3,2.8,2.8,2.8c1.6,0,2.8,-1.3,2.8,-2.8c0,-1.6,-1.2,-2.8,-2.8,-2.8Z" class="g19_79" />
<path d="M385.9,663.1c-0.6,0,-0.9,0.9,-0.6,1.6c1.7,4.8,5.3,8.1,9.4,8.1c4.2,0,7.8,-3.3,9.5,-8.1c0.2,-0.7,-0.1,-1.6,-0.6,-1.6Z" class="g20_79" />
<path d="M414.5,604.6c-0.6,-1.8,-1.5,-3.4,-2.9,-4.6C407,595.7,399.2,596,395,596.6c-6,0.8,-12,2.7,-17.2,5.4c-1.5,0.8,-2.9,1.6,-4.2,2.5c-2.5,1.6,-4.8,3.4,-6.8,5.3c-0.3,0.4,-0.7,0.8,-1.1,1.1c-2.3,2.5,-4.3,5.2,-5.9,8.1c-2.2,3.7,-3.9,8,-5,12.8c-2.7,11.1,-2.2,23.4,-1.7,34.1c0.1,1.3,0.1,2.5,0.2,3.7c0.1,3.1,0.1,5.7,0,8.2l0,0.1l1.4,3.9l0.4,-2.5c2.8,-14.5,2.9,-15.2,2.9,-15.2c2.2,-11.4,12.4,-15,23.3,-18.7c1.8,-0.7,3.7,-1.3,5.5,-2c0.4,-0.1,0.9,-0.3,1.3,-0.5c7.1,-2.7,13.3,-7,18.1,-12.4c0.6,-0.6,1.1,-1.2,1.5,-1.8c4,-5,6.5,-10.6,7.3,-16.3c0.4,-2.9,0.3,-5.6,-0.5,-7.8Z" class="g10_79" />
<g clip-path="url(#c3_79)">
<path d="M433.5,619.2c-6.1,5.9,-14.7,9.2,-23.3,9.2c-0.7,0,-1.5,0,-2.2,0c-0.1,0.1,-0.2,0.2,-0.3,0.3c-0.4,0.5,-0.8,1,-1.2,1.5l9.8,9.9c6.7,-2.7,12.9,-6.7,18.6,-11.3c0.3,-0.3,0.7,-0.7,1.1,-1c-0.6,-3,-1.4,-5.9,-2.5,-8.6Z" class="g21_79" />
</g>
<path d="M406.5,630.2c-0.1,0.1,-0.2,0.2,-0.3,0.3c0,0.1,0.1,0.1,0.1,0.2c0.4,0.5,0.8,1,1.3,1.5c2.2,2.6,4.7,5.5,7.2,8.5c0.5,-0.2,1,-0.4,1.5,-0.6l-9.8,-9.9Z" class="g22_79" />
<g clip-path="url(#c3_79)">
<path d="M378.9,602.6l0,0c-1.4,0.8,-2.8,1.6,-4.1,2.5c-2.3,1.5,-4.5,3.3,-6.5,5.2c-0.3,0.4,-0.7,0.7,-1,1.1c-2.3,2.5,-4.2,5.1,-5.8,7.9c1.9,4.8,4.4,9.4,7.8,13.2c4.7,5.2,11,8.6,17.9,10.3c0.4,-0.2,0.8,-0.3,1.3,-0.5c6.8,-2.7,12.9,-7,17.4,-12.2c0.1,0.1,0.2,0.3,0.3,0.4c0.1,-0.1,0.2,-0.2,0.3,-0.3c0.4,-0.5,0.8,-1,1.2,-1.5c0.1,-0.1,0.2,-0.2,0.3,-0.3c-0.2,-0.1,-0.4,-0.1,-0.7,-0.1c-0.6,0,-1.2,-0.1,-1.8,-0.2c-1.5,-0.2,-3,-0.6,-4.5,-1c-11,-3.5,-19.6,-13.3,-22.1,-24.5Z" class="g21_79" />
</g>
<path d="M419.2,641.4c0.4,0.5,0.7,0.9,1.1,1.4c-0.7,0.1,-1.4,0.3,-2.1,0.5Z" class="g10_79" />
<path d="M379.9,655.5l0,0c-1.6,0,-2.9,-1.3,-2.9,-2.9l0,-2.5c0,-1.6,1.3,-2.8,2.9,-2.8c1.5,0,2.8,1.2,2.8,2.8l0,2.5c0,1.6,-1.3,2.9,-2.8,2.9Z" class="g23_79" />
<path d="M376.7,643.1l-0.4,-1.9c2.3,-0.6,4.7,-0.4,6.9,0.6l-0.7,1.7c-1.8,-0.7,-3.8,-0.9,-5.8,-0.4Z" class="g24_79" />
<path d="M411.2,655.5l0,0c1.6,0,2.9,-1.3,2.9,-2.9l0,-2.5c0,-1.6,-1.3,-2.8,-2.9,-2.8c-1.5,0,-2.8,1.2,-2.8,2.8l0,2.5c0,1.6,1.3,2.9,2.8,2.9Z" class="g23_79" />
<path d="M414.4,643.1l0.4,-1.9c-2.3,-0.6,-4.7,-0.4,-6.9,0.6l0.7,1.7c1.8,-0.7,3.8,-0.9,5.8,-0.4Z" class="g24_79" />
<g clip-path="url(#c4_79)">
<path d="M328.4,806.9c3.4,-16,-6.9,-31.8,-22.9,-35.2l-12,-2.5c-3,-0.7,-6.1,1.3,-6.7,4.4c-3.4,16.1,6.8,31.8,22.9,35.2l11.9,2.6c3.1,0.6,6.1,-1.4,6.8,-4.5Z" class="g10_79" />
</g>
<path d="M275.3,794.2c0.1,0.1,4.3,8.2,8.4,15.9c1.1,2.2,2.2,4.4,3.3,6.4c2.3,4.4,4.1,7.8,4.1,7.8c1.4,2.6,5.2,3.8,8.7,2.6c3.7,-1.2,5.5,-4.6,4.1,-7.4l-5.2,-11.8l-0.9,-2.1l-1,-2.2l-2.1,-3.1C292.8,797.4,284.1,787,278.2,787.8c-0.2,0,-0.3,0,-0.5,0.1c-2.8,0.7,-3.2,4.7,-2.4,6.3Z" class="g11_79" />
<path d="M275.3,794.2c0.1,0.1,4.3,8.2,8.4,15.9c1.1,2.2,2.2,4.4,3.3,6.4c3.4,-2.6,8.2,-6.2,11.7,-8.8l-0.9,-2.1l-1,-2.2l-2.1,-3.1C292.8,797.4,284.1,787,278.2,787.8c-0.2,0,-0.3,0,-0.5,0.1c-2.8,0.7,-3.2,4.7,-2.4,6.3Z" class="g13_79" />
<g clip-path="url(#c5_79)">
<path d="M306.5,858.5c0.3,0,0.5,-0.1,0.8,-0.2c2.2,-0.6,3.7,-2.4,3.4,-4.3l-0.5,-2.8l-4.8,-27.9c-0.4,-3.1,-4.4,-5,-8.2,-3.9c-1.6,0.5,-2.9,1.4,-3.7,2.5c-0.8,1.1,-1.1,2.4,-0.7,3.7l7.4,26.8l0.9,3.4c0.5,1.9,2.9,3.1,5.4,2.7Z" class="g11_79" />
</g>
<g clip-path="url(#c6_79)">
<path d="M301.8,851.7c1.5,-0.3,3.1,-0.6,4.7,-0.9l0.4,0.1c0.5,0.3,1,0.3,1.4,0.3c4.4,3.7,2,12.2,0.4,15.9c-0.4,0.7,-0.9,1.5,-1.8,2.1c-6.2,3.8,-5,-8.1,-4.6,-9.8c-0.3,1.3,-0.9,2.5,-1.8,3.7c-0.7,0.8,-2.2,0.6,-2.2,-0.2c0.1,-3.9,2.6,-7.4,3.5,-11.2Z" class="g11_79" />
</g>
<path d="M269.5,792.9c0,0.1,-4.3,8.1,-8.3,15.9c-1.2,2.2,-2.3,4.4,-3.4,6.4c-2.3,4.4,-4,7.8,-4,7.8c-1.5,2.6,-5.3,3.8,-8.8,2.6c-3.7,-1.2,-5.4,-4.6,-4.1,-7.5l5.2,-11.7l0.9,-2.1l1,-2.2l2.1,-3.1c1.9,-2.9,10.6,-13.3,16.5,-12.5c0.2,0,0.3,0,0.5,0.1c2.8,0.7,3.2,4.7,2.4,6.3Z" class="g11_79" />
<path d="M269.5,792.9c0,0.1,-4.3,8.1,-8.3,15.9c-1.2,2.2,-2.3,4.4,-3.4,6.4c-3.4,-2.6,-8.2,-6.2,-11.7,-8.8l0.9,-2.1l1,-2.2l2.1,-3.1c1.9,-2.9,10.6,-13.3,16.5,-12.5c0.2,0,0.3,0,0.5,0.1c2.8,0.7,3.2,4.7,2.4,6.3Z" class="g13_79" />
<g clip-path="url(#c7_79)">
<path d="M238.3,857.2c-0.3,-0.1,-0.5,-0.1,-0.7,-0.2c-2.3,-0.6,-3.8,-2.4,-3.5,-4.3l0.5,-2.8L239.4,822c0.4,-3.2,4.4,-5,8.2,-3.9c1.6,0.4,2.9,1.3,3.7,2.4c0.8,1.2,1.1,2.5,0.8,3.7L244.6,851l-0.9,3.4c-0.5,2,-2.9,3.2,-5.4,2.8Z" class="g11_79" />
</g>
<g clip-path="url(#c8_79)">
<path d="M243.1,850.4c-1.6,-0.3,-3.2,-0.6,-4.8,-1l-0.4,0.2c-0.4,0.2,-0.9,0.3,-1.4,0.3c-4.4,3.7,-2,12.2,-0.3,15.8c0.3,0.8,0.8,1.6,1.7,2.1c6.2,3.9,5,-8,4.6,-9.7c0.3,1.2,0.9,2.5,1.9,3.7c0.6,0.7,2.1,0.6,2.1,-0.3c-0.1,-3.8,-2.6,-7.4,-3.4,-11.1Z" class="g11_79" />
</g>
<path d="M290.4,865.4l-2.9,52.1l-0.5,8.8l0,0.2l-0.3,7.9c-0.1,1.2,-0.6,2.3,-1.4,3c-0.8,0.8,-1.9,1.3,-3.1,1.4c-2.5,0,-4.7,-2,-4.8,-4.6l-0.1,-7.7l0,-0.2l-0.2,-8.8l-1.3,-52c-0.1,-4,2.8,-7.5,6.7,-7.8c4.5,-0.4,8.2,3.3,7.9,7.7Z" class="g11_79" />
<path d="M254.4,865.4l2.9,52.1l0.5,8.8l0,0.2l0.3,7.9c0.1,1.2,0.6,2.3,1.4,3c0.8,0.8,1.9,1.3,3.1,1.4c2.5,0,4.7,-2,4.8,-4.6l0.1,-7.7l0,-0.2l0.3,-8.8l1.2,-52c0.1,-4,-2.8,-7.5,-6.7,-7.8c-4.5,-0.4,-8.1,3.3,-7.9,7.7Z" class="g11_79" />
<path d="M276.8,936.5c5.1,4.9,9.6,7.6,13.3,9.1c-0.1,-0.5,-0.2,-1,-0.2,-1.5c-0.1,-2.6,1.7,-4.9,4.3,-6.2l-0.3,-0.2c-0.7,-0.5,-1.4,-0.9,-2.1,-1.3c-4.1,-2.4,-8.4,-3.7,-11.3,-4.5l-0.2,-0.1c-1.4,-0.3,-2.8,0.2,-3.7,1.2c-0.2,0.1,-0.3,0.3,-0.4,0.5c-0.3,0.4,-0.4,0.7,-0.5,1.1c0.1,0.2,0.1,0.4,0.2,0.6c0.1,0.5,0.5,0.9,0.9,1.3Z" class="g11_79" />
<path d="M301.5,946.2c-1.5,-3.5,-4.2,-6.2,-7.3,-8.3c-2.6,1.3,-4.4,3.6,-4.3,6.2c0,0.5,0.1,1,0.2,1.5c-3.7,-1.5,-8.2,-4.2,-13.3,-9.1c-0.4,-0.4,-0.8,-0.8,-0.9,-1.3c-0.1,-0.2,-0.1,-0.4,-0.2,-0.6l0,-0.1c-0.1,1.1,-0.1,2.5,0.2,3.1c0.1,0.5,0.5,1,0.9,1.4c11.7,11.1,20.2,11,23.6,10.2c0.3,0,0.6,-0.3,0.8,-0.6c0.1,-0.3,0.2,-0.7,0.3,-1.1l0.1,-0.3c0.1,-0.3,0.1,-0.7,-0.1,-1Z" class="g25_79" />
<path d="M268.1,936.5c-5.2,4.9,-9.7,7.6,-13.4,9.1c0.1,-0.5,0.2,-1,0.2,-1.5c0.1,-2.6,-1.7,-4.9,-4.3,-6.2l0.4,-0.2c0.6,-0.5,1.3,-0.9,2,-1.3c4.1,-2.4,8.5,-3.7,11.3,-4.5l0.3,-0.1c1.3,-0.3,2.7,0.2,3.6,1.2c0.2,0.1,0.3,0.3,0.5,0.5c0.2,0.4,0.3,0.7,0.4,1.1c0,0.2,-0.1,0.4,-0.2,0.6c-0.1,0.5,-0.4,0.9,-0.8,1.3Z" class="g11_79" />
<path d="M243.3,946.2c1.5,-3.5,4.2,-6.2,7.3,-8.3c2.6,1.3,4.4,3.6,4.3,6.2c0,0.5,-0.1,1,-0.2,1.5c3.7,-1.5,8.2,-4.2,13.4,-9.1c0.4,-0.4,0.7,-0.8,0.8,-1.3c0.1,-0.2,0.2,-0.4,0.2,-0.6l0,-0.1c0.2,1.1,0.1,2.5,-0.2,3.1c-0.1,0.5,-0.4,1,-0.8,1.4c-11.7,11.1,-20.2,11,-23.7,10.2c-0.3,0,-0.6,-0.3,-0.7,-0.6c-0.2,-0.3,-0.3,-0.7,-0.4,-1.1l-0.1,-0.3c-0.1,-0.3,-0.1,-0.7,0.1,-1Z" class="g25_79" />
<path d="M306.1,882.2c0.1,1.5,-1,2.9,-2.6,3.1l-23.7,2.1c-4.7,0.5,-9.3,0.5,-14,0l-24.4,-2.1c-1.6,-0.2,-2.8,-1.6,-2.6,-3.2l12,-67.6l2.3,-13.2c0.4,-4,2.1,-7.6,4.6,-10.4c3.3,-3.6,8,-5.8,13.2,-5.8l3,0c5.2,0,10,2.2,13.2,5.9c2.5,2.7,4.2,6.3,4.6,10.3l2.3,13.2Z" class="g13_79" />
<path d="M294,814.5l-43.2,0l2.3,-13.2c0.4,-4,2.1,-7.6,4.6,-10.4c3.3,-3.6,8,-5.8,13.2,-5.8l3,0c5.2,0,10,2.2,13.2,5.9c2.6,2.7,4.2,6.3,4.6,10.3Z" class="g26_79" />
<path d="M280.1,774.2l0,13.5c0,4.2,-3.4,7.6,-7.6,7.6l-0.1,0c-4.3,0,-7.7,-3.4,-7.7,-7.6l0,-13.5Z" class="g11_79" />
<path d="M280.1,774.2l0,12.2c-4.9,-2,-10.2,-4.2,-15.4,-6.3l0,-5.9Z" class="g17_79" />
<path d="M308.6,729.4l0,15.7c0,3.6,-0.8,7,-2.2,10.1l0,0.1c-1.5,3.4,-3.8,6.4,-6.5,8.8c-1.8,1.5,-3.7,2.9,-5.9,3.9c-3.6,1.8,-7.6,2.8,-11.9,2.8l-20.3,0c-4.3,0,-8.3,-1,-11.9,-2.8c-2.2,-1,-4.1,-2.3,-5.9,-3.9c-2.7,-2.4,-5,-5.5,-6.5,-8.8l0,-0.1c-1.4,-3.1,-2.2,-6.5,-2.2,-10.1l0,-15.7c0,-0.5,0.1,-1,0.1,-1.4c0,-1.4,0.2,-2.9,0.5,-4.2c0.4,-1.8,0.9,-3.5,1.6,-5.1c1.3,-3,3,-5.8,5.3,-8.2c0.1,-0.1,0.2,-0.3,0.4,-0.5c3.6,-3.8,8.3,-6.6,13.5,-8c2.6,-0.8,5.3,-1.1,8,-1.1l14.5,0c2.7,0,5.5,0.3,8,1.1c11.9,3.2,20.7,13.6,21.3,26c0,0.4,0.1,0.9,0.1,1.4Z" class="g10_79" />
<path d="M309.7,754.5c0,1.3,-0.3,2.8,-0.9,4.1l-0.1,0c-1.4,3,-4.1,5.7,-7.3,6.7c-1.1,0.4,-2.2,0.6,-3.2,0.5c-0.7,0,-1.4,-0.2,-2,-0.5l0,-12.4c1.4,-1.6,3.2,-2.9,5.2,-3.6c4.6,-1.6,8.3,0.7,8.3,5.2Z" class="g27_79" />
<path d="M234.1,754.5c0,1.3,0.4,2.8,1,4.1l0.1,0c1.4,3,4.1,5.7,7.3,6.7c1.1,0.4,2.2,0.6,3.2,0.5c0.7,0,1.4,-0.2,2,-0.5l0,-12.4c-1.5,-1.6,-3.2,-2.9,-5.2,-3.6c-4.6,-1.6,-8.4,0.7,-8.4,5.2Z" class="g27_79" />
<path d="M267.6,760.6l4.9,-2.6l3.8,2.6Z" class="g28_79" />
<path d="M298.5,756.7L297.7,734l-0.1,-2c-0.4,-8.3,-6.9,-14.8,-14.8,-14.8l-21.7,0c-7.9,0,-14.4,6.5,-14.8,14.8l-0.1,2l-0.8,22.7c-1,12.6,9,23.6,22.2,23.6l8.7,0c13.2,0,23.2,-11,22.2,-23.6Z" class="g11_79" />
<g clip-path="url(#c9_79)">
<path d="M254.2,758.3l-0.1,0c-2.2,0,-3.9,1.8,-3.9,3.9c0,2.2,1.8,3.9,3.9,3.9c2.2,0,3.9,-1.7,3.9,-3.9c0,-2.1,-1.7,-3.9,-3.8,-3.9Z" class="g29_79" />
</g>
<g clip-path="url(#c10_79)">
<path d="M289.8,758.3l-0.1,0c-2.1,0,-3.8,1.7,-3.9,3.8l0,0.2c0.1,2.1,1.8,3.8,4,3.8c2.1,0,3.9,-1.7,3.9,-3.9c0,-2.1,-1.7,-3.9,-3.9,-3.9Z" class="g29_79" />
</g>
<g clip-path="url(#c11_79)">
<path d="M255.7,720l0,0c-0.1,0.9,0.1,1.8,0.3,2.6c0.2,-0.3,0.3,-0.6,0.5,-0.9L255.7,720Z" class="g30_79" />
</g>
<g clip-path="url(#c12_79)">
<path d="M256.9,716.5l-0.5,1.5c0.1,-0.1,0.2,-0.1,0.4,-0.1c0,-0.5,0,-0.9,0.1,-1.4Z" class="g31_79" />
</g>
<path d="M256.8,717.9c-0.2,0,-0.3,0,-0.4,0.1l-0.1,0.6c0.1,0.2,0.3,0.4,0.4,0.6c0,-0.5,0,-0.9,0.1,-1.3Z" class="g30_79" />
<path d="M237.3,726.5l0,11.8l23.9,0c0.2,0,0.4,0,0.6,0c1,0,1.9,0,2.8,-0.1c8.7,-0.9,16.3,-4.9,21.2,-10.7c1.1,-1.2,2.1,-2.5,2.9,-3.9c2.2,-3.7,3.4,-7.9,3.4,-12.3l0,-4.4c0,-2.4,-2.2,-4.3,-4.9,-4.3l-22.7,0c-1.3,0,-2.6,0.1,-3.9,0.3c-6.2,0.7,-11.7,3.4,-15.8,7.2c-2,1.9,-3.7,4,-4.9,6.4c-1.3,2.3,-2.1,4.9,-2.4,7.6c-0.1,0.8,-0.2,1.6,-0.2,2.4Z" class="g10_79" />
<path d="M246.1,780.8l0,0c-3.8,0,-6.9,-3.1,-6.9,-6.9l0,-31.6l6.9,0Z" class="g10_79" />
<path d="M297.8,780.8l0,0c3.8,0,6.9,-3.1,6.9,-6.9l0,-31.6l-6.9,0Z" class="g10_79" />
<path d="M265.5,762.4c-0.8,0,-1.5,0.9,-1.4,1.8c0.8,4.1,4,7.3,7.8,7.3c3.9,0,7.1,-3.2,7.9,-7.3c0.1,-0.9,-0.6,-1.8,-1.4,-1.8Z" class="g20_79" />
<path d="M253.7,745.3l-1.1,-2.4c2.9,-1.4,6.2,-1.9,9.4,-1.3l-0.5,2.6c-2.7,-0.5,-5.3,-0.1,-7.8,1.1Z" class="g10_79" />
<path d="M290.2,745.3l1.1,-2.4c-2.9,-1.4,-6.2,-1.9,-9.4,-1.3l0.5,2.6c2.6,-0.5,5.3,-0.1,7.8,1.1Z" class="g10_79" />
<path d="M255.8,751.7c0,0.5,0.1,0.9,0.2,1.3c0.4,1.5,1.5,2.5,2.7,2.4c1.5,0,2.7,-1.7,2.7,-3.8c0,-0.7,-0.2,-1.3,-0.4,-1.9c-0.5,-1.1,-1.4,-1.8,-2.5,-1.8c-1.5,0,-2.7,1.7,-2.7,3.8Z" class="g32_79" />
<path d="M282.5,751.7c0,0.5,0.1,0.9,0.2,1.3c0.4,1.5,1.5,2.5,2.7,2.4c1.5,0,2.7,-1.7,2.7,-3.8c0,-0.7,-0.2,-1.3,-0.4,-1.9c-0.6,-1.1,-1.5,-1.8,-2.5,-1.8c-1.5,0,-2.7,1.7,-2.7,3.8Z" class="g32_79" />
<g clip-path="url(#c13_79)">
<path d="M272.4,754.1l-0.9,0c-1.1,0,-2,0.8,-2,1.9l0,0.1c0,1.1,0.9,2,2,2l0.9,0c1.1,0,2,-0.9,2,-2c0,-1.1,-0.9,-2,-2,-2Z" class="g33_79" />
</g>
<path d="M138.9,755.2c-0.2,8.1,6.2,14.9,14.4,15.1l6,0.1c1.6,0,2.9,-1.2,2.9,-2.8c0.2,-8.1,-6.2,-14.9,-14.3,-15.1l-6.1,-0.1c-1.6,0,-2.9,1.2,-2.9,2.8Z" class="g13_79" />
<path d="M188.4,754.8c0.2,8.1,-6.3,14.9,-14.4,15.1l-6.1,0.1c-1.5,0.1,-2.8,-1.2,-2.9,-2.8c-0.2,-8.1,6.3,-14.8,14.4,-15l6.1,-0.2c1.5,0,2.8,1.2,2.9,2.8Z" class="g13_79" />
<path d="M163.6,774.4c-3.7,0,-6.7,-3,-6.7,-6.7c0,-3.7,3,-6.7,6.7,-6.7c3.7,0,6.7,3,6.7,6.7c0,3.7,-3,6.7,-6.7,6.7Z" class="g13_79" />
<path d="M198.6,856.2c1.9,-9.3,-4,-18.4,-13.3,-20.4l-7,-1.5c-1.8,-0.4,-3.5,0.8,-3.9,2.6c-2,9.3,4,18.4,13.3,20.4l6.9,1.5c1.8,0.4,3.6,-0.8,4,-2.6Z" class="g10_79" />
<path d="M145.4,804.8c2.3,-4.1,5.8,-7.6,9.8,-9.8c5.7,-3,12.8,-4.1,16.2,-9.8c-0.7,4.1,3.2,7.2,6,10.2c2.6,2.7,4.5,6,5.7,9.7c-3.9,-6.5,-12.2,-8,-19.4,-7.9c-6.8,0.2,-14,1.5,-19,6.3Z" class="g34_79" />
<path d="M197.1,805.1c0,19.6,-14.9,35.6,-33.2,35.6c-18.3,0,-33.2,-16,-33.2,-35.6c0,-19.7,14.9,-35.6,33.2,-35.6c18.3,0,33.2,15.9,33.2,35.6Z" class="g10_79" />
<path d="M144.3,816.8c0,4.2,-3.6,7.7,-8.1,7.7c-4.4,0,-8,-3.5,-8,-7.7c0,-4.3,3.6,-7.7,8,-7.7c4.5,0,8.1,3.4,8.1,7.7Z" class="g28_79" />
<path d="M199,816.8c0,4.2,-3.6,7.7,-8,7.7c-4.4,0,-8,-3.5,-8,-7.7c0,-4.3,3.6,-7.7,8,-7.7c4.4,0,8,3.4,8,7.7Z" class="g28_79" />
<path d="M190.6,811c0,15.6,-12,28.2,-26.7,28.2c-14.8,0,-26.8,-12.6,-26.8,-28.2c0,-15.5,12,-28.1,26.8,-28.1c14.7,0,26.7,12.6,26.7,28.1Z" class="g11_79" />
<path d="M133.9,802.5l26.2,0c8.9,0,16.1,-6.6,16.1,-14.8l0,-4.1c0,-5.3,-4.6,-9.6,-10.4,-9.6l-6.5,0c-14,0,-25.4,10.4,-25.4,23.3Z" class="g10_79" />
<path d="M171.3,787.4c5,3.3,9.2,7.9,12.2,13.2c0.7,1.1,1.4,2.5,2.7,2.9c1.9,0.8,4,-0.9,4.7,-2.9c0.6,-1.9,0.3,-4.1,0.3,-6.1c0,-0.9,0.1,-1.8,-0.1,-2.6c-0.2,-1.1,-0.8,-2,-1.5,-2.9c-3.6,-4.9,-9.7,-7.7,-15.7,-7.4c-0.7,0,-1.3,0.1,-1.9,0.4c-1.7,0.8,-2,3,-2.1,4.8Z" class="g10_79" />
<g clip-path="url(#c14_79)">
<path d="M149.6,814.2c0,0.4,0.1,0.8,0.2,1.2c0.4,1.2,1.3,2.1,2.4,2.1c1.4,0,2.5,-1.5,2.5,-3.4c0,-0.7,-0.2,-1.2,-0.4,-1.7c-0.5,-1,-1.3,-1.7,-2.2,-1.7c-1.4,0.1,-2.5,1.6,-2.5,3.5Z" class="g35_79" />
</g>
<g clip-path="url(#c15_79)">
<path d="M154.3,806.8c-2.4,-0.5,-4.9,-0.1,-7.1,0.9c-0.3,-0.7,-0.6,-1.5,-0.9,-2.2c2.6,-1.2,5.5,-1.6,8.3,-1.1c-0.1,0.8,-0.2,1.6,-0.3,2.4Z" class="g10_79" />
</g>
<g clip-path="url(#c16_79)">
<path d="M177.6,814.2c0,0.4,0,0.8,-0.1,1.2c-0.4,1.2,-1.4,2.1,-2.4,2.1c-1.4,0,-2.5,-1.5,-2.5,-3.4c0,-0.7,0.2,-1.2,0.4,-1.7c0.4,-1,1.3,-1.7,2.2,-1.7c1.4,0.1,2.5,1.6,2.4,3.5Z" class="g35_79" />
</g>
<g clip-path="url(#c17_79)">
<path d="M172.9,806.8c2.5,-0.5,5,-0.1,7.2,0.9c0.3,-0.7,0.6,-1.5,0.8,-2.2c-2.5,-1.2,-5.4,-1.6,-8.2,-1.1c0.1,0.8,0.2,1.6,0.2,2.4Z" class="g10_79" />
</g>
<path d="M157.8,822.8c-0.5,0,-0.9,0.5,-0.9,1c0.5,3.3,3.3,5.8,6.7,5.8c3.4,0,6.3,-2.5,6.7,-5.8c0.1,-0.5,-0.3,-1,-0.8,-1Z" class="g20_79" />
<g clip-path="url(#c18_79)">
<path d="M145.4,823.9l5.5,0l0,-5.5l-5.5,0l0,5.5Z" class="g36_79" />
</g>
<g clip-path="url(#c19_79)">
<path d="M179.1,818.4c-1.5,0,-2.7,1.2,-2.7,2.7c0,1.5,1.2,2.7,2.6,2.8l0.1,0c1.5,-0.1,2.7,-1.3,2.7,-2.8c0,-1.5,-1.2,-2.7,-2.7,-2.7Z" class="g36_79" />
</g>
<path d="M160,889.6l-1,52.6l-7.2,0l-6.1,-53.1Z" class="g11_79" />
<path d="M160.6,939.4l0,0Z" class="g37_79" />
<path d="M152.2,947.1c-4.9,2.4,-9.6,3.1,-11,1.7c-0.2,-0.1,-0.3,-0.3,-0.4,-0.5c-0.2,-0.4,-0.1,-1,0.2,-1.6c0.4,-0.9,1.2,-2,2.4,-3.1c0.5,-0.4,1,-0.8,1.5,-1.2l0.2,-0.1c0.9,2,3.2,1.5,4.6,0.7c2.5,-1.3,4.9,-2.7,7.3,-4c0.8,-0.5,1.7,-1,2.5,-1.7l1.1,2.1c0.1,0.1,0.2,0.3,0.3,0.4c0.1,0.2,0.1,0.4,0.1,0.6l0,0.4c-0.3,2.1,-4.1,3.9,-8.8,6.3Z" class="g38_79" />
<path d="M149.7,943c-1.4,0.8,-3.7,1.3,-4.6,-0.7c0.4,-0.3,0.7,-0.5,1.1,-0.8c0.5,-0.3,1,-0.6,1.5,-0.9l0.1,-0.1c0.5,-0.2,0.9,-0.4,1.4,-0.7c1.7,-0.8,3.4,-1.5,5,-1.9l0.3,-0.1l3.1,-2c0.4,-0.3,1,-0.1,1.3,0.3l0.6,1.2c-0.8,0.7,-1.7,1.2,-2.5,1.7c-2.4,1.3,-4.8,2.7,-7.3,4Z" class="g11_79" />
<path d="M167.3,889.6l1,52.6l7.2,0l6.1,-53.1Z" class="g11_79" />
<path d="M166.7,939.4l0,0Z" class="g37_79" />
<path d="M175,947.1c5,2.4,9.7,3.1,11.1,1.7c0.2,-0.1,0.3,-0.3,0.3,-0.5c0.2,-0.4,0.2,-1,-0.1,-1.6c-0.4,-0.9,-1.2,-2,-2.5,-3.1c-0.4,-0.4,-0.9,-0.8,-1.5,-1.2l-0.2,-0.1c-0.9,2,-3.1,1.5,-4.6,0.7c-2.4,-1.3,-4.8,-2.7,-7.2,-4c-0.9,-0.5,-1.8,-1,-2.6,-1.7l-1,2.1c-0.2,0.1,-0.3,0.3,-0.3,0.4c-0.1,0.2,-0.2,0.4,-0.2,0.6l0.1,0.4c0.3,2.1,4.1,3.9,8.7,6.3Z" class="g38_79" />
<path d="M177.5,943c1.5,0.8,3.7,1.3,4.6,-0.7c-0.3,-0.3,-0.6,-0.5,-1,-0.8l-0.1,0c-0.4,-0.3,-0.9,-0.6,-1.5,-0.9l-0.1,-0.1c-0.4,-0.2,-0.8,-0.4,-1.3,-0.7c-1.7,-0.8,-3.5,-1.5,-5,-1.9l-0.4,-0.1l-3,-2c-0.4,-0.3,-1,-0.1,-1.3,0.3l-0.7,1.2c0.8,0.7,1.7,1.2,2.6,1.7c2.4,1.3,4.8,2.7,7.2,4Z" class="g11_79" />
<path d="M146.7,859.6l-8.1,50.6c-0.3,1.8,0.8,3.4,2.2,3.5l45.6,0.6c1.5,0,2.6,-1.8,2.2,-3.6l-9.2,-51.6c-2.3,-10.8,-10.2,-17.6,-18.5,-16.2c-6.8,1.2,-12.5,7.8,-14.2,16.7Z" class="g39_79" />
<path d="M172.5,847.1c0,3.2,-4,5.9,-8.9,5.9c-4.9,0,-8.8,-2.7,-8.8,-5.9c0,-3.3,3.9,-6,8.8,-6c4.9,0,8.9,2.7,8.9,6Z" class="g20_79" />
<path d="M167.4,849.9l-7.5,0l0,-15.2l7.5,0l0,15.2Z" class="g11_79" />
<path d="M169.8,846.6c0,2.2,-2.8,4.1,-6.2,4.1c-3.4,0,-6.1,-1.9,-6.1,-4.1c0,-2.3,2.7,-4.2,6.1,-4.2c3.4,0,6.2,1.9,6.2,4.2Z" class="g11_79" />
<path d="M136.5,839.6c-4,-5.3,-1.9,-17.8,-1.9,-24l0,-17.2c0,-1.3,1.1,-2.3,2.3,-2.3l1.6,0c1.2,0,2.2,1,2.2,2.3c0,14.5,-2.4,30.2,2.3,44.1c-2.4,0.2,-4.9,-0.9,-6.4,-2.8l-0.1,-0.1Z" class="g10_79" />
<path d="M190.8,839.6c4,-5.3,1.8,-17.8,1.8,-24l0,-17.2c0,-1.3,-1,-2.3,-2.2,-2.3l-1.6,0c-1.2,0,-2.3,1,-2.3,2.3c0,14.5,2.5,30.2,-2.2,44.1c2.4,0.2,4.9,-0.9,6.4,-2.8l0.1,-0.1Z" class="g10_79" />
<path d="M158.4,855.4l-8.1,19.4c-1.2,2.7,-4.3,4,-7,2.9l-0.1,-0.1c-2.8,-1.1,-4.1,-4.3,-2.9,-7l8.1,-19.4c1.2,-2.8,4.3,-4.1,7,-2.9l0.2,0c2.7,1.2,4,4.3,2.8,7.1Z" class="g39_79" />
<path d="M168.8,855.4l8.2,19.4c1.1,2.7,4.3,4,7,2.9l0.1,-0.1c2.7,-1.1,4,-4.3,2.9,-7l-8.1,-19.4c-1.2,-2.8,-4.4,-4.1,-7.1,-2.9l-0.1,0c-2.7,1.2,-4,4.3,-2.9,7.1Z" class="g39_79" />
<path d="M144.6,893.8l3.9,-18c0.1,-0.3,0.2,-0.7,0.2,-1.2c0.2,-2.5,-1.9,-4.8,-4.7,-5c-2.7,-0.2,-5.1,1.6,-5.3,4.2c0,0.4,0,0.8,0.1,1.2l1.6,18.5c-0.1,1.1,0.8,2,2,2.1c1.1,0.1,2.1,-0.7,2.2,-1.8Z" class="g11_79" />
<path d="M182.7,893.8l-3.9,-18c-0.1,-0.3,-0.2,-0.7,-0.2,-1.2c-0.2,-2.5,1.9,-4.8,4.7,-5c2.7,-0.2,5.1,1.6,5.2,4.2c0.1,0.4,0,0.8,-0.1,1.2l-1.5,18.5c0.1,1.1,-0.8,2,-2,2.1c-1.2,0.1,-2.2,-0.7,-2.2,-1.8Z" class="g11_79" />
<g clip-path="url(#c20_79)">
<path d="M161.3,820.7l4.6,0l0,-3.8l-4.6,0l0,3.8Z" class="g33_79" />
</g>
<path d="M478.4,802.1c-1.4,-3.2,-5,-1.2,-7.1,-0.1c-3.7,1.9,-4.5,3.3,-4.4,7.4c0.2,7,3,14.4,6.4,20.5c0.7,1.3,1.6,2.5,2.9,3.2c9.3,4.5,3.8,-16.8,2.7,-19.9c0.8,2.3,2,4.4,3.6,6.1c1.1,1.2,3,0.2,2.7,-1.3c-1.2,-5.8,-4.4,-10.7,-6.8,-15.9Z" class="g11_79" />
<path d="M485.5,684.3c-7.8,0.7,-15.5,21,-17,26.4l-1.6,5.8l-3.7,29c-0.7,5.1,2.7,10,7.8,10.8c4.9,0.7,9.5,-2.6,10.4,-7.4l10,-55c0.6,-3,-1.4,-9.5,-5.2,-9.7c-0.2,0,-0.5,0,-0.7,0.1Z" class="g40_79" />
<path d="M466.4,799.6c-0.2,0,-0.3,0,-0.5,0l0,0.4l2.9,-0.4Z" class="g41_79" />
<path d="M478.9,793l0.4,0l0.4,-41.4c0,-2.3,-0.9,-4.3,-2.3,-5.9C476,744.2,474,743.2,471.8,743c-5.3,-0.4,-9.7,4,-9.2,9.3l2.9,41.1c0.2,-0.2,0.5,-0.2,0.8,-0.2Z" class="g40_79" />
<path d="M480.8,797.3l0,-3.1c0,-1.1,-0.7,-2,-1.6,-2.2l-0.3,0l-12.7,0.4c-0.3,0,-0.6,0.1,-0.8,0.2c-0.7,0.4,-1.1,1.2,-1.1,2.1l0,3.1c0,1.1,0.6,2,1.4,2.2c0.2,0,0.3,0.1,0.5,0l2.5,0l10.2,-0.4l0.2,0c0.9,-0.1,1.7,-1.1,1.7,-2.3Z" class="g42_79" />
<path d="M468.8,799.6l-2.9,0.4l0.4,4.7c0.3,3.2,2.8,5.7,5.9,5.9c0.3,0.1,0.6,0.1,0.9,0c3.4,-0.2,6.1,-3,6.1,-6.4l0,-4.8l-0.2,0.1Z" class="g11_79" />
<path d="M558.2,802.1c1.4,-3.2,5,-1.2,7.1,-0.1c3.7,1.9,4.5,3.3,4.4,7.4c-0.2,7,-3,14.4,-6.4,20.5c-0.7,1.3,-1.6,2.5,-2.9,3.2c-9.3,4.5,-3.8,-16.8,-2.8,-19.9c-0.7,2.3,-1.9,4.4,-3.5,6.1c-1.1,1.2,-3,0.2,-2.7,-1.3c1.2,-5.8,4.4,-10.7,6.8,-15.9Z" class="g11_79" />
<path d="M551,684.3c7.9,0.7,15.6,21,17.1,26.4l1.6,5.8l3.7,29c0.7,5.1,-2.7,10,-7.8,10.8c-5,0.7,-9.5,-2.6,-10.4,-7.4l-10,-55c-0.6,-3,1.3,-9.5,5.2,-9.7c0.2,0,0.4,0,0.6,0.1Z" class="g40_79" />
<path d="M570.2,799.6c0.2,0,0.3,0,0.5,0l-0.1,0.4l-2.9,-0.4Z" class="g41_79" />
<path d="M557.6,793l-0.3,0l-0.4,-41.4c0,-2.3,0.9,-4.3,2.3,-5.9c1.4,-1.5,3.3,-2.5,5.6,-2.7c5.2,-0.4,9.7,4,9.2,9.3l-2.9,41.1c-0.3,-0.2,-0.5,-0.2,-0.8,-0.2Z" class="g40_79" />
<path d="M555.8,797.3l0,-3.1c0,-1.1,0.6,-2,1.5,-2.2l0.4,0l12.7,0.4c0.3,0,0.5,0.1,0.8,0.2c0.6,0.4,1.1,1.2,1.1,2.1l0,3.1c0,1.1,-0.6,2,-1.5,2.2c-0.1,0,-0.3,0.1,-0.4,0l-2.5,0l-10.2,-0.4l-0.2,0c-1,-0.1,-1.7,-1.1,-1.7,-2.3Z" class="g42_79" />
<path d="M567.7,799.6l2.9,0.4l-0.3,4.7c-0.3,3.2,-2.8,5.7,-5.9,5.9c-0.3,0.1,-0.6,0.1,-1,0c-3.4,-0.2,-6,-3,-6,-6.4l-0.1,-4.8l0.2,0.1Z" class="g11_79" />
<path d="M525.5,816.9l-14.4,0c-11.5,0,-20.8,-9.4,-20.8,-20.9l0,-15.9l56,0l0,15.9c0,11.5,-9.3,20.9,-20.8,20.9Z" class="g43_79" />
<path d="M514,957.9c-15.2,14.9,-27.2,14.7,-32.3,13.6c-0.9,-0.2,-1.5,-1,-1.6,-1.9c-0.1,-0.5,-0.1,-1,0.2,-1.6c3.3,-6.3,8.9,-10.6,14.6,-13.5c5.6,-2.8,11.1,-4.2,14.6,-4.9l0.1,-0.1l0.2,0c1.7,-0.3,3.4,0.4,4.5,1.8c0.1,0.2,0.3,0.4,0.4,0.7c0.6,1.1,0.8,2.2,0.6,3.3c-0.1,0.3,-0.1,0.6,-0.2,0.9c-0.2,0.6,-0.6,1.2,-1.1,1.7Z" class="g32_79" />
<path d="M503.9,885.9c-4.5,0.3,-8.3,-3.1,-8.7,-7.5l-6.1,-75.3c-0.5,-5.2,4,-9.4,9.1,-8.8l9.5,1.2c4.3,0.5,7.4,4.3,7.2,8.6l-3.3,74.1c-0.2,4.2,-3.6,7.5,-7.7,7.7Z" class="g43_79" />
<path d="M511.6,880.2c-0.2,-4.4,-3.8,-8,-8.3,-8c-5,-0.1,-9,4.4,-8.3,9.4l1.6,16.7l-0.2,0.2l3.7,52.1c0.1,0.8,0.8,1.5,1.6,1.5l11.3,0.1c0.9,0,1.6,-0.7,1.6,-1.6Z" class="g43_79" />
<path d="M522.6,957.9c15.1,14.9,27.1,14.7,32.3,13.6c0.9,-0.2,1.5,-1,1.6,-1.9c0.1,-0.5,0.1,-1,-0.2,-1.6c-3.3,-6.3,-9,-10.6,-14.6,-13.5c-5.6,-2.8,-11.2,-4.2,-14.6,-4.9L527,949.5l-0.3,0c-1.6,-0.3,-3.3,0.4,-4.4,1.8c-0.1,0.2,-0.3,0.4,-0.5,0.7c-0.5,1.1,-0.7,2.2,-0.5,3.3c0,0.3,0.1,0.6,0.2,0.9c0.2,0.6,0.6,1.2,1.1,1.7Z" class="g32_79" />
<path d="M532.7,885.9c4.5,0.3,8.3,-3.1,8.7,-7.5l6.1,-75.3c0.5,-5.2,-4,-9.4,-9.2,-8.8l-9.4,1.2c-4.3,0.5,-7.4,4.3,-7.2,8.6l3.3,74.1c0.2,4.2,3.5,7.5,7.7,7.7Z" class="g43_79" />
<path d="M525,880.2c0.1,-4.4,3.8,-8,8.2,-8c5.1,-0.1,9.1,4.4,8.4,9.4L540,898.3l0.2,0.2l-3.7,52.1c-0.1,0.8,-0.8,1.5,-1.6,1.5l-11.3,0.1c-0.9,0,-1.6,-0.7,-1.6,-1.6Z" class="g43_79" />
<path d="M556.4,691.9c-0.8,-9.1,-13.9,-15.3,-20.7,-18.5c-1.7,-0.9,-15.5,-5.3,-17.4,-4.6c-1.9,-0.7,-15.7,3.7,-17.4,4.6c-6.8,3.2,-19.9,9.4,-20.7,18.5c-0.5,5,-0.7,11.4,-0.5,13.7l8.8,92.3c0.1,1,1.6,1.8,3.4,1.9l19.5,1.1c2.2,0.2,4.4,0.2,6.6,0.2l0,0.1l0.3,0l0.3,0l0,-0.1c2.2,0,4.4,0,6.6,-0.2l19.5,-1.1c1.8,-0.1,3.3,-0.9,3.4,-1.9l8.8,-92.3c0.2,-2.3,-0.1,-8.7,-0.5,-13.7Z" class="g40_79" />
<path d="M540,675.4l-22.4,60.3L496.6,676l1,-0.7c12.9,-8.3,29.1,-8.3,42,-0.1Z" class="g44_79" />
<path d="M497.3,676l-5.8,16.3l10.7,5.3l-7,13.6l23.1,24.5Z" class="g45_79" />
<path d="M539.3,676l5.7,16.3l-10.6,5.3l7,13.6l-23.2,24.5Z" class="g45_79" />
<path d="M525.6,720.5L517.4,736l-6.3,-15.6l0.7,-18.7l3.6,-8.3L511,686.5L519.2,676l6.4,9.6l-5.7,7.8l3.1,5.9Z" class="g38_79" />
<path d="M508.7,688.6L518.9,681l9.8,7c3.8,-2.8,6.2,-7,6.2,-11.5c0,-7.8,-7.4,-14.9,-16.6,-14.9c-9.2,0,-16.6,7.1,-16.6,14.9c0,4.8,2.8,9.3,7,12.1Z" class="g42_79" />
<path d="M529.3,643.6l0,26.7c0,5,-4.1,9.1,-9.2,9.1l-3.6,0c-5.1,0,-9.2,-4.1,-9.2,-9.1l0,-26.7c0,-5.1,4.1,-9.2,9.2,-9.2l3.6,0c5.1,0,9.2,4.1,9.2,9.2Z" class="g46_79" />
<path d="M529.3,643.6l0,19.1l-22,-5.5l0,-13.6c0,-5.1,4.1,-9.2,9.2,-9.2l3.6,0c5.1,0,9.2,4.1,9.2,9.2Z" class="g46_79" />
<path d="M553.1,595.4l0,11.1c0,2.2,-0.2,4.3,-0.7,6.4C549.5,624.4,539.1,633,526.6,633l-16.7,0c-12.3,0,-22.6,-8.4,-25.6,-19.8c-0.6,-2.1,-0.9,-4.4,-0.9,-6.7l0,-11.1c0,-14.7,11.9,-26.5,26.5,-26.5l16.7,0c14.7,0,26.5,11.8,26.5,26.5Z" class="g47_79" />
<path d="M498.6,635.3c0,2.7,-2.2,4.9,-4.9,4.9l-5.1,0c-5,0,-9.2,-3.2,-9.9,-7.6l-1.4,-8.3c-0.8,-5.3,3.9,-10.1,9.9,-10.1c6.3,0,11.4,5.1,11.4,11.4Z" class="g48_79" />
<path d="M537.9,635.3c0,2.7,2.3,4.9,5,4.9l5.1,0c5,0,9.2,-3.2,9.9,-7.6l1.3,-8.3c0.9,-5.3,-3.8,-10.1,-9.9,-10.1c-6.3,0,-11.4,5.1,-11.4,11.4Z" class="g48_79" />
<path d="M518.3,664.6C502.2,664.6,489,651.4,489,635.3l0,-38.2C489,586,498,577,509.1,577l18.4,0c11,0,20.1,9,20.1,20.1l0,38.2c0,16.1,-13.2,29.3,-29.3,29.3Z" class="g11_79" />
<g clip-path="url(#c21_79)">
<path d="M511.3,634.9l14,0l0,-26.2l-14,0l0,26.2Z" class="g19_79" />
</g>
<path d="M555.9,562.7c-3.8,-3.3,-8.9,-4.7,-13.7,-3.9c1.7,0.9,1.7,3.6,0.6,5.2c-5.2,7,-12.9,2.6,-19.3,1.1c-6.7,-1.6,-14.1,0.1,-19.4,4.3c-3.6,2.9,-6.2,6.9,-7.8,11.3c0.8,-0.3,1.6,-0.6,2.4,-0.8c6,-1.5,11.5,-0.6,16.6,2.7c1.2,0.7,1.7,1.8,1.6,2.9c0.9,0.3,1.8,0.6,2.6,1.2c9.9,6.3,22.9,8.9,33.4,2.9c10.3,-5.7,12.9,-18.4,3,-26.9Z" class="g47_79" />
<path d="M507.2,637.4c-0.6,0,-1,1,-0.7,1.8c2.1,5.3,6.6,9,11.8,9c5.2,0,9.6,-3.7,11.8,-9c0.3,-0.8,-0.1,-1.8,-0.8,-1.8Z" class="g20_79" />
<path d="M502,604.4l-1.6,-3.2c4,-2,8.4,-2.7,12.8,-1.9l-0.7,3.5c-3.5,-0.6,-7.2,-0.1,-10.5,1.6Z" class="g47_79" />
<path d="M534.5,604.4l1.7,-3.2c-4,-2,-8.5,-2.7,-12.8,-1.9l0.6,3.5c3.6,-0.6,7.2,-0.1,10.5,1.6Z" class="g47_79" />
<path d="M504.3,615c0,0.5,0.1,1,0.2,1.4c0.5,1.5,1.5,2.5,2.8,2.5c1.6,0,2.9,-1.8,2.9,-4c-0.1,-0.7,-0.2,-1.4,-0.5,-2c-0.5,-1.1,-1.5,-1.9,-2.5,-1.9c-1.7,0.1,-2.9,1.9,-2.9,4Z" class="g32_79" />
<path d="M526.4,615c0,0.5,0.1,1,0.2,1.4c0.5,1.5,1.6,2.5,2.8,2.5c1.6,0,2.9,-1.8,2.9,-4c0,-0.7,-0.2,-1.4,-0.5,-2c-0.5,-1.1,-1.5,-1.9,-2.5,-1.9c-1.6,0.1,-2.9,1.9,-2.9,4Z" class="g32_79" />
<path d="M553.1,595.4l0,12.8c0,2.2,-0.2,4.3,-0.7,6.4c-6.5,-2.1,-11.2,-8.2,-11.2,-15.4l0,-6.1c0,-2.3,-1.9,-4.1,-4.2,-4.1l-38.8,0c-2.3,0,-4.1,1.8,-4.1,4.1l0,9.2c0,6,-4.2,11.1,-9.8,12.6c-0.6,-2.1,-0.9,-4.4,-0.9,-6.7l0,-11.1c0,-15.5,12.7,-28.2,28.3,-28.2l14.9,0c14.7,0,26.5,11.8,26.5,26.5Z" class="g47_79" />
<path d="M544.9,617.5c0,3.8,-2.7,6.8,-6,6.8l-7.1,0c-2.9,0,-5.2,-2.6,-5.2,-5.9l0,-11l18.3,0.3Zm-34.1,0.7c0,3.3,-2.4,6,-5.4,6l-7.3,0c-3.4,0,-6.2,-3.1,-6.2,-6.8l0,-9.8l18.9,-0.3Zm37.1,-13.3l-22,-0.3l0,-0.2l-3.2,0l0,3.5c-0.3,0.1,-0.8,0.2,-1.5,0.2l-5.4,0c-0.6,0,-1.1,-0.1,-1.5,-0.1l0,-3.6l-25.4,0.4l-5,8.1l2,2.1l3.2,-5.4l0,7.8c0,5.3,4.1,9.6,9,9.6l7.3,0c4.5,0,8.2,-3.9,8.2,-8.8l0,-7.2c0.7,0.2,1.4,0.3,2.2,0.3l5.4,0c0.9,0,1.8,-0.2,2.6,-0.4l0,7.5c0,4.8,3.6,8.8,8,8.8l7.1,0c4.8,0,8.7,-4.4,8.7,-9.7l0,-7.7l3.1,5.4l2,-2.1Z" class="g49_79" />
<path d="M622.8,733.7c-6.8,0,-15,16.5,-16.7,20.9l-1.8,4.8l-5.6,24.1c-1,4.3,1.4,8.7,5.7,9.8c4.1,1,8.2,-1.4,9.4,-5.4l13.1,-45.6c0.7,-2.4,-0.4,-8.1,-3.6,-8.6c-0.2,0,-0.4,0,-0.5,0Z" class="g13_79" />
<path d="M646.2,734.7c6.7,0,14.9,16.5,16.6,20.9l1.9,4.8l5.5,24.1c1.1,4.3,-1.4,8.7,-5.6,9.8c-4.1,1,-8.2,-1.4,-9.4,-5.4L642.1,743.3c-0.7,-2.4,0.3,-8.1,3.6,-8.6c0.2,0,0.3,0,0.5,0Z" class="g13_79" />
<path d="M637.4,844.9l-5.9,0c-11.5,0,-20.8,-9.4,-20.8,-20.9l0,-10.3l47.5,0l0,10.3c0,11.5,-9.3,20.9,-20.8,20.9Z" class="g50_79" />
<path d="M661.7,969.8l1.2,0.2l4.4,-6.2c-2.6,-2.3,-5.6,-4.2,-8.5,-5.7c-5.5,-2.8,-11,-4.2,-14.4,-4.8l-0.1,-0.1l-0.2,0c-1.6,-0.3,-3.3,0.4,-4.4,1.7c-0.1,0.3,-0.3,0.5,-0.4,0.7c-0.1,0.2,-0.2,0.5,-0.3,0.7l3.1,2.9c5.5,5.1,12.3,8.8,19.6,10.6Z" class="g38_79" />
<g clip-path="url(#c22_79)">
<path d="M673.2,971.4c-1.5,-2.9,-3.6,-5.5,-5.9,-7.6l-4.4,6.2l-1.2,-0.2c-7.3,-1.8,-14.1,-5.5,-19.6,-10.6L639,956.3c-0.3,0.8,-0.4,1.8,-0.3,2.6c0.1,0.3,0.1,0.6,0.2,0.9c0.2,0.6,0.6,1.2,1.1,1.7c14.9,14.7,26.7,14.5,31.8,13.3c0.9,-0.2,1.5,-0.9,1.6,-1.8c0.1,-0.5,0.1,-1.1,-0.2,-1.6Z" class="g42_79" />
</g>
<path d="M648,903.1l0,0c3.7,0,6.8,-3,6.9,-6.7l1.8,-64.1c0.1,-4.4,-3.8,-7.9,-8.2,-7.1l-7.9,1.4c-3.7,0.7,-6.1,4,-5.7,7.7l6.1,62.6c0.4,3.6,3.4,6.2,7,6.2Z" class="g50_79" />
<path d="M648,903.1c3.7,0,6.8,-3,6.9,-6.7l1.8,-64.1c0.1,-4.4,-3.8,-7.9,-8.2,-7.1l-7.9,1.4c-3.7,0.7,-6.1,4,-5.7,7.7l6.1,62.6c0.4,3.6,3.4,6.2,7,6.2Z" class="g51_79" />
<path d="M643.9,959.4c2.5,0.1,4.7,-1.8,4.9,-4.3l6,-55.4c0.6,-4.3,-2.7,-8.1,-7,-8.1c-3.8,0,-6.9,2.9,-7.1,6.7l-1.4,56.2c-0.1,2.6,1.9,4.8,4.6,4.9Z" class="g50_79" />
<path d="M607.2,969.8l-1.1,0.2l-4.4,-6.2c2.6,-2.3,5.5,-4.2,8.4,-5.7c5.5,-2.8,11,-4.2,14.5,-4.8l0.1,-0.1l0.2,0c1.6,-0.3,3.3,0.4,4.3,1.7c0.2,0.3,0.4,0.5,0.5,0.7c0.1,0.2,0.2,0.5,0.3,0.7l-3.1,2.9c-5.5,5.1,-12.3,8.8,-19.7,10.6Z" class="g38_79" />
<g clip-path="url(#c22_79)">
<path d="M595.7,971.4c1.6,-2.9,3.7,-5.5,6,-7.6l4.4,6.2l1.1,-0.2c7.4,-1.8,14.2,-5.5,19.7,-10.6l3.1,-2.9c0.3,0.8,0.4,1.8,0.2,2.6c0,0.3,-0.1,0.6,-0.2,0.9c-0.2,0.6,-0.5,1.2,-1,1.7c-14.9,14.7,-26.8,14.5,-31.8,13.3c-1,-0.2,-1.5,-0.9,-1.7,-1.8c0,-0.5,0,-1.1,0.2,-1.6Z" class="g42_79" />
</g>
<path d="M621,903.1c-3.8,0,-6.9,-3,-7,-6.7l-1.7,-64.1c-0.2,-4.4,3.8,-7.9,8.2,-7.1l7.9,1.4c3.6,0.7,6.1,4,5.7,7.7l-6.2,62.6c-0.4,3.6,-3.4,6.2,-6.9,6.2Z" class="g50_79" />
<path d="M621,903.1c-3.8,0,-6.9,-3,-7,-6.7l-1.7,-64.1c-0.2,-4.4,3.8,-7.9,8.2,-7.1l7.9,1.4c3.6,0.7,6.1,4,5.7,7.7l-6.2,62.6c-0.4,3.6,-3.4,6.2,-6.9,6.2Z" class="g51_79" />
<path d="M625.1,959.4c-2.5,0.1,-4.7,-1.8,-5,-4.3l-5.9,-55.4c-0.6,-4.3,2.7,-8.1,7,-8.1c3.8,0,6.9,2.9,7.1,6.7l1.4,56.2c0.1,2.6,-2,4.8,-4.6,4.9Z" class="g50_79" />
<path d="M656.9,822.9l-15.6,1.9c-4.3,0.5,-8.6,0.5,-12.9,0l-16.3,-1.9c-1.5,-0.2,-2.6,-1.5,-2.4,-3l6.9,-75c0.8,-8.6,7.9,-15.1,16.5,-15.1l2.8,0c8.5,0,15.7,6.5,16.5,15.1l6.9,75c0.1,1.5,-0.9,2.8,-2.4,3Z" class="g26_79" />
<path d="M643.8,713.3l0,22.7c0,4.3,-3.5,7.8,-7.8,7.8l-3.1,0c-4.3,0,-7.8,-3.5,-7.8,-7.8l0,-22.7c0,-4.3,3.5,-7.8,7.8,-7.8l3.1,0c4.3,0,7.8,3.5,7.8,7.8Z" class="g11_79" />
<path d="M643.8,713.3l0,16.3l-18.7,-4.7l0,-11.6c0,-4.3,3.5,-7.8,7.8,-7.8l3.1,0c4.3,0,7.8,3.5,7.8,7.8Z" class="g46_79" />
<path d="M601.6,839.4c-0.3,0,-0.6,-0.1,-0.8,-0.1c-2.6,-0.5,-4.5,-2.8,-4.5,-5.5l0.1,-4l1.2,-40.6c0.1,-4.5,4.2,-7.9,8.6,-7c1.9,0.3,3.4,1.3,4.5,2.7c1,1.5,1.6,3.2,1.4,5.1l-4.3,39.5l-0.6,5c-0.3,2.8,-2.7,5,-5.6,4.9Z" class="g11_79" />
<path d="M595.1,797.2l15.4,0c0.8,0,1.5,-0.5,1.8,-1.3l2.3,-8.4c0.4,-1.4,-0.1,-2.9,-1.3,-3.8c-4.8,-3.5,-11.1,-4.2,-16.6,-1.9l-0.4,0.2c-1.2,0.5,-2,1.6,-2.1,2.9l-1,10.3c-0.1,1.1,0.8,2,1.9,2Z" class="g26_79" />
<path d="M605.9,829.9c-1.8,-0.1,-3.6,-0.2,-5.4,-0.4l-0.4,0.2c-0.5,0.4,-1.1,0.6,-1.6,0.6c-4.4,5.5,-0.4,16,2,20.4c0.5,0.9,1.2,1.8,2.2,2.4c7.6,3.9,4.4,-11.1,3.8,-13.3c0.4,1.6,1.3,3.1,2.6,4.4c0.8,0.9,2.5,0.4,2.3,-0.6c-0.7,-4.9,-4,-9.1,-5.5,-13.7Z" class="g11_79" />
<path d="M667.4,840.4c0.3,0,0.5,-0.1,0.8,-0.1c2.6,-0.5,4.5,-2.8,4.5,-5.5l-0.2,-4l-1.1,-40.6c-0.1,-4.5,-4.2,-7.9,-8.6,-7c-1.9,0.3,-3.5,1.3,-4.5,2.7c-1.1,1.5,-1.6,3.2,-1.4,5.1l4.3,39.5l0.5,5c0.3,2.8,2.8,5,5.7,4.9Z" class="g11_79" />
<path d="M673.9,798.2l-15.4,0c-0.8,0,-1.6,-0.5,-1.8,-1.3l-2.3,-8.4c-0.4,-1.4,0.1,-2.9,1.3,-3.8c4.8,-3.5,11.1,-4.2,16.6,-1.9l0.4,0.2c1.1,0.5,2,1.6,2.1,2.9l1,10.3c0.1,1.1,-0.8,2,-1.9,2Z" class="g26_79" />
<path d="M663,830.9c1.9,-0.1,3.7,-0.2,5.5,-0.4l0.4,0.2c0.5,0.4,1,0.6,1.6,0.6c4.3,5.5,0.4,16,-2,20.4c-0.5,0.9,-1.2,1.8,-2.3,2.4c-7.5,3.9,-4.4,-11.1,-3.7,-13.3c-0.5,1.6,-1.4,3.1,-2.6,4.4c-0.8,0.9,-2.5,0.4,-2.3,-0.6c0.6,-4.9,3.9,-9.1,5.4,-13.7Z" class="g11_79" />
<path d="M688.7,659.6c-5.1,-6.1,-13.1,-11.2,-20.1,-14.9l2.1,-0.7c-8.6,0.8,-17.1,2.9,-25.1,6.3c-2.4,1,-5,2.6,-5.1,5.1c0,1.1,0.4,2.2,1,3.1c2.9,4.6,8.3,7,12.2,10.9c3,2.9,5.2,6.6,7.7,10c0.5,0.7,1,1.4,1.8,1.6c0.9,0.3,1.8,0,2.7,-0.3c8.3,-2.9,15.8,-7.4,22.5,-13.1c3.4,-2.9,3.3,-4.5,0.3,-8Z" class="g50_79" />
<path d="M665.9,662.3l0,10.3c0,2,-0.2,4,-0.7,5.9c-2.6,10.7,-12.3,18.6,-23.8,18.6l-15.4,0c-11.4,0,-20.9,-7.8,-23.7,-18.3c-0.5,-2,-0.8,-4,-0.8,-6.2l0,-10.3c0,-13.5,11,-24.4,24.5,-24.4l15.4,0c13.6,0,24.5,10.9,24.5,24.4Z" class="g47_79" />
<path d="M615.6,699.2c0,2.6,-2.1,4.6,-4.6,4.6l-4.7,0c-4.6,0,-8.5,-3,-9.2,-7.1l-1.2,-7.6c-0.8,-5,3.5,-9.4,9.1,-9.4c5.9,0,10.6,4.7,10.6,10.6l0,8.9Z" class="g48_79" />
<path d="M651.9,699.2c0,2.6,2,4.6,4.6,4.6l4.7,0c4.6,0,8.5,-3,9.1,-7.1l1.3,-7.6c0.8,-5,-3.6,-9.4,-9.2,-9.4c-5.8,0,-10.5,4.7,-10.5,10.6Z" class="g48_79" />
<path d="M633.7,726.3c-14.8,0,-27,-12.2,-27,-27l0,-35.4c0,-10.2,8.3,-18.5,18.5,-18.5l17,0c10.2,0,18.6,8.3,18.6,18.5l0,35.4c0,14.8,-12.2,27,-27.1,27Z" class="g11_79" />
<g clip-path="url(#c23_79)">
<path d="M633.7,674.6l0,0c-3.5,0,-6.4,2.9,-6.4,6.5l0,11.3c0,3.6,2.9,6.5,6.4,6.5c3.6,0,6.5,-2.9,6.5,-6.4l0,-11.5c0,-3.5,-2.9,-6.4,-6.5,-6.4Z" class="g19_79" />
</g>
<path d="M623.5,701.2c-0.6,0,-0.9,0.9,-0.7,1.6c2,4.9,6.2,8.3,10.9,8.3c4.8,0,8.9,-3.4,10.9,-8.3c0.3,-0.7,-0.1,-1.6,-0.7,-1.6Z" class="g20_79" />
<path d="M618.7,670.7l-1.5,-3c3.7,-1.8,7.8,-2.4,11.8,-1.7l-0.6,3.2c-3.3,-0.6,-6.6,-0.1,-9.7,1.5Z" class="g47_79" />
<path d="M648.8,670.7l1.4,-3c-3.7,-1.8,-7.7,-2.4,-11.8,-1.7l0.6,3.2c3.3,-0.6,6.7,-0.1,9.8,1.5Z" class="g47_79" />
<path d="M620.8,680.5c0,0.5,0.1,0.9,0.2,1.3c0.4,1.4,1.4,2.3,2.6,2.3c1.5,0,2.7,-1.7,2.6,-3.7c0,-0.7,-0.2,-1.3,-0.4,-1.8c-0.5,-1.1,-1.4,-1.8,-2.4,-1.8c-1.4,0.1,-2.6,1.7,-2.6,3.7Z" class="g32_79" />
<path d="M641.3,680.5c0,0.5,0,0.9,0.2,1.3c0.4,1.4,1.4,2.3,2.5,2.3c1.5,0,2.7,-1.7,2.7,-3.7c-0.1,-0.7,-0.2,-1.3,-0.5,-1.8c-0.5,-1.1,-1.3,-1.8,-2.3,-1.8c-1.5,0.1,-2.7,1.7,-2.6,3.7Z" class="g32_79" />
<path d="M665.9,662.3l0,11.9c0,2,-0.2,4,-0.7,5.9c-6,-2,-10.3,-7.6,-10.3,-14.3l0,-5.5c0,-2.2,-1.8,-3.9,-3.9,-3.9l-35.8,0c-2.1,0,-3.9,1.7,-3.9,3.9l0,8.4c0,5.6,-3.8,10.3,-9,11.7c-0.5,-2,-0.8,-4.1,-0.8,-6.2l0,-10.3c0,-14.3,11.8,-26,26.1,-26l13.8,0c13.6,0,24.5,10.9,24.5,24.4Z" class="g47_79" />
<path d="M640.3,655.9c9.4,-5.9,18.5,-10.7,29.6,-10.6l0.6,0.6c0.5,-5.8,-0.6,-13.8,-6,-16l-22.2,-9.4c-3.4,-1.5,-7.4,-1.3,-10.7,0.4l-31.9,16.2l-0.9,0.4l-0.7,0.4l-4.8,8.4c-2.3,4.1,-2.7,8.9,-1,13.2l8,21.1c0.3,0.8,1.3,1.1,2,0.6l4.9,-3.9l2,-1.6l25.6,-20.2l5.5,0.4Z" class="g52_79" />
<path d="M604.6,676.5c0.2,0,0.4,-0.1,0.6,-0.2C604.6,676,604,675.5,603.4,675l1.2,1.5Z" class="g53_79" />
<path d="M671.2,645.7c-13.4,-5.5,-31.7,2.2,-41.7,10.9c-8,6.9,-14.2,17,-24.3,19.7c4.2,2.5,9.7,2.6,13.9,0c2,-1.2,3.6,-2.9,5.3,-4.5c2.1,-1.9,4.2,-3.7,6.4,-5.4c2.7,-2.1,5.4,-4.3,8.1,-6.5c4.6,-3.7,9.3,-7.4,14.6,-10c4.2,-2,11.8,-3.6,17.7,-3.6c0.3,-0.1,0.3,-0.5,0,-0.6Z" class="g53_79" />
<path d="M591.8,657.9c0,0.3,0.1,0.5,0.2,0.8c-0.1,-0.3,-0.2,-0.5,-0.2,-0.8Z" class="g54_79" />
<g clip-path="url(#c24_79)">
<path d="M604,679.8l-1.7,1.4c-0.2,0.2,-0.5,0.3,-0.7,0.3c0.2,0,0.5,-0.1,0.7,-0.3l1.7,-1.4Z" class="g55_79" />
</g>
<path d="M607.2,677.3l0,0m0,0l-3.2,2.5l3.2,-2.5Z" class="g56_79" />
<g clip-path="url(#c24_79)">
<path d="M599.7,637.1l0,0l-0.9,0.4l-0.7,0.4l-4.8,8.5c-2,3.5,-2.6,7.7,-1.5,11.5c0,0.3,0.1,0.5,0.2,0.8c0.1,0.3,0.2,0.5,0.3,0.8l8,21.1c0.2,0.6,0.7,0.9,1.2,0.9l0.1,0c0.2,0,0.5,-0.1,0.7,-0.3l1.7,-1.4l3.2,-2.5c-0.7,-0.3,-1.3,-0.6,-2,-1c1.3,-0.3,2.6,-0.8,3.8,-1.4c-2.9,-11.8,-6.7,-26.9,-9.3,-37.8m4.9,39.4L603.4,675c0.6,0.5,1.2,1,1.8,1.3c-0.2,0.1,-0.4,0.2,-0.6,0.2Z" class="g57_79" />
</g>
<path d="M603.4,675l1.2,1.5c0.2,0,0.4,-0.1,0.6,-0.2C604.6,676,604,675.5,603.4,675Z" class="g58_79" />
<g clip-path="url(#c24_79)">
<path d="M609,674.9c-1.2,0.6,-2.4,1.1,-3.8,1.4c0.7,0.4,1.3,0.7,2,1l2,-1.6c0,-0.3,-0.1,-0.5,-0.2,-0.8Z" class="g58_79" />
</g>
<path d="M601.1,672.8c0.6,0.5,1.3,1,2,1.4c-0.2,0.1,-0.4,0.1,-0.6,0.2Z" class="g53_79" />
<path d="M777.1,960.8l0.8,0.2l3.3,-4.7c-2,-1.7,-4.1,-3.1,-6.3,-4.2c-4.1,-2.1,-8.2,-3.1,-10.7,-3.6l-0.1,0l-0.2,-0.1c-1.2,-0.2,-2.4,0.3,-3.2,1.4c-0.1,0.1,-0.3,0.3,-0.3,0.5c-0.1,0.1,-0.2,0.3,-0.3,0.4l2.3,2.2c4.1,3.8,9.2,6.6,14.7,7.9Z" class="g38_79" />
<path d="M785.6,962c-1.2,-2.2,-2.7,-4.1,-4.4,-5.7l-3.3,4.7l-0.8,-0.2c-5.5,-1.3,-10.6,-4.1,-14.7,-7.9l-2.3,-2.2c-0.2,0.7,-0.3,1.4,-0.2,2c0.1,0.2,0.1,0.4,0.2,0.7c0.1,0.4,0.4,0.9,0.8,1.2c11.1,10.9,19.9,10.8,23.6,9.9c0.7,-0.1,1.1,-0.7,1.3,-1.3c0,-0.4,0,-0.8,-0.2,-1.2Z" class="g42_79" />
<path d="M766.8,911.2c2.8,0,5.1,-2.2,5.2,-5l1.3,-47.7c0.1,-3.3,-2.8,-5.8,-6.1,-5.2l-5.9,1c-2.7,0.5,-4.5,3,-4.2,5.7l4.6,46.6c0.3,2.6,2.5,4.6,5.1,4.6Z" class="g50_79" />
<path d="M766.8,911.2c2.8,0,5.1,-2.2,5.2,-5l1.3,-47.7c0.1,-3.3,-2.8,-5.8,-6.1,-5.2l-5.9,1c-2.7,0.5,-4.5,3,-4.2,5.7l4.6,46.6c0.3,2.6,2.5,4.6,5.1,4.6Z" class="g59_79" />
<path d="M763.8,953.1c1.8,0,3.5,-1.4,3.7,-3.2l4.4,-41.3c0.5,-3.1,-2,-6,-5.2,-6c-2.8,0,-5.2,2.2,-5.3,5l-1,41.8c-0.1,1.9,1.4,3.6,3.4,3.7Z" class="g50_79" />
<path d="M736.5,960.8l-0.8,0.2l-3.3,-4.7c1.9,-1.7,4.1,-3.1,6.3,-4.2c4.1,-2.1,8.2,-3.1,10.7,-3.6l0.1,0l0.2,-0.1c1.2,-0.2,2.4,0.3,3.2,1.4c0.1,0.1,0.2,0.3,0.3,0.5c0.1,0.1,0.2,0.3,0.2,0.4l-2.2,2.2c-4.2,3.8,-9.2,6.6,-14.7,7.9Z" class="g38_79" />
<path d="M728,962c1.1,-2.2,2.7,-4.1,4.4,-5.7l3.3,4.7l0.8,-0.2c5.5,-1.3,10.5,-4.1,14.7,-7.9l2.2,-2.2c0.3,0.7,0.4,1.4,0.2,2c0,0.2,0,0.4,-0.1,0.7c-0.2,0.4,-0.4,0.9,-0.8,1.2c-11.1,10.9,-19.9,10.8,-23.7,9.9c-0.6,-0.1,-1.1,-0.7,-1.2,-1.3c0,-0.4,0,-0.8,0.2,-1.2Z" class="g42_79" />
<path d="M746.8,911.2c-2.8,0,-5.1,-2.2,-5.2,-5l-1.3,-47.7c-0.1,-3.3,2.8,-5.8,6.1,-5.2l5.9,1c2.7,0.5,4.5,3,4.2,5.7l-4.6,46.6c-0.3,2.6,-2.5,4.6,-5.1,4.6Z" class="g50_79" />
<path d="M746.8,911.2c-2.8,0,-5.1,-2.2,-5.2,-5l-1.3,-47.7c-0.1,-3.3,2.8,-5.8,6.1,-5.2l5.9,1c2.7,0.5,4.5,3,4.2,5.7l-4.6,46.6c-0.3,2.6,-2.5,4.6,-5.1,4.6Z" class="g59_79" />
<path d="M749.8,953.1c-1.9,0,-3.5,-1.4,-3.7,-3.2l-4.4,-41.3c-0.5,-3.1,2,-6,5.2,-6c2.8,0,5.1,2.2,5.3,5l1,41.8c0.1,1.9,-1.4,3.6,-3.4,3.7Z" class="g50_79" />
<path d="M735.1,852.2l0.9,8c0.9,8.5,9.3,15,19.3,15l3.2,0c10,0,18.4,-6.5,19.3,-15l0.7,-8Z" class="g50_79" />
<path d="M778.6,859.1l-15.2,1.8c-4.6,0.5,-9.2,0.5,-13.8,0L735,859.1c-1.6,-0.1,-2.7,-1.4,-2.6,-2.8l4.7,-55.6c0.8,-8.1,8.4,-14.3,17.5,-14.3l3,0c9.1,0,16.7,6.2,17.6,14.3l6,55.6c0.1,1.4,-1,2.7,-2.6,2.8Z" class="g13_79" />
<path d="M763.4,764l0,25.2c0,3.3,-2.6,5.9,-5.9,5.9l-1.6,0c-3.2,0,-5.9,-2.6,-5.9,-5.9L750,764c0,-3.2,2.7,-5.8,5.9,-5.8l1.6,0c3.3,0,5.9,2.6,5.9,5.8Z" class="g11_79" />
<path d="M763.6,776.7l0,10.8l-13.4,-3.1l0,-7.7c0,-3.2,2.6,-5.9,5.9,-5.9l1.6,0c3.2,0,5.9,2.7,5.9,5.9Z" class="g60_79" />
<path d="M791,728.6l0,10.9c0,2.2,-0.3,4.3,-0.8,6.3c-2.8,11.3,-13,19.7,-25.2,19.7l-16.4,0c-12.1,0,-22.2,-8.2,-25.1,-19.3c-0.6,-2.2,-0.9,-4.4,-0.9,-6.7l0,-10.9c0,-14.3,11.7,-25.9,26,-25.9l16.4,0c14.3,0,26,11.6,26,25.9Z" class="g61_79" />
<path d="M737.5,762.6c0,2,-2.1,3.7,-4.8,3.7l-5.1,0c-4.8,0,-9,-2.4,-9.7,-5.6l-1.3,-6.1c-0.8,-4,3.8,-7.5,9.7,-7.5c6.2,0,11.2,3.8,11.2,8.4Z" class="g48_79" />
<path d="M776.1,762.6c0,2,2.1,3.7,4.8,3.7l5,0c4.9,0,9.1,-2.4,9.8,-5.6l1.3,-6.1c0.8,-4,-3.8,-7.5,-9.8,-7.5c-6.1,0,-11.1,3.8,-11.1,8.4Z" class="g48_79" />
<path d="M756.8,786.2c-15.8,0,-28.7,-13,-28.7,-28.7l0,-27.2c0,-10.8,8.8,-19.7,19.7,-19.7l18,0c10.8,0,19.7,8.9,19.7,19.7l0,27.2c0,15.7,-12.9,28.7,-28.7,28.7Z" class="g11_79" />
<g clip-path="url(#c25_79)">
<path d="M749.9,765.3l13.8,0l0,-17.7l-13.8,0l0,17.7Z" class="g19_79" />
</g>
<path d="M748.1,769.7c-0.5,0,-0.8,0.7,-0.6,1.3c1.7,4.2,5.2,7.1,9.3,7.1c4.1,0,7.6,-2.9,9.2,-7.1c0.3,-0.6,0,-1.3,-0.5,-1.3Z" class="g20_79" />
<path d="M740.9,738.8l-1.6,-3.1c3.9,-2,8.2,-2.6,12.5,-1.8l-0.6,3.4c-3.5,-0.6,-7.1,-0.1,-10.3,1.5Z" class="g47_79" />
<path d="M772.7,738.8l1.6,-3.1c-3.9,-2,-8.2,-2.6,-12.5,-1.8l0.6,3.4c3.5,-0.6,7.1,-0.1,10.3,1.5Z" class="g47_79" />
<path d="M743.1,749.3c0,0.4,0.1,0.9,0.2,1.3c0.4,1.5,1.5,2.5,2.7,2.5c1.6,-0.1,2.9,-1.8,2.8,-3.9c0,-0.8,-0.2,-1.4,-0.4,-2c-0.5,-1.1,-1.5,-1.9,-2.5,-1.9c-1.6,0.1,-2.9,1.8,-2.8,4Z" class="g32_79" />
<path d="M764.8,749.3c0,0.4,0.1,0.9,0.2,1.3c0.4,1.5,1.5,2.5,2.7,2.5c1.6,-0.1,2.8,-1.8,2.8,-3.9c0,-0.8,-0.2,-1.4,-0.4,-2c-0.6,-1.1,-1.5,-1.9,-2.5,-1.9c-1.6,0.1,-2.9,1.8,-2.8,4Z" class="g32_79" />
<path d="M791,728.6l0,12.6c0,2.2,-0.3,4.3,-0.8,6.3c-6.4,-2.1,-11,-8.1,-11,-15.1l0,-5.9c0,-2.3,-1.8,-4.1,-4.1,-4.1l-38,0c-2.2,0,-4.1,1.8,-4.1,4.1l0,8.9c0,6,-4,11,-9.5,12.4c-0.6,-2.1,-0.9,-4.3,-0.9,-6.6l0,-10.9c0,-15.2,12.5,-27.6,27.7,-27.6l14.7,0c14.3,0,26,11.6,26,25.9Z" class="g47_79" />
<path d="M750.3,703.1c-15.1,0,-27.3,12.2,-27.3,27.2l0,10.9c0,2.1,0.3,4.2,0.7,6.1c5.3,-1.5,8.9,-6.4,8.9,-11.9l0,-8.9c0,-2.5,2.1,-4.5,4.5,-4.5l38,0c2.5,0,4.5,2,4.5,4.5l0,5.9c0,6.6,4.1,12.4,10.3,14.6c0.5,-1.9,0.7,-3.8,0.7,-5.8l0,-12.6c0,-14.1,-11.5,-25.5,-25.6,-25.5Zm-27.1,45.2l-0.1,-0.4c-0.6,-2.1,-0.9,-4.4,-0.9,-6.7l0,-10.9c0,-15.4,12.6,-28,28.1,-28l14.7,0c14.5,0,26.4,11.8,26.4,26.3l0,12.6c0,2.2,-0.3,4.3,-0.8,6.4l-0.1,0.4l-0.4,-0.2c-6.7,-2.1,-11.3,-8.4,-11.3,-15.4l0,-5.9c0,-2.1,-1.6,-3.7,-3.7,-3.7l-38,0c-2,0,-3.7,1.6,-3.7,3.7l0,8.9c0,6,-4,11.3,-9.8,12.8Z" class="g47_79" />
<path d="M722.2,739.8c0.6,0.5,1.3,1,2.1,1.5c-0.3,0,-0.5,0.1,-0.7,0.1Z" class="g53_79" />
<path d="M770.3,789.7c5.6,0,12.5,13.9,14,17.7l1.5,4l4.7,20.4c0.9,3.6,-1.2,7.3,-4.8,8.2c-3.4,0.9,-6.9,-1.1,-7.9,-4.5L766.8,797c-0.6,-2,0.3,-6.8,3,-7.2c0.2,0,0.3,-0.1,0.5,-0.1Z" class="g13_79" />
<path d="M784.2,878.8c0.3,0.1,0.5,0,0.7,0c2.2,-0.3,4,-2.1,4.1,-4.4l0,-3.4l1,-34.3c0.1,-3.8,-3.2,-6.8,-7,-6.3c-1.5,0.2,-2.9,1,-3.9,2.1c-0.9,1.2,-1.5,2.7,-1.4,4.3l1.8,33.4l0.2,4.2c0.1,2.5,2.1,4.4,4.5,4.4Z" class="g11_79" />
<path d="M791.7,843.6l-13,-0.7c-0.7,0,-1.3,-0.5,-1.4,-1.2l-1.6,-7.2c-0.3,-1.2,0.2,-2.4,1.3,-3.1c4.2,-2.7,9.5,-3,14.1,-0.8l0.3,0.2c1,0.4,1.6,1.4,1.6,2.5l0.4,8.7c0,0.9,-0.8,1.7,-1.7,1.6Z" class="g26_79" />
<path d="M780.7,870.9c1.6,-0.1,3.1,-0.2,4.6,-0.4l0.4,0.3c0.4,0.3,0.8,0.4,1.3,0.5c3.7,4.6,0.4,13.5,-1.7,17.2c-0.4,0.8,-1,1.5,-1.9,2c-6.3,3.3,-3.7,-9.4,-3.1,-11.3c-0.4,1.4,-1.2,2.7,-2.2,3.8c-0.7,0.7,-2.1,0.3,-2,-0.6c0.6,-4.1,3.4,-7.6,4.6,-11.5Z" class="g11_79" />
<path d="M743.3,792.2c-5.6,0,-12.6,13.9,-14,17.7l-1.6,4l-4.6,20.3c-0.9,3.6,1.1,7.4,4.7,8.3c3.5,0.8,7,-1.2,8,-4.5l11,-38.5c0.6,-2.1,-0.3,-6.9,-3,-7.2c-0.2,-0.1,-0.3,-0.1,-0.5,-0.1Z" class="g13_79" />
<path d="M729.3,879.5c-0.2,0,-0.4,0,-0.6,-0.1c-2.2,-0.3,-4,-2.1,-4.1,-4.4l-0.1,-3.4l-0.9,-34.2c-0.1,-3.8,3.2,-6.9,6.9,-6.4c1.6,0.2,3,1,4,2.2c0.9,1.1,1.5,2.6,1.4,4.2l-1.8,33.4l-0.2,4.2c-0.1,2.5,-2.1,4.4,-4.6,4.5Z" class="g11_79" />
<path d="M721.9,844.2l12.9,-0.7c0.8,0,1.3,-0.5,1.5,-1.2l1.6,-7.2c0.3,-1.2,-0.3,-2.4,-1.3,-3.1c-4.2,-2.7,-9.6,-3,-14.1,-0.8l-0.3,0.2c-1,0.4,-1.6,1.4,-1.6,2.5l-0.4,8.7c0,0.9,0.7,1.7,1.7,1.6Z" class="g26_79" />
<path d="M732.8,870.9c-1.5,-0.1,-3,-0.2,-4.5,-0.4l-0.4,0.3c-0.4,0.3,-0.9,0.4,-1.3,0.5c-3.7,4.6,-0.4,13.5,1.7,17.2c0.4,0.8,1,1.5,1.9,2c6.3,3.3,3.7,-9.4,3.1,-11.3c0.4,1.4,1.2,2.7,2.2,3.8c0.7,0.7,2.1,0.3,2,-0.6c-0.6,-4.1,-3.4,-7.6,-4.7,-11.5Z" class="g11_79" />


<!-- Any embedded fonts defined here -->
<style type="text/css" ><![CDATA[

@font-face {
	font-family: ProximaNova-Extrabld_cst;
	src: url("fonts/ProximaNova-Extrabld_cst.woff") format("woff");
}

@font-face {
	font-family: ProximaNova-Bold_cs-;
	src: url("fonts/ProximaNova-Bold_cs-.woff") format("woff");
}

@font-face {
	font-family: Alegreya-Regular_csr;
	src: url("fonts/Alegreya-Regular_csr.woff") format("woff");
}

@font-face {
	font-family: STKaitiSC-Regular_cof;
	src: url("fonts/STKaitiSC-Regular_cof.woff") format("woff");
}

@font-face {
	font-family: ProximaNova-Semibold_csu;
	src: url("fonts/ProximaNova-Semibold_csu.woff") format("woff");
}

]]></style>

</svg>
