<?xml version="1.0" encoding="UTF-8" standalone="no"?>
<!DOCTYPE svg PUBLIC "-//W3C//DTD SVG 1.1//EN"
"http://www.w3.org/Graphics/SVG/1.1/DTD/svg11.dtd">


<!-- Page 179 -->
<svg x="0" y="0" width="921" height="1196" viewBox="0 0 921 1196" version="1.1" xmlns="http://www.w3.org/2000/svg" xmlns:xlink="http://www.w3.org/1999/xlink"
style="display: block;margin-left: auto;margin-right: auto;">
<defs>
<clipPath id="c0_179"><path d="M0,1196.3L0,0L921.3,0l0,1196.3Z" /></clipPath>

<style type="text/css"><![CDATA[

.g1_179{
fill: none;
stroke: #3986C6;
stroke-width: 1.6194444;
stroke-linecap: butt;
stroke-linejoin: miter;
stroke-miterlimit: 4;
}
.g2_179{
fill: #3986C6;
}
.g3_179{
fill: none;
stroke: #3986C6;
stroke-width: 1.9097222;
stroke-linecap: butt;
stroke-linejoin: miter;
stroke-miterlimit: 4;
}
.g4_179{
fill: #ACBF3B;
}
.g5_179{
fill: none;
stroke: #3986C6;
stroke-width: 1.5277778;
stroke-linecap: butt;
stroke-linejoin: miter;
stroke-miterlimit: 4;
}
.g6_179{
fill: #E2E3E5;
}
.g7_179{
fill: none;
stroke: #FFFFFF;
stroke-width: 1.5277778;
stroke-linecap: butt;
stroke-linejoin: miter;
stroke-miterlimit: 4;
}
.g8_179{
fill: none;
stroke: #3986C6;
stroke-width: 1.1458334;
stroke-linecap: butt;
stroke-linejoin: miter;
}

.s1_179{
font-size: 12.99px;
font-family: ProximaNova-Semibold_c-3;
fill: #231F20;
}
.s2_179{
font-size: 18.33px;
font-family: ProximaNova-Bold_c-5;
fill: #231F20;
}
.s3_179{
font-size: 44.31px;
font-family: ProximaNova-Bold_c-5;
fill: #3986C6;
}
.s4_179{
font-size: 19.10px;
font-family: Alegreya-Regular_c-8;
fill: #231F20;
}
.s5_179{
font-size: 16.04px;
font-family: Alegreya-Regular_c-8;
fill: #231F20;
}
.s6_179{
font-size: 32.08px;
font-family: STKaitiSC-Regular_cof;
fill: #231F20;
}
.s7_179{
font-size: 16.81px;
font-family: ProximaNova-Extrabld_c-a;
fill: #FFFFFF;
}
.s8_179{
font-size: 25.97px;
font-family: ProximaNova-Bold_c-5;
fill: #FFFFFF;
}
.s9_179{
font-size: 25.97px;
font-family: ProximaNova-Bold_c-5;
fill: #231F20;
}
.s10_179{
font-size: 13.75px;
font-family: ProximaNova-Extrabld_c-a;
fill: #FFFFFF;
}

]]></style>

</defs>
<path d="M0,0
L0,1196
L921,1196
L921,0 Z " 
fill="#FFFFFF" stroke="none" />
<text 
transform="matrix(0, -1, 1, 0, 54, 1084)"
dx="0,0,0,0,0,0,0,0,0,0,0,0,0,0,0,0,0,0,0" 
class="s1_179"
>Go Far with Chinese</text>

<text 
x="33" 
y="1149" 
dx="0,0,0" 
class="s2_179"
>156</text>

<path d="M50.4,1089.3l0,38.7" class="g1_179" />
<path d="M50.4,1125.4c-1.4,0,-2.5,1.1,-2.5,2.6c0,1.4,1.1,2.6,2.5,2.6c1.5,0,2.6,-1.2,2.6,-2.6c0,-1.5,-1.1,-2.6,-2.6,-2.6Z" class="g2_179" />
<path d="M127.1,197.5c-10.1,0,-18.3,-8.2,-18.3,-18.3l0,-20.2l23.1,0c10.1,0,18.3,8.2,18.3,18.3l0,20.2Z" class="g2_179" />
<g clip-path="url(#c0_179)">
<path d="M-13.7,51.3l877.1,0" class="g3_179" />
</g>
<path d="M863.4,55.9c2.6,0,4.6,-2.1,4.6,-4.6c0,-2.5,-2,-4.6,-4.6,-4.6c-2.5,0,-4.6,2.1,-4.6,4.6c0,2.5,2.1,4.6,4.6,4.6Z" class="g2_179" />
<path d="M314.1,31.1c11.2,0,20.2,9.1,20.2,20.2l0,20.2l-112.2,0l0,-40.4Z" class="g4_179" />
<path d="M130.2,71.5C119,71.5,110,62.4,110,51.3l0,-20.2l112.1,0l0,40.4Z" class="g2_179" />
<path d="M152.1,345.6l430.3,0" class="g5_179" />
<path d="M582.4,341c2.5,0,4.6,2.1,4.6,4.6c0,2.5,-2.1,4.6,-4.6,4.6c-2.6,0,-4.6,-2.1,-4.6,-4.6c0,-2.5,2,-4.6,4.6,-4.6Z" class="g2_179" />
<path d="M123.8,317.9c-7.6,0,-13.8,6.2,-13.8,13.8l0,27.8c0,7.6,6.2,13.8,13.8,13.8l21.2,0c7.6,0,13.8,-6.2,13.8,-13.8l0,-27.8c0,-7.6,-6.2,-13.8,-13.8,-13.8Z" class="g6_179" />
<path d="M290.2,317.9c-7.6,0,-13.7,6.2,-13.7,13.8l0,27.8c0,7.6,6.1,13.8,13.7,13.8l21.3,0c7.6,0,13.8,-6.2,13.8,-13.8l0,-27.8c0,-7.6,-6.2,-13.8,-13.8,-13.8Z" class="g6_179" />
<path d="M357.9,317.9c-7.6,0,-13.8,6.2,-13.8,13.8l0,27.8c0,7.6,6.2,13.8,13.8,13.8l21.3,0c7.6,0,13.7,-6.2,13.7,-13.8l0,-27.8c0,-7.6,-6.1,-13.8,-13.7,-13.8Z" class="g6_179" />
<path d="M426.3,317.9c-7.6,0,-13.8,6.2,-13.8,13.8l0,27.8c0,7.6,6.2,13.8,13.8,13.8l39,0c7.6,0,13.8,-6.2,13.8,-13.8l0,-27.8c0,-7.6,-6.2,-13.8,-13.8,-13.8Z" class="g6_179" />
<path d="M192.1,317.9c-7.6,0,-13.8,6.2,-13.8,13.8l0,27.8c0,7.6,6.2,13.8,13.8,13.8l51,0c7.6,0,13.7,-6.2,13.7,-13.8l0,-27.8c0,-7.6,-6.1,-13.8,-13.7,-13.8Z" class="g6_179" />
<text 
x="110" 
y="122" 
dx="0,0,0,0,0,0,0,0,0,0,0,0,0,0,0,0,0,0,0,0,0,0" 
class="s3_179"
>Scheduling an activity</text>

<text 
x="108" 
y="236" 
dx="0,-0.8,0,0,0,0,0,0,0,0,0,0,0,0,0,0,0,0,0,0,0,0,0,0,0,0,0,0,0,0,0,0,0,0,0,0,0,0,0,0,0,0,0,0,0,0,0,0,0,0,0,0,0,0,0,0,-0.3,-1.3,-0.4,0,-0.6,0.3,0,0,0,0,0,0,0,0,0,0,0,0,0,0,0,0,0,0,0,0,0,0,0,0,0,0,0,0,-0.3,0,0" 
class="s4_179"
>Your teacher will lead a discussion about the image below. Try to participate as much as you </text>

<text 
x="110" 
y="262" 
dx="0,-0.2,0,0,-0.4,0,0,0,0,0,0,0,-0.2,0,0,0,0,0,0,-0.4,0,0,0,0,0,0,0,-0.3,0,0,0,0,0,-1.5,0,0,0,0,0,0,0,0,0,0,0,0,0,-0.4,0,0,0,0,0,-0.3,0,0,0,0,0,0,0,0,0,0,0,0,0,0,-0.3,-1.3" 
class="s4_179"
>can. If there is anything you don’t understand, let your teacher know.</text>

<text 
x="124" 
y="311" 
dx="0,0.1,0.2" 
class="s5_179"
>Nǐ </text>

<text 
x="195" 
y="311" 
dx="0,0.2,0.2,0.2,0.2,0.2,0.2,0.2" 
class="s5_179"
>jīntiān </text>

<text 
x="287" 
y="311" 
dx="0,0,0.2,0.2" 
class="s5_179"
>yǒu </text>

<text 
x="352" 
y="311" 
dx="0,-0.1,0.2,0.2,0.2" 
class="s5_179"
>kòng </text>

<text 
x="434" 
y="311" 
dx="0,0.2,0.2" 
class="s5_179"
>ma?</text>

<text 
x="118" 
y="355" 
dx="0" 
class="s6_179"
>你</text>

<text 
x="184" 
y="355" 
dx="0,0" 
class="s6_179"
>今天</text>

<text 
x="284" 
y="355" 
dx="0" 
class="s6_179"
>有</text>

<text 
x="353" 
y="355" 
dx="0" 
class="s6_179"
>空</text>

<text 
x="422" 
y="355" 
dx="0,0" 
class="s6_179"
>吗？</text>

<path d="M222.9,25.6l0,45.9" class="g7_179" />
<text 
x="232" 
y="57" 
dx="0,0,0,0,0,0,0,0,0" 
class="s7_179"
>±eCti²³ 1</text>

<text 
x="121" 
y="57" 
dx="0,0,0,0,0,0,0,0,0,0" 
class="s7_179"
>Ch´Pter 7 </text>

<text 
x="182" 
y="404" 
dx="0,0,0,0,-0.3,0,0,0,0,-0.4,-0.3,0,0,0,-0.2,0,0,0,0,0,0,0,0,0,0,0,-0.4,0" 
class="s4_179"
>Do you have free time today?</text>

<path d="M118.8,159.6l458.9,0" class="g8_179" />
<path d="M132.6,197.1l445.1,0" class="g8_179" />
<text 
x="117" 
y="186" 
dx="0,0,0" 
class="s8_179"
>1a </text>

<text 
x="160" 
y="186" 
dx="0,-0.2,0,0,0,0,0,0,0,0,0,0,0,0,0" 
class="s9_179"
>Language Model </text>

<path d="M380.3,189.1c-6,0,-10.8,-4.8,-10.8,-10.8l0,-10.8l194.4,0c6,0,10.9,4.8,10.9,10.8l0,10.8Z" class="g4_179" />
<text 
x="384" 
y="182" 
dx="0,-0.9,0,0,0,0,0,0,0,0,0,0,-0.5,-0.4,0,0,0,0,0,0,0" 
class="s10_179"
>t´rGet µ´³Gu´Ge i³Put</text>

<path d="M152.1,511.9l430.2,0" class="g5_179" />
<path d="M582.3,507.4c2.5,0,4.5,2,4.5,4.5c0,2.6,-2,4.6,-4.5,4.6c-2.6,0,-4.6,-2,-4.6,-4.6c0,-2.5,2,-4.5,4.6,-4.5Z" class="g2_179" />
<path d="M123.8,485c-7.6,0,-13.8,6.2,-13.8,13.8l0,27.8c0,7.6,6.2,13.8,13.8,13.8l58.8,0c7.6,0,13.8,-6.2,13.8,-13.8l0,-27.8c0,-7.6,-6.2,-13.8,-13.8,-13.8Z" class="g6_179" />
<path d="M298.4,484.5c-7.6,0,-13.8,6.1,-13.8,13.7l0,27.8c0,7.6,6.2,13.8,13.8,13.8l21.3,0c7.6,0,13.7,-6.2,13.7,-13.8l0,-27.8c0,-7.6,-6.1,-13.7,-13.7,-13.7Z" class="g6_179" />
<path d="M367.4,484.5c-7.6,0,-13.7,6.1,-13.7,13.7l0,27.8c0,7.6,6.1,13.8,13.7,13.8l52,0c7.6,0,13.7,-6.2,13.7,-13.8l0,-27.8c0,-7.6,-6.1,-13.7,-13.7,-13.7Z" class="g6_179" />
<path d="M229.8,484.5c-7.6,0,-13.8,6.1,-13.8,13.7l0,27.8c0,7.6,6.2,13.8,13.8,13.8l21.3,0c7.6,0,13.7,-6.2,13.7,-13.8l0,-27.8c0,-7.6,-6.1,-13.7,-13.7,-13.7Z" class="g6_179" />
<path d="M466,484.5c-7.6,0,-13.8,6.1,-13.8,13.7l0,27.8c0,7.6,6.2,13.8,13.8,13.8l37.8,0c7.6,0,13.8,-6.2,13.8,-13.8l0,-27.8c0,-7.6,-6.2,-13.7,-13.8,-13.7Z" class="g6_179" />
<text 
x="128" 
y="478" 
dx="0,-1,0.2,0.2,0.2,0.2" 
class="s5_179"
>Wǒmen </text>

<text 
x="230" 
y="478" 
dx="0,0.2,0.2" 
class="s5_179"
>qù </text>

<text 
x="296" 
y="478" 
dx="0,-0.1,0.2,0.2" 
class="s5_179"
>kàn </text>

<text 
x="365" 
y="478" 
dx="0,0.2,0.2,0.2,-0.1,0.2,0.2,0.2,0.2" 
class="s5_179"
>diànyǐng </text>

<text 
x="472" 
y="478" 
dx="0,0.2,0.2" 
class="s5_179"
>ba?</text>

<text 
x="119" 
y="522" 
dx="0,0" 
class="s6_179"
>我们</text>

<text 
x="223" 
y="522" 
dx="0" 
class="s6_179"
>去</text>

<text 
x="290" 
y="522" 
dx="0" 
class="s6_179"
>看</text>

<text 
x="358" 
y="522" 
dx="0,0" 
class="s6_179"
>电影</text>

<text 
x="460" 
y="522" 
dx="0,0" 
class="s6_179"
>吧？</text>

<text 
x="223" 
y="570" 
dx="0,0,0,0,0,0,0,0,0,0,0,0,0,0,0,0,0,-0.3,0,0,-0.6,-0.4,0,0,-0.4,-0.4,0" 
class="s4_179"
>Let’s go see a movie, okay?</text>

<image preserveAspectRatio="none" x="594" y="292" width="237" height="220" xlink:href="179/img/1.png" />
<image preserveAspectRatio="none" x="594" y="512" width="237" height="55" xlink:href="179/img/2.png" />
<image preserveAspectRatio="none" x="108" y="623" width="724" height="437" xlink:href="179/img/3.png" />


<!-- Any embedded fonts defined here -->
<style type="text/css" ><![CDATA[

@font-face {
	font-family: ProximaNova-Bold_c-5;
	src: url("fonts/ProximaNova-Bold_c-5.woff") format("woff");
}

@font-face {
	font-family: Alegreya-Regular_c-8;
	src: url("fonts/Alegreya-Regular_c-8.woff") format("woff");
}

@font-face {
	font-family: ProximaNova-Semibold_c-3;
	src: url("fonts/ProximaNova-Semibold_c-3.woff") format("woff");
}

@font-face {
	font-family: STKaitiSC-Regular_cof;
	src: url("fonts/STKaitiSC-Regular_cof.woff") format("woff");
}

@font-face {
	font-family: ProximaNova-Extrabld_c-a;
	src: url("fonts/ProximaNova-Extrabld_c-a.woff") format("woff");
}

]]></style>

</svg>
