<?xml version="1.0" encoding="UTF-8" standalone="no"?>
<!DOCTYPE svg PUBLIC "-//W3C//DTD SVG 1.1//EN"
"http://www.w3.org/Graphics/SVG/1.1/DTD/svg11.dtd">


<!-- Page 96 -->
<svg x="0" y="0" width="921" height="1196" viewBox="0 0 921 1196" version="1.1" xmlns="http://www.w3.org/2000/svg" xmlns:xlink="http://www.w3.org/1999/xlink"
style="display: block;margin-left: auto;margin-right: auto;">
<defs>

<style type="text/css"><![CDATA[

.g1_96{
fill: none;
stroke: #3986C6;
stroke-width: 1.6194444;
stroke-linecap: butt;
stroke-linejoin: miter;
stroke-miterlimit: 4;
}
.g2_96{
fill: #3986C6;
}

.s1_96{
font-size: 12.99px;
font-family: ProximaNova-Semibold_csu;
fill: #231F20;
}
.s2_96{
font-size: 18.33px;
font-family: ProximaNova-Bold_cs-;
fill: #231F20;
}
.s3_96{
font-size: 19.10px;
font-family: ProximaNova-Bold_cs-;
fill: #3986C6;
}
.s4_96{
font-size: 19.10px;
font-family: Alegreya-Regular_csr;
fill: #231F20;
}
.s5_96{
font-size: 19.10px;
font-family: Alegreya-Bold_csx;
fill: #3986C6;
}
.s6_96{
font-size: 16.04px;
font-family: Alegreya-Medium_cu3;
fill: #231F20;
}

]]></style>

</defs>
<path d="M0,0
L0,1196
L921,1196
L921,0 Z " 
fill="#FFFFFF" stroke="none" />
<text 
transform="matrix(0, 1, -1, 0, 867, 878)"
dx="0,0,0,0,0,0,0,0,0,0" 
class="s1_96"
>Chapter 3 </text>

<text 
transform="matrix(0, 1, -1, 0, 867, 942)"
dx="0,0" 
class="s1_96"
>• </text>

<text 
transform="matrix(0, 1, -1, 0, 867, 954)"
dx="0,-1.4,0,0,0,0,0,0,0,0,0,0,0,0,0,-1.6,0,0,0,0,0,0" 
class="s1_96"
>Tell Me About Yourself</text>

<text 
x="861" 
y="1149" 
dx="0,0" 
class="s2_96"
>73</text>

<path d="M872.3,1089.3l0,38.7" class="g1_96" />
<path d="M872.3,1125.4c-1.5,0,-2.6,1.1,-2.6,2.6c0,1.4,1.1,2.6,2.6,2.6c1.4,0,2.6,-1.2,2.6,-2.6c0,-1.5,-1.2,-2.6,-2.6,-2.6Z" class="g2_96" />
<text 
x="90" 
y="101" 
dx="0,-0.4,0,0,0,0,0,0,0" 
class="s3_96"
>Passage 3</text>

<text 
x="186" 
y="101" 
dx="0,-0.8,0,0,0,0,0,0,0,0,0,0,0,0,0,0,0,0,0,0,0,0,0,0,0,0,0,0,0,0,0,0,0,0,0,0,-0.3,0,0,0,0,0,0,0,0,0,0,0,0,0,-0.4,0,0,0,0,0,0,0,0,0,0,-0.3,0,0,0,0,0,0,0,0,0,0,0,-0.4,-0.4" 
class="s4_96"
>Your mom just bought these outfits for her friend, who has two new babies. </text>

<text 
x="89" 
y="127" 
dx="0,-0.4,-0.2,0,0,0,0,0,0,0,0,0,0,0,0,0,0,0,0,0,0,0,0,0,0,0,-0.3,0,0" 
class="s4_96"
>Are the babies girls or boys?</text>

<text 
x="90" 
y="604" 
dx="0,-0.4,0,0,0,0,0,0,0" 
class="s3_96"
>Passage 4</text>

<text 
x="184" 
y="603" 
dx="0,0,0,0,0,0,0,0,0,0,0,0,0,0,0,0,0,0,0,0,0,0,0,0,0,0,0,-0.2,0,0,0,0,0,0,0,0,0,0,0,0,0,0,0,0,-0.3,0,0,0,0,0,0,0,-0.3,0,0,0,-0.3,0,0,0,0,0,0,0,0,0,0,0,0,0,-0.4" 
class="s4_96"
>Listen to the personal introduction and answer the following questions.</text>

<text 
x="90" 
y="636" 
dx="0,0" 
class="s5_96"
>± </text>

<text 
x="103" 
y="636" 
dx="0,0,0,0,0,0,0,0,0,0,0,0,0,0,-0.4,0,0,0,0,-0.4,-0.3,0,0,0,0,0,0,0,0,0,0,0,0,0,0,0,0" 
class="s4_96"
>Does the speaker have older siblings?</text>

<text 
x="110" 
y="662" 
dx="0,0,0" 
class="s6_96"
>(a)</text>

<text 
x="133" 
y="663" 
dx="0,-0.8,0,-0.4,-0.4,0,0,0,0,0,0,0,0,0,-0.4,0,0,0,0,0,0,0,0,0,0,0,0,0,0,0,0,0,-0.2,0,0,0,0,0,0,0,0,0,0,0,0,0,0,0,0,0,0,0,0,0,0,0,0,-1.5" 
class="s4_96"
>Yes, the speaker has an older brother and an older sister.</text>

<text 
x="110" 
y="688" 
dx="0,0,0" 
class="s6_96"
>(b)</text>

<text 
x="133" 
y="689" 
dx="0,-0.8,0,-0.4,-0.4,0,0,0,0,0,0,0,0,0,-0.4,0,0,0,0,0,0,0,0,0,0,0,0,0,0,0,0,0,-0.2,0,0,0,0,0,0,0,0,0,0,0,-0.3,0,0,0,0,0,0,0,0,0,0,0,0,0,0,-0.4" 
class="s4_96"
>Yes, the speaker has an older brother and two older sisters.</text>

<text 
x="110" 
y="714" 
dx="0,0,0" 
class="s6_96"
>(c)</text>

<text 
x="132" 
y="715" 
dx="0,-0.8,0,-0.4,-0.4,0,0,0,0,0,0,0,0,0,-0.4,0,0,0,0,0,0,0,0,0,0,0,0,0,0,0,0,0,-0.2,0,0,0,0,0,0,0,0,0,0,0,0,0,0,0,0,0,0,0,0,0,0,0,0,-1.5" 
class="s4_96"
>Yes, the speaker has an older brother but no older sister.</text>

<text 
x="90" 
y="754" 
dx="0" 
class="s5_96"
>²</text>

<text 
x="106" 
y="754" 
dx="0,0,0,0,0,0,0,0,0,0,0,0,0,0,-0.4,0,0,0,0,-0.4,-0.3,0,0,-0.3,0,0,0,0,0,0,0,0,0,0,0,0,0,0,0" 
class="s4_96"
>Does the speaker have younger siblings?</text>

<text 
x="110" 
y="780" 
dx="0,0,0,0,0,-0.4,-0.8,-0.4,0,0,0,0,0,0,0,0,0,-0.4,0,0,0,0,0,0,0,0,0,0,0,0,0,-0.4,-0.3,0,0,-0.3,0,0,0,0,0,0,0,0,0,0,0,0,0,0,-0.4" 
class="s4_96"
>(a) No, the speaker does not have younger siblings.</text>

<text 
x="110" 
y="806" 
dx="0,0,0,0,0,-0.8,0,-0.4,-0.4,0,0,0,0,0,0,0,0,0,-0.4,0,0,0,0,0,0,0,0,0,-0.3,0,0,0,0,0,0,0,0,-0.2,0,0,0,0,-1.5" 
class="s4_96"
>(b) Yes, the speaker has a younger brother.</text>

<text 
x="110" 
y="832" 
dx="0,0,0,0,0,-0.8,0,-0.4,-0.4,0,0,0,0,0,0,0,0,0,-0.4,0,0,0,0,0,0,0,0,0,-0.3,0,0,0,0,0,0,0,0,0,0,0,0,-1.5" 
class="s4_96"
>(c) Yes, the speaker has a younger sister.</text>

<text 
x="89" 
y="871" 
dx="0" 
class="s5_96"
>3</text>

<text 
x="105" 
y="871" 
dx="0,-0.2,0,0,0,0,0,-0.4,0,0,0,-0.3,0,0,0,0,0,0,0,0,0,0" 
class="s4_96"
>Who likes watching TV?</text>

<text 
x="110" 
y="896" 
dx="0" 
class="s6_96"
>(</text>

<text 
x="115" 
y="897" 
dx="0,0,0,0,-0.2,0,0,0,0,0,0,0,-0.4,0,0,0,0,0,-0.4,0,0,0,-0.3,0,0,0,0,0,0,0,0,0,-1.9" 
class="s4_96"
>a) The speaker likes watching TV.</text>

<text 
x="110" 
y="923" 
dx="0,0,0,0,0,-0.2,0,0,0,0,0,0,0,-0.4,0,0,0,0,0,0,0,0,0,0,0,0,-0.2,0,0,0,0,0,0,0,0,-0.4,0,0,0,-0.3,0,0,0,0,0,0,0,0,0,-1.9" 
class="s4_96"
>(b) The speaker’s older brother likes watching TV.</text>

<text 
x="110" 
y="949" 
dx="0,0,0,0,0,-0.2,0,0,0,0,0,0,0,-0.4,0,0,0,0,0,0,0,0,0,0,0,-0.4,0,0,0,-0.3,0,0,0,0,0,0,0,0,0,-1.9" 
class="s4_96"
>(c) The speaker’s pet likes watching TV.</text>

<image preserveAspectRatio="none" x="91" y="162" width="103" height="49" xlink:href="96/img/1.png" />
<image preserveAspectRatio="none" x="194" y="162" width="102" height="49" xlink:href="96/img/2.png" />
<image preserveAspectRatio="none" x="296" y="162" width="103" height="49" xlink:href="96/img/3.png" />
<image preserveAspectRatio="none" x="399" y="162" width="103" height="49" xlink:href="96/img/4.png" />
<image preserveAspectRatio="none" x="502" y="162" width="103" height="49" xlink:href="96/img/5.png" />
<image preserveAspectRatio="none" x="604" y="162" width="103" height="49" xlink:href="96/img/6.png" />
<image preserveAspectRatio="none" x="707" y="162" width="103" height="49" xlink:href="96/img/7.png" />
<image preserveAspectRatio="none" x="91" y="211" width="103" height="49" xlink:href="96/img/8.png" />
<image preserveAspectRatio="none" x="194" y="211" width="102" height="49" xlink:href="96/img/9.png" />
<image preserveAspectRatio="none" x="296" y="211" width="103" height="49" xlink:href="96/img/10.png" />
<image preserveAspectRatio="none" x="399" y="211" width="103" height="49" xlink:href="96/img/11.png" />
<image preserveAspectRatio="none" x="502" y="211" width="103" height="49" xlink:href="96/img/12.png" />
<image preserveAspectRatio="none" x="604" y="211" width="103" height="49" xlink:href="96/img/13.png" />
<image preserveAspectRatio="none" x="707" y="211" width="103" height="49" xlink:href="96/img/14.png" />
<image preserveAspectRatio="none" x="91" y="260" width="103" height="49" xlink:href="96/img/15.png" />
<image preserveAspectRatio="none" x="194" y="260" width="102" height="49" xlink:href="96/img/16.png" />
<image preserveAspectRatio="none" x="296" y="260" width="103" height="49" xlink:href="96/img/17.png" />
<image preserveAspectRatio="none" x="399" y="260" width="103" height="49" xlink:href="96/img/18.png" />
<image preserveAspectRatio="none" x="502" y="260" width="103" height="49" xlink:href="96/img/19.png" />
<image preserveAspectRatio="none" x="604" y="260" width="103" height="49" xlink:href="96/img/20.png" />
<image preserveAspectRatio="none" x="707" y="260" width="103" height="49" xlink:href="96/img/21.png" />
<image preserveAspectRatio="none" x="91" y="308" width="103" height="50" xlink:href="96/img/22.png" />
<image preserveAspectRatio="none" x="194" y="308" width="102" height="50" xlink:href="96/img/23.png" />
<image preserveAspectRatio="none" x="296" y="308" width="103" height="50" xlink:href="96/img/24.png" />
<image preserveAspectRatio="none" x="399" y="308" width="103" height="50" xlink:href="96/img/25.png" />
<image preserveAspectRatio="none" x="502" y="308" width="103" height="50" xlink:href="96/img/26.png" />
<image preserveAspectRatio="none" x="604" y="308" width="103" height="50" xlink:href="96/img/27.png" />
<image preserveAspectRatio="none" x="707" y="308" width="103" height="50" xlink:href="96/img/28.png" />
<image preserveAspectRatio="none" x="91" y="357" width="103" height="50" xlink:href="96/img/29.png" />
<image preserveAspectRatio="none" x="194" y="357" width="102" height="50" xlink:href="96/img/30.png" />
<image preserveAspectRatio="none" x="296" y="357" width="103" height="50" xlink:href="96/img/31.png" />
<image preserveAspectRatio="none" x="399" y="357" width="103" height="50" xlink:href="96/img/32.png" />
<image preserveAspectRatio="none" x="502" y="357" width="103" height="50" xlink:href="96/img/33.png" />
<image preserveAspectRatio="none" x="604" y="357" width="103" height="50" xlink:href="96/img/34.png" />
<image preserveAspectRatio="none" x="707" y="357" width="103" height="50" xlink:href="96/img/35.png" />
<image preserveAspectRatio="none" x="91" y="406" width="103" height="50" xlink:href="96/img/36.png" />
<image preserveAspectRatio="none" x="194" y="406" width="102" height="50" xlink:href="96/img/37.png" />
<image preserveAspectRatio="none" x="296" y="406" width="103" height="50" xlink:href="96/img/38.png" />
<image preserveAspectRatio="none" x="399" y="406" width="103" height="50" xlink:href="96/img/39.png" />
<image preserveAspectRatio="none" x="502" y="406" width="103" height="50" xlink:href="96/img/40.png" />
<image preserveAspectRatio="none" x="604" y="406" width="103" height="50" xlink:href="96/img/41.png" />
<image preserveAspectRatio="none" x="707" y="406" width="103" height="50" xlink:href="96/img/42.png" />
<image preserveAspectRatio="none" x="91" y="455" width="103" height="50" xlink:href="96/img/43.png" />
<image preserveAspectRatio="none" x="194" y="455" width="102" height="50" xlink:href="96/img/44.png" />
<image preserveAspectRatio="none" x="296" y="455" width="103" height="50" xlink:href="96/img/45.png" />
<image preserveAspectRatio="none" x="399" y="455" width="103" height="50" xlink:href="96/img/46.png" />
<image preserveAspectRatio="none" x="502" y="455" width="103" height="50" xlink:href="96/img/47.png" />
<image preserveAspectRatio="none" x="604" y="455" width="103" height="50" xlink:href="96/img/48.png" />
<image preserveAspectRatio="none" x="707" y="455" width="103" height="50" xlink:href="96/img/49.png" />
<image preserveAspectRatio="none" x="91" y="504" width="103" height="49" xlink:href="96/img/50.png" />
<image preserveAspectRatio="none" x="194" y="504" width="102" height="49" xlink:href="96/img/51.png" />
<image preserveAspectRatio="none" x="296" y="504" width="103" height="49" xlink:href="96/img/52.png" />
<image preserveAspectRatio="none" x="399" y="504" width="103" height="49" xlink:href="96/img/53.png" />
<image preserveAspectRatio="none" x="502" y="504" width="103" height="49" xlink:href="96/img/54.png" />
<image preserveAspectRatio="none" x="604" y="504" width="103" height="49" xlink:href="96/img/55.png" />
<image preserveAspectRatio="none" x="707" y="504" width="103" height="49" xlink:href="96/img/56.png" />


<!-- Any embedded fonts defined here -->
<style type="text/css" ><![CDATA[

@font-face {
	font-family: ProximaNova-Bold_cs-;
	src: url("fonts/ProximaNova-Bold_cs-.woff") format("woff");
}

@font-face {
	font-family: Alegreya-Medium_cu3;
	src: url("fonts/Alegreya-Medium_cu3.woff") format("woff");
}

@font-face {
	font-family: Alegreya-Bold_csx;
	src: url("fonts/Alegreya-Bold_csx.woff") format("woff");
}

@font-face {
	font-family: Alegreya-Regular_csr;
	src: url("fonts/Alegreya-Regular_csr.woff") format("woff");
}

@font-face {
	font-family: ProximaNova-Semibold_csu;
	src: url("fonts/ProximaNova-Semibold_csu.woff") format("woff");
}

]]></style>

</svg>
