<?xml version="1.0" encoding="UTF-8" standalone="no"?>
<!DOCTYPE svg PUBLIC "-//W3C//DTD SVG 1.1//EN"
"http://www.w3.org/Graphics/SVG/1.1/DTD/svg11.dtd">


<!-- Page 47 -->
<svg x="0" y="0" width="921" height="1196" viewBox="0 0 921 1196" version="1.1" xmlns="http://www.w3.org/2000/svg" xmlns:xlink="http://www.w3.org/1999/xlink"
style="display: block;margin-left: auto;margin-right: auto;">
<defs>

<style type="text/css"><![CDATA[

.g1_47{
fill: none;
stroke: #3986C6;
stroke-width: 1.6194444;
stroke-linecap: butt;
stroke-linejoin: miter;
stroke-miterlimit: 4;
}
.g2_47{
fill: #3986C6;
}
.g3_47{
fill: none;
stroke: #3986C6;
stroke-width: 1.1458334;
stroke-linecap: butt;
stroke-linejoin: miter;
stroke-miterlimit: 4;
}
.g4_47{
fill: #FFFFFF;
}
.g5_47{
fill: none;
stroke: #3986C6;
stroke-width: 1.1458334;
stroke-linecap: butt;
stroke-linejoin: miter;
}
.g6_47{
fill: #ACBF3B;
}
.g7_47{
fill: none;
stroke: #ACBF3B;
stroke-width: 2.2916667;
stroke-linecap: butt;
stroke-linejoin: miter;
stroke-miterlimit: 4;
}

.s1_47{
font-size: 12.99px;
font-family: ProximaNova-Semibold_cot;
fill: #231F20;
}
.s2_47{
font-size: 18.33px;
font-family: ProximaNova-Bold_cnt;
fill: #231F20;
}
.s3_47{
font-size: 18.33px;
font-family: ProximaNova-Bold_cnt;
fill: #3986C6;
}
.s4_47{
font-size: 19.10px;
font-family: Alegreya-Regular_cnx;
fill: #231F20;
}
.s5_47{
font-size: 19.10px;
font-family: Alegreya-Bold_cny;
fill: #3986C6;
}
.s6_47{
font-size: 32.08px;
font-family: STKaitiSC-Regular_cof;
fill: #231F20;
}
.s7_47{
font-size: 19.86px;
font-family: ProximaNova-Bold_cnt;
fill: #231F20;
}
.s8_47{
font-size: 18.33px;
font-family: ProximaNova-Extrabld_coa;
fill: #FFFFFF;
}

]]></style>

</defs>
<path d="M0,0
L0,1196
L921,1196
L921,0 Z " 
fill="#FFFFFF" stroke="none" />
<text 
transform="matrix(0, -1, 1, 0, 54, 1084)"
dx="0,0,0,0,0,0,0,0,0,0,0,0,0,0,0,0,0,0,0" 
class="s1_47"
>Go Far with Chinese</text>

<text 
x="38" 
y="1149" 
dx="0,0" 
class="s2_47"
>24</text>

<path d="M50.4,1089.3l0,38.7" class="g1_47" />
<path d="M50.4,1125.4c-1.4,0,-2.5,1.1,-2.5,2.6c0,1.4,1.1,2.6,2.5,2.6c1.5,0,2.6,-1.2,2.6,-2.6c0,-1.5,-1.1,-2.6,-2.6,-2.6Z" class="g2_47" />
<text 
x="110" 
y="102" 
dx="0,-0.4,0,0,0,0,0,0,0" 
class="s3_47"
>Passage 3</text>

<text 
x="204" 
y="102" 
dx="0,-0.6,0,0,0,0,0,0,0,0,0,0,0,0,0,0,0,-0.6,-0.4,0,-0.4,-0.2,0,0,0,0,0,0,0,0,0,0,0,0,0,0,0,0,0,0,0,0,0,0,-0.3,0,0,0,-0.3,0,0,0,0,0,0,0,0,0,0,0,0,0,0,-0.2,0,0,0,0,0,0,0,0" 
class="s4_47"
>Read the dialogue. Are the statements that follow true (T) or false (F)?</text>

<text 
x="116" 
y="156" 
dx="0,-0.6,0,0,0,0,0,0" 
class="s5_47"
>Person A</text>

<text 
x="215" 
y="160" 
dx="0,0,0" 
class="s6_47"
>你好！</text>

<text 
x="116" 
y="205" 
dx="0,-0.6,0,0,0,0,0,0" 
class="s5_47"
>Person B</text>

<text 
x="215" 
y="209" 
dx="0,0,0,0,0,0,0,0,0" 
class="s6_47"
>你好！你是学生吗？</text>

<text 
x="116" 
y="256" 
dx="0,-0.6,0,0,0,0,0,0" 
class="s5_47"
>Person A</text>

<text 
x="215" 
y="260" 
dx="0,0,0,0,0,0,0,0,0,0,0" 
class="s6_47"
>我不是学生。我是老师。</text>

<path d="M109.5,395.6l0,-60.5l323.6,0" class="g3_47" />
<path d="M433.1,337.8c1.5,0,2.7,-1.2,2.7,-2.7c0,-1.6,-1.2,-2.8,-2.7,-2.8c-1.6,0,-2.8,1.2,-2.8,2.8c0,1.5,1.2,2.7,2.8,2.7Z" class="g2_47" />
<path d="M403.7,326.7c5.5,10.7,1.2,23.9,-9.5,29.3c-10.8,5.5,-23.9,1.3,-29.4,-9.5c-5.5,-10.7,-1.2,-23.9,9.5,-29.3c10.8,-5.5,23.9,-1.3,29.4,9.5Z" class="g4_47" />
<path d="M403.7,326.7c5.5,10.7,1.2,23.9,-9.5,29.3c-10.8,5.5,-23.9,1.3,-29.4,-9.5c-5.5,-10.7,-1.2,-23.9,9.5,-29.3c10.8,-5.5,23.9,-1.3,29.4,9.5Z" class="g5_47" />
<path d="M411.3,314.8c-1.2,-1,-3,-0.7,-4.1,0.6l-20.5,24.4c-1.1,1.3,-3,1.4,-4.2,0.2l-2.9,-2.9c-1.3,-1.2,-3.1,-1.3,-4.2,-0.2c-1.1,1.1,-1,3,0.2,4.2l7.3,7.1c1.2,1.2,3.1,1.1,4.2,-0.2l24.4,-29c1.1,-1.3,1,-3.2,-0.2,-4.2Z" class="g6_47" />
<text 
x="491" 
y="358" 
dx="0" 
class="s5_47"
>T</text>

<text 
x="532" 
y="358" 
dx="0" 
class="s5_47"
>F</text>

<text 
x="132" 
y="396" 
dx="0" 
class="s5_47"
>1</text>

<text 
x="156" 
y="396" 
dx="0,-0.9,0,0,0,0,0,0,0,0,0,0,0,0,0,0,0,0,-0.9,0,0,0,0,0,0,0,0,0,0,0,0,0,0,0,0,0,0,0,-1.5" 
class="s4_47"
>Person B asks if Person A is a teacher.</text>

<path d="M496.5,399.3c5.8,0,10.5,-4.7,10.5,-10.5c0,-5.8,-4.7,-10.4,-10.5,-10.4c-5.8,0,-10.4,4.6,-10.4,10.4c0,5.8,4.6,10.5,10.4,10.5Z" class="g7_47" />
<path d="M537.5,399.3c5.8,0,10.5,-4.7,10.5,-10.5c0,-5.8,-4.7,-10.4,-10.5,-10.4c-5.8,0,-10.5,4.6,-10.5,10.4c0,5.8,4.7,10.5,10.5,10.5Z" class="g7_47" />
<text 
x="132" 
y="438" 
dx="0" 
class="s5_47"
>2</text>

<text 
x="156" 
y="438" 
dx="0,-0.9,0,0,0,0,0,0,0,0,0,0,0,0,0,0,0,0,0,0,0,-1.5" 
class="s4_47"
>Person A is a teacher.</text>

<path d="M496.5,440.6c5.8,0,10.5,-4.7,10.5,-10.5c0,-5.8,-4.7,-10.5,-10.5,-10.5c-5.8,0,-10.4,4.7,-10.4,10.5c0,5.8,4.6,10.5,10.4,10.5Z" class="g7_47" />
<path d="M537.5,440.6c5.8,0,10.5,-4.7,10.5,-10.5c0,-5.8,-4.7,-10.5,-10.5,-10.5c-5.8,0,-10.5,4.7,-10.5,10.5c0,5.8,4.7,10.5,10.5,10.5Z" class="g7_47" />
<path d="M124.8,348.4l214.1,0l0,-24.3l-214.1,0l0,24.3Z" class="g4_47" />
<text 
x="125" 
y="339" 
dx="0,0,0,0,0,0,0,0,0,0,0,0,0,0,0,0,0,0,0" 
class="s7_47"
>Comprehension Check</text>

<image preserveAspectRatio="none" x="110" y="558" width="340" height="243" xlink:href="47/img/1.png" />
<image preserveAspectRatio="none" x="495" y="558" width="340" height="243" xlink:href="47/img/2.png" />
<image preserveAspectRatio="none" x="302" y="859" width="340" height="243" xlink:href="47/img/3.png" />
<text 
x="111" 
y="500" 
dx="0,-0.4,0,0,0,0,0,0,0" 
class="s3_47"
>Passage 4</text>

<text 
x="205" 
y="500" 
dx="0,0,0,0,0,0,0,0,0,0,0,0,0,0,0,-0.2,0,-0.3,0,-0.2,0,0,0,0,0,0,0,0,0,0,0,0,0,0,0,0,0,0,0,0,0,0,0,0,0,0,0,0,0,0,0,0,0,0,0,0,0,0,0,0,0,0,0,0,0,0,0,0,0,0,0,0,0,0,0,0,0,0" 
class="s4_47"
>Listen to the recording and select the image that best matches the meaning of </text>

<text 
x="111" 
y="526" 
dx="0,0,0,0,0,0,0,0,0,0,0,0,-0.3,-0.6" 
class="s4_47"
>each sentence.</text>

<path d="M275.7,830.1c0,0,-9.2,0,-9.2,-9.1l0,-15.1l16.1,0c0,0,9.1,0,9.1,9.1l0,15.1Z" class="g6_47" />
<path d="M660.7,830.1c0,0,-9.2,0,-9.2,-9.1l0,-15.1l16.1,0c0,0,9.1,0,9.1,9.1l0,15.1Z" class="g6_47" />
<path d="M467.9,1133.4c0,0,-9.2,0,-9.2,-9.2l0,-15.1l16.1,0c0,0,9.1,0,9.1,9.1l0,15.2Z" class="g6_47" />
<text 
x="272" 
y="824" 
dx="0" 
class="s8_47"
>a</text>

<text 
x="657" 
y="824" 
dx="0" 
class="s8_47"
>B</text>

<text 
x="464" 
y="1128" 
dx="0" 
class="s8_47"
>c</text>



<!-- Any embedded fonts defined here -->
<style type="text/css" ><![CDATA[

@font-face {
	font-family: ProximaNova-Extrabld_coa;
	src: url("fonts/ProximaNova-Extrabld_coa.woff") format("woff");
}

@font-face {
	font-family: Alegreya-Regular_cnx;
	src: url("fonts/Alegreya-Regular_cnx.woff") format("woff");
}

@font-face {
	font-family: STKaitiSC-Regular_cof;
	src: url("fonts/STKaitiSC-Regular_cof.woff") format("woff");
}

@font-face {
	font-family: Alegreya-Bold_cny;
	src: url("fonts/Alegreya-Bold_cny.woff") format("woff");
}

@font-face {
	font-family: ProximaNova-Bold_cnt;
	src: url("fonts/ProximaNova-Bold_cnt.woff") format("woff");
}

@font-face {
	font-family: ProximaNova-Semibold_cot;
	src: url("fonts/ProximaNova-Semibold_cot.woff") format("woff");
}

]]></style>

</svg>
