<?xml version="1.0" encoding="UTF-8" standalone="no"?>
<!DOCTYPE svg PUBLIC "-//W3C//DTD SVG 1.1//EN"
"http://www.w3.org/Graphics/SVG/1.1/DTD/svg11.dtd">


<!-- Page 118 -->
<svg x="0" y="0" width="921" height="1196" viewBox="0 0 921 1196" version="1.1" xmlns="http://www.w3.org/2000/svg" xmlns:xlink="http://www.w3.org/1999/xlink"
style="display: block;margin-left: auto;margin-right: auto;">
<defs>

<style type="text/css"><![CDATA[

.g1_118{
fill: none;
stroke: #3986C6;
stroke-width: 1.6194444;
stroke-linecap: butt;
stroke-linejoin: miter;
stroke-miterlimit: 4;
}
.g2_118{
fill: #3986C6;
}
.g3_118{
fill: none;
stroke: #3986C6;
stroke-width: 1.1458334;
stroke-linecap: butt;
stroke-linejoin: miter;
}
.g4_118{
fill: #ACBF3B;
}

.s1_118{
font-size: 18.33px;
font-family: ProximaNova-Bold_cur;
fill: #231F20;
}
.s2_118{
font-size: 12.99px;
font-family: ProximaNova-Semibold_cuk;
fill: #231F20;
}
.s3_118{
font-size: 25.97px;
font-family: ProximaNova-Bold_cur;
fill: #FFFFFF;
}
.s4_118{
font-size: 25.97px;
font-family: ProximaNova-Bold_cur;
fill: #231F20;
}
.s5_118{
font-size: 13.75px;
font-family: ProximaNova-Extrabld_cuq;
fill: #FFFFFF;
}
.s6_118{
font-size: 19.10px;
font-family: Alegreya-Regular_cus;
fill: #231F20;
}
.s7_118{
font-size: 18.33px;
font-family: ProximaNova-Bold_cur;
fill: #3986C6;
}
.s8_118{
font-size: 19.10px;
font-family: Alegreya-Bold_cuj;
fill: #3986C6;
}
.s9_118{
font-size: 32.08px;
font-family: STKaitiSC-Regular_cof;
fill: #231F20;
}
.s10_118{
font-size: 32.08px;
font-family: STKaitiSC-Regular_cv1;
fill: #3986C6;
}
.s11_118{
font-size: 22.92px;
font-family: STKaitiSC-Bold_cmk;
fill: #231F20;
}

]]></style>

</defs>
<path d="M0,0
L0,1196
L921,1196
L921,0 Z " 
fill="#FFFFFF" stroke="none" />
<text 
x="861" 
y="1149" 
dx="0,0" 
class="s1_118"
>95</text>

<path d="M872.3,1089.3l0,38.7" class="g1_118" />
<path d="M872.3,1125.4c-1.5,0,-2.6,1.1,-2.6,2.6c0,1.4,1.1,2.6,2.6,2.6c1.4,0,2.6,-1.2,2.6,-2.6c0,-1.5,-1.2,-2.6,-2.6,-2.6Z" class="g2_118" />
<text 
transform="matrix(0, 1, -1, 0, 867, 757)"
dx="0,0,0,0,0,0,0,0,0,0" 
class="s2_118"
>Chapter 4 </text>

<text 
transform="matrix(0, 1, -1, 0, 867, 821)"
dx="0,0,0,0,0,0,0,0,0,0,0,0,0,0,0,0,0,0,0,0,0,0,0,0,0,0,0,0,0,0,0,0" 
class="s2_118"
>• Goodbye America, Hello China! </text>

<text 
transform="matrix(0, 1, -1, 0, 867, 1017)"
dx="0,0" 
class="s2_118"
>• </text>

<text 
transform="matrix(0, 1, -1, 0, 867, 1029)"
dx="0,0,0,0,0,0,0,0,0" 
class="s2_118"
>Section 3</text>

<path d="M107.9,120.9c-10.1,0,-18.3,-8.2,-18.3,-18.3l0,-20.2l23.1,0c10.2,0,18.4,8.2,18.4,18.3l0,20.2Z" class="g2_118" />
<path d="M100.6,82.9l359,0" class="g3_118" />
<path d="M114.3,120.4l345.3,0" class="g3_118" />
<text 
x="99" 
y="109" 
dx="0,0,0" 
class="s3_118"
>3c </text>

<text 
x="141" 
y="109" 
dx="0,0,0,0,0,0,0,0,0,0,0,0,0,0" 
class="s4_118"
>Puzzle It Out </text>

<path d="M315.9,113.6c-6,0,-10.9,-4.8,-10.9,-10.8l0,-10.9l142,0c6,0,10.9,4.8,10.9,10.9l0,10.8Z" class="g4_118" />
<text 
x="321" 
y="107" 
dx="0,0,0,0,0,0,0,0,0,0,0,0,0,0" 
class="s5_118"
>Pr²Gre±± CheCK</text>

<text 
x="89" 
y="159" 
dx="0,-0.4,0,0,0,0,0,0,0,0,0,0,0,0,-0.4,-0.4,0,-0.2,0,0,0,0,0,0,0,0,0,-0.3,0,0,0,0,0,0,0,0,0,0,0,-0.3,0,0,0,0,0,0,0,0,0,0,0,0,0,0,0,0,0,0,0,0,0,0,0,0,0,0,-0.3,0,0,0,0,0,0,0,0,0,0,0,0,0,0,-0.4,0,0,0,0,0,0,0,0,-0.4" 
class="s6_118"
>Complete the exercises below to check your understanding of what you learned in Section 3. </text>

<text 
x="89" 
y="185" 
dx="0,0,0,0,-0.3,0,0,0,0,-0.4,-0.3,0,0,0,0,0,0,0,0,0,0,-0.4,-0.4,0,-0.3,0,0,0,0,0,0,0,0,0,0,0,0,0,0,0,0,0,0,0,0,-0.6,0,-0.3,0,-0.2,0,0,-0.3,0,0,0,0,0,0,0,0,0" 
class="s6_118"
>If you have questions, consult the Language Reference section.</text>

<text 
x="90" 
y="239" 
dx="0,0,-0.4,0,0,0,0,0,0,0" 
class="s7_118"
>Exercise 1</text>

<text 
x="175" 
y="239" 
dx="0,-0.2,0,-0.4,0,0,-0.3,0,0,-0.2,0,0,0,0,0,0,0,0,0,0,-0.3,0,0,0,-0.3,0,0,-0.2,0,0,0,-0.2,0,0,0,0,0,0,0,0,0,0,0,-0.3,0,-0.2,0,0,0,0,0,0,0,0,0,0,0,-0.2,-0.3,-1.3" 
class="s6_118"
>Make correct sentences by rearranging the words in each row.</text>

<text 
x="90" 
y="296" 
dx="0" 
class="s8_118"
>1</text>

<text 
x="119" 
y="299" 
dx="0,0" 
class="s9_118"
>在 </text>

<text 
x="159" 
y="299" 
dx="0" 
class="s10_118"
>|</text>

<text 
x="183" 
y="299" 
dx="0,0" 
class="s9_118"
>你 </text>

<text 
x="223" 
y="299" 
dx="0" 
class="s10_118"
>|</text>

<text 
x="247" 
y="299" 
dx="0,0,0" 
class="s9_118"
>吗？ </text>

<text 
x="319" 
y="299" 
dx="0" 
class="s10_118"
>|</text>

<text 
x="343" 
y="299" 
dx="0" 
class="s9_118"
>家</text>

<text 
x="90" 
y="354" 
dx="0" 
class="s8_118"
>2</text>

<text 
x="119" 
y="356" 
dx="0,0,0" 
class="s9_118"
>朋友 </text>

<text 
x="191" 
y="356" 
dx="0" 
class="s10_118"
>|</text>

<text 
x="215" 
y="356" 
dx="0,0" 
class="s9_118"
>在 </text>

<text 
x="255" 
y="356" 
dx="0" 
class="s10_118"
>|</text>

<text 
x="279" 
y="356" 
dx="0,0" 
class="s9_118"
>他 </text>

<text 
x="319" 
y="356" 
dx="0" 
class="s10_118"
>|</text>

<text 
x="343" 
y="356" 
dx="0,0,0" 
class="s9_118"
>北京。</text>

<text 
x="89" 
y="411" 
dx="0" 
class="s8_118"
>3</text>

<text 
x="119" 
y="414" 
dx="0,0" 
class="s9_118"
>不 </text>

<text 
x="159" 
y="414" 
dx="0" 
class="s10_118"
>|</text>

<text 
x="183" 
y="414" 
dx="0,0,0" 
class="s9_118"
>我们 </text>

<text 
x="255" 
y="414" 
dx="0" 
class="s10_118"
>|</text>

<text 
x="279" 
y="414" 
dx="0,0,0" 
class="s9_118"
>中国。</text>

<text 
x="375" 
y="414" 
dx="0" 
class="s10_118"
>|</text>

<text 
x="399" 
y="414" 
dx="0" 
class="s9_118"
>在</text>

<text 
x="89" 
y="468" 
dx="0" 
class="s8_118"
>4</text>

<text 
x="119" 
y="471" 
dx="0,0,0" 
class="s9_118"
>哥哥 </text>

<text 
x="191" 
y="471" 
dx="0" 
class="s10_118"
>|</text>

<text 
x="215" 
y="471" 
dx="0,0" 
class="s9_118"
>在 </text>

<text 
x="255" 
y="471" 
dx="0" 
class="s10_118"
>|</text>

<text 
x="279" 
y="471" 
dx="0,0,0" 
class="s9_118"
>哪儿？</text>

<text 
x="383" 
y="471" 
dx="0" 
class="s10_118"
>|</text>

<text 
x="407" 
y="471" 
dx="0" 
class="s9_118"
>你</text>

<text 
x="90" 
y="525" 
dx="0" 
class="s8_118"
>5</text>

<text 
x="119" 
y="528" 
dx="0,0" 
class="s9_118"
>她 </text>

<text 
x="159" 
y="528" 
dx="0" 
class="s10_118"
>|</text>

<text 
x="183" 
y="528" 
dx="0,0,0" 
class="s9_118"
>这个 </text>

<text 
x="255" 
y="528" 
dx="0" 
class="s10_118"
>|</text>

<text 
x="279" 
y="528" 
dx="0,0,0" 
class="s9_118"
>美国。</text>

<text 
x="375" 
y="528" 
dx="0" 
class="s10_118"
>|</text>

<text 
x="399" 
y="528" 
dx="0,0,0" 
class="s9_118"
>星期 </text>

<text 
x="472" 
y="528" 
dx="0" 
class="s10_118"
>|</text>

<text 
x="496" 
y="528" 
dx="0" 
class="s9_118"
>在</text>

<text 
x="89" 
y="619" 
dx="0,0,-0.4,0,0,0,0,0,0,0" 
class="s7_118"
>Exercise 2</text>

<text 
x="178" 
y="619" 
dx="0,-0.2,0,0,-0.2,0,0,0,0,0,0,0,0,0,-0.3,0,0,0,-0.3,0,0,0,0,0,0,0,0,0,0,0,-0.3,0,0,0,-0.2,0,0" 
class="s6_118"
>Where in the following sentences can </text>

<text 
x="469" 
y="621" 
dx="0,0" 
class="s11_118"
>现在</text>

<text 
x="519" 
y="619" 
dx="0,0,0,0,0,0,0,0,0" 
class="s6_118"
>be added?</text>

<text 
x="89" 
y="675" 
dx="0,0" 
class="s8_118"
>1 </text>

<text 
x="118" 
y="678" 
dx="0" 
class="s9_118"
>我</text>

<text 
x="158" 
y="675" 
dx="0,0,0" 
class="s6_118"
>(1)</text>

<text 
x="183" 
y="678" 
dx="0,0,0" 
class="s9_118"
>在美国</text>

<text 
x="288" 
y="675" 
dx="0,0,0" 
class="s6_118"
>(2)</text>

<text 
x="307" 
y="678" 
dx="0" 
class="s9_118"
>。</text>

<text 
x="121" 
y="707" 
dx="0,0,0,0" 
class="s6_118"
>(a) </text>

<text 
x="144" 
y="709" 
dx="0,0" 
class="s11_118"
>现在</text>

<text 
x="193" 
y="707" 
dx="0,-0.2,0,0,0,0,0,0,0,0,0,0,0,0,0,0,0,0,0,0,0,0,-0.2,0,0,0,0,0,0,0,-0.4" 
class="s6_118"
>can only be added where (1) is.</text>

<text 
x="121" 
y="740" 
dx="0,0,0,0" 
class="s6_118"
>(b) </text>

<text 
x="145" 
y="742" 
dx="0,0" 
class="s11_118"
>现在</text>

<text 
x="194" 
y="740" 
dx="0,-0.2,0,0,0,0,0,0,0,0,0,0,0,0,0,0,0,0,0,0,0,0,-0.2,0,0,0,0,0,0,0,-0.4" 
class="s6_118"
>can only be added where (2) is.</text>

<text 
x="89" 
y="798" 
dx="0,0" 
class="s8_118"
>2 </text>

<text 
x="118" 
y="801" 
dx="0" 
class="s9_118"
>她</text>

<text 
x="158" 
y="798" 
dx="0,0,0" 
class="s6_118"
>(1)</text>

<text 
x="183" 
y="801" 
dx="0,0" 
class="s9_118"
>妹妹</text>

<text 
x="256" 
y="798" 
dx="0,0,0" 
class="s6_118"
>(2)</text>

<text 
x="283" 
y="801" 
dx="0,0,0,0" 
class="s9_118"
>在北京。</text>

<text 
x="121" 
y="830" 
dx="0,0,0,0" 
class="s6_118"
>(a) </text>

<text 
x="144" 
y="832" 
dx="0,0" 
class="s11_118"
>现在</text>

<text 
x="193" 
y="830" 
dx="0,-0.2,0,0,0,0,0,0,0,0,0,0,0,0,0,0,0,-0.2,0,0,0,0,0,0,0,-0.4" 
class="s6_118"
>can be added where (1) is.</text>

<text 
x="121" 
y="863" 
dx="0,0,0,0" 
class="s6_118"
>(b) </text>

<text 
x="145" 
y="865" 
dx="0,0" 
class="s11_118"
>现在</text>

<text 
x="194" 
y="863" 
dx="0,-0.2,0,0,0,0,0,0,0,0,0,0,0,0,0,0,0,-0.2,0,0,0,0,0,0,0,-0.4" 
class="s6_118"
>can be added where (2) is.</text>

<text 
x="89" 
y="921" 
dx="0,0" 
class="s8_118"
>3 </text>

<text 
x="118" 
y="921" 
dx="0,0,0" 
class="s6_118"
>(1)</text>

<text 
x="143" 
y="924" 
dx="0,0" 
class="s9_118"
>他们</text>

<text 
x="215" 
y="921" 
dx="0,0,0" 
class="s6_118"
>(2)</text>

<text 
x="243" 
y="924" 
dx="0,0,0" 
class="s9_118"
>在家。</text>

<text 
x="121" 
y="953" 
dx="0,0,0,0" 
class="s6_118"
>(a) </text>

<text 
x="144" 
y="955" 
dx="0,0" 
class="s11_118"
>现在</text>

<text 
x="193" 
y="953" 
dx="0,-0.2,0,0,0,0,0,0,0,0,0,0,0,0,0,0,0,0,0,0,0,0,-0.2,0,0,0,0,0,0,0,-0.4" 
class="s6_118"
>can only be added where (1) is.</text>

<text 
x="121" 
y="986" 
dx="0,0,0,0" 
class="s6_118"
>(b) </text>

<text 
x="145" 
y="988" 
dx="0,0" 
class="s11_118"
>现在</text>

<text 
x="194" 
y="986" 
dx="0,-0.2,0,0,0,0,0,0,0,0,0,0,0,0,0,0,0,0,0,0,0,0,0,0,-0.2,0,0,0,0,0,0,0,0,0,0,0,0,0,0,0,-0.2,0,0,0,0,0,0,0,-0.4" 
class="s6_118"
>can be added either where (1) is or where (2) is.</text>



<!-- Any embedded fonts defined here -->
<style type="text/css" ><![CDATA[

@font-face {
	font-family: STKaitiSC-Bold_cmk;
	src: url("fonts/STKaitiSC-Bold_cmk.woff") format("woff");
}

@font-face {
	font-family: ProximaNova-Bold_cur;
	src: url("fonts/ProximaNova-Bold_cur.woff") format("woff");
}

@font-face {
	font-family: Alegreya-Bold_cuj;
	src: url("fonts/Alegreya-Bold_cuj.woff") format("woff");
}

@font-face {
	font-family: ProximaNova-Extrabld_cuq;
	src: url("fonts/ProximaNova-Extrabld_cuq.woff") format("woff");
}

@font-face {
	font-family: ProximaNova-Semibold_cuk;
	src: url("fonts/ProximaNova-Semibold_cuk.woff") format("woff");
}

@font-face {
	font-family: Alegreya-Regular_cus;
	src: url("fonts/Alegreya-Regular_cus.woff") format("woff");
}

@font-face {
	font-family: STKaitiSC-Regular_cof;
	src: url("fonts/STKaitiSC-Regular_cof.woff") format("woff");
}

@font-face {
	font-family: STKaitiSC-Regular_cv1;
	src: url("fonts/STKaitiSC-Regular_cv1.woff") format("woff");
}

]]></style>

</svg>
