<?xml version="1.0" encoding="UTF-8" standalone="no"?>
<!DOCTYPE svg PUBLIC "-//W3C//DTD SVG 1.1//EN"
"http://www.w3.org/Graphics/SVG/1.1/DTD/svg11.dtd">


<!-- Page 207 -->
<svg x="0" y="0" width="921" height="1196" viewBox="0 0 921 1196" version="1.1" xmlns="http://www.w3.org/2000/svg" xmlns:xlink="http://www.w3.org/1999/xlink"
style="display: block;margin-left: auto;margin-right: auto;">
<defs>

<style type="text/css"><![CDATA[

.g1_207{
fill: none;
stroke: #3986C6;
stroke-width: 1.6194444;
stroke-linecap: butt;
stroke-linejoin: miter;
stroke-miterlimit: 4;
}
.g2_207{
fill: #3986C6;
}
.g3_207{
fill: none;
stroke: #3986C6;
stroke-width: 1.1458334;
stroke-linecap: butt;
stroke-linejoin: miter;
}
.g4_207{
fill: #ACBF3B;
}
.g5_207{
fill: #DCDDDF;
}
.g6_207{
fill: none;
stroke: #939598;
stroke-width: 0.38194445;
stroke-linecap: butt;
stroke-linejoin: miter;
}
.g7_207{
fill: none;
stroke: #D1D2D4;
stroke-width: 0.38194445;
stroke-linecap: butt;
stroke-linejoin: miter;
}
.g8_207{
fill: none;
stroke: #D9ECD4;
stroke-width: 0.38194445;
stroke-linecap: butt;
stroke-linejoin: miter;
}
.g9_207{
fill: none;
stroke: #939598;
stroke-width: 0.7638889;
stroke-linecap: butt;
stroke-linejoin: miter;
}
.g10_207{
fill: #E2E3E5;
}
.g11_207{
fill: none;
stroke: #ED692E;
stroke-width: 1.5277778;
stroke-linecap: butt;
stroke-linejoin: miter;
stroke-miterlimit: 4;
}
.g12_207{
fill: #ED692E;
}
.g13_207{
fill: none;
stroke: #3986C6;
stroke-width: 1.5277778;
stroke-linecap: butt;
stroke-linejoin: miter;
stroke-miterlimit: 4;
}

.s1_207{
font-size: 12.99px;
font-family: ProximaNova-Semibold_cot;
fill: #231F20;
}
.s2_207{
font-size: 18.33px;
font-family: ProximaNova-Bold_d1q;
fill: #231F20;
}
.s3_207{
font-size: 19.10px;
font-family: Alegreya-Regular_d1o;
fill: #231F20;
}
.s4_207{
font-size: 19.10px;
font-family: Alegreya-Bold_d1h;
fill: #3986C6;
}
.s5_207{
font-size: 22.92px;
font-family: STKaitiSC-Bold_cmk;
fill: #231F20;
}
.s6_207{
font-size: 25.97px;
font-family: ProximaNova-Bold_d1q;
fill: #FFFFFF;
}
.s7_207{
font-size: 25.97px;
font-family: ProximaNova-Bold_d1q;
fill: #231F20;
}
.s8_207{
font-size: 24.44px;
font-family: ProximaNova-Bold_d1q;
fill: #231F20;
}
.s9_207{
font-size: 13.75px;
font-family: ProximaNova-Extrabld_d1l;
fill: #FFFFFF;
}
.s10_207{
font-size: 16.04px;
font-family: Alegreya-Regular_d1o;
fill: #231F20;
}
.s11_207{
font-size: 19.10px;
font-family: Alegreya-Bold_d1h;
fill: #231F20;
}
.s12_207{
font-size: 32.08px;
font-family: STKaitiSC-Regular_cof;
fill: #231F20;
}
.s13_207{
font-size: 16.81px;
font-family: ProximaNovaCond-Extrabld_d1z;
fill: #231F20;
}
.s14_207{
font-size: 22.92px;
font-family: ProximaNova-Extrabld_d1l;
fill: #ED692E;
}
.s15_207{
font-size: 12.22px;
font-family: ProximaNova-Extrabld_d1l;
fill: #ED692E;
}
.s16_207{
font-size: 12.22px;
font-family: ProximaNova-Semibold_d1j;
fill: #565B6E;
}

]]></style>

</defs>
<path d="M0,0
L0,1196
L921,1196
L921,0 Z " 
fill="#FFFFFF" stroke="none" />
<text 
transform="matrix(0, -1, 1, 0, 54, 1084)"
dx="0,0,0,0,0,0,0,0,0,0,0,0,0,0,0,0,0,0,0" 
class="s1_207"
>Go Far with Chinese</text>

<text 
x="34" 
y="1149" 
dx="0,0,0" 
class="s2_207"
>184</text>

<path d="M50.4,1089.3l0,38.7" class="g1_207" />
<path d="M50.4,1125.4c-1.4,0,-2.5,1.1,-2.5,2.6c0,1.4,1.1,2.6,2.5,2.6c1.5,0,2.6,-1.2,2.6,-2.6c0,-1.5,-1.1,-2.6,-2.6,-2.6Z" class="g2_207" />
<text 
x="109" 
y="504" 
dx="0,0,0,0,-0.3,0,0,0,-0.4,0,0,0,0,-0.3,0,0,0,0,-0.3,0,0,-0.4,0,0,0,0,0,0,0,0,0,-0.4,0,0,0,0,0,0,0,-0.3,0,0,0,0,0,0,0,0,0,0,0,0,0,0,-0.4,0,0,0,0,0,0,0,0,0,0,0,0,0,0,-0.2,0,0,0,0,0,0,0,0,0,0,-0.3,0,0,0" 
class="s3_207"
>Do you keep your weekends open, or do you schedule many activities? What about your </text>

<text 
x="110" 
y="530" 
dx="0,0,0,0,0,0,0,0,0,0,0,0" 
class="s3_207"
>classmates? </text>

<text 
x="110" 
y="563" 
dx="0,0,0,0,0,0,0,0" 
class="s4_207"
>Step 1: </text>

<text 
x="164" 
y="563" 
dx="0,0,0,0,0,0,0,0,0,0,-0.2,0,0,0,0,0,0,0,-0.3,0,0,0,0,0,0,0,0,0,-1.5,-0.4,0,0,0,0,0,0,0,0,0,0,0,-0.3,0,0,0,0,0,0,0,0,0,0,0,0,0,-0.3,0,0,0,0,0,0,0,0,0,0,0,0,0,0,-0.4,-0.4,0,0,0,0,0,0,0,0,0,0,-0.4,-0.4" 
class="s3_207"
>On a separate piece of paper, write out your schedule for the mornings, afternoons, </text>

<text 
x="165" 
y="591" 
dx="0,0,0,0,0,0,-0.3,0,0,0,0,0,0,0,-0.3,0,0,0,0,0,0,0,-0.3,0,0,0,0,0,0,-0.3,0,0,-0.4,0,0,0,-0.4,0,-0.8,0,0,0,0" 
class="s3_207"
>and evenings for the coming weekend. Write </text>

<text 
x="515" 
y="590" 
dx="0,0" 
class="s5_207"
>有事</text>

<text 
x="564" 
y="591" 
dx="0,0,0,0,-0.3,0,0,0,0,-0.4,-0.3,0,0,0,0,0,0,0,0,0,0,0,0,0,0,0,0,0,0,0,0,0,0" 
class="s3_207"
>if you have activities scheduled </text>

<text 
x="164" 
y="617" 
dx="0,0,0,0,0,0,0,-1.5,0,0,0,0,0,-0.3,0,0,0,-0.3,0,0,0,0,0,0,-0.4,0,0,0,0,0,0,0,0,0,0,0,0,0,0,0,0,-0.6,-0.4,0,-0.8,0,0,0,0" 
class="s3_207"
>but don’t know how to say them in Chinese. Write </text>

<text 
x="552" 
y="616" 
dx="0,0,0" 
class="s5_207"
>没有事</text>

<text 
x="625" 
y="617" 
dx="0,0,0" 
class="s3_207"
>or </text>

<text 
x="645" 
y="616" 
dx="0,0" 
class="s5_207"
>有空</text>

<text 
x="695" 
y="617" 
dx="0,0,0,0,-0.3,0,0,0,0,-0.4,-0.3,0,0,0,0" 
class="s3_207"
>if you have no </text>

<text 
x="165" 
y="641" 
dx="0,0,0,0,0,0,0,0,0,0,0,0,0,0,0,0,0,0,0,0,-0.3,0,0,0,0,0,0,0,0,0,0,0,-0.6" 
class="s3_207"
>activities planned for that time.</text>

<text 
x="110" 
y="674" 
dx="0,0,0,0,0,0,0" 
class="s4_207"
>Step 2:</text>

<text 
x="167" 
y="674" 
dx="0,-0.2,0,0,0,-0.2,0,0,0,-0.4,-0.4,0,0,0,0,0,-0.3,0,0,0,0,0,0,0,0,0,0,0,0,0,0,0,0,0,0,0,0,0,0,0,0,0,0,0,-0.3,0,0,-0.4,0,0,0,0,0,0,0,0,0,0,0,0,0,0,0,0,-0.4,0,0,0,0,0,0,-0.4,-0.4,0,-0.4,-0.2,0,0,0,0,0,-0.2,0" 
class="s3_207"
>In groups, ask your classmates about their weekend plans and take notes. Are there </text>

<text 
x="167" 
y="700" 
dx="0,0,-0.4,0,0,0,-0.4,0,0,0,0,0,0,0,0,0,0,0,0,0,0,0,0,0,0,-0.3,0,0.3,-0.3,0,0,0,0,0,0,0,0,0,0,0,0,0,0,0,0,0,0,0,0,0,0,0,0,0,0,0,0,0,0,0,0,-0.3,0,0.3,-0.3,0,0,0,0,0,0,0,0,-0.2,0,0" 
class="s3_207"
>any days or times when everyone has things planned or when everyone is free?</text>

<text 
x="110" 
y="733" 
dx="0,0,0,0,0,0,0" 
class="s4_207"
>Step 3:</text>

<text 
x="166" 
y="733" 
dx="0,-1.1,0,0,0,0,0,0,0,0,0,0,0,0,0,0,0,0,0,0,0,-0.3,0,0,0,0,0,-0.2,0,0,0,0,0,0,0,0,0,0,-0.4,-0.3,0,0,0,-0.2,0,0,0,0,0,0,0,0,0,0,0,0,0,0,0,0,0,0,0,0,0,0,0,-0.4,-0.3,0,0,0,0,0,0,-0.4,-0.4,0,0,0,0,0,0,0" 
class="s3_207"
>Tell the class when your groupmates have free time and when they have plans. Listen </text>

<text 
x="166" 
y="759" 
dx="0,0,0,0,0,0,0,0,0,0,0,-0.2,0,0,0,0,0,-0.2,0,0,0,0,0,0,0,0,0,0,0,0,0,0,0,0,0,0,0,0,-0.4,-0.4,0,-0.2,0,0,0,0,0,0,-0.4,0,0,0,0,0,0,0,0,0,0,0,0,0,-0.2,0,0,0,0,0,0,0,0,0,0,0,0,0,0,0,0,0,0,0" 
class="s3_207"
>as other groups report their schedules. Which days or times are most people busy? </text>

<text 
x="165" 
y="785" 
dx="0,-0.2,0,0,0,0,0,0,-0.4,0,0,0,0,0,0,0,0,0,0,0,0,0,-0.2,0,0,0,0,0,0,0,0,0,0,0,0,0,0,0,-0.2,0,0,0,0,-0.4,-0.2,0,0,0,0,0,-0.2,0,0,0,-0.4,0,0,0,0,0,0,0,-0.4,0,0,0,0,0,0,-0.2,0,0,0,0" 
class="s3_207"
>Which days or times are most people free? Are there any class-wide trends?</text>

<path d="M128.3,462.1c-10.1,0,-18.3,-8.2,-18.3,-18.4l0,-20.1l23.1,0c10.2,0,18.4,8.2,18.4,18.3l0,20.2Z" class="g2_207" />
<path d="M119.4,424.2l438.8,0" class="g3_207" />
<path d="M133.1,461.6l425.1,0" class="g3_207" />
<text 
x="117" 
y="450" 
dx="0,0,0" 
class="s6_207"
>1d </text>

<text 
x="160" 
y="450" 
dx="0,0,0,0,0,0,0,0,0,0,0,-0.2,0,0,0,0,0" 
class="s7_207"
>Using the Languag</text>

<text 
x="382" 
y="450" 
dx="0" 
class="s8_207"
>e</text>

<path d="M421.1,453.4c-6,0,-10.8,-4.9,-10.8,-10.9l0,-10.8l131.1,0c6,0,10.8,4.9,10.8,10.8l0,10.9Z" class="g4_207" />
<text 
x="426" 
y="446" 
dx="0,0,0,0,0,0,0,0,0,0,0,0,0" 
class="s9_207"
>µ·´³ºP³ºS¶·¹»</text>

<text 
x="137" 
y="98" 
dx="0,0,0,0,0,0,0" 
class="s2_207"
>Time + </text>

<text 
x="197" 
y="98" 
dx="0" 
class="s5_207"
>见</text>

<text 
x="137" 
y="137" 
dx="0,-0.3,0,0,0,0,0" 
class="s3_207"
>Adding </text>

<text 
x="198" 
y="136" 
dx="0" 
class="s5_207"
>见</text>

<text 
x="224" 
y="137" 
dx="0,0,0,0,0,0,0,0,0,0,0,0,0,0,0,0,0,0,0,0,0,-0.3,0,-0.2,0,0,0,0,0,0,0,-0.4,0,-0.4,0,0,0,-0.3,0,0,0,0,0,0,0,0,0,0,0,0,0,0,0,0,0,0,-0.4" 
class="s3_207"
>(jiàn) after a time word means “See you (at that time)!” </text>

<text 
x="646" 
y="136" 
dx="0,0" 
class="s5_207"
>再见</text>

<text 
x="695" 
y="137" 
dx="0,-0.3,0,0,0,-0.3,0,0,0,0,0,0,0,0,0,0,0" 
class="s3_207"
>follows the same </text>

<text 
x="138" 
y="163" 
dx="0,0,0,0,0,0,0,0,-0.4" 
class="s3_207"
>pattern. </text>

<text 
x="205" 
y="162" 
dx="0" 
class="s5_207"
>再</text>

<text 
x="232" 
y="163" 
dx="0,0,0,0,0,0,-0.4,0,0,-0.2,0,0,0,-1.1,-0.4,0,0,0" 
class="s3_207"
>means “again,” so </text>

<text 
x="371" 
y="162" 
dx="0,0" 
class="s5_207"
>再见</text>

<text 
x="421" 
y="163" 
dx="0,0,0,0,0,-0.2,0,0,0,0,0,0,0,0,0,0,-0.4,0,-0.4,0,0,0,-0.3,0,0,0,0,-0.2,0,0,0,0" 
class="s3_207"
>literally means “See you again!”</text>

<path d="M138.3,181.5l182.4,0l0,34.7l-182.4,0l0,-34.7Zm182.4,0l102.3,0l0,34.7l-102.3,0l0,-34.7Zm102.3,0l378.1,0l0,34.7l-378.1,0l0,-34.7Z" class="g5_207" />
<path d="M320.7,216.2l102.3,0" class="g6_207" />
<path d="M423,216.2l378.1,0" class="g6_207" />
<path d="M423,300.7l0,-84.3" class="g7_207" />
<path d="M423,385.2l0,-84.1" class="g7_207" />
<path d="M423,216l0,-34.5" class="g8_207" />
<path d="M320.7,385.6l102.3,0" class="g9_207" />
<path d="M423,385.6l378.1,0" class="g9_207" />
<path d="M320.7,216l0,-34.5" class="g8_207" />
<path d="M138.3,216.2l182.4,0" class="g6_207" />
<path d="M320.7,300.7l0,-84.3" class="g7_207" />
<path d="M320.7,385.2l0,-84.1" class="g7_207" />
<path d="M138.3,385.6l182.4,0" class="g9_207" />
<path d="M138.3,300.9l182.4,0" class="g6_207" />
<path d="M320.7,300.9l102.3,0" class="g6_207" />
<path d="M423,300.9l378.1,0" class="g6_207" />
<text 
x="151" 
y="206" 
dx="0,0,0,0" 
class="s2_207"
>Time</text>

<text 
x="363" 
y="207" 
dx="0" 
class="s5_207"
>见</text>

<text 
x="437" 
y="206" 
dx="0,0,0,0,0,0,0" 
class="s2_207"
>Meaning</text>

<text 
x="182" 
y="248" 
dx="0,0.2,0.2,-0.1,0.2" 
class="s10_207"
>xiàwǔ</text>

<text 
x="152" 
y="277" 
dx="0" 
class="s11_207"
>1</text>

<text 
x="167" 
y="280" 
dx="0,0" 
class="s12_207"
>下午</text>

<text 
x="355" 
y="246" 
dx="0,0.2,0.2,0.2" 
class="s10_207"
>jiàn</text>

<text 
x="352" 
y="280" 
dx="0,0" 
class="s12_207"
>见！</text>

<text 
x="437" 
y="283" 
dx="0,-0.4,0,0,0,-0.3,0,0,0,0,0,0,0,0,0,0,0,0,0,0,0,0,0" 
class="s3_207"
>See you this afternoon!</text>

<text 
x="227" 
y="333" 
dx="0,0,0.2,0.2,0.2,0.2,0.2,0.2" 
class="s10_207"
>wǎnshàng</text>

<text 
x="152" 
y="361" 
dx="0" 
class="s11_207"
>2</text>

<text 
x="169" 
y="364" 
dx="0,0,0,0" 
class="s12_207"
>明天晚上</text>

<text 
x="355" 
y="331" 
dx="0,0.2,0.2,0.2" 
class="s10_207"
>jiàn</text>

<text 
x="352" 
y="364" 
dx="0,0" 
class="s12_207"
>见！</text>

<text 
x="437" 
y="368" 
dx="0,-0.4,0,0,0,-0.3,0,0,0,0,0,0,0,0,-0.2,-0.3,0,0,0,0,0,0,0" 
class="s3_207"
>See you tomorrow night!</text>

<path d="M110,103.2l20.6,0l0,-20.6l-20.6,0l0,20.6Z" class="g10_207" />
<text 
x="115" 
y="99" 
dx="0" 
class="s13_207"
>2</text>

<text 
x="117" 
y="967" 
dx="0,0,0,0,-1.6,0,0,0,0,0,0" 
class="s14_207"
>C¶MP¹ºµS¶·S</text>

<text 
x="152" 
y="985" 
dx="0" 
class="s15_207"
>C</text>

<text 
x="160" 
y="985" 
dx="0,0,0,0,0,0,0,0,0,0" 
class="s16_207"
>OMMUNITIES</text>

<text 
x="152" 
y="1000" 
dx="0" 
class="s15_207"
>C</text>

<text 
x="160" 
y="1000" 
dx="0,0,0,0,0,0,0,-0.1,-0.8,0,0,0" 
class="s16_207"
>OMMUNICATION</text>

<text 
x="152" 
y="1014" 
dx="0" 
class="s15_207"
>C</text>

<text 
x="160" 
y="1014" 
dx="0,0,-1.2,0,0,0,0" 
class="s16_207"
>ULTURES</text>

<text 
x="152" 
y="1029" 
dx="0" 
class="s15_207"
>C</text>

<text 
x="160" 
y="1029" 
dx="0,0,0,0,0,0,0,0,0,0" 
class="s16_207"
>ONNECTIONS</text>

<path d="M278.3,870.8l466.2,0c15.2,0,27.5,12.3,27.5,27.5l0,185.5" class="g11_207" />
<path d="M278.3,875.4c2.6,0,4.6,-2,4.6,-4.6c0,-2.5,-2,-4.5,-4.6,-4.5c-2.5,0,-4.5,2,-4.5,4.5c0,2.6,2,4.6,4.5,4.6Z" class="g12_207" />
<text 
x="324" 
y="931" 
dx="0,-0.2,0,0,0,0,-0.3,0,0,0,0,0,0,0,0,0,0,0,0,0,0,0,0,0,0,0,0,0,0,0,0,0,0,0,0,0,-0.4,-1.3,-0.4,0,-0.3,0,0,0,0,0,0,0,0" 
class="s3_207"
>When you see someone early in the day, you might </text>

<text 
x="326" 
y="957" 
dx="0,0,-0.4,0,-0.4,0,0,0,0,0,0,0,0,0,0,0,0,-1,-0.4,0,0,0,0,0,0,0,0,-0.4,0,0,0,0,0,0,0,0,-1.1,-0.4,0,-0.2,0,0,0,0,0,0,0,-1.3,-0.4" 
class="s3_207"
>say “good morning” or just “morning.” Similarly, </text>

<text 
x="325" 
y="983" 
dx="0,0,0,0,0,0,0,0,0,0,0,0,0,0,0,0,0,0,0,0,0,0,0,0,0,0,0,-0.2,0,0,0,0,0,0,0,0,0,0,0,0,0,0,0,-0.3,0" 
class="s3_207"
>Chinese people sometimes greet each other by </text>

<text 
x="326" 
y="1011" 
dx="0,0,0,0,0,0,0,0,0,-0.4,0,0,0,0" 
class="s3_207"
>simply saying </text>

<text 
x="436" 
y="1013" 
dx="0" 
class="s5_207"
>早</text>

<text 
x="462" 
y="1011" 
dx="0,0,0,0,0,-0.4,0,0,0,0,0,0,0,0,0,0,0,0,0,0,0,0,0,0,-0.2,0,0,0,0,0,0" 
class="s3_207"
>or may use the longer greeting </text>

<text 
x="323" 
y="1039" 
dx="0,0,0" 
class="s5_207"
>早上好</text>

<text 
x="397" 
y="1037" 
dx="0" 
class="s3_207"
>.</text>

<path d="M202.8,878.2l-22.9,0l-3.6,12.3c0.5,0,1,-0.1,1.5,-0.1c0.5,-0.1,1,-0.1,1.4,-0.1c7.2,0,13.1,2.5,17.8,7.3c4.6,4.9,7,11.1,7,18.7c0,7.8,-2.7,14.3,-7.9,19.3c-5.3,5.1,-11.9,7.7,-19.9,7.7c-9.9,0,-17.7,-4.7,-23.3,-13.9l8.4,-7.2c2.4,4,4.7,6.8,7.1,8.4c2.4,1.6,5.3,2.4,8.7,2.4c4.5,0,8.3,-1.5,11.3,-4.7c3.1,-3.2,4.6,-7.2,4.6,-11.8c0,-4.7,-1.5,-8.6,-4.5,-11.6c-3,-3.1,-6.8,-4.7,-11.3,-4.7c-5.1,0,-9.4,2.2,-13.1,6.6l-3.7,0l11.7,-39.1l30.7,0Z" class="g2_207" />
<path d="M236,876.8c7,0,13.7,2.8,20.1,8.2l0,-13.3c-6.2,-3.6,-12.6,-5.5,-19.3,-5.5c-12.2,0,-22.2,4.6,-29.9,13.7c-1.7,2,-3.1,4,-4.3,6.1l0,38.4c1.6,2.8,3.7,5.4,6.1,7.9c7.5,7.4,16.6,11.1,27.2,11.1c7.1,0,13.8,-1.8,20.2,-5.4l0,-13.6c-1.8,1.6,-3.5,2.9,-5.2,4c-1.6,1.1,-3.2,1.9,-4.8,2.6c-2.7,1.3,-6.1,1.9,-10,1.9c-7.7,0,-14.1,-2.7,-19.4,-8c-5.3,-5.4,-7.9,-12,-7.9,-19.8c0,-7.9,2.6,-14.6,7.9,-20c5.2,-5.5,11.7,-8.3,19.3,-8.3Z" class="g2_207" />
<path d="M202.2,868.4l0,77.1" class="g13_207" />
<path d="M202.7,1035.8l-0.4,24.3c-0.2,13.4,12,24.3,27.2,24.3l542,0" class="g13_207" />
<path d="M771.5,1089c2.6,0,4.6,-2.1,4.6,-4.6c0,-2.5,-2,-4.6,-4.6,-4.6c-2.5,0,-4.6,2.1,-4.6,4.6c0,2.5,2.1,4.6,4.6,4.6Z" class="g2_207" />
<path d="M260,937.4c2.4,2.3,6.3,3.6,10.3,3.6c6.4,0,10,-3.2,10,-7.4c0,-5.7,-5.3,-6.7,-9.3,-7.5c-2.5,-0.5,-4.4,-1,-4.4,-2.5c0,-1.3,1.5,-2.1,3.7,-2.1c2.8,0,5.4,1.2,6.8,2.6l2.4,-4.1c-2.3,-1.8,-5.4,-3.1,-9.3,-3.1c-6,0,-9.4,3.3,-9.4,7.2c0,5.5,5.1,6.4,9,7.2c2.7,0.5,4.7,1.1,4.7,2.7c0,1.4,-1.3,2.3,-3.9,2.3c-2.9,0,-6.3,-1.5,-8,-3.1Z" class="g2_207" />


<!-- Any embedded fonts defined here -->
<style type="text/css" ><![CDATA[

@font-face {
	font-family: STKaitiSC-Bold_cmk;
	src: url("fonts/STKaitiSC-Bold_cmk.woff") format("woff");
}

@font-face {
	font-family: Alegreya-Bold_d1h;
	src: url("fonts/Alegreya-Bold_d1h.woff") format("woff");
}

@font-face {
	font-family: ProximaNova-Semibold_d1j;
	src: url("fonts/ProximaNova-Semibold_d1j.woff") format("woff");
}

@font-face {
	font-family: ProximaNova-Extrabld_d1l;
	src: url("fonts/ProximaNova-Extrabld_d1l.woff") format("woff");
}

@font-face {
	font-family: ProximaNova-Bold_d1q;
	src: url("fonts/ProximaNova-Bold_d1q.woff") format("woff");
}

@font-face {
	font-family: Alegreya-Regular_d1o;
	src: url("fonts/Alegreya-Regular_d1o.woff") format("woff");
}

@font-face {
	font-family: STKaitiSC-Regular_cof;
	src: url("fonts/STKaitiSC-Regular_cof.woff") format("woff");
}

@font-face {
	font-family: ProximaNovaCond-Extrabld_d1z;
	src: url("fonts/ProximaNovaCond-Extrabld_d1z.woff") format("woff");
}

@font-face {
	font-family: ProximaNova-Semibold_cot;
	src: url("fonts/ProximaNova-Semibold_cot.woff") format("woff");
}

]]></style>

</svg>
