<?xml version="1.0" encoding="UTF-8" standalone="no"?>
<!DOCTYPE svg PUBLIC "-//W3C//DTD SVG 1.1//EN"
"http://www.w3.org/Graphics/SVG/1.1/DTD/svg11.dtd">


<!-- Page 430 -->
<svg x="0" y="0" width="921" height="1196" viewBox="0 0 921 1196" version="1.1" xmlns="http://www.w3.org/2000/svg" xmlns:xlink="http://www.w3.org/1999/xlink"
style="display: block;margin-left: auto;margin-right: auto;">
<defs>

<style type="text/css"><![CDATA[

.g1_430{
fill: none;
stroke: #3986C6;
stroke-width: 1.6194444;
stroke-linecap: butt;
stroke-linejoin: miter;
stroke-miterlimit: 4;
}
.g2_430{
fill: #3986C6;
}
.g3_430{
fill: #F0F1F2;
}
.g4_430{
fill: #BDBEC1;
}
.g5_430{
fill: none;
stroke: #BDBEC1;
stroke-width: 1.5277778;
stroke-linecap: butt;
stroke-linejoin: miter;
}
.g6_430{
fill: none;
stroke: #BDBEC1;
stroke-width: 0.38194445;
stroke-linecap: butt;
stroke-linejoin: miter;
}

.s1_430{
font-size: 18.33px;
font-family: ProximaNova-Bold_ddv;
fill: #231F20;
}
.s2_430{
font-size: 12.99px;
font-family: ProximaNova-Semibold_ddu;
fill: #231F20;
}
.s3_430{
font-size: 18.33px;
font-family: ProximaNova-Bold_ddv;
fill: #57585A;
}
.s4_430{
font-size: 19.10px;
font-family: Alegreya-Regular_ddy;
fill: #231F20;
}
.s5_430{
font-size: 32.08px;
font-family: STKaitiSC-Regular_cof;
fill: #231F20;
}
.s6_430{
font-size: 21.39px;
font-family: ProximaNova-Semibold_ddu;
fill: #3F3F40;
}

]]></style>

</defs>
<path d="M0,0
L0,1196
L921,1196
L921,0 Z " 
fill="#FFFFFF" stroke="none" />
<text 
x="856" 
y="1149" 
dx="0,0,0" 
class="s1_430"
>407</text>

<path d="M872.3,1089.3l0,38.7" class="g1_430" />
<path d="M872.3,1125.4c-1.5,0,-2.6,1.1,-2.6,2.6c0,1.4,1.1,2.6,2.6,2.6c1.4,0,2.6,-1.2,2.6,-2.6c0,-1.5,-1.2,-2.6,-2.6,-2.6Z" class="g2_430" />
<text 
transform="matrix(0, 1, -1, 0, 866, 869)"
dx="0,-0.8,0,0,0,0,0,0,0,0,0,0,0,0,0,-0.5,0,0,0,0,0,0,0,0,0,0,0,0,0,0,0,0,0,0,0,0" 
class="s2_430"
>Vocabulary Index (English – Chinese)</text>

<path d="M89.4,167l391.9,0l0,42.3l-391.9,0l0,-42.3Zm391.9,0L605,167l0,42.3l-123.7,0l0,-42.3ZM605,167l140.3,0l0,42.3l-140.3,0L605,167Zm140.3,0l65.8,0l0,42.3l-65.8,0l0,-42.3ZM89.4,251.6l391.9,0l0,42.3l-391.9,0l0,-42.3Zm391.9,0l123.7,0l0,42.3l-123.7,0l0,-42.3Zm123.7,0l140.3,0l0,42.3l-140.3,0l0,-42.3Zm140.3,0l65.8,0l0,42.3l-65.8,0l0,-42.3ZM89.4,355l391.9,0l0,42.3l-391.9,0l0,-42.3Zm391.9,0L605,355l0,42.3l-123.7,0l0,-42.3ZM605,355l140.3,0l0,42.3l-140.3,0L605,355Zm140.3,0l65.8,0l0,42.3l-65.8,0l0,-42.3ZM89.4,524.1l391.9,0l0,42.3l-391.9,0l0,-42.3Zm391.9,0l123.7,0l0,42.3l-123.7,0l0,-42.3Zm123.7,0l140.3,0l0,42.3l-140.3,0l0,-42.3Zm140.3,0l65.8,0l0,42.3l-65.8,0l0,-42.3ZM89.4,608.7l391.9,0l0,42.4l-391.9,0l0,-42.4Zm391.9,0l123.7,0l0,42.4l-123.7,0l0,-42.4Zm123.7,0l140.3,0l0,42.4l-140.3,0l0,-42.4Zm140.3,0l65.8,0l0,42.4l-65.8,0l0,-42.4ZM89.4,693.4l391.9,0l0,42.3l-391.9,0l0,-42.3Zm391.9,0l123.7,0l0,42.3l-123.7,0l0,-42.3Zm123.7,0l140.3,0l0,42.3l-140.3,0l0,-42.3Zm140.3,0l65.8,0l0,42.3l-65.8,0l0,-42.3ZM89.4,778l391.9,0l0,42.3l-391.9,0l0,-42.3Zm391.9,0L605,778l0,42.3l-123.7,0l0,-42.3ZM605,778l140.3,0l0,42.3l-140.3,0L605,778Zm140.3,0l65.8,0l0,42.3l-65.8,0l0,-42.3ZM89.4,947.1l391.9,0l0,42.3l-391.9,0l0,-42.3Zm391.9,0l123.7,0l0,42.3l-123.7,0l0,-42.3Zm123.7,0l140.3,0l0,42.3l-140.3,0l0,-42.3Zm140.3,0l65.8,0l0,42.3l-65.8,0l0,-42.3ZM89.4,1031.6l391.9,0l0,42.3l-391.9,0l0,-42.3Zm391.9,0l123.7,0l0,42.3l-123.7,0l0,-42.3Zm123.7,0l140.3,0l0,42.3l-140.3,0l0,-42.3Zm140.3,0l65.8,0l0,42.3l-65.8,0l0,-42.3Z" class="g3_430" />
<path d="M89.4,439.6l721.7,0l0,42.2l-721.7,0l0,-42.2Zm0,423l721.7,0l0,42.2l-721.7,0l0,-42.2Zm0,126.8l721.7,0l0,42.2l-721.7,0l0,-42.2Z" class="g4_430" />
<path d="M89.4,124.7l391.9,0" class="g5_430" />
<path d="M481.3,124.7l123.7,0" class="g5_430" />
<path d="M605,124.7l140.3,0" class="g5_430" />
<path d="M745.3,124.7l65.8,0" class="g5_430" />
<path d="M89.4,167l391.9,0" class="g6_430" />
<path d="M605,167l140.3,0" class="g6_430" />
<path d="M745.3,209.3l65.8,0" class="g6_430" />
<path d="M745.3,251.6l65.8,0" class="g6_430" />
<path d="M89.4,209.3l391.9,0" class="g6_430" />
<path d="M89.4,251.6l391.9,0" class="g6_430" />
<path d="M481.3,209.3l123.7,0" class="g6_430" />
<path d="M481.3,251.6l123.7,0" class="g6_430" />
<path d="M605,209.3l140.3,0" class="g6_430" />
<path d="M605,251.6l140.3,0" class="g6_430" />
<path d="M481.3,167L605,167" class="g6_430" />
<path d="M745.3,167l65.8,0" class="g6_430" />
<path d="M745.3,293.9l65.8,0" class="g6_430" />
<path d="M745.3,355l65.8,0" class="g6_430" />
<path d="M605,293.9l140.3,0" class="g6_430" />
<path d="M605,355l140.3,0" class="g6_430" />
<path d="M481.3,293.9l123.7,0" class="g6_430" />
<path d="M481.3,355L605,355" class="g6_430" />
<path d="M89.4,293.9l391.9,0" class="g6_430" />
<path d="M89.4,355l391.9,0" class="g6_430" />
<path d="M745.3,397.3l65.8,0" class="g6_430" />
<path d="M745.3,439.6l65.8,0" class="g6_430" />
<path d="M605,397.3l140.3,0" class="g6_430" />
<path d="M605,439.6l140.3,0" class="g6_430" />
<path d="M481.3,397.3l123.7,0" class="g6_430" />
<path d="M481.3,439.6l123.7,0" class="g6_430" />
<path d="M89.4,397.3l391.9,0" class="g6_430" />
<path d="M89.4,439.6l391.9,0" class="g6_430" />
<path d="M745.3,481.8l65.8,0" class="g6_430" />
<path d="M605,481.8l140.3,0" class="g6_430" />
<path d="M481.3,481.8l123.7,0" class="g6_430" />
<path d="M89.4,481.8l391.9,0" class="g6_430" />
<path d="M745.3,862.6l65.8,0" class="g6_430" />
<path d="M605,862.6l140.3,0" class="g6_430" />
<path d="M89.4,862.6l391.9,0" class="g6_430" />
<path d="M481.3,862.6l123.7,0" class="g6_430" />
<path d="M89.4,524.1l391.9,0" class="g6_430" />
<path d="M481.3,524.1l123.7,0" class="g6_430" />
<path d="M605,524.1l140.3,0" class="g6_430" />
<path d="M745.3,524.1l65.8,0" class="g6_430" />
<path d="M89.4,566.4l391.9,0" class="g6_430" />
<path d="M481.3,566.4l123.7,0" class="g6_430" />
<path d="M605,566.4l140.3,0" class="g6_430" />
<path d="M745.3,566.4l65.8,0" class="g6_430" />
<path d="M89.4,608.7l391.9,0" class="g6_430" />
<path d="M89.4,651.1l391.9,0" class="g6_430" />
<path d="M481.3,608.7l123.7,0" class="g6_430" />
<path d="M481.3,651.1l123.7,0" class="g6_430" />
<path d="M605,608.7l140.3,0" class="g6_430" />
<path d="M605,651.1l140.3,0" class="g6_430" />
<path d="M745.3,608.7l65.8,0" class="g6_430" />
<path d="M745.3,651.1l65.8,0" class="g6_430" />
<path d="M605,693.4l140.3,0" class="g6_430" />
<path d="M605,735.7l140.3,0" class="g6_430" />
<path d="M481.3,693.4l123.7,0" class="g6_430" />
<path d="M481.3,735.7l123.7,0" class="g6_430" />
<path d="M89.4,693.4l391.9,0" class="g6_430" />
<path d="M89.4,735.7l391.9,0" class="g6_430" />
<path d="M89.4,778l391.9,0" class="g6_430" />
<path d="M89.4,820.3l391.9,0" class="g6_430" />
<path d="M745.3,778l65.8,0" class="g6_430" />
<path d="M745.3,820.3l65.8,0" class="g6_430" />
<path d="M745.3,693.4l65.8,0" class="g6_430" />
<path d="M745.3,735.7l65.8,0" class="g6_430" />
<path d="M605,778l140.3,0" class="g6_430" />
<path d="M605,820.3l140.3,0" class="g6_430" />
<path d="M481.3,778L605,778" class="g6_430" />
<path d="M481.3,820.3l123.7,0" class="g6_430" />
<path d="M481.3,904.8l123.7,0" class="g6_430" />
<path d="M605,904.8l140.3,0" class="g6_430" />
<path d="M745.3,904.8l65.8,0" class="g6_430" />
<path d="M481.3,947.1l123.7,0" class="g6_430" />
<path d="M605,947.1l140.3,0" class="g6_430" />
<path d="M745.3,947.1l65.8,0" class="g6_430" />
<path d="M89.4,904.8l391.9,0" class="g6_430" />
<path d="M89.4,947.1l391.9,0" class="g6_430" />
<path d="M89.4,1031.6l391.9,0" class="g6_430" />
<path d="M481.3,1031.6l123.7,0" class="g6_430" />
<path d="M605,1031.6l140.3,0" class="g6_430" />
<path d="M745.3,1031.6l65.8,0" class="g6_430" />
<path d="M89.4,1073.9l391.9,0" class="g5_430" />
<path d="M481.3,1073.9l123.7,0" class="g5_430" />
<path d="M605,1073.9l140.3,0" class="g5_430" />
<path d="M745.3,1073.9l65.8,0" class="g5_430" />
<text 
x="96" 
y="110" 
dx="0,0,0,0,0,0,0,0" 
class="s3_430"
>English </text>

<text 
x="487" 
y="110" 
dx="0,0,0,0,0,0,0" 
class="s3_430"
>Chinese</text>

<text 
x="611" 
y="110" 
dx="0,0,0,0,0,0" 
class="s3_430"
>Pinyin</text>

<text 
x="752" 
y="110" 
dx="0,-0.4,0,0" 
class="s3_430"
>Page</text>

<text 
x="95" 
y="153" 
dx="0,0,0,0" 
class="s4_430"
>home</text>

<text 
x="483" 
y="153" 
dx="0,0" 
class="s5_430"
>家 </text>

<text 
x="611" 
y="153" 
dx="0,0,0" 
class="s4_430"
>jiā</text>

<text 
x="751" 
y="153" 
dx="0,0" 
class="s4_430"
>94</text>

<text 
x="95" 
y="196" 
dx="0,0,0,0,0,-0.3,0,0" 
class="s4_430"
>homework</text>

<text 
x="484" 
y="196" 
dx="0,0" 
class="s5_430"
>作业</text>

<text 
x="611" 
y="196" 
dx="0,0,0,-0.3,-0.3" 
class="s4_430"
>zuòyè</text>

<text 
x="750" 
y="196" 
dx="0,0,0" 
class="s4_430"
>257</text>

<text 
x="95" 
y="238" 
dx="0,0,0,0,0,0,0,-0.6,-0.4,0,0,0,0,0,0,0,0,0,0,0,0,0" 
class="s4_430"
>to hope, to wish; hope</text>

<text 
x="484" 
y="238" 
dx="0,0" 
class="s5_430"
>希望</text>

<text 
x="611" 
y="238" 
dx="0,0,0,-0.3,0,0" 
class="s4_430"
>xīwàng</text>

<text 
x="750" 
y="238" 
dx="0,0,0" 
class="s4_430"
>365</text>

<text 
x="95" 
y="280" 
dx="0,0,0" 
class="s4_430"
>hot</text>

<text 
x="483" 
y="280" 
dx="0" 
class="s5_430"
>热</text>

<text 
x="611" 
y="280" 
dx="0,-0.2" 
class="s4_430"
>rè</text>

<text 
x="750" 
y="280" 
dx="0,0,0" 
class="s4_430"
>286</text>

<text 
x="94" 
y="319" 
dx="0,-0.4,-0.3,0,0,0,-0.4,0,0,0,0,0,0,-0.4,-0.3,0,0,0,0,0,0,0,0,0,0,0,0,-0.4,0,0,0,0,0,0,0,0,0,-0.4,-0.3,0,0,0,0,0,0,0,0,0,0,0" 
class="s4_430"
>How is...?; How about it? Is it OK? How does that </text>

<text 
x="96" 
y="345" 
dx="0,0,0,0,0,0" 
class="s4_430"
>sound?</text>

<text 
x="483" 
y="332" 
dx="0,0,0" 
class="s5_430"
>怎么样</text>

<text 
x="611" 
y="332" 
dx="0,0,0,0,0,0,-0.3,0,0" 
class="s4_430"
>zěnmeyàng</text>

<text 
x="750" 
y="332" 
dx="0,0,0" 
class="s4_430"
>243</text>

<text 
x="95" 
y="384" 
dx="0,0,-0.3,0,0,0,0,-0.4" 
class="s4_430"
>how many</text>

<text 
x="481" 
y="384" 
dx="0" 
class="s5_430"
>几</text>

<text 
x="611" 
y="384" 
dx="0,0" 
class="s4_430"
>jǐ</text>

<text 
x="750" 
y="384" 
dx="0,0" 
class="s4_430"
>57</text>

<text 
x="95" 
y="426" 
dx="0,0,0,0,0,0.3" 
class="s4_430"
>hungry</text>

<text 
x="485" 
y="426" 
dx="0" 
class="s5_430"
>饿</text>

<text 
x="611" 
y="426" 
dx="0" 
class="s4_430"
>è</text>

<text 
x="750" 
y="426" 
dx="0,0,0" 
class="s4_430"
>286</text>

<text 
x="447" 
y="469" 
dx="0" 
class="s6_430"
>I</text>

<text 
x="94" 
y="510" 
dx="0,-0.6,-0.4,0,0" 
class="s4_430"
>I, me</text>

<text 
x="483" 
y="510" 
dx="0" 
class="s5_430"
>我</text>

<text 
x="611" 
y="510" 
dx="0,-0.3" 
class="s4_430"
>wǒ</text>

<text 
x="750" 
y="510" 
dx="0,0" 
class="s4_430"
>21</text>

<text 
x="95" 
y="553" 
dx="0,0,0,0" 
class="s4_430"
>idea</text>

<text 
x="480" 
y="553" 
dx="0,0" 
class="s5_430"
>主意</text>

<text 
x="611" 
y="553" 
dx="0,0,0,0,0" 
class="s4_430"
>zhǔyi</text>

<text 
x="751" 
y="553" 
dx="0,0,0" 
class="s4_430"
>168</text>

<text 
x="95" 
y="595" 
dx="0,0" 
class="s4_430"
>if</text>

<text 
x="485" 
y="595" 
dx="0,0" 
class="s5_430"
>如果</text>

<text 
x="611" 
y="595" 
dx="0,0,0,0,0" 
class="s4_430"
>rúguǒ</text>

<text 
x="750" 
y="595" 
dx="0,0,0" 
class="s4_430"
>317</text>

<text 
x="95" 
y="637" 
dx="0,0,0,0,0,0,0,0,0" 
class="s4_430"
>important</text>

<text 
x="480" 
y="637" 
dx="0,0" 
class="s5_430"
>重要</text>

<text 
x="611" 
y="637" 
dx="0,0,0,0,0,0,-0.3,0" 
class="s4_430"
>zhòngyào</text>

<text 
x="750" 
y="637" 
dx="0,0,0" 
class="s4_430"
>239</text>

<text 
x="95" 
y="680" 
dx="0,0,0,0,0,0,0,0,0,-0.2,0,0,-0.6,-0.4,0,0,0,0,0,-0.4,0,0" 
class="s4_430"
>in that case, then, so</text>

<text 
x="485" 
y="680" 
dx="0" 
class="s5_430"
>那</text>

<text 
x="611" 
y="680" 
dx="0,0" 
class="s4_430"
>nà</text>

<text 
x="751" 
y="680" 
dx="0,0,0" 
class="s4_430"
>168</text>

<text 
x="95" 
y="722" 
dx="0,0,0,0,0,0,0,0,-0.3,0,0,0,0,0,0,0,0,0,0,0,0,0,0,0,-0.3,0,0,0,0,0,-0.4,0,0,0,0,0,0,0,0,0,0,0" 
class="s4_430"
>indoor court or field (for playing sports)</text>

<text 
x="485" 
y="722" 
dx="0" 
class="s5_430"
>馆</text>

<text 
x="611" 
y="722" 
dx="0,0,0,0" 
class="s4_430"
>guǎn</text>

<text 
x="751" 
y="722" 
dx="0,0,0" 
class="s4_430"
>118</text>

<text 
x="95" 
y="764" 
dx="0,0,0,0,0,-0.2,0,0,0,0,0,0,-0.4,0,0,0" 
class="s4_430"
>interesting, fun</text>

<text 
x="484" 
y="764" 
dx="0,0,0" 
class="s5_430"
>有意思</text>

<text 
x="611" 
y="764" 
dx="0,-0.3,0,0,0,0,0" 
class="s4_430"
>yǒuyìsi</text>

<text 
x="751" 
y="764" 
dx="0,0,0" 
class="s4_430"
>114</text>

<text 
x="94" 
y="807" 
dx="0,-0.4,0,0,0,0,0,0,0,0,0,0,0,0,0,0,0,0,0,0,0,0,0,0,-1.5,0,0,0,0,0,0,0" 
class="s4_430"
>Isabella Lopez (a person’s name)</text>

<text 
x="484" 
y="807" 
dx="0,0,0" 
class="s5_430"
>林春月</text>

<text 
x="610" 
y="807" 
dx="0,0,0,0,0,0,0,0,-0.4,0,0" 
class="s4_430"
>Lín Chūnyuè</text>

<text 
x="750" 
y="807" 
dx="0,0" 
class="s4_430"
>37</text>

<text 
x="95" 
y="849" 
dx="0,0,0,0,0,0,0,0,0,0,-0.3,0,0,0,0,0,0,0,0,0,0,0,0,0,0,0,0,0,0,0,0,0" 
class="s4_430"
>it (used for animals and things)</text>

<text 
x="481" 
y="849" 
dx="0" 
class="s5_430"
>它</text>

<text 
x="611" 
y="849" 
dx="0,0" 
class="s4_430"
>tā</text>

<text 
x="751" 
y="849" 
dx="0,0" 
class="s4_430"
>67</text>

<text 
x="444" 
y="892" 
dx="0" 
class="s6_430"
>J</text>

<text 
x="95" 
y="933" 
dx="0,0,0,0,0,0,0" 
class="s4_430"
>to join</text>

<text 
x="484" 
y="934" 
dx="0,0" 
class="s5_430"
>加入</text>

<text 
x="611" 
y="933" 
dx="0,0,0,0,0" 
class="s4_430"
>jiārù</text>

<text 
x="750" 
y="933" 
dx="0,0,0" 
class="s4_430"
>355</text>

<text 
x="95" 
y="976" 
dx="0,-0.6,0,0" 
class="s4_430"
>June</text>

<text 
x="482" 
y="976" 
dx="0,0,0" 
class="s5_430"
>六月 </text>

<text 
x="611" 
y="976" 
dx="0,0,0,0,0,0,0" 
class="s4_430"
>liùyuè </text>

<text 
x="751" 
y="976" 
dx="0,0,0" 
class="s4_430"
>163</text>

<text 
x="444" 
y="1018" 
dx="0" 
class="s6_430"
>K</text>

<text 
x="95" 
y="1060" 
dx="0,0,0,0,0,0,0,0,-0.4,0,0,0,0,0,0,-0.4,0,0,0,0,0,-0.3,-0.3,0,0" 
class="s4_430"
>to kick, to play (soccer)</text>

<text 
x="484" 
y="1060" 
dx="0" 
class="s5_430"
>踢</text>

<text 
x="611" 
y="1060" 
dx="0,0" 
class="s4_430"
>tī</text>

<text 
x="751" 
y="1060" 
dx="0,0,0" 
class="s4_430"
>109</text>



<!-- Any embedded fonts defined here -->
<style type="text/css" ><![CDATA[

@font-face {
	font-family: Alegreya-Regular_ddy;
	src: url("fonts/Alegreya-Regular_ddy.woff") format("woff");
}

@font-face {
	font-family: ProximaNova-Bold_ddv;
	src: url("fonts/ProximaNova-Bold_ddv.woff") format("woff");
}

@font-face {
	font-family: STKaitiSC-Regular_cof;
	src: url("fonts/STKaitiSC-Regular_cof.woff") format("woff");
}

@font-face {
	font-family: ProximaNova-Semibold_ddu;
	src: url("fonts/ProximaNova-Semibold_ddu.woff") format("woff");
}

]]></style>

</svg>
