<?xml version="1.0" encoding="UTF-8" standalone="no"?>
<!DOCTYPE svg PUBLIC "-//W3C//DTD SVG 1.1//EN"
"http://www.w3.org/Graphics/SVG/1.1/DTD/svg11.dtd">


<!-- Page 89 -->
<svg x="0" y="0" width="921" height="1196" viewBox="0 0 921 1196" version="1.1" xmlns="http://www.w3.org/2000/svg" xmlns:xlink="http://www.w3.org/1999/xlink"
style="display: block;margin-left: auto;margin-right: auto;">
<defs>

<style type="text/css"><![CDATA[

.g1_89{
fill: none;
stroke: #3986C6;
stroke-width: 1.6194444;
stroke-linecap: butt;
stroke-linejoin: miter;
stroke-miterlimit: 4;
}
.g2_89{
fill: #3986C6;
}
.g3_89{
fill: none;
stroke: #3986C6;
stroke-width: 1.1458334;
stroke-linecap: butt;
stroke-linejoin: miter;
}
.g4_89{
fill: #ACBF3B;
}
.g5_89{
fill: none;
stroke: #ACBF3B;
stroke-width: 2.2916667;
stroke-linecap: butt;
stroke-linejoin: miter;
stroke-miterlimit: 4;
}
.g6_89{
fill: none;
stroke: #3986C6;
stroke-width: 1.5277778;
stroke-linecap: butt;
stroke-linejoin: miter;
stroke-miterlimit: 4;
}
.g7_89{
fill: #FFFFFF;
}

.s1_89{
font-size: 12.99px;
font-family: ProximaNova-Semibold_csu;
fill: #231F20;
}
.s2_89{
font-size: 18.33px;
font-family: ProximaNova-Bold_cs-;
fill: #231F20;
}
.s3_89{
font-size: 25.97px;
font-family: ProximaNova-Bold_cs-;
fill: #FFFFFF;
}
.s4_89{
font-size: 25.97px;
font-family: ProximaNova-Bold_cs-;
fill: #231F20;
}
.s5_89{
font-size: 13.75px;
font-family: ProximaNova-Extrabld_cst;
fill: #FFFFFF;
}
.s6_89{
font-size: 19.10px;
font-family: Alegreya-Regular_csr;
fill: #231F20;
}
.s7_89{
font-size: 32.08px;
font-family: STKaiti-SC-Bold_cqx;
fill: #3986C6;
}
.s8_89{
font-size: 32.08px;
font-family: STKaitiSC-Regular_cof;
fill: #231F20;
}
.s9_89{
font-size: 19.10px;
font-family: Alegreya-Bold_csx;
fill: #3986C6;
}
.s10_89{
font-size: 19.48px;
font-family: ProximaNova-Bold_cs-;
fill: #231F20;
}

]]></style>

</defs>
<path d="M0,0
L0,1196
L921,1196
L921,0 Z " 
fill="#FFFFFF" stroke="none" />
<text 
transform="matrix(0, -1, 1, 0, 54, 1084)"
dx="0,0,0,0,0,0,0,0,0,0,0,0,0,0,0,0,0,0,0" 
class="s1_89"
>Go Far with Chinese</text>

<text 
x="38" 
y="1149" 
dx="0,0" 
class="s2_89"
>66</text>

<path d="M50.4,1089.3l0,38.7" class="g1_89" />
<path d="M50.4,1125.4c-1.4,0,-2.5,1.1,-2.5,2.6c0,1.4,1.1,2.6,2.5,2.6c1.5,0,2.6,-1.2,2.6,-2.6c0,-1.5,-1.1,-2.6,-2.6,-2.6Z" class="g2_89" />
<path d="M128.3,119.2C118.2,119.2,110,111,110,100.9l0,-20.2l23.1,0c10.2,0,18.4,8.2,18.4,18.3l0,20.2Z" class="g2_89" />
<path d="M115.8,81.3l508.3,0" class="g3_89" />
<path d="M129.6,118.8l494.5,0" class="g3_89" />
<text 
x="114" 
y="107" 
dx="0,0,0" 
class="s3_89"
>3b </text>

<text 
x="157" 
y="107" 
dx="0,0,0,0,0,-1,0,0,0,0,0,0,0,0,0,0,0,0,0,0,0,0,0,0,0" 
class="s4_89"
>New Words in Conversation</text>

<path d="M507.3,109.9c-6,0,-10.8,-4.8,-10.8,-10.8l0,-10.8l115.2,0c5.9,0,10.8,4.8,10.8,10.8l0,10.8Z" class="g4_89" />
<text 
x="512" 
y="103" 
dx="0,0,0,0,0,0,0,0,0,0,0,0" 
class="s5_89"
>I¸T¶ºPº¶TIV¶</text>

<text 
x="109" 
y="162" 
dx="0,0,0,0,0,0,0,0,0,0,0,0,0,0,0,0,0,0,0,0,0,0,0,0,0,0,0.3,0,0,0,0,0,0,0,0,0,0,0,0,0,0,0,0,0,0,0,0,0,0,0,0,0,0,0,-0.3,0,0,0,-0.2,0,0,-0.4,0,-0.2,0,0,0,0,-0.2,0,0,0,0,0,0,0,0,0,0,0,0,0,0,0,-0.6,-0.4,0,0,0,0,0,0" 
class="s6_89"
>Listen to the audio and try to understand as much as you can. Then read the dialogue, using </text>

<text 
x="110" 
y="188" 
dx="0,0,0,0,0,0,0,-0.4,0,0,0,0,0,-0.4,0,0,0,0,0,0,0,-0.3,0,-0.2,0,0,0,0,0,0.3,0,0,0,0,0,0,0,0,0,0,0,0,0,0,-0.2,0,0,0,0,0,0,0,0,-0.2,0,0,0,0,0,0,0,0,-0.3,0,-0.2,0,-0.4,-0.4" 
class="s6_89"
>the pinyin text and vocabulary list to figure out unfamiliar words. </text>

<text 
x="165" 
y="248" 
dx="0,0" 
class="s7_89"
>小明</text>

<text 
x="230" 
y="248" 
dx="0,0,0,0,0,0,0" 
class="s8_89"
>是你的朋友吗？</text>

<text 
x="166" 
y="306" 
dx="0,0,0,0,0,0,0,0" 
class="s8_89"
>他是我的好朋友。</text>

<text 
x="166" 
y="365" 
dx="0,0,0,0" 
class="s8_89"
>他有没有</text>

<text 
x="295" 
y="365" 
dx="0,0" 
class="s7_89"
>宠物</text>

<text 
x="359" 
y="365" 
dx="0" 
class="s8_89"
>？</text>

<text 
x="166" 
y="424" 
dx="0,0,0" 
class="s8_89"
>他没有</text>

<text 
x="263" 
y="424" 
dx="0,0" 
class="s7_89"
>宠物</text>

<text 
x="327" 
y="424" 
dx="0,0,0,0" 
class="s8_89"
>，可是我</text>

<text 
x="167" 
y="461" 
dx="0" 
class="s8_89"
>有</text>

<text 
x="199" 
y="460" 
dx="0,0" 
class="s7_89"
>宠物</text>

<text 
x="263" 
y="461" 
dx="0" 
class="s8_89"
>。</text>

<text 
x="166" 
y="519" 
dx="0,0,0" 
class="s8_89"
>你有几</text>

<text 
x="263" 
y="519" 
dx="0,0,0" 
class="s7_89"
>只宠物</text>

<text 
x="359" 
y="519" 
dx="0" 
class="s8_89"
>？</text>

<text 
x="166" 
y="578" 
dx="0,0,0" 
class="s8_89"
>我有两</text>

<text 
x="263" 
y="578" 
dx="0,0,0" 
class="s7_89"
>只宠物</text>

<text 
x="359" 
y="578" 
dx="0" 
class="s8_89"
>。</text>

<text 
x="166" 
y="637" 
dx="0,0,0" 
class="s8_89"
>我有一</text>

<text 
x="263" 
y="636" 
dx="0,0,0" 
class="s7_89"
>只宠物</text>

<text 
x="359" 
y="637" 
dx="0" 
class="s8_89"
>！</text>

<text 
x="391" 
y="636" 
dx="0" 
class="s7_89"
>它</text>

<text 
x="423" 
y="637" 
dx="0" 
class="s8_89"
>是</text>

<text 
x="170" 
y="673" 
dx="0,0" 
class="s8_89"
>一只</text>

<text 
x="234" 
y="673" 
dx="0" 
class="s7_89"
>猫</text>

<text 
x="266" 
y="673" 
dx="0" 
class="s8_89"
>。</text>

<text 
x="530" 
y="252" 
dx="0,-0.1,0,0,0,0,0,0" 
class="s9_89"
>Xiǎomíng</text>

<text 
x="613" 
y="251" 
dx="0,0,0,0,0,0,0,0,0,0,0,0,0,0,0,-0.3,0,0,0,0,0" 
class="s6_89"
>shì nǐ de péngyou ma?</text>

<text 
x="530" 
y="312" 
dx="0,-1,0,0,0,0,0,0,-0.3,0,0,0,0,0,0,0,0,0,0,0,0,0,-0.3,0,0" 
class="s6_89"
>Tā shì wǒ de hǎo péngyou.</text>

<text 
x="530" 
y="371" 
dx="0,-1,0,0,-0.3,0,0,0,0,0,0,-0.3,0,0" 
class="s6_89"
>Tā yǒu méiyǒu </text>

<text 
x="646" 
y="371" 
dx="0,-0.1,0,0,0,0,0" 
class="s9_89"
>chǒngwù</text>

<text 
x="719" 
y="371" 
dx="0" 
class="s6_89"
>?</text>

<text 
x="530" 
y="426" 
dx="0,-1,0,0,0,0,0,-0.3,0,0" 
class="s6_89"
>Tā méiyǒu </text>

<text 
x="614" 
y="426" 
dx="0,-0.1,0,0,0,0,0" 
class="s9_89"
>chǒngwù</text>

<text 
x="687" 
y="426" 
dx="0,-0.4,0,-0.4,0,0,0,0,0,-0.3,0" 
class="s6_89"
>, kěshì wǒ </text>

<text 
x="530" 
y="463" 
dx="0,-0.3,0,0" 
class="s6_89"
>yǒu </text>

<text 
x="562" 
y="463" 
dx="0,-0.1,0,0,0,0,0" 
class="s9_89"
>chǒngwù</text>

<text 
x="635" 
y="463" 
dx="0" 
class="s6_89"
>.</text>

<text 
x="530" 
y="523" 
dx="0,-0.2,0,0,-0.3,0,0,0,0,0" 
class="s6_89"
>Nǐ yǒu jǐ </text>

<text 
x="598" 
y="523" 
dx="0,0,0,0,0,-0.1,0,0,0,0,0" 
class="s9_89"
>zhī chǒngwù</text>

<text 
x="700" 
y="523" 
dx="0" 
class="s6_89"
>?</text>

<text 
x="530" 
y="581" 
dx="0,-1.4,0,0,-0.3,0,0,0,0,0,0,0" 
class="s6_89"
>Wǒ yǒu liǎng</text>

<text 
x="634" 
y="582" 
dx="0,0,0,0,0,-0.1,0,0,0,0,0" 
class="s9_89"
>zhī chǒngwù</text>

<text 
x="735" 
y="581" 
dx="0" 
class="s6_89"
>.</text>

<text 
x="530" 
y="640" 
dx="0,-1.4,0,0,-0.3,0,0,0,0" 
class="s6_89"
>Wǒ yǒu yì</text>

<text 
x="608" 
y="640" 
dx="0,0,0,0,0,-0.1,0,0,0,0,0" 
class="s9_89"
>zhī chǒngwù</text>

<text 
x="710" 
y="640" 
dx="0,0" 
class="s6_89"
>! </text>

<text 
x="719" 
y="640" 
dx="0,-0.7" 
class="s9_89"
>Tā</text>

<text 
x="742" 
y="640" 
dx="0,0,0,0" 
class="s6_89"
>shì </text>

<text 
x="531" 
y="673" 
dx="0,0,0,0,0,0,0" 
class="s6_89"
>yì zhī </text>

<text 
x="576" 
y="673" 
dx="0,0,0" 
class="s9_89"
>māo</text>

<text 
x="611" 
y="673" 
dx="0" 
class="s6_89"
>.</text>

<image preserveAspectRatio="none" x="110" y="210" width="47" height="54" xlink:href="89/img/1.png" />
<image preserveAspectRatio="none" x="110" y="271" width="47" height="54" xlink:href="89/img/2.png" />
<image preserveAspectRatio="none" x="110" y="333" width="47" height="54" xlink:href="89/img/3.png" />
<image preserveAspectRatio="none" x="110" y="403" width="47" height="54" xlink:href="89/img/4.png" />
<image preserveAspectRatio="none" x="110" y="484" width="47" height="54" xlink:href="89/img/5.png" />
<image preserveAspectRatio="none" x="110" y="546" width="47" height="54" xlink:href="89/img/6.png" />
<image preserveAspectRatio="none" x="110" y="615" width="47" height="54" xlink:href="89/img/7.png" />
<text 
x="457" 
y="800" 
dx="0" 
class="s9_89"
>T</text>

<text 
x="500" 
y="800" 
dx="0" 
class="s9_89"
>F</text>

<text 
x="142" 
y="836" 
dx="0" 
class="s9_89"
>1</text>

<text 
x="160" 
y="836" 
dx="0,0,0,0,0,0,0,0,0,0,0,0,0,0.2,-0.3,0,-1.5,0,0,0,0,0,0,0,0,0,-0.4" 
class="s6_89"
>Xiaoming is Owen’s friend. </text>

<path d="M462.6,838.6c5.7,0,10.4,-4.6,10.4,-10.4c0,-5.8,-4.7,-10.5,-10.4,-10.5c-5.8,0,-10.5,4.7,-10.5,10.5c0,5.8,4.7,10.4,10.5,10.4Z" class="g5_89" />
<path d="M503.8,838.6c5.8,0,10.5,-4.6,10.5,-10.4c0,-5.8,-4.7,-10.5,-10.5,-10.5c-5.8,0,-10.5,4.7,-10.5,10.5c0,5.8,4.7,10.4,10.5,10.4Z" class="g5_89" />
<text 
x="142" 
y="871" 
dx="0" 
class="s9_89"
>2</text>

<text 
x="160" 
y="871" 
dx="0,0,0,0,0,0,0,0,0,0,0,0,0,0,0,-0.3,0,0,0,0,0,-0.4,-0.4" 
class="s6_89"
>Xiaoming has two pets. </text>

<path d="M462.6,874.1c5.7,0,10.4,-4.7,10.4,-10.5c0,-5.8,-4.7,-10.4,-10.4,-10.4c-5.8,0,-10.5,4.6,-10.5,10.4c0,5.8,4.7,10.5,10.5,10.5Z" class="g5_89" />
<path d="M503.8,874.1c5.8,0,10.5,-4.7,10.5,-10.5c0,-5.8,-4.7,-10.4,-10.5,-10.4c-5.8,0,-10.5,4.6,-10.5,10.4c0,5.8,4.7,10.5,10.5,10.5Z" class="g5_89" />
<text 
x="142" 
y="907" 
dx="0" 
class="s9_89"
>³</text>

<text 
x="161" 
y="907" 
dx="0,0.2,-0.3,0,0,0,0,0,0,0,0,-0.3,0,0,0,0,0,-0.4" 
class="s6_89"
>Owen has two pets.</text>

<path d="M462.6,909.5c5.7,0,10.4,-4.6,10.4,-10.4c0,-5.8,-4.7,-10.5,-10.4,-10.5c-5.8,0,-10.5,4.7,-10.5,10.5c0,5.8,4.7,10.4,10.5,10.4Z" class="g5_89" />
<path d="M503.8,909.5c5.8,0,10.5,-4.6,10.5,-10.4c0,-5.8,-4.7,-10.5,-10.5,-10.5c-5.8,0,-10.5,4.7,-10.5,10.5c0,5.8,4.7,10.4,10.5,10.4Z" class="g5_89" />
<text 
x="142" 
y="942" 
dx="0" 
class="s9_89"
>´</text>

<text 
x="161" 
y="942" 
dx="0,-0.2,0,-0.4,0,0,0,0,0,0,0,0,0,0,0,0,0" 
class="s6_89"
>Miko has one pet.</text>

<path d="M462.6,945c5.7,0,10.4,-4.7,10.4,-10.5c0,-5.8,-4.7,-10.4,-10.4,-10.4c-5.8,0,-10.5,4.6,-10.5,10.4c0,5.8,4.7,10.5,10.5,10.5Z" class="g5_89" />
<path d="M503.8,945c5.8,0,10.5,-4.7,10.5,-10.5c0,-5.8,-4.7,-10.4,-10.5,-10.4c-5.8,0,-10.5,4.6,-10.5,10.4c0,5.8,4.7,10.5,10.5,10.5Z" class="g5_89" />
<path d="M111.2,816.4l0,-60.5l316.9,0" class="g6_89" />
<path d="M428.1,759.5c2,0,3.7,-1.6,3.7,-3.6c0,-2.1,-1.7,-3.7,-3.7,-3.7c-2,0,-3.7,1.6,-3.7,3.7c0,2,1.7,3.6,3.7,3.6Z" class="g2_89" />
<path d="M126.6,763.5l217.1,0l0,-18.6l-217.1,0l0,18.6Z" class="g7_89" />
<text 
x="131" 
y="760" 
dx="0,0,0,0,0,0,0,0,0,0,0,0,0,0,0,0,0,0,0" 
class="s10_89"
>Comprehension Check</text>

<path d="M405.4,747.5c5.5,10.7,1.2,23.9,-9.5,29.3c-10.7,5.5,-23.9,1.3,-29.4,-9.5C361,756.6,365.3,743.4,376,738c10.8,-5.5,23.9,-1.3,29.4,9.5Z" class="g7_89" />
<path d="M405.4,747.5c5.5,10.7,1.2,23.9,-9.5,29.3c-10.7,5.5,-23.9,1.3,-29.4,-9.5C361,756.6,365.3,743.4,376,738c10.8,-5.5,23.9,-1.3,29.4,9.5Z" class="g3_89" />
<path d="M413,735.6c-1.1,-1,-3,-0.7,-4.1,0.6l-20.5,24.4c-1.1,1.3,-3,1.4,-4.2,0.2l-2.9,-2.9c-1.2,-1.2,-3.1,-1.3,-4.2,-0.2c-1.1,1.1,-1,3,0.3,4.2l7.2,7.1c1.2,1.2,3.1,1.1,4.2,-0.2l24.4,-29c1.1,-1.3,1,-3.2,-0.2,-4.2Z" class="g4_89" />


<!-- Any embedded fonts defined here -->
<style type="text/css" ><![CDATA[

@font-face {
	font-family: ProximaNova-Extrabld_cst;
	src: url("fonts/ProximaNova-Extrabld_cst.woff") format("woff");
}

@font-face {
	font-family: ProximaNova-Bold_cs-;
	src: url("fonts/ProximaNova-Bold_cs-.woff") format("woff");
}

@font-face {
	font-family: Alegreya-Bold_csx;
	src: url("fonts/Alegreya-Bold_csx.woff") format("woff");
}

@font-face {
	font-family: Alegreya-Regular_csr;
	src: url("fonts/Alegreya-Regular_csr.woff") format("woff");
}

@font-face {
	font-family: STKaitiSC-Regular_cof;
	src: url("fonts/STKaitiSC-Regular_cof.woff") format("woff");
}

@font-face {
	font-family: ProximaNova-Semibold_csu;
	src: url("fonts/ProximaNova-Semibold_csu.woff") format("woff");
}

@font-face {
	font-family: STKaiti-SC-Bold_cqx;
	src: url("fonts/STKaiti-SC-Bold_cqx.woff") format("woff");
}

]]></style>

</svg>
