<?xml version="1.0" encoding="UTF-8" standalone="no"?>
<!DOCTYPE svg PUBLIC "-//W3C//DTD SVG 1.1//EN"
"http://www.w3.org/Graphics/SVG/1.1/DTD/svg11.dtd">


<!-- Page 394 -->
<svg x="0" y="0" width="921" height="1196" viewBox="0 0 921 1196" version="1.1" xmlns="http://www.w3.org/2000/svg" xmlns:xlink="http://www.w3.org/1999/xlink"
style="display: block;margin-left: auto;margin-right: auto;">
<defs>

<style type="text/css"><![CDATA[

.g1_394{
fill: none;
stroke: #ACBF3B;
stroke-width: 2.2916667;
stroke-linecap: butt;
stroke-linejoin: miter;
stroke-miterlimit: 4;
}
.g2_394{
fill: none;
stroke: #3986C6;
stroke-width: 1.1458334;
stroke-linecap: butt;
stroke-linejoin: miter;
stroke-miterlimit: 4;
}
.g3_394{
fill: #3986C6;
}
.g4_394{
fill: #FFFFFF;
}
.g5_394{
fill: none;
stroke: #3986C6;
stroke-width: 1.1458334;
stroke-linecap: butt;
stroke-linejoin: miter;
}
.g6_394{
fill: #ACBF3B;
}
.g7_394{
fill: none;
stroke: #3986C6;
stroke-width: 1.6194444;
stroke-linecap: butt;
stroke-linejoin: miter;
stroke-miterlimit: 4;
}

.s1_394{
font-size: 12.99px;
font-family: ProximaNova-Semibold_dcl;
fill: #231F20;
}
.s2_394{
font-size: 18.33px;
font-family: ProximaNova-Bold_dcf;
fill: #231F20;
}
.s3_394{
font-size: 19.10px;
font-family: Alegreya-Bold_dcn;
fill: #3986C6;
}
.s4_394{
font-size: 19.10px;
font-family: Alegreya-Regular_dci;
fill: #231F20;
}
.s5_394{
font-size: 19.86px;
font-family: ProximaNova-Bold_dcf;
fill: #231F20;
}

]]></style>

</defs>
<path d="M0,0
L0,1196
L921,1196
L921,0 Z " 
fill="#FFFFFF" stroke="none" />
<text 
transform="matrix(0, 1, -1, 0, 867, 881)"
dx="0,0,0,0,0,0,0,0,0,0,0" 
class="s1_394"
>Chapter 15 </text>

<text 
transform="matrix(0, 1, -1, 0, 867, 951)"
dx="0,0" 
class="s1_394"
>• </text>

<text 
transform="matrix(0, 1, -1, 0, 867, 962)"
dx="0,0,0,0,0,0,0,0,0,0,0,0,0,0,0,0,0,0,0,0,0" 
class="s1_394"
>School and Activities</text>

<text 
x="857" 
y="1155" 
dx="0,0,0" 
class="s2_394"
>371</text>

<image preserveAspectRatio="none" x="17" y="22" width="365" height="370" xlink:href="394/img/1.png" />
<image preserveAspectRatio="none" x="382" y="22" width="364" height="370" xlink:href="394/img/2.png" />
<image preserveAspectRatio="none" x="746" y="22" width="157" height="845" xlink:href="394/img/3.png" />
<image preserveAspectRatio="none" x="17" y="391" width="365" height="370" xlink:href="394/img/4.png" />
<image preserveAspectRatio="none" x="382" y="391" width="364" height="370" xlink:href="394/img/5.png" />
<image preserveAspectRatio="none" x="17" y="761" width="729" height="106" xlink:href="394/img/6.png" />
<text 
x="757" 
y="922" 
dx="0" 
class="s3_394"
>T</text>

<text 
x="798" 
y="922" 
dx="0" 
class="s3_394"
>F</text>

<text 
x="138" 
y="960" 
dx="0" 
class="s3_394"
>1</text>

<text 
x="161" 
y="960" 
dx="0,0,0,0,0,0,0,0,0,-0.2,0,0,0,0,0,0,0,0,0,0,0,0,0,0,0,0,0,0,0,0,0,0,-0.2,-0.4,-0.3,0,0,0,0,0,0,0,0,-0.3,0,0.3,0,0,-0.3,0,0,0,-0.4" 
class="s4_394"
>Leo and Martin both think that Maya sings very well. </text>

<path d="M763,962.9c5.8,0,10.5,-4.6,10.5,-10.4C773.5,946.7,768.8,942,763,942c-5.8,0,-10.5,4.7,-10.5,10.5c0,5.8,4.7,10.4,10.5,10.4Z" class="g1_394" />
<path d="M804,962.9c5.7,0,10.4,-4.6,10.4,-10.4C814.4,946.7,809.7,942,804,942c-5.8,0,-10.5,4.7,-10.5,10.5c0,5.8,4.7,10.4,10.5,10.4Z" class="g1_394" />
<text 
x="138" 
y="998" 
dx="0" 
class="s3_394"
>2</text>

<text 
x="161" 
y="1001" 
dx="0,-0.6,-0.3,0,0.3,-0.3,0,0,0,0,0,0,0,-0.3,0,0.3,0,0,0,0,0,-0.3,0,0,0,0,0,0,0,0,0,0,0,0,0,0,-0.3,0,-0.2,0,0,0,0,0,0,0,0,0,-0.3,0,0,0,0,0,-0.4" 
class="s4_394"
>Everyone is very happy that school vacation is coming. </text>

<path d="M763,1004.2c5.8,0,10.5,-4.7,10.5,-10.5c0,-5.8,-4.7,-10.4,-10.5,-10.4c-5.8,0,-10.5,4.6,-10.5,10.4c0,5.8,4.7,10.5,10.5,10.5Z" class="g1_394" />
<path d="M804,1004.2c5.7,0,10.4,-4.7,10.4,-10.5c0,-5.8,-4.7,-10.4,-10.4,-10.4c-5.8,0,-10.5,4.6,-10.5,10.4c0,5.8,4.7,10.5,10.5,10.5Z" class="g1_394" />
<text 
x="138" 
y="1039" 
dx="0" 
class="s3_394"
>3</text>

<text 
x="161" 
y="1042" 
dx="0,-0.2,0,0,0,0,0,0,0,0,0,0,0,0,0,0,0,0,0,0,0,0,0,0,0,0,0,0,0,0,0,0,0,0,0,-0.3,0,0,0,0,0,0,0,0,0,0,0,0,0,0,0,0,0,-0.4" 
class="s4_394"
>Martin joined a club and got to know some new friends.</text>

<path d="M763,1045.4c5.8,0,10.5,-4.6,10.5,-10.4c0,-5.8,-4.7,-10.5,-10.5,-10.5c-5.8,0,-10.5,4.7,-10.5,10.5c0,5.8,4.7,10.4,10.5,10.4Z" class="g1_394" />
<path d="M804,1045.4c5.7,0,10.4,-4.6,10.4,-10.4c0,-5.8,-4.7,-10.5,-10.4,-10.5c-5.8,0,-10.5,4.7,-10.5,10.5c0,5.8,4.7,10.4,10.5,10.4Z" class="g1_394" />
<text 
x="137" 
y="1081" 
dx="0" 
class="s3_394"
>4</text>

<text 
x="161" 
y="1081" 
dx="0,-0.3,-0.3,-0.3,0,-0.2,0,0,0,0,0,0,0,0,-0.2,0,-0.4,-0.8,-0.4,0,-0.2,0,0,0,0,0,0,0,0,0,0,0,0,0,0,0,0,-0.3,0,0,0,0,0,0,0,0,0,0,0,0,0,0,0,-0.3,0,-0.2,0,0,0,0,0,0,0,0,-0.2,0,0,0,0,0,0,0" 
class="s4_394"
>According to Miko, Martin is not happy about school vacation because it </text>

<text 
x="162" 
y="1107" 
dx="0,0,0,0,0,0,0,0,0,0,0,0,0,0,0,0,0,0,0,0,0,0,0,0,0,0,0,0,0,0,0,0,0,0,0,0,0,0,0,0,0,0,0,-0.2,-0.4,-0.3,0" 
class="s4_394"
>means he will not be able to meet up with Maya.</text>

<path d="M763,1096.6c5.8,0,10.5,-4.7,10.5,-10.5c0,-5.8,-4.7,-10.4,-10.5,-10.4c-5.8,0,-10.5,4.6,-10.5,10.4c0,5.8,4.7,10.5,10.5,10.5Z" class="g1_394" />
<path d="M804,1096.6c5.7,0,10.4,-4.7,10.4,-10.5c0,-5.8,-4.7,-10.4,-10.4,-10.4c-5.8,0,-10.5,4.6,-10.5,10.4c0,5.8,4.7,10.5,10.5,10.5Z" class="g1_394" />
<path d="M88.7,955.3l0,-60.5l330.4,0" class="g2_394" />
<path d="M419.1,897.5c1.5,0,2.7,-1.2,2.7,-2.7c0,-1.6,-1.2,-2.8,-2.7,-2.8c-1.5,0,-2.8,1.2,-2.8,2.8c0,1.5,1.3,2.7,2.8,2.7Z" class="g3_394" />
<path d="M382.9,886.4c5.5,10.7,1.2,23.9,-9.5,29.3c-10.8,5.5,-23.9,1.3,-29.4,-9.5c-5.5,-10.7,-1.2,-23.9,9.5,-29.3c10.8,-5.5,23.9,-1.3,29.4,9.5Z" class="g4_394" />
<path d="M382.9,886.4c5.5,10.7,1.2,23.9,-9.5,29.3c-10.8,5.5,-23.9,1.3,-29.4,-9.5c-5.5,-10.7,-1.2,-23.9,9.5,-29.3c10.8,-5.5,23.9,-1.3,29.4,9.5Z" class="g5_394" />
<path d="M390.5,874.5c-1.2,-1,-3,-0.7,-4.1,0.6l-20.5,24.4c-1.1,1.3,-3,1.4,-4.2,0.2l-2.9,-2.9c-1.3,-1.2,-3.1,-1.3,-4.2,-0.2c-1.1,1.1,-1,3,0.2,4.2l7.3,7.1c1.2,1.2,3.1,1.1,4.2,-0.2l24.4,-29c1.1,-1.3,1,-3.2,-0.2,-4.2Z" class="g6_394" />
<path d="M104,907.1l226.5,0l0,-23.4l-226.5,0l0,23.4Z" class="g4_394" />
<text 
x="114" 
y="899" 
dx="0,0,0,0,0,0,0,0,0,0,0,0,0,0,0,0,0,0,0" 
class="s5_394"
>Comprehension Check</text>

<path d="M872.3,1089.3l0,38.7" class="g7_394" />
<path d="M872.3,1125.4c-1.5,0,-2.6,1.1,-2.6,2.6c0,1.4,1.1,2.6,2.6,2.6c1.4,0,2.6,-1.2,2.6,-2.6c0,-1.5,-1.2,-2.6,-2.6,-2.6Z" class="g3_394" />


<!-- Any embedded fonts defined here -->
<style type="text/css" ><![CDATA[

@font-face {
	font-family: Alegreya-Regular_dci;
	src: url("fonts/Alegreya-Regular_dci.woff") format("woff");
}

@font-face {
	font-family: ProximaNova-Semibold_dcl;
	src: url("fonts/ProximaNova-Semibold_dcl.woff") format("woff");
}

@font-face {
	font-family: ProximaNova-Bold_dcf;
	src: url("fonts/ProximaNova-Bold_dcf.woff") format("woff");
}

@font-face {
	font-family: Alegreya-Bold_dcn;
	src: url("fonts/Alegreya-Bold_dcn.woff") format("woff");
}

]]></style>

</svg>
