<?xml version="1.0" encoding="UTF-8" standalone="no"?>
<!DOCTYPE svg PUBLIC "-//W3C//DTD SVG 1.1//EN"
"http://www.w3.org/Graphics/SVG/1.1/DTD/svg11.dtd">


<!-- Page 149 -->
<svg x="0" y="0" width="921" height="1196" viewBox="0 0 921 1196" version="1.1" xmlns="http://www.w3.org/2000/svg" xmlns:xlink="http://www.w3.org/1999/xlink"
style="display: block;margin-left: auto;margin-right: auto;">
<defs>

<style type="text/css"><![CDATA[

.g1_149{
fill: none;
stroke: #3986C6;
stroke-width: 1.6194444;
stroke-linecap: butt;
stroke-linejoin: miter;
stroke-miterlimit: 4;
}
.g2_149{
fill: #3986C6;
}
.g3_149{
fill: none;
stroke: #ACBF3B;
stroke-width: 2.2916667;
stroke-linecap: butt;
stroke-linejoin: miter;
stroke-miterlimit: 4;
}
.g4_149{
fill: none;
stroke: #3986C6;
stroke-width: 1.1458334;
stroke-linecap: butt;
stroke-linejoin: miter;
}
.g5_149{
fill: #ACBF3B;
}

.s1_149{
font-size: 12.99px;
font-family: ProximaNova-Semibold_cw0;
fill: #231F20;
}
.s2_149{
font-size: 18.33px;
font-family: ProximaNova-Bold_cvr;
fill: #231F20;
}
.s3_149{
font-size: 18.33px;
font-family: ProximaNova-Bold_cvr;
fill: #3986C6;
}
.s4_149{
font-size: 19.10px;
font-family: Alegreya-Regular_cvz;
fill: #231F20;
}
.s5_149{
font-size: 19.10px;
font-family: Alegreya-Bold_cvx;
fill: #3986C6;
}
.s6_149{
font-size: 19.10px;
font-family: Alegreya-Bold_cvx;
fill: #231F20;
}
.s7_149{
font-size: 32.08px;
font-family: STKaitiSC-Regular_cof;
fill: #231F20;
}
.s8_149{
font-size: 25.97px;
font-family: ProximaNova-Bold_cvr;
fill: #FFFFFF;
}
.s9_149{
font-size: 25.97px;
font-family: ProximaNova-Bold_cvr;
fill: #231F20;
}
.s10_149{
font-size: 13.75px;
font-family: ProximaNova-Extrabld_cw7;
fill: #FFFFFF;
}

]]></style>

</defs>
<path d="M0,0
L0,1196
L921,1196
L921,0 Z " 
fill="#FFFFFF" stroke="none" />
<text 
transform="matrix(0, -1, 1, 0, 54, 1084)"
dx="0,0,0,0,0,0,0,0,0,0,0,0,0,0,0,0,0,0,0" 
class="s1_149"
>Go Far with Chinese</text>

<text 
x="34" 
y="1149" 
dx="0,0,0" 
class="s2_149"
>126</text>

<path d="M50.4,1089.3l0,38.7" class="g1_149" />
<path d="M50.4,1125.4c-1.4,0,-2.5,1.1,-2.5,2.6c0,1.4,1.1,2.6,2.5,2.6c1.5,0,2.6,-1.2,2.6,-2.6c0,-1.5,-1.1,-2.6,-2.6,-2.6Z" class="g2_149" />
<text 
x="112" 
y="101" 
dx="0,-0.4,0,0,0,0,0,0,0" 
class="s3_149"
>Passage 3</text>

<text 
x="206" 
y="101" 
dx="0,0,0,0,0,0,0,0,0,0,0,0,0,0,0,0,0,0,0,-0.4,0,0,0,0,0,0,0,0,0,0,0,0,0,0,0,0,0,0,0,0,0,0,0,0,0,0,0,0,0,0,0,0,0,0,0,0,0,0,0,0,0,0,0,0,0,0,0,0,0,-0.4,-1.3,-0.4" 
class="s4_149"
>Listen to the speaker talk about the sports he and his classmates play. </text>

<text 
x="110" 
y="127" 
dx="0,-0.4,-0.2,0,0,0,0,0,0,-0.3,0,0,0,-0.3,0,0,0,0,0,0,0,0,0,0,0,0,0,0,0,0,0,0,0,0,0,0,0,0,0,0,0,0,-0.2,0,0,0,0,0,0,0,0" 
class="s4_149"
>Are the following statements true (T) or false (F)?</text>

<text 
x="698" 
y="169" 
dx="0" 
class="s5_149"
>T</text>

<text 
x="741" 
y="169" 
dx="0" 
class="s5_149"
>F</text>

<text 
x="117" 
y="205" 
dx="0" 
class="s5_149"
>±</text>

<text 
x="144" 
y="205" 
dx="0,-0.2,0,0,0,0,0,0,0,-0.4,0,0,0,0,-0.2,0,0,0,0,0,0,0,0,0,0,0,-0.4,0,0,0,0,0,0,0,0,0,0,0,0,0,0,0,0,0,0,0,0,0,0,0,0,0,0,0,0,0,0,0,0,0,0,0,0,0,0,0" 
class="s4_149"
>The speaker frequently plays sports with his classmates at school.</text>

<path d="M703.9,207.6c5.8,0,10.4,-4.7,10.4,-10.5c0,-5.8,-4.6,-10.5,-10.4,-10.5c-5.8,0,-10.5,4.7,-10.5,10.5c0,5.8,4.7,10.5,10.5,10.5Z" class="g3_149" />
<path d="M745.1,207.6c5.8,0,10.5,-4.7,10.5,-10.5c0,-5.8,-4.7,-10.5,-10.5,-10.5c-5.8,0,-10.4,4.7,-10.4,10.5c0,5.8,4.6,10.5,10.4,10.5Z" class="g3_149" />
<text 
x="117" 
y="240" 
dx="0" 
class="s5_149"
>²</text>

<text 
x="144" 
y="240" 
dx="0,-0.4,0,0,0,0,0,0,0,0,0,0,0,0,0,0,0,0,0,0,-0.4,0,0,0,0,-0.4,0,0,0,0,0,0,0,0,-0.4,0,0,0,0,0,0,0,0,0,0,0,0,0,-0.3,-0.3,0,-1.5" 
class="s4_149"
>All the students like playing basketball and soccer.</text>

<path d="M703.9,243c5.8,0,10.4,-4.7,10.4,-10.5c0,-5.7,-4.6,-10.4,-10.4,-10.4c-5.8,0,-10.5,4.7,-10.5,10.4c0,5.8,4.7,10.5,10.5,10.5Z" class="g3_149" />
<path d="M745.1,243c5.8,0,10.5,-4.7,10.5,-10.5c0,-5.7,-4.7,-10.4,-10.5,-10.4c-5.8,0,-10.4,4.7,-10.4,10.4c0,5.8,4.6,10.5,10.4,10.5Z" class="g3_149" />
<text 
x="117" 
y="275" 
dx="0" 
class="s5_149"
>³</text>

<text 
x="144" 
y="275" 
dx="0,-0.4,0,0,0,0,0,0,0,0,0,0,0,0,0,0,0,0,0,0,0,0,-0.2,0,0,0,0,0,-0.4,0,0,0,0,0,0,0,0,0,0,0,0,0,0,0,0,0,0,0,0,0" 
class="s4_149"
>None of the students can play tennis or ping-pong.</text>

<path d="M703.9,278.5c5.8,0,10.4,-4.7,10.4,-10.5c0,-5.8,-4.6,-10.5,-10.4,-10.5c-5.8,0,-10.5,4.7,-10.5,10.5c0,5.8,4.7,10.5,10.5,10.5Z" class="g3_149" />
<path d="M745.1,278.5c5.8,0,10.5,-4.7,10.5,-10.5c0,-5.8,-4.7,-10.5,-10.5,-10.5c-5.8,0,-10.4,4.7,-10.4,10.5c0,5.8,4.6,10.5,10.4,10.5Z" class="g3_149" />
<text 
x="117" 
y="311" 
dx="0" 
class="s5_149"
>´</text>

<text 
x="144" 
y="311" 
dx="0,-0.2,0,0,0,0,0,0,0,0,0,0,0,0,0,0,-1.5,0,0,0,-0.3,0,0,0,0,0,0,0,0,0,-0.4,0,0,0,0,0,-0.4,0,0,0,0,0,0,0,0,0,0,0,0,-0.3,0,0,0,0,0,0,-0.2,0,0,0,0,0,0,0,0,0" 
class="s4_149"
>The students don’t want to play basketball this week because they </text>

<text 
x="145" 
y="337" 
dx="0,-0.3,0,0,0,0,0,0,0,0,0,-0.4,0,0,0,0,-0.3,-0.3,0,-1.5" 
class="s4_149"
>want to play soccer.</text>

<path d="M703.9,326.7c5.8,0,10.4,-4.7,10.4,-10.4c0,-5.8,-4.6,-10.5,-10.4,-10.5c-5.8,0,-10.5,4.7,-10.5,10.5c0,5.7,4.7,10.4,10.5,10.4Z" class="g3_149" />
<path d="M745.1,326.7c5.8,0,10.5,-4.7,10.5,-10.4c0,-5.8,-4.7,-10.5,-10.5,-10.5c-5.8,0,-10.4,4.7,-10.4,10.5c0,5.7,4.6,10.4,10.4,10.4Z" class="g3_149" />
<path d="M129.1,428.9c-10.1,0,-18.3,-8.2,-18.3,-18.3l0,-20.2l23.1,0c10.1,0,18.3,8.2,18.3,18.3l0,20.2Z" class="g2_149" />
<text 
x="110" 
y="468" 
dx="0,-0.4,-0.3,0,0,0,0,0,0,0,0,0,0,0,0,0,0,0,0,0,0,0,-0.2,0,0,-0.3,0,0,0,0,0,0,0,0,0,0,0,0,0,0,0,0,-0.2,0,0,0,-0.2,0,0,0,-0.4,-0.4,0,0,0,0,0,0,0,0,0,0,0,0,0,0,0,0,0,0,0,0,0,0,-0.3,0,0,0,0,0,-0.4,-1.3,-0.4,0,0,0,0,-0.2,0" 
class="s4_149"
>How sports-oriented are your classmates? In groups, discuss which sports you play, where </text>

<text 
x="110" 
y="494" 
dx="0,-0.3,0,0,0,0,0,-0.4,0,0,0,0,0,0,0,0,-0.3,0,0,0,0,0,0,0,0,0,-0.3,-0.6,-0.4,0,0,0,0,0,0,0,-0.6,-0.4,0,0,0,0,0,0,0,0,0,0,-0.4,0,0,0,0,0,0,0,0,0,0,0,0,0,0,0,0,0,0,0,0,0,0,-0.4,0,0,0,0,0,0,0,0,0,0,0,0,0,0,-0.3,0,0,0,0,0,-0.4,0" 
class="s4_149"
>you play them (for instance, at home, at school, or at a sports field), which sports you like </text>

<text 
x="111" 
y="520" 
dx="0,0,0,0,-0.3,0,0,0,0,-0.4,0,0,0,0,0,0,0,0,0,0,0,0,0,0,0,0,0,0,-0.3,0,-1,0,0,0,0,0,-0.4,0,0,0,0,0,0,0,0,0,0,-0.4,0,-1,0,-0.4,0,0,0,0,0,0,0,0,0,0,0,0,0,0,0,-0.2,0,0,0,0,0,0,0,0,0,0,0,0,-0.3,0,0,0,0,0,-0.2,0,0,0" 
class="s4_149"
>to watch, and which sports you’d like to learn. Take notes on the responses of your group </text>

<text 
x="110" 
y="546" 
dx="0,0,0,0,0,0,0,0,0,0,0,0,0,0,0,0,0,0,0,0,0,0,0,0,0,0,0,0,0,0,0,0,0,-0.3,0,0,0,0,0,0,0,0,0,0,0,0,0,0" 
class="s4_149"
>members to tell the class about your discussion.</text>

<text 
x="110" 
y="599" 
dx="0,0,-0.4,0,0,0,0,0" 
class="s4_149"
>Example:</text>

<text 
x="110" 
y="645" 
dx="0,0" 
class="s6_149"
>A:</text>

<text 
x="135" 
y="648" 
dx="0,0,0,0,0,0" 
class="s7_149"
>谁会踢足球？</text>

<text 
x="110" 
y="703" 
dx="0,0" 
class="s6_149"
>B:</text>

<text 
x="135" 
y="706" 
dx="0,0,0,0,0,0,0,0,0,0,0,0,0,0,0,0,0,0" 
class="s7_149"
>我不会踢足球，可是我喜欢看足球比赛。</text>

<text 
x="111" 
y="760" 
dx="0,0" 
class="s6_149"
>C:</text>

<text 
x="135" 
y="763" 
dx="0,0,0,0,0,0,0,0,0,0,0,0,0,0,0,0" 
class="s7_149"
>我会踢足球。我经常在学校踢足球。</text>

<text 
x="110" 
y="817" 
dx="0,0" 
class="s6_149"
>A:</text>

<text 
x="135" 
y="820" 
dx="0,0,0,0,0,0,0" 
class="s7_149"
>我想学踢足球。</text>

<path d="M120.2,391.1l305.5,0" class="g4_149" />
<path d="M133.9,428.5l291.8,0" class="g4_149" />
<text 
x="120" 
y="417" 
dx="0,0" 
class="s8_149"
>B </text>

<text 
x="161" 
y="417" 
dx="0,0,0,0,0,0,0,0,0" 
class="s9_149"
>Speaking </text>

<path d="M295.5,420.5c-6,0,-10.8,-4.8,-10.8,-10.8l0,-10.8l131,0c6,0,10.8,4.8,10.8,10.8l0,10.8Z" class="g5_149" />
<path d="M296.8,417.9l119.4,0l0,-15.2l-119.4,0l0,15.2Z" class="g5_149" />
<text 
x="300" 
y="413" 
dx="0,0,0,0,0,0,0,0,0,0,0,0,0" 
class="s10_149"
>interPersonal</text>



<!-- Any embedded fonts defined here -->
<style type="text/css" ><![CDATA[

@font-face {
	font-family: ProximaNova-Extrabld_cw7;
	src: url("fonts/ProximaNova-Extrabld_cw7.woff") format("woff");
}

@font-face {
	font-family: ProximaNova-Bold_cvr;
	src: url("fonts/ProximaNova-Bold_cvr.woff") format("woff");
}

@font-face {
	font-family: Alegreya-Bold_cvx;
	src: url("fonts/Alegreya-Bold_cvx.woff") format("woff");
}

@font-face {
	font-family: ProximaNova-Semibold_cw0;
	src: url("fonts/ProximaNova-Semibold_cw0.woff") format("woff");
}

@font-face {
	font-family: STKaitiSC-Regular_cof;
	src: url("fonts/STKaitiSC-Regular_cof.woff") format("woff");
}

@font-face {
	font-family: Alegreya-Regular_cvz;
	src: url("fonts/Alegreya-Regular_cvz.woff") format("woff");
}

]]></style>

</svg>
