<?xml version="1.0" encoding="UTF-8" standalone="no"?>
<!DOCTYPE svg PUBLIC "-//W3C//DTD SVG 1.1//EN"
"http://www.w3.org/Graphics/SVG/1.1/DTD/svg11.dtd">


<!-- Page 332 -->
<svg x="0" y="0" width="921" height="1196" viewBox="0 0 921 1196" version="1.1" xmlns="http://www.w3.org/2000/svg" xmlns:xlink="http://www.w3.org/1999/xlink"
style="display: block;margin-left: auto;margin-right: auto;">
<defs>

<style type="text/css"><![CDATA[

.g1_332{
fill: none;
stroke: #3986C6;
stroke-width: 1.6194444;
stroke-linecap: butt;
stroke-linejoin: miter;
stroke-miterlimit: 4;
}
.g2_332{
fill: #3986C6;
}
.g3_332{
fill: #E2E3E5;
}
.g4_332{
fill: #ED692E;
}
.g5_332{
fill: none;
stroke: #ED692E;
stroke-width: 1.5277778;
stroke-linecap: butt;
stroke-linejoin: miter;
}
.g6_332{
fill: #8B8D9A;
}
.g7_332{
fill: none;
stroke: #3986C6;
stroke-width: 1.5277778;
stroke-linecap: butt;
stroke-linejoin: miter;
}
.g8_332{
fill: none;
stroke: #3986C6;
stroke-width: 1.5277778;
stroke-linecap: butt;
stroke-linejoin: miter;
stroke-miterlimit: 4;
}

.s1_332{
font-size: 12.99px;
font-family: ProximaNova-Semibold_ci9;
fill: #231F20;
}
.s2_332{
font-size: 18.33px;
font-family: ProximaNova-Bold_d9-;
fill: #231F20;
}
.s3_332{
font-size: 19.10px;
font-family: Alegreya-Bold_da6;
fill: #231F20;
}
.s4_332{
font-size: 32.08px;
font-family: STKaitiSC-Regular_cof;
fill: #231F20;
}
.s5_332{
font-size: 19.10px;
font-family: Alegreya-Regular_da1;
fill: #231F20;
}
.s6_332{
font-size: 22.92px;
font-family: STKaitiSC-Bold_cmk;
fill: #231F20;
}
.s7_332{
font-size: 16.04px;
font-family: Alegreya-Regular_da1;
fill: #231F20;
}

]]></style>

</defs>
<path d="M0,0
L0,1196
L921,1196
L921,0 Z " 
fill="#FFFFFF" stroke="none" />
<text 
transform="matrix(0, 1, -1, 0, 867, 818)"
dx="0,0,0,0,0,0,0,0,0,0,0" 
class="s1_332"
>Chapter 13 </text>

<text 
transform="matrix(0, 1, -1, 0, 867, 887)"
dx="0,0" 
class="s1_332"
>• </text>

<text 
transform="matrix(0, 1, -1, 0, 867, 898)"
dx="0,-0.2,0,0,0,0,0,0,0,0,0,0,0,0,0,0,0,0,0,0" 
class="s1_332"
>Looking for Support </text>

<text 
transform="matrix(0, 1, -1, 0, 867, 1020)"
dx="0,0" 
class="s1_332"
>• </text>

<text 
transform="matrix(0, 1, -1, 0, 867, 1031)"
dx="0,0,0,0,0,0,0,0,0" 
class="s1_332"
>Section 1</text>

<text 
x="855" 
y="1149" 
dx="0,0,0" 
class="s2_332"
>309</text>

<path d="M872.3,1089.3l0,38.7" class="g1_332" />
<path d="M872.3,1125.4c-1.5,0,-2.6,1.1,-2.6,2.6c0,1.4,1.1,2.6,2.6,2.6c1.4,0,2.6,-1.2,2.6,-2.6c0,-1.5,-1.2,-2.6,-2.6,-2.6Z" class="g2_332" />
<path d="M523.4,664.1c-3.8,0,-6.9,3.1,-6.9,6.9l0,16.9c0,3.8,3.1,6.8,6.9,6.8l52.9,0c3.8,0,6.9,-3,6.9,-6.8l0,-16.9c0,-3.8,-3.1,-6.9,-6.9,-6.9Z" class="g3_332" />
<path d="M235.9,663.8c-3.8,0,-6.9,3.1,-6.9,6.9l0,16.9c0,3.8,3.1,6.8,6.9,6.8l20,0c3.8,0,6.8,-3,6.8,-6.8l0,-16.9c0,-3.8,-3,-6.9,-6.8,-6.9Z" class="g3_332" />
<path d="M204.7,565.3c-3.8,0,-6.8,3.1,-6.8,6.9l0,16.9c0,3.8,3,6.8,6.8,6.8l20,0c3.8,0,6.9,-3,6.9,-6.8l0,-16.9c0,-3.8,-3.1,-6.9,-6.9,-6.9Z" class="g3_332" />
<path d="M460.7,566.4c-3.8,0,-6.9,3.1,-6.9,6.9l0,16.8c0,3.8,3.1,6.9,6.9,6.9l20,0c3.8,0,6.9,-3.1,6.9,-6.9l0,-16.8c0,-3.8,-3.1,-6.9,-6.9,-6.9Z" class="g3_332" />
<path d="M524.9,467.6c-3.8,0,-6.9,3.1,-6.9,6.9l0,16.8c0,3.8,3.1,6.9,6.9,6.9l20,0c3.8,0,6.8,-3.1,6.8,-6.9l0,-16.8c0,-3.8,-3,-6.9,-6.8,-6.9Z" class="g3_332" />
<path d="M301.2,466.1c-3.8,0,-6.9,3,-6.9,6.8l0,16.9c0,3.8,3.1,6.9,6.9,6.9l18.4,0c3.8,0,6.9,-3.1,6.9,-6.9l0,-16.9c0,-3.8,-3.1,-6.8,-6.9,-6.8Z" class="g3_332" />
<path d="M236.4,211.6c-3.8,0,-6.9,3,-6.9,6.8l0,17.4c0,3.8,3.1,6.8,6.9,6.8l20,0c3.8,0,6.8,-3,6.8,-6.8l0,-17.4c0,-3.8,-3,-6.8,-6.8,-6.8Z" class="g3_332" />
<path d="M575.2,113.6c-3.8,0,-6.9,3,-6.9,6.8l0,15.3c0,3.8,3.1,6.9,6.9,6.9l15.6,0c3.8,0,6.9,-3.1,6.9,-6.9l0,-15.3c0,-3.8,-3.1,-6.8,-6.9,-6.8Z" class="g3_332" />
<text 
x="117" 
y="133" 
dx="0" 
class="s3_332"
>2</text>

<text 
x="134" 
y="136" 
dx="0,-1.3,-1.3,-1.3,-1.3,-1.3,-1.3,-1.3,-1.3,-1.3,-1.3,-1.3,-1.3,-1.3,-1.3,-1.3,-1.3,-1.3,-1.3,-1.3,-1.3,-1.3,-1.3" 
class="s4_332"
>我昨天没有去打乒乓球，我今天又没有去打乒乓球。</text>

<text 
x="137" 
y="167" 
dx="0,0,0,0,0,0,-1.5,0,0,0,0,0,-0.4,0,0,0,0,0,0,0,0,0,0,0,0,-0.3,0,0,0,0,-0.2,0,-0.4,-1.3,-0.4,0,0,0,0,0,0,0,0,0,0,-1.5,0,0,0,0,0,-0.4,0,0,0,0,0,0,0,0,0,0,0,0,0,0,0,-0.4,0,0,0,0,0,0,0,-1.5" 
class="s5_332"
>I didn’t play ping-pong yesterday, and I didn’t play ping-pong today either.</text>

<text 
x="116" 
y="233" 
dx="0" 
class="s3_332"
>3</text>

<text 
x="132" 
y="236" 
dx="0,0,0,0,0,0,0,0,0,0" 
class="s4_332"
>我明天再给你打电话。</text>

<text 
x="137" 
y="267" 
dx="0,0,0,0,0,0,-0.2,0,0,0,0,-0.3,0,0,0,0,-0.2,0,0,0,0,0,0,0,0,0,-0.2,-0.3,-1.3" 
class="s5_332"
>I’ll call you again tomorrow.</text>

<text 
x="136" 
y="320" 
dx="0" 
class="s6_332"
>再</text>

<text 
x="162" 
y="320" 
dx="0,0,0,0,0,0,0,-0.2,0,0,0,0,0,0,0,0,0,0,0,0,-0.4,0,0,0,0,0,-1.1,-0.4,0,-0.4,0" 
class="s5_332"
>(zài) can also mean “then.” So </text>

<text 
x="392" 
y="320" 
dx="0" 
class="s6_332"
>先</text>

<text 
x="418" 
y="320" 
dx="0,0,0,0,0,0,0,-0.4,-0.4,-0.4,-0.4" 
class="s5_332"
>(xiān). . .</text>

<text 
x="487" 
y="320" 
dx="0" 
class="s6_332"
>再</text>

<text 
x="514" 
y="320" 
dx="0,0,0,0,0,0,0,0,0,0" 
class="s5_332"
>(zài) and </text>

<text 
x="584" 
y="320" 
dx="0" 
class="s6_332"
>先</text>

<text 
x="611" 
y="320" 
dx="0,0,0,0,0,0,0,-0.4,-0.4,-0.4,-0.4" 
class="s5_332"
>(xiān). . .</text>

<text 
x="679" 
y="320" 
dx="0,0" 
class="s6_332"
>然后</text>

<text 
x="728" 
y="320" 
dx="0,0,-0.2,0,0,0,0,0,0" 
class="s5_332"
>(ránhòu) </text>

<text 
x="138" 
y="346" 
dx="0,0,0,0,0,-0.4,0,0,0,0,0,0,0,0,0,0,0,0,0,-1.1,-0.4" 
class="s5_332"
>mean “first...then.” </text>

<text 
x="292" 
y="346" 
dx="0" 
class="s6_332"
>先</text>

<text 
x="319" 
y="346" 
dx="0,0,0,0,0,0,0,-0.4,-0.4,-0.4,-0.4" 
class="s5_332"
>(xiān). . .</text>

<text 
x="386" 
y="346" 
dx="0" 
class="s6_332"
>再</text>

<text 
x="413" 
y="346" 
dx="0,0,0,0,0,0,0,0,0,0,0,0,0,0,0,0,0,0,0,0,0,0,0,0,0,0,0,0,0,0,0,0,0,0,0,0,0,-0.3,0,0,0,0,0,0,0,0,0,0,0,0,0,0,0" 
class="s5_332"
>(zài) is used to describe the sequence of activities </text>

<text 
x="138" 
y="372" 
dx="0,0,0,0,0,0,0,-0.2,0,0,0,0,0,0,0,0,0,0,0,0,0,0,-0.2,0,0,0,0,0,0,0,0,0,0,0,0,0,0,0,0,0,0,0,0,0,0,-0.2,-0.2,0,0,0,0,0,0,-1.3,-0.4" 
class="s5_332"
>that are a part of a routine or that happen regularly. </text>

<text 
x="544" 
y="372" 
dx="0,-0.4,0,0,-0.8,-0.4" 
class="s5_332"
>Also, </text>

<text 
x="585" 
y="372" 
dx="0" 
class="s6_332"
>先</text>

<text 
x="612" 
y="372" 
dx="0,0,0,0,0,0,0,-0.4,-0.4,-0.4,-0.4" 
class="s5_332"
>(xiān). . .</text>

<text 
x="680" 
y="372" 
dx="0" 
class="s6_332"
>再</text>

<text 
x="707" 
y="372" 
dx="0,0,0,0,0,0,0,-0.2,0,0,0,0,0,-0.3,0" 
class="s5_332"
>(zài) can give </text>

<text 
x="138" 
y="398" 
dx="0,0,0,0,0,0,-0.2,0,0,0,0,0,0" 
class="s5_332"
>the order of </text>

<text 
x="237" 
y="398" 
dx="0,0,-0.3,0,0,0,0,0,0,0,0,0,0,0,0,0,0,0,0,0,0,0,0,0,0,0,0,0,0,0,0,0,0,0,0,0,-0.2,-0.6,-0.4,0,0,0,0,0,0" 
class="s5_332"
>events that will happen in the future, while </text>

<text 
x="572" 
y="398" 
dx="0" 
class="s6_332"
>先</text>

<text 
x="599" 
y="398" 
dx="0,0,0,0,0,0,0,-0.4,-0.4,-0.4,-0.4" 
class="s5_332"
>(xiān). . .</text>

<text 
x="667" 
y="398" 
dx="0,0" 
class="s6_332"
>然后</text>

<text 
x="717" 
y="398" 
dx="0,0,-0.2,0,0,0,0,0,0" 
class="s5_332"
>(ránhòu) </text>

<text 
x="139" 
y="422" 
dx="0,-0.2,0,0,0,0,0,0,0,0,0,0,0,0,0,0,0,0,-0.2,0,-0.3,0,0,0,0,0,0,0,0,0,0,0,0,0,0,0,0,0,0,0,0,0,0,0,0,0,0,0,0,-0.2,0,0,0,-0.3,0,0,0,-0.4,-0.4" 
class="s5_332"
>can be used when referring to both past and future events. </text>

<text 
x="116" 
y="488" 
dx="0" 
class="s3_332"
>4</text>

<text 
x="133" 
y="491" 
dx="0,0,0,0,0,0,0,0,0,0,0,0,0,0,0,0" 
class="s4_332"
>他早上喜欢先喝点儿热水，再吃饭。</text>

<text 
x="137" 
y="522" 
dx="0,-0.2,0,0,0,0,0,0,0,0,0,0,0,0,0,-0.4,0,0,0,0,0,0,-0.4,0,0,0,0,0,0,0,0,0,0,0,0,0,0,0,0,0,0,0,0,0,-0.3,0,0,0,0,0,0,0,0,0,0,-0.4,0,0,0,0,0,0,0,-0.4,-0.3,0,0,0,-0.2,0,0,0,-0.2,0,0,0,-0.4" 
class="s5_332"
>In the morning, he likes to drink some hot water first, then have breakfast. </text>

<text 
x="117" 
y="587" 
dx="0" 
class="s3_332"
>5</text>

<text 
x="133" 
y="590" 
dx="0,0,0,0,0,0,0,0,0,0,0,0,0,0,0,0" 
class="s4_332"
>我想先去给她买礼物，再去看电影。</text>

<text 
x="137" 
y="621" 
dx="0,0,0,-0.3,0,0,0,0,0,0,0,0,0,0,0,0,0,0,0,0,0,0,0,0,0,-0.3,0,0,0,0,0,0,0,0,0,0,0,0,-0.4,0,0,0,0,0,0,0,0,0,0,0,0,0,0,0,0,-0.3,0,0,-0.6,-0.4" 
class="s5_332"
>I want to go buy a gift for her first, then go see a movie. </text>

<text 
x="117" 
y="686" 
dx="0,0" 
class="s3_332"
>6 </text>

<text 
x="132" 
y="689" 
dx="0,0,0,0,0,0,0,0,0,0,0,0,0,0,0,0,0,0,0,0,0,0" 
class="s4_332"
>我昨天先去给她买了礼物，然后去看了一个电影。</text>

<text 
x="137" 
y="720" 
dx="0,-0.8,0,0,0,0,-0.2,0,-0.4,-1.3,-0.4,0,0,0,-0.3,0,0,0,0,0,0,0,0,0,0,0,0,0,0,0,0,0,0,-0.3,0,0,0,0,0,0,0,0,0,0,0,0,-0.4,0,0,0,0,0,0,0,0,-0.3,0,0,0,0,0,0,0,0,0,0,0,0,0,0,-0.3,0,0,-0.6,-0.4" 
class="s5_332"
>Yesterday, I went to buy a gift for her first, then I went to see a movie. </text>

<text 
x="570" 
y="105" 
dx="0,0,0.2" 
class="s7_332"
>yòu</text>

<text 
x="237" 
y="203" 
dx="0,0.2,0.2" 
class="s7_332"
>zài</text>

<text 
x="297" 
y="461" 
dx="0,0.2,0.2,0.2,0.2" 
class="s7_332"
>xiān </text>

<text 
x="524" 
y="461" 
dx="0,0.2,0.2" 
class="s7_332"
>zài</text>

<text 
x="200" 
y="559" 
dx="0,0.2,0.2,0.2,0.2" 
class="s7_332"
>xiān </text>

<text 
x="462" 
y="559" 
dx="0,0.2,0.2" 
class="s7_332"
>zài</text>

<text 
x="230" 
y="658" 
dx="0,0.2,0.2,0.2,0.2" 
class="s7_332"
>xiān </text>

<text 
x="526" 
y="658" 
dx="0,0.1,0.2,0.2,0.2,0.2" 
class="s7_332"
>ránhòu</text>

<text 
x="350" 
y="931" 
dx="0,-0.4,0,-0.2,0,0,0,0,0,0,0,0,0,0,0,0,0,0,0,-0.4,0,0,-0.2,0,0,0,0,0,0,0,0,0,0,0,0,0,0,0,0,0,0,-0.3,0,0,0,0,-0.2,0" 
class="s5_332"
>Here is a Chinese expression that means you are </text>

<text 
x="350" 
y="957" 
dx="0,0,0,0,0,0,0,0,0,0,0,0,0,0,0,0,0,0,0,0,-0.3,0,0,0" 
class="s5_332"
>running out of chances: </text>

<path d="M93.2,852.6l0,-27l5.2,0l0,22.4l11.9,0l0,4.6Z" class="g4_332" />
<path d="M137.5,852.6l-5.2,0l-2.2,-6.4l-10.7,0l-2.2,6.4l-5.2,0l9.6,-27l6.3,0ZM124.7,830.1l-4,11.7l8,0Z" class="g4_332" />
<path d="M157.2,825.6l5,0l0,27.3l-5.6,0L143.9,833l0,19.6l-4.9,0l0,-27l5.7,0l12.5,19.7Z" class="g4_332" />
<path d="M178.2,853.3c-8.1,0,-13.8,-5.4,-13.8,-14.1c0,-8.8,5.7,-14.3,13.9,-14.3c3.2,0,7,0.9,9.4,2.3l-1.7,4.6c-2.3,-1.4,-5,-2.3,-7.6,-2.3c-5.3,0,-8.7,3.6,-8.7,9.5c0,6,3.2,9.8,8.7,9.8c1.8,0,3.7,-0.5,5,-1.1l0,-5.2l-7,0l0,-4.4l11.8,0l0,12.6c-2.9,1.7,-6.6,2.6,-10,2.6Z" class="g4_332" />
<path d="M202,853.3c-6.8,0,-11.1,-3.9,-11.1,-10.9l0,-16.8l5.2,0l0,16.1c0,4.4,1.9,6.9,6.1,6.9c3.7,0,5.7,-2,5.7,-6.7l0,-16.3l5.2,0l0,16.3c0,7.4,-4.1,11.4,-11.1,11.4Z" class="g4_332" />
<path d="M267.3,853.3c-8.1,0,-13.8,-5.4,-13.8,-14.1c0,-8.8,5.6,-14.3,13.9,-14.3c3.2,0,7,0.9,9.4,2.3l-1.7,4.6c-2.3,-1.4,-5,-2.3,-7.6,-2.3c-5.3,0,-8.7,3.6,-8.7,9.5c0,6,3.2,9.8,8.7,9.8c1.8,0,3.7,-0.5,5,-1.1l0,-5.2l-7,0l0,-4.4l11.8,0l0,12.6c-2.9,1.7,-6.6,2.6,-10,2.6Z" class="g4_332" />
<path d="M280.2,852.6l0,-27l18.1,0l0,4.4l-13,0l0,6.8l10.6,0l0,4.5l-10.6,0l0,6.9l13,0l0,4.4Z" class="g4_332" />
<path d="M172.7,864.1c-2.1,-1.4,-4.4,-2.1,-6.9,-2.1c-5.2,0,-8.7,3.6,-8.7,9.5c0,6,3.4,9.7,8.7,9.7c2.8,0,5.4,-1,7.3,-2.4l1,4.9c-2.1,1.3,-5.5,2.1,-8.5,2.1c-8.1,0,-13.7,-5.3,-13.7,-14.1c0,-8.7,5.6,-14.3,13.9,-14.3c3.1,0,6.2,0.8,8.5,2.1Z" class="g2_332" />
<path d="M194.2,885.1l0,-11.3l-12.6,0l0,11.3l-5.2,0l0,-27l5.2,0l0,11.1l12.6,0l0,-11.1l5.1,0l0,27Z" class="g2_332" />
<path d="M267.3,885.1l0,-27l5.2,0l0,22.4l12,0l0,4.6Z" class="g2_332" />
<path d="M287.2,885.1l0,-27l5.1,0l0,22.4l12,0l0,4.6Z" class="g2_332" />
<path d="M307,885.1l0,-27l18.1,0l0,4.4l-13,0l0,6.8l10.7,0l0,4.5l-10.7,0l0,6.9l13,0l0,4.4Z" class="g2_332" />
<path d="M345.8,858.1l4.9,0l0,27.3l-5.5,0L332.5,865.5l0,19.6l-4.9,0l0,-27l5.6,0l12.6,19.7Z" class="g2_332" />
<path d="M365.9,885.8c-8.1,0,-13.8,-5.4,-13.8,-14.1c0,-8.8,5.6,-14.3,13.9,-14.3c3.2,0,7,0.9,9.4,2.3l-1.7,4.6c-2.3,-1.4,-5,-2.3,-7.6,-2.3c-5.3,0,-8.7,3.6,-8.7,9.5c0,6,3.2,9.8,8.7,9.8c1.8,0,3.7,-0.5,5,-1.1l0,-5.2l-7,0l0,-4.4l11.8,0l0,12.6c-2.9,1.7,-6.6,2.6,-10,2.6Z" class="g2_332" />
<path d="M379.6,885.1l0,-27l18.1,0l0,4.4l-13,0l0,6.8l10.7,0l0,4.5l-10.7,0l0,6.9l13,0l0,4.4Z" class="g2_332" />
<path d="M265.6,885l-7.6,0l-7.8,-21.5l-33.2,0L209.3,885l-7.7,0l27.8,-74.9l8.8,0ZM233.7,817.7l-14.1,38.9l28,0Z" class="g4_332" />
<path d="M265.6,885l-7.6,0l-7.8,-21.5l-33.2,0L209.3,885l-7.7,0l27.8,-74.9l8.8,0L265.6,885ZM233.7,817.7l-14.1,38.9l28,0L233.7,817.7Z" class="g5_332" />
<path d="M234.9,790.4c0,0,3.6,-2.9,8.7,1.1c5.1,4.1,6,2.2,6,2.2c0,0,-2,3.5,-5.5,4c-3.6,0.5,-8.3,1,-9.2,-0.2Z" class="g4_332" />
<path d="M235.1,810.2l-2.5,0l0,-17.9l2.5,0l0,17.9Z" class="g6_332" />
<path d="M319.7,828.2l75.8,0c7.8,0,14.1,7.8,14.1,17.4l0,40.2l231.2,0" class="g7_332" />
<path d="M319.7,832.8c2.5,0,4.6,-2,4.6,-4.6c0,-2.5,-2.1,-4.5,-4.6,-4.5c-2.5,0,-4.6,2,-4.6,4.5c0,2.6,2.1,4.6,4.6,4.6Z" class="g2_332" />
<path d="M94.3,871.3l0.6,233.3c0,10.1,8.3,18.3,18.4,18.3l692.3,0" class="g7_332" />
<path d="M805.6,1127.5c2.6,0,4.6,-2.1,4.6,-4.6c0,-2.5,-2,-4.6,-4.6,-4.6c-2.5,0,-4.5,2.1,-4.5,4.6c0,2.5,2,4.6,4.5,4.6Z" class="g2_332" />
<path d="M805.8,1120.6L805.3,913.3c-0.1,-15.2,-12.4,-27.5,-27.6,-27.5l-275.1,0" class="g8_332" />
<image preserveAspectRatio="none" x="136" y="911" width="191" height="186" xlink:href="332/img/1.png" />
<text 
x="345" 
y="1025" 
dx="0,0,0,0,0,0,0,0,0,0,0,0,0" 
class="s4_332"
>有再一再二，没有再三再四。</text>

<text 
x="348" 
y="1067" 
dx="0,0,0,0,0,-0.3,0,0,0,0,0,0,0,0,0,0,0,-0.2,0,0,0,0,0,0,-0.2,0,0,0,0,0,0,0,0,0,0,0,0,0,0,0,0,0,0,0,-0.4,0,0,0,0" 
class="s5_332"
>Can you write a rough translation of this saying?</text>

<text 
x="385" 
y="995" 
dx="0,0.2,0.2,0.2" 
class="s7_332"
>zài </text>

<text 
x="449" 
y="995" 
dx="0,0.2,0.2,0.2" 
class="s7_332"
>zài </text>

<text 
x="609" 
y="995" 
dx="0,0.2,0.2,0.2" 
class="s7_332"
>zài </text>

<text 
x="674" 
y="995" 
dx="0,0.2,0.2" 
class="s7_332"
>zài</text>



<!-- Any embedded fonts defined here -->
<style type="text/css" ><![CDATA[

@font-face {
	font-family: Alegreya-Bold_da6;
	src: url("fonts/Alegreya-Bold_da6.woff") format("woff");
}

@font-face {
	font-family: STKaitiSC-Bold_cmk;
	src: url("fonts/STKaitiSC-Bold_cmk.woff") format("woff");
}

@font-face {
	font-family: ProximaNova-Semibold_ci9;
	src: url("fonts/ProximaNova-Semibold_ci9.woff") format("woff");
}

@font-face {
	font-family: STKaitiSC-Regular_cof;
	src: url("fonts/STKaitiSC-Regular_cof.woff") format("woff");
}

@font-face {
	font-family: Alegreya-Regular_da1;
	src: url("fonts/Alegreya-Regular_da1.woff") format("woff");
}

@font-face {
	font-family: ProximaNova-Bold_d9-;
	src: url("fonts/ProximaNova-Bold_d9-.woff") format("woff");
}

]]></style>

</svg>
