<?xml version="1.0" encoding="UTF-8" standalone="no"?>
<!DOCTYPE svg PUBLIC "-//W3C//DTD SVG 1.1//EN"
"http://www.w3.org/Graphics/SVG/1.1/DTD/svg11.dtd">


<!-- Page 111 -->
<svg x="0" y="0" width="921" height="1196" viewBox="0 0 921 1196" version="1.1" xmlns="http://www.w3.org/2000/svg" xmlns:xlink="http://www.w3.org/1999/xlink"
style="display: block;margin-left: auto;margin-right: auto;">
<defs>

<style type="text/css"><![CDATA[

.g1_111{
fill: none;
stroke: #3986C6;
stroke-width: 1.6194444;
stroke-linecap: butt;
stroke-linejoin: miter;
stroke-miterlimit: 4;
}
.g2_111{
fill: #3986C6;
}
.g3_111{
fill: none;
stroke: #ACBF3B;
stroke-width: 2.2916667;
stroke-linecap: butt;
stroke-linejoin: miter;
stroke-miterlimit: 4;
}
.g4_111{
fill: none;
stroke: #3986C6;
stroke-width: 1.1458334;
stroke-linecap: butt;
stroke-linejoin: miter;
stroke-miterlimit: 4;
}
.g5_111{
fill: #FFFFFF;
}
.g6_111{
fill: none;
stroke: #3986C6;
stroke-width: 1.1458334;
stroke-linecap: butt;
stroke-linejoin: miter;
}
.g7_111{
fill: #ACBF3B;
}

.s1_111{
font-size: 12.99px;
font-family: ProximaNova-Semibold_cuk;
fill: #231F20;
}
.s2_111{
font-size: 18.33px;
font-family: ProximaNova-Bold_cur;
fill: #231F20;
}
.s3_111{
font-size: 19.10px;
font-family: Alegreya-Bold_cuj;
fill: #3986C6;
}
.s4_111{
font-size: 19.10px;
font-family: Alegreya-Regular_cus;
fill: #231F20;
}
.s5_111{
font-size: 19.86px;
font-family: ProximaNova-Bold_cur;
fill: #231F20;
}
.s6_111{
font-size: 32.08px;
font-family: STKaitiSC-Bold_cmk;
fill: #3986C6;
}
.s7_111{
font-size: 32.08px;
font-family: STKaitiSC-Regular_cof;
fill: #231F20;
}
.s8_111{
font-size: 25.97px;
font-family: ProximaNova-Bold_cur;
fill: #FFFFFF;
}
.s9_111{
font-size: 25.97px;
font-family: ProximaNova-Bold_cur;
fill: #231F20;
}
.s10_111{
font-size: 13.75px;
font-family: ProximaNova-Extrabld_cuq;
fill: #FFFFFF;
}

]]></style>

</defs>
<path d="M0,0
L0,1196
L921,1196
L921,0 Z " 
fill="#FFFFFF" stroke="none" />
<text 
transform="matrix(0, -1, 1, 0, 54, 1084)"
dx="0,0,0,0,0,0,0,0,0,0,0,0,0,0,0,0,0,0,0" 
class="s1_111"
>Go Far with Chinese</text>

<text 
x="38" 
y="1149" 
dx="0,0" 
class="s2_111"
>88</text>

<path d="M50.4,1089.3l0,38.7" class="g1_111" />
<path d="M50.4,1125.4c-1.4,0,-2.5,1.1,-2.5,2.6c0,1.4,1.1,2.6,2.5,2.6c1.5,0,2.6,-1.2,2.6,-2.6c0,-1.5,-1.1,-2.6,-2.6,-2.6Z" class="g2_111" />
<text 
x="569" 
y="812" 
dx="0" 
class="s3_111"
>T</text>

<text 
x="611" 
y="812" 
dx="0" 
class="s3_111"
>F</text>

<text 
x="141" 
y="847" 
dx="0" 
class="s3_111"
>1</text>

<text 
x="165" 
y="847" 
dx="0,0,0,0,0,0,0,0,0,0,0,0,0,0,0,0,0,0,-0.3,0,0,0,0,0,0,0,0,0,0,0,0,0,0,-0.4,-0.4" 
class="s4_111"
>Ellen does not know who Daming is. </text>

<path d="M575,850.5c5.8,0,10.5,-4.7,10.5,-10.5c0,-5.8,-4.7,-10.5,-10.5,-10.5c-5.7,0,-10.4,4.7,-10.4,10.5c0,5.8,4.7,10.5,10.4,10.5Z" class="g3_111" />
<path d="M616.7,850.5c5.8,0,10.5,-4.7,10.5,-10.5c0,-5.8,-4.7,-10.5,-10.5,-10.5c-5.8,0,-10.5,4.7,-10.5,10.5c0,5.8,4.7,10.5,10.5,10.5Z" class="g3_111" />
<text 
x="141" 
y="883" 
dx="0" 
class="s3_111"
>2</text>

<text 
x="165" 
y="883" 
dx="0,0,0,0,0,0,0,0,0,0,0,0,0,-0.2,0,-0.4,0,0,0,0,0,0,0,0,0,0,0,0,0,0,0,0,0,0,-0.2,0,0,0,-0.2,0,0,0,0,0,0" 
class="s4_111"
>Ellen tells Miko that Daming is from Beijing.</text>

<path d="M575,885.9c5.8,0,10.5,-4.7,10.5,-10.5C585.5,869.7,580.8,865,575,865c-5.7,0,-10.4,4.7,-10.4,10.4c0,5.8,4.7,10.5,10.4,10.5Z" class="g3_111" />
<path d="M616.7,885.9c5.8,0,10.5,-4.7,10.5,-10.5c0,-5.7,-4.7,-10.4,-10.5,-10.4c-5.8,0,-10.5,4.7,-10.5,10.4c0,5.8,4.7,10.5,10.5,10.5Z" class="g3_111" />
<text 
x="141" 
y="918" 
dx="0" 
class="s3_111"
>3</text>

<text 
x="165" 
y="918" 
dx="0,0,0,0,0,0,0,0,0,0,0,0,0,0,0,0,0,0,0,0,0,0,0,0,0,0,-1.5" 
class="s4_111"
>Daming has an older sister.</text>

<path d="M575,921.4c5.8,0,10.5,-4.7,10.5,-10.5c0,-5.8,-4.7,-10.5,-10.5,-10.5c-5.7,0,-10.4,4.7,-10.4,10.5c0,5.8,4.7,10.5,10.4,10.5Z" class="g3_111" />
<path d="M616.7,921.4c5.8,0,10.5,-4.7,10.5,-10.5c0,-5.8,-4.7,-10.5,-10.5,-10.5c-5.8,0,-10.5,4.7,-10.5,10.5c0,5.8,4.7,10.5,10.5,10.5Z" class="g3_111" />
<path d="M110.4,844.1l0,-60.5l323.5,0" class="g4_111" />
<path d="M434,786.3c1.5,0,2.7,-1.2,2.7,-2.7c0,-1.6,-1.2,-2.8,-2.7,-2.8c-1.6,0,-2.8,1.2,-2.8,2.8c0,1.5,1.2,2.7,2.8,2.7Z" class="g2_111" />
<path d="M125.8,796.9l214.1,0l0,-24.3l-214.1,0l0,24.3Z" class="g5_111" />
<text 
x="126" 
y="788" 
dx="0,0,0,0,0,0,0,0,0,0,0,0,0,0,0,0,0,0,0" 
class="s5_111"
>Comprehension Check</text>

<path d="M404.6,775.2c5.5,10.7,1.2,23.9,-9.5,29.4c-10.8,5.4,-23.9,1.2,-29.4,-9.6c-5.5,-10.7,-1.2,-23.9,9.5,-29.3c10.8,-5.5,23.9,-1.3,29.4,9.5Z" class="g5_111" />
<path d="M404.6,775.2c5.5,10.7,1.2,23.9,-9.5,29.4c-10.8,5.4,-23.9,1.2,-29.4,-9.6c-5.5,-10.7,-1.2,-23.9,9.5,-29.3c10.8,-5.5,23.9,-1.3,29.4,9.5Z" class="g6_111" />
<path d="M412.2,763.3c-1.2,-1,-3,-0.7,-4.1,0.6l-20.5,24.4c-1.1,1.3,-3,1.4,-4.2,0.2l-3,-2.9c-1.2,-1.2,-3.1,-1.3,-4.1,-0.2c-1.1,1.1,-1,3,0.2,4.2l7.3,7.1c1.2,1.2,3.1,1.1,4.2,-0.2l24.3,-29c1.1,-1.3,1.1,-3.2,-0.1,-4.2Z" class="g7_111" />
<text 
x="108" 
y="171" 
dx="0,0,0,0,0,0,0,0,0,0,0,0,0,0,0,0,0,0,0,0,0,0,0,0,0,0,0.3,0,0,0,0,0,0,0,0,0,0,0,0,0,0,0,0,0,0,0,0,0,0,0,0,0,0,0,-0.3,0,0,0,-0.2,0,0,0,0,0,0,-0.2,0,-0.4,0,0,0,0,0,0,0,0,0,0,-1.5,0,0,0,-0.3,0,-0.4,-0.3,0,0,0,0,0,0,0,0" 
class="s4_111"
>Listen to the audio and try to understand as much as you can of Miko and Ellen’s conversation </text>

<text 
x="109" 
y="197" 
dx="0,0,0,0,0,0,0,0,0,0,0,0,0,0,0,0,0,0,0,0,0,0,0,0,0,-0.2,0,0,0,-0.4,0,-0.2,0,0,0,0,-0.2,0,0,0,0,0,0,0,0,0,0,0,0,0,0,0,-0.6,-0.4,0,0,0,0,0,0,0,0,0,0,0,0,0,-0.4,0,0,0,0,0,-0.4,0,0,0,0,0,0,0,-0.3,0,-0.2,0,0,0,0,0,0.3,0,0,0,0,0,0" 
class="s4_111"
>as they look at a photograph. Then read the dialogue, using the pinyin text and vocabulary list </text>

<text 
x="109" 
y="223" 
dx="0,0,0,0,0,0,0,0,-0.2,0,0,0,0,0,0,0,0,-0.2,0,0,0,0,0,0,0,0,-0.3,0,-0.2,0,-0.4" 
class="s4_111"
>to figure out unfamiliar words.</text>

<text 
x="173" 
y="291" 
dx="0" 
class="s6_111"
>这</text>

<text 
x="205" 
y="291" 
dx="0,0,0,0,0,0" 
class="s7_111"
>个人是谁？你</text>

<text 
x="397" 
y="291" 
dx="0,0" 
class="s6_111"
>知道</text>

<text 
x="462" 
y="291" 
dx="0,0" 
class="s7_111"
>吗？</text>

<text 
x="171" 
y="350" 
dx="0,0,0,0,0,0" 
class="s7_111"
>他是白大明。</text>

<text 
x="171" 
y="408" 
dx="0,0" 
class="s7_111"
>他是</text>

<text 
x="235" 
y="408" 
dx="0,0" 
class="s6_111"
>北京</text>

<text 
x="299" 
y="408" 
dx="0,0,0" 
class="s7_111"
>人吗？</text>

<text 
x="171" 
y="467" 
dx="0,0" 
class="s7_111"
>他是</text>

<text 
x="235" 
y="467" 
dx="0,0" 
class="s6_111"
>北京</text>

<text 
x="299" 
y="467" 
dx="0,0" 
class="s7_111"
>人。</text>

<text 
x="173" 
y="525" 
dx="0" 
class="s6_111"
>那</text>

<text 
x="205" 
y="526" 
dx="0,0,0,0,0,0" 
class="s7_111"
>个人是他姐姐</text>

<text 
x="397" 
y="525" 
dx="0,0" 
class="s6_111"
>还是</text>

<text 
x="171" 
y="562" 
dx="0,0,0,0" 
class="s7_111"
>他妹妹？</text>

<text 
x="171" 
y="621" 
dx="0,0,0,0,0,0,0,0,0" 
class="s7_111"
>他没有姐姐，也没有</text>

<text 
x="172" 
y="658" 
dx="0,0,0" 
class="s7_111"
>妹妹。</text>

<text 
x="269" 
y="657" 
dx="0" 
class="s6_111"
>那</text>

<text 
x="301" 
y="658" 
dx="0,0,0" 
class="s7_111"
>个人是</text>

<text 
x="168" 
y="694" 
dx="0,0,0,0,0,0" 
class="s7_111"
>大明的朋友。</text>

<text 
x="564" 
y="294" 
dx="0,0,0" 
class="s3_111"
>Zhè</text>

<text 
x="594" 
y="294" 
dx="0,0,0,0,-0.2,0,0,0,0,0,0,0,0,0,0,0,0,0,-0.2,0" 
class="s4_111"
>ge rén shì shéi? Nǐ </text>

<text 
x="738" 
y="294" 
dx="0,0,0,0,0,0" 
class="s3_111"
>zhīdào</text>

<text 
x="796" 
y="294" 
dx="0,0,0" 
class="s4_111"
>ma?</text>

<text 
x="563" 
y="352" 
dx="0,-1,0,0,0,0,0,0,0,0,0,0,0,0,0,0,0,0" 
class="s4_111"
>Tā shì Bái Dàmíng.</text>

<text 
x="563" 
y="412" 
dx="0,-1,0,0,0,0,0" 
class="s4_111"
>Tā shì </text>

<text 
x="612" 
y="412" 
dx="0,-0.1,0,0,0,0,0" 
class="s3_111"
>Běijīng</text>

<text 
x="673" 
y="412" 
dx="0,-0.2,0,0,0,0,0" 
class="s4_111"
>rén ma?</text>

<text 
x="563" 
y="471" 
dx="0,-1,0,0,0,0,0" 
class="s4_111"
>Tā shì </text>

<text 
x="612" 
y="471" 
dx="0,-0.1,0,0,0,0,0,0" 
class="s3_111"
>Běijīng </text>

<text 
x="673" 
y="471" 
dx="0,-0.2,0,0" 
class="s4_111"
>rén.</text>

<text 
x="563" 
y="530" 
dx="0,-0.3" 
class="s3_111"
>Nà</text>

<text 
x="586" 
y="530" 
dx="0,0,0,0,-0.2,0,0,0,0,0,0,0,0,0,0,0,0,0,0,0,0" 
class="s4_111"
>ge rén shì tā jiějie </text>

<text 
x="725" 
y="530" 
dx="0,0,0,0,0,0" 
class="s3_111"
>háishi</text>

<text 
x="564" 
y="565" 
dx="0,0,0,0,0,0,0,0,0,0" 
class="s4_111"
>tā mèimei?</text>

<text 
x="563" 
y="624" 
dx="0,-1,0,0,0,0,0,-0.3,0,0,0,0,0,0,0,0,-0.6,-0.4,0,-0.3,0,0,0,0,0,-0.3,0" 
class="s4_111"
>Tā méiyǒu jiějie, yě méiyǒu</text>

<text 
x="563" 
y="661" 
dx="0,0,0,0,0,0,0,-0.4" 
class="s4_111"
>mèimei. </text>

<text 
x="632" 
y="661" 
dx="0,-0.3" 
class="s3_111"
>Nà</text>

<text 
x="655" 
y="661" 
dx="0,0,0,0,-0.2,0,0,0,0,0,0" 
class="s4_111"
>ge rén shì </text>

<text 
x="563" 
y="697" 
dx="0,0,0,0,0,0,0,0,0,0,0,0,0,0,0,-0.3,0,0" 
class="s4_111"
>Dàmíng de péngyǒu.</text>

<path d="M128.6,122c-10.2,0,-18.4,-8.2,-18.4,-18.4l0,-20.1l23.2,0c10.1,0,18.3,8.2,18.3,18.3l0,20.2Z" class="g2_111" />
<path d="M117,84.1l508,0" class="g6_111" />
<path d="M130.8,121.6l494.2,0" class="g6_111" />
<text 
x="115" 
y="110" 
dx="0,0,0" 
class="s8_111"
>2b </text>

<text 
x="158" 
y="110" 
dx="0,0,0,0,0,-1,0,0,0,0,0,0,0,0,0,0,0,0,0,0,0,0,0,0,0,0" 
class="s9_111"
>New Words in Conversation </text>

<path d="M508.5,114.8c-6,0,-10.8,-4.8,-10.8,-10.8l0,-10.8l114.2,0c5.9,0,10.8,4.8,10.8,10.8l0,10.8Z" class="g7_111" />
<text 
x="513" 
y="107" 
dx="0,0,0,0,0,0,0,0,0,0,0,0" 
class="s10_111"
>i³terPretiVe</text>

<image preserveAspectRatio="none" x="110" y="313" width="47" height="54" xlink:href="111/img/1.png" />
<image preserveAspectRatio="none" x="110" y="436" width="47" height="54" xlink:href="111/img/2.png" />
<image preserveAspectRatio="none" x="110" y="601" width="47" height="54" xlink:href="111/img/3.png" />
<image preserveAspectRatio="none" x="110" y="252" width="47" height="54" xlink:href="111/img/4.png" />
<image preserveAspectRatio="none" x="110" y="374" width="47" height="54" xlink:href="111/img/5.png" />
<image preserveAspectRatio="none" x="110" y="508" width="47" height="53" xlink:href="111/img/6.png" />


<!-- Any embedded fonts defined here -->
<style type="text/css" ><![CDATA[

@font-face {
	font-family: STKaitiSC-Bold_cmk;
	src: url("fonts/STKaitiSC-Bold_cmk.woff") format("woff");
}

@font-face {
	font-family: ProximaNova-Bold_cur;
	src: url("fonts/ProximaNova-Bold_cur.woff") format("woff");
}

@font-face {
	font-family: Alegreya-Bold_cuj;
	src: url("fonts/Alegreya-Bold_cuj.woff") format("woff");
}

@font-face {
	font-family: ProximaNova-Extrabld_cuq;
	src: url("fonts/ProximaNova-Extrabld_cuq.woff") format("woff");
}

@font-face {
	font-family: ProximaNova-Semibold_cuk;
	src: url("fonts/ProximaNova-Semibold_cuk.woff") format("woff");
}

@font-face {
	font-family: Alegreya-Regular_cus;
	src: url("fonts/Alegreya-Regular_cus.woff") format("woff");
}

@font-face {
	font-family: STKaitiSC-Regular_cof;
	src: url("fonts/STKaitiSC-Regular_cof.woff") format("woff");
}

]]></style>

</svg>
