<?xml version="1.0" encoding="UTF-8" standalone="no"?>
<!DOCTYPE svg PUBLIC "-//W3C//DTD SVG 1.1//EN"
"http://www.w3.org/Graphics/SVG/1.1/DTD/svg11.dtd">


<!-- Page 28 -->
<svg x="0" y="0" width="921" height="1196" viewBox="0 0 921 1196" version="1.1" xmlns="http://www.w3.org/2000/svg" xmlns:xlink="http://www.w3.org/1999/xlink"
style="display: block;margin-left: auto;margin-right: auto;">
<defs>
<clipPath id="c0_28"><path d="M0,1196.3L0,0L921.3,0l0,1196.3Z" /></clipPath>

<style type="text/css"><![CDATA[

.g1_28{
fill: #3986C6;
}
.g2_28{
fill: #ACBF3B;
}

.s1_28{
font-size: 12.99px;
font-family: ProximaNova-Semibold_cnz;
fill: #231F20;
}
.s2_28{
font-size: 18.33px;
font-family: ProximaNova-Bold_cnt;
fill: #231F20;
}
.s3_28{
font-size: 18.33px;
font-family: ProximaNova-Bold_cnt;
fill: #FFFFFF;
}

]]></style>

</defs>
<path d="M0,0
L0,1196
L921,1196
L921,0 Z " 
fill="#FFFFFF" stroke="none" />
<text 
transform="matrix(0, 1, -1, 0, 867, 796)"
dx="0,0,0,0,0,0,0,0,0,0" 
class="s1_28"
>Chapter 1 </text>

<text 
transform="matrix(0, 1, -1, 0, 867, 857)"
dx="0,0" 
class="s1_28"
>• </text>

<text 
transform="matrix(0, 1, -1, 0, 867, 868)"
dx="0,0,0,0,0,0,0,0,0,0,0,0,0,0,0,0,0,0,0,0,0,0,0,0" 
class="s1_28"
>Getting to Know Chinese </text>

<text 
transform="matrix(0, 1, -1, 0, 867, 1020)"
dx="0,0" 
class="s1_28"
>• </text>

<text 
transform="matrix(0, 1, -1, 0, 867, 1031)"
dx="0,0,0,0,0,0,0,0,0" 
class="s1_28"
>Section 1</text>

<text 
x="866" 
y="1149" 
dx="0" 
class="s2_28"
>5</text>

<path d="M871.5,1128l1.6,0l0,-38.7l-1.6,0l0,38.7Z" class="g1_28" />
<path d="M872.3,1125.4c-1.5,0,-2.6,1.1,-2.6,2.6c0,1.4,1.1,2.6,2.6,2.6c1.4,0,2.6,-1.2,2.6,-2.6c0,-1.5,-1.2,-2.6,-2.6,-2.6Z" class="g1_28" />
<image preserveAspectRatio="none" x="13" y="8" width="368" height="375" xlink:href="28/img/1.png" />
<image preserveAspectRatio="none" x="380" y="8" width="368" height="375" xlink:href="28/img/2.png" />
<image preserveAspectRatio="none" x="747" y="8" width="158" height="855" xlink:href="28/img/3.png" />
<image preserveAspectRatio="none" x="13" y="382" width="368" height="374" xlink:href="28/img/4.png" />
<image preserveAspectRatio="none" x="380" y="382" width="368" height="374" xlink:href="28/img/5.png" />
<image preserveAspectRatio="none" x="13" y="756" width="368" height="374" xlink:href="28/img/6.png" />
<image preserveAspectRatio="none" x="380" y="756" width="368" height="374" xlink:href="28/img/7.png" />
<image preserveAspectRatio="none" x="747" y="862" width="158" height="321" xlink:href="28/img/8.png" />
<image preserveAspectRatio="none" x="13" y="1129" width="735" height="54" xlink:href="28/img/9.png" />
<image preserveAspectRatio="none" x="865" y="796" width="12" height="287" xlink:href="28/img/10.png" />
<image preserveAspectRatio="none" x="865" y="796" width="12" height="287" xlink:href="28/img/11.png" />
<image preserveAspectRatio="none" x="867" y="1137" width="11" height="13" xlink:href="28/img/12.png" />
<image preserveAspectRatio="none" x="867" y="1137" width="11" height="13" xlink:href="28/img/13.png" />
<image preserveAspectRatio="none" x="871" y="1089" width="3" height="37" xlink:href="28/img/14.png" />
<image preserveAspectRatio="none" x="869" y="1125" width="6" height="6" xlink:href="28/img/15.png" />
<g clip-path="url(#c0_28)">
<path d="M-934.9,110L0,110L0,-19.4l-934.9,0l0,129.4Z" class="g2_28" />
</g>
<text 
x="866" 
y="1149" 
dx="0" 
class="s3_28"
>5</text>



<!-- Any embedded fonts defined here -->
<style type="text/css" ><![CDATA[

@font-face {
	font-family: ProximaNova-Semibold_cnz;
	src: url("fonts/ProximaNova-Semibold_cnz.woff") format("woff");
}

@font-face {
	font-family: ProximaNova-Bold_cnt;
	src: url("fonts/ProximaNova-Bold_cnt.woff") format("woff");
}

]]></style>

</svg>
