<?xml version="1.0" encoding="UTF-8" standalone="no"?>
<!DOCTYPE svg PUBLIC "-//W3C//DTD SVG 1.1//EN"
"http://www.w3.org/Graphics/SVG/1.1/DTD/svg11.dtd">


<!-- Page 357 -->
<svg x="0" y="0" width="921" height="1196" viewBox="0 0 921 1196" version="1.1" xmlns="http://www.w3.org/2000/svg" xmlns:xlink="http://www.w3.org/1999/xlink"
style="display: block;margin-left: auto;margin-right: auto;">
<defs>

<style type="text/css"><![CDATA[

.g1_357{
fill: none;
stroke: #3986C6;
stroke-width: 1.6194444;
stroke-linecap: butt;
stroke-linejoin: miter;
stroke-miterlimit: 4;
}
.g2_357{
fill: #3986C6;
}
.g3_357{
fill: none;
stroke: #3986C6;
stroke-width: 1.9097222;
stroke-linecap: butt;
stroke-linejoin: miter;
stroke-miterlimit: 4;
}
.g4_357{
fill: #ACBF3B;
}
.g5_357{
fill: none;
stroke: #FFFFFF;
stroke-width: 1.5277778;
stroke-linecap: butt;
stroke-linejoin: miter;
stroke-miterlimit: 4;
}
.g6_357{
fill: none;
stroke: #3986C6;
stroke-width: 1.1458334;
stroke-linecap: butt;
stroke-linejoin: miter;
}
.g7_357{
fill: none;
stroke: #3986C6;
stroke-width: 1.5277778;
stroke-linecap: butt;
stroke-linejoin: miter;
stroke-miterlimit: 4;
}
.g8_357{
fill: #E2E3E5;
}

.s1_357{
font-size: 12.99px;
font-family: ProximaNova-Semibold_db4;
fill: #231F20;
}
.s2_357{
font-size: 18.33px;
font-family: ProximaNova-Bold_da-;
fill: #231F20;
}
.s3_357{
font-size: 16.81px;
font-family: ProximaNova-Extrabld_db2;
fill: #FFFFFF;
}
.s4_357{
font-size: 44.31px;
font-family: ProximaNova-Bold_da-;
fill: #3986C6;
}
.s5_357{
font-size: 25.97px;
font-family: ProximaNova-Bold_da-;
fill: #FFFFFF;
}
.s6_357{
font-size: 25.97px;
font-family: ProximaNova-Bold_da-;
fill: #231F20;
}
.s7_357{
font-size: 13.75px;
font-family: ProximaNova-Extrabld_db2;
fill: #FFFFFF;
}
.s8_357{
font-size: 19.10px;
font-family: Alegreya-Regular_db1;
fill: #231F20;
}
.s9_357{
font-size: 16.04px;
font-family: Alegreya-Regular_db1;
fill: #231F20;
}
.s10_357{
font-size: 32.08px;
font-family: STKaitiSC-Regular_cof;
fill: #231F20;
}
.s11_357{
font-size: 32.08px;
font-family: STKaitiSC-Bold_cmk;
fill: #3986C6;
}
.s12_357{
font-size: 18.33px;
font-family: ProximaNova-Extrabld_db2;
fill: #FFFFFF;
}

]]></style>

</defs>
<path d="M0,0
L0,1196
L921,1196
L921,0 Z " 
fill="#FFFFFF" stroke="none" />
<text 
transform="matrix(0, -1, 1, 0, 54, 1084)"
dx="0,0,0,0,0,0,0,0,0,0,0,0,0,0,0,0,0,0,0" 
class="s1_357"
>Go Far with Chinese</text>

<text 
x="33" 
y="1149" 
dx="0,0,0" 
class="s2_357"
>334</text>

<path d="M50.4,1089.3l0,38.7" class="g1_357" />
<path d="M50.4,1125.4c-1.4,0,-2.5,1.1,-2.5,2.6c0,1.4,1.1,2.6,2.5,2.6c1.5,0,2.6,-1.2,2.6,-2.6c0,-1.5,-1.1,-2.6,-2.6,-2.6Z" class="g2_357" />
<path d="M21.4,51.3l840.9,0" class="g3_357" />
<path d="M862.3,55.9c2.5,0,4.6,-2.1,4.6,-4.6c0,-2.5,-2.1,-4.6,-4.6,-4.6c-2.6,0,-4.6,2.1,-4.6,4.6c0,2.5,2,4.6,4.6,4.6Z" class="g2_357" />
<path d="M314,31.1c11.1,0,20.1,9.1,20.1,20.2l0,20.2L222,71.5l0,-40.4Z" class="g4_357" />
<path d="M131.4,71.5c-11.1,0,-20.2,-9.1,-20.2,-20.2l0,-20.2l112.2,0l0,40.4Z" class="g2_357" />
<path d="M222.8,25.6l0,45.9" class="g5_357" />
<text 
x="232" 
y="56" 
dx="0,0,0,0,0,0,0,0,0" 
class="s3_357"
>±²Ct³´µ 2</text>

<text 
x="116" 
y="56" 
dx="0,0,0,0,0,0,0,0,0,0,0" 
class="s3_357"
>Ch¶Pt²· 14 </text>

<text 
x="110" 
y="123" 
dx="0,0,0,0,0,0,0,0,0,0,0,0,0,0,0,0,0,-1.5,0,0,0,0,0,0,0,0,0" 
class="s4_357"
>Discussing past experiences</text>

<path d="M128.7,194.4c-10.1,0,-18.4,-8.3,-18.4,-18.4l0,-20.1l23.2,0c10.1,0,18.3,8.2,18.3,18.3l0,20.2Z" class="g2_357" />
<path d="M116.2,156.4l458.5,0" class="g6_357" />
<path d="M129.9,193.9l444.8,0" class="g6_357" />
<text 
x="115" 
y="182" 
dx="0,0,0" 
class="s5_357"
>2a </text>

<text 
x="157" 
y="182" 
dx="0,-0.2,0,0,0,0,0,0,0,0,0,0,0,0,0" 
class="s6_357"
>Language Model </text>

<path d="M377.9,185.6c-6,0,-10.8,-4.8,-10.8,-10.8l0,-10.8l194.5,0c6,0,10.8,4.8,10.8,10.8l0,10.8Z" class="g4_357" />
<text 
x="384" 
y="178" 
dx="0,-0.9,-0.1,-0.1,-0.1,-0.1,-0.1,-0.1,-0.1,-0.1,-0.1,-0.1,-0.6,-0.5,-0.1,-0.1,-0.1,-0.1,-0.1,-0.1,-0.1" 
class="s7_357"
>t¶·G²t ¸¶µGu¶G² ³µPut</text>

<text 
x="110" 
y="239" 
dx="0,-0.8,0,0,0,0,0,0,0,0,0,0,0,0,0,0,0,0,0,0,0,0,0,0,0,0,0,0,0,0,0,0,0,0,0,0,0,0,0,0,0,0,0,0,0,0,0,0,0,0,0,0,0,0,0,0,0,-0.3,-1.3,-0.4,0,-0.6,0.3,0,0,0,0,0,0,0,0,0,0,0,0,0,0,0,0,0,0,0,0,0,0,0,0,0,0,0,0,-0.3,0,0" 
class="s8_357"
>Your teacher will lead a discussion about the images below. Try to participate as much as you </text>

<text 
x="112" 
y="265" 
dx="0,-0.2,0,0,-0.4,0,0,0,0,0,0,0,-0.2,0,0,0,0,0,0,-0.4,0,0,0,0,0,0,0,-0.3,0,0,0,0,0,-1.5,0,0,0,0,0,0,0,0,0,0,0,0,0,-0.4,0,0,0,0,0,-0.3,0,0,0,0,0,0,0,0,0,0,0,0,0,0,-0.3,-1.3" 
class="s8_357"
>can. If there is anything you don’t understand, let your teacher know.</text>

<image preserveAspectRatio="none" x="109" y="307" width="172" height="150" xlink:href="357/img/1.png" />
<image preserveAspectRatio="none" x="109" y="457" width="172" height="50" xlink:href="357/img/2.png" />
<path d="M765.9,347.9l-474.1,0" class="g7_357" />
<path d="M291.8,352.5c-2.5,0,-4.6,-2.1,-4.6,-4.6c0,-2.5,2.1,-4.6,4.6,-4.6c2.5,0,4.6,2.1,4.6,4.6c0,2.5,-2.1,4.6,-4.6,4.6Z" class="g2_357" />
<path d="M678.3,475.7l-385.5,0" class="g7_357" />
<path d="M292.8,480.3c-2.5,0,-4.6,-2.1,-4.6,-4.6c0,-2.6,2.1,-4.6,4.6,-4.6c2.5,0,4.6,2,4.6,4.6c0,2.5,-2.1,4.6,-4.6,4.6Z" class="g2_357" />
<path d="M320.8,320.2c-7.6,0,-13.7,6.2,-13.7,13.8l0,27.8c0,7.6,6.1,13.8,13.7,13.8l27.9,0c7.6,0,13.7,-6.2,13.7,-13.8l0,-27.8c0,-7.6,-6.1,-13.8,-13.7,-13.8Z" class="g8_357" />
<path d="M320.8,448c-7.6,0,-13.7,6.2,-13.7,13.8l0,27.8c0,7.6,6.1,13.7,13.7,13.7l56.9,0c7.6,0,13.7,-6.1,13.7,-13.7l0,-27.8c0,-7.6,-6.1,-13.8,-13.7,-13.8Z" class="g8_357" />
<path d="M396.1,320.2c-7.6,0,-13.8,6.2,-13.8,13.8l0,27.8c0,7.6,6.2,13.8,13.8,13.8l27.8,0c7.6,0,13.7,-6.2,13.7,-13.8l0,-27.8c0,-7.6,-6.1,-13.8,-13.7,-13.8Z" class="g8_357" />
<path d="M426.6,448c-7.6,0,-13.7,6.2,-13.7,13.8l0,27.8c0,7.6,6.1,13.7,13.7,13.7l27.9,0c7.5,0,13.7,-6.1,13.7,-13.7l0,-27.8C468.2,454.2,462,448,454.5,448Z" class="g8_357" />
<path d="M504.5,448c-7.6,0,-13.7,6.2,-13.7,13.8l0,27.8c0,7.6,6.1,13.7,13.7,13.7l27.9,0c7.6,0,13.7,-6.1,13.7,-13.7l0,-27.8C546.1,454.2,540,448,532.4,448Z" class="g8_357" />
<path d="M580.9,448c-7.6,0,-13.7,6.2,-13.7,13.8l0,27.8c0,7.6,6.1,13.7,13.7,13.7l47.9,0c7.6,0,13.8,-6.1,13.8,-13.7l0,-27.8c0,-7.6,-6.2,-13.8,-13.8,-13.8Z" class="g8_357" />
<path d="M677.2,448c-7.6,0,-13.8,6.2,-13.8,13.8l0,27.8c0,7.6,6.2,13.7,13.8,13.7l27.8,0c7.6,0,13.8,-6.1,13.8,-13.7l0,-27.8C718.8,454.2,712.6,448,705,448Z" class="g8_357" />
<path d="M650.4,320.2c-7.6,0,-13.8,6.2,-13.8,13.8l0,27.8c0,7.6,6.2,13.8,13.8,13.8l27.8,0c7.6,0,13.8,-6.2,13.8,-13.8L692,334c0,-7.6,-6.2,-13.8,-13.8,-13.8Z" class="g8_357" />
<path d="M471.5,320.2c-7.6,0,-13.8,6.2,-13.8,13.8l0,27.8c0,7.6,6.2,13.8,13.8,13.8l27.8,0c7.6,0,13.7,-6.2,13.7,-13.8L513,334c0,-7.6,-6.1,-13.8,-13.7,-13.8Z" class="g8_357" />
<path d="M546.1,320.2c-7.6,0,-13.8,6.2,-13.8,13.8l0,27.8c0,7.6,6.2,13.8,13.8,13.8l56.8,0c7.6,0,13.8,-6.2,13.8,-13.8l0,-27.8c0,-7.6,-6.2,-13.8,-13.8,-13.8Z" class="g8_357" />
<path d="M727.3,320.2c-7.6,0,-13.8,6.2,-13.8,13.8l0,27.8c0,7.6,6.2,13.8,13.8,13.8l27.8,0c7.6,0,13.8,-6.2,13.8,-13.8l0,-27.8c0,-7.6,-6.2,-13.8,-13.8,-13.8Z" class="g8_357" />
<text 
x="324" 
y="313" 
dx="0,0.1,0.2" 
class="s9_357"
>Nǐ </text>

<text 
x="399" 
y="313" 
dx="0,0.2,0.2,0.2" 
class="s9_357"
>zuò </text>

<text 
x="472" 
y="313" 
dx="0,0.2,0.2,0.2" 
class="s9_357"
>guò </text>

<text 
x="556" 
y="313" 
dx="0,0.2,0.2,0.1,0.2,0.2" 
class="s9_357"
>zhège </text>

<text 
x="660" 
y="313" 
dx="0,0.2,0.2" 
class="s9_357"
>tí </text>

<text 
x="732" 
y="313" 
dx="0,0.2,0.2" 
class="s9_357"
>ma?</text>

<text 
x="332" 
y="441" 
dx="0,0.2,-1,0.2,0.2,0.2" 
class="s9_357"
>Dá’àn </text>

<text 
x="431" 
y="441" 
dx="0,0.2,0.2,0.2" 
class="s9_357"
>jiù </text>

<text 
x="508" 
y="441" 
dx="0,0.2,0.2,0.2" 
class="s9_357"
>shì </text>

<text 
x="585" 
y="441" 
dx="0,0.2,0.2,0.1,0.2,0.2" 
class="s9_357"
>zhège </text>

<text 
x="679" 
y="441" 
dx="0,0.2,0.2" 
class="s9_357"
>ma?</text>

<text 
x="316" 
y="357" 
dx="0" 
class="s10_357"
>你</text>

<text 
x="392" 
y="357" 
dx="0" 
class="s10_357"
>做</text>

<text 
x="467" 
y="357" 
dx="0" 
class="s10_357"
>过</text>

<text 
x="541" 
y="357" 
dx="0,0" 
class="s10_357"
>这个</text>

<text 
x="647" 
y="357" 
dx="0" 
class="s10_357"
>题</text>

<text 
x="717" 
y="357" 
dx="0,0" 
class="s10_357"
>吗？</text>

<text 
x="316" 
y="485" 
dx="0,0" 
class="s10_357"
>答案</text>

<text 
x="424" 
y="485" 
dx="0" 
class="s10_357"
>就</text>

<text 
x="501" 
y="485" 
dx="0" 
class="s10_357"
>是</text>

<text 
x="572" 
y="485" 
dx="0,0" 
class="s10_357"
>这个</text>

<text 
x="667" 
y="485" 
dx="0,0" 
class="s10_357"
>吗？</text>

<text 
x="400" 
y="406" 
dx="0,-0.4,-0.4,-0.3,0,0,-0.3,0,0,0,0,0,0,0,0,0,0,0,0,0,0,-0.2,0,0,0,0,0,0,0,0,-0.3,0,-0.2,0" 
class="s8_357"
>Have you done this problem before?</text>

<text 
x="420" 
y="534" 
dx="0,-0.4,0,0,0,0,0,0,0,0,0,-0.3,0,0,0,-0.4,-0.4,0,0,0,0,0,0,0,0,0,0" 
class="s8_357"
>Is the answer exactly this?</text>

<text 
x="276" 
y="1001" 
dx="0,0.2" 
class="s9_357"
>tí</text>

<text 
x="267" 
y="1039" 
dx="0" 
class="s11_357"
>题</text>

<text 
x="212" 
y="1066" 
dx="0,0,0,0,0,0,0,0,0,-0.4,0,0,-0.2,0,0,0,0,0" 
class="s8_357"
>question, problem </text>

<text 
x="180" 
y="1092" 
dx="0,0,0,0,0,0,0,0,0,-0.3,0,0,0,0,0,0,0,0,0,0,0,0,0,0,0,0" 
class="s8_357"
>(in homework or on a test)</text>

<text 
x="639" 
y="1001" 
dx="0,0.2,-1,0.2,0.2" 
class="s9_357"
>dá’àn</text>

<text 
x="625" 
y="1039" 
dx="0,0" 
class="s11_357"
>答案</text>

<text 
x="629" 
y="1066" 
dx="0,0,0,0,-0.3,0" 
class="s8_357"
>answer</text>

<path d="M278.4,975.8c0,0,-9.1,0,-9.1,-9.1l0,-15.2l16,0c0,0,9.2,0,9.2,9.2l0,15.1Z" class="g4_357" />
<text 
x="277" 
y="970" 
dx="0" 
class="s12_357"
>1</text>

<path d="M653.9,975.8c0,0,-9.2,0,-9.2,-9.1l0,-15.2l16.1,0c0,0,9.1,0,9.1,9.2l0,15.1Z" class="g4_357" />
<text 
x="651" 
y="970" 
dx="0" 
class="s12_357"
>2</text>

<image preserveAspectRatio="none" x="107" y="698" width="349" height="233" xlink:href="357/img/3.png" />
<image preserveAspectRatio="none" x="483" y="698" width="349" height="233" xlink:href="357/img/4.png" />


<!-- Any embedded fonts defined here -->
<style type="text/css" ><![CDATA[

@font-face {
	font-family: ProximaNova-Extrabld_db2;
	src: url("fonts/ProximaNova-Extrabld_db2.woff") format("woff");
}

@font-face {
	font-family: STKaitiSC-Bold_cmk;
	src: url("fonts/STKaitiSC-Bold_cmk.woff") format("woff");
}

@font-face {
	font-family: ProximaNova-Bold_da-;
	src: url("fonts/ProximaNova-Bold_da-.woff") format("woff");
}

@font-face {
	font-family: Alegreya-Regular_db1;
	src: url("fonts/Alegreya-Regular_db1.woff") format("woff");
}

@font-face {
	font-family: STKaitiSC-Regular_cof;
	src: url("fonts/STKaitiSC-Regular_cof.woff") format("woff");
}

@font-face {
	font-family: ProximaNova-Semibold_db4;
	src: url("fonts/ProximaNova-Semibold_db4.woff") format("woff");
}

]]></style>

</svg>
