<?xml version="1.0" encoding="UTF-8" standalone="no"?>
<!DOCTYPE svg PUBLIC "-//W3C//DTD SVG 1.1//EN"
"http://www.w3.org/Graphics/SVG/1.1/DTD/svg11.dtd">


<!-- Page 156 -->
<svg x="0" y="0" width="921" height="1196" viewBox="0 0 921 1196" version="1.1" xmlns="http://www.w3.org/2000/svg" xmlns:xlink="http://www.w3.org/1999/xlink"
style="display: block;margin-left: auto;margin-right: auto;">
<defs>

<style type="text/css"><![CDATA[

.g1_156{
fill: none;
stroke: #3986C6;
stroke-width: 1.6194444;
stroke-linecap: butt;
stroke-linejoin: miter;
stroke-miterlimit: 4;
}
.g2_156{
fill: #3986C6;
}
.g3_156{
fill: none;
stroke: #ACBF3B;
stroke-width: 2.2916667;
stroke-linecap: butt;
stroke-linejoin: miter;
stroke-miterlimit: 4;
}
.g4_156{
fill: none;
stroke: #3986C6;
stroke-width: 1.1458334;
stroke-linecap: butt;
stroke-linejoin: miter;
stroke-miterlimit: 4;
}
.g5_156{
fill: #FFFFFF;
}
.g6_156{
fill: none;
stroke: #3986C6;
stroke-width: 1.1458334;
stroke-linecap: butt;
stroke-linejoin: miter;
}
.g7_156{
fill: #ACBF3B;
}
.g8_156{
fill: none;
stroke: #ACBF3B;
stroke-width: 1.5277778;
stroke-linecap: butt;
stroke-linejoin: miter;
}
.g9_156{
fill: #DCDDDF;
}
.g10_156{
fill: none;
stroke: #231F20;
stroke-width: 1.1458334;
stroke-linecap: butt;
stroke-linejoin: miter;
}
.g11_156{
fill: none;
stroke: #939598;
stroke-width: 0.38194445;
stroke-linecap: butt;
stroke-linejoin: miter;
}
.g12_156{
fill: none;
stroke: #3986C6;
stroke-width: 1.5277778;
stroke-linecap: butt;
stroke-linejoin: miter;
stroke-miterlimit: 4;
}

.s1_156{
font-size: 12.99px;
font-family: ProximaNova-Semibold_cwz;
fill: #231F20;
}
.s2_156{
font-size: 18.33px;
font-family: ProximaNova-Bold_cws;
fill: #231F20;
}
.s3_156{
font-size: 19.10px;
font-family: Alegreya-Regular_cw_;
fill: #231F20;
}
.s4_156{
font-size: 32.08px;
font-family: STKaitiSC-Regular_cof;
fill: #231F20;
}
.s5_156{
font-size: 32.08px;
font-family: STKaitiSC-Bold_cmk;
fill: #3986C6;
}
.s6_156{
font-size: 19.10px;
font-family: Alegreya-Bold_cx0;
fill: #3986C6;
}
.s7_156{
font-size: 19.86px;
font-family: ProximaNova-Bold_cws;
fill: #231F20;
}
.s8_156{
font-size: 25.97px;
font-family: ProximaNova-Bold_cws;
fill: #FFFFFF;
}
.s9_156{
font-size: 25.97px;
font-family: ProximaNova-Bold_cws;
fill: #231F20;
}
.s10_156{
font-size: 13.75px;
font-family: ProximaNova-Extrabld_cx4;
fill: #FFFFFF;
}
.s11_156{
font-size: 19.10px;
font-family: Alegreya-Bold_cx0;
fill: #231F20;
}
.s12_156{
font-size: 32.08px;
font-family: STKaitiSC-Regular_cof;
fill: #3986C6;
}

]]></style>

</defs>
<path d="M0,0
L0,1196
L921,1196
L921,0 Z " 
fill="#FFFFFF" stroke="none" />
<text 
transform="matrix(0, 1, -1, 0, 867, 787)"
dx="0,0,0,0,0,0,0,0,0,0" 
class="s1_156"
>Chapter 6 </text>

<text 
transform="matrix(0, 1, -1, 0, 867, 851)"
dx="0,0" 
class="s1_156"
>• </text>

<text 
transform="matrix(0, 1, -1, 0, 867, 862)"
dx="0,0,0,0,0,0,0,0,0,0,0,0,0,0,0,0,0,0,0,0,0,0,0,0" 
class="s1_156"
>Appreciating New Sounds </text>

<text 
transform="matrix(0, 1, -1, 0, 867, 1020)"
dx="0,0" 
class="s1_156"
>• </text>

<text 
transform="matrix(0, 1, -1, 0, 867, 1031)"
dx="0,0,0,0,0,0,0,0,0" 
class="s1_156"
>Section 1</text>

<text 
x="857" 
y="1149" 
dx="0,0,0" 
class="s2_156"
>133</text>

<path d="M872.3,1089.3l0,38.7" class="g1_156" />
<path d="M872.3,1125.4c-1.5,0,-2.6,1.1,-2.6,2.6c0,1.4,1.1,2.6,2.6,2.6c1.4,0,2.6,-1.2,2.6,-2.6c0,-1.5,-1.2,-2.6,-2.6,-2.6Z" class="g2_156" />
<text 
x="88" 
y="158" 
dx="0,0,0,0,0,0,0,0,0,0,0,0,0,0,0,0,0,0,0,0,0,0,0,0,0,0,0.3,0,0,0,0,0,0,0,0,0,0,0,0,0,0,0,0,0,0,0,0,0,0,0,0,0,0,0,-0.3,0,0,0,-0.2,0,0,-0.4,0,-0.2,0,0,0,0,-0.2,0,0,0,0,0,0,0,0,0,0,0,0,0,0,0,-0.6,-0.4,0,0,0,0,0,0" 
class="s3_156"
>Listen to the audio and try to understand as much as you can. Then read the dialogue, using </text>

<text 
x="89" 
y="184" 
dx="0,0,0,0,0,0,0,-0.4,0,0,0,0,0,-0.4,0,0,0,0,0,0,0,-0.3,0,-0.2,0,0,0,0,0,0.3,0,0,0,0,0,0,0,0,0,0,0,0,0,0,-0.2,0,0,0,0,0,0,0,0,-0.2,0,0,0,0,0,0,0,0,-0.3,0,-0.2,0,-0.4,-0.4" 
class="s3_156"
>the pinyin text and vocabulary list to figure out unfamiliar words. </text>

<text 
x="151" 
y="243" 
dx="0,0" 
class="s4_156"
>我会</text>

<text 
x="215" 
y="243" 
dx="0,0,0" 
class="s5_156"
>弹吉他</text>

<text 
x="311" 
y="243" 
dx="0,0,0,0" 
class="s4_156"
>。你们会</text>

<text 
x="150" 
y="280" 
dx="0,0" 
class="s4_156"
>什么</text>

<text 
x="214" 
y="280" 
dx="0,0" 
class="s5_156"
>乐器</text>

<text 
x="279" 
y="280" 
dx="0" 
class="s4_156"
>？</text>

<text 
x="151" 
y="338" 
dx="0,0" 
class="s4_156"
>我会</text>

<text 
x="215" 
y="338" 
dx="0,0,0" 
class="s5_156"
>弹古筝</text>

<text 
x="311" 
y="338" 
dx="0,0,0" 
class="s4_156"
>，也会</text>

<text 
x="407" 
y="338" 
dx="0,0,0" 
class="s5_156"
>拉二胡</text>

<text 
x="504" 
y="338" 
dx="0" 
class="s4_156"
>。</text>

<text 
x="151" 
y="397" 
dx="0,0,0" 
class="s4_156"
>我不会</text>

<text 
x="247" 
y="397" 
dx="0,0" 
class="s5_156"
>乐器</text>

<text 
x="311" 
y="397" 
dx="0,0,0,0" 
class="s4_156"
>。可是我</text>

<text 
x="152" 
y="434" 
dx="0,0,0" 
class="s4_156"
>很想学</text>

<text 
x="249" 
y="434" 
dx="0,0,0" 
class="s5_156"
>吹笛子</text>

<text 
x="345" 
y="434" 
dx="0,0,0,0" 
class="s4_156"
>。我觉得</text>

<text 
x="152" 
y="470" 
dx="0,0,0" 
class="s5_156"
>吹笛子</text>

<text 
x="248" 
y="470" 
dx="0,0,0,0,0" 
class="s4_156"
>很有意思。</text>

<text 
x="532" 
y="245" 
dx="0,-1.4,0,0,0,0,0" 
class="s3_156"
>Wǒ huì </text>

<text 
x="591" 
y="246" 
dx="0,0,0,0,0,0,0,0" 
class="s6_156"
>tán jítā</text>

<text 
x="647" 
y="245" 
dx="0,-0.4,0,-0.2,0,0,0,0,0,0,0" 
class="s3_156"
>. Nǐmen huì</text>

<text 
x="533" 
y="279" 
dx="0,0,0,0,0,0,0" 
class="s3_156"
>shénme </text>

<text 
x="598" 
y="279" 
dx="0,0,0,0,0" 
class="s6_156"
>yuèqì</text>

<text 
x="642" 
y="279" 
dx="0" 
class="s3_156"
>?</text>

<text 
x="532" 
y="342" 
dx="0,-1.4,0,0,0,0,0" 
class="s3_156"
>Wǒ huì </text>

<text 
x="591" 
y="342" 
dx="0,0,0,0,0,0,0,0,0,0,0" 
class="s6_156"
>tán gǔzhēng</text>

<text 
x="689" 
y="342" 
dx="0,-0.4,0,-0.3,0,0,0,0,0" 
class="s3_156"
>, yě huì </text>

<text 
x="749" 
y="342" 
dx="0,0,0,0,0,-0.2,0" 
class="s6_156"
>lā èrhú</text>

<text 
x="803" 
y="342" 
dx="0" 
class="s3_156"
>.</text>

<text 
x="532" 
y="400" 
dx="0,-1.4,0,0,0,0,0,0,0,0" 
class="s3_156"
>Wǒ bú huì </text>

<text 
x="615" 
y="400" 
dx="0,0,0,0,0" 
class="s6_156"
>yuèqì</text>

<text 
x="659" 
y="400" 
dx="0,-0.4,0,-0.6,0,0,0,0,0,-0.3,0" 
class="s3_156"
>. Kěshì wǒ </text>

<text 
x="533" 
y="436" 
dx="0,0,0,0,0,0,0,0,0,0,0,0,0,0" 
class="s3_156"
>hěn xiǎng xué </text>

<text 
x="645" 
y="437" 
dx="0,-0.1,0,0,0,0,0,0,0" 
class="s6_156"
>chuī dízi</text>

<text 
x="713" 
y="436" 
dx="0,-0.4,0,-1.4,0,0,0,0,0,0" 
class="s3_156"
>. Wǒ juéde</text>

<text 
x="534" 
y="475" 
dx="0,-0.1,0,0,0,0,0,0,0" 
class="s6_156"
>chuī dízi</text>

<text 
x="605" 
y="475" 
dx="0,0,0,0,0,-0.3,0,0,0,0,0,0" 
class="s3_156"
>hěn yǒuyìsi.</text>

<text 
x="559" 
y="554" 
dx="0" 
class="s6_156"
>T</text>

<text 
x="617" 
y="554" 
dx="0" 
class="s6_156"
>F</text>

<text 
x="122" 
y="589" 
dx="0" 
class="s6_156"
>1</text>

<text 
x="145" 
y="589" 
dx="0,0,0,0,0,0,0,-0.2,0,0,0,0,0,-0.4,0,0,0,0,0,0,0,0,0,0,0,-1.5" 
class="s3_156"
>Ellen can play the guitar.</text>

<path d="M564.9,592.3c5.8,0,10.5,-4.7,10.5,-10.5c0,-5.7,-4.7,-10.4,-10.5,-10.4c-5.7,0,-10.4,4.7,-10.4,10.4c0,5.8,4.7,10.5,10.4,10.5Z" class="g3_156" />
<path d="M622.4,592.3c5.8,0,10.5,-4.7,10.5,-10.5c0,-5.7,-4.7,-10.4,-10.5,-10.4c-5.8,0,-10.5,4.7,-10.5,10.4c0,5.8,4.7,10.5,10.5,10.5Z" class="g3_156" />
<text 
x="122" 
y="625" 
dx="0" 
class="s6_156"
>2</text>

<text 
x="145" 
y="625" 
dx="0,-0.2,0,-0.4,0,0,-0.2,0,0,0,0,0,-0.4,0,0,0,0,0,0,0,0,0,0,0,0,0,0,0,0,0,0,0,0,0,0,0,0,0,0,0,0,0,0,0,0,0" 
class="s3_156"
>Miko can play the guitar and also the guzheng.</text>

<path d="M564.9,627.8c5.8,0,10.5,-4.7,10.5,-10.5c0,-5.8,-4.7,-10.5,-10.5,-10.5c-5.7,0,-10.4,4.7,-10.4,10.5c0,5.8,4.7,10.5,10.4,10.5Z" class="g3_156" />
<path d="M622.4,627.8c5.8,0,10.5,-4.7,10.5,-10.5c0,-5.8,-4.7,-10.5,-10.5,-10.5c-5.8,0,-10.5,4.7,-10.5,10.5c0,5.8,4.7,10.5,10.5,10.5Z" class="g3_156" />
<path d="M90.3,580.8l0,-53.9l330.3,0" class="g4_156" />
<path d="M420.6,529.6c1.6,0,2.8,-1.2,2.8,-2.7c0,-1.6,-1.2,-2.8,-2.8,-2.8c-1.5,0,-2.7,1.2,-2.7,2.8c0,1.5,1.2,2.7,2.7,2.7Z" class="g2_156" />
<path d="M105.7,539l223,0l0,-22.3l-223,0l0,22.3Z" class="g5_156" />
<text 
x="114" 
y="532" 
dx="0,0,0,0,0,0,0,0,0,0,0,0,0,0,0,0,0,0,0" 
class="s7_156"
>Comprehension Check</text>

<path d="M384.5,519.1c5.5,9.6,1.2,21.3,-9.5,26.2c-10.8,4.9,-23.9,1.1,-29.4,-8.5c-5.5,-9.6,-1.2,-21.3,9.5,-26.2c10.7,-4.9,23.9,-1.1,29.4,8.5Z" class="g5_156" />
<path d="M384.5,519.1c5.5,9.6,1.2,21.3,-9.5,26.2c-10.8,4.9,-23.9,1.1,-29.4,-8.5c-5.5,-9.6,-1.2,-21.3,9.5,-26.2c10.7,-4.9,23.9,-1.1,29.4,8.5Z" class="g6_156" />
<path d="M392.1,508.5c-1.2,-0.9,-3.1,-0.6,-4.2,0.5l-20.4,21.8c-1.1,1.1,-3,1.2,-4.2,0.2l-3,-2.6c-1.2,-1.1,-3.1,-1.2,-4.2,-0.2c-1,1,-0.9,2.7,0.3,3.7l7.3,6.4c1.2,1.1,3.1,1,4.2,-0.2l24.3,-25.9c1.1,-1.1,1.1,-2.8,-0.1,-3.7Z" class="g7_156" />
<path d="M392.1,508.5c-1.2,-0.9,-3.1,-0.6,-4.2,0.5l-20.4,21.8c-1.1,1.1,-3,1.2,-4.2,0.2l-3,-2.6c-1.2,-1.1,-3.1,-1.2,-4.2,-0.2c-1,1,-0.9,2.7,0.3,3.7l7.3,6.4c1.2,1.1,3.1,1,4.2,-0.2l24.3,-25.9c1.1,-1.1,1.1,-2.8,-0.1,-3.7Z" class="g8_156" />
<path d="M107.8,121.1c-10.2,0,-18.4,-8.2,-18.4,-18.4l0,-20.1l23.2,0c10.1,0,18.3,8.2,18.3,18.3l0,20.2Z" class="g2_156" />
<path d="M98.9,83.3l508.6,0" class="g6_156" />
<path d="M112.7,120.7l494.8,0" class="g6_156" />
<text 
x="97" 
y="109" 
dx="0,0,0" 
class="s8_156"
>1b </text>

<text 
x="140" 
y="109" 
dx="0,0,0,0,0,-1,0,0,0,0,0,0,0,0,0,0,0,0,0,0,0,0,0,0,0,0" 
class="s9_156"
>New Words in Conversation </text>

<path d="M490.4,114c-6,0,-10.8,-4.9,-10.8,-10.9l0,-10.8l114.1,0c6,0,10.9,4.9,10.9,10.8l0,10.9Z" class="g7_156" />
<text 
x="495" 
y="107" 
dx="0,0,0,0,0,0,0,0,0,0,0,0" 
class="s10_156"
>interPretiVe</text>

<image preserveAspectRatio="none" x="89" y="220" width="47" height="54" xlink:href="156/img/1.png" />
<image preserveAspectRatio="none" x="89" y="298" width="47" height="54" xlink:href="156/img/2.png" />
<image preserveAspectRatio="none" x="89" y="373" width="47" height="55" xlink:href="156/img/3.png" />
<path d="M89.3,694.6l55,0l0,36.3l-55,0l0,-36.3Zm55,0l165,0l0,36.3l-165,0l0,-36.3Zm165,0l156.2,0l0,36.3l-156.2,0l0,-36.3Zm156.2,0l336.9,0l0,36.3l-336.9,0l0,-36.3Z" class="g9_156" />
<path d="M89.3,1126.9l55,0" class="g10_156" />
<path d="M144.3,1126.9l165,0" class="g10_156" />
<path d="M309.3,1126.9l156.2,0" class="g10_156" />
<path d="M465.5,1126.9l336.9,0" class="g10_156" />
<path d="M89.3,1027.9l55,0" class="g11_156" />
<path d="M144.3,1027.9l165,0" class="g11_156" />
<path d="M309.3,1027.9l156.2,0" class="g11_156" />
<path d="M465.5,1027.9l336.9,0" class="g11_156" />
<path d="M89.3,1077.4l55,0" class="g11_156" />
<path d="M144.3,1077.4l165,0" class="g11_156" />
<path d="M309.3,1077.4l156.2,0" class="g11_156" />
<path d="M465.5,1077.4l336.9,0" class="g11_156" />
<path d="M89.3,829.9l55,0" class="g11_156" />
<path d="M144.3,829.9l165,0" class="g11_156" />
<path d="M309.3,829.9l156.2,0" class="g11_156" />
<path d="M465.5,829.9l336.9,0" class="g11_156" />
<path d="M89.3,879.4l55,0" class="g11_156" />
<path d="M144.3,879.4l165,0" class="g11_156" />
<path d="M309.3,879.4l156.2,0" class="g11_156" />
<path d="M465.5,879.4l336.9,0" class="g11_156" />
<path d="M89.3,928.9l55,0" class="g11_156" />
<path d="M144.3,928.9l165,0" class="g11_156" />
<path d="M309.3,928.9l156.2,0" class="g11_156" />
<path d="M465.5,928.9l336.9,0" class="g11_156" />
<path d="M89.3,978.4l55,0" class="g11_156" />
<path d="M144.3,978.4l165,0" class="g11_156" />
<path d="M309.3,978.4l156.2,0" class="g11_156" />
<path d="M465.5,978.4l336.9,0" class="g11_156" />
<path d="M89.3,780.4l55,0" class="g11_156" />
<path d="M144.3,780.4l165,0" class="g11_156" />
<path d="M309.3,780.4l156.2,0" class="g11_156" />
<path d="M465.5,780.4l336.9,0" class="g11_156" />
<text 
x="162" 
y="720" 
dx="0,-0.7,0,0" 
class="s2_156"
>Word</text>

<text 
x="328" 
y="720" 
dx="0,0,0,0,0,0" 
class="s2_156"
>Pinyin</text>

<text 
x="484" 
y="720" 
dx="0,0,0,0,0,0,0" 
class="s2_156"
>Meaning</text>

<text 
x="107" 
y="763" 
dx="0,0" 
class="s11_156"
>1 </text>

<text 
x="159" 
y="763" 
dx="0" 
class="s12_156"
>弹</text>

<text 
x="327" 
y="763" 
dx="0,0,0" 
class="s3_156"
>tán</text>

<text 
x="484" 
y="763" 
dx="0,0,0,0,0,0,0,0,0,-0.4,0,0,0,0,0,0,0,0,0,-0.4,0,0,0,0,0,0,-0.4" 
class="s3_156"
>to strum, to pluck, to play</text>

<text 
x="107" 
y="813" 
dx="0" 
class="s11_156"
>2</text>

<text 
x="156" 
y="813" 
dx="0,0" 
class="s12_156"
>吉他</text>

<text 
x="327" 
y="813" 
dx="0,0,0,0" 
class="s3_156"
>jítā</text>

<text 
x="484" 
y="813" 
dx="0,0,0,0,0,0" 
class="s3_156"
>guitar</text>

<text 
x="107" 
y="862" 
dx="0" 
class="s11_156"
>3</text>

<text 
x="156" 
y="862" 
dx="0,0" 
class="s12_156"
>乐器</text>

<text 
x="327" 
y="862" 
dx="0,0,0,0,0" 
class="s3_156"
>yuèqì</text>

<text 
x="484" 
y="862" 
dx="0,0,0,0,0,-0.2,0,0,0,0,0,0,0,0,0,0,0,0" 
class="s3_156"
>musical instrument</text>

<text 
x="106" 
y="912" 
dx="0" 
class="s11_156"
>4</text>

<text 
x="157" 
y="912" 
dx="0,0" 
class="s12_156"
>古筝</text>

<text 
x="328" 
y="912" 
dx="0,0,0,0,0,0,0" 
class="s3_156"
>gǔzhēng</text>

<text 
x="484" 
y="912" 
dx="0,0,0,0,0,0,0,0" 
class="s3_156"
>guzheng </text>

<text 
x="107" 
y="961" 
dx="0" 
class="s11_156"
>5</text>

<text 
x="159" 
y="961" 
dx="0" 
class="s12_156"
>拉</text>

<text 
x="328" 
y="961" 
dx="0,0" 
class="s3_156"
>lā</text>

<text 
x="484" 
y="961" 
dx="0,0,0,0,0,0,0,0,-0.4,0,0,0,0,0,0,-0.4" 
class="s3_156"
>to pull, to play</text>

<text 
x="107" 
y="1011" 
dx="0" 
class="s11_156"
>6</text>

<text 
x="158" 
y="1011" 
dx="0,0" 
class="s12_156"
>二胡</text>

<text 
x="328" 
y="1011" 
dx="0,0,0,0" 
class="s3_156"
>èrhú</text>

<text 
x="484" 
y="1011" 
dx="0,0,0,0" 
class="s3_156"
>erhu</text>

<text 
x="107" 
y="1060" 
dx="0" 
class="s11_156"
>7</text>

<text 
x="158" 
y="1060" 
dx="0" 
class="s12_156"
>吹</text>

<text 
x="328" 
y="1060" 
dx="0,0,0,0" 
class="s3_156"
>chuī</text>

<text 
x="484" 
y="1060" 
dx="0,0,0,0,0,0,-0.3,-1.3,-0.4,0,0,0,0,0,0,-0.4" 
class="s3_156"
>to blow, to play</text>

<text 
x="108" 
y="1110" 
dx="0" 
class="s11_156"
>8</text>

<text 
x="157" 
y="1110" 
dx="0,0" 
class="s12_156"
>笛子</text>

<text 
x="328" 
y="1110" 
dx="0,0,0,0" 
class="s3_156"
>dízi</text>

<text 
x="484" 
y="1110" 
dx="0,0,0,0,0" 
class="s3_156"
>flute</text>

<text 
x="86" 
y="681" 
dx="0,-1.2,0,0,0,0,0,0,0,0" 
class="s7_156"
>Vocabulary</text>

<path d="M201.3,677.4l611,0" class="g12_156" />
<path d="M201.3,680.5c1.7,0,3,-1.4,3,-3.1c0,-1.6,-1.3,-3,-3,-3c-1.7,0,-3.1,1.4,-3.1,3c0,1.7,1.4,3.1,3.1,3.1Z" class="g2_156" />


<!-- Any embedded fonts defined here -->
<style type="text/css" ><![CDATA[

@font-face {
	font-family: STKaitiSC-Bold_cmk;
	src: url("fonts/STKaitiSC-Bold_cmk.woff") format("woff");
}

@font-face {
	font-family: Alegreya-Regular_cw_;
	src: url("fonts/Alegreya-Regular_cw_.woff") format("woff");
}

@font-face {
	font-family: Alegreya-Bold_cx0;
	src: url("fonts/Alegreya-Bold_cx0.woff") format("woff");
}

@font-face {
	font-family: ProximaNova-Bold_cws;
	src: url("fonts/ProximaNova-Bold_cws.woff") format("woff");
}

@font-face {
	font-family: ProximaNova-Extrabld_cx4;
	src: url("fonts/ProximaNova-Extrabld_cx4.woff") format("woff");
}

@font-face {
	font-family: STKaitiSC-Regular_cof;
	src: url("fonts/STKaitiSC-Regular_cof.woff") format("woff");
}

@font-face {
	font-family: ProximaNova-Semibold_cwz;
	src: url("fonts/ProximaNova-Semibold_cwz.woff") format("woff");
}

]]></style>

</svg>
