<?xml version="1.0" encoding="UTF-8" standalone="no"?>
<!DOCTYPE svg PUBLIC "-//W3C//DTD SVG 1.1//EN"
"http://www.w3.org/Graphics/SVG/1.1/DTD/svg11.dtd">


<!-- Page 163 -->
<svg x="0" y="0" width="921" height="1196" viewBox="0 0 921 1196" version="1.1" xmlns="http://www.w3.org/2000/svg" xmlns:xlink="http://www.w3.org/1999/xlink"
style="display: block;margin-left: auto;margin-right: auto;">
<defs>
<clipPath id="c0_163"><path d="M0,1196.3L0,0L921.3,0l0,1196.3Z" /></clipPath>

<style type="text/css"><![CDATA[

.g1_163{
fill: none;
stroke: #3986C6;
stroke-width: 1.6194444;
stroke-linecap: butt;
stroke-linejoin: miter;
stroke-miterlimit: 4;
}
.g2_163{
fill: #3986C6;
}
.g3_163{
fill: none;
stroke: #3986C6;
stroke-width: 1.9097222;
stroke-linecap: butt;
stroke-linejoin: miter;
stroke-miterlimit: 4;
}
.g4_163{
fill: #ACBF3B;
}
.g5_163{
fill: none;
stroke: #FFFFFF;
stroke-width: 1.5277778;
stroke-linecap: butt;
stroke-linejoin: miter;
stroke-miterlimit: 4;
}
.g6_163{
fill: none;
stroke: #3986C6;
stroke-width: 1.1458334;
stroke-linecap: butt;
stroke-linejoin: miter;
}
.g7_163{
fill: none;
stroke: #3986C6;
stroke-width: 1.5277778;
stroke-linecap: butt;
stroke-linejoin: miter;
stroke-miterlimit: 4;
}
.g8_163{
fill: #E2E3E5;
}

.s1_163{
font-size: 12.99px;
font-family: ProximaNova-Semibold_cwz;
fill: #231F20;
}
.s2_163{
font-size: 18.33px;
font-family: ProximaNova-Bold_cws;
fill: #231F20;
}
.s3_163{
font-size: 16.81px;
font-family: ProximaNova-Extrabld_cx4;
fill: #FFFFFF;
}
.s4_163{
font-size: 44.31px;
font-family: ProximaNova-Bold_cws;
fill: #3986C6;
}
.s5_163{
font-size: 25.97px;
font-family: ProximaNova-Bold_cws;
fill: #FFFFFF;
}
.s6_163{
font-size: 25.97px;
font-family: ProximaNova-Bold_cws;
fill: #231F20;
}
.s7_163{
font-size: 13.75px;
font-family: ProximaNova-Extrabld_cx4;
fill: #FFFFFF;
}
.s8_163{
font-size: 19.10px;
font-family: Alegreya-Regular_cw_;
fill: #231F20;
}
.s9_163{
font-size: 16.04px;
font-family: Alegreya-Regular_cw_;
fill: #231F20;
}
.s10_163{
font-size: 32.08px;
font-family: STKaitiSC-Regular_cof;
fill: #231F20;
}

]]></style>

</defs>
<path d="M0,0
L0,1196
L921,1196
L921,0 Z " 
fill="#FFFFFF" stroke="none" />
<text 
transform="matrix(0, -1, 1, 0, 54, 1084)"
dx="0,0,0,0,0,0,0,0,0,0,0,0,0,0,0,0,0,0,0" 
class="s1_163"
>Go Far with Chinese</text>

<text 
x="33" 
y="1149" 
dx="0,0,0" 
class="s2_163"
>140</text>

<path d="M50.4,1089.3l0,38.7" class="g1_163" />
<path d="M50.4,1125.4c-1.4,0,-2.5,1.1,-2.5,2.6c0,1.4,1.1,2.6,2.5,2.6c1.5,0,2.6,-1.2,2.6,-2.6c0,-1.5,-1.1,-2.6,-2.6,-2.6Z" class="g2_163" />
<image preserveAspectRatio="none" x="702" y="392" width="137" height="99" xlink:href="163/img/1.png" />
<image preserveAspectRatio="none" x="702" y="491" width="137" height="50" xlink:href="163/img/2.png" />
<path d="M131,249.5c-10.2,0,-18.4,-8.2,-18.4,-18.3l0,-20.1l23.2,0c10.1,0,18.3,8.2,18.3,18.3l0,20.1Z" class="g2_163" />
<g clip-path="url(#c0_163)">
<path d="M-13.7,48l880,0" class="g3_163" />
</g>
<path d="M866.3,52.6c2.5,0,4.5,-2.1,4.5,-4.6c0,-2.5,-2,-4.6,-4.5,-4.6c-2.6,0,-4.6,2.1,-4.6,4.6c0,2.5,2,4.6,4.6,4.6Z" class="g2_163" />
<path d="M317.9,27.8c11.2,0,20.2,9.1,20.2,20.2l0,20.2L226,68.2l0,-40.4Z" class="g4_163" />
<path d="M134,68.2C122.9,68.2,113.8,59.1,113.8,48l0,-20.2l112.2,0l0,40.4Z" class="g2_163" />
<path d="M226.7,22.3l0,45.9" class="g5_163" />
<text 
x="124" 
y="53" 
dx="0,0,0,0,0,0,0,0,0,0" 
class="s3_163"
>chaPter 6 </text>

<text 
x="236" 
y="52" 
dx="0,0,0,0,0,0,0,0,0" 
class="s3_163"
>section 3</text>

<text 
x="106" 
y="120" 
dx="0,-4.3,0,0,0,0,0,0,0,0,0,0,0,0,0,0,0,0,0,0,0,0" 
class="s4_163"
>Teaching and learning </text>

<text 
x="112" 
y="164" 
dx="0,0,0,0,0,0,0,0,0,0,0,0,0,0,0,0,0,0,0" 
class="s4_163"
>musical instruments</text>

<path d="M118.4,211.6l457.9,0" class="g6_163" />
<path d="M132.2,249.1l444.1,0" class="g6_163" />
<text 
x="117" 
y="238" 
dx="0,0,0" 
class="s5_163"
>3a </text>

<text 
x="159" 
y="238" 
dx="0,-0.2,0,0,0,0,0,0,0,0,0,0,0,0,0" 
class="s6_163"
>Language Model </text>

<path d="M380.2,241.1c-6,0,-10.9,-4.8,-10.9,-10.8l0,-10.8l194.5,0c5.9,0,10.8,4.8,10.8,10.8l0,10.8Z" class="g4_163" />
<text 
x="384" 
y="234" 
dx="0,-0.9,0,0,0,0,0,0,0,0,0,0,-0.5,-0.4,0,0,0,0,0,0,0" 
class="s7_163"
>tarGet lanGuaGe inPut</text>

<text 
x="110" 
y="292" 
dx="0,-0.8,0,0,0,0,0,0,0,0,0,0,0,0,0,0,0,0,0,0,0,0,0,0,0,0,0,0,0,0,0,0,0,0,0,0,0,0,0,0,0,0,0,0,0,0,0,0,0,0,0,0,0,0,0,0,-0.3,-1.3,-0.4,0,-0.6,0.3,0,0,0,0,0,0,0,0,0,0,0,0,0,0,0,0,0,0,0,0,0,0,0,0,0,0,0,0,-0.3,0,0" 
class="s8_163"
>Your teacher will lead a discussion about the image below. Try to participate as much as you </text>

<text 
x="112" 
y="318" 
dx="0,-0.2,0,0,-0.4,0,0,0,0,0,0,0,-0.2,0,0,0,0,0,0,-0.4,0,0,0,0,0,0,0,-0.3,0,0,0,0,0,-1.5,0,0,0,0,0,0,0,0,0,0,0,0,0,-0.4,0,0,0,0,0,-0.3,0,0,0,0,0,0,0,0,0,0,0,0,0,0,-0.3,-1.3" 
class="s8_163"
>can. If there is anything you don’t understand, let your teacher know.</text>

<path d="M143,531.6l545.8,0" class="g7_163" />
<path d="M688.8,527.1c2.5,0,4.6,2,4.6,4.5c0,2.6,-2.1,4.6,-4.6,4.6c-2.6,0,-4.6,-2,-4.6,-4.6c0,-2.5,2,-4.5,4.6,-4.5Z" class="g2_163" />
<path d="M290.3,399.7l402.9,0" class="g7_163" />
<path d="M297.8,375c-7.6,0,-13.8,6.2,-13.8,13.8l0,27.8c0,7.6,6.2,13.8,13.8,13.8l23.6,0c7.6,0,13.8,-6.2,13.8,-13.8l0,-27.8C335.2,381.2,329,375,321.4,375Z" class="g8_163" />
<path d="M198.8,506.5c-7.6,0,-13.8,6.1,-13.8,13.7l0,27.8c0,7.6,6.2,13.8,13.8,13.8l61.7,0c7.6,0,13.8,-6.2,13.8,-13.8l0,-27.8c0,-7.6,-6.2,-13.7,-13.8,-13.7Z" class="g8_163" />
<path d="M383.6,506.5c-7.6,0,-13.8,6.1,-13.8,13.7l0,27.8c0,7.6,6.2,13.8,13.8,13.8l27.8,0c7.6,0,13.8,-6.2,13.8,-13.8l0,-27.8c0,-7.6,-6.2,-13.7,-13.8,-13.7Z" class="g8_163" />
<path d="M123.6,506.5c-7.6,0,-13.8,6.1,-13.8,13.7l0,27.8c0,7.6,6.2,13.8,13.8,13.8l27.8,0c7.6,0,13.8,-6.2,13.8,-13.8l0,-27.8c0,-7.6,-6.2,-13.7,-13.8,-13.7Z" class="g8_163" />
<path d="M308.2,506.5c-7.6,0,-13.8,6.1,-13.8,13.7l0,27.8c0,7.6,6.2,13.8,13.8,13.8l27.8,0c7.6,0,13.7,-6.2,13.7,-13.8l0,-27.8c0,-7.6,-6.1,-13.7,-13.7,-13.7Z" class="g8_163" />
<path d="M459.1,506.5c-7.6,0,-13.8,6.1,-13.8,13.7l0,27.8c0,7.6,6.2,13.8,13.8,13.8l27.8,0c7.6,0,13.7,-6.2,13.7,-13.8l0,-27.8c0,-7.6,-6.1,-13.7,-13.7,-13.7Z" class="g8_163" />
<path d="M533.7,506.5c-7.6,0,-13.7,6.1,-13.7,13.7l0,27.8c0,7.6,6.1,13.8,13.7,13.8l61.8,0c7.6,0,13.8,-6.2,13.8,-13.8l0,-27.8c0,-7.6,-6.2,-13.7,-13.8,-13.7Z" class="g8_163" />
<path d="M631.2,506.5c-7.6,0,-13.8,6.1,-13.8,13.7l0,27.8c0,7.6,6.2,13.8,13.8,13.8l27.8,0c7.6,0,13.8,-6.2,13.8,-13.8l0,-27.8c0,-7.6,-6.2,-13.7,-13.8,-13.7Z" class="g8_163" />
<path d="M581.4,375c-7.6,0,-13.8,6.2,-13.8,13.8l0,27.8c0,7.6,6.2,13.8,13.8,13.8l67.5,0c7.6,0,13.8,-6.2,13.8,-13.8l0,-27.8c0,-7.6,-6.2,-13.8,-13.8,-13.8Z" class="g8_163" />
<path d="M368.9,375c-7.6,0,-13.8,6.2,-13.8,13.8l0,27.8c0,7.6,6.2,13.8,13.8,13.8l23.7,0c7.5,0,13.7,-6.2,13.7,-13.8l0,-27.8c0,-7.6,-6.2,-13.8,-13.7,-13.8Z" class="g8_163" />
<path d="M440,375c-7.6,0,-13.8,6.2,-13.8,13.8l0,27.8c0,7.6,6.2,13.8,13.8,13.8l23.6,0c7.6,0,13.8,-6.2,13.8,-13.8l0,-27.8c0,-7.6,-6.2,-13.8,-13.8,-13.8Z" class="g8_163" />
<path d="M510.2,375c-7.6,0,-13.7,6.2,-13.7,13.8l0,27.8c0,7.6,6.1,13.8,13.7,13.8l23.7,0c7.6,0,13.7,-6.2,13.7,-13.8l0,-27.8c0,-7.6,-6.1,-13.8,-13.7,-13.8Z" class="g8_163" />
<text 
x="292" 
y="369" 
dx="0,0.1,0.2,0.2,0.2" 
class="s9_163"
>Shéi </text>

<text 
x="367" 
y="369" 
dx="0,0.2,0.2,0.2,0.2" 
class="s9_163"
>jiāo </text>

<text 
x="443" 
y="369" 
dx="0,0.2,0.2" 
class="s9_163"
>nǐ </text>

<text 
x="510" 
y="369" 
dx="0,0.2,0.2,0.2" 
class="s9_163"
>tán </text>

<text 
x="597" 
y="369" 
dx="0,0.2,0.2,0.2,0.2" 
class="s9_163"
>jítā?</text>

<text 
x="132" 
y="501" 
dx="0,-0.6,0.2" 
class="s9_163"
>Tā </text>

<text 
x="215" 
y="501" 
dx="0,-0.1,0.2,0.2,0.2" 
class="s9_163"
>kěyǐ </text>

<text 
x="310" 
y="501" 
dx="0,0.2,0.2,0.2,0.2" 
class="s9_163"
>jiāo </text>

<text 
x="384" 
y="501" 
dx="0,0,0.2" 
class="s9_163"
>wǒ </text>

<text 
x="459" 
y="501" 
dx="0,0.2,0.2,0.2" 
class="s9_163"
>tán </text>

<text 
x="548" 
y="501" 
dx="0,0.2,0.2,0.2,0.2" 
class="s9_163"
>jítā </text>

<text 
x="627" 
y="501" 
dx="0,0.2,0.2" 
class="s9_163"
>ma?</text>

<text 
x="288" 
y="412" 
dx="0,0" 
class="s10_163"
>谁 </text>

<text 
x="363" 
y="412" 
dx="0,0" 
class="s10_163"
>教 </text>

<text 
x="435" 
y="412" 
dx="0,0" 
class="s10_163"
>你 </text>

<text 
x="507" 
y="412" 
dx="0,0" 
class="s10_163"
>弹 </text>

<text 
x="573" 
y="412" 
dx="0,0,0" 
class="s10_163"
>吉他？</text>

<text 
x="119" 
y="544" 
dx="0,0" 
class="s10_163"
>他 </text>

<text 
x="194" 
y="544" 
dx="0,0,0" 
class="s10_163"
>可以 </text>

<text 
x="305" 
y="544" 
dx="0,0" 
class="s10_163"
>教 </text>

<text 
x="378" 
y="544" 
dx="0,0" 
class="s10_163"
>我 </text>

<text 
x="456" 
y="544" 
dx="0,0" 
class="s10_163"
>弹 </text>

<text 
x="529" 
y="544" 
dx="0,0,0,18.1,0" 
class="s10_163"
>吉他 吗？</text>

<text 
x="338" 
y="455" 
dx="0,-0.2,0,0,0,0,0,0,0,0,0,0,0,-0.3,0,0,0,0,0,0,0,0,-0.4,0,0,0,0,0,0,0,0,0,0,0,0" 
class="s8_163"
>Who teaches you to play the guitar?</text>

<text 
x="262" 
y="587" 
dx="0,0,0,0,0,0,0,0,0,0,0,0,0,0,0,0,0,0,0,0,0,0,-0.4,0,0,0,0,0,0,0,0,0,0,0,0" 
class="s8_163"
>Can he teach me to play the guitar?</text>

<image preserveAspectRatio="none" x="113" y="648" width="719" height="480" xlink:href="163/img/3.png" />
<path d="M692.6,399.4L719.7,430" class="g7_163" />
<path d="M723.1,427c1.7,1.9,1.5,4.8,-0.4,6.5c-1.9,1.6,-4.8,1.5,-6.4,-0.4c-1.7,-1.9,-1.5,-4.8,0.4,-6.5c1.9,-1.7,4.8,-1.5,6.4,0.4Z" class="g2_163" />


<!-- Any embedded fonts defined here -->
<style type="text/css" ><![CDATA[

@font-face {
	font-family: Alegreya-Regular_cw_;
	src: url("fonts/Alegreya-Regular_cw_.woff") format("woff");
}

@font-face {
	font-family: ProximaNova-Bold_cws;
	src: url("fonts/ProximaNova-Bold_cws.woff") format("woff");
}

@font-face {
	font-family: ProximaNova-Extrabld_cx4;
	src: url("fonts/ProximaNova-Extrabld_cx4.woff") format("woff");
}

@font-face {
	font-family: STKaitiSC-Regular_cof;
	src: url("fonts/STKaitiSC-Regular_cof.woff") format("woff");
}

@font-face {
	font-family: ProximaNova-Semibold_cwz;
	src: url("fonts/ProximaNova-Semibold_cwz.woff") format("woff");
}

]]></style>

</svg>
