<?xml version="1.0" encoding="UTF-8" standalone="no"?>
<!DOCTYPE svg PUBLIC "-//W3C//DTD SVG 1.1//EN"
"http://www.w3.org/Graphics/SVG/1.1/DTD/svg11.dtd">


<!-- Page 254 -->
<svg x="0" y="0" width="921" height="1196" viewBox="0 0 921 1196" version="1.1" xmlns="http://www.w3.org/2000/svg" xmlns:xlink="http://www.w3.org/1999/xlink"
style="display: block;margin-left: auto;margin-right: auto;">
<defs>
<clipPath id="c0_254"><path d="M0,1196.3L0,0L921.3,0l0,1196.3Z" /></clipPath>

<style type="text/css"><![CDATA[

.g1_254{
fill: #102B57;
}
.g2_254{
fill: none;
stroke: #182C56;
stroke-width: 1.5277778;
stroke-linecap: butt;
stroke-linejoin: miter;
stroke-miterlimit: 4;
}
.g3_254{
fill: #182C56;
}
.g4_254{
fill: #1D457C;
}
.g5_254{
fill: #FFFFFF;
}

.s1_254{
font-size: 16.81px;
font-family: ProximaNova-Semibold_d64;
fill: #FFFFFF;
}
.s2_254{
font-size: 22.92px;
font-family: Alegreya-Black_d68;
fill: #1D457C;
}
.s3_254{
font-size: 19.10px;
font-family: Alegreya-Regular_d61;
fill: #231F20;
}
.s4_254{
font-size: 24.44px;
font-family: Alegreya-Black_d68;
fill: #040504;
}
.s5_254{
font-size: 19.86px;
font-family: Alegreya-Bold_d66;
fill: #FFFFFF;
}
.s6_254{
font-size: 24.44px;
font-family: ProximaNova-Extrabld_d62;
fill: #1D457C;
}
.s7_254{
font-size: 22.92px;
font-family: ProximaNova-Extrabld_d62;
fill: #FFFFFF;
}
.s8_254{
font-size: 18.33px;
font-family: ProximaNova-Bold_d5-;
fill: #FFFFFF;
}

]]></style>

</defs>
<path d="M0,0
L0,1196
L921,1196
L921,0 Z " 
fill="#FFFFFF" stroke="none" />
<path d="M491.8,928.2l0,0l0,-52c0,-9.1,-7.4,-16.5,-16.5,-16.5l-475.2,0l0,68.5Z" class="g1_254" />
<path d="M163.4,894l399.8,0" class="g2_254" />
<path d="M563.2,899.5c3,0,5.5,-2.5,5.5,-5.5c0,-3.1,-2.5,-5.5,-5.5,-5.5c-3,0,-5.5,2.4,-5.5,5.5c0,3,2.5,5.5,5.5,5.5Z" class="g3_254" />
<g clip-path="url(#c0_254)">
<path d="M0,928.2l0,0L0,1210l935,0l0,-281.8Z" class="g4_254" />
</g>
<image preserveAspectRatio="none" x="0" y="0" width="921" height="500" xlink:href="254/img/1.png" />
<image preserveAspectRatio="none" x="81" y="467" width="325" height="29" xlink:href="254/img/2.png" />
<text 
x="87" 
y="485" 
dx="0,0,0,0,0,0,0,0,0,0,0,0,0,0,0,0,0,0,0,0,0,0,0,0,0,0,0,0,0,0,0,0,0,0,0,0,0,0,0,0,0,0,0" 
class="s1_254"
>A lively English class in Zhejiang Province</text>

<text 
x="89" 
y="545" 
dx="0,0,0,0,0,0,0,-0.2,0,0,0,0,0,0,0,0,0" 
class="s2_254"
>Standard Subjects</text>

<text 
x="87" 
y="574" 
dx="0,-0.4,0,0,0,-0.4,0,0,-0.2,0,0,0,0,0,0,0,0,0,0,-0.4,0,0,0,0,0,0,0,-0.4,0,0,0,0" 
class="s3_254"
>Unlike Martin and Isabella, who </text>

<text 
x="88" 
y="600" 
dx="0,0,0,0,0,0,0,0,0,0,0,0,0,0,0,0,0,0,0,0,0,0,0,0,0,0,0,0,0,0,-0.4" 
class="s3_254"
>go to an international school, </text>

<text 
x="88" 
y="626" 
dx="0,0,0,0,0,0,0,0,0,0,0,0,0,0,0,0,0,0,0,0,0,0,0,0,0,0,0,0,0,0,0,0" 
class="s3_254"
>most students in Chinese public </text>

<text 
x="88" 
y="652" 
dx="0,0,0,0,0,0,0,0,0,0,0,-1.5,0,0,0,0,0,0,0,0,0,0,0,0,0,-0.4,0,0,0,0" 
class="s3_254"
>schools don’t get much say in </text>

<text 
x="87" 
y="678" 
dx="0,0,0,0,0,0,0,0,0,0,0,0,0,0,0,0,0,0,0,0,0,-0.4,0,0,-0.4,-0.4,-0.3,0,0,0,0,0,0" 
class="s3_254"
>what classes they take except in </text>

<text 
x="88" 
y="704" 
dx="0,0,0,0,0,0,0,0,0,0,0,-0.3,0,0,-0.3,0,0,0,0,0,0,0,0,0,0,0,0,0,0,0,0,0,0,0,-0.4" 
class="s3_254"
>the last two years of high school. </text>

<text 
x="88" 
y="730" 
dx="0,0,0,0,0,0,0,0,0,0,0,0,0,0,-0.2,0,0,0,0,0,0,0,0,0,0,0,0,0,0,0,0,0,-0.6,-0.4" 
class="s3_254"
>Students typically study Chinese, </text>

<text 
x="88" 
y="756" 
dx="0,0,0,0,0,-0.4,0,0,0,-0.3,0,-0.2,0,0,0,0,0,0,0,0,0,0,0,0,0,0,0,0,0,0,0,0,0,0" 
class="s3_254"
>math, a foreign language (usually </text>

<text 
x="87" 
y="782" 
dx="0,-0.6,0,0,0,0,0,0,0,-0.4,0,0,0,0,0,0,0,0,0,0,0,0,0,0,-0.4,-0.4,0,0,0,0,0,0,-0.3,-0.6,-0.4" 
class="s3_254"
>English), social studies, science, </text>

<text 
x="88" 
y="808" 
dx="0,0,0,0,0,0,-0.4,0,0,0,-0.2,0,0,0,0,0,0,-0.2,0,0,0,0,0,-0.4" 
class="s3_254"
>and physical education. </text>

<text 
x="469" 
y="545" 
dx="0,0,0,0.2,0,0,0,-0.3,0,0,0,0,0,0.2,0,0,0,0,0,0,-0.2,0,0,0,0,0" 
class="s2_254"
>A Chance to Choose Courses</text>

<text 
x="469" 
y="574" 
dx="0,-0.6,0,-0.3,0,0,0,0,-1.3,-0.4,0,0,0,0,0,0,0,0,0,0,0,0,0,0,-0.3,-0.3,0,0,0,0,0,0,0" 
class="s3_254"
>Recently, the Chinese government </text>

<text 
x="470" 
y="600" 
dx="0,0,0,0,0,-0.2,0,0,0,0,0,0,-0.3,0,0,0,0,0,-0.2,0,0,0,0,0,0,0,0,-0.3,0,0,0,0,0,0,0,0,0,0" 
class="s3_254"
>has called for more electives as part </text>

<text 
x="470" 
y="626" 
dx="0,0,0,0,0,0,0,0,0,-0.3,0,0,0,0,0,0,0,0,0,0,-0.2,0,0,0,0,0,0,-0.2,0,0,0,0,0,0,0,-1.3,-0.4" 
class="s3_254"
>of an effort to increase creativity, </text>

<text 
x="469" 
y="652" 
dx="0,0,0,0,0,-0.2,0,0,0,0,0,0,-0.4,0,0,0,0,0,0,0,0,0,0,0,0,0,0,0,0,0,0,0,0,0,0,0,0,0" 
class="s3_254"
>interaction, and individuality in the </text>

<text 
x="470" 
y="678" 
dx="0,0,0,0,-0.2,0,0,0,0,0,0,0,0,0,0,0,0,-0.4,0,-0.2,0,0,0,0,0,0,0,0,0,0,0,-0.2,0,0" 
class="s3_254"
>education system. In some general </text>

<text 
x="470" 
y="704" 
dx="0,0,0,0,0,0,0,0,0,0,0,0,-0.4,-0.4,0,0,0,0,0,0,0,0,0,0,0,0,0,0,0,0,-0.2,0,0,0" 
class="s3_254"
>high schools, 11th and 12th grade </text>

<text 
x="470" 
y="730" 
dx="0,0,0,0,0,0,0,0,0,0,0,-0.3,0,0,0,0,0,0,0,0,0,0,0,0,0,0,0,0,0,0,0,0,0,0,-0.3,0,0" 
class="s3_254"
>students now get to mix in electives </text>

<text 
x="469" 
y="756" 
dx="0,0,0,0,0,0,0,0,0,0,0,0,-0.2,0,0,0,0,-0.2,0,0,0,-0.3,0,0,0,0,0,-0.4,-0.4" 
class="s3_254"
>with their required courses. </text>

<text 
x="597" 
y="884" 
dx="0,-0.5,-0.2,0,0,0,0,0,0,0,0,0,0,0,0,0,0,0,0,0,0,0,0,0,0,0,0,0" 
class="s4_254"
>How is student life similar </text>

<text 
x="598" 
y="911" 
dx="0,0,0,-0.2,0,0,0,0,0,0,0,0,0,0,0,0,-0.2,0,-0.5,0,0" 
class="s4_254"
>throughout the world?</text>

<text 
x="205" 
y="1051" 
dx="0,-0.4,-0.3,0,0,0,0,-0.1,0,0,-0.1,0,0,0,-0.3,0,0,0,0,0,0.1,0,0,0,0,0,0,0,0,0,0,0,0,0,0,0,0,0,0,0,0,-0.2,0,0,0,0,0,0,-0.3,-0.3,0,0,0,0,0,0,0,0,0,0,0,-0.3,0,0,0,0,0,-0.3,0,-0.2,0" 
class="s5_254"
>How much choice do Chinese students typically have in their coursework </text>

<text 
x="204" 
y="1074" 
dx="0,-0.3,0,0,0,0,-0.2,0,0,0,0,0,0,0,0,0,-0.3,0,0,0,0,-0.1,0,0,-0.3,0,0,0,0,-0.3,-0.3,0" 
class="s5_254"
>compared with how much you have?</text>

<text 
x="205" 
y="991" 
dx="0,0,0,0,0,0,-0.3,0,0,0,0,0,0,0,0,-0.2,0,0,-0.2,0,0,0,0,-0.2,0,0,0,0,0,0,-0.3,0,0,0,0,0,-0.1,0,0,0,0,0,0,-0.1,0,0,-0.3,0,0,0,0,0,0,0,0,0,0,0,0,0,0,0,-0.2,0,0,0,0,-0.2,0,0,0,0,0,0" 
class="s5_254"
>What courses are required at your school? Do you think those requirements </text>

<text 
x="205" 
y="1014" 
dx="0,0,0,-0.3,0,0,0,0,0,0,0,0" 
class="s5_254"
>make sense? </text>

<path d="M164,1012c9.7,0,17.6,-7.9,17.6,-17.7c0,-9.8,-7.9,-17.7,-17.6,-17.7c-9.8,0,-17.7,7.9,-17.7,17.7c0,9.8,7.9,17.7,17.7,17.7Z" class="g5_254" />
<path d="M164,1072.8c9.7,0,17.6,-7.9,17.6,-17.7c0,-9.7,-7.9,-17.6,-17.6,-17.6c-9.8,0,-17.7,7.9,-17.7,17.6c0,9.8,7.9,17.7,17.7,17.7Z" class="g5_254" />
<path d="M164,1133.7c9.7,0,17.6,-8,17.6,-17.7c0,-9.8,-7.9,-17.7,-17.6,-17.7c-9.8,0,-17.7,7.9,-17.7,17.7c0,9.7,7.9,17.7,17.7,17.7Z" class="g5_254" />
<text 
x="157" 
y="1001" 
dx="0" 
class="s6_254"
>1</text>

<text 
x="155" 
y="1062" 
dx="0" 
class="s6_254"
>2</text>

<text 
x="156" 
y="1123" 
dx="0" 
class="s6_254"
>3</text>

<text 
x="205" 
y="1112" 
dx="0,0.1,0,0,0,0,0,0,0,0,0,0,0,-0.1,0,0,0,0,0,0,0,0,0,0,0,0,0,-0.1,0,0,0,0,0,0,0,0,0,0,0,0,0,0,0,0,0,0,0,0,0,0,0,0,0,-0.2,0,0,0,-0.3,0,0,0,0,0,0.1,0,0,0,0,0,0,0,0,0,0,0,0,-0.4,-0.4" 
class="s5_254"
>Choosing to go onto high school is a major decision for young Chinese people. </text>

<text 
x="205" 
y="1135" 
dx="0,-0.3,-0.3,-0.3,0,0,-0.3,0,0,0,0,-0.3,0,0,0,0,0,0,0,0,0,0,-0.1,0,0,0,-0.3,0,0,0,0,0,0,0,0,0,0,0,0,0,0,0,0,0,0,0,0,0,0,0,-0.2,0,-0.2,0,0,-0.3,0,0,0,0,0,-0.3,0,0,0,0,0,0,-0.2,0" 
class="s5_254"
>Have you ever made a choice that made a major difference in your life?</text>

<text 
x="143" 
y="889" 
dx="0,0.1,0.1,0.1,0.1,0.1,0.1,0.1,0.1,0.1,0.1,0.1,0.1,0.1,0.1" 
class="s7_254"
>REFLEct ON tHE </text>

<text 
x="143" 
y="914" 
dx="0,0.1,0.1,0.1,0.1,0.1,0.1,0.1,0.1,0.1,0.1,0.1,0.1,0.1,0.1,0.1,0.1,0.1,0.1" 
class="s7_254"
>ESSENtIAL QUEStION </text>

<text 
x="857" 
y="1149" 
dx="0,0,0" 
class="s8_254"
>231</text>



<!-- Any embedded fonts defined here -->
<style type="text/css" ><![CDATA[

@font-face {
	font-family: ProximaNova-Semibold_d64;
	src: url("fonts/ProximaNova-Semibold_d64.woff") format("woff");
}

@font-face {
	font-family: ProximaNova-Bold_d5-;
	src: url("fonts/ProximaNova-Bold_d5-.woff") format("woff");
}

@font-face {
	font-family: Alegreya-Black_d68;
	src: url("fonts/Alegreya-Black_d68.woff") format("woff");
}

@font-face {
	font-family: ProximaNova-Extrabld_d62;
	src: url("fonts/ProximaNova-Extrabld_d62.woff") format("woff");
}

@font-face {
	font-family: Alegreya-Regular_d61;
	src: url("fonts/Alegreya-Regular_d61.woff") format("woff");
}

@font-face {
	font-family: Alegreya-Bold_d66;
	src: url("fonts/Alegreya-Bold_d66.woff") format("woff");
}

]]></style>

</svg>
