<?xml version="1.0" encoding="UTF-8" standalone="no"?>
<!DOCTYPE svg PUBLIC "-//W3C//DTD SVG 1.1//EN"
"http://www.w3.org/Graphics/SVG/1.1/DTD/svg11.dtd">


<!-- Page 257 -->
<svg x="0" y="0" width="921" height="1196" viewBox="0 0 921 1196" version="1.1" xmlns="http://www.w3.org/2000/svg" xmlns:xlink="http://www.w3.org/1999/xlink"
style="display: block;margin-left: auto;margin-right: auto;">
<defs>

<style type="text/css"><![CDATA[

.g1_257{
fill: none;
stroke: #3986C6;
stroke-width: 1.6194444;
stroke-linecap: butt;
stroke-linejoin: miter;
stroke-miterlimit: 4;
}
.g2_257{
fill: #3986C6;
}
.g3_257{
fill: none;
stroke: #3986C6;
stroke-width: 1.1458334;
stroke-linecap: butt;
stroke-linejoin: miter;
}
.g4_257{
fill: #ACBF3B;
}
.g5_257{
fill: #E2E3E5;
}
.g6_257{
fill: none;
stroke: #3986C6;
stroke-width: 1.5277778;
stroke-linecap: butt;
stroke-linejoin: miter;
stroke-miterlimit: 4;
}
.g7_257{
fill: #ED692E;
}
.g8_257{
fill: none;
stroke: #ED692E;
stroke-width: 1.5277778;
stroke-linecap: butt;
stroke-linejoin: miter;
}
.g9_257{
fill: #8B8D9A;
}
.g10_257{
fill: none;
stroke: #3986C6;
stroke-width: 1.5277778;
stroke-linecap: butt;
stroke-linejoin: miter;
}

.s1_257{
font-size: 12.99px;
font-family: ProximaNova-Semibold_cot;
fill: #231F20;
}
.s2_257{
font-size: 18.33px;
font-family: ProximaNova-Bold_d5-;
fill: #231F20;
}
.s3_257{
font-size: 19.10px;
font-family: Alegreya-Regular_d61;
fill: #231F20;
}
.s4_257{
font-size: 22.92px;
font-family: STKaitiSC-Bold_cmk;
fill: #ED682D;
}
.s5_257{
font-size: 25.97px;
font-family: ProximaNova-Bold_d5-;
fill: #FFFFFF;
}
.s6_257{
font-size: 25.97px;
font-family: ProximaNova-Bold_d5-;
fill: #231F20;
}
.s7_257{
font-size: 13.75px;
font-family: ProximaNova-Extrabld_d62;
fill: #FFFFFF;
}
.s8_257{
font-size: 19.10px;
font-family: Alegreya-Bold_d66;
fill: #3986C6;
}
.s9_257{
font-size: 32.08px;
font-family: STKaitiSC-Regular_cof;
fill: #231F20;
}
.s10_257{
font-size: 32.08px;
font-family: STKaitiSC-Bold_cmk;
fill: #231F20;
}
.s11_257{
font-size: 16.04px;
font-family: Alegreya-Regular_d61;
fill: #231F20;
}

]]></style>

</defs>
<path d="M0,0
L0,1196
L921,1196
L921,0 Z " 
fill="#FFFFFF" stroke="none" />
<text 
transform="matrix(0, -1, 1, 0, 54, 1084)"
dx="0,0,0,0,0,0,0,0,0,0,0,0,0,0,0,0,0,0,0" 
class="s1_257"
>Go Far with Chinese</text>

<text 
x="32" 
y="1149" 
dx="0,0,0" 
class="s2_257"
>234</text>

<path d="M50.4,1089.3l0,38.7" class="g1_257" />
<path d="M50.4,1125.4c-1.4,0,-2.5,1.1,-2.5,2.6c0,1.4,1.1,2.6,2.5,2.6c1.5,0,2.6,-1.2,2.6,-2.6c0,-1.5,-1.1,-2.6,-2.6,-2.6Z" class="g2_257" />
<text 
x="138" 
y="195" 
dx="0,-0.8,0,0,0,0,-0.4,0,0,0,-0.4,-0.3,0,0,0,0,0,0,-0.3,0,0,0,0,0,0,0,0,0,0,-0.4,0,0,0,0,0,0,0,0,0,0,0,0,0,0,0,0,0,0,0,0,0,0,0,0,0,0,0,0,0,0,0,0,0,0,0,0,0,0,0,0,0,0,0,-0.2,0,0,0,0,0" 
class="s3_257"
>You may have noticed that many subject names in Chinese end with the character </text>

<text 
x="770" 
y="194" 
dx="0" 
class="s4_257"
>学</text>

<text 
x="790" 
y="195" 
dx="0,-0.4" 
class="s3_257"
>. </text>

<text 
x="138" 
y="221" 
dx="0,-0.2,0,0,0,0,0,0,0,0,0,0,0,0,0,0,0,0,-0.2,0,0,0,-0.4,-0.4,0,-0.3,0,0,0,-0.2,0,0,0,0,0,0,0,0,0,0,0" 
class="s3_257"
>In some of these cases, you can think of </text>

<text 
x="447" 
y="220" 
dx="0" 
class="s4_257"
>学</text>

<text 
x="473" 
y="221" 
dx="0,0,0,0,0,0,0,0,0,0,0,-0.4,0,0,0,0,0,0,0,0,0,0,0,0,0,-0.4,0,0,0,-1.1,-0.4,0,-0.4,0,-0.2,0,0,0,-0.2,0" 
class="s3_257"
>as meaning “the study of ___.” Here are </text>

<text 
x="139" 
y="247" 
dx="0,0,0,0,0,0,0,0,0,0,0,0,0,0,0,0,0,0,0,0,0,0,0,0,0,0,0,0" 
class="s3_257"
>some subjects that end with </text>

<text 
x="359" 
y="246" 
dx="0" 
class="s4_257"
>学</text>

<text 
x="379" 
y="247" 
dx="0,-0.4,0,0,0,0,0,-0.3,0,0,0,0,0,0,0,0,0,0,0,0,0,0,0,0,0,0,0,0,0,0,0,0,0,0,0,0,0,-0.2,0,-0.3,0,0,0,0,0" 
class="s3_257"
>. Can you guess which subjects they refer to?</text>

<image preserveAspectRatio="none" x="309" y="277" width="319" height="213" xlink:href="257/img/1.png" />
<text 
x="111" 
y="794" 
dx="0,-0.4,0,0,0,0,0,0,0,0,0,0,0,0,-0.4,-0.4,0,-0.2,0,0,0,0,0,0,0,0,-0.3,0,0,0,0,0,0,0,0,0,0,0,-0.3,0,0,0,0,0,0,0,0,0,0,0,0,0,0,0,0,0,0,0,0,0,0,0,0,0,0,-0.3,0,0,0,0,0,0,0,0,0,0,0,0,0,0,-0.4,0,0,0,0,0,0,0,0,-0.4" 
class="s3_257"
>Complete the exercise below to check your understanding of what you learned in Section 1. </text>

<text 
x="110" 
y="820" 
dx="0,0,0,0,-0.3,0,0,0,0,-0.4,-0.3,0,0,0,0,0,0,0,0,0,0,-0.4,-0.4,0,-0.3,0,0,0,0,0,0,0,0,0,0,0,0,0,0,0,0,0,0,0,0,-0.6,0,-0.3,0,-0.2,0,0,-0.3,0,0,0,0,0,0,0,0,0" 
class="s3_257"
>If you have questions, consult the Language Reference section.</text>

<path d="M129,763.7c-10.1,0,-18.3,-8.2,-18.3,-18.3l0,-20.2l23.1,0c10.1,0,18.3,8.3,18.3,18.4l0,20.1Z" class="g2_257" />
<path d="M120.1,725.5l359.1,0" class="g3_257" />
<path d="M133.8,763l345.4,0" class="g3_257" />
<text 
x="118" 
y="751" 
dx="0,0,0" 
class="s5_257"
>1c </text>

<text 
x="161" 
y="751" 
dx="0,0,0,0,0,0,0,0,0,0,0,0,0,0" 
class="s6_257"
>Puzzle It Out </text>

<path d="M335.5,756.3c-6,0,-10.8,-4.9,-10.8,-10.9l0,-10.8l140.7,0c6,0,10.9,4.8,10.9,10.8l0,10.9Z" class="g4_257" />
<text 
x="340" 
y="749" 
dx="0,0,0,0,0,0,0,0,0,0,0,0,0,0" 
class="s7_257"
>Pr³Gr²±± Ch²CK</text>

<text 
x="112" 
y="869" 
dx="0,0,0,0,0,0,0,0,0,-0.3,0,-0.2,0,0,0,0,0,0,0,0,0,0,0,0,0,0,0,0,0,0,0,0,0,0,0,0,0,0,0,0,0,0,-0.3,0,0,0,0,0,0,0,0,0,0,0,0,0,0,0,0,0,0,0,-0.3,0,0,0,0,0,-0.3,-1.3,-0.4,0,0,0,0,0,0,0,0,0,0,-0.3,0,-0.2,0,0,0,0,-0.3,-0.6" 
class="s3_257"
>Use the words in the list on the left to complete each sentence below. Use each word once.</text>

<text 
x="248" 
y="909" 
dx="0" 
class="s8_257"
>±</text>

<text 
x="265" 
y="912" 
dx="0,0,0,0" 
class="s9_257"
>你最喜欢</text>

<path d="M400.1,921.4l82.8,0l0,-36.3l-82.8,0l0,36.3Z" class="g5_257" />
<text 
x="487" 
y="912" 
dx="0,0,0,0" 
class="s9_257"
>只宠物？</text>

<text 
x="249" 
y="959" 
dx="0" 
class="s8_257"
>²</text>

<text 
x="266" 
y="962" 
dx="0,0,0" 
class="s9_257"
>我们去</text>

<path d="M368.9,971.4l82.7,0l0,-36.3l-82.7,0l0,36.3Z" class="g5_257" />
<text 
x="451" 
y="962" 
dx="0,0,0,0,0,0" 
class="s9_257"
>个乐器店吧！</text>

<text 
x="249" 
y="1009" 
dx="0" 
class="s8_257"
>³</text>

<text 
x="265" 
y="1012" 
dx="0,0,0,0,0" 
class="s9_257"
>你们现在在</text>

<path d="M432.6,1021.4l82.8,0l0,-36.2l-82.8,0l0,36.2Z" class="g5_257" />
<text 
x="515" 
y="1012" 
dx="0" 
class="s9_257"
>？</text>

<text 
x="248" 
y="1060" 
dx="0" 
class="s8_257"
>´</text>

<path d="M265.2,1071.5l82.8,0l0,-36.3l-82.8,0l0,36.3Z" class="g5_257" />
<text 
x="354" 
y="1063" 
dx="0,0,0,0,0,0,0,0" 
class="s9_257"
>有一个乒乓球馆。</text>

<text 
x="249" 
y="1109" 
dx="0" 
class="s8_257"
>µ</text>

<text 
x="266" 
y="1112" 
dx="0,0,0,0" 
class="s9_257"
>这个书店</text>

<path d="M399.4,1121.5l82.8,0l0,-36.3l-82.8,0l0,36.3Z" class="g5_257" />
<text 
x="488" 
y="1112" 
dx="0,0,0,0,0,0,0,0" 
class="s9_257"
>有什么好看的书？</text>

<path d="M112.8,986.1l73.7,0l0,-36.9l-73.7,0l0,36.9Z" class="g5_257" />
<path d="M112.8,1029.9l73.7,0l0,-36.9l-73.7,0l0,36.9Z" class="g5_257" />
<path d="M112.8,942.3l73.7,0l0,-36.9l-73.7,0l0,36.9Z" class="g5_257" />
<text 
x="129" 
y="933" 
dx="0" 
class="s10_257"
>还</text>

<text 
x="129" 
y="977" 
dx="0" 
class="s10_257"
>哪</text>

<text 
x="118" 
y="1021" 
dx="0,0" 
class="s10_257"
>哪儿</text>

<path d="M209.6,890.8l0,248.5" class="g6_257" />
<path d="M209.6,1142.9c2,0,3.7,-1.6,3.7,-3.6c0,-2.1,-1.7,-3.7,-3.7,-3.7c-2,0,-3.7,1.6,-3.7,3.7c0,2,1.7,3.6,3.7,3.6Z" class="g2_257" />
<path d="M112.8,1072.8l73.7,0l0,-37l-73.7,0l0,37Z" class="g5_257" />
<path d="M113.5,1115.2l73.7,0l0,-36.9l-73.7,0l0,36.9Z" class="g5_257" />
<text 
x="126" 
y="1064" 
dx="0" 
class="s10_257"
>那</text>

<text 
x="118" 
y="1107" 
dx="0,0" 
class="s10_257"
>那儿</text>

<path d="M111,118.2l0,-27l5.2,0l0,22.4l12,0l0,4.6Z" class="g7_257" />
<path d="M155.3,118.2l-5.2,0l-2.2,-6.4l-10.7,0l-2.2,6.4l-5.2,0l9.7,-27l6.3,0ZM142.6,95.7l-4.1,11.8l8.1,0Z" class="g7_257" />
<path d="M175.1,91.2l4.9,0l0,27.3l-5.5,0L161.8,98.6l0,19.6l-5,0l0,-27l5.7,0l12.6,19.7Z" class="g7_257" />
<path d="M196.1,118.9c-8.2,0,-13.8,-5.3,-13.8,-14.1c0,-8.8,5.6,-14.3,13.8,-14.3c3.2,0,7,0.9,9.4,2.4l-1.7,4.6c-2.3,-1.5,-5,-2.4,-7.6,-2.4c-5.3,0,-8.7,3.6,-8.7,9.5c0,6.1,3.3,9.8,8.7,9.8c1.9,0,3.7,-0.5,5,-1.1l0,-5.2l-6.9,0l0,-4.4l11.7,0l0,12.6c-2.8,1.7,-6.6,2.6,-9.9,2.6Z" class="g7_257" />
<path d="M219.8,118.9c-6.8,0,-11,-3.9,-11,-10.9l0,-16.8l5.2,0l0,16.1c0,4.4,1.9,7,6,7c3.7,0,5.8,-2.1,5.8,-6.8l0,-16.3l5.1,0l0,16.3c0,7.4,-4,11.4,-11.1,11.4Z" class="g7_257" />
<path d="M285.2,118.9c-8.2,0,-13.8,-5.3,-13.8,-14.1c0,-8.8,5.6,-14.3,13.8,-14.3c3.2,0,7,0.9,9.4,2.4l-1.7,4.6c-2.3,-1.5,-5,-2.4,-7.6,-2.4c-5.3,0,-8.7,3.6,-8.7,9.5c0,6.1,3.3,9.8,8.7,9.8c1.9,0,3.7,-0.5,5,-1.1l0,-5.2l-7,0l0,-4.4l11.8,0l0,12.6c-2.8,1.7,-6.6,2.6,-9.9,2.6Z" class="g7_257" />
<path d="M298,118.2l0,-27l18.1,0l0,4.4l-13,0l0,6.8l10.6,0l0,4.5l-10.6,0l0,6.9l13,0l0,4.4Z" class="g7_257" />
<path d="M190.6,129.7c-2.2,-1.4,-4.5,-2.1,-7,-2.1c-5.2,0,-8.6,3.6,-8.6,9.5c0,6,3.3,9.7,8.7,9.7c2.7,0,5.3,-1,7.2,-2.4l1,4.9c-2.1,1.3,-5.4,2.1,-8.4,2.1c-8.2,0,-13.8,-5.3,-13.8,-14.1c0,-8.7,5.6,-14.3,13.9,-14.3c3.1,0,6.3,0.8,8.6,2.1Z" class="g2_257" />
<path d="M212,150.7l0,-11.3l-12.6,0l0,11.3l-5.1,0l0,-27l5.1,0l0,11.1l12.6,0l0,-11.1l5.2,0l0,27Z" class="g2_257" />
<path d="M285.2,150.7l0,-27l5.1,0l0,22.4l12,0l0,4.6Z" class="g2_257" />
<path d="M305,150.7l0,-27l5.2,0l0,22.4l12,0l0,4.6Z" class="g2_257" />
<path d="M324.8,150.7l0,-27l18.1,0l0,4.4l-13,0l0,6.8l10.7,0l0,4.5l-10.7,0l0,6.9l13,0l0,4.4Z" class="g2_257" />
<path d="M363.6,123.7l4.9,0l0,27.3l-5.5,0L350.3,131.1l0,19.6l-4.9,0l0,-27l5.6,0l12.6,19.7Z" class="g2_257" />
<path d="M383.8,151.4c-8.2,0,-13.8,-5.3,-13.8,-14.1c0,-8.8,5.6,-14.3,13.8,-14.3c3.2,0,7,0.9,9.4,2.4l-1.7,4.5c-2.3,-1.4,-5,-2.3,-7.6,-2.3c-5.3,0,-8.7,3.6,-8.7,9.5c0,6.1,3.3,9.8,8.7,9.8c1.9,0,3.7,-0.5,5,-1.1l0,-5.2l-7,0l0,-4.4l11.8,0l0,12.6c-2.8,1.7,-6.6,2.6,-9.9,2.6Z" class="g2_257" />
<path d="M397.4,150.7l0,-27l18.1,0l0,4.4l-13,0l0,6.8l10.7,0l0,4.5l-10.7,0l0,6.9l13,0l0,4.4Z" class="g2_257" />
<path d="M283.4,150.6l-7.6,0l-7.7,-21.5l-33.3,0l-7.7,21.5l-7.6,0L247.3,75.7l8.8,0ZM251.5,83.3l-14.1,38.9l28.1,0Z" class="g7_257" />
<path d="M283.4,150.6l-7.6,0l-7.7,-21.5l-33.3,0l-7.7,21.5l-7.6,0L247.3,75.7l8.8,0l27.3,74.9ZM251.5,83.3l-14.1,38.9l28.1,0l-14,-38.9Z" class="g8_257" />
<path d="M252.7,56c0,0,3.6,-2.9,8.7,1.1c5.1,4.1,6,2.2,6,2.2c0,0,-1.9,3.5,-5.5,4c-3.6,0.5,-8.3,1,-9.2,-0.2Z" class="g7_257" />
<path d="M252.9,75.8l-2.5,0l0,-17.9l2.5,0l0,17.9Z" class="g9_257" />
<path d="M337.5,93.9l75.8,0c7.8,0,14.1,7.7,14.1,17.3l0,40.2l231.2,0" class="g10_257" />
<path d="M337.5,98.4c2.5,0,4.6,-2,4.6,-4.5c0,-2.6,-2.1,-4.6,-4.6,-4.6c-2.5,0,-4.6,2,-4.6,4.6c0,2.5,2.1,4.5,4.6,4.5Z" class="g2_257" />
<path d="M112.2,137.3l0.6,527.3c0,10.1,8.2,18.3,18.3,18.3l692.4,0" class="g10_257" />
<path d="M823.5,687.5c2.5,0,4.6,-2.1,4.6,-4.6c0,-2.5,-2.1,-4.6,-4.6,-4.6c-2.6,0,-4.6,2.1,-4.6,4.6c0,2.5,2,4.6,4.6,4.6Z" class="g2_257" />
<path d="M823.7,685.6L823.1,178.9c0,-15.2,-12.4,-27.5,-27.6,-27.5l-275,0" class="g6_257" />
<text 
x="154" 
y="524" 
dx="0,0.2,0.2,0.2,0.2,0.2" 
class="s11_257"
>jīngjì</text>

<text 
x="149" 
y="547" 
dx="0,-1.4" 
class="s4_257"
>经济</text>

<text 
x="212" 
y="548" 
dx="0,0" 
class="s3_257"
>+ </text>

<text 
x="241" 
y="547" 
dx="0" 
class="s4_257"
>学</text>

<text 
x="287" 
y="548" 
dx="0,0" 
class="s3_257"
>= </text>

<text 
x="316" 
y="547" 
dx="0,-1.4,-0.8" 
class="s4_257"
>经济学</text>

<text 
x="151" 
y="574" 
dx="0,0,-0.3,0,0,0,-0.4,0" 
class="s3_257"
>economy </text>

<text 
x="240" 
y="574" 
dx="0,0" 
class="s3_257"
>+ </text>

<text 
x="269" 
y="573" 
dx="0" 
class="s4_257"
>学</text>

<text 
x="311" 
y="574" 
dx="0,0" 
class="s3_257"
>= </text>

<text 
x="339" 
y="574" 
dx="0" 
class="s3_257"
>?</text>

<text 
x="151" 
y="617" 
dx="0,0.2,0.2,0.2,0.2,0.2" 
class="s11_257"
>shèhuì</text>

<text 
x="149" 
y="640" 
dx="0,-1.3" 
class="s4_257"
>社会</text>

<text 
x="213" 
y="641" 
dx="0,0" 
class="s3_257"
>+ </text>

<text 
x="242" 
y="640" 
dx="0" 
class="s4_257"
>学</text>

<text 
x="284" 
y="641" 
dx="0,0" 
class="s3_257"
>= </text>

<text 
x="313" 
y="640" 
dx="0,-1.3,-0.7" 
class="s4_257"
>社会学</text>

<text 
x="151" 
y="667" 
dx="0,0,0,0,0,0,0,0" 
class="s3_257"
>society </text>

<text 
x="224" 
y="667" 
dx="0,0" 
class="s3_257"
>+ </text>

<text 
x="253" 
y="666" 
dx="0" 
class="s4_257"
>学</text>

<text 
x="295" 
y="667" 
dx="0,0" 
class="s3_257"
>= </text>

<text 
x="324" 
y="667" 
dx="0" 
class="s3_257"
>?</text>

<text 
x="497" 
y="524" 
dx="0,0.2,0.2,0.2,0.2,0.2,0.2" 
class="s11_257"
>shēngwù</text>

<text 
x="493" 
y="547" 
dx="0,-1.5" 
class="s4_257"
>生物</text>

<text 
x="557" 
y="548" 
dx="0,0" 
class="s3_257"
>+ </text>

<text 
x="586" 
y="547" 
dx="0" 
class="s4_257"
>学</text>

<text 
x="628" 
y="548" 
dx="0,0" 
class="s3_257"
>= </text>

<text 
x="656" 
y="547" 
dx="0,-1.5,-1.2" 
class="s4_257"
>生物学</text>

<text 
x="497" 
y="574" 
dx="0,0,0,0,0,0,0,0,0,0,0,0,0,0" 
class="s3_257"
>living things </text>

<text 
x="613" 
y="574" 
dx="0,0" 
class="s3_257"
>+ </text>

<text 
x="642" 
y="573" 
dx="0" 
class="s4_257"
>学</text>

<text 
x="684" 
y="574" 
dx="0,0" 
class="s3_257"
>= </text>

<text 
x="713" 
y="574" 
dx="0" 
class="s3_257"
>?</text>

<text 
x="497" 
y="617" 
dx="0,0.2,0.2" 
class="s11_257"
>zhé</text>

<text 
x="494" 
y="640" 
dx="0" 
class="s4_257"
>哲</text>

<text 
x="536" 
y="641" 
dx="0,0" 
class="s3_257"
>+ </text>

<text 
x="565" 
y="640" 
dx="0" 
class="s4_257"
>学</text>

<text 
x="607" 
y="641" 
dx="0,0" 
class="s3_257"
>= </text>

<text 
x="635" 
y="640" 
dx="0,-1.6" 
class="s4_257"
>哲学</text>

<text 
x="496" 
y="667" 
dx="0,0,0,0,0" 
class="s3_257"
>wise </text>

<text 
x="550" 
y="667" 
dx="0,0" 
class="s3_257"
>+ </text>

<text 
x="579" 
y="666" 
dx="0" 
class="s4_257"
>学</text>

<text 
x="621" 
y="667" 
dx="0,0" 
class="s3_257"
>= </text>

<text 
x="650" 
y="667" 
dx="0" 
class="s3_257"
>?</text>



<!-- Any embedded fonts defined here -->
<style type="text/css" ><![CDATA[

@font-face {
	font-family: ProximaNova-Bold_d5-;
	src: url("fonts/ProximaNova-Bold_d5-.woff") format("woff");
}

@font-face {
	font-family: STKaitiSC-Bold_cmk;
	src: url("fonts/STKaitiSC-Bold_cmk.woff") format("woff");
}

@font-face {
	font-family: ProximaNova-Extrabld_d62;
	src: url("fonts/ProximaNova-Extrabld_d62.woff") format("woff");
}

@font-face {
	font-family: Alegreya-Regular_d61;
	src: url("fonts/Alegreya-Regular_d61.woff") format("woff");
}

@font-face {
	font-family: Alegreya-Bold_d66;
	src: url("fonts/Alegreya-Bold_d66.woff") format("woff");
}

@font-face {
	font-family: STKaitiSC-Regular_cof;
	src: url("fonts/STKaitiSC-Regular_cof.woff") format("woff");
}

@font-face {
	font-family: ProximaNova-Semibold_cot;
	src: url("fonts/ProximaNova-Semibold_cot.woff") format("woff");
}

]]></style>

</svg>
