<?xml version="1.0" encoding="UTF-8" standalone="no"?>
<!DOCTYPE svg PUBLIC "-//W3C//DTD SVG 1.1//EN"
"http://www.w3.org/Graphics/SVG/1.1/DTD/svg11.dtd">


<!-- Page 144 -->
<svg x="0" y="0" width="921" height="1196" viewBox="0 0 921 1196" version="1.1" xmlns="http://www.w3.org/2000/svg" xmlns:xlink="http://www.w3.org/1999/xlink"
style="display: block;margin-left: auto;margin-right: auto;">
<defs>

<style type="text/css"><![CDATA[

.g1_144{
fill: none;
stroke: #3986C6;
stroke-width: 1.6194444;
stroke-linecap: butt;
stroke-linejoin: miter;
stroke-miterlimit: 4;
}
.g2_144{
fill: #3986C6;
}
.g3_144{
fill: #FFFFFF;
}
.g4_144{
fill: none;
stroke: #3986C6;
stroke-width: 1.5277778;
stroke-linecap: butt;
stroke-linejoin: miter;
}
.g5_144{
fill: #ACBF3B;
}
.g6_144{
fill: #231F20;
}
.g7_144{
fill: #565B6E;
}
.g8_144{
fill: none;
stroke: #3986C6;
stroke-width: 1.1458334;
stroke-linecap: butt;
stroke-linejoin: miter;
}
.g9_144{
fill: #ED692E;
}
.g10_144{
fill: none;
stroke: #3986C6;
stroke-width: 1.5277778;
stroke-linecap: butt;
stroke-linejoin: miter;
stroke-miterlimit: 4;
}
.g11_144{
fill: none;
stroke: #178BCD;
stroke-width: 1.0816667;
stroke-linecap: butt;
stroke-linejoin: miter;
stroke-miterlimit: 4;
}
.g12_144{
fill: #F15929;
}
.g13_144{
fill: none;
stroke: #F15929;
stroke-width: 1.2222222;
stroke-linecap: butt;
stroke-linejoin: miter;
stroke-miterlimit: 4;
}
.g14_144{
fill: #A8A9AD;
}
.g15_144{
fill: none;
stroke: #F15929;
stroke-width: 1.1458334;
stroke-linecap: butt;
stroke-linejoin: round;
stroke-miterlimit: 4;
}

.s1_144{
font-size: 18.33px;
font-family: ProximaNova-Bold_cvr;
fill: #231F20;
}
.s2_144{
font-size: 12.99px;
font-family: ProximaNova-Semibold_cw0;
fill: #231F20;
}
.s3_144{
font-size: 32.08px;
font-family: STKaitiSC-Regular_cof;
fill: #3986C6;
}
.s4_144{
font-size: 19.10px;
font-family: Alegreya-Regular_cvz;
fill: #231F20;
}
.s5_144{
font-size: 18.33px;
font-family: ProximaNova-Extrabld_cw7;
fill: #FFFFFF;
}
.s6_144{
font-size: 25.97px;
font-family: ProximaNova-Bold_cvr;
fill: #FFFFFF;
}
.s7_144{
font-size: 25.97px;
font-family: ProximaNova-Bold_cvr;
fill: #231F20;
}
.s8_144{
font-size: 13.75px;
font-family: ProximaNova-Extrabld_cw7;
fill: #FFFFFF;
}
.s9_144{
font-size: 14.02px;
font-family: Alegreya-Regular_cwn;
fill: #231F20;
}
.s10_144{
font-size: 13.61px;
font-family: TisaPro-Bold_cwk;
fill: #178BCD;
}
.s11_144{
font-size: 13.61px;
font-family: TisaPro-Bold_cwl;
fill: #178BCD;
}
.s12_144{
font-size: 13.61px;
font-family: TisaPro-Bold_cwm;
fill: #178BCD;
}
.s13_144{
font-size: 13.61px;
font-family: TisaPro-Bold_cwo;
fill: #178BCD;
}
.s14_144{
font-size: 22.92px;
font-family: STKaitiSC-Bold_cmk;
fill: #ED692E;
}
.s15_144{
font-size: 19.10px;
font-family: Alegreya-Bold_cvx;
fill: #3986C6;
}
.s16_144{
font-size: 32.08px;
font-family: STKaitiSC-Regular_cof;
fill: #231F20;
}
.s17_144{
font-size: 16.04px;
font-family: Alegreya-Regular_cvz;
fill: #231F20;
}

]]></style>

</defs>
<path d="M0,0
L0,1196
L921,1196
L921,0 Z " 
fill="#FFFFFF" stroke="none" />
<text 
x="858" 
y="1149" 
dx="0,0,0" 
class="s1_144"
>121</text>

<path d="M872.3,1089.3l0,38.7" class="g1_144" />
<path d="M872.3,1125.4c-1.5,0,-2.6,1.1,-2.6,2.6c0,1.4,1.1,2.6,2.6,2.6c1.4,0,2.6,-1.2,2.6,-2.6c0,-1.5,-1.2,-2.6,-2.6,-2.6Z" class="g2_144" />
<text 
transform="matrix(0, 1, -1, 0, 867, 777)"
dx="0,0,0,0,0,0,0,0,0,0" 
class="s2_144"
>Chapter 5 </text>

<text 
transform="matrix(0, 1, -1, 0, 867, 842)"
dx="0,0" 
class="s2_144"
>• </text>

<text 
transform="matrix(0, 1, -1, 0, 867, 853)"
dx="0,0,0,0,0,0,0,0,0,0,0,0,0,0,0,0,0,0,0,0,0,0,0,0,0,0,0,0,0" 
class="s2_144"
>Sports in the Neighborhood • </text>

<text 
transform="matrix(0, 1, -1, 0, 867, 1029)"
dx="0,0,0,0,0,0,0,0,0" 
class="s2_144"
>Section 3</text>

<path d="M811.8,288.5l-494.3,0l0,-22.9c0,-18.3,-18.3,-18.3,-18.3,-18.3l-191.2,0c-18.4,0,-18.4,18.3,-18.4,18.3l0,499.6l722.2,0Z" class="g3_144" />
<path d="M811.8,288.5l-494.3,0l0,-22.9c0,-18.3,-18.3,-18.3,-18.3,-18.3l-191.2,0c-18.4,0,-18.4,18.3,-18.4,18.3l0,499.6l722.2,0l0,-476.7Z" class="g4_144" />
<path d="M114.1,287.6l41.2,0l0,-2l-41.2,0l0,2Z" class="g5_144" />
<path d="M168,268.7l2.4,0l1.9,5.4l2,-5.4l2.4,0l-2.7,7.1l2.3,5.8l5,-13l2.7,0l-6.5,15.9l-2.2,0l-2.9,-7.1l-3,7.1l-2.2,0l-6.5,-15.9l2.7,0l5,13l2.4,-5.8Z" class="g6_144" />
<path d="M191.9,284.6c-1.2,0,-2.2,-0.2,-3.1,-0.7c-0.9,-0.4,-1.7,-1,-2.4,-1.8c-0.6,-0.7,-1.1,-1.6,-1.5,-2.6c-0.4,-0.9,-0.5,-1.9,-0.5,-2.9c0,-1.1,0.1,-2.1,0.5,-3.1c0.4,-0.9,0.9,-1.8,1.6,-2.5c0.7,-0.8,1.5,-1.4,2.4,-1.8c0.9,-0.5,1.9,-0.7,3,-0.7c1.1,0,2.2,0.2,3.1,0.7c0.9,0.5,1.7,1.1,2.3,1.9c0.7,0.7,1.2,1.6,1.6,2.6c0.3,0.9,0.5,1.9,0.5,2.9c0,1.1,-0.2,2.1,-0.6,3c-0.4,1,-0.9,1.9,-1.5,2.6c-0.7,0.7,-1.5,1.3,-2.4,1.8c-1,0.4,-2,0.6,-3,0.6m-5,-8c0,0.7,0.1,1.4,0.4,2.1c0.2,0.7,0.5,1.4,1,1.9c0.4,0.5,0.9,1,1.5,1.3c0.6,0.3,1.3,0.5,2.1,0.5c0.8,0,1.5,-0.2,2.1,-0.5c0.6,-0.4,1.1,-0.8,1.5,-1.4c0.5,-0.5,0.8,-1.1,1,-1.8c0.2,-0.7,0.3,-1.4,0.3,-2.1c0,-0.8,-0.1,-1.5,-0.3,-2.2c-0.2,-0.7,-0.6,-1.3,-1,-1.8c-0.5,-0.6,-1,-1,-1.6,-1.3c-0.6,-0.3,-1.3,-0.5,-2,-0.5c-0.8,0,-1.5,0.2,-2.1,0.5c-0.6,0.3,-1.2,0.8,-1.6,1.3c-0.4,0.5,-0.7,1.2,-1,1.9c-0.2,0.7,-0.3,1.4,-0.3,2.1Z" class="g6_144" />
<path d="M202,284.5l0,-15.9l6.9,0c0.7,0,1.4,0.2,2,0.5c0.6,0.3,1.1,0.7,1.6,1.1c0.4,0.5,0.7,1.1,1,1.7c0.2,0.6,0.4,1.3,0.4,1.9c0,0.5,-0.1,1,-0.3,1.5c-0.1,0.5,-0.3,1,-0.6,1.4c-0.3,0.4,-0.6,0.8,-1,1.1c-0.4,0.3,-0.8,0.5,-1.3,0.7l3.8,6l-2.8,0L208.2,279l-3.7,0l0,5.5Zm2.5,-7.7l4.4,0c0.4,0,0.7,-0.1,1,-0.3c0.3,-0.1,0.5,-0.3,0.7,-0.6c0.2,-0.3,0.4,-0.6,0.5,-1c0.1,-0.3,0.2,-0.7,0.2,-1.1c0,-0.4,-0.1,-0.8,-0.2,-1.1c-0.1,-0.4,-0.3,-0.7,-0.6,-1c-0.2,-0.3,-0.5,-0.5,-0.8,-0.6c-0.3,-0.2,-0.6,-0.3,-0.9,-0.3l-4.3,0Z" class="g6_144" />
<path d="M217,284.5l0,-15.9l5.6,0c1.3,0,2.4,0.2,3.4,0.7c1,0.4,1.8,0.9,2.4,1.7c0.7,0.7,1.2,1.5,1.5,2.5c0.3,0.9,0.5,2,0.5,3c0,1.3,-0.2,2.3,-0.6,3.3c-0.3,1,-0.9,1.8,-1.5,2.5c-0.7,0.7,-1.5,1.3,-2.5,1.6c-0.9,0.4,-2,0.6,-3.2,0.6Zm10.8,-8c0,-0.8,-0.1,-1.6,-0.3,-2.3c-0.3,-0.7,-0.6,-1.3,-1,-1.8c-0.5,-0.5,-1,-0.8,-1.7,-1.1c-0.6,-0.3,-1.4,-0.5,-2.2,-0.5l-3.1,0l0,11.5l3.1,0c0.9,0,1.6,-0.1,2.3,-0.4c0.6,-0.3,1.1,-0.7,1.6,-1.2c0.4,-0.6,0.8,-1.2,1,-1.9c0.2,-0.7,0.3,-1.4,0.3,-2.3Z" class="g6_144" />
<path d="M234.3,268.9l7.2,0c2.9,0,5,1.3,5,4c0,1.9,-1,3,-2.7,3.6c2.1,0.5,3.1,1.6,3.1,3.5c0,3.7,-3.3,4.5,-6,4.5l-6.6,0Zm4.1,6.2l1.2,0c1.4,0,2.8,-0.4,2.8,-1.7c0,-1.4,-1.4,-1.6,-2.8,-1.6l-1.2,0Zm0,6.5l1.3,0c1.5,0,3.1,-0.3,3.1,-1.9c0,-1.7,-1.7,-1.8,-3.1,-1.8l-1.3,0Z" class="g2_144" />
<path d="M254,268.9l5.1,0l6,15.6l-4.6,0l-1.1,-3.3l-5.9,0l-1.2,3.3l-4.3,0Zm2.5,3.2l0,0l-2,6.1l3.9,0Z" class="g2_144" />
<path d="M266.8,268.9l5.3,0l5.3,10.6l0,-10.6l3.8,0l0,15.6l-5.2,0l-5.5,-10.7l0.1,10.7l-3.8,0Z" class="g2_144" />
<path d="M284.1,268.9l4.2,0l0,6.4l4.7,-6.4l5.1,0l-5.8,7.3l6.2,8.3l-5.3,0l-4.9,-7.1l0,7.1l-4.2,0Z" class="g2_144" />
<path d="M116.3,266.8l36.8,0l0,18.8l-36.8,0l0,-18.8Z" class="g2_144" />
<path d="M114.1,266.8l41.2,0l0,-3l-41.2,0l0,3Z" class="g5_144" />
<path d="M125.3,259.5l18.7,0l0,26.1l-18.7,0l0,-26.1Z" class="g2_144" />
<path d="M123.3,259.5l22.8,0l0,-3l-22.8,0l0,3Z" class="g5_144" />
<path d="M118.4,268.9l4.9,0l0,7.7l-4.9,0l0,-7.7Z" class="g3_144" />
<path d="M119.2,269.6l3.3,0l0,6.3l-3.3,0l0,-6.3Z" class="g7_144" />
<path d="M146.1,268.9l4.8,0l0,7.7l-4.8,0l0,-7.7Z" class="g3_144" />
<path d="M146.8,269.6l3.4,0l0,6.3l-3.4,0l0,-6.3Z" class="g7_144" />
<path d="M127.9,276.9l13.6,0l0,8.7l-13.6,0l0,-8.7Z" class="g3_144" />
<path d="M135.1,274.4l-1.2,0l0,-3.2l-2.7,0l0,-0.8l2.7,0l0,-1.4l-2.7,0l0,-0.8l2.3,0l-2.9,-5.6l1.4,0l1.9,3.9c0.3,0.7,0.5,1.2,0.7,1.7c0.2,-0.5,0.4,-1.1,0.7,-1.7l1.9,-3.9l1.4,0l-3.1,5.6l2.3,0l0,0.8l-2.7,0l0,1.4l2.7,0l0,0.8l-2.7,0Z" class="g3_144" />
<image preserveAspectRatio="none" x="114" y="536" width="142" height="95" xlink:href="144/img/1.png" />
<text 
x="145" 
y="690" 
dx="0,0,0" 
class="s3_144"
>做家务</text>

<text 
x="148" 
y="717" 
dx="0,0,0,0,0,0,0,0,0,0,0,0,0" 
class="s4_144"
>do household </text>

<text 
x="148" 
y="743" 
dx="0,0,0,0,-0.2,0" 
class="s4_144"
>chores</text>

<path d="M122.8,693.6c0,0,-9.1,0,-9.1,-9.2l0,-15.1l16,0c0,0,9.1,0,9.1,9.2l0,15.1Z" class="g5_144" />
<text 
x="119" 
y="688" 
dx="0" 
class="s5_144"
>4</text>

<image preserveAspectRatio="none" x="114" y="316" width="142" height="94" xlink:href="144/img/2.png" />
<text 
x="145" 
y="462" 
dx="0,0,0" 
class="s3_144"
>做功课</text>

<text 
x="148" 
y="489" 
dx="0,0,0,0,0,0,0,0,-0.3,0,0" 
class="s4_144"
>do homework</text>

<path d="M122.8,468.5c0,0,-9.1,0,-9.1,-9.2l0,-15.1l16,0c0,0,9.1,0,9.1,9.2l0,15.1Z" class="g5_144" />
<text 
x="119" 
y="463" 
dx="0" 
class="s5_144"
>1</text>

<image preserveAspectRatio="none" x="375" y="314" width="142" height="97" xlink:href="144/img/3.png" />
<text 
x="404" 
y="462" 
dx="0,0,0" 
class="s3_144"
>看弟弟</text>

<text 
x="407" 
y="489" 
dx="0,-0.3,0,0,0,0,0,0,0,0,-0.3,0,0,0,0,0" 
class="s4_144"
>watch (babysit) </text>

<text 
x="407" 
y="515" 
dx="0,-0.3,0,0,0,0,0,0,0,0,-0.2,0,0,0,0" 
class="s4_144"
>younger brother</text>

<path d="M382.3,469c0,0,-9.1,0,-9.1,-9.2l0,-15.1l16,0c0,0,9.2,0,9.2,9.1l0,15.2Z" class="g5_144" />
<text 
x="379" 
y="464" 
dx="0" 
class="s5_144"
>2</text>

<image preserveAspectRatio="none" x="373" y="536" width="142" height="95" xlink:href="144/img/4.png" />
<text 
x="404" 
y="690" 
dx="0,0,0" 
class="s3_144"
>打游戏</text>

<text 
x="407" 
y="717" 
dx="0,0,0,-0.4,0,0,0,0,0,0,0,0,-0.3,0,0,0,0,0,0,0" 
class="s4_144"
>play video/computer </text>

<text 
x="408" 
y="743" 
dx="0,-0.2,0,0,0" 
class="s4_144"
>games</text>

<path d="M382.3,693.6c0,0,-9.1,0,-9.1,-9.2l0,-15.1l16,0c0,0,9.2,0,9.2,9.2l0,15.1Z" class="g5_144" />
<text 
x="380" 
y="688" 
dx="0" 
class="s5_144"
>5</text>

<image preserveAspectRatio="none" x="633" y="316" width="142" height="94" xlink:href="144/img/5.png" />
<text 
x="664" 
y="459" 
dx="0,0,0" 
class="s3_144"
>看妹妹</text>

<text 
x="667" 
y="486" 
dx="0,-0.3,0,0,0,0,0,0,0,0,-0.3,0,0,0,0,0" 
class="s4_144"
>watch (babysit) </text>

<text 
x="667" 
y="512" 
dx="0,-0.3,0,0,0,0,0,0,0,0,0,0,0,0" 
class="s4_144"
>younger sister</text>

<path d="M641.8,468.8c0,0,-9.1,0,-9.1,-9.1l0,-15.1l16,0c0,0,9.2,0,9.2,9.1l0,15.1Z" class="g5_144" />
<text 
x="639" 
y="463" 
dx="0" 
class="s5_144"
>3</text>

<image preserveAspectRatio="none" x="633" y="536" width="142" height="95" xlink:href="144/img/6.png" />
<text 
x="663" 
y="690" 
dx="0,0,0" 
class="s3_144"
>听音乐</text>

<text 
x="667" 
y="717" 
dx="0,0,0,0,0,0,0,0,0,0,0,0,0,0,0" 
class="s4_144"
>listen to music</text>

<path d="M641.8,693.6c0,0,-9.1,0,-9.1,-9.2l0,-15.1l16,0c0,0,9.2,0,9.2,9.2l0,15.1Z" class="g5_144" />
<text 
x="639" 
y="688" 
dx="0" 
class="s5_144"
>6</text>

<path d="M109.5,120.9c-10.1,0,-18.3,-8.2,-18.3,-18.4l0,-20l23.1,0c10.1,0,18.3,8.2,18.3,18.3l0,20.1Z" class="g2_144" />
<text 
x="90" 
y="157" 
dx="0,-0.2,0,0,0,0,0,0,0,-0.3,0,0,0,0,0,0,0,-0.3,0,0,0,0,0,0,0,0,0,0,0,0,0,0,0,0,-0.2,0,0,0,0,0,0,0,0,0,0,0,0,0,-0.2,0,0,0,-0.2,0,0,0,-0.4,-0.4,0,0,-0.2,0,0,0,0,0,0,0,0,0,0,0,0,0,0,0,0,0,0,0,0,0,0,0,0,0,-0.3,0,0" 
class="s4_144"
>What do you and your classmates frequently do? In groups, brainstorm a list of sentences </text>

<text 
x="91" 
y="183" 
dx="0,0,0,0,0,0,0,0,0,0,0,0,0,0,0,0,0,0,0,0,0,0,0,-0.3,0,0,0,0,-0.2,0,0,0,0,0,0,0,0,0,0,0,0,0,0,0,0,0,0,0,-0.2,0,0,-0.3,0,0,0,0,0,0,0,0,0,0,-0.4,0,0,0,0,0,0,0,0,0,-1.4,0,-0.2,0,0,0,0,0,0,0,0,0,0,-0.3,0,0,0,0" 
class="s4_144"
>describing activities you frequently do and where you do them. Use the Word Bank below to </text>

<text 
x="91" 
y="209" 
dx="0,0,0,0,0,0,-0.3,0,0,-0.4,0,-0.4,0,0,0,0,-0.2,0,0,-0.3,0,0,0,0,0,0,0,0,0,0,0,0,0,0,0,0,0,0,0,0,0,0,0,-0.2,0,0,-0.8,-0.4,0,-0.4,-0.2,0,0,0,0,0,-0.2,0,0,0,0,0,0,0,0,0,0,0,0,0,0,0,0,0,0,0,0,0,-0.3,0,-0.2,0,0,-0.3,0,0" 
class="s4_144"
>help you. Compare your list with another group. Are there similarities or differences?</text>

<path d="M97.4,83.1l442.4,0" class="g8_144" />
<path d="M111.1,120.5l428.7,0" class="g8_144" />
<text 
x="96" 
y="109" 
dx="0,0,0" 
class="s6_144"
>3d </text>

<text 
x="138" 
y="109" 
dx="0,0,0,0,0,0,0,0,0,0,0,-0.2,0,0,0,0,0,0,0" 
class="s7_144"
>Using the Language </text>

<path d="M407,112.3c-6,0,-10.9,-4.9,-10.9,-10.9l0,-10.8l131.2,0c6,0,10.8,4.8,10.8,10.8l0,10.9Z" class="g5_144" />
<text 
x="410" 
y="105" 
dx="0,0,0,0,0,0,0,0,0,0,0,0,0" 
class="s8_144"
>interPersonal</text>

<path d="M270.5,849.9l3.9,0l8,-48.6l0,-1.6l-19.6,0l0,1.6Zm1.4,-11.8L267,802.9l11.2,0l-5,35.2Zm-3.5,-33.4l8.3,0l0.2,-0.6l-8.6,0Zm0.3,2.2l7.8,0l0.1,-0.5l-8,0Zm0.4,2.3l7,0l0.2,-0.6l-7.3,0Zm0.3,2.3l6.4,0l0.1,-0.6l-6.6,0Zm0.3,2.2l5.8,0l0.1,-0.5l-6,0Zm0.4,2.3l5,0l0.1,-0.6l-5.2,0Zm0.3,2.3l4.4,0l0.1,-0.6l-4.6,0Zm0.4,2.2l3.6,0l0.1,-0.5l-3.8,0Zm0.3,2.3l3,0l0.1,-0.6l-3.2,0Zm0.4,2.2l2.2,0l0.2,-0.5l-2.6,0Zm0.3,2.3l1.6,0l0.1,-0.6l-1.8,0Zm0.2,2.3l1.2,0l0.1,-0.6l-1.4,0Zm0.3,2.4l0.6,0l0.2,-0.7l-1,0Zm0.1,2.4l0.4,0l0.1,-0.6l-0.6,0Zm-8.1,27.1c0,4.9,3.3,7.8,8.2,7.8c4.9,0,8.2,-2.9,8.2,-7.8c0,-4.9,-3.3,-7.8,-8.2,-7.8c-4.9,0,-8.2,2.9,-8.2,7.8m3.5,0c0,-3.2,2.2,-5,4.7,-5c2.6,0,4.8,1.8,4.8,5c0,3.2,-2.2,5,-4.8,5c-2.5,0,-4.7,-1.8,-4.7,-5m3.1,-3.2l3.2,0l-0.9,-0.5l-1.4,0Zm-1.6,2.3l6.4,0L275.5,860l-6,0Zm0,2.4l6.5,0l0.2,-0.6l-6.9,0Zm1.7,1.8l0.8,0.5l1.4,0l0.9,-0.5Z" class="g9_144" />
<path d="M143.4,838.1l4.9,0l4.5,-18.6l4.3,18.6l5,0l5.8,-22.3l2.2,0c0.2,-0.5,0.3,-1,0.3,-1.6c0,-0.5,-0.1,-1.1,-0.3,-1.7l-8.7,0c-0.3,0.6,-0.4,1.1,-0.4,1.7c0,0.3,0,0.5,0.1,0.8c0.1,0.3,0.1,0.5,0.3,0.8l2.5,0l-4.1,15.6l-4.3,-18.9l-5,0l-4.4,18.9l-4,-15.6l2.6,0c0.2,-0.5,0.3,-1.1,0.3,-1.6c0,-0.5,-0.1,-1.1,-0.3,-1.7l-9.1,0c-0.2,0.6,-0.3,1.2,-0.3,1.7c0,0.6,0.1,1.1,0.3,1.6l2.1,0Zm28.2,-3.3c-0.2,0.5,-0.3,1,-0.3,1.5c0,0.5,0.1,1,0.3,1.5l8.4,0c0.2,-0.5,0.3,-1,0.3,-1.5c0,-0.5,-0.1,-1,-0.3,-1.5l-1.8,0l0,-7.3c0,-1,0.1,-1.8,0.3,-2.4c0.3,-0.7,0.6,-1.1,0.9,-1.5c0.4,-0.4,0.8,-0.6,1.2,-0.8c0.4,-0.1,0.8,-0.2,1.2,-0.2c1.2,0,1.9,0.4,2.3,1c0.3,0.6,0.5,1.5,0.5,2.7l0,8.5l-1.8,0c-0.2,0.5,-0.3,1,-0.3,1.5c0,0.5,0.1,1,0.3,1.5l8.4,0c0.2,-0.5,0.3,-1,0.3,-1.5c0,-0.5,-0.1,-1,-0.3,-1.5l-2.1,0l0,-8.9c0,-2.1,-0.5,-3.8,-1.5,-4.9c-1.1,-1.1,-2.6,-1.7,-4.6,-1.7c-1.1,0,-2.1,0.2,-2.9,0.6c-0.8,0.4,-1.4,0.9,-1.9,1.4l0,-9.8l-6.6,0c-0.2,0.5,-0.3,1,-0.3,1.5c0,0.5,0.1,1,0.3,1.5l2.1,0l0,20.3Zm33.5,3l5.9,0c0.2,-0.5,0.3,-1,0.3,-1.5c0,-0.5,-0.1,-1,-0.3,-1.5l-2,0l0,-9.2c0,-0.9,-0.1,-1.8,-0.4,-2.5c-0.2,-0.7,-0.5,-1.2,-0.9,-1.7c-0.4,-0.5,-0.9,-0.8,-1.4,-1.1c-0.5,-0.3,-1.1,-0.5,-1.6,-0.6c-0.5,-0.2,-1,-0.3,-1.5,-0.3c-0.5,-0.1,-0.9,-0.1,-1.2,-0.1c-0.9,0,-1.7,0.1,-2.4,0.2c-0.7,0.2,-1.4,0.3,-2,0.5c-0.5,0.2,-1,0.4,-1.5,0.7c-0.4,0.2,-0.8,0.4,-1.1,0.6l0,3.5c1.1,-0.7,2.1,-1.2,3,-1.6c1,-0.4,2,-0.6,3.1,-0.6c0.7,0,1.3,0,1.8,0.2c0.4,0.2,0.8,0.4,1.1,0.7c0.2,0.3,0.4,0.7,0.5,1.2c0.1,0.4,0.2,0.9,0.2,1.5c-1.2,0.1,-2.5,0.2,-3.8,0.3c-1.3,0.1,-2.5,0.4,-3.6,0.8c-1.2,0.3,-2.1,1,-2.8,1.8c-0.7,0.8,-1.1,2,-1.1,3.6c0,0.9,0.1,1.7,0.5,2.4c0.3,0.7,0.7,1.3,1.3,1.8c0.6,0.4,1.2,0.8,2,1c0.7,0.3,1.6,0.4,2.4,0.4c1.3,0,2.3,-0.2,3.2,-0.6c0.9,-0.4,1.6,-0.9,2.2,-1.6Zm-0.4,-5.9c0,0.5,-0.1,0.9,-0.4,1.3c-0.2,0.4,-0.5,0.7,-0.9,1c-0.4,0.3,-0.9,0.5,-1.4,0.7c-0.5,0.1,-1,0.2,-1.6,0.2c-0.9,0,-1.5,-0.2,-2,-0.7c-0.4,-0.5,-0.7,-1,-0.7,-1.6c0,-0.9,0.3,-1.7,0.8,-2.2c0.5,-0.5,1.3,-0.9,2.5,-1l3.7,-0.3Zm9.7,0.6c0,1.8,0.4,3.2,1.2,4.1c0.8,0.9,2.1,1.4,4,1.4c0.5,0,1.1,0,1.7,-0.2c0.7,-0.1,1.3,-0.3,1.9,-0.5l0,-3.2c-0.6,0.3,-1,0.5,-1.4,0.6c-0.3,0,-0.7,0.1,-1.2,0.1c-0.5,0,-0.9,-0.2,-1.2,-0.4c-0.3,-0.3,-0.5,-0.8,-0.5,-1.6l0,-10l3.6,0c0.2,-0.6,0.3,-1.1,0.3,-1.5c0,-0.5,-0.1,-1,-0.3,-1.5l-3.6,0l0,-6.5l-4.5,2.3l0,4.2l-2.2,0c-0.1,0.5,-0.2,1,-0.2,1.5c0,0.4,0.1,0.9,0.2,1.5l2.2,0Zm31.7,5.3l5.8,0c0.2,-0.5,0.3,-1,0.3,-1.5c0,-0.5,-0.1,-1,-0.3,-1.5l-1.9,0l0,-9.2c0,-0.9,-0.2,-1.8,-0.4,-2.5c-0.3,-0.7,-0.6,-1.2,-1,-1.7c-0.4,-0.5,-0.8,-0.8,-1.4,-1.1c-0.5,-0.3,-1,-0.5,-1.5,-0.6c-0.5,-0.2,-1,-0.3,-1.5,-0.3c-0.5,-0.1,-0.9,-0.1,-1.3,-0.1c-0.9,0,-1.7,0.1,-2.4,0.2c-0.7,0.2,-1.3,0.3,-1.9,0.5c-0.6,0.2,-1.1,0.4,-1.5,0.7c-0.5,0.2,-0.9,0.4,-1.2,0.6l0,3.5c1.1,-0.7,2.1,-1.2,3.1,-1.6c0.9,-0.4,2,-0.6,3,-0.6c0.8,0,1.3,0,1.8,0.2c0.5,0.2,0.9,0.4,1.1,0.7c0.3,0.3,0.5,0.7,0.6,1.2c0.1,0.4,0.1,0.9,0.1,1.5c-1.2,0.1,-2.4,0.2,-3.7,0.3c-1.3,0.1,-2.6,0.4,-3.7,0.8c-1.1,0.3,-2,1,-2.8,1.8c-0.7,0.8,-1.1,2,-1.1,3.6c0,0.9,0.2,1.7,0.5,2.4c0.3,0.7,0.8,1.3,1.4,1.8c0.5,0.4,1.2,0.8,1.9,1c0.8,0.3,1.6,0.4,2.5,0.4c1.2,0,2.3,-0.2,3.2,-0.6c0.9,-0.4,1.6,-0.9,2.1,-1.6Zm-0.5,-5.9c0,0.5,-0.1,0.9,-0.3,1.3c-0.2,0.4,-0.6,0.7,-1,1c-0.4,0.3,-0.8,0.5,-1.3,0.7c-0.5,0.1,-1.1,0.2,-1.6,0.2c-0.9,0,-1.6,-0.2,-2,-0.7c-0.5,-0.5,-0.7,-1,-0.7,-1.6c0,-0.9,0.2,-1.7,0.7,-2.2c0.5,-0.5,1.4,-0.9,2.5,-1l3.7,-0.3Z" class="g2_144" />
<path d="M113.1,861.7c-0.6,0.4,-1.1,0.9,-1.8,1.4c-0.6,0.4,-1.2,0.8,-1.9,1.2c-0.7,0.3,-1.5,0.6,-2.3,0.8c-0.8,0.2,-1.7,0.3,-2.6,0.3c-0.9,0,-1.8,-0.2,-2.7,-0.5c-0.8,-0.4,-1.6,-1,-2.2,-1.8c-0.7,-0.7,-1.2,-1.7,-1.6,-2.9c-0.4,-1.1,-0.6,-2.5,-0.6,-4.1c0,-1.2,0.1,-2.4,0.4,-3.5c0.3,-1.2,0.7,-2.2,1.2,-3.2c0.6,-0.9,1.3,-1.6,2.2,-2.2c0.9,-0.6,1.9,-0.9,3.2,-0.9c1.7,0,3,0.5,3.9,1.4c0.9,1,1.3,2.1,1.3,3.5l0,2.1c0.7,0.2,1.4,0.4,2,0.4c0.3,0,0.6,-0.1,0.9,-0.1c0.3,-0.1,0.6,-0.2,0.8,-0.3l0,-9.8c-0.2,-0.1,-0.5,-0.2,-0.8,-0.3c-0.3,-0.1,-0.6,-0.1,-0.8,-0.1c-0.6,0,-1.2,0.1,-1.9,0.4l0,1.3c-0.7,-0.6,-1.6,-1.2,-2.6,-1.5c-1,-0.4,-2.1,-0.6,-3.1,-0.6c-1.8,0,-3.5,0.4,-5,1.1c-1.5,0.8,-2.7,1.7,-3.7,3c-1,1.2,-1.8,2.6,-2.3,4.3c-0.5,1.6,-0.8,3.4,-0.8,5.2c0,1.9,0.3,3.6,0.8,5.2c0.5,1.6,1.3,3,2.3,4.1c1,1.2,2.2,2.1,3.8,2.7c1.5,0.7,3.2,1,5.2,1c1,0,1.9,-0.1,2.8,-0.3c0.9,-0.2,1.7,-0.4,2.5,-0.7c0.7,-0.2,1.3,-0.5,1.9,-0.8c0.6,-0.3,1.1,-0.6,1.5,-0.9Zm3.6,4c-0.2,0.5,-0.3,1,-0.3,1.5c0,0.5,0.1,1,0.3,1.5l8.4,0c0.2,-0.5,0.3,-1,0.3,-1.5c0,-0.5,-0.1,-1,-0.3,-1.5l-1.8,0l0,-7.3c0,-1,0.1,-1.8,0.4,-2.5c0.2,-0.6,0.5,-1.1,0.8,-1.4c0.4,-0.4,0.8,-0.7,1.2,-0.8c0.4,-0.1,0.9,-0.2,1.3,-0.2c1.1,0,1.8,0.3,2.2,1c0.4,0.6,0.6,1.5,0.6,2.7l0,8.5l-1.9,0c-0.1,0.5,-0.2,1,-0.2,1.5c0,0.5,0.1,1,0.2,1.5l8.5,0c0.2,-0.5,0.3,-1,0.3,-1.5c0,-0.5,-0.1,-1,-0.3,-1.5l-2.2,0l0,-9c0,-2.1,-0.5,-3.7,-1.5,-4.8c-1.1,-1.2,-2.6,-1.7,-4.6,-1.7c-1.1,0,-2,0.2,-2.8,0.6c-0.8,0.3,-1.5,0.8,-2,1.3l0,-9.7l-6.6,0c-0.2,0.5,-0.3,1,-0.3,1.4c0,0.5,0.1,1,0.3,1.5l2.1,0l0,20.4Zm33.6,3l5.8,0c0.2,-0.5,0.3,-1,0.3,-1.5c0,-0.5,-0.1,-1,-0.3,-1.5l-1.9,0l0,-9.2c0,-1,-0.2,-1.8,-0.4,-2.5c-0.3,-0.7,-0.6,-1.3,-1,-1.8c-0.4,-0.4,-0.9,-0.8,-1.4,-1.1c-0.5,-0.2,-1,-0.5,-1.6,-0.6c-0.5,-0.1,-1,-0.2,-1.5,-0.3c-0.4,0,-0.9,0,-1.2,0c-0.9,0,-1.7,0,-2.4,0.2c-0.7,0.1,-1.4,0.3,-1.9,0.5c-0.6,0.2,-1.1,0.4,-1.6,0.6c-0.4,0.2,-0.8,0.5,-1.1,0.6l0,3.5c1.1,-0.6,2.1,-1.2,3.1,-1.6c0.9,-0.4,1.9,-0.6,3,-0.6c0.7,0,1.3,0.1,1.8,0.3c0.5,0.1,0.8,0.4,1.1,0.7c0.3,0.3,0.5,0.6,0.6,1.1c0.1,0.5,0.1,1,0.1,1.6c-1.2,0.1,-2.4,0.2,-3.7,0.3c-1.4,0.1,-2.6,0.3,-3.7,0.7c-1.1,0.4,-2.1,1,-2.8,1.9c-0.7,0.8,-1.1,2,-1.1,3.6c0,0.9,0.2,1.7,0.5,2.4c0.3,0.7,0.8,1.2,1.3,1.7c0.6,0.5,1.2,0.8,2,1.1c0.8,0.2,1.6,0.4,2.4,0.4c1.3,0,2.4,-0.2,3.3,-0.6c0.8,-0.4,1.6,-1,2.1,-1.6Zm-0.5,-6c0,0.5,-0.1,1,-0.3,1.4c-0.3,0.3,-0.6,0.7,-1,1c-0.4,0.3,-0.8,0.5,-1.3,0.6c-0.6,0.2,-1.1,0.3,-1.7,0.3c-0.8,0,-1.5,-0.3,-2,-0.8c-0.4,-0.4,-0.7,-1,-0.7,-1.6c0,-0.9,0.3,-1.6,0.8,-2.1c0.5,-0.6,1.3,-0.9,2.5,-1l3.7,-0.4Zm8.4,3c-0.2,0.5,-0.3,1,-0.3,1.5c0,0.5,0.1,1,0.3,1.5l9,0c0.2,-0.5,0.3,-1,0.3,-1.5c0,-0.5,-0.1,-1,-0.3,-1.5l-2.4,0l0,-6.8c0,-0.9,0.1,-1.6,0.3,-2.2c0.3,-0.6,0.6,-1,1,-1.4c0.3,-0.3,0.7,-0.6,1.2,-0.7c0.4,-0.1,0.8,-0.2,1.1,-0.2c0.5,0,0.9,0,1.2,0.1c0.3,0.1,0.6,0.2,0.8,0.4l0.4,-3.8c-0.2,-0.1,-0.5,-0.2,-0.9,-0.3c-0.3,-0.1,-0.7,-0.2,-1.1,-0.2c-0.8,0,-1.7,0.3,-2.5,0.7c-0.8,0.4,-1.5,1.2,-2,2.3l-0.2,-3l-5.9,0c-0.2,0.6,-0.3,1.1,-0.3,1.5c0,0.5,0.1,1,0.3,1.5l2.1,0l0,12.1Zm24.9,3l5.8,0c0.2,-0.5,0.3,-1,0.3,-1.5c0,-0.5,-0.1,-1,-0.3,-1.5l-1.9,0l0,-9.2c0,-1,-0.1,-1.8,-0.4,-2.5c-0.3,-0.7,-0.6,-1.3,-1,-1.8c-0.4,-0.4,-0.8,-0.8,-1.4,-1.1c-0.5,-0.2,-1,-0.5,-1.5,-0.6c-0.5,-0.1,-1,-0.2,-1.5,-0.3c-0.5,0,-0.9,0,-1.3,0c-0.9,0,-1.6,0,-2.4,0.2c-0.7,0.1,-1.3,0.3,-1.9,0.5c-0.6,0.2,-1.1,0.4,-1.5,0.6c-0.5,0.2,-0.9,0.5,-1.2,0.6l0,3.5C174,855,175,854.4,176,854c0.9,-0.4,2,-0.6,3,-0.6c0.8,0,1.4,0.1,1.8,0.3c0.5,0.1,0.9,0.4,1.1,0.7c0.3,0.3,0.5,0.6,0.6,1.1c0.1,0.5,0.1,1,0.1,1.6c-1.1,0.1,-2.4,0.2,-3.7,0.3c-1.3,0.1,-2.6,0.3,-3.7,0.7c-1.1,0.4,-2,1,-2.8,1.9c-0.7,0.8,-1.1,2,-1.1,3.6c0,0.9,0.2,1.7,0.5,2.4c0.4,0.7,0.8,1.2,1.4,1.7c0.5,0.5,1.2,0.8,1.9,1.1c0.8,0.2,1.6,0.4,2.5,0.4c1.2,0,2.3,-0.2,3.2,-0.6c0.9,-0.4,1.6,-1,2.1,-1.6Zm-0.5,-6c0,0.5,-0.1,1,-0.3,1.4c-0.2,0.3,-0.6,0.7,-1,1c-0.4,0.3,-0.8,0.5,-1.3,0.6c-0.5,0.2,-1.1,0.3,-1.6,0.3c-0.9,0,-1.6,-0.3,-2,-0.8c-0.5,-0.4,-0.7,-1,-0.7,-1.6c0,-0.9,0.2,-1.6,0.7,-2.1c0.5,-0.6,1.4,-0.9,2.5,-1l3.7,-0.4Zm24.1,0.3c-0.5,0.3,-0.9,0.7,-1.3,1c-0.5,0.3,-0.9,0.6,-1.4,0.8c-0.4,0.3,-0.9,0.5,-1.5,0.6c-0.5,0.1,-1.1,0.2,-1.8,0.2c-1.4,0,-2.6,-0.5,-3.6,-1.5c-0.9,-1.1,-1.4,-2.5,-1.4,-4.4c0,-0.7,0.1,-1.5,0.2,-2.2c0.2,-0.8,0.4,-1.5,0.8,-2.1c0.3,-0.6,0.7,-1.1,1.3,-1.5c0.5,-0.4,1.2,-0.5,2,-0.5c0.9,0,1.8,0.2,2.4,0.8c0.7,0.6,1,1.5,1,2.7l0,1.1c0.6,0.3,1.1,0.4,1.7,0.4c0.5,0,1.1,-0.1,1.7,-0.4l0,-7.2c-0.6,-0.2,-1.1,-0.3,-1.7,-0.3c-0.4,0,-0.9,0.1,-1.5,0.3l0,1.3c-0.4,-0.6,-0.9,-1.1,-1.6,-1.4c-0.8,-0.4,-1.6,-0.6,-2.6,-0.6c-1.4,0,-2.6,0.3,-3.6,0.8c-1,0.6,-1.9,1.3,-2.6,2.2c-0.6,0.9,-1.1,1.9,-1.5,3.1c-0.3,1.2,-0.5,2.4,-0.5,3.7c0,1.2,0.2,2.4,0.6,3.5c0.4,1.1,0.9,2.1,1.7,2.9c0.7,0.9,1.7,1.6,2.7,2.1c1.1,0.5,2.4,0.7,3.8,0.7c0.8,0,1.6,0,2.3,-0.2c0.6,-0.1,1.2,-0.2,1.8,-0.4c0.5,-0.2,1,-0.4,1.4,-0.6c0.4,-0.2,0.8,-0.4,1.2,-0.6Zm4.3,0.4c0,1.8,0.4,3.1,1.2,4.1c0.8,0.9,2.1,1.4,3.9,1.4c0.6,0,1.2,-0.1,1.8,-0.2c0.7,-0.1,1.3,-0.3,1.9,-0.6l0,-3.1c-0.6,0.3,-1.1,0.4,-1.4,0.5c-0.4,0.1,-0.8,0.1,-1.2,0.1c-0.5,0,-0.9,-0.1,-1.2,-0.4c-0.3,-0.2,-0.5,-0.7,-0.5,-1.5l0,-10l3.6,0c0.2,-0.6,0.3,-1.1,0.3,-1.6c0,-0.4,-0.1,-0.9,-0.3,-1.5l-3.6,0l0,-6.4l-4.5,2.3l0,4.1l-2.2,0c-0.2,0.6,-0.3,1.1,-0.3,1.5c0,0.5,0.1,1,0.3,1.6l2.2,0Zm25.4,0.5c-1.1,0.6,-2.1,1.1,-3,1.4c-1,0.3,-2,0.5,-3.1,0.5c-0.7,0,-1.3,-0.2,-1.9,-0.4c-0.5,-0.3,-1,-0.6,-1.4,-1.1c-0.4,-0.4,-0.7,-0.9,-1,-1.5c-0.2,-0.6,-0.4,-1.2,-0.4,-1.9l11.6,0l0,-1.6c0,-1.1,-0.1,-2.2,-0.4,-3.3c-0.2,-1.1,-0.6,-2,-1.2,-2.9c-0.7,-0.9,-1.5,-1.6,-2.5,-2.1c-1,-0.6,-2.3,-0.8,-3.8,-0.8c-1.5,0,-2.7,0.2,-3.8,0.8c-1,0.5,-1.9,1.2,-2.6,2.1c-0.7,0.9,-1.2,1.9,-1.5,3.1c-0.3,1.1,-0.4,2.3,-0.4,3.4c0,1.2,0.1,2.4,0.5,3.5c0.3,1.2,0.9,2.2,1.6,3.1c0.8,0.9,1.7,1.6,2.9,2.1c1.2,0.6,2.6,0.9,4.3,0.9c1.1,0,2.2,-0.2,3.3,-0.5c1.1,-0.4,2,-0.7,2.8,-1.1Zm-10.8,-6c0.2,-1.3,0.5,-2.4,1.1,-3.3c0.6,-0.8,1.4,-1.2,2.5,-1.2c1.1,0,2,0.4,2.5,1.2c0.6,0.8,0.9,1.9,0.9,3.3Zm13.9,7.8c-0.1,0.5,-0.2,1,-0.2,1.5c0,0.5,0.1,1,0.2,1.5l9.1,0c0.2,-0.5,0.3,-1,0.3,-1.5c0,-0.5,-0.1,-1,-0.3,-1.5l-2.5,0l0,-6.8c0,-0.9,0.2,-1.6,0.4,-2.2c0.3,-0.6,0.6,-1,0.9,-1.4c0.4,-0.3,0.8,-0.6,1.2,-0.7c0.5,-0.1,0.9,-0.2,1.2,-0.2c0.4,0,0.8,0,1.1,0.1c0.4,0.1,0.6,0.2,0.9,0.4l0.4,-3.8c-0.3,-0.1,-0.6,-0.2,-0.9,-0.3c-0.4,-0.1,-0.8,-0.2,-1.2,-0.2c-0.8,0,-1.6,0.3,-2.4,0.7c-0.8,0.4,-1.5,1.2,-2.1,2.3l-0.1,-3l-6,0c-0.1,0.6,-0.2,1.1,-0.2,1.5c0,0.5,0.1,1,0.2,1.5l2.1,0l0,12.1Z" class="g9_144" />
<path d="M364.8,845.6L802,845.8L801.2,1109L96,1109L96,888.4" class="g10_144" />
<path d="M96,893c-2.5,0,-4.5,-2,-4.5,-4.6c0,-2.5,2,-4.6,4.5,-4.6c2.6,0,4.6,2.1,4.6,4.6c0,2.6,-2,4.6,-4.6,4.6Z" class="g2_144" />
<path d="M359.2,842.3c0,16.6,-13.5,30.1,-30.2,30.1c-16.6,0,-30.1,-13.5,-30.1,-30.1c0,-16.7,13.5,-30.2,30.1,-30.2c16.7,0,30.2,13.5,30.2,30.2Z" class="g3_144" />
<path d="M359.2,842.3c0,16.6,-13.5,30.1,-30.2,30.1c-16.6,0,-30.1,-13.5,-30.1,-30.1c0,-16.7,13.5,-30.2,30.1,-30.2c16.7,0,30.2,13.5,30.2,30.2Z" class="g11_144" />
<path d="M357.3,842.3c0,15.6,-12.7,28.2,-28.3,28.2c-15.6,0,-28.2,-12.6,-28.2,-28.2c0,-15.6,12.6,-28.2,28.2,-28.2c15.6,0,28.3,12.6,28.3,28.2Z" class="g3_144" />
<path d="M357.3,842.3c0,15.6,-12.7,28.2,-28.3,28.2c-15.5,0,-28.2,-12.6,-28.2,-28.2c0,-15.6,12.7,-28.2,28.2,-28.2c15.6,0,28.3,12.6,28.3,28.2Z" class="g11_144" />
<text 
x="321" 
y="829" 
dx="0,0,0" 
class="s9_144"
>xīn</text>

<path d="M319.5,845c0,0,3.4,6.9,8,9.6c4.5,2.8,10.6,2,12,1.5c0.4,-0.1,0.6,-0.1,0.7,-0.3c0.3,-0.5,-0.2,-1.5,-0.5,-2.1c-1.3,-3,-2.7,-5.8,-2.3,-6c0.4,-0.3,3.5,3.8,5.2,5.5c1.7,1.8,2.4,2,3.1,2.4c0.6,0.5,1.6,1.5,-0.1,2.4c-1.7,1,-8.6,3.2,-15.5,1c-3.2,-1,-5.2,-2.6,-7.1,-4.9c-2.2,-2.6,-3.7,-6.1,-4.1,-8.7c-0.2,-0.7,0.2,-1.1,0.6,-0.4Z" class="g12_144" />
<path d="M323.5,835.8c0,0,3.9,5.7,5,6.6c1.1,0.9,2.4,1.3,2.5,0c0.1,-1.3,-0.3,-3.1,-2.1,-4.9c-1.8,-1.7,-4,-2.2,-4.6,-2.3c-0.6,-0.1,-1.3,-0.2,-0.8,0.6Z" class="g12_144" />
<path d="M339.7,837.1c0,0,4.3,4.3,6.3,5.9c2,1.6,3,1.8,3,-0.5c0,-2.8,-2.8,-4.1,-4.9,-4.9c-2.2,-0.8,-3.2,-1,-3.6,-1.1c-0.5,-0.1,-1.4,0,-0.8,0.6Z" class="g12_144" />
<path d="M313.5,844.8c0,0,1.9,5.6,-1.7,10c0,0,-0.9,1,-1.4,0.9c-0.6,-0.1,-1,-1.4,-1.2,-2.3c-0.2,-0.7,-0.1,-1.3,0.3,-1.7c0.4,-0.5,1.3,-2,1.9,-4.3c0.7,-2.5,1.1,-3.8,1.4,-3.8c0.2,0,0.7,1.2,0.7,1.2Z" class="g12_144" />
<path d="M460.6,818.9l-23.9,0l-18.1,0l0,60.1l60.1,0l0,-60.1Z" class="g3_144" />
<path d="M460.6,818.9l18.1,0l0,60.1l-60.1,0l0,-60.1l18.1,0" class="g13_144" />
<path d="M437.6,846.5c0,0,3.8,7.8,9.1,11c5.2,3.1,12.1,2.3,13.7,1.7c0.5,-0.2,0.7,-0.2,0.9,-0.4c0.3,-0.6,-0.3,-1.7,-0.6,-2.5c-1.5,-3.3,-3.1,-6.5,-2.7,-6.8c0.5,-0.4,4,4.4,6,6.4c1.9,2,2.7,2.2,3.5,2.7c0.7,0.5,1.9,1.7,-0.1,2.8c-1.9,1,-9.8,3.6,-17.7,1.1c-3.7,-1.2,-6,-3,-8.2,-5.6c-2.5,-3.1,-4.1,-7,-4.7,-10c-0.1,-0.8,0.3,-1.2,0.8,-0.4Z" class="g14_144" />
<path d="M442.2,835.9c0,0,4.3,6.6,5.6,7.6c1.3,1.1,2.8,1.4,2.9,0c0.1,-1.5,-0.3,-3.6,-2.4,-5.6c-2.1,-2,-4.5,-2.5,-5.2,-2.7c-0.7,-0.1,-1.5,-0.2,-0.9,0.7Z" class="g14_144" />
<path d="M460.7,837.4c0,0,4.9,5,7.2,6.8c2.3,1.8,3.4,2,3.4,-0.6c0,-3.3,-3.2,-4.7,-5.6,-5.6c-2.5,-0.9,-3.6,-1.2,-4.2,-1.3c-0.5,-0.1,-1.5,0,-0.8,0.7Z" class="g14_144" />
<path d="M430.7,846.2c0,0,2.2,6.4,-2,11.5c0,0,-1,1.1,-1.6,1c-0.6,-0.1,-1.1,-1.6,-1.4,-2.6c-0.2,-0.8,-0.1,-1.5,0.4,-2c0.5,-0.5,1.5,-2.3,2.2,-4.9c0.8,-2.8,1.2,-4.4,1.5,-4.4c0.4,0,0.9,1.4,0.9,1.4Z" class="g6_144" />
<path d="M427.5,841.8c0,0,-1.4,4.2,-3.5,8.1" class="g15_144" />
<path d="M422.5,846.1l2,2.8l3.4,0.7l-6.8,4.5Z" class="g12_144" />
<text 
x="445" 
y="823" 
dx="0" 
class="s10_144"
>1</text>

<path d="M534.4,818.9l-23.9,0l-18.2,0l0,60.1l60.2,0l0,-60.1Z" class="g3_144" />
<path d="M534.4,818.9l18.1,0l0,60.1l-60.2,0l0,-60.1l18.2,0" class="g13_144" />
<text 
x="518" 
y="823" 
dx="0" 
class="s11_144"
>2</text>

<path d="M511.3,846.5c0,0,3.9,7.8,9.1,11c5.2,3.1,12.2,2.3,13.8,1.7c0.5,-0.2,0.7,-0.2,0.8,-0.4c0.3,-0.6,-0.2,-1.7,-0.6,-2.5c-1.4,-3.3,-3,-6.5,-2.6,-6.8c0.4,-0.4,4,4.4,5.9,6.4c2,2,2.8,2.2,3.5,2.7c0.8,0.5,1.9,1.7,0,2.8c-2,1,-9.9,3.6,-17.8,1.1c-3.6,-1.2,-5.9,-3,-8.1,-5.6c-2.5,-3.1,-4.2,-7,-4.7,-10c-0.2,-0.8,0.3,-1.2,0.7,-0.4Z" class="g6_144" />
<path d="M515.9,835.9c0,0,4.4,6.6,5.7,7.6c1.3,1.1,2.8,1.4,2.9,0c0.1,-1.5,-0.3,-3.6,-2.4,-5.6c-2.1,-2,-4.6,-2.5,-5.3,-2.7c-0.7,-0.1,-1.4,-0.2,-0.9,0.7Z" class="g14_144" />
<path d="M534.5,837.4c0,0,4.9,5,7.2,6.8c2.3,1.9,3.4,2,3.4,-0.6c0,-3.3,-3.3,-4.7,-5.6,-5.6c-2.5,-0.9,-3.6,-1.2,-4.2,-1.3c-0.6,-0.1,-1.6,0,-0.8,0.7Z" class="g14_144" />
<path d="M504.5,846.2c0,0,2.1,6.4,-2,11.5c0,0,-1,1.1,-1.6,1c-0.7,-0.1,-1.1,-1.6,-1.4,-2.6c-0.2,-0.8,-0.1,-1.5,0.4,-2c0.4,-0.5,1.4,-2.3,2.1,-4.9c0.8,-2.8,1.3,-4.4,1.6,-4.4c0.3,0,0.9,1.4,0.9,1.4Z" class="g6_144" />
<path d="M507.8,847.8c0,0,2.2,12.8,14,17c10.5,3.6,21.5,0.2,25.2,-3.7c0.5,-0.4,-0.1,-0.9,-0.1,-0.9l-7.4,-8" class="g15_144" />
<path d="M543.4,851.8l-3.2,1.2l-1.4,3.1L536,848.4Z" class="g12_144" />
<path d="M608,818.9l-24,0l-18.1,0l0,60.1l60.2,0l0,-60.1Z" class="g3_144" />
<path d="M608,818.9l18.1,0l0,60.1l-60.2,0l0,-60.1l18.1,0" class="g13_144" />
<text 
x="591" 
y="823" 
dx="0" 
class="s12_144"
>3</text>

<path d="M584.9,846.5c0,0,3.8,7.8,9.1,11c5.2,3.1,12.2,2.3,13.8,1.7c0.4,-0.2,0.7,-0.2,0.8,-0.4c0.3,-0.6,-0.3,-1.7,-0.6,-2.5c-1.5,-3.3,-3,-6.5,-2.7,-6.8c0.5,-0.4,4.1,4.4,6,6.4c1.9,2,2.8,2.2,3.5,2.7c0.8,0.5,1.9,1.7,-0.1,2.8c-1.9,1,-9.8,3.6,-17.7,1.1c-3.7,-1.2,-6,-3,-8.1,-5.6c-2.5,-3.1,-4.2,-7,-4.7,-10c-0.2,-0.8,0.3,-1.2,0.7,-0.4Z" class="g6_144" />
<path d="M589.5,835.9c0,0,4.4,6.6,5.7,7.6c1.3,1.1,2.7,1.4,2.9,0c0.1,-1.5,-0.3,-3.6,-2.4,-5.6c-2.1,-2,-4.6,-2.5,-5.3,-2.7c-0.7,-0.1,-1.5,-0.2,-0.9,0.7Z" class="g6_144" />
<path d="M608,837.4c0,0,4.9,5,7.2,6.8c2.3,1.8,3.4,2,3.4,-0.6c0,-3.3,-3.2,-4.7,-5.5,-5.6c-2.5,-0.9,-3.7,-1.2,-4.2,-1.3c-0.6,-0.1,-1.6,0,-0.9,0.7Z" class="g14_144" />
<path d="M578,846.2c0,0,2.2,6.4,-1.9,11.5c0,0,-1.1,1.1,-1.6,1c-0.7,-0.1,-1.2,-1.6,-1.4,-2.6c-0.3,-0.8,-0.1,-1.5,0.3,-2c0.5,-0.5,1.5,-2.3,2.2,-4.9c0.8,-2.8,1.2,-4.4,1.6,-4.4c0.3,0,0.8,1.4,0.8,1.4Z" class="g6_144" />
<path d="M595.8,832.7l3.9,4.5" class="g15_144" />
<path d="M595.7,837.5l3.3,-1.1l1.6,-3.1l2.5,7.8Z" class="g12_144" />
<path d="M681.7,818.9l-24,0l-18.1,0l0,60.1l60.2,0l0,-60.1Z" class="g3_144" />
<path d="M681.7,818.9l18.1,0l0,60.1l-60.2,0l0,-60.1l18.1,0" class="g13_144" />
<text 
x="665" 
y="823" 
dx="0" 
class="s13_144"
>4</text>

<path d="M658.6,846.5c0,0,3.8,7.8,9.1,11c5.2,3.1,12.2,2.3,13.8,1.7c0.4,-0.2,0.7,-0.2,0.8,-0.4c0.3,-0.6,-0.3,-1.7,-0.6,-2.5c-1.5,-3.3,-3,-6.5,-2.7,-6.8c0.5,-0.4,4.1,4.4,6,6.4c1.9,2,2.8,2.2,3.5,2.7c0.8,0.5,1.9,1.7,-0.1,2.8c-1.9,1,-9.8,3.6,-17.7,1.1c-3.7,-1.2,-6,-3,-8.1,-5.6c-2.5,-3.1,-4.2,-7,-4.7,-10c-0.2,-0.8,0.3,-1.2,0.7,-0.4Z" class="g6_144" />
<path d="M663.2,835.9c0,0,4.4,6.6,5.7,7.6c1.3,1.1,2.7,1.4,2.9,0c0.1,-1.5,-0.3,-3.6,-2.4,-5.6c-2.1,-2,-4.6,-2.5,-5.3,-2.7c-0.7,-0.1,-1.5,-0.2,-0.9,0.7Z" class="g6_144" />
<path d="M681.7,837.4c0,0,4.9,5,7.2,6.8c2.3,1.8,3.4,2,3.4,-0.6c0,-3.3,-3.2,-4.7,-5.5,-5.6c-2.5,-0.9,-3.7,-1.2,-4.2,-1.3c-0.6,-0.1,-1.6,0,-0.9,0.7Z" class="g6_144" />
<path d="M651.7,846.2c0,0,2.2,6.4,-1.9,11.5c0,0,-1.1,1.1,-1.6,1c-0.7,-0.1,-1.2,-1.6,-1.4,-2.6c-0.3,-0.8,-0.1,-1.5,0.3,-2c0.5,-0.5,1.5,-2.3,2.2,-4.9c0.8,-2.8,1.2,-4.4,1.6,-4.4c0.3,0,0.8,1.4,0.8,1.4Z" class="g6_144" />
<path d="M687.1,832.6l4.6,3.7" class="g15_144" />
<path d="M687.9,837.3l3,-1.7l1,-3.3l3.8,7.2Z" class="g12_144" />
<text 
x="134" 
y="921" 
dx="0,0,0,0,-0.1,0,0,0,0,0,0,0,0,0" 
class="s1_144"
>The character </text>

<text 
x="253" 
y="921" 
dx="0" 
class="s14_144"
>心</text>

<text 
x="281" 
y="921" 
dx="0,0,0,0,0,0,-0.1,0,0,0,0,0,-0.1,0,0,0,0,0,0,-1.5,0,-0.1,0,0,0,0,0,0,0,0,0,0,-0.1,0,0,0,0,-0.1,0,0,0,0,0,0,0,-0.1,0,0,0,0,-0.1,0,0,0,0,0,0,0,0,0" 
class="s1_144"
>(xīn) means “heart.” Characters that include this component </text>

<text 
x="135" 
y="943" 
dx="0,0,0,0,0,0,0,0,0,0,0,0,0,0,0,0,0,0,0,0,0,0,0,0,0,0,0,0,0,0,0,0,0,0,0,0,0,0,0,0,0,0,0,0,0,0,0,0,0,0,0,0,0,0,0,0,0,0,0,0,0,0,0,0,0,0,0,0,0,0,0,0,0,0,0,0,0,0" 
class="s1_144"
>often relate to thoughts or feelings. As a component, it often appears in the </text>

<text 
x="136" 
y="969" 
dx="0,0,0,0,0,0,0,0,0,0,0,0,0,0,0,0,0,0,0,0,0,0,0,0,0,0" 
class="s1_144"
>lower half of characters. </text>

<text 
x="340" 
y="969" 
dx="0" 
class="s14_144"
>心</text>

<text 
x="368" 
y="969" 
dx="0,0,0,0,0,0,0,0,0,0,0,0,0,0,0,-0.1" 
class="s1_144"
>(xīn) looks like</text>

<text 
x="486" 
y="969" 
dx="0" 
class="s14_144"
>忄</text>

<text 
x="506" 
y="969" 
dx="0,0,0,0,0,0,0,0,0,0,0,0,0,0,0,0,0,0,0,0,0,0,0,0,0,0,0,0,0,0,0,0,0" 
class="s1_144"
>when it appears on the left side </text>

<text 
x="135" 
y="991" 
dx="0,0,0,0,0,0,0,0,0,0,0,0,0,0,-1.6" 
class="s1_144"
>of a character.</text>

<text 
x="134" 
y="1030" 
dx="0,0,0,0,0,0,0,0,0,0,0,0,0,0,0,0,-0.2,0,0,0,0,0,0,0,0,0,0,-0.3,-1.3,-0.4,0,0,0,0,0,0,0,0,0,-0.3,0,0,0,0,0,0,0,0,0,0,0,0,0,0,-0.3,0,0,0,0,0,0" 
class="s4_144"
>Look at the characters below. Do they contain either form of </text>

<text 
x="601" 
y="1032" 
dx="0" 
class="s14_144"
>心</text>

<text 
x="628" 
y="1030" 
dx="0,0,0,0,0,0" 
class="s4_144"
>(xīn)?</text>

<text 
x="135" 
y="1067" 
dx="0" 
class="s15_144"
>1</text>

<text 
x="150" 
y="1070" 
dx="0" 
class="s16_144"
>您</text>

<text 
x="214" 
y="1067" 
dx="0" 
class="s15_144"
>2</text>

<text 
x="231" 
y="1070" 
dx="0" 
class="s16_144"
>情</text>

<text 
x="295" 
y="1067" 
dx="0" 
class="s15_144"
>3</text>

<text 
x="312" 
y="1070" 
dx="0" 
class="s16_144"
>很</text>

<text 
x="376" 
y="1067" 
dx="0" 
class="s15_144"
>4</text>

<text 
x="393" 
y="1070" 
dx="0" 
class="s16_144"
>想</text>

<text 
x="457" 
y="1067" 
dx="0" 
class="s15_144"
>5</text>

<text 
x="473" 
y="1070" 
dx="0" 
class="s16_144"
>快</text>

<text 
x="537" 
y="1067" 
dx="0" 
class="s15_144"
>6</text>

<text 
x="554" 
y="1070" 
dx="0" 
class="s16_144"
>说</text>

<text 
x="618" 
y="1067" 
dx="0" 
class="s15_144"
>7</text>

<text 
x="634" 
y="1070" 
dx="0" 
class="s16_144"
>急</text>

<text 
x="699" 
y="1067" 
dx="0" 
class="s15_144"
>8</text>

<text 
x="716" 
y="1070" 
dx="0" 
class="s16_144"
>忡</text>

<text 
x="148" 
y="430" 
dx="0,0.2,0.2,0.2" 
class="s17_144"
>zuò </text>

<text 
x="183" 
y="430" 
dx="0,0.2,0.2,0.2,0.2,-0.1" 
class="s17_144"
>gōngkè</text>

<text 
x="414" 
y="433" 
dx="0,-0.1,0.2,0.2" 
class="s17_144"
>kān </text>

<text 
x="455" 
y="433" 
dx="0,0.2,0.2,0.2" 
class="s17_144"
>dìdi</text>

<text 
x="668" 
y="430" 
dx="0,-0.1,0.2,0.2" 
class="s17_144"
>kān </text>

<text 
x="706" 
y="430" 
dx="0,0.2,0.2,0.2,0.2,0.2" 
class="s17_144"
>mèimei</text>

<text 
x="151" 
y="659" 
dx="0,0.2,0.2,0.2" 
class="s17_144"
>zuò </text>

<text 
x="193" 
y="659" 
dx="0,0.2,0.2,-0.1,0.2" 
class="s17_144"
>jiāwù</text>

<text 
x="416" 
y="659" 
dx="0,0.2,0.2" 
class="s17_144"
>dǎ </text>

<text 
x="450" 
y="659" 
dx="0,0,0.2,0.2,0.2" 
class="s17_144"
>yóuxì</text>

<text 
x="667" 
y="659" 
dx="0,0.2,0.2,0.2,0.2" 
class="s17_144"
>tīng </text>

<text 
x="709" 
y="659" 
dx="0,0.2,0.2,-0.1,0.2,0.2" 
class="s17_144"
>yīnyuè</text>



<!-- Any embedded fonts defined here -->
<style type="text/css" ><![CDATA[

@font-face {
	font-family: STKaitiSC-Bold_cmk;
	src: url("fonts/STKaitiSC-Bold_cmk.woff") format("woff");
}

@font-face {
	font-family: Alegreya-Regular_cwn;
	src: url("fonts/Alegreya-Regular_cwn.woff") format("woff");
}

@font-face {
	font-family: ProximaNova-Extrabld_cw7;
	src: url("fonts/ProximaNova-Extrabld_cw7.woff") format("woff");
}

@font-face {
	font-family: TisaPro-Bold_cwo;
	src: url("fonts/TisaPro-Bold_cwo.woff") format("woff");
}

@font-face {
	font-family: ProximaNova-Bold_cvr;
	src: url("fonts/ProximaNova-Bold_cvr.woff") format("woff");
}

@font-face {
	font-family: TisaPro-Bold_cwm;
	src: url("fonts/TisaPro-Bold_cwm.woff") format("woff");
}

@font-face {
	font-family: Alegreya-Bold_cvx;
	src: url("fonts/Alegreya-Bold_cvx.woff") format("woff");
}

@font-face {
	font-family: TisaPro-Bold_cwl;
	src: url("fonts/TisaPro-Bold_cwl.woff") format("woff");
}

@font-face {
	font-family: TisaPro-Bold_cwk;
	src: url("fonts/TisaPro-Bold_cwk.woff") format("woff");
}

@font-face {
	font-family: ProximaNova-Semibold_cw0;
	src: url("fonts/ProximaNova-Semibold_cw0.woff") format("woff");
}

@font-face {
	font-family: STKaitiSC-Regular_cof;
	src: url("fonts/STKaitiSC-Regular_cof.woff") format("woff");
}

@font-face {
	font-family: Alegreya-Regular_cvz;
	src: url("fonts/Alegreya-Regular_cvz.woff") format("woff");
}

]]></style>

</svg>
