<?xml version="1.0" encoding="UTF-8" standalone="no"?>
<!DOCTYPE svg PUBLIC "-//W3C//DTD SVG 1.1//EN"
"http://www.w3.org/Graphics/SVG/1.1/DTD/svg11.dtd">


<!-- Page 352 -->
<svg x="0" y="0" width="921" height="1196" viewBox="0 0 921 1196" version="1.1" xmlns="http://www.w3.org/2000/svg" xmlns:xlink="http://www.w3.org/1999/xlink"
style="display: block;margin-left: auto;margin-right: auto;">
<defs>
<clipPath id="c0_352"><path d="M0,1196.3L0,0L921.3,0l0,1196.3Z" /></clipPath>

<style type="text/css"><![CDATA[

.g1_352{
fill: #DAEDEA;
}
.g2_352{
fill: #39B5A8;
}
.g3_352{
fill: none;
stroke: #348E85;
stroke-width: 1.5277778;
stroke-linecap: butt;
stroke-linejoin: miter;
stroke-miterlimit: 4;
}
.g4_352{
fill: #348E85;
}
.g5_352{
fill: #2B8E84;
}
.g6_352{
fill: #FFFFFF;
}
.g7_352{
fill: #FDFEFE;
}
.g8_352{
fill: #6F7073;
}

.s1_352{
font-size: 21.39px;
font-family: Alegreya-Black_db8;
fill: #040504;
}
.s2_352{
font-size: 22.92px;
font-family: ProximaNova-Extrabld_db2;
fill: #FFFFFF;
}
.s3_352{
font-size: 19.86px;
font-family: Alegreya-Bold_db6;
fill: #FFFFFF;
}
.s4_352{
font-size: 24.44px;
font-family: ProximaNova-Extrabld_db2;
fill: #39B5A8;
}
.s5_352{
font-size: 18.33px;
font-family: ProximaNova-Bold_da-;
fill: #FFFFFF;
}
.s6_352{
font-size: 22.92px;
font-family: Alegreya-Black_db8;
fill: #39B5A8;
}
.s7_352{
font-size: 19.10px;
font-family: Alegreya-Regular_db1;
fill: #231F20;
}
.s8_352{
font-size: 13.75px;
font-family: Alegreya-Regular_db1;
fill: #231F20;
}
.s9_352{
font-size: 13.75px;
font-family: ProximaNovaA-Regular_dbb;
fill: #57585A;
}
.s10_352{
font-size: 10.69px;
font-family: ProximaNovaA-Regular_dbb;
fill: #57585A;
}

]]></style>

</defs>
<path d="M0,0
L0,1196
L921,1196
L921,0 Z " 
fill="#FFFFFF" stroke="none" />
<path d="M871.3,503.1l-572,0l0,301l572,0l0,-301Z" class="g1_352" />
<path d="M871.3,506.9l0,-18.4c0,0,0,-14,-12.9,-14l-559.1,0l0,32.4Z" class="g2_352" />
<path d="M921.3,98.7l-63.2,0l0,260.3l63.2,0l0,-260.3Zm-848.7,0L0,98.7L0,359l72.6,0l0,-260.3Z" class="g1_352" />
<path d="M163.4,894l399.8,0" class="g3_352" />
<path d="M563.2,899.5c3,0,5.5,-2.5,5.5,-5.5c0,-3.1,-2.5,-5.5,-5.5,-5.5c-3,0,-5.5,2.4,-5.5,5.5c0,3,2.5,5.5,5.5,5.5Z" class="g4_352" />
<path d="M491.8,928.2l0,0l0,-52c0,-9.1,-7.4,-16.5,-16.5,-16.5l-475.2,0l0,68.5Z" class="g5_352" />
<g clip-path="url(#c0_352)">
<path d="M0,1210l935,0l0,-281.8l-935,0L0,1210Z" class="g2_352" />
</g>
<text 
x="598" 
y="881" 
dx="0,-0.4,-0.2,0,0,0,0,0,-0.2,0,0,0,0,0,0,0,0,0,0,0,0,0,0,0,0,0" 
class="s1_352"
>How do you decide what to </text>

<text 
x="599" 
y="908" 
dx="0,0,0,0,0,0,0,0,0,0,0,0,0,0,0,0,0,0,0,0,0,0,0,0,0,0,-0.2,0,0,0,0" 
class="s1_352"
>spend time on outside of class?</text>

<text 
x="143" 
y="889" 
dx="0,0.1,0.1,0.1,0.1,0.1,0.1,0.1,0.1,0.1,0.1,0.1,0.1,0.1,0.1" 
class="s2_352"
>REFLEcT ON THE </text>

<text 
x="143" 
y="914" 
dx="0,0.1,0.1,0.1,0.1,0.1,0.1,0.1,0.1,0.1,0.1,0.1,0.1,0.1,0.1,0.1,0.1,0.1,0.1" 
class="s2_352"
>ESSENTIAL QUESTION </text>

<text 
x="205" 
y="1048" 
dx="0,0,0,0,0,0,0,0,0,0,0,0,0,0,0,0,0,0,0,0,0,0,0,0,0,0,0,0,0,-0.3,0,0,0,0,0,0,0,0,0,-0.3,0,0,0,0,0,0,0,-0.3,0,0,0,0,0,0,0,0,0,0,0,0.1,0,0,0,0,0,0" 
class="s3_352"
>What kinds of activities do you think would make learning Chinese </text>

<text 
x="205" 
y="1071" 
dx="0,0,0,-0.2,0,0,0,0,0,0,-0.2,0,0,0,-0.3,0,0,0,0,0,0,0,0,0,0,0,0,0,0,0,0,0,0,0,0,0,0,0,0,0,0,0,0,0,0,0,-0.3,0,0" 
class="s3_352"
>more fun for you? What about them appeals to you?</text>

<text 
x="205" 
y="999" 
dx="0,-0.1,0,0,-0.3,0,0,0,0,0,-0.1,0,0,0,0,0,0,0.1,0,0,0,0,0,0,0,0,0,0,-0.4,-0.4,0,0,0,0,0,-0.4,-0.4,0,0,0,0,0,0,0,-0.3,0,0,0,0,0,-0.3,0,0,0,0,0,0,-0.3,0,0,0,0,0" 
class="s3_352"
>Do you seek out Chinese arts, music, and shows? Why or why not?</text>

<path d="M164,1012c9.7,0,17.6,-7.9,17.6,-17.7c0,-9.8,-7.9,-17.7,-17.6,-17.7c-9.8,0,-17.7,7.9,-17.7,17.7c0,9.8,7.9,17.7,17.7,17.7Z" class="g6_352" />
<path d="M164,1072.8c9.7,0,17.6,-7.9,17.6,-17.7c0,-9.7,-7.9,-17.6,-17.6,-17.6c-9.8,0,-17.7,7.9,-17.7,17.6c0,9.8,7.9,17.7,17.7,17.7Z" class="g6_352" />
<path d="M164,1133.7c9.7,0,17.6,-8,17.6,-17.7c0,-9.8,-7.9,-17.7,-17.6,-17.7c-9.8,0,-17.7,7.9,-17.7,17.7c0,9.7,7.9,17.7,17.7,17.7Z" class="g6_352" />
<text 
x="157" 
y="1001" 
dx="0" 
class="s4_352"
>1</text>

<text 
x="155" 
y="1062" 
dx="0" 
class="s4_352"
>2</text>

<text 
x="156" 
y="1123" 
dx="0" 
class="s4_352"
>3</text>

<text 
x="205" 
y="1104" 
dx="0,-0.1,0,0,0,0,0,0,0,0,0,0.1,0,0,0,0,0,0,0,0,0,0,0,0,0,0,0,0,0,0,0,0,0,0,0,0,-0.4,0,0,0,0,0,0,-0.4,0,0,0,0,0,0,0,0,0,0,0,0,0,0,0,0,0,0,0" 
class="s3_352"
>Imagine a Chinese student learning English. What kinds of arts </text>

<text 
x="204" 
y="1127" 
dx="0,0,0,0,0,0,0,0,0,0,0,0,0,0,0,0,0,0,-0.3,0,0,0,0,0,-0.3,0,0,0,0,0,0,-0.1,0,0,0,0,0,0,0,0,0,0,0,0,0,0,0,0,0,-0.3,-0.3,0,0,0,0,0,0,0,0,0,0" 
class="s3_352"
>or entertainment would you suggest to them as a way to boost </text>

<text 
x="205" 
y="1150" 
dx="0,0,0,0,0,0,0,-0.4,0,0,0,0,0,0,0,0,0,0,0,0,0" 
class="s3_352"
>their English skills?</text>

<text 
x="854" 
y="1165" 
dx="0,0,0" 
class="s5_352"
>329</text>

<image preserveAspectRatio="none" x="73" y="48" width="595" height="402" xlink:href="352/img/1.png" />
<path d="M858.1,57.6l-190,0l0,41.1l190,0l0,-41.1Zm0,301.4l-190,0l0,74.8l190,0l0,-74.8Z" class="g6_352" />
<path d="M858.1,98.7l-190,0l0,260.3l190,0l0,-260.3Z" class="g7_352" />
<image preserveAspectRatio="none" x="580" y="57" width="88" height="108" xlink:href="352/img/2.png" />
<image preserveAspectRatio="none" x="580" y="165" width="88" height="108" xlink:href="352/img/3.png" />
<image preserveAspectRatio="none" x="580" y="272" width="88" height="108" xlink:href="352/img/4.png" />
<image preserveAspectRatio="none" x="580" y="380" width="88" height="54" xlink:href="352/img/5.png" />
<text 
transform="matrix(1.1, 0, 0, 1, 601, 92)"
dx="0,0.2,0,0,0,0,0,0,0,-0.2,-0.2,0,0,0" 
class="s6_352"
>Chinese Dramas</text>

<text 
transform="matrix(1.1, 0, 0, 1, 599, 122)"
dx="0,-1.5,0,0,0,0,0,0,0,0,0,0,0,0,0,0,0,0,0,0,0,0,0,0,0,0,0,0" 
class="s7_352"
>Watching Chinese television </text>

<text 
transform="matrix(1.1, 0, 0, 1, 601, 148)"
dx="0,0,0,0,0,0,-0.4,-0.4,0,0,0,0,0,0,0,0,0,0,0,-0.2,0,0,0,0,0" 
class="s7_352"
>series, sometimes called </text>

<text 
transform="matrix(1.1, 0, 0, 1, 600, 174)"
dx="0,-0.6,0,0,-0.2,0,0,0,-0.4,-0.4,0,-0.3,0,0,0,0,0,0,0,0,0,0,0" 
class="s7_352"
>C-dramas, could be the </text>

<text 
transform="matrix(1.1, 0, 0, 1, 600, 200)"
dx="0,0,0,0,-0.3,0,0,0,0,-0.3,-0.4,0,0,0,0,0,0,0,0,0,0,0,0,0,0,0,0,0,0,0,0" 
class="s7_352"
>perfect way to get in a little </text>

<text 
transform="matrix(1.1, 0, 0, 1, 601, 226)"
dx="0,0,0,0,0,0,0,0,0,0,0,0,0,0,0,0,0,0,0,0,0,0,0,0,0,0,0,0,0" 
class="s7_352"
>entertainment while learning </text>

<text 
transform="matrix(1.1, 0, 0, 1, 600, 252)"
dx="0,0,0,0,0,0,0,0,0,0,-0.2,0,0,0,0,0,0,-0.2,0,0,-0.2,0,0,0" 
class="s7_352"
>Chinese! These programs </text>

<text 
transform="matrix(1.1, 0, 0, 1, 600, 278)"
dx="0,0,-0.4,0,0,0,0,0,0,0,0,-0.4,-1.3,-0.4,0,-0.2,0,0,0,0,0,0,-0.6,-0.4" 
class="s7_352"
>may be funny, romantic, </text>

<text 
transform="matrix(1.1, 0, 0, 1, 601, 304)"
dx="0,0,0,0,0,0,0,0,0,0,0,0,0,0,-0.4,0,0,-0.4,0,-0.2,0,-0.4,0" 
class="s7_352"
>or action-packed. Many </text>

<text 
transform="matrix(1.1, 0, 0, 1, 600, 330)"
dx="0,0,0,0,0,0,0,0,-0.2,0,0,0,-0.6,0,0,-0.2,0,0,0,0,0,0,-0.2,0" 
class="s7_352"
>historical C-dramas are </text>

<text 
transform="matrix(1.1, 0, 0, 1, 600, 356)"
dx="0,0,0,0,0,0,0,0,0,0,0,-0.4,0,0,0,0,0,0,0,0,-1.4,0,0,0,0" 
class="s7_352"
>filmed at Hengdian World </text>

<text 
transform="matrix(1.1, 0, 0, 1, 600, 382)"
dx="0,0,0,0,0,0,0,0,0,0,0,0,0,0,0,0,0,0,0,0,0,-0.2,-0.2,-0.3,0,0,0,-0.3,-0.6,-0.4" 
class="s7_352"
>Studios in Zhejiang Province, </text>

<text 
transform="matrix(1.1, 0, 0, 1, 600, 408)"
dx="0,0,0,0,0,0,-0.2,0,0,0,0,0,-0.2,-0.6,-0.4" 
class="s7_352"
>pictured here. </text>

<text 
transform="matrix(1.1, 0, 0, 1, 90, 556)"
dx="0,0,0,0,0,0,0,0,-0.5,0,0,0,0,0" 
class="s6_352"
>By the Numbers</text>

<text 
transform="matrix(1.1, 0, 0, 1, 90, 586)"
dx="0,-0.6,-0.3,0,0.3,0,0,-0.3,0,0,-1.5,-0.4,0,0,0" 
class="s7_352"
>Every year, TV </text>

<text 
transform="matrix(1.1, 0, 0, 1, 91, 612)"
dx="0,-0.1,-0.1,-0.1,-0.1,-0.1,-0.1,-0.1,-0.1,-0.1,-0.1,-0.1,-0.3,-0.1,-0.1,-0.1,-0.1,-0.1,-0.1,-0.1,-0.1,0" 
class="s7_352"
>stations across China </text>

<text 
transform="matrix(1.1, 0, 0, 1, 91, 638)"
dx="0,0,-0.2,0,0,0,-0.2,0,0,0,0,0,0,0,0,0,0,0,0,0,0,0" 
class="s7_352"
>broadcast millions of </text>

<text 
transform="matrix(1.1, 0, 0, 1, 91, 664)"
dx="0,0,-0.2,0,0,0,0,0,0,0,0,0,0,0,-0.4,-0.4" 
class="s7_352"
>drama episodes. </text>

<text 
x="441" 
y="829" 
dx="0,-0.3,0,0,-0.1,-0.2,0,0,0,-0.3,0,0,0,0,0,0,0,0,0,0,-0.1,0,0,0,0,0,0,0,0,0,0,0,0,0,0,0,0,0,0,0,0,0,0,0,0,0,0,-0.3,0,0,0,0" 
class="s8_352"
>Source: National Bureau of Statistics of China, 2018</text>

<text 
x="573" 
y="791" 
dx="0,-1.7,0,0" 
class="s9_352"
>Year</text>

<path d="M375.5,531.9l0,213l439.1,0l0,-213l-0.2,0l0,212.8l-438.6,0l0,-212.8Z" class="g8_352" />
<path d="M463.3,531.9l0,212.9l0.3,0l0,-212.9Z" class="g8_352" />
<path d="M551.1,531.9l0,212.9l0.2,0l0,-212.9Z" class="g8_352" />
<path d="M638.8,531.9l0,212.9l0.3,0l0,-212.9Z" class="g8_352" />
<path d="M726.6,531.9l0,212.9l0.2,0l0,-212.9Z" class="g8_352" />
<path d="M814.5,531.9l-0.1,0l0,212.8l-438.6,0l0,-212.7l438.7,0l0,-0.1l-0.1,0l0.1,0l0,-0.1l-439,0l0,213.1l439.1,0l0,-213.1l-0.1,0Z" class="g8_352" />
<path d="M463.3,531.9l0,212.9l0.3,0l0,-212.9Z" class="g8_352" />
<path d="M551.1,531.9l0,212.9l0.2,0l0,-212.9Z" class="g8_352" />
<path d="M638.8,531.9l0,212.9l0.3,0l0,-212.9Z" class="g8_352" />
<path d="M726.6,531.9l0,212.9l0.2,0l0,-212.9Z" class="g8_352" />
<path d="M375.7,585.8l438.8,0l0,-0.3l-438.8,0Z" class="g8_352" />
<path d="M375.5,639.5l439.1,0l0,-0.2l-439.1,0Z" class="g8_352" />
<path d="M375.8,693.2l438.7,0l0,-0.2l-438.7,0Z" class="g8_352" />
<path d="M814.3,553.5l-85.6,6.8l-50.7,0l-39.1,4.2l-22.4,2.1l-110.3,0l-85.4,14.7l-45.3,16.4l1,2.8l45.1,-16.2l84.8,-14.7l110.2,0l22.6,-2.1l38.9,-4.2l50.8,0l85.6,-6.8Z" class="g4_352" />
<text 
x="323" 
y="534" 
dx="0,0,0,0,0,0,0,0,0" 
class="s10_352"
>8 million</text>

<text 
x="323" 
y="587" 
dx="0,0,0,0,0,0,0,0,0" 
class="s10_352"
>6 million</text>

<text 
x="323" 
y="641" 
dx="0,0,0,0,0,0,0,0,0" 
class="s10_352"
>4 million</text>

<text 
x="323" 
y="694" 
dx="0,0,0,0,0,0,0,0,0" 
class="s10_352"
>2 million</text>

<text 
x="323" 
y="747" 
dx="0,0,0,0,0,0,0,0,0" 
class="s10_352"
>0 million</text>

<text 
x="361" 
y="761" 
dx="0,0,0,0" 
class="s10_352"
>2008</text>

<text 
x="451" 
y="761" 
dx="0,0,0,0" 
class="s10_352"
>2010</text>

<text 
x="539" 
y="761" 
dx="0,0,0,0" 
class="s10_352"
>2012</text>

<text 
x="628" 
y="761" 
dx="0,0,0,0" 
class="s10_352"
>2014</text>

<text 
x="715" 
y="761" 
dx="0,0,0,0" 
class="s10_352"
>2016</text>

<text 
x="803" 
y="761" 
dx="0,0,0,0" 
class="s10_352"
>2018</text>

<text 
x="376" 
y="497" 
dx="0,-0.2,0,0,0,0,0,0,0,0,0,0,0,0,-0.1,-0.2,0,0,0,0,0,0,0,0,0,0,0,0,0,-0.1,-0.2,0,0,0,-0.2,0,0,0,0,0,0,0,0.1,0,0,0" 
class="s3_352"
>Number of TV Drama Episodes Broadcast in China</text>



<!-- Any embedded fonts defined here -->
<style type="text/css" ><![CDATA[

@font-face {
	font-family: Alegreya-Black_db8;
	src: url("fonts/Alegreya-Black_db8.woff") format("woff");
}

@font-face {
	font-family: ProximaNova-Extrabld_db2;
	src: url("fonts/ProximaNova-Extrabld_db2.woff") format("woff");
}

@font-face {
	font-family: ProximaNova-Bold_da-;
	src: url("fonts/ProximaNova-Bold_da-.woff") format("woff");
}

@font-face {
	font-family: Alegreya-Bold_db6;
	src: url("fonts/Alegreya-Bold_db6.woff") format("woff");
}

@font-face {
	font-family: Alegreya-Regular_db1;
	src: url("fonts/Alegreya-Regular_db1.woff") format("woff");
}

@font-face {
	font-family: ProximaNovaA-Regular_dbb;
	src: url("fonts/ProximaNovaA-Regular_dbb.woff") format("woff");
}

]]></style>

</svg>
