<?xml version="1.0" encoding="UTF-8" standalone="no"?>
<!DOCTYPE svg PUBLIC "-//W3C//DTD SVG 1.1//EN"
"http://www.w3.org/Graphics/SVG/1.1/DTD/svg11.dtd">


<!-- Page 95 -->
<svg x="0" y="0" width="921" height="1196" viewBox="0 0 921 1196" version="1.1" xmlns="http://www.w3.org/2000/svg" xmlns:xlink="http://www.w3.org/1999/xlink"
style="display: block;margin-left: auto;margin-right: auto;">
<defs>

<style type="text/css"><![CDATA[

.g1_95{
fill: none;
stroke: #3986C6;
stroke-width: 1.6194444;
stroke-linecap: butt;
stroke-linejoin: miter;
stroke-miterlimit: 4;
}
.g2_95{
fill: #3986C6;
}
.g3_95{
fill: none;
stroke: #ACBF3B;
stroke-width: 2.2916667;
stroke-linecap: butt;
stroke-linejoin: miter;
stroke-miterlimit: 4;
}

.s1_95{
font-size: 12.99px;
font-family: ProximaNova-Semibold_cqy;
fill: #231F20;
}
.s2_95{
font-size: 18.33px;
font-family: ProximaNova-Bold_cs-;
fill: #231F20;
}
.s3_95{
font-size: 19.10px;
font-family: ProximaNova-Bold_cs-;
fill: #3986C6;
}
.s4_95{
font-size: 19.10px;
font-family: Alegreya-Regular_csr;
fill: #231F20;
}
.s5_95{
font-size: 19.10px;
font-family: Alegreya-Bold_csx;
fill: #3986C6;
}
.s6_95{
font-size: 32.08px;
font-family: STKaitiSC-Regular_cof;
fill: #231F20;
}

]]></style>

</defs>
<path d="M0,0
L0,1196
L921,1196
L921,0 Z " 
fill="#FFFFFF" stroke="none" />
<text 
transform="matrix(0, -1, 1, 0, 54, 1084)"
dx="0,0,0,0,0,0,0,0,0,0,0,0,0,0,0,0,0,0,0" 
class="s1_95"
>Go Far with Chinese</text>

<text 
x="38" 
y="1149" 
dx="0,0" 
class="s2_95"
>72</text>

<path d="M50.4,1089.3l0,38.7" class="g1_95" />
<path d="M50.4,1125.4c-1.4,0,-2.5,1.1,-2.5,2.6c0,1.4,1.1,2.6,2.5,2.6c1.5,0,2.6,-1.2,2.6,-2.6c0,-1.5,-1.1,-2.6,-2.6,-2.6Z" class="g2_95" />
<text 
x="110" 
y="101" 
dx="0,-0.4,0,0,0,0,0,0,0,0" 
class="s3_95"
>Passage 2 </text>

<text 
x="204" 
y="100" 
dx="0,-1.1,0,0,-0.4,0,0,0,0,0,0,0,0,0,0,0,0,0,0,0,0,-0.4,0,0,0,0,0,0,0,0,0,0,0,0,0,0,0,0,0,-0.4,-0.4,0,0,0,0,0,0,0,0,0,0,0,0,0,0,0,0,0,0,0,0,0,-0.2,0,0,0,0,0,0,0,0,0,0,0,0,0,0,0,-0.3,0" 
class="s4_95"
>Today is the first day of Chinese class, and these students are getting to know </text>

<text 
x="110" 
y="126" 
dx="0,0,0,0,0,0,0,0,0,0,0,0,0,0,0,0,0,-1.6,-0.4,0,-0.6,0,0,0,0,0,0,0,0,0,0,0,0,0,0,0,0,0,0,0,0,-0.3,-1.4,-0.4,0,-0.4,-0.2,0,0,0,0,0,0,0,0,0,0,0,0,0,0,0,0,0,0,0,0,0,0,-0.4,0,0,0,-0.3,0,0,0,0,0,0,0,0,0,0,0,0,0,0,-0.2,0,0,0,0,0,0,0,0,0" 
class="s4_95"
>their new teacher. Read the dialogue below. Are the statements that follow true (T) or false (F)? </text>

<text 
x="116" 
y="201" 
dx="0,-0.9,0,0,-0.1,0,0,0" 
class="s5_95"
>Teacher:</text>

<text 
x="227" 
y="201" 
dx="0,0,0,0,0" 
class="s6_95"
>同学们好！</text>

<text 
x="116" 
y="263" 
dx="0,0,0,0,0,0,0,0,0" 
class="s5_95"
>Students:</text>

<text 
x="229" 
y="263" 
dx="0,0,0,0" 
class="s6_95"
>老师好！</text>

<text 
x="116" 
y="325" 
dx="0,0,0,0,0,0,0,0,0,0" 
class="s5_95"
>Student A:</text>

<text 
x="229" 
y="325" 
dx="0,0,0,0,0,0,0,0,0" 
class="s6_95"
>老师，你有宠物吗？</text>

<text 
x="116" 
y="386" 
dx="0,-0.9,0,0,-0.1,0,0,0" 
class="s5_95"
>Teacher:</text>

<text 
x="228" 
y="386" 
dx="0,0,0,0,0,0,0,0,0,0,0,0,0" 
class="s6_95"
>我有一只猫。你喜欢宠物吗？</text>

<text 
x="116" 
y="448" 
dx="0,0,0,0,0,0,0,0,0,0" 
class="s5_95"
>Student A:</text>

<text 
x="228" 
y="448" 
dx="0,0,0" 
class="s6_95"
>喜欢！</text>

<text 
x="116" 
y="510" 
dx="0,0,0,0,0,0,0,0,0,0" 
class="s5_95"
>Student B:</text>

<text 
x="229" 
y="510" 
dx="0,0,0,0,0,0,0,0,0" 
class="s6_95"
>老师，你有哥哥吗？</text>

<text 
x="116" 
y="572" 
dx="0,-0.9,0,0,-0.1,0,0,0" 
class="s5_95"
>Teacher:</text>

<text 
x="228" 
y="572" 
dx="0,0,0,0,0,0,0,0,0,0,0,0,0,0,0" 
class="s6_95"
>我没有哥哥，可是我有一个弟弟。</text>

<text 
x="116" 
y="634" 
dx="0,0,0,0,0,0,0,0,0,0" 
class="s5_95"
>Student C:</text>

<text 
x="229" 
y="634" 
dx="0,0,0,0,0,0,0,0,0" 
class="s6_95"
>老师，你是妹妹吗？</text>

<text 
x="116" 
y="696" 
dx="0,-0.9,0,0,-0.1,0,0,0" 
class="s5_95"
>Teacher:</text>

<text 
x="228" 
y="696" 
dx="0,0,0,0,0,0,0,0,0,0,0" 
class="s6_95"
>我不是妹妹！我是姐姐。</text>

<text 
x="576" 
y="782" 
dx="0" 
class="s5_95"
>T</text>

<text 
x="617" 
y="782" 
dx="0" 
class="s5_95"
>F</text>

<text 
x="147" 
y="820" 
dx="0" 
class="s5_95"
>±</text>

<text 
x="174" 
y="820" 
dx="0,-0.2,0,0,0,0,0,0,0,0,0,0,0,0,0,0,0,0,0,0,0,-0.2,0,0,-0.4" 
class="s4_95"
>The teacher has one cat. </text>

<path d="M582,823.3c5.8,0,10.5,-4.7,10.5,-10.5c0,-5.7,-4.7,-10.4,-10.5,-10.4c-5.8,0,-10.5,4.7,-10.5,10.4c0,5.8,4.7,10.5,10.5,10.5Z" class="g3_95" />
<path d="M623,823.3c5.8,0,10.5,-4.7,10.5,-10.5c0,-5.7,-4.7,-10.4,-10.5,-10.4c-5.8,0,-10.5,4.7,-10.5,10.4c0,5.8,4.7,10.5,10.5,10.5Z" class="g3_95" />
<text 
x="147" 
y="862" 
dx="0" 
class="s5_95"
>²</text>

<text 
x="174" 
y="862" 
dx="0,0,0,0,0,0,0,0,0,0,0,0,0,0,0,-1.5,0,0,0,0,0,-0.4,0,0,0,0,0,-0.4,-0.4" 
class="s4_95"
>Student A doesn’t like pets. </text>

<path d="M582,864.6c5.8,0,10.5,-4.7,10.5,-10.5c0,-5.8,-4.7,-10.5,-10.5,-10.5c-5.8,0,-10.5,4.7,-10.5,10.5c0,5.8,4.7,10.5,10.5,10.5Z" class="g3_95" />
<path d="M623,864.6c5.8,0,10.5,-4.7,10.5,-10.5c0,-5.8,-4.7,-10.5,-10.5,-10.5c-5.8,0,-10.5,4.7,-10.5,10.5c0,5.8,4.7,10.5,10.5,10.5Z" class="g3_95" />
<text 
x="146" 
y="903" 
dx="0" 
class="s5_95"
>3</text>

<text 
x="174" 
y="903" 
dx="0,-0.2,0,0,0,0,0,0,0,0,0,0,0,0,0,0,0,0,0,-0.3,0,0,0,0,0,0,0,0,-0.2,0,0,0,0,-1.5,-0.4" 
class="s4_95"
>The teacher has a younger brother. </text>

<path d="M582,905.8c5.8,0,10.5,-4.7,10.5,-10.5c0,-5.7,-4.7,-10.4,-10.5,-10.4c-5.8,0,-10.5,4.7,-10.5,10.4c0,5.8,4.7,10.5,10.5,10.5Z" class="g3_95" />
<path d="M623,905.8c5.8,0,10.5,-4.7,10.5,-10.5c0,-5.7,-4.7,-10.4,-10.5,-10.4c-5.8,0,-10.5,4.7,-10.5,10.4c0,5.8,4.7,10.5,10.5,10.5Z" class="g3_95" />
<text 
x="146" 
y="944" 
dx="0" 
class="s5_95"
>4</text>

<text 
x="174" 
y="944" 
dx="0,-0.2,0,0,0,0,0,0,0,0,0,0,0,0,0,0,0,0,-0.3,0,0,0,0,0,0,0,0,0,0,0,0,-1.5,-0.4" 
class="s4_95"
>The teacher is a younger sister. </text>

<path d="M582,947.1c5.8,0,10.5,-4.7,10.5,-10.5c0,-5.8,-4.7,-10.5,-10.5,-10.5c-5.8,0,-10.5,4.7,-10.5,10.5c0,5.8,4.7,10.5,10.5,10.5Z" class="g3_95" />
<path d="M623,947.1c5.8,0,10.5,-4.7,10.5,-10.5c0,-5.8,-4.7,-10.5,-10.5,-10.5c-5.8,0,-10.5,4.7,-10.5,10.5c0,5.8,4.7,10.5,10.5,10.5Z" class="g3_95" />


<!-- Any embedded fonts defined here -->
<style type="text/css" ><![CDATA[

@font-face {
	font-family: ProximaNova-Bold_cs-;
	src: url("fonts/ProximaNova-Bold_cs-.woff") format("woff");
}

@font-face {
	font-family: Alegreya-Bold_csx;
	src: url("fonts/Alegreya-Bold_csx.woff") format("woff");
}

@font-face {
	font-family: ProximaNova-Semibold_cqy;
	src: url("fonts/ProximaNova-Semibold_cqy.woff") format("woff");
}

@font-face {
	font-family: Alegreya-Regular_csr;
	src: url("fonts/Alegreya-Regular_csr.woff") format("woff");
}

@font-face {
	font-family: STKaitiSC-Regular_cof;
	src: url("fonts/STKaitiSC-Regular_cof.woff") format("woff");
}

]]></style>

</svg>
