<?xml version="1.0" encoding="UTF-8" standalone="no"?>
<!DOCTYPE svg PUBLIC "-//W3C//DTD SVG 1.1//EN"
"http://www.w3.org/Graphics/SVG/1.1/DTD/svg11.dtd">


<!-- Page 291 -->
<svg x="0" y="0" width="921" height="1196" viewBox="0 0 921 1196" version="1.1" xmlns="http://www.w3.org/2000/svg" xmlns:xlink="http://www.w3.org/1999/xlink"
style="display: block;margin-left: auto;margin-right: auto;">
<defs>
<clipPath id="c0_291"><path d="M382.5,1097.8l0,-108.6l108.7,0l0,108.6Z" /></clipPath>

<style type="text/css"><![CDATA[

.g1_291{
fill: none;
stroke: #3986C6;
stroke-width: 1.6194444;
stroke-linecap: butt;
stroke-linejoin: miter;
stroke-miterlimit: 4;
}
.g2_291{
fill: #3986C6;
}
.g3_291{
fill: none;
stroke: #3986C6;
stroke-width: 1.1458334;
stroke-linecap: butt;
stroke-linejoin: miter;
}
.g4_291{
fill: #ACBF3B;
}
.g5_291{
fill: #E2E3E5;
}
.g6_291{
fill: none;
stroke: #3986C6;
stroke-width: 1.5277778;
stroke-linecap: butt;
stroke-linejoin: miter;
stroke-miterlimit: 4;
}
.g7_291{
fill: #DCDDDF;
}
.g8_291{
fill: none;
stroke: #939598;
stroke-width: 0.38194445;
stroke-linecap: butt;
stroke-linejoin: miter;
}
.g9_291{
fill: none;
stroke: #231F20;
stroke-width: 1.1458334;
stroke-linecap: butt;
stroke-linejoin: miter;
}
.g10_291{
fill: #ED692E;
}
.g11_291{
fill: none;
stroke: #ED692E;
stroke-width: 1.5277778;
stroke-linecap: butt;
stroke-linejoin: miter;
}
.g12_291{
fill: #8B8D9A;
}
.g13_291{
fill: none;
stroke: #3986C6;
stroke-width: 1.5277778;
stroke-linecap: butt;
stroke-linejoin: miter;
}
.g14_291{
fill: #E5A281;
}
.g15_291{
fill: #F0B29E;
}
.g16_291{
fill: #C28B63;
}
.g17_291{
fill: #83533C;
}

.s1_291{
font-size: 12.99px;
font-family: ProximaNova-Semibold_cqy;
fill: #231F20;
}
.s2_291{
font-size: 18.33px;
font-family: ProximaNova-Bold_d7g;
fill: #231F20;
}
.s3_291{
font-size: 25.97px;
font-family: ProximaNova-Bold_d7g;
fill: #FFFFFF;
}
.s4_291{
font-size: 25.97px;
font-family: ProximaNova-Bold_d7g;
fill: #231F20;
}
.s5_291{
font-size: 13.75px;
font-family: ProximaNova-Extrabld_d7k;
fill: #FFFFFF;
}
.s6_291{
font-size: 19.10px;
font-family: Alegreya-Regular_d7j;
fill: #231F20;
}
.s7_291{
font-size: 19.10px;
font-family: Alegreya-Bold_d7o;
fill: #3986C6;
}
.s8_291{
font-size: 32.08px;
font-family: STKaitiSC-Regular_cof;
fill: #231F20;
}
.s9_291{
font-size: 19.10px;
font-family: Alegreya-Bold_d7o;
fill: #231F20;
}
.s10_291{
font-size: 32.08px;
font-family: STKaiti_c-m;
fill: #3986C6;
}
.s11_291{
font-size: 19.86px;
font-family: ProximaNova-Bold_d7g;
fill: #231F20;
}
.s12_291{
font-size: 18.33px;
font-family: ProximaNova-Extrabld_d7k;
fill: #FFFFFF;
}

]]></style>

</defs>
<path d="M0,0
L0,1196
L921,1196
L921,0 Z " 
fill="#FFFFFF" stroke="none" />
<text 
transform="matrix(0, -1, 1, 0, 54, 1084)"
dx="0,0,0,0,0,0,0,0,0,0,0,0,0,0,0,0,0,0,0" 
class="s1_291"
>Go Far with Chinese</text>

<text 
x="32" 
y="1149" 
dx="0,0,0" 
class="s2_291"
>268</text>

<path d="M50.4,1089.3l0,38.7" class="g1_291" />
<path d="M50.4,1125.4c-1.4,0,-2.5,1.1,-2.5,2.6c0,1.4,1.1,2.6,2.5,2.6c1.5,0,2.6,-1.2,2.6,-2.6c0,-1.5,-1.1,-2.6,-2.6,-2.6Z" class="g2_291" />
<path d="M129.9,516.7c-10.2,0,-18.4,-8.2,-18.4,-18.4l0,-20.1l23.2,0c10.1,0,18.3,8.2,18.3,18.3l0,20.2Z" class="g2_291" />
<path d="M117.4,478.8l358.9,0" class="g3_291" />
<path d="M131.1,516.3l345.2,0" class="g3_291" />
<text 
x="116" 
y="505" 
dx="0,0,0" 
class="s3_291"
>3c </text>

<text 
x="158" 
y="505" 
dx="0,0,0,0,0,0,0,0,0,0,0,0,0,0" 
class="s4_291"
>Puzzle It Out </text>

<path d="M332.7,508.6c-6,0,-10.9,-4.8,-10.9,-10.8l0,-10.9l142,0c6,0,10.9,4.8,10.9,10.9l0,10.8Z" class="g4_291" />
<text 
x="338" 
y="502" 
dx="0,0,0,0,0,0,0,0,0,0,0,0,0,0" 
class="s5_291"
>Pr´Gre²² CHeCK</text>

<text 
x="111" 
y="551" 
dx="0,-0.4,0,0,0,0,0,0,0,0,0,0,0,0,-0.4,-0.4,0,-0.2,0,0,0,0,0,0,0,0,-0.3,0,0,0,0,0,0,0,0,0,0,0,-0.3,0,0,0,0,0,0,0,0,0,0,0,0,0,0,0,0,0,0,0,0,0,0,0,0,0,0,-0.3,0,0,0,0,0,0,0,0,0,0,0,0,0,0,-0.4,0,0,0,0,0,0,0,0,-0.4" 
class="s6_291"
>Complete the exercise below to check your understanding of what you learned in Section 3. </text>

<text 
x="110" 
y="577" 
dx="0,0,0,0,-0.3,0,0,0,0,-0.4,-0.3,0,0,0,0,0,0,0,0,0,0,-0.4,-0.4,0,-0.3,0,0,0,0,0,0,0,0,0,0,0,0,0,0,0,0,0,0,0,0,-0.6,0,-0.3,0,-0.2,0,0,-0.3,0,0,0,0,0,0,0,0,0" 
class="s6_291"
>If you have questions, consult the Language Reference section.</text>

<text 
x="111" 
y="610" 
dx="0,0,0,0,0,0,0,0,0,-0.3,0,-0.2,0,0,0,0,0,0,0,0,0,0,0,0,0,0,0,0,0,0,0,0,0,0,0,0,0,0,0,0,0,0,-0.3,0,0,0,0,0,0,0,0,0,0,0,0,0,0,0,0,0,0,0,-0.3,0,0,0,0,0,-0.3,-1.3,-0.4" 
class="s6_291"
>Use the words in the list on the left to complete each sentence below. </text>

<text 
x="249" 
y="663" 
dx="0" 
class="s7_291"
>±</text>

<text 
x="265" 
y="666" 
dx="0" 
class="s8_291"
>她</text>

<path d="M306.1,675.9l82.8,0l0,-36.3l-82.8,0l0,36.3Z" class="g5_291" />
<text 
x="396" 
y="666" 
dx="0,0,0" 
class="s8_291"
>她哥哥</text>

<path d="M501.1,675.9l82.8,0l0,-36.3l-82.8,0l0,36.3Z" class="g5_291" />
<text 
x="591" 
y="666" 
dx="0,0,0,0,0,0" 
class="s8_291"
>去打篮球了。</text>

<text 
x="250" 
y="707" 
dx="0" 
class="s7_291"
>²</text>

<text 
x="266" 
y="710" 
dx="0" 
class="s8_291"
>我</text>

<path d="M306.9,719.8l82.8,0l0,-36.3l-82.8,0l0,36.3Z" class="g5_291" />
<text 
x="397" 
y="710" 
dx="0,0,0,0" 
class="s8_291"
>他们不太</text>

<path d="M534,719.8l82.8,0l0,-36.3l-82.8,0l0,36.3Z" class="g5_291" />
<text 
x="616" 
y="710" 
dx="0" 
class="s8_291"
>。</text>

<text 
x="249" 
y="751" 
dx="0" 
class="s7_291"
>³</text>

<text 
x="266" 
y="754" 
dx="0" 
class="s8_291"
>我</text>

<path d="M306.5,763.7l82.7,0l0,-36.2l-82.7,0l0,36.2Z" class="g5_291" />
<text 
x="397" 
y="754" 
dx="0,0,0,0,0,0,0,0,0,0,0,0,0,0" 
class="s8_291"
>他说，我们可以明天去买衣服。</text>

<path d="M113.5,767.8l73.7,0l0,-36.9l-73.7,0l0,36.9Z" class="g5_291" />
<path d="M113.5,724l73.7,0l0,-36.9l-73.7,0l0,36.9Z" class="g5_291" />
<path d="M113.5,679.7l73.7,0l0,-36.9l-73.7,0l0,36.9Z" class="g5_291" />
<text 
x="115" 
y="714" 
dx="0,0" 
class="s8_291"
>一起</text>

<text 
x="134" 
y="670" 
dx="0" 
class="s8_291"
>跟</text>

<text 
x="115" 
y="759" 
dx="0,0" 
class="s8_291"
>一样</text>

<path d="M210.2,631.3l0,143.7" class="g6_291" />
<path d="M210.2,778.7c2.1,0,3.7,-1.6,3.7,-3.7c0,-2,-1.6,-3.6,-3.7,-3.6c-2,0,-3.6,1.6,-3.6,3.6c0,2.1,1.6,3.7,3.6,3.7Z" class="g2_291" />
<path d="M110.8,110.8l54.2,0l0,36.3l-54.2,0l0,-36.3Zm54.2,0l130.4,0l0,36.3l-130.4,0l0,-36.3Zm130.4,0l135.6,0l0,36.3l-135.6,0l0,-36.3Zm135.6,0l394.1,0l0,36.3l-394.1,0l0,-36.3Z" class="g7_291" />
<path d="M110.8,191.1l54.2,0" class="g8_291" />
<path d="M165,191.1l130.4,0" class="g8_291" />
<path d="M295.4,191.1l135.6,0" class="g8_291" />
<path d="M431,191.1l394.1,0" class="g8_291" />
<path d="M110.8,235.1l54.2,0" class="g8_291" />
<path d="M165,235.1l130.4,0" class="g8_291" />
<path d="M295.4,235.1l135.6,0" class="g8_291" />
<path d="M431,235.1l394.1,0" class="g8_291" />
<path d="M110.8,279.1l54.2,0" class="g8_291" />
<path d="M165,279.1l130.4,0" class="g8_291" />
<path d="M295.4,279.1l135.6,0" class="g8_291" />
<path d="M431,279.1l394.1,0" class="g8_291" />
<path d="M110.8,330l54.2,0" class="g8_291" />
<path d="M165,330l130.4,0" class="g8_291" />
<path d="M295.4,330L431,330" class="g8_291" />
<path d="M431,330l394.1,0" class="g8_291" />
<path d="M110.8,374l54.2,0" class="g8_291" />
<path d="M165,374l130.4,0" class="g8_291" />
<path d="M295.4,374L431,374" class="g8_291" />
<path d="M431,374l394.1,0" class="g8_291" />
<path d="M110.8,418l54.2,0" class="g8_291" />
<path d="M165,418l130.4,0" class="g8_291" />
<path d="M295.4,418L431,418" class="g8_291" />
<path d="M431,418l394.1,0" class="g8_291" />
<path d="M110.8,462l54.2,0" class="g9_291" />
<path d="M165,462l130.4,0" class="g9_291" />
<path d="M295.4,462L431,462" class="g9_291" />
<path d="M431,462l394.1,0" class="g9_291" />
<text 
x="183" 
y="136" 
dx="0,-0.7,0,0" 
class="s2_291"
>Word</text>

<text 
x="314" 
y="136" 
dx="0,0,0,0,0,0" 
class="s2_291"
>Pinyin</text>

<text 
x="449" 
y="136" 
dx="0,0,0,0,0,0,0" 
class="s2_291"
>Meaning</text>

<text 
x="129" 
y="177" 
dx="0,0" 
class="s9_291"
>16</text>

<text 
x="180" 
y="177" 
dx="0,0" 
class="s10_291"
>有的</text>

<text 
x="313" 
y="177" 
dx="0,-0.3,0,0,0" 
class="s6_291"
>yǒude</text>

<text 
x="450" 
y="177" 
dx="0,0,0,0,0" 
class="s6_291"
>some </text>

<text 
x="129" 
y="221" 
dx="0,0" 
class="s9_291"
>17</text>

<text 
x="179" 
y="221" 
dx="0,0" 
class="s10_291"
>时候</text>

<text 
x="314" 
y="221" 
dx="0,0,0,0,0,0" 
class="s6_291"
>shíhou</text>

<text 
x="449" 
y="221" 
dx="0,0,0,0,0,0,0,0,0,0,0,0,0,0,0,0,0,-0.6,-0.4,0,0,0,0,0,0,0" 
class="s6_291"
>(a point in) time, moment </text>

<text 
x="129" 
y="265" 
dx="0,0" 
class="s9_291"
>18</text>

<text 
x="181" 
y="265" 
dx="0" 
class="s10_291"
>跟</text>

<text 
x="314" 
y="265" 
dx="0,0,0" 
class="s6_291"
>gēn</text>

<text 
x="449" 
y="265" 
dx="0,0,0,0,0,-0.4,0,0,0,0,0,0,0,0" 
class="s6_291"
>with, and; to </text>

<text 
x="129" 
y="312" 
dx="0,0" 
class="s9_291"
>19</text>

<text 
x="180" 
y="312" 
dx="0,0" 
class="s10_291"
>一样</text>

<text 
x="313" 
y="312" 
dx="0,0,0,-0.3,0,0" 
class="s6_291"
>yíyàng</text>

<text 
x="450" 
y="312" 
dx="0,0,0,0,-0.6,-0.4,0,0,0,0,-0.4,0,0,0,0,-0.4,0,0,0,0" 
class="s6_291"
>same, alike; as...as</text>

<text 
x="129" 
y="359" 
dx="0,0" 
class="s9_291"
>20</text>

<text 
x="180" 
y="360" 
dx="0,0" 
class="s10_291"
>一起</text>

<text 
x="313" 
y="359" 
dx="0,0,0,0" 
class="s6_291"
>yìqǐ</text>

<text 
x="449" 
y="359" 
dx="0,0,0,0,0,0,0,0" 
class="s6_291"
>together</text>

<text 
x="129" 
y="403" 
dx="0,0" 
class="s9_291"
>21</text>

<text 
x="180" 
y="404" 
dx="0" 
class="s10_291"
>饭</text>

<text 
x="313" 
y="403" 
dx="0,-0.2,0" 
class="s6_291"
>fàn</text>

<text 
x="449" 
y="403" 
dx="0,0,0,0,0,-0.4,0,-0.3,0,0,-0.4,0,0,0,0,0,-0.3" 
class="s6_291"
>meal, cooked rice</text>

<text 
x="129" 
y="447" 
dx="0,0" 
class="s9_291"
>22</text>

<text 
x="177" 
y="448" 
dx="0,0" 
class="s10_291"
>已经</text>

<text 
x="313" 
y="447" 
dx="0,0,0,0,0,0" 
class="s6_291"
>yǐjīng</text>

<text 
x="449" 
y="447" 
dx="0,0,0,-0.2,0,0,0" 
class="s6_291"
>already</text>

<path d="M225.6,93.9l602,0" class="g6_291" />
<path d="M225.6,97c1.7,0,3.1,-1.4,3.1,-3.1c0,-1.7,-1.4,-3,-3.1,-3c-1.7,0,-3,1.3,-3,3c0,1.7,1.3,3.1,3,3.1Z" class="g2_291" />
<text 
x="109" 
y="98" 
dx="0,-1.2,0,0,0,0,0,0,0,0" 
class="s11_291"
>Vocabulary</text>

<text 
x="158" 
y="918" 
dx="0,-0.2,0,0,0,0,0,0,-0.3,0,-0.2,0,0,0,0,0,0,0,0,0,0,0,0,0,0,-0.3,0,0,0,0,0,0,0,0,-0.2,0,0,0,0,0,0,-0.2,0,0,0,0,0,-0.4,-0.4,0,0,0,0,0,0,0,0,0,0,0,0,0,0,0,0,0,0,0,0,-0.3,0,-0.2,0,0,0,0" 
class="s6_291"
>When a word is made of two (or more) characters, the meaning of the word is </text>

<text 
x="158" 
y="944" 
dx="0,0,0,0,0,0,0,0,0,-0.3,0,0,0,0,0,0,0,0,0,0,0,0,0,0,0,0,0,0,0,0,0,0,0,0,0,0,0,0,0,0,0,0,0,0,0,0,0,0,-0.2,0,0,0,0,0,0,0,-0.2,0,0,0,0,0,-0.4,-0.4,0,0,0,0,0,0,0,0,0,0,0,0,0" 
class="s6_291"
>often a combination of the meanings of the separate characters. Based on the </text>

<text 
x="158" 
y="970" 
dx="0,0,0,0,-0.2,0,0,0,0,0,0,0,-0.3,0,-1,0,-0.3,0,0,0,0,0,0,0,0,0,-0.4,0,0,0.3,0,0,0,0,0,0,0,0,0,0,0,0,0,0,0,0,0,0,-0.2,0,0,0,0,0,0,0,0,-0.3,0,-0.2,0,0,0,0,0,0,0,0,0,0,0,0,0,0,0,0" 
class="s6_291"
>characters you’ve learned, try to match each unfamiliar word to its meaning.</text>

<path d="M116.6,853.4l0,-27l5.2,0l0,22.4l12,0l0,4.6Z" class="g10_291" />
<path d="M160.9,853.4l-5.2,0L153.5,847l-10.7,0l-2.2,6.4l-5.2,0l9.7,-27l6.3,0ZM148.2,830.9l-4.1,11.8l8.1,0Z" class="g10_291" />
<path d="M180.7,826.4l4.9,0l0,27.3l-5.5,0L167.4,833.8l0,19.6l-5,0l0,-27l5.7,0l12.6,19.7Z" class="g10_291" />
<path d="M201.7,854.1c-8.2,0,-13.8,-5.3,-13.8,-14.1c0,-8.8,5.6,-14.3,13.8,-14.3c3.2,0,7,0.9,9.4,2.4l-1.7,4.5c-2.3,-1.4,-5,-2.3,-7.6,-2.3c-5.3,0,-8.7,3.6,-8.7,9.5c0,6.1,3.3,9.8,8.7,9.8c1.9,0,3.7,-0.5,5,-1.1l0,-5.2l-6.9,0l0,-4.4l11.7,0l0,12.6c-2.8,1.7,-6.6,2.6,-9.9,2.6Z" class="g10_291" />
<path d="M225.4,854.1c-6.8,0,-11,-3.9,-11,-10.9l0,-16.8l5.2,0l0,16.1c0,4.4,1.9,7,6,7c3.7,0,5.8,-2.1,5.8,-6.8l0,-16.3l5.1,0l0,16.3c0,7.4,-4,11.4,-11.1,11.4Z" class="g10_291" />
<path d="M290.8,854.1C282.6,854.1,277,848.8,277,840c0,-8.8,5.6,-14.3,13.8,-14.3c3.2,0,7,0.9,9.4,2.4l-1.7,4.5c-2.3,-1.4,-5,-2.3,-7.6,-2.3c-5.3,0,-8.7,3.6,-8.7,9.5c0,6.1,3.3,9.8,8.7,9.8c1.9,0,3.7,-0.5,5,-1.1l0,-5.2l-7,0l0,-4.4l11.8,0l0,12.6c-2.8,1.7,-6.6,2.6,-9.9,2.6Z" class="g10_291" />
<path d="M303.6,853.4l0,-27l18.1,0l0,4.4l-13,0l0,6.8l10.6,0l0,4.5l-10.6,0l0,6.9l13,0l0,4.4Z" class="g10_291" />
<path d="M196.2,864.9c-2.2,-1.4,-4.5,-2.1,-7,-2.1c-5.2,0,-8.6,3.6,-8.6,9.5c0,6,3.3,9.7,8.7,9.7c2.7,0,5.3,-1,7.2,-2.4l1,4.9c-2.1,1.3,-5.4,2.1,-8.4,2.1c-8.2,0,-13.8,-5.3,-13.8,-14.1c0,-8.7,5.6,-14.3,13.9,-14.3c3.1,0,6.3,0.8,8.6,2.1Z" class="g2_291" />
<path d="M217.6,885.9l0,-11.3l-12.6,0l0,11.3l-5.1,0l0,-27l5.1,0l0,11.1l12.6,0l0,-11.1l5.2,0l0,27Z" class="g2_291" />
<path d="M290.8,885.9l0,-27l5.1,0l0,22.4l12,0l0,4.6Z" class="g2_291" />
<path d="M310.6,885.9l0,-27l5.2,0l0,22.4l12,0l0,4.6Z" class="g2_291" />
<path d="M330.4,885.9l0,-27l18.1,0l0,4.4l-13,0l0,6.8l10.7,0l0,4.5l-10.7,0l0,6.9l13,0l0,4.4Z" class="g2_291" />
<path d="M369.2,858.9l4.9,0l0,27.3l-5.5,0L355.9,866.3l0,19.6l-4.9,0l0,-27l5.6,0l12.6,19.7Z" class="g2_291" />
<path d="M389.4,886.6c-8.2,0,-13.8,-5.3,-13.8,-14.1c0,-8.8,5.6,-14.3,13.8,-14.3c3.2,0,7,0.9,9.4,2.4l-1.7,4.5c-2.3,-1.4,-5,-2.3,-7.6,-2.3c-5.3,0,-8.7,3.6,-8.7,9.5c0,6.1,3.3,9.8,8.7,9.8c1.9,0,3.7,-0.5,5,-1.1l0,-5.2l-7,0l0,-4.4l11.8,0l0,12.6c-2.8,1.7,-6.6,2.6,-9.9,2.6Z" class="g2_291" />
<path d="M403,885.9l0,-27l18.1,0l0,4.4l-13,0l0,6.8l10.7,0l0,4.5l-10.7,0l0,6.9l13,0l0,4.4Z" class="g2_291" />
<path d="M289,885.8l-7.6,0l-7.8,-21.5l-33.2,0l-7.7,21.5l-7.6,0l27.8,-74.9l8.8,0ZM257.1,818.5L243,857.4l28.1,0Z" class="g10_291" />
<path d="M289,885.8l-7.6,0l-7.8,-21.5l-33.2,0l-7.7,21.5l-7.6,0l27.8,-74.9l8.8,0L289,885.8ZM257.1,818.5L243,857.4l28.1,0l-14,-38.9Z" class="g11_291" />
<path d="M258.3,791.2c0,0,3.6,-2.9,8.7,1.1c5.1,4.1,6,2.2,6,2.2c0,0,-1.9,3.5,-5.5,4c-3.6,0.5,-8.3,1,-9.2,-0.2Z" class="g10_291" />
<path d="M258.5,811l-2.5,0l0,-17.9l2.5,0l0,17.9Z" class="g12_291" />
<path d="M343.1,829.1l75.8,0c7.8,0,14.1,7.7,14.1,17.3l0,40.2l231.2,0" class="g13_291" />
<path d="M343.1,833.6c2.5,0,4.6,-2,4.6,-4.5c0,-2.6,-2.1,-4.6,-4.6,-4.6c-2.5,0,-4.6,2,-4.6,4.6c0,2.5,2.1,4.5,4.6,4.5Z" class="g2_291" />
<path d="M117.8,872.5l0.5,245.8c0.1,10.2,8.3,18.4,18.4,18.4l692.4,0" class="g13_291" />
<path d="M829.1,1141.3c2.5,0,4.6,-2.1,4.6,-4.6c0,-2.6,-2.1,-4.6,-4.6,-4.6c-2.6,0,-4.6,2,-4.6,4.6c0,2.5,2,4.6,4.6,4.6Z" class="g2_291" />
<path d="M829.3,1135.7L828.7,914.1c0,-15.2,-12.4,-27.5,-27.6,-27.5l-275,0" class="g6_291" />
<path d="M138.2,1014.5c0,0,-9.2,0,-9.2,-9.2l0,-15.1l16,0c0,0,9.2,0,9.2,9.2l0,15.1Z" class="g4_291" />
<text 
x="136" 
y="1008" 
dx="0" 
class="s12_291"
>1</text>

<path d="M396.4,1128.6c0,0,-9.2,0,-9.2,-9.2l0,-15.1l16,0c0,0,9.2,0,9.2,9.2l0,15.1Z" class="g4_291" />
<text 
x="393" 
y="1122" 
dx="0" 
class="s12_291"
>a</text>

<text 
x="158" 
y="1010" 
dx="0,0" 
class="s8_291"
>时区</text>

<text 
x="230" 
y="1007" 
dx="0,0,0,0,0,0,0" 
class="s6_291"
>(shíqū)</text>

<text 
x="420" 
y="1124" 
dx="0,0,0,-0.3,0,0,0,0,0" 
class="s6_291"
>diversity</text>

<path d="M138.3,1052.8c0,0,-9.1,0,-9.1,-9.2l0,-15.1l16,0c0,0,9.2,0,9.2,9.2l0,15.1Z" class="g4_291" />
<text 
x="135" 
y="1047" 
dx="0" 
class="s12_291"
>2</text>

<path d="M529.4,1128.8c0,0,-9.1,0,-9.1,-9.2l0,-15.1l16,0c0,0,9.2,0,9.2,9.2l0,15.1Z" class="g4_291" />
<text 
x="527" 
y="1123" 
dx="0" 
class="s12_291"
>b</text>

<text 
x="160" 
y="1049" 
dx="0,0" 
class="s8_291"
>炒饭</text>

<text 
x="232" 
y="1046" 
dx="0,0,0,0,0,0,-0.2,0,0" 
class="s6_291"
>(chǎofàn)</text>

<text 
x="553" 
y="1124" 
dx="0,0,0,0,0,0,0,0,0" 
class="s6_291"
>time zone</text>

<path d="M138.1,1090.5c0,0,-9.2,0,-9.2,-9.2l0,-15.1l16,0c0,0,9.2,0,9.2,9.2l0,15.1Z" class="g4_291" />
<text 
x="135" 
y="1085" 
dx="0" 
class="s12_291"
>3</text>

<path d="M686.6,1128.6c0,0,-9.1,0,-9.1,-9.1l0,-15.1l16,0c0,0,9.1,0,9.1,9.1l0,15.1Z" class="g4_291" />
<text 
x="685" 
y="1121" 
dx="0" 
class="s12_291"
>¸</text>

<text 
x="155" 
y="1087" 
dx="0,0,0" 
class="s8_291"
>多样性</text>

<text 
x="259" 
y="1084" 
dx="0,0,0,0,-0.3,-0.3,0,0,0,0,0,0,0" 
class="s6_291"
>(duōyàngxìng)</text>

<text 
x="707" 
y="1124" 
dx="0,0,0,0,0,0,0,0,0,-0.3" 
class="s6_291"
>fried rice</text>

<path d="M456.8,1040.2l-2.6,4.5c0.2,-0.2,0.2,-0.4,0.2,-0.4l6,-0.3Z" class="g14_291" />
<path d="M452.7,1047.7c0.5,-1.1,1,-2,1.3,-2.6l-1,1.6c-0.1,0.3,-0.2,0.6,-0.3,1Z" class="g14_291" />
<path d="M443.9,1066.9l0,0l-0.2,-0.1c0.1,0,0.1,0.1,0.2,0.1Z" class="g15_291" />
<path d="M439.1,1070.1l1,0.5l-0.8,-0.4c0,-0.1,-0.1,-0.1,-0.2,-0.1Z" class="g15_291" />
<path d="M443.6,1066.7l-5.2,-3c0.2,0.1,0.4,0.2,0.4,0.2c0,0,2.9,7.3,0.5,6.3l0.8,0.4l3.8,-3.7c-0.1,0,-0.1,-0.1,-0.2,-0.1c0,0,-0.1,-0.1,-0.1,-0.1Z" class="g15_291" />
<path d="M435.4,1062.2c1.2,0.4,2.1,0.9,2.6,1.3l-1.6,-1c-0.3,-0.2,-0.6,-0.3,-1,-0.3Z" class="g15_291" />
<path d="M422.2,1047.9c-0.5,1.1,-1,2,-1.3,2.6l1,-1.7c0.1,-0.3,0.2,-0.6,0.3,-0.9Z" class="g16_291" />
<path d="M420.5,1051.2l-5.9,-0.1l-0.2,0.4l3.7,3.8l2.6,-4.4c-0.2,0.2,-0.2,0.3,-0.2,0.3Z" class="g16_291" />
<path d="M462.2,1068.8c-9.5,-1.4,-11.1,-10.8,-11.1,-10.8c0,-0.3,-0.1,-0.6,-0.1,-1c-0.6,2,-1.8,5,-3.7,6.7l-3.4,3.2l-3.8,3.7l-0.7,0.6c0.4,0.4,0.8,0.9,1.1,1.2l1,1l1.5,1.5l7.4,7.4l7.7,-8.1c0.2,-0.2,3.8,-4,7.8,-5.9c-1.3,0.5,-2.5,0.6,-3.7,0.5Z" class="g14_291" />
<path d="M434.7,1090.8l-5.3,-5.3l-0.8,0.8l2.9,2.9l5.9,5.8c0.2,0.2,0.3,0.5,0.4,0.7l0.8,-0.9l-3.9,-4Z" class="g14_291" />
<path d="M434.6,1097.8l-6.2,-6.2l-2.6,-2.6c0,0,-1,-0.8,-2.5,-2.2l-11.5,11Z" class="g14_291" />
<path d="M467.4,1067.7c0.2,0,0.3,-0.1,0.3,-0.1c-0.1,0,-0.3,0.1,-0.4,0.2c0,0,0.1,-0.1,0.1,-0.1Z" class="g14_291" />
<path d="M439.9,1087.5l-6.3,-6.2l-0.6,0.6l1.6,1.6l7.6,7.6l0.6,-0.6l-2.9,-3Z" class="g14_291" />
<path d="M443.3,1082.5l-5.4,-5.5l-0.7,0.7l1.6,1.5l7.5,7.5l0.6,-0.6l-3.6,-3.6Z" class="g14_291" />
<path d="M443,1074.9l4,4c1,1,1,2.6,0,3.6c-1,1,-2.7,1,-3.7,0l3.6,3.6l0.8,0.7c1,1,2.6,1,3.6,0c1,-1,1,-2.6,0,-3.6l-0.9,-0.9l-7.4,-7.4Z" class="g15_291" />
<path d="M441.5,1073.4l-1,-1c0.5,0.5,0.9,0.9,1,1Z" class="g15_291" />
<path d="M437.9,1077l5.4,5.5c1,1,2.7,1,3.7,0c1,-1,1,-2.6,0,-3.6l-4,-4l-1.5,-1.5Z" class="g15_291" />
<path d="M438.8,1079.2l4.7,4.7c1,1,1,2.6,0,3.6c-1,1,-2.6,1,-3.6,0l2.9,3l1.5,1.5c1,1,2.6,1,3.6,0c1,-1,1,-2.6,0,-3.6l-1.6,-1.7l-7.5,-7.5Z" class="g15_291" />
<path d="M433.6,1081.3l6.3,6.2c1,1,2.6,1,3.6,0c1,-1,1,-2.6,0,-3.6l-4.7,-4.7l-1.6,-1.5Z" class="g15_291" />
<path d="M434.6,1083.5l3.7,3.7c1,1,1,2.6,0,3.6c-1,1,-2.6,1,-3.6,0l3.9,4l0.5,0.5c1,1,2.6,1,3.6,0c1,-1,1,-2.7,0,-3.7l-0.5,-0.5l-7.6,-7.6Z" class="g15_291" />
<path d="M429.4,1085.5l5.3,5.3c1,1,2.6,1,3.6,0c1,-1,1,-2.6,0,-3.6l-3.7,-3.7l-1.6,-1.6Z" class="g15_291" />
<path d="M434.6,1097.8l2.8,0c0.6,-0.6,0.7,-1.4,0.4,-2.1c-0.1,-0.2,-0.2,-0.5,-0.4,-0.7l-5.9,-5.8c0.8,0.8,0.8,2,0,2.8c-0.7,0.7,-2,0.7,-2.7,0l-0.4,-0.4Z" class="g15_291" />
<path d="M425.8,1089l2.6,2.6l0.4,0.4c0.7,0.7,2,0.7,2.7,0c0.8,-0.8,0.8,-2,0,-2.8l-2.9,-2.9Z" class="g15_291" />
<path d="M415.3,1076.8c-0.1,-0.5,-0.3,-1,-0.5,-1.5c0.1,0.5,0.3,1,0.5,1.5Z" class="g15_291" />
<path d="M425.8,1089l2.8,-2.7l0.8,-0.8l3.6,-3.6l0.6,-0.6l3.6,-3.6l0.7,-0.7l3.6,-3.6c-0.1,-0.1,-0.5,-0.5,-1,-1c-0.3,-0.3,-0.7,-0.7,-1.1,-1.2c-1,-1,-1.6,-2,-0.3,-1.1c0.1,0,0.2,0,0.2,0.1c2.4,1,-0.5,-6.3,-0.5,-6.3c0,0,-0.2,-0.1,-0.4,-0.2c-0.1,-0.1,-0.2,-0.2,-0.4,-0.2c-0.5,-0.4,-1.4,-0.9,-2.6,-1.3c-2.4,-1.1,-5.8,-2.1,-9.3,-1.8c1.2,0.4,2,0.6,2,0.6l-1.7,3.2l-10.1,10.1c0,0,-0.4,3,-0.8,2.8c1.9,3.8,5.3,7.4,7.8,9.7c1.5,1.4,2.5,2.2,2.5,2.2Z" class="g15_291" />
<path d="M398.4,1034.8l-15.9,-16.5l0,24.4l4.4,4.1c0.1,-0.1,0.2,-0.3,0.4,-0.4l5.6,-5.7l2.4,-2.4c0,0,1.2,-1.5,3.1,-3.5Z" class="g15_291" />
<path d="M393.5,1047.1l5.3,-5.3l-0.7,-0.7l-2.4,2.4c-0.1,0,-0.1,0,-0.1,0l-5.6,5.6c-0.1,0.1,-0.2,0.2,-0.4,0.3l0.9,0.8l3,-3.1Z" class="g15_291" />
<path d="M403.1,1054.5l4.2,-4.2l-0.6,-0.6l-4.7,4.6l-3.5,3.5l0.7,0.6l3.9,-3.9Z" class="g15_291" />
<path d="M398.4,1050.7l4.7,-4.7l-0.6,-0.6l-4.2,4.2l-4.1,4.1l0.6,0.6l3.6,-3.6Z" class="g15_291" />
<path d="M416.3,1074.3l10.1,-10.1l1.7,-3.2c0,0,-0.8,-0.2,-2,-0.6c-2,-0.6,-4.9,-1.8,-6.7,-3.7l-1.3,-1.4l-3.7,-3.8l-0.5,-0.5l-0.1,0.1l-7,7l-3.9,3.9l6,5.6c0.2,0.2,4,3.8,5.9,7.7c0.2,0.5,0.4,1,0.5,1.5c0.1,0,0.1,0,0.1,0.1c0,0.1,0.1,0.2,0.1,0.2c0.4,0.2,0.8,-2.8,0.8,-2.8Z" class="g15_291" />
<path d="M431,1028.6l0,0.1l0.2,0.1c-0.1,-0.1,-0.1,-0.1,-0.2,-0.2Z" class="g15_291" />
<path d="M435.7,1025.5l-0.9,-0.5l0.8,0.4c0,0,0.1,0.1,0.1,0.1Z" class="g15_291" />
<path d="M439.5,1033.4c-1.2,-0.5,-2,-1,-2.6,-1.3l1.6,1c0.3,0.1,0.6,0.3,1,0.3Z" class="g17_291" />
<path d="M431.3,1028.8l5.2,3.1c-0.2,-0.1,-0.4,-0.2,-0.4,-0.2c0,0,-2.9,-7.4,-0.5,-6.3l-0.8,-0.4l-3.8,3.6c0.1,0.1,0.1,0.1,0.2,0.2c0,0,0.1,0,0.1,0Z" class="g17_291" />
<path d="M406.8,1058.1l-1.3,1.3c-1,1,-2.6,1,-3.6,0c-1,-1,-1,-2.6,0,-3.6l1.2,-1.3l-3.9,3.9l-1,1.1c-0.6,0.6,-0.3,1.9,0.7,2.9c1,1,2.3,1.3,2.9,0.7l1.1,-1.1l3.9,-3.9Z" class="g16_291" />
<path d="M411,1053.9l-3.7,-3.6l-4.2,4.2l-1.2,1.3c-1,1,-1,2.6,0,3.6c1,1,2.6,1,3.6,0l1.3,-1.3l7,-7c-1.1,1,-2.8,2.8,-2.8,2.8Z" class="g16_291" />
<path d="M402,1054.3l-1.6,1.6c-1,1,-2.6,1,-3.6,0c-1,-1,-1,-2.6,0,-3.6l1.6,-1.6l-3.6,3.6l-1.8,1.8c-0.6,0.6,-0.3,1.9,0.7,2.9c1,1,2.3,1.4,2.9,0.8l1.9,-2l3.5,-3.5Z" class="g16_291" />
<path d="M398.4,1050.7l-1.6,1.6c-1,1,-1,2.6,0,3.6c1,1,2.6,1,3.6,0l1.6,-1.6l4.7,-4.6l-3.6,-3.7Z" class="g16_291" />
<path d="M398.3,1049.6l-1.2,1.1c-1,1.1,-2.6,1.1,-3.6,0c-1,-1,-1,-2.6,0,-3.6l-3,3.1l-1.2,1.1c-0.6,0.7,-0.4,2,0.7,3c1,1,2.3,1.3,2.9,0.6l1.3,-1.2l4.1,-4.1Z" class="g16_291" />
<path d="M393.5,1047.1c-1,1,-1,2.6,0,3.6c1,1.1,2.6,1.1,3.6,0l1.2,-1.1l4.2,-4.2l-3.7,-3.6Z" class="g16_291" />
<path d="M395.6,1043.5l0.1,0l-0.5,0.5c-0.8,0.7,-2,0.7,-2.8,0c-0.8,-0.8,-0.8,-2,0,-2.8l0.5,-0.5l-5.6,5.7c-0.2,0.1,-0.3,0.3,-0.4,0.4c-0.3,0.7,-0.1,1.6,0.5,2.2c0.6,0.6,1.5,0.8,2.2,0.4c0.2,-0.1,0.3,-0.2,0.4,-0.3Z" class="g16_291" />
<path d="M392.9,1040.7l-0.5,0.5c-0.8,0.8,-0.8,2,0,2.8c0.8,0.7,2,0.7,2.8,0l0.5,-0.5l2.4,-2.4l-2.8,-2.8Z" class="g16_291" />
<path d="M407.6,1027.8c0.5,-0.2,1,-0.4,1.4,-0.6c-0.4,0.2,-0.9,0.4,-1.4,0.6Z" class="g16_291" />
<path d="M395.3,1038.3l2.8,2.8l0.7,0.7l3.7,3.6l0.6,0.6l3.6,3.7l0.6,0.6l3.7,3.6c0,0,1.7,-1.8,2.8,-2.8c0.1,-0.1,0.1,-0.1,0.1,-0.1c0.8,-0.7,1.3,-1,0.6,0.1l0.1,0l5.9,0.1c0,0,0,-0.1,0.2,-0.3c0,-0.2,0.1,-0.3,0.2,-0.4c0.3,-0.6,0.8,-1.5,1.3,-2.6c1,-2.4,2.1,-5.9,1.7,-9.4c-0.4,1.2,-0.6,2.1,-0.6,2.1l-3.2,-1.8l-10,-10c0,0,-3.1,-0.5,-2.9,-0.8c-3.3,1.6,-6.5,4.5,-8.8,6.8c-1.9,2,-3.1,3.5,-3.1,3.5Z" class="g16_291" />
<path d="M440.2,1004.7l5.3,5.3l0.8,-0.7l-2.9,-2.9l-5.9,-5.9c-0.2,-0.2,-0.3,-0.4,-0.4,-0.6l-0.8,0.9l3.9,3.9Z" class="g16_291" />
<path d="M431.6,1013.1l5.4,5.4l0.7,-0.6l-1.6,-1.6l-7.5,-7.5l-0.6,0.7l3.6,3.6Z" class="g16_291" />
<g clip-path="url(#c0_291)">
<path d="M447.2,989.2l-7.7,8.1c0.3,0.1,0.6,0.2,0.8,0.5l6.2,6.2l2.6,2.5c0,0,1,0.9,2.5,2.3l20.5,-19.6Z" class="g16_291" />
</g>
<path d="M435,1008l6.3,6.3l0.6,-0.6l-1.6,-1.6l-7.6,-7.6l-0.6,0.6l2.9,2.9Z" class="g16_291" />
<path d="M410.1,1028.8l10,10l3.2,1.8c0,0,0.2,-0.9,0.6,-2.1c0.6,-1.9,1.8,-4.9,3.7,-6.6l3.4,-3.2l0,-0.1l3.8,-3.6l0.7,-0.7c-0.4,-0.4,-0.7,-0.8,-1.1,-1.1l-2.5,-2.5l-7.4,-7.5l-7.7,8.1c-0.2,0.3,-3.8,4.1,-7.8,5.9c-0.4,0.2,-0.9,0.4,-1.4,0.6c-0.1,0,-0.1,0,-0.1,0c-0.2,0.1,-0.3,0.1,-0.3,0.2c-0.2,0.3,2.9,0.8,2.9,0.8Z" class="g16_291" />
<path d="M431.9,1020.7l-4,-4c-1,-1,-1,-2.6,0,-3.6c1,-1,2.7,-1,3.7,0l-3.6,-3.6l-0.8,-0.8c-1,-1,-2.6,-1,-3.6,0c-1,1,-1,2.6,0,3.6l0.9,0.9l7.4,7.5Z" class="g17_291" />
<path d="M433.4,1022.2l3.6,-3.7l-5.4,-5.4c-1,-1,-2.7,-1,-3.7,0c-1,1,-1,2.6,0,3.6l4,4l2.5,2.5c-0.5,-0.6,-1,-1,-1,-1Z" class="g17_291" />
<path d="M436.1,1016.3l-4.7,-4.7c-1,-1,-1,-2.6,0,-3.6c1,-1,2.6,-1,3.6,0l-2.9,-2.9l-1.5,-1.5c-1,-1,-2.6,-1,-3.6,0c-1,1,-1,2.6,0,3.6l1.6,1.6l7.5,7.5Z" class="g17_291" />
<path d="M441.3,1014.3L435,1008c-1,-1,-2.6,-1,-3.6,0c-1,1,-1,2.6,0,3.6l4.7,4.7l1.6,1.6Z" class="g17_291" />
<path d="M440.3,1012.1l-3.7,-3.7c-1,-1,-1,-2.7,0,-3.7c1,-1,2.6,-1,3.6,0l-3.9,-3.9l-0.5,-0.5c-1,-1,-2.6,-1,-3.6,0c-1,1,-1,2.6,0,3.6l0.5,0.6l7.6,7.6Z" class="g17_291" />
<path d="M445.5,1010l-5.3,-5.3c-1,-1,-2.6,-1,-3.6,0c-1,1,-1,2.7,0,3.7l3.7,3.7l1.6,1.6Z" class="g17_291" />
<path d="M443.4,1006.4c-0.8,-0.8,-0.8,-2,0,-2.8c0.7,-0.8,2,-0.8,2.7,0l0.4,0.4l-6.2,-6.2c-0.2,-0.3,-0.5,-0.4,-0.8,-0.5c-0.7,-0.2,-1.4,-0.1,-2,0.5c-0.6,0.5,-0.7,1.4,-0.4,2.1c0.1,0.2,0.2,0.4,0.4,0.6Z" class="g17_291" />
<path d="M449.1,1006.5l-2.6,-2.5l-0.4,-0.4c-0.7,-0.8,-2,-0.8,-2.7,0c-0.8,0.8,-0.8,2,0,2.8l2.9,2.9l2.7,-2.8Z" class="g17_291" />
<path d="M459.6,1018.8c0.1,0.5,0.3,1,0.5,1.4c-0.1,-0.4,-0.3,-0.9,-0.5,-1.4Z" class="g17_291" />
<path d="M449,1006.5l-2.7,2.8l-0.8,0.7l-3.6,3.7l-0.6,0.6l-3.6,3.6l-0.7,0.6l-3.6,3.7c0,0,0.5,0.4,1,1c0.4,0.3,0.7,0.7,1.1,1.1c1,1.1,1.6,2,0.3,1.2l-0.1,0c0,0,-0.1,-0.1,-0.1,-0.1c-2.4,-1.1,0.5,6.3,0.5,6.3c0,0,0.2,0.1,0.4,0.2c0.1,0.1,0.2,0.1,0.4,0.2c0.6,0.3,1.4,0.8,2.6,1.3c2.4,1,5.8,2.1,9.3,1.7c-1.2,-0.4,-2,-0.6,-2,-0.6l1.7,-3.2l10.1,-10c0,0,0.4,-3.1,0.8,-2.9c-1.9,-3.7,-5.3,-7.4,-7.8,-9.6c-1.5,-1.4,-2.5,-2.3,-2.5,-2.3Z" class="g17_291" />
<path d="M478.1,1043.3l-6.3,6.2l0.6,0.6l5.4,-5.3l2.9,-2.9l-0.6,-0.6l-2,2Z" class="g17_291" />
<g clip-path="url(#c0_291)">
<path d="M491.2,1051.8l-3.2,-3l0,0.1l-5.5,5.4l-2.9,3c0,0,-1.2,1.5,-3.1,3.4l14.7,15.3Z" class="g17_291" />
</g>
<path d="M480.1,1049.7l-4,4.1l0.7,0.7l2.5,-2.5l5.9,-5.9l-0.8,-0.7l-4.3,4.3Z" class="g17_291" />
<path d="M471.7,1041.1l-4.1,4.1l0.6,0.7l4.5,-4.5l1.7,-1.7l0.1,-0.1l1.8,-1.9l-0.6,-0.6l-4,4Z" class="g17_291" />
<path d="M458.6,1021.3l-10.1,10l-1.7,3.2c0,0,0.8,0.2,2,0.6c2,0.7,4.9,1.9,6.7,3.7l1.3,1.4l3.6,3.8l0.2,0c0,0,0,0.1,-0.1,0.1l0.4,0.4c0.6,-0.5,1.4,-1.3,2.1,-1.9l6.4,-6.5l2.6,-2.5l-6,-5.6c-0.2,-0.2,-4,-3.8,-5.9,-7.8c-0.2,-0.4,-0.4,-0.9,-0.5,-1.4c-0.1,0,-0.1,-0.1,-0.1,-0.1c0,-0.2,-0.1,-0.2,-0.1,-0.3c-0.4,-0.2,-0.8,2.9,-0.8,2.9Z" class="g17_291" />
<path d="M473,1036.1c1,1.1,1,2.7,0,3.7l-1.3,1.3l4,-4l0.7,-0.7c0.6,-0.6,0.2,-1.9,-0.8,-2.9c-1,-1,-2.2,-1.3,-2.8,-0.7l-0.8,0.8l-2.6,2.5c1,-1,2.6,-1,3.6,0Z" class="g14_291" />
<path d="M473,1039.8c1,-1,1,-2.6,0,-3.7c-1,-1,-2.6,-1,-3.6,0l-6.4,6.5c0.5,-0.6,0.9,-1,0.9,-1l3.7,3.6l4.1,-4.1Z" class="g14_291" />
<path d="M478.1,1039.6c1,1,1,2.7,0,3.7l2,-2l1.1,-1.1c0.5,-0.5,0.1,-1.8,-0.9,-2.8c-1,-1,-2.2,-1.4,-2.8,-0.8l-1.2,1.1l-1.8,1.9c1,-1,2.6,-1,3.6,0Z" class="g14_291" />
<path d="M478.1,1043.3c1,-1,1,-2.7,0,-3.7c-1,-1,-2.6,-1,-3.6,0l-0.1,0.1l-1.7,1.7l-4.5,4.5l3.6,3.6l6.3,-6.2Z" class="g14_291" />
<path d="M481.4,1044.8c1,1,1,2.6,0,3.6l-1.3,1.3l4.3,-4.3l0.4,-0.3c0.5,-0.6,0.2,-1.9,-0.8,-2.9c-1,-1,-2.3,-1.3,-2.9,-0.8l-0.4,0.5l-2.9,2.9c1,-1,2.6,-1,3.6,0Z" class="g14_291" />
<path d="M481.4,1048.4c1,-1,1,-2.6,0,-3.6c-1,-1,-2.6,-1,-3.6,0l-5.4,5.3l3.7,3.7l4,-4.1Z" class="g14_291" />
<path d="M479.3,1052l0.4,-0.4c0.8,-0.8,2,-0.8,2.8,0c0.8,0.7,0.8,2,0,2.7l5.5,-5.4c0,-0.1,0,-0.1,0,-0.1c0.7,-0.7,0.7,-1.9,-0.1,-2.6c-0.8,-0.8,-2,-0.8,-2.7,-0.1Z" class="g14_291" />
<path d="M482.5,1054.3c0.8,-0.7,0.8,-2,0,-2.7c-0.8,-0.8,-2,-0.8,-2.8,0l-0.4,0.4l-2.5,2.5l2.8,2.8l2.9,-3Z" class="g14_291" />
<path d="M476.5,1060.7c1.9,-1.9,3.1,-3.4,3.1,-3.4l-2.8,-2.8l-0.7,-0.7l-3.7,-3.7l-0.6,-0.6l-3.6,-3.6l-0.6,-0.7l-3.7,-3.6c0,0,-0.4,0.4,-0.9,1c-0.7,0.6,-1.6,1.4,-2.1,1.9c-0.6,0.4,-0.8,0.4,-0.4,-0.4c0.1,0,0.1,-0.1,0.1,-0.1l-0.2,0l-6,0.3c0,0,0,0.2,-0.2,0.4c0,0.1,-0.1,0.2,-0.2,0.4c-0.3,0.6,-0.8,1.5,-1.3,2.6c-1,2.4,-2.1,5.8,-1.7,9.3c0,0.4,0.1,0.7,0.1,1c0,0,1.6,9.4,11.1,10.8c1.2,0.1,2.4,-0.1,3.7,-0.5c0.4,-0.1,0.9,-0.3,1.4,-0.5c0.1,-0.1,0.3,-0.2,0.4,-0.2c3.3,-1.6,6.5,-4.6,8.8,-6.9Z" class="g14_291" />
<image x="511" y="985" width="137" height="114" xlink:href="291/shade/1.png" />
<image preserveAspectRatio="none" x="665" y="987" width="154" height="114" xlink:href="291/img/1.png" />


<!-- Any embedded fonts defined here -->
<style type="text/css" ><![CDATA[

@font-face {
	font-family: Alegreya-Bold_d7o;
	src: url("fonts/Alegreya-Bold_d7o.woff") format("woff");
}

@font-face {
	font-family: ProximaNova-Bold_d7g;
	src: url("fonts/ProximaNova-Bold_d7g.woff") format("woff");
}

@font-face {
	font-family: STKaiti_c-m;
	src: url("fonts/STKaiti_c-m.woff") format("woff");
}

@font-face {
	font-family: ProximaNova-Semibold_cqy;
	src: url("fonts/ProximaNova-Semibold_cqy.woff") format("woff");
}

@font-face {
	font-family: STKaitiSC-Regular_cof;
	src: url("fonts/STKaitiSC-Regular_cof.woff") format("woff");
}

@font-face {
	font-family: ProximaNova-Extrabld_d7k;
	src: url("fonts/ProximaNova-Extrabld_d7k.woff") format("woff");
}

@font-face {
	font-family: Alegreya-Regular_d7j;
	src: url("fonts/Alegreya-Regular_d7j.woff") format("woff");
}

]]></style>

</svg>
