<?xml version="1.0" encoding="UTF-8" standalone="no"?>
<!DOCTYPE svg PUBLIC "-//W3C//DTD SVG 1.1//EN"
"http://www.w3.org/Graphics/SVG/1.1/DTD/svg11.dtd">


<!-- Page 432 -->
<svg x="0" y="0" width="921" height="1196" viewBox="0 0 921 1196" version="1.1" xmlns="http://www.w3.org/2000/svg" xmlns:xlink="http://www.w3.org/1999/xlink"
style="display: block;margin-left: auto;margin-right: auto;">
<defs>

<style type="text/css"><![CDATA[

.g1_432{
fill: none;
stroke: #3986C6;
stroke-width: 1.6194444;
stroke-linecap: butt;
stroke-linejoin: miter;
stroke-miterlimit: 4;
}
.g2_432{
fill: #3986C6;
}
.g3_432{
fill: #F0F1F2;
}
.g4_432{
fill: #BDBEC1;
}
.g5_432{
fill: none;
stroke: #BDBEC1;
stroke-width: 0.38194445;
stroke-linecap: butt;
stroke-linejoin: miter;
}
.g6_432{
fill: none;
stroke: #BDBEC1;
stroke-width: 1.5277778;
stroke-linecap: butt;
stroke-linejoin: miter;
}

.s1_432{
font-size: 18.33px;
font-family: ProximaNova-Bold_ddv;
fill: #231F20;
}
.s2_432{
font-size: 12.99px;
font-family: ProximaNova-Semibold_ddu;
fill: #231F20;
}
.s3_432{
font-size: 18.33px;
font-family: ProximaNova-Bold_ddv;
fill: #57585A;
}
.s4_432{
font-size: 19.10px;
font-family: Alegreya-Regular_ddy;
fill: #231F20;
}
.s5_432{
font-size: 32.08px;
font-family: STKaitiSC-Regular_cof;
fill: #231F20;
}
.s6_432{
font-size: 21.39px;
font-family: ProximaNova-Semibold_ddu;
fill: #3F3F40;
}

]]></style>

</defs>
<path d="M0,0
L0,1196
L921,1196
L921,0 Z " 
fill="#FFFFFF" stroke="none" />
<text 
x="855" 
y="1149" 
dx="0,0,0" 
class="s1_432"
>409</text>

<path d="M872.3,1089.3l0,38.7" class="g1_432" />
<path d="M872.3,1125.4c-1.5,0,-2.6,1.1,-2.6,2.6c0,1.4,1.1,2.6,2.6,2.6c1.4,0,2.6,-1.2,2.6,-2.6c0,-1.5,-1.2,-2.6,-2.6,-2.6Z" class="g2_432" />
<text 
transform="matrix(0, 1, -1, 0, 867, 869)"
dx="0,-0.8,0,0,0,0,0,0,0,0,0,0,0,0,0,-0.5,0,0,0,0,0,0,0,0,0,0,0,0,0,0,0,0,0,0,0,0" 
class="s2_432"
>Vocabulary Index (English – Chinese)</text>

<path d="M89.4,167l391.9,0l0,42.3l-391.9,0l0,-42.3Zm391.9,0L605,167l0,42.3l-123.7,0l0,-42.3ZM605,167l140.3,0l0,42.3l-140.3,0L605,167Zm140.3,0l65.8,0l0,42.3l-65.8,0l0,-42.3ZM89.4,251.6l391.9,0l0,42.3l-391.9,0l0,-42.3Zm391.9,0l123.7,0l0,42.3l-123.7,0l0,-42.3Zm123.7,0l140.3,0l0,42.3l-140.3,0l0,-42.3Zm140.3,0l65.8,0l0,42.3l-65.8,0l0,-42.3ZM89.4,336.2l391.9,0l0,42.4l-391.9,0l0,-42.4Zm391.9,0l123.7,0l0,42.4l-123.7,0l0,-42.4Zm123.7,0l140.3,0l0,42.4l-140.3,0l0,-42.4Zm140.3,0l65.8,0l0,42.4l-65.8,0l0,-42.4ZM89.4,420.9l391.9,0l0,42.3l-391.9,0l0,-42.3Zm391.9,0l123.7,0l0,42.3l-123.7,0l0,-42.3Zm123.7,0l140.3,0l0,42.3l-140.3,0l0,-42.3Zm140.3,0l65.8,0l0,42.3l-65.8,0l0,-42.3ZM89.4,505.5l391.9,0l0,42.3l-391.9,0l0,-42.3Zm391.9,0l123.7,0l0,42.3l-123.7,0l0,-42.3Zm123.7,0l140.3,0l0,42.3l-140.3,0l0,-42.3Zm140.3,0l65.8,0l0,42.3l-65.8,0l0,-42.3ZM89.4,590.1l391.9,0l0,42.4l-391.9,0l0,-42.4Zm391.9,0l123.7,0l0,42.4l-123.7,0l0,-42.4Zm123.7,0l140.3,0l0,42.4l-140.3,0l0,-42.4Zm140.3,0l65.8,0l0,42.4l-65.8,0l0,-42.4ZM89.4,674.8l391.9,0l0,42.3l-391.9,0l0,-42.3Zm391.9,0l123.7,0l0,42.3l-123.7,0l0,-42.3Zm123.7,0l140.3,0l0,42.3l-140.3,0l0,-42.3Zm140.3,0l65.8,0l0,42.3l-65.8,0l0,-42.3ZM89.4,759.4l391.9,0l0,42.3l-391.9,0l0,-42.3Zm391.9,0l123.7,0l0,42.3l-123.7,0l0,-42.3Zm123.7,0l140.3,0l0,42.3l-140.3,0l0,-42.3Zm140.3,0l65.8,0l0,42.3l-65.8,0l0,-42.3ZM89.4,843.9l391.9,0l0,42.3l-391.9,0l0,-42.3Zm391.9,0l123.7,0l0,42.3l-123.7,0l0,-42.3Zm123.7,0l140.3,0l0,42.3l-140.3,0l0,-42.3Zm140.3,0l65.8,0l0,42.3l-65.8,0l0,-42.3ZM89.4,928.5l391.9,0l0,42.3l-391.9,0l0,-42.3Zm391.9,0l123.7,0l0,42.3l-123.7,0l0,-42.3Zm123.7,0l140.3,0l0,42.3l-140.3,0l0,-42.3Zm140.3,0l65.8,0l0,42.3l-65.8,0l0,-42.3ZM89.4,1013.1l391.9,0l0,42.4l-391.9,0l0,-42.4Zm391.9,0l123.7,0l0,42.4l-123.7,0l0,-42.4Zm123.7,0l140.3,0l0,42.4l-140.3,0l0,-42.4Zm140.3,0l65.8,0l0,42.4l-65.8,0l0,-42.4Z" class="g3_432" />
<path d="M89.4,801.7l721.7,0l0,42.2l-721.7,0l0,-42.2Z" class="g4_432" />
<path d="M745.3,167l65.8,0" class="g5_432" />
<path d="M605,167l140.3,0" class="g5_432" />
<path d="M481.3,167L605,167" class="g5_432" />
<path d="M89.4,167l391.9,0" class="g5_432" />
<path d="M745.3,251.6l65.8,0" class="g5_432" />
<path d="M745.3,293.9l65.8,0" class="g5_432" />
<path d="M605,251.6l140.3,0" class="g5_432" />
<path d="M605,293.9l140.3,0" class="g5_432" />
<path d="M481.3,251.6l123.7,0" class="g5_432" />
<path d="M481.3,293.9l123.7,0" class="g5_432" />
<path d="M89.4,251.6l391.9,0" class="g5_432" />
<path d="M89.4,293.9l391.9,0" class="g5_432" />
<path d="M745.3,336.2l65.8,0" class="g5_432" />
<path d="M745.3,378.6l65.8,0" class="g5_432" />
<path d="M605,336.2l140.3,0" class="g5_432" />
<path d="M605,378.6l140.3,0" class="g5_432" />
<path d="M481.3,336.2l123.7,0" class="g5_432" />
<path d="M481.3,378.6l123.7,0" class="g5_432" />
<path d="M89.4,336.2l391.9,0" class="g5_432" />
<path d="M89.4,378.6l391.9,0" class="g5_432" />
<path d="M745.3,420.9l65.8,0" class="g5_432" />
<path d="M745.3,463.2l65.8,0" class="g5_432" />
<path d="M605,420.9l140.3,0" class="g5_432" />
<path d="M605,463.2l140.3,0" class="g5_432" />
<path d="M89.4,420.9l391.9,0" class="g5_432" />
<path d="M89.4,463.2l391.9,0" class="g5_432" />
<path d="M745.3,505.5l65.8,0" class="g5_432" />
<path d="M745.3,547.8l65.8,0" class="g5_432" />
<path d="M605,505.5l140.3,0" class="g5_432" />
<path d="M605,547.8l140.3,0" class="g5_432" />
<path d="M89.4,505.5l391.9,0" class="g5_432" />
<path d="M89.4,547.8l391.9,0" class="g5_432" />
<path d="M481.3,420.9l123.7,0" class="g5_432" />
<path d="M481.3,463.2l123.7,0" class="g5_432" />
<path d="M481.3,505.5l123.7,0" class="g5_432" />
<path d="M481.3,547.8l123.7,0" class="g5_432" />
<path d="M745.3,590.1l65.8,0" class="g5_432" />
<path d="M745.3,632.5l65.8,0" class="g5_432" />
<path d="M605,590.1l140.3,0" class="g5_432" />
<path d="M605,632.5l140.3,0" class="g5_432" />
<path d="M481.3,590.1l123.7,0" class="g5_432" />
<path d="M481.3,632.5l123.7,0" class="g5_432" />
<path d="M89.4,590.1l391.9,0" class="g5_432" />
<path d="M89.4,632.5l391.9,0" class="g5_432" />
<path d="M745.3,674.8l65.8,0" class="g5_432" />
<path d="M745.3,717.1l65.8,0" class="g5_432" />
<path d="M605,674.8l140.3,0" class="g5_432" />
<path d="M605,717.1l140.3,0" class="g5_432" />
<path d="M89.4,674.8l391.9,0" class="g5_432" />
<path d="M89.4,717.1l391.9,0" class="g5_432" />
<path d="M481.3,674.8l123.7,0" class="g5_432" />
<path d="M481.3,717.1l123.7,0" class="g5_432" />
<path d="M605,759.4l140.3,0" class="g5_432" />
<path d="M605,801.7l140.3,0" class="g5_432" />
<path d="M481.3,759.4l123.7,0" class="g5_432" />
<path d="M481.3,801.7l123.7,0" class="g5_432" />
<path d="M89.4,759.4l391.9,0" class="g5_432" />
<path d="M89.4,801.7l391.9,0" class="g5_432" />
<path d="M745.3,759.4l65.8,0" class="g5_432" />
<path d="M745.3,801.7l65.8,0" class="g5_432" />
<path d="M745.3,843.9l65.8,0" class="g5_432" />
<path d="M745.3,886.2l65.8,0" class="g5_432" />
<path d="M605,843.9l140.3,0" class="g5_432" />
<path d="M605,886.2l140.3,0" class="g5_432" />
<path d="M481.3,843.9l123.7,0" class="g5_432" />
<path d="M481.3,886.2l123.7,0" class="g5_432" />
<path d="M89.4,843.9l391.9,0" class="g5_432" />
<path d="M89.4,886.2l391.9,0" class="g5_432" />
<path d="M745.3,928.5l65.8,0" class="g5_432" />
<path d="M745.3,970.8l65.8,0" class="g5_432" />
<path d="M605,928.5l140.3,0" class="g5_432" />
<path d="M605,970.8l140.3,0" class="g5_432" />
<path d="M89.4,928.5l391.9,0" class="g5_432" />
<path d="M89.4,970.8l391.9,0" class="g5_432" />
<path d="M481.3,928.5l123.7,0" class="g5_432" />
<path d="M481.3,970.8l123.7,0" class="g5_432" />
<path d="M745.3,1013.1l65.8,0" class="g5_432" />
<path d="M745.3,1055.5l65.8,0" class="g5_432" />
<path d="M605,1013.1l140.3,0" class="g5_432" />
<path d="M605,1055.5l140.3,0" class="g5_432" />
<path d="M481.3,1013.1l123.7,0" class="g5_432" />
<path d="M481.3,1055.5l123.7,0" class="g5_432" />
<path d="M89.4,1013.1l391.9,0" class="g5_432" />
<path d="M89.4,1055.5l391.9,0" class="g5_432" />
<path d="M89.4,124.7l391.9,0" class="g6_432" />
<path d="M481.3,124.7l123.7,0" class="g6_432" />
<path d="M605,124.7l140.3,0" class="g6_432" />
<path d="M745.3,124.7l65.8,0" class="g6_432" />
<path d="M89.4,1097.8l391.9,0" class="g6_432" />
<path d="M481.3,1097.8l123.7,0" class="g6_432" />
<path d="M605,1097.8l140.3,0" class="g6_432" />
<path d="M745.3,1097.8l65.8,0" class="g6_432" />
<path d="M89.4,209.3l391.9,0" class="g5_432" />
<path d="M481.3,209.3l123.7,0" class="g5_432" />
<path d="M605,209.3l140.3,0" class="g5_432" />
<path d="M745.3,209.3l65.8,0" class="g5_432" />
<text 
x="96" 
y="110" 
dx="0,0,0,0,0,0,0,0" 
class="s3_432"
>English </text>

<text 
x="487" 
y="110" 
dx="0,0,0,0,0,0,0" 
class="s3_432"
>Chinese</text>

<text 
x="611" 
y="110" 
dx="0,0,0,0,0,0" 
class="s3_432"
>Pinyin</text>

<text 
x="752" 
y="110" 
dx="0,-0.4,0,0" 
class="s3_432"
>Page</text>

<text 
x="95" 
y="153" 
dx="0,0,0,0,0,0,0,-0.2,0,0,-0.3,0,-0.2,0,0,-0.3,0,0,0,0,0,0,0,0,0,0,0,0,0,0,0" 
class="s4_432"
>(measure word for some animals)</text>

<text 
x="480" 
y="153" 
dx="0" 
class="s5_432"
>只</text>

<text 
x="611" 
y="153" 
dx="0,0,0" 
class="s4_432"
>zhī</text>

<text 
x="751" 
y="153" 
dx="0,0" 
class="s4_432"
>67</text>

<text 
x="95" 
y="196" 
dx="0,0,0,0,0,0,0,0,-0.2,0,0,0,0,0,0,0,0,0,0,0,0,0" 
class="s4_432"
>meat (frequently pork)</text>

<text 
x="484" 
y="196" 
dx="0" 
class="s5_432"
>肉</text>

<text 
x="611" 
y="196" 
dx="0,-0.2,0" 
class="s4_432"
>ròu</text>

<text 
x="750" 
y="196" 
dx="0,0,0" 
class="s4_432"
>212</text>

<text 
x="95" 
y="238" 
dx="0,0,0,0,0,0,0,0,0,0,0,0,0,-0.4,0,0,0,0,0,0,0,0,0,0,0,0" 
class="s4_432"
>to meet (up), to meet with</text>

<text 
x="480" 
y="238" 
dx="0,0" 
class="s5_432"
>见面</text>

<text 
x="611" 
y="238" 
dx="0,0,0,0,0,0,0,0,0" 
class="s4_432"
>jiàn miàn</text>

<text 
x="750" 
y="238" 
dx="0,0,0" 
class="s4_432"
>361</text>

<text 
x="95" 
y="280" 
dx="0,0,0,0,0,0,0,0,0,0,0,0,0,-0.4,0,0,0,0,0,0" 
class="s4_432"
>to meet with, to see</text>

<text 
x="480" 
y="280" 
dx="0" 
class="s5_432"
>见</text>

<text 
x="611" 
y="280" 
dx="0,0,0,0" 
class="s4_432"
>jiàn</text>

<text 
x="751" 
y="280" 
dx="0,0,0" 
class="s4_432"
>182</text>

<text 
x="95" 
y="323" 
dx="0,0,0,0,0,0" 
class="s4_432"
>minute</text>

<text 
x="483" 
y="323" 
dx="0" 
class="s5_432"
>分</text>

<text 
x="611" 
y="323" 
dx="0,-0.3,0" 
class="s4_432"
>fēn</text>

<text 
x="750" 
y="323" 
dx="0,0,0" 
class="s4_432"
>257</text>

<text 
x="95" 
y="365" 
dx="0,0,0,0,0,0,0,0,0,-0.4,0,0,0,0,0,0,0,0,0,0,-0.4,0,0,0,0,0,0,0,0,0,0,0,0,0,-0.3,0,0,-0.2,0,0,0,0" 
class="s4_432"
>to mistakenly think, to assume incorrectly</text>

<text 
x="482" 
y="365" 
dx="0,0" 
class="s5_432"
>以为</text>

<text 
x="611" 
y="365" 
dx="0,0,0,-0.3,0" 
class="s4_432"
>yǐwéi</text>

<text 
x="750" 
y="365" 
dx="0,0,0" 
class="s4_432"
>331</text>

<text 
x="95" 
y="407" 
dx="0,0,0,0,0,0,-0.4,0,0,0,0" 
class="s4_432"
>month, moon</text>

<text 
x="480" 
y="407" 
dx="0" 
class="s5_432"
>月</text>

<text 
x="611" 
y="407" 
dx="0,0,0" 
class="s4_432"
>yuè</text>

<text 
x="751" 
y="407" 
dx="0,0,0" 
class="s4_432"
>163</text>

<text 
x="95" 
y="450" 
dx="0,0,0,0,0,-0.4,0,0,0,0,0,0,0,0,0,0,0,0,0" 
class="s4_432"
>mood, state of mind</text>

<text 
x="484" 
y="450" 
dx="0,0" 
class="s5_432"
>心情</text>

<text 
x="611" 
y="450" 
dx="0,0,0,0,0,0,0" 
class="s4_432"
>xīnqíng</text>

<text 
x="750" 
y="450" 
dx="0,0,0" 
class="s4_432"
>243</text>

<text 
x="95" 
y="492" 
dx="0,0,0,-0.2,0,0,0,0,0,0,0,0,-0.2" 
class="s4_432"
>more and more</text>

<text 
x="485" 
y="492" 
dx="0,0,0" 
class="s5_432"
>越来越</text>

<text 
x="611" 
y="492" 
dx="0,0,0,0,0,0,0,0,0,0,0" 
class="s4_432"
>yuè lái yuè</text>

<text 
x="750" 
y="492" 
dx="0,0,0" 
class="s4_432"
>341</text>

<text 
x="95" 
y="534" 
dx="0,0,0,0,0,0,0,0,0,0,0,0,-0.3,0,-0.2,0,0,0,0,0,0" 
class="s4_432"
>morning (before noon)</text>

<text 
x="479" 
y="534" 
dx="0,0" 
class="s5_432"
>上午</text>

<text 
x="611" 
y="534" 
dx="0,0,0,0,0,0,0" 
class="s4_432"
>shàngwǔ</text>

<text 
x="751" 
y="534" 
dx="0,0,0" 
class="s4_432"
>182</text>

<text 
x="95" 
y="576" 
dx="0,0,0,0,0,-0.4,0,0,0,0" 
class="s4_432"
>most, -est</text>

<text 
x="482" 
y="577" 
dx="0" 
class="s5_432"
>最</text>

<text 
x="611" 
y="576" 
dx="0,0,0" 
class="s4_432"
>zuì</text>

<text 
x="750" 
y="576" 
dx="0,0,0" 
class="s4_432"
>233</text>

<text 
x="95" 
y="619" 
dx="0,0,0,0,0,0,-1.5,-0.4,0,0,0" 
class="s4_432"
>mother, mom</text>

<text 
x="485" 
y="619" 
dx="0,0" 
class="s5_432"
>妈妈</text>

<text 
x="611" 
y="619" 
dx="0,0,0,0" 
class="s4_432"
>māma</text>

<text 
x="750" 
y="619" 
dx="0,0" 
class="s4_432"
>57</text>

<text 
x="95" 
y="661" 
dx="0,0,-0.3,0,0,-0.6,-0.4,0,0,0,0,0,0,0,0,0,0,0,0,0,-0.2" 
class="s4_432"
>movie, motion picture</text>

<text 
x="479" 
y="661" 
dx="0,0" 
class="s5_432"
>电影</text>

<text 
x="611" 
y="661" 
dx="0,0,0,0,-0.4,0,0,0" 
class="s4_432"
>diànyǐng</text>

<text 
x="751" 
y="661" 
dx="0,0,0" 
class="s4_432"
>158</text>

<text 
x="95" 
y="703" 
dx="0,0,0,0,0" 
class="s4_432"
>music</text>

<text 
x="482" 
y="703" 
dx="0,0" 
class="s5_432"
>音乐</text>

<text 
x="611" 
y="703" 
dx="0,0,0,-0.4,0,0" 
class="s4_432"
>yīnyuè</text>

<text 
x="751" 
y="703" 
dx="0,0,0" 
class="s4_432"
>141</text>

<text 
x="95" 
y="746" 
dx="0,0,0,0,0,-0.2,0,0,0,0,0,0,0,0,0,0,0,0" 
class="s4_432"
>musical instrument</text>

<text 
x="481" 
y="746" 
dx="0,0" 
class="s5_432"
>乐器</text>

<text 
x="611" 
y="746" 
dx="0,0,0,0,0" 
class="s4_432"
>yuèqì</text>

<text 
x="751" 
y="746" 
dx="0,0,0" 
class="s4_432"
>133</text>

<text 
x="95" 
y="788" 
dx="0,0,0,0,0,-0.4,0,0,-0.4,-0.3,0,0,0,-0.8,-0.4,0,0,0,0,0,0,0" 
class="s4_432"
>must, have to, need to</text>

<text 
x="484" 
y="788" 
dx="0" 
class="s5_432"
>得</text>

<text 
x="611" 
y="788" 
dx="0,0,0" 
class="s4_432"
>děi</text>

<text 
x="750" 
y="788" 
dx="0,0,0" 
class="s4_432"
>262</text>

<text 
x="442" 
y="831" 
dx="0" 
class="s6_432"
>N</text>

<text 
x="95" 
y="873" 
dx="0,0,0,0" 
class="s4_432"
>name</text>

<text 
x="483" 
y="873" 
dx="0,0" 
class="s5_432"
>名字</text>

<text 
x="611" 
y="873" 
dx="0,0,0,0,0,0" 
class="s4_432"
>míngzi</text>

<text 
x="750" 
y="873" 
dx="0,0" 
class="s4_432"
>31</text>

<text 
x="95" 
y="915" 
dx="0,0,0,0,0,0,0,0" 
class="s4_432"
>(a name)</text>

<text 
x="482" 
y="915" 
dx="0,0" 
class="s5_432"
>小明</text>

<text 
x="610" 
y="915" 
dx="0,0,0,0,0,0,0,0" 
class="s4_432"
>Xiǎomíng</text>

<text 
x="751" 
y="915" 
dx="0,0" 
class="s4_432"
>67</text>

<text 
x="95" 
y="957" 
dx="0,0,0,0,0,0,0,0,0,0,0,0,0,-0.4,0,0,0,0,0,0,0,0,0,0,0,-0.3,0,0,0,0,-0.4" 
class="s4_432"
>neighborhood, apartment complex</text>

<text 
x="482" 
y="957" 
dx="0,0" 
class="s5_432"
>小区</text>

<text 
x="611" 
y="957" 
dx="0,0,0,0,0,0" 
class="s4_432"
>xiǎoqū</text>

<text 
x="751" 
y="957" 
dx="0,0" 
class="s4_432"
>94</text>

<text 
x="95" 
y="999" 
dx="0,0,0,0.3,-0.3,0,0,-0.4,-0.4,0,0,0,0,0,0,0" 
class="s4_432"
>nervous, anxious</text>

<text 
x="482" 
y="1000" 
dx="0,0" 
class="s5_432"
>紧张</text>

<text 
x="611" 
y="999" 
dx="0,0,0,0,0,0,0,0" 
class="s4_432"
>jǐnzhāng</text>

<text 
x="750" 
y="999" 
dx="0,0,0" 
class="s4_432"
>243</text>

<text 
x="95" 
y="1042" 
dx="0,0,0" 
class="s4_432"
>new</text>

<text 
x="484" 
y="1042" 
dx="0" 
class="s5_432"
>新</text>

<text 
x="611" 
y="1042" 
dx="0,0,0" 
class="s4_432"
>xīn</text>

<text 
x="750" 
y="1042" 
dx="0,0,0" 
class="s4_432"
>355</text>

<text 
x="95" 
y="1084" 
dx="0,0,0,0,0,-0.3,0,-0.2,0,-0.4,-0.4,0,-0.3,0,-0.2,0,0,0,0,0,0.3" 
class="s4_432"
>new words, vocabulary</text>

<text 
x="482" 
y="1084" 
dx="0,0" 
class="s5_432"
>生词</text>

<text 
x="611" 
y="1084" 
dx="0,0,0,0,0,0,0" 
class="s4_432"
>shēngcí</text>

<text 
x="750" 
y="1084" 
dx="0,0,0" 
class="s4_432"
>341</text>



<!-- Any embedded fonts defined here -->
<style type="text/css" ><![CDATA[

@font-face {
	font-family: Alegreya-Regular_ddy;
	src: url("fonts/Alegreya-Regular_ddy.woff") format("woff");
}

@font-face {
	font-family: ProximaNova-Bold_ddv;
	src: url("fonts/ProximaNova-Bold_ddv.woff") format("woff");
}

@font-face {
	font-family: STKaitiSC-Regular_cof;
	src: url("fonts/STKaitiSC-Regular_cof.woff") format("woff");
}

@font-face {
	font-family: ProximaNova-Semibold_ddu;
	src: url("fonts/ProximaNova-Semibold_ddu.woff") format("woff");
}

]]></style>

</svg>
