<?xml version="1.0" encoding="UTF-8" standalone="no"?>
<!DOCTYPE svg PUBLIC "-//W3C//DTD SVG 1.1//EN"
"http://www.w3.org/Graphics/SVG/1.1/DTD/svg11.dtd">


<!-- Page 412 -->
<svg x="0" y="0" width="921" height="1196" viewBox="0 0 921 1196" version="1.1" xmlns="http://www.w3.org/2000/svg" xmlns:xlink="http://www.w3.org/1999/xlink"
style="display: block;margin-left: auto;margin-right: auto;">
<defs>

<style type="text/css"><![CDATA[

.g1_412{
fill: none;
stroke: #3986C6;
stroke-width: 1.6194444;
stroke-linecap: butt;
stroke-linejoin: miter;
stroke-miterlimit: 4;
}
.g2_412{
fill: #3986C6;
}
.g3_412{
fill: #F0F1F2;
}
.g4_412{
fill: #BDBEC1;
}
.g5_412{
fill: none;
stroke: #BDBEC1;
stroke-width: 1.5277778;
stroke-linecap: butt;
stroke-linejoin: miter;
}

.s1_412{
font-size: 12.99px;
font-family: ProximaNova-Semibold_de4;
fill: #231F20;
}
.s2_412{
font-size: 18.33px;
font-family: ProximaNova-Bold_ddv;
fill: #231F20;
}
.s3_412{
font-size: 18.33px;
font-family: ProximaNova-Bold_ddv;
fill: #57585A;
}
.s4_412{
font-size: 32.08px;
font-family: STKaitiSC-Regular_cof;
fill: #231F20;
}
.s5_412{
font-size: 19.10px;
font-family: Alegreya-Regular_ddy;
fill: #231F20;
}
.s6_412{
font-size: 21.39px;
font-family: ProximaNova-Semibold_ddu;
fill: #3F3F40;
}

]]></style>

</defs>
<path d="M0,0
L0,1196
L921,1196
L921,0 Z " 
fill="#FFFFFF" stroke="none" />
<text 
transform="matrix(0, 1, -1, 0, 867, 869)"
dx="0,-0.8,0,0,0,0,0,0,0,0,0,0,0,0,0,-0.5,0,0,0,0,0,0,0,0,0,0,0,0,0,0,0,0,0,0,0,0" 
class="s1_412"
>Vocabulary Index (Chinese – English)</text>

<text 
x="855" 
y="1149" 
dx="0,0,0" 
class="s2_412"
>389</text>

<path d="M872.3,1089.3l0,38.7" class="g1_412" />
<path d="M872.3,1125.4c-1.5,0,-2.6,1.1,-2.6,2.6c0,1.4,1.1,2.6,2.6,2.6c1.4,0,2.6,-1.2,2.6,-2.6c0,-1.5,-1.2,-2.6,-2.6,-2.6Z" class="g2_412" />
<path d="M89.9,124.7l115.7,0l0,61l-115.7,0l0,-61Zm115.7,0l140.3,0l0,61l-140.3,0l0,-61Zm140.3,0l402.6,0l0,61l-402.6,0l0,-61Zm402.6,0l62.2,0l0,61l-62.2,0l0,-61ZM89.9,228l115.7,0l0,42.4l-115.7,0l0,-42.4Zm115.7,0l140.3,0l0,42.4l-140.3,0l0,-42.4Zm140.3,0l402.6,0l0,42.4l-402.6,0l0,-42.4Zm402.6,0l62.2,0l0,42.4l-62.2,0l0,-42.4ZM89.9,312.7l115.7,0l0,42.3L89.9,355l0,-42.3Zm115.7,0l140.3,0l0,42.3l-140.3,0l0,-42.3Zm140.3,0l402.6,0l0,42.3l-402.6,0l0,-42.3Zm402.6,0l62.2,0l0,42.3l-62.2,0l0,-42.3ZM89.9,397.3l115.7,0l0,42.3l-115.7,0l0,-42.3Zm115.7,0l140.3,0l0,42.3l-140.3,0l0,-42.3Zm140.3,0l402.6,0l0,42.3l-402.6,0l0,-42.3Zm402.6,0l62.2,0l0,42.3l-62.2,0l0,-42.3ZM89.9,481.9l115.7,0l0,42.4l-115.7,0l0,-42.4Zm115.7,0l140.3,0l0,42.4l-140.3,0l0,-42.4Zm140.3,0l402.6,0l0,42.4l-402.6,0l0,-42.4Zm402.6,0l62.2,0l0,42.4l-62.2,0l0,-42.4ZM89.9,651.1l115.7,0l0,42.3l-115.7,0l0,-42.3Zm115.7,0l140.3,0l0,42.3l-140.3,0l0,-42.3Zm140.3,0l402.6,0l0,42.3l-402.6,0l0,-42.3Zm402.6,0l62.2,0l0,42.3l-62.2,0l0,-42.3ZM89.9,735.7l115.7,0l0,42.3L89.9,778l0,-42.3Zm115.7,0l140.3,0l0,42.3l-140.3,0l0,-42.3Zm140.3,0l402.6,0l0,42.3l-402.6,0l0,-42.3Zm402.6,0l62.2,0l0,42.3l-62.2,0l0,-42.3ZM89.9,820.3l115.7,0l0,61.1l-115.7,0l0,-61.1Zm115.7,0l140.3,0l0,61.1l-140.3,0l0,-61.1Zm140.3,0l402.6,0l0,61.1l-402.6,0l0,-61.1Zm402.6,0l62.2,0l0,61.1l-62.2,0l0,-61.1ZM89.9,923.7l115.7,0l0,42.3L89.9,966l0,-42.3Zm115.7,0l140.3,0l0,42.3l-140.3,0l0,-42.3Zm140.3,0l402.6,0l0,42.3l-402.6,0l0,-42.3Zm402.6,0l62.2,0l0,42.3l-62.2,0l0,-42.3ZM89.9,1008.3l115.7,0l0,42.3l-115.7,0l0,-42.3Zm115.7,0l140.3,0l0,42.3l-140.3,0l0,-42.3Zm140.3,0l402.6,0l0,42.3l-402.6,0l0,-42.3Zm402.6,0l62.2,0l0,42.3l-62.2,0l0,-42.3Z" class="g3_412" />
<path d="M89.9,566.6l720.8,0l0,42.1l-720.8,0l0,-42.1Z" class="g4_412" />
<path d="M89.9,124.7l115.7,0" class="g5_412" />
<path d="M205.6,124.7l140.3,0" class="g5_412" />
<path d="M345.9,124.7l402.6,0" class="g5_412" />
<path d="M748.5,124.7l62.2,0" class="g5_412" />
<path d="M89.9,1093l115.7,0" class="g5_412" />
<path d="M205.6,1093l140.3,0" class="g5_412" />
<path d="M345.9,1093l402.6,0" class="g5_412" />
<path d="M748.5,1093l62.2,0" class="g5_412" />
<text 
x="96" 
y="110" 
dx="0,0,0,0,0,0,0" 
class="s3_412"
>Chinese</text>

<text 
x="211" 
y="110" 
dx="0,0,0,0,0,0" 
class="s3_412"
>Pinyin</text>

<text 
x="351" 
y="110" 
dx="0,0,0,0,0,0,0" 
class="s3_412"
>English</text>

<text 
x="754" 
y="110" 
dx="0,-0.4,0,0" 
class="s3_412"
>Page</text>

<text 
x="96" 
y="163" 
dx="0,0" 
class="s4_412"
>好看</text>

<text 
x="211" 
y="163" 
dx="0,0,0,0,-0.4,0" 
class="s5_412"
>hǎokàn</text>

<text 
x="352" 
y="150" 
dx="0,0,0,0,0,0,0,0,0,0,0,0,0,-0.4,0,0,0,-0.3,0,0,0,0,0,0,0,0,0,0,0,0,0,0,0,0,-0.3,0,0,0,0,0,0,0,0,0,0,0,0,0" 
class="s5_412"
>good-looking, nice-looking (used for people and </text>

<text 
x="352" 
y="176" 
dx="0,0,0,0,0,0,0" 
class="s5_412"
>things)</text>

<text 
x="754" 
y="163" 
dx="0,0,0" 
class="s5_412"
>191</text>

<text 
x="96" 
y="214" 
dx="0" 
class="s4_412"
>号</text>

<text 
x="211" 
y="214" 
dx="0,0,0" 
class="s5_412"
>hào</text>

<text 
x="352" 
y="214" 
dx="0,0,-0.4,0,0,0,0,0,0,0,0,0,0,0,0,0" 
class="s5_412"
>day of the month</text>

<text 
x="754" 
y="214" 
dx="0,0,0" 
class="s5_412"
>163</text>

<text 
x="96" 
y="257" 
dx="0" 
class="s4_412"
>喝</text>

<text 
x="211" 
y="257" 
dx="0,0" 
class="s5_412"
>hē</text>

<text 
x="352" 
y="257" 
dx="0,0,0,0,0,0,0,0" 
class="s5_412"
>to drink</text>

<text 
x="754" 
y="257" 
dx="0,0,0" 
class="s5_412"
>281</text>

<text 
x="96" 
y="299" 
dx="0" 
class="s4_412"
>和</text>

<text 
x="211" 
y="299" 
dx="0,0" 
class="s5_412"
>hé</text>

<text 
x="352" 
y="299" 
dx="0,0,0" 
class="s5_412"
>and</text>

<text 
x="754" 
y="299" 
dx="0,0" 
class="s5_412"
>41</text>

<text 
x="96" 
y="341" 
dx="0" 
class="s4_412"
>很</text>

<text 
x="211" 
y="341" 
dx="0,0,0" 
class="s5_412"
>hěn</text>

<text 
x="352" 
y="341" 
dx="0,-0.3,0,0.3,-1.3,-0.4,0,-0.2,0,0,0,0" 
class="s5_412"
>very, really</text>

<text 
x="754" 
y="341" 
dx="0,0" 
class="s5_412"
>62</text>

<text 
x="96" 
y="384" 
dx="0,0" 
class="s4_412"
>红烧</text>

<text 
x="211" 
y="384" 
dx="0,0,0,0,0,0,0,0" 
class="s5_412"
>hóngshāo</text>

<text 
x="352" 
y="384" 
dx="0,0,0,0,0,-0.2,0,0,0,0,0,0,0,0,0,-0.3,0,0,0,0,0,-0.3,0,0,0,0,0,0,-0.2,0,0,0,-0.3,0,0,0" 
class="s5_412"
>to braise in soy sauce (to red-cook)</text>

<text 
x="754" 
y="384" 
dx="0,0,0" 
class="s5_412"
>212</text>

<text 
x="96" 
y="426" 
dx="0,0" 
class="s4_412"
>后天</text>

<text 
x="211" 
y="426" 
dx="0,0,0,0,0,0,0" 
class="s5_412"
>hòutiān</text>

<text 
x="352" 
y="426" 
dx="0,0,0,0,0,0,-0.4,0,0,0,0,0,0,0,0,0,0,0,0,0,-0.2,-0.3" 
class="s5_412"
>the day after tomorrow</text>

<text 
x="754" 
y="426" 
dx="0,0,0" 
class="s5_412"
>158</text>

<text 
x="96" 
y="468" 
dx="0" 
class="s4_412"
>回</text>

<text 
x="211" 
y="468" 
dx="0,0,0" 
class="s5_412"
>huí</text>

<text 
x="352" 
y="468" 
dx="0,0,0,0,-0.2,0,0,0,0,0,-0.4,0,0,0,0,0,0,0,0,0,0" 
class="s5_412"
>to return, to go back</text>

<text 
x="754" 
y="468" 
dx="0,0,0" 
class="s5_412"
>365</text>

<text 
x="96" 
y="511" 
dx="0,0" 
class="s4_412"
>会 </text>

<text 
x="211" 
y="511" 
dx="0,0,0" 
class="s5_412"
>huì</text>

<text 
x="352" 
y="511" 
dx="0,-0.2,0,0,-0.4,0,0,0,-0.3,0,0,0,-0.3,0,0,0" 
class="s5_412"
>can, know how to</text>

<text 
x="754" 
y="511" 
dx="0,0,0" 
class="s5_412"
>109</text>

<text 
x="96" 
y="553" 
dx="0" 
class="s4_412"
>会</text>

<text 
x="211" 
y="553" 
dx="0,0,0" 
class="s5_412"
>huì</text>

<text 
x="352" 
y="553" 
dx="0,0,0,0" 
class="s5_412"
>will</text>

<text 
x="754" 
y="553" 
dx="0,0,0" 
class="s5_412"
>317</text>

<text 
x="445" 
y="596" 
dx="0" 
class="s6_412"
>J</text>

<text 
x="96" 
y="637" 
dx="0,0" 
class="s4_412"
>吉他</text>

<text 
x="211" 
y="637" 
dx="0,0,0,0" 
class="s5_412"
>jítā</text>

<text 
x="352" 
y="637" 
dx="0,0,0,0,0,0" 
class="s5_412"
>guitar</text>

<text 
x="754" 
y="637" 
dx="0,0,0" 
class="s5_412"
>133</text>

<text 
x="96" 
y="680" 
dx="0" 
class="s4_412"
>几</text>

<text 
x="211" 
y="680" 
dx="0,0" 
class="s5_412"
>jǐ</text>

<text 
x="352" 
y="680" 
dx="0,0,-0.3,0,0,0,0,-0.4" 
class="s5_412"
>how many</text>

<text 
x="754" 
y="680" 
dx="0,0" 
class="s5_412"
>57</text>

<text 
x="96" 
y="722" 
dx="0,0" 
class="s4_412"
>计划</text>

<text 
x="211" 
y="722" 
dx="0,0,0,0,0" 
class="s5_412"
>jìhuà</text>

<text 
x="352" 
y="722" 
dx="0,0,0,0,0,0,0,0,0,0,0,0,0" 
class="s5_412"
>plan; to plan</text>

<text 
x="754" 
y="722" 
dx="0,0,0" 
class="s5_412"
>312</text>

<text 
x="96" 
y="764" 
dx="0,0" 
class="s4_412"
>家 </text>

<text 
x="211" 
y="764" 
dx="0,0,0" 
class="s5_412"
>jiā</text>

<text 
x="352" 
y="764" 
dx="0,0,0,0" 
class="s5_412"
>home</text>

<text 
x="754" 
y="764" 
dx="0,0" 
class="s5_412"
>94</text>

<text 
x="96" 
y="807" 
dx="0,0" 
class="s4_412"
>加入</text>

<text 
x="211" 
y="807" 
dx="0,0,0,0,0" 
class="s5_412"
>jiārù</text>

<text 
x="352" 
y="807" 
dx="0,0,0,0,0,0,0" 
class="s5_412"
>to join</text>

<text 
x="754" 
y="807" 
dx="0,0,0" 
class="s5_412"
>355</text>

<text 
x="96" 
y="858" 
dx="0,0" 
class="s4_412"
>加油</text>

<text 
x="211" 
y="858" 
dx="0,0,0,0,0,-0.3,0" 
class="s5_412"
>jiā yoú</text>

<text 
x="352" 
y="845" 
dx="0,0,0,0,-0.3,0,0,0,0,0,0,0,0,0,0,-0.4,0,0,0,0,0,0,0,0,0,0,0,0,0,0,0,0,0,0,0,0,0,0,0,-0.4,-0.3,0,0,0,0,0,0,-0.4" 
class="s5_412"
>Do your best! Go! (shouted to cheer players on, </text>

<text 
x="352" 
y="871" 
dx="0,0,0,0,0,-0.2,0,0,0,0,0,0,0,0,0,0,-0.4,0,0,0,0,0,0,0,0,0,0" 
class="s5_412"
>literally means “add fuel”)</text>

<text 
x="754" 
y="858" 
dx="0,0,0" 
class="s5_412"
>118</text>

<text 
x="96" 
y="910" 
dx="0,0" 
class="s4_412"
>简单</text>

<text 
x="211" 
y="910" 
dx="0,0,0,0,0,0,0" 
class="s5_412"
>jiǎndān</text>

<text 
x="352" 
y="910" 
dx="0,0,0,0,0,0" 
class="s5_412"
>simple</text>

<text 
x="754" 
y="910" 
dx="0,0,0" 
class="s5_412"
>186</text>

<text 
x="96" 
y="952" 
dx="0" 
class="s4_412"
>见</text>

<text 
x="211" 
y="952" 
dx="0,0,0,0" 
class="s5_412"
>jiàn</text>

<text 
x="352" 
y="952" 
dx="0,0,0,0,0,0,0,0,0,0,0,0,0,-0.4,0,0,0,0,0,0" 
class="s5_412"
>to meet with, to see</text>

<text 
x="754" 
y="952" 
dx="0,0,0" 
class="s5_412"
>182</text>

<text 
x="96" 
y="995" 
dx="0,0" 
class="s4_412"
>见面</text>

<text 
x="211" 
y="995" 
dx="0,0,0,0,0,0,0,0,0" 
class="s5_412"
>jiàn miàn</text>

<text 
x="352" 
y="995" 
dx="0,0,0,0,0,0,0,0,0,0,0,0,0,-0.4,0,0,0,0,0,0,0,0,0,0,0,0" 
class="s5_412"
>to meet (up), to meet with</text>

<text 
x="754" 
y="995" 
dx="0,0,0" 
class="s5_412"
>361</text>

<text 
x="96" 
y="1037" 
dx="0" 
class="s4_412"
>件</text>

<text 
x="211" 
y="1037" 
dx="0,0,0,0" 
class="s5_412"
>jiàn</text>

<text 
x="352" 
y="1037" 
dx="0,0,0,0,0,0,0,-0.2,0,0,-0.3,0,-0.2,0,0,-0.3,0,0,0,0,0,0,0,0,0,0,0" 
class="s5_412"
>(measure word for clothing)</text>

<text 
x="754" 
y="1037" 
dx="0,0,0" 
class="s5_412"
>191</text>

<text 
x="96" 
y="1079" 
dx="0" 
class="s4_412"
>教</text>

<text 
x="211" 
y="1079" 
dx="0,0,0,0" 
class="s5_412"
>jiāo</text>

<text 
x="352" 
y="1079" 
dx="0,0,0,0,0,0,0,0" 
class="s5_412"
>to teach</text>

<text 
x="754" 
y="1079" 
dx="0,0,0" 
class="s5_412"
>141</text>



<!-- Any embedded fonts defined here -->
<style type="text/css" ><![CDATA[

@font-face {
	font-family: Alegreya-Regular_ddy;
	src: url("fonts/Alegreya-Regular_ddy.woff") format("woff");
}

@font-face {
	font-family: ProximaNova-Semibold_de4;
	src: url("fonts/ProximaNova-Semibold_de4.woff") format("woff");
}

@font-face {
	font-family: ProximaNova-Bold_ddv;
	src: url("fonts/ProximaNova-Bold_ddv.woff") format("woff");
}

@font-face {
	font-family: STKaitiSC-Regular_cof;
	src: url("fonts/STKaitiSC-Regular_cof.woff") format("woff");
}

@font-face {
	font-family: ProximaNova-Semibold_ddu;
	src: url("fonts/ProximaNova-Semibold_ddu.woff") format("woff");
}

]]></style>

</svg>
