<?xml version="1.0" encoding="UTF-8" standalone="no"?>
<!DOCTYPE svg PUBLIC "-//W3C//DTD SVG 1.1//EN"
"http://www.w3.org/Graphics/SVG/1.1/DTD/svg11.dtd">


<!-- Page 388 -->
<svg x="0" y="0" width="921" height="1196" viewBox="0 0 921 1196" version="1.1" xmlns="http://www.w3.org/2000/svg" xmlns:xlink="http://www.w3.org/1999/xlink"
style="display: block;margin-left: auto;margin-right: auto;">
<defs>

<style type="text/css"><![CDATA[

.g1_388{
fill: none;
stroke: #3986C6;
stroke-width: 1.6194444;
stroke-linecap: butt;
stroke-linejoin: miter;
stroke-miterlimit: 4;
}
.g2_388{
fill: #3986C6;
}
.g3_388{
fill: none;
stroke: #3986C6;
stroke-width: 1.1458334;
stroke-linecap: butt;
stroke-linejoin: miter;
}
.g4_388{
fill: #ACBF3B;
}
.g5_388{
fill: none;
stroke: #ACBF3B;
stroke-width: 2.2916667;
stroke-linecap: butt;
stroke-linejoin: miter;
stroke-miterlimit: 4;
}
.g6_388{
fill: none;
stroke: #3986C6;
stroke-width: 1.1458334;
stroke-linecap: butt;
stroke-linejoin: miter;
stroke-miterlimit: 4;
}
.g7_388{
fill: #FFFFFF;
}
.g8_388{
fill: none;
stroke: #ACBF3B;
stroke-width: 1.5277778;
stroke-linecap: butt;
stroke-linejoin: miter;
}
.g9_388{
fill: #DCDDDF;
}
.g10_388{
fill: none;
stroke: #939598;
stroke-width: 0.38194445;
stroke-linecap: butt;
stroke-linejoin: miter;
}
.g11_388{
fill: none;
stroke: #231F20;
stroke-width: 1.1458334;
stroke-linecap: butt;
stroke-linejoin: miter;
}
.g12_388{
fill: none;
stroke: #3986C6;
stroke-width: 1.5277778;
stroke-linecap: butt;
stroke-linejoin: miter;
stroke-miterlimit: 4;
}

.s1_388{
font-size: 18.33px;
font-family: ProximaNova-Bold_dcf;
fill: #231F20;
}
.s2_388{
font-size: 12.99px;
font-family: ProximaNova-Semibold_dcl;
fill: #231F20;
}
.s3_388{
font-size: 19.10px;
font-family: Alegreya-Regular_dci;
fill: #231F20;
}
.s4_388{
font-size: 25.97px;
font-family: ProximaNova-Bold_dcf;
fill: #FFFFFF;
}
.s5_388{
font-size: 25.97px;
font-family: ProximaNova-Bold_dcf;
fill: #231F20;
}
.s6_388{
font-size: 13.75px;
font-family: ProximaNova-Extrabld_dcj;
fill: #FFFFFF;
}
.s7_388{
font-size: 32.08px;
font-family: STKaitiSC-Regular_cof;
fill: #231F20;
}
.s8_388{
font-size: 32.08px;
font-family: STKaitiSC-Bold_cmk;
fill: #3986C6;
}
.s9_388{
font-size: 19.10px;
font-family: Alegreya-Bold_dcn;
fill: #3986C6;
}
.s10_388{
font-size: 19.86px;
font-family: ProximaNova-Bold_dcf;
fill: #231F20;
}
.s11_388{
font-size: 19.10px;
font-family: Alegreya-Bold_dcn;
fill: #231F20;
}
.s12_388{
font-size: 32.08px;
font-family: STKaiti_c-m;
fill: #3986C6;
}

]]></style>

</defs>
<path d="M0,0
L0,1196
L921,1196
L921,0 Z " 
fill="#FFFFFF" stroke="none" />
<text 
x="855" 
y="1149" 
dx="0,0,0" 
class="s1_388"
>365</text>

<path d="M872.3,1089.3l0,38.7" class="g1_388" />
<path d="M872.3,1125.4c-1.5,0,-2.6,1.1,-2.6,2.6c0,1.4,1.1,2.6,2.6,2.6c1.4,0,2.6,-1.2,2.6,-2.6c0,-1.5,-1.2,-2.6,-2.6,-2.6Z" class="g2_388" />
<text 
transform="matrix(0, 1, -1, 0, 867, 809)"
dx="0,0,0,0,0,0,0,0,0,0,0" 
class="s2_388"
>Chapter 15 </text>

<text 
transform="matrix(0, 1, -1, 0, 867, 878)"
dx="0,0" 
class="s2_388"
>• </text>

<text 
transform="matrix(0, 1, -1, 0, 867, 890)"
dx="0,0,0,0,0,0,0,0,0,0,0,0,0,0,0,0,0,0,0,0,0,0" 
class="s2_388"
>School and Activities </text>

<text 
transform="matrix(0, 1, -1, 0, 867, 1017)"
dx="0,0" 
class="s2_388"
>• </text>

<text 
transform="matrix(0, 1, -1, 0, 867, 1029)"
dx="0,0,0,0,0,0,0,0,0" 
class="s2_388"
>Section 3</text>

<image preserveAspectRatio="none" x="93" y="215" width="48" height="29" xlink:href="388/img/1.png" />
<image preserveAspectRatio="none" x="93" y="244" width="48" height="29" xlink:href="388/img/2.png" />
<path d="M107.8,121C97.6,121,89.4,112.8,89.4,102.7l0,-20.1l23.2,0c10.1,0,18.3,8.2,18.3,18.3l0,20.1Z" class="g2_388" />
<text 
x="89" 
y="156" 
dx="0,0,0,0,0,0,0,0,0,0,0,0,0,0,0,0,0,0,0,0,0,0,0,0,0,0,0.3,0,0,0,0,0,0,0,0,0,0,0,0,0,0,0,0,0,0,0,0,0,0,0,0,0,0,0,-0.3,0,0,0,-0.2,0,0,-0.4,0,-0.2,0,0,0,0,-0.2,0,0,0,0,0,0,0,0,0,0,0,0,0,0,0,0,0,0,0,0" 
class="s3_388"
>Listen to the audio and try to understand as much as you can. Then read the email Daming </text>

<text 
x="89" 
y="182" 
dx="0,0,-0.2,0,0,0,0,0,0,0,-0.2,0,0,0,0,0,-0.4,0,0,0,0,0,0,0,0,0,0,0,0,0,-0.4,0,0,0,0,0,-0.4,0,0,0,0,0,0,0,-0.3,0,-0.2,0,0,0,0,0,0.3,0,0,0,0,0,0,0,0,0,0,0,0,0,0,-0.2,0,0,0,0,0,0,0,0,-0.2,0,0,0,0,0,0,0,0,-0.3,0,-0.2,0,-0.4,-0.4" 
class="s3_388"
>wrote to Martin, using the pinyin text and vocabulary list to figure out unfamiliar words. </text>

<path d="M96.1,83l443.7,0" class="g3_388" />
<path d="M109.9,120.5l429.9,0" class="g3_388" />
<text 
x="95" 
y="109" 
dx="0,0,0" 
class="s4_388"
>3b </text>

<text 
x="137" 
y="109" 
dx="0,0,0,0,0,-1,0,0,0,0,0,0,0,0,0,0,0,0,-0.9,0" 
class="s5_388"
>New Words in Context</text>

<path d="M422.9,111.6c-6,0,-10.8,-4.8,-10.8,-10.8l0,-10.8l115.2,0c6,0,10.8,4.8,10.8,10.8l0,10.8Z" class="g4_388" />
<text 
x="428" 
y="105" 
dx="0,0,0,0,0,0,0,0,0,0,0,0" 
class="s6_388"
>¶¸µ´rPr´µ¶V´</text>

<text 
x="151" 
y="239" 
dx="0,0,0,0,0,0,0,0,0,0,0" 
class="s7_388"
>马丁，我们学校明天开始</text>

<text 
x="504" 
y="239" 
dx="0,0" 
class="s8_388"
>放假</text>

<text 
x="569" 
y="239" 
dx="0,0,0,0,0" 
class="s7_388"
>。我后天会</text>

<text 
x="729" 
y="239" 
dx="0" 
class="s8_388"
>回</text>

<text 
x="151" 
y="275" 
dx="0,0,0,0,0,0" 
class="s7_388"
>北京。你这个</text>

<text 
x="344" 
y="275" 
dx="0,0" 
class="s8_388"
>学期</text>

<text 
x="408" 
y="275" 
dx="0,0,0,0" 
class="s7_388"
>很忙吧？</text>

<text 
x="536" 
y="275" 
dx="0,0" 
class="s8_388"
>虽然</text>

<text 
x="601" 
y="275" 
dx="0" 
class="s7_388"
>我</text>

<text 
x="633" 
y="275" 
dx="0,0" 
class="s8_388"
>希望</text>

<text 
x="697" 
y="275" 
dx="0,0" 
class="s7_388"
>你每</text>

<text 
x="152" 
y="312" 
dx="0,0,0" 
class="s7_388"
>门课的</text>

<text 
x="248" 
y="312" 
dx="0,0" 
class="s8_388"
>成绩</text>

<text 
x="312" 
y="312" 
dx="0,0,0,0,0,0,0,0" 
class="s7_388"
>都很好，但是我更</text>

<text 
x="569" 
y="312" 
dx="0,0" 
class="s8_388"
>希望</text>

<text 
x="633" 
y="312" 
dx="0,0,0,0" 
class="s7_388"
>你每天的</text>

<text 
x="153" 
y="349" 
dx="0,0,0,0,0,0,0,0,0,0,0,0,0,0,0,0" 
class="s7_388"
>心情都很好。加油吧！我们北京见！</text>

<text 
x="156" 
y="400" 
dx="0,-0.2,0,0,0,0,0,-0.4,0,-0.3,0,0,0,0,0,0,0,-0.4,0,0,0,0,0,0,0,0,0,0,0,0,0,0,-0.4,0,0,0,0,0" 
class="s3_388"
>Mǎdīng, wǒmen xuéxiào míngtiān kāishǐ </text>

<text 
x="477" 
y="400" 
dx="0,-0.1,0,0,0,0,0,0" 
class="s9_388"
>fàng jià</text>

<text 
x="537" 
y="400" 
dx="0,-0.4,0,-1.4,0,0,0,0,0,0,0,0,0,0,0,0,0" 
class="s3_388"
>. Wǒ hòutiān huì </text>

<text 
x="670" 
y="400" 
dx="0,0,0,0" 
class="s9_388"
>huí </text>

<text 
x="156" 
y="433" 
dx="0,-0.2,0,0,0,0,0,0,-0.4,0,-0.2,0,0,0,0,-0.2,0,0" 
class="s3_388"
>Běijīng. Nǐ zhège </text>

<text 
x="292" 
y="433" 
dx="0,0,0,0,0" 
class="s9_388"
>xuéqī</text>

<text 
x="340" 
y="433" 
dx="0,0,0,0,0,0,0,0,0,0,0,0,0" 
class="s3_388"
>hěn máng ba? </text>

<text 
x="451" 
y="433" 
dx="0,0,0,0,-0.2,0" 
class="s9_388"
>Suīrán</text>

<text 
x="508" 
y="433" 
dx="0,-0.3,0" 
class="s3_388"
>wǒ </text>

<text 
x="535" 
y="433" 
dx="0,0,0,-0.2,0,0" 
class="s9_388"
>xīwàng</text>

<text 
x="597" 
y="433" 
dx="0,0,0,0,0,0" 
class="s3_388"
>nǐ měi</text>

<text 
x="156" 
y="466" 
dx="0,0,0,0,0,-0.4,0,0,0,0" 
class="s3_388"
>mén kè de </text>

<text 
x="239" 
y="466" 
dx="0,-0.1,0,0,0,0,0" 
class="s9_388"
>chéngjì</text>

<text 
x="301" 
y="466" 
dx="0,0,0,0,0,0,0,0,0,0,0,-0.8,-0.4,0,0,0,0,0,0,0,0,-0.3,0,0,0,0,0,0" 
class="s3_388"
>dōu hěn hǎo, dànshì wǒ gèng </text>

<text 
x="530" 
y="466" 
dx="0,0,0,-0.2,0,0" 
class="s9_388"
>xīwàng</text>

<text 
x="593" 
y="466" 
dx="0,0,0,0,0,0,0,0,0,0,0,0,0,0" 
class="s3_388"
>nǐ měi tiān de</text>

<text 
x="156" 
y="499" 
dx="0,0,0,0,0,0,0,0,0,0,0,0,0,0,0,0,0,0,0,-0.8,-0.4,0,-0.4,0,0,0,-0.3,0,0,0,0,0,0,0,-1.4,0,0,0,0,0,-0.2,0,0,0,0,0,0,0,0,0,0,0" 
class="s3_388"
>xīnqíng dōu hěn hǎo. Jiā yóu ba! Wǒmen Běijīng jiàn!</text>

<text 
x="695" 
y="586" 
dx="0" 
class="s9_388"
>T</text>

<text 
x="751" 
y="586" 
dx="0" 
class="s9_388"
>F</text>

<text 
x="140" 
y="621" 
dx="0" 
class="s9_388"
>1</text>

<text 
x="163" 
y="621" 
dx="0,0,0,0,0,0,0,0,0,0,0,0,0,-0.2,0,0,0,0,0,0,0,0,0,-0.2,0,0,0,0,0,0,0,-0.3,0,0,0,-0.3,0,-0.2,0,0,0,0,0,-0.4" 
class="s3_388"
>Daming will return to Beijing for vacation. </text>

<path d="M701.3,624c5.7,0,10.4,-4.7,10.4,-10.5C711.7,607.7,707,603,701.3,603c-5.8,0,-10.5,4.7,-10.5,10.5c0,5.8,4.7,10.5,10.5,10.5Z" class="g5_388" />
<path d="M756.3,624c5.7,0,10.4,-4.7,10.4,-10.5C766.7,607.7,762,603,756.3,603c-5.8,0,-10.5,4.7,-10.5,10.5c0,5.8,4.7,10.5,10.5,10.5Z" class="g5_388" />
<text 
x="140" 
y="656" 
dx="0" 
class="s9_388"
>2</text>

<text 
x="163" 
y="656" 
dx="0,0,0,0,0,0,0,0,0,0,0,0,0,0,0,0,0,0,0,-0.2,0,0,0,0,0,0,0,0,0,0,0,0,0,0,0,0,0,0,0,0,0,-0.2,0,0,0,-0.4" 
class="s3_388"
>Daming hopes that Martin will get good grades.</text>

<path d="M701.3,659.4c5.7,0,10.4,-4.7,10.4,-10.4c0,-5.8,-4.7,-10.5,-10.4,-10.5c-5.8,0,-10.5,4.7,-10.5,10.5c0,5.7,4.7,10.4,10.5,10.4Z" class="g5_388" />
<path d="M756.3,659.4c5.7,0,10.4,-4.7,10.4,-10.4c0,-5.8,-4.7,-10.5,-10.4,-10.5c-5.8,0,-10.5,4.7,-10.5,10.5c0,5.7,4.7,10.4,10.5,10.4Z" class="g5_388" />
<text 
x="140" 
y="692" 
dx="0" 
class="s9_388"
>3</text>

<text 
x="163" 
y="692" 
dx="0,0,0,0,0,0,0,0,0,0,0,0,0,0,0,0,0,0,0,0,0,0,0,0,0,0,0,0,0,-0.2,0,0,0,0,0,0,0,0,0,0,0,0,0,0,0,0,0,0,0,0,0,0,0,0,0,0,0,0,0,0,0,0" 
class="s3_388"
>Daming thinks getting good grades is the most important thing.</text>

<path d="M701.3,694.9c5.7,0,10.4,-4.7,10.4,-10.5c0,-5.8,-4.7,-10.5,-10.4,-10.5c-5.8,0,-10.5,4.7,-10.5,10.5c0,5.8,4.7,10.5,10.5,10.5Z" class="g5_388" />
<path d="M756.3,694.9c5.7,0,10.4,-4.7,10.4,-10.5c0,-5.8,-4.7,-10.5,-10.4,-10.5c-5.8,0,-10.5,4.7,-10.5,10.5c0,5.8,4.7,10.5,10.5,10.5Z" class="g5_388" />
<path d="M90.7,622.9l0,-60.5l330.4,0" class="g6_388" />
<path d="M421.1,565.2c1.5,0,2.7,-1.2,2.7,-2.8c0,-1.5,-1.2,-2.7,-2.7,-2.7c-1.5,0,-2.8,1.2,-2.8,2.7c0,1.6,1.3,2.8,2.8,2.8Z" class="g2_388" />
<path d="M106.1,576.3l223,0l0,-24.9l-223,0l0,24.9Z" class="g7_388" />
<text 
x="115" 
y="567" 
dx="0,0,0,0,0,0,0,0,0,0,0,0,0,0,0,0,0,0,0" 
class="s10_388"
>Comprehension Check</text>

<path d="M384.9,554.1c5.5,10.7,1.2,23.8,-9.5,29.3c-10.7,5.5,-23.9,1.2,-29.4,-9.5c-5.5,-10.7,-1.2,-23.9,9.5,-29.4c10.8,-5.5,23.9,-1.2,29.4,9.6Z" class="g7_388" />
<path d="M384.9,554.1c5.5,10.7,1.2,23.8,-9.5,29.3c-10.7,5.5,-23.9,1.2,-29.4,-9.5c-5.5,-10.7,-1.2,-23.9,9.5,-29.4c10.8,-5.5,23.9,-1.2,29.4,9.6Z" class="g3_388" />
<path d="M392.5,542.2c-1.1,-1,-3,-0.7,-4.1,0.6l-20.5,24.4c-1.1,1.3,-3,1.4,-4.2,0.2l-2.9,-2.9c-1.2,-1.2,-3.1,-1.3,-4.2,-0.2c-1.1,1.1,-1,3,0.3,4.2l7.2,7.1c1.2,1.2,3.1,1.1,4.2,-0.2l24.4,-29c1.1,-1.3,1,-3.2,-0.2,-4.2Z" class="g4_388" />
<path d="M392.5,542.2c-1.1,-1,-3,-0.7,-4.1,0.6l-20.5,24.4c-1.1,1.3,-3,1.4,-4.2,0.2l-2.9,-2.9c-1.2,-1.2,-3.1,-1.3,-4.2,-0.2c-1.1,1.1,-1,3,0.3,4.2l7.2,7.1c1.2,1.2,3.1,1.1,4.2,-0.2l24.4,-29c1.1,-1.3,1,-3.2,-0.2,-4.2Z" class="g8_388" />
<path d="M89.4,776.2l54.2,0l0,36.3l-54.2,0l0,-36.3Zm54.2,0l130.3,0l0,36.3l-130.3,0l0,-36.3Zm130.3,0l135.7,0l0,36.3l-135.7,0l0,-36.3Zm135.7,0l394,0l0,36.3l-394,0l0,-36.3Z" class="g9_388" />
<path d="M89.4,856.5l54.2,0" class="g10_388" />
<path d="M143.6,856.5l130.3,0" class="g10_388" />
<path d="M273.9,856.5l135.7,0" class="g10_388" />
<path d="M409.6,856.5l394,0" class="g10_388" />
<path d="M89.4,900.5l54.2,0" class="g10_388" />
<path d="M143.6,900.5l130.3,0" class="g10_388" />
<path d="M273.9,900.5l135.7,0" class="g10_388" />
<path d="M409.6,900.5l394,0" class="g10_388" />
<path d="M89.4,944.5l54.2,0" class="g10_388" />
<path d="M143.6,944.5l130.3,0" class="g10_388" />
<path d="M273.9,944.5l135.7,0" class="g10_388" />
<path d="M409.6,944.5l394,0" class="g10_388" />
<path d="M89.4,995.4l54.2,0" class="g10_388" />
<path d="M143.6,995.4l130.3,0" class="g10_388" />
<path d="M273.9,995.4l135.7,0" class="g10_388" />
<path d="M409.6,995.4l394,0" class="g10_388" />
<path d="M89.4,1039.4l54.2,0" class="g10_388" />
<path d="M143.6,1039.4l130.3,0" class="g10_388" />
<path d="M273.9,1039.4l135.7,0" class="g10_388" />
<path d="M409.6,1039.4l394,0" class="g10_388" />
<path d="M89.4,1083.4l54.2,0" class="g11_388" />
<path d="M143.6,1083.4l130.3,0" class="g11_388" />
<path d="M273.9,1083.4l135.7,0" class="g11_388" />
<path d="M409.6,1083.4l394,0" class="g11_388" />
<text 
x="161" 
y="801" 
dx="0,-0.7,0,0" 
class="s1_388"
>Word</text>

<text 
x="292" 
y="801" 
dx="0,0,0,0,0,0" 
class="s1_388"
>Pinyin</text>

<text 
x="428" 
y="801" 
dx="0,0,0,0,0,0,0" 
class="s1_388"
>Meaning</text>

<text 
x="107" 
y="838" 
dx="0,0" 
class="s11_388"
>14</text>

<text 
x="159" 
y="841" 
dx="0,0" 
class="s12_388"
>放假</text>

<text 
x="292" 
y="838" 
dx="0,-0.2,0,0,0,0,0,0" 
class="s3_388"
>fàng jià</text>

<text 
x="428" 
y="836" 
dx="0,0,0,0,0,-0.4,-0.3,0,0,0,0,-0.3,0,-0.2,0,0,0,0,0,0,0,0,0,0,0,0,0,0,0,-0.4,0,0,-0.4,0,0,0,0,0,-0.4,-0.3,0,0,0,0,0,0,0,0,0" 
class="s3_388"
>to have a vacation (or holiday), to have time off</text>

<text 
x="107" 
y="882" 
dx="0,0" 
class="s11_388"
>15</text>

<text 
x="157" 
y="885" 
dx="0" 
class="s12_388"
>回</text>

<text 
x="292" 
y="882" 
dx="0,0,0" 
class="s3_388"
>huí</text>

<text 
x="428" 
y="882" 
dx="0,0,0,0,-0.2,0,0,0,0,0,-0.4,0,0,0,0,0,0,0,0,0,0" 
class="s3_388"
>to return, to go back</text>

<text 
x="107" 
y="926" 
dx="0,0" 
class="s11_388"
>16</text>

<text 
x="158" 
y="929" 
dx="0,3.4" 
class="s12_388"
>学期</text>

<text 
x="292" 
y="926" 
dx="0,0,0,0,0" 
class="s3_388"
>xuéqī</text>

<text 
x="428" 
y="926" 
dx="0,0,0,0,0,0,0,0,0,0,0,0,-0.4,0,0,0,0,0,0,0,0" 
class="s3_388"
>school term, semester</text>

<text 
x="107" 
y="970" 
dx="0,0" 
class="s11_388"
>17</text>

<text 
x="155" 
y="976" 
dx="0,0,-2.3" 
class="s12_388"
>虽 然</text>

<text 
x="292" 
y="970" 
dx="0,0,0,0,-0.2,0" 
class="s3_388"
>suīrán</text>

<text 
x="428" 
y="970" 
dx="0,0,0,0,0,0,0,0" 
class="s3_388"
>although</text>

<text 
x="107" 
y="1020" 
dx="0,0" 
class="s11_388"
>18</text>

<text 
x="159" 
y="1024" 
dx="0,0" 
class="s12_388"
>希望</text>

<text 
x="292" 
y="1020" 
dx="0,0,0,-0.3,0,0" 
class="s3_388"
>xīwàng</text>

<text 
x="428" 
y="1020" 
dx="0,0,0,0,0,0,0,-0.6,-0.4,0,0,0,0,0,0,0,0,0,0,0,0,0" 
class="s3_388"
>to hope, to wish; hope</text>

<text 
x="107" 
y="1064" 
dx="0,0" 
class="s11_388"
>19</text>

<text 
x="157" 
y="1068" 
dx="0,0" 
class="s12_388"
>成绩</text>

<text 
x="292" 
y="1064" 
dx="0,0,0,0,0,0,0" 
class="s3_388"
>chéngjì</text>

<text 
x="428" 
y="1064" 
dx="0,0,-0.2,0,0,0,-0.4,-0.4,0,0,-0.3,0,-0.2,-0.6,-0.4,0,0,0,0,0,0,-0.3,0,0,0,0" 
class="s3_388"
>grades, score, achievement</text>

<path d="M204.2,759.3l601.9,0" class="g12_388" />
<path d="M204.2,762.4c1.7,0,3,-1.4,3,-3.1c0,-1.6,-1.3,-3,-3,-3c-1.7,0,-3.1,1.4,-3.1,3c0,1.7,1.4,3.1,3.1,3.1Z" class="g2_388" />
<text 
x="87" 
y="763" 
dx="0,-1.2,0,0,0,0,0,0,0,0" 
class="s10_388"
>Vocabulary</text>



<!-- Any embedded fonts defined here -->
<style type="text/css" ><![CDATA[

@font-face {
	font-family: STKaitiSC-Bold_cmk;
	src: url("fonts/STKaitiSC-Bold_cmk.woff") format("woff");
}

@font-face {
	font-family: Alegreya-Regular_dci;
	src: url("fonts/Alegreya-Regular_dci.woff") format("woff");
}

@font-face {
	font-family: ProximaNova-Semibold_dcl;
	src: url("fonts/ProximaNova-Semibold_dcl.woff") format("woff");
}

@font-face {
	font-family: STKaiti_c-m;
	src: url("fonts/STKaiti_c-m.woff") format("woff");
}

@font-face {
	font-family: ProximaNova-Extrabld_dcj;
	src: url("fonts/ProximaNova-Extrabld_dcj.woff") format("woff");
}

@font-face {
	font-family: STKaitiSC-Regular_cof;
	src: url("fonts/STKaitiSC-Regular_cof.woff") format("woff");
}

@font-face {
	font-family: ProximaNova-Bold_dcf;
	src: url("fonts/ProximaNova-Bold_dcf.woff") format("woff");
}

@font-face {
	font-family: Alegreya-Bold_dcn;
	src: url("fonts/Alegreya-Bold_dcn.woff") format("woff");
}

]]></style>

</svg>
