<?xml version="1.0" encoding="UTF-8" standalone="no"?>
<!DOCTYPE svg PUBLIC "-//W3C//DTD SVG 1.1//EN"
"http://www.w3.org/Graphics/SVG/1.1/DTD/svg11.dtd">


<!-- Page 32 -->
<svg x="0" y="0" width="921" height="1196" viewBox="0 0 921 1196" version="1.1" xmlns="http://www.w3.org/2000/svg" xmlns:xlink="http://www.w3.org/1999/xlink"
style="display: block;margin-left: auto;margin-right: auto;">
<defs>
<clipPath id="c0_32"><path d="M0,1196.3L0,0L921.3,0l0,1196.3Z" /></clipPath>

<style type="text/css"><![CDATA[

.g1_32{
fill: none;
stroke: #CFA729;
stroke-width: 1.5277778;
stroke-linecap: butt;
stroke-linejoin: miter;
stroke-miterlimit: 4;
}
.g2_32{
fill: #CFA729;
}
.g3_32{
fill: #D3A60E;
}
.g4_32{
fill: #F3C010;
}
.g5_32{
fill: #FFFFFF;
}
.g6_32{
fill: none;
stroke: #F1BE19;
stroke-width: 1.5277778;
stroke-linecap: butt;
stroke-linejoin: miter;
stroke-miterlimit: 4;
}
.g7_32{
fill: #F1BE19;
}

.s1_32{
font-size: 19.86px;
font-family: Alegreya-Bold_cny;
fill: #231F20;
}
.s2_32{
font-size: 24.44px;
font-family: ProximaNova-Extrabld_coa;
fill: #F3C010;
}
.s3_32{
font-size: 22.92px;
font-family: ProximaNova-Extrabld_coa;
fill: #231F20;
}
.s4_32{
font-size: 27.50px;
font-family: Alegreya-Black_co3;
fill: #040504;
}
.s5_32{
font-size: 33.61px;
font-family: Alegreya-Black_co3;
fill: #F1BE19;
}
.s6_32{
font-size: 19.10px;
font-family: Alegreya-Regular_cnx;
fill: #231F20;
}
.s7_32{
font-size: 16.81px;
font-family: ProximaNova-Regular_co5;
fill: #231F20;
}
.s8_32{
font-size: 16.81px;
font-family: ProximaNova-Extrabld_coa;
fill: #F3C010;
}
.s9_32{
font-size: 13.75px;
font-family: Alegreya-Bold_cny;
fill: #231F20;
}
.s10_32{
font-size: 13.75px;
font-family: Alegreya-Regular_cnx;
fill: #231F20;
}
.s11_32{
font-size: 18.33px;
font-family: ProximaNova-Bold_cnt;
fill: #231F20;
}

]]></style>

</defs>
<path d="M0,0
L0,1196
L921,1196
L921,0 Z " 
fill="#FFFFFF" stroke="none" />
<path d="M163.4,894.8l399.8,0" class="g1_32" />
<path d="M563.2,900.3c3,0,5.5,-2.4,5.5,-5.5c0,-3,-2.5,-5.5,-5.5,-5.5c-3,0,-5.5,2.5,-5.5,5.5c0,3.1,2.5,5.5,5.5,5.5Z" class="g2_32" />
<g clip-path="url(#c0_32)">
<path d="M-0.7,929.1l0,-68.5l471,0c11.4,0,20.6,9.2,20.6,20.6l0,47.9Z" class="g3_32" />
<path d="M-0.7,1210l935.7,0l0,-281.8l-935.7,0l0,281.8Z" class="g4_32" />
</g>
<text 
x="205" 
y="991" 
dx="0,0,0,0,0,0,0,0,0,0,-0.3,0,0,0,0,0,-0.3,0,0,0,0,0,0,0,0,0.1,0,0,0,0,0,0,0,-0.2,0,-0.2,0,0,-0.3,0,0,0,-0.2,0,0,0,0,0,0,0,0,0,0,0,0,0,0,-0.1,0,0" 
class="s1_32"
>What did you know about China before you read this passage? </text>

<text 
x="205" 
y="1014" 
dx="0,-0.4,-0.3,0,0,0,0,0,0,-0.3,0,0,0,0,0,0,0,-0.2,0,0,0,0,0,0,0,0,0,0,0,0,0,0,-0.3,0,0,0,0,0.3,0,0,-0.1,0,0,0,-0.1,0,0,0" 
class="s1_32"
>How has your impression of the country changed? </text>

<text 
x="206" 
y="1051" 
dx="0,0.1,0,0,0,0,0,0,0,0,0,0,0,0,0,0,0,0.1,0,0,0,0,0,0,0,0,0,0,0,0,0,0,0,0,-0.3,0,0,0,0,0,0,0,-0.2,-0.1,0,0,0,0,-0.3,-0.1,0,0,0,0,0,0,0,0,0,0,0,0,0,0,0,0,0,0,0,0,0,-0.3,0,0,0,0,0.3,-1.3,-0.4" 
class="s1_32"
>The majority of Chinese people live in a relatively small part of the country. </text>

<text 
x="204" 
y="1074" 
dx="0,-0.4,-0.2,0,0,0,0,0,0,0,0,0,0,-0.3,0,0,0,0,0,0,0,-0.2,0,0,0,0,0,0,-0.2,0,0,0,0,-0.3,0,0,0,0,-0.3,0,0,0,0,0.3,0,0,0,0,0,0,0,0,0,0,0,0,0,-0.3,0,0,0,0,0,0,-0.3,0,0,0,0,0,0" 
class="s1_32"
>Are people evenly spread across your country or state? Why or why not? </text>

<path d="M164,1012c9.7,0,17.6,-7.9,17.6,-17.7c0,-9.8,-7.9,-17.7,-17.6,-17.7c-9.8,0,-17.7,7.9,-17.7,17.7c0,9.8,7.9,17.7,17.7,17.7Z" class="g5_32" />
<path d="M164,1072.8c9.7,0,17.6,-7.9,17.6,-17.7c0,-9.7,-7.9,-17.6,-17.6,-17.6c-9.8,0,-17.7,7.9,-17.7,17.6c0,9.8,7.9,17.7,17.7,17.7Z" class="g5_32" />
<path d="M164,1133.7c9.7,0,17.6,-8,17.6,-17.7c0,-9.8,-7.9,-17.7,-17.6,-17.7c-9.8,0,-17.7,7.9,-17.7,17.7c0,9.7,7.9,17.7,17.7,17.7Z" class="g5_32" />
<text 
x="157" 
y="1001" 
dx="0" 
class="s2_32"
>1</text>

<text 
x="155" 
y="1062" 
dx="0" 
class="s2_32"
>2</text>

<text 
x="156" 
y="1123" 
dx="0" 
class="s2_32"
>3</text>

<text 
x="205" 
y="1112" 
dx="0,0,0,0,0,0,0,0,-0.2,0,0,0,0,0,0,0,0,0,-0.3,0,0,0,0,0,-0.3,0,0,0,0,0,0,-0.2,0,0,0,0,0,0,0,0,0,0,0,0,0,0,0,0,0,0,0,-0.2,0,0,0,0,0,0,0,0,0,0,0,0,0,0,0,0,0,0,0" 
class="s1_32"
>What information would you share with people who are planning to visit </text>

<text 
x="205" 
y="1135" 
dx="0,-0.3,0,0,0,0,0,-0.3,0,0,0,0,0,0,0,0,0,0,0,0,0,0,0,0,0,0,0,0,-0.2,0,0,0,0,0,0,0,-0.3,0,0,0,0,0,-0.3,0,0,0,-0.3,0,0,0,0,0,0,0,0,0,-0.3,0,0,0,0,0,0,0" 
class="s1_32"
>your town or city? What impression would you want to give them? </text>

<text 
x="143" 
y="889" 
dx="0,0.1,0.1,0.1,0.1,0.1,0.1,0.1,0.1,0.1,0.1,0.1,0.1,0.1,0.1" 
class="s3_32"
>REFLECT ON THE </text>

<text 
x="143" 
y="914" 
dx="0,0.1,0.1,0.1,0.1,0.1,0.1,0.1,0.1,0.1,0.1,0.1,0.1,0.1,0.1,0.1,0.1,0.1,0.1" 
class="s3_32"
>ESSENTIAL QUESTION </text>

<text 
x="598" 
y="878" 
dx="0,-0.6,-0.3,0,0,0,0,0,-0.3,0,0,0,0,0,0" 
class="s4_32"
>How do we form </text>

<text 
x="598" 
y="910" 
dx="0,0,0,0,0,0,0,0,0,0,-0.3,0,0,0,0,0,0,0" 
class="s4_32"
>first impressions?</text>

<image preserveAspectRatio="none" x="201" y="290" width="31" height="41" xlink:href="32/img/1.png" />
<image preserveAspectRatio="none" x="232" y="290" width="31" height="41" xlink:href="32/img/2.png" />
<image preserveAspectRatio="none" x="201" y="331" width="31" height="41" xlink:href="32/img/3.png" />
<image preserveAspectRatio="none" x="232" y="331" width="31" height="41" xlink:href="32/img/4.png" />
<text 
x="150" 
y="95" 
dx="0,0.8,0.8,0.8,0.8,0.8,0.8,0.8,0.2,0.8,0.8,0.8,0.8,0.8" 
class="s5_32"
>By the Numbers</text>

<text 
x="149" 
y="142" 
dx="0,-0.4,0,0,0,0,0,0,0,0,0,0,0,0,0,0,0,0,0,0,0,0,0,-0.2,0,0,0,0,0,0,0,0,0,0,0,0,-0.4,0,0,0,0,0,0,0,0,0,0,0,0,0,0,0,0,0,0,0,0,0,0,0,0,0,0,0,0,0,-0.4,0,0,0,0,0,0,0,0,-0.3,0,0,0,0,0.3,-1.3,-0.4" 
class="s6_32"
>Although Chinese culture is ancient, China is also an influential, modern country. </text>

<text 
x="149" 
y="168" 
dx="0,0,0,0,0,0,0,0,0,0,0,0,0,0,0,0,0,0,0,0,0,0,0,0,0,0,0,0,-0.3,0,0,0,0,0,0,0,0,0,0,0,0,0,0,0,-0.3,0,0,0,0,0,0,0,0,0,0,0,0,0,0,0,0,0,0,0,0,0,0,0,0,0,0,0,0,0,0,0,0,0,0,0,0" 
class="s6_32"
>It has one of the largest economies in the world and has a permanent seat on the </text>

<text 
x="149" 
y="193" 
dx="0,-0.4,0,0,0,0,0,0,-0.4,0,0,0,0,0,0,0,-0.4,0,0,0,0,0,0,0,0,-0.4,0,0,0,0,0,0,-0.4,0,0,0,0,0,0,0,0,0,0,0,0,0,0,0,0,0,0,0,0,0,0,0,0,0,0,0,0,0,0,0,0,0,-0.2,0,0,0,0,0,0,-0.3,0,0,0,0,0,0" 
class="s6_32"
>United Nations Security Council. Due to its large population and rapid economic </text>

<text 
x="150" 
y="219" 
dx="0,0,-0.2,-0.3,0,0,0,-0.4,0,0,0,0,0,0,0,0,0,0,0,0,-0.2,0,0,0,0,0,0,0,0,0,0,0,0,0,0,0,0,0,0,-0.3,0,0,0,0,0,0,0,0,0,0,-0.4,0,0,-0.2,0,0,-0.2,0,0,0,0,0,-0.4,-0.4,0,0,0,0,0,0,0,0" 
class="s6_32"
>growth, China also ranks first in the world in many categories, such as:</text>

<path d="M404.9,87.1l416,0c11.4,0,20.6,9.2,20.6,20.6l0,536.9c0,11.4,-9.2,20.6,-20.6,20.6l-88.7,0" class="g6_32" />
<path d="M732.2,670.7c3,0,5.5,-2.4,5.5,-5.5c0,-3,-2.5,-5.5,-5.5,-5.5c-3.1,0,-5.5,2.5,-5.5,5.5c0,3.1,2.4,5.5,5.5,5.5Z" class="g7_32" />
<path d="M91.7,87l0,576.7" class="g6_32" />
<path d="M90.9,87.1l45,0" class="g6_32" />
<path d="M90.9,663.6l118.3,0" class="g6_32" />
<text 
x="512" 
y="648" 
dx="0,0,0,0,0,0,0,0,0,0,0,0,0,0,0,0,0" 
class="s7_32"
>High-speed train </text>

<text 
x="505" 
y="670" 
dx="0,0,0,0,0,0,0" 
class="s7_32"
>track: </text>

<text 
x="549" 
y="670" 
dx="0,0,0,-1.3,0,0" 
class="s8_32"
>15,700</text>

<text 
x="605" 
y="670" 
dx="0,0,0,0,0" 
class="s7_32"
>miles</text>

<text 
x="543" 
y="691" 
dx="0,0,0,0,0,0,0,0,0,0" 
class="s7_32"
>(in 2017).</text>

<image preserveAspectRatio="none" x="513" y="535" width="123" height="82" xlink:href="32/img/5.png" />
<image preserveAspectRatio="none" x="304" y="529" width="96" height="95" xlink:href="32/img/6.png" />
<text 
x="305" 
y="648" 
dx="0,0,0,0,0,0,0,0,0,0,0,0,0" 
class="s7_32"
>Borders with </text>

<text 
x="283" 
y="670" 
dx="0,0,0,0,0,0,0,0,0,0,0,0,0,0,0,0" 
class="s7_32"
>other countries:</text>

<text 
x="402" 
y="670" 
dx="0,0" 
class="s8_32"
>14</text>

<text 
x="289" 
y="691" 
dx="0,0,0,0,0,0,0,0,0,0,0,0,0,0,0,0,0,0,0,0" 
class="s7_32"
>(tied with Russia). </text>

<image preserveAspectRatio="none" x="651" y="282" width="85" height="85" xlink:href="32/img/7.png" />
<text 
x="652" 
y="399" 
dx="0,0,0,0,0,0,0,0,0,0,0" 
class="s7_32"
>Cell phone </text>

<text 
x="643" 
y="421" 
dx="0,0,0,0,0,0,0,0,0,0,0,0,0,0,0" 
class="s7_32"
>subscriptions: </text>

<text 
x="637" 
y="442" 
dx="0,0,0,0,0,0,-0.3,0,0,-1.5,-0.3,0,0" 
class="s8_32"
>1,474,097,000</text>

<text 
x="662" 
y="463" 
dx="0,0,0,0,0,0,0,0,0,0" 
class="s7_32"
>(in 2017).</text>

<image preserveAspectRatio="none" x="433" y="282" width="59" height="92" xlink:href="32/img/8.png" />
<text 
x="390" 
y="399" 
dx="0,0,0,0,0,0,0,0,0,0,0,0,0,0,0,0,0,0,0,0,0" 
class="s7_32"
>Electricity consumed:</text>

<text 
x="400" 
y="421" 
dx="0,0,-0.3,0,0,0,0,0,0,0,0,0,0,0" 
class="s8_32"
>5.664 trillion</text>

<text 
x="504" 
y="421" 
dx="0,-0.4,0,0" 
class="s7_32"
>kWh </text>

<text 
x="437" 
y="442" 
dx="0,0,0,0,0,0,0,0,0,0" 
class="s7_32"
>(in 2016).</text>

<text 
x="189" 
y="399" 
dx="0,0,0,0,0,0,0,0,0,0,0" 
class="s7_32"
>Demand for </text>

<text 
x="174" 
y="421" 
dx="0,0,0,0,0,0,0,0,0,0,0,0,0,0,0,0,0" 
class="s7_32"
>instant noodles: </text>

<text 
x="168" 
y="442" 
dx="0,0,0,0,0,0,-0.3,-0.3,0,0,-0.3,-0.3,0,0" 
class="s8_32"
>38,970,000,000</text>

<text 
x="168" 
y="464" 
dx="0,0,0,0,0,0,0,0,0,0,0,0,0,0,0,0,0,0,0" 
class="s7_32"
>servings (in 2017).</text>

<text 
x="253" 
y="753" 
dx="0,-0.2,0,0,-0.1,-0.2,0,0,0" 
class="s9_32"
>Sources: </text>

<text 
x="304" 
y="753" 
dx="0,-1,0,0,0,0,0,-0.1,0,0,0,0,0,0,0,-0.3,0,0,0,0,0,0,0,0,0,0,0,0,0,0,0,0,0,-0.3,0,0,0,0,0,0,0,0,-0.1,0,0,-1,0,0,0,0,0,-0.6,0,0,0,0,0,0,0,-0.3,0,0,0,0,0,0" 
class="s10_32"
>World Instant Noodle Association, 2018; CIA World Factbook, 2018; </text>

<text 
x="349" 
y="770" 
dx="0,-0.3,0,0,0,0,0,0,0,0,0,0,-0.1,0,0,0,0,0,0,0,0,0,0,0,0,0,0,0,0,-0.3,-0.3,0,0,0,0,0,0,-0.3,0,0,0,0,0" 
class="s10_32"
>National Bureau of Statistics, China, 2017.</text>

<text 
x="866" 
y="1149" 
dx="0" 
class="s11_32"
>9</text>



<!-- Any embedded fonts defined here -->
<style type="text/css" ><![CDATA[

@font-face {
	font-family: ProximaNova-Extrabld_coa;
	src: url("fonts/ProximaNova-Extrabld_coa.woff") format("woff");
}

@font-face {
	font-family: Alegreya-Regular_cnx;
	src: url("fonts/Alegreya-Regular_cnx.woff") format("woff");
}

@font-face {
	font-family: Alegreya-Black_co3;
	src: url("fonts/Alegreya-Black_co3.woff") format("woff");
}

@font-face {
	font-family: ProximaNova-Regular_co5;
	src: url("fonts/ProximaNova-Regular_co5.woff") format("woff");
}

@font-face {
	font-family: Alegreya-Bold_cny;
	src: url("fonts/Alegreya-Bold_cny.woff") format("woff");
}

@font-face {
	font-family: ProximaNova-Bold_cnt;
	src: url("fonts/ProximaNova-Bold_cnt.woff") format("woff");
}

]]></style>

</svg>
