<?xml version="1.0" encoding="UTF-8" standalone="no"?>
<!DOCTYPE svg PUBLIC "-//W3C//DTD SVG 1.1//EN"
"http://www.w3.org/Graphics/SVG/1.1/DTD/svg11.dtd">


<!-- Page 98 -->
<svg x="0" y="0" width="921" height="1196" viewBox="0 0 921 1196" version="1.1" xmlns="http://www.w3.org/2000/svg" xmlns:xlink="http://www.w3.org/1999/xlink"
style="display: block;margin-left: auto;margin-right: auto;">
<defs>
<clipPath id="c0_98"><path d="M646.3,673l0,-109.2l113.8,0l0,109.2Z" /></clipPath>

<style type="text/css"><![CDATA[

.g1_98{
fill: none;
stroke: #3986C6;
stroke-width: 1.6194444;
stroke-linecap: butt;
stroke-linejoin: miter;
stroke-miterlimit: 4;
}
.g2_98{
fill: #3986C6;
}
.g3_98{
fill: none;
stroke: #3986C6;
stroke-width: 1.5277778;
stroke-linecap: butt;
stroke-linejoin: miter;
stroke-miterlimit: 4;
}
.g4_98{
fill: none;
stroke: #3986C6;
stroke-width: 1.1458334;
stroke-linecap: butt;
stroke-linejoin: miter;
}
.g5_98{
fill: #ACBF3B;
}
.g6_98{
fill: none;
stroke: #3A85C6;
stroke-width: 1.5277778;
stroke-linecap: butt;
stroke-linejoin: miter;
}
.g7_98{
fill: #3A85C6;
}
.g8_98{
fill: #FFFFFF;
}

.s1_98{
font-size: 12.99px;
font-family: ProximaNova-Semibold_b50;
fill: #231F20;
}
.s2_98{
font-size: 18.33px;
font-family: ProximaNova-Bold_cs-;
fill: #231F20;
}
.s3_98{
font-size: 19.10px;
font-family: ProximaNova-Bold_cs-;
fill: #3986C6;
}
.s4_98{
font-size: 19.10px;
font-family: Alegreya-Regular_csr;
fill: #231F20;
}
.s5_98{
font-size: 17.57px;
font-family: Alegreya-Bold_csx;
fill: #3986C6;
}
.s6_98{
font-size: 25.97px;
font-family: ProximaNova-Extrabld_cst;
fill: #FFFFFF;
}
.s7_98{
font-size: 25.97px;
font-family: ProximaNova-Bold_cs-;
fill: #231F20;
}
.s8_98{
font-size: 13.75px;
font-family: ProximaNova-Extrabld_cst;
fill: #FFFFFF;
}
.s9_98{
font-size: 21.39px;
font-family: Alegreya-ExtraBold_ct1;
fill: #3986C6;
}
.s10_98{
font-size: 24.44px;
font-family: STKaiti-SC-Bold_cqx;
fill: #231F20;
}
.s11_98{
font-size: 13.75px;
font-family: ProximaNova-Regular_cua;
fill: #231F20;
}
.s12_98{
font-size: 18.33px;
font-family: ProximaNova-Regular_cua;
fill: #231F20;
}

]]></style>

</defs>
<path d="M0,0
L0,1196
L921,1196
L921,0 Z " 
fill="#FFFFFF" stroke="none" />
<text 
transform="matrix(0, 1, -1, 0, 867, 878)"
dx="0,0,0,0,0,0,0,0,0,0" 
class="s1_98"
>Chapter 3 </text>

<text 
transform="matrix(0, 1, -1, 0, 867, 942)"
dx="0,0" 
class="s1_98"
>• </text>

<text 
transform="matrix(0, 1, -1, 0, 867, 954)"
dx="0,-1.4,0,0,0,0,0,0,0,0,0,0,0,0,0,-1.6,0,0,0,0,0,0" 
class="s1_98"
>Tell Me About Yourself</text>

<text 
x="861" 
y="1149" 
dx="0,0" 
class="s2_98"
>75</text>

<path d="M872.3,1089.3l0,38.7" class="g1_98" />
<path d="M872.3,1125.4c-1.5,0,-2.6,1.1,-2.6,2.6c0,1.4,1.1,2.6,2.6,2.6c1.4,0,2.6,-1.2,2.6,-2.6c0,-1.5,-1.2,-2.6,-2.6,-2.6Z" class="g2_98" />
<path d="M709,672.6L709,957" class="g3_98" />
<path d="M709,962.5c3,0,5.5,-2.5,5.5,-5.5c0,-3,-2.5,-5.5,-5.5,-5.5c-3.1,0,-5.5,2.5,-5.5,5.5c0,3,2.4,5.5,5.5,5.5Z" class="g2_98" />
<path d="M106.8,117.2C96.6,117.2,88.4,109,88.4,98.9l0,-20.2l23.2,0c10.1,0,18.3,8.2,18.3,18.3l0,20.2Z" class="g2_98" />
<text 
x="91" 
y="161" 
dx="0,0,0,0,0,0,0,0,0,0,0,0,-0.4,0,0,0" 
class="s3_98"
>The Animal Party</text>

<text 
x="91" 
y="189" 
dx="0,-0.8,0,0,0,0,0,0,0,-0.3,0,0,0,0,0,0,0,0,0,0,0,0,0,0,0,0,-0.2,0,0,0,0,0,0,0,0,0,0,0,0,0,0,0,0,0,0,0,0,0,0,0,0,0,0,0,0,-1.3,-0.4,0,-0.4,0,0,0,-0.3,0,0,0,0,0,0,0,0,0,0,0,0,0,0,0,0,0,0,0,0,0,0,0,0" 
class="s4_98"
>You and your classmates are planning a pet-themed party. All your classmates and their </text>

<text 
x="93" 
y="215" 
dx="0,0,0,0,0,0,0,0,0,0,0,-0.2,0,0,0,-0.4,0,0,0,0,0,-0.4,0,-1.1,0,0,0,0,0,0,0,0,0,0,0,0,0,0,0,-1.3,-0.4,0,-0.3,0,0,0,0,0,0,0,0,0,0,0,0,0,0,0,0,0,0,0,0,0,0,0,0,0,0,0,0,0,0,0,-0.3,0,0.3,-0.3,0,0,0,0,0,0,-0.4,0,-0.4,-0.4" 
class="s4_98"
>siblings are invited. To plan the party, you need to find out what pets everyone likes. </text>

<text 
x="93" 
y="254" 
dx="0,0,0,0,0,0,0,0" 
class="s5_98"
>Step ±: </text>

<text 
x="142" 
y="254" 
dx="0,0,0,0,0,0,0,0,0,0,0,0,0,0,0,0,0,0,0,0,-0.3,0,0,0,0,0,-0.4,0,0,0,0,0,0,0,0,0,0,0,-0.4,0,0,0,0,0,0,0,0,0,0,0,0,0,0,0,0,0,0,0,0,0,0,0,0,0,-0.3,0,0,0,0,0,-0.2,0,0,-0.8,-0.4,0,-0.2,0,0,0,0,0,0,0,0" 
class="s4_98"
>Discuss which pets you like and dislike with the classmates in your group. Then pick </text>

<text 
x="143" 
y="280" 
dx="0,0,0,0,0,0,0,0,0,0,0,0,-0.2,0,0,0,0,0,0,0,0,0,0,0,0,0,-0.3,0,0,0,0,0,0,0,0,0,-0.4,-0.6,-0.4" 
class="s4_98"
>at least three pets that you all like. </text>

<text 
x="93" 
y="320" 
dx="0,0,0,0,0,0,0,0" 
class="s5_98"
>Step ²: </text>

<text 
x="145" 
y="320" 
dx="0,-0.2,0,0,0,0.3,0,0,0,0,0,-0.3,0,0,0,0,0,0,0,0,0,0,0,0,0,0,0,0,0,0,0,0,0,0,0,0,0,0,0,0,0,0,0,0,0,0,0,0,0,0,0,0,0,0,0,0,0,0,0,0,0,0,0,0,0,0,0,0,-0.4,0,0,0,0,0,0,0,0,0,0,0,0,0,0,0,0,-0.3,0,0,0" 
class="s4_98"
>Interview your classmates to find out if they and their siblings like the pets that your </text>

<text 
x="145" 
y="346" 
dx="0,0,-0.2,0,0,0,0,0,0,0,0,0,0,0,0,0,0,0,0,0,0,0,-0.4,0,-0.6,0,0,0,0,0,0,0,0,0,0,0,0,0,0,0,0,-0.3,0,0,0,0,-0.4,0,0,0,0,0,0,0,0,0,0,0,-0.4,0,0,0,0,0,0,0,0,0,0,0,0,0,0,0,0,0,0" 
class="s4_98"
>group chose in Step 1. Keep a tally of how many people like each type of pet.</text>

<text 
x="93" 
y="385" 
dx="0,0,0,0,0,0,0,0" 
class="s5_98"
>Step 3: </text>

<text 
x="144" 
y="386" 
dx="0,-0.4,-0.2,0,0,0,0,0,0,0,0,0,0,0,0,0,0,-0.4,0,0,0,0,0,0,0,0,0,0,0,0,0,0,0,0,-0.3,0,0,0,0,0,0,0,-0.3,0,0,0,-0.3,0,0,0,0,-0.4,0,0,0,0,0,0,0,0,0,0,0,-0.4,0,0,0,0,0,0,0,0,0,0,0,-0.4,0,0,0,0,0,0" 
class="s4_98"
>Create charts like the sample below to show how many people like and dislike each </text>

<text 
x="144" 
y="412" 
dx="0,0,0,0,0,0,0,0,0,0,0,0,-0.4,0,-0.2,0,0,0,0,0,0,0,0,0,0,0,0,0,0,0,0,0,0,0,0,0,0,0,0,0,0,0,0,-0.3,0,0,0,0,0,0,0,0,0,0,0,0,0,0,0,0,-0.3,0,0,0,0,0,0,0,0,-1.3" 
class="s4_98"
>type of pet. Pick the most popular animal for the theme of your party.</text>

<path d="M99,79.3l350.2,0" class="g4_98" />
<path d="M112.8,116.8l336.4,0" class="g4_98" />
<text 
x="99" 
y="105" 
dx="0" 
class="s6_98"
>C</text>

<text 
x="140" 
y="105" 
dx="0,0,0,0,0,0,0,0,0,0,0,0,0,0" 
class="s7_98"
>Final Project </text>

<path d="M311.6,109.5c-6.1,0,-11.2,-5,-11.2,-11.2l0,-11.2l138.4,0c6.2,0,11.2,5,11.2,11.2l0,11.2Z" class="g5_98" />
<text 
x="317" 
y="101" 
dx="0,0,0,0,0,0,0,-0.9,-0.9,0,0,0,0,0" 
class="s8_98"
>Pº¶µ¶¸TATI·¸A»</text>

<text 
x="258" 
y="541" 
dx="0,-0.3,0,0,0,0,0,0,0,0,0,-0.6,0,0,0,0,0,0,0.1,0,0,0,0,0,-0.3,0,0,0,0,0,-0.2,0,0,0,0,-0.3,0,0,-0.2,0,0" 
class="s9_98"
>Number of People Who Like or Dislike Dogs</text>

<text 
x="180" 
y="629" 
dx="0,0,0,0" 
class="s10_98"
>很不喜欢</text>

<text 
x="205" 
y="702" 
dx="0,0,0" 
class="s10_98"
>不喜欢</text>

<text 
x="180" 
y="776" 
dx="0,0,0,0" 
class="s10_98"
>不太喜欢</text>

<text 
x="229" 
y="849" 
dx="0,0" 
class="s10_98"
>喜欢</text>

<text 
x="205" 
y="922" 
dx="0,0,0" 
class="s10_98"
>很喜欢</text>

<path d="M288.8,569l0,398.2" class="g3_98" />
<path d="M709.5,956.9l-432.3,0" class="g3_98" />
<path d="M289.6,644.5l67.9,0l0,-47.1l-67.9,0l0,47.1Z" class="g2_98" />
<path d="M289.7,717.8l111.4,0l0,-47.2l-111.4,0l0,47.2Z" class="g2_98" />
<path d="M289.7,790.6l90.9,0l0,-47.2l-90.9,0l0,47.2Z" class="g2_98" />
<path d="M289.5,864.1l190.9,0l0,-47.2l-190.9,0l0,47.2Z" class="g2_98" />
<path d="M289.6,935.4l310.3,0l0,-47.2l-310.3,0l0,47.2Z" class="g2_98" />
<path d="M324.5,952.9l0,9.6" class="g3_98" />
<path d="M363.6,952.9l0,9.6" class="g3_98" />
<path d="M401.7,952.9l0,9.6" class="g3_98" />
<path d="M441.8,952.9l0,9.6" class="g3_98" />
<path d="M481.3,952.9l0,9.6" class="g3_98" />
<path d="M519.6,952.9l0,9.6" class="g3_98" />
<path d="M559.2,952.9l0,9.6" class="g3_98" />
<path d="M599.1,952.9l0,9.6" class="g3_98" />
<path d="M638.6,952.9l0,9.6" class="g3_98" />
<path d="M676.8,952.9l0,9.6" class="g3_98" />
<text 
x="322" 
y="976" 
dx="0" 
class="s11_98"
>1</text>

<text 
x="358" 
y="976" 
dx="0" 
class="s11_98"
>2</text>

<text 
x="398" 
y="976" 
dx="0" 
class="s11_98"
>3</text>

<text 
x="437" 
y="976" 
dx="0" 
class="s11_98"
>4</text>

<text 
x="476" 
y="976" 
dx="0" 
class="s11_98"
>5</text>

<text 
x="516" 
y="976" 
dx="0" 
class="s11_98"
>6</text>

<text 
x="556" 
y="976" 
dx="0" 
class="s11_98"
>7</text>

<text 
x="594" 
y="976" 
dx="0" 
class="s11_98"
>8</text>

<text 
x="634" 
y="976" 
dx="0" 
class="s11_98"
>9</text>

<text 
x="670" 
y="976" 
dx="0,0" 
class="s11_98"
>10</text>

<g clip-path="url(#c0_98)">
<path d="M708.5,597l0,360.2" class="g6_98" />
<path d="M760.1,620.7c0,28.9,-23.4,52.3,-52.3,52.3c-28.9,0,-52.3,-23.4,-52.3,-52.3c0,-28.9,23.4,-52.3,52.3,-52.3c28.9,0,52.3,23.4,52.3,52.3Z" class="g7_98" />
</g>
<path d="M706.9,604.5l-9.9,8.7c0,0,0,3.5,-2.5,5.5c-2.5,2,-11.2,7.2,-11.2,7.2c0,0,-4.2,2,-0.7,4.5c3.4,2.5,4.2,4.5,4.2,4.5c0,0,8.2,2,10.7,1.5c2.5,-0.5,5,-3.3,7,-0.5c1.9,2.7,3.7,5.4,3.7,7.9c0,2.5,10.1,7.1,11.1,9.9c0.6,1.4,8.9,-2.7,16.1,-9.6c6.7,-6.6,7.2,-16.5,7.2,-16.5c0,0,-17.2,-11.9,-22.7,-23.6c-5.5,-11.7,-6.5,-15.2,-6.5,-15.2c0,0,-2.7,0.9,-2.7,5.4c0,4.4,-0.4,-4.2,-2,-3.5c-1.7,0.6,-2.7,9.3,-1.8,13.8Z" class="g8_98" />
<path d="M709.2,587.9c-18.5,0,-33.6,15,-33.6,33.5c0,18.5,15.1,33.6,33.6,33.6c18.5,0,33.6,-15.1,33.6,-33.6c0,-18.5,-15.1,-33.5,-33.6,-33.5m0,68.2c-19.1,0,-34.6,-15.6,-34.6,-34.7c0,-19.1,15.5,-34.6,34.6,-34.6c19.1,0,34.7,15.5,34.7,34.6c0,19.1,-15.6,34.7,-34.7,34.7Z" class="g8_98" />
<text 
x="420" 
y="1009" 
dx="0,0,0,0,0,0,0,0,0,0,0,-0.2,0,0,0,0" 
class="s12_98"
>Number of People</text>



<!-- Any embedded fonts defined here -->
<style type="text/css" ><![CDATA[

@font-face {
	font-family: ProximaNova-Extrabld_cst;
	src: url("fonts/ProximaNova-Extrabld_cst.woff") format("woff");
}

@font-face {
	font-family: ProximaNova-Bold_cs-;
	src: url("fonts/ProximaNova-Bold_cs-.woff") format("woff");
}

@font-face {
	font-family: Alegreya-ExtraBold_ct1;
	src: url("fonts/Alegreya-ExtraBold_ct1.woff") format("woff");
}

@font-face {
	font-family: ProximaNova-Regular_cua;
	src: url("fonts/ProximaNova-Regular_cua.woff") format("woff");
}

@font-face {
	font-family: ProximaNova-Semibold_b50;
	src: url("fonts/ProximaNova-Semibold_b50.woff") format("woff");
}

@font-face {
	font-family: Alegreya-Bold_csx;
	src: url("fonts/Alegreya-Bold_csx.woff") format("woff");
}

@font-face {
	font-family: Alegreya-Regular_csr;
	src: url("fonts/Alegreya-Regular_csr.woff") format("woff");
}

@font-face {
	font-family: STKaiti-SC-Bold_cqx;
	src: url("fonts/STKaiti-SC-Bold_cqx.woff") format("woff");
}

]]></style>

</svg>
