<?xml version="1.0" encoding="UTF-8" standalone="no"?>
<!DOCTYPE svg PUBLIC "-//W3C//DTD SVG 1.1//EN"
"http://www.w3.org/Graphics/SVG/1.1/DTD/svg11.dtd">


<!-- Page 42 -->
<svg x="0" y="0" width="921" height="1196" viewBox="0 0 921 1196" version="1.1" xmlns="http://www.w3.org/2000/svg" xmlns:xlink="http://www.w3.org/1999/xlink"
style="display: block;margin-left: auto;margin-right: auto;">
<defs>

<style type="text/css"><![CDATA[

.g1_42{
fill: none;
stroke: #3986C6;
stroke-width: 1.6194444;
stroke-linecap: butt;
stroke-linejoin: miter;
stroke-miterlimit: 4;
}
.g2_42{
fill: #3986C6;
}
.g3_42{
fill: none;
stroke: #ACBF3B;
stroke-width: 2.2916667;
stroke-linecap: butt;
stroke-linejoin: miter;
stroke-miterlimit: 4;
}
.g4_42{
fill: #FFFFFF;
}
.g5_42{
fill: none;
stroke: #231F20;
stroke-width: 1.2986112;
stroke-linecap: butt;
stroke-linejoin: miter;
}
.g6_42{
fill: #231F20;
}
.g7_42{
fill: #A8A9AD;
}
.g8_42{
fill: none;
stroke: #E54C3B;
stroke-width: 0.9731945;
stroke-linecap: butt;
stroke-linejoin: round;
stroke-miterlimit: 4;
}
.g9_42{
fill: #E54C3B;
}
.g10_42{
fill: #040503;
}
.g11_42{
fill: none;
stroke: #3986C6;
stroke-width: 1.1458334;
stroke-linecap: butt;
stroke-linejoin: miter;
stroke-miterlimit: 4;
}
.g12_42{
fill: none;
stroke: #3986C6;
stroke-width: 1.1458334;
stroke-linecap: butt;
stroke-linejoin: miter;
}
.g13_42{
fill: #ACBF3B;
}
.g14_42{
fill: none;
stroke: #CF151D;
stroke-width: 0.9731945;
stroke-linecap: butt;
stroke-linejoin: round;
stroke-miterlimit: 4;
}
.g15_42{
fill: #CF151D;
}

.s1_42{
font-size: 18.33px;
font-family: ProximaNova-Bold_cnt;
fill: #231F20;
}
.s2_42{
font-size: 12.99px;
font-family: ProximaNova-Semibold_cnz;
fill: #231F20;
}
.s3_42{
font-size: 19.10px;
font-family: Alegreya-Bold_cny;
fill: #231F20;
}
.s4_42{
font-size: 19.10px;
font-family: Alegreya-Bold_cny;
fill: #3986C6;
}
.s5_42{
font-size: 19.10px;
font-family: Alegreya-Regular_cnx;
fill: #231F20;
}
.s6_42{
font-size: 22.92px;
font-family: STKaitiSC-Regular_cof;
fill: #231F20;
}
.s7_42{
font-size: 19.86px;
font-family: ProximaNova-Bold_cnt;
fill: #231F20;
}

]]></style>

</defs>
<path d="M0,0
L0,1196
L921,1196
L921,0 Z " 
fill="#FFFFFF" stroke="none" />
<text 
x="862" 
y="1149" 
dx="0,0" 
class="s1_42"
>19</text>

<path d="M872.3,1089.3l0,38.7" class="g1_42" />
<path d="M872.3,1125.4c-1.5,0,-2.6,1.1,-2.6,2.6c0,1.4,1.1,2.6,2.6,2.6c1.4,0,2.6,-1.2,2.6,-2.6c0,-1.5,-1.2,-2.6,-2.6,-2.6Z" class="g2_42" />
<text 
transform="matrix(0, 1, -1, 0, 867, 806)"
dx="0,0,0,0,0,0,0,0,0,0" 
class="s2_42"
>Chapter 1 </text>

<text 
transform="matrix(0, 1, -1, 0, 867, 867)"
dx="0,0" 
class="s2_42"
>• </text>

<text 
transform="matrix(0, 1, -1, 0, 867, 879)"
dx="0,0,0,0,0,0,0,0,0,0,0,0,0,0,0,0,0,0,0,0,0,0,0,0" 
class="s2_42"
>Getting to Know Chinese </text>

<text 
transform="matrix(0, 1, -1, 0, 867, 1030)"
dx="0,0" 
class="s2_42"
>• </text>

<text 
transform="matrix(0, 1, -1, 0, 867, 1041)"
dx="0,-1.4,0,0,0,0,0" 
class="s2_42"
>Topic 5</text>

<image preserveAspectRatio="none" x="403" y="410" width="367" height="236" xlink:href="42/img/1.png" />
<text 
x="92" 
y="107" 
dx="0,0" 
class="s3_42"
>wǔ</text>

<text 
x="89" 
y="149" 
dx="0,0,0,-0.2" 
class="s3_42"
>five</text>

<text 
x="93" 
y="229" 
dx="0,0,0" 
class="s3_42"
>liù</text>

<text 
x="106" 
y="349" 
dx="0,0" 
class="s3_42"
>qī</text>

<text 
x="90" 
y="713" 
dx="0,0,0" 
class="s3_42"
>shí</text>

<text 
x="90" 
y="754" 
dx="0,0,0" 
class="s3_42"
>ten</text>

<text 
x="639" 
y="843" 
dx="0" 
class="s4_42"
>T</text>

<text 
x="680" 
y="843" 
dx="0" 
class="s4_42"
>F</text>

<text 
x="117" 
y="881" 
dx="0" 
class="s4_42"
>1</text>

<text 
x="140" 
y="881" 
dx="0,-0.6,-0.2,0,0,0,0,0,0,0,0,0,0,-1.3,-0.4,0,0,0,0,0,0,0,0,0,0,0,0,0,0,0,0,0,-0.2,0,0,0,0,0,0,0,0,0,0,0,0,0,0,0,0,0,0,0,0" 
class="s5_42"
>Traditionally, Chinese people wrote with pen and ink.</text>

<path d="M645.2,883.8c5.8,0,10.5,-4.7,10.5,-10.5c0,-5.8,-4.7,-10.5,-10.5,-10.5c-5.7,0,-10.4,4.7,-10.4,10.5c0,5.8,4.7,10.5,10.4,10.5Z" class="g3_42" />
<path d="M686.2,883.8c5.8,0,10.5,-4.7,10.5,-10.5c0,-5.8,-4.7,-10.5,-10.5,-10.5c-5.8,0,-10.5,4.7,-10.5,10.5c0,5.8,4.7,10.5,10.5,10.5Z" class="g3_42" />
<text 
x="117" 
y="922" 
dx="0" 
class="s4_42"
>2</text>

<text 
x="140" 
y="922" 
dx="0,0,0,0,0,0,0,0,0,0,0,0,-0.2,0,0,0,0,0,0,0,0,-0.2,0,0,0,0,0,0,0,0,0,0,0,0,0,0,0,0,0,0,0,-0.2,0,0,0,0,0,0,0,0,0,0,0,0,0,0,0,-0.8" 
class="s5_42"
>Chinese characters are usually written from bottom to top.</text>

<path d="M645.2,925c5.8,0,10.5,-4.7,10.5,-10.4c0,-5.8,-4.7,-10.5,-10.5,-10.5c-5.7,0,-10.4,4.7,-10.4,10.5c0,5.7,4.7,10.4,10.4,10.4Z" class="g3_42" />
<path d="M686.2,925c5.8,0,10.5,-4.7,10.5,-10.4c0,-5.8,-4.7,-10.5,-10.5,-10.5c-5.8,0,-10.5,4.7,-10.5,10.5c0,5.7,4.7,10.4,10.5,10.4Z" class="g3_42" />
<text 
x="117" 
y="957" 
dx="0" 
class="s4_42"
>3</text>

<text 
x="140" 
y="958" 
dx="0,-0.2,0,0,0,0,0,0,0,0,0,-0.2,0,0,0,0,0" 
class="s5_42"
>In the character </text>

<text 
x="267" 
y="959" 
dx="0" 
class="s6_42"
>四</text>

<text 
x="293" 
y="958" 
dx="0,0,0,0,0,0,0,0,0,0,0,0,0,0,0,0,0,0,0,0,0,0,0,0,0,0,0,0,0,0,0,0,0,-0.4,0,0,0,-0.2,0" 
class="s5_42"
>the top and right sides of the box are </text>

<text 
x="140" 
y="982" 
dx="0,0,0,0,0,0,0,0,0,0,0,0,0,0,0,0,0,0,0,0,0,0,0,0,0,-0.2,0,-0.4,-0.6" 
class="s5_42"
>written with a single stroke.</text>

<path d="M645.2,974.3c5.8,0,10.5,-4.7,10.5,-10.5c0,-5.8,-4.7,-10.5,-10.5,-10.5c-5.7,0,-10.4,4.7,-10.4,10.5c0,5.8,4.7,10.5,10.4,10.5Z" class="g3_42" />
<path d="M686.2,974.3c5.8,0,10.5,-4.7,10.5,-10.5c0,-5.8,-4.7,-10.5,-10.5,-10.5c-5.8,0,-10.5,4.7,-10.5,10.5c0,5.8,4.7,10.5,10.5,10.5Z" class="g3_42" />
<path d="M151.9,161.1l77.9,0l0,-77.9l-77.9,0l0,77.9Z" class="g4_42" />
<path d="M229.8,161.1l-77.9,0l0,-78l77.9,0l0,78Z" class="g5_42" />
<path d="M177.8,102.3c0,0,4.2,0.1,10.6,-1.5c7.4,-1.7,12.8,-3.1,14.6,-3c1.9,0,5.7,1.3,6,2.5c0.2,0.8,-1.5,1,-4.2,1.7c-2.6,0.7,-7.9,1.1,-14.2,1.9c-6.2,0.8,-9.2,0.9,-10.7,0.4c-1.4,-0.4,-4.5,-2.1,-2.1,-2Z" class="g6_42" />
<path d="M195.5,139.8c-2.6,0.4,-12.2,1.5,-12.8,1.6c-0.6,0,-0.4,-0.5,-0.4,-0.5l5.3,-17.6c0,0,0.2,-0.3,0.5,-0.4c1,-0.4,3.3,-1,5.4,-1.3c2.1,-0.3,4.8,-0.5,5.7,-0.5c0.3,0,0.4,0.3,0.4,0.3l-3.4,17.7c0,0,-0.2,0.6,-0.7,0.7m22,-0.6c-2.3,-1,-6.2,-1,-11,-0.6c-4.8,0.5,-7,0.7,-7,0.7c0,0,0.7,-2.4,1.7,-5.8c0.9,-3.5,1.7,-7.1,3,-9.7c1.4,-2.6,2.3,-2.5,2.6,-3.6c0.3,-1,-3.5,-2.1,-5.5,-2.9c-2,-0.9,-2,0.1,-2.5,0.6c-0.5,0.6,-2.9,1.1,-5.4,1.6c-2.5,0.4,-4.8,0.9,-4.8,0.9c0,0,1.6,-5.9,2.7,-9.7c1,-3.7,1.4,-4.7,-1.4,-6.7l-2.4,0.2c0,0,0.2,3.1,-0.3,6.7c-0.6,3.7,-1.6,8.3,-1.9,9c-0.2,0.8,-0.1,1,-1.3,1.3c-1.2,0.3,-8.7,1.4,-11.1,1.5c0,0,1.7,2.7,4.9,2.3c3.1,-0.4,6.7,-1.3,6.7,-1.3l-5.2,18L160,143.6c0,0,0.4,3.2,5,2.8c4.6,-0.4,10.7,-1.8,19,-3c8.2,-1.1,16.8,-1,22.5,-0.9c5.8,0.1,15.2,0.8,15.2,0.8c0,0,-0.9,-2.6,-4.2,-4.1Z" class="g7_42" />
<path d="M177.5,98.8l22.1,-4" class="g8_42" />
<path d="M198,97.8l0.7,-2.9L197,92.5l6.8,1.5Z" class="g9_42" />
<path d="M255.8,161.1l77.9,0l0,-77.9l-77.9,0l0,77.9Z" class="g4_42" />
<path d="M333.7,161.1l-77.9,0l0,-78l77.9,0l0,78Z" class="g5_42" />
<path d="M281.7,102.3c0,0,4.2,0.1,10.6,-1.5c7.4,-1.7,12.8,-3.1,14.6,-3c1.9,0,5.7,1.3,6,2.5c0.2,0.8,-1.6,1,-4.2,1.7c-2.6,0.7,-7.9,1.1,-14.2,1.9c-6.3,0.8,-9.2,0.9,-10.7,0.4c-1.4,-0.4,-4.5,-2.1,-2.1,-2Z" class="g6_42" />
<path d="M291.4,123.3c0,0,0.3,-0.3,0.6,-0.4c1,-0.4,3.3,-1,5.4,-1.3c2.1,-0.3,4.8,-0.5,5.7,-0.5c0.3,0,0.4,0.3,0.4,0.3l-3.4,17.7c0,0,-0.2,0.6,-0.8,0.7c-2.5,0.4,-12.1,1.5,-12.7,1.6l-22.7,2.2c0,0,0.4,3.2,5,2.8c4.6,-0.4,10.7,-1.8,19,-3c8.2,-1.1,16.8,-1,22.5,-0.9c5.8,0.1,15.2,0.8,15.2,0.8c0,0,-1,-2.6,-4.2,-4.1c-2.3,-1,-6.2,-1,-11,-0.5c-4.8,0.4,-7,0.6,-7,0.6c0,0,0.7,-2.4,1.7,-5.8c0.9,-3.5,1.7,-7.1,3,-9.7c1.4,-2.6,2.3,-2.5,2.6,-3.6c0.3,-1,-3.5,-2.1,-5.5,-2.9c-2.1,-0.9,-2.1,0.1,-2.5,0.6c-0.5,0.6,-2.9,1.1,-5.4,1.6c-2.5,0.4,-4.8,0.9,-4.8,0.9Z" class="g7_42" />
<path d="M285.9,141.7l5.5,-18.4c0,0,2.7,-8.8,3.8,-12.6c1,-3.7,1.4,-4.7,-1.4,-6.7l-2.4,0.2c0,0,0.2,3.1,-0.3,6.7c-0.6,3.7,-1.6,8.3,-1.9,9l-0.8,3.8L283,141.9Z" class="g6_42" />
<path d="M289.2,119.9c-0.3,0.8,-0.2,1,-1.3,1.3c-1.2,0.3,-8.7,1.4,-11.1,1.5c0,0,1.7,2.7,4.9,2.3c3.1,-0.4,6.7,-1.3,6.7,-1.3Z" class="g7_42" />
<path d="M288,107.3l-6.8,27.2" class="g8_42" />
<path d="M279.1,131.9l2.4,1.8l2.9,-0.5l-4.2,5.6Z" class="g9_42" />
<path d="M358.4,161.1l77.9,0l0,-77.9l-77.9,0l0,77.9Z" class="g4_42" />
<path d="M436.3,161.1l-77.9,0l0,-78l77.9,0l0,78Z" class="g5_42" />
<path d="M384.3,102.3c0,0,4.2,0.1,10.6,-1.5c7.4,-1.7,12.8,-3.1,14.6,-3c1.9,0,5.7,1.3,6,2.5c0.2,0.8,-1.6,1,-4.2,1.7c-2.7,0.7,-7.9,1.1,-14.2,1.9c-6.3,0.8,-9.2,0.9,-10.7,0.4c-1.4,-0.4,-4.5,-2.1,-2.1,-2Z" class="g6_42" />
<path d="M385.3,141.8l-18.8,1.8c0,0,0.4,3.2,5,2.8c4.6,-0.4,10.7,-1.8,19,-3c8.2,-1.1,16.8,-1,22.5,-0.9c5.8,0.1,15.2,0.8,15.2,0.8c0,0,-1,-2.6,-4.2,-4.1c-2.3,-1,-6.2,-1,-11,-0.6c-4.8,0.5,-7,0.7,-7,0.7Z" class="g7_42" />
<path d="M388.4,141.9L394,123.3c0,0,0.3,-0.3,0.6,-0.4c1,-0.4,3.3,-1,5.4,-1.3c2,-0.3,4.7,-0.5,5.7,-0.5c0.2,0,0.4,0.3,0.4,0.3l-3.9,19.9l3.4,-0.1c0,0,1.1,-4.3,2,-7.7c1,-3.5,1.8,-7.1,3.1,-9.7c1.4,-2.6,2.3,-2.5,2.6,-3.6c0.3,-1,-3.5,-2.1,-5.6,-2.9c-2,-0.9,-2,0.1,-2.4,0.6c-0.5,0.6,-2.9,1.1,-5.4,1.6c-2.5,0.4,-4.8,0.9,-4.8,0.9c0,0,1.6,-5.9,2.7,-9.7c1,-3.7,1.4,-4.7,-1.4,-6.7l-2.4,0.2c0,0,0.2,3.1,-0.4,6.7c-0.5,3.7,-1.5,8.3,-1.8,9c-0.3,0.8,-0.2,1,-1.3,1.3c-1.2,0.3,-8.8,1.4,-11.1,1.5c0,0,1.7,2.7,4.8,2.3c3.2,-0.4,6.8,-1.3,6.8,-1.3L385.3,142Z" class="g6_42" />
<path d="M379.8,119.6c0,0,27.6,-5.1,30.3,-5.3c2.7,-0.3,5.4,-0.3,6.2,0.7c0.6,0.8,0.1,3.4,-0.7,6.2c-1.2,5.1,-2.8,9.9,-3.9,13.2" class="g8_42" />
<path d="M409.8,131.5l2.1,2l3,-0.1l-4.8,5.1Z" class="g9_42" />
<path d="M461,161.1l77.9,0l0,-78l-77.9,0l0,78Z" class="g4_42" />
<path d="M538.9,161.1l-77.9,0l0,-78l77.9,0l0,78Z" class="g5_42" />
<path d="M486.9,102.3c0,0,4.2,0.1,10.6,-1.5c7.4,-1.7,12.8,-3.1,14.6,-3c1.9,0,5.7,1.3,6,2.5c0.2,0.8,-1.6,1,-4.2,1.7c-2.7,0.7,-7.9,1.1,-14.2,1.9c-6.3,0.8,-9.2,0.9,-10.7,0.4c-1.5,-0.4,-4.5,-2.1,-2.1,-2Z" class="g6_42" />
<path d="M504.5,139.8c-2.5,0.4,-12.1,1.5,-12.7,1.6c-0.7,0,-0.4,-0.5,-0.4,-0.5l5.2,-17.6c0,0,0.3,-0.3,0.5,-0.4c1.1,-0.4,3.4,-1,5.5,-1.3c2,-0.3,4.7,-0.5,5.7,-0.5c0.2,0,0.3,0.3,0.3,0.3l-3.3,17.7c0,0,-0.2,0.6,-0.8,0.7m22,-0.6c-2.3,-1,-6.1,-1,-10.9,-0.6c-4.8,0.5,-7,0.7,-7,0.7c0,0,0.7,-2.4,1.6,-5.8c1,-3.5,1.8,-7.1,3.1,-9.7c1.4,-2.6,2.3,-2.5,2.6,-3.6c0.3,-1,-3.5,-2.1,-5.6,-2.9c-2,-0.9,-2,0.1,-2.5,0.6c-0.4,0.6,-2.8,1.1,-5.3,1.6c-2.5,0.4,-4.8,0.9,-4.8,0.9c0,0,1.6,-5.9,2.7,-9.7c1,-3.7,1.4,-4.7,-1.4,-6.7l-2.4,0.2c0,0,0.2,3.1,-0.4,6.7c-0.5,3.7,-1.5,8.3,-1.8,9c-0.3,0.8,-0.2,1,-1.3,1.3c-1.2,0.3,-8.8,1.4,-11.2,1.5c0,0,1.8,2.7,4.9,2.3c3.2,-0.4,6.7,-1.3,6.7,-1.3l-5.1,18l-19.3,1.9c0,0,0.4,3.2,5,2.8c4.6,-0.4,10.7,-1.8,19,-3c8.2,-1.1,16.8,-1,22.5,-0.9c5.8,0.1,15.2,0.8,15.2,0.8c0,0,-1,-2.6,-4.3,-4.1Z" class="g6_42" />
<path d="M472.3,149.8l51.5,-3.3" class="g8_42" />
<path d="M521.9,149.4l1,-2.8L521.6,144l6.6,2.2Z" class="g9_42" />
<path d="M151.9,281.9l77.9,0l0,-77.9l-77.9,0l0,77.9Z" class="g4_42" />
<path d="M229.8,281.9l-77.9,0l0,-77.9l77.9,0l0,77.9Z" class="g5_42" />
<path d="M191.7,212.1l8.2,7.7" class="g8_42" />
<path d="M196.6,220.3l2.7,-1.1l1,-2.8l2.8,6.4Z" class="g9_42" />
<path d="M183.2,219.1c0,0,4.8,4.7,7.7,7c2.9,2.2,4.1,1.8,4.4,0.6c0.5,-2,0.2,-5.9,-2.6,-7.4c-2.7,-1.6,-5.2,-2,-8,-2.3c-3.9,-0.4,-2.6,0.8,-1.5,2.1Z" class="g10_42" />
<path d="M166.6,243.7c0,0,13.3,-3.5,24.5,-4.6c11.2,-1.1,26.7,-0.2,29.5,-0.4c2.7,-0.2,3.7,-1,2.1,-2.4c-1.7,-1.3,-4.1,-3.2,-9.8,-2.9c-5.7,0.2,-15.8,2,-26.7,3.5c-11,1.5,-21.7,3,-24.9,3.3c-3.2,0.3,-3.8,1,-2.1,2.1c1.7,1.1,4.1,2.3,7.4,1.4Z" class="g7_42" />
<path d="M179.1,249.4c0.6,0.6,0.4,1.1,-1,3.6c-1.3,2.4,-5,7.1,-9.7,10.8c-5.5,4.3,-6.4,5.4,-5.5,5.2c1,-0.2,6.8,-3.5,13.4,-7.5c6.6,-4,8.7,-7.6,7.8,-9.3c-1,-1.9,-2.6,-3.5,-4.6,-4c-1.2,-0.4,-1.2,0.6,-0.4,1.2Z" class="g7_42" />
<path d="M194.9,249c0,0,11.4,14.8,14,17.6c2.6,2.8,3.5,2.8,3.4,-1.2c-0.2,-4.1,-3.3,-8.4,-6.7,-11.7c-3.3,-3.3,-7.7,-5.4,-9.3,-5.9c-1.6,-0.6,-2.6,-0.5,-1.4,1.2Z" class="g7_42" />
<path d="M255.3,281.9l77.9,0l0,-77.9l-77.9,0l0,77.9Z" class="g4_42" />
<path d="M333.2,281.9l-77.9,0l0,-77.9l77.9,0l0,77.9Z" class="g5_42" />
<path d="M263,237.8l55.3,-8" class="g8_42" />
<path d="M316.6,232.7l0.8,-2.8l-1.6,-2.5l6.8,1.7Z" class="g9_42" />
<path d="M286.5,219.1c0,0,4.9,4.7,7.8,7c2.9,2.2,4.1,1.8,4.4,0.6c0.5,-2,0.2,-5.9,-2.6,-7.4c-2.8,-1.6,-5.2,-2,-8,-2.3c-3.9,-0.4,-2.6,0.8,-1.6,2.1Z" class="g10_42" />
<path d="M269.9,243.7c0,0,13.3,-3.5,24.6,-4.6c11.2,-1.1,26.7,-0.2,29.4,-0.4c2.8,-0.2,3.8,-1,2.2,-2.4c-1.7,-1.3,-4.1,-3.2,-9.8,-2.9c-5.8,0.2,-15.8,2,-26.8,3.5c-11,1.5,-21.6,3,-24.8,3.3c-3.2,0.3,-3.9,1,-2.1,2.1c1.7,1.1,4,2.3,7.3,1.4Z" class="g6_42" />
<path d="M282.4,249.4c0.6,0.6,0.4,1.1,-0.9,3.6c-1.3,2.4,-5,7.1,-9.8,10.8c-5.4,4.3,-6.3,5.4,-5.4,5.2c1,-0.2,6.8,-3.5,13.3,-7.5c6.6,-4,8.7,-7.6,7.9,-9.3c-1,-1.9,-2.6,-3.5,-4.6,-4c-1.3,-0.4,-1.2,0.6,-0.5,1.2Z" class="g7_42" />
<path d="M298.3,249c0,0,11.3,14.8,13.9,17.6c2.6,2.8,3.6,2.8,3.4,-1.2c-0.1,-4.1,-3.3,-8.4,-6.6,-11.7c-3.3,-3.3,-7.7,-5.4,-9.3,-5.9c-1.7,-0.6,-2.6,-0.5,-1.4,1.2Z" class="g7_42" />
<path d="M358,281.9l77.9,0l0,-77.9L358,204l0,77.9Z" class="g4_42" />
<path d="M435.9,281.9l-77.9,0L358,204l77.9,0l0,77.9Z" class="g5_42" />
<path d="M389.3,219.1c0,0,4.8,4.7,7.7,7c2.9,2.2,4.1,1.8,4.4,0.6c0.5,-2,0.2,-5.9,-2.6,-7.4c-2.7,-1.6,-5.2,-2,-8,-2.3c-3.9,-0.4,-2.6,0.8,-1.5,2.1Z" class="g10_42" />
<path d="M372.6,243.7c0,0,13.4,-3.5,24.6,-4.6c11.2,-1.1,26.7,-0.2,29.5,-0.4c2.7,-0.2,3.7,-1,2.1,-2.4c-1.7,-1.3,-4.1,-3.2,-9.8,-2.9c-5.8,0.2,-15.8,2,-26.8,3.5c-10.9,1.5,-21.6,3,-24.8,3.3c-3.2,0.3,-3.9,1,-2.1,2.1c1.7,1.1,4,2.3,7.3,1.4Z" class="g6_42" />
<path d="M385.2,249.4c0.6,0.6,0.4,1.1,-1,3.6c-1.3,2.4,-5,7.1,-9.8,10.8c-5.4,4.3,-6.3,5.4,-5.4,5.2c1,-0.2,6.8,-3.5,13.4,-7.5c6.5,-4,8.6,-7.6,7.8,-9.3c-1,-1.9,-2.6,-3.5,-4.6,-4c-1.2,-0.4,-1.2,0.6,-0.4,1.2Z" class="g6_42" />
<path d="M401,249c0,0,11.4,14.8,14,17.6c2.6,2.8,3.5,2.8,3.4,-1.2c-0.2,-4.1,-3.4,-8.4,-6.7,-11.7c-3.3,-3.3,-7.7,-5.4,-9.3,-5.9c-1.6,-0.6,-2.6,-0.5,-1.4,1.2Z" class="g7_42" />
<path d="M380.3,247.7c0,0,2,4.6,-9.6,14.4" class="g8_42" />
<path d="M370.5,258.7l0.8,2.8l2.6,1.4l-6.6,2Z" class="g9_42" />
<path d="M460.4,281.9l77.9,0l0,-77.9l-77.9,0l0,77.9Z" class="g4_42" />
<path d="M538.3,281.9l-77.9,0l0,-77.9l77.9,0l0,77.9Z" class="g5_42" />
<path d="M491.7,219.1c0,0,4.8,4.7,7.7,7c2.9,2.2,4.2,1.8,4.4,0.6c0.5,-2,0.2,-5.9,-2.5,-7.4c-2.8,-1.6,-5.3,-2,-8,-2.3c-4,-0.4,-2.7,0.8,-1.6,2.1Z" class="g10_42" />
<path d="M475.1,243.7c0,0,13.3,-3.5,24.5,-4.6c11.2,-1.1,26.7,-0.2,29.5,-0.4c2.7,-0.2,3.8,-1,2.1,-2.4c-1.6,-1.3,-4.1,-3.2,-9.8,-2.9c-5.7,0.2,-15.8,2,-26.7,3.5c-11,1.5,-21.7,3,-24.9,3.3c-3.2,0.3,-3.8,1,-2.1,2.1c1.7,1.1,4.1,2.3,7.4,1.4Z" class="g6_42" />
<path d="M487.6,249.4c0.6,0.6,0.4,1.1,-0.9,3.6c-1.4,2.4,-5.1,7.1,-9.8,10.8c-5.5,4.3,-6.4,5.4,-5.4,5.2c0.9,-0.2,6.7,-3.5,13.3,-7.5c6.6,-4,8.7,-7.6,7.8,-9.3c-0.9,-1.9,-2.5,-3.5,-4.5,-4c-1.3,-0.4,-1.3,0.6,-0.5,1.2Z" class="g6_42" />
<path d="M503.4,249c0,0,11.4,14.8,14,17.6c2.6,2.8,3.6,2.8,3.4,-1.2c-0.2,-4.1,-3.3,-8.4,-6.7,-11.7c-3.3,-3.3,-7.7,-5.4,-9.3,-5.9c-1.6,-0.6,-2.6,-0.5,-1.4,1.2Z" class="g6_42" />
<path d="M511.9,245.8l11.9,14.3" class="g8_42" />
<path d="M520.4,260.2l2.8,-0.8l1.3,-2.6l2.1,6.6Z" class="g9_42" />
<path d="M152.5,402.1l77.9,0l0,-77.9l-77.9,0l0,77.9Z" class="g4_42" />
<path d="M230.4,402.1l-77.9,0l0,-77.9l77.9,0l0,77.9Z" class="g5_42" />
<path d="M185.1,337.8c0,0,1.7,1.2,1.7,5.6c0,4.5,0.9,18.9,0.7,25.5c-0.3,6.6,-0.4,16.4,8.9,19.5c9.4,3,21.7,-0.1,24.7,-3.2c0,0,0.5,-0.6,-0.6,-2.5c-1.1,-1.8,-1.7,-8.1,-1.7,-9.9c0,-1.9,-0.8,0.6,-1.3,2.5c-0.4,1.8,-0.3,7.3,-7.6,9.2c-7.4,1.8,-16.6,-0.5,-18,-6.6c-1.4,-6.2,-1.5,-19.4,-1.3,-27.1c0.2,-7.7,0.5,-8.6,0.9,-10.2c0.4,-1.8,0.3,-2.2,-3.1,-3.3c-3.2,-1,-4.7,-0.3,-3.3,0.5Z" class="g7_42" />
<path d="M171.3,374.6c0,0,7.4,-3,22.7,-8.4c15.2,-5.4,25.2,-6.4,26.5,-6.8c1.3,-0.4,3.6,-0.7,0.7,-2.3c-2.5,-1.4,-3.7,-2.1,-5.8,-1.4c-2,0.6,-18.7,6.6,-26,9c-7.2,2.4,-18.6,6.5,-23.1,7.7c-4.7,1.3,-7.3,1.4,-5.2,2.2c2,0.8,5.6,1.8,10.2,0Z" class="g6_42" />
<path d="M160.4,370l50.8,-17.5" class="g8_42" />
<path d="M210.2,355.8l0.2,-3l-2,-2.2l7,0.5Z" class="g9_42" />
<path d="M255.2,402.1l78,0l0,-77.9l-78,0l0,77.9Z" class="g4_42" />
<path d="M333.2,402.1l-78,0l0,-77.9l78,0l0,77.9Z" class="g5_42" />
<path d="M287.8,337.8c0,0,1.7,1.2,1.7,5.6c0,4.5,0.9,18.9,0.7,25.5c-0.2,6.6,-0.3,16.4,9,19.4c9.3,3.1,21.6,0,24.6,-3.1c0,0,0.5,-0.6,-0.6,-2.5c-1.1,-1.8,-1.6,-8.1,-1.6,-9.9c0,-1.9,-0.9,0.6,-1.3,2.5c-0.5,1.8,-0.4,7.3,-7.7,9.2c-7.4,1.8,-16.6,-0.5,-18,-6.6c-1.4,-6.2,-1.5,-19.4,-1.3,-27.1c0.2,-7.7,0.6,-8.6,0.9,-10.2c0.4,-1.8,0.3,-2.2,-3.1,-3.3c-3.2,-1,-4.7,-0.3,-3.3,0.5Z" class="g6_42" />
<path d="M274.1,374.6c0,0,7.3,-3,22.6,-8.4c15.2,-5.4,25.2,-6.4,26.5,-6.8c1.3,-0.4,3.6,-0.7,0.7,-2.3c-2.5,-1.4,-3.7,-2.1,-5.8,-1.4c-2,0.6,-18.7,6.6,-25.9,9c-7.3,2.4,-18.7,6.5,-23.2,7.7c-4.7,1.3,-7.3,1.4,-5.2,2.2c2,0.8,5.6,1.8,10.3,0Z" class="g6_42" />
<path d="M284.6,337.6c1,14.4,0.5,49.5,6.7,53c7.3,4.2,27.2,2.6,31.2,1.2c5.4,-1.9,6.5,-3.4,5.3,-13.1" class="g8_42" />
<path d="M330.6,380.4l-2.8,-0.8l-2.5,1.4l1.9,-6.7Z" class="g9_42" />
<path d="M152.5,523l77.9,0l0,-77.9l-77.9,0l0,77.9Z" class="g4_42" />
<path d="M230.4,523l-77.9,0l0,-77.9l77.9,0l0,77.9Z" class="g5_42" />
<path d="M159.7,504.4c0,0,6.8,-2.9,12.4,-8.2c5.6,-5.3,8.7,-11.1,10,-12.1c1.3,-1,1.8,-1.4,0,-3.1c-1.8,-1.8,-3.1,-2.5,-3.9,-2.7c-0.8,-0.2,-1.1,0.8,-1.1,2.3c0,1.5,-1.5,5,-4.4,9c-2.8,4,-7.8,9.7,-10.4,11.9c-2.6,2.1,-4.3,2.9,-2.6,2.9Z" class="g6_42" />
<path d="M183.1,466c0,0,4.7,0.3,7.5,6.3c2.9,6.1,9.7,17.6,13.3,23.4c3.6,5.9,4.3,7.4,6.9,7.7c2.6,0.4,10.1,0,12,0c2,0,3.3,-0.3,0.8,-1.6c-2.5,-1.3,-9.9,-4.4,-15,-9c-5.1,-4.5,-9.4,-11,-11.6,-14.5c-2.1,-3.5,-5.7,-10.9,-8.7,-12.8c-2.9,-2,-6,-1.9,-6.8,-1.7c-0.9,0.2,-0.7,1.3,1.6,2.2Z" class="g7_42" />
<path d="M174.6,478.3c0,0,-3.8,9.2,-13.3,18" class="g8_42" />
<path d="M161,492.9l0.9,2.8l2.7,1.3l-6.6,2.2Z" class="g9_42" />
<path d="M255.1,523l77.9,0l0,-77.9l-77.9,0l0,77.9Z" class="g4_42" />
<path d="M333,523l-77.9,0l0,-77.9l77.9,0l0,77.9Z" class="g5_42" />
<path d="M262.2,504.4c0,0,6.9,-2.9,12.5,-8.2c5.5,-5.3,8.7,-11.1,10,-12.1c1.3,-1,1.8,-1.4,0,-3.1c-1.8,-1.8,-3.1,-2.5,-3.9,-2.7c-0.8,-0.2,-1.1,0.8,-1.1,2.3c0,1.5,-1.5,5,-4.4,9c-2.8,4,-7.9,9.7,-10.5,11.9c-2.6,2.1,-4.2,2.9,-2.6,2.9Z" class="g6_42" />
<path d="M285.7,466c0,0,4.7,0.3,7.5,6.3c2.9,6.1,9.7,17.6,13.3,23.4c3.6,5.9,4.3,7.4,6.9,7.7c2.6,0.4,10.1,0,12,0c2,0,3.3,-0.3,0.8,-1.6c-2.5,-1.3,-9.9,-4.4,-15,-9c-5.1,-4.5,-9.4,-11,-11.6,-14.5c-2.1,-3.5,-5.7,-10.9,-8.7,-12.8c-3,-2,-6,-1.9,-6.8,-1.7c-0.9,0.2,-0.7,1.3,1.6,2.2Z" class="g6_42" />
<path d="M290.3,461.1c0,0,5.9,1.1,16,18.6c4.7,8.1,14.2,14.4,19.5,17.4" class="g8_42" />
<path d="M322.7,498.4l2.4,-1.8l0.3,-2.9l4.3,5.5Z" class="g9_42" />
<path d="M152.5,764.8l77.9,0l0,-77.9l-77.9,0l0,77.9Z" class="g4_42" />
<path d="M230.4,764.8l-77.9,0l0,-77.9l77.9,0l0,77.9Z" class="g5_42" />
<path d="M191.3,695.6c0,0,-2.9,-0.7,-2.9,-0.2c-0.1,0.5,1.4,0.9,1.4,4c-0.1,3.1,-0.1,24.9,0,32.9c0.1,8.1,0.4,16.4,0.8,19.2c0.5,2.8,1.1,5.2,1.5,5.1c0.5,-0.2,1.1,-2.9,1.4,-7.4c0.3,-4.4,0.3,-24.8,0.4,-33.5c0,-8.1,0.1,-14.4,0.6,-16.3c0.4,-1.9,-0.2,-3.1,-3.2,-3.8Z" class="g7_42" />
<path d="M162,717.1l46.8,-7.2" class="g8_42" />
<path d="M207.2,712.9l0.7,-2.8l-1.5,-2.5l6.7,1.7Z" class="g9_42" />
<path d="M170.1,723.3c0,0,9.1,-2.4,23.5,-4.4c14.7,-2,25.2,-0.5,26.4,-0.5c1.3,-0.1,1.2,-1.2,-1,-2.9c-2.1,-1.6,-4,-2.4,-6.8,-2.3c-1.9,0,-13.5,1.9,-21.2,3.2c-6.7,1.1,-18.4,3.3,-22.5,3.6c-4.4,0.4,-7.6,-0.2,-5.9,1.5c1.3,1.3,4.5,2.5,7.5,1.8Z" class="g6_42" />
<path d="M255.1,764.8l77.9,0l0,-77.9l-77.9,0l0,77.9Z" class="g4_42" />
<path d="M333,764.8l-77.9,0l0,-77.9l77.9,0l0,77.9Z" class="g5_42" />
<path d="M272.7,723.3c0,0,9.1,-2.4,23.5,-4.4c14.7,-2,25.2,-0.5,26.4,-0.5c1.3,-0.1,1.1,-1.2,-1,-2.9c-2.1,-1.6,-4,-2.4,-6.8,-2.3c-2,0,-13.6,1.9,-21.2,3.2c-6.7,1.1,-18.4,3.3,-22.5,3.6c-4.4,0.4,-7.6,-0.2,-5.9,1.5c1.3,1.3,4.5,2.5,7.5,1.8Z" class="g6_42" />
<path d="M293.9,695.6c0,0,-2.9,-0.7,-2.9,-0.2c-0.1,0.5,1.4,0.9,1.3,4c0,3.1,0,24.9,0.1,32.9c0.1,8.1,0.4,16.4,0.8,19.2c0.5,2.8,1.1,5.2,1.5,5.1c0.4,-0.2,1.1,-2.9,1.4,-7.4c0.3,-4.4,0.3,-24.8,0.4,-33.5c0,-8.1,0.1,-14.4,0.6,-16.3c0.4,-1.9,-0.2,-3.1,-3.2,-3.8Z" class="g6_42" />
<path d="M286.2,696.7l0,50.2" class="g8_42" />
<path d="M283.5,744.8l2.7,1.2l2.7,-1.2l-2.7,6.5Z" class="g9_42" />
<text 
x="90" 
y="270" 
dx="0,0,0,0" 
class="s3_42"
>six </text>

<text 
x="90" 
y="391" 
dx="0,0,0,-0.2,0,0" 
class="s3_42"
>seven </text>

<text 
x="102" 
y="469" 
dx="0,0" 
class="s3_42"
>bā</text>

<text 
x="90" 
y="511" 
dx="0,0,0,0,0,0" 
class="s3_42"
>eight </text>

<text 
x="98" 
y="590" 
dx="0,0,0" 
class="s3_42"
>jiǔ</text>

<text 
x="90" 
y="632" 
dx="0,0,0,0" 
class="s3_42"
>nine</text>

<path d="M89.9,879.2l0,-60.5l323.6,0" class="g11_42" />
<path d="M413.5,821.5c1.5,0,2.8,-1.2,2.8,-2.8c0,-1.5,-1.3,-2.7,-2.8,-2.7c-1.5,0,-2.7,1.2,-2.7,2.7c0,1.6,1.2,2.8,2.7,2.8Z" class="g2_42" />
<path d="M384.2,810.4c5.4,10.7,1.2,23.8,-9.6,29.3c-10.7,5.5,-23.9,1.2,-29.3,-9.5c-5.5,-10.7,-1.3,-23.9,9.5,-29.4c10.7,-5.5,23.9,-1.2,29.4,9.6Z" class="g4_42" />
<path d="M384.2,810.4c5.4,10.7,1.2,23.8,-9.6,29.3c-10.7,5.5,-23.9,1.2,-29.3,-9.5c-5.5,-10.7,-1.3,-23.9,9.5,-29.4c10.7,-5.5,23.9,-1.2,29.4,9.6Z" class="g12_42" />
<path d="M391.8,798.5c-1.2,-1,-3.1,-0.7,-4.2,0.6l-20.4,24.4c-1.1,1.3,-3,1.4,-4.3,0.2L360,820.8c-1.2,-1.2,-3.1,-1.3,-4.2,-0.2c-1,1.1,-0.9,3,0.3,4.2l7.2,7.1c1.3,1.2,3.1,1.1,4.2,-0.2l24.4,-29c1.1,-1.3,1,-3.2,-0.1,-4.2Z" class="g13_42" />
<path d="M105.2,832.1l214.1,0l0,-24.3l-214.1,0l0,24.3Z" class="g4_42" />
<text 
x="105" 
y="823" 
dx="0,0,0,0,0,0,0,0,0,0,0,0,0,0,0,0,0,0,0" 
class="s7_42"
>Comprehension Check</text>

<path d="M151.9,643.8l77.9,0l0,-77.9l-77.9,0l0,77.9Z" class="g4_42" />
<path d="M229.8,643.8l-77.9,0l0,-77.9l77.9,0l0,77.9Z" class="g5_42" />
<path d="M169.1,600c1.9,-0.2,2.3,-0.1,6,-1.1c6.2,-1.8,10.7,-2.7,14.5,-4.1c3.8,-1.3,6.4,-2.8,6.8,-3.1c0.7,-0.6,1.2,-1.3,2.9,-0.7c1.9,0.7,7.2,3.4,5.4,5.1c-0.4,0.3,-2.8,2.1,-3.5,3.6c-1.9,4.3,-3.2,10.2,-3.6,16.8c-0.3,7,2.1,11.8,10.6,11.8c7.7,0.1,11.3,-0.4,12.5,-5.9c1.3,-5.5,1.4,-7.4,1.8,-6.6c0.5,0.8,0.2,3.4,0.6,7.9c0.5,3.9,1.7,5.5,0.9,6.8c-0.6,1.1,-2.5,1.5,-4.6,1.8c-2.9,0.5,-5.4,0.9,-11.3,0.7C198,632.7,194,626.8,194.6,617.3c0.6,-8.7,3.2,-20.8,2.5,-21.9c-0.8,-1.2,-7,1.4,-13.3,3.7c-6.1,2.2,-12.8,4.7,-14.4,4.5c-1,-0.2,-4.3,-1.4,-4.5,-2.5c-0.1,-0.7,2.9,-0.9,4.2,-1.1Z" class="g7_42" />
<path d="M160.9,631.3c3.6,-2.6,12.9,-7.8,18.7,-25.2c5.8,-17.3,4.3,-23.7,3.8,-25c-0.5,-1.4,-1.9,-3.8,0.5,-3.3c2.4,0.5,7,1.6,7,3.6c0,0.7,-1.9,3,-2.4,5.4c-1.4,6.2,-2.9,17.1,-7,25.8c-3.1,6.5,-6.4,11.3,-12.9,15.7c-1.4,1,-4.5,2.6,-5.9,3.2c-2.3,1.1,-2.4,0.3,-1.8,-0.2Z" class="g6_42" />
<path d="M180.2,579c0,0,0.9,10.2,-3,23.3c-3.2,10.4,-9.7,18.7,-14.6,23.5" class="g14_42" />
<path d="M162.3,622.4l1,2.7l2.6,1.3l-6.5,2.3Z" class="g15_42" />
<path d="M257.1,643.8l77.9,0l0,-77.9l-77.9,0l0,77.9Z" class="g4_42" />
<path d="M335,643.8l-77.9,0l0,-77.9l77.9,0l0,77.9Z" class="g5_42" />
<path d="M266.1,631.3c3.6,-2.6,12.8,-7.8,18.7,-25.2c5.8,-17.3,4.3,-23.7,3.8,-25c-0.5,-1.4,-1.9,-3.8,0.5,-3.3c2.4,0.5,7,1.6,7,3.6c0,0.7,-1.9,3,-2.4,5.4c-1.4,6.2,-2.9,17.1,-7,25.8c-3.1,6.5,-6.4,11.3,-12.9,15.7c-1.4,1,-4.5,2.6,-5.9,3.2c-2.3,1.1,-2.4,0.3,-1.8,-0.2Z" class="g6_42" />
<path d="M274.3,600c1.9,-0.2,2.3,-0.1,6,-1.1c6.1,-1.8,10.7,-2.7,14.5,-4.1c3.8,-1.3,6.4,-2.8,6.8,-3.1c0.7,-0.6,1.2,-1.3,2.9,-0.7c1.9,0.7,7.2,3.4,5.4,5.1c-0.4,0.3,-2.8,2.1,-3.5,3.6c-1.9,4.3,-3.2,10.2,-3.6,16.8c-0.3,7,2.1,11.8,10.6,11.8c7.7,0.1,11.3,-0.4,12.5,-5.9c1.3,-5.5,1.4,-7.4,1.8,-6.6c0.4,0.8,0.1,3.4,0.6,7.9c0.5,3.9,1.7,5.5,0.9,6.8c-0.6,1.1,-2.5,1.5,-4.6,1.8c-2.9,0.5,-5.4,0.9,-11.4,0.7c-10.1,-0.3,-14,-6.2,-13.4,-15.7c0.6,-8.7,3.2,-20.8,2.5,-21.9c-0.8,-1.2,-7,1.4,-13.3,3.7c-6.1,2.2,-12.8,4.7,-14.4,4.5c-1,-0.2,-4.3,-1.4,-4.5,-2.5c-0.1,-0.7,2.9,-0.9,4.2,-1.1Z" class="g6_42" />
<path d="M269.8,598.8c0,0,27.8,-7.7,36.8,-11c12.7,-4.6,8.2,0.1,4.5,13c-1.3,4.7,-2.7,9.4,-3.8,14.8c-1.1,5.6,0.3,8.2,4.2,9c7.4,1.4,8.7,-0.3,9.6,-2c0.3,-0.5,1,-3.8,1.6,-6.7" class="g14_42" />
<path d="M324.9,618.5l-2.4,-1.7l-2.9,0.6l3.9,-5.7Z" class="g15_42" />


<!-- Any embedded fonts defined here -->
<style type="text/css" ><![CDATA[

@font-face {
	font-family: Alegreya-Regular_cnx;
	src: url("fonts/Alegreya-Regular_cnx.woff") format("woff");
}

@font-face {
	font-family: ProximaNova-Semibold_cnz;
	src: url("fonts/ProximaNova-Semibold_cnz.woff") format("woff");
}

@font-face {
	font-family: STKaitiSC-Regular_cof;
	src: url("fonts/STKaitiSC-Regular_cof.woff") format("woff");
}

@font-face {
	font-family: Alegreya-Bold_cny;
	src: url("fonts/Alegreya-Bold_cny.woff") format("woff");
}

@font-face {
	font-family: ProximaNova-Bold_cnt;
	src: url("fonts/ProximaNova-Bold_cnt.woff") format("woff");
}

]]></style>

</svg>
