<?xml version="1.0" encoding="UTF-8" standalone="no"?>
<!DOCTYPE svg PUBLIC "-//W3C//DTD SVG 1.1//EN"
"http://www.w3.org/Graphics/SVG/1.1/DTD/svg11.dtd">


<!-- Page 338 -->
<svg x="0" y="0" width="921" height="1196" viewBox="0 0 921 1196" version="1.1" xmlns="http://www.w3.org/2000/svg" xmlns:xlink="http://www.w3.org/1999/xlink"
style="display: block;margin-left: auto;margin-right: auto;">
<defs>

<style type="text/css"><![CDATA[

.g1_338{
fill: none;
stroke: #3986C6;
stroke-width: 1.6194444;
stroke-linecap: butt;
stroke-linejoin: miter;
stroke-miterlimit: 4;
}
.g2_338{
fill: #3986C6;
}
.g3_338{
fill: #ED692E;
}
.g4_338{
fill: none;
stroke: #3986C6;
stroke-width: 1.5277778;
stroke-linecap: butt;
stroke-linejoin: miter;
stroke-miterlimit: 4;
}
.g5_338{
fill: #FFFFFF;
}
.g6_338{
fill: none;
stroke: #3986C6;
stroke-width: 1.2375001;
stroke-linecap: butt;
stroke-linejoin: miter;
stroke-miterlimit: 4;
}
.g7_338{
fill: none;
stroke: #ED692E;
stroke-width: 1.1916666;
stroke-linecap: butt;
stroke-linejoin: miter;
stroke-miterlimit: 4;
}
.g8_338{
fill: #A8A9AD;
}
.g9_338{
fill: #231F20;
}
.g10_338{
fill: none;
stroke: #ED692E;
stroke-width: 1.375;
stroke-linecap: butt;
stroke-linejoin: miter;
stroke-miterlimit: 4;
}

.s1_338{
font-size: 18.33px;
font-family: ProximaNova-Bold_d9-;
fill: #231F20;
}
.s2_338{
font-size: 12.99px;
font-family: ProximaNova-Semibold_da4;
fill: #231F20;
}
.s3_338{
font-size: 22.92px;
font-family: STKaitiSC-Bold_cmk;
fill: #ED682D;
}
.s4_338{
font-size: 18.33px;
font-family: Alegreya-Bold_da6;
fill: #231F20;
}
.s5_338{
font-size: 19.10px;
font-family: Alegreya-Regular_da1;
fill: #231F20;
}
.s6_338{
font-size: 16.04px;
font-family: Alegreya-Regular_dak;
fill: #231F20;
}
.s7_338{
font-size: 13.61px;
font-family: TisaPro-Bold_dal;
fill: #178BCD;
}
.s8_338{
font-size: 13.61px;
font-family: TisaPro-Bold_dam;
fill: #178BCD;
}
.s9_338{
font-size: 13.61px;
font-family: TisaPro-Bold_dan;
fill: #178BCD;
}
.s10_338{
font-size: 18.33px;
font-family: ProximaNova-Bold_d9-;
fill: #3986C6;
}
.s11_338{
font-size: 22.92px;
font-family: STKaitiSC-Bold_cmk;
fill: #231F20;
}
.s12_338{
font-size: 33.39px;
font-family: STKaiti-SC-Bold_cqx;
fill: #231F20;
}
.s13_338{
font-size: 16.69px;
font-family: Alegreya-Regular_dao;
fill: #231F20;
}

]]></style>

</defs>
<path d="M0,0
L0,1196
L921,1196
L921,0 Z " 
fill="#FFFFFF" stroke="none" />
<text 
x="857" 
y="1149" 
dx="0,0,0" 
class="s1_338"
>315</text>

<path d="M872.3,1089.3l0,38.7" class="g1_338" />
<path d="M872.3,1125.4c-1.5,0,-2.6,1.1,-2.6,2.6c0,1.4,1.1,2.6,2.6,2.6c1.4,0,2.6,-1.2,2.6,-2.6c0,-1.5,-1.2,-2.6,-2.6,-2.6Z" class="g2_338" />
<text 
transform="matrix(0, 1, -1, 0, 867, 815)"
dx="0,0,0,0,0,0,0,0,0,0,0" 
class="s2_338"
>Chapter 13 </text>

<text 
transform="matrix(0, 1, -1, 0, 867, 884)"
dx="0,0" 
class="s2_338"
>• </text>

<text 
transform="matrix(0, 1, -1, 0, 867, 895)"
dx="0,-0.2,0,0,0,0,0,0,0,0,0,0,0,0,0,0,0,0,0,0" 
class="s2_338"
>Looking for Support </text>

<text 
transform="matrix(0, 1, -1, 0, 867, 1017)"
dx="0,0" 
class="s2_338"
>• </text>

<text 
transform="matrix(0, 1, -1, 0, 867, 1029)"
dx="0,0,0,0,0,0,0,0,0" 
class="s2_338"
>Section 2</text>

<path d="M275.7,292.1l3.9,0l8,-48.6l0,-1.6l-19.6,0l0,1.6Zm1.4,-11.9l-4.9,-35.1l11.2,0l-5.1,35.1Zm-3.5,-33.3l8.3,0l0.2,-0.6l-8.7,0Zm0.3,2.2l7.8,0l0.1,-0.5l-8,0Zm0.3,2.3l7.1,0l0.1,-0.6l-7.3,0Zm0.4,2.3l6.4,0l0.1,-0.6l-6.6,0Zm0.3,2.2l5.7,0l0.1,-0.6l-5.9,0Zm0.4,2.3l5,0l0.1,-0.6l-5.2,0Zm0.3,2.2l4.3,0l0.2,-0.5l-4.6,0Zm0.4,2.3l3.6,0l0.1,-0.6l-3.9,0Zm0.3,2.3l3,0l0.1,-0.6l-3.2,0Zm0.3,2.2l2.3,0l0.1,-0.5l-2.5,0Zm0.4,2.3l1.6,0l0.1,-0.6l-1.8,0Zm0.2,2.3l1.1,0l0.2,-0.6l-1.4,0Zm0.2,2.3l0.7,0l0.1,-0.6l-0.9,0Zm0.2,2.5l0.4,0l0.1,-0.7l-0.7,0Zm-8.1,27.1c0,4.8,3.3,7.8,8.2,7.8c4.9,0,8.2,-3,8.2,-7.8c0,-4.9,-3.3,-7.8,-8.2,-7.8c-4.9,0,-8.2,2.9,-8.2,7.8m3.5,0c0,-3.2,2.2,-5,4.7,-5c2.6,0,4.8,1.8,4.8,5c0,3.1,-2.2,4.9,-4.8,4.9c-2.5,0,-4.7,-1.8,-4.7,-4.9m3.1,-3.2l3.2,0l-1,-0.6l-1.3,0Zm-1.6,2.3l6.4,0l-0.3,-0.6l-5.9,0Zm0,2.3l6.5,0l0.2,-0.5l-7,0Zm1.7,1.9l0.8,0.5l1.3,0l1,-0.5Z" class="g3_338" />
<path d="M148.6,280.3l4.9,0L158,261.7l4.3,18.6l4.9,0l5.9,-22.4l2.2,0c0.1,-0.4,0.2,-1,0.2,-1.5c0,-0.5,-0.1,-1.1,-0.2,-1.7l-8.8,0c-0.2,0.5,-0.3,1.1,-0.3,1.7c0,0.2,0,0.5,0.1,0.8c0,0.3,0.1,0.5,0.2,0.7l2.6,0L165,273.5l-4.3,-18.8l-5,0l-4.5,18.8l-3.9,-15.6l2.6,0c0.2,-0.5,0.3,-1,0.3,-1.6c0,-0.5,-0.1,-1,-0.3,-1.6l-9.1,0c-0.2,0.6,-0.3,1.2,-0.3,1.7c0,0.5,0.1,1.1,0.3,1.5l2.1,0ZM176.8,277c-0.2,0.5,-0.3,1,-0.3,1.5c0,0.5,0.1,1,0.3,1.5l8.4,0c0.2,-0.5,0.3,-1,0.3,-1.5c0,-0.5,-0.1,-1,-0.3,-1.5l-1.8,0l0,-7.3c0,-1,0.1,-1.8,0.3,-2.4c0.3,-0.7,0.6,-1.2,0.9,-1.5c0.4,-0.4,0.7,-0.6,1.2,-0.8c0.4,-0.1,0.8,-0.2,1.2,-0.2c1.1,0,1.9,0.3,2.3,1c0.3,0.6,0.5,1.5,0.5,2.7l0,8.5l-1.8,0c-0.2,0.5,-0.3,1,-0.3,1.5c0,0.5,0.1,1,0.3,1.5l8.4,0c0.2,-0.5,0.3,-1,0.3,-1.5c0,-0.5,-0.1,-1,-0.3,-1.5l-2.1,0l0,-9c0,-2.1,-0.5,-3.7,-1.6,-4.8c-1,-1.1,-2.5,-1.7,-4.5,-1.7c-1.1,0,-2.1,0.2,-2.9,0.6c-0.8,0.4,-1.4,0.8,-1.9,1.4l0,-9.8l-6.6,0c-0.2,0.5,-0.3,1,-0.3,1.5c0,0.5,0.1,1,0.3,1.5l2.1,0l0,20.3Zm33.5,3l5.9,0c0.2,-0.5,0.2,-1,0.2,-1.5c0,-0.5,0,-1,-0.2,-1.5l-2,0l0,-9.2c0,-1,-0.1,-1.8,-0.4,-2.5c-0.2,-0.7,-0.6,-1.3,-1,-1.7c-0.4,-0.5,-0.8,-0.9,-1.3,-1.1c-0.6,-0.3,-1.1,-0.5,-1.6,-0.7c-0.5,-0.1,-1,-0.2,-1.5,-0.2c-0.5,-0.1,-0.9,-0.1,-1.3,-0.1c-0.8,0,-1.6,0.1,-2.3,0.2c-0.8,0.1,-1.4,0.3,-2,0.5c-0.6,0.2,-1.1,0.4,-1.5,0.6c-0.5,0.3,-0.8,0.5,-1.2,0.7l0,3.5c1.1,-0.7,2.2,-1.2,3.1,-1.6c1,-0.4,2,-0.7,3.1,-0.7c0.7,0,1.3,0.1,1.7,0.3c0.5,0.2,0.9,0.4,1.2,0.7c0.2,0.3,0.4,0.7,0.5,1.1c0.1,0.5,0.2,1,0.2,1.6c-1.2,0.1,-2.5,0.2,-3.8,0.3c-1.3,0.1,-2.5,0.3,-3.7,0.7c-1.1,0.4,-2,1,-2.7,1.9c-0.8,0.8,-1.1,2,-1.1,3.6c0,0.9,0.1,1.7,0.5,2.4c0.3,0.7,0.7,1.3,1.3,1.7c0.5,0.5,1.2,0.9,2,1.1c0.7,0.3,1.5,0.4,2.4,0.4c1.3,0,2.3,-0.2,3.2,-0.6c0.9,-0.4,1.6,-0.9,2.1,-1.6Zm-0.4,-5.9c0,0.4,-0.1,0.9,-0.4,1.3c-0.2,0.4,-0.5,0.7,-0.9,1c-0.4,0.3,-0.9,0.5,-1.4,0.7c-0.5,0.1,-1,0.2,-1.6,0.2c-0.9,0,-1.6,-0.3,-2,-0.7c-0.5,-0.5,-0.7,-1,-0.7,-1.6c0,-0.9,0.3,-1.7,0.8,-2.2c0.5,-0.6,1.3,-0.9,2.5,-1l3.7,-0.3Zm9.7,0.6c0,1.8,0.4,3.2,1.2,4.1c0.8,0.9,2.1,1.4,3.9,1.4c0.6,0,1.2,-0.1,1.8,-0.2c0.7,-0.1,1.3,-0.3,1.9,-0.5l0,-3.2c-0.6,0.3,-1.1,0.5,-1.4,0.5c-0.4,0.1,-0.8,0.1,-1.2,0.1c-0.5,0,-0.9,-0.1,-1.2,-0.3c-0.3,-0.3,-0.5,-0.8,-0.5,-1.6l0,-10l3.6,0c0.2,-0.6,0.3,-1.1,0.3,-1.5c0,-0.5,-0.1,-1,-0.3,-1.5l-3.6,0l0,-6.5l-4.5,2.3l0,4.2l-2.2,0c-0.2,0.5,-0.3,1,-0.3,1.5c0,0.4,0.1,0.9,0.3,1.5l2.2,0Zm31.7,5.3l5.8,0c0.2,-0.5,0.3,-1,0.3,-1.5c0,-0.5,-0.1,-1,-0.3,-1.5l-1.9,0l0,-9.2c0,-1,-0.2,-1.8,-0.4,-2.5c-0.3,-0.7,-0.6,-1.3,-1,-1.7c-0.4,-0.5,-0.9,-0.9,-1.4,-1.1c-0.5,-0.3,-1,-0.5,-1.6,-0.7c-0.5,-0.1,-1,-0.2,-1.5,-0.2c-0.4,-0.1,-0.9,-0.1,-1.2,-0.1c-0.9,0,-1.7,0.1,-2.4,0.2c-0.7,0.1,-1.4,0.3,-1.9,0.5c-0.6,0.2,-1.1,0.4,-1.6,0.6c-0.4,0.3,-0.8,0.5,-1.1,0.7l0,3.5c1.1,-0.7,2.1,-1.2,3.1,-1.6c0.9,-0.4,1.9,-0.7,3,-0.7c0.7,0,1.3,0.1,1.8,0.3c0.5,0.2,0.8,0.4,1.1,0.7c0.3,0.3,0.5,0.7,0.6,1.1c0.1,0.5,0.1,1,0.1,1.6c-1.2,0.1,-2.4,0.2,-3.7,0.3c-1.4,0.1,-2.6,0.3,-3.7,0.7c-1.1,0.4,-2.1,1,-2.8,1.9c-0.7,0.8,-1.1,2,-1.1,3.6c0,0.9,0.2,1.7,0.5,2.4c0.3,0.7,0.8,1.3,1.3,1.7c0.6,0.5,1.2,0.9,2,1.1c0.8,0.3,1.6,0.4,2.4,0.4c1.3,0,2.4,-0.2,3.3,-0.6c0.8,-0.4,1.6,-0.9,2.1,-1.6Zm-0.5,-5.9c0,0.4,-0.1,0.9,-0.3,1.3c-0.3,0.4,-0.6,0.7,-1,1c-0.4,0.3,-0.8,0.5,-1.3,0.7c-0.6,0.1,-1.1,0.2,-1.7,0.2c-0.8,0,-1.5,-0.3,-2,-0.7c-0.4,-0.5,-0.7,-1,-0.7,-1.6c0,-0.9,0.3,-1.7,0.8,-2.2c0.5,-0.6,1.3,-0.9,2.5,-1l3.7,-0.3Z" class="g2_338" />
<path d="M118.3,303.8c-0.6,0.5,-1.2,1,-1.8,1.4c-0.6,0.5,-1.3,0.9,-2,1.2c-0.7,0.4,-1.4,0.7,-2.2,0.9c-0.8,0.2,-1.7,0.3,-2.6,0.3c-1,0,-1.9,-0.2,-2.7,-0.6c-0.9,-0.3,-1.6,-0.9,-2.3,-1.7c-0.6,-0.7,-1.1,-1.7,-1.5,-2.9c-0.4,-1.1,-0.6,-2.5,-0.6,-4.1c0,-1.2,0.1,-2.4,0.4,-3.5c0.2,-1.2,0.7,-2.3,1.2,-3.2c0.6,-0.9,1.3,-1.7,2.2,-2.2c0.9,-0.6,1.9,-0.9,3.1,-0.9c1.8,0,3.1,0.5,4,1.4c0.9,0.9,1.3,2.1,1.3,3.5l0,2c0.7,0.3,1.4,0.5,2,0.5c0.3,0,0.6,-0.1,0.9,-0.2c0.3,0,0.6,-0.1,0.8,-0.3l0,-9.7c-0.2,-0.1,-0.5,-0.2,-0.8,-0.3c-0.3,-0.1,-0.6,-0.1,-0.9,-0.1c-0.5,0,-1.1,0.1,-1.8,0.4l0,1.3c-0.8,-0.7,-1.6,-1.2,-2.7,-1.5c-1,-0.4,-2,-0.6,-3,-0.6c-1.9,0,-3.6,0.4,-5,1.1c-1.5,0.7,-2.7,1.7,-3.7,2.9c-1,1.3,-1.8,2.7,-2.3,4.4c-0.5,1.6,-0.8,3.4,-0.8,5.2c0,1.9,0.3,3.6,0.8,5.2c0.5,1.6,1.2,2.9,2.3,4.1c1,1.2,2.2,2.1,3.7,2.7c1.5,0.7,3.3,1,5.3,1c1,0,1.9,-0.1,2.8,-0.3c0.9,-0.2,1.7,-0.4,2.4,-0.7c0.8,-0.2,1.4,-0.5,2,-0.8c0.6,-0.4,1.1,-0.6,1.5,-0.9Zm3.6,4.1c-0.2,0.5,-0.3,1,-0.3,1.5c0,0.4,0.1,0.9,0.3,1.5l8.4,0c0.2,-0.6,0.3,-1.1,0.3,-1.5c0,-0.5,-0.1,-1,-0.3,-1.5l-1.8,0l0,-7.4c0,-1,0.1,-1.8,0.3,-2.4c0.3,-0.6,0.6,-1.1,0.9,-1.5c0.4,-0.3,0.8,-0.6,1.2,-0.7c0.4,-0.2,0.8,-0.2,1.2,-0.2c1.2,0,1.9,0.3,2.3,0.9c0.4,0.7,0.5,1.6,0.5,2.8l0,8.5l-1.8,0c-0.2,0.5,-0.3,1,-0.3,1.5c0,0.4,0.1,0.9,0.3,1.5l8.5,0c0.1,-0.6,0.2,-1.1,0.2,-1.5c0,-0.5,-0.1,-1,-0.2,-1.5l-2.2,0l0,-9c0,-2.1,-0.5,-3.7,-1.5,-4.9c-1.1,-1.1,-2.6,-1.7,-4.6,-1.7c-1.1,0,-2.1,0.2,-2.9,0.6c-0.8,0.4,-1.4,0.9,-1.9,1.4l0,-9.8l-6.6,0c-0.2,0.5,-0.3,1,-0.3,1.5c0,0.5,0.1,1,0.3,1.5l2.1,0l0,20.4Zm33.5,3l5.9,0c0.2,-0.6,0.3,-1.1,0.3,-1.5c0,-0.5,-0.1,-1,-0.3,-1.5l-2,0l0,-9.2c0,-1,-0.1,-1.8,-0.4,-2.5c-0.2,-0.7,-0.5,-1.3,-0.9,-1.8c-0.4,-0.4,-0.9,-0.8,-1.4,-1.1c-0.5,-0.3,-1.1,-0.5,-1.6,-0.6c-0.5,-0.1,-1,-0.2,-1.5,-0.3c-0.5,0,-0.9,-0.1,-1.2,-0.1c-0.9,0,-1.7,0.1,-2.4,0.3c-0.7,0.1,-1.4,0.3,-2,0.5c-0.5,0.2,-1,0.4,-1.5,0.6c-0.4,0.2,-0.8,0.4,-1.1,0.6l0,3.5c1.1,-0.6,2.1,-1.2,3,-1.6c1,-0.4,2,-0.6,3.1,-0.6c0.7,0,1.3,0.1,1.8,0.3c0.4,0.1,0.8,0.3,1.1,0.6c0.2,0.3,0.4,0.7,0.5,1.2c0.1,0.5,0.2,1,0.2,1.6c-1.2,0.1,-2.5,0.2,-3.8,0.3c-1.3,0.1,-2.5,0.3,-3.6,0.7c-1.1,0.4,-2.1,1,-2.8,1.8c-0.7,0.9,-1.1,2.1,-1.1,3.7c0,0.9,0.1,1.7,0.5,2.4c0.3,0.6,0.7,1.2,1.3,1.7c0.6,0.5,1.2,0.8,2,1.1c0.7,0.2,1.6,0.3,2.4,0.3c1.3,0,2.3,-0.2,3.2,-0.6c0.9,-0.3,1.6,-0.9,2.2,-1.5Zm-0.4,-6c0,0.5,-0.1,0.9,-0.4,1.3c-0.2,0.4,-0.5,0.8,-0.9,1.1c-0.4,0.2,-0.9,0.5,-1.4,0.6c-0.5,0.2,-1,0.2,-1.6,0.2c-0.9,0,-1.5,-0.2,-2,-0.7c-0.4,-0.4,-0.7,-1,-0.7,-1.6c0,-0.9,0.3,-1.6,0.8,-2.2c0.5,-0.5,1.3,-0.8,2.5,-0.9l3.7,-0.4Zm8.4,3c-0.2,0.5,-0.3,1,-0.3,1.5c0,0.4,0.1,0.9,0.3,1.5l9,0c0.2,-0.6,0.3,-1.1,0.3,-1.5c0,-0.5,-0.1,-1,-0.3,-1.5l-2.5,0l0,-6.8c0,-0.9,0.2,-1.6,0.4,-2.2c0.3,-0.6,0.6,-1.1,0.9,-1.4c0.4,-0.3,0.8,-0.6,1.2,-0.7c0.5,-0.1,0.9,-0.2,1.2,-0.2c0.5,0,0.8,0,1.1,0.1c0.4,0.1,0.6,0.2,0.9,0.3l0.4,-3.7c-0.3,-0.1,-0.6,-0.2,-0.9,-0.3c-0.4,-0.1,-0.7,-0.2,-1.1,-0.2c-0.9,0,-1.7,0.2,-2.5,0.7c-0.8,0.4,-1.5,1.2,-2.1,2.2l-0.1,-2.9l-5.9,0c-0.2,0.5,-0.3,1,-0.3,1.5c0,0.5,0.1,1,0.3,1.5l2.1,0l0,12.1Zm24.9,3l5.8,0c0.2,-0.6,0.3,-1.1,0.3,-1.5c0,-0.5,-0.1,-1,-0.3,-1.5l-1.9,0l0,-9.2c0,-1,-0.2,-1.8,-0.4,-2.5c-0.3,-0.7,-0.6,-1.3,-1,-1.8c-0.4,-0.4,-0.9,-0.8,-1.4,-1.1c-0.5,-0.3,-1,-0.5,-1.5,-0.6c-0.6,-0.1,-1.1,-0.2,-1.6,-0.3c-0.4,0,-0.9,-0.1,-1.2,-0.1c-0.9,0,-1.7,0.1,-2.4,0.3c-0.7,0.1,-1.4,0.3,-1.9,0.5c-0.6,0.2,-1.1,0.4,-1.6,0.6c-0.4,0.2,-0.8,0.4,-1.1,0.6l0,3.5c1.1,-0.6,2.1,-1.2,3.1,-1.6c0.9,-0.4,1.9,-0.6,3,-0.6c0.7,0,1.3,0.1,1.8,0.3c0.5,0.1,0.8,0.3,1.1,0.6c0.3,0.3,0.5,0.7,0.6,1.2c0.1,0.5,0.1,1,0.1,1.6c-1.2,0.1,-2.4,0.2,-3.7,0.3c-1.4,0.1,-2.6,0.3,-3.7,0.7c-1.1,0.4,-2,1,-2.8,1.8c-0.7,0.9,-1.1,2.1,-1.1,3.7c0,0.9,0.2,1.7,0.5,2.4c0.3,0.6,0.8,1.2,1.3,1.7c0.6,0.5,1.3,0.8,2,1.1c0.8,0.2,1.6,0.3,2.4,0.3c1.3,0,2.4,-0.2,3.3,-0.6c0.9,-0.3,1.6,-0.9,2.1,-1.5Zm-0.5,-6c0,0.5,-0.1,0.9,-0.3,1.3c-0.3,0.4,-0.6,0.8,-1,1.1c-0.4,0.2,-0.8,0.5,-1.3,0.6c-0.6,0.2,-1.1,0.2,-1.7,0.2c-0.8,0,-1.5,-0.2,-2,-0.7c-0.4,-0.4,-0.6,-1,-0.6,-1.6c0,-0.9,0.2,-1.6,0.7,-2.2c0.5,-0.5,1.3,-0.8,2.5,-0.9l3.7,-0.4Zm24.1,0.3c-0.5,0.3,-0.9,0.7,-1.4,1c-0.4,0.3,-0.8,0.6,-1.3,0.8c-0.5,0.3,-1,0.4,-1.5,0.6c-0.5,0.1,-1.1,0.2,-1.8,0.2c-1.5,0,-2.7,-0.5,-3.6,-1.5c-0.9,-1.1,-1.4,-2.5,-1.4,-4.4c0,-0.7,0.1,-1.5,0.2,-2.3c0.2,-0.7,0.4,-1.4,0.7,-2c0.4,-0.6,0.8,-1.1,1.3,-1.5c0.6,-0.4,1.2,-0.6,2,-0.6c1,0,1.8,0.3,2.5,0.9c0.6,0.6,1,1.5,1,2.6l0,1.2c0.5,0.2,1.1,0.3,1.7,0.3c0.5,0,1.1,-0.1,1.7,-0.3l0,-7.2c-0.6,-0.2,-1.1,-0.3,-1.7,-0.3c-0.5,0,-1,0.1,-1.5,0.2l0,1.4c-0.4,-0.6,-0.9,-1.1,-1.7,-1.5c-0.7,-0.3,-1.5,-0.5,-2.5,-0.5c-1.4,0,-2.6,0.3,-3.6,0.8c-1.1,0.5,-1.9,1.3,-2.6,2.2c-0.7,0.9,-1.2,1.9,-1.5,3.1c-0.3,1.2,-0.5,2.4,-0.5,3.7c0,1.2,0.2,2.4,0.6,3.5c0.4,1.1,0.9,2.1,1.7,2.9c0.7,0.9,1.6,1.6,2.7,2.1c1.1,0.5,2.4,0.7,3.8,0.7c0.8,0,1.6,-0.1,2.2,-0.2c0.7,-0.1,1.3,-0.2,1.8,-0.4c0.6,-0.2,1.1,-0.4,1.5,-0.6c0.4,-0.2,0.8,-0.4,1.2,-0.6Zm4.3,0.3c0,1.8,0.4,3.2,1.2,4.2c0.7,0.9,2.1,1.4,3.9,1.4c0.5,0,1.1,-0.1,1.8,-0.2c0.6,-0.1,1.3,-0.3,1.9,-0.6l0,-3.2c-0.6,0.3,-1.1,0.5,-1.4,0.6c-0.4,0.1,-0.8,0.1,-1.2,0.1c-0.5,0,-0.9,-0.1,-1.2,-0.4c-0.4,-0.2,-0.5,-0.8,-0.5,-1.5l0,-10l3.6,0c0.2,-0.6,0.3,-1.1,0.3,-1.6c0,-0.5,-0.1,-1,-0.3,-1.5l-3.6,0l0,-6.5l-4.5,2.4l0,4.1l-2.2,0c-0.2,0.5,-0.3,1,-0.3,1.5c0,0.5,0.1,1,0.3,1.6l2.2,0Zm25.4,0.6c-1.1,0.6,-2.1,1.1,-3.1,1.4c-0.9,0.3,-1.9,0.4,-3,0.4c-0.7,0,-1.3,-0.1,-1.9,-0.3c-0.6,-0.3,-1,-0.6,-1.4,-1.1c-0.4,-0.4,-0.8,-0.9,-1,-1.5c-0.2,-0.6,-0.4,-1.2,-0.4,-1.9l11.6,0l0,-1.7c0,-1,-0.1,-2.1,-0.4,-3.2c-0.2,-1.1,-0.7,-2.1,-1.3,-2.9c-0.6,-0.9,-1.4,-1.6,-2.4,-2.1c-1,-0.6,-2.3,-0.9,-3.9,-0.9c-1.4,0,-2.7,0.3,-3.7,0.9c-1.1,0.5,-1.9,1.2,-2.6,2.1c-0.7,0.9,-1.2,1.9,-1.5,3.1c-0.3,1.1,-0.5,2.2,-0.5,3.4c0,1.2,0.2,2.4,0.6,3.5c0.3,1.2,0.9,2.2,1.6,3.1c0.8,0.9,1.7,1.6,2.9,2.1c1.2,0.6,2.6,0.8,4.3,0.8c1.1,0,2.2,-0.1,3.3,-0.4c1.1,-0.4,2,-0.7,2.8,-1.1Zm-10.8,-6c0.2,-1.3,0.5,-2.4,1.1,-3.3c0.5,-0.8,1.4,-1.2,2.5,-1.2c1.1,0,1.9,0.4,2.5,1.2c0.6,0.8,0.9,1.9,0.9,3.3Zm13.9,7.8c-0.2,0.5,-0.3,1,-0.3,1.5c0,0.4,0.1,0.9,0.3,1.5l9.1,0c0.1,-0.6,0.2,-1.1,0.2,-1.5c0,-0.5,-0.1,-1,-0.2,-1.5l-2.5,0l0,-6.8c0,-0.9,0.1,-1.6,0.4,-2.2c0.2,-0.6,0.6,-1.1,0.9,-1.4c0.4,-0.3,0.8,-0.6,1.2,-0.7c0.4,-0.1,0.8,-0.2,1.2,-0.2c0.4,0,0.8,0,1.1,0.1c0.3,0.1,0.6,0.2,0.9,0.3l0.4,-3.7c-0.3,-0.1,-0.6,-0.2,-1,-0.3c-0.3,-0.1,-0.7,-0.2,-1.1,-0.2c-0.8,0,-1.6,0.2,-2.4,0.7c-0.8,0.4,-1.5,1.2,-2.1,2.2l-0.1,-2.9l-6,0c-0.2,0.5,-0.3,1,-0.3,1.5c0,0.5,0.1,1,0.3,1.5l2.1,0l0,12.1Z" class="g3_338" />
<path d="M376.2,293.6l427.2,0L802.6,1003l-701.4,0l0,-595.8" class="g4_338" />
<path d="M101.2,411.8c-2.5,0,-4.6,-2,-4.6,-4.6c0,-2.5,2.1,-4.5,4.6,-4.5c2.6,0,4.6,2,4.6,4.5c0,2.6,-2,4.6,-4.6,4.6Z" class="g2_338" />
<text 
x="141" 
y="357" 
dx="0,0,0,0,0,0,0,0,0,0,0,0,0,0,0,0,0,0,0,0,0,0,0,0,0,0,0,0,0,0,0,0,0,0,0,0,0,0,0,0" 
class="s1_338"
>This component comes from the character </text>

<text 
x="496" 
y="354" 
dx="0" 
class="s3_338"
>手</text>

<text 
x="524" 
y="357" 
dx="0,0,0" 
class="s1_338"
>(sh</text>

<text 
x="548" 
y="357" 
dx="0" 
class="s4_338"
>ǒ</text>

<text 
x="558" 
y="357" 
dx="0,0,0,0,0,0,0,0,0,0,0,0,0,0,0,0,0,0,-1.5,0" 
class="s1_338"
>u), meaning “hand.” </text>

<text 
x="142" 
y="379" 
dx="0,0,0,0,0,0,0,0,0,0,0,0,0,0,0,0,0,0,0,0,0,0,0,0,0,0,0,0,0,0,0,0,0,0,0,0,0,0,0,0,0,0,0,0,0,0,0,0,0,0,0,0,0,0,0,0,0,0,0,0,0,0,0,0,0,0,0,0,0,0,0,0,0" 
class="s1_338"
>Characters with this component may relate to actions done with the hands.</text>

<text 
x="141" 
y="421" 
dx="0,-0.2,0,0,0,0,0,0,0,0,0,0,0,0,-0.3,0,0,0,0,0,0,0,0,0,-1,0,0,0,0,0,0,0,0,0,0,0,0,0,0,-0.3,0,0,0,0,0,0,0,0,0,0,0,0,0,-0.6,-0.4,0,0,0,0,0,-0.3,0,0,0,0,0,0,0,0,0,0,0" 
class="s5_338"
>This image shows someone’s afternoon/evening schedule. Can you find the </text>

<text 
x="142" 
y="449" 
dx="0,0,0,0,-0.2,0,0,0,0,0,0,0,-0.3,0,0,0,0,0,0,0,0,0" 
class="s5_338"
>characters containing </text>

<text 
x="315" 
y="448" 
dx="0" 
class="s3_338"
>扌</text>

<text 
x="336" 
y="449" 
dx="0,0,0,0,0,0,0,0,0,-0.2,0,0,0,0,0,0,0,-0.3,0,0,0,0,0,0,0,-0.3,0,0,0,0,0,0,0,0,0,0,0,0,0,0,-0.2,0,0,0,0,0,0,0,0,0,0,0,0" 
class="s5_338"
>(shǒu)? What do you notice about the location of the </text>

<text 
x="137" 
y="474" 
dx="0" 
class="s3_338"
>扌</text>

<text 
x="161" 
y="474" 
dx="0,0,0,0,0,0,0,0,-0.3,0,0,0,0,0,0,0,0,0,0,0,0,0,0,-0.3,0,0,0,0,0,0,0,0,0,0,0,0,0,0,0,0,0,0,0,-0.4,0,0,-0.3,0,-0.2,0,0,0,-0.3,0,0,0,0,0,0,0,0,0,0,-0.2,0,-0.3,0,0,0,0,0,-0.6,0" 
class="s5_338"
>(shǒu) component? Ask your teacher about any words you do not recognize. </text>

<text 
x="142" 
y="499" 
dx="0,0,0,0,-0.3,0,0,0,0,0,0,0,0,0,0,0,0,-0.2,0,0,0,0,0,0,0,0,-0.3,0,-0.2,0,0,0,0,0,-0.3,0,0,0,0,0,-0.2,0,0,-0.2,0,0,0,0,0,0,-0.3,0,0,0,0,0,0,0,0,0,0,0,0,0,-0.4,0,0,0,0,0,0,-0.6,0" 
class="s5_338"
>(A few of the unfamiliar words shown here can be found on the next page.)</text>

<path d="M366.2,287.8c0,19.1,-15.5,34.5,-34.5,34.5c-19.1,0,-34.5,-15.4,-34.5,-34.5c0,-19,15.4,-34.5,34.5,-34.5c19,0,34.5,15.5,34.5,34.5Z" class="g5_338" />
<path d="M366.2,287.8c0,19.1,-15.5,34.5,-34.5,34.5c-19.1,0,-34.5,-15.4,-34.5,-34.5c0,-19,15.4,-34.5,34.5,-34.5c19,0,34.5,15.5,34.5,34.5Z" class="g6_338" />
<path d="M363.9,287.8c0,17.9,-14.4,32.3,-32.2,32.3c-17.9,0,-32.3,-14.4,-32.3,-32.3c0,-17.8,14.4,-32.3,32.3,-32.3c17.8,0,32.2,14.5,32.2,32.3Z" class="g5_338" />
<path d="M363.9,287.8c0,17.9,-14.4,32.3,-32.2,32.3c-17.9,0,-32.3,-14.4,-32.3,-32.3c0,-17.8,14.4,-32.3,32.3,-32.3c17.8,0,32.2,14.5,32.2,32.3Z" class="g6_338" />
<path d="M366.2,287.8c0,19.1,-15.5,34.5,-34.5,34.5c-19.1,0,-34.5,-15.4,-34.5,-34.5c0,-19,15.4,-34.5,34.5,-34.5c19,0,34.5,15.5,34.5,34.5Z" class="g5_338" />
<path d="M366.2,287.8c0,19.1,-15.5,34.5,-34.5,34.5c-19.1,0,-34.5,-15.4,-34.5,-34.5c0,-19,15.4,-34.5,34.5,-34.5c19,0,34.5,15.5,34.5,34.5Z" class="g6_338" />
<path d="M363.9,287.8c0,17.9,-14.4,32.3,-32.2,32.3c-17.9,0,-32.3,-14.4,-32.3,-32.3c0,-17.8,14.4,-32.3,32.3,-32.3c17.8,0,32.2,14.5,32.2,32.3Z" class="g6_338" />
<text 
x="315" 
y="272" 
dx="0,0.2,0.2,0.2" 
class="s6_338"
>shǒu</text>

<path d="M332.9,279.7c0,0,0.9,-0.1,1.1,5.9c0.2,6,0,21.7,-0.2,23.9c-0.1,2.2,-0.4,2.6,-1.7,2.4c-1.4,-0.2,-2.7,-0.6,-1.5,0.8c1.3,1.4,1.9,2.8,2.4,3.8c0.6,0.9,1.9,1.2,2.7,-2.1c0.7,-2.8,0,-12.8,0.1,-19c0.1,-6.2,0.5,-10.8,1.1,-12.7c0.5,-2,0.4,-2.6,-1.3,-3.5c-1.7,-0.9,-3.9,-1.4,-2.7,0.5Z" class="g3_338" />
<path d="M326.8,292.4c0,0,3.4,-0.6,7,-1.6c3.5,-1.1,4.7,-1.8,6,-1.6c1.4,0.1,3.1,1.2,0.1,2.2c-3,1,-5.8,1.7,-9.2,2.6c-3.4,0.9,-7.3,-0.6,-3.9,-1.6Z" class="g3_338" />
<path d="M326.1,306.2c0,0,9.6,-6.7,11.7,-8.2c2.1,-1.6,2.9,-2.4,1.8,-2.4c-1.1,0,-8.3,4.3,-12.1,6.3c-3.8,2.1,-3.8,1.9,-4.3,2c-0.4,0.1,-1.9,0.1,-1.3,1.2c0.6,1.1,1.9,1.9,2.7,1.8c0.9,-0.1,0.8,-0.3,1.5,-0.7Z" class="g3_338" />
<path d="M431.3,322.7l61.4,0l0,-69.6l-61.4,0l0,69.6Z" class="g5_338" />
<path d="M449,262.4l-17.1,0l0,60.2l60.2,0l0,-60.2l-19,0" class="g7_338" />
<path d="M473.1,262.4l-24.1,0l-17.1,0l0,60.2l60.2,0l0,-60.2Z" class="g5_338" />
<path d="M449,262.4l-17.1,0l0,60.2l60.2,0l0,-60.2l-19,0" class="g7_338" />
<text 
x="458" 
y="264" 
dx="0" 
class="s7_338"
>1</text>

<path d="M461,273.9c0,0,1.1,-0.1,1.3,6.4c0.2,6.6,0,23.8,-0.2,26.2c-0.2,2.4,-0.5,2.8,-2,2.6c-1.4,-0.2,-2.9,-0.7,-1.5,0.9c1.3,1.6,2,3,2.6,4.1c0.6,1.1,2,1.4,2.9,-2.2c0.8,-3.1,0,-14,0.1,-20.8c0.1,-6.9,0.6,-11.9,1.2,-14c0.6,-2.2,0.5,-2.8,-1.4,-3.8c-1.8,-1,-4.3,-1.6,-3,0.6Z" class="g8_338" />
<path d="M454.3,287.8c0,0,3.8,-0.6,7.7,-1.8c3.9,-1.2,5.2,-2,6.6,-1.8c1.5,0.2,3.4,1.4,0.1,2.5c-3.3,1,-6.4,1.9,-10.1,2.9c-3.7,0.9,-8,-0.8,-4.3,-1.8Z" class="g9_338" />
<path d="M453.6,302.9c0,0,10.6,-7.4,12.8,-9.1c2.3,-1.6,3.2,-2.5,2,-2.5c-1.3,0,-9.1,4.7,-13.3,6.9c-4.2,2.3,-4.2,2.1,-4.6,2.2c-0.5,0.1,-2.2,0.1,-1.5,1.3c0.7,1.2,2.1,2,3,1.9c0.9,-0.1,0.8,-0.3,1.6,-0.7Z" class="g8_338" />
<path d="M451.9,285.1l14.8,-3.7" class="g10_338" />
<path d="M472.3,280l-7.2,5.3l1.1,-3.8l-2.7,-2.8Z" class="g3_338" />
<path d="M500,322.7l61.3,0l0,-69.6l-61.3,0l0,69.6Z" class="g5_338" />
<path d="M517.6,262.4l-17,0l0,60.2l60.1,0l0,-60.2l-18.9,0" class="g7_338" />
<path d="M541.8,262.4l-24.2,0l-17,0l0,60.2l60.1,0l0,-60.2Z" class="g5_338" />
<path d="M517.6,262.4l-17,0l0,60.2l60.1,0l0,-60.2l-18.9,0" class="g7_338" />
<text 
x="526" 
y="264" 
dx="0" 
class="s8_338"
>2</text>

<path d="M522.2,302.9c0,0,10.6,-7.4,12.9,-9.1c2.2,-1.6,3.1,-2.5,1.9,-2.5c-1.2,0,-9,4.7,-13.2,6.9c-4.2,2.3,-4.2,2.1,-4.7,2.2c-0.5,0.1,-2.1,0.1,-1.5,1.3c0.7,1.2,2.1,2,3.1,1.9c0.9,-0.1,0.8,-0.3,1.5,-0.7Z" class="g8_338" />
<path d="M529.7,273.9c0,0,1,-0.1,1.2,6.4c0.2,6.6,0,23.8,-0.2,26.2c-0.2,2.4,-0.5,2.8,-1.9,2.6c-1.5,-0.2,-3,-0.7,-1.6,0.9c1.4,1.6,2.1,3,2.7,4.1c0.5,1.1,1.9,1.4,2.9,-2.2c0.8,-3.1,0,-14,0.1,-20.8c0.1,-6.9,0.6,-11.9,1.2,-14c0.5,-2.2,0.4,-2.8,-1.4,-3.8c-1.9,-1,-4.3,-1.6,-3,0.6Z" class="g9_338" />
<path d="M523,287.8c0,0,3.7,-0.6,7.6,-1.8c3.9,-1.2,5.2,-2,6.7,-1.8c1.4,0.2,3.4,1.4,0.1,2.5c-3.3,1,-6.4,1.9,-10.1,2.9c-3.7,0.9,-8,-0.8,-4.3,-1.8Z" class="g9_338" />
<path d="M536.2,272.4c0,0,-0.5,30.8,-0.5,38.1c-0.7,9.9,-1.3,10.5,-2.8,10c-0.8,-0.2,-4.9,-3.5,-8.3,-6.2" class="g10_338" />
<path d="M520.1,310.5l8.5,2.7l-3.6,1.3l-0.7,3.8Z" class="g3_338" />
<path d="M567.9,322.7l61.4,0l0,-69.6l-61.4,0l0,69.6Z" class="g5_338" />
<path d="M585.6,262.4l-17.1,0l0,60.2l60.2,0l0,-60.2l-19,0" class="g7_338" />
<path d="M609.7,262.4l-24.1,0l-17.1,0l0,60.2l60.2,0l0,-60.2Z" class="g5_338" />
<path d="M585.6,262.4l-17.1,0l0,60.2l60.2,0l0,-60.2l-19,0" class="g7_338" />
<text 
x="594" 
y="264" 
dx="0" 
class="s9_338"
>3</text>

<path d="M597.6,273.9c0,0,1.1,-0.1,1.3,6.4c0.2,6.6,0,23.8,-0.2,26.2c-0.2,2.4,-0.5,2.8,-2,2.6c-1.5,-0.2,-2.9,-0.7,-1.6,0.9c1.4,1.6,2.1,3,2.7,4.1c0.6,1.1,2,1.4,2.9,-2.2c0.8,-3.1,0,-14,0.1,-20.8c0.1,-6.9,0.6,-11.9,1.2,-14c0.6,-2.2,0.5,-2.8,-1.4,-3.8c-1.8,-1,-4.3,-1.6,-3,0.6Z" class="g9_338" />
<path d="M590.9,287.8c0,0,3.8,-0.6,7.7,-1.8c3.9,-1.2,5.1,-2,6.6,-1.8c1.5,0.2,3.4,1.4,0.1,2.5c-3.3,1,-6.4,1.9,-10.1,2.9c-3.7,0.9,-8,-0.8,-4.3,-1.8Z" class="g9_338" />
<path d="M590.2,302.9c0,0,10.5,-7.4,12.8,-9.1c2.3,-1.6,3.2,-2.5,1.9,-2.5c-1.2,0,-9,4.7,-13.2,6.9c-4.2,2.3,-4.2,2.1,-4.7,2.2c-0.4,0.1,-2.1,0.1,-1.4,1.3c0.6,1.2,2.1,2,3,1.9c0.9,-0.1,0.8,-0.3,1.6,-0.7Z" class="g9_338" />
<path d="M589.3,307.9l13,-7.9" class="g10_338" />
<path d="M607.3,296.9l-5.3,7.2l-0.1,-3.9l-3.4,-1.9Z" class="g3_338" />
<text 
x="88" 
y="100" 
dx="0,0,0,0,0,0,0,0,0,0" 
class="s10_338"
>Activity 2</text>

<text 
x="179" 
y="99" 
dx="0,-0.8,0,0,0,0,-0.2,0,-0.4,0,0,0,-0.3,0,0,0,0,0" 
class="s5_338"
>Yesterday evening </text>

<text 
x="323" 
y="99" 
dx="0,0" 
class="s11_338"
>李然</text>

<text 
x="374" 
y="99" 
dx="0,-0.3,0,0,0,0,0,0,0,0,0,0,0,0,0,0,0,0,0,0,0,0,0,0,0,0,-0.2,0,0,0,0,-0.3,0,0,0,0,0,0,0,0,0,0,0,0,0,0,0,0,0,0,0,0,0,0,0" 
class="s5_338"
>forgot that he had band practice and rushed out in the </text>

<text 
x="88" 
y="124" 
dx="0,0,0,0,0,0,0,0,0,0,0,0,0,0,0,0,-1.5,-0.4,0,0,-0.2,-0.4,0,0,0,0,0,0,0,0,0,-0.2,0,0,0,0,0,0,0,0,0,0,0,0,0,0,0,0,0,0,0,0,0,0,0,0,0,0,0,0,0,0,0,0,0,0,0,-0.3,0,0,0,0,0,0,0,0,0,0,0,0,0,0,0,0,0,0,0,0,0,0,0,0,0,0" 
class="s5_338"
>middle of dinner. Draw a picture of his home just after he left showing that he finished some </text>

<text 
x="89" 
y="150" 
dx="0,0,0,0,0,0,0,0,0,0,0,0,0,0,0,0,-0.3,0,0,0,0,0,0,0,0,0,0,0,0,0,0,0,0,0,0,0,0,0,0,0,0,0,0,0,0,0,0,0,0,0,0,0,0,0,-0.4,-0.4,0,-0.2,0,-0.3,0,0,-0.3,0,0,0,0,0,0,0,0,0,-0.2,0,0,0,0,0,0,0,0,0,0,0,0,0,0,0,0,0,-0.4,0,-0.2,0,0" 
class="s5_338"
>activities but was right in the middle of doing others. Show your picture to a classmate — can </text>

<text 
x="88" 
y="177" 
dx="0,-0.3,0,0,0,0,0,0,0,0,0,0,0,0,0,0,0,0,0,0,0,0,0,0,0,0,0" 
class="s5_338"
>your partner describe what </text>

<text 
x="302" 
y="177" 
dx="0,0" 
class="s11_338"
>李然</text>

<text 
x="352" 
y="177" 
dx="0,0,0,0,0,0,0,0,0,0,0,0,0,0,0,0,0,-0.3,0,0,0,0,0,0,0,0,0,0,0" 
class="s5_338"
>had and had not yet finished?</text>

<image preserveAspectRatio="none" x="256" y="598" width="299" height="300" xlink:href="338/img/1.png" />
<text 
x="338" 
y="587" 
dx="0,0,0,0" 
class="s12_338"
>收拾东西</text>

<text 
x="552" 
y="695" 
dx="0,0,0" 
class="s12_338"
>拉二胡</text>

<text 
x="552" 
y="817" 
dx="0,0,0" 
class="s12_338"
>打篮球</text>

<text 
x="372" 
y="956" 
dx="0,0" 
class="s12_338"
>扫地</text>

<text 
x="385" 
y="921" 
dx="0,0,0,0,0,0" 
class="s13_338"
>sǎo dì</text>

<text 
x="346" 
y="555" 
dx="0,0,0,0,0,0,0" 
class="s13_338"
>shōushi</text>

<text 
x="415" 
y="555" 
dx="0,0,0,0,0,0" 
class="s13_338"
>dōngxi</text>



<!-- Any embedded fonts defined here -->
<style type="text/css" ><![CDATA[

@font-face {
	font-family: STKaitiSC-Bold_cmk;
	src: url("fonts/STKaitiSC-Bold_cmk.woff") format("woff");
}

@font-face {
	font-family: Alegreya-Bold_da6;
	src: url("fonts/Alegreya-Bold_da6.woff") format("woff");
}

@font-face {
	font-family: Alegreya-Regular_dak;
	src: url("fonts/Alegreya-Regular_dak.woff") format("woff");
}

@font-face {
	font-family: Alegreya-Regular_dao;
	src: url("fonts/Alegreya-Regular_dao.woff") format("woff");
}

@font-face {
	font-family: Alegreya-Regular_da1;
	src: url("fonts/Alegreya-Regular_da1.woff") format("woff");
}

@font-face {
	font-family: STKaiti-SC-Bold_cqx;
	src: url("fonts/STKaiti-SC-Bold_cqx.woff") format("woff");
}

@font-face {
	font-family: ProximaNova-Bold_d9-;
	src: url("fonts/ProximaNova-Bold_d9-.woff") format("woff");
}

@font-face {
	font-family: TisaPro-Bold_dan;
	src: url("fonts/TisaPro-Bold_dan.woff") format("woff");
}

@font-face {
	font-family: ProximaNova-Semibold_da4;
	src: url("fonts/ProximaNova-Semibold_da4.woff") format("woff");
}

@font-face {
	font-family: TisaPro-Bold_dam;
	src: url("fonts/TisaPro-Bold_dam.woff") format("woff");
}

@font-face {
	font-family: TisaPro-Bold_dal;
	src: url("fonts/TisaPro-Bold_dal.woff") format("woff");
}

]]></style>

</svg>
