<?xml version="1.0" encoding="UTF-8" standalone="no"?>
<!DOCTYPE svg PUBLIC "-//W3C//DTD SVG 1.1//EN"
"http://www.w3.org/Graphics/SVG/1.1/DTD/svg11.dtd">


<!-- Page 302 -->
<svg x="0" y="0" width="921" height="1196" viewBox="0 0 921 1196" version="1.1" xmlns="http://www.w3.org/2000/svg" xmlns:xlink="http://www.w3.org/1999/xlink"
style="display: block;margin-left: auto;margin-right: auto;">
<defs>
<clipPath id="c0_302"><path d="M0,1196.3L0,0L921.3,0l0,1196.3Z" /></clipPath>

<style type="text/css"><![CDATA[

.g1_302{
fill: #243E72;
}
.g2_302{
fill: none;
stroke: #1E3F72;
stroke-width: 1.5277778;
stroke-linecap: butt;
stroke-linejoin: miter;
stroke-miterlimit: 4;
}
.g3_302{
fill: #1E3F72;
}
.g4_302{
fill: #3C62A7;
}
.g5_302{
fill: #B5B6B9;
}
.g6_302{
fill: #3C62A8;
}
.g7_302{
fill: #FFFFFF;
}

.s1_302{
font-size: 24.44px;
font-family: Alegreya-Black_d90;
fill: #040504;
}
.s2_302{
font-size: 29.35px;
font-family: ProximaNova-Bold_d8s;
fill: #FFFFFF;
}
.s3_302{
font-size: 13.75px;
font-family: Alegreya-Medium_d91;
fill: #231F20;
}
.s4_302{
font-size: 22.92px;
font-family: ProximaNova-Extrabld_d8x;
fill: #FFFFFF;
}
.s5_302{
font-size: 19.86px;
font-family: Alegreya-Bold_d8_;
fill: #FFFFFF;
}
.s6_302{
font-size: 24.44px;
font-family: ProximaNova-Extrabld_d8x;
fill: #3C62A7;
}
.s7_302{
font-size: 15.28px;
font-family: Alegreya-Bold_d8_;
fill: #231F20;
}
.s8_302{
font-size: 13.75px;
font-family: ProximaNovaA-Regular_d92;
fill: #231F20;
}
.s9_302{
font-size: 22.92px;
font-family: Alegreya-Black_d90;
fill: #3C62A7;
}
.s10_302{
font-size: 16.81px;
font-family: ProximaNova-Semibold_d8z;
fill: #FFFFFF;
}
.s11_302{
font-size: 18.33px;
font-family: ProximaNova-Bold_d8s;
fill: #FFFFFF;
}

]]></style>

</defs>
<path d="M0,0
L0,1196
L921,1196
L921,0 Z " 
fill="#FFFFFF" stroke="none" />
<path d="M491.8,928.2l0,0l0,-52c0,-9.1,-7.4,-16.5,-16.5,-16.5l-475.2,0l0,68.5Z" class="g1_302" />
<path d="M163.4,894l399.8,0" class="g2_302" />
<path d="M563.2,899.5c3,0,5.5,-2.5,5.5,-5.5c0,-3.1,-2.5,-5.5,-5.5,-5.5c-3,0,-5.5,2.4,-5.5,5.5c0,3,2.5,5.5,5.5,5.5Z" class="g3_302" />
<g clip-path="url(#c0_302)">
<path d="M0,928.2l0,0L0,1210l935,0l0,-281.8Z" class="g4_302" />
</g>
<text 
x="597" 
y="884" 
dx="0,-0.5,-0.2,0,0,0,0,0,0,0,0,0,0,0,0,0,0,0,0,0,0,0,0,0,0,0,0,0" 
class="s1_302"
>How is student life similar </text>

<text 
x="598" 
y="911" 
dx="0,0,0,-0.2,0,0,0,0,0,0,0,0,0,0,0,0,-0.2,0,-0.5,0,0" 
class="s1_302"
>throughout the world?</text>

<image preserveAspectRatio="none" x="0" y="0" width="921" height="518" xlink:href="302/img/1.png" />
<path d="M199.3,606c-47.5,0,-86,38.5,-86,86c0,47.5,38.5,86,86,86c26.2,0,49.7,-11.8,65.4,-30.3L199.3,692Z" class="g5_302" />
<path d="M199.3,606l0,86l65.4,55.7c12.8,-15,20.5,-34.5,20.5,-55.7c0,-47.5,-38.5,-86,-85.9,-86Z" class="g6_302" />
<text 
x="213" 
y="688" 
dx="0,0,0" 
class="s2_302"
>36%</text>

<path d="M476.3,606l0,86l-83.8,19.4c8.8,38.1,43,66.6,83.8,66.6c47.5,0,86,-38.5,86,-86c0,-47.5,-38.5,-86,-86,-86Z" class="g6_302" />
<path d="M476.3,606c-47.5,0,-86,38.5,-86,86c0,6.7,0.8,13.2,2.2,19.4L476.3,692Z" class="g5_302" />
<text 
x="452" 
y="733" 
dx="0,0,0,0,-0.6" 
class="s2_302"
>71.6%</text>

<path d="M752.7,606l0,86L672.1,662c-3.5,9.3,-5.4,19.4,-5.4,30c0,47.5,38.5,86,86,86c47.5,0,86,-38.5,86,-86c0,-47.5,-38.5,-86,-86,-86Z" class="g6_302" />
<path d="M752.7,606c-37,0,-68.5,23.3,-80.6,56l80.6,30Z" class="g5_302" />
<text 
x="770" 
y="679" 
dx="0,0,0" 
class="s2_302"
>81%</text>

<text 
x="88" 
y="815" 
dx="0,-0.2,0,0,-0.1,-0.2,0,0,0,-0.2,0,0,0,0,0,0,0,0,-0.3,0,0,0,0,0,0,-0.2,0,0,0,0,0,0,0,0,0,0,0,0,0,0,0,0,0,-0.6,0,0,0,0,-0.6,0,0,0,-0.4,0,0,0,0,0,0,0,0,0,0,0,0,0,0,0,0,-0.3,0,0,0,0" 
class="s3_302"
>Source: National Health Commission of the People's Republic of China, 2018</text>

<text 
x="143" 
y="889" 
dx="0,0.1,0.1,0.1,0.1,0.1,0.1,0.1,0.1,0.1,0.1,0.1,0.1,0.1,0.1" 
class="s4_302"
>REFLEct ON tHE </text>

<text 
x="143" 
y="914" 
dx="0,0.1,0.1,0.1,0.1,0.1,0.1,0.1,0.1,0.1,0.1,0.1,0.1,0.1,0.1,0.1,0.1,0.1,0.1" 
class="s4_302"
>ESSENtIAL QUEStION </text>

<text 
x="205" 
y="1050" 
dx="0,-0.1,0,0,-0.3,0,0,0,0,0,0,0,0,0,0,-0.3,0,0,-0.2,-0.3,0,-0.2,0,0,0,0,0,0,-0.3,0,0,0,0,0,0,0,0,0,0,0,0,0,0,0,0,0,0,0,0,0,0,-0.3,0,0,0,0,-0.4,-0.2,0,0,0,0,0,-0.2,0,0,0,-0.3,0" 
class="s5_302"
>Do you think eye exercises would be beneficial to you? Are there any </text>

<text 
x="204" 
y="1073" 
dx="0,-0.2,-0.3,0,-0.2,0,0,0,0,0,0,-0.3,0,0,0,0,0,0,0,0,0,0,0,-0.3,0,0,0,0,0,0,0,-0.3,0" 
class="s5_302"
>exercises you do to stay healthy?</text>

<text 
x="205" 
y="989" 
dx="0,0,0,0,0,0,0,0,0,-0.3,0,0,0,0,0,0,0,0,0,0,0,-0.3,0,0,-0.2,0,-0.2,0,0,0,0,0,-0.3,0,0,0,0,-0.1,0,0,0,0,0,0,0,0,-0.3,0,0,0,0,-0.2,0,0,0,0,0,0,-0.2,0,-0.1,0,0,0,0,0,-0.3,-0.1,0,0,0" 
class="s5_302"
>What do you do to take care of yourself when you are not feeling well? </text>

<text 
x="205" 
y="1012" 
dx="0,-1.4,0,0,0,0,0,-0.3,0,0,0,0,0.3,0,0,0,0,0,0,0,0,0,0,0,0,0,0,0,0,0,0,-0.3,0,0,0,0,-0.3,0,0,0,0,0,0,0,-0.3,0,0,0,0,0,0,-0.3,0,0,0,0,0" 
class="s5_302"
>Would you try drinking hot or warm water? Why or why not?</text>

<path d="M164,1012c9.7,0,17.6,-7.9,17.6,-17.7c0,-9.8,-7.9,-17.7,-17.6,-17.7c-9.8,0,-17.7,7.9,-17.7,17.7c0,9.8,7.9,17.7,17.7,17.7Z" class="g7_302" />
<path d="M164,1072.8c9.7,0,17.6,-7.9,17.6,-17.7c0,-9.7,-7.9,-17.6,-17.6,-17.6c-9.8,0,-17.7,7.9,-17.7,17.6c0,9.8,7.9,17.7,17.7,17.7Z" class="g7_302" />
<path d="M164,1133.7c9.7,0,17.6,-8,17.6,-17.7c0,-9.8,-7.9,-17.7,-17.6,-17.7c-9.8,0,-17.7,7.9,-17.7,17.7c0,9.7,7.9,17.7,17.7,17.7Z" class="g7_302" />
<text 
x="157" 
y="1001" 
dx="0" 
class="s6_302"
>1</text>

<text 
x="155" 
y="1062" 
dx="0" 
class="s6_302"
>2</text>

<text 
x="156" 
y="1123" 
dx="0" 
class="s6_302"
>3</text>

<text 
x="205" 
y="1122" 
dx="0,0,0,0,0,0,0,0,0,0,0,0,0,0,0,0.3,0,0,-0.3,0,0,0,0,0,0,0,-0.2,0,0,-0.2,0,0,0,0,0,0,0,0,0,-0.3,0,0,0,0,0,-0.1,0,0,0,0,0,0,0,-0.2,0,0,0" 
class="s5_302"
>What health services or programs does your school offer? </text>

<text 
x="88" 
y="587" 
dx="0,0.1,0,0,0,0,0,0,0,0.1,0,0,0,0,0,0,0,0.2,0,0,-0.2,-0.1,0,0,0,0,0,0,0,0,0,0,0,0" 
class="s7_302"
>Chinese Elementary School Students</text>

<text 
x="376" 
y="587" 
dx="0,0.1,0,0,0,0,0,0,0,-0.1,0,0,0,0,0,0,-0.2,-0.1,0,0,0,0,0,0,0,0,0,0,0,0" 
class="s7_302"
>Chinese Middle School Students</text>

<text 
x="657" 
y="587" 
dx="0,0.1,0,0,0,0,0,0,0,-0.1,0,0,0,0,-0.2,-0.1,0,0,0,0,0,0,0,0,0,0,0,0" 
class="s7_302"
>Chinese High School Students</text>

<path d="M587.6,817.8l14.5,0l0,-14.4l-14.5,0l0,14.4Z" class="g6_302" />
<text 
x="607" 
y="815" 
dx="0,0,0,-0.2,0,0,0,0,0,0,0,0,0,0,0,0,0,0,0,0,0,0,0,0,0,0,0,0,0,0,0,0,0,0,0,0" 
class="s8_302"
>= Percentage of students with myopia</text>

<text 
x="88" 
y="553" 
dx="0,0,0,0,0,0,0,0,-0.5,0,0,0,0,0,0,0,0,-0.3,-0.2,0,0,0,0,0,0,0,0,0,0,0,-0.5,0,0,0,0,0,0.2,0,0,0,0,0,0,0,0,0,0,0,0,0,0" 
class="s9_302"
>By the Numbers: Myopia Rates Among Chinese Students</text>

<image preserveAspectRatio="none" x="81" y="464" width="413" height="51" xlink:href="302/img/2.png" />
<text 
x="88" 
y="483" 
dx="0,-0.3,0,0,0,0,0,0,0,0,0,0,0,0,0,0,0,0,0,0,0,0,0,0,0,0,0,0,0,0,0,0,0,0,0,0,0,0,-0.4,0,0,0,0,0,0,0,0,0,0,0,0,0,0" 
class="s10_302"
>Students at a Shanghai high school take a break from </text>

<text 
x="88" 
y="504" 
dx="0,0,0,0,0,0,0,0,0,0,0,0,0,0,0,0,0,0,0,0,0,0,0,0,0,0,0,-0.7,-0.4,0,0,0,0,0,0" 
class="s10_302"
>classwork to do their eye exercises</text>

<text 
x="855" 
y="1165" 
dx="0,0,0" 
class="s11_302"
>279</text>



<!-- Any embedded fonts defined here -->
<style type="text/css" ><![CDATA[

@font-face {
	font-family: ProximaNova-Extrabld_d8x;
	src: url("fonts/ProximaNova-Extrabld_d8x.woff") format("woff");
}

@font-face {
	font-family: Alegreya-Black_d90;
	src: url("fonts/Alegreya-Black_d90.woff") format("woff");
}

@font-face {
	font-family: Alegreya-Bold_d8_;
	src: url("fonts/Alegreya-Bold_d8_.woff") format("woff");
}

@font-face {
	font-family: ProximaNova-Bold_d8s;
	src: url("fonts/ProximaNova-Bold_d8s.woff") format("woff");
}

@font-face {
	font-family: ProximaNovaA-Regular_d92;
	src: url("fonts/ProximaNovaA-Regular_d92.woff") format("woff");
}

@font-face {
	font-family: ProximaNova-Semibold_d8z;
	src: url("fonts/ProximaNova-Semibold_d8z.woff") format("woff");
}

@font-face {
	font-family: Alegreya-Medium_d91;
	src: url("fonts/Alegreya-Medium_d91.woff") format("woff");
}

]]></style>

</svg>
