<?xml version="1.0" encoding="UTF-8" standalone="no"?>
<!DOCTYPE svg PUBLIC "-//W3C//DTD SVG 1.1//EN"
"http://www.w3.org/Graphics/SVG/1.1/DTD/svg11.dtd">


<!-- Page 370 -->
<svg x="0" y="0" width="921" height="1196" viewBox="0 0 921 1196" version="1.1" xmlns="http://www.w3.org/2000/svg" xmlns:xlink="http://www.w3.org/1999/xlink"
style="display: block;margin-left: auto;margin-right: auto;">
<defs>
<clipPath id="c0_370"><path d="M582.8,613L566,608.1L490.8,469c0,0,16.1,-1.6,19,-2.1c2.8,-0.5,10.1,-3.9,13.8,-6.8c3.7,-2.9,3.6,-8.8,0.5,-12.4c-1.4,-1.6,-4,-2.1,-6.9,-2.1c-3.3,0,-6.9,0.6,-9.1,0.6c-4.3,0,-12.3,-0.8,-18.9,-0.8c-6.7,0,-13.3,-1,-13.3,-1L465.5,428.8l3.4,-1.7c0,0,4.1,-1.6,7.7,-1.6c0.4,0,0.8,0,1.2,0c3.6,0.5,22.1,8.6,36.9,8.6c0.8,0,1.6,0,2.3,-0.1c15.2,-0.9,19,-3.8,19.4,-9.4c0.3,-4.6,-5.2,-7.6,-8,-7.6c-2.8,0,-20.3,-6.6,-20.3,-6.6c0,0,-9.5,-3.3,-14.7,-6.2c-5.2,-2.8,-19.8,-9.9,-22.2,-9.9c-2.4,0,-21.3,5.6,-21.3,5.6l-5.1,-8.7c0,0,11,-6.8,12.5,-7c0.1,0,0.1,0,0.2,0c1.7,0,6.9,2,10.6,3.2c4.3,1.5,11.2,1.8,15.5,1.8c2.5,0,4.1,-0.1,4.1,-0.1c0,0,3.8,2.3,15.6,4.7c2.4,0.5,4.5,0.7,6.5,0.7c7.6,0,11.7,-3.3,12.4,-6.3c1,-3.8,-5.2,-8.1,-5.2,-8.1c0,0,-27.4,-13.2,-30.7,-14.6c-3.3,-1.4,-29.7,-9.9,-34.9,-9.9c-5.2,0,-14.3,2.2,-15.6,2.8c-1.7,0.7,-8.3,5.6,-8.3,5.6L398.2,320.5l6,-16.7c0,0,165.7,-95.8,172,-99.3c1.8,-1.1,3.7,-1.4,5.3,-1.4c3.8,0,6.5,1.9,6.5,1.9l49.5,96.2l29.9,237.6c0,0,-61.9,62.1,-69.9,67.3c-8,5.2,-14.7,6.9,-14.7,6.9Z" /></clipPath>

<style type="text/css"><![CDATA[

.g1_370{
fill: none;
stroke: #3986C6;
stroke-width: 1.6194444;
stroke-linecap: butt;
stroke-linejoin: miter;
stroke-miterlimit: 4;
}
.g2_370{
fill: #3986C6;
}
.g3_370{
fill: #FFFFFF;
}
.g4_370{
fill: #F0EA29;
}

.s1_370{
font-size: 12.99px;
font-family: ProximaNova-Semibold_db4;
fill: #231F20;
}
.s2_370{
font-size: 18.33px;
font-family: ProximaNova-Bold_da-;
fill: #231F20;
}
.s3_370{
font-size: 18.33px;
font-family: ProximaNova-Bold_da-;
fill: #3986C6;
}
.s4_370{
font-size: 19.10px;
font-family: Alegreya-Regular_db1;
fill: #231F20;
}
.s5_370{
font-size: 19.10px;
font-family: Alegreya-Bold_db6;
fill: #3986C6;
}

]]></style>

</defs>
<path d="M0,0
L0,1196
L921,1196
L921,0 Z " 
fill="#FFFFFF" stroke="none" />
<text 
transform="matrix(0, 1, -1, 0, 867, 905)"
dx="0,0,0,0,0,0,0,0,0,0,0" 
class="s1_370"
>Chapter 14 </text>

<text 
transform="matrix(0, 1, -1, 0, 867, 974)"
dx="0,0" 
class="s1_370"
>• </text>

<text 
transform="matrix(0, 1, -1, 0, 867, 985)"
dx="0,0,0,0,0,0,0,0,0,0,0,0,0,0,0" 
class="s1_370"
>Making Progress</text>

<text 
x="856" 
y="1155" 
dx="0,0,0" 
class="s2_370"
>347</text>

<path d="M872.3,1089.3l0,38.7" class="g1_370" />
<path d="M872.3,1125.4c-1.5,0,-2.6,1.1,-2.6,2.6c0,1.4,1.1,2.6,2.6,2.6c1.4,0,2.6,-1.2,2.6,-2.6c0,-1.5,-1.2,-2.6,-2.6,-2.6Z" class="g2_370" />
<text 
x="92" 
y="104" 
dx="0,-0.4,0,0,0,0,0,0,0,0" 
class="s3_370"
>Passage 2 </text>

<text 
x="190" 
y="104" 
dx="0,-0.8,0,0,0,0,0,0,0,0,0,0,0,-0.3,0,0,0,0,0,0,0,0,0,0,0,0,-0.2,-0.3,-0.3,0,0,0,0,0,0,0,0,0,0,0,0,0,0,0,-0.2,0,0,0,0,0,0,0,0,0,0,0,0,0,0,0,0,0,0,0,0,0,0,0,0,0,0,0" 
class="s4_370"
>Your friend wanted to improve her Chinese pronunciation and bought this </text>

<text 
x="88" 
y="130" 
dx="0,0,0,0,0,0,0,0,0,0,0,0,0,0,0,0,0,0,0,0,-0.2,-0.6,-0.4,0,0,0,0,-0.3,0,0,0,0,0,0,0,0,0,0,0,0,0,0,0,0,-0.4,0,0,0,0,0,0,0,0,0,0,0,0,0,0,0,0,0" 
class="s4_370"
>book at the bookstore. Do you think she picked the right book?</text>

<text 
x="89" 
y="718" 
dx="0,-0.4,0,0,0,0,0,0,0" 
class="s3_370"
>Passage 3</text>

<text 
x="183" 
y="718" 
dx="0,0,0,0,0,0,0,0,0,0,0,0,0,0,0,-0.3,0,-0.4,-0.3,0,0,0,0,0,0,0,0,0,0,0,0,-0.3,0,0,0,0,-0.2,0,-0.4,0,0,0,0,0,0,0,0,-0.8,-0.4,0,0,0,0,0,0,0,0,0,0,0,0,0,-0.3,0,0,0,0,0,0,0,-0.3,0,0,0,-0.3,0,0,0,0" 
class="s4_370"
>Listen to the conversation between Miko and Leo, and then answer the following </text>

<text 
x="89" 
y="744" 
dx="0,0,0,0,0,0,0,0,0,-0.4,-0.4" 
class="s4_370"
>questions. </text>

<text 
x="88" 
y="776" 
dx="0" 
class="s5_370"
>1</text>

<text 
x="104" 
y="776" 
dx="0,-0.2,0,0,0,0,0,0,0,0,0,-0.2,0,-0.4,0,0,0,-0.4,0,0,0,0,0,0,0,0,-0.4,0,0,0,0,0,-0.2,0,0,0,0,0,0,0,0,-0.2,0,0" 
class="s4_370"
>What does Miko say she likes more and more? </text>

<text 
x="109" 
y="809" 
dx="0,0,0,0,0,0,0,0,0,0,0,0,0,0,0,0,0,0,0,0,0" 
class="s4_370"
>(a) speaking Chinese </text>

<text 
x="109" 
y="835" 
dx="0,0,0,0,0,-0.2,0,0,0,0,0,0,0,0,0,0,0,0,0" 
class="s4_370"
>(b) reading Chinese</text>

<text 
x="109" 
y="861" 
dx="0,0,0,0,0,0,0,0,0,0,0,0,0,0,0,0,0,0,0" 
class="s4_370"
>(c) writing Chinese</text>

<text 
x="88" 
y="901" 
dx="0" 
class="s5_370"
>2</text>

<text 
x="107" 
y="901" 
dx="0,-0.2,0,0,0,0,0,0,0,0,-0.2,0,0,0,0,0,0,0,0,0,0,0,0,-0.3,0,0,0,0,0,0,0,0,0,0,-0.2,-0.3,-0.3,0,0,0,0,0,0,0,0,0,0,0,0,0,0" 
class="s4_370"
>In what area does Leo want to improve his Chinese? </text>

<text 
x="109" 
y="934" 
dx="0,0,0,0,0,0,-0.2,0,0,0,0,0" 
class="s4_370"
>(a) grammar </text>

<text 
x="109" 
y="960" 
dx="0,0,0,0,0,0,0,0,-0.2,0,0,0,0,0,0,0,0,0,0,0,0,0" 
class="s4_370"
>(b) character writing </text>

<text 
x="109" 
y="986" 
dx="0,0,0,0,0,0,-0.2,0,0,0,0,0,0,0,0,0,0,0" 
class="s4_370"
>(c) pronunciation </text>

<text 
x="88" 
y="1025" 
dx="0" 
class="s5_370"
>3</text>

<text 
x="105" 
y="1025" 
dx="0,-0.2,0,0,0,0,0,0,0,0,0,0,0,0,0,0,0,0,0,0,-0.2,0,-0.4,0,0,0,0,0" 
class="s4_370"
>What will Leo help Miko do? </text>

<text 
x="109" 
y="1058" 
dx="0,0,0,0,0,0,0,0,-0.3,0,0,0,0,0,0,0,0,0,0,0,0,0,-0.2,0,0,0,0,0,0,0,-0.2,0,0,0,0,0" 
class="s4_370"
>(a) solve a Chinese grammar problem </text>

<text 
x="109" 
y="1084" 
dx="0,0,0,0,0,-0.2,0,0,0,0,0,0,0,0,0,0,-0.3,0,-0.2,0,0,0,0,0,0.3" 
class="s4_370"
>(b) review new vocabulary</text>

<text 
x="109" 
y="1110" 
dx="0,0,0,0,0,0,-0.2,0,0,0,0,0,0,0,0,0,0,0,-0.2,-0.3,1.1,0,0,0,0,0,0,0,0,0" 
class="s4_370"
>(c) preview tomorrow’s lesson </text>

<image preserveAspectRatio="none" x="89" y="173" width="721" height="480" xlink:href="370/img/1.png" />
<image preserveAspectRatio="none" x="455" y="204" width="159" height="101" xlink:href="370/img/2.png" />
<image preserveAspectRatio="none" x="402" y="255" width="53" height="151" xlink:href="370/img/3.png" />
<image preserveAspectRatio="none" x="614" y="255" width="54" height="353" xlink:href="370/img/4.png" />
<image preserveAspectRatio="none" x="455" y="305" width="159" height="101" xlink:href="370/img/5.png" />
<image preserveAspectRatio="none" x="455" y="406" width="159" height="101" xlink:href="370/img/6.png" />
<image preserveAspectRatio="none" x="508" y="507" width="106" height="101" xlink:href="370/img/7.png" />
<g clip-path="url(#c0_370)">
<path d="M445.5,329.2l2.5,-1.5l3.9,6.8l2,-1.1l-4,-6.8l2.5,-1.5l-1,-1.6l-6.9,4.1Zm12.5,1.7l6.4,-3.7l-1,-1.7l-4.4,2.6l-1.2,-1.9l3.8,-2.2l-0.9,-1.5l-3.8,2.2L456,323l4.3,-2.6l-0.9,-1.6l-6.3,3.7Zm7.6,-4.4l1.9,-1.2l-0.4,-1.9l3.1,-1.8l1.4,1.3l2.1,-1.2l-8,-6.6l-2,1.2Zm0.8,-6.6c-0.1,-0.2,-0.2,-0.5,-0.2,-0.8c-0.1,-0.3,-0.2,-0.6,-0.3,-0.8c-0.1,-0.3,-0.2,-0.6,-0.3,-0.9l0,-0.1c0.2,0.2,0.4,0.4,0.6,0.6c0.1,0.2,0.3,0.4,0.6,0.7c0.2,0.2,0.4,0.4,0.7,0.7l1.4,1.2l-2.1,1.3ZM479.9,318c0.3,-0.4,0.6,-0.9,0.7,-1.4c0.1,-0.4,0.2,-0.9,0.1,-1.4c0,-0.4,-0.1,-0.9,-0.4,-1.3l-1.9,1.1c0.2,0.5,0.3,0.9,0.1,1.4c-0.1,0.5,-0.4,0.8,-0.9,1.2c-0.4,0.1,-0.7,0.3,-1,0.3c-0.4,0,-0.7,-0.1,-1.1,-0.2c-0.3,-0.1,-0.6,-0.4,-0.9,-0.6c-0.3,-0.3,-0.6,-0.6,-0.8,-1c-0.2,-0.4,-0.4,-0.8,-0.5,-1.2c-0.1,-0.4,-0.2,-0.8,-0.1,-1.1c0,-0.4,0.1,-0.7,0.3,-1c0.2,-0.3,0.5,-0.6,0.8,-0.8c0.5,-0.2,0.9,-0.3,1.4,-0.3c0.4,0.1,0.8,0.3,1.1,0.7l1.9,-1.1c-0.3,-0.5,-0.7,-0.8,-1.1,-1.1c-0.5,-0.3,-1,-0.4,-1.5,-0.5c-0.5,0,-0.9,0,-1.3,0.1c-0.5,0.2,-0.9,0.4,-1.4,0.6c-0.6,0.4,-1.1,0.8,-1.5,1.4c-0.4,0.5,-0.6,1,-0.8,1.6c-0.1,0.6,-0.1,1.3,0,1.9c0.1,0.6,0.4,1.3,0.7,1.9c0.4,0.6,0.8,1.1,1.4,1.6c0.5,0.4,1,0.7,1.6,0.9c0.6,0.1,1.2,0.2,1.8,0.1c0.7,-0.1,1.3,-0.3,1.9,-0.7c0.6,-0.3,1.1,-0.7,1.4,-1.1m3.8,-2.2l1.9,-1.1l-2.1,-3.5l3.2,-1.9l2.1,3.5l1.9,-1.1l-4.9,-8.4l-1.9,1.2l1.9,3.2l-3.2,1.9l-1.9,-3.3l-1.9,1.1Zm9.1,-5.3l1.9,-1.1L489.8,301l-2,1.1Zm4,-2.3l1.8,-1.1l-2,-3.4c-0.1,-0.2,-0.3,-0.5,-0.5,-0.8c-0.1,-0.2,-0.3,-0.5,-0.5,-0.7c-0.2,-0.3,-0.4,-0.6,-0.5,-0.9c0.3,0.2,0.6,0.4,0.8,0.6c0.3,0.1,0.6,0.3,0.8,0.5c0.3,0.2,0.6,0.3,0.9,0.4l4.3,2.4l1.9,-1.2l-4.9,-8.4l-1.8,1.1l2,3.4c0.1,0.2,0.3,0.5,0.4,0.8c0.2,0.3,0.4,0.5,0.5,0.7c0.2,0.3,0.4,0.6,0.6,0.9l-0.9,-0.6c-0.2,-0.1,-0.5,-0.3,-0.8,-0.5c-0.2,-0.1,-0.5,-0.3,-0.8,-0.4l-4.3,-2.4l-2,1.2Zm15.3,-9.1l1.3,-0.8l-2.6,-4.4l-3.5,2l0.8,1.5l1.7,-1c0.2,0.2,0.3,0.4,0.3,0.7c0,0.2,0,0.5,-0.1,0.7c-0.1,0.3,-0.2,0.5,-0.4,0.7c-0.2,0.3,-0.4,0.5,-0.7,0.7c-0.3,0.2,-0.7,0.3,-1,0.3c-0.4,0,-0.7,0,-1.1,-0.2c-0.3,-0.1,-0.6,-0.3,-0.9,-0.6c-0.3,-0.3,-0.6,-0.6,-0.9,-1c-0.2,-0.4,-0.3,-0.8,-0.5,-1.2c-0.1,-0.4,-0.1,-0.8,-0.1,-1.1c0.1,-0.4,0.2,-0.7,0.4,-1c0.2,-0.3,0.4,-0.6,0.8,-0.8c0.5,-0.3,0.9,-0.4,1.3,-0.3c0.4,0,0.8,0.2,1.1,0.5l1.9,-1.2c-0.3,-0.3,-0.7,-0.6,-1.1,-0.8c-0.3,-0.3,-0.8,-0.4,-1.2,-0.5c-0.5,0,-0.9,0,-1.4,0.1c-0.5,0.1,-1,0.3,-1.6,0.7c-0.5,0.3,-1,0.7,-1.3,1.1c-0.4,0.4,-0.6,0.8,-0.8,1.3c-0.2,0.7,-0.3,1.4,-0.2,2.1c0.1,0.8,0.4,1.5,0.8,2.2c0.4,0.7,0.8,1.2,1.3,1.6c0.5,0.5,1.1,0.8,1.7,1c0.5,0.1,1.1,0.2,1.7,0.1c0.6,-0.1,1.2,-0.3,1.8,-0.7c0.5,-0.3,0.9,-0.6,1.2,-1.1c0.3,-0.4,0.5,-1,0.5,-1.6Z" class="g3_370" />
<path d="M519.9,294.6l4,-2.4c0.9,-0.5,1.5,-1.1,1.7,-1.9c0.2,-0.3,0.2,-0.7,0.2,-1.1c0,-0.4,-0.2,-0.8,-0.4,-1.2c-0.3,-0.5,-0.7,-0.8,-1.2,-1c-0.5,-0.2,-1.1,-0.2,-1.7,0l0,-0.1c0.7,-0.8,0.8,-1.6,0.3,-2.4c-0.3,-0.7,-0.9,-1.1,-1.6,-1.2c-0.7,-0.1,-1.4,0.1,-2.3,0.6l-4,2.3Zm-1.1,-6.2l-1.1,-1.8l1.8,-1.1c0.4,-0.2,0.7,-0.3,0.9,-0.2c0.3,0,0.6,0.2,0.7,0.5c0.2,0.3,0.3,0.6,0.2,0.9c-0.1,0.3,-0.4,0.5,-0.7,0.7Zm2.1,3.5l-1.3,-2.1l1.9,-1.1c0.4,-0.3,0.7,-0.3,1.1,-0.3c0.3,0.1,0.6,0.3,0.8,0.6c0.2,0.3,0.2,0.7,0.1,1c-0.1,0.3,-0.3,0.6,-0.7,0.8Zm6.9,-2l1.9,-1.1l-0.4,-1.9l3,-1.8l1.5,1.3l2,-1.2l-7.9,-6.6l-2,1.2Zm0.7,-6.5c0,-0.3,-0.1,-0.5,-0.2,-0.8c-0.1,-0.3,-0.2,-0.6,-0.2,-0.9c-0.1,-0.3,-0.2,-0.6,-0.3,-0.9c0.2,0.2,0.3,0.4,0.5,0.6c0.2,0.2,0.4,0.4,0.6,0.6c0.3,0.2,0.5,0.5,0.8,0.7l1.4,1.3l-2.2,1.2Zm13.3,-1.7c0.3,-0.3,0.6,-0.7,0.7,-1.1c0.2,-0.4,0.3,-0.9,0.2,-1.3c0,-0.4,-0.1,-0.9,-0.4,-1.3c-0.2,-0.4,-0.5,-0.8,-0.9,-1c-0.3,-0.2,-0.7,-0.3,-1,-0.3c-0.4,-0.1,-0.8,0,-1.2,0.1c-0.4,0.1,-0.9,0.2,-1.3,0.3c-0.4,0.1,-0.7,0.2,-1,0.3c-0.3,0.1,-0.5,0.2,-0.7,0.2c-0.3,0,-0.4,0,-0.6,-0.1c-0.1,0,-0.3,-0.1,-0.4,-0.3c-0.1,-0.3,-0.1,-0.5,0,-0.8c0.2,-0.3,0.4,-0.6,0.8,-0.8c0.5,-0.3,0.8,-0.4,1.2,-0.4c0.4,0.1,0.7,0.2,0.9,0.5l1.9,-1.1c-0.3,-0.4,-0.6,-0.7,-1,-0.9c-0.3,-0.2,-0.7,-0.3,-1.1,-0.3c-0.4,-0.1,-0.8,0,-1.3,0.1c-0.5,0.1,-0.9,0.3,-1.4,0.6c-0.4,0.2,-0.8,0.5,-1.2,0.9c-0.3,0.3,-0.6,0.7,-0.7,1c-0.2,0.4,-0.3,0.8,-0.3,1.2c0.1,0.4,0.2,0.9,0.5,1.3c0.2,0.4,0.5,0.8,0.8,0.9c0.3,0.2,0.7,0.3,1.1,0.4c0.3,0,0.7,0,1.2,-0.1c0.4,-0.1,0.8,-0.3,1.3,-0.4c0.3,-0.1,0.6,-0.2,0.9,-0.3c0.3,-0.1,0.5,-0.1,0.8,-0.1c0.2,0,0.4,0,0.5,0.1c0.2,0,0.3,0.1,0.4,0.3c0.1,0.2,0.2,0.4,0.1,0.5c0,0.2,0,0.4,-0.1,0.5c-0.1,0.2,-0.2,0.3,-0.3,0.5c-0.2,0.1,-0.4,0.2,-0.6,0.4c-0.5,0.3,-1,0.4,-1.4,0.4c-0.4,-0.1,-0.8,-0.3,-1.1,-0.7l-1.9,1.1c0.2,0.5,0.6,0.8,1,1.1c0.3,0.2,0.8,0.4,1.2,0.4c0.5,0.1,1,0,1.5,-0.1c0.5,-0.2,1.1,-0.4,1.6,-0.7c0.5,-0.3,0.9,-0.6,1.3,-1m3.7,-2.2l2,-1.2l-5,-8.3l-1.9,1.1Zm9.3,-5.5c0.3,-0.4,0.6,-0.9,0.7,-1.4c0.1,-0.5,0.2,-0.9,0.1,-1.4c0,-0.5,-0.1,-0.9,-0.4,-1.4l-1.9,1.2c0.2,0.4,0.3,0.9,0.2,1.4c-0.2,0.4,-0.5,0.8,-1,1.1c-0.3,0.2,-0.7,0.3,-1,0.3c-0.4,0.1,-0.7,0,-1,-0.1c-0.4,-0.2,-0.7,-0.4,-1,-0.7c-0.3,-0.2,-0.6,-0.6,-0.8,-1c-0.2,-0.4,-0.4,-0.8,-0.5,-1.2c-0.1,-0.3,-0.2,-0.7,-0.1,-1.1c0,-0.3,0.1,-0.6,0.3,-0.9c0.2,-0.3,0.5,-0.6,0.8,-0.8c0.5,-0.3,1,-0.4,1.4,-0.3c0.5,0.1,0.8,0.3,1.1,0.7l1.9,-1.1c-0.3,-0.5,-0.7,-0.8,-1.1,-1.1c-0.5,-0.3,-1,-0.5,-1.5,-0.5c-0.4,-0.1,-0.9,0,-1.3,0.1c-0.5,0.1,-0.9,0.3,-1.4,0.6c-0.6,0.4,-1.1,0.8,-1.5,1.3c-0.4,0.5,-0.6,1.1,-0.8,1.7c-0.1,0.6,-0.1,1.2,0,1.9c0.1,0.6,0.4,1.3,0.8,1.9c0.3,0.6,0.8,1.1,1.3,1.5c0.5,0.4,1,0.7,1.6,0.9c0.6,0.2,1.2,0.2,1.9,0.2c0.6,-0.1,1.2,-0.3,1.8,-0.7c0.6,-0.3,1.1,-0.7,1.4,-1.1Z" class="g3_370" />
<path d="M463.4,346.6c0.3,-0.4,0.6,-0.8,0.7,-1.3c0.1,-0.5,0.2,-1,0.1,-1.4c0,-0.5,-0.1,-1,-0.4,-1.4l-1.9,1.1c0.2,0.5,0.3,0.9,0.1,1.4c-0.1,0.5,-0.4,0.9,-0.9,1.2c-0.4,0.2,-0.7,0.3,-1,0.3c-0.4,0,-0.7,0,-1.1,-0.2c-0.3,-0.1,-0.6,-0.3,-0.9,-0.6c-0.3,-0.3,-0.6,-0.6,-0.8,-1c-0.2,-0.4,-0.4,-0.8,-0.5,-1.2c-0.1,-0.4,-0.2,-0.8,-0.1,-1.1c0,-0.4,0.1,-0.7,0.3,-1c0.2,-0.3,0.5,-0.5,0.8,-0.7c0.5,-0.3,0.9,-0.4,1.4,-0.3c0.4,0.1,0.8,0.3,1.1,0.6l1.9,-1.1c-0.3,-0.4,-0.7,-0.8,-1.1,-1.1c-0.5,-0.2,-1,-0.4,-1.5,-0.4c-0.4,-0.1,-0.9,-0.1,-1.3,0.1c-0.5,0.1,-0.9,0.3,-1.4,0.6c-0.6,0.3,-1.1,0.8,-1.5,1.3c-0.4,0.5,-0.6,1.1,-0.8,1.7c-0.1,0.6,-0.1,1.2,0,1.8c0.1,0.7,0.4,1.3,0.7,1.9c0.4,0.7,0.9,1.2,1.4,1.6c0.5,0.4,1,0.7,1.6,0.9c0.6,0.2,1.2,0.2,1.8,0.1c0.7,-0.1,1.3,-0.3,1.9,-0.6c0.6,-0.4,1.1,-0.8,1.4,-1.2m3.8,-2.2l1.9,-1.1L467,339.8l3.2,-1.9l2.1,3.6l1.9,-1.2L469.3,332l-1.9,1.1l1.9,3.2l-3.2,1.9L464.2,335l-1.9,1.1Zm9.1,-5.3l1.9,-1.1l-4.9,-8.4l-2,1.2Zm4,-2.3l1.8,-1.1l-2,-3.4c-0.1,-0.2,-0.3,-0.5,-0.5,-0.7c-0.1,-0.3,-0.3,-0.6,-0.5,-0.8c-0.2,-0.3,-0.4,-0.6,-0.5,-0.9c0.3,0.2,0.6,0.4,0.9,0.6c0.2,0.1,0.5,0.3,0.7,0.5c0.3,0.2,0.6,0.3,0.9,0.5l4.3,2.3l1.9,-1.2l-4.9,-8.4l-1.8,1.1l2,3.4c0.1,0.3,0.3,0.5,0.4,0.8c0.2,0.3,0.4,0.5,0.5,0.8c0.2,0.3,0.4,0.5,0.6,0.8l-0.9,-0.5c-0.2,-0.2,-0.5,-0.4,-0.8,-0.5c-0.2,-0.2,-0.5,-0.4,-0.8,-0.5l-4.3,-2.3l-2,1.1Zm9.1,-5.4l6.3,-3.7L494.8,326l-4.5,2.7l-1.1,-2l3.8,-2.2L492.1,323l-3.8,2.2l-1,-1.7l4.4,-2.5l-1,-1.6l-6.2,3.6Zm12.8,-7.5c0.3,-0.3,0.6,-0.7,0.8,-1.1c0.1,-0.4,0.2,-0.9,0.2,-1.3c-0.1,-0.4,-0.2,-0.9,-0.4,-1.3c-0.3,-0.4,-0.6,-0.8,-0.9,-1c-0.4,-0.2,-0.7,-0.3,-1.1,-0.3c-0.4,-0.1,-0.8,0,-1.2,0.1c-0.4,0,-0.8,0.2,-1.3,0.3c-0.3,0.1,-0.7,0.2,-1,0.3c-0.2,0.1,-0.5,0.1,-0.7,0.2c-0.2,0,-0.4,0,-0.6,-0.1c-0.1,0,-0.2,-0.1,-0.3,-0.3c-0.2,-0.3,-0.2,-0.5,-0.1,-0.8c0.2,-0.3,0.5,-0.6,0.9,-0.8c0.4,-0.3,0.8,-0.4,1.1,-0.4c0.4,0.1,0.7,0.2,0.9,0.5l1.9,-1.1c-0.3,-0.4,-0.6,-0.7,-0.9,-0.9c-0.4,-0.2,-0.8,-0.3,-1.2,-0.3c-0.4,-0.1,-0.8,-0.1,-1.3,0.1c-0.4,0.1,-0.9,0.3,-1.3,0.6c-0.5,0.2,-0.9,0.5,-1.2,0.9c-0.4,0.3,-0.6,0.7,-0.8,1c-0.2,0.4,-0.3,0.8,-0.2,1.2c0,0.4,0.1,0.9,0.4,1.3c0.2,0.4,0.5,0.8,0.8,0.9c0.4,0.2,0.7,0.3,1.1,0.4c0.4,0,0.8,0,1.2,-0.1c0.4,-0.1,0.9,-0.3,1.3,-0.4c0.4,-0.1,0.7,-0.2,0.9,-0.3c0.3,-0.1,0.6,-0.1,0.8,-0.1c0.2,0,0.4,0,0.5,0c0.2,0.1,0.3,0.2,0.4,0.4c0.1,0.2,0.2,0.4,0.2,0.5c0,0.2,-0.1,0.4,-0.2,0.5c-0.1,0.2,-0.2,0.3,-0.3,0.5c-0.2,0.1,-0.3,0.2,-0.5,0.3c-0.6,0.4,-1.1,0.5,-1.5,0.5c-0.4,-0.1,-0.8,-0.3,-1.1,-0.7l-1.9,1.1c0.3,0.5,0.6,0.8,1,1.1c0.4,0.2,0.8,0.4,1.2,0.4c0.5,0.1,1,0,1.5,-0.1c0.6,-0.2,1.1,-0.4,1.7,-0.7c0.4,-0.3,0.9,-0.6,1.2,-1m3.8,-2.2l6.3,-3.8l-0.9,-1.6l-4.5,2.6l-1.1,-2l3.8,-2.2l-0.9,-1.5l-3.8,2.2l-1,-1.6l4.4,-2.6l-1,-1.6l-6.3,3.7Z" class="g3_370" />
<path d="M524.9,310.5l1.3,-0.7l-2.6,-4.5l-3.5,2l0.8,1.5l1.7,-1c0.2,0.2,0.2,0.4,0.3,0.7c0,0.2,0,0.5,-0.1,0.7c-0.1,0.3,-0.2,0.5,-0.4,0.8c-0.2,0.2,-0.4,0.4,-0.7,0.6c-0.3,0.2,-0.7,0.3,-1,0.3c-0.4,0,-0.7,0,-1.1,-0.2c-0.3,-0.1,-0.6,-0.3,-0.9,-0.6c-0.3,-0.3,-0.6,-0.6,-0.8,-1c-0.3,-0.4,-0.4,-0.8,-0.6,-1.2c-0.1,-0.4,-0.1,-0.8,-0.1,-1.1c0.1,-0.4,0.2,-0.7,0.4,-1c0.2,-0.3,0.4,-0.6,0.8,-0.8c0.5,-0.3,0.9,-0.4,1.3,-0.3c0.4,0,0.8,0.2,1.1,0.5l1.9,-1.2c-0.3,-0.3,-0.7,-0.6,-1.1,-0.8c-0.3,-0.2,-0.8,-0.4,-1.2,-0.4c-0.5,-0.1,-0.9,-0.1,-1.4,0c-0.5,0.1,-1,0.4,-1.6,0.7c-0.5,0.3,-1,0.7,-1.3,1.1c-0.4,0.4,-0.6,0.8,-0.8,1.3c-0.2,0.7,-0.3,1.4,-0.2,2.1c0.1,0.8,0.4,1.5,0.8,2.2c0.4,0.7,0.8,1.2,1.3,1.6c0.5,0.5,1.1,0.8,1.7,1c0.5,0.1,1.1,0.2,1.7,0.1c0.6,-0.1,1.2,-0.3,1.8,-0.6c0.5,-0.3,0.9,-0.7,1.2,-1.2c0.3,-0.4,0.5,-1,0.5,-1.6Zm3.2,-1.9l1.9,-1.1l-1.8,-3.2l1.4,-0.8c0.5,-0.3,0.9,-0.4,1.2,-0.3c0.3,0.1,0.7,0.3,1,0.7c0.1,0.2,0.3,0.4,0.4,0.6c0.2,0.2,0.3,0.4,0.4,0.6c0.1,0.2,0.3,0.3,0.4,0.4l0.2,0.1l1.9,-1.1l-0.3,-0.2c-0.1,-0.1,-0.3,-0.2,-0.4,-0.4c-0.1,-0.2,-0.3,-0.4,-0.4,-0.7c-0.2,-0.2,-0.4,-0.5,-0.6,-0.7c-0.3,-0.4,-0.7,-0.7,-1,-0.9c-0.4,-0.1,-0.8,-0.1,-1.3,0c0.5,-0.5,0.7,-1,0.7,-1.5c0.1,-0.5,0,-1,-0.3,-1.5c-0.3,-0.3,-0.5,-0.6,-0.9,-0.9c-0.3,-0.2,-0.6,-0.3,-1,-0.4c-0.4,0,-0.8,0,-1.2,0.1c-0.4,0.1,-0.8,0.3,-1.2,0.5l-4,2.4ZM526,300.7l1.8,-1.1c0.4,-0.2,0.8,-0.3,1.1,-0.2c0.3,0.1,0.6,0.3,0.8,0.6c0.2,0.4,0.3,0.7,0.1,1c-0.1,0.4,-0.3,0.6,-0.8,0.9l-1.7,1Zm10.3,3.1l2,-1.1l-0.5,-1.9l3.1,-1.8l1.5,1.3l2,-1.2l-8,-6.6l-2,1.2Zm0.8,-6.5C537,297,537,296.8,536.9,296.5c-0.1,-0.3,-0.2,-0.6,-0.3,-0.9c-0.1,-0.3,-0.2,-0.6,-0.3,-0.9l0.1,0c0.1,0.2,0.3,0.4,0.5,0.6c0.2,0.2,0.4,0.4,0.6,0.6c0.2,0.2,0.5,0.5,0.7,0.7l1.4,1.3l-2.1,1.2Zm8.8,0.9l1.7,-1l-2.2,-3.7c-0.2,-0.3,-0.4,-0.6,-0.6,-0.9c-0.2,-0.4,-0.4,-0.7,-0.6,-1c-0.2,-0.4,-0.5,-0.7,-0.7,-1.1c0.3,0.3,0.5,0.6,0.8,0.9c0.2,0.2,0.5,0.5,0.8,0.8c0.2,0.3,0.5,0.5,0.7,0.7l3.5,3.3l1.6,-1l-1.1,-4.6c-0.1,-0.3,-0.2,-0.7,-0.3,-1c-0.1,-0.4,-0.2,-0.7,-0.3,-1c-0.2,-0.4,-0.3,-0.8,-0.4,-1.2c0.2,0.4,0.4,0.8,0.6,1.1c0.2,0.4,0.3,0.7,0.5,1.1c0.2,0.3,0.4,0.6,0.5,0.9l2.2,3.7l1.8,-1l-4.9,-8.4l-2.6,1.6l1,4c0.1,0.4,0.2,0.7,0.3,1.1c0.1,0.4,0.3,0.7,0.4,1.1c0.1,0.4,0.3,0.8,0.4,1.2c-0.3,-0.3,-0.6,-0.7,-0.9,-1c-0.2,-0.3,-0.5,-0.5,-0.7,-0.8c-0.3,-0.3,-0.6,-0.6,-0.8,-0.8l-3.1,-2.9l-2.6,1.5ZM556.5,292l1.7,-1L556,287.2c-0.2,-0.2,-0.4,-0.5,-0.6,-0.9c-0.2,-0.3,-0.4,-0.6,-0.6,-0.9c-0.2,-0.4,-0.5,-0.7,-0.7,-1.1c0.3,0.3,0.5,0.6,0.8,0.9c0.2,0.2,0.5,0.5,0.7,0.8c0.3,0.2,0.6,0.5,0.8,0.7l3.5,3.2l1.6,-0.9l-1.1,-4.7c-0.1,-0.3,-0.2,-0.6,-0.3,-0.9c-0.1,-0.4,-0.2,-0.8,-0.3,-1.1c-0.2,-0.4,-0.3,-0.7,-0.4,-1.1c0.2,0.4,0.4,0.7,0.6,1.1c0.2,0.3,0.3,0.7,0.5,1c0.2,0.4,0.4,0.7,0.5,1l2.2,3.7l1.8,-1l-4.9,-8.4l-2.6,1.5l1,4.1c0.1,0.3,0.2,0.7,0.3,1.1c0.1,0.3,0.2,0.7,0.4,1c0.1,0.4,0.3,0.9,0.4,1.3c-0.3,-0.4,-0.6,-0.7,-0.9,-1c-0.2,-0.3,-0.5,-0.6,-0.7,-0.9c-0.3,-0.3,-0.6,-0.5,-0.8,-0.7l-3.1,-2.9l-2.6,1.5Zm10,-5.9l1.9,-1.1L568,283.1l3,-1.8l1.5,1.3l2,-1.2l-8,-6.6l-2,1.2Zm0.7,-6.5c-0.1,-0.3,-0.1,-0.5,-0.2,-0.8c-0.1,-0.3,-0.2,-0.6,-0.3,-0.9c0,-0.3,-0.1,-0.6,-0.2,-0.9c0.1,0.2,0.3,0.4,0.5,0.6c0.2,0.2,0.4,0.4,0.6,0.6c0.2,0.2,0.5,0.5,0.7,0.7l1.5,1.3l-2.2,1.2Zm8.8,0.9l1.9,-1.1L576,276.2l1.4,-0.8c0.5,-0.3,0.9,-0.4,1.2,-0.3c0.4,0,0.7,0.3,1,0.7c0.2,0.2,0.3,0.4,0.5,0.6c0.1,0.2,0.2,0.4,0.4,0.6c0.1,0.1,0.2,0.3,0.3,0.4l0.3,0.1l1.8,-1.1l0,-0.1l-0.3,-0.1c-0.1,-0.1,-0.2,-0.3,-0.3,-0.5c-0.2,-0.1,-0.3,-0.4,-0.5,-0.6c-0.2,-0.2,-0.4,-0.5,-0.6,-0.8c-0.3,-0.4,-0.6,-0.6,-1,-0.8c-0.3,-0.1,-0.7,-0.1,-1.2,0c0.4,-0.5,0.6,-1,0.7,-1.5c0,-0.5,-0.1,-1,-0.4,-1.5c-0.2,-0.4,-0.5,-0.7,-0.8,-0.9c-0.3,-0.2,-0.7,-0.3,-1.1,-0.4c-0.3,0,-0.7,0,-1.1,0.1c-0.4,0.1,-0.9,0.3,-1.3,0.5l-3.9,2.3Zm-2.1,-8l1.7,-1c0.4,-0.2,0.8,-0.3,1.2,-0.2c0.3,0,0.5,0.3,0.7,0.6c0.2,0.3,0.3,0.7,0.2,1c-0.1,0.3,-0.4,0.6,-0.8,0.9l-1.7,1Z" class="g3_370" />
<path d="M468,357.9c0.1,-0.1,0.1,-0.3,0.1,-0.4c0,-0.2,0,-0.4,0,-0.5c0,-0.2,-0.1,-0.3,-0.1,-0.5c-0.1,-0.2,-0.1,-0.3,-0.2,-0.4l-0.7,0.4c0.1,0.2,0.1,0.4,0.2,0.6c0,0.2,0,0.4,-0.1,0.6c0,0.2,-0.1,0.4,-0.2,0.6c-0.2,0.2,-0.4,0.4,-0.6,0.5c-0.3,0.2,-0.6,0.3,-0.8,0.3c-0.3,0,-0.6,0,-0.9,-0.1c-0.2,-0.1,-0.5,-0.3,-0.7,-0.5c-0.3,-0.2,-0.5,-0.5,-0.7,-0.8c-0.2,-0.3,-0.3,-0.6,-0.4,-0.9c0,-0.3,-0.1,-0.6,0,-0.9c0,-0.3,0.1,-0.6,0.3,-0.8c0.1,-0.2,0.4,-0.4,0.6,-0.6c0.5,-0.2,0.9,-0.3,1.2,-0.3c0.4,0.1,0.7,0.2,1,0.5l0.7,-0.4c-0.2,-0.2,-0.4,-0.4,-0.7,-0.6c-0.2,-0.1,-0.5,-0.2,-0.7,-0.3c-0.3,0,-0.6,0,-0.9,0.1c-0.3,0,-0.6,0.2,-0.9,0.3c-0.4,0.3,-0.7,0.6,-1,0.9c-0.2,0.3,-0.3,0.7,-0.4,1.1c-0.1,0.3,-0.1,0.7,0,1.1c0.1,0.5,0.2,0.9,0.5,1.3c0.2,0.4,0.5,0.7,0.8,1c0.3,0.2,0.7,0.4,1.1,0.6c0.3,0.1,0.7,0.1,1.1,0.1c0.4,-0.1,0.8,-0.2,1.2,-0.4c0.7,-0.4,1.1,-1,1.2,-1.6m4.2,-1.8c0.2,-0.3,0.3,-0.6,0.3,-0.8c0.1,-0.3,0.1,-0.6,0,-0.9c0,-0.3,-0.2,-0.6,-0.3,-0.9c-0.2,-0.3,-0.4,-0.5,-0.6,-0.7c-0.2,-0.2,-0.5,-0.3,-0.8,-0.4c-0.2,-0.1,-0.5,-0.1,-0.8,-0.1c-0.3,0,-0.6,0.1,-0.9,0.3c-0.3,0.2,-0.5,0.4,-0.7,0.6c-0.2,0.3,-0.3,0.5,-0.3,0.8c-0.1,0.3,-0.1,0.6,0,0.9c0,0.3,0.1,0.6,0.3,0.8c0.2,0.3,0.4,0.6,0.6,0.8c0.2,0.2,0.5,0.3,0.8,0.4c0.2,0.1,0.5,0.1,0.8,0.1c0.3,0,0.6,-0.1,0.9,-0.3c0.3,-0.2,0.5,-0.4,0.7,-0.6m-1.6,0.2c-0.2,0,-0.4,0,-0.6,-0.1c-0.2,0,-0.3,-0.2,-0.5,-0.3c-0.2,-0.2,-0.3,-0.3,-0.4,-0.6c-0.1,-0.2,-0.2,-0.4,-0.3,-0.6c-0.1,-0.2,-0.1,-0.4,0,-0.6c0,-0.2,0,-0.4,0.1,-0.5c0.1,-0.2,0.3,-0.4,0.5,-0.5c0.2,-0.1,0.4,-0.2,0.6,-0.2c0.2,0,0.4,0.1,0.6,0.1c0.1,0.1,0.3,0.2,0.5,0.4c0.1,0.1,0.3,0.3,0.4,0.5c0.1,0.2,0.2,0.4,0.3,0.7c0,0.2,0,0.4,0,0.6c0,0.2,-0.1,0.3,-0.2,0.5c-0.1,0.2,-0.2,0.3,-0.4,0.4c-0.2,0.1,-0.4,0.2,-0.6,0.2M474,355l0.7,-0.4l-1.4,-2.4c-0.1,-0.1,-0.1,-0.3,-0.2,-0.4c0,-0.2,0,-0.3,0.1,-0.5c0,-0.1,0.1,-0.2,0.2,-0.4l0.3,-0.2c0.2,-0.2,0.4,-0.2,0.6,-0.1c0.2,0,0.3,0.2,0.5,0.4l1.5,2.7l0.7,-0.4l-1.4,-2.4c-0.1,-0.2,-0.1,-0.3,-0.2,-0.5c0,-0.1,0,-0.3,0,-0.4c0.1,-0.1,0.1,-0.3,0.2,-0.4l0.3,-0.3c0.2,-0.1,0.4,-0.1,0.6,-0.1c0.2,0.1,0.4,0.2,0.6,0.5l1.5,2.6l0.7,-0.4l-1.6,-2.7c-0.2,-0.4,-0.5,-0.6,-0.9,-0.7c-0.3,-0.1,-0.7,0,-1,0.2c-0.3,0.1,-0.5,0.3,-0.6,0.5c-0.2,0.3,-0.2,0.6,-0.2,0.9c-0.3,-0.2,-0.5,-0.3,-0.7,-0.3c-0.3,0,-0.5,0,-0.8,0.2c-0.2,0.1,-0.4,0.3,-0.5,0.6c-0.2,0.2,-0.2,0.4,-0.2,0.7l-0.4,-0.5l-0.6,0.4Zm6.2,-3.6l0.7,-0.4l-1.4,-2.4c-0.1,-0.1,-0.2,-0.3,-0.2,-0.4c0,-0.2,0,-0.3,0,-0.5c0.1,-0.1,0.1,-0.3,0.2,-0.4l0.3,-0.3c0.2,-0.1,0.4,-0.1,0.6,0c0.2,0,0.4,0.2,0.5,0.4l1.6,2.7l0.7,-0.4l-1.4,-2.4c-0.1,-0.2,-0.2,-0.3,-0.2,-0.5c0,-0.1,0,-0.3,0,-0.4c0,-0.2,0.1,-0.3,0.2,-0.4l0.3,-0.3c0.2,-0.1,0.4,-0.1,0.6,-0.1c0.2,0.1,0.4,0.2,0.5,0.5l1.6,2.6l0.7,-0.4l-1.6,-2.7c-0.3,-0.4,-0.6,-0.6,-0.9,-0.7c-0.4,-0.1,-0.7,-0.1,-1.1,0.1c-0.2,0.2,-0.4,0.4,-0.5,0.6c-0.2,0.3,-0.3,0.6,-0.3,0.9c-0.2,-0.2,-0.4,-0.3,-0.7,-0.3c-0.2,0,-0.5,0,-0.7,0.2c-0.3,0.1,-0.4,0.3,-0.6,0.5c-0.1,0.3,-0.2,0.5,-0.2,0.8l-0.3,-0.6l-0.7,0.4Zm9.3,-5.5l-2.3,-3.8l-0.6,0.4l1.3,2.3c0.1,0.2,0.2,0.3,0.2,0.5c0.1,0.1,0.1,0.3,0,0.4c0,0.2,-0.1,0.3,-0.1,0.4c-0.1,0.2,-0.3,0.3,-0.4,0.3c-0.3,0.2,-0.5,0.3,-0.8,0.2c-0.2,0,-0.4,-0.2,-0.5,-0.4l-1.6,-2.7l-0.6,0.4l1.5,2.7c0.3,0.4,0.6,0.7,0.9,0.7c0.4,0.1,0.8,0.1,1.2,-0.2c0.3,-0.1,0.5,-0.3,0.6,-0.6c0.1,-0.2,0.2,-0.4,0.2,-0.7l0.3,0.5Zm-0.7,-4.8l-0.6,0.4l2.2,3.9l0.7,-0.4l-1.4,-2.4c-0.1,-0.1,-0.1,-0.3,-0.1,-0.4c-0.1,-0.2,-0.1,-0.4,0,-0.5c0,-0.1,0.1,-0.3,0.2,-0.4c0.1,-0.1,0.2,-0.2,0.3,-0.3c0.3,-0.2,0.6,-0.2,0.8,-0.2c0.2,0.1,0.4,0.2,0.6,0.5l1.5,2.6l0.7,-0.4l-1.6,-2.7c-0.3,-0.4,-0.6,-0.7,-0.9,-0.8c-0.4,0,-0.8,0,-1.2,0.3c-0.3,0.2,-0.5,0.4,-0.6,0.6c-0.1,0.2,-0.2,0.5,-0.2,0.8Zm3.1,-2.7l0.7,-0.4l-0.5,-0.8l-0.7,0.4Zm2.7,4.6l0.7,-0.4L493,338.7l-0.7,0.4Zm4.3,-2.9c0.1,-0.5,0.1,-0.9,-0.2,-1.4l-0.6,0.4c0.1,0.3,0.2,0.6,0.1,0.8c-0.1,0.3,-0.3,0.5,-0.6,0.7c-0.2,0.1,-0.4,0.2,-0.6,0.2c-0.2,0,-0.4,0,-0.6,-0.1c-0.1,-0.1,-0.3,-0.2,-0.5,-0.4c-0.1,-0.1,-0.3,-0.3,-0.4,-0.5c-0.1,-0.2,-0.2,-0.4,-0.3,-0.6c0,-0.2,0,-0.4,0,-0.6c0,-0.2,0.1,-0.4,0.2,-0.6c0.1,-0.1,0.2,-0.3,0.4,-0.4c0.3,-0.2,0.6,-0.2,0.9,-0.2c0.2,0.1,0.4,0.2,0.6,0.4l0.7,-0.4c-0.3,-0.4,-0.7,-0.6,-1.1,-0.7c-0.5,0,-0.9,0.1,-1.4,0.4c-0.3,0.1,-0.5,0.3,-0.7,0.6c-0.1,0.2,-0.3,0.5,-0.3,0.8c-0.1,0.2,-0.1,0.5,0,0.8c0.1,0.3,0.2,0.6,0.3,0.9c0.2,0.3,0.4,0.5,0.6,0.7c0.3,0.2,0.5,0.4,0.8,0.5c0.3,0,0.6,0.1,0.8,0c0.3,0,0.6,-0.1,0.9,-0.3c0.5,-0.3,0.8,-0.6,1,-1m3,-1.4l0.3,-0.4l0.2,-0.3l0,-0.4c0.2,0.2,0.4,0.3,0.5,0.3c0.2,0,0.4,0,0.6,-0.1l0.2,-0.2l0.1,-0.1L503.5,337l0,0.1c-0.1,0.1,-0.3,0.1,-0.4,0.1c-0.1,-0.1,-0.2,-0.1,-0.3,-0.3l-1,-1.8c-0.2,-0.3,-0.3,-0.5,-0.5,-0.6c-0.2,-0.1,-0.4,-0.2,-0.7,-0.2c-0.1,0,-0.3,0.1,-0.5,0.1c-0.2,0.1,-0.3,0.2,-0.5,0.3c-0.3,0.1,-0.5,0.3,-0.6,0.5c-0.2,0.2,-0.3,0.3,-0.4,0.5c0,0.2,-0.1,0.4,0,0.6c0,0.2,0,0.4,0.1,0.5l0.7,-0.3c-0.1,-0.3,-0.2,-0.5,-0.1,-0.7c0.1,-0.3,0.3,-0.5,0.6,-0.6c0.2,-0.2,0.5,-0.3,0.7,-0.2c0.2,0,0.4,0.1,0.5,0.3l0.1,0.3l-0.1,0.3l-0.3,0.3l-0.3,0.3c-0.2,0.1,-0.4,0.3,-0.6,0.5c-0.2,0.1,-0.3,0.3,-0.4,0.5c-0.1,0.2,-0.2,0.3,-0.2,0.5c0,0.2,0.1,0.4,0.2,0.7c0.2,0.2,0.3,0.3,0.4,0.4c0.2,0.1,0.3,0.2,0.5,0.2c0.2,0,0.4,0,0.5,-0.1c0.2,0,0.4,-0.1,0.6,-0.2c0.2,-0.1,0.3,-0.2,0.4,-0.3m-0.8,-0.1l-0.3,0l-0.3,-0.1l-0.3,-0.3l-0.1,-0.3l0.1,-0.4l0.3,-0.3c0.1,-0.1,0.2,-0.2,0.4,-0.3c0.1,-0.2,0.2,-0.3,0.4,-0.4c0.1,-0.2,0.2,-0.3,0.2,-0.4l0.4,0.6c0.1,0.1,0.1,0.3,0.2,0.4c0,0.2,0,0.3,-0.1,0.5c0,0.1,-0.1,0.3,-0.2,0.4c-0.1,0.2,-0.2,0.3,-0.4,0.4l-0.3,0.2m1,-4.6l0.6,-0.3l1.5,2.6c0.2,0.3,0.4,0.4,0.6,0.4c0.3,0.1,0.5,0,0.8,-0.2c0.1,-0.1,0.3,-0.2,0.5,-0.3l-0.4,-0.6l-0.1,0.1l-0.2,0.2l-0.3,0.1c-0.1,-0.1,-0.2,-0.1,-0.3,-0.3l-1.4,-2.4l0.8,-0.5l-0.4,-0.5l-0.8,0.5l-0.7,-1.3l-0.6,0.4l0.7,1.2l-0.6,0.4Zm2,-2.8l0.7,-0.4L504.4,330l-0.7,0.4Zm2.7,4.6l0.7,-0.4l-2.3,-3.9l-0.7,0.4Zm2.6,-1.5l0.7,-0.5l-0.9,-4.7l-0.7,0.4l0.6,2.5c0,0.2,0,0.4,0.1,0.5c0,0.2,0.1,0.4,0.1,0.5c0,0.2,0.1,0.3,0.1,0.5l-0.3,-0.4l-0.4,-0.3l-0.3,-0.3l-2,-1.7l-0.7,0.4Zm5.2,-3.4c0.2,-0.4,0.2,-0.8,0.1,-1.2l-0.7,0.4c0.1,0.2,0,0.4,-0.1,0.7c-0.1,0.2,-0.3,0.4,-0.5,0.5c-0.2,0.1,-0.4,0.2,-0.6,0.2c-0.2,0,-0.4,0,-0.5,0c-0.2,-0.1,-0.4,-0.2,-0.5,-0.3c-0.2,-0.2,-0.3,-0.3,-0.4,-0.5l2.9,-1.7c-0.2,-0.4,-0.4,-0.7,-0.6,-0.9c-0.2,-0.2,-0.5,-0.4,-0.8,-0.5c-0.2,-0.1,-0.5,-0.1,-0.8,-0.1c-0.3,0,-0.6,0.1,-0.9,0.3c-0.2,0.2,-0.5,0.4,-0.6,0.6c-0.2,0.3,-0.3,0.5,-0.4,0.8c0,0.3,0,0.6,0,0.9c0.1,0.3,0.2,0.6,0.4,0.8c0.1,0.3,0.3,0.6,0.6,0.8c0.2,0.2,0.5,0.3,0.7,0.4c0.3,0.1,0.6,0.1,0.9,0.1c0.3,0,0.6,-0.1,0.9,-0.3c0.4,-0.3,0.7,-0.6,0.9,-1m-2.1,-2.7c0.3,0.1,0.6,0.3,0.8,0.7l-2.2,1.3C511,330,511,329.8,510.9,329.7c0,-0.2,0,-0.4,0,-0.5c0.1,-0.2,0.1,-0.4,0.2,-0.5c0.1,-0.1,0.3,-0.3,0.4,-0.4c0.4,-0.2,0.7,-0.2,1,-0.1m8.4,-0.7c0.2,-0.2,0.4,-0.4,0.5,-0.7c0.1,-0.2,0.1,-0.5,0.1,-0.7c0,-0.3,-0.1,-0.5,-0.3,-0.8c-0.1,-0.3,-0.3,-0.5,-0.6,-0.6c-0.2,-0.2,-0.4,-0.2,-0.7,-0.3c-0.2,0,-0.5,0.1,-0.8,0.1c-0.3,0.1,-0.6,0.2,-0.8,0.3c-0.3,0.1,-0.5,0.1,-0.7,0.2c-0.2,0,-0.4,0.1,-0.5,0.1c-0.2,0,-0.3,0,-0.5,-0.1c-0.1,-0.1,-0.2,-0.2,-0.3,-0.3c-0.1,-0.3,-0.2,-0.5,0,-0.8c0.1,-0.3,0.3,-0.5,0.7,-0.7c0.4,-0.2,0.7,-0.3,1.1,-0.3c0.3,0,0.6,0.2,0.8,0.5l0.7,-0.4c-0.1,-0.2,-0.3,-0.4,-0.5,-0.5c-0.2,-0.2,-0.5,-0.3,-0.7,-0.3c-0.3,-0.1,-0.5,0,-0.8,0c-0.3,0.1,-0.6,0.2,-0.9,0.4c-0.3,0.2,-0.6,0.3,-0.7,0.5c-0.2,0.2,-0.4,0.5,-0.5,0.7c-0.1,0.2,-0.1,0.4,-0.1,0.7c0,0.2,0.1,0.4,0.2,0.6c0.2,0.3,0.4,0.5,0.6,0.6c0.1,0.1,0.4,0.2,0.6,0.2c0.2,0,0.5,0,0.7,-0.1c0.3,0,0.5,-0.1,0.8,-0.2c0.3,-0.1,0.5,-0.1,0.7,-0.2c0.3,-0.1,0.5,-0.1,0.6,-0.1c0.2,0,0.4,0,0.5,0.1c0.2,0.1,0.3,0.2,0.4,0.4c0.1,0.1,0.2,0.3,0.2,0.5c0,0.1,-0.1,0.3,-0.1,0.4c-0.1,0.1,-0.2,0.3,-0.3,0.4c-0.1,0.1,-0.3,0.3,-0.5,0.4c-0.5,0.3,-0.9,0.4,-1.3,0.3c-0.4,0,-0.7,-0.3,-1,-0.7l-0.7,0.5c0.1,0.2,0.3,0.4,0.6,0.6c0.2,0.2,0.5,0.3,0.7,0.3c0.3,0.1,0.6,0.1,1,0c0.3,-0.1,0.7,-0.2,1.1,-0.4c0.3,-0.2,0.5,-0.4,0.7,-0.6m-0.2,-4.4l0.6,-0.4l1.5,2.6c0.2,0.3,0.4,0.5,0.6,0.5c0.2,0,0.5,0,0.8,-0.2c0.1,-0.1,0.3,-0.2,0.5,-0.4l-0.4,-0.5l-0.1,0.1l-0.2,0.1l-0.3,0.1c-0.1,0,-0.2,-0.1,-0.3,-0.2l-1.5,-2.5l0.8,-0.4l-0.3,-0.5l-0.8,0.4l-0.7,-1.2l-0.6,0.4l0.7,1.2l-0.6,0.4Zm3.1,-2.5l-0.7,0.3l2.3,3.9l0.7,-0.4l-1.2,-2.1c-0.1,-0.2,-0.2,-0.3,-0.2,-0.5c-0.1,-0.2,-0.1,-0.4,0,-0.5c0,-0.2,0.1,-0.3,0.2,-0.5c0.1,-0.1,0.2,-0.2,0.4,-0.3l0.1,-0.1l0.2,0l0,-0.1l-0.4,-0.6l-0.1,0l-0.1,0.1c-0.3,0.2,-0.5,0.4,-0.6,0.6c-0.1,0.3,-0.2,0.5,-0.2,0.8l0,0.1Zm5.8,1.8l0.3,-0.4l0.2,-0.3l0.1,-0.4c0.1,0.2,0.3,0.3,0.4,0.3c0.2,0,0.4,0,0.6,-0.1l0.2,-0.2l0.1,-0.1l-0.2,-0.5l-0.1,0.1c-0.1,0.1,-0.2,0.1,-0.3,0.1c-0.1,0,-0.2,-0.1,-0.3,-0.3l-1.1,-1.8c-0.1,-0.3,-0.3,-0.5,-0.5,-0.6c-0.2,-0.1,-0.4,-0.2,-0.6,-0.2c-0.2,0,-0.4,0.1,-0.6,0.1c-0.1,0.1,-0.3,0.2,-0.5,0.3c-0.3,0.1,-0.5,0.3,-0.6,0.5c-0.2,0.2,-0.3,0.3,-0.3,0.5c-0.1,0.2,-0.1,0.4,-0.1,0.6c0,0.2,0.1,0.4,0.2,0.5l0.6,-0.3C527,319.9,527,319.7,527,319.5c0.1,-0.3,0.3,-0.5,0.6,-0.6c0.3,-0.2,0.5,-0.3,0.7,-0.2c0.2,0,0.4,0.1,0.5,0.4l0.1,0.2l-0.1,0.3l-0.2,0.3l-0.4,0.3c-0.2,0.1,-0.4,0.3,-0.6,0.5c-0.2,0.1,-0.3,0.3,-0.4,0.5c-0.1,0.2,-0.1,0.3,-0.1,0.5c0,0.2,0,0.4,0.2,0.7c0.1,0.2,0.2,0.3,0.4,0.4c0.1,0.1,0.3,0.2,0.4,0.2c0.2,0,0.4,0,0.6,-0.1c0.2,0,0.3,-0.1,0.5,-0.2c0.2,-0.1,0.3,-0.2,0.4,-0.3m-0.8,-0.1l-0.3,0l-0.3,-0.1L528,321.9l-0.2,-0.3l0.1,-0.4l0.3,-0.3c0.1,-0.1,0.2,-0.2,0.4,-0.3c0.1,-0.2,0.3,-0.3,0.4,-0.4c0.1,-0.2,0.2,-0.3,0.3,-0.4l0.3,0.6c0.1,0.1,0.2,0.3,0.2,0.4c0,0.2,0,0.3,0,0.5c-0.1,0.1,-0.1,0.3,-0.2,0.4c-0.1,0.2,-0.3,0.3,-0.5,0.4l-0.3,0.2m1,-4.6l0.6,-0.3l1.5,2.6c0.2,0.3,0.4,0.4,0.6,0.4c0.3,0.1,0.5,0,0.8,-0.2c0.2,-0.1,0.3,-0.2,0.5,-0.3l-0.3,-0.6l-0.1,0l-0.1,0.1l-0.2,0.2l-0.3,0.1c-0.1,0,-0.2,-0.1,-0.3,-0.3L531.1,317l0.8,-0.5L531.6,316l-0.8,0.5l-0.7,-1.3l-0.7,0.4l0.7,1.3l-0.6,0.3Zm7.4,-0.1c0.2,-0.4,0.2,-0.8,0.1,-1.2l-0.7,0.4c0.1,0.2,0,0.5,-0.1,0.7c-0.1,0.2,-0.3,0.4,-0.5,0.5c-0.2,0.2,-0.4,0.2,-0.6,0.2c-0.2,0.1,-0.4,0,-0.5,0c-0.2,-0.1,-0.4,-0.2,-0.5,-0.3c-0.2,-0.1,-0.3,-0.3,-0.4,-0.5l2.9,-1.7c-0.2,-0.4,-0.4,-0.6,-0.6,-0.9c-0.3,-0.2,-0.5,-0.4,-0.8,-0.4c-0.2,-0.1,-0.5,-0.2,-0.8,-0.2c-0.3,0.1,-0.6,0.2,-0.9,0.3c-0.2,0.2,-0.5,0.4,-0.6,0.6c-0.2,0.3,-0.3,0.5,-0.4,0.8c0,0.3,0,0.6,0,0.9c0.1,0.3,0.2,0.6,0.4,0.9c0.1,0.3,0.3,0.5,0.6,0.7c0.2,0.2,0.5,0.3,0.7,0.4c0.3,0.1,0.6,0.1,0.9,0.1c0.3,0,0.6,-0.1,0.9,-0.3c0.4,-0.3,0.7,-0.6,0.9,-1m-2.1,-2.7c0.3,0.1,0.6,0.3,0.8,0.7l-2.2,1.3c-0.1,-0.2,-0.2,-0.3,-0.2,-0.5c0,-0.2,0,-0.4,0,-0.5c0.1,-0.2,0.1,-0.3,0.2,-0.5c0.1,-0.1,0.3,-0.2,0.4,-0.3c0.4,-0.2,0.7,-0.3,1,-0.2m6.7,2c0.2,-0.2,0.3,-0.4,0.4,-0.6c0.1,-0.2,0.1,-0.4,0.1,-0.7c-0.1,-0.2,-0.2,-0.5,-0.3,-0.7l-2.2,-3.7l-0.7,0.4l0.3,0.5c-0.2,-0.1,-0.5,-0.2,-0.7,-0.2c-0.3,0,-0.5,0.1,-0.8,0.3c-0.3,0.1,-0.4,0.3,-0.6,0.5c-0.1,0.2,-0.3,0.4,-0.3,0.7c-0.1,0.2,-0.1,0.5,0,0.8c0,0.2,0.2,0.5,0.3,0.8c0.2,0.3,0.4,0.6,0.6,0.7c0.2,0.2,0.5,0.4,0.7,0.4c0.3,0.1,0.5,0.1,0.8,0.1c0.2,0,0.5,-0.1,0.7,-0.3c0.3,-0.1,0.5,-0.3,0.6,-0.5c0.1,-0.2,0.2,-0.5,0.2,-0.8l0.1,0l0.1,0.3l0.2,0.3l0,0.1c0.2,0.3,0.3,0.6,0.2,0.9c-0.1,0.3,-0.3,0.5,-0.7,0.7c-0.3,0.2,-0.5,0.3,-0.8,0.3c-0.2,0,-0.4,-0.1,-0.5,-0.3l-0.7,0.4c0.3,0.3,0.6,0.5,1,0.5c0.4,0.1,0.8,-0.1,1.3,-0.4c0.3,-0.1,0.5,-0.3,0.7,-0.5m-2.9,-1.4c-0.4,-0.2,-0.6,-0.4,-0.9,-0.9c-0.2,-0.4,-0.3,-0.7,-0.3,-1.1c0,-0.3,0.2,-0.6,0.6,-0.8c0.4,-0.3,0.7,-0.3,1.1,-0.2c0.3,0.1,0.6,0.4,0.8,0.8c0.1,0.2,0.2,0.4,0.3,0.6c0,0.2,0.1,0.4,0,0.5c0,0.2,0,0.4,-0.1,0.5c-0.1,0.2,-0.3,0.3,-0.5,0.5c-0.4,0.2,-0.7,0.2,-1,0.1m1.4,-5.6l0.7,-0.4l-0.5,-0.8l-0.7,0.4Zm2.7,4.6l0.7,-0.4l-2.3,-3.9l-0.7,0.4Zm4.3,-2.8c0.1,-0.4,0.2,-0.8,0,-1.2l-0.6,0.4c0,0.2,0,0.4,-0.1,0.6c-0.1,0.3,-0.3,0.5,-0.6,0.6c-0.1,0.1,-0.3,0.2,-0.5,0.2c-0.2,0,-0.4,0,-0.6,-0.1c-0.1,0,-0.3,-0.1,-0.4,-0.2c-0.2,-0.2,-0.3,-0.3,-0.5,-0.5l3,-1.8c-0.2,-0.3,-0.4,-0.6,-0.6,-0.8c-0.3,-0.2,-0.5,-0.4,-0.8,-0.5c-0.3,-0.1,-0.5,-0.1,-0.8,-0.1c-0.3,0,-0.6,0.1,-0.9,0.3c-0.3,0.2,-0.5,0.4,-0.7,0.6c-0.1,0.3,-0.2,0.5,-0.3,0.8c0,0.3,0,0.6,0,0.9c0.1,0.3,0.2,0.6,0.4,0.8c0.1,0.3,0.3,0.6,0.6,0.8c0.2,0.2,0.4,0.3,0.7,0.4c0.3,0.1,0.6,0.1,0.9,0.1c0.3,0,0.6,-0.1,0.9,-0.3c0.4,-0.3,0.7,-0.6,0.9,-1M545.2,309c0.3,0.1,0.6,0.3,0.8,0.7l-2.2,1.3c-0.1,-0.2,-0.2,-0.4,-0.2,-0.5c0,-0.2,0,-0.4,0,-0.6c0,-0.1,0.1,-0.3,0.2,-0.4c0.1,-0.1,0.2,-0.3,0.4,-0.4c0.4,-0.2,0.7,-0.2,1,-0.1m5.7,0.9c0.2,-0.2,0.3,-0.3,0.4,-0.5c0.1,-0.2,0.1,-0.4,0.1,-0.6c0,-0.2,-0.1,-0.4,-0.2,-0.6c-0.1,-0.2,-0.3,-0.4,-0.4,-0.5c-0.2,-0.1,-0.4,-0.1,-0.6,-0.1c-0.1,0,-0.3,0,-0.5,0.1c-0.2,0,-0.4,0.1,-0.7,0.1c-0.1,0.1,-0.3,0.2,-0.5,0.2c-0.1,0.1,-0.2,0.1,-0.3,0.1L547.9,308l-0.3,-0.2c0,-0.1,-0.1,-0.3,0,-0.4c0,-0.2,0.2,-0.4,0.5,-0.5c0.3,-0.2,0.5,-0.3,0.7,-0.3c0.2,0.1,0.4,0.2,0.5,0.4l0.7,-0.4c-0.2,-0.4,-0.5,-0.5,-0.9,-0.6c-0.4,-0.1,-0.8,0.1,-1.3,0.3c-0.5,0.3,-0.8,0.6,-0.9,1c-0.1,0.3,-0.1,0.6,0.1,1c0.1,0.2,0.3,0.3,0.4,0.4c0.2,0.1,0.4,0.1,0.5,0.2c0.2,0,0.4,-0.1,0.6,-0.1c0.2,-0.1,0.4,-0.1,0.6,-0.2c0.4,-0.1,0.7,-0.2,0.9,-0.2c0.3,-0.1,0.4,0.1,0.5,0.3c0.1,0.1,0.2,0.3,0.1,0.5c-0.1,0.2,-0.3,0.4,-0.6,0.6c-0.1,0.1,-0.2,0.1,-0.4,0.2l-0.4,0l-0.3,0l-0.4,-0.3l-0.7,0.4c0.3,0.3,0.6,0.6,1.1,0.6c0.4,0.1,0.9,0,1.4,-0.4c0.3,-0.1,0.5,-0.2,0.6,-0.4Z" class="g4_370" />
<path d="M473.7,368.8l0.3,-0.4l0.2,-0.3l0,-0.4c0.2,0.2,0.4,0.3,0.5,0.3c0.2,0,0.4,0,0.6,-0.1l0.2,-0.2l0.1,-0.1l-0.3,-0.5l0,0.1c-0.1,0.1,-0.3,0.1,-0.4,0.1c-0.1,-0.1,-0.2,-0.2,-0.2,-0.3l-1.1,-1.8c-0.2,-0.3,-0.3,-0.5,-0.5,-0.6c-0.2,-0.1,-0.4,-0.2,-0.7,-0.2c-0.1,0,-0.3,0.1,-0.5,0.1c-0.2,0.1,-0.3,0.2,-0.5,0.3c-0.3,0.1,-0.5,0.3,-0.6,0.5c-0.2,0.2,-0.3,0.3,-0.4,0.5c0,0.2,-0.1,0.4,0,0.6c0,0.2,0,0.4,0.1,0.5l0.7,-0.3c-0.1,-0.3,-0.2,-0.5,-0.1,-0.7c0.1,-0.3,0.3,-0.5,0.6,-0.6c0.2,-0.2,0.5,-0.3,0.7,-0.2c0.2,0,0.4,0.1,0.5,0.4l0.1,0.2l-0.1,0.3l-0.2,0.3c-0.2,0.1,-0.3,0.2,-0.4,0.3c-0.2,0.1,-0.4,0.3,-0.6,0.5c-0.2,0.1,-0.3,0.3,-0.4,0.5c-0.1,0.2,-0.2,0.3,-0.2,0.5c0,0.2,0.1,0.4,0.2,0.7c0.1,0.2,0.3,0.3,0.4,0.4c0.2,0.1,0.3,0.1,0.5,0.2c0.2,0,0.4,0,0.5,-0.1c0.2,0,0.4,-0.1,0.6,-0.2c0.2,-0.1,0.3,-0.2,0.4,-0.3m-0.8,-0.1l-0.3,0l-0.3,-0.1L472,368.3L471.9,368l0.1,-0.4l0.3,-0.3c0.1,-0.1,0.2,-0.2,0.4,-0.3c0.1,-0.2,0.2,-0.3,0.4,-0.4c0.1,-0.2,0.2,-0.3,0.2,-0.4l0.4,0.6c0.1,0.1,0.1,0.3,0.2,0.4c0,0.2,0,0.3,-0.1,0.5c0,0.1,-0.1,0.3,-0.2,0.4c-0.1,0.2,-0.2,0.3,-0.4,0.4l-0.3,0.2m1.6,-5.7l-0.6,0.4l2.3,3.9l0.6,-0.4l-1.4,-2.4c0,-0.1,-0.1,-0.3,-0.1,-0.4c-0.1,-0.2,0,-0.3,0,-0.5c0,-0.1,0.1,-0.3,0.2,-0.4c0.1,-0.1,0.2,-0.2,0.4,-0.3c0.2,-0.2,0.5,-0.2,0.7,-0.2c0.2,0.1,0.4,0.2,0.6,0.5l1.5,2.6l0.7,-0.4l-1.6,-2.7c-0.2,-0.4,-0.5,-0.7,-0.9,-0.7c-0.4,-0.1,-0.7,0,-1.2,0.2c-0.2,0.2,-0.4,0.4,-0.6,0.6c-0.1,0.2,-0.2,0.5,-0.2,0.8Zm8,0.5c0.1,-0.2,0.2,-0.5,0.2,-0.8l0.3,0.6l0.7,-0.4l-3.2,-5.4l-0.7,0.4l0.9,1.4l0.2,0.4l0.2,0.3c-0.3,-0.1,-0.5,-0.2,-0.8,-0.2c-0.3,0,-0.6,0.1,-0.9,0.2c-0.2,0.2,-0.4,0.3,-0.5,0.6c-0.2,0.2,-0.3,0.4,-0.3,0.7c-0.1,0.2,-0.1,0.5,0,0.8c0,0.3,0.2,0.7,0.4,1c0.1,0.3,0.3,0.5,0.6,0.8c0.2,0.2,0.4,0.3,0.7,0.4c0.2,0.1,0.5,0.1,0.8,0.1c0.2,0,0.5,-0.1,0.8,-0.3c0.2,-0.2,0.4,-0.4,0.6,-0.6m-1.4,0.2c-0.2,0,-0.4,0,-0.6,-0.1c-0.1,-0.1,-0.3,-0.2,-0.4,-0.4c-0.2,-0.1,-0.3,-0.3,-0.5,-0.5c-0.1,-0.2,-0.2,-0.5,-0.2,-0.7c-0.1,-0.2,-0.1,-0.4,-0.1,-0.6c0,-0.1,0.1,-0.3,0.1,-0.5c0.1,-0.1,0.3,-0.2,0.4,-0.4c0.2,-0.1,0.4,-0.1,0.6,-0.1c0.2,-0.1,0.4,0,0.6,0c0.2,0.1,0.3,0.2,0.5,0.4c0.1,0.1,0.3,0.3,0.4,0.5c0.1,0.2,0.2,0.5,0.3,0.7c0.1,0.2,0.1,0.4,0.1,0.6c-0.1,0.2,-0.1,0.3,-0.2,0.5c-0.1,0.2,-0.3,0.3,-0.5,0.4c-0.2,0.1,-0.4,0.2,-0.5,0.2m5.1,-2.3L487,361l-0.4,-1.9l2.1,-1.3l1.5,1.3l0.8,-0.5l-5.2,-4.2l-0.8,0.5Zm-0.1,-4.8c0,-0.2,-0.1,-0.4,-0.1,-0.5c0,-0.2,-0.1,-0.3,-0.1,-0.4c-0.1,-0.2,-0.1,-0.3,-0.1,-0.5l0.3,0.3l0.3,0.3l0.4,0.4l1.4,1.2l-1.7,1Zm8,-0.2c0.2,-0.5,0.1,-0.9,-0.1,-1.4l-0.7,0.4c0.2,0.3,0.2,0.6,0.1,0.8c0,0.3,-0.2,0.5,-0.5,0.7c-0.2,0.1,-0.4,0.2,-0.6,0.2c-0.2,0,-0.4,0,-0.6,-0.1c-0.2,-0.1,-0.3,-0.2,-0.5,-0.3c-0.2,-0.2,-0.3,-0.4,-0.4,-0.6c-0.1,-0.2,-0.2,-0.4,-0.3,-0.6c0,-0.2,-0.1,-0.4,0,-0.6c0,-0.2,0,-0.4,0.2,-0.6c0.1,-0.1,0.2,-0.3,0.4,-0.4c0.3,-0.2,0.6,-0.2,0.8,-0.2c0.3,0.1,0.5,0.2,0.7,0.4l0.7,-0.4c-0.3,-0.3,-0.7,-0.6,-1.2,-0.6c-0.4,-0.1,-0.8,0,-1.3,0.3c-0.3,0.1,-0.5,0.3,-0.7,0.6c-0.2,0.2,-0.3,0.5,-0.3,0.8c-0.1,0.3,-0.1,0.5,0,0.8c0,0.3,0.1,0.6,0.3,0.9c0.2,0.3,0.4,0.5,0.6,0.7c0.2,0.2,0.5,0.4,0.8,0.5c0.2,0.1,0.5,0.1,0.8,0.1c0.3,-0.1,0.6,-0.2,0.9,-0.4c0.5,-0.2,0.8,-0.6,0.9,-1m-0.8,-3.7l0.6,-0.3l1.5,2.6c0.2,0.3,0.4,0.4,0.6,0.4c0.3,0.1,0.5,0,0.8,-0.2c0.1,-0.1,0.3,-0.2,0.5,-0.3l-0.4,-0.6l-0.1,0.1l-0.2,0.2l-0.3,0.1c-0.1,-0.1,-0.2,-0.1,-0.3,-0.3L494.6,352l0.8,-0.5L495,351l-0.8,0.5l-0.7,-1.3l-0.6,0.4l0.7,1.2l-0.6,0.4Zm2,-2.8l0.7,-0.5l-0.4,-0.7l-0.7,0.4Zm2.7,4.6l0.7,-0.4l-2.3,-3.9l-0.7,0.4Zm2.6,-1.5l0.7,-0.5l-0.9,-4.7l-0.7,0.4l0.6,2.5c0,0.2,0,0.4,0.1,0.5c0,0.2,0.1,0.4,0.1,0.5c0,0.2,0.1,0.3,0.1,0.5l-0.3,-0.4l-0.4,-0.3l-0.3,-0.3l-2,-1.7l-0.7,0.4Zm-0.1,-6.2l0.7,-0.4l-0.5,-0.8L500,346Zm2.7,4.6l0.7,-0.4l-2.3,-3.9l-0.7,0.4Zm-0.6,-4.1l0.6,-0.4l1.5,2.6c0.2,0.3,0.4,0.4,0.6,0.5c0.3,0,0.5,-0.1,0.8,-0.2c0.1,-0.1,0.3,-0.3,0.5,-0.4l-0.4,-0.6l-0.1,0.2l-0.2,0.1l-0.3,0.1c-0.1,0,-0.2,-0.1,-0.3,-0.2l-1.4,-2.5l0.8,-0.5l-0.3,-0.5l-0.8,0.5l-0.8,-1.2l-0.6,0.4l0.7,1.2l-0.6,0.3Zm2,-2.9l0.7,-0.4l-0.4,-0.8l-0.7,0.4Zm2.7,4.6l0.7,-0.4l-2.3,-3.9l-0.6,0.4Zm4.3,-2.8c0.2,-0.4,0.2,-0.8,0.1,-1.2l-0.7,0.3c0.1,0.3,0,0.5,-0.1,0.7c-0.1,0.3,-0.3,0.4,-0.5,0.6c-0.2,0.1,-0.4,0.2,-0.6,0.2c-0.2,0,-0.3,0,-0.5,-0.1c-0.2,0,-0.4,-0.1,-0.5,-0.3c-0.2,-0.1,-0.3,-0.2,-0.4,-0.4l3,-1.8c-0.2,-0.3,-0.5,-0.6,-0.7,-0.8c-0.2,-0.2,-0.5,-0.4,-0.8,-0.5c-0.2,-0.1,-0.5,-0.1,-0.8,-0.1c-0.3,0,-0.6,0.1,-0.9,0.3c-0.2,0.2,-0.5,0.4,-0.6,0.6c-0.2,0.2,-0.3,0.5,-0.4,0.8c0,0.3,0,0.6,0.1,0.9c0,0.3,0.1,0.5,0.3,0.8c0.2,0.3,0.4,0.6,0.6,0.8c0.2,0.2,0.5,0.3,0.7,0.4c0.3,0.1,0.6,0.1,0.9,0.1c0.3,-0.1,0.6,-0.2,0.9,-0.3c0.4,-0.3,0.7,-0.6,0.9,-1m-2.1,-2.7c0.3,0.1,0.6,0.3,0.8,0.7l-2.2,1.3c-0.1,-0.2,-0.1,-0.4,-0.2,-0.6c0,-0.1,0,-0.3,0,-0.5c0.1,-0.1,0.1,-0.3,0.2,-0.4c0.1,-0.2,0.3,-0.3,0.5,-0.4c0.3,-0.2,0.6,-0.2,0.9,-0.1m5.8,0.9c0.1,-0.2,0.2,-0.4,0.3,-0.5c0.1,-0.2,0.1,-0.4,0.1,-0.6c0,-0.2,-0.1,-0.4,-0.2,-0.6c-0.1,-0.2,-0.3,-0.4,-0.4,-0.5c-0.2,-0.1,-0.3,-0.1,-0.5,-0.1c-0.2,0,-0.4,0,-0.6,0c-0.2,0.1,-0.4,0.2,-0.6,0.2c-0.2,0.1,-0.4,0.2,-0.5,0.2c-0.2,0,-0.3,0.1,-0.4,0.1l-0.3,-0.1L512,342.3c-0.1,-0.1,-0.1,-0.3,-0.1,-0.5c0.1,-0.1,0.2,-0.3,0.5,-0.5c0.3,-0.1,0.5,-0.2,0.7,-0.2c0.2,0.1,0.4,0.2,0.6,0.3l0.6,-0.4c-0.2,-0.3,-0.5,-0.5,-0.9,-0.5c-0.4,-0.1,-0.8,0,-1.3,0.3c-0.4,0.3,-0.7,0.6,-0.9,0.9c-0.1,0.4,-0.1,0.7,0.1,1.1c0.2,0.2,0.3,0.3,0.5,0.4c0.1,0.1,0.3,0.1,0.5,0.1c0.2,0,0.3,0,0.6,0c0.2,-0.1,0.4,-0.2,0.6,-0.2c0.4,-0.2,0.7,-0.2,0.9,-0.2c0.2,-0.1,0.4,0,0.5,0.3c0.1,0.1,0.1,0.3,0,0.5c0,0.2,-0.2,0.4,-0.5,0.6c-0.2,0.1,-0.3,0.1,-0.4,0.2c-0.2,0,-0.3,0,-0.4,0l-0.4,-0.1l-0.3,-0.2l-0.7,0.4c0.2,0.3,0.6,0.6,1,0.6c0.4,0.1,0.9,-0.1,1.5,-0.4c0.2,-0.1,0.4,-0.3,0.6,-0.4Z" class="g4_370" />
<path d="M490.6,395.8c-0.2,-0.1,-0.8,-0.3,-1.4,-0.5c0.1,-0.4,0.3,-1,0.5,-1.5l-1,-0.2c0,0.4,-0.1,1.1,-0.2,1.5c-0.2,0,-0.4,0,-0.5,-0.1l-0.1,-0.1c0.1,-1,0.1,-2.1,-0.1,-3.1L487,391.7l-0.1,0.1l-1,0.6l0.4,-0.9c-0.4,-0.2,-1.1,-0.6,-1.8,-0.8l-0.5,0.9c0.6,0.2,1.4,0.6,1.8,0.9l-2,1.1l0.5,1l2.6,-1.5c0.1,1.7,-0.2,3.6,-0.8,5c0.2,0.1,0.8,0.5,1.1,0.7c0.2,-0.6,0.4,-1.2,0.5,-1.9l2.3,4l1.1,-0.6l-2.4,-4.2c0.6,0.3,1.4,0.6,1.8,0.8Zm-3.4,-5.5l0.6,1l1.5,-0.9c1.9,3.5,3,6.2,1.9,8.7c0.4,0.1,1,0.2,1.3,0.3c1,-2.8,-0.1,-5.7,-2.1,-9.6l1.8,-1.1c2.6,4.8,3.6,6.7,3.5,7.3c-0.1,0.2,-0.1,0.3,-0.4,0.4c-0.2,0.2,-0.7,0.5,-1.4,0.8c0.3,0.2,0.7,0.5,0.9,0.8c0.6,-0.4,1.2,-0.7,1.5,-1c0.4,-0.2,0.6,-0.5,0.6,-1c0.1,-0.8,-0.9,-2.7,-4,-8.3c-0.1,-0.2,-0.3,-0.5,-0.3,-0.5Zm12.2,-0.6c0.2,-1.4,0.3,-2.8,0.3,-4.2l-1.1,-0.1c0,0.5,0,1.1,0,1.6l-1.1,0.8c0.1,-1.3,0,-2.8,-0.1,-4.1l-1.2,0.1c0.3,1.6,0.3,3.4,0.3,3.9c0,0.5,-0.1,0.9,-0.3,1c0.3,0.2,0.7,0.6,0.9,0.8c0.1,-0.2,0.3,-0.4,1.4,-1.3c0,0.9,-0.1,1.6,-0.2,2c-0.1,0.6,-0.2,1,-0.4,1.2c0.2,0.2,0.7,0.5,0.8,0.7c0.2,-0.3,0.5,-0.7,2.8,-3.2c-0.1,-0.2,-0.4,-0.6,-0.5,-0.8Zm2.7,0.2c-1.1,1.3,-2.2,2.6,-2.9,3.5l0.8,0.8c0.8,-1,1.8,-2.3,2.8,-3.6Zm0.5,-7.6c0.4,1.1,0.7,2.3,0.9,3.2l1.8,-1.1c0.3,1.1,0.4,2.2,0.3,3.2c-1.1,-0.5,-2.2,-1.3,-3.3,-2.2c-0.3,-0.7,-0.7,-1.5,-1.1,-2.3Zm2.7,0.9l-0.2,0.2l-0.9,0.5c-0.2,-1,-0.6,-2.3,-0.9,-3.3l-4.8,2.8l0.6,1l1.1,-0.7c1.8,3.4,3,6.4,2.6,8.9c0.3,0,1,0,1.2,0.1c0.2,-1.6,-0.1,-3.4,-0.8,-5.3c0.7,0.5,1.5,1,2.3,1.3c-0.2,1,-0.6,1.9,-1.1,2.8c0.2,0,0.8,0.1,1.1,0.3c0.5,-0.8,0.9,-1.7,1.1,-2.7c0.9,0.3,1.9,0.4,2.8,0.4c0,-0.4,0.1,-0.9,0.2,-1.3c-0.9,0.1,-1.9,0,-2.9,-0.2c0.2,-1.5,0,-3.1,-0.7,-4.9Zm7.7,-5.4l2.9,-1.6l1.5,2.6l-2.8,1.7Zm-3.8,2.3l2.8,-1.6l1.5,2.6l-2.8,1.6Zm3.3,-3.3L511.3,375l-1,0.6l1.1,1.9l-3.8,2.2l3.1,5.2l1,-0.5l-0.4,-0.7l2.8,-1.6l2,3.4l1.1,-0.6l-2,-3.5l2.8,-1.6l0.3,0.6l1.1,-0.6l-3.1,-5.2ZM526.3,370c0.3,1.6,0.2,3.1,-0.1,4.6c-1.5,-0.5,-2.9,-1.2,-4.1,-2.1Zm2.8,-1.7l-0.6,-0.9l-4.9,2.8l0.8,-0.8c-0.4,-0.4,-1.1,-0.9,-1.8,-1.2l-0.8,0.9c0.6,0.4,1.3,0.9,1.7,1.2l-4.7,2.8l0.5,1l1.7,-1c1.5,1.2,3.1,2.1,4.9,2.6c-0.6,1.6,-1.7,3.1,-3.1,4.6c0.3,0.1,0.9,0.4,1.2,0.6c1.4,-1.6,2.4,-3.2,3,-4.9c1.8,0.3,3.7,0.2,5.7,-0.3c0,-0.4,0,-1,0.1,-1.3c-1.9,0.5,-3.7,0.7,-5.4,0.4c0.4,-1.7,0.4,-3.5,0,-5.5Zm4.1,-3.7c-0.6,-0.2,-1.8,-0.5,-2.6,-0.6l-0.3,1c0.9,0.1,2,0.4,2.6,0.7Zm3,6.4l-2.6,-4.6l-2.4,1.3l0.6,1l1.4,-0.8l2.1,3.7c0.3,0.4,0.2,0.8,0.1,1.1c0.3,0.1,0.8,0.4,1,0.6c0.1,-0.4,0.3,-0.8,1.3,-3.1c-0.2,-0.2,-0.5,-0.5,-0.7,-0.7Zm6.3,-2.7l-3.4,2l-1,-1.7l3.4,-2Zm-3.6,3.8l1,-0.5l-0.3,-0.4l3.5,-2l0.2,0.3l1,-0.6L542,365.1l-5.3,3.2ZM539,363c0.2,0.4,0.4,0.9,0.6,1.3l-2,1.1c-0.1,-0.4,-0.3,-0.9,-0.4,-1.4Zm1.5,0.8c-0.3,-0.8,-0.7,-1.6,-1,-2.3l-0.8,0.4l-0.1,0.1l-1.7,1c-0.2,-0.3,-0.3,-0.7,-0.4,-1.1l3,-1.8L539,359.2l-6.2,3.6l0.6,0.9l2,-1.2c0.2,0.4,0.3,0.8,0.4,1.1l-1.5,0.9l0.5,0.9l1.4,-0.8c0.1,0.5,0.3,1,0.4,1.5l-1.8,1l0.6,0.9l6.9,-4.1L541.8,363Zm5.4,-3.6c-0.7,-0.1,-1.9,-0.1,-2.7,0.1l-0.1,1c0.9,-0.1,2.1,-0.1,2.7,0Zm2,6.5c0,-1.4,0,-3.1,-0.1,-4.6l-1.1,-0.2c0.1,1.6,0,3.5,-0.1,4.6ZM542,358.1c0.9,-0.1,2.1,-0.1,2.7,0l0.1,-1.2c-0.6,-0.1,-1.8,0,-2.7,0.1Zm14.3,3.2c-0.9,-0.7,-2.4,-1.4,-3.7,-1.9l-0.6,0.8c0.5,0.3,1.1,0.5,1.6,0.8l-2.8,2.1c0.1,-1.2,0.1,-2.7,-0.1,-4l3,-1.8l-0.5,-0.9l-2.7,1.6l-1.1,-1.8l2.3,-1.4l-0.5,-0.9l-2.3,1.3l-1.1,-1.7l-1,0.6l1,1.8l-2.2,1.3l0.6,0.9l2.2,-1.3l1,1.8l-2.7,1.5l0.6,1l2.2,-1.3c0.2,1.4,0.2,2.8,0.2,3.3c0,0.5,-0.1,0.9,-0.3,1.1c0.3,0.2,0.8,0.6,0.9,0.8c0.3,-0.4,0.7,-0.7,4.3,-3.4c0.4,0.2,0.8,0.5,1,0.7Zm6.2,-12.5c0.5,1.3,0.9,2.4,1,3.5c-0.9,-0.7,-1.8,-1.6,-2.6,-2.5Zm-3.2,3.8l-0.1,0.1l-0.9,0.6c0.1,-0.4,0.1,-0.7,0.2,-1.1l1.4,-0.8c0.1,0.4,0,0.9,0,1.3ZM556.9,352l-0.5,-0.9l1.1,-0.7c0,0.4,0,0.9,0,1.3Zm7.3,-4.2l-0.5,-0.9l-3.1,1.8c-0.2,-0.7,-0.4,-1.4,-0.6,-2.1l-1.2,0.4c0.6,1.5,1,3,1.1,4.4l-0.5,-0.9l-0.8,0.5c0,-1,0,-2,-0.2,-3l-1.1,0.3c0.2,0.6,0.2,1.3,0.2,2l-0.4,-0.8l-1.2,0.7l-0.7,-1l-0.9,0.5l0.6,1.1l-1.3,0.8l0.5,0.8l1.3,-0.8l0.6,0.9l-1.8,1.1l0.5,0.9l2.5,-1.5c0,0.3,-0.1,0.7,-0.3,1.1l-0.9,0.5l0.4,0.7c-0.1,0.4,-0.4,0.8,-0.6,1.2c0.3,0.1,0.9,0.3,1.1,0.4c0.4,-0.8,0.8,-1.5,1,-2.3l1,-0.6c-0.2,0.5,-0.4,1.1,-0.6,1.5l0.5,0.7c-0.8,0.6,-1.6,1.1,-2.2,1.5l0.7,0.9l2,-1.5l0.7,1.3c0.1,0.1,0.1,0.1,-0.1,0.2c-0.1,0.1,-0.6,0.4,-1.1,0.7c0.3,0.1,0.6,0.4,0.8,0.6c0.7,-0.4,1.2,-0.6,1.4,-1c0.3,-0.3,0.2,-0.6,0,-1.1l-0.8,-1.3l2,-1.5l-0.6,-0.9c-0.6,0.5,-1.3,1,-2,1.5l-0.2,-0.4c0.3,-0.8,0.6,-1.6,0.7,-2.4c0.4,0.1,0.8,0.2,1,0.2c0,-0.4,0.1,-0.9,0,-1.4c0.8,0.9,1.6,1.6,2.5,2.2c-0.1,1.2,-0.5,2.3,-1.3,3.4c0.3,0.1,0.9,0.4,1.1,0.6c0.7,-1.1,1.1,-2.2,1.3,-3.4c1,0.5,2,0.8,3,0.8c0,-0.4,0.1,-0.9,0.2,-1.3c-1.1,0.1,-2.1,-0.2,-3.1,-0.8c-0.1,-1.5,-0.5,-3.1,-1.3,-4.9Zm2.9,-2.1l7.3,-4.2l0.8,1.3l1,-0.6L574.8,340l-1.6,1c0.1,-0.6,0.1,-1.3,0.1,-1.9l-1.2,0.2c0.1,0.7,0.1,1.6,0,2.3l-1.6,0.9l0.4,-0.5c-0.3,-0.4,-1.1,-0.9,-1.8,-1.2l-0.7,0.9c0.6,0.3,1.3,0.7,1.7,1.1l-2.2,1.2l0.4,-0.4c-0.5,-0.3,-1.3,-0.7,-1.9,-0.9l-0.6,0.9c0.5,0.2,1.1,0.5,1.6,0.8l-1.7,1l1.3,2.2l0.9,-0.5Zm10.4,-1.5l-4.3,2.5L573,346.4c0.7,-1,1.3,-2.1,1.7,-3.1l-1,-0.2l-0.2,0.2l-5.1,3l0.6,0.9l3.9,-2.4c-0.3,0.6,-0.7,1.3,-1.1,1.8l0.4,0.7l-4.2,2.5l0.6,0.9l4.2,-2.4l1,1.7c0.1,0.2,0.1,0.3,-0.1,0.4c-0.3,0.1,-1,0.6,-1.8,1c0.3,0.2,0.8,0.5,1,0.7c0.9,-0.5,1.6,-0.9,1.9,-1.3c0.4,-0.4,0.4,-0.8,0,-1.4l-1,-1.7l4.3,-2.6Z" class="g3_370" />
<path d="M497.4,406.4l1.4,-0.8c0.5,1.1,0.7,2,0.8,2.9c-0.7,-0.5,-1.5,-1.3,-2.2,-2.1m2.5,-1.5l-0.3,-0.6l-2.3,1.4c-0.2,-0.5,-0.3,-1,-0.5,-1.6l-0.7,0.3c0.6,1.5,0.9,3,0.8,4.2l-0.4,-0.1l-0.1,0.1l-0.8,0.5c0,-0.3,0.1,-0.6,0.1,-0.9l1.1,-0.6l-0.3,-0.5l-0.7,0.4c0,-0.8,0,-1.6,-0.1,-2.4l-0.7,0.2c0.2,0.9,0.2,1.7,0.1,2.6l-0.5,0.3l-0.5,-0.8l1,-0.6l-0.3,-0.5l-1,0.6L493.3,406l-0.5,0.4l0.5,0.8l-1.1,0.6l0.3,0.5l1.1,-0.6l0.5,0.8l-1.4,0.8l0.3,0.6l2,-1.2c-0.1,0.3,-0.1,0.6,-0.2,0.9l-0.8,0.5l0.3,0.4l0.2,-0.1c-0.2,0.4,-0.4,0.8,-0.6,1.1c0.2,0.1,0.5,0.2,0.7,0.2c0.3,-0.5,0.6,-1.2,0.8,-1.8l0.8,-0.5c-0.1,0.4,-0.3,0.9,-0.5,1.3l0.4,0.5c-0.6,0.5,-1.2,0.9,-1.6,1.2l0.3,0.5c0.5,-0.3,1,-0.7,1.6,-1.1l0.6,1.1l0,0.2c-0.1,0,-0.5,0.3,-0.9,0.5c0.2,0.1,0.4,0.2,0.5,0.4c0.5,-0.3,0.9,-0.5,1,-0.7c0.2,-0.2,0.2,-0.4,0,-0.7l-0.7,-1.2l1.6,-1.2l-0.3,-0.5c-0.6,0.4,-1.1,0.8,-1.6,1.2l-0.2,-0.4c0.2,-0.6,0.4,-1.2,0.6,-1.8c0.2,0,0.5,0.1,0.6,0.1c0,-0.4,0,-0.8,0,-1.2c0.7,0.7,1.3,1.3,2,1.8c0,0.9,-0.3,1.8,-0.9,2.7c0.2,0.1,0.5,0.2,0.6,0.3c0.6,-0.9,0.9,-1.7,1,-2.6c0.8,0.4,1.6,0.6,2.4,0.6c0,-0.2,0,-0.5,0.1,-0.7c-0.8,0,-1.7,-0.2,-2.5,-0.7c0,-1.2,-0.3,-2.4,-0.9,-3.8Zm2.1,-1.5l5.6,-3.2l0.6,1l0.6,-0.3l-0.9,-1.6l-1.3,0.7c0.1,-0.4,0.1,-1,0.1,-1.5l-0.7,0.2c0.1,0.5,0,1.2,0,1.7l-1.4,0.8l0.4,-0.4c-0.3,-0.3,-0.9,-0.6,-1.4,-0.9l-0.4,0.5c0.4,0.2,1,0.6,1.3,0.9l-1.8,1l0.2,-0.3c-0.3,-0.3,-0.9,-0.5,-1.4,-0.7l-0.3,0.6c0.4,0.1,0.9,0.3,1.3,0.6l-1.4,0.7l1,1.6l0.5,-0.3Zm7.9,-1l-3.3,1.9L506.5,404c0.5,-0.8,1,-1.7,1.2,-2.4l-0.6,-0.1l-0.1,0.1l-3.9,2.3l0.3,0.5l3.3,-1.9c-0.3,0.5,-0.6,1.1,-1,1.6l0.3,0.5l-3.2,1.9l0.4,0.6l3.2,-1.9l0.9,1.5c0,0.1,0,0.2,-0.1,0.3c-0.2,0.1,-0.7,0.4,-1.4,0.8c0.2,0.1,0.5,0.3,0.6,0.4c0.8,-0.4,1.2,-0.7,1.4,-1c0.3,-0.2,0.3,-0.5,0.1,-0.8L507,404.8l3.2,-1.9Zm1.1,-5.1c0.3,0.2,0.7,0.5,0.9,0.7l0.5,-0.5c-0.2,-0.2,-0.5,-0.4,-0.8,-0.5l1.4,-0.9l-0.4,-0.5l-2,1.2c0,-0.2,0,-0.5,-0.1,-0.7l-0.6,0.2c0.1,0.8,0,1.8,-0.2,2.6c0.2,0,0.5,0,0.7,0c0.1,-0.4,0.2,-0.9,0.2,-1.4Zm4,1.3l2.1,-1.1l0.5,0.9l0,0.2c-0.1,0.1,-0.4,0.3,-0.8,0.4c0.2,0.1,0.4,0.2,0.5,0.4c0.5,-0.3,0.8,-0.5,0.9,-0.7c0.2,-0.2,0.2,-0.3,0,-0.6l-0.9,-1.5l-2.6,1.5l-0.3,-0.6l3,-1.8l-0.3,-0.5l-3,1.8l-0.3,-0.5l-0.2,0.1c0,-0.3,0.1,-0.6,0.1,-0.9l0.6,-0.4c0.4,0.2,0.8,0.5,1,0.7l0.4,-0.5c-0.1,-0.2,-0.4,-0.4,-0.8,-0.5l1.7,-1l-0.3,-0.5l-2.6,1.5c0,-0.2,0,-0.5,-0.1,-0.7l-0.7,0.2c0.2,0.8,0.1,1.8,-0.2,2.5c0.2,0,0.4,0.1,0.6,0.1l0.1,0.2l-3.1,1.9l0.3,0.5l3.2,-1.8l0.3,0.6l-2.6,1.5l1.2,2.1l0.7,-0.4l-1,-1.5l2,-1.2l0.4,0.7c-0.2,1.3,-1.1,2.8,-2.2,3.9c0.2,0,0.5,0.2,0.6,0.3c1,-1,1.7,-2.2,2,-3.5l1.2,2L517,402l-1.1,-1.9c1.1,0.2,2.5,0.2,3.9,-0.2c0,-0.2,0.1,-0.5,0.1,-0.7c-1.6,0.5,-3.4,0.5,-4.4,0.2Zm5.5,-4.5l-0.7,0.4l-1,-1.9l0.6,-0.3Zm1,-0.6l-0.6,0.3L519.8,392l0.6,-0.3Zm-0.4,0.8l0.7,-0.4l1.1,2l-0.6,0.4Zm-1,0.6l0.6,-0.3l1.2,1.9l-0.6,0.4Zm0.5,-4l-2.6,1.5l3.4,5.9l0.5,-0.3l-0.3,-0.6l2.1,-1.2Zm6.8,3.7l-2.1,1.2l-0.9,-1.5l2.1,-1.2Zm-2.1,2.4l0.5,-0.3l-0.2,-0.4l2.1,-1.2l0.2,0.4l0.6,-0.4l-1.7,-2.9l-3.2,1.9Zm-2.7,-6.3l1.9,-1.1c0,0.6,-0.1,1.3,-0.3,1.9c-0.6,-0.2,-1.2,-0.4,-1.6,-0.7Zm2,-2l-0.1,0.1l-2,1.2c0,-0.3,0,-0.6,0,-0.9l-0.6,0.1c0.1,1.1,0.1,2.3,-0.2,3.3c0.1,0,0.4,0.1,0.6,0.2c0.1,-0.4,0.2,-0.8,0.2,-1.3c0.5,0.3,0.9,0.5,1.5,0.6c-0.4,0.8,-0.9,1.5,-1.4,2.2c0.1,0,0.4,0.2,0.5,0.4c0.6,-0.7,1.1,-1.5,1.5,-2.4c0.8,0.1,1.7,0.1,2.6,-0.1c-0.1,-0.1,-0.1,-0.4,-0.1,-0.6c-0.8,0.2,-1.6,0.2,-2.3,0.1c0.3,-0.9,0.4,-1.9,0.3,-2.9Zm4.4,-2.2l2.2,-1.3c0.2,0.7,0.5,1.6,0.6,2.2l2.1,-1.2c0.2,1.2,0.2,2.3,-0.1,3.3c-1.7,-0.3,-3.2,-1.2,-4.6,-2.6Zm4.9,-1.1l-0.1,0l-1.6,1c-0.2,-0.7,-0.4,-1.6,-0.7,-2.2l-4.9,2.9l0.4,0.5l1.4,-0.8l0.4,0.7c0.8,1.4,1.9,3.5,1.1,6.1c0.2,0,0.5,0.1,0.7,0.2c0.6,-2.1,0.2,-3.9,-0.5,-5.3c1.1,0.8,2.2,1.4,3.4,1.7c-0.4,0.9,-1,1.7,-1.6,2.3c0.1,0.1,0.4,0.3,0.6,0.4c0.7,-0.8,1.3,-1.6,1.7,-2.6c1,0.1,1.9,0,3,-0.3c0,-0.2,0,-0.5,0.1,-0.7c-1,0.3,-2,0.4,-2.8,0.3c0.3,-1.3,0.4,-2.7,-0.1,-4.3Zm3.5,-3.5c-0.4,-0.1,-1.2,-0.3,-1.8,-0.5l-0.2,0.6c0.6,0.2,1.4,0.4,1.8,0.6Zm2.3,4.6l-1.9,-3.2l-1.7,1l0.3,0.5l1.1,-0.6l1.6,2.7c0.3,0.4,0.2,0.9,0.1,1.1c0.2,0,0.5,0.1,0.6,0.2c0,-0.3,0.1,-0.5,0.8,-2.4c-0.1,-0.1,-0.4,-0.3,-0.5,-0.4Zm-0.5,-4.6l1.2,-0.7l0.5,0.9l-1.2,0.7Zm-0.8,-1.3l1.3,-0.7l0.5,0.9l-1.3,0.7Zm3.4,-0.8l-1.1,0.6l-0.5,-0.8l1.1,-0.7Zm0.8,1.3l-1.1,0.6L541,380.9l1.1,-0.7Zm2.1,1.1l-0.4,-0.6l-2.1,1.3l-0.4,-0.7l1.7,-1l-1.9,-3.1l-4,2.4l1.9,3.1l1.7,-1l0.4,0.6l-2.2,1.3l0.3,0.6l1.9,-1.1c-0.1,1.1,-0.4,2.3,-1,3.1c0.2,0.1,0.5,0.2,0.6,0.2c0.5,-0.8,0.9,-2.1,0.9,-3.2l1.4,2.3l0.6,-0.3l-1.4,-2.4c0.9,0.5,2.1,0.9,3,0.9c0,-0.2,0.1,-0.5,0.2,-0.7c-0.9,0,-2.1,-0.2,-3.1,-0.7Zm0.4,-4.2l5.7,-3.3l0.8,1.2l0.5,-0.3l-1,-1.8l-1.5,0.9c0.1,-0.4,0.2,-1,0.2,-1.5l-0.7,0.1c0,0.5,0,1.1,-0.1,1.6l0.4,-0.1l-1.4,0.9l-0.8,-1.3l-0.6,0.3l0.8,1.3l-1.4,0.8l0.2,-0.3c-0.3,-0.2,-0.9,-0.4,-1.4,-0.6l-0.4,0.5c0.4,0.2,0.9,0.4,1.2,0.6l-1.3,0.8l1,1.8l0.5,-0.3Zm1.9,0.4l3.3,-1.9l0.5,0.9l-3.3,1.9Zm4.1,2.6l-0.6,-1l2.6,-1.5l-0.3,-0.6l-2.6,1.6l-0.5,-0.8l2,-1.2l-1.1,-1.8l-4.4,2.6l1,1.8l1.9,-1.1l0.5,0.8l-2.5,1.5l0.3,0.5l2.5,-1.5l0.6,1l-3.2,1.9l0.3,0.5l7,-4.1l-0.3,-0.5Zm3.6,-9.8c-0.5,0,-1.4,0,-2,0.1l-0.1,0.6c0.6,0,1.5,0,2,0Zm0.8,2.4c-0.4,0,-1.3,0.1,-1.9,0.1l-0.1,0.6c0.6,0,1.5,0,2,0Zm1.3,4.8c0.1,-1,0.1,-2.3,0,-3.4l-0.7,-0.1c0.1,1.1,0.1,2.6,0,3.4Zm5.1,-4l-2.9,1.7l-0.9,-1.7l2.8,-1.6Zm-1,-4.2l-0.3,-0.5l-2.2,1.2l-0.8,-1.3c0.6,-0.6,1.1,-1.1,1.6,-1.6l-0.8,-0.2c-0.7,0.9,-2.2,2.1,-3.5,3c0.2,0.1,0.4,0.3,0.5,0.4c0.5,-0.3,1.1,-0.8,1.6,-1.2l0.8,1.3l-2.3,1.3l0.3,0.6l2.3,-1.3l0.8,1.3l-1.7,1l1.8,3.1l0.6,-0.3l-0.2,-0.4l2.8,-1.6l0.2,0.3l0.6,-0.4l-1.8,-3l-1.7,0.9l-0.8,-1.3Zm3.5,-5.1l-3.1,1.9l0.3,0.5l3.1,-1.8Zm3.4,5.2c-0.4,-0.4,-1.4,-1.2,-2.1,-1.7l-0.4,0.4c0.4,0.3,0.8,0.7,1.2,1l-1.7,1.5c-0.1,-0.9,-0.3,-2,-0.6,-2.9l1.8,-1.1L565.7,367l-3.6,2l0.4,0.6l1.1,-0.7c0.3,1.1,0.5,2.2,0.6,2.6c0,0.3,0.1,0.6,-0.1,0.7c0.2,0.1,0.5,0.4,0.6,0.5l-0.1,-0.1l0.1,0.1c0.1,-0.3,0.3,-0.5,2.3,-2.3c0.1,0.1,0.3,0.3,0.4,0.4Zm-0.7,-5.1c-0.3,-0.6,-0.7,-1.2,-1,-1.7l-0.6,0.3c0.3,0.6,0.7,1.1,1,1.7l-1.2,0.7l0.4,0.6l1.1,-0.7c1,1.9,1.6,3.7,1.1,5.4c0.2,0,0.6,0.1,0.8,0.1c0.5,-1.8,-0.3,-3.8,-1.3,-5.8l1.2,-0.7c1.6,2.9,2.1,4,2,4.3c0,0.2,-0.1,0.3,-0.2,0.3c-0.2,0.1,-0.6,0.4,-1.1,0.6c0.2,0.1,0.4,0.3,0.5,0.5c0.5,-0.2,0.9,-0.5,1.1,-0.7c0.3,-0.1,0.4,-0.3,0.4,-0.6c0.1,-0.5,-0.5,-1.7,-2.3,-5.1l-0.2,-0.3Z" class="g4_370" />
<path d="M504.9,429.9l3.5,-2l-0.3,-0.6l-2.9,1.6l-0.9,-1.6l2.5,-1.5l-0.3,-0.5l-2.5,1.5l-0.9,-1.5l2.8,-1.6l-0.4,-0.6l-3.4,2Zm6.1,-3.6c0.1,-0.2,0.2,-0.5,0.2,-0.7l0.3,0.5l0.6,-0.4l-2.9,-4.8l-0.6,0.4l0.8,1.2l0.2,0.4l0.2,0.2l-0.1,0C509.5,423,509.3,423,509,423c-0.2,0,-0.5,0,-0.7,0.2c-0.2,0.1,-0.4,0.3,-0.5,0.4c-0.2,0.2,-0.3,0.5,-0.3,0.7c0,0.2,0,0.5,0,0.8c0.1,0.2,0.2,0.5,0.4,0.8c0.1,0.3,0.3,0.5,0.5,0.7c0.2,0.2,0.4,0.3,0.6,0.4c0.3,0,0.5,0.1,0.7,0c0.3,0,0.5,-0.1,0.7,-0.2c0.3,-0.1,0.5,-0.3,0.6,-0.5m-1.3,0.1c-0.1,0,-0.3,0,-0.4,-0.1c-0.2,0,-0.3,-0.1,-0.5,-0.3c-0.1,-0.1,-0.2,-0.3,-0.3,-0.5c-0.1,-0.2,-0.2,-0.3,-0.3,-0.5c0,-0.2,-0.1,-0.4,-0.1,-0.6c0.1,-0.1,0.1,-0.3,0.2,-0.4c0.1,-0.2,0.2,-0.3,0.3,-0.4c0.2,-0.1,0.4,-0.1,0.6,-0.1c0.1,0,0.3,0,0.5,0c0.1,0.1,0.3,0.2,0.4,0.3c0.1,0.2,0.3,0.3,0.4,0.5c0.1,0.2,0.2,0.4,0.2,0.6c0.1,0.2,0.1,0.4,0.1,0.5c0,0.2,-0.1,0.4,-0.2,0.5c-0.1,0.1,-0.2,0.3,-0.4,0.4c-0.2,0.1,-0.3,0.1,-0.5,0.1m0.8,-5.2l0.6,-0.4l-0.4,-0.7l-0.6,0.4Zm2.4,4l0.6,-0.3l-2.1,-3.5l-0.5,0.4Zm-0.6,-3.7l0.6,-0.3l1.3,2.3c0.2,0.3,0.4,0.4,0.6,0.4c0.2,0.1,0.4,0,0.6,-0.1c0.2,-0.1,0.3,-0.2,0.5,-0.4l-0.3,-0.5l-0.2,0.2l-0.1,0.1l-0.3,0L514.7,423l-1.2,-2.1l0.7,-0.5L513.9,420l-0.7,0.4l-0.6,-1.1l-0.6,0.4l0.6,1.1l-0.5,0.3Zm6.4,0.3c0.2,-0.3,0.3,-0.5,0.3,-0.7c0.1,-0.3,0.1,-0.6,0,-0.8c-0.1,-0.3,-0.2,-0.6,-0.3,-0.8c-0.2,-0.3,-0.3,-0.5,-0.5,-0.6c-0.2,-0.2,-0.5,-0.3,-0.7,-0.4c-0.3,-0.1,-0.5,-0.1,-0.8,-0.1c-0.2,0,-0.5,0.1,-0.7,0.3c-0.3,0.1,-0.5,0.3,-0.7,0.5c-0.1,0.2,-0.2,0.5,-0.3,0.7c0,0.3,0,0.5,0,0.8c0.1,0.3,0.2,0.5,0.3,0.8c0.2,0.2,0.4,0.4,0.6,0.6c0.2,0.2,0.4,0.3,0.6,0.4c0.3,0.1,0.5,0.1,0.8,0.1c0.3,-0.1,0.5,-0.1,0.8,-0.3c0.2,-0.2,0.5,-0.3,0.6,-0.5m-1.4,0.2c-0.2,0,-0.4,0,-0.5,-0.1c-0.2,-0.1,-0.3,-0.2,-0.5,-0.3c-0.1,-0.1,-0.3,-0.3,-0.4,-0.5c-0.1,-0.2,-0.1,-0.4,-0.2,-0.5c0,-0.2,-0.1,-0.4,0,-0.6c0,-0.2,0,-0.3,0.1,-0.5c0.1,-0.1,0.2,-0.2,0.4,-0.4c0.2,-0.1,0.4,-0.1,0.6,-0.1c0.1,0,0.3,0,0.5,0.1c0.1,0,0.3,0.1,0.4,0.3c0.2,0.1,0.3,0.3,0.4,0.5c0.1,0.1,0.2,0.3,0.2,0.5c0.1,0.2,0.1,0.4,0.1,0.6c0,0.1,-0.1,0.3,-0.2,0.4c-0.1,0.2,-0.2,0.3,-0.4,0.4c-0.2,0.1,-0.4,0.2,-0.5,0.2m1.6,-5l-0.6,0.4l2,3.4l0.6,-0.3l-1.1,-1.9c-0.1,-0.1,-0.1,-0.3,-0.1,-0.5c-0.1,-0.1,0,-0.3,0,-0.4c0,-0.2,0.1,-0.3,0.2,-0.4l0.3,-0.3l0.1,-0.1l0.2,0l-0.3,-0.6l-0.2,0l-0.1,0.1c-0.2,0.1,-0.4,0.3,-0.5,0.5c-0.1,0.2,-0.1,0.5,-0.1,0.8Zm2.7,1l1.8,-1.1l-0.3,-0.5l-1.8,1Zm1,-4l0.7,-0.4l-0.4,-0.7l-0.7,0.4Zm2.5,4.1l0.6,-0.4l-2.1,-3.4l-0.6,0.3ZM525,413.4l-0.5,0.4l2,3.4l0.6,-0.3l-1.3,-2.1c0,-0.2,-0.1,-0.3,-0.1,-0.4c0,-0.2,0,-0.3,0,-0.4l0.2,-0.4l0.3,-0.3c0.3,-0.1,0.5,-0.2,0.7,-0.1c0.2,0,0.4,0.1,0.5,0.4l1.4,2.3l0.6,-0.3l-1.5,-2.5c-0.2,-0.3,-0.4,-0.5,-0.8,-0.6c-0.3,-0.1,-0.6,0,-1,0.2c-0.2,0.1,-0.4,0.3,-0.5,0.5c-0.2,0.2,-0.2,0.5,-0.2,0.7l-0.1,0Zm4.1,0.2l1.8,-1.1L530.6,412l-1.8,1Zm6.8,-2.5c0.1,-0.1,0.1,-0.2,0.1,-0.4c0,-0.1,0,-0.3,0,-0.4c-0.1,-0.2,-0.1,-0.3,-0.1,-0.4c-0.1,-0.2,-0.1,-0.3,-0.2,-0.4l-0.7,0.4c0.1,0.1,0.2,0.3,0.2,0.5c0,0.2,0,0.4,0,0.6c0,0.1,-0.1,0.3,-0.2,0.5c-0.2,0.1,-0.3,0.3,-0.6,0.4c-0.2,0.2,-0.4,0.2,-0.7,0.3c-0.2,0,-0.5,0,-0.7,-0.1c-0.3,-0.1,-0.5,-0.3,-0.7,-0.4c-0.2,-0.2,-0.4,-0.5,-0.6,-0.8c-0.1,-0.2,-0.3,-0.5,-0.3,-0.8c-0.1,-0.3,-0.1,-0.5,-0.1,-0.8c0.1,-0.2,0.2,-0.5,0.3,-0.7c0.1,-0.2,0.3,-0.4,0.6,-0.5c0.4,-0.2,0.7,-0.3,1,-0.3c0.4,0.1,0.6,0.2,0.9,0.5l0.6,-0.4c-0.2,-0.2,-0.3,-0.4,-0.6,-0.5c-0.2,-0.1,-0.4,-0.2,-0.7,-0.3c-0.2,0,-0.5,0,-0.7,0.1c-0.3,0,-0.6,0.1,-0.8,0.3c-0.4,0.2,-0.7,0.5,-0.9,0.8c-0.2,0.2,-0.3,0.6,-0.4,0.9c0,0.3,0,0.7,0,1.1c0.1,0.3,0.3,0.7,0.5,1c0.2,0.4,0.4,0.7,0.7,0.9c0.3,0.3,0.6,0.4,0.9,0.6c0.3,0.1,0.7,0.1,1,0.1c0.4,-0.1,0.7,-0.2,1.1,-0.4c0.6,-0.4,1,-0.8,1.1,-1.4m0,-4.2l-0.7,-1.2l-0.6,0.3l2.8,4.8l0.6,-0.3l-1.2,-2.1c-0.1,-0.2,-0.1,-0.3,-0.2,-0.5c0,-0.1,0,-0.2,0,-0.4l0.2,-0.3l0.4,-0.3c0.2,-0.2,0.4,-0.2,0.6,-0.2c0.2,0.1,0.4,0.2,0.5,0.4l1.4,2.4l0.6,-0.4l-1.4,-2.4c-0.2,-0.4,-0.5,-0.6,-0.8,-0.6c-0.3,-0.1,-0.7,0,-1.1,0.2c-0.2,0.1,-0.4,0.3,-0.5,0.5c-0.1,0.2,-0.2,0.4,-0.2,0.7l-0.2,-0.3l-0.2,-0.3m2.8,-2.3l0.6,-0.4l-0.4,-0.7l-0.6,0.4Zm2.4,4.1l0.6,-0.4l-2,-3.5l-0.6,0.4Zm3.8,-2.6c0.1,-0.3,0.2,-0.7,0,-1l-0.5,0.3c0,0.2,0,0.4,-0.1,0.6c-0.1,0.2,-0.3,0.4,-0.5,0.5c-0.2,0.1,-0.3,0.2,-0.5,0.2c-0.2,0,-0.3,0,-0.5,-0.1c-0.1,0,-0.3,-0.1,-0.4,-0.2c-0.2,-0.1,-0.3,-0.3,-0.4,-0.4l2.7,-1.6c-0.2,-0.3,-0.4,-0.5,-0.6,-0.7c-0.2,-0.2,-0.5,-0.4,-0.7,-0.4c-0.2,-0.1,-0.5,-0.2,-0.7,-0.1c-0.3,0,-0.5,0.1,-0.8,0.2c-0.2,0.2,-0.4,0.3,-0.6,0.6c-0.1,0.2,-0.2,0.4,-0.3,0.6c0,0.3,0,0.6,0,0.8c0.1,0.3,0.2,0.6,0.3,0.8c0.2,0.3,0.3,0.5,0.5,0.6c0.3,0.2,0.5,0.4,0.7,0.4c0.3,0.1,0.5,0.1,0.8,0.1c0.2,0,0.5,-0.1,0.8,-0.3c0.4,-0.2,0.6,-0.5,0.8,-0.9M543,403.7c0.3,0.1,0.6,0.3,0.8,0.7l-2,1.1c-0.1,-0.1,-0.2,-0.3,-0.2,-0.4c0,-0.2,0,-0.4,0,-0.5c0.1,-0.1,0.1,-0.3,0.2,-0.4c0.1,-0.1,0.2,-0.2,0.4,-0.3c0.3,-0.2,0.6,-0.2,0.8,-0.2m1.2,-0.9l0.5,-0.3l1.8,3l0.6,-0.4l-1.8,-3l0.7,-0.4l-0.2,-0.4l-0.7,0.4l-0.3,-0.5L544.7,401l0,-0.2l0.2,-0.2c0.1,-0.1,0.2,-0.1,0.4,-0.2L545,399.9l-0.2,0.1l-0.1,0.1c-0.2,0.1,-0.4,0.2,-0.5,0.3l-0.2,0.3c-0.1,0.3,0,0.5,0.2,0.9l0.3,0.4l-0.6,0.3Zm2.9,-0.4l0.7,-0.4l-0.4,-0.7l-0.7,0.4Zm1.2,2L549,404l-0.4,-0.7l-0.7,0.4Zm0.5,-5.9l1.6,-1l2.4,4.2l0.7,-0.3L551,397.1l1.6,-0.9l-0.3,-0.6l-3.8,2.3Zm8.4,0.6c0.1,-0.2,0.2,-0.4,0.3,-0.7c0,-0.2,0,-0.5,0,-0.7c-0.1,-0.3,-0.2,-0.6,-0.3,-0.8c-0.2,-0.3,-0.4,-0.5,-0.6,-0.6c-0.2,-0.2,-0.4,-0.3,-0.6,-0.4c-0.3,-0.1,-0.5,-0.1,-0.8,-0.1c-0.3,0,-0.5,0.1,-0.8,0.3c-0.2,0.1,-0.5,0.3,-0.6,0.5c-0.2,0.2,-0.3,0.5,-0.3,0.7c-0.1,0.3,-0.1,0.5,0,0.8c0,0.3,0.1,0.5,0.3,0.8c0.1,0.2,0.3,0.4,0.5,0.6c0.2,0.2,0.5,0.3,0.7,0.4c0.2,0.1,0.5,0.1,0.8,0.1c0.2,-0.1,0.5,-0.2,0.7,-0.3c0.3,-0.2,0.5,-0.3,0.7,-0.6m-1.5,0.3c-0.1,0,-0.3,0,-0.5,-0.1c-0.1,-0.1,-0.3,-0.2,-0.4,-0.3c-0.2,-0.1,-0.3,-0.3,-0.4,-0.5c-0.1,-0.2,-0.2,-0.4,-0.2,-0.5c-0.1,-0.2,-0.1,-0.4,-0.1,-0.6c0,-0.2,0.1,-0.3,0.2,-0.5c0.1,-0.1,0.2,-0.3,0.4,-0.4c0.2,-0.1,0.3,-0.1,0.5,-0.1c0.2,0,0.4,0,0.5,0.1c0.2,0,0.3,0.1,0.5,0.3c0.1,0.1,0.2,0.3,0.3,0.4c0.2,0.2,0.2,0.4,0.3,0.6c0,0.2,0.1,0.4,0,0.6c0,0.1,0,0.3,-0.1,0.4c-0.1,0.2,-0.3,0.3,-0.4,0.4c-0.2,0.1,-0.4,0.2,-0.6,0.2m1.7,-5l-0.6,0.4l2,3.4l0.6,-0.3l-1.2,-2.1c-0.1,-0.2,-0.2,-0.3,-0.2,-0.4c0,-0.2,0,-0.3,0,-0.4l0.2,-0.4l0.3,-0.3c0.3,-0.1,0.5,-0.2,0.7,-0.1c0.2,0,0.4,0.1,0.5,0.4l1.4,2.3l0.6,-0.3l-1.4,-2.5c-0.3,-0.3,-0.5,-0.5,-0.8,-0.6c-0.4,-0.1,-0.7,0,-1.1,0.2c-0.2,0.1,-0.4,0.3,-0.5,0.5c-0.1,0.2,-0.2,0.5,-0.2,0.7Zm7.8,1.6c0.2,-0.2,0.3,-0.4,0.4,-0.6c0,-0.1,0.1,-0.3,0,-0.6c0,-0.2,-0.1,-0.4,-0.2,-0.6l-2,-3.3l-0.5,0.3l0.2,0.5c-0.2,-0.1,-0.4,-0.2,-0.6,-0.2c-0.3,0,-0.5,0.1,-0.8,0.3c-0.2,0.1,-0.3,0.2,-0.5,0.4c-0.1,0.2,-0.2,0.4,-0.2,0.6c-0.1,0.2,-0.1,0.5,0,0.7c0,0.3,0.1,0.5,0.3,0.8c0.1,0.3,0.3,0.5,0.5,0.6c0.2,0.2,0.4,0.3,0.6,0.4c0.2,0.1,0.5,0.1,0.7,0.1c0.2,-0.1,0.4,-0.2,0.7,-0.3c0.2,-0.1,0.4,-0.3,0.5,-0.5c0.1,-0.2,0.2,-0.4,0.2,-0.6l0.1,0.2l0.2,0.3l0,0.1c0.2,0.2,0.2,0.5,0.2,0.7c-0.1,0.3,-0.3,0.5,-0.6,0.7c-0.3,0.1,-0.5,0.2,-0.7,0.2c-0.2,0,-0.4,0,-0.5,-0.2l-0.6,0.3c0.2,0.3,0.5,0.5,0.8,0.5c0.4,0,0.8,-0.1,1.2,-0.4c0.3,-0.1,0.5,-0.3,0.6,-0.4m-2.6,-1.3c-0.3,-0.1,-0.5,-0.4,-0.7,-0.7c-0.2,-0.4,-0.3,-0.7,-0.3,-1.1c0,-0.3,0.2,-0.5,0.5,-0.7c0.4,-0.2,0.7,-0.3,1,-0.1c0.3,0.1,0.5,0.3,0.7,0.7c0.1,0.1,0.2,0.3,0.3,0.5c0,0.2,0,0.3,0,0.5c0,0.1,-0.1,0.3,-0.1,0.4c-0.1,0.2,-0.3,0.3,-0.5,0.4c-0.3,0.2,-0.6,0.2,-0.9,0.1m8.8,-4.4c0,-0.1,0,-0.3,0,-0.4c0,-0.2,0,-0.3,0,-0.5c0,-0.1,0,-0.2,-0.1,-0.4l-0.1,-0.4l-0.7,0.4c0.1,0.2,0.1,0.4,0.2,0.6c0,0.2,0,0.3,0,0.5c-0.1,0.2,-0.2,0.4,-0.3,0.5c-0.1,0.2,-0.3,0.3,-0.5,0.5c-0.2,0.1,-0.5,0.2,-0.7,0.2c-0.3,0,-0.5,0,-0.8,-0.1c-0.2,-0.1,-0.4,-0.2,-0.6,-0.4c-0.3,-0.2,-0.4,-0.4,-0.6,-0.7c-0.2,-0.3,-0.3,-0.6,-0.4,-0.8c0,-0.3,0,-0.6,0,-0.8c0,-0.3,0.1,-0.5,0.3,-0.7c0.1,-0.2,0.3,-0.4,0.5,-0.6c0.4,-0.2,0.8,-0.3,1.1,-0.2c0.3,0,0.6,0.2,0.8,0.5l0.7,-0.4c-0.2,-0.2,-0.4,-0.4,-0.6,-0.5c-0.2,-0.2,-0.5,-0.3,-0.7,-0.3c-0.2,0,-0.5,0,-0.8,0c-0.2,0.1,-0.5,0.2,-0.8,0.4c-0.3,0.2,-0.6,0.4,-0.8,0.7c-0.2,0.3,-0.4,0.6,-0.4,1c-0.1,0.3,-0.1,0.7,0,1c0.1,0.4,0.2,0.7,0.4,1.1c0.2,0.3,0.5,0.6,0.8,0.9c0.2,0.2,0.6,0.4,0.9,0.5c0.3,0.1,0.6,0.2,1,0.1c0.3,0,0.7,-0.1,1,-0.3c0.7,-0.4,1,-0.9,1.2,-1.4m0,-4.2l-0.7,-1.3l-0.6,0.4l2.8,4.8l0.6,-0.4l-1.3,-2.1c0,-0.1,-0.1,-0.3,-0.1,-0.4c0,-0.1,0,-0.3,0,-0.4l0.2,-0.4l0.3,-0.3c0.2,-0.1,0.5,-0.1,0.7,-0.1c0.2,0,0.3,0.2,0.5,0.4l1.4,2.3l0.5,-0.3l-1.4,-2.4c-0.2,-0.4,-0.5,-0.6,-0.8,-0.7c-0.3,-0.1,-0.6,0,-1,0.2c-0.2,0.2,-0.4,0.4,-0.6,0.6c-0.1,0.2,-0.1,0.4,-0.2,0.7l-0.1,-0.3l-0.2,-0.3m7.5,0c0.2,-0.3,0.2,-0.7,0.1,-1l-0.6,0.3c0,0.2,0,0.4,-0.1,0.6c-0.1,0.2,-0.2,0.4,-0.5,0.5c-0.1,0.1,-0.3,0.2,-0.5,0.2c-0.1,0,-0.3,0,-0.4,-0.1c-0.2,0,-0.3,-0.1,-0.5,-0.2c-0.1,-0.1,-0.2,-0.3,-0.4,-0.4l2.7,-1.6c-0.2,-0.3,-0.4,-0.5,-0.6,-0.7c-0.2,-0.2,-0.4,-0.4,-0.7,-0.5c-0.2,0,-0.4,-0.1,-0.7,-0.1c-0.3,0.1,-0.5,0.2,-0.8,0.3c-0.2,0.2,-0.4,0.3,-0.6,0.5c-0.1,0.3,-0.2,0.5,-0.3,0.7c0,0.3,0,0.6,0.1,0.8c0,0.3,0.1,0.5,0.3,0.8c0.1,0.2,0.3,0.5,0.5,0.6c0.2,0.2,0.4,0.3,0.7,0.4c0.2,0.1,0.4,0.1,0.7,0.1c0.3,0,0.5,-0.1,0.8,-0.3c0.4,-0.2,0.7,-0.5,0.8,-0.9m-1.8,-2.4c0.2,0.1,0.5,0.3,0.7,0.7l-2,1.1c-0.1,-0.1,-0.1,-0.3,-0.1,-0.4c-0.1,-0.2,-0.1,-0.4,0,-0.5c0,-0.1,0.1,-0.3,0.1,-0.4c0.1,-0.1,0.3,-0.2,0.4,-0.3c0.3,-0.2,0.6,-0.2,0.9,-0.2m1.7,-1.9l-0.6,0.4l2.1,3.4l0.6,-0.3l-1.3,-2.1c-0.1,-0.2,-0.1,-0.3,-0.1,-0.4c-0.1,-0.2,0,-0.3,0,-0.5l0.2,-0.3l0.3,-0.3c0.2,-0.1,0.5,-0.2,0.7,-0.1c0.2,0,0.3,0.1,0.5,0.3l1.3,2.4l0.6,-0.4l-1.4,-2.4c-0.2,-0.3,-0.5,-0.6,-0.8,-0.6c-0.3,-0.1,-0.6,0,-1,0.2c-0.3,0.1,-0.4,0.3,-0.6,0.5c-0.1,0.2,-0.2,0.5,-0.2,0.7Z" class="g4_370" />
<path d="M584.3,376.3l-0.1,0.1l-1.4,0.8l3.3,5.7l0.6,-0.3l-3,-5.1l0.7,-0.4c0.1,0.5,0.3,1.1,0.4,1.7c0.7,0.2,1,0.5,1.2,0.9c0.1,0.1,0.1,0.3,0.1,0.4l-0.2,0.2l-0.3,0.2c0.2,0.1,0.4,0.3,0.5,0.4c0.1,-0.1,0.3,-0.2,0.4,-0.2l0.3,-0.4c0.1,-0.2,0,-0.5,-0.2,-0.9c-0.3,-0.4,-0.6,-0.8,-1.3,-1c-0.1,-0.7,-0.3,-1.4,-0.4,-2.1Zm3,3.1c0.1,0.5,0.1,1.3,0,1.9c0.2,0,0.5,0,0.6,0.1c0.2,-0.7,0.1,-1.5,0,-2.2Zm2.7,-2.3l-0.4,-0.5l-1.3,0.8l-0.5,-1l-0.6,0.4l0.5,0.9l-0.7,0.4c-0.1,-0.5,-0.1,-1.1,-0.3,-1.7l2.3,-1.3l-0.3,-0.6l-2.1,1.3c-0.1,-0.3,-0.2,-0.7,-0.3,-0.9l-0.7,0.2c0.1,0.4,0.3,0.7,0.3,1l-0.9,0.6l0.4,0.5l0.7,-0.4c0.1,0.5,0.2,0.9,0.2,1.1c0.1,0.4,0.1,0.6,0,0.7c0.2,0.2,0.4,0.4,0.5,0.5c0,-0.1,0.3,-0.3,0.5,-0.4l0.7,-0.5l1.2,1.9l-0.1,0.2c-0.1,0.1,-0.3,0.2,-0.6,0.4c0.2,0.1,0.4,0.3,0.5,0.4c0.4,-0.2,0.7,-0.4,0.8,-0.6c0.2,-0.2,0.1,-0.4,0,-0.7l-1.2,-1.9Zm-0.6,1.2c0.6,0.4,1.3,0.8,1.7,1.1l0.3,-0.5c-0.4,-0.3,-1.1,-0.7,-1.6,-1.1Zm5,-8.1c0,0.7,-0.4,1.6,-0.8,2.2c0.3,0,0.5,0.1,0.7,0.1c0.4,-0.7,0.7,-1.6,0.8,-2.4Zm-3,3.5c0.5,0.2,1.1,0.6,1.3,0.8l0.4,-0.5c-0.3,-0.2,-0.9,-0.6,-1.4,-0.8ZM591,373.2l1.5,-0.8l1.1,1.9l-1.5,0.8Zm3.9,1l0,0c0.2,0.1,0.4,0.1,0.5,0.2c0.5,-0.8,0.8,-1.8,0.9,-2.7l-0.7,0.1c0,0.7,-0.4,1.6,-0.8,2.3l-0.2,-0.4l-0.4,0.2l-1.5,-2.4l-2.6,1.5l1.5,2.4l-0.6,0.4l0.4,0.5l0.5,-0.3c0.4,0.8,0.8,1.7,0.7,2.6c0.2,0,0.5,0,0.7,0.1c0.1,-1,-0.4,-2.1,-0.9,-3l1.5,-0.9l1.1,1.8l-0.1,0.2c0,0,-0.3,0.2,-0.6,0.4c0.2,0.1,0.4,0.3,0.5,0.4c0.4,-0.3,0.7,-0.4,0.8,-0.6c0.2,-0.2,0.1,-0.4,-0.1,-0.7l-1,-1.8Zm1.9,-0.7c0,1,-0.4,2.2,-1,3c0.2,0.1,0.5,0.2,0.7,0.3c0.7,-1,1,-2.2,1,-3.4Z" class="g4_370" />
<path d="M476.1,381.9l22.8,-13.4l0.7,1.2l-22.8,13.4Z" class="g3_370" />
</g>


<!-- Any embedded fonts defined here -->
<style type="text/css" ><![CDATA[

@font-face {
	font-family: ProximaNova-Bold_da-;
	src: url("fonts/ProximaNova-Bold_da-.woff") format("woff");
}

@font-face {
	font-family: Alegreya-Bold_db6;
	src: url("fonts/Alegreya-Bold_db6.woff") format("woff");
}

@font-face {
	font-family: Alegreya-Regular_db1;
	src: url("fonts/Alegreya-Regular_db1.woff") format("woff");
}

@font-face {
	font-family: ProximaNova-Semibold_db4;
	src: url("fonts/ProximaNova-Semibold_db4.woff") format("woff");
}

]]></style>

</svg>
