<?xml version="1.0" encoding="UTF-8" standalone="no"?>
<!DOCTYPE svg PUBLIC "-//W3C//DTD SVG 1.1//EN"
"http://www.w3.org/Graphics/SVG/1.1/DTD/svg11.dtd">


<!-- Page 62 -->
<svg x="0" y="0" width="921" height="1196" viewBox="0 0 921 1196" version="1.1" xmlns="http://www.w3.org/2000/svg" xmlns:xlink="http://www.w3.org/1999/xlink"
style="display: block;margin-left: auto;margin-right: auto;">
<defs>
<clipPath id="c0_62"><path d="M102.8,1000.6l0,-665.9l694.2,0l0,665.9Z" /></clipPath>

<style type="text/css"><![CDATA[

.g1_62{
fill: none;
stroke: #3986C6;
stroke-width: 1.6194444;
stroke-linecap: butt;
stroke-linejoin: miter;
stroke-miterlimit: 4;
}
.g2_62{
fill: #3986C6;
}
.g3_62{
fill: none;
stroke: #3986C6;
stroke-width: 1.1458334;
stroke-linecap: butt;
stroke-linejoin: miter;
}
.g4_62{
fill: #ACBF3B;
}
.g5_62{
fill: #FFFFFF;
}
.g6_62{
fill: #E7E8E9;
}
.g7_62{
fill: #A8A9AD;
}
.g8_62{
fill: #8DD7F7;
}
.g9_62{
fill: #231F20;
}
.g10_62{
fill: #57585A;
}
.g11_62{
fill: #E54C3B;
}

.s1_62{
font-size: 18.33px;
font-family: ProximaNova-Bold_cpr;
fill: #231F20;
}
.s2_62{
font-size: 12.99px;
font-family: ProximaNova-Semibold_cpz;
fill: #231F20;
}
.s3_62{
font-size: 25.97px;
font-family: ProximaNova-Bold_cpr;
fill: #FFFFFF;
}
.s4_62{
font-size: 25.97px;
font-family: ProximaNova-Bold_cpr;
fill: #231F20;
}
.s5_62{
font-size: 13.75px;
font-family: ProximaNova-Extrabld_cq3;
fill: #FFFFFF;
}
.s6_62{
font-size: 19.10px;
font-family: Alegreya-Regular_cpq;
fill: #231F20;
}
.s7_62{
font-size: 18.33px;
font-family: Alegreya-Regular_cru;
fill: #607582;
}
.s8_62{
font-size: 16.04px;
font-family: Alegreya-Regular_cru;
fill: #231F20;
}
.s9_62{
font-size: 30.56px;
font-family: Helvetica-Bold_crq;
fill: #7D0E4D;
}
.s10_62{
font-size: 18.33px;
font-family: Alegreya-Regular_cru;
fill: #231F20;
}
.s11_62{
font-size: 32.08px;
font-family: STKaitiSC-Regular_cof;
fill: #231F20;
}

]]></style>

</defs>
<path d="M0,0
L0,1196
L921,1196
L921,0 Z " 
fill="#FFFFFF" stroke="none" />
<text 
x="861" 
y="1149" 
dx="0,0" 
class="s1_62"
>39</text>

<path d="M872.3,1089.3l0,38.7" class="g1_62" />
<path d="M872.3,1125.4c-1.5,0,-2.6,1.1,-2.6,2.6c0,1.4,1.1,2.6,2.6,2.6c1.4,0,2.6,-1.2,2.6,-2.6c0,-1.5,-1.2,-2.6,-2.6,-2.6Z" class="g2_62" />
<text 
transform="matrix(0, 1, -1, 0, 867, 829)"
dx="0,0,0,0,0,0,0,0,0,0" 
class="s2_62"
>Chapter 2 </text>

<text 
transform="matrix(0, 1, -1, 0, 867, 893)"
dx="0,0" 
class="s2_62"
>• </text>

<text 
transform="matrix(0, 1, -1, 0, 867, 904)"
dx="0,0,0,0,0,-0.4,0,0,0,0,0,0,0,0,0,0,-0.5,0" 
class="s2_62"
>What’s in a Name? </text>

<text 
transform="matrix(0, 1, -1, 0, 867, 1017)"
dx="0,0" 
class="s2_62"
>• </text>

<text 
transform="matrix(0, 1, -1, 0, 867, 1029)"
dx="0,0,0,0,0,0,0,0,0" 
class="s2_62"
>Section 2</text>

<path d="M107.6,121.1c-10.1,0,-18.3,-8.2,-18.3,-18.3l0,-20.2l23.1,0c10.1,0,18.3,8.2,18.3,18.4l0,20.1Z" class="g2_62" />
<path d="M94.9,83.4l434.9,0" class="g3_62" />
<path d="M108.7,120.8l421.1,0" class="g3_62" />
<text 
x="93" 
y="109" 
dx="0,0,0" 
class="s3_62"
>2d </text>

<text 
x="136" 
y="109" 
dx="0,0,0,0,0,0,0,0,0,0,0,-0.2,0,0,0,0,0,0,0" 
class="s4_62"
>Using the Language </text>

<path d="M396.3,114.1c-6,0,-10.8,-4.9,-10.8,-10.8l0,-10.9l131.1,0c6,0,10.9,4.9,10.9,10.9l0,10.8Z" class="g4_62" />
<text 
x="402" 
y="107" 
dx="0,0,0,0,0,0,0,0,0,0,0,0,0" 
class="s5_62"
>µN´³rP³r²¶N¸¹</text>

<text 
x="88" 
y="168" 
dx="0,-0.8,0,0,0,0,0,0,0,0,0,0,0,0,0,0,0,0,0,0,0,0,0,0,-0.3,0,0,0,0,0,0,0,0,0,0,0,0,0,0,0,0,0,0,0,0,0,0,0,0,0,-0.2,0,0,0,-1,0,0,0,0,-0.8,-0.4,0,0,0,0,0,-1.5,0,0,0,0,0,0,0,0,0,0,0,0,0,0,0,0,0,0,0,0,0,0,0,0,0,0" 
class="s6_62"
>Your class is shopping for some school supplies from Taobao, China’s largest online shopping </text>

<text 
x="89" 
y="194" 
dx="0,-0.3,0,0,0,0,0,-0.6,-0.4,0,-1.4,0,0,0,0,0,0,0,0,0,0,0,0,0,0,0,0,0,-0.2,0,0,0,-0.4,-0.4,0,0,0,0,0,0,0,0,0,-0.3,0,-0.2,0,0,0,0,0,-0.3,0,0,0,0,0,0,0,0,0,0,0,0,0,0,0,0,0,0,0,0,0,0,0,-0.3,0,0,0,0,0,-0.2,0,0,0,0,0,0,0,0" 
class="s6_62"
>website. Working in small groups, use the words given in the image to ask your groupmates </text>

<text 
x="89" 
y="220" 
dx="0,0,0,0,0,0,0,0,0,0,0,0,0,0,0,-0.4,-0.3,0,0,-0.3,0,0,0,0,0,0,0,0,0,0,0,-0.4" 
class="s6_62"
>whether they have certain items.</text>

<path d="M447.7,973.8c0,5.1,-4.1,9.2,-9.2,9.2l-183.4,0c-5,0,-9.1,-4.1,-9.1,-9.2l0,-219.9c0,-5,4.1,-9.1,9.1,-9.1l183.4,0c5.1,0,9.2,4.1,9.2,9.1l0,219.9Z" class="g5_62" />
<path d="M659.7,973.8c0,5.1,-4.1,9.2,-9.1,9.2l-183.5,0c-5,0,-9.1,-4.1,-9.1,-9.2l0,-219.9c0,-5,4.1,-9.1,9.1,-9.1l183.5,0c5,0,9.1,4.1,9.1,9.1l0,219.9Z" class="g5_62" />
<path d="M673.6,1000.6l-441.5,0l0,-665.9l441.5,0l0,665.9Z" class="g6_62" />
<path d="M673.6,364.8l-441.5,0l0,-30.1l441.5,0l0,30.1Z" class="g7_62" />
<path d="M607.2,414.2c0,6,-4.9,11,-11,11l-334.1,0c-6.1,0,-11,-5,-11,-11l0,-21.6c0,-6,4.9,-11,11,-11l334.1,0c6.1,0,11,5,11,11Z" class="g5_62" />
<path d="M660,414.2c0,6,-5,11,-11,11l-28.3,0c-6,0,-11,-5,-11,-11l0,-21.6c0,-6,5,-11,11,-11l28.3,0c6,0,11,5,11,11Z" class="g5_62" />
<path d="M447.7,719.8c0,5,-4.1,9.2,-9.2,9.2l-183.4,0c-5,0,-9.1,-4.2,-9.1,-9.2l0,-219.9c0,-5,4.1,-9.2,9.1,-9.2l183.4,0c5.1,0,9.2,4.2,9.2,9.2Z" class="g5_62" />
<path d="M659.7,719.8c0,5,-4.1,9.2,-9.1,9.2l-183.5,0c-5,0,-9.1,-4.2,-9.1,-9.2l0,-219.9c0,-5,4.1,-9.2,9.1,-9.2l183.5,0c5,0,9.1,4.2,9.1,9.2Z" class="g5_62" />
<path d="M447.7,684.9c0,5,-4.1,9.2,-9.2,9.2l-183.4,0c-5,0,-9.1,-4.2,-9.1,-9.2l0,-185c0,-5,4.1,-9.2,9.1,-9.2l183.4,0c5.1,0,9.2,4.2,9.2,9.2Z" class="g5_62" />
<image preserveAspectRatio="none" x="182" y="483" width="330" height="219" xlink:href="62/img/1.png" />
<path d="M447.7,973.8c0,5.1,-4.1,9.2,-9.2,9.2l-183.4,0c-5,0,-9.1,-4.1,-9.1,-9.2l0,-219.9c0,-5,4.1,-9.1,9.1,-9.1l183.4,0c5.1,0,9.2,4.1,9.2,9.1l0,219.9Z" class="g5_62" />
<image x="245" y="744" width="204" height="206" xlink:href="62/shade/1.png" />
<path d="M659.7,973.8c0,5.1,-4.1,9.2,-9.1,9.2l-183.5,0c-5,0,-9.1,-4.1,-9.1,-9.2l0,-219.9c0,-5,4.1,-9.1,9.1,-9.1l183.5,0c5,0,9.1,4.1,9.1,9.1l0,219.9Z" class="g5_62" />
<g fill="#040503" >
<use xlink:href="#f0_3" transform="matrix(12,0,0,12,264.7,408.9)" />
<use xlink:href="#f0_2" transform="matrix(12,0,0,12,283,408.9)" />
</g>
<image preserveAspectRatio="none" x="246" y="776" width="185" height="141" xlink:href="62/img/2.png" />
<image preserveAspectRatio="none" x="371" y="490" width="308" height="205" xlink:href="62/img/3.png" />
<path d="M659.7,948.1l-201.7,0l0,-194.2c0,-5,4.1,-9.1,9.1,-9.1l183.5,0c5,0,9.1,4.1,9.1,9.1l0,194.2Z" class="g8_62" />
<image preserveAspectRatio="none" x="673" y="764" width="10" height="172" xlink:href="62/img/4.png" />
<image preserveAspectRatio="none" x="447" y="764" width="227" height="172" xlink:href="62/img/5.png" />
<image preserveAspectRatio="none" x="431" y="764" width="17" height="172" xlink:href="62/img/6.png" />
<image preserveAspectRatio="none" x="431" y="776" width="17" height="141" xlink:href="62/img/7.png" />
<image preserveAspectRatio="none" x="458" y="764" width="202" height="172" xlink:href="62/img/8.png" />
<image preserveAspectRatio="none" x="434" y="768" width="243" height="161" xlink:href="62/img/9.png" />
<text 
x="421" 
y="714" 
dx="0,0,0" 
class="s7_62"
>...</text>

<text 
x="633" 
y="714" 
dx="0,0,0" 
class="s7_62"
>...</text>

<text 
x="116" 
y="494" 
dx="0,0.2,0.2,0.2,0.2,0.2,0.2,0.2" 
class="s8_62"
>notebook</text>

<g fill="#7D0E4D" >
<use xlink:href="#f1_2" transform="matrix(15,0,0,15,255.1,721.8)" />
</g>
<text 
x="126" 
y="592" 
dx="0,0.2,0.2" 
class="s8_62"
>pen</text>

<g fill="#7D0E4D" >
<use xlink:href="#f1_2" transform="matrix(15,0,0,15,467.1,721.8)" />
</g>
<text 
x="278" 
y="721" 
dx="0,0" 
class="s9_62"
>10</text>

<text 
x="490" 
y="721" 
dx="0" 
class="s9_62"
>8</text>

<g fill="#7D0E4D" >
<use xlink:href="#f1_2" transform="matrix(15,0,0,15,255.1,975.9)" />
</g>
<text 
x="421" 
y="968" 
dx="0,0,0" 
class="s7_62"
>...</text>

<text 
x="633" 
y="968" 
dx="0,0,0" 
class="s7_62"
>...</text>

<g fill="#7D0E4D" >
<use xlink:href="#f1_2" transform="matrix(15,0,0,15,467.1,975.9)" />
</g>
<text 
x="278" 
y="975" 
dx="0" 
class="s9_62"
>5</text>

<text 
x="490" 
y="975" 
dx="0" 
class="s9_62"
>3</text>

<path d="M266.5,355.4l0,-12.7l-2.3,0l0,12.7Z" class="g9_62" />
<path d="M262.9,355.4l0,-9.6l-2.3,0l0,9.6Z" class="g9_62" />
<path d="M259.4,355.4l0,-6.6l-2.3,0l0,6.6Z" class="g9_62" />
<path d="M255.8,355.4l0,-4.1l-2.3,0l0,4.1Z" class="g9_62" />
<path d="M252.2,355.4l0,-2l-2.3,0l0,2Z" class="g9_62" />
<path d="M280.2,354.4c0,0.7,-0.6,1.2,-1.3,1.2c-0.6,0,-1.2,-0.5,-1.2,-1.2c0,-0.7,0.6,-1.2,1.2,-1.2c0.7,0,1.3,0.5,1.3,1.2Z" class="g9_62" />
<path d="M277.6,352.4c0.4,-0.2,0.9,-0.4,1.3,-0.4c0.5,0,1,0.2,1.3,0.4c0.6,0.4,1.3,0.2,1.6,-0.3c0.4,-0.5,0.2,-1.2,-0.3,-1.6c-0.7,-0.5,-1.6,-0.8,-2.6,-0.7c-0.9,-0.1,-1.8,0.2,-2.5,0.7c-0.5,0.4,-0.7,1.1,-0.3,1.6c0.3,0.5,1,0.7,1.5,0.3Z" class="g9_62" />
<path d="M275.7,349.5c1,-0.6,2.1,-0.9,3.2,-0.9c1.2,0,2.3,0.3,3.3,0.9c0.5,0.4,1.2,0.2,1.5,-0.3c0.4,-0.5,0.2,-1.2,-0.3,-1.6c-1.3,-0.8,-2.8,-1.3,-4.5,-1.3c-1.6,0,-3.1,0.5,-4.4,1.3c-0.6,0.4,-0.7,1.1,-0.4,1.6c0.4,0.5,1.1,0.7,1.6,0.3Z" class="g9_62" />
<path d="M273.7,346.5c1.5,-1,3.3,-1.6,5.2,-1.6c2,0,3.8,0.6,5.3,1.6c0.5,0.3,1.2,0.2,1.5,-0.3c0.4,-0.6,0.2,-1.3,-0.3,-1.6c-1.8,-1.2,-4.1,-2,-6.5,-2c-2.3,0,-4.6,0.8,-6.4,2c-0.6,0.3,-0.7,1,-0.4,1.6c0.4,0.5,1.1,0.6,1.6,0.3Z" class="g9_62" />
<path d="M617.7,355.4l-21,0l0,-10.7l21,0l0,10.7Z" class="g5_62" />
<path d="M617.7,355.4l0,-1.1l-19.8,0l0,-8.5l18.7,0l0,9.6l1.1,0l0,-1.1l0,1.1l1.2,0l0,-10.7c0,-0.3,-0.1,-0.6,-0.4,-0.8c-0.2,-0.3,-0.5,-0.4,-0.8,-0.4l-21,0c-0.3,0,-0.6,0.1,-0.8,0.4c-0.2,0.2,-0.3,0.5,-0.3,0.8l0,10.7c0,0.3,0.1,0.6,0.3,0.8c0.2,0.3,0.5,0.4,0.8,0.4l21,0c0.3,0,0.6,-0.1,0.8,-0.4c0.3,-0.2,0.4,-0.5,0.4,-0.8Z" class="g9_62" />
<path d="M609.7,355.4l-13,0l0,-10.7l13,0l0,10.7Z" class="g9_62" />
<path d="M620.8,353.2l-3.1,0l0,-5.8l3.1,0l0,5.8Z" class="g9_62" />
<text 
x="628" 
y="355" 
dx="0,0,0,0,0" 
class="s10_62"
>11:21</text>

<path d="M590.6,415.4l0,-1.1l-20.6,0L570,399l19.5,0l0,16.4l1.1,0l0,-1.1l0,1.1l1.2,0l0,-17.6c0,-0.3,-0.2,-0.6,-0.4,-0.8c-0.2,-0.2,-0.5,-0.3,-0.8,-0.3l-21.8,0c-0.3,0,-0.6,0.1,-0.8,0.3c-0.2,0.2,-0.3,0.5,-0.3,0.8l0,17.6c0,0.3,0.1,0.6,0.3,0.8c0.2,0.2,0.5,0.3,0.8,0.3l21.8,0c0.3,0,0.6,-0.1,0.8,-0.3c0.2,-0.2,0.4,-0.5,0.4,-0.8Z" class="g10_62" />
<path d="M584.3,406.6l-1.1,0c0,1.9,-1.6,3.5,-3.5,3.5c-1.9,0,-3.4,-1.6,-3.4,-3.5c0,-1.9,1.5,-3.4,3.4,-3.4c1.9,0,3.5,1.5,3.5,3.4l1.1,0l1.2,0c0,-3.2,-2.6,-5.7,-5.8,-5.7c-3.1,0,-5.7,2.5,-5.7,5.7c0,3.2,2.6,5.8,5.7,5.8c3.2,0,5.8,-2.6,5.8,-5.8Z" class="g10_62" />
<path d="M579.7,397.8l0,-1.1l-3.4,0l0,-1.5l2.3,0l0,2.6l1.1,0l0,-1.1l0,1.1l1.2,0l0,-3.8c0,-0.3,-0.1,-0.6,-0.4,-0.8c-0.2,-0.2,-0.5,-0.3,-0.8,-0.3l-4.6,0c-0.3,0,-0.6,0.1,-0.8,0.3c-0.2,0.2,-0.3,0.5,-0.3,0.8l0,3.8c0,0.3,0.1,0.6,0.3,0.8c0.2,0.3,0.5,0.4,0.8,0.4l4.6,0c0.3,0,0.6,-0.1,0.8,-0.4c0.3,-0.2,0.4,-0.5,0.4,-0.8Z" class="g10_62" />
<path d="M278.6,461.8l0,-0.7l-17.8,0l0,-7.6l17,0l0,8.3l0.8,0l0,-0.7l0,0.7l0.7,0l0,-9.1c0,-0.2,-0.1,-0.4,-0.2,-0.5C279,452.1,278.8,452,278.6,452l-18.5,0c-0.2,0,-0.4,0.1,-0.6,0.2c-0.1,0.1,-0.2,0.3,-0.2,0.5l0,9.1c0,0.2,0.1,0.4,0.2,0.6c0.2,0.1,0.4,0.2,0.6,0.2l18.5,0c0.2,0,0.4,-0.1,0.5,-0.2c0.1,-0.2,0.2,-0.4,0.2,-0.6Z" class="g10_62" />
<path d="M269.3,441.5l-0.5,-0.6l-11.7,11.3c-0.3,0.2,-0.3,0.5,-0.2,0.8c0.1,0.3,0.4,0.5,0.7,0.5l23.4,0c0.4,0,0.6,-0.2,0.7,-0.5c0.2,-0.3,0.1,-0.6,-0.1,-0.8L269.8,440.9c-0.3,-0.3,-0.7,-0.3,-1,0l0.5,0.6l-0.5,0.5l10.3,10l-19.6,0l10.3,-10l-0.5,-0.5l-0.5,0.5Z" class="g10_62" />
<path d="M642.7,442l-22.2,0c-0.8,0,-1.5,0.7,-1.5,1.5c0,0.9,0.7,1.6,1.5,1.6l22.2,0c0.8,0,1.5,-0.7,1.5,-1.6c0,-0.8,-0.7,-1.5,-1.5,-1.5Z" class="g10_62" />
<path d="M642.7,449.4l-22.2,0c-0.8,0,-1.5,0.7,-1.5,1.5c0,0.9,0.7,1.5,1.5,1.5l22.2,0c0.8,0,1.5,-0.6,1.5,-1.5c0,-0.8,-0.7,-1.5,-1.5,-1.5Z" class="g10_62" />
<path d="M642.7,456.7l-22.2,0c-0.8,0,-1.5,0.7,-1.5,1.6c0,0.8,0.7,1.5,1.5,1.5l22.2,0c0.8,0,1.5,-0.7,1.5,-1.5c0,-0.9,-0.7,-1.6,-1.5,-1.6Z" class="g10_62" />
<path d="M637.8,400.4l-1.1,0c0,2.1,-0.9,4,-2.2,5.4c-1.4,1.3,-3.3,2.2,-5.4,2.2c-2.1,0,-4,-0.9,-5.3,-2.2c-1.4,-1.4,-2.2,-3.3,-2.2,-5.4c0,-2.1,0.8,-3.9,2.2,-5.3c1.3,-1.4,3.2,-2.2,5.3,-2.2c2.1,0,4,0.8,5.4,2.2c1.3,1.4,2.2,3.2,2.2,5.3l1.1,0l1.2,0c0,-5.4,-4.4,-9.8,-9.9,-9.8c-5.4,0,-9.8,4.4,-9.8,9.8c0,5.5,4.4,9.9,9.8,9.9c5.5,0,9.9,-4.4,9.9,-9.9Z" class="g10_62" />
<path d="M634.4,407.4l9.5,9.5c0.5,0.5,1.2,0.5,1.6,0c0.5,-0.4,0.5,-1.1,0,-1.6L636,405.8c-0.4,-0.4,-1.1,-0.4,-1.6,0c-0.4,0.5,-0.4,1.2,0,1.6Z" class="g10_62" />
<path d="M104.1,500.6l91.1,0l147.8,68l0.7,-1.4L195.6,499l-91.5,0Z" class="g11_62" />
<path d="M346.8,567.9c0,2.5,-2,4.5,-4.6,4.5c-2.5,0,-4.5,-2,-4.5,-4.5c0,-2.6,2,-4.6,4.5,-4.6c2.6,0,4.6,2,4.6,4.6Z" class="g11_62" />
<text 
x="732" 
y="539" 
dx="0,0.2,0.2,0.2,0.2,0.2,0.2,0.2" 
class="s8_62"
>scissors</text>

<g clip-path="url(#c0_62)">
<path d="M797,543.1l-86.9,0l-116.4,59l0.7,1.4l116,-58.9l86.6,0Z" class="g11_62" />
</g>
<path d="M590.6,602.8c0,2.5,2.1,4.6,4.6,4.6c2.5,0,4.6,-2.1,4.6,-4.6c0,-2.6,-2.1,-4.6,-4.6,-4.6c-2.5,0,-4.6,2,-4.6,4.6Z" class="g11_62" />
<text 
x="742" 
y="780" 
dx="0,0.2,0.2,0.2,0.2" 
class="s8_62"
>ruler</text>

<g clip-path="url(#c0_62)">
<path d="M797,785.4l-86.9,0l-116.4,59l0.7,1.4L710.4,787l86.6,0Z" class="g11_62" />
</g>
<path d="M590.6,845.1c0,2.5,2.1,4.6,4.6,4.6c2.5,0,4.6,-2.1,4.6,-4.6c0,-2.5,-2.1,-4.6,-4.6,-4.6c-2.5,0,-4.6,2.1,-4.6,4.6Z" class="g11_62" />
<g fill="#3986C6" >
<use xlink:href="#f2_3" transform="matrix(21,0,0,21,115.9,473.8)" />
<use xlink:href="#f2_2" transform="matrix(21,0,0,21,148,473.8)" />
</g>
<text 
x="129" 
y="441" 
dx="0,0.2,0.2,0.2,0.2" 
class="s8_62"
>běnzi</text>

<g fill="#3986C6" >
<use xlink:href="#f2_5" transform="matrix(21,0,0,21,123,572.1)" />
</g>
<text 
x="132" 
y="540" 
dx="0,0.2" 
class="s8_62"
>bǐ</text>

<g fill="#3986C6" >
<use xlink:href="#f2_7" transform="matrix(21,0,0,21,726.7,521.3)" />
<use xlink:href="#f2_6" transform="matrix(21,0,0,21,758.8,521.3)" />
</g>
<text 
x="733" 
y="487" 
dx="0,0.2,0.2,0.2,0.2,0.2,0.2" 
class="s8_62"
>jiǎndāo</text>

<g fill="#3986C6" >
<use xlink:href="#f2_8" transform="matrix(21,0,0,21,726.7,759.4)" />
<use xlink:href="#f2_2" transform="matrix(21,0,0,21,758.8,759.4)" />
</g>
<text 
x="742" 
y="728" 
dx="0,0.2,0.2,0.2,0.2" 
class="s8_62"
>chǐzi</text>

<g fill="#3986C6" >
<use xlink:href="#f2_9" transform="matrix(21,0,0,21,106.9,751.6)" />
<use xlink:href="#f2_4" transform="matrix(21,0,0,21,139,751.6)" />
</g>
<text 
x="113" 
y="718" 
dx="0,0.2,0.2,0.2,0.2,0.2,0.2" 
class="s8_62"
>xiàngpí</text>

<text 
x="118" 
y="770" 
dx="0,0.2,0.2,0.2,0.2,0.2" 
class="s8_62"
>eraser</text>

<g clip-path="url(#c0_62)">
<path d="M102.8,777l83.6,0l207.9,32l0.2,-1.5l-208,-32l-83.7,0Z" class="g11_62" />
</g>
<path d="M397.9,808.2c0,2.5,-2.1,4.6,-4.6,4.6c-2.5,0,-4.6,-2.1,-4.6,-4.6c0,-2.5,2.1,-4.6,4.6,-4.6c2.5,0,4.6,2.1,4.6,4.6Z" class="g11_62" />
<path d="M104.3,603.5l82.1,0L421.9,636l0.2,-1.5L186.5,602l-82.2,0Z" class="g11_62" />
<path d="M425.4,635.3c0,2.5,-2,4.5,-4.5,4.5c-2.6,0,-4.6,-2,-4.6,-4.5c0,-2.6,2,-4.6,4.6,-4.6c2.5,0,4.5,2,4.5,4.6Z" class="g11_62" />
<text 
x="88" 
y="277" 
dx="0,0,0,0,0,-0.3,0,0,0,0,0,0,0,0,0,0,0,0,0,0" 
class="s6_62"
>Ask your classmates:</text>

<text 
x="256" 
y="280" 
dx="0,0,0,0,0,0,0,0,0,0" 
class="s11_62"
>你有 ____ 吗？</text>


<defs>
	<path d="M770,394.2C872.4,499.6,948.8,647.8,980.8,928.9l-453.7,0C548.5,776.1,627.9,533.2,770,394.2ZM223.1,-44.2C212.4,13.8,178.8,62.6,114.6,103.9c209.3,21.4,411,100.8,551.5,201.7C521,470.6,426.3,731.8,397.2,927.4C293.3,925.8,201.7,921.3,120.7,915.1l0,146.7c157.4,-10.7,343.7,-15.3,629.4,-15.3c-16.8,61.1,-42.7,125.3,-76.3,189.5l166.5,38.2c7.6,-64.2,27.5,-152.8,48.9,-227.7c236.8,1.6,400.2,6.1,539.3,15.3l0,-146.7c-85.6,6.2,-181.8,9.2,-299.5,12.3C1083.2,634,991.5,447.6,869.3,314.7C1047.6,189.1,1242.6,124.9,1454.5,124.9c9.6,0,19.3,0.1,29,0.4C1404,61.1,1376.5,21.4,1355.1,-42.7C1133.6,-4.5,901.4,108.5,762.4,216.9C620.3,110,378.9,-6,223.1,-44.2Z" 
	id="f0_3"
	transform="scale(0.001,-0.001)" />

	<path d="M1263.5,-111.4C1142.8,-10.6,1040.4,53.5,872.4,122.2l73.3,96.3C1106.1,146.7,1258.9,67.2,1370.4,-3L1263.5,-111.4ZM236.8,-128.2C216.9,-91.6,181.8,-59.5,136,-32C317.8,24.4,499.6,148.2,545.4,223.1c38.2,-44.3,87.1,-79.5,117.7,-91.7c25.9,-10.7,19.8,-29,-16.8,-32.1C629.4,97.8,608.1,87.1,569.9,62.6C436.9,-22.8,330,-83.9,236.8,-128.2ZM1071,334.6l0,119.2l-595.9,0l0,-119.2Zm0,215.4l0,110l-595.9,0l0,-110Zm0,206.3l0,117.6l-595.9,0l0,-117.6Zm0,213.8l0,119.2l-595.9,0l0,-119.2ZM103.9,221.5l0,126.8c64.2,-7.6,125.3,-12.2,247.5,-13.7l0,689c0,53.5,-1.5,140.6,-10.7,184.9c77.9,-9.2,246,-16.8,432.4,-16.8c186.3,0,380.4,9.1,433.8,16.8c-9.1,-44.3,-10.6,-119.2,-10.6,-184.9l0,-689c106.9,3,201.6,7.6,252,13.7l0,-126.8c-70.2,7.7,-194,13.8,-684.4,13.8c-345.3,0,-572.9,-4.6,-660,-13.8Z" 
	id="f0_2"
	transform="scale(0.001,-0.001)" />

	<path d="M687.5,0l0,294.9l-301,0l0,73.3l301,0l0,129.9l-301,0l0,73.3l258.2,0l-348.3,550l148.2,0L686,711.9c27.5,-50.4,42.8,-84,65.7,-132.9l6.1,0c22.9,42.8,44.3,87.1,71.8,137.5l252.1,404.9l148.2,0L857.1,571.4l255.1,0l0,-73.3l-299.4,0l0,-129.9l299.4,0l0,-73.3l-299.4,0L812.8,0Z" 
	id="f1_2"
	transform="scale(0.001,-0.001)" />

	<path d="M757.8,-224.5c-13.8,0,-26,15.3,-36.7,44.3c-12.2,29,-18.3,55,-18.3,77.9c0,23,3,48.9,9.1,78c6.2,28.9,10.7,65.6,15.3,111.4C690.6,82.5,656.9,79.4,624.9,79.4c-32.1,0,-59.6,4.6,-82.5,15.3c-23,10.7,-35.2,18.4,-35.2,26c0,6.1,15.3,9.2,44.3,10.7c29.1,1.5,88.6,9.2,181.8,26c9.2,177.2,13.8,314.7,13.8,412.5C698.2,462.9,632.5,363.6,551.5,273.5C469,183.3,392.6,116.1,322.4,71.8C252.1,27.5,204.7,4.6,178.8,4.6c-6.2,0,-9.2,3,-9.2,7.6c0,4.6,6.1,10.7,16.8,18.4c93.2,62.6,191,154.3,294.9,273.4C585.1,423.2,667.6,548.5,727.2,679.9c-22.9,-1.6,-39.7,-4.6,-53.4,-7.7C609.6,660,560.7,653.9,525.6,653.9c-35.2,0,-65.7,4.6,-91.7,15.3c-26,9.1,-39.7,16.8,-39.7,21.4c0,7.6,16.8,13.7,51.9,16.8c35.2,3,134.5,18.3,301,47.3c0,84.1,-3.1,151.3,-7.7,198.6c-6.1,47.4,-16.8,81,-33.6,102.4c-9.1,12.2,-13.7,22.9,-13.7,32.1c0,13.7,10.7,21.4,32.1,21.4c19.8,0,48.9,-7.7,85.5,-22.9c35.2,-15.3,53.5,-35.2,53.5,-58.1c0,-7.6,-3.1,-16.8,-9.2,-27.5c-6.1,-10.7,-13.7,-38.2,-22.9,-84C821.9,869.3,814.3,820.4,809.7,766.9c52,9.2,107,21.4,165,35.2c58.1,13.7,100.9,21.4,128.4,21.4c25.9,0,50.4,-4.6,70.2,-13.8c19.9,-9.1,30.6,-19.8,30.6,-30.5c0,-12.3,-7.6,-22.9,-22.9,-30.6c-15.3,-7.6,-45.9,-13.7,-91.7,-18.3C1041.9,725.7,948.8,713.5,806.7,692.1c-1.6,-7.7,-1.6,-21.4,-1.6,-41.3c87.1,-119.1,178.8,-216.9,275,-293.3c96.3,-76.4,197.1,-132.9,302.5,-169.6c105.5,-38.2,158.9,-61.1,158.9,-71.8c0,-4.6,-4.6,-7.6,-15.2,-9.2c-10.7,-3,-44.4,-6.1,-97.8,-9.1c-55,-3.1,-97.8,-4.6,-129.9,-4.6c-32.1,0,-56.5,3.1,-76.4,9.2c-19.8,4.5,-41.2,18.3,-62.6,41.2c-21.4,21.4,-58.1,62.7,-108.5,122.2c-51.9,59.6,-97.8,117.7,-139,171.1C870.8,490.4,835.7,539.3,803.6,586.7L797.5,169.6c19.9,4.6,39.7,7.6,58.1,12.2c16.8,4.6,36.6,6.1,59.5,6.1c44.3,0,74.9,-6.1,88.7,-16.8c13.7,-10.7,21.3,-21.4,21.3,-30.5c0,-23,-36.6,-36.7,-111.5,-41.3L796,91.7C796,4.6,796,-44.2,797.5,-58c1.5,-13.7,1.5,-33.6,1.5,-61.1c0,-27.5,-3,-51.9,-10.7,-73.3c-7.6,-21.4,-18.3,-32.1,-30.5,-32.1Z" 
	id="f2_3"
	transform="scale(0.001,-0.001)" />

	<path d="M747.1,-224.5c-16.8,0,-26,9.2,-30.6,29c-4.6,18.4,-16.8,38.2,-36.6,61.2C660,-113,634,-90,603.5,-64.1c-30.6,26,-45.9,41.3,-45.9,47.4c0,6.1,4.6,9.2,12.3,9.2c7.6,0,27.5,-3.1,61.1,-10.7c33.6,-7.7,62.6,-12.3,87.1,-12.3c24.4,0,42.7,7.7,53.4,23c10.7,15.1,21.4,47.2,32.1,97.6c10.7,48.9,16.8,110,16.8,184.9c-1.5,73.3,-7.6,145.1,-18.3,216.9c-88.6,-7.6,-174.2,-16.8,-258.2,-29C459.9,449.2,400.3,438.5,365.1,429.3c-35.1,-9.2,-62.6,-13.7,-84,-13.7c-22.9,0,-47.3,7.6,-76.4,22.9c-29,13.7,-44.3,24.4,-44.3,32.1c0,7.6,15.3,12.2,45.9,13.7l585.1,64.2c-13.8,53.4,-29,87.1,-48.9,99.3c-27.5,16.8,-41.2,30.5,-41.2,42.8c0,10.7,10.6,16.8,32,16.8c7.7,0,19.9,-1.6,39.8,-3.1c19.8,-3,35.1,-6.1,45.8,-10.7c32.1,35.2,65.7,79.5,103.9,134.5c36.6,55,55,88.6,55,102.3c0,13.8,-10.7,19.9,-30.6,19.9c-21.4,0,-68.7,-10.7,-142.1,-30.6C731.8,898.3,678.3,881.5,643.2,867.8C608.1,854,580.6,846.4,562.2,846.4c-18.3,0,-39.7,10.7,-65.7,30.5c-25.9,19.9,-38.2,33.7,-38.2,44.4c0,9.1,10.7,13.7,30.6,13.7l42.8,-1.5c59.6,0,132.9,7.6,220,22.9c87.1,15.3,149.7,32.1,190.9,51.9c29.1,13.8,52,19.9,68.8,19.9c16.8,0,47.4,-12.2,90.1,-38.2c42.8,-26,64.2,-45.8,64.2,-59.6c0,-13.7,-16.8,-26,-51.9,-38.2c-18.4,-6.1,-42.8,-22.9,-74.9,-48.9C1006.8,815.8,944.2,757.8,852.5,670.7c12.2,-12.2,21.4,-48.9,29,-111.5c151.3,18.3,247.5,32.1,290.3,39.7c42.8,7.6,81,12.2,116.1,12.2c33.6,0,70.3,-9.2,108.5,-29c38.2,-19.9,58,-38.2,58,-55c0,-22.9,-24.4,-33.6,-74.8,-33.6c-15.3,0,-39.7,3,-71.8,7.6c-33.6,4.6,-85.6,7.7,-154.3,7.7c-70.3,0,-157.4,-3.1,-262.8,-10.7C904.4,371.3,912.1,265.8,912.1,183.3c0,-148.2,-19.9,-252,-61.1,-314.6c-41.3,-62.6,-74.9,-93.2,-103.9,-93.2Z" 
	id="f2_2"
	transform="scale(0.001,-0.001)" />

	<path d="M999.2,-116c-123.8,0,-223.1,18.3,-294.9,53.5C631,-27.4,592.8,64.2,589.7,213.9C469,191,359,165,258.2,137.5c-29,-7.6,-50.4,-10.7,-64.2,-10.7c-15.2,0,-36.6,9.2,-64.1,27.5c-29.1,16.8,-42.8,29,-42.8,36.7c0,6.1,15.3,10.7,44.3,13.7c108.5,9.2,261.2,32.1,456.8,67.2c0,52,1.5,91.7,3.1,117.7c-81,-16.8,-133,-26,-152.8,-26c-19.9,0,-39.7,4.6,-59.6,12.2c-19.9,7.7,-30.6,15.3,-30.6,24.5c0,7.6,10.7,12.2,30.6,13.7c44.3,1.6,114.6,13.8,213.9,36.7c3,59.6,0,99.3,-10.7,117.6C485.8,548.5,421.7,537.8,386.5,537.8c-35.1,0,-53.4,3,-53.4,10.7c0,7.6,13.7,13.7,42.7,19.8c99.3,23,189.5,48.9,267.4,78c77.9,27.5,122.2,50.4,132.9,67.2c10.7,16.8,19.9,24.4,29,24.4c7.7,0,27.5,-9.1,56.6,-29C890.7,689,906,676.8,906,670.7c0,-6.1,-4.6,-12.2,-15.3,-16.8C880,649.3,838.8,637.1,765.4,617.2C692.1,597.4,649.3,586.7,635.6,583.6c32,-16.8,48.8,-35.1,48.8,-53.5c0,-7.6,-1.5,-15.2,-4.5,-22.9c-4.6,-7.6,-9.2,-21.4,-15.3,-39.7c88.6,24.4,146.7,36.7,172.6,36.7c26,0,48.9,-3.1,68.8,-7.7c18.3,-6.1,27.5,-12.2,27.5,-18.3c0,-18.3,-91.7,-44.3,-276.6,-76.4c-4.5,-29,-7.6,-68.7,-9.1,-119.2c143.6,29.1,238.3,50.5,284.1,64.2c16.9,4.6,38.2,7.6,61.2,7.6c22.9,0,45.8,-6.1,67.2,-16.8c21.4,-10.7,32.1,-21.3,32.1,-32c0,-18.4,-32.1,-29.1,-96.3,-33.7C890.7,265.8,776.1,250.6,652.4,226.1C656.9,108.5,689,36.7,747.1,12.2c56.5,-25.9,131.4,-38.1,223,-38.1c90.2,0,158.9,9.2,206.3,27.4c47.4,18.4,79.4,42.8,97.8,71.8c18.3,29.1,35.1,81,50.4,157.4c4.6,24.4,9.2,36.7,16.8,36.7c7.6,0,10.7,-10.7,12.2,-30.6c6.1,-96.2,15.3,-160.4,27.5,-192.5c4.6,-12.2,7.7,-22.9,7.7,-30.5c0,-21.3,-12.3,-39.7,-38.2,-56.5c-26,-16.8,-74.9,-33.6,-143.7,-48.9c-70.2,-16.8,-139,-24.4,-207.7,-24.4ZM546.9,698.2c-21.3,0,-44.3,16.8,-67.2,51.9c-24.4,33.7,-36.6,55,-36.6,65.7c0,10.7,7.6,15.3,21.3,15.3c32.1,0,58.1,-9.2,81,-27.5c21.4,-19.8,32.1,-41.2,32.1,-67.2c0,-26,-10.7,-38.2,-30.6,-38.2Zm499.6,27.5c-21.4,0,-48.9,15.3,-84,47.4c-35.1,30.5,-51.9,51.9,-51.9,64.1c0,7.7,10.7,10.7,30.5,10.7c36.7,0,68.8,-9.1,96.3,-27.5c25.9,-18.3,39.7,-41.2,39.7,-67.2c0,-18.3,-10.7,-27.5,-30.6,-27.5ZM200.1,672.2c-3,0,-4.5,1.6,-4.5,6.1c0,4.6,6.1,12.3,18.3,26c64.2,67.2,113,131.4,148.2,192.5c35.1,59.6,51.9,107,51.9,142.1c0,6.1,0,12.2,-1.5,18.3c-1.5,6.1,-3.1,13.8,-3.1,22.9c0,7.7,7.7,12.3,21.4,12.3c13.8,0,36.7,-4.6,68.8,-13.8c32.1,-9.2,47.3,-21.4,47.3,-35.1c0,-9.2,-7.6,-21.4,-22.9,-36.7C508.8,991.5,490.4,965.6,467.5,930.4c27.5,0,62.6,6.1,105.4,18.4c42.8,12.2,71.8,18.3,87.1,18.3c15.3,0,30.6,-3.1,44.3,-9.2c13.8,-6.1,21.4,-13.7,21.4,-22.9c0,-9.2,-4.6,-16.8,-13.8,-22.9c-9.1,-6.1,-32,-12.2,-67.2,-18.3c-36.6,-6.2,-73.3,-9.2,-111.5,-9.2c-26,0,-55,4.6,-87.1,15.3C394.2,825,345.3,768.5,297.9,730.3c-47.3,-38.2,-81,-58.1,-97.8,-58.1Zm505.7,82.5c-4.5,0,-6.1,1.6,-6.1,6.1c0,4.6,4.6,12.3,13.8,23c114.6,132.9,171.1,230.6,171.1,293.3c0,4.6,0,10.7,-1.5,18.3c-1.6,7.7,-3.1,13.8,-3.1,19.9c0,13.7,4.6,19.8,15.3,19.8c10.7,0,32.1,-6.1,65.7,-16.8c33.6,-10.7,50.4,-22.9,50.4,-35.1c0,-7.6,-4.6,-15.3,-12.2,-22.9c-7.7,-9.2,-32.1,-41.3,-70.3,-94.7c33.6,0,96.2,12.2,186.4,38.2c16.8,4.5,36.6,7.6,56.5,7.6c19.9,0,38.2,-4.6,55,-13.8c16.8,-9.1,24.5,-16.8,24.5,-24.4c0,-7.6,-7.7,-15.3,-21.4,-21.4c-13.8,-6.1,-47.4,-12.2,-97.8,-18.3c-52,-7.7,-91.7,-10.7,-119.2,-10.7c-27.5,0,-61.1,6.1,-100.8,16.8C863.2,875.4,820.4,828.1,782.2,799C744,770,718.1,754.7,705.8,754.7Z" 
	id="f2_5"
	transform="scale(0.001,-0.001)" />

	<path d="M933.5,-184.8c-16.8,0,-27.5,9.2,-32.1,27.5c-4.6,16.8,-15.3,39.8,-32.1,68.8c-16.8,27.5,-30.5,47.3,-41.2,59.6C817.4,-16.7,812.8,-9.1,812.8,-6c0,3,3,4.6,7.6,4.6c4.6,0,21.4,-6.1,52,-16.8c30.5,-12.3,53.4,-18.4,67.2,-18.4c13.7,0,24.4,4.6,32.1,13.8c7.6,9.1,15.2,27.4,24.4,54.9c9.2,27.5,16.8,61.1,22.9,102.3c6.1,39.8,9.2,68.8,9.2,87.1c0,16.8,-4.6,29.1,-12.2,33.6c-7.7,4.6,-22.9,6.2,-44.3,6.2C913.6,261.3,846.4,256.7,770,246c26,-19.9,39.7,-33.6,39.7,-44.3c0,-6.1,-7.6,-16.8,-24.4,-32.1C768.5,154.3,754.7,139,744,123.8C702.8,61.1,652.4,7.6,592.8,-38.1C533.2,-83.9,470.6,-117.5,407.9,-137.4C343.8,-157.3,290.3,-168,247.5,-168c-15.3,0,-22.9,3.1,-22.9,10.7c0,6.1,10.7,12.3,32.1,16.8c47.3,13.8,110,41.3,186.4,85.6c74.8,42.8,137.5,94.6,186.3,154.2c48.9,59.6,73.4,105.4,73.4,137.5C611.1,215.4,553.1,204.7,528.6,204.7c-26,0,-47.3,7.7,-65.7,21.4c-19.8,13.8,-29,26,-29,33.6c0,7.7,10.7,12.2,32.1,12.2l33.6,-1.5c68.7,0,163.5,7.7,287.2,21.4c122.2,13.8,189.5,22.9,203.2,29c12.2,4.6,26,7.7,41.3,7.7c13.7,0,39.7,-9.2,74.8,-29.1c35.2,-19.8,52,-33.6,52,-42.7c0,-10.7,-4.6,-21.4,-13.8,-32.1c-9.2,-10.7,-18.3,-29,-26,-53.5c-7.6,-26,-15.2,-59.6,-22.9,-103.9c-7.6,-44.3,-15.3,-82.4,-26,-114.5c-10.6,-33.6,-32,-64.1,-64.1,-93.2c-32.1,-29,-56.5,-44.3,-71.8,-44.3ZM919.7,441.5c-10.7,0,-18.3,6.1,-24.4,19.9c-7.7,12.2,-10.7,27.5,-10.7,45.8c0,16.8,1.5,41.3,4.6,70.3c3,29,4.6,50.4,4.6,64.2c0,30.5,-3.1,53.4,-9.2,67.2c-7.7,13.7,-10.7,22.9,-10.7,30.5c0,7.7,4.6,10.7,13.7,10.7c9.2,0,26,-4.5,48.9,-15.2c22.9,-10.7,33.6,-24.5,33.6,-41.3c0,-4.6,0,-9.2,-1.5,-13.7C961,655.4,957.9,631,957.9,606.5L961,546.9c0,-35.1,-4.6,-61.1,-12.2,-77.9c-9.2,-18.3,-18.4,-27.5,-29.1,-27.5ZM713.5,328.5c-12.2,0,-21.4,6.1,-27.5,19.8C669.2,385,652.4,414,635.6,433.9c-4.6,4.6,-6.2,9.2,-6.2,13.7c0,4.6,3.1,6.2,9.2,6.2c4.6,0,12.2,-1.6,21.4,-4.6c7.6,-4.6,15.3,-6.1,22.9,-6.1c6.1,0,10.7,10.7,15.3,32c4.6,19.9,6.1,52,6.1,94.8c0,74.8,-3,122.2,-7.6,140.5c-5,14.9,-15,22.7,-29.9,22.7c-3.5,0,-7.3,-0.4,-11.4,-1.3C574.4,719.6,527.1,713.5,513.3,713.5c0,-44.3,0,-73.4,-1.5,-90.2c53.5,18.4,87.1,27.5,100.8,27.5c13.8,0,23,-1.5,30.6,-4.5c7.6,-4.6,10.7,-9.2,10.7,-13.8c0,-12.2,-13.8,-21.4,-41.3,-29c-20.4,-5.7,-44.1,-8.8,-71.9,-8.8c-9.6,0,-19.8,0.3,-30.4,1.1l-4.6,-79.4c42.8,13.7,74.9,19.9,96.2,19.9c30.6,0,45.9,-6.2,45.9,-18.4c0,-13.7,-15.3,-22.9,-47.4,-27.5c-32.1,-4.6,-55,-7.6,-65.7,-7.6c-10.7,0,-22.9,0,-33.6,1.5C491.9,421.7,484.3,383.5,479.7,366.7c-6.1,-16.8,-13.7,-26,-22.9,-26c-10.7,0,-18.3,7.6,-26,22.9c-7.6,13.8,-12.2,32.1,-12.2,52c0,19.8,4.6,39.7,12.2,59.5c13.8,41.3,19.9,90.2,19.9,145.2c0,53.5,-4.6,90.1,-15.3,106.9c-3,6.1,-4.6,12.2,-4.6,16.8c0,9.2,6.1,13.8,16.8,13.8c10.7,0,24.5,-3.1,41.3,-9.2c4.3,-0.2,8.8,-0.4,13.3,-0.4c22.9,0,48.8,3.2,76.8,9.6c32.1,6.1,58.1,12.2,74.9,19.8c16.8,7.7,32.1,10.7,44.3,10.7c10.7,0,29,-6.1,53.5,-18.3c22.9,-13.7,35.1,-24.4,35.1,-33.6c0,-9.2,-1.5,-16.8,-4.6,-22.9c-4.6,-7.7,-7.6,-19.9,-10.7,-39.7c-3,-19.9,-4.6,-47.4,-4.6,-79.5c0,-33.6,1.6,-59.6,3.1,-76.4c1.5,-18.3,1.5,-32.1,1.5,-42.8c0,-42.7,-6.1,-77.9,-19.8,-105.4c-13.8,-27.5,-26,-41.2,-38.2,-41.2Zm383.4,10.7c-12.2,0,-21.3,7.6,-27.5,21.4c-6.1,13.7,-15.2,29,-27.5,47.3c-13.7,18.4,-22.9,30.6,-30.5,38.2c-7.6,7.7,-10.7,13.8,-10.7,19.9c0,4.6,3.1,7.6,9.2,7.6c4.5,0,13.7,-1.5,25.9,-6.1c10.7,-4.6,21.4,-7.6,30.6,-7.6c9.2,0,15.3,12.2,19.9,35.1c3,22.9,4.5,56.5,4.5,103.9c0,105.4,-10.7,172.6,-32,201.7c-4.6,6.1,-7.7,12.2,-7.7,16.8c0,10.7,7.7,15.2,21.4,15.2c13.8,0,33.6,-6.1,61.1,-16.8c26,-10.7,39.7,-24.4,39.7,-38.2c0,-4.5,-1.5,-10.7,-3,-16.8c-7.7,-25.9,-10.7,-61.1,-10.7,-108.4c0,-47.4,1.5,-81,3,-99.3c1.6,-18.4,3.1,-35.2,3.1,-50.5c0,-47.3,-9.2,-85.5,-26,-116.1c-16.8,-32.1,-32.1,-47.3,-42.8,-47.3ZM707.4,936.5c-19.9,0,-45.9,18.4,-76.4,56.6c-30.6,38.2,-45.9,61.1,-45.9,68.7c0,7.6,7.7,10.7,21.4,10.7c29.1,0,59.6,-6.1,90.2,-18.3c30.5,-12.3,45.8,-35.2,45.8,-68.8c0,-32.1,-12.2,-48.9,-35.1,-48.9ZM305.6,814.3c-19.9,0,-39.8,7.6,-61.2,21.4c-21.3,13.7,-32,26,-32,35.1c0,9.2,13.7,13.8,41.2,13.8l53.5,-3.1c99.3,0,287.2,9.2,563.7,29.1c61.1,71.8,91.7,126.8,91.7,163.4c0,7.7,-1.5,15.3,-3.1,22.9c-3,7.7,-4.5,12.3,-4.5,16.9c0,10.6,7.6,16.8,22.9,16.8c15.3,0,39.7,-7.7,74.8,-24.5c33.7,-16.8,50.5,-29,50.5,-39.7c0,-10.7,-7.7,-19.9,-23,-30.6c-58,-39.7,-110,-79.4,-155.8,-120.7c122.2,7.7,207.8,15.3,255.1,23c47.4,7.6,85.6,10.7,116.2,10.7c30.5,0,59.5,-7.7,88.6,-23c29,-16.8,42.7,-30.5,42.7,-42.7c0,-16.8,-22.9,-26,-70.2,-26c-24.5,0,-53.5,3,-85.6,7.6c-33.6,4.6,-102.3,6.1,-206.2,6.1C961,870.8,834.2,864.7,684.4,852.5C534.7,838.8,438.5,829.6,397.2,823.5c-42.8,-6.1,-73.3,-9.2,-91.6,-9.2Z" 
	id="f2_7"
	transform="scale(0.001,-0.001)" />

	<path d="M942.6,-80.9c-10.7,0,-19.8,10.7,-27.5,30.6C902.9,-19.8,887.6,13.8,869.3,50.4c-19.9,36.7,-35.1,62.7,-45.8,76.4c-12.2,13.8,-18.4,22.9,-18.4,27.5c0,4.6,3.1,7.6,9.2,7.6c4.6,0,13.8,-3,26,-9.1C896.8,123.8,935,110,954.9,110c19.8,0,35.1,6.1,45.8,18.3c9.2,12.3,22.9,42.8,42.8,91.7c19.8,47.4,36.6,106.9,53.4,175.7c15.3,68.7,27.5,143.6,36.7,226.1c7.7,81,12.2,132.9,12.2,152.8c0,19.8,-7.6,35.1,-21.4,44.3c-15.2,7.6,-38.1,12.2,-70.2,12.2c-53.5,0,-143.6,-10.7,-268.9,-30.5c50.4,-21.4,74.8,-41.3,74.8,-58.1c0,-6.1,-3,-13.7,-10.7,-21.4c-13.7,-15.3,-29,-45.8,-48.8,-91.7C741,481.3,669.2,359,588.2,261.3C507.2,161.9,426.3,91.7,345.3,48.9C264.3,4.6,212.4,-16.7,189.4,-16.7c-10.6,0,-15.2,4.6,-15.2,12.2c0,7.6,9.1,16.7,25.9,25.9c79.5,42.8,163.5,111.5,253.7,204.7C542.4,319.3,611.1,423.2,660,537.8c48.9,114.6,71.8,197.1,67.2,250.5C606.5,759.3,531.7,744,505.7,744c-26,0,-50.4,9.2,-71.8,29.1c-22.9,19.8,-33.6,32,-33.6,38.2c0,4.5,3,7.6,9.1,9.1c6.2,1.5,23,1.5,50.5,1.5c27.5,0,87,4.6,177.2,13.8c90.1,9.2,186.4,22.9,285.7,41.2c99.3,18.4,158.9,32.1,178.7,42.8c19.9,10.7,38.2,15.3,56.6,15.3c18.3,0,47.3,-12.2,85.5,-38.2c38.2,-26,56.5,-48.9,56.5,-68.7c0,-10.7,-7.6,-26,-21.3,-42.8c-15.3,-16.8,-26,-38.2,-32.1,-61.1C1239,699.7,1232.9,660,1225.3,603.5c-26,-195.6,-52,-342.2,-81,-438.5c-29,-96.2,-65.7,-161.9,-110,-195.5C990,-64.1,959.4,-80.9,942.6,-80.9Z" 
	id="f2_6"
	transform="scale(0.001,-0.001)" />

	<path d="M635.6,559.2L825,600.4c65.7,13.8,102.4,22.9,111.5,26c9.2,1.5,18.4,9.2,26,22.9c7.6,12.2,16.8,41.3,26,87.1c9.1,45.8,13.7,79.4,13.7,100.8c0,21.4,-3,36.7,-10.7,45.9c-7.6,7.6,-19.8,12.2,-36.6,12.2c-26,0,-128.4,-19.9,-307.1,-61.1c1.5,-82.5,-3.1,-174.2,-12.2,-275ZM1249.7,-85.5c-44.3,0,-77.9,7.7,-100.8,21.4c-22.9,13.8,-56.5,45.9,-100.8,96.2C906,198.6,766.9,354.4,629.4,499.6C603.5,348.3,565.3,230.7,514.9,146.7C464.4,62.6,406.4,3.1,342.2,-28.9C276.5,-61,235.3,-77.8,216.9,-77.8c-6.1,0,-9.1,1.5,-9.1,4.6c0,7.6,16.8,24.4,48.9,47.3C326.9,22.9,386.5,82.5,435.4,152.8c48.9,68.7,81,152.8,96.3,250.5c13.7,96.3,21.4,188,21.4,275c0,85.6,-6.2,137.5,-18.4,157.4C522.5,854,516.4,869.3,516.4,880c0,10.7,7.6,16.8,24.4,16.8c16.8,0,44.3,-7.6,84.1,-21.4c73.3,9.2,145.1,22.9,216.9,42.8c70.3,18.3,110,32.1,117.6,39.7c26,26,48.9,38.2,67.3,38.2c16.8,0,48.9,-12.2,96.2,-36.7c47.4,-24.4,70.3,-42.7,70.3,-55c0,-13.7,-15.3,-30.5,-44.3,-50.4c-4.6,-4.6,-24.5,-30.5,-56.5,-79.4c-32.1,-48.9,-48.9,-79.5,-48.9,-93.2c0,-13.8,7.6,-24.5,21.4,-33.6c13.7,-9.2,19.8,-18.4,19.8,-27.5c0,-19.9,-19.8,-32.1,-61.1,-36.7L826.5,548.5c-62.6,-13.8,-117.6,-22.9,-168,-26C825,365.1,944.2,256.7,1017.5,200.1C1089.3,143.6,1159.6,99.3,1228.3,67.2c67.3,-32.1,166.6,-61.1,299.5,-83.9c29,-6.1,44.3,-13.8,44.3,-22.9c0,-6.1,-6.1,-10.7,-16.8,-13.8c-12.2,-4.6,-55,-10.7,-128.4,-18.3C1353.6,-80.9,1294,-85.5,1249.7,-85.5Z" 
	id="f2_8"
	transform="scale(0.001,-0.001)" />

	<path d="M705.8,580.6l100.9,16.8c38.2,53.4,58,102.3,61.1,149.7C805.1,736.4,742.5,730.3,679.9,725.7c16.8,-26,24.4,-73.3,25.9,-145.1Zm171.1,27.5c67.3,10.7,108.5,16.8,123.8,16.8c13.7,0,26,-1.6,33.6,-3.1c7.6,-1.5,13.8,-3,18.3,-3c4.6,0,10.7,4.5,15.3,13.7c4.6,7.6,13.8,29,27.5,61.1c13.8,32.1,19.9,53.5,19.9,61.1c0,13.8,-7.7,19.9,-21.4,19.9L909,753.2c26,-16.8,38.2,-30.6,38.2,-38.2c0,-9.2,-3,-16.8,-7.6,-21.4C922.8,676.8,901.4,647.8,876.9,608.1ZM337.6,-155.7c-7.6,0,-15.2,12.2,-24.4,35.1c-10.7,22.9,-15.3,50.4,-15.3,79.4c0,29.1,3.1,51.9,9.2,68.7c6.1,15.3,13.7,65.7,24.4,151.3c9.2,85.5,16.8,189.4,22.9,310.1C316.3,391.1,259.7,307.1,184.9,236.8C110,166.5,67.2,131.4,53.5,131.4c-3.1,0,-4.6,3,-4.6,7.6c0,4.6,4.6,12.3,13.7,22.9C146.7,261.3,207.8,348.3,249,420.1c39.8,71.8,71.8,142.1,97.8,209.3c-90.1,-19.8,-146.7,-29,-169.6,-29c-22.9,0,-42.8,4.6,-59.6,13.8c-16.8,7.6,-24.4,15.2,-24.4,21.4c0,6.1,12.2,10.7,38.2,13.7c53.5,7.6,129.9,24.5,227.6,50.4c1.6,120.7,1.6,201.7,-3,242.9c-4.6,41.3,-13.8,70.3,-26,84.1c-13.7,13.7,-19.9,24.4,-19.9,33.6c0,7.6,7.7,12.2,23,12.2c13.7,0,38.2,-6.1,70.2,-18.3c32.1,-13.8,47.4,-29.1,47.4,-47.4c0,-6.1,-3.1,-16.8,-7.6,-32.1C438.5,957.9,433.9,935,429.3,902.9C424.7,870.8,418.6,808.2,412.5,715c38.2,10.7,67.2,15.3,85.6,15.3c18.3,0,35.1,-1.5,48.8,-6.1c13.8,-4.6,21.4,-12.3,21.4,-19.9c0,-15.3,-25.9,-29,-76.4,-39.7C440,652.4,411,644.7,406.4,643.2c-1.5,-47.4,-4.6,-84,-6.1,-108.5c103.9,-3,155.8,-27.5,155.8,-73.3c0,-10.7,-3,-18.3,-9.2,-26c-7.6,-7.6,-15.2,-10.7,-24.4,-10.7c-15.3,0,-56.5,30.6,-122.2,91.7C395.7,395.7,392.6,287.2,392.6,192.5C392.6,96.3,389.6,26,385,-19.8c-4.6,-45.8,-12.2,-79.4,-22.9,-102.3c-10.7,-22.9,-18.3,-33.6,-24.5,-33.6Zm510.3,-47.4c-9.1,0,-16.8,4.6,-22.9,15.3c-29,44.3,-65.7,81,-108.5,111.5c-10.7,7.6,-16.8,13.8,-16.8,18.3c0,4.6,3.1,6.2,7.7,6.2c4.5,0,18.3,-1.6,39.7,-6.2c21.4,-4.5,44.3,-7.6,68.7,-7.6c23,0,41.3,6.1,53.5,18.3c12.2,12.3,21.4,32.1,29,58c6.1,26,9.2,61.1,9.2,103.9c0,42.8,-7.6,93.2,-22.9,152.8C828.1,192.5,763.9,126.8,689,73.3C614.2,18.3,560.7,-9.1,528.6,-9.1c-9.2,0,-13.7,3.1,-13.7,7.7c0,4.5,4.5,10.6,13.7,15.2c56.5,33.6,116.1,80.9,177.2,142c61.1,59.6,108.5,120.7,143.6,180.3c-19.8,26,-36.6,45.8,-51.9,62.7C744,326.9,692.1,271.9,638.6,233.8C585.1,195.6,548.5,175.7,531.7,175.7c-4.6,0,-7.7,1.5,-7.7,6.1c0,3.1,4.6,7.6,12.3,13.8c36.6,25.9,74.8,62.6,114.5,108.4c38.2,44.3,71.8,91.7,99.3,139.1c-4.5,4.5,-10.7,9.1,-18.3,15.2C698.2,433.9,666.1,414,637.1,400.3c-29,-13.8,-48.9,-21.4,-56.5,-21.4c-9.2,0,-13.8,3,-13.8,7.6c0,4.6,6.1,10.7,19.9,18.4c76.4,44.3,140.5,97.7,194,158.9c-29,-3.1,-53.5,-6.2,-76.4,-10.7c-4.6,-4.6,-7.6,-6.2,-12.2,-6.2c-16.8,0,-27.5,13.8,-35.2,42.8c-13.7,59.6,-30.5,102.4,-50.4,126.8c-19.8,22.9,-29,38.2,-29,44.3c0,4.6,4.6,7.7,13.8,7.7c24.4,0,45.8,-6.1,62.6,-18.4L909,783.8c27.5,47.3,50.4,97.7,67.3,151.2c-23,-4.6,-45.9,-7.6,-68.8,-7.6c-24.4,0,-50.4,4.5,-79.4,12.2C796,907.5,757.8,878.5,716.5,854C675.3,828.1,649.3,815.8,640.1,815.8c-9.1,0,-13.7,3.1,-13.7,7.7c0,4.6,3,7.6,7.6,12.2c22.9,16.8,48.9,39.7,76.4,65.7c27.5,26,47.4,48.9,59.6,68.7c10.7,18.4,18.3,32.1,21.4,42.8c1.5,10.7,3,24.5,3,42.8c0,16.8,7.7,26,21.4,26c13.8,0,35.2,-6.1,62.7,-18.4c27.5,-13.7,41.2,-22.9,41.2,-29c0,-7.6,-3,-13.7,-7.6,-18.3c-4.6,-6.1,-29,-27.5,-71.8,-64.2c32.1,1.5,64.1,6.1,96.2,16.8c32.1,9.2,55,18.3,68.8,27.5c13.7,9.2,26,13.8,38.2,13.8c12.2,0,33.6,-6.1,62.6,-19.9c29,-13.7,44.3,-24.4,44.3,-33.6c0,-9.2,-10.7,-16.8,-33.6,-22.9c-22.9,-7.7,-47.4,-19.9,-70.3,-38.2c-22.9,-19.9,-59.6,-55,-108.4,-107c90.1,13.8,151.2,26,183.3,36.7c7.6,3.1,18.3,4.6,30.5,4.6c10.7,0,33.7,-9.2,68.8,-26c35.1,-16.8,51.9,-30.5,51.9,-38.2c0,-7.6,-7.6,-15.3,-22.9,-19.8c-27.5,-10.7,-62.6,-50.5,-103.9,-119.2c-12.2,-19.9,-25.9,-36.7,-39.7,-47.4c-15.3,-10.7,-27.5,-16.8,-36.7,-16.8c-9.1,0,-15.2,1.6,-18.3,4.6c-9.2,10.7,-24.4,16.8,-45.8,16.8c-21.4,0,-71.8,-3,-152.8,-10.7c-22.9,-32.1,-55,-64.1,-96.2,-96.2c76.3,-33.6,132.9,-87.1,168,-158.9c55,44.3,96.3,82.5,125.3,113c27.5,29.1,41.2,55,41.2,74.9c0,19.9,4.6,29,15.3,29c10.7,0,30.6,-7.6,59.6,-24.4c29,-16.8,44.3,-29,44.3,-38.2c0,-10.7,-7.6,-16.8,-22.9,-21.4C1173.3,446.1,1116.8,411,1014.4,342.2c84.1,-77.9,157.4,-135.9,223.1,-174.1c65.7,-39.8,143.6,-70.3,236.8,-90.2c18.3,-4.6,27.5,-9.1,27.5,-13.7c0,-6.1,-4.6,-10.7,-12.2,-13.8c-9.2,-3,-39.7,-7.6,-90.2,-13.7c-51.9,-6.1,-91.6,-9.2,-120.6,-9.2c-29.1,0,-48.9,3.1,-62.7,10.7c-13.7,6.1,-27.5,16.8,-38.2,33.6c-44.3,62.6,-110,145.1,-195.5,247.5L936.5,288.8C965.6,209.3,979.3,131.4,979.3,53.5c0,-77.8,-16.8,-139,-50.4,-186.3c-35.1,-47.4,-61.1,-70.3,-81,-70.3Z" 
	id="f2_9"
	transform="scale(0.001,-0.001)" />

	<path d="M123.8,-168c-6.2,0,-9.2,3.1,-9.2,9.2c0,4.6,4.6,12.2,13.7,22.9C226.1,-32,294.9,73.3,333.1,181.8c38.2,108.5,58,238.3,58,391.1c0,35.2,-1.5,65.7,-6.1,88.6c-4.6,22.9,-12.2,45.9,-22.9,65.7c-12.2,19.9,-18.3,35.2,-18.3,42.8c0,7.6,6.1,12.2,16.8,12.2c10.7,0,27.5,-4.6,51.9,-12.2c24.4,-7.6,41.3,-16.8,50.4,-24.4c59.6,1.5,146.7,15.2,258.2,39.7c-1.5,88.6,-4.6,157.3,-10.7,207.8c-6.1,48.8,-16.8,82.5,-33.6,100.8c-7.6,9.2,-12.2,18.3,-12.2,26c0,13.7,10.7,21.4,30.5,21.4c19.9,0,52,-7.7,93.2,-24.5c41.3,-16.8,61.1,-35.1,61.1,-55c0,-7.6,-3,-16.8,-7.6,-30.5C823.5,986.9,811.3,912.1,805.1,806.7c85.6,19.8,142.1,35.1,169.6,44.3c27.5,9.1,47.4,19.8,61.1,33.6c10.7,10.7,23,15.3,35.2,15.3c21.4,0,58,-13.8,111.5,-41.3c53.5,-27.5,79.4,-50.4,79.4,-70.3c0,-9.1,-6.1,-15.2,-19.8,-18.3c-24.5,-4.6,-55,-16.8,-90.2,-38.2c-35.1,-21.4,-64.1,-41.2,-85.5,-61.1c-22.9,-19.9,-36.7,-29,-42.8,-29c-7.6,0,-10.7,3,-10.7,10.7c0,6.1,1.5,12.2,6.1,19.8c26,53.5,39.8,90.2,39.8,108.5c0,16.8,-9.2,26,-27.5,26c-12.3,0,-88.7,-16.8,-229.2,-52L786.8,488.9c38.2,12.2,62.6,22.9,73.3,30.5c10.7,7.7,23,10.7,38.2,10.7c13.8,0,38.2,-9.1,70.3,-27.5c32.1,-19.8,48.9,-33.6,48.9,-44.3c0,-10.7,-6.1,-21.4,-18.3,-32C985.4,414,976.3,398.8,968.6,380.4c-7.6,-18.3,-18.3,-55,-35.1,-110c-13.8,-55,-30.6,-97.8,-47.4,-129.8C970.1,71.8,1054.2,21.4,1138.2,-7.5c82.5,-30.6,192.5,-55,328.5,-74.9c24.4,-3.1,36.6,-10.7,36.6,-21.4c0,-6.1,-4.5,-10.7,-13.7,-15.3c-10.7,-4.6,-55,-12.2,-132.9,-24.4c-77.9,-12.2,-134.5,-18.3,-166.6,-18.3c-33.6,0,-56.5,3,-68.7,7.6c-12.2,4.6,-47.4,30.5,-107,77.9C954.9,-28.9,896.8,22.9,841.8,79.4C791.4,22.9,731.8,-21.3,663.1,-50.3C594.3,-80.9,524,-96.2,452.2,-96.2c-29,0,-42.8,4.6,-42.8,12.3c0,7.6,10.7,13.7,33.7,18.3C502.6,-53.4,565.3,-28.9,634,9.2C701.3,45.8,753.2,88.6,788.3,136C716.5,207.8,673.8,252.1,656.9,270.4c-16.8,18.4,-38.1,36.7,-64.1,55c-27.5,18.4,-50.4,30.6,-70.3,36.7c-19.9,6.1,-30.6,13.7,-30.6,21.4c0,7.6,3.1,13.7,10.7,18.3c7.7,4.6,21.4,6.1,41.3,6.1c19.9,0,39.7,-6.1,59.6,-16.8c19.8,-10.7,45.8,-33.6,80.9,-68.7L818.9,195.6c16.8,42.7,30.5,87,41.2,134.4c10.7,45.8,15.3,76.4,15.3,93.2c0,15.3,-7.6,22.9,-21.4,22.9c-15.2,0,-44.3,-4.6,-87.1,-15.3C724.2,420.1,692.1,415.6,672.2,415.6c-21.4,0,-39.7,4.5,-53.4,13.7c-13.8,7.6,-21.4,13.8,-21.4,18.3c0,3.1,12.2,6.2,35.1,9.2c22.9,3.1,50.4,7.6,82.5,15.3c4.6,132.9,6.1,220,6.1,261.2C632.8,711.6,559.1,700.7,501.9,700.7c-7.1,0,-14,0.2,-20.6,0.6c1.5,-23,3,-52,3,-85.6c0,-154.3,-19.9,-291.8,-58,-411C388.1,84,331.5,-7.5,259.7,-71.7C187.9,-135.9,142.1,-168,123.8,-168Z" 
	id="f2_4"
	transform="scale(0.001,-0.001)" />


</defs>

<!-- Any embedded fonts defined here -->
<style type="text/css" ><![CDATA[

@font-face {
	font-family: ProximaNova-Extrabld_cq3;
	src: url("fonts/ProximaNova-Extrabld_cq3.woff") format("woff");
}

@font-face {
	font-family: ProximaNova-Semibold_cpz;
	src: url("fonts/ProximaNova-Semibold_cpz.woff") format("woff");
}

@font-face {
	font-family: Helvetica-Bold_crq;
	src: url("fonts/Helvetica-Bold_crq.woff") format("woff");
}

@font-face {
	font-family: ProximaNova-Bold_cpr;
	src: url("fonts/ProximaNova-Bold_cpr.woff") format("woff");
}

@font-face {
	font-family: STKaitiSC-Regular_cof;
	src: url("fonts/STKaitiSC-Regular_cof.woff") format("woff");
}

@font-face {
	font-family: Alegreya-Regular_cpq;
	src: url("fonts/Alegreya-Regular_cpq.woff") format("woff");
}

@font-face {
	font-family: Alegreya-Regular_cru;
	src: url("fonts/Alegreya-Regular_cru.woff") format("woff");
}

]]></style>

</svg>
