<?xml version="1.0" encoding="UTF-8" standalone="no"?>
<!DOCTYPE svg PUBLIC "-//W3C//DTD SVG 1.1//EN"
"http://www.w3.org/Graphics/SVG/1.1/DTD/svg11.dtd">


<!-- Page 201 -->
<svg x="0" y="0" width="921" height="1196" viewBox="0 0 921 1196" version="1.1" xmlns="http://www.w3.org/2000/svg" xmlns:xlink="http://www.w3.org/1999/xlink"
style="display: block;margin-left: auto;margin-right: auto;">
<defs>

<style type="text/css"><![CDATA[

.g1_201{
fill: none;
stroke: #7AAD35;
stroke-width: 0.6248611;
stroke-linecap: butt;
stroke-linejoin: miter;
}
.g2_201{
fill: none;
stroke: #7AAD35;
stroke-width: 1.8730555;
stroke-linecap: butt;
stroke-linejoin: miter;
}
.g3_201{
fill: none;
stroke: #7AAD35;
stroke-width: 2.2916667;
stroke-linecap: butt;
stroke-linejoin: miter;
}
.g4_201{
fill: none;
stroke: #7AAD35;
stroke-width: 1.5277778;
stroke-linecap: butt;
stroke-linejoin: miter;
stroke-miterlimit: 4;
}
.g5_201{
fill: none;
stroke: #7AAD35;
stroke-width: 0.5102778;
stroke-linecap: butt;
stroke-linejoin: miter;
stroke-miterlimit: 4;
}
.g6_201{
fill: #7AAD35;
stroke: #B2B3B7;
stroke-width: 1.5277778;
stroke-linecap: butt;
stroke-linejoin: miter;
stroke-miterlimit: 4;
}

.s1_201{
font-size: 32.08px;
font-family: LibreFranklin-ExtraBold_3-1;
fill: #7AAD35;
}
.s2_201{
font-size: 18.33px;
font-family: LibreFranklin-ExtraBold_3-1;
fill: #86B345;
}
.s3_201{
font-size: 27.50px;
font-family: STKaiti-SC-Bold_3oi;
fill: #3F3F40;
}
.s4_201{
font-size: 22.92px;
font-family: LibreFranklin-Bold_3-8;
fill: #7AAD35;
}
.s5_201{
font-size: 14.51px;
font-family: LibreFranklin-Regular_3-f;
fill: #3F3F40;
}
.s6_201{
font-size: 23.68px;
font-family: STKaiti-SC-Regular_3pn;
fill: #3F3F40;
}
.s7_201{
font-size: 15.28px;
font-family: LibreFranklin-ExtraBold_3-1;
fill: #3F3F40;
}
.s8_201{
font-size: 16.81px;
font-family: LibreFranklin-Bold_3-8;
fill: #939598;
}
.s9_201{
font-size: 25.97px;
font-family: STKaiti-SC-Regular_3pn;
fill: #3F3F40;
}
.s10_201{
font-size: 25.97px;
font-family: STKaiTi-TC-Regular_3pl;
fill: #3F3F40;
}
.s11_201{
font-size: 25.97px;
font-family: STKaiti-SC-Bold_3oi;
fill: #749E3C;
}
.s12_201{
font-size: 25.97px;
font-family: STKaiTi-TC-Bold_3op;
fill: #749E3C;
}
.s13_201{
font-size: 11.08px;
font-family: LibreFranklin-SemiBold_3-a;
fill: #FFFFFF;
}

]]></style>

</defs>
<path d="M0,0
L0,1196
L921,1196
L921,0 Z " 
fill="#FFFFFF" stroke="none" />
<path d="M4.6,97.3l329.7,0" class="g1_201" />
<path d="M4.6,99.8l329.7,0" class="g2_201" />
<path d="M123.8,183.4l12.2,0" class="g3_201" />
<text 
x="59" 
y="85" 
dx="0,-2.4,0.3,-0.3,0.3,0.3,0.3,0.3,0.3,0.3,0.3,0,0.3,0.3,0.3" 
class="s1_201"
>Words &amp; Phrases</text>

<text 
x="123" 
y="177" 
dx="0,0" 
class="s2_201"
>A </text>

<text 
x="218" 
y="182" 
dx="0,0,0" 
class="s3_201"
>到底 </text>

<text 
x="279" 
y="182" 
dx="0,0,0,0,0,0,0,0,0,0,0,0,0,0,0,0,0,0,0,0,0,0,0,0,0,0,0,0,0,0,0,0,0,0,0,0,0,0,0,0,0,0,0,0,0,0" 
class="s4_201"
>(what on earth, what in the world, in the end)</text>

<text 
x="161" 
y="253" 
dx="0,0,0,0,0,0,0,-0.2,0" 
class="s5_201"
>The word </text>

<text 
x="228" 
y="254" 
dx="0,0" 
class="s6_201"
>到底</text>

<text 
x="279" 
y="253" 
dx="0,0,0,0,-0.2,0,-0.2,0,0,0,0,0,0,0,0,0,0,0,0,0,0,0,0,0,0,0,0,0,-0.2,0,0,0,-0.2,0,0,0,0,0,0,0,0,-0.1,0,0,0,0,0,0,0,0,0,-0.4,0,0,0,-0.3,0,0,0,0,0,0,0,0,0,0,0,-1.2" 
class="s5_201"
>is often used in questions to press the other speaker for an answer.</text>

<text 
x="176" 
y="309" 
dx="0,0" 
class="s7_201"
>1 </text>

<text 
x="216" 
y="312" 
dx="0,0,0" 
class="s8_201"
>Q: </text>

<text 
x="242" 
y="312" 
dx="0,0,0,0,0,0,0,0,0,0" 
class="s9_201"
>你明天去看演唱会吗？</text>

<text 
x="244" 
y="352" 
dx="0,0,0,0,0,0,0,0,0,0" 
class="s10_201"
>你明天去看演唱會嗎？</text>

<text 
x="250" 
y="386" 
dx="0,0,-0.2,0,0,0,0,0,0,-0.1,0,0,0,0,0,-0.2,0,0,0,0,0,0,0,0,0,0,0,0,0,0,-0.2,0,0,0,0,-0.2,0,0" 
class="s5_201"
>Are you going to the concert tomorrow?</text>

<text 
x="216" 
y="433" 
dx="0,0,0" 
class="s8_201"
>A: </text>

<text 
x="245" 
y="433" 
dx="0,0,0,0,0,0,0,0" 
class="s9_201"
>我想去，可是……</text>

<text 
x="244" 
y="474" 
dx="0,0,0,0,0,0,0,0" 
class="s10_201"
>我想去，可是……</text>

<text 
x="250" 
y="507" 
dx="0,0,-1,0,0,0,0,-0.4,0,0,-0.2,0,0,-0.1,-0.4,0,0,0,0,0,0,0,0,0,0,0" 
class="s5_201"
>I’d like to go, but . . . </text>

<text 
x="216" 
y="555" 
dx="0,0,0" 
class="s8_201"
>Q: </text>

<text 
x="245" 
y="555" 
dx="0" 
class="s9_201"
>你</text>

<text 
x="271" 
y="555" 
dx="0,0" 
class="s11_201"
>到底</text>

<text 
x="323" 
y="555" 
dx="0,0,0,0" 
class="s9_201"
>去不去？</text>

<text 
x="244" 
y="595" 
dx="0" 
class="s10_201"
>你</text>

<text 
x="270" 
y="595" 
dx="0,0" 
class="s12_201"
>到底</text>

<text 
x="322" 
y="595" 
dx="0,0,0,0" 
class="s10_201"
>去不去？</text>

<text 
x="250" 
y="629" 
dx="0,0,-0.2,0,0,0,0,0,0,-0.1,0,0,0,0,0,0,0,0,0,-0.1,0" 
class="s5_201"
>Are you going or not?</text>

<text 
x="174" 
y="687" 
dx="0,0" 
class="s7_201"
>2 </text>

<text 
x="244" 
y="690" 
dx="0,0,0" 
class="s9_201"
>他们俩</text>

<text 
x="322" 
y="690" 
dx="0,0" 
class="s11_201"
>到底</text>

<text 
x="374" 
y="690" 
dx="0,0,0,0,0,0,0,0,0,0,0,0" 
class="s9_201"
>为什么分手？没有人知道。</text>

<text 
x="244" 
y="730" 
dx="0,0,0" 
class="s10_201"
>他們倆</text>

<text 
x="322" 
y="730" 
dx="0,0" 
class="s12_201"
>到底</text>

<text 
x="374" 
y="730" 
dx="0,0,0,0,0,0,0,0,0,0,0,0" 
class="s10_201"
>為什麼分手？沒有人知道。</text>

<text 
x="250" 
y="764" 
dx="0,0,0,0,0.4,-0.9,0,0,0,0,0,0,-0.2,0,0,0,0,-0.2,0,0,0,0,0,0,0,0,0,0,0,0,0,0,0,0,0,-0.2,0,-0.4,0,0,0,0,0,0,0,0,0,0,0,0,0,0,0,0,0,0" 
class="s5_201"
>What’s the real reason those two broke up? No one knows.</text>

<text 
x="161" 
y="812" 
dx="0,0,-0.1,-0.2,0,0,0,0,0,0,0,0,0,0,0,0,0,0,0,0,0,0,0,0,0,0,0,0,0,0,0,0,0,0,0,0,0,0,0,0,0,0,-0.2,0" 
class="s5_201"
>Note the embedded question in (3). The word </text>

<text 
x="468" 
y="813" 
dx="0,0" 
class="s6_201"
>到底</text>

<text 
x="518" 
y="812" 
dx="0,0,0,0,0,0,0,0,0,0,0,0,0,0,0,0,0,0,0,0,0,0,-0.4,0,0,0,0,0,0,0,0,0,0,0" 
class="s5_201"
>implies that the speaker has been </text>

<text 
x="161" 
y="839" 
dx="0,0,-0.1,0,0,0,0,0,0,0,0,-0.3,-0.4,0,0,0,0,0,0,0,0,0,0,-0.2,0,0,0,0,0,0,0,0,0,0,0,0,0,0,0" 
class="s5_201"
>agonizing over coming to a conclusion. </text>

<text 
x="174" 
y="896" 
dx="0,0" 
class="s7_201"
>3 </text>

<text 
x="244" 
y="898" 
dx="0,0,0,0" 
class="s9_201"
>毕业以后</text>

<text 
x="348" 
y="898" 
dx="0,0" 
class="s11_201"
>到底</text>

<text 
x="400" 
y="898" 
dx="0,0,0,0,0,0,0,0,0,0,0,0,0,0,0,0,0" 
class="s9_201"
>念研究生还是找工作，我还没考虑好。</text>

<text 
x="244" 
y="939" 
dx="0,0,0,0" 
class="s10_201"
>畢業以後</text>

<text 
x="348" 
y="939" 
dx="0,0" 
class="s12_201"
>到底</text>

<text 
x="400" 
y="939" 
dx="0,0,0,0,0,0,0,0,0,0,0,0,0,0,0,0,0,0" 
class="s10_201"
>念研究生還是找工作，我還沒考慮好。 </text>

<text 
x="250" 
y="972" 
dx="0,0,0,-0.1,0,0,0,0,0,0,0,-0.2,0,0,0,0,0,0,0,0,0,0,0,0,0,-0.1,0,0,-0.2,0,0,0,0,0,0,0,0,-0.2,0,0,0,0,0,0,0,0,0,0,0,0,0,0,0,0,0,0,0,0,0,0,0,0,0,-0.2,0,0,0,0,0,0,0,0,0,0,0,0,0,0,0,0,0,0,0,0,0,0" 
class="s5_201"
>Whether I really should go to graduate school or find a job after graduation, I still </text>

<text 
x="250" 
y="992" 
dx="0,0,0,-0.4,0,0,0,0,0,0,0,0,0,0,0,0,0,0,0,0,0,0,-0.2,0,0,0,0" 
class="s5_201"
>haven’t thought it through.</text>

<path d="M151.2,146.9l0,53.5l0,0.8l0.8,0l676.9,0l0.7,0l0,-0.8l0,-53.5l0,-0.7l-0.7,0l-676.9,0l-0.8,0l0,0.7Z" class="g4_201" />
<path d="M153.2,199.1l674.4,0l0,-50.9l-674.4,0l0,50.9Z" class="g5_201" />
<path d="M169,286.4c-0.1,0,-7.7,0.1,-7.7,7.7l0,19.7c0,0,0.1,7.6,7.7,7.6l22.4,0c0,0,7.6,-0.1,7.6,-7.6l0,-19.7c0,-0.1,-0.1,-7.7,-7.6,-7.7l-22.4,0Z" class="g4_201" />
<path d="M169,288.5c-0.6,0,-5.6,0.2,-5.6,5.6l0,19.7c0,0.5,0.2,5.6,5.6,5.6l22.4,0c0.5,0,5.6,-0.2,5.6,-5.6l0,-19.7c0,-0.6,-0.2,-5.6,-5.6,-5.6l-22.4,0Z" class="g5_201" />
<path d="M169,664.6c-0.1,0,-7.7,0.1,-7.7,7.6l0,19.7c0,0.1,0.1,7.6,7.7,7.6l22.4,0c0,0,7.6,0,7.6,-7.6l0,-19.7c0,-0.1,-0.1,-7.6,-7.6,-7.6l-22.4,0Z" class="g4_201" />
<path d="M169,666.6c-0.6,0,-5.6,0.2,-5.6,5.6l0,19.7c0,0.6,0.2,5.6,5.6,5.6l22.4,0c0.5,0,5.6,-0.2,5.6,-5.6l0,-19.7c0,-0.6,-0.2,-5.6,-5.6,-5.6l-22.4,0Z" class="g5_201" />
<path d="M169,873.1c-0.1,0,-7.7,0.1,-7.7,7.6l0,19.7c0,0.1,0.1,7.7,7.7,7.7l22.4,0c0,0,7.6,-0.1,7.6,-7.7l0,-19.7c0,0,-0.1,-7.6,-7.6,-7.6l-22.4,0Z" class="g4_201" />
<path d="M169,875.1c-0.6,0,-5.6,0.3,-5.6,5.6l0,19.7c0,0.6,0.2,5.6,5.6,5.6l22.4,0c0.5,0,5.6,-0.2,5.6,-5.6l0,-19.7c0,-0.5,-0.2,-5.6,-5.6,-5.6l-22.4,0Z" class="g5_201" />
<path d="M-17.5,1209.2l58,0l0,-1222.1l-58,0l0,1222.1Z" class="g6_201" />
<text 
transform="matrix(0, -1, 1, 0, 31, 1173)"
dx="0,1,1,1" 
class="s13_201"
>178 </text>

<text 
transform="matrix(0, -1, 1, 0, 31, 1130)"
dx="0,1,1,0.8,1,1,0.9,1,0.8,1,1,1,1,1,1,1,1,1,1,1,1" 
class="s13_201"
>Integrated Chinese 3 </text>

<text 
transform="matrix(0, -1, 1, 0, 31, 990)"
dx="0,1" 
class="s13_201"
>| </text>

<text 
transform="matrix(0, -1, 1, 0, 31, 976)"
dx="0,-0.2,0.7,0.7,1,1,1,1" 
class="s13_201"
>Textbook</text>



<!-- Any embedded fonts defined here -->
<style type="text/css" ><![CDATA[

@font-face {
	font-family: STKaiti-SC-Bold_3oi;
	src: url("fonts/STKaiti-SC-Bold_3oi.woff") format("woff");
}

@font-face {
	font-family: STKaiTi-TC-Bold_3op;
	src: url("fonts/STKaiTi-TC-Bold_3op.woff") format("woff");
}

@font-face {
	font-family: LibreFranklin-Bold_3-8;
	src: url("fonts/LibreFranklin-Bold_3-8.woff") format("woff");
}

@font-face {
	font-family: LibreFranklin-SemiBold_3-a;
	src: url("fonts/LibreFranklin-SemiBold_3-a.woff") format("woff");
}

@font-face {
	font-family: STKaiTi-TC-Regular_3pl;
	src: url("fonts/STKaiTi-TC-Regular_3pl.woff") format("woff");
}

@font-face {
	font-family: STKaiti-SC-Regular_3pn;
	src: url("fonts/STKaiti-SC-Regular_3pn.woff") format("woff");
}

@font-face {
	font-family: LibreFranklin-Regular_3-f;
	src: url("fonts/LibreFranklin-Regular_3-f.woff") format("woff");
}

@font-face {
	font-family: LibreFranklin-ExtraBold_3-1;
	src: url("fonts/LibreFranklin-ExtraBold_3-1.woff") format("woff");
}

]]></style>

</svg>
