<?xml version="1.0" encoding="UTF-8" standalone="no"?>
<!DOCTYPE svg PUBLIC "-//W3C//DTD SVG 1.1//EN"
"http://www.w3.org/Graphics/SVG/1.1/DTD/svg11.dtd">


<!-- Page 60 -->
<svg x="0" y="0" width="921" height="1196" viewBox="0 0 921 1196" version="1.1" xmlns="http://www.w3.org/2000/svg" xmlns:xlink="http://www.w3.org/1999/xlink"
style="display: block;margin-left: auto;margin-right: auto;">
<defs>
<clipPath id="c0_60"><path d="M121.8,75.8l0,-26.2l25.2,0l0,26.2Z" /></clipPath>
<clipPath id="c1_60"><path d="M124.2,163.2l0,-26.2l19.7,0l0,26.2Z" /></clipPath>
<clipPath id="c2_60"><path d="M121.8,213.3l0,-26.2l25.2,0l0,26.2Z" /></clipPath>
<clipPath id="c3_60"><path d="M124.2,264l0,-26.1l19.7,0l0,26.1Z" /></clipPath>
<clipPath id="c4_60"><path d="M121.8,350.8l0,-26.2l25.2,0l0,26.2Z" /></clipPath>
<clipPath id="c5_60"><path d="M124.2,401.5l0,-26.1l19.7,0l0,26.1Z" /></clipPath>
<clipPath id="c6_60"><path d="M121.8,488.3l0,-26.2l25.2,0l0,26.2Z" /></clipPath>
<clipPath id="c7_60"><path d="M124.2,575.7l0,-26.2l19.7,0l0,26.2Z" /></clipPath>

<style type="text/css"><![CDATA[

.g1_60{
fill: #00A54F;
}
.g2_60{
fill: #652D91;
}
.g3_60{
fill: none;
stroke: #F8D3C4;
stroke-width: 1.5277778;
stroke-linecap: butt;
stroke-linejoin: miter;
stroke-miterlimit: 4;
}
.g4_60{
fill: none;
stroke: #9B9B9C;
stroke-width: 1.5277778;
stroke-linecap: butt;
stroke-linejoin: miter;
}
.g5_60{
fill: none;
stroke: #DC262E;
stroke-width: 1.5277778;
stroke-linecap: butt;
stroke-linejoin: miter;
}
.g6_60{
fill: #DC262E;
stroke: #B2B3B7;
stroke-width: 1.5277778;
stroke-linecap: butt;
stroke-linejoin: miter;
stroke-miterlimit: 4;
}

.s1_60{
font-size: 25.97px;
font-family: STKaiTi-TC-Regular_3pl;
fill: #3F3F40;
}
.s2_60{
font-size: 25.97px;
font-family: STKaiTi-TC-Bold_3op;
fill: #67962C;
}
.s3_60{
font-size: 16.81px;
font-family: MuseoSans-700_3ti;
fill: #DC262E;
}
.s4_60{
font-size: 12.22px;
font-family: LibreFranklin-Regular_3td;
fill: #3F3F40;
}
.s5_60{
font-size: 15.28px;
font-family: LibreFranklin-Bold_3t0;
fill: #939598;
}
.s6_60{
font-size: 16.81px;
font-family: SourceHanSansTW-Normal_3ql;
fill: #3F3F40;
}
.s7_60{
font-size: 16.81px;
font-family: LibreFranklin-SemiBold_3tc;
fill: #DC262E;
}
.s8_60{
font-size: 15.28px;
font-family: LibreFranklin-Bold_3t0;
fill: #DC262E;
}
.s9_60{
font-size: 25.97px;
font-family: STKaiti-SC-Bold_3oi;
fill: #DC262E;
}
.s10_60{
font-size: 12.22px;
font-family: LibreFranklin-Regular_3td;
fill: #231F20;
}
.s11_60{
font-size: 19.86px;
font-family: STKaiti-SC-Regular_3pn;
fill: #3F3F40;
}
.s12_60{
font-size: 13.75px;
font-family: GentiumBookBasic-Italic_3o-;
fill: #3F3F40;
}
.s13_60{
font-size: 25.97px;
font-family: STKaiTi-TC-Bold_3op;
fill: #DC262E;
}
.s14_60{
font-size: 19.86px;
font-family: STKaiTi-TC-Regular_3pl;
fill: #3F3F40;
}
.s15_60{
font-size: 11.08px;
font-family: LibreFranklin-SemiBold_3tc;
fill: #FFFFFF;
}

]]></style>

</defs>
<path d="M0,0
L0,1196
L921,1196
L921,0 Z " 
fill="#FFFFFF" stroke="none" />
<text 
x="148" 
y="73" 
dx="0,0,0,0,0,0,0,0" 
class="s1_60"
>聽說學校餐廳的飯</text>

<text 
x="356" 
y="73" 
dx="0,0" 
class="s2_60"
>一般</text>

<text 
x="408" 
y="73" 
dx="0,0,0,0,0,0,0,0" 
class="s1_60"
>都不太好。這兒的</text>

<text 
x="148" 
y="110" 
dx="0,0" 
class="s1_60"
>呢？</text>

<text 
x="148" 
y="160" 
dx="0,0,0,0,0,0,0,0,0,0,0" 
class="s1_60"
>你說對了，餐廳的飯真的</text>

<text 
x="434" 
y="160" 
dx="0,0,0,0" 
class="s2_60"
>不怎麼樣</text>

<text 
x="538" 
y="160" 
dx="0" 
class="s1_60"
>。</text>

<text 
x="148" 
y="211" 
dx="0,0,0,0,0,0,0,0" 
class="s1_60"
>真的？那怎麼辦？</text>

<text 
x="148" 
y="261" 
dx="0,0,0,0,0,0,0,0,0,0,0,0,0,0,0,0,0,0" 
class="s1_60"
>你別著急。附近有很多飯館兒，還有一家</text>

<text 
x="148" 
y="298" 
dx="0,0,0,0,0,0,0" 
class="s1_60"
>中國餐館兒呢。</text>

<text 
x="148" 
y="348" 
dx="0,0,0,0,0,0,0,0,0,0,0,0,0,0,0,0,0,0" 
class="s1_60"
>我覺得美國的中國餐館兒，好吃的不多。</text>

<text 
x="148" 
y="399" 
dx="0,0,0,0,0,0,0,0,0,0,0,0,0,0,0,0,0,0" 
class="s1_60"
>那也不見得。附近那家中國餐館兒的菜就</text>

<text 
x="148" 
y="435" 
dx="0" 
class="s1_60"
>很</text>

<text 
x="174" 
y="435" 
dx="0,0" 
class="s2_60"
>地道</text>

<text 
x="226" 
y="435" 
dx="0,0,0,0,0,0,0,0,0,0,0" 
class="s1_60"
>。我和我的女朋友常去。</text>

<text 
x="148" 
y="486" 
dx="0,0,0,0,0,0,0,0,0,0,0,0,0,0,0,0,0,0" 
class="s1_60"
>真的嗎？那麼過幾天你帶我去那兒看看，</text>

<text 
x="148" 
y="522" 
dx="0,0,0" 
class="s1_60"
>好嗎？</text>

<text 
x="148" 
y="573" 
dx="0,0,0,0,0,0" 
class="s1_60"
>好，沒問題。</text>

<path d="M131.7,62c0,0,-0.1,0,-0.1,-0.1c0,0,0.1,-0.1,0.1,-0.1c0.1,0,0.1,0.1,0.1,0.1c0,0.1,0,0.1,-0.1,0.1m0.6,-0.2c-0.3,-0.1,-1,-0.1,-1.2,-0.1c-0.2,0,-0.7,0.2,-0.8,0.3c-0.2,0.1,-0.4,0.3,-0.5,0.3c-0.2,0.1,-0.2,0.1,-0.2,0.1c0,0,0.5,0,0.5,-0.1c0.1,0,0.2,-0.1,0.3,-0.1c0.2,0,0.4,0,0.4,0c0,0,-0.1,-0.2,0,-0.2c0.1,-0.1,0.2,-0.1,0.3,-0.1c0,0,-0.1,0.2,0.2,0.4c0.3,0.1,0.7,0,0.8,-0.1c0,-0.1,0,-0.3,0,-0.3c0,0,0.2,-0.2,0.8,0.4c0,0,-0.2,-0.5,-0.6,-0.5Z" class="g1_60" />
<path d="M137.7,61.6l0,-0.1c0,0,0,-0.1,0,-0.1c0.1,0,0.1,0.1,0.1,0.1c0,0.1,0,0.1,-0.1,0.1m1.5,0.1c-0.2,0,-0.1,-0.1,-0.5,-0.3c-0.3,-0.2,-1,-0.1,-1.6,-0.1c-0.5,0.1,-1,0.8,-1,0.8c0,0,0.7,-0.7,0.9,-0.5c0.1,0.1,0.2,0.3,0.7,0.3c0.5,0,0.5,-0.4,0.6,-0.4c0.1,0,0,0.1,0.1,0.1c0.1,0,0.3,0.1,0.5,0.1c0.1,0,0.6,0,0.6,0c0,0,-0.1,0,-0.3,0Z" class="g1_60" />
<path d="M133.1,60.8c0,0,-0.1,-0.3,-0.6,-0.3c-0.5,-0.1,-1.4,0,-1.8,0c-0.3,0,-1,0.2,-1.1,0.3c-0.1,0.1,-0.5,0.3,-0.5,0.3c0,0,1.1,-0.2,1.4,-0.2c0.3,0,1.2,0.1,1.7,0.1c0.4,0,0.8,0,0.9,-0.2Z" class="g1_60" />
<path d="M135.8,60.6c0,0,-0.1,-0.4,0.4,-0.4c0.5,-0.1,0.7,-0.2,1.3,-0.2c0.6,-0.1,0.7,-0.2,1,-0.2c0.3,0,1.2,0.3,1.4,0.4c0.2,0.1,-0.6,0,-0.7,0.1c-0.2,0,-1.4,0.2,-1.6,0.2c-0.3,0.1,-1.8,0.1,-1.8,0.1Z" class="g1_60" />
<path d="M132.7,65.2c0,0,0,0.5,0.1,0.6c0.1,0.1,0.2,0.2,0.6,0.2c0.3,0,0.4,0,0.5,0c0.1,0.1,0.2,0.3,0.2,0.3c0,0,-0.4,-0.2,-0.6,-0.2c-0.3,0.1,-0.5,0,-0.6,0c-0.1,-0.1,-0.4,-0.4,-0.2,-0.9Z" class="g1_60" />
<path d="M134.5,66.5c0,-0.1,0.5,0,0.6,-0.1c0.2,-0.1,0.4,-0.4,0.6,-0.5c0.2,0,0.2,-0.1,0.5,-0.1c0.3,0,0.4,-0.1,0.5,-0.2c0,-0.1,0.1,-0.4,0,-0.7c0.4,0.6,-0.2,0.9,-0.2,0.9c0,0,-0.5,0.1,-0.6,0.2c-0.2,0,-0.7,0.7,-1.4,0.5Z" class="g1_60" />
<path d="M136.6,64.4c0,0,0.4,0.2,0.6,0.3c0.1,0.2,0.3,0.6,0.5,0.8c0.1,0.2,0.3,0.4,0.6,0.5c0.3,0.2,0.4,0.3,0.5,0.4c0.1,0.1,0.2,0.7,0.2,0.7c0,0,0.2,-0.8,-0.1,-1C138.6,65.9,138.3,66,138,65.7c-0.6,-0.5,-0.5,-1.1,-1.4,-1.3Z" class="g1_60" />
<path d="M132,65.3c0,0,-0.4,0.6,-0.5,0.8c-0.2,0.2,-0.5,0.4,-0.7,0.5c-0.1,0.2,-0.3,0.5,-0.1,1c0.1,-0.6,0.1,-0.7,0.2,-0.8c0.2,-0.2,0.5,-0.4,0.7,-0.6c0.2,-0.2,0.3,-0.8,0.4,-0.9Z" class="g1_60" />
<path d="M131.6,67.6c0,0,0.7,0,0.9,-0.1c0.3,0,0.8,-0.1,1.1,-0.1c0.3,0,0.8,0.1,1,0.1c0.2,0,0.4,-0.1,0.6,-0.1c0.1,0,1.8,-0.1,2.1,-0.1c0.3,0,0.8,-0.1,0.8,-0.1c0,0,-0.1,0.3,-0.2,0.5c-0.2,0.2,-0.9,2.1,-2.6,2.3c-1.8,0.1,-2.6,-0.9,-2.6,-0.9c0,0,0.6,0.5,1.4,0.6c0.8,0.2,1.4,0,1.8,-0.2c0.5,-0.1,0.7,-0.3,0.8,-0.6c0.1,-0.2,0.2,0.2,-2,0.3c-0.3,0,2.3,-0.5,2.8,-1.3c0.1,-0.2,0,-0.5,0,-0.5c0,0,-0.8,0,-1.1,0.1c-0.4,0.1,-0.8,0.2,-1,0.2c-0.1,0,-0.8,0,-1.1,0c-0.2,0,-0.8,-0.1,-1.1,-0.1c-0.2,0,-0.8,0.1,-0.8,0.1l0,0.3c0,0,0.2,0.4,0.5,0.6c0.3,0.1,0.9,0.5,1,0.5c0.1,0,-1.1,-0.4,-1.7,-0.8c-0.5,-0.4,-0.6,-0.7,-0.6,-0.7Z" class="g1_60" />
<path d="M138.7,59.4c0,0,1.1,-0.8,1.2,-1.4c0.1,-0.6,0.2,-0.2,0.2,-0.2c0,0,-0.1,0.5,0,0.7c0,0.2,0.1,0.5,0.5,0.9c0.3,0.5,0.3,0.4,0.4,0.9c0.1,0.5,0,1.2,0.1,1.6c0.1,0.3,0.2,0.7,0.2,1c0,0.3,-0.2,1.1,-0.2,1.5c-0.1,0.3,-0.2,2,-0.2,2.3c-0.1,0.3,-0.3,1.6,-0.8,2.3c-0.5,0.7,-2.1,2.8,-2.7,3.1c-0.7,0.3,-1.4,0.5,-1.8,0.5c-0.5,0,-1.3,0,-1.5,-0.1c-0.3,-0.1,-1,-0.2,-1.3,-0.5c-0.3,-0.3,-1.1,-1.1,-1.6,-1.6c-0.5,-0.5,-1.1,-1.3,-1.1,-1.2c0,0,1.1,1.3,1.2,1.6c0.2,0.2,0.9,1,1.4,1.4c0.5,0.4,1.1,0.7,2,0.8c1,0,1.9,-0.1,2.2,-0.2c0.4,-0.2,1.2,-0.9,1.5,-1.4c0.3,-0.4,1.5,-1.9,1.7,-2.2c0.3,-0.3,0.8,-1.5,0.9,-2.3c0.1,-0.8,0.2,-2.2,0.2,-2.6c0,-0.4,0.1,-0.8,0.3,-1c0.1,-0.1,0.1,-0.8,0.1,-1c0.1,-0.3,-0.1,-0.5,0,-0.7c0.1,-0.3,0.3,-0.4,0.3,-0.4c0,0,0,-1.1,0.1,-1.1c0,-0.1,0.2,0,0.2,0c0,0,-0.2,-0.6,-0.1,-0.7c0,-0.1,0.4,0.4,0.4,0.4c0,0,-0.1,-0.5,0,-0.4c0.1,0,0.4,0.1,0.4,0.1c0,0,-0.3,-0.4,-0.4,-0.5c0,-0.1,-0.1,-0.2,0,-0.3c0.1,-0.1,0.3,-0.1,0.3,-0.1c0,0,-0.3,-0.2,-0.3,-0.3c0,-0.2,0.1,-0.3,0.1,-0.3c0,0,-0.1,0,-0.2,-0.1c-0.1,0,-0.1,-0.3,-0.1,-0.3l0.3,0.2c0,0,-0.3,-0.3,-0.2,-0.3c0,-0.1,0.1,-0.1,0.1,-0.1c0,0,-0.3,-0.1,-0.3,-0.2c0,-0.1,0.2,-0.2,0.2,-0.2c0,0,-0.2,0,-0.3,-0.2c0,-0.1,0,-0.4,0,-0.5c0,-0.1,-0.2,-0.4,-0.2,-0.4c0.1,0,0.3,0,0.3,0c0,0,0,-0.1,-0.2,-0.2c-0.2,0,-0.4,-0.2,-0.4,-0.2L142,55.4c0,0,-0.1,-0.1,-0.2,-0.1c-0.2,-0.1,-0.2,-0.2,-0.1,-0.2c0.2,0,0.3,-0.1,0.3,-0.1c0,0,-0.3,-0.2,-0.4,-0.2c-0.1,0,-0.2,-0.2,-0.1,-0.2c0,0,0.1,-0.2,0.1,-0.2c0,0,-0.1,0,-0.2,-0.1C141.2,54.1,141.3,54,141.2,54c-0.1,-0.1,-0.2,-0.1,-0.4,-0.1c-0.1,-0.1,-0.1,-0.4,-0.1,-0.4c0,0,0,-0.3,0,-0.3c0,-0.1,-0.2,-0.4,0,-0.4c0,0,-0.3,0,-0.3,0.1c-0.1,0.1,0.1,0.4,-0.2,0.5c-0.2,0,-0.8,0.4,-1,0.5c-0.1,0,-0.5,0.1,-0.6,0.1c-0.1,0.1,-0.3,0.2,-0.3,0.2c0,0,0.5,0,0.8,0c0.2,0,0.5,-0.1,0.7,-0.2c0.2,-0.1,0.3,0,0.2,0.1c-0.1,0.1,-0.6,0.6,-0.7,0.7c-0.1,0.1,-0.4,0.3,-0.3,0.3c0.1,-0.1,1.1,-0.6,1.1,-0.7c0.1,-0.1,0.2,0.2,0.2,0.2c-0.1,0.1,-0.3,0.6,-0.6,0.7c-0.2,0.1,-1.2,0.6,-1.2,0.6c0,0,0.6,0,0.9,-0.2c0.4,-0.2,1,-0.8,1.1,-0.8c0,-0.1,0.1,0.3,0,0.5c0,0.2,-0.3,0.5,-0.3,0.5l0.5,-0.4c0,0,-0.2,0.7,-0.3,0.9c0,0.2,-0.2,0.5,-0.1,0.6c0,0.1,-0.3,0.5,-0.4,0.5c-0.1,0,-0.3,1.3,-1.2,1.9Z" class="g1_60" />
<path d="M142.6,60.1c0,0,0.1,0.3,0,0.5c0,0.2,-0.1,0.3,-0.1,0.4c0,0.2,-0.2,-0.2,-0.2,-0.2c-0.1,-0.1,0,-0.6,0,-0.8c0,-0.2,-0.1,-0.3,-0.1,-0.3Z" class="g1_60" />
<path d="M142.1,61.2c0.1,0,0.1,0.4,0.1,0.6c0,0.2,-0.3,0.5,-0.4,0.6c0,0,-0.1,-0.5,-0.1,-0.6c0,-0.1,0.4,-0.6,0.4,-0.6Z" class="g1_60" />
<path d="M142.7,60.1c0,0,0.2,0.2,0.1,0.4c-0.1,0.2,-0.2,0.7,-0.2,0.9c-0.1,0.3,-0.1,1,-0.2,1.1c0,0.1,-0.5,0.7,-0.5,0.8c-0.1,0.2,-0.2,0.7,-0.4,0.8c0.1,-0.3,0.2,-0.9,0.2,-0.9c0,0,0.5,-0.6,0.6,-0.8c0.1,-0.1,0.1,-0.9,0.2,-1.1c0,-0.2,0.4,-1.1,0.2,-1.2Z" class="g1_60" />
<path d="M137.2,59.1c0.1,0,1.7,-1,2.1,-1.4c0.3,-0.4,0.8,-0.9,0.8,-1c-0.1,0,0.1,-0.4,0.1,-0.4c0,0,-0.9,1.2,-1,1.2c-0.1,0.1,-2,1.6,-2,1.6Z" class="g1_60" />
<path d="M136,58.3c0.1,0,0.9,-0.7,1.1,-0.7c0.1,0,0.7,0,1.2,-0.2c0.6,-0.2,0.7,-0.5,1,-0.7c0.3,-0.2,0.6,-0.5,0.6,-0.5c0,0,-0.5,-0.1,-0.7,0c-0.2,0,-0.5,0.1,-0.7,0.3c-0.3,0.1,-1.1,0.4,-1.1,0.5c-0.1,0.1,-0.2,0.4,-0.3,0.4C137,57.5,136,58.3,136,58.3Z" class="g1_60" />
<path d="M133.8,58c0.1,0,1.2,-0.6,1.5,-0.7C135.6,57.2,136,57,136.1,57c0.2,0,0,0.1,-0.1,0.2c0,0.2,-1.3,1.1,-1.2,1.1c0.1,-0.1,1.4,-1.1,1.6,-1.1c0.3,-0.1,0,0.3,-0.2,0.5c-0.2,0.2,-0.9,0.7,-0.8,0.7c0,-0.1,1.5,-1.1,1.6,-1.4c0.2,-0.2,0.5,-0.6,0.7,-0.6c0.3,-0.1,0.8,-0.1,0.8,-0.1c0,0,-1,0,-0.9,-0.2c0.1,-0.1,0.7,-0.3,0.8,-0.3c0.2,-0.1,-0.2,0,-0.8,0c-0.5,0,-1.4,0.1,-1.7,0c-0.3,0,-0.7,0,-0.9,-0.1c-0.1,0,0,0.2,0.1,0.3c0,0,-0.7,0.4,-0.9,0.4c-0.2,0,-0.7,0.5,-1.2,0.6c-0.4,0.2,-1.3,0.8,-1.4,0.8c-0.1,0.1,1.2,-0.5,1.2,-0.4c0,0.2,-0.4,0.8,-0.8,1.3c-0.4,0.4,-1.6,1.2,-1.6,1.2c0,0,1.2,-0.5,1.9,-1.3c0.7,-0.7,0.9,-1.1,1,-1.1c0.2,-0.1,0.4,-0.4,0.6,-0.4c0.2,0,-0.1,0.5,-0.1,0.5l-1.1,1.1c0,0,1.7,-1.3,2,-1.5C135.1,57,135.3,57,135.3,57Z" class="g1_60" />
<path d="M137.2,55.6c0,0,1.2,-0.5,1.2,-0.6c0,-0.1,-0.1,-0.2,-0.4,-0.1c-0.3,0.1,-0.8,0.5,-1.5,0.5c0,0,1.1,-0.5,1.1,-0.5c0,0,0.4,-0.1,0.8,-0.2c0.3,0,0.9,-0.3,0.9,-0.3c0,0,-0.6,0.5,-0.8,0.7c-0.2,0.2,-0.2,0.4,-0.6,0.4c-0.4,0.1,-0.7,0.1,-0.7,0.1Z" class="g1_60" />
<g clip-path="url(#c0_60)">
<path d="M137,53.9c-0.1,0,0.6,0.1,1.3,0c0.6,-0.2,1,-0.5,1.2,-0.7c0.2,-0.1,0.9,-0.6,1,-0.6c0.1,-0.1,0.1,-0.1,0.3,0.1c0.3,0.1,1,0.5,1,0.8c0,0.3,0,0.7,0,0.7c0.1,0,0.1,-0.6,0.1,-0.6c0,0,0.3,0.4,0.4,0.9c0.4,-0.3,-0.7,-2.1,-1.7,-2.2c-1,-0.1,-0.7,0,-0.8,0c0,0,0,-0.2,0,-0.3c0.1,-0.1,-0.2,-0.1,-0.2,-0.1l0.3,-0.5c0,0,-0.5,0.4,-0.6,0.4c-0.1,-0.1,0,-0.3,0.1,-0.3c0.1,-0.1,0.3,-0.2,0.3,-0.2c0,0,-0.3,-0.1,-0.5,0.2c-0.1,0.2,-0.3,0.2,-0.3,0.2c-0.1,0.1,-0.2,0,-0.1,-0.2C139,51.4,139.3,51,139.3,51c0,0,-0.6,0.5,-0.6,0.4c0,-0.1,0.1,-0.5,-0.4,-1C137.8,50,137.6,49.7,137,49.6c-0.7,-0.2,-1.3,-0.1,-1.3,-0.1c-0.1,0,1,0.2,1.3,0.4c0.4,0.1,0.9,0.5,1.2,1.1c-0.2,-0.2,-0.6,-0.7,-1,-0.8c0.4,0.4,0.7,0.6,0.7,0.8c0.1,0.3,-0.4,-0.5,-1.4,-0.9c-1,-0.4,-1.7,-0.5,-2.1,-0.4c-0.4,0.1,-1,0.3,-1,0.3c0,0,1.4,0.1,2,0.3c0.6,0.2,0.6,0.3,0.8,0.3c0.2,-0.1,0.3,-0.1,0.6,0c0.2,0.1,0.9,0.3,0.5,0.4c-0.4,0,-1.5,-0.2,-2.1,-0.2c-0.5,0,-0.6,0,-0.6,0c0,0,0.8,0.3,1.2,0.3c0.4,0,1.3,0,1.6,0.1c0.2,0.1,0.7,0.5,0.4,0.5c-0.3,-0.1,-0.5,-0.1,-0.5,-0.1c0,0,0.6,0.3,0.6,0.4c-0.1,0.1,-0.6,-0.1,-0.8,-0.2c-0.2,-0.1,0.3,0.3,0.6,0.4c0.3,0.2,0.5,0.2,0.9,0.2c0.3,0.1,0.8,0.1,0.7,0.2c0,0.1,0.2,0.2,-0.6,0.1c-0.7,-0.1,-1.8,-0.6,-2.2,-0.6c-0.3,-0.1,-0.5,0,-0.5,0c0,0,0.6,0.2,0.9,0.3c0.2,0.1,1.2,0.4,1.4,0.5c0.2,0.1,-0.8,-0.1,-1.1,0c-0.2,0,-0.5,0,-0.5,0c0,0,1.2,0.2,1.2,0.2c0,0.1,-0.8,0.1,-1,0.1c-0.3,0,-1.3,-0.1,-1.4,-0.1c-0.1,0,1.8,0.3,1.7,0.3C137,53.5,135.7,54,133.6,53c-0.2,-0.2,0.7,0.6,1,0.7c0.3,0.1,1,0.2,1.3,0.2c0.4,-0.1,1.7,-0.4,1.9,-0.4c0.1,0.1,-0.4,0.5,-0.8,0.4Z" class="g1_60" />
</g>
<path d="M132.3,52.6c0.4,0.1,0.4,0.3,0.8,0.6c0.5,0.3,1.1,0.5,1.4,0.7c0.3,0.2,0.7,0.3,1,0.5c0.4,0.2,1,0.6,1.3,0.6c0.2,0,-0.4,0.2,-0.7,0.2c-0.4,0,-0.6,-0.3,-1,-0.3c-0.5,0,-0.8,-0.1,-1.5,0c-0.7,0.2,-1,0.2,-1.3,0.3c-0.3,0.1,-0.8,0.1,-1.2,0.1c-0.5,0,-0.7,0.1,-1.3,0c-0.6,0,-1.1,0,-1.4,0.1c-0.3,0.1,-0.8,0.5,-0.9,0.5c-0.1,0,-0.3,0,-0.4,0.1c-0.1,0.1,-0.5,0.5,-0.6,0.7c0,0.1,0.3,-0.7,0.6,-1c0.4,-0.2,0.8,-0.3,1.2,-0.5c0.3,-0.1,0.3,-0.3,1,-0.2c0.6,0.1,1.5,0,1.8,0c0.3,0,1.1,0.1,1.5,-0.1c0.4,-0.1,1.6,-0.2,1.7,-0.3c0.2,-0.1,-0.4,-0.1,-0.8,-0.1c-0.5,0,-1,0.1,-1.6,0c-0.6,0,1.4,0,1.5,-0.2c0.1,-0.2,0.1,-0.3,-0.1,-0.4c-0.1,0,-0.5,0,-0.8,-0.1c-0.4,0,-1.2,0,-1.8,0c-0.5,0,-1.3,0,-1.7,0.1c-0.4,0.2,-1.2,0.8,-1.3,0.9c-0.1,0,0.9,-1.1,1.5,-1.2c0.6,0,2.9,0,3.4,0.1c0.5,0,1.2,0.4,1.5,0.4c0.2,0,0.4,0,0,-0.2c-0.3,-0.1,-1.4,-0.5,-1.6,-0.5c-0.2,0,-1.3,-0.1,-1.7,0c-0.4,0.1,0.6,-0.2,1.1,-0.2c0.5,0,0.7,-0.1,0.5,-0.2c-0.1,-0.1,-0.5,0,-0.8,0c-0.3,0.1,-1,0,-1.3,0.1c-0.3,0.1,-1.2,0.3,-1.5,0.3c-0.2,0.1,-0.9,0.3,-0.8,0.3c0.1,-0.1,1.2,-0.6,1.6,-0.7c0.5,-0.1,1.9,-0.2,1.9,-0.2c0,0,-0.1,-0.2,-0.7,-0.2c-0.6,0.1,-1.6,0.3,-1.7,0.3c-0.1,0,0.6,-0.3,1,-0.4c0.4,0,1.2,-0.3,2.2,0.1Z" class="g1_60" />
<g clip-path="url(#c0_60)">
<path d="M133.3,49.7c0,0,-0.6,-0.2,-1.2,-0.1c-0.5,0,-0.8,0.1,-1.3,0.2c-0.4,0.2,-1.3,0.4,-1.5,0.6c-0.2,0.2,-1.2,0.6,-1.4,0.9c-0.3,0.2,-1,0.8,-0.9,0.8c0,0,1,-0.8,1.2,-0.8c0.2,0,0.2,0.2,-0.2,0.4c-0.5,0.2,-0.9,0.5,-0.9,0.5c0.1,0,0.4,0,0.3,0.1c-0.1,0.1,-1,0.8,-1.1,1.1c-0.2,0.2,0.8,-0.7,0.7,-0.5c0,0.2,-1,1.3,-1.1,1.5c-0.1,0.2,-0.2,0.8,-0.2,0.8c0,0,0.4,-0.7,0.5,-0.7c0.1,0,-0.1,0.5,-0.3,0.7c-0.1,0.2,-0.3,0.5,-0.3,0.7c-0.1,0.1,0,0.8,0.1,0.8c0,0,0.2,1.4,0.2,1.4c0,0,0.2,-0.4,0.3,-0.3c0.1,0,0,0.8,0,0.8c0,0.1,0,0.6,0,0.5c0,0,0.5,-0.3,0.4,-0.2c-0.1,0.2,-0.3,0.3,-0.4,0.5c0,0.1,0.1,0.1,0.2,0.2c0.1,0.2,-0.1,0.7,-0.1,0.7c0,0,0.1,0.2,0.2,0.2c0.1,-0.1,0.4,-0.3,0.4,-0.3c0.1,0,0,0.6,0,0.6c0,0,0,0.4,0.1,0.4c0.1,0.1,0.3,0.3,0.3,0.3c0,0.1,-0.1,0.5,0,0.6c0,0.1,0,0.4,0.2,0.6c0,0,0.2,0.5,0.1,0.7c0,0.3,0.1,0.5,0.1,0.5c0,0,0.7,0.7,0.7,1.1c0.1,0.3,0.2,0.7,0.2,0.7c0,0,-0.1,-0.8,-0.2,-1.1C128.3,64.4,128,63.7,128,63.2c0,-0.4,-0.1,-1.4,0,-1.6c0.2,-0.2,0.3,-0.2,0.3,-0.1c0.1,0.2,0.1,0.4,0.2,0.3c0.1,-0.1,0.2,-0.1,0.3,-0.2c0,-0.1,0.1,0.1,0.1,0.1c0,-0.1,0,-0.7,0,-0.7c0.1,-0.1,0.2,0.2,0.2,0.2c0,0,0,-0.4,0.1,-0.4c0,-0.1,0.4,-0.3,0.5,-0.3c0,-0.1,0.1,-0.4,0.1,-0.6c0,-0.1,0.4,-0.5,0.4,-0.5c0,0,-0.1,0.7,-0.2,0.9c-0.1,0.1,0,1.1,0.1,1c0,0,0.1,-1.5,0.3,-1.7c0.1,-0.3,0.6,-0.8,0.6,-0.8c0,0,-0.6,0.5,-0.6,0.5c0,-0.1,0.5,-0.6,0.5,-0.6c-0.1,0.1,-1.1,0.8,-1.1,0.8c0,0,-0.5,0.6,-0.5,0.7c-0.1,0.1,0,-0.4,0.1,-0.6c0.1,-0.2,-0.5,0.5,-0.6,0.6c-0.1,0,-0.2,0.1,-0.1,-0.4c0.1,-0.5,0.2,-0.8,0.2,-0.8c0,0,-0.4,0.3,-0.4,0.8c-0.1,0.4,-0.3,0.5,-0.3,0.5c0,0,0.1,-1.1,0.2,-1.3c0.1,-0.3,0.3,-0.7,0.3,-0.8c0,-0.1,0.1,-0.5,0.2,-0.5c0,-0.1,-0.5,0.2,-0.5,0.4c-0.1,0.2,-0.1,0.4,-0.3,0.6c-0.1,0.3,-0.5,0.7,-0.5,0.8c0,0.1,-0.2,-0.5,-0.1,-0.7c0,-0.2,0.2,-0.9,0.4,-1.1C128.1,57.5,128,58,128,58c0,0,0.3,-0.5,0.4,-0.6c0.2,0,0.4,-0.5,0.4,-0.5c0,0,-0.1,0.7,-0.1,0.6c0.1,-0.1,0.6,-0.6,0.6,-0.6c0,0,-0.4,0.9,-0.3,0.9c0.1,-0.1,0.6,-0.6,0.8,-0.8c0.2,-0.1,0.4,-0.1,0.4,-0.1c0,0,-0.8,1.1,-0.8,1.1c0.1,-0.1,1.1,-1.1,1.3,-1.1c0.1,-0.1,0.1,0.2,0.1,0.2c-0.1,0.1,-1.1,1.1,-1.1,1.1c0,-0.1,1.1,-0.7,1.3,-0.9c0.1,-0.2,0.2,-0.4,0.2,-0.4c0,0,-0.1,-0.3,0,-0.3c0.1,0,0.8,-0.5,1.6,-0.4c0.7,0.1,0.7,0,0.9,0c0.3,0,0.5,-0.1,0.5,-0.1c0,0,-0.7,-0.1,-1,-0.1c-0.3,0,0.6,-0.1,0.8,-0.1c0.2,-0.1,-1.2,0,-1.4,-0.1c-0.2,-0.1,-0.5,-0.2,-0.8,-0.1c-0.3,0.1,-0.6,0.3,-1,0.4c-0.3,0.1,-0.2,-0.1,-0.8,0c-0.6,0.1,-0.8,0.1,-1,0.3c-0.3,0.1,-0.7,0.4,-0.8,0.4c0,0.1,0.1,-0.2,0.3,-0.3c0.2,-0.1,-0.4,0.3,-1,0.4c-0.6,0.1,-0.6,0.4,-0.6,0.4c0,0,0,-0.4,0.1,-0.4c0,-0.1,0.3,-0.2,0.7,-0.4c0.4,-0.2,0.6,-0.5,1,-0.5c0.5,-0.1,1.3,-0.2,1.4,-0.2c0.1,0,-0.8,-0.1,-1.1,-0.1c-0.3,0,-1.3,0.5,-1.5,0.7c-0.1,0.1,-0.6,0.2,-0.7,0.3c0,0,-0.4,0.2,-0.4,0.2c0,0,-0.1,-0.7,0.3,-1c0.3,-0.2,0.5,-0.8,0.6,-0.8c0.2,0,0.5,-0.1,0.5,-0.1c0,0,-0.2,-0.1,-0.7,0c-0.6,0.2,0.3,-0.4,0.5,-0.7c0.2,-0.3,-0.4,-0.1,-0.4,-0.1c0,0,-0.5,0.4,-0.7,0.8c-0.1,0.3,0.2,-0.8,0.4,-1.1c0.3,-0.2,0.5,-0.5,0.7,-0.7c0.3,-0.3,0.9,-0.3,0.9,-0.3c0,0,0.7,-0.2,0.8,-0.4c0.1,-0.1,-0.5,0,-0.3,-0.1c0.2,-0.2,0.5,-0.3,0.3,-0.4c-0.3,0,-0.7,0.5,-1,0.6c-0.4,0.1,0.1,-0.3,0.1,-0.3c0,0,0.3,-0.6,1.2,-0.6c0.9,0,1.1,-0.3,1.2,-0.3c0.2,0,0.1,0.2,0.7,0.3c0.7,0.2,1.1,0.3,1.1,0.3c0,0,-0.6,-0.3,-0.5,-0.4c0.2,-0.1,0.9,0,1.3,0.1c0.5,0.1,1.3,0.3,1.5,0.3c0.3,0,-0.6,-0.4,-0.8,-0.5c-0.2,0,-1.4,-0.4,-1.7,-0.2c-0.3,0.1,-0.4,0.4,-0.8,0.3c-0.4,-0.2,-0.9,-0.5,-0.5,-0.6c0.4,-0.1,1,0,1.2,0c0.3,0,1.4,0.2,1.6,0.1C134.1,51,133,50.8,132.8,50.8c-0.1,0,-0.7,-0.1,-1.4,-0.1c-0.6,0,-1.1,0.2,-1.4,0.3c-0.2,0.2,-1.2,0.5,-1.3,0.6c-0.1,0.1,0.5,-0.7,0.8,-0.8c0.3,-0.1,0.9,-0.8,2,-0.9c1,-0.1,1.8,-0.2,1.8,-0.2Z" class="g1_60" />
</g>
<path d="M126.8,60.4c0,0,-0.3,0.4,-0.3,0.6c0,0.3,0.1,0.6,0.1,0.6c0,0,0,-0.3,0.1,-0.2c0.2,0,0.2,0.2,0.3,0.4c0.1,0.1,0.2,-0.2,0.1,-0.3C127,61.4,126.6,61,126.8,60.4Z" class="g1_60" />
<path d="M126.6,62.2c0.1,0.1,0.2,0.4,0.2,0.6c0,0.3,0.1,0.7,0.5,1.1c0.4,0.4,0.3,0.4,0.5,0.7c0.2,0.3,0.5,0.4,0.5,0.4c0,0,-0.3,-0.3,-0.4,-0.5c-0.1,-0.2,-0.9,-0.9,-1,-1.4c0,-0.6,-0.3,-0.9,-0.3,-0.9Z" class="g1_60" />
<g clip-path="url(#c0_60)">
<path d="M130.1,69.4c0,0,0.1,1,0.1,1.4c0,0.4,0,0.7,-0.1,1c-0.2,0.2,-0.4,0.6,-0.7,0.8c-0.3,0.1,-0.3,0,-0.6,0c-0.3,0.1,-0.6,0.2,-1,0.4c-0.4,0.2,-0.9,0.4,-1.2,0.5c-0.3,0.1,-0.5,0.3,-1,0.4c-0.5,0.1,-0.8,0.3,-1.3,0.5c-0.4,0.2,-2,1.1,-2.4,1.3c-0.5,0.2,2.3,-1.1,2.4,-1.1c0.2,0,-2.9,2.1,-2.1,1.8c0.7,-0.3,2.4,-1.5,2.9,-1.8c0.5,-0.3,0.8,-0.5,1,-0.5c0.2,0,-0.2,0.9,-0.6,1.2c-0.4,0.4,-1.1,1.9,-1,1.8c0.1,-0.1,2,-2.8,2.3,-3.1c0.4,-0.2,0.7,-0.4,0.7,-0.2c0.1,0.1,-0.1,0.9,0,1.3c0.1,0.5,0.8,2.3,0.8,2.5c0.1,0.2,-0.2,-1.1,-0.1,-1.6c0.1,-0.4,0.2,-0.9,0.3,-0.7c0.2,0.3,1.3,3.1,1.7,3.7c0.4,0.5,1.3,1.7,1.3,1.7c0,0,-3.1,-5,-2.9,-6.4c0.1,-1.5,0.5,-1.4,1,-1.5c0.4,-0.1,0.6,-0.3,0.8,-1c0.1,-0.3,-0.3,-2.4,-0.3,-2.4Z" class="g1_60" />
<path d="M140.2,70.6c0,0.3,0.5,1,1,1.2c0.6,0.3,1.4,0.3,1.6,0.4c0.3,0.2,1.1,0.5,1.7,0.6c0.6,0.2,2.5,0.5,2.5,0.5c0.1,0.1,-2.3,-0.2,-2.5,-0.1c-0.2,0.1,-0.2,0.6,-0.2,0.9c0,0.3,-0.2,-0.3,-0.4,-0.7c-0.2,-0.4,-0.6,-0.5,-0.6,-0.1c0,0.5,-0.4,1.5,-0.7,2.1c-0.3,0.6,-1.5,1.5,-1.8,2c-0.2,0.4,-0.9,0.7,-0.9,0.7c0,0,1.4,-2.5,1.7,-3.1c0.2,-0.6,0.7,-2.4,0.5,-2.6c-0.2,-0.1,-1.2,-0.3,-1.6,-0.8c-0.3,-0.4,-0.3,-1,-0.3,-1Z" class="g1_60" />
</g>
<path d="M134.2,149c-0.1,0,-0.1,-0.1,-0.1,-0.2c0,0,0,-0.1,0.1,-0.1c0.1,0,0.1,0.1,0.1,0.1c0,0.1,0,0.2,-0.1,0.2m0.5,-0.3c-0.2,-0.1,-0.7,-0.2,-0.9,-0.2c-0.2,0,-1.1,0.4,-1.1,0.4c0,0,0.2,0,0.2,0c0.1,0,0.5,-0.2,0.5,-0.2c0,0,-0.1,0.5,0.4,0.6c0.5,0.2,0.7,-0.2,0.8,-0.4c0,-0.3,0.8,0.4,1,0.5c-0.2,-0.1,-0.8,-0.6,-0.9,-0.7Z" class="g2_60" />
<path d="M140.5,149.2c0,0,-0.1,0,-0.1,-0.1c0,-0.1,0.1,-0.1,0.1,-0.1c0.1,0,0.2,0,0.2,0.1c0,0.1,-0.1,0.1,-0.2,0.1m1.3,0c0,0,-0.6,-0.3,-0.9,-0.4c-0.3,0,-0.6,0,-0.9,0.1c-0.4,0.2,-1.1,0.7,-1.1,0.7c0,0,0.8,-0.6,0.9,-0.4c0.1,0.2,0.1,0.5,0.7,0.4c0.6,0,0.4,-0.6,0.4,-0.6c0,0,0.1,0,0.4,0.1c0.2,0.1,0.5,0.1,0.5,0.1Z" class="g2_60" />
<path d="M136.2,148.3c0.1,0,0.3,-0.5,-0.2,-0.8c-0.5,-0.3,-1.6,-0.5,-2.1,-0.5c-0.4,0,-1.4,0.3,-1.6,0.4c-0.3,0.1,-0.6,0.4,-0.6,0.4c0,0,0.9,-0.2,1.3,-0.1c0.5,0,1,0,1.5,0.2c0.6,0.1,1.2,0.4,1.4,0.5c0.2,0,0.3,-0.1,0.3,-0.1Z" class="g2_60" />
<path d="M138.7,148.4c0,0,0.1,-0.9,0.9,-1c0.8,-0.1,1.9,-0.3,2.2,-0.2c0.4,0.1,0.9,0.5,1.1,0.9c-0.2,-0.1,-0.7,-0.3,-1.3,-0.3c-0.6,0.1,-1.6,0.4,-2,0.5c-0.4,0.1,-0.8,0.2,-0.9,0.1Z" class="g2_60" />
<path d="M135.6,152c-0.1,0,-0.5,0.5,-0.7,0.8c-0.1,0.3,0,0.6,0.1,0.6c0.1,0.1,0.5,0.2,0.8,0.2c0.4,0,0.8,0,1,0.1c0.1,0,0.3,0.2,0.4,0.3c0.1,0,0.5,0.1,0.7,0c0.1,-0.1,0.2,-0.3,0.4,-0.3c0.2,-0.1,0.5,-0.1,0.8,-0.1c0.3,0.1,0.4,0,0.3,0.1c0,0.1,-0.4,0.2,-0.5,0.2c-0.2,-0.1,-0.6,-0.1,-0.7,0c-0.1,0,-0.4,0.3,-0.5,0.3c-0.2,0,-0.4,0.1,-0.9,-0.2c-0.5,-0.4,-0.7,-0.2,-1.2,-0.3c-0.5,0,-0.8,-0.1,-0.9,-0.5c0,-0.6,0.9,-1.2,0.9,-1.2Z" class="g2_60" />
<path d="M138.9,151.7c0,0,0,0.3,0.1,0.5c0.1,0.2,0.5,0.3,0.6,0.5c0.1,0.1,0.1,0.3,0.1,0.4c0,0,0.1,-0.2,0,-0.5c-0.2,-0.3,-0.5,-0.4,-0.6,-0.6c-0.1,-0.1,-0.2,-0.3,-0.2,-0.3Z" class="g2_60" />
<path d="M133.4,155.1c0,0,1.8,-0.4,3,-0.4c0.8,0.1,1.5,0.1,1.7,0c0.2,0,2,0.5,2,0.5c0,0,0,0.2,-0.2,0.3c-0.1,0.1,-0.5,0.3,-0.7,0.3c-0.1,0,-1.3,-0.2,-1.7,-0.2c-0.3,0,-1,-0.1,-1.5,-0.1c-0.4,0,-1.3,0,-1.5,-0.1c-0.2,-0.1,-0.7,-0.2,-0.7,-0.2c0,0,0.5,0.3,0.9,0.6c0.4,0.2,1.8,0.7,2.2,0.8c0.3,0.1,0.7,0,1.1,-0.2c0.3,-0.1,0.2,-0.2,0.7,-0.3c0.5,-0.1,0.9,-0.3,0.9,-0.3c0.1,0,0.2,0.1,-0.1,0.4c-0.2,0.3,-0.5,1.2,-1.6,1.4c-1,0.2,-1.9,-0.1,-2.8,-0.7c-0.8,-0.6,-1,-1,-1,-1c0,0,1.3,1.2,2.1,1.3c0.9,0.2,1.2,0.1,1.7,0c0.5,-0.2,0.9,-0.5,0.9,-0.6c-0.1,-0.1,0,-0.1,-0.6,0.2c-0.7,0.2,-1.1,0.4,-1.9,0.2c-0.8,-0.2,-1.3,-0.7,-1.6,-0.8c-0.2,-0.2,-0.9,-0.8,-1.3,-1.1Z" class="g2_60" />
<path d="M140.1,154.1c0,0,0.4,0.5,0.5,0.8c0.2,0.2,0.2,0.4,0.2,0.4c0,0,0.2,-0.2,0.1,-0.4c-0.1,-0.2,-0.5,-0.7,-0.8,-0.8Z" class="g2_60" />
<path d="M133.9,153.8c0.1,-0.1,-0.7,0.7,-0.7,0.8c-0.1,0.1,0,1,0,1.1c0,0.2,-0.2,-1.1,0.7,-1.9Z" class="g2_60" />
<g clip-path="url(#c1_60)">
<path d="M129,147c-0.2,-0.1,0.3,0.3,0.4,0.3c0,0.1,0.1,-0.2,0,-0.4c0,-0.1,-0.2,-0.5,-0.3,-0.9c0,-0.5,0,-1.7,0,-2c-0.1,-0.3,0.1,-2.4,0.5,-3.1c0.4,-0.7,0.9,-1.3,1.1,-1.6c0.1,-0.3,1.7,-1.4,2.9,-1.8c1.3,-0.4,2.3,-0.6,3.8,-0.4c1.5,0.3,2.7,0.7,3.1,1.1c0.5,0.3,1.6,1.5,2,1.9c0.4,0.4,0.3,0.5,0.6,0.9c0.4,0.3,0.5,1.5,0.5,1.9c0.1,0.3,0,1.6,0,1.8c-0.1,0.2,-0.1,0.7,-0.2,1.1c-0.1,0.5,-0.2,1.1,-0.1,1.5c0,0.4,-0.3,1.2,-0.3,1.2c0,0,0,-1.1,0,-1.4c0,-0.2,0,-2.1,-0.1,-2.4c-0.1,-0.3,0,-0.7,0,-0.9c0,-0.3,0,-0.8,0,-1.1c-0.1,-0.2,-0.2,-1,-0.5,-1.3c-0.3,-0.3,-0.6,-0.5,-0.7,-0.4c-0.2,0.1,-0.1,0.2,-0.4,0.2C141,141.1,141,141,140.9,140.9c-0.1,0,-0.2,0,-0.4,0.1c-0.2,0.1,-0.5,0,-0.6,0c-0.2,0,-0.6,0.1,-0.7,0.1c-0.2,-0.1,-0.3,0,-0.6,-0.1c-0.4,-0.1,-0.6,0,-0.7,0c-0.1,-0.1,-0.1,-0.1,-0.3,-0.2c-0.2,-0.1,-0.4,0,-0.3,0.1c0.1,0,0.3,0.2,0.2,0.2c-0.2,0,-0.3,0,-0.6,-0.1c-0.3,-0.1,-0.3,0.1,-0.5,0.1c-0.1,0,-0.6,0.1,-0.8,0c-0.2,0,-0.5,0,-0.7,-0.1c-0.3,0,-0.6,0.2,-0.7,0.1C134,141,133.9,141,133.7,141c-0.1,0,-0.2,0,-0.4,0c-0.2,0,-0.5,-0.1,-0.5,-0.1c0,0,-0.1,0.2,-0.3,0.2c-0.2,0,-0.5,0,-0.6,0c-0.1,0,-0.3,0.2,-0.3,0.3c-0.1,0,-0.2,0,-0.3,0.2c-0.1,0.1,-0.1,0.5,-0.1,0.5l0,0.5c0,0,-0.2,0.7,-0.2,0.9c0,0.1,0.1,0.8,0.1,1c0,0.3,0,0.8,-0.1,0.9c-0.1,0.1,-0.4,0.4,-0.4,0.5c-0.1,0.1,-0.3,0.2,-0.3,0.4c0,0.1,-0.2,0.3,-0.2,0.4c-0.1,0.2,-0.3,1.2,-0.3,1.2c0,0,-0.7,-0.8,-0.8,-0.9Z" class="g2_60" />
</g>
<path d="M143.6,147.3c0,0,-0.1,0.4,-0.1,0.6c-0.1,0.1,-0.3,0.3,-0.3,0.6c-0.1,0.4,0,0.8,0.1,1.1c0,0.2,0,0.4,0,0.4c0,0,0.1,-1,0.1,-1.1c0,-0.1,0,-0.5,0,-0.7c0.1,-0.1,0.2,-0.6,0.2,-0.9Z" class="g2_60" />
<path d="M129.5,149.4c0.1,-0.1,0.1,-0.4,0,-0.5c0,0,-0.1,-0.1,-0.3,0.1c-0.1,0.2,-0.3,0.4,-0.4,0.6c-0.1,0.2,-0.2,0.4,0,0.5c0.1,0.2,0.4,0.3,0.5,0.5c0.2,0.3,0.6,0.4,0.6,0.4c0,0,-0.3,-0.4,-0.3,-0.6c-0.1,-0.1,-0.3,-0.1,-0.3,-0.3c-0.1,-0.2,-0.1,-0.4,0,-0.4c0,0.1,0.1,0.4,0.2,0.4c0,0,0,-0.7,0,-0.7Z" class="g2_60" />
<g clip-path="url(#c1_60)">
<path d="M128.5,149.1c0.1,-0.1,0.4,-1.1,0.4,-1.2c0,-0.1,0.2,0.4,0.3,0.5c0.2,0.1,0.4,0.3,0.3,0.2c0,-0.1,-0.3,-0.8,-0.4,-0.9c-0.1,-0.2,-0.4,-0.5,-0.5,-0.4c-0.2,0.2,-0.3,0.8,-0.3,1.1c0,0.2,0,0.5,0.1,0.8c0.1,0.2,0,0.4,0,0.8c0.1,0.3,0.2,0.9,0.3,1.1c0.1,0.3,0.1,0.4,0.2,0.8c0.2,0.3,0.4,0.4,0.6,0.4c0.2,0.1,0.6,0,0.6,0c0,0,0,0.6,0.1,0.8c0,0.1,0.3,2,0.6,3.1c0.2,0.7,-0.2,2.5,-0.2,2.5c0,0,-1.3,1.4,-2.8,1.9c-1.4,0.4,-3.7,1.7,-3.6,1.7c-0.2,0.1,1.9,-1,2.4,-0.8c0.5,0.2,1.1,-0.2,1.3,-0.4c0.2,-0.2,1.3,-0.8,1.4,-0.9c0.2,-0.1,0.9,-0.8,1,-0.9c0.2,-0.2,0.4,-0.3,0.5,-0.9c0.1,-0.6,0.2,-1.6,0.1,-2.1c-0.1,-0.6,-0.6,-2,-0.7,-4c0,-0.3,-0.6,-0.1,-0.9,-0.2c-0.3,-0.2,-0.3,-0.4,-0.4,-0.6c0,-0.3,0,-0.4,-0.1,-0.6c0,-0.3,-0.2,-0.6,-0.2,-0.8c0,-0.2,-0.1,-1,-0.1,-1Z" class="g2_60" />
<path d="M131.9,157.7c0.1,0,1.4,1.4,1.8,1.7c0.4,0.3,1.1,1,1.3,1.1c0.3,0.1,1.4,0.4,1.8,0.4c0.5,0,1,0,1.2,-0.1c0.3,-0.1,1.2,-0.8,1.4,-1.1c0.1,-0.2,1.2,-1.5,1.4,-1.8c0.2,-0.3,0.8,-0.9,1,-1.3c0.1,-0.5,0.7,-1.6,0.9,-2.4c0.2,-0.7,0.6,-3.8,0.6,-3.9c0.1,0.2,-0.2,3.7,-1,5.4c-0.8,1.7,-1.7,2.5,-1.7,2.7c0,0.1,-0.2,1.1,-0.1,1.3c0,0.3,-0.1,0.5,0.3,0.8c0.5,0.4,1,0.5,1.4,0.7c0.5,0.2,1.7,1.2,1.7,1.2c0,0,-2,-1.2,-2.2,-1.2c-0.1,0,-0.9,-0.3,-1.1,-0.4c-0.2,-0.1,-0.2,-0.8,-0.5,-0.8c-0.3,-0.1,-0.5,0,-0.6,0.1c-0.2,0.1,-0.8,0.5,-1.1,0.7c-0.2,0.2,-1.2,0.5,-2.1,0.3c-0.8,-0.1,-1.4,-0.2,-2.5,-1.3c-1.1,-1.2,-1.9,-2.1,-1.9,-2.1Z" class="g2_60" />
<path d="M126.6,161.1c0,0,1.7,1.4,2,1.6c0.3,0.3,1.5,1.3,1.9,1.7c0.4,0.4,2,1.5,3.8,1.7c1.8,0.2,3.1,0.2,4,0.1c0.9,-0.2,1.3,-0.5,1.3,-0.5c0,0,-0.8,0.7,-1.5,0.8c-0.7,0.1,-2.9,-0.1,-3.5,-0.2c-0.6,0,-1.7,-0.1,-3.1,-0.9c-1.3,-0.8,-3.5,-2.7,-3.9,-3.1c-0.5,-0.4,-0.9,-0.7,-1.5,-0.7c-0.5,0,-1.9,0.7,-1.9,0.7c0,0,2,-1.1,2.4,-1.2Z" class="g2_60" />
</g>
<path d="M132,148.9c0,0,0.5,-0.2,0.8,-0.3c0.4,-0.1,0.7,-0.1,1,-0.1c0.3,0,1.2,0.1,1.4,0.2c0.2,0,0.8,0.5,0.9,0.7c-0.7,-0.7,-1.1,-0.6,-1.4,-0.7c-0.4,-0.1,-1.2,-0.1,-1.7,0c-0.5,0,-1,0.2,-1,0.2Z" class="g2_60" />
<path d="M138.9,149.4c0,0,0.8,-0.6,1,-0.6c0.3,-0.1,1.1,-0.1,1.3,-0.1c0.3,0,0.8,0.3,0.8,0.3c0.1,0,-0.3,-0.1,-0.5,-0.1c-0.2,-0.1,-1,-0.1,-1.2,-0.1c-0.3,0,-1.3,0.5,-1.4,0.6Z" class="g2_60" />
<path d="M131.7,199.5c0,0,-0.1,0,-0.1,-0.1c0,0,0.1,-0.1,0.1,-0.1c0.1,0,0.1,0.1,0.1,0.1c0,0.1,0,0.1,-0.1,0.1m0.6,-0.2c-0.3,-0.1,-1,-0.1,-1.2,-0.1c-0.2,0,-0.7,0.2,-0.8,0.3c-0.2,0.1,-0.4,0.3,-0.5,0.3c-0.2,0.1,-0.2,0.1,-0.2,0.1c0,0,0.5,0,0.5,-0.1c0.1,0,0.2,-0.1,0.3,-0.1c0.2,0,0.4,0,0.4,0c0,0,-0.1,-0.2,0,-0.2c0.1,-0.1,0.2,-0.1,0.3,-0.1c0,0,-0.1,0.2,0.2,0.4c0.3,0.1,0.7,0,0.8,-0.1c0,-0.1,0,-0.3,0,-0.3c0,0,0.2,-0.2,0.8,0.4c0,0,-0.2,-0.5,-0.6,-0.5Z" class="g1_60" />
<path d="M137.7,199.1l0,-0.1c0,0,0,-0.1,0,-0.1c0.1,0,0.1,0.1,0.1,0.1c0,0.1,0,0.1,-0.1,0.1m1.5,0.1c-0.2,0,-0.1,-0.1,-0.5,-0.3c-0.3,-0.2,-1,-0.1,-1.6,-0.1c-0.5,0.1,-1,0.8,-1,0.8c0,0,0.7,-0.7,0.9,-0.5c0.1,0.1,0.2,0.3,0.7,0.3c0.5,0,0.5,-0.4,0.6,-0.4c0.1,0,0,0.1,0.1,0.1c0.1,0,0.3,0.1,0.5,0.1c0.1,0,0.6,0,0.6,0c0,0,-0.1,0,-0.3,0Z" class="g1_60" />
<path d="M133.1,198.3c0,0,-0.1,-0.3,-0.6,-0.3c-0.5,-0.1,-1.4,0,-1.8,0c-0.3,0,-1,0.2,-1.1,0.3c-0.1,0.1,-0.5,0.3,-0.5,0.3c0,0,1.1,-0.2,1.4,-0.2c0.3,0,1.2,0.1,1.7,0.1c0.4,0,0.8,0,0.9,-0.2Z" class="g1_60" />
<path d="M135.8,198.1c0,0,-0.1,-0.4,0.4,-0.4c0.5,-0.1,0.7,-0.2,1.3,-0.2c0.6,-0.1,0.7,-0.2,1,-0.2c0.3,0,1.2,0.3,1.4,0.4c0.2,0.1,-0.6,0,-0.7,0.1c-0.2,0,-1.4,0.2,-1.6,0.2c-0.3,0.1,-1.8,0.1,-1.8,0.1Z" class="g1_60" />
<path d="M132.7,202.7c0,0,0,0.5,0.1,0.6c0.1,0.1,0.2,0.2,0.6,0.2c0.3,0,0.4,0,0.5,0c0.1,0.1,0.2,0.3,0.2,0.3c0,0,-0.4,-0.2,-0.6,-0.2c-0.3,0.1,-0.5,0,-0.6,0c-0.1,-0.1,-0.4,-0.4,-0.2,-0.9Z" class="g1_60" />
<path d="M134.5,204c0,-0.1,0.5,0,0.6,-0.1c0.2,-0.1,0.4,-0.4,0.6,-0.5c0.2,0,0.2,-0.1,0.5,-0.1c0.3,0,0.4,-0.1,0.5,-0.2c0,-0.1,0.1,-0.4,0,-0.7c0.4,0.6,-0.2,0.9,-0.2,0.9c0,0,-0.5,0.1,-0.6,0.2c-0.2,0,-0.7,0.7,-1.4,0.5Z" class="g1_60" />
<path d="M136.6,201.9c0,0,0.4,0.2,0.6,0.3c0.1,0.2,0.3,0.6,0.5,0.8c0.1,0.2,0.3,0.4,0.6,0.5c0.3,0.2,0.4,0.3,0.5,0.4c0.1,0.1,0.2,0.7,0.2,0.7c0,0,0.2,-0.8,-0.1,-1c-0.3,-0.2,-0.6,-0.1,-0.9,-0.4c-0.6,-0.5,-0.5,-1.1,-1.4,-1.3Z" class="g1_60" />
<path d="M132,202.8c0,0,-0.4,0.6,-0.5,0.8c-0.2,0.2,-0.5,0.4,-0.7,0.5c-0.1,0.2,-0.3,0.5,-0.1,1c0.1,-0.6,0.1,-0.7,0.2,-0.8c0.2,-0.2,0.5,-0.4,0.7,-0.6c0.2,-0.2,0.3,-0.8,0.4,-0.9Z" class="g1_60" />
<path d="M131.6,205.1c0,0,0.7,0,0.9,-0.1c0.3,0,0.8,-0.1,1.1,-0.1c0.3,0,0.8,0.1,1,0.1c0.2,0,0.4,-0.1,0.6,-0.1c0.1,0,1.8,-0.1,2.1,-0.1c0.3,0,0.8,-0.1,0.8,-0.1c0,0,-0.1,0.3,-0.2,0.5c-0.2,0.2,-0.9,2.1,-2.6,2.3c-1.8,0.1,-2.6,-0.9,-2.6,-0.9c0,0,0.6,0.5,1.4,0.6c0.8,0.2,1.4,0,1.8,-0.2c0.5,-0.1,0.7,-0.3,0.8,-0.6c0.1,-0.2,0.2,0.2,-2,0.3c-0.3,0,2.3,-0.5,2.8,-1.3c0.1,-0.2,0,-0.5,0,-0.5c0,0,-0.8,0,-1.1,0.1c-0.4,0.1,-0.8,0.2,-1,0.2c-0.1,0,-0.8,0,-1.1,0c-0.2,0,-0.8,-0.1,-1.1,-0.1c-0.2,0,-0.8,0.1,-0.8,0.1l0,0.3c0,0,0.2,0.4,0.5,0.6c0.3,0.1,0.9,0.5,1,0.5c0.1,0,-1.1,-0.4,-1.7,-0.8c-0.5,-0.4,-0.6,-0.7,-0.6,-0.7Z" class="g1_60" />
<path d="M138.7,196.9c0,0,1.1,-0.8,1.2,-1.4c0.1,-0.6,0.2,-0.2,0.2,-0.2c0,0,-0.1,0.5,0,0.7c0,0.2,0.1,0.5,0.5,0.9c0.3,0.5,0.3,0.4,0.4,0.9c0.1,0.5,0,1.2,0.1,1.6c0.1,0.3,0.2,0.7,0.2,1c0,0.3,-0.2,1.1,-0.2,1.5c-0.1,0.3,-0.2,2,-0.2,2.3c-0.1,0.3,-0.3,1.6,-0.8,2.3c-0.5,0.7,-2.1,2.8,-2.7,3.1c-0.7,0.3,-1.4,0.5,-1.8,0.5c-0.5,0,-1.3,0,-1.5,-0.1c-0.3,-0.1,-1,-0.2,-1.3,-0.5c-0.3,-0.3,-1.1,-1.1,-1.6,-1.6c-0.5,-0.5,-1.1,-1.3,-1.1,-1.2c0,0,1.1,1.3,1.2,1.6c0.2,0.2,0.9,1,1.4,1.4c0.5,0.4,1.1,0.7,2,0.8c1,0,1.9,-0.1,2.2,-0.2c0.4,-0.2,1.2,-0.9,1.5,-1.4c0.3,-0.4,1.5,-1.9,1.7,-2.2c0.3,-0.3,0.8,-1.5,0.9,-2.3c0.1,-0.8,0.2,-2.2,0.2,-2.6c0,-0.4,0.1,-0.8,0.3,-1c0.1,-0.1,0.1,-0.8,0.1,-1c0.1,-0.3,-0.1,-0.5,0,-0.7c0.1,-0.3,0.3,-0.4,0.3,-0.4c0,0,0,-1.1,0.1,-1.1c0,-0.1,0.2,0,0.2,0c0,0,-0.2,-0.6,-0.1,-0.7c0,-0.1,0.4,0.4,0.4,0.4c0,0,-0.1,-0.5,0,-0.4c0.1,0,0.4,0.1,0.4,0.1c0,0,-0.3,-0.4,-0.4,-0.5c0,-0.1,-0.1,-0.2,0,-0.3c0.1,-0.1,0.3,-0.1,0.3,-0.1c0,0,-0.3,-0.2,-0.3,-0.3c0,-0.2,0.1,-0.3,0.1,-0.3c0,0,-0.1,0,-0.2,-0.1c-0.1,0,-0.1,-0.3,-0.1,-0.3l0.3,0.2c0,0,-0.3,-0.3,-0.2,-0.3c0,-0.1,0.1,-0.1,0.1,-0.1c0,0,-0.3,-0.1,-0.3,-0.2c0,-0.1,0.2,-0.2,0.2,-0.2c0,0,-0.2,0,-0.3,-0.2c0,-0.1,0,-0.4,0,-0.5c0,-0.1,-0.2,-0.4,-0.2,-0.4c0.1,0,0.3,0,0.3,0c0,0,0,-0.1,-0.2,-0.2c-0.2,0,-0.4,-0.2,-0.4,-0.2l0.4,-0.1c0,0,-0.1,-0.1,-0.2,-0.1c-0.2,-0.1,-0.2,-0.2,-0.1,-0.2c0.2,0,0.3,-0.1,0.3,-0.1c0,0,-0.3,-0.2,-0.4,-0.2c-0.1,0,-0.2,-0.2,-0.1,-0.2c0,0,0.1,-0.2,0.1,-0.2c0,0,-0.1,0,-0.2,-0.1c-0.2,-0.2,-0.1,-0.3,-0.2,-0.3c-0.1,-0.1,-0.2,-0.1,-0.4,-0.1c-0.1,-0.1,-0.1,-0.4,-0.1,-0.4c0,0,0,-0.3,0,-0.3c0,-0.1,-0.2,-0.4,0,-0.4c0,0,-0.3,0,-0.3,0.1c-0.1,0.1,0.1,0.4,-0.2,0.5c-0.2,0,-0.8,0.4,-1,0.5c-0.1,0,-0.5,0.1,-0.6,0.1c-0.1,0.1,-0.3,0.2,-0.3,0.2c0,0,0.5,0,0.8,0c0.2,0,0.5,-0.1,0.7,-0.2c0.2,-0.1,0.3,0,0.2,0.1c-0.1,0.1,-0.6,0.6,-0.7,0.7c-0.1,0.1,-0.4,0.3,-0.3,0.3c0.1,-0.1,1.1,-0.6,1.1,-0.7c0.1,-0.1,0.2,0.2,0.2,0.2c-0.1,0.1,-0.3,0.6,-0.6,0.7c-0.2,0.1,-1.2,0.6,-1.2,0.6c0,0,0.6,0,0.9,-0.2c0.4,-0.2,1,-0.8,1.1,-0.8c0,-0.1,0.1,0.3,0,0.5c0,0.2,-0.3,0.5,-0.3,0.5l0.5,-0.4c0,0,-0.2,0.7,-0.3,0.9c0,0.2,-0.2,0.5,-0.1,0.6c0,0.1,-0.3,0.5,-0.4,0.5c-0.1,0,-0.3,1.3,-1.2,1.9Z" class="g1_60" />
<path d="M142.6,197.6c0,0,0.1,0.3,0,0.5c0,0.2,-0.1,0.3,-0.1,0.4c0,0.2,-0.2,-0.2,-0.2,-0.2c-0.1,-0.1,0,-0.6,0,-0.8c0,-0.2,-0.1,-0.3,-0.1,-0.3Z" class="g1_60" />
<path d="M142.1,198.7c0.1,0,0.1,0.4,0.1,0.6c0,0.2,-0.3,0.5,-0.4,0.6c0,0,-0.1,-0.5,-0.1,-0.6c0,-0.1,0.4,-0.6,0.4,-0.6Z" class="g1_60" />
<path d="M142.7,197.6c0,0,0.2,0.2,0.1,0.4c-0.1,0.2,-0.2,0.7,-0.2,0.9c-0.1,0.3,-0.1,1,-0.2,1.1c0,0.1,-0.5,0.7,-0.5,0.8c-0.1,0.2,-0.2,0.7,-0.4,0.8c0.1,-0.3,0.2,-0.9,0.2,-0.9c0,0,0.5,-0.6,0.6,-0.8c0.1,-0.1,0.1,-0.9,0.2,-1.1c0,-0.2,0.4,-1.1,0.2,-1.2Z" class="g1_60" />
<path d="M137.2,196.6c0.1,0,1.7,-1,2.1,-1.4c0.3,-0.4,0.8,-0.9,0.8,-1c-0.1,0,0.1,-0.4,0.1,-0.4c0,0,-0.9,1.2,-1,1.2c-0.1,0.1,-2,1.6,-2,1.6Z" class="g1_60" />
<path d="M136,195.8c0.1,0,0.9,-0.7,1.1,-0.7c0.1,0,0.7,0,1.2,-0.2c0.6,-0.2,0.7,-0.5,1,-0.7c0.3,-0.2,0.6,-0.5,0.6,-0.5c0,0,-0.5,-0.1,-0.7,0c-0.2,0,-0.5,0.1,-0.7,0.3c-0.3,0.1,-1.1,0.4,-1.1,0.5c-0.1,0.1,-0.2,0.4,-0.3,0.4c-0.1,0.1,-1.1,0.9,-1.1,0.9Z" class="g1_60" />
<path d="M133.8,195.5c0.1,0,1.2,-0.6,1.5,-0.7c0.3,-0.1,0.7,-0.3,0.8,-0.3c0.2,0,0,0.1,-0.1,0.2c0,0.2,-1.3,1.1,-1.2,1.1c0.1,-0.1,1.4,-1.1,1.6,-1.1c0.3,-0.1,0,0.3,-0.2,0.5c-0.2,0.2,-0.9,0.7,-0.8,0.7c0,-0.1,1.5,-1.1,1.6,-1.4c0.2,-0.2,0.5,-0.6,0.7,-0.6c0.3,-0.1,0.8,-0.1,0.8,-0.1c0,0,-1,0,-0.9,-0.2c0.1,-0.1,0.7,-0.3,0.8,-0.3c0.2,-0.1,-0.2,0,-0.8,0c-0.5,0,-1.4,0.1,-1.7,0c-0.3,0,-0.7,0,-0.9,-0.1c-0.1,0,0,0.2,0.1,0.3c0,0,-0.7,0.4,-0.9,0.4c-0.2,0,-0.7,0.5,-1.2,0.6c-0.4,0.2,-1.3,0.8,-1.4,0.8c-0.1,0.1,1.2,-0.5,1.2,-0.4c0,0.2,-0.4,0.8,-0.8,1.3c-0.4,0.4,-1.6,1.2,-1.6,1.2c0,0,1.2,-0.5,1.9,-1.3c0.7,-0.7,0.9,-1.1,1,-1.1c0.2,-0.1,0.4,-0.4,0.6,-0.4c0.2,0,-0.1,0.5,-0.1,0.5l-1.1,1.1c0,0,1.7,-1.3,2,-1.5c0.4,-0.2,0.6,-0.2,0.6,-0.2Z" class="g1_60" />
<path d="M137.2,193.1c0,0,1.2,-0.5,1.2,-0.6c0,-0.1,-0.1,-0.2,-0.4,-0.1c-0.3,0.1,-0.8,0.5,-1.5,0.5c0,0,1.1,-0.5,1.1,-0.5c0,0,0.4,-0.1,0.8,-0.2c0.3,0,0.9,-0.3,0.9,-0.3c0,0,-0.6,0.5,-0.8,0.7c-0.2,0.2,-0.2,0.4,-0.6,0.4c-0.4,0.1,-0.7,0.1,-0.7,0.1Z" class="g1_60" />
<g clip-path="url(#c2_60)">
<path d="M137,191.4c-0.1,0,0.6,0.1,1.3,0c0.6,-0.2,1,-0.5,1.2,-0.7c0.2,-0.1,0.9,-0.6,1,-0.6c0.1,-0.1,0.1,-0.1,0.3,0.1c0.3,0.1,1,0.5,1,0.8c0,0.3,0,0.7,0,0.7c0.1,0,0.1,-0.6,0.1,-0.6c0,0,0.3,0.4,0.4,0.9c0.4,-0.3,-0.7,-2.1,-1.7,-2.2c-1,-0.1,-0.7,0,-0.8,0c0,0,0,-0.2,0,-0.3c0.1,-0.1,-0.2,-0.1,-0.2,-0.1l0.3,-0.5c0,0,-0.5,0.4,-0.6,0.4c-0.1,-0.1,0,-0.3,0.1,-0.3c0.1,-0.1,0.3,-0.2,0.3,-0.2c0,0,-0.3,-0.1,-0.5,0.2c-0.1,0.2,-0.3,0.2,-0.3,0.2c-0.1,0.1,-0.2,0,-0.1,-0.2c0.2,-0.1,0.5,-0.5,0.5,-0.5c0,0,-0.6,0.5,-0.6,0.4c0,-0.1,0.1,-0.5,-0.4,-1c-0.5,-0.4,-0.7,-0.7,-1.3,-0.8c-0.7,-0.2,-1.3,-0.1,-1.3,-0.1c-0.1,0,1,0.2,1.3,0.4c0.4,0.1,0.9,0.5,1.2,1.1c-0.2,-0.2,-0.6,-0.7,-1,-0.8c0.4,0.4,0.7,0.6,0.7,0.8c0.1,0.3,-0.4,-0.5,-1.4,-0.9c-1,-0.4,-1.7,-0.5,-2.1,-0.4c-0.4,0.1,-1,0.3,-1,0.3c0,0,1.4,0.1,2,0.3c0.6,0.2,0.6,0.3,0.8,0.3c0.2,-0.1,0.3,-0.1,0.6,0c0.2,0.1,0.9,0.3,0.5,0.4c-0.4,0,-1.5,-0.2,-2.1,-0.2c-0.5,0,-0.6,0,-0.6,0c0,0,0.8,0.3,1.2,0.3c0.4,0,1.3,0,1.6,0.1c0.2,0.1,0.7,0.5,0.4,0.5c-0.3,-0.1,-0.5,-0.1,-0.5,-0.1c0,0,0.6,0.3,0.6,0.4c-0.1,0.1,-0.6,-0.1,-0.8,-0.2c-0.2,-0.1,0.3,0.3,0.6,0.4c0.3,0.2,0.5,0.2,0.9,0.2c0.3,0.1,0.8,0.1,0.7,0.2c0,0.1,0.2,0.2,-0.6,0.1c-0.7,-0.1,-1.8,-0.6,-2.2,-0.6c-0.3,-0.1,-0.5,0,-0.5,0c0,0,0.6,0.2,0.9,0.3c0.2,0.1,1.2,0.4,1.4,0.5c0.2,0.1,-0.8,-0.1,-1.1,0c-0.2,0,-0.5,0,-0.5,0c0,0,1.2,0.2,1.2,0.2c0,0.1,-0.8,0.1,-1,0.1c-0.3,0,-1.3,-0.1,-1.4,-0.1c-0.1,0,1.8,0.3,1.7,0.3c-0.2,0.1,-1.5,0.6,-3.6,-0.4c-0.2,-0.2,0.7,0.6,1,0.7c0.3,0.1,1,0.2,1.3,0.2c0.4,-0.1,1.7,-0.4,1.9,-0.4c0.1,0.1,-0.4,0.5,-0.8,0.4Z" class="g1_60" />
</g>
<path d="M132.3,190.1c0.4,0.1,0.4,0.3,0.8,0.6c0.5,0.3,1.1,0.5,1.4,0.7c0.3,0.2,0.7,0.3,1,0.5c0.4,0.2,1,0.6,1.3,0.6c0.2,0,-0.4,0.2,-0.7,0.2c-0.4,0,-0.6,-0.3,-1,-0.3c-0.5,0,-0.8,-0.1,-1.5,0c-0.7,0.2,-1,0.2,-1.3,0.3c-0.3,0.1,-0.8,0.1,-1.2,0.1c-0.5,0,-0.7,0.1,-1.3,0c-0.6,0,-1.1,0,-1.4,0.1c-0.3,0.1,-0.8,0.5,-0.9,0.5c-0.1,0,-0.3,0,-0.4,0.1c-0.1,0.1,-0.5,0.5,-0.6,0.7c0,0.1,0.3,-0.7,0.6,-1c0.4,-0.2,0.8,-0.3,1.2,-0.5c0.3,-0.1,0.3,-0.3,1,-0.2c0.6,0.1,1.5,0,1.8,0c0.3,0,1.1,0.1,1.5,-0.1c0.4,-0.1,1.6,-0.2,1.7,-0.3c0.2,-0.1,-0.4,-0.1,-0.8,-0.1c-0.5,0,-1,0.1,-1.6,0c-0.6,0,1.4,0,1.5,-0.2c0.1,-0.2,0.1,-0.3,-0.1,-0.4c-0.1,0,-0.5,0,-0.8,-0.1c-0.4,0,-1.2,0,-1.8,0c-0.5,0,-1.3,0,-1.7,0.1c-0.4,0.2,-1.2,0.8,-1.3,0.9c-0.1,0,0.9,-1.1,1.5,-1.2c0.6,0,2.9,0,3.4,0.1c0.5,0,1.2,0.4,1.5,0.4c0.2,0,0.4,0,0,-0.2c-0.3,-0.1,-1.4,-0.5,-1.6,-0.5c-0.2,0,-1.3,-0.1,-1.7,0c-0.4,0.1,0.6,-0.2,1.1,-0.2c0.5,0,0.7,-0.1,0.5,-0.2c-0.1,-0.1,-0.5,0,-0.8,0c-0.3,0.1,-1,0,-1.3,0.1c-0.3,0.1,-1.2,0.3,-1.5,0.3c-0.2,0.1,-0.9,0.3,-0.8,0.3c0.1,-0.1,1.2,-0.6,1.6,-0.7c0.5,-0.1,1.9,-0.2,1.9,-0.2c0,0,-0.1,-0.2,-0.7,-0.2c-0.6,0.1,-1.6,0.3,-1.7,0.3c-0.1,0,0.6,-0.3,1,-0.4c0.4,0,1.2,-0.3,2.2,0.1Z" class="g1_60" />
<g clip-path="url(#c2_60)">
<path d="M133.3,187.2c0,0,-0.6,-0.2,-1.2,-0.1c-0.5,0,-0.8,0.1,-1.3,0.2c-0.4,0.2,-1.3,0.4,-1.5,0.6c-0.2,0.2,-1.2,0.6,-1.4,0.9c-0.3,0.2,-1,0.8,-0.9,0.8c0,0,1,-0.8,1.2,-0.8c0.2,0,0.2,0.2,-0.2,0.4c-0.5,0.2,-0.9,0.5,-0.9,0.5c0.1,0,0.4,0,0.3,0.1c-0.1,0.1,-1,0.8,-1.1,1.1c-0.2,0.2,0.8,-0.7,0.7,-0.5c0,0.2,-1,1.3,-1.1,1.5c-0.1,0.2,-0.2,0.8,-0.2,0.8c0,0,0.4,-0.7,0.5,-0.7c0.1,0,-0.1,0.5,-0.3,0.7c-0.1,0.2,-0.3,0.5,-0.3,0.7c-0.1,0.1,0,0.8,0.1,0.8c0,0,0.2,1.4,0.2,1.4c0,0,0.2,-0.4,0.3,-0.3c0.1,0,0,0.8,0,0.8c0,0.1,0,0.6,0,0.5c0,0,0.5,-0.3,0.4,-0.2c-0.1,0.2,-0.3,0.3,-0.4,0.5c0,0.1,0.1,0.1,0.2,0.2c0.1,0.2,-0.1,0.7,-0.1,0.7c0,0,0.1,0.2,0.2,0.2c0.1,-0.1,0.4,-0.3,0.4,-0.3c0.1,0,0,0.6,0,0.6c0,0,0,0.4,0.1,0.4c0.1,0.1,0.3,0.3,0.3,0.3c0,0.1,-0.1,0.5,0,0.6c0,0.1,0,0.4,0.2,0.6c0,0,0.2,0.5,0.1,0.7c0,0.3,0.1,0.5,0.1,0.5c0,0,0.7,0.7,0.7,1.1c0.1,0.3,0.2,0.7,0.2,0.7c0,0,-0.1,-0.8,-0.2,-1.1c-0.1,-0.2,-0.4,-0.9,-0.4,-1.4c0,-0.4,-0.1,-1.4,0,-1.6c0.2,-0.2,0.3,-0.2,0.3,-0.1c0.1,0.2,0.1,0.4,0.2,0.3c0.1,-0.1,0.2,-0.1,0.3,-0.2c0,-0.1,0.1,0.1,0.1,0.1c0,-0.1,0,-0.7,0,-0.7c0.1,-0.1,0.2,0.2,0.2,0.2c0,0,0,-0.4,0.1,-0.4c0,-0.1,0.4,-0.3,0.5,-0.3c0,-0.1,0.1,-0.4,0.1,-0.6c0,-0.1,0.4,-0.5,0.4,-0.5c0,0,-0.1,0.7,-0.2,0.9c-0.1,0.1,0,1.1,0.1,1c0,0,0.1,-1.5,0.3,-1.7c0.1,-0.3,0.6,-0.8,0.6,-0.8c0,0,-0.6,0.5,-0.6,0.5c0,-0.1,0.5,-0.6,0.5,-0.6c-0.1,0.1,-1.1,0.8,-1.1,0.8c0,0,-0.5,0.6,-0.5,0.7c-0.1,0.1,0,-0.4,0.1,-0.6c0.1,-0.2,-0.5,0.5,-0.6,0.6c-0.1,0,-0.2,0.1,-0.1,-0.4c0.1,-0.5,0.2,-0.8,0.2,-0.8c0,0,-0.4,0.3,-0.4,0.8c-0.1,0.4,-0.3,0.5,-0.3,0.5c0,0,0.1,-1.1,0.2,-1.3c0.1,-0.3,0.3,-0.7,0.3,-0.8c0,-0.1,0.1,-0.5,0.2,-0.5c0,-0.1,-0.5,0.2,-0.5,0.4c-0.1,0.2,-0.1,0.4,-0.3,0.6c-0.1,0.3,-0.5,0.7,-0.5,0.8c0,0.1,-0.2,-0.5,-0.1,-0.7c0,-0.2,0.2,-0.9,0.4,-1.1c0.2,-0.2,0.1,0.3,0.1,0.3c0,0,0.3,-0.5,0.4,-0.6c0.2,0,0.4,-0.5,0.4,-0.5c0,0,-0.1,0.7,-0.1,0.6c0.1,-0.1,0.6,-0.6,0.6,-0.6c0,0,-0.4,0.9,-0.3,0.9c0.1,-0.1,0.6,-0.6,0.8,-0.8c0.2,-0.1,0.4,-0.1,0.4,-0.1c0,0,-0.8,1.1,-0.8,1.1c0.1,-0.1,1.1,-1.1,1.3,-1.1c0.1,-0.1,0.1,0.2,0.1,0.2c-0.1,0.1,-1.1,1.1,-1.1,1.1c0,-0.1,1.1,-0.7,1.3,-0.9c0.1,-0.2,0.2,-0.4,0.2,-0.4c0,0,-0.1,-0.3,0,-0.3c0.1,0,0.8,-0.5,1.6,-0.4c0.7,0.1,0.7,0,0.9,0c0.3,0,0.5,-0.1,0.5,-0.1c0,0,-0.7,-0.1,-1,-0.1c-0.3,0,0.6,-0.1,0.8,-0.1c0.2,-0.1,-1.2,0,-1.4,-0.1c-0.2,-0.1,-0.5,-0.2,-0.8,-0.1c-0.3,0.1,-0.6,0.3,-1,0.4c-0.3,0.1,-0.2,-0.1,-0.8,0c-0.6,0.1,-0.8,0.1,-1,0.3c-0.3,0.1,-0.7,0.4,-0.8,0.4c0,0.1,0.1,-0.2,0.3,-0.3c0.2,-0.1,-0.4,0.3,-1,0.4c-0.6,0.1,-0.6,0.4,-0.6,0.4c0,0,0,-0.4,0.1,-0.4c0,-0.1,0.3,-0.2,0.7,-0.4c0.4,-0.2,0.6,-0.5,1,-0.5c0.5,-0.1,1.3,-0.2,1.4,-0.2c0.1,0,-0.8,-0.1,-1.1,-0.1c-0.3,0,-1.3,0.5,-1.5,0.7c-0.1,0.1,-0.6,0.2,-0.7,0.3c0,0,-0.4,0.2,-0.4,0.2c0,0,-0.1,-0.7,0.3,-1c0.3,-0.2,0.5,-0.8,0.6,-0.8c0.2,0,0.5,-0.1,0.5,-0.1c0,0,-0.2,-0.1,-0.7,0c-0.6,0.2,0.3,-0.4,0.5,-0.7c0.2,-0.3,-0.4,-0.1,-0.4,-0.1c0,0,-0.5,0.4,-0.7,0.8c-0.1,0.3,0.2,-0.8,0.4,-1.1c0.3,-0.2,0.5,-0.5,0.7,-0.7c0.3,-0.3,0.9,-0.3,0.9,-0.3c0,0,0.7,-0.2,0.8,-0.4c0.1,-0.1,-0.5,0,-0.3,-0.1c0.2,-0.2,0.5,-0.3,0.3,-0.4c-0.3,0,-0.7,0.5,-1,0.6c-0.4,0.1,0.1,-0.3,0.1,-0.3c0,0,0.3,-0.6,1.2,-0.6c0.9,0,1.1,-0.3,1.2,-0.3c0.2,0,0.1,0.2,0.7,0.3c0.7,0.2,1.1,0.3,1.1,0.3c0,0,-0.6,-0.3,-0.5,-0.4c0.2,-0.1,0.9,0,1.3,0.1c0.5,0.1,1.3,0.3,1.5,0.3c0.3,0,-0.6,-0.4,-0.8,-0.5c-0.2,0,-1.4,-0.4,-1.7,-0.2c-0.3,0.1,-0.4,0.4,-0.8,0.3c-0.4,-0.2,-0.9,-0.5,-0.5,-0.6c0.4,-0.1,1,0,1.2,0c0.3,0,1.4,0.2,1.6,0.1c0.2,-0.1,-0.9,-0.3,-1.1,-0.3c-0.1,0,-0.7,-0.1,-1.4,-0.1c-0.6,0,-1.1,0.2,-1.4,0.3c-0.2,0.2,-1.2,0.5,-1.3,0.6c-0.1,0.1,0.5,-0.7,0.8,-0.8c0.3,-0.1,0.9,-0.8,2,-0.9c1,-0.1,1.8,-0.2,1.8,-0.2Z" class="g1_60" />
</g>
<path d="M126.8,197.9c0,0,-0.3,0.4,-0.3,0.6c0,0.3,0.1,0.6,0.1,0.6c0,0,0,-0.3,0.1,-0.2c0.2,0,0.2,0.2,0.3,0.4c0.1,0.1,0.2,-0.2,0.1,-0.3c-0.1,-0.1,-0.5,-0.5,-0.3,-1.1Z" class="g1_60" />
<path d="M126.6,199.7c0.1,0.1,0.2,0.4,0.2,0.6c0,0.3,0.1,0.7,0.5,1.1c0.4,0.4,0.3,0.4,0.5,0.7c0.2,0.3,0.5,0.4,0.5,0.4c0,0,-0.3,-0.3,-0.4,-0.5c-0.1,-0.2,-0.9,-0.9,-1,-1.4c0,-0.6,-0.3,-0.9,-0.3,-0.9Z" class="g1_60" />
<g clip-path="url(#c2_60)">
<path d="M130.1,206.9c0,0,0.1,1,0.1,1.4c0,0.4,0,0.7,-0.1,1c-0.2,0.2,-0.4,0.6,-0.7,0.8c-0.3,0.1,-0.3,0,-0.6,0c-0.3,0.1,-0.6,0.2,-1,0.4c-0.4,0.2,-0.9,0.4,-1.2,0.5c-0.3,0.1,-0.5,0.3,-1,0.4c-0.5,0.1,-0.8,0.3,-1.3,0.5c-0.4,0.2,-2,1.1,-2.4,1.3c-0.5,0.2,2.3,-1.1,2.4,-1.1c0.2,0,-2.9,2.1,-2.1,1.8c0.7,-0.3,2.4,-1.5,2.9,-1.8c0.5,-0.3,0.8,-0.5,1,-0.5c0.2,0,-0.2,0.9,-0.6,1.2c-0.4,0.4,-1.1,1.9,-1,1.8c0.1,-0.1,2,-2.8,2.3,-3.1c0.4,-0.2,0.7,-0.4,0.7,-0.2c0.1,0.1,-0.1,0.9,0,1.3c0.1,0.5,0.8,2.3,0.8,2.5c0.1,0.2,-0.2,-1.1,-0.1,-1.6c0.1,-0.4,0.2,-0.9,0.3,-0.7c0.2,0.3,1.3,3.1,1.7,3.7c0.4,0.5,1.3,1.7,1.3,1.7c0,0,-3.1,-5,-2.9,-6.4c0.1,-1.5,0.5,-1.4,1,-1.5c0.4,-0.1,0.6,-0.3,0.8,-1c0.1,-0.3,-0.3,-2.4,-0.3,-2.4Z" class="g1_60" />
<path d="M140.2,208.1c0,0.3,0.5,1,1,1.2c0.6,0.3,1.4,0.3,1.6,0.4c0.3,0.2,1.1,0.5,1.7,0.6c0.6,0.2,2.5,0.5,2.5,0.5c0.1,0.1,-2.3,-0.2,-2.5,-0.1c-0.2,0.1,-0.2,0.6,-0.2,0.9c0,0.3,-0.2,-0.3,-0.4,-0.7c-0.2,-0.4,-0.6,-0.5,-0.6,-0.1c0,0.5,-0.4,1.5,-0.7,2.1c-0.3,0.6,-1.5,1.5,-1.8,2c-0.2,0.4,-0.9,0.7,-0.9,0.7c0,0,1.4,-2.5,1.7,-3.1c0.2,-0.6,0.7,-2.4,0.5,-2.6c-0.2,-0.1,-1.2,-0.3,-1.6,-0.8c-0.3,-0.4,-0.3,-1,-0.3,-1Z" class="g1_60" />
</g>
<path d="M134.2,249.8c-0.1,0,-0.1,-0.1,-0.1,-0.1c0,-0.1,0,-0.1,0.1,-0.1c0.1,0,0.1,0,0.1,0.1c0,0,0,0.1,-0.1,0.1m0.5,-0.3c-0.2,-0.1,-0.7,-0.2,-0.9,-0.2c-0.2,0,-1.1,0.4,-1.1,0.4c0,0,0.2,0.1,0.2,0c0.1,0,0.5,-0.1,0.5,-0.1c0,0,-0.1,0.4,0.4,0.6c0.5,0.1,0.7,-0.3,0.8,-0.5c0,-0.2,0.8,0.4,1,0.6c-0.2,-0.2,-0.8,-0.7,-0.9,-0.8Z" class="g2_60" />
<path d="M140.5,250c0,0,-0.1,0,-0.1,-0.1c0,0,0.1,-0.1,0.1,-0.1c0.1,0,0.2,0.1,0.2,0.1c0,0.1,-0.1,0.1,-0.2,0.1m1.3,0c0,0,-0.6,-0.3,-0.9,-0.3c-0.3,-0.1,-0.6,-0.1,-0.9,0.1c-0.4,0.1,-1.1,0.7,-1.1,0.7c0,0,0.8,-0.7,0.9,-0.5c0.1,0.2,0.1,0.5,0.7,0.5c0.6,-0.1,0.4,-0.7,0.4,-0.7c0,0,0.1,0.1,0.4,0.1c0.2,0.1,0.5,0.1,0.5,0.1Z" class="g2_60" />
<path d="M136.2,249.1c0.1,0,0.3,-0.5,-0.2,-0.8c-0.5,-0.3,-1.6,-0.4,-2.1,-0.4c-0.4,0,-1.4,0.2,-1.6,0.3c-0.3,0.1,-0.6,0.5,-0.6,0.5c0,0,0.9,-0.2,1.3,-0.2c0.5,0.1,1,0,1.5,0.2c0.6,0.1,1.2,0.4,1.4,0.5c0.2,0.1,0.3,-0.1,0.3,-0.1Z" class="g2_60" />
<path d="M138.7,249.2c0,0,0.1,-0.9,0.9,-1c0.8,-0.1,1.9,-0.3,2.2,-0.2c0.4,0.2,0.9,0.5,1.1,0.9c-0.2,-0.1,-0.7,-0.3,-1.3,-0.2c-0.6,0,-1.6,0.3,-2,0.4c-0.4,0.2,-0.8,0.2,-0.9,0.1Z" class="g2_60" />
<path d="M135.6,252.9c-0.1,0,-0.5,0.4,-0.7,0.7c-0.1,0.3,0,0.6,0.1,0.7c0.1,0.1,0.5,0.2,0.8,0.1c0.4,0,0.8,0.1,1,0.1c0.1,0,0.3,0.2,0.4,0.3c0.1,0.1,0.5,0.1,0.7,0c0.1,-0.1,0.2,-0.2,0.4,-0.3c0.2,0,0.5,0,0.8,0c0.3,0,0.4,0,0.3,0c0,0.1,-0.4,0.2,-0.5,0.2c-0.2,0,-0.6,0,-0.7,0c-0.1,0,-0.4,0.3,-0.5,0.3c-0.2,0,-0.4,0.1,-0.9,-0.2c-0.5,-0.3,-0.7,-0.2,-1.2,-0.3c-0.5,0,-0.8,-0.1,-0.9,-0.5c0,-0.6,0.9,-1.1,0.9,-1.1Z" class="g2_60" />
<path d="M138.9,252.6c0,0,0,0.2,0.1,0.4c0.1,0.2,0.5,0.3,0.6,0.5c0.1,0.1,0.1,0.4,0.1,0.4c0,0,0.1,-0.2,0,-0.5c-0.2,-0.3,-0.5,-0.4,-0.6,-0.5c-0.1,-0.2,-0.2,-0.3,-0.2,-0.3Z" class="g2_60" />
<path d="M133.4,255.9c0,0,1.8,-0.4,3,-0.4c0.8,0.2,1.5,0.1,1.7,0.1c0.2,-0.1,2,0.4,2,0.4c0,0,0,0.2,-0.2,0.3c-0.1,0.1,-0.5,0.3,-0.7,0.3c-0.1,0,-1.3,-0.1,-1.7,-0.1c-0.3,-0.1,-1,-0.2,-1.5,-0.2c-0.4,0.1,-1.3,0,-1.5,-0.1c-0.2,0,-0.7,-0.1,-0.7,-0.1c0,0,0.5,0.3,0.9,0.5c0.4,0.3,1.8,0.7,2.2,0.8c0.3,0.2,0.7,0,1.1,-0.2c0.3,-0.1,0.2,-0.1,0.7,-0.2c0.5,-0.1,0.9,-0.4,0.9,-0.4c0.1,0,0.2,0.1,-0.1,0.4c-0.2,0.3,-0.5,1.2,-1.6,1.4c-1,0.2,-1.9,0,-2.8,-0.7c-0.8,-0.6,-1,-1,-1,-1c0,0,1.3,1.2,2.1,1.4c0.9,0.1,1.2,0,1.7,-0.1c0.5,-0.1,0.9,-0.4,0.9,-0.5c-0.1,-0.1,0,-0.1,-0.6,0.1c-0.7,0.2,-1.1,0.4,-1.9,0.2c-0.8,-0.2,-1.3,-0.6,-1.6,-0.8c-0.2,-0.1,-0.9,-0.8,-1.3,-1.1Z" class="g2_60" />
<path d="M140.1,255c0,-0.1,0.4,0.4,0.5,0.7c0.2,0.2,0.2,0.4,0.2,0.4c0,0,0.2,-0.2,0.1,-0.4c-0.1,-0.1,-0.5,-0.6,-0.8,-0.7Z" class="g2_60" />
<path d="M133.9,254.6c0.1,-0.1,-0.7,0.7,-0.7,0.8c-0.1,0.1,0,1,0,1.2c0,0.1,-0.2,-1.1,0.7,-2Z" class="g2_60" />
<g clip-path="url(#c3_60)">
<path d="M129,247.8c-0.2,0,0.3,0.3,0.4,0.3c0,0.1,0.1,-0.2,0,-0.3c0,-0.1,-0.2,-0.6,-0.3,-1c0,-0.4,0,-1.7,0,-2c-0.1,-0.3,0.1,-2.3,0.5,-3.1c0.4,-0.7,0.9,-1.3,1.1,-1.6c0.1,-0.2,1.7,-1.4,2.9,-1.8c1.3,-0.3,2.3,-0.6,3.8,-0.3c1.5,0.3,2.7,0.7,3.1,1c0.5,0.4,1.6,1.6,2,2c0.4,0.3,0.3,0.5,0.6,0.8c0.4,0.4,0.5,1.6,0.5,1.9c0.1,0.3,0,1.7,0,1.8c-0.1,0.2,-0.1,0.7,-0.2,1.2c-0.1,0.5,-0.2,1.1,-0.1,1.4c0,0.4,-0.3,1.2,-0.3,1.2c0,0,0,-1.1,0,-1.3c0,-0.3,0,-2.1,-0.1,-2.5c-0.1,-0.3,0,-0.6,0,-0.9c0,-0.3,0,-0.8,0,-1c-0.1,-0.3,-0.2,-1.1,-0.5,-1.4c-0.3,-0.3,-0.6,-0.5,-0.7,-0.4c-0.2,0.1,-0.1,0.2,-0.4,0.2c-0.3,-0.1,-0.3,-0.2,-0.4,-0.2c-0.1,-0.1,-0.2,0,-0.4,0.1c-0.2,0.1,-0.5,0,-0.6,0c-0.2,0,-0.6,0,-0.7,0c-0.2,0,-0.3,0.1,-0.6,0c-0.4,-0.1,-0.6,0,-0.7,-0.1c-0.1,-0.1,-0.1,0,-0.3,-0.1c-0.2,-0.1,-0.4,-0.1,-0.3,0c0.1,0.1,0.3,0.3,0.2,0.2c-0.2,0,-0.3,0,-0.6,-0.1c-0.3,0,-0.3,0.2,-0.5,0.1c-0.1,0,-0.6,0.2,-0.8,0.1c-0.2,-0.1,-0.5,-0.1,-0.7,-0.1c-0.3,-0.1,-0.6,0.1,-0.7,0c-0.2,0,-0.3,-0.1,-0.5,-0.1c-0.1,0,-0.2,0,-0.4,0.1c-0.2,0,-0.5,-0.1,-0.5,-0.1c0,0,-0.1,0.1,-0.3,0.1c-0.2,0,-0.5,0,-0.6,0c-0.1,0,-0.3,0.3,-0.3,0.3c-0.1,0,-0.2,0.1,-0.3,0.2c-0.1,0.2,-0.1,0.6,-0.1,0.6l0,0.5c0,0,-0.2,0.7,-0.2,0.8c0,0.2,0.1,0.8,0.1,1.1c0,0.2,0,0.7,-0.1,0.8c-0.1,0.1,-0.4,0.4,-0.4,0.5c-0.1,0.1,-0.3,0.2,-0.3,0.4c0,0.2,-0.2,0.3,-0.2,0.5c-0.1,0.1,-0.3,1.1,-0.3,1.1c0,0,-0.7,-0.8,-0.8,-0.9Z" class="g2_60" />
</g>
<path d="M143.6,248.2c0,0,-0.1,0.3,-0.1,0.5c-0.1,0.2,-0.3,0.3,-0.3,0.7c-0.1,0.4,0,0.8,0.1,1c0,0.2,0,0.4,0,0.4c0,0,0.1,-0.9,0.1,-1.1c0,-0.1,0,-0.5,0,-0.6c0.1,-0.2,0.2,-0.7,0.2,-0.9Z" class="g2_60" />
<path d="M129.5,250.3c0.1,-0.1,0.1,-0.4,0,-0.5c0,-0.1,-0.1,-0.1,-0.3,0.1c-0.1,0.2,-0.3,0.3,-0.4,0.5c-0.1,0.2,-0.2,0.4,0,0.6c0.1,0.1,0.4,0.2,0.5,0.4c0.2,0.3,0.6,0.4,0.6,0.4c0,0,-0.3,-0.4,-0.3,-0.5c-0.1,-0.2,-0.3,-0.1,-0.3,-0.3c-0.1,-0.3,-0.1,-0.5,0,-0.4c0,0,0.1,0.3,0.2,0.3c0,0,0,-0.6,0,-0.6Z" class="g2_60" />
<g clip-path="url(#c3_60)">
<path d="M128.5,249.9c0.1,-0.1,0.4,-1,0.4,-1.1c0,-0.2,0.2,0.3,0.3,0.5c0.2,0.1,0.4,0.3,0.3,0.1c0,-0.1,-0.3,-0.8,-0.4,-0.9c-0.1,-0.1,-0.4,-0.5,-0.5,-0.3c-0.2,0.1,-0.3,0.7,-0.3,1c0,0.3,0,0.5,0.1,0.8c0.1,0.2,0,0.5,0,0.8c0.1,0.3,0.2,0.9,0.3,1.2c0.1,0.2,0.1,0.3,0.2,0.7c0.2,0.4,0.4,0.4,0.6,0.5c0.2,0,0.6,-0.1,0.6,-0.1c0,0,0,0.6,0.1,0.8c0,0.2,0.3,2,0.6,3.2c0.2,0.6,-0.2,2.4,-0.2,2.4c0,0,-1.3,1.5,-2.8,1.9c-1.4,0.5,-3.7,1.7,-3.6,1.8c-0.2,0,1.9,-1.1,2.4,-0.9c0.5,0.2,1.1,-0.2,1.3,-0.4c0.2,-0.1,1.3,-0.7,1.4,-0.9c0.2,-0.1,0.9,-0.7,1,-0.9c0.2,-0.1,0.4,-0.3,0.5,-0.9c0.1,-0.6,0.2,-1.6,0.1,-2.1c-0.1,-0.5,-0.6,-1.9,-0.7,-4c0,-0.2,-0.6,0,-0.9,-0.2c-0.3,-0.1,-0.3,-0.4,-0.4,-0.6c0,-0.3,0,-0.4,-0.1,-0.6c0,-0.2,-0.2,-0.5,-0.2,-0.8c0,-0.2,-0.1,-1,-0.1,-1Z" class="g2_60" />
<path d="M131.9,258.5c0.1,0.1,1.4,1.4,1.8,1.7c0.4,0.4,1.1,1,1.3,1.2c0.3,0.1,1.4,0.4,1.8,0.4c0.5,-0.1,1,0,1.2,-0.1c0.3,-0.1,1.2,-0.9,1.4,-1.1c0.1,-0.3,1.2,-1.5,1.4,-1.9c0.2,-0.3,0.8,-0.8,1,-1.3c0.1,-0.4,0.7,-1.6,0.9,-2.3c0.2,-0.8,0.6,-3.8,0.6,-3.9c0.1,0.1,-0.2,3.6,-1,5.4c-0.8,1.7,-1.7,2.5,-1.7,2.6c0,0.1,-0.2,1.1,-0.1,1.4c0,0.2,-0.1,0.4,0.3,0.8c0.5,0.3,1,0.4,1.4,0.6c0.5,0.3,1.7,1.3,1.7,1.3c0,0,-2,-1.3,-2.2,-1.3c-0.1,0,-0.9,-0.2,-1.1,-0.4c-0.2,-0.1,-0.2,-0.7,-0.5,-0.8c-0.3,0,-0.5,0,-0.6,0.2c-0.2,0.1,-0.8,0.5,-1.1,0.6c-0.2,0.2,-1.2,0.5,-2.1,0.4c-0.8,-0.1,-1.4,-0.3,-2.5,-1.4c-1.1,-1.1,-1.9,-2.1,-1.9,-2.1Z" class="g2_60" />
<path d="M126.6,262c0,0,1.7,1.3,2,1.6c0.3,0.3,1.5,1.2,1.9,1.6c0.4,0.4,2,1.5,3.8,1.7c1.8,0.2,3.1,0.3,4,0.1c0.9,-0.1,1.3,-0.5,1.3,-0.5c0,0,-0.8,0.7,-1.5,0.8c-0.7,0.1,-2.9,-0.1,-3.5,-0.1c-0.6,-0.1,-1.7,-0.1,-3.1,-0.9c-1.3,-0.9,-3.5,-2.8,-3.9,-3.2c-0.5,-0.4,-0.9,-0.7,-1.5,-0.7c-0.5,0,-1.9,0.8,-1.9,0.8c0,0,2,-1.1,2.4,-1.2Z" class="g2_60" />
</g>
<path d="M132,249.7c0,0,0.5,-0.2,0.8,-0.3c0.4,-0.1,0.7,-0.1,1,-0.1c0.3,0,1.2,0.1,1.4,0.2c0.2,0,0.8,0.5,0.9,0.7c-0.7,-0.7,-1.1,-0.6,-1.4,-0.7c-0.4,-0.1,-1.2,-0.1,-1.7,0c-0.5,0,-1,0.2,-1,0.2Z" class="g2_60" />
<path d="M138.9,250.2c0,0,0.8,-0.5,1,-0.6c0.3,-0.1,1.1,-0.1,1.3,-0.1c0.3,0.1,0.8,0.3,0.8,0.3c0.1,0,-0.3,-0.1,-0.5,-0.1c-0.2,0,-1,0,-1.2,0c-0.3,0,-1.3,0.4,-1.4,0.5Z" class="g2_60" />
<path d="M131.7,337c0,0,-0.1,0,-0.1,-0.1c0,0,0.1,-0.1,0.1,-0.1c0.1,0,0.1,0.1,0.1,0.1c0,0.1,0,0.1,-0.1,0.1m0.6,-0.2c-0.3,-0.1,-1,-0.1,-1.2,-0.1c-0.2,0,-0.7,0.2,-0.8,0.3c-0.2,0.1,-0.4,0.3,-0.5,0.3c-0.2,0.1,-0.2,0.1,-0.2,0.1c0,0,0.5,0,0.5,-0.1c0.1,0,0.2,-0.1,0.3,-0.1c0.2,0,0.4,0,0.4,0c0,0,-0.1,-0.2,0,-0.2c0.1,-0.1,0.2,-0.1,0.3,-0.1c0,0,-0.1,0.2,0.2,0.4c0.3,0.1,0.7,0,0.8,-0.1c0,-0.1,0,-0.3,0,-0.3c0,0,0.2,-0.2,0.8,0.4c0,0,-0.2,-0.5,-0.6,-0.5Z" class="g1_60" />
<path d="M137.7,336.6l0,-0.1c0,0,0,-0.1,0,-0.1c0.1,0,0.1,0.1,0.1,0.1c0,0.1,0,0.1,-0.1,0.1m1.5,0.1c-0.2,0,-0.1,-0.1,-0.5,-0.3c-0.3,-0.2,-1,-0.1,-1.6,-0.1c-0.5,0.1,-1,0.8,-1,0.8c0,0,0.7,-0.7,0.9,-0.5c0.1,0.1,0.2,0.3,0.7,0.3c0.5,0,0.5,-0.4,0.6,-0.4c0.1,0,0,0.1,0.1,0.1c0.1,0,0.3,0.1,0.5,0.1c0.1,0,0.6,0,0.6,0c0,0,-0.1,0,-0.3,0Z" class="g1_60" />
<path d="M133.1,335.8c0,0,-0.1,-0.3,-0.6,-0.3c-0.5,-0.1,-1.4,0,-1.8,0c-0.3,0,-1,0.2,-1.1,0.3c-0.1,0.1,-0.5,0.3,-0.5,0.3c0,0,1.1,-0.2,1.4,-0.2c0.3,0,1.2,0.1,1.7,0.1c0.4,0,0.8,0,0.9,-0.2Z" class="g1_60" />
<path d="M135.8,335.6c0,0,-0.1,-0.4,0.4,-0.4c0.5,-0.1,0.7,-0.2,1.3,-0.2c0.6,-0.1,0.7,-0.2,1,-0.2c0.3,0,1.2,0.3,1.4,0.4c0.2,0.1,-0.6,0,-0.7,0.1c-0.2,0,-1.4,0.2,-1.6,0.2c-0.3,0.1,-1.8,0.1,-1.8,0.1Z" class="g1_60" />
<path d="M132.7,340.2c0,0,0,0.5,0.1,0.6c0.1,0.1,0.2,0.2,0.6,0.2c0.3,0,0.4,0,0.5,0c0.1,0.1,0.2,0.3,0.2,0.3c0,0,-0.4,-0.2,-0.6,-0.2c-0.3,0.1,-0.5,0,-0.6,0c-0.1,-0.1,-0.4,-0.4,-0.2,-0.9Z" class="g1_60" />
<path d="M134.5,341.5c0,-0.1,0.5,0,0.6,-0.1c0.2,-0.1,0.4,-0.4,0.6,-0.5c0.2,0,0.2,-0.1,0.5,-0.1c0.3,0,0.4,-0.1,0.5,-0.2c0,-0.1,0.1,-0.4,0,-0.7c0.4,0.6,-0.2,0.9,-0.2,0.9c0,0,-0.5,0.1,-0.6,0.2c-0.2,0,-0.7,0.7,-1.4,0.5Z" class="g1_60" />
<path d="M136.6,339.4c0,0,0.4,0.2,0.6,0.3c0.1,0.2,0.3,0.6,0.5,0.8c0.1,0.2,0.3,0.4,0.6,0.5c0.3,0.2,0.4,0.3,0.5,0.4c0.1,0.1,0.2,0.7,0.2,0.7c0,0,0.2,-0.8,-0.1,-1c-0.3,-0.2,-0.6,-0.1,-0.9,-0.4c-0.6,-0.5,-0.5,-1.1,-1.4,-1.3Z" class="g1_60" />
<path d="M132,340.3c0,0,-0.4,0.6,-0.5,0.8c-0.2,0.2,-0.5,0.4,-0.7,0.5c-0.1,0.2,-0.3,0.5,-0.1,1c0.1,-0.6,0.1,-0.7,0.2,-0.8c0.2,-0.2,0.5,-0.4,0.7,-0.6c0.2,-0.2,0.3,-0.8,0.4,-0.9Z" class="g1_60" />
<path d="M131.6,342.6c0,0,0.7,0,0.9,-0.1c0.3,0,0.8,-0.1,1.1,-0.1c0.3,0,0.8,0.1,1,0.1c0.2,0,0.4,-0.1,0.6,-0.1c0.1,0,1.8,-0.1,2.1,-0.1c0.3,0,0.8,-0.1,0.8,-0.1c0,0,-0.1,0.3,-0.2,0.5c-0.2,0.2,-0.9,2.1,-2.6,2.3c-1.8,0.1,-2.6,-0.9,-2.6,-0.9c0,0,0.6,0.5,1.4,0.6c0.8,0.2,1.4,0,1.8,-0.2c0.5,-0.1,0.7,-0.3,0.8,-0.6c0.1,-0.2,0.2,0.2,-2,0.3c-0.3,0,2.3,-0.5,2.8,-1.3c0.1,-0.2,0,-0.5,0,-0.5c0,0,-0.8,0,-1.1,0.1c-0.4,0.1,-0.8,0.2,-1,0.2c-0.1,0,-0.8,0,-1.1,0c-0.2,0,-0.8,-0.1,-1.1,-0.1c-0.2,0,-0.8,0.1,-0.8,0.1l0,0.3c0,0,0.2,0.4,0.5,0.6c0.3,0.1,0.9,0.5,1,0.5c0.1,0,-1.1,-0.4,-1.7,-0.8c-0.5,-0.4,-0.6,-0.7,-0.6,-0.7Z" class="g1_60" />
<path d="M138.7,334.4c0,0,1.1,-0.8,1.2,-1.4c0.1,-0.6,0.2,-0.2,0.2,-0.2c0,0,-0.1,0.5,0,0.7c0,0.2,0.1,0.5,0.5,0.9c0.3,0.5,0.3,0.4,0.4,0.9c0.1,0.5,0,1.2,0.1,1.6c0.1,0.3,0.2,0.7,0.2,1c0,0.3,-0.2,1.1,-0.2,1.5c-0.1,0.3,-0.2,2,-0.2,2.3c-0.1,0.3,-0.3,1.6,-0.8,2.3c-0.5,0.7,-2.1,2.8,-2.7,3.1c-0.7,0.3,-1.4,0.5,-1.8,0.5c-0.5,0,-1.3,0,-1.5,-0.1c-0.3,-0.1,-1,-0.2,-1.3,-0.5c-0.3,-0.3,-1.1,-1.1,-1.6,-1.6c-0.5,-0.5,-1.1,-1.3,-1.1,-1.2c0,0,1.1,1.3,1.2,1.6c0.2,0.2,0.9,1,1.4,1.4c0.5,0.4,1.1,0.7,2,0.8c1,0,1.9,-0.1,2.2,-0.2c0.4,-0.2,1.2,-0.9,1.5,-1.4c0.3,-0.4,1.5,-1.9,1.7,-2.2c0.3,-0.3,0.8,-1.5,0.9,-2.3c0.1,-0.8,0.2,-2.2,0.2,-2.6c0,-0.4,0.1,-0.8,0.3,-1c0.1,-0.1,0.1,-0.8,0.1,-1c0.1,-0.3,-0.1,-0.5,0,-0.7c0.1,-0.3,0.3,-0.4,0.3,-0.4c0,0,0,-1.1,0.1,-1.1c0,-0.1,0.2,0,0.2,0c0,0,-0.2,-0.6,-0.1,-0.7c0,-0.1,0.4,0.4,0.4,0.4c0,0,-0.1,-0.5,0,-0.4c0.1,0,0.4,0.1,0.4,0.1c0,0,-0.3,-0.4,-0.4,-0.5c0,-0.1,-0.1,-0.2,0,-0.3c0.1,-0.1,0.3,-0.1,0.3,-0.1c0,0,-0.3,-0.2,-0.3,-0.3c0,-0.2,0.1,-0.3,0.1,-0.3c0,0,-0.1,0,-0.2,-0.1c-0.1,0,-0.1,-0.3,-0.1,-0.3l0.3,0.2c0,0,-0.3,-0.3,-0.2,-0.3c0,-0.1,0.1,-0.1,0.1,-0.1c0,0,-0.3,-0.1,-0.3,-0.2c0,-0.1,0.2,-0.2,0.2,-0.2c0,0,-0.2,0,-0.3,-0.2c0,-0.1,0,-0.4,0,-0.5c0,-0.1,-0.2,-0.4,-0.2,-0.4c0.1,0,0.3,0,0.3,0c0,0,0,-0.1,-0.2,-0.2c-0.2,0,-0.4,-0.2,-0.4,-0.2l0.4,-0.1c0,0,-0.1,-0.1,-0.2,-0.1c-0.2,-0.1,-0.2,-0.2,-0.1,-0.2c0.2,0,0.3,-0.1,0.3,-0.1c0,0,-0.3,-0.2,-0.4,-0.2c-0.1,0,-0.2,-0.2,-0.1,-0.2c0,0,0.1,-0.2,0.1,-0.2c0,0,-0.1,0,-0.2,-0.1c-0.2,-0.2,-0.1,-0.3,-0.2,-0.3c-0.1,-0.1,-0.2,-0.1,-0.4,-0.1c-0.1,-0.1,-0.1,-0.4,-0.1,-0.4c0,0,0,-0.3,0,-0.3c0,-0.1,-0.2,-0.4,0,-0.4c0,0,-0.3,0,-0.3,0.1c-0.1,0.1,0.1,0.4,-0.2,0.5c-0.2,0,-0.8,0.4,-1,0.5c-0.1,0,-0.5,0.1,-0.6,0.1c-0.1,0.1,-0.3,0.2,-0.3,0.2c0,0,0.5,0,0.8,0c0.2,0,0.5,-0.1,0.7,-0.2c0.2,-0.1,0.3,0,0.2,0.1c-0.1,0.1,-0.6,0.6,-0.7,0.7c-0.1,0.1,-0.4,0.3,-0.3,0.3c0.1,-0.1,1.1,-0.6,1.1,-0.7c0.1,-0.1,0.2,0.2,0.2,0.2c-0.1,0.1,-0.3,0.6,-0.6,0.7c-0.2,0.1,-1.2,0.6,-1.2,0.6c0,0,0.6,0,0.9,-0.2c0.4,-0.2,1,-0.8,1.1,-0.8c0,-0.1,0.1,0.3,0,0.5c0,0.2,-0.3,0.5,-0.3,0.5l0.5,-0.4c0,0,-0.2,0.7,-0.3,0.9c0,0.2,-0.2,0.5,-0.1,0.6c0,0.1,-0.3,0.5,-0.4,0.5c-0.1,0,-0.3,1.3,-1.2,1.9Z" class="g1_60" />
<path d="M142.6,335.1c0,0,0.1,0.3,0,0.5c0,0.2,-0.1,0.3,-0.1,0.4c0,0.2,-0.2,-0.2,-0.2,-0.2c-0.1,-0.1,0,-0.6,0,-0.8c0,-0.2,-0.1,-0.3,-0.1,-0.3Z" class="g1_60" />
<path d="M142.1,336.2c0.1,0,0.1,0.4,0.1,0.6c0,0.2,-0.3,0.5,-0.4,0.6c0,0,-0.1,-0.5,-0.1,-0.6c0,-0.1,0.4,-0.6,0.4,-0.6Z" class="g1_60" />
<path d="M142.7,335.1c0,0,0.2,0.2,0.1,0.4c-0.1,0.2,-0.2,0.7,-0.2,0.9c-0.1,0.3,-0.1,1,-0.2,1.1c0,0.1,-0.5,0.7,-0.5,0.8c-0.1,0.2,-0.2,0.7,-0.4,0.8c0.1,-0.3,0.2,-0.9,0.2,-0.9c0,0,0.5,-0.6,0.6,-0.8c0.1,-0.1,0.1,-0.9,0.2,-1.1c0,-0.2,0.4,-1.1,0.2,-1.2Z" class="g1_60" />
<path d="M137.2,334.1c0.1,0,1.7,-1,2.1,-1.4c0.3,-0.4,0.8,-0.9,0.8,-1c-0.1,0,0.1,-0.4,0.1,-0.4c0,0,-0.9,1.2,-1,1.2c-0.1,0.1,-2,1.6,-2,1.6Z" class="g1_60" />
<path d="M136,333.3c0.1,0,0.9,-0.7,1.1,-0.7c0.1,0,0.7,0,1.2,-0.2c0.6,-0.2,0.7,-0.5,1,-0.7c0.3,-0.2,0.6,-0.5,0.6,-0.5c0,0,-0.5,-0.1,-0.7,0c-0.2,0,-0.5,0.1,-0.7,0.3c-0.3,0.1,-1.1,0.4,-1.1,0.5c-0.1,0.1,-0.2,0.4,-0.3,0.4c-0.1,0.1,-1.1,0.9,-1.1,0.9Z" class="g1_60" />
<path d="M133.8,333c0.1,0,1.2,-0.6,1.5,-0.7c0.3,-0.1,0.7,-0.3,0.8,-0.3c0.2,0,0,0.1,-0.1,0.2c0,0.2,-1.3,1.1,-1.2,1.1c0.1,-0.1,1.4,-1.1,1.6,-1.1c0.3,-0.1,0,0.3,-0.2,0.5c-0.2,0.2,-0.9,0.7,-0.8,0.7c0,-0.1,1.5,-1.1,1.6,-1.4c0.2,-0.2,0.5,-0.6,0.7,-0.6c0.3,-0.1,0.8,-0.1,0.8,-0.1c0,0,-1,0,-0.9,-0.2c0.1,-0.1,0.7,-0.3,0.8,-0.3c0.2,-0.1,-0.2,0,-0.8,0c-0.5,0,-1.4,0.1,-1.7,0c-0.3,0,-0.7,0,-0.9,-0.1c-0.1,0,0,0.2,0.1,0.3c0,0,-0.7,0.4,-0.9,0.4c-0.2,0,-0.7,0.5,-1.2,0.6c-0.4,0.2,-1.3,0.8,-1.4,0.8c-0.1,0.1,1.2,-0.5,1.2,-0.4c0,0.2,-0.4,0.8,-0.8,1.3c-0.4,0.4,-1.6,1.2,-1.6,1.2c0,0,1.2,-0.5,1.9,-1.3c0.7,-0.7,0.9,-1.1,1,-1.1c0.2,-0.1,0.4,-0.4,0.6,-0.4c0.2,0,-0.1,0.5,-0.1,0.5l-1.1,1.1c0,0,1.7,-1.3,2,-1.5c0.4,-0.2,0.6,-0.2,0.6,-0.2Z" class="g1_60" />
<path d="M137.2,330.6c0,0,1.2,-0.5,1.2,-0.6c0,-0.1,-0.1,-0.2,-0.4,-0.1c-0.3,0.1,-0.8,0.5,-1.5,0.5c0,0,1.1,-0.5,1.1,-0.5c0,0,0.4,-0.1,0.8,-0.2c0.3,0,0.9,-0.3,0.9,-0.3c0,0,-0.6,0.5,-0.8,0.7c-0.2,0.2,-0.2,0.4,-0.6,0.4c-0.4,0.1,-0.7,0.1,-0.7,0.1Z" class="g1_60" />
<g clip-path="url(#c4_60)">
<path d="M137,328.9c-0.1,0,0.6,0.1,1.3,0c0.6,-0.2,1,-0.5,1.2,-0.7c0.2,-0.1,0.9,-0.6,1,-0.6c0.1,-0.1,0.1,-0.1,0.3,0.1c0.3,0.1,1,0.5,1,0.8c0,0.3,0,0.7,0,0.7c0.1,0,0.1,-0.6,0.1,-0.6c0,0,0.3,0.4,0.4,0.9c0.4,-0.3,-0.7,-2.1,-1.7,-2.2c-1,-0.1,-0.7,0,-0.8,0c0,0,0,-0.2,0,-0.3c0.1,-0.1,-0.2,-0.1,-0.2,-0.1l0.3,-0.5c0,0,-0.5,0.4,-0.6,0.4c-0.1,-0.1,0,-0.3,0.1,-0.3c0.1,-0.1,0.3,-0.2,0.3,-0.2c0,0,-0.3,-0.1,-0.5,0.2c-0.1,0.2,-0.3,0.2,-0.3,0.2c-0.1,0.1,-0.2,0,-0.1,-0.2c0.2,-0.1,0.5,-0.5,0.5,-0.5c0,0,-0.6,0.5,-0.6,0.4c0,-0.1,0.1,-0.5,-0.4,-1c-0.5,-0.4,-0.7,-0.7,-1.3,-0.8c-0.7,-0.2,-1.3,-0.1,-1.3,-0.1c-0.1,0,1,0.2,1.3,0.4c0.4,0.1,0.9,0.5,1.2,1.1c-0.2,-0.2,-0.6,-0.7,-1,-0.8c0.4,0.4,0.7,0.6,0.7,0.8c0.1,0.3,-0.4,-0.5,-1.4,-0.9c-1,-0.4,-1.7,-0.5,-2.1,-0.4c-0.4,0.1,-1,0.3,-1,0.3c0,0,1.4,0.1,2,0.3c0.6,0.2,0.6,0.3,0.8,0.3c0.2,-0.1,0.3,-0.1,0.6,0c0.2,0.1,0.9,0.3,0.5,0.4c-0.4,0,-1.5,-0.2,-2.1,-0.2c-0.5,0,-0.6,0,-0.6,0c0,0,0.8,0.3,1.2,0.3c0.4,0,1.3,0,1.6,0.1c0.2,0.1,0.7,0.5,0.4,0.5c-0.3,-0.1,-0.5,-0.1,-0.5,-0.1c0,0,0.6,0.3,0.6,0.4c-0.1,0.1,-0.6,-0.1,-0.8,-0.2c-0.2,-0.1,0.3,0.3,0.6,0.4c0.3,0.2,0.5,0.2,0.9,0.2c0.3,0.1,0.8,0.1,0.7,0.2c0,0.1,0.2,0.2,-0.6,0.1c-0.7,-0.1,-1.8,-0.6,-2.2,-0.6c-0.3,-0.1,-0.5,0,-0.5,0c0,0,0.6,0.2,0.9,0.3c0.2,0.1,1.2,0.4,1.4,0.5c0.2,0.1,-0.8,-0.1,-1.1,0c-0.2,0,-0.5,0,-0.5,0c0,0,1.2,0.2,1.2,0.2c0,0.1,-0.8,0.1,-1,0.1c-0.3,0,-1.3,-0.1,-1.4,-0.1c-0.1,0,1.8,0.3,1.7,0.3c-0.2,0.1,-1.5,0.6,-3.6,-0.4c-0.2,-0.2,0.7,0.6,1,0.7c0.3,0.1,1,0.2,1.3,0.2c0.4,-0.1,1.7,-0.4,1.9,-0.4c0.1,0.1,-0.4,0.5,-0.8,0.4Z" class="g1_60" />
</g>
<path d="M132.3,327.6c0.4,0.1,0.4,0.3,0.8,0.6c0.5,0.3,1.1,0.5,1.4,0.7c0.3,0.2,0.7,0.3,1,0.5c0.4,0.2,1,0.6,1.3,0.6c0.2,0,-0.4,0.2,-0.7,0.2c-0.4,0,-0.6,-0.3,-1,-0.3c-0.5,0,-0.8,-0.1,-1.5,0c-0.7,0.2,-1,0.2,-1.3,0.3c-0.3,0.1,-0.8,0.1,-1.2,0.1c-0.5,0,-0.7,0.1,-1.3,0c-0.6,0,-1.1,0,-1.4,0.1c-0.3,0.1,-0.8,0.5,-0.9,0.5c-0.1,0,-0.3,0,-0.4,0.1c-0.1,0.1,-0.5,0.5,-0.6,0.7c0,0.1,0.3,-0.7,0.6,-1c0.4,-0.2,0.8,-0.3,1.2,-0.5c0.3,-0.1,0.3,-0.3,1,-0.2c0.6,0.1,1.5,0,1.8,0c0.3,0,1.1,0.1,1.5,-0.1c0.4,-0.1,1.6,-0.2,1.7,-0.3c0.2,-0.1,-0.4,-0.1,-0.8,-0.1c-0.5,0,-1,0.1,-1.6,0c-0.6,0,1.4,0,1.5,-0.2c0.1,-0.2,0.1,-0.3,-0.1,-0.4c-0.1,0,-0.5,0,-0.8,-0.1c-0.4,0,-1.2,0,-1.8,0c-0.5,0,-1.3,0,-1.7,0.1c-0.4,0.2,-1.2,0.8,-1.3,0.9c-0.1,0,0.9,-1.1,1.5,-1.2c0.6,0,2.9,0,3.4,0.1c0.5,0,1.2,0.4,1.5,0.4c0.2,0,0.4,0,0,-0.2c-0.3,-0.1,-1.4,-0.5,-1.6,-0.5c-0.2,0,-1.3,-0.1,-1.7,0c-0.4,0.1,0.6,-0.2,1.1,-0.2c0.5,0,0.7,-0.1,0.5,-0.2c-0.1,-0.1,-0.5,0,-0.8,0c-0.3,0.1,-1,0,-1.3,0.1c-0.3,0.1,-1.2,0.3,-1.5,0.3c-0.2,0.1,-0.9,0.3,-0.8,0.3c0.1,-0.1,1.2,-0.6,1.6,-0.7c0.5,-0.1,1.9,-0.2,1.9,-0.2c0,0,-0.1,-0.2,-0.7,-0.2c-0.6,0.1,-1.6,0.3,-1.7,0.3c-0.1,0,0.6,-0.3,1,-0.4c0.4,0,1.2,-0.3,2.2,0.1Z" class="g1_60" />
<g clip-path="url(#c4_60)">
<path d="M133.3,324.7c0,0,-0.6,-0.2,-1.2,-0.1c-0.5,0,-0.8,0.1,-1.3,0.2c-0.4,0.2,-1.3,0.4,-1.5,0.6c-0.2,0.2,-1.2,0.6,-1.4,0.9c-0.3,0.2,-1,0.8,-0.9,0.8c0,0,1,-0.8,1.2,-0.8c0.2,0,0.2,0.2,-0.2,0.4c-0.5,0.2,-0.9,0.5,-0.9,0.5c0.1,0,0.4,0,0.3,0.1c-0.1,0.1,-1,0.8,-1.1,1.1c-0.2,0.2,0.8,-0.7,0.7,-0.5c0,0.2,-1,1.3,-1.1,1.5c-0.1,0.2,-0.2,0.8,-0.2,0.8c0,0,0.4,-0.7,0.5,-0.7c0.1,0,-0.1,0.5,-0.3,0.7c-0.1,0.2,-0.3,0.5,-0.3,0.7c-0.1,0.1,0,0.8,0.1,0.8c0,0,0.2,1.4,0.2,1.4c0,0,0.2,-0.4,0.3,-0.3c0.1,0,0,0.8,0,0.8c0,0.1,0,0.6,0,0.5c0,0,0.5,-0.3,0.4,-0.2c-0.1,0.2,-0.3,0.3,-0.4,0.5c0,0.1,0.1,0.1,0.2,0.2c0.1,0.2,-0.1,0.7,-0.1,0.7c0,0,0.1,0.2,0.2,0.2c0.1,-0.1,0.4,-0.3,0.4,-0.3c0.1,0,0,0.6,0,0.6c0,0,0,0.4,0.1,0.4c0.1,0.1,0.3,0.3,0.3,0.3c0,0.1,-0.1,0.5,0,0.6c0,0.1,0,0.4,0.2,0.6c0,0,0.2,0.5,0.1,0.7c0,0.3,0.1,0.5,0.1,0.5c0,0,0.7,0.7,0.7,1.1c0.1,0.3,0.2,0.7,0.2,0.7c0,0,-0.1,-0.8,-0.2,-1.1c-0.1,-0.2,-0.4,-0.9,-0.4,-1.4c0,-0.4,-0.1,-1.4,0,-1.6c0.2,-0.2,0.3,-0.2,0.3,-0.1c0.1,0.2,0.1,0.4,0.2,0.3c0.1,-0.1,0.2,-0.1,0.3,-0.2c0,-0.1,0.1,0.1,0.1,0.1c0,-0.1,0,-0.7,0,-0.7c0.1,-0.1,0.2,0.2,0.2,0.2c0,0,0,-0.4,0.1,-0.4c0,-0.1,0.4,-0.3,0.5,-0.3c0,-0.1,0.1,-0.4,0.1,-0.6c0,-0.1,0.4,-0.5,0.4,-0.5c0,0,-0.1,0.7,-0.2,0.9c-0.1,0.1,0,1.1,0.1,1c0,0,0.1,-1.5,0.3,-1.7c0.1,-0.3,0.6,-0.8,0.6,-0.8c0,0,-0.6,0.5,-0.6,0.5c0,-0.1,0.5,-0.6,0.5,-0.6c-0.1,0.1,-1.1,0.8,-1.1,0.8c0,0,-0.5,0.6,-0.5,0.7c-0.1,0.1,0,-0.4,0.1,-0.6c0.1,-0.2,-0.5,0.5,-0.6,0.6c-0.1,0,-0.2,0.1,-0.1,-0.4c0.1,-0.5,0.2,-0.8,0.2,-0.8c0,0,-0.4,0.3,-0.4,0.8c-0.1,0.4,-0.3,0.5,-0.3,0.5c0,0,0.1,-1.1,0.2,-1.3c0.1,-0.3,0.3,-0.7,0.3,-0.8c0,-0.1,0.1,-0.5,0.2,-0.5c0,-0.1,-0.5,0.2,-0.5,0.4c-0.1,0.2,-0.1,0.4,-0.3,0.6c-0.1,0.3,-0.5,0.7,-0.5,0.8c0,0.1,-0.2,-0.5,-0.1,-0.7c0,-0.2,0.2,-0.9,0.4,-1.1c0.2,-0.2,0.1,0.3,0.1,0.3c0,0,0.3,-0.5,0.4,-0.6c0.2,0,0.4,-0.5,0.4,-0.5c0,0,-0.1,0.7,-0.1,0.6c0.1,-0.1,0.6,-0.6,0.6,-0.6c0,0,-0.4,0.9,-0.3,0.9c0.1,-0.1,0.6,-0.6,0.8,-0.8c0.2,-0.1,0.4,-0.1,0.4,-0.1c0,0,-0.8,1.1,-0.8,1.1c0.1,-0.1,1.1,-1.1,1.3,-1.1c0.1,-0.1,0.1,0.2,0.1,0.2c-0.1,0.1,-1.1,1.1,-1.1,1.1c0,-0.1,1.1,-0.7,1.3,-0.9c0.1,-0.2,0.2,-0.4,0.2,-0.4c0,0,-0.1,-0.3,0,-0.3c0.1,0,0.8,-0.5,1.6,-0.4c0.7,0.1,0.7,0,0.9,0c0.3,0,0.5,-0.1,0.5,-0.1c0,0,-0.7,-0.1,-1,-0.1c-0.3,0,0.6,-0.1,0.8,-0.1c0.2,-0.1,-1.2,0,-1.4,-0.1c-0.2,-0.1,-0.5,-0.2,-0.8,-0.1c-0.3,0.1,-0.6,0.3,-1,0.4c-0.3,0.1,-0.2,-0.1,-0.8,0c-0.6,0.1,-0.8,0.1,-1,0.3c-0.3,0.1,-0.7,0.4,-0.8,0.4c0,0.1,0.1,-0.2,0.3,-0.3c0.2,-0.1,-0.4,0.3,-1,0.4c-0.6,0.1,-0.6,0.4,-0.6,0.4c0,0,0,-0.4,0.1,-0.4c0,-0.1,0.3,-0.2,0.7,-0.4c0.4,-0.2,0.6,-0.5,1,-0.5c0.5,-0.1,1.3,-0.2,1.4,-0.2c0.1,0,-0.8,-0.1,-1.1,-0.1c-0.3,0,-1.3,0.5,-1.5,0.7c-0.1,0.1,-0.6,0.2,-0.7,0.3c0,0,-0.4,0.2,-0.4,0.2c0,0,-0.1,-0.7,0.3,-1c0.3,-0.2,0.5,-0.8,0.6,-0.8c0.2,0,0.5,-0.1,0.5,-0.1c0,0,-0.2,-0.1,-0.7,0c-0.6,0.2,0.3,-0.4,0.5,-0.7c0.2,-0.3,-0.4,-0.1,-0.4,-0.1c0,0,-0.5,0.4,-0.7,0.8c-0.1,0.3,0.2,-0.8,0.4,-1.1c0.3,-0.2,0.5,-0.5,0.7,-0.7c0.3,-0.3,0.9,-0.3,0.9,-0.3c0,0,0.7,-0.2,0.8,-0.4c0.1,-0.1,-0.5,0,-0.3,-0.1c0.2,-0.2,0.5,-0.3,0.3,-0.4c-0.3,0,-0.7,0.5,-1,0.6c-0.4,0.1,0.1,-0.3,0.1,-0.3c0,0,0.3,-0.6,1.2,-0.6c0.9,0,1.1,-0.3,1.2,-0.3c0.2,0,0.1,0.2,0.7,0.3c0.7,0.2,1.1,0.3,1.1,0.3c0,0,-0.6,-0.3,-0.5,-0.4c0.2,-0.1,0.9,0,1.3,0.1c0.5,0.1,1.3,0.3,1.5,0.3c0.3,0,-0.6,-0.4,-0.8,-0.5c-0.2,0,-1.4,-0.4,-1.7,-0.2c-0.3,0.1,-0.4,0.4,-0.8,0.3c-0.4,-0.2,-0.9,-0.5,-0.5,-0.6c0.4,-0.1,1,0,1.2,0c0.3,0,1.4,0.2,1.6,0.1c0.2,-0.1,-0.9,-0.3,-1.1,-0.3c-0.1,0,-0.7,-0.1,-1.4,-0.1c-0.6,0,-1.1,0.2,-1.4,0.3c-0.2,0.2,-1.2,0.5,-1.3,0.6c-0.1,0.1,0.5,-0.7,0.8,-0.8c0.3,-0.1,0.9,-0.8,2,-0.9c1,-0.1,1.8,-0.2,1.8,-0.2Z" class="g1_60" />
</g>
<path d="M126.8,335.4c0,0,-0.3,0.4,-0.3,0.6c0,0.3,0.1,0.6,0.1,0.6c0,0,0,-0.3,0.1,-0.2c0.2,0,0.2,0.2,0.3,0.4c0.1,0.1,0.2,-0.2,0.1,-0.3c-0.1,-0.1,-0.5,-0.5,-0.3,-1.1Z" class="g1_60" />
<path d="M126.6,337.2c0.1,0.1,0.2,0.4,0.2,0.6c0,0.3,0.1,0.7,0.5,1.1c0.4,0.4,0.3,0.4,0.5,0.7c0.2,0.3,0.5,0.4,0.5,0.4c0,0,-0.3,-0.3,-0.4,-0.5c-0.1,-0.2,-0.9,-0.9,-1,-1.4c0,-0.6,-0.3,-0.9,-0.3,-0.9Z" class="g1_60" />
<g clip-path="url(#c4_60)">
<path d="M130.1,344.4c0,0,0.1,1,0.1,1.4c0,0.4,0,0.7,-0.1,1c-0.2,0.2,-0.4,0.6,-0.7,0.8c-0.3,0.1,-0.3,0,-0.6,0c-0.3,0.1,-0.6,0.2,-1,0.4c-0.4,0.2,-0.9,0.4,-1.2,0.5c-0.3,0.1,-0.5,0.3,-1,0.4c-0.5,0.1,-0.8,0.3,-1.3,0.5c-0.4,0.2,-2,1.1,-2.4,1.3c-0.5,0.2,2.3,-1.1,2.4,-1.1c0.2,0,-2.9,2.1,-2.1,1.8c0.7,-0.3,2.4,-1.5,2.9,-1.8c0.5,-0.3,0.8,-0.5,1,-0.5c0.2,0,-0.2,0.9,-0.6,1.2c-0.4,0.4,-1.1,1.9,-1,1.8c0.1,-0.1,2,-2.8,2.3,-3.1c0.4,-0.2,0.7,-0.4,0.7,-0.2c0.1,0.1,-0.1,0.9,0,1.3c0.1,0.5,0.8,2.3,0.8,2.5c0.1,0.2,-0.2,-1.1,-0.1,-1.6c0.1,-0.4,0.2,-0.9,0.3,-0.7c0.2,0.3,1.3,3.1,1.7,3.7c0.4,0.5,1.3,1.7,1.3,1.7c0,0,-3.1,-5,-2.9,-6.4c0.1,-1.5,0.5,-1.4,1,-1.5c0.4,-0.1,0.6,-0.3,0.8,-1c0.1,-0.3,-0.3,-2.4,-0.3,-2.4Z" class="g1_60" />
<path d="M140.2,345.6c0,0.3,0.5,1,1,1.2c0.6,0.3,1.4,0.3,1.6,0.4c0.3,0.2,1.1,0.5,1.7,0.6c0.6,0.2,2.5,0.5,2.5,0.5c0.1,0.1,-2.3,-0.2,-2.5,-0.1c-0.2,0.1,-0.2,0.6,-0.2,0.9c0,0.3,-0.2,-0.3,-0.4,-0.7c-0.2,-0.4,-0.6,-0.5,-0.6,-0.1c0,0.5,-0.4,1.5,-0.7,2.1c-0.3,0.6,-1.5,1.5,-1.8,2c-0.2,0.4,-0.9,0.7,-0.9,0.7c0,0,1.4,-2.5,1.7,-3.1c0.2,-0.6,0.7,-2.4,0.5,-2.6c-0.2,-0.1,-1.2,-0.3,-1.6,-0.8c-0.3,-0.4,-0.3,-1,-0.3,-1Z" class="g1_60" />
</g>
<path d="M134.2,387.3c-0.1,0,-0.1,-0.1,-0.1,-0.1c0,-0.1,0,-0.1,0.1,-0.1c0.1,0,0.1,0,0.1,0.1c0,0,0,0.1,-0.1,0.1m0.5,-0.3c-0.2,-0.1,-0.7,-0.2,-0.9,-0.2c-0.2,0,-1.1,0.4,-1.1,0.4c0,0,0.2,0.1,0.2,0c0.1,0,0.5,-0.1,0.5,-0.1c0,0,-0.1,0.4,0.4,0.6c0.5,0.1,0.7,-0.3,0.8,-0.5c0,-0.2,0.8,0.4,1,0.6c-0.2,-0.2,-0.8,-0.7,-0.9,-0.8Z" class="g2_60" />
<path d="M140.5,387.5c0,0,-0.1,0,-0.1,-0.1c0,0,0.1,-0.1,0.1,-0.1c0.1,0,0.2,0.1,0.2,0.1c0,0.1,-0.1,0.1,-0.2,0.1m1.3,0c0,0,-0.6,-0.3,-0.9,-0.3c-0.3,-0.1,-0.6,-0.1,-0.9,0.1c-0.4,0.1,-1.1,0.7,-1.1,0.7c0,0,0.8,-0.7,0.9,-0.5c0.1,0.2,0.1,0.5,0.7,0.5c0.6,-0.1,0.4,-0.7,0.4,-0.7c0,0,0.1,0.1,0.4,0.1c0.2,0.1,0.5,0.1,0.5,0.1Z" class="g2_60" />
<path d="M136.2,386.6c0.1,0,0.3,-0.5,-0.2,-0.8c-0.5,-0.3,-1.6,-0.4,-2.1,-0.4c-0.4,0,-1.4,0.2,-1.6,0.3c-0.3,0.1,-0.6,0.5,-0.6,0.5c0,0,0.9,-0.2,1.3,-0.2c0.5,0.1,1,0,1.5,0.2c0.6,0.1,1.2,0.4,1.4,0.5c0.2,0.1,0.3,-0.1,0.3,-0.1Z" class="g2_60" />
<path d="M138.7,386.7c0,0,0.1,-0.9,0.9,-1c0.8,-0.1,1.9,-0.3,2.2,-0.2c0.4,0.2,0.9,0.5,1.1,0.9c-0.2,-0.1,-0.7,-0.3,-1.3,-0.2c-0.6,0,-1.6,0.3,-2,0.4c-0.4,0.2,-0.8,0.2,-0.9,0.1Z" class="g2_60" />
<path d="M135.6,390.4c-0.1,0,-0.5,0.4,-0.7,0.7c-0.1,0.3,0,0.6,0.1,0.7c0.1,0.1,0.5,0.2,0.8,0.1c0.4,0,0.8,0.1,1,0.1c0.1,0,0.3,0.2,0.4,0.3c0.1,0.1,0.5,0.1,0.7,0c0.1,-0.1,0.2,-0.2,0.4,-0.3c0.2,0,0.5,0,0.8,0c0.3,0,0.4,0,0.3,0c0,0.1,-0.4,0.2,-0.5,0.2c-0.2,0,-0.6,0,-0.7,0c-0.1,0,-0.4,0.3,-0.5,0.3c-0.2,0,-0.4,0.1,-0.9,-0.2c-0.5,-0.3,-0.7,-0.2,-1.2,-0.3c-0.5,0,-0.8,-0.1,-0.9,-0.5c0,-0.6,0.9,-1.1,0.9,-1.1Z" class="g2_60" />
<path d="M138.9,390.1c0,0,0,0.2,0.1,0.4c0.1,0.2,0.5,0.3,0.6,0.5c0.1,0.1,0.1,0.4,0.1,0.4c0,0,0.1,-0.2,0,-0.5c-0.2,-0.3,-0.5,-0.4,-0.6,-0.5c-0.1,-0.2,-0.2,-0.3,-0.2,-0.3Z" class="g2_60" />
<path d="M133.4,393.4c0,0,1.8,-0.4,3,-0.4c0.8,0.2,1.5,0.1,1.7,0.1c0.2,-0.1,2,0.4,2,0.4c0,0,0,0.2,-0.2,0.3c-0.1,0.1,-0.5,0.3,-0.7,0.3c-0.1,0,-1.3,-0.1,-1.7,-0.1c-0.3,-0.1,-1,-0.2,-1.5,-0.2c-0.4,0.1,-1.3,0,-1.5,-0.1c-0.2,0,-0.7,-0.1,-0.7,-0.1c0,0,0.5,0.3,0.9,0.5c0.4,0.3,1.8,0.7,2.2,0.8c0.3,0.2,0.7,0,1.1,-0.2c0.3,-0.1,0.2,-0.1,0.7,-0.2c0.5,-0.1,0.9,-0.4,0.9,-0.4c0.1,0,0.2,0.1,-0.1,0.4c-0.2,0.3,-0.5,1.2,-1.6,1.4c-1,0.2,-1.9,0,-2.8,-0.7c-0.8,-0.6,-1,-1,-1,-1c0,0,1.3,1.2,2.1,1.4c0.9,0.1,1.2,0,1.7,-0.1c0.5,-0.1,0.9,-0.4,0.9,-0.5c-0.1,-0.1,0,-0.1,-0.6,0.1c-0.7,0.2,-1.1,0.4,-1.9,0.2c-0.8,-0.2,-1.3,-0.6,-1.6,-0.8c-0.2,-0.1,-0.9,-0.8,-1.3,-1.1Z" class="g2_60" />
<path d="M140.1,392.5c0,-0.1,0.4,0.4,0.5,0.7c0.2,0.2,0.2,0.4,0.2,0.4c0,0,0.2,-0.2,0.1,-0.4c-0.1,-0.1,-0.5,-0.6,-0.8,-0.7Z" class="g2_60" />
<path d="M133.9,392.1c0.1,-0.1,-0.7,0.7,-0.7,0.8c-0.1,0.1,0,1,0,1.2c0,0.1,-0.2,-1.1,0.7,-2Z" class="g2_60" />
<g clip-path="url(#c5_60)">
<path d="M129,385.3c-0.2,0,0.3,0.3,0.4,0.3c0,0.1,0.1,-0.2,0,-0.3c0,-0.1,-0.2,-0.6,-0.3,-1c0,-0.4,0,-1.7,0,-2c-0.1,-0.3,0.1,-2.3,0.5,-3.1c0.4,-0.7,0.9,-1.3,1.1,-1.6c0.1,-0.2,1.7,-1.4,2.9,-1.8c1.3,-0.3,2.3,-0.6,3.8,-0.3c1.5,0.3,2.7,0.7,3.1,1c0.5,0.4,1.6,1.6,2,2c0.4,0.3,0.3,0.5,0.6,0.8c0.4,0.4,0.5,1.6,0.5,1.9c0.1,0.3,0,1.7,0,1.8c-0.1,0.2,-0.1,0.7,-0.2,1.2c-0.1,0.5,-0.2,1.1,-0.1,1.4c0,0.4,-0.3,1.2,-0.3,1.2c0,0,0,-1.1,0,-1.3c0,-0.3,0,-2.1,-0.1,-2.5c-0.1,-0.3,0,-0.6,0,-0.9c0,-0.3,0,-0.8,0,-1c-0.1,-0.3,-0.2,-1.1,-0.5,-1.4c-0.3,-0.3,-0.6,-0.5,-0.7,-0.4c-0.2,0.1,-0.1,0.2,-0.4,0.2c-0.3,-0.1,-0.3,-0.2,-0.4,-0.2c-0.1,-0.1,-0.2,0,-0.4,0.1c-0.2,0.1,-0.5,0,-0.6,0c-0.2,0,-0.6,0,-0.7,0c-0.2,0,-0.3,0.1,-0.6,0c-0.4,-0.1,-0.6,0,-0.7,-0.1c-0.1,-0.1,-0.1,0,-0.3,-0.1c-0.2,-0.1,-0.4,-0.1,-0.3,0c0.1,0.1,0.3,0.3,0.2,0.2c-0.2,0,-0.3,0,-0.6,-0.1c-0.3,0,-0.3,0.2,-0.5,0.1c-0.1,0,-0.6,0.2,-0.8,0.1c-0.2,-0.1,-0.5,-0.1,-0.7,-0.1c-0.3,-0.1,-0.6,0.1,-0.7,0c-0.2,0,-0.3,-0.1,-0.5,-0.1c-0.1,0,-0.2,0,-0.4,0.1c-0.2,0,-0.5,-0.1,-0.5,-0.1c0,0,-0.1,0.1,-0.3,0.1c-0.2,0,-0.5,0,-0.6,0c-0.1,0,-0.3,0.3,-0.3,0.3c-0.1,0,-0.2,0.1,-0.3,0.2c-0.1,0.2,-0.1,0.6,-0.1,0.6l0,0.5c0,0,-0.2,0.7,-0.2,0.8c0,0.2,0.1,0.8,0.1,1.1c0,0.2,0,0.7,-0.1,0.8c-0.1,0.1,-0.4,0.4,-0.4,0.5c-0.1,0.1,-0.3,0.2,-0.3,0.4c0,0.2,-0.2,0.3,-0.2,0.5c-0.1,0.1,-0.3,1.1,-0.3,1.1c0,0,-0.7,-0.8,-0.8,-0.9Z" class="g2_60" />
</g>
<path d="M143.6,385.7c0,0,-0.1,0.3,-0.1,0.5c-0.1,0.2,-0.3,0.3,-0.3,0.7c-0.1,0.4,0,0.8,0.1,1c0,0.2,0,0.4,0,0.4c0,0,0.1,-0.9,0.1,-1.1c0,-0.1,0,-0.5,0,-0.6c0.1,-0.2,0.2,-0.7,0.2,-0.9Z" class="g2_60" />
<path d="M129.5,387.8c0.1,-0.1,0.1,-0.4,0,-0.5c0,-0.1,-0.1,-0.1,-0.3,0.1c-0.1,0.2,-0.3,0.3,-0.4,0.5c-0.1,0.2,-0.2,0.4,0,0.6c0.1,0.1,0.4,0.2,0.5,0.4c0.2,0.3,0.6,0.4,0.6,0.4c0,0,-0.3,-0.4,-0.3,-0.5c-0.1,-0.2,-0.3,-0.1,-0.3,-0.3c-0.1,-0.3,-0.1,-0.5,0,-0.4c0,0,0.1,0.3,0.2,0.3c0,0,0,-0.6,0,-0.6Z" class="g2_60" />
<g clip-path="url(#c5_60)">
<path d="M128.5,387.4c0.1,-0.1,0.4,-1,0.4,-1.1c0,-0.2,0.2,0.3,0.3,0.5c0.2,0.1,0.4,0.3,0.3,0.1c0,-0.1,-0.3,-0.8,-0.4,-0.9c-0.1,-0.1,-0.4,-0.5,-0.5,-0.3c-0.2,0.1,-0.3,0.7,-0.3,1c0,0.3,0,0.5,0.1,0.8c0.1,0.2,0,0.5,0,0.8c0.1,0.3,0.2,0.9,0.3,1.2c0.1,0.2,0.1,0.3,0.2,0.7c0.2,0.4,0.4,0.4,0.6,0.5c0.2,0,0.6,-0.1,0.6,-0.1c0,0,0,0.6,0.1,0.8c0,0.2,0.3,2,0.6,3.2c0.2,0.6,-0.2,2.4,-0.2,2.4c0,0,-1.3,1.5,-2.8,1.9c-1.4,0.5,-3.7,1.7,-3.6,1.8c-0.2,0,1.9,-1.1,2.4,-0.9c0.5,0.2,1.1,-0.2,1.3,-0.4c0.2,-0.1,1.3,-0.7,1.4,-0.9c0.2,-0.1,0.9,-0.7,1,-0.9c0.2,-0.1,0.4,-0.3,0.5,-0.9c0.1,-0.6,0.2,-1.6,0.1,-2.1c-0.1,-0.5,-0.6,-1.9,-0.7,-4c0,-0.2,-0.6,0,-0.9,-0.2C129,390.3,129,390,128.9,389.8c0,-0.3,0,-0.4,-0.1,-0.6c0,-0.2,-0.2,-0.5,-0.2,-0.8c0,-0.2,-0.1,-1,-0.1,-1Z" class="g2_60" />
<path d="M131.9,396c0.1,0.1,1.4,1.4,1.8,1.7c0.4,0.4,1.1,1,1.3,1.2c0.3,0.1,1.4,0.4,1.8,0.4c0.5,-0.1,1,0,1.2,-0.1c0.3,-0.1,1.2,-0.9,1.4,-1.1c0.1,-0.3,1.2,-1.5,1.4,-1.9c0.2,-0.3,0.8,-0.8,1,-1.3c0.1,-0.4,0.7,-1.6,0.9,-2.3c0.2,-0.8,0.6,-3.8,0.6,-3.9c0.1,0.1,-0.2,3.6,-1,5.4c-0.8,1.7,-1.7,2.5,-1.7,2.6c0,0.1,-0.2,1.1,-0.1,1.4c0,0.2,-0.1,0.4,0.3,0.8c0.5,0.3,1,0.4,1.4,0.6c0.5,0.3,1.7,1.3,1.7,1.3c0,0,-2,-1.3,-2.2,-1.3c-0.1,0,-0.9,-0.2,-1.1,-0.4c-0.2,-0.1,-0.2,-0.7,-0.5,-0.8c-0.3,0,-0.5,0,-0.6,0.2c-0.2,0.1,-0.8,0.5,-1.1,0.6c-0.2,0.2,-1.2,0.5,-2.1,0.4c-0.8,-0.1,-1.4,-0.3,-2.5,-1.4C132.7,397,131.9,396,131.9,396Z" class="g2_60" />
<path d="M126.6,399.5c0,0,1.7,1.3,2,1.6c0.3,0.3,1.5,1.2,1.9,1.6c0.4,0.4,2,1.5,3.8,1.7c1.8,0.2,3.1,0.3,4,0.1c0.9,-0.1,1.3,-0.5,1.3,-0.5c0,0,-0.8,0.7,-1.5,0.8c-0.7,0.1,-2.9,-0.1,-3.5,-0.1c-0.6,-0.1,-1.7,-0.1,-3.1,-0.9c-1.3,-0.9,-3.5,-2.8,-3.9,-3.2c-0.5,-0.4,-0.9,-0.7,-1.5,-0.7c-0.5,0,-1.9,0.8,-1.9,0.8c0,0,2,-1.1,2.4,-1.2Z" class="g2_60" />
</g>
<path d="M132,387.2c0,0,0.5,-0.2,0.8,-0.3c0.4,-0.1,0.7,-0.1,1,-0.1c0.3,0,1.2,0.1,1.4,0.2c0.2,0,0.8,0.5,0.9,0.7C135.4,387,135,387.1,134.7,387c-0.4,-0.1,-1.2,-0.1,-1.7,0c-0.5,0,-1,0.2,-1,0.2Z" class="g2_60" />
<path d="M138.9,387.7c0,0,0.8,-0.5,1,-0.6c0.3,-0.1,1.1,-0.1,1.3,-0.1c0.3,0.1,0.8,0.3,0.8,0.3c0.1,0,-0.3,-0.1,-0.5,-0.1c-0.2,0,-1,0,-1.2,0c-0.3,0,-1.3,0.4,-1.4,0.5Z" class="g2_60" />
<path d="M131.7,474.5c0,0,-0.1,0,-0.1,-0.1c0,0,0.1,-0.1,0.1,-0.1c0.1,0,0.1,0.1,0.1,0.1c0,0.1,0,0.1,-0.1,0.1m0.6,-0.2c-0.3,-0.1,-1,-0.1,-1.2,-0.1c-0.2,0,-0.7,0.2,-0.8,0.3c-0.2,0.1,-0.4,0.3,-0.5,0.3c-0.2,0.1,-0.2,0.1,-0.2,0.1c0,0,0.5,0,0.5,-0.1c0.1,0,0.2,-0.1,0.3,-0.1c0.2,0,0.4,0,0.4,0c0,0,-0.1,-0.2,0,-0.2c0.1,-0.1,0.2,-0.1,0.3,-0.1c0,0,-0.1,0.2,0.2,0.4c0.3,0.1,0.7,0,0.8,-0.1c0,-0.1,0,-0.3,0,-0.3c0,0,0.2,-0.2,0.8,0.4c0,0,-0.2,-0.5,-0.6,-0.5Z" class="g1_60" />
<path d="M137.7,474.1l0,-0.1c0,0,0,-0.1,0,-0.1c0.1,0,0.1,0.1,0.1,0.1c0,0.1,0,0.1,-0.1,0.1m1.5,0.1c-0.2,0,-0.1,-0.1,-0.5,-0.3c-0.3,-0.2,-1,-0.1,-1.6,-0.1c-0.5,0.1,-1,0.8,-1,0.8c0,0,0.7,-0.7,0.9,-0.5c0.1,0.1,0.2,0.3,0.7,0.3c0.5,0,0.5,-0.4,0.6,-0.4c0.1,0,0,0.1,0.1,0.1c0.1,0,0.3,0.1,0.5,0.1c0.1,0,0.6,0,0.6,0c0,0,-0.1,0,-0.3,0Z" class="g1_60" />
<path d="M133.1,473.3c0,0,-0.1,-0.3,-0.6,-0.3c-0.5,-0.1,-1.4,0,-1.8,0c-0.3,0,-1,0.2,-1.1,0.3c-0.1,0.1,-0.5,0.3,-0.5,0.3c0,0,1.1,-0.2,1.4,-0.2c0.3,0,1.2,0.1,1.7,0.1c0.4,0,0.8,0,0.9,-0.2Z" class="g1_60" />
<path d="M135.8,473.1c0,0,-0.1,-0.4,0.4,-0.4c0.5,-0.1,0.7,-0.2,1.3,-0.2c0.6,-0.1,0.7,-0.2,1,-0.2c0.3,0,1.2,0.3,1.4,0.4c0.2,0.1,-0.6,0,-0.7,0.1c-0.2,0,-1.4,0.2,-1.6,0.2c-0.3,0.1,-1.8,0.1,-1.8,0.1Z" class="g1_60" />
<path d="M132.7,477.7c0,0,0,0.5,0.1,0.6c0.1,0.1,0.2,0.2,0.6,0.2c0.3,0,0.4,0,0.5,0c0.1,0.1,0.2,0.3,0.2,0.3c0,0,-0.4,-0.2,-0.6,-0.2c-0.3,0.1,-0.5,0,-0.6,0c-0.1,-0.1,-0.4,-0.4,-0.2,-0.9Z" class="g1_60" />
<path d="M134.5,479c0,-0.1,0.5,0,0.6,-0.1c0.2,-0.1,0.4,-0.4,0.6,-0.5c0.2,0,0.2,-0.1,0.5,-0.1c0.3,0,0.4,-0.1,0.5,-0.2c0,-0.1,0.1,-0.4,0,-0.7c0.4,0.6,-0.2,0.9,-0.2,0.9c0,0,-0.5,0.1,-0.6,0.2c-0.2,0,-0.7,0.7,-1.4,0.5Z" class="g1_60" />
<path d="M136.6,476.9c0,0,0.4,0.2,0.6,0.3c0.1,0.2,0.3,0.6,0.5,0.8c0.1,0.2,0.3,0.4,0.6,0.5c0.3,0.2,0.4,0.3,0.5,0.4c0.1,0.1,0.2,0.7,0.2,0.7c0,0,0.2,-0.8,-0.1,-1c-0.3,-0.2,-0.6,-0.1,-0.9,-0.4c-0.6,-0.5,-0.5,-1.1,-1.4,-1.3Z" class="g1_60" />
<path d="M132,477.8c0,0,-0.4,0.6,-0.5,0.8c-0.2,0.2,-0.5,0.4,-0.7,0.5c-0.1,0.2,-0.3,0.5,-0.1,1c0.1,-0.6,0.1,-0.7,0.2,-0.8c0.2,-0.2,0.5,-0.4,0.7,-0.6c0.2,-0.2,0.3,-0.8,0.4,-0.9Z" class="g1_60" />
<path d="M131.6,480.1c0,0,0.7,0,0.9,-0.1c0.3,0,0.8,-0.1,1.1,-0.1c0.3,0,0.8,0.1,1,0.1c0.2,0,0.4,-0.1,0.6,-0.1c0.1,0,1.8,-0.1,2.1,-0.1c0.3,0,0.8,-0.1,0.8,-0.1c0,0,-0.1,0.3,-0.2,0.5c-0.2,0.2,-0.9,2.1,-2.6,2.3c-1.8,0.1,-2.6,-0.9,-2.6,-0.9c0,0,0.6,0.5,1.4,0.6c0.8,0.2,1.4,0,1.8,-0.2c0.5,-0.1,0.7,-0.3,0.8,-0.6c0.1,-0.2,0.2,0.2,-2,0.3c-0.3,0,2.3,-0.5,2.8,-1.3c0.1,-0.2,0,-0.5,0,-0.5c0,0,-0.8,0,-1.1,0.1c-0.4,0.1,-0.8,0.2,-1,0.2c-0.1,0,-0.8,0,-1.1,0c-0.2,0,-0.8,-0.1,-1.1,-0.1c-0.2,0,-0.8,0.1,-0.8,0.1l0,0.3c0,0,0.2,0.4,0.5,0.6c0.3,0.1,0.9,0.5,1,0.5c0.1,0,-1.1,-0.4,-1.7,-0.8c-0.5,-0.4,-0.6,-0.7,-0.6,-0.7Z" class="g1_60" />
<path d="M138.7,471.9c0,0,1.1,-0.8,1.2,-1.4c0.1,-0.6,0.2,-0.2,0.2,-0.2c0,0,-0.1,0.5,0,0.7c0,0.2,0.1,0.5,0.5,0.9c0.3,0.5,0.3,0.4,0.4,0.9c0.1,0.5,0,1.2,0.1,1.6c0.1,0.3,0.2,0.7,0.2,1c0,0.3,-0.2,1.1,-0.2,1.5c-0.1,0.3,-0.2,2,-0.2,2.3c-0.1,0.3,-0.3,1.6,-0.8,2.3c-0.5,0.7,-2.1,2.8,-2.7,3.1c-0.7,0.3,-1.4,0.5,-1.8,0.5c-0.5,0,-1.3,0,-1.5,-0.1c-0.3,-0.1,-1,-0.2,-1.3,-0.5c-0.3,-0.3,-1.1,-1.1,-1.6,-1.6c-0.5,-0.5,-1.1,-1.3,-1.1,-1.2c0,0,1.1,1.3,1.2,1.6c0.2,0.2,0.9,1,1.4,1.4c0.5,0.4,1.1,0.7,2,0.8c1,0,1.9,-0.1,2.2,-0.2c0.4,-0.2,1.2,-0.9,1.5,-1.4c0.3,-0.4,1.5,-1.9,1.7,-2.2c0.3,-0.3,0.8,-1.5,0.9,-2.3c0.1,-0.8,0.2,-2.2,0.2,-2.6c0,-0.4,0.1,-0.8,0.3,-1c0.1,-0.1,0.1,-0.8,0.1,-1c0.1,-0.3,-0.1,-0.5,0,-0.7c0.1,-0.3,0.3,-0.4,0.3,-0.4c0,0,0,-1.1,0.1,-1.1c0,-0.1,0.2,0,0.2,0c0,0,-0.2,-0.6,-0.1,-0.7c0,-0.1,0.4,0.4,0.4,0.4c0,0,-0.1,-0.5,0,-0.4c0.1,0,0.4,0.1,0.4,0.1c0,0,-0.3,-0.4,-0.4,-0.5c0,-0.1,-0.1,-0.2,0,-0.3c0.1,-0.1,0.3,-0.1,0.3,-0.1c0,0,-0.3,-0.2,-0.3,-0.3c0,-0.2,0.1,-0.3,0.1,-0.3c0,0,-0.1,0,-0.2,-0.1c-0.1,0,-0.1,-0.3,-0.1,-0.3l0.3,0.2c0,0,-0.3,-0.3,-0.2,-0.3c0,-0.1,0.1,-0.1,0.1,-0.1c0,0,-0.3,-0.1,-0.3,-0.2c0,-0.1,0.2,-0.2,0.2,-0.2c0,0,-0.2,0,-0.3,-0.2c0,-0.1,0,-0.4,0,-0.5c0,-0.1,-0.2,-0.4,-0.2,-0.4c0.1,0,0.3,0,0.3,0c0,0,0,-0.1,-0.2,-0.2c-0.2,0,-0.4,-0.2,-0.4,-0.2l0.4,-0.1c0,0,-0.1,-0.1,-0.2,-0.1c-0.2,-0.1,-0.2,-0.2,-0.1,-0.2c0.2,0,0.3,-0.1,0.3,-0.1c0,0,-0.3,-0.2,-0.4,-0.2c-0.1,0,-0.2,-0.2,-0.1,-0.2c0,0,0.1,-0.2,0.1,-0.2c0,0,-0.1,0,-0.2,-0.1c-0.2,-0.2,-0.1,-0.3,-0.2,-0.3c-0.1,-0.1,-0.2,-0.1,-0.4,-0.1c-0.1,-0.1,-0.1,-0.4,-0.1,-0.4c0,0,0,-0.3,0,-0.3c0,-0.1,-0.2,-0.4,0,-0.4c0,0,-0.3,0,-0.3,0.1c-0.1,0.1,0.1,0.4,-0.2,0.5c-0.2,0,-0.8,0.4,-1,0.5c-0.1,0,-0.5,0.1,-0.6,0.1c-0.1,0.1,-0.3,0.2,-0.3,0.2c0,0,0.5,0,0.8,0c0.2,0,0.5,-0.1,0.7,-0.2c0.2,-0.1,0.3,0,0.2,0.1c-0.1,0.1,-0.6,0.6,-0.7,0.7c-0.1,0.1,-0.4,0.3,-0.3,0.3c0.1,-0.1,1.1,-0.6,1.1,-0.7c0.1,-0.1,0.2,0.1,0.2,0.2c-0.1,0.1,-0.3,0.6,-0.6,0.7c-0.2,0.1,-1.2,0.6,-1.2,0.6c0,0,0.6,0,0.9,-0.2c0.4,-0.2,1,-0.8,1.1,-0.8c0,-0.1,0.1,0.3,0,0.5c0,0.2,-0.3,0.5,-0.3,0.5l0.5,-0.4c0,0,-0.2,0.7,-0.3,0.9c0,0.2,-0.2,0.5,-0.1,0.6c0,0.1,-0.3,0.5,-0.4,0.5c-0.1,0,-0.3,1.3,-1.2,1.9Z" class="g1_60" />
<path d="M142.6,472.6c0,0,0.1,0.3,0,0.5c0,0.2,-0.1,0.3,-0.1,0.4c0,0.2,-0.2,-0.2,-0.2,-0.2c-0.1,-0.1,0,-0.6,0,-0.8c0,-0.2,-0.1,-0.3,-0.1,-0.3Z" class="g1_60" />
<path d="M142.1,473.7c0.1,0,0.1,0.4,0.1,0.6c0,0.2,-0.3,0.5,-0.4,0.6c0,0,-0.1,-0.5,-0.1,-0.6c0,-0.1,0.4,-0.6,0.4,-0.6Z" class="g1_60" />
<path d="M142.7,472.6c0,0,0.2,0.2,0.1,0.4c-0.1,0.2,-0.2,0.7,-0.2,0.9c-0.1,0.3,-0.1,1,-0.2,1.1c0,0.1,-0.5,0.7,-0.5,0.8c-0.1,0.2,-0.2,0.7,-0.4,0.8c0.1,-0.3,0.2,-0.9,0.2,-0.9c0,0,0.5,-0.6,0.6,-0.8c0.1,-0.1,0.1,-0.9,0.2,-1.1c0,-0.2,0.4,-1.1,0.2,-1.2Z" class="g1_60" />
<path d="M137.2,471.6c0.1,0,1.7,-1,2.1,-1.4c0.3,-0.4,0.8,-0.9,0.8,-1c-0.1,0,0.1,-0.4,0.1,-0.4c0,0,-0.9,1.2,-1,1.2c-0.1,0.1,-2,1.6,-2,1.6Z" class="g1_60" />
<path d="M136,470.8c0.1,0,0.9,-0.7,1.1,-0.7c0.1,0,0.7,0,1.2,-0.2c0.6,-0.2,0.7,-0.5,1,-0.7c0.3,-0.2,0.6,-0.5,0.6,-0.5c0,0,-0.5,-0.1,-0.7,0c-0.2,0,-0.5,0.1,-0.7,0.3c-0.3,0.1,-1.1,0.4,-1.1,0.5c-0.1,0.1,-0.2,0.4,-0.3,0.4c-0.1,0.1,-1.1,0.9,-1.1,0.9Z" class="g1_60" />
<path d="M133.8,470.5c0.1,0,1.2,-0.6,1.5,-0.7c0.3,-0.1,0.7,-0.3,0.8,-0.3c0.2,0,0,0.1,-0.1,0.2c0,0.2,-1.3,1.1,-1.2,1.1c0.1,-0.1,1.4,-1.1,1.6,-1.1c0.3,-0.1,0,0.3,-0.2,0.5c-0.2,0.2,-0.9,0.7,-0.8,0.7c0,-0.1,1.5,-1.1,1.6,-1.4c0.2,-0.2,0.5,-0.6,0.7,-0.6c0.3,-0.1,0.8,-0.1,0.8,-0.1c0,0,-1,0,-0.9,-0.2c0.1,-0.1,0.7,-0.3,0.8,-0.3c0.2,-0.1,-0.2,0,-0.8,0c-0.5,0,-1.4,0.1,-1.7,0c-0.3,0,-0.7,0,-0.9,-0.1c-0.1,0,0,0.2,0.1,0.3c0,0,-0.7,0.4,-0.9,0.4c-0.2,0,-0.7,0.5,-1.2,0.6c-0.4,0.2,-1.3,0.8,-1.4,0.8c-0.1,0.1,1.2,-0.5,1.2,-0.4c0,0.2,-0.4,0.8,-0.8,1.3c-0.4,0.4,-1.6,1.2,-1.6,1.2c0,0,1.2,-0.5,1.9,-1.3c0.7,-0.7,0.9,-1.1,1,-1.1c0.2,-0.1,0.4,-0.4,0.6,-0.4c0.2,0,-0.1,0.5,-0.1,0.5l-1.1,1.1c0,0,1.7,-1.3,2,-1.5c0.4,-0.2,0.6,-0.2,0.6,-0.2Z" class="g1_60" />
<path d="M137.2,468.1c0,0,1.2,-0.5,1.2,-0.6c0,-0.1,-0.1,-0.2,-0.4,-0.1c-0.3,0.1,-0.8,0.5,-1.5,0.5c0,0,1.1,-0.5,1.1,-0.5c0,0,0.4,-0.1,0.8,-0.2c0.3,0,0.9,-0.3,0.9,-0.3c0,0,-0.6,0.5,-0.8,0.7c-0.2,0.2,-0.2,0.4,-0.6,0.4c-0.4,0.1,-0.7,0.1,-0.7,0.1Z" class="g1_60" />
<g clip-path="url(#c6_60)">
<path d="M137,466.4c-0.1,0,0.6,0.1,1.3,0c0.6,-0.2,1,-0.5,1.2,-0.7c0.2,-0.1,0.9,-0.6,1,-0.6c0.1,-0.1,0.1,-0.1,0.3,0.1c0.3,0.1,1,0.5,1,0.8c0,0.3,0,0.7,0,0.7c0.1,0,0.1,-0.6,0.1,-0.6c0,0,0.3,0.4,0.4,0.9c0.4,-0.3,-0.7,-2.1,-1.7,-2.2c-1,-0.1,-0.7,0,-0.8,0c0,0,0,-0.2,0,-0.3c0.1,-0.1,-0.2,-0.1,-0.2,-0.1l0.3,-0.5c0,0,-0.5,0.4,-0.6,0.4c-0.1,-0.1,0,-0.3,0.1,-0.3c0.1,-0.1,0.3,-0.2,0.3,-0.2c0,0,-0.3,-0.1,-0.5,0.2c-0.1,0.2,-0.3,0.2,-0.3,0.2c-0.1,0.1,-0.2,0,-0.1,-0.2c0.2,-0.1,0.5,-0.5,0.5,-0.5c0,0,-0.6,0.5,-0.6,0.4c0,-0.1,0.1,-0.5,-0.4,-1c-0.5,-0.4,-0.7,-0.7,-1.3,-0.8c-0.7,-0.2,-1.3,-0.1,-1.3,-0.1c-0.1,0,1,0.2,1.3,0.4c0.4,0.1,0.9,0.5,1.2,1.1c-0.2,-0.2,-0.6,-0.7,-1,-0.8c0.4,0.4,0.7,0.6,0.7,0.8c0.1,0.3,-0.4,-0.5,-1.4,-0.9c-1,-0.4,-1.7,-0.5,-2.1,-0.4c-0.4,0.1,-1,0.3,-1,0.3c0,0,1.4,0.1,2,0.3c0.6,0.2,0.6,0.3,0.8,0.3c0.2,-0.1,0.3,-0.1,0.6,0c0.2,0.1,0.9,0.3,0.5,0.4c-0.4,0,-1.5,-0.2,-2.1,-0.2c-0.5,0,-0.6,0,-0.6,0c0,0,0.8,0.3,1.2,0.3c0.4,0,1.3,0,1.6,0.1c0.2,0.1,0.7,0.5,0.4,0.5c-0.3,-0.1,-0.5,-0.1,-0.5,-0.1c0,0,0.6,0.3,0.6,0.4c-0.1,0.1,-0.6,-0.1,-0.8,-0.2c-0.2,-0.1,0.3,0.3,0.6,0.4c0.3,0.2,0.5,0.2,0.9,0.2c0.3,0.1,0.8,0.1,0.7,0.2c0,0.1,0.2,0.2,-0.6,0.1c-0.7,-0.1,-1.8,-0.6,-2.2,-0.6c-0.3,-0.1,-0.5,0,-0.5,0c0,0,0.6,0.2,0.9,0.3c0.2,0.1,1.2,0.4,1.4,0.5c0.2,0.1,-0.8,-0.1,-1.1,0c-0.2,0,-0.5,0,-0.5,0c0,0,1.2,0.2,1.2,0.2c0,0.1,-0.8,0.1,-1,0.1c-0.3,0,-1.3,-0.1,-1.4,-0.1c-0.1,0,1.8,0.3,1.7,0.3c-0.2,0.1,-1.5,0.6,-3.6,-0.4c-0.2,-0.2,0.7,0.6,1,0.7c0.3,0.1,1,0.2,1.3,0.2c0.4,-0.1,1.7,-0.4,1.9,-0.4c0.1,0.1,-0.4,0.5,-0.8,0.4Z" class="g1_60" />
</g>
<path d="M132.3,465.1c0.4,0.1,0.4,0.3,0.8,0.6c0.5,0.3,1.1,0.5,1.4,0.7c0.3,0.2,0.7,0.3,1,0.5c0.4,0.2,1,0.6,1.3,0.6c0.2,0,-0.4,0.2,-0.7,0.2c-0.4,0,-0.6,-0.3,-1,-0.3c-0.5,0,-0.8,-0.1,-1.5,0c-0.7,0.2,-1,0.2,-1.3,0.3c-0.3,0.1,-0.8,0.1,-1.2,0.1c-0.5,0,-0.7,0.1,-1.3,0c-0.6,0,-1.1,0,-1.4,0.1c-0.3,0.1,-0.8,0.5,-0.9,0.5c-0.1,0,-0.3,0,-0.4,0.1c-0.1,0.1,-0.5,0.5,-0.6,0.7c0,0.1,0.3,-0.7,0.6,-1c0.4,-0.2,0.8,-0.3,1.2,-0.5c0.3,-0.1,0.3,-0.3,1,-0.2c0.6,0.1,1.5,0,1.8,0c0.3,0,1.1,0.1,1.5,-0.1c0.4,-0.1,1.6,-0.2,1.7,-0.3c0.2,-0.1,-0.4,-0.1,-0.8,-0.1c-0.5,0,-1,0.1,-1.6,0c-0.6,0,1.4,0,1.5,-0.2c0.1,-0.2,0.1,-0.3,-0.1,-0.4c-0.1,0,-0.5,0,-0.8,-0.1c-0.4,0,-1.2,0,-1.8,0c-0.5,0,-1.3,0,-1.7,0.1c-0.4,0.2,-1.2,0.8,-1.3,0.9c-0.1,0,0.9,-1.1,1.5,-1.2c0.6,0,2.9,0,3.4,0.1c0.5,0,1.2,0.4,1.5,0.4c0.2,0,0.4,0,0,-0.2c-0.3,-0.1,-1.4,-0.5,-1.6,-0.5c-0.2,0,-1.3,-0.1,-1.7,0c-0.4,0.1,0.6,-0.2,1.1,-0.2c0.5,0,0.7,-0.1,0.5,-0.2c-0.1,-0.1,-0.5,0,-0.8,0c-0.3,0.1,-1,0,-1.3,0.1c-0.3,0.1,-1.2,0.3,-1.5,0.3c-0.2,0.1,-0.9,0.3,-0.8,0.3c0.1,-0.1,1.2,-0.6,1.6,-0.7c0.5,-0.1,1.9,-0.2,1.9,-0.2c0,0,-0.1,-0.2,-0.7,-0.2c-0.6,0.1,-1.6,0.3,-1.7,0.3c-0.1,0,0.6,-0.3,1,-0.4c0.4,0,1.2,-0.3,2.2,0.1Z" class="g1_60" />
<g clip-path="url(#c6_60)">
<path d="M133.3,462.2c0,0,-0.6,-0.2,-1.2,-0.1c-0.5,0,-0.8,0.1,-1.3,0.2c-0.4,0.2,-1.3,0.4,-1.5,0.6c-0.2,0.2,-1.2,0.6,-1.4,0.9c-0.3,0.2,-1,0.8,-0.9,0.8c0,0,1,-0.8,1.2,-0.8c0.2,0,0.2,0.2,-0.2,0.4c-0.5,0.2,-0.9,0.5,-0.9,0.5c0.1,0,0.4,0,0.3,0.1c-0.1,0.1,-1,0.8,-1.1,1.1c-0.2,0.2,0.8,-0.7,0.7,-0.5c0,0.2,-1,1.3,-1.1,1.5c-0.1,0.2,-0.2,0.8,-0.2,0.8c0,0,0.4,-0.7,0.5,-0.7c0.1,0,-0.1,0.5,-0.3,0.7c-0.1,0.2,-0.3,0.5,-0.3,0.7c-0.1,0.1,0,0.8,0.1,0.8c0,0,0.2,1.4,0.2,1.4c0,0,0.2,-0.4,0.3,-0.3c0.1,0,0,0.8,0,0.8c0,0.1,0,0.6,0,0.5c0,0,0.5,-0.3,0.4,-0.2c-0.1,0.2,-0.3,0.3,-0.4,0.5c0,0.1,0.1,0.1,0.2,0.2c0.1,0.2,-0.1,0.7,-0.1,0.7c0,0,0.1,0.2,0.2,0.2c0.1,-0.1,0.4,-0.3,0.4,-0.3c0.1,0,0,0.6,0,0.6c0,0,0,0.4,0.1,0.4c0.1,0.1,0.3,0.3,0.3,0.3c0,0.1,-0.1,0.5,0,0.6c0,0.1,0,0.4,0.2,0.6c0,0,0.2,0.5,0.1,0.7c0,0.3,0.1,0.5,0.1,0.5c0,0,0.7,0.7,0.7,1.1c0.1,0.3,0.2,0.7,0.2,0.7c0,0,-0.1,-0.8,-0.2,-1.1c-0.1,-0.2,-0.4,-0.9,-0.4,-1.4c0,-0.4,-0.1,-1.4,0,-1.6c0.2,-0.2,0.3,-0.2,0.3,-0.1c0.1,0.1,0.1,0.4,0.2,0.3c0.1,-0.1,0.2,-0.1,0.3,-0.2c0,-0.1,0.1,0.1,0.1,0c0,0,0,-0.6,0,-0.6c0.1,-0.1,0.2,0.2,0.2,0.2c0,0,0,-0.4,0.1,-0.4c0,-0.1,0.4,-0.3,0.5,-0.3c0,-0.1,0.1,-0.4,0.1,-0.6c0,-0.1,0.4,-0.5,0.4,-0.5c0,0,-0.1,0.7,-0.2,0.9c-0.1,0.1,0,1.1,0.1,1c0,0,0.1,-1.5,0.3,-1.7c0.1,-0.3,0.6,-0.8,0.6,-0.8c0,0,-0.6,0.5,-0.6,0.5c0,-0.1,0.5,-0.6,0.5,-0.6c-0.1,0.1,-1.1,0.8,-1.1,0.8c0,0,-0.5,0.6,-0.5,0.7c-0.1,0.1,0,-0.4,0.1,-0.6c0.1,-0.2,-0.5,0.5,-0.6,0.6c-0.1,0,-0.2,0.1,-0.1,-0.4c0.1,-0.5,0.2,-0.8,0.2,-0.8c0,0,-0.4,0.3,-0.4,0.8c-0.1,0.4,-0.3,0.5,-0.3,0.5c0,0,0.1,-1.1,0.2,-1.3c0.1,-0.3,0.3,-0.7,0.3,-0.8c0,-0.1,0.1,-0.5,0.2,-0.5c0,-0.1,-0.5,0.2,-0.5,0.4c-0.1,0.2,-0.1,0.4,-0.3,0.6c-0.1,0.3,-0.5,0.7,-0.5,0.8c0,0,-0.2,-0.5,-0.1,-0.7c0,-0.2,0.2,-0.9,0.4,-1.1c0.2,-0.2,0.1,0.3,0.1,0.3c0,0,0.3,-0.5,0.4,-0.6c0.2,0,0.4,-0.5,0.4,-0.5c0,0,-0.1,0.7,-0.1,0.6c0.1,-0.1,0.6,-0.6,0.6,-0.6c0,0,-0.4,0.9,-0.3,0.9c0.1,-0.1,0.6,-0.6,0.8,-0.8c0.2,-0.1,0.4,-0.1,0.4,-0.1c0,0,-0.8,1.1,-0.8,1.1c0.1,-0.1,1.1,-1.1,1.3,-1.1c0.1,-0.1,0.1,0.2,0.1,0.2c-0.1,0.1,-1.1,1.1,-1.1,1.1c0,-0.1,1.1,-0.7,1.3,-0.9c0.1,-0.2,0.2,-0.4,0.2,-0.4c0,0,-0.1,-0.3,0,-0.3c0.1,0,0.8,-0.5,1.6,-0.4c0.7,0.1,0.7,0,0.9,0c0.3,0,0.5,-0.1,0.5,-0.1c0,0,-0.7,-0.1,-1,-0.1c-0.3,0,0.6,-0.1,0.8,-0.1c0.2,-0.1,-1.2,0,-1.4,-0.1c-0.2,-0.1,-0.5,-0.2,-0.8,-0.1c-0.3,0.1,-0.6,0.3,-1,0.4c-0.3,0.1,-0.2,-0.1,-0.8,0c-0.6,0.1,-0.8,0.1,-1,0.3c-0.3,0.1,-0.7,0.4,-0.8,0.4c0,0.1,0.1,-0.2,0.3,-0.3c0.2,-0.1,-0.4,0.3,-1,0.4c-0.6,0.1,-0.6,0.4,-0.6,0.4c0,0,0,-0.4,0.1,-0.4c0,-0.1,0.3,-0.2,0.7,-0.4c0.4,-0.2,0.6,-0.5,1,-0.5c0.5,-0.1,1.3,-0.2,1.4,-0.2c0.1,0,-0.8,-0.1,-1.1,-0.1c-0.3,0,-1.3,0.5,-1.5,0.7c-0.1,0.1,-0.6,0.2,-0.7,0.3c0,0,-0.4,0.2,-0.4,0.2c0,0,-0.1,-0.7,0.3,-1c0.3,-0.2,0.5,-0.8,0.6,-0.8c0.2,0,0.5,-0.1,0.5,-0.1c0,0,-0.2,-0.1,-0.7,0c-0.6,0.2,0.3,-0.4,0.5,-0.7c0.2,-0.3,-0.4,-0.1,-0.4,-0.1c0,0,-0.5,0.4,-0.7,0.8c-0.1,0.3,0.2,-0.8,0.4,-1.1c0.3,-0.2,0.5,-0.5,0.7,-0.7c0.3,-0.3,0.9,-0.3,0.9,-0.3c0,0,0.7,-0.2,0.8,-0.4c0.1,-0.1,-0.5,0,-0.3,-0.1c0.2,-0.2,0.5,-0.3,0.3,-0.4c-0.3,0,-0.7,0.5,-1,0.6c-0.4,0.1,0.1,-0.3,0.1,-0.3c0,0,0.3,-0.6,1.2,-0.6c0.9,0,1.1,-0.3,1.2,-0.3c0.2,0,0.1,0.2,0.7,0.3c0.7,0.2,1.1,0.3,1.1,0.3c0,0,-0.6,-0.3,-0.5,-0.4c0.2,-0.1,0.9,0,1.3,0.1c0.5,0.1,1.3,0.3,1.5,0.3c0.3,0,-0.6,-0.4,-0.8,-0.5c-0.2,0,-1.4,-0.4,-1.7,-0.2c-0.3,0.1,-0.4,0.4,-0.8,0.3c-0.4,-0.2,-0.9,-0.5,-0.5,-0.6c0.4,-0.1,1,0,1.2,0c0.3,0,1.4,0.2,1.6,0.1c0.2,-0.1,-0.9,-0.3,-1.1,-0.3c-0.1,0,-0.7,-0.1,-1.4,-0.1c-0.6,0,-1.1,0.2,-1.4,0.3c-0.2,0.2,-1.2,0.5,-1.3,0.6c-0.1,0.1,0.5,-0.7,0.8,-0.8c0.3,-0.1,0.9,-0.8,2,-0.9c1,-0.1,1.8,-0.2,1.8,-0.2Z" class="g1_60" />
</g>
<path d="M126.8,472.9c0,0,-0.3,0.4,-0.3,0.6c0,0.3,0.1,0.6,0.1,0.6c0,0,0,-0.3,0.1,-0.2c0.2,0,0.2,0.2,0.3,0.4c0.1,0.1,0.2,-0.2,0.1,-0.3c-0.1,-0.1,-0.5,-0.5,-0.3,-1.1Z" class="g1_60" />
<path d="M126.6,474.7c0.1,0.1,0.2,0.4,0.2,0.6c0,0.3,0.1,0.7,0.5,1.1c0.4,0.4,0.3,0.4,0.5,0.7c0.2,0.3,0.5,0.4,0.5,0.4c0,0,-0.3,-0.3,-0.4,-0.5c-0.1,-0.2,-0.9,-0.9,-1,-1.4c0,-0.6,-0.3,-0.9,-0.3,-0.9Z" class="g1_60" />
<g clip-path="url(#c6_60)">
<path d="M130.1,481.9c0,0,0.1,1,0.1,1.4c0,0.4,0,0.7,-0.1,1c-0.2,0.2,-0.4,0.6,-0.7,0.8c-0.3,0.1,-0.3,0,-0.6,0c-0.3,0.1,-0.6,0.2,-1,0.4c-0.4,0.2,-0.9,0.4,-1.2,0.5c-0.3,0.1,-0.5,0.3,-1,0.4c-0.5,0.1,-0.8,0.3,-1.3,0.5c-0.4,0.2,-2,1.1,-2.4,1.3c-0.5,0.2,2.3,-1.1,2.4,-1.1c0.2,0,-2.9,2.1,-2.1,1.8c0.7,-0.3,2.4,-1.5,2.9,-1.8c0.5,-0.3,0.8,-0.5,1,-0.5c0.2,0,-0.2,0.9,-0.6,1.2c-0.4,0.4,-1.1,1.9,-1,1.8c0.1,-0.1,2,-2.8,2.3,-3.1c0.4,-0.2,0.7,-0.4,0.7,-0.3c0.1,0.2,-0.1,1,0,1.4c0.1,0.5,0.8,2.3,0.8,2.5c0.1,0.2,-0.2,-1.1,-0.1,-1.6c0.1,-0.4,0.2,-0.9,0.3,-0.7c0.2,0.3,1.3,3.1,1.7,3.7c0.4,0.5,1.3,1.7,1.3,1.7c0,0,-3.1,-5,-2.9,-6.4c0.1,-1.5,0.5,-1.4,1,-1.5c0.4,-0.1,0.6,-0.3,0.8,-1c0.1,-0.3,-0.3,-2.4,-0.3,-2.4Z" class="g1_60" />
<path d="M140.2,483.1c0,0.3,0.5,1,1,1.2c0.6,0.3,1.4,0.3,1.6,0.4c0.3,0.2,1.1,0.5,1.7,0.6c0.6,0.2,2.5,0.5,2.5,0.5c0.1,0.1,-2.3,-0.2,-2.5,-0.1c-0.2,0.1,-0.2,0.6,-0.2,0.9c0,0.3,-0.2,-0.3,-0.4,-0.7c-0.2,-0.4,-0.6,-0.5,-0.6,-0.1c0,0.5,-0.4,1.5,-0.7,2.1c-0.3,0.6,-1.5,1.5,-1.8,2c-0.2,0.4,-0.9,0.7,-0.9,0.7c0,0,1.4,-2.5,1.7,-3.1c0.2,-0.6,0.7,-2.4,0.5,-2.6c-0.2,-0.1,-1.2,-0.3,-1.6,-0.8c-0.3,-0.4,-0.3,-1,-0.3,-1Z" class="g1_60" />
</g>
<path d="M134.2,561.5c-0.1,0,-0.1,-0.1,-0.1,-0.2c0,0,0,-0.1,0.1,-0.1c0.1,0,0.1,0.1,0.1,0.1c0,0.1,0,0.2,-0.1,0.2m0.5,-0.3C134.5,561.1,134,561,133.8,561c-0.2,0,-1.1,0.4,-1.1,0.4c0,0,0.2,0,0.2,0c0.1,0,0.5,-0.2,0.5,-0.2c0,0,-0.1,0.5,0.4,0.6c0.5,0.2,0.7,-0.2,0.8,-0.4c0,-0.3,0.8,0.4,1,0.5c-0.2,-0.1,-0.8,-0.6,-0.9,-0.7Z" class="g2_60" />
<path d="M140.5,561.7c0,0,-0.1,0,-0.1,-0.1c0,-0.1,0.1,-0.1,0.1,-0.1c0.1,0,0.2,0,0.2,0.1c0,0.1,-0.1,0.1,-0.2,0.1m1.3,0c0,0,-0.6,-0.3,-0.9,-0.4c-0.3,0,-0.6,0,-0.9,0.1c-0.4,0.2,-1.1,0.7,-1.1,0.7c0,0,0.8,-0.6,0.9,-0.4c0.1,0.2,0.1,0.5,0.7,0.4c0.6,0,0.4,-0.6,0.4,-0.6c0,0,0.1,0,0.4,0.1c0.2,0.1,0.5,0.1,0.5,0.1Z" class="g2_60" />
<path d="M136.2,560.8c0.1,0,0.3,-0.5,-0.2,-0.8c-0.5,-0.3,-1.6,-0.5,-2.1,-0.5c-0.4,0,-1.4,0.3,-1.6,0.4c-0.3,0.1,-0.6,0.4,-0.6,0.4c0,0,0.9,-0.2,1.3,-0.1c0.5,0,1,0,1.5,0.2c0.6,0.1,1.2,0.4,1.4,0.5c0.2,0,0.3,-0.1,0.3,-0.1Z" class="g2_60" />
<path d="M138.7,560.9c0,0,0.1,-0.9,0.9,-1c0.8,-0.1,1.9,-0.3,2.2,-0.2c0.4,0.1,0.9,0.5,1.1,0.9c-0.2,-0.1,-0.7,-0.3,-1.3,-0.2c-0.6,0,-1.6,0.3,-2,0.4c-0.4,0.1,-0.8,0.2,-0.9,0.1Z" class="g2_60" />
<path d="M135.6,564.5c-0.1,0,-0.5,0.5,-0.7,0.8c-0.1,0.3,0,0.6,0.1,0.6c0.1,0.1,0.5,0.2,0.8,0.2c0.4,0,0.8,0,1,0.1c0.1,0,0.3,0.2,0.4,0.3c0.1,0,0.5,0.1,0.7,0c0.1,-0.1,0.2,-0.3,0.4,-0.3c0.2,-0.1,0.5,-0.1,0.8,-0.1c0.3,0.1,0.4,0,0.3,0.1c0,0.1,-0.4,0.2,-0.5,0.2c-0.2,-0.1,-0.6,-0.1,-0.7,0c-0.1,0,-0.4,0.3,-0.5,0.3c-0.2,0,-0.4,0.1,-0.9,-0.2c-0.5,-0.4,-0.7,-0.2,-1.2,-0.3c-0.5,0,-0.8,-0.1,-0.9,-0.5c0,-0.6,0.9,-1.2,0.9,-1.2Z" class="g2_60" />
<path d="M138.9,564.2c0,0,0,0.3,0.1,0.5c0.1,0.2,0.5,0.3,0.6,0.5c0.1,0.1,0.1,0.3,0.1,0.4c0,0,0.1,-0.2,0,-0.5c-0.2,-0.3,-0.5,-0.4,-0.6,-0.6c-0.1,-0.1,-0.2,-0.3,-0.2,-0.3Z" class="g2_60" />
<path d="M133.4,567.6c0,0,1.8,-0.4,3,-0.4c0.8,0.1,1.5,0.1,1.7,0c0.2,0,2,0.5,2,0.5c0,0,0,0.2,-0.2,0.3c-0.1,0.1,-0.5,0.3,-0.7,0.3c-0.1,0,-1.3,-0.2,-1.7,-0.2c-0.3,0,-1,-0.1,-1.5,-0.1c-0.4,0,-1.3,0,-1.5,-0.1c-0.2,-0.1,-0.7,-0.2,-0.7,-0.2c0,0,0.5,0.3,0.9,0.6c0.4,0.2,1.8,0.7,2.2,0.8c0.3,0.1,0.7,0,1.1,-0.2c0.3,-0.1,0.2,-0.2,0.7,-0.3c0.5,-0.1,0.9,-0.3,0.9,-0.3c0.1,0,0.2,0.1,-0.1,0.4c-0.2,0.3,-0.5,1.2,-1.6,1.4c-1,0.2,-1.9,-0.1,-2.8,-0.7c-0.8,-0.6,-1,-1,-1,-1c0,0,1.3,1.2,2.1,1.3c0.9,0.2,1.2,0.1,1.7,0c0.5,-0.2,0.9,-0.5,0.9,-0.6c-0.1,-0.1,0,-0.1,-0.6,0.2c-0.7,0.2,-1.1,0.4,-1.9,0.2c-0.8,-0.2,-1.3,-0.7,-1.6,-0.8c-0.2,-0.2,-0.9,-0.8,-1.3,-1.1Z" class="g2_60" />
<path d="M140.1,566.6c0,0,0.4,0.5,0.5,0.8c0.2,0.2,0.2,0.4,0.2,0.4c0,0,0.2,-0.2,0.1,-0.4c-0.1,-0.2,-0.5,-0.7,-0.8,-0.8Z" class="g2_60" />
<path d="M133.9,566.3c0.1,-0.1,-0.7,0.7,-0.7,0.8c-0.1,0.1,0,1,0,1.1c0,0.2,-0.2,-1.1,0.7,-1.9Z" class="g2_60" />
<g clip-path="url(#c7_60)">
<path d="M129,559.5c-0.2,-0.1,0.3,0.3,0.4,0.3c0,0.1,0.1,-0.2,0,-0.4c0,-0.1,-0.2,-0.5,-0.3,-0.9c0,-0.5,0,-1.7,0,-2c-0.1,-0.3,0.1,-2.4,0.5,-3.1c0.4,-0.7,0.9,-1.3,1.1,-1.6c0.1,-0.3,1.7,-1.4,2.9,-1.8c1.3,-0.4,2.3,-0.6,3.8,-0.4c1.5,0.3,2.7,0.7,3.1,1.1c0.5,0.3,1.6,1.5,2,1.9c0.4,0.4,0.3,0.5,0.6,0.9c0.4,0.3,0.5,1.5,0.5,1.9c0.1,0.3,0,1.6,0,1.8c-0.1,0.2,-0.1,0.7,-0.2,1.1c-0.1,0.5,-0.2,1.1,-0.1,1.5c0,0.4,-0.3,1.2,-0.3,1.2c0,0,0,-1.1,0,-1.4c0,-0.2,0,-2.1,-0.1,-2.4c-0.1,-0.3,0,-0.7,0,-0.9c0,-0.3,0,-0.8,0,-1.1c-0.1,-0.2,-0.2,-1,-0.5,-1.3c-0.3,-0.3,-0.6,-0.5,-0.7,-0.4c-0.2,0.1,-0.1,0.2,-0.4,0.2c-0.3,-0.1,-0.3,-0.2,-0.4,-0.3c-0.1,0,-0.2,0,-0.4,0.1c-0.2,0.1,-0.5,0,-0.6,0c-0.2,0,-0.6,0.1,-0.7,0.1c-0.2,-0.1,-0.3,0,-0.6,-0.1c-0.4,-0.1,-0.6,0,-0.7,0c-0.1,-0.1,-0.1,-0.1,-0.3,-0.2c-0.2,-0.1,-0.4,0,-0.3,0.1c0.1,0,0.3,0.2,0.2,0.2c-0.2,0,-0.3,0,-0.6,-0.1c-0.3,-0.1,-0.3,0.1,-0.5,0.1c-0.1,0,-0.6,0.1,-0.8,0c-0.2,0,-0.5,0,-0.7,-0.1c-0.3,0,-0.6,0.2,-0.7,0.1c-0.2,-0.1,-0.3,-0.1,-0.5,-0.1c-0.1,0,-0.2,0,-0.4,0c-0.2,0,-0.5,-0.1,-0.5,-0.1c0,0,-0.1,0.2,-0.3,0.2c-0.2,0,-0.5,0,-0.6,0c-0.1,0,-0.3,0.2,-0.3,0.3c-0.1,0,-0.2,0,-0.3,0.2c-0.1,0.1,-0.1,0.5,-0.1,0.5l0,0.5c0,0,-0.2,0.7,-0.2,0.9c0,0.1,0.1,0.8,0.1,1c0,0.3,0,0.8,-0.1,0.9c-0.1,0.1,-0.4,0.4,-0.4,0.5c-0.1,0.1,-0.3,0.2,-0.3,0.4c0,0.1,-0.2,0.3,-0.2,0.4c-0.1,0.2,-0.3,1.2,-0.3,1.2c0,0,-0.7,-0.8,-0.8,-0.9Z" class="g2_60" />
</g>
<path d="M143.6,559.8c0,0,-0.1,0.4,-0.1,0.6c-0.1,0.1,-0.3,0.3,-0.3,0.6c-0.1,0.4,0,0.8,0.1,1.1c0,0.2,0,0.4,0,0.4c0,0,0.1,-1,0.1,-1.1c0,-0.1,0,-0.5,0,-0.7c0.1,-0.1,0.2,-0.6,0.2,-0.9Z" class="g2_60" />
<path d="M129.5,561.9c0.1,-0.1,0.1,-0.4,0,-0.5c0,0,-0.1,-0.1,-0.3,0.1c-0.1,0.2,-0.3,0.4,-0.4,0.6c-0.1,0.2,-0.2,0.4,0,0.5c0.1,0.2,0.4,0.3,0.5,0.5c0.2,0.3,0.6,0.4,0.6,0.4c0,0,-0.3,-0.4,-0.3,-0.6c-0.1,-0.1,-0.3,-0.1,-0.3,-0.3c-0.1,-0.2,-0.1,-0.4,0,-0.4c0,0.1,0.1,0.4,0.2,0.4c0,0,0,-0.7,0,-0.7Z" class="g2_60" />
<g clip-path="url(#c7_60)">
<path d="M128.5,561.6c0.1,-0.1,0.4,-1.1,0.4,-1.2c0,-0.1,0.2,0.4,0.3,0.5c0.2,0.1,0.4,0.3,0.3,0.2c0,-0.1,-0.3,-0.8,-0.4,-0.9c-0.1,-0.2,-0.4,-0.5,-0.5,-0.4c-0.2,0.2,-0.3,0.8,-0.3,1.1c0,0.2,0,0.5,0.1,0.8c0.1,0.2,0,0.4,0,0.8c0.1,0.3,0.2,0.9,0.3,1.1c0.1,0.3,0.1,0.4,0.2,0.8c0.2,0.3,0.4,0.4,0.6,0.4c0.2,0.1,0.6,0,0.6,0c0,0,0,0.6,0.1,0.8c0,0.1,0.3,2,0.6,3.1c0.2,0.7,-0.2,2.5,-0.2,2.5c0,0,-1.3,1.4,-2.8,1.9c-1.4,0.4,-3.7,1.7,-3.6,1.7c-0.2,0.1,1.9,-1,2.4,-0.8c0.5,0.2,1.1,-0.2,1.3,-0.4c0.2,-0.2,1.3,-0.8,1.4,-0.9c0.2,-0.1,0.9,-0.8,1,-0.9c0.2,-0.2,0.4,-0.3,0.5,-0.9c0.1,-0.6,0.2,-1.6,0.1,-2.1c-0.1,-0.6,-0.6,-2,-0.7,-4c0,-0.3,-0.6,-0.1,-0.9,-0.2C129,564.4,129,564.2,128.9,564c0,-0.3,0,-0.4,-0.1,-0.6c0,-0.3,-0.2,-0.6,-0.2,-0.8c0,-0.2,-0.1,-1,-0.1,-1Z" class="g2_60" />
<path d="M131.9,570.2c0.1,0,1.4,1.4,1.8,1.7c0.4,0.3,1.1,1,1.3,1.1c0.3,0.1,1.4,0.4,1.8,0.4c0.5,0,1,0,1.2,-0.1c0.3,-0.1,1.2,-0.8,1.4,-1.1c0.1,-0.2,1.2,-1.5,1.4,-1.8c0.2,-0.3,0.8,-0.8,1,-1.3c0.1,-0.5,0.7,-1.6,0.9,-2.4c0.2,-0.7,0.6,-3.8,0.6,-3.9c0.1,0.2,-0.2,3.7,-1,5.4c-0.8,1.7,-1.7,2.5,-1.7,2.7c0,0.1,-0.2,1.1,-0.1,1.3c0,0.3,-0.1,0.5,0.3,0.8c0.5,0.4,1,0.5,1.4,0.7c0.5,0.2,1.7,1.2,1.7,1.2c0,0,-2,-1.2,-2.2,-1.2c-0.1,0,-0.9,-0.3,-1.1,-0.4c-0.2,-0.1,-0.2,-0.8,-0.5,-0.8c-0.3,-0.1,-0.5,0,-0.6,0.1c-0.2,0.1,-0.8,0.5,-1.1,0.7c-0.2,0.2,-1.2,0.5,-2.1,0.3c-0.8,-0.1,-1.4,-0.2,-2.5,-1.3c-1.1,-1.2,-1.9,-2.1,-1.9,-2.1Z" class="g2_60" />
<path d="M126.6,573.6c0,0,1.7,1.4,2,1.6c0.3,0.3,1.5,1.3,1.9,1.7c0.4,0.4,2,1.5,3.8,1.7c1.8,0.2,3.1,0.2,4,0.1c0.9,-0.2,1.3,-0.5,1.3,-0.5c0,0,-0.8,0.7,-1.5,0.8c-0.7,0.1,-2.9,-0.1,-3.5,-0.2c-0.6,0,-1.7,-0.1,-3.1,-0.9c-1.3,-0.8,-3.5,-2.7,-3.9,-3.1c-0.5,-0.4,-0.9,-0.7,-1.5,-0.7c-0.5,0,-1.9,0.7,-1.9,0.7c0,0,2,-1.1,2.4,-1.2Z" class="g2_60" />
</g>
<path d="M132,561.4c0,0,0.5,-0.2,0.8,-0.3c0.4,-0.1,0.7,-0.1,1,-0.1c0.3,0,1.2,0.1,1.4,0.2c0.2,0,0.8,0.5,0.9,0.7c-0.7,-0.7,-1.1,-0.6,-1.4,-0.7c-0.4,-0.1,-1.2,-0.1,-1.7,0c-0.5,0,-1,0.2,-1,0.2Z" class="g2_60" />
<path d="M138.9,561.9c0,0,0.8,-0.6,1,-0.6c0.3,-0.1,1.1,-0.1,1.3,-0.1c0.3,0,0.8,0.3,0.8,0.3c0.1,0,-0.3,-0.1,-0.5,-0.1c-0.2,-0.1,-1,-0.1,-1.2,-0.1c-0.3,0,-1.3,0.5,-1.4,0.6Z" class="g2_60" />
<text 
x="687" 
y="67" 
dx="0,0,0,0,0,0,0,-0.9,0,0,0,0,0,0,0" 
class="s3_60"
>After You Study</text>

<text 
x="687" 
y="89" 
dx="0,0.1,0.1,0.1,0.1,0.1,0.1,0.1,0.1,0.1,0.1,0.1,-0.1,0.1,0.1,0.1,0.1,0.1,0.1,0.1,0" 
class="s4_60"
>Answer the following </text>

<text 
x="687" 
y="103" 
dx="0,0.1,0.1,0.1,0.1,0.1,0.1,0.1,0.1,0.1,0.1,0.1,0.1,0.1,0.1,0.1,0.1,0.1,0.1,0.1,0.1" 
class="s4_60"
>questions in Chinese.</text>

<text 
x="687" 
y="133" 
dx="0,0" 
class="s5_60"
>1 </text>

<text 
x="710" 
y="135" 
dx="0,0,0,0,0,0,0,0,0,0" 
class="s6_60"
>張天明的房間裡有些 </text>

<text 
x="710" 
y="159" 
dx="0,0,0,0,0" 
class="s6_60"
>什麼傢俱？</text>

<text 
x="687" 
y="188" 
dx="0,0" 
class="s5_60"
>2 </text>

<text 
x="710" 
y="190" 
dx="0,0,0,0,0,0,0,0,0" 
class="s6_60"
>你覺得住在張天明的</text>

<text 
x="710" 
y="214" 
dx="0,0,0,0,0,0,0,0,0" 
class="s6_60"
>宿舍裡有什麼好處和</text>

<text 
x="710" 
y="239" 
dx="0,0,0.3" 
class="s6_60"
>壞處？</text>

<path d="M674.6,55l0,186.8" class="g3_60" />
<path d="M728.7,723.4l178.8,0" class="g4_60" />
<text 
x="728" 
y="708" 
dx="0,0.2,0.2,0.2,0.2,0.2,0.2,-0.1,0.2,0.2,0.2,0,-0.1,0.2" 
class="s7_60"
>Language Notes</text>

<path d="M74.3,763.9l9.4,0" class="g5_60" />
<path d="M74.3,852.5l9.4,0" class="g5_60" />
<text 
x="74" 
y="758" 
dx="0,0" 
class="s8_60"
>a </text>

<text 
x="95" 
y="763" 
dx="0,0" 
class="s9_60"
>同屋</text>

<text 
x="97" 
y="787" 
dx="0,0.1,0.1,0,0.1,0.1,0.1,0.1,0.1,0.1,0.1,0,0.1,0.1,-0.1,0.1,0.1,0.1,0,0.1,0.1,0.1,0.1,0.1,0,0.1,0.1,0.1,0.1" 
class="s10_60"
>Another word for roommate is </text>

<text 
x="274" 
y="787" 
dx="0,0.2" 
class="s11_60"
>室友</text>

<text 
x="317" 
y="787" 
dx="0,0,0,0,0,0,0,0,0" 
class="s12_60"
>(shìyǒu) </text>

<text 
x="97" 
y="812" 
dx="0,0.1,0.1,0.1,0.1,0.1,0.1,0,0.1,0.1,0.1,0.1,0.1,0.1,0.1,0.1,0.1,0.1,0.1" 
class="s10_60"
>(lit. room friend).</text>

<text 
x="74" 
y="847" 
dx="0,0" 
class="s8_60"
>b </text>

<text 
x="95" 
y="851" 
dx="0,0,0" 
class="s9_60"
>空调/</text>

<text 
x="160" 
y="851" 
dx="0,0" 
class="s13_60"
>空調</text>

<text 
x="97" 
y="876" 
dx="0,0.2" 
class="s11_60"
>空调</text>

<text 
x="137" 
y="876" 
dx="0" 
class="s10_60"
>/</text>

<text 
x="141" 
y="876" 
dx="0,0.2" 
class="s14_60"
>空調</text>

<text 
x="184" 
y="876" 
dx="0,0,0,0,0,0,0,0,0,0,0" 
class="s12_60"
>(kōngtiáo) </text>

<text 
x="241" 
y="876" 
dx="0,0.1,0.1,0.1,0.1,0.1,0.1,0.1,0.1,0.1,-0.1,0.1,0.1" 
class="s10_60"
>is short for </text>

<text 
x="306" 
y="876" 
dx="0,0.2,0.2,0.2,0.2" 
class="s11_60"
>空气调节器</text>

<text 
x="406" 
y="876" 
dx="0,0" 
class="s10_60"
>/ </text>

<text 
x="97" 
y="900" 
dx="0,0.2,0.2,0.2,0.2" 
class="s14_60"
>空氣調節器</text>

<text 
x="200" 
y="900" 
dx="0,0,0,0,0,0,0,0,0,0,0,0,0,0,0,0,0,0,0" 
class="s12_60"
>(kōngqì tiáojié qì)</text>

<text 
x="294" 
y="900" 
dx="0,0.1,0.1,0.1,0.1,0.1,0.1,0.1,0.1,0.1,0,0.1,0.1,0.1,0.1,0.1,0.1,0.1,0.1,0" 
class="s10_60"
>(air control or air </text>

<text 
x="97" 
y="925" 
dx="0,0.1,0.1,0.1,0.1,0.1,0.1,0.1,0.1,0.1,0.1,0.1,0.1,0.1,0.1,0.1,0.1,0.1,0.1,0.1,0.1,0.1,0.1,0.1,0.1,0.1,0.1,0.1,0.1,0.1,0.1,0.1,0.1,0.1,0.1,0.1,0.1,0.1,0.1,0.1,-0.1,0.1,0.1,0.1,0.1,0.1,0.1,0.1,0.1,0.1,0.1,0.1,0.1,0" 
class="s10_60"
>adjustment machine), although the long form is almost </text>

<text 
x="97" 
y="949" 
dx="0,0.1,0.1,-0.2,0.1,0.1,0.1,0.1,0.1,0.1,0.1,0.1" 
class="s10_60"
>never used. </text>

<text 
x="166" 
y="949" 
dx="0,0.2" 
class="s11_60"
>空调</text>

<text 
x="206" 
y="949" 
dx="0" 
class="s10_60"
>/</text>

<text 
x="210" 
y="949" 
dx="0,0.2" 
class="s14_60"
>空調</text>

<text 
x="253" 
y="949" 
dx="0,0.1,0.1,0.1,0.1,0.1,0.1,-0.2,0.1,0.1,0.1,0,0.1,0.1,0.1,0.1,0.1,0.1,0.1,0.1,0.1,0.1,0.1,0.1,0.1,0" 
class="s10_60"
>can have both heating and </text>

<text 
x="97" 
y="973" 
dx="0,0.1,0.1,0.1,0.1,0.1,0.1,0.1,0.1,0.1,0.1,0.1,0.1,0.1,0.1,0.1,0.1,0.1,0.1,0.1,0.1,0.1,0.1,0.1,-0.2,0.1,-0.9,0.1,0.1,0.1,0.1,0.1,0.1,0.1,0.1,0.1,0.1,0.1,0.1,0.1,0.1,0.1,0.1" 
class="s10_60"
>cooling functions. However, by definition, </text>

<text 
x="336" 
y="973" 
dx="0,0.2,0.2" 
class="s11_60"
>冷气机</text>

<text 
x="397" 
y="973" 
dx="0,0" 
class="s10_60"
>/ </text>

<text 
x="97" 
y="998" 
dx="0,0.2,0.2" 
class="s14_60"
>冷氣機</text>

<text 
x="160" 
y="998" 
dx="0,0,0,0,0,0,0,0,0,0,0" 
class="s12_60"
>(lěngqì jī)</text>

<text 
x="212" 
y="998" 
dx="0,0.1,0,0.1,0.1,0.1,0.1,0.1,0.1,0.1,0.1,0.1,0.1,0.1,0.1,0.1,0.1,0.1,0,0.1,0.1,0.1,0.1,0.1,0.1,0.1,0.1,0.1" 
class="s10_60"
>are only capable of cooling.</text>

<path d="M479.4,763.9l9.5,0" class="g5_60" />
<path d="M479.4,901.4l9.5,0" class="g5_60" />
<text 
x="479" 
y="758" 
dx="0,0" 
class="s8_60"
>c </text>

<text 
x="500" 
y="763" 
dx="0,0,0" 
class="s9_60"
>我大一</text>

<text 
x="502" 
y="787" 
dx="0,0.1,0.1,0.1,0.1,0.1,0.1,0.1,0.1,0.1,0.1,0.1,0.1,0.1,0.1,0.1,0.1,0.1,0.1,0.1,-0.1,0.1,0.1" 
class="s10_60"
>This phrase, short for </text>

<text 
x="628" 
y="787" 
dx="0,0.2,0.2,0.2,0.2,0.2,0.2,0.2,0.2" 
class="s11_60"
>我是大学一年级的学</text>

<text 
x="502" 
y="812" 
dx="0" 
class="s11_60"
>生</text>

<text 
x="522" 
y="812" 
dx="0" 
class="s10_60"
>/</text>

<text 
x="526" 
y="812" 
dx="0,0.2,0.2,0.2,0.2,0.2,0.2,0.2,0.2,0.2" 
class="s14_60"
>我是大學一年級的學生</text>

<text 
x="727" 
y="812" 
dx="0,0.1,0.1,0.1,0.1,0.1,0.1,0.1,0.1,0.1,0.1,0.1,0.1,0.1,0" 
class="s10_60"
>, means “I’m a </text>

<text 
x="502" 
y="836" 
dx="0,0.1,0.1,0.1,0.1,0.1,0.1,0.1,0.1,0.1,0.1,0.1,0.1,0.1,0.1,0.1,0.1,0,0.1,0.1,0.1,0.1,0.1,0.1,0.1,0.1,0.1,0.1,0.1,0.1,0.1,0.1,0.1,0.1,0.1,0.1,0.1,0.1,0.1,0.1,0.1,0.1,0.1,0.1,0.1,0.1,0.1,0.1,0.1,0.1,0.1,0.1,0.1,0.1,0,0.1,0" 
class="s10_60"
>first-year college student.” Among students, the shorter </text>

<text 
x="502" 
y="860" 
dx="0,-0.1,0.1,0.1,0.1,0.1,0.1,0.1,0.1,0.1,0.1,0,0.1,0.1,0.1,0.1,0.1,0.1,0.1,0.1" 
class="s10_60"
>form is more common.</text>

<text 
x="479" 
y="896" 
dx="0,0" 
class="s8_60"
>d </text>

<text 
x="500" 
y="900" 
dx="0,0,0" 
class="s9_60"
>餐厅/</text>

<text 
x="565" 
y="900" 
dx="0,0" 
class="s13_60"
>餐廳</text>

<text 
x="502" 
y="925" 
dx="0,0.1,0.1,0.1,0.1,0,0.1,0.1,0.1" 
class="s10_60"
>The term </text>

<text 
x="558" 
y="925" 
dx="0,0.2" 
class="s11_60"
>餐厅</text>

<text 
x="598" 
y="925" 
dx="0" 
class="s10_60"
>/</text>

<text 
x="602" 
y="925" 
dx="0,0.2" 
class="s14_60"
>餐廳</text>

<text 
x="645" 
y="925" 
dx="0,0.1,0.1,0.1,0.1,0.1,0.1,0.1,0.1,0,0.1,0.1,0.1,0,0.1,0.1,0.1,0.1,0.1,0.1,0.1,0.1,0" 
class="s10_60"
>applies to both small, </text>

<text 
x="502" 
y="949" 
dx="0,0.1,0.1,0.1,0.1,0.1,0.1,0.1,0.1,0.1,0.1,0.1,0.1,0,0.1,0.1,0.1,0.1,0.1,0.1,0.1,0.1,0.1,0.1,0.1,0.1,0.1,0.1,0.1,0.1,0.1,0.1,0.1,0.1,0.1,0.1,0.1,0.1,0.1,0.1,0.1,0.1,0.1,0.1,0.1,0.1,0" 
class="s10_60"
>independent restaurants and school and company </text>

<text 
x="502" 
y="973" 
dx="0,0.1,0.1,-0.1,0.1,0,0.1,0.1,0.1,0.1,0.1,0.1,0.1,0.1,0.1,0.1,0.1,0.1,0.1,0.1,0.1,0.1,0.1,0.1,0.1,0.1,0.1,0.1,0.1,0.1,0.1,0.1,0.1,0.1,-0.1,0.1,0,0.1,0.1,0.1,0.1,0.1,0.1,0.1,0,0.1,0.1,0.1,0.1,0.1,0" 
class="s10_60"
>cafeterias. School and company cafeterias are also </text>

<text 
x="502" 
y="998" 
dx="0,0.1,0.1,0.1,0.1,0.1,0.1" 
class="s10_60"
>called </text>

<text 
x="539" 
y="998" 
dx="0,0.2" 
class="s11_60"
>食堂</text>

<text 
x="582" 
y="998" 
dx="0,0,0,0,0,0,0,0,0" 
class="s12_60"
>(shítáng)</text>

<text 
x="629" 
y="998" 
dx="0,0.1,0.1,0.1,0.1,0.1,0.1,0.1,0.1,0.1,0.1,0.1,0.1,0.1,0.1,0.1,0.1,0.1,0.1,0.1,0.1,0.1,0.1,0.1,0.1,0.1,0.1,0.1,0" 
class="s10_60"
>. In China, many schools and </text>

<text 
x="502" 
y="1022" 
dx="0,0.1,0.1,0.1,0.1,0.1,0.1,0.1,0.1,0.1,0.1,0.1,0.1,0.1,0.1,0.1,0.1,0.1,0.1,0.1,0.1,0.1,0.1,0.1,0.1,0.1,0.1,0.1,0.1,0.1,0.1,0.1,0.1,-0.1,0.1,0,0.1,0.1,0.1,0.1,0.1,0.1,0.1,0.1,0.1,0.1,0.1,0.1,0.1,0.1,0,0" 
class="s10_60"
>companies subsidize their own cafeterias; these are </text>

<text 
x="502" 
y="1047" 
dx="0,-0.1,0.1,0.1,0.1,0.1,0.1,0.1,0.1,-0.1,-0.2,0.1,0.1,0.1,0.1,0.1,-0.2,0.1,0.1,0.1,0.1,0.1,0.1,0,0.1,0.1,0.1,0.1,0.1,0.1,0.1,0.1,0.1,0.1,0.1,0.1,0.1,0.1,0.1,0.1,0.1,0.1,0.1,0.1,0.1,0.1,0.1,0.1,0.1,0.1,0.1,0.1,0" 
class="s10_60"
>for the exclusive use of students or employees. Many </text>

<text 
x="502" 
y="1071" 
dx="0,0.1,0.1,0.1,0.1,0.1,0.1,0.1,0.1,0.1,0.1,0.1,0.1,0.1,0.1,0,0.1,0.1,0.1,0.1,0.1,0.1,0.1,0.1,0.1,0.1,0.1,0.1,0.1,0.1,0.1,0.1,0.1,0.1,0.1" 
class="s10_60"
>accept meal cards rather than cash.</text>

<path d="M881.6,1209.2l55,0l0,-1222.1l-55,0l0,1222.1Z" class="g6_60" />
<text 
transform="matrix(0, 1, -1, 0, 890, 947)"
dx="0,1,1,1,1,1,1,1,1" 
class="s15_60"
>Lesson 2 </text>

<text 
transform="matrix(0, 1, -1, 0, 890, 1012)"
dx="0,1" 
class="s15_60"
>| </text>

<text 
transform="matrix(0, 1, -1, 0, 890, 1026)"
dx="0,1,1,1,1,1,1,1,0.8,1" 
class="s15_60"
>Dorm Life </text>

<text 
transform="matrix(0, 1, -1, 0, 890, 1097)"
dx="0,1" 
class="s15_60"
>| </text>

<text 
transform="matrix(0, 1, -1, 0, 890, 1111)"
dx="0,-0.2,0.7,0.7,1" 
class="s15_60"
>Text </text>

<text 
transform="matrix(0, 1, -1, 0, 890, 1158)"
dx="0,1,0" 
class="s15_60"
>37 </text>



<!-- Any embedded fonts defined here -->
<style type="text/css" ><![CDATA[

@font-face {
	font-family: STKaiti-SC-Bold_3oi;
	src: url("fonts/STKaiti-SC-Bold_3oi.woff") format("woff");
}

@font-face {
	font-family: GentiumBookBasic-Italic_3o-;
	src: url("fonts/GentiumBookBasic-Italic_3o-.woff") format("woff");
}

@font-face {
	font-family: STKaiTi-TC-Bold_3op;
	src: url("fonts/STKaiTi-TC-Bold_3op.woff") format("woff");
}

@font-face {
	font-family: LibreFranklin-Regular_3td;
	src: url("fonts/LibreFranklin-Regular_3td.woff") format("woff");
}

@font-face {
	font-family: SourceHanSansTW-Normal_3ql;
	src: url("fonts/SourceHanSansTW-Normal_3ql.woff") format("woff");
}

@font-face {
	font-family: LibreFranklin-SemiBold_3tc;
	src: url("fonts/LibreFranklin-SemiBold_3tc.woff") format("woff");
}

@font-face {
	font-family: LibreFranklin-Bold_3t0;
	src: url("fonts/LibreFranklin-Bold_3t0.woff") format("woff");
}

@font-face {
	font-family: STKaiTi-TC-Regular_3pl;
	src: url("fonts/STKaiTi-TC-Regular_3pl.woff") format("woff");
}

@font-face {
	font-family: STKaiti-SC-Regular_3pn;
	src: url("fonts/STKaiti-SC-Regular_3pn.woff") format("woff");
}

@font-face {
	font-family: MuseoSans-700_3ti;
	src: url("fonts/MuseoSans-700_3ti.woff") format("woff");
}

]]></style>

</svg>
