<?xml version="1.0" encoding="UTF-8" standalone="no"?>
<!DOCTYPE svg PUBLIC "-//W3C//DTD SVG 1.1//EN"
"http://www.w3.org/Graphics/SVG/1.1/DTD/svg11.dtd">


<!-- Page 333 -->
<svg x="0" y="0" width="921" height="1196" viewBox="0 0 921 1196" version="1.1" xmlns="http://www.w3.org/2000/svg" xmlns:xlink="http://www.w3.org/1999/xlink"
style="display: block;margin-left: auto;margin-right: auto;">
<defs>

<style type="text/css"><![CDATA[

.g1_333{
fill: none;
stroke: #7AAD35;
stroke-width: 1.5277778;
stroke-linecap: butt;
stroke-linejoin: miter;
stroke-miterlimit: 4;
}
.g2_333{
fill: none;
stroke: #7AAD35;
stroke-width: 0.5102778;
stroke-linecap: butt;
stroke-linejoin: miter;
stroke-miterlimit: 4;
}
.g3_333{
fill: none;
stroke: #A8A9AD;
stroke-width: 0.6538889;
stroke-linecap: butt;
stroke-linejoin: miter;
}
.g4_333{
fill: #FFFFFF;
}
.g5_333{
fill: none;
stroke: #231F20;
stroke-width: 0.31625;
stroke-linecap: butt;
stroke-linejoin: miter;
}
.g6_333{
fill: #E4E5E7;
}
.g7_333{
fill: #808285;
}
.g8_333{
fill: none;
stroke: #FFFFFF;
stroke-width: 1.4758333;
stroke-linecap: butt;
stroke-linejoin: miter;
}
.g9_333{
fill: none;
stroke: #E7E8E9;
stroke-width: 1.5781945;
stroke-linecap: butt;
stroke-linejoin: miter;
}
.g10_333{
fill: #E7E8E9;
}
.g11_333{
fill: #AFD8F3;
}
.g12_333{
fill: #7CA3CC;
}
.g13_333{
fill: #F58320;
}
.g14_333{
fill: none;
stroke: #7CA3CC;
stroke-width: 0.7638889;
stroke-linecap: butt;
stroke-linejoin: miter;
}
.g15_333{
fill: #7AAD35;
stroke: #B2B3B7;
stroke-width: 1.5277778;
stroke-linecap: butt;
stroke-linejoin: miter;
stroke-miterlimit: 4;
}

.s1_333{
font-size: 15.28px;
font-family: LibreFranklin-ExtraBold_43o;
fill: #3F3F40;
}
.s2_333{
font-size: 16.81px;
font-family: LibreFranklin-Bold_43q;
fill: #939598;
}
.s3_333{
font-size: 25.97px;
font-family: STKaiti-SC-Regular_3pn;
fill: #3F3F40;
}
.s4_333{
font-size: 25.97px;
font-family: STKaiTi-TC-Regular_3pl;
fill: #3F3F40;
}
.s5_333{
font-size: 14.51px;
font-family: LibreFranklin-Regular_43y;
fill: #3F3F40;
}
.s6_333{
font-size: 25.97px;
font-family: STKaiti-SC-Bold_3oi;
fill: #749E3C;
}
.s7_333{
font-size: 25.97px;
font-family: STKaiTi-TC-Bold_3op;
fill: #749E3C;
}
.s8_333{
font-size: 15.99px;
font-family: SourceHanSansCN-Normal_3q5;
fill: #1275BC;
}
.s9_333{
font-size: 14.80px;
font-family: ArialMT_44n;
fill: #1275BC;
}
.s10_333{
font-size: 14.29px;
font-family: ArialMT_44n;
fill: #A8A9AD;
}
.s11_333{
font-size: 18.33px;
font-family: SourceHanSansTW-Regular_3r5;
fill: #231F20;
}
.s12_333{
font-size: 14.80px;
font-family: Arial-BoldMT_44j;
fill: #3F3F40;
}
.s13_333{
font-size: 15.66px;
font-family: LibreFranklin-Medium_44p;
fill: #6D6E71;
}
.s14_333{
font-size: 19.86px;
font-family: LibreFranklin-SemiBold_44o;
fill: #FFFFFF;
}
.s15_333{
font-size: 13.75px;
font-family: ArialMT_44n;
fill: #1275BC;
}
.s16_333{
font-size: 18.33px;
font-family: SourceHanSansCN-Regular_3tv;
fill: #231F20;
}
.s17_333{
font-size: 11.08px;
font-family: LibreFranklin-SemiBold_43z;
fill: #FFFFFF;
}

]]></style>

</defs>
<path d="M0,0
L0,1196
L921,1196
L921,0 Z " 
fill="#FFFFFF" stroke="none" />
<text 
x="174" 
y="71" 
dx="0,0" 
class="s1_333"
>2 </text>

<text 
x="216" 
y="73" 
dx="0,0,0" 
class="s2_333"
>Q: </text>

<text 
x="242" 
y="73" 
dx="0,0,0,0,0,0,0,0,0,0" 
class="s3_333"
>你们寒假准备做什么？</text>

<text 
x="244" 
y="114" 
dx="0,0,0,0,0,0,0,0,0,0" 
class="s4_333"
>你們寒假準備做什麼？</text>

<text 
x="250" 
y="147" 
dx="0,0,0,0,0,0,0,0,0,0,0,0,0,0,0,0,0,0,-0.2,0,0,0,0,0,-0.3,-0.4,0,0,0,0,0,0,-0.2,0,0,0,0,-0.2,0,0,0,0" 
class="s5_333"
>What do you plan to do over winter break? </text>

<text 
x="216" 
y="195" 
dx="0,0,0" 
class="s2_333"
>A: </text>

<text 
x="245" 
y="195" 
dx="0" 
class="s3_333"
>我</text>

<text 
x="271" 
y="195" 
dx="0" 
class="s6_333"
>呢</text>

<text 
x="297" 
y="195" 
dx="0,0,0,0,0,0,0" 
class="s3_333"
>，要回家，小张</text>

<text 
x="479" 
y="195" 
dx="0" 
class="s6_333"
>呢</text>

<text 
x="505" 
y="195" 
dx="0,0,0,0,0,0,0,0,0,0,0,0,0" 
class="s3_333"
>，要留在学校打工，小李要做</text>

<text 
x="245" 
y="228" 
dx="0,0,0,0,0,0,0,0" 
class="s3_333"
>什么，我不知道。</text>

<text 
x="244" 
y="269" 
dx="0" 
class="s4_333"
>我</text>

<text 
x="270" 
y="269" 
dx="0" 
class="s7_333"
>呢</text>

<text 
x="296" 
y="269" 
dx="0,0,0,0,0,0,0" 
class="s4_333"
>，要回家，小張</text>

<text 
x="478" 
y="269" 
dx="0" 
class="s7_333"
>呢</text>

<text 
x="504" 
y="269" 
dx="0,0,0,0,0,0,0,0,0,0,0,0,0" 
class="s4_333"
>，要留在學校打工，小李要做</text>

<text 
x="244" 
y="302" 
dx="0,0,0,0,0,0,0,0" 
class="s4_333"
>什麼，我不知道。</text>

<text 
x="250" 
y="336" 
dx="0,0,0,0,0,-0.1,0,0,0,0,0,0,0,0,0,0,0,0,0,0,0,0,0,0,0,0,0,0,0,0,0,0,0,0,0,0,0,0,-0.1,0,0,0,0,0,0,0,0,0,0,0,0,0,0,0,-0.2,0,0,0,0,0,0,0,0,0,0,0,0,0,0,0,0,0,0,0,0,0,0,0,0,0,0" 
class="s5_333"
>I’m going home. Little Zhang, on the other hand, has to stay at school and work. </text>

<text 
x="250" 
y="356" 
dx="0,0,0,0,0,0,0,0,0,0,0,0,0,0,0,0,0,0,0,0,0,0,0,0,0,0,0,0,0,0,0,0,0,0,0,-0.4" 
class="s5_333"
>I don’t know what Little Li will do.</text>

<text 
x="174" 
y="415" 
dx="0,0" 
class="s1_333"
>3 </text>

<text 
x="244" 
y="417" 
dx="0,0,0,0,0,0,0,0,0,0,0,0,0,0,0,0" 
class="s3_333"
>选什么专业好，我还没想清楚。学医</text>

<text 
x="660" 
y="417" 
dx="0" 
class="s6_333"
>呢</text>

<text 
x="685" 
y="417" 
dx="0,0,0,0,0,0" 
class="s3_333"
>，没有意思，</text>

<text 
x="244" 
y="451" 
dx="0,0,0" 
class="s3_333"
>学文学</text>

<text 
x="322" 
y="451" 
dx="0" 
class="s6_333"
>呢</text>

<text 
x="348" 
y="451" 
dx="0,0,0,0,0,0,0,0,0,0" 
class="s3_333"
>，怕以后不好找工作。</text>

<text 
x="244" 
y="491" 
dx="0,0,0,0,0,0,0,0,0,0,0,0,0,0,0,0" 
class="s4_333"
>選什麼專業好，我還沒想清楚。學醫</text>

<text 
x="660" 
y="491" 
dx="0" 
class="s7_333"
>呢</text>

<text 
x="685" 
y="491" 
dx="0,0,0,0,0,0" 
class="s4_333"
>，沒有意思，</text>

<text 
x="244" 
y="525" 
dx="0,0,0" 
class="s4_333"
>學文學</text>

<text 
x="322" 
y="525" 
dx="0" 
class="s7_333"
>呢</text>

<text 
x="348" 
y="525" 
dx="0,0,0,0,0,0,0,0,0,0" 
class="s4_333"
>，怕以後不好找工作。</text>

<text 
x="250" 
y="558" 
dx="0,0,0,0,0.4,-0.9,0,0,0,0,-0.1,0,0,0,0,0,0,0,0,0,0,-0.2,0,0,0,0,0,0,0,0,0,0,0,0,0,0,-0.4,0,0,0,0,0,0,0,0,0,-0.2,0,0,0,0,0,0,0,0,0,0,0,-0.4,0,0,0,0,0,0,0,0,0,0,0,0,0,0,0,0,0,0,0,0,0,0,0,0" 
class="s5_333"
>What’s a good major to choose? I haven’t figured it out. Studying medicine, on the </text>

<text 
x="250" 
y="578" 
dx="0,0,0,0,0,0,0,0,0,0,0,0,0,0,0,0,0,0,0,0,0,0,0,0,0,0,0,0,0,-0.1,0,0,0,0,0,0,0,0,0,0,0,0,0,0,0,0,0,0,0,0,0,0,0,0,0,0,0,0,0,0,0,0,0,0,0,0,0,0,0,0,0,-0.2,0,0,0,0,0,-0.2,0,0,0,0,0,0,0,0,0,0" 
class="s5_333"
>one hand, is boring. On the other hand, I’m worried that if I study literature, I won’t </text>

<text 
x="250" 
y="598" 
dx="0,0,0,0,0,0,0,0,0,-0.2,0,0,0,0,0,0,0,0,0,0,0,0" 
class="s5_333"
>be able to find a job.</text>

<path d="M169,48c-0.1,0,-7.7,0.1,-7.7,7.7l0,19.7c0,0,0.1,7.6,7.7,7.6l22.4,0c0,0,7.6,-0.1,7.6,-7.6l0,-19.7C199,55.6,198.9,48,191.4,48L169,48Z" class="g1_333" />
<path d="M169,50.1c-0.6,0,-5.6,0.2,-5.6,5.6l0,19.7c0,0.5,0.2,5.6,5.6,5.6l22.4,0c0.5,0,5.6,-0.2,5.6,-5.6l0,-19.7c0,-0.6,-0.2,-5.6,-5.6,-5.6l-22.4,0Z" class="g2_333" />
<path d="M169,391.8c-0.1,0,-7.7,0.1,-7.7,7.6l0,19.7c0,0.1,0.1,7.7,7.7,7.7l22.4,0c0,0,7.6,-0.1,7.6,-7.7l0,-19.7c0,0,-0.1,-7.6,-7.6,-7.6l-22.4,0Z" class="g1_333" />
<path d="M169,393.8c-0.6,0,-5.6,0.2,-5.6,5.6l0,19.7c0,0.6,0.2,5.6,5.6,5.6l22.4,0c0.5,0,5.6,-0.2,5.6,-5.6l0,-19.7c0,-0.5,-0.2,-5.6,-5.6,-5.6l-22.4,0Z" class="g2_333" />
<path d="M572.5,1034.3l-293,0c-34.5,0,-32.1,3.9,-32.1,-32.1l0,-135.5c0,-35.5,-3,-32,32.1,-32l293,0c17.7,0,32.1,14.3,32.1,32l0,135.5c0,17.7,-14.4,32.1,-32.1,32.1Z" class="g3_333" />
<image preserveAspectRatio="none" x="471" y="788" width="339" height="288" xlink:href="333/img/1.png" />
<path d="M800.9,1065l-317.6,0l0,-271.1l317.6,0l0,271.1Z" class="g4_333" />
<path d="M800.9,1065l-317.6,0l0,-271.1l317.6,0Z" class="g5_333" />
<image preserveAspectRatio="none" x="483" y="804" width="311" height="32" xlink:href="333/img/2.png" />
<path d="M798.8,832l-313.4,0l0,-29.6l313.4,0l0,29.6Z" class="g6_333" />
<text 
transform="matrix(1.36, 0, 0, 1, 480, 823)"
dx="0" 
class="s8_333"
>〈</text>

<text 
x="736" 
y="822" 
dx="0,0,0,0,0,0,0" 
class="s9_333"
>Contact</text>

<text 
x="509" 
y="822" 
dx="0,0,0,0,0,0,0,0" 
class="s9_333"
>Messages</text>

<path d="M513,1041.6l-3.8,0l0,-0.6c0,-1,-0.8,-1.8,-1.8,-1.8l-4.8,0c-1,0,-1.8,0.8,-1.8,1.8l0,0.6l-2.5,0c0,0,0,-0.1,0,-0.2l0,-1.8c0,-0.4,-0.2,-0.6,-0.6,-0.6c-0.3,0,-0.6,0.2,-0.6,0.6l0,1.8c0,0.1,0.1,0.2,0.1,0.2l-0.8,0c-0.9,0,-1.7,0.8,-1.7,1.8l0,8.6c0,1,0.8,1.8,1.7,1.8l16.6,0c1,0,1.8,-0.8,1.8,-1.8l0,-8.6c0,-1,-0.8,-1.8,-1.8,-1.8Z" class="g7_333" />
<path d="M509,1047.3c0,2.4,-2,4.3,-4.4,4.3c-2.4,0,-4.3,-1.9,-4.3,-4.3c0,-2.4,1.9,-4.3,4.3,-4.3c2.4,0,4.4,1.9,4.4,4.3Z" class="g8_333" />
<path d="M511.1,1043.3c0,0.5,-0.4,0.8,-0.8,0.8c-0.5,0,-0.8,-0.3,-0.8,-0.8c0,-0.5,0.3,-0.8,0.8,-0.8c0.4,0,0.8,0.3,0.8,0.8Z" class="g4_333" />
<path d="M743.5,1056.9l-218.5,0c-1.5,0,-2.6,-1.2,-2.6,-2.6l0,-16c0,-1.5,1.1,-2.7,2.6,-2.7l218.5,0c1.5,0,2.7,1.2,2.7,2.7l0,16c0,1.4,-1.2,2.6,-2.7,2.6Z" class="g4_333" />
<path d="M743.5,1056.9l-218.5,0c-1.5,0,-2.6,-1.2,-2.6,-2.6l0,-16c0,-1.5,1.1,-2.7,2.6,-2.7l218.5,0c1.5,0,2.7,1.2,2.7,2.7l0,16c0,1.4,-1.2,2.6,-2.7,2.6Z" class="g9_333" />
<text 
x="754" 
y="1051" 
dx="0,0,0,0" 
class="s10_333"
>Send</text>

<path d="M689.4,842l-178.8,0l-2.9,0c-6,0,-11.1,4.2,-12.5,9.8c-0.2,0.9,-0.3,2,-0.3,3l0,3.1c0,1.4,0.2,18.4,0.6,19.7c-0.9,3.7,-2.8,7.2,-5.6,10c3.7,-0.7,7.1,-2.1,10.1,-3.8c2.1,1.6,4.8,2.5,7.7,2.5l181.7,0c7,0,12.8,-5.7,12.8,-12.8l0,-18.7c0,-7,-5.8,-12.8,-12.8,-12.8Z" class="g10_333" />
<text 
x="507" 
y="870" 
dx="0,0,0,0,0,0,0,0,0,-2.5" 
class="s11_333"
>寒假你想去哪兒旅行？</text>

<path d="M699.3,922.5l-188.7,0l-2.9,0c-6,0,-11.1,4.1,-12.5,9.7c-0.2,1,-0.3,2,-0.3,3.1l0,20.7c0,1.5,0.2,2.8,0.6,4.1c-0.9,3.7,-2.8,7.2,-5.6,10c3.7,-0.7,7.1,-2.1,10.1,-3.8c2.1,1.6,4.8,2.5,7.7,2.5l191.6,0c7,0,12.8,-5.7,12.8,-12.8l0,-20.7c0,-7.1,-5.8,-12.8,-12.8,-12.8Z" class="g10_333" />
<text 
x="507" 
y="953" 
dx="0,0,0,0,0,0,0,0,0,0,-4.6" 
class="s11_333"
>最好不要去太冷的地方。</text>

<path d="M748.1,980.6l11.1,0l2.9,0c6,0,11.1,4.2,12.4,9.8c0.3,0.9,0.4,2,0.4,3l0,3.1c0,1.4,-0.2,2.8,-0.7,4c0.9,3.8,2.9,7.2,5.6,10.1c-3.6,-0.8,-7,-2.1,-10,-3.9c-2.2,1.6,-4.8,2.6,-7.7,2.6l-14,0c-7.1,0,-12.8,-5.8,-12.8,-12.8l0,-3.1c0,-7,5.7,-12.8,12.8,-12.8Z" class="g11_333" />
<text 
x="753" 
y="998" 
dx="0,0,0" 
class="s12_333"
>...</text>

<path d="M748.1,890.1l11.1,0l2.9,0c6,0,11.1,4.2,12.4,9.8c0.3,0.9,0.4,2,0.4,3l0,3.1c0,1.4,-0.2,2.8,-0.7,4c0.9,3.8,2.9,7.2,5.6,10.1c-3.6,-0.8,-7,-2.1,-10,-3.9c-2.2,1.6,-4.8,2.6,-7.7,2.6l-14,0C741,918.8,735.3,913,735.3,906l0,-3.1c0,-7,5.7,-12.8,12.8,-12.8Z" class="g11_333" />
<text 
x="753" 
y="908" 
dx="0,0,0" 
class="s12_333"
>...</text>

<text 
x="275" 
y="741" 
dx="0,0,0,0,0,0,0,0,0,0,0,0,0,0,0,0,0,0,0,0,0,0,0,0,0,0,0,0,0,0,0,0,0,0,0,0,0,0,0,0,0,0,0,0,0,0,0,0,0,0,0,0,0,0,0,0,0,0,0,0,0,0,0,0,0,0,0,0,0" 
class="s13_333"
>A friend is texting you about your plans for winter break. How would </text>

<text 
x="275" 
y="765" 
dx="0,0,0,0,0,0,0,0,0,0,0" 
class="s13_333"
>you reply? </text>

<path d="M430.3,697.7c0,-11.6,-9.4,-21.1,-21.1,-21.1l-141.4,0c-11.7,0,-21.1,9.5,-21.1,21.1l0,14.9l183.6,0Z" class="g12_333" />
<path d="M247.4,787.1L267,807.6l0,-20.5Z" class="g13_333" />
<text 
x="276" 
y="703" 
dx="0,-0.5,-0.5,-0.5,-0.5,-0.5,-0.5,-0.5,-0.5,-0.5,-0.5,-0.5" 
class="s14_333"
>Chinese Chat</text>

<path d="M247,781.6l0,-65.2l529.8,0c13.4,0,24.3,10.9,24.3,24.3l0,40.9l-554.1,0Z" class="g14_333" />
<image preserveAspectRatio="none" x="234" y="368" width="347" height="289" xlink:href="333/img/3.png" />
<image preserveAspectRatio="none" x="246" y="383" width="319" height="33" xlink:href="333/img/4.png" />
<text 
transform="matrix(1.05, 0, 0, 1, 263, 864)"
dx="0,0,0,0,0,0,0" 
class="s15_333"
>Friend:</text>

<text 
x="263" 
y="886" 
dx="0,0,0,0,0,0,0,0,0,0" 
class="s16_333"
>寒假你想去哪儿旅行？</text>

<text 
transform="matrix(1.05, 0, 0, 1, 263, 917)"
dx="0,-1.3,0,0" 
class="s15_333"
>You:</text>

<text 
x="263" 
y="927" 
dx="0,0,0" 
class="s12_333"
>...</text>

<text 
transform="matrix(1.05, 0, 0, 1, 263, 958)"
dx="0,0,0,0,0,0,0,0" 
class="s15_333"
>Friend: </text>

<text 
x="263" 
y="980" 
dx="0,0,0,0,0,0,0,0,0,0,0.2" 
class="s16_333"
>最好不要去太冷的地方。</text>

<text 
transform="matrix(1.05, 0, 0, 1, 263, 1010)"
dx="0,-1.3,0,0" 
class="s15_333"
>You:</text>

<text 
x="263" 
y="1020" 
dx="0,0,0" 
class="s12_333"
>...</text>

<path d="M-17.5,1209.2l58,0l0,-1222.1l-58,0l0,1222.1Z" class="g15_333" />
<text 
transform="matrix(0, -1, 1, 0, 31, 1173)"
dx="0,1,1,1" 
class="s17_333"
>310 </text>

<text 
transform="matrix(0, -1, 1, 0, 31, 1130)"
dx="0,1,1,0.8,1,1,0.9,1,0.8,1,1,1,1,1,1,1,1,1,1,1,1" 
class="s17_333"
>Integrated Chinese 3 </text>

<text 
transform="matrix(0, -1, 1, 0, 31, 989)"
dx="0,1" 
class="s17_333"
>| </text>

<text 
transform="matrix(0, -1, 1, 0, 31, 975)"
dx="0,-0.2,0.7,0.7,1,1,1,1" 
class="s17_333"
>Textbook</text>



<!-- Any embedded fonts defined here -->
<style type="text/css" ><![CDATA[

@font-face {
	font-family: ArialMT_44n;
	src: url("fonts/ArialMT_44n.woff") format("woff");
}

@font-face {
	font-family: LibreFranklin-ExtraBold_43o;
	src: url("fonts/LibreFranklin-ExtraBold_43o.woff") format("woff");
}

@font-face {
	font-family: LibreFranklin-SemiBold_43z;
	src: url("fonts/LibreFranklin-SemiBold_43z.woff") format("woff");
}

@font-face {
	font-family: SourceHanSansTW-Regular_3r5;
	src: url("fonts/SourceHanSansTW-Regular_3r5.woff") format("woff");
}

@font-face {
	font-family: LibreFranklin-Regular_43y;
	src: url("fonts/LibreFranklin-Regular_43y.woff") format("woff");
}

@font-face {
	font-family: STKaiti-SC-Bold_3oi;
	src: url("fonts/STKaiti-SC-Bold_3oi.woff") format("woff");
}

@font-face {
	font-family: LibreFranklin-SemiBold_44o;
	src: url("fonts/LibreFranklin-SemiBold_44o.woff") format("woff");
}

@font-face {
	font-family: LibreFranklin-Bold_43q;
	src: url("fonts/LibreFranklin-Bold_43q.woff") format("woff");
}

@font-face {
	font-family: STKaiTi-TC-Bold_3op;
	src: url("fonts/STKaiTi-TC-Bold_3op.woff") format("woff");
}

@font-face {
	font-family: LibreFranklin-Medium_44p;
	src: url("fonts/LibreFranklin-Medium_44p.woff") format("woff");
}

@font-face {
	font-family: SourceHanSansCN-Normal_3q5;
	src: url("fonts/SourceHanSansCN-Normal_3q5.woff") format("woff");
}

@font-face {
	font-family: STKaiTi-TC-Regular_3pl;
	src: url("fonts/STKaiTi-TC-Regular_3pl.woff") format("woff");
}

@font-face {
	font-family: Arial-BoldMT_44j;
	src: url("fonts/Arial-BoldMT_44j.woff") format("woff");
}

@font-face {
	font-family: STKaiti-SC-Regular_3pn;
	src: url("fonts/STKaiti-SC-Regular_3pn.woff") format("woff");
}

@font-face {
	font-family: SourceHanSansCN-Regular_3tv;
	src: url("fonts/SourceHanSansCN-Regular_3tv.woff") format("woff");
}

]]></style>

</svg>
