<?xml version="1.0" encoding="UTF-8" standalone="no"?>
<!DOCTYPE svg PUBLIC "-//W3C//DTD SVG 1.1//EN"
"http://www.w3.org/Graphics/SVG/1.1/DTD/svg11.dtd">


<!-- Page 163 -->
<svg x="0" y="0" width="921" height="1196" viewBox="0 0 921 1196" version="1.1" xmlns="http://www.w3.org/2000/svg" xmlns:xlink="http://www.w3.org/1999/xlink"
style="display: block;margin-left: auto;margin-right: auto;">
<defs>

<style type="text/css"><![CDATA[

.g1_163{
fill: none;
stroke: #007598;
stroke-width: 2.2916667;
stroke-linecap: butt;
stroke-linejoin: miter;
}
.g2_163{
fill: none;
stroke: #007598;
stroke-width: 1.5277778;
stroke-linecap: butt;
stroke-linejoin: miter;
stroke-miterlimit: 4;
}
.g3_163{
fill: none;
stroke: #007598;
stroke-width: 0.5102778;
stroke-linecap: butt;
stroke-linejoin: miter;
stroke-miterlimit: 4;
}
.g4_163{
fill: #007598;
stroke: #B2B3B7;
stroke-width: 1.5277778;
stroke-linecap: butt;
stroke-linejoin: miter;
stroke-miterlimit: 4;
}

.s1_163{
font-size: 18.33px;
font-family: LibreFranklin-ExtraBold_3y5;
fill: #007D9F;
}
.s2_163{
font-size: 27.50px;
font-family: STKaiti-SC-Bold_3oi;
fill: #3F3F40;
}
.s3_163{
font-size: 14.51px;
font-family: LibreFranklin-Regular_3yk;
fill: #3F3F40;
}
.s4_163{
font-size: 23.68px;
font-family: STKaiti-SC-Regular_3pn;
fill: #3F3F40;
}
.s5_163{
font-size: 15.28px;
font-family: LibreFranklin-ExtraBold_3y5;
fill: #3F3F40;
}
.s6_163{
font-size: 25.97px;
font-family: STKaiti-SC-Regular_3pn;
fill: #3F3F40;
}
.s7_163{
font-size: 25.97px;
font-family: STKaiti-SC-Bold_3oi;
fill: #007D9F;
}
.s8_163{
font-size: 25.97px;
font-family: STKaiTi-TC-Regular_3pl;
fill: #3F3F40;
}
.s9_163{
font-size: 25.97px;
font-family: STKaiTi-TC-Bold_3op;
fill: #007D9F;
}
.s10_163{
font-size: 14.51px;
font-family: LibreFranklin-Regular_3wt;
fill: #3F3F40;
}
.s11_163{
font-size: 11.08px;
font-family: LibreFranklin-SemiBold_3yj;
fill: #FFFFFF;
}

]]></style>

</defs>
<path d="M0,0
L0,1196
L921,1196
L921,0 Z " 
fill="#FFFFFF" stroke="none" />
<path d="M123.8,78.3l12.2,0" class="g1_163" />
<text 
x="123" 
y="72" 
dx="0,0" 
class="s1_163"
>3 </text>

<text 
x="454" 
y="77" 
dx="0,0" 
class="s2_163"
>另外</text>

<text 
x="161" 
y="145" 
dx="0,0,0,0,-0.2,0,0,0,-0.2,0,0,0,0,-0.2,0,0,0,0,0,0,0,0,-0.2,0,0,0,0,0" 
class="s3_163"
>There are three ways to use </text>

<text 
x="351" 
y="146" 
dx="0,0" 
class="s4_163"
>另外</text>

<text 
x="399" 
y="145" 
dx="0,0,0,0,0,0,0,0,0" 
class="s3_163"
>. First, </text>

<text 
x="442" 
y="146" 
dx="0,0" 
class="s4_163"
>另外</text>

<text 
x="492" 
y="145" 
dx="0,0,0,0,0,0,0,0,0,0,0,0,0,0,0,-0.3,0,-0.2,0,0,0,0,0,0,0,0,0,0,0,0,0,0" 
class="s3_163"
>can be used before a numeral or </text>

<text 
x="161" 
y="172" 
dx="0,0,0,0,0,0,0,0,0,0,0,0,-0.4,0,0,0,-0.2,0,0,0,0,0,0,0,0,0,0,0,0,0,0,0,0,0,0,0,0,0,0,0,0,0,0,0,0,0,0,0,0,0,0,0,0,0" 
class="s3_163"
>demonstrative pronoun + noun, as in (A), (B), and (C).</text>

<text 
x="174" 
y="226" 
dx="0,0" 
class="s5_163"
>A </text>

<text 
x="244" 
y="229" 
dx="0,0,0,0,0,0,0,0,0,0,0,0,0,0,0,0,0,0" 
class="s6_163"
>下个学期我打算选三门课。一门电脑课，</text>

<text 
x="711" 
y="229" 
dx="0,0" 
class="s7_163"
>另外</text>

<text 
x="763" 
y="229" 
dx="0,0,0" 
class="s6_163"
>两门课</text>

<text 
x="244" 
y="262" 
dx="0,0,0,0,0,0,0,0,0" 
class="s6_163"
>选什么，还没决定。</text>

<text 
x="244" 
y="302" 
dx="0,0,0,0,0,0,0,0,0,0,0,0,0,0,0,0,0,0" 
class="s8_163"
>下個學期我打算選三門課。一門電腦課，</text>

<text 
x="711" 
y="302" 
dx="0,0" 
class="s9_163"
>另外</text>

<text 
x="763" 
y="302" 
dx="0,0,0" 
class="s8_163"
>兩門課</text>

<text 
x="244" 
y="336" 
dx="0,0,0,0,0,0,0,0,0" 
class="s8_163"
>選什麼，還沒決定。</text>

<text 
x="250" 
y="369" 
dx="0,0,0,0,0,0,0,0,-0.2,0,0,0,0,-0.4,0,0,0,0,-0.2,0,0,0,0,0,0,0,0,0,0,0,0,-0.3,-0.2,0,0,0,0,0,0,0,-0.2,0,-1.2,0,0,0,0,0,0,0,0,0,0,0,0,0,0,0,0,0,0,0,-0.2,0,0,0,0,0,0,0,0,0,0,0,0,0,0,0,-0.3,0,0,0,0,0,0" 
class="s3_163"
>I plan to take three courses next semester. One will be computer science. As for the </text>

<text 
x="250" 
y="389" 
dx="0,-0.1,0,0,0,0,0,0,0,-0.4,0,0,0,0,0,0,-0.4,0,0,0,0,0,0,0,0,0,0,0,0,0,0,-0.1,0" 
class="s3_163"
>other two, I haven’t decided yet.</text>

<text 
x="174" 
y="446" 
dx="0,0" 
class="s5_163"
>B </text>

<text 
x="244" 
y="448" 
dx="0,0,0,0,0,0,0,0,0,0,0,0,0,0" 
class="s6_163"
>这里有两个大学，一个是男校，</text>

<text 
x="608" 
y="448" 
dx="0,0" 
class="s7_163"
>另外</text>

<text 
x="660" 
y="448" 
dx="0,0,0,0,0,0" 
class="s6_163"
>一个是女校，</text>

<text 
x="244" 
y="481" 
dx="0,0,0,0,0" 
class="s6_163"
>都很不错。</text>

<text 
x="244" 
y="521" 
dx="0,0,0,0,0,0,0,0,0,0,0,0,0,0" 
class="s8_163"
>這裡有兩個大學，一個是男校，</text>

<text 
x="608" 
y="521" 
dx="0,0" 
class="s9_163"
>另外</text>

<text 
x="660" 
y="521" 
dx="0,0,0,0,0,0" 
class="s8_163"
>一個是女校，</text>

<text 
x="244" 
y="555" 
dx="0,0,0,0,0" 
class="s8_163"
>都很不錯。</text>

<text 
x="250" 
y="588" 
dx="0,0,0,0,-0.2,0,0,0,-0.2,0,0,0,0,0,0,0,0,0,0,0,-0.1,0,0,0,0,0,-0.2,0,0,0,0,0,0,0,0,0,0,0,0,0,0,0,-0.9,0,0,0,0,0,0,0,-0.1,0,0,0,0,0,0,0,0,0,0,-0.1,0,0,0,0,0,0,0,0,0,0,0,0,0,0,0,-0.9,0" 
class="s3_163"
>There are two colleges here. One is a men’s college and the other is a women’s </text>

<text 
x="250" 
y="608" 
dx="0,0,0,0,0,0,-0.1,0,0,0,0,-0.1,0,0,0,0,-0.2,0,0,0,0,0,-0.2,0,0,-0.1,0,0,0" 
class="s3_163"
>college. Both are quite good.</text>

<text 
x="174" 
y="665" 
dx="0,0" 
class="s5_163"
>C </text>

<text 
x="244" 
y="667" 
dx="0,0,0,0,0,0,0,0,0,0,0,0,0,0,0,0" 
class="s6_163"
>他三个妹妹都有工作，一个是律师，</text>

<text 
x="660" 
y="667" 
dx="0,0" 
class="s7_163"
>另外</text>

<text 
x="711" 
y="667" 
dx="0,0,0,0,0" 
class="s6_163"
>两个是大学</text>

<text 
x="244" 
y="701" 
dx="0,0,0" 
class="s6_163"
>教授。</text>

<text 
x="244" 
y="740" 
dx="0,0,0,0,0,0,0,0,0,0,0,0,0,0,0,0" 
class="s8_163"
>他三個妹妹都有工作，一個是律師，</text>

<text 
x="660" 
y="740" 
dx="0,0" 
class="s9_163"
>另外</text>

<text 
x="711" 
y="740" 
dx="0,0,0,0,0" 
class="s8_163"
>兩個是大學</text>

<text 
x="244" 
y="774" 
dx="0,0,0" 
class="s8_163"
>教授。</text>

<text 
x="250" 
y="808" 
dx="0,0,0,0,0,0,0,-0.2,0,0,0,-0.2,0,0,0,0,0,0,0,0,0,0,-0.1,0,0,0,0,0,0,-0.2,0,0,0,0,0,0,-0.4,0,0,0,0,0,0,0,0,0,0,0,0,0,0,0,0,0,0,0,0,0,0,0,0,0,0,0,0,0,0,0,0,-0.1,0,0,0,0,0,0,0,0,0,0,-0.2,0" 
class="s3_163"
>All three of his younger sisters have jobs. One is a lawyer and the other two are </text>

<text 
x="250" 
y="828" 
dx="0,0,0,0,0,0,-0.1,0,0,0,-0.2,-0.2,-0.3,0,0,0,0,0,0" 
class="s3_163"
>college professors.</text>

<text 
x="161" 
y="901" 
dx="0,0" 
class="s4_163"
>另外</text>

<text 
x="212" 
y="899" 
dx="0,0,0,0,0,0,0,0,0,0,0,0,0,0,0,0,0,0,0,0,0,0,0,0,0,0,-0.4,0,0,0,0,0,0,-0.3,0,-0.2,0,0,0,0,-0.4,0,0,0,0,0,0,0,0,0,0,0,0,0,0,0,0,0,0,0,0,0,0,0,0,0,0,0,0,0,0,0,0,0,0,0,0,0,0,0,0,0,0,0,0,0,0,0,0,0" 
class="s3_163"
>can also be used as an adverb before a verb phrase, as seen in (D), (E), and (F), or as a </text>

<text 
x="161" 
y="927" 
dx="0,0,0,0,0,0,0,0,0,0,0,0,0,0,0,0,0,0,0,0,0,0,0,0,0,0,0,0,0,0,-0.2,0,0,0,0,0,0,0,-0.2,0,0,0,0,0,0,0,0,0,0,0,0,0,0,0,0" 
class="s10_163"
>conjunction at the beginning of a sentence, as in (G). </text>

<text 
x="174" 
y="981" 
dx="0,0" 
class="s5_163"
>D </text>

<text 
x="244" 
y="983" 
dx="0,0,0,0,0,0,0,0,0,0,0,0,0" 
class="s6_163"
>下个学期我要选一门化学课，</text>

<text 
x="582" 
y="983" 
dx="0,0" 
class="s7_163"
>另外</text>

<text 
x="634" 
y="983" 
dx="0,0,0,0,0,0,0,0" 
class="s6_163"
>再选两门电脑系的</text>

<text 
x="244" 
y="1017" 
dx="0,0,0,0,0,0,0,0" 
class="s6_163"
>课，学分就够了。</text>

<text 
x="244" 
y="1057" 
dx="0,0,0,0,0,0,0,0,0,0,0,0,0" 
class="s8_163"
>下個學期我要選一門化學課，</text>

<text 
x="582" 
y="1057" 
dx="0,0" 
class="s9_163"
>另外</text>

<text 
x="634" 
y="1057" 
dx="0,0,0,0,0,0,0,0" 
class="s8_163"
>再選兩門電腦系的</text>

<text 
x="244" 
y="1090" 
dx="0,0,0,0,0,0,0,0" 
class="s8_163"
>課，學分就夠了。</text>

<text 
x="250" 
y="1124" 
dx="0,0,-0.3,-0.2,0,0,0,0,0,0,0,-0.2,0,0,0,0,0,0,0,0,0,0,-0.4,0,0,0,0,0,0,0,0,0,0,0,0,0,0,0,0,0,0,0,0,0,0,0,0,0,0,0,0,0,0,0,0,0,-0.2,0,0,0,0,0,0,0,-0.2,0,0,0,0,0,0,0,0,0,0,0,0,0,0,0,0,0,0,0" 
class="s3_163"
>Next semester I’ll take a chemistry course, plus two more computer science courses. </text>

<text 
x="250" 
y="1144" 
dx="0,0,0,0,0,0,0,0,0,0,0,0,0,-0.4,0,0,0,0,0,0,0,0,0,0,-0.2,0,0,0,0,0" 
class="s3_163"
>Then I’ll have enough credits.</text>

<path d="M151.2,41.8l0,53.5l0,0.8l0.8,0l676.9,0l0.7,0l0,-0.8l0,-53.5l0,-0.7l-0.7,0L152,41.1l-0.8,0l0,0.7Z" class="g2_163" />
<path d="M153.2,94l674.4,0l0,-50.9l-674.4,0l0,50.9Z" class="g3_163" />
<path d="M169,203.5c-0.1,0,-7.7,0.1,-7.7,7.6l0,19.7c0,0.1,0.1,7.7,7.7,7.7l22.4,0c0,0,7.6,-0.1,7.6,-7.7l0,-19.7c0,0,-0.1,-7.6,-7.6,-7.6l-22.4,0Z" class="g2_163" />
<path d="M169,205.5c-0.6,0,-5.6,0.2,-5.6,5.6l0,19.7c0,0.6,0.2,5.6,5.6,5.6l22.4,0c0.5,0,5.6,-0.2,5.6,-5.6l0,-19.7c0,-0.5,-0.2,-5.6,-5.6,-5.6l-22.4,0Z" class="g3_163" />
<path d="M169,422.7c-0.1,0,-7.7,0.1,-7.7,7.7l0,19.7c0,0,0.1,7.6,7.7,7.6l22.4,0c0,0,7.6,-0.1,7.6,-7.6l0,-19.7c0,-0.1,-0.1,-7.7,-7.6,-7.7l-22.4,0Z" class="g2_163" />
<path d="M169,424.8c-0.6,0,-5.6,0.2,-5.6,5.6l0,19.7c0,0.5,0.2,5.6,5.6,5.6l22.4,0c0.5,0,5.6,-0.2,5.6,-5.6l0,-19.7c0,-0.6,-0.2,-5.6,-5.6,-5.6l-22.4,0Z" class="g3_163" />
<path d="M169,642c-0.1,0,-7.7,0,-7.7,7.6l0,19.7c0,0.1,0.1,7.6,7.7,7.6l22.4,0c0,0,7.6,-0.1,7.6,-7.6l0,-19.7c0,-0.1,-0.1,-7.6,-7.6,-7.6L169,642Z" class="g2_163" />
<path d="M169,644c-0.6,0,-5.6,0.2,-5.6,5.6l0,19.7c0,0.6,0.2,5.6,5.6,5.6l22.4,0c0.5,0,5.6,-0.2,5.6,-5.6l0,-19.7c0,-0.6,-0.2,-5.6,-5.6,-5.6L169,644Z" class="g3_163" />
<path d="M169,958.2c-0.1,0,-7.7,0.1,-7.7,7.7l0,19.6c0,0.1,0.1,7.7,7.7,7.7l22.4,0c0,0,7.6,-0.1,7.6,-7.7l0,-19.6c0,-0.1,-0.1,-7.7,-7.6,-7.7l-22.4,0Z" class="g2_163" />
<path d="M169,960.2c-0.6,0.1,-5.6,0.3,-5.6,5.7l0,19.6c0,0.6,0.2,5.6,5.6,5.6l22.4,0c0.5,0,5.6,-0.2,5.6,-5.6l0,-19.6c0,-0.6,-0.2,-5.7,-5.6,-5.7l-22.4,0Z" class="g3_163" />
<path d="M-17.5,1209.2l58,0l0,-1222.1l-58,0l0,1222.1Z" class="g4_163" />
<text 
transform="matrix(0, -1, 1, 0, 31, 1173)"
dx="0,1,1,1" 
class="s11_163"
>140 </text>

<text 
transform="matrix(0, -1, 1, 0, 31, 1129)"
dx="0,1,1,0.8,1,1,0.9,1,0.8,1,1,1,1,1,1,1,1,1,1,1,1" 
class="s11_163"
>Integrated Chinese 3 </text>

<text 
transform="matrix(0, -1, 1, 0, 31, 989)"
dx="0,1" 
class="s11_163"
>| </text>

<text 
transform="matrix(0, -1, 1, 0, 31, 975)"
dx="0,-0.2,0.7,0.7,1,1,1,1" 
class="s11_163"
>Textbook</text>



<!-- Any embedded fonts defined here -->
<style type="text/css" ><![CDATA[

@font-face {
	font-family: STKaiti-SC-Bold_3oi;
	src: url("fonts/STKaiti-SC-Bold_3oi.woff") format("woff");
}

@font-face {
	font-family: LibreFranklin-Regular_3yk;
	src: url("fonts/LibreFranklin-Regular_3yk.woff") format("woff");
}

@font-face {
	font-family: STKaiTi-TC-Bold_3op;
	src: url("fonts/STKaiTi-TC-Bold_3op.woff") format("woff");
}

@font-face {
	font-family: LibreFranklin-ExtraBold_3y5;
	src: url("fonts/LibreFranklin-ExtraBold_3y5.woff") format("woff");
}

@font-face {
	font-family: LibreFranklin-SemiBold_3yj;
	src: url("fonts/LibreFranklin-SemiBold_3yj.woff") format("woff");
}

@font-face {
	font-family: LibreFranklin-Regular_3wt;
	src: url("fonts/LibreFranklin-Regular_3wt.woff") format("woff");
}

@font-face {
	font-family: STKaiTi-TC-Regular_3pl;
	src: url("fonts/STKaiTi-TC-Regular_3pl.woff") format("woff");
}

@font-face {
	font-family: STKaiti-SC-Regular_3pn;
	src: url("fonts/STKaiti-SC-Regular_3pn.woff") format("woff");
}

]]></style>

</svg>
