<?xml version="1.0" encoding="UTF-8" standalone="no"?>
<!DOCTYPE svg PUBLIC "-//W3C//DTD SVG 1.1//EN"
"http://www.w3.org/Graphics/SVG/1.1/DTD/svg11.dtd">


<!-- Page 276 -->
<svg x="0" y="0" width="921" height="1196" viewBox="0 0 921 1196" version="1.1" xmlns="http://www.w3.org/2000/svg" xmlns:xlink="http://www.w3.org/1999/xlink"
style="display: block;margin-left: auto;margin-right: auto;">
<defs>

<style type="text/css"><![CDATA[

.g1_276{
fill: none;
stroke: #872B91;
stroke-width: 2.2916667;
stroke-linecap: butt;
stroke-linejoin: miter;
}
.g2_276{
fill: none;
stroke: #3F3F40;
stroke-width: 0.7638889;
stroke-linecap: butt;
stroke-linejoin: miter;
}
.g3_276{
fill: none;
stroke: #872B91;
stroke-width: 1.5277778;
stroke-linecap: butt;
stroke-linejoin: miter;
stroke-miterlimit: 4;
}
.g4_276{
fill: none;
stroke: #872B91;
stroke-width: 0.5102778;
stroke-linecap: butt;
stroke-linejoin: miter;
stroke-miterlimit: 4;
}
.g5_276{
fill: none;
stroke: #872B91;
stroke-width: 0.7638889;
stroke-linecap: butt;
stroke-linejoin: miter;
stroke-miterlimit: 4;
}
.g6_276{
fill: #DAEFEB;
}
.g7_276{
fill: none;
stroke: #C6EAFA;
stroke-width: 0.7638889;
stroke-linecap: butt;
stroke-linejoin: miter;
stroke-miterlimit: 4;
}
.g8_276{
fill: none;
stroke: #C6EAFA;
stroke-width: 1.5277778;
stroke-linecap: butt;
stroke-linejoin: miter;
stroke-miterlimit: 4;
}
.g9_276{
fill: #CAE7E2;
}
.g10_276{
fill: none;
stroke: #00A3AF;
stroke-width: 0.7638889;
stroke-linecap: butt;
stroke-linejoin: miter;
stroke-miterlimit: 4;
}
.g11_276{
fill: #00A3AF;
}
.g12_276{
fill: #872B91;
stroke: #B2B3B7;
stroke-width: 1.5277778;
stroke-linecap: butt;
stroke-linejoin: miter;
stroke-miterlimit: 4;
}

.s1_276{
font-size: 18.33px;
font-family: LibreFranklin-ExtraBold_414;
fill: #8F4198;
}
.s2_276{
font-size: 22.92px;
font-family: LibreFranklin-Bold_415;
fill: #8F4198;
}
.s3_276{
font-size: 14.51px;
font-family: LibreFranklin-Regular_41f;
fill: #3F3F40;
}
.s4_276{
font-size: 25.97px;
font-family: STKaiti-SC-Regular_3pn;
fill: #3F3F40;
}
.s5_276{
font-size: 25.97px;
font-family: STKaiTi-TC-Regular_3pl;
fill: #3F3F40;
}
.s6_276{
font-size: 15.28px;
font-family: LibreFranklin-ExtraBold_414;
fill: #872B91;
}
.s7_276{
font-size: 9.55px;
font-family: LibreFranklin-Medium_41a;
fill: #872B91;
}
.s8_276{
font-size: 14.51px;
font-family: LibreFranklin-Medium_41a;
fill: #231F20;
}
.s9_276{
font-size: 36.67px;
font-family: STKaiti-SC-Bold_3oi;
fill: #F7931D;
}
.s10_276{
font-size: 25.97px;
font-family: STKaiti-SC-Regular_3pn;
fill: #231F20;
}
.s11_276{
font-size: 25.97px;
font-family: STKaiti-SC-Bold_3oi;
fill: #00AEEF;
}
.s12_276{
font-size: 36.67px;
font-family: STKaiTi-TC-Bold_3op;
fill: #F7931D;
}
.s13_276{
font-size: 25.97px;
font-family: STKaiTi-TC-Regular_3pl;
fill: #231F20;
}
.s14_276{
font-size: 25.97px;
font-family: STKaiTi-TC-Bold_3op;
fill: #00AEEF;
}
.s15_276{
font-size: 11.08px;
font-family: LibreFranklin-SemiBold_41h;
fill: #FFFFFF;
}

]]></style>

</defs>
<path d="M0,0
L0,1196
L921,1196
L921,0 Z " 
fill="#FFFFFF" stroke="none" />
<path d="M119.2,78.3l12.2,0" class="g1_276" />
<path d="M246,340.3l155.8,0" class="g2_276" />
<path d="M528,340.3l155.9,0" class="g2_276" />
<path d="M246,386.1l155.8,0" class="g2_276" />
<path d="M529.1,386.1l155.8,0" class="g2_276" />
<path d="M246,432l155.8,0" class="g2_276" />
<path d="M529.2,432L685,432" class="g2_276" />
<path d="M546.9,576.4l155.9,0" class="g2_276" />
<path d="M650.8,610l155.9,0" class="g2_276" />
<path d="M546.9,690.9l155.9,0" class="g2_276" />
<path d="M650.8,724.5l155.9,0" class="g2_276" />
<text 
x="119" 
y="72" 
dx="0,0" 
class="s1_276"
>F </text>

<text 
x="427" 
y="77" 
dx="0,-1,0,0,0,0,0,0,0,-0.4" 
class="s2_276"
>Full plate</text>

<text 
x="157" 
y="134" 
dx="0,0,0,0,0,0,0,0,0,0,0,0,0,0,0,0,0,0,0,0,0,0,0,0,0,0,0,0,0,0,0,0,0,0,0,0,0,0,0,-0.1,0,0,0,0,0,0,0,0,0,0,0,0,0,0,0,0,0,-0.1,0,0,0,-0.2,0,0,0,0,0,0,0,0,0,0,0,0,0,0,0,0,0,0,0,0,0,0,0,0,0,0,0,0,0,0,0,0,0,0" 
class="s3_276"
>In pairs, discuss and list the advantages and disadvantages of working while studying in school.</text>

<text 
x="157" 
y="188" 
dx="0,0,0,0,0,0,0,0,0,0,0,0,0,0,0,0,0,0,0,0,0,0,0,0,0" 
class="s4_276"
>你觉得一边读书一边打工挣钱有什么好处？有什么坏处？</text>

<text 
x="157" 
y="236" 
dx="0,0,0,0,0,0,0,0,0,0,0,0,0,0,0,0,0,0,0,0,0,0,0,0,0" 
class="s5_276"
>你覺得一邊讀書一邊打工掙錢有什麼好處？有什麼壞處？</text>

<text 
x="259" 
y="291" 
dx="0,0,0,0,0" 
class="s4_276"
>好处/好處</text>

<text 
x="547" 
y="291" 
dx="0,0,0,0,0" 
class="s4_276"
>坏处/壞處</text>

<text 
x="216" 
y="336" 
dx="0" 
class="s6_276"
>1</text>

<text 
x="497" 
y="336" 
dx="0,0" 
class="s6_276"
>1 </text>

<text 
x="216" 
y="382" 
dx="0" 
class="s6_276"
>2</text>

<text 
x="496" 
y="382" 
dx="0,0" 
class="s6_276"
>2 </text>

<text 
x="216" 
y="428" 
dx="0" 
class="s6_276"
>3</text>

<text 
x="495" 
y="428" 
dx="0,0" 
class="s6_276"
>3 </text>

<text 
x="291" 
y="474" 
dx="0,0" 
class="s4_276"
>……</text>

<text 
x="580" 
y="474" 
dx="0,0" 
class="s4_276"
>……</text>

<text 
x="157" 
y="518" 
dx="0,-0.1,-0.1,-0.1,-0.1,-0.1,-0.1,-0.1,-0.1,-0.1,-0.1,-0.1,-0.1,-0.1,-0.1,-0.1,-0.1,-0.1,-0.1,-0.1,-0.1,-0.1,-0.1,-0.1,-0.1,-0.1,-0.1,-0.1,-0.1,-0.1,-0.1,-0.1,-0.1,-0.1,-0.1,-0.1,-0.1,-0.3,-0.1,-0.1,-0.1,-0.1,-0.1,-0.1,-0.1,-1.3,-0.1,-0.1,-0.1,-0.3,-0.1,-0.1,-0.1,-0.1,-0.6,-0.1,-0.1,-0.1,-0.1,-0.3,-0.1,-0.1,-0.1,-0.1,-0.1,-0.1,-0.1,-0.1,-0.1,-0.1,-0.1,-0.1,-0.1,-0.1,-0.1,-0.1,-0.1,-0.1,-0.1,-0.1,-0.3,-0.1,-0.1,-0.1,-0.1,-0.1,-0.2,-0.1,-0.1,-0.1,-0.1,-0.1,-0.1,-0.1,-0.1,-0.1,-0.1,-0.1,-0.3,-0.1,-0.1" 
class="s3_276"
>Based on your list, compose a short report. Try to make sure that your points are smoothly connected.</text>

<text 
x="157" 
y="572" 
dx="0,0,0,0,0,0,0,0,0,0,0,0,0,0,0" 
class="s4_276"
>我们觉得一边读书一边打工挣钱对</text>

<text 
x="702" 
y="572" 
dx="0,0,0,0,0" 
class="s4_276"
>很有帮助。</text>

<text 
x="157" 
y="606" 
dx="0,0,0,0,0,0,0,0,0,0,0,0,0,0,0,0,0,0,0" 
class="s4_276"
>但我们也觉得一边读书一边打工挣钱可能对</text>

<text 
x="157" 
y="640" 
dx="0,0,0,0,0,0,0" 
class="s4_276"
>有不好的影响。</text>

<text 
x="157" 
y="687" 
dx="0,0,0,0,0,0,0,0,0,0,0,0,0,0,0" 
class="s5_276"
>我們覺得一邊讀書一邊打工掙錢對</text>

<text 
x="702" 
y="687" 
dx="0,0,0,0,0" 
class="s5_276"
>很有幫助。</text>

<text 
x="157" 
y="721" 
dx="0,0,0,0,0,0,0,0,0,0,0,0,0,0,0,0,0,0,0" 
class="s5_276"
>但我們也覺得一邊讀書一邊打工掙錢可能對</text>

<text 
x="157" 
y="754" 
dx="0,0,0,0,0,0,0" 
class="s5_276"
>有不好的影響。</text>

<path d="M146.6,41.8l0,53.5l0,0.8l0.8,0l676.9,0l0.8,0l0,-0.8l0,-53.5l0,-0.7l-0.8,0l-676.9,0l-0.8,0l0,0.7Z" class="g3_276" />
<path d="M148.7,94L823,94l0,-50.9l-674.3,0l0,50.9Z" class="g4_276" />
<text 
x="721" 
y="73" 
dx="0,0,0,0,0,0,0,-1,-1,0,0,0,0,0" 
class="s7_276"
>PRESENTATIONAL</text>

<path d="M719.9,76.7l90.9,0l0,-14.4l-90.9,0l0,14.4Z" class="g5_276" />
<text 
x="162" 
y="73" 
dx="0,0,0,0,0,0,0,0,0,0,0,0,0" 
class="s7_276"
>INTERPERSONAL</text>

<path d="M158.1,76.6l90.9,0l0,-14.4l-90.9,0l0,14.4Z" class="g5_276" />
<path d="M846.8,904.6l0,-37.7L828.5,848.6l-264.4,0l0,56.1Z" class="g6_276" />
<path d="M77.9,1012.5l768.9,0" class="g7_276" />
<path d="M77.9,1127.3l768.9,0" class="g8_276" />
<path d="M365.1,1133.2l194.6,0l0,-263.7l-194.6,0l0,263.7Z" class="g9_276" />
<text 
x="379" 
y="913" 
dx="0,0,0,0,0,0,0,0,0,0,0,0,0,-0.2,0,0,0,0,-0.1,0,0,0" 
class="s8_276"
>Using the word/phrase </text>

<text 
x="379" 
y="931" 
dx="0,0,0,0,0,-0.1,0,0,-0.2,0,0,0,0,0,0,0,0,0,0,0,0,0,0,0,0,0,-0.2,0" 
class="s8_276"
>in orange as a clue, try to </text>

<text 
x="379" 
y="949" 
dx="0,0,0,0,0,-0.2,0,0,0,0,0,0,0,0,0,0,0,0,0,0,0,0,0" 
class="s8_276"
>figure out the meaning </text>

<text 
x="379" 
y="968" 
dx="0,-0.2,0,0,0,0,0,0,0,0,-0.2,0,0,0,0,0,-0.1,0,0,0,0,0,0,0" 
class="s8_276"
>of the words/phrases in </text>

<text 
x="379" 
y="986" 
dx="0,0,0,0,0,0,0,0,0,0,0,0,0,0,0,0,0,0,0,0,0,0,0,0,0,0,0" 
class="s8_276"
>blue; consult a dictionary </text>

<text 
x="379" 
y="1004" 
dx="0,0,0,0,0,0,0,0,0,0,0,0,-1,0,0,0,0,0,0,0,0,0,0" 
class="s8_276"
>if necessary. Consider </text>

<text 
x="379" 
y="1023" 
dx="0,0,0,0,0,0,0,0,0,0,0,-0.2,0,-0.1,0,0,0,0,0,0" 
class="s8_276"
>how the literal and </text>

<text 
x="379" 
y="1041" 
dx="0,-0.3,-0.3,-0.2,0,0,0,0,0,0,0,0,0,0,0,0,0,0,-0.2,0" 
class="s8_276"
>extended senses are </text>

<text 
x="379" 
y="1059" 
dx="0,-0.2,0,0,0,-0.2,0,0,0,0,0,0,0,0,0,0,0,0,0,0,0" 
class="s8_276"
>related in each case.</text>

<path d="M361.2,904.9l0,-56.3l-264.9,0L77.9,866.9l0,38.2Z" class="g6_276" />
<text 
x="186" 
y="887" 
dx="0,0" 
class="s9_276"
>经验</text>

<text 
x="88" 
y="938" 
dx="0,0,0,0,0,0,0,0,0" 
class="s10_276"
>他在台湾生活了二十</text>

<text 
x="88" 
y="966" 
dx="0,0,0,0,0,0,0,0,0" 
class="s10_276"
>年，有很多有意思的</text>

<text 
x="88" 
y="993" 
dx="0,0" 
class="s11_276"
>经历</text>

<text 
x="140" 
y="993" 
dx="0" 
class="s10_276"
>。</text>

<text 
x="88" 
y="1052" 
dx="0,0,0,0,0,0,0,0,0,0" 
class="s10_276"
>李老师五年前写的那本</text>

<text 
x="88" 
y="1079" 
dx="0,0,0,0,0,0,0,0,0" 
class="s10_276"
>书，现在很多人都在</text>

<text 
x="88" 
y="1107" 
dx="0,0,0,0,0,0" 
class="s10_276"
>看，已经成了</text>

<text 
x="244" 
y="1107" 
dx="0,0" 
class="s11_276"
>经典</text>

<text 
x="296" 
y="1107" 
dx="0,0" 
class="s10_276"
>了。</text>

<text 
x="667" 
y="887" 
dx="0,0" 
class="s12_276"
>經驗</text>

<text 
x="569" 
y="938" 
dx="0,0,0,0,0,0,0,0,0" 
class="s13_276"
>他在台灣生活了二十</text>

<text 
x="569" 
y="966" 
dx="0,0,0,0,0,0,0,0,0" 
class="s13_276"
>年，有很多有意思的</text>

<text 
x="569" 
y="993" 
dx="0,0" 
class="s14_276"
>經歷</text>

<text 
x="621" 
y="993" 
dx="0" 
class="s13_276"
>。</text>

<text 
x="569" 
y="1052" 
dx="0,0,0,0,0,0,0,0,0,0" 
class="s13_276"
>李老師五年前寫的那本</text>

<text 
x="569" 
y="1079" 
dx="0,0,0,0,0,0,0,0,0" 
class="s13_276"
>書，現在很多人都在</text>

<text 
x="569" 
y="1107" 
dx="0,0,0,0,0,0" 
class="s13_276"
>看，已經成了</text>

<text 
x="725" 
y="1107" 
dx="0,0" 
class="s14_276"
>經典</text>

<text 
x="777" 
y="1107" 
dx="0,0" 
class="s13_276"
>了。</text>

<path d="M396.3,823l-89.9,0l-15.8,10.5l0,15.1" class="g10_276" />
<path d="M535.5,823l99.6,0l16.6,10.5l0,15.1" class="g10_276" />
<path d="M496.4,806.7c-1.5,2.9,-2.7,5.4,-5.2,10.9l-19.6,43.1l-0.8,0L459.5,836.1l-11.3,24.6l-0.9,0L427.2,817.3c-2,-4.2,-3.7,-7.6,-5.5,-10.6l7.7,0c0.9,2.4,2.2,5.6,3.9,9.2L448.5,850l8.4,-19.7L451,817.4c-2.4,-5.6,-3.5,-7.7,-5.5,-10.7l7.2,0c0.9,2.4,1.7,4.5,4.3,10.1l2.9,6.6l2.9,-6.9c2.2,-5,3.2,-7.4,4.1,-9.8l6.6,0c-1.1,1.6,-2.8,5.1,-5.4,10.8l-5.6,12l8.8,20.2l14.2,-32.9c2.6,-5.7,3.5,-8.3,4.1,-10.1Z" class="g11_276" />
<path d="M497.7,838.2c6.3,0,11.3,5,11.3,11.2c0,6.2,-5,11.2,-11.3,11.2c-6.2,0,-11.2,-5,-11.2,-11.2c0,-6.2,5,-11.2,11.2,-11.2m0,20.2c4.8,0,8.6,-4,8.6,-9c0,-5,-3.8,-9,-8.6,-9c-4.7,0,-8.5,4,-8.5,9c0,5,3.8,9,8.5,9Z" class="g11_276" />
<path d="M513.5,854.8c0,2.1,0.1,4.4,0.2,5.4l-2.8,0c0.1,-1,0.1,-3.3,0.1,-5.4l0,-10.6c0,-2.1,0,-4.7,-0.1,-5.7l4.5,0c4.8,0,7.4,2.7,7.4,6.4c0,3.4,-2.1,5.1,-4.3,5.8c2.4,2.9,5.1,7.2,7.6,9.5l-3.6,0c-1.7,-2.3,-4.4,-5.9,-6.2,-9c-0.4,0,-0.7,0,-1,0l-1.8,0Zm0,-5.5l2.1,0c2.7,0,4.6,-1.7,4.6,-4.4c0,-2.2,-1.6,-4.3,-4.9,-4.3l-1.8,0Z" class="g11_276" />
<path d="M526.8,860.2c0.1,-1,0.1,-3.5,0.1,-5.6l0,-10.4c0,-2.1,0,-4.7,-0.1,-5.7l6.1,0c6,0,10.9,4.9,10.9,10.9c0,6,-4.9,10.8,-10.9,10.8Zm2.7,-2.1l3.2,0c4.7,0,8.4,-4,8.4,-8.7c0,-4.8,-3.7,-8.7,-8.4,-8.7l-3.2,0Z" class="g11_276" />
<path d="M555.1,854.5c0,3.7,-2.7,6.2,-6.6,6.2c-2,0,-3.3,-0.5,-4.9,-0.8l0,-3.6c0.8,1.3,2.8,2.3,5,2.3c2.3,0,3.7,-1.5,3.7,-3.8c0,-4.6,-8.1,-4.6,-8.1,-10.9c0,-3.7,2.7,-5.8,6.3,-5.8c1.7,0,2.7,0.4,4,0.6l0,3.4c-0.6,-1.4,-2.2,-2,-4,-2c-2.1,0,-3.6,1.3,-3.6,3.5c0,4.6,8.2,4.7,8.2,10.9Z" class="g11_276" />
<path d="M497.6,827.6l2.2,0c0.3,0,0.4,-0.1,0.5,-0.2l1.8,-5.1c0,-0.2,0.2,-0.2,0.3,-0.2l7.8,0c0.1,0,0.2,0,0.2,0c0,0.1,0.1,0.1,0.1,0.2l1.8,5c0.1,0.2,0.2,0.3,0.5,0.3l2.6,0c0.2,0,0.3,-0.1,0.3,-0.3c0,-0.1,0,-0.2,0,-0.2l-7.1,-19.7c-0.1,-0.4,-0.3,-0.5,-0.7,-0.5l-2.8,0c-0.2,0,-0.3,0,-0.4,0.1c-0.1,0,-0.1,0.2,-0.2,0.3L497.4,827l-0.1,0.3c0,0.2,0.1,0.3,0.3,0.3m5.6,-8.2c-0.1,0,-0.2,0,-0.2,-0.2l0,-0.1l3.1,-8.4c0.1,-0.2,0.1,-0.2,0.2,-0.2c0.1,0,0.2,0,0.2,0.2l3,8.3c0.1,0.2,0.1,0.3,0,0.3c0,0.1,-0.1,0.1,-0.2,0.1Zm28.7,-12.5l-2.2,0c-0.2,0,-0.4,0,-0.4,0.1c-0.1,0,-0.2,0.1,-0.3,0.3l-4.8,8.4c-0.1,0.2,-0.2,0.3,-0.3,0.3c-0.1,0,-0.2,-0.1,-0.3,-0.3l-4.9,-8.4c-0.1,-0.2,-0.1,-0.3,-0.2,-0.3c-0.1,-0.1,-0.3,-0.1,-0.4,-0.1l-2.7,0c-0.3,0,-0.4,0.1,-0.4,0.3c0,0,0,0.1,0,0.2l6.8,11.2c0,0.2,0.1,0.3,0.1,0.4c0.1,0.1,0.1,0.3,0.1,0.5l0,7.7c0,0.3,0.2,0.4,0.5,0.4l2.2,0c0.3,0,0.4,0,0.5,-0.1c0.1,-0.1,0.2,-0.2,0.2,-0.4l0,-7.7c0,-0.3,0,-0.5,0,-0.7c0,-0.1,0.1,-0.2,0.2,-0.4l6.6,-11c0.1,-0.1,0.1,-0.2,0,-0.3c0,-0.1,-0.1,-0.1,-0.3,-0.1Z" class="g11_276" />
<path d="M401.7,827.6l1.5,0c0.2,0,0.3,0,0.4,-0.2l1.2,-3.5c0.1,-0.1,0.2,-0.1,0.3,-0.1l5.4,0c0,0,0.1,0,0.1,0c0,0,0.1,0.1,0.1,0.1l1.2,3.5c0.1,0.2,0.2,0.2,0.4,0.2l1.8,0c0.2,0,0.2,-0.1,0.2,-0.2c0,-0.1,0,-0.1,0,-0.2l-4.9,-13.7c-0.1,-0.2,-0.3,-0.3,-0.5,-0.3l-2,0c-0.1,0,-0.2,0,-0.2,0.1c-0.1,0,-0.2,0.1,-0.2,0.2l-5,13.7l0,0.2c0,0.2,0.1,0.2,0.2,0.2m3.9,-5.7c-0.1,0,-0.1,0,-0.1,-0.1l0,-0.1l2.1,-5.8c0.1,-0.2,0.1,-0.2,0.2,-0.2c0,0,0.1,0,0.1,0.1l2.1,5.9c0,0.1,0,0.1,0,0.2c0,0,-0.1,0,-0.1,0Z" class="g11_276" />
<path d="M390.9,843.6l-1.1,0c-0.3,0,-0.4,0.1,-0.4,0.3l-3.8,13.5c-0.1,0.1,-0.1,0.2,-0.2,0.2c0,0,0,-0.1,-0.1,-0.2l-3.8,-13.5c0,-0.1,0,-0.2,-0.1,-0.2c-0.1,0,-0.2,-0.1,-0.3,-0.1l-1.3,0c-0.2,0,-0.3,0.1,-0.4,0.3l-3.8,13.4c-0.1,0.2,-0.1,0.3,-0.2,0.3c0,0,-0.1,-0.1,-0.1,-0.3l-3.7,-13.4c-0.1,-0.2,-0.2,-0.3,-0.4,-0.3l-1.5,0c-0.2,0,-0.4,0.1,-0.4,0.3c0,0.1,0.1,0.1,0.1,0.1l4.6,16.4c0.1,0.2,0.3,0.3,0.6,0.3l1.4,0c0.1,0,0.3,0,0.3,-0.1c0.1,0,0.2,-0.1,0.2,-0.2l3.7,-13c0.1,-0.2,0.1,-0.2,0.2,-0.1l3.7,13.1c0,0.2,0.2,0.3,0.5,0.3l1.4,0c0.2,0,0.3,0,0.3,-0.1c0.1,0,0.2,-0.1,0.2,-0.2L391.2,844c0.1,-0.1,0.1,-0.2,0,-0.3c0,0,-0.1,-0.1,-0.3,-0.1m3.9,0c-0.2,0,-0.3,0.1,-0.3,0.4l0,16.4c0,0.1,0.1,0.2,0.1,0.2c0,0.1,0.1,0.1,0.3,0.1l1.4,0c0.2,0,0.3,0,0.3,-0.1c0.1,0,0.1,-0.1,0.1,-0.3l0,-16.4c0,-0.2,-0.1,-0.3,-0.2,-0.3Zm5.1,1.5c0,0.1,0.1,0.1,0.1,0.2c0.1,0,0.1,0,0.2,0l5,0c0.1,0,0.2,0,0.2,0.1c0,0,0.1,0.1,0.1,0.2l0,14.8c0,0.2,0.1,0.3,0.2,0.3l1.7,0c0.2,0,0.3,-0.1,0.3,-0.3l0,-14.9c0,0,0,-0.1,0,-0.1c0.1,-0.1,0.1,-0.1,0.2,-0.1l4.7,0c0.1,0,0.2,0,0.2,0c0,-0.1,0.1,-0.1,0.1,-0.2l0,-1.2c0,-0.2,-0.1,-0.3,-0.3,-0.3l-12.4,0c-0.2,0,-0.3,0.1,-0.3,0.3Zm26.2,7.6c0.1,0,0.2,0.1,0.2,0.2l0,7.5c0,0.1,0,0.2,0.1,0.2c0,0.1,0.1,0.1,0.3,0.1l1.5,0c0.2,0,0.3,-0.1,0.3,-0.3l0,-16.4c0,-0.2,0,-0.3,-0.1,-0.3c0,0,-0.1,-0.1,-0.2,-0.1l-1.7,0c-0.1,0,-0.2,0.1,-0.2,0.3l0,6.8c0,0.2,-0.1,0.3,-0.3,0.3l-7.5,0c-0.1,0,-0.2,0,-0.2,-0.1c0,0,0,-0.1,0,-0.2l0,-6.8c0,-0.2,-0.1,-0.3,-0.3,-0.3l-1.7,0c-0.2,0,-0.3,0.1,-0.3,0.4l0,16.4c0,0.1,0.1,0.2,0.1,0.2c0.1,0.1,0.1,0.1,0.3,0.1l1.5,0c0.1,0,0.2,0,0.3,-0.1c0,0,0.1,-0.1,0.1,-0.2l0,-7.5c0,0,0,-0.1,0,-0.1c0,-0.1,0.1,-0.1,0.1,-0.1Z" class="g11_276" />
<path d="M881.9,1209.2l67.2,0l0,-1222.1l-67.2,0l0,1222.1Z" class="g12_276" />
<text 
transform="matrix(0, 1, -1, 0, 890, 793)"
dx="0,1,1,1,1,1,1,1,1" 
class="s15_276"
>Lesson 8 </text>

<text 
transform="matrix(0, 1, -1, 0, 890, 859)"
dx="0,1" 
class="s15_276"
>| </text>

<text 
transform="matrix(0, 1, -1, 0, 890, 872)"
dx="0,0.1,1,1,1,1,1,1,1,1,1,1,1,-0.3,1,1,1,1" 
class="s15_276"
>Working Part-Time </text>

<text 
transform="matrix(0, 1, -1, 0, 890, 999)"
dx="0,1" 
class="s15_276"
>| </text>

<text 
transform="matrix(0, 1, -1, 0, 890, 1013)"
dx="0,1,1,1,1,1,1,0.8,1,1,1,0.9,1,1,1,1,1,1" 
class="s15_276"
>Language Practice </text>

<text 
transform="matrix(0, 1, -1, 0, 890, 1149)"
dx="0,1,1,0" 
class="s15_276"
>253 </text>



<!-- Any embedded fonts defined here -->
<style type="text/css" ><![CDATA[

@font-face {
	font-family: STKaiti-SC-Bold_3oi;
	src: url("fonts/STKaiti-SC-Bold_3oi.woff") format("woff");
}

@font-face {
	font-family: STKaiTi-TC-Bold_3op;
	src: url("fonts/STKaiTi-TC-Bold_3op.woff") format("woff");
}

@font-face {
	font-family: LibreFranklin-Bold_415;
	src: url("fonts/LibreFranklin-Bold_415.woff") format("woff");
}

@font-face {
	font-family: LibreFranklin-Medium_41a;
	src: url("fonts/LibreFranklin-Medium_41a.woff") format("woff");
}

@font-face {
	font-family: STKaiTi-TC-Regular_3pl;
	src: url("fonts/STKaiTi-TC-Regular_3pl.woff") format("woff");
}

@font-face {
	font-family: STKaiti-SC-Regular_3pn;
	src: url("fonts/STKaiti-SC-Regular_3pn.woff") format("woff");
}

@font-face {
	font-family: LibreFranklin-SemiBold_41h;
	src: url("fonts/LibreFranklin-SemiBold_41h.woff") format("woff");
}

@font-face {
	font-family: LibreFranklin-ExtraBold_414;
	src: url("fonts/LibreFranklin-ExtraBold_414.woff") format("woff");
}

@font-face {
	font-family: LibreFranklin-Regular_41f;
	src: url("fonts/LibreFranklin-Regular_41f.woff") format("woff");
}

]]></style>

</svg>
