<?xml version="1.0" encoding="UTF-8" standalone="no"?>
<!DOCTYPE svg PUBLIC "-//W3C//DTD SVG 1.1//EN"
"http://www.w3.org/Graphics/SVG/1.1/DTD/svg11.dtd">


<!-- Page 185 -->
<svg x="0" y="0" width="921" height="1196" viewBox="0 0 921 1196" version="1.1" xmlns="http://www.w3.org/2000/svg" xmlns:xlink="http://www.w3.org/1999/xlink"
style="display: block;margin-left: auto;margin-right: auto;">
<defs>

<style type="text/css"><![CDATA[

.g1_185{
fill: #D4EFFB;
}
.g2_185{
fill: #00AEEF;
stroke: #B2B3B7;
stroke-width: 1.5277778;
stroke-linecap: butt;
stroke-linejoin: miter;
stroke-miterlimit: 4;
}
.g3_185{
fill: none;
stroke: #9855A2;
stroke-width: 2.2916667;
stroke-linecap: butt;
stroke-linejoin: miter;
}
.g4_185{
fill: none;
stroke: #3F3F40;
stroke-width: 0.7638889;
stroke-linecap: butt;
stroke-linejoin: miter;
}
.g5_185{
fill: none;
stroke: #00AEEF;
stroke-width: 1.5277778;
stroke-linecap: butt;
stroke-linejoin: miter;
stroke-miterlimit: 4;
}
.g6_185{
fill: none;
stroke: #00AEEF;
stroke-width: 0.5102778;
stroke-linecap: butt;
stroke-linejoin: miter;
stroke-miterlimit: 4;
}

.s1_185{
font-size: 10.69px;
font-family: LibreFranklin-SemiBold_3zk;
fill: #FFFFFF;
}
.s2_185{
font-size: 18.33px;
font-family: LibreFranklin-ExtraBold_3zg;
fill: #9855A2;
}
.s3_185{
font-size: 22.92px;
font-family: LibreFranklin-Bold_3zj;
fill: #9855A2;
}
.s4_185{
font-size: 14.51px;
font-family: LibreFranklin-Regular_3zt;
fill: #3F3F40;
}
.s5_185{
font-size: 25.97px;
font-family: STKaiti-SC-Bold_3oi;
fill: #3F3F40;
}
.s6_185{
font-size: 16.81px;
font-family: LibreFranklin-ExtraBold_3zg;
fill: #872B91;
}
.s7_185{
font-size: 25.97px;
font-family: STKaiTi-TC-Bold_3op;
fill: #3F3F40;
}

]]></style>

</defs>
<path d="M0,0
L0,1196
L921,1196
L921,0 Z " 
fill="#FFFFFF" stroke="none" />
<path d="M20,1209.2l900.5,0l0,-1222.1L20,-12.9l0,1222.1Z" class="g1_185" />
<path d="M-17.5,1209.2l58,0l0,-1222.1l-58,0l0,1222.1Z" class="g2_185" />
<text 
transform="matrix(0, -1, 1, 0, 32, 1173)"
dx="0,0.6,0.6,0.6" 
class="s1_185"
>162 </text>

<text 
transform="matrix(0, -1, 1, 0, 32, 1135)"
dx="0,0.6,0.6,0.5,0.6,0.6,0.6,0.6,0.5,0.6,0.6,0.6,0.6,0.6,0.6,0.6,0.6,0.6,0.6,0.6,0.6" 
class="s1_185"
>Integrated Chinese 3 </text>

<text 
transform="matrix(0, -1, 1, 0, 32, 1006)"
dx="0,0.6" 
class="s1_185"
>| </text>

<text 
transform="matrix(0, -1, 1, 0, 32, 994)"
dx="0,-0.6,0.4,0.3,0.6,0.6,0.6,0.6" 
class="s1_185"
>Textbook</text>

<path d="M108.5,78.3l13.7,0" class="g3_185" />
<path d="M236.8,436.9l52,0" class="g4_185" />
<path d="M522.5,436.9l51.9,0" class="g4_185" />
<path d="M730.3,436.9l51.9,0" class="g4_185" />
<path d="M522.5,470.5l51.9,0" class="g4_185" />
<path d="M314.7,537.8l52,0" class="g4_185" />
<path d="M236.8,813.9l52,0" class="g4_185" />
<path d="M522.5,813.9l51.9,0" class="g4_185" />
<path d="M730.3,813.9l51.9,0" class="g4_185" />
<path d="M522.5,847.5l51.9,0" class="g4_185" />
<path d="M314.7,914.7l52,0" class="g4_185" />
<text 
x="108" 
y="72" 
dx="0,0" 
class="s2_185"
>D </text>

<text 
x="354" 
y="77" 
dx="0,0,-0.3,0,0,0,0,0,-0.7,0,0,0,0,0,0,0,0,0,0,0,0" 
class="s3_185"
>Let me explain myself</text>

<text 
x="137" 
y="141" 
dx="0,0,0,0,0,0,0,0,0,0,0,0,0,0,0,0,0,0,0,0,0,0,-0.4,0,0,-0.8,0,0,0,0,0,0,0,0,0,0,0,0,0,0,0,0,0,0,0,0,0,0,0,0,0,0,0,0,0,0,0,0,0,0,0,0,0,0,0,0,0,0,0,0,0,0,0,0,0,0,0,0,0,0,-0.2,0,0,0,0,0,0,0,0" 
class="s4_185"
>How would you help make Person B sound logical while justifying his/her choice of major? </text>

<text 
x="137" 
y="164" 
dx="0,0,0,0,0,0,0,0,0,-0.3,0,0,0,0,0,0,0,0,0,0,0,0,0,0,0,0,0,0,0,0,0,0,0,0,0,-0.2,0,0,0,0,0,-0.2,0,0,0,0,0,-0.2,0,0,-0.2,0,0,0,0,0,0,0,-0.1,-0.2,0,0,0,0,0,0,-0.3,0,0,0,0,0,0,0,0,0,0,0,0,0,0,0,0,0,0" 
class="s4_185"
>Use the following conjunctions where appropriate to complete the following paragraph.</text>

<text 
x="157" 
y="216" 
dx="0,0" 
class="s5_185"
>另外</text>

<text 
x="266" 
y="216" 
dx="0,0" 
class="s5_185"
>因为</text>

<text 
x="376" 
y="216" 
dx="0,0" 
class="s5_185"
>虽然</text>

<text 
x="485" 
y="216" 
dx="0,0" 
class="s5_185"
>可是</text>

<text 
x="594" 
y="216" 
dx="0,0" 
class="s5_185"
>所以</text>

<text 
x="704" 
y="216" 
dx="0,0" 
class="s5_185"
>再说</text>

<text 
x="139" 
y="278" 
dx="0,0.2,0.2,0.2,0.2,0.2,0.2,0.2,0.2" 
class="s6_185"
>Person A </text>

<text 
x="236" 
y="278" 
dx="0,0,0,0,0,0,0,0,0,0,0" 
class="s5_185"
>你想好选什么专业了吗？</text>

<text 
x="139" 
y="318" 
dx="0,0.2,0.2,0.2,0.2,0.2,0.2,0.2,0.2" 
class="s6_185"
>Person B </text>

<text 
x="236" 
y="318" 
dx="0,0,0,0,0,0,0,0,0,0,0" 
class="s5_185"
>想好了。我决定学化学。</text>

<text 
x="139" 
y="359" 
dx="0,0.2,0.2,0.2,0.2,0.2,0.2,0.2,0.2" 
class="s6_185"
>Person A </text>

<text 
x="236" 
y="359" 
dx="0,0,0,0,0,0,0,0,0,0,0,0,0,0,0,0,0,0,0,0,0,0,0,0" 
class="s5_185"
>为什么选化学？你昨天不是说要跟我一样，上管理学院</text>

<text 
x="236" 
y="392" 
dx="0,0" 
class="s5_185"
>吗？</text>

<text 
x="139" 
y="433" 
dx="0,0.2,0.2,0.2,0.2,0.2,0.2,0.2,0.2" 
class="s6_185"
>Person B </text>

<text 
x="288" 
y="433" 
dx="0,0,0,0,0,0,0,0,0" 
class="s5_185"
>管理学院的课不难，</text>

<text 
x="574" 
y="433" 
dx="0,0,0,0,0,0" 
class="s5_185"
>很没有意思。</text>

<text 
x="782" 
y="433" 
dx="0,0,0" 
class="s5_185"
>我对数</text>

<text 
x="236" 
y="467" 
dx="0,0,0,0,0,0,0,0,0,0,0" 
class="s5_185"
>字、金融也没什么兴趣。</text>

<text 
x="574" 
y="467" 
dx="0,0,0,0,0,0,0,0,0,0,0" 
class="s5_185"
>上管理学院的人太多了，</text>

<text 
x="236" 
y="500" 
dx="0,0,0,0,0,0,0,0,0,0,0,0,0,0,0,0,0,0,0,0,0,0,0,0" 
class="s5_185"
>毕业以后找工作不见得容易。我听说学药学找工作比较</text>

<text 
x="236" 
y="534" 
dx="0,0,0" 
class="s5_185"
>容易。</text>

<text 
x="366" 
y="534" 
dx="0,0,0,0,0,0,0,0,0,0,0,0,0,0,0,0,0,0,0" 
class="s5_185"
>我打算先学化学专业，将来念药学研究生。</text>

<text 
x="158" 
y="593" 
dx="0,0" 
class="s5_185"
>另外</text>

<text 
x="268" 
y="593" 
dx="0,0" 
class="s7_185"
>因為</text>

<text 
x="377" 
y="593" 
dx="0,0" 
class="s7_185"
>雖然</text>

<text 
x="487" 
y="593" 
dx="0,0" 
class="s5_185"
>可是</text>

<text 
x="596" 
y="593" 
dx="0,0" 
class="s5_185"
>所以</text>

<text 
x="705" 
y="593" 
dx="0,0" 
class="s7_185"
>再說</text>

<text 
x="139" 
y="655" 
dx="0,0.2,0.2,0.2,0.2,0.2,0.2,0.2,0.2" 
class="s6_185"
>Person A </text>

<text 
x="236" 
y="655" 
dx="0,0,0,0,0,0,0,0,0,0,0" 
class="s5_185"
>你想好選什麼專業了嗎？</text>

<text 
x="139" 
y="695" 
dx="0,0.2,0.2,0.2,0.2,0.2,0.2,0.2,0.2" 
class="s6_185"
>Person B </text>

<text 
x="236" 
y="695" 
dx="0,0,0,0,0,0,0,0,0,0,0" 
class="s5_185"
>想好了。我決定學化學。</text>

<text 
x="139" 
y="736" 
dx="0,0.2,0.2,0.2,0.2,0.2,0.2,0.2,0.2" 
class="s6_185"
>Person A </text>

<text 
x="236" 
y="736" 
dx="0,0,0,0,0,0,0,0,0,0,0,0,0,0,0,0,0,0,0,0,0,0,0,0" 
class="s5_185"
>為什麼選化學？你昨天不是説要跟我一樣，上管理學院</text>

<text 
x="236" 
y="769" 
dx="0,0" 
class="s5_185"
>嗎？</text>

<text 
x="139" 
y="810" 
dx="0,0.2,0.2,0.2,0.2,0.2,0.2,0.2,0.2" 
class="s6_185"
>Person B </text>

<text 
x="288" 
y="810" 
dx="0,0,0,0,0,0,0,0,0" 
class="s5_185"
>管理學院的課不難，</text>

<text 
x="574" 
y="810" 
dx="0,0,0,0,0,0" 
class="s5_185"
>很沒有意思。</text>

<text 
x="782" 
y="810" 
dx="0,0,0" 
class="s5_185"
>我對數</text>

<text 
x="236" 
y="844" 
dx="0,0,0,0,0,0,0,0,0,0,0" 
class="s5_185"
>字、金融也没什麼興趣。</text>

<text 
x="574" 
y="844" 
dx="0,0,0,0,0,0,0,0,0,0,0" 
class="s5_185"
>上管理學院的人太多了，</text>

<text 
x="236" 
y="877" 
dx="0,0,0,0,0,0,0,0,0,0,0,0,0,0,0,0,0,0,0,0,0,0,0,0" 
class="s5_185"
>畢業以後找工作不見得容易。我聽說學藥學找工作比較</text>

<text 
x="236" 
y="911" 
dx="0,0,0" 
class="s5_185"
>容易。</text>

<text 
x="366" 
y="911" 
dx="0,0,0,0,0,0,0,0,0,0,0,0,0,0,0,0,0,0,0,0" 
class="s5_185"
>我打算先學化學專業，將來念藥學研究生。 </text>

<path d="M135.9,41.8l0,53.5l0,0.8l0.8,0l676.9,0l0.8,0l0,-0.8l0,-53.5l0,-0.7l-0.8,0l-676.9,0l-0.8,0l0,0.7Z" class="g5_185" />
<path d="M138,94l674.3,0l0,-50.9L138,43.1L138,94Z" class="g6_185" />


<!-- Any embedded fonts defined here -->
<style type="text/css" ><![CDATA[

@font-face {
	font-family: STKaiti-SC-Bold_3oi;
	src: url("fonts/STKaiti-SC-Bold_3oi.woff") format("woff");
}

@font-face {
	font-family: LibreFranklin-Bold_3zj;
	src: url("fonts/LibreFranklin-Bold_3zj.woff") format("woff");
}

@font-face {
	font-family: STKaiTi-TC-Bold_3op;
	src: url("fonts/STKaiTi-TC-Bold_3op.woff") format("woff");
}

@font-face {
	font-family: LibreFranklin-SemiBold_3zk;
	src: url("fonts/LibreFranklin-SemiBold_3zk.woff") format("woff");
}

@font-face {
	font-family: LibreFranklin-ExtraBold_3zg;
	src: url("fonts/LibreFranklin-ExtraBold_3zg.woff") format("woff");
}

@font-face {
	font-family: LibreFranklin-Regular_3zt;
	src: url("fonts/LibreFranklin-Regular_3zt.woff") format("woff");
}

]]></style>

</svg>
