<?xml version="1.0" encoding="UTF-8" standalone="no"?>
<!DOCTYPE svg PUBLIC "-//W3C//DTD SVG 1.1//EN"
"http://www.w3.org/Graphics/SVG/1.1/DTD/svg11.dtd">


<!-- Page 186 -->
<svg x="0" y="0" width="921" height="1196" viewBox="0 0 921 1196" version="1.1" xmlns="http://www.w3.org/2000/svg" xmlns:xlink="http://www.w3.org/1999/xlink"
style="display: block;margin-left: auto;margin-right: auto;">
<defs>
<clipPath id="c0_186"><path d="M0,1196.3L0,0L921.3,0l0,1196.3Z" /></clipPath>

<style type="text/css"><![CDATA[

.g1_186{
fill: #F89B20;
}
.g2_186{
fill: none;
stroke: #DCDDDF;
stroke-width: 2.2916667;
stroke-linecap: butt;
stroke-linejoin: miter;
stroke-miterlimit: 4;
}
.g3_186{
fill: none;
stroke: #D1D2D4;
stroke-width: 0.5102778;
stroke-linecap: butt;
stroke-linejoin: round;
stroke-miterlimit: 4;
}
.g4_186{
fill: none;
stroke: #D1D2D4;
stroke-width: 1.5277778;
stroke-linecap: butt;
stroke-linejoin: round;
stroke-miterlimit: 4;
}
.g5_186{
fill: #F89B20;
stroke: #DCDDDF;
stroke-width: 2.2916667;
stroke-linecap: butt;
stroke-linejoin: miter;
stroke-miterlimit: 4;
}
.g6_186{
fill: #FFFFFF;
fill-opacity: 0.880005;
}
.g7_186{
fill: none;
stroke: #FFFFFF;
stroke-width: 2.2916667;
stroke-linecap: butt;
stroke-linejoin: miter;
stroke-miterlimit: 4;
}
.g8_186{
fill: none;
stroke: #FFFFFF;
stroke-width: 0.7654167;
stroke-linecap: butt;
stroke-linejoin: miter;
stroke-miterlimit: 4;
}

.s1_186{
font-size: 32.85px;
font-family: LibreFranklin-ExtraBold_3-1;
fill: #F89B20;
}
.s2_186{
font-size: 27.50px;
font-family: SourceHanSansCN-Medium_3p3;
fill: #FFFFFF;
}
.s3_186{
font-size: 27.50px;
font-family: SourceHanSansTW-Medium_3ps;
fill: #FFFFFF;
}
.s4_186{
font-size: 106.94px;
font-family: STKaiti-SC-Regular_3pn;
fill: #F89B20;
}
.s5_186{
font-size: 36.67px;
font-family: MuseoSlab-900_3-0;
fill: #FFFFFF;
}
.s6_186{
font-size: 22.92px;
font-family: LibreFranklin-ExtraBold_3-1;
fill: #FFFFFF;
}
.s7_186{
font-size: 14.51px;
font-family: LibreFranklin-Bold_3-8;
fill: #231F20;
}
.s8_186{
font-size: 15.28px;
font-family: Wingdings2_3pi;
fill: #E5C354;
}
.s9_186{
font-size: 13.37px;
font-family: LibreFranklin-Medium_3-7;
fill: #231F20;
}

]]></style>

</defs>
<path d="M0,0
L0,1196
L921,1196
L921,0 Z " 
fill="#FFFFFF" stroke="none" />
<image preserveAspectRatio="none" x="18" y="20" width="881" height="915" xlink:href="186/img/1.png" />
<image preserveAspectRatio="none" x="17" y="796" width="881" height="141" xlink:href="186/img/2.png" />
<path d="M721.9,152.6c0,0,-3.6,0,-3.6,3.5l0,42.1c0,0,0,3.5,3.6,3.5l118.6,0c0,0,3.6,0,3.6,-3.5l0,-42.1c0,0,0,-3.5,-3.6,-3.5Z" class="g1_186" />
<path d="M721.9,152.6c0,0,-3.6,0,-3.6,3.5l0,42.1c0,0,0,3.5,3.6,3.5l118.6,0c0,0,3.6,0,3.6,-3.5l0,-42.1c0,0,0,-3.5,-3.6,-3.5l-118.6,0Z" class="g2_186" />
<path d="M721.9,212.6c0,0,-3.6,0,-3.6,3.5l0,42.1c0,0,0,3.6,3.6,3.6l118.6,0c0,0,3.6,0,3.6,-3.6l0,-42.1c0,0,0,-3.5,-3.6,-3.5Z" class="g1_186" />
<path d="M721.9,212.6c0,0,-3.6,0,-3.6,3.5l0,42.1c0,0,0,3.6,3.6,3.6l118.6,0c0,0,3.6,0,3.6,-3.6l0,-42.1c0,0,0,-3.5,-3.6,-3.5l-118.6,0Z" class="g2_186" />
<g clip-path="url(#c0_186)">
<path d="M670,134.3l302.8,0" class="g3_186" />
<path d="M670,136.4l302.8,0" class="g4_186" />
</g>
<path d="M473.2,956.6l310.4,0l0,-46l-310.4,0l0,46Z" class="g5_186" />
<path d="M133.2,956.6l310.4,0l0,-46l-310.4,0l0,46Z" class="g5_186" />
<text 
x="708" 
y="117" 
dx="0,0,0,0,0,0,0,0" 
class="s1_186"
>Lesson 6</text>

<text 
x="740" 
y="187" 
dx="0,-1.4,-1.4" 
class="s2_186"
>第六课</text>

<text 
x="740" 
y="248" 
dx="0,-1.4,-1.4" 
class="s3_186"
>第六課</text>

<path d="M147,601.4c0,0,-13.8,0,-13.8,13.8l0,152.4c0,0,0,13.7,13.8,13.7l622.9,0c0,0,13.7,0,13.7,-13.7l0,-152.4c0,0,0,-13.8,-13.7,-13.8Z" class="g6_186" />
<text 
x="151" 
y="719" 
dx="0,-5.3,-5.3,-5.3,-5.3,-5.3" 
class="s4_186"
>男朋友女朋友</text>

<text 
x="381" 
y="854" 
dx="0,-0.3,-1.8,0,0,-0.2" 
class="s5_186"
>DATING</text>

<path d="M136.1,811.5l0,60.8l0,1.2l1.2,0l645.8,0l1.2,0l0,-1.2l0,-60.8l0,-1.1l-1.2,0l-645.8,0l-1.2,0l0,1.1Z" class="g7_186" />
<path d="M139.2,870.4l642,0l0,-57l-642,0l0,57Z" class="g8_186" />
<text 
x="175" 
y="939" 
dx="0,0.2,0.2,0.2,0.2,0.2,0.2,0.2,0.2,0.2,0.2,0.2,0.2,0.2,0.2,0.2,0.2,-0.5,0.2" 
class="s6_186"
>Learning Objectives</text>

<text 
x="161" 
y="987" 
dx="0,0,0,0,0,0,0,0,0,0,0,0,0,0,0,0,0,0,0,0,0,0,0,0,0,0,0,0,0,0,0,0,-0.2,0" 
class="s7_186"
>In this lesson, you will learn to:</text>

<text 
x="163" 
y="1010" 
dx="0" 
class="s8_186"
>y</text>

<text 
x="182" 
y="1010" 
dx="0,0,0,0,0,0,0,0,0,0,0,0,0,0,-0.4,0,0,0,0,0,0,0,0,0,0,0,0,0,0,0,0,0,0,0,0,0,0" 
class="s9_186"
>Say if you have an upbeat personality</text>

<text 
x="163" 
y="1030" 
dx="0" 
class="s8_186"
>y</text>

<text 
x="182" 
y="1030" 
dx="0,-0.3,0,0,-0.2,0,0,0,0,0,0,0,0,0,0,0,0,-0.2,0,0,0,0,0,0,0,0,0,0,0,0,0,-0.2,0,-0.2,0,0,0,0,0,0,0" 
class="s9_186"
>State if you share the same interests or </text>

<text 
x="182" 
y="1047" 
dx="0,0,0,0,0,0,0,0,0,0,0,0,-0.1,0,0,0,0" 
class="s9_186"
>hobbies as others</text>

<text 
x="163" 
y="1067" 
dx="0" 
class="s8_186"
>y</text>

<text 
x="182" 
y="1067" 
dx="0,0,0,0,0,0,-0.2,0,0,0,0,0,0,-0.4,0,0,0,0,0,0,0,0,0,0,0,0,0,0,0,0,0,0,0,0,0,0,0,0,0,0,0" 
class="s9_186"
>Inquire if everything is OK and find out </text>

<text 
x="182" 
y="1084" 
dx="0,0,0,0,0,0,0,0,0,0,0,0,0,0,0,0,0" 
class="s9_186"
>what has happened</text>

<text 
x="163" 
y="1104" 
dx="0" 
class="s8_186"
>y</text>

<text 
x="182" 
y="1104" 
dx="0,0,0,0,0,0,0,0,0,0,0,0,0,0,0,0,0,0,0,0,-0.2,0,0,0,0,-0.3,0,0,-0.2,-0.1,0,0,0,0,0,0,0,0,0,0" 
class="s9_186"
>Describe behaviors of a forgetful person</text>

<text 
x="163" 
y="1124" 
dx="0" 
class="s8_186"
>y</text>

<text 
x="182" 
y="1124" 
dx="0,0,0,-0.4,0,0,0,0,0,0,0,0,0,0,0,0,0,0,0,0,0,-0.1,0,0,0,0,0,-0.2,0,0,0,0,0,0,0,0,0,0" 
class="s9_186"
>Give a simple description of what you </text>

<text 
x="182" 
y="1140" 
dx="0,0,0,0,0,0,-0.3,0,0,0,0,0,0,0,0,0,0,0,0,0" 
class="s9_186"
>look for in a friend</text>

<text 
x="163" 
y="1160" 
dx="0" 
class="s8_186"
>y</text>

<text 
x="182" 
y="1160" 
dx="0,-1.5,0,0,0,0,0,0,0,0,0,0,0,-0.4,0,0,0,0,0,0,0,0,0,0,0,0,0,0,0,0,0,0,0,0,0,0" 
class="s9_186"
>Tell what makes you anxious or angry</text>

<text 
x="517" 
y="939" 
dx="0,0.2,0.2,0.2,0.2,-0.2,0.2,0.2,0.2,0.2,0.2,-0.1,0.2,0.2,0.2,0.2,0.2,0.2" 
class="s6_186"
>Relate &amp; Get Ready</text>

<text 
x="500" 
y="987" 
dx="0,0,0,0,0,0,0,0,0,0,0,0,0,0,0,0,0,0,-0.2,0,0,0,0,0,0,0,0,0,0,0" 
class="s7_186"
>In your own culture/community:</text>

<text 
x="502" 
y="1012" 
dx="0" 
class="s8_186"
>y</text>

<text 
x="521" 
y="1012" 
dx="0,0,0,0,0,0,0,0,0,0,0,0,0,0,0,0,0" 
class="s9_186"
>Is dating common?</text>

<text 
x="502" 
y="1033" 
dx="0" 
class="s8_186"
>y</text>

<text 
x="521" 
y="1033" 
dx="0,0,0,0,0,0,0,0,0,0,0,0,0,0,0,0,0,0,0,0,0,-0.3,0,0,0,0,0,0,0,0,0,0,-0.2,0" 
class="s9_186"
>What do people look for in a date?</text>

<text 
x="502" 
y="1055" 
dx="0" 
class="s8_186"
>y</text>

<text 
x="521" 
y="1055" 
dx="0,0,0,0,0,0,0,0,0,0,0,0,0,0,-0.2,0,0,0,0,0,0,0,0,0,0,0,0,0,0,-0.2,0,0,0,-0.2,0" 
class="s9_186"
>Do people introduce their dates to </text>

<text 
x="521" 
y="1073" 
dx="0,0,0,0,0,0,0,0,0,-0.2,0,0,0,0" 
class="s9_186"
>their parents?</text>

<text 
x="502" 
y="1094" 
dx="0" 
class="s8_186"
>y</text>

<text 
x="521" 
y="1094" 
dx="0,0,0,0,0,0,0,0,0,0,0,0,0,0,-0.3,0,0,0,0,0,0,0,0,0,0,0,-0.2,0,0,0,0,0,0,0,0,0,0,0,0,0,0" 
class="s9_186"
>Is it common for friends to start dating?</text>



<!-- Any embedded fonts defined here -->
<style type="text/css" ><![CDATA[

@font-face {
	font-family: Wingdings2_3pi;
	src: url("fonts/Wingdings2_3pi.woff") format("woff");
}

@font-face {
	font-family: LibreFranklin-Medium_3-7;
	src: url("fonts/LibreFranklin-Medium_3-7.woff") format("woff");
}

@font-face {
	font-family: SourceHanSansCN-Medium_3p3;
	src: url("fonts/SourceHanSansCN-Medium_3p3.woff") format("woff");
}

@font-face {
	font-family: LibreFranklin-Bold_3-8;
	src: url("fonts/LibreFranklin-Bold_3-8.woff") format("woff");
}

@font-face {
	font-family: STKaiti-SC-Regular_3pn;
	src: url("fonts/STKaiti-SC-Regular_3pn.woff") format("woff");
}

@font-face {
	font-family: MuseoSlab-900_3-0;
	src: url("fonts/MuseoSlab-900_3-0.woff") format("woff");
}

@font-face {
	font-family: LibreFranklin-ExtraBold_3-1;
	src: url("fonts/LibreFranklin-ExtraBold_3-1.woff") format("woff");
}

@font-face {
	font-family: SourceHanSansTW-Medium_3ps;
	src: url("fonts/SourceHanSansTW-Medium_3ps.woff") format("woff");
}

]]></style>

</svg>
