<?xml version="1.0" encoding="UTF-8" standalone="no"?>
<!DOCTYPE svg PUBLIC "-//W3C//DTD SVG 1.1//EN"
"http://www.w3.org/Graphics/SVG/1.1/DTD/svg11.dtd">


<!-- Page 289 -->
<svg x="0" y="0" width="921" height="1196" viewBox="0 0 921 1196" version="1.1" xmlns="http://www.w3.org/2000/svg" xmlns:xlink="http://www.w3.org/1999/xlink"
style="display: block;margin-left: auto;margin-right: auto;">
<defs>
<clipPath id="c0_289"><path d="M286.4,76.1l0,-26.2l26.1,0l0,26.2Z" /></clipPath>
<clipPath id="c1_289"><path d="M286.4,288.5l0,-26.2l26.1,0l0,26.2Z" /></clipPath>
<clipPath id="c2_289"><path d="M286.4,461.1l0,-26.2l26.1,0l0,26.2Z" /></clipPath>
<clipPath id="c3_289"><path d="M286.4,554.3l0,-26.2l26.1,0l0,26.2Z" /></clipPath>
<clipPath id="c4_289"><path d="M0,1196.3L0,0L921.3,0l0,1196.3Z" /></clipPath>

<style type="text/css"><![CDATA[

.g1_289{
fill: none;
stroke: #007598;
stroke-width: 1.5277778;
stroke-linecap: butt;
stroke-linejoin: miter;
}
.g2_289{
fill: none;
stroke: #DC262E;
stroke-width: 1.5277778;
stroke-linecap: butt;
stroke-linejoin: miter;
}
.g3_289{
fill: #F7931D;
}
.g4_289{
fill: #AF0C14;
}
.g5_289{
fill: none;
stroke: #9B9B9C;
stroke-width: 1.5277778;
stroke-linecap: butt;
stroke-linejoin: miter;
}
.g6_289{
fill: none;
stroke: #F8D3C4;
stroke-width: 1.5277778;
stroke-linecap: butt;
stroke-linejoin: miter;
stroke-miterlimit: 4;
}
.g7_289{
fill: #DC262E;
stroke: #B2B3B7;
stroke-width: 1.5277778;
stroke-linecap: butt;
stroke-linejoin: miter;
stroke-miterlimit: 4;
}

.s1_289{
font-size: 25.97px;
font-family: STKaiti-SC-Regular_3pn;
fill: #3F3F40;
}
.s2_289{
font-size: 25.97px;
font-family: STKaiti-SC-Bold_3oi;
fill: #007D9F;
}
.s3_289{
font-size: 10.69px;
font-family: LibreFranklin-Bold_42j;
fill: #007598;
}
.s4_289{
font-size: 25.97px;
font-family: STKaiti-SC-Bold_3oi;
fill: #67962C;
}
.s5_289{
font-size: 25.97px;
font-family: STKaiti-SC-Bold_3oi;
fill: #DE4639;
}
.s6_289{
font-size: 10.69px;
font-family: LibreFranklin-ExtraBold_42g;
fill: #DC262E;
}
.s7_289{
font-size: 16.04px;
font-family: LibreFranklin-SemiBold_42r;
fill: #DC262E;
}
.s8_289{
font-size: 15.28px;
font-family: LibreFranklin-Bold_42j;
fill: #DC262E;
}
.s9_289{
font-size: 25.97px;
font-family: STKaiti-SC-Bold_3oi;
fill: #DC262E;
}
.s10_289{
font-size: 25.97px;
font-family: STKaiTi-TC-Bold_3op;
fill: #DC262E;
}
.s11_289{
font-size: 12.22px;
font-family: LibreFranklin-Regular_42q;
fill: #231F20;
}
.s12_289{
font-size: 19.86px;
font-family: STKaiti-SC-Regular_3pn;
fill: #3F3F40;
}
.s13_289{
font-size: 19.86px;
font-family: STKaiTi-TC-Regular_3pl;
fill: #3F3F40;
}
.s14_289{
font-size: 13.75px;
font-family: GentiumBookBasic-Italic_3o-;
fill: #3F3F40;
}
.s15_289{
font-size: 16.81px;
font-family: MuseoSans-700_42o;
fill: #DC262E;
}
.s16_289{
font-size: 12.22px;
font-family: LibreFranklin-Regular_42q;
fill: #3F3F40;
}
.s17_289{
font-size: 15.28px;
font-family: LibreFranklin-Bold_42j;
fill: #939598;
}
.s18_289{
font-size: 16.81px;
font-family: SourceHanSansCN-Normal_3q5;
fill: #3F3F40;
}
.s19_289{
font-size: 11.08px;
font-family: LibreFranklin-SemiBold_42r;
fill: #FFFFFF;
}

]]></style>

</defs>
<path d="M0,0
L0,1196
L921,1196
L921,0 Z " 
fill="#FFFFFF" stroke="none" />
<path d="M641.6,173.8l7,0" class="g1_289" />
<path d="M417.8,479.3l7.3,0" class="g1_289" />
<path d="M573.7,533.6l6.3,0" class="g2_289" />
<text 
x="313" 
y="73" 
dx="0,0,0,0,0,0,0,0,0,0,0,0,0,0,0,0,0,0" 
class="s1_289"
>很多父母望子成龙，望女成凤，希望自己</text>

<text 
x="313" 
y="113" 
dx="0,0,0,0,0,0,0,0,0,0,0,0,0,0,0,0,0,0" 
class="s1_289"
>的孩子小时候好好儿学习，将来能做出一</text>

<text 
x="313" 
y="153" 
dx="0,0,0,0,0,0,0,0,0,0,0,0,0,0,0,0,0,0" 
class="s1_289"
>番大事业。可是到现在我也想不清楚，孩</text>

<text 
x="313" 
y="192" 
dx="0,0,0,0,0,0,0,0,0,0,0,0,0,0" 
class="s1_289"
>子到底是将来“成龙”“成凤”</text>

<text 
x="615" 
y="192" 
dx="0" 
class="s2_289"
>好</text>

<text 
x="641" 
y="171" 
dx="0" 
class="s3_289"
>2</text>

<text 
x="648" 
y="192" 
dx="0,0,0,0,0" 
class="s1_289"
>，还是有一</text>

<text 
x="313" 
y="232" 
dx="0,0,0,0,0,0,0,0" 
class="s1_289"
>个快乐的童年好？</text>

<text 
x="313" 
y="286" 
dx="0,0,0,0,0,0,0,0,0,0,0,0,0,0,0,0,0,0" 
class="s1_289"
>我的看法是两个都重要。一个人当然应该</text>

<text 
x="313" 
y="325" 
dx="0,0,0,0,0,0,0,0,0,0,0,0,0,0,0,0,0,0" 
class="s1_289"
>有快乐的童年，但是长大以后也应该对社</text>

<text 
x="313" 
y="365" 
dx="0,0,0,0,0,0,0,0" 
class="s1_289"
>会有用，所以孩子</text>

<text 
x="521" 
y="365" 
dx="0,0" 
class="s4_289"
>最好</text>

<text 
x="573" 
y="365" 
dx="0,0,0,0,0,0,0,0" 
class="s1_289"
>还是在学校多学一</text>

<text 
x="313" 
y="405" 
dx="0,0,0,0" 
class="s1_289"
>些知识。</text>

<text 
x="313" 
y="458" 
dx="0,0,0,0,0,0,0,0,0,0,0" 
class="s1_289"
>可是你别忘了，有些知识</text>

<text 
x="599" 
y="458" 
dx="0,0" 
class="s2_289"
>不是</text>

<text 
x="651" 
y="458" 
dx="0,0,0,0" 
class="s1_289"
>从书上学</text>

<text 
x="313" 
y="498" 
dx="0,0" 
class="s1_289"
>的，</text>

<text 
x="365" 
y="498" 
dx="0,0" 
class="s2_289"
>而是</text>

<text 
x="417" 
y="477" 
dx="0" 
class="s3_289"
>3</text>

<text 
x="425" 
y="498" 
dx="0,0,0,0,0,0,0,0,0,0,0" 
class="s1_289"
>从社会、从生活中学的。</text>

<text 
x="313" 
y="551" 
dx="0,0,0,0,0,0,0,0,0" 
class="s1_289"
>李哲，你真成了哲学</text>

<text 
x="547" 
y="551" 
dx="0" 
class="s5_289"
>家</text>

<text 
x="573" 
y="530" 
dx="0" 
class="s6_289"
>e</text>

<text 
x="579" 
y="551" 
dx="0,0" 
class="s1_289"
>了。</text>

<g clip-path="url(#c0_289)">
<path d="M308.1,59.5c0,0.4,-0.3,-0.7,-0.3,-1c-0.1,-0.6,-0.4,-1,-0.5,-1.1c0,0,0.4,0.3,0.6,0.7c0.2,0.4,0.2,1.2,0.2,1.4m-2,-1.3c-0.1,-0.2,-0.6,-1,-0.6,-1l-0.7,-0.6c0,0,0.5,0.6,0.5,0.8c0.1,0.1,-0.4,-0.4,-0.7,-0.8C304.3,56.3,304,56,304.1,55.9c0.1,-0.1,0.4,0.1,0.6,0.2c0.5,0.3,1.1,0.7,1.3,1.2c0.3,0.5,0.4,0.7,0.5,1.3l0,1.4c0,0,-0.4,-1.6,-0.4,-1.8m-1,-5.6c0.3,0.2,0.7,0.6,0.8,0.9c0.1,0.2,-0.9,-0.6,-1.2,-0.6c-0.2,0,-0.5,-0.2,-0.5,-0.2c0.1,-0.1,0.7,-0.3,0.9,-0.1m-5.4,-0.5c-0.5,-0.2,-0.2,-0.3,-0.9,-0.6c-0.6,-0.4,-3.6,-0.3,-3.6,-0.3c0,0,0.7,-0.2,1.3,-0.2c0.7,0,1.6,0.3,1.3,0c-0.2,-0.2,-1.2,-0.4,-1.1,-0.4c0.1,-0.1,1.4,0.2,1.9,0.4c0.4,0.2,0.7,0.4,1.2,0.8c0.5,0.4,1.1,0.3,1.1,0.3c0,0,-0.7,0.2,-1.2,0m-0.9,2c-1.2,0.1,-1.4,0.4,-1.9,0.9c-0.9,0.7,-2.8,2,-2.8,1.9c0.1,0,2.1,-1.6,2.4,-2c0.3,-0.3,1,-0.9,1.4,-1c0.5,-0.1,1.9,-0.2,1.9,-0.2c0,0,-0.3,0.4,-1,0.4m-6.5,2.6c0,0.1,-0.2,2,-0.4,2.3c-0.1,0.3,-0.4,2.9,-0.4,2.9c0,0,0,-0.5,0,-1c0,-0.4,0.3,-2.3,0.3,-2.9c0,-0.6,0.6,-1.5,0.5,-1.3m16.2,2c0.1,-0.7,-0.3,-1.5,-0.6,-2.3c-0.4,-0.9,-0.6,-0.6,-0.8,-0.8c-0.2,-0.3,-0.3,-1.3,-0.5,-1.8c-0.1,-0.5,-0.4,-0.9,-1,-1.2c-0.6,-0.4,-1.4,-0.2,-1.4,-0.2c0,0,-0.4,0.2,-0.5,0.1c-0.2,0,0,-0.2,0,-0.4c-0.1,-0.2,-0.2,-0.6,-0.9,-0.9c-0.7,-0.3,-0.7,-0.1,-0.9,-0.1c-0.2,0,-0.5,-0.3,-1.2,-0.6c-0.6,-0.3,-1.1,-0.4,-2,-0.5c-0.9,-0.1,-1.7,0.1,-1.7,0.1c0,0,-1,0.5,-1.3,0.6c-0.3,0,-0.6,0,-1.3,0.2c-0.6,0.1,-0.7,0.8,-1,1c-0.4,0.2,-1.6,2,-2.5,2.8c-0.8,0.8,-0.8,2.7,-0.8,2.8c-0.1,0,0.1,2.3,0.2,2.9c0.1,0.5,0.4,1.2,0.5,1.4c0.1,0.3,0.5,0.8,0.4,1c-0.1,0.1,0,0.4,0,0.5c0,0.2,0.1,0.1,0.1,0.3c0,0.2,0.2,0.5,0.3,0.7c0.1,0.1,0.3,0.6,0.4,0.8c0.2,0.2,0.3,0.3,0.6,0.5c0.3,0.3,0.4,-0.4,0.7,-0.1c0.2,0.3,0.2,1,0.3,0.9c0,-0.2,-0.1,-1.1,-0.2,-1.2C293.3,65,293.1,64.6,293,64.5c-0.2,-0.1,-0.1,-0.5,-0.1,-0.7c-0.1,-0.2,0.1,-0.3,0.1,-0.6c0,-0.3,-0.3,-0.7,-0.4,-1c-0.1,-0.3,0,-0.6,0,-0.6l-0.7,-0.3l0,-0.6c0,0,0.7,0.3,0.7,0.3c0.1,-0.1,0,-0.5,0.5,-1.2c0.2,-0.4,1.5,-0.1,2.1,-0.7c0.6,-0.5,2.2,-1.5,2.6,-1.5c1.6,0,3,-0.7,3.4,-1c1,-0.8,1.5,-0.2,2,0c0.2,0,0.9,0.8,1.2,1.1c0.2,0.3,0.4,0.9,0.5,1.4c0.2,0.5,0.4,1.1,0.4,1.1L305.9,60l0.2,0.5l-0.8,0.4c0,0,0.1,1.6,0.1,2.1c0,0.6,0.1,2.3,0.2,2.3c0.1,0.1,0,0,0.2,-0.4c0.2,-0.4,0,-0.8,0.1,-1.2c0.1,-0.4,0.3,-0.8,0.3,-0.8c0,0,0.2,-0.1,0.2,-0.2c0,-0.1,0.1,-0.3,0.2,-0.2c0.1,0.1,0.4,-0.2,0.4,-0.4c0,-0.2,-0.2,-0.3,0.1,-0.4c0.3,-0.1,0.6,0.2,0.6,0.4c0.1,0.2,0.4,-0.1,0.5,-0.5c0.2,-0.4,0.1,-0.9,0.1,-1.7c0,-0.7,0.1,-0.5,0.2,-1.2Z" class="g3_289" />
</g>
<path d="M304.1,63.6c-0.2,0.3,-1.2,0.5,-1.5,0.5c-0.3,0.1,-1.5,0.2,-2.2,-0.6c-0.6,-0.8,-0.7,-2,-0.4,-2.3c0.2,-0.3,1,-0.5,1.5,-0.6c0.5,0,1.7,0,2.1,0.1c0.3,0,0.6,0.1,0.7,0.4c0,0,0.1,0.8,0.1,1.2c0,0.4,-0.1,1,-0.3,1.3m-6.3,-0.5c-0.3,1.2,-1.3,1.3,-2,1.4c-0.8,0,-1.5,-0.1,-1.7,-0.2c-0.1,0,-0.5,-0.4,-0.6,-1.3c-0.1,-0.8,-0.2,-1.5,0.2,-1.7C294.1,61,295.3,61,296.2,61c1,0,1.4,0.1,1.7,0.4c0,0,0.3,0.5,-0.1,1.7m7.4,-2.6c0,0,0.2,-0.2,0.2,-0.2c0,0,-0.5,0,-0.6,0c-0.2,0,-2.4,0,-2.7,0c-0.2,0.1,-1.1,0.1,-1.3,0.1c-0.2,0.1,-0.4,0.1,-0.7,0.2c-0.3,0.2,-0.4,0.4,-0.4,0.4l-1.5,0.1l-0.5,-0.5c0,0,-0.3,-0.5,-1.1,-0.5c-0.8,0,-1.3,0.2,-1.5,0.3c-0.3,0.1,-1.1,0.3,-1.2,0.3c-0.1,0.1,-1.3,0.3,-1.3,0.3c0,0,2.1,-0.3,2.4,-0.3c0.4,0,0.6,0,1.1,0c0.6,0,-2.4,0.3,-2.7,0.3l-0.9,0.1l0,0.3c0,0,0.3,0.1,0.4,0.4c0.2,0.2,0.3,1.1,0.4,1.4c0.1,0.2,0.5,1.1,0.6,1.1c0.1,0.1,0.1,0.2,0.5,0.3c0.5,0,1.7,0,2.1,0c0.4,-0.1,1,-0.4,1.3,-0.8c0.3,-0.5,0.6,-1.5,0.7,-1.9c0.1,-0.3,0.8,-0.3,1,0c0.1,0.3,0.6,1.6,1.1,2c0.6,0.4,1,0.4,1.5,0.4c0.5,0,1.8,-0.1,2.1,-0.5c0.3,-0.4,0.3,-0.5,0.5,-1.2c0.1,-0.8,0,-1.2,0.1,-1.3c0.1,-0.1,0.4,-0.3,0.4,-0.3l0,-0.4c0,0,-0.1,0,0,-0.1Z" class="g3_289" />
<path d="M300.2,60.2c0,-0.1,0,-0.5,0.4,-0.5c0.4,-0.1,0.9,-0.2,1.5,-0.1c0.5,0.1,1,0.3,1.3,0.3C303.6,60,303.2,60,303,60c-0.2,0,-0.9,0,-1.2,0c-0.2,0,-0.7,0,-0.9,0.1c-0.2,0.1,-0.6,0.1,-0.7,0.1Z" class="g3_289" />
<path d="M297.4,65.3c0,0,0,0.2,0.2,0.2c0.2,0,0.3,-0.1,0.5,-0.1c0.1,0,0.3,0,0.4,0c0.2,0.1,0.3,0.1,0.4,0.3c0.1,0.1,0.1,0.2,0.2,0.2c0,0.1,0.2,0.1,0.2,0.1c0,0,-0.2,0,-0.6,0c-0.3,-0.1,-0.6,0,-0.8,0c-0.2,0,-0.5,-0.1,-0.5,-0.7Z" class="g3_289" />
<path d="M299.9,65.5c0,0,0.2,-0.2,0.4,-0.3c0.2,-0.1,0.4,-0.2,0.4,-0.1c0.1,0.1,0.2,0.2,0.1,0.3c0,0.1,0,0,-0.3,0c-0.2,0,-0.6,0.1,-0.6,0.1Z" class="g3_289" />
<path d="M296.7,67.9c0,0,0.4,-0.1,0.6,-0.2c0.2,-0.2,0.7,-0.4,0.9,-0.4c0.2,-0.1,0.6,-0.1,0.7,-0.1c0.1,0.1,0.5,0.2,0.7,0.2c0.1,0,0.4,-0.1,0.6,-0.2c0.1,-0.1,0.2,-0.2,0.6,-0.1c0.3,0,0.7,0,1,0c0.3,0.1,0.3,0.2,0.5,0.1c0.2,-0.1,-0.2,0.1,-0.3,0.2c-0.2,0.2,-0.4,0.2,-0.6,0.2c-0.2,0,-0.6,-0.1,-0.7,0c-0.1,0,-0.2,0.2,-0.5,0.3c-0.3,0.1,-1,0,-1,0c-0.1,0,-0.6,-0.1,-1,0.1c-0.4,0.1,-0.4,0.2,-0.7,0.2c-0.3,0,-0.8,-0.3,-0.8,-0.3Z" class="g3_289" />
<path d="M302.4,67.2c0,0,-0.4,0.5,-0.7,0.7c-0.5,0.3,-0.8,0.5,-1.5,0.7c-0.7,0.2,-1,0.1,-1.4,0c-0.4,0,-0.8,-0.2,-0.6,-0.2c0.2,0.1,0.7,0.1,1.1,0c0.4,0,0.6,0,0.8,-0.1c0.3,-0.2,1.2,-0.5,1,-0.5C301,67.7,300,68,299.9,68c0,0,0.5,-0.5,0.8,-0.5c0.4,0,0.6,0,0.8,0c0.2,-0.1,0.9,-0.3,0.9,-0.3Z" class="g3_289" />
<path d="M298.9,69.6c0.4,0,0.6,0,1.1,-0.1c0.5,-0.2,0.7,-0.1,0.6,0c-0.1,0,-0.3,0,-0.5,0.1c-0.3,0.2,-1.2,0,-1.2,0Z" class="g3_289" />
<path d="M293,66.8c0,0,0,0.2,0.3,0.6c0.2,0.3,0.3,0.4,0.4,0.6c0,0.1,0,0.5,0.1,0.9c0.1,0.4,0.7,1.3,0.8,1.4c0.1,0.1,0.3,1.6,0.3,1.6c0.1,0.1,0.7,0.5,1.1,0.8c0.4,0.4,1.1,1,1.8,1.7c0.6,0.7,0.8,0.9,1.2,1.1c0.4,0.1,1.1,0.2,1.3,0.2c0.2,0,1.1,-0.1,1.2,-0.1c0,-0.1,-0.5,-0.6,-0.8,-0.7C300.4,74.7,300,74.1,300,73.8c0,-0.2,0,-0.8,-0.1,-1c-0.1,-0.3,0.2,-0.5,0.5,-0.5c0.3,0,0.9,0,1.2,-0.2c0.3,-0.1,1,-0.6,1,-0.7c0.1,0,0.2,0.3,0.3,0.3c0,-0.1,0.7,-0.9,0.9,-1c0.3,-0.1,0.8,-0.6,0.8,-0.7c0,-0.2,-1,0.8,-1.3,0.9c-0.2,0.2,-0.6,0.4,-0.9,0.4c-0.4,0.1,-0.4,0.2,-1,0.3c-0.5,0.1,-1,-0.1,-1.3,-0.1c-0.4,0.1,-1.1,0.2,-1.4,0.3c-0.4,0,-0.4,0.3,-1,-0.1c-0.6,-0.5,-1.3,-1.2,-1.7,-1.4c-0.3,-0.1,-1.5,-0.7,-1.8,-1.5C294,68,293.8,68,293.7,67.6c0,-0.3,-0.1,-0.8,-0.1,-0.8Z" class="g3_289" />
<path d="M305.6,65.8l0,1.2c0,0.3,-0.1,1.2,-0.1,1.5c0,0.2,0,0.8,0,1.3c0.1,0.4,0.1,0.7,0.1,0.7l0.2,-0.2c0.2,-0.3,0.8,0.3,0.8,-0.1c0,-0.6,-0.2,-1.5,-0.2,-1.8c0,-0.7,0.3,-1.8,0.3,-2.1c0,-0.3,0.3,-1.5,0.4,-1.7c0.1,-0.2,0.4,-1.2,0.4,-1.4c0,-0.3,0.1,-1.1,0,-1.2c-0.1,0,-0.1,0.6,-0.1,0.9c-0.1,0.2,-0.1,0.6,-0.2,0.4c-0.1,-0.1,-0.3,-0.5,-0.5,-0.5c-0.1,0,-0.3,0.3,-0.4,0.5c0,0.2,0.2,0.2,0.2,0.5c0,0.2,0,0.3,0.1,0.2c0.2,-0.1,0.4,-0.4,0.6,-0.4c0,0,0.1,0.4,-0.4,1.3c-0.6,1,-0.5,1,-1.2,0.9Z" class="g3_289" />
<path d="M296.1,61.7c-0.1,0,-0.2,-0.1,-0.2,-0.1c0,-0.1,0.1,-0.1,0.2,-0.1c0,0,0.1,0,0.1,0.1c0,0,-0.1,0.1,-0.1,0.1m0.6,-0.3c-0.5,-0.2,-1,0,-1.1,0c-0.1,0,-0.7,0.2,-0.6,0.6c0.2,-0.3,0.4,-0.4,0.5,-0.4c0.1,0,-0.1,0.5,0.5,0.5c0,0,0.5,0.1,0.6,-0.4c0.1,-0.3,0.7,0.2,0.7,0.2c0,0,-0.2,-0.4,-0.6,-0.5Z" class="g3_289" />
<path d="M301.8,61.2c-0.1,0,-0.1,-0.1,-0.1,-0.1c0,-0.1,0,-0.1,0.1,-0.1c0.1,0,0.1,0,0.1,0.1c0,0,0,0.1,-0.1,0.1m0.6,-0.4c-0.3,-0.1,-0.6,-0.1,-1.2,0.1c-0.6,0.3,-0.8,0.7,-0.8,0.7c0,0,0.8,-0.6,0.9,-0.4c0.1,0.4,0.3,0.5,0.6,0.4c0.5,0,0.5,-0.5,0.5,-0.5c0,0,0.2,0.2,0.3,0.2c0.1,0,0.4,-0.2,0.4,-0.2c0,0,-0.5,-0.3,-0.7,-0.3Z" class="g3_289" />
<g clip-path="url(#c0_289)">
<path d="M295.1,73.1c0,0,0.1,1.5,0.2,2c0.1,0.4,0.1,0.9,0.1,1.2c0.1,0.3,0.2,1.3,0.4,1.5c0.2,0.1,0.8,0.7,0.8,0.7c0,0,-0.8,-0.5,-0.9,-0.6C295.6,77.8,295.1,77,295,76.8c-0.1,-0.3,-0.3,-0.1,-0.4,0.1c-0.1,0.1,-0.4,0.5,-0.4,0.5c0,0,0,-0.8,0.3,-1.2c0.2,-0.5,0.3,-2.2,0.4,-2.6c0.1,-0.3,0.2,-0.5,0.2,-0.5Z" class="g3_289" />
<path d="M293.9,74.1c-0.2,0.1,-0.9,0.5,-1,1.3c-0.1,0.8,-0.7,1.6,-1.3,2.1c-0.6,0.6,-0.8,0.9,-0.8,0.9c0,0,1.5,-2.2,1.5,-2.4c0.1,-0.2,0.1,-1.2,0.3,-1.4c0.2,-0.1,1.3,-0.5,1.3,-0.5Z" class="g3_289" />
<path d="M305.7,70.9c0,0,0.8,0.8,0.8,1.2c0.1,0.4,0,0.5,0.1,0.9c0,0.3,1.1,4.8,1.2,5.5c0,-0.1,-0.4,0,-0.4,0c0,0,-0.9,-5.2,-1,-5.7c-0.2,-0.5,-0.5,-0.6,-0.5,-0.6c0,0,0.3,0.6,0.3,1.3c0,0.6,-0.1,2.2,-0.1,3.1c-0.1,0.8,-0.4,1.8,-0.5,1.9c0,0.1,-0.4,0,-0.4,0c0,0,0.4,-0.9,0.5,-1.4c0.1,-0.5,0.2,-2.6,0.2,-3.1c0,-0.5,-0.2,-3.1,-0.2,-3.1Z" class="g3_289" />
<path d="M307.1,72.3c0.2,0.1,0.7,0.7,1.3,0.8c0.6,0.2,0.9,0.1,2,0.6c1.2,0.4,2.4,0.9,2.4,0.9c0,0,-1,0,-1.3,-0.1c-0.4,-0.2,-0.7,-0.3,-1.2,-0.4c-0.5,-0.1,-1.1,-0.4,-1.5,-0.5c-0.4,-0.2,-1.7,-1.3,-1.7,-1.3Z" class="g3_289" />
<path d="M292.4,74.6c0.1,0,-2.5,1.1,-3.8,1.6c-1.3,0.5,-2.3,0.9,-2.4,1c-0.2,0.1,1.5,-0.2,2.1,-0.4c0.6,-0.2,0.2,-0.3,1.1,-0.2c1,0,1.6,-0.4,1.6,-0.5c0,-0.1,1.1,-1.4,1.4,-1.5Z" class="g3_289" />
</g>
<path d="M294.8,273.1c0,0,-0.1,-0.1,-0.1,-0.1c0,-0.1,0.1,-0.1,0.1,-0.1c0.1,0,0.1,0,0.1,0.1c0,0,0,0.1,-0.1,0.1m-0.2,-0.5c-0.7,0.1,-1,0.6,-1.3,0.7c0,0,0.3,0.1,0.4,0c0.1,0,0.7,-0.6,0.7,-0.4c0,0.3,0.1,0.6,0.6,0.6c0.5,0,0.6,-0.5,0.6,-0.5c0,0,0.1,-0.1,0.4,0.4c-0.1,-0.6,-0.6,-0.9,-1.4,-0.8Z" class="g4_289" />
<path d="M300.4,272.8c-0.1,0,-0.1,-0.1,-0.1,-0.1c0,-0.1,0,-0.1,0.1,-0.1c0,0,0.1,0,0.1,0.1c0,0,-0.1,0.1,-0.1,0.1m1.4,0.1c-0.1,-0.2,-0.4,-0.6,-1.1,-0.7c-0.6,-0.1,-0.9,0,-1.2,0.3c-0.2,0.1,-0.7,0.8,-0.7,0.8c0,0,0.3,-0.1,0.5,-0.4c0.3,-0.4,0.7,-0.3,0.7,-0.3c0,0,-0.2,0.3,0.2,0.5c0.5,0.3,0.8,-0.1,0.8,-0.1c0,0,0.1,-0.1,0.2,-0.2c0.1,0,0.2,0.2,0.3,0.2c0.1,0,0.4,0.1,0.3,-0.1Z" class="g4_289" />
<path d="M295.6,272.1c0,0,-0.6,-0.4,-1.1,-0.5c-0.6,-0.1,-0.8,-0.1,-1,0.1c-0.2,0.1,-0.6,0.5,-0.8,0.8l-0.1,0.2c0,0,0.5,-0.5,0.8,-0.6c0.4,-0.1,0.6,-0.3,1,-0.1c0.4,0.2,0.7,0.2,0.9,0.3c0.2,0,0.3,-0.2,0.3,-0.2Z" class="g4_289" />
<path d="M298.5,272c0,0,0.2,-0.5,0.6,-0.6c0.3,-0.2,1.3,-0.3,1.9,-0.2c0.5,0.2,1.2,0.7,1.2,0.7c0,0,-1.1,-0.4,-1.6,-0.3c-0.4,0.1,-0.7,0.1,-1.1,0.3c-0.4,0.2,-1.1,0.2,-1,0.1Z" class="g4_289" />
<path d="M295.9,272.7c0,-0.1,0.4,0.2,0.4,0.4c0,0.2,-0.1,1.1,-0.1,1.3c-0.1,0.1,0.1,-1.4,-0.3,-1.7Z" class="g4_289" />
<path d="M295.7,275.6c0,0,-0.3,0.6,-0.3,0.9c0,0.2,0.1,0.3,0.2,0.4c0.2,0,0.5,-0.1,0.6,-0.1c0.1,0,0.4,0.3,0.5,0.3c0.1,0.1,-0.3,0,-0.4,0c-0.2,-0.1,-0.1,-0.2,-0.4,-0.2c-0.2,0,-0.5,0.1,-0.5,-0.1c-0.1,-0.1,-0.1,-0.5,0.3,-1.2Z" class="g4_289" />
<path d="M297.2,276.9c0,0,0.1,-0.3,0.3,-0.3c0.2,0,0.7,0.1,0.7,0.1c0.1,-0.1,-0.4,0.2,-0.3,0.2c0.1,0,0.6,-0.1,0.7,-0.3c0.2,-0.2,0.3,-0.6,0.3,-0.8c-0.1,-0.2,-0.2,-0.3,-0.2,-0.3c0,0,0.2,0.1,0.3,0.5c0,0.5,-0.4,0.8,-0.5,0.8c-0.1,0.1,-0.6,0.2,-0.7,0.2c-0.1,0,-0.2,-0.1,-0.3,-0.1c-0.1,0,-0.3,0,-0.3,0Z" class="g4_289" />
<path d="M300.2,278.5c0,0,-0.4,0.4,-0.7,0.5c-0.2,0.1,-0.3,0.2,-0.5,0.2c-0.3,0.1,-0.5,0.2,-0.9,0.2c-0.4,0.1,-0.8,0.1,-1.2,0.1c-0.3,-0.1,-0.3,-0.1,-0.5,-0.2c-0.2,-0.1,-0.3,-0.2,-0.3,-0.2c-0.2,-0.3,-0.1,-0.5,-0.1,-0.5c0,0,0.2,-0.1,0.6,-0.1c0.4,0,0.8,0.1,0.9,0.1c0.2,-0.1,1,-0.2,1.3,-0.3c0.3,0,0.9,0,1.2,0.1c0.2,0,0.2,0.1,0.2,0.1m0.5,-0.2c-0.7,0,-1.6,-0.5,-2.2,-0.5c-0.6,0,-0.6,0.3,-1.1,0.2c-0.6,-0.2,-1,-0.1,-1.3,0c-0.3,0.1,-1,0.5,-1,0.5c0,0,0.5,0.6,0.7,0.8c0.3,0.1,0.8,0.4,1.1,0.4c0.3,0,1.2,0,1.6,-0.1c0.4,0,0.8,-0.2,1,-0.3c0.2,0,0.1,0,-0.1,0.1c-0.2,0.2,-0.6,0.4,-1.1,0.5c-0.5,0,-0.6,0.1,-1.1,0c-0.5,0,-0.7,0,-1,-0.2c-0.4,-0.2,-0.4,-0.3,-0.5,-0.3c-0.1,0.1,0.4,0.7,0.8,0.8c0.3,0.2,0.6,0.2,0.8,0.2c0.2,0,1.1,-0.1,1.6,-0.2c0.4,-0.2,0.8,-0.7,1.1,-1c0.3,-0.3,1.1,-0.9,0.7,-0.9Z" class="g4_289" />
<g clip-path="url(#c1_289)">
<path d="M292.8,272.7c0,0,-0.1,0.8,-0.2,1.2c0,0.4,-0.1,1.1,-0.1,1.4c0,0.4,0.2,1.2,0.2,1.6c0,0.3,0.3,1.5,0.4,1.7c0.1,0.3,0.4,0.8,0.9,1.7c0.6,0.9,1.8,1.9,2.3,2.2c0.5,0.2,1.1,0.5,2.3,0.2c1.3,-0.2,2.5,-0.7,3.3,-1.4c-0.2,0.4,-1,0.9,-2,1.3c-1.1,0.4,-2.1,0.5,-3.2,0.3c-0.6,-0.2,-0.5,0,-0.6,0.5c-0.1,0.5,-0.2,1.3,-0.4,1.7c-0.3,0.4,-1.1,1.1,-1.4,1.2c-0.3,0.1,1.1,-0.8,1.3,-1.6c0.1,-0.4,-0.1,-0.8,-0.2,-1.3c-0.1,-0.5,-0.4,-0.8,-0.4,-1.2c0,-0.4,-0.6,-1,-0.6,-1c0,0,0.2,0.9,0.3,1.1c0,0.1,0.8,2.2,0.8,2.2c0,0,-0.8,-1.6,-0.9,-1.7c0,-0.1,0.7,2,0.8,2.1c0,0,-0.5,-0.6,-0.6,-1c-0.2,-0.4,0.1,1.1,0.1,1.2c0.1,0.2,-0.4,-0.5,-0.4,-0.7c0,-0.2,-0.2,0.5,-0.3,1.1c-0.2,0.6,0,1.2,-0.4,1.6c-0.3,0.4,-0.9,0.4,-0.9,0.4c0,0,0.8,-0.9,0.9,-1.8c0,-0.8,-0.1,-2.3,-0.1,-3c0,-0.8,-0.5,-2.1,-0.5,-2.1c0,0,0.4,3.7,0.3,4.3c-0.1,0.6,-0.3,1,-0.4,1.5c-0.1,0.6,-0.4,1.5,-0.5,1.6c-0.2,0.2,0,-2.3,0,-2.6c0,-0.4,0.1,0.6,0.2,0.6c0,-0.1,0,-1.6,0,-2.3c0,-0.7,-0.1,-0.8,-0.2,-1.4c0,-0.6,-0.2,-3.4,-0.2,-3.7c0.1,-0.4,0,-2.5,0,-2.5c0,0,0,4.8,-0.1,5.2c0,0.3,0,2.2,0,2.7c0,0.4,0,2.1,-0.1,2.6c0,0.5,0,2,0.1,2.3c0,0.2,0.2,2.4,0.2,2.9c0.1,0.6,0.1,2.4,-0.1,2.8c-0.1,0.3,0,-3.1,-0.1,-3.6c-0.1,-0.6,-0.3,-3.8,-0.3,-4c0.1,-0.3,-0.2,-1.2,-0.1,-1.6c0.1,-0.4,0.1,-2.1,0.1,-2.5c0.1,-0.4,0,-1.4,0.1,-1.8c0.1,-0.3,0.1,-1.9,0.1,-2.2c0,-0.4,-0.1,-1.8,-0.1,-1.8c0,0,-0.6,6.5,-0.7,7.8c-0.1,1.4,-0.2,2.3,-0.3,3.1c-0.1,0.8,-0.2,1.9,-0.3,2.4c-0.1,0.4,-0.1,1.8,-0.1,1.8c0,0,0.2,-5.1,0.2,-5.8c0.1,-0.8,0.2,-3.4,0.4,-4.1c0.1,-0.6,0.2,-3.1,0.4,-3.8c0.3,-0.8,0,-1.3,0.2,-2.3c0.2,-0.9,0.4,-2.8,0.4,-2.9c0.1,-0.2,0.4,-1.5,0.5,-2.1c0.1,-0.5,0.5,-1.6,0.7,-2.1c0.2,-0.5,0.3,-1.1,0.5,-1.5c0.2,-0.3,-0.5,1.9,-0.6,2.2c-0.1,0.3,-0.3,1.3,-0.3,1.3c0,0,0.7,-1.8,1.2,-2.4c0.4,-0.5,1.3,-1.2,1.7,-1.4c0.4,-0.2,0.7,-0.3,0.7,-0.3c0,0,-1.5,0.7,-2.2,1.7c-0.7,1.1,-1.2,2.2,-1.3,2.5c-0.2,0.3,-0.4,1.5,-0.4,1.5Z" class="g4_289" />
</g>
<path d="M297.7,266c0,0,-0.4,0,-0.8,0.3c-0.4,0.3,-0.5,0.1,-0.9,0.5c-0.4,0.5,-1,1,-1.4,1.3c-0.5,0.4,-0.6,0.6,-0.6,0.6c0,0,1,-1.1,1.2,-1.4c0.2,-0.4,1.1,-0.9,1.3,-1.1c0.2,-0.1,0.5,-0.4,0.4,-0.4c0,0,-0.4,0,-0.7,0.3c-0.3,0.3,-1.3,1.1,-1.3,1.1l1.1,-1.1l-1.2,1c0,0,1,-1.1,1.6,-1.5c0.7,-0.4,0.6,-0.5,0.4,-0.5c-0.2,0.1,-1.3,0.9,-1.7,1.2c-0.3,0.4,0.8,-0.8,1.1,-1.1c0.4,-0.3,-0.6,0.2,-0.6,0.2c0.1,-0.1,0.8,-1,1.3,-1.1c0.4,0,0.7,0.1,0.9,0c0.1,0,-0.1,0.3,-0.1,0.5c0,0.2,0.1,0.9,0,1c-0.1,0.2,0,0.2,0,0.2Z" class="g4_289" />
<path d="M297.9,264.1c0,0,-0.9,-0.1,-1.2,0c-0.3,0.1,-0.9,0.6,-1.2,0.9c-0.3,0.3,-1,1.3,-1.2,1.6c-0.2,0.4,-0.5,0.5,-0.7,1.2c-0.3,0.6,-0.9,2.5,-1,2.9c0,0.4,-0.2,1.5,-0.4,1.8c-0.3,0.4,-0.4,0.4,-0.4,0.4c0,0,0.3,-1.5,0.4,-2c0.1,-0.6,0.4,-2.5,0.7,-2.9c0.2,-0.4,0.7,-1.8,0.9,-1.9c0.3,-0.2,-0.3,0.7,-0.4,1c0,0.3,0.9,-1.5,1.4,-1.9c0.6,-0.5,0.9,-0.8,1.2,-0.9c0.2,-0.1,-1,0.7,-1.4,1.4c-0.4,0.6,-0.9,1.4,-0.9,1.4c0.1,0,1.5,-2.3,2.7,-2.9c0.8,-0.5,1.5,-0.1,1.5,-0.1Z" class="g4_289" />
<g clip-path="url(#c1_289)">
<path d="M289.5,290c0,0,0.5,-2.1,0.7,-2.5c0.1,-0.4,0.5,-3.2,0.6,-3.8c0.1,-0.6,0.1,-1.3,0.2,-1.5c0,-0.1,0,-0.5,0.1,-0.9c0.1,-0.3,0,-1.3,0.1,-1.6c0.2,-0.3,0.4,-1.6,0.4,-2.1c0,-0.5,0,-1.6,0,-2.2c0.1,-0.7,0.1,-1.4,0.1,-1.4c0,0,-0.1,0.8,-0.3,1.3c-0.1,0.4,-0.1,0.9,-0.2,1.3c-0.1,0.5,-0.2,0.9,-0.2,1.5c0,0.6,-0.2,0.9,-0.2,1.5c0.1,0.6,0.1,0.8,-0.1,1.3c-0.1,0.5,-0.3,1.5,-0.4,2c-0.1,0.4,-0.4,2.2,-0.6,3c-0.2,0.7,-1.1,3.9,-1.2,4.3c-0.1,0.4,0,1.4,0.2,1.7c0.2,0.3,0.4,0.8,0.4,0.8c0,0,-0.6,-1.4,-0.3,-2.6c0.3,-1.1,0.7,-2.6,1,-3.3c0.3,-0.7,0.6,-3.4,0.8,-3.9c0.1,-0.6,0.1,0.9,0,1.6c-0.2,0.7,-1.1,5.5,-1.1,5.5Z" class="g4_289" />
<path d="M288.3,288.6c0,-0.1,0.6,-3.2,0.6,-3.6c0.1,-0.5,0.3,-2.7,0.7,-3.6c0.5,-0.8,0.7,-2.7,0.9,-3.3c0.2,-0.5,0.3,-1.7,0.4,-2c0.1,-0.4,0,-1.5,0.2,-2.2c0.2,-0.6,0.1,-2.4,0.3,-2.8c0.1,-0.3,0.2,-1.5,0.2,-1.6c0.1,-0.2,0.8,-1.1,0.8,-1.1c0,0,-0.5,1.3,-0.6,1.6c-0.1,0.2,0.4,-0.5,0.4,-0.4c0,0,0,1,-0.2,1.6c-0.3,0.6,-0.4,1.7,-0.5,2.3c-0.2,0.6,-0.1,1.4,-0.2,1.6c-0.1,0.2,-0.3,1.6,-0.4,1.9c-0.1,0.3,-0.3,2,-0.5,2.8c-0.1,0.7,-0.4,1.7,-0.6,2.1c-0.1,0.4,-0.5,2,-0.6,2.4c-0.1,0.5,-0.3,2.5,-0.5,3.1c-0.3,0.6,-0.4,1.2,-0.4,1.2Z" class="g4_289" />
</g>
<path d="M291.8,268.8c0,0,0.8,-1.8,0.9,-2.3c0.1,-0.4,1.2,-1.7,1.6,-2.1c0.4,-0.3,1,-0.5,1,-0.5c0,0,-0.9,0.7,-1.3,1c-0.3,0.3,-0.9,1.4,-1.2,1.8c-0.2,0.4,-0.2,0.5,-0.3,0.8c-0.2,0.4,-0.7,1.3,-0.7,1.3Z" class="g4_289" />
<path d="M296.5,263.7c-0.1,0,-0.5,0,-1,0.3c-0.5,0.2,-1.2,1,-1.4,1.2c-0.2,0.2,-0.5,0.5,-0.8,1.1c-0.2,0.5,-0.4,1.2,-0.4,1.2c0,0,0.7,-1.7,1.2,-2.2c0.5,-0.5,0.8,-0.8,1.3,-1c0.4,-0.2,1.1,-0.6,1.1,-0.6Z" class="g4_289" />
<path d="M294.9,263.7c0.2,-0.1,0.8,-0.4,1.1,-0.5c0.3,-0.2,0.5,-0.1,0.5,-0.1c0,0,-0.4,0.2,-0.6,0.4c-0.3,0.2,-1,0.2,-1,0.2Z" class="g4_289" />
<path d="M298,263.5c0,0,-0.4,-0.7,-0.8,-0.7c-0.5,-0.1,-1,-0.1,-1.3,0c-0.2,0.2,0.2,-0.3,1,-0.2c0.8,0,0.8,0.1,1,0.3c0.1,0.1,-0.1,-0.6,-0.1,-0.6c0,0,0.2,0.2,0.2,0.3c0,0.1,0.3,0.4,0.5,0.4c0.1,0,0.7,0.1,0.9,0.2c0.2,0.1,0.6,0.4,0.6,0.4c0,0,-1,-0.3,-1.2,-0.3c-0.2,0,-0.4,0.1,-0.2,0.1c0.3,0.1,1.3,0.2,1.7,0.4c0.3,0.2,1.4,0.8,1.6,0.9c0.2,0.2,1.9,1.8,2.3,2.1c0.4,0.2,0.1,0,-0.1,-0.3c-0.2,-0.4,-0.8,-1,-0.8,-1c0,-0.1,0.6,0.1,1.5,1.4c0.8,1.3,1.4,3.2,1.5,3.8c0.2,0.7,0.3,1.2,0.3,1.7c0,0.4,0.2,3.1,0.2,3.7c0,0.5,0.2,2.6,0.2,3.1c-0.1,0.5,-0.1,1,-0.1,1c0,0,-0.3,-4.2,-0.3,-4.4c0,-0.2,-0.3,-1.9,-0.3,-2.1c0,-0.2,-0.1,-0.3,-0.3,-0.5c-0.3,-0.2,-1,-1,-1.1,-1.2c-0.2,-0.2,-0.8,-1,-0.8,-1c0,-0.1,0.4,0.3,0.9,0.6c0.5,0.3,1.2,0.5,1.2,0.5c0,0,-0.9,-0.6,-1.2,-0.8c-0.4,-0.2,-1.3,-1.3,-1.3,-1.5c-0.1,-0.1,1.1,0.9,1.2,0.9c0.1,0,-0.3,-0.7,-0.5,-0.9c-0.1,-0.1,-1,-0.6,-1.5,-0.9c-0.4,-0.3,-1.4,-0.8,-1.6,-1c-0.2,-0.3,-1.7,-1.1,-1.9,-1.3c-0.2,-0.2,-0.8,-0.7,-0.8,-0.7c0,0,1.4,0.9,1.7,1.1c0.2,0.1,0.9,0.6,1.3,0.9c0.4,0.3,0.8,0.4,1.3,0.7c0.5,0.2,0.9,0.4,1.2,0.7c0.3,0.2,0.8,0.6,0.9,0.7c0.2,0.1,0.7,0.5,0.7,0.5c0,0,-1.6,-1.5,-1.8,-1.6c-0.1,-0.1,-1.3,-0.6,-1.4,-0.7c-0.2,-0.1,-2.2,-1.5,-2.4,-1.7c-0.1,-0.1,-1,-1,-1.2,-1.1c-0.2,-0.1,0.1,-0.2,0.3,0c0.2,0.2,0.8,0.6,1.3,1c0.5,0.4,1.5,1.3,1.9,1.5c0.3,0.3,0.8,0.5,0.8,0.5l-2.7,-2.2c0,0,1.9,1.4,2.1,1.5c0.1,0,-2.2,-2,-2.5,-2.2c-0.2,-0.2,1.7,1.2,2.2,1.7c0.6,0.5,1.1,0.9,1.5,1.2c0.4,0.2,0.9,0.9,1.3,1.3c0.4,0.3,0.7,0.6,0.7,0.5c0,0,-0.9,-1.2,-1.1,-1.4c-0.2,-0.2,-2.5,-2.2,-2.6,-2.2c0,-0.1,2.1,1.5,2.8,2.2c0.6,0.7,0.7,0.7,0.4,0.3c-0.2,-0.4,-1.6,-1.7,-2.1,-2.3c-0.4,-0.5,1.1,0.9,1.2,1c0.2,0.1,0.7,0.7,0.7,0.7c0.1,0,-0.2,-1,-0.6,-1.3c-0.3,-0.2,-1.7,-1.6,-2.3,-2c-0.5,-0.4,-1.3,-0.9,-1.8,-1.1c-0.4,-0.2,-1,-0.3,-1.3,-0.3c-0.2,0,0.5,0.2,0.8,0.3c0.3,0.2,1.8,1,2.2,1.3c0.3,0.2,0.7,0.6,0.7,0.6c0,0,-2.4,-1.6,-3,-1.7c-0.7,-0.1,-0.8,-0.1,-0.8,-0.1c0.1,0,1,0.3,1.4,0.5c0.4,0.3,2.2,1.5,2.4,1.8c-0.3,-0.2,-1.9,-1.4,-2.1,-1.4c-0.1,0,1.5,1.1,1.6,1.3c0.2,0.2,-2,-1.5,-2.3,-1.6c-0.4,-0.2,-1.3,-0.6,-1.5,-0.6c-0.2,0,0,-0.3,0,-0.4c0,-0.1,-0.5,-0.1,-0.5,-0.1Z" class="g4_289" />
<g clip-path="url(#c1_289)">
<path d="M304.7,272.1c0,0,0.4,1.2,0.4,1.6c0,0.4,0,1.1,-0.2,1.7c-0.1,0.6,-0.3,3.7,-1.4,4.9c-1.1,1.2,-1.3,1.4,-1.3,1.4c0,0,1.7,-1.2,2.1,-2.1c0.4,-0.9,0.5,-1.4,0.5,-1.4c0,0,-0.6,2.9,-0.7,3.4c-0.1,0.4,-0.1,2.7,-0.1,3.5c0,0.8,0.2,1.9,0.2,2.3c0,0.4,-0.1,1.6,0,2c0.2,0.3,0.3,0.7,0.3,0.7c0,0,-0.3,-1.7,-0.2,-2.1c0.1,-0.3,0.1,-0.3,0.2,-0.2c0.1,0.1,0.2,0.6,0.2,1c0,0.3,0,0.4,0,0.4c0,0,0.2,-0.9,0.3,-1.2c0,-0.3,0.5,-2,0.5,-2.2c0,-0.3,-0.6,1.7,-0.6,1.8c-0.1,0.1,0.2,-1.3,0.2,-1.4c0,-0.1,0.3,-1.3,0.4,-1.6c0,-0.4,0,-1.2,0.1,-1.3c0.1,-0.2,0.3,-1.7,0.2,-2.1c0,-0.5,0.4,-0.8,0.4,-1c0,-0.2,0,-2,0,-2.4c0.1,-0.4,0.3,-0.4,0.3,-0.7c0,-0.4,0,-0.8,-0.1,-0.8c0,0,-0.5,0.4,-0.6,0.5c-0.2,0.1,-0.6,0.1,-0.6,0c-0.1,0,-0.2,-0.7,-0.1,-1.3c0.1,-0.5,0,-0.7,0.1,-1c0.1,-0.3,0,-0.5,0.2,-0.4c0.2,0.1,0.5,0.3,0.6,0.4c0.2,0,0,-0.2,0,-0.4c-0.1,-0.2,0,-0.3,-0.2,-0.6c-0.1,-0.3,-1.1,-1.3,-1.1,-1.4Z" class="g4_289" />
</g>
<path d="M305.6,274.6c-0.1,0.1,0,0.2,-0.1,0.5c-0.1,0.3,-0.3,0.5,-0.1,0.5c0.2,-0.1,0.3,-0.3,0.5,-0.4c0.2,-0.2,0.3,-0.2,0.3,-0.2c0,0,-0.5,-0.5,-0.6,-0.4Z" class="g4_289" />
<g clip-path="url(#c1_289)">
<path d="M291.5,286.4c0,0.1,0.1,1.6,0.2,2.3c0,0.7,-0.2,2.7,-0.2,3c-0.1,0.4,-0.1,1.9,-0.2,2c0,0.2,0.4,-2.9,0.5,-3.1c0.1,-0.2,0.1,0.7,0.1,0.8c0,0.1,0,-2,0,-2.4c-0.1,-0.5,-0.4,-2.6,-0.4,-2.6Z" class="g4_289" />
<path d="M299.5,262.6c0,0,0.7,-0.1,1.4,0.2c0.6,0.2,0.8,0.2,1.6,0.7c0.7,0.4,0.7,0.7,1.3,1c0.7,0.4,1.1,0.8,1.6,1.3c0.5,0.6,1.4,1.7,1.6,2c0.1,0.3,-1.7,-2.1,-2.2,-2.3c-0.5,-0.2,1.5,1.3,2.7,3.6c1.2,2.4,1.2,3.3,1.3,3.9c0.1,0.6,0.7,2.9,0.7,4.1c0,1.2,0.3,2.3,0.6,3.4c0.2,1.1,0.4,2.7,0.4,2.7c0,0,-0.8,-3,-1,-2.9c-0.2,0.1,0.2,1.7,0.3,2.2c0.1,0.5,0.5,1.2,0.5,1.5c0,0.4,-0.6,-1.2,-0.7,-1.3c-0.2,-0.1,0.3,3.7,0.3,4.5c0,0.8,0.4,4.5,0.4,4.9c0,0.5,0.1,2.6,0.1,3.1c0,0.6,-0.1,1.2,-0.2,2c-0.1,0.7,-0.2,1.5,-0.2,1.4c0,-0.1,-0.2,-3.4,-0.1,-3.8c0.2,-0.5,0.1,-3.1,0,-3.7c-0.1,-0.7,-0.5,-3.4,-0.6,-4.1c0,-0.7,0.4,4.6,0.4,5.1c-0.1,0.5,-0.3,2.6,-0.3,3.4c0.1,0.8,-0.1,1.2,-0.1,2.6c0.1,1.5,0.1,2.7,0,3.4c-0.1,0.6,-0.3,2.6,-0.3,2.6c0,0,-1.5,-5,-0.9,-7.5c0.6,-2.5,0.8,-2.9,0.8,-3.4c0.1,-0.4,0.3,-3.3,0.3,-3.3c0,0,-0.5,-1.6,-0.6,-1.8c0,-0.2,0.3,2.1,0.2,2.5c-0.1,0.4,-0.2,1.8,-0.1,1.8c0,-0.1,-0.2,-4.3,-0.2,-4.4c0,-0.1,0,6.2,-0.2,6.5c-0.1,0.4,-0.1,-5.3,-0.1,-5.5c-0.1,-0.3,-0.1,5.2,-0.1,5.2l-0.2,-4.8c0,0,0.4,-1.5,0.5,-2.7c0.1,-1.2,0,-3.8,0.1,-4.7c0.1,-1,0,-2.4,0,-4.7c0,-2.4,-0.3,-4.2,-0.4,-4.9c-0.1,-0.7,0,-1.6,-1.9,-4.8c-1.9,-3.1,-2.7,-3,-3.4,-3.7c-0.8,-0.6,-1.5,-0.8,-2,-1c-0.4,-0.2,-1.3,-0.3,-1.3,-0.3Z" class="g4_289" />
<path d="M302.3,264c0.1,0,1.1,0.6,2.5,2.4c1.6,1.9,1.7,3.1,1.9,3.7c0.2,0.6,0.6,1.5,0.6,3.3c0.1,1.7,0.4,4.2,0.3,5.4c-0.1,1.2,-0.2,2.7,-0.1,3.9c0.2,1.1,0.3,3.7,0.3,4.5c-0.1,0.7,-0.1,3.6,-0.7,4.8c-0.6,1.2,-0.8,2.2,-0.8,2.2c0,0,0.8,-4.3,0.8,-4.7c0.1,-0.4,0.3,-3.6,0.2,-4.2c-0.1,-0.7,-0.2,-3.5,-0.2,-4.2c0,-0.7,-0.1,-6.4,-0.1,-7c-0.1,-0.7,-0.4,-3.4,-0.6,-4.1c-0.3,-0.8,-0.8,-2.5,-2.2,-4.1c-1.4,-1.6,-1.9,-1.9,-1.9,-1.9Z" class="g4_289" />
<path d="M306.5,277.8c0,0.1,0,2.6,-0.1,3.3c-0.1,0.7,0,2,0,2.8c0.1,0.8,0.3,1,0.3,1.7c0.1,0.7,-0.2,3.4,-0.4,4.1c-0.2,0.6,0.7,-2.9,0.7,-4c0.1,-1.1,0,-3.3,-0.1,-4c0,-0.7,-0.1,2.4,-0.2,2.5c0,0.1,0,-3.7,0,-4.2c0,-0.6,-0.2,-2.2,-0.2,-2.2Z" class="g4_289" />
<path d="M303.8,293.1c0,-0.1,0.8,-2.4,1.1,-4c0.4,-1.7,0.6,-2.4,0.6,-2.5c0,-0.2,0.3,1.6,0.4,2.2c0,0.6,0.1,0.8,0.1,2.1c-0.1,1.4,-0.8,3.1,-1.2,3.7c0.5,-1.2,1,-2.5,1,-3.4c0,-0.8,-0.2,-1.2,-0.2,-1.2c0,0,-0.1,2.1,-0.2,2.5c-0.1,0.4,-0.3,-1.5,-0.3,-1.9c0,-0.4,-0.5,0.7,-0.6,1c-0.1,0.2,-0.7,1.5,-0.7,1.5Z" class="g4_289" />
<path d="M302.5,299c-0.1,0.1,1.2,-1.5,1.5,-2.2c0,-0.2,-0.6,0.4,-1,0.6c0.3,-0.2,0.7,-0.5,1.4,-1.5c0.7,-1,0.6,-1,0.9,-1.6c0.3,-0.6,0.8,-2.8,0.9,-3.1c0.1,-0.3,0.8,-3.1,0.8,-3.1c0,0,-0.4,2.8,-0.7,3.7c-0.3,0.9,-0.7,2.2,-0.9,2.7c-0.2,0.4,-2.2,4.1,-2.9,4.5Z" class="g4_289" />
<path d="M294.6,286.1c0,0,0.9,1.4,1.5,2c0.7,0.6,1.8,0.9,2.7,1c0.9,0,2.4,-0.2,3.8,-0.9c1.4,-0.7,1.9,-1.3,2.1,-1.3c0.1,0,0.1,0.6,-0.2,0.9c-0.4,0.3,-1.6,1.3,-2.4,1.6c-0.9,0.3,-2.9,0.8,-4.4,0.2c-1.6,-0.6,-3.2,-2.3,-3.5,-2.9c-0.4,-0.6,0.2,0.3,0.6,0.5c0.5,0.6,-0.2,-1.1,-0.2,-1.1Z" class="g4_289" />
<path d="M311.1,287.8c0.1,0.1,0.8,0.3,1.7,0.8c1.3,0.7,2.6,1.8,2.9,2.2c0.5,0.5,1.8,2.5,2.1,4.3c0.2,1.2,0,2.3,0,2.3c0,0,-0.2,-3.4,-2.4,-6.3c-1,-1.4,-2,-1.7,-2.5,-2.1c-0.6,-0.3,-1.7,-0.6,-1.8,-0.5c-0.2,0.2,0.1,2.3,0,3.1c-0.1,0.7,-0.4,2.6,-0.4,2.6c0,0,-0.4,-5.1,-0.3,-6.3c0,-1.1,-0.3,-3.4,-0.3,-3.4Z" class="g4_289" />
<path d="M290.6,287.2c-0.3,0.1,-2.4,0.5,-3,0.8c-0.5,0.3,-2.3,1.5,-2.9,2.3c-0.6,0.9,-1.4,3.4,-1.4,3.4c0,0,0.9,-3,2.2,-3.8c1.3,-0.9,1.6,-1.6,2.7,-1.7c1.1,-0.2,2.4,-1,2.4,-1Z" class="g4_289" />
</g>
<g clip-path="url(#c2_289)">
<path d="M308.1,444.5c0,0.4,-0.3,-0.7,-0.3,-1c-0.1,-0.6,-0.4,-1,-0.5,-1.1c0,0,0.4,0.3,0.6,0.7c0.2,0.4,0.2,1.2,0.2,1.4m-2,-1.3c-0.1,-0.2,-0.6,-1,-0.6,-1l-0.7,-0.6c0,0,0.5,0.6,0.5,0.8c0.1,0.1,-0.4,-0.4,-0.7,-0.8c-0.3,-0.3,-0.6,-0.6,-0.5,-0.7c0.1,-0.1,0.4,0.1,0.6,0.2c0.5,0.3,1.1,0.7,1.3,1.2c0.3,0.5,0.4,0.7,0.5,1.3l0,1.4c0,0,-0.4,-1.6,-0.4,-1.8m-1,-5.6c0.3,0.2,0.7,0.6,0.8,0.9c0.1,0.2,-0.9,-0.6,-1.2,-0.6c-0.2,0,-0.5,-0.2,-0.5,-0.2c0.1,-0.1,0.7,-0.3,0.9,-0.1m-5.4,-0.5c-0.5,-0.2,-0.2,-0.3,-0.9,-0.6c-0.6,-0.4,-3.6,-0.3,-3.6,-0.3c0,0,0.7,-0.2,1.3,-0.2c0.7,0,1.6,0.3,1.3,0c-0.2,-0.2,-1.2,-0.4,-1.1,-0.4c0.1,-0.1,1.4,0.2,1.9,0.4c0.4,0.2,0.7,0.4,1.2,0.8c0.5,0.4,1.1,0.3,1.1,0.3c0,0,-0.7,0.2,-1.2,0m-0.9,2c-1.2,0.1,-1.4,0.4,-1.9,0.9c-0.9,0.7,-2.8,2,-2.8,1.9c0.1,0,2.1,-1.6,2.4,-2c0.3,-0.3,1,-0.9,1.4,-1c0.5,-0.1,1.9,-0.2,1.9,-0.2c0,0,-0.3,0.4,-1,0.4m-6.5,2.6c0,0.1,-0.2,2,-0.4,2.3c-0.1,0.3,-0.4,2.9,-0.4,2.9c0,0,0,-0.5,0,-1c0,-0.4,0.3,-2.3,0.3,-2.9c0,-0.6,0.6,-1.5,0.5,-1.3m16.2,2c0.1,-0.7,-0.3,-1.5,-0.6,-2.3c-0.4,-0.9,-0.6,-0.6,-0.8,-0.8c-0.2,-0.3,-0.3,-1.3,-0.5,-1.8c-0.1,-0.5,-0.4,-0.9,-1,-1.2c-0.6,-0.4,-1.4,-0.2,-1.4,-0.2c0,0,-0.4,0.2,-0.5,0.1c-0.2,0,0,-0.2,0,-0.4c-0.1,-0.2,-0.2,-0.6,-0.9,-0.9c-0.7,-0.3,-0.7,-0.1,-0.9,-0.1c-0.2,0,-0.5,-0.3,-1.2,-0.6c-0.6,-0.3,-1.1,-0.4,-2,-0.5c-0.9,-0.1,-1.7,0.1,-1.7,0.1c0,0,-1,0.5,-1.3,0.6c-0.3,0,-0.6,0,-1.3,0.2c-0.6,0.1,-0.7,0.8,-1,1c-0.4,0.2,-1.6,2,-2.5,2.8c-0.8,0.8,-0.8,2.7,-0.8,2.8c-0.1,0,0.1,2.3,0.2,2.9c0.1,0.5,0.4,1.2,0.5,1.4c0.1,0.3,0.5,0.8,0.4,1c-0.1,0.1,0,0.4,0,0.5c0,0.2,0.1,0.1,0.1,0.3c0,0.2,0.2,0.5,0.3,0.7c0.1,0.1,0.3,0.6,0.4,0.8c0.2,0.2,0.3,0.3,0.6,0.5c0.3,0.3,0.4,-0.4,0.7,-0.1c0.2,0.3,0.2,1,0.3,0.9c0,-0.2,-0.1,-1.1,-0.2,-1.2c-0.1,-0.2,-0.3,-0.6,-0.4,-0.7c-0.2,-0.1,-0.1,-0.5,-0.1,-0.7c-0.1,-0.2,0.1,-0.3,0.1,-0.6c0,-0.3,-0.3,-0.7,-0.4,-1c-0.1,-0.3,0,-0.6,0,-0.6l-0.7,-0.3l0,-0.6c0,0,0.7,0.3,0.7,0.3c0.1,-0.1,0,-0.5,0.5,-1.2c0.2,-0.4,1.5,-0.1,2.1,-0.7c0.6,-0.5,2.2,-1.5,2.6,-1.5c1.6,0,3,-0.7,3.4,-1c1,-0.8,1.5,-0.2,2,0c0.2,0,0.9,0.8,1.2,1.1c0.2,0.3,0.4,0.9,0.5,1.4c0.2,0.5,0.4,1.1,0.4,1.1l0.6,-0.2l0.2,0.5l-0.8,0.4c0,0,0.1,1.6,0.1,2.1c0,0.6,0.1,2.3,0.2,2.3c0.1,0.1,0,0,0.2,-0.4c0.2,-0.4,0,-0.8,0.1,-1.2c0.1,-0.4,0.3,-0.8,0.3,-0.8c0,0,0.2,-0.1,0.2,-0.2c0,-0.1,0.1,-0.3,0.2,-0.2c0.1,0.1,0.4,-0.2,0.4,-0.4c0,-0.2,-0.2,-0.3,0.1,-0.4c0.3,-0.1,0.6,0.2,0.6,0.4c0.1,0.2,0.4,-0.1,0.5,-0.5c0.2,-0.4,0.1,-0.9,0.1,-1.7c0,-0.7,0.1,-0.5,0.2,-1.2Z" class="g3_289" />
</g>
<path d="M304.1,448.6c-0.2,0.3,-1.2,0.5,-1.5,0.5c-0.3,0.1,-1.5,0.2,-2.2,-0.6c-0.6,-0.8,-0.7,-2,-0.4,-2.3c0.2,-0.3,1,-0.5,1.5,-0.6c0.5,0,1.7,0,2.1,0.1c0.3,0,0.6,0.1,0.7,0.4c0,0,0.1,0.8,0.1,1.2c0,0.4,-0.1,1,-0.3,1.3m-6.3,-0.5c-0.3,1.2,-1.3,1.3,-2,1.4c-0.8,0,-1.5,-0.1,-1.7,-0.2c-0.1,0,-0.5,-0.4,-0.6,-1.3c-0.1,-0.8,-0.2,-1.5,0.2,-1.7c0.4,-0.3,1.6,-0.3,2.5,-0.3c1,0,1.4,0.1,1.7,0.4c0,0,0.3,0.5,-0.1,1.7m7.4,-2.6c0,0,0.2,-0.2,0.2,-0.2c0,0,-0.5,0,-0.6,0c-0.2,0,-2.4,0,-2.7,0c-0.2,0.1,-1.1,0.1,-1.3,0.1c-0.2,0.1,-0.4,0.1,-0.7,0.2c-0.3,0.2,-0.4,0.4,-0.4,0.4l-1.5,0.1l-0.5,-0.5c0,0,-0.3,-0.5,-1.1,-0.5c-0.8,0,-1.3,0.2,-1.5,0.3c-0.3,0.1,-1.1,0.3,-1.2,0.3c-0.1,0.1,-1.3,0.3,-1.3,0.3c0,0,2.1,-0.3,2.4,-0.3c0.4,0,0.6,0,1.1,0c0.6,0,-2.4,0.3,-2.7,0.3l-0.9,0.1l0,0.3c0,0,0.3,0.1,0.4,0.4c0.2,0.2,0.3,1.1,0.4,1.4c0.1,0.2,0.5,1.1,0.6,1.1c0.1,0.1,0.1,0.2,0.5,0.3c0.5,0,1.7,0,2.1,0c0.4,-0.1,1,-0.4,1.3,-0.8c0.3,-0.5,0.6,-1.5,0.7,-1.9c0.1,-0.3,0.8,-0.3,1,0c0.1,0.3,0.6,1.6,1.1,2c0.6,0.4,1,0.4,1.5,0.4c0.5,0,1.8,-0.1,2.1,-0.5c0.3,-0.4,0.3,-0.5,0.5,-1.2c0.1,-0.8,0,-1.2,0.1,-1.3c0.1,-0.1,0.4,-0.3,0.4,-0.3l0,-0.4c0,0,-0.1,0,0,-0.1Z" class="g3_289" />
<path d="M300.2,445.2c0,-0.1,0,-0.5,0.4,-0.5c0.4,-0.1,0.9,-0.2,1.5,-0.1c0.5,0.1,1,0.3,1.3,0.3c0.2,0.1,-0.2,0.1,-0.4,0.1c-0.2,0,-0.9,0,-1.2,0c-0.2,0,-0.7,0,-0.9,0.1c-0.2,0.1,-0.6,0.1,-0.7,0.1Z" class="g3_289" />
<path d="M297.4,450.3c0,0,0,0.2,0.2,0.2c0.2,0,0.3,-0.1,0.5,-0.1c0.1,0,0.3,0,0.4,0c0.2,0.1,0.3,0.1,0.4,0.3c0.1,0.1,0.1,0.2,0.2,0.2c0,0.1,0.2,0.1,0.2,0.1c0,0,-0.2,0,-0.6,0c-0.3,-0.1,-0.6,0,-0.8,0c-0.2,0,-0.5,-0.1,-0.5,-0.7Z" class="g3_289" />
<path d="M299.9,450.5c0,0,0.2,-0.2,0.4,-0.3c0.2,-0.1,0.4,-0.2,0.4,-0.1c0.1,0.1,0.2,0.2,0.1,0.3c0,0.1,0,0,-0.3,0c-0.2,0,-0.6,0.1,-0.6,0.1Z" class="g3_289" />
<path d="M296.7,452.9c0,0,0.4,-0.1,0.6,-0.2c0.2,-0.2,0.7,-0.4,0.9,-0.4c0.2,-0.1,0.6,-0.1,0.7,-0.1c0.1,0.1,0.5,0.2,0.7,0.2c0.1,0,0.4,-0.1,0.6,-0.2c0.1,-0.1,0.2,-0.2,0.6,-0.1c0.3,0,0.7,0,1,0c0.3,0.1,0.3,0.2,0.5,0.1c0.2,-0.1,-0.2,0.1,-0.3,0.2c-0.2,0.2,-0.4,0.2,-0.6,0.2c-0.2,0,-0.6,-0.1,-0.7,0c-0.1,0,-0.2,0.2,-0.5,0.3c-0.3,0.1,-1,0,-1,0c-0.1,0,-0.6,-0.1,-1,0.1c-0.4,0.1,-0.4,0.2,-0.7,0.2c-0.3,0,-0.8,-0.3,-0.8,-0.3Z" class="g3_289" />
<path d="M302.4,452.2c0,0,-0.4,0.5,-0.7,0.7c-0.5,0.3,-0.8,0.5,-1.5,0.7c-0.7,0.2,-1,0.1,-1.4,0c-0.4,0,-0.8,-0.2,-0.6,-0.2c0.2,0.1,0.7,0.1,1.1,0c0.4,0,0.6,0,0.8,-0.1c0.3,-0.2,1.2,-0.5,1,-0.5C301,452.7,300,453,299.9,453c0,0,0.5,-0.5,0.8,-0.5c0.4,0,0.6,0,0.8,0c0.2,-0.1,0.9,-0.3,0.9,-0.3Z" class="g3_289" />
<path d="M298.9,454.6c0.4,0,0.6,0,1.1,-0.1c0.5,-0.2,0.7,-0.1,0.6,0c-0.1,0,-0.3,0,-0.5,0.1c-0.3,0.2,-1.2,0,-1.2,0Z" class="g3_289" />
<path d="M293,451.8c0,0,0,0.2,0.3,0.6c0.2,0.3,0.3,0.4,0.4,0.6c0,0.1,0,0.5,0.1,0.9c0.1,0.4,0.7,1.3,0.8,1.4c0.1,0.1,0.3,1.6,0.3,1.6c0.1,0.1,0.7,0.5,1.1,0.8c0.4,0.4,1.1,1,1.8,1.7c0.6,0.7,0.8,0.9,1.2,1.1c0.4,0.1,1.1,0.2,1.3,0.2c0.2,0,1.1,-0.1,1.2,-0.1c0,-0.1,-0.5,-0.6,-0.8,-0.7c-0.3,-0.2,-0.7,-0.8,-0.7,-1.1c0,-0.2,0,-0.8,-0.1,-1c-0.1,-0.3,0.2,-0.5,0.5,-0.5c0.3,0,0.9,0,1.2,-0.2c0.3,-0.1,1,-0.6,1,-0.7c0.1,0,0.2,0.3,0.3,0.3c0,-0.1,0.7,-0.9,0.9,-1c0.3,-0.1,0.8,-0.6,0.8,-0.7c0,-0.2,-1,0.8,-1.3,0.9c-0.2,0.2,-0.6,0.4,-0.9,0.4c-0.4,0.1,-0.4,0.2,-1,0.3c-0.5,0.1,-1,-0.1,-1.3,-0.1c-0.4,0.1,-1.1,0.2,-1.4,0.3c-0.4,0,-0.4,0.3,-1,-0.1c-0.6,-0.5,-1.3,-1.2,-1.7,-1.4c-0.3,-0.1,-1.5,-0.7,-1.8,-1.5C294,453,293.8,453,293.7,452.6c0,-0.3,-0.1,-0.8,-0.1,-0.8Z" class="g3_289" />
<path d="M305.6,450.8l0,1.2c0,0.3,-0.1,1.2,-0.1,1.5c0,0.2,0,0.8,0,1.3c0.1,0.4,0.1,0.7,0.1,0.7l0.2,-0.2c0.2,-0.3,0.8,0.3,0.8,-0.1c0,-0.6,-0.2,-1.5,-0.2,-1.8c0,-0.7,0.3,-1.8,0.3,-2.1c0,-0.3,0.3,-1.5,0.4,-1.7c0.1,-0.2,0.4,-1.2,0.4,-1.4c0,-0.3,0.1,-1.1,0,-1.2c-0.1,0,-0.1,0.6,-0.1,0.9c-0.1,0.2,-0.1,0.6,-0.2,0.4c-0.1,-0.1,-0.3,-0.5,-0.5,-0.5c-0.1,0,-0.3,0.3,-0.4,0.5c0,0.2,0.2,0.2,0.2,0.5c0,0.2,0,0.3,0.1,0.2c0.2,-0.1,0.4,-0.4,0.6,-0.4c0,0,0.1,0.4,-0.4,1.3c-0.6,1,-0.5,1,-1.2,0.9Z" class="g3_289" />
<path d="M296.1,446.7c-0.1,0,-0.2,-0.1,-0.2,-0.1c0,-0.1,0.1,-0.1,0.2,-0.1c0,0,0.1,0,0.1,0.1c0,0,-0.1,0.1,-0.1,0.1m0.6,-0.3c-0.5,-0.2,-1,0,-1.1,0c-0.1,0,-0.7,0.2,-0.6,0.6c0.2,-0.3,0.4,-0.4,0.5,-0.4c0.1,0,-0.1,0.5,0.5,0.5c0,0,0.5,0.1,0.6,-0.4c0.1,-0.3,0.7,0.2,0.7,0.2c0,0,-0.2,-0.4,-0.6,-0.5Z" class="g3_289" />
<path d="M301.8,446.2c-0.1,0,-0.1,-0.1,-0.1,-0.1c0,-0.1,0,-0.1,0.1,-0.1c0.1,0,0.1,0,0.1,0.1c0,0,0,0.1,-0.1,0.1m0.6,-0.4c-0.3,-0.1,-0.6,-0.1,-1.2,0.1c-0.6,0.3,-0.8,0.7,-0.8,0.7c0,0,0.8,-0.6,0.9,-0.4c0.1,0.4,0.3,0.5,0.6,0.4c0.5,0,0.5,-0.5,0.5,-0.5c0,0,0.2,0.2,0.3,0.2c0.1,0,0.4,-0.2,0.4,-0.2c0,0,-0.5,-0.3,-0.7,-0.3Z" class="g3_289" />
<g clip-path="url(#c2_289)">
<path d="M295.1,458.1c0,0,0.1,1.5,0.2,2c0.1,0.4,0.1,0.9,0.1,1.2c0.1,0.3,0.2,1.3,0.4,1.5c0.2,0.1,0.8,0.7,0.8,0.7c0,0,-0.8,-0.5,-0.9,-0.6c-0.1,-0.1,-0.6,-0.8,-0.7,-1.1c-0.1,-0.3,-0.3,-0.1,-0.4,0.1c-0.1,0.1,-0.4,0.5,-0.4,0.5c0,0,0,-0.8,0.3,-1.2c0.2,-0.5,0.3,-2.2,0.4,-2.6c0.1,-0.3,0.2,-0.5,0.2,-0.5Z" class="g3_289" />
<path d="M293.9,459.1c-0.2,0.1,-0.9,0.5,-1,1.3c-0.1,0.8,-0.7,1.6,-1.3,2.1c-0.6,0.6,-0.8,0.9,-0.8,0.9c0,0,1.5,-2.2,1.5,-2.4c0.1,-0.2,0.1,-1.2,0.3,-1.4c0.2,-0.1,1.3,-0.5,1.3,-0.5Z" class="g3_289" />
<path d="M305.7,455.9c0,0,0.8,0.8,0.8,1.2c0.1,0.4,0,0.5,0.1,0.9c0,0.3,1.1,4.8,1.2,5.5c0,-0.1,-0.4,0,-0.4,0c0,0,-0.9,-5.2,-1,-5.7c-0.2,-0.5,-0.5,-0.6,-0.5,-0.6c0,0,0.3,0.6,0.3,1.3c0,0.6,-0.1,2.2,-0.1,3.1c-0.1,0.8,-0.4,1.8,-0.5,1.9c0,0.1,-0.4,0,-0.4,0c0,0,0.4,-0.9,0.5,-1.4c0.1,-0.5,0.2,-2.6,0.2,-3.1c0,-0.5,-0.2,-3.1,-0.2,-3.1Z" class="g3_289" />
<path d="M307.1,457.3c0.2,0.1,0.7,0.7,1.3,0.8c0.6,0.2,0.9,0.1,2,0.6c1.2,0.4,2.4,0.9,2.4,0.9c0,0,-1,0,-1.3,-0.1c-0.4,-0.2,-0.7,-0.3,-1.2,-0.4c-0.5,-0.1,-1.1,-0.4,-1.5,-0.5c-0.4,-0.2,-1.7,-1.3,-1.7,-1.3Z" class="g3_289" />
<path d="M292.4,459.6c0.1,0,-2.5,1.1,-3.8,1.6c-1.3,0.5,-2.3,0.9,-2.4,1c-0.2,0.1,1.5,-0.2,2.1,-0.4c0.6,-0.2,0.2,-0.3,1.1,-0.2c1,0,1.6,-0.4,1.6,-0.5c0,-0.1,1.1,-1.4,1.4,-1.5Z" class="g3_289" />
</g>
<path d="M294.8,538.9c0,0,-0.1,0,-0.1,-0.1c0,-0.1,0.1,-0.1,0.1,-0.1c0.1,0,0.1,0,0.1,0.1c0,0,0,0.1,-0.1,0.1m-0.2,-0.5c-0.7,0.1,-1,0.7,-1.3,0.7c0,0,0.3,0.1,0.4,0.1c0.1,-0.1,0.7,-0.7,0.7,-0.4c0,0.2,0.1,0.5,0.6,0.5c0.5,0,0.6,-0.4,0.6,-0.4c0,0,0.1,-0.2,0.4,0.4c-0.1,-0.6,-0.6,-1,-1.4,-0.9Z" class="g4_289" />
<path d="M300.4,538.6c-0.1,0,-0.1,0,-0.1,-0.1c0,0,0,-0.1,0.1,-0.1c0,0,0.1,0.1,0.1,0.1c0,0.1,-0.1,0.1,-0.1,0.1m1.4,0.1c-0.1,-0.1,-0.4,-0.6,-1.1,-0.7c-0.6,0,-0.9,0.1,-1.2,0.3c-0.2,0.2,-0.7,0.8,-0.7,0.8c0,0,0.3,-0.1,0.5,-0.4c0.3,-0.4,0.7,-0.3,0.7,-0.3c0,0,-0.2,0.4,0.2,0.5c0.5,0.3,0.8,-0.1,0.8,-0.1c0,0,0.1,-0.1,0.2,-0.1c0.1,-0.1,0.2,0.1,0.3,0.1c0.1,0,0.4,0.1,0.3,-0.1Z" class="g4_289" />
<path d="M295.6,538c0,0,-0.6,-0.5,-1.1,-0.6c-0.6,-0.1,-0.8,0,-1,0.1c-0.2,0.1,-0.6,0.5,-0.8,0.8l-0.1,0.2c0,0,0.5,-0.5,0.8,-0.6c0.4,-0.1,0.6,-0.3,1,-0.1c0.4,0.2,0.7,0.3,0.9,0.3c0.2,0,0.3,-0.1,0.3,-0.1Z" class="g4_289" />
<path d="M298.5,537.8c0,0,0.2,-0.4,0.6,-0.6c0.3,-0.2,1.3,-0.3,1.9,-0.1c0.5,0.1,1.2,0.6,1.2,0.6c0,0,-1.1,-0.4,-1.6,-0.3c-0.4,0.1,-0.7,0.1,-1.1,0.3c-0.4,0.2,-1.1,0.2,-1,0.1Z" class="g4_289" />
<path d="M295.9,538.5c0,0,0.4,0.2,0.4,0.4c0,0.2,-0.1,1.1,-0.1,1.3c-0.1,0.2,0.1,-1.4,-0.3,-1.7Z" class="g4_289" />
<path d="M295.7,541.4c0,0,-0.3,0.7,-0.3,0.9c0,0.3,0.1,0.4,0.2,0.4c0.2,0,0.5,-0.1,0.6,-0.1c0.1,0.1,0.4,0.3,0.5,0.4c0.1,0,-0.3,0,-0.4,-0.1c-0.2,-0.1,-0.1,-0.2,-0.4,-0.1c-0.2,0,-0.5,0,-0.5,-0.1c-0.1,-0.2,-0.1,-0.5,0.3,-1.3Z" class="g4_289" />
<path d="M297.2,542.7c0,0,0.1,-0.2,0.3,-0.2c0.2,0,0.7,0,0.7,0c0.1,0,-0.4,0.2,-0.3,0.2c0.1,0,0.6,-0.1,0.7,-0.3c0.2,-0.1,0.3,-0.6,0.3,-0.7c-0.1,-0.2,-0.2,-0.4,-0.2,-0.4c0,0,0.2,0.1,0.3,0.6c0,0.4,-0.4,0.7,-0.5,0.8c-0.1,0.1,-0.6,0.1,-0.7,0.1c-0.1,0,-0.2,-0.1,-0.3,-0.1c-0.1,0,-0.3,0,-0.3,0Z" class="g4_289" />
<path d="M300.2,544.4c0,0,-0.4,0.4,-0.7,0.5c-0.2,0.1,-0.3,0.1,-0.5,0.2c-0.3,0.1,-0.5,0.1,-0.9,0.2c-0.4,0,-0.8,0,-1.2,0c-0.3,0,-0.3,-0.1,-0.5,-0.2c-0.2,0,-0.3,-0.2,-0.3,-0.2c-0.2,-0.2,-0.1,-0.5,-0.1,-0.5c0,0,0.2,0,0.6,-0.1c0.4,0,0.8,0.1,0.9,0.1c0.2,0,1,-0.2,1.3,-0.2c0.3,-0.1,0.9,0,1.2,0c0.2,0.1,0.2,0.2,0.2,0.2m0.5,-0.3c-0.7,0,-1.6,-0.5,-2.2,-0.4c-0.6,0,-0.6,0.2,-1.1,0.1c-0.6,-0.1,-1,0,-1.3,0c-0.3,0.1,-1,0.5,-1,0.5c0,0,0.5,0.7,0.7,0.8c0.3,0.2,0.8,0.4,1.1,0.4c0.3,0.1,1.2,0,1.6,0c0.4,-0.1,0.8,-0.3,1,-0.4c0.2,0,0.1,0,-0.1,0.2c-0.2,0.1,-0.6,0.3,-1.1,0.4c-0.5,0.1,-0.6,0.1,-1.1,0.1c-0.5,-0.1,-0.7,-0.1,-1,-0.2c-0.4,-0.2,-0.4,-0.3,-0.5,-0.4c-0.1,0.1,0.4,0.7,0.8,0.9c0.3,0.1,0.6,0.2,0.8,0.1c0.2,0,1.1,0,1.6,-0.2c0.4,-0.1,0.8,-0.7,1.1,-1c0.3,-0.2,1.1,-0.9,0.7,-0.9Z" class="g4_289" />
<g clip-path="url(#c3_289)">
<path d="M292.8,538.6c0,0,-0.1,0.7,-0.2,1.1c0,0.4,-0.1,1.1,-0.1,1.5c0,0.4,0.2,1.2,0.2,1.5c0,0.4,0.3,1.5,0.4,1.8c0.1,0.2,0.4,0.7,0.9,1.6c0.6,0.9,1.8,1.9,2.3,2.2c0.5,0.3,1.1,0.5,2.3,0.3c1.3,-0.3,2.5,-0.8,3.3,-1.5c-0.2,0.4,-1,0.9,-2,1.3c-1.1,0.4,-2.1,0.6,-3.2,0.3c-0.6,-0.1,-0.5,0.1,-0.6,0.6c-0.1,0.5,-0.2,1.3,-0.4,1.6c-0.3,0.4,-1.1,1.1,-1.4,1.2c-0.3,0.1,1.1,-0.8,1.3,-1.6c0.1,-0.4,-0.1,-0.8,-0.2,-1.3c-0.1,-0.5,-0.4,-0.7,-0.4,-1.1c0,-0.4,-0.6,-1,-0.6,-1c0,0,0.2,0.8,0.3,1c0,0.2,0.8,2.3,0.8,2.3c0,0,-0.8,-1.6,-0.9,-1.8c0,-0.1,0.7,2,0.8,2.1c0,0.1,-0.5,-0.6,-0.6,-1c-0.2,-0.3,0.1,1.2,0.1,1.3c0.1,0.1,-0.4,-0.5,-0.4,-0.7c0,-0.2,-0.2,0.5,-0.3,1c-0.2,0.6,0,1.3,-0.4,1.7c-0.3,0.4,-0.9,0.4,-0.9,0.4c0,0,0.8,-1,0.9,-1.8c0,-0.9,-0.1,-2.4,-0.1,-3.1c0,-0.7,-0.5,-2,-0.5,-2c0,0,0.4,3.6,0.3,4.3c-0.1,0.6,-0.3,1,-0.4,1.5c-0.1,0.5,-0.4,1.4,-0.5,1.6c-0.2,0.1,0,-2.4,0,-2.7c0,-0.3,0.1,0.7,0.2,0.6c0,-0.1,0,-1.6,0,-2.3c0,-0.7,-0.1,-0.8,-0.2,-1.4c0,-0.6,-0.2,-3.3,-0.2,-3.7c0.1,-0.4,0,-2.5,0,-2.5c0,0,0,4.8,-0.1,5.2c0,0.4,0,2.2,0,2.7c0,0.5,0,2.2,-0.1,2.6c0,0.5,0,2,0.1,2.3c0,0.3,0.2,2.4,0.2,3c0.1,0.5,0.1,2.3,-0.1,2.7c-0.1,0.4,0,-3,-0.1,-3.6c-0.1,-0.6,-0.3,-3.7,-0.3,-4c0.1,-0.3,-0.2,-1.2,-0.1,-1.6c0.1,-0.4,0.1,-2.1,0.1,-2.5c0.1,-0.4,0,-1.4,0.1,-1.7c0.1,-0.4,0.1,-2,0.1,-2.3c0,-0.3,-0.1,-1.8,-0.1,-1.8c0,0,-0.6,6.5,-0.7,7.9c-0.1,1.3,-0.2,2.3,-0.3,3c-0.1,0.8,-0.2,1.9,-0.3,2.4c-0.1,0.4,-0.1,1.8,-0.1,1.8c0,0,0.2,-5,0.2,-5.8c0.1,-0.7,0.2,-3.4,0.4,-4c0.1,-0.7,0.2,-3.1,0.4,-3.9c0.3,-0.8,0,-1.3,0.2,-2.2c0.2,-1,0.4,-2.8,0.4,-3c0.1,-0.2,0.4,-1.5,0.5,-2c0.1,-0.6,0.5,-1.6,0.7,-2.2c0.2,-0.5,0.3,-1.1,0.5,-1.4c0.2,-0.4,-0.5,1.8,-0.6,2.1c-0.1,0.4,-0.3,1.3,-0.3,1.3c0,0,0.7,-1.8,1.2,-2.3c0.4,-0.5,1.3,-1.3,1.7,-1.5c0.4,-0.2,0.7,-0.3,0.7,-0.3c0,0,-1.5,0.7,-2.2,1.8c-0.7,1,-1.2,2.2,-1.3,2.5c-0.2,0.3,-0.4,1.5,-0.4,1.5Z" class="g4_289" />
</g>
<path d="M297.7,531.8c0,0,-0.4,0,-0.8,0.4c-0.4,0.3,-0.5,0,-0.9,0.5c-0.4,0.4,-1,0.9,-1.4,1.3c-0.5,0.3,-0.6,0.6,-0.6,0.6c0,0,1,-1.1,1.2,-1.5c0.2,-0.4,1.1,-0.9,1.3,-1c0.2,-0.2,0.5,-0.4,0.4,-0.4c0,-0.1,-0.4,-0.1,-0.7,0.2c-0.3,0.3,-1.3,1.2,-1.3,1.2l1.1,-1.2l-1.2,1c0,0,1,-1.1,1.6,-1.5c0.7,-0.4,0.6,-0.5,0.4,-0.4c-0.2,0,-1.3,0.8,-1.7,1.2c-0.3,0.3,0.8,-0.9,1.1,-1.2c0.4,-0.3,-0.6,0.3,-0.6,0.2c0.1,0,0.8,-0.9,1.3,-1c0.4,-0.1,0.7,0,0.9,0c0.1,-0.1,-0.1,0.2,-0.1,0.4c0,0.2,0.1,0.9,0,1.1c-0.1,0.1,0,0.1,0,0.1Z" class="g4_289" />
<path d="M297.9,530c0,0,-0.9,-0.2,-1.2,-0.1c-0.3,0.1,-0.9,0.6,-1.2,0.9c-0.3,0.4,-1,1.3,-1.2,1.7c-0.2,0.3,-0.5,0.5,-0.7,1.1c-0.3,0.6,-0.9,2.6,-1,2.9c0,0.4,-0.2,1.6,-0.4,1.9c-0.3,0.3,-0.4,0.3,-0.4,0.3c0,0,0.3,-1.4,0.4,-2c0.1,-0.5,0.4,-2.4,0.7,-2.9c0.2,-0.4,0.7,-1.7,0.9,-1.9c0.3,-0.2,-0.3,0.7,-0.4,1.1c0,0.3,0.9,-1.5,1.4,-2c0.6,-0.5,0.9,-0.8,1.2,-0.9c0.2,-0.1,-1,0.8,-1.4,1.4c-0.4,0.7,-0.9,1.5,-0.9,1.4c0.1,0,1.5,-2.3,2.7,-2.9c0.8,-0.5,1.5,0,1.5,0Z" class="g4_289" />
<g clip-path="url(#c3_289)">
<path d="M289.5,555.8c0,0,0.5,-2.1,0.7,-2.5c0.1,-0.4,0.5,-3.2,0.6,-3.8c0.1,-0.6,0.1,-1.3,0.2,-1.4c0,-0.2,0,-0.6,0.1,-0.9c0.1,-0.4,0,-1.3,0.1,-1.6c0.2,-0.3,0.4,-1.7,0.4,-2.1c0,-0.5,0,-1.7,0,-2.3c0.1,-0.6,0.1,-1.4,0.1,-1.4c0,0,-0.1,0.9,-0.3,1.3c-0.1,0.4,-0.1,0.9,-0.2,1.4c-0.1,0.5,-0.2,0.9,-0.2,1.5c0,0.6,-0.2,0.8,-0.2,1.4c0.1,0.6,0.1,0.8,-0.1,1.3c-0.1,0.5,-0.3,1.6,-0.4,2c-0.1,0.5,-0.4,2.3,-0.6,3c-0.2,0.7,-1.1,3.9,-1.2,4.3c-0.1,0.4,0,1.4,0.2,1.7c0.2,0.4,0.4,0.8,0.4,0.8c0,0,-0.6,-1.4,-0.3,-2.5c0.3,-1.2,0.7,-2.7,1,-3.3c0.3,-0.7,0.6,-3.4,0.8,-4c0.1,-0.5,0.1,0.9,0,1.6c-0.2,0.7,-1.1,5.5,-1.1,5.5Z" class="g4_289" />
<path d="M288.3,554.4c0,-0.1,0.6,-3.2,0.6,-3.6c0.1,-0.5,0.3,-2.7,0.7,-3.5c0.5,-0.8,0.7,-2.8,0.9,-3.3c0.2,-0.6,0.3,-1.7,0.4,-2.1c0.1,-0.3,0,-1.5,0.2,-2.1c0.2,-0.7,0.1,-2.5,0.3,-2.9c0.1,-0.3,0.2,-1.4,0.2,-1.6c0.1,-0.2,0.8,-1,0.8,-1c0,0,-0.5,1.2,-0.6,1.5c-0.1,0.2,0.4,-0.5,0.4,-0.4c0,0.1,0,1.1,-0.2,1.6c-0.3,0.6,-0.4,1.8,-0.5,2.4c-0.2,0.5,-0.1,1.4,-0.2,1.5c-0.1,0.2,-0.3,1.7,-0.4,1.9c-0.1,0.3,-0.3,2,-0.5,2.8c-0.1,0.8,-0.4,1.8,-0.6,2.2c-0.1,0.4,-0.5,1.9,-0.6,2.4c-0.1,0.4,-0.3,2.5,-0.5,3.1c-0.3,0.6,-0.4,1.1,-0.4,1.1Z" class="g4_289" />
</g>
<path d="M291.8,534.6c0,0,0.8,-1.8,0.9,-2.3c0.1,-0.4,1.2,-1.7,1.6,-2c0.4,-0.4,1,-0.5,1,-0.5c0,0,-0.9,0.6,-1.3,0.9c-0.3,0.3,-0.9,1.5,-1.2,1.8c-0.2,0.4,-0.2,0.5,-0.3,0.8c-0.2,0.4,-0.7,1.3,-0.7,1.3Z" class="g4_289" />
<path d="M296.5,529.5c-0.1,0,-0.5,0,-1,0.3c-0.5,0.3,-1.2,1,-1.4,1.2c-0.2,0.3,-0.5,0.6,-0.8,1.1c-0.2,0.5,-0.4,1.3,-0.4,1.3c0,0,0.7,-1.7,1.2,-2.2c0.5,-0.6,0.8,-0.9,1.3,-1.1c0.4,-0.2,1.1,-0.6,1.1,-0.6Z" class="g4_289" />
<path d="M294.9,529.5c0.2,-0.1,0.8,-0.3,1.1,-0.5c0.3,-0.2,0.5,-0.1,0.5,-0.1c0,0,-0.4,0.2,-0.6,0.4c-0.3,0.2,-1,0.2,-1,0.2Z" class="g4_289" />
<path d="M298,529.3c0,0,-0.4,-0.6,-0.8,-0.7c-0.5,-0.1,-1,-0.1,-1.3,0.1c-0.2,0.1,0.2,-0.4,1,-0.3c0.8,0.1,0.8,0.2,1,0.3c0.1,0.1,-0.1,-0.6,-0.1,-0.6c0,0,0.2,0.2,0.2,0.3c0,0.1,0.3,0.4,0.5,0.5c0.1,0,0.7,0.1,0.9,0.1c0.2,0.1,0.6,0.4,0.6,0.4c0,0,-1,-0.3,-1.2,-0.3c-0.2,0,-0.4,0.1,-0.2,0.2c0.3,0,1.3,0.2,1.7,0.3c0.3,0.2,1.4,0.8,1.6,1c0.2,0.1,1.9,1.8,2.3,2c0.4,0.2,0.1,0,-0.1,-0.3c-0.2,-0.3,-0.8,-0.9,-0.8,-1c0,0,0.6,0.2,1.5,1.5c0.8,1.3,1.4,3.1,1.5,3.8c0.2,0.6,0.3,1.2,0.3,1.6c0,0.4,0.2,3.2,0.2,3.7c0,0.6,0.2,2.6,0.2,3.1c-0.1,0.5,-0.1,1,-0.1,1c0,0,-0.3,-4.1,-0.3,-4.3c0,-0.2,-0.3,-1.9,-0.3,-2.2c0,-0.2,-0.1,-0.3,-0.3,-0.5c-0.3,-0.2,-1,-0.9,-1.1,-1.1c-0.2,-0.2,-0.8,-1.1,-0.8,-1.1c0,-0.1,0.4,0.3,0.9,0.6c0.5,0.4,1.2,0.6,1.2,0.6c0,0,-0.9,-0.6,-1.2,-0.9c-0.4,-0.2,-1.3,-1.3,-1.3,-1.5c-0.1,-0.1,1.1,0.9,1.2,0.9c0.1,0,-0.3,-0.7,-0.5,-0.8c-0.1,-0.2,-1,-0.6,-1.5,-1c-0.4,-0.3,-1.4,-0.7,-1.6,-1c-0.2,-0.2,-1.7,-1.1,-1.9,-1.3c-0.2,-0.2,-0.8,-0.7,-0.8,-0.7c0,0,1.4,1,1.7,1.1c0.2,0.1,0.9,0.6,1.3,0.9c0.4,0.3,0.8,0.5,1.3,0.7c0.5,0.2,0.9,0.5,1.2,0.7c0.3,0.3,0.8,0.6,0.9,0.7c0.2,0.1,0.7,0.6,0.7,0.6c0,0,-1.6,-1.6,-1.8,-1.7c-0.1,-0.1,-1.3,-0.6,-1.4,-0.7c-0.2,-0.1,-2.2,-1.5,-2.4,-1.6c-0.1,-0.2,-1,-1,-1.2,-1.1c-0.2,-0.1,0.1,-0.3,0.3,-0.1c0.2,0.3,0.8,0.6,1.3,1c0.5,0.4,1.5,1.3,1.9,1.6c0.3,0.2,0.8,0.4,0.8,0.4L300.5,532c0,0,1.9,1.4,2.1,1.5c0.1,0.1,-2.2,-1.9,-2.5,-2.1c-0.2,-0.2,1.7,1.2,2.2,1.6c0.6,0.5,1.1,1,1.5,1.2c0.4,0.3,0.9,0.9,1.3,1.3c0.4,0.4,0.7,0.6,0.7,0.6c0,-0.1,-0.9,-1.3,-1.1,-1.5c-0.2,-0.2,-2.5,-2.1,-2.6,-2.2c0,-0.1,2.1,1.5,2.8,2.2c0.6,0.7,0.7,0.7,0.4,0.3c-0.2,-0.3,-1.6,-1.7,-2.1,-2.2c-0.4,-0.6,1.1,0.8,1.2,0.9c0.2,0.1,0.7,0.7,0.7,0.7c0.1,0,-0.2,-1,-0.6,-1.2c-0.3,-0.3,-1.7,-1.6,-2.3,-2c-0.5,-0.4,-1.3,-1,-1.8,-1.1c-0.4,-0.2,-1,-0.4,-1.3,-0.4c-0.2,0,0.5,0.3,0.8,0.4c0.3,0.1,1.8,0.9,2.2,1.2c0.3,0.3,0.7,0.7,0.7,0.7c0,0,-2.4,-1.7,-3,-1.8C299.1,530,299,530,299,530c0.1,0,1,0.4,1.4,0.6c0.4,0.2,2.2,1.4,2.4,1.7c-0.3,-0.2,-1.9,-1.3,-2.1,-1.4c-0.1,0,1.5,1.2,1.6,1.3c0.2,0.2,-2,-1.4,-2.3,-1.6c-0.4,-0.2,-1.3,-0.5,-1.5,-0.5c-0.2,0,0,-0.4,0,-0.5c0,0,-0.5,-0.1,-0.5,-0.1Z" class="g4_289" />
<g clip-path="url(#c3_289)">
<path d="M304.7,538c0,-0.1,0.4,1.2,0.4,1.5c0,0.4,0,1.1,-0.2,1.8c-0.1,0.6,-0.3,3.7,-1.4,4.8c-1.1,1.2,-1.3,1.4,-1.3,1.4c0,0,1.7,-1.2,2.1,-2.1c0.4,-0.9,0.5,-1.4,0.5,-1.4c0,0,-0.6,3,-0.7,3.4c-0.1,0.4,-0.1,2.7,-0.1,3.6c0,0.8,0.2,1.8,0.2,2.3c0,0.4,-0.1,1.5,0,1.9c0.2,0.4,0.3,0.7,0.3,0.7c0,0,-0.3,-1.6,-0.2,-2c0.1,-0.4,0.1,-0.4,0.2,-0.3c0.1,0.1,0.2,0.7,0.2,1c0,0.4,0,0.4,0,0.4c0,0,0.2,-0.9,0.3,-1.2c0,-0.3,0.5,-2,0.5,-2.2c0,-0.3,-0.6,1.8,-0.6,1.9c-0.1,0,0.2,-1.4,0.2,-1.5c0,-0.1,0.3,-1.2,0.4,-1.6c0,-0.3,0,-1.1,0.1,-1.3c0.1,-0.2,0.3,-1.6,0.2,-2.1c0,-0.4,0.4,-0.8,0.4,-1c0,-0.2,0,-2,0,-2.4c0.1,-0.4,0.3,-0.4,0.3,-0.7c0,-0.3,0,-0.8,-0.1,-0.8c0,0,-0.5,0.4,-0.6,0.5c-0.2,0.1,-0.6,0.1,-0.6,0.1c-0.1,-0.1,-0.2,-0.8,-0.1,-1.3c0.1,-0.5,0,-0.8,0.1,-1.1c0.1,-0.3,0,-0.5,0.2,-0.3c0.2,0.1,0.5,0.3,0.6,0.3c0.2,0,0,-0.2,0,-0.4c-0.1,-0.2,0,-0.3,-0.2,-0.6C305.7,539,304.7,538,304.7,538Z" class="g4_289" />
</g>
<path d="M305.6,540.4c-0.1,0.1,0,0.3,-0.1,0.5c-0.1,0.3,-0.3,0.5,-0.1,0.5c0.2,-0.1,0.3,-0.3,0.5,-0.4c0.2,-0.1,0.3,-0.2,0.3,-0.2c0,0,-0.5,-0.5,-0.6,-0.4Z" class="g4_289" />
<g clip-path="url(#c3_289)">
<path d="M291.5,552.2c0,0.1,0.1,1.7,0.2,2.3c0,0.7,-0.2,2.7,-0.2,3.1c-0.1,0.3,-0.1,1.8,-0.2,2c0,0.1,0.4,-3,0.5,-3.2c0.1,-0.2,0.1,0.8,0.1,0.8c0,0.1,0,-1.9,0,-2.4c-0.1,-0.5,-0.4,-2.6,-0.4,-2.6Z" class="g4_289" />
<path d="M299.5,528.4c0,0,0.7,0,1.4,0.2c0.6,0.3,0.8,0.3,1.6,0.7c0.7,0.4,0.7,0.7,1.3,1c0.7,0.4,1.1,0.8,1.6,1.4c0.5,0.5,1.4,1.7,1.6,1.9c0.1,0.3,-1.7,-2.1,-2.2,-2.3c-0.5,-0.1,1.5,1.3,2.7,3.7c1.2,2.4,1.2,3.2,1.3,3.8c0.1,0.6,0.7,3,0.7,4.1c0,1.2,0.3,2.3,0.6,3.4c0.2,1.1,0.4,2.7,0.4,2.7c0,0,-0.8,-3,-1,-2.9c-0.2,0.1,0.2,1.7,0.3,2.2c0.1,0.5,0.5,1.2,0.5,1.6c0,0.4,-0.6,-1.3,-0.7,-1.4c-0.2,-0.1,0.3,3.7,0.3,4.5c0,0.8,0.4,4.5,0.4,5c0,0.4,0.1,2.5,0.1,3.1c0,0.6,-0.1,1.2,-0.2,1.9c-0.1,0.7,-0.2,1.5,-0.2,1.5c0,-0.1,-0.2,-3.5,-0.1,-3.9c0.2,-0.4,0.1,-3.1,0,-3.7c-0.1,-0.6,-0.5,-3.3,-0.6,-4c0,-0.7,0.4,4.5,0.4,5c-0.1,0.6,-0.3,2.7,-0.3,3.4c0.1,0.8,-0.1,1.2,-0.1,2.6c0.1,1.5,0.1,2.7,0,3.4c-0.1,0.7,-0.3,2.6,-0.3,2.6c0,0,-1.5,-4.9,-0.9,-7.5c0.6,-2.5,0.8,-2.9,0.8,-3.3c0.1,-0.5,0.3,-3.4,0.3,-3.4c0,0,-0.5,-1.6,-0.6,-1.8c0,-0.2,0.3,2.1,0.2,2.6c-0.1,0.4,-0.2,1.8,-0.1,1.7c0,-0.1,-0.2,-4.2,-0.2,-4.4c0,-0.1,0,6.2,-0.2,6.6c-0.1,0.3,-0.1,-5.4,-0.1,-5.6c-0.1,-0.2,-0.1,5.2,-0.1,5.2l-0.2,-4.8c0,0,0.4,-1.4,0.5,-2.7c0.1,-1.2,0,-3.8,0.1,-4.7c0.1,-1,0,-2.3,0,-4.7c0,-2.3,-0.3,-4.2,-0.4,-4.9c-0.1,-0.7,0,-1.6,-1.9,-4.7c-1.9,-3.2,-2.7,-3.1,-3.4,-3.7c-0.8,-0.7,-1.5,-0.9,-2,-1.1c-0.4,-0.2,-1.3,-0.3,-1.3,-0.3Z" class="g4_289" />
<path d="M302.3,529.8c0.1,0,1.1,0.6,2.5,2.4c1.6,2,1.7,3.2,1.9,3.8c0.2,0.6,0.6,1.4,0.6,3.2c0.1,1.8,0.4,4.2,0.3,5.4c-0.1,1.2,-0.2,2.8,-0.1,3.9c0.2,1.2,0.3,3.8,0.3,4.5c-0.1,0.7,-0.1,3.6,-0.7,4.9c-0.6,1.2,-0.8,2.1,-0.8,2.1c0,0,0.8,-4.2,0.8,-4.7c0.1,-0.4,0.3,-3.5,0.2,-4.2c-0.1,-0.6,-0.2,-3.5,-0.2,-4.2c0,-0.7,-0.1,-6.3,-0.1,-7c-0.1,-0.6,-0.4,-3.3,-0.6,-4.1c-0.3,-0.8,-0.8,-2.5,-2.2,-4.1c-1.4,-1.6,-1.9,-1.9,-1.9,-1.9Z" class="g4_289" />
<path d="M306.5,543.6c0,0.1,0,2.6,-0.1,3.3c-0.1,0.7,0,2,0,2.8c0.1,0.8,0.3,1,0.3,1.7c0.1,0.7,-0.2,3.5,-0.4,4.1c-0.2,0.6,0.7,-2.9,0.7,-4c0.1,-1,0,-3.3,-0.1,-3.9c0,-0.7,-0.1,2.4,-0.2,2.4c0,0.1,0,-3.7,0,-4.2c0,-0.5,-0.2,-2.2,-0.2,-2.2Z" class="g4_289" />
<path d="M303.8,558.9c0,-0.1,0.8,-2.3,1.1,-4c0.4,-1.6,0.6,-2.3,0.6,-2.5c0,-0.1,0.3,1.6,0.4,2.2c0,0.6,0.1,0.8,0.1,2.2c-0.1,1.3,-0.8,3.1,-1.2,3.6c0.5,-1.2,1,-2.5,1,-3.3c0,-0.9,-0.2,-1.2,-0.2,-1.2c0,0,-0.1,2,-0.2,2.4c-0.1,0.4,-0.3,-1.4,-0.3,-1.8c0,-0.4,-0.5,0.6,-0.6,0.9c-0.1,0.3,-0.7,1.5,-0.7,1.5Z" class="g4_289" />
<path d="M302.5,564.8c-0.1,0.1,1.2,-1.5,1.5,-2.2c0,-0.2,-0.6,0.5,-1,0.6c0.3,-0.2,0.7,-0.5,1.4,-1.5c0.7,-1,0.6,-1,0.9,-1.6c0.3,-0.6,0.8,-2.8,0.9,-3c0.1,-0.3,0.8,-3.2,0.8,-3.2c0,0,-0.4,2.8,-0.7,3.7c-0.3,0.9,-0.7,2.2,-0.9,2.7c-0.2,0.5,-2.2,4.1,-2.9,4.5Z" class="g4_289" />
<path d="M294.6,551.9c0,0,0.9,1.4,1.5,2c0.7,0.6,1.8,1,2.7,1c0.9,0,2.4,-0.1,3.8,-0.9c1.4,-0.7,1.9,-1.2,2.1,-1.3c0.1,0,0.1,0.7,-0.2,1c-0.4,0.3,-1.6,1.2,-2.4,1.5c-0.9,0.4,-2.9,0.8,-4.4,0.2c-1.6,-0.6,-3.2,-2.3,-3.5,-2.8c-0.4,-0.7,0.2,0.2,0.6,0.4c0.5,0.7,-0.2,-1.1,-0.2,-1.1Z" class="g4_289" />
<path d="M311.1,553.7c0.1,0.1,0.8,0.2,1.7,0.7c1.3,0.8,2.6,1.9,2.9,2.2c0.5,0.5,1.8,2.5,2.1,4.3c0.2,1.3,0,2.3,0,2.3c0,0,-0.2,-3.4,-2.4,-6.2c-1,-1.4,-2,-1.8,-2.5,-2.1c-0.6,-0.4,-1.7,-0.7,-1.8,-0.5c-0.2,0.1,0.1,2.3,0,3c-0.1,0.7,-0.4,2.7,-0.4,2.7c0,0,-0.4,-5.2,-0.3,-6.3c0,-1.1,-0.3,-3.5,-0.3,-3.5Z" class="g4_289" />
<path d="M290.6,553c-0.3,0.1,-2.4,0.6,-3,0.8c-0.5,0.3,-2.3,1.5,-2.9,2.4c-0.6,0.8,-1.4,3.3,-1.4,3.3c0,0,0.9,-2.9,2.2,-3.8c1.3,-0.9,1.6,-1.5,2.7,-1.7c1.1,-0.2,2.4,-1,2.4,-1Z" class="g4_289" />
</g>
<g clip-path="url(#c4_289)">
<path d="M-3,718.1l189.5,0" class="g5_289" />
</g>
<text 
x="59" 
y="702" 
dx="0,0.2,0.2,0.2,0.2,0.2,0.2,-0.1,0.2,0.2,0.2,0,-0.1,0.2" 
class="s7_289"
>Language Notes</text>

<path d="M59.6,763.9l9.5,0" class="g2_289" />
<path d="M59.6,901.4l9.5,0" class="g2_289" />
<path d="M59.6,1038.9l9.5,0" class="g2_289" />
<text 
x="59" 
y="758" 
dx="0,0" 
class="s8_289"
>a </text>

<text 
x="80" 
y="763" 
dx="0,0,0" 
class="s9_289"
>学位/</text>

<text 
x="145" 
y="763" 
dx="0,0" 
class="s10_289"
>學位</text>

<text 
x="82" 
y="787" 
dx="0,0.1,0.1,0.1,0.1,0,0.1,0.1,0.1,0.1,-0.1,0.1,0.1,0.1,0.1,0.1,0.1,0.1,0.1,0.1,0.1,0.1,0.1,0.1,-0.6,0.1,0.1,0.1,0.1,0.1,0,0.1,0.1,0.1,0.1,0.1" 
class="s11_289"
>The term for a bachelor’s degree is </text>

<text 
x="285" 
y="787" 
dx="0,0.2,0.2,0.2" 
class="s12_289"
>学士学位</text>

<text 
x="365" 
y="787" 
dx="0" 
class="s11_289"
>/</text>

<text 
x="370" 
y="787" 
dx="0,0.2" 
class="s13_289"
>學士</text>

<text 
x="82" 
y="812" 
dx="0,0.2" 
class="s13_289"
>學位</text>

<text 
x="122" 
y="812" 
dx="0,0.1" 
class="s11_289"
>. </text>

<text 
x="128" 
y="812" 
dx="0,0.2,0.2,0.2" 
class="s12_289"
>博士学位</text>

<text 
x="208" 
y="812" 
dx="0" 
class="s11_289"
>/</text>

<text 
x="212" 
y="812" 
dx="0,0.2,0.2,0.2" 
class="s13_289"
>博士學位</text>

<text 
x="295" 
y="812" 
dx="0,0.1,0.1,0.1" 
class="s11_289"
>and </text>

<text 
x="319" 
y="812" 
dx="0,0.2,0.2,0.2" 
class="s12_289"
>硕士学位</text>

<text 
x="400" 
y="812" 
dx="0" 
class="s11_289"
>/</text>

<text 
x="82" 
y="836" 
dx="0,0.2,0.2,0.2" 
class="s13_289"
>碩士学位</text>

<text 
x="167" 
y="836" 
dx="0,0.1,0,0.1,0.1,0.1,0.1,0.1,0.1,0,0.1,0.1,0.1,0.1,0.1,-0.1,0.1,0.1,0.1,0.1,0.1,0.1,0,0.1,0.1,0.1,0.1,0.1,0.1,0.1,0.1,0.1,0.1,0.1,0.1,0,0.1,0.1,-0.6,0" 
class="s11_289"
>are the terms for doctoral and master’s </text>

<text 
x="82" 
y="860" 
dx="0,0.1,0.1,0.1,0,0.1,0.1,0.1,0.1,0.1,0,0.1,0.1,0.1,0.1,0.1,0.1,0.1,-0.2,0.1,0.1,-0.7,0" 
class="s11_289"
>degrees, respectively. </text>

<text 
x="59" 
y="896" 
dx="0,0" 
class="s8_289"
>b </text>

<text 
x="80" 
y="900" 
dx="0,0,0" 
class="s9_289"
>钢琴/</text>

<text 
x="145" 
y="900" 
dx="0,0" 
class="s10_289"
>鋼琴</text>

<text 
x="82" 
y="925" 
dx="0,0.1,0.1,0.1,0.1,0.1,0.1,0.1,0.1,0,0.1" 
class="s11_289"
>Pianos are </text>

<text 
x="146" 
y="925" 
dx="0,0.2" 
class="s12_289"
>钢琴</text>

<text 
x="186" 
y="925" 
dx="0" 
class="s11_289"
>/</text>

<text 
x="190" 
y="925" 
dx="0,0.2" 
class="s13_289"
>鋼琴</text>

<text 
x="233" 
y="925" 
dx="0,0.1,0.1,0.1,0.1,0.1,0.1,0.1,0,0.1,0.1,0.1,0.1,0.1,0.1,0.1,0.1,0.1,0.1,0.1,0.1,0.1,0.1,0.1,0.1,0.1,0.1,0.1,0.1,0.1,0.1,0.1,0" 
class="s11_289"
>(lit. steel musical instrument). </text>

<text 
x="82" 
y="949" 
dx="0,0.1,0.1,0.1,0.1,0.1,0.1,0.1,0.1,0.1,0,0.1" 
class="s11_289"
>Violins are </text>

<text 
x="145" 
y="949" 
dx="0,0.2,0.2" 
class="s12_289"
>小提琴</text>

<text 
x="208" 
y="949" 
dx="0,0,0,0,0,0,0,0,0,0,0" 
class="s14_289"
>(xiǎotíqín)</text>

<text 
x="266" 
y="949" 
dx="0,0.1,0.1,0.1,0.1,0.1,0.1,0.1,0.1,0.1,0.1,0.1,0.1,0.1,0.1,0.1,0.1,0.1,0.1,0.1,0.1,0.1,0.1,0.1,0.1,0" 
class="s11_289"
>(lit. small, hand-carried </text>

<text 
x="82" 
y="974" 
dx="0,0.1,0.1,0.1,0.1,0.1,0.1,0.1,0.1,0.1,0.1,0.1,0.1,0.1,0.1,0.1,0.1,0.1,0.1,0.1,0.1,0.1,0.1,0.1,0.1,0.1,0.1,0.1,0.1,0.1,0.1,0.1,0.1,0.1,0.1,0.1,0.1,0.1,0.1,0.1" 
class="s11_289"
>musical instrument). Can you guess what </text>

<text 
x="321" 
y="974" 
dx="0,0.2,0.2" 
class="s12_289"
>中提琴</text>

<text 
x="384" 
y="974" 
dx="0,0.1,0.1,0" 
class="s11_289"
>and </text>

<text 
x="82" 
y="998" 
dx="0,0.2,0.2" 
class="s12_289"
>大提琴</text>

<text 
x="145" 
y="998" 
dx="0,0.1,0,0.1" 
class="s11_289"
>are?</text>

<text 
x="59" 
y="1033" 
dx="0,0" 
class="s8_289"
>c </text>

<text 
x="80" 
y="1038" 
dx="0,0,0,0" 
class="s9_289"
>会说话/</text>

<text 
x="171" 
y="1038" 
dx="0,0,0" 
class="s10_289"
>會說話</text>

<text 
x="82" 
y="1062" 
dx="0,0.1,0.1,0,0.1,0.1" 
class="s11_289"
>Here, </text>

<text 
x="116" 
y="1062" 
dx="0,0.2,0.2" 
class="s12_289"
>会说话</text>

<text 
x="176" 
y="1062" 
dx="0" 
class="s11_289"
>/</text>

<text 
x="180" 
y="1062" 
dx="0,0.2,0.2" 
class="s13_289"
>會說話</text>

<text 
x="243" 
y="1062" 
dx="0,0.1,0.1,0.1,0.1,0.1,0.1,0.1,-0.2,0.1,0.1,0.1,0.1,0.1,0.1,0.1,0.1,0.1,0.1,0.1,0.1,0,0.1,0.1" 
class="s11_289"
>means “very articulate.”</text>

<path d="M464.7,763.9l9.5,0" class="g2_289" />
<path d="M464.7,925.9l9.5,0" class="g2_289" />
<text 
x="464" 
y="758" 
dx="0,0" 
class="s8_289"
>d </text>

<text 
x="485" 
y="763" 
dx="0,0,0" 
class="s9_289"
>认为/</text>

<text 
x="550" 
y="763" 
dx="0,0" 
class="s10_289"
>認為</text>

<text 
x="487" 
y="787" 
dx="0,0.2" 
class="s12_289"
>认为</text>

<text 
x="527" 
y="787" 
dx="0" 
class="s11_289"
>/</text>

<text 
x="532" 
y="787" 
dx="0,0.2" 
class="s13_289"
>認為</text>

<text 
x="574" 
y="787" 
dx="0,0.1,0.1,0.1,-0.1,0.1,0.1,0.1,0.1,0.1,0,0.1,0.1" 
class="s11_289"
>differs from </text>

<text 
x="646" 
y="787" 
dx="0,0.2,0.2,0.2" 
class="s12_289"
>对…来说</text>

<text 
x="726" 
y="787" 
dx="0" 
class="s11_289"
>/</text>

<text 
x="731" 
y="787" 
dx="0,0.2,0.2,0.2" 
class="s13_289"
>對…來說</text>

<text 
x="811" 
y="787" 
dx="0,0" 
class="s11_289"
>. </text>

<text 
x="487" 
y="812" 
dx="0,0.1,0.1,0.1,0.1,0.1" 
class="s11_289"
>While </text>

<text 
x="523" 
y="812" 
dx="0,0.2,0.2,0.2" 
class="s12_289"
>对…来说</text>

<text 
x="604" 
y="812" 
dx="0" 
class="s11_289"
>/</text>

<text 
x="608" 
y="812" 
dx="0,0.2,0.2,0.2" 
class="s13_289"
>對…來說</text>

<text 
x="693" 
y="812" 
dx="0,0.1,0.1,0.1,0.1,0.1,0.1,0.1,0.1,0.1,0.1,0.1,0.1,-0.2,0.1,0.1,0.1,0.1,0.1,0" 
class="s11_289"
>can only convey the </text>

<text 
x="487" 
y="836" 
dx="0,0.1,0.1,0.1,0.1,-0.2,0.1,0.1,-0.6,0.1,0.1,0.1,0.1,0.1,0.1,0.1,0.1,0.1,0.1" 
class="s11_289"
>speaker’s opinion, </text>

<text 
x="593" 
y="836" 
dx="0,0.2" 
class="s12_289"
>认为</text>

<text 
x="633" 
y="836" 
dx="0" 
class="s11_289"
>/</text>

<text 
x="638" 
y="836" 
dx="0,0.2" 
class="s13_289"
>認為</text>

<text 
x="681" 
y="836" 
dx="0,0.1,0.1,0.1,0.1,-0.1,0.1,0.1,0,0.1,0.1,0.1,0.1,0.1,0.1,0.1,0.1,0.1,0.1,0.1,0.1,0.1,0" 
class="s11_289"
>may express either the </text>

<text 
x="487" 
y="860" 
dx="0,0.1,0.1,0.1,0.1,0.1,0.1,0.1,0.1,0,0.1,0.1,0.1,0.1,0.1,0.1,0.1,0.1,0.1,0.1,-0.2,0.1,0.1,0.1,0.1,0.1,0.1,0.1,0.1,0.1,0.1,0.1,0.1,0.1,0.1,0.1,0.1,0.1,0.1,0,0.1,0.1,0.1,0.1,0.1,0.1,0.1,0.1,0.1,0.1,0.1,0.1,0.1,0.1,0.1,0.1,0.1,0" 
class="s11_289"
>opinion of the speaker or the opinion of the person being </text>

<text 
x="487" 
y="885" 
dx="0,0.1,0.1,0.1,-0.2,0.1,0.1,0.1,0.1,0.1,0.1,0.1,0.1" 
class="s11_289"
>spoken about.</text>

<text 
x="464" 
y="920" 
dx="0,0" 
class="s8_289"
>e </text>

<text 
x="485" 
y="925" 
dx="0" 
class="s9_289"
>家</text>

<text 
x="487" 
y="949" 
dx="0" 
class="s12_289"
>家</text>

<text 
x="509" 
y="949" 
dx="0,-0.1,-0.1,-0.1,-0.1,-0.1,-0.1,-0.1,-0.1,-0.1,-0.1,-0.1,-0.1,-0.1,-0.1,-0.1,-0.1,-0.1,-0.1,-0.1,-0.1,-0.1,-0.1,-0.1,-0.1,-0.3,-0.1,-0.1,-0.1,-0.1,-0.1,-0.1,-0.1,-0.1,-0.1,-0.1,-0.3,-0.1,-0.1,-0.1,-0.1,-0.1,-0.1,-0.1,0" 
class="s11_289"
>can be used as a suffix to mean an expert or </text>

<text 
x="487" 
y="974" 
dx="0,-0.1,-0.1,-0.1,-0.1,-0.1,-0.1,-0.1,-0.1,-0.1,-0.1,-0.1,-0.1,-0.1,-0.1,-0.1,-0.1,-0.1,-0.1,-0.1,-0.1,-0.1,-0.1,-0.1,-0.1,-0.1,-0.1,-0.1,-0.1,-0.1,-0.1,-0.1,-0.1,-0.1,-0.1,-0.1,-0.1,-0.1,-0.1,-0.1,-0.1,-0.1" 
class="s11_289"
>established scholar in a particular field—</text>

<text 
x="709" 
y="974" 
dx="0,-0.2" 
class="s12_289"
>画家</text>

<text 
x="749" 
y="974" 
dx="0" 
class="s11_289"
>/</text>

<text 
x="753" 
y="974" 
dx="0,-0.2" 
class="s13_289"
>畫家</text>

<text 
x="792" 
y="974" 
dx="0,0" 
class="s11_289"
>, </text>

<text 
x="487" 
y="998" 
dx="0,-0.2,-0.2" 
class="s12_289"
>哲学家</text>

<text 
x="546" 
y="998" 
dx="0" 
class="s11_289"
>/</text>

<text 
x="550" 
y="998" 
dx="0,-0.2,-0.2" 
class="s13_289"
>哲學家</text>

<text 
x="609" 
y="998" 
dx="0,-0.1" 
class="s11_289"
>, </text>

<text 
x="614" 
y="998" 
dx="0,-0.2,-0.2" 
class="s12_289"
>文学家</text>

<text 
x="673" 
y="998" 
dx="0" 
class="s11_289"
>/</text>

<text 
x="677" 
y="998" 
dx="0,-0.2,-0.2" 
class="s13_289"
>文學家</text>

<text 
x="736" 
y="998" 
dx="0,-0.1" 
class="s11_289"
>, </text>

<text 
x="741" 
y="998" 
dx="0,-0.2" 
class="s12_289"
>历史</text>

<text 
x="487" 
y="1022" 
dx="0,-0.2" 
class="s12_289"
>学家</text>

<text 
x="526" 
y="1022" 
dx="0" 
class="s11_289"
>/</text>

<text 
x="531" 
y="1022" 
dx="0,-0.2,-0.2,-0.2" 
class="s13_289"
>歷史學家</text>

<text 
x="609" 
y="1022" 
dx="0,-0.1" 
class="s11_289"
>, </text>

<text 
x="614" 
y="1022" 
dx="0,-0.2,-0.2" 
class="s12_289"
>化学家</text>

<text 
x="673" 
y="1022" 
dx="0" 
class="s11_289"
>/</text>

<text 
x="677" 
y="1022" 
dx="0,-0.2,-0.2" 
class="s13_289"
>化學家</text>

<text 
x="736" 
y="1022" 
dx="0,-0.1,-0.1,-0.2,-0.3,-0.1,-0.1,-0.1,-0.1,-0.1,-0.1,-0.1,-0.3,0" 
class="s11_289"
>, etc. Out of </text>

<text 
x="487" 
y="1047" 
dx="0,-0.1,-0.1,-0.1,-0.1,-0.1,-0.1,-0.9,-0.1,-0.1,-0.1,-0.1,-0.1,-0.1,-0.1,-0.1,-0.1,-0.1,-0.1,-0.1,-0.1,-0.1,-0.3,-0.1,-0.1,-0.2,-0.1,-0.1,-0.1,-0.1,-0.1,-0.3,-0.1,-0.1,-0.1,-0.1,-0.1,-0.1,-0.1,-0.1,-0.1,-0.1,-0.1,-0.1,-0.1,-0.1,-0.1,-0.1,-0.1,-0.1,-0.1,-0.1,-0.3,-0.1,-0.1,-0.3,-0.1,-0.4,-0.1,0" 
class="s11_289"
>modesty, many people refrain from using the suffix to refer </text>

<text 
x="487" 
y="1071" 
dx="0,-0.3,-0.1,-0.1,-0.1,-0.1,-0.1,-0.1,-0.1,-0.1,-0.1,-0.5,-0.1,-0.1,-0.1,-0.1,-1.4,-0.1,-0.1,-0.1,-0.1,-0.1,-0.1,-0.1,-0.1,-0.1,-0.1,-0.1,-0.1,-0.1,-0.1,-0.1,-0.1" 
class="s11_289"
>to themselves. To call oneself a </text>

<text 
x="662" 
y="1071" 
dx="0,-0.2" 
class="s12_289"
>画家</text>

<text 
x="701" 
y="1071" 
dx="0" 
class="s11_289"
>/</text>

<text 
x="705" 
y="1071" 
dx="0,-0.2" 
class="s13_289"
>畫家</text>

<text 
x="747" 
y="1071" 
dx="0,-0.1,-0.1,-0.1,-0.1,-0.1,-0.1,-0.1,-0.1,-0.1,-0.1,0" 
class="s11_289"
>can sound a </text>

<text 
x="487" 
y="1096" 
dx="0,-0.1,-0.1,-0.1,-0.1,-0.1,-0.1,-0.1,-0.1,-0.2,-0.1,-0.1,-0.1,-0.1,-0.1,-0.1,-0.1,-0.1,0.2,-0.9,-0.1,-0.1,-0.1,-0.1,-0.1,-0.1,-0.1,-0.1,-0.1,-0.1,-0.1,-0.1,-0.1,-0.3,-0.1,-0.3,-0.1,-0.1,-0.1,-0.1,-0.1,-0.1,-0.1,-0.1,-0.1,-0.1,-0.1,-0.1,-0.1,-0.1,-0.1,-0.1,-0.1,-0.1,-0.1,-0.1,-0.1,-0.1,-0.1,0" 
class="s11_289"
>little grand. That’s why people often just say what they do </text>

<text 
x="487" 
y="1120" 
dx="0,-0.1,-0.1,-0.1,-0.3,-0.1,-0.1,-0.1,-0.1" 
class="s11_289"
>instead: </text>

<text 
x="533" 
y="1120" 
dx="0,-0.2,-0.2,-0.2" 
class="s12_289"
>我画画儿</text>

<text 
x="612" 
y="1120" 
dx="0" 
class="s11_289"
>/</text>

<text 
x="616" 
y="1120" 
dx="0,-0.2,-0.2,-0.2" 
class="s13_289"
>我畫畫兒</text>

<text 
x="697" 
y="1120" 
dx="0,-0.1,-0.1" 
class="s11_289"
>or </text>

<text 
x="711" 
y="1120" 
dx="0,-0.2,-0.2,-0.2,-0.2" 
class="s12_289"
>我是画画儿</text>

<text 
x="487" 
y="1145" 
dx="0" 
class="s12_289"
>的</text>

<text 
x="507" 
y="1145" 
dx="0" 
class="s11_289"
>/</text>

<text 
x="511" 
y="1145" 
dx="0,-0.2,-0.2,-0.2,-0.2,-0.2" 
class="s13_289"
>我是畫畫兒的</text>

<text 
x="631" 
y="1145" 
dx="0,-0.1,-0.1,-0.1,-0.1,-0.1,-0.1,-0.1,-0.1,-0.1,-0.1,-0.1,-0.1,-0.1,-0.1,-0.1,-0.1,-0.1,-0.1,-0.1,-0.1,-0.1,-0.1,-0.1,-0.1,-0.1,-0.1" 
class="s11_289"
>(“I’m someone who paints”).</text>

<text 
x="59" 
y="67" 
dx="0,0,0,0,0,0,0,-0.9,0,0,0,0,0,0,0" 
class="s15_289"
>After You Study</text>

<text 
x="59" 
y="89" 
dx="0,0.1,0.1,0.1,0.1,0.1,0.1,0.1,0.1,0.1,0.1,0.1,-0.1,0.1,0.1,0.1,0.1,0.1,0.1,0.1,0" 
class="s16_289"
>Answer the following </text>

<text 
x="59" 
y="103" 
dx="0,0.1,0.1,0.1,0.1,0.1,0.1,0.1,0.1,0.1,0.1,0.1,0.1,0.1,0.1,0.1,0.1,0.1,0.1,0.1,0.1" 
class="s16_289"
>questions in Chinese.</text>

<text 
x="59" 
y="133" 
dx="0,0" 
class="s17_289"
>1 </text>

<text 
x="82" 
y="135" 
dx="0,0,0,0,0,0,0,0,0" 
class="s18_289"
>请介绍一下李哲的哥</text>

<text 
x="82" 
y="159" 
dx="0,0,0,0,0,0,0,-0.2,-1.2" 
class="s18_289"
>哥和嫂子的学习、家</text>

<text 
x="82" 
y="184" 
dx="0,0,0,0,0.2" 
class="s18_289"
>庭和工作。</text>

<text 
x="59" 
y="213" 
dx="0,0" 
class="s17_289"
>2 </text>

<text 
x="82" 
y="214" 
dx="0,0,0,0,0,0,0,0,0" 
class="s18_289"
>你认为孩子小时候的</text>

<text 
x="82" 
y="239" 
dx="0,0,0,0,0,0,0,-2.3" 
class="s18_289"
>教育什么最重要±</text>

<path d="M247.5,55l0,186.8" class="g6_289" />
<path d="M-12.9,1209.2l53.4,0l0,-1222.1l-53.4,0l0,1222.1Z" class="g7_289" />
<text 
transform="matrix(0, -1, 1, 0, 31, 1173)"
dx="0,1,1,1" 
class="s19_289"
>266 </text>

<text 
transform="matrix(0, -1, 1, 0, 31, 1128)"
dx="0,1,1,0.8,1,1,0.9,1,0.8,1,1,1,1,1,1,1,1,1,1,1,1" 
class="s19_289"
>Integrated Chinese 3 </text>

<text 
transform="matrix(0, -1, 1, 0, 31, 988)"
dx="0,1" 
class="s19_289"
>| </text>

<text 
transform="matrix(0, -1, 1, 0, 31, 974)"
dx="0,-0.2,0.7,0.7,1,1,1,1" 
class="s19_289"
>Textbook</text>



<!-- Any embedded fonts defined here -->
<style type="text/css" ><![CDATA[

@font-face {
	font-family: STKaiti-SC-Bold_3oi;
	src: url("fonts/STKaiti-SC-Bold_3oi.woff") format("woff");
}

@font-face {
	font-family: LibreFranklin-ExtraBold_42g;
	src: url("fonts/LibreFranklin-ExtraBold_42g.woff") format("woff");
}

@font-face {
	font-family: MuseoSans-700_42o;
	src: url("fonts/MuseoSans-700_42o.woff") format("woff");
}

@font-face {
	font-family: GentiumBookBasic-Italic_3o-;
	src: url("fonts/GentiumBookBasic-Italic_3o-.woff") format("woff");
}

@font-face {
	font-family: LibreFranklin-Bold_42j;
	src: url("fonts/LibreFranklin-Bold_42j.woff") format("woff");
}

@font-face {
	font-family: STKaiTi-TC-Bold_3op;
	src: url("fonts/STKaiTi-TC-Bold_3op.woff") format("woff");
}

@font-face {
	font-family: LibreFranklin-Regular_42q;
	src: url("fonts/LibreFranklin-Regular_42q.woff") format("woff");
}

@font-face {
	font-family: LibreFranklin-SemiBold_42r;
	src: url("fonts/LibreFranklin-SemiBold_42r.woff") format("woff");
}

@font-face {
	font-family: SourceHanSansCN-Normal_3q5;
	src: url("fonts/SourceHanSansCN-Normal_3q5.woff") format("woff");
}

@font-face {
	font-family: STKaiTi-TC-Regular_3pl;
	src: url("fonts/STKaiTi-TC-Regular_3pl.woff") format("woff");
}

@font-face {
	font-family: STKaiti-SC-Regular_3pn;
	src: url("fonts/STKaiti-SC-Regular_3pn.woff") format("woff");
}

]]></style>

</svg>
