<?xml version="1.0" encoding="UTF-8" standalone="no"?>
<!DOCTYPE svg PUBLIC "-//W3C//DTD SVG 1.1//EN"
"http://www.w3.org/Graphics/SVG/1.1/DTD/svg11.dtd">


<!-- Page 351 -->
<svg x="0" y="0" width="921" height="1196" viewBox="0 0 921 1196" version="1.1" xmlns="http://www.w3.org/2000/svg" xmlns:xlink="http://www.w3.org/1999/xlink"
style="display: block;margin-left: auto;margin-right: auto;">
<defs>

<style type="text/css"><![CDATA[

.g1_351{
fill: #57585A;
stroke: #B2B3B7;
stroke-width: 1.5277778;
stroke-linecap: butt;
stroke-linejoin: miter;
stroke-miterlimit: 4;
}
.g2_351{
fill: #F0F1F2;
}
.g3_351{
fill: #BDBEC1;
}
.g4_351{
fill: none;
stroke: #BDBEC1;
stroke-width: 1.5277778;
stroke-linecap: butt;
stroke-linejoin: miter;
}
.g5_351{
fill: none;
stroke: #BDBEC1;
stroke-width: 0.38194445;
stroke-linecap: butt;
stroke-linejoin: miter;
}
.g6_351{
fill: none;
stroke: #DADBDD;
stroke-width: 0.38194445;
stroke-linecap: butt;
stroke-linejoin: miter;
}
.g7_351{
fill: none;
stroke: #DADBDD;
stroke-width: 1.5277778;
stroke-linecap: butt;
stroke-linejoin: miter;
}

.s1_351{
font-size: 10.69px;
font-family: LibreFranklin-SemiBold_45y;
fill: #FFFFFF;
}
.s2_351{
font-size: 14.51px;
font-family: LibreFranklin-SemiBold_45y;
fill: #57585A;
}
.s3_351{
font-size: 24.44px;
font-family: STKaiti-SC-Regular_3pn;
fill: #57585A;
}
.s4_351{
font-size: 24.44px;
font-family: STKaiTi-TC-Regular_3pl;
fill: #57585A;
}
.s5_351{
font-size: 14.90px;
font-family: GentiumBookBasic-Italic_462;
fill: #3F3F40;
}
.s6_351{
font-size: 14.51px;
font-family: LibreFranklin-Regular_45s;
fill: #3F3F40;
}
.s7_351{
font-size: 13.75px;
font-family: LibreFranklin-Light_45u;
fill: #3F3F40;
}
.s8_351{
font-size: 14.51px;
font-family: LibreFranklin-SemiBold_45y;
fill: #77787B;
}
.s9_351{
font-size: 14.90px;
font-family: GentiumBookBasic-Italic_3o-;
fill: #3F3F40;
}
.s10_351{
font-size: 19.86px;
font-family: LibreFranklin-SemiBold_45y;
fill: #3F3F40;
}
.s11_351{
font-size: 13.75px;
font-family: LibreFranklin-Regular_45s;
fill: #3F3F40;
}
.s12_351{
font-size: 13.75px;
font-family: LibreFranklin-Italic_461;
fill: #3F3F40;
}

]]></style>

</defs>
<path d="M0,0
L0,1196
L921,1196
L921,0 Z " 
fill="#FFFFFF" stroke="none" />
<path d="M-17.5,1220.7l58,0l0,-1247.3l-58,0l0,1247.3Z" class="g1_351" />
<text 
transform="matrix(0, -1, 1, 0, 32, 1173)"
dx="0,0.6,0.6,0.6" 
class="s1_351"
>328 </text>

<text 
transform="matrix(0, -1, 1, 0, 32, 1133)"
dx="0,0.6,0.6,0.5,0.6,0.6,0.6,0.6,0.5,0.6,0.6,0.6,0.6,0.6,0.6,0.6,0.6,0.6,0.6,0.6,0.6" 
class="s1_351"
>Integrated Chinese 3 </text>

<text 
transform="matrix(0, -1, 1, 0, 32, 1005)"
dx="0,0.6" 
class="s1_351"
>| </text>

<text 
transform="matrix(0, -1, 1, 0, 32, 993)"
dx="0,-0.6,0.4,0.3,0.6,0.6,0.6,0.6" 
class="s1_351"
>Textbook</text>

<path d="M55,143.8l178.8,0l0,45.4L55,189.2l0,-45.4Zm178.8,0l178.7,0l0,45.4l-178.7,0l0,-45.4Zm178.7,0l135.2,0l0,45.4l-135.2,0l0,-45.4Zm135.2,0l66.1,0l0,45.4l-66.1,0l0,-45.4Zm66.1,0l189.2,0l0,45.4l-189.2,0l0,-45.4Zm189.2,0l63.3,0l0,45.4l-63.3,0l0,-45.4ZM55,231.4l178.8,0l0,45.1L55,276.5l0,-45.1Zm178.8,0l178.7,0l0,45.1l-178.7,0l0,-45.1Zm178.7,0l135.2,0l0,45.1l-135.2,0l0,-45.1Zm135.2,0l66.1,0l0,45.1l-66.1,0l0,-45.1Zm66.1,0l189.2,0l0,45.1l-189.2,0l0,-45.1Zm189.2,0l63.3,0l0,45.1l-63.3,0l0,-45.1ZM55,321.6l178.8,0l0,42.1L55,363.7l0,-42.1Zm178.8,0l178.7,0l0,42.1l-178.7,0l0,-42.1Zm178.7,0l135.2,0l0,42.1l-135.2,0l0,-42.1Zm135.2,0l66.1,0l0,42.1l-66.1,0l0,-42.1Zm66.1,0l189.2,0l0,42.1l-189.2,0l0,-42.1Zm189.2,0l63.3,0l0,42.1l-63.3,0l0,-42.1ZM55,490.2l178.8,0l0,42.2L55,532.4l0,-42.2Zm178.8,0l178.7,0l0,42.2l-178.7,0l0,-42.2Zm178.7,0l135.2,0l0,42.2l-135.2,0l0,-42.2Zm135.2,0l66.1,0l0,42.2l-66.1,0l0,-42.2Zm66.1,0l189.2,0l0,42.2l-189.2,0l0,-42.2Zm189.2,0l63.3,0l0,42.2l-63.3,0l0,-42.2ZM55,574.6l178.8,0l0,45.3L55,619.9l0,-45.3Zm178.8,0l178.7,0l0,45.3l-178.7,0l0,-45.3Zm178.7,0l135.2,0l0,45.3l-135.2,0l0,-45.3Zm135.2,0l66.1,0l0,45.3l-66.1,0l0,-45.3Zm66.1,0l189.2,0l0,45.3l-189.2,0l0,-45.3Zm189.2,0l63.3,0l0,45.3l-63.3,0l0,-45.3ZM55,662.1l178.8,0l0,42.1L55,704.2l0,-42.1Zm178.8,0l178.7,0l0,42.1l-178.7,0l0,-42.1Zm178.7,0l135.2,0l0,42.1l-135.2,0l0,-42.1Zm135.2,0l66.1,0l0,42.1l-66.1,0l0,-42.1Zm66.1,0l189.2,0l0,42.1l-189.2,0l0,-42.1Zm189.2,0l63.3,0l0,42.1l-63.3,0l0,-42.1ZM55,746.4l178.8,0l0,42.2L55,788.6l0,-42.2Zm178.8,0l178.7,0l0,42.2l-178.7,0l0,-42.2Zm178.7,0l135.2,0l0,42.2l-135.2,0l0,-42.2Zm135.2,0l66.1,0l0,42.2l-66.1,0l0,-42.2Zm66.1,0l189.2,0l0,42.2l-189.2,0l0,-42.2Zm189.2,0l63.3,0l0,42.2l-63.3,0l0,-42.2ZM55,830.7l178.8,0l0,42.2L55,872.9l0,-42.2Zm178.8,0l178.7,0l0,42.2l-178.7,0l0,-42.2Zm178.7,0l135.2,0l0,42.2l-135.2,0l0,-42.2Zm135.2,0l66.1,0l0,42.2l-66.1,0l0,-42.2Zm66.1,0l189.2,0l0,42.2l-189.2,0l0,-42.2Zm189.2,0l63.3,0l0,42.2l-63.3,0l0,-42.2ZM55,918.3l178.8,0l0,42.1L55,960.4l0,-42.1Zm178.8,0l178.7,0l0,42.1l-178.7,0l0,-42.1Zm178.7,0l135.2,0l0,42.1l-135.2,0l0,-42.1Zm135.2,0l66.1,0l0,42.1l-66.1,0l0,-42.1Zm66.1,0l189.2,0l0,42.1l-189.2,0l0,-42.1Zm189.2,0l63.3,0l0,42.1l-63.3,0l0,-42.1ZM55,1002.6l178.8,0l0,45.4L55,1048l0,-45.4Zm178.8,0l178.7,0l0,45.4l-178.7,0l0,-45.4Zm178.7,0l135.2,0l0,45.4l-135.2,0l0,-45.4Zm135.2,0l66.1,0l0,45.4l-66.1,0l0,-45.4Zm66.1,0l189.2,0l0,45.4l-189.2,0l0,-45.4Zm189.2,0l63.3,0l0,45.4l-63.3,0l0,-45.4Z" class="g2_351" />
<path d="M55,405.9l811.3,0l0,42.2L55,448.1l0,-42.2Zm0,554.5l811.3,0l0,42.2l-811.3,0l0,-42.2Z" class="g3_351" />
<path d="M55,1090.7l178.8,0" class="g4_351" />
<path d="M233.8,1090.7l178.7,0" class="g4_351" />
<path d="M412.5,1090.7l135.2,0" class="g4_351" />
<path d="M547.7,1090.7l66.1,0" class="g4_351" />
<path d="M613.8,1090.7l189.2,0" class="g4_351" />
<path d="M803,1090.7l63.3,0" class="g4_351" />
<path d="M55,448.1l178.8,0" class="g5_351" />
<path d="M233.8,448.1l178.7,0" class="g5_351" />
<path d="M412.5,448.1l135.2,0" class="g5_351" />
<path d="M547.7,448.1l66.1,0" class="g5_351" />
<path d="M613.8,448.1l189.2,0" class="g5_351" />
<path d="M803,448.1l63.3,0" class="g5_351" />
<path d="M55,143.8l178.8,0" class="g5_351" />
<path d="M233.8,143.8l178.7,0" class="g5_351" />
<path d="M412.5,143.8l135.2,0" class="g5_351" />
<path d="M547.7,143.8l66.1,0" class="g5_351" />
<path d="M613.8,143.8l189.2,0" class="g5_351" />
<path d="M803,143.8l63.3,0" class="g5_351" />
<path d="M55,189.2l178.8,0" class="g5_351" />
<path d="M233.8,189.2l178.7,0" class="g5_351" />
<path d="M412.5,189.2l135.2,0" class="g5_351" />
<path d="M547.7,189.2l66.1,0" class="g5_351" />
<path d="M613.8,189.2l189.2,0" class="g5_351" />
<path d="M803,189.2l63.3,0" class="g5_351" />
<path d="M55,231.4l178.8,0" class="g5_351" />
<path d="M233.8,231.4l178.7,0" class="g5_351" />
<path d="M412.5,231.4l135.2,0" class="g5_351" />
<path d="M547.7,231.4l66.1,0" class="g5_351" />
<path d="M613.8,231.4l189.2,0" class="g5_351" />
<path d="M803,231.4l63.3,0" class="g5_351" />
<path d="M55,276.5l178.8,0" class="g5_351" />
<path d="M233.8,276.5l178.7,0" class="g5_351" />
<path d="M412.5,276.5l135.2,0" class="g5_351" />
<path d="M547.7,276.5l66.1,0" class="g5_351" />
<path d="M613.8,276.5l189.2,0" class="g5_351" />
<path d="M803,276.5l63.3,0" class="g5_351" />
<path d="M55,321.6l178.8,0" class="g5_351" />
<path d="M233.8,321.6l178.7,0" class="g5_351" />
<path d="M412.5,321.6l135.2,0" class="g5_351" />
<path d="M547.7,321.6l66.1,0" class="g5_351" />
<path d="M613.8,321.6l189.2,0" class="g5_351" />
<path d="M803,321.6l63.3,0" class="g5_351" />
<path d="M55,363.7l178.8,0" class="g5_351" />
<path d="M233.8,363.7l178.7,0" class="g5_351" />
<path d="M412.5,363.7l135.2,0" class="g5_351" />
<path d="M547.7,363.7l66.1,0" class="g5_351" />
<path d="M613.8,363.7l189.2,0" class="g5_351" />
<path d="M803,363.7l63.3,0" class="g5_351" />
<path d="M55,405.9l178.8,0" class="g5_351" />
<path d="M233.8,405.9l178.7,0" class="g5_351" />
<path d="M412.5,405.9l135.2,0" class="g5_351" />
<path d="M547.7,405.9l66.1,0" class="g5_351" />
<path d="M613.8,405.9l189.2,0" class="g5_351" />
<path d="M803,405.9l63.3,0" class="g5_351" />
<path d="M55,490.2l178.8,0" class="g5_351" />
<path d="M233.8,490.2l178.7,0" class="g5_351" />
<path d="M412.5,490.2l135.2,0" class="g5_351" />
<path d="M547.7,490.2l66.1,0" class="g5_351" />
<path d="M613.8,490.2l189.2,0" class="g5_351" />
<path d="M803,490.2l63.3,0" class="g5_351" />
<path d="M55,532.4l178.8,0" class="g5_351" />
<path d="M233.8,532.4l178.7,0" class="g5_351" />
<path d="M412.5,532.4l135.2,0" class="g5_351" />
<path d="M547.7,532.4l66.1,0" class="g5_351" />
<path d="M613.8,532.4l189.2,0" class="g5_351" />
<path d="M803,532.4l63.3,0" class="g5_351" />
<path d="M55,574.6l178.8,0" class="g5_351" />
<path d="M233.8,574.6l178.7,0" class="g5_351" />
<path d="M412.5,574.6l135.2,0" class="g5_351" />
<path d="M547.7,574.6l66.1,0" class="g5_351" />
<path d="M613.8,574.6l189.2,0" class="g5_351" />
<path d="M803,574.6l63.3,0" class="g5_351" />
<path d="M55,619.9l178.8,0" class="g5_351" />
<path d="M233.8,619.9l178.7,0" class="g5_351" />
<path d="M412.5,619.9l135.2,0" class="g5_351" />
<path d="M547.7,619.9l66.1,0" class="g5_351" />
<path d="M613.8,619.9l189.2,0" class="g5_351" />
<path d="M803,619.9l63.3,0" class="g5_351" />
<path d="M55,662.1l178.8,0" class="g5_351" />
<path d="M233.8,662.1l178.7,0" class="g5_351" />
<path d="M412.5,662.1l135.2,0" class="g5_351" />
<path d="M547.7,662.1l66.1,0" class="g5_351" />
<path d="M613.8,662.1l189.2,0" class="g5_351" />
<path d="M803,662.1l63.3,0" class="g5_351" />
<path d="M55,704.2l178.8,0" class="g5_351" />
<path d="M233.8,704.2l178.7,0" class="g5_351" />
<path d="M412.5,704.2l135.2,0" class="g5_351" />
<path d="M547.7,704.2l66.1,0" class="g5_351" />
<path d="M613.8,704.2l189.2,0" class="g5_351" />
<path d="M803,704.2l63.3,0" class="g5_351" />
<path d="M55,746.4l178.8,0" class="g5_351" />
<path d="M233.8,746.4l178.7,0" class="g5_351" />
<path d="M412.5,746.4l135.2,0" class="g5_351" />
<path d="M547.7,746.4l66.1,0" class="g5_351" />
<path d="M613.8,746.4l189.2,0" class="g5_351" />
<path d="M803,746.4l63.3,0" class="g5_351" />
<path d="M55,788.6l178.8,0" class="g5_351" />
<path d="M233.8,788.6l178.7,0" class="g5_351" />
<path d="M412.5,788.6l135.2,0" class="g5_351" />
<path d="M547.7,788.6l66.1,0" class="g5_351" />
<path d="M613.8,788.6l189.2,0" class="g5_351" />
<path d="M803,788.6l63.3,0" class="g5_351" />
<path d="M55,830.7l178.8,0" class="g5_351" />
<path d="M233.8,830.7l178.7,0" class="g5_351" />
<path d="M412.5,830.7l135.2,0" class="g5_351" />
<path d="M547.7,830.7l66.1,0" class="g5_351" />
<path d="M613.8,830.7l189.2,0" class="g5_351" />
<path d="M803,830.7l63.3,0" class="g5_351" />
<path d="M55,872.9l178.8,0" class="g5_351" />
<path d="M233.8,872.9l178.7,0" class="g5_351" />
<path d="M412.5,872.9l135.2,0" class="g5_351" />
<path d="M547.7,872.9l66.1,0" class="g5_351" />
<path d="M613.8,872.9l189.2,0" class="g5_351" />
<path d="M803,872.9l63.3,0" class="g5_351" />
<path d="M55,918.3l178.8,0" class="g5_351" />
<path d="M233.8,918.3l178.7,0" class="g5_351" />
<path d="M412.5,918.3l135.2,0" class="g5_351" />
<path d="M547.7,918.3l66.1,0" class="g5_351" />
<path d="M613.8,918.3l189.2,0" class="g5_351" />
<path d="M803,918.3l63.3,0" class="g5_351" />
<path d="M55,1048l178.8,0" class="g5_351" />
<path d="M233.8,1048l178.7,0" class="g5_351" />
<path d="M412.5,1048l135.2,0" class="g5_351" />
<path d="M547.7,1048l66.1,0" class="g5_351" />
<path d="M613.8,1048l189.2,0" class="g5_351" />
<path d="M803,1048l63.3,0" class="g5_351" />
<path d="M55,960.4l178.8,0" class="g6_351" />
<path d="M233.8,960.4l178.7,0" class="g6_351" />
<path d="M412.5,960.4l135.2,0" class="g6_351" />
<path d="M547.7,960.4l66.1,0" class="g6_351" />
<path d="M613.8,960.4l189.2,0" class="g6_351" />
<path d="M803,960.4l63.3,0" class="g6_351" />
<path d="M55,1002.6l178.8,0" class="g5_351" />
<path d="M233.8,1002.6l178.7,0" class="g5_351" />
<path d="M412.5,1002.6l135.2,0" class="g5_351" />
<path d="M547.7,1002.6l66.1,0" class="g5_351" />
<path d="M613.8,1002.6l189.2,0" class="g5_351" />
<path d="M803,1002.6l63.3,0" class="g5_351" />
<path d="M55,101.1l178.8,0" class="g7_351" />
<path d="M233.8,101.1l178.7,0" class="g7_351" />
<path d="M412.5,101.1l135.2,0" class="g7_351" />
<path d="M547.7,101.1l66.1,0" class="g7_351" />
<path d="M613.8,101.1l189.2,0" class="g7_351" />
<path d="M803,101.1l63.3,0" class="g7_351" />
<text 
x="61" 
y="85" 
dx="0,0,0,0,0,0,0,0,0,0" 
class="s2_351"
>Simplified</text>

<text 
x="239" 
y="85" 
dx="0,-1.2,-0.1,0,0,0,0,0,0,0,0" 
class="s2_351"
>Traditional</text>

<text 
x="418" 
y="85" 
dx="0,0,0,0,0,0" 
class="s2_351"
>Pinyin</text>

<text 
x="553" 
y="75" 
dx="0,0,0,0,0,0,-0.2,0" 
class="s2_351"
>Part of </text>

<text 
x="553" 
y="94" 
dx="0,0,0,0,0,0" 
class="s2_351"
>Speech</text>

<text 
x="619" 
y="85" 
dx="0,0,0,0,0,0,0" 
class="s2_351"
>English</text>

<text 
x="809" 
y="85" 
dx="0,0,0,0,0,0" 
class="s2_351"
>Lesson</text>

<text 
x="61" 
y="131" 
dx="0,0" 
class="s3_351"
>博客</text>

<text 
x="239" 
y="131" 
dx="0,0" 
class="s4_351"
>博客</text>

<text 
x="418" 
y="129" 
dx="0,0.2,0.2,0.2" 
class="s5_351"
>bókè</text>

<text 
x="553" 
y="129" 
dx="0,0" 
class="s6_351"
>n </text>

<text 
x="619" 
y="129" 
dx="0,0,0,0" 
class="s7_351"
>blog</text>

<text 
x="809" 
y="129" 
dx="0" 
class="s8_351"
>7</text>

<text 
x="61" 
y="175" 
dx="0,0" 
class="s3_351"
>博士</text>

<text 
x="239" 
y="175" 
dx="0,0" 
class="s4_351"
>博士</text>

<text 
x="418" 
y="173" 
dx="0,0.2,0.2,0.2,0.2" 
class="s9_351"
>bóshì</text>

<text 
x="553" 
y="173" 
dx="0" 
class="s6_351"
>n</text>

<text 
x="619" 
y="163" 
dx="0,0,0,0,-0.2,0,0,0,-0.2,0,0,0,0,0,0,0,0,0,0,0" 
class="s7_351"
>doctorate (academic </text>

<text 
x="619" 
y="183" 
dx="0,0,0,0,-0.2,0,0,0,0,0,0,-1.1,0,0,0,0,0,0,0,0,0,0,0,0,0,0,0,0,0" 
class="s7_351"
>degree), Dr. (academic title)</text>

<text 
x="809" 
y="173" 
dx="0" 
class="s8_351"
>9</text>

<text 
x="61" 
y="219" 
dx="0" 
class="s3_351"
>部</text>

<text 
x="239" 
y="219" 
dx="0" 
class="s4_351"
>部</text>

<text 
x="418" 
y="216" 
dx="0,0.2" 
class="s9_351"
>bù</text>

<text 
x="553" 
y="217" 
dx="0" 
class="s6_351"
>n</text>

<text 
x="619" 
y="216" 
dx="0,0,0,0,0,0,0,0,0,0,0,0,0" 
class="s7_351"
>part, section</text>

<text 
x="809" 
y="217" 
dx="0,0" 
class="s8_351"
>10</text>

<text 
x="61" 
y="262" 
dx="0,0,0" 
class="s3_351"
>不见得</text>

<text 
x="239" 
y="262" 
dx="0,0,0" 
class="s4_351"
>不見得</text>

<text 
x="418" 
y="250" 
dx="0,0.2,0.2,0.2,0.2,0.2,0.2,0.2,0" 
class="s9_351"
>bújiànde </text>

<text 
x="418" 
y="270" 
dx="0,0.2,0.2,0.2,0.2,0.2,0.2,0.2,0.2,0.2,0.2" 
class="s9_351"
>[bùjiànde]*</text>

<text 
x="619" 
y="260" 
dx="0,0,0,0,0,0,0,0,0,0,0,0,0,0,0" 
class="s7_351"
>not necessarily</text>

<text 
x="809" 
y="260" 
dx="0" 
class="s8_351"
>1</text>

<text 
x="61" 
y="307" 
dx="0,0,0,0,0,0" 
class="s3_351"
>不是…而是…</text>

<text 
x="239" 
y="307" 
dx="0,0,0,0,0,0" 
class="s4_351"
>不是…而是…</text>

<text 
x="418" 
y="295" 
dx="0,0.2,0.2,0.2,0.2,0.2,0.2,0.2,0.2,0.2,0.2,0.2,0.2,0.2,0.2,0.2,0.2,0.2,0.2,0.2,0.2,0.2,0.2,0" 
class="s9_351"
>búshì . . . érshì . . . </text>

<text 
x="418" 
y="315" 
dx="0,0.2,0.2,0.2,0.2,0.2,0.2,0.2,0.2,0.2,0.2,0.2,0.2,0.2,0.2,0.2,0.2,0.2,0.2,0.2,0.2,0.2,0.2,0.2,0.2,0" 
class="s9_351"
>[bùshì . . . érshì . . .] </text>

<text 
x="619" 
y="305" 
dx="0,0,0.4,-0.9,0,0,0,0,0,0,0,0,0,0,0,0,0,0,0,0,0,0,0,0" 
class="s7_351"
>it’s not . . . but . . .</text>

<text 
x="809" 
y="306" 
dx="0" 
class="s8_351"
>9</text>

<text 
x="61" 
y="351" 
dx="0,0" 
class="s3_351"
>不停</text>

<text 
x="239" 
y="351" 
dx="0,0" 
class="s4_351"
>不停</text>

<text 
x="418" 
y="349" 
dx="0,0.2,0.2,0.2,0.2,0.2" 
class="s9_351"
>bùtíng</text>

<text 
x="553" 
y="349" 
dx="0,0,0,0" 
class="s6_351"
>adv </text>

<text 
x="619" 
y="349" 
dx="0,0,0,0,0,0,0,0,0,0,0,0,-0.9,0,0,0,0,0,0,0,0,0,0,0,0" 
class="s7_351"
>continuously, incessantly</text>

<text 
x="809" 
y="349" 
dx="0" 
class="s8_351"
>6</text>

<text 
x="61" 
y="393" 
dx="0,0" 
class="s3_351"
>不同</text>

<text 
x="239" 
y="393" 
dx="0,0" 
class="s4_351"
>不同</text>

<text 
x="418" 
y="391" 
dx="0,0.2,0.2,0.2,0.2,0.2,0.2" 
class="s9_351"
>bù tóng</text>

<text 
x="619" 
y="391" 
dx="0,0,0,0,-0.3,0,-0.2,0,0,0,0,0,0,0,0,0,0,0,0,0,0,0,0" 
class="s7_351"
>different, not the same</text>

<text 
x="809" 
y="391" 
dx="0" 
class="s8_351"
>6</text>

<text 
x="453" 
y="436" 
dx="0" 
class="s10_351"
>C</text>

<text 
x="61" 
y="477" 
dx="0,0" 
class="s3_351"
>菜单</text>

<text 
x="239" 
y="477" 
dx="0,0" 
class="s4_351"
>菜單</text>

<text 
x="418" 
y="475" 
dx="0,0.2,0.2,0.2,0.2,0.2" 
class="s9_351"
>càidān</text>

<text 
x="553" 
y="476" 
dx="0" 
class="s6_351"
>n</text>

<text 
x="619" 
y="475" 
dx="0,0,0,0" 
class="s7_351"
>menu</text>

<text 
x="809" 
y="476" 
dx="0" 
class="s8_351"
>3</text>

<text 
x="61" 
y="520" 
dx="0,0,0" 
class="s3_351"
>餐馆儿</text>

<text 
x="239" 
y="520" 
dx="0,0,0" 
class="s4_351"
>餐館兒</text>

<text 
x="418" 
y="517" 
dx="0,0.2,0.2,0.2,0.2,0.2,0.2,0.2" 
class="s9_351"
>cānguǎnr</text>

<text 
x="553" 
y="518" 
dx="0" 
class="s6_351"
>n</text>

<text 
x="619" 
y="517" 
dx="0,-0.2,0,0,0,0,0,0,0,0" 
class="s7_351"
>restaurant</text>

<text 
x="809" 
y="518" 
dx="0" 
class="s8_351"
>2</text>

<text 
x="61" 
y="562" 
dx="0,0" 
class="s3_351"
>餐巾</text>

<text 
x="239" 
y="562" 
dx="0,0" 
class="s4_351"
>餐巾</text>

<text 
x="418" 
y="559" 
dx="0,0.2,0.2,0.2,0.2,0.2" 
class="s9_351"
>cānjīn</text>

<text 
x="553" 
y="560" 
dx="0" 
class="s6_351"
>n</text>

<text 
x="619" 
y="560" 
dx="0,0,0,0,0,0" 
class="s7_351"
>napkin</text>

<text 
x="809" 
y="560" 
dx="0" 
class="s8_351"
>3</text>

<text 
x="61" 
y="606" 
dx="0" 
class="s3_351"
>层</text>

<text 
x="239" 
y="606" 
dx="0" 
class="s4_351"
>層</text>

<text 
x="418" 
y="603" 
dx="0,0.2,0.2,0.2" 
class="s9_351"
>céng</text>

<text 
x="553" 
y="604" 
dx="0" 
class="s6_351"
>m</text>

<text 
x="619" 
y="593" 
dx="0,0,0,0,0,0,0,-0.2,0,0,0,0,-0.2,0,0,-0.3,0,0,0,0,-0.2,0,0,0,0,0" 
class="s7_351"
>(measure word for stories </text>

<text 
x="619" 
y="613" 
dx="0,-0.2,0,0,0,0,0,0,0,0,0,0,0,0" 
class="s7_351"
>of a building)</text>

<text 
x="809" 
y="604" 
dx="0" 
class="s8_351"
>2</text>

<text 
x="61" 
y="649" 
dx="0" 
class="s3_351"
>长</text>

<text 
x="239" 
y="649" 
dx="0" 
class="s4_351"
>長</text>

<text 
x="418" 
y="647" 
dx="0,0.2,0.2,0.2,0.2" 
class="s9_351"
>cháng</text>

<text 
x="553" 
y="648" 
dx="0,0,0" 
class="s6_351"
>adj</text>

<text 
x="619" 
y="647" 
dx="0,0,0,0" 
class="s7_351"
>long</text>

<text 
x="809" 
y="648" 
dx="0" 
class="s8_351"
>1</text>

<text 
x="61" 
y="691" 
dx="0,0" 
class="s3_351"
>长江</text>

<text 
x="239" 
y="691" 
dx="0,0" 
class="s4_351"
>長江</text>

<text 
x="418" 
y="689" 
dx="0,0.2,0.2,0.2,0.2,0.2,0.2,0.2,0.2,0.2,0" 
class="s9_351"
>Chángjiāng </text>

<text 
x="553" 
y="690" 
dx="0,0" 
class="s6_351"
>pn</text>

<text 
x="619" 
y="689" 
dx="0,-1.2,0,0,0,0,0,0,0,0,0,-0.4,0" 
class="s7_351"
>Yangtze River</text>

<text 
x="809" 
y="690" 
dx="0,0" 
class="s8_351"
>10</text>

<text 
x="61" 
y="734" 
dx="0,0" 
class="s3_351"
>吵架</text>

<text 
x="239" 
y="734" 
dx="0,0" 
class="s4_351"
>吵架</text>

<text 
x="418" 
y="731" 
dx="0,0.2,0.2,0.2,0.2,0.2,0.2,0.2" 
class="s9_351"
>chǎo jià</text>

<text 
x="553" 
y="732" 
dx="0,-0.4" 
class="s6_351"
>vo</text>

<text 
x="619" 
y="731" 
dx="0,-0.2,0,0,0,0,0,0,-0.2,0" 
class="s7_351"
>to quarrel</text>

<text 
x="809" 
y="732" 
dx="0" 
class="s8_351"
>6</text>

<text 
x="61" 
y="776" 
dx="0,0" 
class="s3_351"
>迟到</text>

<text 
x="239" 
y="776" 
dx="0,0" 
class="s4_351"
>遲到</text>

<text 
x="418" 
y="773" 
dx="0,0.2,0.2,0.2,0.2,0.2" 
class="s9_351"
>chídào</text>

<text 
x="553" 
y="774" 
dx="0" 
class="s6_351"
>v</text>

<text 
x="619" 
y="774" 
dx="0,-0.2,0,0,0,0,0,0,-0.4,0,0,0,0,-0.2" 
class="s7_351"
>to arrive late</text>

<text 
x="809" 
y="774" 
dx="0" 
class="s8_351"
>7</text>

<text 
x="61" 
y="818" 
dx="0,0" 
class="s3_351"
>出生</text>

<text 
x="239" 
y="818" 
dx="0,0" 
class="s4_351"
>出生</text>

<text 
x="418" 
y="816" 
dx="0,0.2,0.2,0.2,0.2,0.2,0.2,0.2" 
class="s9_351"
>chūshēng</text>

<text 
x="553" 
y="816" 
dx="0" 
class="s6_351"
>v</text>

<text 
x="619" 
y="816" 
dx="0,-0.2,0,0,0,0,0,0,0,0" 
class="s7_351"
>to be born</text>

<text 
x="809" 
y="816" 
dx="0" 
class="s8_351"
>1</text>

<text 
x="61" 
y="860" 
dx="0" 
class="s3_351"
>船</text>

<text 
x="239" 
y="860" 
dx="0" 
class="s4_351"
>船</text>

<text 
x="418" 
y="858" 
dx="0,0.2,0.2,0.2,0.2" 
class="s9_351"
>chuán</text>

<text 
x="553" 
y="858" 
dx="0" 
class="s6_351"
>n</text>

<text 
x="619" 
y="858" 
dx="0,0,0,0,0,0,0,0,0,0" 
class="s7_351"
>boat, ship</text>

<text 
x="809" 
y="858" 
dx="0,0" 
class="s8_351"
>10</text>

<text 
x="61" 
y="904" 
dx="0,0" 
class="s3_351"
>纯棉</text>

<text 
x="239" 
y="904" 
dx="0,0" 
class="s4_351"
>純棉</text>

<text 
x="418" 
y="902" 
dx="0,0.2,0.2,0.2,0.2,0.2,0.2,0.2,0" 
class="s9_351"
>chúnmián </text>

<text 
x="553" 
y="902" 
dx="0,0,0" 
class="s6_351"
>adj</text>

<text 
x="619" 
y="892" 
dx="0,0,0,-0.2,0,0,0,0,0,-0.2,0,0,0,0,0,0,0,0" 
class="s7_351"
>pure cotton, one- </text>

<text 
x="619" 
y="912" 
dx="0,0,0,0,0,-0.2,0,0,0,0,0,-0.2,0,0,0,0,0,0,0,0,-0.2,0" 
class="s7_351"
>hundred-percent cotton</text>

<text 
x="809" 
y="902" 
dx="0" 
class="s8_351"
>4</text>

<text 
x="61" 
y="948" 
dx="0" 
class="s3_351"
>存</text>

<text 
x="239" 
y="948" 
dx="0" 
class="s4_351"
>存</text>

<text 
x="418" 
y="945" 
dx="0,0.2,0.2" 
class="s9_351"
>cún</text>

<text 
x="553" 
y="946" 
dx="0,0" 
class="s6_351"
>v </text>

<text 
x="619" 
y="945" 
dx="0,-0.2,0,0,0,0,0,0,0,0,0,0,0,-0.2,0,0,0,0,0,0,0,0,0,0,-0.2" 
class="s7_351"
>to deposit, to accumulate</text>

<text 
x="809" 
y="946" 
dx="0" 
class="s8_351"
>8</text>

<text 
x="453" 
y="991" 
dx="0" 
class="s10_351"
>D</text>

<text 
x="61" 
y="1034" 
dx="0,0" 
class="s3_351"
>答应</text>

<text 
x="239" 
y="1034" 
dx="0,0" 
class="s4_351"
>答應</text>

<text 
x="418" 
y="1031" 
dx="0,0.2,0.2,0.2,0.2,0.2" 
class="s9_351"
>dāying</text>

<text 
x="553" 
y="1032" 
dx="0,0" 
class="s6_351"
>v </text>

<text 
x="619" 
y="1021" 
dx="0,-0.2,0,0,0,0,-0.2,0,0,0,0,-0.2,0,0,0,0,0,0,0,0,0,0,0,0,0,0,0,0" 
class="s7_351"
>to agree (to do something), </text>

<text 
x="619" 
y="1041" 
dx="0,-0.2,0,0,0,-0.2,0,0,0,0,0,0,0,-0.2,0,0,0,0,0,0,0" 
class="s7_351"
>to promise, to answer</text>

<text 
x="809" 
y="1032" 
dx="0" 
class="s8_351"
>6</text>

<text 
x="61" 
y="1077" 
dx="0,0,0" 
class="s3_351"
>打交道</text>

<text 
x="239" 
y="1077" 
dx="0,0,0" 
class="s4_351"
>打交道</text>

<text 
x="418" 
y="1075" 
dx="0,0.2,0.2,0.2,0.2,0.2,0.2,0.2,0.2,0.2" 
class="s9_351"
>dǎ jiāodào</text>

<text 
x="553" 
y="1076" 
dx="0,-0.4" 
class="s6_351"
>vo</text>

<text 
x="619" 
y="1075" 
dx="0,-0.2,0,0,0,0,0,0,0,0,0,0" 
class="s7_351"
>to deal with</text>

<text 
x="809" 
y="1076" 
dx="0" 
class="s8_351"
>5</text>

<text 
x="55" 
y="1121" 
dx="0,0,0,-1.1,0,0,0,-0.4,0,0,0,0,0,0,0,0,0,0,0,-0.2,0,0,0,0,0,0,0,0,0,0,0,0,0,0,0,0,0" 
class="s11_351"
>* For vocabulary items starting with </text>

<text 
x="282" 
y="1121" 
dx="0" 
class="s3_351"
>不</text>

<text 
x="309" 
y="1121" 
dx="0,0" 
class="s11_351"
>or</text>

<text 
x="325" 
y="1121" 
dx="0" 
class="s3_351"
>一</text>

<text 
x="350" 
y="1121" 
dx="0,0,0,0,0,0,0,0,-0.4,0,0,0,0,0,0,0,0,0,0,0,0,0,0" 
class="s11_351"
>, we have included the </text>

<text 
x="493" 
y="1121" 
dx="0,0,0,0,0,0" 
class="s12_351"
>pinyin</text>

<text 
x="534" 
y="1121" 
dx="0,0,0,0,0,0,0,0,0,0,0,0,0,0,0,0,0,0,0,0,0,0,-0.2,0,0,0,0,-0.2,0,0,0,0,0,0,0,0,0,0,0,0,0,0,0,0,0,0,-0.2,0,0,0" 
class="s11_351"
>with the stand-alone tone of these two characters </text>

<text 
x="63" 
y="1141" 
dx="0,0,0,0,0,0,0,0,-0.2,0,0,0,0,0,0,-0.4,-0.1,0,0,0,0,0,0,0,0,-0.4,0,-1.1,0,0,0,0" 
class="s11_351"
>in square brackets. However, the</text>

<text 
x="272" 
y="1141" 
dx="0,0,0,0,0,0,0" 
class="s12_351"
>pinyin </text>

<text 
x="313" 
y="1141" 
dx="0,0,0,0,-0.2,0,0,0,0,0,0,0,0,0,0,0,0,0,0,0,-0.2,0,0,0,0,0,0,0,0,0,0,0,0,0,0,0,0,0,-0.2,0,0,0,0,0,-0.2,0,0,0,0,0,-0.4,0,0,0,0,0,0,0,0,0,0,0,0,-0.2,0,0,0,0,0,0,0,0,0,0,0,0,0,0,0,-0.2,0,0,0,0,0,0,0,0,0,0,0" 
class="s11_351"
>listed first indicates how the characters are conventionally pronounced as a lexical unit. </text>



<!-- Any embedded fonts defined here -->
<style type="text/css" ><![CDATA[

@font-face {
	font-family: GentiumBookBasic-Italic_462;
	src: url("fonts/GentiumBookBasic-Italic_462.woff") format("woff");
}

@font-face {
	font-family: GentiumBookBasic-Italic_3o-;
	src: url("fonts/GentiumBookBasic-Italic_3o-.woff") format("woff");
}

@font-face {
	font-family: LibreFranklin-Regular_45s;
	src: url("fonts/LibreFranklin-Regular_45s.woff") format("woff");
}

@font-face {
	font-family: STKaiTi-TC-Regular_3pl;
	src: url("fonts/STKaiTi-TC-Regular_3pl.woff") format("woff");
}

@font-face {
	font-family: LibreFranklin-SemiBold_45y;
	src: url("fonts/LibreFranklin-SemiBold_45y.woff") format("woff");
}

@font-face {
	font-family: STKaiti-SC-Regular_3pn;
	src: url("fonts/STKaiti-SC-Regular_3pn.woff") format("woff");
}

@font-face {
	font-family: LibreFranklin-Italic_461;
	src: url("fonts/LibreFranklin-Italic_461.woff") format("woff");
}

@font-face {
	font-family: LibreFranklin-Light_45u;
	src: url("fonts/LibreFranklin-Light_45u.woff") format("woff");
}

]]></style>

</svg>
