<?xml version="1.0" encoding="UTF-8" standalone="no"?>
<!DOCTYPE svg PUBLIC "-//W3C//DTD SVG 1.1//EN"
"http://www.w3.org/Graphics/SVG/1.1/DTD/svg11.dtd">


<!-- Page 227 -->
<svg x="0" y="0" width="921" height="1196" viewBox="0 0 921 1196" version="1.1" xmlns="http://www.w3.org/2000/svg" xmlns:xlink="http://www.w3.org/1999/xlink"
style="display: block;margin-left: auto;margin-right: auto;">
<defs>

<style type="text/css"><![CDATA[

.g1_227{
fill: none;
stroke: #472D8E;
stroke-width: 0.6248611;
stroke-linecap: butt;
stroke-linejoin: miter;
}
.g2_227{
fill: none;
stroke: #472D8E;
stroke-width: 1.8730555;
stroke-linecap: butt;
stroke-linejoin: miter;
}
.g3_227{
fill: none;
stroke: #A8A9AD;
stroke-width: 1.5277778;
stroke-linecap: butt;
stroke-linejoin: miter;
}
.g4_227{
fill: none;
stroke: #BDBEC1;
stroke-width: 0.38194445;
stroke-linecap: butt;
stroke-linejoin: miter;
}
.g5_227{
fill: #472D8E;
stroke: #B2B3B7;
stroke-width: 1.5277778;
stroke-linecap: butt;
stroke-linejoin: miter;
stroke-miterlimit: 4;
}

.s1_227{
font-size: 32.08px;
font-family: LibreFranklin-ExtraBold_3_n;
fill: #472D8E;
}
.s2_227{
font-size: 14.13px;
font-family: LibreFranklin-Bold_3_j;
fill: #472D8E;
}
.s3_227{
font-size: 13.75px;
font-family: LibreFranklin-SemiBold_3_w;
fill: #77787B;
}
.s4_227{
font-size: 25.97px;
font-family: STKaiti-SC-Regular_3pn;
fill: #472D8E;
}
.s5_227{
font-size: 25.97px;
font-family: STKaiTi-TC-Regular_3pl;
fill: #472D8E;
}
.s6_227{
font-size: 14.90px;
font-family: GentiumBookBasic-Italic_3o-;
fill: #3F3F40;
}
.s7_227{
font-size: 14.51px;
font-family: LibreFranklin-Regular_401;
fill: #3F3F40;
}
.s8_227{
font-size: 13.75px;
font-family: LibreFranklin-Regular_401;
fill: #3F3F40;
}
.s9_227{
font-size: 14.90px;
font-family: GentiumBookBasic-Italic_40b;
fill: #3F3F40;
}
.s10_227{
font-size: 11.08px;
font-family: LibreFranklin-SemiBold_3_w;
fill: #FFFFFF;
}

]]></style>

</defs>
<path d="M0,0
L0,1196
L921,1196
L921,0 Z " 
fill="#FFFFFF" stroke="none" />
<path d="M4.6,97.3l232.4,0" class="g1_227" />
<path d="M4.6,99.8l232.4,0" class="g2_227" />
<text 
x="59" 
y="85" 
dx="0,-2.4,0.3,0.3,0.3,0.3,0.3,0.3,0.3,0.3" 
class="s1_227"
>Vocabulary</text>

<path d="M117.6,162.6l40.9,0" class="g3_227" />
<path d="M158.5,162.6l161.8,0" class="g3_227" />
<path d="M320.3,162.6l161.8,0" class="g3_227" />
<path d="M482.1,162.6l120.3,0" class="g3_227" />
<path d="M602.4,162.6l66.7,0" class="g3_227" />
<path d="M669.1,162.6l189.1,0" class="g3_227" />
<path d="M117.6,1114.2l40.9,0" class="g3_227" />
<path d="M158.5,1114.2l161.8,0" class="g3_227" />
<path d="M320.3,1114.2l161.8,0" class="g3_227" />
<path d="M482.1,1114.2l120.3,0" class="g3_227" />
<path d="M602.4,1114.2l66.7,0" class="g3_227" />
<path d="M669.1,1114.2l189.1,0" class="g3_227" />
<path d="M117.6,208.4l40.9,0" class="g4_227" />
<path d="M158.5,208.4l161.8,0" class="g4_227" />
<path d="M320.3,208.4l161.8,0" class="g4_227" />
<path d="M482.1,208.4l120.3,0" class="g4_227" />
<path d="M602.4,208.4l66.7,0" class="g4_227" />
<path d="M669.1,208.4l189.1,0" class="g4_227" />
<path d="M117.6,254.2l40.9,0" class="g4_227" />
<path d="M158.5,254.2l161.8,0" class="g4_227" />
<path d="M320.3,254.2l161.8,0" class="g4_227" />
<path d="M482.1,254.2l120.3,0" class="g4_227" />
<path d="M602.4,254.2l66.7,0" class="g4_227" />
<path d="M669.1,254.2l189.1,0" class="g4_227" />
<path d="M117.6,306l40.9,0" class="g4_227" />
<path d="M158.5,306l161.8,0" class="g4_227" />
<path d="M320.3,306l161.8,0" class="g4_227" />
<path d="M482.1,306l120.3,0" class="g4_227" />
<path d="M602.4,306l66.7,0" class="g4_227" />
<path d="M669.1,306l189.1,0" class="g4_227" />
<path d="M117.6,351.9l40.9,0" class="g4_227" />
<path d="M158.5,351.9l161.8,0" class="g4_227" />
<path d="M320.3,351.9l161.8,0" class="g4_227" />
<path d="M482.1,351.9l120.3,0" class="g4_227" />
<path d="M602.4,351.9l66.7,0" class="g4_227" />
<path d="M669.1,351.9l189.1,0" class="g4_227" />
<path d="M117.6,397.7l40.9,0" class="g4_227" />
<path d="M158.5,397.7l161.8,0" class="g4_227" />
<path d="M320.3,397.7l161.8,0" class="g4_227" />
<path d="M482.1,397.7l120.3,0" class="g4_227" />
<path d="M602.4,397.7l66.7,0" class="g4_227" />
<path d="M669.1,397.7l189.1,0" class="g4_227" />
<path d="M117.6,443.5l40.9,0" class="g4_227" />
<path d="M158.5,443.5l161.8,0" class="g4_227" />
<path d="M320.3,443.5l161.8,0" class="g4_227" />
<path d="M482.1,443.5l120.3,0" class="g4_227" />
<path d="M602.4,443.5l66.7,0" class="g4_227" />
<path d="M669.1,443.5l189.1,0" class="g4_227" />
<path d="M117.6,489.4l40.9,0" class="g4_227" />
<path d="M158.5,489.4l161.8,0" class="g4_227" />
<path d="M320.3,489.4l161.8,0" class="g4_227" />
<path d="M482.1,489.4l120.3,0" class="g4_227" />
<path d="M602.4,489.4l66.7,0" class="g4_227" />
<path d="M669.1,489.4l189.1,0" class="g4_227" />
<path d="M117.6,535.2l40.9,0" class="g4_227" />
<path d="M158.5,535.2l161.8,0" class="g4_227" />
<path d="M320.3,535.2l161.8,0" class="g4_227" />
<path d="M482.1,535.2l120.3,0" class="g4_227" />
<path d="M602.4,535.2l66.7,0" class="g4_227" />
<path d="M669.1,535.2l189.1,0" class="g4_227" />
<path d="M117.6,581l40.9,0" class="g4_227" />
<path d="M158.5,581l161.8,0" class="g4_227" />
<path d="M320.3,581l161.8,0" class="g4_227" />
<path d="M482.1,581l120.3,0" class="g4_227" />
<path d="M602.4,581l66.7,0" class="g4_227" />
<path d="M669.1,581l189.1,0" class="g4_227" />
<path d="M117.6,626.9l40.9,0" class="g4_227" />
<path d="M158.5,626.9l161.8,0" class="g4_227" />
<path d="M320.3,626.9l161.8,0" class="g4_227" />
<path d="M482.1,626.9l120.3,0" class="g4_227" />
<path d="M602.4,626.9l66.7,0" class="g4_227" />
<path d="M669.1,626.9l189.1,0" class="g4_227" />
<path d="M117.6,672.7l40.9,0" class="g4_227" />
<path d="M158.5,672.7l161.8,0" class="g4_227" />
<path d="M320.3,672.7l161.8,0" class="g4_227" />
<path d="M482.1,672.7l120.3,0" class="g4_227" />
<path d="M602.4,672.7l66.7,0" class="g4_227" />
<path d="M669.1,672.7l189.1,0" class="g4_227" />
<path d="M117.6,718.5l40.9,0" class="g4_227" />
<path d="M158.5,718.5l161.8,0" class="g4_227" />
<path d="M320.3,718.5l161.8,0" class="g4_227" />
<path d="M482.1,718.5l120.3,0" class="g4_227" />
<path d="M602.4,718.5l66.7,0" class="g4_227" />
<path d="M669.1,718.5l189.1,0" class="g4_227" />
<path d="M117.6,764.4l40.9,0" class="g4_227" />
<path d="M158.5,764.4l161.8,0" class="g4_227" />
<path d="M320.3,764.4l161.8,0" class="g4_227" />
<path d="M482.1,764.4l120.3,0" class="g4_227" />
<path d="M602.4,764.4l66.7,0" class="g4_227" />
<path d="M669.1,764.4l189.1,0" class="g4_227" />
<path d="M117.6,810.2l40.9,0" class="g4_227" />
<path d="M158.5,810.2l161.8,0" class="g4_227" />
<path d="M320.3,810.2l161.8,0" class="g4_227" />
<path d="M482.1,810.2l120.3,0" class="g4_227" />
<path d="M602.4,810.2l66.7,0" class="g4_227" />
<path d="M669.1,810.2l189.1,0" class="g4_227" />
<path d="M117.6,862l40.9,0" class="g4_227" />
<path d="M158.5,862l161.8,0" class="g4_227" />
<path d="M320.3,862l161.8,0" class="g4_227" />
<path d="M482.1,862l120.3,0" class="g4_227" />
<path d="M602.4,862l66.7,0" class="g4_227" />
<path d="M669.1,862l189.1,0" class="g4_227" />
<path d="M117.6,907.8l40.9,0" class="g4_227" />
<path d="M158.5,907.8l161.8,0" class="g4_227" />
<path d="M320.3,907.8l161.8,0" class="g4_227" />
<path d="M482.1,907.8l120.3,0" class="g4_227" />
<path d="M602.4,907.8l66.7,0" class="g4_227" />
<path d="M669.1,907.8l189.1,0" class="g4_227" />
<path d="M117.6,953.6l40.9,0" class="g4_227" />
<path d="M158.5,953.6l161.8,0" class="g4_227" />
<path d="M320.3,953.6l161.8,0" class="g4_227" />
<path d="M482.1,953.6l120.3,0" class="g4_227" />
<path d="M602.4,953.6l66.7,0" class="g4_227" />
<path d="M669.1,953.6l189.1,0" class="g4_227" />
<path d="M117.6,999.5l40.9,0" class="g4_227" />
<path d="M158.5,999.5l161.8,0" class="g4_227" />
<path d="M320.3,999.5l161.8,0" class="g4_227" />
<path d="M482.1,999.5l120.3,0" class="g4_227" />
<path d="M602.4,999.5l66.7,0" class="g4_227" />
<path d="M669.1,999.5l189.1,0" class="g4_227" />
<path d="M117.6,1067.8l40.9,0" class="g4_227" />
<path d="M158.5,1067.8l161.8,0" class="g4_227" />
<path d="M320.3,1067.8l161.8,0" class="g4_227" />
<path d="M482.1,1067.8l120.3,0" class="g4_227" />
<path d="M602.4,1067.8l66.7,0" class="g4_227" />
<path d="M669.1,1067.8l189.1,0" class="g4_227" />
<text 
x="127" 
y="144" 
dx="0,0.3,0" 
class="s2_227"
>No.</text>

<text 
x="168" 
y="144" 
dx="0,0.3,0.3,0.3,0.3,0.3,0.3,0.3,0.3,0.3" 
class="s2_227"
>Simplified</text>

<text 
x="330" 
y="144" 
dx="0,-0.9,0.2,0.3,0.3,0.3,0.3,0.3,0.3,0.3,0.3" 
class="s2_227"
>Traditional</text>

<text 
x="491" 
y="144" 
dx="0,0.3,0.3,0.3,0.3,0.3" 
class="s2_227"
>Pinyin</text>

<text 
x="608" 
y="136" 
dx="0,0.3,0.3,0.3,0.3,0.3,0,0" 
class="s2_227"
>Part of </text>

<text 
x="608" 
y="152" 
dx="0,0.3,0.3,0.3,0.3,0.3" 
class="s2_227"
>Speech</text>

<text 
x="678" 
y="144" 
dx="0,0.3,0.3,0.3,0.3,0.3,0.3,0.3,0.3,0.3" 
class="s2_227"
>Definition</text>

<text 
x="127" 
y="192" 
dx="0" 
class="s3_227"
>1</text>

<text 
x="172" 
y="194" 
dx="0,0" 
class="s4_227"
>网络</text>

<text 
x="334" 
y="194" 
dx="0,0" 
class="s5_227"
>網絡</text>

<text 
x="495" 
y="192" 
dx="0,0.2,0.2,0.2,0.2,0.2,0.2" 
class="s6_227"
>wǎngluò</text>

<text 
x="612" 
y="192" 
dx="0" 
class="s7_227"
>n</text>

<text 
x="678" 
y="192" 
dx="0,0,-0.1,0,0,0,0,0,0,0,0,0,0,0,0,0,-0.2,0,0,0,-0.1" 
class="s8_227"
>network, the Internet</text>

<text 
x="127" 
y="237" 
dx="0" 
class="s3_227"
>2</text>

<text 
x="172" 
y="240" 
dx="0,0" 
class="s4_227"
>新闻</text>

<text 
x="334" 
y="240" 
dx="0,0" 
class="s5_227"
>新聞</text>

<text 
x="495" 
y="237" 
dx="0,0.2,0.2,0.2,0.2,0.2" 
class="s6_227"
>xīnwén</text>

<text 
x="612" 
y="238" 
dx="0" 
class="s7_227"
>n</text>

<text 
x="678" 
y="237" 
dx="0,0,0,0" 
class="s8_227"
>news</text>

<text 
x="127" 
y="286" 
dx="0" 
class="s3_227"
>3</text>

<text 
x="172" 
y="289" 
dx="0,0" 
class="s4_227"
>资料</text>

<text 
x="334" 
y="289" 
dx="0,0" 
class="s5_227"
>資料</text>

<text 
x="495" 
y="286" 
dx="0,0.2,0.2,0.2,0.2,0.2" 
class="s6_227"
>zīliào</text>

<text 
x="612" 
y="287" 
dx="0" 
class="s7_227"
>n</text>

<text 
x="678" 
y="278" 
dx="0,0,0,-0.2,0,0,0,0,0,0,0,-0.2,0,-0.3,0,-0.2,0,0,0,0,0" 
class="s8_227"
>material (reference, </text>

<text 
x="678" 
y="295" 
dx="0,0,0,0,0,0,0,0,0" 
class="s8_227"
>academic)</text>

<text 
x="127" 
y="335" 
dx="0" 
class="s3_227"
>4</text>

<text 
x="172" 
y="338" 
dx="0,0" 
class="s4_227"
>游戏</text>

<text 
x="334" 
y="338" 
dx="0,0" 
class="s5_227"
>遊戲</text>

<text 
x="495" 
y="335" 
dx="0,0.2,0.2,0.2,0.2" 
class="s9_227"
>yóuxì</text>

<text 
x="612" 
y="335" 
dx="0" 
class="s7_227"
>n</text>

<text 
x="678" 
y="335" 
dx="0,0,0,0" 
class="s8_227"
>game</text>

<text 
x="127" 
y="381" 
dx="0" 
class="s3_227"
>5</text>

<text 
x="172" 
y="384" 
dx="0,0" 
class="s4_227"
>网站</text>

<text 
x="334" 
y="384" 
dx="0,0" 
class="s5_227"
>網站</text>

<text 
x="495" 
y="381" 
dx="0,0.2,0.2,0.2,0.2,0.2,0.2,0.2" 
class="s6_227"
>wǎngzhàn</text>

<text 
x="612" 
y="381" 
dx="0" 
class="s7_227"
>n</text>

<text 
x="678" 
y="381" 
dx="0,0,0,0,0,0,-0.2" 
class="s8_227"
>website</text>

<text 
x="127" 
y="427" 
dx="0" 
class="s3_227"
>6</text>

<text 
x="172" 
y="429" 
dx="0,0" 
class="s4_227"
>博客</text>

<text 
x="334" 
y="429" 
dx="0,0" 
class="s5_227"
>博客</text>

<text 
x="495" 
y="427" 
dx="0,0.2,0.2,0.2" 
class="s9_227"
>bókè</text>

<text 
x="612" 
y="427" 
dx="0" 
class="s7_227"
>n</text>

<text 
x="678" 
y="427" 
dx="0,0,0,0" 
class="s8_227"
>blog</text>

<text 
x="127" 
y="473" 
dx="0" 
class="s3_227"
>7</text>

<text 
x="172" 
y="475" 
dx="0,0" 
class="s4_227"
>离开</text>

<text 
x="334" 
y="475" 
dx="0,0" 
class="s5_227"
>離開</text>

<text 
x="495" 
y="472" 
dx="0,0.2,0.2,0.2,0.2,0.2" 
class="s6_227"
>lí kāi</text>

<text 
x="612" 
y="473" 
dx="0,-0.4" 
class="s7_227"
>vc</text>

<text 
x="678" 
y="473" 
dx="0,-0.2,0,0,0,0,0,-0.4,0,0,0,-0.2,0,0,0,0,0,0,0,0,0,0,-0.2,0" 
class="s8_227"
>to leave, to depart from</text>

<text 
x="127" 
y="518" 
dx="0" 
class="s3_227"
>8</text>

<text 
x="172" 
y="521" 
dx="0,0,0,0" 
class="s4_227"
>卡拉OK</text>

<text 
x="334" 
y="521" 
dx="0,0,0,0" 
class="s5_227"
>卡拉OK</text>

<text 
x="495" 
y="518" 
dx="0,0.2,0.2,0.2,0.2,0.2,0.2,0.2,0.2,0.2" 
class="s6_227"
>kǎlā ōukēi</text>

<text 
x="612" 
y="519" 
dx="0" 
class="s7_227"
>n</text>

<text 
x="678" 
y="518" 
dx="0,0,0,0,0,0,-0.4" 
class="s8_227"
>karaoke</text>

<text 
x="127" 
y="564" 
dx="0" 
class="s3_227"
>9</text>

<text 
x="172" 
y="567" 
dx="0,0" 
class="s4_227"
>急忙</text>

<text 
x="334" 
y="567" 
dx="0,0" 
class="s5_227"
>急忙</text>

<text 
x="495" 
y="564" 
dx="0,0.2,0.2,0.2,0.2,0.2" 
class="s9_227"
>jímáng</text>

<text 
x="612" 
y="565" 
dx="0,0,0" 
class="s7_227"
>adv</text>

<text 
x="678" 
y="564" 
dx="0,0,0,0,0,0,0,-0.9,0,0,0,0,0,0,0,0,0,0,0" 
class="s8_227"
>hastily, in a hurry</text>

<text 
x="127" 
y="610" 
dx="0,-0.8" 
class="s3_227"
>10</text>

<text 
x="172" 
y="613" 
dx="0,0" 
class="s4_227"
>下载</text>

<text 
x="334" 
y="613" 
dx="0,0" 
class="s5_227"
>下載</text>

<text 
x="495" 
y="610" 
dx="0,0.2,0.2,0.2,0.2,0.2" 
class="s9_227"
>xiàzài</text>

<text 
x="612" 
y="610" 
dx="0" 
class="s7_227"
>v</text>

<text 
x="678" 
y="610" 
dx="0,-0.2,0,0,0,0,0,0,0,0,0" 
class="s8_227"
>to download</text>

<text 
x="127" 
y="656" 
dx="0,-0.4" 
class="s3_227"
>11</text>

<text 
x="172" 
y="659" 
dx="0,0" 
class="s4_227"
>软件</text>

<text 
x="334" 
y="659" 
dx="0,0" 
class="s5_227"
>軟件</text>

<text 
x="495" 
y="656" 
dx="0,0.2,0.2,0.2,0.2,0.2,0.2,0.2" 
class="s6_227"
>ruǎnjiàn</text>

<text 
x="612" 
y="656" 
dx="0" 
class="s7_227"
>n</text>

<text 
x="678" 
y="656" 
dx="0,0,-0.2,0,0,0,0,-0.2" 
class="s8_227"
>software</text>

<text 
x="127" 
y="702" 
dx="0,-0.3" 
class="s3_227"
>12</text>

<text 
x="172" 
y="704" 
dx="0,0" 
class="s4_227"
>结果</text>

<text 
x="334" 
y="704" 
dx="0,0" 
class="s5_227"
>結果</text>

<text 
x="495" 
y="702" 
dx="0,0.2,0.2,0.2,0.2,0.2" 
class="s6_227"
>jiéguǒ</text>

<text 
x="612" 
y="702" 
dx="0,0,0,0,0,0" 
class="s7_227"
>conj/n</text>

<text 
x="678" 
y="702" 
dx="0,0,0,0,0,0,-0.2,0,0,0,0,0,0,0,-0.2,0,0,0,0" 
class="s8_227"
>as a result; result</text>

<text 
x="127" 
y="748" 
dx="0,-0.3" 
class="s3_227"
>13</text>

<text 
x="172" 
y="750" 
dx="0,0" 
class="s4_227"
>杂志</text>

<text 
x="334" 
y="750" 
dx="0,0" 
class="s5_227"
>雜誌</text>

<text 
x="495" 
y="747" 
dx="0,0.2,0.2,0.2,0.2" 
class="s6_227"
>zázhì</text>

<text 
x="612" 
y="748" 
dx="0" 
class="s7_227"
>n</text>

<text 
x="678" 
y="748" 
dx="0,0,0,0,0,0,0,0" 
class="s8_227"
>magazine</text>

<text 
x="127" 
y="793" 
dx="0,-0.7" 
class="s3_227"
>14</text>

<text 
x="172" 
y="796" 
dx="0,0" 
class="s4_227"
>垃圾</text>

<text 
x="334" 
y="796" 
dx="0,0" 
class="s5_227"
>垃圾</text>

<text 
x="495" 
y="793" 
dx="0,0.2,0.2,0.2" 
class="s6_227"
>lājī</text>

<text 
x="612" 
y="794" 
dx="0" 
class="s7_227"
>n</text>

<text 
x="678" 
y="793" 
dx="0,0,0,0,0,0,-0.1,0,0,0,0,0,0,0" 
class="s8_227"
>garbage, trash</text>

<text 
x="127" 
y="842" 
dx="0,-0.3" 
class="s3_227"
>15</text>

<text 
x="172" 
y="845" 
dx="0,0" 
class="s4_227"
>落伍</text>

<text 
x="334" 
y="845" 
dx="0,0" 
class="s5_227"
>落伍</text>

<text 
x="495" 
y="842" 
dx="0,0.2,0.2,0.2,0.2" 
class="s6_227"
>luòwǔ</text>

<text 
x="612" 
y="843" 
dx="0" 
class="s7_227"
>v</text>

<text 
x="678" 
y="834" 
dx="0,-0.2,0,0,0,0,0,0,0,0,0,0,0,0,0" 
class="s8_227"
>to lag behind, </text>

<text 
x="678" 
y="850" 
dx="0,-0.2,0,0,0,0,0,0,0,-0.2,0,0,-0.2,0" 
class="s8_227"
>to be outdated</text>

<text 
x="127" 
y="891" 
dx="0,-0.8" 
class="s3_227"
>16</text>

<text 
x="172" 
y="894" 
dx="0,0" 
class="s4_227"
>可靠</text>

<text 
x="334" 
y="894" 
dx="0,0" 
class="s5_227"
>可靠</text>

<text 
x="495" 
y="891" 
dx="0,0.2,0.2,0.2,0.2" 
class="s6_227"
>kěkào</text>

<text 
x="612" 
y="891" 
dx="0,0,0" 
class="s7_227"
>adj</text>

<text 
x="678" 
y="891" 
dx="0,0,0,0,0,0,0,0,0,0,0" 
class="s8_227"
>dependable </text>

<text 
x="127" 
y="937" 
dx="0,-1" 
class="s3_227"
>17</text>

<text 
x="172" 
y="940" 
dx="0,0" 
class="s4_227"
>有用</text>

<text 
x="334" 
y="940" 
dx="0,0" 
class="s5_227"
>有用</text>

<text 
x="495" 
y="937" 
dx="0,0.2,0.2,0.2,0.2,0.2,0.2" 
class="s6_227"
>yǒuyòng</text>

<text 
x="612" 
y="937" 
dx="0,0,0" 
class="s7_227"
>adj</text>

<text 
x="678" 
y="937" 
dx="0,0,0,0,0,0" 
class="s8_227"
>useful</text>

<text 
x="127" 
y="983" 
dx="0,-0.5" 
class="s3_227"
>18</text>

<text 
x="172" 
y="985" 
dx="0,0" 
class="s4_227"
>外卖</text>

<text 
x="334" 
y="985" 
dx="0,0" 
class="s5_227"
>外賣</text>

<text 
x="495" 
y="983" 
dx="0,0.2,0.2,0.2,0.2,0.2" 
class="s9_227"
>wàimài</text>

<text 
x="612" 
y="983" 
dx="0" 
class="s7_227"
>n</text>

<text 
x="678" 
y="983" 
dx="0,0,0,-0.4,0,0,0" 
class="s8_227"
>takeout</text>

<text 
x="127" 
y="1040" 
dx="0,-0.6" 
class="s3_227"
>19</text>

<text 
x="172" 
y="1042" 
dx="0,0,0,0" 
class="s4_227"
>衣食住行</text>

<text 
x="334" 
y="1042" 
dx="0,0,0,0" 
class="s5_227"
>衣食住行</text>

<text 
x="495" 
y="1040" 
dx="0,0.2,0.2,0.2,0.2,0.2,0.2,0.2,0.2,0.2,0.2,0.2,0.2,0.2,0.2" 
class="s6_227"
>yī shí zhù xíng</text>

<text 
x="678" 
y="1023" 
dx="0,0,0,0,0,0,0,0,0,0,0,0,0,0,0,0,0,0,0,-0.2,0,0,0,0,-0.3,0,0,0,0,0,0,0" 
class="s8_227"
>basic necessities of life (lit. </text>

<text 
x="678" 
y="1040" 
dx="0,-0.3,0,0,0,0,0,0,0,-0.1,0,0,0,0,0,0,0,0,0,0,0,-0.2,0,-1.1,0,0,0,0,0" 
class="s8_227"
>food, clothing, shelter, and </text>

<text 
x="678" 
y="1056" 
dx="0,0,0,0,0,0,0,0,0,0,0,0,0,0,0" 
class="s8_227"
>transportation)</text>

<text 
x="127" 
y="1097" 
dx="0,-0.6" 
class="s3_227"
>20</text>

<text 
x="172" 
y="1100" 
dx="0,0" 
class="s4_227"
>迟到</text>

<text 
x="334" 
y="1100" 
dx="0,0" 
class="s5_227"
>遲到</text>

<text 
x="495" 
y="1097" 
dx="0,0.2,0.2,0.2,0.2,0.2" 
class="s6_227"
>chídào</text>

<text 
x="612" 
y="1097" 
dx="0" 
class="s7_227"
>v</text>

<text 
x="678" 
y="1097" 
dx="0,-0.2,0,0,0,0,0,0,-0.4,0,0,0,0,-0.2" 
class="s8_227"
>to arrive late</text>

<path d="M-14,1209.2l54.5,0l0,-1222.1l-54.5,0l0,1222.1Z" class="g5_227" />
<text 
transform="matrix(0, -1, 1, 0, 31, 1173)"
dx="0,1,1,1" 
class="s10_227"
>204 </text>

<text 
transform="matrix(0, -1, 1, 0, 31, 1128)"
dx="0,1,1,0.8,1,1,0.9,1,0.8,1,1,1,1,1,1,1,1,1,1,1,1" 
class="s10_227"
>Integrated Chinese 3 </text>

<text 
transform="matrix(0, -1, 1, 0, 31, 988)"
dx="0,1" 
class="s10_227"
>| </text>

<text 
transform="matrix(0, -1, 1, 0, 31, 974)"
dx="0,-0.2,0.7,0.7,1,1,1,1" 
class="s10_227"
>Textbook</text>



<!-- Any embedded fonts defined here -->
<style type="text/css" ><![CDATA[

@font-face {
	font-family: GentiumBookBasic-Italic_3o-;
	src: url("fonts/GentiumBookBasic-Italic_3o-.woff") format("woff");
}

@font-face {
	font-family: LibreFranklin-Regular_401;
	src: url("fonts/LibreFranklin-Regular_401.woff") format("woff");
}

@font-face {
	font-family: LibreFranklin-Bold_3_j;
	src: url("fonts/LibreFranklin-Bold_3_j.woff") format("woff");
}

@font-face {
	font-family: STKaiTi-TC-Regular_3pl;
	src: url("fonts/STKaiTi-TC-Regular_3pl.woff") format("woff");
}

@font-face {
	font-family: GentiumBookBasic-Italic_40b;
	src: url("fonts/GentiumBookBasic-Italic_40b.woff") format("woff");
}

@font-face {
	font-family: LibreFranklin-ExtraBold_3_n;
	src: url("fonts/LibreFranklin-ExtraBold_3_n.woff") format("woff");
}

@font-face {
	font-family: STKaiti-SC-Regular_3pn;
	src: url("fonts/STKaiti-SC-Regular_3pn.woff") format("woff");
}

@font-face {
	font-family: LibreFranklin-SemiBold_3_w;
	src: url("fonts/LibreFranklin-SemiBold_3_w.woff") format("woff");
}

]]></style>

</svg>
