<?xml version="1.0" encoding="UTF-8" standalone="no"?>
<!DOCTYPE svg PUBLIC "-//W3C//DTD SVG 1.1//EN"
"http://www.w3.org/Graphics/SVG/1.1/DTD/svg11.dtd">


<!-- Page 364 -->
<svg x="0" y="0" width="921" height="1196" viewBox="0 0 921 1196" version="1.1" xmlns="http://www.w3.org/2000/svg" xmlns:xlink="http://www.w3.org/1999/xlink"
style="display: block;margin-left: auto;margin-right: auto;">
<defs>

<style type="text/css"><![CDATA[

.g1_364{
fill: #57585A;
stroke: #B2B3B7;
stroke-width: 1.5277778;
stroke-linecap: butt;
stroke-linejoin: miter;
stroke-miterlimit: 4;
}
.g2_364{
fill: #F0F1F2;
}
.g3_364{
fill: none;
stroke: #BDBEC1;
stroke-width: 1.5277778;
stroke-linecap: butt;
stroke-linejoin: miter;
}
.g4_364{
fill: none;
stroke: #BDBEC1;
stroke-width: 0.38194445;
stroke-linecap: butt;
stroke-linejoin: miter;
}
.g5_364{
fill: none;
stroke: #DADBDD;
stroke-width: 1.5277778;
stroke-linecap: butt;
stroke-linejoin: miter;
}

.s1_364{
font-size: 10.69px;
font-family: LibreFranklin-SemiBold_45y;
fill: #FFFFFF;
}
.s2_364{
font-size: 14.51px;
font-family: LibreFranklin-SemiBold_45y;
fill: #57585A;
}
.s3_364{
font-size: 24.44px;
font-family: STKaiti-SC-Regular_3pn;
fill: #57585A;
}
.s4_364{
font-size: 24.44px;
font-family: STKaiTi-TC-Regular_3pl;
fill: #57585A;
}
.s5_364{
font-size: 14.90px;
font-family: GentiumBookBasic-Italic_3o-;
fill: #3F3F40;
}
.s6_364{
font-size: 14.51px;
font-family: LibreFranklin-Regular_45s;
fill: #3F3F40;
}
.s7_364{
font-size: 13.75px;
font-family: LibreFranklin-Light_45u;
fill: #3F3F40;
}
.s8_364{
font-size: 14.51px;
font-family: LibreFranklin-SemiBold_45y;
fill: #77787B;
}

]]></style>

</defs>
<path d="M0,0
L0,1196
L921,1196
L921,0 Z " 
fill="#FFFFFF" stroke="none" />
<path d="M879.5,1220.7l64.9,0l0,-1247.3l-64.9,0l0,1247.3Z" class="g1_364" />
<text 
transform="matrix(0, 1, -1, 0, 888, 874)"
dx="0,-0.1,0.6,0.6,0.6,0.6,0.6,0.6,0.6,0.6,0.6,0.6,0.6,0.6,0.6,0.4,0.6,0.6,0.6,0.6,0.6,0.6,0.6,0.6,0.6,0.6,0.6,0.6,0.6,0.6,0.6,0.6,0.6,0.6,0.6,0.6,0.6,-0.1,0.6,0.6,0.6,0.6,0.6,0.6,0.6" 
class="s1_364"
>Vocabulary Index (Chinese-English), Volume 3 </text>

<text 
transform="matrix(0, 1, -1, 0, 888, 1152)"
dx="0,0.6,0.6" 
class="s1_364"
>341</text>

<path d="M55,101.1l178.8,0l0,42.7L55,143.8l0,-42.7Zm178.8,0l178.7,0l0,42.7l-178.7,0l0,-42.7Zm178.7,0l135.2,0l0,42.7l-135.2,0l0,-42.7Zm135.2,0l66.1,0l0,42.7l-66.1,0l0,-42.7Zm66.1,0l189.2,0l0,42.7l-189.2,0l0,-42.7Zm189.2,0l63.3,0l0,42.7l-63.3,0l0,-42.7ZM55,186l178.8,0l0,42.2L55,228.2L55,186Zm178.8,0l178.7,0l0,42.2l-178.7,0l0,-42.2Zm178.7,0l135.2,0l0,42.2l-135.2,0l0,-42.2Zm135.2,0l66.1,0l0,42.2l-66.1,0l0,-42.2Zm66.1,0L803,186l0,42.2l-189.2,0l0,-42.2ZM803,186l63.3,0l0,42.2l-63.3,0L803,186ZM55,270.3l178.8,0l0,42.2L55,312.5l0,-42.2Zm178.8,0l178.7,0l0,42.2l-178.7,0l0,-42.2Zm178.7,0l135.2,0l0,42.2l-135.2,0l0,-42.2Zm135.2,0l66.1,0l0,42.2l-66.1,0l0,-42.2Zm66.1,0l189.2,0l0,42.2l-189.2,0l0,-42.2Zm189.2,0l63.3,0l0,42.2l-63.3,0l0,-42.2ZM55,354.7l178.8,0l0,42.1L55,396.8l0,-42.1Zm178.8,0l178.7,0l0,42.1l-178.7,0l0,-42.1Zm178.7,0l135.2,0l0,42.1l-135.2,0l0,-42.1Zm135.2,0l66.1,0l0,42.1l-66.1,0l0,-42.1Zm66.1,0l189.2,0l0,42.1l-189.2,0l0,-42.1Zm189.2,0l63.3,0l0,42.1l-63.3,0l0,-42.1ZM55,439l178.8,0l0,42.1L55,481.1L55,439Zm178.8,0l178.7,0l0,42.1l-178.7,0l0,-42.1Zm178.7,0l135.2,0l0,42.1l-135.2,0l0,-42.1Zm135.2,0l66.1,0l0,42.1l-66.1,0l0,-42.1Zm66.1,0L803,439l0,42.1l-189.2,0l0,-42.1ZM803,439l63.3,0l0,42.1l-63.3,0L803,439ZM55,523.3l178.8,0l0,45.4L55,568.7l0,-45.4Zm178.8,0l178.7,0l0,45.4l-178.7,0l0,-45.4Zm178.7,0l135.2,0l0,45.4l-135.2,0l0,-45.4Zm135.2,0l66.1,0l0,45.4l-66.1,0l0,-45.4Zm66.1,0l189.2,0l0,45.4l-189.2,0l0,-45.4Zm189.2,0l63.3,0l0,45.4l-63.3,0l0,-45.4ZM55,610.8l178.8,0l0,42.2L55,653l0,-42.2Zm178.8,0l178.7,0l0,42.2l-178.7,0l0,-42.2Zm178.7,0l135.2,0l0,42.2l-135.2,0l0,-42.2Zm135.2,0l66.1,0l0,42.2l-66.1,0l0,-42.2Zm66.1,0l189.2,0l0,42.2l-189.2,0l0,-42.2Zm189.2,0l63.3,0l0,42.2L803,653l0,-42.2ZM55,695.2l178.8,0l0,42.1L55,737.3l0,-42.1Zm178.8,0l178.7,0l0,42.1l-178.7,0l0,-42.1Zm178.7,0l135.2,0l0,42.1l-135.2,0l0,-42.1Zm135.2,0l66.1,0l0,42.1l-66.1,0l0,-42.1Zm66.1,0l189.2,0l0,42.1l-189.2,0l0,-42.1Zm189.2,0l63.3,0l0,42.1l-63.3,0l0,-42.1ZM55,782.7l178.8,0l0,42.2L55,824.9l0,-42.2Zm178.8,0l178.7,0l0,42.2l-178.7,0l0,-42.2Zm178.7,0l135.2,0l0,42.2l-135.2,0l0,-42.2Zm135.2,0l66.1,0l0,42.2l-66.1,0l0,-42.2Zm66.1,0l189.2,0l0,42.2l-189.2,0l0,-42.2Zm189.2,0l63.3,0l0,42.2l-63.3,0l0,-42.2ZM55,867l178.8,0l0,42.2L55,909.2L55,867Zm178.8,0l178.7,0l0,42.2l-178.7,0l0,-42.2Zm178.7,0l135.2,0l0,42.2l-135.2,0l0,-42.2Zm135.2,0l66.1,0l0,42.2l-66.1,0l0,-42.2Zm66.1,0L803,867l0,42.2l-189.2,0l0,-42.2ZM803,867l63.3,0l0,42.2l-63.3,0L803,867Z" class="g2_364" />
<path d="M55,955.1l178.8,0" class="g3_364" />
<path d="M233.8,955.1l178.7,0" class="g3_364" />
<path d="M412.5,955.1l135.2,0" class="g3_364" />
<path d="M547.7,955.1l66.1,0" class="g3_364" />
<path d="M613.8,955.1l189.2,0" class="g3_364" />
<path d="M803,955.1l63.3,0" class="g3_364" />
<path d="M55,143.8l178.8,0" class="g4_364" />
<path d="M233.8,143.8l178.7,0" class="g4_364" />
<path d="M412.5,143.8l135.2,0" class="g4_364" />
<path d="M547.7,143.8l66.1,0" class="g4_364" />
<path d="M613.8,143.8l189.2,0" class="g4_364" />
<path d="M803,143.8l63.3,0" class="g4_364" />
<path d="M55,186l178.8,0" class="g4_364" />
<path d="M233.8,186l178.7,0" class="g4_364" />
<path d="M412.5,186l135.2,0" class="g4_364" />
<path d="M547.7,186l66.1,0" class="g4_364" />
<path d="M613.8,186L803,186" class="g4_364" />
<path d="M803,186l63.3,0" class="g4_364" />
<path d="M55,228.2l178.8,0" class="g4_364" />
<path d="M233.8,228.2l178.7,0" class="g4_364" />
<path d="M412.5,228.2l135.2,0" class="g4_364" />
<path d="M547.7,228.2l66.1,0" class="g4_364" />
<path d="M613.8,228.2l189.2,0" class="g4_364" />
<path d="M803,228.2l63.3,0" class="g4_364" />
<path d="M55,270.3l178.8,0" class="g4_364" />
<path d="M233.8,270.3l178.7,0" class="g4_364" />
<path d="M412.5,270.3l135.2,0" class="g4_364" />
<path d="M547.7,270.3l66.1,0" class="g4_364" />
<path d="M613.8,270.3l189.2,0" class="g4_364" />
<path d="M803,270.3l63.3,0" class="g4_364" />
<path d="M55,312.5l178.8,0" class="g4_364" />
<path d="M233.8,312.5l178.7,0" class="g4_364" />
<path d="M412.5,312.5l135.2,0" class="g4_364" />
<path d="M547.7,312.5l66.1,0" class="g4_364" />
<path d="M613.8,312.5l189.2,0" class="g4_364" />
<path d="M803,312.5l63.3,0" class="g4_364" />
<path d="M55,354.7l178.8,0" class="g4_364" />
<path d="M233.8,354.7l178.7,0" class="g4_364" />
<path d="M412.5,354.7l135.2,0" class="g4_364" />
<path d="M547.7,354.7l66.1,0" class="g4_364" />
<path d="M613.8,354.7l189.2,0" class="g4_364" />
<path d="M803,354.7l63.3,0" class="g4_364" />
<path d="M55,396.8l178.8,0" class="g4_364" />
<path d="M233.8,396.8l178.7,0" class="g4_364" />
<path d="M412.5,396.8l135.2,0" class="g4_364" />
<path d="M547.7,396.8l66.1,0" class="g4_364" />
<path d="M613.8,396.8l189.2,0" class="g4_364" />
<path d="M803,396.8l63.3,0" class="g4_364" />
<path d="M55,439l178.8,0" class="g4_364" />
<path d="M233.8,439l178.7,0" class="g4_364" />
<path d="M412.5,439l135.2,0" class="g4_364" />
<path d="M547.7,439l66.1,0" class="g4_364" />
<path d="M613.8,439L803,439" class="g4_364" />
<path d="M803,439l63.3,0" class="g4_364" />
<path d="M55,481.1l178.8,0" class="g4_364" />
<path d="M233.8,481.1l178.7,0" class="g4_364" />
<path d="M412.5,481.1l135.2,0" class="g4_364" />
<path d="M547.7,481.1l66.1,0" class="g4_364" />
<path d="M613.8,481.1l189.2,0" class="g4_364" />
<path d="M803,481.1l63.3,0" class="g4_364" />
<path d="M55,523.3l178.8,0" class="g4_364" />
<path d="M233.8,523.3l178.7,0" class="g4_364" />
<path d="M412.5,523.3l135.2,0" class="g4_364" />
<path d="M547.7,523.3l66.1,0" class="g4_364" />
<path d="M613.8,523.3l189.2,0" class="g4_364" />
<path d="M803,523.3l63.3,0" class="g4_364" />
<path d="M55,568.7l178.8,0" class="g4_364" />
<path d="M233.8,568.7l178.7,0" class="g4_364" />
<path d="M412.5,568.7l135.2,0" class="g4_364" />
<path d="M547.7,568.7l66.1,0" class="g4_364" />
<path d="M613.8,568.7l189.2,0" class="g4_364" />
<path d="M803,568.7l63.3,0" class="g4_364" />
<path d="M55,610.8l178.8,0" class="g4_364" />
<path d="M233.8,610.8l178.7,0" class="g4_364" />
<path d="M412.5,610.8l135.2,0" class="g4_364" />
<path d="M547.7,610.8l66.1,0" class="g4_364" />
<path d="M613.8,610.8l189.2,0" class="g4_364" />
<path d="M803,610.8l63.3,0" class="g4_364" />
<path d="M55,653l178.8,0" class="g4_364" />
<path d="M233.8,653l178.7,0" class="g4_364" />
<path d="M412.5,653l135.2,0" class="g4_364" />
<path d="M547.7,653l66.1,0" class="g4_364" />
<path d="M613.8,653L803,653" class="g4_364" />
<path d="M803,653l63.3,0" class="g4_364" />
<path d="M55,695.2l178.8,0" class="g4_364" />
<path d="M233.8,695.2l178.7,0" class="g4_364" />
<path d="M412.5,695.2l135.2,0" class="g4_364" />
<path d="M547.7,695.2l66.1,0" class="g4_364" />
<path d="M613.8,695.2l189.2,0" class="g4_364" />
<path d="M803,695.2l63.3,0" class="g4_364" />
<path d="M55,737.3l178.8,0" class="g4_364" />
<path d="M233.8,737.3l178.7,0" class="g4_364" />
<path d="M412.5,737.3l135.2,0" class="g4_364" />
<path d="M547.7,737.3l66.1,0" class="g4_364" />
<path d="M613.8,737.3l189.2,0" class="g4_364" />
<path d="M803,737.3l63.3,0" class="g4_364" />
<path d="M55,782.7l178.8,0" class="g4_364" />
<path d="M233.8,782.7l178.7,0" class="g4_364" />
<path d="M412.5,782.7l135.2,0" class="g4_364" />
<path d="M547.7,782.7l66.1,0" class="g4_364" />
<path d="M613.8,782.7l189.2,0" class="g4_364" />
<path d="M803,782.7l63.3,0" class="g4_364" />
<path d="M55,824.9l178.8,0" class="g4_364" />
<path d="M233.8,824.9l178.7,0" class="g4_364" />
<path d="M412.5,824.9l135.2,0" class="g4_364" />
<path d="M547.7,824.9l66.1,0" class="g4_364" />
<path d="M613.8,824.9l189.2,0" class="g4_364" />
<path d="M803,824.9l63.3,0" class="g4_364" />
<path d="M55,867l178.8,0" class="g4_364" />
<path d="M233.8,867l178.7,0" class="g4_364" />
<path d="M412.5,867l135.2,0" class="g4_364" />
<path d="M547.7,867l66.1,0" class="g4_364" />
<path d="M613.8,867L803,867" class="g4_364" />
<path d="M803,867l63.3,0" class="g4_364" />
<path d="M55,909.2l178.8,0" class="g4_364" />
<path d="M233.8,909.2l178.7,0" class="g4_364" />
<path d="M412.5,909.2l135.2,0" class="g4_364" />
<path d="M547.7,909.2l66.1,0" class="g4_364" />
<path d="M613.8,909.2l189.2,0" class="g4_364" />
<path d="M803,909.2l63.3,0" class="g4_364" />
<path d="M55,101.1l178.8,0" class="g5_364" />
<path d="M233.8,101.1l178.7,0" class="g5_364" />
<path d="M412.5,101.1l135.2,0" class="g5_364" />
<path d="M547.7,101.1l66.1,0" class="g5_364" />
<path d="M613.8,101.1l189.2,0" class="g5_364" />
<path d="M803,101.1l63.3,0" class="g5_364" />
<text 
x="61" 
y="85" 
dx="0,0,0,0,0,0,0,0,0,0" 
class="s2_364"
>Simplified</text>

<text 
x="239" 
y="85" 
dx="0,-1.2,-0.1,0,0,0,0,0,0,0,0" 
class="s2_364"
>Traditional</text>

<text 
x="418" 
y="85" 
dx="0,0,0,0,0,0" 
class="s2_364"
>Pinyin</text>

<text 
x="553" 
y="75" 
dx="0,0,0,0,0,0,-0.2,0" 
class="s2_364"
>Part of </text>

<text 
x="553" 
y="94" 
dx="0,0,0,0,0,0" 
class="s2_364"
>Speech</text>

<text 
x="619" 
y="85" 
dx="0,0,0,0,0,0,0" 
class="s2_364"
>English</text>

<text 
x="809" 
y="85" 
dx="0,0,0,0,0,0" 
class="s2_364"
>Lesson</text>

<text 
x="61" 
y="131" 
dx="0,0,0" 
class="s3_364"
>张天明</text>

<text 
x="239" 
y="131" 
dx="0,0,0" 
class="s4_364"
>張天明</text>

<text 
x="418" 
y="129" 
dx="0,0.2,0.2,0.2,0.2,0.2,0.2,0.2,0.2,0.2,0.2,0.2,0.2,0.2,0" 
class="s5_364"
>Zhāng Tiānmíng </text>

<text 
x="553" 
y="129" 
dx="0,0" 
class="s6_364"
>pn</text>

<text 
x="619" 
y="129" 
dx="0,0,0,0,0,0,0,0,0,0,0,0,0,0,0,0,0" 
class="s7_364"
>(a personal name)</text>

<text 
x="809" 
y="129" 
dx="0" 
class="s8_364"
>1</text>

<text 
x="61" 
y="173" 
dx="0,0" 
class="s3_364"
>着急</text>

<text 
x="239" 
y="173" 
dx="0,0" 
class="s4_364"
>著急</text>

<text 
x="418" 
y="171" 
dx="0,0.2,0.2,0.2,0.2,0.2" 
class="s5_364"
>zháojí</text>

<text 
x="553" 
y="171" 
dx="0" 
class="s6_364"
>v</text>

<text 
x="619" 
y="171" 
dx="0,-0.2,0,0,0,0,0,0" 
class="s7_364"
>to worry</text>

<text 
x="809" 
y="171" 
dx="0" 
class="s8_364"
>2</text>

<text 
x="61" 
y="215" 
dx="0,0" 
class="s3_364"
>哲学</text>

<text 
x="239" 
y="215" 
dx="0,0" 
class="s4_364"
>哲學</text>

<text 
x="418" 
y="213" 
dx="0,0.2,0.2,0.2,0.2,0.2" 
class="s5_364"
>zhéxué</text>

<text 
x="553" 
y="214" 
dx="0" 
class="s6_364"
>n</text>

<text 
x="619" 
y="213" 
dx="0,0,0,0,0,0,0,0,0,0" 
class="s7_364"
>philosophy</text>

<text 
x="809" 
y="214" 
dx="0" 
class="s8_364"
>5</text>

<text 
x="61" 
y="258" 
dx="0,0" 
class="s3_364"
>真的</text>

<text 
x="239" 
y="258" 
dx="0,0" 
class="s4_364"
>真的</text>

<text 
x="418" 
y="255" 
dx="0,0.2,0.2,0.2,0.2,0.2,0.2" 
class="s5_364"
>zhēn de</text>

<text 
x="553" 
y="256" 
dx="0,0,0" 
class="s6_364"
>adv</text>

<text 
x="619" 
y="255" 
dx="0,-0.2,0,0,0,0,-0.9,0,0,0,0,0,0" 
class="s7_364"
>really, truly</text>

<text 
x="809" 
y="256" 
dx="0" 
class="s8_364"
>2</text>

<text 
x="61" 
y="300" 
dx="0,0" 
class="s3_364"
>整天</text>

<text 
x="239" 
y="300" 
dx="0,0" 
class="s4_364"
>整天</text>

<text 
x="418" 
y="297" 
dx="0,0.2,0.2,0.2,0.2,0.2,0.2,0.2,0.2,0.2" 
class="s5_364"
>zhěng tiān</text>

<text 
x="619" 
y="298" 
dx="0,0,0,0,0,0,0,0,0,0,0,0" 
class="s7_364"
>all day long</text>

<text 
x="809" 
y="298" 
dx="0" 
class="s8_364"
>5</text>

<text 
x="61" 
y="342" 
dx="0,0" 
class="s3_364"
>政府</text>

<text 
x="239" 
y="342" 
dx="0,0" 
class="s4_364"
>政府</text>

<text 
x="418" 
y="340" 
dx="0,0.2,0.2,0.2,0.2,0.2,0.2" 
class="s5_364"
>zhèngfǔ</text>

<text 
x="553" 
y="340" 
dx="0" 
class="s6_364"
>n</text>

<text 
x="619" 
y="340" 
dx="0,-0.1,-0.3,-0.4,0,0,0,0,0,0" 
class="s7_364"
>government</text>

<text 
x="809" 
y="340" 
dx="0" 
class="s8_364"
>8</text>

<text 
x="61" 
y="384" 
dx="0,0" 
class="s3_364"
>正好</text>

<text 
x="239" 
y="384" 
dx="0,0" 
class="s4_364"
>正好</text>

<text 
x="418" 
y="382" 
dx="0,0.2,0.2,0.2,0.2,0.2,0.2,0.2" 
class="s5_364"
>zhènghǎo</text>

<text 
x="553" 
y="382" 
dx="0,0,0" 
class="s6_364"
>adv</text>

<text 
x="619" 
y="382" 
dx="0,0,0,0,0,0,0,0,0,0,0,0,0,0" 
class="s7_364"
>coincidentally</text>

<text 
x="809" 
y="382" 
dx="0" 
class="s8_364"
>3</text>

<text 
x="61" 
y="426" 
dx="0,0" 
class="s3_364"
>挣钱</text>

<text 
x="239" 
y="426" 
dx="0,0" 
class="s4_364"
>掙錢</text>

<text 
x="418" 
y="424" 
dx="0,0.2,0.2,0.2,0.2,0.2,0.2,0.2,0.2,0.2" 
class="s5_364"
>zhèng qián</text>

<text 
x="553" 
y="424" 
dx="0,-0.4" 
class="s6_364"
>vo</text>

<text 
x="619" 
y="424" 
dx="0,-0.2,0,0,0,0,0,0,0,0,0,0,0" 
class="s7_364"
>to earn money</text>

<text 
x="809" 
y="424" 
dx="0" 
class="s8_364"
>5</text>

<text 
x="61" 
y="468" 
dx="0,0" 
class="s3_364"
>知识</text>

<text 
x="239" 
y="468" 
dx="0,0" 
class="s4_364"
>知識</text>

<text 
x="418" 
y="466" 
dx="0,0.2,0.2,0.2,0.2,0.2" 
class="s5_364"
>zhīshi</text>

<text 
x="553" 
y="467" 
dx="0" 
class="s6_364"
>n</text>

<text 
x="619" 
y="466" 
dx="0,0,0,0,0,0,0,0,-0.1" 
class="s7_364"
>knowledge</text>

<text 
x="809" 
y="467" 
dx="0" 
class="s8_364"
>9</text>

<text 
x="61" 
y="511" 
dx="0,0" 
class="s3_364"
>侄女</text>

<text 
x="239" 
y="511" 
dx="0,0" 
class="s4_364"
>侄女</text>

<text 
x="418" 
y="508" 
dx="0,0.2,0.2,0.2,0.2" 
class="s5_364"
>zhínǚ</text>

<text 
x="553" 
y="509" 
dx="0" 
class="s6_364"
>n</text>

<text 
x="619" 
y="508" 
dx="0,0,-0.2,0,0,0,0,0,-0.9,0,0,0,0,0,0,0,-0.2,0" 
class="s7_364"
>brother’s daughter</text>

<text 
x="809" 
y="509" 
dx="0" 
class="s8_364"
>9</text>

<text 
x="61" 
y="554" 
dx="0,0" 
class="s3_364"
>只好</text>

<text 
x="239" 
y="554" 
dx="0,0" 
class="s4_364"
>只好</text>

<text 
x="418" 
y="552" 
dx="0,0.2,0.2,0.2,0.2,0.2" 
class="s5_364"
>zhǐhǎo</text>

<text 
x="553" 
y="552" 
dx="0,0,0" 
class="s6_364"
>adv</text>

<text 
x="619" 
y="542" 
dx="0,-0.2,0,0,0,0,0,-0.3,0,-0.2,0,0,0,0,-0.2,-0.4,0,0,-0.2,0,0,0,0,-0.4,0" 
class="s7_364"
>to be forced to, to have </text>

<text 
x="619" 
y="562" 
dx="0,0,0,0,0,0,0,0,0,0,0,0,0" 
class="s7_364"
>no choice but</text>

<text 
x="809" 
y="552" 
dx="0" 
class="s8_364"
>4</text>

<text 
x="61" 
y="598" 
dx="0,0" 
class="s3_364"
>质量</text>

<text 
x="239" 
y="598" 
dx="0,0" 
class="s4_364"
>質量</text>

<text 
x="418" 
y="596" 
dx="0,0.2,0.2,0.2,0.2,0.2,0.2,0.2" 
class="s5_364"
>zhìliàng</text>

<text 
x="553" 
y="596" 
dx="0" 
class="s6_364"
>n</text>

<text 
x="619" 
y="596" 
dx="0,0,0,0,0,0,0" 
class="s7_364"
>quality</text>

<text 
x="809" 
y="596" 
dx="0" 
class="s8_364"
>4</text>

<text 
x="61" 
y="640" 
dx="0,0" 
class="s3_364"
>重要</text>

<text 
x="239" 
y="640" 
dx="0,0" 
class="s4_364"
>重要</text>

<text 
x="418" 
y="638" 
dx="0,0.2,0.2,0.2,0.2,0.2,0.2,0.2" 
class="s5_364"
>zhòngyào</text>

<text 
x="553" 
y="638" 
dx="0,0,0" 
class="s6_364"
>adj</text>

<text 
x="619" 
y="638" 
dx="0,0,0,0,0,0,0,0,0" 
class="s7_364"
>important</text>

<text 
x="809" 
y="638" 
dx="0" 
class="s8_364"
>7</text>

<text 
x="61" 
y="682" 
dx="0,0" 
class="s3_364"
>主意</text>

<text 
x="239" 
y="682" 
dx="0,0" 
class="s4_364"
>主意</text>

<text 
x="418" 
y="680" 
dx="0,0.2,0.2,0.2,0.2" 
class="s5_364"
>zhúyi</text>

<text 
x="553" 
y="681" 
dx="0" 
class="s6_364"
>n</text>

<text 
x="619" 
y="680" 
dx="0,0,0,0" 
class="s7_364"
>idea</text>

<text 
x="809" 
y="681" 
dx="0" 
class="s8_364"
>3</text>

<text 
x="61" 
y="725" 
dx="0,0" 
class="s3_364"
>主要</text>

<text 
x="239" 
y="725" 
dx="0,0" 
class="s4_364"
>主要</text>

<text 
x="418" 
y="722" 
dx="0,0.2,0.2,0.2,0.2,0.2" 
class="s5_364"
>zhǔyào</text>

<text 
x="553" 
y="723" 
dx="0,0,0" 
class="s6_364"
>adj</text>

<text 
x="619" 
y="722" 
dx="0,0,0,0,0,0,0,0,0,0,0,0,0,0,0" 
class="s7_364"
>main, principal</text>

<text 
x="809" 
y="723" 
dx="0,0" 
class="s8_364"
>10</text>

<text 
x="61" 
y="768" 
dx="0,0" 
class="s3_364"
>资料</text>

<text 
x="239" 
y="768" 
dx="0,0" 
class="s4_364"
>資料</text>

<text 
x="418" 
y="766" 
dx="0,0.2,0.2,0.2,0.2,0.2" 
class="s5_364"
>zīliào</text>

<text 
x="553" 
y="767" 
dx="0" 
class="s6_364"
>n</text>

<text 
x="619" 
y="756" 
dx="0,0,0,-0.2,0,0,0,0,0,0,0,-0.2,0,-0.3,0,-0.2,0,0,0,0,0" 
class="s7_364"
>material (reference, </text>

<text 
x="619" 
y="776" 
dx="0,0,0,0,0,0,0,0,0,0" 
class="s7_364"
>academic) </text>

<text 
x="809" 
y="767" 
dx="0" 
class="s8_364"
>7</text>

<text 
x="61" 
y="812" 
dx="0,0" 
class="s3_364"
>自然</text>

<text 
x="239" 
y="812" 
dx="0,0" 
class="s4_364"
>自然</text>

<text 
x="418" 
y="810" 
dx="0,0.2,0.2,0.2,0.2" 
class="s5_364"
>zìrán</text>

<text 
x="553" 
y="810" 
dx="0,0,0,0,0" 
class="s6_364"
>n/adj</text>

<text 
x="619" 
y="810" 
dx="0,0,0,0,0,-0.2,0,0,0,0,0,0,0,0,0" 
class="s7_364"
>nature; natural</text>

<text 
x="809" 
y="810" 
dx="0,0" 
class="s8_364"
>10</text>

<text 
x="61" 
y="854" 
dx="0,0" 
class="s3_364"
>自由</text>

<text 
x="239" 
y="854" 
dx="0,0" 
class="s4_364"
>自由</text>

<text 
x="418" 
y="852" 
dx="0,0.2,0.2,0.2,0.2" 
class="s5_364"
>zìyóu</text>

<text 
x="553" 
y="852" 
dx="0,0,0" 
class="s6_364"
>adj</text>

<text 
x="619" 
y="852" 
dx="0,0,-0.2,0,0,0,0,0,0,0,0,0,0,0,0,0,0,0,0" 
class="s7_364"
>free, unconstrained</text>

<text 
x="809" 
y="852" 
dx="0" 
class="s8_364"
>1</text>

<text 
x="61" 
y="896" 
dx="0,0" 
class="s3_364"
>尊重</text>

<text 
x="239" 
y="896" 
dx="0,0" 
class="s4_364"
>尊重</text>

<text 
x="418" 
y="894" 
dx="0,0.2,0.2,0.2,0.2,0.2,0.2,0.2" 
class="s5_364"
>zūnzhòng</text>

<text 
x="553" 
y="895" 
dx="0,0" 
class="s6_364"
>v </text>

<text 
x="619" 
y="894" 
dx="0,-0.2,0,0,-0.2,0,0,0,0,0" 
class="s7_364"
>to respect</text>

<text 
x="809" 
y="895" 
dx="0" 
class="s8_364"
>9</text>

<text 
x="61" 
y="940" 
dx="0,0" 
class="s3_364"
>做法</text>

<text 
x="239" 
y="940" 
dx="0,0" 
class="s4_364"
>做法</text>

<text 
x="418" 
y="938" 
dx="0,0.2,0.2,0.2,0.2" 
class="s5_364"
>zuòfǎ</text>

<text 
x="553" 
y="938" 
dx="0" 
class="s6_364"
>n</text>

<text 
x="619" 
y="928" 
dx="0,0,0,0,0,-0.2,0,0,0,0,0,0,0,0,0,0,0,0,0,0,0" 
class="s7_364"
>way of doing things, </text>

<text 
x="619" 
y="948" 
dx="0,0,0,0,0,0,0,0,-0.2,0,0,0,0,0,0,0" 
class="s7_364"
>course of action</text>

<text 
x="809" 
y="938" 
dx="0" 
class="s8_364"
>9</text>



<!-- Any embedded fonts defined here -->
<style type="text/css" ><![CDATA[

@font-face {
	font-family: GentiumBookBasic-Italic_3o-;
	src: url("fonts/GentiumBookBasic-Italic_3o-.woff") format("woff");
}

@font-face {
	font-family: LibreFranklin-Regular_45s;
	src: url("fonts/LibreFranklin-Regular_45s.woff") format("woff");
}

@font-face {
	font-family: STKaiTi-TC-Regular_3pl;
	src: url("fonts/STKaiTi-TC-Regular_3pl.woff") format("woff");
}

@font-face {
	font-family: LibreFranklin-SemiBold_45y;
	src: url("fonts/LibreFranklin-SemiBold_45y.woff") format("woff");
}

@font-face {
	font-family: STKaiti-SC-Regular_3pn;
	src: url("fonts/STKaiti-SC-Regular_3pn.woff") format("woff");
}

@font-face {
	font-family: LibreFranklin-Light_45u;
	src: url("fonts/LibreFranklin-Light_45u.woff") format("woff");
}

]]></style>

</svg>
