<?xml version="1.0" encoding="UTF-8" standalone="no"?>
<!DOCTYPE svg PUBLIC "-//W3C//DTD SVG 1.1//EN"
"http://www.w3.org/Graphics/SVG/1.1/DTD/svg11.dtd">


<!-- Page 152 -->
<svg x="0" y="0" width="921" height="1196" viewBox="0 0 921 1196" version="1.1" xmlns="http://www.w3.org/2000/svg" xmlns:xlink="http://www.w3.org/1999/xlink"
style="display: block;margin-left: auto;margin-right: auto;">
<defs>
<clipPath id="c0_152"><path d="M0,1196.3L0,0L921.3,0l0,1196.3Z" /></clipPath>

<style type="text/css"><![CDATA[

.g1_152{
fill: #FFFFFF;
fill-opacity: 0.880005;
}
.g2_152{
fill: #D2543E;
}
.g3_152{
fill: none;
stroke: #DCDDDF;
stroke-width: 2.2916667;
stroke-linecap: butt;
stroke-linejoin: miter;
stroke-miterlimit: 4;
}
.g4_152{
fill: #D2543E;
stroke: #DCDDDF;
stroke-width: 2.2916667;
stroke-linecap: butt;
stroke-linejoin: miter;
stroke-miterlimit: 4;
}
.g5_152{
fill: none;
stroke: #D1D2D4;
stroke-width: 0.5102778;
stroke-linecap: butt;
stroke-linejoin: round;
stroke-miterlimit: 4;
}
.g6_152{
fill: none;
stroke: #D1D2D4;
stroke-width: 1.5277778;
stroke-linecap: butt;
stroke-linejoin: round;
stroke-miterlimit: 4;
}
.g7_152{
fill: none;
stroke: #FFFFFF;
stroke-width: 2.2916667;
stroke-linecap: butt;
stroke-linejoin: miter;
stroke-miterlimit: 4;
}
.g8_152{
fill: none;
stroke: #FFFFFF;
stroke-width: 0.7654167;
stroke-linecap: butt;
stroke-linejoin: miter;
stroke-miterlimit: 4;
}

.s1_152{
font-size: 22.92px;
font-family: LibreFranklin-ExtraBold_3y5;
fill: #FFFFFF;
}
.s2_152{
font-size: 14.51px;
font-family: LibreFranklin-Bold_3y4;
fill: #231F20;
}
.s3_152{
font-size: 15.28px;
font-family: Wingdings2_3pi;
fill: #E5C354;
}
.s4_152{
font-size: 12.99px;
font-family: LibreFranklin-Medium_3y8;
fill: #231F20;
}
.s5_152{
font-size: 91.67px;
font-family: STKaiti-SC-Regular_3pn;
fill: #D2543E;
}
.s6_152{
font-size: 91.67px;
font-family: STKaiTi-TC-Regular_3pl;
fill: #D2543E;
}
.s7_152{
font-size: 36.67px;
font-family: MuseoSlab-900_3y3;
fill: #FFFFFF;
}
.s8_152{
font-size: 32.85px;
font-family: LibreFranklin-ExtraBold_3y5;
fill: #D2543E;
}
.s9_152{
font-size: 27.50px;
font-family: SourceHanSansCN-Medium_3p3;
fill: #FFFFFF;
}
.s10_152{
font-size: 27.50px;
font-family: SourceHanSansTW-Medium_3ps;
fill: #FFFFFF;
}

]]></style>

</defs>
<path d="M0,0
L0,1196
L921,1196
L921,0 Z " 
fill="#FFFFFF" stroke="none" />
<image preserveAspectRatio="none" x="18" y="20" width="881" height="915" xlink:href="152/img/1.png" />
<image preserveAspectRatio="none" x="539" y="-156" width="477" height="474" xlink:href="152/img/2.png" />
<path d="M147,562c0,0,-13.8,0,-13.8,13.7l0,77.4c0,0,0,13.8,13.8,13.8l622.9,0c0,0,13.7,0,13.7,-13.8l0,-77.4c0,0,0,-13.7,-13.7,-13.7Z" class="g1_152" />
<path d="M147,676.1c0,0,-13.8,0,-13.8,13.8l0,77.4c0,0,0,13.7,13.8,13.7l622.9,0c0,0,13.7,0,13.7,-13.7l0,-77.4c0,0,0,-13.8,-13.7,-13.8Z" class="g1_152" />
<path d="M721.9,152.6c0,0,-3.6,0,-3.6,3.5l0,42.1c0,0,0,3.5,3.6,3.5l118.6,0c0,0,3.6,0,3.6,-3.5l0,-42.1c0,0,0,-3.5,-3.6,-3.5Z" class="g2_152" />
<path d="M721.9,152.6c0,0,-3.6,0,-3.6,3.5l0,42.1c0,0,0,3.5,3.6,3.5l118.6,0c0,0,3.6,0,3.6,-3.5l0,-42.1c0,0,0,-3.5,-3.6,-3.5l-118.6,0Z" class="g3_152" />
<path d="M721.9,212.6c0,0,-3.6,0,-3.6,3.5l0,42.1c0,0,0,3.6,3.6,3.6l118.6,0c0,0,3.6,0,3.6,-3.6l0,-42.1c0,0,0,-3.5,-3.6,-3.5Z" class="g2_152" />
<path d="M721.9,212.6c0,0,-3.6,0,-3.6,3.5l0,42.1c0,0,0,3.6,3.6,3.6l118.6,0c0,0,3.6,0,3.6,-3.6l0,-42.1c0,0,0,-3.5,-3.6,-3.5l-118.6,0Z" class="g3_152" />
<path d="M473.2,956.6l310.4,0l0,-46l-310.4,0l0,46Z" class="g4_152" />
<path d="M133.2,956.6l310.4,0l0,-46l-310.4,0l0,46Z" class="g4_152" />
<g clip-path="url(#c0_152)">
<path d="M670,134.3l302.8,0" class="g5_152" />
<path d="M670,136.4l302.8,0" class="g6_152" />
</g>
<text 
x="175" 
y="939" 
dx="0,0.2,0.2,0.2,0.2,0.2,0.2,0.2,0.2,0.2,0.2,0.2,0.2,0.2,0.2,0.2,0.2,-0.5,0.2" 
class="s1_152"
>Learning Objectives</text>

<text 
x="161" 
y="984" 
dx="0,0,0,0,0,0,0,0,0,0,0,0,0,0,0,0,0,0,0,0,0,0,0,0,0,0,0,0,0,0,0,0,-0.2,0" 
class="s2_152"
>In this lesson, you will learn to:</text>

<text 
x="163" 
y="1005" 
dx="0" 
class="s3_152"
>y</text>

<text 
x="182" 
y="1005" 
dx="0,-0.3,0,0,-0.2,0,-0.1,0,0,0,0,-0.1,0,0,0,0,0,-0.1,0,0,0,-0.1,0,0,0,0,0,0,0,0,-0.1,0,0,0,0,0,0,0,0,0,0" 
class="s4_152"
>State your major and academic department </text>

<text 
x="182" 
y="1021" 
dx="0,0,0,0,0,0,0,0,0,0,-0.2,0,0,0,0,-0.2,0,0,0,-0.2,0,0,0,-0.1,0,0,0,0,0,0,0,0,0,0,0,0,0,0" 
class="s4_152"
>and some required general courses you </text>

<text 
x="182" 
y="1037" 
dx="0,0,0,-0.4,0,0,0,0,-0.4,0" 
class="s4_152"
>have taken</text>

<text 
x="163" 
y="1054" 
dx="0" 
class="s3_152"
>y</text>

<text 
x="182" 
y="1054" 
dx="0,-1.2,0,0,0,0,0,0,0,0,0,0,0,0,0,0,0,0,0,0,0,0,0,0,0,-0.2,0,0,0,0,-0.1,0,0,0,0,0,0,0" 
class="s4_152"
>Talk about your plans after graduation</text>

<text 
x="163" 
y="1072" 
dx="0" 
class="s3_152"
>y</text>

<text 
x="182" 
y="1072" 
dx="0,0,0,0,0,0,0,0,0,0,0,0,0,0,0,0,0,0,0,0,0,0,0,0,0,0,0,0,0,0,0,0,0,0,0,0,-0.2,0" 
class="s4_152"
>Discuss what will enhance your future </text>

<text 
x="182" 
y="1088" 
dx="0,0,0,0,0,0,0,0,0,0,0,0,0,0,0,0,0" 
class="s4_152"
>job opportunities</text>

<text 
x="163" 
y="1105" 
dx="0" 
class="s3_152"
>y</text>

<text 
x="182" 
y="1105" 
dx="0,-0.5,-0.3,-0.3,-0.3,-0.3,-0.3,-0.3,-0.3,-0.3,-0.3,-0.4,-0.3,-0.3,-0.3,-0.3,-0.3,-0.3,-0.3,-0.3,-0.3,-0.3,-0.3,-0.3,-0.3,-0.3,-0.3,-0.3,-0.3,-0.3,-0.3,-0.3,-0.3,-0.3,-0.3,-0.3,-0.3,-0.3,-0.3,-0.6,0" 
class="s4_152"
>Explain whether your family members have </text>

<text 
x="182" 
y="1122" 
dx="0,-0.3,-0.3,-0.3,-0.3,-0.3,-0.3,-0.3,-0.3,-0.3,-0.3,-0.3,-0.3,-0.3,-0.3,-0.3,-0.3,-0.3,-0.3,-0.3,-0.3,-0.3,-0.3,-0.3,-0.3,-0.3,-0.3,-0.3,-0.3,-0.4,-0.3,-0.3,-0.3,-0.3,-0.3,-0.3,-0.3,-0.3,-0.3,-0.3,0" 
class="s4_152"
>an influence on your choice of major and </text>

<text 
x="182" 
y="1138" 
dx="0,-0.3,-0.3,-0.4,-0.3,-0.3,-0.3,-0.3,-0.3,-0.3,-0.3,0" 
class="s4_152"
>career path </text>

<text 
x="163" 
y="1155" 
dx="0" 
class="s3_152"
>y</text>

<text 
x="182" 
y="1155" 
dx="0,0,0,0,-0.2,0,0,0,0,0,0,0,0,0,0,0,0,0,0,-0.2,0,0,0,0,-0.4,0,0,0,0,0,0,0,0,-0.3,0,0" 
class="s4_152"
>Share tips on how to save money for </text>

<text 
x="182" 
y="1172" 
dx="0,0,0,0,0,0,0,0,0,0,0,0,0,0" 
class="s4_152"
>your education</text>

<text 
x="517" 
y="939" 
dx="0,0.2,0.2,0.2,0.2,-0.2,0.2,0.2,0.2,0.2,0.2,-0.1,0.2,0.2,0.2,0.2,0.2,0.2" 
class="s1_152"
>Relate &amp; Get Ready</text>

<text 
x="500" 
y="984" 
dx="0,0,0,0,0,0,0,0,0,0,0,0,0,0,0,0,0,0,-0.2,0,0,0,0,0,0,0,0,0,0,0" 
class="s2_152"
>In your own culture/community:</text>

<text 
x="502" 
y="1005" 
dx="0" 
class="s3_152"
>y</text>

<text 
x="521" 
y="1005" 
dx="0,0,0,0,0,0,0,0,0,0,0,0,0,0,-0.2,0,0,0,0,0,0,0,0,0,0,0,0,0,0,0,0,-0.2,0" 
class="s4_152"
>When do college students declare </text>

<text 
x="521" 
y="1021" 
dx="0,0,0,0,0,0,0,0" 
class="s4_152"
>a major?</text>

<text 
x="502" 
y="1038" 
dx="0" 
class="s3_152"
>y</text>

<text 
x="521" 
y="1038" 
dx="0,0,0,0,0,0,0,-0.2,0,0,0,0,0,0,0,0,0,0,0,0,0,0,0,0,0,0,0,0,0,0,0,0,0" 
class="s4_152"
>What are the most common schools/</text>

<text 
x="521" 
y="1054" 
dx="0,0,0,0,0,0,-0.2,0,0,0,-0.3,0,0,0,0,0,0,0,0,0,0,0,-0.4,0,0,0,0,0,0,0,0" 
class="s4_152"
>colleges found at universities?</text>

<text 
x="502" 
y="1072" 
dx="0" 
class="s3_152"
>y</text>

<text 
x="521" 
y="1072" 
dx="0,0,0,0,-0.2,-0.4,0,0,0,0,-0.2,0,0,0,0,0,0,0,0,0,0,0,0,0,0,-0.2,0,0,0,0,0,0,0,-0.2,0" 
class="s4_152"
>Approximately how many credits are </text>

<text 
x="521" 
y="1089" 
dx="0,0,0,0,0,0,0,0,-0.2,0,0,0,-0.1,0,0,0,0,-0.2,0,0,0,-0.2,0,0,0,0,0,0,0,0,-0.2,0" 
class="s4_152"
>needed to graduate from college?</text>

<text 
x="367" 
y="640" 
dx="0,0" 
class="s5_152"
>选课</text>

<text 
x="367" 
y="756" 
dx="0,0" 
class="s6_152"
>選課</text>

<text 
x="260" 
y="854" 
dx="0,0,0,0,0,0,0,-0.2,0,0,0,0.2,0,0,0,0" 
class="s7_152"
>CHOOSING CLASSES</text>

<path d="M136.1,811.5l0,60.8l0,1.2l1.2,0l645.8,0l1.2,0l0,-1.2l0,-60.8l0,-1.1l-1.2,0l-645.8,0l-1.2,0l0,1.1Z" class="g7_152" />
<path d="M139.2,870.4l642,0l0,-57l-642,0l0,57Z" class="g8_152" />
<text 
x="708" 
y="117" 
dx="0,0,0,0,0,0,0,0" 
class="s8_152"
>Lesson 5</text>

<text 
x="740" 
y="187" 
dx="0,-1.4,-1.4" 
class="s9_152"
>第五课</text>

<text 
x="740" 
y="248" 
dx="0,-1.4,-1.4" 
class="s10_152"
>第五課</text>



<!-- Any embedded fonts defined here -->
<style type="text/css" ><![CDATA[

@font-face {
	font-family: Wingdings2_3pi;
	src: url("fonts/Wingdings2_3pi.woff") format("woff");
}

@font-face {
	font-family: SourceHanSansCN-Medium_3p3;
	src: url("fonts/SourceHanSansCN-Medium_3p3.woff") format("woff");
}

@font-face {
	font-family: LibreFranklin-ExtraBold_3y5;
	src: url("fonts/LibreFranklin-ExtraBold_3y5.woff") format("woff");
}

@font-face {
	font-family: LibreFranklin-Bold_3y4;
	src: url("fonts/LibreFranklin-Bold_3y4.woff") format("woff");
}

@font-face {
	font-family: LibreFranklin-Medium_3y8;
	src: url("fonts/LibreFranklin-Medium_3y8.woff") format("woff");
}

@font-face {
	font-family: MuseoSlab-900_3y3;
	src: url("fonts/MuseoSlab-900_3y3.woff") format("woff");
}

@font-face {
	font-family: STKaiTi-TC-Regular_3pl;
	src: url("fonts/STKaiTi-TC-Regular_3pl.woff") format("woff");
}

@font-face {
	font-family: STKaiti-SC-Regular_3pn;
	src: url("fonts/STKaiti-SC-Regular_3pn.woff") format("woff");
}

@font-face {
	font-family: SourceHanSansTW-Medium_3ps;
	src: url("fonts/SourceHanSansTW-Medium_3ps.woff") format("woff");
}

]]></style>

</svg>
