<?xml version="1.0" encoding="UTF-8" standalone="no"?>
<!DOCTYPE svg PUBLIC "-//W3C//DTD SVG 1.1//EN"
"http://www.w3.org/Graphics/SVG/1.1/DTD/svg11.dtd">


<!-- Page 354 -->
<svg x="0" y="0" width="921" height="1196" viewBox="0 0 921 1196" version="1.1" xmlns="http://www.w3.org/2000/svg" xmlns:xlink="http://www.w3.org/1999/xlink"
style="display: block;margin-left: auto;margin-right: auto;">
<defs>

<style type="text/css"><![CDATA[

.g1_354{
fill: #57585A;
stroke: #B2B3B7;
stroke-width: 1.5277778;
stroke-linecap: butt;
stroke-linejoin: miter;
stroke-miterlimit: 4;
}
.g2_354{
fill: #F0F1F2;
}
.g3_354{
fill: #BDBEC1;
}
.g4_354{
fill: none;
stroke: #BDBEC1;
stroke-width: 1.5277778;
stroke-linecap: butt;
stroke-linejoin: miter;
}
.g5_354{
fill: none;
stroke: #BDBEC1;
stroke-width: 0.38194445;
stroke-linecap: butt;
stroke-linejoin: miter;
}
.g6_354{
fill: none;
stroke: #DADBDD;
stroke-width: 0.38194445;
stroke-linecap: butt;
stroke-linejoin: miter;
}
.g7_354{
fill: none;
stroke: #DADBDD;
stroke-width: 1.5277778;
stroke-linecap: butt;
stroke-linejoin: miter;
}

.s1_354{
font-size: 10.69px;
font-family: LibreFranklin-SemiBold_45y;
fill: #FFFFFF;
}
.s2_354{
font-size: 14.51px;
font-family: LibreFranklin-SemiBold_45y;
fill: #57585A;
}
.s3_354{
font-size: 24.44px;
font-family: STKaiti-SC-Regular_3pn;
fill: #57585A;
}
.s4_354{
font-size: 24.44px;
font-family: STKaiTi-TC-Regular_3pl;
fill: #57585A;
}
.s5_354{
font-size: 14.90px;
font-family: GentiumBookBasic-Italic_3o-;
fill: #3F3F40;
}
.s6_354{
font-size: 14.51px;
font-family: LibreFranklin-Regular_45s;
fill: #3F3F40;
}
.s7_354{
font-size: 13.75px;
font-family: LibreFranklin-Light_45u;
fill: #3F3F40;
}
.s8_354{
font-size: 14.51px;
font-family: LibreFranklin-SemiBold_45y;
fill: #77787B;
}
.s9_354{
font-size: 19.86px;
font-family: LibreFranklin-SemiBold_45y;
fill: #3F3F40;
}

]]></style>

</defs>
<path d="M0,0
L0,1196
L921,1196
L921,0 Z " 
fill="#FFFFFF" stroke="none" />
<path d="M879.5,1220.7l64.9,0l0,-1247.3l-64.9,0l0,1247.3Z" class="g1_354" />
<text 
transform="matrix(0, 1, -1, 0, 888, 874)"
dx="0,-0.1,0.6,0.6,0.6,0.6,0.6,0.6,0.6,0.6,0.6,0.6,0.6,0.6,0.6,0.4,0.6,0.6,0.6,0.6,0.6,0.6,0.6,0.6,0.6,0.6,0.6,0.6,0.6,0.6,0.6,0.6,0.6,0.6,0.6,0.6,0.6,-0.1,0.6,0.6,0.6,0.6,0.6,0.6,0.6" 
class="s1_354"
>Vocabulary Index (Chinese-English), Volume 3 </text>

<text 
transform="matrix(0, 1, -1, 0, 888, 1152)"
dx="0,0.6,0.6" 
class="s1_354"
>331</text>

<path d="M55,101.1l178.8,0l0,42.7L55,143.8l0,-42.7Zm178.8,0l178.7,0l0,42.7l-178.7,0l0,-42.7Zm178.7,0l135.2,0l0,42.7l-135.2,0l0,-42.7Zm135.2,0l66.1,0l0,42.7l-66.1,0l0,-42.7Zm66.1,0l189.2,0l0,42.7l-189.2,0l0,-42.7Zm189.2,0l63.3,0l0,42.7l-63.3,0l0,-42.7ZM55,186l178.8,0l0,42.2L55,228.2L55,186Zm178.8,0l178.7,0l0,42.2l-178.7,0l0,-42.2Zm178.7,0l135.2,0l0,42.2l-135.2,0l0,-42.2Zm135.2,0l66.1,0l0,42.2l-66.1,0l0,-42.2Zm66.1,0L803,186l0,42.2l-189.2,0l0,-42.2ZM803,186l63.3,0l0,42.2l-63.3,0L803,186ZM55,270.3l178.8,0l0,42.2L55,312.5l0,-42.2Zm178.8,0l178.7,0l0,42.2l-178.7,0l0,-42.2Zm178.7,0l135.2,0l0,42.2l-135.2,0l0,-42.2Zm135.2,0l66.1,0l0,42.2l-66.1,0l0,-42.2Zm66.1,0l189.2,0l0,42.2l-189.2,0l0,-42.2Zm189.2,0l63.3,0l0,42.2l-63.3,0l0,-42.2ZM55,354.7l178.8,0l0,42.1L55,396.8l0,-42.1Zm178.8,0l178.7,0l0,42.1l-178.7,0l0,-42.1Zm178.7,0l135.2,0l0,42.1l-135.2,0l0,-42.1Zm135.2,0l66.1,0l0,42.1l-66.1,0l0,-42.1Zm66.1,0l189.2,0l0,42.1l-189.2,0l0,-42.1Zm189.2,0l63.3,0l0,42.1l-63.3,0l0,-42.1ZM55,439l178.8,0l0,42.1L55,481.1L55,439Zm178.8,0l178.7,0l0,42.1l-178.7,0l0,-42.1Zm178.7,0l135.2,0l0,42.1l-135.2,0l0,-42.1Zm135.2,0l66.1,0l0,42.1l-66.1,0l0,-42.1Zm66.1,0L803,439l0,42.1l-189.2,0l0,-42.1ZM803,439l63.3,0l0,42.1l-63.3,0L803,439ZM55,523.3l178.8,0l0,42.2L55,565.5l0,-42.2Zm178.8,0l178.7,0l0,42.2l-178.7,0l0,-42.2Zm178.7,0l135.2,0l0,42.2l-135.2,0l0,-42.2Zm135.2,0l66.1,0l0,42.2l-66.1,0l0,-42.2Zm66.1,0l189.2,0l0,42.2l-189.2,0l0,-42.2Zm189.2,0l63.3,0l0,42.2l-63.3,0l0,-42.2ZM55,607.6l178.8,0l0,42.2L55,649.8l0,-42.2Zm178.8,0l178.7,0l0,42.2l-178.7,0l0,-42.2Zm178.7,0l135.2,0l0,42.2l-135.2,0l0,-42.2Zm135.2,0l66.1,0l0,42.2l-66.1,0l0,-42.2Zm66.1,0l189.2,0l0,42.2l-189.2,0l0,-42.2Zm189.2,0l63.3,0l0,42.2l-63.3,0l0,-42.2ZM55,692l178.8,0l0,42.1L55,734.1L55,692Zm178.8,0l178.7,0l0,42.1l-178.7,0l0,-42.1Zm178.7,0l135.2,0l0,42.1l-135.2,0l0,-42.1Zm135.2,0l66.1,0l0,42.1l-66.1,0l0,-42.1Zm66.1,0L803,692l0,42.1l-189.2,0l0,-42.1ZM803,692l63.3,0l0,42.1l-63.3,0L803,692ZM55,860.6l178.8,0l0,42.2L55,902.8l0,-42.2Zm178.8,0l178.7,0l0,42.2l-178.7,0l0,-42.2Zm178.7,0l135.2,0l0,42.2l-135.2,0l0,-42.2Zm135.2,0l66.1,0l0,42.2l-66.1,0l0,-42.2Zm66.1,0l189.2,0l0,42.2l-189.2,0l0,-42.2Zm189.2,0l63.3,0l0,42.2l-63.3,0l0,-42.2ZM55,948.1l178.8,0l0,42.2L55,990.3l0,-42.2Zm178.8,0l178.7,0l0,42.2l-178.7,0l0,-42.2Zm178.7,0l135.2,0l0,42.2l-135.2,0l0,-42.2Zm135.2,0l66.1,0l0,42.2l-66.1,0l0,-42.2Zm66.1,0l189.2,0l0,42.2l-189.2,0l0,-42.2Zm189.2,0l63.3,0l0,42.2l-63.3,0l0,-42.2ZM55,1032.5l178.8,0l0,42.1l-178.8,0l0,-42.1Zm178.8,0l178.7,0l0,42.1l-178.7,0l0,-42.1Zm178.7,0l135.2,0l0,42.1l-135.2,0l0,-42.1Zm135.2,0l66.1,0l0,42.1l-66.1,0l0,-42.1Zm66.1,0l189.2,0l0,42.1l-189.2,0l0,-42.1Zm189.2,0l63.3,0l0,42.1l-63.3,0l0,-42.1Z" class="g2_354" />
<path d="M55,228.2l811.3,0l0,42.1L55,270.3l0,-42.1Zm0,548.1l811.3,0l0,42.1L55,818.4l0,-42.1Z" class="g3_354" />
<path d="M55,1120.6l178.8,0" class="g4_354" />
<path d="M233.8,1120.6l178.7,0" class="g4_354" />
<path d="M412.5,1120.6l135.2,0" class="g4_354" />
<path d="M547.7,1120.6l66.1,0" class="g4_354" />
<path d="M613.8,1120.6l189.2,0" class="g4_354" />
<path d="M803,1120.6l63.3,0" class="g4_354" />
<path d="M55,143.8l178.8,0" class="g5_354" />
<path d="M233.8,143.8l178.7,0" class="g5_354" />
<path d="M412.5,143.8l135.2,0" class="g5_354" />
<path d="M547.7,143.8l66.1,0" class="g5_354" />
<path d="M613.8,143.8l189.2,0" class="g5_354" />
<path d="M803,143.8l63.3,0" class="g5_354" />
<path d="M55,186l178.8,0" class="g5_354" />
<path d="M233.8,186l178.7,0" class="g5_354" />
<path d="M412.5,186l135.2,0" class="g5_354" />
<path d="M547.7,186l66.1,0" class="g5_354" />
<path d="M613.8,186L803,186" class="g5_354" />
<path d="M803,186l63.3,0" class="g5_354" />
<path d="M55,312.5l178.8,0" class="g5_354" />
<path d="M233.8,312.5l178.7,0" class="g5_354" />
<path d="M412.5,312.5l135.2,0" class="g5_354" />
<path d="M547.7,312.5l66.1,0" class="g5_354" />
<path d="M613.8,312.5l189.2,0" class="g5_354" />
<path d="M803,312.5l63.3,0" class="g5_354" />
<path d="M55,354.7l178.8,0" class="g5_354" />
<path d="M233.8,354.7l178.7,0" class="g5_354" />
<path d="M412.5,354.7l135.2,0" class="g5_354" />
<path d="M547.7,354.7l66.1,0" class="g5_354" />
<path d="M613.8,354.7l189.2,0" class="g5_354" />
<path d="M803,354.7l63.3,0" class="g5_354" />
<path d="M55,396.8l178.8,0" class="g5_354" />
<path d="M233.8,396.8l178.7,0" class="g5_354" />
<path d="M412.5,396.8l135.2,0" class="g5_354" />
<path d="M547.7,396.8l66.1,0" class="g5_354" />
<path d="M613.8,396.8l189.2,0" class="g5_354" />
<path d="M803,396.8l63.3,0" class="g5_354" />
<path d="M55,439l178.8,0" class="g5_354" />
<path d="M233.8,439l178.7,0" class="g5_354" />
<path d="M412.5,439l135.2,0" class="g5_354" />
<path d="M547.7,439l66.1,0" class="g5_354" />
<path d="M613.8,439L803,439" class="g5_354" />
<path d="M803,439l63.3,0" class="g5_354" />
<path d="M55,481.1l178.8,0" class="g5_354" />
<path d="M233.8,481.1l178.7,0" class="g5_354" />
<path d="M412.5,481.1l135.2,0" class="g5_354" />
<path d="M547.7,481.1l66.1,0" class="g5_354" />
<path d="M613.8,481.1l189.2,0" class="g5_354" />
<path d="M803,481.1l63.3,0" class="g5_354" />
<path d="M55,523.3l178.8,0" class="g5_354" />
<path d="M233.8,523.3l178.7,0" class="g5_354" />
<path d="M412.5,523.3l135.2,0" class="g5_354" />
<path d="M547.7,523.3l66.1,0" class="g5_354" />
<path d="M613.8,523.3l189.2,0" class="g5_354" />
<path d="M803,523.3l63.3,0" class="g5_354" />
<path d="M55,565.5l178.8,0" class="g5_354" />
<path d="M233.8,565.5l178.7,0" class="g5_354" />
<path d="M412.5,565.5l135.2,0" class="g5_354" />
<path d="M547.7,565.5l66.1,0" class="g5_354" />
<path d="M613.8,565.5l189.2,0" class="g5_354" />
<path d="M803,565.5l63.3,0" class="g5_354" />
<path d="M55,607.6l178.8,0" class="g5_354" />
<path d="M233.8,607.6l178.7,0" class="g5_354" />
<path d="M412.5,607.6l135.2,0" class="g5_354" />
<path d="M547.7,607.6l66.1,0" class="g5_354" />
<path d="M613.8,607.6l189.2,0" class="g5_354" />
<path d="M803,607.6l63.3,0" class="g5_354" />
<path d="M55,649.8l178.8,0" class="g5_354" />
<path d="M233.8,649.8l178.7,0" class="g5_354" />
<path d="M412.5,649.8l135.2,0" class="g5_354" />
<path d="M547.7,649.8l66.1,0" class="g5_354" />
<path d="M613.8,649.8l189.2,0" class="g5_354" />
<path d="M803,649.8l63.3,0" class="g5_354" />
<path d="M55,692l178.8,0" class="g5_354" />
<path d="M233.8,692l178.7,0" class="g5_354" />
<path d="M412.5,692l135.2,0" class="g5_354" />
<path d="M547.7,692l66.1,0" class="g5_354" />
<path d="M613.8,692L803,692" class="g5_354" />
<path d="M803,692l63.3,0" class="g5_354" />
<path d="M55,734.1l178.8,0" class="g5_354" />
<path d="M233.8,734.1l178.7,0" class="g5_354" />
<path d="M412.5,734.1l135.2,0" class="g5_354" />
<path d="M547.7,734.1l66.1,0" class="g5_354" />
<path d="M613.8,734.1l189.2,0" class="g5_354" />
<path d="M803,734.1l63.3,0" class="g5_354" />
<path d="M55,860.6l178.8,0" class="g5_354" />
<path d="M233.8,860.6l178.7,0" class="g5_354" />
<path d="M412.5,860.6l135.2,0" class="g5_354" />
<path d="M547.7,860.6l66.1,0" class="g5_354" />
<path d="M613.8,860.6l189.2,0" class="g5_354" />
<path d="M803,860.6l63.3,0" class="g5_354" />
<path d="M55,902.8l178.8,0" class="g5_354" />
<path d="M233.8,902.8l178.7,0" class="g5_354" />
<path d="M412.5,902.8l135.2,0" class="g5_354" />
<path d="M547.7,902.8l66.1,0" class="g5_354" />
<path d="M613.8,902.8l189.2,0" class="g5_354" />
<path d="M803,902.8l63.3,0" class="g5_354" />
<path d="M55,948.1l178.8,0" class="g5_354" />
<path d="M233.8,948.1l178.7,0" class="g5_354" />
<path d="M412.5,948.1l135.2,0" class="g5_354" />
<path d="M547.7,948.1l66.1,0" class="g5_354" />
<path d="M613.8,948.1l189.2,0" class="g5_354" />
<path d="M803,948.1l63.3,0" class="g5_354" />
<path d="M55,990.3l178.8,0" class="g5_354" />
<path d="M233.8,990.3l178.7,0" class="g5_354" />
<path d="M412.5,990.3l135.2,0" class="g5_354" />
<path d="M547.7,990.3l66.1,0" class="g5_354" />
<path d="M613.8,990.3l189.2,0" class="g5_354" />
<path d="M803,990.3l63.3,0" class="g5_354" />
<path d="M55,1032.5l178.8,0" class="g5_354" />
<path d="M233.8,1032.5l178.7,0" class="g5_354" />
<path d="M412.5,1032.5l135.2,0" class="g5_354" />
<path d="M547.7,1032.5l66.1,0" class="g5_354" />
<path d="M613.8,1032.5l189.2,0" class="g5_354" />
<path d="M803,1032.5l63.3,0" class="g5_354" />
<path d="M55,1074.6l178.8,0" class="g5_354" />
<path d="M233.8,1074.6l178.7,0" class="g5_354" />
<path d="M412.5,1074.6l135.2,0" class="g5_354" />
<path d="M547.7,1074.6l66.1,0" class="g5_354" />
<path d="M613.8,1074.6l189.2,0" class="g5_354" />
<path d="M803,1074.6l63.3,0" class="g5_354" />
<path d="M55,228.2l178.8,0" class="g6_354" />
<path d="M233.8,228.2l178.7,0" class="g6_354" />
<path d="M412.5,228.2l135.2,0" class="g6_354" />
<path d="M547.7,228.2l66.1,0" class="g6_354" />
<path d="M613.8,228.2l189.2,0" class="g6_354" />
<path d="M803,228.2l63.3,0" class="g6_354" />
<path d="M55,776.3l178.8,0" class="g6_354" />
<path d="M233.8,776.3l178.7,0" class="g6_354" />
<path d="M412.5,776.3l135.2,0" class="g6_354" />
<path d="M547.7,776.3l66.1,0" class="g6_354" />
<path d="M613.8,776.3l189.2,0" class="g6_354" />
<path d="M803,776.3l63.3,0" class="g6_354" />
<path d="M55,270.3l178.8,0" class="g5_354" />
<path d="M233.8,270.3l178.7,0" class="g5_354" />
<path d="M412.5,270.3l135.2,0" class="g5_354" />
<path d="M547.7,270.3l66.1,0" class="g5_354" />
<path d="M613.8,270.3l189.2,0" class="g5_354" />
<path d="M803,270.3l63.3,0" class="g5_354" />
<path d="M55,818.4l178.8,0" class="g5_354" />
<path d="M233.8,818.4l178.7,0" class="g5_354" />
<path d="M412.5,818.4l135.2,0" class="g5_354" />
<path d="M547.7,818.4l66.1,0" class="g5_354" />
<path d="M613.8,818.4l189.2,0" class="g5_354" />
<path d="M803,818.4l63.3,0" class="g5_354" />
<path d="M55,101.1l178.8,0" class="g7_354" />
<path d="M233.8,101.1l178.7,0" class="g7_354" />
<path d="M412.5,101.1l135.2,0" class="g7_354" />
<path d="M547.7,101.1l66.1,0" class="g7_354" />
<path d="M613.8,101.1l189.2,0" class="g7_354" />
<path d="M803,101.1l63.3,0" class="g7_354" />
<text 
x="61" 
y="85" 
dx="0,0,0,0,0,0,0,0,0,0" 
class="s2_354"
>Simplified</text>

<text 
x="239" 
y="85" 
dx="0,-1.2,-0.1,0,0,0,0,0,0,0,0" 
class="s2_354"
>Traditional</text>

<text 
x="418" 
y="85" 
dx="0,0,0,0,0,0" 
class="s2_354"
>Pinyin</text>

<text 
x="553" 
y="75" 
dx="0,0,0,0,0,0,-0.2,0" 
class="s2_354"
>Part of </text>

<text 
x="553" 
y="94" 
dx="0,0,0,0,0,0" 
class="s2_354"
>Speech</text>

<text 
x="619" 
y="85" 
dx="0,0,0,0,0,0,0" 
class="s2_354"
>English</text>

<text 
x="809" 
y="85" 
dx="0,0,0,0,0,0" 
class="s2_354"
>Lesson</text>

<text 
x="61" 
y="131" 
dx="0,0" 
class="s3_354"
>柜子</text>

<text 
x="239" 
y="131" 
dx="0,0" 
class="s4_354"
>櫃子</text>

<text 
x="418" 
y="129" 
dx="0,0.2,0.2,0.2,0.2" 
class="s5_354"
>guìzi</text>

<text 
x="553" 
y="129" 
dx="0" 
class="s6_354"
>n</text>

<text 
x="619" 
y="129" 
dx="0,0,0,0,0,0,0,0,0,0,0,0,0,0,0,0,-0.2" 
class="s7_354"
>cabinet, cupboard</text>

<text 
x="809" 
y="129" 
dx="0" 
class="s8_354"
>2</text>

<text 
x="61" 
y="173" 
dx="0,0,0" 
class="s3_354"
>过几天</text>

<text 
x="239" 
y="173" 
dx="0,0,0" 
class="s4_354"
>過幾天</text>

<text 
x="418" 
y="171" 
dx="0,0.2,0.2,0.2,0.2,0.2,0.2,0.2,0.2,0.2,0.2" 
class="s5_354"
>guò jǐ tiān</text>

<text 
x="619" 
y="171" 
dx="0,0,0,0,0,0,-0.3,0,0,0,0,0,0" 
class="s7_354"
>in a few days</text>

<text 
x="809" 
y="171" 
dx="0" 
class="s8_354"
>2</text>

<text 
x="61" 
y="215" 
dx="0,0" 
class="s3_354"
>过节</text>

<text 
x="239" 
y="215" 
dx="0,0" 
class="s4_354"
>過節</text>

<text 
x="418" 
y="213" 
dx="0,0.2,0.2,0.2,0.2,0.2,0.2" 
class="s5_354"
>guò jié</text>

<text 
x="553" 
y="214" 
dx="0,-0.4" 
class="s6_354"
>vo</text>

<text 
x="619" 
y="213" 
dx="0,-0.2,0,0,0,0,0,0,0,0,0,-0.2,0,0,0,0,0,0,0,0,0,0" 
class="s7_354"
>to celebrate a holiday</text>

<text 
x="809" 
y="214" 
dx="0,0" 
class="s8_354"
>10</text>

<text 
x="453" 
y="258" 
dx="0" 
class="s9_354"
>H</text>

<text 
x="61" 
y="300" 
dx="0,0,0" 
class="s3_354"
>哈尔滨</text>

<text 
x="239" 
y="300" 
dx="0,0,0" 
class="s4_354"
>哈爾濱</text>

<text 
x="418" 
y="297" 
dx="0,0.2,0.2,0.2,0.2,0.2,0.2,0.2" 
class="s5_354"
>Hā’ěrbīn</text>

<text 
x="553" 
y="298" 
dx="0,0" 
class="s6_354"
>pn</text>

<text 
x="619" 
y="298" 
dx="0,0,0,0,0,0" 
class="s7_354"
>Harbin</text>

<text 
x="809" 
y="298" 
dx="0,0" 
class="s8_354"
>10</text>

<text 
x="61" 
y="342" 
dx="0" 
class="s3_354"
>海</text>

<text 
x="239" 
y="342" 
dx="0" 
class="s4_354"
>海</text>

<text 
x="418" 
y="340" 
dx="0,0.2,0.2,0" 
class="s5_354"
>hǎi </text>

<text 
x="553" 
y="340" 
dx="0" 
class="s6_354"
>n</text>

<text 
x="619" 
y="340" 
dx="0,0,0,0,0,0,0,0,0,0" 
class="s7_354"
>sea, ocean</text>

<text 
x="809" 
y="340" 
dx="0,0" 
class="s8_354"
>10</text>

<text 
x="61" 
y="384" 
dx="0" 
class="s3_354"
>害</text>

<text 
x="239" 
y="384" 
dx="0" 
class="s4_354"
>害</text>

<text 
x="418" 
y="382" 
dx="0,0.2,0.2" 
class="s5_354"
>hài</text>

<text 
x="553" 
y="382" 
dx="0" 
class="s6_354"
>v</text>

<text 
x="619" 
y="382" 
dx="0,-0.2,0,0,0,0,0,0,0,0,0,-0.2,0,0,0,0,0,0,0,-0.2,0,0,0,0,0" 
class="s7_354"
>to cause trouble, to harm</text>

<text 
x="809" 
y="382" 
dx="0" 
class="s8_354"
>7</text>

<text 
x="61" 
y="426" 
dx="0,0" 
class="s3_354"
>杭州</text>

<text 
x="239" 
y="426" 
dx="0,0" 
class="s4_354"
>杭州</text>

<text 
x="418" 
y="424" 
dx="0,0.2,0.2,0.2,0.2,0.2,0.2,0.2" 
class="s5_354"
>Hángzhōu</text>

<text 
x="553" 
y="424" 
dx="0,0" 
class="s6_354"
>pn</text>

<text 
x="619" 
y="424" 
dx="0,0,0,0,0,0,0,0,0" 
class="s7_354"
>Hangzhou </text>

<text 
x="809" 
y="424" 
dx="0" 
class="s8_354"
>3</text>

<text 
x="61" 
y="468" 
dx="0,0" 
class="s3_354"
>好处</text>

<text 
x="239" 
y="468" 
dx="0,0" 
class="s4_354"
>好處</text>

<text 
x="418" 
y="466" 
dx="0,0.2,0.2,0.2,0.2,0.2" 
class="s5_354"
>hǎochu</text>

<text 
x="553" 
y="467" 
dx="0" 
class="s6_354"
>n</text>

<text 
x="619" 
y="466" 
dx="0,0,0,0,0,0,0,0,-0.1,0,0,0,0,0,0,0,0,0" 
class="s7_354"
>advantage, benefit</text>

<text 
x="809" 
y="467" 
dx="0" 
class="s8_354"
>1</text>

<text 
x="61" 
y="511" 
dx="0,0" 
class="s3_354"
>好看</text>

<text 
x="239" 
y="511" 
dx="0,0" 
class="s4_354"
>好看</text>

<text 
x="418" 
y="508" 
dx="0,0.2,0.2,0.2,0.2,0.2" 
class="s5_354"
>hǎokàn</text>

<text 
x="553" 
y="509" 
dx="0,0,0" 
class="s6_354"
>adj</text>

<text 
x="619" 
y="508" 
dx="0,0,0,0,0,0,0,0,0,0,0,0,0,0,0,0,0,0,0,0,0,0,0,-0.4" 
class="s7_354"
>nice-looking, attractive</text>

<text 
x="809" 
y="509" 
dx="0" 
class="s8_354"
>4</text>

<text 
x="61" 
y="553" 
dx="0,0" 
class="s3_354"
>河流</text>

<text 
x="239" 
y="553" 
dx="0,0" 
class="s4_354"
>河流</text>

<text 
x="418" 
y="550" 
dx="0,0.2,0.2,0.2,0.2,0" 
class="s5_354"
>héliú </text>

<text 
x="553" 
y="551" 
dx="0,0" 
class="s6_354"
>n </text>

<text 
x="619" 
y="551" 
dx="0,0,0,-0.4,0" 
class="s7_354"
>river</text>

<text 
x="809" 
y="551" 
dx="0,0" 
class="s8_354"
>10</text>

<text 
x="61" 
y="595" 
dx="0,0" 
class="s3_354"
>湖南</text>

<text 
x="239" 
y="595" 
dx="0,0" 
class="s4_354"
>湖南</text>

<text 
x="418" 
y="593" 
dx="0,0.2,0.2,0.2,0.2" 
class="s5_354"
>Húnán</text>

<text 
x="553" 
y="593" 
dx="0,0" 
class="s6_354"
>pn</text>

<text 
x="619" 
y="593" 
dx="0,0,0,0,0,0" 
class="s7_354"
>Hunan </text>

<text 
x="809" 
y="593" 
dx="0" 
class="s8_354"
>3</text>

<text 
x="61" 
y="637" 
dx="0,0,0" 
class="s3_354"
>画画儿</text>

<text 
x="239" 
y="637" 
dx="0,0,0" 
class="s4_354"
>畫畫兒</text>

<text 
x="418" 
y="635" 
dx="0,0.2,0.2,0.2,0.2,0.2,0.2,0.2" 
class="s5_354"
>huà huàr</text>

<text 
x="553" 
y="635" 
dx="0,-0.4" 
class="s6_354"
>vo</text>

<text 
x="619" 
y="635" 
dx="0,-0.2,0,0,0,0,0,-1,0,0,-0.2,0,0,0,0,0,0" 
class="s7_354"
>to draw, to paint</text>

<text 
x="809" 
y="635" 
dx="0" 
class="s8_354"
>9</text>

<text 
x="61" 
y="679" 
dx="0,0" 
class="s3_354"
>化学</text>

<text 
x="239" 
y="679" 
dx="0,0" 
class="s4_354"
>化學</text>

<text 
x="418" 
y="677" 
dx="0,0.2,0.2,0.2,0.2,0.2" 
class="s5_354"
>huàxué</text>

<text 
x="553" 
y="677" 
dx="0" 
class="s6_354"
>n</text>

<text 
x="619" 
y="677" 
dx="0,0,0,0,0,0,0,0,0" 
class="s7_354"
>chemistry</text>

<text 
x="809" 
y="677" 
dx="0" 
class="s8_354"
>5</text>

<text 
x="61" 
y="721" 
dx="0,0,0" 
class="s3_354"
>黄河 </text>

<text 
x="239" 
y="721" 
dx="0,0" 
class="s4_354"
>黃河</text>

<text 
x="418" 
y="719" 
dx="0,0.2,0.2,0.2,0.2,0.2,0.2,0" 
class="s5_354"
>Huánghé </text>

<text 
x="553" 
y="720" 
dx="0,0" 
class="s6_354"
>pn</text>

<text 
x="619" 
y="719" 
dx="0,-1.4,0,0,0,0,0,0,0,0,-0.4,0" 
class="s7_354"
>Yellow River</text>

<text 
x="809" 
y="720" 
dx="0,0" 
class="s8_354"
>10</text>

<text 
x="61" 
y="764" 
dx="0,0" 
class="s3_354"
>火车</text>

<text 
x="239" 
y="764" 
dx="0,0" 
class="s4_354"
>火車</text>

<text 
x="418" 
y="761" 
dx="0,0.2,0.2,0.2,0.2,0.2" 
class="s5_354"
>huǒchē</text>

<text 
x="553" 
y="762" 
dx="0" 
class="s6_354"
>n</text>

<text 
x="619" 
y="761" 
dx="0,0,0,0,0" 
class="s7_354"
>train</text>

<text 
x="809" 
y="762" 
dx="0,0" 
class="s8_354"
>10</text>

<text 
x="456" 
y="806" 
dx="0" 
class="s9_354"
>J</text>

<text 
x="61" 
y="848" 
dx="0" 
class="s3_354"
>鸡</text>

<text 
x="239" 
y="848" 
dx="0" 
class="s4_354"
>雞</text>

<text 
x="418" 
y="846" 
dx="0,0.2,0" 
class="s5_354"
>jī </text>

<text 
x="553" 
y="846" 
dx="0" 
class="s6_354"
>n</text>

<text 
x="619" 
y="846" 
dx="0,0,0,0,0,-0.3,0" 
class="s7_354"
>chicken</text>

<text 
x="809" 
y="846" 
dx="0" 
class="s8_354"
>3</text>

<text 
x="61" 
y="890" 
dx="0,0" 
class="s3_354"
>急忙</text>

<text 
x="239" 
y="890" 
dx="0,0" 
class="s4_354"
>急忙</text>

<text 
x="418" 
y="888" 
dx="0,0.2,0.2,0.2,0.2,0.2" 
class="s5_354"
>jímáng</text>

<text 
x="553" 
y="888" 
dx="0,0,0" 
class="s6_354"
>adv</text>

<text 
x="619" 
y="888" 
dx="0,0,0,0,0,0,0,-0.9,0,0,0,0,0,0,0,0,0,0,0" 
class="s7_354"
>hastily, in a hurry</text>

<text 
x="809" 
y="888" 
dx="0" 
class="s8_354"
>7</text>

<text 
x="61" 
y="934" 
dx="0" 
class="s3_354"
>挤</text>

<text 
x="239" 
y="934" 
dx="0" 
class="s4_354"
>擠</text>

<text 
x="418" 
y="931" 
dx="0,0.2" 
class="s5_354"
>jǐ</text>

<text 
x="553" 
y="932" 
dx="0,0,0,0,0" 
class="s6_354"
>adj/v</text>

<text 
x="619" 
y="922" 
dx="0,0,-0.2,0,0,0,0,0,0,0,-0.2,0,0,0,0,0,0,0,0,0,0,0,0,0,0,0" 
class="s7_354"
>crowded; to push against, </text>

<text 
x="619" 
y="942" 
dx="0,-0.2,0,0,0,0,0,0,0,0" 
class="s7_354"
>to squeeze</text>

<text 
x="809" 
y="932" 
dx="0,0" 
class="s8_354"
>10</text>

<text 
x="61" 
y="978" 
dx="0" 
class="s3_354"
>加</text>

<text 
x="239" 
y="978" 
dx="0" 
class="s4_354"
>加</text>

<text 
x="418" 
y="975" 
dx="0,0.2,0.2" 
class="s5_354"
>jiā</text>

<text 
x="553" 
y="976" 
dx="0" 
class="s6_354"
>v</text>

<text 
x="619" 
y="975" 
dx="0,-0.2,0,0,0,0" 
class="s7_354"
>to add</text>

<text 
x="809" 
y="976" 
dx="0" 
class="s8_354"
>4</text>

<text 
x="61" 
y="1020" 
dx="0,0" 
class="s3_354"
>家教</text>

<text 
x="239" 
y="1020" 
dx="0,0" 
class="s4_354"
>家教</text>

<text 
x="418" 
y="1017" 
dx="0,0.2,0.2,0.2,0.2,0.2,0.2" 
class="s5_354"
>jiājiào</text>

<text 
x="553" 
y="1018" 
dx="0" 
class="s6_354"
>n</text>

<text 
x="619" 
y="1018" 
dx="0,0,0,-0.2,0" 
class="s7_354"
>tutor</text>

<text 
x="809" 
y="1018" 
dx="0" 
class="s8_354"
>8</text>

<text 
x="61" 
y="1062" 
dx="0,0" 
class="s3_354"
>家庭</text>

<text 
x="239" 
y="1062" 
dx="0,0" 
class="s4_354"
>家庭</text>

<text 
x="418" 
y="1060" 
dx="0,0.2,0.2,0.2,0.2,0.2,0.2" 
class="s5_354"
>jiātíng</text>

<text 
x="553" 
y="1060" 
dx="0" 
class="s6_354"
>n</text>

<text 
x="619" 
y="1060" 
dx="0,0,0,0,0,0,-0.9,0,0,0,0,0,0,0,0,0,0" 
class="s7_354"
>family, household</text>

<text 
x="809" 
y="1060" 
dx="0" 
class="s8_354"
>8</text>

<text 
x="61" 
y="1106" 
dx="0,0" 
class="s3_354"
>家乡</text>

<text 
x="239" 
y="1106" 
dx="0,0" 
class="s4_354"
>家鄉</text>

<text 
x="418" 
y="1103" 
dx="0,0.2,0.2,0.2,0.2,0.2,0.2,0.2" 
class="s5_354"
>jiāxiāng</text>

<text 
x="553" 
y="1104" 
dx="0" 
class="s6_354"
>n</text>

<text 
x="619" 
y="1094" 
dx="0,0,0,0,0,-0.2,0,0,0,0,0,0,0,0,0,0,0,-0.2,0" 
class="s7_354"
>hometown, place of </text>

<text 
x="619" 
y="1113" 
dx="0,0,0,0,0,0,0,0,0,0,0,0,0" 
class="s7_354"
>family origin</text>

<text 
x="809" 
y="1104" 
dx="0,0" 
class="s8_354"
>10</text>



<!-- Any embedded fonts defined here -->
<style type="text/css" ><![CDATA[

@font-face {
	font-family: GentiumBookBasic-Italic_3o-;
	src: url("fonts/GentiumBookBasic-Italic_3o-.woff") format("woff");
}

@font-face {
	font-family: LibreFranklin-Regular_45s;
	src: url("fonts/LibreFranklin-Regular_45s.woff") format("woff");
}

@font-face {
	font-family: STKaiTi-TC-Regular_3pl;
	src: url("fonts/STKaiTi-TC-Regular_3pl.woff") format("woff");
}

@font-face {
	font-family: LibreFranklin-SemiBold_45y;
	src: url("fonts/LibreFranklin-SemiBold_45y.woff") format("woff");
}

@font-face {
	font-family: STKaiti-SC-Regular_3pn;
	src: url("fonts/STKaiti-SC-Regular_3pn.woff") format("woff");
}

@font-face {
	font-family: LibreFranklin-Light_45u;
	src: url("fonts/LibreFranklin-Light_45u.woff") format("woff");
}

]]></style>

</svg>
