<?xml version="1.0" encoding="UTF-8" standalone="no"?>
<!DOCTYPE svg PUBLIC "-//W3C//DTD SVG 1.1//EN"
"http://www.w3.org/Graphics/SVG/1.1/DTD/svg11.dtd">


<!-- Page 93 -->
<svg x="0" y="0" width="921" height="1196" viewBox="0 0 921 1196" version="1.1" xmlns="http://www.w3.org/2000/svg" xmlns:xlink="http://www.w3.org/1999/xlink"
style="display: block;margin-left: auto;margin-right: auto;">
<defs>
<clipPath id="c0_93"><path d="M286.4,76.1l0,-26.2l26.1,0l0,26.2Z" /></clipPath>
<clipPath id="c1_93"><path d="M289.6,248.7l0,-26.1l19.7,0l0,26.1Z" /></clipPath>
<clipPath id="c2_93"><path d="M286.4,302.2l0,-26.1l26.1,0l0,26.1Z" /></clipPath>
<clipPath id="c3_93"><path d="M286.4,355.7l0,-26.2l26.1,0l0,26.2Z" /></clipPath>
<clipPath id="c4_93"><path d="M287.2,409.1l0,-26.1l25.2,0l0,26.1Z" /></clipPath>
<clipPath id="c5_93"><path d="M286.4,462.6l0,-26.1l26.1,0l0,26.1Z" /></clipPath>
<clipPath id="c6_93"><path d="M286.4,516.1l0,-26.2l26.1,0l0,26.2Z" /></clipPath>
<clipPath id="c7_93"><path d="M289.6,569.6l0,-26.2l19.7,0l0,26.2Z" /></clipPath>
<clipPath id="c8_93"><path d="M0,1196.3L0,0L921.3,0l0,1196.3Z" /></clipPath>

<style type="text/css"><![CDATA[

.g1_93{
fill: none;
stroke: #DC262E;
stroke-width: 1.5277778;
stroke-linecap: butt;
stroke-linejoin: miter;
}
.g2_93{
fill: #00AEEF;
}
.g3_93{
fill: #652D91;
}
.g4_93{
fill: #AF0C14;
}
.g5_93{
fill: #00A54F;
}
.g6_93{
fill: none;
stroke: #9B9B9C;
stroke-width: 1.5277778;
stroke-linecap: butt;
stroke-linejoin: miter;
}
.g7_93{
fill: none;
stroke: #F8D3C4;
stroke-width: 1.5277778;
stroke-linecap: butt;
stroke-linejoin: miter;
stroke-miterlimit: 4;
}
.g8_93{
fill: #DC262E;
stroke: #B2B3B7;
stroke-width: 1.5277778;
stroke-linecap: butt;
stroke-linejoin: miter;
stroke-miterlimit: 4;
}

.s1_93{
font-size: 25.97px;
font-family: STKaiti-SC-Bold_3oi;
fill: #67962C;
}
.s2_93{
font-size: 25.97px;
font-family: STKaiti-SC-Regular_3pn;
fill: #3F3F40;
}
.s3_93{
font-size: 25.97px;
font-family: STKaiti-SC-Bold_3oi;
fill: #DE4639;
}
.s4_93{
font-size: 10.69px;
font-family: LibreFranklin-ExtraBold_3ul;
fill: #DC262E;
}
.s5_93{
font-size: 16.04px;
font-family: LibreFranklin-SemiBold_3u_;
fill: #DC262E;
}
.s6_93{
font-size: 15.28px;
font-family: LibreFranklin-Bold_3up;
fill: #DC262E;
}
.s7_93{
font-size: 25.97px;
font-family: STKaiti-SC-Bold_3oi;
fill: #DC262E;
}
.s8_93{
font-size: 25.97px;
font-family: STKaiTi-TC-Bold_3op;
fill: #DC262E;
}
.s9_93{
font-size: 19.86px;
font-family: STKaiti-SC-Regular_3pn;
fill: #3F3F40;
}
.s10_93{
font-size: 12.22px;
font-family: LibreFranklin-Regular_3uw;
fill: #231F20;
}
.s11_93{
font-size: 19.86px;
font-family: STKaiTi-TC-Regular_3pl;
fill: #3F3F40;
}
.s12_93{
font-size: 16.81px;
font-family: MuseoSans-700_3v0;
fill: #DC262E;
}
.s13_93{
font-size: 12.22px;
font-family: LibreFranklin-Regular_3uw;
fill: #3F3F40;
}
.s14_93{
font-size: 15.28px;
font-family: LibreFranklin-Bold_3up;
fill: #939598;
}
.s15_93{
font-size: 16.81px;
font-family: SourceHanSansCN-Normal_3q5;
fill: #3F3F40;
}
.s16_93{
font-size: 11.08px;
font-family: LibreFranklin-SemiBold_3u_;
fill: #FFFFFF;
}

]]></style>

</defs>
<path d="M0,0
L0,1196
L921,1196
L921,0 Z " 
fill="#FFFFFF" stroke="none" />
<path d="M417.8,335l6.6,0" class="g1_93" />
<text 
x="313" 
y="73" 
dx="0,0,0,0" 
class="s1_93"
>这就要看</text>

<text 
x="417" 
y="73" 
dx="0,0,0,0" 
class="s2_93"
>你的口味</text>

<text 
x="521" 
y="73" 
dx="0" 
class="s1_93"
>了</text>

<text 
x="547" 
y="73" 
dx="0" 
class="s2_93"
>。</text>

<text 
x="573" 
y="73" 
dx="0,0,0" 
class="s1_93"
>比方说</text>

<text 
x="651" 
y="73" 
dx="0,0,0,0" 
class="s2_93"
>我爱吃甜</text>

<text 
x="313" 
y="113" 
dx="0,0,0,0,0,0,0,0,0,0,0,0,0,0,0,0,0" 
class="s2_93"
>的，就喜欢上海菜；柯林爱吃辣的，就</text>

<text 
x="313" 
y="153" 
dx="0,0,0,0,0,0,0,0,0,0,0,0,0,0,0,0,0" 
class="s2_93"
>喜欢四川菜、湖南菜。要是喜欢比较清</text>

<text 
x="313" 
y="192" 
dx="0,0,0,0,0,0,0,0,0,0" 
class="s2_93"
>淡的，就吃广东菜……</text>

<text 
x="313" 
y="246" 
dx="0,0,0,0,0,0,0,0,0,0,0,0" 
class="s2_93"
>雪梅，我们寒假去中国吧。</text>

<text 
x="313" 
y="299" 
dx="0,0,0,0,0,0,0,0,0,0,0,0,0,0,0,0" 
class="s2_93"
>去中国旅行，吃中国菜？可以考虑。</text>

<text 
x="313" 
y="353" 
dx="0,0" 
class="s2_93"
>这个</text>

<text 
x="365" 
y="353" 
dx="0,0" 
class="s3_93"
>主意</text>

<text 
x="417" 
y="331" 
dx="0" 
class="s4_93"
>d</text>

<text 
x="424" 
y="353" 
dx="0,0,0,0,0,0,0,0,0,0" 
class="s2_93"
>不错，我也可以考虑。</text>

<text 
x="313" 
y="406" 
dx="0,0,0,0,0,0,0,0,0,0,0,0,0,0" 
class="s2_93"
>有吃有玩儿？我当然可以考虑。</text>

<text 
x="313" 
y="460" 
dx="0,0,0,0,0,0,0,0,0,0,0,0,0" 
class="s2_93"
>真的？那太好了！大家都去！</text>

<text 
x="313" 
y="513" 
dx="0,0,0,0,0,0,0,0,0,0,0,0,0,0" 
class="s2_93"
>要是能去中国学中文就更好了。</text>

<text 
x="313" 
y="567" 
dx="0,0,0,0,0,0,0,0,0" 
class="s2_93"
>哎，我们的菜来了。</text>

<path d="M299.5,60.6c0,0,0.1,-0.4,-0.3,-0.6c-0.5,-0.3,-1,-0.5,-2.2,-0.5c-1.2,0.1,-1.4,0.4,-1.4,0.4c0,0,0.7,-0.1,1.1,0c0.4,0,0.9,0,1.5,0.3c0.5,0.3,1,0.5,1.3,0.4Z" class="g2_93" />
<path d="M304,60.5c0,0,-0.8,-0.1,-1.2,0c-0.4,0,-0.6,0.2,-0.5,0.4c0.1,0.1,0.5,0.2,1.2,0.2c0.6,0,0.6,0,0.7,0.1c0.1,0,-0.2,-0.7,-0.2,-0.7Z" class="g2_93" />
<path d="M297.7,61.5c-0.1,0,-0.1,-0.1,-0.1,-0.1c0,-0.1,0,-0.2,0.1,-0.2c0.1,0,0.1,0.1,0.1,0.2c0,0,0,0.1,-0.1,0.1m0.4,-0.4c-1,-0.5,-1.9,0.1,-1.9,0.1l0.4,0.2c0,0,0.1,-0.2,0.4,-0.2c0.2,-0.1,0.4,-0.1,0.4,-0.1c0,0,-0.2,0.6,0.2,0.7c0.5,0.1,0.6,0,0.7,-0.2c0.1,-0.1,0,-0.2,0,-0.2c0,0,0.4,0,0.7,0.6c0,0,0.1,-0.5,-0.9,-0.9Z" class="g2_93" />
<path d="M303.4,62.4c-0.1,0,-0.1,-0.1,-0.1,-0.2c0,0,0,-0.1,0.1,-0.1c0.1,0,0.1,0.1,0.1,0.1c0,0.1,0,0.2,-0.1,0.2M304.1,62c0,0,-0.3,-0.1,-0.8,-0.1c-0.5,0,-1,0.7,-1,0.7l0.3,0c0,0,0,-0.3,0.4,-0.4c0,0.2,-0.1,0.3,0.4,0.5c0.4,0.1,0.5,-0.1,0.6,-0.2c0,-0.1,0,-0.4,0,-0.4Z" class="g2_93" />
<path d="M301.7,61.7c-0.1,0,-0.7,1,-0.8,1.7c-0.1,0.6,-0.2,1.4,-0.1,1.6c0.2,0.2,0.4,0.7,0.4,0.8c0,0.1,0.3,0,0.3,-0.1c0,-0.1,0.1,-0.6,0.2,-0.5c0.1,0.1,0.3,0.4,0.3,0.5c-0.1,0.2,0,0.6,-0.2,0.6c-0.2,0,-0.3,-0.1,-0.6,-0.1c-0.2,0.1,-0.3,0.1,-0.5,0.2c-0.2,0.2,-0.6,0.2,-0.7,0.1C299.8,66.4,299.6,66,299.3,66c-0.3,-0.1,-0.4,0,-0.4,0c0,0,0.2,0,0.4,0.2c0.3,0.1,0.6,0.5,0.9,0.5c0.3,0,0.8,-0.3,1.1,-0.3c0,0,0.2,0.1,0.5,0.1c0.2,-0.1,0.5,-0.5,0.3,-1.1c-0.2,-0.5,-0.3,-0.4,-0.5,-0.7c-0.1,-0.3,-0.3,-1.1,-0.2,-1.6c0,-0.5,0.3,-1.4,0.3,-1.4Z" class="g2_93" />
<path d="M298,65.2c-0.1,0.1,-1,0.7,-1.4,1c-0.4,0.3,-0.6,0.4,-0.5,0.7c0.1,0.3,0.3,0.8,0.3,0.8c0,0,-0.6,-1,-0.6,-1.1c0.1,-0.2,2.2,-1.4,2.2,-1.4Z" class="g2_93" />
<path d="M300,68.7c-1,0,-1.2,-0.4,-1.5,-0.5c-0.3,-0.2,-0.9,-0.8,-0.9,-0.8c0,0,2,0.5,2.3,0.5c0.3,0,0.8,0.1,1.3,0.1c0.5,0.1,0.6,0.1,0.6,0.1c0,0,-0.8,0.7,-1.8,0.6m2.4,-0.9c-0.1,0.1,-0.5,0.1,-1,0c-0.5,-0.1,-0.8,-0.3,-1,-0.3c-0.1,0,-0.4,0,-0.6,0c-0.3,-0.1,-0.6,-0.2,-0.8,-0.2c-0.2,0,-1.1,-0.1,-1.4,-0.2c-0.3,0,-0.7,-0.3,-0.8,-0.3c0,0,0.6,1.4,1.1,1.7c0.4,0.3,1,0.7,1,0.7c0,0,-0.1,-0.1,-0.3,-0.3c-0.2,-0.2,0.3,0,0.2,-0.1c-0.1,-0.1,-0.5,-0.2,-0.6,-0.3c-0.1,-0.1,0.2,-0.2,0.5,0c0.3,0.2,0.3,0.2,0.5,0.3c0.2,0.1,0.1,0.2,0.1,0.3c0.1,0.2,-0.3,0.2,0.1,0.2c0.4,0,1.3,0,1.8,-0.2c0.5,-0.2,0.7,-0.4,0.9,-0.8c0.2,-0.4,0.4,-0.5,0.3,-0.5Z" class="g2_93" />
<path d="M298.8,71.7c0,0,0.5,0.3,1.4,0c0.8,-0.2,3,-2,3,-2c0,0,0.1,0.1,0,0.5c0,0.4,-0.2,0.3,-0.1,1.1c0.2,0.9,0.3,1.3,0.4,1.5c0,0.2,0,0.3,-0.1,0.4c-0.2,0.1,0,-0.6,-0.3,-1c-0.3,-0.4,-0.1,-0.5,-0.6,-0.6c-0.5,-0.1,-0.6,-0.2,-0.9,0c-0.3,0.3,0,0.3,-0.9,0.4c-0.9,0.1,-1.8,-0.1,-1.9,-0.3Z" class="g2_93" />
<g clip-path="url(#c0_93)">
<path d="M288.2,74.8c-0.1,0.2,0.5,-0.7,0.6,-0.5c0.2,0.2,0.1,0,0.5,1.3c0.4,1.3,1.6,4.8,5.5,4.9c3.9,0.2,7.3,-1.2,7.3,-1.2c0,0,-5.4,1.7,-8.3,0.7c-2.8,-1,-3.2,-2.3,-3.5,-3c-0.3,-0.7,-0.6,-1.4,-0.9,-2c-0.3,-0.5,-0.5,-1.5,-1.2,-0.2Z" class="g2_93" />
<path d="M309.9,73.4c0.2,0,0.4,0.1,0.4,0.3c0,0,-0.5,0.2,-0.9,0.5c-0.4,0.4,-1.5,2,-2.5,2.8c-0.9,0.8,-1.7,2.1,-3.7,3c-2,0.9,-3.4,1.2,-3.5,1.2c-0.1,0,4.3,-1.6,6.1,-3.3c1.7,-1.8,2.3,-2.7,2.8,-3.2c0.5,-0.6,1.3,-1.3,1.3,-1.3Z" class="g2_93" />
<path d="M287.3,74.7c-0.4,0.1,-0.3,0.3,-1,0.4c-0.6,0.2,-2.4,2.3,-2.7,4.9c-0.3,2.6,0.6,-0.8,1,-0.6c0.3,0.3,0.6,0.5,0.9,1c0.3,0.6,1.6,1.5,1.4,0.8c-0.2,-0.8,-0.8,-1.8,-0.1,-2.4c0.7,-0.6,0.5,-1.8,1,-1.9c0.5,-0.2,1.1,0.4,1.3,1.1c0.2,0.6,1.1,1.2,1,1.2C290,79.1,288.9,76.8,288.7,76c-0.2,-0.7,-0.4,-0.8,-0.6,-1c-0.3,-0.2,-0.8,-0.3,-0.8,-0.3Z" class="g2_93" />
<path d="M309.9,77.9c-0.9,1.3,-1.3,3.6,-1.3,3.6c0,0,0.9,-2.8,1.7,-3.7c0.7,-0.8,1.6,-2,2.3,-2.2c0.7,-0.2,1.2,-0.3,1.6,0.4c0.4,0.8,0.9,2.3,0.9,2.5c0,0.3,0,-0.3,0.2,-0.5c0.2,-0.2,0.1,-0.4,-0.2,-0.9c-0.3,-0.6,-0.8,-2.2,-2.3,-2.5c-1.5,-0.3,-1.9,-0.4,-2.3,-0.3c-0.4,0.1,-1.4,1,-2.5,2.3c-1.1,1.2,1.4,-1.3,2.4,-1.7c1.1,-0.3,2.7,-0.3,2.4,0c-0.3,0.3,-2,1.6,-2.9,3Z" class="g2_93" />
</g>
<path d="M290.4,74.8c0,0,1.3,-0.1,3.6,-1.8c2.3,-1.7,1.7,-1.2,1.7,-1.7c0.1,-0.5,0,2,-2.3,2.7c-2.2,0.7,-3,0.8,-3,0.8Z" class="g2_93" />
<g clip-path="url(#c0_93)">
<path d="M308.3,68.3c-0.1,0,-0.1,0,-0.2,-0.1c-1.1,-0.5,-0.9,-0.8,-1.6,-1.6c-0.6,-0.9,-1.1,-2.5,-2,-5c-0.8,-2.4,-1.3,-2.9,-1.3,-2.9c-0.4,-0.7,-2.1,-3.2,-1.9,-3c0.1,0.1,2.9,3.3,3.4,5.6c0.6,2.4,2.2,4.9,2.8,6.1c0.2,0.4,0.5,0.7,0.8,0.9c0.9,0.4,1.2,0.5,1.2,0.5c0,0,-0.6,-0.1,-1.2,-0.5m-8.8,-16c0.1,0,1.7,0.1,3.3,1.2c1.6,1.2,2,1.2,3.3,3.2c1.3,2,-0.1,0.2,-1.8,-1.5c-2.2,-2.3,-4.8,-2.9,-4.8,-2.9m2.2,-1.2c0.9,0.1,2.2,0.6,2.5,0.9c0.6,0.4,1.1,1,1.7,1.7c0.6,0.7,1.1,1.3,1.9,2.8c0.8,1.5,1.7,4.2,2.1,6c0.3,1.5,0.7,2.6,0.8,3c0,0.1,0.1,0.2,0.1,0.2c0,0,-0.1,-0.1,-0.1,-0.2c-0.3,-0.8,-1.5,-4.2,-1.7,-5.1c-0.3,-1.1,-1.6,-4.3,-2.6,-5.5c-1,-1.3,-1.8,-2.2,-2.7,-2.7c-1,-0.5,-3.5,-1.1,-3.5,-1.1c0.1,-0.2,0.7,-0.2,1.5,0m-6.1,4c-0.6,0.5,-0.9,1,-1.8,2.1c-0.8,1.1,-1.1,5.8,-1.1,6.3c-0.1,0.3,-0.7,1.9,-1.2,3.1c-0.1,0.6,-0.2,1.1,-0.4,1.3c-0.1,0.1,0.1,-0.5,0.4,-1.3c0.1,-0.3,0.2,-0.6,0.3,-1c0.3,-1.2,0.5,-3,0.5,-3c0,0,-0.4,0.9,-1,1.5c-0.6,0.6,-1.7,1.6,-1.7,1.6c-0.1,0.1,0.4,-0.5,0.9,-1.3c0.6,-0.7,1.8,-2.2,2,-3.2c0.2,-1,0.4,-2.8,0.1,-2.2c-0.2,0.4,-1,1.7,-1.4,2.4c-0.1,0.2,-0.2,0.3,-0.2,0.4c-0.1,0,0,-0.1,0.2,-0.4c0.3,-0.6,0.7,-1.5,1,-2.3c0.4,-1,0.3,-1.8,0.7,-2.6c0.4,-0.9,0.9,-1,1.4,-1.6c0.5,-0.5,1,-0.5,1.1,-0.5c0,0,-0.1,0.4,-0.6,0.8c-0.5,0.3,-0.6,0.4,-0.8,0.7c-0.2,0.3,-0.7,1.9,-0.7,1.9c0,0,0.2,-0.3,0.6,-1.2c0.5,-0.8,1.9,-1.7,1.7,-1.5m-5.8,14.7c-0.3,-1.5,-0.5,-1.9,-0.4,-2.2c0,-0.1,0.3,-0.4,0.4,-0.5c-0.1,0.1,-0.2,0.3,-0.2,0.7c0.1,0.7,0.1,1.7,0.6,2.4c0.2,0.3,0.5,0.8,0.9,1.2c-0.4,-0.2,-1.1,-0.6,-1.3,-1.6M309.3,71c0.4,-0.3,1.9,-3.2,1.8,-5.4c-0.1,-2.2,-1.6,-8,-2.6,-10.3c-1.1,-2.3,-3.2,-4.5,-4.7,-5c-1.5,-0.6,-3.3,-0.3,-3.6,-0.2c-0.3,0,-1.4,-0.2,-1.8,-0.1c-0.3,0,-1.1,0,-1.9,0.3c-0.7,0.3,-3.2,2.1,-4.4,4.7c-1.2,2.6,-1,5.2,-1.2,5.9c-0.2,0.7,-1.3,1.8,-1.3,2.7c0,0.9,-0.2,1.3,-0.4,2c-0.1,0.7,-0.7,1.8,-0.4,3c0.3,1.3,0.5,2.3,1.6,2.7c0.3,0.1,0.6,0.1,0.7,0.2c0.5,0.6,1.1,1.2,1.3,1.3c0.5,0.2,1,0.3,1.6,0.2c0.7,-0.1,1.6,-0.9,1.7,-1.1c0.1,-0.1,0,-0.6,0,-1c0.1,-0.5,-0.2,-2,-0.2,-2c0,0,-1.3,-1.7,-1.5,-3.1c-0.2,-1.3,-0.2,-6.7,0.5,-8c0.7,-1.2,1.1,-2.4,2.2,-2.9c1.2,-0.5,1.3,-1,1.3,-1.3c0,-0.1,0,-0.2,0,-0.4c0.1,0.2,0.2,0.5,0.5,0.7c0.5,0.4,1,0.7,2.2,2c1.2,1.2,2.4,2.8,2.8,3.9c0.3,1,0.5,1.7,0.8,2.9c0.3,1.1,0.5,2.8,1.2,3.9c0.3,0.5,-1.9,2.7,-1.9,2.7l0,1.5c0,0.5,0.1,1,0.3,1.2c0.3,0.3,0.1,0.5,-0.1,0.8c-0.2,0.3,-0.3,0.8,-0.2,1.2l0.1,0.5c0,0,0,-0.2,0.7,-0.2c0.8,-0.1,1.7,-0.9,1.7,-0.9c0,0,0.4,0.8,0.9,1.1c0.4,0.3,1.1,0.2,1.1,0.2c0,0,-1.1,-0.5,-1.1,-0.8c0,-0.3,0.7,-0.3,1,-0.2c0.4,0.2,0.6,0.2,1,0.1c0.3,-0.1,0.6,-0.3,0.6,-0.3c0,0,-0.6,-1.1,-0.6,-1.4c-0.1,-0.4,0,-0.9,0.3,-1.1Z" class="g2_93" />
</g>
<path d="M299.6,234.5c-0.1,0,-0.2,0,-0.2,-0.1c0,-0.1,0.1,-0.1,0.2,-0.1c0.1,0,0.1,0,0.1,0.1c0,0.1,0,0.1,-0.1,0.1m0.4,-0.3c-0.1,-0.1,-0.6,-0.1,-0.8,-0.1c-0.2,0,-1.1,0.3,-1.1,0.3c0,0,0.2,0.1,0.2,0.1c0,0,0.5,-0.2,0.5,-0.2c0,0,-0.1,0.5,0.4,0.6c0.5,0.1,0.7,-0.2,0.8,-0.5c0,-0.2,0.8,0.4,0.9,0.6c-0.1,-0.1,-0.7,-0.7,-0.9,-0.8Z" class="g3_93" />
<path d="M300.9,235c0.1,0,0.1,0,0.1,0l-0.1,0Z" class="g3_93" />
<path d="M305.9,234.8c-0.1,0,-0.1,-0.1,-0.1,-0.2c0,0,0,-0.1,0.1,-0.1c0.1,0,0.2,0.1,0.2,0.1c0,0.1,-0.1,0.2,-0.2,0.2m1.3,-0.1c0,0,-0.6,-0.2,-0.9,-0.3c-0.3,-0.1,-0.6,-0.1,-1,0.1c-0.3,0.1,-1,0.7,-1,0.7c0,0,0.8,-0.7,0.9,-0.5c0.1,0.2,0.1,0.5,0.7,0.5c0.6,-0.1,0.4,-0.6,0.4,-0.6c0,0,0.1,0,0.4,0c0.2,0.1,0.5,0.1,0.5,0.1Z" class="g3_93" />
<path d="M301.6,233.9c0.1,-0.1,0.3,-0.6,-0.2,-0.9c-0.6,-0.3,-1.6,-0.4,-2.1,-0.4c-0.4,0,-1.4,0.2,-1.6,0.3c-0.3,0.1,-0.6,0.5,-0.6,0.5c0,0,0.9,-0.2,1.3,-0.2c0.5,0.1,1,0.1,1.5,0.2c0.6,0.2,1.2,0.5,1.4,0.5c0.2,0.1,0.3,0,0.3,0Z" class="g3_93" />
<path d="M304.1,233.9c0,0,0.1,-0.8,0.9,-1c0.8,-0.1,1.9,-0.3,2.2,-0.1c0.4,0.1,0.9,0.4,1,0.9c-0.1,-0.1,-0.6,-0.3,-1.2,-0.3c-0.6,0,-1.7,0.3,-2,0.5c-0.4,0.1,-0.8,0.2,-0.9,0Z" class="g3_93" />
<path d="M301,237.6c-0.1,0,-0.6,0.4,-0.7,0.8c-0.1,0.3,0,0.5,0.1,0.6c0.1,0.1,0.5,0.2,0.8,0.2c0.3,-0.1,0.8,0,1,0c0.1,0.1,0.3,0.3,0.4,0.3c0,0.1,0.5,0.1,0.6,0c0.2,0,0.3,-0.2,0.5,-0.3c0.2,0,0.5,0,0.8,0c0.3,0,0.4,0,0.3,0.1c0,0,-0.4,0.2,-0.6,0.1c-0.1,0,-0.5,0,-0.6,0c-0.1,0.1,-0.4,0.3,-0.5,0.3c-0.2,0.1,-0.4,0.2,-0.9,-0.2c-0.5,-0.3,-0.7,-0.2,-1.2,-0.2c-0.5,-0.1,-0.9,-0.2,-0.9,-0.6c0,-0.6,0.9,-1.1,0.9,-1.1Z" class="g3_93" />
<path d="M304.3,237.3c0,0,0,0.2,0.1,0.4c0.1,0.2,0.4,0.4,0.6,0.5c0.1,0.2,0.1,0.4,0.1,0.4c0,0.1,0.1,-0.2,0,-0.4c-0.2,-0.3,-0.5,-0.4,-0.6,-0.6c-0.1,-0.2,-0.2,-0.3,-0.2,-0.3Z" class="g3_93" />
<path d="M298.8,240.6c0,0,1.8,-0.3,3,-0.3c0.8,0.1,1.5,0.1,1.7,0c0.2,-0.1,2,0.4,2,0.4c0,0,0,0.2,-0.2,0.3c-0.1,0.2,-0.5,0.3,-0.7,0.3c-0.1,0,-1.3,-0.1,-1.7,-0.1c-0.3,0,-1,-0.2,-1.5,-0.1c-0.4,0,-1.3,0,-1.5,-0.1c-0.2,-0.1,-0.7,-0.2,-0.7,-0.2c0,0,0.5,0.3,0.9,0.5c0.4,0.3,1.8,0.7,2.2,0.9c0.3,0.1,0.7,-0.1,1.1,-0.2c0.3,-0.2,0.2,-0.2,0.7,-0.3c0.5,-0.1,0.9,-0.3,0.9,-0.3c0,0,0.2,0.1,-0.1,0.4c-0.2,0.2,-0.5,1.1,-1.6,1.3c-1,0.2,-1.9,0,-2.8,-0.6c-0.8,-0.7,-1,-1.1,-1,-1.1c0,0,1.3,1.2,2.1,1.4c0.9,0.2,1.2,0.1,1.7,-0.1c0.5,-0.1,0.9,-0.4,0.8,-0.5c0,-0.1,0.1,-0.1,-0.6,0.1c-0.6,0.2,-1,0.4,-1.8,0.2c-0.8,-0.2,-1.3,-0.6,-1.6,-0.8c-0.2,-0.1,-0.9,-0.8,-1.3,-1.1Z" class="g3_93" />
<path d="M305.5,239.7c0,0,0.3,0.5,0.5,0.7c0.2,0.3,0.2,0.4,0.2,0.4c0,0,0.2,-0.2,0.1,-0.3c-0.1,-0.2,-0.5,-0.7,-0.8,-0.8Z" class="g3_93" />
<path d="M299.3,239.3c0.1,0,-0.7,0.7,-0.8,0.8c0,0.2,0,1.1,0.1,1.2c0,0.1,-0.2,-1.1,0.7,-2Z" class="g3_93" />
<g clip-path="url(#c1_93)">
<path d="M294.3,232.5c-0.1,0,0.4,0.3,0.5,0.4c0,0,0.1,-0.3,0,-0.4c0,-0.1,-0.3,-0.5,-0.3,-1c0,-0.4,0,-1.6,-0.1,-1.9c0,-0.3,0.2,-2.4,0.6,-3.1c0.4,-0.8,0.9,-1.4,1,-1.7c0.2,-0.2,1.8,-1.4,3,-1.8c1.3,-0.3,2.3,-0.6,3.8,-0.3c1.5,0.3,2.7,0.7,3.1,1c0.5,0.4,1.6,1.6,2,2c0.3,0.4,0.3,0.5,0.6,0.8c0.3,0.4,0.5,1.6,0.5,1.9c0,0.3,0,1.7,0,1.9c-0.1,0.1,-0.1,0.6,-0.2,1.1c-0.1,0.5,-0.2,1.1,-0.2,1.5c0.1,0.3,-0.2,1.1,-0.2,1.1c0,0,0,-1,0,-1.3c0,-0.3,0,-2.1,-0.1,-2.4c-0.1,-0.4,0,-0.7,0,-1c0,-0.2,0,-0.7,-0.1,-1c0,-0.3,-0.1,-1.1,-0.4,-1.4c-0.3,-0.3,-0.6,-0.4,-0.7,-0.4c-0.2,0.1,-0.1,0.3,-0.4,0.2c-0.4,0,-0.3,-0.2,-0.4,-0.2c-0.1,0,-0.2,0,-0.4,0.1c-0.2,0.1,-0.5,0,-0.7,0c-0.1,0,-0.5,0,-0.6,0c-0.2,0,-0.3,0.1,-0.6,0c-0.4,-0.1,-0.6,0,-0.7,-0.1c-0.1,0,-0.1,0,-0.3,-0.1c-0.2,-0.1,-0.5,-0.1,-0.3,0c0.1,0.1,0.3,0.3,0.2,0.3c-0.2,-0.1,-0.3,-0.1,-0.6,-0.1c-0.3,-0.1,-0.4,0.1,-0.5,0.1c-0.1,-0.1,-0.6,0.1,-0.8,0c-0.2,-0.1,-0.5,0,-0.7,-0.1c-0.3,-0.1,-0.6,0.1,-0.7,0.1c-0.2,-0.1,-0.3,-0.2,-0.5,-0.2c-0.2,0,-0.2,0.1,-0.4,0.1c-0.2,0,-0.5,-0.1,-0.5,-0.1c0,0,-0.1,0.1,-0.3,0.1c-0.2,0.1,-0.5,0,-0.6,0c-0.1,0,-0.3,0.3,-0.3,0.3c-0.1,0,-0.3,0.1,-0.3,0.2c-0.1,0.2,-0.1,0.6,-0.1,0.6l0,0.5c0,0,-0.2,0.7,-0.2,0.8c0,0.2,0.1,0.9,0.1,1.1c0,0.2,0,0.8,-0.1,0.9c-0.1,0.1,-0.4,0.4,-0.4,0.5c-0.1,0,-0.3,0.2,-0.3,0.3c0,0.2,-0.2,0.4,-0.3,0.5c0,0.1,-0.2,1.1,-0.2,1.1c0,0,-0.7,-0.8,-0.9,-0.9Z" class="g3_93" />
</g>
<path d="M309,232.9c0,0,-0.1,0.4,-0.1,0.5c-0.1,0.2,-0.3,0.3,-0.3,0.7c-0.1,0.4,0,0.8,0.1,1c0,0.2,0,0.5,0,0.5c0,0,0.1,-1,0.1,-1.2c0,-0.1,0,-0.5,0,-0.6c0,-0.1,0.2,-0.6,0.2,-0.9Z" class="g3_93" />
<path d="M294.9,235c0.1,-0.1,0.1,-0.4,0,-0.5c0,-0.1,-0.1,-0.1,-0.3,0.1c-0.1,0.2,-0.3,0.3,-0.4,0.5c-0.1,0.2,-0.2,0.4,0,0.6c0.1,0.2,0.4,0.2,0.5,0.5c0.2,0.2,0.6,0.3,0.6,0.3c0,0,-0.3,-0.4,-0.3,-0.5c-0.1,-0.1,-0.3,-0.1,-0.4,-0.3c0,-0.2,0,-0.4,0.1,-0.4c0,0,0.1,0.4,0.2,0.3c0,0,0,-0.6,0,-0.6Z" class="g3_93" />
<g clip-path="url(#c1_93)">
<path d="M293.9,234.6c0.1,-0.1,0.4,-1,0.4,-1.1c0,-0.1,0.2,0.4,0.3,0.5c0.2,0.1,0.4,0.3,0.3,0.2c0,-0.2,-0.3,-0.8,-0.4,-1c-0.1,-0.1,-0.4,-0.5,-0.6,-0.3c-0.1,0.1,-0.2,0.7,-0.2,1c-0.1,0.3,0,0.6,0.1,0.8c0,0.2,0,0.5,0,0.8c0.1,0.3,0.1,0.9,0.3,1.2c0.1,0.2,0.1,0.4,0.2,0.7c0.2,0.4,0.4,0.4,0.6,0.5c0.2,0,0.6,-0.1,0.6,-0.1c0,0,0,0.7,0.1,0.8c0,0.2,0.2,2.1,0.6,3.2c0.2,0.7,-0.2,2.5,-0.2,2.5c0,0,-1.3,1.4,-2.8,1.8c-1.4,0.5,-3.7,1.7,-3.6,1.8c-0.2,0,1.9,-1.1,2.4,-0.9c0.5,0.2,1.1,-0.2,1.3,-0.3c0.2,-0.2,1.3,-0.8,1.4,-0.9c0.2,-0.2,0.9,-0.8,1,-0.9c0.1,-0.2,0.4,-0.4,0.5,-1c0.1,-0.6,0.2,-1.5,0.1,-2.1c-0.1,-0.5,-0.6,-1.9,-0.7,-4c0,-0.2,-0.6,0,-0.9,-0.2c-0.3,-0.1,-0.3,-0.3,-0.4,-0.6c0,-0.2,-0.1,-0.4,-0.1,-0.6c0,-0.2,-0.2,-0.5,-0.2,-0.7c0,-0.3,-0.1,-1.1,-0.1,-1.1Z" class="g3_93" />
</g>
<path d="M297.3,243.2c0.1,0.1,1.4,1.5,1.8,1.8c0.4,0.3,1.1,1,1.3,1.1c0.3,0.1,1.3,0.4,1.8,0.4c0.5,0,1,0,1.2,-0.1c0.2,-0.1,1.2,-0.8,1.4,-1.1c0.1,-0.3,1.1,-1.5,1.4,-1.8c0.2,-0.4,0.8,-0.9,1,-1.4c0.1,-0.4,0.7,-1.5,0.9,-2.3c0.2,-0.8,0.6,-3.8,0.6,-3.9c0.1,0.1,-0.3,3.7,-1,5.4c-0.8,1.7,-1.7,2.5,-1.7,2.6c-0.1,0.1,-0.2,1.2,-0.2,1.4c0.1,0.3,0,0.5,0.4,0.8c0.5,0.3,1,0.4,1.4,0.7c0.5,0.2,1.7,1.2,1.7,1.2c0,0,-2,-1.2,-2.2,-1.2c-0.1,0,-0.9,-0.3,-1.1,-0.4c-0.2,-0.2,-0.2,-0.8,-0.5,-0.9c-0.4,0,-0.5,0.1,-0.6,0.2c-0.2,0.1,-0.8,0.5,-1.1,0.7c-0.2,0.2,-1.2,0.4,-2.1,0.3c-0.8,-0.1,-1.4,-0.2,-2.5,-1.4c-1.1,-1.1,-1.9,-2.1,-1.9,-2.1Z" class="g3_93" />
<g clip-path="url(#c1_93)">
<path d="M292,246.7c0,0,1.7,1.3,2,1.6c0.3,0.3,1.5,1.2,1.9,1.6c0.4,0.4,2,1.5,3.8,1.7c1.8,0.2,3.1,0.3,4,0.2c0.9,-0.2,1.3,-0.6,1.3,-0.6c0,0,-0.8,0.8,-1.5,0.9c-0.8,0.1,-2.9,-0.2,-3.5,-0.2c-0.6,-0.1,-1.7,-0.1,-3.1,-0.9c-1.3,-0.8,-3.5,-2.7,-3.9,-3.2c-0.5,-0.4,-0.9,-0.6,-1.5,-0.7c-0.5,0,-1.9,0.8,-1.9,0.8c0,0,2,-1.1,2.4,-1.2Z" class="g3_93" />
</g>
<path d="M297.3,234.4c0,0,0.6,-0.2,0.9,-0.3c0.4,0,0.7,0,1,0c0.3,0,1.2,0,1.4,0.1c0.2,0.1,0.8,0.5,0.9,0.7c-0.7,-0.6,-1.1,-0.6,-1.5,-0.7c-0.3,-0.1,-1.1,0,-1.6,0c-0.5,0.1,-1.1,0.2,-1.1,0.2Z" class="g3_93" />
<path d="M304.3,234.9c0,0,0.8,-0.5,1,-0.6c0.2,0,1,-0.1,1.3,-0.1c0.3,0.1,0.7,0.3,0.8,0.3c0,0.1,-0.3,0,-0.5,-0.1c-0.2,0,-1,0,-1.2,0c-0.3,0,-1.3,0.4,-1.4,0.5Z" class="g3_93" />
<path d="M299.5,286.7c0,0,0.1,-0.4,-0.3,-0.6c-0.5,-0.3,-1,-0.5,-2.2,-0.4c-1.2,0,-1.4,0.3,-1.4,0.3c0,0,0.7,0,1.1,0c0.4,0,0.9,0,1.5,0.3c0.5,0.3,1,0.6,1.3,0.4Z" class="g2_93" />
<path d="M304,286.6c0,0,-0.8,-0.1,-1.2,0c-0.4,0.1,-0.6,0.2,-0.5,0.4c0.1,0.1,0.5,0.2,1.2,0.2c0.6,0,0.6,0.1,0.7,0.1c0.1,0,-0.2,-0.7,-0.2,-0.7Z" class="g2_93" />
<path d="M297.7,287.6c-0.1,0,-0.1,-0.1,-0.1,-0.1c0,-0.1,0,-0.2,0.1,-0.2c0.1,0,0.1,0.1,0.1,0.2c0,0,0,0.1,-0.1,0.1m0.4,-0.4c-1,-0.4,-1.9,0.1,-1.9,0.1l0.4,0.2c0,0,0.1,-0.2,0.4,-0.2c0.2,-0.1,0.4,-0.1,0.4,-0.1c0,0,-0.2,0.6,0.2,0.7c0.5,0.1,0.6,0,0.7,-0.1c0.1,-0.2,0,-0.3,0,-0.3c0,0,0.4,0,0.7,0.6c0,0,0.1,-0.5,-0.9,-0.9Z" class="g2_93" />
<path d="M303.4,288.5c-0.1,0,-0.1,-0.1,-0.1,-0.2c0,0,0,-0.1,0.1,-0.1c0.1,0,0.1,0.1,0.1,0.1c0,0.1,0,0.2,-0.1,0.2m0.7,-0.4c0,0,-0.3,-0.1,-0.8,-0.1c-0.5,0.1,-1,0.7,-1,0.7l0.3,0c0,0,0,-0.3,0.4,-0.4c0,0.2,-0.1,0.3,0.4,0.5c0.4,0.1,0.5,-0.1,0.6,-0.2c0,-0.1,0,-0.4,0,-0.4Z" class="g2_93" />
<path d="M301.7,287.8c-0.1,0,-0.7,1,-0.8,1.7c-0.1,0.6,-0.2,1.4,-0.1,1.6c0.2,0.2,0.4,0.7,0.4,0.8c0,0.1,0.3,0,0.3,-0.1c0,-0.1,0.1,-0.6,0.2,-0.5c0.1,0.1,0.3,0.4,0.3,0.5c-0.1,0.2,0,0.6,-0.2,0.6c-0.2,0,-0.3,-0.1,-0.6,0c-0.2,0,-0.3,0,-0.5,0.2c-0.2,0.1,-0.6,0.1,-0.7,0c-0.2,-0.1,-0.4,-0.4,-0.7,-0.5c-0.3,-0.1,-0.4,0,-0.4,0c0,0,0.2,0,0.4,0.2c0.3,0.1,0.6,0.5,0.9,0.5c0.3,0,0.8,-0.2,1.1,-0.2c0,0,0.2,0,0.5,0c0.2,0,0.5,-0.5,0.3,-1.1c-0.2,-0.5,-0.3,-0.3,-0.5,-0.7c-0.1,-0.3,-0.3,-1.1,-0.2,-1.6c0,-0.5,0.3,-1.4,0.3,-1.4Z" class="g2_93" />
<path d="M298,291.4c-0.1,0.1,-1,0.6,-1.4,0.9c-0.4,0.3,-0.6,0.4,-0.5,0.7c0.1,0.3,0.3,0.8,0.3,0.8c0,0,-0.6,-1,-0.6,-1.1c0.1,-0.2,2.2,-1.3,2.2,-1.3Z" class="g2_93" />
<path d="M300,294.8c-1,0,-1.2,-0.4,-1.5,-0.5c-0.3,-0.2,-0.9,-0.8,-0.9,-0.8c0,0,2,0.5,2.3,0.5c0.3,0,0.8,0.1,1.3,0.1c0.5,0.1,0.6,0.1,0.6,0.1c0,0,-0.8,0.7,-1.8,0.6m2.4,-0.9c-0.1,0.1,-0.5,0.1,-1,0c-0.5,-0.1,-0.8,-0.3,-1,-0.3c-0.1,0,-0.4,0,-0.6,0c-0.3,0,-0.6,-0.2,-0.8,-0.2c-0.2,0,-1.1,-0.1,-1.4,-0.1c-0.3,-0.1,-0.7,-0.4,-0.8,-0.4c0,0,0.6,1.4,1.1,1.7c0.4,0.3,1,0.7,1,0.7c0,0,-0.1,-0.1,-0.3,-0.3c-0.2,-0.2,0.3,0,0.2,-0.1c-0.1,-0.1,-0.5,-0.2,-0.6,-0.3c-0.1,0,0.2,-0.1,0.5,0c0.3,0.2,0.3,0.2,0.5,0.3c0.2,0.1,0.1,0.2,0.1,0.3c0.1,0.2,-0.3,0.2,0.1,0.2c0.4,0,1.3,0,1.8,-0.2c0.5,-0.2,0.7,-0.4,0.9,-0.8c0.2,-0.4,0.4,-0.5,0.3,-0.5Z" class="g2_93" />
<path d="M298.8,297.8c0,0,0.5,0.3,1.4,0.1c0.8,-0.3,3,-2.1,3,-2.1c0,0,0.1,0.1,0,0.5c0,0.4,-0.2,0.3,-0.1,1.1c0.2,0.9,0.3,1.3,0.4,1.5c0,0.2,0,0.3,-0.1,0.4c-0.2,0.1,0,-0.6,-0.3,-1c-0.3,-0.4,-0.1,-0.5,-0.6,-0.6c-0.5,-0.1,-0.6,-0.2,-0.9,0.1c-0.3,0.2,0,0.2,-0.9,0.3c-0.9,0.1,-1.8,-0.1,-1.9,-0.3Z" class="g2_93" />
<g clip-path="url(#c2_93)">
<path d="M288.2,300.9c-0.1,0.2,0.5,-0.7,0.6,-0.5c0.2,0.2,0.1,0,0.5,1.3c0.4,1.3,1.6,4.8,5.5,5c3.9,0.1,7.3,-1.3,7.3,-1.3c0,0,-5.4,1.7,-8.3,0.7c-2.8,-1,-3.2,-2.3,-3.5,-3c-0.3,-0.7,-0.6,-1.4,-0.9,-1.9c-0.3,-0.6,-0.5,-1.6,-1.2,-0.3Z" class="g2_93" />
<path d="M309.9,299.5c0.2,0,0.4,0.1,0.4,0.3c0,0,-0.5,0.2,-0.9,0.5c-0.4,0.4,-1.5,2,-2.5,2.8c-0.9,0.8,-1.7,2.1,-3.7,3c-2,0.9,-3.4,1.2,-3.5,1.2c-0.1,0,4.3,-1.5,6.1,-3.3c1.7,-1.8,2.3,-2.7,2.8,-3.2c0.5,-0.5,1.3,-1.3,1.3,-1.3Z" class="g2_93" />
<path d="M287.3,300.8c-0.4,0.2,-0.3,0.3,-1,0.5c-0.6,0.1,-2.4,2.2,-2.7,4.8c-0.3,2.6,0.6,-0.8,1,-0.6c0.3,0.3,0.6,0.5,0.9,1c0.3,0.6,1.6,1.5,1.4,0.8c-0.2,-0.7,-0.8,-1.8,-0.1,-2.4c0.7,-0.6,0.5,-1.8,1,-1.9c0.5,-0.2,1.1,0.4,1.3,1.1c0.2,0.6,1.1,1.3,1,1.2c-0.1,-0.1,-1.2,-2.4,-1.4,-3.1c-0.2,-0.8,-0.4,-0.9,-0.6,-1.1c-0.3,-0.2,-0.8,-0.3,-0.8,-0.3Z" class="g2_93" />
<path d="M309.9,304c-0.9,1.3,-1.3,3.6,-1.3,3.6c0,0,0.9,-2.8,1.7,-3.7c0.7,-0.8,1.6,-2,2.3,-2.2c0.7,-0.2,1.2,-0.3,1.6,0.5c0.4,0.7,0.9,2.2,0.9,2.5c0,0.2,0,-0.4,0.2,-0.6c0.2,-0.2,0.1,-0.4,-0.2,-0.9c-0.3,-0.6,-0.8,-2.1,-2.3,-2.5c-1.5,-0.3,-1.9,-0.4,-2.3,-0.3c-0.4,0.1,-1.4,1,-2.5,2.3c-1.1,1.2,1.4,-1.3,2.4,-1.6c1.1,-0.4,2.7,-0.4,2.4,-0.1c-0.3,0.3,-2,1.6,-2.9,3Z" class="g2_93" />
</g>
<path d="M290.4,300.9c0,0,1.3,-0.1,3.6,-1.8c2.3,-1.7,1.7,-1.2,1.7,-1.7c0.1,-0.5,0,2,-2.3,2.7c-2.2,0.7,-3,0.8,-3,0.8Z" class="g2_93" />
<g clip-path="url(#c2_93)">
<path d="M308.3,294.4c-0.1,0,-0.1,0,-0.2,-0.1c-1.1,-0.5,-0.9,-0.8,-1.6,-1.6c-0.6,-0.9,-1.1,-2.5,-2,-5c-0.8,-2.4,-1.3,-2.9,-1.3,-2.9c-0.4,-0.7,-2.1,-3.2,-1.9,-3c0.1,0.1,2.9,3.3,3.4,5.6c0.6,2.4,2.2,4.9,2.8,6.2c0.2,0.4,0.5,0.6,0.8,0.8c0.9,0.4,1.2,0.5,1.2,0.5c0,0,-0.6,0,-1.2,-0.5m-8.8,-16c0.1,0,1.7,0.1,3.3,1.2c1.6,1.2,2,1.2,3.3,3.2c1.3,2,-0.1,0.2,-1.8,-1.5c-2.2,-2.3,-4.8,-2.9,-4.8,-2.9m2.2,-1.2c0.9,0.1,2.2,0.7,2.5,0.9c0.6,0.4,1.1,1.1,1.7,1.7c0.6,0.7,1.1,1.4,1.9,2.9c0.8,1.4,1.7,4.1,2.1,5.9c0.3,1.5,0.7,2.6,0.8,3c0,0.2,0.1,0.2,0.1,0.2c0,0,-0.1,0,-0.1,-0.2c-0.3,-0.8,-1.5,-4.2,-1.7,-5.1c-0.3,-1.1,-1.6,-4.2,-2.6,-5.5c-1,-1.3,-1.8,-2.2,-2.7,-2.7c-1,-0.5,-3.5,-1.1,-3.5,-1.1c0.1,-0.2,0.7,-0.2,1.5,0m-6.1,4c-0.6,0.5,-0.9,1,-1.8,2.1c-0.8,1.2,-1.1,5.8,-1.1,6.3c-0.1,0.3,-0.7,1.9,-1.2,3.1c-0.1,0.7,-0.2,1.1,-0.4,1.3c-0.1,0.1,0.1,-0.5,0.4,-1.3c0.1,-0.3,0.2,-0.6,0.3,-1c0.3,-1.2,0.5,-3,0.5,-3c0,0,-0.4,0.9,-1,1.5c-0.6,0.6,-1.7,1.6,-1.7,1.6c-0.1,0.1,0.4,-0.5,0.9,-1.3c0.6,-0.7,1.8,-2.2,2,-3.2c0.2,-1,0.4,-2.8,0.1,-2.2c-0.2,0.4,-1,1.7,-1.4,2.4c-0.1,0.2,-0.2,0.3,-0.2,0.4c-0.1,0.1,0,-0.1,0.2,-0.4c0.3,-0.6,0.7,-1.5,1,-2.3c0.4,-1,0.3,-1.8,0.7,-2.6c0.4,-0.9,0.9,-1,1.4,-1.6c0.5,-0.5,1,-0.5,1.1,-0.5c0,0,-0.1,0.4,-0.6,0.8c-0.5,0.3,-0.6,0.4,-0.8,0.7c-0.2,0.4,-0.7,1.9,-0.7,1.9c0,0,0.2,-0.3,0.6,-1.2c0.5,-0.8,1.9,-1.7,1.7,-1.5m-5.8,14.7c-0.3,-1.5,-0.5,-1.9,-0.4,-2.2c0,-0.1,0.3,-0.4,0.4,-0.5c-0.1,0.1,-0.2,0.3,-0.2,0.7c0.1,0.7,0.1,1.7,0.6,2.4c0.2,0.3,0.5,0.8,0.9,1.2c-0.4,-0.2,-1.1,-0.6,-1.3,-1.6m19.5,1.2c0.4,-0.3,1.9,-3.2,1.8,-5.4c-0.1,-2.2,-1.6,-7.9,-2.6,-10.2c-1.1,-2.3,-3.2,-4.5,-4.7,-5.1c-1.5,-0.6,-3.3,-0.3,-3.6,-0.2c-0.3,0,-1.4,-0.2,-1.8,-0.1c-0.3,0,-1.1,0,-1.9,0.3c-0.7,0.4,-3.2,2.1,-4.4,4.7c-1.2,2.6,-1,5.2,-1.2,5.9c-0.2,0.7,-1.3,1.8,-1.3,2.7c0,0.9,-0.2,1.3,-0.4,2c-0.1,0.7,-0.7,1.8,-0.4,3.1c0.3,1.2,0.5,2.2,1.6,2.6c0.3,0.1,0.6,0.1,0.7,0.2c0.5,0.6,1.1,1.2,1.3,1.3c0.5,0.2,1,0.3,1.6,0.2c0.7,-0.1,1.6,-0.9,1.7,-1.1c0.1,-0.1,0,-0.6,0,-1c0.1,-0.5,-0.2,-2,-0.2,-2c0,0,-1.3,-1.7,-1.5,-3.1c-0.2,-1.3,-0.2,-6.7,0.5,-8c0.7,-1.2,1.1,-2.3,2.2,-2.9c1.2,-0.5,1.3,-0.9,1.3,-1.3c0,-0.1,0,-0.2,0,-0.4c0.1,0.3,0.2,0.5,0.5,0.8c0.5,0.3,1,0.6,2.2,1.9c1.2,1.2,2.4,2.9,2.8,3.9c0.3,1.1,0.5,1.7,0.8,2.9c0.3,1.2,0.5,2.8,1.2,3.9c0.3,0.5,-1.9,2.7,-1.9,2.7l0,1.5c0,0.5,0.1,1,0.3,1.2c0.3,0.3,0.1,0.5,-0.1,0.8c-0.2,0.3,-0.3,0.8,-0.2,1.3l0.1,0.4c0,0,0,-0.2,0.7,-0.2c0.8,-0.1,1.7,-0.9,1.7,-0.9c0,0,0.4,0.8,0.9,1.1c0.4,0.3,1.1,0.2,1.1,0.2c0,0,-1.1,-0.5,-1.1,-0.8c0,-0.3,0.7,-0.3,1,-0.2c0.4,0.2,0.6,0.2,1,0.1c0.3,-0.1,0.6,-0.3,0.6,-0.3c0,0,-0.6,-1.1,-0.6,-1.4c-0.1,-0.4,0,-0.9,0.3,-1.1Z" class="g2_93" />
</g>
<path d="M294.8,340.3c0,0,-0.1,-0.1,-0.1,-0.1c0,-0.1,0.1,-0.1,0.1,-0.1c0.1,0,0.1,0,0.1,0.1c0,0,0,0.1,-0.1,0.1m-0.2,-0.5c-0.7,0.1,-1,0.7,-1.3,0.7c0,0,0.3,0.1,0.4,0.1c0.1,-0.1,0.7,-0.7,0.7,-0.5c0,0.3,0.1,0.6,0.6,0.6c0.5,0,0.6,-0.5,0.6,-0.5c0,0,0.1,-0.1,0.4,0.5c-0.1,-0.7,-0.6,-1,-1.4,-0.9Z" class="g4_93" />
<path d="M300.4,340c-0.1,0,-0.1,0,-0.1,-0.1c0,0,0,-0.1,0.1,-0.1c0,0,0.1,0,0.1,0.1c0,0,-0.1,0.1,-0.1,0.1m1.4,0.1c-0.1,-0.2,-0.4,-0.6,-1.1,-0.7c-0.6,-0.1,-0.9,0,-1.2,0.3c-0.2,0.1,-0.7,0.8,-0.7,0.8c0,0,0.3,-0.1,0.5,-0.4c0.3,-0.4,0.6,-0.3,0.6,-0.3c0,0,-0.1,0.4,0.3,0.5c0.5,0.3,0.8,-0.1,0.8,-0.1c0,0,0.1,-0.1,0.2,-0.1c0.1,-0.1,0.2,0.1,0.3,0.1c0.1,0,0.4,0.1,0.3,-0.1Z" class="g4_93" />
<path d="M295.6,339.3c0,0,-0.6,-0.4,-1.1,-0.5c-0.6,-0.1,-0.8,0,-1,0.1c-0.2,0.1,-0.6,0.5,-0.8,0.8l-0.1,0.2c0,0,0.5,-0.5,0.8,-0.6c0.4,-0.1,0.6,-0.3,1,-0.1c0.4,0.2,0.7,0.3,0.9,0.3c0.2,0,0.3,-0.2,0.3,-0.2Z" class="g4_93" />
<path d="M298.5,339.2c0,0,0.2,-0.5,0.6,-0.6c0.3,-0.2,1.3,-0.3,1.9,-0.2c0.5,0.2,1.2,0.7,1.2,0.7c0,0,-1.1,-0.4,-1.6,-0.3c-0.4,0.1,-0.7,0.1,-1.1,0.3c-0.4,0.2,-1.1,0.2,-1,0.1Z" class="g4_93" />
<path d="M295.9,339.9c0,0,0.4,0.2,0.4,0.4c0,0.2,-0.1,1.1,-0.1,1.3c-0.1,0.1,0.1,-1.4,-0.3,-1.7Z" class="g4_93" />
<path d="M295.7,342.8c0,0,-0.3,0.7,-0.3,0.9c0,0.2,0.1,0.4,0.2,0.4c0.2,0,0.4,-0.1,0.6,-0.1c0.1,0.1,0.4,0.3,0.5,0.3c0.1,0.1,-0.3,0.1,-0.4,0c-0.2,-0.1,-0.1,-0.2,-0.4,-0.2c-0.2,0.1,-0.5,0.1,-0.5,0c-0.1,-0.2,-0.1,-0.5,0.3,-1.3Z" class="g4_93" />
<path d="M297.2,344.1c0,0,0.1,-0.2,0.3,-0.2c0.2,0,0.7,0,0.7,0c0.1,0,-0.4,0.2,-0.3,0.2c0.1,0,0.6,-0.1,0.7,-0.3c0.2,-0.1,0.3,-0.6,0.3,-0.8c-0.1,-0.1,-0.2,-0.3,-0.2,-0.3c0,0,0.2,0.1,0.3,0.6c0,0.4,-0.4,0.7,-0.5,0.8c-0.1,0,-0.6,0.1,-0.7,0.1c-0.1,0,-0.2,-0.1,-0.3,-0.1c-0.1,0,-0.3,0,-0.3,0Z" class="g4_93" />
<path d="M300.2,345.8c0,0,-0.4,0.4,-0.7,0.5c-0.2,0,-0.3,0.1,-0.5,0.2c-0.3,0.1,-0.5,0.1,-0.9,0.1c-0.4,0.1,-0.8,0.1,-1.2,0.1c-0.3,0,-0.3,-0.1,-0.5,-0.2c-0.2,0,-0.3,-0.2,-0.3,-0.2C295.8,346,296,345.8,296,345.8c0,0,0.2,0,0.6,-0.1c0.4,0,0.8,0.1,0.9,0.1c0.2,0,1,-0.2,1.3,-0.3c0.3,0,0.9,0.1,1.2,0.1c0.2,0,0.2,0.2,0.2,0.2m0.5,-0.3c-0.7,0,-1.6,-0.5,-2.2,-0.5c-0.6,0.1,-0.6,0.3,-1.1,0.2c-0.6,-0.1,-1,0,-1.3,0c-0.3,0.1,-1,0.5,-1,0.5c0,0,0.5,0.7,0.7,0.8c0.3,0.2,0.8,0.4,1.1,0.4c0.3,0,1.2,0,1.6,0c0.4,-0.1,0.8,-0.3,1,-0.4c0.2,0,0.1,0,-0.1,0.2c-0.2,0.1,-0.6,0.3,-1.1,0.4c-0.5,0.1,-0.6,0.1,-1.1,0.1c-0.5,-0.1,-0.7,-0.1,-1,-0.3c-0.4,-0.1,-0.4,-0.2,-0.5,-0.3c-0.1,0.1,0.4,0.7,0.8,0.9c0.3,0.1,0.6,0.1,0.8,0.1c0.2,0,1.1,0,1.6,-0.2c0.4,-0.2,0.8,-0.7,1.1,-1c0.3,-0.3,1.1,-0.9,0.7,-0.9Z" class="g4_93" />
<g clip-path="url(#c3_93)">
<path d="M292.8,340c0,0,-0.1,0.7,-0.2,1.1c0,0.4,-0.1,1.1,-0.1,1.5c0,0.4,0.2,1.2,0.2,1.5c0,0.4,0.3,1.5,0.4,1.7c0.1,0.3,0.4,0.8,0.9,1.7c0.6,0.9,1.8,1.9,2.3,2.2c0.5,0.2,1.1,0.5,2.3,0.3c1.3,-0.3,2.5,-0.8,3.3,-1.5c-0.2,0.4,-1,0.9,-2,1.3c-1.1,0.4,-2.1,0.6,-3.2,0.3c-0.6,-0.1,-0.5,0.1,-0.6,0.6c-0.1,0.5,-0.2,1.2,-0.5,1.6c-0.2,0.4,-1,1.1,-1.3,1.2c-0.3,0.1,1.1,-0.8,1.3,-1.6c0.1,-0.4,-0.1,-0.8,-0.2,-1.3c-0.2,-0.5,-0.4,-0.7,-0.4,-1.1c0,-0.4,-0.6,-1.1,-0.6,-1.1c0,0,0.2,0.9,0.3,1.1c0,0.2,0.8,2.3,0.8,2.3c0,0,-0.8,-1.7,-0.9,-1.8c0,-0.1,0.7,2,0.8,2.1c0,0.1,-0.5,-0.6,-0.6,-1c-0.2,-0.3,0.1,1.1,0.1,1.3c0.1,0.1,-0.4,-0.5,-0.4,-0.7c0,-0.2,-0.2,0.5,-0.3,1c-0.2,0.6,0,1.3,-0.4,1.7c-0.4,0.3,-0.9,0.4,-0.9,0.4c0,0,0.8,-1,0.9,-1.8c0,-0.9,-0.1,-2.4,-0.1,-3.1c0,-0.7,-0.5,-2,-0.5,-2c0,0,0.4,3.6,0.3,4.2c-0.1,0.7,-0.3,1.1,-0.4,1.6c-0.1,0.5,-0.4,1.4,-0.5,1.6c-0.2,0.1,0,-2.4,0,-2.7c0,-0.3,0.1,0.7,0.2,0.6c0,-0.1,0,-1.6,0,-2.3c0,-0.7,-0.1,-0.8,-0.2,-1.4c0,-0.6,-0.2,-3.3,-0.2,-3.7c0.1,-0.4,0,-2.5,0,-2.5c0,0,0,4.8,-0.1,5.2c0,0.4,0,2.2,0,2.7c0,0.5,0,2.2,-0.1,2.6c0,0.5,0,2,0.1,2.3c0,0.3,0.2,2.4,0.2,3c0.1,0.5,0.1,2.3,-0.1,2.7c-0.1,0.3,0,-3,-0.1,-3.6c-0.1,-0.6,-0.3,-3.7,-0.3,-4c0.1,-0.3,-0.2,-1.2,-0.1,-1.6c0.1,-0.4,0.1,-2.1,0.1,-2.5c0.1,-0.4,0,-1.4,0.1,-1.7c0.1,-0.4,0.1,-2,0.1,-2.3c0,-0.4,-0.1,-1.8,-0.1,-1.8c0,0,-0.6,6.5,-0.7,7.9c-0.1,1.3,-0.2,2.2,-0.3,3c-0.1,0.8,-0.2,1.9,-0.3,2.4c-0.1,0.4,-0.1,1.8,-0.1,1.8c0,0,0.2,-5,0.2,-5.8c0.1,-0.7,0.2,-3.4,0.4,-4.1c0.1,-0.6,0.2,-3,0.4,-3.8c0.3,-0.8,0,-1.3,0.2,-2.2c0.2,-1,0.4,-2.9,0.4,-3c0.1,-0.2,0.4,-1.5,0.5,-2c0.1,-0.6,0.5,-1.7,0.7,-2.2c0.2,-0.5,0.3,-1.1,0.5,-1.4c0.2,-0.4,-0.5,1.8,-0.6,2.1c-0.1,0.4,-0.3,1.3,-0.3,1.3c0,0,0.7,-1.8,1.2,-2.3c0.4,-0.6,1.3,-1.3,1.7,-1.5c0.4,-0.2,0.7,-0.3,0.7,-0.3c0,0,-1.5,0.7,-2.2,1.8c-0.7,1,-1.2,2.2,-1.3,2.5c-0.2,0.2,-0.4,1.5,-0.4,1.5Z" class="g4_93" />
</g>
<path d="M297.7,333.2c0,0,-0.4,0,-0.8,0.3c-0.4,0.3,-0.5,0.1,-0.9,0.6c-0.4,0.4,-1,0.9,-1.4,1.3c-0.5,0.3,-0.6,0.6,-0.6,0.6c0,0,1,-1.1,1.2,-1.5c0.2,-0.4,1.1,-0.9,1.3,-1c0.2,-0.2,0.5,-0.4,0.4,-0.4c0,-0.1,-0.4,-0.1,-0.7,0.2c-0.3,0.3,-1.3,1.2,-1.3,1.2l1.1,-1.2l-1.2,1c0,0,1,-1.1,1.6,-1.5c0.7,-0.4,0.6,-0.5,0.4,-0.5c-0.2,0.1,-1.3,0.9,-1.7,1.3c-0.3,0.3,0.8,-0.9,1.1,-1.2c0.4,-0.3,-0.6,0.3,-0.6,0.2c0.1,0,0.8,-0.9,1.3,-1c0.4,-0.1,0.7,0,0.9,0c0.1,-0.1,-0.1,0.2,-0.1,0.4c0,0.2,0.1,0.9,0,1c-0.1,0.2,0,0.2,0,0.2Z" class="g4_93" />
<path d="M297.9,331.4c0,0,-0.9,-0.2,-1.2,-0.1c-0.3,0.1,-0.9,0.6,-1.2,0.9c-0.3,0.4,-1,1.3,-1.2,1.7c-0.2,0.3,-0.5,0.5,-0.7,1.1c-0.3,0.6,-0.9,2.5,-1,2.9c0,0.4,-0.2,1.5,-0.4,1.9c-0.3,0.3,-0.4,0.3,-0.4,0.3c0,0,0.3,-1.5,0.4,-2c0.1,-0.5,0.4,-2.4,0.7,-2.9c0.2,-0.4,0.7,-1.8,0.9,-1.9c0.3,-0.2,-0.3,0.7,-0.4,1c0,0.4,0.9,-1.4,1.4,-1.9c0.6,-0.5,0.9,-0.8,1.2,-0.9c0.2,-0.1,-1.1,0.8,-1.4,1.4c-0.4,0.7,-0.9,1.5,-0.9,1.4c0.1,0,1.5,-2.3,2.7,-2.9c0.8,-0.5,1.5,0,1.5,0Z" class="g4_93" />
<g clip-path="url(#c3_93)">
<path d="M289.5,357.2c0,0,0.5,-2.1,0.7,-2.5c0.1,-0.4,0.5,-3.2,0.6,-3.8c0.1,-0.6,0.1,-1.3,0.2,-1.4c0,-0.2,0,-0.6,0.1,-0.9c0.1,-0.4,0,-1.3,0.1,-1.6c0.2,-0.3,0.4,-1.7,0.4,-2.2c0,-0.5,0,-1.6,0,-2.2c0.1,-0.6,0.1,-1.4,0.1,-1.4c0,0,-0.1,0.9,-0.3,1.3c-0.1,0.4,-0.1,0.9,-0.2,1.4c-0.1,0.5,-0.2,0.9,-0.2,1.5c0,0.5,-0.2,0.8,-0.2,1.4c0.1,0.6,0.1,0.8,-0.1,1.3c-0.1,0.5,-0.3,1.5,-0.4,2c-0.1,0.5,-0.4,2.2,-0.6,3c-0.2,0.7,-1.1,3.9,-1.2,4.3c-0.1,0.4,0,1.4,0.2,1.7c0.2,0.4,0.4,0.8,0.4,0.8c0,0,-0.6,-1.4,-0.3,-2.5c0.3,-1.2,0.7,-2.7,1,-3.4c0.3,-0.6,0.6,-3.3,0.8,-3.9c0.1,-0.5,0.1,0.9,0,1.6c-0.2,0.7,-1.1,5.5,-1.1,5.5Z" class="g4_93" />
<path d="M288.3,355.8c0,-0.1,0.6,-3.2,0.6,-3.6c0.1,-0.5,0.3,-2.7,0.7,-3.5c0.5,-0.8,0.7,-2.8,0.9,-3.4c0.2,-0.5,0.3,-1.6,0.4,-2c0.1,-0.3,0,-1.5,0.2,-2.2c0.2,-0.6,0.1,-2.4,0.3,-2.8c0.1,-0.3,0.2,-1.4,0.2,-1.6c0.1,-0.2,0.8,-1,0.8,-1c0,0,-0.5,1.2,-0.6,1.5c-0.1,0.2,0.4,-0.5,0.4,-0.4c0,0,0,1.1,-0.2,1.6c-0.3,0.6,-0.4,1.8,-0.5,2.3c-0.2,0.6,-0.1,1.4,-0.2,1.6c-0.1,0.2,-0.3,1.7,-0.4,1.9c-0.1,0.3,-0.3,2,-0.5,2.8c-0.1,0.8,-0.4,1.8,-0.6,2.2c-0.1,0.4,-0.5,1.9,-0.6,2.4c-0.1,0.4,-0.3,2.5,-0.5,3.1c-0.3,0.6,-0.4,1.1,-0.4,1.1Z" class="g4_93" />
</g>
<path d="M291.8,336c0,0,0.8,-1.8,0.9,-2.3c0.1,-0.4,1.2,-1.7,1.6,-2.1c0.4,-0.3,1,-0.5,1,-0.5c0,0,-0.9,0.7,-1.3,1c-0.3,0.3,-0.9,1.5,-1.2,1.8c-0.2,0.4,-0.2,0.5,-0.3,0.8c-0.2,0.4,-0.7,1.3,-0.7,1.3Z" class="g4_93" />
<path d="M296.5,330.9c-0.1,0,-0.5,0,-1,0.3c-0.5,0.3,-1.2,1,-1.4,1.2c-0.2,0.3,-0.5,0.6,-0.8,1.1c-0.2,0.5,-0.4,1.3,-0.4,1.3c0,0,0.7,-1.7,1.2,-2.3c0.5,-0.5,0.8,-0.8,1.3,-1c0.4,-0.2,1.1,-0.6,1.1,-0.6Z" class="g4_93" />
<path d="M294.9,330.9c0.2,-0.1,0.8,-0.3,1.1,-0.5c0.3,-0.2,0.5,-0.1,0.5,-0.1c0,0,-0.4,0.2,-0.6,0.4c-0.3,0.2,-1,0.2,-1,0.2Z" class="g4_93" />
<path d="M298,330.7c0,0,-0.4,-0.6,-0.8,-0.7c-0.5,-0.1,-1,-0.1,-1.3,0c-0.2,0.2,0.2,-0.3,1,-0.2c0.8,0.1,0.8,0.2,1,0.3c0.1,0.1,-0.1,-0.6,-0.1,-0.6c0,0,0.2,0.2,0.2,0.3c0,0.1,0.3,0.4,0.5,0.4c0.1,0.1,0.7,0.2,0.9,0.2c0.2,0.1,0.6,0.4,0.6,0.4c0,0,-1,-0.3,-1.2,-0.3c-0.2,0,-0.4,0.1,-0.2,0.2c0.3,0,1.3,0.1,1.7,0.3c0.3,0.2,1.4,0.8,1.6,1c0.2,0.1,1.9,1.8,2.3,2c0.4,0.2,0.1,0,-0.1,-0.3c-0.2,-0.3,-0.8,-0.9,-0.8,-1c0,-0.1,0.6,0.2,1.5,1.5c0.8,1.2,1.4,3.1,1.5,3.8c0.2,0.6,0.3,1.1,0.3,1.6c0,0.4,0.2,3.1,0.2,3.7c0,0.6,0.2,2.6,0.2,3.1c-0.1,0.5,-0.1,1,-0.1,1c0,0,-0.3,-4.1,-0.3,-4.3c0,-0.2,-0.3,-2,-0.3,-2.2c0,-0.2,-0.1,-0.3,-0.3,-0.5c-0.3,-0.2,-1,-0.9,-1.1,-1.1c-0.2,-0.2,-0.8,-1.1,-0.8,-1.1c0,-0.1,0.4,0.3,0.9,0.6c0.5,0.4,1.2,0.6,1.2,0.6c0,0,-0.9,-0.6,-1.2,-0.9c-0.4,-0.2,-1.3,-1.3,-1.3,-1.5c-0.1,-0.1,1.1,0.9,1.2,0.9c0.1,0,-0.4,-0.7,-0.5,-0.8c-0.1,-0.2,-1,-0.7,-1.5,-1c-0.4,-0.3,-1.4,-0.7,-1.6,-1c-0.2,-0.2,-1.7,-1.1,-1.9,-1.3c-0.2,-0.2,-0.8,-0.7,-0.8,-0.7c0,0,1.4,1,1.7,1.1c0.2,0.1,0.9,0.6,1.3,0.9c0.4,0.3,0.8,0.5,1.3,0.7c0.5,0.2,0.9,0.4,1.2,0.7c0.3,0.3,0.8,0.6,0.9,0.7c0.2,0.1,0.7,0.5,0.7,0.5c0,0,-1.7,-1.5,-1.8,-1.6c-0.1,-0.1,-1.3,-0.6,-1.4,-0.7c-0.2,-0.1,-2.2,-1.5,-2.4,-1.6c-0.1,-0.2,-1,-1,-1.2,-1.1c-0.2,-0.1,0.1,-0.3,0.3,-0.1c0.2,0.2,0.8,0.6,1.3,1c0.5,0.4,1.5,1.3,1.9,1.6c0.3,0.2,0.8,0.4,0.8,0.4l-2.7,-2.2c0,0,1.9,1.4,2.1,1.5c0.1,0.1,-2.2,-2,-2.5,-2.2c-0.2,-0.1,1.7,1.3,2.2,1.7c0.6,0.5,1.1,0.9,1.5,1.2c0.3,0.3,0.9,0.9,1.3,1.3c0.4,0.4,0.7,0.6,0.7,0.6c0,-0.1,-0.9,-1.3,-1.1,-1.5c-0.2,-0.2,-2.5,-2.1,-2.6,-2.2c0,-0.1,2.1,1.5,2.8,2.2c0.6,0.7,0.7,0.7,0.4,0.3c-0.2,-0.4,-1.6,-1.7,-2.1,-2.3c-0.4,-0.5,1.1,0.9,1.2,1c0.2,0.1,0.7,0.7,0.7,0.7c0.1,0,-0.2,-1,-0.6,-1.2c-0.3,-0.3,-1.7,-1.6,-2.3,-2.1c-0.5,-0.4,-1.3,-0.9,-1.8,-1.1c-0.4,-0.1,-1,-0.3,-1.3,-0.3c-0.2,0,0.5,0.2,0.8,0.4c0.3,0.1,1.8,0.9,2.2,1.2c0.3,0.2,0.7,0.7,0.7,0.7c0,0,-2.4,-1.7,-3,-1.8c-0.7,-0.1,-0.8,-0.1,-0.8,-0.1c0.1,0,1,0.4,1.4,0.6c0.4,0.2,2.2,1.4,2.4,1.7c-0.3,-0.2,-1.9,-1.3,-2.1,-1.4c-0.1,0,1.5,1.2,1.6,1.3c0.2,0.2,-2,-1.4,-2.4,-1.6c-0.3,-0.2,-1.2,-0.5,-1.4,-0.5c-0.2,0,0,-0.4,0,-0.5c0,0,-0.5,-0.1,-0.5,-0.1Z" class="g4_93" />
<g clip-path="url(#c3_93)">
<path d="M304.7,339.3c0,0,0.4,1.3,0.4,1.6c0,0.4,0,1.1,-0.2,1.7c-0.1,0.7,-0.3,3.7,-1.4,4.9c-1.1,1.2,-1.3,1.4,-1.3,1.4c0,0,1.7,-1.2,2.1,-2.1c0.4,-0.9,0.5,-1.4,0.5,-1.4c0,0,-0.6,3,-0.7,3.4c-0.1,0.4,-0.1,2.7,-0.1,3.5c0,0.8,0.2,1.9,0.2,2.3c0,0.5,-0.1,1.6,0,2c0.2,0.4,0.3,0.7,0.3,0.7c0,0,-0.3,-1.7,-0.2,-2c0.1,-0.4,0.1,-0.4,0.2,-0.3c0.1,0.1,0.2,0.7,0.2,1c0,0.4,0,0.4,0,0.4c0,0,0.2,-0.9,0.3,-1.2c0,-0.3,0.5,-2,0.5,-2.2c0,-0.3,-0.6,1.8,-0.6,1.8c-0.1,0.1,0.2,-1.3,0.2,-1.4c0,-0.1,0.3,-1.2,0.4,-1.6c0,-0.3,0,-1.2,0.1,-1.3c0.1,-0.2,0.3,-1.7,0.2,-2.1c0,-0.4,0.4,-0.8,0.4,-1c0,-0.2,0,-2,0,-2.4c0.1,-0.4,0.3,-0.4,0.3,-0.7c0,-0.3,0,-0.8,-0.1,-0.8c0,0,-0.5,0.4,-0.6,0.5c-0.2,0.1,-0.6,0.1,-0.6,0c-0.1,0,-0.2,-0.7,-0.1,-1.2c0.1,-0.5,0,-0.8,0.1,-1.1c0.1,-0.3,0,-0.5,0.2,-0.4c0.2,0.2,0.5,0.4,0.6,0.4c0.2,0,0,-0.2,0,-0.4c-0.1,-0.2,0,-0.3,-0.2,-0.6c-0.1,-0.3,-1.1,-1.3,-1.1,-1.4Z" class="g4_93" />
</g>
<path d="M305.6,341.8c-0.1,0.1,0,0.2,-0.1,0.5c-0.1,0.3,-0.3,0.5,-0.1,0.5c0.2,-0.1,0.3,-0.3,0.5,-0.4c0.2,-0.2,0.3,-0.2,0.3,-0.2c0,0,-0.5,-0.5,-0.6,-0.4Z" class="g4_93" />
<g clip-path="url(#c3_93)">
<path d="M291.5,353.6c0,0.1,0.1,1.7,0.2,2.3c0,0.7,-0.2,2.7,-0.2,3.1c-0.1,0.3,-0.1,1.8,-0.2,1.9c0,0.2,0.4,-2.9,0.5,-3.1c0.1,-0.2,0.1,0.8,0.1,0.8c0,0.1,0,-1.9,0,-2.4c-0.1,-0.5,-0.4,-2.6,-0.4,-2.6Z" class="g4_93" />
<path d="M299.5,329.8c0,0,0.7,0,1.4,0.2c0.6,0.3,0.8,0.3,1.6,0.7c0.7,0.4,0.7,0.7,1.3,1c0.7,0.4,1.1,0.8,1.6,1.4c0.5,0.5,1.4,1.7,1.6,1.9c0.1,0.3,-1.7,-2.1,-2.2,-2.3c-0.5,-0.2,1.5,1.3,2.7,3.7c1.2,2.4,1.2,3.2,1.3,3.8c0.1,0.6,0.7,3,0.7,4.1c0,1.2,0.3,2.3,0.6,3.4c0.2,1.1,0.3,2.7,0.3,2.7c0,0,-0.7,-3,-0.9,-2.9c-0.2,0.1,0.2,1.7,0.3,2.2c0.1,0.5,0.5,1.2,0.5,1.6c0,0.3,-0.6,-1.3,-0.7,-1.4c-0.2,-0.1,0.3,3.7,0.3,4.5c0,0.8,0.4,4.5,0.4,5c0,0.4,0.1,2.5,0.1,3.1c0,0.5,-0.1,1.1,-0.2,1.9c-0.1,0.7,-0.2,1.5,-0.2,1.4c0,0,-0.2,-3.4,-0.1,-3.8c0.2,-0.5,0.1,-3.1,0,-3.7c-0.1,-0.6,-0.5,-3.3,-0.6,-4c0,-0.7,0.4,4.5,0.4,5c-0.1,0.6,-0.3,2.7,-0.3,3.4c0.1,0.8,-0.1,1.2,-0.1,2.6c0.1,1.5,0.1,2.7,0,3.4c-0.1,0.6,-0.3,2.6,-0.3,2.6c0,0,-1.5,-5,-0.9,-7.5c0.6,-2.5,0.8,-2.9,0.8,-3.3c0.1,-0.5,0.3,-3.4,0.3,-3.4c0,0,-0.5,-1.6,-0.6,-1.8c0,-0.2,0.3,2.1,0.2,2.5c-0.1,0.5,-0.2,1.9,-0.1,1.8c0,-0.1,-0.2,-4.3,-0.2,-4.4c0,-0.1,0,6.2,-0.2,6.6c-0.1,0.3,-0.1,-5.4,-0.1,-5.6c-0.1,-0.2,-0.1,5.2,-0.1,5.2l-0.2,-4.8c0,0,0.4,-1.4,0.5,-2.7c0.1,-1.2,0,-3.8,0.1,-4.7c0.1,-1,0,-2.4,0,-4.7c0,-2.3,-0.3,-4.2,-0.4,-4.9c-0.1,-0.7,0,-1.6,-1.9,-4.7c-1.9,-3.2,-2.7,-3.1,-3.4,-3.8c-0.8,-0.6,-1.5,-0.8,-2,-1c-0.4,-0.2,-1.3,-0.3,-1.3,-0.3Z" class="g4_93" />
<path d="M302.3,331.2c0.1,0,1.1,0.6,2.5,2.4c1.6,2,1.7,3.2,1.9,3.8c0.2,0.5,0.6,1.4,0.6,3.2c0.1,1.7,0.4,4.2,0.3,5.4c-0.1,1.2,-0.2,2.8,-0.1,3.9c0.2,1.2,0.3,3.7,0.3,4.5c-0.1,0.7,-0.1,3.6,-0.7,4.8c-0.6,1.3,-0.8,2.2,-0.8,2.2c0,0,0.8,-4.2,0.8,-4.7c0.1,-0.4,0.3,-3.5,0.2,-4.2c-0.1,-0.6,-0.2,-3.5,-0.2,-4.2c0,-0.7,-0.1,-6.3,-0.1,-7c-0.1,-0.6,-0.4,-3.4,-0.6,-4.1c-0.3,-0.8,-0.8,-2.5,-2.2,-4.1c-1.4,-1.6,-1.9,-1.9,-1.9,-1.9Z" class="g4_93" />
<path d="M306.5,345c0,0.1,0,2.6,-0.1,3.3c-0.1,0.7,0,2,0,2.8c0.1,0.8,0.3,1,0.3,1.7c0.1,0.7,-0.2,3.5,-0.4,4.1c-0.2,0.6,0.7,-2.9,0.7,-4c0.1,-1.1,0,-3.3,-0.1,-4c0,-0.6,-0.1,2.5,-0.2,2.5c0,0.1,0,-3.7,0,-4.2c0,-0.5,-0.2,-2.2,-0.2,-2.2Z" class="g4_93" />
<path d="M303.8,360.3c0,-0.1,0.8,-2.4,1.1,-4c0.4,-1.6,0.6,-2.3,0.6,-2.5c0,-0.1,0.3,1.6,0.4,2.2c0,0.6,0.1,0.8,0.1,2.2c-0.1,1.3,-0.8,3.1,-1.2,3.6c0.5,-1.2,1,-2.5,1,-3.4c0,-0.8,-0.2,-1.2,-0.2,-1.2c0,0,-0.1,2.1,-0.2,2.5c-0.1,0.4,-0.3,-1.4,-0.3,-1.8c0,-0.5,-0.5,0.6,-0.6,0.9c-0.1,0.3,-0.7,1.5,-0.7,1.5Z" class="g4_93" />
<path d="M302.5,366.2c-0.1,0.1,1.2,-1.5,1.5,-2.2c0,-0.2,-0.6,0.4,-1,0.6c0.3,-0.2,0.7,-0.5,1.4,-1.5c0.7,-1,0.6,-1,0.9,-1.6c0.3,-0.6,0.8,-2.8,0.9,-3c0.1,-0.3,0.8,-3.2,0.8,-3.2c0,0,-0.4,2.8,-0.7,3.7c-0.3,0.9,-0.7,2.2,-0.9,2.7c-0.2,0.4,-2.2,4.1,-2.9,4.5Z" class="g4_93" />
<path d="M294.6,353.3c0,0,0.9,1.4,1.5,2c0.7,0.6,1.8,1,2.7,1c0.9,0,2.4,-0.1,3.8,-0.9c1.4,-0.7,1.9,-1.2,2.1,-1.3c0.1,0,0.1,0.6,-0.2,0.9c-0.4,0.3,-1.6,1.3,-2.4,1.6c-0.9,0.4,-2.9,0.8,-4.4,0.2c-1.6,-0.6,-3.2,-2.3,-3.5,-2.8c-0.4,-0.7,0.2,0.2,0.6,0.4c0.5,0.6,-0.2,-1.1,-0.2,-1.1Z" class="g4_93" />
<path d="M311.1,355.1c0.1,0,0.8,0.2,1.7,0.7c1.3,0.8,2.6,1.9,2.9,2.2c0.4,0.5,1.8,2.5,2.1,4.3c0.2,1.2,0,2.3,0,2.3c0,0,-0.2,-3.4,-2.4,-6.3c-1,-1.3,-2,-1.7,-2.5,-2c-0.6,-0.4,-1.7,-0.7,-1.8,-0.5c-0.2,0.1,0.1,2.3,0,3c-0.1,0.7,-0.4,2.7,-0.4,2.7c0,0,-0.4,-5.2,-0.3,-6.3c0,-1.1,-0.3,-3.5,-0.3,-3.5Z" class="g4_93" />
<path d="M290.5,354.4c-0.2,0.1,-2.3,0.5,-2.9,0.8c-0.5,0.3,-2.3,1.5,-2.9,2.4c-0.6,0.8,-1.4,3.3,-1.4,3.3c0,0,0.9,-2.9,2.2,-3.8c1.3,-0.9,1.6,-1.6,2.7,-1.7c1.1,-0.2,2.3,-1,2.3,-1Z" class="g4_93" />
</g>
<path d="M297.1,395.4c0,0,-0.1,-0.1,-0.1,-0.1c0,-0.1,0.1,-0.1,0.1,-0.1c0.1,0,0.1,0,0.1,0.1c0,0,0,0.1,-0.1,0.1m0.6,-0.3c-0.3,0,-1,0,-1.2,0c-0.2,0,-0.7,0.2,-0.8,0.3c-0.2,0.1,-0.4,0.3,-0.5,0.3c-0.2,0,-0.2,0.1,-0.2,0.1c0,0,0.5,-0.1,0.5,-0.1c0.1,-0.1,0.2,-0.1,0.3,-0.1c0.1,0,0.4,0,0.4,0c0,0,-0.1,-0.2,0,-0.3c0.1,0,0.2,0,0.3,0c0,0,-0.1,0.2,0.2,0.3c0.3,0.2,0.7,0,0.7,-0.1c0.1,-0.1,0.1,-0.2,0.1,-0.2c0,0,0.2,-0.2,0.8,0.4c0,0,-0.3,-0.5,-0.6,-0.6Z" class="g5_93" />
<path d="M303.1,395c0,0,-0.1,-0.1,-0.1,-0.1c0,-0.1,0.1,-0.1,0.1,-0.1c0.1,0,0.1,0,0.1,0.1c0,0,0,0.1,-0.1,0.1m1.5,0c-0.2,0,-0.2,-0.1,-0.5,-0.2c-0.4,-0.2,-1,-0.1,-1.6,-0.1c-0.5,0.1,-1,0.8,-1,0.8c0,0,0.7,-0.7,0.8,-0.6c0.2,0.2,0.3,0.3,0.8,0.3c0.5,0,0.5,-0.4,0.6,-0.4c0.1,0,0,0.2,0.1,0.2c0.1,0,0.3,0.1,0.5,0.1c0.1,0,0.6,0,0.6,0c0,0,-0.1,0,-0.3,-0.1Z" class="g5_93" />
<path d="M298.5,394.2c0,0,-0.2,-0.3,-0.6,-0.3c-0.5,-0.1,-1.4,-0.1,-1.8,-0.1c-0.3,0,-1,0.3,-1.1,0.4c-0.1,0,-0.5,0.2,-0.5,0.2c0,0,1.1,-0.1,1.4,-0.1c0.3,0,1.2,0,1.7,0c0.4,0,0.8,0.1,0.9,-0.1Z" class="g5_93" />
<path d="M301.1,394c0,0,-0.1,-0.4,0.5,-0.5c0.5,-0.1,0.7,-0.1,1.3,-0.2c0.6,-0.1,0.7,-0.1,1,-0.1c0.3,0,1.2,0.2,1.4,0.3c0.2,0.1,-0.6,0.1,-0.7,0.1c-0.2,0.1,-1.4,0.2,-1.6,0.3c-0.3,0,-1.8,0.1,-1.9,0.1Z" class="g5_93" />
<path d="M298,398.6c0,0,0.1,0.5,0.2,0.6c0.1,0.1,0.2,0.1,0.5,0.1c0.4,0,0.5,0,0.6,0.1c0.1,0.1,0.2,0.2,0.2,0.2c0,0,-0.4,-0.1,-0.6,-0.1c-0.3,0,-0.5,0,-0.6,0c-0.1,-0.1,-0.4,-0.4,-0.3,-0.9Z" class="g5_93" />
<path d="M299.9,399.8c0,0,0.5,0,0.6,0c0.2,-0.1,0.4,-0.4,0.6,-0.5c0.2,-0.1,0.2,-0.2,0.5,-0.2c0.3,0,0.4,0,0.5,-0.1c0,-0.2,0.1,-0.5,0,-0.8c0.4,0.7,-0.2,1,-0.2,1c0,0,-0.5,0.1,-0.7,0.2c-0.1,0,-0.6,0.7,-1.3,0.4Z" class="g5_93" />
<path d="M302,397.7c0,0,0.4,0.3,0.5,0.4c0.2,0.2,0.4,0.6,0.5,0.7c0.2,0.2,0.4,0.4,0.7,0.6c0.3,0.2,0.4,0.3,0.5,0.4c0.1,0.1,0.2,0.6,0.2,0.6c0,0,0.1,-0.7,-0.1,-0.9c-0.3,-0.2,-0.6,-0.1,-0.9,-0.4c-0.6,-0.5,-0.5,-1.2,-1.4,-1.4Z" class="g5_93" />
<path d="M297.4,398.7c0,0,-0.4,0.6,-0.5,0.8c-0.2,0.1,-0.5,0.4,-0.7,0.5c-0.1,0.1,-0.3,0.4,-0.1,1c0,-0.6,0.1,-0.7,0.2,-0.9c0.2,-0.1,0.5,-0.3,0.7,-0.5c0.2,-0.2,0.3,-0.8,0.4,-0.9Z" class="g5_93" />
<path d="M297,401c0,0,0.7,0,0.9,-0.1c0.3,-0.1,0.8,-0.1,1.1,-0.1c0.3,0,0.8,0,1,0.1c0.2,0,0.4,-0.1,0.6,-0.1c0.1,-0.1,1.8,-0.2,2.1,-0.2c0.3,0,0.8,0,0.8,0c0,0,-0.1,0.2,-0.2,0.5c-0.2,0.2,-0.9,2.1,-2.6,2.2c-1.8,0.2,-2.6,-0.9,-2.6,-0.9c0,0,0.6,0.6,1.4,0.7c0.8,0.1,1.4,0,1.8,-0.2c0.4,-0.2,0.7,-0.3,0.8,-0.6c0,-0.3,0.1,0.1,-2,0.2c-0.3,0,2.3,-0.4,2.8,-1.2c0.1,-0.3,0,-0.5,0,-0.5c0,0,-0.8,-0.1,-1.2,0c-0.3,0.1,-0.7,0.3,-0.9,0.3c-0.1,0,-0.8,0,-1.1,0c-0.2,0,-0.8,-0.1,-1.1,-0.1c-0.2,0,-0.8,0.1,-0.8,0.1l0,0.3c0,0,0.2,0.4,0.5,0.5c0.3,0.2,0.9,0.6,1,0.6c0,0,-1.1,-0.4,-1.7,-0.8C297.1,401.3,297,401,297,401Z" class="g5_93" />
<path d="M304.1,392.8c0,0,1,-0.8,1.2,-1.4c0.1,-0.6,0.1,-0.2,0.1,-0.2c0,0,0,0.5,0.1,0.7c0,0.2,0.1,0.4,0.5,0.9c0.3,0.4,0.3,0.4,0.4,0.9c0,0.5,0,1.2,0.1,1.5c0.1,0.4,0.1,0.8,0.1,1.1c0,0.3,-0.1,1.1,-0.1,1.5c-0.1,0.3,-0.2,2,-0.2,2.3c-0.1,0.3,-0.3,1.6,-0.8,2.3c-0.5,0.7,-2.1,2.8,-2.7,3.1c-0.7,0.3,-1.4,0.5,-1.9,0.5c-0.4,-0.1,-1.2,0,-1.5,-0.1c-0.2,-0.1,-0.9,-0.2,-1.2,-0.5c-0.3,-0.4,-1.1,-1.1,-1.6,-1.6c-0.6,-0.6,-1.2,-1.3,-1.1,-1.3c0,0.1,1.1,1.4,1.2,1.7c0.2,0.2,0.9,0.9,1.4,1.3c0.5,0.5,1.1,0.8,2,0.8c1,0,1.9,-0.1,2.2,-0.2c0.4,-0.1,1.2,-0.8,1.5,-1.3c0.3,-0.5,1.5,-1.9,1.7,-2.2c0.3,-0.4,0.8,-1.5,0.9,-2.3c0.1,-0.9,0.2,-2.3,0.2,-2.6c0,-0.4,0.1,-0.9,0.3,-1c0.1,-0.1,0.1,-0.8,0.1,-1.1c0.1,-0.2,-0.1,-0.5,0,-0.7c0.1,-0.2,0.3,-0.3,0.3,-0.3c0,0,0,-1.1,0,-1.2c0.1,0,0.3,0.1,0.3,0.1c0,0,-0.2,-0.7,-0.1,-0.7c0,-0.1,0.4,0.4,0.4,0.4c0,0,-0.1,-0.5,0,-0.5c0.1,0.1,0.4,0.1,0.4,0.1c0,0,-0.3,-0.3,-0.4,-0.4c0,-0.1,-0.1,-0.3,0,-0.4c0.1,-0.1,0.3,0,0.3,0c0,0,-0.3,-0.3,-0.3,-0.4c0,-0.1,0.1,-0.2,0.1,-0.2c0,0,-0.1,0,-0.2,-0.1c-0.1,-0.1,-0.1,-0.3,-0.1,-0.3l0.3,0.2c0,0,-0.3,-0.3,-0.2,-0.3c0,-0.1,0.1,-0.1,0.1,-0.1c0,0,-0.3,-0.1,-0.3,-0.2c0,-0.1,0.2,-0.2,0.2,-0.2c0,0,-0.2,0,-0.3,-0.2c0,-0.2,0,-0.4,0,-0.5c0,-0.2,-0.2,-0.4,-0.2,-0.4c0.1,0,0.3,-0.1,0.3,-0.1c0,0,-0.1,-0.1,-0.2,-0.1C307.2,389,307,388.9,307,388.9l0.4,-0.1c0,0,-0.1,-0.1,-0.2,-0.2c-0.2,0,-0.2,-0.1,-0.1,-0.1c0.2,0,0.3,-0.1,0.3,-0.1c0,0,-0.3,-0.2,-0.4,-0.2c-0.1,-0.1,-0.2,-0.2,-0.2,-0.2c0.1,0,0.2,-0.2,0.2,-0.2c0,0,-0.1,-0.1,-0.3,-0.2c-0.1,-0.1,-0.1,-0.2,-0.1,-0.3c-0.1,0,-0.2,0,-0.4,0c-0.1,-0.1,-0.1,-0.4,-0.1,-0.4c0,0,-0.1,-0.3,-0.1,-0.4c0,0,-0.1,-0.3,0,-0.3c0,0,-0.2,0,-0.2,0.1c-0.1,0.1,0,0.4,-0.2,0.4c-0.2,0.1,-0.8,0.5,-1,0.5c-0.1,0.1,-0.5,0.2,-0.6,0.2c-0.1,0.1,-0.4,0.2,-0.4,0.2c0,0,0.6,0,0.9,0c0.2,-0.1,0.5,-0.1,0.7,-0.2c0.2,-0.1,0.2,0,0.2,0.1c-0.1,0.1,-0.6,0.5,-0.7,0.7c-0.1,0.1,-0.4,0.2,-0.3,0.2c0.1,0,1.1,-0.5,1.1,-0.6c0.1,-0.1,0.2,0.1,0.2,0.2c-0.1,0,-0.3,0.6,-0.6,0.7c-0.2,0.1,-1.2,0.5,-1.2,0.5c0,0,0.5,0,0.9,-0.1c0.4,-0.2,1,-0.8,1,-0.9c0.1,0,0.2,0.4,0.1,0.6c0,0.1,-0.3,0.5,-0.3,0.5l0.5,-0.4c0,0,-0.2,0.7,-0.3,0.8c0,0.2,-0.2,0.6,-0.1,0.7c0,0.1,-0.3,0.5,-0.4,0.5c-0.1,0,-0.3,1.3,-1.2,1.9Z" class="g5_93" />
<path d="M308,393.4c0,0,0,0.3,0,0.5c0,0.3,-0.1,0.4,-0.1,0.5c-0.1,0.1,-0.2,-0.2,-0.2,-0.3c-0.1,0,0,-0.5,0,-0.7c0,-0.2,-0.1,-0.4,-0.1,-0.4Z" class="g5_93" />
<path d="M307.5,394.5c0.1,0.1,0.1,0.4,0.1,0.6c0,0.2,-0.3,0.6,-0.4,0.6c-0.1,0.1,-0.1,-0.4,-0.1,-0.5c0,-0.2,0.4,-0.7,0.4,-0.7Z" class="g5_93" />
<path d="M308.1,393.4c0,0,0.2,0.2,0.1,0.5c-0.1,0.2,-0.2,0.7,-0.3,0.9c0,0.3,0,1,-0.1,1.1c0,0.1,-0.5,0.7,-0.6,0.8c0,0.1,-0.1,0.7,-0.3,0.8c0.1,-0.4,0.2,-0.9,0.2,-0.9c0,0,0.5,-0.6,0.6,-0.8c0.1,-0.2,0.1,-0.9,0.2,-1.1c0,-0.2,0.4,-1.1,0.2,-1.3Z" class="g5_93" />
<path d="M302.6,392.5c0,0,1.7,-1,2,-1.4c0.4,-0.4,0.9,-1,0.8,-1c0,0,0.2,-0.5,0.2,-0.5c0,0,-1,1.2,-1,1.3c-0.1,0,-2,1.6,-2,1.6Z" class="g5_93" />
<path d="M301.4,391.7c0.1,0,0.9,-0.7,1.1,-0.7c0.1,0,0.7,0,1.2,-0.2c0.6,-0.3,0.7,-0.5,1,-0.7c0.3,-0.2,0.6,-0.6,0.6,-0.6c0,0,-0.5,0,-0.7,0c-0.2,0.1,-0.5,0.2,-0.8,0.4c-0.2,0.1,-1,0.3,-1,0.5c-0.1,0.1,-0.2,0.3,-0.3,0.4c-0.2,0.1,-1.1,0.9,-1.1,0.9Z" class="g5_93" />
<path d="M299.2,391.4c0.1,0,1.2,-0.6,1.5,-0.7c0.2,-0.1,0.7,-0.3,0.8,-0.3c0.2,-0.1,0,0.1,-0.1,0.2c0,0.1,-1.3,1,-1.2,1c0.1,0,1.4,-1,1.6,-1.1c0.3,0,0,0.4,-0.2,0.6c-0.2,0.2,-0.9,0.7,-0.8,0.7c0,-0.1,1.4,-1.2,1.6,-1.4c0.2,-0.2,0.5,-0.6,0.7,-0.6c0.3,-0.1,0.8,-0.2,0.8,-0.2c0,0,-1,0,-0.9,-0.1c0.1,-0.1,0.7,-0.3,0.8,-0.4c0.2,0,-0.2,0.1,-0.8,0.1c-0.5,0,-1.4,0,-1.7,0c-0.3,0,-0.7,-0.1,-0.9,-0.1c-0.1,-0.1,0,0.2,0.1,0.2c0,0.1,-0.7,0.4,-0.9,0.5c-0.2,0,-0.7,0.4,-1.2,0.6c-0.4,0.2,-1.3,0.7,-1.4,0.8c-0.1,0.1,1.2,-0.5,1.2,-0.4c0,0.2,-0.4,0.8,-0.8,1.2c-0.4,0.5,-1.6,1.3,-1.6,1.3c0,0,1.2,-0.6,1.9,-1.3c0.7,-0.7,0.9,-1.1,1,-1.2c0.2,0,0.4,-0.3,0.6,-0.3c0.2,0,-0.1,0.4,-0.1,0.4l-1.1,1.1c0,0,1.7,-1.3,2,-1.4c0.4,-0.2,0.6,-0.2,0.6,-0.2Z" class="g5_93" />
<path d="M302.6,388.9c0,0,1.2,-0.5,1.2,-0.5c0,-0.1,-0.1,-0.2,-0.4,-0.1c-0.3,0.1,-0.9,0.5,-1.5,0.5c0,-0.1,1.1,-0.5,1.1,-0.5c0,0,0.4,-0.2,0.8,-0.2c0.3,-0.1,0.9,-0.4,0.9,-0.4c0,0,-0.7,0.6,-0.8,0.8c-0.2,0.2,-0.2,0.4,-0.6,0.4c-0.4,0.1,-0.7,0,-0.7,0Z" class="g5_93" />
<g clip-path="url(#c4_93)">
<path d="M302.3,387.3c0,0,0.7,0.1,1.4,-0.1c0.6,-0.1,1,-0.4,1.2,-0.6c0.2,-0.1,0.9,-0.6,1,-0.7c0.1,0,0,0,0.3,0.1c0.3,0.2,1,0.6,1,0.9c0,0.3,0,0.7,0,0.7c0,-0.1,0.1,-0.6,0.1,-0.6c0,0,0.3,0.3,0.4,0.9c0.4,-0.3,-0.7,-2.1,-1.7,-2.2c-1,-0.1,-0.7,0,-0.8,0c0,-0.1,-0.1,-0.2,0,-0.3c0.1,-0.1,-0.2,-0.2,-0.2,-0.2l0.3,-0.4c0,0,-0.5,0.4,-0.6,0.3c-0.1,0,0,-0.2,0.1,-0.3c0.1,0,0.3,-0.1,0.3,-0.1c0,0,-0.3,-0.1,-0.5,0.1c-0.2,0.2,-0.3,0.3,-0.3,0.3c-0.1,0,-0.3,-0.1,-0.1,-0.2c0.1,-0.2,0.5,-0.5,0.5,-0.5c0,-0.1,-0.6,0.5,-0.6,0.3c0,-0.1,0.1,-0.4,-0.4,-0.9c-0.5,-0.5,-0.7,-0.7,-1.3,-0.8c-0.7,-0.2,-1.3,-0.1,-1.3,-0.1c-0.1,0,1,0.1,1.3,0.3c0.4,0.2,0.9,0.5,1.2,1.1c-0.2,-0.1,-0.6,-0.7,-1,-0.8c0.4,0.4,0.7,0.7,0.7,0.9c0.1,0.2,-0.4,-0.5,-1.4,-0.9c-1,-0.5,-1.7,-0.6,-2.1,-0.5c-0.4,0.1,-1,0.4,-1,0.4c0,0,1.4,0,2,0.2c0.6,0.2,0.6,0.3,0.8,0.3c0.2,0,0.3,0,0.6,0c0.2,0.1,0.8,0.4,0.5,0.4c-0.4,0,-1.5,-0.1,-2.1,-0.1c-0.5,0,-0.6,0,-0.6,0c0,0,0.8,0.2,1.2,0.3c0.4,0,1.3,-0.1,1.6,0.1c0.2,0.1,0.7,0.5,0.4,0.4c-0.3,0,-0.5,0,-0.5,0c0,0,0.6,0.3,0.6,0.4c-0.1,0.1,-0.6,-0.2,-0.8,-0.2c-0.2,-0.1,0.3,0.3,0.6,0.4c0.3,0.1,0.5,0.1,0.9,0.2c0.3,0.1,0.8,0,0.7,0.2c-0.1,0.1,0.2,0.2,-0.6,0.1c-0.7,-0.1,-1.8,-0.6,-2.2,-0.6c-0.3,-0.1,-0.5,0,-0.5,0c0,0,0.6,0.2,0.8,0.3c0.3,0.1,1.3,0.4,1.5,0.5c0.2,0.1,-0.8,-0.1,-1.1,-0.1c-0.2,0,-0.6,0.1,-0.6,0.1c0,0,1.3,0.1,1.3,0.2c0,0,-0.8,0.1,-1,0.1c-0.3,-0.1,-1.3,-0.2,-1.4,-0.1c-0.1,0,1.8,0.3,1.7,0.3c-0.2,0.1,-1.5,0.6,-3.6,-0.5c-0.2,-0.1,0.7,0.6,1,0.7c0.3,0.1,1,0.3,1.3,0.2c0.3,0,1.7,-0.4,1.8,-0.3c0.2,0.1,-0.3,0.4,-0.8,0.4Z" class="g5_93" />
</g>
<path d="M297.7,386c0.4,0.1,0.4,0.3,0.8,0.6c0.5,0.3,1.1,0.4,1.4,0.7c0.3,0.2,0.7,0.2,1,0.5c0.4,0.2,1,0.6,1.3,0.6c0.2,0,-0.4,0.2,-0.7,0.2c-0.4,0,-0.6,-0.4,-1,-0.4c-0.5,0,-0.8,-0.1,-1.5,0.1c-0.7,0.2,-1.1,0.1,-1.3,0.2c-0.3,0.1,-0.8,0.2,-1.2,0.2c-0.5,-0.1,-0.7,0,-1.3,0c-0.6,-0.1,-1.1,0,-1.4,0.1c-0.4,0.1,-0.8,0.4,-0.9,0.4c-0.1,0,-0.3,0.1,-0.4,0.2c-0.1,0,-0.5,0.5,-0.6,0.6c-0.1,0.1,0.3,-0.7,0.6,-0.9c0.4,-0.2,0.8,-0.4,1.2,-0.5c0.3,-0.2,0.3,-0.4,1,-0.3c0.6,0.2,1.5,0.1,1.8,0.1c0.3,0,1.1,0,1.5,-0.1c0.4,-0.1,1.6,-0.2,1.7,-0.3c0.2,-0.1,-0.4,-0.2,-0.8,-0.1c-0.5,0,-1,0.1,-1.6,0c-0.6,-0.1,1.4,-0.1,1.5,-0.2c0.1,-0.2,0.1,-0.3,-0.1,-0.4c-0.2,0,-0.5,-0.1,-0.9,-0.1c-0.3,0,-1.1,0,-1.7,0c-0.5,0,-1.3,-0.1,-1.7,0.1c-0.4,0.2,-1.2,0.8,-1.3,0.8c-0.1,0.1,0.8,-1.1,1.5,-1.1c0.6,-0.1,2.9,0,3.4,0c0.5,0.1,1.2,0.4,1.4,0.5c0.3,0,0.5,-0.1,0.1,-0.2c-0.3,-0.1,-1.4,-0.6,-1.6,-0.6c-0.2,0,-1.3,0,-1.7,0.1c-0.4,0.1,0.6,-0.2,1.1,-0.2c0.5,-0.1,0.7,-0.2,0.5,-0.3c-0.1,-0.1,-0.5,0.1,-0.8,0.1c-0.3,0,-1,0,-1.3,0c-0.4,0.1,-1.2,0.3,-1.5,0.4c-0.2,0.1,-0.9,0.3,-0.8,0.3c0.1,-0.1,1.2,-0.6,1.6,-0.7c0.5,-0.2,1.9,-0.3,1.9,-0.3c0,0,-0.1,-0.1,-0.7,-0.1c-0.6,0.1,-1.6,0.2,-1.7,0.2c-0.1,0.1,0.6,-0.2,1,-0.3c0.4,-0.1,1.2,-0.3,2.2,0.1Z" class="g5_93" />
<g clip-path="url(#c4_93)">
<path d="M298.6,383c0,0,-0.5,-0.1,-1.1,-0.1c-0.5,0.1,-0.8,0.1,-1.3,0.3c-0.4,0.1,-1.3,0.4,-1.5,0.6c-0.2,0.1,-1.2,0.6,-1.5,0.8c-0.2,0.3,-0.9,0.9,-0.8,0.9c0,0,1,-0.8,1.2,-0.8c0.2,0,0.2,0.2,-0.2,0.4c-0.5,0.1,-0.9,0.5,-0.9,0.5c0.1,0,0.4,-0.1,0.3,0c-0.1,0.1,-1,0.9,-1.1,1.2c-0.2,0.2,0.8,-0.7,0.7,-0.5c0,0.1,-1,1.3,-1.1,1.5c-0.1,0.2,-0.2,0.8,-0.2,0.8c0,0,0.4,-0.7,0.5,-0.7c0.1,0,-0.1,0.4,-0.3,0.6c-0.1,0.3,-0.3,0.5,-0.3,0.7c-0.1,0.2,0,0.8,0.1,0.9c0,0,0.2,1.3,0.2,1.3c0,0,0.2,-0.3,0.3,-0.3c0.1,0.1,0,0.8,0,0.9c0,0,0,0.5,0,0.5c0,-0.1,0.5,-0.4,0.4,-0.2c-0.1,0.1,-0.3,0.3,-0.4,0.4c-0.1,0.2,0.1,0.2,0.2,0.3c0,0.1,-0.1,0.7,-0.1,0.7c0,0,0.1,0.2,0.2,0.1c0.1,0,0.4,-0.3,0.4,-0.2c0.1,0,0,0.6,0,0.6c0,0,0,0.4,0.1,0.4c0.1,0,0.2,0.2,0.2,0.3c0,0.1,0,0.5,0,0.6c0.1,0.1,0.1,0.4,0.3,0.6c0,0,0.1,0.5,0.1,0.7c0,0.2,0.1,0.5,0.1,0.5c0,0,0.6,0.7,0.7,1c0.1,0.4,0.2,0.8,0.2,0.8c0,0,-0.1,-0.9,-0.2,-1.1c-0.1,-0.3,-0.4,-0.9,-0.4,-1.4c0,-0.5,-0.1,-1.5,0,-1.7c0.2,-0.1,0.3,-0.2,0.3,0c0,0.1,0.1,0.3,0.2,0.2c0.1,-0.1,0.2,-0.1,0.3,-0.2c0,-0.1,0.1,0.2,0.1,0.1c0,0,0,-0.6,0,-0.7c0,0,0.2,0.3,0.2,0.3c0,0,0,-0.4,0.1,-0.5c0,-0.1,0.4,-0.2,0.5,-0.2c0,-0.1,0,-0.5,0.1,-0.6c0,-0.1,0.4,-0.5,0.4,-0.5c0,0,-0.1,0.7,-0.2,0.8c-0.1,0.2,0,1.2,0,1.1c0.1,-0.1,0.2,-1.5,0.4,-1.8c0.1,-0.2,0.6,-0.7,0.6,-0.7c0,0,-0.6,0.5,-0.6,0.5c0,-0.1,0.5,-0.6,0.5,-0.6c-0.1,0,-1.1,0.8,-1.1,0.8c0,0,-0.5,0.6,-0.6,0.7c0,0,0,-0.5,0.2,-0.7c0.1,-0.2,-0.5,0.6,-0.6,0.7c-0.1,0,-0.2,0.1,-0.1,-0.4c0.1,-0.5,0.2,-0.8,0.2,-0.8c0,0,-0.4,0.3,-0.4,0.7c-0.1,0.4,-0.3,0.5,-0.3,0.5c0,0,0.1,-1,0.2,-1.3c0.1,-0.2,0.3,-0.6,0.3,-0.7c0,-0.1,0.1,-0.5,0.2,-0.6c0,0,-0.5,0.3,-0.5,0.5c-0.1,0.2,-0.1,0.4,-0.3,0.6c-0.1,0.2,-0.5,0.7,-0.5,0.7c-0.1,0.1,-0.2,-0.4,-0.1,-0.7c0,-0.2,0.2,-0.8,0.4,-1c0.2,-0.2,0.1,0.2,0.1,0.2c0,0,0.3,-0.4,0.4,-0.5c0.1,0,0.4,-0.6,0.4,-0.6c0,0,-0.2,0.7,-0.1,0.6c0.1,-0.1,0.5,-0.5,0.5,-0.5c0,0,-0.3,0.9,-0.2,0.8c0.1,0,0.6,-0.6,0.8,-0.7c0.2,-0.2,0.4,-0.1,0.4,-0.1c0,0,-0.8,1.1,-0.8,1c0.1,0,1.1,-1,1.2,-1.1c0.2,0,0.2,0.3,0.2,0.3c-0.1,0.1,-1.2,1.1,-1.1,1c0,0,1.1,-0.6,1.3,-0.9c0.1,-0.2,0.2,-0.3,0.2,-0.3c0,0,-0.1,-0.3,0,-0.4c0.1,0,0.8,-0.4,1.6,-0.3c0.7,0.1,0.7,0,0.9,0c0.2,0,0.5,-0.2,0.5,-0.2c0,0,-0.7,-0.1,-1,-0.1c-0.3,0,0.6,0,0.8,-0.1c0.2,-0.1,-1.2,0,-1.4,-0.1c-0.2,0,-0.5,-0.1,-0.8,0c-0.3,0.1,-0.6,0.3,-1,0.4c-0.4,0.1,-0.2,-0.1,-0.8,0c-0.6,0,-0.8,0.1,-1.1,0.2c-0.2,0.1,-0.7,0.4,-0.7,0.5c0,0.1,0.1,-0.2,0.3,-0.3c0.2,-0.2,-0.4,0.3,-1,0.4c-0.6,0.1,-0.6,0.4,-0.6,0.4c0,0,0,-0.4,0,-0.5c0.1,0,0.4,-0.1,0.8,-0.3c0.4,-0.2,0.6,-0.5,1,-0.6c0.5,0,1.3,-0.1,1.4,-0.1c0.1,0,-0.8,-0.1,-1.1,-0.1c-0.3,0,-1.3,0.5,-1.5,0.6c-0.1,0.2,-0.6,0.3,-0.7,0.3c0,0.1,-0.4,0.3,-0.4,0.3c0,0,-0.1,-0.8,0.3,-1c0.3,-0.2,0.5,-0.8,0.6,-0.8c0.2,-0.1,0.5,-0.1,0.5,-0.1c0,0,-0.2,-0.2,-0.8,0c-0.5,0.1,0.4,-0.4,0.5,-0.7c0.2,-0.3,-0.3,-0.2,-0.3,-0.2c0,0,-0.5,0.5,-0.7,0.8c-0.1,0.4,0.2,-0.8,0.4,-1c0.3,-0.3,0.5,-0.5,0.7,-0.8c0.2,-0.2,0.9,-0.3,0.9,-0.3c0,0,0.7,-0.2,0.8,-0.3c0.1,-0.2,-0.5,0,-0.3,-0.2c0.2,-0.2,0.5,-0.3,0.3,-0.3c-0.3,0,-0.7,0.4,-1,0.6c-0.4,0.1,0.1,-0.4,0.1,-0.4c0,0,0.3,-0.5,1.2,-0.5c0.9,0,1.1,-0.3,1.2,-0.3c0.2,0,0.1,0.1,0.7,0.3c0.7,0.2,1.1,0.2,1.1,0.2c0,0,-0.6,-0.3,-0.5,-0.3c0.1,-0.1,0.9,0,1.3,0.1c0.5,0,1.3,0.2,1.5,0.2c0.3,0.1,-0.6,-0.4,-0.8,-0.4c-0.2,0,-1.4,-0.4,-1.7,-0.3c-0.4,0.2,-0.4,0.5,-0.8,0.3c-0.4,-0.2,-0.9,-0.4,-0.5,-0.5c0.4,-0.1,1,0,1.2,0c0.3,0,1.4,0.1,1.6,0.1c0.2,-0.1,-1,-0.3,-1.1,-0.3c-0.1,0,-0.8,-0.1,-1.4,-0.1c-0.6,0,-1.1,0.2,-1.4,0.3c-0.3,0.1,-1.2,0.5,-1.3,0.6c-0.1,0,0.5,-0.7,0.8,-0.8c0.3,-0.1,0.9,-0.8,1.9,-0.9c1.1,-0.1,1.8,-0.3,1.8,-0.3Z" class="g5_93" />
</g>
<path d="M292.2,393.8c0,-0.1,-0.3,0.4,-0.3,0.6c0,0.3,0.1,0.6,0.1,0.6c0,0,0,-0.3,0.1,-0.3c0.2,0,0.2,0.3,0.3,0.4c0.1,0.2,0.1,-0.1,0.1,-0.2c-0.1,-0.2,-0.5,-0.6,-0.3,-1.1Z" class="g5_93" />
<path d="M292,395.6c0.1,0,0.2,0.4,0.2,0.6c0,0.3,0.1,0.6,0.5,1c0.4,0.5,0.3,0.5,0.5,0.8c0.2,0.3,0.5,0.4,0.5,0.4c0,0,-0.3,-0.3,-0.4,-0.5c-0.2,-0.2,-0.9,-0.9,-1,-1.5c-0.1,-0.6,-0.3,-0.8,-0.3,-0.8Z" class="g5_93" />
<g clip-path="url(#c4_93)">
<path d="M295.5,402.7c0,0,0.1,1.1,0.1,1.5c-0.1,0.4,0,0.7,-0.1,1c-0.2,0.2,-0.4,0.6,-0.7,0.7c-0.3,0.1,-0.3,0,-0.6,0.1c-0.3,0.1,-0.6,0.2,-1,0.4c-0.4,0.2,-1,0.3,-1.2,0.5c-0.3,0.1,-0.5,0.3,-1,0.4c-0.5,0,-0.8,0.2,-1.3,0.5c-0.4,0.2,-2,1.1,-2.4,1.3c-0.5,0.1,2.3,-1.1,2.4,-1.1c0.2,0,-2.9,2.1,-2.1,1.8c0.7,-0.3,2.4,-1.5,2.9,-1.8c0.5,-0.4,0.8,-0.5,1,-0.5c0.2,0,-0.2,0.9,-0.6,1.2c-0.4,0.4,-1.1,1.9,-1,1.8c0.1,-0.1,2,-2.9,2.3,-3.1c0.3,-0.2,0.7,-0.4,0.7,-0.3c0.1,0.1,-0.1,0.9,0,1.4c0.1,0.4,0.8,2.3,0.8,2.5c0.1,0.2,-0.2,-1.2,-0.1,-1.6c0.1,-0.5,0.2,-1,0.3,-0.7c0.2,0.2,1.3,3.1,1.7,3.6c0.4,0.6,1.3,1.7,1.3,1.7c0,0,-3.1,-4.9,-2.9,-6.3c0.1,-1.5,0.5,-1.4,1,-1.5c0.4,-0.1,0.6,-0.3,0.8,-1.1c0.1,-0.2,-0.3,-2.4,-0.3,-2.4Z" class="g5_93" />
<path d="M305.6,404c0,0.2,0.5,1,1,1.2c0.5,0.3,1.3,0.2,1.6,0.4c0.3,0.1,1.1,0.4,1.7,0.6c0.6,0.1,2.5,0.5,2.5,0.5c0.1,0,-2.3,-0.3,-2.5,-0.1c-0.2,0.1,-0.2,0.6,-0.2,0.9c0,0.2,-0.2,-0.3,-0.4,-0.8c-0.2,-0.4,-0.6,-0.5,-0.6,0c0,0.5,-0.4,1.5,-0.7,2.1c-0.3,0.6,-1.5,1.5,-1.8,2c-0.3,0.4,-0.9,0.7,-0.9,0.7c0,0,1.4,-2.6,1.7,-3.2c0.2,-0.6,0.7,-2.3,0.5,-2.5c-0.2,-0.2,-1.2,-0.4,-1.6,-0.8c-0.3,-0.4,-0.3,-1,-0.3,-1Z" class="g5_93" />
</g>
<path d="M299.5,447.1c0,0,0.1,-0.4,-0.3,-0.6c-0.5,-0.3,-1,-0.5,-2.2,-0.4c-1.2,0,-1.4,0.3,-1.4,0.3c0,0,0.7,0,1.1,0c0.4,0.1,0.9,0,1.5,0.3c0.5,0.3,1,0.6,1.3,0.4Z" class="g2_93" />
<path d="M304,447.1c0,0,-0.8,-0.2,-1.2,-0.1c-0.4,0.1,-0.6,0.2,-0.5,0.4c0.1,0.2,0.5,0.2,1.2,0.2c0.6,0,0.6,0.1,0.7,0.1c0.1,0,-0.2,-0.6,-0.2,-0.6Z" class="g2_93" />
<path d="M297.7,448c-0.1,0,-0.1,0,-0.1,-0.1c0,-0.1,0,-0.2,0.1,-0.2c0.1,0,0.1,0.1,0.1,0.2c0,0.1,0,0.1,-0.1,0.1m0.4,-0.4c-1,-0.4,-1.9,0.2,-1.9,0.2l0.4,0.1c0,0,0.1,-0.1,0.4,-0.2c0.2,0,0.4,0,0.4,0c0,0,-0.2,0.5,0.2,0.6c0.5,0.1,0.6,0,0.7,-0.1c0.1,-0.2,0,-0.3,0,-0.3c0,0,0.4,0,0.7,0.6c0,0,0.1,-0.5,-0.9,-0.9Z" class="g2_93" />
<path d="M303.4,448.9c-0.1,0,-0.1,-0.1,-0.1,-0.1c0,-0.1,0,-0.2,0.1,-0.2c0.1,0,0.1,0.1,0.1,0.2c0,0,0,0.1,-0.1,0.1m0.7,-0.4c0,0,-0.3,-0.1,-0.8,-0.1c-0.5,0.1,-1,0.8,-1,0.8l0.3,-0.1c0,0,0,-0.3,0.4,-0.4c0,0.2,-0.1,0.4,0.4,0.5c0.4,0.1,0.5,0,0.6,-0.2c0,-0.1,0,-0.3,0,-0.3Z" class="g2_93" />
<path d="M301.7,448.2c-0.1,0.1,-0.7,1,-0.8,1.7c-0.1,0.6,-0.2,1.4,-0.1,1.6c0.2,0.2,0.4,0.7,0.4,0.8c0,0.1,0.3,0,0.3,-0.1c0,-0.1,0.1,-0.6,0.2,-0.5c0.1,0.1,0.3,0.4,0.3,0.6c-0.1,0.1,0,0.5,-0.2,0.5c-0.2,0,-0.3,-0.1,-0.6,0c-0.2,0,-0.3,0,-0.5,0.2c-0.2,0.1,-0.6,0.1,-0.7,0c-0.2,-0.1,-0.4,-0.4,-0.7,-0.5c-0.3,-0.1,-0.4,0,-0.4,0c0,0,0.2,0.1,0.4,0.2c0.3,0.1,0.6,0.5,0.9,0.5c0.3,0,0.8,-0.2,1.1,-0.2c0,0,0.2,0,0.5,0c0.2,0,0.5,-0.5,0.3,-1c-0.2,-0.5,-0.3,-0.4,-0.5,-0.8c-0.1,-0.3,-0.3,-1.1,-0.2,-1.6c0,-0.4,0.3,-1.4,0.3,-1.4Z" class="g2_93" />
<path d="M298,451.8c-0.1,0.1,-1,0.6,-1.4,0.9c-0.4,0.3,-0.6,0.4,-0.5,0.7c0.1,0.4,0.3,0.9,0.3,0.9c0,0,-0.6,-1,-0.6,-1.2c0.1,-0.2,2.2,-1.3,2.2,-1.3Z" class="g2_93" />
<path d="M300,455.2c-1,0,-1.2,-0.3,-1.5,-0.5c-0.3,-0.2,-0.9,-0.8,-0.9,-0.8c0,0,2,0.5,2.3,0.5c0.3,0,0.8,0.1,1.3,0.1c0.5,0.1,0.6,0.1,0.6,0.1c0,0,-0.8,0.7,-1.8,0.6m2.4,-0.9c-0.1,0.1,-0.5,0.1,-1,0c-0.5,-0.1,-0.8,-0.3,-1,-0.3c-0.1,0,-0.4,0,-0.6,0c-0.3,0,-0.6,-0.2,-0.8,-0.2c-0.2,0,-1.1,-0.1,-1.4,-0.1c-0.3,0,-0.7,-0.4,-0.8,-0.4c0,0,0.6,1.4,1.1,1.7c0.4,0.3,1,0.7,1,0.7c0,0,-0.1,-0.1,-0.3,-0.3c-0.2,-0.2,0.3,0,0.2,-0.1c-0.1,-0.1,-0.5,-0.2,-0.6,-0.3c-0.1,0,0.2,-0.1,0.5,0c0.3,0.2,0.3,0.2,0.5,0.3c0.2,0.1,0.1,0.2,0.1,0.4c0.1,0.1,-0.3,0.2,0.1,0.2c0.4,0,1.3,0,1.8,-0.2c0.5,-0.2,0.7,-0.5,0.9,-0.9c0.2,-0.3,0.4,-0.5,0.3,-0.5Z" class="g2_93" />
<path d="M298.8,458.2c0,0,0.5,0.3,1.4,0.1c0.8,-0.3,3,-2.1,3,-2.1c0,0,0.1,0.1,0,0.5c0,0.4,-0.2,0.3,-0.1,1.2c0.2,0.8,0.3,1.2,0.4,1.4c0,0.2,0,0.4,-0.1,0.5c-0.2,0.1,0,-0.7,-0.3,-1.1c-0.3,-0.4,-0.1,-0.5,-0.6,-0.6c-0.5,0,-0.6,-0.2,-0.9,0.1c-0.3,0.2,0,0.2,-0.9,0.3c-0.9,0.2,-1.8,-0.1,-1.9,-0.3Z" class="g2_93" />
<g clip-path="url(#c5_93)">
<path d="M288.2,461.3c-0.1,0.2,0.5,-0.7,0.6,-0.5c0.2,0.2,0.1,0.1,0.5,1.4c0.4,1.3,1.6,4.7,5.5,4.9c3.9,0.1,7.3,-1.3,7.3,-1.3c0,0,-5.4,1.7,-8.3,0.7c-2.8,-0.9,-3.2,-2.2,-3.5,-3c-0.3,-0.7,-0.6,-1.3,-0.9,-1.9c-0.3,-0.6,-0.5,-1.6,-1.2,-0.3Z" class="g2_93" />
<path d="M309.9,459.9c0.2,0,0.4,0.2,0.4,0.3c0,0,-0.5,0.2,-0.9,0.6c-0.4,0.3,-1.5,1.9,-2.5,2.8c-0.9,0.8,-1.7,2,-3.7,2.9c-2,0.9,-3.4,1.2,-3.5,1.2c-0.1,0,4.3,-1.5,6.1,-3.3c1.7,-1.8,2.3,-2.7,2.8,-3.2c0.5,-0.5,1.3,-1.3,1.3,-1.3Z" class="g2_93" />
<path d="M287.3,461.2c-0.4,0.2,-0.3,0.3,-1,0.5c-0.6,0.1,-2.4,2.2,-2.7,4.8c-0.3,2.6,0.6,-0.8,1,-0.6c0.3,0.3,0.6,0.5,0.9,1.1c0.3,0.5,1.6,1.4,1.4,0.7c-0.2,-0.7,-0.8,-1.8,-0.1,-2.4c0.7,-0.5,0.5,-1.7,1,-1.9c0.5,-0.2,1.1,0.4,1.3,1.1c0.2,0.6,1.1,1.3,1,1.2c-0.1,-0.1,-1.2,-2.4,-1.4,-3.1c-0.2,-0.8,-0.4,-0.9,-0.6,-1.1c-0.3,-0.1,-0.8,-0.3,-0.8,-0.3Z" class="g2_93" />
<path d="M309.9,464.4c-0.9,1.4,-1.3,3.7,-1.3,3.7c0,0,0.9,-2.9,1.7,-3.7c0.7,-0.9,1.6,-2.1,2.3,-2.3c0.7,-0.2,1.2,-0.2,1.6,0.5c0.4,0.7,0.9,2.2,0.9,2.5c0,0.2,0,-0.4,0.2,-0.6c0.2,-0.2,0.1,-0.3,-0.2,-0.9c-0.3,-0.6,-0.8,-2.1,-2.3,-2.5c-1.5,-0.3,-1.9,-0.4,-2.3,-0.3c-0.4,0.1,-1.4,1,-2.5,2.3c-1.1,1.3,1.4,-1.3,2.4,-1.6c1.1,-0.4,2.7,-0.3,2.4,0c-0.3,0.2,-2,1.6,-2.9,2.9Z" class="g2_93" />
</g>
<path d="M290.4,461.4c0,0,1.3,-0.2,3.6,-1.9c2.3,-1.7,1.7,-1.2,1.7,-1.7c0.1,-0.5,0,2,-2.3,2.7c-2.2,0.8,-3,0.9,-3,0.9Z" class="g2_93" />
<g clip-path="url(#c5_93)">
<path d="M308.3,454.8c-0.1,0,-0.1,0,-0.2,0c-1.1,-0.5,-0.9,-0.9,-1.6,-1.7c-0.6,-0.9,-1.1,-2.5,-2,-4.9c-0.8,-2.5,-1.3,-3,-1.3,-3c-0.4,-0.7,-2.1,-3.1,-1.9,-3c0.1,0.2,2.9,3.3,3.4,5.6c0.6,2.4,2.2,4.9,2.8,6.2c0.2,0.4,0.5,0.6,0.8,0.8c0.9,0.5,1.2,0.5,1.2,0.5c0,0,-0.6,0,-1.2,-0.5m-8.8,-16c0.1,0,1.7,0.1,3.3,1.2c1.6,1.2,2,1.3,3.3,3.2c1.3,2,-0.1,0.3,-1.8,-1.5c-2.2,-2.3,-4.8,-2.9,-4.8,-2.9m2.2,-1.2c0.9,0.1,2.2,0.7,2.5,0.9c0.6,0.4,1.1,1.1,1.7,1.7c0.6,0.7,1.1,1.4,1.9,2.9c0.8,1.5,1.7,4.1,2.1,6c0.3,1.4,0.7,2.5,0.8,3c0,0.1,0.1,0.1,0.1,0.1c0,0,-0.1,0,-0.1,-0.1c-0.3,-0.9,-1.5,-4.3,-1.7,-5.2c-0.3,-1.1,-1.6,-4.2,-2.6,-5.5c-1,-1.3,-1.8,-2.1,-2.7,-2.7c-1,-0.5,-3.5,-1.1,-3.5,-1.1c0.1,-0.2,0.7,-0.1,1.5,0m-6.1,4c-0.6,0.5,-0.9,1,-1.8,2.1c-0.8,1.2,-1.1,5.8,-1.1,6.3c-0.1,0.3,-0.7,1.9,-1.2,3.1c-0.1,0.7,-0.2,1.1,-0.4,1.3c-0.1,0.2,0.1,-0.4,0.4,-1.3c0.1,-0.3,0.2,-0.6,0.3,-1c0.3,-1.2,0.5,-2.9,0.5,-2.9c0,0,-0.4,0.8,-1,1.4c-0.6,0.6,-1.7,1.6,-1.7,1.7c-0.1,0,0.4,-0.6,0.9,-1.3c0.6,-0.8,1.8,-2.2,2,-3.2c0.2,-1,0.4,-2.9,0.1,-2.3c-0.2,0.5,-1,1.7,-1.4,2.4c-0.1,0.2,-0.2,0.3,-0.2,0.4c-0.1,0.1,0,-0.1,0.2,-0.4c0.3,-0.6,0.7,-1.5,1,-2.3c0.4,-1,0.3,-1.8,0.7,-2.6c0.4,-0.8,0.9,-1,1.4,-1.5c0.5,-0.6,1,-0.6,1.1,-0.6c0,0,-0.1,0.4,-0.6,0.8c-0.5,0.4,-0.6,0.4,-0.8,0.8c-0.2,0.3,-0.7,1.8,-0.7,1.8c0,0,0.2,-0.3,0.6,-1.1c0.5,-0.9,1.9,-1.8,1.7,-1.6m-5.8,14.7c-0.3,-1.5,-0.5,-1.9,-0.4,-2.1c0,-0.2,0.3,-0.5,0.4,-0.6c-0.1,0.1,-0.2,0.4,-0.2,0.8c0.1,0.6,0.1,1.6,0.6,2.4c0.2,0.3,0.5,0.7,0.9,1.1c-0.4,-0.1,-1.1,-0.6,-1.3,-1.6m19.5,1.2c0.4,-0.3,1.9,-3.2,1.8,-5.4c-0.1,-2.2,-1.6,-7.9,-2.6,-10.2c-1.1,-2.3,-3.2,-4.5,-4.7,-5.1c-1.5,-0.6,-3.3,-0.2,-3.6,-0.2c-0.3,0,-1.4,-0.2,-1.8,-0.1c-0.3,0.1,-1.1,0,-1.9,0.4c-0.7,0.3,-3.2,2.1,-4.4,4.6c-1.2,2.6,-1,5.3,-1.2,5.9c-0.2,0.7,-1.3,1.8,-1.3,2.7c0,1,-0.2,1.3,-0.4,2c-0.1,0.7,-0.7,1.8,-0.4,3.1c0.3,1.2,0.5,2.2,1.6,2.6c0.3,0.1,0.6,0.1,0.7,0.2c0.5,0.6,1.1,1.2,1.3,1.3c0.5,0.2,1,0.3,1.6,0.2c0.7,-0.1,1.6,-0.9,1.7,-1.1c0.1,-0.1,0,-0.5,0,-1c0.1,-0.5,-0.2,-2,-0.2,-2c0,0,-1.3,-1.7,-1.5,-3c-0.2,-1.4,-0.2,-6.8,0.5,-8c0.7,-1.3,1.1,-2.4,2.2,-3c1.2,-0.5,1.3,-0.9,1.3,-1.2c0,-0.2,0,-0.3,0,-0.4c0.1,0.2,0.2,0.5,0.5,0.7c0.5,0.3,1,0.6,2.2,1.9c1.2,1.2,2.4,2.9,2.8,3.9c0.3,1.1,0.5,1.7,0.8,2.9c0.3,1.2,0.5,2.8,1.2,3.9c0.3,0.5,-1.9,2.7,-1.9,2.7l0,1.5c0,0.6,0.1,1,0.3,1.3c0.3,0.2,0.1,0.4,-0.1,0.7c-0.2,0.3,-0.3,0.8,-0.2,1.3l0.1,0.5c0,0,0,-0.3,0.7,-0.3c0.8,-0.1,1.7,-0.9,1.7,-0.9c0,0,0.4,0.8,0.9,1.1c0.4,0.3,1.1,0.2,1.1,0.2c0,0,-1.1,-0.5,-1.1,-0.8c0,-0.3,0.7,-0.3,1,-0.1c0.4,0.1,0.6,0.1,1,0c0.3,-0.1,0.6,-0.3,0.6,-0.3c0,0,-0.6,-1,-0.6,-1.4c-0.1,-0.4,0,-0.9,0.3,-1.1Z" class="g2_93" />
</g>
<path d="M294.8,500.7c0,0,-0.1,0,-0.1,-0.1c0,0,0.1,-0.1,0.1,-0.1c0.1,0,0.1,0,0.1,0.1c0,0,0,0.1,-0.1,0.1m-0.2,-0.5c-0.7,0.1,-1,0.7,-1.3,0.7c0,0,0.3,0.1,0.4,0.1c0.1,-0.1,0.7,-0.7,0.7,-0.4c0,0.2,0.1,0.5,0.6,0.5c0.5,0,0.6,-0.4,0.6,-0.4c0,0,0.1,-0.2,0.4,0.4c-0.1,-0.6,-0.6,-1,-1.4,-0.9Z" class="g4_93" />
<path d="M300.4,500.4c-0.1,0,-0.1,0,-0.1,-0.1c0,0,0,-0.1,0.1,-0.1c0,0,0.1,0.1,0.1,0.1c0,0.1,-0.1,0.1,-0.1,0.1m1.4,0.1c-0.1,-0.1,-0.4,-0.6,-1.1,-0.7c-0.6,0,-0.9,0.1,-1.2,0.3c-0.2,0.2,-0.7,0.8,-0.7,0.8c0,0,0.3,-0.1,0.5,-0.4c0.3,-0.3,0.6,-0.3,0.6,-0.3c0,0,-0.1,0.4,0.3,0.5c0.5,0.3,0.8,-0.1,0.8,-0.1c0,0,0.1,-0.1,0.2,-0.1c0.1,-0.1,0.2,0.1,0.3,0.1c0.1,0,0.4,0.1,0.3,-0.1Z" class="g4_93" />
<path d="M295.6,499.8c0,0,-0.6,-0.5,-1.1,-0.6c-0.6,-0.1,-0.8,0,-1,0.1c-0.2,0.1,-0.6,0.6,-0.8,0.8l-0.1,0.2c0,0,0.5,-0.5,0.8,-0.6c0.4,-0.1,0.6,-0.2,1,-0.1c0.4,0.2,0.7,0.3,0.9,0.3c0.2,0,0.3,-0.1,0.3,-0.1Z" class="g4_93" />
<path d="M298.5,499.6c0,0,0.2,-0.4,0.6,-0.6c0.3,-0.2,1.3,-0.3,1.9,-0.1c0.5,0.1,1.2,0.6,1.2,0.6c0,0,-1.1,-0.3,-1.6,-0.3c-0.4,0.1,-0.7,0.1,-1.1,0.3c-0.4,0.2,-1.1,0.3,-1,0.1Z" class="g4_93" />
<path d="M295.9,500.3c0,0,0.4,0.2,0.4,0.4c0,0.2,-0.1,1.1,-0.1,1.3c-0.1,0.2,0.1,-1.4,-0.3,-1.7Z" class="g4_93" />
<path d="M295.7,503.2c0,0,-0.3,0.7,-0.3,0.9c0,0.3,0.1,0.4,0.2,0.4c0.2,0,0.4,-0.1,0.6,-0.1c0.1,0.1,0.4,0.3,0.5,0.4c0.1,0,-0.3,0,-0.4,-0.1c-0.2,-0.1,-0.1,-0.2,-0.4,-0.1c-0.2,0,-0.5,0,-0.5,-0.1c-0.1,-0.2,-0.1,-0.5,0.3,-1.3Z" class="g4_93" />
<path d="M297.2,504.5c0,0,0.1,-0.2,0.3,-0.2c0.2,0,0.7,0,0.7,0c0.1,0,-0.4,0.2,-0.3,0.2c0.1,0,0.6,-0.1,0.7,-0.3c0.2,-0.1,0.3,-0.5,0.3,-0.7c-0.1,-0.2,-0.2,-0.4,-0.2,-0.4c0,0,0.2,0.1,0.3,0.6c0,0.4,-0.4,0.7,-0.5,0.8c-0.1,0.1,-0.6,0.1,-0.7,0.1c-0.1,0,-0.2,-0.1,-0.3,-0.1c-0.1,0,-0.3,0,-0.3,0Z" class="g4_93" />
<path d="M300.2,506.2c0,0,-0.4,0.4,-0.7,0.5c-0.2,0.1,-0.3,0.1,-0.5,0.2c-0.3,0.1,-0.5,0.1,-0.9,0.2c-0.4,0,-0.8,0,-1.2,0c-0.3,0,-0.3,-0.1,-0.5,-0.2c-0.2,0,-0.3,-0.1,-0.3,-0.2c-0.3,-0.2,-0.1,-0.5,-0.1,-0.5c0,0,0.2,0,0.6,0c0.4,-0.1,0.8,0,0.9,0c0.2,0,1,-0.2,1.3,-0.2c0.3,-0.1,0.9,0,1.2,0c0.2,0.1,0.2,0.2,0.2,0.2m0.5,-0.3c-0.7,0,-1.6,-0.5,-2.2,-0.4c-0.6,0,-0.6,0.2,-1.1,0.1c-0.6,-0.1,-1,0,-1.3,0c-0.3,0.1,-1,0.5,-1,0.5c0,0,0.5,0.7,0.7,0.8c0.3,0.2,0.8,0.4,1.1,0.4c0.3,0.1,1.2,0,1.6,0c0.4,-0.1,0.8,-0.3,1,-0.3c0.2,-0.1,0.1,-0.1,-0.1,0.1c-0.2,0.1,-0.6,0.3,-1.1,0.4c-0.5,0.1,-0.6,0.1,-1.1,0.1c-0.5,-0.1,-0.7,-0.1,-1,-0.2c-0.4,-0.2,-0.4,-0.3,-0.5,-0.4c-0.1,0.1,0.4,0.7,0.8,0.9c0.3,0.1,0.6,0.2,0.8,0.1c0.2,0,1.1,0,1.6,-0.2c0.4,-0.1,0.8,-0.7,1.1,-1c0.3,-0.2,1.1,-0.9,0.7,-0.9Z" class="g4_93" />
<g clip-path="url(#c6_93)">
<path d="M292.8,500.4c0,0,-0.1,0.7,-0.2,1.1c0,0.4,-0.1,1.1,-0.1,1.5c0,0.4,0.2,1.2,0.2,1.5c0,0.4,0.3,1.5,0.4,1.8c0.1,0.2,0.4,0.8,0.9,1.6c0.6,0.9,1.8,2,2.3,2.2c0.5,0.3,1.1,0.5,2.3,0.3c1.3,-0.3,2.5,-0.8,3.3,-1.5c-0.2,0.4,-1,0.9,-2,1.3c-1.1,0.4,-2.1,0.6,-3.2,0.4c-0.6,-0.2,-0.5,0,-0.6,0.5c-0.1,0.5,-0.2,1.3,-0.5,1.6c-0.2,0.4,-1,1.1,-1.3,1.2c-0.3,0.1,1.1,-0.8,1.3,-1.6c0.1,-0.4,-0.1,-0.8,-0.2,-1.3c-0.2,-0.5,-0.4,-0.7,-0.4,-1.1c0,-0.4,-0.6,-1,-0.6,-1c0,0,0.2,0.8,0.3,1c0,0.2,0.8,2.3,0.8,2.3c0,0,-0.8,-1.6,-0.9,-1.8c0,-0.1,0.7,2,0.8,2.1c0,0.1,-0.5,-0.6,-0.6,-1c-0.2,-0.3,0.1,1.2,0.1,1.3c0.1,0.1,-0.4,-0.5,-0.4,-0.7c0,-0.2,-0.2,0.5,-0.3,1c-0.2,0.6,0,1.3,-0.4,1.7c-0.4,0.4,-0.9,0.4,-0.9,0.4c0,0,0.8,-1,0.9,-1.8c0,-0.9,-0.1,-2.4,-0.1,-3.1c0,-0.7,-0.5,-2,-0.5,-2c0,0,0.4,3.6,0.3,4.3c-0.1,0.6,-0.3,1,-0.4,1.5c-0.1,0.5,-0.4,1.4,-0.5,1.6c-0.2,0.1,0,-2.4,0,-2.7c0,-0.3,0.1,0.7,0.2,0.6c0,-0.1,0,-1.6,0,-2.3c0,-0.7,-0.1,-0.7,-0.2,-1.4c0,-0.6,-0.2,-3.3,-0.2,-3.7c0.1,-0.4,0,-2.5,0,-2.5c0,0,0,4.8,-0.1,5.2c0,0.4,0,2.2,0,2.7c0,0.5,0,2.2,-0.1,2.6c0,0.5,0,2.1,0.1,2.3c0,0.3,0.2,2.4,0.2,3c0.1,0.5,0.1,2.3,-0.1,2.7c-0.1,0.4,0,-3,-0.1,-3.6c-0.1,-0.6,-0.3,-3.7,-0.3,-4c0.1,-0.3,-0.2,-1.2,-0.1,-1.6c0.1,-0.4,0.1,-2.1,0.1,-2.5c0.1,-0.4,0,-1.4,0.1,-1.7c0.1,-0.3,0.1,-2,0.1,-2.3c0,-0.3,-0.1,-1.8,-0.1,-1.8c0,0,-0.6,6.6,-0.7,7.9c-0.1,1.3,-0.2,2.3,-0.3,3c-0.1,0.8,-0.2,1.9,-0.3,2.4c-0.1,0.5,-0.1,1.8,-0.1,1.8c0,0,0.2,-5,0.2,-5.8c0.1,-0.7,0.2,-3.4,0.4,-4c0.1,-0.7,0.2,-3.1,0.4,-3.9c0.3,-0.8,0,-1.3,0.2,-2.2c0.2,-1,0.4,-2.8,0.4,-3c0.1,-0.2,0.4,-1.5,0.5,-2c0.1,-0.6,0.5,-1.6,0.7,-2.2c0.2,-0.5,0.3,-1.1,0.5,-1.4c0.2,-0.4,-0.5,1.8,-0.6,2.2c-0.1,0.3,-0.3,1.2,-0.3,1.2c0,0,0.7,-1.8,1.2,-2.3c0.4,-0.5,1.3,-1.3,1.7,-1.5c0.4,-0.2,0.7,-0.3,0.7,-0.3c0,0,-1.5,0.7,-2.2,1.8c-0.7,1,-1.2,2.2,-1.3,2.5c-0.2,0.3,-0.4,1.5,-0.4,1.5Z" class="g4_93" />
</g>
<path d="M297.7,493.6c0,0,-0.4,0.1,-0.8,0.4c-0.4,0.3,-0.5,0,-0.9,0.5c-0.4,0.4,-1,0.9,-1.4,1.3c-0.5,0.3,-0.6,0.6,-0.6,0.6c0,0,1,-1.1,1.2,-1.5c0.2,-0.3,1.1,-0.9,1.3,-1c0.2,-0.2,0.5,-0.4,0.4,-0.4c0,0,-0.4,-0.1,-0.7,0.2c-0.3,0.3,-1.3,1.2,-1.3,1.2l1.1,-1.2l-1.2,1c0,0,1,-1.1,1.6,-1.5c0.7,-0.4,0.6,-0.5,0.4,-0.4c-0.2,0,-1.3,0.8,-1.7,1.2c-0.3,0.3,0.8,-0.9,1.1,-1.2c0.4,-0.3,-0.6,0.3,-0.6,0.2c0.1,0,0.8,-0.9,1.3,-1c0.4,-0.1,0.7,0,0.9,0c0.1,-0.1,-0.1,0.2,-0.1,0.4c0,0.2,0.1,0.9,0,1.1c-0.1,0.1,0,0.1,0,0.1Z" class="g4_93" />
<path d="M297.9,491.8c0,0,-0.9,-0.1,-1.2,0c-0.3,0.1,-0.9,0.5,-1.2,0.9c-0.3,0.3,-1,1.2,-1.2,1.6c-0.2,0.3,-0.5,0.5,-0.7,1.1c-0.3,0.6,-0.9,2.6,-1,2.9c0,0.4,-0.2,1.6,-0.4,1.9c-0.3,0.3,-0.4,0.4,-0.4,0.4c0,0,0.3,-1.5,0.4,-2.1c0.1,-0.5,0.4,-2.4,0.7,-2.9c0.2,-0.4,0.7,-1.7,0.9,-1.9c0.3,-0.2,-0.3,0.7,-0.4,1.1c0,0.3,0.9,-1.5,1.4,-2c0.6,-0.5,0.9,-0.8,1.2,-0.9c0.2,-0.1,-1.1,0.8,-1.4,1.4c-0.4,0.7,-0.9,1.5,-0.9,1.5c0.1,-0.1,1.5,-2.4,2.7,-3c0.8,-0.5,1.5,0,1.5,0Z" class="g4_93" />
<g clip-path="url(#c6_93)">
<path d="M289.5,517.7c0,0,0.5,-2.2,0.7,-2.6c0.1,-0.4,0.5,-3.2,0.6,-3.8c0.1,-0.6,0.1,-1.2,0.2,-1.4c0,-0.2,0,-0.6,0.1,-0.9c0.1,-0.4,0,-1.3,0.1,-1.6c0.2,-0.3,0.4,-1.7,0.4,-2.1c0,-0.5,0,-1.6,0,-2.3c0.1,-0.6,0.1,-1.4,0.1,-1.4c0,0,-0.1,0.9,-0.3,1.3c-0.1,0.5,-0.1,0.9,-0.2,1.4c-0.1,0.5,-0.2,0.9,-0.2,1.5c0,0.6,-0.2,0.8,-0.2,1.5c0.1,0.6,0.1,0.7,-0.1,1.2c-0.1,0.5,-0.3,1.6,-0.4,2c-0.1,0.5,-0.4,2.3,-0.6,3c-0.2,0.7,-1.1,3.9,-1.2,4.3c-0.1,0.4,0,1.4,0.2,1.7c0.2,0.4,0.4,0.8,0.4,0.8c0,0,-0.6,-1.4,-0.3,-2.5c0.3,-1.2,0.7,-2.6,1,-3.3c0.3,-0.7,0.6,-3.4,0.8,-4c0.1,-0.5,0.1,0.9,0,1.6c-0.2,0.7,-1.1,5.6,-1.1,5.6Z" class="g4_93" />
<path d="M288.3,516.2c0,-0.1,0.6,-3.1,0.6,-3.6c0.1,-0.5,0.3,-2.7,0.7,-3.5c0.5,-0.8,0.7,-2.8,0.9,-3.3c0.2,-0.6,0.3,-1.7,0.4,-2.1c0.1,-0.3,0,-1.5,0.2,-2.1c0.2,-0.7,0.1,-2.5,0.3,-2.8c0.1,-0.4,0.2,-1.5,0.2,-1.7c0.1,-0.2,0.8,-1,0.8,-1c0,0,-0.5,1.2,-0.6,1.5c-0.1,0.2,0.4,-0.5,0.4,-0.4c0,0.1,0,1.1,-0.2,1.6c-0.3,0.6,-0.4,1.8,-0.5,2.4c-0.2,0.5,-0.1,1.4,-0.2,1.5c-0.1,0.2,-0.3,1.7,-0.4,2c-0.1,0.2,-0.3,1.9,-0.5,2.7c-0.1,0.8,-0.4,1.8,-0.6,2.2c-0.1,0.4,-0.5,1.9,-0.6,2.4c-0.1,0.5,-0.3,2.5,-0.5,3.1c-0.3,0.6,-0.4,1.1,-0.4,1.1Z" class="g4_93" />
</g>
<path d="M291.8,496.4c0,0,0.8,-1.8,0.9,-2.2c0.1,-0.5,1.2,-1.8,1.6,-2.1c0.4,-0.4,1,-0.5,1,-0.5c0,0,-0.9,0.6,-1.3,0.9c-0.3,0.3,-0.9,1.5,-1.2,1.8c-0.2,0.4,-0.2,0.5,-0.3,0.9c-0.2,0.3,-0.7,1.2,-0.7,1.2Z" class="g4_93" />
<path d="M296.5,491.3c-0.1,0,-0.5,0,-1,0.3c-0.5,0.3,-1.2,1,-1.4,1.3c-0.2,0.2,-0.5,0.5,-0.8,1c-0.2,0.5,-0.4,1.3,-0.4,1.3c0,0,0.7,-1.7,1.2,-2.2c0.5,-0.6,0.8,-0.9,1.3,-1.1c0.4,-0.1,1.1,-0.6,1.1,-0.6Z" class="g4_93" />
<path d="M294.9,491.4c0.2,-0.2,0.8,-0.4,1.1,-0.6c0.3,-0.2,0.5,0,0.5,0c0,0,-0.4,0.1,-0.6,0.3c-0.3,0.2,-1,0.3,-1,0.3Z" class="g4_93" />
<path d="M298,491.1c0,0,-0.4,-0.6,-0.8,-0.7c-0.5,0,-1,-0.1,-1.3,0.1c-0.2,0.1,0.2,-0.4,1,-0.3c0.8,0.1,0.8,0.2,1,0.3c0.1,0.1,-0.1,-0.6,-0.1,-0.6c0,0,0.2,0.2,0.2,0.3c0,0.1,0.3,0.4,0.5,0.5c0.1,0,0.7,0.1,0.9,0.2c0.2,0,0.6,0.3,0.6,0.3c0,0,-1,-0.3,-1.2,-0.3c-0.2,0,-0.4,0.1,-0.2,0.2c0.3,0,1.3,0.2,1.7,0.3c0.3,0.2,1.4,0.8,1.6,1c0.2,0.1,1.9,1.8,2.3,2c0.4,0.2,0.1,0,-0.1,-0.3c-0.2,-0.3,-0.8,-0.9,-0.8,-1c0,0,0.6,0.2,1.5,1.5c0.8,1.3,1.4,3.1,1.5,3.8c0.2,0.6,0.3,1.2,0.3,1.6c0,0.4,0.2,3.2,0.2,3.7c0,0.6,0.2,2.6,0.2,3.1c-0.1,0.5,-0.1,1,-0.1,1c0,0,-0.3,-4.1,-0.3,-4.3c0,-0.2,-0.3,-1.9,-0.3,-2.2c0,-0.2,-0.1,-0.3,-0.3,-0.5c-0.3,-0.2,-1,-0.9,-1.1,-1.1c-0.2,-0.2,-0.8,-1,-0.8,-1.1c0,-0.1,0.4,0.3,0.9,0.6c0.5,0.4,1.2,0.6,1.2,0.6c0,0,-0.9,-0.6,-1.2,-0.9c-0.4,-0.2,-1.3,-1.3,-1.3,-1.4c-0.1,-0.2,1.1,0.8,1.2,0.8c0.1,0,-0.4,-0.7,-0.5,-0.8c-0.1,-0.1,-1,-0.6,-1.5,-1c-0.4,-0.3,-1.4,-0.7,-1.6,-1c-0.2,-0.2,-1.7,-1.1,-1.9,-1.3c-0.2,-0.2,-0.8,-0.7,-0.8,-0.7c0,0,1.4,1,1.7,1.1c0.2,0.1,0.9,0.6,1.3,0.9c0.4,0.3,0.8,0.5,1.3,0.7c0.5,0.2,0.9,0.5,1.2,0.7c0.3,0.3,0.8,0.6,0.9,0.7c0.2,0.1,0.7,0.6,0.7,0.6c0,0,-1.7,-1.6,-1.8,-1.7c-0.1,-0.1,-1.3,-0.6,-1.4,-0.7c-0.2,-0.1,-2.2,-1.5,-2.4,-1.6c-0.1,-0.2,-1,-1,-1.2,-1.1c-0.2,-0.1,0.1,-0.3,0.3,-0.1c0.2,0.3,0.8,0.6,1.3,1c0.5,0.4,1.5,1.3,1.9,1.6c0.3,0.2,0.8,0.4,0.8,0.4l-2.7,-2.2c0,0,1.9,1.4,2.1,1.5c0.1,0.1,-2.2,-1.9,-2.5,-2.1c-0.2,-0.2,1.7,1.2,2.2,1.6c0.6,0.5,1.1,1,1.5,1.2c0.3,0.3,0.9,1,1.3,1.3c0.4,0.4,0.7,0.6,0.7,0.6c0,-0.1,-0.9,-1.3,-1.1,-1.5c-0.2,-0.2,-2.5,-2.1,-2.6,-2.2c0,-0.1,2.1,1.5,2.8,2.2c0.6,0.7,0.7,0.7,0.4,0.4c-0.2,-0.4,-1.6,-1.8,-2.1,-2.3c-0.4,-0.6,1.1,0.8,1.2,0.9c0.2,0.1,0.7,0.7,0.7,0.7c0.1,0,-0.2,-0.9,-0.6,-1.2c-0.3,-0.3,-1.7,-1.6,-2.3,-2c-0.5,-0.4,-1.3,-1,-1.8,-1.1c-0.4,-0.2,-1,-0.4,-1.3,-0.4c-0.2,0,0.5,0.3,0.8,0.4c0.3,0.1,1.8,0.9,2.2,1.2c0.3,0.3,0.7,0.7,0.7,0.7c0,0,-2.4,-1.7,-3,-1.8c-0.7,-0.1,-0.8,-0.1,-0.8,-0.1c0.1,0,1,0.4,1.4,0.6c0.4,0.2,2.2,1.5,2.4,1.7c-0.3,-0.2,-1.9,-1.3,-2.1,-1.4c-0.1,0,1.5,1.2,1.6,1.3c0.2,0.2,-2,-1.4,-2.4,-1.6c-0.3,-0.2,-1.2,-0.5,-1.4,-0.5c-0.2,0,0,-0.4,0,-0.4c0,-0.1,-0.5,-0.2,-0.5,-0.2Z" class="g4_93" />
<g clip-path="url(#c6_93)">
<path d="M304.7,499.8c0,-0.1,0.4,1.2,0.4,1.6c0,0.3,0,1,-0.2,1.7c-0.1,0.6,-0.3,3.7,-1.4,4.9c-1.1,1.1,-1.3,1.4,-1.3,1.4c0,0,1.7,-1.3,2.1,-2.2c0.4,-0.8,0.5,-1.4,0.5,-1.4c0,0,-0.6,3,-0.7,3.4c-0.1,0.4,-0.1,2.7,-0.1,3.6c0,0.8,0.2,1.8,0.2,2.3c0,0.4,-0.1,1.5,0,1.9c0.2,0.4,0.3,0.7,0.3,0.7c0,0,-0.3,-1.6,-0.2,-2c0.1,-0.4,0.1,-0.4,0.2,-0.3c0.1,0.1,0.2,0.7,0.2,1c0,0.4,0,0.4,0,0.4c0,0,0.2,-0.9,0.3,-1.2c0,-0.3,0.5,-2,0.5,-2.2c0,-0.2,-0.6,1.8,-0.6,1.9c-0.1,0,0.2,-1.4,0.2,-1.5c0,-0.1,0.3,-1.2,0.4,-1.6c0,-0.3,0,-1.1,0.1,-1.3c0.1,-0.1,0.3,-1.6,0.2,-2.1c0,-0.4,0.4,-0.7,0.4,-1c0,-0.2,0,-1.9,0,-2.4c0.1,-0.4,0.3,-0.3,0.3,-0.7c0,-0.3,0,-0.8,-0.1,-0.8c0,0,-0.5,0.4,-0.6,0.5c-0.2,0.1,-0.6,0.1,-0.6,0.1c-0.1,-0.1,-0.2,-0.8,-0.1,-1.3c0.1,-0.5,0,-0.8,0.1,-1.1c0.1,-0.3,0,-0.5,0.2,-0.3c0.2,0.1,0.5,0.3,0.6,0.3c0.2,0,0,-0.2,0,-0.4c-0.1,-0.2,0,-0.3,-0.2,-0.6c-0.1,-0.3,-1.1,-1.3,-1.1,-1.3Z" class="g4_93" />
</g>
<path d="M305.6,502.2c-0.1,0.1,0,0.3,-0.1,0.5c-0.1,0.3,-0.3,0.6,-0.1,0.5c0.2,0,0.3,-0.3,0.5,-0.4c0.2,-0.1,0.3,-0.1,0.3,-0.1c0,0,-0.5,-0.6,-0.6,-0.5Z" class="g4_93" />
<g clip-path="url(#c6_93)">
<path d="M291.5,514c0,0.1,0.1,1.7,0.2,2.3c0,0.7,-0.2,2.7,-0.2,3.1c-0.1,0.3,-0.1,1.8,-0.2,2c0,0.1,0.4,-3,0.5,-3.2c0.1,-0.2,0.1,0.8,0.1,0.8c0,0.1,0,-1.9,0,-2.4c-0.1,-0.5,-0.4,-2.6,-0.4,-2.6Z" class="g4_93" />
<path d="M299.5,490.2c0,0,0.7,0,1.4,0.2c0.6,0.3,0.8,0.3,1.6,0.7c0.7,0.4,0.7,0.7,1.3,1c0.7,0.4,1.1,0.8,1.6,1.4c0.5,0.5,1.4,1.7,1.6,2c0.1,0.2,-1.7,-2.2,-2.2,-2.4c-0.5,-0.1,1.5,1.3,2.7,3.7c1.2,2.4,1.2,3.2,1.3,3.8c0.1,0.6,0.7,3,0.7,4.1c0,1.2,0.3,2.3,0.6,3.4c0.2,1.2,0.3,2.7,0.3,2.7c0,0,-0.7,-3,-0.9,-2.9c-0.2,0.1,0.2,1.7,0.3,2.2c0.1,0.5,0.5,1.2,0.5,1.6c0,0.4,-0.6,-1.3,-0.7,-1.4c-0.2,-0.1,0.3,3.7,0.3,4.5c0,0.8,0.4,4.5,0.4,5c0,0.4,0.1,2.5,0.1,3.1c0,0.6,-0.1,1.2,-0.2,1.9c-0.1,0.7,-0.2,1.5,-0.2,1.5c0,-0.1,-0.2,-3.5,-0.1,-3.9c0.2,-0.4,0.1,-3.1,0,-3.7c-0.1,-0.6,-0.5,-3.3,-0.6,-4c0,-0.7,0.4,4.5,0.4,5c-0.1,0.6,-0.3,2.7,-0.3,3.5c0.1,0.7,-0.1,1.1,-0.1,2.6c0.1,1.4,0.1,2.6,0,3.3c-0.1,0.7,-0.3,2.6,-0.3,2.6c0,0,-1.5,-4.9,-0.9,-7.5c0.6,-2.5,0.8,-2.9,0.8,-3.3c0.1,-0.5,0.3,-3.4,0.3,-3.4c0,0,-0.5,-1.6,-0.6,-1.8c0,-0.2,0.3,2.1,0.2,2.6c-0.1,0.4,-0.2,1.8,-0.1,1.7c0,0,-0.2,-4.2,-0.2,-4.3c0,-0.2,0,6.1,-0.2,6.5c-0.1,0.3,-0.1,-5.4,-0.1,-5.6c-0.1,-0.2,-0.1,5.2,-0.1,5.2L307.9,517c0,0,0.4,-1.4,0.5,-2.7c0.1,-1.2,0,-3.8,0.1,-4.7c0.1,-0.9,0,-2.3,0,-4.7c0,-2.3,-0.3,-4.2,-0.4,-4.9c-0.1,-0.6,0,-1.6,-1.9,-4.7c-1.9,-3.2,-2.7,-3.1,-3.4,-3.7c-0.8,-0.7,-1.5,-0.9,-2,-1.1c-0.4,-0.2,-1.3,-0.3,-1.3,-0.3Z" class="g4_93" />
<path d="M302.3,491.6c0.1,0,1.1,0.6,2.5,2.4c1.6,2,1.7,3.2,1.9,3.8c0.2,0.6,0.6,1.4,0.6,3.2c0.1,1.8,0.4,4.2,0.3,5.4c-0.1,1.2,-0.2,2.8,-0.1,3.9c0.2,1.2,0.3,3.8,0.3,4.5c-0.1,0.7,-0.1,3.6,-0.7,4.9c-0.6,1.2,-0.8,2.1,-0.8,2.1c0,0,0.8,-4.2,0.8,-4.7c0.1,-0.4,0.3,-3.5,0.2,-4.2c-0.1,-0.6,-0.2,-3.5,-0.2,-4.2c0,-0.7,-0.1,-6.3,-0.1,-7c-0.1,-0.6,-0.4,-3.3,-0.6,-4.1c-0.3,-0.8,-0.8,-2.5,-2.2,-4.1c-1.4,-1.6,-1.9,-1.9,-1.9,-1.9Z" class="g4_93" />
<path d="M306.5,505.5c0,0.1,0,2.5,-0.1,3.2c-0.1,0.7,0,2,0,2.8c0.1,0.8,0.3,1,0.3,1.7c0.1,0.7,-0.2,3.5,-0.4,4.1c-0.2,0.6,0.7,-2.9,0.7,-4c0.1,-1,0,-3.3,-0.1,-3.9c0,-0.7,-0.1,2.4,-0.2,2.5c0,0,0,-3.7,0,-4.3c0,-0.5,-0.2,-2.1,-0.2,-2.1Z" class="g4_93" />
<path d="M303.8,520.7c0,-0.1,0.8,-2.3,1.1,-4c0.4,-1.6,0.6,-2.3,0.6,-2.5c0,-0.1,0.3,1.6,0.4,2.2c0,0.6,0.1,0.8,0.1,2.2c-0.1,1.3,-0.8,3.1,-1.2,3.6c0.5,-1.2,1,-2.5,1,-3.3c0,-0.9,-0.2,-1.2,-0.2,-1.2c0,0,-0.1,2,-0.2,2.4c-0.1,0.4,-0.3,-1.4,-0.3,-1.8c0,-0.4,-0.5,0.6,-0.6,0.9c-0.1,0.3,-0.7,1.5,-0.7,1.5Z" class="g4_93" />
<path d="M302.5,526.6c-0.1,0.1,1.2,-1.5,1.5,-2.2c0,-0.2,-0.6,0.5,-1,0.6c0.3,-0.1,0.7,-0.5,1.4,-1.5c0.7,-1,0.6,-1,0.9,-1.6c0.3,-0.6,0.8,-2.7,0.9,-3c0.1,-0.3,0.8,-3.2,0.8,-3.2c0,0,-0.4,2.8,-0.7,3.7c-0.3,0.9,-0.7,2.3,-0.9,2.7c-0.2,0.5,-2.2,4.1,-2.9,4.5Z" class="g4_93" />
<path d="M294.6,513.7c0,0,0.9,1.4,1.5,2c0.7,0.6,1.8,1,2.7,1c0.9,0,2.4,-0.1,3.8,-0.8c1.4,-0.8,1.9,-1.3,2.1,-1.4c0.1,0,0.1,0.7,-0.2,1c-0.4,0.3,-1.6,1.2,-2.4,1.5c-0.9,0.4,-2.9,0.8,-4.4,0.2c-1.6,-0.6,-3.2,-2.3,-3.5,-2.8c-0.4,-0.7,0.2,0.2,0.6,0.4c0.5,0.7,-0.2,-1.1,-0.2,-1.1Z" class="g4_93" />
<path d="M311.1,515.5c0.1,0.1,0.8,0.2,1.7,0.8c1.3,0.7,2.6,1.8,2.9,2.1c0.4,0.5,1.8,2.5,2.1,4.3c0.2,1.3,0,2.3,0,2.3c0,0,-0.2,-3.4,-2.4,-6.2c-1,-1.4,-2,-1.8,-2.5,-2.1c-0.6,-0.3,-1.7,-0.7,-1.8,-0.5c-0.2,0.1,0.1,2.3,0,3c-0.1,0.7,-0.4,2.7,-0.4,2.7c0,0,-0.4,-5.2,-0.3,-6.3c0,-1.1,-0.3,-3.5,-0.3,-3.5Z" class="g4_93" />
<path d="M290.5,514.8c-0.2,0.1,-2.3,0.6,-2.9,0.8c-0.5,0.3,-2.3,1.5,-2.9,2.4c-0.6,0.8,-1.4,3.4,-1.4,3.4c0,0,0.9,-3,2.2,-3.9c1.3,-0.9,1.6,-1.5,2.7,-1.7c1.1,-0.2,2.3,-1,2.3,-1Z" class="g4_93" />
</g>
<path d="M299.6,555.4c-0.1,0,-0.2,-0.1,-0.2,-0.2c0,0,0.1,-0.1,0.2,-0.1c0.1,0,0.1,0.1,0.1,0.1c0,0.1,0,0.2,-0.1,0.2m0.4,-0.3c-0.1,-0.2,-0.6,-0.2,-0.8,-0.2c-0.2,0,-1.1,0.4,-1.1,0.4c0,0,0.2,0,0.2,0c0,0,0.5,-0.2,0.5,-0.2c0,0,-0.1,0.5,0.4,0.6c0.5,0.2,0.7,-0.2,0.8,-0.5c0,-0.2,0.8,0.5,0.9,0.6c-0.1,-0.1,-0.7,-0.7,-0.9,-0.7Z" class="g3_93" />
<path d="M300.9,555.8c0.1,0,0.1,0,0.1,0l-0.1,0Z" class="g3_93" />
<path d="M305.9,555.6c-0.1,0,-0.1,-0.1,-0.1,-0.1c0,-0.1,0,-0.1,0.1,-0.1c0.1,0,0.2,0,0.2,0.1c0,0,-0.1,0.1,-0.2,0.1m1.3,0c0,0,-0.6,-0.3,-0.9,-0.4c-0.3,-0.1,-0.6,0,-1,0.1c-0.3,0.1,-1,0.7,-1,0.7c0,0,0.8,-0.6,0.9,-0.4c0.1,0.2,0.1,0.5,0.7,0.4c0.6,0,0.4,-0.6,0.4,-0.6c0,0,0.1,0,0.4,0.1c0.2,0,0.5,0.1,0.5,0.1Z" class="g3_93" />
<path d="M301.6,554.7c0.1,0,0.3,-0.5,-0.2,-0.8c-0.6,-0.3,-1.6,-0.5,-2.1,-0.5c-0.4,0,-1.4,0.2,-1.6,0.4c-0.3,0.1,-0.6,0.4,-0.6,0.4c0,0,0.9,-0.2,1.3,-0.1c0.5,0,1,0,1.5,0.2c0.6,0.1,1.2,0.4,1.4,0.5c0.2,0,0.3,-0.1,0.3,-0.1Z" class="g3_93" />
<path d="M304.1,554.8c0,0,0.1,-0.9,0.9,-1c0.8,-0.1,1.9,-0.3,2.2,-0.2c0.4,0.1,0.9,0.5,1,0.9c-0.1,-0.1,-0.6,-0.3,-1.2,-0.3c-0.6,0.1,-1.7,0.4,-2,0.5c-0.4,0.1,-0.8,0.2,-0.9,0.1Z" class="g3_93" />
<path d="M301,558.4c-0.1,0,-0.6,0.5,-0.7,0.8c-0.1,0.3,0,0.6,0.1,0.6c0.1,0.1,0.5,0.2,0.8,0.2c0.3,0,0.8,0,1,0c0.1,0.1,0.3,0.3,0.4,0.4c0,0,0.5,0.1,0.6,0c0.2,-0.1,0.3,-0.3,0.5,-0.3c0.2,-0.1,0.5,-0.1,0.8,-0.1c0.3,0.1,0.4,0,0.3,0.1c0,0.1,-0.4,0.2,-0.6,0.2c-0.1,-0.1,-0.5,-0.1,-0.6,0c-0.1,0,-0.4,0.3,-0.5,0.3c-0.2,0,-0.4,0.1,-0.9,-0.2c-0.5,-0.4,-0.7,-0.3,-1.2,-0.3c-0.5,0,-0.9,-0.1,-0.9,-0.5c0,-0.6,0.9,-1.2,0.9,-1.2Z" class="g3_93" />
<path d="M304.3,558.1c0,0,0,0.3,0.1,0.5c0.1,0.1,0.4,0.3,0.6,0.5c0.1,0.1,0.1,0.3,0.1,0.4c0,0,0.1,-0.2,0,-0.5c-0.2,-0.3,-0.5,-0.4,-0.6,-0.6c-0.1,-0.1,-0.2,-0.3,-0.2,-0.3Z" class="g3_93" />
<path d="M298.8,561.5c0,0,1.8,-0.4,3,-0.4c0.8,0.1,1.5,0.1,1.7,0c0.2,0,2,0.5,2,0.5c0,0,0,0.1,-0.2,0.3c-0.1,0.1,-0.5,0.2,-0.7,0.2c-0.1,0,-1.3,-0.1,-1.7,-0.1c-0.3,0,-1,-0.1,-1.5,-0.1c-0.4,0,-1.3,0,-1.5,-0.1c-0.2,-0.1,-0.7,-0.2,-0.7,-0.2c0,0,0.5,0.3,0.9,0.6c0.4,0.2,1.8,0.7,2.2,0.8c0.3,0.1,0.7,0,1.1,-0.2c0.3,-0.2,0.2,-0.2,0.7,-0.3c0.5,-0.1,0.9,-0.3,0.9,-0.3c0,0,0.2,0.1,-0.1,0.4c-0.2,0.3,-0.5,1.1,-1.6,1.4c-1,0.2,-1.9,-0.1,-2.8,-0.7c-0.8,-0.6,-1,-1.1,-1,-1.1c0,0,1.3,1.3,2.1,1.4c0.9,0.2,1.2,0.1,1.7,0c0.5,-0.2,0.9,-0.5,0.8,-0.6c0,-0.1,0.1,-0.1,-0.6,0.1c-0.6,0.3,-1,0.5,-1.8,0.3c-0.8,-0.2,-1.3,-0.7,-1.6,-0.8c-0.2,-0.2,-0.9,-0.8,-1.3,-1.1Z" class="g3_93" />
<path d="M305.5,560.5c0,0,0.3,0.5,0.5,0.7c0.2,0.3,0.2,0.5,0.2,0.5c0,0,0.2,-0.2,0.1,-0.4c-0.1,-0.2,-0.5,-0.7,-0.8,-0.8Z" class="g3_93" />
<path d="M299.3,560.2c0.1,-0.1,-0.7,0.6,-0.8,0.8c0,0.1,0,1,0.1,1.1c0,0.2,-0.2,-1.1,0.7,-1.9Z" class="g3_93" />
<g clip-path="url(#c7_93)">
<path d="M294.3,553.4c-0.1,-0.1,0.4,0.2,0.5,0.3c0,0,0.1,-0.2,0,-0.4c0,-0.1,-0.3,-0.5,-0.3,-0.9c0,-0.5,0,-1.7,-0.1,-2c0,-0.3,0.2,-2.4,0.6,-3.1c0.4,-0.7,0.9,-1.4,1,-1.6c0.2,-0.3,1.8,-1.5,3,-1.8c1.3,-0.4,2.3,-0.6,3.8,-0.4c1.5,0.3,2.7,0.7,3.1,1.1c0.5,0.3,1.6,1.5,2,1.9c0.3,0.4,0.3,0.5,0.6,0.9c0.3,0.3,0.5,1.5,0.5,1.8c0,0.4,0,1.7,0,1.9c-0.1,0.2,-0.1,0.6,-0.2,1.1c-0.1,0.5,-0.2,1.1,-0.2,1.5c0.1,0.4,-0.2,1.2,-0.2,1.2c0,0,0,-1.1,0,-1.4c0,-0.2,0,-2.1,-0.1,-2.4c-0.1,-0.3,0,-0.7,0,-0.9c0,-0.3,0,-0.8,-0.1,-1.1c0,-0.3,-0.1,-1,-0.4,-1.3c-0.3,-0.3,-0.6,-0.5,-0.7,-0.4c-0.2,0.1,-0.1,0.2,-0.4,0.2c-0.4,-0.1,-0.3,-0.2,-0.4,-0.3c-0.1,0,-0.2,0,-0.4,0.1c-0.2,0.1,-0.5,0,-0.7,0c-0.1,0,-0.5,0.1,-0.6,0c-0.2,0,-0.3,0.1,-0.6,0c-0.4,-0.1,-0.6,0,-0.7,0c-0.1,-0.1,-0.1,-0.1,-0.3,-0.2c-0.2,-0.1,-0.5,0,-0.3,0c0.1,0.1,0.3,0.3,0.2,0.3c-0.2,0,-0.3,0,-0.6,-0.1c-0.3,-0.1,-0.4,0.1,-0.5,0.1c-0.1,0,-0.6,0.1,-0.8,0c-0.2,0,-0.5,0,-0.7,-0.1c-0.3,0,-0.6,0.2,-0.7,0.1c-0.2,-0.1,-0.3,-0.1,-0.5,-0.1c-0.2,0,-0.2,0,-0.4,0c-0.2,0,-0.5,-0.1,-0.5,-0.1c0,0,-0.1,0.1,-0.3,0.2c-0.2,0,-0.5,-0.1,-0.6,0c-0.1,0,-0.3,0.2,-0.3,0.3c-0.1,0,-0.3,0,-0.3,0.2c-0.1,0.1,-0.1,0.5,-0.1,0.5l0,0.5c0,0,-0.2,0.7,-0.2,0.9c0,0.1,0.1,0.8,0.1,1c0,0.2,0,0.8,-0.1,0.9c-0.1,0.1,-0.4,0.4,-0.4,0.5c-0.1,0.1,-0.3,0.2,-0.3,0.4c0,0.1,-0.2,0.3,-0.3,0.4c0,0.1,-0.2,1.1,-0.2,1.1c0,0,-0.7,-0.8,-0.9,-0.8Z" class="g3_93" />
</g>
<path d="M309,553.7c0,0,-0.1,0.4,-0.1,0.6c-0.1,0.1,-0.3,0.2,-0.3,0.6c-0.1,0.4,0,0.8,0.1,1c0,0.3,0,0.5,0,0.5c0,0,0.1,-1,0.1,-1.1c0,-0.1,0,-0.5,0,-0.7c0,-0.1,0.2,-0.6,0.2,-0.9Z" class="g3_93" />
<path d="M294.9,555.8c0.1,-0.1,0.1,-0.4,0,-0.5c0,-0.1,-0.1,-0.1,-0.3,0.1c-0.1,0.2,-0.3,0.3,-0.4,0.5c-0.1,0.2,-0.2,0.5,0,0.6c0.1,0.2,0.4,0.3,0.5,0.5c0.2,0.3,0.6,0.4,0.6,0.4c0,0,-0.3,-0.4,-0.3,-0.6c-0.1,-0.1,-0.3,-0.1,-0.4,-0.3c0,-0.2,0,-0.4,0.1,-0.4c0,0.1,0.1,0.4,0.2,0.4c0,0,0,-0.7,0,-0.7Z" class="g3_93" />
<g clip-path="url(#c7_93)">
<path d="M293.9,555.5c0.1,-0.1,0.4,-1.1,0.4,-1.2c0,-0.1,0.2,0.4,0.3,0.5c0.2,0.1,0.4,0.3,0.3,0.2c0,-0.1,-0.3,-0.8,-0.4,-0.9c-0.1,-0.2,-0.4,-0.5,-0.6,-0.4c-0.1,0.1,-0.2,0.8,-0.2,1c-0.1,0.3,0,0.6,0.1,0.8c0,0.3,0,0.5,0,0.9c0.1,0.3,0.1,0.8,0.3,1.1c0.1,0.3,0.1,0.4,0.2,0.8c0.2,0.3,0.4,0.4,0.6,0.4c0.2,0,0.6,0,0.6,0c0,0,0,0.6,0.1,0.8c0,0.1,0.2,2,0.6,3.1c0.2,0.7,-0.2,2.5,-0.2,2.5c0,0,-1.3,1.4,-2.8,1.9c-1.4,0.4,-3.7,1.7,-3.6,1.7c-0.2,0.1,1.9,-1,2.4,-0.8c0.5,0.2,1.1,-0.2,1.3,-0.4c0.2,-0.2,1.3,-0.8,1.4,-0.9c0.2,-0.2,0.9,-0.8,1,-0.9c0.1,-0.2,0.4,-0.3,0.5,-0.9c0.1,-0.6,0.2,-1.6,0.1,-2.1c-0.1,-0.6,-0.6,-2,-0.7,-4.1c0,-0.2,-0.6,0,-0.9,-0.1c-0.3,-0.2,-0.3,-0.4,-0.4,-0.7c0,-0.2,-0.1,-0.3,-0.1,-0.6c0,-0.2,-0.2,-0.5,-0.2,-0.7c0,-0.2,-0.1,-1,-0.1,-1Z" class="g3_93" />
</g>
<path d="M297.3,564.1c0.1,0,1.4,1.4,1.8,1.7c0.4,0.3,1.1,1,1.3,1.1c0.3,0.1,1.3,0.4,1.8,0.4c0.5,0,1,0,1.2,-0.1c0.2,-0.1,1.2,-0.8,1.4,-1.1c0.1,-0.2,1.1,-1.5,1.4,-1.8c0.2,-0.3,0.8,-0.9,1,-1.3c0.1,-0.5,0.7,-1.6,0.9,-2.4c0.2,-0.8,0.6,-3.8,0.6,-3.9c0.1,0.2,-0.3,3.7,-1,5.4c-0.8,1.7,-1.7,2.5,-1.7,2.6c-0.1,0.2,-0.2,1.2,-0.2,1.4c0.1,0.3,0,0.5,0.4,0.8c0.5,0.4,1,0.4,1.4,0.7c0.5,0.2,1.7,1.2,1.7,1.2c0,0,-2,-1.2,-2.2,-1.2c-0.1,0,-0.9,-0.3,-1.1,-0.4c-0.2,-0.1,-0.2,-0.8,-0.5,-0.8c-0.4,-0.1,-0.5,0,-0.6,0.1c-0.2,0.1,-0.8,0.5,-1.1,0.7c-0.2,0.2,-1.2,0.5,-2.1,0.3c-0.8,-0.1,-1.4,-0.2,-2.5,-1.3c-1.1,-1.2,-1.9,-2.1,-1.9,-2.1Z" class="g3_93" />
<g clip-path="url(#c7_93)">
<path d="M292,567.5c0,0,1.7,1.3,2,1.6c0.3,0.3,1.5,1.3,1.9,1.7c0.4,0.4,2,1.5,3.8,1.7c1.8,0.2,3.1,0.2,4,0.1c0.9,-0.2,1.3,-0.5,1.3,-0.5c0,0,-0.8,0.7,-1.5,0.8c-0.8,0.1,-2.9,-0.1,-3.5,-0.2c-0.6,0,-1.7,-0.1,-3.1,-0.9c-1.3,-0.8,-3.5,-2.7,-3.9,-3.1c-0.5,-0.4,-0.9,-0.7,-1.5,-0.7c-0.5,-0.1,-1.9,0.7,-1.9,0.7c0,0,2,-1.1,2.4,-1.2Z" class="g3_93" />
</g>
<path d="M297.3,555.3c0,0,0.6,-0.2,0.9,-0.3c0.4,-0.1,0.7,-0.1,1,-0.1c0.3,0,1.2,0.1,1.4,0.2c0.2,0,0.8,0.4,0.9,0.7c-0.7,-0.7,-1.1,-0.6,-1.5,-0.7c-0.3,-0.2,-1.1,-0.1,-1.6,0c-0.5,0,-1.1,0.2,-1.1,0.2Z" class="g3_93" />
<path d="M304.3,555.7c0,0,0.8,-0.5,1,-0.5c0.2,-0.1,1,-0.1,1.3,-0.1c0.3,0,0.7,0.2,0.8,0.3c0,0,-0.3,-0.1,-0.5,-0.1c-0.2,-0.1,-1,-0.1,-1.2,-0.1c-0.3,0,-1.3,0.4,-1.4,0.5Z" class="g3_93" />
<g clip-path="url(#c8_93)">
<path d="M-3,718.1l189.5,0" class="g6_93" />
</g>
<text 
x="59" 
y="702" 
dx="0,0.2,0.2,0.2,0.2,0.2,0.2,-0.1,0.2,0.2,0.2,0,-0.1,0.2" 
class="s5_93"
>Language Notes</text>

<path d="M59.6,763.9l9.5,0" class="g1_93" />
<path d="M59.6,852.6l9.5,0" class="g1_93" />
<text 
x="59" 
y="758" 
dx="0,0" 
class="s6_93"
>a </text>

<text 
x="80" 
y="763" 
dx="0,0" 
class="s7_93"
>点/</text>

<text 
x="119" 
y="763" 
dx="0" 
class="s8_93"
>點</text>

<text 
x="82" 
y="787" 
dx="0" 
class="s9_93"
>点</text>

<text 
x="102" 
y="787" 
dx="0" 
class="s10_93"
>/</text>

<text 
x="106" 
y="787" 
dx="0" 
class="s11_93"
>點</text>

<text 
x="129" 
y="787" 
dx="0,0.1,0.1,0.1,0.1,0.1,0.1,0,0.1,0.1,0.1,0.1,0.1,0.1,0.1,0.1,0.1,0.1,0.1,0.1,0.1,0.1,0.1,0.1,0,0.1,0.1,0.1,0,0.1,0.1,-0.9,0.1,0.1,0.1,0.1,-0.2,0.1,0.1,0.1,0.1,0.1,0,0.1,0.1,0.1,0.1,0.1,0.1,0.1,0.1,0.1,0" 
class="s10_93"
>(lit. to point) means “to order,” i.e., from a menu. </text>

<text 
x="82" 
y="812" 
dx="0,0.1,0.1,0,0.1,0.1,0.1,0.1,0.1,0.1,0.1,0.1,0.1,-0.7,0.1" 
class="s10_93"
>More casually, </text>

<text 
x="167" 
y="812" 
dx="0" 
class="s9_93"
>要</text>

<text 
x="187" 
y="812" 
dx="0,0.1" 
class="s10_93"
>, </text>

<text 
x="192" 
y="812" 
dx="0" 
class="s9_93"
>叫</text>

<text 
x="212" 
y="812" 
dx="0,0.1,0.1,0.1,0.1" 
class="s10_93"
>, or </text>

<text 
x="233" 
y="812" 
dx="0" 
class="s9_93"
>来</text>

<text 
x="253" 
y="812" 
dx="0" 
class="s10_93"
>/</text>

<text 
x="257" 
y="812" 
dx="0" 
class="s11_93"
>來</text>

<text 
x="280" 
y="812" 
dx="0,0.1,0.1,0.1,0.1,0.1,0.1,0.1,0.1,0.1,0.1,0.1,0.1,0.1,0.1,0.1,0.1,0" 
class="s10_93"
>can also be used. </text>

<text 
x="59" 
y="847" 
dx="0,0" 
class="s6_93"
>b </text>

<text 
x="80" 
y="851" 
dx="0,0,0" 
class="s7_93"
>要饭/</text>

<text 
x="145" 
y="851" 
dx="0,0" 
class="s8_93"
>要飯</text>

<text 
x="82" 
y="876" 
dx="0,0.1,0.1,0.1,0.1,0.1,0.1,0.1,0.1,0.1,0,0.1,0.1,0.1,0.1,0.1,0.1,0.1,0.1,0.1,0.1,0.1,0.1,0.1,0.1,0.1,0.1,0.1,0.1,0.1,0.1,0.1,0.1,0.1" 
class="s10_93"
>Beggars are colloquially known as </text>

<text 
x="280" 
y="876" 
dx="0,0.2,0.2" 
class="s9_93"
>要饭的</text>

<text 
x="340" 
y="876" 
dx="0" 
class="s10_93"
>/</text>

<text 
x="345" 
y="876" 
dx="0,0.2,0.2" 
class="s11_93"
>要飯的</text>

<text 
x="405" 
y="876" 
dx="0,0" 
class="s10_93"
>, </text>

<text 
x="82" 
y="900" 
dx="0,0.1,0.1,0.1" 
class="s10_93"
>and </text>

<text 
x="106" 
y="900" 
dx="0,0.2" 
class="s9_93"
>要饭</text>

<text 
x="146" 
y="900" 
dx="0" 
class="s10_93"
>/</text>

<text 
x="151" 
y="900" 
dx="0,0.2" 
class="s11_93"
>要飯</text>

<text 
x="194" 
y="900" 
dx="0,0.1,0.1,0.1,0.1,0.1,0.1,0.1,0,0.1,0.1,0.1,0.1,0.1,0.1,0.1,0.1,0.1,0.1,0.1,0.1,0.1,0.1,0.1,0.1,0.1,0.1,0.1,0.1,0.1,0.1,0" 
class="s10_93"
>means “to beg.” This is why Lin </text>

<text 
x="82" 
y="925" 
dx="0,0.1,0.1,0.1,0.1,0.1,0.1,0.1,0.1,0.1,0.1,0,0.1,0.1,0.1,0.1,0.1,0.1,0.1,0.1,0.1,0.1,0.1,0.1,0,0.1,-0.9,0.1,0.1,0.1,0.1,0.1,0.1,0.1,0.1,0.1,0.1,0.1,0.1,0,0.1,0.1,0.1,0.1,0.1,0.1,0.1,0.1,0.1,0.1,0.1,0.1,0.1,0" 
class="s10_93"
>Xuemei corrects the waiter, who meant to ask, “Do you </text>

<text 
x="82" 
y="949" 
dx="0,0.1,0.1,0.1,0.1,0.1,0.1,0.1,0.1,0.1,0.1,0.1,0.1,0.1,0.1" 
class="s10_93"
>want any rice?”</text>

<path d="M464.7,763.9l9.5,0" class="g1_93" />
<path d="M464.7,877l9.5,0" class="g1_93" />
<text 
x="464" 
y="758" 
dx="0,0" 
class="s6_93"
>c </text>

<text 
x="485" 
y="763" 
dx="0,0" 
class="s7_93"
>父母</text>

<text 
x="487" 
y="787" 
dx="0,0.1,0.1,0.1,0.1,0.1,0.1,0.1,0.1,0.1,0.1,0.1,0.1,0.1,0.1,0.1,0.1" 
class="s10_93"
>In contrast with </text>

<text 
x="580" 
y="787" 
dx="0,0.2,0.2,0.2" 
class="s9_93"
>爸爸妈妈</text>

<text 
x="661" 
y="787" 
dx="0" 
class="s10_93"
>/</text>

<text 
x="665" 
y="787" 
dx="0,0.2,0.2,0.2" 
class="s11_93"
>爸爸媽媽</text>

<text 
x="745" 
y="787" 
dx="0,0.1,0.1,0.1,0.1,0.1,0.1,0.1,0.1,0,0" 
class="s10_93"
>, the word </text>

<text 
x="487" 
y="812" 
dx="0,0.2" 
class="s9_93"
>父母</text>

<text 
x="530" 
y="812" 
dx="0,0.1,0.1,0.1,0.1,0.1,0.1,0.1,0.1,0,0.1,0.1,0.1,0.1,0.1,0.1,0.1,0.1,0.1,-0.2,0.1,0.1,0.1,0.1,0.1,0.1,0.1,0.1,0.1,0.1,0.1,0.1,0.1,0.1,0.1,0.1,0.1,0.1,0.1,0.1,0.1,0.1,0.1,0.1,0.1,0.1,0.1,0.1,-0.2,0" 
class="s10_93"
>has a literary flavor and is used as a collective </text>

<text 
x="487" 
y="836" 
dx="0,0.1,0.1,0.1,0.1,0.1,0.1,0.1,0.1,0.1,0.1,0.1,0.1,0.1,0.1,0.1,0.1,0,0.1,0.1,0.1,0.1,0.1" 
class="s10_93"
>noun meaning “parents.”</text>

<text 
x="464" 
y="871" 
dx="0,0" 
class="s6_93"
>d </text>

<text 
x="485" 
y="876" 
dx="0,0" 
class="s7_93"
>主意</text>

<text 
x="487" 
y="900" 
dx="0,0.1,0.1,0.1,0.1,0.1,0.1,0.1,0.1,0.1,0.1,0,0.1,0.1" 
class="s10_93"
>In this word, </text>

<text 
x="560" 
y="900" 
dx="0" 
class="s9_93"
>主</text>

<text 
x="583" 
y="900" 
dx="0,0.1,0.1,0.1,0.1,0,0.1,0.1,0.1,0.1,0,0.1,0.1,0.1,0.1,0.1,0.1,0.1,0.1,0.1,0.1,0,0.1,0.1,0,0.1,0.1,0.1,0.1,0.1,0.1,0.1,0.1,0.1,0.1,0.1,0" 
class="s10_93"
>changes from the third to the second </text>

<text 
x="487" 
y="925" 
dx="0,0,0.1,0.1,0.1,0.1,0.1,0.1" 
class="s10_93"
>tone and</text>

<text 
x="538" 
y="925" 
dx="0" 
class="s9_93"
>意</text>

<text 
x="561" 
y="925" 
dx="0,0.1,0.1,0.1,0.1,0.1,0.1,0.1,0.1,0.1,0.1,0.1,0.1,0.1,0.1,0.1,0.1,0.1,0.1,0,0.1,0.1,0.1" 
class="s10_93"
>is in the neutral tone.</text>

<text 
x="59" 
y="67" 
dx="0,0,0,0,0,0,0,-0.9,0,0,0,0,0,0,0" 
class="s12_93"
>After You Study</text>

<text 
x="59" 
y="89" 
dx="0,0.1,0.1,0.1,0.1,0.1,0.1,0.1,0.1,0.1,0.1,0.1,-0.1,0.1,0.1,0.1,0.1,0.1,0.1,0.1,0" 
class="s13_93"
>Answer the following </text>

<text 
x="59" 
y="103" 
dx="0,0.1,0.1,0.1,0.1,0.1,0.1,0.1,0.1,0.1,0.1,0.1,0.1,0.1,0.1,0.1,0.1,0.1,0.1,0.1,0.1" 
class="s13_93"
>questions in Chinese.</text>

<text 
x="59" 
y="133" 
dx="0,0" 
class="s14_93"
>1 </text>

<text 
x="82" 
y="135" 
dx="0,0,0,0,0,0,0,0,0" 
class="s15_93"
>柯林他们点了些什么</text>

<text 
x="82" 
y="159" 
dx="0,0,0,0.3,0,0" 
class="s15_93"
>吃的、喝的?</text>

<text 
x="59" 
y="188" 
dx="0,0" 
class="s14_93"
>2 </text>

<text 
x="82" 
y="190" 
dx="0,0,0,0,0,0,0,0,0,0" 
class="s15_93"
>中国各个地方的菜不 </text>

<text 
x="82" 
y="214" 
dx="0,0,-1.7,0.3,0,0,0,0" 
class="s15_93"
>一样，如果吃得清</text>

<text 
x="82" 
y="239" 
dx="0,0,0.3,0,0,0,0,0" 
class="s15_93"
>淡，点什么地方的</text>

<text 
x="82" 
y="263" 
dx="0,0,0" 
class="s15_93"
>菜好?</text>

<path d="M247.5,55l0,208.5" class="g7_93" />
<path d="M-12.9,1209.2l53.4,0l0,-1222.1l-53.4,0l0,1222.1Z" class="g8_93" />
<text 
transform="matrix(0, -1, 1, 0, 31, 1173)"
dx="0,1,1" 
class="s16_93"
>70 </text>

<text 
transform="matrix(0, -1, 1, 0, 31, 1137)"
dx="0,1,1,0.8,1,1,0.9,1,0.8,1,1,1,1,1,1,1,1,1,1,1,1" 
class="s16_93"
>Integrated Chinese 3 </text>

<text 
transform="matrix(0, -1, 1, 0, 31, 996)"
dx="0,1" 
class="s16_93"
>| </text>

<text 
transform="matrix(0, -1, 1, 0, 31, 982)"
dx="0,-0.2,0.7,0.7,1,1,1,1" 
class="s16_93"
>Textbook</text>



<!-- Any embedded fonts defined here -->
<style type="text/css" ><![CDATA[

@font-face {
	font-family: STKaiti-SC-Bold_3oi;
	src: url("fonts/STKaiti-SC-Bold_3oi.woff") format("woff");
}

@font-face {
	font-family: LibreFranklin-ExtraBold_3ul;
	src: url("fonts/LibreFranklin-ExtraBold_3ul.woff") format("woff");
}

@font-face {
	font-family: LibreFranklin-Regular_3uw;
	src: url("fonts/LibreFranklin-Regular_3uw.woff") format("woff");
}

@font-face {
	font-family: STKaiTi-TC-Bold_3op;
	src: url("fonts/STKaiTi-TC-Bold_3op.woff") format("woff");
}

@font-face {
	font-family: MuseoSans-700_3v0;
	src: url("fonts/MuseoSans-700_3v0.woff") format("woff");
}

@font-face {
	font-family: LibreFranklin-Bold_3up;
	src: url("fonts/LibreFranklin-Bold_3up.woff") format("woff");
}

@font-face {
	font-family: SourceHanSansCN-Normal_3q5;
	src: url("fonts/SourceHanSansCN-Normal_3q5.woff") format("woff");
}

@font-face {
	font-family: STKaiTi-TC-Regular_3pl;
	src: url("fonts/STKaiTi-TC-Regular_3pl.woff") format("woff");
}

@font-face {
	font-family: STKaiti-SC-Regular_3pn;
	src: url("fonts/STKaiti-SC-Regular_3pn.woff") format("woff");
}

@font-face {
	font-family: LibreFranklin-SemiBold_3u_;
	src: url("fonts/LibreFranklin-SemiBold_3u_.woff") format("woff");
}

]]></style>

</svg>
