<?xml version="1.0" encoding="UTF-8" standalone="no"?>
<!DOCTYPE svg PUBLIC "-//W3C//DTD SVG 1.1//EN"
"http://www.w3.org/Graphics/SVG/1.1/DTD/svg11.dtd">


<!-- Page 126 -->
<svg x="0" y="0" width="921" height="1196" viewBox="0 0 921 1196" version="1.1" xmlns="http://www.w3.org/2000/svg" xmlns:xlink="http://www.w3.org/1999/xlink"
style="display: block;margin-left: auto;margin-right: auto;">
<defs>
<clipPath id="c0_126"><path d="M122.2,133.8l0,-26.1l25.2,0l0,26.1Z" /></clipPath>
<clipPath id="c1_126"><path d="M121.4,239.3l0,-26.2l26.1,0l0,26.2Z" /></clipPath>
<clipPath id="c2_126"><path d="M121.4,436.3l0,-26.1l26.1,0l0,26.1Z" /></clipPath>
<clipPath id="c3_126"><path d="M124.6,495.9l0,-26.1l19.7,0l0,26.1Z" /></clipPath>
<clipPath id="c4_126"><path d="M122.2,784.7l0,-26.2l25.2,0l0,26.2Z" /></clipPath>
<clipPath id="c5_126"><path d="M124.6,890.1l0,-26.2l19.7,0l0,26.2Z" /></clipPath>
<clipPath id="c6_126"><path d="M121.4,949.7l0,-26.2l26.1,0l0,26.2Z" /></clipPath>
<clipPath id="c7_126"><path d="M122.2,1009.3l0,-26.2l25.2,0l0,26.2Z" /></clipPath>

<style type="text/css"><![CDATA[

.g1_126{
fill: none;
stroke: #DC262E;
stroke-width: 1.5277778;
stroke-linecap: butt;
stroke-linejoin: miter;
}
.g2_126{
fill: none;
stroke: #007598;
stroke-width: 1.5277778;
stroke-linecap: butt;
stroke-linejoin: miter;
}
.g3_126{
fill: #00A54F;
}
.g4_126{
fill: #AF0C14;
}
.g5_126{
fill: #00AEEF;
}
.g6_126{
fill: #652D91;
}
.g7_126{
fill: #DC262E;
stroke: #B2B3B7;
stroke-width: 1.5277778;
stroke-linecap: butt;
stroke-linejoin: miter;
stroke-miterlimit: 4;
}

.s1_126{
font-size: 25.97px;
font-family: STKaiTi-TC-Regular_3pl;
fill: #3F3F40;
}
.s2_126{
font-size: 25.97px;
font-family: STKaiTi-TC-Bold_3op;
fill: #67962C;
}
.s3_126{
font-size: 25.97px;
font-family: STKaiTi-TC-Bold_3op;
fill: #DE4639;
}
.s4_126{
font-size: 10.69px;
font-family: LibreFranklin-ExtraBold_3v-;
fill: #DC262E;
}
.s5_126{
font-size: 25.97px;
font-family: STKaiTi-TC-Bold_3op;
fill: #007D9F;
}
.s6_126{
font-size: 10.69px;
font-family: LibreFranklin-Bold_3vu;
fill: #007598;
}
.s7_126{
font-size: 11.08px;
font-family: LibreFranklin-SemiBold_3wg;
fill: #FFFFFF;
}

]]></style>

</defs>
<path d="M0,0
L0,1196
L921,1196
L921,0 Z " 
fill="#FFFFFF" stroke="none" />
<path d="M382.7,159l6.6,0" class="g1_126" />
<path d="M174.9,263.6l7.3,0" class="g2_126" />
<path d="M304.8,415.6l6.3,0" class="g1_126" />
<text 
x="148" 
y="131" 
dx="0,0,0,0,0,0,0,0,0,0,0" 
class="s1_126"
>買東西，我只買名牌的，</text>

<text 
x="434" 
y="131" 
dx="0,0,0" 
class="s2_126"
>要不然</text>

<text 
x="512" 
y="131" 
dx="0,0,0,0" 
class="s1_126"
>就不買，</text>

<text 
x="148" 
y="177" 
dx="0,0,0,0,0,0,0" 
class="s1_126"
>因為名牌的衣服</text>

<text 
x="330" 
y="177" 
dx="0,0" 
class="s3_126"
>質量</text>

<text 
x="382" 
y="155" 
dx="0" 
class="s4_126"
>d</text>

<text 
x="389" 
y="177" 
dx="0,0" 
class="s1_126"
>好。</text>

<text 
x="148" 
y="236" 
dx="0,0,0,0,0,0,0" 
class="s1_126"
>不錯。有的衣服</text>

<text 
x="330" 
y="236" 
dx="0,0,0,0,0" 
class="s5_126"
>便宜是便宜</text>

<text 
x="460" 
y="236" 
dx="0" 
class="s1_126"
>，</text>

<text 
x="486" 
y="236" 
dx="0,0" 
class="s5_126"
>可是</text>

<text 
x="538" 
y="236" 
dx="0,0,0" 
class="s1_126"
>牌子不</text>

<text 
x="148" 
y="282" 
dx="0" 
class="s1_126"
>好</text>

<text 
x="174" 
y="261" 
dx="0" 
class="s6_126"
>3</text>

<text 
x="182" 
y="282" 
dx="0,0,0,0,0,0,0,0,0,0,0,0" 
class="s1_126"
>，穿一、兩次就不想穿了，</text>

<text 
x="493" 
y="282" 
dx="0,0" 
class="s2_126"
>只好</text>

<text 
x="545" 
y="282" 
dx="0,0,0" 
class="s1_126"
>再買一</text>

<text 
x="148" 
y="328" 
dx="0,0,0,0,0,0,0,0,0,0,0,0,0,0,0,0,0,0" 
class="s1_126"
>件。這樣買兩件衣服的錢可能比買一件名</text>

<text 
x="148" 
y="374" 
dx="0,0,0,0,0" 
class="s1_126"
>牌的更多。</text>

<text 
x="148" 
y="433" 
dx="0,0,0" 
class="s1_126"
>你說的</text>

<text 
x="226" 
y="433" 
dx="0,0,0" 
class="s3_126"
>有道理</text>

<text 
x="304" 
y="412" 
dx="0" 
class="s4_126"
>e</text>

<text 
x="311" 
y="433" 
dx="0" 
class="s1_126"
>。</text>

<text 
x="148" 
y="493" 
dx="0,0,0,0,0,0,0,0,0,0,0,0,0,0,0,0,0,0" 
class="s1_126"
>買衣服只考慮便宜當然不好，但是也不一</text>

<text 
x="148" 
y="539" 
dx="0" 
class="s1_126"
>定</text>

<text 
x="174" 
y="539" 
dx="0" 
class="s2_126"
>非</text>

<text 
x="200" 
y="539" 
dx="0,0,0,0" 
class="s1_126"
>買名牌的</text>

<text 
x="304" 
y="539" 
dx="0,0" 
class="s2_126"
>不可</text>

<text 
x="356" 
y="539" 
dx="0,0,0,0,0,0" 
class="s1_126"
>。我買衣服的</text>

<text 
x="512" 
y="539" 
dx="0,0" 
class="s2_126"
>標準</text>

<text 
x="564" 
y="539" 
dx="0,0" 
class="s1_126"
>，第</text>

<text 
x="148" 
y="585" 
dx="0,0,0,0,0,0,0,0,0,0,0,0,0,0,0,0,0,0" 
class="s1_126"
>一是看穿著舒服不舒服，第二是質量好不</text>

<text 
x="148" 
y="631" 
dx="0,0,0,0,0,0,0,0,0,0,0,0,0,0,0,0,0,0" 
class="s1_126"
>好，第三是價錢合適不合適。是什麼牌子</text>

<text 
x="148" 
y="676" 
dx="0,0,0,0,0,0,0,0,0,0,0,0,0" 
class="s1_126"
>的，樣子時髦不時髦，我都不</text>

<text 
x="486" 
y="676" 
dx="0,0" 
class="s2_126"
>在乎</text>

<text 
x="538" 
y="676" 
dx="0,0,0" 
class="s1_126"
>。因為</text>

<text 
x="148" 
y="722" 
dx="0,0,0,0,0,0,0,0,0,0,0,0,0,0,0,0,0,0" 
class="s1_126"
>穿衣服是為了自己，不是為了給別人看。</text>

<text 
x="148" 
y="782" 
dx="0,0,0,0,0,0,0,0,0,0,0,0,0,0,0,0,0,0" 
class="s1_126"
>我不同意。你喜歡看雪梅穿不好看的衣服</text>

<text 
x="148" 
y="828" 
dx="0,0" 
class="s1_126"
>嗎？</text>

<text 
x="148" 
y="887" 
dx="0,0,0,0,0,0,0,0,0,0,0,0,0,0,0" 
class="s1_126"
>雪梅穿什麼衣服都好看，對不對？</text>

<text 
x="148" 
y="947" 
dx="0,0,0,0,0,0,0,0,0,0" 
class="s1_126"
>好，好，好，別說了。</text>

<text 
x="148" 
y="1006" 
dx="0,0,0,0,0,0,0,0,0,0,0,0,0,0,0,0,0" 
class="s1_126"
>哎，柯林，你身上這件衣服怎麼是名牌</text>

<text 
x="148" 
y="1052" 
dx="0,0,0,0,0,0,0,0,0,0,0,0" 
class="s1_126"
>的，你不是不穿名牌的嗎？</text>

<path d="M132.1,120.1c0,0,-0.1,-0.1,-0.1,-0.1c0,-0.1,0.1,-0.1,0.1,-0.1c0.1,0,0.1,0,0.1,0.1c0,0,0,0.1,-0.1,0.1m0.6,-0.3c-0.3,0,-1,0,-1.2,0c-0.2,0,-0.7,0.2,-0.8,0.3c-0.2,0.1,-0.4,0.3,-0.5,0.3c-0.2,0,-0.2,0.1,-0.2,0.1c0,0,0.5,-0.1,0.5,-0.1c0.1,-0.1,0.2,-0.1,0.3,-0.1c0.1,0,0.4,0,0.4,0c0,0,-0.1,-0.2,0,-0.3c0.1,0,0.2,0,0.3,0c0,0,-0.1,0.2,0.2,0.3c0.3,0.2,0.7,0,0.7,-0.1c0.1,-0.1,0.1,-0.2,0.1,-0.2c0,0,0.2,-0.2,0.8,0.4c0,0,-0.3,-0.5,-0.6,-0.6Z" class="g3_126" />
<path d="M138.1,119.7c0,0,-0.1,-0.1,-0.1,-0.1c0,-0.1,0.1,-0.1,0.1,-0.1c0.1,0,0.1,0,0.1,0.1c0,0,0,0.1,-0.1,0.1m1.5,0c-0.2,0,-0.2,-0.1,-0.5,-0.2c-0.4,-0.2,-1,-0.1,-1.6,-0.1c-0.5,0,-1,0.8,-1,0.8c0,0,0.7,-0.7,0.8,-0.6c0.2,0.2,0.3,0.3,0.8,0.3c0.5,0,0.5,-0.4,0.6,-0.4c0.1,0,0,0.2,0.1,0.2c0.1,0,0.3,0.1,0.5,0.1c0.1,0,0.6,0,0.6,0c0,0,-0.1,0,-0.3,-0.1Z" class="g3_126" />
<path d="M133.5,118.9c0,0,-0.2,-0.3,-0.6,-0.3c-0.5,-0.1,-1.4,-0.1,-1.8,-0.1c-0.3,0,-1,0.3,-1.1,0.4c-0.1,0,-0.5,0.2,-0.5,0.2c0,0,1.1,-0.1,1.4,-0.1c0.3,0,1.2,0,1.7,0c0.4,0,0.8,0.1,0.9,-0.1Z" class="g3_126" />
<path d="M136.1,118.7c0,0,-0.1,-0.4,0.5,-0.5c0.5,-0.1,0.7,-0.1,1.3,-0.2c0.6,-0.1,0.7,-0.1,1,-0.1c0.3,0,1.2,0.2,1.4,0.3c0.2,0.1,-0.6,0.1,-0.7,0.1c-0.2,0.1,-1.4,0.2,-1.6,0.3c-0.3,0,-1.8,0.1,-1.9,0.1Z" class="g3_126" />
<path d="M133,123.3c0,0,0.1,0.5,0.2,0.6c0.1,0.1,0.2,0.1,0.5,0.1c0.4,0,0.5,0,0.6,0.1c0.1,0.1,0.2,0.2,0.2,0.2c0,0,-0.4,-0.1,-0.6,-0.1c-0.3,0,-0.5,0,-0.6,0c-0.1,-0.1,-0.4,-0.4,-0.3,-0.9Z" class="g3_126" />
<path d="M134.9,124.5c0,0,0.5,0,0.6,0c0.2,-0.1,0.4,-0.4,0.6,-0.5c0.2,-0.1,0.2,-0.2,0.5,-0.2c0.3,0,0.4,0,0.5,-0.2c0,-0.1,0.1,-0.4,0,-0.7c0.4,0.7,-0.2,1,-0.2,1c0,0,-0.5,0.1,-0.7,0.2c-0.1,0,-0.6,0.7,-1.3,0.4Z" class="g3_126" />
<path d="M137,122.4c0,0,0.4,0.3,0.5,0.4c0.2,0.1,0.4,0.6,0.5,0.7c0.2,0.2,0.4,0.4,0.7,0.6c0.3,0.2,0.4,0.2,0.5,0.3c0.1,0.1,0.2,0.7,0.2,0.7c0,0,0.1,-0.7,-0.1,-0.9c-0.3,-0.2,-0.6,-0.1,-0.9,-0.4c-0.6,-0.5,-0.5,-1.2,-1.4,-1.4Z" class="g3_126" />
<path d="M132.4,123.4c0,0,-0.4,0.6,-0.5,0.8c-0.2,0.1,-0.5,0.4,-0.7,0.5c-0.1,0.1,-0.3,0.4,-0.1,1c0,-0.6,0.1,-0.7,0.2,-0.9c0.2,-0.1,0.5,-0.3,0.7,-0.5c0.2,-0.2,0.3,-0.8,0.4,-0.9Z" class="g3_126" />
<path d="M132,125.7c0,0,0.7,0,0.9,-0.1c0.3,-0.1,0.8,-0.1,1.1,-0.1c0.3,0,0.8,0,1,0.1c0.2,0,0.4,-0.1,0.6,-0.1c0.1,-0.1,1.8,-0.2,2.1,-0.2c0.3,0,0.8,0,0.8,0c0,0,-0.1,0.2,-0.2,0.4c-0.2,0.3,-0.9,2.2,-2.6,2.3c-1.8,0.2,-2.6,-0.9,-2.6,-0.9c0,0,0.6,0.6,1.4,0.7c0.8,0.1,1.4,0,1.8,-0.2c0.4,-0.2,0.7,-0.4,0.8,-0.6c0.1,-0.3,0.1,0.1,-2,0.2c-0.3,0,2.3,-0.4,2.8,-1.2c0.1,-0.3,0,-0.5,0,-0.5c0,0,-0.8,-0.1,-1.2,0c-0.3,0.1,-0.7,0.2,-0.9,0.2c-0.1,0,-0.8,0.1,-1.1,0.1c-0.2,0,-0.8,-0.1,-1.1,-0.1c-0.2,0,-0.8,0.1,-0.8,0.1l0,0.3c0,0,0.2,0.3,0.5,0.5c0.3,0.2,0.9,0.6,1,0.6c0.1,0,-1.1,-0.4,-1.7,-0.8C132.1,126,132,125.7,132,125.7Z" class="g3_126" />
<path d="M139.1,117.4c0,0.1,1,-0.7,1.2,-1.3c0.1,-0.6,0.1,-0.2,0.1,-0.2c0,0,0,0.5,0.1,0.7c0,0.2,0.1,0.4,0.5,0.9c0.3,0.4,0.3,0.4,0.4,0.9c0.1,0.5,0,1.2,0.1,1.5c0.1,0.4,0.1,0.8,0.1,1.1c0,0.3,-0.1,1.1,-0.1,1.4c-0.1,0.4,-0.2,2.1,-0.2,2.4c-0.1,0.3,-0.3,1.6,-0.8,2.3c-0.5,0.7,-2.1,2.8,-2.7,3.1c-0.7,0.3,-1.4,0.5,-1.9,0.5c-0.4,-0.1,-1.2,0,-1.5,-0.1c-0.2,-0.1,-0.9,-0.2,-1.2,-0.5c-0.3,-0.4,-1.1,-1.1,-1.6,-1.6c-0.6,-0.6,-1.2,-1.3,-1.1,-1.3c0,0.1,1.1,1.4,1.2,1.6c0.2,0.3,0.9,1,1.4,1.4c0.5,0.5,1.1,0.8,2,0.8c1,0,1.9,-0.1,2.2,-0.2c0.4,-0.1,1.2,-0.8,1.5,-1.3c0.3,-0.5,1.5,-1.9,1.7,-2.2c0.3,-0.4,0.8,-1.5,0.9,-2.3c0.1,-0.9,0.2,-2.3,0.2,-2.6c0,-0.4,0.1,-0.9,0.3,-1c0.1,-0.1,0.1,-0.8,0.1,-1.1c0.1,-0.2,-0.1,-0.5,0,-0.7c0.1,-0.2,0.3,-0.3,0.3,-0.3c0,0,0,-1.1,0,-1.2c0.1,0,0.3,0.1,0.3,0.1c0,0,-0.2,-0.7,-0.1,-0.7c0,-0.1,0.4,0.4,0.4,0.4c0,0,-0.1,-0.5,0,-0.5c0.1,0,0.4,0.1,0.4,0.1c0,0,-0.3,-0.3,-0.4,-0.4c0,-0.1,-0.1,-0.3,0,-0.4c0.1,-0.1,0.3,0,0.3,0c0,0,-0.3,-0.3,-0.3,-0.4c0,-0.1,0.1,-0.2,0.1,-0.2c0,0,-0.1,0,-0.2,-0.1c-0.1,-0.1,-0.1,-0.3,-0.1,-0.3l0.3,0.2c0,0,-0.3,-0.3,-0.2,-0.3c0,-0.1,0.1,-0.1,0.1,-0.1c0,0,-0.3,-0.1,-0.3,-0.2c0,-0.1,0.2,-0.2,0.2,-0.2c0,0,-0.2,0,-0.3,-0.2c0,-0.2,0,-0.4,0,-0.5c0,-0.2,-0.2,-0.4,-0.2,-0.4c0.1,0,0.3,-0.1,0.3,-0.1c0,0,-0.1,-0.1,-0.2,-0.1c-0.2,-0.1,-0.4,-0.2,-0.4,-0.2l0.4,-0.1c0,0,-0.1,-0.1,-0.2,-0.2c-0.2,0,-0.2,-0.1,-0.1,-0.1c0.2,0,0.3,-0.1,0.3,-0.1c0,0,-0.3,-0.2,-0.4,-0.2c-0.1,-0.1,-0.2,-0.2,-0.2,-0.2c0.1,0,0.2,-0.2,0.2,-0.2c0,0,-0.1,-0.1,-0.3,-0.2c-0.1,-0.1,-0.1,-0.2,-0.1,-0.3c-0.1,0,-0.2,0,-0.4,0c-0.1,-0.1,-0.1,-0.4,-0.1,-0.4c0,0,-0.1,-0.3,-0.1,-0.4c0,0,-0.1,-0.3,0,-0.3c0,0,-0.2,0,-0.2,0.1c-0.1,0.1,0,0.4,-0.2,0.4c-0.2,0.1,-0.8,0.5,-1,0.5c-0.1,0.1,-0.5,0.2,-0.6,0.2c-0.1,0.1,-0.4,0.2,-0.4,0.2c0,0,0.6,0,0.9,0c0.2,-0.1,0.5,-0.1,0.7,-0.2c0.2,-0.1,0.2,0,0.2,0.1c-0.1,0.1,-0.6,0.5,-0.7,0.7c-0.1,0.1,-0.4,0.2,-0.3,0.2c0.1,0,1.1,-0.5,1.1,-0.6c0.1,-0.1,0.2,0.1,0.2,0.2c-0.1,0,-0.3,0.6,-0.6,0.7c-0.2,0.1,-1.2,0.5,-1.2,0.5c0,0,0.5,0,0.9,-0.1c0.4,-0.2,1,-0.8,1,-0.9c0.1,0,0.2,0.4,0.1,0.6c0,0.1,-0.3,0.5,-0.3,0.5l0.5,-0.4c0,0,-0.2,0.7,-0.3,0.8c0,0.2,-0.2,0.6,-0.1,0.7c0,0.1,-0.3,0.5,-0.4,0.5c-0.1,0,-0.3,1.3,-1.2,1.8Z" class="g3_126" />
<path d="M143,118.1c0,0,0,0.3,0,0.5c0,0.2,-0.1,0.4,-0.1,0.5c0,0.1,-0.2,-0.2,-0.2,-0.3c-0.1,0,0,-0.5,0,-0.7c0,-0.2,-0.1,-0.4,-0.1,-0.4Z" class="g3_126" />
<path d="M142.5,119.2c0.1,0.1,0.1,0.4,0.1,0.6c0,0.2,-0.3,0.6,-0.4,0.6c0,0.1,-0.1,-0.4,-0.1,-0.5c0,-0.2,0.4,-0.7,0.4,-0.7Z" class="g3_126" />
<path d="M143.1,118.1c0,0,0.2,0.2,0.1,0.5c-0.1,0.2,-0.2,0.7,-0.3,0.9c0,0.3,0,1,-0.1,1.1c0,0.1,-0.5,0.7,-0.6,0.8c0,0.1,-0.1,0.7,-0.3,0.8c0.1,-0.4,0.2,-0.9,0.2,-0.9c0,0,0.5,-0.6,0.6,-0.8c0.1,-0.2,0.1,-1,0.2,-1.1c0,-0.2,0.4,-1.1,0.2,-1.3Z" class="g3_126" />
<path d="M137.6,117.2c0,0,1.7,-1,2,-1.4c0.4,-0.4,0.9,-1,0.8,-1c0,0,0.2,-0.5,0.2,-0.5c0,0,-1,1.2,-1,1.3c-0.1,0,-2,1.6,-2,1.6Z" class="g3_126" />
<path d="M136.4,116.4c0.1,0,0.9,-0.7,1.1,-0.7c0.1,0,0.7,0,1.2,-0.2c0.6,-0.3,0.7,-0.5,1,-0.7c0.3,-0.2,0.6,-0.6,0.6,-0.6c0,0,-0.5,0,-0.7,0c-0.2,0.1,-0.5,0.2,-0.8,0.3c-0.2,0.2,-1,0.4,-1,0.6c-0.1,0.1,-0.2,0.3,-0.3,0.4c-0.2,0.1,-1.1,0.9,-1.1,0.9Z" class="g3_126" />
<path d="M134.2,116.1c0.1,0,1.2,-0.6,1.5,-0.7c0.2,-0.1,0.7,-0.3,0.8,-0.3c0.2,-0.1,0,0.1,-0.1,0.2c0,0.1,-1.3,1,-1.2,1c0.1,0,1.4,-1,1.6,-1.1c0.3,0,0,0.4,-0.2,0.6c-0.2,0.2,-0.9,0.7,-0.8,0.6c0,0,1.4,-1.1,1.6,-1.3c0.2,-0.2,0.5,-0.6,0.7,-0.7c0.3,0,0.8,-0.1,0.8,-0.1c0,0,-1,0,-0.9,-0.1c0.1,-0.1,0.7,-0.3,0.8,-0.4c0.2,0,-0.2,0.1,-0.8,0.1c-0.5,0,-1.4,0,-1.7,0c-0.3,0,-0.7,-0.1,-0.9,-0.1c-0.1,-0.1,0,0.2,0.1,0.2c0,0.1,-0.7,0.4,-0.9,0.4c-0.2,0.1,-0.7,0.5,-1.2,0.7c-0.4,0.1,-1.3,0.7,-1.4,0.8c-0.1,0.1,1.2,-0.5,1.2,-0.4c0,0.2,-0.4,0.8,-0.8,1.2c-0.4,0.5,-1.6,1.3,-1.6,1.3c0,0,1.2,-0.6,1.9,-1.3c0.7,-0.8,0.9,-1.1,1,-1.2c0.2,0,0.4,-0.3,0.6,-0.3c0.2,0,-0.1,0.4,-0.1,0.4l-1.1,1.1c0,0,1.7,-1.3,2,-1.4c0.4,-0.2,0.6,-0.2,0.6,-0.2Z" class="g3_126" />
<path d="M137.6,113.6c0,0,1.2,-0.5,1.2,-0.6c0,0,-0.1,-0.1,-0.4,0c-0.3,0.1,-0.9,0.5,-1.5,0.5c0,-0.1,1.1,-0.6,1.1,-0.6c0,0,0.4,-0.1,0.8,-0.1c0.3,-0.1,0.9,-0.4,0.9,-0.4c0,0,-0.7,0.6,-0.8,0.8c-0.2,0.2,-0.2,0.4,-0.6,0.4c-0.4,0,-0.7,0,-0.7,0Z" class="g3_126" />
<g clip-path="url(#c0_126)">
<path d="M137.3,112c0,0,0.7,0.1,1.4,-0.1c0.6,-0.1,1,-0.4,1.2,-0.6c0.2,-0.1,0.9,-0.6,1,-0.7c0.1,0,0,0,0.3,0.1c0.3,0.2,1,0.6,1,0.9c0,0.3,0,0.7,0,0.7c0,-0.1,0.1,-0.6,0.1,-0.6c0,0,0.3,0.3,0.4,0.9c0.4,-0.3,-0.7,-2.1,-1.7,-2.2c-1,-0.2,-0.7,0,-0.8,0c0,-0.1,-0.1,-0.2,0,-0.3c0.1,-0.1,-0.2,-0.2,-0.2,-0.2l0.3,-0.4c0,0,-0.5,0.4,-0.6,0.3c-0.1,0,0,-0.3,0.1,-0.3c0.1,0,0.3,-0.1,0.3,-0.1c0,0,-0.3,-0.1,-0.5,0.1c-0.2,0.2,-0.3,0.3,-0.3,0.3c-0.1,0,-0.3,-0.1,-0.1,-0.2c0.1,-0.2,0.5,-0.5,0.5,-0.5c0,-0.1,-0.6,0.4,-0.6,0.3c0,-0.1,0.1,-0.4,-0.4,-0.9c-0.5,-0.5,-0.7,-0.7,-1.3,-0.8c-0.7,-0.2,-1.3,-0.1,-1.3,-0.1c-0.1,0,1,0.1,1.3,0.3c0.4,0.2,0.9,0.5,1.2,1.1c-0.2,-0.1,-0.6,-0.7,-1,-0.8c0.4,0.4,0.7,0.7,0.7,0.9c0.1,0.2,-0.4,-0.5,-1.4,-1c-1,-0.4,-1.7,-0.5,-2.1,-0.4c-0.4,0.1,-1,0.4,-1,0.4c0,0,1.4,0,2,0.2c0.6,0.2,0.6,0.3,0.8,0.3c0.2,0,0.3,0,0.6,0c0.2,0.1,0.8,0.4,0.5,0.4c-0.4,0,-1.5,-0.1,-2.1,-0.1c-0.5,0,-0.6,0,-0.6,0c0,0,0.8,0.2,1.2,0.2c0.4,0.1,1.3,0,1.6,0.2c0.2,0.1,0.7,0.4,0.4,0.4c-0.3,0,-0.5,0,-0.5,0c0,0,0.6,0.3,0.6,0.4c-0.1,0.1,-0.6,-0.2,-0.8,-0.2c-0.2,-0.1,0.3,0.3,0.6,0.4c0.3,0.1,0.5,0.1,0.9,0.2c0.3,0.1,0.8,0,0.7,0.2c-0.1,0.1,0.2,0.2,-0.6,0.1c-0.7,-0.1,-1.8,-0.6,-2.2,-0.7c-0.3,0,-0.5,0,-0.5,0c0,0,0.6,0.3,0.8,0.4c0.3,0.1,1.3,0.4,1.5,0.5c0.2,0.1,-0.8,-0.1,-1.1,-0.1c-0.2,0,-0.6,0.1,-0.6,0.1c0,0,1.3,0.1,1.3,0.2c0,0,-0.8,0.1,-1,0.1c-0.3,-0.1,-1.3,-0.2,-1.4,-0.1c-0.1,0,1.8,0.3,1.7,0.3c-0.2,0.1,-1.5,0.5,-3.6,-0.5c-0.2,-0.1,0.7,0.6,1,0.7c0.3,0.1,1,0.3,1.3,0.2c0.4,0,1.7,-0.4,1.8,-0.3c0.2,0.1,-0.3,0.4,-0.8,0.4Z" class="g3_126" />
</g>
<path d="M132.7,110.6c0.4,0.2,0.4,0.4,0.8,0.7c0.5,0.3,1.1,0.4,1.4,0.7c0.3,0.2,0.7,0.2,1,0.5c0.4,0.2,1,0.6,1.3,0.6c0.2,0,-0.4,0.2,-0.7,0.2c-0.4,0,-0.6,-0.4,-1,-0.4c-0.5,0,-0.8,-0.1,-1.5,0.1c-0.7,0.2,-1.1,0.1,-1.3,0.2c-0.3,0.1,-0.8,0.2,-1.2,0.1c-0.5,0,-0.7,0.1,-1.3,0.1c-0.6,-0.1,-1.1,0,-1.4,0.1c-0.4,0.1,-0.8,0.4,-0.9,0.4c-0.1,0,-0.3,0.1,-0.4,0.2c-0.1,0,-0.5,0.5,-0.6,0.6c-0.1,0.1,0.3,-0.7,0.6,-0.9c0.4,-0.2,0.8,-0.4,1.2,-0.5c0.3,-0.2,0.3,-0.4,1,-0.3c0.6,0.1,1.5,0.1,1.8,0.1c0.3,0,1.1,0,1.5,-0.1c0.4,-0.1,1.6,-0.2,1.7,-0.3c0.2,-0.1,-0.4,-0.2,-0.8,-0.1c-0.5,0,-1,0.1,-1.6,0c-0.6,-0.1,1.4,-0.1,1.5,-0.2c0.1,-0.2,0.1,-0.3,-0.1,-0.4c-0.2,0,-0.5,-0.1,-0.9,-0.1c-0.3,0,-1.1,0,-1.7,0c-0.5,0,-1.3,-0.1,-1.7,0.1c-0.4,0.2,-1.2,0.8,-1.3,0.8c-0.1,0.1,0.9,-1.1,1.5,-1.1c0.6,-0.1,2.9,0,3.4,0c0.5,0.1,1.2,0.4,1.4,0.5c0.3,0,0.5,-0.1,0.1,-0.2c-0.3,-0.1,-1.4,-0.6,-1.6,-0.6c-0.2,0,-1.3,0,-1.7,0.1c-0.4,0.1,0.6,-0.2,1.1,-0.2c0.5,-0.1,0.7,-0.2,0.5,-0.3c-0.1,-0.1,-0.5,0.1,-0.8,0.1c-0.3,0,-1,0,-1.3,0c-0.4,0.1,-1.2,0.3,-1.5,0.4c-0.2,0.1,-0.9,0.3,-0.8,0.3c0.1,-0.1,1.2,-0.6,1.6,-0.7c0.5,-0.2,1.9,-0.3,1.9,-0.3c0,0,-0.1,-0.2,-0.7,-0.1c-0.6,0.1,-1.6,0.2,-1.7,0.2c-0.1,0.1,0.6,-0.3,1,-0.3c0.4,-0.1,1.2,-0.3,2.2,0Z" class="g3_126" />
<g clip-path="url(#c0_126)">
<path d="M133.6,107.7c0,0,-0.5,-0.1,-1.1,-0.1c-0.5,0.1,-0.8,0.1,-1.3,0.3c-0.4,0.1,-1.3,0.4,-1.5,0.6c-0.2,0.1,-1.2,0.6,-1.5,0.8c-0.2,0.3,-0.9,0.9,-0.8,0.9c0,0,1,-0.9,1.2,-0.8c0.2,0,0.2,0.2,-0.2,0.4c-0.5,0.1,-0.9,0.5,-0.9,0.5c0.1,0,0.4,-0.1,0.3,0c-0.1,0.1,-1,0.9,-1.1,1.2c-0.2,0.2,0.8,-0.7,0.7,-0.5c0,0.1,-1,1.3,-1.1,1.5c-0.1,0.2,-0.2,0.8,-0.2,0.8c0,0,0.4,-0.7,0.5,-0.7c0.1,0,-0.1,0.4,-0.3,0.6c-0.1,0.3,-0.3,0.5,-0.3,0.7c-0.1,0.2,0,0.8,0.1,0.9c0,0,0.2,1.3,0.2,1.3c0,0,0.2,-0.3,0.3,-0.3c0.1,0.1,0,0.8,0,0.9c0,0,0,0.5,0,0.5c0,-0.1,0.5,-0.4,0.4,-0.2c-0.1,0.1,-0.3,0.2,-0.4,0.4c-0.1,0.2,0.1,0.2,0.2,0.3c0,0.1,-0.1,0.7,-0.1,0.7c0,0,0.1,0.2,0.2,0.1c0.1,0,0.4,-0.3,0.4,-0.2c0.1,0,0,0.6,0,0.6c0,0,0,0.4,0.1,0.4c0.1,0,0.2,0.2,0.2,0.3c0,0.1,0,0.5,0,0.6c0.1,0.1,0.1,0.4,0.3,0.6c0,0,0.1,0.5,0.1,0.7c0,0.2,0.1,0.5,0.1,0.5c0,0,0.6,0.7,0.7,1c0.1,0.4,0.2,0.8,0.2,0.8c0,0,-0.1,-0.9,-0.2,-1.1c-0.1,-0.3,-0.4,-0.9,-0.4,-1.4c0,-0.5,-0.1,-1.5,0,-1.7c0.2,-0.2,0.3,-0.2,0.3,0c0,0.1,0.1,0.3,0.2,0.2c0.1,-0.1,0.2,-0.1,0.3,-0.2c0,-0.1,0.1,0.2,0.1,0.1c0,0,0,-0.6,0,-0.7c0.1,0,0.2,0.3,0.2,0.3c0,0,0,-0.4,0.1,-0.5c0,-0.1,0.4,-0.2,0.5,-0.2c0,-0.1,0,-0.5,0.1,-0.6c0,-0.1,0.4,-0.5,0.4,-0.5c0,0,-0.1,0.7,-0.2,0.8c-0.1,0.2,0,1.1,0,1.1c0.1,-0.1,0.2,-1.5,0.4,-1.8c0.1,-0.2,0.6,-0.7,0.6,-0.7c0,0,-0.6,0.5,-0.6,0.4c0,0,0.5,-0.5,0.5,-0.5c-0.1,0,-1.1,0.8,-1.1,0.8c0,0,-0.5,0.6,-0.6,0.7c0,0,0,-0.5,0.2,-0.7c0.1,-0.2,-0.5,0.6,-0.6,0.7c-0.1,0,-0.2,0.1,-0.1,-0.4c0.1,-0.5,0.2,-0.8,0.2,-0.8c0,0,-0.4,0.3,-0.4,0.7c-0.1,0.4,-0.3,0.5,-0.3,0.5c0,0,0.1,-1,0.2,-1.3c0.1,-0.2,0.3,-0.6,0.3,-0.7c0,-0.1,0.1,-0.5,0.2,-0.6c0,0,-0.5,0.3,-0.5,0.5c-0.1,0.2,-0.1,0.4,-0.3,0.6c-0.1,0.2,-0.5,0.7,-0.5,0.7c-0.1,0.1,-0.2,-0.4,-0.1,-0.7c0,-0.2,0.2,-0.8,0.4,-1c0.2,-0.2,0.1,0.2,0.1,0.2c0,0,0.3,-0.4,0.4,-0.5c0.1,0,0.4,-0.6,0.4,-0.6c0,0,-0.2,0.7,-0.1,0.6c0.1,-0.1,0.5,-0.5,0.5,-0.5c0,0,-0.3,0.9,-0.2,0.8c0.1,0,0.6,-0.6,0.8,-0.7c0.2,-0.2,0.4,-0.1,0.4,-0.1c0,0,-0.8,1.1,-0.8,1c0.1,0,1.1,-1,1.2,-1.1c0.2,0,0.2,0.3,0.2,0.3c-0.1,0,-1.1,1.1,-1.1,1c0,0,1.1,-0.6,1.3,-0.9c0.1,-0.2,0.2,-0.3,0.2,-0.3c0,0,-0.1,-0.3,0,-0.4c0.1,0,0.8,-0.4,1.6,-0.3c0.7,0.1,0.7,0,0.9,0c0.2,0,0.5,-0.2,0.5,-0.2c0,0,-0.7,-0.1,-1,-0.1c-0.3,0,0.6,0,0.8,-0.1c0.2,-0.1,-1.2,0,-1.4,-0.1c-0.2,-0.1,-0.5,-0.1,-0.8,0c-0.3,0.1,-0.6,0.3,-1,0.4c-0.4,0.1,-0.2,-0.1,-0.8,0c-0.6,0,-0.8,0.1,-1,0.2c-0.3,0.1,-0.8,0.4,-0.8,0.5c0,0.1,0.1,-0.2,0.3,-0.4c0.2,-0.1,-0.4,0.4,-1,0.5c-0.6,0.1,-0.6,0.4,-0.6,0.4c0,0,0,-0.4,0,-0.5c0.1,0,0.4,-0.1,0.8,-0.3c0.4,-0.2,0.6,-0.5,1,-0.6c0.5,0,1.3,-0.1,1.4,-0.1c0.1,-0.1,-0.8,-0.2,-1.1,-0.1c-0.3,0,-1.3,0.5,-1.5,0.6c-0.1,0.1,-0.6,0.3,-0.7,0.3c0,0.1,-0.4,0.3,-0.4,0.3c0,0,-0.1,-0.8,0.3,-1c0.3,-0.3,0.5,-0.8,0.6,-0.9c0.2,0,0.5,0,0.5,0c0,0,-0.2,-0.2,-0.8,0c-0.5,0.1,0.4,-0.4,0.5,-0.7c0.2,-0.3,-0.3,-0.2,-0.3,-0.2c0,0,-0.5,0.5,-0.7,0.8c-0.1,0.4,0.2,-0.8,0.4,-1c0.3,-0.3,0.5,-0.5,0.7,-0.8c0.2,-0.2,0.9,-0.3,0.9,-0.3c0,0,0.7,-0.2,0.8,-0.3c0.1,-0.2,-0.5,0,-0.3,-0.2c0.2,-0.2,0.5,-0.3,0.3,-0.3c-0.3,0,-0.7,0.4,-1,0.6c-0.4,0.1,0.1,-0.4,0.1,-0.4c0,0,0.3,-0.5,1.2,-0.5c0.9,0,1.1,-0.3,1.2,-0.3c0.2,0,0.1,0.1,0.7,0.3c0.7,0.2,1.1,0.2,1.1,0.2c0,0,-0.6,-0.3,-0.5,-0.3c0.1,-0.1,0.9,0,1.3,0.1c0.5,0,1.3,0.2,1.5,0.2c0.3,0.1,-0.6,-0.4,-0.8,-0.4c-0.2,-0.1,-1.4,-0.4,-1.7,-0.3c-0.4,0.2,-0.4,0.5,-0.8,0.3c-0.4,-0.2,-0.9,-0.4,-0.5,-0.5c0.4,-0.1,1,0,1.2,0c0.3,0,1.4,0.1,1.6,0.1c0.2,-0.1,-1,-0.3,-1.1,-0.3c-0.1,0,-0.8,-0.2,-1.4,-0.1c-0.6,0,-1.1,0.2,-1.4,0.3c-0.3,0.1,-1.2,0.5,-1.3,0.6c-0.1,0,0.5,-0.7,0.8,-0.8c0.3,-0.1,0.9,-0.8,1.9,-0.9c1.1,-0.1,1.8,-0.3,1.8,-0.3Z" class="g3_126" />
</g>
<path d="M127.2,118.5c0,-0.1,-0.3,0.3,-0.3,0.6c0,0.2,0.1,0.6,0.1,0.6c0,0,0,-0.3,0.1,-0.3c0.2,0,0.2,0.3,0.3,0.4c0.1,0.2,0.1,-0.1,0.1,-0.2c-0.1,-0.2,-0.5,-0.6,-0.3,-1.1Z" class="g3_126" />
<path d="M127,120.3c0.1,0,0.2,0.4,0.2,0.6c0,0.3,0.1,0.6,0.5,1c0.4,0.5,0.3,0.5,0.5,0.8c0.2,0.3,0.5,0.4,0.5,0.4c0,0,-0.3,-0.3,-0.4,-0.5c-0.2,-0.3,-0.9,-0.9,-1,-1.5c0,-0.6,-0.3,-0.8,-0.3,-0.8Z" class="g3_126" />
<g clip-path="url(#c0_126)">
<path d="M130.5,127.4c0,0,0.1,1.1,0.1,1.5c-0.1,0.4,0,0.7,-0.1,1c-0.2,0.2,-0.4,0.6,-0.7,0.7c-0.3,0.1,-0.3,0,-0.6,0.1c-0.3,0.1,-0.6,0.2,-1,0.4c-0.4,0.1,-1,0.3,-1.2,0.5c-0.3,0.1,-0.5,0.3,-1,0.4c-0.5,0,-0.8,0.2,-1.3,0.5c-0.4,0.2,-2,1.1,-2.4,1.3c-0.5,0.1,2.3,-1.1,2.4,-1.1c0.2,0,-2.9,2.1,-2.1,1.8c0.7,-0.3,2.4,-1.5,2.9,-1.8c0.5,-0.4,0.8,-0.5,1,-0.5c0.2,0,-0.2,0.9,-0.6,1.2c-0.4,0.3,-1.1,1.9,-1,1.8c0.1,-0.2,2,-2.9,2.3,-3.1c0.3,-0.2,0.7,-0.4,0.7,-0.3c0.1,0.1,-0.1,0.9,0,1.4c0.1,0.4,0.8,2.3,0.8,2.5c0.1,0.2,-0.2,-1.2,-0.1,-1.6c0.1,-0.5,0.2,-1,0.3,-0.7c0.2,0.2,1.3,3.1,1.7,3.6c0.4,0.6,1.3,1.7,1.3,1.7c0,0,-3.1,-4.9,-2.9,-6.3c0.1,-1.5,0.5,-1.4,1,-1.6c0.4,0,0.6,-0.2,0.8,-1c0.1,-0.2,-0.3,-2.4,-0.3,-2.4Z" class="g3_126" />
<path d="M140.6,128.7c0,0.2,0.5,1,1,1.2c0.5,0.3,1.3,0.2,1.6,0.4c0.3,0.1,1.1,0.4,1.7,0.6c0.6,0.1,2.5,0.5,2.5,0.5c0.1,0,-2.3,-0.3,-2.5,-0.2c-0.2,0.2,-0.2,0.7,-0.2,1c0,0.2,-0.2,-0.3,-0.4,-0.8c-0.2,-0.4,-0.6,-0.5,-0.6,0c0,0.5,-0.4,1.5,-0.7,2.1c-0.3,0.6,-1.5,1.5,-1.8,1.9c-0.3,0.5,-0.9,0.8,-0.9,0.8c0,0,1.4,-2.6,1.7,-3.2c0.2,-0.6,0.7,-2.3,0.5,-2.5c-0.2,-0.2,-1.2,-0.4,-1.6,-0.8c-0.3,-0.4,-0.3,-1,-0.3,-1Z" class="g3_126" />
</g>
<path d="M129.8,223.9c0,0,-0.1,-0.1,-0.1,-0.1c0,-0.1,0.1,-0.1,0.1,-0.1c0.1,0,0.1,0,0.1,0.1c0,0,0,0.1,-0.1,0.1m-0.2,-0.5c-0.7,0.1,-1,0.6,-1.3,0.7c0,0,0.3,0.1,0.4,0.1c0.1,-0.1,0.7,-0.7,0.7,-0.5c0,0.3,0.1,0.6,0.6,0.6c0.5,0,0.6,-0.5,0.6,-0.5c0,0,0.1,-0.1,0.4,0.4c-0.1,-0.6,-0.6,-0.9,-1.4,-0.8Z" class="g4_126" />
<path d="M135.4,223.6c-0.1,0,-0.1,-0.1,-0.1,-0.1c0,-0.1,0,-0.1,0.1,-0.1c0,0,0.1,0,0.1,0.1c0,0,-0.1,0.1,-0.1,0.1m1.4,0.1c-0.1,-0.2,-0.4,-0.6,-1.1,-0.7c-0.6,-0.1,-0.9,0,-1.2,0.3c-0.2,0.1,-0.7,0.8,-0.7,0.8c0,0,0.3,-0.1,0.5,-0.4c0.3,-0.4,0.7,-0.3,0.7,-0.3c0,0,-0.2,0.3,0.2,0.5c0.5,0.3,0.8,-0.1,0.8,-0.1c0,0,0.1,-0.1,0.2,-0.2c0.1,0,0.2,0.2,0.3,0.2c0.1,0,0.4,0.1,0.3,-0.1Z" class="g4_126" />
<path d="M130.6,222.9c0,0,-0.6,-0.4,-1.1,-0.5c-0.6,-0.1,-0.8,0,-1,0.1c-0.2,0.1,-0.6,0.5,-0.8,0.8l-0.1,0.2c0,0,0.5,-0.5,0.8,-0.6c0.4,-0.1,0.6,-0.3,1,-0.1c0.4,0.2,0.7,0.2,0.9,0.3c0.2,0,0.3,-0.2,0.3,-0.2Z" class="g4_126" />
<path d="M133.5,222.8c0,0,0.2,-0.5,0.6,-0.6c0.3,-0.2,1.3,-0.3,1.9,-0.2c0.5,0.2,1.2,0.7,1.2,0.7c0,0,-1.1,-0.4,-1.6,-0.3c-0.4,0.1,-0.7,0.1,-1.1,0.3c-0.4,0.2,-1.1,0.2,-1,0.1Z" class="g4_126" />
<path d="M130.9,223.5c0,-0.1,0.4,0.2,0.4,0.4c0,0.2,-0.1,1.1,-0.1,1.3c-0.1,0.1,0.1,-1.4,-0.3,-1.7Z" class="g4_126" />
<path d="M130.7,226.4c0,0,-0.3,0.6,-0.3,0.9c0,0.2,0.1,0.4,0.2,0.4c0.2,0,0.5,-0.1,0.6,-0.1c0.1,0,0.4,0.3,0.5,0.3c0.1,0.1,-0.3,0,-0.4,0c-0.2,-0.1,-0.1,-0.2,-0.4,-0.2c-0.2,0,-0.5,0.1,-0.5,-0.1c-0.1,-0.1,-0.1,-0.5,0.3,-1.2Z" class="g4_126" />
<path d="M132.2,227.7c0,0,0.1,-0.3,0.3,-0.3c0.2,0.1,0.7,0.1,0.7,0.1c0.1,0,-0.4,0.2,-0.3,0.2c0.1,0,0.6,-0.1,0.7,-0.3c0.2,-0.1,0.3,-0.6,0.3,-0.8c-0.1,-0.2,-0.2,-0.3,-0.2,-0.3c0,0,0.2,0.1,0.3,0.6c0,0.4,-0.4,0.7,-0.5,0.8c-0.1,0,-0.6,0.1,-0.7,0.1c-0.1,0,-0.2,-0.1,-0.3,-0.1c-0.1,0,-0.3,0,-0.3,0Z" class="g4_126" />
<path d="M135.2,229.3c0,0,-0.4,0.4,-0.7,0.5c-0.2,0.1,-0.3,0.2,-0.5,0.2c-0.3,0.1,-0.5,0.2,-0.9,0.2c-0.4,0.1,-0.8,0.1,-1.2,0.1c-0.3,-0.1,-0.3,-0.1,-0.5,-0.2c-0.2,-0.1,-0.3,-0.2,-0.3,-0.2c-0.2,-0.3,-0.1,-0.5,-0.1,-0.5c0,0,0.2,-0.1,0.6,-0.1c0.4,0,0.8,0.1,0.9,0.1c0.2,-0.1,1,-0.2,1.3,-0.3c0.3,0,0.9,0,1.2,0.1c0.2,0,0.2,0.1,0.2,0.1m0.5,-0.2c-0.7,0,-1.6,-0.5,-2.2,-0.5c-0.6,0,-0.6,0.3,-1.1,0.2c-0.6,-0.2,-1,0,-1.3,0c-0.3,0.1,-1,0.5,-1,0.5c0,0,0.5,0.6,0.7,0.8c0.3,0.1,0.8,0.4,1.1,0.4c0.3,0,1.2,0,1.6,-0.1c0.4,0,0.8,-0.2,1,-0.3c0.2,0,0.1,0,-0.1,0.1c-0.2,0.2,-0.6,0.4,-1.1,0.5c-0.5,0,-0.6,0.1,-1.1,0c-0.5,0,-0.7,0,-1,-0.2c-0.4,-0.1,-0.4,-0.3,-0.5,-0.3c-0.1,0.1,0.4,0.7,0.8,0.8c0.3,0.2,0.6,0.2,0.8,0.2c0.2,0,1.1,0,1.6,-0.2c0.4,-0.2,0.8,-0.7,1.1,-1c0.3,-0.3,1.1,-0.9,0.7,-0.9Z" class="g4_126" />
<g clip-path="url(#c1_126)">
<path d="M127.8,223.6c0,0,-0.1,0.7,-0.2,1.1c0,0.4,-0.1,1.1,-0.1,1.5c0,0.3,0.2,1.2,0.2,1.5c0,0.3,0.3,1.5,0.4,1.7c0.1,0.3,0.4,0.8,0.9,1.7c0.6,0.9,1.8,1.9,2.3,2.2c0.5,0.2,1.1,0.5,2.3,0.2c1.3,-0.2,2.5,-0.7,3.3,-1.4c-0.2,0.4,-1,0.9,-2,1.3c-1.1,0.4,-2.1,0.5,-3.2,0.3c-0.6,-0.2,-0.5,0.1,-0.6,0.6c-0.1,0.4,-0.2,1.2,-0.4,1.6c-0.3,0.4,-1.1,1.1,-1.4,1.2c-0.3,0.1,1.1,-0.8,1.3,-1.6c0.1,-0.4,-0.1,-0.8,-0.2,-1.3C130.3,233.7,130,233.4,130,233c0,-0.4,-0.6,-1,-0.6,-1c0,0,0.2,0.9,0.3,1.1c0,0.2,0.8,2.2,0.8,2.2c0,0,-0.8,-1.6,-0.9,-1.7c0,-0.1,0.7,2,0.8,2.1c0,0.1,-0.5,-0.6,-0.6,-1c-0.2,-0.4,0.1,1.1,0.1,1.3c0.1,0.1,-0.4,-0.6,-0.4,-0.8c0,-0.1,-0.2,0.5,-0.3,1.1c-0.2,0.6,0,1.3,-0.4,1.6c-0.3,0.4,-0.9,0.4,-0.9,0.4c0,0,0.8,-0.9,0.9,-1.8c0,-0.8,-0.1,-2.3,-0.1,-3c0,-0.8,-0.5,-2.1,-0.5,-2.1c0,0,0.4,3.7,0.3,4.3c-0.1,0.7,-0.3,1,-0.4,1.6c-0.1,0.5,-0.4,1.4,-0.5,1.5c-0.2,0.2,0,-2.3,0,-2.6c0,-0.3,0.1,0.7,0.2,0.6c0,-0.1,0,-1.6,0,-2.3c0,-0.7,-0.1,-0.8,-0.2,-1.4c0,-0.6,-0.2,-3.4,-0.2,-3.7c0.1,-0.4,0,-2.5,0,-2.5c0,0,0,4.8,-0.1,5.2c0,0.3,0,2.2,0,2.7c0,0.4,0,2.1,-0.1,2.6c0,0.5,0,2,0.1,2.3c0,0.2,0.2,2.4,0.2,2.9c0.1,0.6,0.1,2.4,-0.1,2.8c-0.1,0.3,0,-3,-0.1,-3.6c-0.1,-0.6,-0.3,-3.8,-0.3,-4c0.1,-0.3,-0.2,-1.2,-0.1,-1.6c0.1,-0.4,0.1,-2.1,0.1,-2.5c0.1,-0.4,0,-1.4,0.1,-1.7c0.1,-0.4,0.1,-2,0.1,-2.3c0,-0.4,-0.1,-1.8,-0.1,-1.8c0,0,-0.6,6.5,-0.7,7.9c-0.1,1.3,-0.2,2.2,-0.3,3c-0.1,0.8,-0.2,1.9,-0.3,2.4c-0.1,0.4,-0.1,1.8,-0.1,1.8c0,0,0.2,-5.1,0.2,-5.8c0.1,-0.8,0.2,-3.4,0.4,-4.1c0.1,-0.6,0.2,-3.1,0.4,-3.8c0.3,-0.8,0,-1.3,0.2,-2.3c0.2,-0.9,0.4,-2.8,0.4,-2.9c0.1,-0.2,0.4,-1.5,0.5,-2c0.1,-0.6,0.5,-1.7,0.7,-2.2c0.2,-0.5,0.3,-1.1,0.5,-1.5c0.2,-0.3,-0.5,1.9,-0.6,2.2c-0.1,0.3,-0.3,1.3,-0.3,1.3c0,0,0.7,-1.8,1.2,-2.4c0.4,-0.5,1.3,-1.2,1.7,-1.4c0.4,-0.2,0.7,-0.3,0.7,-0.3c0,0,-1.5,0.7,-2.2,1.7c-0.7,1.1,-1.2,2.3,-1.3,2.5c-0.2,0.3,-0.4,1.6,-0.4,1.6Z" class="g4_126" />
</g>
<path d="M132.7,216.8c0,0,-0.4,0,-0.8,0.3c-0.4,0.3,-0.5,0.1,-0.9,0.5c-0.4,0.5,-1,1,-1.4,1.3c-0.5,0.4,-0.6,0.7,-0.6,0.7c0,0,1,-1.2,1.2,-1.5c0.2,-0.4,1.1,-0.9,1.3,-1.1c0.2,-0.1,0.5,-0.4,0.4,-0.4c0,0,-0.4,0,-0.7,0.3c-0.3,0.3,-1.3,1.1,-1.3,1.1l1.1,-1.1l-1.2,1c0,0,1,-1.1,1.6,-1.5c0.7,-0.4,0.6,-0.5,0.4,-0.5c-0.2,0.1,-1.3,0.9,-1.7,1.2c-0.3,0.4,0.8,-0.8,1.1,-1.1c0.4,-0.3,-0.6,0.2,-0.6,0.2c0.1,-0.1,0.8,-1,1.3,-1c0.4,-0.1,0.7,0,0.9,-0.1c0.1,0,-0.1,0.3,-0.1,0.5c0,0.2,0.1,0.9,0,1c-0.1,0.2,0,0.2,0,0.2Z" class="g4_126" />
<path d="M132.9,215c0,0,-0.9,-0.2,-1.2,-0.1c-0.3,0.1,-0.9,0.6,-1.2,0.9c-0.3,0.3,-1,1.3,-1.2,1.6c-0.2,0.4,-0.5,0.5,-0.7,1.2c-0.3,0.6,-0.9,2.5,-1,2.9c0,0.4,-0.2,1.5,-0.4,1.9c-0.3,0.3,-0.4,0.3,-0.4,0.3c0,0,0.3,-1.5,0.4,-2c0.1,-0.6,0.4,-2.5,0.7,-2.9c0.2,-0.4,0.7,-1.8,0.9,-1.9c0.3,-0.2,-0.3,0.7,-0.4,1c0,0.3,0.9,-1.5,1.4,-1.9c0.6,-0.5,0.9,-0.8,1.2,-0.9c0.2,-0.1,-1,0.7,-1.4,1.4c-0.4,0.6,-0.9,1.5,-0.9,1.4c0.1,0,1.5,-2.3,2.7,-2.9c0.8,-0.5,1.5,0,1.5,0Z" class="g4_126" />
<g clip-path="url(#c1_126)">
<path d="M124.5,240.8c0,0,0.5,-2.1,0.7,-2.5c0.1,-0.4,0.5,-3.2,0.6,-3.8c0.1,-0.6,0.1,-1.3,0.2,-1.4c0,-0.2,0,-0.6,0.1,-1c0.1,-0.3,0,-1.3,0.1,-1.6c0.2,-0.3,0.4,-1.6,0.4,-2.1c0,-0.5,0,-1.6,0,-2.2c0.1,-0.7,0.1,-1.4,0.1,-1.4c0,0,-0.1,0.8,-0.3,1.3c-0.1,0.4,-0.1,0.9,-0.2,1.4c-0.1,0.5,-0.2,0.9,-0.2,1.4c0,0.6,-0.2,0.9,-0.2,1.5c0.1,0.6,0.1,0.8,-0.1,1.3c-0.1,0.5,-0.3,1.5,-0.4,2c-0.1,0.5,-0.4,2.2,-0.6,3c-0.2,0.7,-1.1,3.9,-1.2,4.3c-0.1,0.4,0,1.4,0.2,1.7c0.2,0.4,0.4,0.8,0.4,0.8c0,0,-0.6,-1.4,-0.3,-2.6c0.3,-1.1,0.7,-2.6,1,-3.3c0.3,-0.7,0.6,-3.3,0.8,-3.9c0.1,-0.5,0.1,0.9,0,1.6c-0.2,0.7,-1.1,5.5,-1.1,5.5Z" class="g4_126" />
<path d="M123.3,239.4c0,-0.1,0.6,-3.2,0.6,-3.6c0.1,-0.5,0.3,-2.7,0.7,-3.6c0.5,-0.8,0.7,-2.7,0.9,-3.3c0.2,-0.5,0.3,-1.6,0.4,-2c0.1,-0.3,0,-1.5,0.2,-2.2c0.2,-0.6,0.1,-2.4,0.3,-2.8c0.1,-0.3,0.2,-1.4,0.2,-1.6c0.1,-0.2,0.8,-1,0.8,-1c0,0,-0.5,1.2,-0.6,1.5c-0.1,0.2,0.4,-0.5,0.4,-0.4c0,0,0,1.1,-0.2,1.6c-0.3,0.6,-0.4,1.7,-0.5,2.3c-0.2,0.6,-0.1,1.4,-0.2,1.6c-0.1,0.2,-0.3,1.7,-0.4,1.9c-0.1,0.3,-0.3,2,-0.5,2.8c-0.1,0.7,-0.4,1.7,-0.6,2.1c-0.1,0.4,-0.5,2,-0.6,2.4c-0.1,0.5,-0.3,2.5,-0.5,3.1c-0.3,0.7,-0.4,1.2,-0.4,1.2Z" class="g4_126" />
</g>
<path d="M126.8,219.6c0,0,0.8,-1.8,0.9,-2.3c0.1,-0.4,1.2,-1.7,1.6,-2.1c0.4,-0.3,1,-0.5,1,-0.5c0,0,-0.9,0.7,-1.3,1c-0.3,0.3,-0.9,1.4,-1.2,1.8c-0.2,0.4,-0.2,0.5,-0.3,0.8c-0.2,0.4,-0.7,1.3,-0.7,1.3Z" class="g4_126" />
<path d="M131.5,214.5c-0.1,0,-0.5,0,-1,0.3c-0.5,0.3,-1.2,1,-1.4,1.2c-0.2,0.2,-0.5,0.6,-0.8,1.1c-0.2,0.5,-0.4,1.3,-0.4,1.3c0,0,0.7,-1.7,1.2,-2.3c0.5,-0.5,0.8,-0.8,1.3,-1c0.4,-0.2,1.1,-0.6,1.1,-0.6Z" class="g4_126" />
<path d="M129.9,214.5c0.2,-0.1,0.8,-0.3,1.1,-0.5c0.3,-0.2,0.5,-0.1,0.5,-0.1c0,0,-0.4,0.2,-0.6,0.4c-0.3,0.2,-1,0.2,-1,0.2Z" class="g4_126" />
<g clip-path="url(#c1_126)">
<path d="M133,214.3c0,0,-0.4,-0.6,-0.8,-0.7c-0.5,-0.1,-1,-0.1,-1.3,0c-0.2,0.2,0.2,-0.3,1,-0.2c0.8,0,0.8,0.1,1,0.3c0.1,0.1,-0.1,-0.6,-0.1,-0.6c0,0,0.2,0.2,0.2,0.3c0,0.1,0.3,0.4,0.5,0.4c0.1,0,0.7,0.1,0.9,0.2c0.2,0.1,0.6,0.4,0.6,0.4c0,0,-1,-0.3,-1.2,-0.3c-0.2,0,-0.4,0.1,-0.2,0.1c0.3,0.1,1.3,0.2,1.7,0.4c0.3,0.2,1.4,0.8,1.6,0.9c0.2,0.2,1.9,1.8,2.3,2.1c0.4,0.2,0.1,0,-0.1,-0.3c-0.2,-0.3,-0.8,-1,-0.8,-1c0,-0.1,0.6,0.2,1.5,1.4c0.8,1.3,1.4,3.2,1.5,3.9c0.2,0.6,0.3,1.1,0.3,1.6c0,0.4,0.2,3.1,0.2,3.7c0,0.5,0.2,2.6,0.2,3.1c-0.1,0.5,-0.1,1,-0.1,1c0,0,-0.3,-4.1,-0.3,-4.4c0,-0.2,-0.3,-1.9,-0.3,-2.1c0,-0.2,-0.1,-0.3,-0.3,-0.5c-0.3,-0.2,-1,-0.9,-1.1,-1.1c-0.2,-0.2,-0.8,-1.1,-0.8,-1.1c0,-0.1,0.4,0.3,0.9,0.6c0.5,0.3,1.2,0.5,1.2,0.5c0,0,-0.9,-0.6,-1.2,-0.8c-0.4,-0.2,-1.3,-1.3,-1.3,-1.5c-0.1,-0.1,1.1,0.9,1.2,0.9c0.1,0,-0.3,-0.7,-0.5,-0.8c-0.1,-0.2,-1,-0.7,-1.5,-1c-0.4,-0.3,-1.4,-0.7,-1.6,-1c-0.2,-0.3,-1.7,-1.1,-1.9,-1.3c-0.2,-0.2,-0.8,-0.7,-0.8,-0.7c0,0,1.4,1,1.7,1.1c0.2,0.1,0.9,0.6,1.3,0.9c0.4,0.3,0.8,0.4,1.3,0.7c0.5,0.2,0.9,0.4,1.2,0.7c0.3,0.3,0.8,0.6,0.9,0.7c0.2,0.1,0.7,0.5,0.7,0.5c0,0,-1.6,-1.5,-1.8,-1.6c-0.1,-0.1,-1.3,-0.6,-1.4,-0.7c-0.2,-0.1,-2.2,-1.5,-2.4,-1.7c-0.1,-0.1,-1,-0.9,-1.2,-1.1c-0.2,-0.1,0.1,-0.2,0.3,0c0.2,0.2,0.8,0.6,1.3,1c0.5,0.4,1.5,1.3,1.9,1.5c0.3,0.3,0.8,0.5,0.8,0.5L135.5,217c0,0,1.9,1.4,2.1,1.5c0.1,0.1,-2.2,-2,-2.5,-2.2c-0.2,-0.2,1.7,1.2,2.2,1.7c0.6,0.5,1.1,0.9,1.5,1.2c0.4,0.2,0.9,0.9,1.3,1.3c0.4,0.4,0.7,0.6,0.7,0.5c0,0,-0.9,-1.2,-1.1,-1.4c-0.2,-0.2,-2.5,-2.1,-2.6,-2.2c0,-0.1,2.1,1.5,2.8,2.2c0.6,0.7,0.7,0.7,0.4,0.3c-0.2,-0.4,-1.6,-1.7,-2.1,-2.3c-0.4,-0.5,1.1,0.9,1.2,1c0.2,0.1,0.7,0.7,0.7,0.7c0.1,0,-0.2,-1,-0.6,-1.3c-0.3,-0.2,-1.7,-1.6,-2.3,-2c-0.5,-0.4,-1.3,-0.9,-1.8,-1.1c-0.4,-0.2,-1,-0.3,-1.3,-0.3c-0.2,0,0.5,0.2,0.8,0.3c0.3,0.2,1.8,1,2.2,1.3c0.3,0.2,0.7,0.6,0.7,0.6c0,0,-2.4,-1.6,-3,-1.7C134.1,215,134,215,134,215c0.1,0,1,0.3,1.4,0.6c0.4,0.2,2.2,1.4,2.4,1.7c-0.3,-0.2,-1.9,-1.4,-2.1,-1.4c-0.1,0,1.5,1.1,1.6,1.3c0.2,0.2,-2,-1.5,-2.3,-1.6c-0.4,-0.2,-1.3,-0.6,-1.5,-0.6c-0.2,0,0,-0.3,0,-0.4c0,-0.1,-0.5,-0.1,-0.5,-0.1Z" class="g4_126" />
<path d="M139.7,222.9c0,0,0.4,1.2,0.4,1.6c0,0.4,0,1.1,-0.2,1.7c-0.1,0.6,-0.3,3.7,-1.4,4.9c-1.1,1.2,-1.3,1.4,-1.3,1.4c0,0,1.7,-1.2,2.1,-2.1c0.4,-0.9,0.5,-1.4,0.5,-1.4c0,0,-0.6,3,-0.7,3.4c-0.1,0.4,-0.1,2.7,-0.1,3.5c0,0.8,0.2,1.9,0.2,2.3c0,0.4,-0.1,1.6,0,2c0.2,0.4,0.3,0.7,0.3,0.7c0,0,-0.3,-1.7,-0.2,-2c0.1,-0.4,0.1,-0.4,0.2,-0.3c0.1,0.1,0.2,0.6,0.2,1c0,0.3,0,0.4,0,0.4c0,0,0.2,-0.9,0.3,-1.2c0,-0.3,0.5,-2,0.5,-2.2c0,-0.3,-0.6,1.7,-0.6,1.8c-0.1,0.1,0.2,-1.3,0.2,-1.4c0,-0.1,0.3,-1.2,0.4,-1.6c0,-0.4,0,-1.2,0.1,-1.3c0.1,-0.2,0.3,-1.7,0.2,-2.1c0,-0.4,0.4,-0.8,0.4,-1c0,-0.2,0,-2,0,-2.4c0.1,-0.4,0.3,-0.4,0.3,-0.7c0,-0.3,0,-0.8,-0.1,-0.8c0,0,-0.5,0.4,-0.6,0.5c-0.2,0.1,-0.6,0.1,-0.6,0c-0.1,0,-0.2,-0.7,-0.1,-1.2c0.1,-0.6,0,-0.8,0.1,-1.1c0.1,-0.3,0,-0.5,0.2,-0.4c0.2,0.1,0.5,0.3,0.6,0.4c0.2,0,0,-0.2,0,-0.4c-0.1,-0.2,0,-0.3,-0.2,-0.6c-0.1,-0.3,-1.1,-1.3,-1.1,-1.4Z" class="g4_126" />
</g>
<path d="M140.6,225.4c-0.1,0.1,0,0.2,-0.1,0.5c-0.1,0.3,-0.3,0.5,-0.1,0.5c0.2,-0.1,0.3,-0.3,0.5,-0.4c0.2,-0.2,0.3,-0.2,0.3,-0.2c0,0,-0.5,-0.5,-0.6,-0.4Z" class="g4_126" />
<g clip-path="url(#c1_126)">
<path d="M126.5,237.2c0,0.1,0.1,1.6,0.2,2.3c0,0.7,-0.2,2.7,-0.2,3c-0.1,0.4,-0.1,1.9,-0.2,2c0,0.2,0.4,-2.9,0.5,-3.1c0.1,-0.2,0.1,0.7,0.1,0.8c0,0.1,0,-2,0,-2.4c-0.1,-0.5,-0.4,-2.6,-0.4,-2.6Z" class="g4_126" />
<path d="M134.5,213.4c0,0,0.7,-0.1,1.4,0.2c0.6,0.2,0.8,0.2,1.6,0.7c0.7,0.4,0.7,0.7,1.3,1c0.7,0.4,1.1,0.8,1.6,1.3c0.5,0.6,1.4,1.8,1.6,2c0.1,0.3,-1.7,-2.1,-2.2,-2.3c-0.5,-0.2,1.5,1.3,2.7,3.7c1.2,2.4,1.2,3.2,1.3,3.8c0.1,0.6,0.7,2.9,0.7,4.1c0,1.2,0.3,2.3,0.6,3.4c0.2,1.1,0.4,2.7,0.4,2.7c0,0,-0.8,-3,-1,-2.9c-0.2,0.1,0.2,1.7,0.3,2.2c0.1,0.5,0.5,1.2,0.5,1.6c0,0.3,-0.6,-1.3,-0.7,-1.4c-0.2,-0.1,0.3,3.7,0.3,4.5c0,0.8,0.4,4.5,0.4,4.9c0,0.5,0.1,2.6,0.1,3.2c0,0.5,-0.1,1.1,-0.2,1.9c-0.1,0.7,-0.2,1.5,-0.2,1.4c0,-0.1,-0.2,-3.4,-0.1,-3.8c0.2,-0.5,0.1,-3.1,0,-3.7c-0.1,-0.7,-0.5,-3.4,-0.6,-4.1c0,-0.7,0.4,4.6,0.4,5.1c-0.1,0.5,-0.3,2.7,-0.3,3.4c0.1,0.8,-0.1,1.2,-0.1,2.6c0.1,1.5,0.1,2.7,0,3.4c-0.1,0.6,-0.3,2.6,-0.3,2.6c0,0,-1.5,-5,-0.9,-7.5c0.6,-2.5,0.8,-2.9,0.8,-3.4c0.1,-0.4,0.3,-3.3,0.3,-3.3c0,0,-0.5,-1.6,-0.6,-1.8c0,-0.2,0.3,2.1,0.2,2.5c-0.1,0.4,-0.2,1.9,-0.1,1.8c0,-0.1,-0.2,-4.3,-0.2,-4.4c0,-0.1,0,6.2,-0.2,6.5c-0.1,0.4,-0.1,-5.3,-0.1,-5.5c-0.1,-0.3,-0.1,5.2,-0.1,5.2l-0.2,-4.8c0,0,0.4,-1.5,0.5,-2.7c0.1,-1.2,0,-3.8,0.1,-4.7c0.1,-1,0,-2.4,0,-4.7c0,-2.4,-0.3,-4.2,-0.4,-4.9c-0.1,-0.7,0,-1.6,-1.9,-4.8c-1.9,-3.1,-2.7,-3,-3.4,-3.7c-0.8,-0.6,-1.5,-0.8,-2,-1c-0.4,-0.2,-1.3,-0.3,-1.3,-0.3Z" class="g4_126" />
<path d="M137.3,214.8c0.1,0,1.1,0.6,2.5,2.4c1.6,2,1.7,3.1,1.9,3.7c0.2,0.6,0.6,1.5,0.6,3.3c0.1,1.7,0.4,4.2,0.3,5.4c-0.1,1.2,-0.2,2.8,-0.1,3.9c0.2,1.2,0.3,3.7,0.3,4.5c-0.1,0.7,-0.1,3.6,-0.7,4.8c-0.6,1.2,-0.8,2.2,-0.8,2.2c0,0,0.8,-4.2,0.8,-4.7c0.1,-0.4,0.3,-3.6,0.2,-4.2c-0.1,-0.6,-0.2,-3.5,-0.2,-4.2c0,-0.7,-0.1,-6.3,-0.1,-7c-0.1,-0.6,-0.4,-3.4,-0.6,-4.1c-0.3,-0.8,-0.8,-2.5,-2.2,-4.1c-1.4,-1.6,-1.9,-1.9,-1.9,-1.9Z" class="g4_126" />
<path d="M141.5,228.6c0,0.1,0,2.6,-0.1,3.3c-0.1,0.7,0,2,0,2.8c0.1,0.8,0.3,1,0.3,1.7c0.1,0.7,-0.2,3.4,-0.4,4.1c-0.2,0.6,0.7,-2.9,0.7,-4c0.1,-1.1,0,-3.3,-0.1,-4c0,-0.7,-0.1,2.4,-0.2,2.5c0,0.1,0,-3.7,0,-4.2c0,-0.6,-0.2,-2.2,-0.2,-2.2Z" class="g4_126" />
<path d="M138.8,243.9c0,-0.1,0.8,-2.4,1.1,-4c0.4,-1.7,0.6,-2.4,0.6,-2.5c0,-0.2,0.3,1.6,0.4,2.2c0,0.6,0.1,0.8,0.1,2.1c-0.1,1.4,-0.8,3.1,-1.2,3.7c0.5,-1.2,1,-2.5,1,-3.4c0,-0.8,-0.2,-1.2,-0.2,-1.2c0,0,-0.1,2.1,-0.2,2.5c-0.1,0.4,-0.3,-1.5,-0.3,-1.9c0,-0.4,-0.5,0.7,-0.6,1c-0.1,0.2,-0.7,1.5,-0.7,1.5Z" class="g4_126" />
<path d="M137.5,249.8c-0.1,0.1,1.2,-1.5,1.5,-2.2c0,-0.2,-0.6,0.4,-1,0.6c0.3,-0.2,0.7,-0.5,1.4,-1.5c0.7,-1,0.6,-1,0.9,-1.6c0.3,-0.6,0.8,-2.8,0.9,-3.1c0.1,-0.2,0.8,-3.1,0.8,-3.1c0,0,-0.4,2.8,-0.7,3.7c-0.3,0.9,-0.7,2.2,-0.9,2.7c-0.2,0.4,-2.2,4.1,-2.9,4.5Z" class="g4_126" />
<path d="M129.6,236.9c0,0,0.9,1.4,1.5,2c0.7,0.6,1.8,1,2.7,1c0.9,0,2.4,-0.2,3.8,-0.9c1.4,-0.7,1.9,-1.3,2.1,-1.3c0.1,0,0.1,0.6,-0.2,0.9c-0.4,0.3,-1.6,1.3,-2.4,1.6c-0.9,0.3,-2.9,0.8,-4.4,0.2c-1.6,-0.6,-3.2,-2.3,-3.5,-2.9c-0.4,-0.6,0.2,0.3,0.6,0.5c0.5,0.6,-0.2,-1.1,-0.2,-1.1Z" class="g4_126" />
<path d="M142.4,243c-0.1,0.1,-0.3,0.7,-0.6,1.3c-0.4,0.7,-0.8,1.3,-1,2.2c-0.1,0.9,0,1.8,-0.3,2.5c-0.3,0.6,0.5,-1.4,0.7,-1.9c0.2,-0.6,0.5,-0.2,0.5,0.8c0,0.9,-0.7,1.4,-0.7,2.5c0.1,1,0.3,1.6,0.4,2.7c0.1,1.1,0.2,1.6,0.2,1.6c0,0,0.8,-1.5,0.7,-2.5c-0.1,-1,-0.2,-4.1,-0.2,-4.6c-0.1,-0.6,-0.5,-1.9,-0.3,-2.5c0.2,-0.6,0.2,0,0.3,0.4c0.1,0.3,-0.1,-1.3,0.1,-1.6c0.1,-0.3,0.3,0.4,0.3,1c0,0.7,0.2,2.5,0.2,2.5c0,0,0.1,-2.6,0.1,-3.3c0.1,-0.8,0,-2.8,0,-2.8c0,0,-0.1,1.1,-0.4,1.7Z" class="g4_126" />
<path d="M146.1,238.6c0.1,0.1,0.8,0.3,1.7,0.8c1.3,0.7,2.6,1.8,2.9,2.2c0.5,0.5,1.8,2.5,2.1,4.3c0.2,1.2,0,2.3,0,2.3c0,0,-0.2,-3.4,-2.4,-6.3c-1,-1.3,-2,-1.7,-2.5,-2.1c-0.6,-0.3,-1.7,-0.6,-1.8,-0.4c-0.2,0.1,0.1,2.2,0,3c-0.1,0.7,-0.4,2.6,-0.4,2.6c0,0,-0.4,-5.1,-0.3,-6.2c0,-1.2,-0.3,-3.5,-0.3,-3.5Z" class="g4_126" />
<path d="M125.6,238c-0.3,0.1,-2.4,0.5,-3,0.8c-0.5,0.3,-2.3,1.5,-2.9,2.4c-0.6,0.8,-1.4,3.3,-1.4,3.3c0,0,0.9,-3,2.2,-3.8c1.3,-0.9,1.6,-1.6,2.7,-1.7c1.1,-0.2,2.4,-1,2.4,-1Z" class="g4_126" />
</g>
<path d="M134.5,420.8c0,0,0.1,-0.3,-0.3,-0.6c-0.5,-0.2,-1,-0.5,-2.2,-0.4c-1.2,0,-1.4,0.4,-1.4,0.4c0,0,0.7,-0.1,1.1,-0.1c0.4,0.1,0.9,0.1,1.4,0.4c0.6,0.3,1.1,0.5,1.4,0.3Z" class="g5_126" />
<path d="M139,420.8c0,0,-0.8,-0.1,-1.2,-0.1c-0.4,0.1,-0.6,0.2,-0.5,0.4c0.1,0.2,0.5,0.3,1.2,0.3c0.6,0,0.6,0,0.7,0c0.1,0,-0.2,-0.6,-0.2,-0.6Z" class="g5_126" />
<path d="M132.7,421.8c-0.1,0,-0.1,-0.1,-0.1,-0.2c0,-0.1,0,-0.1,0.1,-0.1c0.1,0,0.1,0,0.1,0.1c0,0.1,0,0.2,-0.1,0.2m0.4,-0.5c-1,-0.4,-1.9,0.2,-1.9,0.2l0.4,0.1c0,0,0.1,-0.1,0.4,-0.2c0.2,0,0.4,0,0.4,0c0,0,-0.2,0.5,0.2,0.6c0.5,0.2,0.6,0.1,0.7,-0.1c0.1,-0.2,0,-0.3,0,-0.3c0,0,0.4,0.1,0.7,0.7c0,0,0.1,-0.6,-0.9,-1Z" class="g5_126" />
<path d="M138.4,422.6c-0.1,0,-0.1,0,-0.1,-0.1c0,-0.1,0,-0.1,0.1,-0.1c0.1,0,0.1,0,0.1,0.1c0,0.1,0,0.1,-0.1,0.1m0.7,-0.3c0,0,-0.3,-0.2,-0.8,-0.1c-0.5,0,-1,0.7,-1,0.7l0.3,-0.1c0,0,0,-0.2,0.4,-0.4c0,0.2,-0.1,0.4,0.4,0.5c0.4,0.1,0.5,0,0.6,-0.1c0,-0.2,0,-0.4,0,-0.4Z" class="g5_126" />
<path d="M136.7,421.9c-0.1,0.1,-0.7,1.1,-0.8,1.7c-0.1,0.7,-0.2,1.4,-0.1,1.6c0.2,0.3,0.4,0.7,0.4,0.8c0,0.2,0.3,0,0.3,-0.1c0,0,0.1,-0.5,0.2,-0.5c0.1,0.1,0.3,0.5,0.3,0.6c-0.1,0.1,0,0.5,-0.2,0.5c-0.2,0.1,-0.3,-0.1,-0.6,0c-0.2,0,-0.3,0.1,-0.5,0.2c-0.2,0.1,-0.6,0.2,-0.7,0.1c-0.2,-0.1,-0.4,-0.5,-0.7,-0.6c-0.3,-0.1,-0.4,0,-0.4,0c0,0,0.2,0.1,0.4,0.2c0.3,0.2,0.6,0.5,0.9,0.5c0.3,0,0.8,-0.2,1.1,-0.2c0,0,0.2,0,0.5,0c0.2,0,0.5,-0.5,0.3,-1c-0.2,-0.5,-0.3,-0.4,-0.5,-0.7c-0.2,-0.4,-0.3,-1.1,-0.2,-1.6c0,-0.5,0.3,-1.5,0.3,-1.5Z" class="g5_126" />
<path d="M133,425.5c-0.1,0.1,-1,0.6,-1.4,0.9c-0.4,0.3,-0.6,0.4,-0.5,0.8c0.1,0.3,0.3,0.8,0.3,0.8c0,0,-0.6,-1,-0.6,-1.2c0.1,-0.2,2.2,-1.3,2.2,-1.3Z" class="g5_126" />
<path d="M135,429c-1,-0.1,-1.2,-0.4,-1.5,-0.6c-0.3,-0.2,-0.9,-0.8,-0.9,-0.8c0,0,2,0.6,2.3,0.6c0.3,0,0.8,0,1.3,0.1c0.5,0,0.6,0.1,0.6,0.1c0,0,-0.8,0.6,-1.8,0.6m2.4,-0.9c-0.1,0,-0.5,0,-1,-0.1c-0.5,-0.1,-0.8,-0.3,-1,-0.3c-0.1,0,-0.4,0,-0.6,0c-0.3,0,-0.6,-0.2,-0.8,-0.2c-0.2,0,-1.1,-0.1,-1.4,-0.1c-0.3,0,-0.7,-0.4,-0.8,-0.4c0,0,0.6,1.4,1.1,1.7c0.4,0.4,1,0.7,1,0.7c0,0,-0.1,-0.1,-0.3,-0.3c-0.2,-0.1,0.3,0,0.2,-0.1c-0.1,-0.1,-0.5,-0.2,-0.6,-0.2c-0.1,-0.1,0.2,-0.2,0.5,0c0.3,0.1,0.3,0.1,0.5,0.2c0.2,0.1,0.1,0.2,0.1,0.4c0.1,0.1,-0.3,0.2,0.1,0.2c0.4,0,1.3,0,1.8,-0.2c0.5,-0.2,0.7,-0.5,0.9,-0.9c0.2,-0.3,0.4,-0.5,0.3,-0.4Z" class="g5_126" />
<path d="M133.8,432c0,0,0.5,0.2,1.4,0c0.8,-0.2,3,-2,3,-2c0,0,0.1,0.1,0,0.5c0,0.3,-0.2,0.2,-0.1,1.1c0.2,0.8,0.3,1.2,0.4,1.4c0,0.2,0,0.4,-0.1,0.5c-0.2,0.1,0,-0.6,-0.3,-1c-0.3,-0.4,-0.1,-0.6,-0.6,-0.7c-0.5,0,-0.6,-0.1,-0.9,0.1c-0.3,0.2,0,0.2,-0.9,0.4c-0.9,0.1,-1.8,-0.1,-1.9,-0.3Z" class="g5_126" />
<g clip-path="url(#c2_126)">
<path d="M123.2,435.1c-0.1,0.1,0.5,-0.8,0.6,-0.6c0.2,0.2,0.1,0.1,0.5,1.4c0.4,1.3,1.6,4.7,5.5,4.9c3.9,0.2,7.3,-1.3,7.3,-1.3c0,0,-5.4,1.7,-8.3,0.8c-2.8,-1,-3.2,-2.3,-3.5,-3c-0.3,-0.8,-0.6,-1.4,-0.9,-2c-0.3,-0.6,-0.5,-1.6,-1.2,-0.2Z" class="g5_126" />
<path d="M144.9,433.6c0.2,0,0.4,0.2,0.4,0.4c0,0,-0.5,0.2,-0.9,0.5c-0.4,0.3,-1.5,2,-2.5,2.8c-0.9,0.8,-1.7,2,-3.7,2.9c-2,0.9,-3.4,1.2,-3.5,1.2c-0.1,0,4.3,-1.5,6.1,-3.3c1.7,-1.7,2.3,-2.7,2.8,-3.2c0.5,-0.5,1.3,-1.3,1.3,-1.3Z" class="g5_126" />
<path d="M122.3,434.9c-0.4,0.2,-0.3,0.3,-1,0.5c-0.6,0.2,-2.5,2.3,-2.7,4.9c-0.3,2.5,0.6,-0.9,1,-0.6c0.3,0.2,0.6,0.4,0.9,1c0.3,0.5,1.6,1.4,1.4,0.7c-0.2,-0.7,-0.8,-1.8,-0.1,-2.3c0.7,-0.6,0.5,-1.8,1,-2c0.5,-0.2,1.1,0.5,1.3,1.1c0.2,0.6,1.1,1.3,1,1.2c-0.1,-0.1,-1.2,-2.4,-1.4,-3.1c-0.2,-0.7,-0.4,-0.9,-0.6,-1.1c-0.3,-0.1,-0.8,-0.3,-0.8,-0.3Z" class="g5_126" />
<path d="M144.9,438.1c-0.9,1.4,-1.3,3.7,-1.3,3.7c0,0,0.9,-2.8,1.6,-3.7c0.8,-0.9,1.7,-2.1,2.4,-2.3c0.7,-0.2,1.2,-0.2,1.6,0.5c0.4,0.7,0.9,2.2,0.9,2.5c0,0.3,0,-0.4,0.2,-0.6c0.2,-0.2,0.1,-0.3,-0.2,-0.9c-0.3,-0.5,-0.8,-2.1,-2.3,-2.4c-1.5,-0.4,-1.9,-0.5,-2.3,-0.4c-0.4,0.2,-1.4,1,-2.5,2.3c-1.1,1.3,1.4,-1.2,2.4,-1.6c1.1,-0.4,2.7,-0.3,2.4,0c-0.3,0.3,-2,1.6,-2.9,2.9Z" class="g5_126" />
</g>
<path d="M125.4,435.1c0,0,1.3,-0.2,3.6,-1.9c2.3,-1.6,1.7,-1.2,1.7,-1.6c0.1,-0.5,0,1.9,-2.3,2.6c-2.2,0.8,-3,0.9,-3,0.9Z" class="g5_126" />
<g clip-path="url(#c2_126)">
<path d="M143.3,428.6c-0.1,-0.1,-0.1,-0.1,-0.2,-0.1c-1.2,-0.5,-0.9,-0.8,-1.6,-1.7c-0.7,-0.8,-1.1,-2.5,-2,-4.9c-0.8,-2.5,-1.3,-2.9,-1.3,-2.9c-0.4,-0.8,-2.1,-3.2,-1.9,-3.1c0.1,0.2,2.9,3.3,3.4,5.7c0.6,2.3,2.2,4.8,2.8,6.1c0.2,0.4,0.5,0.7,0.8,0.9c0.9,0.4,1.2,0.4,1.2,0.4c0,0,-0.6,0,-1.2,-0.4m-8.8,-16c0.1,-0.1,1.7,0,3.3,1.2c1.6,1.1,2,1.2,3.3,3.2c1.3,1.9,-0.1,0.2,-1.8,-1.6c-2.2,-2.3,-4.8,-2.8,-4.8,-2.8m2.2,-1.3c0.9,0.1,2.2,0.7,2.5,1c0.6,0.4,1.1,1,1.7,1.7c0.6,0.6,1.1,1.3,1.9,2.8c0.8,1.5,1.7,4.1,2.1,6c0.3,1.4,0.7,2.6,0.8,3c0,0.1,0.1,0.2,0.1,0.2c0,0,-0.1,-0.1,-0.1,-0.2c-0.3,-0.8,-1.5,-4.3,-1.7,-5.2c-0.3,-1.1,-1.6,-4.2,-2.6,-5.5c-1,-1.3,-1.8,-2.1,-2.8,-2.6c-0.9,-0.6,-3.4,-1.2,-3.4,-1.2c0.1,-0.2,0.7,-0.1,1.5,0m-6.1,4.1c-0.6,0.4,-0.9,0.9,-1.8,2c-0.8,1.2,-1.1,5.8,-1.1,6.3c-0.1,0.3,-0.7,2,-1.2,3.2c-0.1,0.6,-0.2,1,-0.4,1.3c-0.1,0.1,0.1,-0.5,0.4,-1.3c0.1,-0.3,0.2,-0.7,0.3,-1.1c0.3,-1.2,0.5,-2.9,0.5,-2.9c0,0,-0.4,0.9,-1,1.4c-0.6,0.6,-1.7,1.7,-1.7,1.7c-0.1,0,0.4,-0.6,0.9,-1.3c0.6,-0.7,1.8,-2.2,2,-3.2c0.2,-1,0.4,-2.9,0.1,-2.2c-0.2,0.4,-1,1.6,-1.4,2.3c-0.1,0.2,-0.2,0.4,-0.2,0.4c-0.1,0.1,0,-0.1,0.2,-0.4c0.3,-0.5,0.7,-1.5,1,-2.2c0.4,-1.1,0.3,-1.9,0.7,-2.7c0.4,-0.8,0.9,-1,1.4,-1.5c0.5,-0.6,1,-0.6,1.1,-0.5c0,0,-0.1,0.4,-0.6,0.7c-0.5,0.4,-0.6,0.5,-0.8,0.8c-0.2,0.3,-0.7,1.9,-0.7,1.9c0,0,0.2,-0.4,0.6,-1.2c0.5,-0.9,1.9,-1.8,1.7,-1.5M124.8,430c-0.3,-1.5,-0.5,-1.9,-0.5,-2.1c0.1,-0.2,0.4,-0.4,0.5,-0.6c-0.1,0.1,-0.2,0.4,-0.2,0.8c0.1,0.6,0.1,1.6,0.6,2.4c0.2,0.3,0.5,0.7,0.9,1.2C125.7,431.5,125,431,124.8,430m19.5,1.2c0.4,-0.2,1.9,-3.1,1.8,-5.3c-0.1,-2.2,-1.6,-8,-2.6,-10.3c-1.1,-2.3,-3.2,-4.5,-4.7,-5.1c-1.5,-0.5,-3.3,-0.2,-3.6,-0.2c-0.3,0,-1.4,-0.2,-1.8,-0.1c-0.3,0.1,-1.1,0.1,-1.9,0.4c-0.7,0.3,-3.2,2.1,-4.4,4.6c-1.2,2.6,-1,5.3,-1.2,6c-0.2,0.6,-1.3,1.7,-1.3,2.7c0,0.9,-0.2,1.2,-0.4,1.9c-0.1,0.7,-0.7,1.8,-0.4,3.1c0.3,1.2,0.5,2.2,1.6,2.6c0.3,0.1,0.6,0.2,0.7,0.2c0.5,0.7,1.1,1.3,1.3,1.4c0.5,0.1,1,0.3,1.6,0.1c0.7,-0.1,1.6,-0.9,1.7,-1c0.1,-0.2,0,-0.6,0,-1.1c0.1,-0.5,-0.2,-1.9,-0.2,-1.9c0,0,-1.3,-1.8,-1.5,-3.1c-0.2,-1.4,-0.2,-6.7,0.5,-8c0.7,-1.3,1.1,-2.4,2.2,-2.9c1.2,-0.6,1.3,-1,1.3,-1.3c0,-0.2,0,-0.3,0,-0.4c0.1,0.2,0.2,0.5,0.5,0.7c0.5,0.4,1,0.7,2.2,1.9c1.2,1.3,2.4,2.9,2.8,3.9c0.3,1.1,0.5,1.8,0.8,2.9c0.3,1.2,0.5,2.9,1.2,3.9c0.3,0.5,-1.9,2.7,-1.9,2.7l0,1.5c0,0.6,0.1,1.1,0.3,1.3c0.3,0.2,0.1,0.4,-0.1,0.7c-0.2,0.3,-0.3,0.8,-0.2,1.3l0.1,0.5c0,0,0,-0.2,0.7,-0.3c0.8,0,1.7,-0.8,1.7,-0.8c0,0,0.4,0.7,0.9,1c0.4,0.3,1,0.3,1,0.3c0,0,-1,-0.6,-1,-0.9c0,-0.3,0.7,-0.3,1,-0.1c0.4,0.1,0.6,0.1,1,0c0.3,-0.1,0.6,-0.3,0.6,-0.3c0,0,-0.6,-1,-0.6,-1.4c-0.1,-0.4,0,-0.8,0.3,-1.1Z" class="g5_126" />
</g>
<path d="M134.6,481.7c-0.1,0,-0.2,0,-0.2,-0.1c0,-0.1,0.1,-0.1,0.2,-0.1c0.1,0,0.1,0,0.1,0.1c0,0.1,0,0.1,-0.1,0.1m0.4,-0.3c-0.1,-0.1,-0.6,-0.1,-0.8,-0.1c-0.2,0,-1.1,0.3,-1.1,0.3c0,0,0.2,0.1,0.2,0.1c0,0,0.5,-0.2,0.5,-0.2c0,0,-0.1,0.5,0.4,0.6c0.5,0.1,0.7,-0.2,0.8,-0.5c0,-0.2,0.8,0.4,0.9,0.6c-0.1,-0.1,-0.7,-0.7,-0.9,-0.8Z" class="g6_126" />
<path d="M135.9,482.2c0.1,0,0.1,0,0.1,0l-0.1,0Z" class="g6_126" />
<path d="M140.9,482c-0.1,0,-0.1,-0.1,-0.1,-0.2c0,0,0,-0.1,0.1,-0.1c0.1,0,0.2,0.1,0.2,0.1c0,0.1,-0.1,0.2,-0.2,0.2m1.3,-0.1c0,0,-0.6,-0.2,-0.9,-0.3c-0.3,-0.1,-0.6,-0.1,-1,0.1c-0.3,0.1,-1,0.7,-1,0.7c0,0,0.8,-0.7,0.9,-0.5c0.1,0.2,0.1,0.5,0.7,0.5c0.6,-0.1,0.4,-0.6,0.4,-0.6c0,0,0.1,0,0.4,0c0.2,0.1,0.5,0.1,0.5,0.1Z" class="g6_126" />
<path d="M136.6,481.1c0.1,-0.1,0.3,-0.6,-0.2,-0.9c-0.6,-0.3,-1.6,-0.4,-2.1,-0.4c-0.4,0,-1.4,0.2,-1.6,0.3c-0.3,0.1,-0.6,0.5,-0.6,0.5c0,0,0.9,-0.2,1.3,-0.2c0.5,0.1,1,0.1,1.5,0.2c0.6,0.2,1.2,0.5,1.4,0.5c0.2,0.1,0.3,0,0.3,0Z" class="g6_126" />
<path d="M139.1,481.1c0,0,0.1,-0.8,0.9,-1c0.8,-0.1,1.9,-0.3,2.2,-0.1c0.4,0.1,0.9,0.4,1,0.9c-0.1,-0.1,-0.6,-0.3,-1.2,-0.3c-0.6,0,-1.7,0.3,-2,0.5c-0.4,0.1,-0.8,0.2,-0.9,0Z" class="g6_126" />
<path d="M136,484.8c-0.1,0,-0.6,0.4,-0.7,0.7c-0.1,0.4,0,0.6,0.1,0.7c0.1,0.1,0.5,0.2,0.8,0.2c0.3,-0.1,0.8,0,1,0c0.1,0,0.3,0.3,0.4,0.3c0,0.1,0.5,0.1,0.6,0c0.2,-0.1,0.3,-0.2,0.5,-0.3c0.2,0,0.5,0,0.8,0c0.3,0,0.4,0,0.3,0.1c0,0,-0.4,0.1,-0.6,0.1c-0.1,0,-0.5,0,-0.6,0c-0.1,0.1,-0.4,0.3,-0.5,0.3c-0.2,0.1,-0.4,0.2,-0.9,-0.2c-0.5,-0.3,-0.7,-0.2,-1.2,-0.2c-0.5,-0.1,-0.9,-0.2,-0.9,-0.6c0,-0.6,0.9,-1.1,0.9,-1.1Z" class="g6_126" />
<path d="M139.3,484.5c0,0,0,0.2,0.1,0.4c0.1,0.2,0.4,0.4,0.6,0.5c0.1,0.2,0.1,0.4,0.1,0.4c0,0.1,0.1,-0.2,0,-0.5c-0.2,-0.2,-0.5,-0.4,-0.6,-0.5c-0.1,-0.2,-0.2,-0.3,-0.2,-0.3Z" class="g6_126" />
<path d="M133.8,487.8c0,0,1.8,-0.3,3,-0.3c0.8,0.1,1.5,0.1,1.7,0c0.2,-0.1,2,0.4,2,0.4c0,0,0,0.2,-0.2,0.3c-0.1,0.2,-0.5,0.3,-0.7,0.3c-0.1,0,-1.3,-0.1,-1.7,-0.1c-0.3,0,-1,-0.2,-1.5,-0.1c-0.4,0,-1.3,0,-1.5,-0.1c-0.2,-0.1,-0.7,-0.2,-0.7,-0.2c0,0,0.5,0.3,0.9,0.5c0.4,0.3,1.8,0.7,2.2,0.9c0.3,0.1,0.7,-0.1,1.1,-0.2c0.3,-0.2,0.2,-0.2,0.7,-0.3c0.5,-0.1,0.9,-0.3,0.9,-0.3c0,0,0.2,0.1,-0.1,0.3c-0.2,0.3,-0.5,1.2,-1.6,1.4c-1,0.2,-1.9,0,-2.8,-0.6c-0.8,-0.7,-1,-1.1,-1,-1.1c0,0,1.3,1.2,2.1,1.4c0.9,0.1,1.2,0.1,1.7,-0.1c0.5,-0.1,0.9,-0.4,0.8,-0.5c0,-0.1,0.1,-0.1,-0.6,0.1c-0.6,0.2,-1,0.4,-1.8,0.2c-0.8,-0.2,-1.3,-0.6,-1.6,-0.8c-0.2,-0.1,-0.9,-0.8,-1.3,-1.1Z" class="g6_126" />
<path d="M140.5,486.9c0,-0.1,0.3,0.5,0.5,0.7c0.2,0.3,0.2,0.4,0.2,0.4c0,0,0.2,-0.2,0.1,-0.4c-0.1,-0.1,-0.5,-0.6,-0.8,-0.7Z" class="g6_126" />
<path d="M134.3,486.5c0.1,0,-0.7,0.7,-0.8,0.8c0,0.1,0,1.1,0.1,1.2c0,0.1,-0.2,-1.1,0.7,-2Z" class="g6_126" />
<g clip-path="url(#c3_126)">
<path d="M129.3,479.7c-0.1,0,0.4,0.3,0.5,0.4c0,0,0.1,-0.3,0,-0.4c0,-0.1,-0.3,-0.5,-0.3,-1c0,-0.4,0,-1.6,-0.1,-1.9c0,-0.3,0.2,-2.4,0.6,-3.1c0.4,-0.8,0.9,-1.4,1,-1.7c0.2,-0.2,1.8,-1.4,3,-1.8c1.3,-0.3,2.3,-0.6,3.8,-0.3c1.5,0.3,2.7,0.7,3.1,1c0.5,0.4,1.6,1.6,2,2c0.3,0.4,0.3,0.5,0.6,0.8c0.3,0.4,0.5,1.6,0.5,1.9c0,0.3,0,1.7,0,1.9c-0.1,0.1,-0.1,0.6,-0.2,1.1c-0.1,0.5,-0.2,1.1,-0.2,1.5c0.1,0.3,-0.2,1.1,-0.2,1.1c0,0,0,-1,0,-1.3c0,-0.3,0,-2.1,-0.1,-2.5c-0.1,-0.3,0,-0.6,0,-0.9c0,-0.2,0,-0.7,-0.1,-1c0,-0.3,-0.1,-1.1,-0.4,-1.4c-0.3,-0.3,-0.6,-0.4,-0.7,-0.4c-0.2,0.1,-0.1,0.3,-0.4,0.2c-0.4,0,-0.3,-0.2,-0.4,-0.2c-0.1,0,-0.2,0,-0.4,0.1c-0.2,0.1,-0.5,0,-0.7,0c-0.1,0,-0.5,0,-0.6,0c-0.2,0,-0.3,0.1,-0.6,0c-0.4,-0.1,-0.6,0,-0.7,-0.1c-0.1,0,-0.1,0,-0.3,-0.1c-0.2,-0.1,-0.5,-0.1,-0.3,0c0.1,0.1,0.3,0.3,0.2,0.3c-0.2,-0.1,-0.3,-0.1,-0.6,-0.1c-0.3,-0.1,-0.4,0.1,-0.5,0c-0.1,0,-0.6,0.2,-0.8,0.1c-0.2,-0.1,-0.5,0,-0.7,-0.1c-0.3,-0.1,-0.6,0.1,-0.7,0c-0.2,0,-0.3,-0.1,-0.5,-0.1c-0.2,0,-0.2,0.1,-0.4,0.1c-0.2,0,-0.5,-0.1,-0.5,-0.1c0,0,-0.1,0.1,-0.3,0.1c-0.2,0.1,-0.5,0,-0.6,0c-0.1,0,-0.3,0.3,-0.3,0.3c-0.1,0,-0.3,0.1,-0.3,0.2c-0.1,0.2,-0.1,0.6,-0.1,0.6l0,0.5c0,0,-0.2,0.7,-0.2,0.8c0,0.2,0.1,0.9,0.1,1.1c0,0.2,0,0.7,-0.1,0.9c-0.1,0.1,-0.4,0.4,-0.4,0.4c-0.1,0.1,-0.3,0.2,-0.3,0.4c0,0.2,-0.2,0.4,-0.3,0.5c0,0.1,-0.2,1.1,-0.2,1.1c0,0,-0.7,-0.8,-0.9,-0.9Z" class="g6_126" />
</g>
<path d="M144,480.1c0,0,-0.1,0.4,-0.1,0.5c-0.1,0.2,-0.3,0.3,-0.3,0.7c-0.1,0.4,0,0.8,0.1,1c0,0.2,0,0.5,0,0.5c0,0,0.1,-1,0.1,-1.2c0,-0.1,0,-0.5,0,-0.6c0,-0.1,0.2,-0.7,0.2,-0.9Z" class="g6_126" />
<path d="M129.9,482.2c0.1,-0.1,0.1,-0.4,0,-0.5c0,-0.1,-0.1,-0.1,-0.3,0.1c-0.1,0.2,-0.3,0.3,-0.4,0.5c-0.1,0.2,-0.2,0.4,0,0.6c0.1,0.1,0.4,0.2,0.5,0.5c0.2,0.2,0.6,0.3,0.6,0.3c0,0,-0.3,-0.4,-0.3,-0.5c-0.1,-0.2,-0.3,-0.1,-0.4,-0.3c0,-0.2,0,-0.4,0.1,-0.4c0,0,0.1,0.3,0.2,0.3c0,0,0,-0.6,0,-0.6Z" class="g6_126" />
<g clip-path="url(#c3_126)">
<path d="M128.9,481.8c0.1,-0.1,0.4,-1,0.4,-1.1c0,-0.1,0.2,0.4,0.3,0.5c0.2,0.1,0.4,0.3,0.3,0.2c0,-0.2,-0.3,-0.8,-0.4,-1c-0.1,-0.1,-0.4,-0.5,-0.6,-0.3c-0.1,0.1,-0.2,0.7,-0.2,1c-0.1,0.3,0,0.6,0.1,0.8c0,0.2,0,0.5,0,0.8c0.1,0.3,0.1,0.9,0.3,1.2c0.1,0.2,0.1,0.4,0.2,0.7c0.2,0.4,0.4,0.4,0.6,0.5c0.2,0,0.6,-0.1,0.6,-0.1c0,0,0,0.7,0.1,0.8c0,0.2,0.2,2.1,0.6,3.2c0.2,0.7,-0.2,2.4,-0.2,2.4c0,0,-1.3,1.5,-2.8,1.9c-1.4,0.5,-3.7,1.7,-3.6,1.8c-0.2,0,1.9,-1.1,2.4,-0.9c0.5,0.2,1.1,-0.2,1.3,-0.3c0.2,-0.2,1.3,-0.8,1.4,-0.9c0.2,-0.2,0.9,-0.8,1,-1c0.1,-0.1,0.4,-0.3,0.5,-0.9c0.1,-0.6,0.2,-1.6,0.1,-2.1c-0.1,-0.5,-0.6,-1.9,-0.7,-4c0,-0.2,-0.6,0,-0.9,-0.2c-0.3,-0.1,-0.3,-0.3,-0.4,-0.6c0,-0.2,-0.1,-0.4,-0.1,-0.6c0,-0.2,-0.2,-0.5,-0.2,-0.7c0,-0.3,-0.1,-1.1,-0.1,-1.1Z" class="g6_126" />
</g>
<path d="M132.3,490.4c0.1,0.1,1.4,1.5,1.8,1.8c0.4,0.3,1.1,1,1.3,1.1c0.3,0.1,1.3,0.4,1.8,0.4c0.5,0,1,0,1.2,-0.1c0.2,-0.1,1.2,-0.8,1.4,-1.1c0.1,-0.3,1.1,-1.5,1.4,-1.8c0.2,-0.4,0.8,-0.9,1,-1.4c0.1,-0.4,0.7,-1.5,0.9,-2.3c0.2,-0.8,0.6,-3.8,0.6,-3.9c0.1,0.1,-0.3,3.7,-1,5.4c-0.8,1.7,-1.7,2.5,-1.7,2.6c-0.1,0.1,-0.2,1.1,-0.2,1.4c0.1,0.3,0,0.5,0.4,0.8c0.5,0.3,1,0.4,1.4,0.6c0.5,0.3,1.7,1.3,1.7,1.3c0,0,-2,-1.2,-2.2,-1.2c-0.1,0,-0.9,-0.3,-1.1,-0.4c-0.2,-0.2,-0.2,-0.8,-0.5,-0.9c-0.4,0,-0.5,0.1,-0.6,0.2c-0.2,0.1,-0.8,0.5,-1.1,0.7c-0.2,0.1,-1.2,0.4,-2.1,0.3c-0.8,-0.1,-1.4,-0.2,-2.5,-1.4c-1.1,-1.1,-1.9,-2.1,-1.9,-2.1Z" class="g6_126" />
<g clip-path="url(#c3_126)">
<path d="M127,493.9c0,0,1.7,1.3,2,1.6c0.3,0.3,1.5,1.2,1.9,1.6c0.4,0.4,2,1.5,3.8,1.7c1.8,0.2,3.1,0.3,4,0.1c0.9,-0.1,1.3,-0.5,1.3,-0.5c0,0,-0.8,0.8,-1.5,0.9c-0.8,0,-2.9,-0.2,-3.5,-0.2c-0.6,-0.1,-1.7,-0.1,-3.1,-0.9c-1.3,-0.8,-3.5,-2.8,-3.9,-3.2c-0.5,-0.4,-0.9,-0.6,-1.5,-0.7c-0.5,0,-1.9,0.8,-1.9,0.8c0,0,2,-1.1,2.4,-1.2Z" class="g6_126" />
</g>
<path d="M132.3,481.6c0,0,0.6,-0.2,0.9,-0.3c0.4,-0.1,0.7,0,1,0c0.3,0,1.2,0,1.4,0.1c0.2,0.1,0.8,0.5,0.9,0.7c-0.7,-0.6,-1.1,-0.6,-1.5,-0.7c-0.3,-0.1,-1.1,0,-1.6,0c-0.5,0.1,-1.1,0.2,-1.1,0.2Z" class="g6_126" />
<path d="M139.3,482.1c0,0,0.8,-0.5,1,-0.6c0.2,0,1,-0.1,1.3,-0.1c0.3,0.1,0.7,0.3,0.8,0.3c0,0.1,-0.3,0,-0.5,-0.1c-0.2,0,-1,0,-1.2,0c-0.3,0,-1.3,0.4,-1.4,0.5Z" class="g6_126" />
<path d="M132.1,770.9c0,0,-0.1,0,-0.1,-0.1c0,0,0.1,-0.1,0.1,-0.1c0.1,0,0.1,0.1,0.1,0.1c0,0.1,0,0.1,-0.1,0.1m0.6,-0.2c-0.3,-0.1,-1,-0.1,-1.2,-0.1c-0.2,0,-0.7,0.2,-0.8,0.3c-0.2,0.1,-0.4,0.3,-0.5,0.3c-0.2,0,-0.2,0.1,-0.2,0.1c0,0,0.5,0,0.5,-0.1c0.1,0,0.2,-0.1,0.3,-0.1c0.1,0,0.4,0,0.4,0c0,0,-0.1,-0.2,0,-0.2c0.1,-0.1,0.2,-0.1,0.3,-0.1c0,0,-0.1,0.2,0.2,0.3c0.3,0.2,0.7,0.1,0.7,0c0.1,-0.1,0.1,-0.3,0.1,-0.3c0,0,0.2,-0.2,0.8,0.4c0,0,-0.3,-0.5,-0.6,-0.5Z" class="g3_126" />
<path d="M138.1,770.5c0,0,-0.1,0,-0.1,-0.1c0,0,0.1,-0.1,0.1,-0.1c0.1,0,0.1,0.1,0.1,0.1c0,0.1,0,0.1,-0.1,0.1m1.5,0.1c-0.2,-0.1,-0.2,-0.1,-0.5,-0.3c-0.4,-0.2,-1,-0.1,-1.6,-0.1c-0.5,0.1,-1,0.8,-1,0.8c0,0,0.7,-0.7,0.8,-0.5c0.2,0.1,0.3,0.3,0.8,0.3c0.5,0,0.5,-0.4,0.6,-0.4c0.1,0,0,0.1,0.1,0.1c0.1,0,0.3,0.1,0.5,0.1c0.1,0,0.6,0,0.6,0c0,0,-0.1,0,-0.3,0Z" class="g3_126" />
<path d="M133.5,769.7c0,0,-0.2,-0.3,-0.6,-0.3c-0.5,-0.1,-1.4,0,-1.8,0c-0.3,0,-1,0.2,-1.1,0.3c-0.1,0,-0.5,0.3,-0.5,0.3c0,0,1.1,-0.2,1.4,-0.2c0.3,0,1.2,0.1,1.7,0.1c0.4,0,0.8,0,0.9,-0.2Z" class="g3_126" />
<path d="M136.1,769.5c0,0,-0.1,-0.4,0.5,-0.4c0.5,-0.1,0.7,-0.2,1.3,-0.2c0.6,-0.1,0.7,-0.2,1,-0.2c0.3,0,1.2,0.3,1.4,0.4c0.2,0.1,-0.6,0,-0.7,0.1c-0.2,0,-1.4,0.2,-1.6,0.2c-0.3,0.1,-1.8,0.1,-1.9,0.1Z" class="g3_126" />
<path d="M133,774.1c0,0,0.1,0.5,0.2,0.6c0.1,0.1,0.2,0.2,0.5,0.2c0.4,0,0.5,0,0.6,0c0.1,0.1,0.2,0.3,0.2,0.3c0,0,-0.4,-0.2,-0.6,-0.2c-0.3,0.1,-0.5,0,-0.6,0c-0.1,-0.1,-0.4,-0.4,-0.3,-0.9Z" class="g3_126" />
<path d="M134.9,775.4c0,-0.1,0.5,0,0.6,-0.1c0.2,-0.1,0.4,-0.4,0.6,-0.5c0.2,0,0.2,-0.1,0.5,-0.1c0.3,0,0.4,-0.1,0.5,-0.2c0,-0.1,0.1,-0.5,0,-0.7c0.4,0.6,-0.2,0.9,-0.2,0.9c0,0,-0.5,0.1,-0.7,0.2c-0.1,0,-0.6,0.7,-1.3,0.5Z" class="g3_126" />
<path d="M137,773.3c0,0,0.4,0.2,0.5,0.3c0.2,0.2,0.4,0.6,0.5,0.8c0.2,0.2,0.4,0.3,0.7,0.5c0.3,0.2,0.4,0.3,0.5,0.4c0.1,0.1,0.2,0.7,0.2,0.7c0,0,0.1,-0.8,-0.1,-1c-0.3,-0.2,-0.6,-0.1,-0.9,-0.4c-0.6,-0.5,-0.5,-1.1,-1.4,-1.3Z" class="g3_126" />
<path d="M132.4,774.2c0,0,-0.4,0.6,-0.5,0.8c-0.2,0.2,-0.5,0.4,-0.7,0.5c-0.1,0.2,-0.3,0.5,-0.1,1c0,-0.6,0.1,-0.7,0.2,-0.8c0.2,-0.2,0.5,-0.4,0.7,-0.6c0.2,-0.2,0.3,-0.8,0.4,-0.9Z" class="g3_126" />
<path d="M132,776.5c0,0,0.7,0,0.9,-0.1c0.3,0,0.8,-0.1,1.1,-0.1c0.3,0,0.8,0.1,1,0.1c0.2,0,0.4,-0.1,0.6,-0.1c0.1,0,1.8,-0.1,2.1,-0.1c0.3,0,0.8,-0.1,0.8,-0.1c0,0,-0.1,0.3,-0.2,0.5c-0.2,0.2,-0.9,2.1,-2.6,2.3c-1.8,0.1,-2.6,-0.9,-2.6,-0.9c0,0,0.6,0.5,1.4,0.6c0.8,0.2,1.4,0,1.8,-0.2c0.4,-0.2,0.7,-0.3,0.8,-0.6c0.1,-0.3,0.1,0.2,-2,0.3c-0.3,0,2.3,-0.5,2.8,-1.3c0.1,-0.2,0,-0.5,0,-0.5c0,0,-0.8,0,-1.2,0.1c-0.3,0.1,-0.7,0.2,-0.9,0.2c-0.1,0,-0.8,0,-1.1,0c-0.2,0,-0.8,-0.1,-1.1,-0.1c-0.2,0,-0.8,0.1,-0.8,0.1l0,0.3c0,0,0.2,0.4,0.5,0.6c0.3,0.1,0.9,0.5,1,0.5c0.1,0,-1.1,-0.4,-1.7,-0.8c-0.5,-0.4,-0.6,-0.7,-0.6,-0.7Z" class="g3_126" />
<path d="M139.1,768.3c0,0,1,-0.8,1.2,-1.4c0.1,-0.6,0.1,-0.2,0.1,-0.2c0,0,0,0.5,0.1,0.7c0,0.2,0.1,0.5,0.5,0.9c0.3,0.5,0.3,0.4,0.4,0.9c0.1,0.5,0,1.2,0.1,1.6c0.1,0.3,0.1,0.7,0.1,1c0,0.3,-0.1,1.1,-0.1,1.5c-0.1,0.3,-0.2,2,-0.2,2.3c-0.1,0.3,-0.3,1.6,-0.8,2.3c-0.5,0.7,-2.1,2.8,-2.7,3.1c-0.7,0.3,-1.4,0.5,-1.9,0.5c-0.4,0,-1.2,0,-1.5,-0.1c-0.2,-0.1,-0.9,-0.2,-1.2,-0.5c-0.3,-0.3,-1.1,-1.1,-1.6,-1.6c-0.6,-0.5,-1.2,-1.3,-1.1,-1.2c0,0,1.1,1.3,1.2,1.6c0.2,0.2,0.9,1,1.4,1.4c0.5,0.4,1.1,0.7,2,0.7c1,0.1,1.9,0,2.2,-0.1c0.4,-0.2,1.2,-0.9,1.5,-1.4c0.3,-0.4,1.5,-1.9,1.7,-2.2c0.3,-0.3,0.8,-1.5,0.9,-2.3c0.1,-0.8,0.2,-2.2,0.2,-2.6c0,-0.4,0.1,-0.8,0.3,-1c0.1,-0.1,0.1,-0.8,0.1,-1.1c0.1,-0.2,-0.1,-0.4,0,-0.7c0.1,-0.2,0.3,-0.3,0.3,-0.3c0,0,0,-1.1,0,-1.1c0.1,-0.1,0.3,0,0.3,0c0,0,-0.2,-0.7,-0.1,-0.7c0,-0.1,0.4,0.4,0.4,0.4c0,0,-0.1,-0.5,0,-0.4c0.1,0,0.4,0,0.4,0c0,0,-0.3,-0.3,-0.4,-0.4c0,-0.1,-0.1,-0.2,0,-0.3c0.1,-0.1,0.3,-0.1,0.3,-0.1c0,0,-0.3,-0.2,-0.3,-0.3c0,-0.2,0.1,-0.3,0.1,-0.3c0,0,-0.1,0,-0.2,-0.1c-0.1,0,-0.1,-0.3,-0.1,-0.3l0.3,0.2c0,0,-0.3,-0.3,-0.2,-0.3c0,-0.1,0.1,-0.1,0.1,-0.1c0,0,-0.3,-0.1,-0.3,-0.2c0,-0.1,0.2,-0.2,0.2,-0.2c0,0,-0.2,0,-0.3,-0.2c0,-0.1,0,-0.4,0,-0.5c0,-0.1,-0.2,-0.4,-0.2,-0.4c0.1,0,0.3,0,0.3,0c0,0,-0.1,-0.1,-0.2,-0.2c-0.2,0,-0.4,-0.2,-0.4,-0.2l0.4,-0.1c0,0,-0.1,-0.1,-0.2,-0.1C142,764.1,142,764,142.1,764c0.2,0,0.3,-0.1,0.3,-0.1c0,0,-0.3,-0.2,-0.4,-0.2c-0.1,0,-0.2,-0.2,-0.2,-0.2c0.1,0,0.2,-0.2,0.2,-0.2c0,0,-0.1,0,-0.3,-0.1c-0.1,-0.2,-0.1,-0.3,-0.1,-0.3c-0.1,-0.1,-0.2,-0.1,-0.4,-0.1c-0.1,-0.1,-0.1,-0.4,-0.1,-0.4c0,0,-0.1,-0.3,-0.1,-0.3c0,-0.1,-0.1,-0.4,0,-0.4c0,0,-0.2,0,-0.2,0.1c-0.1,0.1,0,0.4,-0.2,0.5c-0.2,0,-0.8,0.4,-1,0.5c-0.1,0,-0.5,0.1,-0.6,0.1c-0.1,0.1,-0.4,0.2,-0.4,0.2c0,0,0.6,0,0.9,0c0.2,0,0.5,-0.1,0.7,-0.2c0.2,-0.1,0.2,0,0.2,0.1c-0.1,0.1,-0.6,0.6,-0.7,0.7c-0.1,0.1,-0.4,0.3,-0.3,0.2c0.1,0,1.1,-0.5,1.1,-0.6c0.1,-0.1,0.2,0.1,0.2,0.2c-0.1,0.1,-0.3,0.6,-0.6,0.7c-0.2,0.1,-1.2,0.6,-1.2,0.6c0,0,0.5,0,0.9,-0.2c0.4,-0.2,1,-0.8,1,-0.8c0.1,-0.1,0.2,0.3,0.1,0.5c0,0.2,-0.3,0.5,-0.3,0.5l0.5,-0.4c0,0,-0.2,0.7,-0.3,0.9c0,0.1,-0.2,0.5,-0.1,0.6c0,0.1,-0.3,0.5,-0.4,0.5c-0.1,0,-0.3,1.3,-1.2,1.9Z" class="g3_126" />
<path d="M143,769c0,0,0,0.3,0,0.5c0,0.2,-0.1,0.3,-0.1,0.4c0,0.2,-0.2,-0.2,-0.2,-0.2c-0.1,-0.1,0,-0.6,0,-0.8c0,-0.2,-0.1,-0.3,-0.1,-0.3Z" class="g3_126" />
<path d="M142.5,770.1c0.1,0,0.1,0.4,0.1,0.6c0,0.2,-0.3,0.5,-0.4,0.6c0,0,-0.1,-0.5,-0.1,-0.6c0,-0.1,0.4,-0.6,0.4,-0.6Z" class="g3_126" />
<path d="M143.1,769c0,0,0.2,0.2,0.1,0.4c-0.1,0.2,-0.2,0.7,-0.3,0.9c0,0.3,0,1,-0.1,1.1c0,0.1,-0.5,0.7,-0.6,0.8c0,0.2,-0.1,0.7,-0.3,0.8c0.1,-0.3,0.2,-0.9,0.2,-0.9c0,0,0.5,-0.6,0.6,-0.8c0.1,-0.1,0.1,-0.9,0.2,-1.1c0,-0.2,0.4,-1.1,0.2,-1.2Z" class="g3_126" />
<path d="M137.6,768c0,0,1.7,-1,2,-1.4c0.4,-0.4,0.9,-0.9,0.8,-1c0,0,0.2,-0.4,0.2,-0.4c0,0,-1,1.2,-1,1.2c-0.1,0.1,-2,1.6,-2,1.6Z" class="g3_126" />
<path d="M136.4,767.2c0.1,0,0.9,-0.7,1.1,-0.7c0.1,0,0.7,0,1.2,-0.2c0.6,-0.2,0.7,-0.5,1,-0.7c0.3,-0.2,0.6,-0.5,0.6,-0.5c0,0,-0.5,-0.1,-0.7,0c-0.2,0,-0.5,0.1,-0.8,0.3c-0.2,0.1,-1,0.4,-1,0.5c-0.1,0.1,-0.2,0.3,-0.3,0.4c-0.2,0.1,-1.1,0.9,-1.1,0.9Z" class="g3_126" />
<path d="M134.2,766.9c0.1,0,1.2,-0.6,1.5,-0.7c0.2,-0.1,0.7,-0.3,0.8,-0.3c0.2,0,0,0.1,-0.1,0.2c0,0.2,-1.3,1.1,-1.2,1.1c0.1,-0.1,1.4,-1.1,1.6,-1.1c0.3,-0.1,0,0.3,-0.2,0.5c-0.2,0.2,-0.9,0.7,-0.8,0.7c0,-0.1,1.4,-1.2,1.6,-1.4c0.2,-0.2,0.5,-0.6,0.7,-0.6c0.3,-0.1,0.8,-0.1,0.8,-0.1c0,0,-1,0,-0.9,-0.2c0.1,-0.1,0.7,-0.3,0.8,-0.3c0.2,-0.1,-0.2,0,-0.8,0c-0.5,0,-1.4,0,-1.7,0c-0.3,0,-0.7,0,-0.9,-0.1c-0.1,0,0,0.2,0.1,0.3c0,0,-0.7,0.4,-0.9,0.4c-0.2,0,-0.7,0.5,-1.2,0.6c-0.4,0.2,-1.3,0.8,-1.4,0.8c-0.1,0.1,1.2,-0.5,1.2,-0.4c0,0.2,-0.4,0.8,-0.8,1.3c-0.4,0.4,-1.6,1.2,-1.6,1.2c0,0,1.2,-0.5,1.9,-1.3c0.7,-0.7,0.9,-1.1,1,-1.1c0.2,-0.1,0.4,-0.4,0.6,-0.4c0.2,0,-0.1,0.5,-0.1,0.5l-1.1,1.1c0,0,1.7,-1.4,2,-1.5c0.4,-0.2,0.6,-0.2,0.6,-0.2Z" class="g3_126" />
<path d="M137.6,764.5c0,0,1.2,-0.5,1.2,-0.6c0,-0.1,-0.1,-0.2,-0.4,-0.1c-0.3,0.1,-0.9,0.5,-1.5,0.5c0,0,1.1,-0.5,1.1,-0.5c0,0,0.4,-0.1,0.8,-0.2c0.3,0,0.9,-0.4,0.9,-0.4c0,0,-0.7,0.6,-0.8,0.8c-0.2,0.2,-0.2,0.4,-0.6,0.4c-0.4,0.1,-0.7,0.1,-0.7,0.1Z" class="g3_126" />
<g clip-path="url(#c4_126)">
<path d="M137.3,762.8c0,0,0.7,0.1,1.4,0c0.6,-0.2,1,-0.5,1.2,-0.7c0.2,-0.1,0.9,-0.6,1,-0.6c0.1,-0.1,0,-0.1,0.3,0.1c0.3,0.1,1,0.5,1,0.8c0,0.3,0,0.7,0,0.7c0,0,0.1,-0.6,0.1,-0.6c0,0,0.3,0.4,0.4,0.9c0.4,-0.3,-0.7,-2.1,-1.7,-2.2c-1,-0.1,-0.7,0,-0.8,0c0,0,-0.1,-0.2,0,-0.3c0.1,-0.1,-0.2,-0.1,-0.2,-0.1l0.3,-0.5c0,0,-0.5,0.4,-0.6,0.4c-0.1,-0.1,0,-0.3,0.1,-0.3c0.1,-0.1,0.3,-0.2,0.3,-0.2c0,0,-0.3,-0.1,-0.5,0.2c-0.2,0.2,-0.3,0.2,-0.3,0.2c-0.1,0.1,-0.3,0,-0.1,-0.2c0.1,-0.1,0.5,-0.5,0.5,-0.5c0,0,-0.6,0.5,-0.6,0.4c0,-0.1,0.1,-0.5,-0.4,-1c-0.5,-0.4,-0.7,-0.7,-1.3,-0.8c-0.7,-0.2,-1.3,-0.1,-1.3,-0.1c-0.1,0,1,0.2,1.3,0.4c0.4,0.1,0.9,0.5,1.2,1.1c-0.2,-0.2,-0.6,-0.7,-1,-0.8c0.4,0.4,0.7,0.6,0.7,0.8c0.1,0.3,-0.4,-0.5,-1.4,-0.9c-1,-0.4,-1.7,-0.5,-2.1,-0.4c-0.4,0.1,-1,0.3,-1,0.3c0,0,1.4,0.1,2,0.3c0.6,0.1,0.6,0.3,0.8,0.3c0.2,-0.1,0.3,-0.1,0.6,0c0.2,0.1,0.8,0.3,0.5,0.4c-0.4,0,-1.5,-0.2,-2.1,-0.2c-0.5,0,-0.6,0,-0.6,0c0,0,0.8,0.3,1.2,0.3c0.4,0,1.3,0,1.6,0.1c0.2,0.1,0.7,0.5,0.4,0.4c-0.3,0,-0.5,0,-0.5,0c0,0,0.6,0.3,0.6,0.4c-0.1,0.1,-0.6,-0.1,-0.8,-0.2c-0.2,-0.1,0.3,0.3,0.6,0.4c0.3,0.2,0.5,0.2,0.9,0.2c0.3,0.1,0.8,0.1,0.7,0.2c-0.1,0.1,0.2,0.2,-0.6,0.1c-0.7,-0.1,-1.8,-0.6,-2.2,-0.6c-0.3,-0.1,-0.5,0,-0.5,0c0,0,0.6,0.2,0.8,0.3c0.3,0.1,1.3,0.4,1.5,0.5c0.2,0.1,-0.8,-0.1,-1.1,0c-0.2,0,-0.6,0,-0.6,0c0,0,1.3,0.2,1.3,0.2c0,0.1,-0.8,0.1,-1,0.1c-0.3,0,-1.3,-0.1,-1.4,-0.1c-0.1,0,1.8,0.3,1.7,0.3c-0.2,0.1,-1.5,0.6,-3.6,-0.4c-0.2,-0.2,0.7,0.6,1,0.7c0.3,0,1,0.2,1.3,0.2c0.4,-0.1,1.7,-0.4,1.8,-0.4c0.2,0.1,-0.3,0.5,-0.8,0.4Z" class="g3_126" />
</g>
<path d="M132.7,761.5c0.4,0.1,0.4,0.3,0.8,0.6c0.5,0.3,1.1,0.5,1.4,0.7c0.3,0.2,0.7,0.3,1,0.5c0.4,0.2,1,0.6,1.3,0.6c0.2,0,-0.4,0.2,-0.7,0.2c-0.4,0,-0.6,-0.3,-1,-0.3c-0.5,0,-0.8,-0.1,-1.5,0c-0.7,0.2,-1.1,0.2,-1.3,0.3c-0.3,0.1,-0.8,0.1,-1.2,0.1c-0.5,0,-0.7,0.1,-1.3,0c-0.6,0,-1.1,0,-1.4,0.1c-0.4,0.1,-0.8,0.5,-0.9,0.5c-0.1,0,-0.3,0,-0.4,0.1c-0.1,0,-0.5,0.5,-0.6,0.7c-0.1,0.1,0.3,-0.7,0.6,-1c0.4,-0.2,0.8,-0.3,1.2,-0.5c0.3,-0.1,0.3,-0.3,1,-0.2c0.6,0.1,1.5,0,1.8,0c0.3,0,1.1,0.1,1.5,-0.1c0.4,-0.1,1.6,-0.2,1.7,-0.3c0.2,-0.1,-0.4,-0.1,-0.8,-0.1c-0.5,0,-1,0.1,-1.6,0c-0.6,0,1.4,0,1.5,-0.2c0.1,-0.2,0.1,-0.3,-0.1,-0.4c-0.2,0,-0.5,0,-0.9,-0.1c-0.3,0,-1.1,0,-1.7,0c-0.5,0,-1.3,-0.1,-1.7,0.1c-0.4,0.2,-1.2,0.8,-1.3,0.9c-0.1,0,0.9,-1.1,1.5,-1.2c0.6,-0.1,2.9,0,3.4,0.1c0.5,0,1.2,0.4,1.4,0.4c0.3,0,0.5,0,0.1,-0.2c-0.3,-0.1,-1.4,-0.6,-1.6,-0.6c-0.2,0,-1.3,0,-1.7,0.1c-0.4,0.1,0.6,-0.2,1.1,-0.2c0.5,0,0.7,-0.1,0.5,-0.2c-0.1,-0.1,-0.5,0,-0.8,0c-0.3,0.1,-1,0,-1.3,0.1c-0.4,0,-1.2,0.3,-1.5,0.3c-0.2,0.1,-0.9,0.3,-0.8,0.3c0.1,-0.1,1.2,-0.6,1.6,-0.7c0.5,-0.1,1.9,-0.2,1.9,-0.2c0,0,-0.1,-0.2,-0.7,-0.2c-0.6,0.1,-1.6,0.3,-1.7,0.3c-0.1,0,0.6,-0.3,1,-0.4c0.4,0,1.2,-0.3,2.2,0.1Z" class="g3_126" />
<g clip-path="url(#c4_126)">
<path d="M133.6,758.6c0,0,-0.5,-0.2,-1.1,-0.1c-0.5,0,-0.8,0.1,-1.3,0.2c-0.4,0.2,-1.3,0.4,-1.5,0.6c-0.2,0.2,-1.2,0.6,-1.5,0.9c-0.2,0.2,-0.9,0.8,-0.8,0.8c0,0,1,-0.8,1.2,-0.8c0.2,0,0.2,0.2,-0.2,0.4c-0.5,0.2,-0.9,0.5,-0.9,0.5c0.1,0,0.4,0,0.3,0.1c-0.1,0.1,-1,0.8,-1.1,1.1c-0.2,0.2,0.8,-0.7,0.7,-0.5c0,0.2,-1,1.3,-1.1,1.5c-0.1,0.2,-0.2,0.8,-0.2,0.8c0,0,0.4,-0.7,0.5,-0.7c0.1,0,-0.1,0.5,-0.3,0.7c-0.1,0.2,-0.3,0.5,-0.3,0.6c-0.1,0.2,0,0.9,0.1,0.9c0,0,0.2,1.4,0.2,1.4c0,0,0.2,-0.4,0.3,-0.3c0.1,0,0,0.8,0,0.8c0,0.1,0,0.6,0,0.5c0,0,0.5,-0.3,0.4,-0.2c-0.1,0.2,-0.3,0.3,-0.4,0.4c-0.1,0.2,0.1,0.2,0.2,0.3c0,0.2,-0.1,0.7,-0.1,0.7c0,0,0.1,0.2,0.2,0.2c0.1,-0.1,0.4,-0.4,0.4,-0.3c0.1,0,0,0.6,0,0.6c0,0,0,0.4,0.1,0.4c0.1,0.1,0.2,0.3,0.2,0.3c0,0.1,0,0.5,0,0.6c0.1,0.1,0.1,0.4,0.3,0.6c0,0,0.1,0.5,0.1,0.7c0,0.2,0.1,0.5,0.1,0.5c0,0,0.6,0.7,0.7,1.1c0.1,0.3,0.2,0.7,0.2,0.7c0,0,-0.1,-0.8,-0.2,-1.1c-0.1,-0.2,-0.4,-0.9,-0.4,-1.4c0,-0.4,-0.1,-1.4,0,-1.6c0.2,-0.2,0.3,-0.2,0.3,-0.1c0,0.1,0.1,0.4,0.2,0.3c0.1,-0.1,0.2,-0.1,0.3,-0.2c0,-0.1,0.1,0.1,0.1,0c0,0,0,-0.6,0,-0.6c0.1,-0.1,0.2,0.2,0.2,0.2c0,0,0,-0.4,0.1,-0.4c0,-0.1,0.4,-0.3,0.5,-0.3c0,-0.1,0,-0.4,0.1,-0.6c0,-0.1,0.4,-0.5,0.4,-0.5c0,0,-0.1,0.7,-0.2,0.9c-0.1,0.1,0,1.1,0,1c0.1,0,0.2,-1.5,0.4,-1.7c0.1,-0.3,0.6,-0.8,0.6,-0.8c0,0,-0.6,0.5,-0.6,0.5c0,-0.1,0.5,-0.6,0.5,-0.6c-0.1,0,-1.1,0.8,-1.1,0.8c0,0,-0.5,0.6,-0.6,0.7c0,0.1,0,-0.4,0.2,-0.6c0.1,-0.2,-0.5,0.5,-0.6,0.6c-0.1,0,-0.2,0.1,-0.1,-0.4c0.1,-0.5,0.2,-0.8,0.2,-0.8c0,0,-0.4,0.3,-0.4,0.8c-0.1,0.4,-0.3,0.5,-0.3,0.5c0,0,0.1,-1.1,0.2,-1.3c0.1,-0.3,0.3,-0.7,0.3,-0.8c0,-0.1,0.1,-0.5,0.2,-0.5c0,-0.1,-0.5,0.2,-0.5,0.4c-0.1,0.2,-0.1,0.4,-0.3,0.6c-0.1,0.3,-0.5,0.7,-0.5,0.8c-0.1,0,-0.2,-0.5,-0.1,-0.7c0,-0.2,0.2,-0.9,0.4,-1.1c0.2,-0.2,0.1,0.3,0.1,0.3c0,0,0.3,-0.5,0.4,-0.6c0.1,0,0.4,-0.5,0.4,-0.5c0,0,-0.2,0.7,-0.1,0.6c0.1,-0.2,0.5,-0.6,0.5,-0.6c0,0,-0.3,0.9,-0.2,0.9c0.1,-0.1,0.6,-0.6,0.8,-0.8c0.2,-0.1,0.4,-0.1,0.4,-0.1c0,0,-0.8,1.1,-0.8,1.1c0.1,-0.1,1.1,-1.1,1.2,-1.1c0.2,-0.1,0.2,0.2,0.2,0.2c-0.1,0.1,-1.1,1.1,-1.1,1.1c0,-0.1,1.1,-0.7,1.3,-0.9c0.1,-0.2,0.2,-0.4,0.2,-0.4c0,0,-0.1,-0.3,0,-0.3c0.1,0,0.8,-0.5,1.6,-0.4c0.7,0.1,0.7,0,0.9,0c0.2,0,0.5,-0.1,0.5,-0.1c0,0,-0.7,-0.1,-1,-0.1c-0.3,-0.1,0.6,-0.1,0.8,-0.2c0.2,0,-1.2,0,-1.4,0c-0.2,-0.1,-0.5,-0.2,-0.8,-0.1c-0.3,0.1,-0.6,0.3,-1,0.4c-0.4,0.1,-0.2,-0.1,-0.8,0c-0.6,0.1,-0.8,0.1,-1,0.3c-0.3,0.1,-0.8,0.4,-0.8,0.4c0,0.1,0.1,-0.2,0.3,-0.3c0.2,-0.1,-0.4,0.3,-1,0.4c-0.6,0.1,-0.6,0.4,-0.6,0.4c0,0,0,-0.4,0,-0.4c0.1,-0.1,0.4,-0.2,0.8,-0.4c0.4,-0.2,0.6,-0.5,1,-0.5c0.5,-0.1,1.3,-0.2,1.4,-0.2c0.1,0,-0.8,-0.1,-1.1,-0.1c-0.3,0,-1.3,0.5,-1.5,0.7c-0.1,0.1,-0.6,0.2,-0.7,0.3c0,0,-0.4,0.2,-0.4,0.2c0,0,-0.1,-0.7,0.3,-1c0.3,-0.2,0.5,-0.8,0.6,-0.8c0.2,0,0.5,-0.1,0.5,-0.1c0,0,-0.2,-0.1,-0.8,0c-0.5,0.2,0.4,-0.4,0.5,-0.7c0.2,-0.3,-0.3,-0.1,-0.3,-0.1c0,0,-0.5,0.4,-0.7,0.8c-0.1,0.3,0.2,-0.8,0.4,-1.1c0.3,-0.3,0.5,-0.5,0.7,-0.7c0.2,-0.3,0.9,-0.3,0.9,-0.3c0,0,0.7,-0.2,0.8,-0.4c0.1,-0.2,-0.5,0,-0.3,-0.2c0.2,-0.1,0.5,-0.2,0.3,-0.3c-0.3,0,-0.7,0.5,-1,0.6c-0.4,0.1,0.1,-0.3,0.1,-0.3c0,0,0.3,-0.6,1.2,-0.6c0.9,0,1.1,-0.3,1.2,-0.3c0.2,0,0.1,0.2,0.7,0.3c0.7,0.2,1.1,0.3,1.1,0.3c0,0,-0.6,-0.3,-0.5,-0.4c0.1,-0.1,0.9,0,1.3,0.1c0.5,0.1,1.3,0.3,1.5,0.3c0.3,0,-0.6,-0.4,-0.8,-0.5c-0.2,0,-1.4,-0.4,-1.7,-0.2c-0.4,0.1,-0.4,0.4,-0.8,0.2c-0.4,-0.1,-0.9,-0.4,-0.5,-0.5c0.4,-0.1,1,0,1.2,0c0.3,0,1.4,0.2,1.6,0.1c0.2,-0.1,-1,-0.3,-1.1,-0.3c-0.1,0,-0.8,-0.1,-1.4,-0.1c-0.6,0,-1.1,0.2,-1.4,0.3c-0.3,0.2,-1.2,0.5,-1.3,0.6c-0.1,0,0.5,-0.7,0.8,-0.8c0.3,-0.1,0.9,-0.8,1.9,-0.9c1.1,-0.1,1.8,-0.2,1.8,-0.2Z" class="g3_126" />
</g>
<path d="M127.2,769.3c0,0,-0.3,0.4,-0.3,0.6c0,0.3,0.1,0.6,0.1,0.6c0,0,0,-0.3,0.1,-0.2c0.2,0,0.2,0.2,0.3,0.4c0.1,0.1,0.1,-0.2,0.1,-0.3c-0.1,-0.1,-0.5,-0.5,-0.3,-1.1Z" class="g3_126" />
<path d="M127,771.1c0.1,0,0.2,0.4,0.2,0.6c0,0.3,0.1,0.7,0.5,1.1c0.4,0.4,0.3,0.4,0.5,0.7c0.2,0.3,0.5,0.4,0.5,0.4c0,0,-0.3,-0.3,-0.4,-0.5c-0.2,-0.2,-0.9,-0.9,-1,-1.5c0,-0.5,-0.3,-0.8,-0.3,-0.8Z" class="g3_126" />
<g clip-path="url(#c4_126)">
<path d="M130.5,778.3c0,0,0.1,1,0.1,1.4c-0.1,0.4,0,0.7,-0.1,1c-0.2,0.2,-0.4,0.6,-0.7,0.7c-0.3,0.2,-0.3,0,-0.6,0.1c-0.3,0.1,-0.6,0.2,-1,0.4c-0.4,0.2,-1,0.4,-1.2,0.5c-0.3,0.1,-0.5,0.3,-1,0.4c-0.5,0.1,-0.8,0.3,-1.3,0.5c-0.4,0.2,-2,1.1,-2.4,1.3c-0.5,0.2,2.3,-1.1,2.4,-1.1c0.2,0,-2.9,2.1,-2.1,1.8c0.7,-0.3,2.4,-1.5,2.9,-1.8c0.5,-0.3,0.8,-0.5,1,-0.5c0.2,0,-0.2,0.9,-0.6,1.2c-0.4,0.4,-1.1,1.9,-1,1.8c0.1,-0.1,2,-2.8,2.3,-3.1c0.3,-0.2,0.7,-0.4,0.7,-0.3c0.1,0.2,-0.1,1,0,1.4c0.1,0.5,0.8,2.3,0.8,2.5c0.1,0.2,-0.2,-1.1,-0.1,-1.6c0.1,-0.4,0.2,-1,0.3,-0.7c0.2,0.3,1.3,3.1,1.7,3.7c0.4,0.5,1.3,1.7,1.3,1.7c0,0,-3.1,-5,-2.9,-6.4c0.1,-1.5,0.5,-1.4,1,-1.5c0.4,-0.1,0.6,-0.3,0.8,-1c0.1,-0.3,-0.3,-2.4,-0.3,-2.4Z" class="g3_126" />
<path d="M140.6,779.5c0,0.2,0.5,1,1,1.2c0.5,0.3,1.3,0.3,1.6,0.4c0.3,0.2,1.1,0.5,1.7,0.6c0.6,0.2,2.5,0.5,2.5,0.5c0.1,0,-2.3,-0.2,-2.5,-0.1c-0.2,0.1,-0.2,0.6,-0.2,0.9c0,0.3,-0.2,-0.3,-0.4,-0.7c-0.2,-0.5,-0.6,-0.5,-0.6,-0.1c0,0.5,-0.4,1.5,-0.7,2.1c-0.3,0.6,-1.5,1.5,-1.8,2c-0.3,0.4,-0.9,0.7,-0.9,0.7c0,0,1.4,-2.5,1.7,-3.1c0.2,-0.6,0.7,-2.4,0.5,-2.6c-0.2,-0.1,-1.2,-0.3,-1.6,-0.8c-0.3,-0.4,-0.3,-1,-0.3,-1Z" class="g3_126" />
</g>
<path d="M134.6,875.9c-0.1,0,-0.2,-0.1,-0.2,-0.1c0,-0.1,0.1,-0.2,0.2,-0.2c0.1,0,0.1,0.1,0.1,0.2c0,0,0,0.1,-0.1,0.1m0.4,-0.3c-0.1,-0.1,-0.6,-0.2,-0.8,-0.2c-0.2,0,-1.1,0.4,-1.1,0.4c0,0,0.2,0,0.2,0c0,0,0.5,-0.1,0.5,-0.1c0,0,-0.1,0.4,0.4,0.6c0.5,0.1,0.7,-0.3,0.8,-0.5c0,-0.3,0.8,0.4,0.9,0.5c-0.1,-0.1,-0.7,-0.6,-0.9,-0.7Z" class="g6_126" />
<path d="M135.9,876.3c0.1,0.1,0.1,0.1,0.1,0.1l-0.1,-0.1Z" class="g6_126" />
<path d="M140.9,876.1c-0.1,0,-0.1,0,-0.1,-0.1c0,-0.1,0,-0.1,0.1,-0.1c0.1,0,0.2,0,0.2,0.1c0,0.1,-0.1,0.1,-0.2,0.1m1.3,0c0,0,-0.6,-0.3,-0.9,-0.3c-0.3,-0.1,-0.6,-0.1,-1,0c-0.3,0.2,-1,0.8,-1,0.8c0,0,0.8,-0.7,0.9,-0.5c0.1,0.2,0.1,0.5,0.7,0.4c0.6,0,0.4,-0.6,0.4,-0.6c0,0,0.1,0,0.4,0.1c0.2,0.1,0.5,0.1,0.5,0.1Z" class="g6_126" />
<path d="M136.6,875.2c0.1,0,0.3,-0.5,-0.2,-0.8c-0.6,-0.3,-1.6,-0.5,-2.1,-0.5c-0.4,0,-1.4,0.3,-1.6,0.4c-0.3,0.1,-0.6,0.5,-0.6,0.5c0,0,0.9,-0.2,1.3,-0.2c0.5,0.1,1,0,1.5,0.2c0.6,0.1,1.2,0.4,1.4,0.5c0.2,0,0.3,-0.1,0.3,-0.1Z" class="g6_126" />
<path d="M139.1,875.3c0,0,0.1,-0.9,0.9,-1c0.8,-0.1,1.9,-0.3,2.2,-0.2c0.4,0.2,0.9,0.5,1,0.9c-0.1,-0.1,-0.6,-0.3,-1.2,-0.2c-0.6,0,-1.7,0.3,-2,0.4c-0.4,0.1,-0.8,0.2,-0.9,0.1Z" class="g6_126" />
<path d="M136,878.9c-0.1,0.1,-0.6,0.5,-0.7,0.8c-0.1,0.3,0,0.6,0.1,0.7c0.1,0,0.5,0.1,0.8,0.1c0.3,0,0.8,0,1,0.1c0.1,0,0.3,0.2,0.4,0.3c0,0.1,0.5,0.1,0.6,0c0.2,-0.1,0.3,-0.3,0.5,-0.3c0.2,-0.1,0.5,-0.1,0.8,0c0.3,0,0.4,0,0.3,0c0,0.1,-0.4,0.2,-0.6,0.2c-0.1,0,-0.5,-0.1,-0.6,0c-0.1,0,-0.4,0.3,-0.5,0.3c-0.2,0,-0.4,0.1,-0.9,-0.2c-0.5,-0.3,-0.7,-0.2,-1.2,-0.3c-0.5,0,-0.9,-0.1,-0.9,-0.5c0,-0.6,0.9,-1.2,0.9,-1.2Z" class="g6_126" />
<path d="M139.3,878.6c0,0,0,0.3,0.1,0.5c0.1,0.2,0.4,0.3,0.6,0.5c0.1,0.1,0.1,0.4,0.1,0.4c0,0,0.1,-0.2,0,-0.5c-0.2,-0.3,-0.5,-0.4,-0.6,-0.5c-0.1,-0.2,-0.2,-0.4,-0.2,-0.4Z" class="g6_126" />
<path d="M133.8,882c0,0,1.8,-0.4,3,-0.4c0.8,0.2,1.5,0.1,1.7,0c0.2,0,2,0.5,2,0.5c0,0,0,0.2,-0.2,0.3c-0.1,0.1,-0.5,0.3,-0.7,0.3c-0.1,0,-1.3,-0.1,-1.7,-0.2c-0.3,0,-1,-0.1,-1.5,-0.1c-0.4,0,-1.3,0,-1.5,-0.1c-0.2,-0.1,-0.7,-0.2,-0.7,-0.2c0,0,0.5,0.3,0.9,0.6c0.4,0.2,1.8,0.7,2.2,0.8c0.3,0.1,0.7,0,1.1,-0.2c0.3,-0.1,0.2,-0.2,0.7,-0.3c0.5,0,0.9,-0.3,0.9,-0.3c0,0,0.2,0.1,-0.1,0.4c-0.2,0.3,-0.5,1.2,-1.6,1.4c-1,0.2,-1.9,-0.1,-2.8,-0.7c-0.8,-0.6,-1,-1,-1,-1c0,0,1.3,1.2,2.1,1.4c0.9,0.1,1.2,0,1.7,-0.1c0.5,-0.1,0.9,-0.4,0.8,-0.5c0,-0.2,0.1,-0.1,-0.6,0.1c-0.6,0.2,-1,0.4,-1.8,0.2c-0.8,-0.2,-1.3,-0.6,-1.6,-0.8c-0.2,-0.2,-0.9,-0.8,-1.3,-1.1Z" class="g6_126" />
<path d="M140.5,881c0,0,0.3,0.5,0.5,0.8c0.2,0.2,0.2,0.4,0.2,0.4c0,0,0.2,-0.2,0.1,-0.4c-0.1,-0.2,-0.5,-0.7,-0.8,-0.8Z" class="g6_126" />
<path d="M134.3,880.7c0.1,-0.1,-0.7,0.7,-0.8,0.8c0,0.1,0,1,0.1,1.2c0,0.1,-0.2,-1.1,0.7,-2Z" class="g6_126" />
<g clip-path="url(#c5_126)">
<path d="M129.3,873.9c-0.1,0,0.4,0.3,0.5,0.3c0,0.1,0.1,-0.2,0,-0.3c0,-0.2,-0.3,-0.6,-0.3,-1c0,-0.4,0,-1.7,-0.1,-2c0,-0.3,0.2,-2.4,0.6,-3.1c0.4,-0.7,0.9,-1.3,1,-1.6c0.2,-0.3,1.8,-1.4,3,-1.8c1.3,-0.3,2.3,-0.6,3.8,-0.3c1.5,0.2,2.7,0.7,3.1,1c0.5,0.3,1.6,1.6,2,1.9c0.3,0.4,0.3,0.5,0.6,0.9c0.3,0.4,0.5,1.5,0.5,1.9c0,0.3,0,1.7,0,1.8c-0.1,0.2,-0.1,0.7,-0.2,1.2c-0.1,0.5,-0.2,1,-0.2,1.4c0.1,0.4,-0.2,1.2,-0.2,1.2c0,0,0,-1.1,0,-1.3c0,-0.3,0,-2.2,-0.1,-2.5c-0.1,-0.3,0,-0.6,0,-0.9c0,-0.3,0,-0.8,-0.1,-1.1c0,-0.2,-0.1,-1,-0.4,-1.3c-0.3,-0.3,-0.6,-0.5,-0.7,-0.4c-0.2,0.1,-0.1,0.2,-0.4,0.2c-0.4,-0.1,-0.3,-0.2,-0.4,-0.2c-0.1,-0.1,-0.2,0,-0.4,0.1c-0.2,0.1,-0.5,-0.1,-0.7,-0.1c-0.1,0,-0.5,0.1,-0.6,0.1c-0.2,-0.1,-0.3,0.1,-0.6,0c-0.4,-0.1,-0.6,0,-0.7,-0.1c-0.1,-0.1,-0.1,-0.1,-0.3,-0.2c-0.2,0,-0.5,0,-0.3,0.1c0.1,0.1,0.3,0.3,0.2,0.2c-0.2,0,-0.3,0,-0.6,-0.1c-0.3,-0.1,-0.4,0.1,-0.5,0.1c-0.1,0,-0.6,0.1,-0.8,0.1C135.8,868,135.5,868,135.3,868c-0.3,-0.1,-0.6,0.1,-0.7,0c-0.2,-0.1,-0.3,-0.1,-0.5,-0.1c-0.2,0,-0.2,0,-0.4,0c-0.2,0,-0.5,0,-0.5,0c0,0,-0.1,0.1,-0.3,0.1c-0.2,0,-0.5,0,-0.6,0c-0.1,0,-0.3,0.3,-0.3,0.3c-0.1,0,-0.3,0,-0.3,0.2c-0.1,0.2,-0.1,0.6,-0.1,0.6l0,0.5c0,0,-0.2,0.7,-0.2,0.8c0,0.2,0.1,0.8,0.1,1c0,0.3,0,0.8,-0.1,0.9c-0.1,0.1,-0.4,0.4,-0.4,0.5c-0.1,0.1,-0.3,0.2,-0.3,0.4c0,0.2,-0.2,0.3,-0.3,0.5c0,0.1,-0.2,1.1,-0.2,1.1c0,0,-0.7,-0.8,-0.9,-0.9Z" class="g6_126" />
</g>
<path d="M144,874.2c0,0,-0.1,0.4,-0.1,0.6c-0.1,0.1,-0.3,0.3,-0.3,0.7c-0.1,0.3,0,0.7,0.1,1c0,0.2,0,0.4,0,0.4c0,0,0.1,-0.9,0.1,-1.1c0,-0.1,0,-0.5,0,-0.6c0,-0.2,0.2,-0.7,0.2,-1Z" class="g6_126" />
<path d="M129.9,876.3c0.1,0,0.1,-0.4,0,-0.4c0,-0.1,-0.1,-0.1,-0.3,0.1c-0.1,0.1,-0.3,0.3,-0.4,0.5c-0.1,0.2,-0.2,0.4,0,0.6c0.1,0.1,0.4,0.2,0.5,0.4c0.2,0.3,0.6,0.4,0.6,0.4c0,0,-0.3,-0.4,-0.3,-0.6c-0.1,-0.1,-0.3,0,-0.4,-0.3c0,-0.2,0,-0.4,0.1,-0.3c0,0,0.1,0.3,0.2,0.3c0,0,0,-0.7,0,-0.7Z" class="g6_126" />
<g clip-path="url(#c5_126)">
<path d="M128.9,876c0.1,-0.1,0.4,-1,0.4,-1.2c0,-0.1,0.2,0.4,0.3,0.5c0.2,0.2,0.4,0.3,0.3,0.2c0,-0.1,-0.3,-0.8,-0.4,-0.9c-0.1,-0.2,-0.4,-0.5,-0.6,-0.4c-0.1,0.2,-0.2,0.8,-0.2,1.1c-0.1,0.2,0,0.5,0.1,0.8c0,0.2,0,0.5,0,0.8c0.1,0.3,0.1,0.9,0.3,1.1c0.1,0.3,0.1,0.4,0.2,0.8c0.2,0.3,0.4,0.4,0.6,0.4c0.2,0.1,0.6,0,0.6,0c0,0,0,0.6,0.1,0.8c0,0.1,0.2,2,0.6,3.1c0.2,0.7,-0.2,2.5,-0.2,2.5c0,0,-1.3,1.5,-2.8,1.9c-1.4,0.4,-3.7,1.7,-3.6,1.8c-0.2,0,1.9,-1.1,2.4,-0.9c0.5,0.2,1.1,-0.2,1.3,-0.4c0.2,-0.2,1.3,-0.7,1.4,-0.9c0.2,-0.1,0.9,-0.7,1,-0.9c0.1,-0.1,0.4,-0.3,0.5,-0.9c0.1,-0.6,0.2,-1.6,0.1,-2.1c-0.1,-0.5,-0.6,-1.9,-0.7,-4c0,-0.2,-0.6,-0.1,-0.9,-0.2c-0.3,-0.2,-0.3,-0.4,-0.4,-0.6c0,-0.3,-0.1,-0.4,-0.1,-0.6c0,-0.3,-0.2,-0.5,-0.2,-0.8c0,-0.2,-0.1,-1,-0.1,-1Z" class="g6_126" />
</g>
<path d="M132.3,884.6c0.1,0,1.4,1.4,1.8,1.7c0.4,0.3,1.1,1,1.3,1.1c0.3,0.2,1.3,0.4,1.8,0.4c0.5,0,1,0,1.2,-0.1c0.2,-0.1,1.2,-0.8,1.4,-1c0.1,-0.3,1.1,-1.6,1.4,-1.9c0.2,-0.3,0.8,-0.8,1,-1.3c0.1,-0.5,0.7,-1.6,0.9,-2.4c0.2,-0.7,0.6,-3.7,0.6,-3.9c0.1,0.2,-0.3,3.7,-1,5.4c-0.8,1.8,-1.7,2.5,-1.7,2.7c-0.1,0.1,-0.2,1.1,-0.2,1.4c0.1,0.2,0,0.4,0.4,0.8c0.5,0.3,1,0.4,1.4,0.6c0.5,0.3,1.7,1.3,1.7,1.3c0,0,-2,-1.3,-2.2,-1.3c-0.1,0,-0.9,-0.2,-1.1,-0.4c-0.2,-0.1,-0.2,-0.8,-0.5,-0.8c-0.4,0,-0.5,0,-0.6,0.1c-0.2,0.1,-0.8,0.5,-1.1,0.7c-0.2,0.2,-1.2,0.5,-2.1,0.4c-0.8,-0.2,-1.4,-0.3,-2.5,-1.4c-1.1,-1.1,-1.9,-2.1,-1.9,-2.1Z" class="g6_126" />
<g clip-path="url(#c5_126)">
<path d="M127,888.1c0,0,1.7,1.3,2,1.6c0.3,0.2,1.5,1.2,1.9,1.6c0.4,0.4,2,1.5,3.8,1.7c1.8,0.2,3.1,0.3,4,0.1c0.9,-0.1,1.3,-0.5,1.3,-0.5c0,0,-0.8,0.7,-1.5,0.8c-0.8,0.1,-2.9,-0.1,-3.5,-0.2c-0.6,0,-1.7,0,-3.1,-0.9c-1.3,-0.8,-3.5,-2.7,-3.9,-3.1c-0.5,-0.4,-0.9,-0.7,-1.5,-0.7c-0.5,0,-1.9,0.8,-1.9,0.8c0,0,2,-1.2,2.4,-1.2Z" class="g6_126" />
</g>
<path d="M132.3,875.8c0,0,0.6,-0.2,0.9,-0.3c0.4,-0.1,0.7,-0.1,1,-0.1c0.3,0,1.2,0.1,1.4,0.2c0.2,0,0.8,0.5,0.9,0.7c-0.7,-0.7,-1.1,-0.6,-1.5,-0.7c-0.3,-0.1,-1.1,-0.1,-1.6,0c-0.5,0,-1.1,0.2,-1.1,0.2Z" class="g6_126" />
<path d="M139.3,876.3c0,0,0.8,-0.6,1,-0.6c0.2,-0.1,1,-0.1,1.3,-0.1c0.3,0,0.7,0.3,0.8,0.3c0,0,-0.3,-0.1,-0.5,-0.1c-0.2,0,-1,0,-1.2,0c-0.3,-0.1,-1.3,0.4,-1.4,0.5Z" class="g6_126" />
<path d="M134.5,934.2c0,0,0.1,-0.4,-0.3,-0.7c-0.5,-0.2,-1,-0.4,-2.2,-0.4c-1.2,0.1,-1.4,0.4,-1.4,0.4c0,0,0.7,-0.1,1.1,0c0.4,0,0.9,0,1.4,0.3c0.6,0.3,1.1,0.5,1.4,0.4Z" class="g5_126" />
<path d="M139,934.1c0,0,-0.8,-0.1,-1.2,0c-0.4,0,-0.6,0.2,-0.5,0.4c0.1,0.1,0.5,0.2,1.2,0.2c0.6,0,0.6,0,0.7,0.1c0.1,0,-0.2,-0.7,-0.2,-0.7Z" class="g5_126" />
<path d="M132.7,935.1c-0.1,0,-0.1,-0.1,-0.1,-0.2c0,0,0,-0.1,0.1,-0.1c0.1,0,0.1,0.1,0.1,0.1c0,0.1,0,0.2,-0.1,0.2m0.4,-0.5c-1,-0.4,-1.9,0.2,-1.9,0.2l0.4,0.2c0,0,0.1,-0.2,0.4,-0.2c0.2,-0.1,0.4,-0.1,0.4,-0.1c0,0,-0.2,0.6,0.2,0.7c0.5,0.1,0.6,0,0.7,-0.2c0.1,-0.1,0,-0.3,0,-0.3c0,0,0.4,0.1,0.7,0.7c0,0,0.1,-0.5,-0.9,-1Z" class="g5_126" />
<path d="M138.4,935.9c-0.1,0,-0.1,0,-0.1,-0.1c0,0,0,-0.1,0.1,-0.1c0.1,0,0.1,0.1,0.1,0.1c0,0.1,0,0.1,-0.1,0.1m0.7,-0.3c0,0,-0.3,-0.1,-0.8,-0.1c-0.5,0,-1,0.7,-1,0.7l0.3,-0.1c0,0,0,-0.2,0.4,-0.3c0,0.1,-0.1,0.3,0.4,0.4c0.4,0.2,0.5,0,0.6,-0.1c0,-0.1,0,-0.4,0,-0.4Z" class="g5_126" />
<path d="M136.7,935.3c-0.1,0,-0.7,1,-0.8,1.6c-0.1,0.7,-0.2,1.5,-0.1,1.7c0.2,0.2,0.4,0.6,0.4,0.8c0,0.1,0.3,-0.1,0.3,-0.1c0,-0.1,0.1,-0.6,0.2,-0.5c0.1,0.1,0.3,0.4,0.3,0.5c-0.1,0.1,0,0.6,-0.2,0.6c-0.2,0,-0.3,-0.1,-0.6,-0.1c-0.2,0.1,-0.3,0.1,-0.5,0.2c-0.2,0.1,-0.6,0.2,-0.7,0.1c-0.2,-0.1,-0.4,-0.5,-0.7,-0.6c-0.3,-0.1,-0.4,0.1,-0.4,0.1c0,0,0.2,0,0.4,0.2c0.3,0.1,0.6,0.5,0.9,0.5c0.3,0,0.8,-0.3,1.1,-0.3c0,0,0.2,0.1,0.5,0c0.2,0,0.5,-0.5,0.3,-1c-0.2,-0.5,-0.3,-0.4,-0.5,-0.7c-0.2,-0.4,-0.3,-1.1,-0.2,-1.6c0,-0.5,0.3,-1.4,0.3,-1.4Z" class="g5_126" />
<path d="M133,938.8c-0.1,0.1,-1,0.7,-1.4,1c-0.4,0.2,-0.6,0.4,-0.5,0.7c0.1,0.3,0.3,0.8,0.3,0.8c0,0,-0.6,-1,-0.6,-1.2c0.1,-0.1,2.2,-1.3,2.2,-1.3Z" class="g5_126" />
<path d="M135,942.3c-1,-0.1,-1.2,-0.4,-1.5,-0.6c-0.3,-0.1,-0.9,-0.7,-0.9,-0.7c0,0,2,0.5,2.3,0.5c0.3,0,0.8,0,1.3,0.1c0.5,0,0.6,0.1,0.6,0.1c0,0,-0.8,0.6,-1.8,0.6m2.4,-0.9c-0.1,0,-0.5,0,-1,0c-0.5,-0.2,-0.8,-0.3,-1,-0.3c-0.1,0,-0.4,0,-0.6,0c-0.3,-0.1,-0.6,-0.2,-0.8,-0.2c-0.2,0,-1.1,-0.1,-1.4,-0.2c-0.3,0,-0.7,-0.4,-0.8,-0.3c0,0,0.6,1.4,1.1,1.7c0.4,0.3,1,0.7,1,0.7c0,0,-0.1,-0.2,-0.3,-0.3c-0.2,-0.2,0.3,0,0.2,-0.1c-0.1,-0.1,-0.5,-0.2,-0.6,-0.3c-0.1,-0.1,0.2,-0.2,0.5,0c0.3,0.2,0.3,0.2,0.5,0.3c0.2,0.1,0.1,0.2,0.1,0.3c0.1,0.2,-0.3,0.2,0.1,0.2c0.4,0,1.3,0,1.8,-0.2c0.5,-0.2,0.7,-0.5,0.9,-0.8c0.2,-0.4,0.4,-0.6,0.3,-0.5Z" class="g5_126" />
<path d="M133.8,945.3c0,0,0.5,0.3,1.4,0c0.8,-0.2,3,-2,3,-2c0,0,0.1,0.1,0,0.5c0,0.4,-0.2,0.3,-0.1,1.1c0.2,0.9,0.3,1.3,0.4,1.5c0,0.2,0,0.3,-0.1,0.4c-0.2,0.1,0,-0.6,-0.3,-1c-0.3,-0.4,-0.1,-0.5,-0.6,-0.6c-0.5,-0.1,-0.6,-0.2,-0.9,0c-0.3,0.3,0,0.3,-0.9,0.4c-0.9,0.1,-1.8,-0.1,-1.9,-0.3Z" class="g5_126" />
<g clip-path="url(#c6_126)">
<path d="M123.2,948.4c-0.1,0.1,0.5,-0.7,0.6,-0.5c0.2,0.2,0.1,0,0.5,1.3c0.4,1.3,1.6,4.8,5.5,4.9c3.9,0.2,7.3,-1.2,7.3,-1.2c0,0,-5.4,1.7,-8.3,0.7c-2.8,-1,-3.2,-2.3,-3.5,-3c-0.3,-0.7,-0.6,-1.4,-0.9,-2c-0.3,-0.6,-0.5,-1.6,-1.2,-0.2Z" class="g5_126" />
<path d="M144.9,946.9c0.2,0.1,0.4,0.2,0.4,0.4c0,0,-0.5,0.2,-0.9,0.5c-0.4,0.3,-1.5,2,-2.5,2.8c-0.9,0.8,-1.7,2.1,-3.7,3c-2,0.9,-3.4,1.1,-3.5,1.1c-0.1,0,4.3,-1.5,6.1,-3.2c1.7,-1.8,2.3,-2.7,2.8,-3.3c0.5,-0.5,1.3,-1.3,1.3,-1.3Z" class="g5_126" />
<path d="M122.3,948.3c-0.4,0.1,-0.3,0.3,-1,0.4c-0.6,0.2,-2.5,2.3,-2.7,4.9c-0.3,2.6,0.6,-0.9,1,-0.6c0.3,0.3,0.6,0.4,0.9,1c0.3,0.6,1.6,1.4,1.4,0.7c-0.2,-0.7,-0.8,-1.7,-0.1,-2.3c0.7,-0.6,0.5,-1.8,1,-2c0.5,-0.1,1.1,0.5,1.3,1.1c0.2,0.7,1.1,1.3,1,1.2c-0.1,-0.1,-1.2,-2.3,-1.4,-3.1c-0.2,-0.7,-0.4,-0.8,-0.6,-1c-0.3,-0.2,-0.8,-0.3,-0.8,-0.3Z" class="g5_126" />
<path d="M144.9,951.5c-0.9,1.3,-1.3,3.6,-1.3,3.6c0,0,0.9,-2.8,1.6,-3.7c0.8,-0.9,1.7,-2,2.4,-2.2c0.7,-0.2,1.2,-0.3,1.6,0.4c0.4,0.7,0.9,2.3,0.9,2.5c0,0.3,0,-0.3,0.2,-0.5c0.2,-0.3,0.1,-0.4,-0.2,-0.9c-0.3,-0.6,-0.8,-2.2,-2.3,-2.5c-1.5,-0.4,-1.9,-0.5,-2.3,-0.3c-0.4,0.1,-1.4,1,-2.5,2.2c-1.1,1.3,1.4,-1.2,2.4,-1.6c1.1,-0.3,2.7,-0.3,2.4,0c-0.3,0.3,-2,1.6,-2.9,3Z" class="g5_126" />
</g>
<path d="M125.4,948.4c0,0,1.3,-0.1,3.6,-1.8c2.3,-1.7,1.7,-1.2,1.7,-1.7c0.1,-0.5,0,1.9,-2.3,2.7c-2.2,0.7,-3,0.8,-3,0.8Z" class="g5_126" />
<g clip-path="url(#c6_126)">
<path d="M143.3,941.9c-0.1,0,-0.1,-0.1,-0.2,-0.1c-1.2,-0.5,-0.9,-0.8,-1.6,-1.7c-0.7,-0.8,-1.1,-2.4,-2,-4.9c-0.8,-2.5,-1.3,-2.9,-1.3,-2.9c-0.4,-0.7,-2.1,-3.2,-1.9,-3c0.1,0.1,2.9,3.2,3.4,5.6c0.6,2.3,2.2,4.9,2.8,6.1c0.2,0.4,0.5,0.7,0.8,0.9c0.9,0.4,1.2,0.5,1.2,0.5c0,0,-0.6,-0.1,-1.2,-0.5m-8.8,-16c0.1,0,1.7,0,3.3,1.2c1.6,1.1,2,1.2,3.3,3.2c1.3,2,-0.1,0.2,-1.8,-1.6c-2.2,-2.2,-4.8,-2.8,-4.8,-2.8m2.2,-1.3c0.9,0.2,2.2,0.7,2.5,1c0.6,0.4,1.1,1,1.7,1.7c0.6,0.6,1.1,1.3,1.9,2.8c0.8,1.5,1.7,4.2,2.1,6c0.3,1.5,0.7,2.6,0.8,3c0,0.1,0.1,0.2,0.1,0.2c0,0,-0.1,-0.1,-0.1,-0.2c-0.3,-0.8,-1.5,-4.2,-1.7,-5.2c-0.3,-1,-1.6,-4.2,-2.6,-5.5c-1,-1.3,-1.8,-2.1,-2.8,-2.6c-0.9,-0.5,-3.4,-1.1,-3.4,-1.1c0.1,-0.2,0.7,-0.2,1.5,-0.1m-6.1,4.1c-0.6,0.4,-0.9,0.9,-1.8,2.1c-0.8,1.1,-1.1,5.8,-1.1,6.3c-0.1,0.3,-0.7,1.9,-1.2,3.1c-0.1,0.6,-0.2,1.1,-0.4,1.3c-0.1,0.1,0.1,-0.5,0.4,-1.3c0.1,-0.3,0.2,-0.7,0.3,-1.1c0.3,-1.1,0.5,-2.9,0.5,-2.9c0,0,-0.4,0.9,-1,1.5c-0.6,0.6,-1.7,1.6,-1.7,1.6c-0.1,0,0.4,-0.5,0.9,-1.3c0.6,-0.7,1.8,-2.2,2,-3.2c0.2,-1,0.4,-2.8,0.1,-2.2c-0.2,0.4,-1,1.7,-1.4,2.3c-0.1,0.2,-0.2,0.4,-0.2,0.5c-0.1,0,0,-0.1,0.2,-0.5c0.3,-0.5,0.7,-1.5,1,-2.2c0.4,-1,0.3,-1.8,0.7,-2.7c0.4,-0.8,0.9,-1,1.4,-1.5c0.5,-0.5,1,-0.5,1.1,-0.5c0,0,-0.1,0.4,-0.6,0.8c-0.5,0.3,-0.6,0.4,-0.8,0.7c-0.2,0.3,-0.7,1.9,-0.7,1.9c0,0,0.2,-0.3,0.6,-1.2c0.5,-0.8,1.9,-1.8,1.7,-1.5m-5.8,14.6c-0.3,-1.4,-0.5,-1.8,-0.5,-2.1c0.1,-0.2,0.4,-0.4,0.5,-0.5c-0.1,0.1,-0.2,0.3,-0.2,0.7c0.1,0.7,0.1,1.7,0.6,2.4c0.2,0.3,0.5,0.8,0.9,1.2c-0.4,-0.2,-1.1,-0.6,-1.3,-1.7m19.5,1.2c0.4,-0.2,1.9,-3.1,1.8,-5.3c-0.1,-2.2,-1.6,-8,-2.6,-10.3c-1.1,-2.3,-3.2,-4.5,-4.7,-5c-1.5,-0.6,-3.3,-0.3,-3.6,-0.3c-0.3,0.1,-1.4,-0.1,-1.8,-0.1c-0.3,0.1,-1.1,0.1,-1.9,0.4c-0.7,0.3,-3.2,2.1,-4.4,4.7c-1.2,2.5,-1,5.2,-1.2,5.9c-0.2,0.7,-1.3,1.8,-1.3,2.7c0,0.9,-0.2,1.3,-0.4,2c-0.1,0.7,-0.7,1.8,-0.4,3c0.3,1.3,0.5,2.3,1.6,2.6c0.3,0.1,0.6,0.2,0.7,0.2c0.5,0.7,1.1,1.3,1.3,1.4c0.5,0.2,1,0.3,1.6,0.2c0.7,-0.1,1.6,-1,1.7,-1.1c0.1,-0.1,0,-0.6,0,-1.1c0.1,-0.4,-0.2,-1.9,-0.2,-1.9c0,0,-1.3,-1.7,-1.5,-3.1c-0.2,-1.4,-0.2,-6.7,0.5,-8c0.7,-1.3,1.1,-2.4,2.2,-2.9c1.2,-0.6,1.3,-1,1.3,-1.3c0,-0.1,0,-0.3,0,-0.4c0.1,0.2,0.2,0.5,0.5,0.7c0.5,0.4,1,0.7,2.2,1.9c1.2,1.3,2.4,2.9,2.8,4c0.3,1,0.5,1.7,0.8,2.9c0.3,1.1,0.5,2.8,1.2,3.8c0.3,0.6,-1.9,2.7,-1.9,2.7l0,1.6c0,0.5,0.1,1,0.3,1.2c0.3,0.2,0.1,0.4,-0.1,0.8c-0.2,0.3,-0.3,0.7,-0.2,1.2l0.1,0.5c0,0,0,-0.2,0.7,-0.3c0.8,0,1.7,-0.8,1.7,-0.8c0,0,0.4,0.7,0.9,1c0.4,0.3,1,0.3,1,0.3c0,0,-1,-0.6,-1,-0.8c0,-0.3,0.7,-0.4,1,-0.2c0.4,0.2,0.6,0.2,1,0.1c0.3,-0.1,0.6,-0.3,0.6,-0.3c0,0,-0.6,-1.1,-0.6,-1.5c-0.1,-0.3,0,-0.8,0.3,-1.1Z" class="g5_126" />
</g>
<path d="M132.1,995.5c0,0,-0.1,-0.1,-0.1,-0.1c0,0,0.1,-0.1,0.1,-0.1c0.1,0,0.1,0.1,0.1,0.1c0,0,0,0.1,-0.1,0.1m0.6,-0.2c-0.3,-0.1,-1,-0.1,-1.2,-0.1c-0.2,0,-0.7,0.2,-0.8,0.3c-0.2,0.1,-0.4,0.3,-0.5,0.3c-0.2,0,-0.2,0.1,-0.2,0.1c0,0,0.5,-0.1,0.5,-0.1c0.1,0,0.2,-0.1,0.3,-0.1c0.1,0,0.4,0,0.4,0c0,0,-0.1,-0.2,0,-0.3c0.1,0,0.2,0,0.3,0c0,0,-0.1,0.2,0.2,0.3c0.3,0.2,0.7,0.1,0.7,-0.1c0.1,-0.1,0.1,-0.2,0.1,-0.2c0,0,0.2,-0.2,0.8,0.4c0,0,-0.3,-0.5,-0.6,-0.5Z" class="g3_126" />
<path d="M138.1,995.1c0,0,-0.1,-0.1,-0.1,-0.1c0,-0.1,0.1,-0.1,0.1,-0.1c0.1,0,0.1,0,0.1,0.1c0,0,0,0.1,-0.1,0.1m1.5,0.1c-0.2,-0.1,-0.2,-0.2,-0.5,-0.3c-0.4,-0.2,-1,-0.1,-1.6,-0.1c-0.5,0.1,-1,0.8,-1,0.8c0,0,0.7,-0.7,0.8,-0.5c0.2,0.1,0.3,0.3,0.8,0.3c0.5,0,0.5,-0.5,0.6,-0.5c0.1,0,0,0.2,0.1,0.2c0.1,0,0.3,0.1,0.5,0.1c0.1,0,0.6,0,0.6,0c0,0,-0.1,0,-0.3,0Z" class="g3_126" />
<path d="M133.5,994.3c0,0,-0.2,-0.3,-0.6,-0.3c-0.5,-0.1,-1.4,0,-1.8,0c-0.3,0,-1,0.2,-1.1,0.3c-0.1,0,-0.5,0.2,-0.5,0.2c0,0,1.1,-0.1,1.4,-0.1c0.3,0,1.2,0,1.7,0c0.4,0,0.8,0.1,0.9,-0.1Z" class="g3_126" />
<path d="M136.1,994.1c0,0,-0.1,-0.4,0.5,-0.5c0.5,0,0.7,-0.1,1.3,-0.2c0.6,0,0.7,-0.1,1,-0.1c0.3,0,1.2,0.2,1.4,0.3c0.2,0.2,-0.6,0.1,-0.7,0.2c-0.2,0,-1.4,0.2,-1.6,0.2c-0.3,0,-1.8,0.1,-1.9,0.1Z" class="g3_126" />
<path d="M133,998.7c0,0,0.1,0.5,0.2,0.6c0.1,0.1,0.2,0.2,0.5,0.2c0.4,0,0.5,0,0.6,0c0.1,0.1,0.2,0.2,0.2,0.2c0,0,-0.4,-0.1,-0.6,-0.1c-0.3,0,-0.5,0,-0.6,0c-0.1,-0.1,-0.4,-0.4,-0.3,-0.9Z" class="g3_126" />
<path d="M134.9,999.9c0,0,0.5,0,0.6,0c0.2,-0.1,0.4,-0.4,0.6,-0.5c0.2,-0.1,0.2,-0.2,0.5,-0.2c0.3,0,0.4,0,0.5,-0.1c0,-0.1,0.1,-0.5,0,-0.7c0.4,0.6,-0.2,0.9,-0.2,0.9c0,0,-0.5,0.1,-0.7,0.2c-0.1,0,-0.6,0.7,-1.3,0.4Z" class="g3_126" />
<path d="M137,997.8c0,0,0.4,0.3,0.5,0.4c0.2,0.2,0.4,0.6,0.5,0.8c0.2,0.1,0.4,0.3,0.7,0.5c0.3,0.2,0.4,0.3,0.5,0.4c0.1,0.1,0.2,0.6,0.2,0.6c0,0,0.1,-0.7,-0.1,-0.9c-0.3,-0.2,-0.6,-0.1,-0.9,-0.4c-0.6,-0.5,-0.5,-1.1,-1.4,-1.4Z" class="g3_126" />
<path d="M132.4,998.8c0,0,-0.4,0.6,-0.5,0.8c-0.2,0.1,-0.5,0.4,-0.7,0.5c-0.1,0.2,-0.3,0.5,-0.1,1c0,-0.6,0.1,-0.7,0.2,-0.9c0.2,-0.1,0.5,-0.3,0.7,-0.5c0.2,-0.2,0.3,-0.8,0.4,-0.9Z" class="g3_126" />
<path d="M132,1001.1c0,0,0.7,0,0.9,-0.1c0.3,-0.1,0.8,-0.1,1.1,-0.1c0.3,0,0.8,0,1,0.1c0.2,0,0.4,-0.1,0.6,-0.1c0.1,0,1.8,-0.2,2.1,-0.2c0.3,0,0.8,0,0.8,0c0,0,-0.1,0.2,-0.2,0.5c-0.2,0.2,-0.9,2.1,-2.6,2.2c-1.8,0.2,-2.6,-0.8,-2.6,-0.8c0,0,0.6,0.5,1.4,0.6c0.8,0.2,1.4,0,1.8,-0.2c0.4,-0.2,0.7,-0.3,0.8,-0.6c0.1,-0.3,0.1,0.1,-2,0.2c-0.3,0.1,2.3,-0.4,2.8,-1.2c0.1,-0.2,0,-0.5,0,-0.5c0,0,-0.8,-0.1,-1.2,0c-0.3,0.1,-0.7,0.3,-0.9,0.3c-0.1,0,-0.8,0,-1.1,0c-0.2,0,-0.8,-0.1,-1.1,-0.1c-0.2,0,-0.8,0.1,-0.8,0.1l0,0.3c0,0,0.2,0.4,0.5,0.5c0.3,0.2,0.9,0.6,1,0.6c0.1,0,-1.1,-0.4,-1.7,-0.8c-0.5,-0.4,-0.6,-0.7,-0.6,-0.7Z" class="g3_126" />
<path d="M139.1,992.9c0,0,1,-0.8,1.2,-1.4c0.1,-0.6,0.1,-0.2,0.1,-0.2c0,0,0,0.5,0.1,0.7c0,0.2,0.1,0.5,0.5,0.9c0.3,0.5,0.3,0.4,0.4,0.9c0.1,0.5,0,1.2,0.1,1.6c0.1,0.3,0.1,0.7,0.1,1c0,0.3,-0.1,1.1,-0.1,1.5c-0.1,0.3,-0.2,2,-0.2,2.3c-0.1,0.3,-0.3,1.6,-0.8,2.3c-0.5,0.7,-2.1,2.8,-2.7,3.1c-0.7,0.3,-1.4,0.5,-1.9,0.5c-0.4,-0.1,-1.2,0,-1.5,-0.1c-0.2,-0.1,-0.9,-0.2,-1.2,-0.5c-0.3,-0.3,-1.1,-1.1,-1.6,-1.6c-0.6,-0.6,-1.2,-1.3,-1.1,-1.3c0,0.1,1.1,1.4,1.2,1.7c0.2,0.2,0.9,1,1.4,1.4c0.5,0.4,1.1,0.7,2,0.7c1,0.1,1.9,-0.1,2.2,-0.2c0.4,-0.1,1.2,-0.8,1.5,-1.3c0.3,-0.5,1.5,-1.9,1.7,-2.2c0.3,-0.3,0.8,-1.5,0.9,-2.3c0.1,-0.9,0.2,-2.2,0.2,-2.6c0,-0.4,0.1,-0.8,0.3,-1c0.1,-0.1,0.1,-0.8,0.1,-1.1c0.1,-0.2,-0.1,-0.4,0,-0.7c0.1,-0.2,0.3,-0.3,0.3,-0.3c0,0,0,-1.1,0,-1.2c0.1,0,0.3,0.1,0.3,0.1c0,0,-0.2,-0.7,-0.1,-0.7c0,-0.1,0.4,0.4,0.4,0.4c0,0,-0.1,-0.5,0,-0.5c0.1,0.1,0.4,0.1,0.4,0.1c0,0,-0.3,-0.3,-0.4,-0.4c0,-0.1,-0.1,-0.3,0,-0.4c0.1,-0.1,0.3,0,0.3,0c0,0,-0.3,-0.2,-0.3,-0.4c0,-0.1,0.1,-0.2,0.1,-0.2c0,0,-0.1,0,-0.2,-0.1c-0.1,-0.1,-0.1,-0.3,-0.1,-0.3l0.3,0.2c0,0,-0.3,-0.3,-0.2,-0.3c0,-0.1,0.1,-0.1,0.1,-0.1c0,0,-0.3,-0.1,-0.3,-0.2c0,-0.1,0.2,-0.2,0.2,-0.2c0,0,-0.2,0,-0.3,-0.2c0,-0.1,0,-0.4,0,-0.5c0,-0.1,-0.2,-0.4,-0.2,-0.4c0.1,0,0.3,0,0.3,0c0,0,-0.1,-0.2,-0.2,-0.2c-0.2,0,-0.4,-0.2,-0.4,-0.2l0.4,-0.1c0,0,-0.1,-0.1,-0.2,-0.1c-0.2,-0.1,-0.2,-0.2,-0.1,-0.2c0.2,0,0.3,-0.1,0.3,-0.1c0,0,-0.3,-0.2,-0.4,-0.2c-0.1,-0.1,-0.2,-0.2,-0.2,-0.2c0.1,0,0.2,-0.2,0.2,-0.2c0,0,-0.1,-0.1,-0.3,-0.2c-0.1,-0.1,-0.1,-0.2,-0.1,-0.2c-0.1,-0.1,-0.2,-0.1,-0.4,-0.1c-0.1,-0.1,-0.1,-0.4,-0.1,-0.4c0,0,-0.1,-0.3,-0.1,-0.3c0,-0.1,-0.1,-0.4,0,-0.4c0,0,-0.2,0,-0.2,0.1c-0.1,0.1,0,0.4,-0.2,0.5c-0.2,0,-0.8,0.4,-1,0.5c-0.1,0,-0.5,0.1,-0.6,0.1c-0.1,0.1,-0.4,0.2,-0.4,0.2c0,0,0.6,0,0.9,0c0.2,0,0.5,-0.1,0.7,-0.2c0.2,-0.1,0.2,0,0.2,0.1c-0.1,0.1,-0.6,0.6,-0.7,0.7c-0.1,0.1,-0.4,0.2,-0.3,0.2c0.1,0,1.1,-0.5,1.1,-0.6c0.1,-0.1,0.2,0.1,0.2,0.2c-0.1,0,-0.3,0.6,-0.6,0.7c-0.2,0.1,-1.2,0.5,-1.2,0.5c0,0,0.5,0,0.9,-0.1c0.4,-0.2,1,-0.8,1,-0.9c0.1,0,0.2,0.4,0.1,0.6c0,0.2,-0.3,0.5,-0.3,0.5l0.5,-0.4c0,0,-0.2,0.7,-0.3,0.9c0,0.1,-0.2,0.5,-0.1,0.6c0,0.1,-0.3,0.5,-0.4,0.5c-0.1,0,-0.3,1.3,-1.2,1.9Z" class="g3_126" />
<path d="M143,993.5c0,0,0,0.3,0,0.6c0,0.2,-0.1,0.3,-0.1,0.4c0,0.1,-0.2,-0.2,-0.2,-0.3c-0.1,0,0,-0.5,0,-0.7c0,-0.2,-0.1,-0.4,-0.1,-0.4Z" class="g3_126" />
<path d="M142.5,994.6c0.1,0.1,0.1,0.4,0.1,0.6c0,0.2,-0.3,0.6,-0.4,0.7c0,0,-0.1,-0.5,-0.1,-0.6c0,-0.1,0.4,-0.7,0.4,-0.7Z" class="g3_126" />
<path d="M143.1,993.5c0,0,0.2,0.2,0.1,0.5c-0.1,0.2,-0.2,0.7,-0.3,0.9c0,0.3,0,1,-0.1,1.1c0,0.1,-0.5,0.7,-0.6,0.8c0,0.2,-0.1,0.7,-0.3,0.8c0.1,-0.4,0.2,-0.9,0.2,-0.9c0,0,0.5,-0.6,0.6,-0.8c0.1,-0.2,0.1,-0.9,0.2,-1.1c0,-0.2,0.4,-1.1,0.2,-1.3Z" class="g3_126" />
<path d="M137.6,992.6c0,0,1.7,-1,2,-1.4c0.4,-0.4,0.9,-0.9,0.8,-1c0,0,0.2,-0.4,0.2,-0.4c0,0,-1,1.1,-1,1.2c-0.1,0.1,-2,1.6,-2,1.6Z" class="g3_126" />
<path d="M136.4,991.8c0.1,0,0.9,-0.7,1.1,-0.7c0.1,0,0.7,0,1.2,-0.2c0.6,-0.3,0.7,-0.5,1,-0.7c0.3,-0.2,0.6,-0.6,0.6,-0.6c0,0,-0.5,0,-0.7,0.1c-0.2,0,-0.5,0.1,-0.8,0.3c-0.2,0.1,-1,0.3,-1,0.5c-0.1,0.1,-0.2,0.3,-0.3,0.4c-0.2,0.1,-1.1,0.9,-1.1,0.9Z" class="g3_126" />
<path d="M134.2,991.5c0.1,0,1.2,-0.6,1.5,-0.7c0.2,-0.1,0.7,-0.3,0.8,-0.3c0.2,0,0,0.1,-0.1,0.2c0,0.1,-1.3,1.1,-1.2,1c0.1,0,1.4,-1,1.6,-1.1c0.3,0,0,0.4,-0.2,0.6c-0.2,0.2,-0.9,0.7,-0.8,0.7c0,-0.1,1.4,-1.2,1.6,-1.4c0.2,-0.2,0.5,-0.6,0.7,-0.6c0.3,-0.1,0.8,-0.2,0.8,-0.2c0,0,-1,0,-0.9,-0.1c0.1,-0.1,0.7,-0.3,0.8,-0.4c0.2,0,-0.2,0.1,-0.8,0.1c-0.5,0,-1.4,0,-1.7,0c-0.3,0,-0.7,-0.1,-0.9,-0.1c-0.1,-0.1,0,0.2,0.1,0.3c0,0,-0.7,0.3,-0.9,0.4c-0.2,0,-0.7,0.5,-1.2,0.6c-0.4,0.2,-1.3,0.8,-1.4,0.8c-0.1,0.1,1.2,-0.5,1.2,-0.4c0,0.2,-0.4,0.8,-0.8,1.2c-0.4,0.5,-1.6,1.3,-1.6,1.3c0,0,1.2,-0.6,1.9,-1.3c0.7,-0.7,0.9,-1.1,1,-1.2c0.2,0,0.4,-0.3,0.6,-0.3c0.2,0,-0.1,0.4,-0.1,0.4l-1.1,1.1c0,0,1.7,-1.3,2,-1.4c0.4,-0.2,0.6,-0.2,0.6,-0.2Z" class="g3_126" />
<path d="M137.6,989.1c0,0,1.2,-0.6,1.2,-0.6c0,-0.1,-0.1,-0.2,-0.4,-0.1c-0.3,0.1,-0.9,0.5,-1.5,0.5c0,0,1.1,-0.5,1.1,-0.5c0,0,0.4,-0.1,0.8,-0.2c0.3,-0.1,0.9,-0.4,0.9,-0.4c0,0,-0.7,0.6,-0.8,0.8c-0.2,0.2,-0.2,0.4,-0.6,0.4c-0.4,0.1,-0.7,0.1,-0.7,0.1Z" class="g3_126" />
<g clip-path="url(#c7_126)">
<path d="M137.3,987.4c0,0,0.7,0.1,1.4,-0.1c0.6,-0.1,1,-0.4,1.2,-0.6c0.2,-0.1,0.9,-0.6,1,-0.6c0.1,-0.1,0,-0.1,0.3,0.1c0.3,0.1,1,0.5,1,0.8c0,0.3,0,0.7,0,0.7c0,-0.1,0.1,-0.6,0.1,-0.6c0,0,0.3,0.3,0.4,0.9c0.4,-0.3,-0.7,-2.1,-1.7,-2.2c-1,-0.1,-0.7,0,-0.8,0c0,-0.1,-0.1,-0.2,0,-0.3c0.1,-0.1,-0.2,-0.2,-0.2,-0.2l0.3,-0.4c0,0,-0.5,0.4,-0.6,0.3c-0.1,0,0,-0.2,0.1,-0.3c0.1,0,0.3,-0.1,0.3,-0.1c0,0,-0.3,-0.1,-0.5,0.1c-0.2,0.2,-0.3,0.3,-0.3,0.3c-0.1,0,-0.3,0,-0.1,-0.2c0.1,-0.1,0.5,-0.5,0.5,-0.5c0,-0.1,-0.6,0.5,-0.6,0.4c0,-0.2,0.1,-0.5,-0.4,-1c-0.5,-0.4,-0.7,-0.7,-1.3,-0.8c-0.7,-0.2,-1.3,-0.1,-1.3,-0.1c-0.1,0,1,0.2,1.3,0.3c0.4,0.2,0.9,0.6,1.2,1.1c-0.2,-0.1,-0.6,-0.6,-1,-0.7c0.4,0.3,0.7,0.6,0.7,0.8c0.1,0.3,-0.4,-0.5,-1.4,-0.9c-1,-0.4,-1.7,-0.5,-2.1,-0.5c-0.4,0.1,-1,0.4,-1,0.4c0,0,1.4,0.1,2,0.2c0.6,0.2,0.6,0.3,0.8,0.3c0.2,0,0.3,0,0.6,0.1c0.2,0,0.8,0.3,0.5,0.3c-0.4,0.1,-1.5,-0.1,-2.1,-0.1c-0.5,0,-0.6,0,-0.6,0c0,0,0.8,0.3,1.2,0.3c0.4,0,1.3,0,1.6,0.1c0.2,0.1,0.7,0.5,0.4,0.4c-0.3,0,-0.5,0,-0.5,0c0,0,0.6,0.3,0.6,0.4c-0.1,0.1,-0.6,-0.1,-0.8,-0.2c-0.2,-0.1,0.3,0.3,0.6,0.4c0.3,0.1,0.5,0.1,0.9,0.2c0.3,0.1,0.8,0,0.7,0.2c-0.1,0.1,0.2,0.2,-0.6,0.1c-0.7,-0.1,-1.8,-0.6,-2.2,-0.6c-0.3,-0.1,-0.5,0,-0.5,0c0,0,0.6,0.2,0.8,0.3c0.3,0.1,1.3,0.4,1.5,0.5c0.2,0.1,-0.8,-0.1,-1.1,-0.1c-0.2,0.1,-0.6,0.1,-0.6,0.1c0,0,1.3,0.2,1.3,0.2c0,0,-0.8,0.1,-1,0.1c-0.3,-0.1,-1.3,-0.1,-1.4,-0.1c-0.1,0,1.8,0.3,1.7,0.3c-0.2,0.1,-1.5,0.6,-3.6,-0.4c-0.2,-0.2,0.7,0.5,1,0.6c0.3,0.1,1,0.3,1.3,0.2c0.4,0,1.7,-0.4,1.8,-0.3c0.2,0.1,-0.3,0.5,-0.8,0.4Z" class="g3_126" />
</g>
<path d="M132.7,986.1c0.4,0.1,0.4,0.3,0.8,0.6c0.5,0.3,1.1,0.5,1.4,0.7c0.3,0.2,0.7,0.2,1,0.5c0.4,0.2,1,0.6,1.3,0.6c0.2,0,-0.4,0.2,-0.7,0.2c-0.4,0,-0.6,-0.4,-1,-0.4c-0.5,0.1,-0.8,-0.1,-1.5,0.1c-0.7,0.2,-1.1,0.2,-1.3,0.2c-0.3,0.1,-0.8,0.2,-1.2,0.2c-0.5,-0.1,-0.7,0,-1.3,0c-0.6,-0.1,-1.1,0,-1.4,0.1c-0.4,0.1,-0.8,0.5,-0.9,0.5c-0.1,0,-0.3,0,-0.4,0.1c-0.1,0,-0.5,0.5,-0.6,0.6c-0.1,0.2,0.3,-0.6,0.6,-0.9c0.4,-0.2,0.8,-0.4,1.2,-0.5c0.3,-0.1,0.3,-0.3,1,-0.2c0.6,0.1,1.5,0,1.8,0c0.3,0,1.1,0,1.5,-0.1c0.4,-0.1,1.6,-0.2,1.7,-0.3c0.2,-0.1,-0.4,-0.1,-0.8,-0.1c-0.5,0,-1,0.1,-1.6,0c-0.6,0,1.4,-0.1,1.5,-0.2c0.1,-0.2,0.1,-0.3,-0.1,-0.4c-0.2,0,-0.5,-0.1,-0.9,-0.1c-0.3,0,-1.1,0,-1.7,0c-0.5,0,-1.3,-0.1,-1.7,0.1c-0.4,0.2,-1.2,0.8,-1.3,0.9c-0.1,0,0.9,-1.1,1.5,-1.2c0.6,-0.1,2.9,0,3.4,0c0.5,0.1,1.2,0.4,1.4,0.5c0.3,0,0.5,-0.1,0.1,-0.2c-0.3,-0.1,-1.4,-0.6,-1.6,-0.6c-0.2,0,-1.3,0,-1.7,0.1c-0.4,0.1,0.6,-0.2,1.1,-0.2c0.5,-0.1,0.7,-0.2,0.5,-0.3c-0.1,-0.1,-0.5,0.1,-0.8,0.1c-0.3,0,-1,0,-1.3,0.1c-0.4,0,-1.2,0.2,-1.5,0.3c-0.2,0.1,-0.9,0.3,-0.8,0.3c0.1,-0.1,1.2,-0.6,1.6,-0.7c0.5,-0.2,1.9,-0.3,1.9,-0.3c0,0,-0.1,-0.1,-0.7,-0.1c-0.6,0.1,-1.6,0.2,-1.7,0.3c-0.1,0,0.6,-0.3,1,-0.4c0.4,-0.1,1.2,-0.3,2.2,0.1Z" class="g3_126" />
<g clip-path="url(#c7_126)">
<path d="M133.6,983.2c0,0,-0.5,-0.2,-1.1,-0.2c-0.5,0.1,-0.8,0.1,-1.3,0.3c-0.4,0.2,-1.3,0.4,-1.5,0.6c-0.2,0.1,-1.2,0.6,-1.5,0.9c-0.2,0.2,-0.9,0.8,-0.8,0.8c0,0,1,-0.8,1.2,-0.8c0.2,0,0.2,0.2,-0.2,0.4c-0.5,0.2,-0.9,0.5,-0.9,0.5c0.1,0,0.4,-0.1,0.3,0c-0.1,0.1,-1,0.9,-1.1,1.2c-0.2,0.2,0.8,-0.7,0.7,-0.5c0,0.1,-1,1.3,-1.1,1.5c-0.1,0.2,-0.2,0.8,-0.2,0.8c0,0,0.4,-0.7,0.5,-0.7c0.1,0,-0.1,0.4,-0.3,0.7c-0.1,0.2,-0.3,0.4,-0.3,0.6c-0.1,0.2,0,0.8,0.1,0.9c0,0,0.2,1.3,0.2,1.3c0,0,0.2,-0.3,0.3,-0.2c0.1,0,0,0.7,0,0.8c0,0,0,0.5,0,0.5c0,0,0.5,-0.3,0.4,-0.2c-0.1,0.1,-0.3,0.3,-0.4,0.4c-0.1,0.2,0.1,0.2,0.2,0.3c0,0.1,-0.1,0.7,-0.1,0.7c0,0,0.1,0.2,0.2,0.2c0.1,-0.1,0.4,-0.4,0.4,-0.3c0.1,0,0,0.6,0,0.6c0,0,0,0.4,0.1,0.4c0.1,0.1,0.2,0.2,0.2,0.3c0,0.1,0,0.5,0,0.6c0.1,0.1,0.1,0.4,0.3,0.6c0,0,0.1,0.5,0.1,0.7c0,0.2,0.1,0.5,0.1,0.5c0,0,0.6,0.7,0.7,1c0.1,0.4,0.2,0.8,0.2,0.8c0,0,-0.1,-0.9,-0.2,-1.1c-0.1,-0.2,-0.4,-0.9,-0.4,-1.4c0,-0.4,-0.1,-1.4,0,-1.6c0.2,-0.2,0.3,-0.3,0.3,-0.1c0,0.1,0.1,0.4,0.2,0.3c0.1,-0.1,0.2,-0.1,0.3,-0.2c0,-0.1,0.1,0.1,0.1,0c0,0,0,-0.6,0,-0.6c0.1,-0.1,0.2,0.2,0.2,0.2c0,0,0,-0.4,0.1,-0.5c0,0,0.4,-0.2,0.5,-0.2c0,-0.1,0,-0.5,0.1,-0.6c0,-0.1,0.4,-0.5,0.4,-0.5c0,0,-0.1,0.7,-0.2,0.8c-0.1,0.2,0,1.2,0,1.1c0.1,0,0.2,-1.5,0.4,-1.8c0.1,-0.2,0.6,-0.7,0.6,-0.7c0,0,-0.6,0.5,-0.6,0.5c0,-0.1,0.5,-0.6,0.5,-0.6c-0.1,0,-1.1,0.8,-1.1,0.8c0,0,-0.5,0.6,-0.6,0.7c0,0.1,0,-0.4,0.2,-0.6c0.1,-0.2,-0.5,0.5,-0.6,0.6c-0.1,0,-0.2,0.1,-0.1,-0.4c0.1,-0.5,0.2,-0.8,0.2,-0.8c0,0,-0.4,0.3,-0.4,0.7c-0.1,0.5,-0.3,0.6,-0.3,0.6c0,0,0.1,-1.1,0.2,-1.3c0.1,-0.3,0.3,-0.7,0.3,-0.8c0,-0.1,0.1,-0.5,0.2,-0.6c0,0,-0.5,0.3,-0.5,0.5c-0.1,0.2,-0.1,0.4,-0.3,0.6c-0.1,0.3,-0.5,0.7,-0.5,0.8c-0.1,0,-0.2,-0.5,-0.1,-0.7c0,-0.3,0.2,-0.9,0.4,-1.1c0.2,-0.2,0.1,0.2,0.1,0.2c0,0,0.3,-0.4,0.4,-0.5c0.1,0,0.4,-0.5,0.4,-0.5c0,0,-0.2,0.7,-0.1,0.5c0.1,-0.1,0.5,-0.5,0.5,-0.5c0,0,-0.3,0.9,-0.2,0.9c0.1,-0.1,0.6,-0.7,0.8,-0.8c0.2,-0.1,0.4,-0.1,0.4,-0.1c0,0,-0.8,1.1,-0.8,1.1c0.1,-0.1,1.1,-1.1,1.2,-1.2c0.2,0,0.2,0.3,0.2,0.3c-0.1,0.1,-1.1,1.1,-1.1,1c0,0,1.1,-0.6,1.3,-0.8c0.1,-0.2,0.2,-0.4,0.2,-0.4c0,0,-0.1,-0.3,0,-0.3c0.1,-0.1,0.8,-0.5,1.6,-0.4c0.7,0.1,0.7,0,0.9,0c0.2,0,0.5,-0.2,0.5,-0.2c0,0,-0.7,0,-1,-0.1c-0.3,0,0.6,0,0.8,-0.1c0.2,-0.1,-1.2,0,-1.4,-0.1c-0.2,0,-0.5,-0.1,-0.8,0c-0.3,0.1,-0.6,0.3,-1,0.4c-0.4,0.1,-0.2,-0.1,-0.8,0c-0.6,0,-0.8,0.1,-1,0.2c-0.3,0.1,-0.8,0.5,-0.8,0.5c0,0.1,0.1,-0.2,0.3,-0.3c0.2,-0.1,-0.4,0.3,-1,0.4c-0.6,0.1,-0.6,0.4,-0.6,0.4c0,0,0,-0.4,0,-0.4c0.1,-0.1,0.4,-0.2,0.8,-0.4c0.4,-0.2,0.6,-0.5,1,-0.5c0.5,-0.1,1.3,-0.2,1.4,-0.2c0.1,0,-0.8,-0.1,-1.1,-0.1c-0.3,0,-1.3,0.5,-1.5,0.6c-0.1,0.2,-0.6,0.3,-0.7,0.4c0,0,-0.4,0.2,-0.4,0.2c0,0,-0.1,-0.8,0.3,-1c0.3,-0.2,0.5,-0.8,0.6,-0.8c0.2,-0.1,0.5,-0.1,0.5,-0.1c0,0,-0.2,-0.1,-0.8,0c-0.5,0.2,0.4,-0.4,0.5,-0.7c0.2,-0.3,-0.3,-0.2,-0.3,-0.2c0,0,-0.5,0.5,-0.7,0.8c-0.1,0.4,0.2,-0.8,0.4,-1c0.3,-0.3,0.5,-0.5,0.7,-0.7c0.2,-0.3,0.9,-0.4,0.9,-0.4c0,0,0.7,-0.2,0.8,-0.3c0.1,-0.2,-0.5,0,-0.3,-0.2c0.2,-0.2,0.5,-0.3,0.3,-0.3c-0.3,0,-0.7,0.4,-1,0.6c-0.4,0.1,0.1,-0.4,0.1,-0.4c0,0,0.3,-0.5,1.2,-0.5c0.9,0,1.1,-0.3,1.2,-0.3c0.2,0,0.1,0.1,0.7,0.3c0.7,0.2,1.1,0.2,1.1,0.2c0,0,-0.6,-0.3,-0.5,-0.3c0.1,-0.1,0.9,0,1.3,0.1c0.5,0.1,1.3,0.2,1.5,0.3c0.3,0,-0.6,-0.5,-0.8,-0.5c-0.2,0,-1.4,-0.4,-1.7,-0.2c-0.4,0.1,-0.4,0.4,-0.8,0.2c-0.4,-0.2,-0.9,-0.4,-0.5,-0.5c0.4,-0.1,1,0,1.2,0c0.3,0,1.4,0.1,1.6,0.1c0.2,-0.1,-1,-0.3,-1.1,-0.3c-0.1,0,-0.8,-0.1,-1.4,-0.1c-0.6,0,-1.1,0.2,-1.4,0.3c-0.3,0.1,-1.2,0.5,-1.3,0.6c-0.1,0,0.5,-0.7,0.8,-0.8c0.3,-0.1,0.9,-0.8,1.9,-0.9c1.1,-0.1,1.8,-0.2,1.8,-0.2Z" class="g3_126" />
</g>
<path d="M127.2,993.9c0,-0.1,-0.3,0.4,-0.3,0.6c0,0.3,0.1,0.6,0.1,0.6c0,0,0,-0.3,0.1,-0.3c0.2,0.1,0.2,0.3,0.3,0.4c0.1,0.2,0.1,-0.1,0.1,-0.2c-0.1,-0.2,-0.5,-0.5,-0.3,-1.1Z" class="g3_126" />
<path d="M127,995.7c0.1,0,0.2,0.4,0.2,0.6c0,0.3,0.1,0.6,0.5,1.1c0.4,0.4,0.3,0.4,0.5,0.7c0.2,0.3,0.5,0.4,0.5,0.4c0,0,-0.3,-0.3,-0.4,-0.5c-0.2,-0.2,-0.9,-0.9,-1,-1.5c0,-0.6,-0.3,-0.8,-0.3,-0.8Z" class="g3_126" />
<g clip-path="url(#c7_126)">
<path d="M130.5,1002.9c0,0,0.1,1,0.1,1.4c-0.1,0.4,0,0.7,-0.1,1c-0.2,0.2,-0.4,0.6,-0.7,0.7c-0.3,0.1,-0.3,0,-0.6,0.1c-0.3,0.1,-0.6,0.2,-1,0.4c-0.4,0.2,-1,0.4,-1.2,0.5c-0.3,0.1,-0.5,0.3,-1,0.4c-0.5,0,-0.8,0.3,-1.3,0.5c-0.4,0.2,-2,1.1,-2.4,1.3c-0.5,0.2,2.3,-1.1,2.4,-1.1c0.2,0,-2.9,2.1,-2.1,1.8c0.7,-0.3,2.4,-1.5,2.9,-1.8c0.5,-0.3,0.8,-0.5,1,-0.5c0.2,0,-0.2,0.9,-0.6,1.2c-0.4,0.4,-1.1,1.9,-1,1.8c0.1,-0.1,2,-2.8,2.3,-3.1c0.3,-0.2,0.7,-0.4,0.7,-0.3c0.1,0.1,-0.1,1,0,1.4c0.1,0.4,0.8,2.3,0.8,2.5c0.1,0.2,-0.2,-1.2,-0.1,-1.6c0.1,-0.4,0.2,-1,0.3,-0.7c0.2,0.2,1.3,3.1,1.7,3.6c0.4,0.6,1.3,1.7,1.3,1.7c0,0,-3.1,-4.9,-2.9,-6.3c0.1,-1.5,0.5,-1.4,1,-1.5c0.4,-0.1,0.6,-0.3,0.8,-1c0.1,-0.3,-0.3,-2.4,-0.3,-2.4Z" class="g3_126" />
<path d="M140.6,1004.1c0,0.2,0.5,1,1,1.2c0.5,0.3,1.3,0.2,1.6,0.4c0.3,0.1,1.1,0.5,1.7,0.6c0.6,0.2,2.5,0.5,2.5,0.5c0.1,0,-2.3,-0.2,-2.5,-0.1c-0.2,0.1,-0.2,0.6,-0.2,0.9c0,0.3,-0.2,-0.3,-0.4,-0.7c-0.2,-0.5,-0.6,-0.6,-0.6,-0.1c0,0.5,-0.4,1.5,-0.7,2.1c-0.3,0.6,-1.5,1.5,-1.8,2c-0.3,0.4,-0.9,0.7,-0.9,0.7c0,0,1.4,-2.6,1.7,-3.2c0.2,-0.5,0.7,-2.3,0.5,-2.5c-0.2,-0.1,-1.2,-0.4,-1.6,-0.8c-0.3,-0.4,-0.3,-1,-0.3,-1Z" class="g3_126" />
</g>
<image preserveAspectRatio="none" x="677" y="148" width="207" height="303" xlink:href="126/img/1.png" />
<image preserveAspectRatio="none" x="677" y="454" width="207" height="297" xlink:href="126/img/2.png" />
<image preserveAspectRatio="none" x="677" y="754" width="207" height="263" xlink:href="126/img/3.png" />
<path d="M881.6,1209.2l55,0l0,-1222.1l-55,0l0,1222.1Z" class="g7_126" />
<text 
transform="matrix(0, 1, -1, 0, 890, 942)"
dx="0,1,1,1,1,1,1,1,1" 
class="s7_126"
>Lesson 4 </text>

<text 
transform="matrix(0, 1, -1, 0, 890, 1008)"
dx="0,1" 
class="s7_126"
>| </text>

<text 
transform="matrix(0, 1, -1, 0, 890, 1022)"
dx="0,1,1,1,1,1,1,1,1" 
class="s7_126"
>Shopping </text>

<text 
transform="matrix(0, 1, -1, 0, 890, 1090)"
dx="0,1" 
class="s7_126"
>| </text>

<text 
transform="matrix(0, 1, -1, 0, 890, 1104)"
dx="0,-0.2,0.7,0.7,1" 
class="s7_126"
>Text </text>

<text 
transform="matrix(0, 1, -1, 0, 890, 1150)"
dx="0,1,1,0" 
class="s7_126"
>103 </text>



<!-- Any embedded fonts defined here -->
<style type="text/css" ><![CDATA[

@font-face {
	font-family: LibreFranklin-ExtraBold_3v-;
	src: url("fonts/LibreFranklin-ExtraBold_3v-.woff") format("woff");
}

@font-face {
	font-family: LibreFranklin-Bold_3vu;
	src: url("fonts/LibreFranklin-Bold_3vu.woff") format("woff");
}

@font-face {
	font-family: STKaiTi-TC-Bold_3op;
	src: url("fonts/STKaiTi-TC-Bold_3op.woff") format("woff");
}

@font-face {
	font-family: LibreFranklin-SemiBold_3wg;
	src: url("fonts/LibreFranklin-SemiBold_3wg.woff") format("woff");
}

@font-face {
	font-family: STKaiTi-TC-Regular_3pl;
	src: url("fonts/STKaiTi-TC-Regular_3pl.woff") format("woff");
}

]]></style>

</svg>
