<?xml version="1.0" encoding="UTF-8" standalone="no"?>
<!DOCTYPE svg PUBLIC "-//W3C//DTD SVG 1.1//EN"
"http://www.w3.org/Graphics/SVG/1.1/DTD/svg11.dtd">


<!-- Page 292 -->
<svg x="0" y="0" width="921" height="1196" viewBox="0 0 921 1196" version="1.1" xmlns="http://www.w3.org/2000/svg" xmlns:xlink="http://www.w3.org/1999/xlink"
style="display: block;margin-left: auto;margin-right: auto;">
<defs>
<clipPath id="c0_292"><path d="M0,1196.3L0,0L921.3,0l0,1196.3Z" /></clipPath>

<style type="text/css"><![CDATA[

.g1_292{
fill: none;
stroke: #A8A9AD;
stroke-width: 1.5277778;
stroke-linecap: butt;
stroke-linejoin: miter;
}
.g2_292{
fill: none;
stroke: #BDBEC1;
stroke-width: 0.38194445;
stroke-linecap: butt;
stroke-linejoin: miter;
}
.g3_292{
fill: none;
stroke: #FED205;
stroke-width: 4.5833335;
stroke-linecap: butt;
stroke-linejoin: miter;
stroke-miterlimit: 4;
}
.g4_292{
fill: #231F20;
fill-opacity: 0.6900021;
}
.g5_292{
fill: none;
stroke: #FED105;
stroke-width: 4.5833335;
stroke-linecap: butt;
stroke-linejoin: miter;
stroke-miterlimit: 4;
}
.g6_292{
fill: #FFFFFF;
}
.g7_292{
fill: #472D8E;
stroke: #B2B3B7;
stroke-width: 1.5277778;
stroke-linecap: butt;
stroke-linejoin: miter;
stroke-miterlimit: 4;
}

.s1_292{
font-size: 14.13px;
font-family: LibreFranklin-Bold_42j;
fill: #472D8E;
}
.s2_292{
font-size: 13.75px;
font-family: LibreFranklin-SemiBold_42r;
fill: #77787B;
}
.s3_292{
font-size: 25.97px;
font-family: STKaiti-SC-Regular_3pn;
fill: #472D8E;
}
.s4_292{
font-size: 25.97px;
font-family: STKaiTi-TC-Regular_3pl;
fill: #472D8E;
}
.s5_292{
font-size: 14.90px;
font-family: GentiumBookBasic-Italic_3o-;
fill: #3F3F40;
}
.s6_292{
font-size: 14.51px;
font-family: LibreFranklin-Regular_42q;
fill: #3F3F40;
}
.s7_292{
font-size: 13.75px;
font-family: LibreFranklin-Regular_42q;
fill: #3F3F40;
}
.s8_292{
font-size: 13.75px;
font-family: LibreFranklin-Medium_42h;
fill: #FFFFFF;
}
.s9_292{
font-size: 11.08px;
font-family: LibreFranklin-SemiBold_42r;
fill: #FFFFFF;
}

]]></style>

</defs>
<path d="M0,0
L0,1196
L921,1196
L921,0 Z " 
fill="#FFFFFF" stroke="none" />
<path d="M113.1,634.6l40.8,0" class="g1_292" />
<path d="M153.9,634.6l161.8,0" class="g1_292" />
<path d="M315.7,634.6l161.8,0" class="g1_292" />
<path d="M477.5,634.6l120.4,0" class="g1_292" />
<path d="M597.9,634.6l66.6,0" class="g1_292" />
<path d="M664.5,634.6l189.1,0" class="g1_292" />
<path d="M113.1,1007.4l40.8,0" class="g1_292" />
<path d="M153.9,1007.4l161.8,0" class="g1_292" />
<path d="M315.7,1007.4l161.8,0" class="g1_292" />
<path d="M477.5,1007.4l120.4,0" class="g1_292" />
<path d="M597.9,1007.4l66.6,0" class="g1_292" />
<path d="M664.5,1007.4l189.1,0" class="g1_292" />
<path d="M113.1,681l40.8,0" class="g2_292" />
<path d="M153.9,681l161.8,0" class="g2_292" />
<path d="M315.7,681l161.8,0" class="g2_292" />
<path d="M477.5,681l120.4,0" class="g2_292" />
<path d="M597.9,681l66.6,0" class="g2_292" />
<path d="M664.5,681l189.1,0" class="g2_292" />
<path d="M113.1,726.8l40.8,0" class="g2_292" />
<path d="M153.9,726.8l161.8,0" class="g2_292" />
<path d="M315.7,726.8l161.8,0" class="g2_292" />
<path d="M477.5,726.8l120.4,0" class="g2_292" />
<path d="M597.9,726.8l66.6,0" class="g2_292" />
<path d="M664.5,726.8l189.1,0" class="g2_292" />
<path d="M113.1,772.6l40.8,0" class="g2_292" />
<path d="M153.9,772.6l161.8,0" class="g2_292" />
<path d="M315.7,772.6l161.8,0" class="g2_292" />
<path d="M477.5,772.6l120.4,0" class="g2_292" />
<path d="M597.9,772.6l66.6,0" class="g2_292" />
<path d="M664.5,772.6l189.1,0" class="g2_292" />
<path d="M113.1,824.4l40.8,0" class="g2_292" />
<path d="M153.9,824.4l161.8,0" class="g2_292" />
<path d="M315.7,824.4l161.8,0" class="g2_292" />
<path d="M477.5,824.4l120.4,0" class="g2_292" />
<path d="M597.9,824.4l66.6,0" class="g2_292" />
<path d="M664.5,824.4l189.1,0" class="g2_292" />
<path d="M113.1,876.2l40.8,0" class="g2_292" />
<path d="M153.9,876.2l161.8,0" class="g2_292" />
<path d="M315.7,876.2l161.8,0" class="g2_292" />
<path d="M477.5,876.2l120.4,0" class="g2_292" />
<path d="M597.9,876.2l66.6,0" class="g2_292" />
<path d="M664.5,876.2l189.1,0" class="g2_292" />
<path d="M113.1,922l40.8,0" class="g2_292" />
<path d="M153.9,922l161.8,0" class="g2_292" />
<path d="M315.7,922l161.8,0" class="g2_292" />
<path d="M477.5,922l120.4,0" class="g2_292" />
<path d="M597.9,922l66.6,0" class="g2_292" />
<path d="M664.5,922l189.1,0" class="g2_292" />
<text 
x="122" 
y="616" 
dx="0,0.3,0" 
class="s1_292"
>No.</text>

<text 
x="163" 
y="616" 
dx="0,0.3,0.3,0.3,0.3,0.3,0.3,0.3,0.3,0.3" 
class="s1_292"
>Simplified</text>

<text 
x="325" 
y="616" 
dx="0,-0.9,0.2,0.3,0.3,0.3,0.3,0.3,0.3,0.3,0.3" 
class="s1_292"
>Traditional</text>

<text 
x="487" 
y="616" 
dx="0,0.3,0.3,0.3,0.3,0.3" 
class="s1_292"
>Pinyin</text>

<text 
x="603" 
y="608" 
dx="0,0.3,0.3,0.3,0.3,0.3,0,0" 
class="s1_292"
>Part of </text>

<text 
x="603" 
y="624" 
dx="0,0.3,0.3,0.3,0.3,0.3" 
class="s1_292"
>Speech</text>

<text 
x="674" 
y="616" 
dx="0,0.3,0.3,0.3,0.3,0.3,0.3,0.3,0.3,0.3" 
class="s1_292"
>Definition</text>

<text 
x="122" 
y="664" 
dx="0,-0.6" 
class="s2_292"
>19</text>

<text 
x="168" 
y="667" 
dx="0,0" 
class="s3_292"
>认为</text>

<text 
x="329" 
y="667" 
dx="0,0" 
class="s4_292"
>認為</text>

<text 
x="490" 
y="664" 
dx="0,0.2,0.2,0.2,0.2,0.2" 
class="s5_292"
>rènwéi</text>

<text 
x="607" 
y="665" 
dx="0" 
class="s6_292"
>v</text>

<text 
x="674" 
y="664" 
dx="0,-0.2,0,0,0,0,0,0,0,0,0,-0.2,0,0,0,0,0,0,0,0,0" 
class="s7_292"
>to think, to consider</text>

<text 
x="122" 
y="710" 
dx="0,-0.6" 
class="s2_292"
>20</text>

<text 
x="168" 
y="713" 
dx="0,0" 
class="s3_292"
>童年</text>

<text 
x="329" 
y="713" 
dx="0,0" 
class="s4_292"
>童年</text>

<text 
x="490" 
y="710" 
dx="0,0.2,0.2,0.2,0.2,0.2,0.2,0.2" 
class="s5_292"
>tóngnián</text>

<text 
x="607" 
y="710" 
dx="0" 
class="s6_292"
>n</text>

<text 
x="674" 
y="710" 
dx="0,0,0,0,0,0,0,0,0" 
class="s7_292"
>childhood</text>

<text 
x="122" 
y="756" 
dx="0,-0.4" 
class="s2_292"
>21</text>

<text 
x="168" 
y="759" 
dx="0,0" 
class="s3_292"
>看法</text>

<text 
x="329" 
y="759" 
dx="0,0" 
class="s4_292"
>看法</text>

<text 
x="490" 
y="756" 
dx="0,0.2,0.2,0.2,0.2" 
class="s5_292"
>kànfǎ</text>

<text 
x="607" 
y="756" 
dx="0" 
class="s6_292"
>n</text>

<text 
x="674" 
y="756" 
dx="0,0,0,0,0,0,0,-0.2,0,0,0,0,0" 
class="s7_292"
>point of view</text>

<text 
x="122" 
y="805" 
dx="0,-0.4" 
class="s2_292"
>22</text>

<text 
x="168" 
y="807" 
dx="0,0" 
class="s3_292"
>做法</text>

<text 
x="329" 
y="807" 
dx="0,0" 
class="s4_292"
>做法</text>

<text 
x="490" 
y="805" 
dx="0,0.2,0.2,0.2,0.2" 
class="s5_292"
>zuòfǎ</text>

<text 
x="607" 
y="805" 
dx="0" 
class="s6_292"
>n</text>

<text 
x="674" 
y="796" 
dx="0,0,0,0,0,-0.2,0,0,0,0,0,0,0,0,0,0,0,0,0,0,0" 
class="s7_292"
>way of doing things, </text>

<text 
x="674" 
y="813" 
dx="0,0,0,0,0,0,0,0,-0.2,0,0,0,0,0,0,0" 
class="s7_292"
>course of action</text>

<text 
x="122" 
y="856" 
dx="0,-0.4" 
class="s2_292"
>23</text>

<text 
x="168" 
y="859" 
dx="0,0" 
class="s3_292"
>完全</text>

<text 
x="329" 
y="859" 
dx="0,0" 
class="s4_292"
>完全</text>

<text 
x="490" 
y="856" 
dx="0,0.2,0.2,0.2,0.2,0.2,0.2" 
class="s5_292"
>wánquán</text>

<text 
x="607" 
y="857" 
dx="0,0,0,0,0,0,0" 
class="s6_292"
>adv/adj</text>

<text 
x="674" 
y="848" 
dx="0,0,0,0,0,0,-0.1,-0.2,0,0,-0.9,0,0,0,0,0,0,0,0" 
class="s7_292"
>completely, fully; </text>

<text 
x="674" 
y="865" 
dx="0,0,0,0,0,0,-0.1,-0.2,0,0,0,0,0,0,0" 
class="s7_292"
>complete, whole</text>

<text 
x="122" 
y="905" 
dx="0,-0.7" 
class="s2_292"
>24</text>

<text 
x="168" 
y="908" 
dx="0,0" 
class="s3_292"
>理解</text>

<text 
x="329" 
y="908" 
dx="0,0" 
class="s4_292"
>理解</text>

<text 
x="490" 
y="905" 
dx="0,0.2,0.2,0.2,0.2" 
class="s5_292"
>lǐjiě</text>

<text 
x="607" 
y="906" 
dx="0" 
class="s6_292"
>v</text>

<text 
x="674" 
y="905" 
dx="0,-0.2,0,0,0,0,0,0,0,0,0,0,0" 
class="s7_292"
>to understand</text>

<text 
x="122" 
y="971" 
dx="0,-0.4" 
class="s2_292"
>25</text>

<text 
x="168" 
y="973" 
dx="0,0,0,0" 
class="s3_292"
>望子成龙</text>

<text 
x="329" 
y="973" 
dx="0,0,0,0" 
class="s4_292"
>望子成龍</text>

<text 
x="490" 
y="962" 
dx="0,0.2,0.2,0.2,0.2,0.2,0.2,0.2,0.2,0.2,0.2,0.2,0.2,0" 
class="s5_292"
>wàng zǐ chéng </text>

<text 
x="490" 
y="979" 
dx="0,0.2,0.2,0.2" 
class="s5_292"
>lóng</text>

<text 
x="674" 
y="946" 
dx="0,-0.2,0,0,0,0,0,0,0,0,0,0,0,0,0,0,0,-0.9,0,0,0,0,0,0,0,0,0,0" 
class="s7_292"
>to hope that one’s son will </text>

<text 
x="674" 
y="962" 
dx="0,0,0,0,0,0,0,0,0,0,0,0,0,0,0,0,0,0,0,0,0,0,0,0,0,-0.2,0" 
class="s7_292"
>become successful (lit. to </text>

<text 
x="674" 
y="979" 
dx="0,0,0,0,0,0,0,0,0,0,0,0,0,0,-0.9,0,0,0,0,0,0,0,0,0,0" 
class="s7_292"
>hope that one’s son will </text>

<text 
x="674" 
y="995" 
dx="0,0,0,0,0,0,0,0,0,0,0,0,0,-0.1,0,0" 
class="s7_292"
>become a dragon)</text>

<image preserveAspectRatio="none" x="-1" y="-1" width="924" height="517" xlink:href="292/img/1.png" />
<g clip-path="url(#c0_292)">
<path d="M938.5,489.9c0,0,-209.3,11,-293.7,3.4C388.1,470.3,178.6,401.3,-6,284.6c0.9,-47.5,2.3,-301.8,2.3,-301.8l943.4,-0.6l-1.2,507.7Z" class="g3_292" />
<path d="M621.8,488.7c69.1,7.9,172.5,5.4,260.1,1.5c-1.1,0.2,0,-510.6,0,-510.6l-260,-1Z" class="g4_292" />
</g>
<text 
x="655" 
y="67" 
dx="0,0,0,0,0,0,0,0,0,0,0,0,0,0,0,0,-0.2,0,0,0,0,0,0,0,0,0,0,0,0" 
class="s8_292"
>This is a classroom in China </text>

<text 
x="655" 
y="88" 
dx="0,0,0,0,-0.2,0,0,0,0,0,0,0,-0.2,0,0,0,0,0,0,0,0,0,0,0,-0.3,0,0" 
class="s8_292"
>where you are applying for </text>

<text 
x="655" 
y="110" 
dx="0,0,0,-0.4,0,0,0,0,-0.2,0,0,0,0,-0.2,0,0,0,0,0,0,0,0,0,0,0,0,0,0,0,0,0" 
class="s8_292"
>a volunteer teaching position. </text>

<text 
x="655" 
y="131" 
dx="0,0,0,0,0,0,0,0,0,-0.2,0,0,0,-0.2,0,0,-0.3,0,0,0,0,0,0,0" 
class="s8_292"
>As you prepare for your </text>

<text 
x="655" 
y="152" 
dx="0,0,0,-0.2,0,0,0,0,0,0,0,0,0,0,0,0,0,0,0,0,0,0,0,0,0,0,0,0,0,0" 
class="s8_292"
>interview with the principal, </text>

<text 
x="655" 
y="174" 
dx="0,0,0,0,0,0,0,0,0,0,0,0,0,0,0,0,0,0,0,0,0,0,0,0,0" 
class="s8_292"
>you familiarize yourself </text>

<text 
x="655" 
y="195" 
dx="0,0,0,0,0,0,0,0,0,0,0,0,0,0,0,0,0,0,-0.2,0,0,0,0,0" 
class="s8_292"
>with the meaning of the </text>

<text 
x="655" 
y="217" 
dx="0,0,0,0,0,0,0,0,0,0,-0.3,-0.4,0,0,0,0,0,0,0,0,0,0,0,0,0,0,-0.2,0,0" 
class="s8_292"
>slogan above the blackboard. </text>

<text 
x="655" 
y="238" 
dx="0,0,0,0,0,0,0,0,0,0,0,0,0,0,0,-0.3,0,0,0,0,0,0" 
class="s8_292"
>How would you explain </text>

<text 
x="655" 
y="259" 
dx="0,0,0,0,0,0,0,0,-0.2,0,0,0,-0.2,-0.1,0,0,0,0,0,0,0,0,0,0,0,0,0" 
class="s8_292"
>your interpretation during </text>

<text 
x="655" 
y="281" 
dx="0,0,0,0,0,0,0,-0.2,0,0,0,0,0,0" 
class="s8_292"
>the interview?</text>

<path d="M813.8,404c0,-34.9,-28.9,-63.2,-64.5,-63.2c-35.6,0,-64.5,28.3,-64.5,63.2c0,34.9,28.9,63.1,64.5,63.1c14.8,0,28.4,-4.8,39.2,-13" class="g5_292" />
<path d="M728.5,378.3c0,5.3,4.1,9.2,9.6,9.2c2.6,0,7.7,-0.9,7.7,-3.5l0,-5.9l-6.9,0l0,3.2l2.9,0l0,1.3c0,1,-1.9,1.2,-3.2,1.2c-3.5,0,-5.4,-2.4,-5.4,-5.7c0,-3.3,1.9,-5.1,5.2,-5.1c1.6,0,3,0.4,3,1.3l0,1.3l4,0l0,-2.9c0,-2.2,-4,-3.4,-7.3,-3.4c-5.6,0,-9.6,3.7,-9.6,9m19.7,8.9l14.2,0l0,-5.2l-3.8,0l0,1.8l-3.9,0l0,-3.7l5.3,0l0,-3.5l-5.3,0l0,-3.6l3.6,0l0,1.8l3.8,0l0,-5.2l-13.9,0l0,3.2l2,0l0,11.2l-2,0Zm19.9,0l8.5,0l0,-3.2l-2,0l0,-11l2.1,0l0,2.5l3.8,0l0,-5.9l-16.3,0l0,5.9l3.7,0l0,-2.5l2.2,0l0,11l-2,0Z" class="g6_292" />
<path d="M702.5,415.9l13.4,0l0,-4.3l-3.7,0l0,-7.7l2.9,0c1.8,0,2.4,0.4,3.1,1.6l4.5,8c1,1.8,1.8,2.4,4.4,2.4l3.8,0l0,-4.3l-1.1,0c-1,0,-1.7,-0.2,-2.1,-1L724,404.1c-0.6,-1.2,-1.6,-1.7,-1.6,-1.7c3.7,-1.3,6,-4.3,6,-8.7c0,-4.4,-2.3,-7.2,-5.8,-8.3c-1.8,-0.5,-3.7,-0.7,-6.1,-0.7l-14,0l0,4.4l3.8,0l0,22.5l-3.8,0Zm9.7,-16.6l0,-10l4.3,0c1.5,0,2.7,0.2,3.6,0.6c1.7,0.7,2.5,2.3,2.5,4.3c0,3.3,-2,5.1,-5.1,5.1Zm21.3,5.4c0,6.3,4.7,11.7,12.3,11.7c5.7,0,9.2,-3.1,9.2,-3.1l-2.2,-4c0,0,-2.9,2.4,-6.6,2.4c-3.4,0,-6.5,-2.1,-6.8,-6.2l15.8,0c0,0,0.1,-1.3,0.1,-1.9c0,-5.9,-3.6,-10.6,-10.2,-10.6c-6.8,0,-11.6,4.8,-11.6,11.7m6,-2.5c0.5,-3,2.6,-4.9,5.5,-4.9c2.4,0,4.3,1.8,4.4,4.9Zm18.7,7.4c0,4.6,3.7,6.8,7.6,6.8c5.2,0,7.2,-4.3,7.2,-4.3l0.1,0c0,0,-0.2,0.4,-0.2,1.1l0,0.3c0,1.3,0.8,2.4,2.9,2.4l5.4,0l0,-4.2l-2.1,0c-0.6,0,-0.9,-0.3,-0.9,-1l0,-8.9c0,-5.7,-3.3,-8.8,-9.4,-8.8c-5.5,0,-9.1,2.7,-9.1,2.7l2.1,3.9c0,0,3.1,-2.2,6.5,-2.2c2.3,0,4.2,1.1,4.2,3.9l0,0.8l-1.5,0c-3.6,0,-12.8,0.7,-12.8,7.5m5.7,-0.4c0,-3.4,5.4,-3.8,7.7,-3.8l0.9,0l0,0.8c0,2.8,-2.2,6,-5.3,6c-2.1,0,-3.3,-1.4,-3.3,-3m21.5,-0.4c0,6.1,3.4,7.2,7,7.2c1.1,0,2,-0.1,2,-0.1l0,-4.5c0,0,-0.4,0.1,-1,0.1c-1.9,0,-2.4,-1.1,-2.4,-3.1l0,-23.7l-9.1,0l0,4.2l3.5,0Z" class="g6_292" />
<path d="M703,423l0.8,0l1.7,7l2.4,0l1.1,-4.4c0.1,-0.4,0.1,-0.9,0.1,-0.9l0.1,0c0,0,0,0.5,0.1,0.9l1.1,4.4l2.4,0l1.8,-7l0.7,0l0,-1.6l-3.9,0l0,1.6l1,0l-0.8,3.8c0,0.4,-0.1,0.9,-0.1,0.9c0,0,0,-0.5,-0.2,-0.9L710,421.4l-1.7,0l-1.3,5.4c-0.1,0.4,-0.2,0.9,-0.2,0.9c0,0,0,-0.5,-0.1,-0.9L705.9,423l1,0l0,-1.6l-3.9,0Zm13,7l4.1,0l0,-1.6l-0.9,0l0,-5.4l0.9,0l0,-1.6l-4.1,0l0,1.6l1,0l0,5.4l-1,0Zm6.9,0l4.1,0l0,-1.6l-0.9,0l0,-5.3l1,0l0,1.2l1.8,0l0,-2.9l-7.9,0l0,2.9l1.8,0l0,-1.2l1.1,0l0,5.3l-1,0Zm6.9,0l4.1,0l0,-1.6l-1,0l0,-1.8l3.1,0l0,1.8l-0.9,0l0,1.6l4.1,0l0,-1.6l-1,0l0,-5.4l1,0l0,-1.6l-4.1,0l0,1.6l0.9,0l0,1.9l-3.1,0l0,-1.9l1,0l0,-1.6l-4.1,0l0,1.6l1,0l0,5.4l-1,0Z" class="g6_292" />
<path d="M743.7,430c0,4.9,3.8,8.6,9,8.6c2.4,0,7,-0.7,7,-3.3l0,-2.6l-3.8,0l0,1.2c0,1,-2.1,1.2,-2.9,1.2c-2.8,0,-4.9,-1.9,-4.9,-5.4c0,-3.1,1.9,-4.8,4.7,-4.8c1.2,0,2.9,0.2,2.9,1.1l0,1.3l3.8,0l0,-2.6c0,-2.7,-4.8,-3.4,-6.9,-3.4c-5,0,-8.9,3.6,-8.9,8.7m18.2,8.4l8.1,0l0,-3.1l-1.9,0l0,-3.6l6.1,0l0,3.6l-1.9,0l0,3.1l8.1,0l0,-3.1l-1.9,0l0,-10.6l1.9,0l0,-3.1l-8.1,0l0,3.1l1.9,0l0,3.7l-6.1,0l0,-3.7l1.9,0l0,-3.1l-8.1,0l0,3.1l1.9,0l0,10.6l-1.9,0Zm20.8,0l8.1,0l0,-3.1l-1.9,0l0,-10.6l1.9,0l0,-3.1l-8.1,0l0,3.1l2,0l0,10.6l-2,0Zm10.5,0l8.2,0l0,-3.1l-2,0l0,-5.6c0,-0.7,-0.2,-1.9,-0.2,-1.9l0.1,0c0,0,0.3,1.1,0.7,1.7l5.4,8.9l4.3,0l0,-13.7l1.9,0l0,-3.1l-8.2,0l0,3.1l2,0l0,5.6c0,0.8,0.2,1.9,0.2,1.9l-0.1,0c0,0,-0.3,-1,-0.7,-1.7l-5.4,-8.9l-6.2,0l0,3.1l1.9,0l0,10.6l-1.9,0Zm20.5,0l13.5,0l0,-5l-3.6,0l0,1.7l-3.7,0l0,-3.5l5,0l0,-3.3l-5,0l0,-3.4l3.4,0l0,1.7l3.6,0l0,-5l-13.2,0l0,3.1l1.9,0l0,10.6l-1.9,0Zm15.5,-6l0,2.2c0,2.7,3.1,4,6.3,4c3.3,0,6.6,-1.4,6.6,-5.2c0,-3.2,-2.6,-4.2,-5.2,-5.1c-1.5,-0.5,-3,-1,-3,-2.2c0,-0.8,0.9,-1.1,1.9,-1.1c1.1,0,2,0.3,2,1l0,1l3.8,0l0,-2.5c0,-2.1,-2.9,-3.2,-5.8,-3.2c-3,0,-6.2,1.2,-6.2,4.9c0,3.1,2.2,4.2,4.5,5.1c1.8,0.7,3.7,1.1,3.7,2.4c0,0.9,-0.9,1.3,-2.3,1.3c-1.3,0,-2.4,-0.5,-2.4,-1.3l0,-1.3Zm15,6l13.5,0l0,-5l-3.6,0l0,1.7l-3.7,0l0,-3.5l5,0l0,-3.3l-5,0l0,-3.4l3.4,0l0,1.7l3.6,0l0,-5l-13.2,0l0,3.1l1.9,0l0,10.6l-1.9,0Z" class="g6_292" />
<path d="M881.9,1209.2l54.6,0l0,-1222.1l-54.6,0l0,1222.1Z" class="g7_292" />
<text 
transform="matrix(0, 1, -1, 0, 890, 895)"
dx="0,1,1,1,1,1,1,1,1" 
class="s9_292"
>Lesson 9 </text>

<text 
transform="matrix(0, 1, -1, 0, 890, 960)"
dx="0,1" 
class="s9_292"
>| </text>

<text 
transform="matrix(0, 1, -1, 0, 890, 974)"
dx="0,1,1,1,1,1,1,1,1,1" 
class="s9_292"
>Education </text>

<text 
transform="matrix(0, 1, -1, 0, 890, 1046)"
dx="0,1" 
class="s9_292"
>| </text>

<text 
transform="matrix(0, 1, -1, 0, 890, 1060)"
dx="0,0.2,1,1,1,1,1,1,1,1,1" 
class="s9_292"
>Vocabulary </text>

<text 
transform="matrix(0, 1, -1, 0, 890, 1149)"
dx="0,1,1,0" 
class="s9_292"
>269 </text>



<!-- Any embedded fonts defined here -->
<style type="text/css" ><![CDATA[

@font-face {
	font-family: GentiumBookBasic-Italic_3o-;
	src: url("fonts/GentiumBookBasic-Italic_3o-.woff") format("woff");
}

@font-face {
	font-family: LibreFranklin-Bold_42j;
	src: url("fonts/LibreFranklin-Bold_42j.woff") format("woff");
}

@font-face {
	font-family: LibreFranklin-Regular_42q;
	src: url("fonts/LibreFranklin-Regular_42q.woff") format("woff");
}

@font-face {
	font-family: LibreFranklin-SemiBold_42r;
	src: url("fonts/LibreFranklin-SemiBold_42r.woff") format("woff");
}

@font-face {
	font-family: STKaiTi-TC-Regular_3pl;
	src: url("fonts/STKaiTi-TC-Regular_3pl.woff") format("woff");
}

@font-face {
	font-family: STKaiti-SC-Regular_3pn;
	src: url("fonts/STKaiti-SC-Regular_3pn.woff") format("woff");
}

@font-face {
	font-family: LibreFranklin-Medium_42h;
	src: url("fonts/LibreFranklin-Medium_42h.woff") format("woff");
}

]]></style>

</svg>
