<?xml version="1.0" encoding="UTF-8" standalone="no"?>
<!DOCTYPE svg PUBLIC "-//W3C//DTD SVG 1.1//EN"
"http://www.w3.org/Graphics/SVG/1.1/DTD/svg11.dtd">


<!-- Page 269 -->
<svg x="0" y="0" width="921" height="1196" viewBox="0 0 921 1196" version="1.1" xmlns="http://www.w3.org/2000/svg" xmlns:xlink="http://www.w3.org/1999/xlink"
style="display: block;margin-left: auto;margin-right: auto;">
<defs>

<style type="text/css"><![CDATA[

.g1_269{
fill: none;
stroke: #7AAD35;
stroke-width: 2.2916667;
stroke-linecap: butt;
stroke-linejoin: miter;
}
.g2_269{
fill: none;
stroke: #7AAD35;
stroke-width: 1.5277778;
stroke-linecap: butt;
stroke-linejoin: miter;
stroke-miterlimit: 4;
}
.g3_269{
fill: none;
stroke: #7AAD35;
stroke-width: 0.5102778;
stroke-linecap: butt;
stroke-linejoin: miter;
stroke-miterlimit: 4;
}
.g4_269{
fill: #DAEFEB;
}
.g5_269{
fill: none;
stroke: #C6EAFA;
stroke-width: 0.7638889;
stroke-linecap: butt;
stroke-linejoin: miter;
stroke-miterlimit: 4;
}
.g6_269{
fill: none;
stroke: #C6EAFA;
stroke-width: 1.5277778;
stroke-linecap: butt;
stroke-linejoin: miter;
stroke-miterlimit: 4;
}
.g7_269{
fill: #CAE7E2;
}
.g8_269{
fill: none;
stroke: #00A3AF;
stroke-width: 0.7638889;
stroke-linecap: butt;
stroke-linejoin: miter;
stroke-miterlimit: 4;
}
.g9_269{
fill: #00A3AF;
}
.g10_269{
fill: #7AAD35;
stroke: #B2B3B7;
stroke-width: 1.5277778;
stroke-linecap: butt;
stroke-linejoin: miter;
stroke-miterlimit: 4;
}

.s1_269{
font-size: 15.28px;
font-family: LibreFranklin-ExtraBold_414;
fill: #3F3F40;
}
.s2_269{
font-size: 16.81px;
font-family: LibreFranklin-Bold_415;
fill: #939598;
}
.s3_269{
font-size: 25.97px;
font-family: STKaiti-SC-Regular_3pn;
fill: #3F3F40;
}
.s4_269{
font-size: 25.97px;
font-family: STKaiTi-TC-Regular_3pl;
fill: #3F3F40;
}
.s5_269{
font-size: 14.51px;
font-family: LibreFranklin-Regular_41f;
fill: #3F3F40;
}
.s6_269{
font-size: 25.97px;
font-family: STKaiti-SC-Bold_3oi;
fill: #749E3C;
}
.s7_269{
font-size: 25.97px;
font-family: STKaiTi-TC-Bold_3op;
fill: #749E3C;
}
.s8_269{
font-size: 18.33px;
font-family: LibreFranklin-ExtraBold_414;
fill: #86B345;
}
.s9_269{
font-size: 27.50px;
font-family: STKaiti-SC-Bold_3oi;
fill: #3F3F40;
}
.s10_269{
font-size: 27.50px;
font-family: STKaiTi-TC-Bold_3op;
fill: #3F3F40;
}
.s11_269{
font-size: 22.92px;
font-family: LibreFranklin-Bold_415;
fill: #7AAD35;
}
.s12_269{
font-size: 23.68px;
font-family: STKaiti-SC-Regular_3pn;
fill: #3F3F40;
}
.s13_269{
font-size: 23.68px;
font-family: STKaiTi-TC-Regular_3pl;
fill: #3F3F40;
}
.s14_269{
font-size: 14.51px;
font-family: LibreFranklin-Medium_41a;
fill: #231F20;
}
.s15_269{
font-size: 36.67px;
font-family: STKaiti-SC-Bold_3oi;
fill: #F7931D;
}
.s16_269{
font-size: 25.97px;
font-family: STKaiti-SC-Regular_3pn;
fill: #231F20;
}
.s17_269{
font-size: 25.97px;
font-family: STKaiti-SC-Bold_3oi;
fill: #00AEEF;
}
.s18_269{
font-size: 36.67px;
font-family: STKaiTi-TC-Bold_3op;
fill: #F7931D;
}
.s19_269{
font-size: 25.97px;
font-family: STKaiTi-TC-Regular_3pl;
fill: #231F20;
}
.s20_269{
font-size: 25.97px;
font-family: STKaiTi-TC-Bold_3op;
fill: #00AEEF;
}
.s21_269{
font-size: 11.08px;
font-family: LibreFranklin-SemiBold_41h;
fill: #FFFFFF;
}

]]></style>

</defs>
<path d="M0,0
L0,1196
L921,1196
L921,0 Z " 
fill="#FFFFFF" stroke="none" />
<path d="M123.8,352.9l12.2,0" class="g1_269" />
<text 
x="174" 
y="71" 
dx="0,0" 
class="s1_269"
>4 </text>

<text 
x="216" 
y="73" 
dx="0,0,0" 
class="s2_269"
>Q: </text>

<text 
x="242" 
y="73" 
dx="0,0,0,0,0,0,0,0,0" 
class="s3_269"
>你们常常吃牛肉吗？</text>

<text 
x="244" 
y="114" 
dx="0,0,0,0,0,0,0,0,0" 
class="s4_269"
>你們常常吃牛肉嗎？</text>

<text 
x="250" 
y="147" 
dx="0,0,0,0,0,0,0,0,-0.2,0,-0.2,0,0,0,0,0,0,0,0,0,0,1" 
class="s5_269"
>Do you often eat beef?</text>

<text 
x="216" 
y="195" 
dx="0,0,0" 
class="s2_269"
>A: </text>

<text 
x="245" 
y="195" 
dx="0,0,0,0,0,0" 
class="s3_269"
>不，我们平常</text>

<text 
x="401" 
y="195" 
dx="0,0" 
class="s6_269"
>不是</text>

<text 
x="453" 
y="195" 
dx="0,0,0" 
class="s3_269"
>吃鸡，</text>

<text 
x="531" 
y="195" 
dx="0,0" 
class="s6_269"
>就是</text>

<text 
x="583" 
y="195" 
dx="0,0,0,0,0,0,0,0" 
class="s3_269"
>吃鱼，不吃牛肉。</text>

<text 
x="244" 
y="235" 
dx="0,0,0,0,0,0" 
class="s4_269"
>不，我們平常</text>

<text 
x="400" 
y="235" 
dx="0,0" 
class="s7_269"
>不是</text>

<text 
x="452" 
y="235" 
dx="0,0,0" 
class="s4_269"
>吃雞，</text>

<text 
x="530" 
y="235" 
dx="0,0" 
class="s7_269"
>就是</text>

<text 
x="582" 
y="235" 
dx="0,0,0,0,0,0,0,0" 
class="s4_269"
>吃魚，不吃牛肉。</text>

<text 
x="250" 
y="269" 
dx="0,0,-0.4,0,0,0,0,0,0,0,0,0,0,0,0,0,0,0,-0.4,0,0,0,0,0,0,0,0,0,0,0,0,0,-0.4,0,0,0,0,0,0,0,0,0,0,0,0,-1,0,0,0,0,0,0,0,0,0,0,0,0,0,0,0,-0.6" 
class="s5_269"
>No, we usually have either chicken or fish. We don’t eat beef.</text>

<text 
x="126" 
y="347" 
dx="0,0" 
class="s8_269"
>I </text>

<text 
x="351" 
y="351" 
dx="0,0,0" 
class="s9_269"
>难怪/</text>

<text 
x="420" 
y="351" 
dx="0,0" 
class="s10_269"
>難怪</text>

<text 
x="482" 
y="351" 
dx="0,0,0,0,0,0,0,0,0,0,0" 
class="s11_269"
>(no wonder)</text>

<text 
x="161" 
y="424" 
dx="0,0" 
class="s12_269"
>难怪</text>

<text 
x="209" 
y="422" 
dx="0" 
class="s5_269"
>/</text>

<text 
x="214" 
y="424" 
dx="0,0" 
class="s13_269"
>難怪</text>

<text 
x="264" 
y="422" 
dx="0,0,0,0,0,0,0,0,0,-0.4,0,0,0,0,0,0,0,0,0,0,0,0,0,0,0,0,0,-0.2,0,0,0,0,0,0,0,0,0,0,0,-0.2,0,-0.2,0,0,0,0,0,0,0,0,0,0,0,0,0,0,0,0,0,0,0,0,-0.2,0,0,0,0,0,0,0,-0.2,0,0,0,0" 
class="s5_269"
>is an adverb used as an interjection, often at the beginning of a sentence.</text>

<text 
x="176" 
y="474" 
dx="0,0" 
class="s1_269"
>1 </text>

<text 
x="244" 
y="477" 
dx="0,0" 
class="s6_269"
>难怪</text>

<text 
x="296" 
y="477" 
dx="0,0,0,0,0,0,0,0,0,0,0,0,0,0,0,0" 
class="s3_269"
>他不知道这件事，他根本不看新闻！</text>

<text 
x="244" 
y="517" 
dx="0,0" 
class="s7_269"
>難怪</text>

<text 
x="296" 
y="517" 
dx="0,0,0,0,0,0,0,0,0,0,0,0,0,0,0,0" 
class="s4_269"
>他不知道這件事，他根本不看新聞！</text>

<text 
x="250" 
y="551" 
dx="0,0,0,0,0,0,0,0,0,0,0,0,0,0,0,0,0,0,0,0,0,0,0,0,0,0,0,0,0,0,0,0,0,0,0,0,0,0,0,0,0,0,0,0,0,-0.2,0,0,0,0,0,0,0,0,0,0,0,0,0,0,0,0,0,0" 
class="s5_269"
>No wonder he doesn’t know this—he doesn’t watch the news at all!</text>

<text 
x="174" 
y="605" 
dx="0,0" 
class="s1_269"
>2 </text>

<text 
x="244" 
y="607" 
dx="0,0" 
class="s6_269"
>难怪</text>

<text 
x="296" 
y="607" 
dx="0,0,0,0,0,0,0,0,0,0,0,0,0,0,0,0,0,0,0,0" 
class="s3_269"
>他不申请念研究生，原来他已经找到工作了。</text>

<text 
x="244" 
y="648" 
dx="0,0" 
class="s7_269"
>難怪</text>

<text 
x="296" 
y="648" 
dx="0,0,0,0,0,0,0,0,0,0,0,0,0,0,0,0,0,0,0,0" 
class="s4_269"
>他不申請念研究生，原來他已經找到工作了。</text>

<text 
x="250" 
y="681" 
dx="0,-0.3,-0.3,-0.3,-0.3,-0.3,-0.3,-0.3,-0.3,-0.3,-0.3,-0.3,-0.3,-0.3,-0.3,-0.3,-0.3,-0.3,-0.4,-0.3,-0.3,-0.3,-0.3,-0.3,-0.3,-0.3,-0.3,-0.3,-0.3,-0.3,-0.5,-0.3,-0.3,-0.3,-0.3,-0.3,-0.3,-0.3,-0.3,-0.5,-0.3,-0.3,-0.3,-0.3,-0.3,-0.3,-0.3,-0.3,-0.3,-0.3,-1.5,-0.3,-0.3,-0.3,-0.3,-0.3,-0.3,-0.3,-0.3,-0.3,-0.3,-0.3,-0.3,-1.2,-0.3,-0.3,-0.3,-0.3,-0.5,-0.3,-0.3,-0.3,-0.3,-0.3,-0.6,-0.3,-0.3,-0.3,-0.3,-0.3,-0.3,-0.3,-0.3,-0.3,-0.3" 
class="s5_269"
>No wonder he is not applying to graduate school. Turns out, he’s already found a job.</text>

<text 
x="174" 
y="735" 
dx="0,0" 
class="s1_269"
>3 </text>

<text 
x="244" 
y="738" 
dx="0,0" 
class="s6_269"
>难怪</text>

<text 
x="296" 
y="738" 
dx="0,0,0,0,0,0,0,0,0,0,0,0,0,0,0,0,0,0,0,0,0" 
class="s3_269"
>这两天他不太高兴，原来他女朋友跟他分手了。</text>

<text 
x="244" 
y="778" 
dx="0,0" 
class="s7_269"
>難怪</text>

<text 
x="296" 
y="778" 
dx="0,0,0,0,0,0,0,0,0,0,0,0,0,0,0,0,0,0,0,0,0" 
class="s4_269"
>這兩天他不太高興，原來他女朋友跟他分手了。</text>

<text 
x="250" 
y="812" 
dx="0,0,0,0,0,0,0,0,0,0,0,0,0,-0.9,0,0,0,0,0,0,0,0,0,0,0,0,0,0,0,0,0,0,0,0,0,0,0,0,0,0,0,0,0,0,0,0,0,0,0,0,0,-0.2,0,0,0,0,0,0,0,0,-1.2,0,0,0,0,0,0,0,0,0,0,0,0,0" 
class="s5_269"
>No wonder he’s been in a bad mood the last couple of days. Turns out, his </text>

<text 
x="250" 
y="832" 
dx="0,0,0,0,0,0,0,0,0,0,0,0,0,-0.2,0,-0.4,0,0,0,0,0,0,0,0,0,0,0,0,0" 
class="s5_269"
>girlfriend broke up with him.</text>

<path d="M169,48c-0.1,0,-7.7,0.1,-7.7,7.7l0,19.7c0,0,0.1,7.6,7.7,7.6l22.4,0c0,0,7.6,-0.1,7.6,-7.6l0,-19.7C199,55.6,198.9,48,191.4,48L169,48Z" class="g2_269" />
<path d="M169,50.1c-0.6,0,-5.6,0.2,-5.6,5.6l0,19.7c0,0.5,0.2,5.6,5.6,5.6l22.4,0c0.5,0,5.6,-0.2,5.6,-5.6l0,-19.7c0,-0.6,-0.2,-5.6,-5.6,-5.6l-22.4,0Z" class="g3_269" />
<path d="M151.2,316.4l0,53.5l0,0.8l0.8,0l676.9,0l0.7,0l0,-0.8l0,-53.5l0,-0.7l-0.7,0l-676.9,0l-0.8,0l0,0.7Z" class="g2_269" />
<path d="M153.2,368.6l674.4,0l0,-50.9l-674.4,0l0,50.9Z" class="g3_269" />
<path d="M169,451.4c-0.1,0,-7.7,0.1,-7.7,7.6l0,19.7c0,0.1,0.1,7.6,7.7,7.6l22.4,0c0,0,7.6,0,7.6,-7.6L199,459c0,-0.1,-0.1,-7.6,-7.6,-7.6l-22.4,0Z" class="g2_269" />
<path d="M169,453.4c-0.6,0,-5.6,0.2,-5.6,5.6l0,19.7c0,0.6,0.2,5.6,5.6,5.6l22.4,0c0.5,0,5.6,-0.2,5.6,-5.6L197,459c0,-0.6,-0.2,-5.6,-5.6,-5.6l-22.4,0Z" class="g3_269" />
<path d="M169,582c-0.1,0,-7.7,0.1,-7.7,7.6l0,19.7c0,0.1,0.1,7.7,7.7,7.7l22.4,0c0,0,7.6,-0.1,7.6,-7.7l0,-19.7c0,0,-0.1,-7.6,-7.6,-7.6L169,582Z" class="g2_269" />
<path d="M169,584c-0.6,0,-5.6,0.2,-5.6,5.6l0,19.7c0,0.6,0.2,5.6,5.6,5.6l22.4,0c0.5,0,5.6,-0.2,5.6,-5.6l0,-19.7c0,-0.5,-0.2,-5.6,-5.6,-5.6L169,584Z" class="g3_269" />
<path d="M169,712.6c-0.1,0,-7.7,0.1,-7.7,7.7l0,19.7c0,0,0.1,7.6,7.7,7.6l22.4,0c0,0,7.6,-0.1,7.6,-7.6l0,-19.7c0,-0.1,-0.1,-7.7,-7.6,-7.7l-22.4,0Z" class="g2_269" />
<path d="M169,714.7c-0.6,0,-5.6,0.2,-5.6,5.6l0,19.7c0,0.5,0.2,5.6,5.6,5.6l22.4,0c0.5,0,5.6,-0.2,5.6,-5.6l0,-19.7c0,-0.6,-0.2,-5.6,-5.6,-5.6l-22.4,0Z" class="g3_269" />
<path d="M852.5,955.1l0,-37.6L834.2,899.2l-264.4,0l0,56Z" class="g4_269" />
<path d="M83.6,1065.9l768.9,0" class="g5_269" />
<path d="M83.6,1150.6l768.9,0" class="g6_269" />
<path d="M370.8,1159l194.5,0l0,-238.9l-194.5,0l0,238.9Z" class="g7_269" />
<text 
x="385" 
y="963" 
dx="0,0,0,0,0,0,0,0,0,0,0,0,0,-0.2,0,0,0,0,-0.1,0,0,0" 
class="s14_269"
>Using the word/phrase </text>

<text 
x="385" 
y="981" 
dx="0,0,0,0,0,-0.1,0,0,-0.2,0,0,0,0,0,0,0,0,0,0,0,0,0,0,0,0,0,-0.2,0" 
class="s14_269"
>in orange as a clue, try to </text>

<text 
x="385" 
y="1000" 
dx="0,0,0,0,0,-0.2,0,0,0,0,0,0,0,0,0,0,0,0,0,0,0,0,0" 
class="s14_269"
>figure out the meaning </text>

<text 
x="385" 
y="1018" 
dx="0,-0.2,0,0,0,0,0,0,0,0,-0.2,0,0,0,0,0,-0.1,0,0,0,0,0,0,0" 
class="s14_269"
>of the words/phrases in </text>

<text 
x="385" 
y="1036" 
dx="0,0,0,0,0,0,0,0,0,0,0,0,0,0,0,0,0,0,0,0,0,0,0,0,0,0,0" 
class="s14_269"
>blue; consult a dictionary </text>

<text 
x="385" 
y="1055" 
dx="0,0,0,0,0,0,0,0,0,0,0,0,-1,0,0,0,0,0,0,0,0,0,0" 
class="s14_269"
>if necessary. Consider </text>

<text 
x="385" 
y="1073" 
dx="0,0,0,0,0,0,0,0,0,0,0,-0.2,0,-0.1,0,0,0,0,0,0" 
class="s14_269"
>how the literal and </text>

<text 
x="385" 
y="1091" 
dx="0,-0.3,-0.3,-0.2,0,0,0,0,0,0,0,0,0,0,0,0,0,0,-0.2,0" 
class="s14_269"
>extended senses are </text>

<text 
x="385" 
y="1110" 
dx="0,-0.2,0,0,0,-0.2,0,0,0,0,0,0,0,0,0,0,0,0,0,0,0" 
class="s14_269"
>related in each case.</text>

<path d="M366.8,955.5l0,-56.3l-264.9,0L83.6,917.5l0,38.1Z" class="g4_269" />
<text 
x="192" 
y="937" 
dx="0,0" 
class="s15_269"
>良好</text>

<text 
x="94" 
y="989" 
dx="0,0,0,0,0,0,0,0,0,0" 
class="s16_269"
>学生宿舍太吵，可是学</text>

<text 
x="94" 
y="1016" 
dx="0,0,0,0,0,0,0,0,0,0" 
class="s16_269"
>校还没有找到解决这个</text>

<text 
x="94" 
y="1044" 
dx="0,0,0" 
class="s16_269"
>问题的</text>

<text 
x="172" 
y="1044" 
dx="0,0" 
class="s17_269"
>良药</text>

<text 
x="224" 
y="1044" 
dx="0" 
class="s16_269"
>。</text>

<text 
x="94" 
y="1102" 
dx="0,0,0,0,0,0,0,0,0,0" 
class="s16_269"
>小张觉得乱花父母的钱</text>

<text 
x="94" 
y="1130" 
dx="0,0,0,0,0,0" 
class="s16_269"
>对不起自己的</text>

<text 
x="250" 
y="1130" 
dx="0,0" 
class="s17_269"
>良心</text>

<text 
x="302" 
y="1130" 
dx="0" 
class="s16_269"
>。</text>

<text 
x="673" 
y="937" 
dx="0,0" 
class="s18_269"
>良好</text>

<text 
x="575" 
y="989" 
dx="0,0,0,0,0,0,0,0,0,0" 
class="s19_269"
>學生宿舍太吵，可是學</text>

<text 
x="575" 
y="1016" 
dx="0,0,0,0,0,0,0,0,0,0" 
class="s19_269"
>校還沒有找到解決這個</text>

<text 
x="575" 
y="1044" 
dx="0,0,0" 
class="s19_269"
>問題的</text>

<text 
x="653" 
y="1044" 
dx="0,0" 
class="s20_269"
>良藥</text>

<text 
x="705" 
y="1044" 
dx="0" 
class="s19_269"
>。</text>

<text 
x="575" 
y="1102" 
dx="0,0,0,0,0,0,0,0,0,0" 
class="s19_269"
>小張覺得亂花父母的錢</text>

<text 
x="575" 
y="1130" 
dx="0,0,0,0,0,0" 
class="s19_269"
>對不起自己的</text>

<text 
x="731" 
y="1130" 
dx="0,0" 
class="s20_269"
>良心</text>

<text 
x="783" 
y="1130" 
dx="0" 
class="s19_269"
>。</text>

<path d="M401.9,873.5l-89.8,0l-15.8,10.6l0,15.1" class="g8_269" />
<path d="M541.2,873.5l99.6,0l16.6,10.6l0,15.1" class="g8_269" />
<path d="M502.1,857.2c-1.5,3,-2.7,5.4,-5.2,10.9l-19.7,43.2l-0.7,0L465.2,886.6l-11.3,24.7l-0.9,0L432.9,867.9c-2,-4.3,-3.7,-7.7,-5.5,-10.7l7.7,0c0.8,2.5,2.2,5.7,3.9,9.2l15.2,34.1l8.4,-19.7L456.7,868c-2.5,-5.6,-3.5,-7.8,-5.5,-10.8l7.2,0c0.9,2.5,1.7,4.6,4.3,10.1l2.9,6.7l2.9,-6.9c2.2,-5,3.2,-7.5,4,-9.9l6.7,0c-1.1,1.6,-2.8,5.2,-5.4,10.8l-5.6,12.1l8.8,20.1l14.1,-32.9c2.7,-5.7,3.6,-8.2,4.2,-10.1Z" class="g9_269" />
<path d="M503.4,888.7c6.3,0,11.2,5.1,11.2,11.2c0,6.2,-4.9,11.3,-11.2,11.3c-6.2,0,-11.2,-5.1,-11.2,-11.3c0,-6.1,5,-11.2,11.2,-11.2m0,20.2c4.8,0,8.6,-4,8.6,-9c0,-4.9,-3.8,-9,-8.6,-9c-4.7,0,-8.5,4.1,-8.5,9c0,5,3.8,9,8.5,9Z" class="g9_269" />
<path d="M519.2,905.3c0,2.2,0.1,4.5,0.2,5.5l-2.9,0c0.1,-1,0.2,-3.3,0.2,-5.5l0,-10.5c0,-2.2,-0.1,-4.8,-0.2,-5.7l4.6,0c4.8,0,7.4,2.7,7.4,6.3c0,3.4,-2.1,5.2,-4.3,5.9c2.3,2.8,5,7.1,7.5,9.5l-3.5,0c-1.8,-2.3,-4.4,-5.9,-6.2,-9.1c-0.4,0.1,-0.7,0.1,-1.1,0.1l-1.7,0Zm0,-5.4l2.1,0c2.6,0,4.6,-1.8,4.6,-4.4c0,-2.3,-1.6,-4.3,-4.9,-4.3l-1.8,0Z" class="g9_269" />
<path d="M532.5,910.8c0.1,-1,0.1,-3.5,0.1,-5.7l0,-10.3c0,-2.2,0,-4.7,-0.1,-5.7l6.1,0c6,0,10.9,4.8,10.9,10.8c0,6,-4.9,10.9,-10.9,10.9Zm2.7,-2.1l3.2,0c4.7,0,8.4,-4,8.4,-8.8c0,-4.7,-3.7,-8.7,-8.4,-8.7l-3.2,0Z" class="g9_269" />
<path d="M560.8,905.1c0,3.6,-2.7,6.2,-6.6,6.2c-2.1,0,-3.3,-0.6,-4.9,-0.8l0,-3.6c0.8,1.3,2.8,2.3,5,2.3c2.3,0,3.7,-1.6,3.7,-3.8c0,-4.7,-8.1,-4.6,-8.1,-10.9c0,-3.7,2.7,-5.8,6.3,-5.8c1.6,0,2.7,0.4,4,0.6l0,3.4c-0.6,-1.4,-2.2,-2,-4,-2c-2.1,0,-3.6,1.2,-3.6,3.5c0,4.5,8.2,4.6,8.2,10.9Z" class="g9_269" />
<path d="M503.3,878.2l2.2,0c0.2,0,0.4,-0.1,0.5,-0.3l1.8,-5.1c0,-0.1,0.1,-0.2,0.3,-0.2l7.8,0c0.1,0,0.1,0,0.2,0.1c0,0,0.1,0.1,0.1,0.2l1.8,5c0.1,0.2,0.2,0.3,0.5,0.3l2.6,0c0.2,0,0.3,-0.1,0.3,-0.4c0,-0.1,0,-0.1,0,-0.2l-7.1,-19.7c-0.1,-0.3,-0.3,-0.5,-0.7,-0.5l-2.8,0c-0.2,0,-0.3,0.1,-0.4,0.1c-0.1,0.1,-0.2,0.2,-0.2,0.4L503,877.6l0,0.3c0,0.2,0.1,0.3,0.3,0.3m5.6,-8.2c-0.1,0,-0.2,-0.1,-0.2,-0.2l0,-0.2l3.1,-8.4c0.1,-0.1,0.1,-0.2,0.2,-0.2c0.1,0,0.1,0.1,0.2,0.2l3,8.4c0.1,0.1,0.1,0.2,0,0.3c0,0.1,-0.1,0.1,-0.2,0.1Zm28.7,-12.6l-2.2,0c-0.2,0,-0.4,0.1,-0.5,0.1c0,0.1,-0.1,0.2,-0.2,0.3l-4.8,8.5c-0.1,0.2,-0.2,0.3,-0.3,0.3c-0.1,0,-0.2,-0.1,-0.3,-0.4l-4.9,-8.4c-0.1,-0.1,-0.2,-0.2,-0.2,-0.3c-0.1,0,-0.3,-0.1,-0.5,-0.1l-2.6,0c-0.3,0,-0.5,0.1,-0.5,0.3c0,0.1,0.1,0.2,0.1,0.3l6.7,11.2c0.1,0.2,0.2,0.3,0.2,0.4c0.1,0.1,0.1,0.2,0.1,0.4l0,7.7c0,0.3,0.1,0.5,0.5,0.5l2.2,0c0.3,0,0.4,-0.1,0.5,-0.1c0.1,-0.1,0.1,-0.3,0.1,-0.5l0,-7.6c0,-0.3,0.1,-0.6,0.1,-0.7c0,-0.1,0.1,-0.3,0.1,-0.4l6.7,-11c0,-0.1,0.1,-0.3,0,-0.3c-0.1,-0.1,-0.2,-0.2,-0.3,-0.2Z" class="g9_269" />
<path d="M407.4,878.2l1.5,0c0.2,0,0.3,-0.1,0.4,-0.2l1.2,-3.5c0.1,-0.1,0.1,-0.2,0.3,-0.2l5.3,0c0.1,0,0.2,0,0.2,0.1l0.1,0.1l1.2,3.5c0.1,0.1,0.2,0.2,0.3,0.2l1.9,0c0.1,0,0.2,-0.1,0.2,-0.3c0,0,0,-0.1,0,-0.1l-4.9,-13.7c-0.1,-0.2,-0.3,-0.3,-0.5,-0.3l-2,0c-0.1,0,-0.2,0,-0.3,0c0,0.1,-0.1,0.2,-0.1,0.3l-5,13.7l0,0.2c0,0.1,0.1,0.2,0.2,0.2m3.9,-5.7c-0.1,0,-0.2,-0.1,-0.2,-0.1l0.1,-0.2l2.1,-5.8c0.1,-0.1,0.1,-0.1,0.2,-0.1c0,0,0.1,0,0.1,0.1l2.1,5.8c0,0.1,0,0.2,0,0.2c0,0.1,-0.1,0.1,-0.2,0.1Z" class="g9_269" />
<path d="M396.6,894.2l-1.1,0c-0.3,0,-0.4,0.1,-0.4,0.2l-3.8,13.5c-0.1,0.2,-0.1,0.2,-0.2,0.2c0,0,-0.1,0,-0.1,-0.2l-3.8,-13.4c0,-0.1,-0.1,-0.2,-0.1,-0.3c-0.1,0,-0.2,0,-0.3,0l-1.3,0c-0.2,0,-0.4,0.1,-0.4,0.2l-3.8,13.5c-0.1,0.1,-0.1,0.2,-0.2,0.2c0,0,-0.1,-0.1,-0.1,-0.2l-3.8,-13.4c0,-0.2,-0.1,-0.3,-0.4,-0.3l-1.4,0c-0.3,0,-0.4,0.1,-0.4,0.3c0,0,0,0.1,0,0.1l4.7,16.3c0.1,0.3,0.3,0.4,0.5,0.4l1.5,0c0.1,0,0.2,-0.1,0.3,-0.1c0.1,-0.1,0.2,-0.2,0.2,-0.3l3.7,-13c0.1,-0.2,0.1,-0.2,0.2,0l3.6,13c0.1,0.3,0.3,0.4,0.6,0.4l1.4,0c0.1,0,0.2,-0.1,0.3,-0.1c0.1,-0.1,0.2,-0.2,0.2,-0.3l4.7,-16.3c0.1,-0.1,0,-0.2,0,-0.3c-0.1,-0.1,-0.2,-0.1,-0.3,-0.1m3.9,0c-0.2,0,-0.3,0.1,-0.3,0.3l0,16.4c0,0.2,0,0.2,0.1,0.3c0,0,0.1,0.1,0.3,0.1l1.4,0c0.2,0,0.3,-0.1,0.3,-0.1c0.1,-0.1,0.1,-0.2,0.1,-0.3l0,-16.4c0,-0.2,-0.1,-0.3,-0.3,-0.3Zm5.1,1.4c0,0.1,0,0.2,0.1,0.2c0,0.1,0.1,0.1,0.2,0.1l5,0c0.1,0,0.2,0,0.2,0c0,0,0,0.1,0,0.2l0,14.9c0,0.2,0.1,0.3,0.3,0.3l1.7,0c0.2,0,0.3,-0.1,0.3,-0.3l0,-14.9c0,-0.1,0,-0.2,0,-0.2c0,0,0.1,0,0.2,0l4.7,0c0.1,0,0.1,0,0.2,-0.1c0,0,0,-0.1,0,-0.2l0,-1.2c0,-0.1,0,-0.2,-0.2,-0.2l-12.4,0c-0.2,0,-0.3,0.1,-0.3,0.2Zm26.2,7.7c0.1,0,0.2,0,0.2,0.2l0,7.4c0,0.1,0,0.2,0.1,0.3c0,0,0.1,0.1,0.3,0.1l1.4,0c0.3,0,0.4,-0.1,0.4,-0.4l0,-16.4c0,-0.1,0,-0.2,-0.1,-0.2c0,-0.1,-0.1,-0.1,-0.2,-0.1l-1.7,0c-0.2,0,-0.2,0.1,-0.2,0.3l0,6.8c0,0.1,-0.1,0.2,-0.3,0.2l-7.5,0c-0.1,0,-0.2,0,-0.2,0c0,-0.1,-0.1,-0.1,-0.1,-0.2l0,-6.8c0,-0.2,-0.1,-0.3,-0.2,-0.3l-1.7,0c-0.2,0,-0.3,0.1,-0.3,0.3l0,16.4c0,0.2,0,0.2,0.1,0.3c0,0,0.1,0.1,0.2,0.1l1.5,0c0.2,0,0.3,-0.1,0.3,-0.1c0.1,-0.1,0.1,-0.2,0.1,-0.3l0,-7.4c0,-0.1,0,-0.1,0.1,-0.2c0,0,0.1,0,0.1,0Z" class="g9_269" />
<path d="M-17.5,1209.2l58,0l0,-1222.1l-58,0l0,1222.1Z" class="g10_269" />
<text 
transform="matrix(0, -1, 1, 0, 31, 1173)"
dx="0,1,1,1" 
class="s21_269"
>246 </text>

<text 
transform="matrix(0, -1, 1, 0, 31, 1128)"
dx="0,1,1,0.8,1,1,0.9,1,0.8,1,1,1,1,1,1,1,1,1,1,1,1" 
class="s21_269"
>Integrated Chinese 3 </text>

<text 
transform="matrix(0, -1, 1, 0, 31, 988)"
dx="0,1" 
class="s21_269"
>| </text>

<text 
transform="matrix(0, -1, 1, 0, 31, 974)"
dx="0,-0.2,0.7,0.7,1,1,1,1" 
class="s21_269"
>Textbook</text>



<!-- Any embedded fonts defined here -->
<style type="text/css" ><![CDATA[

@font-face {
	font-family: STKaiti-SC-Bold_3oi;
	src: url("fonts/STKaiti-SC-Bold_3oi.woff") format("woff");
}

@font-face {
	font-family: STKaiTi-TC-Bold_3op;
	src: url("fonts/STKaiTi-TC-Bold_3op.woff") format("woff");
}

@font-face {
	font-family: LibreFranklin-Bold_415;
	src: url("fonts/LibreFranklin-Bold_415.woff") format("woff");
}

@font-face {
	font-family: LibreFranklin-Medium_41a;
	src: url("fonts/LibreFranklin-Medium_41a.woff") format("woff");
}

@font-face {
	font-family: STKaiTi-TC-Regular_3pl;
	src: url("fonts/STKaiTi-TC-Regular_3pl.woff") format("woff");
}

@font-face {
	font-family: STKaiti-SC-Regular_3pn;
	src: url("fonts/STKaiti-SC-Regular_3pn.woff") format("woff");
}

@font-face {
	font-family: LibreFranklin-SemiBold_41h;
	src: url("fonts/LibreFranklin-SemiBold_41h.woff") format("woff");
}

@font-face {
	font-family: LibreFranklin-ExtraBold_414;
	src: url("fonts/LibreFranklin-ExtraBold_414.woff") format("woff");
}

@font-face {
	font-family: LibreFranklin-Regular_41f;
	src: url("fonts/LibreFranklin-Regular_41f.woff") format("woff");
}

]]></style>

</svg>
