<?xml version="1.0" encoding="UTF-8" standalone="no"?>
<!DOCTYPE svg PUBLIC "-//W3C//DTD SVG 1.1//EN"
"http://www.w3.org/Graphics/SVG/1.1/DTD/svg11.dtd">


<!-- Page 115 -->
<svg x="0" y="0" width="921" height="1196" viewBox="0 0 921 1196" version="1.1" xmlns="http://www.w3.org/2000/svg" xmlns:xlink="http://www.w3.org/1999/xlink"
style="display: block;margin-left: auto;margin-right: auto;">
<defs>
<clipPath id="c0_115"><path d="M0,1196.3L0,0L921.3,0l0,1196.3Z" /></clipPath>
<clipPath id="c1_115"><path d="M35.1,482l0,-359.9l804.8,0l0,359.9Z" /></clipPath>
<clipPath id="c2_115"><path d="M358.6,482l0,-359.9l523.7,0l0,359.9Z" /></clipPath>
<clipPath id="c3_115"><path d="M35.1,823.6l0,-172l804.8,0l0,172Z" /></clipPath>
<clipPath id="c4_115"><path d="M358.6,823.6l0,-172l523.7,0l0,172Z" /></clipPath>
<clipPath id="c5_115"><path d="M35.1,654l0,-172l804.8,0l0,172Z" /></clipPath>
<clipPath id="c6_115"><path d="M358.6,654l0,-172l523.7,0l0,172Z" /></clipPath>
<clipPath id="c7_115"><path d="M35,1146.7L35,810.5l804.7,0l0,336.2Z" /></clipPath>
<clipPath id="c8_115"><path d="M358.5,1146.7l0,-336.2l523.6,0l0,336.2Z" /></clipPath>

<style type="text/css"><![CDATA[

.g1_115{
fill: #C2212E;
}
.g2_115{
fill: #FCBA17;
fill-opacity: 0.5;
}
.g3_115{
fill: #FFFEF8;
}
.g4_115{
fill: #BF1F2D;
}
.g5_115{
fill: none;
stroke: #FFD94D;
stroke-width: 2.1679168;
stroke-linecap: butt;
stroke-linejoin: miter;
stroke-miterlimit: 4;
}
.g6_115{
fill: none;
stroke: #FFD94D;
stroke-width: 0.7241667;
stroke-linecap: butt;
stroke-linejoin: miter;
stroke-miterlimit: 4;
}

.s1_115{
font-size: 29.03px;
font-family: MuseoSlab-900_3uq;
fill: #FFD94D;
}
.s2_115{
font-size: 13.75px;
font-family: LibreFranklin-Medium_3um;
fill: #231F20;
}
.s3_115{
font-size: 22.92px;
font-family: STKaiti-SC-Bold_3oi;
fill: #DC262E;
}
.s4_115{
font-size: 22.92px;
font-family: STKaiTi-TC-Bold_3op;
fill: #DC262E;
}
.s5_115{
font-size: 14.51px;
font-family: GentiumBookBasic-Italic_3o-;
fill: #231F20;
}
.s6_115{
font-size: 14.51px;
font-family: GentiumBookBasic-Italic_3vc;
fill: #231F20;
}
.s7_115{
font-size: 11.46px;
font-family: LibreFranklin-SemiBold_3u_;
fill: #FFFFFF;
}

]]></style>

</defs>
<path d="M0,0
L0,1196
L921,1196
L921,0 Z " 
fill="#FFFFFF" stroke="none" />
<path d="M0,1196.3l921.3,0L921.3,0L0,0L0,1196.3Z" class="g1_115" />
<image preserveAspectRatio="none" x="0" y="-19" width="1872" height="1231" opacity="0.5" style="mix-blend-mode: multiply;" xlink:href="115/img/1.png" />
<g clip-path="url(#c0_115)">
<path d="M142.5,872.2l31.7,0c0,0,-6.4,82.1,-88.7,82.1c-82.3,0,-89,-82.1,-89,-82.1l31.8,0l0,-9.9l-31.8,0c0,0,1.1,-84.4,89.3,-84.4c88.4,0,88.4,84.4,88.4,84.4l-31.7,0ZM4.4,878.5c0,0,14.2,69.2,81.4,69.2c67.3,0,80.8,-69.2,80.8,-69.2l-71.2,0l0,53.1c32.6,-1.4,50.8,-39.3,50.8,-39.3l-35,0l0,16.2c4.3,-0.7,8.6,-6.3,8.6,-6.3l8.9,0C123.4,917.7,105,921,105,921l0,-34.3l50.4,0c-16.8,54.8,-65,53.8,-65,53.8l0,-16.2l-10.8,0l0,16.2C26.8,934.5,15.3,886.7,15.3,886.7l49.1,0l0,34.6c-11.2,0.4,-25,-19.4,-25,-19.4l9.8,0c1.7,4.9,7.6,6.3,7.6,6.3l0,-15.5l-32.3,0C44,933.5,73,930.6,73,930.6l0,-52.1ZM37,862.3l0,9.9l42.6,0l0,43.9l11,0l0,-43.9l42.4,0l0,-9.9l-42.4,0l0,-45.4l-11,0l0,45.4Zm129.6,-7.9c0,0,-13.5,-69.2,-80.8,-69.2c-67.2,0,-81.4,69.2,-81.4,69.2l68.6,0l0,-52c0,0,-29,-3,-48.5,37.9l32.3,0l0,-15.5c0,0,-5.9,1.3,-7.6,6.2l-9.8,0c0,0,13.8,-19.7,25,-19.4l0,34.6l-49.1,0c0,0,11.5,-47.8,64.3,-53.7l0,16.1l10.8,0l0,-16.1c0,0,48.2,-1,65,53.7l-50.4,0l0,-34.3c0,0,18.4,3.3,23.7,18.8l-8.9,0c0,0,-4.3,-5.6,-8.6,-6.3l0,16.2l35,0c0,0,-18.2,-37.9,-50.8,-39.2l0,53Z" class="g2_115" />
</g>
<path d="M413.3,872.2l31.6,0c0,0,-6.3,82.1,-88.6,82.1c-82.3,0,-89.1,-82.1,-89.1,-82.1l31.8,0l0,-9.9l-31.8,0c0,0,1.1,-84.4,89.4,-84.4c88.3,0,88.3,84.4,88.3,84.4l-31.6,0Zm-138.1,6.3c0,0,14.2,69.2,81.4,69.2c67.2,0,80.8,-69.2,80.8,-69.2l-71.2,0l0,53.1c32.6,-1.4,50.7,-39.3,50.7,-39.3l-34.9,0l0,16.2c4.3,-0.7,8.6,-6.3,8.6,-6.3l8.9,0C394.2,917.7,375.7,921,375.7,921l0,-34.3l50.5,0c-16.9,54.8,-65,53.8,-65,53.8l0,-16.2l-10.9,0l0,16.2c-52.7,-6,-64.2,-53.8,-64.2,-53.8l49.1,0l0,34.6C324,921.7,310.1,901.9,310.1,901.9l9.9,0c1.7,4.9,7.6,6.3,7.6,6.3l0,-15.5l-32.3,0c19.4,40.8,48.4,37.9,48.4,37.9l0,-52.1Zm32.6,-16.2l0,9.9l42.5,0l0,43.9l11,0l0,-43.9l42.4,0l0,-9.9l-42.4,0l0,-45.4l-11,0l0,45.4Zm129.6,-7.9c0,0,-13.6,-69.2,-80.8,-69.2c-67.2,0,-81.4,69.2,-81.4,69.2l68.5,0l0,-52c0,0,-29,-3,-48.4,37.9l32.3,0l0,-15.5c0,0,-5.9,1.3,-7.6,6.2l-9.9,0c0,0,13.9,-19.7,25.1,-19.4l0,34.6l-49.1,0c0,0,11.5,-47.8,64.2,-53.7l0,16.1l10.9,0l0,-16.1c0,0,48.1,-1,65,53.7l-50.5,0l0,-34.3c0,0,18.5,3.3,23.8,18.8l-8.9,0c0,0,-4.3,-5.6,-8.6,-6.3l0,16.2l34.9,0c0,0,-18.1,-37.9,-50.7,-39.2l0,53Z" class="g2_115" />
<path d="M682.5,872.2l31.7,0c0,0,-6.4,82.1,-88.7,82.1c-82.3,0,-89.1,-82.1,-89.1,-82.1l31.9,0l0,-9.9l-31.9,0c0,0,1.1,-84.4,89.4,-84.4c88.4,0,88.4,84.4,88.4,84.4l-31.7,0Zm-138.1,6.3c0,0,14.2,69.2,81.4,69.2c67.3,0,80.8,-69.2,80.8,-69.2l-71.2,0l0,53.1c32.6,-1.4,50.8,-39.3,50.8,-39.3l-35,0l0,16.2c4.3,-0.7,8.6,-6.3,8.6,-6.3l8.9,0C663.4,917.7,645,921,645,921l0,-34.3l50.4,0c-16.8,54.8,-65,53.8,-65,53.8l0,-16.2l-10.8,0l0,16.2c-52.8,-6,-64.3,-53.8,-64.3,-53.8l49.1,0l0,34.6c-11.2,0.4,-25,-19.4,-25,-19.4l9.8,0c1.7,4.9,7.6,6.3,7.6,6.3l0,-15.5l-32.3,0C584,933.5,613,930.6,613,930.6l0,-52.1Zm32.7,-16.2l0,9.9l42.5,0l0,43.9l11,0l0,-43.9l42.4,0l0,-9.9l-42.4,0l0,-45.4l-11,0l0,45.4Zm129.5,-7.9c0,0,-13.5,-69.2,-80.8,-69.2c-67.2,0,-81.4,69.2,-81.4,69.2l68.6,0l0,-52c0,0,-29,-3,-48.5,37.9l32.3,0l0,-15.5c0,0,-5.9,1.3,-7.6,6.2l-9.8,0c0,0,13.8,-19.7,25,-19.4l0,34.6l-49.1,0c0,0,11.5,-47.8,64.3,-53.7l0,16.1l10.8,0l0,-16.1c0,0,48.2,-1,65,53.7l-50.4,0l0,-34.3c0,0,18.4,3.3,23.7,18.8l-8.9,0c0,0,-4.3,-5.6,-8.6,-6.3l0,16.2l35,0c0,0,-18.2,-37.9,-50.8,-39.2l0,53Z" class="g2_115" />
<g clip-path="url(#c0_115)">
<path d="M954.1,872.2l31.7,0c0,0,-6.4,82.1,-88.7,82.1C814.8,954.3,808,872.2,808,872.2l31.9,0l0,-9.9l-31.9,0c0,0,1.1,-84.4,89.4,-84.4c88.4,0,88.4,84.4,88.4,84.4l-31.7,0ZM816,878.5c0,0,14.2,69.2,81.4,69.2c67.3,0,80.8,-69.2,80.8,-69.2l-71.2,0l0,53.1c32.6,-1.4,50.8,-39.3,50.8,-39.3l-35,0l0,16.2c4.3,-0.7,8.6,-6.3,8.6,-6.3l8.9,0C935,917.7,916.6,921,916.6,921l0,-34.3l50.4,0c-16.8,54.8,-65,53.8,-65,53.8l0,-16.2l-10.8,0l0,16.2c-52.8,-6,-64.3,-53.8,-64.3,-53.8l49.1,0l0,34.6c-11.2,0.4,-25,-19.4,-25,-19.4l9.8,0c1.7,4.9,7.6,6.3,7.6,6.3l0,-15.5l-32.3,0c19.5,40.8,48.5,37.9,48.5,37.9l0,-52.1Zm32.6,-16.2l0,9.9l42.6,0l0,43.9l11,0l0,-43.9l42.4,0l0,-9.9l-42.4,0l0,-45.4l-11,0l0,45.4Zm129.6,-7.9c0,0,-13.5,-69.2,-80.8,-69.2c-67.2,0,-81.4,69.2,-81.4,69.2l68.6,0l0,-52c0,0,-29,-3,-48.5,37.9l32.3,0l0,-15.5c0,0,-5.9,1.3,-7.6,6.2l-9.8,0c0,0,13.8,-19.7,25,-19.4l0,34.6l-49.1,0c0,0,11.5,-47.8,64.3,-53.7l0,16.1l10.8,0l0,-16.1c0,0,48.2,-1,65,53.7l-50.4,0l0,-34.3c0,0,18.4,3.3,23.7,18.8l-8.9,0c0,0,-4.3,-5.6,-8.6,-6.3l0,16.2l35,0c0,0,-18.2,-37.9,-50.8,-39.2l0,53Z" class="g2_115" />
<path d="M142.5,387.2l31.7,0c0,0,-6.4,82,-88.7,82c-82.3,0,-89,-82,-89,-82l31.8,0l0,-9.9l-31.8,0c0,0,1.1,-84.5,89.3,-84.5c88.4,0,88.4,84.5,88.4,84.5l-31.7,0ZM4.4,393.4c0,0,14.2,69.2,81.4,69.2c67.3,0,80.8,-69.2,80.8,-69.2l-71.2,0l0,53.1c32.6,-1.3,50.8,-39.2,50.8,-39.2l-35,0l0,16.1c4.3,-0.6,8.6,-6.2,8.6,-6.2l8.9,0C123.4,432.7,105,436,105,436l0,-34.3l50.4,0c-16.8,54.7,-65,53.7,-65,53.7l0,-16.2l-10.8,0l0,16.2C26.8,449.5,15.3,401.7,15.3,401.7l49.1,0l0,34.6c-11.2,0.3,-25,-19.5,-25,-19.5l9.8,0c1.7,5,7.6,6.3,7.6,6.3l0,-15.5l-32.3,0C44,448.5,73,445.5,73,445.5l0,-52.1ZM37,377.3l0,9.9l42.6,0l0,43.8l11,0l0,-43.8l42.4,0l0,-9.9l-42.4,0l0,-45.5l-11,0l0,45.5Zm129.6,-7.9c0,0,-13.5,-69.3,-80.8,-69.3c-67.2,0,-81.4,69.3,-81.4,69.3l68.6,0l0,-52.1c0,0,-29,-3,-48.5,37.9l32.3,0l0,-15.5c0,0,-5.9,1.3,-7.6,6.3l-9.8,0c0,0,13.8,-19.8,25,-19.5l0,34.6l-49.1,0c0,0,11.5,-47.8,64.3,-53.7l0,16.1l10.8,0l0,-16.1c0,0,48.2,-1,65,53.7l-50.4,0l0,-34.3c0,0,18.4,3.3,23.7,18.8l-8.9,0c0,0,-4.3,-5.6,-8.6,-6.2l0,16.1l35,0c0,0,-18.2,-37.9,-50.8,-39.2l0,53.1Z" class="g2_115" />
</g>
<path d="M413.3,387.2l31.6,0c0,0,-6.3,82,-88.6,82c-82.3,0,-89.1,-82,-89.1,-82l31.8,0l0,-9.9l-31.8,0c0,0,1.1,-84.5,89.4,-84.5c88.3,0,88.3,84.5,88.3,84.5l-31.6,0Zm-138.1,6.2c0,0,14.2,69.2,81.4,69.2c67.2,0,80.8,-69.2,80.8,-69.2l-71.2,0l0,53.1c32.6,-1.3,50.7,-39.2,50.7,-39.2l-34.9,0l0,16.1c4.3,-0.6,8.6,-6.2,8.6,-6.2l8.9,0C394.2,432.7,375.7,436,375.7,436l0,-34.3l50.5,0c-16.9,54.7,-65,53.7,-65,53.7l0,-16.2l-10.9,0l0,16.2c-52.7,-5.9,-64.2,-53.7,-64.2,-53.7l49.1,0l0,34.6C324,436.6,310.1,416.8,310.1,416.8l9.9,0c1.7,5,7.6,6.3,7.6,6.3l0,-15.5l-32.3,0c19.4,40.9,48.4,37.9,48.4,37.9l0,-52.1Zm32.6,-16.1l0,9.9l42.5,0l0,43.8l11,0l0,-43.8l42.4,0l0,-9.9l-42.4,0l0,-45.5l-11,0l0,45.5Zm129.6,-7.9c0,0,-13.6,-69.3,-80.8,-69.3c-67.2,0,-81.4,69.3,-81.4,69.3l68.5,0l0,-52.1c0,0,-29,-3,-48.4,37.9l32.3,0l0,-15.5c0,0,-5.9,1.3,-7.6,6.3l-9.9,0c0,0,13.9,-19.8,25.1,-19.5l0,34.6l-49.1,0c0,0,11.5,-47.8,64.2,-53.7l0,16.1l10.9,0l0,-16.1c0,0,48.1,-1,65,53.7l-50.5,0l0,-34.3c0,0,18.5,3.3,23.8,18.8l-8.9,0c0,0,-4.3,-5.6,-8.6,-6.2l0,16.1l34.9,0c0,0,-18.1,-37.9,-50.7,-39.2l0,53.1Z" class="g2_115" />
<path d="M682.5,387.2l31.7,0c0,0,-6.4,82,-88.7,82c-82.3,0,-89.1,-82,-89.1,-82l31.9,0l0,-9.9l-31.9,0c0,0,1.1,-84.5,89.4,-84.5c88.4,0,88.4,84.5,88.4,84.5l-31.7,0Zm-138.1,6.2c0,0,14.2,69.2,81.4,69.2c67.3,0,80.8,-69.2,80.8,-69.2l-71.2,0l0,53.1c32.6,-1.3,50.8,-39.2,50.8,-39.2l-35,0l0,16.1c4.3,-0.6,8.6,-6.2,8.6,-6.2l8.9,0C663.4,432.7,645,436,645,436l0,-34.3l50.4,0c-16.8,54.7,-65,53.7,-65,53.7l0,-16.2l-10.8,0l0,16.2c-52.8,-5.9,-64.3,-53.7,-64.3,-53.7l49.1,0l0,34.6c-11.2,0.3,-25,-19.5,-25,-19.5l9.8,0c1.7,5,7.6,6.3,7.6,6.3l0,-15.5l-32.3,0C584,448.5,613,445.5,613,445.5l0,-52.1Zm32.7,-16.1l0,9.9l42.5,0l0,43.8l11,0l0,-43.8l42.4,0l0,-9.9l-42.4,0l0,-45.5l-11,0l0,45.5Zm129.5,-7.9c0,0,-13.5,-69.3,-80.8,-69.3c-67.2,0,-81.4,69.3,-81.4,69.3l68.6,0l0,-52.1c0,0,-29,-3,-48.5,37.9l32.3,0l0,-15.5c0,0,-5.9,1.3,-7.6,6.3l-9.8,0c0,0,13.8,-19.8,25,-19.5l0,34.6l-49.1,0c0,0,11.5,-47.8,64.3,-53.7l0,16.1l10.8,0l0,-16.1c0,0,48.2,-1,65,53.7l-50.4,0l0,-34.3c0,0,18.4,3.3,23.7,18.8l-8.9,0c0,0,-4.3,-5.6,-8.6,-6.2l0,16.1l35,0c0,0,-18.2,-37.9,-50.8,-39.2l0,53.1Z" class="g2_115" />
<g clip-path="url(#c0_115)">
<path d="M954.1,387.2l31.7,0c0,0,-6.4,82,-88.7,82c-82.3,0,-89.1,-82,-89.1,-82l31.9,0l0,-9.9l-31.9,0c0,0,1.1,-84.5,89.4,-84.5c88.4,0,88.4,84.5,88.4,84.5l-31.7,0ZM816,393.4c0,0,14.2,69.2,81.4,69.2c67.3,0,80.8,-69.2,80.8,-69.2l-71.2,0l0,53.1c32.6,-1.3,50.8,-39.2,50.8,-39.2l-35,0l0,16.1c4.3,-0.6,8.6,-6.2,8.6,-6.2l8.9,0C935,432.7,916.6,436,916.6,436l0,-34.3l50.4,0c-16.8,54.7,-65,53.7,-65,53.7l0,-16.2l-10.8,0l0,16.2c-52.8,-5.9,-64.3,-53.7,-64.3,-53.7l49.1,0l0,34.6c-11.2,0.3,-25,-19.5,-25,-19.5l9.8,0c1.7,5,7.6,6.3,7.6,6.3l0,-15.5l-32.3,0c19.5,40.9,48.5,37.9,48.5,37.9l0,-52.1Zm32.6,-16.1l0,9.9l42.6,0l0,43.8l11,0l0,-43.8l42.4,0l0,-9.9l-42.4,0l0,-45.5l-11,0l0,45.5Zm129.6,-7.9c0,0,-13.5,-69.3,-80.8,-69.3c-67.2,0,-81.4,69.3,-81.4,69.3l68.6,0l0,-52.1c0,0,-29,-3,-48.5,37.9l32.3,0l0,-15.5c0,0,-5.9,1.3,-7.6,6.3l-9.8,0c0,0,13.8,-19.8,25,-19.5l0,34.6l-49.1,0c0,0,11.5,-47.8,64.3,-53.7l0,16.1l10.8,0l0,-16.1c0,0,48.2,-1,65,53.7l-50.4,0l0,-34.3c0,0,18.4,3.3,23.7,18.8l-8.9,0c0,0,-4.3,-5.6,-8.6,-6.2l0,16.1l35,0c0,0,-18.2,-37.9,-50.8,-39.2l0,53.1Z" class="g2_115" />
<path d="M599.6,1102.7l50.5,0c0,0,-10.1,131.2,-141.6,131.2C377,1233.9,366.2,1102.7,366.2,1102.7l50.9,0l0,-15.7l-50.9,0c0,0,1.7,-135,142.8,-135c141.1,0,141.1,135,141.1,135l-50.5,0ZM379,1112.8c0,0,22.6,110.5,130,110.5c107.4,0,129,-110.5,129,-110.5l-113.7,0l0,84.7c52.1,-2.1,81.1,-62.6,81.1,-62.6l-55.8,0l0,25.8c6.8,-1.1,13.7,-10,13.7,-10l14.2,0c-8.4,24.7,-37.9,30,-37.9,30l0,-54.8l80.5,0c-26.8,87.4,-103.7,85.8,-103.7,85.8l0,-25.8l-17.4,0l0,25.8c-84.2,-9.4,-102.6,-85.8,-102.6,-85.8l78.4,0l0,55.3c-17.9,0.5,-40,-31.1,-40,-31.1l15.8,0c2.6,7.9,12.1,10,12.1,10l0,-24.7l-51.6,0c31.1,65.3,77.4,60.5,77.4,60.5l0,-83.1ZM431.1,1087l0,15.7l67.9,0l0,70.1l17.6,0l0,-70.1l67.7,0l0,-15.7l-67.7,0l0,-72.7l-17.6,0l0,72.7ZM638,1074.3c0,0,-21.6,-110.6,-129,-110.6c-107.4,0,-130,110.6,-130,110.6l109.5,0l0,-83.2c0,0,-46.3,-4.7,-77.4,60.6l51.6,0l0,-24.8c0,0,-9.5,2.1,-12.1,10l-15.8,0c0,0,22.1,-31.6,40,-31l0,55.3l-78.4,0c0,0,18.4,-76.4,102.6,-85.9l0,25.8l17.4,0l0,-25.8c0,0,76.9,-1.6,103.7,85.9l-80.5,0l0,-54.8c0,0,29.5,5.3,37.9,30l-14.2,0c0,0,-6.9,-8.9,-13.7,-10l0,25.8l55.8,0c0,0,-29,-60.6,-81.1,-62.7l0,84.8Z" class="g2_115" />
<path d="M1111.8,1102.7l50.5,0c0,0,-10.1,131.2,-141.6,131.2c-131.5,0,-142.4,-131.2,-142.4,-131.2l50.9,0l0,-15.7l-50.9,0c0,0,1.8,-135,142.9,-135c141.1,0,141.1,135,141.1,135l-50.5,0Zm-220.6,10.1c0,0,22.6,110.5,130,110.5c107.4,0,129,-110.5,129,-110.5l-113.7,0l0,84.7c52.1,-2.1,81.1,-62.6,81.1,-62.6l-55.8,0l0,25.8c6.8,-1.1,13.7,-10,13.7,-10l14.2,0c-8.5,24.7,-37.9,30,-37.9,30l0,-54.8l80.5,0c-26.8,87.4,-103.7,85.8,-103.7,85.8l0,-25.8l-17.4,0l0,25.8C927,1202.3,908.5,1125.9,908.5,1125.9l78.5,0l0,55.3c-17.9,0.5,-40,-31.1,-40,-31.1l15.8,0c2.6,7.9,12.1,10,12.1,10l0,-24.7l-51.6,0c31,65.3,77.4,60.5,77.4,60.5l0,-83.1ZM943.3,1087l0,15.7l67.9,0l0,70.1l17.6,0l0,-70.1l67.7,0l0,-15.7l-67.7,0l0,-72.7l-17.6,0l0,72.7Zm206.9,-12.7c0,0,-21.6,-110.6,-129,-110.6c-107.4,0,-130,110.6,-130,110.6l109.5,0l0,-83.2c0,0,-46.4,-4.7,-77.4,60.6l51.6,0l0,-24.8c0,0,-9.5,2.1,-12.1,10l-15.8,0c0,0,22.1,-31.6,40,-31l0,55.3l-78.5,0c0,0,18.5,-76.4,102.7,-85.9l0,25.8l17.4,0l0,-25.8c0,0,76.9,-1.6,103.7,85.9l-80.5,0l0,-54.8c0,0,29.4,5.3,37.9,30l-14.2,0c0,0,-6.9,-8.9,-13.7,-10l0,25.8l55.8,0c0,0,-29,-60.6,-81.1,-62.7l0,84.8Z" class="g2_115" />
<path d="M599.6,118.8l50.5,0c0,0,-10.1,131.1,-141.6,131.1C377,249.9,366.2,118.8,366.2,118.8l50.9,0l0,-15.8l-50.9,0c0,0,1.7,-134.9,142.8,-134.9C650.1,-31.9,650.1,103,650.1,103l-50.5,0ZM379,128.8c0,0,22.6,110.6,130,110.6c107.4,0,129,-110.6,129,-110.6l-113.7,0l0,84.8c52.1,-2.2,81.1,-62.7,81.1,-62.7l-55.8,0l0,25.8c6.8,-1.1,13.7,-10,13.7,-10l14.2,0c-8.4,24.7,-37.9,30,-37.9,30l0,-54.8l80.5,0c-26.8,87.4,-103.7,85.9,-103.7,85.9l0,-25.8L499,202l0,25.8C414.8,218.3,396.4,141.9,396.4,141.9l78.4,0l0,55.3c-17.9,0.6,-40,-31,-40,-31l15.8,0c2.6,7.9,12.1,10,12.1,10l0,-24.8l-51.6,0c31.1,65.3,77.4,60.6,77.4,60.6l0,-83.2ZM431.1,103l0,15.8l67.9,0l0,70l17.6,0l0,-70l67.7,0l0,-15.8l-67.7,0l0,-72.7l-17.6,0l0,72.7ZM638,90.3c0,0,-21.6,-110.4,-129,-110.4C401.6,-20.1,379,90.3,379,90.3l109.5,0l0,-83.2c0,0,-46.3,-4.7,-77.4,60.6l51.6,0l0,-24.7c0,0,-9.5,2.1,-12.1,10l-15.8,0c0,0,22.1,-31.6,40,-31.1l0,55.3l-78.4,0c0,0,18.4,-76.4,102.6,-85.7l0,25.7l17.4,0l0,-25.7c0,0,76.9,-1.6,103.7,85.7l-80.5,0l0,-54.8c0,0,29.5,5.3,37.9,30l-14.2,0c0,0,-6.9,-8.9,-13.7,-10l0,25.8l55.8,0c0,0,-29,-60.5,-81.1,-62.6l0,84.7Z" class="g2_115" />
<path d="M1111.8,118.8l50.5,0c0,0,-10.1,131.1,-141.6,131.1C889.2,249.9,878.3,118.8,878.3,118.8l50.9,0l0,-15.8l-50.9,0c0,0,1.8,-134.9,142.9,-134.9c141.1,0,141.1,134.9,141.1,134.9l-50.5,0Zm-220.6,10c0,0,22.6,110.6,130,110.6c107.4,0,129,-110.6,129,-110.6l-113.7,0l0,84.8c52.1,-2.2,81.1,-62.7,81.1,-62.7l-55.8,0l0,25.8c6.8,-1.1,13.7,-10,13.7,-10l14.2,0c-8.5,24.7,-37.9,30,-37.9,30l0,-54.8l80.5,0c-26.8,87.4,-103.7,85.9,-103.7,85.9l0,-25.8l-17.4,0l0,25.8C927,218.3,908.5,141.9,908.5,141.9l78.5,0l0,55.3c-17.9,0.6,-40,-31,-40,-31l15.8,0c2.6,7.9,12.1,10,12.1,10l0,-24.8l-51.6,0c31,65.3,77.4,60.6,77.4,60.6l0,-83.2ZM943.3,103l0,15.8l67.9,0l0,70l17.6,0l0,-70l67.7,0l0,-15.8l-67.7,0l0,-72.7l-17.6,0l0,72.7ZM1150.2,90.3c0,0,-21.6,-110.4,-129,-110.4c-107.4,0,-130,110.4,-130,110.4l109.5,0l0,-83.2c0,0,-46.4,-4.7,-77.4,60.6l51.6,0l0,-24.7c0,0,-9.5,2.1,-12.1,10L947,53c0,0,22.1,-31.6,40,-31.1l0,55.3l-78.5,0c0,0,18.5,-76.4,102.7,-85.7l0,25.7l17.4,0l0,-25.7c0,0,76.9,-1.6,103.7,85.7l-80.5,0l0,-54.8c0,0,29.4,5.3,37.9,30l-14.2,0c0,0,-6.9,-8.9,-13.7,-10l0,25.8l55.8,0c0,0,-29,-60.5,-81.1,-62.6l0,84.7Z" class="g2_115" />
</g>
<path d="M313.2,625.2l50.5,0c0,0,-10.2,131.1,-141.6,131.1C90.6,756.3,79.7,625.2,79.7,625.2l50.9,0l0,-15.8l-50.9,0c0,0,1.8,-134.9,142.9,-134.9c141.1,0,141.1,134.9,141.1,134.9l-50.5,0Zm-220.7,10c0,0,22.7,110.6,130.1,110.6c107.4,0,129,-110.6,129,-110.6l-113.7,0l0,84.8C290,717.9,319,657.4,319,657.4l-55.9,0l0,25.8c6.9,-1.1,13.7,-10.1,13.7,-10.1l14.2,0c-8.4,24.8,-37.9,30.1,-37.9,30.1l0,-54.8l80.6,0C306.8,735.8,230,734.2,230,734.2l0,-25.8l-17.4,0l0,25.8C128.3,724.7,109.9,648.4,109.9,648.4l78.5,0l0,55.3c-17.9,0.5,-40,-31.1,-40,-31.1l15.7,0c2.7,7.9,12.2,10,12.2,10l0,-24.7l-51.6,0c31,65.3,77.4,60.5,77.4,60.5l0,-83.2Zm52.2,-25.8l0,15.8l67.9,0l0,70.1l17.5,0l0,-70.1l67.8,0l0,-15.8l-67.8,0l0,-72.6l-17.5,0l0,72.6ZM351.6,596.8c0,0,-21.6,-110.6,-129,-110.6C115.2,486.2,92.5,596.8,92.5,596.8l109.6,0l0,-83.2c0,0,-46.4,-4.7,-77.4,60.6l51.6,0l0,-24.8c0,0,-9.5,2.1,-12.2,10l-15.7,0c0,0,22.1,-31.6,40,-31.1l0,55.3l-78.5,0c0,0,18.4,-76.3,102.7,-85.8l0,25.8l17.4,0l0,-25.8c0,0,76.8,-1.6,103.7,85.8l-80.6,0l0,-54.7c0,0,29.5,5.2,37.9,30l-14.2,0c0,0,-6.8,-9,-13.7,-10l0,25.8l55.9,0c0,0,-29,-60.6,-81.1,-62.7l0,84.8Z" class="g2_115" />
<path d="M825.3,625.2l50.6,0c0,0,-10.2,131.1,-141.6,131.1C602.8,756.3,591.9,625.2,591.9,625.2l50.9,0l0,-15.8l-50.9,0c0,0,1.8,-134.9,142.9,-134.9c141.1,0,141.1,134.9,141.1,134.9l-50.6,0Zm-220.6,10c0,0,22.7,110.6,130.1,110.6c107.4,0,129,-110.6,129,-110.6l-113.8,0l0,84.8c52.2,-2.1,81.1,-62.6,81.1,-62.6l-55.8,0l0,25.8c6.9,-1.1,13.7,-10.1,13.7,-10.1l14.2,0c-8.4,24.8,-37.9,30.1,-37.9,30.1l0,-54.8l80.6,0C819,735.8,742.1,734.2,742.1,734.2l0,-25.8l-17.3,0l0,25.8C640.5,724.7,622.1,648.4,622.1,648.4l78.5,0l0,55.3c-17.9,0.5,-40.1,-31.1,-40.1,-31.1l15.8,0c2.7,7.9,12.1,10,12.1,10l0,-24.7l-51.6,0c31.1,65.3,77.4,60.5,77.4,60.5l0,-83.2Zm52.2,-25.8l0,15.8l67.9,0l0,70.1l17.5,0l0,-70.1l67.8,0l0,-15.8l-67.8,0l0,-72.6l-17.5,0l0,72.6ZM863.8,596.8c0,0,-21.6,-110.6,-129,-110.6c-107.4,0,-130.1,110.6,-130.1,110.6l109.5,0l0,-83.2c0,0,-46.3,-4.7,-77.4,60.6l51.6,0l0,-24.8c0,0,-9.4,2.1,-12.1,10l-15.8,0c0,0,22.2,-31.6,40.1,-31.1l0,55.3l-78.5,0c0,0,18.4,-76.3,102.7,-85.8l0,25.8l17.3,0l0,-25.8c0,0,76.9,-1.6,103.8,85.8l-80.6,0l0,-54.7c0,0,29.5,5.2,37.9,30l-14.2,0c0,0,-6.8,-9,-13.7,-10l0,25.8l55.8,0c0,0,-28.9,-60.6,-81.1,-62.7l0,84.8Z" class="g2_115" />
<path d="M35.1,482l804.8,0l0,-359.9l-804.8,0l0,359.9Z" class="g3_115" />
<path d="M59.7,482l5.4,0l0,-84.5l-5.4,0l0,84.5Z" class="g4_115" />
<path d="M65.1,398l0,-180.5l51.4,0l0,-70l-56.8,0l0,56.1l48.6,0l0,-5.1l-43.2,0l0,-45.9l46.6,0l0,59.2l-52,0l0,186.2Z" class="g4_115" />
<path d="M837.6,152.6l-706.5,0l0,51l-12.4,0l0,-5.4l6.3,0l0,-51l712.6,0Z" class="g4_115" />
<path d="M121.9,209l8.2,0l0,8.5l-8.2,0l0,-8.5Z" class="g4_115" />
<path d="M100.5,237.3c0,0,-1,3.4,-3.8,2.7C94,239.3,94,235.9,94,235.9c0,0,0,-5.2,5.8,-5.4c4.9,-0.2,5.8,4,5.8,6.8c0,2.7,-1.7,9.4,-9.2,9.1c-8.9,-0.3,-8.9,-10.8,-8.9,-10.8c0,0,0,-11.9,11.6,-12.3c8.2,-0.2,13.3,5.1,13.3,13.3c0,8.1,-3.8,17.8,-18.1,19.4l0,8.1c0,0,-19.7,1,-20,17.7c0,0,-0.8,8.4,7.8,7.8c5.1,-0.3,5.4,-6.4,5.4,-6.4c0,0,-0.6,-4.5,-4.4,-5.1c-3.7,-0.7,-1.7,3.4,1,3.7c0,0,2.8,5.1,-2,4.4C77.3,285.5,78,282.8,78,281.1c0,-1.7,1.7,-5.8,5.5,-5.8c3.7,0,7.1,2.4,7.1,8.2c0,5.8,-6.1,9.5,-10.6,9.2c-4.4,-0.4,-9.1,-5.1,-8.5,-12.3c0.7,-7.1,3.4,-15.3,19.4,-20L91.3,256c0,0,-11.9,1.7,-20.8,13.6l0,-46.6l21.8,0l-4.1,3.7l-14.6,0l0,34.7c0,0,7.5,-6.5,13.3,-8.2c0,0,-6.7,-6.2,-5.1,-19.3l-2.4,0l0,19.3L76.6,256l0,-25.5l7.9,0c0,0,-2.7,22.1,10.2,22.1c12.9,0,15,-10.6,15,-16c0,-5.5,-3.4,-10.2,-10.9,-10.2c-7.2,0,-8.2,6.8,-8.2,10.5c0,3.8,2.4,6.8,6.8,6.8c5.3,0,5.5,-6.8,5.5,-6.8c0,0,-0.6,-4.6,-4.1,-3.4c0,0,-1.2,0.5,-1.2,2.6c0,2,2,-2.4,2.9,1.2Z" class="g4_115" />
<path d="M71.5,288.9c0,0,7.2,8.2,7.2,14.3c0,6.2,-6.5,3.8,-6.1,0.7c0,0,3.7,1.7,3.4,-3.1c-0.4,-4.7,-5.5,-8.1,-4.5,-11.9Z" class="g4_115" />
<path d="M150.5,187.3c0,0,3.4,-1,2.7,-3.8c-0.6,-2.7,-4,-2.7,-4,-2.7c0,0,-5.3,0,-5.5,5.8c-0.2,4.9,4.1,5.8,6.8,5.8c2.7,0,9.5,-1.7,9.2,-9.2c-0.3,-8.8,-10.9,-8.8,-10.9,-8.8c0,0,-11.9,0,-12.2,11.5c-0.3,8.2,5.1,13.3,13.2,13.3c8.2,0,17.9,-3.8,19.4,-18l8.2,0c0,0,1,-19.8,17.7,-20.1c0,0,8.4,-0.7,7.9,7.8c-0.4,5.1,-6.5,5.5,-6.5,5.5c0,0,-4.4,-0.7,-5.1,-4.5c-0.7,-3.7,3.4,-1.7,3.7,1.1c0,0,5.1,2.7,4.4,-2.1c-0.6,-4.7,-3.4,-4.1,-5.1,-4.1c-1.7,0,-5.7,1.7,-5.7,5.5c0,3.7,2.3,7.1,8.1,7.1c5.8,0,9.6,-6.1,9.2,-10.5c-0.3,-4.4,-5.1,-9.2,-12.2,-8.5c-7.2,0.7,-15.4,3.4,-20.1,19.4l-4.5,0.3c0,0,1.7,-11.9,13.7,-20.7l-46.7,0l0,21.7L140,175l0,-14.6l34.7,0c0,0,-6.5,7.5,-8.2,13.3c0,0,-6.3,-6.7,-19.4,-5.1l0,-2.4l19.4,0l2.7,-2.7l-25.5,0l0,7.8c0,0,22.1,-2.7,22.1,10.2c0,12.9,-10.5,15,-16,15c-5.4,0,-10.2,-3.4,-10.2,-10.9c0,-7.2,6.8,-8.2,10.6,-8.2c3.7,0,6.8,2.4,6.8,6.8c0,5.3,-6.8,5.5,-6.8,5.5c0,0,-4.6,-0.5,-3.4,-4.1c0,0,0.5,-1.2,2.5,-1.2c2.1,0,-2.4,2,1.2,2.9Z" class="g4_115" />
<path d="M202.3,158.4c0,0,8.1,7.1,14.3,7.1c6.1,0,3.7,-6.4,0.7,-6.1c0,0,1.7,3.7,-3.1,3.4c-4.8,-0.3,-8.2,-5.4,-11.9,-4.4Z" class="g4_115" />
<g clip-path="url(#c1_115)">
<path d="M837.6,152.6l100,0l0,51l12.5,0l0,-5.4l-6.3,0l0,-51l-106.2,0Z" class="g4_115" />
</g>
<path d="M105.4,177.3c-0.1,0.3,-0.1,0.6,-0.1,0.9l0,0.2l-12,0l0,9.4l0.1,1.9l0.8,-0.1c3.2,-0.5,7.5,-5.9,7.5,-7.3c0,-0.4,-0.4,-0.8,-0.9,-0.8l-4.5,0l0,1.7l3.1,0l-0.3,0.4c-0.9,1.2,-2.3,2.9,-3.7,3.7L95,187.6l0,-7.5l10,0l-0.1,0.3c-1.6,6.4,-6.5,11.3,-12.9,13l-0.3,0.1l0,-16.4l13.7,0ZM90,175.3l-1.5,0l0,-17l0.3,0c0.3,0,0.7,0,1,0.1l0.2,0Zm0,18.5l-0.2,0c-0.3,0,-0.7,0.1,-1,0.1l-0.3,0l0,-16.8l1.5,0Zm1.7,-35.1l0.3,0.1c6.4,1.6,11.3,6.6,12.9,12.9l0.1,0.4l-10,0l0,-7.5l0.4,0.3c1.4,0.8,2.8,2.5,3.7,3.7l0.3,0.4l-3.1,0l0,1.7l4.5,0c0.5,0,0.9,-0.4,0.9,-0.8c0,-1.4,-4.3,-6.8,-7.5,-7.3l-0.8,-0.1l-0.1,1.9l0,9.4l12,0l0,0.2c0,0.4,0.1,0.7,0.1,1.1l0,0.2l-13.7,0Zm-4.9,16.6l-1.7,0l0,-16.9l0.2,0c0.4,-0.1,0.8,-0.1,1.2,-0.1l0.3,0Zm0,18.6l-0.3,0c-0.4,0,-0.8,0,-1.2,-0.1l-0.2,0l0,-16.7l1.7,0ZM83.3,175.3l-13.6,0l0,-0.2c0.1,-0.4,0.1,-0.7,0.1,-1.1l0.1,-0.2l12.2,0l0,-9.4L82,162.5l-0.8,0.1c-3.3,0.5,-7.5,5.9,-7.5,7.3c0,0.4,0.4,0.8,0.8,0.8l4.6,0l0,-1.7l-3.2,0l0.3,-0.4c0.9,-1.2,2.4,-2.9,3.8,-3.7l0.3,-0.3l0,7.5l-10.1,0l0,-0.4c1.6,-6.3,6.5,-11.2,12.8,-12.9l0.3,-0.1Zm0,18.1l-0.3,0c-6.3,-1.7,-11.2,-6.6,-12.8,-13l0,-0.3l10.1,0l0,7.5L80,187.3c-1.4,-0.8,-2.9,-2.5,-3.8,-3.7l-0.3,-0.4l3.2,0l0,-1.7l-4.6,0c-0.4,0,-0.8,0.4,-0.8,0.8c0,1.4,4.2,6.8,7.5,7.3l0.8,0.1l0.1,-1.9l0,-9.4l-12.2,0l-0.1,-0.2c0,-0.3,0,-0.6,0,-0.9l-0.1,-0.2l13.6,0Zm4.3,-36.9C76.8,156.5,68,165.3,68,176.1c0,10.8,8.8,19.6,19.6,19.6c10.8,0,19.5,-8.8,19.5,-19.6c0,-10.8,-8.7,-19.6,-19.5,-19.6Z" class="g4_115" />
<path d="M358.6,482l523.7,0l0,-359.9l-523.7,0l0,359.9Z" class="g3_115" />
<path d="M852.3,482l5.4,0l0,-84.5l-5.4,0l0,84.5Z" class="g4_115" />
<path d="M852.3,398l0,-180.5l-51.3,0l0,-70l56.7,0l0,56.1l-48.6,0l0,-5.1l43.2,0l0,-45.9l-46.6,0l0,59.2l52,0l0,186.2Z" class="g4_115" />
<g clip-path="url(#c2_115)">
<path d="M79.9,152.6l706.4,0l0,51l12.4,0l0,-5.4l-6.3,0l0,-51l-712.5,0Z" class="g4_115" />
</g>
<path d="M795.5,209l-8.2,0l0,8.5l8.2,0l0,-8.5Z" class="g4_115" />
<path d="M817,237.3c0,0,1,3.4,3.7,2.7c2.7,-0.7,2.7,-4.1,2.7,-4.1c0,0,0,-5.2,-5.8,-5.4c-4.9,-0.2,-5.8,4,-5.8,6.8c0,2.7,1.7,9.4,9.2,9.1c8.9,-0.3,8.9,-10.8,8.9,-10.8c0,0,0,-11.9,-11.6,-12.3c-8.2,-0.2,-13.3,5.1,-13.3,13.3c0,8.1,3.8,17.8,18.1,19.4l0,8.1c0,0,19.7,1,20.1,17.7c0,0,0.7,8.4,-7.9,7.8c-5.1,-0.3,-5.4,-6.4,-5.4,-6.4c0,0,0.7,-4.5,4.4,-5.1c3.8,-0.7,1.7,3.4,-1,3.7c0,0,-2.7,5.1,2,4.4c4.8,-0.7,4.1,-3.4,4.1,-5.1c0,-1.7,-1.7,-5.8,-5.4,-5.8c-3.8,0,-7.2,2.4,-7.2,8.2c0,5.8,6.2,9.5,10.6,9.2c4.4,-0.4,9.2,-5.1,8.5,-12.3c-0.7,-7.1,-3.4,-15.3,-19.4,-20L826.1,256c0,0,12,1.7,20.8,13.6l0,-46.6l-21.8,0l4.1,3.7l14.7,0l0,34.7c0,0,-7.5,-6.5,-13.3,-8.2c0,0,6.6,-6.2,5.1,-19.3l2.4,0l0,19.3l2.7,2.8l0,-25.5l-7.8,0c0,0,2.7,22.1,-10.3,22.1c-12.9,0,-14.9,-10.6,-14.9,-16c0,-5.5,3.4,-10.2,10.9,-10.2c7.1,0,8.1,6.8,8.1,10.5c0,3.8,-2.4,6.8,-6.8,6.8c-5.3,0,-5.4,-6.8,-5.4,-6.8c0,0,0.5,-4.6,4.1,-3.4c0,0,1.1,0.5,1.1,2.6c0,2,-2,-2.4,-2.8,1.2Z" class="g4_115" />
<path d="M845.9,288.9c0,0,-7.2,8.2,-7.2,14.3c0,6.2,6.5,3.8,6.2,0.7c0,0,-3.8,1.7,-3.4,-3.1c0.3,-4.7,5.4,-8.1,4.4,-11.9Z" class="g4_115" />
<path d="M766.9,187.3c0,0,-3.4,-1,-2.7,-3.8c0.7,-2.7,4.1,-2.7,4.1,-2.7c0,0,5.2,0,5.4,5.8c0.2,4.9,-4.1,5.8,-6.8,5.8c-2.7,0,-9.5,-1.7,-9.2,-9.2c0.4,-8.8,10.9,-8.8,10.9,-8.8c0,0,11.9,0,12.3,11.5c0.2,8.2,-5.1,13.3,-13.3,13.3c-8.2,0,-17.9,-3.8,-19.4,-18l-8.2,0c0,0,-1,-19.8,-17.7,-20.1c0,0,-8.4,-0.7,-7.8,7.8c0.3,5.1,6.4,5.5,6.4,5.5c0,0,4.5,-0.7,5.2,-4.5c0.6,-3.7,-3.4,-1.7,-3.8,1.1c0,0,-5.1,2.7,-4.4,-2.1c0.7,-4.7,3.4,-4.1,5.1,-4.1c1.7,0,5.8,1.7,5.8,5.5c0,3.7,-2.4,7.1,-8.2,7.1c-5.8,0,-9.5,-6.1,-9.2,-10.5c0.4,-4.4,5.1,-9.2,12.3,-8.5c7.1,0.7,15.3,3.4,20.1,19.4l4.4,0.3c0,0,-1.7,-11.9,-13.6,-20.7l46.6,0l0,21.7L777.5,175l0,-14.6l-34.8,0c0,0,6.5,7.5,8.2,13.3c0,0,6.3,-6.7,19.4,-5.1l0,-2.4l-19.4,0l-2.7,-2.7l25.5,0l0,7.8c0,0,-22.1,-2.7,-22.1,10.2c0,12.9,10.5,15,16,15c5.4,0,10.2,-3.4,10.2,-10.9c0,-7.2,-6.8,-8.2,-10.6,-8.2c-3.7,0,-6.8,2.4,-6.8,6.8c0,5.3,6.8,5.5,6.8,5.5c0,0,4.6,-0.5,3.5,-4.1c0,0,-0.6,-1.2,-2.6,-1.2c-2,0,2.4,2,-1.2,2.9Z" class="g4_115" />
<path d="M715.2,158.4c0,0,-8.2,7.1,-14.3,7.1c-6.2,0,-3.8,-6.4,-0.7,-6.1c0,0,-1.7,3.7,3,3.4c4.8,-0.3,8.2,-5.4,12,-4.4Z" class="g4_115" />
<path d="M812.1,177.3c0,0.3,0,0.6,0,0.9l0.1,0.2l12,0l0,9.4l-0.1,1.9l-0.9,-0.1c-3.2,-0.5,-7.5,-5.9,-7.5,-7.3c0,-0.4,0.4,-0.8,0.9,-0.8l4.6,0l0,1.7l-3.2,0l0.3,0.4c0.9,1.2,2.3,2.9,3.7,3.7l0.4,0.3l0,-7.5l-9.9,0l0.1,0.3c1.5,6.4,6.5,11.3,12.8,13l0.3,0.1l0,-16.4l-13.7,0Zm15.3,-2l1.5,0l0,-17l-0.3,0c-0.3,0,-0.6,0,-0.9,0.1l-0.3,0Zm0,18.5l0.3,0c0.3,0,0.6,0.1,0.9,0.1l0.3,0l0,-16.8l-1.5,0Zm-1.7,-35.1l-0.3,0.1c-6.3,1.6,-11.3,6.6,-12.8,12.9l-0.1,0.4l9.9,0l0,-7.5l-0.4,0.3c-1.4,0.8,-2.8,2.5,-3.7,3.7L818,169l3.2,0l0,1.7l-4.6,0c-0.5,0,-0.9,-0.4,-0.9,-0.8c0,-1.4,4.3,-6.8,7.5,-7.3l0.9,-0.1l0.1,1.9l0,9.4l-12,0l-0.1,0.2c0,0.4,0,0.7,0,1.1l-0.1,0.2l13.7,0Zm4.9,16.6l1.8,0l0,-16.9l-0.2,0c-0.5,-0.1,-0.9,-0.1,-1.3,-0.1l-0.3,0Zm0,18.6l0.3,0c0.4,0,0.8,0,1.3,-0.1l0.2,0l0,-16.7l-1.8,0Zm3.5,-18.6l13.6,0l0,-0.2c0,-0.4,-0.1,-0.7,-0.1,-1.1l0,-0.2l-12.3,0l0,-9.4l0.1,-1.9l0.9,0.1c3.2,0.5,7.5,5.9,7.5,7.3c0,0.4,-0.4,0.8,-0.9,0.8l-4.5,0l0,-1.7l3.1,0l-0.3,-0.4c-0.9,-1.2,-2.3,-2.9,-3.7,-3.7l-0.4,-0.3l0,7.5l10.2,0l-0.1,-0.4c-1.6,-6.3,-6.5,-11.2,-12.8,-12.9l-0.3,-0.1Zm0,18.1l0.3,0c6.3,-1.7,11.2,-6.6,12.8,-13l0.1,-0.3l-10.2,0l0,7.5l0.4,-0.3c1.4,-0.8,2.8,-2.5,3.7,-3.7l0.3,-0.4l-3.1,0l0,-1.7l4.5,0c0.5,0,0.9,0.4,0.9,0.8c0,1.4,-4.3,6.8,-7.5,7.3l-0.9,0.1l-0.1,-1.9l0,-9.4l12.3,0l0,-0.2c0,-0.3,0.1,-0.6,0.1,-0.9l0,-0.2l-13.6,0Zm-4.2,-36.9c10.8,0,19.6,8.8,19.6,19.6c0,10.8,-8.8,19.6,-19.6,19.6c-10.8,0,-19.6,-8.8,-19.6,-19.6c0,-10.8,8.8,-19.6,19.6,-19.6Z" class="g4_115" />
<path d="M35.1,823.6l804.8,0l0,-172l-804.8,0l0,172Z" class="g3_115" />
<path d="M59.7,823.6l5.4,0l0,-84.5l-5.4,0l0,84.5Z" class="g4_115" />
<g clip-path="url(#c3_115)">
<path d="M65.1,739.5l0,-180.4l51.4,0l0,-70l-56.8,0l0,56.1l48.6,0l0,-5.1l-43.2,0l0,-45.9l46.6,0l0,59.1l-52,0l0,186.2Z" class="g4_115" />
<path d="M71.5,630.5c0,0,7.2,8.2,7.2,14.3c0,6.1,-6.5,3.8,-6.1,0.7c0,0,3.7,1.7,3.4,-3.1c-0.4,-4.7,-5.5,-8.1,-4.5,-11.9Z" class="g4_115" />
</g>
<path d="M358.6,823.6l523.7,0l0,-172l-523.7,0l0,172Z" class="g3_115" />
<path d="M852.3,823.6l5.4,0l0,-84.5l-5.4,0l0,84.5Z" class="g4_115" />
<g clip-path="url(#c4_115)">
<path d="M852.3,739.5l0,-180.4l-51.3,0l0,-70l56.7,0l0,56.1l-48.6,0l0,-5.1l43.2,0l0,-45.9l-46.6,0l0,59.1l52,0l0,186.2Z" class="g4_115" />
<path d="M845.9,630.5c0,0,-7.2,8.2,-7.2,14.3c0,6.1,6.5,3.8,6.2,0.7c0,0,-3.8,1.7,-3.4,-3.1c0.3,-4.7,5.4,-8.1,4.4,-11.9Z" class="g4_115" />
</g>
<path d="M35.1,654l804.8,0l0,-172L35.1,482l0,172Z" class="g3_115" />
<path d="M59.7,654l5.4,0l0,-84.5l-5.4,0l0,84.5Z" class="g4_115" />
<g clip-path="url(#c5_115)">
<path d="M65.1,570l0,-180.5l51.4,0l0,-70l-56.8,0l0,56.1l48.6,0l0,-5.1l-43.2,0l0,-45.9l46.6,0l0,59.2l-52,0l0,186.2Z" class="g4_115" />
<path d="M71.5,460.9c0,0,7.2,8.2,7.2,14.3c0,6.1,-6.5,3.8,-6.1,0.7c0,0,3.7,1.7,3.4,-3.1c-0.4,-4.7,-5.5,-8.1,-4.5,-11.9Z" class="g4_115" />
</g>
<path d="M358.6,654l523.7,0l0,-172l-523.7,0l0,172Z" class="g3_115" />
<path d="M852.3,654l5.4,0l0,-84.5l-5.4,0l0,84.5Z" class="g4_115" />
<g clip-path="url(#c6_115)">
<path d="M852.3,570l0,-180.5l-51.3,0l0,-70l56.7,0l0,56.1l-48.6,0l0,-5.1l43.2,0l0,-45.9l-46.6,0l0,59.2l52,0l0,186.2Z" class="g4_115" />
<path d="M845.9,460.9c0,0,-7.2,8.2,-7.2,14.3c0,6.1,6.5,3.8,6.2,0.7c0,0,-3.8,1.7,-3.4,-3.1c0.3,-4.7,5.4,-8.1,4.4,-11.9Z" class="g4_115" />
</g>
<path d="M35,1146.7l804.7,0l0,-336.2L35,810.5l0,336.2Z" class="g3_115" />
<path d="M59.5,871.3l5.5,0l0,-60.8l-5.5,0l0,60.8Z" class="g4_115" />
<path d="M65,870.9l0,180.4l51.3,0l0,70l-56.8,0l0,-56.1l48.6,0l0,5.1l-43.1,0l0,45.9l46.6,0l0,-59.1l-52.1,0l0,-186.2Z" class="g4_115" />
<path d="M837.4,1116.2l-706.4,0l0,-51l-12.5,0l0,5.5l6.3,0l0,51l712.6,0Z" class="g4_115" />
<path d="M121.8,1059.8l8.1,0l0,-8.5l-8.1,0l0,8.5Z" class="g4_115" />
<path d="M100.3,1031.6c0,0,-1,-3.4,-3.7,-2.8c-2.8,0.7,-2.8,4.1,-2.8,4.1c0,0,0,5.3,5.8,5.5c5,0.1,5.8,-4.1,5.8,-6.8c0,-2.8,-1.7,-9.5,-9.2,-9.2c-8.8,0.3,-8.8,10.9,-8.8,10.9c0,0,0,11.9,11.6,12.2c8.1,0.2,13.2,-5.1,13.2,-13.3c0,-8.1,-3.7,-17.8,-18,-19.3l0,-8.2c0,0,-19.8,-1,-20.1,-17.7c0,0,-0.7,-8.4,7.8,-7.8c5.1,0.3,5.5,6.5,5.5,6.5c0,0,-0.7,4.4,-4.4,5.1c-3.8,0.6,-1.7,-3.4,1,-3.8c0,0,2.7,-5.1,-2.1,-4.4c-4.7,0.7,-4.1,3.4,-4.1,5.1c0,1.7,1.7,5.8,5.5,5.8c3.7,0,7.1,-2.4,7.1,-8.2c0,-5.8,-6.1,-9.5,-10.5,-9.2c-4.4,0.4,-9.2,5.1,-8.5,12.3c0.7,7.1,3.4,15.3,19.4,20l0.3,4.5c0,0,-11.9,-1.7,-20.7,-13.6l0,46.5l21.7,0l-4,-3.7l-14.7,0l0,-34.7c0,0,7.5,6.5,13.3,8.2c0,0,-6.6,6.3,-5.1,19.4l-2.4,0l0,-19.4l-2.7,-2.7l0,25.5l7.8,0c0,0,-2.7,-22.1,10.2,-22.1c13,0,15,10.5,15,15.9c0,5.5,-3.4,10.2,-10.9,10.2c-7.1,0,-8.2,-6.8,-8.2,-10.5c0,-3.7,2.4,-6.8,6.9,-6.8c5.2,0,5.4,6.8,5.4,6.8c0,0,-0.5,4.6,-4.1,3.4c0,0,-1.2,-0.5,-1.2,-2.6c0,-2,2.1,2.4,2.9,-1.1Z" class="g4_115" />
<path d="M71.4,979.9c0,0,7.1,-8.2,7.1,-14.3c0,-6.1,-6.4,-3.8,-6.1,-0.7c0,0,3.7,-1.7,3.4,3.1c-0.3,4.7,-5.4,8.1,-4.4,11.9Z" class="g4_115" />
<path d="M150.4,1081.5c0,0,3.4,1.1,2.7,3.8c-0.7,2.7,-4.1,2.7,-4.1,2.7c0,0,-5.2,0,-5.4,-5.8c-0.2,-4.9,4,-5.8,6.8,-5.8c2.7,0,9.4,1.7,9.2,9.2c-0.4,8.9,-10.9,8.9,-10.9,8.9c0,0,-12,0,-12.3,-11.6c-0.2,-8.2,5.1,-13.3,13.3,-13.3c8.2,0,17.9,3.8,19.4,18.1l8.2,0c0,0,1,19.7,17.7,20c0,0,8.4,0.7,7.8,-7.8c-0.3,-5.1,-6.5,-5.4,-6.5,-5.4c0,0,-4.4,0.6,-5.1,4.4c-0.7,3.7,3.4,1.7,3.8,-1c0,0,5.1,-2.8,4.4,2c-0.7,4.8,-3.4,4.1,-5.1,4.1c-1.7,0,-5.8,-1.7,-5.8,-5.5c0,-3.7,2.4,-7.1,8.2,-7.1c5.8,0,9.5,6.1,9.2,10.5c-0.4,4.5,-5.1,9.2,-12.3,8.5c-7.1,-0.6,-15.3,-3.4,-20.1,-19.3l-4.4,-0.4c0,0,1.7,11.9,13.6,20.8l-46.6,0l0,-21.8l3.7,4.1l0,14.6l34.7,0c0,0,-6.4,-7.5,-8.1,-13.3c0,0,-6.3,6.7,-19.4,5.1l0,2.4l19.4,0l2.7,2.7l-25.5,0l0,-7.8c0,0,22.1,2.7,22.1,-10.2c0,-12.9,-10.6,-14.9,-16,-14.9c-5.5,0,-10.2,3.4,-10.2,10.8c0,7.2,6.8,8.2,10.5,8.2c3.8,0,6.8,-2.4,6.8,-6.8c0,-5.3,-6.8,-5.4,-6.8,-5.4c0,0,-4.6,0.5,-3.4,4c0,0,0.5,1.2,2.6,1.2c2,0,-2.4,-2,1.2,-2.9Z" class="g4_115" />
<path d="M202.1,1110.4c0,0,8.2,-7.1,14.3,-7.1c6.1,0,3.8,6.5,0.7,6.1c0,0,1.7,-3.7,-3.1,-3.4c-4.7,0.4,-8.1,5.5,-11.9,4.4Z" class="g4_115" />
<g clip-path="url(#c7_115)">
<path d="M837.4,1116.2l100.1,0l0,-51l12.4,0l0,5.5l-6.3,0l0,51l-106.2,0Z" class="g4_115" />
</g>
<path d="M105.2,1091.5c0,-0.3,0,-0.6,-0.1,-0.9l0,-0.2l-12,0l0,-9.4l0.1,-1.9l0.8,0.1c3.3,0.5,7.5,5.9,7.5,7.3c0,0.5,-0.4,0.8,-0.8,0.8l-4.6,0l0,-1.7l3.2,0L99,1085.2c-0.9,-1.2,-2.4,-2.8,-3.8,-3.7l-0.4,-0.2l0,7.4l10,0l-0.1,-0.3c-1.6,-6.4,-6.5,-11.3,-12.8,-13l-0.3,0l0,16.4l13.6,0Zm-15.4,2l-1.4,0l0,17l0.2,0c0.4,0,0.7,0,1,-0.1l0.2,0Zm0,-18.5l-0.2,0c-0.3,0,-0.6,-0.1,-1,-0.1l-0.2,0l0,16.9l1.4,0Zm1.8,35.1l0.3,-0.1c6.3,-1.6,11.2,-6.6,12.8,-12.9l0.1,-0.3l-10,0l0,7.4l0.4,-0.3c1.4,-0.8,2.9,-2.4,3.8,-3.7l0.3,-0.4l-3.2,0l0,-1.7l4.6,0c0.4,0,0.8,0.4,0.8,0.9c0,1.3,-4.2,6.7,-7.5,7.2l-0.8,0.2l-0.1,-2l0,-9.3l12,-0.1l0,-0.2c0.1,-0.3,0.1,-0.7,0.1,-1l0,-0.3l-13.6,0Zm-5,-16.6l-1.7,0l0,16.9l0.2,0c0.5,0.1,0.9,0.1,1.3,0.1l0.2,0.1Zm0,-18.6l-0.2,0c-0.4,0,-0.8,0.1,-1.3,0.1l-0.2,0.1l0,16.7l1.7,0Zm-3.4,18.6l-13.6,0l0,0.3c0,0.3,0,0.7,0.1,1l0,0.2l12.2,0.1l0,9.3l-0.1,2L81,1106.2c-3.2,-0.5,-7.5,-5.9,-7.5,-7.2c0,-0.5,0.4,-0.9,0.9,-0.9l4.5,0l0,1.7l-3.1,0l0.3,0.4c0.9,1.3,2.3,2.9,3.7,3.7l0.4,0.3l0,-7.4l-10.2,0l0.1,0.3c1.6,6.3,6.5,11.2,12.7,12.9l0.4,0.1Zm0,-18.1l-0.4,0.1c-6.2,1.6,-11.1,6.6,-12.7,12.9l-0.1,0.3l10.2,0l0,-7.4l-0.4,0.2c-1.4,0.9,-2.9,2.5,-3.7,3.7l-0.3,0.4l3.1,0l0,1.7l-4.5,0c-0.5,0,-0.9,-0.3,-0.9,-0.8c0,-1.4,4.3,-6.8,7.5,-7.3l0.8,-0.1l0.1,1.9l0,9.4l-12.2,0l0,0.2c-0.1,0.3,-0.1,0.6,-0.1,0.9l0,0.3l13.6,0Zm4.2,36.9c-10.8,0,-19.6,-8.8,-19.6,-19.6c0,-10.8,8.8,-19.6,19.6,-19.6c10.8,0,19.6,8.8,19.6,19.6c0,10.8,-8.8,19.6,-19.6,19.6Z" class="g4_115" />
<path d="M358.5,1146.7l523.6,0l0,-336.2l-523.6,0l0,336.2Z" class="g3_115" />
<path d="M852.1,871.3l5.5,0l0,-60.8l-5.5,0l0,60.8Z" class="g4_115" />
<path d="M852.1,870.9l0,180.4l-51.3,0l0,70l56.8,0l0,-56.1l-48.6,0l0,5.1l43.1,0l0,45.9l-46.5,0l0,-59.1l52,0l0,-186.2Z" class="g4_115" />
<g clip-path="url(#c8_115)">
<path d="M79.7,1116.2l706.5,0l0,-51l12.4,0l0,5.5l-6.3,0l0,51l-712.6,0Z" class="g4_115" />
</g>
<path d="M795.3,1059.8l-8.1,0l0,-8.5l8.1,0l0,8.5Z" class="g4_115" />
<path d="M816.8,1031.6c0,0,1,-3.4,3.7,-2.8c2.8,0.7,2.8,4.1,2.8,4.1c0,0,0,5.3,-5.8,5.5c-5,0.1,-5.8,-4.1,-5.8,-6.8c0,-2.8,1.7,-9.5,9.2,-9.2c8.8,0.3,8.8,10.9,8.8,10.9c0,0,0,11.9,-11.5,12.2c-8.2,0.2,-13.3,-5.1,-13.3,-13.3c0,-8.1,3.7,-17.8,18,-19.3l0,-8.2c0,0,19.8,-1,20.1,-17.7c0,0,0.7,-8.4,-7.8,-7.8c-5.1,0.3,-5.5,6.5,-5.5,6.5c0,0,0.7,4.4,4.5,5.1c3.7,0.6,1.7,-3.4,-1.1,-3.8c0,0,-2.7,-5.1,2.1,-4.4c4.7,0.7,4.1,3.4,4.1,5.1c0,1.7,-1.7,5.8,-5.5,5.8c-3.7,0,-7.1,-2.4,-7.1,-8.2c0,-5.8,6.1,-9.5,10.5,-9.2c4.4,0.4,9.2,5.1,8.5,12.3c-0.6,7.1,-3.4,15.3,-19.4,20l-0.3,4.5c0,0,11.9,-1.7,20.8,-13.6l0,46.5l-21.8,0l4.1,-3.7l14.6,0l0,-34.7c0,0,-7.5,6.5,-13.3,8.2c0,0,6.7,6.3,5.1,19.4l2.4,0l0,-19.4l2.7,-2.7l0,25.5l-7.8,0c0,0,2.7,-22.1,-10.2,-22.1c-13,0,-15,10.5,-15,15.9c0,5.5,3.4,10.2,10.9,10.2c7.1,0,8.2,-6.8,8.2,-10.5c0,-3.7,-2.4,-6.8,-6.8,-6.8c-5.3,0,-5.5,6.8,-5.5,6.8c0,0,0.5,4.6,4.1,3.4c0,0,1.2,-0.5,1.2,-2.6c0,-2,-2.1,2.4,-2.9,-1.1Z" class="g4_115" />
<path d="M845.7,979.9c0,0,-7.1,-8.2,-7.1,-14.3c0,-6.1,6.5,-3.8,6.1,-0.7c0,0,-3.7,-1.7,-3.4,3.1c0.3,4.7,5.5,8.1,4.4,11.9Z" class="g4_115" />
<path d="M766.7,1081.5c0,0,-3.4,1.1,-2.7,3.8c0.7,2.7,4.1,2.7,4.1,2.7c0,0,5.3,0,5.5,-5.8c0.1,-4.9,-4.1,-5.8,-6.9,-5.8c-2.7,0,-9.4,1.7,-9.1,9.2c0.3,8.9,10.9,8.9,10.9,8.9c0,0,11.9,0,12.2,-11.6c0.2,-8.2,-5.1,-13.3,-13.3,-13.3c-8.1,0,-17.8,3.8,-19.4,18.1l-8.1,0c0,0,-1.1,19.7,-17.8,20c0,0,-8.4,0.7,-7.8,-7.8c0.4,-5.1,6.5,-5.4,6.5,-5.4c0,0,4.4,0.6,5.1,4.4c0.7,3.7,-3.4,1.7,-3.8,-1c0,0,-5.1,-2.8,-4.4,2c0.7,4.8,3.4,4.1,5.1,4.1c1.7,0,5.8,-1.7,5.8,-5.5c0,-3.7,-2.4,-7.1,-8.2,-7.1c-5.7,0,-9.5,6.1,-9.1,10.5c0.3,4.5,5.1,9.2,12.2,8.5c7.2,-0.6,15.3,-3.4,20.1,-19.3l4.4,-0.4c0,0,-1.7,11.9,-13.6,20.8l46.6,0l0,-21.8l-3.7,4.1l0,14.6l-34.7,0c0,0,6.4,-7.5,8.1,-13.3c0,0,6.3,6.7,19.5,5.1l0,2.4l-19.5,0l-2.7,2.7l25.6,0l0,-7.8c0,0,-22.2,2.7,-22.2,-10.2c0,-12.9,10.6,-14.9,16,-14.9c5.5,0,10.2,3.4,10.2,10.8c0,7.2,-6.8,8.2,-10.5,8.2c-3.8,0,-6.8,-2.4,-6.8,-6.8c0,-5.3,6.8,-5.4,6.8,-5.4c0,0,4.6,0.5,3.4,4c0,0,-0.5,1.2,-2.6,1.2c-2,0,2.4,-2,-1.2,-2.9Z" class="g4_115" />
<path d="M715,1110.4c0,0,-8.2,-7.1,-14.3,-7.1c-6.1,0,-3.7,6.5,-0.7,6.1c0,0,-1.7,-3.7,3.1,-3.4c4.8,0.4,8.2,5.5,11.9,4.4Z" class="g4_115" />
<path d="M811.9,1091.5c0,-0.3,0.1,-0.6,0.1,-0.9l0,-0.2l12,0l0,-9.4l-0.1,-1.9l-0.8,0.1c-3.3,0.5,-7.5,5.9,-7.5,7.3c0,0.5,0.4,0.8,0.9,0.8l4.5,0l0,-1.7l-3.2,0l0.3,-0.4c0.9,-1.2,2.4,-2.8,3.8,-3.7l0.4,-0.2l0,7.4l-10,0l0.1,-0.3c1.6,-6.4,6.5,-11.3,12.8,-13l0.3,0l0,16.4l-13.6,0Zm15.4,2l1.4,0l0,17l-0.2,0c-0.4,0,-0.7,0,-1,-0.1l-0.2,0Zm0,-18.5l0.2,0c0.3,0,0.6,-0.1,1,-0.1l0.2,0l0,16.9l-1.4,0Zm-1.8,35.1l-0.3,-0.1c-6.3,-1.6,-11.2,-6.6,-12.8,-12.9l-0.1,-0.3l10,0l0,7.4l-0.4,-0.3c-1.4,-0.8,-2.9,-2.4,-3.8,-3.7l-0.3,-0.4l3.2,0l0,-1.7l-4.5,0c-0.5,0,-0.9,0.4,-0.9,0.9c0,1.3,4.2,6.7,7.5,7.2l0.8,0.2l0.1,-2l0,-9.3L812,1095l0,-0.2c-0.1,-0.3,-0.1,-0.7,-0.1,-1l0,-0.3l13.6,0Zm5,-16.6l1.7,0l0,16.9l-0.2,0c-0.4,0.1,-0.9,0.1,-1.3,0.1l-0.2,0.1Zm0,-18.6l0.2,0c0.4,0,0.9,0.1,1.3,0.1l0.2,0.1l0,16.7l-1.7,0Zm3.5,18.6l13.5,0l0,0.3c0,0.3,0,0.7,-0.1,1l0,0.2l-12.2,0.1l0,9.3l0.1,2l0.8,-0.2c3.3,-0.5,7.5,-5.9,7.5,-7.2c0,-0.5,-0.4,-0.9,-0.9,-0.9l-4.5,0l0,1.7l3.1,0l-0.2,0.4c-0.9,1.3,-2.4,2.9,-3.8,3.7l-0.4,0.3l0,-7.4l10.2,0l-0.1,0.3c-1.6,6.3,-6.4,11.2,-12.7,12.9l-0.3,0.1Zm0,-18.1l0.3,0.1c6.3,1.6,11.1,6.6,12.7,12.9l0.1,0.3l-10.2,0l0,-7.4l0.4,0.2c1.4,0.9,2.9,2.5,3.8,3.7l0.2,0.4l-3.1,0l0,1.7l4.5,0c0.5,0,0.9,-0.3,0.9,-0.8c0,-1.4,-4.2,-6.8,-7.5,-7.3l-0.8,-0.1l-0.1,1.9l0,9.4l12.2,0l0,0.2c0.1,0.3,0.1,0.6,0.1,0.9l0,0.3l-13.5,0Zm-4.3,36.9c10.8,0,19.6,-8.8,19.6,-19.6c0,-10.8,-8.8,-19.6,-19.6,-19.6c-10.8,0,-19.6,8.8,-19.6,19.6c0,10.8,8.8,19.6,19.6,19.6Z" class="g4_115" />
<g clip-path="url(#c0_115)">
<path d="M-19.2,31.2l0,57.6l0,1l1.1,0l442.4,0l1.1,0l0,-1l0,-57.6l0,-1l-1.1,0l-442.4,0l-1.1,0l0,1Z" class="g5_115" />
<path d="M-16.3,87l438.8,0l0,-53.9l-438.8,0l0,53.9Z" class="g6_115" />
</g>
<text 
x="41" 
y="72" 
dx="0,0,0,-1.2,0,0,0,0,0,0,0,0,0,0,0,-0.2,0" 
class="s1_115"
>CULTURAL LITERACY</text>

<path d="M216.7,217.8c-0.3,0,-0.6,0.4,-0.6,1.2c-0.3,3.8,-1.6,5.9,-3.8,6.4c-1.3,0.3,-5.6,0.5,-13,0.5l0,-16.9l2.2,0c2.6,0,4.2,0.1,4.8,0.3c1.3,0.4,2.2,1.7,2.4,3.7c0.2,1.5,0.4,2.5,0.4,2.8c0.1,0.2,0.3,0.4,0.5,0.4c0.4,0,0.6,-0.2,0.6,-0.7c0,-0.2,0,-0.5,-0.1,-0.8C210,213.3,210,210.9,210,207.3c0,-0.6,0,-1.5,0.1,-2.7c0,-1.2,0.1,-2.1,0.1,-2.7c0,-0.6,-0.2,-0.9,-0.6,-0.9c-0.3,0,-0.5,0.4,-0.5,1.1c-0.3,2.7,-0.9,4.4,-1.7,5c-0.8,0.5,-3.1,0.8,-6.9,0.8l-1.2,0l0,-14.8l4.1,0c4.6,0,7.4,0.3,8.5,0.9c1.4,0.8,2.5,2.7,3.1,5.8c0.2,0.8,0.5,1.3,0.8,1.3c0.3,0,0.5,-0.2,0.5,-0.5c0,-0.3,0,-0.5,-0.1,-0.7L216,197.7c-0.2,-2.5,-0.4,-4.5,-0.4,-6c-0.9,0.2,-1.8,0.2,-2.8,0.2l-7.1,0l-5.7,0l-8.6,0c-0.7,0,-1.1,0.2,-1.1,0.5c0,0.3,0.3,0.4,0.8,0.4c1.6,0,2.5,0.1,2.8,0.3c0.2,0.2,0.4,0.7,0.4,1.7l0,28.4c0,1.3,-0.1,2.1,-0.3,2.4c-0.2,0.3,-0.7,0.5,-1.6,0.6c-1.1,0.1,-1.8,0.1,-1.9,0.1c-0.2,0,-0.3,0.1,-0.3,0.3c0,0.3,0.3,0.4,1,0.4l0.5,0l2.3,0l3.5,0c9.7,0,16.2,0.1,19.5,0.3l0,-1.6c0,-1.4,0.1,-2.9,0.1,-4.4c0.1,-1.5,0.1,-2.3,0.1,-2.4c0,-0.7,-0.1,-1.1,-0.5,-1.1m25.8,-13.7c-0.3,0,-1.3,-0.1,-3.2,-0.1c-1.9,0,-3.1,0.1,-3.4,0.1c-0.3,0,-0.5,0.1,-0.5,0.3c0,0.2,0.4,0.3,1,0.3l0.3,0l1.1,0c0.4,0,0.7,0.1,0.8,0.2c0,0.2,0.1,0.7,0.1,1.5l0,14L226.8,204l-1.9,0l-0.9,0l-0.7,0l-2.7,0l-0.2,0c-0.5,0,-0.7,0.1,-0.7,0.4c0,0.2,0.4,0.4,1.3,0.4c1.1,0,1.9,0.3,2.3,1c0.3,0.5,0.5,2,0.5,4.6l0,13.9c0,0.9,0,1.4,-0.1,1.5c0,0.2,-0.4,0.4,-1.2,0.5l-0.7,0l-0.4,0c-0.7,0,-1,0.1,-1,0.3c0,0.3,0.3,0.4,0.8,0.4c0.8,0,1.4,0,2.1,-0.1c0.3,0,0.7,0,1,0c0.4,0,0.8,0,1.4,0c0.9,0.1,1.5,0.1,1.6,0.1c0.8,0,1.1,-0.1,1.1,-0.4c0,-0.2,-0.2,-0.3,-0.6,-0.3l-0.2,0c-0.9,0,-1.6,0,-1.9,-0.1c-0.4,0,-0.6,-0.7,-0.6,-2l0,-15.9c4.5,6.1,7.5,10.3,9.2,12.5c0.3,0.4,0.5,0.7,0.5,0.8c0.5,0.6,0.9,1.1,1.1,1.5c2,2.8,3.2,4.2,3.6,4.2c0.3,0,0.4,-0.1,0.5,-0.3c0,-0.2,0,-0.9,0,-2.1l0,-18.6c0,-0.8,0,-1.2,0.1,-1.4c0,-0.1,0.2,-0.2,0.5,-0.2l0.6,0l0.7,0c0.7,0,1.1,-0.1,1.1,-0.3c0,-0.2,-0.2,-0.3,-0.5,-0.3m25.7,-0.2l-0.1,0l-1.4,0c-0.5,0.1,-0.8,0.2,-1,0.2c-0.1,0,-0.4,-0.1,-1.1,-0.2l-1.4,0l-1,0c-1,0,-1.5,0.2,-1.5,0.6c0,0.2,0.2,0.3,0.4,0.3l0.9,0l1.1,0c0.6,0,0.9,0.2,0.9,0.5c0,0.4,-0.5,1.9,-1.5,4.4l-2.1,5.5c-1.2,3.1,-1.9,4.9,-2.1,5.5c-2.1,-5.4,-3.1,-8.2,-3.2,-8.3c-1.7,-4.7,-2.6,-7.1,-2.6,-7.2c0,-0.2,0.5,-0.4,1.6,-0.4l1.1,0l0.8,0c0.5,-0.1,0.7,-0.2,0.7,-0.5c0,-0.2,-0.4,-0.4,-1.3,-0.4l-1.4,0l-1.6,0l-1.5,0l-3.4,0l-1.9,0c-0.5,0,-0.7,0.2,-0.7,0.5c0,0.2,0.1,0.3,0.5,0.3c1.3,0,2.1,0.1,2.5,0.3c0.3,0.2,0.6,0.8,1,1.8c0.6,1.8,1.1,3.1,1.5,3.9c2.6,6.7,4.5,11.9,5.9,15.6c0.2,0.7,0.5,1.1,0.8,1.1c0.2,0,0.5,-0.4,0.8,-1.2c2.9,-8,5.2,-14.4,7.1,-19.1l0.3,-0.9c0.3,-0.6,0.5,-1,0.9,-1.2c0.3,-0.2,1,-0.3,1.9,-0.3c0.6,0,0.9,-0.1,0.9,-0.4c0,-0.2,-0.3,-0.4,-0.8,-0.4m11.9,22.4c-0.9,0,-1.5,-0.1,-1.8,-0.2c-0.2,-0.1,-0.4,-0.4,-0.4,-0.7l0,-19c0,-0.8,0.1,-1.2,0.2,-1.4c0.1,-0.1,0.4,-0.2,0.8,-0.2c1.2,0,1.8,-0.2,1.8,-0.4c0,-0.2,-0.3,-0.4,-0.9,-0.4l-1.2,0l-1.1,0l-0.9,0l-3.7,0l-1.1,0l-0.3,0c-0.4,0,-0.6,0.2,-0.6,0.4c0,0.2,0.1,0.3,0.4,0.3l0.5,0l1,0c0.5,0.1,0.7,0.2,0.8,0.4c0.1,0.2,0.1,1,0.1,2.3l0,16.4c0,1.3,0,2,-0.1,2.2c0,0.1,-0.6,0.3,-1.6,0.3c-0.7,0,-1.1,0.2,-1.1,0.4c0,0.2,0.3,0.3,0.9,0.3l0.2,0l2.1,0l1.9,0l0.5,0l0.9,0l1.3,0l1,0l0.6,0c0.3,0,0.4,-0.1,0.4,-0.3c0,-0.2,-0.2,-0.3,-0.6,-0.4m24.5,-1.6c-0.7,0,-1.1,0.3,-1.1,0.9c0,0.1,0.1,0.2,0.2,0.4c0.1,0.2,0.1,0.3,0.1,0.3c0,0.1,-0.1,0.2,-0.3,0.2c-1,0,-1.6,-1.1,-1.8,-3.1c-0.3,-3.1,-1,-5.2,-2.1,-6.4c-1,-1.1,-3,-1.9,-5.8,-2.2c2.6,-0.1,4.7,-0.7,6.1,-1.8c1.5,-1,2.2,-2.3,2.2,-3.9c0,-1.6,-0.7,-2.8,-2.1,-3.7c-1.3,-0.9,-3.1,-1.4,-5.4,-1.4l-1.6,0l-2.8,0l-4.8,0l-0.3,0c-0.5,0,-0.7,0.2,-0.7,0.4c0,0.3,0.4,0.4,1.2,0.4c0.8,0,1.2,0.1,1.4,0.2c0.2,0.1,0.3,0.3,0.3,0.7l0,19.9c0,0.5,-0.6,0.7,-1.7,0.7l-0.2,0l-0.5,0c-0.3,0,-0.5,0.1,-0.5,0.4c0,0.2,0.5,0.3,1.4,0.3l1,0l1.6,0l2.7,0l1.8,0l1,0c0.5,0,0.7,-0.1,0.7,-0.3c0,-0.3,-0.2,-0.4,-0.5,-0.4c-1.8,0,-2.7,-0.2,-2.6,-0.7l0,-10.4c1.9,0.1,3.2,0.4,3.9,1c0.8,0.6,1.3,1.6,1.4,3c0.3,2.2,0.5,3.7,0.6,4.3c0.2,0.6,0.5,1.2,1,1.8c1.2,1.3,2.6,2,4.4,2c1.9,0,2.9,-0.5,2.9,-1.6c0,-0.7,-0.4,-1,-1.1,-1M291.5,214.4l0,-8.2c0,-0.6,0.1,-0.9,0.3,-1.1c0.2,-0.1,0.7,-0.2,1.4,-0.2c3,0,4.5,1.5,4.5,4.5c0,3.4,-2.1,5,-6.2,5m36.2,-7.3c-2.1,-2.3,-4.8,-3.4,-7.9,-3.4c-3.4,0,-6.1,1.1,-8.2,3.3c-2.2,2.2,-3.2,5,-3.2,8.5c0,3.3,1.1,6.1,3.3,8.4c2.3,2.3,5,3.4,8.3,3.4c3,0,5.6,-1.1,7.7,-3.4c2.2,-2.2,3.2,-5,3.2,-8.2c0,-3.4,-1,-6.3,-3.2,-8.6M320,226.6c-2.2,0,-3.9,-0.9,-5.1,-2.9c-1.2,-1.9,-1.8,-4.6,-1.8,-8.1c0,-2.9,0.4,-5.3,1.2,-7.1c1.1,-2.7,2.9,-4.1,5.3,-4.1c1.8,0,3.2,0.8,4.2,2.2c1.6,2.2,2.4,5.3,2.4,9.2c0,7.2,-2.1,10.8,-6.2,10.8m36.7,-22.5c-0.3,0,-1.4,-0.1,-3.2,-0.1c-2,0,-3.1,0.1,-3.4,0.1c-0.4,0,-0.5,0.1,-0.5,0.3c0,0.2,0.3,0.3,0.9,0.3l0.3,0l1.1,0c0.5,0,0.7,0.1,0.8,0.2c0.1,0.2,0.1,0.7,0.1,1.5l0,14L340.9,204l-1.9,0l-0.9,0l-0.6,0l-2.8,0l-0.2,0c-0.4,0,-0.7,0.1,-0.7,0.4c0,0.2,0.5,0.4,1.3,0.4c1.2,0,2,0.3,2.4,1c0.3,0.5,0.4,2,0.4,4.6l0,13.9c0,0.9,0,1.4,0,1.5c-0.1,0.2,-0.5,0.4,-1.3,0.5l-0.6,0l-0.5,0c-0.6,0,-1,0.1,-1,0.3c0,0.3,0.3,0.4,0.9,0.4c0.7,0,1.4,0,2,-0.1c0.4,0,0.7,0,1,0c0.4,0,0.9,0,1.4,0c1,0.1,1.5,0.1,1.7,0.1c0.7,0,1.1,-0.1,1.1,-0.4c0,-0.2,-0.2,-0.3,-0.6,-0.3l-0.2,0c-1,0,-1.6,0,-2,-0.1c-0.3,0,-0.5,-0.7,-0.5,-2l0,-15.9c4.4,6.1,7.4,10.3,9.1,12.5c0.3,0.4,0.5,0.7,0.6,0.8c0.5,0.6,0.8,1.1,1.1,1.5c2,2.8,3.2,4.2,3.6,4.2c0.2,0,0.4,-0.1,0.4,-0.3c0,-0.2,0.1,-0.9,0.1,-2.1l0,-18.6c0,-0.8,0,-1.2,0,-1.4c0.1,-0.1,0.3,-0.2,0.6,-0.2l0.5,0l0.7,0c0.8,0,1.1,-0.1,1.1,-0.3c0,-0.2,-0.1,-0.3,-0.4,-0.3m29.2,22.1c-1.3,0,-2.1,0,-2.3,-0.1c-0.3,-0.1,-0.4,-0.9,-0.4,-2.2l0,-17.8c0,-0.6,0.2,-0.9,0.7,-1.1c0.2,0,0.7,-0.1,1.6,-0.1c0.6,0,0.9,-0.2,0.9,-0.4c0,-0.4,-0.4,-0.5,-1.3,-0.5l-2.2,0l-3.8,0l-4.4,12.4c-0.2,0.8,-0.6,2,-1.1,3.6l-2.7,-6.6c-0.8,-2,-1.4,-3.4,-1.7,-4.2l-1.2,-3c-0.3,-0.7,-0.5,-1.2,-0.7,-1.6L367.1,204c-3.4,0,-5.5,0.1,-6,0.1c-0.6,0,-0.9,0.1,-0.9,0.3c0,0.3,0.2,0.4,0.7,0.4c1.2,0.1,1.9,0.2,2.2,0.4c0.2,0.2,0.3,0.9,0.3,2l0,17.1c0,0.9,-0.1,1.5,-0.2,1.6c-0.1,0.2,-0.5,0.3,-1.3,0.3c-1.1,0.1,-1.6,0.2,-1.6,0.4c0,0.3,0.3,0.4,0.8,0.4l1.1,0l2.9,0l1,0l0.7,0c0.7,0,1,-0.1,1,-0.4c0,-0.2,-0.2,-0.3,-0.6,-0.3c-0.8,0,-1.4,0,-1.8,-0.1c-0.4,-0.1,-0.6,-0.4,-0.6,-0.8l0,-17.3c3.8,9.2,6.1,14.9,6.9,17.3c0.3,0.9,0.5,1.3,0.8,1.3c0.2,0,0.5,-0.5,0.8,-1.5c1.2,-3.7,2.2,-6.7,2.9,-9c1.4,-3.9,2.4,-6.7,3,-8.3l0,16.2c0,1.1,-0.1,1.7,-0.2,1.9c-0.1,0.2,-0.5,0.3,-1.2,0.3c-1,0.1,-1.6,0.1,-1.7,0.1c-0.2,0,-0.3,0.1,-0.3,0.3c0,0.2,0.3,0.3,0.9,0.3l0.3,0l2.2,0l2,0l1.7,0l2.3,0l0.5,0c0.6,0,0.9,-0.1,0.9,-0.4c0,-0.2,-0.2,-0.4,-0.7,-0.4m22.5,-6c-0.3,0,-0.5,0.2,-0.5,0.7c-0.3,2.9,-1.1,4.5,-2.4,4.9c-0.9,0.2,-3.8,0.3,-8.7,0.4l0,-10.9l1.3,0c2.1,0,3.4,0.2,3.9,0.5c0.4,0.4,0.8,1.4,1,3.3c0.1,0.8,0.3,1.2,0.6,1.2c0.3,0,0.5,-0.2,0.5,-0.8c0,-0.2,0,-0.4,-0.1,-0.6c0,-0.8,-0.1,-2.3,-0.1,-4.5c0,-0.5,0,-1.1,0.1,-1.9c0,-0.9,0.1,-1.5,0.1,-1.9c0,-0.7,-0.2,-1,-0.5,-1c-0.3,0,-0.5,0.5,-0.6,1.4c-0.2,1.6,-0.5,2.5,-1,2.9c-0.5,0.3,-1.9,0.5,-4,0.5l-1.2,0l0,-9.4l2.6,0c2.7,0,4.5,0.1,5.2,0.3c1.3,0.5,2.2,2,2.7,4.5c0.1,0.7,0.3,1,0.6,1c0.2,0,0.4,-0.2,0.4,-0.6c0,-0.2,-0.1,-0.4,-0.1,-0.6c-0.2,-2.5,-0.3,-4,-0.4,-4.5l0,-0.7l0,-0.4l-2.2,0l-3,0l-5.5,0l-2.6,0l-1.2,0l-0.6,0l-1,0l-1.2,0c-0.4,0,-0.6,0.2,-0.6,0.4c0,0.3,0.2,0.4,0.6,0.4c0.9,0,1.5,0,1.7,0.1c0.3,0.1,0.4,0.8,0.4,2.2l0,17.4c0,0.9,-0.1,1.4,-0.3,1.6c-0.2,0.1,-0.8,0.2,-1.9,0.2c-0.4,0,-0.6,0.2,-0.6,0.5c0,0.2,0.4,0.4,1.1,0.4l9.6,-0.2l8.4,0.2c-0.1,-0.4,-0.1,-0.7,-0.1,-1l0,-3c0,-0.3,0,-0.6,0,-1c0.1,-0.4,0.1,-0.6,0.1,-0.6c0,-1,-0.2,-1.4,-0.5,-1.4M434,204.1c-0.3,0,-1.4,-0.1,-3.3,-0.1c-1.9,0,-3,0.1,-3.4,0.1c-0.3,0,-0.4,0.1,-0.4,0.3c0,0.2,0.3,0.3,0.9,0.3l0.3,0l1.1,0c0.5,0,0.7,0.1,0.8,0.2c0.1,0.2,0.1,0.7,0.1,1.5l0,14L418.2,204l-1.9,0l-0.9,0l-0.6,0l-2.8,0l-0.2,0c-0.5,0,-0.7,0.1,-0.7,0.4c0,0.2,0.5,0.4,1.3,0.4c1.2,0,2,0.3,2.4,1c0.3,0.5,0.4,2,0.4,4.6l0,13.9c0,0.9,0,1.4,0,1.5c-0.1,0.2,-0.5,0.4,-1.3,0.5l-0.7,0l-0.4,0c-0.6,0,-1,0.1,-1,0.3c0,0.3,0.3,0.4,0.8,0.4c0.8,0,1.5,0,2.1,-0.1c0.3,0,0.7,0,1,0c0.4,0,0.9,0,1.4,0c1,0.1,1.5,0.1,1.6,0.1c0.8,0,1.2,-0.1,1.2,-0.4c0,-0.2,-0.2,-0.3,-0.7,-0.3l-0.2,0c-0.9,0,-1.5,0,-1.9,-0.1c-0.3,0,-0.5,-0.7,-0.5,-2l0,-15.9c4.4,6.1,7.4,10.3,9.1,12.5c0.3,0.4,0.5,0.7,0.6,0.8c0.5,0.6,0.8,1.1,1.1,1.5c2,2.8,3.2,4.2,3.5,4.2c0.3,0,0.5,-0.1,0.5,-0.3c0,-0.2,0,-0.9,0,-2.1l0,-18.6c0,-0.8,0.1,-1.2,0.1,-1.4c0.1,-0.1,0.3,-0.2,0.6,-0.2l0.5,0l0.7,0c0.8,0,1.1,-0.1,1.1,-0.3c0,-0.2,-0.1,-0.3,-0.4,-0.3m23.4,5.5l-0.1,-0.9l-0.2,-2.1L457,204.8l-0.1,-1c-0.4,0.1,-0.8,0.2,-1,0.2c-3.2,0,-5.4,0,-6.4,0l-11.7,0c-0.4,2.9,-0.5,4.7,-0.5,5.7c0,0.8,0.1,1.1,0.5,1.1c0.3,0,0.5,-0.3,0.6,-1.1c0.3,-2.1,0.8,-3.4,1.6,-4c0.8,-0.6,2.5,-0.8,5.1,-0.8l0,18.1c0,1.4,0,2.3,0,2.6c-0.1,0.3,-0.2,0.4,-0.5,0.5c-0.1,0.1,-0.4,0.1,-0.8,0.1c-1.1,0.1,-1.7,0.2,-1.7,0.4c0,0.3,0.4,0.4,1,0.4l1.3,0l2.7,0l1.1,0l1.4,0l1.4,0l0.4,0c0.5,0,0.8,-0.1,0.8,-0.4c0,-0.2,-0.5,-0.3,-1.4,-0.4c-1,0,-1.5,-0.4,-1.5,-1l0,-20.3c0.7,0,1.2,0,1.6,0c2.2,0,3.7,0.6,4.3,1.7c0.5,0.9,0.8,2,0.9,3.3c0,0.6,0.3,0.9,0.7,0.9c0.4,0,0.6,-0.2,0.6,-0.6c0,-0.1,0,-0.3,0,-0.6m24.8,16.7c-1,-0.1,-1.5,-0.1,-1.6,-0.2c-0.4,0,-0.8,-0.6,-1.2,-1.6c-4.2,-10.6,-6.8,-17.1,-7.8,-19.5c-0.4,-0.9,-0.6,-1.4,-0.7,-1.4c-0.2,0,-0.4,0.2,-0.6,0.7l-0.3,0.9l-0.8,2.2c-1,2.8,-1.8,4.8,-2.4,6.2c-0.2,0.5,-0.3,0.9,-0.4,1.1c-0.1,0.2,-0.2,0.6,-0.4,1.1c-0.6,1.3,-1.1,2.7,-1.7,4.2c-1.4,3.7,-2.2,5.7,-2.5,5.8c-0.1,0.2,-0.5,0.3,-1.1,0.4c-0.2,0.1,-0.6,0.1,-1.2,0.1c-0.4,0.1,-0.6,0.2,-0.6,0.4c0,0.2,0.2,0.3,0.8,0.3l0.1,0l0.5,0l0.5,-0.1l0.4,0c0.9,0,1.9,0,2.9,0.1c1.1,0,1.7,0,1.8,0c0.7,0,1.1,-0.1,1.1,-0.3c0,-0.2,-0.2,-0.3,-0.6,-0.3l-0.5,-0.2l-0.7,0l-0.7,0c-0.4,-0.1,-0.6,-0.2,-0.6,-0.5c0,-0.6,0.7,-2.6,2.1,-6l7.2,0l0.6,1.7c0.7,1.9,1.1,3.1,1.2,3.3c0.2,0.6,0.3,0.9,0.3,1c0,0.3,-0.8,0.4,-2.2,0.5c-1.2,0,-1.8,0.2,-1.8,0.4c0,0.3,0.3,0.4,0.9,0.4l0.2,0l0.9,0l1.6,0l2.3,0l1.4,0l3.2,0l0.3,0c0.7,0,1,-0.1,1,-0.3c0,-0.2,-0.3,-0.4,-0.9,-0.4m-15.9,-7.5c1.4,-3.7,2.5,-6.6,3.3,-8.6l3.3,8.6Zm36.6,1.4c-0.3,0,-0.4,0.4,-0.5,1.2c-0.2,1.9,-0.7,3.1,-1.4,3.7c-0.9,0.7,-3.2,1,-6.8,1c-0.6,0,-1.6,0,-2.9,0l0,-18.8c0,-1.2,0,-2,0.1,-2.2c0.1,-0.2,0.5,-0.3,1,-0.3c1.1,0,1.7,-0.2,1.7,-0.3c0,-0.3,-0.4,-0.5,-1,-0.5l-1.2,0l-7,0c-0.4,0,-0.6,0.2,-0.6,0.4c0,0.3,0.2,0.4,0.5,0.4c0.2,0,0.5,0,0.9,0c0.5,0,0.8,0.1,0.9,0.1c0.3,0.1,0.5,1.1,0.5,3l0,17c0,0.6,-0.1,0.9,-0.2,1.1c-0.1,0.1,-0.3,0.2,-0.7,0.2c-1.3,0.1,-1.9,0.3,-1.9,0.4c0,0.3,0.2,0.4,0.6,0.4l4.2,0l8.6,0.1l2.4,0c0.7,0,1.4,0,1.9,0.1c0.4,0,0.7,0,0.7,0c0.3,0,0.6,0,0.8,0c0.1,-1.3,0.1,-2.9,0.1,-4.8c0,-1.4,-0.2,-2.2,-0.7,-2.2m27.5,5.9c-1.8,0,-2.9,-0.3,-3.3,-0.6c-0.2,-0.2,-0.3,-1.2,-0.3,-3.2l0,-26.9c0,-1.1,0.1,-1.8,0.3,-2.1c0.2,-0.3,0.7,-0.4,1.6,-0.5c1.5,0,2.3,-0.2,2.3,-0.4c0,-0.3,-0.3,-0.5,-0.8,-0.5l-2,0.1c-1.4,0,-2.4,-0.1,-2.9,-0.1l-6.9,0c-0.4,0,-0.6,0.2,-0.6,0.4c0,0.2,0.3,0.4,0.9,0.4c1.7,0.1,2.6,0.3,2.8,0.6c0.2,0.2,0.3,1.1,0.3,2.8l0,26.6c0,1.6,-0.1,2.6,-0.4,2.9c-0.2,0.3,-1,0.4,-2.3,0.5c-0.9,0,-1.3,0.2,-1.3,0.4c0,0.3,0.2,0.5,0.6,0.5c0.9,0,1.6,0,2,-0.1c0.9,0,1.7,-0.1,2.6,-0.1c4.4,0,6.7,0.1,6.9,0.2l0.5,0c0.4,0,0.6,-0.2,0.6,-0.5c0,-0.2,-0.2,-0.4,-0.6,-0.4m26.1,-22c-0.3,0,-1.3,-0.1,-3.2,-0.1c-1.9,0,-3.1,0.1,-3.4,0.1c-0.3,0,-0.5,0.1,-0.5,0.3c0,0.2,0.3,0.3,1,0.3l0.3,0l1,0c0.5,0,0.8,0.1,0.8,0.2c0.1,0.2,0.1,0.7,0.1,1.5l0,14L540.7,204l-1.8,0l-0.9,0l-0.7,0l-2.8,0l-0.2,0c-0.4,0,-0.6,0.1,-0.6,0.4c0,0.2,0.4,0.4,1.3,0.4c1.1,0,1.9,0.3,2.3,1c0.3,0.5,0.5,2,0.5,4.6l0,13.9c0,0.9,0,1.4,-0.1,1.5c0,0.2,-0.4,0.4,-1.2,0.5l-0.7,0l-0.4,0c-0.7,0,-1,0.1,-1,0.3c0,0.3,0.3,0.4,0.8,0.4c0.7,0,1.4,0,2.1,-0.1c0.3,0,0.6,0,1,0c0.4,0,0.8,0,1.3,0c1,0.1,1.6,0.1,1.7,0.1c0.7,0,1.1,-0.1,1.1,-0.4c0,-0.2,-0.2,-0.3,-0.6,-0.3l-0.2,0c-0.9,0,-1.6,0,-1.9,-0.1c-0.4,0,-0.6,-0.7,-0.6,-2l0,-15.9c4.4,6.1,7.5,10.3,9.2,12.5c0.3,0.4,0.5,0.7,0.5,0.8c0.5,0.6,0.9,1.1,1.1,1.5c2,2.8,3.2,4.2,3.6,4.2c0.3,0,0.4,-0.1,0.5,-0.3c0,-0.2,0,-0.9,0,-2.1l0,-18.6c0,-0.8,0,-1.2,0.1,-1.4c0,-0.1,0.2,-0.2,0.5,-0.2l0.6,0l0.7,0c0.7,0,1.1,-0.1,1.1,-0.3c0,-0.2,-0.2,-0.3,-0.5,-0.3m22.2,5.1l-0.2,-2.6l-0.2,-2.3l-0.1,-0.5c-1.1,0.2,-3.5,0.2,-7.1,0.2l-9.6,0c-0.7,0,-1.1,0.1,-1.1,0.4c0,0.3,0.2,0.4,0.7,0.4c1,0.1,1.6,0.2,1.8,0.3c0.1,0.2,0.2,0.7,0.2,1.6l0,17.8c0,0.9,-0.1,1.4,-0.2,1.5c-0.2,0.2,-0.8,0.3,-1.8,0.3c-0.5,0,-0.7,0.1,-0.7,0.4c0,0.2,0.2,0.3,0.8,0.3l0.6,0l1,0l3.9,0l1.1,0l1.2,0l0.6,0c0.5,0,0.7,-0.1,0.7,-0.3c0,-0.3,-0.2,-0.4,-0.7,-0.4c-0.9,0,-1.4,0,-1.5,-0.1c-0.6,-0.1,-0.8,-0.5,-0.7,-1.1l0,-9.8l1.6,0c2,0,3.2,0.2,3.6,0.6c0.4,0.3,0.7,1.5,0.9,3.6c0.1,0.5,0.3,0.8,0.5,0.8c0.4,0,0.6,-0.3,0.6,-1l0,-0.2c0,-1.1,0,-1.9,-0.1,-2.6c0,-0.7,0,-1.2,0,-1.5c0,-1.9,0,-3,0,-3.5c0.1,-0.4,0.1,-0.8,0.1,-1.1c0,-0.5,-0.2,-0.8,-0.5,-0.8c-0.3,0,-0.5,0.3,-0.5,0.7c-0.2,2,-0.5,3.2,-1,3.6c-0.5,0.4,-1.9,0.6,-4.1,0.6l-1.1,0l0,-9.6c1.4,0,2.5,-0.1,3.4,-0.1c3,0,4.8,0.4,5.6,1.2c0.7,0.7,1.2,2,1.4,3.8c0.1,0.7,0.3,1,0.7,1c0.2,0,0.3,-0.2,0.3,-0.7c0,0.1,0,-0.2,-0.1,-0.9m22,11c-0.3,0,-0.4,0.4,-0.5,1.2c-0.2,1.9,-0.7,3.1,-1.4,3.7c-0.9,0.7,-3.2,1,-6.8,1c-0.6,0,-1.6,0,-2.9,0l0,-18.8c0,-1.2,0,-2,0.1,-2.2c0.2,-0.2,0.5,-0.3,1,-0.3c1.1,0,1.7,-0.2,1.7,-0.3c0,-0.3,-0.4,-0.5,-1,-0.5l-1.2,0l-7,0c-0.4,0,-0.6,0.2,-0.6,0.4c0,0.3,0.2,0.4,0.5,0.4c0.2,0,0.5,0,0.9,0c0.5,0,0.8,0.1,0.9,0.1c0.3,0.1,0.5,1.1,0.5,3l0,17c0,0.6,-0.1,0.9,-0.2,1.1c0,0.1,-0.3,0.2,-0.6,0.2c-1.4,0.1,-2,0.3,-2,0.4c0,0.3,0.2,0.4,0.6,0.4l4.2,0l8.6,0.1l2.4,0c0.7,0,1.4,0,1.9,0.1c0.4,0,0.7,0,0.7,0c0.3,0,0.6,0,0.8,0c0.1,-1.3,0.1,-2.9,0.1,-4.8c0,-1.4,-0.2,-2.2,-0.7,-2.2M626.2,204l-0.8,0l-1.6,0l-0.5,0l-2.3,0l-0.5,0c-0.4,0,-0.6,0.2,-0.6,0.4c0,0.3,0.3,0.4,1.1,0.4c0.8,0,1.2,0.1,1.4,0.2c0.2,0.1,0.3,0.4,0.3,0.8l0,10.4l0,1.2l0,0.5c0,2.4,-0.3,4.1,-0.7,5.2c-1,2.1,-2.7,3.2,-5.3,3.2c-1.9,0,-3.3,-0.5,-4.2,-1.6c-0.9,-1,-1.3,-3.1,-1.3,-6.4l0,-12.1c0,-0.6,0.1,-1,0.1,-1.1c0.1,-0.1,0.3,-0.2,0.7,-0.2c1.2,0,1.9,-0.1,1.9,-0.5c0,-0.2,-0.4,-0.4,-1,-0.4l-0.5,0l-0.9,0l-4.2,0l-0.8,0l-0.8,0l-0.7,0c-0.5,0,-0.7,0.2,-0.7,0.4c0,0.3,0.3,0.4,1,0.4c0.9,0,1.4,0.1,1.5,0.2c0.1,0.2,0.2,1.2,0.2,3l0,10.6c0,3.4,0.8,5.6,2.3,6.8c1.6,1.3,3.8,1.9,6.6,1.9c3.3,0,5.6,-1,6.9,-3.1c0.6,-1,0.9,-1.9,1.1,-2.8c0.1,-1,0.2,-3.1,0.2,-6.3l0,-9.3c0,-0.7,0.3,-1,0.8,-1l1,0l0.3,0c0.5,0,0.8,-0.1,0.8,-0.4c0,-0.2,-0.3,-0.4,-0.8,-0.4m22.6,16.2c-0.3,0,-0.5,0.2,-0.5,0.7c-0.2,2.9,-1,4.5,-2.4,4.9c-0.8,0.2,-3.7,0.3,-8.7,0.4l0,-10.9l1.3,0c2.1,0,3.5,0.2,3.9,0.5c0.5,0.4,0.8,1.4,1,3.3c0.1,0.8,0.3,1.2,0.6,1.2c0.3,0,0.5,-0.2,0.5,-0.8c0,-0.2,0,-0.4,0,-0.6c-0.1,-0.8,-0.1,-2.3,-0.1,-4.5c0,-0.5,0,-1.1,0,-1.9c0.1,-0.9,0.1,-1.5,0.1,-1.9c0,-0.7,-0.2,-1,-0.5,-1c-0.3,0,-0.5,0.5,-0.6,1.4c-0.2,1.6,-0.5,2.5,-1,2.9c-0.5,0.3,-1.8,0.5,-4,0.5l-1.2,0l0,-9.4l2.6,0c2.7,0,4.5,0.1,5.2,0.3c1.3,0.5,2.2,2,2.7,4.5c0.1,0.7,0.3,1,0.6,1c0.3,0,0.4,-0.2,0.4,-0.6c0,-0.2,0,-0.4,-0.1,-0.6c-0.2,-2.5,-0.3,-4,-0.4,-4.5l0,-0.7l0,-0.4l-2.2,0l-3,0l-5.5,0l-2.5,0l-1.3,0l-0.5,0l-1,0l-1.3,0c-0.4,0,-0.6,0.2,-0.6,0.4c0,0.3,0.2,0.4,0.6,0.4c0.9,0,1.5,0,1.8,0.1c0.2,0.1,0.3,0.8,0.3,2.2l0,17.4c0,0.9,-0.1,1.4,-0.3,1.6c-0.2,0.1,-0.8,0.2,-1.9,0.2c-0.4,0,-0.6,0.2,-0.6,0.5c0,0.2,0.4,0.4,1.1,0.4l9.6,-0.2l8.4,0.2c-0.1,-0.4,-0.1,-0.7,-0.1,-1l0,-3c0,-0.3,0,-0.6,0.1,-1c0,-0.4,0,-0.6,0,-0.6c0,-1,-0.1,-1.4,-0.5,-1.4m25.6,-16.1c-0.3,0,-1.4,-0.1,-3.2,-0.1c-2,0,-3.1,0.1,-3.4,0.1c-0.3,0,-0.5,0.1,-0.5,0.3c0,0.2,0.3,0.3,1,0.3l0.3,0l1,0c0.5,0,0.8,0.1,0.8,0.2c0.1,0.2,0.1,0.7,0.1,1.5l0,14L658.6,204l-1.8,0l-1,0l-0.6,0l-2.8,0l-0.2,0c-0.4,0,-0.6,0.1,-0.6,0.4c0,0.2,0.4,0.4,1.2,0.4c1.2,0,2,0.3,2.4,1c0.3,0.5,0.4,2,0.4,4.6l0,13.9c0,0.9,0,1.4,0,1.5c0,0.2,-0.5,0.4,-1.3,0.5l-0.6,0l-0.5,0c-0.6,0,-0.9,0.1,-0.9,0.3c0,0.3,0.2,0.4,0.8,0.4c0.7,0,1.4,0,2,-0.1c0.4,0,0.7,0,1.1,0c0.4,0,0.8,0,1.3,0c1,0.1,1.5,0.1,1.7,0.1c0.7,0,1.1,-0.1,1.1,-0.4c0,-0.2,-0.2,-0.3,-0.6,-0.3l-0.2,0c-1,0,-1.6,0,-2,-0.1c-0.3,0,-0.5,-0.7,-0.5,-2l0,-15.9c4.4,6.1,7.5,10.3,9.1,12.5c0.3,0.4,0.5,0.7,0.6,0.8c0.5,0.6,0.9,1.1,1.1,1.5c2,2.8,3.2,4.2,3.6,4.2c0.2,0,0.4,-0.1,0.4,-0.3c0.1,-0.2,0.1,-0.9,0.1,-2.1l0,-18.6c0,-0.8,0,-1.2,0.1,-1.4c0,-0.1,0.2,-0.2,0.5,-0.2l0.5,0l0.7,0c0.8,0,1.2,-0.1,1.2,-0.3c0,-0.2,-0.2,-0.3,-0.5,-0.3m23.7,14.4c-0.3,0,-0.5,0.4,-0.7,1.3c-0.3,2.1,-1.1,3.7,-2.3,4.9c-1.1,1.2,-2.6,1.8,-4.3,1.8c-2.3,0,-4.1,-1,-5.5,-3c-1.3,-2,-2,-4.6,-2,-8c0,-3.4,0.6,-6,1.8,-8c1.2,-2,2.9,-3,4.9,-3c2.5,0,4.2,1,5.3,2.9c0.5,0.9,0.9,2.2,1.2,4c0.1,0.5,0.3,0.8,0.6,0.8c0.3,0,0.5,-0.8,0.5,-2.2c0.1,-2.2,0.2,-3.9,0.4,-5.1c0.1,-0.2,0.1,-0.4,0.1,-0.4c0,-0.3,-0.1,-0.4,-0.4,-0.4c-0.3,0,-0.6,0.4,-0.8,1.1c-0.1,0.4,-0.3,0.7,-0.5,0.7c-0.1,0,-0.2,-0.1,-0.4,-0.3c-1.7,-1.3,-3.8,-1.9,-6.3,-1.9c-3.3,0,-5.9,1.1,-8,3.3c-2.1,2.2,-3.1,5,-3.1,8.4c0,3.4,1.1,6.3,3.4,8.5c2.2,2.3,5,3.4,8.4,3.4c2.7,0,4.8,-0.7,6.3,-2.2c0.1,0.1,0.1,0.2,0.1,0.3l0.5,1c0.3,0.5,0.5,0.8,0.8,0.8c0.3,0,0.4,-0.1,0.4,-0.5l0,-0.3c-0.1,-1,-0.2,-1.7,-0.2,-2.2c0,-0.8,0.1,-2.1,0.2,-3.9c0.1,-0.5,0.1,-0.7,0.1,-0.8c0,-0.7,-0.2,-1,-0.5,-1m23.3,1.7c-0.3,0,-0.5,0.2,-0.5,0.7c-0.3,2.9,-1,4.5,-2.4,4.9c-0.8,0.2,-3.7,0.3,-8.7,0.4l0,-10.9l1.3,0c2.1,0,3.5,0.2,3.9,0.5c0.5,0.4,0.8,1.4,1,3.3c0.1,0.8,0.3,1.2,0.6,1.2c0.3,0,0.5,-0.2,0.5,-0.8c0,-0.2,0,-0.4,0,-0.6C717,218.1,717,216.6,717,214.4c0,-0.5,0,-1.1,0,-1.9c0.1,-0.9,0.1,-1.5,0.1,-1.9c0,-0.7,-0.2,-1,-0.5,-1c-0.3,0,-0.5,0.5,-0.6,1.4c-0.2,1.6,-0.5,2.5,-1,2.9c-0.5,0.3,-1.8,0.5,-4,0.5l-1.2,0l0,-9.4l2.6,0c2.7,0,4.5,0.1,5.2,0.3c1.3,0.5,2.2,2,2.7,4.5c0.1,0.7,0.3,1,0.6,1c0.3,0,0.4,-0.2,0.4,-0.6c0,-0.2,0,-0.4,-0.1,-0.6c-0.2,-2.5,-0.3,-4,-0.4,-4.5l0,-0.7l0,-0.4l-2.2,0l-3,0l-5.5,0l-2.5,0l-1.3,0l-0.5,0l-1,0l-1.3,0c-0.4,0,-0.6,0.2,-0.6,0.4c0,0.3,0.2,0.4,0.6,0.4c0.9,0,1.5,0,1.8,0.1c0.2,0.1,0.3,0.8,0.3,2.2l0,17.4c0,0.9,-0.1,1.4,-0.3,1.6c-0.2,0.1,-0.8,0.2,-1.9,0.2c-0.4,0,-0.6,0.2,-0.6,0.5c0,0.2,0.4,0.4,1.1,0.4l9.6,-0.2l8.4,0.2c-0.1,-0.4,-0.1,-0.7,-0.1,-1l0,-3c0,-0.3,0,-0.6,0.1,-1c0,-0.4,0,-0.6,0,-0.6c0,-1,-0.1,-1.4,-0.5,-1.4M740,217c-0.9,-1,-2.5,-2,-4.6,-3.1c-2,-0.9,-3.2,-1.5,-3.6,-1.7c-0.4,-0.3,-0.7,-0.6,-1.1,-1c-0.6,-0.7,-0.9,-1.7,-0.9,-2.8c0,-2.6,1.2,-3.9,3.6,-3.9c1.2,0,2.3,0.5,3.2,1.4c1,0.8,1.6,2,1.9,3.5c0.1,0.6,0.3,0.9,0.6,0.9c0.3,0,0.4,-0.2,0.4,-0.6c0,-0.2,0,-0.3,0,-0.5c-0.1,-1.3,-0.2,-2.2,-0.2,-2.7c0,-0.8,0.1,-1.5,0.1,-2.1c0.1,-0.2,0.1,-0.3,0.1,-0.4c0,-0.3,-0.2,-0.5,-0.5,-0.5c-0.4,0,-0.6,0.3,-0.6,0.8c-0.1,0.5,-0.2,0.7,-0.5,0.7c-0.1,0,-0.2,-0.1,-0.4,-0.2c-1.4,-0.7,-2.8,-1.1,-4.1,-1.1c-2,0,-3.7,0.6,-5.1,1.8c-1.3,1.2,-2,2.7,-2,4.5c0,1.4,0.5,2.7,1.4,3.6c0.7,0.8,2.3,1.8,4.9,3c1.9,1,3.2,1.9,3.9,2.6c0.7,0.8,1,1.8,1,3.1c0,2.8,-1.4,4.2,-4.2,4.2c-3.3,0,-5.3,-1.9,-6,-5.6c-0.1,-1,-0.4,-1.5,-0.7,-1.5c-0.4,0,-0.5,0.3,-0.5,0.9l0,1.3l0,1.3c0,0.7,-0.1,1.5,-0.1,2.4c-0.1,1,-0.1,1.5,-0.1,1.5c0,0.4,0.1,0.5,0.5,0.5c0.2,0,0.4,-0.1,0.5,-0.3c0.1,-0.3,0.1,-0.5,0.1,-0.9c0.1,-0.3,0.2,-0.4,0.4,-0.4c0.1,0,0.2,0,0.4,0.1c1.8,1,3.6,1.5,5.3,1.5c2.3,0,4.2,-0.6,5.8,-2c1.6,-1.3,2.5,-2.9,2.5,-4.8c0,-1.3,-0.5,-2.5,-1.4,-3.5Z" class="g1_115" />
<path d="M264.5,260.6c-2.1,-2.3,-4.8,-3.4,-7.9,-3.4c-3.4,0,-6.1,1.1,-8.2,3.3c-2.2,2.1,-3.2,5,-3.2,8.4c0,3.3,1.1,6.2,3.3,8.5c2.2,2.3,5,3.4,8.3,3.4c3,0,5.6,-1.1,7.7,-3.4c2.1,-2.3,3.2,-5,3.2,-8.3c0,-3.4,-1.1,-6.2,-3.2,-8.5m-7.7,19.5c-2.2,0,-3.9,-1,-5.1,-2.9c-1.2,-2,-1.8,-4.7,-1.8,-8.1c0,-2.9,0.4,-5.3,1.2,-7.2c1.1,-2.6,2.9,-4,5.3,-4c1.8,0,3.2,0.7,4.2,2.2c1.6,2.2,2.4,5.3,2.4,9.2c0,7.2,-2.1,10.8,-6.2,10.8m36.7,-22.5c-0.3,-0.1,-1.4,-0.1,-3.3,-0.1c-1.9,0,-3.1,0,-3.4,0.1c-0.3,0,-0.4,0.1,-0.4,0.2c0,0.3,0.3,0.4,0.9,0.4l0.3,0l1.1,0c0.4,0,0.7,0.1,0.8,0.2c0,0.1,0.1,0.6,0.1,1.5l0,14L277.7,257.5l-1.9,0l-0.9,0l-0.6,0l-2.8,0l-0.2,0c-0.5,0,-0.7,0.1,-0.7,0.3c0,0.3,0.4,0.5,1.3,0.5c1.2,0,1.9,0.3,2.4,1c0.3,0.5,0.4,2,0.4,4.5l0,14c0,0.9,0,1.3,0,1.5c-0.1,0.2,-0.5,0.4,-1.3,0.4l-0.7,0.1l-0.4,0c-0.7,0,-1,0.1,-1,0.3c0,0.3,0.3,0.4,0.8,0.4c0.8,0,1.5,0,2.1,-0.1c0.3,0,0.7,-0.1,1,-0.1c0.4,0,0.9,0.1,1.4,0.1c0.9,0.1,1.5,0.1,1.6,0.1c0.8,0,1.1,-0.1,1.1,-0.4c0,-0.2,-0.2,-0.3,-0.6,-0.3l-0.2,0c-0.9,0,-1.6,0,-1.9,-0.1c-0.4,-0.1,-0.5,-0.7,-0.5,-2l0,-16c4.4,6.2,7.4,10.4,9.1,12.6c0.3,0.4,0.5,0.7,0.5,0.8c0.5,0.6,0.9,1.1,1.2,1.5c2,2.8,3.2,4.2,3.5,4.2c0.3,0,0.5,-0.1,0.5,-0.3c0,-0.2,0,-0.9,0,-2.1l0,-18.6c0,-0.8,0.1,-1.2,0.1,-1.4c0.1,-0.1,0.2,-0.2,0.5,-0.2l0.6,0l0.7,0c0.7,0,1.1,-0.1,1.1,-0.3c0,-0.2,-0.1,-0.3,-0.4,-0.3m42.3,20.1c-0.8,0,-1.1,0.3,-1.1,1c0,0.3,0,0.6,0.2,0.9c0,0.1,0.1,0.1,0.1,0.1c0,0.2,-0.3,0.3,-0.8,0.3c-1.6,0,-2.6,-1.3,-2.8,-4.1c-0.5,-4.9,-1.3,-8.3,-2.7,-10.1c-1.3,-1.9,-3.7,-3.1,-7.3,-3.8c-0.3,0,-0.5,0,-0.5,-0.2c0.1,0,0.2,-0.1,0.5,-0.1c3.3,-0.3,5.8,-1.2,7.7,-2.7c1.9,-1.5,2.8,-3.5,2.8,-5.8c0,-2.4,-0.9,-4.3,-2.7,-5.7c-1.9,-1.4,-4.3,-2.1,-7.5,-2.1c-0.5,0,-1.4,0.1,-2.8,0.1c-1.2,0.1,-2.1,0.1,-2.8,0.1l-6.7,-0.1c-0.2,-0.1,-0.4,-0.1,-0.5,-0.1c-0.5,0,-0.8,0.2,-0.8,0.5c0,0.3,0.5,0.5,1.3,0.5c1.4,0,2.3,0.2,2.6,0.4c0.3,0.3,0.4,1.1,0.4,2.4l0,27.9c0,1.1,-0.1,1.8,-0.2,1.9c-0.1,0.4,-1,0.6,-2.6,0.6c-0.9,0.1,-1.4,0.2,-1.4,0.4c0,0.3,0.4,0.5,1.1,0.5l2,0l2.3,0l2.5,0l4.4,0l0.6,0c0.6,0,0.9,-0.2,0.9,-0.5c0,-0.2,-0.2,-0.4,-0.7,-0.4c-1.2,0,-2,0,-2.3,-0.1c-1.1,-0.1,-1.6,-0.5,-1.6,-1.2l0,-15.9c2.7,0.1,4.6,0.5,5.8,1.4c1.1,0.9,1.8,2.4,2,4.6c0.4,3.6,0.7,5.8,0.9,6.7c0.1,0.8,0.5,1.7,1.2,2.7c1.5,2.2,3.5,3.3,6.1,3.3c2.4,0,3.6,-0.8,3.6,-2.2c0,-0.8,-0.4,-1.2,-1.2,-1.2M324.4,259.6c-1.4,1.2,-3.8,1.8,-7,1.7l0,-12.8c0,-0.7,0.2,-1.3,0.6,-1.6c0.4,-0.3,1.2,-0.4,2.3,-0.4c4.1,0,6.2,2.4,6.2,7.2c0,2.7,-0.7,4.7,-2.1,5.9m33.5,14c-0.3,0,-0.5,0.3,-0.5,0.8c-0.2,2.9,-1,4.5,-2.4,4.8c-0.8,0.3,-3.7,0.4,-8.7,0.4l0,-10.8l1.3,0c2.1,0,3.5,0.1,3.9,0.5c0.5,0.3,0.8,1.4,1,3.2c0.1,0.9,0.3,1.3,0.6,1.3c0.3,0,0.5,-0.3,0.5,-0.8c0,-0.2,0,-0.4,0,-0.7c-0.1,-0.8,-0.1,-2.3,-0.1,-4.5c0,-0.4,0,-1,0,-1.9c0.1,-0.8,0.1,-1.4,0.1,-1.8c0,-0.7,-0.2,-1,-0.5,-1c-0.3,0,-0.5,0.4,-0.6,1.4c-0.2,1.5,-0.5,2.5,-1,2.9c-0.5,0.3,-1.8,0.5,-4,0.5l-1.2,0l0,-9.4l2.6,0c2.8,0,4.5,0.1,5.2,0.3c1.3,0.5,2.2,2,2.7,4.5c0.1,0.7,0.3,1,0.6,1c0.3,0,0.4,-0.2,0.4,-0.6c0,-0.3,0,-0.5,-0.1,-0.6c-0.2,-2.5,-0.3,-4,-0.4,-4.5l0,-0.7l0,-0.4l-2.2,0l-3,0l-5.5,0l-2.5,0l-1.3,0l-0.5,0l-1,0l-1.3,0c-0.4,0,-0.6,0.1,-0.6,0.4c0,0.2,0.2,0.4,0.6,0.4c0.9,0,1.5,0,1.8,0.1c0.2,0.1,0.3,0.8,0.3,2.2l0,17.3c0,1,-0.1,1.5,-0.3,1.7c-0.2,0.1,-0.8,0.2,-1.9,0.2c-0.4,0,-0.6,0.1,-0.6,0.4c0,0.3,0.4,0.4,1.1,0.4l9.6,-0.1l8.4,0.1c-0.1,-0.3,-0.1,-0.7,-0.1,-1l0,-2.9c0,-0.3,0,-0.6,0.1,-1c0,-0.4,0,-0.6,0,-0.7c0,-0.9,-0.1,-1.4,-0.5,-1.4M384.1,273l-0.9,0l-4,0l-0.8,0l-1.1,0l-1.3,0c-0.8,0,-1.2,0.2,-1.2,0.5c0,0.2,0.1,0.3,0.4,0.3l0.4,0l0.4,0c1.1,0,1.7,0.1,1.9,0.2c0.1,0.2,0.2,0.8,0.2,2c0,1,-0.1,1.7,-0.2,2.1c-0.5,1.3,-1.8,1.9,-3.8,1.9c-2.2,0,-3.9,-0.9,-5.2,-2.9c-1.3,-1.9,-2,-4.6,-2,-7.9c0,-3.5,0.7,-6.3,1.9,-8.3c1.3,-2,3.1,-3,5.3,-3c1.9,0,3.4,0.7,4.5,2c1.2,1.2,1.8,3,1.9,5.2c0,0.4,0.1,0.6,0.4,0.6c0.4,0,0.6,-0.4,0.6,-1.2c0,-2.9,0.1,-4.8,0.2,-5.8c0.1,-0.6,0.1,-0.9,0.1,-0.8c0,-0.3,-0.1,-0.4,-0.4,-0.4c-0.3,0,-0.5,0.3,-0.7,0.9c-0.1,0.4,-0.3,0.6,-0.6,0.6c-0.1,0,-0.3,0,-0.4,-0.1c-2.1,-1.2,-4.1,-1.7,-5.9,-1.7c-3.5,0,-6.3,1.1,-8.4,3.3c-2.2,2.2,-3.2,5.2,-3.2,8.8c0,3.5,1.1,6.3,3.3,8.4c2.1,2.1,5.1,3.1,8.8,3.1c2.9,0,5.4,-0.9,7.6,-2.7l0,-2c0,-1,0.1,-1.6,0.2,-1.9c0,-0.2,0.2,-0.4,0.3,-0.4l1.7,0c0.6,0,0.9,-0.1,0.9,-0.3c0,-0.3,-0.3,-0.5,-0.9,-0.5m12,6.8c-0.9,-0.1,-1.5,-0.2,-1.8,-0.3c-0.2,-0.1,-0.4,-0.3,-0.4,-0.6l0,-19c0,-0.8,0.1,-1.3,0.2,-1.4c0.1,-0.2,0.4,-0.2,0.8,-0.2c1.2,-0.1,1.8,-0.2,1.8,-0.4c0,-0.3,-0.3,-0.4,-0.8,-0.4l-1.3,0l-1.1,0l-0.9,0l-3.7,0l-1.1,0l-0.3,0c-0.4,0,-0.6,0.1,-0.6,0.4c0,0.2,0.1,0.3,0.4,0.3l0.5,0l1,0c0.5,0,0.7,0.2,0.8,0.4c0.1,0.2,0.1,1,0.1,2.3l0,16.4c0,1.2,0,2,-0.1,2.1c0,0.2,-0.6,0.3,-1.6,0.4c-0.7,0,-1.1,0.2,-1.1,0.4c0,0.2,0.3,0.2,0.9,0.2l0.2,0l2.1,0l1.9,0l0.5,0l0.9,0l1.3,0l1.1,0l0.5,0c0.3,0,0.4,-0.1,0.4,-0.3c0,-0.2,-0.2,-0.3,-0.6,-0.3m24.1,-19.2c-2.2,-2.3,-4.8,-3.4,-8,-3.4c-3.3,0,-6,1.1,-8.2,3.3c-2.1,2.1,-3.2,5,-3.2,8.4c0,3.3,1.2,6.2,3.4,8.5c2.2,2.3,5,3.4,8.2,3.4c3.1,0,5.7,-1.1,7.8,-3.4c2.1,-2.3,3.2,-5,3.2,-8.3c0,-3.4,-1.1,-6.2,-3.2,-8.5m-7.8,19.5c-2.1,0,-3.8,-1,-5,-2.9c-1.2,-2,-1.8,-4.7,-1.8,-8.1c0,-2.9,0.4,-5.3,1.1,-7.2c1.2,-2.6,2.9,-4,5.4,-4c1.8,0,3.2,0.7,4.2,2.2c1.6,2.2,2.3,5.3,2.3,9.2c0,7.2,-2,10.8,-6.2,10.8m36.7,-22.5c-0.3,-0.1,-1.3,-0.1,-3.2,-0.1c-1.9,0,-3.1,0,-3.4,0.1c-0.3,0,-0.5,0.1,-0.5,0.2c0,0.3,0.4,0.4,1,0.4l0.3,0l1.1,0c0.4,0,0.7,0.1,0.8,0.2c0,0.1,0.1,0.6,0.1,1.5l0,14L433.4,257.5l-1.9,0l-0.9,0l-0.7,0l-2.7,0l-0.2,0c-0.5,0,-0.7,0.1,-0.7,0.3c0,0.3,0.4,0.5,1.3,0.5c1.1,0,1.9,0.3,2.3,1c0.3,0.5,0.5,2,0.5,4.5l0,14c0,0.9,0,1.3,-0.1,1.5c0,0.2,-0.4,0.4,-1.2,0.4l-0.7,0.1l-0.4,0c-0.7,0,-1,0.1,-1,0.3c0,0.3,0.3,0.4,0.8,0.4c0.8,0,1.4,0,2.1,-0.1c0.3,0,0.7,-0.1,1,-0.1c0.4,0,0.9,0.1,1.4,0.1c0.9,0.1,1.5,0.1,1.6,0.1c0.8,0,1.1,-0.1,1.1,-0.4c0,-0.2,-0.2,-0.3,-0.6,-0.3l-0.2,0c-0.9,0,-1.6,0,-1.9,-0.1c-0.4,-0.1,-0.5,-0.7,-0.5,-2l0,-16c4.4,6.2,7.4,10.4,9.1,12.6c0.3,0.4,0.5,0.7,0.5,0.8c0.5,0.6,0.9,1.1,1.1,1.5c2.1,2.8,3.2,4.2,3.6,4.2c0.3,0,0.4,-0.1,0.5,-0.3c0,-0.2,0,-0.9,0,-2.1l0,-18.6c0,-0.8,0,-1.2,0.1,-1.4c0,-0.1,0.2,-0.2,0.5,-0.2l0.6,0l0.7,0c0.7,0,1.1,-0.1,1.1,-0.3c0,-0.2,-0.2,-0.3,-0.5,-0.3m25.4,22.1c-1,0,-1.6,-0.1,-1.7,-0.1c-0.3,-0.1,-0.7,-0.6,-1.1,-1.7c-4.2,-10.5,-6.8,-17,-7.8,-19.4c-0.4,-1,-0.6,-1.4,-0.7,-1.4c-0.2,0,-0.4,0.2,-0.6,0.7l-0.3,0.9l-0.8,2.1c-1,2.8,-1.9,4.9,-2.4,6.3c-0.2,0.5,-0.4,0.8,-0.4,1.1c-0.1,0.2,-0.2,0.6,-0.4,1c-0.6,1.3,-1.1,2.8,-1.7,4.3c-1.4,3.7,-2.3,5.6,-2.5,5.7c-0.1,0.2,-0.5,0.4,-1.1,0.5c-0.2,0,-0.6,0.1,-1.2,0.1c-0.4,0,-0.6,0.2,-0.6,0.4c0,0.2,0.2,0.3,0.8,0.3l0.1,0l0.5,-0.1l0.5,-0.1l0.4,0c0.9,0,1.8,0.1,2.9,0.1c1.1,0.1,1.7,0.1,1.8,0.1c0.7,0,1.1,-0.1,1.1,-0.4c0,-0.2,-0.2,-0.3,-0.6,-0.3l-0.5,-0.1l-0.7,0l-0.7,-0.1c-0.4,0,-0.6,-0.2,-0.6,-0.5c0,-0.5,0.7,-2.5,2.1,-6l7.2,0l0.6,1.7c0.7,2,1.1,3.1,1.1,3.4c0.2,0.6,0.3,0.9,0.3,0.9c0,0.3,-0.7,0.5,-2.1,0.5c-1.2,0.1,-1.8,0.2,-1.8,0.5c0,0.3,0.3,0.4,0.9,0.4l0.2,0l0.9,0l1.5,0l2.4,0l1.4,0l3.1,0l0.4,0c0.7,0,1,-0.1,1,-0.3c0,-0.3,-0.3,-0.4,-0.9,-0.5m-15.9,-7.4c1.4,-3.7,2.5,-6.6,3.3,-8.6l3.3,8.6Zm36.6,1.4c-0.3,0,-0.5,0.4,-0.5,1.2c-0.2,1.9,-0.7,3.1,-1.4,3.6c-0.9,0.7,-3.2,1.1,-6.8,1.1c-0.6,0,-1.6,0,-2.9,-0.1l0,-18.7c0,-1.3,0,-2,0.1,-2.2c0.1,-0.2,0.4,-0.3,1,-0.3c1.1,-0.1,1.7,-0.2,1.7,-0.4c0,-0.3,-0.4,-0.4,-1,-0.4l-1.2,0l-7,0c-0.4,0,-0.6,0.1,-0.6,0.4c0,0.2,0.2,0.4,0.5,0.4c0.2,0,0.5,0,0.9,0c0.5,0,0.8,0,0.9,0.1c0.3,0.1,0.4,1.1,0.4,3l0,16.9c0,0.6,0,1,-0.1,1.1c-0.1,0.2,-0.3,0.3,-0.7,0.3c-1.3,0.1,-1.9,0.2,-1.9,0.4c0,0.2,0.2,0.3,0.6,0.3l4.2,0l8.6,0.1l2.4,0c0.7,0,1.4,0.1,1.8,0.1c0.5,0.1,0.8,0.1,0.8,0.1c0.3,0,0.6,0,0.8,-0.1c0,-1.2,0.1,-2.8,0.1,-4.7c0,-1.5,-0.2,-2.2,-0.7,-2.2m43.7,-5.3c-0.3,0,-0.5,0.4,-0.7,1.2c-0.4,2.2,-1,4,-1.8,5.5c-0.8,1.6,-1.9,2.8,-3.4,3.6c-1.4,0.9,-3,1.3,-4.8,1.3c-3.3,0,-6.1,-1.3,-8.1,-4c-2.4,-3.1,-3.6,-7.4,-3.6,-13c0,-6.3,1.5,-11.1,4.3,-14.4c1.6,-1.8,3.8,-2.7,6.5,-2.7c3.5,0,6.1,1.4,7.8,4c0.8,1.4,1.4,3.4,1.8,6c0.1,0.7,0.3,1,0.7,1c0.1,0,0.3,0,0.4,-0.1c0.1,-0.1,0.1,-0.5,0.1,-1.2c0,-4.4,0.2,-7.4,0.6,-9c0,-0.3,0.1,-0.6,0.1,-0.7c0,-0.3,-0.2,-0.4,-0.4,-0.4c-0.3,0,-0.6,0.5,-1.1,1.4c-0.2,0.6,-0.5,0.8,-0.8,0.8c-0.4,0,-1,-0.2,-1.7,-0.6c-1.5,-0.9,-2.8,-1.5,-3.8,-1.8c-1,-0.3,-2.4,-0.4,-4.1,-0.4c-4.7,0,-8.6,1.7,-11.5,5c-3,3.4,-4.5,7.7,-4.5,13c0,5.2,1.6,9.5,4.9,13c3.2,3.4,7.3,5.2,12.2,5.2c3.4,0,6.3,-1.1,8.8,-3.2c0.4,0.2,0.9,1,1.4,2.1c0.2,0.5,0.4,0.8,0.7,0.8c0.3,0,0.4,-0.2,0.4,-0.7l0,-0.4c0,-0.9,0,-1.6,-0.1,-2.3c-0.1,-0.6,-0.1,-1,-0.1,-1.2c0,-1.9,0.1,-3.8,0.2,-5.7c0.1,-0.9,0.1,-1.4,0.1,-1.3c0,-0.6,-0.2,-0.8,-0.5,-0.8m25,-7.8c-2.1,-2.3,-4.8,-3.4,-7.9,-3.4c-3.4,0,-6.1,1.1,-8.2,3.3c-2.2,2.1,-3.2,5,-3.2,8.4c0,3.3,1.1,6.2,3.3,8.5c2.3,2.3,5,3.4,8.3,3.4c3,0,5.6,-1.1,7.7,-3.4c2.2,-2.3,3.2,-5,3.2,-8.3c0,-3.4,-1.1,-6.2,-3.2,-8.5m-7.7,19.5c-2.2,0,-3.9,-1,-5.1,-2.9c-1.2,-2,-1.8,-4.7,-1.8,-8.1c0,-2.9,0.4,-5.3,1.2,-7.2c1.1,-2.6,2.9,-4,5.3,-4c1.8,0,3.2,0.7,4.2,2.2c1.6,2.2,2.4,5.3,2.4,9.2c0,7.2,-2.1,10.8,-6.2,10.8m34.7,-19.5c-2.1,-2.3,-4.8,-3.4,-8,-3.4c-3.3,0,-6,1.1,-8.1,3.3c-2.2,2.1,-3.2,5,-3.2,8.4c0,3.3,1.1,6.2,3.3,8.5c2.2,2.3,5,3.4,8.2,3.4c3.1,0,5.7,-1.1,7.8,-3.4c2.1,-2.3,3.2,-5,3.2,-8.3c0,-3.4,-1.1,-6.2,-3.2,-8.5m-7.8,19.5c-2.1,0,-3.8,-1,-5,-2.9c-1.2,-2,-1.8,-4.7,-1.8,-8.1c0,-2.9,0.4,-5.3,1.2,-7.2c1.1,-2.6,2.8,-4,5.3,-4c1.8,0,3.2,0.7,4.2,2.2c1.6,2.2,2.4,5.3,2.4,9.2c0,7.2,-2.1,10.8,-6.3,10.8m38.8,-0.4c-0.7,0,-1.1,-0.1,-1.4,-0.3c-0.3,-0.2,-1,-0.7,-1.9,-1.7l-6,-6c-2.7,-2.8,-4.3,-4.4,-4.7,-4.9c2.7,-2.5,4.8,-4.4,6.1,-5.7c0.9,-0.8,1.6,-1.5,2,-1.8c0.7,-0.7,1.3,-1,1.7,-0.9l1.4,0c0.7,0,1,-0.1,1,-0.5c0,-0.2,-0.3,-0.3,-0.7,-0.3c-0.4,-0.1,-2,-0.1,-4.5,-0.1c-1.5,0,-2.3,0,-2.6,0.1c-0.2,0,-0.3,0.1,-0.3,0.3c0,0.3,0.2,0.4,0.6,0.4c1.4,0,2.1,0.1,2.1,0.3c0,0.2,-3.2,3.2,-9.5,9l0,-8.3c0,-0.4,0.1,-0.7,0.2,-0.8c0.1,-0.1,0.5,-0.2,1,-0.2c1.1,0,1.7,-0.2,1.7,-0.4c0,-0.3,-0.3,-0.4,-0.8,-0.4l-1.7,0.1c-1.2,-0.1,-1.9,-0.1,-2.1,-0.1l-3.3,0.1c-0.2,0,-0.5,-0.1,-0.8,-0.1l-0.5,0c-0.4,0,-0.7,0.1,-0.7,0.4c0,0.3,0.5,0.4,1.3,0.4c0.9,0,1.3,0.1,1.4,0.4c0.1,0.1,0.1,0.6,0.1,1.6l0,16.9c0,1.2,-0.1,1.9,-0.2,2.1c-0.1,0.2,-0.4,0.3,-1.1,0.3c-1,0,-1.5,0.1,-1.5,0.4c0,0.3,0.3,0.4,0.7,0.4l0.4,0l2.8,0l4.8,0l0.4,0c0.5,0,0.8,-0.1,0.8,-0.3c0,-0.3,-0.2,-0.4,-0.6,-0.4c-1.1,0,-1.8,-0.1,-2,-0.3c-0.2,-0.1,-0.3,-0.6,-0.3,-1.4l0,-9c4.7,5.1,7.4,8.1,8.1,8.8c0.8,0.9,1.2,1.4,1.2,1.5c0,0.2,-0.3,0.3,-1,0.4c-1.1,0.1,-1.7,0.2,-1.7,0.5c0,0.2,0.3,0.2,0.9,0.2l7.5,0l1,0c0.6,0,1,0,1.1,0c0.2,0,0.2,-0.2,0.2,-0.4c0,-0.2,-0.2,-0.3,-0.6,-0.3m11.5,0.1c-0.9,-0.1,-1.5,-0.2,-1.8,-0.3c-0.2,-0.1,-0.4,-0.3,-0.4,-0.6l0,-19c0,-0.8,0.1,-1.3,0.2,-1.4c0.1,-0.2,0.4,-0.2,0.9,-0.2c1.1,-0.1,1.7,-0.2,1.7,-0.4c0,-0.3,-0.3,-0.4,-0.8,-0.4l-1.3,0l-1.1,0l-0.9,0l-3.6,0l-1.2,0l-0.3,0c-0.4,0,-0.6,0.1,-0.6,0.4c0,0.2,0.1,0.3,0.4,0.3l0.5,0l1.1,0c0.4,0,0.6,0.2,0.7,0.4c0.1,0.2,0.1,1,0.1,2.3l0,16.4c0,1.2,0,2,-0.1,2.1c0,0.2,-0.5,0.3,-1.6,0.4c-0.7,0,-1.1,0.2,-1.1,0.4c0,0.2,0.3,0.2,0.9,0.2l0.2,0l2.1,0l1.9,0l0.5,0l0.9,0l1.3,0l1.1,0l0.5,0c0.3,0,0.4,-0.1,0.4,-0.3c0,-0.2,-0.2,-0.3,-0.6,-0.3m26.1,-22.2c-0.3,-0.1,-1.4,-0.1,-3.2,-0.1c-2,0,-3.1,0,-3.5,0.1c-0.3,0,-0.4,0.1,-0.4,0.2c0,0.3,0.3,0.4,0.9,0.4l0.3,0l1.1,0c0.5,0,0.7,0.1,0.8,0.2c0.1,0.1,0.1,0.6,0.1,1.5l0,14L643.7,257.5l-1.9,0l-0.9,0l-0.6,0l-2.8,0l-0.2,0c-0.4,0,-0.7,0.1,-0.7,0.3c0,0.3,0.5,0.5,1.3,0.5c1.2,0,2,0.3,2.4,1c0.3,0.5,0.4,2,0.4,4.5l0,14c0,0.9,0,1.3,0,1.5c-0.1,0.2,-0.5,0.4,-1.3,0.4l-0.6,0.1l-0.5,0c-0.6,0,-1,0.1,-1,0.3c0,0.3,0.3,0.4,0.9,0.4c0.7,0,1.4,0,2,-0.1c0.4,0,0.7,-0.1,1,-0.1c0.4,0,0.9,0.1,1.4,0.1c1,0.1,1.5,0.1,1.7,0.1c0.7,0,1.1,-0.1,1.1,-0.4c0,-0.2,-0.2,-0.3,-0.6,-0.3l-0.2,0c-1,0,-1.6,0,-2,-0.1c-0.3,-0.1,-0.5,-0.7,-0.5,-2l0,-16c4.4,6.2,7.4,10.4,9.1,12.6c0.3,0.4,0.5,0.7,0.6,0.8c0.5,0.6,0.8,1.1,1.1,1.5c2,2.8,3.2,4.2,3.6,4.2c0.2,0,0.4,-0.1,0.4,-0.3c0,-0.2,0.1,-0.9,0.1,-2.1l0,-18.6c0,-0.8,0,-1.2,0,-1.4c0.1,-0.1,0.3,-0.2,0.6,-0.2l0.5,0l0.7,0c0.8,0,1.1,-0.1,1.1,-0.3c0,-0.2,-0.1,-0.3,-0.4,-0.3m26,15.4l-0.9,0l-4,0l-0.8,0l-1.1,0l-1.3,0c-0.8,0,-1.2,0.2,-1.2,0.5c0,0.2,0.2,0.3,0.4,0.3l0.5,0l0.3,0c1.1,0,1.8,0.1,1.9,0.2c0.2,0.2,0.2,0.8,0.2,2c0,1,0,1.7,-0.2,2.1c-0.5,1.3,-1.7,1.9,-3.7,1.9c-2.3,0,-4,-0.9,-5.3,-2.9c-1.3,-1.9,-1.9,-4.6,-1.9,-7.9c0,-3.5,0.6,-6.3,1.9,-8.3c1.2,-2,3,-3,5.3,-3c1.8,0,3.3,0.7,4.5,2c1.1,1.2,1.7,3,1.8,5.2c0,0.4,0.2,0.6,0.5,0.6c0.4,0,0.6,-0.4,0.6,-1.2c0,-2.9,0,-4.8,0.1,-5.8c0.1,-0.6,0.1,-0.9,0.1,-0.8c0,-0.3,-0.1,-0.4,-0.4,-0.4c-0.2,0,-0.5,0.3,-0.7,0.9c-0.1,0.4,-0.3,0.6,-0.5,0.6c-0.2,0,-0.3,0,-0.5,-0.1c-2.1,-1.2,-4,-1.7,-5.8,-1.7c-3.5,0,-6.4,1.1,-8.5,3.3c-2.1,2.2,-3.2,5.2,-3.2,8.8c0,3.5,1.1,6.3,3.3,8.4c2.2,2.1,5.1,3.1,8.8,3.1c2.9,0,5.5,-0.9,7.7,-2.7l0,-2c0,-1,0,-1.6,0.1,-1.9c0.1,-0.2,0.2,-0.4,0.4,-0.4l1.6,0c0.6,0,0.9,-0.1,0.9,-0.3c0,-0.3,-0.3,-0.5,-0.9,-0.5Z" class="g1_115" />
<text 
x="140" 
y="319" 
dx="0,0,0,0,0,0,0,0,0,0,0,0,0,0,0,0,-1.1,0,0,0,0,0,-0.2,0,0,0,0,0,0,0,0,0,0,0,0,0,0,0,0,0,0,0,0,0,0" 
class="s2_115"
>The so-called Four Great Culinary Schools (</text>

<text 
x="428" 
y="319" 
dx="0" 
class="s3_115"
></text>

<text 
x="451" 
y="319" 
dx="0" 
class="s4_115"
></text>

<text 
x="474" 
y="319" 
dx="0,0" 
class="s3_115"
></text>

<text 
x="519" 
y="319" 
dx="0" 
class="s2_115"
>/</text>

<text 
x="524" 
y="319" 
dx="0,0,0,0" 
class="s4_115"
></text>

<text 
x="616" 
y="319" 
dx="0,0,0" 
class="s2_115"
>) (</text>

<text 
x="627" 
y="319" 
dx="0,0,0,0,0,0,0,0,0,0,0,0" 
class="s5_115"
>s d ci x</text>

<text 
x="685" 
y="319" 
dx="0,0,0,0,-0.2,0,0,0,0,0,0,0,0,0,0,0,0" 
class="s2_115"
>) are identified </text>

<text 
x="140" 
y="342" 
dx="0,0,0,0,0,0,0,0,0,0,0,-0.2,0,0,0,0,-0.2,0,0,0,0,0,0,0,0,0,-0.2,0,0,0,0,0,0,0,0,0,0,0,-0.2,0,0,0,0,0,0,-0.3,0,0,0,0,0,-0.2,-0.3,0,0,0,0,0,0,0,0,-0.2,0,0,0,0,0,0,0,0,0,0,0,0,0,0,0,0,0,0,0,0,0,0,0,0,0,0,0,0,0,-0.2,0,0" 
class="s2_115"
>by the abbreviated or historic names of the four provinces from which the cuisines originate. </text>

<text 
x="734" 
y="342" 
dx="0" 
class="s3_115"
></text>

<text 
x="140" 
y="365" 
dx="0" 
class="s2_115"
>(</text>

<text 
x="144" 
y="365" 
dx="0,0,0,0,0" 
class="s5_115"
>Chun</text>

<text 
x="180" 
y="365" 
dx="0,0,0" 
class="s2_115"
>), </text>

<text 
x="190" 
y="365" 
dx="0" 
class="s3_115"
></text>

<text 
x="213" 
y="365" 
dx="0" 
class="s2_115"
>/</text>

<text 
x="218" 
y="365" 
dx="0" 
class="s4_115"
></text>

<text 
x="244" 
y="365" 
dx="0" 
class="s2_115"
>(</text>

<text 
x="248" 
y="365" 
dx="0,0,0" 
class="s5_115"
>Yu</text>

<text 
x="269" 
y="365" 
dx="0,0,0" 
class="s2_115"
>), </text>

<text 
x="280" 
y="365" 
dx="0" 
class="s3_115"
></text>

<text 
x="302" 
y="365" 
dx="0" 
class="s2_115"
>/</text>

<text 
x="307" 
y="365" 
dx="0" 
class="s4_115"
></text>

<text 
x="333" 
y="365" 
dx="0" 
class="s2_115"
>(</text>

<text 
x="337" 
y="365" 
dx="0,0" 
class="s5_115"
>L</text>

<text 
x="351" 
y="365" 
dx="0,0,0,0,0,0,0" 
class="s2_115"
>), and </text>

<text 
x="388" 
y="365" 
dx="0" 
class="s3_115"
></text>

<text 
x="411" 
y="365" 
dx="0" 
class="s2_115"
>/</text>

<text 
x="416" 
y="365" 
dx="0" 
class="s4_115"
></text>

<text 
x="442" 
y="365" 
dx="0" 
class="s2_115"
>(</text>

<text 
x="446" 
y="365" 
dx="0,0" 
class="s5_115"
>S</text>

<text 
x="460" 
y="365" 
dx="0,0,0,-0.2,0,-0.3,0,0,0,-0.2,0,0,0,0,0,0,0,0,0,0,0,0,0,0,0,-0.2,0,0,0,0,0,0,0,0,0,0,0,0,0,0,0,0,0,0,0" 
class="s2_115"
>) refer to Sichuan, Guangdong, Shandong, and </text>

<text 
x="140" 
y="388" 
dx="0,0,0,0,0,0,0,0,0,0,-0.2,0,0,0,0,0,0,0,-0.4,0,0,-0.9,0,0,0,0,0,0,-0.2,0,0,0,0,0,0,0,0,0,0,0,0,0,0,0,0,0,0,0,0,0,0,0,0,0,0,0,0,0,0,-0.2,0,0,-0.2,0,0,0,0,0,0,0,0,0,0,0,0,0,0,0,0,0,0,0,0,0" 
class="s2_115"
>Jiangsu, respectively. The telltale fiery and tingling taste of Sichuanese cooking (</text>

<text 
x="655" 
y="388" 
dx="0,0" 
class="s3_115"
></text>

<text 
x="701" 
y="388" 
dx="0" 
class="s2_115"
>/</text>

<text 
x="705" 
y="388" 
dx="0,0" 
class="s4_115"
></text>

<text 
x="751" 
y="388" 
dx="0,0" 
class="s2_115"
>) </text>

<text 
x="140" 
y="411" 
dx="0" 
class="s2_115"
>(</text>

<text 
x="144" 
y="411" 
dx="0,0,0,0,0,0,0,0,0" 
class="s5_115"
>Chun ci</text>

<text 
x="200" 
y="411" 
dx="0,0,0,0,0,0,0,0,0,0,-0.2,0,0,0,0,0,0,0,0,0,0,0,0,0,0,0,0,0,0,0,0,0,0,0,0,0,0,0,0,0,0,0,0,0,0,0,0,0,0,0,0,0,0,0,0,0,0,0,0,0,0,0,0,0,0,0,0,0,0,-0.2,0,0,0,0,0,0,0,-0.1,0,0,0,0,0,0" 
class="s2_115"
>) comes from its two main seasonings: chili pepper and Sichuan peppercorn. Hot bean </text>

<text 
x="140" 
y="433" 
dx="0,0,0,0,-0.2,0,0,0,0,0,0,0,-0.1,0,0,0,0,0,0,0,0,0,0,0,0,0,0,0,-0.2,0,0,0,0,0,0,0,0,0,0,0,0,0,0,0,0,0,0,0,0,0,0,0,0,0,0,0,0,0,0,0,0,0,0,0,0,0,0,0,0,0,0,0,0,0,0,0,0,0,0,-0.2,0,0,0,0,0,0,0,0,0,0,0,0,0" 
class="s2_115"
>paste is another common ingredient. Best known outside China is far milder Cantonese cooking </text>

<text 
x="140" 
y="456" 
dx="0" 
class="s2_115"
>(</text>

<text 
x="144" 
y="456" 
dx="0,0" 
class="s3_115"
></text>

<text 
x="190" 
y="456" 
dx="0" 
class="s2_115"
>/</text>

<text 
x="195" 
y="456" 
dx="0,0" 
class="s4_115"
></text>

<text 
x="241" 
y="456" 
dx="0,0,0" 
class="s2_115"
>) (</text>

<text 
x="252" 
y="456" 
dx="0,0,0,0,0,0,0" 
class="s5_115"
>Yu ci</text>

<text 
x="293" 
y="456" 
dx="0,0,0,0,-0.2,0,0,0,0,0,0,0,-0.2,0,0,0,0,0" 
class="s2_115"
>) from Guangdong (</text>

<text 
x="416" 
y="456" 
dx="0,0" 
class="s3_115"
></text>

<text 
x="462" 
y="456" 
dx="0" 
class="s2_115"
>/</text>

<text 
x="467" 
y="456" 
dx="0,0" 
class="s4_115"
></text>

<text 
x="512" 
y="456" 
dx="0,0,0" 
class="s2_115"
>) (</text>

<text 
x="523" 
y="456" 
dx="0,0,0,0,0,0,0,0,0" 
class="s5_115"
>Gungdng</text>

<text 
x="586" 
y="456" 
dx="0,0,0,0,0,0,0,0,0,0,0,0,-0.5,0,0,0,0,0,0,0,0,0,0,-0.2,0" 
class="s2_115"
>), which takes advantage </text>

<text 
x="140" 
y="479" 
dx="0,-0.2,0,0,0,0,0,0,-0.2,0,0,0,0,0,-0.8,0,0,0,0,0,0,0,0,0,0,0,0,0,-0.2,0,0,0,0,0,0,0,0,0,0,0,0,0,0,-0.2,0,0,0,0,0,0,0,0,0,0,0,0,0,-0.3,0,0,0,0,0,0,0,0,0,0,0,0,0,0" 
class="s2_115"
>of the regions bountiful fresh seasonal produce and seafood. Shandong (</text>

<text 
x="607" 
y="479" 
dx="0,0" 
class="s3_115"
></text>

<text 
x="653" 
y="479" 
dx="0" 
class="s2_115"
>/</text>

<text 
x="658" 
y="479" 
dx="0,0" 
class="s4_115"
></text>

<text 
x="704" 
y="479" 
dx="0,0,0,0,0,0,0,0,0,0,0,0" 
class="s2_115"
>), with its </text>

<text 
x="140" 
y="502" 
dx="0,0,0,0,0,0,0,0,0,0,0,0,0,0,0,0,0,0,0,0,0,0,0,0,0,0,0,0,0,0,0,0,0,0,0,0,0,0,0,0,0,0,0,0,0,0,0,0,0,0,0,0,0,0,0,0,0,0,0,0,0,0,0,0,0,0,0,0,0,0,0,0,-0.1,0,0,0,0,0,0,0,0" 
class="s2_115"
>coastline in the east and mountains in the west, has a varied cooking tradition, </text>

<text 
x="643" 
y="502" 
dx="0,0" 
class="s3_115"
></text>

<text 
x="689" 
y="502" 
dx="0" 
class="s2_115"
>/</text>

<text 
x="693" 
y="502" 
dx="0,0" 
class="s4_115"
></text>

<text 
x="742" 
y="502" 
dx="0" 
class="s2_115"
>(</text>

<text 
x="746" 
y="502" 
dx="0,0,0,0,0,0" 
class="s5_115"
>L ci</text>

<text 
x="780" 
y="502" 
dx="0,0,0" 
class="s2_115"
>), </text>

<text 
x="140" 
y="525" 
dx="0,0,0,0,0,0,0,0,0,0,0,0,0,0,-0.2,-0.1,0,0,0,0,0,0,0,0,-0.3,0,0,0,0,0,0,0,0,0,0,0,0,0,0,0,-0.9,0,0,0,0,0,0,0,0,0,0,-0.2,0,0,0,0,0,0,-0.2,0,0,0,0,0,-0.8,0,0,0,-0.2,-0.4,0,0,0,0,0,0,0,-0.2,0,0,0,0,0,0,0,0,0,0,0,0,0,0,0,0,0,0,0,0,0" 
class="s2_115"
>emphasizing broths, seafood, and poultry. Because of the regions proximity to the imperial court, </text>

<text 
x="140" 
y="548" 
dx="0,0,0,0,0,0,0,0,0,0,0,0,0,0,0,0,0,0,0,0,0,0,0,0,0,0,0,0,0,0,0,-0.4,0,0,0,-0.2,0,0,-0.2,0,0,0,0,0,0,0,0,0,0,0,0,0,0,0,0,0,-0.2,0,0,-0.1,0,0,0,0,0,0,0,0,0,0,0,0,0,0,0,0,0,0,0,0,0,0,0,0,0,0,0,0,0,0,0,0,0" 
class="s2_115"
>Shandong cooking became the favorite of the Manchu aristocracy during the Qing dynasty (1644</text>

<text 
x="140" 
y="571" 
dx="0,0,0,0,0,0,0,0,0,0,0,0,0,0,0,0,0,0,-0.2,0,0,0,0,0,0,0,0,0,0,0,0,0,0,0,0,0,0,-0.1,0,0,0,0,-0.2,0,0,0,0,0,0,0,0,0,-0.2,0,0,0,0,0,0,0,0,0,0,0,0,-1.3,0,0,0,0,0,0,0,-0.2,0,0,0,0,0,0,0,0,0,0,0,0,0,0,0,0,0,0,0,0,0,0,0,0,0,0,0" 
class="s2_115"
>1911). The long prosperity and cultural prominence of the lower Yangtze region also made its cuisine </text>

<text 
x="140" 
y="594" 
dx="0,0,0,0,0,0,0,0,0,0,0,0,0" 
class="s2_115"
>influential. </text>

<text 
x="211" 
y="594" 
dx="0,0" 
class="s3_115"
></text>

<text 
x="256" 
y="594" 
dx="0" 
class="s2_115"
>/</text>

<text 
x="261" 
y="594" 
dx="0,0" 
class="s4_115"
></text>

<text 
x="310" 
y="594" 
dx="0" 
class="s2_115"
>(</text>

<text 
x="314" 
y="594" 
dx="0,0,0,0,0,0" 
class="s5_115"
>S ci</text>

<text 
x="347" 
y="594" 
dx="0,0,0,0,0" 
class="s2_115"
>) or </text>

<text 
x="371" 
y="594" 
dx="0" 
class="s3_115"
></text>

<text 
x="394" 
y="594" 
dx="0" 
class="s2_115"
>(</text>

<text 
x="398" 
y="594" 
dx="0" 
class="s3_115"
></text>

<text 
x="421" 
y="594" 
dx="0" 
class="s2_115"
>)</text>

<text 
x="425" 
y="594" 
dx="0" 
class="s3_115"
></text>

<text 
x="448" 
y="594" 
dx="0" 
class="s2_115"
>/</text>

<text 
x="453" 
y="594" 
dx="0" 
class="s4_115"
></text>

<text 
x="475" 
y="594" 
dx="0" 
class="s2_115"
>(</text>

<text 
x="479" 
y="594" 
dx="0" 
class="s4_115"
></text>

<text 
x="502" 
y="594" 
dx="0" 
class="s2_115"
>)</text>

<text 
x="506" 
y="594" 
dx="0" 
class="s4_115"
></text>

<text 
x="532" 
y="594" 
dx="0" 
class="s2_115"
>(</text>

<text 
x="536" 
y="594" 
dx="0,0,0,0,0,0,0,0,0,0,0,0,0,0" 
class="s5_115"
>Hui[yng] ci</text>

<text 
x="619" 
y="594" 
dx="0,0,0,0,0,-0.5,0,0,0,0,0,0,0,0,0,0,0,0,0,0,0,0,-0.2,0" 
class="s2_115"
>) makes abundant use of </text>

<text 
x="140" 
y="617" 
dx="0,0,0,0,0,-0.2,0,0,0,0,0,-0.8,0,0,0,0,0,0,0,0,0,0,0,0,0,0,0,0,-0.2,0,0,-0.2,-0.2,0,0,0,0,-0.2,0,0,0,0,0,0,0,0,0,0,0,0,-0.2,0,0,0,0,0,-0.2,0,0,0,0,0,0,0,0,0,0,-0.1,0,0" 
class="s2_115"
>the regions various types of tofu products and freshwater fish. Both </text>

<text 
x="580" 
y="617" 
dx="0,0,0" 
class="s3_115"
></text>

<text 
x="649" 
y="617" 
dx="0" 
class="s2_115"
>/</text>

<text 
x="654" 
y="617" 
dx="0,0,0" 
class="s4_115"
></text>

<text 
x="726" 
y="617" 
dx="0" 
class="s2_115"
>(</text>

<text 
x="730" 
y="617" 
dx="0,0,0,0,0,0,0,0,0" 
class="s5_115"
>Shnghi </text>

<text 
x="140" 
y="640" 
dx="0,0,0" 
class="s6_115"
>ci</text>

<text 
x="158" 
y="640" 
dx="0,0,0,0,0,0" 
class="s2_115"
>) and </text>

<text 
x="192" 
y="640" 
dx="0,0,0" 
class="s3_115"
></text>

<text 
x="260" 
y="640" 
dx="0" 
class="s2_115"
>/</text>

<text 
x="265" 
y="640" 
dx="0,0,0" 
class="s4_115"
></text>

<text 
x="337" 
y="640" 
dx="0" 
class="s2_115"
>(</text>

<text 
x="341" 
y="640" 
dx="0,0,0,0,0,0,0,0,0,0,0,0" 
class="s5_115"
>Hngzhu ci</text>

<text 
x="416" 
y="640" 
dx="0,0,0,0,-0.2,0,0,0,0,0,0,0,0,0,-0.2,0,0,0,0,0,0,0,0,-0.2,0,-0.2,0,0,0,0,0,0,-0.2,0" 
class="s2_115"
>) are considered subcategories of </text>

<text 
x="633" 
y="640" 
dx="0,0" 
class="s3_115"
></text>

<text 
x="679" 
y="640" 
dx="0" 
class="s2_115"
>/</text>

<text 
x="684" 
y="640" 
dx="0,0" 
class="s4_115"
></text>

<text 
x="733" 
y="640" 
dx="0" 
class="s2_115"
>(</text>

<text 
x="737" 
y="640" 
dx="0,0,0,0,0,0" 
class="s5_115"
>S ci</text>

<text 
x="770" 
y="640" 
dx="0,0" 
class="s2_115"
>).</text>

<path d="M364.8,707c-0.7,0,-1.1,0.3,-1.1,1c0,0.3,0.1,0.6,0.2,0.9C364,709,364,709,364,709c0,0.2,-0.3,0.3,-0.8,0.3c-1.6,0,-2.5,-1.3,-2.8,-4.1c-0.4,-4.9,-1.3,-8.3,-2.6,-10.1c-1.4,-1.9,-3.8,-3.1,-7.3,-3.7c-0.4,0,-0.5,-0.1,-0.5,-0.3c0,0,0.2,-0.1,0.5,-0.1c3.2,-0.3,5.8,-1.2,7.6,-2.7c1.9,-1.5,2.9,-3.5,2.9,-5.8c0,-2.4,-0.9,-4.3,-2.8,-5.7c-1.8,-1.4,-4.3,-2.1,-7.4,-2.1c-0.6,0,-1.5,0.1,-2.8,0.1c-1.3,0.1,-2.2,0.1,-2.9,0.1l-6.7,-0.1c-0.2,-0.1,-0.3,-0.1,-0.4,-0.1c-0.6,0,-0.8,0.2,-0.8,0.5c0,0.3,0.4,0.5,1.2,0.5c1.5,0,2.3,0.2,2.6,0.4c0.3,0.3,0.5,1.1,0.5,2.4l0,27.9c0,1.1,-0.1,1.8,-0.2,1.9c-0.2,0.4,-1,0.6,-2.6,0.6c-1,0.1,-1.5,0.2,-1.5,0.4c0,0.4,0.4,0.5,1.1,0.5l2,0l2.3,0l2.6,0l4.4,0l0.6,0c0.5,0,0.8,-0.1,0.8,-0.5c0,-0.2,-0.2,-0.4,-0.6,-0.4c-1.3,0,-2,0,-2.3,-0.1c-1.1,-0.1,-1.7,-0.5,-1.7,-1.2l0,-15.9c2.7,0.1,4.6,0.6,5.8,1.4c1.2,0.9,1.9,2.5,2.1,4.6c0.3,3.6,0.6,5.8,0.8,6.7c0.2,0.8,0.6,1.7,1.2,2.7c1.5,2.2,3.6,3.3,6.2,3.3c2.3,0,3.5,-0.7,3.5,-2.2c0,-0.8,-0.4,-1.2,-1.2,-1.2M353.4,688.9c-1.4,1.2,-3.7,1.8,-7,1.7l0,-12.8c0,-0.7,0.2,-1.3,0.7,-1.6c0.4,-0.3,1.1,-0.4,2.2,-0.4c4.2,0,6.3,2.4,6.3,7.2c0,2.7,-0.7,4.7,-2.2,5.9m33.6,14c-0.4,0,-0.5,0.3,-0.6,0.8c-0.2,2.9,-1,4.5,-2.3,4.8c-0.9,0.3,-3.8,0.4,-8.7,0.4l0,-10.8l1.2,0c2.2,0,3.5,0.1,4,0.5c0.4,0.3,0.8,1.4,1,3.2c0.1,0.9,0.3,1.3,0.5,1.3c0.4,0,0.5,-0.3,0.5,-0.8c0,-0.2,0,-0.4,0,-0.7c-0.1,-0.8,-0.1,-2.3,-0.1,-4.5c0,-0.4,0,-1,0.1,-1.9c0,-0.8,0,-1.4,0,-1.8c0,-0.7,-0.1,-1,-0.5,-1c-0.3,0,-0.5,0.4,-0.6,1.4c-0.1,1.6,-0.5,2.5,-1,2.9c-0.5,0.3,-1.8,0.5,-3.9,0.5l-1.2,0l0,-9.4l2.5,0c2.8,0,4.5,0.1,5.3,0.3c1.3,0.5,2.2,2,2.6,4.5c0.2,0.7,0.4,1,0.7,1c0.2,0,0.3,-0.2,0.3,-0.6c0,-0.3,0,-0.5,0,-0.6c-0.2,-2.5,-0.4,-4,-0.4,-4.5l-0.1,-0.7l0,-0.4l-2.1,0l-3,0l-5.6,0l-2.5,0l-1.2,0l-0.6,0l-1,0l-1.2,0c-0.5,0,-0.7,0.1,-0.7,0.4c0,0.3,0.2,0.4,0.6,0.4c1,0,1.6,0,1.8,0.1c0.2,0.1,0.4,0.8,0.4,2.2l0,17.3c0,1,-0.1,1.5,-0.3,1.7c-0.2,0.1,-0.8,0.2,-1.9,0.2c-0.4,0,-0.6,0.2,-0.6,0.5c0,0.2,0.3,0.4,1,0.4l9.7,-0.2l8.4,0.2c-0.1,-0.4,-0.2,-0.7,-0.2,-1.1l0,-2.9c0,-0.3,0.1,-0.6,0.1,-1c0.1,-0.4,0.1,-0.6,0.1,-0.7c0,-0.9,-0.2,-1.4,-0.5,-1.4m18.5,-3.1c-0.9,-1,-2.4,-2,-4.6,-3.1c-2,-0.9,-3.1,-1.5,-3.5,-1.8c-0.4,-0.2,-0.8,-0.5,-1.1,-0.9c-0.7,-0.7,-1,-1.7,-1,-2.8c0,-2.6,1.2,-3.9,3.6,-3.9c1.3,0,2.4,0.5,3.3,1.3c0.9,0.9,1.5,2.1,1.8,3.6c0.2,0.6,0.4,0.9,0.7,0.9c0.2,0,0.4,-0.2,0.4,-0.6c0,-0.2,0,-0.4,-0.1,-0.5c-0.1,-1.3,-0.1,-2.2,-0.1,-2.7c0,-0.9,0,-1.5,0.1,-2.1c0,-0.2,0,-0.3,0,-0.4c0,-0.3,-0.1,-0.5,-0.5,-0.5c-0.3,0,-0.5,0.3,-0.6,0.7c0,0.5,-0.2,0.8,-0.4,0.8c-0.1,0,-0.3,-0.1,-0.4,-0.2c-1.5,-0.8,-2.8,-1.1,-4.1,-1.1c-2.1,0,-3.8,0.6,-5.1,1.7c-1.4,1.2,-2,2.7,-2,4.6c0,1.4,0.4,2.6,1.3,3.6c0.7,0.7,2.4,1.7,4.9,3c2,1,3.3,1.9,4,2.6c0.6,0.8,1,1.8,1,3c0,2.8,-1.4,4.2,-4.3,4.2c-3.3,0,-5.3,-1.8,-5.9,-5.5c-0.2,-1,-0.4,-1.6,-0.8,-1.6c-0.3,0,-0.5,0.4,-0.5,1l0,1.3l0,1.3c0,0.6,0,1.4,-0.1,2.4c0,0.9,-0.1,1.4,-0.1,1.5c0,0.3,0.2,0.5,0.5,0.5c0.3,0,0.5,-0.1,0.5,-0.4c0.1,-0.2,0.1,-0.5,0.2,-0.8c0,-0.3,0.1,-0.5,0.3,-0.5c0.1,0,0.2,0.1,0.4,0.1c1.8,1.1,3.6,1.6,5.3,1.6c2.3,0,4.3,-0.7,5.9,-2c1.6,-1.3,2.4,-2.9,2.4,-4.8c0,-1.4,-0.5,-2.5,-1.4,-3.5m24.7,-7.5l-0.1,-0.9l-0.1,-2l-0.2,-1.8l0,-1c-0.5,0.1,-0.8,0.1,-1.1,0.1c-3.2,0.1,-5.3,0.1,-6.3,0.1l-11.8,0c-0.3,2.8,-0.4,4.7,-0.4,5.7c0,0.7,0.1,1.1,0.4,1.1c0.4,0,0.6,-0.4,0.7,-1.1c0.3,-2.1,0.8,-3.5,1.6,-4c0.8,-0.6,2.5,-0.9,5.1,-0.8l0,18.1c0,1.4,0,2.3,-0.1,2.6c0,0.2,-0.1,0.4,-0.4,0.5c-0.2,0.1,-0.4,0.1,-0.8,0.1c-1.1,0,-1.7,0.2,-1.7,0.4c0,0.2,0.3,0.4,1,0.4l1.2,0l2.8,0l1.1,0l1.4,0l1.4,0l0.3,0c0.6,0,0.9,-0.2,0.9,-0.4c0,-0.2,-0.5,-0.4,-1.5,-0.4c-0.9,0,-1.4,-0.4,-1.4,-1l0,-20.3c0.7,0,1.2,0,1.5,0c2.3,0,3.8,0.6,4.4,1.7c0.5,0.9,0.8,2,0.9,3.3c0,0.6,0.2,0.9,0.7,0.9c0.4,0,0.6,-0.2,0.6,-0.7c0,-0.1,0,-0.3,-0.1,-0.6M455,709c-0.9,0,-1.5,-0.1,-1.6,-0.1c-0.3,-0.1,-0.7,-0.6,-1.1,-1.7c-4.2,-10.5,-6.8,-17,-7.8,-19.4c-0.4,-1,-0.6,-1.4,-0.7,-1.4c-0.2,0,-0.4,0.2,-0.6,0.7l-0.4,0.9l-0.7,2.1c-1.1,2.8,-1.9,4.9,-2.4,6.3c-0.2,0.5,-0.4,0.8,-0.4,1.1c-0.1,0.2,-0.2,0.6,-0.4,1c-0.6,1.3,-1.1,2.8,-1.7,4.3c-1.4,3.7,-2.3,5.6,-2.5,5.7c-0.1,0.2,-0.5,0.4,-1.1,0.5c-0.2,0,-0.6,0.1,-1.2,0.1c-0.4,0,-0.6,0.2,-0.6,0.4c0,0.2,0.2,0.3,0.8,0.3l0.1,0l0.5,-0.1l0.5,0l0.4,0c0.9,0,1.8,0,2.9,0c1.1,0.1,1.7,0.1,1.8,0.1c0.7,0,1.1,-0.1,1.1,-0.3c0,-0.2,-0.2,-0.4,-0.6,-0.4L438.8,709l-0.7,0l-0.7,-0.1c-0.4,0,-0.6,-0.2,-0.6,-0.5c0,-0.5,0.7,-2.5,2.1,-6l7.2,0l0.6,1.7c0.7,2,1.1,3.1,1.1,3.4c0.2,0.6,0.3,0.9,0.3,1c0,0.3,-0.7,0.4,-2.1,0.5c-1.2,0,-1.8,0.1,-1.8,0.4c0,0.3,0.3,0.4,0.9,0.4l0.2,0l0.9,0l1.5,0l2.4,0l1.4,0l3.1,0l0.4,0c0.7,0,1,-0.1,1,-0.3c0,-0.3,-0.3,-0.4,-1,-0.5m-15.8,-7.4c1.4,-3.7,2.5,-6.6,3.3,-8.6l3.3,8.6Zm39.6,-14.8l-0.7,0l-1.6,0l-0.5,0l-2.4,0l-0.5,0c-0.4,0,-0.6,0.1,-0.6,0.4c0,0.3,0.4,0.4,1.2,0.4c0.8,0,1.2,0.1,1.4,0.2c0.2,0.1,0.3,0.3,0.3,0.8l0,10.4l0,1.2l0,0.5c0,2.4,-0.3,4.1,-0.7,5.2c-1,2.1,-2.8,3.2,-5.3,3.2c-1.9,0,-3.3,-0.6,-4.2,-1.7c-0.9,-0.9,-1.3,-3.1,-1.3,-6.4l0,-12c0,-0.7,0,-1,0.1,-1.2c0.1,-0.1,0.3,-0.1,0.7,-0.1c1.2,0,1.8,-0.1,1.8,-0.5c0,-0.3,-0.3,-0.4,-0.9,-0.4l-0.5,0l-0.9,0l-4.2,0l-0.8,0l-0.8,0l-0.7,0c-0.5,0,-0.7,0.1,-0.7,0.4c0,0.2,0.3,0.4,1,0.4c0.9,0,1.4,0.1,1.5,0.2c0.1,0.2,0.2,1.2,0.2,3l0,10.6c0,3.4,0.7,5.6,2.2,6.8c1.7,1.3,3.9,1.9,6.7,1.9c3.3,0,5.6,-1,6.9,-3.2c0.6,-0.9,0.9,-1.8,1.1,-2.8c0.1,-0.9,0.2,-3,0.2,-6.2l0,-9.3c0,-0.7,0.2,-1,0.8,-1l1,0l0.2,0c0.6,0,0.8,-0.1,0.8,-0.4c0,-0.3,-0.2,-0.4,-0.8,-0.4m24.1,20.6c-0.6,0,-1,0.3,-1,1c0,0.1,0.1,0.2,0.2,0.4c0,0.2,0.1,0.3,0.1,0.3c0,0.1,-0.1,0.1,-0.3,0.1c-1,0,-1.6,-1,-1.8,-3.1c-0.3,-3,-1,-5.1,-2.1,-6.3c-1,-1.2,-3,-1.9,-5.8,-2.2c2.6,-0.2,4.7,-0.8,6.1,-1.8c1.4,-1,2.2,-2.3,2.2,-4c0,-1.5,-0.7,-2.7,-2.1,-3.6c-1.3,-0.9,-3.1,-1.4,-5.4,-1.4l-1.7,0l-2.7,0l-4.8,0l-0.3,0c-0.5,0,-0.7,0.1,-0.7,0.4c0,0.2,0.4,0.4,1.2,0.4c0.7,0,1.2,0,1.4,0.1c0.2,0.2,0.3,0.4,0.3,0.8l0,19.9c0,0.5,-0.6,0.7,-1.7,0.7l-0.2,0l-0.5,0c-0.4,0,-0.5,0.1,-0.5,0.4c0,0.2,0.4,0.3,1.4,0.3l0.9,0l1.7,0l2.7,0l1.7,0l1.1,0c0.5,0,0.7,-0.1,0.7,-0.3c0,-0.3,-0.2,-0.4,-0.5,-0.4c-1.8,0,-2.7,-0.2,-2.6,-0.7l0,-10.4c1.9,0.1,3.2,0.4,3.9,1c0.8,0.5,1.2,1.5,1.4,3c0.2,2.2,0.4,3.6,0.6,4.2c0.2,0.6,0.5,1.2,1,1.8c1.2,1.4,2.6,2.1,4.4,2.1c1.9,0,2.8,-0.5,2.8,-1.6c0,-0.7,-0.3,-1.1,-1.1,-1.1m-13,-10.2l0,-8.2c0,-0.6,0.1,-1,0.3,-1.1c0.2,-0.2,0.7,-0.2,1.4,-0.2c3,0,4.5,1.5,4.5,4.5c0,3.3,-2.1,5,-6.2,5m38,11.8c-0.9,0,-1.5,-0.1,-1.6,-0.1c-0.3,-0.1,-0.7,-0.6,-1.1,-1.7c-4.2,-10.5,-6.8,-17,-7.8,-19.4c-0.4,-1,-0.6,-1.4,-0.7,-1.4c-0.2,0,-0.4,0.2,-0.6,0.7l-0.4,0.9l-0.7,2.1c-1.1,2.8,-1.9,4.9,-2.4,6.3c-0.2,0.5,-0.4,0.8,-0.4,1.1c-0.1,0.2,-0.2,0.6,-0.4,1c-0.6,1.3,-1.1,2.8,-1.7,4.3c-1.4,3.7,-2.3,5.6,-2.5,5.7c-0.1,0.2,-0.5,0.4,-1.1,0.5c-0.2,0,-0.6,0.1,-1.2,0.1c-0.4,0,-0.6,0.2,-0.6,0.4c0,0.2,0.2,0.3,0.8,0.3l0.1,0l0.5,-0.1l0.5,0l0.4,0c0.9,0,1.8,0,2.9,0c1.1,0.1,1.7,0.1,1.8,0.1c0.7,0,1.1,-0.1,1.1,-0.3c0,-0.2,-0.2,-0.4,-0.6,-0.4L511.7,709l-0.7,0l-0.7,-0.1c-0.4,0,-0.6,-0.2,-0.6,-0.5c0,-0.5,0.7,-2.5,2.1,-6l7.2,0l0.6,1.7c0.7,2,1.1,3.1,1.1,3.4c0.2,0.6,0.3,0.9,0.3,1c0,0.3,-0.7,0.4,-2.1,0.5c-1.2,0,-1.8,0.1,-1.8,0.4c0,0.3,0.3,0.4,0.9,0.4l0.2,0l0.9,0l1.5,0l2.4,0l1.4,0l3.1,0l0.4,0c0.7,0,1,-0.1,1,-0.3c0,-0.3,-0.3,-0.4,-1,-0.5m-15.8,-7.4c1.4,-3.7,2.5,-6.6,3.3,-8.6l3.3,8.6Zm39.6,-14.7c-0.3,-0.1,-1.4,-0.1,-3.2,-0.1c-2,0,-3.1,0,-3.4,0.1c-0.4,0,-0.5,0.1,-0.5,0.2c0,0.3,0.3,0.4,0.9,0.4l0.3,0l1.1,0c0.5,0,0.7,0.1,0.8,0.2c0.1,0.2,0.1,0.6,0.1,1.5l0,14L535.9,686.8l-1.9,0l-0.9,0l-0.6,0l-2.8,0l-0.2,0c-0.4,0,-0.6,0.1,-0.6,0.3c0,0.3,0.4,0.5,1.2,0.5c1.2,0,2,0.3,2.4,1c0.3,0.5,0.4,2,0.4,4.6l0,13.9c0,0.9,0,1.4,0,1.5c0,0.2,-0.5,0.4,-1.3,0.4l-0.6,0.1l-0.5,0c-0.6,0,-0.9,0.1,-0.9,0.3c0,0.3,0.2,0.4,0.8,0.4c0.7,0,1.4,0,2,-0.1c0.4,0,0.7,0,1,0c0.4,0,0.9,0,1.4,0c1,0.1,1.5,0.1,1.7,0.1c0.7,0,1.1,-0.1,1.1,-0.4c0,-0.2,-0.2,-0.3,-0.6,-0.3l-0.2,0c-1,0,-1.6,0,-2,-0.1c-0.3,-0.1,-0.5,-0.7,-0.5,-2l0,-16c4.4,6.2,7.4,10.4,9.1,12.6c0.3,0.4,0.5,0.7,0.6,0.8c0.5,0.6,0.8,1.1,1.1,1.5c2,2.8,3.2,4.2,3.6,4.2c0.2,0,0.4,-0.1,0.4,-0.3c0.1,-0.2,0.1,-0.9,0.1,-2.1l0,-18.6c0,-0.8,0,-1.2,0,-1.4c0.1,-0.1,0.3,-0.2,0.6,-0.2l0.5,0l0.7,0c0.8,0,1.1,-0.1,1.1,-0.3c0,-0.2,-0.1,-0.3,-0.4,-0.3m23.4,5.4L575,691.4l-0.2,-2l-0.1,-1.8l-0.1,-1c-0.4,0.1,-0.8,0.1,-1,0.1c-3.2,0.1,-5.3,0.1,-6.4,0.1l-11.7,0c-0.3,2.8,-0.5,4.7,-0.5,5.7c0,0.7,0.2,1.1,0.5,1.1c0.3,0,0.5,-0.4,0.6,-1.1c0.3,-2.1,0.8,-3.5,1.6,-4c0.8,-0.6,2.5,-0.9,5.1,-0.8l0,18.1c0,1.4,0,2.3,0,2.6c-0.1,0.2,-0.2,0.4,-0.5,0.5c-0.1,0.1,-0.4,0.1,-0.8,0.1c-1.1,0,-1.6,0.2,-1.6,0.4c0,0.2,0.3,0.4,1,0.4l1.2,0l2.7,0l1.2,0l1.3,0l1.4,0l0.4,0c0.6,0,0.8,-0.2,0.8,-0.4c0,-0.2,-0.4,-0.4,-1.4,-0.4c-1,0,-1.5,-0.4,-1.5,-1l0,-20.3c0.7,0,1.2,0,1.6,0c2.3,0,3.7,0.6,4.4,1.7c0.4,0.9,0.7,2,0.8,3.3c0.1,0.6,0.3,0.9,0.7,0.9c0.4,0,0.6,-0.2,0.6,-0.7c0,-0.1,0,-0.3,0,-0.6m17.9,7.5c-0.9,-1,-2.4,-2,-4.6,-3.1c-2,-0.9,-3.1,-1.5,-3.5,-1.8c-0.4,-0.2,-0.8,-0.5,-1.1,-0.9c-0.7,-0.7,-1,-1.7,-1,-2.8c0,-2.6,1.2,-3.9,3.6,-3.9c1.3,0,2.4,0.5,3.3,1.3c0.9,0.9,1.5,2.1,1.8,3.6c0.2,0.6,0.4,0.9,0.7,0.9c0.2,0,0.4,-0.2,0.4,-0.6c0,-0.2,0,-0.4,-0.1,-0.5c-0.1,-1.3,-0.1,-2.2,-0.1,-2.7c0,-0.9,0,-1.5,0.1,-2.1c0,-0.2,0,-0.3,0,-0.4c0,-0.3,-0.1,-0.5,-0.5,-0.5c-0.3,0,-0.5,0.3,-0.6,0.7c-0.1,0.5,-0.2,0.8,-0.4,0.8c-0.1,0,-0.3,-0.1,-0.4,-0.2c-1.5,-0.8,-2.8,-1.1,-4.1,-1.1c-2.1,0,-3.8,0.6,-5.1,1.7c-1.4,1.2,-2,2.7,-2,4.6c0,1.4,0.4,2.6,1.3,3.6c0.7,0.7,2.4,1.7,4.9,3c2,1,3.3,1.9,4,2.6c0.6,0.8,1,1.8,1,3c0,2.8,-1.5,4.2,-4.3,4.2c-3.3,0,-5.3,-1.8,-5.9,-5.5c-0.2,-1,-0.4,-1.6,-0.8,-1.6c-0.3,0,-0.5,0.4,-0.5,1l0,1.3l0,1.3c0,0.6,0,1.4,-0.1,2.4c-0.1,0.9,-0.1,1.4,-0.1,1.5c0,0.3,0.2,0.5,0.5,0.5c0.3,0,0.5,-0.1,0.5,-0.4c0.1,-0.2,0.1,-0.5,0.2,-0.8c0,-0.3,0.1,-0.5,0.3,-0.5c0.1,0,0.2,0.1,0.4,0.1c1.8,1.1,3.6,1.6,5.3,1.6c2.3,0,4.3,-0.7,5.9,-2c1.6,-1.3,2.4,-2.9,2.4,-4.8c0,-1.4,-0.5,-2.5,-1.4,-3.5Z" class="g1_115" />
<text 
x="140" 
y="748" 
dx="0,0.3,0.3,0.3,0.3,0.3,0.3,0.3,0.3,0.3,0.1,0.3,0.3,0.3,0.3,0.3,0.2,0.3,0.3,0.3,0.3,0.3,0.3,0.3,0.3,0.3,0.3,0.3,0.3,0.3,0.3,0.3,0.3,0.3,0.3,0.3,0.3,0.3,0.3,0.3,0.3,0.3,0.3,0.3,0.3,0.3,0.3,0.3,0.3,0.3,0.3,0.3,0.3,0.3,0.3,0.3,0.3,0.3,0.3,0.3,0.3,0.3,0.3,0.3,0.3,0.3,0.1,0.3,0.3,0.3,0.3,0.3,0.3,0.3,0.3,0.1,0.3,0.3,0.3,0.3,0.3,0.3,0.3,0.3,0" 
class="s2_115"
>Although restaurants in China come in all shapes and sizes, many of the more popular </text>

<text 
x="140" 
y="771" 
dx="0,0.3,0.3,0.3,0.3,0.3,0.3,0.3,0.3,0.3,0.3,0.3,0.3,0.3,0.3,0.3,0.1,0.3,0.3,0.3,0.3,0.1,0.3,0.3,0.3,0.3,0.3,0.2,0.3,0.3,0.3,0.3,0.3,0.3,0.3,0.3,0.3,0.3,0.3,0.3,0.3,0.3,0.3,0.3,0.3,0.3,0.3,0.3,0.3,0.3,0.3,0.3,0.2,0.3,0.1,0.3,0.3,0.3,0.3,0.3,0.3,0.3,0.3,0.3,0.1,0.3,0.3,0.3,0.3,0.3,0.3,0.3,0.3,0.3,0.3,0.3,0.3,0.3,0.3,0.3,0.3,0.3,0.3,0.3,0.3,0.3,0.3,0.3,0.3,0.3,0" 
class="s2_115"
>establishments tend to be raucous and lavishly decorated multistoried affairs. They almost </text>

<text 
x="140" 
y="794" 
dx="0,0.3,0.3,0.3,0.3,0.3,0.3,0.3,0.3,0.3,0.3,0.3,0.3,0.3,0.3,0.3,0.3,0.3,0.3,0.3,0.3,0.1,0.3,0.3,0.3,0.3,0.3,0.3,0.3,0.2,0.3,0.3,0.1,0.3,0.3,0.3,0.3,0.3,0.3,0.3,0.3,0.3,0.3,0.3,0.3,0.3,0.3,0.3,0.3,0.3,0.3,0.3,0.3,0.3,0.3,0.3,0.3,0.2,0.3,0.3,0.3,0.3,0.3,0.3,0.3,0.3,0.3,0.3,0.3,0.3,0.1,0.3,0.3,0.3,0.3,0.1,0.3,0.3,0.3,0.3,0.3,0.1,0.3,0.3,0.3,0.3,0.3,0.3,0.1,0.3,0.3,0.3,0" 
class="s2_115"
>always include private banquet rooms, which may or may not include a ten- to fifteen-percent </text>

<text 
x="140" 
y="817" 
dx="0,0.3,0.3,0.3,0.3,0.3,0.3,0.3,0.3,0.3,0.3,0.3,0.3,0.1,0.3,0.3,0.3,0.3,0.3,0.3,0.3,0.3,0.3,0.3,0.3,0.3,0.3,0.3,0.3,0.3,0.3,0.3,0.3,0.3,0.3,0.2,0.3,0.3,0.3,0.3,0.3,0.3,0.3,0.3,0.3,0.1,0.3,0.3,0.3,0.3,0.3,0.3,0.3,0.3,0.3,0.3,0.3,0.3,0.3,0.3,0.3,0.3,0.3,0.3,0.3,0.3,0.3,0.3,-1.2,0.3,0.3,0.3,0.3,0.3,0.3,0.3,0.1,0.3,0.3,0.3,0.3,0.3,0.3,0.3,0.3,0" 
class="s2_115"
>service charge or a minimum consumption charge. During Chinese New Year customers can </text>

<text 
x="140" 
y="840" 
dx="0,0.3,0.3,0.3,0.3,0.3,0,0.3,0.3,0.3,0.3,0.3,0.3,0.1,0.3,0.3,0.3,0.3,0.3,0.3,0.3,0.3,0.3,0.3,0.3,0.3,0.3,0.3,0.3,0.3,0,0.3,0.3,0.3,0.3,0.3,0.3,0.3,0.3,0.3,0.3,0.3,0.1,0.3,0.3,0.3,0.3,0.3,0.2,0.3,0.3,0.3,0.3,0.3,0.3,0.3,0.3,0.3,0.3,0.3,0.3,0.3,0.1,0.3,0.3,0.3,0.3,0.3,0.3,0.3,0.3,0.3,0.3,0.3,0.3,0.3,0" 
class="s2_115"
>also expect to pay a service fee at some restaurants because of high demand. </text>

<text 
x="140" 
y="877" 
dx="0,0.4,0.4,0.4,0.4,0.4,0.4,0.4,0.4,0.2,0.4,0.4,0.2,0.4,0.4,0.4,0.4,0.4,0.4,0.4,0.4,0.4,0.4,0.4,0.4,0.4,0,0.4,0.4,0.4,0.4,0.4,0.4,0.4,0.4,0.4,0.4,0.4,0.4,0.4,0.4,0.4,0.4,0.4,0.4,0.2,0.4,0.4,0.4,0.4,0.4,0.4,0.4,0.4,0.4,0.4,0.4,0.4,0.4,0.4,0.4,0.4,0.4,0.4,0.4,0.2,0.4,0.4,0.4,0.4,0.4,0.4,0.4,0.4,0.2,0.4,0.4,0.4,0.4,0.4,0.4,0.4,0.4,0.4,0.4,0" 
class="s2_115"
>Many large restaurants have a membership system. Membership is free or automatic once </text>

<text 
x="140" 
y="899" 
dx="0,0.4,0.4,0.4,0.4,0.4,0.2,0.4,0.4,0.4,0.4,0.4,0.4,0.4,0.4,0.4,0.4,0.4,0.4,0.4,0.4,0.4,0.4,0.4,0.4,0.4,0.4,0.4,0.4,0.4,0.4,0.4,0.4,0.4,0.4,0.4,0.4,0.4,0,0.4,0.4,0.4,0.4,0.4,0.4,0.4,0.4,0.4,0.4,0.4,0.4,0.4,0.4,0.4,0.4,0.4,0.4,0.4,0.4,0.4,0.4,0.4,0.4,0.4,0.4,0,0.4,0.4,0.4,0.4,0.4,0.4,0.4,0.4,0.4,0.4,0.4,0.4,0.4,0.4,0.4,0.4,0.4,0.4,0.4,0.4,-0.7,0" 
class="s2_115"
>a customer spends a minimum, usually very modest, amount and leaves a cellphone number. </text>

<text 
x="140" 
y="922" 
dx="0,0.4,0.4,0.4,0.4,0.4,0.2,0.4,0.4,0.4,0.4,0.4,0.4,0.4,0.4,0.4,0.4,0.4,0.4,0.4,0.4,0.4,0.2,0.4,0.4,0.4,0.4,0.4,0.4,0.4,0.4,0.4,0.4,0.1,0.4,0.4,0.4,0.4,0.4,0.4,0.4,0.4,0.4,0.4,0.4,0.4,0.2,0.4,0.4,0.4,0.4,0,0.4,0.4,0.4,0.4,0.4,0.4,0.4,0.4,0.4,0.4,0.4,0.4,0.4,0.4,0.1,0.4,0.4,0.4,0.4,0.4,0.4,0.4,0.2,0.4,0.4,0.4,0.4,0.4,0.4,0.4,0.4,0.4,0" 
class="s2_115"
>Some restaurants charge a small fee. Members receive a discount. At some restaurants </text>

<text 
x="140" 
y="945" 
dx="0,0.4,0.4,0.4,0.2,0.4,0.4,0.4,0.4,0.4,0.4,0.4,0.4,0.4,0.4,0.4,0.4,0.4,0.4,0.4,0.4,0.4,0.4,0.4,0.4,0.4,0.4,0.2,0.4,0.4,0.4,0.4,0.4,0.4,0.4,0.4,0.4,0.4,0.4,0.4,0.4,0.4,0.4,0.4,0.4,0.4,0.4,0.4,0.4,0.2,0.4,0.4,0.4,0.4,0,0.4,0.4,0.4,0.4,0.4,0.4,0.4,0.4,0.4,0.4,0.4,0.4,0.4,0.4,0.4,0.4,0.4,0.2,0.4,0.4,0.4,0.4,0.4,0.4,0.4,0.4,0.4,0.4,0.4,0" 
class="s2_115"
>customers can put money into their accounts and receive a bonus. The more money they </text>

<text 
x="140" 
y="968" 
dx="0,0.4,0.4,0.4,0.4,0.4,0.4,0.2,0.4,0.4,0.4,0.4,0.4,0.4,0.4,0.4,0.4,0.4,0.4,0.4,0.4,0.4,0.4,0.4,0.4,0.4,0.4,0.4,0.4,0.4,0.4,0.4,0.4,0.2,0.4,0.4,0.4,0.4,0.4,0.4,0.4,0.4,0.4,0.4,0.4,0.4,0.4,0.4,0" 
class="s2_115"
>put into their accounts, the bigger the bonuses. </text>

<text 
x="140" 
y="1005" 
dx="0,-1.1,0.4,0.4,0.4,0.3,0.4,0.4,0.4,0.4,0.4,0.4,0.4,0.2,0.4,0.4,0.4,0.4,0.4,0.4,0.4,0.4,0.4,0.4,0.4,0.4,0.4,0.4,0.4,0.4,0.4" 
class="s2_115"
>To settle a restaurant bill is </text>

<text 
x="329" 
y="1005" 
dx="0,0.7" 
class="s3_115"
></text>

<text 
x="376" 
y="1005" 
dx="0" 
class="s2_115"
>/</text>

<text 
x="381" 
y="1005" 
dx="0,0.7" 
class="s4_115"
></text>

<text 
x="432" 
y="1005" 
dx="0" 
class="s2_115"
>(</text>

<text 
x="439" 
y="1005" 
dx="0,0.4,0.4,0.4,0.4,0.4,0.4,0.4,0.4" 
class="s5_115"
>ji zhng</text>

<text 
x="493" 
y="1005" 
dx="0,0.4,0.4,0.4,0.4,0.4,0.4,0.4,0.2,0.4,0.4,0.4,0.4,0.4,0.4,0.4,0.4,0.4,0.4,0.4,0.4,0.4,0.4" 
class="s2_115"
>) or more colloquially </text>

<text 
x="638" 
y="1005" 
dx="0,0.7" 
class="s3_115"
></text>

<text 
x="685" 
y="1005" 
dx="0" 
class="s2_115"
>/</text>

<text 
x="690" 
y="1005" 
dx="0,0.7,0" 
class="s4_115"
> </text>

<text 
x="144" 
y="1028" 
dx="0" 
class="s2_115"
>(</text>

<text 
x="148" 
y="1028" 
dx="0,0.4,0.4,0.4,0.4,0.4,0.4" 
class="s5_115"
>mi dn</text>

<text 
x="196" 
y="1028" 
dx="0,0.4,0.4,0.4,0.4,0.4,0.4,0.4,0.4,0.4,0.4,0.4,0.2,0.4,0.4,0.4,0.4,0.4,0.4,0.4" 
class="s2_115"
>). Some write it as </text>

<text 
x="321" 
y="1028" 
dx="0,0.7" 
class="s3_115"
></text>

<text 
x="368" 
y="1028" 
dx="0" 
class="s2_115"
>/</text>

<text 
x="373" 
y="1028" 
dx="0,0.7" 
class="s4_115"
></text>

<text 
x="424" 
y="1028" 
dx="0" 
class="s2_115"
>(</text>

<text 
x="428" 
y="1028" 
dx="0,0.4,0.4,0.4,0.4,0.4,0.4" 
class="s5_115"
>mi dn</text>

<text 
x="477" 
y="1028" 
dx="0,0.4,0.4,0.4,0.4,0.4,0.4,0.4,0.4,0.4,0.4,0.4,0.4,0.2,0.4,0.4,0.1,0.4,0.4,0.4,0.4,0.2,0.4,0.4,0.4,0.4,0.4,0.4,0.4,0.4,0.4,0.4,0.4,0.4,0.4,0.4,0.4,0" 
class="s2_115"
>). No tips are expected. Some upscale </text>

<text 
x="140" 
y="1051" 
dx="0,0.2,0.4,0.4,0.4,0.4,0.4,0.4,0.4,0.4,0.4,0.4,0.4,0.4,0.4,0.4,0.4,0.4,0.4,0.4,0.4,0.4,0.4,0.4,0.1,0,0.4,0.4,0.4,0.4,0.4,0.4,0.4,0.2,0.4,0.4,0.4,0.4,0.4,0.4,0.4,0.4,0.4,0.4,0.4,0.4,0.4,0.4,0.2,0.4,0.4,0.4,0.4,0.4,0.4,0.4,0.4,0.2,0.4,0.4,0.4,0.4,0.4,0.4,0.2,0.4,0.4,0.4,0.4,0" 
class="s2_115"
>restaurants include a cover charge, typically around fifteen percent. </text>

<text 
x="20" 
y="1173" 
dx="0,0.3,0" 
class="s7_115"
>92 </text>

<text 
x="20" 
y="1173" 
dx="0,0.3,0" 
class="s7_115"
>92 </text>



<!-- Any embedded fonts defined here -->
<style type="text/css" ><![CDATA[

@font-face {
	font-family: STKaiti-SC-Bold_3oi;
	src: url("fonts/STKaiti-SC-Bold_3oi.woff") format("woff");
}

@font-face {
	font-family: GentiumBookBasic-Italic_3vc;
	src: url("fonts/GentiumBookBasic-Italic_3vc.woff") format("woff");
}

@font-face {
	font-family: GentiumBookBasic-Italic_3o-;
	src: url("fonts/GentiumBookBasic-Italic_3o-.woff") format("woff");
}

@font-face {
	font-family: STKaiTi-TC-Bold_3op;
	src: url("fonts/STKaiTi-TC-Bold_3op.woff") format("woff");
}

@font-face {
	font-family: MuseoSlab-900_3uq;
	src: url("fonts/MuseoSlab-900_3uq.woff") format("woff");
}

@font-face {
	font-family: LibreFranklin-SemiBold_3u_;
	src: url("fonts/LibreFranklin-SemiBold_3u_.woff") format("woff");
}

@font-face {
	font-family: LibreFranklin-Medium_3um;
	src: url("fonts/LibreFranklin-Medium_3um.woff") format("woff");
}

]]></style>

</svg>
