<?xml version="1.0" encoding="UTF-8" standalone="no"?>
<!DOCTYPE svg PUBLIC "-//W3C//DTD SVG 1.1//EN"
"http://www.w3.org/Graphics/SVG/1.1/DTD/svg11.dtd">


<!-- Page 76 -->
<svg x="0" y="0" width="921" height="1196" viewBox="0 0 921 1196" version="1.1" xmlns="http://www.w3.org/2000/svg" xmlns:xlink="http://www.w3.org/1999/xlink"
style="display: block;margin-left: auto;margin-right: auto;">
<defs>

<style type="text/css"><![CDATA[

.g1_76{
fill: none;
stroke: #872B91;
stroke-width: 0.6248611;
stroke-linecap: butt;
stroke-linejoin: miter;
}
.g2_76{
fill: none;
stroke: #872B91;
stroke-width: 1.8730555;
stroke-linecap: butt;
stroke-linejoin: miter;
}
.g3_76{
fill: none;
stroke: #872B91;
stroke-width: 2.2916667;
stroke-linecap: butt;
stroke-linejoin: miter;
}
.g4_76{
fill: none;
stroke: #872B91;
stroke-width: 1.5277778;
stroke-linecap: butt;
stroke-linejoin: miter;
stroke-miterlimit: 4;
}
.g5_76{
fill: none;
stroke: #872B91;
stroke-width: 0.5102778;
stroke-linecap: butt;
stroke-linejoin: miter;
stroke-miterlimit: 4;
}
.g6_76{
fill: none;
stroke: #872B91;
stroke-width: 0.7638889;
stroke-linecap: butt;
stroke-linejoin: miter;
stroke-miterlimit: 4;
}
.g7_76{
fill: #872B91;
stroke: #B2B3B7;
stroke-width: 1.5277778;
stroke-linecap: butt;
stroke-linejoin: miter;
stroke-miterlimit: 4;
}

.s1_76{
font-size: 32.08px;
font-family: LibreFranklin-ExtraBold_3t6;
fill: #872B91;
}
.s2_76{
font-size: 18.33px;
font-family: LibreFranklin-ExtraBold_3t6;
fill: #8F4198;
}
.s3_76{
font-size: 22.92px;
font-family: LibreFranklin-Bold_3t0;
fill: #8F4198;
}
.s4_76{
font-size: 14.51px;
font-family: LibreFranklin-Regular_3td;
fill: #3F3F40;
}
.s5_76{
font-size: 25.97px;
font-family: STKaiti-SC-Regular_3pn;
fill: #3F3F40;
}
.s6_76{
font-size: 25.97px;
font-family: STKaiTi-TC-Regular_3pl;
fill: #3F3F40;
}
.s7_76{
font-size: 16.81px;
font-family: LibreFranklin-Bold_3t0;
fill: #939598;
}
.s8_76{
font-size: 15.28px;
font-family: LibreFranklin-ExtraBold_3t6;
fill: #872B91;
}
.s9_76{
font-size: 23.68px;
font-family: STKaiti-SC-Regular_3pn;
fill: #3F3F40;
}
.s10_76{
font-size: 9.55px;
font-family: LibreFranklin-Medium_3t3;
fill: #872B91;
}
.s11_76{
font-size: 11.08px;
font-family: LibreFranklin-SemiBold_3tc;
fill: #FFFFFF;
}

]]></style>

</defs>
<path d="M0,0
L0,1196
L921,1196
L921,0 Z " 
fill="#FFFFFF" stroke="none" />
<path d="M0,97.3l353.6,0" class="g1_76" />
<path d="M0,99.8l353.6,0" class="g2_76" />
<path d="M119.2,183.4l12.2,0" class="g3_76" />
<path d="M119.2,804.4l12.2,0" class="g3_76" />
<text 
x="55" 
y="85" 
dx="0,0.3,0.3,0.3,0.3,0.3,0.3,-0.5,0.3,0.3,0.3,0,0.3,0.3,0.3,0.3,0.3" 
class="s1_76"
>Language Practice</text>

<text 
x="119" 
y="177" 
dx="0,0" 
class="s2_76"
>A </text>

<text 
x="406" 
y="182" 
dx="0,0,0,0,0,0,0,0,0,0,0,0" 
class="s3_76"
>Humble abode</text>

<text 
x="157" 
y="239" 
dx="0,0,0,0,0,0,0,0,0,0,0,0,0,0,0,0,0,0,0,0,0,-0.2,0,0,0,0,0,0,0,0,0,0,0,0,0,0,0,0,0,0,0,0,0,0,0,0,0,0,0,0,-0.2,-0.1,-0.2,0,0,0,0,0,0,0,0,0,0,-0.4,0,0,0,0,0,0,0,0,-0.3,-0.4,0,0,0,0,0,-0.2,0,0,0,0,0,0,0" 
class="s4_76"
>In pairs, conduct a role-play about apartments. Pretend you have just moved into a new </text>

<text 
x="157" 
y="262" 
dx="0,0,0,0,0,0,0,0,0,0,0,0,0,0,0,0,0,0,0,0,0,0,0,0,0,0,0,0,0,0,0,0,0,0,0,0,0,0,0,0,0,0,0,0,0,0,0,0,0,0,0,0,0,0,-0.2,0,0,0,-1.5,0,0,0,0,0,-0.4,0,0,0,0,0,0,0,0,0,0,0,0,0,0,0,0,0,0,0,0,0,0,0,0,0,-0.4,0,0,-0.2,0,0,0,0" 
class="s4_76"
>apartment, and your friend is asking you how things are. You like your place and would like to be </text>

<text 
x="157" 
y="285" 
dx="0,0,0,0,0,0,0,-0.4,0,0,0,0,0,0,0,0,0,0,0,0,0,0,0,0,0,0,0,0,0,0,0,0,0,0,0,0,0,0,0,0,0,0,0,0,0,0,0,0,0,0,0,0,0,0,0,0,0,-0.2,0,0,0,0,0,0,0,-0.2,0,0,0,0,0,0,0,0,0,-1.1,0,0,0,0,0,0,-0.2,0,0,0,0,0,0,0,0,0,0,0" 
class="s4_76"
>positive about it, but at the same time, you don’t want to brag too much. Formulate questions-</text>

<text 
x="157" 
y="308" 
dx="0,0,0,0,0,0,0,0,0,0,0,0,0,0,0,0,0,0,0,0,0,0,0,0,-0.2,0,0,0,0,0,0,0,0,0,0,0,0" 
class="s4_76"
>and-answers using the prompts, e.g.: </text>

<text 
x="197" 
y="355" 
dx="0,0,0" 
class="s5_76"
>客厅/</text>

<text 
x="262" 
y="355" 
dx="0,0" 
class="s6_76"
>客廳</text>

<text 
x="498" 
y="355" 
dx="0" 
class="s5_76"
>大</text>

<text 
x="165" 
y="403" 
dx="0,0,0" 
class="s7_76"
>Q: </text>

<text 
x="197" 
y="403" 
dx="0,0,0,0,0,0,0,0,0,0" 
class="s5_76"
>你的公寓客厅很大吧？</text>

<text 
x="197" 
y="443" 
dx="0,0,0,0,0,0,0,0,0,0" 
class="s6_76"
>你的公寓客廳很大吧？</text>

<text 
x="165" 
y="490" 
dx="0,0,0" 
class="s7_76"
>A: </text>

<text 
x="197" 
y="490" 
dx="0,0,0,0,0,0,0,0" 
class="s5_76"
>对，客厅比较大。</text>

<text 
x="197" 
y="531" 
dx="0,0,0,0,0,0,0,0" 
class="s6_76"
>對，客廳比較大。</text>

<text 
x="168" 
y="578" 
dx="0,0.2" 
class="s8_76"
>1 </text>

<text 
x="197" 
y="578" 
dx="0,0,0" 
class="s5_76"
>家具/</text>

<text 
x="262" 
y="578" 
dx="0,0" 
class="s6_76"
>傢俱</text>

<text 
x="498" 
y="578" 
dx="0" 
class="s5_76"
>新</text>

<text 
x="168" 
y="626" 
dx="0,0.2" 
class="s8_76"
>2 </text>

<text 
x="197" 
y="626" 
dx="0,0" 
class="s5_76"
>房租</text>

<text 
x="498" 
y="626" 
dx="0,0" 
class="s5_76"
>便宜</text>

<text 
x="168" 
y="673" 
dx="0,0.2" 
class="s8_76"
>3 </text>

<text 
x="197" 
y="673" 
dx="0,0" 
class="s5_76"
>附近</text>

<text 
x="498" 
y="673" 
dx="0,0,0" 
class="s5_76"
>安静/</text>

<text 
x="562" 
y="673" 
dx="0,0" 
class="s6_76"
>安靜</text>

<text 
x="168" 
y="720" 
dx="0,0.2" 
class="s8_76"
>4 </text>

<text 
x="197" 
y="720" 
dx="0,0,0,0" 
class="s5_76"
>买东西/</text>

<text 
x="287" 
y="720" 
dx="0,0,0" 
class="s6_76"
>買東西</text>

<text 
x="498" 
y="720" 
dx="0,0" 
class="s5_76"
>方便</text>

<text 
x="119" 
y="798" 
dx="0,0" 
class="s2_76"
>B </text>

<text 
x="340" 
y="803" 
dx="0,-2.6,0,0,0,0,0,0,0,0,0,0,0,0,0,0,-0.4,0,0,0,0,0,0,0,0" 
class="s3_76"
>You don’t want to do that</text>

<text 
x="157" 
y="860" 
dx="0,0,0,0,0,0,0,0,0,0,0,0,0,0,0,0,0,0,0,0,0,0,0,0,0,0,0,0,0,0,0,0,0,0,0,0,0,0,0,0,0,0,0,0,0,-0.2,0,0,0,0,0,0,0,0,0,0,0,0,0,0,0,0,0,0,0,0,0,0,0,0,0,0,0,0,0,0,0,0,0,0,0,0,0,0,0,0,0,0,0,0,0,0" 
class="s4_76"
>In pairs, practice dissuading your partner from engaging in the activities described in the </text>

<text 
x="157" 
y="888" 
dx="0,0,-0.2,0,0,0,0,0,0,0,0,0,0" 
class="s4_76"
>prompts. Use </text>

<text 
x="250" 
y="889" 
dx="0,0,0" 
class="s9_76"
>…得很</text>

<text 
x="327" 
y="888" 
dx="0,-0.2,0,0,0,0,0,0,0,0,0,0,0,0,0,0,0,0,-0.2,0,0,0,0,0,0,0,0,0,0,0" 
class="s4_76"
>to emphasize the reason, e.g.:</text>

<text 
x="197" 
y="924" 
dx="0,0,0,0,0,0,0,0,0,0,0,0,0,0,-0.3,-0.1,-0.2,0,0,0,0" 
class="s4_76"
>eat at the cafeteria </text>

<text 
x="576" 
y="924" 
dx="0,0,0,0,0,0,0,-0.3,0,0" 
class="s4_76"
>awful food</text>

<text 
x="157" 
y="972" 
dx="0,0.2,0.2,0.2,0.2,0.2,0.2,0.2" 
class="s8_76"
>Person A</text>

<text 
x="275" 
y="972" 
dx="0,0,0,0,0,0,0,0,0,0,0" 
class="s5_76"
>我想去学生餐厅吃午饭。</text>

<text 
x="276" 
y="1012" 
dx="0,0,0,0,0,0,0,0,0,0,0" 
class="s6_76"
>我想去學生餐廳吃午飯。</text>

<text 
x="157" 
y="1059" 
dx="0,0.2,0.2,0.2,0.2,0.2,0.2,0.2" 
class="s8_76"
>Person B</text>

<text 
x="274" 
y="1059" 
dx="0,0,0,0,0,0,0,0,0,0,0,0,0,0" 
class="s5_76"
>别去，学生餐厅的饭难吃得很。</text>

<text 
x="276" 
y="1100" 
dx="0,0,0,0,0,0,0,0,0,0,0,0,0,0" 
class="s6_76"
>別去，學生餐廳的飯難吃得很。</text>

<path d="M146.6,146.9l0,53.5l0,0.8l0.8,0l676.9,0l0.8,0l0,-0.8l0,-53.5l0,-0.7l-0.8,0l-676.9,0l-0.8,0l0,0.7Z" class="g4_76" />
<path d="M148.7,199.1l674.3,0l0,-50.9l-674.3,0l0,50.9Z" class="g5_76" />
<text 
x="724" 
y="178" 
dx="0,0,0,0,0,0,0,0,0,0,0,0,0" 
class="s10_76"
>INTERPERSONAL</text>

<path d="M719.9,181.8l90.9,0l0,-14.4l-90.9,0l0,14.4Z" class="g6_76" />
<path d="M146.6,768l0,53.4l0,0.8l0.8,0l676.9,0l0.8,0l0,-0.8l0,-53.4l0,-0.8l-0.8,0l-676.9,0l-0.8,0l0,0.8Z" class="g4_76" />
<path d="M148.7,820.2l674.3,0l0,-51l-674.3,0l0,51Z" class="g5_76" />
<text 
x="724" 
y="799" 
dx="0,0,0,0,0,0,0,0,0,0,0,0,0" 
class="s10_76"
>INTERPERSONAL</text>

<path d="M719.9,802.8l90.9,0l0,-14.4l-90.9,0l0,14.4Z" class="g6_76" />
<path d="M881.9,1209.2l67.2,0l0,-1222.1l-67.2,0l0,1222.1Z" class="g7_76" />
<text 
transform="matrix(0, 1, -1, 0, 890, 857)"
dx="0,1,1,1,1,1,1,1,1" 
class="s11_76"
>Lesson 2 </text>

<text 
transform="matrix(0, 1, -1, 0, 890, 923)"
dx="0,1" 
class="s11_76"
>| </text>

<text 
transform="matrix(0, 1, -1, 0, 890, 936)"
dx="0,1,1,1,1,1,1,1,0.8,1" 
class="s11_76"
>Dorm Life </text>

<text 
transform="matrix(0, 1, -1, 0, 890, 1007)"
dx="0,1" 
class="s11_76"
>| </text>

<text 
transform="matrix(0, 1, -1, 0, 890, 1021)"
dx="0,1,1,1,1,1,1,0.8,1,1,1,0.9,1,1,1,1,1,1" 
class="s11_76"
>Language Practice </text>

<text 
transform="matrix(0, 1, -1, 0, 890, 1157)"
dx="0,1,0" 
class="s11_76"
>53 </text>



<!-- Any embedded fonts defined here -->
<style type="text/css" ><![CDATA[

@font-face {
	font-family: LibreFranklin-Regular_3td;
	src: url("fonts/LibreFranklin-Regular_3td.woff") format("woff");
}

@font-face {
	font-family: LibreFranklin-SemiBold_3tc;
	src: url("fonts/LibreFranklin-SemiBold_3tc.woff") format("woff");
}

@font-face {
	font-family: LibreFranklin-Medium_3t3;
	src: url("fonts/LibreFranklin-Medium_3t3.woff") format("woff");
}

@font-face {
	font-family: LibreFranklin-Bold_3t0;
	src: url("fonts/LibreFranklin-Bold_3t0.woff") format("woff");
}

@font-face {
	font-family: STKaiTi-TC-Regular_3pl;
	src: url("fonts/STKaiTi-TC-Regular_3pl.woff") format("woff");
}

@font-face {
	font-family: STKaiti-SC-Regular_3pn;
	src: url("fonts/STKaiti-SC-Regular_3pn.woff") format("woff");
}

@font-face {
	font-family: LibreFranklin-ExtraBold_3t6;
	src: url("fonts/LibreFranklin-ExtraBold_3t6.woff") format("woff");
}

]]></style>

</svg>
