<?xml version="1.0" encoding="UTF-8" standalone="no"?>
<!DOCTYPE svg PUBLIC "-//W3C//DTD SVG 1.1//EN"
"http://www.w3.org/Graphics/SVG/1.1/DTD/svg11.dtd">


<!-- Page 230 -->
<svg x="0" y="0" width="921" height="1196" viewBox="0 0 921 1196" version="1.1" xmlns="http://www.w3.org/2000/svg" xmlns:xlink="http://www.w3.org/1999/xlink"
style="display: block;margin-left: auto;margin-right: auto;">
<defs>

<style type="text/css"><![CDATA[

.g1_230{
fill: none;
stroke: #007598;
stroke-width: 1.5277778;
stroke-linecap: butt;
stroke-linejoin: miter;
stroke-miterlimit: 4;
}
.g2_230{
fill: none;
stroke: #007598;
stroke-width: 0.5102778;
stroke-linecap: butt;
stroke-linejoin: miter;
stroke-miterlimit: 4;
}
.g3_230{
fill: #007598;
stroke: #B2B3B7;
stroke-width: 1.5277778;
stroke-linecap: butt;
stroke-linejoin: miter;
stroke-miterlimit: 4;
}

.s1_230{
font-size: 15.28px;
font-family: LibreFranklin-ExtraBold_3_n;
fill: #3F3F40;
}
.s2_230{
font-size: 25.97px;
font-family: STKaiti-SC-Regular_3pn;
fill: #3F3F40;
}
.s3_230{
font-size: 25.97px;
font-family: STKaiti-SC-Bold_3oi;
fill: #007D9F;
}
.s4_230{
font-size: 25.97px;
font-family: STKaiTi-TC-Regular_3pl;
fill: #3F3F40;
}
.s5_230{
font-size: 25.97px;
font-family: STKaiTi-TC-Bold_3op;
fill: #007D9F;
}
.s6_230{
font-size: 14.51px;
font-family: LibreFranklin-Regular_401;
fill: #3F3F40;
}
.s7_230{
font-size: 23.68px;
font-family: STKaiti-SC-Regular_3pn;
fill: #3F3F40;
}
.s8_230{
font-size: 17.19px;
font-family: GentiumBasic-Italic_3ss;
fill: #3F3F40;
}
.s9_230{
font-size: 11.08px;
font-family: LibreFranklin-SemiBold_3_w;
fill: #FFFFFF;
}

]]></style>

</defs>
<path d="M0,0
L0,1196
L921,1196
L921,0 Z " 
fill="#FFFFFF" stroke="none" />
<text 
x="169" 
y="71" 
dx="0,0" 
class="s1_230"
>F </text>

<text 
x="239" 
y="73" 
dx="0,0,0,0,0" 
class="s2_230"
>我一会儿都</text>

<text 
x="369" 
y="73" 
dx="0,0,0,0" 
class="s3_230"
>不能离开</text>

<text 
x="473" 
y="73" 
dx="0,0,0,0,0,0,0,0,0,0,0,0,0,0" 
class="s2_230"
>电脑，离开了，电脑会出问题。</text>

<text 
x="239" 
y="114" 
dx="0,0,0,0,0" 
class="s4_230"
>我一會兒都</text>

<text 
x="369" 
y="114" 
dx="0,0,0,0" 
class="s5_230"
>不能離開</text>

<text 
x="473" 
y="114" 
dx="0,0,0,0,0,0,0,0,0,0,0,0,0,0" 
class="s4_230"
>電腦，離開了，電腦會出問題。</text>

<text 
x="245" 
y="147" 
dx="0,0,0,0,0,0,0,0,0,0,0,0,-0.4,0,0,0,0,0,0,0,0,0,0,0,-0.2,0,0,0,0,-0.4,0,0,0,-0.3,0,0,0,0,0,0,0,0,0,0,0,0,0,0,0,0,0,0,0,-0.4,0,0,0,0,0,-0.1,0,0,0,0,0,0,0,0,0,0,0,-0.1,0,0,0,-0.2,0,0,0" 
class="s6_230"
>I can’t leave the computer even for a moment. If I do, something will go wrong </text>

<text 
x="245" 
y="167" 
dx="0,0,0,0,0,0,0,0,0,0,0,0,0,0,0,-0.2,0,-1.2,0" 
class="s6_230"
>with the computer. </text>

<text 
x="245" 
y="187" 
dx="0,0,0,0,0,0,0,0,0,0,-0.2,0,0,0,-0.2,0,0,0,0,0,0,0,0,0,0,0,0,0,0,0,0,0,0,0,0,0,-0.2,0,-1.2,0,0,0,0,0,0,0,0,0,0,0,0,0,0,0,0,0,0,0,0,0,0,0,-0.2,0,0,0,0,0,0" 
class="s6_230"
>(Because of problems with the computer, I shouldn’t be away from it.)</text>

<text 
x="157" 
y="231" 
dx="0,0,0,0,0,0,0,0,0,0,0,0,0,0,0,0,0,0,0,0,0,0,0,0,0,0,0,0,0,0,0,0,0,-0.2,0,0,0,-0.1,-0.2,0,0,0,0,0,0,0,0,0,0,0,0,0,0,0,0,0,0,0,0,0,0,0,0,0,0,0,0,0,0,0,0,0,0,0,0,0,0,0,0,0,0,-0.4,0,0,-0.3,0,0,0,0,0,0,0" 
class="s6_230"
>As we learned in IC2, this kind of potential complement usually occurs in negative form. In </text>

<text 
x="157" 
y="258" 
dx="0,0,0,0,0,0,0,0,0,0,-0.4,0,0,0,0,0,-0.2,0,0,0,0,0,0,0,0,0,0,-0.2,0,0,0,0,-0.2,0,0,0,0,0" 
class="s6_230"
>affirmative statements we tend to use </text>

<text 
x="417" 
y="260" 
dx="0" 
class="s7_230"
>能</text>

<text 
x="444" 
y="258" 
dx="0,0,0,-0.2,0,0,0,0,0,0,0,0,-0.4,0,0,0,0,0,0,0,0,0,0,0,0,0,0,0,-0.2,0,0,0,0,0,0,0,0,0,0,0,0,0,0,0,0,0,0,0,0" 
class="s6_230"
>+ resultative complement/directional complement. </text>

<text 
x="157" 
y="286" 
dx="0,0,0,0,0,0,0,0,0,0,0,0,0,0,0,0,0,0,0,0,0,0,0,0,0,0,0,0,0,0,0,0,0,0,0,0,0,0,0,0,0,0,0,0,0,0,0,0,0,0,0,0,0,0,0,0,0,0" 
class="s6_230"
>[See Grammar 2, Lesson 16 and Grammar 3, Lesson 17, IC2.] </text>

<text 
x="157" 
y="357" 
dx="0,0,0,0,0,0,0,0,0,0,0,0,0,0,0,0,0,0,0,0,0,0,0,0,0,-0.2,0,0,0,0,0,0,0,0,0,0,0,0,0,0,0,0,0,-0.2,0,0,0,-0.1,-0.2,0,0,0,0,0,0,0,0,0,0,0,0,0,0,0,0,0,0,0,0,0,0,0,0,0,0,0,-0.4,0,0,0,0,0,0,0,-0.3,0,0,0" 
class="s6_230"
>In this lesson we encounter a second kind of potential complement, which takes the form </text>

<text 
x="157" 
y="385" 
dx="0,0,-0.4,0,0,0,0,0" 
class="s6_230"
>“verb + </text>

<text 
x="207" 
y="386" 
dx="0,0" 
class="s7_230"
>得了</text>

<text 
x="255" 
y="385" 
dx="0" 
class="s6_230"
>/</text>

<text 
x="259" 
y="386" 
dx="0,0" 
class="s7_230"
>不了</text>

<text 
x="307" 
y="385" 
dx="0,0.3,0.3,0.3,0.3,0.3,0.3,0.3,0.3,0.3,0.3,0.3,0.3,0.3,0.3,0.3,0.3" 
class="s8_230"
>(dé liǎo/bù liǎo)</text>

<text 
x="413" 
y="385" 
dx="0,0,0,0,0,0,0,0,0,0,-0.1,-0.2,0,0,0,0,0,0,0,0,0,0,0,0,0,0,0,0,0,0,0,0,0,0,0,0,-0.2,0,0,0,0,0,-0.1,0,0,0,0" 
class="s6_230"
>.” This potential complement indicates whether </text>

<text 
x="157" 
y="412" 
dx="0,0,0,0,0,0,0,0,0,-0.4,0,0,0,0,0,0,0,0,0,0,0,0,-0.4,0,0,0,0,0,0,0,0,0,0,0,0,0,0,0,0,0,0,0,0,0,0,0,0,-0.2,0,0,0,0,0,0,0,0,0,0,0,-0.2,0,0,0,0,0,0,0,0,0,0,0,0,0,0,0,0,0,0,0,0,0,0,0,0,0,0,0,0,-0.2,0,-0.2,0,0,0,0,0,0,0,0,0,0" 
class="s6_230"
>subjective or objective conditions permit the realization of a certain action. It also often appears </text>

<text 
x="157" 
y="440" 
dx="0,0,0,0,0,0,0,0,0,0,-0.4,0,0,-0.3,0,0,0,0,0,0,0,0,0,0,0,0,0,0,0,0,0,0,0,0,0,0,0,0,0,0,0,0,0,0,0,0,0,-0.2,0,-0.2,0,0,0,0,-0.1,0,0,0,0,0,0,0,0,0,0" 
class="s6_230"
>in negative form, as in (E) and (F), and is interchangeable with </text>

<text 
x="571" 
y="440" 
dx="0" 
class="s6_230"
>“</text>

<text 
x="568" 
y="441" 
dx="0,0,0,0" 
class="s7_230"
>（不）能</text>

<text 
x="666" 
y="440" 
dx="0,0,0,-0.4,0,0,0,0" 
class="s6_230"
>+ verb.”</text>

<text 
x="169" 
y="496" 
dx="0,0" 
class="s1_230"
>G </text>

<text 
x="239" 
y="499" 
dx="0,0,0,0,0,0,0,0,0,0,0,0,0,0" 
class="s2_230"
>我明天晚上有课，那个演唱会我</text>

<text 
x="603" 
y="499" 
dx="0,0,0" 
class="s3_230"
>去不了</text>

<text 
x="681" 
y="499" 
dx="0,0" 
class="s2_230"
>了。</text>

<text 
x="239" 
y="539" 
dx="0,0,0,0,0,0,0,0,0,0,0,0,0,0" 
class="s4_230"
>我明天晚上有課，那個演唱會我</text>

<text 
x="603" 
y="539" 
dx="0,0,0" 
class="s5_230"
>去不了</text>

<text 
x="681" 
y="539" 
dx="0,0" 
class="s4_230"
>了。</text>

<text 
x="245" 
y="580" 
dx="0,0" 
class="s6_230"
>or</text>

<text 
x="239" 
y="628" 
dx="0,0,0,0,0,0,0,0,0,0,0,0,0,0" 
class="s2_230"
>我明天晚上有课，那个演唱会我</text>

<text 
x="603" 
y="628" 
dx="0,0,0" 
class="s3_230"
>不能去</text>

<text 
x="681" 
y="628" 
dx="0,0" 
class="s2_230"
>了。</text>

<text 
x="239" 
y="668" 
dx="0,0,0,0,0,0,0,0,0,0,0,0,0,0" 
class="s4_230"
>我明天晚上有課，那個演唱會我</text>

<text 
x="603" 
y="668" 
dx="0,0,0" 
class="s5_230"
>不能去</text>

<text 
x="681" 
y="668" 
dx="0,0" 
class="s4_230"
>了。</text>

<text 
x="245" 
y="702" 
dx="0,0,0,0,0,-0.4,0,0,0,0,0,0,0,0,-0.2,0,0,0,0,-0.2,0,0,0,0,-0.4,0,0,0,0,0,0,0,0,0,0,0,0,0,0,0,0,0,0,0,0,0,0,0,-0.2,0,0,-0.1,0,0,-0.2,0,0,0,0,0,0,0,0,0,0,0,0,0" 
class="s6_230"
>I have class tomorrow evening. I won’t be able to go to the concert.</text>

<text 
x="169" 
y="761" 
dx="0,0" 
class="s1_230"
>H </text>

<text 
x="242" 
y="763" 
dx="0,0,0,0,0,0,0,0" 
class="s2_230"
>那栋楼没有水电，</text>

<text 
x="449" 
y="763" 
dx="0,0,0" 
class="s3_230"
>住不了</text>

<text 
x="527" 
y="763" 
dx="0,0" 
class="s2_230"
>人。</text>

<text 
x="242" 
y="803" 
dx="0,0,0,0,0,0,0,0" 
class="s4_230"
>那棟樓沒有水電，</text>

<text 
x="450" 
y="803" 
dx="0,0,0" 
class="s5_230"
>住不了</text>

<text 
x="528" 
y="803" 
dx="0,0" 
class="s4_230"
>人。</text>

<text 
x="245" 
y="845" 
dx="0,0" 
class="s6_230"
>or</text>

<text 
x="242" 
y="892" 
dx="0,0,0,0,0,0,0,0" 
class="s2_230"
>那栋楼没有水电，</text>

<text 
x="450" 
y="892" 
dx="0,0,0" 
class="s3_230"
>不能住</text>

<text 
x="528" 
y="892" 
dx="0,0" 
class="s2_230"
>人。</text>

<text 
x="242" 
y="933" 
dx="0,0,0,0,0,0,0,0" 
class="s4_230"
>那棟樓沒有水電，</text>

<text 
x="450" 
y="933" 
dx="0,0,0" 
class="s5_230"
>不能住</text>

<text 
x="528" 
y="933" 
dx="0,0" 
class="s4_230"
>人。</text>

<text 
x="245" 
y="966" 
dx="0,0,0,0,0,0,0,0,0,0,0,0,0,0,0,0,0,0,0,0,0,0,0,0,0,-0.4,0,0,0,0,-0.2,0,0,0,0,0,0,0,0,0,0,0,0,0,0,0,0,-1,0,0,0,0.4,-0.9,0,0,0,0,0,0,0,0,0,0,0,0,0,0,0" 
class="s6_230"
>That building doesn’t have water or electricity. It’s uninhabitable.</text>

<path d="M164.4,48c-0.1,0,-7.7,0.1,-7.7,7.7l0,19.7c0,0,0.1,7.6,7.7,7.6l22.4,0c0.1,0,7.6,-0.1,7.6,-7.6l0,-19.7c0,-0.1,-0.1,-7.7,-7.6,-7.7l-22.4,0Z" class="g1_230" />
<path d="M164.4,50.1c-0.6,0,-5.6,0.2,-5.6,5.6l0,19.7c0,0.5,0.2,5.6,5.6,5.6l22.4,0c0.6,0,5.6,-0.2,5.6,-5.6l0,-19.7c0,-0.6,-0.2,-5.6,-5.6,-5.6l-22.4,0Z" class="g2_230" />
<path d="M164.4,473.5c-0.1,0,-7.7,0.1,-7.7,7.7l0,19.7c0,0,0.1,7.6,7.7,7.6l22.4,0c0.1,0,7.6,-0.1,7.6,-7.6l0,-19.7c0,-0.1,-0.1,-7.7,-7.6,-7.7l-22.4,0Z" class="g1_230" />
<path d="M164.4,475.6c-0.6,0,-5.6,0.2,-5.6,5.6l0,19.7c0,0.5,0.2,5.6,5.6,5.6l22.4,0c0.6,0,5.6,-0.2,5.6,-5.6l0,-19.7c0,-0.6,-0.2,-5.6,-5.6,-5.6l-22.4,0Z" class="g2_230" />
<path d="M164.4,737.8c-0.1,0,-7.7,0.1,-7.7,7.7l0,19.7c0,0,0.1,7.6,7.7,7.6l22.4,0c0.1,0,7.6,-0.1,7.6,-7.6l0,-19.7c0,-0.1,-0.1,-7.7,-7.6,-7.7l-22.4,0Z" class="g1_230" />
<path d="M164.4,739.9c-0.6,0,-5.6,0.2,-5.6,5.6l0,19.7c0,0.5,0.2,5.6,5.6,5.6l22.4,0c0.6,0,5.6,-0.2,5.6,-5.6l0,-19.7c0,-0.6,-0.2,-5.6,-5.6,-5.6l-22.4,0Z" class="g2_230" />
<path d="M881.6,1209.2l69.5,0l0,-1222.1l-69.5,0l0,1222.1Z" class="g3_230" />
<text 
transform="matrix(0, 1, -1, 0, 890, 798)"
dx="0,1,1,1,1,1,1,1,1" 
class="s9_230"
>Lesson 7 </text>

<text 
transform="matrix(0, 1, -1, 0, 890, 863)"
dx="0,1" 
class="s9_230"
>| </text>

<text 
transform="matrix(0, 1, -1, 0, 890, 877)"
dx="0,1,1,1,1,1,0.8,1,1,1,1,1,1,1,1,1,1,1,1,1,1,0.8,1,1,1,0.9,1" 
class="s9_230"
>Computers and the Internet </text>

<text 
transform="matrix(0, 1, -1, 0, 890, 1059)"
dx="0,1" 
class="s9_230"
>| </text>

<text 
transform="matrix(0, 1, -1, 0, 890, 1073)"
dx="0,1,0.9,1,1,1,1,1" 
class="s9_230"
>Grammar </text>

<text 
transform="matrix(0, 1, -1, 0, 890, 1149)"
dx="0,1,1,0" 
class="s9_230"
>207 </text>



<!-- Any embedded fonts defined here -->
<style type="text/css" ><![CDATA[

@font-face {
	font-family: STKaiti-SC-Bold_3oi;
	src: url("fonts/STKaiti-SC-Bold_3oi.woff") format("woff");
}

@font-face {
	font-family: LibreFranklin-Regular_401;
	src: url("fonts/LibreFranklin-Regular_401.woff") format("woff");
}

@font-face {
	font-family: STKaiTi-TC-Bold_3op;
	src: url("fonts/STKaiTi-TC-Bold_3op.woff") format("woff");
}

@font-face {
	font-family: STKaiTi-TC-Regular_3pl;
	src: url("fonts/STKaiTi-TC-Regular_3pl.woff") format("woff");
}

@font-face {
	font-family: LibreFranklin-ExtraBold_3_n;
	src: url("fonts/LibreFranklin-ExtraBold_3_n.woff") format("woff");
}

@font-face {
	font-family: STKaiti-SC-Regular_3pn;
	src: url("fonts/STKaiti-SC-Regular_3pn.woff") format("woff");
}

@font-face {
	font-family: GentiumBasic-Italic_3ss;
	src: url("fonts/GentiumBasic-Italic_3ss.woff") format("woff");
}

@font-face {
	font-family: LibreFranklin-SemiBold_3_w;
	src: url("fonts/LibreFranklin-SemiBold_3_w.woff") format("woff");
}

]]></style>

</svg>
