<?xml version="1.0" encoding="UTF-8" standalone="no"?>
<!DOCTYPE svg PUBLIC "-//W3C//DTD SVG 1.1//EN"
"http://www.w3.org/Graphics/SVG/1.1/DTD/svg11.dtd">


<!-- Page 63 -->
<svg x="0" y="0" width="921" height="1196" viewBox="0 0 921 1196" version="1.1" xmlns="http://www.w3.org/2000/svg" xmlns:xlink="http://www.w3.org/1999/xlink"
style="display: block;margin-left: auto;margin-right: auto;">
<defs>

<style type="text/css"><![CDATA[

.g1_63{
fill: none;
stroke: #007598;
stroke-width: 0.6248611;
stroke-linecap: butt;
stroke-linejoin: miter;
}
.g2_63{
fill: none;
stroke: #007598;
stroke-width: 1.8730555;
stroke-linecap: butt;
stroke-linejoin: miter;
}
.g3_63{
fill: none;
stroke: #007598;
stroke-width: 2.2916667;
stroke-linecap: butt;
stroke-linejoin: miter;
}
.g4_63{
fill: none;
stroke: #EDF3F7;
stroke-width: 33.61111;
stroke-linecap: butt;
stroke-linejoin: miter;
}
.g5_63{
fill: none;
stroke: #007598;
stroke-width: 1.5277778;
stroke-linecap: butt;
stroke-linejoin: miter;
stroke-miterlimit: 4;
}
.g6_63{
fill: none;
stroke: #007598;
stroke-width: 0.5102778;
stroke-linecap: butt;
stroke-linejoin: miter;
stroke-miterlimit: 4;
}
.g7_63{
fill: #007598;
stroke: #B2B3B7;
stroke-width: 1.5277778;
stroke-linecap: butt;
stroke-linejoin: miter;
stroke-miterlimit: 4;
}

.s1_63{
font-size: 32.08px;
font-family: LibreFranklin-ExtraBold_3t6;
fill: #007598;
}
.s2_63{
font-size: 18.33px;
font-family: LibreFranklin-ExtraBold_3t6;
fill: #007D9F;
}
.s3_63{
font-size: 22.92px;
font-family: LibreFranklin-Bold_3t0;
fill: #007D9F;
}
.s4_63{
font-size: 14.51px;
font-family: LibreFranklin-Regular_3td;
fill: #3F3F40;
}
.s5_63{
font-size: 17.57px;
font-family: LibreFranklin-Medium_3t3;
fill: #231F20;
}
.s6_63{
font-size: 24.44px;
font-family: STKaiti-SC-Regular_3pn;
fill: #231F20;
}
.s7_63{
font-size: 24.44px;
font-family: STKaiTi-TC-Regular_3pl;
fill: #231F20;
}
.s8_63{
font-size: 15.28px;
font-family: LibreFranklin-ExtraBold_3t6;
fill: #3F3F40;
}
.s9_63{
font-size: 25.97px;
font-family: STKaiti-SC-Regular_3pn;
fill: #3F3F40;
}
.s10_63{
font-size: 25.97px;
font-family: STKaiti-SC-Bold_3oi;
fill: #007D9F;
}
.s11_63{
font-size: 25.97px;
font-family: STKaiTi-TC-Regular_3pl;
fill: #3F3F40;
}
.s12_63{
font-size: 25.97px;
font-family: STKaiTi-TC-Bold_3op;
fill: #007D9F;
}
.s13_63{
font-size: 23.68px;
font-family: STKaiti-SC-Regular_3pn;
fill: #3F3F40;
}
.s14_63{
font-size: 23.68px;
font-family: STKaiTi-TC-Regular_3pl;
fill: #3F3F40;
}
.s15_63{
font-size: 11.08px;
font-family: LibreFranklin-SemiBold_3tc;
fill: #FFFFFF;
}

]]></style>

</defs>
<path d="M0,0
L0,1196
L921,1196
L921,0 Z " 
fill="#FFFFFF" stroke="none" />
<path d="M4.6,97.3l204.6,0" class="g1_63" />
<path d="M4.6,99.8l204.6,0" class="g2_63" />
<path d="M123.8,183.4l12.2,0" class="g3_63" />
<path d="M152.8,327.8l661.5,0" class="g4_63" />
<text 
x="59" 
y="85" 
dx="0,0.3,0,0.3,0.3,0.3,0.3" 
class="s1_63"
>Grammar</text>

<text 
x="123" 
y="177" 
dx="0,0" 
class="s2_63"
>1 </text>

<text 
x="363" 
y="182" 
dx="0,-0.2,0,0,0,-0.4,0,0,0,0,0,0,0,0,0,0,-0.4,0,0,0,0" 
class="s3_63"
>Existential sentences</text>

<text 
x="161" 
y="253" 
dx="0,-0.3,0,0,0,-0.2,0,0,0,0,0,0,0,0,0,0,-0.2,0,0,0,0,0,0,0,0,0,0,0,0,-0.2,0,0,0,0,0,0,0,0,0,0,-0.1,0,0,0,0,0,0,-0.3,0,0,0,0,0,0,0,0,0,0,0,0,0,0,0,0,0,0,0,0,0,0,0,0,0,0,0,0,0,0,0,0,0,0,-0.2,0,0,0,0,0,0,0,0,-0.4,0,0,0" 
class="s4_63"
>Existential sentences indicate that something exists at a certain place. Such sentences have a </text>

<text 
x="161" 
y="280" 
dx="0,0,0,0,0,0,0,0,0,0,0,0,0,0,0,-0.2,0,0,0,-0.2,0,0,0,0,0,0,0,0,0,-0.2,0,0,0,0,0,0,0,0,0,-0.2,0,0,0,0,0,0,-0.3,0,0,0,0,0,0" 
class="s4_63"
>non-typical word order and are structured as follows:</text>

<text 
x="170" 
y="333" 
dx="0,0,0,0,0,0,0,0,0,-0.2,0,0,0,0,-0.1,0,0,0,0,0,0,-0.5,0,0,0,0,0,0" 
class="s5_63"
>Place word/phrase + verb + (</text>

<text 
x="402" 
y="333" 
dx="0" 
class="s6_63"
>着</text>

<text 
x="426" 
y="333" 
dx="0" 
class="s5_63"
>/</text>

<text 
x="432" 
y="333" 
dx="0,0" 
class="s7_63"
>著 </text>

<text 
x="463" 
y="333" 
dx="0,0,0" 
class="s5_63"
>or </text>

<text 
x="484" 
y="333" 
dx="0" 
class="s6_63"
>了</text>

<text 
x="509" 
y="333" 
dx="0,0,0,0,0,0,0,0,0,-0.1,0,0,0,0,0,0,0,0,0,0,-0.2,0,0,0,0,-0.2,0,0,0,0,0,0,0" 
class="s5_63"
>) + numeral + measure word + noun</text>

<text 
x="161" 
y="384" 
dx="0,0,-0.1,0.4,-0.9,0,0,0,0,0,0,0,0,0,0,0,0,0,0,0,-0.3,0,0,0,0,0,0,0" 
class="s4_63"
>Let’s look at some examples:</text>

<text 
x="174" 
y="440" 
dx="0,0" 
class="s8_63"
>A </text>

<text 
x="244" 
y="443" 
dx="0,0,0" 
class="s9_63"
>桌子上</text>

<text 
x="322" 
y="443" 
dx="0,0" 
class="s10_63"
>放着</text>

<text 
x="374" 
y="443" 
dx="0,0,0,0" 
class="s9_63"
>一本书。</text>

<text 
x="244" 
y="483" 
dx="0,0,0" 
class="s11_63"
>桌子上</text>

<text 
x="322" 
y="483" 
dx="0,0" 
class="s12_63"
>放著</text>

<text 
x="374" 
y="483" 
dx="0,0,0,0" 
class="s11_63"
>一本書。</text>

<text 
x="250" 
y="517" 
dx="0,0,0,0,-0.2,0,0,0,0,0,0,0,0,0,0,0,0,0,0,0,0,0,0,0,0,0,0,0,0,0,0,0,0,0" 
class="s4_63"
>There is a book lying on the desk.</text>

<text 
x="174" 
y="576" 
dx="0,0" 
class="s8_63"
>B </text>

<text 
x="244" 
y="578" 
dx="0,0" 
class="s9_63"
>床前</text>

<text 
x="296" 
y="578" 
dx="0" 
class="s10_63"
>有</text>

<text 
x="322" 
y="578" 
dx="0,0,0,0,0" 
class="s9_63"
>一把椅子。</text>

<text 
x="244" 
y="618" 
dx="0,0" 
class="s11_63"
>床前</text>

<text 
x="296" 
y="618" 
dx="0" 
class="s12_63"
>有</text>

<text 
x="322" 
y="618" 
dx="0,0,0,0,0" 
class="s11_63"
>一把椅子。</text>

<text 
x="250" 
y="652" 
dx="0,0,0,0,-0.2,0,0,0,0,0,0,0,0,0,0,0,0,0,0,0,0,0,-0.2,0,0,0,0,-0.2,0,0,0,0,0,0,0,0,0" 
class="s4_63"
>There is a chair in front of the bed.</text>

<text 
x="174" 
y="711" 
dx="0,0" 
class="s8_63"
>C </text>

<text 
x="244" 
y="713" 
dx="0,0,0,0,0" 
class="s9_63"
>书桌的旁边</text>

<text 
x="374" 
y="713" 
dx="0" 
class="s10_63"
>是</text>

<text 
x="400" 
y="713" 
dx="0,0,0" 
class="s9_63"
>衣柜。</text>

<text 
x="244" 
y="754" 
dx="0,0,0,0,0" 
class="s11_63"
>書桌的旁邊</text>

<text 
x="374" 
y="754" 
dx="0" 
class="s12_63"
>是</text>

<text 
x="400" 
y="754" 
dx="0,0,0" 
class="s11_63"
>衣櫃。</text>

<text 
x="250" 
y="787" 
dx="0,0,-0.3,-0.2,0,0,-0.2,0,0,0,0,0,0,0,0,0,0,0,0,0,0,0,-0.2,0,0,0,0,0,0,0,0,0,-0.2,0,-0.2,0,0,0" 
class="s4_63"
>Next to the desk, there is a wardrobe.</text>

<text 
x="161" 
y="859" 
dx="0,0,0,0,0,-0.4,0,0,0,0,0,0,0,0,0,0,0,0,0,0,0,0,0,0,0,0,0,0,0,0,0,0,0,0,0,0,0,0,0,0,0,0,0,0,0,-0.2,0,0,0,-0.2,0,0,0,0,0,0,-0.2,0,0,0,-0.2,0" 
class="s4_63"
>The verbs that can be used with this structure are limited to </text>

<text 
x="563" 
y="861" 
dx="0" 
class="s13_63"
>有</text>

<text 
x="587" 
y="859" 
dx="0,0" 
class="s4_63"
>, </text>

<text 
x="593" 
y="861" 
dx="0" 
class="s13_63"
>是</text>

<text 
x="617" 
y="859" 
dx="0,0,0,0,0,0,0,-0.4,0,0,0,0,0,0,0,0,0,0,0,0,0,0,0,0,0,0,0,0,0,0" 
class="s4_63"
>, and verbs signifying bodily </text>

<text 
x="161" 
y="887" 
dx="0,0,0,0,0,0,0,0,0,0,0,0,0,0" 
class="s4_63"
>actions (e.g. </text>

<text 
x="245" 
y="888" 
dx="0" 
class="s13_63"
>站</text>

<text 
x="268" 
y="887" 
dx="0,0" 
class="s4_63"
>, </text>

<text 
x="274" 
y="888" 
dx="0" 
class="s13_63"
>坐</text>

<text 
x="298" 
y="887" 
dx="0,0" 
class="s4_63"
>, </text>

<text 
x="304" 
y="888" 
dx="0" 
class="s13_63"
>躺</text>

<text 
x="328" 
y="887" 
dx="0,0" 
class="s4_63"
>, </text>

<text 
x="334" 
y="888" 
dx="0" 
class="s13_63"
>拿</text>

<text 
x="358" 
y="887" 
dx="0,0" 
class="s4_63"
>, </text>

<text 
x="364" 
y="888" 
dx="0" 
class="s13_63"
>放</text>

<text 
x="388" 
y="887" 
dx="0,0" 
class="s4_63"
>, </text>

<text 
x="394" 
y="888" 
dx="0" 
class="s13_63"
>摆</text>

<text 
x="418" 
y="887" 
dx="0" 
class="s4_63"
>/</text>

<text 
x="423" 
y="888" 
dx="0" 
class="s14_63"
>擺</text>

<text 
x="446" 
y="887" 
dx="0,0" 
class="s4_63"
>, </text>

<text 
x="452" 
y="888" 
dx="0" 
class="s13_63"
>挂</text>

<text 
x="476" 
y="887" 
dx="0" 
class="s4_63"
>/</text>

<text 
x="481" 
y="888" 
dx="0" 
class="s14_63"
>掛</text>

<text 
x="505" 
y="887" 
dx="0,0,0,0,0,0" 
class="s4_63"
>, and </text>

<text 
x="539" 
y="888" 
dx="0" 
class="s13_63"
>贴</text>

<text 
x="563" 
y="887" 
dx="0" 
class="s4_63"
>/</text>

<text 
x="568" 
y="888" 
dx="0" 
class="s14_63"
>貼</text>

<text 
x="592" 
y="887" 
dx="0,0" 
class="s4_63"
>).</text>

<text 
x="174" 
y="943" 
dx="0,0" 
class="s8_63"
>D </text>

<text 
x="244" 
y="945" 
dx="0,0,0" 
class="s9_63"
>教室里</text>

<text 
x="322" 
y="945" 
dx="0" 
class="s10_63"
>有</text>

<text 
x="348" 
y="945" 
dx="0,0,0,0,0" 
class="s9_63"
>一些学生。</text>

<text 
x="244" 
y="986" 
dx="0,0,0" 
class="s11_63"
>教室裡</text>

<text 
x="322" 
y="986" 
dx="0" 
class="s12_63"
>有</text>

<text 
x="348" 
y="986" 
dx="0,0,0,0,0" 
class="s11_63"
>一些學生。</text>

<text 
x="250" 
y="1019" 
dx="0,0,0,0,-0.2,0,0,0,-0.2,0,0,0,0,0,0,0,0,0,0,0,0,0,0,0,0,0,0,0,0,0,0,0,0,0,0,0,0,-0.2,0,0,0" 
class="s4_63"
>There are some students in the classroom.</text>

<path d="M151.2,146.9l0,53.5l0,0.8l0.8,0l676.9,0l0.7,0l0,-0.8l0,-53.5l0,-0.7l-0.7,0l-676.9,0l-0.8,0l0,0.7Z" class="g5_63" />
<path d="M153.2,199.1l674.4,0l0,-50.9l-674.4,0l0,50.9Z" class="g6_63" />
<path d="M169,417.5c-0.1,0,-7.7,0.1,-7.7,7.7l0,19.7c0,0,0.1,7.6,7.7,7.6l22.4,0c0,0,7.6,-0.1,7.6,-7.6l0,-19.7c0,-0.1,-0.1,-7.7,-7.6,-7.7l-22.4,0Z" class="g5_63" />
<path d="M169,419.6c-0.6,0,-5.6,0.2,-5.6,5.6l0,19.7c0,0.5,0.2,5.6,5.6,5.6l22.4,0c0.5,0,5.6,-0.2,5.6,-5.6l0,-19.7c0,-0.6,-0.2,-5.6,-5.6,-5.6l-22.4,0Z" class="g6_63" />
<path d="M169,552.7c-0.1,0,-7.7,0.1,-7.7,7.7l0,19.7c0,0,0.1,7.6,7.7,7.6l22.4,0c0,0,7.6,-0.1,7.6,-7.6l0,-19.7c0,-0.1,-0.1,-7.7,-7.6,-7.7l-22.4,0Z" class="g5_63" />
<path d="M169,554.8c-0.6,0,-5.6,0.2,-5.6,5.6l0,19.7c0,0.5,0.2,5.6,5.6,5.6l22.4,0c0.5,0,5.6,-0.2,5.6,-5.6l0,-19.7c0,-0.6,-0.2,-5.6,-5.6,-5.6l-22.4,0Z" class="g6_63" />
<path d="M169,687.9c-0.1,0,-7.7,0.1,-7.7,7.7l0,19.7c0,0.1,0.1,7.6,7.7,7.6l22.4,0c0,0,7.6,-0.1,7.6,-7.6l0,-19.7c0,-0.1,-0.1,-7.7,-7.6,-7.7l-22.4,0Z" class="g5_63" />
<path d="M169,690c-0.6,0,-5.6,0.2,-5.6,5.6l0,19.7c0,0.5,0.2,5.6,5.6,5.6l22.4,0c0.5,0,5.6,-0.2,5.6,-5.6l0,-19.7c0,-0.6,-0.2,-5.6,-5.6,-5.6L169,690Z" class="g6_63" />
<path d="M169,920.2c-0.1,0,-7.7,0.1,-7.7,7.6l0,19.7c0,0.1,0.1,7.6,7.7,7.6l22.4,0c0,0,7.6,-0.1,7.6,-7.6l0,-19.7c0,-0.1,-0.1,-7.6,-7.6,-7.6l-22.4,0Z" class="g5_63" />
<path d="M169,922.2c-0.6,0,-5.6,0.2,-5.6,5.6l0,19.7c0,0.6,0.2,5.6,5.6,5.6l22.4,0c0.5,0,5.6,-0.2,5.6,-5.6l0,-19.7c0,-0.6,-0.2,-5.6,-5.6,-5.6l-22.4,0Z" class="g6_63" />
<path d="M-17.5,1209.2l58,0l0,-1222.1l-58,0l0,1222.1Z" class="g7_63" />
<text 
transform="matrix(0, -1, 1, 0, 31, 1173)"
dx="0,1,1" 
class="s15_63"
>40 </text>

<text 
transform="matrix(0, -1, 1, 0, 31, 1136)"
dx="0,1,1,0.8,1,1,0.9,1,0.8,1,1,1,1,1,1,1,1,1,1,1,1" 
class="s15_63"
>Integrated Chinese 3 </text>

<text 
transform="matrix(0, -1, 1, 0, 31, 995)"
dx="0,1" 
class="s15_63"
>| </text>

<text 
transform="matrix(0, -1, 1, 0, 31, 982)"
dx="0,-0.2,0.7,0.7,1,1,1,1" 
class="s15_63"
>Textbook</text>



<!-- Any embedded fonts defined here -->
<style type="text/css" ><![CDATA[

@font-face {
	font-family: STKaiti-SC-Bold_3oi;
	src: url("fonts/STKaiti-SC-Bold_3oi.woff") format("woff");
}

@font-face {
	font-family: STKaiTi-TC-Bold_3op;
	src: url("fonts/STKaiTi-TC-Bold_3op.woff") format("woff");
}

@font-face {
	font-family: LibreFranklin-Regular_3td;
	src: url("fonts/LibreFranklin-Regular_3td.woff") format("woff");
}

@font-face {
	font-family: LibreFranklin-SemiBold_3tc;
	src: url("fonts/LibreFranklin-SemiBold_3tc.woff") format("woff");
}

@font-face {
	font-family: LibreFranklin-Medium_3t3;
	src: url("fonts/LibreFranklin-Medium_3t3.woff") format("woff");
}

@font-face {
	font-family: LibreFranklin-Bold_3t0;
	src: url("fonts/LibreFranklin-Bold_3t0.woff") format("woff");
}

@font-face {
	font-family: STKaiTi-TC-Regular_3pl;
	src: url("fonts/STKaiTi-TC-Regular_3pl.woff") format("woff");
}

@font-face {
	font-family: STKaiti-SC-Regular_3pn;
	src: url("fonts/STKaiti-SC-Regular_3pn.woff") format("woff");
}

@font-face {
	font-family: LibreFranklin-ExtraBold_3t6;
	src: url("fonts/LibreFranklin-ExtraBold_3t6.woff") format("woff");
}

]]></style>

</svg>
