<?xml version="1.0" encoding="UTF-8" standalone="no"?>
<!DOCTYPE svg PUBLIC "-//W3C//DTD SVG 1.1//EN"
"http://www.w3.org/Graphics/SVG/1.1/DTD/svg11.dtd">


<!-- Page 143 -->
<svg x="0" y="0" width="921" height="1196" viewBox="0 0 921 1196" version="1.1" xmlns="http://www.w3.org/2000/svg" xmlns:xlink="http://www.w3.org/1999/xlink"
style="display: block;margin-left: auto;margin-right: auto;">
<defs>
<clipPath id="c0_143"><path d="M189,568.9l0,-63.8l103.4,0l0,63.8Z" /></clipPath>
<clipPath id="c1_143"><path d="M698.5,575.6l0,-78.2l82.1,0l0,78.2Z" /></clipPath>
<clipPath id="c2_143"><path d="M191.7,673.1l0,-60.4l123.2,0l0,60.4Z" /></clipPath>
<clipPath id="c3_143"><path d="M457.2,683.7l0,-85.1l77.3,0l0,85.1Z" /></clipPath>
<clipPath id="c4_143"><path d="M698.8,682.5l0,-85.4l95.4,0l0,85.4Z" /></clipPath>
<clipPath id="c5_143"><path d="M161.9,300.2l0,-88.6l79.6,0l0,88.6Z" /></clipPath>

<style type="text/css"><![CDATA[

.g1_143{
fill: none;
stroke: #872B91;
stroke-width: 2.2916667;
stroke-linecap: butt;
stroke-linejoin: miter;
}
.g2_143{
fill: none;
stroke: #3F3F40;
stroke-width: 0.7638889;
stroke-linecap: butt;
stroke-linejoin: miter;
}
.g3_143{
fill: #9C877A;
}
.g4_143{
fill: #C3B59B;
}
.g5_143{
fill: #00AEEF;
}
.g6_143{
fill: #1275BC;
}
.g7_143{
fill: #FFFFFF;
}
.g8_143{
fill: #D9F1FB;
}
.g9_143{
fill: #FFF101;
}
.g10_143{
fill: none;
stroke: #EE1D23;
stroke-width: 0.8677778;
stroke-linecap: butt;
stroke-linejoin: miter;
}
.g11_143{
fill: #FAD56E;
}
.g12_143{
fill: #D7A156;
}
.g13_143{
fill: none;
stroke: #FAD56E;
stroke-width: 0.4766667;
stroke-linecap: butt;
stroke-linejoin: miter;
}
.g14_143{
fill: #DFF2F9;
}
.g15_143{
fill: none;
stroke: #FFFFFF;
stroke-width: 0.46597224;
stroke-linecap: butt;
stroke-linejoin: miter;
}
.g16_143{
fill: #CB8D45;
}
.g17_143{
fill: #603812;
}
.g18_143{
fill: #AA7C50;
}
.g19_143{
fill: #81ACDB;
}
.g20_143{
fill: #229DD8;
}
.g21_143{
fill: #CDC1DE;
}
.g22_143{
fill: #178BCD;
}
.g23_143{
fill: none;
stroke: #EE1D23;
stroke-width: 0.81125;
stroke-linecap: butt;
stroke-linejoin: miter;
}
.g24_143{
fill: #57584D;
}
.g25_143{
fill: #283891;
}
.g26_143{
fill: #524E5C;
}
.g27_143{
fill: none;
stroke: #FDEEF4;
stroke-width: 0.15277778;
stroke-linecap: butt;
stroke-linejoin: miter;
}
.g28_143{
fill: #E8E8CF;
}
.g29_143{
fill: none;
stroke: #EE1D23;
stroke-width: 0.91208345;
stroke-linecap: butt;
stroke-linejoin: miter;
}
.g30_143{
fill: #252161;
}
.g31_143{
fill: none;
stroke: #FFF101;
stroke-width: 0.3238889;
stroke-linecap: round;
stroke-linejoin: round;
}
.g32_143{
fill: none;
stroke: #FFF101;
stroke-width: 0.43083334;
stroke-linecap: round;
stroke-linejoin: round;
}
.g33_143{
fill: none;
stroke: #FFF101;
stroke-width: 0.3238889;
stroke-linecap: round;
stroke-linejoin: round;
stroke-miterlimit: 4;
}
.g34_143{
fill: none;
stroke: #FFF101;
stroke-width: 0.3238889;
stroke-linecap: round;
stroke-linejoin: round;
stroke-miterlimit: 4;
stroke-dasharray: 1,1;
}
.g35_143{
fill: #FBB040;
}
.g36_143{
fill: none;
stroke: #EE1D23;
stroke-width: 0.74861115;
stroke-linecap: butt;
stroke-linejoin: miter;
}
.g37_143{
fill: #D5E5F1;
}
.g38_143{
fill: none;
stroke: #647284;
stroke-width: 0.16347222;
stroke-linecap: butt;
stroke-linejoin: miter;
}
.g39_143{
fill: none;
stroke: #647284;
stroke-width: 0.16347222;
stroke-linecap: butt;
stroke-linejoin: round;
}
.g40_143{
fill: #EFF5F7;
}
.g41_143{
fill: #647284;
}
.g42_143{
fill: #D4E5F1;
}
.g43_143{
fill: #DADFE3;
}
.g44_143{
fill: #FFFFFF;
stroke: #647284;
stroke-width: 0.16347222;
stroke-linecap: butt;
stroke-linejoin: miter;
}
.g45_143{
fill: none;
stroke: #872B91;
stroke-width: 1.5277778;
stroke-linecap: butt;
stroke-linejoin: miter;
stroke-miterlimit: 4;
}
.g46_143{
fill: none;
stroke: #872B91;
stroke-width: 0.5102778;
stroke-linecap: butt;
stroke-linejoin: miter;
stroke-miterlimit: 4;
}
.g47_143{
fill: none;
stroke: #872B91;
stroke-width: 0.7638889;
stroke-linecap: butt;
stroke-linejoin: miter;
stroke-miterlimit: 4;
}
.g48_143{
fill: #FDBE25;
}
.g49_143{
fill: none;
stroke: #939598;
stroke-width: 0.19861111;
stroke-linecap: butt;
stroke-linejoin: miter;
}
.g50_143{
fill: #635C4E;
}
.g51_143{
fill: #FEE1AA;
}
.g52_143{
fill: #C8A251;
}
.g53_143{
fill: #6A815C;
}
.g54_143{
fill: none;
stroke: #EE1D23;
stroke-width: 0.77152777;
stroke-linecap: butt;
stroke-linejoin: miter;
}
.g55_143{
fill: none;
stroke: #A3AAC6;
stroke-width: 0.7638889;
stroke-linecap: butt;
stroke-linejoin: miter;
stroke-miterlimit: 4;
}
.g56_143{
fill: none;
stroke: #A3AAC6;
stroke-width: 1.1458334;
stroke-linecap: butt;
stroke-linejoin: miter;
stroke-miterlimit: 4;
}
.g57_143{
fill: #EBECF2;
fill-opacity: 0.5;
}
.g58_143{
fill: #365B8C;
}
.g59_143{
fill: #CCCFDF;
}
.g60_143{
fill: none;
stroke: #365B8C;
stroke-width: 1.1443056;
stroke-linecap: butt;
stroke-linejoin: miter;
stroke-miterlimit: 4;
stroke-opacity: 0.149994;
}
.g61_143{
fill: none;
stroke: #365B8C;
stroke-width: 1.1152778;
stroke-linecap: round;
stroke-linejoin: round;
stroke-miterlimit: 4;
stroke-opacity: 0.149994;
stroke-dasharray: 0,3;
}
.g62_143{
fill: #872B91;
stroke: #B2B3B7;
stroke-width: 1.5277778;
stroke-linecap: butt;
stroke-linejoin: miter;
stroke-miterlimit: 4;
}

.s1_143{
font-size: 18.33px;
font-family: LibreFranklin-ExtraBold_3v-;
fill: #8F4198;
}
.s2_143{
font-size: 22.92px;
font-family: LibreFranklin-Bold_3vu;
fill: #8F4198;
}
.s3_143{
font-size: 14.51px;
font-family: LibreFranklin-Regular_3wc;
fill: #3F3F40;
}
.s4_143{
font-size: 15.28px;
font-family: LibreFranklin-ExtraBold_3v-;
fill: #872B91;
}
.s5_143{
font-size: 25.97px;
font-family: STKaiti-SC-Regular_3pn;
fill: #3F3F40;
}
.s6_143{
font-size: 25.97px;
font-family: STKaiTi-TC-Regular_3pl;
fill: #3F3F40;
}
.s7_143{
font-size: 13.12px;
font-family: ProximaNova-Medium_3x5;
fill: #EE1D23;
}
.s8_143{
font-size: 15.57px;
font-family: ProximaNova-Extrabld_3x4;
fill: #EE1D23;
}
.s9_143{
font-size: 13.12px;
font-family: ProximaNova-Medium_3xc;
fill: #EE1D23;
}
.s10_143{
font-size: 15.57px;
font-family: ProximaNova-Extrabld_3x7;
fill: #EE1D23;
}
.s11_143{
font-size: 13.12px;
font-family: ProximaNova-Medium_3x2;
fill: #EE1D23;
}
.s12_143{
font-size: 15.57px;
font-family: ProximaNova-Extrabld_3xb;
fill: #EE1D23;
}
.s13_143{
font-size: 29.40px;
font-family: ProximaNova-Bold_3xa;
fill: #FFFFFF;
}
.s14_143{
font-size: 14.30px;
font-family: ProximaNova-Medium_3x8;
fill: #EE1D23;
}
.s15_143{
font-size: 15.91px;
font-family: ProximaNova-Extrabld_3x1;
fill: #EE1D23;
}
.s16_143{
font-size: 13.53px;
font-family: ProximaNova-Medium_3xe;
fill: #EE1D23;
}
.s17_143{
font-size: 16.06px;
font-family: ProximaNova-Extrabld_3xd;
fill: #EE1D23;
}
.s18_143{
font-size: 13.53px;
font-family: ProximaNova-Medium_3xf;
fill: #EE1D23;
}
.s19_143{
font-size: 16.06px;
font-family: ProximaNova-Extrabld_3x6;
fill: #EE1D23;
}
.s20_143{
font-size: 23.68px;
font-family: STKaiti-SC-Regular_3pn;
fill: #3F3F40;
}
.s21_143{
font-size: 23.68px;
font-family: STKaiTi-TC-Regular_3pl;
fill: #3F3F40;
}
.s22_143{
font-size: 9.55px;
font-family: LibreFranklin-Medium_3v_;
fill: #872B91;
}
.s23_143{
font-size: 11.67px;
font-family: ProximaNova-Medium_3xh;
fill: #EE1D23;
}
.s24_143{
font-size: 13.85px;
font-family: ProximaNova-Extrabld_3xg;
fill: #EE1D23;
}
.s25_143{
font-size: 33.08px;
font-family: ProximaNova-Bold_3x3;
fill: #B1B6CC;
}
.s26_143{
font-size: 20.63px;
font-family: Museo-700_3x9;
fill: #365B8C;
}
.s27_143{
font-size: 14.51px;
font-family: LibreFranklin-SemiBold_3wg;
fill: #FFFFFF;
}
.s28_143{
font-size: 14.51px;
font-family: LibreFranklin-SemiBold_3wg;
fill: #365B8C;
}
.s29_143{
font-size: 44.31px;
font-family: STKaiti-SC-Bold_3oi;
fill: #3F3F40;
}
.s30_143{
font-size: 12.99px;
font-family: LibreFranklin-Bold_3vu;
fill: #FFFFFF;
}
.s31_143{
font-size: 44.31px;
font-family: STKaiTi-TC-Bold_3op;
fill: #3F3F40;
}
.s32_143{
font-size: 12.99px;
font-family: LibreFranklin-Bold_3vu;
fill: #365B8C;
}
.s33_143{
font-size: 11.08px;
font-family: LibreFranklin-SemiBold_3wg;
fill: #FFFFFF;
}

]]></style>

</defs>
<path d="M0,0
L0,1196
L921,1196
L921,0 Z " 
fill="#FFFFFF" stroke="none" />
<path d="M123.8,78.3l12.2,0" class="g1_143" />
<path d="M502.6,325.8l52,0" class="g2_143" />
<path d="M503.8,366.3l52,0" class="g2_143" />
<path d="M424.7,413.6l52,0" class="g2_143" />
<path d="M554.6,413.6l77.9,0" class="g2_143" />
<path d="M425.9,454.1l51.9,0" class="g2_143" />
<path d="M555.8,454.1l77.9,0" class="g2_143" />
<path d="M123.8,764.8l12.2,0" class="g1_143" />
<text 
x="123" 
y="72" 
dx="0,0" 
class="s1_143"
>C </text>

<text 
x="416" 
y="77" 
dx="0,0,0,0,0,0,0,0,0,0,0" 
class="s2_143"
>What a deal</text>

<text 
x="161" 
y="134" 
dx="0,-0.9,-0.4,0,0,0,0,0,0,-0.9,0,0,0,0,0,0,0,0,0,0,-0.1,-0.1,0,0,0,0,0,0,0,0,0,0,0,0,0,-0.2,0,0,0,0,0,0,0,0,0,0,0,0,0,0,0,0,0,0,0,-0.8,0,0,0,0,0,0,0,0,0,0,0,0,0,0,0,0,-0.2,0,0,0,0,0,0,0,-0.4,0,0,0,0,0,0,0,0,0,-0.8,0,0,0,0,0,0,0,0,0" 
class="s3_143"
>Everyone’s on a budget. In pairs, role-play a seller (Person A) and a prospective buyer (Person B). </text>

<text 
x="161" 
y="157" 
dx="0,0,0,0,0,0,0,0,0,0,0,0,0,0,0,0,0,-0.1,0,0,0,0,0,0,0,0,-0.1,0,0,0,0,0,0,0,0,0,0,0,0,0,0,0,0,0,0,0,-0.3,-0.4,0,0,0,0,0,0,0,0,-0.2,0,0,0,0,0,0,0,0,0,0,0,0,0,0,0,0,0,0,0,0,0,0,-0.2,0,-0.3,0,-0.2,0,0,0,0,0,0,0" 
class="s3_143"
>Based on the images, engage in some haggling over how steep a discount can be offered, and </text>

<text 
x="161" 
y="180" 
dx="0,0,0,0,0,0,0,0,0,0,0,0,0,0,0,0,0,0,-0.4,0,0,0,0,0,0,0,0,0,0,0,0,0,0" 
class="s3_143"
>see if you can make a deal, e.g.:</text>

<text 
x="254" 
y="234" 
dx="0,0.2,0.2,0.2,0.2,0.2,0.2,0.2,0.2" 
class="s4_143"
>Person A </text>

<text 
x="372" 
y="234" 
dx="0,0,0,0,0,0,0,0,0,0,0" 
class="s5_143"
>这个冰箱多少钱你才买？</text>

<text 
x="373" 
y="274" 
dx="0,0,0,0,0,0,0,0,0,0,0" 
class="s6_143"
>這個冰箱多少錢你才買？</text>

<text 
x="254" 
y="322" 
dx="0,0.2,0.2,0.2,0.2,0.2,0.2,0.2,0.2" 
class="s4_143"
>Person B </text>

<text 
x="372" 
y="322" 
dx="0,0,0,0,0" 
class="s5_143"
>这个冰箱打</text>

<text 
x="554" 
y="322" 
dx="0,0,0,0,0" 
class="s5_143"
>折我才买。</text>

<text 
x="373" 
y="362" 
dx="0,0,0,0,0" 
class="s6_143"
>這個冰箱打</text>

<text 
x="555" 
y="362" 
dx="0,0,0,0,0" 
class="s6_143"
>折我才買。</text>

<text 
x="254" 
y="410" 
dx="0,0.2,0.2,0.2,0.2,0.2,0.2,0.2,0.2" 
class="s4_143"
>Person A </text>

<text 
x="372" 
y="410" 
dx="0,0" 
class="s5_143"
>打了</text>

<text 
x="476" 
y="410" 
dx="0,0,0" 
class="s5_143"
>折，是</text>

<text 
x="632" 
y="410" 
dx="0,0,0,0,0,0,0" 
class="s5_143"
>钱。好，卖了。</text>

<text 
x="373" 
y="450" 
dx="0,0" 
class="s6_143"
>打了</text>

<text 
x="477" 
y="450" 
dx="0,0,0" 
class="s6_143"
>折，是</text>

<text 
x="633" 
y="450" 
dx="0,0,0,0,0,0,0" 
class="s6_143"
>錢。好，賣了。</text>

<text 
x="161" 
y="540" 
dx="0" 
class="s4_143"
>1</text>

<path d="M221.4,557.7l66.8,-4.5l0,-4.3l-67.1,3.9Z" class="g3_143" />
<path d="M222.2,565l-0.1,-7.4l61.8,-4.1l0,6.8Z" class="g4_143" />
<path d="M252.5,511.7l-16.4,0.6c-0.3,0,-0.5,-0.2,-0.6,-0.5c0,-0.3,0.3,-0.5,0.5,-0.5l16.5,-0.6c0.2,0,0.5,0.2,0.5,0.5c0,0.3,-0.2,0.5,-0.5,0.5M266.9,509l-46.5,0.6l0.1,16.5l46.8,-1Z" class="g4_143" />
<g clip-path="url(#c0_143)">
<path d="M266.9,507.9l-0.1,-2.8l-46.5,0.7l0,2.8l4.4,0l0.1,0l0,6.8l2.8,0l0,-6.8L260.7,508l0,6.6l2.4,0l0,-6.7Z" class="g3_143" />
</g>
<path d="M220.4,560.4l1.8,4.6l-0.1,-7.4l-2.2,0.1Z" class="g4_143" />
<path d="M219.6,568.6c0,0,-2.4,-6.9,-2.7,-8.5c-0.3,-1.6,-2.5,-6.9,-2.3,-7.8c0.3,-0.9,2.1,-7.9,2.5,-8.2c0.3,-0.4,0.2,-18.7,3.5,-18.7c3.3,0,46.6,-1.9,46.6,-1.9c0,0,17.6,9.4,18.7,10.2c1.1,0.9,2.8,2.4,4,5.9c1.3,3.5,1.8,7.3,1.9,11.8c0.2,4.6,0.6,7.6,0.6,7.6c0,0,-2.3,-5.6,-2.3,-6.5c0,-0.8,-1.3,-0.6,-2.3,-0.4c-1,0.2,-3.5,0.2,-4.9,0c-1.5,-0.2,-5.6,1,-9.4,0.3c-3.9,-0.6,-32.6,2.7,-34.1,2.5c-1.5,-0.3,-1.6,0.1,-2.9,0c-1.2,-0.1,-2.1,-0.2,-2.6,-0.1c-0.5,0.1,-1.5,0.1,-2.9,0.2c-1.3,0,-2.8,0.2,-4.1,0.1c-1.3,-0.1,-2.9,-0.2,-3.5,-0.2c-0.6,0,0.1,0,-0.5,1.2c-0.6,1.3,-1.4,6.9,-1.6,7.8c-0.3,1,-1.9,4,-1.7,4.7Z" class="g5_143" />
<path d="M290.6,552.2c0,0,0.5,-4.2,0,-6.6c-0.5,-2.3,-2.4,-5.8,-2.5,-6.5c-0.1,-0.7,-0.1,5.2,0.4,6.5c0.5,1.2,-0.2,3.7,0.3,4.6c0.5,0.8,1.8,2,1.8,2Z" class="g6_143" />
<path d="M233,516.5c0.1,1,0.6,0.6,1.1,2.5c1,4.5,3.8,7.8,3.9,8.7c0.1,0.9,5.2,0,8,-0.4c2.8,-0.5,14.2,-2.1,15.5,-2c1.3,0.2,1.4,-0.1,0.2,-1.6c-1.2,-1.5,-4.1,-6.1,-4,-8c0.1,-2,-0.7,-2,-1.7,-1.8c-0.9,0.1,-12.6,0.4,-19.9,2c-1.1,0.3,-3.2,-0.4,-3.1,0.6Z" class="g7_143" />
<path d="M235.3,519.9c0,0,2.7,6.9,3.6,7.3c0.8,0.4,5.6,-0.4,8.4,-1.1c1.3,-0.3,7.3,-0.2,7.2,-1.4c-0.1,-1.8,-3.9,-1.3,-5.8,-1c-2,0.2,-3.9,0.7,-4.4,-0.6c-0.4,-0.9,-3.2,0.2,-3.8,-1.8c-0.5,-1.9,-4.3,-4.5,-4.9,-3.4c-0.5,1.2,-0.6,1.1,-0.3,2Z" class="g8_143" />
<path d="M234.4,541.2c0,-0.5,51.6,-3.9,51.6,-3.9c0,0,-1.1,2.6,-0.4,4.2c-2.1,0.2,0.4,-4.2,-8.9,-2.4c-3.4,0.7,-25.6,1.3,-29.4,2.1c-3.7,0.7,-12.8,1.3,-12.9,0Z" class="g6_143" />
<path d="M237.9,545.4c0,12.8,-10.9,23.1,-24.2,23.1c-13.4,0,-24.3,-10.3,-24.3,-23.1c0,-12.7,10.9,-23,24.3,-23c13.3,0,24.2,10.3,24.2,23Z" class="g9_143" />
<path d="M237.9,545.4c0,12.8,-10.9,23.1,-24.2,23.1c-13.4,0,-24.3,-10.3,-24.3,-23.1c0,-12.7,10.9,-23,24.3,-23c13.3,0,24.2,10.3,24.2,23Z" class="g10_143" />
<text 
x="194" 
y="548" 
dx="0" 
class="s7_143"
>$</text>

<text 
x="202" 
y="548" 
dx="0,0,0" 
class="s8_143"
>500</text>

<text 
x="427" 
y="540" 
dx="0" 
class="s4_143"
>2</text>

<path d="M536.6,488.1l-44.9,7.6l0,80.8l44.9,8.3Z" class="g11_143" />
<path d="M514.3,493.2L536,489.5l0,93.8l-21.7,-3.9Z" class="g12_143" />
<path d="M492.9,496.7l21.4,-3.5l0,86.2L492.9,576Z" class="g12_143" />
<path d="M514.3,579.4l0,-86.2" class="g13_143" />
<path d="M495.6,499.7l14.9,-2.3l0,77.7l-14.9,-2.5Z" class="g14_143" />
<path d="M498.4,508.5l8.3,-7.9" class="g15_143" />
<path d="M497.7,511.4l8.3,-7.9" class="g15_143" />
<path d="M500.7,567.2l8.4,-7.9" class="g15_143" />
<path d="M500,570l8.4,-7.9" class="g15_143" />
<path d="M536.6,488.1l0,96.7l12,-3.2l0,-89.6Z" class="g16_143" />
<path d="M518.2,532.6c0,0.6,-0.5,1.1,-1.1,1.1c-0.7,0,-1.2,-0.5,-1.2,-1.1c0,-0.6,0.5,-1.2,1.2,-1.2c0.6,0,1.1,0.6,1.1,1.2Z" class="g17_143" />
<path d="M517.9,532.4c0,0.7,-0.5,1.2,-1.1,1.2c-0.7,0,-1.2,-0.5,-1.2,-1.2c0,-0.6,0.5,-1.1,1.2,-1.1c0.6,0,1.1,0.5,1.1,1.1Z" class="g18_143" />
<path d="M513.4,532.6c0,0.6,-0.5,1.1,-1.1,1.1c-0.6,0,-1.1,-0.5,-1.1,-1.1c0,-0.6,0.5,-1.2,1.1,-1.2c0.6,0,1.1,0.6,1.1,1.2Z" class="g17_143" />
<path d="M513.1,532.4c0,0.7,-0.5,1.2,-1.1,1.2c-0.6,0,-1.2,-0.5,-1.2,-1.2c0,-0.6,0.6,-1.1,1.2,-1.1c0.6,0,1.1,0.5,1.1,1.1Z" class="g18_143" />
<path d="M505.8,526.6c0,12.7,-10.8,23.1,-24.2,23.1c-13.4,0,-24.3,-10.4,-24.3,-23.1c0,-12.7,10.9,-23.1,24.3,-23.1c13.4,0,24.2,10.4,24.2,23.1Z" class="g9_143" />
<path d="M505.8,526.6c0,12.7,-10.8,23.1,-24.2,23.1c-13.4,0,-24.3,-10.4,-24.3,-23.1c0,-12.7,10.9,-23.1,24.3,-23.1c13.4,0,24.2,10.4,24.2,23.1Z" class="g10_143" />
<text 
x="462" 
y="532" 
dx="0" 
class="s9_143"
>$</text>

<text 
x="470" 
y="532" 
dx="0,0,0" 
class="s10_143"
>300</text>

<text 
x="669" 
y="540" 
dx="0" 
class="s4_143"
>3</text>

<path d="M734,558l0,-55.7l39.8,1.2l0,59.5Z" class="g19_143" />
<path d="M728.5,563.5L734,558l0,-55.7L728.3,502Z" class="g20_143" />
<path d="M773.8,563L734,558l-5.5,5.5l45.3,6.1Z" class="g21_143" />
<path d="M728.5,543.9L734,540l39.8,3.7l0,4.7Z" class="g21_143" />
<path d="M773.8,517.5l-45.4,-2.4L728.3,502l45.5,1.5Zm0,15.4l-45.4,-3.4l0.1,-13.2l45.3,2.4Zm0,15.5l-45.3,-4.5l0,-13.1l45.3,3.3Zm0,21.2l-45.3,-6.1l0,-18.2l45.3,4.5Zm2,-67.6l-49.4,-1.3l-0.1,63.9l49.8,6.5Z" class="g22_143" />
<path d="M728.4,529.5l5.6,-3l39.7,2.9l0.1,3.5Z" class="g21_143" />
<path d="M728.4,515.1l5.7,-2.1l39.6,1.8l0.1,2.7Z" class="g21_143" />
<path d="M775.8,502l0,69.1l3.8,-6.6l0,-64Z" class="g20_143" />
<path d="M732.8,497.4l-7.2,1.1l50.5,1.4l4.1,-1.4Z" class="g21_143" />
<g clip-path="url(#c1_143)">
<path d="M726.4,500.7c0,0,-2.1,-2.1,-0.8,-2.2c1.3,-0.2,50.5,1.4,50.5,1.4l4.1,-1.4c0,0,1.1,-0.2,-0.6,2c-0.1,0.2,-3.8,1.5,-3.8,1.5Z" class="g19_143" />
</g>
<path d="M726.3,563.8c0,0,-1,0.6,-1,0.9c0,0.3,0.6,0.7,0.4,1.2c-0.2,0.6,-0.5,1.4,-0.4,2.6c0.2,0.2,51.1,7.1,51.1,7.1c0,0,0.1,-3.2,-0.2,-3.3c-0.2,-0.2,0.5,-0.7,-0.4,-1.2c-0.8,-0.5,-49.5,-6.5,-49.5,-6.5Z" class="g19_143" />
<path d="M780.4,568.4c0,0,0,-2.3,-0.3,-2.6c0.3,-0.6,0.4,-1.4,-0.5,-1.3c0.1,-0.1,-3.8,6.6,-3.8,6.6c0,0,0.7,0.1,0.4,1.1c0.2,0.9,0.2,3.4,0.2,3.4Z" class="g20_143" />
<path d="M744.3,544.1c0,11.9,-10.2,21.5,-22.7,21.5C709.1,565.6,699,556,699,544.1c0,-12,10.1,-21.6,22.6,-21.6c12.5,0,22.7,9.6,22.7,21.6Z" class="g9_143" />
<path d="M744.3,544.1c0,11.9,-10.2,21.5,-22.7,21.5C709.1,565.6,699,556,699,544.1c0,-12,10.1,-21.6,22.6,-21.6c12.5,0,22.7,9.6,22.7,21.6Z" class="g23_143" />
<text 
x="703" 
y="549" 
dx="0" 
class="s11_143"
>$</text>

<text 
x="711" 
y="549" 
dx="0,0,0" 
class="s12_143"
>100</text>

<text 
x="161" 
y="645" 
dx="0" 
class="s4_143"
>4</text>

<path d="M232,662.8c0,0,-0.1,-46.6,-0.1,-47.2c0.1,-0.6,-0.3,-2.5,2.4,-2.5c2.1,0,28.2,-0.4,36.5,-0.4c8.2,0,33.1,0.2,36.4,0.3c3.2,0.1,2.8,1.5,2.8,3.4l0,46.3l-5.6,0l-0.3,-0.9l-3.3,0.1l0.2,0.6l-60,0.2l0,-1l-3.2,0l-0.1,0.9Z" class="g24_143" />
<path d="M235.6,617.2l-0.2,39.7l70.8,0L306.4,617Z" class="g25_143" />
<path d="M271.9,615c0,0.5,-0.4,0.9,-0.9,0.9c-0.6,0,-1,-0.4,-1,-0.9c0,-0.6,0.4,-1,1,-1c0.5,0,0.9,0.4,0.9,1Z" class="g26_143" />
<path d="M271.9,615c0,0.5,-0.4,0.9,-0.9,0.9c-0.6,0,-1,-0.4,-1,-0.9c0,-0.6,0.4,-1,1,-1c0.5,0,0.9,0.4,0.9,1Z" class="g27_143" />
<g clip-path="url(#c2_143)">
<path d="M221.3,672.2c0,0,6.2,0.8,18.3,0.8c12.2,0.1,70.2,0.1,70.2,0.1c0,0,9.8,0.1,11.5,-1.9c-7.5,-0.7,-100.7,0,-100.7,0c0,0,0.2,0.7,0.7,1Z" class="g24_143" />
<path d="M232,662.8l-11.5,8.4c0,0,0.3,0.5,1.6,0.5c1.2,0.1,98.1,0,98.3,0c0.2,0,1.1,-0.4,1.1,-0.4L310,662.7l-5.6,0l-0.3,-0.9l-3.3,0.1l0.2,0.6l-60,0.2l0,-1l-3.2,0l-0.1,0.9Z" class="g28_143" />
</g>
<image preserveAspectRatio="none" x="229" y="665" width="83" height="3" opacity="0.419998" style="mix-blend-mode: multiply;" xlink:href="143/img/1.png" />
<image preserveAspectRatio="none" x="257" y="669" width="27" height="3" opacity="0.419998" style="mix-blend-mode: multiply;" xlink:href="143/img/2.png" />
<text 
x="237" 
y="645" 
dx="0,-0.6,-0.6" 
class="s13_143"
>www</text>

<path d="M243.2,639.2c0,13.4,-11.5,24.2,-25.5,24.2c-14.1,0,-25.5,-10.8,-25.5,-24.2c0,-13.4,11.4,-24.2,25.5,-24.2c14,0,25.5,10.8,25.5,24.2Z" class="g9_143" />
<path d="M243.2,639.2c0,13.4,-11.5,24.2,-25.5,24.2c-14.1,0,-25.5,-10.8,-25.5,-24.2c0,-13.4,11.4,-24.2,25.5,-24.2c14,0,25.5,10.8,25.5,24.2Z" class="g29_143" />
<text 
x="194" 
y="645" 
dx="0" 
class="s14_143"
>$</text>

<text 
x="203" 
y="645" 
dx="0,0,0,0" 
class="s15_143"
>1000</text>

<text 
x="427" 
y="645" 
dx="0" 
class="s4_143"
>5</text>

<g clip-path="url(#c3_143)">
<path d="M499.8,599.5c0,0,4.9,-0.8,12.6,-0.9c7.6,-0.1,17.3,0.8,17.3,0.8c0,0,-7.2,1.6,-13.6,1.6c-5.7,0,-9.8,0.2,-16.3,-1.5Z" class="g30_143" />
<path d="M514.9,619.5c0,0,-1.1,6.1,-1.3,7.5c-0.2,1.4,-5.1,56.5,-5.1,56.5l-13.1,-0.4c0,0,2.2,-45.4,2.2,-47.7c0,-2.2,2.3,-31.9,2.3,-32.8c0,-0.9,3.1,1.6,15,1c11.8,-0.7,14.8,-1.1,14.8,-1.1c0,0,2.7,31.1,3.1,37.3c0.3,6.1,1.7,43.2,1.7,43.2l-13.2,0.7c0,0,-2.2,-31.6,-2.6,-34.8c-0.3,-3.2,-3,-27.6,-3.8,-29.4Z" class="g5_143" />
</g>
<path d="M523.1,603.5c0,0,-0.6,4.6,7.1,2.9" class="g31_143" />
<path d="M514.8,601.3l0,15.4" class="g32_143" />
<path d="M517.2,603.7c0,0,0,0.1,0.1,0.4" class="g33_143" />
<path d="M517.3,604.9c0.1,2.6,0.2,8.2,-0.5,9.4c-0.4,0.8,-0.8,1.3,-1.2,1.7" class="g34_143" />
<path d="M515.3,616.2c-0.2,0.2,-0.3,0.3,-0.3,0.3" class="g33_143" />
<path d="M506.9,603.5c0,0,0.5,4.6,-7.1,2.9" class="g31_143" />
<path d="M499.9,602.6l-0.1,-3.1c0,0,8.5,1.3,15,1c6.4,-0.2,14.9,-1.1,14.9,-1.1l0,3.1c0,0,-7.1,1.2,-12.2,1.1c-5.2,-0.1,-9.4,0.8,-17.6,-1Z" class="g6_143" />
<path d="M508.5,604c-0.3,0,-0.5,-0.2,-0.5,-0.5l0,-2.7c0,-0.3,0.2,-0.5,0.5,-0.5c0.2,0,0.4,0.2,0.4,0.5l0,2.7c0,0.3,-0.2,0.5,-0.4,0.5Z" class="g35_143" />
<path d="M521.5,603.8c-0.2,0,-0.4,-0.2,-0.4,-0.5l0,-2.7c0,-0.3,0.2,-0.5,0.4,-0.5c0.3,0,0.5,0.2,0.5,0.5l0,2.7c0,0.3,-0.2,0.5,-0.5,0.5Z" class="g35_143" />
<path d="M517.2,602.2c0,0.4,-0.3,0.8,-0.8,0.8c-0.5,0,-0.9,-0.4,-0.9,-0.8c0,-0.5,0.4,-0.9,0.9,-0.9c0.5,0,0.8,0.4,0.8,0.9Z" class="g9_143" />
<path d="M499.8,649.9c0,11,-9.4,19.9,-20.9,19.9c-11.6,0,-21,-8.9,-21,-19.9c0,-11,9.4,-19.9,21,-19.9c11.5,0,20.9,8.9,20.9,19.9Z" class="g9_143" />
<path d="M499.8,649.9c0,11,-9.4,19.9,-20.9,19.9c-11.6,0,-21,-8.9,-21,-19.9c0,-11,9.4,-19.9,21,-19.9c11.5,0,20.9,8.9,20.9,19.9Z" class="g36_143" />
<text 
x="464" 
y="654" 
dx="0" 
class="s16_143"
>$</text>

<text 
x="472" 
y="654" 
dx="0,0" 
class="s17_143"
>50</text>

<text 
x="669" 
y="645" 
dx="0" 
class="s4_143"
>6</text>

<path d="M733.6,648.1c0.2,0,2.7,-0.4,4.1,0.6c1.5,1,2.6,3,3.2,3.2c0.7,0.1,0.1,-2,-0.7,-3.2c-0.9,-1.1,-2.7,-5,-3.1,-7.6c-0.4,-2.7,-1.2,-12.6,-1.2,-13.7c0,-1.1,1.3,5.5,1.5,7.4c0.3,1.9,1.6,9.5,2.2,9.9c0.6,0.4,0.9,-1.4,1.3,-3.6c0.5,-2.1,0.7,-5.4,1.1,-5.3c0.5,0,0,2.5,0.6,2.9c0.5,0.5,1.7,-3,2.5,-4.1c0,1.5,-0.2,4,-0.2,4c0,0,-0.8,1.7,-1.6,3.8c-0.8,2.1,-1.9,7.4,-1.9,7.4c0,0,1,1.5,1,2.3c0,0.8,0.3,3.6,0,3.7c-0.2,0,-1.1,0,-1.4,-0.7c-0.3,-0.8,-0.8,-3,-2,-4.2c-1.3,-1.2,-4.9,-2.3,-6.4,-2.3c-1.6,0,-2.2,-1.8,-2.1,-3.4c0.1,-1.6,0.4,-2,0.5,-1.7c0.2,0.3,-0.7,5,2.6,4.6Z" class="g37_143" />
<path d="M745.9,680.5c0,0,0.7,-0.6,0.8,-1.3c0.2,-0.7,0.3,-4.2,0,-5.7c-0.3,-1.5,-3.3,-12.7,-3.6,-14.4c-0.3,-1.6,-0.7,-2.9,-0.7,-3.3c0,-0.5,0.3,-3.4,-0.3,-4.5c-0.5,-1.1,-0.7,-1.5,-0.7,-1.5c0,0,1.3,-5.8,1.9,-7.4c0.5,-1.6,1.6,-3.8,1.6,-3.8c0,0,2.1,-13.9,1.5,-17.7c-0.6,-3.8,-7.6,-8,-7.6,-8c0,0,-1.7,1.9,-2.5,4c-0.9,2.1,-7.6,25.7,-7.9,27c-0.2,1.2,-0.3,3.6,0.2,6.7c0.5,3.1,3.4,16.8,3.6,18c0.1,1.1,0.1,2.5,1.1,4.3c1,1.9,0.5,2.6,0.8,4.2c0.4,1.6,1.8,3.5,2,3.7c0.2,0.3,1.9,-1.7,5.3,-2c3.5,-0.3,4.8,0.9,4.5,1.7Z" class="g38_143" />
<path d="M780.2,664.2c0,0,0.3,-1.4,1.4,-3.1c1.1,-1.6,0.2,-5.5,0.6,-6.1c0.4,-0.6,1.1,-1.8,2.6,-2c1.5,-0.1,2.5,0.2,4.2,-1.6c1.7,-1.8,4.6,-3.9,3.9,-4.7c-0.7,-0.8,-2.5,0.8,-3.6,1.8c-1.1,1,-2.5,1.8,-3.4,2.3c-1,0.4,-3.4,2.1,-4.1,2.6c-0.7,0.6,0.4,-1.5,1.8,-3c1.4,-1.5,3.6,-6.8,3.6,-7.9c0,-1.1,-1.2,-9.7,-1.6,-11.5c-0.3,-1.8,1.4,10.4,0.3,12.4c-1.2,2,-1.3,4.3,-2.5,5.4c-1.3,1.1,-2.8,4.2,-2.8,4.2c0,0,-1.5,3.1,-0.2,3.9c-0.9,1.3,0,2.1,-0.1,2.6c0,0.5,0.2,2.1,-0.6,3.3c-0.4,0.5,0.5,1.4,0.5,1.4Z" class="g37_143" />
<g clip-path="url(#c4_143)">
<path d="M778.8,679.7c0,0,-0.7,-1.3,-0.5,-2.7c0.2,-1.4,0.5,-3,0.5,-4.3c0,-1.2,0.3,-8.9,0.9,-9.9c0.6,-1,0.7,-2.5,0.6,-3.3c0,-0.8,-0.7,-1.7,0.1,-2.6c-1.4,-1,0.2,-3.9,0.2,-3.9c0,0,-0.3,-1.9,-0.5,-3.4c-0.2,-1.5,-0.5,-2.2,-0.9,-3.3c-0.4,-1.1,-0.6,-2.1,-0.5,-2.9c0.1,-0.8,-0.5,-2.3,-0.5,-2.3c0,0,1,-10,0.7,-13.2c-0.3,-3.1,2.6,-16.1,5.2,-15.4c1.8,1.3,4.7,12.5,5.1,15.8c0.3,3.2,2.6,12.4,3.6,14.3c0.9,1.8,1.4,3.3,1.4,5.2c0.1,1.9,-1.9,9,-1.8,12.4c0,3.5,-0.9,5.1,-1.1,6.9c-0.3,1.8,-2.3,9.1,-2.5,11.2c-0.3,2.2,-1.4,3,-1.4,3c0,0,-0.6,-2.1,-3.9,-2.4c-3.2,-0.3,-4.5,-1.1,-4.7,0.8Z" class="g38_143" />
</g>
<path d="M751.7,601.9c0,0,0.9,2.8,3.2,3.5c2.2,0.8,5.1,-0.4,5.7,-0.3c0.5,0.1,0.7,-0.1,0.7,0.8c0,0.9,-0.3,8,-0.2,8.3c0.1,0.3,0.6,1.9,0.9,9.3c0.2,7.4,-0.3,20.1,-0.2,22.3c0.1,2.1,0.2,8.9,0.2,9.8c0.1,0.9,0.4,11.6,0.4,13.7c0.1,2,0,9.1,0,9.1c0,0,-1.6,0.2,-3.2,0.1c-1.5,-0.1,-6.8,0.2,-7.8,0.2c-1,0,-4.4,-0.1,-5.1,-0.4c-0.7,-0.2,-3,-0.2,-2.9,-1.1c0.2,-0.8,0,-12.6,0.6,-14.1c0.5,-1.5,0.5,-9.1,1,-10.9c0.5,-1.8,0.1,-3,-0.5,-4c-0.5,-1,-0.1,-1.8,0,-2.5c0,-0.7,0.6,-7.5,0.6,-11.1c0,-3.6,-1.1,-12.8,-2.7,-16.1c-1.7,-3.3,-2.2,-3.1,-2.6,-3.8c-0.4,-0.6,-1,-1.8,-1,-1.8c0,0,4.2,-2.5,7.8,-3c3.6,-0.9,5.4,-1.5,5.4,-1.5Z" class="g7_143" />
<path d="M751.7,601.9c0,0,0.9,2.8,3.2,3.5c2.2,0.8,5.1,-0.4,5.7,-0.3c0.5,0.1,0.7,-0.1,0.7,0.8c0,0.9,-0.3,8,-0.2,8.3c0.1,0.3,0.6,1.9,0.9,9.3c0.2,7.4,-0.3,20.1,-0.2,22.3c0.1,2.1,0.2,8.9,0.2,9.8c0.1,0.9,0.4,11.6,0.4,13.7c0.1,2,0,9.1,0,9.1c0,0,-1.6,0.2,-3.2,0.1c-1.5,-0.1,-6.8,0.2,-7.8,0.2c-1,0,-4.4,-0.1,-5.1,-0.4c-0.7,-0.2,-3,-0.2,-2.9,-1.1c0.2,-0.8,0,-12.6,0.6,-14.1c0.5,-1.5,0.5,-9.1,1,-10.9c0.5,-1.8,0.1,-3,-0.5,-4c-0.5,-1,-0.1,-1.8,0,-2.5c0,-0.7,0.6,-7.5,0.6,-11.1c0,-3.6,-1.1,-12.8,-2.7,-16.1c-1.7,-3.3,-2.2,-3.1,-2.6,-3.8c-0.4,-0.6,-1,-1.8,-1,-1.8c0,0,4.2,-2.5,7.8,-3c3.6,-0.9,5.4,-1.5,5.4,-1.5l-0.3,-6.5Z" class="g39_143" />
<path d="M772,614.1c0,0,-2.7,-0.5,-5,-0.5c-2.4,-0.1,-3.5,-0.4,-4.1,0.5c-0.6,0.9,-1.5,3,-1.3,3.7c0.1,0.7,0.1,60.3,0.8,60.6c0.6,0.3,3.9,-0.1,5,0c1.1,0.1,3.6,0.2,5.5,0.2c2,0,4.6,0.1,6.1,-0.6c1.5,-0.6,2.2,-1,2.3,-1.2c0.2,-0.3,-1.5,-7.9,-1.8,-10c-0.2,-2.1,-0.1,-3.8,-0.3,-4.6c-0.1,-0.7,-1.5,-6,-1.7,-8.2c-0.1,-2.3,0.1,-6.1,0.4,-7.9c0.2,-1.4,-0.3,-2.8,0.3,-5c0.6,-2.1,1,-7.1,1,-8.1c-0.1,-1,1,-2,1.4,-5.3c0.4,-3.3,0.4,-8.4,2.2,-13.4c0.8,-0.6,1.3,-1.8,1.3,-1.8c0,0,-0.7,-1.4,-4.2,-2.3c-3.4,-0.9,-7.8,-1.7,-7.8,-1.7Z" class="g40_143" />
<path d="M772,614.1c0,0,-2.7,-0.5,-5,-0.5c-2.4,-0.1,-3.5,-0.4,-4.1,0.5c-0.6,0.9,-1.5,3,-1.3,3.7c0.1,0.7,0.1,60.3,0.8,60.6c0.6,0.3,3.9,-0.1,5,0c1.1,0.1,3.6,0.2,5.5,0.2c2,0,4.6,0.1,6.1,-0.6c1.5,-0.6,2.2,-1,2.3,-1.2c0.2,-0.3,-1.5,-7.9,-1.8,-10c-0.2,-2.1,-0.1,-3.8,-0.3,-4.6c-0.1,-0.7,-1.5,-6,-1.7,-8.2c-0.1,-2.3,0.1,-6.1,0.4,-7.9c0.2,-1.4,-0.3,-2.8,0.3,-5c0.6,-2.1,1,-7.1,1,-8.1c-0.1,-1,1,-2,1.4,-5.3c0.4,-3.3,0.4,-8.4,2.2,-13.4c0.8,-0.6,1.3,-1.8,1.3,-1.8c0,0,-0.7,-1.4,-4.2,-2.3c-3.4,-0.9,-7.8,-1.7,-7.8,-1.7l-0.1,5.6Z" class="g39_143" />
<g clip-path="url(#c4_143)">
<path d="M736.1,680.8c0,0,0.2,0.9,2.4,1.4c2.3,0.6,7.6,-0.1,7.4,-1.7c-0.1,-1.7,-2.3,-1.8,-4.5,-1.7c-2.2,0.2,-4.8,1.5,-5.3,2Z" class="g41_143" />
<path d="M782.3,681.9c0.6,0.4,1,0.7,2.2,0.6c1.1,-0.1,2.5,-0.1,2.9,-1.2c0.3,-1.1,-1.1,-2.1,-2.6,-2.5c-1.5,-0.4,-2.8,-0.6,-3.8,-0.7c-1.1,-0.1,-2.7,0.2,-2.2,1.6c0.4,1.4,1.7,1.8,2.3,1.8c0.6,0.1,1.2,0.4,1.2,0.4Z" class="g41_143" />
<path d="M764.5,611.8c0,0,0.7,-2.7,0.2,-4c-0.5,-1.4,-2.3,-2.4,-3.5,-2.4c-1.2,-0.1,-2.6,1.3,-4.5,1.3c-2,0,-5.8,-3.1,-5.1,-5.3c0.8,-2.3,1.8,-3.1,4,-3.8c2.2,-0.7,11.9,-0.8,13.9,0.6c1.9,1.3,2.2,5.6,2.2,6.9c0.1,1.3,1.2,6.3,0.5,9.3c-6.2,0,-9.2,-2,-9.8,0.6c-1.8,3.1,0.5,-1.4,2.1,-3.2Z" class="g42_143" />
<path d="M764.5,611.8c0,0,0.7,-2.7,0.2,-4c-0.5,-1.4,-2.3,-2.4,-3.5,-2.4c-1.2,-0.1,-2.6,1.3,-4.5,1.3c-2,0,-5.8,-3.1,-5.1,-5.3c0.8,-2.3,1.8,-3.1,4,-3.8c2.2,-0.7,11.9,-0.8,13.9,0.6c1.9,1.3,2.2,5.6,2.2,6.9c0.1,1.3,1.2,6.3,0.5,9.3c-6.2,0,-9.2,-2,-9.8,0.6c-1.8,3.1,0.5,-1.4,2.1,-3.2Z" class="g39_143" />
</g>
<path d="M767.5,607L764,606.7c0,0,0.8,0.8,0.8,1.7c0,0.8,-0.2,3.4,-0.2,3.4c0,0,3.5,-4.1,2.9,-4.8Z" class="g41_143" />
<path d="M761.5,617c0,0,1,-3,3,-5.2c0.7,-2.5,0.5,-4.3,-0.6,-5.2c-1.1,-0.9,-2.4,-1.2,-3,-1.2c0.2,1.3,-0.5,10,0.6,11.6Z" class="g43_143" />
<path d="M746.7,679.2c0,0,0.5,-1.2,-0.1,-4.1c-0.5,-2.8,-2.5,-12.2,-2.7,-12.5c-0.2,-0.4,-4.4,4.2,-4.4,4.5c0,0.3,2.8,10.5,2.8,10.5Z" class="g7_143" />
<path d="M779.4,664c0,0,-0.6,4.3,-0.4,6.1c0.4,3.6,-1.3,7.9,-0.2,9.7c-0.6,-2.4,2.7,-2,2.7,-2c0,0,1.3,-0.2,1.4,-1.2C783,675.7,779.4,664,779.4,664Z" class="g7_143" />
<path d="M741,630.1c0,11,-9.3,19.9,-20.9,19.9c-11.6,0,-20.9,-8.9,-20.9,-19.9c0,-11,9.3,-19.9,20.9,-19.9c11.6,0,20.9,8.9,20.9,19.9Z" class="g9_143" />
<path d="M741,630.1c0,11,-9.3,19.9,-20.9,19.9c-11.6,0,-20.9,-8.9,-20.9,-19.9c0,-11,9.3,-19.9,20.9,-19.9c11.6,0,20.9,8.9,20.9,19.9Z" class="g36_143" />
<text 
x="705" 
y="634" 
dx="0" 
class="s18_143"
>$</text>

<text 
x="713" 
y="634" 
dx="0,0" 
class="s19_143"
>40</text>

<path d="M745.9,680.3c0,0,0.7,-0.6,0.8,-1.3c0.2,-0.7,0.3,-4.2,0,-5.7c-0.3,-1.4,-3.3,-12.7,-3.6,-14.3c-0.3,-1.7,-0.7,-2.9,-0.7,-3.4" class="g44_143" />
<path d="M778.8,679.8c0,0,-0.6,-1.2,-0.5,-2.6c0.2,-1.4,0.6,-3.1,0.6,-4.3c0,-1.3,0.2,-8.9,0.9,-10c0.6,-1,0.7,-2.5,0.6,-3.2" class="g44_143" />
<path d="M767.7,606.3c0.2,-0.2,0.8,-1.1,0.5,-1.4c-0.3,-0.3,-1.2,-0.1,-1.2,-1c-0.1,-0.8,0.4,-1.4,0.4,-2.5c0,-1.2,0.5,-1,-0.9,-0.7c-1.4,0.2,-3.1,-2.1,-4.1,-0.9c-0.9,1.2,-1,2.7,-1.5,3.3c-0.6,0.5,-2.8,1.4,-2,-0.3c0.8,-1.7,3.2,-3.9,2,-4.4c-1.3,-0.5,-3.5,-0.6,-5.6,-0.2c-2,0.5,-4,2.9,-2.1,5c1.9,2,2.5,2,4.5,1.8c2.1,-0.1,3.6,-1.4,6.1,1.2c0.6,-0.5,3.9,0.1,3.9,0.1Z" class="g40_143" />
<text 
x="123" 
y="759" 
dx="0,0" 
class="s1_143"
>D </text>

<text 
x="383" 
y="763" 
dx="0,0,0,0,0,0,0,0,0,0,0,0,0,0,0,0,0,0" 
class="s2_143"
>Discerning shopper</text>

<text 
x="161" 
y="825" 
dx="0,-0.9,-0.4,0,0,0,0,0,0,0,0,0,0,0,0,0,0,-0.3,0,-0.2,0,0,0,0,0,0,0,0,0,0,0,0,0,0,0,0,0,0,0,0,0,0,0,0,0,0,0,0,0,0,-0.8,-0.2,0,0,0,0,0,0,0,0" 
class="s3_143"
>Everyone has different priorities when shopping. From among </text>

<text 
x="578" 
y="827" 
dx="0,0" 
class="s20_143"
>样子</text>

<text 
x="625" 
y="825" 
dx="0" 
class="s3_143"
>/</text>

<text 
x="630" 
y="827" 
dx="0,0" 
class="s21_143"
>樣子</text>

<text 
x="677" 
y="825" 
dx="0,0" 
class="s3_143"
>, </text>

<text 
x="683" 
y="827" 
dx="0,0" 
class="s20_143"
>颜色</text>

<text 
x="731" 
y="825" 
dx="0" 
class="s3_143"
>/</text>

<text 
x="736" 
y="827" 
dx="0,0" 
class="s21_143"
>顏色</text>

<text 
x="783" 
y="825" 
dx="0,0" 
class="s3_143"
>, </text>

<text 
x="161" 
y="854" 
dx="0,0" 
class="s20_143"
>大小</text>

<text 
x="209" 
y="852" 
dx="0,0" 
class="s3_143"
>, </text>

<text 
x="215" 
y="854" 
dx="0,0" 
class="s20_143"
>长短</text>

<text 
x="262" 
y="852" 
dx="0" 
class="s3_143"
>/</text>

<text 
x="267" 
y="854" 
dx="0,0" 
class="s21_143"
>長短</text>

<text 
x="315" 
y="852" 
dx="0,0" 
class="s3_143"
>, </text>

<text 
x="321" 
y="854" 
dx="0,0" 
class="s20_143"
>价钱</text>

<text 
x="368" 
y="852" 
dx="0" 
class="s3_143"
>/</text>

<text 
x="373" 
y="854" 
dx="0,0" 
class="s21_143"
>價錢</text>

<text 
x="421" 
y="852" 
dx="0,0" 
class="s3_143"
>, </text>

<text 
x="427" 
y="854" 
dx="0,0" 
class="s20_143"
>质量</text>

<text 
x="474" 
y="852" 
dx="0" 
class="s3_143"
>/</text>

<text 
x="479" 
y="854" 
dx="0,0" 
class="s21_143"
>質量</text>

<text 
x="526" 
y="852" 
dx="0,0,0,0,0,0" 
class="s3_143"
>, and </text>

<text 
x="561" 
y="854" 
dx="0,0" 
class="s20_143"
>牌子</text>

<text 
x="608" 
y="852" 
dx="0,0,0,0,0,0,0,0,0,0,0,0,0,-0.2,0,0,0,0,0,-0.4,0,0,0,0,0,-0.2,0,0,0,0" 
class="s3_143"
>, list your top five criteria </text>

<text 
x="161" 
y="875" 
dx="0,0,0,0,0,0,0,0,0,0,0,0,0,0,0,-0.3,0,0,0,0,0,-0.1,0,0,0,0,0,0,0,0,0,0,0,0,0,0,0,0,0,0,0,0,0,0,0,0,0,0,0,0,0,0,0,0,0,0,0,-0.2,0,0,0,0,0,0,0,0,0,0,0,0,0,0,0,0,0,0,0,0,0,0,0,-0.2,0,0,0,0,0,0,0,0,0,0,0" 
class="s3_143"
>when you shop for clothes, giving the most important criterion first. Then compare your list </text>

<text 
x="161" 
y="898" 
dx="0,0,0,0,0,0,0,0,0,0,0,-0.2,0,0,0,0,0,0,0,0,0,0,0,0,0,0,0,0,0,0,0,-0.3,0,0,0,0,0,0,0,0,0,0,0,0,0,0,0,0,0,0,0,0,0,-0.2,0,0,0,0,0,0,0,-0.1,0,0,0,-1.2,0,0,0,0,0,0,0,0,0,0,0,0,0,0,0,0,0,0,0,0,0,0,0,0,0,0,0,0" 
class="s3_143"
>with that of your partner and explain your rankings to each other. Report your rankings using </text>

<text 
x="161" 
y="927" 
dx="0,0,0,0,0,0,0,0,0,0,0" 
class="s20_143"
>第一…，第二…，第三…</text>

<text 
x="422" 
y="926" 
dx="0,0,0,-0.1,-0.2,0" 
class="s3_143"
>, etc.</text>

<path d="M151.2,41.8l0,53.5l0,0.8l0.8,0l676.9,0l0.7,0l0,-0.8l0,-53.5l0,-0.7l-0.7,0L152,41.1l-0.8,0l0,0.7Z" class="g45_143" />
<path d="M153.2,94l674.4,0l0,-50.9l-674.4,0l0,50.9Z" class="g46_143" />
<text 
x="728" 
y="73" 
dx="0,0,0,0,0,0,0,0,0,0,0,0,0" 
class="s22_143"
>INTERPERSONAL</text>

<path d="M724.5,76.7l90.8,0l0,-14.4l-90.8,0l0,14.4Z" class="g47_143" />
<path d="M234.2,239.4c-0.4,0,-35.9,-0.7,-35.9,-0.7l0,1.9l35.9,0.9Z" class="g48_143" />
<path d="M234.2,239.4c-0.4,0,-35.9,-0.7,-35.9,-0.7l0,1.9l35.9,0.9l0,-2.1Z" class="g49_143" />
<g clip-path="url(#c5_143)">
<path d="M234.3,211.6l7.2,2.2l-0.1,76.9c0,0,-6.3,8.4,-6.7,8.8c-0.5,0.5,-0.6,0.9,-3.4,0.6c-2.8,-0.2,-32.7,-3.5,-32.7,-3.5c0,0,0.5,-2,-0.6,-2.5c1.9,0.3,33,3,33,3l2.8,0Z" class="g50_143" />
</g>
<path d="M197.8,240.4l36.2,0.7c0.1,0,0.2,0.1,0.2,0.2l-0.4,55.6c0,0.1,-0.1,0.2,-0.2,0.2c-0.5,0,-1.9,-0.1,-2.6,0c-0.9,0.1,-33.3,-2.9,-33,-3c0.2,-0.1,-0.4,-0.1,-0.4,-1.4l0,-52.1c0,-0.1,0.1,-0.2,0.2,-0.2Z" class="g51_143" />
<path d="M197.8,212.1l36.3,-0.5c0.1,0,0.2,0.1,0.2,0.2l-0.1,28c0,0.1,-0.1,0.2,-0.2,0.2l-36.4,-0.7c-0.1,0,-0.2,-0.1,-0.2,-0.3l0.2,-26.7c0,-0.1,0.1,-0.2,0.2,-0.2Z" class="g51_143" />
<path d="M231.2,243.1l-1.6,0L229.5,267l1.3,0Z" class="g52_143" />
<path d="M231.2,218.2l-1.6,0l-0.1,20.5l1.3,0Z" class="g52_143" />
<path d="M213.4,228.3l2.8,0c0.6,0,1.2,-0.6,1.2,-1.2l0,-7c0,-0.6,-0.6,-1.2,-1.2,-1.2l-2.8,0c-0.6,0,-1.2,0.6,-1.2,1.2l0,7c0,0.6,0.6,1.2,1.2,1.2Z" class="g53_143" />
<path d="M205.5,261.1c0,11.4,-9.7,20.6,-21.6,20.6c-11.9,0,-21.6,-9.2,-21.6,-20.6c0,-11.3,9.7,-20.5,21.6,-20.5c11.9,0,21.6,9.2,21.6,20.5Z" class="g9_143" />
<path d="M205.5,261.1c0,11.4,-9.7,20.6,-21.6,20.6c-11.9,0,-21.6,-9.2,-21.6,-20.6c0,-11.3,9.7,-20.5,21.6,-20.5c11.9,0,21.6,9.2,21.6,20.5Z" class="g54_143" />
<text 
x="167" 
y="266" 
dx="0" 
class="s23_143"
>$</text>

<text 
x="174" 
y="266" 
dx="0,0,0" 
class="s24_143"
>300</text>

<path d="M151.2,728.3l0,53.5l0,0.7l0.8,0l676.9,0l0.7,0l0,-0.7l0,-53.5l0,-0.8l-0.7,0l-676.9,0l-0.8,0l0,0.8Z" class="g45_143" />
<path d="M153.2,780.5l674.4,0l0,-50.9l-674.4,0l0,50.9Z" class="g46_143" />
<text 
x="728" 
y="760" 
dx="0,0,0,0,0,0,0,0,0,0,0,0,0" 
class="s22_143"
>INTERPERSONAL</text>

<path d="M724.5,763.2l90.8,0l0,-14.5l-90.8,0l0,14.5Z" class="g47_143" />
<text 
x="164" 
y="760" 
dx="0,0,0,0,0,0,0,-1,-1,0,0,0,0,0" 
class="s22_143"
>PRESENTATIONAL</text>

<path d="M162.7,763.1l90.9,0l0,-14.4l-90.9,0l0,14.4Z" class="g47_143" />
<path d="M92.3,983l-51.4,0" class="g55_143" />
<path d="M276.1,990.8l0,-29.2l-183.8,0l0,41.5l37.6,0" class="g56_143" />
<text 
x="233" 
y="992" 
dx="0,0,0" 
class="s25_143"
>it!</text>

<text 
x="102" 
y="986" 
dx="0,0,0,0,-0.6,0,0,0,0,0,0,0" 
class="s26_143"
>Characterize</text>

<path d="M135.7,1144.2l183.6,0l0,-147.5l-183.6,0l0,147.5Z" class="g57_143" />
<path d="M319.3,1061.6l282.7,0l0,-32.4l-282.7,0l0,32.4Z" class="g58_143" />
<path d="M319.3,1108.8l282.7,0l0,-47.2l-282.7,0l0,47.2Z" class="g59_143" />
<text 
x="362" 
y="1050" 
dx="0,0,0,0,0,0,0,0,0,0,0,0,0,0,0,0,0,0,0,0,0,-0.1,0,0,0,0,0,0,0" 
class="s27_143"
>Identify the common radical. </text>

<text 
x="345" 
y="1082" 
dx="0,0,0,0,0,0,0,0,0,0,0,0,0,0,-0.1,0,0,0,0,0,0,0,-0.2,0,0,0,-0.2,0,0,-0.2,0,0,0,0,0" 
class="s28_143"
>How does the radical relate to the </text>

<text 
x="341" 
y="1099" 
dx="0,-0.4,-0.4,0,-0.1,0,0,0,0,0,0,0,0,0,0,0,0,-0.2,0,0,0,0,0,0,0,0,0,-0.1,0,0,-0.2,0,0,0" 
class="s28_143"
>overall meaning of the characters?</text>

<path d="M160.4,1066.8l55.7,0l0,-55.7l-55.7,0l0,55.7Z" class="g60_143" />
<path d="M188.2,1014.5l0,50.1" class="g61_143" />
<path d="M212.7,1039l-50.1,0" class="g61_143" />
<path d="M212.8,1014.4l-50,49.9" class="g61_143" />
<path d="M212.8,1063.5l-50,-49.9" class="g61_143" />
<text 
x="166" 
y="1052" 
dx="0" 
class="s29_143"
>衬</text>

<path d="M157.4,1022.2c4.8,0,8.7,-3.9,8.7,-8.7c0,-4.8,-3.9,-8.7,-8.7,-8.7c-4.8,0,-8.7,3.9,-8.7,8.7c0,4.8,3.9,8.7,8.7,8.7Z" class="g58_143" />
<text 
x="153" 
y="1018" 
dx="0" 
class="s30_143"
>1</text>

<path d="M160.4,1135.5l55.7,0l0,-55.7l-55.7,0l0,55.7Z" class="g60_143" />
<path d="M188.2,1083.1l0,50.2" class="g61_143" />
<path d="M212.7,1107.6l-50.1,0" class="g61_143" />
<path d="M212.8,1083.1l-50,49.9" class="g61_143" />
<path d="M212.8,1132.2l-50,-49.9" class="g61_143" />
<text 
x="166" 
y="1121" 
dx="0" 
class="s29_143"
>裤</text>

<path d="M157.4,1091.2c4.8,0,8.7,-3.9,8.7,-8.7c0,-4.8,-3.9,-8.7,-8.7,-8.7c-4.8,0,-8.7,3.9,-8.7,8.7c0,4.8,3.9,8.7,8.7,8.7Z" class="g58_143" />
<text 
x="153" 
y="1087" 
dx="0" 
class="s30_143"
>3</text>

<path d="M241.8,1066.8l55.7,0l0,-55.7l-55.7,0l0,55.7Z" class="g60_143" />
<path d="M269.6,1015.8l0,47.4" class="g61_143" />
<path d="M294.1,1039l-50.1,0" class="g61_143" />
<path d="M294.2,1014.4l-50,49.9" class="g61_143" />
<path d="M294.2,1063.5l-50,-49.9" class="g61_143" />
<text 
x="247" 
y="1052" 
dx="0" 
class="s29_143"
>衫</text>

<path d="M238.8,1022.2c4.8,0,8.7,-3.9,8.7,-8.7c0,-4.8,-3.9,-8.7,-8.7,-8.7c-4.8,0,-8.7,3.9,-8.7,8.7c0,4.8,3.9,8.7,8.7,8.7Z" class="g58_143" />
<text 
x="234" 
y="1018" 
dx="0" 
class="s30_143"
>2</text>

<path d="M241.8,1135.5l55.7,0l0,-55.7l-55.7,0l0,55.7Z" class="g60_143" />
<path d="M269.6,1084.5l0,47.4" class="g61_143" />
<path d="M294.1,1107.6l-50.1,0" class="g61_143" />
<path d="M294.2,1083.1l-50,49.9" class="g61_143" />
<path d="M294.2,1132.2l-50,-49.9" class="g61_143" />
<text 
x="247" 
y="1121" 
dx="0" 
class="s29_143"
>被</text>

<path d="M238.8,1091.2c4.8,0,8.7,-3.9,8.7,-8.7c0,-4.8,-3.9,-8.7,-8.7,-8.7c-4.8,0,-8.7,3.9,-8.7,8.7c0,4.8,3.9,8.7,8.7,8.7Z" class="g58_143" />
<text 
x="233" 
y="1087" 
dx="0" 
class="s30_143"
>4</text>

<path d="M602,1144.2l183.6,0l0,-147.5l-183.6,0l0,147.5Z" class="g57_143" />
<path d="M629.8,1065l55.7,0l0,-55.6l-55.7,0l0,55.6Z" class="g60_143" />
<path d="M657.6,1014.1l0,47.4" class="g61_143" />
<path d="M682.1,1037.2l-50.1,0" class="g61_143" />
<path d="M682.2,1012.6l-49.9,50" class="g61_143" />
<path d="M682.2,1061.8l-49.9,-50" class="g61_143" />
<text 
x="635" 
y="1050" 
dx="0" 
class="s31_143"
>襯</text>

<path d="M629.8,1136.8l55.7,0l0,-55.7l-55.7,0l0,55.7Z" class="g60_143" />
<path d="M657.6,1085.8l0,47.4" class="g61_143" />
<path d="M682.1,1109l-50.1,0" class="g61_143" />
<path d="M682.2,1084.4l-49.9,49.9" class="g61_143" />
<path d="M682.2,1133.5l-49.9,-49.9" class="g61_143" />
<text 
x="635" 
y="1122" 
dx="0" 
class="s31_143"
>褲</text>

<path d="M710.3,1065l55.7,0l0,-55.6l-55.7,0l0,55.6Z" class="g60_143" />
<path d="M738.2,1014.1l0,47.4" class="g61_143" />
<path d="M762.7,1037.2l-50.1,0" class="g61_143" />
<path d="M762.8,1012.6l-50,50" class="g61_143" />
<path d="M762.8,1061.8l-50,-50" class="g61_143" />
<text 
x="716" 
y="1050" 
dx="0" 
class="s31_143"
>衫</text>

<path d="M710.3,1136.8l55.7,0l0,-55.7l-55.7,0l0,55.7Z" class="g60_143" />
<path d="M738.2,1085.8l0,47.4" class="g61_143" />
<path d="M762.7,1109l-50.1,0" class="g61_143" />
<path d="M762.8,1084.4l-50,49.9" class="g61_143" />
<path d="M762.8,1133.5l-50,-49.9" class="g61_143" />
<text 
x="716" 
y="1122" 
dx="0" 
class="s31_143"
>被</text>

<path d="M626.1,1022.2c4.8,0,8.7,-3.9,8.7,-8.7c0,-4.8,-3.9,-8.7,-8.7,-8.7c-4.8,0,-8.7,3.9,-8.7,8.7c0,4.8,3.9,8.7,8.7,8.7Z" class="g59_143" />
<text 
x="622" 
y="1018" 
dx="0" 
class="s32_143"
>1</text>

<path d="M626.1,1091.2c4.8,0,8.7,-3.9,8.7,-8.7c0,-4.8,-3.9,-8.7,-8.7,-8.7c-4.8,0,-8.7,3.9,-8.7,8.7c0,4.8,3.9,8.7,8.7,8.7Z" class="g59_143" />
<text 
x="621" 
y="1087" 
dx="0" 
class="s32_143"
>3</text>

<path d="M707.5,1022.2c4.8,0,8.7,-3.9,8.7,-8.7c0,-4.8,-3.9,-8.7,-8.7,-8.7c-4.8,0,-8.7,3.9,-8.7,8.7c0,4.8,3.9,8.7,8.7,8.7Z" class="g59_143" />
<text 
x="703" 
y="1018" 
dx="0" 
class="s32_143"
>2</text>

<path d="M707.5,1091.2c4.8,0,8.7,-3.9,8.7,-8.7c0,-4.8,-3.9,-8.7,-8.7,-8.7c-4.8,0,-8.7,3.9,-8.7,8.7c0,4.8,3.9,8.7,8.7,8.7Z" class="g59_143" />
<text 
x="703" 
y="1087" 
dx="0" 
class="s32_143"
>4</text>

<path d="M-26.6,1209.2l67.1,0l0,-1222.1l-67.1,0l0,1222.1Z" class="g62_143" />
<text 
transform="matrix(0, -1, 1, 0, 31, 1173)"
dx="0,1,1,1" 
class="s33_143"
>120 </text>

<text 
transform="matrix(0, -1, 1, 0, 31, 1130)"
dx="0,1,1,0.8,1,1,0.9,1,0.8,1,1,1,1,1,1,1,1,1,1,1,1" 
class="s33_143"
>Integrated Chinese 3 </text>

<text 
transform="matrix(0, -1, 1, 0, 31, 990)"
dx="0,1" 
class="s33_143"
>| </text>

<text 
transform="matrix(0, -1, 1, 0, 31, 976)"
dx="0,-0.2,0.7,0.7,1,1,1,1" 
class="s33_143"
>Textbook</text>



<!-- Any embedded fonts defined here -->
<style type="text/css" ><![CDATA[

@font-face {
	font-family: ProximaNova-Extrabld_3x7;
	src: url("fonts/ProximaNova-Extrabld_3x7.woff") format("woff");
}

@font-face {
	font-family: ProximaNova-Medium_3x8;
	src: url("fonts/ProximaNova-Medium_3x8.woff") format("woff");
}

@font-face {
	font-family: ProximaNova-Extrabld_3x4;
	src: url("fonts/ProximaNova-Extrabld_3x4.woff") format("woff");
}

@font-face {
	font-family: LibreFranklin-SemiBold_3wg;
	src: url("fonts/LibreFranklin-SemiBold_3wg.woff") format("woff");
}

@font-face {
	font-family: ProximaNova-Extrabld_3x6;
	src: url("fonts/ProximaNova-Extrabld_3x6.woff") format("woff");
}

@font-face {
	font-family: ProximaNova-Medium_3x2;
	src: url("fonts/ProximaNova-Medium_3x2.woff") format("woff");
}

@font-face {
	font-family: ProximaNova-Extrabld_3x1;
	src: url("fonts/ProximaNova-Extrabld_3x1.woff") format("woff");
}

@font-face {
	font-family: ProximaNova-Bold_3x3;
	src: url("fonts/ProximaNova-Bold_3x3.woff") format("woff");
}

@font-face {
	font-family: ProximaNova-Medium_3x5;
	src: url("fonts/ProximaNova-Medium_3x5.woff") format("woff");
}

@font-face {
	font-family: ProximaNova-Medium_3xh;
	src: url("fonts/ProximaNova-Medium_3xh.woff") format("woff");
}

@font-face {
	font-family: STKaiTi-TC-Bold_3op;
	src: url("fonts/STKaiTi-TC-Bold_3op.woff") format("woff");
}

@font-face {
	font-family: ProximaNova-Medium_3xc;
	src: url("fonts/ProximaNova-Medium_3xc.woff") format("woff");
}

@font-face {
	font-family: STKaiTi-TC-Regular_3pl;
	src: url("fonts/STKaiTi-TC-Regular_3pl.woff") format("woff");
}

@font-face {
	font-family: ProximaNova-Medium_3xf;
	src: url("fonts/ProximaNova-Medium_3xf.woff") format("woff");
}

@font-face {
	font-family: ProximaNova-Medium_3xe;
	src: url("fonts/ProximaNova-Medium_3xe.woff") format("woff");
}

@font-face {
	font-family: LibreFranklin-Medium_3v_;
	src: url("fonts/LibreFranklin-Medium_3v_.woff") format("woff");
}

@font-face {
	font-family: LibreFranklin-Regular_3wc;
	src: url("fonts/LibreFranklin-Regular_3wc.woff") format("woff");
}

@font-face {
	font-family: LibreFranklin-ExtraBold_3v-;
	src: url("fonts/LibreFranklin-ExtraBold_3v-.woff") format("woff");
}

@font-face {
	font-family: STKaiti-SC-Bold_3oi;
	src: url("fonts/STKaiti-SC-Bold_3oi.woff") format("woff");
}

@font-face {
	font-family: ProximaNova-Extrabld_3xg;
	src: url("fonts/ProximaNova-Extrabld_3xg.woff") format("woff");
}

@font-face {
	font-family: LibreFranklin-Bold_3vu;
	src: url("fonts/LibreFranklin-Bold_3vu.woff") format("woff");
}

@font-face {
	font-family: ProximaNova-Extrabld_3xd;
	src: url("fonts/ProximaNova-Extrabld_3xd.woff") format("woff");
}

@font-face {
	font-family: Museo-700_3x9;
	src: url("fonts/Museo-700_3x9.woff") format("woff");
}

@font-face {
	font-family: ProximaNova-Extrabld_3xb;
	src: url("fonts/ProximaNova-Extrabld_3xb.woff") format("woff");
}

@font-face {
	font-family: STKaiti-SC-Regular_3pn;
	src: url("fonts/STKaiti-SC-Regular_3pn.woff") format("woff");
}

@font-face {
	font-family: ProximaNova-Bold_3xa;
	src: url("fonts/ProximaNova-Bold_3xa.woff") format("woff");
}

]]></style>

</svg>
