<?xml version="1.0" encoding="UTF-8" standalone="no"?>
<!DOCTYPE svg PUBLIC "-//W3C//DTD SVG 1.1//EN"
"http://www.w3.org/Graphics/SVG/1.1/DTD/svg11.dtd">


<!-- Page 35 -->
<svg x="0" y="0" width="921" height="1196" viewBox="0 0 921 1196" version="1.1" xmlns="http://www.w3.org/2000/svg" xmlns:xlink="http://www.w3.org/1999/xlink"
style="display: block;margin-left: auto;margin-right: auto;">
<defs>

<style type="text/css"><![CDATA[

.g1_35{
fill: none;
stroke: #007598;
stroke-width: 1.5277778;
stroke-linecap: butt;
stroke-linejoin: miter;
stroke-miterlimit: 4;
}
.g2_35{
fill: none;
stroke: #007598;
stroke-width: 0.5102778;
stroke-linecap: butt;
stroke-linejoin: miter;
stroke-miterlimit: 4;
}
.g3_35{
fill: #007598;
stroke: #B2B3B7;
stroke-width: 1.5277778;
stroke-linecap: butt;
stroke-linejoin: miter;
stroke-miterlimit: 4;
}

.s1_35{
font-size: 16.81px;
font-family: LibreFranklin-Bold_3pa;
fill: #939598;
}
.s2_35{
font-size: 25.97px;
font-family: STKaiti-SC-Bold_3oi;
fill: #007D9F;
}
.s3_35{
font-size: 25.97px;
font-family: STKaiti-SC-Regular_3pn;
fill: #3F3F40;
}
.s4_35{
font-size: 25.97px;
font-family: STKaiTi-TC-Bold_3op;
fill: #007D9F;
}
.s5_35{
font-size: 25.97px;
font-family: STKaiTi-TC-Regular_3pl;
fill: #3F3F40;
}
.s6_35{
font-size: 14.51px;
font-family: LibreFranklin-Regular_3q9;
fill: #3F3F40;
}
.s7_35{
font-size: 15.28px;
font-family: LibreFranklin-ExtraBold_3pt;
fill: #3F3F40;
}
.s8_35{
font-size: 23.68px;
font-family: STKaiti-SC-Regular_3pn;
fill: #3F3F40;
}
.s9_35{
font-size: 11.08px;
font-family: LibreFranklin-SemiBold_3qb;
fill: #FFFFFF;
}

]]></style>

</defs>
<path d="M0,0
L0,1196
L921,1196
L921,0 Z " 
fill="#FFFFFF" stroke="none" />
<text 
x="216" 
y="73" 
dx="0,0,0" 
class="s1_35"
>Q: </text>

<text 
x="243" 
y="73" 
dx="0,0,0" 
class="s2_35"
>（是）</text>

<text 
x="321" 
y="73" 
dx="0,0,0,0,0,0,0,0,0,0" 
class="s3_35"
>坐飞机来的还是开车来</text>

<text 
x="581" 
y="73" 
dx="0" 
class="s2_35"
>的</text>

<text 
x="607" 
y="73" 
dx="0" 
class="s3_35"
>？</text>

<text 
x="244" 
y="114" 
dx="0" 
class="s2_35"
>（</text>

<text 
x="270" 
y="114" 
dx="0,0" 
class="s4_35"
>是）</text>

<text 
x="322" 
y="114" 
dx="0,0,0,0,0,0,0,0,0,0" 
class="s5_35"
>坐飛機來的還是開車來</text>

<text 
x="582" 
y="114" 
dx="0" 
class="s4_35"
>的</text>

<text 
x="608" 
y="114" 
dx="0" 
class="s5_35"
>？</text>

<text 
x="250" 
y="147" 
dx="0,0,0,0,0,0,0,0,0,0,0,0,0,0,0,0,0,0,0,0,0,0,0,0,0,0,0,0,0,0,0,0,0" 
class="s6_35"
>Did they come by plane or by car?</text>

<text 
x="216" 
y="195" 
dx="0,0,0" 
class="s1_35"
>A: </text>

<text 
x="246" 
y="195" 
dx="0,0,0" 
class="s3_35"
>开车来</text>

<text 
x="324" 
y="195" 
dx="0" 
class="s2_35"
>的</text>

<text 
x="350" 
y="195" 
dx="0" 
class="s3_35"
>。</text>

<text 
x="248" 
y="235" 
dx="0,0,0" 
class="s5_35"
>開車來</text>

<text 
x="326" 
y="235" 
dx="0" 
class="s4_35"
>的</text>

<text 
x="352" 
y="235" 
dx="0" 
class="s5_35"
>。</text>

<text 
x="250" 
y="269" 
dx="0,0,0,0,0,0,-1.2" 
class="s6_35"
>By car.</text>

<text 
x="174" 
y="328" 
dx="0,0" 
class="s7_35"
>B </text>

<text 
x="244" 
y="330" 
dx="0,0,0" 
class="s3_35"
>张天明</text>

<text 
x="322" 
y="330" 
dx="0,0,0" 
class="s2_35"
>（是）</text>

<text 
x="400" 
y="330" 
dx="0,0,0,0,0" 
class="s3_35"
>在美国出生</text>

<text 
x="530" 
y="330" 
dx="0" 
class="s2_35"
>的</text>

<text 
x="556" 
y="330" 
dx="0" 
class="s3_35"
>。</text>

<text 
x="244" 
y="370" 
dx="0,0,0" 
class="s5_35"
>張天明</text>

<text 
x="322" 
y="370" 
dx="0,0,0" 
class="s4_35"
>（是）</text>

<text 
x="400" 
y="370" 
dx="0,0,0,0,0" 
class="s5_35"
>在美國出生</text>

<text 
x="530" 
y="370" 
dx="0" 
class="s4_35"
>的</text>

<text 
x="556" 
y="370" 
dx="0,0" 
class="s5_35"
>。 </text>

<text 
x="250" 
y="404" 
dx="0,0,0,0,0,0,0,0,0,0,0,0,0,0,0,0,0,0,0,0,0,0,0,0,0,0,0,0,0,0,0,0,0,0,0,0" 
class="s6_35"
>Zhang Tianming was born in the U.S. </text>

<text 
x="161" 
y="452" 
dx="0,-0.3,-0.3,-0.3,-0.3,-0.3,-0.3,-0.5,-0.3,-0.3,-0.3,-0.3,-0.3,-0.3,-0.3,-0.3,-0.3,-0.3,-0.3,-0.3,-0.3,-0.3,-0.3,-0.3,-0.3,-0.5,-0.3,-0.3,-0.3,-0.3,-0.3,-0.3,-0.3,-0.7,-0.3,-0.3,-0.3,-0.3" 
class="s6_35"
>If there is an object after the verb, </text>

<text 
x="380" 
y="454" 
dx="0" 
class="s8_35"
>的</text>

<text 
x="406" 
y="452" 
dx="0,-0.3,-0.3,-0.3,-0.3,-0.3,-0.3,-0.3,-0.3,-0.3,-0.3,-0.3,-0.3,-0.3,-0.3,-0.3,-0.3,-0.3,-0.3,-0.3,-0.3,-0.3,-0.3,-0.3,-0.3,-0.3,-0.5,-0.3,-0.3,-0.3,-0.3,-0.3,-0.3,-0.3,-0.3,-0.3,-0.5,-0.3,-0.3,-0.3,-0.3,-0.3,-0.3,-0.3,-0.3,-0.3,-0.3,-0.6,-0.3,-0.5,-0.3,-0.3,-0.3,-0.3,-0.3,-0.3,-0.3,-0.3,-0.3,-0.3,-0.3,-0.3,0" 
class="s6_35"
>can be placed at the end of the sentence or before the object. </text>

<text 
x="174" 
y="509" 
dx="0,0" 
class="s7_35"
>C </text>

<text 
x="216" 
y="511" 
dx="0,0,0" 
class="s1_35"
>Q: </text>

<text 
x="242" 
y="511" 
dx="0,0,0,0,0,0,0" 
class="s3_35"
>你是大学生吗？</text>

<text 
x="244" 
y="551" 
dx="0,0,0,0,0,0,0" 
class="s5_35"
>你是大學生嗎？</text>

<text 
x="250" 
y="585" 
dx="0,0,-0.2,0,0,0,0,0,0,0,0,0,0,0,0,0,0,0,0,0,0" 
class="s6_35"
>Are you an undergrad?</text>

<text 
x="216" 
y="632" 
dx="0,0,0" 
class="s1_35"
>A: </text>

<text 
x="245" 
y="632" 
dx="0,0,0,0,0,0,0,0" 
class="s3_35"
>不，我是研究生。</text>

<text 
x="244" 
y="673" 
dx="0,0,0,0,0,0,0,0,0" 
class="s5_35"
>不，我是研究生。 </text>

<text 
x="250" 
y="706" 
dx="0,0,-0.4,0,0,0,0,0,0,0,0,0,0,0,0,0,0,0,0,0,0,0,0" 
class="s6_35"
>No, I’m a grad student.</text>

<text 
x="216" 
y="754" 
dx="0,0,0" 
class="s1_35"
>Q: </text>

<text 
x="245" 
y="754" 
dx="0" 
class="s3_35"
>你</text>

<text 
x="271" 
y="754" 
dx="0" 
class="s2_35"
>是</text>

<text 
x="297" 
y="754" 
dx="0,0,0,0" 
class="s3_35"
>在哪儿上</text>

<text 
x="401" 
y="754" 
dx="0" 
class="s2_35"
>的</text>

<text 
x="427" 
y="754" 
dx="0,0,0" 
class="s3_35"
>大学？</text>

<text 
x="244" 
y="794" 
dx="0" 
class="s5_35"
>你</text>

<text 
x="270" 
y="794" 
dx="0" 
class="s4_35"
>是</text>

<text 
x="296" 
y="794" 
dx="0,0,0,0" 
class="s5_35"
>在哪兒上</text>

<text 
x="400" 
y="794" 
dx="0" 
class="s4_35"
>的</text>

<text 
x="426" 
y="794" 
dx="0,0,0" 
class="s5_35"
>大學？</text>

<text 
x="250" 
y="828" 
dx="0,0,0,0,-0.2,0,0,0,0,0,0,0,0,0,0,-0.1,0,0,-0.2,0,0,0,0,0,0,0,-0.1,0" 
class="s6_35"
>Where did you go to college?</text>

<text 
x="216" 
y="875" 
dx="0,0,0" 
class="s1_35"
>A: </text>

<text 
x="245" 
y="875" 
dx="0" 
class="s3_35"
>我</text>

<text 
x="271" 
y="875" 
dx="0" 
class="s2_35"
>是</text>

<text 
x="297" 
y="875" 
dx="0,0,0,0" 
class="s3_35"
>在纽约上</text>

<text 
x="401" 
y="875" 
dx="0" 
class="s2_35"
>的</text>

<text 
x="427" 
y="875" 
dx="0,0,0" 
class="s3_35"
>大学。</text>

<text 
x="244" 
y="916" 
dx="0" 
class="s5_35"
>我</text>

<text 
x="270" 
y="916" 
dx="0" 
class="s4_35"
>是</text>

<text 
x="296" 
y="916" 
dx="0,0,0,0" 
class="s5_35"
>在紐約上</text>

<text 
x="400" 
y="916" 
dx="0" 
class="s4_35"
>的</text>

<text 
x="426" 
y="916" 
dx="0,0,0" 
class="s5_35"
>大學。</text>

<text 
x="250" 
y="949" 
dx="0,0,0,0,0,0,0,0,-0.2,0,0,0,0,0,0,0,-0.1,0,0,0,0,0,0,0,0,0,-1.5,0,0,0" 
class="s6_35"
>I went to college in New York.</text>

<path d="M169,304.7c-0.1,0,-7.7,0.1,-7.7,7.6l0,19.7c0,0.1,0.1,7.7,7.7,7.7l22.4,0c0,0,7.6,-0.1,7.6,-7.7l0,-19.7c0,0,-0.1,-7.6,-7.6,-7.6l-22.4,0Z" class="g1_35" />
<path d="M169,306.7c-0.6,0,-5.6,0.2,-5.6,5.6l0,19.7c0,0.6,0.2,5.6,5.6,5.6l22.4,0c0.5,0,5.6,-0.2,5.6,-5.6l0,-19.7c0,-0.5,-0.2,-5.6,-5.6,-5.6l-22.4,0Z" class="g2_35" />
<path d="M169,485.7c-0.1,0,-7.7,0.1,-7.7,7.7l0,19.7c0,0.1,0.1,7.6,7.7,7.6l22.4,0c0,0,7.6,-0.1,7.6,-7.6l0,-19.7c0,-0.1,-0.1,-7.7,-7.6,-7.7l-22.4,0Z" class="g1_35" />
<path d="M169,487.8c-0.6,0,-5.6,0.2,-5.6,5.6l0,19.7c0,0.5,0.2,5.6,5.6,5.6l22.4,0c0.5,0,5.6,-0.2,5.6,-5.6l0,-19.7c0,-0.6,-0.2,-5.6,-5.6,-5.6l-22.4,0Z" class="g2_35" />
<path d="M-17.5,1209.2l58,0l0,-1222.1l-58,0l0,1222.1Z" class="g3_35" />
<text 
transform="matrix(0, -1, 1, 0, 31, 1173)"
dx="0,1,1" 
class="s9_35"
>12 </text>

<text 
transform="matrix(0, -1, 1, 0, 31, 1139)"
dx="0,1,1,0.8,1,1,0.9,1,0.8,1,1,1,1,1,1,1,1,1,1,1,1" 
class="s9_35"
>Integrated Chinese 3 </text>

<text 
transform="matrix(0, -1, 1, 0, 31, 998)"
dx="0,1" 
class="s9_35"
>| </text>

<text 
transform="matrix(0, -1, 1, 0, 31, 985)"
dx="0,-0.2,0.7,0.7,1,1,1,1" 
class="s9_35"
>Textbook</text>



<!-- Any embedded fonts defined here -->
<style type="text/css" ><![CDATA[

@font-face {
	font-family: STKaiti-SC-Bold_3oi;
	src: url("fonts/STKaiti-SC-Bold_3oi.woff") format("woff");
}

@font-face {
	font-family: STKaiTi-TC-Bold_3op;
	src: url("fonts/STKaiTi-TC-Bold_3op.woff") format("woff");
}

@font-face {
	font-family: LibreFranklin-SemiBold_3qb;
	src: url("fonts/LibreFranklin-SemiBold_3qb.woff") format("woff");
}

@font-face {
	font-family: STKaiTi-TC-Regular_3pl;
	src: url("fonts/STKaiTi-TC-Regular_3pl.woff") format("woff");
}

@font-face {
	font-family: STKaiti-SC-Regular_3pn;
	src: url("fonts/STKaiti-SC-Regular_3pn.woff") format("woff");
}

@font-face {
	font-family: LibreFranklin-Bold_3pa;
	src: url("fonts/LibreFranklin-Bold_3pa.woff") format("woff");
}

@font-face {
	font-family: LibreFranklin-Regular_3q9;
	src: url("fonts/LibreFranklin-Regular_3q9.woff") format("woff");
}

@font-face {
	font-family: LibreFranklin-ExtraBold_3pt;
	src: url("fonts/LibreFranklin-ExtraBold_3pt.woff") format("woff");
}

]]></style>

</svg>
