<?xml version="1.0" encoding="UTF-8" standalone="no"?>
<!DOCTYPE svg PUBLIC "-//W3C//DTD SVG 1.1//EN"
"http://www.w3.org/Graphics/SVG/1.1/DTD/svg11.dtd">


<!-- Page 300 -->
<svg x="0" y="0" width="921" height="1196" viewBox="0 0 921 1196" version="1.1" xmlns="http://www.w3.org/2000/svg" xmlns:xlink="http://www.w3.org/1999/xlink"
style="display: block;margin-left: auto;margin-right: auto;">
<defs>

<style type="text/css"><![CDATA[

.g1_300{
fill: none;
stroke: #7AAD35;
stroke-width: 1.5277778;
stroke-linecap: butt;
stroke-linejoin: miter;
stroke-miterlimit: 4;
}
.g2_300{
fill: none;
stroke: #7AAD35;
stroke-width: 0.5102778;
stroke-linecap: butt;
stroke-linejoin: miter;
stroke-miterlimit: 4;
}
.g3_300{
fill: #DAEFEB;
}
.g4_300{
fill: none;
stroke: #C6EAFA;
stroke-width: 0.7638889;
stroke-linecap: butt;
stroke-linejoin: miter;
stroke-miterlimit: 4;
}
.g5_300{
fill: none;
stroke: #C6EAFA;
stroke-width: 1.5277778;
stroke-linecap: butt;
stroke-linejoin: miter;
stroke-miterlimit: 4;
}
.g6_300{
fill: #CAE7E2;
}
.g7_300{
fill: none;
stroke: #00A3AF;
stroke-width: 0.7638889;
stroke-linecap: butt;
stroke-linejoin: miter;
stroke-miterlimit: 4;
}
.g8_300{
fill: #00A3AF;
}
.g9_300{
fill: #7AAD35;
stroke: #B2B3B7;
stroke-width: 1.5277778;
stroke-linecap: butt;
stroke-linejoin: miter;
stroke-miterlimit: 4;
}

.s1_300{
font-size: 15.28px;
font-family: LibreFranklin-ExtraBold_42g;
fill: #3F3F40;
}
.s2_300{
font-size: 25.97px;
font-family: STKaiti-SC-Regular_3pn;
fill: #3F3F40;
}
.s3_300{
font-size: 25.97px;
font-family: STKaiti-SC-Bold_3oi;
fill: #749E3C;
}
.s4_300{
font-size: 25.97px;
font-family: STKaiTi-TC-Regular_3pl;
fill: #3F3F40;
}
.s5_300{
font-size: 25.97px;
font-family: STKaiTi-TC-Bold_3op;
fill: #749E3C;
}
.s6_300{
font-size: 14.51px;
font-family: LibreFranklin-Regular_42q;
fill: #3F3F40;
}
.s7_300{
font-size: 14.51px;
font-family: LibreFranklin-Medium_42h;
fill: #231F20;
}
.s8_300{
font-size: 36.67px;
font-family: STKaiti-SC-Bold_3oi;
fill: #F7931D;
}
.s9_300{
font-size: 25.97px;
font-family: STKaiti-SC-Regular_3pn;
fill: #231F20;
}
.s10_300{
font-size: 25.97px;
font-family: STKaiti-SC-Bold_3oi;
fill: #00AEEF;
}
.s11_300{
font-size: 36.67px;
font-family: STKaiTi-TC-Bold_3op;
fill: #F7931D;
}
.s12_300{
font-size: 25.97px;
font-family: STKaiTi-TC-Regular_3pl;
fill: #231F20;
}
.s13_300{
font-size: 25.97px;
font-family: STKaiTi-TC-Bold_3op;
fill: #00AEEF;
}
.s14_300{
font-size: 11.08px;
font-family: LibreFranklin-SemiBold_42r;
fill: #FFFFFF;
}

]]></style>

</defs>
<path d="M0,0
L0,1196
L921,1196
L921,0 Z " 
fill="#FFFFFF" stroke="none" />
<text 
x="169" 
y="71" 
dx="0,0" 
class="s1_300"
>4 </text>

<text 
x="239" 
y="73" 
dx="0,0,0,0,0,0,0,0,0,0,0,0,0,0,0,0,0,0,0,0,0,0,0" 
class="s2_300"
>哥哥和嫂子结婚十年了，生活一直很幸福，可是最近</text>

<text 
x="239" 
y="107" 
dx="0,0,0,0,0,0,0,0,0,0,0,0,0,0,0,0,0,0,0,0,0,0,0" 
class="s2_300"
>两年在女儿的教育问题上，意见常常不同，有时吵得</text>

<text 
x="239" 
y="140" 
dx="0" 
class="s2_300"
>很</text>

<text 
x="265" 
y="140" 
dx="0,0" 
class="s3_300"
>厉害</text>

<text 
x="317" 
y="140" 
dx="0" 
class="s2_300"
>。</text>

<text 
x="239" 
y="181" 
dx="0,0,0,0,0,0,0,0,0,0,0,0,0,0,0,0,0,0,0,0,0,0,0" 
class="s4_300"
>哥哥和嫂子結婚十年了，生活一直很幸福，可是最近</text>

<text 
x="239" 
y="215" 
dx="0,0,0,0,0,0,0,0,0,0,0,0,0,0,0,0,0,0,0,0,0,0,0" 
class="s4_300"
>兩年在女兒的教育問題上，意見常常不同，有時吵得</text>

<text 
x="239" 
y="248" 
dx="0" 
class="s4_300"
>很</text>

<text 
x="265" 
y="248" 
dx="0,0" 
class="s5_300"
>厲害</text>

<text 
x="317" 
y="248" 
dx="0" 
class="s4_300"
>。</text>

<text 
x="245" 
y="282" 
dx="0,0,0,0,0,0,0,0,0,0,0,-0.2,-0.1,0,0,0,0,0,0,0,0,0,0,0,0,-0.2,0,-0.8,0,0,0,0,0,0,0,0,-0.1,-0.1,0,0,0,0,0,0,0,0,0,0,-0.2,0,0,0,0,0,0,0,0,0,0,-0.1,-0.4,0,0,0,0,0,0,-0.1,-0.4,0,0,0,0,0,0,0,0,0,0,0,0" 
class="s6_300"
>My older brother and sister-in-law got married ten years ago. They’ve been happy </text>

<text 
x="245" 
y="302" 
dx="0,0,0,0,0,0,0,0,0,0,0,0,0,0,0,0,0,0,0,-0.4,0,0,-0.2,0,-0.2,0,0,0,0,0,0,-0.3,0,-0.2,0,0,0,0,0,0,0,0,0,0,0,0,0,-0.1,0,0,0,0,0,0,0,0,0,0,0,0,0,0,0,0,0,0,-0.2,0,0,0,0,0,0,0,0,0,0,0,0,0,-0.2,0,0,-0.9,0" 
class="s6_300"
>since, but they have often differed with each other on the issue of their daughter’s </text>

<text 
x="245" 
y="321" 
dx="0,0,0,0,0,0,0,0,0,0,0,0,0,0,0,0,0,0,0,0,0,0,0,0,0,0,0,0,0,0,-0.2,0,0,0,0,0,0,0,0,0,0,0,0,-0.1,0,0,0,0,0,0,0,0,0,0,0,0,0,0,0,0,-0.2,0,0,0,0,0,-1" 
class="s6_300"
>education in the last couple of years, sometimes arguing intensely.</text>

<text 
x="169" 
y="380" 
dx="0,0" 
class="s1_300"
>5 </text>

<text 
x="239" 
y="383" 
dx="0,0,0,0,0,0,0,0,0,0,0" 
class="s2_300"
>小高昨天夜里肚子疼得很</text>

<text 
x="525" 
y="383" 
dx="0,0" 
class="s3_300"
>厉害</text>

<text 
x="577" 
y="383" 
dx="0,0,0,0,0,0,0,0,0,0" 
class="s2_300"
>，我跟他一起去医院看</text>

<text 
x="239" 
y="416" 
dx="0,0,0" 
class="s2_300"
>的病。</text>

<text 
x="239" 
y="457" 
dx="0,0,0,0,0,0,0,0,0,0,0" 
class="s4_300"
>小高昨天夜裡肚子疼得很</text>

<text 
x="525" 
y="457" 
dx="0,0" 
class="s5_300"
>厲害</text>

<text 
x="577" 
y="457" 
dx="0,0,0,0,0,0,0,0,0,0" 
class="s4_300"
>，我跟他一起去醫院看</text>

<text 
x="239" 
y="490" 
dx="0,0,0" 
class="s4_300"
>的病。</text>

<text 
x="245" 
y="524" 
dx="0,0,0,0,0,0,0,0,0,0,0,0,0,0,0,0,0,0,-0.2,0,0,0,0,0,0,0,0,0,-0.2,0,0,0,0,0,0,0,0,0,0,0,0,0,0,0,0,0,0,0,0,0,0,0,0,0,0,0,0,0,0,0,0,0,0,0,0,0,0,0,0,-0.2,0,0,0,0,-0.4,0,0,0,0,0,0,-0.2,0" 
class="s6_300"
>Little Gao had a terrible stomachache last night, and I was the one to take him to </text>

<text 
x="245" 
y="544" 
dx="0,0,0,0,0,0,0,0,0,0,0,0,0,0" 
class="s6_300"
>the hospital. </text>

<text 
x="169" 
y="603" 
dx="0,0" 
class="s1_300"
>6 </text>

<text 
x="239" 
y="605" 
dx="0,0,0,0,0" 
class="s2_300"
>孩子哭得很</text>

<text 
x="369" 
y="605" 
dx="0,0" 
class="s3_300"
>厉害</text>

<text 
x="421" 
y="605" 
dx="0,0,0,0,0,0,0" 
class="s2_300"
>，是不是饿了？</text>

<text 
x="239" 
y="645" 
dx="0,0,0,0,0" 
class="s4_300"
>孩子哭得很</text>

<text 
x="369" 
y="645" 
dx="0,0" 
class="s5_300"
>厲害</text>

<text 
x="421" 
y="645" 
dx="0,0,0,0,0,0,0" 
class="s4_300"
>，是不是餓了？</text>

<text 
x="245" 
y="679" 
dx="0,0,0,0,0,0,0,0,0,0,0,0,0,0,0,0,0,0,0,0,0,0,0,0,0,0,-0.2,0,0,0,0,0,0,0,0,0,0,0,0,0,0,0,0" 
class="s6_300"
>The child is crying so hard. Is she hungry?</text>

<path d="M164.4,48c-0.1,0,-7.7,0.1,-7.7,7.7l0,19.7c0,0,0.1,7.6,7.7,7.6l22.4,0c0.1,0,7.6,-0.1,7.6,-7.6l0,-19.7c0,-0.1,-0.1,-7.7,-7.6,-7.7l-22.4,0Z" class="g1_300" />
<path d="M164.4,50.1c-0.6,0,-5.6,0.2,-5.6,5.6l0,19.7c0,0.5,0.2,5.6,5.6,5.6l22.4,0c0.6,0,5.6,-0.2,5.6,-5.6l0,-19.7c0,-0.6,-0.2,-5.6,-5.6,-5.6l-22.4,0Z" class="g2_300" />
<path d="M164.4,357.4c-0.1,0,-7.7,0.1,-7.7,7.7l0,19.6c0,0.1,0.1,7.7,7.7,7.7l22.4,0c0.1,0,7.6,-0.1,7.6,-7.7l0,-19.6c0,-0.1,-0.1,-7.7,-7.6,-7.7l-22.4,0Z" class="g1_300" />
<path d="M164.4,359.4c-0.6,0.1,-5.6,0.3,-5.6,5.7l0,19.6c0,0.6,0.2,5.6,5.6,5.6l22.4,0c0.6,0,5.6,-0.2,5.6,-5.6l0,-19.6c0,-0.6,-0.2,-5.7,-5.6,-5.7l-22.4,0Z" class="g2_300" />
<path d="M164.4,579.7c-0.1,0,-7.7,0.1,-7.7,7.6l0,19.7c0,0.1,0.1,7.7,7.7,7.7l22.4,0c0.1,0,7.6,-0.1,7.6,-7.7l0,-19.7c0,0,-0.1,-7.6,-7.6,-7.6l-22.4,0Z" class="g1_300" />
<path d="M164.4,581.7c-0.6,0,-5.6,0.2,-5.6,5.6l0,19.7c0,0.6,0.2,5.6,5.6,5.6l22.4,0c0.6,0,5.6,-0.2,5.6,-5.6l0,-19.7c0,-0.5,-0.2,-5.6,-5.6,-5.6l-22.4,0Z" class="g2_300" />
<path d="M847.9,874.1l0,-37.6L829.6,818.1l-264.4,0l0,56.1Z" class="g3_300" />
<path d="M79,984.9l768.9,0" class="g4_300" />
<path d="M79,1069.6l768.9,0" class="g5_300" />
<path d="M366.2,1077.9l194.6,0l0,-238.8l-194.6,0l0,238.8Z" class="g6_300" />
<text 
x="380" 
y="882" 
dx="0,0,0,0,0,0,0,0,0,0,0,0,0,-0.2,0,0,0,0,-0.1,0,0,0" 
class="s7_300"
>Using the word/phrase </text>

<text 
x="380" 
y="900" 
dx="0,0,0,0,0,-0.1,0,0,-0.2,0,0,0,0,0,0,0,0,0,0,0,0,0,0,0,0,0,-0.2,0" 
class="s7_300"
>in orange as a clue, try to </text>

<text 
x="380" 
y="919" 
dx="0,0,0,0,0,-0.2,0,0,0,0,0,0,0,0,0,0,0,0,0,0,0,0,0" 
class="s7_300"
>figure out the meaning </text>

<text 
x="380" 
y="937" 
dx="0,-0.2,0,0,0,0,0,0,0,0,-0.2,0,0,0,0,0,-0.1,0,0,0,0,0,0,0" 
class="s7_300"
>of the words/phrases in </text>

<text 
x="380" 
y="955" 
dx="0,0,0,0,0,0,0,0,0,0,0,0,0,0,0,0,0,0,0,0,0,0,0,0,0,0,0" 
class="s7_300"
>blue; consult a dictionary </text>

<text 
x="380" 
y="974" 
dx="0,0,0,0,0,0,0,0,0,0,0,0,-1,0,0,0,0,0,0,0,0,0,0" 
class="s7_300"
>if necessary. Consider </text>

<text 
x="380" 
y="992" 
dx="0,0,0,0,0,0,0,0,0,0,0,-0.2,0,-0.1,0,0,0,0,0,0" 
class="s7_300"
>how the literal and </text>

<text 
x="380" 
y="1010" 
dx="0,-0.3,-0.3,-0.2,0,0,0,0,0,0,0,0,0,0,0,0,0,0,-0.2,0" 
class="s7_300"
>extended senses are </text>

<text 
x="380" 
y="1029" 
dx="0,-0.2,0,0,0,-0.2,0,0,0,0,0,0,0,0,0,0,0,0,0,0,0" 
class="s7_300"
>related in each case.</text>

<path d="M362.3,874.4l0,-56.3l-264.9,0L79,836.5l0,38.1Z" class="g3_300" />
<text 
x="187" 
y="856" 
dx="0,0" 
class="s8_300"
>留学</text>

<text 
x="90" 
y="908" 
dx="0,0,0,0,0,0,0,0,0,0" 
class="s9_300"
>我给小高打电话，他不</text>

<text 
x="90" 
y="935" 
dx="0,0,0,0,0,0,0,0,0,0" 
class="s9_300"
>在，我只好在电话上给</text>

<text 
x="90" 
y="963" 
dx="0" 
class="s9_300"
>他</text>

<text 
x="115" 
y="963" 
dx="0,0" 
class="s10_300"
>留言</text>

<text 
x="167" 
y="963" 
dx="0,0" 
class="s9_300"
>了。</text>

<text 
x="90" 
y="1021" 
dx="0,0,0,0,0,0,0,0,0,0" 
class="s9_300"
>我要回中国了，这本书</text>

<text 
x="90" 
y="1049" 
dx="0,0,0,0" 
class="s9_300"
>就送给你</text>

<text 
x="193" 
y="1049" 
dx="0,0" 
class="s10_300"
>留念</text>

<text 
x="245" 
y="1049" 
dx="0,0" 
class="s9_300"
>吧。</text>

<text 
x="668" 
y="856" 
dx="0,0" 
class="s11_300"
>留學</text>

<text 
x="570" 
y="908" 
dx="0,0,0,0,0,0,0,0,0,0" 
class="s12_300"
>我給小高打電話，他不</text>

<text 
x="570" 
y="935" 
dx="0,0,0,0,0,0,0,0,0,0" 
class="s12_300"
>在，我只好在電話上給</text>

<text 
x="570" 
y="963" 
dx="0" 
class="s12_300"
>他</text>

<text 
x="596" 
y="963" 
dx="0,0" 
class="s13_300"
>留言</text>

<text 
x="648" 
y="963" 
dx="0,0" 
class="s12_300"
>了。</text>

<text 
x="570" 
y="1021" 
dx="0,0,0,0,0,0,0,0,0,0" 
class="s12_300"
>我要回中國了，這本書</text>

<text 
x="570" 
y="1049" 
dx="0,0,0,0" 
class="s12_300"
>就送給你</text>

<text 
x="674" 
y="1049" 
dx="0,0" 
class="s13_300"
>留念</text>

<text 
x="726" 
y="1049" 
dx="0,0" 
class="s12_300"
>吧。</text>

<path d="M397.4,792.5l-89.9,0l-15.8,10.6l0,15" class="g7_300" />
<path d="M536.6,792.5l99.6,0l16.6,10.6l0,15" class="g7_300" />
<path d="M497.5,776.2c-1.5,2.9,-2.7,5.4,-5.2,10.9l-19.6,43.1l-0.8,0L460.6,805.6l-11.3,24.6l-0.9,0L428.3,786.9c-2,-4.3,-3.7,-7.7,-5.5,-10.7l7.7,0c0.9,2.5,2.2,5.6,3.9,9.2l15.2,34.1L458,799.8l-5.9,-12.9c-2.4,-5.5,-3.5,-7.7,-5.5,-10.7l7.2,0c0.9,2.5,1.7,4.6,4.3,10.1L461,793l2.9,-6.9c2.2,-5,3.2,-7.5,4.1,-9.9l6.6,0c-1.1,1.6,-2.8,5.2,-5.4,10.8l-5.6,12.1l8.8,20.1l14.2,-32.9c2.6,-5.7,3.5,-8.2,4.1,-10.1Z" class="g8_300" />
<path d="M498.8,807.7c6.3,0,11.3,5,11.3,11.2c0,6.2,-5,11.3,-11.3,11.3c-6.2,0,-11.2,-5.1,-11.2,-11.3c0,-6.2,5,-11.2,11.2,-11.2m0,20.2c4.8,0,8.6,-4,8.6,-9c0,-5,-3.8,-9,-8.6,-9c-4.7,0,-8.5,4,-8.5,9c0,5,3.8,9,8.5,9Z" class="g8_300" />
<path d="M514.6,824.3c0,2.1,0.1,4.5,0.2,5.5l-2.8,0c0.1,-1,0.1,-3.4,0.1,-5.5l0,-10.5c0,-2.2,0,-4.8,-0.1,-5.7l4.5,0c4.8,0,7.4,2.6,7.4,6.3c0,3.4,-2.1,5.2,-4.3,5.9c2.4,2.8,5.1,7.1,7.6,9.5l-3.6,0c-1.7,-2.3,-4.4,-5.9,-6.2,-9.1c-0.4,0.1,-0.7,0.1,-1,0.1l-1.8,0Zm0,-5.4l2.1,0c2.7,0,4.6,-1.8,4.6,-4.4c0,-2.3,-1.6,-4.4,-4.9,-4.4l-1.8,0Z" class="g8_300" />
<path d="M527.9,829.8c0.1,-1,0.1,-3.5,0.1,-5.7l0,-10.3c0,-2.2,0,-4.8,-0.1,-5.7l6.1,0c6,0,10.9,4.8,10.9,10.8c0,6,-4.9,10.9,-10.9,10.9Zm2.7,-2.2l3.2,0c4.7,0,8.5,-3.9,8.5,-8.7c0,-4.7,-3.8,-8.7,-8.5,-8.7l-3.2,0Z" class="g8_300" />
<path d="M556.2,824.1c0,3.6,-2.7,6.1,-6.6,6.1c-2,0,-3.3,-0.5,-4.9,-0.7l0,-3.7c0.8,1.4,2.8,2.4,5,2.4c2.3,0,3.7,-1.6,3.7,-3.8c0,-4.7,-8.1,-4.7,-8.1,-10.9c0,-3.7,2.7,-5.9,6.3,-5.9c1.7,0,2.7,0.5,4,0.6l0,3.5c-0.6,-1.4,-2.2,-2.1,-4,-2.1c-2.1,0,-3.6,1.3,-3.6,3.6c0,4.5,8.2,4.6,8.2,10.9Z" class="g8_300" />
<path d="M498.7,797.2l2.2,0c0.3,0,0.4,-0.1,0.5,-0.3l1.8,-5.1c0,-0.1,0.2,-0.2,0.3,-0.2l7.8,0c0.1,0,0.2,0,0.2,0.1c0,0,0.1,0.1,0.1,0.2l1.8,4.9c0.1,0.3,0.2,0.4,0.5,0.4l2.6,0c0.2,0,0.3,-0.1,0.3,-0.4c0,-0.1,0,-0.1,0,-0.2l-7.1,-19.7c-0.1,-0.3,-0.3,-0.5,-0.7,-0.5l-2.8,0c-0.2,0,-0.3,0.1,-0.4,0.1c-0.1,0.1,-0.1,0.2,-0.2,0.4l-7.1,19.7l-0.1,0.2c0,0.3,0.1,0.4,0.3,0.4m5.6,-8.2c-0.1,0,-0.2,-0.1,-0.2,-0.2l0,-0.2l3.1,-8.4c0.1,-0.1,0.1,-0.2,0.2,-0.2c0.1,0,0.2,0.1,0.2,0.2l3,8.4c0.1,0.1,0.1,0.2,0,0.3c0,0,-0.1,0.1,-0.2,0.1ZM533,776.4l-2.2,0c-0.2,0,-0.4,0,-0.4,0.1c-0.1,0,-0.2,0.1,-0.3,0.3l-4.8,8.5c-0.1,0.2,-0.2,0.2,-0.3,0.2c-0.1,0,-0.2,-0.1,-0.3,-0.3l-4.9,-8.4c-0.1,-0.1,-0.1,-0.2,-0.2,-0.3c-0.1,-0.1,-0.3,-0.1,-0.4,-0.1l-2.7,0c-0.3,0,-0.4,0.1,-0.4,0.3c0,0.1,0,0.2,0,0.3l6.8,11.2c0,0.1,0.1,0.3,0.1,0.4c0.1,0.1,0.1,0.2,0.1,0.4l0,7.7c0,0.3,0.2,0.5,0.5,0.5l2.2,0c0.3,0,0.4,-0.1,0.5,-0.1c0.1,-0.1,0.2,-0.3,0.2,-0.5l0,-7.6c0,-0.4,0,-0.6,0,-0.7c0,-0.1,0.1,-0.3,0.2,-0.4l6.6,-11c0.1,-0.2,0.1,-0.3,0,-0.4c0,0,-0.1,-0.1,-0.3,-0.1Z" class="g8_300" />
<path d="M402.8,797.2l1.5,0c0.2,0,0.3,-0.1,0.4,-0.2l1.2,-3.5c0.1,-0.1,0.2,-0.2,0.3,-0.2l5.4,0c0,0,0.1,0,0.1,0c0,0.1,0.1,0.1,0.1,0.2l1.2,3.4c0.1,0.2,0.2,0.3,0.4,0.3l1.8,0c0.2,0,0.2,-0.1,0.2,-0.3c0,0,0,-0.1,0,-0.1l-4.9,-13.7c-0.1,-0.2,-0.3,-0.4,-0.5,-0.4l-2,0c-0.1,0,-0.2,0.1,-0.2,0.1c-0.1,0.1,-0.2,0.1,-0.2,0.3l-5,13.7l0,0.1c0,0.2,0.1,0.3,0.2,0.3m3.9,-5.7c-0.1,0,-0.1,-0.1,-0.1,-0.2l0,-0.1l2.1,-5.8c0.1,-0.1,0.1,-0.2,0.2,-0.2c0,0,0.1,0.1,0.1,0.2l2.1,5.8c0,0.1,0,0.2,0,0.2c0,0.1,-0.1,0.1,-0.1,0.1Z" class="g8_300" />
<path d="M392,813.2l-1.1,0c-0.3,0,-0.4,0.1,-0.4,0.2l-3.8,13.5c-0.1,0.1,-0.1,0.2,-0.2,0.2c0,0,0,-0.1,-0.1,-0.2l-3.8,-13.4c0,-0.2,0,-0.2,-0.1,-0.3c-0.1,0,-0.2,0,-0.3,0l-1.3,0c-0.2,0,-0.3,0.1,-0.4,0.2l-3.8,13.5c-0.1,0.1,-0.1,0.2,-0.2,0.2c0,0,-0.1,-0.1,-0.1,-0.3l-3.7,-13.3c-0.1,-0.2,-0.2,-0.3,-0.4,-0.3l-1.5,0c-0.2,0,-0.4,0.1,-0.4,0.3c0,0,0.1,0.1,0.1,0.1l4.6,16.3c0.1,0.2,0.3,0.3,0.6,0.3l1.4,0c0.1,0,0.3,0,0.3,0c0.1,-0.1,0.2,-0.2,0.2,-0.3l3.7,-13c0.1,-0.2,0.1,-0.2,0.2,0l3.7,13c0,0.2,0.2,0.3,0.5,0.3l1.4,0c0.2,0,0.3,0,0.3,0c0.1,-0.1,0.2,-0.2,0.2,-0.3l4.7,-16.3c0.1,-0.1,0.1,-0.2,0,-0.3c0,-0.1,-0.1,-0.1,-0.3,-0.1m3.9,0c-0.2,0,-0.3,0.1,-0.3,0.3l0,16.4c0,0.1,0.1,0.2,0.1,0.3c0,0,0.1,0,0.3,0l1.4,0c0.2,0,0.3,0,0.3,0c0.1,-0.1,0.1,-0.2,0.1,-0.3l0,-16.4c0,-0.2,-0.1,-0.3,-0.2,-0.3Zm5.1,1.4c0,0.1,0.1,0.2,0.1,0.2c0.1,0,0.1,0.1,0.2,0.1l5,0c0.1,0,0.2,0,0.2,0c0,0,0.1,0.1,0.1,0.2l0,14.8c0,0.2,0.1,0.3,0.2,0.3l1.7,0c0.2,0,0.3,-0.1,0.3,-0.3l0,-14.8c0,-0.1,0,-0.2,0,-0.2c0.1,0,0.1,0,0.2,0l4.7,0c0.1,0,0.2,-0.1,0.2,-0.1c0,0,0.1,-0.1,0.1,-0.2l0,-1.2c0,-0.1,-0.1,-0.2,-0.3,-0.2l-12.4,0c-0.2,0,-0.3,0.1,-0.3,0.2Zm26.2,7.7c0.1,0,0.2,0,0.2,0.2l0,7.4c0,0.1,0,0.2,0.1,0.3c0,0,0.1,0,0.3,0l1.5,0c0.2,0,0.3,-0.1,0.3,-0.3l0,-16.4c0,-0.1,0,-0.2,-0.1,-0.3c0,0,-0.1,0,-0.2,0l-1.7,0c-0.1,0,-0.2,0.1,-0.2,0.3l0,6.7c0,0.2,-0.1,0.3,-0.3,0.3l-7.5,0c-0.1,0,-0.2,0,-0.2,0c0,-0.1,0,-0.2,0,-0.3l0,-6.7c0,-0.2,-0.1,-0.3,-0.3,-0.3l-1.7,0c-0.2,0,-0.3,0.1,-0.3,0.3l0,16.4c0,0.1,0.1,0.2,0.1,0.3c0.1,0,0.1,0,0.3,0l1.5,0c0.1,0,0.2,0,0.3,0c0,-0.1,0.1,-0.2,0.1,-0.3l0,-7.5l0,-0.1c0,0,0.1,0,0.1,0Z" class="g8_300" />
<path d="M881.6,1209.2l69.5,0l0,-1222.1l-69.5,0l0,1222.1Z" class="g9_300" />
<text 
transform="matrix(0, 1, -1, 0, 890, 859)"
dx="0,1,1,1,1,1,1,1,1" 
class="s14_300"
>Lesson 9 </text>

<text 
transform="matrix(0, 1, -1, 0, 890, 925)"
dx="0,1" 
class="s14_300"
>| </text>

<text 
transform="matrix(0, 1, -1, 0, 890, 938)"
dx="0,1,1,1,1,1,1,1,1,1" 
class="s14_300"
>Education </text>

<text 
transform="matrix(0, 1, -1, 0, 890, 1010)"
dx="0,1" 
class="s14_300"
>| </text>

<text 
transform="matrix(0, 1, -1, 0, 890, 1024)"
dx="0,0.1,1,0.8,1,1,1,1,1,1,1,0.9,1,1,1,1" 
class="s14_300"
>Words &amp; Phrases </text>

<text 
transform="matrix(0, 1, -1, 0, 890, 1150)"
dx="0,1,1,0" 
class="s14_300"
>277 </text>



<!-- Any embedded fonts defined here -->
<style type="text/css" ><![CDATA[

@font-face {
	font-family: LibreFranklin-ExtraBold_42g;
	src: url("fonts/LibreFranklin-ExtraBold_42g.woff") format("woff");
}

@font-face {
	font-family: STKaiti-SC-Bold_3oi;
	src: url("fonts/STKaiti-SC-Bold_3oi.woff") format("woff");
}

@font-face {
	font-family: STKaiTi-TC-Bold_3op;
	src: url("fonts/STKaiTi-TC-Bold_3op.woff") format("woff");
}

@font-face {
	font-family: LibreFranklin-Regular_42q;
	src: url("fonts/LibreFranklin-Regular_42q.woff") format("woff");
}

@font-face {
	font-family: LibreFranklin-SemiBold_42r;
	src: url("fonts/LibreFranklin-SemiBold_42r.woff") format("woff");
}

@font-face {
	font-family: STKaiTi-TC-Regular_3pl;
	src: url("fonts/STKaiTi-TC-Regular_3pl.woff") format("woff");
}

@font-face {
	font-family: STKaiti-SC-Regular_3pn;
	src: url("fonts/STKaiti-SC-Regular_3pn.woff") format("woff");
}

@font-face {
	font-family: LibreFranklin-Medium_42h;
	src: url("fonts/LibreFranklin-Medium_42h.woff") format("woff");
}

]]></style>

</svg>
