<?xml version="1.0" encoding="UTF-8" standalone="no"?>
<!DOCTYPE svg PUBLIC "-//W3C//DTD SVG 1.1//EN"
"http://www.w3.org/Graphics/SVG/1.1/DTD/svg11.dtd">


<!-- Page 108 -->
<svg x="0" y="0" width="921" height="1196" viewBox="0 0 921 1196" version="1.1" xmlns="http://www.w3.org/2000/svg" xmlns:xlink="http://www.w3.org/1999/xlink"
style="display: block;margin-left: auto;margin-right: auto;">
<defs>
<clipPath id="c0_108"><path d="M146,434.6l0.1,-96.1l680,0L826,434.6Z" /></clipPath>

<style type="text/css"><![CDATA[

.g1_108{
fill: none;
stroke: #7AAD35;
stroke-width: 2.2916667;
stroke-linecap: butt;
stroke-linejoin: miter;
}
.g2_108{
fill: none;
stroke: #7AAD35;
stroke-width: 1.5277778;
stroke-linecap: butt;
stroke-linejoin: miter;
stroke-miterlimit: 4;
}
.g3_108{
fill: none;
stroke: #7AAD35;
stroke-width: 0.5102778;
stroke-linecap: butt;
stroke-linejoin: miter;
stroke-miterlimit: 4;
}
.g4_108{
fill: none;
stroke: #7AAD35;
stroke-width: 1.3444444;
stroke-linecap: butt;
stroke-linejoin: miter;
stroke-miterlimit: 4;
}
.g5_108{
fill: none;
stroke: #7AAD35;
stroke-width: 0.44916672;
stroke-linecap: butt;
stroke-linejoin: miter;
stroke-miterlimit: 4;
}
.g6_108{
fill: #7AAD35;
stroke: #B2B3B7;
stroke-width: 1.5277778;
stroke-linecap: butt;
stroke-linejoin: miter;
stroke-miterlimit: 4;
}

.s1_108{
font-size: 15.28px;
font-family: LibreFranklin-ExtraBold_3ul;
fill: #3F3F40;
}
.s2_108{
font-size: 25.97px;
font-family: STKaiti-SC-Regular_3pn;
fill: #3F3F40;
}
.s3_108{
font-size: 25.97px;
font-family: STKaiti-SC-Bold_3oi;
fill: #749E3C;
}
.s4_108{
font-size: 25.97px;
font-family: STKaiTi-TC-Regular_3pl;
fill: #3F3F40;
}
.s5_108{
font-size: 25.97px;
font-family: STKaiTi-TC-Bold_3op;
fill: #749E3C;
}
.s6_108{
font-size: 14.51px;
font-family: LibreFranklin-Regular_3uw;
fill: #3F3F40;
}
.s7_108{
font-size: 14.51px;
font-family: LibreFranklin-SemiBoldIt_3vd;
fill: #67962C;
}
.s8_108{
font-size: 18.33px;
font-family: LibreFranklin-ExtraBold_3ul;
fill: #86B345;
}
.s9_108{
font-size: 27.50px;
font-family: STKaiti-SC-Bold_3oi;
fill: #3F3F40;
}
.s10_108{
font-size: 27.50px;
font-family: STKaiTi-TC-Bold_3op;
fill: #3F3F40;
}
.s11_108{
font-size: 22.92px;
font-family: LibreFranklin-Bold_3up;
fill: #7AAD35;
}
.s12_108{
font-size: 23.68px;
font-family: STKaiti-SC-Regular_3pn;
fill: #3F3F40;
}
.s13_108{
font-size: 23.68px;
font-family: STKaiTi-TC-Regular_3pl;
fill: #3F3F40;
}
.s14_108{
font-size: 16.81px;
font-family: LibreFranklin-Bold_3up;
fill: #939598;
}
.s15_108{
font-size: 11.08px;
font-family: LibreFranklin-SemiBold_3u_;
fill: #FFFFFF;
}

]]></style>

</defs>
<path d="M0,0
L0,1196
L921,1196
L921,0 Z " 
fill="#FFFFFF" stroke="none" />
<path d="M119.2,381.9l12.2,0" class="g1_108" />
<text 
x="169" 
y="71" 
dx="0,0" 
class="s1_108"
>6 </text>

<text 
x="239" 
y="73" 
dx="0,0,0,0,0,0,0,0,0,0,0,0" 
class="s2_108"
>出国得办护照、办签证，很</text>

<text 
x="551" 
y="73" 
dx="0,0" 
class="s3_108"
>麻烦</text>

<text 
x="603" 
y="73" 
dx="0" 
class="s2_108"
>。</text>

<text 
x="239" 
y="114" 
dx="0,0,0,0,0,0,0,0,0,0,0,0" 
class="s4_108"
>出國得辦護照、辦簽證，很</text>

<text 
x="551" 
y="114" 
dx="0,0" 
class="s5_108"
>麻煩</text>

<text 
x="603" 
y="114" 
dx="0" 
class="s4_108"
>。</text>

<text 
x="245" 
y="145" 
dx="0,-1.5,0,0,-0.1,0,0,0,0,-0.2,0,0,0,0,0,0,0,0,0,0,-0.4,0,0,-0.2,0,0,-0.1,-0.1,0,0,0,0,0,0,0,0,0,0,0,0,0,0,0,0,0,0,0,0,0,0,0,0,0,-0.2,0,0,0,0,0,0,0,0.4,-0.9,0,0,0,0,0,-0.2,0,0,0,0,0,0,0,0,0,0,0" 
class="s6_108"
>To go abroad you have to get your passport and visa ready; it’s quite a hassle. </text>

<text 
x="245" 
y="165" 
dx="0,0,0,0,0,0,0,0,0,-0.4,0" 
class="s7_108"
>[adjective]</text>

<text 
x="169" 
y="224" 
dx="0,0" 
class="s1_108"
>7 </text>

<text 
x="239" 
y="226" 
dx="0,0,0,0,0" 
class="s2_108"
>他这个人很</text>

<text 
x="369" 
y="226" 
dx="0,0" 
class="s3_108"
>麻烦</text>

<text 
x="421" 
y="226" 
dx="0,0,0,0,0,0,0,0,0,0,0,0" 
class="s2_108"
>，常常问一些很难的问题。</text>

<text 
x="239" 
y="266" 
dx="0,0,0,0,0" 
class="s4_108"
>他這個人很</text>

<text 
x="369" 
y="266" 
dx="0,0" 
class="s5_108"
>麻煩</text>

<text 
x="421" 
y="266" 
dx="0,0,0,0,0,0,0,0,0,0,0,0" 
class="s4_108"
>，常常問一些很難的問題。</text>

<text 
x="245" 
y="298" 
dx="0,0,0,0,0,0,0,0,0,0,0,0,0,0,-0.2,0,0,0,0,0,0,0,0,0,0,0,0,0,-0.2,0,-0.2,0,0,0,0,0,-0.2,0,0,0,0,0,0,0,0,0,0,0,0,0,0,0,0,0,0,-0.2,0,0,-0.4,0,0,0,0,0,0,0,0,0,0,0,0,0,0" 
class="s6_108"
>He can be quite a pain. He often asks questions that are very difficult. </text>

<text 
x="710" 
y="298" 
dx="0,0,0,0,0,0,0,0,0,-0.4,0" 
class="s7_108"
>[adjective]</text>

<text 
x="119" 
y="376" 
dx="0,0" 
class="s8_108"
>E </text>

<text 
x="195" 
y="380" 
dx="0,0,0,0,0,0,0,0,0,0,0" 
class="s9_108"
>这（就）要看…（了）/</text>

<text 
x="484" 
y="380" 
dx="0,0,0,0,0,0,0,0,0,0,0" 
class="s10_108"
>這（就）要看…（了） </text>

<text 
x="377" 
y="408" 
dx="0,0,0,0,0,0,0,0,0,0,0,0,0,0,0,0,0,0,0,0,0,0" 
class="s11_108"
>(It depends on . . . )</text>

<text 
x="157" 
y="480" 
dx="0,0,0,0,0,0,0,0,0,0" 
class="s12_108"
>这（就）要看…（了）</text>

<text 
x="394" 
y="479" 
dx="0" 
class="s6_108"
>/</text>

<text 
x="399" 
y="480" 
dx="0,0,0,0,0,0,0,0,0,0" 
class="s13_108"
>這（就）要看…（了）</text>

<text 
x="639" 
y="479" 
dx="0,0,0,0,0,0,0,0,0,0,0,0,0,-0.2,0,0,0,0,-0.4,0,0,0" 
class="s6_108"
>can be used to give a </text>

<text 
x="157" 
y="506" 
dx="0,0,0,-0.3,0,0,0,0,0,0,0,0,0,0,0,0,0,-0.2,0,0,0,0,-0.2,0,0,0,0,0,0,0,0,-0.2,0,0,0,0,0,0,0,0,0,0,0,0" 
class="s6_108"
>flexible or indirect response to a question.</text>

<text 
x="171" 
y="563" 
dx="0,0" 
class="s1_108"
>1 </text>

<text 
x="239" 
y="565" 
dx="0,0,0,0,0,0" 
class="s2_108"
>什么菜好吃？</text>

<text 
x="395" 
y="565" 
dx="0,0,0,0" 
class="s3_108"
>这就要看</text>

<text 
x="499" 
y="565" 
dx="0,0,0,0" 
class="s2_108"
>你的口味</text>

<text 
x="603" 
y="565" 
dx="0" 
class="s3_108"
>了</text>

<text 
x="629" 
y="565" 
dx="0" 
class="s2_108"
>。</text>

<text 
x="239" 
y="606" 
dx="0,0,0,0,0,0" 
class="s4_108"
>什麼菜好吃？</text>

<text 
x="395" 
y="606" 
dx="0,0,0,0" 
class="s5_108"
>這就要看</text>

<text 
x="499" 
y="606" 
dx="0,0,0,0" 
class="s4_108"
>你的口味</text>

<text 
x="603" 
y="606" 
dx="0" 
class="s5_108"
>了</text>

<text 
x="629" 
y="606" 
dx="0" 
class="s4_108"
>。</text>

<text 
x="245" 
y="637" 
dx="0,0,0,0,0,0,0,0,0,0,0,0,0,0,-0.2,0,0,0,0,0,0,0,0,0,0,0,0,0,0,0,0,0,0,0,0,0,0,0,0,0,0,0,0,0,0,0,0,0,0,0,0,0,-0.2,0" 
class="s6_108"
>What dishes are delicious? That depends on your taste.</text>

<text 
x="169" 
y="696" 
dx="0,0" 
class="s1_108"
>2 </text>

<text 
x="212" 
y="698" 
dx="0,0,0" 
class="s14_108"
>Q: </text>

<text 
x="238" 
y="698" 
dx="0,0,0,0,0,0,0,0,0" 
class="s2_108"
>明天的考试难不难？</text>

<text 
x="239" 
y="739" 
dx="0,0,0,0,0,0,0,0,0" 
class="s4_108"
>明天的考試難不難？</text>

<text 
x="245" 
y="770" 
dx="0,0,0,0,0,0,-0.2,0,0,0,0,-0.2,0,0,-0.9,0,0,-0.2,0,0,0,0,0,0,0,0,0,-0.2,0" 
class="s6_108"
>Will tomorrow’s test be hard?</text>

<text 
x="212" 
y="817" 
dx="0,0,0" 
class="s14_108"
>A: </text>

<text 
x="241" 
y="817" 
dx="0,0,0,0" 
class="s3_108"
>这就要看</text>

<text 
x="345" 
y="817" 
dx="0,0,0,0,0,0,0" 
class="s2_108"
>你准备得怎么样</text>

<text 
x="527" 
y="817" 
dx="0" 
class="s3_108"
>了</text>

<text 
x="553" 
y="817" 
dx="0" 
class="s2_108"
>。</text>

<text 
x="239" 
y="858" 
dx="0,0,0,0" 
class="s5_108"
>這就要看</text>

<text 
x="343" 
y="858" 
dx="0,0,0,0,0,0,0" 
class="s4_108"
>你準備得怎麼樣</text>

<text 
x="525" 
y="858" 
dx="0" 
class="s5_108"
>了</text>

<text 
x="551" 
y="858" 
dx="0" 
class="s4_108"
>。</text>

<text 
x="245" 
y="889" 
dx="0,0,0,0,0,0,0,0,0,0,0,0,0,0,0,0,0,0,0,0,0,0,0,0,0,0,0,0,0,0,0,-0.2,0,0,0,-0.2,0" 
class="s6_108"
>That depends on how well you prepare.</text>

<text 
x="169" 
y="948" 
dx="0,0" 
class="s1_108"
>3 </text>

<text 
x="212" 
y="950" 
dx="0,0,0" 
class="s14_108"
>Q: </text>

<text 
x="238" 
y="950" 
dx="0,0,0,0,0,0,0,0,0,0,0,0,0,0,0,0" 
class="s2_108"
>快放假了，寒假你打算去中国玩吗？</text>

<text 
x="239" 
y="991" 
dx="0,0,0,0,0,0,0,0,0,0,0,0,0,0,0,0" 
class="s4_108"
>快放假了，寒假你打算去中國玩嗎？</text>

<text 
x="245" 
y="1022" 
dx="0,0,0.4,-0.9,0,0,0,0,0,0,0,0,0,0,0,0,0,0,0,0,0,0,0,0,0,0,0,0,0,0,0,0,0,0,0,0,0,0,0,0,0,0,0,-0.1,0,0,0,0,0,-0.2,0,0,0,0,0,0,0,0,0,0,0,0,0,0,0,0,-0.2,0,0,0,0,-0.2,0,0,0" 
class="s6_108"
>It’s almost vacation time. Do you plan on going to China this winter break?</text>

<text 
x="212" 
y="1069" 
dx="0,0,0" 
class="s14_108"
>A: </text>

<text 
x="241" 
y="1069" 
dx="0,0,0,0" 
class="s3_108"
>这就要看</text>

<text 
x="345" 
y="1069" 
dx="0,0,0,0,0,0,0,0,0,0,0" 
class="s2_108"
>买得到买不到便宜的机票</text>

<text 
x="630" 
y="1069" 
dx="0" 
class="s3_108"
>了</text>

<text 
x="656" 
y="1069" 
dx="0" 
class="s2_108"
>。</text>

<text 
x="239" 
y="1110" 
dx="0,2.6,0,-0.5" 
class="s5_108"
>這就要看</text>

<text 
x="345" 
y="1110" 
dx="0,0.5,0,-1,0.5,0,0,0.5,0,0,0" 
class="s4_108"
>買得到買不到便宜的機票</text>

<text 
x="631" 
y="1110" 
dx="0" 
class="s5_108"
>了</text>

<text 
x="657" 
y="1110" 
dx="0" 
class="s4_108"
>。</text>

<text 
x="245" 
y="1141" 
dx="0,0,0,0,0,0,0,0,0,0,0,0,0,0,0,0,0,0,0,0,0,-0.1,0,0,0,0,0,0,0,0,0,0,0,0,0,0,0,0,0,0,0,0,0,0,0,0,0,0,0,0,0,0,0,0,-0.4,-0.1,0" 
class="s6_108"
>It all depends on whether I can buy a cheap plane ticket.</text>

<path d="M164.4,48c-0.1,0,-7.7,0.1,-7.7,7.7l0,19.7c0,0,0.1,7.6,7.7,7.6l22.4,0c0.1,0,7.6,-0.1,7.6,-7.6l0,-19.7c0,-0.1,-0.1,-7.7,-7.6,-7.7l-22.4,0Z" class="g2_108" />
<path d="M164.4,50.1c-0.6,0,-5.6,0.2,-5.6,5.6l0,19.7c0,0.5,0.2,5.6,5.6,5.6l22.4,0c0.6,0,5.6,-0.2,5.6,-5.6l0,-19.7c0,-0.6,-0.2,-5.6,-5.6,-5.6l-22.4,0Z" class="g3_108" />
<path d="M164.4,200.8c-0.1,0,-7.7,0.1,-7.7,7.7l0,19.6c0,0.1,0.1,7.7,7.7,7.7l22.4,0c0.1,0,7.6,-0.1,7.6,-7.7l0,-19.6c0,-0.1,-0.1,-7.7,-7.6,-7.7l-22.4,0Z" class="g2_108" />
<path d="M164.4,202.9c-0.6,0,-5.6,0.2,-5.6,5.6l0,19.6c0,0.6,0.2,5.7,5.6,5.7l22.4,0c0.6,-0.1,5.6,-0.3,5.6,-5.7l0,-19.6c0,-0.6,-0.2,-5.6,-5.6,-5.6l-22.4,0Z" class="g3_108" />
<g clip-path="url(#c0_108)">
<path d="M146.8,342.2l0,88.2l0,0.7l0.7,0l677.2,0l0.7,0l0,-0.7l0,-88.2l0,-0.7l-0.7,0l-677.2,0l-0.7,0l0,0.7Z" class="g4_108" />
</g>
<path d="M148.6,429.3l675,0l0,-86l-675,0l0,86Z" class="g5_108" />
<path d="M164.4,540c-0.1,0,-7.7,0.1,-7.7,7.6l0,19.7c0,0.1,0.1,7.7,7.7,7.7l22.4,0c0.1,0,7.6,-0.1,7.6,-7.7l0,-19.7c0,-0.1,-0.1,-7.6,-7.6,-7.6l-22.4,0Z" class="g2_108" />
<path d="M164.4,542c-0.6,0,-5.6,0.2,-5.6,5.6l0,19.7c0,0.6,0.2,5.6,5.6,5.6l22.4,0c0.6,0,5.6,-0.2,5.6,-5.6l0,-19.7c0,-0.5,-0.2,-5.6,-5.6,-5.6l-22.4,0Z" class="g3_108" />
<path d="M164.4,672.9c-0.1,0,-7.7,0.1,-7.7,7.6l0,19.7c0,0.1,0.1,7.7,7.7,7.7l22.4,0c0.1,0,7.6,-0.1,7.6,-7.7l0,-19.7c0,0,-0.1,-7.6,-7.6,-7.6l-22.4,0Z" class="g2_108" />
<path d="M164.4,674.9c-0.6,0,-5.6,0.2,-5.6,5.6l0,19.7c0,0.6,0.2,5.6,5.6,5.6l22.4,0c0.6,0,5.6,-0.2,5.6,-5.6l0,-19.7c0,-0.5,-0.2,-5.6,-5.6,-5.6l-22.4,0Z" class="g3_108" />
<path d="M164.4,925c-0.1,0,-7.7,0.1,-7.7,7.6l0,19.7c0,0.1,0.1,7.7,7.7,7.7l22.4,0c0.1,0,7.6,-0.1,7.6,-7.7l0,-19.7c0,-0.1,-0.1,-7.6,-7.6,-7.6l-22.4,0Z" class="g2_108" />
<path d="M164.4,927c-0.6,0,-5.6,0.2,-5.6,5.6l0,19.7c0,0.6,0.2,5.6,5.6,5.6l22.4,0c0.6,0,5.6,-0.2,5.6,-5.6l0,-19.7c0,-0.5,-0.2,-5.6,-5.6,-5.6l-22.4,0Z" class="g3_108" />
<path d="M881.6,1209.2l69.5,0l0,-1222.1l-69.5,0l0,1222.1Z" class="g6_108" />
<text 
transform="matrix(0, 1, -1, 0, 890, 830)"
dx="0,1,1,1,1,1,1,1,1" 
class="s15_108"
>Lesson 3 </text>

<text 
transform="matrix(0, 1, -1, 0, 890, 896)"
dx="0,1" 
class="s15_108"
>| </text>

<text 
transform="matrix(0, 1, -1, 0, 890, 909)"
dx="0,0.7,1,1,1,1,1,1,1,1,1,1,0.9,1,1,1" 
class="s15_108"
>At a Restaurant </text>

<text 
transform="matrix(0, 1, -1, 0, 890, 1017)"
dx="0,1" 
class="s15_108"
>| </text>

<text 
transform="matrix(0, 1, -1, 0, 890, 1031)"
dx="0,0.1,1,0.8,1,1,1,1,1,1,1,0.9,1,1,1,1" 
class="s15_108"
>Words &amp; Phrases </text>

<text 
transform="matrix(0, 1, -1, 0, 890, 1157)"
dx="0,1,0" 
class="s15_108"
>85 </text>



<!-- Any embedded fonts defined here -->
<style type="text/css" ><![CDATA[

@font-face {
	font-family: LibreFranklin-ExtraBold_3ul;
	src: url("fonts/LibreFranklin-ExtraBold_3ul.woff") format("woff");
}

@font-face {
	font-family: STKaiti-SC-Bold_3oi;
	src: url("fonts/STKaiti-SC-Bold_3oi.woff") format("woff");
}

@font-face {
	font-family: LibreFranklin-Regular_3uw;
	src: url("fonts/LibreFranklin-Regular_3uw.woff") format("woff");
}

@font-face {
	font-family: STKaiTi-TC-Bold_3op;
	src: url("fonts/STKaiTi-TC-Bold_3op.woff") format("woff");
}

@font-face {
	font-family: LibreFranklin-Bold_3up;
	src: url("fonts/LibreFranklin-Bold_3up.woff") format("woff");
}

@font-face {
	font-family: STKaiTi-TC-Regular_3pl;
	src: url("fonts/STKaiTi-TC-Regular_3pl.woff") format("woff");
}

@font-face {
	font-family: STKaiti-SC-Regular_3pn;
	src: url("fonts/STKaiti-SC-Regular_3pn.woff") format("woff");
}

@font-face {
	font-family: LibreFranklin-SemiBoldIt_3vd;
	src: url("fonts/LibreFranklin-SemiBoldIt_3vd.woff") format("woff");
}

@font-face {
	font-family: LibreFranklin-SemiBold_3u_;
	src: url("fonts/LibreFranklin-SemiBold_3u_.woff") format("woff");
}

]]></style>

</svg>
