<?xml version="1.0" encoding="UTF-8" standalone="no"?>
<!DOCTYPE svg PUBLIC "-//W3C//DTD SVG 1.1//EN"
"http://www.w3.org/Graphics/SVG/1.1/DTD/svg11.dtd">


<!-- Page 297 -->
<svg x="0" y="0" width="921" height="1196" viewBox="0 0 921 1196" version="1.1" xmlns="http://www.w3.org/2000/svg" xmlns:xlink="http://www.w3.org/1999/xlink"
style="display: block;margin-left: auto;margin-right: auto;">
<defs>
<clipPath id="c0_297"><path d="M0,1196.3L0,0L921.3,0l0,1196.3Z" /></clipPath>

<style type="text/css"><![CDATA[

.g1_297{
fill: #FFFFFF;
}
.g2_297{
fill: #5BB84E;
}
.g3_297{
fill: #2B7CC0;
}
.g4_297{
fill: none;
stroke: #DC262E;
stroke-width: 2.1679168;
stroke-linecap: butt;
stroke-linejoin: miter;
stroke-miterlimit: 4;
}
.g5_297{
fill: none;
stroke: #DC262E;
stroke-width: 0.7241667;
stroke-linecap: butt;
stroke-linejoin: miter;
stroke-miterlimit: 4;
}

.s1_297{
font-size: 12.99px;
font-family: LibreFranklin-Medium_4bz;
fill: #231F20;
}
.s2_297{
font-size: 22.92px;
font-family: STKaiti-SC-Bold_3mi;
fill: #DC262E;
}
.s3_297{
font-size: 16.42px;
font-family: GentiumBookBasic-Italic_3mn;
fill: #231F20;
}
.s4_297{
font-size: 29.03px;
font-family: MuseoSlab-900_4c1;
fill: #DC262E;
}
.s5_297{
font-size: 15.28px;
font-family: FreightSansCmpPro-Bold_4dd;
fill: #231F20;
}
.s6_297{
font-size: 11.46px;
font-family: LibreFranklin-SemiBold_4c4;
fill: #231F20;
}

]]></style>

</defs>
<path d="M0,0
L0,1196
L921,1196
L921,0 Z " 
fill="#FFFFFF" stroke="none" />
<image preserveAspectRatio="none" x="0" y="0" width="434" height="217" xlink:href="297/img/1.png" />
<image preserveAspectRatio="none" x="433" y="0" width="434" height="217" xlink:href="297/img/2.png" />
<image preserveAspectRatio="none" x="867" y="0" width="55" height="1197" xlink:href="297/img/3.png" />
<image preserveAspectRatio="none" x="0" y="217" width="54" height="980" xlink:href="297/img/4.png" />
<image preserveAspectRatio="none" x="813" y="217" width="54" height="490" xlink:href="297/img/5.png" />
<image preserveAspectRatio="none" x="542" y="543" width="271" height="110" xlink:href="297/img/6.png" />
<image preserveAspectRatio="none" x="54" y="598" width="488" height="109" xlink:href="297/img/7.png" />
<image preserveAspectRatio="none" x="542" y="652" width="55" height="55" xlink:href="297/img/8.png" />
<image preserveAspectRatio="none" x="650" y="652" width="163" height="55" xlink:href="297/img/9.png" />
<image preserveAspectRatio="none" x="54" y="707" width="54" height="490" xlink:href="297/img/10.png" />
<image preserveAspectRatio="none" x="108" y="1033" width="272" height="164" xlink:href="297/img/11.png" />
<image preserveAspectRatio="none" x="379" y="1142" width="488" height="55" xlink:href="297/img/12.png" />
<path d="M389.2,579l477.1,0l0,-394.7l-477.1,0l0,394.7Z" class="g1_297" />
<path d="M74.9,1078.2l385.7,0l0,-381.7l-385.7,0l0,381.7Z" class="g1_297" />
<image preserveAspectRatio="none" x="50" y="191" width="308" height="52" xlink:href="297/img/13.png" />
<image preserveAspectRatio="none" x="50" y="242" width="52" height="410" xlink:href="297/img/14.png" />
<image preserveAspectRatio="none" x="357" y="549" width="205" height="103" xlink:href="297/img/15.png" />
<image preserveAspectRatio="none" x="101" y="600" width="257" height="52" xlink:href="297/img/16.png" />
<image preserveAspectRatio="none" x="424" y="192" width="138" height="387" xlink:href="297/img/17.png" />
<path d="M53.3,244.8L96.8,626.9L538,576.7L494.5,194.5Z" class="g1_297" />
<image preserveAspectRatio="none" x="59" y="199" width="466" height="353" xlink:href="297/img/18.png" />
<path d="M53.3,244.8l-4.6,0.5L92.8,632L543.1,580.7L498.5,189.4L48.2,240.7l0.5,4.6l4.6,-0.5l0.5,4.5L490.4,199.6l42.5,373l-432,49.3L57.8,244.2l-4.5,0.6l0.5,4.5Z" class="g1_297" />
<path d="M216.2,560.1c-0.5,-0.7,-0.7,-1,-2.2,-1.8c-0.2,-0.2,-0.2,-0.3,-1.6,-0.6c-1,-0.2,-2.7,-0.3,-4.3,-0.1c-4.8,0.6,-8.7,3.2,-10.7,5c-0.2,0.2,-0.3,0.4,-0.3,0.8c0.1,0.6,1.7,2.2,2.2,2.1c0.1,0,0.2,0,0.2,0.2c-0.3,0.9,-0.5,2.6,-0.9,3.3c-0.3,0.4,-0.3,0.5,-0.5,1.5c-1.6,7.1,-2.9,14.3,-3.1,21.5c0.1,0.7,1,0.9,1.3,1c0.9,0.3,0.8,0.5,1.4,0.4c1.5,-0.2,2.2,-0.7,2.1,-1.2c-0.2,-1.8,0,-7.3,0.9,-12.1c0.1,-0.3,0.2,-0.5,0.4,-0.5c0.2,-0.1,0.3,-0.1,0.5,0.3c3.6,4.9,6.3,9.5,12.2,12.4c1.8,0.8,3.4,1.3,4.7,1.2c0.8,-0.1,1.6,-0.5,1.6,-1c-0.2,-1,-1.3,-2.6,-2,-2.7c-1.2,-0.1,-2.2,-0.3,-4.1,-1.7c-0.9,-0.7,-1.9,-1.5,-3.4,-2.8c-0.3,-0.3,-0.4,-0.4,-0.6,-0.7c-1.4,-1.9,-3.4,-3.9,-4.3,-5.6c0,-0.3,0.1,-0.4,0.4,-0.5c3.8,-1.6,6.4,-2.7,8.2,-5.1c2.5,-3.5,3.4,-7,3.1,-9.6c-0.2,-1.8,-0.8,-3.1,-1.2,-3.7m-4,1c0.2,0.2,0.4,0.6,0.5,1.4c0.5,4.7,-2,8.6,-5,11c-1.3,1.1,-1.5,0.8,-2.4,1.2c-0.7,0.4,-1,0.5,-1.7,0.6c-0.5,0,-1.1,0,-1.5,-0.2C202,575,202,574.9,201.9,574.7c1.1,-5.3,2.2,-8.6,3.9,-12.5c0.2,-0.3,0.4,-0.4,0.7,-0.6c1,-0.5,2.1,-0.9,3.3,-1c0.9,-0.1,1.8,0.1,2.4,0.5m30.5,3.5c-0.1,-0.3,-0.6,-0.7,-0.9,-0.9c-1.1,-0.9,-2.2,-1.3,-3.4,-1.2c-0.4,0,-0.8,0.1,-1.2,0.3c-3,1.3,-5.6,2.9,-8,5.2c-1.4,1.3,-4.1,3.8,-6.7,8.8c-2.2,4.2,-2.5,6.5,-2.3,8.2c0.2,2,1.2,2.8,1.5,3c2.7,1.8,3.4,2.1,4,2c0.2,0,0.5,-0.2,0.8,-0.3c1.8,-0.9,3.4,-1.8,5.9,-4.7l2.6,-3c0.5,-0.7,0.9,-1.1,1.1,-1.1c0.2,0,0.2,0,0.3,0.2c0,0.2,-0.1,1.1,0.1,2.7c0.1,1.5,0.5,3,1.4,4.5c0.4,0.6,1.6,0.9,2.4,0.8c0.3,-0.1,0.7,-0.3,1,-0.3c0.9,-0.3,1,-0.8,1,-0.9l-0.1,-0.3c-1,-1.2,-1.5,-2.5,-1.6,-3.9c-0.2,-1.6,0,-3.3,0.2,-4.8c0.5,-4.2,2.9,-8.5,4.9,-12c0.1,-0.1,0.1,-0.4,0.1,-0.6c0,-0.1,0,-0.1,-0.1,-0.3c-0.5,-0.6,-1.3,-0.5,-1.6,-0.5c-0.6,0.1,-1.1,-0.3,-1.4,-0.9m-3.3,1.1c0.9,-0.1,1.3,0.6,1.3,0.9c0.1,0.4,0,0.7,-0.1,0.9c-0.6,0.6,-1.1,1.4,-1.3,2.2c-2.2,5.3,-7.4,9.5,-11.8,14.7c-0.8,1,-2,1.7,-2.4,1.8c-1,0.1,-1.3,-0.7,-1.3,-1.3c-0.2,-1.6,1.2,-4.9,3.1,-7.9c2.6,-4,6.2,-7.3,10.9,-10.6c0.7,-0.4,1.4,-0.7,1.6,-0.7m21.1,16.4c0.5,-0.5,0.8,-0.9,0.7,-1.5c0,-0.2,0,-0.5,-0.4,-0.7c-0.3,-0.2,-0.9,-0.3,-1.4,-0.2c-0.8,0.1,-1.1,0.4,-2.3,1.4c-2,1.8,-2.5,2.2,-3.7,2.3c-0.9,0.1,-1.1,-1.1,-1.1,-1.6c-0.1,-0.8,0,-2.9,0.6,-5.4c0.6,-2,1.6,-5.8,2.3,-7.9c0.9,-2.7,3,-4.3,2.7,-7.1c-0.1,-0.5,-0.3,-0.6,-0.6,-0.8c-0.4,-0.3,-1.1,-0.3,-1.6,-0.2c-1,0.1,-2.1,0.5,-2.5,1.7c-1.5,4.3,-2.6,8.3,-3.8,12.4c-0.3,0.8,-0.4,1.7,-0.6,2.7c-0.4,1.9,-0.5,3.1,-0.4,4.4c0.1,0.8,0.2,1.5,0.5,2.2c0.9,1.9,2.9,4,4.5,3.8c2.4,-0.3,4.2,-2,5.2,-3.2Zm0.9,-33.4c-0.5,-0.3,-1.5,-0.5,-2.4,-0.4c-1.1,0.1,-2,0.5,-2.5,1.2c-0.4,0.6,-0.5,1.6,-0.4,2.3c0.1,0.6,0.3,1.3,0.6,1.8c0.3,0.4,1.2,0.9,2.2,0.8c1.2,-0.1,2.3,-1.7,3.1,-3c0.2,-0.3,0.2,-0.7,0.2,-1c-0.1,-0.5,-0.2,-1.1,-0.8,-1.7m5.7,37.5c4.1,-0.4,5.8,-4.7,8.2,-7.9c0.4,-0.7,0.9,-1,0.9,-1.6c-0.1,-0.9,-1.6,-1.1,-2,-1.1c-2.4,0.3,-4.5,5.1,-6.7,6.8c-0.2,0.2,-0.6,0.3,-0.9,0.3c-0.4,0.1,-0.9,0,-1.1,-0.5c-0.3,-0.6,-0.4,-1.3,-0.5,-1.9c-0.3,-2.3,0.7,-4.5,1.3,-6.8c2.2,-8.6,6.9,-16.4,10.9,-24.7c0.2,-0.6,0.4,-1.3,0.3,-2c-0.1,-0.5,-0.2,-0.9,-0.6,-1.4c-0.3,-0.3,-0.9,-0.5,-1.4,-0.4c-0.6,0,-1,0.2,-1.8,0.3c-2.1,0.2,-2,3.2,-2.8,4.9c-3.2,7.3,-7,16.4,-8.6,22.6c-0.8,3.2,-1.6,5.7,-1.4,8.2c0.1,0.6,0.2,1.2,0.4,1.8c0.9,2.8,5.4,3.5,5.8,3.4m36.2,-39.3c0.1,-0.4,0,-0.5,0,-0.6c0,-0.2,-0.2,-0.3,-0.5,-0.3c-0.7,-0.2,-1.6,-0.3,-2.1,-0.2c-0.5,0,-0.6,0.3,-1.4,0.4c-0.2,0,-0.3,0,-0.5,0.8c-1.4,4,-2.4,8.3,-3.3,11.7c-0.3,1.2,-0.4,2,-0.5,2.6c-0.1,0.5,-0.4,0.8,-0.8,0.9c-1,0.1,-2.4,-0.6,-3.6,-0.5c-0.5,0.1,-0.7,0.2,-1,0.4c-0.4,0.3,-0.6,0.4,-0.6,0.8c0,0.1,0.1,0.4,0.4,0.6c1.3,0.8,1.8,2.2,3.8,2.9c0.2,0.1,0.3,0.2,0.3,0.3c0,0.1,0,0.2,-0.1,0.4c-1.2,4.3,-1.6,9,-2.5,13.1c-0.1,0.5,-0.1,1.2,0,1.6c0,0.5,0.2,1,0.7,1.2c0.4,0.3,1.3,0.5,2,0.4c0.2,0,0.5,-0.1,0.7,-0.3c0.7,-0.4,1.1,-1.9,1.1,-2.3c0,-2.7,1.3,-7.5,1.4,-9.2c0.1,-0.6,0.3,-1.2,0.4,-1.8c0.2,-0.8,0.3,-1.9,0.6,-2.7c0.2,-0.4,0.5,-0.7,1,-0.9c1,-0.5,5.4,-2,7.9,-3.3c0.9,-0.5,0.9,-0.6,2.3,-1.4c1.1,-0.6,1.6,-1.5,1.5,-2.2c-0.1,-0.6,-1.8,-1.2,-2.8,-1.1c-0.1,0,-0.3,0.1,-0.5,0.3c-1.6,1.3,-4.5,2.8,-6.8,3.5c-0.5,0.2,-1.2,0.3,-1.3,0.4l-0.3,-0.2c0,-0.1,0.5,-2.2,0.9,-3.4c1.3,-3.8,3.4,-7.7,3.6,-11.9m8.8,9.7c-0.2,-0.3,-1.1,-0.5,-1.8,-0.4c-1.3,0.1,-2,1,-2,1.4c0.1,0.5,0.6,0.8,0.6,1.2c0.1,0.1,0,0.3,0,0.8c-0.3,4.4,-1.4,8.5,-2.2,12.7c-0.4,2.1,-2.5,4.1,-2.3,5.9c0.2,0.7,0.7,1.5,1.3,1.9c0.4,0.4,0.8,1,1.7,1c0.2,-0.1,0.7,-0.3,0.9,-0.6c0.3,-0.3,0.8,-1.1,1,-2.7c1,-8,6.2,-13.4,11.7,-16.8c0.4,-0.3,0.7,-0.3,0.8,-0.3c0.8,-0.1,1.7,0.3,2.5,0.2c0.4,0,1.7,-0.9,1.6,-2.5c-0.1,-0.3,-0.3,-0.7,-0.5,-0.9c-1,-0.9,-2.6,-1.2,-4.1,-1c-0.1,0,-0.4,0.1,-0.6,0.2c-1.8,0.8,-4.2,2.6,-6.9,5.2c-0.4,0.4,-0.6,0.5,-0.6,0.5c-0.2,0,-0.2,-0.1,-0.2,-0.2c0,-0.1,0,-0.2,0.1,-0.9c0.1,-0.7,0.2,-1.3,0.1,-1.8c-0.1,-1.3,-0.6,-2.2,-1.1,-2.9M344.6,553c-0.1,-0.3,-0.6,-0.7,-0.9,-0.9c-1.1,-0.9,-2.2,-1.3,-3.4,-1.2c-0.4,0,-0.8,0.1,-1.2,0.3c-3,1.2,-5.6,2.9,-8,5.1c-1.5,1.4,-4.1,3.9,-6.7,8.9c-2.2,4.2,-2.5,6.5,-2.3,8.2c0.2,2,1.2,2.8,1.5,3c2.7,1.8,3.4,2.1,4,2c0.2,0,0.5,-0.2,0.8,-0.3c1.8,-0.9,3.4,-1.8,5.9,-4.7l2.6,-3c0.5,-0.7,0.9,-1.1,1.1,-1.1c0.2,0,0.2,0,0.3,0.2c0,0.2,-0.1,1.1,0.1,2.7c0.1,1.5,0.5,3,1.4,4.5c0.4,0.6,1.6,0.9,2.4,0.8c0.3,-0.1,0.7,-0.3,1,-0.4c0.9,-0.2,1,-0.7,1,-0.8L344.1,576c-1,-1.2,-1.5,-2.5,-1.6,-3.9c-0.2,-1.6,0,-3.3,0.2,-4.8c0.5,-4.2,2.9,-8.5,4.9,-12c0.1,-0.1,0.1,-0.4,0.1,-0.6c0,-0.1,0,-0.1,-0.1,-0.3c-0.5,-0.6,-1.3,-0.5,-1.6,-0.5c-0.6,0.1,-1.1,-0.4,-1.4,-0.9m-3.3,1.1c0.9,-0.1,1.3,0.6,1.3,0.9c0.1,0.4,0,0.7,-0.1,0.9c-0.6,0.6,-1.1,1.4,-1.3,2.2c-2.2,5.3,-7.4,9.5,-11.8,14.7c-0.8,1,-2,1.7,-2.4,1.8c-1,0.1,-1.3,-0.7,-1.3,-1.3c-0.2,-1.6,1.2,-4.9,3.1,-7.9c2.6,-4,6.2,-7.3,10.9,-10.6c0.7,-0.4,1.4,-0.7,1.6,-0.7m14.5,3.4c0.3,-2.8,1.3,-3.2,1,-6.5c-0.1,-0.4,-0.2,-0.6,-0.4,-0.8c-0.5,-0.3,-1,-0.3,-1.6,-0.2c-0.4,0,-0.8,0,-1.2,0c-0.2,0,-1.1,0.5,-1.2,1.3c0,4.4,-0.7,8.8,-1.3,13.2c-0.4,3,-0.3,3.3,-0.4,4.1c-0.2,1.5,-0.2,2.2,-0.1,3.3c0,0.4,0.1,0.9,0.3,1.2c0.4,1,0.6,1.1,2.4,2c1.1,0.6,1.5,1.2,2.6,1.1c0.7,-0.1,1.4,-0.6,1.8,-1.1c0.5,-0.7,0.9,-1,1.8,-2.4c2.7,-4.3,4.8,-8.8,5.5,-13.8c0.2,-1.3,0.3,-1.5,0.5,-1.7c0.2,-0.3,0.4,-0.3,0.7,-0.3c0.7,-0.1,1.6,0.1,2.3,0c0.3,0,0.8,-0.2,1.2,-0.4c1.3,-0.8,4.1,-1.4,6.7,-3.3c0.4,-0.2,0.4,-0.3,0.4,-0.4c-0.1,-0.6,-0.2,-0.8,-0.9,-1.1c-0.9,-0.5,-1.9,-0.6,-2.5,-0.5c-2.4,0.3,-4.2,2.3,-6.6,2.5c-0.8,0.1,-1.7,-0.1,-2.7,-1.4c-0.9,-1.1,-1.6,-1.2,-3,-1.1c-1.1,0.1,-1.6,0.8,-1.5,1.5c0.1,0.5,0.5,1.1,0.9,1.4c0.4,0.3,0.7,0.9,0.8,1.4c0.1,1.1,0,2.3,-0.1,2.9c-0.3,0.7,-0.2,1.2,-0.5,2.3c-1.1,3.9,-2.9,7.9,-4.5,10.3c-0.5,0.7,-1,0.8,-1.3,0.9c-0.2,0,-0.5,-0.1,-0.5,-0.3c0,-0.2,0,-0.3,0.1,-1c0.4,-4.4,0.9,-8.8,1.3,-13.1m26.6,14.8c7.6,-5.4,8.4,-8.2,10.7,-10.6c0.3,-0.3,0.2,-0.6,0.2,-0.8c0,-0.2,0,-0.2,0,-0.7c-0.1,-0.5,-0.9,-1,-1.2,-1c-0.2,0.1,-0.5,0.1,-1,0.5c-3,2.4,-4.9,5.5,-8.3,7.9c-2.3,1.6,-3.1,1.9,-4,2c-0.5,0,-1,0,-1.6,-0.3c-0.6,-0.2,-1.5,-1.2,-1.6,-2c0,-0.2,0,-0.3,0.3,-0.5c4.2,-3,7.8,-8.1,11,-12.7c0.7,-0.9,1,-1.5,1.4,-2.7c0.5,-1.3,1,-2.5,0.8,-3.9c-0.2,-2.1,-1.4,-3,-2,-3.1c-1.1,-0.3,-1.9,-0.4,-3.3,-0.2c-2.7,0.3,-4.7,1.9,-5.5,3c-3.5,4.8,-6.6,9.9,-7.5,15.4c-0.1,0.8,-0.1,1.3,0,1.8c0.1,1,0.6,3,1.1,4c0.8,1.7,1.9,2.9,3.1,3.4c0.4,0.2,2.3,0.8,3.5,1.1c0.9,0.2,1.4,0.2,2.1,0.1c0.7,0,0.9,-0.1,1.8,-0.7M384,550.5c-0.6,1.2,-0.3,1.3,-1,2.4c-2.1,3.1,-4.4,6.3,-7.2,9.1c-0.2,0.1,-0.3,0.2,-0.4,0.2c0,0,-0.1,-0.1,-0.1,-0.3c0.6,-4.8,3.8,-9.6,6.9,-13.1c0.5,-0.5,0.5,-0.4,1,-0.8c0.5,-0.4,0.8,-0.6,1.1,-0.6c0.3,-0.1,0.3,0.2,0.4,0.6c0.1,0.9,-0.3,1.7,-0.7,2.5m13.6,20.9c4.1,-0.5,5.8,-4.8,8.2,-8c0.5,-0.7,1,-0.9,0.9,-1.6c-0.1,-0.9,-1.5,-1.1,-1.9,-1c-2.5,0.2,-4.6,5.1,-6.8,6.8c-0.2,0.1,-0.5,0.2,-0.8,0.3c-0.5,0,-1,-0.1,-1.2,-0.5c-0.3,-0.7,-0.4,-1.3,-0.5,-2c-0.2,-2.3,0.7,-4.5,1.3,-6.7c2.2,-8.7,7,-16.4,10.9,-24.8c0.3,-0.6,0.4,-1.2,0.3,-1.9c0,-0.6,-0.2,-1,-0.6,-1.5c-0.3,-0.3,-0.9,-0.4,-1.4,-0.4c-0.6,0.1,-1,0.2,-1.7,0.3c-2.1,0.3,-2.1,3.3,-2.8,4.9c-3.3,7.4,-7,16.4,-8.6,22.6c-0.9,3.2,-1.7,5.8,-1.4,8.2c0,0.6,0.2,1.2,0.3,1.8c0.9,2.9,5.4,3.5,5.8,3.5Z" class="g2_297" />
<image preserveAspectRatio="none" x="676" y="689" width="210" height="51" xlink:href="297/img/19.png" />
<image preserveAspectRatio="none" x="729" y="740" width="157" height="51" xlink:href="297/img/20.png" />
<image preserveAspectRatio="none" x="833" y="790" width="53" height="354" xlink:href="297/img/21.png" />
<image preserveAspectRatio="none" x="781" y="942" width="53" height="202" xlink:href="297/img/22.png" />
<image preserveAspectRatio="none" x="363" y="1043" width="262" height="101" xlink:href="297/img/23.png" />
<image preserveAspectRatio="none" x="624" y="1093" width="157" height="51" xlink:href="297/img/24.png" />
<image preserveAspectRatio="none" x="363" y="1054" width="98" height="25" xlink:href="297/img/25.png" />
<image preserveAspectRatio="none" x="363" y="690" width="212" height="22" xlink:href="297/img/26.png" />
<image preserveAspectRatio="none" x="363" y="696" width="55" height="340" xlink:href="297/img/27.png" />
<path d="M422.4,692.3l-56.6,357.9l438.5,69.5L861,761.8Z" class="g1_297" />
<image preserveAspectRatio="none" x="381" y="698" width="473" height="350" xlink:href="297/img/28.png" />
<path d="M422.4,692.3l-4.5,-0.7L360.5,1054l447.6,70.9L866.2,758L418.6,687.1l-0.7,4.5l4.5,0.7l-0.7,4.5l434.1,68.8l-55.3,348.8L371,1046.4L427,693l-4.6,-0.7l-0.7,4.5Z" class="g1_297" />
<path d="M465.5,1015.3c0.1,-0.6,-2.5,-3.1,-4.4,-3.4c-5.5,-0.9,-10.7,0,-15.7,-0.8c-3.5,-0.5,-3.6,-0.9,-4,-1c-0.4,-0.1,-1.3,0.4,-1.5,1.7c-0.2,1.3,-0.2,1.4,-0.1,1.5c0.4,0.6,1.7,1.2,2.8,1.3c1.3,0.2,3.1,0.3,3.9,0.4c0.3,0,0.3,0.1,0.3,0.2c-5.1,7.2,-8.8,14.7,-12.3,22.9c-0.1,0.5,-0.5,1.9,-0.6,2.2c0,0.3,0.3,1.2,0.5,1.4c0.8,0.6,1.8,1.3,2.5,1.4c1.3,0.2,1.6,-0.5,1.7,-1.5c0.1,-0.4,0.1,-0.8,0.2,-1.3c0.1,-0.6,0.3,-0.9,0.5,-1.8c3.2,-8.7,7.4,-15.7,13.1,-22.6l0.2,-0.3c0,-0.1,-0.1,-0.4,-0.3,-0.7c2.3,0,5,0,8,0.5c0.6,0.1,0.7,0.3,1.6,0.8c0.7,0.5,0.6,0.8,1,0.9c0.8,0.1,1.3,-0.3,1.7,-0.3c0.3,-0.1,0.7,-0.5,0.9,-1.5m-4.9,7c-0.1,-0.3,-0.9,-0.8,-1.6,-0.9c-1.3,-0.2,-2.2,0.4,-2.3,0.8c0,0.5,0.3,1,0.3,1.3c0,0.1,-0.1,0.4,-0.2,0.8c-1.6,4.1,-3.7,7.9,-5.6,11.7c-1,1.9,-3.5,3.3,-3.8,5.1c0,0.6,0.3,1.5,0.7,2.1c0.3,0.5,0.6,1.2,1.4,1.4c0.3,0,0.8,-0.1,1.1,-0.3c0.4,-0.2,1.1,-0.8,1.7,-2.4c3.1,-7.4,9.5,-11.2,15.7,-13c0.5,-0.1,0.7,-0.1,0.9,-0.1c0.7,0.1,1.5,0.8,2.3,0.9c0.4,0.1,1.9,-0.4,2.2,-2c0,-0.3,-0.1,-0.7,-0.2,-1c-0.8,-1.2,-2.2,-1.8,-3.7,-2.1c-0.1,0,-0.4,0,-0.6,0c-2,0.4,-4.8,1.5,-8,3.2c-0.5,0.3,-0.7,0.3,-0.8,0.3c-0.2,0,-0.1,-0.1,-0.1,-0.2c0,-0.1,0.1,-0.2,0.3,-0.8c0.3,-0.6,0.5,-1.2,0.6,-1.8c0.2,-1.2,0.1,-2.2,-0.3,-3m32.3,5.2c-0.1,-0.3,-0.4,-0.8,-0.6,-1.2c-0.8,-1.1,-1.8,-1.8,-3,-2c-0.4,-0.1,-0.8,-0.1,-1.2,0c-3.2,0.4,-6.2,1.3,-9.1,2.8c-1.8,0.9,-5,2.6,-8.9,6.7c-3.2,3.5,-4.1,5.6,-4.4,7.3c-0.3,2.1,0.5,3.1,0.7,3.3c2.2,2.4,2.7,2.9,3.3,3c0.2,0,0.6,0,0.9,-0.1c1.9,-0.3,3.8,-0.8,6.9,-2.9l3.3,-2.2c0.7,-0.5,1.2,-0.8,1.4,-0.8c0.2,0.1,0.2,0.1,0.2,0.3c-0.1,0.2,-0.4,1,-0.7,2.6c-0.2,1.5,-0.2,3.1,0.2,4.7c0.2,0.8,1.3,1.3,2.1,1.4c0.3,0.1,0.7,0,1.1,0c0.9,0,1.2,-0.5,1.2,-0.6l-0.1,-0.3c-0.6,-1.4,-0.7,-2.8,-0.5,-4.2c0.3,-1.6,0.9,-3.1,1.5,-4.5c1.7,-3.9,5.1,-7.5,7.9,-10.3c0.2,-0.1,0.3,-0.3,0.3,-0.5c0.1,-0.1,0.1,-0.2,0,-0.3c-0.3,-0.7,-1.1,-0.9,-1.4,-1c-0.6,-0.1,-1,-0.6,-1.1,-1.2m-3.5,0.2c0.9,0.1,1.1,0.9,1.1,1.2c-0.1,0.3,-0.2,0.6,-0.4,0.8c-0.7,0.5,-1.4,1.1,-1.9,1.7c-3.5,4.6,-9.6,7.3,-15.2,11.1c-1.1,0.8,-2.4,1.1,-2.8,1.1c-1,-0.2,-1.1,-1,-1,-1.6c0.3,-1.6,2.5,-4.4,5.2,-6.7c3.5,-3.2,7.9,-5.5,13.3,-7.3c0.7,-0.3,1.6,-0.3,1.7,-0.3m13.1,7.1c1,-2.6,2.1,-2.7,2.6,-6c0.1,-0.4,0.1,-0.6,-0.1,-0.8c-0.4,-0.5,-0.9,-0.6,-1.5,-0.7c-0.4,0,-0.8,-0.2,-1.2,-0.3c-0.2,0,-1.2,0.2,-1.4,1c-1.2,4.2,-3.1,8.3,-4.8,12.3c-1.2,2.8,-1.2,3.1,-1.5,3.8c-0.6,1.4,-0.8,2.1,-1,3.2c0,0.4,-0.1,0.9,0,1.3c0.1,1,0.3,1.2,1.7,2.5c0.9,0.9,1.2,1.6,2.3,1.7c0.6,0.2,1.5,-0.1,2,-0.5c0.7,-0.6,1.2,-0.7,2.4,-1.8c3.7,-3.5,7,-7.2,9,-11.8c0.5,-1.2,0.7,-1.5,0.9,-1.6c0.3,-0.2,0.5,-0.2,0.8,-0.1c0.7,0.1,1.5,0.6,2.2,0.7c0.3,0,0.8,-0.1,1.3,-0.2c1.4,-0.3,4.2,-0.1,7.3,-1.3c0.4,-0.1,0.4,-0.2,0.5,-0.3c0,-0.6,0,-0.8,-0.5,-1.3c-0.8,-0.7,-1.8,-1,-2.4,-1.1c-2.3,-0.4,-4.7,1,-7,0.6c-0.8,-0.1,-1.6,-0.5,-2.3,-2.1c-0.5,-1.2,-1.2,-1.6,-2.5,-1.8c-1.1,-0.2,-1.8,0.3,-1.9,1c-0.1,0.5,0.2,1.2,0.5,1.6c0.3,0.4,0.5,1,0.4,1.6c-0.2,1.1,-0.6,2.2,-0.9,2.7c-0.4,0.7,-0.5,1.1,-1.1,2.1c-2,3.4,-4.9,6.9,-7.1,8.8c-0.6,0.5,-1.1,0.5,-1.4,0.4c-0.2,0,-0.4,-0.2,-0.4,-0.3c0,-0.3,0,-0.3,0.3,-1c1.6,-4.1,3.3,-8.2,4.8,-12.3m21.7,21.4c8.7,-3.2,10.3,-5.6,13.1,-7.4c0.3,-0.2,0.4,-0.5,0.4,-0.7c0,-0.2,0.1,-0.2,0.2,-0.7c0.1,-0.5,-0.6,-1.1,-0.9,-1.2c-0.2,0,-0.5,-0.1,-1.1,0.2c-3.5,1.5,-6.2,4,-10.1,5.4c-2.6,0.9,-3.4,1,-4.3,0.8c-0.6,-0.1,-1.1,-0.2,-1.6,-0.7c-0.4,-0.3,-1.1,-1.5,-0.9,-2.4c0,-0.1,0.1,-0.2,0.4,-0.3c4.8,-1.8,9.7,-5.8,14,-9.3c0.9,-0.7,1.4,-1.2,2.1,-2.2c0.8,-1.2,1.6,-2.3,1.8,-3.6c0.3,-2.1,-0.6,-3.3,-1.2,-3.6c-1,-0.5,-1.7,-0.8,-3.1,-1.1c-2.6,-0.4,-5,0.7,-6,1.5c-4.7,3.7,-9.1,7.7,-11.4,12.9c-0.3,0.7,-0.5,1.2,-0.5,1.7c-0.2,1,-0.2,3,0,4.2c0.3,1.8,1.1,3.3,2,4c0.4,0.3,2.1,1.4,3.2,2c0.8,0.5,1.3,0.6,1.9,0.7c0.7,0.1,1,0.2,2,-0.2m7.3,-20.6c-0.8,1,-0.7,1.2,-1.6,2c-2.8,2.5,-5.9,5,-9.4,6.9c-0.1,0,-0.3,0.1,-0.4,0.1c0,0,-0.1,-0.1,0,-0.3c1.9,-4.5,6.3,-8.3,10.2,-10.8c0.6,-0.4,0.5,-0.2,1.1,-0.5c0.6,-0.3,0.9,-0.4,1.2,-0.3c0.4,0,0.3,0.2,0.2,0.7c-0.1,0.9,-0.6,1.5,-1.3,2.2m7.6,23.8c4,0.6,6.8,-3.1,10,-5.5c0.6,-0.5,1.2,-0.7,1.3,-1.3c0.1,-0.9,-1.2,-1.5,-1.6,-1.5c-2.4,-0.4,-5.7,3.6,-8.3,4.7c-0.3,0.1,-0.6,0.1,-0.9,0.1c-0.5,-0.1,-0.9,-0.3,-1,-0.8c-0.1,-0.7,0,-1.4,0.1,-2c0.3,-2.3,1.8,-4.2,3,-6.2c4.4,-7.7,11.1,-13.9,17.1,-20.9c0.4,-0.5,0.7,-1.1,0.8,-1.8c0.1,-0.5,0.1,-1,-0.1,-1.6c-0.3,-0.4,-0.8,-0.7,-1.3,-0.8c-0.6,0,-1,0,-1.8,-0.1c-2,-0.4,-2.8,2.6,-4,3.9c-5.1,6.3,-11.1,14,-14.3,19.5c-1.7,2.9,-3.2,5.1,-3.5,7.5c-0.1,0.7,-0.2,1.3,-0.2,1.9c0.1,3,4.3,4.8,4.7,4.9m50.7,-16.5c0,-0.4,-0.4,-0.9,-0.6,-1.2c-0.8,-1.1,-1.8,-1.9,-3,-2c-0.4,-0.1,-0.8,-0.1,-1.2,-0.1c-3.2,0.4,-6.2,1.4,-9.1,2.9c-1.8,0.9,-5,2.5,-8.8,6.7c-3.2,3.4,-4.2,5.6,-4.5,7.3c-0.3,2,0.5,3,0.7,3.3c2.2,2.4,2.8,2.9,3.3,3c0.2,0,0.6,-0.1,0.9,-0.1c2,-0.4,3.8,-0.8,6.9,-3l3.3,-2.2c0.7,-0.5,1.2,-0.8,1.4,-0.7c0.2,0,0.2,0.1,0.2,0.3c0,0.1,-0.4,1,-0.6,2.6c-0.3,1.5,-0.3,3,0.1,4.7c0.2,0.7,1.3,1.3,2.1,1.4c0.4,0,0.7,-0.1,1.1,-0.1c0.9,0.1,1.2,-0.4,1.2,-0.5l-0.1,-0.4c-0.6,-1.3,-0.7,-2.7,-0.4,-4.1c0.2,-1.6,0.8,-3.2,1.4,-4.6c1.7,-3.9,5.1,-7.4,7.9,-10.2c0.2,-0.2,0.3,-0.4,0.3,-0.6c0.1,-0.1,0.1,-0.1,0,-0.3c-0.3,-0.7,-1.1,-0.9,-1.4,-0.9c-0.6,-0.1,-1,-0.7,-1.1,-1.2m-3.5,0.1c0.9,0.2,1.1,0.9,1.1,1.3c-0.1,0.3,-0.2,0.6,-0.4,0.7c-0.7,0.5,-1.4,1.2,-1.9,1.8c-3.5,4.6,-9.6,7.2,-15.2,11.1c-1.1,0.7,-2.4,1.1,-2.8,1c-1,-0.1,-1.1,-0.9,-1,-1.6c0.3,-1.5,2.5,-4.4,5.2,-6.7c3.6,-3.2,7.9,-5.4,13.3,-7.3c0.7,-0.3,1.6,-0.3,1.7,-0.3m27.7,7.7c0.4,-0.6,0.6,-1.2,0.7,-2c0.1,-0.6,0.1,-1.2,-0.3,-1.9c-0.9,-1.7,-2.8,-2.8,-5.1,-3.2c-0.2,0,-4.6,-0.2,-11.1,5.2c-2.2,1.7,-5.4,4.7,-6.3,6c-0.7,1.1,-1.9,2.4,-2.3,4.7c-0.2,1.1,-0.1,1.3,0.1,1.6c0.8,1.1,1.8,2.2,2.8,2.9c0.5,0.3,1,0.5,1.6,0.6c2.6,0.4,5.3,-1.8,8,-3.7l0.2,0l0.1,0.1l0,0.1c-7.9,12.4,-8.4,10.9,-13.4,16.4c-3.2,3.7,-4.5,5.3,-4.7,6.6c0,0.3,-0.1,0.8,0,1.2c0.1,1,1.5,1.8,2.5,1.9c2,0.3,2.7,0.3,4.1,-1.6c0.9,-1.1,3.5,-5.3,6,-9.3c3.7,-6,9.7,-9.9,20.6,-15.7c0.5,-0.3,0.5,-0.7,0.6,-0.9c0,-0.2,-0.1,-0.5,-0.2,-0.8c-0.3,-0.4,-0.9,-0.7,-1.3,-0.7c-0.3,-0.1,-0.4,-0.1,-1.4,0.3c-3.3,1.3,-6.8,3,-9.8,4.8c-0.1,0,-0.2,-0.1,-0.2,-0.2c0.1,-0.6,1.7,-3.4,8.8,-12.4m-3.2,-2.1c-4,4.3,-9.9,9.3,-15.2,11.6c-0.4,0.2,-0.8,0.1,-1.1,0.1c-0.2,0,-0.6,-0.3,-0.5,-0.5c0,-0.3,0.5,-1.2,0.9,-1.9c1.5,-2.4,6.4,-6.8,9.7,-8.9c0.9,-0.6,1.3,-0.6,2.5,-1.3c0.8,-0.4,1.6,-0.9,2.6,-0.7c0.3,0,0.6,0.2,0.8,0.3c0.5,0.3,0.5,0.5,0.5,0.6l0.1,0.3c-0.1,0.2,-0.1,0.2,-0.3,0.4m14.2,23.6c8.7,-3.2,10.3,-5.7,13.2,-7.4c0.3,-0.2,0.3,-0.5,0.3,-0.7c0.1,-0.2,0.1,-0.2,0.2,-0.7c0.1,-0.5,-0.6,-1.2,-0.9,-1.2c-0.2,-0.1,-0.5,-0.1,-1.1,0.2c-3.5,1.5,-6.2,4,-10.1,5.4c-2.6,0.9,-3.4,0.9,-4.3,0.8c-0.5,-0.1,-1.1,-0.3,-1.6,-0.7c-0.4,-0.3,-1,-1.6,-0.9,-2.4c0,-0.2,0.1,-0.3,0.4,-0.4c4.9,-1.7,9.7,-5.7,14,-9.2c0.9,-0.8,1.4,-1.3,2.1,-2.2c0.8,-1.2,1.6,-2.3,1.8,-3.7c0.3,-2.1,-0.6,-3.2,-1.2,-3.5c-1,-0.5,-1.7,-0.9,-3.1,-1.1c-2.6,-0.4,-5,0.7,-6,1.5c-4.7,3.6,-9,7.7,-11.4,12.9c-0.3,0.7,-0.4,1.2,-0.5,1.7c-0.2,1,-0.2,3,0,4.1c0.3,1.9,1.1,3.3,2,4.1c0.4,0.3,2.1,1.4,3.2,2c0.8,0.5,1.3,0.6,1.9,0.7c0.7,0.1,1,0.1,2,-0.2m7.3,-20.6c-0.8,1,-0.6,1.2,-1.6,2c-2.8,2.5,-5.9,5,-9.3,6.8c-0.2,0.1,-0.3,0.2,-0.4,0.1c-0.1,0,-0.1,0,-0.1,-0.2c1.9,-4.6,6.3,-8.3,10.2,-10.8c0.6,-0.4,0.5,-0.3,1.2,-0.5c0.5,-0.3,0.8,-0.4,1.2,-0.3c0.3,0,0.2,0.2,0.2,0.6c-0.2,1,-0.7,1.6,-1.4,2.3m7.3,8.3c-1.2,1.9,-3.2,5.3,-3.7,6.8c-0.3,1.1,-0.9,1.4,-1.1,3.1c-0.1,0.5,-0.1,1.3,0.1,1.5c0.5,1,2.8,3,3.4,3.1c0.5,0.1,1.6,0.1,2.1,-0.3c0.8,-0.7,1.2,-0.5,2.6,-2c1.5,-1.5,3.3,-3.1,5.9,-5.6c0.2,-0.2,0.2,-0.2,0.3,-0.2l0.2,0.2c-0.1,0.2,-0.7,1,-1.2,4.1c-0.2,1.4,-0.1,2.5,0.4,3.5c0.5,1,1.1,1.3,1.8,2.1c0.5,0.7,2.2,1.1,2.6,1.2c1,0.2,1.5,-0.7,1.6,-1c0,-0.6,-0.3,-1,-0.6,-1.4c-0.4,-0.3,-1.6,-1.2,-1.6,-2.2c0,-0.5,-0.2,-1.4,0,-2.3c0.1,-1.1,0.9,-3.7,1.3,-4.7c1.3,-2.5,2.6,-4.4,5,-7.2c0.3,-0.4,0.7,-1.1,0.7,-1.3c0.1,-0.6,-0.2,-1.4,-0.8,-1.6c-0.8,-0.2,-1,-0.7,-1.8,-0.8c-0.7,-0.1,-1,0,-2.2,1.9c-1.6,2.3,-5.8,3.8,-14.6,12.8c-0.4,0.4,-0.6,0.6,-1,0.5c-0.1,0,-0.1,-0.3,0,-0.5c0,-0.2,1.1,-2.7,1.6,-3.6c2.4,-4,4.1,-6.4,5.1,-7.6c1.7,-2.2,3.4,-3.7,4.1,-4.2c1,-0.8,1.5,-1.8,1.6,-2.3c0,-0.3,-0.1,-0.7,-0.2,-1c-0.1,-0.5,-0.7,-1,-2,-1.2c-0.7,-0.1,-1.4,0,-1.9,0.3c-0.5,0.3,-0.5,0.4,-1,1c-2.9,3.2,-4.5,5.5,-6.7,8.9m31.6,12.8c-2.9,1.5,-5.6,2.5,-8,2.1c-0.5,-0.1,-0.8,-0.6,-0.7,-1.2c0.2,-1.4,2,-4.7,4.3,-7.6c2.3,-2.9,5.2,-5.7,7.8,-7.5c0.5,-0.4,0.6,-0.5,0.9,-0.4c0.3,0,0.4,0.4,0.4,0.6c-0.2,0.8,-1.5,1.9,-1.7,3c-0.1,0.4,0,0.8,0.4,1.2l1.2,1.2c0.3,0.4,0.7,0.5,1,0.6c0.7,0.1,1.1,-0.2,1.2,-0.7c0.2,-1.8,2.3,-4,2.5,-4.6c0.1,-0.2,0.1,-0.3,0.1,-0.4c0.1,-0.2,0,-0.2,0.1,-0.8c0,-0.4,0.1,-0.5,-0.1,-0.8c-1.2,-1.6,-3.4,-2.8,-5.2,-3.1c-0.4,0,-0.5,-0.1,-0.8,0.1c-4.8,1.5,-9.6,7.3,-13.3,12.4c-0.5,0.6,-0.8,1.6,-0.9,1.9c-0.6,1.3,-1.3,2.6,-1.5,3.9c-0.1,0.8,0,1.6,0.2,2.5c0.2,0.6,2.1,3,5,3.5c2.2,0.3,5.1,-0.8,8.4,-2.7c2.6,-1.5,4.7,-2.7,6.4,-3.1c0.4,-0.1,0.5,-0.2,0.6,-0.6c0,-0.2,0.2,-0.2,0.3,-0.5c0,-0.1,-0.8,-1.5,-1.6,-1.6c-1.4,-0.2,-4.4,1.2,-7,2.6m19.8,5.9c0.6,-0.5,1,-0.8,1,-1.3c0.1,-0.3,0.1,-0.5,-0.2,-0.8c-0.2,-0.3,-0.8,-0.5,-1.2,-0.6c-0.9,-0.1,-1.3,0.1,-2.7,0.8c-2.3,1.1,-3,1.3,-4.1,1.1c-0.9,-0.1,-0.8,-1.3,-0.7,-1.8c0.1,-0.8,0.8,-2.7,2.1,-5c1,-1.8,3.1,-5.2,4.3,-7c1.6,-2.4,4,-3.3,4.4,-6.1c0.1,-0.5,0,-0.7,-0.3,-1c-0.3,-0.3,-0.9,-0.5,-1.5,-0.6c-1,-0.2,-2.1,0,-2.8,1c-2.6,3.7,-4.8,7.3,-7,10.9c-0.5,0.7,-0.8,1.5,-1.3,2.5c-1,1.7,-1.4,2.8,-1.6,4.1c-0.1,0.8,-0.1,1.5,0,2.3c0.2,2,1.7,4.5,3.3,4.8c2.3,0.4,4.5,-0.9,5.8,-1.7Zm9.7,-32c-0.3,-0.5,-1.3,-0.9,-2.1,-1.1c-1.1,-0.1,-2.1,0,-2.7,0.5c-0.6,0.5,-1,1.4,-1.1,2.1c-0.1,0.6,-0.1,1.3,0.1,1.9c0.2,0.5,0.9,1.2,1.9,1.4c1.2,0.2,2.7,-1.1,3.8,-2.1c0.3,-0.2,0.4,-0.6,0.5,-0.9c0,-0.5,0,-1.2,-0.4,-1.8m1.5,37.8c8.8,-3.2,10.3,-5.6,13.2,-7.4c0.3,-0.2,0.3,-0.5,0.3,-0.7c0.1,-0.2,0.1,-0.2,0.2,-0.7c0.1,-0.5,-0.6,-1.1,-0.9,-1.2c-0.2,0,-0.5,-0.1,-1.1,0.2c-3.5,1.5,-6.2,4,-10.1,5.4c-2.6,0.9,-3.4,1,-4.3,0.8c-0.5,-0.1,-1,-0.2,-1.6,-0.7c-0.4,-0.3,-1,-1.5,-0.9,-2.4c0,-0.1,0.1,-0.2,0.4,-0.3c4.9,-1.8,9.7,-5.8,14,-9.3c0.9,-0.7,1.4,-1.2,2.1,-2.2c0.8,-1.2,1.6,-2.3,1.8,-3.6c0.4,-2.1,-0.6,-3.3,-1.2,-3.6c-1,-0.5,-1.7,-0.8,-3.1,-1.1c-2.6,-0.4,-5,0.7,-6,1.5c-4.7,3.7,-9,7.7,-11.4,12.9c-0.3,0.7,-0.4,1.2,-0.5,1.7c-0.2,1,-0.2,3,0,4.2c0.3,1.8,1.1,3.3,2.1,4c0.3,0.3,2,1.4,3.1,2c0.8,0.5,1.3,0.6,1.9,0.7c0.7,0.1,1,0.2,2,-0.2m7.3,-20.6c-0.8,1,-0.6,1.2,-1.6,2c-2.8,2.5,-5.8,5,-9.3,6.9c-0.2,0,-0.3,0.1,-0.4,0.1c-0.1,0,-0.1,-0.1,-0.1,-0.3c1.9,-4.5,6.3,-8.3,10.2,-10.8c0.6,-0.4,0.5,-0.2,1.2,-0.5c0.5,-0.3,0.8,-0.4,1.2,-0.3c0.3,0,0.2,0.2,0.2,0.7c-0.2,0.9,-0.7,1.5,-1.4,2.2m24.1,0.3c-0.9,-1.4,-2,-2.3,-4.9,-2.7c-1,-0.2,-3.3,0.4,-5.2,2.6c-1.6,1.8,-2.7,4.7,-2.9,6.1c-0.2,1.1,-0.5,9.2,-0.3,12.8c0,1.3,0,1.4,0,1.6c0,0.3,-0.3,0.4,-0.6,0.4c-0.3,-0.1,-0.5,-0.2,-1,-0.8c-1.3,-1.6,-1.6,-3.7,-2.6,-5.6c-0.4,-0.7,-0.8,-0.9,-1.9,-1c-1.1,-0.2,-2.1,0.8,-2.2,1.6c0,0.2,0.1,0.6,0.2,0.9c1.3,3.1,3.3,6.3,6.6,8.3c0.2,0.1,0.8,0.3,1.3,0.4c1.4,0.2,2.5,-0.6,3.6,-1.4c0.2,-0.2,0.5,-0.5,0.6,-0.9c0.3,-2.1,0,-8.2,0.2,-12.3c0,-0.7,0.1,-3.1,0.2,-3.4c0.1,-0.7,0.2,-1,0.3,-1.4c0.8,-2.3,3.7,-5,4.1,-4.9c0.4,0.1,0.8,0.5,1,0.9c0.2,0.4,0.2,1.1,0.1,1.5c-0.1,0.9,-0.6,1.6,-1.2,2.3c-0.2,0.1,-0.2,0.3,-0.3,0.4c-0.1,0.8,0.1,1.4,0.6,1.8c0.3,0.4,1.1,0.9,1.7,1c0.3,0,0.3,0,0.8,-0.5c0.9,-0.8,1.9,-2.1,2.3,-4.1c0.1,-1.1,0.1,-2.7,-0.5,-3.6Z" class="g3_297" />
<text 
x="568" 
y="218" 
dx="0,0.4,0.4,0.4,0.4,0.4,0.2,0.4,0.4,0.4,0.4,0.4,0.4,0.4,0.4,0.4,0.4,0.4,0.4,0.4,0.4,0.4,0.4,0.4,0.4,0.4,0.4,0.4,0.4,0.4,0.2,0.4,0.4,0.4,0.4,0.4,0.4,0.4,0.4,0.4,0" 
class="s1_297"
>Rail remains the major means of domestic </text>

<text 
x="568" 
y="238" 
dx="0,0.4,0.3,0.4,0,0.4,0.4,0.4,0.4,0.4,0.4,0.4,0.4,0.4,0.4,0.4,0.4,0.4,0.4,0.4,0.4,0.4,0.4,0.4,0.4,0.4,0.4,0.4,0.4,0.4,0.4,0.4,0.4,0.4,0.4,0.4,0.4,0.4,0.4,0" 
class="s1_297"
>travel in China. During the Chinese New </text>

<text 
x="568" 
y="258" 
dx="0,-1,0.4,0.4,0.4,0.4,0.4,0.4,0.4,0.4,0.4,0.4,0.4,0.4,0.3,0.4,0.4,0.4,0.2,0.4,0.4,0.4,0.4,0.4,0.4,0.4,0.4,0.4,0.4,0.4,0.4,0.4,0.4,0.4,0.2,0.4,0.4,0.4,0.4,0.4,0.4,0" 
class="s1_297"
>Year period, railroad stations across the </text>

<text 
x="568" 
y="278" 
dx="0,0.4,0.4,0.4,0.4,0.4,0.4,0.4,0.4,0.4,0.2,0.4,0.4,0.1,0,0.4,0.2,0.4,0.2,0.4,0.4,0.4,0.4,0.4,0.4,0.4,0.4,0.4,0.4,0.4,0.4,0.3,0.4,0,0.4,0.4,0.4,0.4,0" 
class="s1_297"
>country are overcrowded with travelers </text>

<text 
x="568" 
y="298" 
dx="0,0.4,0.4,0.4,0.4,0.4,0.4,0.4,0.4,0.1,0.4,0.4,0.4,0.4,0.3,0.4,0.4,0.4,0.4,0.4,0.4,0.4,0.4,0.4,0.4,0.4,0.4,0.4,0.4,0.4,0.4,0.4,0.4,0.4,0,0.3,0.4,0.4,0" 
class="s1_297"
>waiting for trains or seeking tickets. </text>

<text 
x="568" 
y="317" 
dx="0,0.4,0.4,0.4,0.4,0.4,0.4,0.4,0.4,0.4,0.4,0.4,0.4,0.3,0.4,0.4,0.4,0.4,0.4,0.2,0.4,0.1,0.4,0.4,0.4,0.4,0.4,0.2,0.4,0.4,0.4,0.4,0.4,0.4,0.4,0.4,0.4,0" 
class="s1_297"
>High-speed trains offer three classes </text>

<text 
x="568" 
y="337" 
dx="0,0.2,0.4,0.4,0.4,0.4,0.4,0.4,0.4,0.4,0.4,0.4,0.4,0.4,0.4,0.4,0.4,0.4,0.4,0.4,0.4,0.4,0.4,0.4,0.4,0.4,0.4,0.4" 
class="s1_297"
>of service: business class (</text>

<text 
x="738" 
y="337" 
dx="0,0.7,0.7" 
class="s2_297"
>商务座</text>

<text 
x="809" 
y="337" 
dx="0,0" 
class="s1_297"
>) </text>

<text 
x="568" 
y="360" 
dx="0,0.5,0.5,0.5,0.5,0.5,0.5,0.5,0.5,0.5,0.5,0.5,0.5" 
class="s3_297"
>(shāngwù zuò)</text>

<text 
x="666" 
y="360" 
dx="0,0.4,0.4,0.4,0.4,0.4,0.4,0.4,0.4,0.4,0.4,0.4,0.4,0.4,0.4,0.4,0.4,0.4,0.4,0.4,0" 
class="s1_297"
>, which, as the most </text>

<text 
x="568" 
y="380" 
dx="0,0.1,0.4,0.4,0.4,0.4,0.4,0.4,0,0.4,0.4,0.4,0.2,0.4,0.1,0.4,0.4,0.4,0.4,0.4,0.4,0.4,0.4,0.4,0.4,0.4,0.4,0.4,0.4,0.4,0.4,0.1,0.4,0.4,0.4,0.4,0.4,0.4,0.4,0.4,0.4,0" 
class="s1_297"
>expensive, offers the most comfort; first </text>

<text 
x="568" 
y="403" 
dx="0,0.4,0.4,0.4,0.4,0.4,0.4" 
class="s1_297"
>class (</text>

<text 
x="608" 
y="403" 
dx="0,0.7,0.7" 
class="s2_297"
>一等座</text>

<text 
x="679" 
y="403" 
dx="0,0.4" 
class="s1_297"
>) </text>

<text 
x="686" 
y="403" 
dx="0,0.5,0.5,0.5,0.5,0.5,0.5,0.5,0.5,0.5,0.5,0.5" 
class="s3_297"
>(yīděng zuò)</text>

<text 
x="769" 
y="403" 
dx="0,0.4,0.4,0.4,0.4,0" 
class="s1_297"
>; and </text>

<text 
x="568" 
y="426" 
dx="0,0.4,0.4,0.4,0.4,0.4,0.4,0.4,0.4,0.4,0.4,0.4,0.4,0.4" 
class="s1_297"
>second class (</text>

<text 
x="658" 
y="426" 
dx="0,0.7,0.7" 
class="s2_297"
>二等座</text>

<text 
x="729" 
y="426" 
dx="0,0.4" 
class="s1_297"
>) </text>

<text 
x="736" 
y="426" 
dx="0,0.5,0.5,0.5,0.5,0.5,0.5,0.5,0.5,0.5,0.5,0.5" 
class="s3_297"
>(èrděng zuò)</text>

<text 
x="820" 
y="426" 
dx="0,0" 
class="s1_297"
>. </text>

<text 
x="568" 
y="446" 
dx="0,0.4,0.4,0.4,0.2,0.4,0.4,0.4,0.2,0.4,0.4,0.4,0.4,0.4,0.4,0.4,0.4,0.4,0.4,0.4,0.4,0.4,0.4,0.4,0.4,0.4,0.4,0.4,0.4,0.4,0.4,0.4,0.4,0.4,0.4,0.4,0.4,0.4,0.4,0.4,0.4,0.4,0" 
class="s1_297"
>There are no sleeping berths on high-speed </text>

<text 
x="568" 
y="466" 
dx="0,0.4,0.3,0.4,0.4,0.4,0.4,0.4,0.4,0.4,0.4,0.4,0.4,0.4,0.4,0.4,0.4,0.4,0.4,0.4,0.4,0.4,0.4,0.4,0.2,0.4,0.4,0.4,0.4,0.4,0.4,0.4,0.4,0.4,0.3,0.4,0.4,0.4,0.4,0.4,0.2,0.4,0.1,0.4,0" 
class="s1_297"
>trains. Old-fashioned “regular” trains offer </text>

<text 
x="568" 
y="485" 
dx="0,0.1,0.4,0.4,0.4,0.4,0.4,0.4,0.4,0.4,0.4,0.4,0.4,0.4,0.2,0.4,0.4,0.4,0.4,0.4,0.4,0.4,0.4,0.4,0.4,0.4,0.4,0.4,0.2,0.4,0.4,0.4,0.4,0.4,0.4,0.4" 
class="s1_297"
>four classes of service: hard seat (</text>

<text 
x="787" 
y="485" 
dx="0,0.7" 
class="s2_297"
>硬座</text>

<text 
x="834" 
y="485" 
dx="0,0" 
class="s1_297"
>) </text>

<text 
x="568" 
y="508" 
dx="0,0.5,0.5,0.5,0.5,0.5,0.5,0.5,0.5,0.5" 
class="s3_297"
>(yìng zuò)</text>

<text 
x="635" 
y="508" 
dx="0,0.4,0.4,0.4,0.2,0.4,0.4,0.4,0.4,0.4,0.4,0.4,0.4" 
class="s1_297"
>, soft seat (</text>

<text 
x="707" 
y="508" 
dx="0,0.7" 
class="s2_297"
>软座</text>

<text 
x="754" 
y="508" 
dx="0,0.4" 
class="s1_297"
>) </text>

<text 
x="761" 
y="508" 
dx="0,0.5,0.5,0.5,0.5,0.5,0.5,0.5,0.5,0.5" 
class="s3_297"
>(ruǎn zuò)</text>

<text 
x="831" 
y="508" 
dx="0,0" 
class="s1_297"
>, </text>

<text 
x="568" 
y="531" 
dx="0,0.4,0.4,0.2,0.4,0.4,0.4,0.4,0.4,0.4,0.4,0.4,0.4,0.4" 
class="s1_297"
>hard sleeper (</text>

<text 
x="656" 
y="531" 
dx="0,0.7" 
class="s2_297"
>硬卧</text>

<text 
x="703" 
y="531" 
dx="0,0.4" 
class="s1_297"
>) </text>

<text 
x="710" 
y="531" 
dx="0,0.5,0.5,0.5,0.5,0.5,0.5,0.5,0.5" 
class="s3_297"
>(yìng wò)</text>

<text 
x="773" 
y="531" 
dx="0,0.4,0.4,0.4,0.4,0.4,0.4,0.4,0.2,0.4,0" 
class="s1_297"
>, and soft </text>

<text 
x="568" 
y="554" 
dx="0,0.4,0.4,0.4,0.4,0.4,0.4,0.4,0.4" 
class="s1_297"
>sleeper (</text>

<text 
x="623" 
y="554" 
dx="0,0.7" 
class="s2_297"
>软卧</text>

<text 
x="671" 
y="554" 
dx="0,0.4" 
class="s1_297"
>) </text>

<text 
x="678" 
y="554" 
dx="0,0.5,0.5,0.5,0.5,0.5,0.5,0.5,0.5" 
class="s3_297"
>(ruǎn wò)</text>

<text 
x="744" 
y="554" 
dx="0,0" 
class="s1_297"
>. </text>

<g clip-path="url(#c0_297)">
<path d="M-19.2,31.2l0,57.6l0,1l1.1,0l442.4,0l1.1,0l0,-1l0,-57.6l0,-1l-1.1,0l-442.4,0l-1.1,0l0,1Z" class="g4_297" />
<path d="M-16.3,87l438.8,0l0,-53.9l-438.8,0l0,53.9Z" class="g5_297" />
</g>
<text 
x="41" 
y="72" 
dx="0,0,0,-1.2,0,0,0,0,0,0,0,0,0,0,0,-0.2,0" 
class="s4_297"
>CULTURAL LITERACY</text>

<text 
x="100" 
y="722" 
dx="0,0.4,0.4,0.4,0.4,0.4,0.4,0.2,0.4,0.4,0.4,0.4,0.4,0.4,0.4,0.4,0.4,0.4,0.4,0.4,0.4,0.4,0.4,0.4,0.4,0.2,0.4,0.4,0.4,0.4,0.4,0.3,0.4,0,0.4,0" 
class="s1_297"
>The three oldest and largest travel </text>

<text 
x="100" 
y="744" 
dx="0,0.4,0.2,0.4,0.4,0.4,0.4,0.4,0.4,0.4,0.4,0.4,0.4,0.4,0.4,0.4,0.4,0.4,0.4,0.4,0.2,0.4,0.4,0.4,0.4,0.2,0.4,0.4,0.4,0.4,0.4,0.4,0.4,0.4,0.4,0" 
class="s1_297"
>agencies in China are International </text>

<text 
x="100" 
y="766" 
dx="0,-0.7,0.3,0.4,0,0.4,0.4,0.4,0.4,0.2,0.4,0.4,0.4,0.4,0.4,0.4,0.4" 
class="s1_297"
>Travel Agencies, </text>

<text 
x="210" 
y="766" 
dx="0,0.7,0.7,0.7,0.7" 
class="s2_297"
>国际旅行社</text>

<text 
x="100" 
y="788" 
dx="0" 
class="s1_297"
>(</text>

<text 
x="105" 
y="788" 
dx="0,0.5,0.5,0.5,0.5,0.5,0.5,0.5,0.5,0.5,0.5,0.5,0.5,0.5,0.5,0.5" 
class="s3_297"
>Guójì Lǚxíngshè)</text>

<text 
x="221" 
y="788" 
dx="0,0.4,0.4" 
class="s1_297"
>or </text>

<text 
x="237" 
y="788" 
dx="0,0.7" 
class="s2_297"
>国旅</text>

<text 
x="288" 
y="788" 
dx="0,0.5,0.5,0.5,0.5,0.5,0.5" 
class="s3_297"
>(Guólǚ)</text>

<text 
x="338" 
y="788" 
dx="0,0" 
class="s1_297"
>; </text>

<text 
x="100" 
y="810" 
dx="0,0.4,0.4,0.4,0.4,0.4,0.4,-0.7,0.3,0.4,0,0.4,0.4,0.4,0.4,0.2,0.4,0.4,0.4,0.4,0.4,0.4,0.4" 
class="s1_297"
>China Travel Agencies, </text>

<text 
x="250" 
y="810" 
dx="0,0.7,0.7,0.7" 
class="s2_297"
>中国旅行</text>

<text 
x="100" 
y="832" 
dx="0" 
class="s2_297"
>社</text>

<text 
x="127" 
y="832" 
dx="0,0.5,0.5,0.5,0.5,0.5,0.5,0.5,0.5,0.5,0.5,0.5,0.5,0.5,0.5,0.5,0.5,0.5,0.5,0.5" 
class="s3_297"
>(Zhōngguó Lǚxíngshè)</text>

<text 
x="280" 
y="832" 
dx="0,0.4,0.4" 
class="s1_297"
>or </text>

<text 
x="297" 
y="832" 
dx="0,0.7" 
class="s2_297"
>中旅</text>

<text 
x="107" 
y="854" 
dx="0,0.5,0.5,0.5,0.5,0.5,0.5,0.5,0.5" 
class="s3_297"
>(Zhōnglǚ)</text>

<text 
x="173" 
y="854" 
dx="0,0.4,0.4,0.4,0.4,0.4,0.4,-1,0.4,0.4,0.4,0.4,0.4,-0.7,0.3,0.4,0,0.4,0.4,0.4,0.4,0.2,0.4,0.4,0.4,0.4,0.4,0.4,0" 
class="s1_297"
>; and Youth Travel Agencies, </text>

<text 
x="100" 
y="877" 
dx="0,0.7,0.7,0.7,0.7" 
class="s2_297"
>青年旅行社</text>

<text 
x="221" 
y="877" 
dx="0,0.5,0.5,0.5,0.5,0.5,0.5,0.5,0.5,0" 
class="s3_297"
>(Qīngnián </text>

<text 
x="100" 
y="899" 
dx="0,0.5,0.5,0.5,0.5,0.5,0.5,0.5,0.5,0.5" 
class="s3_297"
>Lǚxíngshè)</text>

<text 
x="174" 
y="899" 
dx="0,0.4,0.4,0.4,0.4" 
class="s1_297"
>, or </text>

<text 
x="198" 
y="899" 
dx="0,0.7" 
class="s2_297"
>青旅</text>

<text 
x="248" 
y="899" 
dx="0,0.5,0.5,0.5,0.5,0.5,0.5,0.5" 
class="s3_297"
>(Qīnglǚ)</text>

<text 
x="303" 
y="899" 
dx="0,0.4,0.4,0.4,0.4,0.4,0.4,0" 
class="s1_297"
>. While </text>

<text 
x="100" 
y="921" 
dx="0,0.7" 
class="s2_297"
>国旅</text>

<text 
x="151" 
y="921" 
dx="0,0.5,0.5,0.5,0.5,0.5,0.5" 
class="s3_297"
>(Guólǚ)</text>

<text 
x="204" 
y="921" 
dx="0,0.4,0.4,0.4" 
class="s1_297"
>and </text>

<text 
x="231" 
y="921" 
dx="0,0.7" 
class="s2_297"
>中旅</text>

<text 
x="281" 
y="921" 
dx="0,0.5,0.5,0.5,0.5,0.5,0" 
class="s3_297"
>(Zhōng </text>

<text 
x="100" 
y="943" 
dx="0,0.5,0.5" 
class="s3_297"
>Lǚ)</text>

<text 
x="126" 
y="943" 
dx="0,0.4,0.4,0.4,0.4,0.4,0.4,0.4,0.4,0.4,0.4,0,0.4,0.4,0.1,0.4,0.2,0.4,0.4,0.4,0.4,0.4,0.2,0.4,0.4,0.4,0.4,0.4,0.4,0.4,0.4,0.4,0.4,0" 
class="s1_297"
>mainly serve foreign tourists and </text>

<text 
x="100" 
y="965" 
dx="0,0.1,0,0.4,0.4,0.4,0.4,0.4,0.4,0.4,0.4,0.4,0.4,0.4,0.4,0.4,0.4,0.4,0.4,0.2,0.4,0.4,0.4,0.4,0.4,0.4,0.4,0,0.4,0.4,-0.5,0.4" 
class="s1_297"
>overseas Chinese, respectively, </text>

<text 
x="305" 
y="965" 
dx="0,0.7" 
class="s2_297"
>青旅</text>

<text 
x="100" 
y="987" 
dx="0,0.5,0.5,0.5,0.5,0.5,0.5,0.5,0.5" 
class="s3_297"
>(Qīnglǚ) </text>

<text 
x="160" 
y="987" 
dx="0,0.4,0.4,0.4,0.4,0.4,0.4,0.4,0.4,0.4,0.4,0.4,0.4,0.4,0.4,0.4,0.4,0.4,0.4,0.2,0.4,0.4,0.4,0.2,0.4,0.4,0.4,0.2,0" 
class="s1_297"
>is primarily oriented toward </text>

<text 
x="100" 
y="1009" 
dx="0,0.4,0.4,0.4,0.4,0.4,0.4,0.4,0.4,0.4,0.4,0.4,0.4,0.4,0.4,0.4,0.4,0.4,0.4,0.4,0.4,0.4,0.4,0.4,0.4,0.4,0.4,0.4,0.4,0.4,0.4,0.4,0.4,0.4,0.4,0.4,0.4,0" 
class="s1_297"
>Chinese citizens. The divisions among </text>

<text 
x="100" 
y="1032" 
dx="0,0.4,0.4,0.4,0.4,0.4,0.4,0.2,0.4,0.4,0.4,0.3,0.4,0,0.4,0.4,0.4,0.4,0.2,0.4,0.4,0.4,-0.5,0.4,0.4,0.4,0.4,0.4,0.4,0,0.4,-0.7,0.4,0.4,0.4,0.4,0,0" 
class="s1_297"
>types of travel agency, however, have </text>

<text 
x="100" 
y="1054" 
dx="0,0.4,0.4,0.4,0.4,0.4,0.4,0.4,0.4,0.4,0.4,0.4,0.4,0.4,0.4,0.4,0.4,0.4,0.4,0.4,0.4,0.4,0.4,0.4,0.4,0.2,0.4,0.4,0.4,0.4,0.4,0.4,0.4,0.4,0.4,0.4,0.4" 
class="s1_297"
>become less distinct in recent years.</text>

<image preserveAspectRatio="none" x="422" y="154" width="3" height="30" xlink:href="297/img/29.png" />
<image preserveAspectRatio="none" x="422" y="184" width="3" height="8" xlink:href="297/img/30.png" />
<image preserveAspectRatio="none" x="422" y="192" width="3" height="6" xlink:href="297/img/31.png" />
<image preserveAspectRatio="none" x="417" y="207" width="13" height="49" xlink:href="297/img/32.png" />
<image preserveAspectRatio="none" x="422" y="198" width="3" height="10" xlink:href="297/img/33.png" />
<image preserveAspectRatio="none" x="340" y="142" width="41" height="50" xlink:href="297/img/34.png" />
<image preserveAspectRatio="none" x="381" y="142" width="41" height="50" xlink:href="297/img/35.png" />
<image preserveAspectRatio="none" x="340" y="217" width="41" height="53" xlink:href="297/img/36.png" />
<image preserveAspectRatio="none" x="381" y="217" width="41" height="53" xlink:href="297/img/37.png" />
<image preserveAspectRatio="none" x="340" y="154" width="41" height="38" xlink:href="297/img/38.png" />
<image preserveAspectRatio="none" x="381" y="154" width="41" height="38" xlink:href="297/img/39.png" />
<image preserveAspectRatio="none" x="389" y="184" width="33" height="8" xlink:href="297/img/40.png" />
<image preserveAspectRatio="none" x="340" y="192" width="49" height="16" xlink:href="297/img/41.png" />
<image preserveAspectRatio="none" x="389" y="192" width="33" height="10" xlink:href="297/img/42.png" />
<image preserveAspectRatio="none" x="340" y="207" width="41" height="48" xlink:href="297/img/43.png" />
<image preserveAspectRatio="none" x="381" y="207" width="41" height="48" xlink:href="297/img/44.png" />
<image preserveAspectRatio="none" x="340" y="198" width="82" height="19" xlink:href="297/img/45.png" />
<image preserveAspectRatio="none" x="574" y="632" width="54" height="29" xlink:href="297/img/46.png" />
<image preserveAspectRatio="none" x="627" y="632" width="54" height="29" xlink:href="297/img/47.png" />
<image preserveAspectRatio="none" x="574" y="661" width="54" height="29" xlink:href="297/img/48.png" />
<image preserveAspectRatio="none" x="627" y="661" width="54" height="29" xlink:href="297/img/49.png" />
<image preserveAspectRatio="none" x="574" y="690" width="54" height="39" xlink:href="297/img/50.png" />
<image preserveAspectRatio="none" x="627" y="690" width="54" height="39" xlink:href="297/img/51.png" />
<image preserveAspectRatio="none" x="574" y="721" width="54" height="39" xlink:href="297/img/52.png" />
<image preserveAspectRatio="none" x="627" y="721" width="54" height="39" xlink:href="297/img/53.png" />
<image preserveAspectRatio="none" x="574" y="712" width="54" height="26" xlink:href="297/img/54.png" />
<image preserveAspectRatio="none" x="627" y="712" width="54" height="26" xlink:href="297/img/55.png" />
<image preserveAspectRatio="none" x="600" y="637" width="39" height="53" xlink:href="297/img/56.png" />
<image preserveAspectRatio="none" x="639" y="637" width="39" height="53" xlink:href="297/img/57.png" />
<image preserveAspectRatio="none" x="600" y="690" width="39" height="38" xlink:href="297/img/58.png" />
<image preserveAspectRatio="none" x="639" y="690" width="39" height="38" xlink:href="297/img/59.png" />
<image preserveAspectRatio="none" x="600" y="725" width="39" height="35" xlink:href="297/img/60.png" />
<image preserveAspectRatio="none" x="639" y="725" width="39" height="35" xlink:href="297/img/61.png" />
<image preserveAspectRatio="none" x="600" y="716" width="78" height="21" xlink:href="297/img/62.png" />
<image preserveAspectRatio="none" x="96" y="533" width="164" height="26" xlink:href="297/img/63.png" />
<image preserveAspectRatio="none" x="94" y="508" width="164" height="44" xlink:href="297/img/64.png" />
<text 
transform="matrix(0.99, -0.11, 0.11, 0.99, 105, 545)"
dx="0,0.2,0.5,0.5,0.5,0.5,0.5,0.5,0.5,0.5,0.5,0.5,0.5,0.5,0.5,0.7,0.5,0.5,0.5,0.5,0.5,0.5,0.5,0.5,0.5,0.5" 
class="s5_297"
>A Chinese high-speed train</text>

<text 
x="18" 
y="1173" 
dx="0,0.3,0.3" 
class="s6_297"
>276</text>



<!-- Any embedded fonts defined here -->
<style type="text/css" ><![CDATA[

@font-face {
	font-family: MuseoSlab-900_4c1;
	src: url("fonts/MuseoSlab-900_4c1.woff") format("woff");
}

@font-face {
	font-family: STKaiti-SC-Bold_3mi;
	src: url("fonts/STKaiti-SC-Bold_3mi.woff") format("woff");
}

@font-face {
	font-family: FreightSansCmpPro-Bold_4dd;
	src: url("fonts/FreightSansCmpPro-Bold_4dd.woff") format("woff");
}

@font-face {
	font-family: LibreFranklin-Medium_4bz;
	src: url("fonts/LibreFranklin-Medium_4bz.woff") format("woff");
}

@font-face {
	font-family: LibreFranklin-SemiBold_4c4;
	src: url("fonts/LibreFranklin-SemiBold_4c4.woff") format("woff");
}

@font-face {
	font-family: GentiumBookBasic-Italic_3mn;
	src: url("fonts/GentiumBookBasic-Italic_3mn.woff") format("woff");
}

]]></style>

</svg>
