<?xml version="1.0" encoding="UTF-8" standalone="no"?>
<!DOCTYPE svg PUBLIC "-//W3C//DTD SVG 1.1//EN"
"http://www.w3.org/Graphics/SVG/1.1/DTD/svg11.dtd">


<!-- Page 192 -->
<svg x="0" y="0" width="921" height="1196" viewBox="0 0 921 1196" version="1.1" xmlns="http://www.w3.org/2000/svg" xmlns:xlink="http://www.w3.org/1999/xlink"
style="display: block;margin-left: auto;margin-right: auto;">
<defs>
<clipPath id="c0_192"><path d="M250.9,1135.2l0,-17l17.1,0l0,17Z" /></clipPath>

<style type="text/css"><![CDATA[

.g1_192{
fill: none;
stroke: #007598;
stroke-width: 0.6248611;
stroke-linecap: butt;
stroke-linejoin: miter;
}
.g2_192{
fill: none;
stroke: #007598;
stroke-width: 1.8730555;
stroke-linecap: butt;
stroke-linejoin: miter;
}
.g3_192{
fill: none;
stroke: #007D9F;
stroke-width: 2.2916667;
stroke-linecap: butt;
stroke-linejoin: miter;
}
.g4_192{
fill: #DC252E;
}
.g5_192{
fill: none;
stroke: #FFFFFF;
stroke-width: 2.2916667;
stroke-linecap: round;
stroke-linejoin: round;
stroke-miterlimit: 4;
}
.g6_192{
fill: none;
stroke: #007598;
stroke-width: 1.5277778;
stroke-linecap: butt;
stroke-linejoin: miter;
stroke-miterlimit: 4;
}
.g7_192{
fill: none;
stroke: #007598;
stroke-width: 0.5102778;
stroke-linecap: butt;
stroke-linejoin: miter;
stroke-miterlimit: 4;
}
.g8_192{
fill: #007598;
stroke: #B2B3B7;
stroke-width: 1.5277778;
stroke-linecap: butt;
stroke-linejoin: miter;
stroke-miterlimit: 4;
}

.s1_192{
font-size: 32.08px;
font-family: LibreFranklin-ExtraBold_44v;
fill: #007598;
}
.s2_192{
font-size: 18.33px;
font-family: LibreFranklin-ExtraBold_44v;
fill: #007D9F;
}
.s3_192{
font-size: 22.92px;
font-family: LibreFranklin-Bold_44h;
fill: #007D9F;
}
.s4_192{
font-size: 15.28px;
font-family: LibreFranklin-Regular_45b;
fill: #3F3F40;
}
.s5_192{
font-size: 24.44px;
font-family: STKaitiSC-Bold_3wm;
fill: #007598;
}
.s6_192{
font-size: 17.19px;
font-family: GentiumBasic-Italic_45h;
fill: #3F3F40;
}
.s7_192{
font-size: 15.28px;
font-family: LibreFranklin-ExtraBold_44v;
fill: #3F3F40;
}
.s8_192{
font-size: 32.08px;
font-family: STKaitiSC-Regular_44y;
fill: #3F3F40;
}
.s9_192{
font-size: 32.08px;
font-family: STKaitiSC-Regular_44y;
fill: #007D9F;
}
.s10_192{
font-size: 17.19px;
font-family: GentiumBasic-Italic_3ou;
fill: #3F3F40;
}
.s11_192{
font-size: 17.19px;
font-family: GentiumBasic-Italic_45h;
fill: #007D9F;
}
.s12_192{
font-size: 32.08px;
font-family: STKaitiSC-Regular_45i;
fill: #3F3F40;
}
.s13_192{
font-size: 11.08px;
font-family: LibreFranklin-SemiBold_454;
fill: #FFFFFF;
}

]]></style>

</defs>
<path d="M0,0
L0,1196
L921,1196
L921,0 Z " 
fill="#FFFFFF" stroke="none" />
<path d="M0.8,92.7l211.5,0" class="g1_192" />
<path d="M0.8,95.2l211.5,0" class="g2_192" />
<path d="M119.1,176.5l12.9,0" class="g3_192" />
<text 
x="62" 
y="81" 
dx="0,0.3,0,0.3,0.3,0.3,0.3" 
class="s1_192"
>Grammar</text>

<text 
x="119" 
y="173" 
dx="0,0" 
class="s2_192"
>1 </text>

<text 
x="328" 
y="177" 
dx="0,0,0,0,0,0,0,-0.2,0,0,-0.7,0,0,0,0,0,0,0,0,0,0,0,0,0,0,0,0,0" 
class="s3_192"
>Descriptive complements (II)</text>

<text 
x="157" 
y="239" 
dx="0,0,0,0,0,0,0,0,0,0,0,0,0,-0.2,0,0,0,0,0,0,0,-0.2,0,0,0,0,0,0,0,0,0,0,0,0,0,0,0,0,0,0,0,0,0,0,0,0,0,0,0,0,0,0,0,0,0,0,0,0,0,0,-0.3,0,0,0,0,0,0,0,0" 
class="s4_192"
>The subject of a sentence can be described by a complement following </text>

<text 
x="661" 
y="241" 
dx="0" 
class="s5_192"
>得</text>

<text 
x="689" 
y="239" 
dx="0,0.3,0.3,0.3" 
class="s6_192"
>(de)</text>

<text 
x="715" 
y="239" 
dx="0" 
class="s4_192"
>.</text>

<text 
x="169" 
y="298" 
dx="0,0" 
class="s7_192"
>A </text>

<text 
x="239" 
y="300" 
dx="0,0,0,0" 
class="s8_192"
>我们玩儿</text>

<text 
x="368" 
y="300" 
dx="0" 
class="s9_192"
>得</text>

<text 
x="400" 
y="300" 
dx="0,0,0,0" 
class="s8_192"
>很高兴。</text>

<text 
x="245" 
y="337" 
dx="0,0.3,0.3,0.3,0.3,0.3,0.3,0.3,0.3,0.3,0.3" 
class="s10_192"
>Wǒmen wánr </text>

<text 
x="336" 
y="337" 
dx="0,0.3" 
class="s11_192"
>de</text>

<text 
x="356" 
y="337" 
dx="0,0.3,0.3,0.3,0.3,0.3,0.3,0.3,0.3,0.3,0.3,0.3" 
class="s10_192"
>hěn gāoxìng.</text>

<text 
x="245" 
y="370" 
dx="0,-1.1,0,0,0,0,0,0,0,0,0,0,0,0,0,0,0,0,0,0,0,0,0,0,0,0,0,0" 
class="s4_192"
>We had a happy time playing.</text>

<text 
x="245" 
y="402" 
dx="0,0,-1.1,0,0,0,0,0,0,0,0,0,0,0,0,0,0,0,0,0,0,0,-0.2,0,0,-0.5,0,0,0,0,0,0,0,0,-1,0" 
class="s4_192"
>(We played, and we were very happy.)</text>

<text 
x="169" 
y="461" 
dx="0,0" 
class="s7_192"
>B </text>

<text 
x="239" 
y="463" 
dx="0,0,0" 
class="s8_192"
>孩子笑</text>

<text 
x="336" 
y="463" 
dx="0" 
class="s9_192"
>得</text>

<text 
x="368" 
y="463" 
dx="0,0,0,0" 
class="s8_192"
>很可爱。</text>

<text 
x="245" 
y="500" 
dx="0,0.3,0.3,0.3,0.3,0.3,0.3,0.3,0.3,0.3,0.3" 
class="s10_192"
>Háizi xiào </text>

<text 
x="315" 
y="500" 
dx="0,0.3" 
class="s11_192"
>de</text>

<text 
x="334" 
y="500" 
dx="0,0.3,0.3,0.3,0.3,0.3,0.3,0.3,0.3,0.3" 
class="s10_192"
>hěn kě’ài.</text>

<text 
x="245" 
y="532" 
dx="0,0,0,0,0,0,0,0,0,0,0,-0.5,0,0,0,0,-0.5,0,0,0,0,0,0,-0.2,0,0,0,0,0,0,0" 
class="s4_192"
>The kid gave a very cute smile.</text>

<text 
x="245" 
y="564" 
dx="0,0,0,0,0,0,0,0,0,0,0,0,0,0,0,0,0,0,0,0,0,0,0,0,0,0,0,0,0,0,0,0,0,0,0,0,0,-0.4,0,0,0,0,0,-0.2,0,0" 
class="s4_192"
>(The child smiled, and the child looked cute.)</text>

<text 
x="169" 
y="623" 
dx="0,0" 
class="s7_192"
>C </text>

<text 
x="239" 
y="626" 
dx="0,0,0,0" 
class="s8_192"
>他打球打</text>

<text 
x="368" 
y="626" 
dx="0" 
class="s9_192"
>得</text>

<text 
x="400" 
y="626" 
dx="0,0,0" 
class="s8_192"
>很累。</text>

<text 
x="245" 
y="663" 
dx="0,0.3,0.3,0.3,0.3,0.3,0.3,0.3,0.3,0.3,0.3,0.3,0.3" 
class="s10_192"
>Tā dǎ qiú dǎ </text>

<text 
x="331" 
y="663" 
dx="0,0.3" 
class="s11_192"
>de</text>

<text 
x="351" 
y="663" 
dx="0,0.3,0.3,0.3,0.3,0.3,0.3,0.3" 
class="s10_192"
>hěn lèi.</text>

<text 
x="245" 
y="695" 
dx="0,0,0,0,0,0,0,0,0,0,0,0,0,0,0,0,0,0,-0.2,0,0,0,0,0,0,0,0,0,0,0,0,0,0,0" 
class="s4_192"
>He was worn out from playing ball.</text>

<text 
x="245" 
y="727" 
dx="0,0,0,0,0,0,0,0,0,0,0,0,0,0,0,0,0,0,0,0,0,0,0,0,0,0,0,0,0,0,0,0,0,0,0,0,0,0" 
class="s4_192"
>(He played ball, and he was worn out.)</text>

<text 
x="169" 
y="786" 
dx="0,0" 
class="s7_192"
>D </text>

<text 
x="239" 
y="788" 
dx="0,0,0" 
class="s8_192"
>他高兴</text>

<text 
x="336" 
y="788" 
dx="0" 
class="s9_192"
>得</text>

<text 
x="368" 
y="788" 
dx="0,0,0,0,0" 
class="s8_192"
>又唱又跳。</text>

<text 
x="245" 
y="825" 
dx="0,0.3,0.3,0.3,0.3,0.3,0.3,0.3,0.3,0.3,0.3" 
class="s10_192"
>Tā gāoxìng </text>

<text 
x="322" 
y="825" 
dx="0,0.3" 
class="s11_192"
>de</text>

<text 
x="342" 
y="825" 
dx="0,0.3,0.3,0.3,0.3,0.3,0.3,0.3,0.3,0.3,0.3,0.3,0.3,0.3,0.3,0.3,0.3,0.3,0.3" 
class="s10_192"
>yòu chàng yòu tiào.</text>

<text 
x="245" 
y="857" 
dx="0,0,0,0,0,0,0,0,0,0,0,0,0,0,0,0,0,0,0,0,0,0,0,0,0,0,0,0,0,0,0,0,0,0,0,0,0,0,0,0,0,0,0,0,0,0,0,0,0,0,0,0,0" 
class="s4_192"
>He was so happy that he ended up singing and dancing.</text>

<text 
x="245" 
y="890" 
dx="0,0,0,0,0,0,0,0,0,0,0,0,0,-1,0,0,0,0,0,0,0,0,0,0,0,0,0,0,0,0,0,0,0,0,0,0,0,0,0,0,0,0,0,0,0,0,0" 
class="s4_192"
>(He was happy, and he was singing and dancing.)</text>

<text 
x="157" 
y="931" 
dx="0,-0.3,-0.3,-0.3,-0.3,-0.3,-0.3,-0.3,-0.3,-0.3,-0.6,-0.3,-0.3,-0.3,-0.3,-0.3,-0.3,-0.3,-0.3,-0.3,-0.3,-0.3,-0.3,-0.3,-0.8,-0.3,-0.3,-0.3,-0.3" 
class="s4_192"
>In these examples, the verbs </text>

<text 
x="353" 
y="932" 
dx="0" 
class="s5_192"
>玩</text>

<text 
x="380" 
y="931" 
dx="0,-0.1,-0.1,-0.1,-0.1" 
class="s10_192"
>(wán)</text>

<text 
x="420" 
y="931" 
dx="0,-0.3,-0.3,-0.3" 
class="s4_192"
>and </text>

<text 
x="449" 
y="932" 
dx="0" 
class="s5_192"
>笑</text>

<text 
x="475" 
y="931" 
dx="0,-0.1,-0.1,-0.1,-0.1,-0.1" 
class="s10_192"
>(xiào)</text>

<text 
x="512" 
y="931" 
dx="0,-0.3,-0.3,-0.3,-0.3,-0.3,-0.3,-0.8,-0.3,-0.3,-0.3,-0.3,-0.3,-0.3,-0.4,-0.3,-0.3,-0.3" 
class="s4_192"
>, the verb phrase </text>

<text 
x="627" 
y="932" 
dx="0,-0.5" 
class="s5_192"
>打球</text>

<text 
x="678" 
y="931" 
dx="0,-0.1,-0.1,-0.1,-0.1,-0.1,-0.1,-0.1" 
class="s10_192"
>(dǎ qiú)</text>

<text 
x="727" 
y="931" 
dx="0,-0.3,-0.3,-0.3,-0.3,0" 
class="s4_192"
>, and </text>

<text 
x="157" 
y="958" 
dx="0,-0.3,-0.3,-0.3,-0.3,-0.3,-0.3,-0.3,-0.3,-0.3,-0.3,-0.3,-0.8,-0.3" 
class="s4_192"
>the adjective </text>

<text 
x="248" 
y="960" 
dx="0,-0.5" 
class="s5_192"
>高兴</text>

<text 
x="298" 
y="958" 
dx="0,-0.1,-0.1,-0.1,-0.1,-0.1,-0.1,-0.1,-0.1" 
class="s10_192"
>(gāoxìng)</text>

<text 
x="361" 
y="958" 
dx="0,-0.3,-0.3,-0.8,-0.3,-0.3,-0.3,-0.3,-0.3,-0.3,-0.3,-0.3,-0.3,-0.3,-0.3,-0.3,-0.3,-0.3,-0.3,-0.3,-0.3,-0.3,-0.3,-0.3,-0.3,-0.3,-0.3,-0.3,-0.3,-0.3,-0.3,-0.3,-0.3,-0.3,-0.3,-0.3,-0.3,-0.3,-0.3" 
class="s4_192"
>give the causes, while the complements </text>

<text 
x="635" 
y="960" 
dx="0,-0.5" 
class="s5_192"
>高兴</text>

<text 
x="686" 
y="958" 
dx="0,-0.1,-0.1,-0.1,-0.1,-0.1,-0.1,-0.1,-0.1" 
class="s10_192"
>(gāoxìng)</text>

<text 
x="746" 
y="958" 
dx="0,0" 
class="s4_192"
>, </text>

<text 
x="157" 
y="987" 
dx="0,-0.5" 
class="s5_192"
>可爱</text>

<text 
x="208" 
y="986" 
dx="0,-0.1,-0.1,-0.1,-0.1,-0.1,-0.1" 
class="s10_192"
>(kě’ài)</text>

<text 
x="247" 
y="986" 
dx="0,-0.3" 
class="s4_192"
>, </text>

<text 
x="253" 
y="987" 
dx="0" 
class="s5_192"
>累</text>

<text 
x="280" 
y="986" 
dx="0,-0.1,-0.1,-0.1,-0.1" 
class="s10_192"
>(lèi)</text>

<text 
x="305" 
y="986" 
dx="0,-0.3,-0.3,-0.3,-0.3,-0.3" 
class="s4_192"
>, and </text>

<text 
x="339" 
y="987" 
dx="0,-0.5,-0.5,-0.5" 
class="s5_192"
>又唱又跳</text>

<text 
x="438" 
y="986" 
dx="0,-0.1,-0.1,-0.1,-0.1,-0.1,-0.1,-0.1,-0.1,-0.1,-0.1,-0.1,-0.1,-0.1,-0.1,-0.1,-0.1,-0.1,-0.1,-0.1" 
class="s10_192"
>(yòu chàng yòu tiào)</text>

<text 
x="570" 
y="986" 
dx="0,-0.3,-0.3,-0.3,-0.3,-0.3,-0.3,-0.3,-0.3,-0.3,-0.3,-0.3,-0.3,-0.3,-0.3,-0.3,-0.6,-0.3,-0.3,-0.3,-0.3,-0.3,-0.3,-0.3,-0.3,-0.3,-0.3,-0.3,-0.3,-0.3,-0.3,-0.3,-0.3,-0.3,-0.3,-0.3" 
class="s4_192"
>describe the effects on the subject.</text>

<text 
x="157" 
y="1027" 
dx="0,0,0,0,0,0,0,0,0,0,0,0,0,0,0,0,0,0,0,0,0,0,0,0,0,0,0,0,0,0,0,0,0,0,0,0,0,0,0,0,0,0,0,0,0,0,0,-0.5,0,0,0,0,0,-0.5,0,0,0,0,0,0,0,0,0,0,0,0,0,0,0,0,0,-0.5,0,0,0,0,0,0,0,0,0,0,0,0,0,0,0,0,0,0,0,0,-0.2,0,-0.2,0,0" 
class="s4_192"
>As shown in (A), (B), and (C), when an adjective serves as a descriptive complement, it is often </text>

<text 
x="157" 
y="1055" 
dx="0,0,-0.2,0,0,0,0,0,0,0,0,0,0,0,0,0,0,0,0,-0.5,0,0,0" 
class="s4_192"
>preceded by the adverb </text>

<text 
x="328" 
y="1056" 
dx="0" 
class="s5_192"
>很</text>

<text 
x="356" 
y="1055" 
dx="0,0.3,0.3,0.3,0.3" 
class="s10_192"
>(hěn)</text>

<text 
x="391" 
y="1055" 
dx="0,0,0,0,0,0,0,0,0,0,-0.4,0,0,0,0,0,-0.2,0,0,0,0,0,-0.2,0,0,0,0,0,0,0,0,0,-0.5,0" 
class="s4_192"
>, just like a predicate adjective.</text>

<text 
x="157" 
y="1096" 
dx="0,0,0,0,0,0,0,0,0,0,0,0,0,0,0,0,0,0,0,0,0,0,0,0,0,0,0,0,0,0,0,0,0,0,0,0,0,0,0,0,0,0,0,0,0,0,0,0,0,0,0,0,0,0,0,0,0,0,0,0,0,0,0,0,0,-0.5,0" 
class="s4_192"
>A complement describing the subject seldom appears in the negative.</text>

<text 
x="240" 
y="1135" 
dx="0" 
class="s12_192"
>[</text>

<g clip-path="url(#c0_192)">
<path d="M259.4,1135.2c4.8,0,8.6,-3.8,8.6,-8.5c0,-4.7,-3.8,-8.5,-8.6,-8.5c-4.7,0,-8.5,3.8,-8.5,8.5c0,4.7,3.8,8.5,8.5,8.5Z" class="g4_192" />
</g>
<path d="M255.7,1123l7.5,7.4" class="g5_192" />
<path d="M263.2,1123l-7.5,7.4" class="g5_192" />
<text 
x="275" 
y="1135" 
dx="0,0,0,0,0,0,0,0,0,0,0,0" 
class="s8_192"
>他高兴得没有又唱又跳。]</text>

<path d="M146.6,142.3l0,53.5l0,0.7l0.8,0l676.9,0l0.8,0l0,-0.7l0,-53.5l0,-0.8l-0.8,0l-676.9,0l-0.8,0l0,0.8Z" class="g6_192" />
<path d="M148.7,194.5l674.3,0l0,-50.9l-674.3,0l0,50.9Z" class="g7_192" />
<path d="M164.4,275.3c-0.1,0,-7.7,0,-7.7,7.6l0,19.7c0,0.1,0.1,7.6,7.7,7.6l22.4,0c0.1,0,7.6,-0.1,7.6,-7.6l0,-19.7c0,-0.1,-0.1,-7.6,-7.6,-7.6l-22.4,0Z" class="g6_192" />
<path d="M164.4,277.3c-0.6,0,-5.6,0.2,-5.6,5.6l0,19.7c0,0.6,0.2,5.6,5.6,5.6l22.4,0c0.6,0,5.6,-0.2,5.6,-5.6l0,-19.7c0,-0.6,-0.2,-5.6,-5.6,-5.6l-22.4,0Z" class="g7_192" />
<path d="M164.4,437.9c-0.1,0,-7.7,0.1,-7.7,7.6l0,19.7c0,0.1,0.1,7.7,7.7,7.7l22.4,0c0.1,0,7.6,-0.1,7.6,-7.7l0,-19.7c0,-0.1,-0.1,-7.6,-7.6,-7.6l-22.4,0Z" class="g6_192" />
<path d="M164.4,439.9c-0.6,0,-5.6,0.2,-5.6,5.6l0,19.7c0,0.6,0.2,5.6,5.6,5.6l22.4,0c0.6,0,5.6,-0.2,5.6,-5.6l0,-19.7c0,-0.5,-0.2,-5.6,-5.6,-5.6l-22.4,0Z" class="g7_192" />
<path d="M164.4,600.5c-0.1,0,-7.7,0.1,-7.7,7.7l0,19.6c0,0.1,0.1,7.7,7.7,7.7l22.4,0c0.1,0,7.6,-0.1,7.6,-7.7l0,-19.6c0,-0.1,-0.1,-7.7,-7.6,-7.7l-22.4,0Z" class="g6_192" />
<path d="M164.4,602.6c-0.6,0,-5.6,0.2,-5.6,5.6l0,19.6c0,0.6,0.2,5.7,5.6,5.7l22.4,0c0.6,-0.1,5.6,-0.3,5.6,-5.7l0,-19.6c0,-0.6,-0.2,-5.6,-5.6,-5.6l-22.4,0Z" class="g7_192" />
<path d="M164.4,763.1c-0.1,0,-7.7,0.1,-7.7,7.7l0,19.7c0,0.1,0.1,7.6,7.7,7.6l22.4,0c0.1,0,7.6,-0.1,7.6,-7.6l0,-19.7c0,-0.1,-0.1,-7.7,-7.6,-7.7l-22.4,0Z" class="g6_192" />
<path d="M164.4,765.2c-0.6,0,-5.6,0.2,-5.6,5.6l0,19.7c0,0.5,0.2,5.6,5.6,5.6l22.4,0c0.6,0,5.6,-0.2,5.6,-5.6l0,-19.7c0,-0.6,-0.2,-5.6,-5.6,-5.6l-22.4,0Z" class="g7_192" />
<path d="M881.6,1209.2l69.5,0l0,-1222.1l-69.5,0l0,1222.1Z" class="g8_192" />
<text 
transform="matrix(0, 1, -1, 0, 890, 926)"
dx="0,1,1,1,1,1,1,1,1,1" 
class="s13_192"
>Lesson 16 </text>

<text 
transform="matrix(0, 1, -1, 0, 890, 998)"
dx="0,1" 
class="s13_192"
>| </text>

<text 
transform="matrix(0, 1, -1, 0, 890, 1012)"
dx="0,1,1,1,1,1,1" 
class="s13_192"
>Dating </text>

<text 
transform="matrix(0, 1, -1, 0, 890, 1063)"
dx="0,1" 
class="s13_192"
>| </text>

<text 
transform="matrix(0, 1, -1, 0, 890, 1077)"
dx="0,1,0.9,1,1,1,1,1" 
class="s13_192"
>Grammar </text>

<text 
transform="matrix(0, 1, -1, 0, 890, 1153)"
dx="0,1,1,-2.3" 
class="s13_192"
>171 </text>



<!-- Any embedded fonts defined here -->
<style type="text/css" ><![CDATA[

@font-face {
	font-family: LibreFranklin-ExtraBold_44v;
	src: url("fonts/LibreFranklin-ExtraBold_44v.woff") format("woff");
}

@font-face {
	font-family: LibreFranklin-Regular_45b;
	src: url("fonts/LibreFranklin-Regular_45b.woff") format("woff");
}

@font-face {
	font-family: STKaitiSC-Regular_45i;
	src: url("fonts/STKaitiSC-Regular_45i.woff") format("woff");
}

@font-face {
	font-family: GentiumBasic-Italic_3ou;
	src: url("fonts/GentiumBasic-Italic_3ou.woff") format("woff");
}

@font-face {
	font-family: GentiumBasic-Italic_45h;
	src: url("fonts/GentiumBasic-Italic_45h.woff") format("woff");
}

@font-face {
	font-family: STKaitiSC-Bold_3wm;
	src: url("fonts/STKaitiSC-Bold_3wm.woff") format("woff");
}

@font-face {
	font-family: LibreFranklin-SemiBold_454;
	src: url("fonts/LibreFranklin-SemiBold_454.woff") format("woff");
}

@font-face {
	font-family: STKaitiSC-Regular_44y;
	src: url("fonts/STKaitiSC-Regular_44y.woff") format("woff");
}

@font-face {
	font-family: LibreFranklin-Bold_44h;
	src: url("fonts/LibreFranklin-Bold_44h.woff") format("woff");
}

]]></style>

</svg>
