<?xml version="1.0" encoding="UTF-8" standalone="no"?>
<!DOCTYPE svg PUBLIC "-//W3C//DTD SVG 1.1//EN"
"http://www.w3.org/Graphics/SVG/1.1/DTD/svg11.dtd">


<!-- Page 385 -->
<svg x="0" y="0" width="921" height="1196" viewBox="0 0 921 1196" version="1.1" xmlns="http://www.w3.org/2000/svg" xmlns:xlink="http://www.w3.org/1999/xlink"
style="display: block;margin-left: auto;margin-right: auto;">
<defs>

<style type="text/css"><![CDATA[

.g1_385{
fill: #BDBEC1;
}
.g2_385{
fill: #F0F1F2;
}
.g3_385{
fill: none;
stroke: #BDBEC1;
stroke-width: 0.38194445;
stroke-linecap: butt;
stroke-linejoin: miter;
}
.g4_385{
fill: none;
stroke: #DADBDD;
stroke-width: 1.5277778;
stroke-linecap: butt;
stroke-linejoin: miter;
}
.g5_385{
fill: none;
stroke: #BDBEC1;
stroke-width: 1.5277778;
stroke-linecap: butt;
stroke-linejoin: miter;
}
.g6_385{
fill: #57585A;
stroke: #B2B3B7;
stroke-width: 1.5277778;
stroke-linecap: butt;
stroke-linejoin: miter;
stroke-miterlimit: 4;
}

.s1_385{
font-size: 14.51px;
font-family: LibreFranklin-SemiBold_4gw;
fill: #57585A;
}
.s2_385{
font-size: 19.86px;
font-family: LibreFranklin-SemiBold_4gw;
fill: #3F3F40;
}
.s3_385{
font-size: 15.28px;
font-family: LibreFranklin-Regular_4h1;
fill: #3F3F40;
}
.s4_385{
font-size: 24.44px;
font-family: STKaitiSC-Regular_44y;
fill: #57585A;
}
.s5_385{
font-size: 14.90px;
font-family: GentiumBookBasic-Italic_3mn;
fill: #3F3F40;
}
.s6_385{
font-size: 14.51px;
font-family: LibreFranklin-SemiBold_4gw;
fill: #77787B;
}
.s7_385{
font-size: 14.51px;
font-family: LibreFranklin-Regular_4h1;
fill: #3F3F40;
}
.s8_385{
font-size: 24.44px;
font-family: STKaitiTC-Regular_4h8;
fill: #57585A;
}
.s9_385{
font-size: 10.69px;
font-family: LibreFranklin-SemiBold_4gw;
fill: #FFFFFF;
}

]]></style>

</defs>
<path d="M0,0
L0,1196
L921,1196
L921,0 Z " 
fill="#FFFFFF" stroke="none" />
<path d="M55,95l811.3,0l0,42.7L55,137.7L55,95Z" class="g1_385" />
<path d="M55,179.9l178.8,0l0,42.2L55,222.1l0,-42.2Zm178.8,0l196.9,0l0,42.2l-196.9,0l0,-42.2Zm196.9,0l196.9,0l0,42.2l-196.9,0l0,-42.2Zm196.9,0l104.5,0l0,42.2l-104.5,0l0,-42.2Zm104.5,0l70.4,0l0,42.2l-70.4,0l0,-42.2Zm70.4,0l63.8,0l0,42.2l-63.8,0l0,-42.2ZM55,264.2l178.8,0l0,42.2L55,306.4l0,-42.2Zm178.8,0l196.9,0l0,42.2l-196.9,0l0,-42.2Zm196.9,0l196.9,0l0,42.2l-196.9,0l0,-42.2Zm196.9,0l104.5,0l0,42.2l-104.5,0l0,-42.2Zm104.5,0l70.4,0l0,42.2l-70.4,0l0,-42.2Zm70.4,0l63.8,0l0,42.2l-63.8,0l0,-42.2ZM55,348.5l178.8,0l0,42.2L55,390.7l0,-42.2Zm178.8,0l196.9,0l0,42.2l-196.9,0l0,-42.2Zm196.9,0l196.9,0l0,42.2l-196.9,0l0,-42.2Zm196.9,0l104.5,0l0,42.2l-104.5,0l0,-42.2Zm104.5,0l70.4,0l0,42.2l-70.4,0l0,-42.2Zm70.4,0l63.8,0l0,42.2l-63.8,0l0,-42.2ZM55,432.9l178.8,0l0,46.8L55,479.7l0,-46.8Zm178.8,0l196.9,0l0,46.8l-196.9,0l0,-46.8Zm196.9,0l196.9,0l0,46.8l-196.9,0l0,-46.8Zm196.9,0l104.5,0l0,46.8l-104.5,0l0,-46.8Zm104.5,0l70.4,0l0,46.8l-70.4,0l0,-46.8Zm70.4,0l63.8,0l0,46.8l-63.8,0l0,-46.8ZM55,521.9l178.8,0l0,42.1L55,564l0,-42.1Zm178.8,0l196.9,0l0,42.1l-196.9,0l0,-42.1Zm196.9,0l196.9,0l0,42.1l-196.9,0l0,-42.1Zm196.9,0l104.5,0l0,42.1l-104.5,0l0,-42.1Zm104.5,0l70.4,0l0,42.1l-70.4,0l0,-42.1Zm70.4,0l63.8,0l0,42.1l-63.8,0l0,-42.1ZM55,610.9l178.8,0l0,42.1L55,653l0,-42.1Zm178.8,0l196.9,0l0,42.1l-196.9,0l0,-42.1Zm196.9,0l196.9,0l0,42.1l-196.9,0l0,-42.1Zm196.9,0l104.5,0l0,42.1l-104.5,0l0,-42.1Zm104.5,0l70.4,0l0,42.1l-70.4,0l0,-42.1Zm70.4,0l63.8,0l0,42.1l-63.8,0l0,-42.1ZM55,695.2l178.8,0l0,42.2L55,737.4l0,-42.2Zm178.8,0l196.9,0l0,42.2l-196.9,0l0,-42.2Zm196.9,0l196.9,0l0,42.2l-196.9,0l0,-42.2Zm196.9,0l104.5,0l0,42.2l-104.5,0l0,-42.2Zm104.5,0l70.4,0l0,42.2l-70.4,0l0,-42.2Zm70.4,0l63.8,0l0,42.2l-63.8,0l0,-42.2ZM55,779.5l178.8,0l0,42.2L55,821.7l0,-42.2Zm178.8,0l196.9,0l0,42.2l-196.9,0l0,-42.2Zm196.9,0l196.9,0l0,42.2l-196.9,0l0,-42.2Zm196.9,0l104.5,0l0,42.2l-104.5,0l0,-42.2Zm104.5,0l70.4,0l0,42.2l-70.4,0l0,-42.2Zm70.4,0l63.8,0l0,42.2l-63.8,0l0,-42.2ZM55,863.9l178.8,0l0,42.1L55,906l0,-42.1Zm178.8,0l196.9,0l0,42.1l-196.9,0l0,-42.1Zm196.9,0l196.9,0l0,42.1l-196.9,0l0,-42.1Zm196.9,0l104.5,0l0,42.1l-104.5,0l0,-42.1Zm104.5,0l70.4,0l0,42.1l-70.4,0l0,-42.1Zm70.4,0l63.8,0l0,42.1l-63.8,0l0,-42.1ZM55,948.2l178.8,0l0,66.7l-178.8,0l0,-66.7Zm178.8,0l196.9,0l0,66.7l-196.9,0l0,-66.7Zm196.9,0l196.9,0l0,66.7l-196.9,0l0,-66.7Zm196.9,0l104.5,0l0,66.7l-104.5,0l0,-66.7Zm104.5,0l70.4,0l0,66.7l-70.4,0l0,-66.7Zm70.4,0l63.8,0l0,66.7l-63.8,0l0,-66.7ZM55,1057l178.8,0l0,42.2l-178.8,0L55,1057Zm178.8,0l196.9,0l0,42.2l-196.9,0l0,-42.2Zm196.9,0l196.9,0l0,42.2l-196.9,0l0,-42.2Zm196.9,0l104.5,0l0,42.2l-104.5,0l0,-42.2Zm104.5,0l70.4,0l0,42.2l-70.4,0l0,-42.2Zm70.4,0l63.8,0l0,42.2l-63.8,0l0,-42.2Z" class="g2_385" />
<path d="M55,137.7l178.8,0" class="g3_385" />
<path d="M233.8,137.7l196.9,0" class="g3_385" />
<path d="M430.7,137.7l196.9,0" class="g3_385" />
<path d="M627.6,137.7l104.5,0" class="g3_385" />
<path d="M732.1,137.7l70.4,0" class="g3_385" />
<path d="M802.5,137.7l63.8,0" class="g3_385" />
<path d="M55,179.9l178.8,0" class="g3_385" />
<path d="M233.8,179.9l196.9,0" class="g3_385" />
<path d="M430.7,179.9l196.9,0" class="g3_385" />
<path d="M627.6,179.9l104.5,0" class="g3_385" />
<path d="M732.1,179.9l70.4,0" class="g3_385" />
<path d="M802.5,179.9l63.8,0" class="g3_385" />
<path d="M55,222.1l178.8,0" class="g3_385" />
<path d="M233.8,222.1l196.9,0" class="g3_385" />
<path d="M430.7,222.1l196.9,0" class="g3_385" />
<path d="M627.6,222.1l104.5,0" class="g3_385" />
<path d="M732.1,222.1l70.4,0" class="g3_385" />
<path d="M802.5,222.1l63.8,0" class="g3_385" />
<path d="M55,264.2l178.8,0" class="g3_385" />
<path d="M233.8,264.2l196.9,0" class="g3_385" />
<path d="M430.7,264.2l196.9,0" class="g3_385" />
<path d="M627.6,264.2l104.5,0" class="g3_385" />
<path d="M732.1,264.2l70.4,0" class="g3_385" />
<path d="M802.5,264.2l63.8,0" class="g3_385" />
<path d="M55,306.4l178.8,0" class="g3_385" />
<path d="M233.8,306.4l196.9,0" class="g3_385" />
<path d="M430.7,306.4l196.9,0" class="g3_385" />
<path d="M627.6,306.4l104.5,0" class="g3_385" />
<path d="M732.1,306.4l70.4,0" class="g3_385" />
<path d="M802.5,306.4l63.8,0" class="g3_385" />
<path d="M55,348.5l178.8,0" class="g3_385" />
<path d="M233.8,348.5l196.9,0" class="g3_385" />
<path d="M430.7,348.5l196.9,0" class="g3_385" />
<path d="M627.6,348.5l104.5,0" class="g3_385" />
<path d="M732.1,348.5l70.4,0" class="g3_385" />
<path d="M802.5,348.5l63.8,0" class="g3_385" />
<path d="M55,390.7l178.8,0" class="g3_385" />
<path d="M233.8,390.7l196.9,0" class="g3_385" />
<path d="M430.7,390.7l196.9,0" class="g3_385" />
<path d="M627.6,390.7l104.5,0" class="g3_385" />
<path d="M732.1,390.7l70.4,0" class="g3_385" />
<path d="M802.5,390.7l63.8,0" class="g3_385" />
<path d="M55,432.9l178.8,0" class="g3_385" />
<path d="M233.8,432.9l196.9,0" class="g3_385" />
<path d="M430.7,432.9l196.9,0" class="g3_385" />
<path d="M627.6,432.9l104.5,0" class="g3_385" />
<path d="M732.1,432.9l70.4,0" class="g3_385" />
<path d="M802.5,432.9l63.8,0" class="g3_385" />
<path d="M55,479.7l178.8,0" class="g3_385" />
<path d="M233.8,479.7l196.9,0" class="g3_385" />
<path d="M430.7,479.7l196.9,0" class="g3_385" />
<path d="M627.6,479.7l104.5,0" class="g3_385" />
<path d="M732.1,479.7l70.4,0" class="g3_385" />
<path d="M802.5,479.7l63.8,0" class="g3_385" />
<path d="M55,521.9l178.8,0" class="g3_385" />
<path d="M233.8,521.9l196.9,0" class="g3_385" />
<path d="M430.7,521.9l196.9,0" class="g3_385" />
<path d="M627.6,521.9l104.5,0" class="g3_385" />
<path d="M732.1,521.9l70.4,0" class="g3_385" />
<path d="M802.5,521.9l63.8,0" class="g3_385" />
<path d="M55,564l178.8,0" class="g3_385" />
<path d="M233.8,564l196.9,0" class="g3_385" />
<path d="M430.7,564l196.9,0" class="g3_385" />
<path d="M627.6,564l104.5,0" class="g3_385" />
<path d="M732.1,564l70.4,0" class="g3_385" />
<path d="M802.5,564l63.8,0" class="g3_385" />
<path d="M55,610.9l178.8,0" class="g3_385" />
<path d="M233.8,610.9l196.9,0" class="g3_385" />
<path d="M430.7,610.9l196.9,0" class="g3_385" />
<path d="M627.6,610.9l104.5,0" class="g3_385" />
<path d="M732.1,610.9l70.4,0" class="g3_385" />
<path d="M802.5,610.9l63.8,0" class="g3_385" />
<path d="M55,653l178.8,0" class="g3_385" />
<path d="M233.8,653l196.9,0" class="g3_385" />
<path d="M430.7,653l196.9,0" class="g3_385" />
<path d="M627.6,653l104.5,0" class="g3_385" />
<path d="M732.1,653l70.4,0" class="g3_385" />
<path d="M802.5,653l63.8,0" class="g3_385" />
<path d="M55,695.2l178.8,0" class="g3_385" />
<path d="M233.8,695.2l196.9,0" class="g3_385" />
<path d="M430.7,695.2l196.9,0" class="g3_385" />
<path d="M627.6,695.2l104.5,0" class="g3_385" />
<path d="M732.1,695.2l70.4,0" class="g3_385" />
<path d="M802.5,695.2l63.8,0" class="g3_385" />
<path d="M55,737.4l178.8,0" class="g3_385" />
<path d="M233.8,737.4l196.9,0" class="g3_385" />
<path d="M430.7,737.4l196.9,0" class="g3_385" />
<path d="M627.6,737.4l104.5,0" class="g3_385" />
<path d="M732.1,737.4l70.4,0" class="g3_385" />
<path d="M802.5,737.4l63.8,0" class="g3_385" />
<path d="M55,779.5l178.8,0" class="g3_385" />
<path d="M233.8,779.5l196.9,0" class="g3_385" />
<path d="M430.7,779.5l196.9,0" class="g3_385" />
<path d="M627.6,779.5l104.5,0" class="g3_385" />
<path d="M732.1,779.5l70.4,0" class="g3_385" />
<path d="M802.5,779.5l63.8,0" class="g3_385" />
<path d="M55,821.7l178.8,0" class="g3_385" />
<path d="M233.8,821.7l196.9,0" class="g3_385" />
<path d="M430.7,821.7l196.9,0" class="g3_385" />
<path d="M627.6,821.7l104.5,0" class="g3_385" />
<path d="M732.1,821.7l70.4,0" class="g3_385" />
<path d="M802.5,821.7l63.8,0" class="g3_385" />
<path d="M55,863.9l178.8,0" class="g3_385" />
<path d="M233.8,863.9l196.9,0" class="g3_385" />
<path d="M430.7,863.9l196.9,0" class="g3_385" />
<path d="M627.6,863.9l104.5,0" class="g3_385" />
<path d="M732.1,863.9l70.4,0" class="g3_385" />
<path d="M802.5,863.9l63.8,0" class="g3_385" />
<path d="M55,906l178.8,0" class="g3_385" />
<path d="M233.8,906l196.9,0" class="g3_385" />
<path d="M430.7,906l196.9,0" class="g3_385" />
<path d="M627.6,906l104.5,0" class="g3_385" />
<path d="M732.1,906l70.4,0" class="g3_385" />
<path d="M802.5,906l63.8,0" class="g3_385" />
<path d="M55,948.2l178.8,0" class="g3_385" />
<path d="M233.8,948.2l196.9,0" class="g3_385" />
<path d="M430.7,948.2l196.9,0" class="g3_385" />
<path d="M627.6,948.2l104.5,0" class="g3_385" />
<path d="M732.1,948.2l70.4,0" class="g3_385" />
<path d="M802.5,948.2l63.8,0" class="g3_385" />
<path d="M55,1014.9l178.8,0" class="g3_385" />
<path d="M233.8,1014.9l196.9,0" class="g3_385" />
<path d="M430.7,1014.9l196.9,0" class="g3_385" />
<path d="M627.6,1014.9l104.5,0" class="g3_385" />
<path d="M732.1,1014.9l70.4,0" class="g3_385" />
<path d="M802.5,1014.9l63.8,0" class="g3_385" />
<path d="M55,1057l178.8,0" class="g3_385" />
<path d="M233.8,1057l196.9,0" class="g3_385" />
<path d="M430.7,1057l196.9,0" class="g3_385" />
<path d="M627.6,1057l104.5,0" class="g3_385" />
<path d="M732.1,1057l70.4,0" class="g3_385" />
<path d="M802.5,1057l63.8,0" class="g3_385" />
<path d="M55,1099.2l178.8,0" class="g3_385" />
<path d="M233.8,1099.2l196.9,0" class="g3_385" />
<path d="M430.7,1099.2l196.9,0" class="g3_385" />
<path d="M627.6,1099.2l104.5,0" class="g3_385" />
<path d="M732.1,1099.2l70.4,0" class="g3_385" />
<path d="M802.5,1099.2l63.8,0" class="g3_385" />
<path d="M55,95l178.8,0" class="g4_385" />
<path d="M233.8,95l196.9,0" class="g4_385" />
<path d="M430.7,95l196.9,0" class="g4_385" />
<path d="M627.6,95l104.5,0" class="g4_385" />
<path d="M732.1,95l70.4,0" class="g4_385" />
<path d="M802.5,95l63.8,0" class="g4_385" />
<path d="M55,1141.9l178.8,0" class="g5_385" />
<path d="M233.8,1141.9l196.9,0" class="g5_385" />
<path d="M430.7,1141.9l196.9,0" class="g5_385" />
<path d="M627.6,1141.9l104.5,0" class="g5_385" />
<path d="M732.1,1141.9l70.4,0" class="g5_385" />
<path d="M802.5,1141.9l63.8,0" class="g5_385" />
<text 
x="61" 
y="82" 
dx="0,0,0,0,0,0,0" 
class="s1_385"
>English</text>

<text 
x="239" 
y="82" 
dx="0,0,0,0,0,0,0,0,0,0" 
class="s1_385"
>Simplified</text>

<text 
x="436" 
y="82" 
dx="0,-1.2,-0.1,0,0,0,0,0,0,0,0" 
class="s1_385"
>Traditional</text>

<text 
x="633" 
y="82" 
dx="0,0,0,0,0,0" 
class="s1_385"
>Pinyin</text>

<text 
x="738" 
y="75" 
dx="0,0,0,0,0,0,-0.2,0" 
class="s1_385"
>Part of </text>

<text 
x="738" 
y="88" 
dx="0,0,0,0,0,0" 
class="s1_385"
>Speech</text>

<text 
x="808" 
y="81" 
dx="0,0,0,0,0,0" 
class="s1_385"
>Lesson</text>

<text 
x="454" 
y="126" 
dx="0" 
class="s2_385"
>L</text>

<text 
x="61" 
y="166" 
dx="0,0,0,0,0,0,0,0,0" 
class="s3_385"
>last time</text>

<text 
x="239" 
y="167" 
dx="0,0" 
class="s4_385"
>上次</text>

<text 
x="633" 
y="165" 
dx="0,0.2,0.2,0.2,0.2,0.2,0.2,0.2" 
class="s5_385"
>shàng cì</text>

<text 
x="808" 
y="165" 
dx="0,0" 
class="s6_385"
>15</text>

<text 
x="61" 
y="208" 
dx="0,0,0,0,0,0,0,0,0" 
class="s3_385"
>last year</text>

<text 
x="239" 
y="209" 
dx="0,0" 
class="s4_385"
>去年</text>

<text 
x="633" 
y="207" 
dx="0,0.2,0.2,0.2,0.2,0.2" 
class="s5_385"
>qùnián</text>

<text 
x="738" 
y="207" 
dx="0" 
class="s7_385"
>t</text>

<text 
x="808" 
y="207" 
dx="0,0" 
class="s6_385"
>14</text>

<text 
x="61" 
y="250" 
dx="0,0,0,-0.2" 
class="s3_385"
>late</text>

<text 
x="239" 
y="251" 
dx="0" 
class="s4_385"
>晚</text>

<text 
x="633" 
y="249" 
dx="0,0.2,0.2" 
class="s5_385"
>wǎn</text>

<text 
x="738" 
y="250" 
dx="0,0,0" 
class="s7_385"
>adj</text>

<text 
x="808" 
y="250" 
dx="0" 
class="s6_385"
>7</text>

<text 
x="61" 
y="292" 
dx="0,0,0,-0.2,0" 
class="s3_385"
>later</text>

<text 
x="239" 
y="294" 
dx="0,0" 
class="s4_385"
>后来</text>

<text 
x="436" 
y="294" 
dx="0,0" 
class="s8_385"
>後來</text>

<text 
x="633" 
y="291" 
dx="0,0.2,0.2,0.2,0.2,0.2" 
class="s5_385"
>hòulái</text>

<text 
x="738" 
y="292" 
dx="0" 
class="s7_385"
>t</text>

<text 
x="808" 
y="292" 
dx="0" 
class="s6_385"
>8</text>

<text 
x="61" 
y="334" 
dx="0,0,0,0,0,0,0,0,0,0,0,0,0,0,0,0,0,0,0,0,0,0" 
class="s3_385"
>laugh at, laugh, smile</text>

<text 
x="239" 
y="336" 
dx="0" 
class="s4_385"
>笑</text>

<text 
x="633" 
y="333" 
dx="0,0.2,0.2,0.2" 
class="s5_385"
>xiào</text>

<text 
x="738" 
y="334" 
dx="0" 
class="s7_385"
>v</text>

<text 
x="808" 
y="334" 
dx="0" 
class="s6_385"
>8</text>

<text 
x="61" 
y="377" 
dx="0,0,0,0,0,0" 
class="s3_385"
>lawyer</text>

<text 
x="239" 
y="378" 
dx="0,0" 
class="s4_385"
>律师</text>

<text 
x="436" 
y="378" 
dx="0,0" 
class="s8_385"
>律師</text>

<text 
x="633" 
y="376" 
dx="0,0.2,0.2,0.2,0.2" 
class="s5_385"
>lǜshī</text>

<text 
x="738" 
y="376" 
dx="0" 
class="s7_385"
>n</text>

<text 
x="808" 
y="376" 
dx="0" 
class="s6_385"
>2</text>

<text 
x="61" 
y="419" 
dx="0,0,0,0" 
class="s3_385"
>lazy</text>

<text 
x="239" 
y="420" 
dx="0" 
class="s4_385"
>懒</text>

<text 
x="436" 
y="420" 
dx="0" 
class="s8_385"
>懶</text>

<text 
x="633" 
y="418" 
dx="0,0.2,0.2" 
class="s5_385"
>lǎn</text>

<text 
x="738" 
y="418" 
dx="0,0,0" 
class="s7_385"
>adj</text>

<text 
x="808" 
y="418" 
dx="0,0" 
class="s6_385"
>15</text>

<text 
x="61" 
y="453" 
dx="0,0,0,0,0,0,0,0,0,0,0,0,0,0,0,0,0,0,0,0,0,0,0" 
class="s3_385"
>lean on, lean against, </text>

<text 
x="61" 
y="473" 
dx="0,0,0,0,0,-0.3,-0.2,0,0,-0.2" 
class="s3_385"
>be next to</text>

<text 
x="239" 
y="465" 
dx="0" 
class="s4_385"
>靠</text>

<text 
x="633" 
y="462" 
dx="0,0.2,0.2" 
class="s5_385"
>kào</text>

<text 
x="738" 
y="463" 
dx="0" 
class="s7_385"
>v</text>

<text 
x="808" 
y="463" 
dx="0,0" 
class="s6_385"
>19</text>

<text 
x="61" 
y="508" 
dx="0,0,0,0" 
class="s3_385"
>left</text>

<text 
x="239" 
y="509" 
dx="0" 
class="s4_385"
>左</text>

<text 
x="633" 
y="507" 
dx="0,0.2,0.2" 
class="s5_385"
>zuǒ</text>

<text 
x="738" 
y="507" 
dx="0" 
class="s7_385"
>n</text>

<text 
x="808" 
y="507" 
dx="0,0" 
class="s6_385"
>13</text>

<text 
x="61" 
y="550" 
dx="0,0,0,0,0,0" 
class="s3_385"
>length</text>

<text 
x="239" 
y="551" 
dx="0,0" 
class="s4_385"
>长短</text>

<text 
x="436" 
y="551" 
dx="0,0" 
class="s8_385"
>長短</text>

<text 
x="633" 
y="549" 
dx="0,0.2,0.2,0.2,0.2,0.2,0.2,0.2,0.2" 
class="s5_385"
>chángduǎn</text>

<text 
x="738" 
y="549" 
dx="0" 
class="s7_385"
>n</text>

<text 
x="808" 
y="549" 
dx="0" 
class="s6_385"
>9</text>

<text 
x="61" 
y="584" 
dx="0,0,-0.1,0,-0.2,0,0,0,0,0,0,0,-0.2,0,0,0,0,0" 
class="s3_385"
>letter (correspon-</text>

<text 
x="61" 
y="604" 
dx="0,0,0,0,0,0" 
class="s3_385"
>dence)</text>

<text 
x="239" 
y="596" 
dx="0" 
class="s4_385"
>信</text>

<text 
x="633" 
y="593" 
dx="0,0.2,0.2" 
class="s5_385"
>xìn</text>

<text 
x="738" 
y="594" 
dx="0" 
class="s7_385"
>n</text>

<text 
x="808" 
y="594" 
dx="0" 
class="s6_385"
>8</text>

<text 
x="61" 
y="639" 
dx="0,0,0,-0.5,0,0,0,0,0,0,0,0,0,0,-0.2" 
class="s3_385"
>level, standard</text>

<text 
x="239" 
y="640" 
dx="0,0" 
class="s4_385"
>水平</text>

<text 
x="633" 
y="638" 
dx="0,0.2,0.2,0.2,0.2,0.2,0.2,0.2" 
class="s5_385"
>shuǐpíng</text>

<text 
x="738" 
y="638" 
dx="0" 
class="s7_385"
>n</text>

<text 
x="808" 
y="638" 
dx="0,0" 
class="s6_385"
>18</text>

<text 
x="61" 
y="681" 
dx="0,0,0,0,-1.6,0" 
class="s3_385"
>Li You</text>

<text 
x="239" 
y="682" 
dx="0,0" 
class="s4_385"
>李友</text>

<text 
x="633" 
y="680" 
dx="0,0.2,0.2,0.2,0.2,0.2" 
class="s5_385"
>Lǐ Yǒu</text>

<text 
x="738" 
y="681" 
dx="0,0" 
class="s7_385"
>pn</text>

<text 
x="808" 
y="681" 
dx="0" 
class="s6_385"
>1</text>

<text 
x="61" 
y="723" 
dx="0,0,0,0,0,0,0" 
class="s3_385"
>library</text>

<text 
x="239" 
y="725" 
dx="0,0,0" 
class="s4_385"
>图书馆</text>

<text 
x="436" 
y="725" 
dx="0,0,0" 
class="s8_385"
>圖書館</text>

<text 
x="633" 
y="722" 
dx="0,0.2,0.2,0.2,0.2,0.2,0.2,0.2,0.2" 
class="s5_385"
>túshūguǎn</text>

<text 
x="738" 
y="723" 
dx="0" 
class="s7_385"
>n</text>

<text 
x="808" 
y="723" 
dx="0" 
class="s6_385"
>5</text>

<text 
x="61" 
y="765" 
dx="0,0,0,0,0,0,0,0" 
class="s3_385"
>lie down</text>

<text 
x="239" 
y="767" 
dx="0,0" 
class="s4_385"
>躺下</text>

<text 
x="633" 
y="764" 
dx="0,0.2,0.2,0.2,0.2,0.2,0.2,0.2" 
class="s5_385"
>tǎng xià</text>

<text 
x="738" 
y="765" 
dx="0,-0.4" 
class="s7_385"
>vc</text>

<text 
x="808" 
y="765" 
dx="0,0" 
class="s6_385"
>15</text>

<text 
x="61" 
y="807" 
dx="0,0,0,-0.4" 
class="s3_385"
>like</text>

<text 
x="239" 
y="809" 
dx="0,0" 
class="s4_385"
>喜欢</text>

<text 
x="436" 
y="809" 
dx="0,0" 
class="s8_385"
>喜歡</text>

<text 
x="633" 
y="807" 
dx="0,0.2,0.2,0.2,0.2,0.2" 
class="s5_385"
>xǐhuan</text>

<text 
x="738" 
y="807" 
dx="0" 
class="s7_385"
>v</text>

<text 
x="808" 
y="807" 
dx="0" 
class="s6_385"
>3</text>

<text 
x="61" 
y="850" 
dx="0,0,0,0" 
class="s3_385"
>line</text>

<text 
x="239" 
y="851" 
dx="0" 
class="s4_385"
>线</text>

<text 
x="436" 
y="851" 
dx="0" 
class="s8_385"
>線</text>

<text 
x="633" 
y="849" 
dx="0,0.2,0.2,0.2" 
class="s5_385"
>xiàn</text>

<text 
x="738" 
y="849" 
dx="0" 
class="s7_385"
>n</text>

<text 
x="808" 
y="849" 
dx="0,0" 
class="s6_385"
>10</text>

<text 
x="61" 
y="892" 
dx="0,0,0,0,-0.2,0" 
class="s3_385"
>listen</text>

<text 
x="239" 
y="893" 
dx="0" 
class="s4_385"
>听</text>

<text 
x="436" 
y="893" 
dx="0" 
class="s8_385"
>聽</text>

<text 
x="633" 
y="891" 
dx="0,0.2,0.2,0.2" 
class="s5_385"
>tīng</text>

<text 
x="738" 
y="891" 
dx="0" 
class="s7_385"
>v</text>

<text 
x="808" 
y="891" 
dx="0" 
class="s6_385"
>4</text>

<text 
x="61" 
y="934" 
dx="0,0,0,0,0,0,0,0,0,0,0,0,0,0,0,0,0,0,0" 
class="s3_385"
>little, a bit, some</text>

<text 
x="239" 
y="935" 
dx="0,0,0,0" 
class="s4_385"
>点（儿）</text>

<text 
x="436" 
y="935" 
dx="0,0,0,0" 
class="s8_385"
>點（兒）</text>

<text 
x="633" 
y="933" 
dx="0,0.2,0.2,0.2,0.2,0.2,0.2" 
class="s5_385"
>diǎn(r)</text>

<text 
x="738" 
y="934" 
dx="0" 
class="s7_385"
>m</text>

<text 
x="808" 
y="934" 
dx="0" 
class="s6_385"
>5</text>

<text 
x="61" 
y="969" 
dx="0,0,0,-0.5,0,0,0,0,0,0,0,-0.3,0,0,0,0,0,0,0,0,0,-0.5,0" 
class="s3_385"
>live (a life), observe </text>

<text 
x="61" 
y="988" 
dx="0,0,0,0,0,0,0,0,0,0,0,0,0,0,0,0,0,0,0,0,0,-0.2,0" 
class="s3_385"
>(a holiday), celebrate </text>

<text 
x="61" 
y="1008" 
dx="0,0,0,0,-0.3,0,0,0,0,0,0,0,0,0,0,0,0,0" 
class="s3_385"
>(a festival), pass</text>

<text 
x="239" 
y="990" 
dx="0" 
class="s4_385"
>过</text>

<text 
x="436" 
y="990" 
dx="0" 
class="s8_385"
>過</text>

<text 
x="633" 
y="988" 
dx="0,0.2,0.2" 
class="s5_385"
>guò</text>

<text 
x="738" 
y="988" 
dx="0" 
class="s7_385"
>v</text>

<text 
x="808" 
y="988" 
dx="0,0" 
class="s6_385"
>14</text>

<text 
x="61" 
y="1043" 
dx="0,0,0,-0.5,0,0,0,0,0,0,0,0,0,0,0,0,0,0,0,0,0,0,0,0,0" 
class="s3_385"
>live (in a certain place)</text>

<text 
x="239" 
y="1044" 
dx="0" 
class="s4_385"
>住</text>

<text 
x="633" 
y="1042" 
dx="0,0.2,0.2" 
class="s5_385"
>zhù</text>

<text 
x="738" 
y="1042" 
dx="0" 
class="s7_385"
>v</text>

<text 
x="808" 
y="1042" 
dx="0,0" 
class="s6_385"
>14</text>

<text 
x="61" 
y="1085" 
dx="0,0,0,0,0,0,0,0,-0.2,0,0" 
class="s3_385"
>living room</text>

<text 
x="239" 
y="1086" 
dx="0,0" 
class="s4_385"
>客厅</text>

<text 
x="436" 
y="1086" 
dx="0,0" 
class="s8_385"
>客廳</text>

<text 
x="633" 
y="1084" 
dx="0,0.2,0.2,0.2,0.2,0.2" 
class="s5_385"
>kètīng</text>

<text 
x="738" 
y="1085" 
dx="0" 
class="s7_385"
>n</text>

<text 
x="808" 
y="1085" 
dx="0,0" 
class="s6_385"
>17</text>

<text 
x="61" 
y="1127" 
dx="0,0,0,0,0,0,0,0,0" 
class="s3_385"
>long time</text>

<text 
x="239" 
y="1129" 
dx="0,0" 
class="s4_385"
>好久</text>

<text 
x="633" 
y="1126" 
dx="0,0.2,0.2,0.2,0.2,0.2,0.2" 
class="s5_385"
>hǎo jiǔ</text>

<text 
x="808" 
y="1127" 
dx="0" 
class="s6_385"
>4</text>

<path d="M-17.5,1209.2l58,0l0,-1222.1l-58,0l0,1222.1Z" class="g6_385" />
<text 
transform="matrix(0, -1, 1, 0, 32, 1173)"
dx="0,0.6,0.6,0.6" 
class="s9_385"
>364 </text>

<text 
transform="matrix(0, -1, 1, 0, 32, 1132)"
dx="0,0.6,0.6,0.5,0.6,0.6,0.6,0.6,0.5,0.6,0.6,0.6,0.6,0.6,0.6,0.6,0.6,0.6,0.6,0.6,0.6" 
class="s9_385"
>Integrated Chinese 2 </text>

<text 
transform="matrix(0, -1, 1, 0, 32, 1004)"
dx="0,0.6" 
class="s9_385"
>| </text>

<text 
transform="matrix(0, -1, 1, 0, 32, 992)"
dx="0,-0.6,0.4,0.3,0.6,0.6,0.6,0.6" 
class="s9_385"
>Textbook</text>



<!-- Any embedded fonts defined here -->
<style type="text/css" ><![CDATA[

@font-face {
	font-family: LibreFranklin-SemiBold_4gw;
	src: url("fonts/LibreFranklin-SemiBold_4gw.woff") format("woff");
}

@font-face {
	font-family: LibreFranklin-Regular_4h1;
	src: url("fonts/LibreFranklin-Regular_4h1.woff") format("woff");
}

@font-face {
	font-family: STKaitiTC-Regular_4h8;
	src: url("fonts/STKaitiTC-Regular_4h8.woff") format("woff");
}

@font-face {
	font-family: STKaitiSC-Regular_44y;
	src: url("fonts/STKaitiSC-Regular_44y.woff") format("woff");
}

@font-face {
	font-family: GentiumBookBasic-Italic_3mn;
	src: url("fonts/GentiumBookBasic-Italic_3mn.woff") format("woff");
}

]]></style>

</svg>
