<?xml version="1.0" encoding="UTF-8" standalone="no"?>
<!DOCTYPE svg PUBLIC "-//W3C//DTD SVG 1.1//EN"
"http://www.w3.org/Graphics/SVG/1.1/DTD/svg11.dtd">


<!-- Page 398 -->
<svg x="0" y="0" width="921" height="1196" viewBox="0 0 921 1196" version="1.1" xmlns="http://www.w3.org/2000/svg" xmlns:xlink="http://www.w3.org/1999/xlink"
style="display: block;margin-left: auto;margin-right: auto;">
<defs>

<style type="text/css"><![CDATA[

.g1_398{
fill: #F0F1F2;
}
.g2_398{
fill: none;
stroke: #BDBEC1;
stroke-width: 0.38194445;
stroke-linecap: butt;
stroke-linejoin: miter;
}
.g3_398{
fill: none;
stroke: #DADBDD;
stroke-width: 1.5277778;
stroke-linecap: butt;
stroke-linejoin: miter;
}
.g4_398{
fill: none;
stroke: #BDBEC1;
stroke-width: 1.5277778;
stroke-linecap: butt;
stroke-linejoin: miter;
}
.g5_398{
fill: #57585A;
stroke: #B2B3B7;
stroke-width: 1.5277778;
stroke-linecap: butt;
stroke-linejoin: miter;
stroke-miterlimit: 4;
}

.s1_398{
font-size: 14.51px;
font-family: LibreFranklin-SemiBold_4gw;
fill: #57585A;
}
.s2_398{
font-size: 15.28px;
font-family: LibreFranklin-Regular_4h1;
fill: #3F3F40;
}
.s3_398{
font-size: 24.44px;
font-family: STKaitiSC-Regular_44y;
fill: #57585A;
}
.s4_398{
font-size: 14.90px;
font-family: GentiumBookBasic-Italic_3mn;
fill: #3F3F40;
}
.s5_398{
font-size: 14.51px;
font-family: LibreFranklin-Regular_4h1;
fill: #3F3F40;
}
.s6_398{
font-size: 14.51px;
font-family: LibreFranklin-SemiBold_4gw;
fill: #77787B;
}
.s7_398{
font-size: 24.44px;
font-family: STKaitiTC-Regular_4h8;
fill: #57585A;
}
.s8_398{
font-size: 10.69px;
font-family: LibreFranklin-SemiBold_4gw;
fill: #FFFFFF;
}

]]></style>

</defs>
<path d="M0,0
L0,1196
L921,1196
L921,0 Z " 
fill="#FFFFFF" stroke="none" />
<path d="M55,137.7l178.8,0l0,42.2L55,179.9l0,-42.2Zm178.8,0l196.9,0l0,42.2l-196.9,0l0,-42.2Zm196.9,0l196.9,0l0,42.2l-196.9,0l0,-42.2Zm196.9,0l104.5,0l0,42.2l-104.5,0l0,-42.2Zm104.5,0l70.4,0l0,42.2l-70.4,0l0,-42.2Zm70.4,0l63.8,0l0,42.2l-63.8,0l0,-42.2ZM55,222.1l178.8,0l0,42.1L55,264.2l0,-42.1Zm178.8,0l196.9,0l0,42.1l-196.9,0l0,-42.1Zm196.9,0l196.9,0l0,42.1l-196.9,0l0,-42.1Zm196.9,0l104.5,0l0,42.1l-104.5,0l0,-42.1Zm104.5,0l70.4,0l0,42.1l-70.4,0l0,-42.1Zm70.4,0l63.8,0l0,42.1l-63.8,0l0,-42.1ZM55,306.4l178.8,0l0,42.1L55,348.5l0,-42.1Zm178.8,0l196.9,0l0,42.1l-196.9,0l0,-42.1Zm196.9,0l196.9,0l0,42.1l-196.9,0l0,-42.1Zm196.9,0l104.5,0l0,42.1l-104.5,0l0,-42.1Zm104.5,0l70.4,0l0,42.1l-70.4,0l0,-42.1Zm70.4,0l63.8,0l0,42.1l-63.8,0l0,-42.1ZM55,390.7l178.8,0l0,42.2L55,432.9l0,-42.2Zm178.8,0l196.9,0l0,42.2l-196.9,0l0,-42.2Zm196.9,0l196.9,0l0,42.2l-196.9,0l0,-42.2Zm196.9,0l104.5,0l0,42.2l-104.5,0l0,-42.2Zm104.5,0l70.4,0l0,42.2l-70.4,0l0,-42.2Zm70.4,0l63.8,0l0,42.2l-63.8,0l0,-42.2ZM55,475l178.8,0l0,42.2L55,517.2L55,475Zm178.8,0l196.9,0l0,42.2l-196.9,0l0,-42.2Zm196.9,0l196.9,0l0,42.2l-196.9,0l0,-42.2Zm196.9,0l104.5,0l0,42.2l-104.5,0l0,-42.2Zm104.5,0l70.4,0l0,42.2l-70.4,0l0,-42.2Zm70.4,0l63.8,0l0,42.2l-63.8,0l0,-42.2ZM55,559.4l178.8,0l0,42.1L55,601.5l0,-42.1Zm178.8,0l196.9,0l0,42.1l-196.9,0l0,-42.1Zm196.9,0l196.9,0l0,42.1l-196.9,0l0,-42.1Zm196.9,0l104.5,0l0,42.1l-104.5,0l0,-42.1Zm104.5,0l70.4,0l0,42.1l-70.4,0l0,-42.1Zm70.4,0l63.8,0l0,42.1l-63.8,0l0,-42.1ZM55,643.7l178.8,0l0,42.1L55,685.8l0,-42.1Zm178.8,0l196.9,0l0,42.1l-196.9,0l0,-42.1Zm196.9,0l196.9,0l0,42.1l-196.9,0l0,-42.1Zm196.9,0l104.5,0l0,42.1l-104.5,0l0,-42.1Zm104.5,0l70.4,0l0,42.1l-70.4,0l0,-42.1Zm70.4,0l63.8,0l0,42.1l-63.8,0l0,-42.1ZM55,728l178.8,0l0,46.9L55,774.9L55,728Zm178.8,0l196.9,0l0,46.9l-196.9,0l0,-46.9Zm196.9,0l196.9,0l0,46.9l-196.9,0l0,-46.9Zm196.9,0l104.5,0l0,46.9l-104.5,0l0,-46.9Zm104.5,0l70.4,0l0,46.9l-70.4,0l0,-46.9Zm70.4,0l63.8,0l0,46.9l-63.8,0l0,-46.9ZM55,817l178.8,0l0,42.2L55,859.2L55,817Zm178.8,0l196.9,0l0,42.2l-196.9,0l0,-42.2Zm196.9,0l196.9,0l0,42.2l-196.9,0l0,-42.2Zm196.9,0l104.5,0l0,42.2l-104.5,0l0,-42.2Zm104.5,0l70.4,0l0,42.2l-70.4,0l0,-42.2Zm70.4,0l63.8,0l0,42.2l-63.8,0l0,-42.2ZM55,901.3l178.8,0l0,42.2L55,943.5l0,-42.2Zm178.8,0l196.9,0l0,42.2l-196.9,0l0,-42.2Zm196.9,0l196.9,0l0,42.2l-196.9,0l0,-42.2Zm196.9,0l104.5,0l0,42.2l-104.5,0l0,-42.2Zm104.5,0l70.4,0l0,42.2l-70.4,0l0,-42.2Zm70.4,0l63.8,0l0,42.2l-63.8,0l0,-42.2ZM55,985.7l178.8,0l0,42.1l-178.8,0l0,-42.1Zm178.8,0l196.9,0l0,42.1l-196.9,0l0,-42.1Zm196.9,0l196.9,0l0,42.1l-196.9,0l0,-42.1Zm196.9,0l104.5,0l0,42.1l-104.5,0l0,-42.1Zm104.5,0l70.4,0l0,42.1l-70.4,0l0,-42.1Zm70.4,0l63.8,0l0,42.1l-63.8,0l0,-42.1ZM55,1070l178.8,0l0,42.7l-178.8,0L55,1070Zm178.8,0l196.9,0l0,42.7l-196.9,0l0,-42.7Zm196.9,0l196.9,0l0,42.7l-196.9,0l0,-42.7Zm196.9,0l104.5,0l0,42.7l-104.5,0l0,-42.7Zm104.5,0l70.4,0l0,42.7l-70.4,0l0,-42.7Zm70.4,0l63.8,0l0,42.7l-63.8,0l0,-42.7Z" class="g1_398" />
<path d="M55,137.7l178.8,0" class="g2_398" />
<path d="M233.8,137.7l196.9,0" class="g2_398" />
<path d="M430.7,137.7l196.9,0" class="g2_398" />
<path d="M627.6,137.7l104.5,0" class="g2_398" />
<path d="M732.1,137.7l70.4,0" class="g2_398" />
<path d="M802.5,137.7l63.8,0" class="g2_398" />
<path d="M55,179.9l178.8,0" class="g2_398" />
<path d="M233.8,179.9l196.9,0" class="g2_398" />
<path d="M430.7,179.9l196.9,0" class="g2_398" />
<path d="M627.6,179.9l104.5,0" class="g2_398" />
<path d="M732.1,179.9l70.4,0" class="g2_398" />
<path d="M802.5,179.9l63.8,0" class="g2_398" />
<path d="M55,222.1l178.8,0" class="g2_398" />
<path d="M233.8,222.1l196.9,0" class="g2_398" />
<path d="M430.7,222.1l196.9,0" class="g2_398" />
<path d="M627.6,222.1l104.5,0" class="g2_398" />
<path d="M732.1,222.1l70.4,0" class="g2_398" />
<path d="M802.5,222.1l63.8,0" class="g2_398" />
<path d="M55,264.2l178.8,0" class="g2_398" />
<path d="M233.8,264.2l196.9,0" class="g2_398" />
<path d="M430.7,264.2l196.9,0" class="g2_398" />
<path d="M627.6,264.2l104.5,0" class="g2_398" />
<path d="M732.1,264.2l70.4,0" class="g2_398" />
<path d="M802.5,264.2l63.8,0" class="g2_398" />
<path d="M55,306.4l178.8,0" class="g2_398" />
<path d="M233.8,306.4l196.9,0" class="g2_398" />
<path d="M430.7,306.4l196.9,0" class="g2_398" />
<path d="M627.6,306.4l104.5,0" class="g2_398" />
<path d="M732.1,306.4l70.4,0" class="g2_398" />
<path d="M802.5,306.4l63.8,0" class="g2_398" />
<path d="M55,348.5l178.8,0" class="g2_398" />
<path d="M233.8,348.5l196.9,0" class="g2_398" />
<path d="M430.7,348.5l196.9,0" class="g2_398" />
<path d="M627.6,348.5l104.5,0" class="g2_398" />
<path d="M732.1,348.5l70.4,0" class="g2_398" />
<path d="M802.5,348.5l63.8,0" class="g2_398" />
<path d="M55,390.7l178.8,0" class="g2_398" />
<path d="M233.8,390.7l196.9,0" class="g2_398" />
<path d="M430.7,390.7l196.9,0" class="g2_398" />
<path d="M627.6,390.7l104.5,0" class="g2_398" />
<path d="M732.1,390.7l70.4,0" class="g2_398" />
<path d="M802.5,390.7l63.8,0" class="g2_398" />
<path d="M55,432.9l178.8,0" class="g2_398" />
<path d="M233.8,432.9l196.9,0" class="g2_398" />
<path d="M430.7,432.9l196.9,0" class="g2_398" />
<path d="M627.6,432.9l104.5,0" class="g2_398" />
<path d="M732.1,432.9l70.4,0" class="g2_398" />
<path d="M802.5,432.9l63.8,0" class="g2_398" />
<path d="M55,475l178.8,0" class="g2_398" />
<path d="M233.8,475l196.9,0" class="g2_398" />
<path d="M430.7,475l196.9,0" class="g2_398" />
<path d="M627.6,475l104.5,0" class="g2_398" />
<path d="M732.1,475l70.4,0" class="g2_398" />
<path d="M802.5,475l63.8,0" class="g2_398" />
<path d="M55,517.2l178.8,0" class="g2_398" />
<path d="M233.8,517.2l196.9,0" class="g2_398" />
<path d="M430.7,517.2l196.9,0" class="g2_398" />
<path d="M627.6,517.2l104.5,0" class="g2_398" />
<path d="M732.1,517.2l70.4,0" class="g2_398" />
<path d="M802.5,517.2l63.8,0" class="g2_398" />
<path d="M55,559.4l178.8,0" class="g2_398" />
<path d="M233.8,559.4l196.9,0" class="g2_398" />
<path d="M430.7,559.4l196.9,0" class="g2_398" />
<path d="M627.6,559.4l104.5,0" class="g2_398" />
<path d="M732.1,559.4l70.4,0" class="g2_398" />
<path d="M802.5,559.4l63.8,0" class="g2_398" />
<path d="M55,601.5l178.8,0" class="g2_398" />
<path d="M233.8,601.5l196.9,0" class="g2_398" />
<path d="M430.7,601.5l196.9,0" class="g2_398" />
<path d="M627.6,601.5l104.5,0" class="g2_398" />
<path d="M732.1,601.5l70.4,0" class="g2_398" />
<path d="M802.5,601.5l63.8,0" class="g2_398" />
<path d="M55,643.7l178.8,0" class="g2_398" />
<path d="M233.8,643.7l196.9,0" class="g2_398" />
<path d="M430.7,643.7l196.9,0" class="g2_398" />
<path d="M627.6,643.7l104.5,0" class="g2_398" />
<path d="M732.1,643.7l70.4,0" class="g2_398" />
<path d="M802.5,643.7l63.8,0" class="g2_398" />
<path d="M55,685.8l178.8,0" class="g2_398" />
<path d="M233.8,685.8l196.9,0" class="g2_398" />
<path d="M430.7,685.8l196.9,0" class="g2_398" />
<path d="M627.6,685.8l104.5,0" class="g2_398" />
<path d="M732.1,685.8l70.4,0" class="g2_398" />
<path d="M802.5,685.8l63.8,0" class="g2_398" />
<path d="M55,728l178.8,0" class="g2_398" />
<path d="M233.8,728l196.9,0" class="g2_398" />
<path d="M430.7,728l196.9,0" class="g2_398" />
<path d="M627.6,728l104.5,0" class="g2_398" />
<path d="M732.1,728l70.4,0" class="g2_398" />
<path d="M802.5,728l63.8,0" class="g2_398" />
<path d="M55,774.9l178.8,0" class="g2_398" />
<path d="M233.8,774.9l196.9,0" class="g2_398" />
<path d="M430.7,774.9l196.9,0" class="g2_398" />
<path d="M627.6,774.9l104.5,0" class="g2_398" />
<path d="M732.1,774.9l70.4,0" class="g2_398" />
<path d="M802.5,774.9l63.8,0" class="g2_398" />
<path d="M55,817l178.8,0" class="g2_398" />
<path d="M233.8,817l196.9,0" class="g2_398" />
<path d="M430.7,817l196.9,0" class="g2_398" />
<path d="M627.6,817l104.5,0" class="g2_398" />
<path d="M732.1,817l70.4,0" class="g2_398" />
<path d="M802.5,817l63.8,0" class="g2_398" />
<path d="M55,859.2l178.8,0" class="g2_398" />
<path d="M233.8,859.2l196.9,0" class="g2_398" />
<path d="M430.7,859.2l196.9,0" class="g2_398" />
<path d="M627.6,859.2l104.5,0" class="g2_398" />
<path d="M732.1,859.2l70.4,0" class="g2_398" />
<path d="M802.5,859.2l63.8,0" class="g2_398" />
<path d="M55,901.3l178.8,0" class="g2_398" />
<path d="M233.8,901.3l196.9,0" class="g2_398" />
<path d="M430.7,901.3l196.9,0" class="g2_398" />
<path d="M627.6,901.3l104.5,0" class="g2_398" />
<path d="M732.1,901.3l70.4,0" class="g2_398" />
<path d="M802.5,901.3l63.8,0" class="g2_398" />
<path d="M55,943.5l178.8,0" class="g2_398" />
<path d="M233.8,943.5l196.9,0" class="g2_398" />
<path d="M430.7,943.5l196.9,0" class="g2_398" />
<path d="M627.6,943.5l104.5,0" class="g2_398" />
<path d="M732.1,943.5l70.4,0" class="g2_398" />
<path d="M802.5,943.5l63.8,0" class="g2_398" />
<path d="M55,985.7l178.8,0" class="g2_398" />
<path d="M233.8,985.7l196.9,0" class="g2_398" />
<path d="M430.7,985.7l196.9,0" class="g2_398" />
<path d="M627.6,985.7l104.5,0" class="g2_398" />
<path d="M732.1,985.7l70.4,0" class="g2_398" />
<path d="M802.5,985.7l63.8,0" class="g2_398" />
<path d="M55,1027.8l178.8,0" class="g2_398" />
<path d="M233.8,1027.8l196.9,0" class="g2_398" />
<path d="M430.7,1027.8l196.9,0" class="g2_398" />
<path d="M627.6,1027.8l104.5,0" class="g2_398" />
<path d="M732.1,1027.8l70.4,0" class="g2_398" />
<path d="M802.5,1027.8l63.8,0" class="g2_398" />
<path d="M55,1070l178.8,0" class="g2_398" />
<path d="M233.8,1070l196.9,0" class="g2_398" />
<path d="M430.7,1070l196.9,0" class="g2_398" />
<path d="M627.6,1070l104.5,0" class="g2_398" />
<path d="M732.1,1070l70.4,0" class="g2_398" />
<path d="M802.5,1070l63.8,0" class="g2_398" />
<path d="M55,95l178.8,0" class="g3_398" />
<path d="M233.8,95l196.9,0" class="g3_398" />
<path d="M430.7,95l196.9,0" class="g3_398" />
<path d="M627.6,95l104.5,0" class="g3_398" />
<path d="M732.1,95l70.4,0" class="g3_398" />
<path d="M802.5,95l63.8,0" class="g3_398" />
<path d="M55,1112.7l178.8,0" class="g4_398" />
<path d="M233.8,1112.7l196.9,0" class="g4_398" />
<path d="M430.7,1112.7l196.9,0" class="g4_398" />
<path d="M627.6,1112.7l104.5,0" class="g4_398" />
<path d="M732.1,1112.7l70.4,0" class="g4_398" />
<path d="M802.5,1112.7l63.8,0" class="g4_398" />
<text 
x="61" 
y="82" 
dx="0,0,0,0,0,0,0" 
class="s1_398"
>English</text>

<text 
x="239" 
y="82" 
dx="0,0,0,0,0,0,0,0,0,0" 
class="s1_398"
>Simplified</text>

<text 
x="436" 
y="82" 
dx="0,-1.2,-0.1,0,0,0,0,0,0,0,0" 
class="s1_398"
>Traditional</text>

<text 
x="633" 
y="82" 
dx="0,0,0,0,0,0" 
class="s1_398"
>Pinyin</text>

<text 
x="738" 
y="75" 
dx="0,0,0,0,0,0,-0.2,0" 
class="s1_398"
>Part of </text>

<text 
x="738" 
y="88" 
dx="0,0,0,0,0,0" 
class="s1_398"
>Speech</text>

<text 
x="808" 
y="81" 
dx="0,0,0,0,0,0" 
class="s1_398"
>Lesson</text>

<text 
x="61" 
y="124" 
dx="0,0,0,-0.4,0,0,0,0,0,0,0,0,0,0,0,0,0,0" 
class="s2_398"
>take a bath/shower</text>

<text 
x="239" 
y="125" 
dx="0,0" 
class="s3_398"
>洗澡</text>

<text 
x="633" 
y="123" 
dx="0,0.2,0.2,0.2,0.2,0.2" 
class="s4_398"
>xǐ zǎo</text>

<text 
x="738" 
y="123" 
dx="0,-0.4" 
class="s5_398"
>vo</text>

<text 
x="808" 
y="123" 
dx="0" 
class="s6_398"
>8</text>

<text 
x="61" 
y="166" 
dx="0,0,0,-0.4,0,0,0,0,0,-0.2,0,0,0,0,0,-0.2,0,0,-0.2,0,0" 
class="s2_398"
>take a break, to rest</text>

<text 
x="239" 
y="167" 
dx="0,0" 
class="s3_398"
>休息</text>

<text 
x="633" 
y="165" 
dx="0,0.2,0.2,0.2,0.2" 
class="s4_398"
>xiūxi</text>

<text 
x="738" 
y="165" 
dx="0" 
class="s5_398"
>v</text>

<text 
x="808" 
y="165" 
dx="0,0" 
class="s6_398"
>15</text>

<text 
x="61" 
y="208" 
dx="0,0,0,-0.4,0,0,0,0,0,0,0" 
class="s2_398"
>take a taxi</text>

<text 
x="239" 
y="209" 
dx="0,0" 
class="s3_398"
>打车</text>

<text 
x="436" 
y="209" 
dx="0,0" 
class="s7_398"
>打車</text>

<text 
x="633" 
y="207" 
dx="0,0.2,0.2,0.2,0.2,0.2" 
class="s4_398"
>dǎ chē</text>

<text 
x="738" 
y="207" 
dx="0,-0.4" 
class="s5_398"
>vo</text>

<text 
x="808" 
y="207" 
dx="0,0" 
class="s6_398"
>10</text>

<text 
x="61" 
y="250" 
dx="0,0,0,0" 
class="s2_398"
>talk</text>

<text 
x="239" 
y="251" 
dx="0,0" 
class="s3_398"
>说话</text>

<text 
x="436" 
y="251" 
dx="0,0" 
class="s7_398"
>說話</text>

<text 
x="633" 
y="249" 
dx="0,0.2,0.2,0.2,0.2,0.2,0.2,0.2" 
class="s4_398"
>shuō huà</text>

<text 
x="738" 
y="250" 
dx="0,-0.4" 
class="s5_398"
>vo</text>

<text 
x="808" 
y="250" 
dx="0" 
class="s6_398"
>7</text>

<text 
x="61" 
y="292" 
dx="0,0,0,0" 
class="s2_398"
>taxi</text>

<text 
x="239" 
y="294" 
dx="0,0,0,0" 
class="s3_398"
>出租汽车</text>

<text 
x="436" 
y="294" 
dx="0,0,0,0" 
class="s7_398"
>出租汽車</text>

<text 
x="633" 
y="291" 
dx="0,0.2,0.2,0.2,0.2,0.2,0.2,0.2,0.2,0.2,0.2" 
class="s4_398"
>chūzū qìchē</text>

<text 
x="738" 
y="292" 
dx="0" 
class="s5_398"
>n</text>

<text 
x="808" 
y="292" 
dx="0,0" 
class="s6_398"
>10</text>

<text 
x="61" 
y="334" 
dx="0,-0.2,0" 
class="s2_398"
>tea</text>

<text 
x="239" 
y="336" 
dx="0" 
class="s3_398"
>茶</text>

<text 
x="436" 
y="336" 
dx="0" 
class="s7_398"
>茶</text>

<text 
x="633" 
y="333" 
dx="0,0.2,0.2" 
class="s4_398"
>chá</text>

<text 
x="738" 
y="334" 
dx="0" 
class="s5_398"
>n</text>

<text 
x="808" 
y="334" 
dx="0" 
class="s6_398"
>5</text>

<text 
x="61" 
y="377" 
dx="0,-0.2,0,0,0" 
class="s2_398"
>teach</text>

<text 
x="239" 
y="378" 
dx="0" 
class="s3_398"
>教</text>

<text 
x="633" 
y="376" 
dx="0,0.2,0.2,0.2" 
class="s4_398"
>jiāo</text>

<text 
x="738" 
y="376" 
dx="0" 
class="s5_398"
>v</text>

<text 
x="808" 
y="376" 
dx="0" 
class="s6_398"
>7</text>

<text 
x="61" 
y="419" 
dx="0,-0.2,0,0,0,0,0" 
class="s2_398"
>teacher</text>

<text 
x="239" 
y="420" 
dx="0,0" 
class="s3_398"
>老师</text>

<text 
x="436" 
y="420" 
dx="0,0" 
class="s7_398"
>老師</text>

<text 
x="633" 
y="418" 
dx="0,0.2,0.2,0.2,0.2,0.2" 
class="s4_398"
>lǎoshī</text>

<text 
x="738" 
y="418" 
dx="0" 
class="s5_398"
>n</text>

<text 
x="808" 
y="418" 
dx="0" 
class="s6_398"
>1</text>

<text 
x="61" 
y="461" 
dx="0,-1.6,0,0,0,0,0,0,0,0,0,0,0" 
class="s2_398"
>Teacher Chang</text>

<text 
x="239" 
y="462" 
dx="0,0,0" 
class="s3_398"
>常老师</text>

<text 
x="436" 
y="462" 
dx="0,0,0" 
class="s7_398"
>常老師</text>

<text 
x="633" 
y="460" 
dx="0,0.2,0.2,0.2,0.2,0.2,0.2,0.2,0.2,0.2,0.2,0.2" 
class="s4_398"
>Cháng lǎoshī</text>

<text 
x="738" 
y="460" 
dx="0,0" 
class="s5_398"
>pn</text>

<text 
x="808" 
y="460" 
dx="0" 
class="s6_398"
>6</text>

<text 
x="61" 
y="503" 
dx="0,-0.2,0,0,0,0,0,0,0,0" 
class="s2_398"
>television</text>

<text 
x="239" 
y="504" 
dx="0,0" 
class="s3_398"
>电视</text>

<text 
x="436" 
y="504" 
dx="0,0" 
class="s7_398"
>電視</text>

<text 
x="633" 
y="502" 
dx="0,0.2,0.2,0.2,0.2,0.2,0.2" 
class="s4_398"
>diànshì</text>

<text 
x="738" 
y="503" 
dx="0" 
class="s5_398"
>n</text>

<text 
x="808" 
y="503" 
dx="0" 
class="s6_398"
>4</text>

<text 
x="61" 
y="545" 
dx="0,-0.2,0,0" 
class="s2_398"
>tell</text>

<text 
x="239" 
y="547" 
dx="0,0" 
class="s3_398"
>告诉</text>

<text 
x="436" 
y="547" 
dx="0,0" 
class="s7_398"
>告訴</text>

<text 
x="633" 
y="544" 
dx="0,0.2,0.2,0.2,0.2" 
class="s4_398"
>gàosu</text>

<text 
x="738" 
y="545" 
dx="0" 
class="s5_398"
>v</text>

<text 
x="808" 
y="545" 
dx="0" 
class="s6_398"
>8</text>

<text 
x="61" 
y="587" 
dx="0,-0.2,0,0,0,0" 
class="s2_398"
>tennis</text>

<text 
x="239" 
y="589" 
dx="0,0" 
class="s3_398"
>网球</text>

<text 
x="436" 
y="589" 
dx="0,0" 
class="s7_398"
>網球</text>

<text 
x="633" 
y="586" 
dx="0,0.2,0.2,0.2,0.2,0.2,0.2" 
class="s4_398"
>wǎngqiú</text>

<text 
x="738" 
y="587" 
dx="0" 
class="s5_398"
>n</text>

<text 
x="808" 
y="587" 
dx="0,0" 
class="s6_398"
>18</text>

<text 
x="61" 
y="629" 
dx="0,-0.2,-0.3,-0.2,0,0,-0.2,0,0,0,0,0,0,0,0,0" 
class="s2_398"
>text of a lesson</text>

<text 
x="239" 
y="631" 
dx="0,0" 
class="s3_398"
>课文</text>

<text 
x="436" 
y="631" 
dx="0,0" 
class="s7_398"
>課文</text>

<text 
x="633" 
y="629" 
dx="0,0.2,0.2,0.2,0.2" 
class="s4_398"
>kèwén</text>

<text 
x="738" 
y="629" 
dx="0" 
class="s5_398"
>n</text>

<text 
x="808" 
y="629" 
dx="0" 
class="s6_398"
>7</text>

<text 
x="61" 
y="672" 
dx="0,0,0,0,0" 
class="s2_398"
>thank</text>

<text 
x="239" 
y="673" 
dx="0,0" 
class="s3_398"
>谢谢</text>

<text 
x="436" 
y="673" 
dx="0,0" 
class="s7_398"
>謝謝</text>

<text 
x="633" 
y="671" 
dx="0,0.2,0.2,0.2,0.2,0.2" 
class="s4_398"
>xièxie</text>

<text 
x="738" 
y="671" 
dx="0" 
class="s5_398"
>v</text>

<text 
x="808" 
y="671" 
dx="0" 
class="s6_398"
>3</text>

<text 
x="61" 
y="714" 
dx="0,0,0,0" 
class="s2_398"
>that</text>

<text 
x="239" 
y="715" 
dx="0" 
class="s3_398"
>那</text>

<text 
x="633" 
y="713" 
dx="0,0.2" 
class="s4_398"
>nà</text>

<text 
x="738" 
y="713" 
dx="0,0" 
class="s5_398"
>pr</text>

<text 
x="808" 
y="713" 
dx="0" 
class="s6_398"
>2</text>

<text 
x="61" 
y="748" 
dx="0,0,0,0,0,0,0,-0.1,0,0,0,0,0,0,0,0,0,0,0,0,0,0.4,-0.9,0" 
class="s2_398"
>that settles it, that’s </text>

<text 
x="61" 
y="768" 
dx="0,0,-0.1,0,0,0,0,0,0,0,0,0.4,-0.9,0,0,0,0,0,0,0,0" 
class="s2_398"
>settled, it’s decided</text>

<text 
x="239" 
y="760" 
dx="0,0,0,0" 
class="s3_398"
>一言为定</text>

<text 
x="436" 
y="760" 
dx="0,0,0,0" 
class="s7_398"
>一言為定</text>

<text 
x="633" 
y="757" 
dx="0,0.2,0.2,0.2,0.2,0.2,0.2,0.2,0.2,0.2,0.2,0.2,0.2,0.2,0.2" 
class="s4_398"
>yì yán wéi dìng</text>

<text 
x="808" 
y="758" 
dx="0,0" 
class="s6_398"
>16</text>

<text 
x="61" 
y="803" 
dx="0,0,0,0" 
class="s2_398"
>then</text>

<text 
x="239" 
y="804" 
dx="0,0" 
class="s3_398"
>然后</text>

<text 
x="436" 
y="804" 
dx="0,0" 
class="s7_398"
>然後</text>

<text 
x="633" 
y="802" 
dx="0,0.2,0.2,0.2,0.2,0.2" 
class="s4_398"
>ránhòu</text>

<text 
x="738" 
y="802" 
dx="0,0,0" 
class="s5_398"
>adv</text>

<text 
x="808" 
y="802" 
dx="0,0" 
class="s6_398"
>10</text>

<text 
x="61" 
y="845" 
dx="0,0,0,0,-0.2" 
class="s2_398"
>there</text>

<text 
x="239" 
y="846" 
dx="0,0" 
class="s3_398"
>那儿</text>

<text 
x="436" 
y="846" 
dx="0,0" 
class="s7_398"
>那兒</text>

<text 
x="633" 
y="844" 
dx="0,0.2,0.2" 
class="s4_398"
>nàr</text>

<text 
x="738" 
y="845" 
dx="0,0" 
class="s5_398"
>pr</text>

<text 
x="808" 
y="845" 
dx="0" 
class="s6_398"
>8</text>

<text 
x="61" 
y="887" 
dx="0,0,0,0,-0.2" 
class="s2_398"
>there</text>

<text 
x="239" 
y="889" 
dx="0,0" 
class="s3_398"
>那里</text>

<text 
x="436" 
y="889" 
dx="0,0" 
class="s7_398"
>那裡</text>

<text 
x="633" 
y="886" 
dx="0,0.2,0.2,0.2" 
class="s4_398"
>nàli</text>

<text 
x="738" 
y="887" 
dx="0,0" 
class="s5_398"
>pr</text>

<text 
x="808" 
y="887" 
dx="0,0" 
class="s6_398"
>17</text>

<text 
x="61" 
y="929" 
dx="0,0,0,0,0,0,0,0,0,0,0,0,-1,0,0,0,0,0" 
class="s2_398"
>thin, skinny, lean</text>

<text 
x="239" 
y="931" 
dx="0" 
class="s3_398"
>瘦</text>

<text 
x="633" 
y="928" 
dx="0,0.2,0.2,0.2" 
class="s4_398"
>shòu</text>

<text 
x="738" 
y="929" 
dx="0,0,0" 
class="s5_398"
>adj</text>

<text 
x="808" 
y="929" 
dx="0,0" 
class="s6_398"
>20</text>

<text 
x="61" 
y="971" 
dx="0,0,0,0,0,0,0,0,0,0,0,0,0,0,0" 
class="s2_398"
>things, objects</text>

<text 
x="239" 
y="973" 
dx="0,0" 
class="s3_398"
>东西</text>

<text 
x="436" 
y="973" 
dx="0,0" 
class="s7_398"
>東西</text>

<text 
x="633" 
y="971" 
dx="0,0.2,0.2,0.2,0.2,0.2" 
class="s4_398"
>dōngxi</text>

<text 
x="738" 
y="971" 
dx="0" 
class="s5_398"
>n</text>

<text 
x="808" 
y="971" 
dx="0" 
class="s6_398"
>9</text>

<text 
x="61" 
y="1014" 
dx="0,0,0,0,0" 
class="s2_398"
>think</text>

<text 
x="239" 
y="1015" 
dx="0" 
class="s3_398"
>想</text>

<text 
x="633" 
y="1013" 
dx="0,0.2,0.2,0.2,0.2" 
class="s4_398"
>xiǎng</text>

<text 
x="738" 
y="1013" 
dx="0" 
class="s5_398"
>v</text>

<text 
x="808" 
y="1013" 
dx="0,0" 
class="s6_398"
>16</text>

<text 
x="61" 
y="1056" 
dx="0,0,0,0,0,0,0" 
class="s2_398"
>thirsty</text>

<text 
x="239" 
y="1057" 
dx="0" 
class="s3_398"
>渴</text>

<text 
x="633" 
y="1055" 
dx="0,0.2" 
class="s4_398"
>kě</text>

<text 
x="738" 
y="1055" 
dx="0,0,0" 
class="s5_398"
>adj</text>

<text 
x="808" 
y="1055" 
dx="0,0" 
class="s6_398"
>12</text>

<text 
x="61" 
y="1098" 
dx="0,0,0,0" 
class="s2_398"
>this</text>

<text 
x="239" 
y="1099" 
dx="0" 
class="s3_398"
>这</text>

<text 
x="436" 
y="1099" 
dx="0" 
class="s7_398"
>這</text>

<text 
x="633" 
y="1097" 
dx="0,0.2,0.2" 
class="s4_398"
>zhè</text>

<text 
x="738" 
y="1098" 
dx="0,0" 
class="s5_398"
>pr</text>

<text 
x="808" 
y="1098" 
dx="0" 
class="s6_398"
>2</text>

<path d="M880.8,1209.2l64.9,0l0,-1222.1l-64.9,0l0,1222.1Z" class="g5_398" />
<text 
transform="matrix(0, 1, -1, 0, 889, 865)"
dx="0,-0.1,0.6,0.6,0.6,0.6,0.6,0.6,0.6,0.6,0.6,0.6,0.6,0.6,0.6,0.4,0.6,0.6,0.6,0.6,0.6,0.6,0.6,0.6,0.6,0.6,0.6,0.6,0.6,0.6,0.6,0.6,0.6,0.6,0.6,0.6,0.6,-0.1,0.6,0.6,0.6,0.6,0.6,0.6,0.6,0.6,0.6,0.6" 
class="s8_398"
>Vocabulary Index (English-Chinese), Volumes 1–2 </text>

<text 
transform="matrix(0, 1, -1, 0, 889, 1152)"
dx="0,0.6,0.6" 
class="s8_398"
>377</text>



<!-- Any embedded fonts defined here -->
<style type="text/css" ><![CDATA[

@font-face {
	font-family: LibreFranklin-SemiBold_4gw;
	src: url("fonts/LibreFranklin-SemiBold_4gw.woff") format("woff");
}

@font-face {
	font-family: LibreFranklin-Regular_4h1;
	src: url("fonts/LibreFranklin-Regular_4h1.woff") format("woff");
}

@font-face {
	font-family: STKaitiTC-Regular_4h8;
	src: url("fonts/STKaitiTC-Regular_4h8.woff") format("woff");
}

@font-face {
	font-family: STKaitiSC-Regular_44y;
	src: url("fonts/STKaitiSC-Regular_44y.woff") format("woff");
}

@font-face {
	font-family: GentiumBookBasic-Italic_3mn;
	src: url("fonts/GentiumBookBasic-Italic_3mn.woff") format("woff");
}

]]></style>

</svg>
