<?xml version="1.0" encoding="UTF-8" standalone="no"?>
<!DOCTYPE svg PUBLIC "-//W3C//DTD SVG 1.1//EN"
"http://www.w3.org/Graphics/SVG/1.1/DTD/svg11.dtd">


<!-- Page 67 -->
<svg x="0" y="0" width="921" height="1196" viewBox="0 0 921 1196" version="1.1" xmlns="http://www.w3.org/2000/svg" xmlns:xlink="http://www.w3.org/1999/xlink"
style="display: block;margin-left: auto;margin-right: auto;">
<defs>
<clipPath id="c0_67"><path d="M149.2,401.3l0,-70.1l63.6,0l0,70.1Z" /></clipPath>
<clipPath id="c1_67"><path d="M157.7,498.4l0,-70.1l32.2,0l0,70.1Z" /></clipPath>
<clipPath id="c2_67"><path d="M290.4,490.9l0,-57.2l70.1,0l0,57.2Z" /></clipPath>
<clipPath id="c3_67"><path d="M462.6,497.2l0,-70.1l46.9,0l0,70.1Z" /></clipPath>
<clipPath id="c4_67"><path d="M608.1,498.4l0,-70.1l64.1,0l0,70.1Z" /></clipPath>

<style type="text/css"><![CDATA[

.g1_67{
fill: none;
stroke: #872B91;
stroke-width: 0.6248611;
stroke-linecap: butt;
stroke-linejoin: miter;
}
.g2_67{
fill: none;
stroke: #872B91;
stroke-width: 1.8730555;
stroke-linecap: butt;
stroke-linejoin: miter;
}
.g3_67{
fill: none;
stroke: #872B91;
stroke-width: 2.2916667;
stroke-linecap: butt;
stroke-linejoin: miter;
}
.g4_67{
fill: #FFFFFF;
}
.g5_67{
fill: none;
stroke: #252161;
stroke-width: 0.15277778;
stroke-linecap: butt;
stroke-linejoin: miter;
}
.g6_67{
fill: #E7E8E9;
}
.g7_67{
fill: #252161;
}
.g8_67{
fill: none;
stroke: #252161;
stroke-width: 0.928889;
stroke-linecap: butt;
stroke-linejoin: miter;
}
.g9_67{
fill: #00AEEF;
}
.g10_67{
fill: none;
stroke: #FFF101;
stroke-width: 0.26583332;
stroke-linecap: round;
stroke-linejoin: round;
}
.g11_67{
fill: none;
stroke: #FFF101;
stroke-width: 0.35444447;
stroke-linecap: round;
stroke-linejoin: round;
}
.g12_67{
fill: none;
stroke: #FFF101;
stroke-width: 0.26583332;
stroke-linecap: round;
stroke-linejoin: round;
stroke-miterlimit: 4;
}
.g13_67{
fill: none;
stroke: #FFF101;
stroke-width: 0.26583332;
stroke-linecap: round;
stroke-linejoin: round;
stroke-miterlimit: 4;
stroke-dasharray: 1,1;
}
.g14_67{
fill: #1275BC;
}
.g15_67{
fill: #FBB040;
}
.g16_67{
fill: #FFF101;
}
.g17_67{
fill: #BF1D2C;
}
.g18_67{
fill: #D6C3AC;
}
.g19_67{
fill: #CBB295;
}
.g20_67{
fill: #F15929;
}
.g21_67{
fill: #F7931D;
}
.g22_67{
fill: #6A5045;
}
.g23_67{
fill: #585F56;
}
.g24_67{
fill: #9FB2CA;
}
.g25_67{
fill: #1A6A95;
}
.g26_67{
fill: none;
stroke: #8CC63E;
stroke-width: 0.25666666;
stroke-linecap: round;
stroke-linejoin: miter;
}
.g27_67{
fill: none;
stroke: #8CC63E;
stroke-width: 0.25666666;
stroke-linecap: round;
stroke-linejoin: miter;
stroke-dasharray: 2,1;
}
.g28_67{
fill: #D6DF21;
}
.g29_67{
fill: #DABEDB;
}
.g30_67{
fill: #767C73;
}
.g31_67{
fill: none;
stroke: #8CC63E;
stroke-width: 0.29944444;
stroke-linecap: round;
stroke-linejoin: miter;
}
.g32_67{
fill: none;
stroke: #8CC63E;
stroke-width: 0.29944444;
stroke-linecap: round;
stroke-linejoin: miter;
stroke-dasharray: 2,1;
}
.g33_67{
fill: #EE1D23;
}
.g34_67{
fill: #C7C8CA;
}
.g35_67{
fill: #FFDB01;
}
.g36_67{
fill: #652D91;
}
.g37_67{
fill: #F89E3E;
}
.g38_67{
fill: #D1D2D4;
}
.g39_67{
fill: #BDBEC1;
}
.g40_67{
fill: none;
stroke: #BDBEC1;
stroke-width: 2.394028;
stroke-linecap: butt;
stroke-linejoin: miter;
}
.g41_67{
fill: #231F20;
}
.g42_67{
fill: none;
stroke: #231F20;
stroke-width: 2.394028;
stroke-linecap: butt;
stroke-linejoin: miter;
}
.g43_67{
fill: none;
stroke: #BDBEC1;
stroke-width: 0.8097222;
stroke-linecap: butt;
stroke-linejoin: miter;
}
.g44_67{
fill: none;
stroke: #872B91;
stroke-width: 1.5277778;
stroke-linecap: butt;
stroke-linejoin: miter;
stroke-miterlimit: 4;
}
.g45_67{
fill: none;
stroke: #872B91;
stroke-width: 0.5102778;
stroke-linecap: butt;
stroke-linejoin: miter;
stroke-miterlimit: 4;
}
.g46_67{
fill: none;
stroke: #872B91;
stroke-width: 0.7638889;
stroke-linecap: butt;
stroke-linejoin: miter;
stroke-miterlimit: 4;
}
.g47_67{
fill: #872B91;
stroke: #B2B3B7;
stroke-width: 1.5277778;
stroke-linecap: butt;
stroke-linejoin: miter;
stroke-miterlimit: 4;
}

.s1_67{
font-size: 32.08px;
font-family: LibreFranklin-ExtraBold_3to;
fill: #872B91;
}
.s2_67{
font-size: 18.33px;
font-family: LibreFranklin-ExtraBold_3to;
fill: #872B91;
}
.s3_67{
font-size: 22.92px;
font-family: LibreFranklin-Bold_3tg;
fill: #872B91;
}
.s4_67{
font-size: 15.28px;
font-family: LibreFranklin-Regular_3u3;
fill: #3F3F40;
}
.s5_67{
font-size: 24.44px;
font-family: STKaiti-SC-Bold_3mi;
fill: #872B91;
}
.s6_67{
font-size: 17.19px;
font-family: GentiumBasic-Italic_3ou;
fill: #3F3F40;
}
.s7_67{
font-size: 32.08px;
font-family: STKaiti-SC-Regular_3nm;
fill: #3F3F40;
}
.s8_67{
font-size: 15.28px;
font-family: LibreFranklin-Bold_3tg;
fill: #872B91;
}
.s9_67{
font-size: 15.28px;
font-family: LibreFranklin-ExtraBold_3to;
fill: #872B91;
}
.s10_67{
font-size: 9.55px;
font-family: LibreFranklin-Medium_3tl;
fill: #872B91;
}
.s11_67{
font-size: 11.08px;
font-family: LibreFranklin-SemiBold_3tt;
fill: #FFFFFF;
}

]]></style>

</defs>
<path d="M0,0
L0,1196
L921,1196
L921,0 Z " 
fill="#FFFFFF" stroke="none" />
<path d="M7.6,97.1l339.9,0" class="g1_67" />
<path d="M7.6,99.6l339.9,0" class="g2_67" />
<path d="M105.3,181.1l13,0" class="g3_67" />
<path d="M105.3,582.1l13,0" class="g3_67" />
<text 
x="48" 
y="85" 
dx="0,0.3,0.3,0.3,0.3,0.3,0.3,-0.5,0.3,0.3,0.3,0,0.3,0.3,0.3,0.3,0.3" 
class="s1_67"
>Language Practice</text>

<text 
x="105" 
y="177" 
dx="0,0" 
class="s2_67"
>A </text>

<text 
x="432" 
y="182" 
dx="0,0,0,0,0,0,0,0,0" 
class="s3_67"
>I’ll pass</text>

<text 
x="143" 
y="244" 
dx="0,-1.6,0,0,0,0,0,0,0,0,0,0,0,0,0,0,0,0,-0.2,0,0,-0.2,0,0,0,0,0,0,0,0,0,0,0,0,0,0,0,0,0,0,0,0,0,0,0,-0.4,0,0,0,0,0,0,-0.2,0,0,0,0,0,0,0,-0.2,0,0,0,0,0,0,0,0,0,0,0,0,0,0,0,0,0,0,0,0,0,0,0,0,0,0,0,0,0,0,0,0,0,0" 
class="s4_67"
>Your friend is hard to please and doesn’t like any of the items he/she sees while out shopping </text>

<text 
x="143" 
y="271" 
dx="0,0,0,0,0,0,0,0,0,0,0,0,0,0,0,0,0,0,0,0,0,0,0,0,0,0,0,0,0,0,0,0,0,0,0,0,0,0,0,0,0,0,0,0,0,0,0,0,0,0,0,0,0,0,0,0" 
class="s4_67"
>with you. In pairs, discuss his/her shopping haul using </text>

<text 
x="521" 
y="273" 
dx="0,0,0,0,0,0,0,0,0,0" 
class="s5_67"
>一…也/都…不/没…</text>

<text 
x="143" 
y="299" 
dx="0,0.3,0.3,0,-0.3,0,-0.3,0,-0.3,0,-0.3,0.3,0.3,0.3,0.3,0.3,0,-0.3,0,-0.3,0,-0.3,0,-0.3,0.3,0.3,0.3,0.3,0.3,0.3" 
class="s6_67"
>(yì . . . yě/dōu . . . bù/méi)</text>

<text 
x="313" 
y="299" 
dx="0,0,0,0,0,0,0" 
class="s4_67"
>, e.g.:</text>

<g clip-path="url(#c0_67)">
<path d="M163,361.3l-3.2,6.1c0,0,0.4,1.1,-0.6,1.4c-1,0.3,1.5,0.4,-0.5,2.1c-0.5,1,0.7,0.3,1,1.5c0.3,1.2,0,1.5,0.2,3.6c0.2,2,2.1,18.5,2.1,18.5c0,0,-2,0.9,-4.2,1.1c-2.2,0.2,-3.2,0.6,-3.2,0.6c0,0,-2.9,-11.9,-3.2,-13c-0.3,-1,-1.5,-7.1,-1.8,-9c-0.2,-1.9,-0.6,-4.8,-0.1,-7.7c0.5,-3,3.6,-12.3,5.8,-17.6c2.3,-5.3,4.8,-9,4.8,-9c0,0,8.4,-3.3,12.2,-4.1c3.8,-0.7,16.7,-0.1,16.7,-0.1c0,0,10.4,2.4,12.2,3.8c1.9,1.5,7.3,13.2,8.9,18.2c1.6,5.1,2.5,7.9,2.6,10c0.1,2.1,-1,11.8,-3.6,22.7c-1.1,4.4,-1.3,5.1,-1.3,5.1c0,0,-6.3,-0.6,-7.8,-1.4c0.2,-0.8,0.8,-5.3,0.8,-5.3c0,0,1.3,-15,1.3,-15.4c0,-0.4,-0.2,-2.2,1.2,-2.7c0.1,-0.6,-1.2,-1.6,-0.6,-2.2c0.6,-0.6,-1,0,-0.6,-1.8c-0.3,-0.8,-3.3,-5.5,-3.3,-5.5c0,0,1,34.2,0.7,35.2c-0.8,0.3,-1.9,0.4,-5.1,1.7c-3.2,1.4,-5.7,2.2,-7,2.5c-1.4,0.3,-6.3,1,-9.7,0.5c-3.3,-0.5,-8,-1.9,-10.8,-3c-2.8,-1.2,-3.9,-1.2,-3.9,-1.2c0,0,-0.3,-34.5,0,-35.6Z" class="g4_67" />
<path d="M163,361.3l-3.2,6.1c0,0,0.4,1.1,-0.6,1.4c-1,0.3,1.5,0.4,-0.5,2.1c-0.5,1,0.7,0.3,1,1.5c0.3,1.2,0,1.5,0.2,3.6c0.2,2,2.1,18.5,2.1,18.5c0,0,-2,0.9,-4.2,1.1c-2.2,0.2,-3.2,0.6,-3.2,0.6c0,0,-2.9,-11.9,-3.2,-13c-0.3,-1,-1.5,-7.1,-1.8,-9c-0.2,-1.9,-0.6,-4.8,-0.1,-7.7c0.5,-3,3.6,-12.3,5.8,-17.6c2.3,-5.3,4.8,-9,4.8,-9c0,0,8.4,-3.3,12.2,-4.1c3.8,-0.7,16.7,-0.1,16.7,-0.1c0,0,10.4,2.4,12.2,3.8c1.9,1.5,7.3,13.2,8.9,18.2c1.6,5.1,2.5,7.9,2.6,10c0.1,2.1,-1,11.8,-3.6,22.7c-1.1,4.4,-1.3,5.1,-1.3,5.1c0,0,-6.3,-0.6,-7.8,-1.4c0.2,-0.8,0.8,-5.3,0.8,-5.3c0,0,1.3,-15,1.3,-15.4c0,-0.4,-0.2,-2.2,1.2,-2.7c0.1,-0.6,-1.2,-1.6,-0.6,-2.2c0.6,-0.6,-1,0,-0.6,-1.8c-0.3,-0.8,-3.3,-5.5,-3.3,-5.5c0,0,1,34.2,0.7,35.2c-0.8,0.3,-1.9,0.4,-5.1,1.7c-3.2,1.4,-5.7,2.2,-7,2.5c-1.4,0.3,-6.3,1,-9.7,0.5c-3.3,-0.5,-8,-1.9,-10.8,-3c-2.8,-1.2,-3.9,-1.2,-3.9,-1.2c0,0,-0.3,-34.5,0,-35.6Z" class="g5_67" />
<path d="M175.1,345.1c0,0,2.8,-3.3,3.7,-4c0.9,-0.6,2,-1.8,2,-1.8c0,0,1.9,1.8,2.7,2.5c0.8,0.7,3.2,3.2,3.2,3.2c0,0,2.4,-8.9,2.3,-9.3c-0.1,-0.5,-2.1,-3.8,-2.8,-4.1c-0.8,-0.3,-9.7,-0.4,-11,0.2c-1.3,0.6,-2.9,4,-2.9,4Z" class="g4_67" />
<path d="M175.1,345.1c0,0,2.8,-3.3,3.7,-4c0.9,-0.6,2,-1.8,2,-1.8c0,0,1.9,1.8,2.7,2.5c0.8,0.7,3.2,3.2,3.2,3.2c0,0,2.4,-8.9,2.3,-9.3c-0.1,-0.5,-2.1,-3.8,-2.8,-4.1c-0.8,-0.3,-9.7,-0.4,-11,0.2c-1.3,0.6,-2.9,4,-2.9,4l2.8,9.3Z" class="g5_67" />
<path d="M186.2,332.5c0,0,0.3,0.7,-1.5,2.6c-1.7,2,-3,3.8,-3.9,4.2c-0.9,0.5,-4.8,-4.4,-5.2,-5.5c-0.5,-1.2,-0.8,-1.5,-0.4,-2c0.4,-0.5,10.9,-0.6,11,-0.2c0,0.3,0,0.9,0,0.9Z" class="g6_67" />
<path d="M186.2,332.5c0,0,0.3,0.7,-1.5,2.6c-1.7,2,-3,3.8,-3.9,4.2c-0.9,0.5,-4.8,-4.4,-5.2,-5.5c-0.5,-1.2,-0.8,-1.5,-0.4,-2c0.4,-0.5,10.9,-0.6,11,-0.2c0,0.3,0,0.9,0,0.9Z" class="g5_67" />
</g>
<path d="M160.1,339.9c0,0,4.1,10.8,2.9,21.4" class="g5_67" />
<path d="M201.2,339.5c0,0,-3.2,12,-2.4,21.7" class="g5_67" />
<path d="M186,351.4l-0.1,9.4l4.9,2l4.9,-2.1l0.2,-9.3Z" class="g4_67" />
<path d="M186,351.4l-0.1,9.4l4.9,2l4.9,-2.1l0.2,-9.3l-9.9,0Z" class="g5_67" />
<path d="M153.3,391.1c0,0,7.4,-1.2,8.1,-1.4" class="g5_67" />
<path d="M200.8,388.8c0,0,4.3,1.3,8.3,1.6" class="g5_67" />
<path d="M178.4,341.4c0,0,1.8,0.9,4.8,0" class="g5_67" />
<path d="M180.4,339.7c0,0,1.3,0.6,1.4,1.4c0.1,0.7,0.6,60.1,0.6,60.1" class="g5_67" />
<path d="M180.5,401.3l-0.8,-59.6" class="g5_67" />
<path d="M181.4,342.9c0,0.3,-0.2,0.5,-0.5,0.5c-0.3,0,-0.5,-0.2,-0.5,-0.5c0,-0.3,0.2,-0.5,0.5,-0.5c0.3,0,0.5,0.2,0.5,0.5Z" class="g7_67" />
<path d="M181.4,342.9c0,0.3,-0.2,0.5,-0.5,0.5c-0.3,0,-0.5,-0.2,-0.5,-0.5c0,-0.3,0.2,-0.5,0.5,-0.5c0.3,0,0.5,0.2,0.5,0.5Z" class="g8_67" />
<path d="M181.4,351c0,0.3,-0.2,0.6,-0.5,0.6c-0.3,0,-0.5,-0.3,-0.5,-0.6c0,-0.3,0.2,-0.5,0.5,-0.5c0.3,0,0.5,0.2,0.5,0.5Z" class="g7_67" />
<path d="M181.4,351c0,0.3,-0.2,0.6,-0.5,0.6c-0.3,0,-0.5,-0.3,-0.5,-0.6c0,-0.3,0.2,-0.5,0.5,-0.5c0.3,0,0.5,0.2,0.5,0.5Z" class="g8_67" />
<path d="M181.6,359.3c0,0.3,-0.2,0.6,-0.5,0.6c-0.3,0,-0.6,-0.3,-0.6,-0.6c0,-0.3,0.3,-0.5,0.6,-0.5c0.3,0,0.5,0.2,0.5,0.5Z" class="g7_67" />
<path d="M181.6,359.3c0,0.3,-0.2,0.6,-0.5,0.6c-0.3,0,-0.6,-0.3,-0.6,-0.6c0,-0.3,0.3,-0.5,0.6,-0.5c0.3,0,0.5,0.2,0.5,0.5Z" class="g8_67" />
<path d="M181.5,367.8c0,0.3,-0.2,0.6,-0.5,0.6c-0.3,0,-0.5,-0.3,-0.5,-0.6c0,-0.2,0.2,-0.5,0.5,-0.5c0.3,0,0.5,0.3,0.5,0.5Z" class="g7_67" />
<path d="M181.5,367.8c0,0.3,-0.2,0.6,-0.5,0.6c-0.3,0,-0.5,-0.3,-0.5,-0.6c0,-0.2,0.2,-0.5,0.5,-0.5c0.3,0,0.5,0.3,0.5,0.5Z" class="g8_67" />
<path d="M181.7,376.6c0,0.3,-0.2,0.5,-0.5,0.5c-0.3,0,-0.5,-0.2,-0.5,-0.5c0,-0.3,0.2,-0.5,0.5,-0.5c0.3,0,0.5,0.2,0.5,0.5Z" class="g7_67" />
<path d="M181.7,376.6c0,0.3,-0.2,0.5,-0.5,0.5c-0.3,0,-0.5,-0.2,-0.5,-0.5c0,-0.3,0.2,-0.5,0.5,-0.5c0.3,0,0.5,0.2,0.5,0.5Z" class="g8_67" />
<path d="M181.7,385.3c0,0.3,-0.3,0.6,-0.6,0.6c-0.3,0,-0.5,-0.3,-0.5,-0.6c0,-0.2,0.2,-0.5,0.5,-0.5c0.3,0,0.6,0.3,0.6,0.5Z" class="g7_67" />
<path d="M181.7,385.3c0,0.3,-0.3,0.6,-0.6,0.6c-0.3,0,-0.5,-0.3,-0.5,-0.6c0,-0.2,0.2,-0.5,0.5,-0.5c0.3,0,0.6,0.3,0.6,0.5Z" class="g8_67" />
<text 
x="250" 
y="358" 
dx="0,0,0,0,0,0,0,0,0,0,0,0,0,0,0,0,0,0,0" 
class="s7_67"
>那儿的衬衫他/她都不喜欢，一件都没买。</text>

<text 
x="250" 
y="394" 
dx="0,0.3,0.3,0,-0.3,0.3,0,-0.3,0.3,0.3,0.3,0.3,0.3,0.3,0.3,0,-0.3,0.3,0,-0.3,0.3,0.3,0,-0.3,0.3,0,-0.3,0.3,0.3,0.3,0.3,0.3,0.3,0,-0.3,0.3,0,-0.3,0.3,0.3,0.3,0,-0.3,0.3,0.3,0,-0.3,0.3,0.3,0,-0.3,0.3,0.3,0.3" 
class="s6_67"
>Nàr de chènshān tā dōu bù xǐhuan, yí jiàn dōu méi mǎi.</text>

<text 
x="143" 
y="466" 
dx="0,0" 
class="s8_67"
>1 </text>

<g clip-path="url(#c1_67)">
<path d="M161.3,429c0,0,4.1,-0.6,10.4,-0.7C178,428.2,186,429,186,429c0,0,-6,1.3,-11.2,1.3c-4.7,0,-8.2,0.2,-13.5,-1.3Z" class="g7_67" />
<path d="M173.7,445.5c0,0,-0.9,5.1,-1,6.3c-0.2,1.1,-4.2,46.4,-4.2,46.4l-10.8,-0.3c0,0,1.8,-37.4,1.8,-39.2c0,-1.9,1.9,-26.4,1.9,-27.1c0,-0.7,2.6,1.3,12.3,0.8c9.8,-0.5,12.3,-0.9,12.3,-0.9c0,0,2.2,25.7,2.5,30.7c0.2,5.1,1.4,35.6,1.4,35.6l-10.8,0.6c0,0,-1.9,-26,-2.2,-28.6c-0.2,-2.7,-2.5,-22.7,-3.2,-24.3Z" class="g9_67" />
</g>
<path d="M180.5,432.4c0,0,-0.5,3.7,5.8,2.3" class="g10_67" />
<path d="M173.6,430.6l0,12.6" class="g11_67" />
<path d="M175.7,432.5c0,0,0,0.1,0,0.4" class="g12_67" />
<path d="M175.7,433.5c0.1,2.1,0.2,6.8,-0.4,7.8c-0.3,0.6,-0.6,1,-0.9,1.3" class="g13_67" />
<path d="M174.1,442.9c-0.2,0.1,-0.3,0.2,-0.3,0.2" class="g12_67" />
<path d="M167.2,432.4c0,0,0.4,3.7,-5.9,2.3" class="g10_67" />
<path d="M161.4,431.6L161.3,429c0,0,7,1.1,12.3,0.9C179,429.8,186,429,186,429l0,2.5c0,0,-5.9,1,-10.1,0.9c-4.3,-0.1,-7.8,0.7,-14.5,-0.8Z" class="g14_67" />
<path d="M168.5,432.8c-0.3,0,-0.4,-0.2,-0.4,-0.4l0,-2.2c0,-0.3,0.1,-0.4,0.4,-0.4c0.2,0,0.4,0.1,0.4,0.4l0,2.2c0,0.2,-0.2,0.4,-0.4,0.4Z" class="g15_67" />
<path d="M179.2,432.6c-0.2,0,-0.4,-0.2,-0.4,-0.4l0,-2.2c0,-0.2,0.2,-0.4,0.4,-0.4c0.3,0,0.4,0.2,0.4,0.4l0,2.2c0,0.2,-0.1,0.4,-0.4,0.4Z" class="g15_67" />
<path d="M175.7,431.3c0,0.4,-0.3,0.7,-0.7,0.7c-0.4,0,-0.7,-0.3,-0.7,-0.7c0,-0.4,0.3,-0.7,0.7,-0.7c0.4,0,0.7,0.3,0.7,0.7Z" class="g16_67" />
<text 
x="274" 
y="466" 
dx="0,0" 
class="s8_67"
>2 </text>

<path d="M292.3,449.7l7.1,21L345.6,459l-6.7,-22Z" class="g17_67" />
<path d="M293,450l6.9,19.8L345,458.5l-6.4,-20.8Z" class="g18_67" />
<path d="M293,450l6.9,19.8l2.3,-0.6l-6,-18.4L339,438.9l-0.4,-1.2Z" class="g19_67" />
<path d="M293.7,446.3l-1.4,3.4L338.9,437l0.3,-3.3Z" class="g20_67" />
<path d="M339.2,433.7l-0.3,3.3l6.7,22l0.5,-3.3Z" class="g21_67" />
<path d="M319.6,453.7L301.1,457l2.4,3.7l22.4,1.7l33.8,-6.1l-6.2,-4Z" class="g17_67" />
<path d="M354,451.5c0,0,1.3,-0.2,-7.7,-0.5c-3.4,-0.2,-8.3,-2.6,-13.9,-6.1c-0.3,0.6,2.2,4.5,2.2,4.5c0,0,2.8,4,13.3,5.4c5.3,-0.1,6.1,-3.3,6.1,-3.3Z" class="g7_67" />
<path d="M336.6,464.8c0,0,5.7,1.2,8.3,1.6c2.5,0.3,5.2,0.9,5.8,0.1c0.5,-0.7,1.3,-3.1,1.3,-3.1c0,0,-8.6,-1.5,-11,-1.7c-2.5,-0.3,-3.4,-0.2,-3.4,-0.2Z" class="g22_67" />
<path d="M334.4,462l2.2,2.8l1,-3.3Z" class="g23_67" />
<path d="M351.2,461.3c0,0,0.9,1.4,0.8,2.1c0,0.7,-3.1,-0.1,-4.5,-0.3c-1.3,-0.1,-5.8,-1.1,-7.2,-1.2c-1.4,-0.1,-2.3,-0.3,-4.9,0.2c-2.6,0.5,-7.5,0.3,-9.4,-0.1c-2,-0.4,-7.9,-1.7,-11.8,-4c-3.8,-2.3,-7.3,-4.2,-8.8,-7.3c-0.7,-2.4,1.7,-3.2,1.7,-3.2Z" class="g24_67" />
<path d="M354.2,451.4c0,0,0.9,1.2,0.3,5.9c-0.3,2.5,-1.3,4.1,-2.2,5c-0.9,0.9,-1.2,0.6,-2.3,0.4c-1.2,-0.1,-3.6,-0.6,-5.6,-0.9c-2,-0.4,-5.6,-0.8,-7.4,-0.6c-1.7,0.2,-4.1,0.4,-7.1,0.2c-3,-0.3,-4.5,-0.3,-10.8,-2.3c-6.2,-2.1,-12,-7.2,-12.6,-8.5c-0.7,-1.3,-0.7,-2.4,0.1,-3c0.8,-0.6,2.9,-0.9,6.5,0c3.6,1,6.2,1.1,8.2,1c2,-0.1,3.4,-0.2,6.8,-1.8c3.4,-1.5,4.3,-1.9,4.3,-1.9c0,0,-0.5,-0.4,0.6,0.7c1,1,3.5,3.8,8.8,5.9c5.2,2.1,12.4,-0.1,12.4,-0.1Z" class="g25_67" />
<path d="M334.3,447.2c0,0,-0.2,0.1,-0.5,0.2" class="g26_67" />
<path d="M333.1,447.6c-2.6,0.8,-8.7,2.7,-9.4,3.3c-0.8,0.8,-0.5,2.8,3.5,5.3c2.9,1.8,4.8,3.4,5.7,4.4" class="g27_67" />
<path d="M333.2,460.8c0.1,0.2,0.2,0.4,0.3,0.4" class="g26_67" />
<path d="M332.5,447.4c0,0,0.2,-0.3,0.8,0c0.5,0.3,1.3,0.8,1.8,2c0.5,1.3,0.5,2.2,0.2,3.1c-0.2,0.9,-2.4,5.4,-2.8,6.5c-0.3,1,-0.8,2.5,-0.4,3.6c0.3,1,0.2,2.1,1.3,2.6c1,0.4,4.4,1.5,4.5,2c0.1,0.6,-0.3,0.6,-1.2,0.3c-0.8,-0.2,-3.4,-1.2,-4.2,-1.8c-0.7,-0.7,-2.3,-2.9,-1.4,-5.6c0.8,-2.8,3.7,-6.1,3.7,-8.6c0,-1.3,-0.8,-2.9,-1.6,-3.2c-0.7,-0.3,-1.1,-0.2,-0.7,-0.9Z" class="g28_67" />
<path d="M316,448.5c0,0,-2,0.6,-2.3,1.9c-0.2,1.2,4.1,5.5,4,8" class="g27_67" />
<path d="M354.6,454.1c0,0,-7.1,-0.4,-8.6,7.9" class="g27_67" />
<path d="M326.7,450.4c0,0,0.8,0,0.8,-0.3c0.1,-0.4,-0.1,-0.7,-0.6,-1.7c-0.4,-0.7,-1.1,-0.9,-1.4,-0.8c-0.3,0,-1,0.3,-1,0.5c0.7,0.2,1.2,-0.3,2.2,2.3Z" class="g28_67" />
<path d="M329.6,449.2c0,0,0.7,0,0.7,-0.4c0.1,-0.3,-0.1,-1.2,-0.8,-1.9c-0.4,-0.3,-0.8,-0.5,-1.1,-0.5c-0.3,0,-1.5,1,-1,0.8c0.5,-0.2,1.8,-0.5,2.2,2Z" class="g28_67" />
<g clip-path="url(#c2_67)">
<path d="M305.5,457.8l-0.1,0c-0.2,-0.3,-0.8,-0.8,0.1,-1.1c1,-0.4,2.3,-1,3.1,-0.8c0.7,0.3,2.1,0.5,2.8,-0.5c0.7,-1,2,-1.8,2.6,-1.1c0.6,0.7,0.1,2.3,2.5,1.7c1.1,-0.3,1.7,2.7,2.4,1.2c1,-2,1.3,-3.1,1.9,-3.1c0.6,0,0.9,2.8,2.8,2.5c1.1,-0.3,0.2,1.8,2.7,1.3c2.5,-0.6,4,-2.4,4.8,-2.3c0.8,0.1,2.4,2.6,3,2.1c2,-1.5,2.2,-0.1,2.8,-0.2c0.7,0,1.3,-0.3,1.8,-0.7c0.7,-0.6,1.6,-1.7,2.7,-2.3c0.6,-0.3,1.8,0.6,3.3,1.8c1.6,1.2,5.6,0.5,5.6,-0.7c0,-2.9,0.5,-3.5,2.5,-3c1.3,0.4,0.2,-1.4,1.8,-1.9c0.7,-0.2,1,-0.7,1.3,-0.7c0.2,0,-1.1,0.8,-0.5,1.9c0.6,1.1,1.1,1.7,2.5,1.7c1.9,-0.1,3.4,0.3,2,1c-1.4,0.6,-1.6,0.5,-1.7,0.9c-0.2,1,0.2,1.8,-0.3,2.1c-0.4,0.3,-44.1,9.6,-52.4,0.2Z" class="g29_67" />
</g>
<path d="M301.1,457l1.4,21.6l23.3,1.4l0.1,-21Z" class="g20_67" />
<path d="M359.7,456.3L325.9,459l-0.1,21l33,-7Z" class="g21_67" />
<path d="M293,467.1c0,0,-1.3,-0.6,8.9,2c3.8,1,10.1,0,17.5,-2c0.2,0.7,-4,4.2,-4,4.2c0,0,-4.5,3.5,-16.6,1.5c-5.9,-1.9,-5.8,-5.7,-5.8,-5.7Z" class="g7_67" />
<path d="M308,487c0,0,-6.8,-0.5,-9.8,-1c-2.9,-0.5,-6.2,-0.8,-6.5,-1.8c-0.3,-1,-0.4,-3.2,-0.4,-3.2c0,0,10.1,1.4,12.9,1.9c2.8,0.5,3.8,0.9,3.8,0.9Z" class="g22_67" />
<path d="M311.4,485.5L308,487l0,-3.2Z" class="g30_67" />
<path d="M292.9,479c0,0,-1.4,1.2,-1.6,2c-0.2,0.8,3.5,1,5,1.3c1.6,0.2,6.9,0.7,8.5,1c1.7,0.4,2.7,0.5,5.4,1.9c2.8,1.4,8.3,2.9,10.6,3.1c2.3,0.2,9.4,0.8,14.5,-0.5c5.1,-1.3,9.6,-2.3,12.3,-5.2c1.6,-2.4,-0.8,-4.1,-0.8,-4.1Z" class="g24_67" />
<g clip-path="url(#c2_67)">
<path d="M292.9,467c0,0,-1.4,0.9,-2.3,6.4c-0.5,2.9,0,5.1,0.7,6.4c0.7,1.2,1.1,1,2.4,1.2c1.4,0.2,4.3,0.6,6.6,0.8c2.4,0.3,6.5,1.1,8.4,1.9c1.9,0.8,4.5,1.8,7.9,2.6c3.5,0.7,5.2,1.2,12.9,1c7.7,-0.2,15.9,-4,17,-5.1c1.1,-1.2,1.6,-2.5,0.9,-3.4c-0.8,-1,-3,-2.1,-7.4,-2.2c-4.3,-0.2,-7.2,-1,-9.4,-1.7c-2.2,-0.7,-3.8,-1.3,-7.1,-4.3c-3.2,-2.9,-4.1,-3.5,-4.1,-3.5c0,0,0.7,-0.3,-0.8,0.5c-1.6,0.8,-5.3,3,-11.9,3.6c-6.6,0.6,-13.8,-4.2,-13.8,-4.2Z" class="g25_67" />
</g>
<path d="M316.5,469c0,0,0.2,0.1,0.5,0.3" class="g31_67" />
<path d="M317.7,469.8c2.6,1.8,8.9,6,9.4,6.9c0.6,1.1,-0.4,3.3,-5.7,4.7c-3.9,1,-6.6,2.2,-7.8,3" class="g32_67" />
<path d="M313.2,484.6c-0.2,0.1,-0.4,0.2,-0.5,0.3" class="g31_67" />
<g clip-path="url(#c2_67)">
<path d="M318.5,469.8c0,0,-0.1,-0.4,-0.9,-0.3c-0.7,0.1,-1.8,0.5,-2.8,1.7c-1,1.2,-1.2,2.2,-1.2,3.3c0,1.1,0.9,6.9,0.9,8.2c0,1.2,0.1,3.1,-0.7,4.2c-0.7,1,-1,2.2,-2.3,2.4c-1.3,0.2,-5.4,0.3,-5.8,0.8c-0.3,0.6,0.2,0.8,1.2,0.8c1,0,4.3,-0.2,5.3,-0.7c1.1,-0.5,3.6,-2.4,3.6,-5.8c0,-3.4,-2.1,-8,-1.3,-10.8c0.4,-1.5,1.9,-3,2.9,-3.1c0.9,-0.1,1.2,0.2,1.1,-0.7Z" class="g28_67" />
</g>
<path d="M336.6,476.6c0,0,2,1.4,1.8,2.8c-0.1,1.5,-6.4,4.8,-7.1,7.6" class="g32_67" />
<path d="M291.6,469.8c0,0,7.9,1.9,6.9,11.7" class="g32_67" />
<path d="M323.9,475.1c0,0,-0.8,-0.3,-0.8,-0.7c0.1,-0.4,0.4,-0.7,1.3,-1.6c0.6,-0.7,1.5,-0.6,1.8,-0.5c0.3,0.1,1,0.7,1,1c-0.9,0,-1.3,-0.8,-3.3,1.8Z" class="g28_67" />
<path d="M321.2,472.8c0,0,-0.8,-0.3,-0.8,-0.7c0.1,-0.4,0.5,-1.3,1.6,-1.8c0.5,-0.2,1.1,-0.4,1.4,-0.2c0.3,0.1,1.3,1.5,0.8,1.1c-0.4,-0.3,-1.8,-1,-3,1.6Z" class="g28_67" />
<text 
x="446" 
y="466" 
dx="0,0" 
class="s8_67"
>3 </text>

<g clip-path="url(#c3_67)">
<path d="M477.4,427.1c0,0,1.5,2.9,2.4,3.9c1,0.9,1.7,2.6,4.7,2.7c3.5,0.1,6.5,0.3,7.4,-0.3c0.8,-0.7,1.8,-2,2.6,-3c0.8,-1.1,1.8,-3.1,1.8,-3.1c0,0,2.3,0,2.4,0.1c0.1,0,-1,6.3,-1,7.4c0,1.1,-0.5,4.9,-1.2,7c-0.6,2.2,-1.9,4.3,-2,5.4c-0.1,1,-0.2,2.3,0.2,3.2c0.5,1,4.4,7.5,6.2,11.7c1.8,4.2,5.7,13.1,6.3,15.3c0.6,2.2,2.5,12,2.3,12.3c-0.3,0.4,-1.3,1.2,-3.2,1.3c0,0.2,-0.1,2.2,-0.1,2.2c0,0,-2.7,0.5,-3.6,0.8c-0.8,0.4,0.2,0.6,-2,0.9c-2.3,0.2,-4.1,0.3,-5.8,-0.1c-0.7,-0.1,-1.5,0.3,-2,0.8c-0.5,0.4,0.3,1.1,-1.4,1.1c-1.7,0,-4.6,-0.1,-4.7,0.2c-0.1,0.4,-7.3,0.4,-8.2,-0.2c-1,-0.6,-1,-0.6,-2.5,-1.6c-0.7,-0.6,-0.8,-0.3,-2.6,-0.6c-0.9,0,-0.9,-0.2,-1.6,-0.7c-0.7,-0.5,-1.7,-1.1,-2.8,-0.5c-1,0.5,-3.1,-0.6,-3.4,-1.7c-0.4,-1.1,-2.1,0.5,-3,-1.3c-0.2,-0.5,3,-15,5.3,-21.4c2.3,-6.3,5.2,-12.8,9.8,-17.6c1,-2.7,0.2,-4.9,-0.4,-6.7c-0.6,-1.8,-2.2,-4,-1.8,-6.7c0.3,-2.7,0.2,-7.9,-0.3,-10.2c0.3,-0.6,2.2,-0.6,2.2,-0.6Z" class="g33_67" />
</g>
<path d="M464.5,491.2c0,0,1,-9,7.4,-22c-1.4,4.4,-3.6,16.6,-3.8,24.2c-3.1,-0.7,-1.8,-2.5,-3.6,-2.2Z" class="g17_67" />
<path d="M492.3,496.3c0,0,0.4,-17.7,-2,-38c4.2,12.5,6.6,34.6,6.7,36.9c-0.6,0.2,-4.1,-0.4,-4.7,1.1Z" class="g17_67" />
<path d="M506.3,491c-1.9,-10.1,-6.9,-22.9,-6.7,-22.9c0.2,0,6.5,9.8,9,22.3c0.1,0,-1.8,0.6,-2.3,0.6Z" class="g17_67" />
<path d="M501.8,494.7c0,0,0,-4.6,-1.2,-12.7c3.8,7.4,3.5,10.2,3.8,11.5c-1.4,0.1,-2.6,1.2,-2.6,1.2Z" class="g17_67" />
<path d="M473.1,494.5c0,-0.1,0,-11.8,7.9,-31.1c0.2,2.4,-3.9,26.3,-2.5,33.3c0,0,-3.8,-2.2,-5.4,-2.2Z" class="g17_67" />
<text 
x="591" 
y="466" 
dx="0,0" 
class="s8_67"
>4 </text>

<path d="M608.7,496.7l0.9,1c0,0,6.8,-3.9,8,-5.3c-1.1,-0.9,-4.3,-3.9,-4.3,-3.9c0,0,-1.6,1.9,-4.6,8.2Z" class="g6_67" />
<path d="M609.1,497.2l0.5,0.5c0,0,6.8,-3.9,8,-5.3c-1.2,-0.7,-2.8,-1.3,-2.8,-1.3c0,0,-1.1,3.5,-5.7,6.1Z" class="g34_67" />
<path d="M617.6,492.4c0.3,-0.2,10.9,-11.3,21.6,-22.7c10.8,-11.4,25.3,-27.2,25.3,-27.2c0,0,-2,-2,-2.9,-2.4c-1,-0.5,-4.8,0.2,-5.2,0.3c-0.3,0,-42.5,47.3,-43.1,48.1c0.5,2.4,2.3,3.6,4.3,3.9Z" class="g16_67" />
<path d="M617.6,492.4c0.3,-0.2,10.9,-11.3,21.6,-22.7c10.8,-11.4,25.3,-27.2,25.3,-27.2c0,0,-2.1,-3.1,-2.9,-2.4c-1.2,0.9,-46.3,50.3,-46.8,51c0.8,1,2.2,1.2,2.8,1.3Z" class="g35_67" />
<g clip-path="url(#c4_67)">
<path d="M608.1,498.4l1.5,-0.7l-0.9,-1Z" class="g36_67" />
<path d="M667.5,430.7l2,-2.1c0.3,-0.4,1,-0.4,1.3,0l1.1,1c0.4,0.4,0.4,1,0,1.4l-2,2c-0.4,0.4,-1,0.4,-1.4,0.1l-1,-1c-0.4,-0.4,-0.4,-1,0,-1.4Z" class="g36_67" />
</g>
<path d="M666.7,430.2l4,3.6c0.1,0.1,0.2,0.2,0.2,0.4c0,0.4,-0.1,1.3,-1.5,3c-1.7,2,-4.6,5.1,-5.7,6.2c-0.3,0.2,-0.6,0.2,-0.9,0c-0.5,-0.5,-1.4,-1.3,-1.9,-1.7c-0.6,-0.5,-2.3,-0.9,-3.4,-1.1c-0.5,-0.1,-0.7,-0.6,-0.4,-1l7.2,-7.7l1.6,-1.7c0.2,-0.2,0.5,-0.2,0.8,0Z" class="g15_67" />
<path d="M668.9,432.2l1.8,1.6c0.1,0.1,0.2,0.2,0.2,0.4c0,0.4,-0.1,1.3,-1.5,3c-1.7,2,-4.6,5.1,-5.7,6.2c-0.3,0.2,-0.6,0.2,-0.9,0c-0.5,-0.5,-1.9,-1.7,-2.5,-2.2c2.5,-2.2,4.5,-4.3,8.6,-9Z" class="g37_67" />
<path d="M646.2,453.2c0,0,-2.2,1.2,-2.6,0.5c-0.4,-0.7,-0.1,-1.4,0.3,-2.1c0.5,-0.6,17.9,-20.1,18.3,-20.5c0.3,-0.3,0.2,-0.5,1,0.1c1.3,0.8,1.3,1.7,1.3,1.7c0,0,-17.8,19.9,-18.3,20.3Z" class="g36_67" />
<text 
x="748" 
y="466" 
dx="0,0" 
class="s8_67"
>5 </text>

<path d="M793.6,482.6l-2,10.7l22.2,0l-2,-10.7Z" class="g38_67" />
<path d="M766.4,473l0,2.6l0,2.9l0,2.9c0,0.6,0.6,1.2,1.3,1.2l70,0c0.7,0,1.3,-0.6,1.3,-1.2l0,-2.9l0,-2.9l0,-2.6Z" class="g39_67" />
<path d="M766.4,473l0,2.6l0,2.9l0,2.9c0,0.6,0.6,1.2,1.3,1.2l70,0c0.7,0,1.3,-0.6,1.3,-1.2l0,-2.9l0,-2.9l0,-2.6l-72.6,0Z" class="g40_67" />
<path d="M837.8,431.2l-70.1,0c-0.7,0,-1.3,0.6,-1.3,1.2l0,35l0,3.1l0,2.5l72.6,0l0,-2.5l0,-3.1l0,-35c0,-0.6,-0.6,-1.2,-1.2,-1.2Z" class="g41_67" />
<path d="M837.8,431.2l-70.1,0c-0.7,0,-1.3,0.6,-1.3,1.2l0,35l0,3.1l0,2.5l72.6,0l0,-2.5l0,-3.1l0,-35c0,-0.6,-0.6,-1.2,-1.2,-1.2Z" class="g42_67" />
<path d="M766.4,432.4l0,35l0,3.1l0,2.5l72.6,0c0,0,-72.6,-41.2,-72.6,-40.6Z" class="g7_67" />
<path d="M804,477.8c0,0.7,-0.6,1.3,-1.3,1.3c-0.7,0,-1.3,-0.6,-1.3,-1.3c0,-0.7,0.6,-1.3,1.3,-1.3c0.7,0,1.3,0.6,1.3,1.3Z" class="g41_67" />
<path d="M816.5,495.1l-27.6,0l0,-1.8l27.6,0l0,1.8Z" class="g39_67" />
<path d="M816.5,495.1l-27.6,0l0,-1.8l27.6,0Z" class="g43_67" />
<text 
x="105" 
y="578" 
dx="0,0" 
class="s2_67"
>B </text>

<text 
x="374" 
y="583" 
dx="0,0,0,0,0,-0.4,0,0,0,0,0,0,0,0,0,0,0" 
class="s3_67"
>One of those days</text>

<text 
x="143" 
y="645" 
dx="0,-1,-0.5,0,0,0,0,0,0,0,0,0,0,0,0,0,0,0,-0.2,0,0,0,0,-0.3,0,0,0,-0.8,0,0,0,0,-0.8,0,0,0,0,-0.2,0,0,0,-1,0,0,0,0,0,-1.6,0,0,0,0,0,0,0,0,0,0,0,-0.1,0,0,0,0,0,0,0,0,0,0,0,0,0,0,0,0,0,0,-0.2,0,0,0,0,0,0,0,0,-0.2,0,0,0,-1,0" 
class="s4_67"
>Everything went wrong for Wang Peng today. Li You, on the other hand, had a great day today. </text>

<text 
x="143" 
y="672" 
dx="0,0,0,0,0,0,0,0,0,0,0,0,0,0,0,0,0,0,0,0,0,-0.2,0,0,0,0,0,0,0,-0.2,0,0,0,0,0,0,0,0,0,0,0,0,0,0,0,0,0" 
class="s4_67"
>Recap what happened to them to the class using </text>

<text 
x="490" 
y="674" 
dx="0" 
class="s5_67"
>了</text>

<text 
x="518" 
y="672" 
dx="0,0.3,0.3,0.3" 
class="s6_67"
>(le)</text>

<text 
x="540" 
y="672" 
dx="0,0,0,0,0,0,0,0" 
class="s4_67"
>, e.g.: </text>

<text 
x="143" 
y="725" 
dx="0,-0.8,0,0,0,0,-0.8,0,0,0,0,-0.2,0,0,0,0,0,0,0,0,0,-0.2,0,0,0,0,0,0,0" 
class="s4_67"
>Wang Peng rode the wrong bus.</text>

<text 
x="143" 
y="763" 
dx="0,0,0,0,0,0,0,0,0" 
class="s7_67"
>王朋今天坐错车了。</text>

<text 
x="143" 
y="800" 
dx="0,0.3,0.3,0.3,0,-0.3,0.3,0.3,0.3,0,-0.3,0.3,0.3,0.3,0.3,0.3,0.3,0,-0.3,0.3,0.3,0,-0.3,0.3,0.3,0,-0.3,0.3,0.3,0,-0.3,0.3,0.3" 
class="s6_67"
>Wáng Péng jīntiān zuò cuò chē le.</text>

<text 
x="154" 
y="852" 
dx="0,0.2" 
class="s9_67"
>1 </text>

<text 
x="183" 
y="852" 
dx="0,-0.8,0,0,0,0,-0.8,0,0,0,0,0,0,-0.2,0,0,0,0,0,0,0,-0.2,0,0,0,0,0,0,-0.1,0,0,0,0" 
class="s4_67"
>Wang Peng wore the wrong clothes.</text>

<text 
x="154" 
y="885" 
dx="0,0.2" 
class="s9_67"
>2 </text>

<text 
x="183" 
y="885" 
dx="0,-0.8,0,0,0,0,-0.8,0,0,0,0,0,0,0,0,0,0,0,0,0,-0.2,0,0,0,0,0,0,0,0,0,0,0,0" 
class="s4_67"
>Wang Peng did the wrong homework.</text>

<text 
x="154" 
y="917" 
dx="0,0.2" 
class="s9_67"
>3 </text>

<text 
x="183" 
y="917" 
dx="0,0,0,0,-1.6,0,0,0,0,0,0,0,0,0,-0.2,0,0,0,0,0,0,0,0,0,0,0,0,0,-0.2,0,0,0,0,0,0,0,0,0,0,0" 
class="s4_67"
>Li You understood what the teacher said.</text>

<text 
x="154" 
y="949" 
dx="0,0.2" 
class="s9_67"
>4 </text>

<text 
x="183" 
y="949" 
dx="0,0,0,0,-1.6,0,0,0,0,0,0,0,0,0,0,0,0,0,0,0,0,0,0,0,0,0,0,0,0" 
class="s4_67"
>Li You finished her homework.</text>

<text 
x="154" 
y="981" 
dx="0,0.2" 
class="s9_67"
>5 </text>

<text 
x="183" 
y="981" 
dx="0,0,0,0,-1.6,0,0,0,0,0,0,0,0,0,0,0,-0.1,0,0,0,0,0,0,0,0,0,0,0,0,0,0,0,0,0,0,0,0,0,0" 
class="s4_67"
>Li You saw her good friend Bai Ying’ai.</text>

<path d="M132.9,146.9l0,53.5l0,0.8l0.7,0l676.9,0l0.8,0l0,-0.8l0,-53.5l0,-0.7l-0.8,0l-676.9,0l-0.7,0l0,0.7Z" class="g44_67" />
<path d="M134.9,199.1l674.4,0l0,-50.9l-674.4,0l0,50.9Z" class="g45_67" />
<text 
x="708" 
y="178" 
dx="0,0,0,0,0,0,0,-1,-1,0,0,0,0,0" 
class="s10_67"
>PRESENTATIONAL</text>

<path d="M706.1,181.8l90.9,0l0,-14.4l-90.9,0l0,14.4Z" class="g46_67" />
<path d="M132.9,548l0,53.4l0,0.8l0.7,0l676.9,0l0.8,0l0,-0.8l0,-53.4l0,-0.8l-0.8,0l-676.9,0l-0.7,0l0,0.8Z" class="g44_67" />
<path d="M134.9,600.2l674.4,0l0,-51l-674.4,0l0,51Z" class="g45_67" />
<text 
x="708" 
y="579" 
dx="0,0,0,0,0,0,0,-1,-1,0,0,0,0,0" 
class="s10_67"
>PRESENTATIONAL</text>

<path d="M706.1,582.8l90.9,0l0,-14.4l-90.9,0l0,14.4Z" class="g46_67" />
<path d="M-26.6,1209.2l67.1,0l0,-1222.1l-67.1,0l0,1222.1Z" class="g47_67" />
<text 
transform="matrix(0, -1, 1, 0, 31, 1173)"
dx="0,1,1" 
class="s11_67"
>46 </text>

<text 
transform="matrix(0, -1, 1, 0, 31, 1136)"
dx="0,1,1,0.8,1,1,0.9,1,0.8,1,1,1,1,1,1,1,1,1,1,1,1" 
class="s11_67"
>Integrated Chinese 2 </text>

<text 
transform="matrix(0, -1, 1, 0, 31, 996)"
dx="0,1" 
class="s11_67"
>| </text>

<text 
transform="matrix(0, -1, 1, 0, 31, 982)"
dx="0,-0.2,0.7,0.7,1,1,1,1" 
class="s11_67"
>Textbook</text>



<!-- Any embedded fonts defined here -->
<style type="text/css" ><![CDATA[

@font-face {
	font-family: LibreFranklin-Medium_3tl;
	src: url("fonts/LibreFranklin-Medium_3tl.woff") format("woff");
}

@font-face {
	font-family: LibreFranklin-SemiBold_3tt;
	src: url("fonts/LibreFranklin-SemiBold_3tt.woff") format("woff");
}

@font-face {
	font-family: STKaiti-SC-Regular_3nm;
	src: url("fonts/STKaiti-SC-Regular_3nm.woff") format("woff");
}

@font-face {
	font-family: STKaiti-SC-Bold_3mi;
	src: url("fonts/STKaiti-SC-Bold_3mi.woff") format("woff");
}

@font-face {
	font-family: LibreFranklin-Bold_3tg;
	src: url("fonts/LibreFranklin-Bold_3tg.woff") format("woff");
}

@font-face {
	font-family: GentiumBasic-Italic_3ou;
	src: url("fonts/GentiumBasic-Italic_3ou.woff") format("woff");
}

@font-face {
	font-family: LibreFranklin-Regular_3u3;
	src: url("fonts/LibreFranklin-Regular_3u3.woff") format("woff");
}

@font-face {
	font-family: LibreFranklin-ExtraBold_3to;
	src: url("fonts/LibreFranklin-ExtraBold_3to.woff") format("woff");
}

]]></style>

</svg>
