<?xml version="1.0" encoding="UTF-8" standalone="no"?>
<!DOCTYPE svg PUBLIC "-//W3C//DTD SVG 1.1//EN"
"http://www.w3.org/Graphics/SVG/1.1/DTD/svg11.dtd">


<!-- Page 307 -->
<svg x="0" y="0" width="921" height="1196" viewBox="0 0 921 1196" version="1.1" xmlns="http://www.w3.org/2000/svg" xmlns:xlink="http://www.w3.org/1999/xlink"
style="display: block;margin-left: auto;margin-right: auto;">
<defs>

<style type="text/css"><![CDATA[

.g1_307{
fill: none;
stroke: #007598;
stroke-width: 1.5277778;
stroke-linecap: butt;
stroke-linejoin: miter;
stroke-miterlimit: 4;
}
.g2_307{
fill: none;
stroke: #007598;
stroke-width: 0.5102778;
stroke-linecap: butt;
stroke-linejoin: miter;
stroke-miterlimit: 4;
}
.g3_307{
fill: #007598;
stroke: #B2B3B7;
stroke-width: 1.5277778;
stroke-linecap: butt;
stroke-linejoin: miter;
stroke-miterlimit: 4;
}

.s1_307{
font-size: 15.28px;
font-family: LibreFranklin-ExtraBold_4dv;
fill: #3F3F40;
}
.s2_307{
font-size: 32.08px;
font-family: STKaiti-SC-Regular_3nm;
fill: #3F3F40;
}
.s3_307{
font-size: 32.08px;
font-family: STKaiti-SC-Regular_3nm;
fill: #007D9F;
}
.s4_307{
font-size: 17.19px;
font-family: GentiumBasic-Italic_3ou;
fill: #3F3F40;
}
.s5_307{
font-size: 17.19px;
font-family: GentiumBasic-Italic_4es;
fill: #007D9F;
}
.s6_307{
font-size: 15.28px;
font-family: LibreFranklin-Regular_4em;
fill: #3F3F40;
}
.s7_307{
font-size: 24.44px;
font-family: STKaiti-SC-Bold_3mi;
fill: #007598;
}
.s8_307{
font-size: 17.19px;
font-family: GentiumBasic-Italic_4es;
fill: #3F3F40;
}
.s9_307{
font-size: 11.08px;
font-family: LibreFranklin-SemiBold_4eh;
fill: #FFFFFF;
}

]]></style>

</defs>
<path d="M0,0
L0,1196
L921,1196
L921,0 Z " 
fill="#FFFFFF" stroke="none" />
<text 
x="155" 
y="75" 
dx="0,-0.3" 
class="s1_307"
>H </text>

<text 
x="226" 
y="78" 
dx="0,-0.6,-0.6" 
class="s2_307"
>慢慢儿</text>

<text 
x="320" 
y="78" 
dx="0,-0.6,-0.6" 
class="s3_307"
>（地）</text>

<text 
x="414" 
y="78" 
dx="0" 
class="s2_307"
>吃</text>

<text 
x="232" 
y="115" 
dx="0,0.3,0.3,0.3,0.3,0.3,0.3,0.3" 
class="s4_307"
>mànmānr </text>

<text 
x="301" 
y="115" 
dx="0,0.3" 
class="s5_307"
>de</text>

<text 
x="320" 
y="115" 
dx="0,0.3,0.3" 
class="s4_307"
>chī</text>

<text 
x="232" 
y="147" 
dx="0,0,0,0,0,0,0,0,0,0" 
class="s6_307"
>eat slowly</text>

<text 
x="158" 
y="210" 
dx="0,0" 
class="s1_307"
>I </text>

<text 
x="226" 
y="213" 
dx="0,0,0" 
class="s2_307"
>很高兴</text>

<text 
x="322" 
y="213" 
dx="0" 
class="s3_307"
>地</text>

<text 
x="354" 
y="213" 
dx="0" 
class="s2_307"
>说</text>

<text 
x="232" 
y="250" 
dx="0,0.3,0.3,0.3,0.3,0.3,0.3,0.3,0.3,0.3,0.3,0.3" 
class="s4_307"
>hěn gāoxìng </text>

<text 
x="316" 
y="250" 
dx="0,0.3" 
class="s5_307"
>de</text>

<text 
x="335" 
y="250" 
dx="0,0.3,0.3,0.3" 
class="s4_307"
>shuō</text>

<text 
x="232" 
y="282" 
dx="0,-0.2,0,0,0,0,0,0,0,0,0,0,0,0" 
class="s6_307"
>to say happily</text>

<text 
x="528" 
y="75" 
dx="0,0" 
class="s1_307"
>J </text>

<text 
x="597" 
y="78" 
dx="0,0" 
class="s2_307"
>一直</text>

<text 
x="661" 
y="78" 
dx="0,0,0" 
class="s3_307"
>（地）</text>

<text 
x="757" 
y="78" 
dx="0" 
class="s2_307"
>走</text>

<text 
x="603" 
y="115" 
dx="0,0.3,0.3,0.3,0.3,0.3" 
class="s4_307"
>yìzhí </text>

<text 
x="639" 
y="115" 
dx="0,0.3" 
class="s5_307"
>de</text>

<text 
x="658" 
y="115" 
dx="0,0.3,0.3" 
class="s4_307"
>zǒu</text>

<text 
x="603" 
y="147" 
dx="0,-0.2,0,0,0,0,0,0,0,0,0,0,0,0,0,0,0,0,-0.3,0,0,0,0,-0.2" 
class="s6_307"
>to walk straight forward</text>

<text 
x="527" 
y="210" 
dx="0,0" 
class="s1_307"
>K </text>

<text 
x="597" 
y="213" 
dx="0,0,0" 
class="s2_307"
>好好儿</text>

<text 
x="693" 
y="213" 
dx="0,0,0" 
class="s3_307"
>（地）</text>

<text 
x="789" 
y="213" 
dx="0,0" 
class="s2_307"
>玩儿</text>

<text 
x="603" 
y="250" 
dx="0,0.3,0.3,0.3,0.3,0.3,0.3,0.3" 
class="s4_307"
>hǎohāor </text>

<text 
x="662" 
y="250" 
dx="0,0.3" 
class="s5_307"
>de</text>

<text 
x="681" 
y="250" 
dx="0,0.3,0.3,0.3" 
class="s4_307"
>wánr</text>

<text 
x="603" 
y="282" 
dx="0,-0.2,0,0,0,0,-0.5,0,0,0,0,0,0,0,-0.2,0,0,0,0,0,0" 
class="s6_307"
>to have some real fun</text>

<text 
x="143" 
y="325" 
dx="0" 
class="s7_307"
>得</text>

<text 
x="171" 
y="323" 
dx="0,0.3,0.3,0.3" 
class="s8_307"
>(de)</text>

<text 
x="200" 
y="323" 
dx="0,0,0,0,0,0,0,0,0,0,0,-0.2,0,0,0,0,0,-0.5,0,0,0,0,0,0,0,0,0,0,0,0,0,0,0,0,0,-0.5,0,0,-0.2,0,0,0,0,0,0,0,0,0,0,0,0,0,0,0,0,0,0,0,0,0,0,0,0,0,0,0,0,0,-0.5,0,0,0,0,0,0,0,0,0,0,0,0,0,0,0,0,0" 
class="s6_307"
>is used after a verb or an adjective to connect it with a descriptive complement or a </text>

<text 
x="143" 
y="351" 
dx="0,0,0,0,0,0,0,0,0,0,0,0,-0.2,0,0,0,0,0,-0.2,0,0" 
class="s6_307"
>complement of degree.</text>

<text 
x="155" 
y="414" 
dx="0,0" 
class="s1_307"
>L </text>

<text 
x="226" 
y="417" 
dx="0" 
class="s2_307"
>跑</text>

<text 
x="258" 
y="417" 
dx="0" 
class="s3_307"
>得</text>

<text 
x="290" 
y="417" 
dx="0,0" 
class="s2_307"
>很快</text>

<text 
x="232" 
y="454" 
dx="0,0.3,0.3,0.3" 
class="s4_307"
>pǎo </text>

<text 
x="259" 
y="454" 
dx="0,0.3" 
class="s5_307"
>de</text>

<text 
x="278" 
y="454" 
dx="0,0.3,0.3,0.3,0.3,0.3,0.3,0.3" 
class="s4_307"
>hěn kuài</text>

<text 
x="232" 
y="486" 
dx="0,-0.2,0,0,0,0,0,0,0,0,0" 
class="s6_307"
>to run fast</text>

<text 
x="155" 
y="549" 
dx="0,0" 
class="s1_307"
>M </text>

<text 
x="226" 
y="552" 
dx="0,0,0" 
class="s2_307"
>做菜做</text>

<text 
x="322" 
y="552" 
dx="0" 
class="s3_307"
>得</text>

<text 
x="354" 
y="552" 
dx="0,0" 
class="s2_307"
>很好</text>

<text 
x="232" 
y="589" 
dx="0,0.3,0.3,0.3,0.3,0.3,0.3,0.3,0.3,0.3,0.3,0.3" 
class="s4_307"
>zuò cài zuò </text>

<text 
x="308" 
y="589" 
dx="0,0.3" 
class="s5_307"
>de</text>

<text 
x="328" 
y="589" 
dx="0,0.3,0.3,0.3,0.3,0.3,0.3" 
class="s4_307"
>hěn hǎo</text>

<text 
x="232" 
y="621" 
dx="0,-0.2,0,0,0,0,0,0,0,0,0,0" 
class="s6_307"
>to cook well</text>

<text 
x="527" 
y="414" 
dx="0,0" 
class="s1_307"
>N </text>

<text 
x="597" 
y="417" 
dx="0,0" 
class="s2_307"
>高兴</text>

<text 
x="661" 
y="417" 
dx="0" 
class="s3_307"
>得</text>

<text 
x="693" 
y="417" 
dx="0,0,0" 
class="s2_307"
>跳起来</text>

<text 
x="603" 
y="454" 
dx="0,0.3,0.3,0.3,0.3,0.3,0.3,0.3" 
class="s4_307"
>gāoxìng </text>

<text 
x="659" 
y="454" 
dx="0,0.3,0.3" 
class="s5_307"
>de </text>

<text 
x="678" 
y="454" 
dx="0,0.3,0.3,0.3,0.3,0.3,0.3,0.3,0.3,0.3,0.3" 
class="s8_307"
>tiào qi lai</text>

<text 
x="603" 
y="486" 
dx="0,-0.2,0,0,0,0,0,0,0,0,0,0,0,0,0,0,0,0,0" 
class="s6_307"
>to jump up with joy</text>

<text 
x="527" 
y="549" 
dx="0,0" 
class="s1_307"
>O </text>

<text 
x="597" 
y="552" 
dx="0,0" 
class="s2_307"
>危险</text>

<text 
x="661" 
y="552" 
dx="0" 
class="s3_307"
>得</text>

<text 
x="693" 
y="552" 
dx="0,0,0" 
class="s2_307"
>不得了</text>

<text 
x="603" 
y="589" 
dx="0,0.3,0.3,0.3,0.3,0.3,0.3,0.3" 
class="s4_307"
>wēixiǎn </text>

<text 
x="658" 
y="589" 
dx="0,0.3" 
class="s5_307"
>de</text>

<text 
x="677" 
y="589" 
dx="0,0.3,0.3,0.3,0.3,0.3,0.3,0.3" 
class="s4_307"
>bùdéliǎo</text>

<text 
x="603" 
y="621" 
dx="0,0,0,0,0,0,0,0,0,0,0,0,0,0,0,0,0,-0.1,0,-0.2,0,0" 
class="s6_307"
>unbelievably dangerous</text>

<text 
x="143" 
y="662" 
dx="0,0,0,0,0,0,-0.2,0,0,0,0,0,0,-0.3,0,0,0,0,0,0,0,0,0,0,0,0,0,0,0,0,-0.2,0,0,0,0,0" 
class="s6_307"
>Compare the following two sentences:</text>

<text 
x="155" 
y="726" 
dx="0,0" 
class="s1_307"
>P </text>

<text 
x="226" 
y="728" 
dx="0,0,0" 
class="s2_307"
>他高兴</text>

<text 
x="322" 
y="728" 
dx="0" 
class="s3_307"
>地</text>

<text 
x="354" 
y="728" 
dx="0,0,0,0,0,0,0,0" 
class="s2_307"
>唱着歌走回宿舍。</text>

<text 
x="232" 
y="765" 
dx="0,0.3,0.3,0.3,0.3,0.3,0.3,0.3,0.3,0.3,0.3" 
class="s4_307"
>Tā gāoxìng </text>

<text 
x="309" 
y="765" 
dx="0,0.3" 
class="s5_307"
>de</text>

<text 
x="328" 
y="765" 
dx="0,0.3,0.3,0.3,0.3,0.3,0.3,0.3,0.3,0.3,0.3,0.3,0.3,0.3,0.3,0.3,0.3,0.3,0.3,0.3,0.3,0.3,0.3,0.3,0.3,0.3,0.3" 
class="s4_307"
>chàng zhe gē zǒu huí sùshè.</text>

<text 
x="232" 
y="797" 
dx="0,0,0,0,0,0,0,0,0,0,0,0,0,0,0,0,0,0,0,0,0,0,0,0,0,0,0,0,0,0,0,0,0,-0.2,0,0,0,0,0,0,0,0,0,0" 
class="s6_307"
>He sang happily on his way back to the dorm.</text>

<text 
x="155" 
y="861" 
dx="0,0" 
class="s1_307"
>Q </text>

<text 
x="226" 
y="863" 
dx="0,0,0" 
class="s2_307"
>他高兴</text>

<text 
x="322" 
y="863" 
dx="0" 
class="s3_307"
>得</text>

<text 
x="354" 
y="863" 
dx="0,0,0,0,0,0" 
class="s2_307"
>唱起歌来了。</text>

<text 
x="232" 
y="900" 
dx="0,0.3,0.3,0.3,0.3,0.3,0.3,0.3,0.3,0.3,0.3" 
class="s4_307"
>Tā gāoxìng </text>

<text 
x="309" 
y="900" 
dx="0,0.3" 
class="s5_307"
>de</text>

<text 
x="328" 
y="900" 
dx="0,0.3,0.3,0.3,0.3,0.3,0.3,0.3,0.3,0.3,0.3,0.3,0.3,0.3,0.3,0.3,0.3,0.3,0.3" 
class="s4_307"
>chàng qǐ gē lai le.</text>

<text 
x="232" 
y="932" 
dx="0,0,0,0,0,0,0,0,0,0,0,0,0,0,0,0,0,0,0,0,0,0,0,0,0,0,0,0,0,-0.2,0,0,0,-0.2,0,0,0,0,0,0" 
class="s6_307"
>He was so happy that he started to sing.</text>

<path d="M150.6,52.4c-0.1,0,-7.6,0.1,-7.6,7.7l0,19.7c0,0,0.1,7.6,7.6,7.6l22.4,0c0.1,0,7.7,-0.1,7.7,-7.6l0,-19.7c0,-0.1,-0.1,-7.7,-7.7,-7.7l-22.4,0Z" class="g1_307" />
<path d="M150.6,54.5c-0.6,0,-5.6,0.2,-5.6,5.6l0,19.7c0,0.5,0.2,5.6,5.6,5.6l22.4,0c0.6,0,5.6,-0.2,5.6,-5.6l0,-19.7c0,-0.6,-0.2,-5.6,-5.6,-5.6l-22.4,0Z" class="g2_307" />
<path d="M150.6,187.6c-0.1,0,-7.6,0.1,-7.6,7.6l0,19.7c0,0.1,0.1,7.6,7.6,7.6l22.4,0c0.1,0,7.7,0,7.7,-7.6l0,-19.7c0,-0.1,-0.1,-7.6,-7.7,-7.6l-22.4,0Z" class="g1_307" />
<path d="M150.6,189.6c-0.6,0,-5.6,0.2,-5.6,5.6l0,19.7c0,0.6,0.2,5.6,5.6,5.6l22.4,0c0.6,0,5.6,-0.2,5.6,-5.6l0,-19.7c0,-0.6,-0.2,-5.6,-5.6,-5.6l-22.4,0Z" class="g2_307" />
<path d="M521.9,52.4c-0.1,0,-7.7,0.1,-7.7,7.7l0,19.7c0,0,0.1,7.6,7.7,7.6l22.4,0c0,0,7.6,-0.1,7.6,-7.6l0,-19.7c0,-0.1,-0.1,-7.7,-7.6,-7.7l-22.4,0Z" class="g1_307" />
<path d="M521.9,54.5c-0.6,0,-5.6,0.2,-5.6,5.6l0,19.7c0,0.5,0.2,5.6,5.6,5.6l22.4,0c0.5,0,5.6,-0.2,5.6,-5.6l0,-19.7c0,-0.6,-0.2,-5.6,-5.6,-5.6l-22.4,0Z" class="g2_307" />
<path d="M521.9,187.6c-0.1,0,-7.7,0.1,-7.7,7.6l0,19.7c0,0.1,0.1,7.6,7.7,7.6l22.4,0c0,0,7.6,0,7.6,-7.6l0,-19.7c0,-0.1,-0.1,-7.6,-7.6,-7.6l-22.4,0Z" class="g1_307" />
<path d="M521.9,189.6c-0.6,0,-5.6,0.2,-5.6,5.6l0,19.7c0,0.6,0.2,5.6,5.6,5.6l22.4,0c0.5,0,5.6,-0.2,5.6,-5.6l0,-19.7c0,-0.6,-0.2,-5.6,-5.6,-5.6l-22.4,0Z" class="g2_307" />
<path d="M150.6,391.5c-0.1,0,-7.6,0,-7.6,7.6l0,19.7c0,0.1,0.1,7.6,7.6,7.6l22.4,0c0.1,0,7.7,-0.1,7.7,-7.6l0,-19.7c0,-0.1,-0.1,-7.6,-7.7,-7.6l-22.4,0Z" class="g1_307" />
<path d="M150.6,393.5c-0.6,0,-5.6,0.2,-5.6,5.6l0,19.7c0,0.6,0.2,5.6,5.6,5.6l22.4,0c0.6,0,5.6,-0.2,5.6,-5.6l0,-19.7c0,-0.6,-0.2,-5.6,-5.6,-5.6l-22.4,0Z" class="g2_307" />
<path d="M150.6,526.6c-0.1,0,-7.6,0.1,-7.6,7.6l0,19.7c0,0.1,0.1,7.7,7.6,7.7l22.4,0c0.1,0,7.7,-0.1,7.7,-7.7l0,-19.7c0,-0.1,-0.1,-7.6,-7.7,-7.6l-22.4,0Z" class="g1_307" />
<path d="M150.6,528.6c-0.6,0,-5.6,0.2,-5.6,5.6l0,19.7c0,0.6,0.2,5.6,5.6,5.6l22.4,0c0.6,0,5.6,-0.2,5.6,-5.6l0,-19.7c0,-0.5,-0.2,-5.6,-5.6,-5.6l-22.4,0Z" class="g2_307" />
<path d="M521.9,391.5c-0.1,0,-7.7,0,-7.7,7.6l0,19.7c0,0.1,0.1,7.6,7.7,7.6l22.4,0c0,0,7.6,-0.1,7.6,-7.6l0,-19.7c0,-0.1,-0.1,-7.6,-7.6,-7.6l-22.4,0Z" class="g1_307" />
<path d="M521.9,393.5c-0.6,0,-5.6,0.2,-5.6,5.6l0,19.7c0,0.6,0.2,5.6,5.6,5.6l22.4,0c0.5,0,5.6,-0.2,5.6,-5.6l0,-19.7c0,-0.6,-0.2,-5.6,-5.6,-5.6l-22.4,0Z" class="g2_307" />
<path d="M521.9,526.6c-0.1,0,-7.7,0.1,-7.7,7.6l0,19.7c0,0.1,0.1,7.7,7.7,7.7l22.4,0c0,0,7.6,-0.1,7.6,-7.7l0,-19.7c0,-0.1,-0.1,-7.6,-7.6,-7.6l-22.4,0Z" class="g1_307" />
<path d="M521.9,528.6c-0.6,0,-5.6,0.2,-5.6,5.6l0,19.7c0,0.6,0.2,5.6,5.6,5.6l22.4,0c0.5,0,5.6,-0.2,5.6,-5.6l0,-19.7c0,-0.5,-0.2,-5.6,-5.6,-5.6l-22.4,0Z" class="g2_307" />
<path d="M150.6,703c-0.1,0,-7.6,0.1,-7.6,7.6l0,19.7c0,0.1,0.1,7.6,7.6,7.6l22.4,0c0.1,0,7.7,-0.1,7.7,-7.6l0,-19.7c0,-0.1,-0.1,-7.6,-7.7,-7.6l-22.4,0Z" class="g1_307" />
<path d="M150.6,705c-0.6,0,-5.6,0.2,-5.6,5.6l0,19.7c0,0.6,0.2,5.6,5.6,5.6l22.4,0c0.6,0,5.6,-0.2,5.6,-5.6l0,-19.7c0,-0.6,-0.2,-5.6,-5.6,-5.6l-22.4,0Z" class="g2_307" />
<path d="M150.6,838.1c-0.1,0,-7.6,0.1,-7.6,7.6l0,19.7c0,0.1,0.1,7.7,7.6,7.7l22.4,0c0.1,0,7.7,-0.1,7.7,-7.7l0,-19.7c0,0,-0.1,-7.6,-7.7,-7.6l-22.4,0Z" class="g1_307" />
<path d="M150.6,840.1c-0.6,0,-5.6,0.2,-5.6,5.6l0,19.7c0,0.6,0.2,5.6,5.6,5.6l22.4,0c0.6,0,5.6,-0.2,5.6,-5.6l0,-19.7c0,-0.5,-0.2,-5.6,-5.6,-5.6l-22.4,0Z" class="g2_307" />
<path d="M-17.5,1209.2l58,0l0,-1222.1l-58,0l0,1222.1Z" class="g3_307" />
<text 
transform="matrix(0, -1, 1, 0, 31, 1173)"
dx="0,1,1,1" 
class="s9_307"
>286 </text>

<text 
transform="matrix(0, -1, 1, 0, 31, 1128)"
dx="0,1,1,0.8,1,1,0.9,1,0.8,1,1,1,1,1,1,1,1,1,1,1,1" 
class="s9_307"
>Integrated Chinese 2 </text>

<text 
transform="matrix(0, -1, 1, 0, 31, 988)"
dx="0,1" 
class="s9_307"
>| </text>

<text 
transform="matrix(0, -1, 1, 0, 31, 974)"
dx="0,-0.2,0.7,0.7,1,1,1,1" 
class="s9_307"
>Textbook</text>



<!-- Any embedded fonts defined here -->
<style type="text/css" ><![CDATA[

@font-face {
	font-family: STKaiti-SC-Regular_3nm;
	src: url("fonts/STKaiti-SC-Regular_3nm.woff") format("woff");
}

@font-face {
	font-family: STKaiti-SC-Bold_3mi;
	src: url("fonts/STKaiti-SC-Bold_3mi.woff") format("woff");
}

@font-face {
	font-family: LibreFranklin-ExtraBold_4dv;
	src: url("fonts/LibreFranklin-ExtraBold_4dv.woff") format("woff");
}

@font-face {
	font-family: LibreFranklin-Regular_4em;
	src: url("fonts/LibreFranklin-Regular_4em.woff") format("woff");
}

@font-face {
	font-family: GentiumBasic-Italic_3ou;
	src: url("fonts/GentiumBasic-Italic_3ou.woff") format("woff");
}

@font-face {
	font-family: LibreFranklin-SemiBold_4eh;
	src: url("fonts/LibreFranklin-SemiBold_4eh.woff") format("woff");
}

@font-face {
	font-family: GentiumBasic-Italic_4es;
	src: url("fonts/GentiumBasic-Italic_4es.woff") format("woff");
}

]]></style>

</svg>
