<?xml version="1.0" encoding="UTF-8" standalone="no"?>
<!DOCTYPE svg PUBLIC "-//W3C//DTD SVG 1.1//EN"
"http://www.w3.org/Graphics/SVG/1.1/DTD/svg11.dtd">


<!-- Page 368 -->
<svg x="0" y="0" width="921" height="1196" viewBox="0 0 921 1196" version="1.1" xmlns="http://www.w3.org/2000/svg" xmlns:xlink="http://www.w3.org/1999/xlink"
style="display: block;margin-left: auto;margin-right: auto;">
<defs>

<style type="text/css"><![CDATA[

.g1_368{
fill: #F0F1F2;
}
.g2_368{
fill: none;
stroke: #BDBEC1;
stroke-width: 1.5277778;
stroke-linecap: butt;
stroke-linejoin: miter;
}
.g3_368{
fill: none;
stroke: #DADBDD;
stroke-width: 1.5277778;
stroke-linecap: butt;
stroke-linejoin: miter;
}
.g4_368{
fill: none;
stroke: #BDBEC1;
stroke-width: 0.38194445;
stroke-linecap: butt;
stroke-linejoin: miter;
}
.g5_368{
fill: #57585A;
stroke: #B2B3B7;
stroke-width: 1.5277778;
stroke-linecap: butt;
stroke-linejoin: miter;
stroke-miterlimit: 4;
}

.s1_368{
font-size: 14.51px;
font-family: LibreFranklin-SemiBold_4gw;
fill: #57585A;
}
.s2_368{
font-size: 24.44px;
font-family: STKaitiSC-Regular_44y;
fill: #57585A;
}
.s3_368{
font-size: 14.90px;
font-family: GentiumBookBasic-Italic_3mn;
fill: #3F3F40;
}
.s4_368{
font-size: 14.51px;
font-family: LibreFranklin-Regular_4h1;
fill: #3F3F40;
}
.s5_368{
font-size: 13.75px;
font-family: LibreFranklin-Regular_4h1;
fill: #3F3F40;
}
.s6_368{
font-size: 14.51px;
font-family: LibreFranklin-SemiBold_4gw;
fill: #77787B;
}
.s7_368{
font-size: 24.44px;
font-family: STKaitiTC-Regular_4h8;
fill: #57585A;
}
.s8_368{
font-size: 10.69px;
font-family: LibreFranklin-SemiBold_4gw;
fill: #FFFFFF;
}

]]></style>

</defs>
<path d="M0,0
L0,1196
L921,1196
L921,0 Z " 
fill="#FFFFFF" stroke="none" />
<path d="M55,143.8l178.8,0l0,42.2L55,186l0,-42.2Zm178.8,0l178.7,0l0,42.2l-178.7,0l0,-42.2Zm178.7,0l135.2,0l0,42.2l-135.2,0l0,-42.2Zm135.2,0l66.1,0l0,42.2l-66.1,0l0,-42.2Zm66.1,0l189.2,0l0,42.2l-189.2,0l0,-42.2Zm189.2,0l63.3,0l0,42.2L803,186l0,-42.2ZM55,228.2l178.8,0l0,42.1L55,270.3l0,-42.1Zm178.8,0l178.7,0l0,42.1l-178.7,0l0,-42.1Zm178.7,0l135.2,0l0,42.1l-135.2,0l0,-42.1Zm135.2,0l66.1,0l0,42.1l-66.1,0l0,-42.1Zm66.1,0l189.2,0l0,42.1l-189.2,0l0,-42.1Zm189.2,0l63.3,0l0,42.1l-63.3,0l0,-42.1ZM55,312.5l178.8,0l0,42.2L55,354.7l0,-42.2Zm178.8,0l178.7,0l0,42.2l-178.7,0l0,-42.2Zm178.7,0l135.2,0l0,42.2l-135.2,0l0,-42.2Zm135.2,0l66.1,0l0,42.2l-66.1,0l0,-42.2Zm66.1,0l189.2,0l0,42.2l-189.2,0l0,-42.2Zm189.2,0l63.3,0l0,42.2l-63.3,0l0,-42.2ZM55,396.8l178.8,0l0,57.3L55,454.1l0,-57.3Zm178.8,0l178.7,0l0,57.3l-178.7,0l0,-57.3Zm178.7,0l135.2,0l0,57.3l-135.2,0l0,-57.3Zm135.2,0l66.1,0l0,57.3l-66.1,0l0,-57.3Zm66.1,0l189.2,0l0,57.3l-189.2,0l0,-57.3Zm189.2,0l63.3,0l0,57.3l-63.3,0l0,-57.3ZM55,496.3l178.8,0l0,42.2L55,538.5l0,-42.2Zm178.8,0l178.7,0l0,42.2l-178.7,0l0,-42.2Zm178.7,0l135.2,0l0,42.2l-135.2,0l0,-42.2Zm135.2,0l66.1,0l0,42.2l-66.1,0l0,-42.2Zm66.1,0l189.2,0l0,42.2l-189.2,0l0,-42.2Zm189.2,0l63.3,0l0,42.2l-63.3,0l0,-42.2ZM55,580.6l178.8,0l0,42.2L55,622.8l0,-42.2Zm178.8,0l178.7,0l0,42.2l-178.7,0l0,-42.2Zm178.7,0l135.2,0l0,42.2l-135.2,0l0,-42.2Zm135.2,0l66.1,0l0,42.2l-66.1,0l0,-42.2Zm66.1,0l189.2,0l0,42.2l-189.2,0l0,-42.2Zm189.2,0l63.3,0l0,42.2l-63.3,0l0,-42.2ZM55,668.2l178.8,0l0,42.1L55,710.3l0,-42.1Zm178.8,0l178.7,0l0,42.1l-178.7,0l0,-42.1Zm178.7,0l135.2,0l0,42.1l-135.2,0l0,-42.1Zm135.2,0l66.1,0l0,42.1l-66.1,0l0,-42.1Zm66.1,0l189.2,0l0,42.1l-189.2,0l0,-42.1Zm189.2,0l63.3,0l0,42.1l-63.3,0l0,-42.1ZM55,755.7l178.8,0l0,42.1L55,797.8l0,-42.1Zm178.8,0l178.7,0l0,42.1l-178.7,0l0,-42.1Zm178.7,0l135.2,0l0,42.1l-135.2,0l0,-42.1Zm135.2,0l66.1,0l0,42.1l-66.1,0l0,-42.1Zm66.1,0l189.2,0l0,42.1l-189.2,0l0,-42.1Zm189.2,0l63.3,0l0,42.1l-63.3,0l0,-42.1ZM55,840l178.8,0l0,42.2L55,882.2L55,840Zm178.8,0l178.7,0l0,42.2l-178.7,0l0,-42.2Zm178.7,0l135.2,0l0,42.2l-135.2,0l0,-42.2Zm135.2,0l66.1,0l0,42.2l-66.1,0l0,-42.2Zm66.1,0L803,840l0,42.2l-189.2,0l0,-42.2ZM803,840l63.3,0l0,42.2l-63.3,0L803,840ZM55,924.3l178.8,0l0,42.2L55,966.5l0,-42.2Zm178.8,0l178.7,0l0,42.2l-178.7,0l0,-42.2Zm178.7,0l135.2,0l0,42.2l-135.2,0l0,-42.2Zm135.2,0l66.1,0l0,42.2l-66.1,0l0,-42.2Zm66.1,0l189.2,0l0,42.2l-189.2,0l0,-42.2Zm189.2,0l63.3,0l0,42.2l-63.3,0l0,-42.2ZM55,1008.7l178.8,0l0,42.1l-178.8,0l0,-42.1Zm178.8,0l178.7,0l0,42.1l-178.7,0l0,-42.1Zm178.7,0l135.2,0l0,42.1l-135.2,0l0,-42.1Zm135.2,0l66.1,0l0,42.1l-66.1,0l0,-42.1Zm66.1,0l189.2,0l0,42.1l-189.2,0l0,-42.1Zm189.2,0l63.3,0l0,42.1l-63.3,0l0,-42.1Z" class="g1_368" />
<path d="M55,1093.6l178.8,0" class="g2_368" />
<path d="M233.8,1093.6l178.7,0" class="g2_368" />
<path d="M412.5,1093.6l135.2,0" class="g2_368" />
<path d="M547.7,1093.6l66.1,0" class="g2_368" />
<path d="M613.8,1093.6l189.2,0" class="g2_368" />
<path d="M803,1093.6l63.3,0" class="g2_368" />
<path d="M55,101.1l178.8,0" class="g3_368" />
<path d="M233.8,101.1l178.7,0" class="g3_368" />
<path d="M412.5,101.1l135.2,0" class="g3_368" />
<path d="M547.7,101.1l66.1,0" class="g3_368" />
<path d="M613.8,101.1l189.2,0" class="g3_368" />
<path d="M803,101.1l63.3,0" class="g3_368" />
<path d="M55,143.8l178.8,0" class="g4_368" />
<path d="M233.8,143.8l178.7,0" class="g4_368" />
<path d="M412.5,143.8l135.2,0" class="g4_368" />
<path d="M547.7,143.8l66.1,0" class="g4_368" />
<path d="M613.8,143.8l189.2,0" class="g4_368" />
<path d="M803,143.8l63.3,0" class="g4_368" />
<path d="M55,186l178.8,0" class="g4_368" />
<path d="M233.8,186l178.7,0" class="g4_368" />
<path d="M412.5,186l135.2,0" class="g4_368" />
<path d="M547.7,186l66.1,0" class="g4_368" />
<path d="M613.8,186L803,186" class="g4_368" />
<path d="M803,186l63.3,0" class="g4_368" />
<path d="M55,228.2l178.8,0" class="g4_368" />
<path d="M233.8,228.2l178.7,0" class="g4_368" />
<path d="M412.5,228.2l135.2,0" class="g4_368" />
<path d="M547.7,228.2l66.1,0" class="g4_368" />
<path d="M613.8,228.2l189.2,0" class="g4_368" />
<path d="M803,228.2l63.3,0" class="g4_368" />
<path d="M55,270.3l178.8,0" class="g4_368" />
<path d="M233.8,270.3l178.7,0" class="g4_368" />
<path d="M412.5,270.3l135.2,0" class="g4_368" />
<path d="M547.7,270.3l66.1,0" class="g4_368" />
<path d="M613.8,270.3l189.2,0" class="g4_368" />
<path d="M803,270.3l63.3,0" class="g4_368" />
<path d="M55,312.5l178.8,0" class="g4_368" />
<path d="M233.8,312.5l178.7,0" class="g4_368" />
<path d="M412.5,312.5l135.2,0" class="g4_368" />
<path d="M547.7,312.5l66.1,0" class="g4_368" />
<path d="M613.8,312.5l189.2,0" class="g4_368" />
<path d="M803,312.5l63.3,0" class="g4_368" />
<path d="M55,354.7l178.8,0" class="g4_368" />
<path d="M233.8,354.7l178.7,0" class="g4_368" />
<path d="M412.5,354.7l135.2,0" class="g4_368" />
<path d="M547.7,354.7l66.1,0" class="g4_368" />
<path d="M613.8,354.7l189.2,0" class="g4_368" />
<path d="M803,354.7l63.3,0" class="g4_368" />
<path d="M55,396.8l178.8,0" class="g4_368" />
<path d="M233.8,396.8l178.7,0" class="g4_368" />
<path d="M412.5,396.8l135.2,0" class="g4_368" />
<path d="M547.7,396.8l66.1,0" class="g4_368" />
<path d="M613.8,396.8l189.2,0" class="g4_368" />
<path d="M803,396.8l63.3,0" class="g4_368" />
<path d="M55,454.1l178.8,0" class="g4_368" />
<path d="M233.8,454.1l178.7,0" class="g4_368" />
<path d="M412.5,454.1l135.2,0" class="g4_368" />
<path d="M547.7,454.1l66.1,0" class="g4_368" />
<path d="M613.8,454.1l189.2,0" class="g4_368" />
<path d="M803,454.1l63.3,0" class="g4_368" />
<path d="M55,496.3l178.8,0" class="g4_368" />
<path d="M233.8,496.3l178.7,0" class="g4_368" />
<path d="M412.5,496.3l135.2,0" class="g4_368" />
<path d="M547.7,496.3l66.1,0" class="g4_368" />
<path d="M613.8,496.3l189.2,0" class="g4_368" />
<path d="M803,496.3l63.3,0" class="g4_368" />
<path d="M55,538.5l178.8,0" class="g4_368" />
<path d="M233.8,538.5l178.7,0" class="g4_368" />
<path d="M412.5,538.5l135.2,0" class="g4_368" />
<path d="M547.7,538.5l66.1,0" class="g4_368" />
<path d="M613.8,538.5l189.2,0" class="g4_368" />
<path d="M803,538.5l63.3,0" class="g4_368" />
<path d="M55,580.6l178.8,0" class="g4_368" />
<path d="M233.8,580.6l178.7,0" class="g4_368" />
<path d="M412.5,580.6l135.2,0" class="g4_368" />
<path d="M547.7,580.6l66.1,0" class="g4_368" />
<path d="M613.8,580.6l189.2,0" class="g4_368" />
<path d="M803,580.6l63.3,0" class="g4_368" />
<path d="M55,622.8l178.8,0" class="g4_368" />
<path d="M233.8,622.8l178.7,0" class="g4_368" />
<path d="M412.5,622.8l135.2,0" class="g4_368" />
<path d="M547.7,622.8l66.1,0" class="g4_368" />
<path d="M613.8,622.8l189.2,0" class="g4_368" />
<path d="M803,622.8l63.3,0" class="g4_368" />
<path d="M55,668.2l178.8,0" class="g4_368" />
<path d="M233.8,668.2l178.7,0" class="g4_368" />
<path d="M412.5,668.2l135.2,0" class="g4_368" />
<path d="M547.7,668.2l66.1,0" class="g4_368" />
<path d="M613.8,668.2l189.2,0" class="g4_368" />
<path d="M803,668.2l63.3,0" class="g4_368" />
<path d="M55,710.3l178.8,0" class="g4_368" />
<path d="M233.8,710.3l178.7,0" class="g4_368" />
<path d="M412.5,710.3l135.2,0" class="g4_368" />
<path d="M547.7,710.3l66.1,0" class="g4_368" />
<path d="M613.8,710.3l189.2,0" class="g4_368" />
<path d="M803,710.3l63.3,0" class="g4_368" />
<path d="M55,755.7l178.8,0" class="g4_368" />
<path d="M233.8,755.7l178.7,0" class="g4_368" />
<path d="M412.5,755.7l135.2,0" class="g4_368" />
<path d="M547.7,755.7l66.1,0" class="g4_368" />
<path d="M613.8,755.7l189.2,0" class="g4_368" />
<path d="M803,755.7l63.3,0" class="g4_368" />
<path d="M55,797.8l178.8,0" class="g4_368" />
<path d="M233.8,797.8l178.7,0" class="g4_368" />
<path d="M412.5,797.8l135.2,0" class="g4_368" />
<path d="M547.7,797.8l66.1,0" class="g4_368" />
<path d="M613.8,797.8l189.2,0" class="g4_368" />
<path d="M803,797.8l63.3,0" class="g4_368" />
<path d="M55,840l178.8,0" class="g4_368" />
<path d="M233.8,840l178.7,0" class="g4_368" />
<path d="M412.5,840l135.2,0" class="g4_368" />
<path d="M547.7,840l66.1,0" class="g4_368" />
<path d="M613.8,840L803,840" class="g4_368" />
<path d="M803,840l63.3,0" class="g4_368" />
<path d="M55,882.2l178.8,0" class="g4_368" />
<path d="M233.8,882.2l178.7,0" class="g4_368" />
<path d="M412.5,882.2l135.2,0" class="g4_368" />
<path d="M547.7,882.2l66.1,0" class="g4_368" />
<path d="M613.8,882.2l189.2,0" class="g4_368" />
<path d="M803,882.2l63.3,0" class="g4_368" />
<path d="M55,924.3l178.8,0" class="g4_368" />
<path d="M233.8,924.3l178.7,0" class="g4_368" />
<path d="M412.5,924.3l135.2,0" class="g4_368" />
<path d="M547.7,924.3l66.1,0" class="g4_368" />
<path d="M613.8,924.3l189.2,0" class="g4_368" />
<path d="M803,924.3l63.3,0" class="g4_368" />
<path d="M55,966.5l178.8,0" class="g4_368" />
<path d="M233.8,966.5l178.7,0" class="g4_368" />
<path d="M412.5,966.5l135.2,0" class="g4_368" />
<path d="M547.7,966.5l66.1,0" class="g4_368" />
<path d="M613.8,966.5l189.2,0" class="g4_368" />
<path d="M803,966.5l63.3,0" class="g4_368" />
<path d="M55,1008.7l178.8,0" class="g4_368" />
<path d="M233.8,1008.7l178.7,0" class="g4_368" />
<path d="M412.5,1008.7l135.2,0" class="g4_368" />
<path d="M547.7,1008.7l66.1,0" class="g4_368" />
<path d="M613.8,1008.7l189.2,0" class="g4_368" />
<path d="M803,1008.7l63.3,0" class="g4_368" />
<path d="M55,1050.8l178.8,0" class="g4_368" />
<path d="M233.8,1050.8l178.7,0" class="g4_368" />
<path d="M412.5,1050.8l135.2,0" class="g4_368" />
<path d="M547.7,1050.8l66.1,0" class="g4_368" />
<path d="M613.8,1050.8l189.2,0" class="g4_368" />
<path d="M803,1050.8l63.3,0" class="g4_368" />
<text 
x="61" 
y="85" 
dx="0,0,0,0,0,0,0,0,0,0" 
class="s1_368"
>Simplified</text>

<text 
x="239" 
y="85" 
dx="0,-1.2,-0.1,0,0,0,0,0,0,0,0" 
class="s1_368"
>Traditional</text>

<text 
x="418" 
y="85" 
dx="0,0,0,0,0,0" 
class="s1_368"
>Pinyin</text>

<text 
x="553" 
y="75" 
dx="0,0,0,0,0,0,-0.2,0" 
class="s1_368"
>Part of </text>

<text 
x="553" 
y="94" 
dx="0,0,0,0,0,0" 
class="s1_368"
>Speech</text>

<text 
x="619" 
y="85" 
dx="0,0,0,0,0,0,0" 
class="s1_368"
>English</text>

<text 
x="809" 
y="85" 
dx="0,0,0,0,0,0" 
class="s1_368"
>Lesson</text>

<text 
x="61" 
y="131" 
dx="0,0" 
class="s2_368"
>知道</text>

<text 
x="418" 
y="129" 
dx="0,0.2,0.2,0.2,0.2,0.2" 
class="s3_368"
>zhīdao</text>

<text 
x="553" 
y="129" 
dx="0" 
class="s4_368"
>v</text>

<text 
x="619" 
y="129" 
dx="0,-0.2,0,0,0,0,0" 
class="s5_368"
>to know</text>

<text 
x="809" 
y="129" 
dx="0" 
class="s6_368"
>8</text>

<text 
x="61" 
y="173" 
dx="0,0" 
class="s2_368"
>直飞</text>

<text 
x="239" 
y="173" 
dx="0,0" 
class="s7_368"
>直飛</text>

<text 
x="418" 
y="171" 
dx="0,0.2,0.2,0.2,0.2,0.2,0.2" 
class="s3_368"
>zhí fēi</text>

<text 
x="619" 
y="171" 
dx="0,0,0,0,0,0,0,-0.2,0,0,0,0" 
class="s5_368"
>fly directly</text>

<text 
x="809" 
y="171" 
dx="0,0" 
class="s6_368"
>19</text>

<text 
x="61" 
y="215" 
dx="0" 
class="s2_368"
>只</text>

<text 
x="418" 
y="213" 
dx="0,0.2,0.2" 
class="s3_368"
>zhǐ</text>

<text 
x="553" 
y="214" 
dx="0,0,0" 
class="s4_368"
>adv</text>

<text 
x="619" 
y="213" 
dx="0,0,0,0" 
class="s5_368"
>only</text>

<text 
x="809" 
y="214" 
dx="0" 
class="s6_368"
>4</text>

<text 
x="61" 
y="258" 
dx="0" 
class="s2_368"
>纸</text>

<text 
x="239" 
y="258" 
dx="0" 
class="s7_368"
>紙</text>

<text 
x="418" 
y="255" 
dx="0,0.2,0.2" 
class="s3_368"
>zhǐ</text>

<text 
x="553" 
y="256" 
dx="0" 
class="s4_368"
>n</text>

<text 
x="619" 
y="255" 
dx="0,0,0,0,0" 
class="s5_368"
>paper</text>

<text 
x="809" 
y="256" 
dx="0" 
class="s6_368"
>7</text>

<text 
x="61" 
y="300" 
dx="0" 
class="s2_368"
>中</text>

<text 
x="418" 
y="297" 
dx="0,0.2,0.2,0.2,0.2" 
class="s3_368"
>zhōng</text>

<text 
x="553" 
y="298" 
dx="0,0,0" 
class="s4_368"
>adj</text>

<text 
x="619" 
y="298" 
dx="0,0,0,0,0,0,0,0,0,0,0,0,0,0" 
class="s5_368"
>medium, middle</text>

<text 
x="809" 
y="298" 
dx="0" 
class="s6_368"
>9</text>

<text 
x="61" 
y="342" 
dx="0,0" 
class="s2_368"
>中国</text>

<text 
x="239" 
y="342" 
dx="0,0" 
class="s7_368"
>中國</text>

<text 
x="418" 
y="340" 
dx="0,0.2,0.2,0.2,0.2,0.2,0.2,0.2" 
class="s3_368"
>Zhōngguó</text>

<text 
x="553" 
y="340" 
dx="0,0" 
class="s4_368"
>pn</text>

<text 
x="619" 
y="340" 
dx="0,0,0,0,0" 
class="s5_368"
>China</text>

<text 
x="809" 
y="340" 
dx="0" 
class="s6_368"
>1</text>

<text 
x="61" 
y="384" 
dx="0,0,0" 
class="s2_368"
>中国城</text>

<text 
x="239" 
y="384" 
dx="0,0,0" 
class="s7_368"
>中國城</text>

<text 
x="418" 
y="382" 
dx="0,0.2,0.2,0.2,0.2,0.2,0.2,0.2,0.2,0.2,0.2,0.2,0.2" 
class="s3_368"
>Zhōngguóchéng</text>

<text 
x="553" 
y="382" 
dx="0" 
class="s4_368"
>n</text>

<text 
x="619" 
y="382" 
dx="0,0,0,0,0,0,-0.2,0,0" 
class="s5_368"
>Chinatown</text>

<text 
x="809" 
y="382" 
dx="0,0" 
class="s6_368"
>13</text>

<text 
x="61" 
y="420" 
dx="0,0,0,0,0,0" 
class="s2_368"
>中国国际航空</text>

<text 
x="61" 
y="448" 
dx="0,0" 
class="s2_368"
>公司</text>

<text 
x="239" 
y="420" 
dx="0,0,0,0,0,0" 
class="s7_368"
>中國國際航空</text>

<text 
x="239" 
y="448" 
dx="0,0" 
class="s7_368"
>公司</text>

<text 
x="418" 
y="422" 
dx="0,0.2,0.2,0.2,0.2,0.2,0.2,0.2,0.2,0.2,0.2,0.2,0.2,0.2,0" 
class="s3_368"
>Zhōngguó Guójì </text>

<text 
x="418" 
y="441" 
dx="0,0.2,0.2,0.2,0.2,0.2,0.2,0.2,0.2,0.2,0.2,0.2,0.2,0.2,0.2" 
class="s3_368"
>Hángkōng Gōngsī</text>

<text 
x="553" 
y="432" 
dx="0,0" 
class="s4_368"
>pn</text>

<text 
x="619" 
y="432" 
dx="0,0,0,0,0,0,0,0,0" 
class="s5_368"
>Air China</text>

<text 
x="809" 
y="432" 
dx="0,0" 
class="s6_368"
>19</text>

<text 
x="61" 
y="484" 
dx="0,0" 
class="s2_368"
>中间</text>

<text 
x="239" 
y="484" 
dx="0,0" 
class="s7_368"
>中間</text>

<text 
x="418" 
y="481" 
dx="0,0.2,0.2,0.2,0.2,0.2,0.2,0.2,0.2" 
class="s3_368"
>zhōngjiān</text>

<text 
x="553" 
y="482" 
dx="0" 
class="s4_368"
>n</text>

<text 
x="619" 
y="481" 
dx="0,0,0,0,0,0" 
class="s5_368"
>middle</text>

<text 
x="809" 
y="482" 
dx="0,0" 
class="s6_368"
>13</text>

<text 
x="61" 
y="526" 
dx="0,0" 
class="s2_368"
>中文</text>

<text 
x="418" 
y="523" 
dx="0,0.2,0.2,0.2,0.2,0.2,0.2,0.2" 
class="s3_368"
>Zhōngwén</text>

<text 
x="553" 
y="524" 
dx="0" 
class="s4_368"
>n</text>

<text 
x="619" 
y="524" 
dx="0,0,0,0,0,0,0,0,0,0,0,0,0,0,0,0,0,0,0,-0.1" 
class="s5_368"
>the Chinese language</text>

<text 
x="809" 
y="524" 
dx="0" 
class="s6_368"
>6</text>

<text 
x="61" 
y="568" 
dx="0,0" 
class="s2_368"
>中午</text>

<text 
x="418" 
y="566" 
dx="0,0.2,0.2,0.2,0.2,0.2,0.2" 
class="s3_368"
>zhōngwǔ</text>

<text 
x="553" 
y="566" 
dx="0" 
class="s4_368"
>t</text>

<text 
x="619" 
y="566" 
dx="0,0,0,0" 
class="s5_368"
>noon</text>

<text 
x="809" 
y="566" 
dx="0" 
class="s6_368"
>8</text>

<text 
x="61" 
y="610" 
dx="0,0" 
class="s2_368"
>中心</text>

<text 
x="418" 
y="608" 
dx="0,0.2,0.2,0.2,0.2,0.2,0.2,0.2" 
class="s3_368"
>zhōngxīn</text>

<text 
x="553" 
y="608" 
dx="0" 
class="s4_368"
>n</text>

<text 
x="619" 
y="608" 
dx="0,0,0,0,-0.2,0" 
class="s5_368"
>center</text>

<text 
x="809" 
y="608" 
dx="0,0" 
class="s6_368"
>13</text>

<text 
x="61" 
y="654" 
dx="0,0" 
class="s2_368"
>中学</text>

<text 
x="239" 
y="654" 
dx="0,0" 
class="s7_368"
>中學</text>

<text 
x="418" 
y="651" 
dx="0,0.2,0.2,0.2,0.2,0.2,0.2,0.2" 
class="s3_368"
>zhōngxué</text>

<text 
x="553" 
y="652" 
dx="0" 
class="s4_368"
>n</text>

<text 
x="619" 
y="642" 
dx="0,0,0,0,0,0,0,0,0,0,0,0,0,0,0" 
class="s5_368"
>middle school, </text>

<text 
x="619" 
y="662" 
dx="0,0,0,0,0,0,0,0,0,0,0,0,0,0,0,0" 
class="s5_368"
>secondary school</text>

<text 
x="809" 
y="652" 
dx="0,0" 
class="s6_368"
>14</text>

<text 
x="61" 
y="698" 
dx="0,0" 
class="s2_368"
>钟头</text>

<text 
x="239" 
y="698" 
dx="0,0" 
class="s7_368"
>鐘頭</text>

<text 
x="418" 
y="695" 
dx="0,0.2,0.2,0.2,0.2,0.2,0.2,0.2" 
class="s3_368"
>zhōngtóu</text>

<text 
x="553" 
y="696" 
dx="0" 
class="s4_368"
>n</text>

<text 
x="619" 
y="695" 
dx="0,0,0,0" 
class="s5_368"
>hour</text>

<text 
x="809" 
y="696" 
dx="0,0" 
class="s6_368"
>14</text>

<text 
x="61" 
y="741" 
dx="0" 
class="s2_368"
>种</text>

<text 
x="239" 
y="741" 
dx="0" 
class="s7_368"
>種</text>

<text 
x="418" 
y="739" 
dx="0,0.2,0.2,0.2,0.2" 
class="s3_368"
>zhǒng</text>

<text 
x="553" 
y="740" 
dx="0" 
class="s4_368"
>m</text>

<text 
x="619" 
y="729" 
dx="0,0,0,0,0,0,0,-0.2,0,0,0,0,-0.2,0,0,-0.3,0,0,0,0,0,0,0,0,0" 
class="s5_368"
>(measure word for kinds, </text>

<text 
x="619" 
y="749" 
dx="0,0,0,0,0,0,0,0,0,0,0,0,0" 
class="s5_368"
>sorts, types)</text>

<text 
x="809" 
y="740" 
dx="0" 
class="s6_368"
>9</text>

<text 
x="61" 
y="785" 
dx="0" 
class="s2_368"
>重</text>

<text 
x="418" 
y="783" 
dx="0,0.2,0.2,0.2,0.2" 
class="s3_368"
>zhòng</text>

<text 
x="553" 
y="783" 
dx="0,0,0" 
class="s4_368"
>adj</text>

<text 
x="619" 
y="783" 
dx="0,0,0,0,0,-0.9,0,0,0,0,0,0,0,0" 
class="s5_368"
>heavy, serious</text>

<text 
x="809" 
y="783" 
dx="0,0" 
class="s6_368"
>14</text>

<text 
x="61" 
y="827" 
dx="0,0" 
class="s2_368"
>周末</text>

<text 
x="239" 
y="827" 
dx="0,0" 
class="s7_368"
>週末</text>

<text 
x="418" 
y="825" 
dx="0,0.2,0.2,0.2,0.2,0.2" 
class="s3_368"
>zhōumò</text>

<text 
x="553" 
y="825" 
dx="0" 
class="s4_368"
>n</text>

<text 
x="619" 
y="825" 
dx="0,0,0,0,-0.4,0,0" 
class="s5_368"
>weekend</text>

<text 
x="809" 
y="825" 
dx="0" 
class="s6_368"
>4</text>

<text 
x="61" 
y="869" 
dx="0" 
class="s2_368"
>祝</text>

<text 
x="418" 
y="867" 
dx="0,0.2,0.2" 
class="s3_368"
>zhù</text>

<text 
x="553" 
y="868" 
dx="0" 
class="s4_368"
>v</text>

<text 
x="619" 
y="867" 
dx="0,-0.2,0,0,0,0,0,0,0,0,0,0,0,0" 
class="s5_368"
>to wish (well)</text>

<text 
x="809" 
y="868" 
dx="0" 
class="s6_368"
>8</text>

<text 
x="61" 
y="912" 
dx="0" 
class="s2_368"
>住</text>

<text 
x="418" 
y="909" 
dx="0,0.2,0.2" 
class="s3_368"
>zhù</text>

<text 
x="553" 
y="910" 
dx="0" 
class="s4_368"
>v</text>

<text 
x="619" 
y="909" 
dx="0,-0.2,0,0,0,0,-0.4,0,0,0,0,0,0,0,0,0,0,0,0,0,0,0,0,0,0,0,0,0" 
class="s5_368"
>to live (in a certain place)</text>

<text 
x="809" 
y="910" 
dx="0,0" 
class="s6_368"
>14</text>

<text 
x="61" 
y="954" 
dx="0,0" 
class="s2_368"
>专业</text>

<text 
x="239" 
y="954" 
dx="0,0" 
class="s7_368"
>專業</text>

<text 
x="418" 
y="951" 
dx="0,0.2,0.2,0.2,0.2,0.2,0.2" 
class="s3_368"
>zhuānyè</text>

<text 
x="553" 
y="952" 
dx="0" 
class="s4_368"
>n</text>

<text 
x="619" 
y="952" 
dx="0,0,0,0,0,0,0,0,0,0,0,0,0,0,0,0,-0.1,0,0,0,0,0,0,0,0,0,0,0,0" 
class="s5_368"
>major (in college), specialty</text>

<text 
x="809" 
y="952" 
dx="0" 
class="s6_368"
>8</text>

<text 
x="61" 
y="996" 
dx="0,0" 
class="s2_368"
>转机</text>

<text 
x="239" 
y="996" 
dx="0,0" 
class="s7_368"
>轉機</text>

<text 
x="418" 
y="994" 
dx="0,0.2,0.2,0.2,0.2,0.2,0.2,0.2" 
class="s3_368"
>zhuǎn jī</text>

<text 
x="553" 
y="994" 
dx="0,-0.4" 
class="s4_368"
>vo</text>

<text 
x="619" 
y="994" 
dx="0,0,0,0,0,-0.1,0,0,0,0,0,0,0" 
class="s5_368"
>change planes</text>

<text 
x="809" 
y="994" 
dx="0,0" 
class="s6_368"
>19</text>

<text 
x="61" 
y="1038" 
dx="0" 
class="s2_368"
>准</text>

<text 
x="418" 
y="1036" 
dx="0,0.2,0.2,0.2" 
class="s3_368"
>zhǔn</text>

<text 
x="553" 
y="1036" 
dx="0" 
class="s4_368"
>v</text>

<text 
x="619" 
y="1036" 
dx="0,-0.2,0,0,0,0,0,0,-1,0,0,-0.2,0,0,0,0,0,0,0,0,0,0,0" 
class="s5_368"
>to allow, to be allowed</text>

<text 
x="809" 
y="1036" 
dx="0,0" 
class="s6_368"
>17</text>

<text 
x="61" 
y="1080" 
dx="0,0" 
class="s2_368"
>准备</text>

<text 
x="239" 
y="1080" 
dx="0,0" 
class="s7_368"
>準備</text>

<text 
x="418" 
y="1078" 
dx="0,0.2,0.2,0.2,0.2,0.2,0.2" 
class="s3_368"
>zhǔnbèi</text>

<text 
x="553" 
y="1078" 
dx="0" 
class="s4_368"
>v</text>

<text 
x="619" 
y="1078" 
dx="0,-0.2,0,0,0,-0.2,0,0,0,-0.2" 
class="s5_368"
>to prepare</text>

<text 
x="809" 
y="1078" 
dx="0" 
class="s6_368"
>6</text>

<path d="M880.8,1209.2l64.9,0l0,-1222.1l-64.9,0l0,1222.1Z" class="g5_368" />
<text 
transform="matrix(0, 1, -1, 0, 889, 864)"
dx="0,-0.1,0.6,0.6,0.6,0.6,0.6,0.6,0.6,0.6,0.6,0.6,0.6,0.6,0.6,0.4,0.6,0.6,0.6,0.6,0.6,0.6,0.6,0.6,0.6,0.6,0.6,0.6,0.6,0.6,0.6,0.6,0.6,0.6,0.6,0.6,0.6,-0.1,0.6,0.6,0.6,0.6,0.6,0.6,0.6,0.6,0.6,0.6" 
class="s8_368"
>Vocabulary Index (Chinese-English), Volumes 1–2 </text>

<text 
transform="matrix(0, 1, -1, 0, 889, 1151)"
dx="0,0.6,0.6" 
class="s8_368"
>347</text>



<!-- Any embedded fonts defined here -->
<style type="text/css" ><![CDATA[

@font-face {
	font-family: LibreFranklin-SemiBold_4gw;
	src: url("fonts/LibreFranklin-SemiBold_4gw.woff") format("woff");
}

@font-face {
	font-family: LibreFranklin-Regular_4h1;
	src: url("fonts/LibreFranklin-Regular_4h1.woff") format("woff");
}

@font-face {
	font-family: STKaitiTC-Regular_4h8;
	src: url("fonts/STKaitiTC-Regular_4h8.woff") format("woff");
}

@font-face {
	font-family: STKaitiSC-Regular_44y;
	src: url("fonts/STKaitiSC-Regular_44y.woff") format("woff");
}

@font-face {
	font-family: GentiumBookBasic-Italic_3mn;
	src: url("fonts/GentiumBookBasic-Italic_3mn.woff") format("woff");
}

]]></style>

</svg>
