<?xml version="1.0" encoding="UTF-8" standalone="no"?>
<!DOCTYPE svg PUBLIC "-//W3C//DTD SVG 1.1//EN"
"http://www.w3.org/Graphics/SVG/1.1/DTD/svg11.dtd">


<!-- Page 374 -->
<svg x="0" y="0" width="921" height="1196" viewBox="0 0 921 1196" version="1.1" xmlns="http://www.w3.org/2000/svg" xmlns:xlink="http://www.w3.org/1999/xlink"
style="display: block;margin-left: auto;margin-right: auto;">
<defs>

<style type="text/css"><![CDATA[

.g1_374{
fill: #F0F1F2;
}
.g2_374{
fill: none;
stroke: #BDBEC1;
stroke-width: 0.38194445;
stroke-linecap: butt;
stroke-linejoin: miter;
}
.g3_374{
fill: none;
stroke: #DADBDD;
stroke-width: 1.5277778;
stroke-linecap: butt;
stroke-linejoin: miter;
}
.g4_374{
fill: none;
stroke: #BDBEC1;
stroke-width: 1.5277778;
stroke-linecap: butt;
stroke-linejoin: miter;
}
.g5_374{
fill: #57585A;
stroke: #B2B3B7;
stroke-width: 1.5277778;
stroke-linecap: butt;
stroke-linejoin: miter;
stroke-miterlimit: 4;
}

.s1_374{
font-size: 14.51px;
font-family: LibreFranklin-SemiBold_4gw;
fill: #57585A;
}
.s2_374{
font-size: 15.28px;
font-family: LibreFranklin-Regular_4h1;
fill: #3F3F40;
}
.s3_374{
font-size: 24.44px;
font-family: STKaitiSC-Regular_44y;
fill: #57585A;
}
.s4_374{
font-size: 24.44px;
font-family: STKaitiTC-Regular_4h8;
fill: #57585A;
}
.s5_374{
font-size: 14.90px;
font-family: GentiumBookBasic-Italic_3mn;
fill: #3F3F40;
}
.s6_374{
font-size: 14.51px;
font-family: LibreFranklin-Regular_4h1;
fill: #3F3F40;
}
.s7_374{
font-size: 14.51px;
font-family: LibreFranklin-SemiBold_4gw;
fill: #77787B;
}
.s8_374{
font-size: 14.90px;
font-family: GentiumBookBasic-Italic_4gt;
fill: #3F3F40;
}
.s9_374{
font-size: 24.83px;
font-family: ZenKai-Medium_3_v;
fill: #57585A;
}
.s10_374{
font-size: 10.69px;
font-family: LibreFranklin-SemiBold_4gw;
fill: #FFFFFF;
}

]]></style>

</defs>
<path d="M0,0
L0,1196
L921,1196
L921,0 Z " 
fill="#FFFFFF" stroke="none" />
<path d="M55,142.4l178.8,0l0,42.2L55,184.6l0,-42.2Zm178.8,0l196.9,0l0,42.2l-196.9,0l0,-42.2Zm196.9,0l196.9,0l0,42.2l-196.9,0l0,-42.2Zm196.9,0l104.5,0l0,42.2l-104.5,0l0,-42.2Zm104.5,0l70.4,0l0,42.2l-70.4,0l0,-42.2Zm70.4,0l63.8,0l0,42.2l-63.8,0l0,-42.2ZM55,226.7l178.8,0l0,42.2L55,268.9l0,-42.2Zm178.8,0l196.9,0l0,42.2l-196.9,0l0,-42.2Zm196.9,0l196.9,0l0,42.2l-196.9,0l0,-42.2Zm196.9,0l104.5,0l0,42.2l-104.5,0l0,-42.2Zm104.5,0l70.4,0l0,42.2l-70.4,0l0,-42.2Zm70.4,0l63.8,0l0,42.2l-63.8,0l0,-42.2ZM55,311.1l178.8,0l0,46.8L55,357.9l0,-46.8Zm178.8,0l196.9,0l0,46.8l-196.9,0l0,-46.8Zm196.9,0l196.9,0l0,46.8l-196.9,0l0,-46.8Zm196.9,0l104.5,0l0,46.8l-104.5,0l0,-46.8Zm104.5,0l70.4,0l0,46.8l-70.4,0l0,-46.8Zm70.4,0l63.8,0l0,46.8l-63.8,0l0,-46.8ZM55,400.1l178.8,0l0,42.1L55,442.2l0,-42.1Zm178.8,0l196.9,0l0,42.1l-196.9,0l0,-42.1Zm196.9,0l196.9,0l0,42.1l-196.9,0l0,-42.1Zm196.9,0l104.5,0l0,42.1l-104.5,0l0,-42.1Zm104.5,0l70.4,0l0,42.1l-70.4,0l0,-42.1Zm70.4,0l63.8,0l0,42.1l-63.8,0l0,-42.1ZM55,484.4l178.8,0l0,42.2L55,526.6l0,-42.2Zm178.8,0l196.9,0l0,42.2l-196.9,0l0,-42.2Zm196.9,0l196.9,0l0,42.2l-196.9,0l0,-42.2Zm196.9,0l104.5,0l0,42.2l-104.5,0l0,-42.2Zm104.5,0l70.4,0l0,42.2l-70.4,0l0,-42.2Zm70.4,0l63.8,0l0,42.2l-63.8,0l0,-42.2ZM55,568.7l178.8,0l0,42.2L55,610.9l0,-42.2Zm178.8,0l196.9,0l0,42.2l-196.9,0l0,-42.2Zm196.9,0l196.9,0l0,42.2l-196.9,0l0,-42.2Zm196.9,0l104.5,0l0,42.2l-104.5,0l0,-42.2Zm104.5,0l70.4,0l0,42.2l-70.4,0l0,-42.2Zm70.4,0l63.8,0l0,42.2l-63.8,0l0,-42.2ZM55,653l178.8,0l0,42.2L55,695.2L55,653Zm178.8,0l196.9,0l0,42.2l-196.9,0l0,-42.2Zm196.9,0l196.9,0l0,42.2l-196.9,0l0,-42.2Zm196.9,0l104.5,0l0,42.2l-104.5,0l0,-42.2Zm104.5,0l70.4,0l0,42.2l-70.4,0l0,-42.2Zm70.4,0l63.8,0l0,42.2l-63.8,0l0,-42.2ZM55,737.4l178.8,0l0,45.1L55,782.5l0,-45.1Zm178.8,0l196.9,0l0,45.1l-196.9,0l0,-45.1Zm196.9,0l196.9,0l0,45.1l-196.9,0l0,-45.1Zm196.9,0l104.5,0l0,45.1l-104.5,0l0,-45.1Zm104.5,0l70.4,0l0,45.1l-70.4,0l0,-45.1Zm70.4,0l63.8,0l0,45.1l-63.8,0l0,-45.1ZM55,824.6l178.8,0l0,42.2L55,866.8l0,-42.2Zm178.8,0l196.9,0l0,42.2l-196.9,0l0,-42.2Zm196.9,0l196.9,0l0,42.2l-196.9,0l0,-42.2Zm196.9,0l104.5,0l0,42.2l-104.5,0l0,-42.2Zm104.5,0l70.4,0l0,42.2l-70.4,0l0,-42.2Zm70.4,0l63.8,0l0,42.2l-63.8,0l0,-42.2ZM55,909l178.8,0l0,42.1L55,951.1L55,909Zm178.8,0l196.9,0l0,42.1l-196.9,0l0,-42.1Zm196.9,0l196.9,0l0,42.1l-196.9,0l0,-42.1Zm196.9,0l104.5,0l0,42.1l-104.5,0l0,-42.1Zm104.5,0l70.4,0l0,42.1l-70.4,0l0,-42.1Zm70.4,0l63.8,0l0,42.1l-63.8,0l0,-42.1ZM55,993.3l178.8,0l0,42.1l-178.8,0l0,-42.1Zm178.8,0l196.9,0l0,42.1l-196.9,0l0,-42.1Zm196.9,0l196.9,0l0,42.1l-196.9,0l0,-42.1Zm196.9,0l104.5,0l0,42.1l-104.5,0l0,-42.1Zm104.5,0l70.4,0l0,42.1l-70.4,0l0,-42.1Zm70.4,0l63.8,0l0,42.1l-63.8,0l0,-42.1ZM55,1077.6l178.8,0l0,42.7l-178.8,0l0,-42.7Zm178.8,0l196.9,0l0,42.7l-196.9,0l0,-42.7Zm196.9,0l196.9,0l0,42.7l-196.9,0l0,-42.7Zm196.9,0l104.5,0l0,42.7l-104.5,0l0,-42.7Zm104.5,0l70.4,0l0,42.7l-70.4,0l0,-42.7Zm70.4,0l63.8,0l0,42.7l-63.8,0l0,-42.7Z" class="g1_374" />
<path d="M55,142.4l178.8,0" class="g2_374" />
<path d="M233.8,142.4l196.9,0" class="g2_374" />
<path d="M430.7,142.4l196.9,0" class="g2_374" />
<path d="M627.6,142.4l104.5,0" class="g2_374" />
<path d="M732.1,142.4l70.4,0" class="g2_374" />
<path d="M802.5,142.4l63.8,0" class="g2_374" />
<path d="M55,184.6l178.8,0" class="g2_374" />
<path d="M233.8,184.6l196.9,0" class="g2_374" />
<path d="M430.7,184.6l196.9,0" class="g2_374" />
<path d="M627.6,184.6l104.5,0" class="g2_374" />
<path d="M732.1,184.6l70.4,0" class="g2_374" />
<path d="M802.5,184.6l63.8,0" class="g2_374" />
<path d="M55,226.7l178.8,0" class="g2_374" />
<path d="M233.8,226.7l196.9,0" class="g2_374" />
<path d="M430.7,226.7l196.9,0" class="g2_374" />
<path d="M627.6,226.7l104.5,0" class="g2_374" />
<path d="M732.1,226.7l70.4,0" class="g2_374" />
<path d="M802.5,226.7l63.8,0" class="g2_374" />
<path d="M55,268.9l178.8,0" class="g2_374" />
<path d="M233.8,268.9l196.9,0" class="g2_374" />
<path d="M430.7,268.9l196.9,0" class="g2_374" />
<path d="M627.6,268.9l104.5,0" class="g2_374" />
<path d="M732.1,268.9l70.4,0" class="g2_374" />
<path d="M802.5,268.9l63.8,0" class="g2_374" />
<path d="M55,311.1l178.8,0" class="g2_374" />
<path d="M233.8,311.1l196.9,0" class="g2_374" />
<path d="M430.7,311.1l196.9,0" class="g2_374" />
<path d="M627.6,311.1l104.5,0" class="g2_374" />
<path d="M732.1,311.1l70.4,0" class="g2_374" />
<path d="M802.5,311.1l63.8,0" class="g2_374" />
<path d="M55,357.9l178.8,0" class="g2_374" />
<path d="M233.8,357.9l196.9,0" class="g2_374" />
<path d="M430.7,357.9l196.9,0" class="g2_374" />
<path d="M627.6,357.9l104.5,0" class="g2_374" />
<path d="M732.1,357.9l70.4,0" class="g2_374" />
<path d="M802.5,357.9l63.8,0" class="g2_374" />
<path d="M55,400.1l178.8,0" class="g2_374" />
<path d="M233.8,400.1l196.9,0" class="g2_374" />
<path d="M430.7,400.1l196.9,0" class="g2_374" />
<path d="M627.6,400.1l104.5,0" class="g2_374" />
<path d="M732.1,400.1l70.4,0" class="g2_374" />
<path d="M802.5,400.1l63.8,0" class="g2_374" />
<path d="M55,442.2l178.8,0" class="g2_374" />
<path d="M233.8,442.2l196.9,0" class="g2_374" />
<path d="M430.7,442.2l196.9,0" class="g2_374" />
<path d="M627.6,442.2l104.5,0" class="g2_374" />
<path d="M732.1,442.2l70.4,0" class="g2_374" />
<path d="M802.5,442.2l63.8,0" class="g2_374" />
<path d="M55,484.4l178.8,0" class="g2_374" />
<path d="M233.8,484.4l196.9,0" class="g2_374" />
<path d="M430.7,484.4l196.9,0" class="g2_374" />
<path d="M627.6,484.4l104.5,0" class="g2_374" />
<path d="M732.1,484.4l70.4,0" class="g2_374" />
<path d="M802.5,484.4l63.8,0" class="g2_374" />
<path d="M55,526.6l178.8,0" class="g2_374" />
<path d="M233.8,526.6l196.9,0" class="g2_374" />
<path d="M430.7,526.6l196.9,0" class="g2_374" />
<path d="M627.6,526.6l104.5,0" class="g2_374" />
<path d="M732.1,526.6l70.4,0" class="g2_374" />
<path d="M802.5,526.6l63.8,0" class="g2_374" />
<path d="M55,568.7l178.8,0" class="g2_374" />
<path d="M233.8,568.7l196.9,0" class="g2_374" />
<path d="M430.7,568.7l196.9,0" class="g2_374" />
<path d="M627.6,568.7l104.5,0" class="g2_374" />
<path d="M732.1,568.7l70.4,0" class="g2_374" />
<path d="M802.5,568.7l63.8,0" class="g2_374" />
<path d="M55,610.9l178.8,0" class="g2_374" />
<path d="M233.8,610.9l196.9,0" class="g2_374" />
<path d="M430.7,610.9l196.9,0" class="g2_374" />
<path d="M627.6,610.9l104.5,0" class="g2_374" />
<path d="M732.1,610.9l70.4,0" class="g2_374" />
<path d="M802.5,610.9l63.8,0" class="g2_374" />
<path d="M55,653l178.8,0" class="g2_374" />
<path d="M233.8,653l196.9,0" class="g2_374" />
<path d="M430.7,653l196.9,0" class="g2_374" />
<path d="M627.6,653l104.5,0" class="g2_374" />
<path d="M732.1,653l70.4,0" class="g2_374" />
<path d="M802.5,653l63.8,0" class="g2_374" />
<path d="M55,695.2l178.8,0" class="g2_374" />
<path d="M233.8,695.2l196.9,0" class="g2_374" />
<path d="M430.7,695.2l196.9,0" class="g2_374" />
<path d="M627.6,695.2l104.5,0" class="g2_374" />
<path d="M732.1,695.2l70.4,0" class="g2_374" />
<path d="M802.5,695.2l63.8,0" class="g2_374" />
<path d="M55,737.4l178.8,0" class="g2_374" />
<path d="M233.8,737.4l196.9,0" class="g2_374" />
<path d="M430.7,737.4l196.9,0" class="g2_374" />
<path d="M627.6,737.4l104.5,0" class="g2_374" />
<path d="M732.1,737.4l70.4,0" class="g2_374" />
<path d="M802.5,737.4l63.8,0" class="g2_374" />
<path d="M55,782.5l178.8,0" class="g2_374" />
<path d="M233.8,782.5l196.9,0" class="g2_374" />
<path d="M430.7,782.5l196.9,0" class="g2_374" />
<path d="M627.6,782.5l104.5,0" class="g2_374" />
<path d="M732.1,782.5l70.4,0" class="g2_374" />
<path d="M802.5,782.5l63.8,0" class="g2_374" />
<path d="M55,824.6l178.8,0" class="g2_374" />
<path d="M233.8,824.6l196.9,0" class="g2_374" />
<path d="M430.7,824.6l196.9,0" class="g2_374" />
<path d="M627.6,824.6l104.5,0" class="g2_374" />
<path d="M732.1,824.6l70.4,0" class="g2_374" />
<path d="M802.5,824.6l63.8,0" class="g2_374" />
<path d="M55,866.8l178.8,0" class="g2_374" />
<path d="M233.8,866.8l196.9,0" class="g2_374" />
<path d="M430.7,866.8l196.9,0" class="g2_374" />
<path d="M627.6,866.8l104.5,0" class="g2_374" />
<path d="M732.1,866.8l70.4,0" class="g2_374" />
<path d="M802.5,866.8l63.8,0" class="g2_374" />
<path d="M55,909l178.8,0" class="g2_374" />
<path d="M233.8,909l196.9,0" class="g2_374" />
<path d="M430.7,909l196.9,0" class="g2_374" />
<path d="M627.6,909l104.5,0" class="g2_374" />
<path d="M732.1,909l70.4,0" class="g2_374" />
<path d="M802.5,909l63.8,0" class="g2_374" />
<path d="M55,951.1l178.8,0" class="g2_374" />
<path d="M233.8,951.1l196.9,0" class="g2_374" />
<path d="M430.7,951.1l196.9,0" class="g2_374" />
<path d="M627.6,951.1l104.5,0" class="g2_374" />
<path d="M732.1,951.1l70.4,0" class="g2_374" />
<path d="M802.5,951.1l63.8,0" class="g2_374" />
<path d="M55,993.3l178.8,0" class="g2_374" />
<path d="M233.8,993.3l196.9,0" class="g2_374" />
<path d="M430.7,993.3l196.9,0" class="g2_374" />
<path d="M627.6,993.3l104.5,0" class="g2_374" />
<path d="M732.1,993.3l70.4,0" class="g2_374" />
<path d="M802.5,993.3l63.8,0" class="g2_374" />
<path d="M55,1035.4l178.8,0" class="g2_374" />
<path d="M233.8,1035.4l196.9,0" class="g2_374" />
<path d="M430.7,1035.4l196.9,0" class="g2_374" />
<path d="M627.6,1035.4l104.5,0" class="g2_374" />
<path d="M732.1,1035.4l70.4,0" class="g2_374" />
<path d="M802.5,1035.4l63.8,0" class="g2_374" />
<path d="M55,1077.6l178.8,0" class="g2_374" />
<path d="M233.8,1077.6l196.9,0" class="g2_374" />
<path d="M430.7,1077.6l196.9,0" class="g2_374" />
<path d="M627.6,1077.6l104.5,0" class="g2_374" />
<path d="M732.1,1077.6l70.4,0" class="g2_374" />
<path d="M802.5,1077.6l63.8,0" class="g2_374" />
<path d="M55,95l178.8,0" class="g3_374" />
<path d="M233.8,95l196.9,0" class="g3_374" />
<path d="M430.7,95l196.9,0" class="g3_374" />
<path d="M627.6,95l104.5,0" class="g3_374" />
<path d="M732.1,95l70.4,0" class="g3_374" />
<path d="M802.5,95l63.8,0" class="g3_374" />
<path d="M55,1120.3l178.8,0" class="g4_374" />
<path d="M233.8,1120.3l196.9,0" class="g4_374" />
<path d="M430.7,1120.3l196.9,0" class="g4_374" />
<path d="M627.6,1120.3l104.5,0" class="g4_374" />
<path d="M732.1,1120.3l70.4,0" class="g4_374" />
<path d="M802.5,1120.3l63.8,0" class="g4_374" />
<text 
x="61" 
y="82" 
dx="0,0,0,0,0,0,0" 
class="s1_374"
>English</text>

<text 
x="239" 
y="82" 
dx="0,0,0,0,0,0,0,0,0,0" 
class="s1_374"
>Simplified</text>

<text 
x="436" 
y="82" 
dx="0,-1.2,-0.1,0,0,0,0,0,0,0,0" 
class="s1_374"
>Traditional</text>

<text 
x="633" 
y="82" 
dx="0,0,0,0,0,0" 
class="s1_374"
>Pinyin</text>

<text 
x="738" 
y="75" 
dx="0,0,0,0,0,0,-0.2,0" 
class="s1_374"
>Part of </text>

<text 
x="738" 
y="88" 
dx="0,0,0,0,0,0" 
class="s1_374"
>Speech</text>

<text 
x="808" 
y="81" 
dx="0,0,0,0,0,0" 
class="s1_374"
>Lesson</text>

<text 
x="61" 
y="116" 
dx="0,0,0,0,0,0,0,0,0,0,0,0,0,0,0,0" 
class="s2_374"
>Capital Airport </text>

<text 
x="61" 
y="136" 
dx="0,0,0,0,0,0,0,0,0,0,0,0" 
class="s2_374"
>(in Beijing)</text>

<text 
x="239" 
y="127" 
dx="0,0,0,0" 
class="s3_374"
>首都机场</text>

<text 
x="436" 
y="127" 
dx="0,0,0,0" 
class="s4_374"
>首都機場</text>

<text 
x="633" 
y="125" 
dx="0,0.2,0.2,0.2,0.2,0.2,0.2,0.2,0.2,0.2,0.2,0.2,0.2,0.2" 
class="s5_374"
>Shǒudū Jīchǎng</text>

<text 
x="738" 
y="125" 
dx="0,0" 
class="s6_374"
>pn</text>

<text 
x="808" 
y="125" 
dx="0,0" 
class="s7_374"
>20</text>

<text 
x="61" 
y="170" 
dx="0,0,0,0,0,0,0,0,0,0,0,0" 
class="s2_374"
>capital city</text>

<text 
x="239" 
y="172" 
dx="0,0" 
class="s3_374"
>首都</text>

<text 
x="633" 
y="169" 
dx="0,0.2,0.2,0.2,0.2,0.2" 
class="s5_374"
>shǒudū</text>

<text 
x="738" 
y="170" 
dx="0" 
class="s6_374"
>n</text>

<text 
x="808" 
y="170" 
dx="0,0" 
class="s7_374"
>19</text>

<text 
x="61" 
y="213" 
dx="0,0,0,-0.2,0,0,0,0,0,0,-0.1,0,0,0,0,0,0,0,0,0" 
class="s2_374"
>catch, meet, welcome</text>

<text 
x="239" 
y="214" 
dx="0" 
class="s3_374"
>接</text>

<text 
x="633" 
y="212" 
dx="0,0.2,0.2" 
class="s5_374"
>jiē</text>

<text 
x="738" 
y="212" 
dx="0" 
class="s6_374"
>v</text>

<text 
x="808" 
y="212" 
dx="0,0" 
class="s7_374"
>14</text>

<text 
x="61" 
y="255" 
dx="0,0,0,0,0,0,0,0,0,0" 
class="s2_374"
>cell phone</text>

<text 
x="239" 
y="256" 
dx="0,0" 
class="s3_374"
>手机</text>

<text 
x="436" 
y="256" 
dx="0,0" 
class="s4_374"
>手機</text>

<text 
x="633" 
y="254" 
dx="0,0.2,0.2,0.2,0.2,0.2" 
class="s5_374"
>shǒujī</text>

<text 
x="738" 
y="254" 
dx="0" 
class="s6_374"
>n</text>

<text 
x="808" 
y="254" 
dx="0,0" 
class="s7_374"
>10</text>

<text 
x="61" 
y="297" 
dx="0,0,0,0,-0.2,0" 
class="s2_374"
>center</text>

<text 
x="239" 
y="298" 
dx="0,0" 
class="s3_374"
>中心</text>

<text 
x="633" 
y="296" 
dx="0,0.2,0.2,0.2,0.2,0.2,0.2,0.2" 
class="s5_374"
>zhōngxīn</text>

<text 
x="738" 
y="296" 
dx="0" 
class="s6_374"
>n</text>

<text 
x="808" 
y="296" 
dx="0,0" 
class="s7_374"
>13</text>

<text 
x="61" 
y="331" 
dx="0,0,0,0,0,0,0,0,0,0,0,0,0,0,0,0,-0.2,0,0" 
class="s2_374"
>certain, definite; </text>

<text 
x="61" 
y="351" 
dx="0,0,0,0,0,0,0,0,0,-1,0,0,0,0,0,0,0,0,-0.2,0,0" 
class="s2_374"
>certainly, definitely</text>

<text 
x="239" 
y="343" 
dx="0,0" 
class="s3_374"
>一定</text>

<text 
x="633" 
y="340" 
dx="0,0.2,0.2,0.2,0.2,0.2" 
class="s5_374"
>yídìng</text>

<text 
x="738" 
y="341" 
dx="0,0,0,0,0,0,0" 
class="s6_374"
>adj/adv</text>

<text 
x="808" 
y="341" 
dx="0,0" 
class="s7_374"
>14</text>

<text 
x="61" 
y="386" 
dx="0,0,0,0,0" 
class="s2_374"
>chair</text>

<text 
x="239" 
y="387" 
dx="0,0" 
class="s3_374"
>椅子</text>

<text 
x="633" 
y="385" 
dx="0,0.2,0.2,0.2" 
class="s5_374"
>yǐzi</text>

<text 
x="738" 
y="385" 
dx="0" 
class="s6_374"
>n</text>

<text 
x="808" 
y="385" 
dx="0,0" 
class="s7_374"
>17</text>

<text 
x="61" 
y="428" 
dx="0,0,0,0,0,-0.1,0,0,0,0,0,0,0" 
class="s2_374"
>change planes</text>

<text 
x="239" 
y="429" 
dx="0,0" 
class="s3_374"
>转机</text>

<text 
x="436" 
y="429" 
dx="0,0" 
class="s4_374"
>轉機</text>

<text 
x="633" 
y="427" 
dx="0,0.2,0.2,0.2,0.2,0.2,0.2,0.2" 
class="s5_374"
>zhuǎn jī</text>

<text 
x="738" 
y="428" 
dx="0,-0.4" 
class="s6_374"
>vo</text>

<text 
x="808" 
y="428" 
dx="0,0" 
class="s7_374"
>19</text>

<text 
x="61" 
y="470" 
dx="0,0,0,0,0,0,0,-0.2,0" 
class="s2_374"
>character</text>

<text 
x="239" 
y="472" 
dx="0" 
class="s3_374"
>字</text>

<text 
x="633" 
y="469" 
dx="0,0.2" 
class="s5_374"
>zì</text>

<text 
x="738" 
y="470" 
dx="0" 
class="s6_374"
>n</text>

<text 
x="808" 
y="470" 
dx="0" 
class="s7_374"
>7</text>

<text 
x="61" 
y="512" 
dx="0,0,0,0" 
class="s2_374"
>chat</text>

<text 
x="239" 
y="514" 
dx="0,0,0,0,0" 
class="s3_374"
>聊天（儿）</text>

<text 
x="436" 
y="514" 
dx="0,0,0,0,0" 
class="s4_374"
>聊天（兒）</text>

<text 
x="633" 
y="511" 
dx="0,0.2,0.2,0.2,0.2,0.2,0.2,0.2,0.2,0.2,0.2,0.2" 
class="s5_374"
>liáo tiān(r)</text>

<text 
x="738" 
y="512" 
dx="0,-0.4" 
class="s6_374"
>vo</text>

<text 
x="808" 
y="512" 
dx="0" 
class="s7_374"
>5</text>

<text 
x="61" 
y="555" 
dx="0,0,0,0,0,0,0,0,0,0,-0.3,0,0,0,0,0,0,-0.5" 
class="s2_374"
>cheap, inexpensive</text>

<text 
x="239" 
y="556" 
dx="0,0" 
class="s3_374"
>便宜</text>

<text 
x="633" 
y="554" 
dx="0,0.2,0.2,0.2,0.2,0.2" 
class="s5_374"
>piányi</text>

<text 
x="738" 
y="554" 
dx="0,0,0" 
class="s6_374"
>adj</text>

<text 
x="808" 
y="554" 
dx="0" 
class="s7_374"
>9</text>

<text 
x="61" 
y="597" 
dx="0,0,0,0,0,0,0,0,0,0,0,0,0,0,0,-0.2" 
class="s2_374"
>check, look into</text>

<text 
x="239" 
y="598" 
dx="0" 
class="s3_374"
>查</text>

<text 
x="633" 
y="596" 
dx="0,0.2,0.2" 
class="s5_374"
>chá</text>

<text 
x="738" 
y="596" 
dx="0" 
class="s6_374"
>v</text>

<text 
x="808" 
y="596" 
dx="0,0" 
class="s7_374"
>19</text>

<text 
x="61" 
y="639" 
dx="0,0,0,0,0,0,0,0,0,0,0,0,0,-0.1,0" 
class="s2_374"
>check (luggage)</text>

<text 
x="239" 
y="640" 
dx="0,0" 
class="s3_374"
>托运</text>

<text 
x="436" 
y="640" 
dx="0,0" 
class="s4_374"
>托運</text>

<text 
x="633" 
y="638" 
dx="0,0.2,0.2,0.2,0.2,0.2" 
class="s5_374"
>tuōyùn</text>

<text 
x="738" 
y="638" 
dx="0" 
class="s6_374"
>v</text>

<text 
x="808" 
y="638" 
dx="0,0" 
class="s7_374"
>20</text>

<text 
x="61" 
y="681" 
dx="0,0,0,0,0" 
class="s2_374"
>child</text>

<text 
x="239" 
y="682" 
dx="0,0" 
class="s3_374"
>孩子</text>

<text 
x="633" 
y="680" 
dx="0,0.2,0.2,0.2,0.2" 
class="s5_374"
>háizi</text>

<text 
x="738" 
y="681" 
dx="0" 
class="s6_374"
>n</text>

<text 
x="808" 
y="681" 
dx="0" 
class="s7_374"
>2</text>

<text 
x="61" 
y="723" 
dx="0,0,0,0,0" 
class="s2_374"
>China</text>

<text 
x="239" 
y="725" 
dx="0,0" 
class="s3_374"
>中国</text>

<text 
x="436" 
y="725" 
dx="0,0" 
class="s4_374"
>中國</text>

<text 
x="633" 
y="722" 
dx="0,0.2,0.2,0.2,0.2,0.2,0.2,0.2" 
class="s5_374"
>Zhōngguó</text>

<text 
x="738" 
y="723" 
dx="0,0" 
class="s6_374"
>pn</text>

<text 
x="808" 
y="723" 
dx="0" 
class="s7_374"
>1</text>

<text 
x="61" 
y="767" 
dx="0,0,0,0,0,0,-0.2,0,0" 
class="s2_374"
>Chinatown</text>

<text 
x="239" 
y="768" 
dx="0,0,0" 
class="s3_374"
>中国城</text>

<text 
x="436" 
y="768" 
dx="0,0,0" 
class="s4_374"
>中國城</text>

<text 
x="633" 
y="756" 
dx="0,0.2,0.2,0.2,0.2,0.2,0.2" 
class="s5_374"
>Zhōnggu</text>

<text 
x="685" 
y="756" 
dx="0" 
class="s8_374"
>-</text>

<text 
x="633" 
y="776" 
dx="0,0.2,0.2,0.2,0.2,0.2" 
class="s5_374"
>óchéng</text>

<text 
x="738" 
y="766" 
dx="0" 
class="s6_374"
>n</text>

<text 
x="808" 
y="766" 
dx="0,0" 
class="s7_374"
>13</text>

<text 
x="61" 
y="810" 
dx="0,0,0,0,0,0,0,0,0,0,0,0,0,0,0,-0.2,0,0" 
class="s2_374"
>Chinese characters</text>

<text 
x="239" 
y="812" 
dx="0,0" 
class="s3_374"
>汉字</text>

<text 
x="436" 
y="812" 
dx="0,0" 
class="s4_374"
>漢字</text>

<text 
x="633" 
y="810" 
dx="0,0.2,0.2,0.2,0.2" 
class="s5_374"
>Hànzì</text>

<text 
x="738" 
y="810" 
dx="0" 
class="s6_374"
>n</text>

<text 
x="808" 
y="810" 
dx="0" 
class="s7_374"
>7</text>

<text 
x="61" 
y="853" 
dx="0,0,0,0,0,0,0,0,0,0,0,0,0,0,0,-0.1" 
class="s2_374"
>Chinese language</text>

<text 
x="239" 
y="854" 
dx="0,0" 
class="s3_374"
>中文</text>

<text 
x="633" 
y="852" 
dx="0,0.2,0.2,0.2,0.2,0.2,0.2,0.2" 
class="s5_374"
>Zhōngwén</text>

<text 
x="738" 
y="852" 
dx="0" 
class="s6_374"
>n</text>

<text 
x="808" 
y="852" 
dx="0" 
class="s7_374"
>6</text>

<text 
x="61" 
y="895" 
dx="0,0,0,0" 
class="s2_374"
>city</text>

<text 
x="239" 
y="896" 
dx="0,0" 
class="s3_374"
>城市</text>

<text 
x="633" 
y="894" 
dx="0,0.2,0.2,0.2,0.2,0.2,0.2,0.2" 
class="s5_374"
>chéngshì</text>

<text 
x="738" 
y="894" 
dx="0" 
class="s6_374"
>n</text>

<text 
x="808" 
y="894" 
dx="0,0" 
class="s7_374"
>10</text>

<text 
x="61" 
y="937" 
dx="0,0,0,0,0" 
class="s2_374"
>class</text>

<text 
x="239" 
y="940" 
dx="0" 
class="s9_374"
>班</text>

<text 
x="633" 
y="936" 
dx="0,0.2,0.2" 
class="s5_374"
>bān</text>

<text 
x="738" 
y="937" 
dx="0" 
class="s6_374"
>n</text>

<text 
x="808" 
y="937" 
dx="0,0" 
class="s7_374"
>14</text>

<text 
x="61" 
y="979" 
dx="0,0,0,0,0,0,0,0,0,0,0,0,0,0,0,0,0,0,0,0,0" 
class="s2_374"
>class, course, lesson</text>

<text 
x="239" 
y="981" 
dx="0" 
class="s3_374"
>课</text>

<text 
x="436" 
y="981" 
dx="0" 
class="s4_374"
>課</text>

<text 
x="633" 
y="978" 
dx="0,0.2" 
class="s5_374"
>kè</text>

<text 
x="738" 
y="979" 
dx="0" 
class="s6_374"
>n</text>

<text 
x="808" 
y="979" 
dx="0" 
class="s7_374"
>6</text>

<text 
x="61" 
y="1021" 
dx="0,0,0,0,0,0,0,0,-0.2" 
class="s2_374"
>classmate</text>

<text 
x="239" 
y="1023" 
dx="0,0" 
class="s3_374"
>同学</text>

<text 
x="436" 
y="1023" 
dx="0,0" 
class="s4_374"
>同學</text>

<text 
x="633" 
y="1020" 
dx="0,0.2,0.2,0.2,0.2,0.2,0.2" 
class="s5_374"
>tóngxué</text>

<text 
x="738" 
y="1021" 
dx="0" 
class="s6_374"
>n</text>

<text 
x="808" 
y="1021" 
dx="0" 
class="s7_374"
>3</text>

<text 
x="61" 
y="1063" 
dx="0,0,0,0,0,0,-0.2,0,0" 
class="s2_374"
>classroom</text>

<text 
x="239" 
y="1065" 
dx="0,0" 
class="s3_374"
>教室</text>

<text 
x="633" 
y="1063" 
dx="0,0.2,0.2,0.2,0.2,0.2,0.2" 
class="s5_374"
>jiàoshì</text>

<text 
x="738" 
y="1063" 
dx="0" 
class="s6_374"
>n</text>

<text 
x="808" 
y="1063" 
dx="0" 
class="s7_374"
>8</text>

<text 
x="61" 
y="1106" 
dx="0,0,0,0,0" 
class="s2_374"
>clean</text>

<text 
x="239" 
y="1107" 
dx="0,0" 
class="s3_374"
>干净</text>

<text 
x="436" 
y="1107" 
dx="0,0" 
class="s4_374"
>乾淨</text>

<text 
x="633" 
y="1105" 
dx="0,0.2,0.2,0.2,0.2,0.2,0.2" 
class="s5_374"
>gānjìng</text>

<text 
x="738" 
y="1105" 
dx="0,0,0" 
class="s6_374"
>adj</text>

<text 
x="808" 
y="1105" 
dx="0,0" 
class="s7_374"
>17</text>

<path d="M880.8,1209.2l64.9,0l0,-1222.1l-64.9,0l0,1222.1Z" class="g5_374" />
<text 
transform="matrix(0, 1, -1, 0, 889, 864)"
dx="0,-0.1,0.6,0.6,0.6,0.6,0.6,0.6,0.6,0.6,0.6,0.6,0.6,0.6,0.6,0.4,0.6,0.6,0.6,0.6,0.6,0.6,0.6,0.6,0.6,0.6,0.6,0.6,0.6,0.6,0.6,0.6,0.6,0.6,0.6,0.6,0.6,-0.1,0.6,0.6,0.6,0.6,0.6,0.6,0.6,0.6,0.6,0.6" 
class="s10_374"
>Vocabulary Index (English-Chinese), Volumes 1–2 </text>

<text 
transform="matrix(0, 1, -1, 0, 889, 1151)"
dx="0,0.6,0.6" 
class="s10_374"
>353</text>



<!-- Any embedded fonts defined here -->
<style type="text/css" ><![CDATA[

@font-face {
	font-family: LibreFranklin-SemiBold_4gw;
	src: url("fonts/LibreFranklin-SemiBold_4gw.woff") format("woff");
}

@font-face {
	font-family: LibreFranklin-Regular_4h1;
	src: url("fonts/LibreFranklin-Regular_4h1.woff") format("woff");
}

@font-face {
	font-family: GentiumBookBasic-Italic_4gt;
	src: url("fonts/GentiumBookBasic-Italic_4gt.woff") format("woff");
}

@font-face {
	font-family: STKaitiTC-Regular_4h8;
	src: url("fonts/STKaitiTC-Regular_4h8.woff") format("woff");
}

@font-face {
	font-family: STKaitiSC-Regular_44y;
	src: url("fonts/STKaitiSC-Regular_44y.woff") format("woff");
}

@font-face {
	font-family: GentiumBookBasic-Italic_3mn;
	src: url("fonts/GentiumBookBasic-Italic_3mn.woff") format("woff");
}

@font-face {
	font-family: ZenKai-Medium_3_v;
	src: url("fonts/ZenKai-Medium_3_v.woff") format("woff");
}

]]></style>

</svg>
