<?xml version="1.0" encoding="UTF-8" standalone="no"?>
<!DOCTYPE svg PUBLIC "-//W3C//DTD SVG 1.1//EN"
"http://www.w3.org/Graphics/SVG/1.1/DTD/svg11.dtd">


<!-- Page 137 -->
<svg x="0" y="0" width="921" height="1196" viewBox="0 0 921 1196" version="1.1" xmlns="http://www.w3.org/2000/svg" xmlns:xlink="http://www.w3.org/1999/xlink"
style="display: block;margin-left: auto;margin-right: auto;">
<defs>
<clipPath id="c0_137"><path d="M0,1196.3L0,0L921.3,0l0,1196.3Z" /></clipPath>

<style type="text/css"><![CDATA[

.g1_137{
fill: #FED205;
}
.g2_137{
fill: #765A00;
}
.g3_137{
fill: #F0F1F2;
}
.g4_137{
fill: none;
stroke: #BDBEC1;
stroke-width: 0.38194445;
stroke-linecap: butt;
stroke-linejoin: miter;
}
.g5_137{
fill: none;
stroke: #A8A9AD;
stroke-width: 1.5277778;
stroke-linecap: butt;
stroke-linejoin: miter;
}
.g6_137{
fill: none;
stroke: #BDBEC1;
stroke-width: 1.5277778;
stroke-linecap: butt;
stroke-linejoin: miter;
}
.g7_137{
fill: none;
stroke: #9B9B9C;
stroke-width: 1.5583333;
stroke-linecap: butt;
stroke-linejoin: miter;
stroke-miterlimit: 4;
}
.g8_137{
fill: none;
stroke: #9B9B9C;
stroke-width: 0.5209722;
stroke-linecap: butt;
stroke-linejoin: miter;
stroke-miterlimit: 4;
}
.g9_137{
fill: #9B9B9C;
}
.g10_137{
fill: none;
stroke: #231F20;
stroke-width: 0.6111111;
stroke-linecap: butt;
stroke-linejoin: miter;
}
.g11_137{
fill: none;
stroke: #646566;
stroke-width: 0.83875006;
stroke-linecap: butt;
stroke-linejoin: miter;
}
.g12_137{
fill: #E9E7E6;
}
.g13_137{
fill: none;
stroke: #9B9B9C;
stroke-width: 1.5277778;
stroke-linecap: butt;
stroke-linejoin: miter;
stroke-miterlimit: 4;
}
.g14_137{
fill: none;
stroke: #231F20;
stroke-width: 1.9815279;
stroke-linecap: butt;
stroke-linejoin: miter;
stroke-miterlimit: 4;
}
.g15_137{
fill: #231F20;
}
.g16_137{
fill: none;
stroke: #231F20;
stroke-width: 0.35597223;
stroke-linecap: butt;
stroke-linejoin: miter;
stroke-miterlimit: 4;
}
.g17_137{
fill: none;
stroke: #231F20;
stroke-width: 0.38194445;
stroke-linecap: butt;
stroke-linejoin: miter;
stroke-miterlimit: 4;
}
.g18_137{
fill: #007598;
stroke: #B2B3B7;
stroke-width: 1.5277778;
stroke-linecap: butt;
stroke-linejoin: miter;
stroke-miterlimit: 4;
}

.s1_137{
font-size: 13.75px;
font-family: LibreFranklin-Medium_3-n;
fill: #FFFFFF;
}
.s2_137{
font-size: 22.92px;
font-family: STKaiti-SC-Bold_3mi;
fill: #FFFFFF;
}
.s3_137{
font-size: 16.04px;
font-family: GentiumBookBasic-BoldIta_402;
fill: #FFFFFF;
}
.s4_137{
font-size: 14.13px;
font-family: LibreFranklin-Bold_3-r;
fill: #472D8E;
}
.s5_137{
font-size: 13.75px;
font-family: LibreFranklin-SemiBold_3-w;
fill: #77787B;
}
.s6_137{
font-size: 34.38px;
font-family: STKaiti-SC-Regular_3nm;
fill: #472D8E;
}
.s7_137{
font-size: 14.90px;
font-family: GentiumBookBasic-Italic_3mn;
fill: #472D8E;
}
.s8_137{
font-size: 14.51px;
font-family: LibreFranklin-Regular_3_3;
fill: #3F3F40;
}
.s9_137{
font-size: 13.75px;
font-family: LibreFranklin-Regular_3_3;
fill: #3F3F40;
}
.s10_137{
font-size: 30.56px;
font-family: STKaiti-SC-Regular_3nm;
fill: #231F20;
}
.s11_137{
font-size: 17.19px;
font-family: GentiumBookBasic-Italic_3mn;
fill: #646566;
}
.s12_137{
font-size: 12.99px;
font-family: LibreFranklin-Medium_3-n;
fill: #646566;
}
.s13_137{
font-size: 35.14px;
font-family: STKaiti-SC-Bold_3mi;
fill: #231F20;
}
.s14_137{
font-size: 11.08px;
font-family: LibreFranklin-SemiBold_3-w;
fill: #FFFFFF;
}

]]></style>

</defs>
<path d="M0,0
L0,1196
L921,1196
L921,0 Z " 
fill="#FFFFFF" stroke="none" />
<g clip-path="url(#c0_137)">
<path d="M-14.9,-14c0,0,-5.4,510.6,-2.1,511.1c95.2,13.7,193.7,17.5,294.2,10.5c239.3,-16.7,466.2,-93.9,650.9,-213c-0.9,-48.5,-2.3,-307.9,-2.3,-307.9L-14.9,-14Z" class="g1_137" />
</g>
<image preserveAspectRatio="none" x="0" y="-2" width="923" height="511" xlink:href="137/img/1.png" />
<g clip-path="url(#c0_137)">
<path d="M-14.9,-14l-2.2,0c0,0,-1.3,117.9,-2.2,240.6c-0.5,61.3,-0.9,123.8,-1,173.2c0,24.7,0,46.2,0.1,62.6c0.1,16.5,0.3,27.9,0.6,32.6c0.1,0.8,0.1,1.4,0.2,1.9c0,0.2,0.1,0.4,0.2,0.7c0,0.2,0.1,0.4,0.2,0.7c0.1,0.1,0.3,0.3,0.5,0.5c0.2,0.2,0.7,0.5,1.2,0.6c95.3,13.7,194,17.5,294.6,10.5c239.7,-16.8,467,-94.1,652,-213.4l1.1,-0.7l0,-1.3c-0.5,-24.2,-1,-101.2,-1.5,-172.1C928.7,86.9,928.5,52.9,928.3,27.9C928.2,15.3,928.2,5,928.1,-2.1c0,-7.2,0,-11.3,0,-11.3l0,-2.2L-17.1,-16.3l0,2.3l2.2,0l0,2.3L925.8,-11l0,-2.3l-2.3,0c0,0,1.4,259.4,2.3,307.9l2.3,0l-1.2,-1.9C742.5,411.5,515.9,488.6,277,505.3c-100.3,7,-198.6,3.2,-293.6,-10.4l0,-0.1l-0.3,2.3l1.4,-1.7c-0.2,-0.2,-0.6,-0.5,-1.1,-0.6l-0.3,2.3l1.4,-1.7l-1.3,1.6l1.9,-0.9C-15,496,-15,495.8,-15.5,495.4l-1.3,1.6l1.9,-0.9l-1.3,0.6l1.4,-0.4l-0.1,-0.2l-1.3,0.6l1.4,-0.4l-0.5,0.1l0.5,-0.1l-0.5,0.1l0.5,-0.1c0,0,-0.1,-0.2,-0.1,-0.5c0,-0.2,-0.1,-0.6,-0.1,-1.1c-0.3,-4.4,-0.5,-15.9,-0.6,-32.3c-0.4,-57.5,0.3,-176.6,1.2,-281.3C-14,128.7,-13.5,79.9,-13.2,44.2C-13,26.4,-12.8,11.8,-12.7,1.7c0.1,-10,0.1,-15.7,0.1,-15.7l-2.3,0l0,2.3l0,-2.3Z" class="g1_137" />
</g>
<image preserveAspectRatio="none" x="683" y="0" width="179" height="208" xlink:href="137/img/2.png" />
<image preserveAspectRatio="none" x="683" y="207" width="179" height="156" xlink:href="137/img/3.png" />
<image preserveAspectRatio="none" x="684" y="362" width="134" height="53" xlink:href="137/img/4.png" />
<path d="M861,332.3c-50.2,28.3,-103.1,53.6,-158,75.6c54.6,-20.3,107.2,-46.1,158,-74.8l0,-0.8Z" class="g2_137" />
<text 
x="716" 
y="66" 
dx="0,0,0.4,-0.8,0,0,0,0,0,0,0,0,0,0,0,0,0,0,0,0" 
class="s1_137"
>It’s your birthday! </text>

<text 
x="716" 
y="87" 
dx="0,-1.5,0,0,-0.2,-0.2,0,0,0,0,0,0,0,0,0,0" 
class="s1_137"
>You’re having a </text>

<text 
x="716" 
y="109" 
dx="0,0,0,0,0,-0.9,0,0,0,0,0,0,0,0,0,0,-0.2,0" 
class="s1_137"
>party, and one of </text>

<text 
x="716" 
y="130" 
dx="0,0,0,0,0,0,0,0,0,0,0,0,0,0,0,0,0" 
class="s1_137"
>your friends has </text>

<text 
x="716" 
y="151" 
dx="0,0,-0.2,0,0,0,0,0,0,-0.3,-0.4,0,0,0,0" 
class="s1_137"
>brought over a </text>

<text 
x="716" 
y="173" 
dx="0,0,0,0,0,0,0,0,0,0,0,0,0,0,0,0,0,0,0,0" 
class="s1_137"
>delicious selection </text>

<text 
x="716" 
y="194" 
dx="0,-0.2,0,0,0,0,0,0,0,0,0,-0.2,0,0" 
class="s1_137"
>of bubble tea </text>

<text 
x="716" 
y="216" 
dx="0" 
class="s1_137"
>(</text>

<text 
x="720" 
y="216" 
dx="0,0,0,0" 
class="s2_137"
>珍珠奶茶</text>

<text 
x="812" 
y="216" 
dx="0,0" 
class="s1_137"
>) </text>

<text 
x="716" 
y="237" 
dx="0" 
class="s1_137"
>(</text>

<text 
x="720" 
y="237" 
dx="0,0.3,0.3,0.3,0.3,0.3,0.3,0.3,0.3,0.3,0.3,0.3,0.3,0.3" 
class="s3_137"
>zhēnzhū nǎichá</text>

<text 
x="827" 
y="237" 
dx="0,0,0" 
class="s1_137"
>). </text>

<text 
x="716" 
y="258" 
dx="0,0,0,0,0,0,0,0,0,-0.4,0,0,0,0,0,0,0" 
class="s1_137"
>What flavors did </text>

<text 
x="716" 
y="280" 
dx="0,0,0,0,0,0,0,0,0,0" 
class="s1_137"
>she bring?</text>

<path d="M77.9,619.7l51.6,0l0,44.2l-51.6,0l0,-44.2Zm51.6,0l137.5,0l0,44.2l-137.5,0l0,-44.2Zm137.5,0l137.5,0l0,44.2l-137.5,0l0,-44.2Zm137.5,0l146.6,0l0,44.2l-146.6,0l0,-44.2Zm146.6,0l244.7,0l0,44.2l-244.7,0l0,-44.2Z" class="g3_137" />
<path d="M77.9,663.9l51.6,0" class="g4_137" />
<path d="M129.5,663.9l137.5,0" class="g4_137" />
<path d="M267,663.9l137.5,0" class="g4_137" />
<path d="M404.5,663.9l146.6,0" class="g4_137" />
<path d="M551.1,663.9l244.7,0" class="g4_137" />
<path d="M77.9,619.7l51.6,0" class="g5_137" />
<path d="M129.5,619.7l137.5,0" class="g5_137" />
<path d="M267,619.7l137.5,0" class="g5_137" />
<path d="M404.5,619.7l146.6,0" class="g5_137" />
<path d="M551.1,619.7l244.7,0" class="g5_137" />
<path d="M77.9,708.1l51.6,0" class="g6_137" />
<path d="M129.5,708.1l137.5,0" class="g6_137" />
<path d="M267,708.1l137.5,0" class="g6_137" />
<path d="M404.5,708.1l146.6,0" class="g6_137" />
<path d="M551.1,708.1l244.7,0" class="g6_137" />
<text 
x="87" 
y="604" 
dx="0,0.3,0" 
class="s4_137"
>No.</text>

<text 
x="139" 
y="604" 
dx="0,-0.9,0.3,0" 
class="s4_137"
>Word</text>

<text 
x="276" 
y="604" 
dx="0,0.3,0.3,0.3,0.3,0.3" 
class="s4_137"
>Pinyin</text>

<text 
x="414" 
y="604" 
dx="0,0.3,0.3,0.3,0.3,0.3,0,0.3,0.3,0.3,0.3,0.3,0.3,0.3" 
class="s4_137"
>Part of Speech</text>

<text 
x="560" 
y="604" 
dx="0,0.3,0.3,0.3,0.3,0.3,0.3,0.3,0.3,0.3" 
class="s4_137"
>Definition</text>

<text 
x="87" 
y="648" 
dx="0,-0.4" 
class="s5_137"
>22</text>

<text 
x="143" 
y="654" 
dx="0,0" 
class="s6_137"
>海伦</text>

<text 
x="279" 
y="648" 
dx="0,0.2,0.2,0.2,0.2,0.2" 
class="s7_137"
>Hǎilún</text>

<text 
x="414" 
y="648" 
dx="0,0" 
class="s8_137"
>pn</text>

<text 
x="560" 
y="648" 
dx="0,0,0,0,0" 
class="s9_137"
>Helen</text>

<text 
x="87" 
y="692" 
dx="0,-0.4" 
class="s5_137"
>23</text>

<text 
x="143" 
y="698" 
dx="0,0" 
class="s6_137"
>汤姆</text>

<text 
x="279" 
y="692" 
dx="0,0.2,0.2,0.2,0.2,0.2" 
class="s7_137"
>Tāngmǔ</text>

<text 
x="414" 
y="693" 
dx="0,0" 
class="s8_137"
>pn</text>

<text 
x="560" 
y="692" 
dx="0,-1.5,0" 
class="s9_137"
>Tom</text>

<path d="M386.1,792c-0.1,0.1,-14.6,1.4,-14.8,16l-2.4,210.9c0,0.2,0,14.8,14.6,15.7l408.8,25.2c0.2,0,6.6,0.3,10.9,-3.7c2.6,-2.5,3.9,-5.9,3.9,-10.3l0,-274.3c0,-0.3,-0.1,-6.6,-4.4,-10.6c-2.6,-2.4,-6.1,-3.4,-10.4,-3L386.1,792Z" class="g7_137" />
<path d="M386.3,794.1c-0.5,0.1,-12.8,1.3,-12.9,13.9L371,1018.9c0,0.5,0.1,12.8,12.6,13.6l408.8,25.2c0,0,5.7,0.3,9.4,-3.2c2.1,-2,3.2,-4.9,3.2,-8.7l0,-274.3c0,-0.1,0,-5.7,-3.7,-9.1c-2.1,-2,-5.1,-2.8,-8.9,-2.5C657.1,771.3,521.7,782.7,386.3,794.1Z" class="g8_137" />
<path d="M807.6,788l0,9.8l3.7,0l0,-2.3l4.5,0l0,7.4l-4.5,0l0,-2.3l-3.7,0l0,9.9l3.7,0l0,-2.4l13.3,0l0,2.4l3.7,0l0,-9.9l-3.7,0l0,2.3l-4.7,0l0,-7.4l4.7,0l0,2.3l3.7,0l0,-9.8l-3.7,0l0,2.3l-13.3,0l0,-2.3Zm7.4,24.3c-4.7,0,-7.8,3.8,-7.8,8.5c0,4.7,3.1,8.4,7.8,8.4c4.7,0,7.9,-3.7,7.9,-8.5c0,-4.6,-3.2,-8.4,-7.9,-8.4m0,5.1c2.3,0,3.7,1.5,3.7,3.4c0,1.8,-1.4,3.4,-3.7,3.4c-2.2,0,-3.6,-1.6,-3.6,-3.4c0,-1.9,1.4,-3.4,3.6,-3.4m3.9,12.9l0,1.7l-11.3,2.8l0,5.8l6.9,1.7c0.9,0.2,2,0.3,2,0.3l0,0.1c0,0,-1.1,0,-2,0.2l-6.9,1.7l0,5.8l11.3,2.9l0,1.7l3.6,0l0,-8l-3.6,0l0,1.5l-5.2,-1.1c-0.9,-0.2,-2,-0.2,-2,-0.2l0,-0.1c0,0,1.1,-0.1,2,-0.3l8.8,-2l0,-4.3l-8.8,-2.1c-0.9,-0.2,-2,-0.2,-2,-0.2l0,-0.1c0,0,1.1,-0.1,2,-0.3l5.2,-1.1l0,1.5l3.6,0l0,-7.9Zm-11.3,32.5l0,8.7l3.7,0l0,-1.8l2.8,0.8l0,5.3l-2.8,0.8l0,-1.8l-3.7,0l0,8.7l3.7,0l0,-1.7l17,-5.7l0,-5.9l-17,-5.7l0,-1.7Zm10.5,8.8l3.8,1.1c1.3,0.4,2.2,0.4,2.2,0.4l0,0.1c0,0,-0.9,0.1,-2.2,0.4l-3.8,1.1Zm-10.5,14.1l0,4.7l0.5,0c0.4,0,1,0,1,0c0,0,-1.9,1.1,-1.9,4.1c0,4,3.1,7,7.8,7c4.7,0,7.9,-2.7,7.9,-6.7c0,-2.7,-1.6,-4.1,-1.6,-4.1c0,0,0.5,0,1.3,0l5.7,0l0,-7l-3.6,0l0,2Zm7.3,4.9c2.6,0,3.7,1.4,3.7,2.9c0,1.8,-1.4,2.9,-3.7,2.9c-2.2,0,-3.5,-1.3,-3.5,-2.9c0,-2,1.7,-2.9,3.5,-2.9M815,903c-4.7,0,-7.8,3.8,-7.8,8.5c0,4.7,3.1,8.5,7.8,8.5c4.7,0,7.9,-3.8,7.9,-8.5c0,-4.7,-3.2,-8.5,-7.9,-8.5m0,5.1c2.3,0,3.7,1.6,3.7,3.4c0,1.8,-1.4,3.4,-3.7,3.4c-2.2,0,-3.6,-1.6,-3.6,-3.4c0,-1.8,1.4,-3.4,3.6,-3.4m-2.2,15.2c-4.2,0,-5.6,2.3,-5.6,4.9c0,3.9,2.9,5.1,2.9,5.1l0,0.1c0,0,-0.2,-0.1,-0.4,-0.1l-0.4,0c-1.1,0,-1.7,0.7,-1.7,2.1l0,4.6l3.6,0l0,-1.2c0,-0.4,0.2,-0.7,0.6,-0.7l10.7,0l0,-7l-3.6,0l0,2l-2.7,0c-2.3,0,-4.6,-1.1,-4.6,-3.1c0,-1.1,0.6,-1.7,2,-1.7l8.9,0l0,-7l-3.6,0l0,2Zm0.3,19.9c-5,0,-5.7,4.7,-5.7,7c0,0.8,0.1,1.4,0.1,1.4l4.1,0c0,0,0,-0.3,0,-0.7c0,-0.9,0.2,-2.6,2,-2.6l5.3,0l0,3.1l3.6,0l0,-3.1l4.1,0l0,-4.9l-4.1,0l0,-2.2l-3.6,0l0,2Zm-5.5,21.4l0,9.8l3.7,0l0,-2.3l4.8,0l8.5,5.1l0,1.7l3.7,0l0,-8.5l-3.7,0l0,1.7L820.7,970c-0.6,-0.3,-1,-0.5,-1,-0.5c0,0,0.4,-0.2,1,-0.5l3.9,-2.1l0,1.7l3.7,0l0,-8.6l-3.7,0l0,1.8l-8.5,5.1l-4.8,0l0,-2.3Zm7.4,13.5c-4.7,0,-7.8,3.8,-7.8,8.5c0,4.7,3.1,8.5,7.8,8.5c4.7,0,7.9,-3.8,7.9,-8.5c0,-4.7,-3.2,-8.5,-7.9,-8.5m0,5.1c2.3,0,3.7,1.6,3.7,3.4c0,1.8,-1.4,3.4,-3.7,3.4c-2.2,0,-3.6,-1.6,-3.6,-3.4c0,-1.8,1.4,-3.4,3.6,-3.4m-2.2,15.2c-4.2,0,-5.6,2.3,-5.6,5c0,3.8,2.9,5,2.9,5l0,0.1c0,0,-0.2,0,-0.4,0l-0.4,0c-1.1,0,-1.7,0.7,-1.7,2l0,4.6l3.6,0l0,-1.2c0,-0.4,0.2,-0.6,0.6,-0.6l10.7,0l0,-7.1l-3.6,0l0,2l-2.7,0c-2.3,0,-4.6,-1.1,-4.6,-3.1c0,-1.1,0.6,-1.6,2,-1.6l8.9,0l0,-7.1l-3.6,0l0,2Zm1.2,21.4l0,4.8l1,0c2.6,0,3.3,4.9,8.1,4.9c3.7,0,5.7,-3.5,5.7,-6.7c0,-3.9,-2.4,-6.1,-2.4,-6.1l-3.4,2.8c0,0,1.2,1.4,1.2,2.8c0,1.1,-0.7,2,-1.7,2c-2.4,0,-3.1,-4.5,-7.1,-4.5Zm-6.4,4.7l4.3,0l0,-4.6l-4.3,0l0,4.6Z" class="g9_137" />
<path d="M579.4,988.4l152.7,0" class="g10_137" />
<path d="M582.7,1016.1l144.8,0" class="g11_137" />
<text 
x="449" 
y="984" 
dx="0,0,0,0" 
class="s10_137"
>我会准备</text>

<text 
x="732" 
y="984" 
dx="0" 
class="s10_137"
>。</text>

<text 
x="476" 
y="1014" 
dx="0,0,0,0,0,0,0,0,0,0,0,0,0,0,0" 
class="s11_137"
>Wǒ huì zhǔnbèi </text>

<text 
x="731" 
y="1014" 
dx="0" 
class="s11_137"
>.</text>

<text 
transform="matrix(1, 0.06, -0.06, 1, 381, 1053)"
dx="0,0,0,0,0,0,0,0,-0.3,0,0,-0.3,0,0,0,0,0,0,-0.2,0,0,0,0,0,0,0,0,0,0,-0.4,0,0,0,0,0,0,0,0,0,0,0,0,0,-0.2,0,0,0,0,-0.2,0,0,0,0,0,-0.1,0,0,0,0,0,-0.2,0,0,0" 
class="s12_137"
>See index for corresponding vocabulary or research another term.</text>

<path d="M88.6,825c0,0,-6.9,0,-6.9,6.8l0,128.6c0,0,0,6.9,6.9,6.9l300.5,0c0,0,6.8,0,6.8,-6.9l0,-128.6c0,0,0,-6.8,-6.8,-6.8Z" class="g12_137" />
<path d="M88.6,825c0,0,-6.9,0,-6.9,6.8l0,128.6c0,0,0,6.9,6.9,6.9l300.5,0c0,0,6.8,0,6.8,-6.9l0,-128.6c0,0,0,-6.8,-6.8,-6.8L88.6,825Z" class="g13_137" />
<text 
x="102" 
y="865" 
dx="0,0,0,0,0,0,0" 
class="s13_137"
>给朋友过生日开</text>

<text 
x="102" 
y="907" 
dx="0,0,0,0,0,0,0" 
class="s13_137"
>舞会，你会准备</text>

<text 
x="102" 
y="949" 
dx="0,0,0,0,0,0" 
class="s13_137"
>些什么东西？</text>

<text 
x="102" 
y="998" 
dx="0,0,0,0,0,0,0,0,0,0,0,0,0,0,0,0,0,0,0,0,0,0,0,0,0,0,0,0,0,0,0,0,0,0,0" 
class="s11_137"
>Gěi péngyou guò shēngrì kāi wǔhuì, </text>

<text 
x="102" 
y="1018" 
dx="0,0,0,0,0,0,0,0,0,0,0,0,0,0,0,0,0,0,0,0,0,0,0,0,0,0,0,0,0,0,0,0,0" 
class="s11_137"
>nǐ huì zhǔnbèi xiē shénme dōngxi?</text>

<text 
x="102" 
y="1042" 
dx="0,0,0,0,0,0,0,0,0,0,0,0,0,0,0,0,0,-0.2,0,0,0,-0.2,0,0,-0.3,0,0,0,0,0,0,0,0,0,0,0,-0.5,0" 
class="s12_137"
>What would you prepare for a friend's </text>

<text 
x="102" 
y="1057" 
dx="0,0,0,0,0,0,0,0,0,0,0,0,0,0,0" 
class="s12_137"
>birthday party?</text>

<path d="M777,459.8c43.8,0,79.3,-35.5,79.3,-79.3c0,-43.8,-35.5,-79.3,-79.3,-79.3c-43.8,0,-79.3,35.5,-79.3,79.3c0,43.8,35.5,79.3,79.3,79.3Z" class="g1_137" />
<path d="M777,459.8c43.8,0,79.3,-35.5,79.3,-79.3c0,-43.8,-35.5,-79.3,-79.3,-79.3c-43.8,0,-79.3,35.5,-79.3,79.3c0,43.8,35.5,79.3,79.3,79.3Z" class="g14_137" />
<path d="M732,354.6c0,4.7,3.5,8.1,8.3,8.1c2.3,0,6.7,-0.8,6.7,-3.1l0,-5.2l-6,0l0,2.9l2.5,0l0,1c0,0.9,-1.7,1.2,-2.7,1.2c-3.1,0,-4.8,-2.2,-4.8,-5.1c0,-2.9,1.7,-4.5,4.6,-4.5c1.4,0,2.5,0.4,2.5,1.2l0,1.1l3.5,0l0,-2.5c0,-2,-3.4,-3.1,-6.3,-3.1c-4.8,0,-8.3,3.3,-8.3,8m17.1,7.9l12.2,0l0,-4.6l-3.2,0l0,1.5l-3.4,0l0,-3.3l4.6,0l0,-3l-4.6,0l0,-3.2l3.1,0l0,1.6l3.3,0l0,-4.6l-12,0l0,2.8l1.7,0l0,9.9l-1.7,0Zm17.1,0l7.4,0l0,-2.9l-1.7,0l0,-9.7l1.8,0l0,2.2l3.3,0l0,-5.2l-14.2,0l0,5.2l3.3,0l0,-2.2l1.9,0l0,9.7l-1.8,0Z" class="g15_137" />
<path d="M709.5,387.7l11.6,0l0,-3.8l-3.2,0l0,-6.7l2.5,0c1.6,0,2.1,0.4,2.7,1.4l3.9,7.1c0.8,1.6,1.5,2,3.8,2l3.2,0l0,-3.8l-0.9,0c-0.9,0,-1.4,-0.2,-1.8,-0.9l-3.2,-5.7c-0.5,-1,-1.3,-1.4,-1.3,-1.4l0,-0.1c3.1,-1.1,5.1,-3.8,5.1,-7.6c0,-3.9,-2,-6.4,-5,-7.4c-1.6,-0.4,-3.2,-0.5,-5.2,-0.5l-12.2,0l0,3.8l3.3,0l0,19.8l-3.3,0Zm8.4,-14.6l0,-8.8l3.7,0c1.3,0,2.3,0.2,3.1,0.5c1.5,0.6,2.2,2,2.2,3.8c0,3,-1.8,4.5,-4.4,4.5Zm18.5,4.8c0,5.6,4,10.3,10.6,10.3c4.9,0,7.9,-2.8,7.9,-2.8L753,382c0,0,-2.5,2.1,-5.7,2.1c-3,0,-5.6,-1.9,-5.9,-5.5l13.7,0c0,0,0.1,-1.1,0.1,-1.7c0,-5.2,-3.1,-9.4,-8.8,-9.4c-5.9,0,-10,4.3,-10,10.4m5.1,-2.2c0.5,-2.6,2.3,-4.4,4.8,-4.4c2.1,0,3.7,1.6,3.8,4.4Zm16.2,6.5c0,4,3.2,6,6.5,6c4.6,0,6.3,-3.8,6.3,-3.8c0,0,-0.1,0.4,-0.1,1l0,0.2c0,1.2,0.7,2.1,2.5,2.1l4.7,0l0,-3.6l-1.8,0c-0.5,0,-0.8,-0.3,-0.8,-0.9l0,-7.9c0,-5,-2.9,-7.8,-8.2,-7.8c-4.7,0,-7.8,2.5,-7.8,2.5l1.8,3.4c0,0,2.7,-1.9,5.6,-1.9c2,0,3.6,0.9,3.6,3.4l0,0.6l-1.2,0c-3.2,0,-11.1,0.7,-11.1,6.7m4.9,-0.4c0,-3,4.7,-3.3,6.7,-3.3l0.8,0l0,0.7c0,2.5,-1.9,5.3,-4.6,5.3c-1.8,0,-2.9,-1.2,-2.9,-2.7m18.6,-0.3c0,5.3,2.9,6.4,6.1,6.4c0.9,0,1.7,-0.1,1.7,-0.1l0,-4c0,0,-0.3,0.1,-0.9,0.1c-1.6,0,-2,-1,-2,-2.7l0,-20.9l-7.9,0l0,3.6l3,0Z" class="g15_137" />
<path d="M710,394l0.6,0l1.5,6.2l2.1,0l0.9,-3.9c0.1,-0.3,0.2,-0.8,0.2,-0.8c0,0,0,0.5,0.1,0.8l1,3.9l2.1,0l1.4,-6.2l0.7,0l0,-1.3l-3.4,0l0,1.3l0.9,0l-0.7,3.3c-0.1,0.4,-0.1,0.8,-0.1,0.8c0,0,0,-0.4,-0.1,-0.8L716,392.7l-1.4,0l-1.2,4.6c-0.1,0.4,-0.1,0.8,-0.1,0.8l-0.1,0c0,0,0,-0.4,-0.1,-0.8L712.4,394l0.9,0l0,-1.3l-3.3,0Zm11.2,6.2l3.6,0l0,-1.4l-0.9,0l0,-4.8l0.9,0l0,-1.3l-3.6,0l0,1.3l0.9,0l0,4.8l-0.9,0Zm6,0l3.5,0l0,-1.4l-0.8,0l0,-4.7l0.9,0l0,1.1l1.5,0l0,-2.5l-6.8,0l0,2.5l1.6,0l0,-1.1l0.9,0l0,4.7l-0.8,0Zm5.9,0l3.6,0l0,-1.4l-0.9,0l0,-1.6l2.7,0l0,1.6l-0.8,0l0,1.4l3.5,0l0,-1.4l-0.8,0l0,-4.8l0.8,0l0,-1.3l-3.5,0l0,1.3l0.8,0l0,1.7l-2.7,0l0,-1.7l0.9,0l0,-1.3l-3.6,0l0,1.3l0.8,0l0,4.8l-0.8,0Z" class="g15_137" />
<path d="M745.1,400.2c0,4.3,3.3,7.6,7.9,7.6c2,0,6,-0.6,6,-2.9l0,-2.4l-3.3,0l0,1.2c0,0.9,-1.8,1,-2.5,1c-2.4,0,-4.2,-1.7,-4.2,-4.7c0,-2.8,1.6,-4.3,4,-4.3c1,0,2.5,0.2,2.5,1l0,1.2l3.3,0l0,-2.4c0,-2.4,-4.1,-2.9,-5.9,-2.9c-4.4,0,-7.8,3.1,-7.8,7.6m15.8,7.4l7,0l0,-2.7l-1.7,0l0,-3.2l5.3,0l0,3.2l-1.6,0l0,2.7l7,0l0,-2.7l-1.7,0l0,-9.4l1.7,0l0,-2.7l-7,0l0,2.7l1.6,0l0,3.3l-5.3,0l0,-3.3l1.7,0l0,-2.7l-7,0l0,2.7l1.7,0l0,9.4l-1.7,0Zm18,0l7,0l0,-2.7l-1.6,0l0,-9.4l1.6,0l0,-2.7l-7,0l0,2.7l1.7,0l0,9.4l-1.7,0Zm9.1,0l7,0l0,-2.7l-1.7,0l0,-5c0,-0.6,-0.1,-1.6,-0.1,-1.6l0.1,0c0,0,0.2,0.9,0.6,1.5l4.6,7.8l3.8,0l0,-12.1l1.6,0l0,-2.7l-7.1,0l0,2.7l1.8,0l0,5c0,0.7,0.1,1.7,0.1,1.7l-0.1,0c0,0,-0.3,-1,-0.6,-1.6l-4.7,-7.8l-5.3,0l0,2.7l1.6,0l0,9.4l-1.6,0Zm17.7,0l11.6,0l0,-4.4l-3.1,0l0,1.5l-3.1,0l0,-3.1l4.3,0l0,-2.9l-4.3,0l0,-3l2.9,0l0,1.5l3.1,0l0,-4.4l-11.4,0l0,2.7l1.7,0l0,9.4l-1.7,0Zm13.4,-5.3l0,1.9c0,2.4,2.7,3.6,5.5,3.6c2.8,0,5.7,-1.2,5.7,-4.6c0,-2.8,-2.3,-3.7,-4.5,-4.5c-1.4,-0.5,-2.6,-0.9,-2.6,-1.9c0,-0.8,0.8,-1,1.6,-1c0.9,0,1.7,0.3,1.7,0.9l0,0.9l3.3,0l0,-2.2c0,-1.9,-2.5,-2.8,-5,-2.8c-2.6,0,-5.3,1,-5.3,4.3c0,2.7,1.9,3.7,3.9,4.4c1.5,0.6,3.2,1,3.2,2.1c0,0.8,-0.9,1.2,-2,1.2c-1.2,0,-2.2,-0.4,-2.2,-1.2l0,-1.1Zm13,5.3l11.6,0l0,-4.4l-3.1,0l0,1.5l-3.1,0l0,-3.1l4.3,0l0,-2.9l-4.3,0l0,-3l2.9,0l0,1.5l3.1,0l0,-4.4l-11.4,0l0,2.7l1.7,0l0,9.4l-1.7,0Z" class="g15_137" />
<image preserveAspectRatio="none" x="552" y="761" width="117" height="153" xlink:href="137/img/5.png" />
<path d="M553.3,914.2l114,0l0,-151.7l-114,0l0,151.7Z" class="g16_137" />
<image preserveAspectRatio="none" x="673" y="762" width="111" height="154" xlink:href="137/img/6.png" />
<path d="M674.8,914.2l107.6,0l0,-150.9l-107.6,0l0,150.9Z" class="g16_137" />
<image preserveAspectRatio="none" x="416" y="761" width="131" height="155" xlink:href="137/img/7.png" />
<path d="M417.3,914.2l127.8,0l0,-151.6l-127.8,0l0,151.6Z" class="g17_137" />
<g clip-path="url(#c0_137)">
<path d="M-17.5,1209.2l58,0l0,-1222.1l-58,0l0,1222.1Z" class="g18_137" />
</g>
<text 
transform="matrix(0, -1, 1, 0, 31, 1173)"
dx="0,1,1,1" 
class="s14_137"
>116 </text>

<text 
transform="matrix(0, -1, 1, 0, 31, 1132)"
dx="0,1,1,0.8,1,1,0.9,1,0.8,1,1,1,1,1,1,1,1,1,1,1,1" 
class="s14_137"
>Integrated Chinese 2 </text>

<text 
transform="matrix(0, -1, 1, 0, 31, 992)"
dx="0,1" 
class="s14_137"
>| </text>

<text 
transform="matrix(0, -1, 1, 0, 31, 978)"
dx="0,-0.2,0.7,0.7,1,1,1,1" 
class="s14_137"
>Textbook</text>



<!-- Any embedded fonts defined here -->
<style type="text/css" ><![CDATA[

@font-face {
	font-family: GentiumBookBasic-BoldIta_402;
	src: url("fonts/GentiumBookBasic-BoldIta_402.woff") format("woff");
}

@font-face {
	font-family: STKaiti-SC-Regular_3nm;
	src: url("fonts/STKaiti-SC-Regular_3nm.woff") format("woff");
}

@font-face {
	font-family: STKaiti-SC-Bold_3mi;
	src: url("fonts/STKaiti-SC-Bold_3mi.woff") format("woff");
}

@font-face {
	font-family: LibreFranklin-Regular_3_3;
	src: url("fonts/LibreFranklin-Regular_3_3.woff") format("woff");
}

@font-face {
	font-family: LibreFranklin-Medium_3-n;
	src: url("fonts/LibreFranklin-Medium_3-n.woff") format("woff");
}

@font-face {
	font-family: GentiumBookBasic-Italic_3mn;
	src: url("fonts/GentiumBookBasic-Italic_3mn.woff") format("woff");
}

@font-face {
	font-family: LibreFranklin-Bold_3-r;
	src: url("fonts/LibreFranklin-Bold_3-r.woff") format("woff");
}

@font-face {
	font-family: LibreFranklin-SemiBold_3-w;
	src: url("fonts/LibreFranklin-SemiBold_3-w.woff") format("woff");
}

]]></style>

</svg>
