<?xml version="1.0" encoding="UTF-8" standalone="no"?>
<!DOCTYPE svg PUBLIC "-//W3C//DTD SVG 1.1//EN"
"http://www.w3.org/Graphics/SVG/1.1/DTD/svg11.dtd">


<!-- Page 383 -->
<svg x="0" y="0" width="921" height="1196" viewBox="0 0 921 1196" version="1.1" xmlns="http://www.w3.org/2000/svg" xmlns:xlink="http://www.w3.org/1999/xlink"
style="display: block;margin-left: auto;margin-right: auto;">
<defs>

<style type="text/css"><![CDATA[

.g1_383{
fill: #BDBEC1;
}
.g2_383{
fill: #F0F1F2;
}
.g3_383{
fill: none;
stroke: #BDBEC1;
stroke-width: 0.38194445;
stroke-linecap: butt;
stroke-linejoin: miter;
}
.g4_383{
fill: none;
stroke: #DADBDD;
stroke-width: 1.5277778;
stroke-linecap: butt;
stroke-linejoin: miter;
}
.g5_383{
fill: none;
stroke: #BDBEC1;
stroke-width: 1.5277778;
stroke-linecap: butt;
stroke-linejoin: miter;
}
.g6_383{
fill: #57585A;
stroke: #B2B3B7;
stroke-width: 1.5277778;
stroke-linecap: butt;
stroke-linejoin: miter;
stroke-miterlimit: 4;
}

.s1_383{
font-size: 14.51px;
font-family: LibreFranklin-SemiBold_4gw;
fill: #57585A;
}
.s2_383{
font-size: 19.86px;
font-family: LibreFranklin-SemiBold_4gw;
fill: #3F3F40;
}
.s3_383{
font-size: 15.28px;
font-family: LibreFranklin-Regular_4h1;
fill: #3F3F40;
}
.s4_383{
font-size: 24.44px;
font-family: STKaitiSC-Regular_44y;
fill: #57585A;
}
.s5_383{
font-size: 14.90px;
font-family: GentiumBookBasic-Italic_3mn;
fill: #3F3F40;
}
.s6_383{
font-size: 14.51px;
font-family: LibreFranklin-Regular_4h1;
fill: #3F3F40;
}
.s7_383{
font-size: 14.51px;
font-family: LibreFranklin-SemiBold_4gw;
fill: #77787B;
}
.s8_383{
font-size: 24.44px;
font-family: STKaitiTC-Regular_4h8;
fill: #57585A;
}
.s9_383{
font-size: 10.69px;
font-family: LibreFranklin-SemiBold_4gw;
fill: #FFFFFF;
}

]]></style>

</defs>
<path d="M0,0
L0,1196
L921,1196
L921,0 Z " 
fill="#FFFFFF" stroke="none" />
<path d="M55,95l811.3,0l0,42.7L55,137.7L55,95Z" class="g1_383" />
<path d="M55,179.9l178.8,0l0,42.2L55,222.1l0,-42.2Zm178.8,0l196.9,0l0,42.2l-196.9,0l0,-42.2Zm196.9,0l196.9,0l0,42.2l-196.9,0l0,-42.2Zm196.9,0l104.5,0l0,42.2l-104.5,0l0,-42.2Zm104.5,0l70.4,0l0,42.2l-70.4,0l0,-42.2Zm70.4,0l63.8,0l0,42.2l-63.8,0l0,-42.2ZM55,264.2l178.8,0l0,42.2L55,306.4l0,-42.2Zm178.8,0l196.9,0l0,42.2l-196.9,0l0,-42.2Zm196.9,0l196.9,0l0,42.2l-196.9,0l0,-42.2Zm196.9,0l104.5,0l0,42.2l-104.5,0l0,-42.2Zm104.5,0l70.4,0l0,42.2l-70.4,0l0,-42.2Zm70.4,0l63.8,0l0,42.2l-63.8,0l0,-42.2ZM55,351.5l178.8,0l0,46.8L55,398.3l0,-46.8Zm178.8,0l196.9,0l0,46.8l-196.9,0l0,-46.8Zm196.9,0l196.9,0l0,46.8l-196.9,0l0,-46.8Zm196.9,0l104.5,0l0,46.8l-104.5,0l0,-46.8Zm104.5,0l70.4,0l0,46.8l-70.4,0l0,-46.8Zm70.4,0l63.8,0l0,46.8l-63.8,0l0,-46.8ZM55,440.5l178.8,0l0,46.8L55,487.3l0,-46.8Zm178.8,0l196.9,0l0,46.8l-196.9,0l0,-46.8Zm196.9,0l196.9,0l0,46.8l-196.9,0l0,-46.8Zm196.9,0l104.5,0l0,46.8l-104.5,0l0,-46.8Zm104.5,0l70.4,0l0,46.8l-70.4,0l0,-46.8Zm70.4,0l63.8,0l0,46.8l-63.8,0l0,-46.8ZM55,534.2l178.8,0l0,42.1L55,576.3l0,-42.1Zm178.8,0l196.9,0l0,42.1l-196.9,0l0,-42.1Zm196.9,0l196.9,0l0,42.1l-196.9,0l0,-42.1Zm196.9,0l104.5,0l0,42.1l-104.5,0l0,-42.1Zm104.5,0l70.4,0l0,42.1l-70.4,0l0,-42.1Zm70.4,0l63.8,0l0,42.1l-63.8,0l0,-42.1ZM55,618.5l178.8,0l0,46.8L55,665.3l0,-46.8Zm178.8,0l196.9,0l0,46.8l-196.9,0l0,-46.8Zm196.9,0l196.9,0l0,46.8l-196.9,0l0,-46.8Zm196.9,0l104.5,0l0,46.8l-104.5,0l0,-46.8Zm104.5,0l70.4,0l0,46.8l-70.4,0l0,-46.8Zm70.4,0l63.8,0l0,46.8l-63.8,0l0,-46.8ZM55,712.2l178.8,0l0,66.7L55,778.9l0,-66.7Zm178.8,0l196.9,0l0,66.7l-196.9,0l0,-66.7Zm196.9,0l196.9,0l0,66.7l-196.9,0l0,-66.7Zm196.9,0l104.5,0l0,66.7l-104.5,0l0,-66.7Zm104.5,0l70.4,0l0,66.7l-70.4,0l0,-66.7Zm70.4,0l63.8,0l0,66.7l-63.8,0l0,-66.7ZM55,821l178.8,0l0,42.2L55,863.2L55,821Zm178.8,0l196.9,0l0,42.2l-196.9,0l0,-42.2Zm196.9,0l196.9,0l0,42.2l-196.9,0l0,-42.2Zm196.9,0l104.5,0l0,42.2l-104.5,0l0,-42.2Zm104.5,0l70.4,0l0,42.2l-70.4,0l0,-42.2Zm70.4,0l63.8,0l0,42.2l-63.8,0l0,-42.2ZM55,905.4l178.8,0l0,42.1L55,947.5l0,-42.1Zm178.8,0l196.9,0l0,42.1l-196.9,0l0,-42.1Zm196.9,0l196.9,0l0,42.1l-196.9,0l0,-42.1Zm196.9,0l104.5,0l0,42.1l-104.5,0l0,-42.1Zm104.5,0l70.4,0l0,42.1l-70.4,0l0,-42.1Zm70.4,0l63.8,0l0,42.1l-63.8,0l0,-42.1ZM55,1014.2l178.8,0l0,42.8L55,1057l0,-42.8Zm178.8,0l196.9,0l0,42.8l-196.9,0l0,-42.8Zm196.9,0l196.9,0l0,42.8l-196.9,0l0,-42.8Zm196.9,0l104.5,0l0,42.8l-104.5,0l0,-42.8Zm104.5,0l70.4,0l0,42.8l-70.4,0l0,-42.8Zm70.4,0l63.8,0l0,42.8l-63.8,0l0,-42.8Z" class="g2_383" />
<path d="M55,137.7l178.8,0" class="g3_383" />
<path d="M233.8,137.7l196.9,0" class="g3_383" />
<path d="M430.7,137.7l196.9,0" class="g3_383" />
<path d="M627.6,137.7l104.5,0" class="g3_383" />
<path d="M732.1,137.7l70.4,0" class="g3_383" />
<path d="M802.5,137.7l63.8,0" class="g3_383" />
<path d="M55,179.9l178.8,0" class="g3_383" />
<path d="M233.8,179.9l196.9,0" class="g3_383" />
<path d="M430.7,179.9l196.9,0" class="g3_383" />
<path d="M627.6,179.9l104.5,0" class="g3_383" />
<path d="M732.1,179.9l70.4,0" class="g3_383" />
<path d="M802.5,179.9l63.8,0" class="g3_383" />
<path d="M55,222.1l178.8,0" class="g3_383" />
<path d="M233.8,222.1l196.9,0" class="g3_383" />
<path d="M430.7,222.1l196.9,0" class="g3_383" />
<path d="M627.6,222.1l104.5,0" class="g3_383" />
<path d="M732.1,222.1l70.4,0" class="g3_383" />
<path d="M802.5,222.1l63.8,0" class="g3_383" />
<path d="M55,264.2l178.8,0" class="g3_383" />
<path d="M233.8,264.2l196.9,0" class="g3_383" />
<path d="M430.7,264.2l196.9,0" class="g3_383" />
<path d="M627.6,264.2l104.5,0" class="g3_383" />
<path d="M732.1,264.2l70.4,0" class="g3_383" />
<path d="M802.5,264.2l63.8,0" class="g3_383" />
<path d="M55,306.4l178.8,0" class="g3_383" />
<path d="M233.8,306.4l196.9,0" class="g3_383" />
<path d="M430.7,306.4l196.9,0" class="g3_383" />
<path d="M627.6,306.4l104.5,0" class="g3_383" />
<path d="M732.1,306.4l70.4,0" class="g3_383" />
<path d="M802.5,306.4l63.8,0" class="g3_383" />
<path d="M55,351.5l178.8,0" class="g3_383" />
<path d="M233.8,351.5l196.9,0" class="g3_383" />
<path d="M430.7,351.5l196.9,0" class="g3_383" />
<path d="M627.6,351.5l104.5,0" class="g3_383" />
<path d="M732.1,351.5l70.4,0" class="g3_383" />
<path d="M802.5,351.5l63.8,0" class="g3_383" />
<path d="M55,398.3l178.8,0" class="g3_383" />
<path d="M233.8,398.3l196.9,0" class="g3_383" />
<path d="M430.7,398.3l196.9,0" class="g3_383" />
<path d="M627.6,398.3l104.5,0" class="g3_383" />
<path d="M732.1,398.3l70.4,0" class="g3_383" />
<path d="M802.5,398.3l63.8,0" class="g3_383" />
<path d="M55,440.5l178.8,0" class="g3_383" />
<path d="M233.8,440.5l196.9,0" class="g3_383" />
<path d="M430.7,440.5l196.9,0" class="g3_383" />
<path d="M627.6,440.5l104.5,0" class="g3_383" />
<path d="M732.1,440.5l70.4,0" class="g3_383" />
<path d="M802.5,440.5l63.8,0" class="g3_383" />
<path d="M55,487.3l178.8,0" class="g3_383" />
<path d="M233.8,487.3l196.9,0" class="g3_383" />
<path d="M430.7,487.3l196.9,0" class="g3_383" />
<path d="M627.6,487.3l104.5,0" class="g3_383" />
<path d="M732.1,487.3l70.4,0" class="g3_383" />
<path d="M802.5,487.3l63.8,0" class="g3_383" />
<path d="M55,534.2l178.8,0" class="g3_383" />
<path d="M233.8,534.2l196.9,0" class="g3_383" />
<path d="M430.7,534.2l196.9,0" class="g3_383" />
<path d="M627.6,534.2l104.5,0" class="g3_383" />
<path d="M732.1,534.2l70.4,0" class="g3_383" />
<path d="M802.5,534.2l63.8,0" class="g3_383" />
<path d="M55,576.3l178.8,0" class="g3_383" />
<path d="M233.8,576.3l196.9,0" class="g3_383" />
<path d="M430.7,576.3l196.9,0" class="g3_383" />
<path d="M627.6,576.3l104.5,0" class="g3_383" />
<path d="M732.1,576.3l70.4,0" class="g3_383" />
<path d="M802.5,576.3l63.8,0" class="g3_383" />
<path d="M55,618.5l178.8,0" class="g3_383" />
<path d="M233.8,618.5l196.9,0" class="g3_383" />
<path d="M430.7,618.5l196.9,0" class="g3_383" />
<path d="M627.6,618.5l104.5,0" class="g3_383" />
<path d="M732.1,618.5l70.4,0" class="g3_383" />
<path d="M802.5,618.5l63.8,0" class="g3_383" />
<path d="M55,665.3l178.8,0" class="g3_383" />
<path d="M233.8,665.3l196.9,0" class="g3_383" />
<path d="M430.7,665.3l196.9,0" class="g3_383" />
<path d="M627.6,665.3l104.5,0" class="g3_383" />
<path d="M732.1,665.3l70.4,0" class="g3_383" />
<path d="M802.5,665.3l63.8,0" class="g3_383" />
<path d="M55,712.2l178.8,0" class="g3_383" />
<path d="M233.8,712.2l196.9,0" class="g3_383" />
<path d="M430.7,712.2l196.9,0" class="g3_383" />
<path d="M627.6,712.2l104.5,0" class="g3_383" />
<path d="M732.1,712.2l70.4,0" class="g3_383" />
<path d="M802.5,712.2l63.8,0" class="g3_383" />
<path d="M55,778.9l178.8,0" class="g3_383" />
<path d="M233.8,778.9l196.9,0" class="g3_383" />
<path d="M430.7,778.9l196.9,0" class="g3_383" />
<path d="M627.6,778.9l104.5,0" class="g3_383" />
<path d="M732.1,778.9l70.4,0" class="g3_383" />
<path d="M802.5,778.9l63.8,0" class="g3_383" />
<path d="M55,821l178.8,0" class="g3_383" />
<path d="M233.8,821l196.9,0" class="g3_383" />
<path d="M430.7,821l196.9,0" class="g3_383" />
<path d="M627.6,821l104.5,0" class="g3_383" />
<path d="M732.1,821l70.4,0" class="g3_383" />
<path d="M802.5,821l63.8,0" class="g3_383" />
<path d="M55,863.2l178.8,0" class="g3_383" />
<path d="M233.8,863.2l196.9,0" class="g3_383" />
<path d="M430.7,863.2l196.9,0" class="g3_383" />
<path d="M627.6,863.2l104.5,0" class="g3_383" />
<path d="M732.1,863.2l70.4,0" class="g3_383" />
<path d="M802.5,863.2l63.8,0" class="g3_383" />
<path d="M55,905.4l178.8,0" class="g3_383" />
<path d="M233.8,905.4l196.9,0" class="g3_383" />
<path d="M430.7,905.4l196.9,0" class="g3_383" />
<path d="M627.6,905.4l104.5,0" class="g3_383" />
<path d="M732.1,905.4l70.4,0" class="g3_383" />
<path d="M802.5,905.4l63.8,0" class="g3_383" />
<path d="M55,947.5l178.8,0" class="g3_383" />
<path d="M233.8,947.5l196.9,0" class="g3_383" />
<path d="M430.7,947.5l196.9,0" class="g3_383" />
<path d="M627.6,947.5l104.5,0" class="g3_383" />
<path d="M732.1,947.5l70.4,0" class="g3_383" />
<path d="M802.5,947.5l63.8,0" class="g3_383" />
<path d="M55,1014.2l178.8,0" class="g3_383" />
<path d="M233.8,1014.2l196.9,0" class="g3_383" />
<path d="M430.7,1014.2l196.9,0" class="g3_383" />
<path d="M627.6,1014.2l104.5,0" class="g3_383" />
<path d="M732.1,1014.2l70.4,0" class="g3_383" />
<path d="M802.5,1014.2l63.8,0" class="g3_383" />
<path d="M55,95l178.8,0" class="g4_383" />
<path d="M233.8,95l196.9,0" class="g4_383" />
<path d="M430.7,95l196.9,0" class="g4_383" />
<path d="M627.6,95l104.5,0" class="g4_383" />
<path d="M732.1,95l70.4,0" class="g4_383" />
<path d="M802.5,95l63.8,0" class="g4_383" />
<path d="M55,1057l178.8,0" class="g5_383" />
<path d="M233.8,1057l196.9,0" class="g5_383" />
<path d="M430.7,1057l196.9,0" class="g5_383" />
<path d="M627.6,1057l104.5,0" class="g5_383" />
<path d="M732.1,1057l70.4,0" class="g5_383" />
<path d="M802.5,1057l63.8,0" class="g5_383" />
<text 
x="61" 
y="82" 
dx="0,0,0,0,0,0,0" 
class="s1_383"
>English</text>

<text 
x="239" 
y="82" 
dx="0,0,0,0,0,0,0,0,0,0" 
class="s1_383"
>Simplified</text>

<text 
x="436" 
y="82" 
dx="0,-1.2,-0.1,0,0,0,0,0,0,0,0" 
class="s1_383"
>Traditional</text>

<text 
x="633" 
y="82" 
dx="0,0,0,0,0,0" 
class="s1_383"
>Pinyin</text>

<text 
x="738" 
y="75" 
dx="0,0,0,0,0,0,-0.2,0" 
class="s1_383"
>Part of </text>

<text 
x="738" 
y="88" 
dx="0,0,0,0,0,0" 
class="s1_383"
>Speech</text>

<text 
x="808" 
y="81" 
dx="0,0,0,0,0,0" 
class="s1_383"
>Lesson</text>

<text 
x="457" 
y="126" 
dx="0" 
class="s2_383"
>I</text>

<text 
x="61" 
y="166" 
dx="0,0,0,0,0" 
class="s3_383"
>I, me</text>

<text 
x="239" 
y="167" 
dx="0" 
class="s4_383"
>我</text>

<text 
x="633" 
y="165" 
dx="0,0.2" 
class="s5_383"
>wǒ</text>

<text 
x="738" 
y="165" 
dx="0,0" 
class="s6_383"
>pr</text>

<text 
x="808" 
y="165" 
dx="0" 
class="s7_383"
>1</text>

<text 
x="61" 
y="208" 
dx="0,0,0,0,0,0,0,0,-0.2" 
class="s3_383"
>ice skate</text>

<text 
x="239" 
y="209" 
dx="0,0" 
class="s4_383"
>滑冰</text>

<text 
x="436" 
y="209" 
dx="0,0" 
class="s8_383"
>滑冰</text>

<text 
x="633" 
y="207" 
dx="0,0.2,0.2,0.2,0.2,0.2,0.2,0.2" 
class="s5_383"
>huá bīng</text>

<text 
x="738" 
y="207" 
dx="0,-0.4" 
class="s6_383"
>vo</text>

<text 
x="808" 
y="207" 
dx="0,0" 
class="s7_383"
>11</text>

<text 
x="61" 
y="250" 
dx="0,0,0,0,0,0,-0.2,0" 
class="s3_383"
>iced tea</text>

<text 
x="239" 
y="251" 
dx="0,0" 
class="s4_383"
>冰茶</text>

<text 
x="436" 
y="251" 
dx="0,0" 
class="s8_383"
>冰茶</text>

<text 
x="633" 
y="249" 
dx="0,0.2,0.2,0.2,0.2,0.2,0.2" 
class="s5_383"
>bīngchá</text>

<text 
x="738" 
y="250" 
dx="0" 
class="s6_383"
>n</text>

<text 
x="808" 
y="250" 
dx="0,0" 
class="s7_383"
>12</text>

<text 
x="61" 
y="292" 
dx="0,0" 
class="s3_383"
>if</text>

<text 
x="239" 
y="294" 
dx="0,0" 
class="s4_383"
>要是</text>

<text 
x="633" 
y="291" 
dx="0,0.2,0.2,0.2,0.2,0.2" 
class="s5_383"
>yàoshi</text>

<text 
x="738" 
y="292" 
dx="0,0,0,0" 
class="s6_383"
>conj</text>

<text 
x="808" 
y="292" 
dx="0" 
class="s7_383"
>6</text>

<text 
x="61" 
y="336" 
dx="0,0" 
class="s3_383"
>if</text>

<text 
x="239" 
y="337" 
dx="0,0,0,0,0" 
class="s4_383"
>如果…的话</text>

<text 
x="436" 
y="337" 
dx="0,0,0,0,0" 
class="s8_383"
>如果…的話</text>

<text 
x="633" 
y="325" 
dx="0,0.2,0.2,0.2,0.2,0.2,0.2,0.2,0.2,0.2,0.2,0.2,0.2,0.2,0" 
class="s5_383"
>rúguǒ . . . de </text>

<text 
x="633" 
y="345" 
dx="0,0.2,0.2" 
class="s5_383"
>huà</text>

<text 
x="738" 
y="335" 
dx="0,0,0,0" 
class="s6_383"
>conj</text>

<text 
x="808" 
y="335" 
dx="0" 
class="s7_383"
>9</text>

<text 
x="61" 
y="372" 
dx="0,0,0,0,0,0,0,0,-0.2,0,0,-1,0,0,0,0,0,0,0" 
class="s3_383"
>immediately, right </text>

<text 
x="61" 
y="392" 
dx="0,0,0,0" 
class="s3_383"
>away</text>

<text 
x="239" 
y="383" 
dx="0,0" 
class="s4_383"
>马上</text>

<text 
x="436" 
y="383" 
dx="0,0" 
class="s8_383"
>馬上</text>

<text 
x="633" 
y="381" 
dx="0,0.2,0.2,0.2,0.2,0.2,0.2" 
class="s5_383"
>mǎshàng</text>

<text 
x="738" 
y="381" 
dx="0,0,0" 
class="s6_383"
>adv</text>

<text 
x="808" 
y="381" 
dx="0,0" 
class="s7_383"
>19</text>

<text 
x="61" 
y="426" 
dx="0,0,0,0,-0.2,0,0,0,0,0" 
class="s3_383"
>impression</text>

<text 
x="239" 
y="428" 
dx="0,0" 
class="s4_383"
>印象</text>

<text 
x="436" 
y="428" 
dx="0,0" 
class="s8_383"
>印象</text>

<text 
x="633" 
y="425" 
dx="0,0.2,0.2,0.2,0.2,0.2,0.2,0.2" 
class="s5_383"
>yìnxiàng</text>

<text 
x="738" 
y="426" 
dx="0" 
class="s6_383"
>n</text>

<text 
x="808" 
y="426" 
dx="0,0" 
class="s7_383"
>16</text>

<text 
x="61" 
y="461" 
dx="0,0,0,0,-0.2,-0.4,-0.5,0,0,0,0,0,0,0,0,0" 
class="s3_383"
>improve, raise, </text>

<text 
x="61" 
y="481" 
dx="0,0,0,0,0,0,-0.2,0,0" 
class="s3_383"
>heighten,</text>

<text 
x="239" 
y="472" 
dx="0,0" 
class="s4_383"
>提高</text>

<text 
x="633" 
y="470" 
dx="0,0.2,0.2,0.2,0.2" 
class="s5_383"
>tígāo</text>

<text 
x="738" 
y="470" 
dx="0" 
class="s6_383"
>v</text>

<text 
x="808" 
y="470" 
dx="0,0" 
class="s7_383"
>18</text>

<text 
x="61" 
y="508" 
dx="0,0,0,0,0,0,-0.2,0,0,0,0,0,0,0,0,0,0,0,0,0" 
class="s3_383"
>in a terrible mess, </text>

<text 
x="61" 
y="528" 
dx="0,0,0,0,0,-0.2,0,0,0,0,0,0" 
class="s3_383"
>how terrible</text>

<text 
x="239" 
y="519" 
dx="0,0" 
class="s4_383"
>糟糕</text>

<text 
x="633" 
y="517" 
dx="0,0.2,0.2,0.2,0.2,0.2" 
class="s5_383"
>zāogāo</text>

<text 
x="738" 
y="517" 
dx="0,0,0" 
class="s6_383"
>adj</text>

<text 
x="808" 
y="517" 
dx="0,0" 
class="s7_383"
>11</text>

<text 
x="61" 
y="562" 
dx="0,0,0,0,0,0,0,0,0,0,0,0,0,-0.2,-0.4,0,0,0,0,0,0,0,0" 
class="s3_383"
>in addition to, besides</text>

<text 
x="239" 
y="564" 
dx="0,0,0,0,0" 
class="s4_383"
>除了…以外</text>

<text 
x="633" 
y="561" 
dx="0,0.2,0.2,0.2,0.2,0.2,0.2,0.2,0.2,0.2,0.2,0.2,0.2,0.2,0.2,0.2,0.2" 
class="s5_383"
>chúle . . . yǐwài</text>

<text 
x="738" 
y="562" 
dx="0,0,0,0" 
class="s6_383"
>conj</text>

<text 
x="808" 
y="562" 
dx="0" 
class="s7_383"
>8</text>

<text 
x="61" 
y="604" 
dx="0,0,0,0,0,0,0,0,0,0,0,0,0,0,0,0,0,0" 
class="s3_383"
>in that case, then</text>

<text 
x="239" 
y="606" 
dx="0" 
class="s4_383"
>那</text>

<text 
x="633" 
y="603" 
dx="0,0.2" 
class="s5_383"
>nà</text>

<text 
x="738" 
y="604" 
dx="0,0,0,0" 
class="s6_383"
>conj</text>

<text 
x="808" 
y="604" 
dx="0" 
class="s7_383"
>4</text>

<text 
x="61" 
y="639" 
dx="0,0,0,0,0,0,0,0,0,0,0,0,0,0,0,-0.2,0" 
class="s3_383"
>in the middle of </text>

<text 
x="61" 
y="659" 
dx="0,0,0,0,0,0,0,0,0,0,0,-0.1,0,0,0,0,0" 
class="s3_383"
>(doing something)</text>

<text 
x="239" 
y="650" 
dx="0,0" 
class="s4_383"
>正在</text>

<text 
x="633" 
y="648" 
dx="0,0.2,0.2,0.2,0.2,0.2,0.2,0.2" 
class="s5_383"
>zhèngzài</text>

<text 
x="738" 
y="648" 
dx="0,0,0" 
class="s6_383"
>adv</text>

<text 
x="808" 
y="648" 
dx="0" 
class="s7_383"
>8</text>

<text 
x="61" 
y="686" 
dx="0,0,0,0,0,0,0,0,0,0,0,0,0,0,0,0,-0.2,0,0,0" 
class="s3_383"
>(indicating degree) </text>

<text 
x="61" 
y="706" 
dx="0,0,-0.4,0,0,0,0,0" 
class="s3_383"
>so, such</text>

<text 
x="239" 
y="697" 
dx="0,0" 
class="s4_383"
>那么</text>

<text 
x="436" 
y="697" 
dx="0,0" 
class="s8_383"
>那麼</text>

<text 
x="633" 
y="695" 
dx="0,0.2,0.2,0.2" 
class="s5_383"
>nàme</text>

<text 
x="738" 
y="695" 
dx="0,0" 
class="s6_383"
>pr</text>

<text 
x="808" 
y="695" 
dx="0,0" 
class="s7_383"
>11</text>

<text 
x="61" 
y="733" 
dx="0,0,0,0,0,0,0,0,0,0,0,0,0,0,0,0,0,0,0,0,0,0,0,0,0" 
class="s3_383"
>(indicating disposition, </text>

<text 
x="61" 
y="752" 
dx="0,0,0,0,0,0,-0.1,0,0,0,0,0,0,0,0,0,0,0,-0.1,0,0,0,0" 
class="s3_383"
>arrangement, or settle-</text>

<text 
x="61" 
y="772" 
dx="0,0,0,0,0,0,-0.2,0,0,0,0,0,-0.1,0,0,0,0,0" 
class="s3_383"
>ment of something)</text>

<text 
x="239" 
y="754" 
dx="0" 
class="s4_383"
>把</text>

<text 
x="633" 
y="752" 
dx="0,0.2" 
class="s5_383"
>bǎ</text>

<text 
x="738" 
y="752" 
dx="0,0,-0.2,0" 
class="s6_383"
>prep</text>

<text 
x="808" 
y="752" 
dx="0,0" 
class="s7_383"
>15</text>

<text 
x="61" 
y="807" 
dx="0,0,0,0,0,0" 
class="s3_383"
>inside</text>

<text 
x="239" 
y="808" 
dx="0,0" 
class="s4_383"
>里边</text>

<text 
x="436" 
y="808" 
dx="0,0" 
class="s8_383"
>裡邊</text>

<text 
x="633" 
y="806" 
dx="0,0.2,0.2,0.2,0.2,0.2" 
class="s5_383"
>lǐbian</text>

<text 
x="738" 
y="806" 
dx="0" 
class="s6_383"
>n</text>

<text 
x="808" 
y="806" 
dx="0,0" 
class="s7_383"
>13</text>

<text 
x="61" 
y="849" 
dx="0,0,0,0,0,0,0,0,0,0,0,0,0,0,0,0,-0.2" 
class="s3_383"
>insurance; secure</text>

<text 
x="239" 
y="850" 
dx="0,0" 
class="s4_383"
>保险</text>

<text 
x="436" 
y="850" 
dx="0,0" 
class="s8_383"
>保險</text>

<text 
x="633" 
y="848" 
dx="0,0.2,0.2,0.2,0.2,0.2,0.2" 
class="s5_383"
>bǎoxiǎn</text>

<text 
x="738" 
y="849" 
dx="0,0,0,0,0" 
class="s6_383"
>n/adj</text>

<text 
x="808" 
y="849" 
dx="0,0" 
class="s7_383"
>15</text>

<text 
x="61" 
y="891" 
dx="0,0,0,-0.2,0,-0.2,0,0" 
class="s3_383"
>interest</text>

<text 
x="239" 
y="893" 
dx="0,0" 
class="s4_383"
>兴趣</text>

<text 
x="436" 
y="893" 
dx="0,0" 
class="s8_383"
>興趣</text>

<text 
x="633" 
y="890" 
dx="0,0.2,0.2,0.2,0.2,0.2" 
class="s5_383"
>xìngqù</text>

<text 
x="738" 
y="891" 
dx="0" 
class="s6_383"
>n</text>

<text 
x="808" 
y="891" 
dx="0,0" 
class="s7_383"
>17</text>

<text 
x="61" 
y="933" 
dx="0,0,0,-0.2,0,-0.2,0,0,0,0,0" 
class="s3_383"
>interesting</text>

<text 
x="239" 
y="935" 
dx="0,0,0" 
class="s4_383"
>有意思</text>

<text 
x="633" 
y="932" 
dx="0,0.2,0.2,0.2,0.2,0.2,0.2,0.2" 
class="s5_383"
>yǒu yìsi</text>

<text 
x="738" 
y="933" 
dx="0,0,0" 
class="s6_383"
>adj</text>

<text 
x="808" 
y="933" 
dx="0" 
class="s7_383"
>4</text>

<text 
x="61" 
y="968" 
dx="0,0,0,0,-0.2,0,0,0,0,0,-0.2,0,0,0,0,0,0,0,0,0,0,0,0" 
class="s3_383"
>(interjectory particle </text>

<text 
x="61" 
y="988" 
dx="0,0,0,0,0,0,-0.2,0,0,0,-0.2,0,-0.2,0,0,0,0" 
class="s3_383"
>used to soften a </text>

<text 
x="61" 
y="1008" 
dx="0,0,0,0,0,0,0,0,0" 
class="s3_383"
>question)</text>

<text 
x="239" 
y="989" 
dx="0" 
class="s4_383"
>呀</text>

<text 
x="633" 
y="987" 
dx="0,0.2" 
class="s5_383"
>ya</text>

<text 
x="738" 
y="987" 
dx="0" 
class="s6_383"
>p</text>

<text 
x="808" 
y="987" 
dx="0" 
class="s7_383"
>5</text>

<text 
x="61" 
y="1042" 
dx="0,0,0,-0.2,0,0" 
class="s3_383"
>intern</text>

<text 
x="239" 
y="1044" 
dx="0,0" 
class="s4_383"
>实习</text>

<text 
x="436" 
y="1044" 
dx="0,0" 
class="s8_383"
>實習</text>

<text 
x="633" 
y="1041" 
dx="0,0.2,0.2,0.2,0.2" 
class="s5_383"
>shíxí</text>

<text 
x="738" 
y="1042" 
dx="0" 
class="s6_383"
>v</text>

<text 
x="808" 
y="1042" 
dx="0,0" 
class="s7_383"
>19</text>

<path d="M-17.5,1209.2l58,0l0,-1222.1l-58,0l0,1222.1Z" class="g6_383" />
<text 
transform="matrix(0, -1, 1, 0, 32, 1173)"
dx="0,0.6,0.6,0.6" 
class="s9_383"
>362 </text>

<text 
transform="matrix(0, -1, 1, 0, 32, 1133)"
dx="0,0.6,0.6,0.5,0.6,0.6,0.6,0.6,0.5,0.6,0.6,0.6,0.6,0.6,0.6,0.6,0.6,0.6,0.6,0.6,0.6" 
class="s9_383"
>Integrated Chinese 2 </text>

<text 
transform="matrix(0, -1, 1, 0, 32, 1005)"
dx="0,0.6" 
class="s9_383"
>| </text>

<text 
transform="matrix(0, -1, 1, 0, 32, 993)"
dx="0,-0.6,0.4,0.3,0.6,0.6,0.6,0.6" 
class="s9_383"
>Textbook</text>



<!-- Any embedded fonts defined here -->
<style type="text/css" ><![CDATA[

@font-face {
	font-family: LibreFranklin-SemiBold_4gw;
	src: url("fonts/LibreFranklin-SemiBold_4gw.woff") format("woff");
}

@font-face {
	font-family: LibreFranklin-Regular_4h1;
	src: url("fonts/LibreFranklin-Regular_4h1.woff") format("woff");
}

@font-face {
	font-family: STKaitiTC-Regular_4h8;
	src: url("fonts/STKaitiTC-Regular_4h8.woff") format("woff");
}

@font-face {
	font-family: STKaitiSC-Regular_44y;
	src: url("fonts/STKaitiSC-Regular_44y.woff") format("woff");
}

@font-face {
	font-family: GentiumBookBasic-Italic_3mn;
	src: url("fonts/GentiumBookBasic-Italic_3mn.woff") format("woff");
}

]]></style>

</svg>
