<?xml version="1.0" encoding="UTF-8" standalone="no"?>
<!DOCTYPE svg PUBLIC "-//W3C//DTD SVG 1.1//EN"
"http://www.w3.org/Graphics/SVG/1.1/DTD/svg11.dtd">


<!-- Page 436 -->
<svg x="0" y="0" width="921" height="1196" viewBox="0 0 921 1196" version="1.1" xmlns="http://www.w3.org/2000/svg" xmlns:xlink="http://www.w3.org/1999/xlink"
style="display: block;margin-left: auto;margin-right: auto;">
<defs>

<style type="text/css"><![CDATA[

.g1_436{
fill: #A8A9AD;
stroke: #B2B3B7;
stroke-width: 1.5277778;
stroke-linecap: butt;
stroke-linejoin: miter;
stroke-miterlimit: 4;
}
.g2_436{
fill: none;
stroke: #BDBEC1;
stroke-width: 1.1458334;
stroke-linecap: butt;
stroke-linejoin: miter;
stroke-miterlimit: 4;
}
.g3_436{
fill: #FFFFFF;
}
.g4_436{
fill: none;
stroke: #57585A;
stroke-width: 1.5277778;
stroke-linecap: butt;
stroke-linejoin: miter;
stroke-miterlimit: 4;
}
.g5_436{
fill: none;
stroke: #57585A;
stroke-width: 0.5102778;
stroke-linecap: butt;
stroke-linejoin: miter;
stroke-miterlimit: 4;
}

.s1_436{
font-size: 10.69px;
font-family: LibreFranklin-SemiBold_4gw;
fill: #FFFFFF;
}
.s2_436{
font-size: 21.39px;
font-family: LibreFranklin-ExtraBold_4hh;
fill: #909295;
}
.s3_436{
font-size: 14.51px;
font-family: LibreFranklin-Light_4ho;
fill: #3F3F40;
}
.s4_436{
font-size: 14.51px;
font-family: LibreFranklin-SemiBold_4gw;
fill: #A8A9AD;
}
.s5_436{
font-size: 14.51px;
font-family: LibreFranklin-Light_4ho;
fill: #77787B;
}
.s6_436{
font-size: 13.75px;
font-family: LibreFranklin-SemiBold_4gw;
fill: #77787B;
}

]]></style>

</defs>
<path d="M0,0
L0,1196
L921,1196
L921,0 Z " 
fill="#FFFFFF" stroke="none" />
<path d="M880.8,1209.2l64.9,0l0,-1222.1l-64.9,0l0,1222.1Z" class="g1_436" />
<text 
transform="matrix(0, 1, -1, 0, 889, 941)"
dx="0,0.6,0.6,0.6,0.6,0.6,0.6,0.6,0.6,0.6,0.6,0.6,0.6,0.6,0.6,0.6,0.6,0.6,0.6,0.6,-0.6,0.4,0.3,0.6,0.6,0.6,0.6,0.6,0.6,0.6,0.6,0.6,0.6,0.6,0.6,0.6" 
class="s1_436"
>Appendix 2: Lesson Texts in English </text>

<text 
transform="matrix(0, 1, -1, 0, 889, 1152)"
dx="0,0.6,0.6" 
class="s1_436"
>415</text>

<path d="M316.8,70.9l0,910.8" class="g2_436" />
<text 
x="144" 
y="81" 
dx="0,0,0,0,0,0,0,0,0" 
class="s2_436"
>Lesson 19</text>

<text 
x="398" 
y="72" 
dx="0,0,0,0.4,-1,0,0,0,0,0,0,0,0,0,0,0,0,0,0,0,0,0,-0.2,0,0,0,0,0,0,0,0,0,0" 
class="s3_436"
>(It’s almost summer break . . . )</text>

<text 
x="398" 
y="92" 
dx="0,-0.8,0,0,0,0,-0.6,0,0,0,0" 
class="s4_436"
>Wang Peng: </text>

<text 
x="504" 
y="92" 
dx="0,0,0,0,-1.5,0,0,0,0,0,0,0,0,0,0,0,0,0,0,0,0,0,0.4,0,0,0,0,0,0,0,0,-0.2,0,0,0,0,0,0,0,0,0,0,0,0,0,0,0,-0.2,0,0,0,0,0,0,0,0,0,0,0" 
class="s3_436"
>Li You, time flies. It’ll be break soon. Some of our class-</text>

<text 
x="504" 
y="112" 
dx="0,0,0,-0.2,0,0,0,0,-0.2,0,0,-0.1,0,0,0,0,0,-0.2,0,0,0,0,0,0,0,0,0,0,0,0,0,0,0,0,0,0,0,0,0,0,-0.2,0,0,0,0,0,0,0,0,-0.2,0" 
class="s3_436"
>mates are going to summer school; some of them are </text>

<text 
x="504" 
y="132" 
dx="0,-0.1,0,0,0,0,0,-0.2,0,0,0,0,-0.2,0,0,0,0,0,0,0,0,0,0,-0.3,0,-0.2,0,0,0,0,0,0,0,0,0,0,0,0,0,0,0,0,0,0,0,0,0,0,0,0,0,-0.1,0" 
class="s3_436"
>going to intern at different companies. Some will go </text>

<text 
x="504" 
y="152" 
dx="0,0,0,0,0,0,0,0,0,0,0,0,0,0,0,0,0,0,0,0,0,0,-0.2,0,0,0,0,0,0,0,0,0,0,0,0" 
class="s3_436"
>home and work. What are your plans?</text>

<text 
x="398" 
y="171" 
dx="0,0,0,0,-1.6,0,0,0" 
class="s4_436"
>Li You: </text>

<text 
x="504" 
y="171" 
dx="0,0,0,0,0,-0.4,0,0,0,0,0,0,0,0,0,0,0,0,0,0,0,0,0,0,0,0,0,0,0,0,0,0,0,0,0,0,-0.8,0,0,0,0,-0.8,0,0,0" 
class="s3_436"
>I haven’t decided. What about you, Wang Peng?</text>

<text 
x="398" 
y="191" 
dx="0,-0.8,0,0,0,0,-0.6,0,0,0,0" 
class="s4_436"
>Wang Peng: </text>

<text 
x="504" 
y="191" 
dx="0,0,0,0,0,0,0,0,-0.2,0,0,-0.1,0,0,0,0,0,0,0,-0.2,0,0,0,0,0,0,0,0,0,0,-0.2,0,0,0,0,0,0,0,0,0,0,0,-0.2,0,0,0,0" 
class="s3_436"
>I plan to go back to Beijing to see my parents.</text>

<text 
x="398" 
y="211" 
dx="0,0,0,0,-1.6,0,0,0" 
class="s4_436"
>Li You: </text>

<text 
x="504" 
y="211" 
dx="0,0,0,0,0,0,0,0,0,0,0,0,0,0,0,0,0,0,0,0,0,0,0,0,0,0,0,0,0,0,0,0,0,0,-0.2,0,0,0,0,0,0,0,0,-0.2,0,-0.2,0,0,0,0,0,0,0,0,0,0,-0.9" 
class="s3_436"
>Really? I hear that Beijing is a really interesting city.</text>

<text 
x="398" 
y="231" 
dx="0,-0.8,0,0,0,0,-0.6,0,0,0,0" 
class="s4_436"
>Wang Peng: </text>

<text 
x="504" 
y="231" 
dx="0,0,0,0,0,0,0,0,0,0,0,0,0,0,0,0,0,0,0,0,0,0,0,0,0,0,0,0,-1,0,0,0,0,0,0,0,0,0,0,0,0,0,0,0,0,0.4,-1,0,0,0,0,0,0" 
class="s3_436"
>Of course. Beijing is China’s capital, and it’s also </text>

<text 
x="504" 
y="251" 
dx="0,0,0,0,0,0,-1,0,0,0,0,0,0,0,0,0,0,0,0,0,0,0,0,0,0,0,0,0,0,0,0,0,0,0,0,-0.2,0,0,0,0,0,0,0,0,0,0,0,0,0,-0.2,0" 
class="s3_436"
>China’s political and cultural center with lots of </text>

<text 
x="504" 
y="271" 
dx="0,0,0,0,0,0,0,0,0,0,0,-0.2,0,0,0,0,0,0,0,-0.2,0,0" 
class="s3_436"
>famous historic sites.</text>

<text 
x="398" 
y="291" 
dx="0,0,0,0,-1.6,0,0,0" 
class="s4_436"
>Li You: </text>

<text 
x="504" 
y="291" 
dx="0,0,0,0,0.4,-1,0,0,0,0,0,0,0,0,0,0,0,0,0,0,-0.2,0,0,0,0,-0.8,0,0,0,0,0,0,0,-0.4,0,0,0,0,0,0,0,0,0,0" 
class="s3_436"
>That’s right. The Great Wall is very famous.</text>

<text 
x="398" 
y="310" 
dx="0,-0.8,0,0,0,0,-0.6,0,0,0,0" 
class="s4_436"
>Wang Peng: </text>

<text 
x="504" 
y="310" 
dx="0,0,0,0,0,0,0,0,-0.2,0,0,0,-0.2,0,0,-0.2,0,0,0,0,-0.2,0,0,0,-0.2,0,0,0,0,-0.2,0,0,0,0,0,0,0,0,0,0,0,0,0,0,0,0,0,0,0,0,0" 
class="s3_436"
>And there are tons of great restaurants in Beijing.</text>

<text 
x="398" 
y="330" 
dx="0,0,0,0,-1.6,0,0,0" 
class="s4_436"
>Li You: </text>

<text 
x="504" 
y="330" 
dx="0,0,0,0,0,0,0,0,0,0,-0.1,-0.4,0,0,0,0,0,0,0,-0.2,0,0,0,0,0,0,0,-0.7,0,0,0,0,0,0,0,0,-1.1,0,0,0,0,0,0,0,0,0,0,0,0,-0.1,-0.4,0" 
class="s3_436"
>Really? I’ve been to Hong Kong and Taipei, but I’ve </text>

<text 
x="504" 
y="350" 
dx="0,0,0,-0.4,0,0,0,0,0,0,0,0,-0.2,0,0,0,0,0,0,0,0,0,0,0,0,0,0,0,0,0,0,0,0,0,0,0,0,0,0,-0.1,0,0,-0.2,0,0,0,0,0,0,0,0,0" 
class="s3_436"
>never been to Beijing. I wish I could go to Beijing.</text>

<text 
x="398" 
y="370" 
dx="0,-0.8,0,0,0,0,-0.6,0,0,0,0" 
class="s4_436"
>Wang Peng: </text>

<text 
x="504" 
y="370" 
dx="0,0,0,0,0,0,0,0,0,0,0,0,0,0,0,-0.1,0,0,0,0,0,0,0,0,0,0,0,0,0,0,0,0,0,0,0,0,0,0,0,0,0,0,0,0,0,0,0,0" 
class="s3_436"
>Why don’t you go with me? I could be your guide.</text>

<text 
x="398" 
y="390" 
dx="0,0,0,0,-1.6,0,0,0" 
class="s4_436"
>Li You: </text>

<text 
x="504" 
y="390" 
dx="0,0,0,0,0,0,0,0,0,0,0,0,0,0,0,0,0,0,0,0,0,0,0,0,-0.2,0,0,0,0,0,0,0,0,0,-0.2,0,0,0,0,0,0,0,-0.4,0,0,0,0,0,0,0,0,0,0,0,0,0" 
class="s3_436"
>Really? That would be great! I already have a passport. </text>

<text 
x="504" 
y="410" 
dx="0,0,0,0,0,0,0,0,-0.4,0,0,-0.2,0,0,0,0,0,0,0,0,-0.3,0,0,0,0,0,0,0,0,0,0,0,0,0,0,0,0,0" 
class="s3_436"
>I’ll have to apply for a visa at once.</text>

<text 
x="398" 
y="429" 
dx="0,-0.8,0,0,0,0,-0.6,0,0,0,0" 
class="s4_436"
>Wang Peng: </text>

<text 
x="504" 
y="429" 
dx="0,0,0,0,0,0,-0.1,0,0,0,0,0,0,0,0,0,0,0,0,0,0,0,0,-0.4,0,0,0,0,0,0,0,0,0,0,0,0,0,0,0,0,0,0,0,0,-0.9" 
class="s3_436"
>I’ll get the plane tickets online right away.</text>

<text 
x="398" 
y="449" 
dx="0,0,0,0,-1.6,0,0,0" 
class="s4_436"
>Li You: </text>

<text 
x="504" 
y="449" 
dx="0,0,0.4,-1,0,0,0,0,0,0,0,0,0,0,-0.2,0,0,-0.2,0,0,0,0,-0.4,0,0,0,0,0,0,0,0,0,0,0,0,0,0,0,0,0,0,0,0,0,0.4,-1,0,0,0,0,0,0,0,0" 
class="s3_436"
>It’s not secure to make payments online. Let’s rather </text>

<text 
x="504" 
y="469" 
dx="0,0,0,0,0,0,0,0,0,0,0,-0.4,0,0,0,0,-0.1,0,0,0,0,0,0,0,0,-0.2,0,0,0" 
class="s3_436"
>call a travel agency instead.</text>

<text 
x="398" 
y="544" 
dx="0,0,-0.8,0,0,0,0,-0.8,0,0,0,0,0,0,0,0,0,0,0,0,0,0,0,-0.4,0,0,0,0,-0.1,0,0,0,0,0,-0.2,0,0,0,0,-0.4,0,0,0,0,0,0,0,0,0,-0.2,0,0,0,0,0,0,0,0,0,0,0,0,0,0,0,0,0,0" 
class="s3_436"
>(Wang Peng calls a travel agency to make flight reservations . . . )</text>

<text 
x="398" 
y="564" 
dx="0,-1.2,-0.1,0,-0.4,0,0,0,0,-0.2,0,0,0,0" 
class="s4_436"
>Travel Agent: </text>

<text 
x="504" 
y="564" 
dx="0,0,0,0,0,0,0,0,-1.2,0,0,-0.4,0,0,0,0,-0.1,0,0,0,-0.9,0,0,-0.1,0,0,0,0,0,0,0,0,0,0,0" 
class="s3_436"
>Tianyi Travel Agency, good morning.</text>

<text 
x="398" 
y="584" 
dx="0,-0.8,0,0,0,0,-0.6,0,0,0,0" 
class="s4_436"
>Wang Peng: </text>

<text 
x="504" 
y="584" 
dx="0,0,0,0,0,0,0,0,0,0,0,0,0,0,0,0,0,0,0,0,0,0,0,0,0,0,0,0,0,0,0,0,-0.4,0,0,0,-0.2,0,0,0,0,0,0,0,0,0,0,-0.3,0,0" 
class="s3_436"
>Good morning. How much is a ticket to Beijing for </text>

<text 
x="504" 
y="604" 
dx="0,0,0,0,0,0,0,0,0,0,0,0,0,0,0,-0.2,0,0,0,0,0,0" 
class="s3_436"
>the beginning of June?</text>

<text 
x="398" 
y="623" 
dx="0,-1.2,-0.1,0,-0.4,0,0,0,0,-0.2,0,0,0,0" 
class="s4_436"
>Travel Agent: </text>

<text 
x="504" 
y="623" 
dx="0,0,0,0,0,0,0,0,0,0,0,0,-0.2,0,0,0,0,0,0,0,0" 
class="s3_436"
>One-way or roundtrip?</text>

<text 
x="398" 
y="643" 
dx="0,-0.8,0,0,0,0,-0.6,0,0,0,0" 
class="s4_436"
>Wang Peng: </text>

<text 
x="504" 
y="643" 
dx="0,-1.1,0,0,0,-0.2,0,0,0,0,0,0,0,0,0,0,0,0,-0.4,0,0,0" 
class="s3_436"
>Two roundtrip tickets.</text>

<text 
x="398" 
y="663" 
dx="0,-1.2,-0.1,0,-0.4,0,0,0,0,-0.2,0,0,0,0" 
class="s4_436"
>Travel Agent: </text>

<text 
x="504" 
y="663" 
dx="0,0,0,0,0,0,0,0,0,0,0,0,0,0" 
class="s3_436"
>Which airline?</text>

<text 
x="398" 
y="683" 
dx="0,-0.8,0,0,0,0,-0.6,0,0,0,0" 
class="s4_436"
>Wang Peng: </text>

<text 
x="504" 
y="683" 
dx="0,0,0,0,0,0,0,0,-0.4,0,0,0,0,0,0,0,0,-0.4,0,0,0,0,0,0,0,0,0,0,0,0,0,0,0,0,0,0,0,0,0,0,0,0,-0.2,0,0,0,0,0,0,-0.4,0" 
class="s3_436"
>I’ll take whichever airline is the least expensive.</text>

<text 
x="398" 
y="703" 
dx="0,-1.2,-0.1,0,-0.4,0,0,0,0,-0.2,0,0,0,0" 
class="s4_436"
>Travel Agent: </text>

<text 
x="504" 
y="703" 
dx="0,0,0,0,0,0,0,0,0,0,0,0,0,0,0,0,0,0,0,0,0,0,0,0,0,0,0,0,0,0,0,0,0,0,0,0,0,0,0,0,-0.2,0,0,0,0,-0.3,0,0" 
class="s3_436"
>Please wait a moment. Let me check. Quite a few </text>

<text 
x="504" 
y="723" 
dx="0,0,0,0,0,0,0,0,0,0,0,0,0,0,0,0,0,-0.2,0,0,0,0,0,0,0,0,0,0,0,0,0,0,0,0,0,0,0,0,0,0,0,0,-0.2,0,0,0,0,0,0,0,0,0,0,0" 
class="s3_436"
>airlines fly there. Air China, $1,500, direct flight. </text>

<text 
x="504" 
y="743" 
dx="0,0,0,0,0,0,0,0,0,0,0,0,0,0,0,0,0,0,0,0,0,0,0,0,0,0,0,0,0,0,0,0,0,0,0,0,0,0,0,0,0,0,0,0,0,0,0,0,0,0,0" 
class="s3_436"
>Northwest Airlines is having a sale. About $1,460, </text>

<text 
x="504" 
y="762" 
dx="0,0,0,0,0,0,0,0,0,0,0,-0.4,0,0,-0.2,0,0,0,0,0,0,-0.1,0,0,0,0,0,0,0,0" 
class="s3_436"
>but you have to change planes.</text>

<text 
x="398" 
y="782" 
dx="0,-0.8,0,0,0,0,-0.6,0,0,0,0" 
class="s4_436"
>Wang Peng: </text>

<text 
x="504" 
y="782" 
dx="0,0,0,0,0,0,0,0,0,0,0,0,0,0,0,0,0,0,0,0,0,0,0,0,0,0,0,0,0,0,0,0,0,0,0,0,0,0,0,0,0,0,0,0,0,0,0,0,0,0,0,0,0,0,0" 
class="s3_436"
>Northwest Airlines is only $40 cheaper than Air China. </text>

<text 
x="504" 
y="802" 
dx="0,0,0,0,0,0,-0.1,0,0,0,0,0,0,0,0,0,0,0,0,0,0,0,0" 
class="s3_436"
>I’ll go with Air China.</text>

<text 
x="398" 
y="822" 
dx="0,-1.2,-0.1,0,-0.4,0,0,0,0,-0.2,0,0,0,0" 
class="s4_436"
>Travel Agent: </text>

<text 
x="504" 
y="822" 
dx="0,0,0,0,0,0,0,-0.2,0,0,0,0,0,0,0,0,-0.2,0,0,0,-0.3,0,0,0,0,0,0,0,0,0,0,-0.2,0,0,0,0,0,0,-0.2,0,0,0,0,0" 
class="s3_436"
>What are the dates for departure and return?</text>

<text 
x="398" 
y="842" 
dx="0,-0.8,0,0,0,0,-0.6,0,0,0,0" 
class="s4_436"
>Wang Peng: </text>

<text 
x="504" 
y="842" 
dx="0,0,0,0,0,0,0,0,0,0,0,0,0,0,0,0,0,0,0,0,0,0,0,-0.2,0,0,0,0,0,0,0,0,0,0,0,0,0,0,0,0,0,0,0,0,0,0,0,0" 
class="s3_436"
>Departing on June 10, returning on July 15. Can </text>

<text 
x="504" 
y="862" 
dx="0,0,0,-0.2,0,0,0,0,-0.4,0,0,0,0,0,0,0,0,0,0,0" 
class="s3_436"
>I reserve seats now?</text>

<text 
x="398" 
y="882" 
dx="0,-1.2,-0.1,0,-0.4,0,0,0,0,-0.2,0,0,0,0" 
class="s4_436"
>Travel Agent: </text>

<text 
x="504" 
y="882" 
dx="0,-1.5,0,0,0,0,0,0,0,0,0,0,0,0,0,0,0,0,0,0,0,0,0,-0.2,0,-0.3,0,0,0,0,0,0,0,0,0,0,0,0,0,0,0,0,0,0,0,0,0,0,0,0" 
class="s3_436"
>Yes, you can. Do you prefer window or aisle seats?</text>

<text 
x="398" 
y="901" 
dx="0,-0.8,0,0,0,0,-0.6,0,0,0,0" 
class="s4_436"
>Wang Peng: </text>

<text 
x="504" 
y="901" 
dx="0,0,0,0,0,0,0,0,0,0,0,0,0,0,0,0,0,0,0,0,0,0.4,-1,0,0,0,0,0,0,0,0,0,0,0,0,0,0,0,0,0,0,0,0,0,0,0,0,-0.4,0,-0.1,0,0,0,0,0,0,0,0" 
class="s3_436"
>Aisle seats. Oh, that’s right, my friend is a vegetarian. </text>

<text 
x="504" 
y="921" 
dx="0,0,0,0,0,0,0,0,0,0,0,0,0,0,0,0,0,0,0,-0.2,0,0,0,0,-0.4,0,-0.1,0,0,0,0,0,0,0,0,0,0,0,0,0,0,-0.3,0,0,0,0,0,0" 
class="s3_436"
>Could you please order vegetarian meals for her?</text>

<text 
x="398" 
y="941" 
dx="0,-1.2,-0.1,0,-0.4,0,0,0,0,-0.2,0,0,0,0" 
class="s4_436"
>Travel Agent: </text>

<text 
x="504" 
y="941" 
dx="0,0,0,0,0,-0.2,0,0,0,0,0,0,0,0,0,0,0,0,0,0,0,0,0,0,0,0,0,0,0,0,0,0,0,0,0,0,0,0,0,0,0,0,0,-0.2,0,0,0,0,-0.4,0" 
class="s3_436"
>No problem. While in Beijing, do you need to make </text>

<text 
x="504" 
y="961" 
dx="0,-0.2,0,0,0,0,0,0,0,0,0,0,0,0,-0.3,0,0,0,0,0,0,0,-0.2,0,0,0,0,0,0,0,0,0,0,-0.2,0,0,0,0,0" 
class="s3_436"
>reservations for a hotel or car rental?</text>

<text 
x="398" 
y="981" 
dx="0,-0.8,0,0,0,0,-0.6,0,0,0,0" 
class="s4_436"
>Wang Peng: </text>

<text 
x="504" 
y="981" 
dx="0,0,-0.4,0,0,0,0,0,0,0,0,0,0,0" 
class="s3_436"
>No, thank you.</text>

<path d="M243.8,113.4l143.7,0l0,-28.5l-143.7,0l0,28.5Z" class="g3_436" />
<text 
x="252" 
y="104" 
dx="0,-1.2,0,0,-0.4,0,0,0,0,0,0,-0.2,0,0,0,0,0,0,0,0,0" 
class="s5_436"
>Traveling to Beijing </text>

<path d="M281.6,49.8c0,0,-15.3,0,-15.3,15.3l0,3c0,0,0,15.3,15.3,15.3l68.1,0c0,0,15.3,0,15.3,-15.3l0,-3c0,0,0,-15.3,-15.3,-15.3Z" class="g3_436" />
<text 
x="282" 
y="73" 
dx="0,-0.3,-0.3,-0.3,-0.3,-0.3,-0.3,-0.3,-0.3,-0.3" 
class="s6_436"
>Dialogue 1</text>

<path d="M281.6,49c-0.2,0,-16.1,0.2,-16.1,16.1l0,3c0,0.2,0.2,16.1,16.1,16.1l68.1,0c0.2,0,16.1,-0.2,16.1,-16.1l0,-3C365.8,64.9,365.6,49,349.7,49l-68.1,0Z" class="g4_436" />
<path d="M281.6,51c-0.6,0,-14,0.3,-14,14.1l0,3c0,0.6,0.2,14,14,14l68.1,0c0.6,0,14,-0.2,14,-14l0,-3c0,-0.6,-0.2,-14.1,-14,-14.1l-68.1,0Z" class="g5_436" />
<path d="M243.8,586.3l143.7,0l0,-29.3l-143.7,0l0,29.3Z" class="g3_436" />
<text 
x="247" 
y="576" 
dx="0,0,0,0,0,0,0,0,0,0,0,0,0,0,0,0,0,0,0,0,0,0" 
class="s5_436"
>Planning an Itinerary </text>

<path d="M281.6,521.9c0,0,-15.3,0,-15.3,15.2l0,3.1c0,0,0,15.3,15.3,15.3l68.1,0c0,0,15.3,0,15.3,-15.3l0,-3.1c0,0,0,-15.2,-15.3,-15.2Z" class="g3_436" />
<text 
x="281" 
y="545" 
dx="0,-0.3,-0.3,-0.3,-0.3,-0.3,-0.3,-0.3,-0.3,-0.3" 
class="s6_436"
>Dialogue 2</text>

<path d="M281.6,521.1c-0.2,0,-16.1,0.2,-16.1,16l0,3.1c0,0.2,0.2,16.1,16.1,16.1l68.1,0c0.2,0,16.1,-0.2,16.1,-16.1l0,-3.1c0,-0.1,-0.2,-16,-16.1,-16l-68.1,0Z" class="g4_436" />
<path d="M281.6,523.1c-0.6,0,-14,0.2,-14,14l0,3.1c0,0.6,0.2,14,14,14l68.1,0c0.6,0,14,-0.2,14,-14l0,-3.1c0,-0.5,-0.2,-14,-14,-14l-68.1,0Z" class="g5_436" />


<!-- Any embedded fonts defined here -->
<style type="text/css" ><![CDATA[

@font-face {
	font-family: LibreFranklin-SemiBold_4gw;
	src: url("fonts/LibreFranklin-SemiBold_4gw.woff") format("woff");
}

@font-face {
	font-family: LibreFranklin-ExtraBold_4hh;
	src: url("fonts/LibreFranklin-ExtraBold_4hh.woff") format("woff");
}

@font-face {
	font-family: LibreFranklin-Light_4ho;
	src: url("fonts/LibreFranklin-Light_4ho.woff") format("woff");
}

]]></style>

</svg>
