<?xml version="1.0" encoding="UTF-8" standalone="no"?>
<!DOCTYPE svg PUBLIC "-//W3C//DTD SVG 1.1//EN"
"http://www.w3.org/Graphics/SVG/1.1/DTD/svg11.dtd">


<!-- Page 355 -->
<svg x="0" y="0" width="921" height="1196" viewBox="0 0 921 1196" version="1.1" xmlns="http://www.w3.org/2000/svg" xmlns:xlink="http://www.w3.org/1999/xlink"
style="display: block;margin-left: auto;margin-right: auto;">
<defs>

<style type="text/css"><![CDATA[

.g1_355{
fill: #F0F1F2;
}
.g2_355{
fill: #BDBEC1;
}
.g3_355{
fill: none;
stroke: #BDBEC1;
stroke-width: 1.5277778;
stroke-linecap: butt;
stroke-linejoin: miter;
}
.g4_355{
fill: none;
stroke: #DADBDD;
stroke-width: 1.5277778;
stroke-linecap: butt;
stroke-linejoin: miter;
}
.g5_355{
fill: none;
stroke: #BDBEC1;
stroke-width: 0.38194445;
stroke-linecap: butt;
stroke-linejoin: miter;
}
.g6_355{
fill: #57585A;
stroke: #B2B3B7;
stroke-width: 1.5277778;
stroke-linecap: butt;
stroke-linejoin: miter;
stroke-miterlimit: 4;
}

.s1_355{
font-size: 14.51px;
font-family: LibreFranklin-SemiBold_4gw;
fill: #57585A;
}
.s2_355{
font-size: 24.44px;
font-family: STKaitiSC-Regular_44y;
fill: #57585A;
}
.s3_355{
font-size: 24.44px;
font-family: STKaitiTC-Regular_4h8;
fill: #57585A;
}
.s4_355{
font-size: 14.90px;
font-family: GentiumBookBasic-Italic_3mn;
fill: #3F3F40;
}
.s5_355{
font-size: 14.51px;
font-family: LibreFranklin-Regular_4h1;
fill: #3F3F40;
}
.s6_355{
font-size: 13.75px;
font-family: LibreFranklin-Regular_4h1;
fill: #3F3F40;
}
.s7_355{
font-size: 14.51px;
font-family: LibreFranklin-SemiBold_4gw;
fill: #77787B;
}
.s8_355{
font-size: 19.86px;
font-family: LibreFranklin-SemiBold_4gw;
fill: #3F3F40;
}
.s9_355{
font-size: 10.69px;
font-family: LibreFranklin-SemiBold_4gw;
fill: #FFFFFF;
}

]]></style>

</defs>
<path d="M0,0
L0,1196
L921,1196
L921,0 Z " 
fill="#FFFFFF" stroke="none" />
<path d="M55,101.1l178.8,0l0,42.7L55,143.8l0,-42.7Zm178.8,0l178.7,0l0,42.7l-178.7,0l0,-42.7Zm178.7,0l135.2,0l0,42.7l-135.2,0l0,-42.7Zm135.2,0l66.1,0l0,42.7l-66.1,0l0,-42.7Zm66.1,0l189.2,0l0,42.7l-189.2,0l0,-42.7Zm189.2,0l63.3,0l0,42.7l-63.3,0l0,-42.7ZM55,186l178.8,0l0,42.2L55,228.2L55,186Zm178.8,0l178.7,0l0,42.2l-178.7,0l0,-42.2Zm178.7,0l135.2,0l0,42.2l-135.2,0l0,-42.2Zm135.2,0l66.1,0l0,42.2l-66.1,0l0,-42.2Zm66.1,0L803,186l0,42.2l-189.2,0l0,-42.2ZM803,186l63.3,0l0,42.2l-63.3,0L803,186ZM55,270.3l178.8,0l0,45.4L55,315.7l0,-45.4Zm178.8,0l178.7,0l0,45.4l-178.7,0l0,-45.4Zm178.7,0l135.2,0l0,45.4l-135.2,0l0,-45.4Zm135.2,0l66.1,0l0,45.4l-66.1,0l0,-45.4Zm66.1,0l189.2,0l0,45.4l-189.2,0l0,-45.4Zm189.2,0l63.3,0l0,45.4l-63.3,0l0,-45.4ZM55,357.9l178.8,0l0,45.3L55,403.2l0,-45.3Zm178.8,0l178.7,0l0,45.3l-178.7,0l0,-45.3Zm178.7,0l135.2,0l0,45.3l-135.2,0l0,-45.3Zm135.2,0l66.1,0l0,45.3l-66.1,0l0,-45.3Zm66.1,0l189.2,0l0,45.3l-189.2,0l0,-45.3Zm189.2,0l63.3,0l0,45.3l-63.3,0l0,-45.3ZM55,445.4l178.8,0l0,42.1L55,487.5l0,-42.1Zm178.8,0l178.7,0l0,42.1l-178.7,0l0,-42.1Zm178.7,0l135.2,0l0,42.1l-135.2,0l0,-42.1Zm135.2,0l66.1,0l0,42.1l-66.1,0l0,-42.1Zm66.1,0l189.2,0l0,42.1l-189.2,0l0,-42.1Zm189.2,0l63.3,0l0,42.1l-63.3,0l0,-42.1ZM55,532.9l178.8,0l0,42.2L55,575.1l0,-42.2Zm178.8,0l178.7,0l0,42.2l-178.7,0l0,-42.2Zm178.7,0l135.2,0l0,42.2l-135.2,0l0,-42.2Zm135.2,0l66.1,0l0,42.2l-66.1,0l0,-42.2Zm66.1,0l189.2,0l0,42.2l-189.2,0l0,-42.2Zm189.2,0l63.3,0l0,42.2l-63.3,0l0,-42.2ZM55,701.6l178.8,0l0,42.1L55,743.7l0,-42.1Zm178.8,0l178.7,0l0,42.1l-178.7,0l0,-42.1Zm178.7,0l135.2,0l0,42.1l-135.2,0l0,-42.1Zm135.2,0l66.1,0l0,42.1l-66.1,0l0,-42.1Zm66.1,0l189.2,0l0,42.1l-189.2,0l0,-42.1Zm189.2,0l63.3,0l0,42.1l-63.3,0l0,-42.1ZM55,785.9l178.8,0l0,42.2L55,828.1l0,-42.2Zm178.8,0l178.7,0l0,42.2l-178.7,0l0,-42.2Zm178.7,0l135.2,0l0,42.2l-135.2,0l0,-42.2Zm135.2,0l66.1,0l0,42.2l-66.1,0l0,-42.2Zm66.1,0l189.2,0l0,42.2l-189.2,0l0,-42.2Zm189.2,0l63.3,0l0,42.2l-63.3,0l0,-42.2ZM55,870.2l178.8,0l0,42.2L55,912.4l0,-42.2Zm178.8,0l178.7,0l0,42.2l-178.7,0l0,-42.2Zm178.7,0l135.2,0l0,42.2l-135.2,0l0,-42.2Zm135.2,0l66.1,0l0,42.2l-66.1,0l0,-42.2Zm66.1,0l189.2,0l0,42.2l-189.2,0l0,-42.2Zm189.2,0l63.3,0l0,42.2l-63.3,0l0,-42.2ZM55,954.5l178.8,0l0,42.2L55,996.7l0,-42.2Zm178.8,0l178.7,0l0,42.2l-178.7,0l0,-42.2Zm178.7,0l135.2,0l0,42.2l-135.2,0l0,-42.2Zm135.2,0l66.1,0l0,42.2l-66.1,0l0,-42.2Zm66.1,0l189.2,0l0,42.2l-189.2,0l0,-42.2Zm189.2,0l63.3,0l0,42.2l-63.3,0l0,-42.2ZM55,1038.9l178.8,0l0,65.8l-178.8,0l0,-65.8Zm178.8,0l178.7,0l0,65.8l-178.7,0l0,-65.8Zm178.7,0l135.2,0l0,65.8l-135.2,0l0,-65.8Zm135.2,0l66.1,0l0,65.8l-66.1,0l0,-65.8Zm66.1,0l189.2,0l0,65.8l-189.2,0l0,-65.8Zm189.2,0l63.3,0l0,65.8l-63.3,0l0,-65.8Z" class="g1_355" />
<path d="M55,617.2l811.3,0l0,42.2L55,659.4l0,-42.2Z" class="g2_355" />
<path d="M55,1104.7l178.8,0" class="g3_355" />
<path d="M233.8,1104.7l178.7,0" class="g3_355" />
<path d="M412.5,1104.7l135.2,0" class="g3_355" />
<path d="M547.7,1104.7l66.1,0" class="g3_355" />
<path d="M613.8,1104.7l189.2,0" class="g3_355" />
<path d="M803,1104.7l63.3,0" class="g3_355" />
<path d="M55,101.1l178.8,0" class="g4_355" />
<path d="M233.8,101.1l178.7,0" class="g4_355" />
<path d="M412.5,101.1l135.2,0" class="g4_355" />
<path d="M547.7,101.1l66.1,0" class="g4_355" />
<path d="M613.8,101.1l189.2,0" class="g4_355" />
<path d="M803,101.1l63.3,0" class="g4_355" />
<path d="M55,659.4l178.8,0" class="g5_355" />
<path d="M233.8,659.4l178.7,0" class="g5_355" />
<path d="M412.5,659.4l135.2,0" class="g5_355" />
<path d="M547.7,659.4l66.1,0" class="g5_355" />
<path d="M613.8,659.4l189.2,0" class="g5_355" />
<path d="M803,659.4l63.3,0" class="g5_355" />
<path d="M55,143.8l178.8,0" class="g5_355" />
<path d="M233.8,143.8l178.7,0" class="g5_355" />
<path d="M412.5,143.8l135.2,0" class="g5_355" />
<path d="M547.7,143.8l66.1,0" class="g5_355" />
<path d="M613.8,143.8l189.2,0" class="g5_355" />
<path d="M803,143.8l63.3,0" class="g5_355" />
<path d="M55,186l178.8,0" class="g5_355" />
<path d="M233.8,186l178.7,0" class="g5_355" />
<path d="M412.5,186l135.2,0" class="g5_355" />
<path d="M547.7,186l66.1,0" class="g5_355" />
<path d="M613.8,186L803,186" class="g5_355" />
<path d="M803,186l63.3,0" class="g5_355" />
<path d="M55,228.2l178.8,0" class="g5_355" />
<path d="M233.8,228.2l178.7,0" class="g5_355" />
<path d="M412.5,228.2l135.2,0" class="g5_355" />
<path d="M547.7,228.2l66.1,0" class="g5_355" />
<path d="M613.8,228.2l189.2,0" class="g5_355" />
<path d="M803,228.2l63.3,0" class="g5_355" />
<path d="M55,270.3l178.8,0" class="g5_355" />
<path d="M233.8,270.3l178.7,0" class="g5_355" />
<path d="M412.5,270.3l135.2,0" class="g5_355" />
<path d="M547.7,270.3l66.1,0" class="g5_355" />
<path d="M613.8,270.3l189.2,0" class="g5_355" />
<path d="M803,270.3l63.3,0" class="g5_355" />
<path d="M55,315.7l178.8,0" class="g5_355" />
<path d="M233.8,315.7l178.7,0" class="g5_355" />
<path d="M412.5,315.7l135.2,0" class="g5_355" />
<path d="M547.7,315.7l66.1,0" class="g5_355" />
<path d="M613.8,315.7l189.2,0" class="g5_355" />
<path d="M803,315.7l63.3,0" class="g5_355" />
<path d="M55,357.9l178.8,0" class="g5_355" />
<path d="M233.8,357.9l178.7,0" class="g5_355" />
<path d="M412.5,357.9l135.2,0" class="g5_355" />
<path d="M547.7,357.9l66.1,0" class="g5_355" />
<path d="M613.8,357.9l189.2,0" class="g5_355" />
<path d="M803,357.9l63.3,0" class="g5_355" />
<path d="M55,403.2l178.8,0" class="g5_355" />
<path d="M233.8,403.2l178.7,0" class="g5_355" />
<path d="M412.5,403.2l135.2,0" class="g5_355" />
<path d="M547.7,403.2l66.1,0" class="g5_355" />
<path d="M613.8,403.2l189.2,0" class="g5_355" />
<path d="M803,403.2l63.3,0" class="g5_355" />
<path d="M55,445.4l178.8,0" class="g5_355" />
<path d="M233.8,445.4l178.7,0" class="g5_355" />
<path d="M412.5,445.4l135.2,0" class="g5_355" />
<path d="M547.7,445.4l66.1,0" class="g5_355" />
<path d="M613.8,445.4l189.2,0" class="g5_355" />
<path d="M803,445.4l63.3,0" class="g5_355" />
<path d="M55,487.5l178.8,0" class="g5_355" />
<path d="M233.8,487.5l178.7,0" class="g5_355" />
<path d="M412.5,487.5l135.2,0" class="g5_355" />
<path d="M547.7,487.5l66.1,0" class="g5_355" />
<path d="M613.8,487.5l189.2,0" class="g5_355" />
<path d="M803,487.5l63.3,0" class="g5_355" />
<path d="M55,532.9l178.8,0" class="g5_355" />
<path d="M233.8,532.9l178.7,0" class="g5_355" />
<path d="M412.5,532.9l135.2,0" class="g5_355" />
<path d="M547.7,532.9l66.1,0" class="g5_355" />
<path d="M613.8,532.9l189.2,0" class="g5_355" />
<path d="M803,532.9l63.3,0" class="g5_355" />
<path d="M55,575.1l178.8,0" class="g5_355" />
<path d="M233.8,575.1l178.7,0" class="g5_355" />
<path d="M412.5,575.1l135.2,0" class="g5_355" />
<path d="M547.7,575.1l66.1,0" class="g5_355" />
<path d="M613.8,575.1l189.2,0" class="g5_355" />
<path d="M803,575.1l63.3,0" class="g5_355" />
<path d="M55,701.6l178.8,0" class="g5_355" />
<path d="M233.8,701.6l178.7,0" class="g5_355" />
<path d="M412.5,701.6l135.2,0" class="g5_355" />
<path d="M547.7,701.6l66.1,0" class="g5_355" />
<path d="M613.8,701.6l189.2,0" class="g5_355" />
<path d="M803,701.6l63.3,0" class="g5_355" />
<path d="M55,743.7l178.8,0" class="g5_355" />
<path d="M233.8,743.7l178.7,0" class="g5_355" />
<path d="M412.5,743.7l135.2,0" class="g5_355" />
<path d="M547.7,743.7l66.1,0" class="g5_355" />
<path d="M613.8,743.7l189.2,0" class="g5_355" />
<path d="M803,743.7l63.3,0" class="g5_355" />
<path d="M55,785.9l178.8,0" class="g5_355" />
<path d="M233.8,785.9l178.7,0" class="g5_355" />
<path d="M412.5,785.9l135.2,0" class="g5_355" />
<path d="M547.7,785.9l66.1,0" class="g5_355" />
<path d="M613.8,785.9l189.2,0" class="g5_355" />
<path d="M803,785.9l63.3,0" class="g5_355" />
<path d="M55,828.1l178.8,0" class="g5_355" />
<path d="M233.8,828.1l178.7,0" class="g5_355" />
<path d="M412.5,828.1l135.2,0" class="g5_355" />
<path d="M547.7,828.1l66.1,0" class="g5_355" />
<path d="M613.8,828.1l189.2,0" class="g5_355" />
<path d="M803,828.1l63.3,0" class="g5_355" />
<path d="M55,870.2l178.8,0" class="g5_355" />
<path d="M233.8,870.2l178.7,0" class="g5_355" />
<path d="M412.5,870.2l135.2,0" class="g5_355" />
<path d="M547.7,870.2l66.1,0" class="g5_355" />
<path d="M613.8,870.2l189.2,0" class="g5_355" />
<path d="M803,870.2l63.3,0" class="g5_355" />
<path d="M55,912.4l178.8,0" class="g5_355" />
<path d="M233.8,912.4l178.7,0" class="g5_355" />
<path d="M412.5,912.4l135.2,0" class="g5_355" />
<path d="M547.7,912.4l66.1,0" class="g5_355" />
<path d="M613.8,912.4l189.2,0" class="g5_355" />
<path d="M803,912.4l63.3,0" class="g5_355" />
<path d="M55,954.5l178.8,0" class="g5_355" />
<path d="M233.8,954.5l178.7,0" class="g5_355" />
<path d="M412.5,954.5l135.2,0" class="g5_355" />
<path d="M547.7,954.5l66.1,0" class="g5_355" />
<path d="M613.8,954.5l189.2,0" class="g5_355" />
<path d="M803,954.5l63.3,0" class="g5_355" />
<path d="M55,996.7l178.8,0" class="g5_355" />
<path d="M233.8,996.7l178.7,0" class="g5_355" />
<path d="M412.5,996.7l135.2,0" class="g5_355" />
<path d="M547.7,996.7l66.1,0" class="g5_355" />
<path d="M613.8,996.7l189.2,0" class="g5_355" />
<path d="M803,996.7l63.3,0" class="g5_355" />
<path d="M55,1038.9l178.8,0" class="g5_355" />
<path d="M233.8,1038.9l178.7,0" class="g5_355" />
<path d="M412.5,1038.9l135.2,0" class="g5_355" />
<path d="M547.7,1038.9l66.1,0" class="g5_355" />
<path d="M613.8,1038.9l189.2,0" class="g5_355" />
<path d="M803,1038.9l63.3,0" class="g5_355" />
<path d="M55,617.2l178.8,0" class="g5_355" />
<path d="M233.8,617.2l178.7,0" class="g5_355" />
<path d="M412.5,617.2l135.2,0" class="g5_355" />
<path d="M547.7,617.2l66.1,0" class="g5_355" />
<path d="M613.8,617.2l189.2,0" class="g5_355" />
<path d="M803,617.2l63.3,0" class="g5_355" />
<text 
x="61" 
y="85" 
dx="0,0,0,0,0,0,0,0,0,0" 
class="s1_355"
>Simplified</text>

<text 
x="239" 
y="85" 
dx="0,-1.2,-0.1,0,0,0,0,0,0,0,0" 
class="s1_355"
>Traditional</text>

<text 
x="418" 
y="85" 
dx="0,0,0,0,0,0" 
class="s1_355"
>Pinyin</text>

<text 
x="553" 
y="75" 
dx="0,0,0,0,0,0,-0.2,0" 
class="s1_355"
>Part of </text>

<text 
x="553" 
y="94" 
dx="0,0,0,0,0,0" 
class="s1_355"
>Speech</text>

<text 
x="619" 
y="85" 
dx="0,0,0,0,0,0,0" 
class="s1_355"
>English</text>

<text 
x="809" 
y="85" 
dx="0,0,0,0,0,0" 
class="s1_355"
>Lesson</text>

<text 
x="61" 
y="131" 
dx="0,0" 
class="s2_355"
>旁边</text>

<text 
x="239" 
y="131" 
dx="0,0" 
class="s3_355"
>旁邊</text>

<text 
x="418" 
y="129" 
dx="0,0.2,0.2,0.2,0.2,0.2,0.2,0.2" 
class="s4_355"
>pángbiān</text>

<text 
x="553" 
y="129" 
dx="0" 
class="s5_355"
>n</text>

<text 
x="619" 
y="129" 
dx="0,0,0,0" 
class="s6_355"
>side</text>

<text 
x="809" 
y="129" 
dx="0,0" 
class="s7_355"
>13</text>

<text 
x="61" 
y="173" 
dx="0" 
class="s2_355"
>胖</text>

<text 
x="418" 
y="171" 
dx="0,0.2,0.2,0.2" 
class="s4_355"
>pàng</text>

<text 
x="553" 
y="171" 
dx="0,0,0" 
class="s5_355"
>adj</text>

<text 
x="619" 
y="171" 
dx="0,0,0" 
class="s6_355"
>fat</text>

<text 
x="809" 
y="171" 
dx="0,0" 
class="s7_355"
>18</text>

<text 
x="61" 
y="215" 
dx="0,0" 
class="s2_355"
>跑步</text>

<text 
x="418" 
y="213" 
dx="0,0.2,0.2,0.2,0.2,0.2" 
class="s4_355"
>pǎo bù</text>

<text 
x="553" 
y="214" 
dx="0,-0.4" 
class="s5_355"
>vo</text>

<text 
x="619" 
y="213" 
dx="0,-0.2,0,0,0,0" 
class="s6_355"
>to jog</text>

<text 
x="809" 
y="214" 
dx="0,0" 
class="s7_355"
>18</text>

<text 
x="61" 
y="258" 
dx="0,0" 
class="s2_355"
>朋友</text>

<text 
x="418" 
y="255" 
dx="0,0.2,0.2,0.2,0.2,0.2,0.2" 
class="s4_355"
>péngyou</text>

<text 
x="553" 
y="256" 
dx="0" 
class="s5_355"
>n</text>

<text 
x="619" 
y="255" 
dx="0,0,0,0,0,0" 
class="s6_355"
>friend</text>

<text 
x="809" 
y="256" 
dx="0" 
class="s7_355"
>3</text>

<text 
x="61" 
y="301" 
dx="0" 
class="s2_355"
>篇</text>

<text 
x="418" 
y="299" 
dx="0,0.2,0.2,0.2" 
class="s4_355"
>piān</text>

<text 
x="553" 
y="300" 
dx="0" 
class="s5_355"
>m</text>

<text 
x="619" 
y="289" 
dx="0,0,0,0,0,0,0,-0.2,0,0,0,0,-0.2,0,0,-0.3,0,0,0,0,0,0,0,0,0,0" 
class="s6_355"
>(measure word for essays, </text>

<text 
x="619" 
y="309" 
dx="0,0,0,0,0,0,0,0,0,0,0,-0.1,-0.2,0,0" 
class="s6_355"
>articles, etc.)</text>

<text 
x="809" 
y="300" 
dx="0" 
class="s7_355"
>8</text>

<text 
x="61" 
y="345" 
dx="0,0" 
class="s2_355"
>便宜</text>

<text 
x="418" 
y="343" 
dx="0,0.2,0.2,0.2,0.2,0.2" 
class="s4_355"
>piányi</text>

<text 
x="553" 
y="343" 
dx="0,0,0" 
class="s5_355"
>adj</text>

<text 
x="619" 
y="343" 
dx="0,0,0,0,0,0,0,0,0,0,-0.2,0,0,0,0,0,0,-0.4" 
class="s6_355"
>cheap, inexpensive</text>

<text 
x="809" 
y="343" 
dx="0" 
class="s7_355"
>9</text>

<text 
x="61" 
y="389" 
dx="0" 
class="s2_355"
>片</text>

<text 
x="418" 
y="387" 
dx="0,0.2,0.2,0.2" 
class="s4_355"
>piàn</text>

<text 
x="553" 
y="387" 
dx="0" 
class="s5_355"
>m</text>

<text 
x="619" 
y="377" 
dx="0,0,0,0,0,0,0,-0.2,0,0,0,0,-0.2,0,0,-0.3,0,0,0,0,0,0,0,-0.1,0,0,0" 
class="s6_355"
>(measure word for tablets, </text>

<text 
x="619" 
y="397" 
dx="0,0,0,0,0,0,0,0,0,-0.1,-0.2,0,0" 
class="s6_355"
>slices, etc.)</text>

<text 
x="809" 
y="387" 
dx="0,0" 
class="s7_355"
>15</text>

<text 
x="61" 
y="433" 
dx="0" 
class="s2_355"
>票</text>

<text 
x="418" 
y="430" 
dx="0,0.2,0.2,0.2" 
class="s4_355"
>piào</text>

<text 
x="553" 
y="431" 
dx="0" 
class="s5_355"
>n</text>

<text 
x="619" 
y="430" 
dx="0,0,0,0,-0.4,-0.1" 
class="s6_355"
>ticket</text>

<text 
x="809" 
y="431" 
dx="0,0" 
class="s7_355"
>10</text>

<text 
x="61" 
y="475" 
dx="0,0" 
class="s2_355"
>漂亮</text>

<text 
x="239" 
y="475" 
dx="0,0" 
class="s3_355"
>漂亮</text>

<text 
x="418" 
y="472" 
dx="0,0.2,0.2,0.2,0.2,0.2,0.2,0.2,0.2" 
class="s4_355"
>piàoliang</text>

<text 
x="553" 
y="473" 
dx="0,0,0" 
class="s5_355"
>adj</text>

<text 
x="619" 
y="473" 
dx="0,0,-0.2,-0.1,0,0" 
class="s6_355"
>pretty</text>

<text 
x="809" 
y="473" 
dx="0" 
class="s7_355"
>5</text>

<text 
x="61" 
y="519" 
dx="0" 
class="s2_355"
>瓶</text>

<text 
x="418" 
y="516" 
dx="0,0.2,0.2,0.2" 
class="s4_355"
>píng</text>

<text 
x="553" 
y="517" 
dx="0,0,0" 
class="s5_355"
>m/n</text>

<text 
x="619" 
y="506" 
dx="0,0,0,0,0,0,0,-0.2,0,0,0,0,-0.2,0,0,-0.3,0,0,0,0,-0.1,0,0,0,0,0" 
class="s6_355"
>(measure word for bottled </text>

<text 
x="619" 
y="526" 
dx="0,0,0,0,0,0,0,0,0,-0.1,-0.2,0,0" 
class="s6_355"
>liquid, etc.)</text>

<text 
x="809" 
y="517" 
dx="0" 
class="s7_355"
>5</text>

<text 
x="61" 
y="562" 
dx="0,0" 
class="s2_355"
>平常</text>

<text 
x="418" 
y="560" 
dx="0,0.2,0.2,0.2,0.2,0.2,0.2,0.2,0.2" 
class="s4_355"
>píngcháng</text>

<text 
x="553" 
y="561" 
dx="0,0,0" 
class="s5_355"
>adv</text>

<text 
x="619" 
y="560" 
dx="0,0,0,0,0,0,0" 
class="s6_355"
>usually</text>

<text 
x="809" 
y="561" 
dx="0" 
class="s7_355"
>7</text>

<text 
x="61" 
y="604" 
dx="0,0" 
class="s2_355"
>苹果</text>

<text 
x="239" 
y="604" 
dx="0,0" 
class="s3_355"
>蘋果</text>

<text 
x="418" 
y="602" 
dx="0,0.2,0.2,0.2,0.2,0.2,0.2" 
class="s4_355"
>píngguǒ</text>

<text 
x="553" 
y="603" 
dx="0" 
class="s5_355"
>n</text>

<text 
x="619" 
y="602" 
dx="0,0,0,0,0" 
class="s6_355"
>apple</text>

<text 
x="809" 
y="603" 
dx="0,0" 
class="s7_355"
>14</text>

<text 
x="452" 
y="647" 
dx="0" 
class="s8_355"
>Q</text>

<text 
x="61" 
y="689" 
dx="0,0" 
class="s2_355"
>起床</text>

<text 
x="239" 
y="689" 
dx="0,0" 
class="s3_355"
>起床</text>

<text 
x="418" 
y="686" 
dx="0,0.2,0.2,0.2,0.2,0.2,0.2,0.2,0.2" 
class="s4_355"
>qǐ chuáng</text>

<text 
x="553" 
y="687" 
dx="0,-0.4" 
class="s5_355"
>vo</text>

<text 
x="619" 
y="687" 
dx="0,-0.2,0,0,-0.1,-0.1,0,0,0" 
class="s6_355"
>to get up</text>

<text 
x="809" 
y="687" 
dx="0" 
class="s7_355"
>8</text>

<text 
x="61" 
y="731" 
dx="0,0" 
class="s2_355"
>起飞</text>

<text 
x="239" 
y="731" 
dx="0,0" 
class="s3_355"
>起飛</text>

<text 
x="418" 
y="729" 
dx="0,0.2,0.2,0.2,0.2" 
class="s4_355"
>qǐfēi</text>

<text 
x="553" 
y="729" 
dx="0" 
class="s5_355"
>v</text>

<text 
x="619" 
y="729" 
dx="0,0,-0.2,0,0,0,0,0,0,0,0,0,0,0,0,0,-0.2,0,0,0,0,-0.4,0,0,-0.2,0" 
class="s6_355"
>(of airplanes) to take off</text>

<text 
x="809" 
y="729" 
dx="0,0" 
class="s7_355"
>20</text>

<text 
x="61" 
y="773" 
dx="0" 
class="s2_355"
>千</text>

<text 
x="418" 
y="771" 
dx="0,0.2,0.2,0.2" 
class="s4_355"
>qiān</text>

<text 
x="553" 
y="771" 
dx="0,0" 
class="s5_355"
>nu</text>

<text 
x="619" 
y="771" 
dx="0,0,0,0,0,0,0,0" 
class="s6_355"
>thousand</text>

<text 
x="809" 
y="771" 
dx="0,0" 
class="s7_355"
>19</text>

<text 
x="61" 
y="815" 
dx="0,0" 
class="s2_355"
>签证</text>

<text 
x="239" 
y="815" 
dx="0,0" 
class="s3_355"
>簽證</text>

<text 
x="418" 
y="813" 
dx="0,0.2,0.2,0.2,0.2,0.2,0.2,0.2,0.2" 
class="s4_355"
>qiānzhèng</text>

<text 
x="553" 
y="813" 
dx="0" 
class="s5_355"
>n</text>

<text 
x="619" 
y="813" 
dx="0,0,0,0" 
class="s6_355"
>visa</text>

<text 
x="809" 
y="813" 
dx="0,0" 
class="s7_355"
>19</text>

<text 
x="61" 
y="857" 
dx="0" 
class="s2_355"
>钱</text>

<text 
x="239" 
y="857" 
dx="0" 
class="s3_355"
>錢</text>

<text 
x="418" 
y="855" 
dx="0,0.2,0.2,0.2" 
class="s4_355"
>qián</text>

<text 
x="553" 
y="856" 
dx="0" 
class="s5_355"
>n</text>

<text 
x="619" 
y="855" 
dx="0,0,0,0,0" 
class="s6_355"
>money</text>

<text 
x="809" 
y="856" 
dx="0" 
class="s7_355"
>9</text>

<text 
x="61" 
y="900" 
dx="0" 
class="s2_355"
>前</text>

<text 
x="418" 
y="897" 
dx="0,0.2,0.2,0.2" 
class="s4_355"
>qián</text>

<text 
x="553" 
y="898" 
dx="0" 
class="s5_355"
>n</text>

<text 
x="619" 
y="897" 
dx="0,-0.3,0,0,0,0,-0.2,0,0,0,0,0,0,0" 
class="s6_355"
>forward, ahead</text>

<text 
x="809" 
y="898" 
dx="0,0" 
class="s7_355"
>13</text>

<text 
x="61" 
y="942" 
dx="0,0" 
class="s2_355"
>前面</text>

<text 
x="418" 
y="939" 
dx="0,0.2,0.2,0.2,0.2,0.2,0.2,0.2" 
class="s4_355"
>qiánmiàn</text>

<text 
x="553" 
y="940" 
dx="0" 
class="s5_355"
>n</text>

<text 
x="619" 
y="940" 
dx="0,0,0,0,0,0,0,0,0,0,0,0,-0.2,0,0,0,0,-0.2" 
class="s6_355"
>ahead, in front of</text>

<text 
x="809" 
y="940" 
dx="0,0" 
class="s7_355"
>13</text>

<text 
x="61" 
y="984" 
dx="0,0" 
class="s2_355"
>青菜</text>

<text 
x="239" 
y="984" 
dx="0,0" 
class="s3_355"
>青菜</text>

<text 
x="418" 
y="982" 
dx="0,0.2,0.2,0.2,0.2,0.2,0.2" 
class="s4_355"
>qīngcài</text>

<text 
x="553" 
y="982" 
dx="0" 
class="s5_355"
>n</text>

<text 
x="619" 
y="982" 
dx="0,0,-0.2,0,0,0,0,0,0,0,0,0,0,0,-0.4,0,-0.1,-0.1,0,0,0,0" 
class="s6_355"
>green, leafy vegetable</text>

<text 
x="809" 
y="982" 
dx="0,0" 
class="s7_355"
>12</text>

<text 
x="61" 
y="1026" 
dx="0,0" 
class="s2_355"
>清楚</text>

<text 
x="418" 
y="1024" 
dx="0,0.2,0.2,0.2,0.2,0.2,0.2" 
class="s4_355"
>qīngchu</text>

<text 
x="553" 
y="1024" 
dx="0,0,0" 
class="s5_355"
>adj</text>

<text 
x="619" 
y="1024" 
dx="0,0,0,0,0" 
class="s6_355"
>clear</text>

<text 
x="809" 
y="1024" 
dx="0,0" 
class="s7_355"
>12</text>

<text 
x="61" 
y="1080" 
dx="0" 
class="s2_355"
>请</text>

<text 
x="239" 
y="1080" 
dx="0" 
class="s3_355"
>請</text>

<text 
x="418" 
y="1077" 
dx="0,0.2,0.2,0.2" 
class="s4_355"
>qǐng</text>

<text 
x="553" 
y="1078" 
dx="0" 
class="s5_355"
>v</text>

<text 
x="619" 
y="1058" 
dx="0,0,0,0,0,0,0,0,0,0,0,0,0,-0.2,0,0,-0.3,0,0,0,0,-0.2,0" 
class="s6_355"
>please (polite form of </text>

<text 
x="619" 
y="1078" 
dx="0,-0.2,0,0,0,0,0,0,0,0,0,-0.2,0,0,0,-0.2,0,0,0,0,0,0,0,-0.2,0" 
class="s6_355"
>request), to treat or to </text>

<text 
x="619" 
y="1097" 
dx="0,0,0,0,0,-0.2,0,0,0,0,0,0,0,0,0,0,0" 
class="s6_355"
>invite (somebody)</text>

<text 
x="809" 
y="1078" 
dx="0" 
class="s7_355"
>1</text>

<path d="M-17.5,1209.2l58,0l0,-1222.1l-58,0l0,1222.1Z" class="g6_355" />
<text 
transform="matrix(0, -1, 1, 0, 32, 1173)"
dx="0,0.6,0.6,0.6" 
class="s9_355"
>334 </text>

<text 
transform="matrix(0, -1, 1, 0, 32, 1133)"
dx="0,0.6,0.6,0.5,0.6,0.6,0.6,0.6,0.5,0.6,0.6,0.6,0.6,0.6,0.6,0.6,0.6,0.6,0.6,0.6,0.6" 
class="s9_355"
>Integrated Chinese 2 </text>

<text 
transform="matrix(0, -1, 1, 0, 32, 1005)"
dx="0,0.6" 
class="s9_355"
>| </text>

<text 
transform="matrix(0, -1, 1, 0, 32, 993)"
dx="0,-0.6,0.4,0.3,0.6,0.6,0.6,0.6" 
class="s9_355"
>Textbook</text>



<!-- Any embedded fonts defined here -->
<style type="text/css" ><![CDATA[

@font-face {
	font-family: LibreFranklin-SemiBold_4gw;
	src: url("fonts/LibreFranklin-SemiBold_4gw.woff") format("woff");
}

@font-face {
	font-family: LibreFranklin-Regular_4h1;
	src: url("fonts/LibreFranklin-Regular_4h1.woff") format("woff");
}

@font-face {
	font-family: STKaitiTC-Regular_4h8;
	src: url("fonts/STKaitiTC-Regular_4h8.woff") format("woff");
}

@font-face {
	font-family: STKaitiSC-Regular_44y;
	src: url("fonts/STKaitiSC-Regular_44y.woff") format("woff");
}

@font-face {
	font-family: GentiumBookBasic-Italic_3mn;
	src: url("fonts/GentiumBookBasic-Italic_3mn.woff") format("woff");
}

]]></style>

</svg>
