<?xml version="1.0" encoding="UTF-8" standalone="no"?>
<!DOCTYPE svg PUBLIC "-//W3C//DTD SVG 1.1//EN"
"http://www.w3.org/Graphics/SVG/1.1/DTD/svg11.dtd">


<!-- Page 227 -->
<svg x="0" y="0" width="921" height="1196" viewBox="0 0 921 1196" version="1.1" xmlns="http://www.w3.org/2000/svg" xmlns:xlink="http://www.w3.org/1999/xlink"
style="display: block;margin-left: auto;margin-right: auto;">
<defs>

<style type="text/css"><![CDATA[

.g1_227{
fill: none;
stroke: #007D9F;
stroke-width: 2.2916667;
stroke-linecap: butt;
stroke-linejoin: miter;
}
.g2_227{
fill: none;
stroke: #007598;
stroke-width: 1.5277778;
stroke-linecap: butt;
stroke-linejoin: miter;
stroke-miterlimit: 4;
}
.g3_227{
fill: none;
stroke: #007598;
stroke-width: 0.5102778;
stroke-linecap: butt;
stroke-linejoin: miter;
stroke-miterlimit: 4;
}
.g4_227{
fill: #007598;
stroke: #B2B3B7;
stroke-width: 1.5277778;
stroke-linecap: butt;
stroke-linejoin: miter;
stroke-miterlimit: 4;
}

.s1_227{
font-size: 18.33px;
font-family: LibreFranklin-ExtraBold_47v;
fill: #007D9F;
}
.s2_227{
font-size: 22.92px;
font-family: LibreFranklin-Bold_47x;
fill: #007D9F;
}
.s3_227{
font-size: 27.50px;
font-family: STKaitiSC-Bold_3wm;
fill: #3F3F40;
}
.s4_227{
font-size: 20.63px;
font-family: GentiumBasic-Italic_3ou;
fill: #3F3F40;
}
.s5_227{
font-size: 24.44px;
font-family: STKaitiSC-Bold_3wm;
fill: #007598;
}
.s6_227{
font-size: 17.19px;
font-family: GentiumBasic-Italic_3ou;
fill: #3F3F40;
}
.s7_227{
font-size: 15.28px;
font-family: LibreFranklin-Regular_48f;
fill: #3F3F40;
}
.s8_227{
font-size: 15.28px;
font-family: LibreFranklin-ExtraBold_47v;
fill: #3F3F40;
}
.s9_227{
font-size: 32.08px;
font-family: STKaitiSC-Regular_44y;
fill: #3F3F40;
}
.s10_227{
font-size: 32.08px;
font-family: STKaitiSC-Regular_44y;
fill: #007D9F;
}
.s11_227{
font-size: 17.19px;
font-family: GentiumBasic-Italic_3ou;
fill: #007D9F;
}
.s12_227{
font-size: 17.19px;
font-family: GentiumBasic-Italic_48i;
fill: #3F3F40;
}
.s13_227{
font-size: 11.08px;
font-family: LibreFranklin-SemiBold_487;
fill: #FFFFFF;
}

]]></style>

</defs>
<path d="M0,0
L0,1196
L921,1196
L921,0 Z " 
fill="#FFFFFF" stroke="none" />
<path d="M105.3,90.9l13,0" class="g1_227" />
<text 
x="105" 
y="87" 
dx="0,0" 
class="s1_227"
>4 </text>

<text 
x="212" 
y="92" 
dx="0,0,0,0,0,0,0,0,0,0,0,0,0,0,0,0,0,0,-0.4,-0.9,0,0,0,0,-0.4,0,0,0,0,0,0,0,0,0,0,0,0,0,0" 
class="s2_227"
>Indicating an approximate number using </text>

<text 
x="658" 
y="92" 
dx="0" 
class="s3_227"
>多</text>

<text 
x="690" 
y="92" 
dx="0,0.4,0.4,0.4,0.4" 
class="s4_227"
>(duō)</text>

<text 
x="143" 
y="155" 
dx="0" 
class="s5_227"
>多</text>

<text 
x="171" 
y="153" 
dx="0,0.3,0.3,0.3,0.3" 
class="s6_227"
>(duō)</text>

<text 
x="210" 
y="153" 
dx="0,0,0,0,0,0,0,0,0,0,0,0,0,0,0,0,0,-0.2,0,0,0,0,0,0,0,0,0,0,0,0,-0.2,0,0,0,0,0,0,0,0,-0.2,0,0,0,0,0,0,0,0,-0.2,-0.3,0,0,0,0,-0.2,0,0,0,0,0,0,0,-1.3,0,0,0,0,0,0,0,0,0,0,0,0,0,0,0,0,0" 
class="s7_227"
>can be placed after a number to indicate an approximate number. The combination </text>

<text 
x="143" 
y="181" 
dx="0,0,0,0,0,0,0,-0.2,0,0,0,0,-0.1,0,0,0,0,0,-0.3,0,0,0,0,0,0,0,0,0,0,0,0,0,0,0,0,0,0,-0.1,0,0,0,0,0,0,0,0,0,0,0,0,0,0,0,0,0,0,-0.1,0,0,0,0,0,0,0,0" 
class="s7_227"
>indicates not an exact number but a general numeric range, e.g., </text>

<text 
x="596" 
y="182" 
dx="0,0,0" 
class="s5_227"
>十多个</text>

<text 
x="673" 
y="181" 
dx="0,0.3,0.3,0.3,0.3,0.3,0.3,0.3,0.3,0.3,0.3,0.3" 
class="s6_227"
>(shí duō ge)</text>

<text 
x="753" 
y="181" 
dx="0,0,0,0,0,0" 
class="s7_227"
>means </text>

<text 
x="143" 
y="208" 
dx="0,0,0,-0.2,0,0,0,0,0,0,0,-0.2,0,0,0,0,0,0,0,-0.3,0,0,0,0,0,0,0,0,0,0,0,0,0,0,0,0,0,0,0,0,0,0,0,0,0,0,0,0,0,0,0,0,0,-0.5,0,0,0,0,0,0,0,0,-0.5,0,0,0,0,0,0,0,-0.2,0,0,0,0,0,-0.1,-0.2,0" 
class="s7_227"
>more than ten but fewer than twenty; it could be eleven, twelve, thirteen, etc.</text>

<text 
x="143" 
y="251" 
dx="0,0,0,0,0,0,0,0,0,0,0,0,0,0,0,0,-0.2,0,0,-0.2,0,0,0,0,-0.2,0,0,0,0,0,0,0,0,0,0,0,0,0,0,0,0,0,0,0,-0.1,0,0,0,0,0,0,0,0,0,0,0,0,0,0,-0.2,0,0,0,0,0,0,0,0,0,0,0,0,0,0,0,0,0,0,0,0,0,0,0,0,0,0,0,0,0,0,0,0,0,0" 
class="s7_227"
>If the concept represented by the noun is not divisible into smaller units, and the number is </text>

<text 
x="143" 
y="279" 
dx="0,-0.2,0,0,0,0,0,0,0,0,0,0,0,0,0,0,0,0,0,-0.2,0,0,-0.2,0,0,0" 
class="s7_227"
>ten or a multiple of ten, </text>

<text 
x="309" 
y="280" 
dx="0" 
class="s5_227"
>多</text>

<text 
x="336" 
y="279" 
dx="0,0.3,0.3,0.3,0.3" 
class="s6_227"
>(duō)</text>

<text 
x="375" 
y="279" 
dx="0,0,-0.2,0,0,0,0,0,0,0,0,0,0,0,0,0,0,0,0,-0.2,0,0,0,0,-0.2,0" 
class="s7_227"
>precedes the measure word.</text>

<text 
x="155" 
y="342" 
dx="0,0" 
class="s8_227"
>A </text>

<text 
x="226" 
y="345" 
dx="0,0" 
class="s9_227"
>二十</text>

<text 
x="290" 
y="345" 
dx="0" 
class="s10_227"
>多</text>

<text 
x="322" 
y="345" 
dx="0,0,0" 
class="s9_227"
>个人 </text>

<text 
x="232" 
y="382" 
dx="0,0.3,0.3,0.3,0.3,0.3" 
class="s6_227"
>èrshí </text>

<text 
x="268" 
y="382" 
dx="0,0.3,0.3" 
class="s11_227"
>duō</text>

<text 
x="297" 
y="382" 
dx="0,0.3,0.3,0.3,0.3,0.3" 
class="s12_227"
>ge rén</text>

<text 
x="232" 
y="414" 
dx="0,0,0,-0.2,0,0,0,0,0,0,0,0,0,0,0,0,0,0,0,0,0,0,0" 
class="s7_227"
>more than twenty people</text>

<text 
x="155" 
y="478" 
dx="0,0" 
class="s8_227"
>B </text>

<text 
x="226" 
y="480" 
dx="0,0" 
class="s9_227"
>三十</text>

<text 
x="290" 
y="480" 
dx="0" 
class="s10_227"
>多</text>

<text 
x="322" 
y="480" 
dx="0,0,0,0" 
class="s9_227"
>个学生 </text>

<text 
x="232" 
y="517" 
dx="0,0.3,0.3,0.3,0.3,0.3,0.3" 
class="s6_227"
>sānshí </text>

<text 
x="278" 
y="517" 
dx="0,0.3,0.3" 
class="s11_227"
>duō</text>

<text 
x="306" 
y="517" 
dx="0,0.3,0.3,0.3,0.3,0.3,0.3,0.3,0.3,0.3,0.3" 
class="s12_227"
>ge xuésheng</text>

<text 
x="232" 
y="549" 
dx="0,0,0,-0.2,0,0,0,0,0,0,0,0,0,0,0,0,0,0,0,0,0,0,0,0,0" 
class="s7_227"
>more than thirty students</text>

<text 
x="155" 
y="613" 
dx="0,0" 
class="s8_227"
>C </text>

<text 
x="226" 
y="615" 
dx="0,0" 
class="s9_227"
>一百</text>

<text 
x="290" 
y="615" 
dx="0" 
class="s10_227"
>多</text>

<text 
x="322" 
y="615" 
dx="0,0,0" 
class="s9_227"
>张纸 </text>

<text 
x="232" 
y="652" 
dx="0,0.3,0.3,0.3,0.3,0.3,0.3" 
class="s6_227"
>yì bǎi </text>

<text 
x="272" 
y="652" 
dx="0,0.3,0.3,0.3" 
class="s11_227"
>duō </text>

<text 
x="301" 
y="652" 
dx="0,0.3,0.3,0.3,0.3,0.3,0.3,0.3,0.3" 
class="s6_227"
>zhāng zhǐ</text>

<text 
x="232" 
y="684" 
dx="0,0,0,-0.2,0,0,0,0,0,0,0,0,0,0,0,0,0,0,0,-0.2,0,0,0,0,0,0,-0.1,0,0,0,-0.2,0,0,0,0,0,0" 
class="s7_227"
>more than one hundred sheets of paper</text>

<text 
x="143" 
y="725" 
dx="0,0,0,0,0,-0.5,0,-1.3,0,0,0,0,0,0,0,0,0,0,0,0,0,0,0,0,0,-0.2,0,0,-0.2,0,0,0,0,-0.2,0,0,0,0,0,0,0,0,0,0,0,0,0,0,0,0,0,0,0,0,0,0,0,0,0,0,0,0,0,0,0,0,-0.2,0,0,0,0,0,0,0,0,0,0,0,0,0,0,0" 
class="s7_227"
>However, if the concept represented by the noun can be divided into smaller units </text>

<text 
x="143" 
y="753" 
dx="0,0,0,0,0,0,0" 
class="s7_227"
>(e.g., </text>

<text 
x="178" 
y="754" 
dx="0,0,0" 
class="s5_227"
>一块钱</text>

<text 
x="254" 
y="753" 
dx="0,0" 
class="s7_227"
>= </text>

<text 
x="264" 
y="754" 
dx="0,0" 
class="s5_227"
>十毛</text>

<text 
x="313" 
y="753" 
dx="0,0" 
class="s7_227"
>, </text>

<text 
x="320" 
y="754" 
dx="0,0,0,0" 
class="s5_227"
>一个星期</text>

<text 
x="419" 
y="753" 
dx="0,0" 
class="s7_227"
>= </text>

<text 
x="430" 
y="754" 
dx="0,0" 
class="s5_227"
>七天</text>

<text 
x="482" 
y="753" 
dx="0,0.3,0.3,0.3,0.3,0.3,0.3,0.3,0.3,0.3,0.3,0.3,0.3,0.3,0.3,0.3,0.3,0.3,0.3,0.3,0.3,0.3,0.3,0.3,0.3,0.3,0.3,0.3,0.3,0.3,0.3,0.3,0.3,0.3,0.3,0.3,0.3,0.3,0.3,0.3,0.3,0.3,0.3,0.3,0.3,0.3,0.3,0.3" 
class="s6_227"
>[yí kuài qián = shí máo, yí ge xīngqī = qī tiān]</text>

<text 
x="778" 
y="753" 
dx="0,0,0" 
class="s7_227"
>), </text>

<text 
x="143" 
y="780" 
dx="0,0,0,0,-0.2,0,0,0,-0.2,0,0,0,0,0,0,0,0,0,0,0,0,0,0,0,0,0,0,0,0,0,0,0,0,0,0,0,0,0,0,0,0,0,0,0,0,0,0,0,-0.1,0,0,-0.2,0,0,0,0,0,0,0,0,0,0,0,0,0,0,0,0,0,-0.2,0,0,-0.2,0,0,0" 
class="s7_227"
>there are two possibilities. If the number is not ten or a multiple of ten, </text>

<text 
x="639" 
y="782" 
dx="0" 
class="s5_227"
>多</text>

<text 
x="666" 
y="780" 
dx="0,0.3,0.3,0.3,0.3" 
class="s6_227"
>(duō)</text>

<text 
x="705" 
y="780" 
dx="0,0,0,0,0,0,0,0,0,0" 
class="s7_227"
>should be </text>

<text 
x="143" 
y="808" 
dx="0,0,0,0,0,0,0,0,-0.2,0,0,0,0,0,0,0,0,0,0,0,0,-0.2,0,0,0,0,-0.2,0,0,0,0,0,0,0,0" 
class="s7_227"
>used after the measure word, e.g., </text>

<text 
x="385" 
y="809" 
dx="0,0,0,0" 
class="s5_227"
>七块多钱</text>

<text 
x="486" 
y="808" 
dx="0,0.3,0.3,0.3,0.3,0.3,0.3,0.3,0.3,0.3,0.3,0.3,0.3,0.3,0.3,0.3,0.3,0.3" 
class="s6_227"
>(qī kuài duō qián)</text>

<text 
x="607" 
y="808" 
dx="0,0,0,0,-0.2,0,0,0,0,0,0,0,0,0,-0.5,0,0,0,0,0,0,0,0,0,0" 
class="s7_227"
>(more than seven dollars </text>

<text 
x="143" 
y="835" 
dx="0,0,0,0,0,0,0,0,0,0,0,0,0,0,0,0,0,0,0,0,0,0" 
class="s7_227"
>but less than eight), </text>

<text 
x="285" 
y="837" 
dx="0,0,0,0,0" 
class="s5_227"
>一个多星期</text>

<text 
x="410" 
y="835" 
dx="0,0.3,0.3,0.3,0.3,0.3,0.3,0.3,0.3,0.3,0.3,0.3,0.3,0.3,0.3,0.3,0.3,0.3" 
class="s6_227"
>(yí ge duō xīngqī)</text>

<text 
x="529" 
y="835" 
dx="0,0,0,0,-0.2,0,0,0,0,0,0,0,0,0,0,0,0,0,0,0,0,0,0,0,0,0,0,0,0,0,0,0,0,0" 
class="s7_227"
>(more than one week but less than </text>

<text 
x="143" 
y="863" 
dx="0,0,0,0,0,0,0,0,0,0,0,0,0,0,0,0,0,0,0,0,0,0,0,0,-0.2,0,0,0,0,0,0,0,0,0,0,0,0,0,0,0,0,0,-0.2,0,0,-0.2,0,0,0" 
class="s7_227"
>two). If the number is ten or a multiple of ten, </text>

<text 
x="461" 
y="864" 
dx="0" 
class="s5_227"
>多</text>

<text 
x="489" 
y="863" 
dx="0,0.3,0.3,0.3,0.3" 
class="s6_227"
>(duō)</text>

<text 
x="527" 
y="863" 
dx="0,0,0,0,0,0,0,0,0,0,0,0,0,0,0,0,0,0,0,0,0,0,-0.3,0,-0.2,0,0,0,0,0,0,0,0,0,0,0,-0.2,0" 
class="s7_227"
>can be used either before the measure </text>

<text 
x="143" 
y="890" 
dx="0,0,0,-0.2,0,0,0,0,0,0,0,0" 
class="s7_227"
>word, e.g., </text>

<text 
x="217" 
y="892" 
dx="0,0,0,0" 
class="s5_227"
>十多块钱</text>

<text 
x="318" 
y="890" 
dx="0,0.3,0.3,0.3,0.3,0.3,0.3,0.3,0.3,0.3,0.3,0.3,0.3,0.3,0.3,0.3,0.3,0.3,0.3" 
class="s6_227"
>(shí duō kuài qián)</text>

<text 
x="445" 
y="890" 
dx="0,0,0,0,-0.2,0,0,0,0,0,0,0,-0.2,0,0,0,0,0,0,0,0,0,0,0,0,0,0,0,0,0,0,0,0,0,0,0,0,0,0,0,0,0,0,0,0,0,0,0" 
class="s7_227"
>(more than ten dollars but less than twenty) or </text>

<text 
x="143" 
y="918" 
dx="0,0,0,-0.2,0,0,0,0,0,0,0,0,0,0,0,0,-0.2,0,0,0,0,-0.2,0,0,0,0,0,0,0,0" 
class="s7_227"
>after the measure word, e.g., </text>

<text 
x="347" 
y="919" 
dx="0,0,0,0" 
class="s5_227"
>十块多钱</text>

<text 
x="448" 
y="918" 
dx="0,0.3,0.3,0.3,0.3,0.3,0.3,0.3,0.3,0.3,0.3,0.3,0.3,0.3,0.3,0.3,0.3,0.3,0.3" 
class="s6_227"
>(shí kuài duō qián)</text>

<text 
x="576" 
y="918" 
dx="0,0,0,0,-0.2,0,0,0,0,0,0,0,-0.2,0,0,0,0,0,0,0,0,0,0,0,0,0,0" 
class="s7_227"
>(more than ten dollars but </text>

<text 
x="143" 
y="945" 
dx="0,0,0,0,0,0,0,0,0,0,0,0,0,0,-0.5,0,0,0,0,0,0,0,0,0,0,0,0,0,0,0,0,0,0,0,0,0,0,0,0,0,0,0,-0.2,0,0,-0.2,0,0,0,0,0,0,0,0,0,-0.3,0,-0.2,0,0,0,0,0,0,0,0,0,0,0,0,0,0,0,-0.1,0,0" 
class="s7_227"
>less than eleven), but these two options represent different numeric ranges.</text>

<text 
x="155" 
y="1009" 
dx="0,0" 
class="s8_227"
>D </text>

<text 
x="226" 
y="1011" 
dx="0,0,0,0,0" 
class="s9_227"
>这枝笔一块</text>

<text 
x="386" 
y="1011" 
dx="0" 
class="s10_227"
>多</text>

<text 
x="418" 
y="1011" 
dx="0,0" 
class="s9_227"
>钱。</text>

<text 
x="232" 
y="1048" 
dx="0,0.3,0.3,0.3,0.3,0.3,0.3,0.3,0.3,0.3,0.3,0.3,0.3,0.3,0.3,0.3,0.3,0.3,0.3" 
class="s6_227"
>Zhè zhī bǐ yí kuài </text>

<text 
x="349" 
y="1048" 
dx="0,0.3,0.3,0.3" 
class="s11_227"
>duō </text>

<text 
x="378" 
y="1048" 
dx="0,0.3,0.3,0.3,0.3" 
class="s6_227"
>qián.</text>

<text 
x="232" 
y="1081" 
dx="0,0,0,0,0,0,0,0,0,0,0,0,0,0,0,0,0,0,0,0,0,0,0,0,0,0,0,-0.1,0,0,0,0,0,0" 
class="s7_227"
>This pen is one dollar something. </text>

<text 
x="232" 
y="1113" 
dx="0,0,0,0,0,0,0,0,0,0,0,0,0,0,0,0,0,-0.2,0,0,0,0,0,0,0,0,0,0,0,0,0,0,0,0,0,0,0,0,0,0,0,0,0,0,0,0,0,0,0,0,0,0,-0.4,0" 
class="s7_227"
>(The price is more than one dollar but less than two.)</text>

<path d="M132.9,56.8l0,53.4l0,0.8l0.7,0l676.9,0l0.8,0l0,-0.8l0,-53.4l0,-0.8l-0.8,0L133.6,56l-0.7,0l0,0.8Z" class="g2_227" />
<path d="M134.9,109l674.4,0l0,-51L134.9,58l0,51Z" class="g3_227" />
<path d="M150.6,319.6c-0.1,0,-7.6,0.1,-7.6,7.6l0,19.7c0,0.1,0.1,7.6,7.6,7.6l22.4,0c0.1,0,7.7,0,7.7,-7.6l0,-19.7c0,-0.1,-0.1,-7.6,-7.7,-7.6l-22.4,0Z" class="g2_227" />
<path d="M150.6,321.6c-0.6,0,-5.6,0.2,-5.6,5.6l0,19.7c0,0.6,0.2,5.6,5.6,5.6l22.4,0c0.6,0,5.6,-0.2,5.6,-5.6l0,-19.7c0,-0.6,-0.2,-5.6,-5.6,-5.6l-22.4,0Z" class="g3_227" />
<path d="M150.6,454.7c-0.1,0,-7.6,0.1,-7.6,7.6l0,19.7c0,0.1,0.1,7.7,7.6,7.7l22.4,0c0.1,0,7.7,-0.1,7.7,-7.7l0,-19.7c0,0,-0.1,-7.6,-7.7,-7.6l-22.4,0Z" class="g2_227" />
<path d="M150.6,456.7c-0.6,0,-5.6,0.2,-5.6,5.6l0,19.7c0,0.6,0.2,5.6,5.6,5.6l22.4,0c0.6,0,5.6,-0.2,5.6,-5.6l0,-19.7c0,-0.5,-0.2,-5.6,-5.6,-5.6l-22.4,0Z" class="g3_227" />
<path d="M150.6,589.8c-0.1,0,-7.6,0.1,-7.6,7.7l0,19.7c0,0,0.1,7.6,7.6,7.6l22.4,0c0.1,0,7.7,-0.1,7.7,-7.6l0,-19.7c0,-0.1,-0.1,-7.7,-7.7,-7.7l-22.4,0Z" class="g2_227" />
<path d="M150.6,591.9c-0.6,0,-5.6,0.2,-5.6,5.6l0,19.7c0,0.5,0.2,5.6,5.6,5.6l22.4,0c0.6,0,5.6,-0.2,5.6,-5.6l0,-19.7c0,-0.6,-0.2,-5.6,-5.6,-5.6l-22.4,0Z" class="g3_227" />
<path d="M150.6,986.2c-0.1,0,-7.6,0.1,-7.6,7.7l0,19.6c0,0.1,0.1,7.7,7.6,7.7l22.4,0c0.1,0,7.7,-0.1,7.7,-7.7l0,-19.6c0,-0.1,-0.1,-7.7,-7.7,-7.7l-22.4,0Z" class="g2_227" />
<path d="M150.6,988.2c-0.6,0.1,-5.6,0.3,-5.6,5.7l0,19.6c0,0.6,0.2,5.6,5.6,5.6l22.4,0c0.6,0,5.6,-0.2,5.6,-5.6l0,-19.6c0,-0.6,-0.2,-5.7,-5.6,-5.7l-22.4,0Z" class="g3_227" />
<path d="M-17.5,1209.2l58,0l0,-1222.1l-58,0l0,1222.1Z" class="g4_227" />
<text 
transform="matrix(0, -1, 1, 0, 31, 1173)"
dx="0,1,1,1" 
class="s13_227"
>206 </text>

<text 
transform="matrix(0, -1, 1, 0, 31, 1128)"
dx="0,1,1,0.8,1,1,0.9,1,0.8,1,1,1,1,1,1,1,1,1,1,1,1" 
class="s13_227"
>Integrated Chinese 2 </text>

<text 
transform="matrix(0, -1, 1, 0, 31, 988)"
dx="0,1" 
class="s13_227"
>| </text>

<text 
transform="matrix(0, -1, 1, 0, 31, 974)"
dx="0,-0.2,0.7,0.7,1,1,1,1" 
class="s13_227"
>Textbook</text>



<!-- Any embedded fonts defined here -->
<style type="text/css" ><![CDATA[

@font-face {
	font-family: LibreFranklin-Bold_47x;
	src: url("fonts/LibreFranklin-Bold_47x.woff") format("woff");
}

@font-face {
	font-family: GentiumBasic-Italic_48i;
	src: url("fonts/GentiumBasic-Italic_48i.woff") format("woff");
}

@font-face {
	font-family: GentiumBasic-Italic_3ou;
	src: url("fonts/GentiumBasic-Italic_3ou.woff") format("woff");
}

@font-face {
	font-family: STKaitiSC-Bold_3wm;
	src: url("fonts/STKaitiSC-Bold_3wm.woff") format("woff");
}

@font-face {
	font-family: STKaitiSC-Regular_44y;
	src: url("fonts/STKaitiSC-Regular_44y.woff") format("woff");
}

@font-face {
	font-family: LibreFranklin-Regular_48f;
	src: url("fonts/LibreFranklin-Regular_48f.woff") format("woff");
}

@font-face {
	font-family: LibreFranklin-SemiBold_487;
	src: url("fonts/LibreFranklin-SemiBold_487.woff") format("woff");
}

@font-face {
	font-family: LibreFranklin-ExtraBold_47v;
	src: url("fonts/LibreFranklin-ExtraBold_47v.woff") format("woff");
}

]]></style>

</svg>
