<?xml version="1.0" encoding="UTF-8" standalone="no"?>
<!DOCTYPE svg PUBLIC "-//W3C//DTD SVG 1.1//EN"
"http://www.w3.org/Graphics/SVG/1.1/DTD/svg11.dtd">


<!-- Page 418 -->
<svg x="0" y="0" width="921" height="1196" viewBox="0 0 921 1196" version="1.1" xmlns="http://www.w3.org/2000/svg" xmlns:xlink="http://www.w3.org/1999/xlink"
style="display: block;margin-left: auto;margin-right: auto;">
<defs>

<style type="text/css"><![CDATA[

.g1_418{
fill: #A8A9AD;
stroke: #B2B3B7;
stroke-width: 1.5277778;
stroke-linecap: butt;
stroke-linejoin: miter;
stroke-miterlimit: 4;
}
.g2_418{
fill: none;
stroke: #BDBEC1;
stroke-width: 1.1458334;
stroke-linecap: butt;
stroke-linejoin: miter;
stroke-miterlimit: 4;
}
.g3_418{
fill: none;
stroke: #007598;
stroke-width: 1.5277778;
stroke-linecap: butt;
stroke-linejoin: miter;
}
.g4_418{
fill: none;
stroke: #DC262E;
stroke-width: 1.5277778;
stroke-linecap: butt;
stroke-linejoin: miter;
}
.g5_418{
fill: #FFFFFF;
}
.g6_418{
fill: none;
stroke: #57585A;
stroke-width: 1.5277778;
stroke-linecap: butt;
stroke-linejoin: miter;
stroke-miterlimit: 4;
}
.g7_418{
fill: none;
stroke: #57585A;
stroke-width: 0.5102778;
stroke-linecap: butt;
stroke-linejoin: miter;
stroke-miterlimit: 4;
}

.s1_418{
font-size: 10.69px;
font-family: LibreFranklin-SemiBold_4gw;
fill: #FFFFFF;
}
.s2_418{
font-size: 21.39px;
font-family: LibreFranklin-ExtraBold_4hh;
fill: #909295;
}
.s3_418{
font-size: 22.92px;
font-family: STKaitiTC-Regular_4h8;
fill: #77787B;
}
.s4_418{
font-size: 22.92px;
font-family: STKaitiTC-Regular_4h8;
fill: #3F3F40;
}
.s5_418{
font-size: 22.92px;
font-family: STKaitiTC-Regular_4h8;
fill: #007598;
}
.s6_418{
font-size: 9.80px;
font-family: ProximaNova-Extrabld_4hk;
fill: #007598;
}
.s7_418{
font-size: 22.92px;
font-family: STKaitiTC-Regular_4h8;
fill: #DC262E;
}
.s8_418{
font-size: 9.80px;
font-family: ProximaNova-Extrabld_4hk;
fill: #DC262E;
}
.s9_418{
font-size: 14.51px;
font-family: LibreFranklin-Light_4ho;
fill: #77787B;
}
.s10_418{
font-size: 13.75px;
font-family: LibreFranklin-SemiBold_4gw;
fill: #77787B;
}

]]></style>

</defs>
<path d="M0,0
L0,1196
L921,1196
L921,0 Z " 
fill="#FFFFFF" stroke="none" />
<path d="M880.8,1209.2l64.9,0l0,-1222.1l-64.9,0l0,1222.1Z" class="g1_418" />
<text 
transform="matrix(0, 1, -1, 0, 889, 852)"
dx="0,0.6,0.6,0.6,0.6,0.6,0.6,0.6,0.6,0.6,0.6,0.6,0.6,0.6,0.6,0.6,0.6,0.6,0.6,0.6,-0.6,0.4,0.3,0.6,0.6,0.6,0.6,0.6,0.6,-0.3,0.6,0.6,0.6,0.6,0.6,0.6,0.6,0.6,0.6,0.6,0.6,0.6,0.6,0.6,0.6,0.6,0.6,0.5,0.6,0.6,0.6" 
class="s1_418"
>Appendix 1: Lesson Texts in Traditional Characters </text>

<text 
transform="matrix(0, 1, -1, 0, 889, 1151)"
dx="0,0.6,0.6" 
class="s1_418"
>397</text>

<path d="M318.1,88.6l0,641.7" class="g2_418" />
<path d="M678.3,97.6l4.4,0" class="g3_418" />
<path d="M747.1,175.5l5.9,0" class="g3_418" />
<path d="M632.5,201.5l5.9,0" class="g3_418" />
<path d="M563.8,227.4l5.8,0" class="g3_418" />
<path d="M540.8,253.4l6.1,0" class="g3_418" />
<path d="M592.4,331.3l5.4,0" class="g4_418" />
<path d="M701.3,513.1l5.7,0" class="g4_418" />
<path d="M586.7,617l4.9,0" class="g4_418" />
<text 
x="144" 
y="83" 
dx="0,0,0,0,0,0,0,0,0" 
class="s2_418"
>Lesson 15</text>

<text 
x="398" 
y="80" 
dx="0,0,0,0,0,0,0,0,0,0,0" 
class="s3_418"
>（病人去醫院看病……）</text>

<text 
x="398" 
y="106" 
dx="0,0,0,0,0" 
class="s4_418"
>高文中： </text>

<text 
x="495" 
y="106" 
dx="0,0,0,0,0,0,0" 
class="s3_418"
>醫生，我肚子疼</text>

<text 
x="655" 
y="106" 
dx="0" 
class="s5_418"
>死</text>

<text 
x="678" 
y="94" 
dx="0" 
class="s6_418"
>1</text>

<text 
x="682" 
y="106" 
dx="0,0" 
class="s3_418"
>了。</text>

<text 
x="398" 
y="132" 
dx="0,0,0,0" 
class="s4_418"
>醫生： </text>

<text 
x="495" 
y="132" 
dx="0,0,0,0,0,0,0,0,0,0" 
class="s3_418"
>你昨天吃什麼東西了？</text>

<text 
x="398" 
y="158" 
dx="0,0,0,0,0" 
class="s4_418"
>高文中： </text>

<text 
x="495" 
y="158" 
dx="0,0,0,0,0,0,0,0,0,0,0,0,0,0,0" 
class="s3_418"
>我姐姐上個星期過生日，蛋糕沒吃</text>

<text 
x="495" 
y="184" 
dx="0,0,0,0,0,0,0,0,0,0,0" 
class="s3_418"
>完。昨天晚上我吃了幾口</text>

<text 
x="747" 
y="172" 
dx="0" 
class="s6_418"
>2</text>

<text 
x="753" 
y="184" 
dx="0,0,0,0" 
class="s3_418"
>，夜裡 </text>

<text 
x="494" 
y="210" 
dx="0,0,0,0" 
class="s3_418"
>肚子就疼</text>

<text 
x="586" 
y="210" 
dx="0,0" 
class="s5_418"
>起來</text>

<text 
x="632" 
y="198" 
dx="0" 
class="s6_418"
>2</text>

<text 
x="638" 
y="210" 
dx="0,0,0,0,0,0,0,0,0,0" 
class="s3_418"
>了， 今天早上上了 </text>

<text 
x="494" 
y="236" 
dx="0,0" 
class="s3_418"
>好幾</text>

<text 
x="540" 
y="236" 
dx="0" 
class="s5_418"
>次</text>

<text 
x="563" 
y="224" 
dx="0" 
class="s6_418"
>3</text>

<text 
x="569" 
y="236" 
dx="0,0,0" 
class="s3_418"
>廁所。</text>

<text 
x="398" 
y="262" 
dx="0,0,0,0" 
class="s4_418"
>醫生： </text>

<text 
x="495" 
y="262" 
dx="0" 
class="s3_418"
>你</text>

<text 
x="517" 
y="262" 
dx="0" 
class="s5_418"
>把</text>

<text 
x="540" 
y="250" 
dx="0" 
class="s6_418"
>4</text>

<text 
x="546" 
y="262" 
dx="0,0,0,0,0,0,0,0,0" 
class="s3_418"
>蛋糕放在哪兒了？ </text>

<text 
x="398" 
y="288" 
dx="0,0,0,0,0" 
class="s4_418"
>高文中： </text>

<text 
x="495" 
y="288" 
dx="0,0,0,0,0,0,0" 
class="s3_418"
>放在冰箱里了。</text>

<text 
x="398" 
y="313" 
dx="0,0,0,0" 
class="s4_418"
>醫生： </text>

<text 
x="495" 
y="313" 
dx="0,0,0,0,0,0,0" 
class="s3_418"
>放了幾天了？ </text>

<text 
x="398" 
y="339" 
dx="0,0,0,0,0" 
class="s4_418"
>高文中： </text>

<text 
x="495" 
y="339" 
dx="0,0,0,0,0" 
class="s7_418"
>五、六 天</text>

<text 
x="592" 
y="328" 
dx="0" 
class="s8_418"
>a</text>

<text 
x="597" 
y="339" 
dx="0,0" 
class="s3_418"
>了。</text>

<text 
x="398" 
y="365" 
dx="0,0,0,0" 
class="s4_418"
>醫生： </text>

<text 
x="494" 
y="365" 
dx="0,0,0,0" 
class="s3_418"
>發燒嗎？</text>

<text 
x="398" 
y="391" 
dx="0,0,0,0,0" 
class="s4_418"
>高文中： </text>

<text 
x="494" 
y="391" 
dx="0,0,0,0" 
class="s3_418"
>不發燒。</text>

<text 
x="398" 
y="417" 
dx="0,0,0,0" 
class="s4_418"
>醫生： </text>

<text 
x="494" 
y="417" 
dx="0,0,0,0,0,0,0,0,0,0" 
class="s3_418"
>你躺下。先檢查一下。</text>

<text 
x="398" 
y="443" 
dx="0,0" 
class="s3_418"
>……</text>

<text 
x="398" 
y="469" 
dx="0,0,0,0" 
class="s4_418"
>醫生： </text>

<text 
x="494" 
y="469" 
dx="0,0,0,0,0,0,0,0,0,0,0" 
class="s3_418"
>你吃蛋糕把肚子吃壞了。</text>

<text 
x="398" 
y="495" 
dx="0,0,0,0,0" 
class="s4_418"
>高文中： </text>

<text 
x="494" 
y="495" 
dx="0,0,0,0,0" 
class="s3_418"
>得打針嗎？</text>

<text 
x="398" 
y="521" 
dx="0,0,0,0" 
class="s4_418"
>醫生： </text>

<text 
x="494" 
y="521" 
dx="0,0,0,0,0" 
class="s3_418"
>不用打針，</text>

<text 
x="609" 
y="521" 
dx="0" 
class="s7_418"
>吃</text>

<text 
x="632" 
y="521" 
dx="0,0" 
class="s3_418"
>這種</text>

<text 
x="678" 
y="521" 
dx="0" 
class="s7_418"
>藥</text>

<text 
x="701" 
y="510" 
dx="0" 
class="s8_418"
>b</text>

<text 
x="707" 
y="521" 
dx="0,0,0,0,0,0" 
class="s3_418"
>就可以。一天</text>

<text 
x="494" 
y="547" 
dx="0,0,0,0,0,0,0,0,0" 
class="s3_418"
>三次， 一次兩片。</text>

<text 
x="398" 
y="573" 
dx="0,0,0,0,0" 
class="s4_418"
>高文中： </text>

<text 
x="494" 
y="573" 
dx="0,0,0,0,0,0,0,0,0,0,0,0,0,0,0,0" 
class="s3_418"
>醫生，一天吃幾次？請您再說一遍。</text>

<text 
x="398" 
y="599" 
dx="0,0,0,0" 
class="s4_418"
>醫生： </text>

<text 
x="494" 
y="599" 
dx="0,0,0,0,0,0,0,0,0,0" 
class="s3_418"
>一天三次，一次兩片。</text>

<text 
x="398" 
y="625" 
dx="0,0,0,0,0" 
class="s4_418"
>高文中： </text>

<text 
x="494" 
y="625" 
dx="0,0,0" 
class="s3_418"
>好！飯</text>

<text 
x="563" 
y="625" 
dx="0" 
class="s7_418"
>前</text>

<text 
x="586" 
y="613" 
dx="0" 
class="s8_418"
>c</text>

<text 
x="591" 
y="625" 
dx="0,0,0,0,0,0,0" 
class="s3_418"
>吃還是飯後吃？</text>

<text 
x="398" 
y="651" 
dx="0,0,0,0" 
class="s4_418"
>醫生： </text>

<text 
x="494" 
y="651" 
dx="0,0,0,0,0,0,0,0,0,0,0,0,0,0,0,0" 
class="s3_418"
>飯前飯後都可以。不過，你最好二十</text>

<text 
x="494" 
y="677" 
dx="0,0,0,0,0,0,0,0" 
class="s3_418"
>四小時不要吃飯。</text>

<text 
x="398" 
y="703" 
dx="0,0,0,0,0" 
class="s4_418"
>高文中： </text>

<text 
x="494" 
y="703" 
dx="0,0,0,0,0,0,0,0,0,0,0,0,0,0,0" 
class="s3_418"
>那我要餓死了。不行，這個辦法 </text>

<text 
x="494" 
y="729" 
dx="0,0,0" 
class="s3_418"
>不好！</text>

<path d="M243.8,137.8l143.7,0l0,-45.2l-143.7,0l0,45.2Z" class="g5_418" />
<text 
x="266" 
y="112" 
dx="0,0,0,0,-0.4,-0.2,0,0,0,0,0,0,0,0" 
class="s9_418"
>My Stomach Is </text>

<text 
x="281" 
y="129" 
dx="0,0,0,0,0,0,0,0,0,0,0" 
class="s9_418"
>Killing Me!</text>

<path d="M281.6,57.4c0,0,-15.3,0,-15.3,15.3l0,3.1c0,0,0,15.2,15.3,15.2l68.1,0c0,0,15.3,0,15.3,-15.2l0,-3.1c0,0,0,-15.3,-15.3,-15.3Z" class="g5_418" />
<text 
x="282" 
y="80" 
dx="0,-0.3,-0.3,-0.3,-0.3,-0.3,-0.3,-0.3,-0.3,-0.3" 
class="s10_418"
>Dialogue 1</text>

<path d="M281.6,56.6c-0.2,0,-16.1,0.2,-16.1,16.1l0,3.1c0,0.1,0.2,16,16.1,16l68.1,0c0.2,0,16.1,-0.2,16.1,-16l0,-3.1c0,-0.2,-0.2,-16.1,-16.1,-16.1l-68.1,0Z" class="g6_418" />
<path d="M281.6,58.7c-0.6,0,-14,0.2,-14,14l0,3.1c0,0.5,0.2,14,14,14l68.1,0c0.6,0,14,-0.2,14,-14l0,-3.1c0,-0.6,-0.2,-14,-14,-14l-68.1,0Z" class="g7_418" />


<!-- Any embedded fonts defined here -->
<style type="text/css" ><![CDATA[

@font-face {
	font-family: LibreFranklin-SemiBold_4gw;
	src: url("fonts/LibreFranklin-SemiBold_4gw.woff") format("woff");
}

@font-face {
	font-family: LibreFranklin-ExtraBold_4hh;
	src: url("fonts/LibreFranklin-ExtraBold_4hh.woff") format("woff");
}

@font-face {
	font-family: STKaitiTC-Regular_4h8;
	src: url("fonts/STKaitiTC-Regular_4h8.woff") format("woff");
}

@font-face {
	font-family: LibreFranklin-Light_4ho;
	src: url("fonts/LibreFranklin-Light_4ho.woff") format("woff");
}

@font-face {
	font-family: ProximaNova-Extrabld_4hk;
	src: url("fonts/ProximaNova-Extrabld_4hk.woff") format("woff");
}

]]></style>

</svg>
