<?xml version="1.0" encoding="UTF-8" standalone="no"?>
<!DOCTYPE svg PUBLIC "-//W3C//DTD SVG 1.1//EN"
"http://www.w3.org/Graphics/SVG/1.1/DTD/svg11.dtd">


<!-- Page 240 -->
<svg x="0" y="0" width="921" height="1196" viewBox="0 0 921 1196" version="1.1" xmlns="http://www.w3.org/2000/svg" xmlns:xlink="http://www.w3.org/1999/xlink"
style="display: block;margin-left: auto;margin-right: auto;">
<defs>
<clipPath id="c0_240"><path d="M0,1196.3L0,0L921.3,0l0,1196.3Z" /></clipPath>

<style type="text/css"><![CDATA[

.g1_240{
fill: none;
stroke: #872B91;
stroke-width: 2.2916667;
stroke-linecap: butt;
stroke-linejoin: miter;
}
.g2_240{
fill: none;
stroke: #872B91;
stroke-width: 1.5277778;
stroke-linecap: butt;
stroke-linejoin: miter;
stroke-miterlimit: 4;
}
.g3_240{
fill: none;
stroke: #872B91;
stroke-width: 0.5102778;
stroke-linecap: butt;
stroke-linejoin: miter;
stroke-miterlimit: 4;
}
.g4_240{
fill: none;
stroke: #872B91;
stroke-width: 0.7638889;
stroke-linecap: butt;
stroke-linejoin: miter;
stroke-miterlimit: 4;
}
.g5_240{
fill: #872B91;
}
.g6_240{
fill: none;
stroke: #B2B3B7;
stroke-width: 1.5277778;
stroke-linecap: butt;
stroke-linejoin: miter;
stroke-miterlimit: 4;
}

.s1_240{
font-size: 18.33px;
font-family: LibreFranklin-ExtraBold_47v;
fill: #872B91;
}
.s2_240{
font-size: 22.92px;
font-family: LibreFranklin-Bold_47x;
fill: #872B91;
}
.s3_240{
font-size: 15.28px;
font-family: LibreFranklin-Regular_48f;
fill: #3F3F40;
}
.s4_240{
font-size: 9.55px;
font-family: LibreFranklin-Medium_47y;
fill: #872B91;
}
.s5_240{
font-size: 11.08px;
font-family: LibreFranklin-SemiBold_487;
fill: #FFFFFF;
}

]]></style>

</defs>
<path d="M0,0
L0,1196
L921,1196
L921,0 Z " 
fill="#FFFFFF" stroke="none" />
<path d="M119.1,90.3l12.9,0" class="g1_240" />
<text 
x="119" 
y="86" 
dx="0,0" 
class="s1_240"
>E </text>

<text 
x="387" 
y="91" 
dx="0,0,0,0,0,0,0,0,0,0,0,0,0,0,0,0,0" 
class="s2_240"
>Behind the façade</text>

<text 
x="157" 
y="153" 
dx="0,-1.3,0,-0.4,0,0,0,0,0,0,0,0,0,0,0,0,0,0,0,0,0,0,0,0,0,0,0,0,0,0,0,-0.2,0,0,0,0,0,0,0,0,0,0,0,0,0,0,0,0,0,0,0,0,0,0,0,0,0,0,0,-0.2,0,0,0,0,0,0,0,0,0,0,0,0,0,0,0,0,0,0,0,0,0,0.4,-0.9,0" 
class="s3_240"
>Take a look at the floor plan of this apartment. Name the rooms and describe what’s </text>

<text 
x="157" 
y="180" 
dx="0,0,0,0,0,0,0,0,0,-0.2,0,0,0,0,0,0" 
class="s3_240"
>in each of them.</text>

<path d="M146.6,56.1l0,53.5l0,0.8l0.8,0l676.9,0l0.8,0l0,-0.8l0,-53.5l0,-0.7l-0.8,0l-676.9,0l-0.8,0l0,0.7Z" class="g2_240" />
<path d="M148.7,108.3l674.3,0l0,-50.9l-674.3,0l0,50.9Z" class="g3_240" />
<text 
x="721" 
y="88" 
dx="0,0,0,0,0,0,0,-1,-1,0,0,0,0,0" 
class="s4_240"
>PRESENTATIONAL</text>

<path d="M719.9,91l90.9,0l0,-14.4l-90.9,0l0,14.4Z" class="g4_240" />
<image preserveAspectRatio="none" x="109" y="223" width="163" height="54" xlink:href="240/img/1.png" />
<image preserveAspectRatio="none" x="271" y="223" width="163" height="54" xlink:href="240/img/2.png" />
<image preserveAspectRatio="none" x="434" y="223" width="162" height="54" xlink:href="240/img/3.png" />
<image preserveAspectRatio="none" x="596" y="223" width="163" height="54" xlink:href="240/img/4.png" />
<image preserveAspectRatio="none" x="758" y="223" width="109" height="54" xlink:href="240/img/5.png" />
<image preserveAspectRatio="none" x="109" y="277" width="163" height="54" xlink:href="240/img/6.png" />
<image preserveAspectRatio="none" x="271" y="277" width="163" height="54" xlink:href="240/img/7.png" />
<image preserveAspectRatio="none" x="434" y="277" width="162" height="54" xlink:href="240/img/8.png" />
<image preserveAspectRatio="none" x="596" y="277" width="163" height="54" xlink:href="240/img/9.png" />
<image preserveAspectRatio="none" x="758" y="277" width="109" height="54" xlink:href="240/img/10.png" />
<image preserveAspectRatio="none" x="109" y="331" width="163" height="55" xlink:href="240/img/11.png" />
<image preserveAspectRatio="none" x="271" y="331" width="163" height="55" xlink:href="240/img/12.png" />
<image preserveAspectRatio="none" x="434" y="331" width="162" height="55" xlink:href="240/img/13.png" />
<image preserveAspectRatio="none" x="596" y="331" width="163" height="55" xlink:href="240/img/14.png" />
<image preserveAspectRatio="none" x="758" y="331" width="109" height="55" xlink:href="240/img/15.png" />
<image preserveAspectRatio="none" x="109" y="385" width="163" height="55" xlink:href="240/img/16.png" />
<image preserveAspectRatio="none" x="271" y="385" width="163" height="55" xlink:href="240/img/17.png" />
<image preserveAspectRatio="none" x="434" y="385" width="162" height="55" xlink:href="240/img/18.png" />
<image preserveAspectRatio="none" x="596" y="385" width="163" height="55" xlink:href="240/img/19.png" />
<image preserveAspectRatio="none" x="758" y="385" width="109" height="55" xlink:href="240/img/20.png" />
<image preserveAspectRatio="none" x="109" y="439" width="163" height="55" xlink:href="240/img/21.png" />
<image preserveAspectRatio="none" x="271" y="439" width="163" height="55" xlink:href="240/img/22.png" />
<image preserveAspectRatio="none" x="434" y="439" width="162" height="55" xlink:href="240/img/23.png" />
<image preserveAspectRatio="none" x="596" y="439" width="163" height="55" xlink:href="240/img/24.png" />
<image preserveAspectRatio="none" x="758" y="439" width="109" height="55" xlink:href="240/img/25.png" />
<image preserveAspectRatio="none" x="109" y="493" width="163" height="55" xlink:href="240/img/26.png" />
<image preserveAspectRatio="none" x="271" y="493" width="163" height="55" xlink:href="240/img/27.png" />
<image preserveAspectRatio="none" x="434" y="493" width="162" height="55" xlink:href="240/img/28.png" />
<image preserveAspectRatio="none" x="596" y="493" width="163" height="55" xlink:href="240/img/29.png" />
<image preserveAspectRatio="none" x="758" y="493" width="109" height="55" xlink:href="240/img/30.png" />
<image preserveAspectRatio="none" x="109" y="548" width="163" height="54" xlink:href="240/img/31.png" />
<image preserveAspectRatio="none" x="271" y="548" width="163" height="54" xlink:href="240/img/32.png" />
<image preserveAspectRatio="none" x="434" y="548" width="162" height="54" xlink:href="240/img/33.png" />
<image preserveAspectRatio="none" x="596" y="548" width="163" height="54" xlink:href="240/img/34.png" />
<image preserveAspectRatio="none" x="758" y="548" width="109" height="54" xlink:href="240/img/35.png" />
<image preserveAspectRatio="none" x="109" y="602" width="163" height="54" xlink:href="240/img/36.png" />
<image preserveAspectRatio="none" x="271" y="602" width="163" height="54" xlink:href="240/img/37.png" />
<image preserveAspectRatio="none" x="434" y="602" width="162" height="54" xlink:href="240/img/38.png" />
<image preserveAspectRatio="none" x="596" y="602" width="163" height="54" xlink:href="240/img/39.png" />
<image preserveAspectRatio="none" x="758" y="602" width="109" height="54" xlink:href="240/img/40.png" />
<image preserveAspectRatio="none" x="109" y="656" width="163" height="54" xlink:href="240/img/41.png" />
<image preserveAspectRatio="none" x="271" y="656" width="163" height="54" xlink:href="240/img/42.png" />
<image preserveAspectRatio="none" x="434" y="656" width="162" height="54" xlink:href="240/img/43.png" />
<image preserveAspectRatio="none" x="596" y="656" width="163" height="54" xlink:href="240/img/44.png" />
<image preserveAspectRatio="none" x="758" y="656" width="109" height="54" xlink:href="240/img/45.png" />
<image preserveAspectRatio="none" x="109" y="710" width="163" height="54" xlink:href="240/img/46.png" />
<image preserveAspectRatio="none" x="271" y="710" width="163" height="54" xlink:href="240/img/47.png" />
<image preserveAspectRatio="none" x="434" y="710" width="162" height="54" xlink:href="240/img/48.png" />
<image preserveAspectRatio="none" x="596" y="710" width="163" height="54" xlink:href="240/img/49.png" />
<image preserveAspectRatio="none" x="758" y="710" width="109" height="54" xlink:href="240/img/50.png" />
<image preserveAspectRatio="none" x="109" y="764" width="163" height="54" xlink:href="240/img/51.png" />
<image preserveAspectRatio="none" x="271" y="764" width="163" height="54" xlink:href="240/img/52.png" />
<image preserveAspectRatio="none" x="434" y="764" width="162" height="54" xlink:href="240/img/53.png" />
<image preserveAspectRatio="none" x="596" y="764" width="163" height="54" xlink:href="240/img/54.png" />
<image preserveAspectRatio="none" x="758" y="764" width="109" height="54" xlink:href="240/img/55.png" />
<image preserveAspectRatio="none" x="109" y="818" width="163" height="54" xlink:href="240/img/56.png" />
<image preserveAspectRatio="none" x="271" y="818" width="163" height="54" xlink:href="240/img/57.png" />
<image preserveAspectRatio="none" x="434" y="818" width="162" height="54" xlink:href="240/img/58.png" />
<image preserveAspectRatio="none" x="596" y="818" width="163" height="54" xlink:href="240/img/59.png" />
<image preserveAspectRatio="none" x="758" y="818" width="109" height="54" xlink:href="240/img/60.png" />
<image preserveAspectRatio="none" x="109" y="872" width="163" height="55" xlink:href="240/img/61.png" />
<image preserveAspectRatio="none" x="271" y="872" width="163" height="55" xlink:href="240/img/62.png" />
<image preserveAspectRatio="none" x="434" y="872" width="162" height="55" xlink:href="240/img/63.png" />
<image preserveAspectRatio="none" x="596" y="872" width="163" height="55" xlink:href="240/img/64.png" />
<image preserveAspectRatio="none" x="758" y="872" width="109" height="55" xlink:href="240/img/65.png" />
<image preserveAspectRatio="none" x="109" y="926" width="163" height="55" xlink:href="240/img/66.png" />
<image preserveAspectRatio="none" x="271" y="926" width="163" height="55" xlink:href="240/img/67.png" />
<image preserveAspectRatio="none" x="434" y="926" width="162" height="55" xlink:href="240/img/68.png" />
<image preserveAspectRatio="none" x="596" y="926" width="163" height="55" xlink:href="240/img/69.png" />
<image preserveAspectRatio="none" x="758" y="926" width="109" height="55" xlink:href="240/img/70.png" />
<path d="M881.9,1196.3l39.4,0L921.3,0L881.9,0l0,1196.3Z" class="g5_240" />
<g clip-path="url(#c0_240)">
<path d="M881.9,1209.2l67.2,0l0,-1222.1l-67.2,0l0,1222.1Z" class="g6_240" />
</g>
<text 
transform="matrix(0, 1, -1, 0, 890, 769)"
dx="0,1,1,1,1,1,1,1,1,1" 
class="s5_240"
>Lesson 17 </text>

<text 
transform="matrix(0, 1, -1, 0, 890, 840)"
dx="0,1" 
class="s5_240"
>| </text>

<text 
transform="matrix(0, 1, -1, 0, 890, 854)"
dx="0,1,1,1,1,1,1,1,1,1,1,1,1,1,1,1,1,1,1,1,1" 
class="s5_240"
>Renting an Apartment </text>

<text 
transform="matrix(0, 1, -1, 0, 890, 1001)"
dx="0,1" 
class="s5_240"
>| </text>

<text 
transform="matrix(0, 1, -1, 0, 890, 1015)"
dx="0,1,1,1,1,1,1,0.8,1,1,1,0.9,1,1,1,1,1,1" 
class="s5_240"
>Language Practice </text>

<text 
transform="matrix(0, 1, -1, 0, 890, 1151)"
dx="0,1,1,-2.3" 
class="s5_240"
>219 </text>



<!-- Any embedded fonts defined here -->
<style type="text/css" ><![CDATA[

@font-face {
	font-family: LibreFranklin-Medium_47y;
	src: url("fonts/LibreFranklin-Medium_47y.woff") format("woff");
}

@font-face {
	font-family: LibreFranklin-Bold_47x;
	src: url("fonts/LibreFranklin-Bold_47x.woff") format("woff");
}

@font-face {
	font-family: LibreFranklin-Regular_48f;
	src: url("fonts/LibreFranklin-Regular_48f.woff") format("woff");
}

@font-face {
	font-family: LibreFranklin-SemiBold_487;
	src: url("fonts/LibreFranklin-SemiBold_487.woff") format("woff");
}

@font-face {
	font-family: LibreFranklin-ExtraBold_47v;
	src: url("fonts/LibreFranklin-ExtraBold_47v.woff") format("woff");
}

]]></style>

</svg>
