<?xml version="1.0" encoding="UTF-8" standalone="no"?>
<!DOCTYPE svg PUBLIC "-//W3C//DTD SVG 1.1//EN"
"http://www.w3.org/Graphics/SVG/1.1/DTD/svg11.dtd">


<!-- Page 393 -->
<svg x="0" y="0" width="921" height="1196" viewBox="0 0 921 1196" version="1.1" xmlns="http://www.w3.org/2000/svg" xmlns:xlink="http://www.w3.org/1999/xlink"
style="display: block;margin-left: auto;margin-right: auto;">
<defs>

<style type="text/css"><![CDATA[

.g1_393{
fill: #F0F1F2;
}
.g2_393{
fill: #BDBEC1;
}
.g3_393{
fill: none;
stroke: #BDBEC1;
stroke-width: 0.38194445;
stroke-linecap: butt;
stroke-linejoin: miter;
}
.g4_393{
fill: none;
stroke: #DADBDD;
stroke-width: 1.5277778;
stroke-linecap: butt;
stroke-linejoin: miter;
}
.g5_393{
fill: none;
stroke: #BDBEC1;
stroke-width: 1.5277778;
stroke-linecap: butt;
stroke-linejoin: miter;
}
.g6_393{
fill: #57585A;
stroke: #B2B3B7;
stroke-width: 1.5277778;
stroke-linecap: butt;
stroke-linejoin: miter;
stroke-miterlimit: 4;
}

.s1_393{
font-size: 14.51px;
font-family: LibreFranklin-SemiBold_4gw;
fill: #57585A;
}
.s2_393{
font-size: 15.28px;
font-family: LibreFranklin-Regular_4h1;
fill: #3F3F40;
}
.s3_393{
font-size: 24.44px;
font-family: STKaitiSC-Regular_44y;
fill: #57585A;
}
.s4_393{
font-size: 24.44px;
font-family: STKaitiTC-Regular_4h8;
fill: #57585A;
}
.s5_393{
font-size: 14.90px;
font-family: GentiumBookBasic-Italic_3mn;
fill: #3F3F40;
}
.s6_393{
font-size: 14.51px;
font-family: LibreFranklin-SemiBold_4gw;
fill: #77787B;
}
.s7_393{
font-size: 14.51px;
font-family: LibreFranklin-Regular_4h1;
fill: #3F3F40;
}
.s8_393{
font-size: 19.86px;
font-family: LibreFranklin-SemiBold_4gw;
fill: #3F3F40;
}
.s9_393{
font-size: 10.69px;
font-family: LibreFranklin-SemiBold_4gw;
fill: #FFFFFF;
}

]]></style>

</defs>
<path d="M0,0
L0,1196
L921,1196
L921,0 Z " 
fill="#FFFFFF" stroke="none" />
<path d="M55,95l178.8,0l0,42.7L55,137.7L55,95Zm178.8,0l196.9,0l0,42.7l-196.9,0l0,-42.7Zm196.9,0l196.9,0l0,42.7l-196.9,0l0,-42.7Zm196.9,0l104.5,0l0,42.7l-104.5,0l0,-42.7Zm104.5,0l70.4,0l0,42.7l-70.4,0l0,-42.7Zm70.4,0l63.8,0l0,42.7l-63.8,0l0,-42.7ZM55,179.9l178.8,0l0,42.2L55,222.1l0,-42.2Zm178.8,0l196.9,0l0,42.2l-196.9,0l0,-42.2Zm196.9,0l196.9,0l0,42.2l-196.9,0l0,-42.2Zm196.9,0l104.5,0l0,42.2l-104.5,0l0,-42.2Zm104.5,0l70.4,0l0,42.2l-70.4,0l0,-42.2Zm70.4,0l63.8,0l0,42.2l-63.8,0l0,-42.2ZM55,348.5l178.8,0l0,42.2L55,390.7l0,-42.2Zm178.8,0l196.9,0l0,42.2l-196.9,0l0,-42.2Zm196.9,0l196.9,0l0,42.2l-196.9,0l0,-42.2Zm196.9,0l104.5,0l0,42.2l-104.5,0l0,-42.2Zm104.5,0l70.4,0l0,42.2l-70.4,0l0,-42.2Zm70.4,0l63.8,0l0,42.2l-63.8,0l0,-42.2ZM55,432.9l178.8,0l0,42.1L55,475l0,-42.1Zm178.8,0l196.9,0l0,42.1l-196.9,0l0,-42.1Zm196.9,0l196.9,0l0,42.1l-196.9,0l0,-42.1Zm196.9,0l104.5,0l0,42.1l-104.5,0l0,-42.1Zm104.5,0l70.4,0l0,42.1l-70.4,0l0,-42.1Zm70.4,0l63.8,0l0,42.1l-63.8,0l0,-42.1ZM55,517.2l178.8,0l0,42.2L55,559.4l0,-42.2Zm178.8,0l196.9,0l0,42.2l-196.9,0l0,-42.2Zm196.9,0l196.9,0l0,42.2l-196.9,0l0,-42.2Zm196.9,0l104.5,0l0,42.2l-104.5,0l0,-42.2Zm104.5,0l70.4,0l0,42.2l-70.4,0l0,-42.2Zm70.4,0l63.8,0l0,42.2l-63.8,0l0,-42.2ZM55,685.8l178.8,0l0,42.2L55,728l0,-42.2Zm178.8,0l196.9,0l0,42.2l-196.9,0l0,-42.2Zm196.9,0l196.9,0l0,42.2l-196.9,0l0,-42.2Zm196.9,0l104.5,0l0,42.2l-104.5,0l0,-42.2Zm104.5,0l70.4,0l0,42.2l-70.4,0l0,-42.2Zm70.4,0l63.8,0l0,42.2l-63.8,0l0,-42.2ZM55,770.2l178.8,0l0,46.8L55,817l0,-46.8Zm178.8,0l196.9,0l0,46.8l-196.9,0l0,-46.8Zm196.9,0l196.9,0l0,46.8l-196.9,0l0,-46.8Zm196.9,0l104.5,0l0,46.8l-104.5,0l0,-46.8Zm104.5,0l70.4,0l0,46.8l-70.4,0l0,-46.8Zm70.4,0l63.8,0l0,46.8l-63.8,0l0,-46.8ZM55,859.2l178.8,0l0,42.1L55,901.3l0,-42.1Zm178.8,0l196.9,0l0,42.1l-196.9,0l0,-42.1Zm196.9,0l196.9,0l0,42.1l-196.9,0l0,-42.1Zm196.9,0l104.5,0l0,42.1l-104.5,0l0,-42.1Zm104.5,0l70.4,0l0,42.1l-70.4,0l0,-42.1Zm70.4,0l63.8,0l0,42.1l-63.8,0l0,-42.1ZM55,943.5l178.8,0l0,42.2L55,985.7l0,-42.2Zm178.8,0l196.9,0l0,42.2l-196.9,0l0,-42.2Zm196.9,0l196.9,0l0,42.2l-196.9,0l0,-42.2Zm196.9,0l104.5,0l0,42.2l-104.5,0l0,-42.2Zm104.5,0l70.4,0l0,42.2l-70.4,0l0,-42.2Zm70.4,0l63.8,0l0,42.2l-63.8,0l0,-42.2ZM55,1027.8l178.8,0l0,42.2L55,1070l0,-42.2Zm178.8,0l196.9,0l0,42.2l-196.9,0l0,-42.2Zm196.9,0l196.9,0l0,42.2l-196.9,0l0,-42.2Zm196.9,0l104.5,0l0,42.2l-104.5,0l0,-42.2Zm104.5,0l70.4,0l0,42.2l-70.4,0l0,-42.2Zm70.4,0l63.8,0l0,42.2l-63.8,0l0,-42.2Z" class="g1_393" />
<path d="M55,264.2l811.3,0l0,42.2L55,306.4l0,-42.2Zm0,337.3l811.3,0l0,42.2L55,643.7l0,-42.2Z" class="g2_393" />
<path d="M55,264.2l178.8,0" class="g3_393" />
<path d="M233.8,264.2l196.9,0" class="g3_393" />
<path d="M430.7,264.2l196.9,0" class="g3_393" />
<path d="M627.6,264.2l104.5,0" class="g3_393" />
<path d="M732.1,264.2l70.4,0" class="g3_393" />
<path d="M802.5,264.2l63.8,0" class="g3_393" />
<path d="M55,306.4l178.8,0" class="g3_393" />
<path d="M233.8,306.4l196.9,0" class="g3_393" />
<path d="M430.7,306.4l196.9,0" class="g3_393" />
<path d="M627.6,306.4l104.5,0" class="g3_393" />
<path d="M732.1,306.4l70.4,0" class="g3_393" />
<path d="M802.5,306.4l63.8,0" class="g3_393" />
<path d="M55,601.5l178.8,0" class="g3_393" />
<path d="M233.8,601.5l196.9,0" class="g3_393" />
<path d="M430.7,601.5l196.9,0" class="g3_393" />
<path d="M627.6,601.5l104.5,0" class="g3_393" />
<path d="M732.1,601.5l70.4,0" class="g3_393" />
<path d="M802.5,601.5l63.8,0" class="g3_393" />
<path d="M55,643.7l178.8,0" class="g3_393" />
<path d="M233.8,643.7l196.9,0" class="g3_393" />
<path d="M430.7,643.7l196.9,0" class="g3_393" />
<path d="M627.6,643.7l104.5,0" class="g3_393" />
<path d="M732.1,643.7l70.4,0" class="g3_393" />
<path d="M802.5,643.7l63.8,0" class="g3_393" />
<path d="M55,137.7l178.8,0" class="g3_393" />
<path d="M233.8,137.7l196.9,0" class="g3_393" />
<path d="M430.7,137.7l196.9,0" class="g3_393" />
<path d="M627.6,137.7l104.5,0" class="g3_393" />
<path d="M732.1,137.7l70.4,0" class="g3_393" />
<path d="M802.5,137.7l63.8,0" class="g3_393" />
<path d="M55,179.9l178.8,0" class="g3_393" />
<path d="M233.8,179.9l196.9,0" class="g3_393" />
<path d="M430.7,179.9l196.9,0" class="g3_393" />
<path d="M627.6,179.9l104.5,0" class="g3_393" />
<path d="M732.1,179.9l70.4,0" class="g3_393" />
<path d="M802.5,179.9l63.8,0" class="g3_393" />
<path d="M55,222.1l178.8,0" class="g3_393" />
<path d="M233.8,222.1l196.9,0" class="g3_393" />
<path d="M430.7,222.1l196.9,0" class="g3_393" />
<path d="M627.6,222.1l104.5,0" class="g3_393" />
<path d="M732.1,222.1l70.4,0" class="g3_393" />
<path d="M802.5,222.1l63.8,0" class="g3_393" />
<path d="M55,348.5l178.8,0" class="g3_393" />
<path d="M233.8,348.5l196.9,0" class="g3_393" />
<path d="M430.7,348.5l196.9,0" class="g3_393" />
<path d="M627.6,348.5l104.5,0" class="g3_393" />
<path d="M732.1,348.5l70.4,0" class="g3_393" />
<path d="M802.5,348.5l63.8,0" class="g3_393" />
<path d="M55,390.7l178.8,0" class="g3_393" />
<path d="M233.8,390.7l196.9,0" class="g3_393" />
<path d="M430.7,390.7l196.9,0" class="g3_393" />
<path d="M627.6,390.7l104.5,0" class="g3_393" />
<path d="M732.1,390.7l70.4,0" class="g3_393" />
<path d="M802.5,390.7l63.8,0" class="g3_393" />
<path d="M55,432.9l178.8,0" class="g3_393" />
<path d="M233.8,432.9l196.9,0" class="g3_393" />
<path d="M430.7,432.9l196.9,0" class="g3_393" />
<path d="M627.6,432.9l104.5,0" class="g3_393" />
<path d="M732.1,432.9l70.4,0" class="g3_393" />
<path d="M802.5,432.9l63.8,0" class="g3_393" />
<path d="M55,475l178.8,0" class="g3_393" />
<path d="M233.8,475l196.9,0" class="g3_393" />
<path d="M430.7,475l196.9,0" class="g3_393" />
<path d="M627.6,475l104.5,0" class="g3_393" />
<path d="M732.1,475l70.4,0" class="g3_393" />
<path d="M802.5,475l63.8,0" class="g3_393" />
<path d="M55,517.2l178.8,0" class="g3_393" />
<path d="M233.8,517.2l196.9,0" class="g3_393" />
<path d="M430.7,517.2l196.9,0" class="g3_393" />
<path d="M627.6,517.2l104.5,0" class="g3_393" />
<path d="M732.1,517.2l70.4,0" class="g3_393" />
<path d="M802.5,517.2l63.8,0" class="g3_393" />
<path d="M55,559.4l178.8,0" class="g3_393" />
<path d="M233.8,559.4l196.9,0" class="g3_393" />
<path d="M430.7,559.4l196.9,0" class="g3_393" />
<path d="M627.6,559.4l104.5,0" class="g3_393" />
<path d="M732.1,559.4l70.4,0" class="g3_393" />
<path d="M802.5,559.4l63.8,0" class="g3_393" />
<path d="M55,685.8l178.8,0" class="g3_393" />
<path d="M233.8,685.8l196.9,0" class="g3_393" />
<path d="M430.7,685.8l196.9,0" class="g3_393" />
<path d="M627.6,685.8l104.5,0" class="g3_393" />
<path d="M732.1,685.8l70.4,0" class="g3_393" />
<path d="M802.5,685.8l63.8,0" class="g3_393" />
<path d="M55,728l178.8,0" class="g3_393" />
<path d="M233.8,728l196.9,0" class="g3_393" />
<path d="M430.7,728l196.9,0" class="g3_393" />
<path d="M627.6,728l104.5,0" class="g3_393" />
<path d="M732.1,728l70.4,0" class="g3_393" />
<path d="M802.5,728l63.8,0" class="g3_393" />
<path d="M55,770.2l178.8,0" class="g3_393" />
<path d="M233.8,770.2l196.9,0" class="g3_393" />
<path d="M430.7,770.2l196.9,0" class="g3_393" />
<path d="M627.6,770.2l104.5,0" class="g3_393" />
<path d="M732.1,770.2l70.4,0" class="g3_393" />
<path d="M802.5,770.2l63.8,0" class="g3_393" />
<path d="M55,817l178.8,0" class="g3_393" />
<path d="M233.8,817l196.9,0" class="g3_393" />
<path d="M430.7,817l196.9,0" class="g3_393" />
<path d="M627.6,817l104.5,0" class="g3_393" />
<path d="M732.1,817l70.4,0" class="g3_393" />
<path d="M802.5,817l63.8,0" class="g3_393" />
<path d="M55,859.2l178.8,0" class="g3_393" />
<path d="M233.8,859.2l196.9,0" class="g3_393" />
<path d="M430.7,859.2l196.9,0" class="g3_393" />
<path d="M627.6,859.2l104.5,0" class="g3_393" />
<path d="M732.1,859.2l70.4,0" class="g3_393" />
<path d="M802.5,859.2l63.8,0" class="g3_393" />
<path d="M55,901.3l178.8,0" class="g3_393" />
<path d="M233.8,901.3l196.9,0" class="g3_393" />
<path d="M430.7,901.3l196.9,0" class="g3_393" />
<path d="M627.6,901.3l104.5,0" class="g3_393" />
<path d="M732.1,901.3l70.4,0" class="g3_393" />
<path d="M802.5,901.3l63.8,0" class="g3_393" />
<path d="M55,943.5l178.8,0" class="g3_393" />
<path d="M233.8,943.5l196.9,0" class="g3_393" />
<path d="M430.7,943.5l196.9,0" class="g3_393" />
<path d="M627.6,943.5l104.5,0" class="g3_393" />
<path d="M732.1,943.5l70.4,0" class="g3_393" />
<path d="M802.5,943.5l63.8,0" class="g3_393" />
<path d="M55,985.7l178.8,0" class="g3_393" />
<path d="M233.8,985.7l196.9,0" class="g3_393" />
<path d="M430.7,985.7l196.9,0" class="g3_393" />
<path d="M627.6,985.7l104.5,0" class="g3_393" />
<path d="M732.1,985.7l70.4,0" class="g3_393" />
<path d="M802.5,985.7l63.8,0" class="g3_393" />
<path d="M55,1027.8l178.8,0" class="g3_393" />
<path d="M233.8,1027.8l196.9,0" class="g3_393" />
<path d="M430.7,1027.8l196.9,0" class="g3_393" />
<path d="M627.6,1027.8l104.5,0" class="g3_393" />
<path d="M732.1,1027.8l70.4,0" class="g3_393" />
<path d="M802.5,1027.8l63.8,0" class="g3_393" />
<path d="M55,1070l178.8,0" class="g3_393" />
<path d="M233.8,1070l196.9,0" class="g3_393" />
<path d="M430.7,1070l196.9,0" class="g3_393" />
<path d="M627.6,1070l104.5,0" class="g3_393" />
<path d="M732.1,1070l70.4,0" class="g3_393" />
<path d="M802.5,1070l63.8,0" class="g3_393" />
<path d="M55,95l178.8,0" class="g4_393" />
<path d="M233.8,95l196.9,0" class="g4_393" />
<path d="M430.7,95l196.9,0" class="g4_393" />
<path d="M627.6,95l104.5,0" class="g4_393" />
<path d="M732.1,95l70.4,0" class="g4_393" />
<path d="M802.5,95l63.8,0" class="g4_393" />
<path d="M55,1112.7l178.8,0" class="g5_393" />
<path d="M233.8,1112.7l196.9,0" class="g5_393" />
<path d="M430.7,1112.7l196.9,0" class="g5_393" />
<path d="M627.6,1112.7l104.5,0" class="g5_393" />
<path d="M732.1,1112.7l70.4,0" class="g5_393" />
<path d="M802.5,1112.7l63.8,0" class="g5_393" />
<text 
x="61" 
y="82" 
dx="0,0,0,0,0,0,0" 
class="s1_393"
>English</text>

<text 
x="239" 
y="82" 
dx="0,0,0,0,0,0,0,0,0,0" 
class="s1_393"
>Simplified</text>

<text 
x="436" 
y="82" 
dx="0,-1.2,-0.1,0,0,0,0,0,0,0,0" 
class="s1_393"
>Traditional</text>

<text 
x="633" 
y="82" 
dx="0,0,0,0,0,0" 
class="s1_393"
>Pinyin</text>

<text 
x="738" 
y="75" 
dx="0,0,0,0,0,0,-0.2,0" 
class="s1_393"
>Part of </text>

<text 
x="738" 
y="88" 
dx="0,0,0,0,0,0" 
class="s1_393"
>Speech</text>

<text 
x="808" 
y="81" 
dx="0,0,0,0,0,0" 
class="s1_393"
>Lesson</text>

<text 
x="61" 
y="124" 
dx="0,0,-0.2,0,0,0,0,0,0,0,0,0" 
class="s2_393"
>previous one</text>

<text 
x="239" 
y="125" 
dx="0,0" 
class="s3_393"
>上个</text>

<text 
x="436" 
y="125" 
dx="0,0" 
class="s4_393"
>上個</text>

<text 
x="633" 
y="123" 
dx="0,0.2,0.2,0.2,0.2,0.2,0.2,0.2" 
class="s5_393"
>shàng ge</text>

<text 
x="808" 
y="123" 
dx="0" 
class="s6_393"
>7</text>

<text 
x="61" 
y="166" 
dx="0,0,-0.2,0,0,0,0,0,0,0,0,0,0" 
class="s2_393"
>pronunciation</text>

<text 
x="239" 
y="167" 
dx="0,0" 
class="s3_393"
>发音</text>

<text 
x="436" 
y="167" 
dx="0,0" 
class="s4_393"
>發音</text>

<text 
x="633" 
y="165" 
dx="0,0.2,0.2,0.2,0.2" 
class="s5_393"
>fāyīn</text>

<text 
x="738" 
y="165" 
dx="0" 
class="s7_393"
>n</text>

<text 
x="808" 
y="165" 
dx="0" 
class="s6_393"
>8</text>

<text 
x="61" 
y="208" 
dx="0,0,0,0,0,0,0,0,0,0" 
class="s2_393"
>put, place</text>

<text 
x="239" 
y="209" 
dx="0" 
class="s3_393"
>放</text>

<text 
x="633" 
y="207" 
dx="0,0.2,0.2,0.2" 
class="s5_393"
>fàng</text>

<text 
x="738" 
y="207" 
dx="0" 
class="s7_393"
>v</text>

<text 
x="808" 
y="207" 
dx="0,0" 
class="s6_393"
>12</text>

<text 
x="61" 
y="250" 
dx="0,0,0,0,0,0,0,0,0,-0.2,0,0" 
class="s2_393"
>put in order</text>

<text 
x="239" 
y="251" 
dx="0,0" 
class="s3_393"
>整理</text>

<text 
x="633" 
y="249" 
dx="0,0.2,0.2,0.2,0.2,0.2,0.2" 
class="s5_393"
>zhěnglǐ</text>

<text 
x="738" 
y="250" 
dx="0" 
class="s7_393"
>v</text>

<text 
x="808" 
y="250" 
dx="0,0" 
class="s6_393"
>16</text>

<text 
x="452" 
y="294" 
dx="0" 
class="s8_393"
>Q</text>

<text 
x="61" 
y="334" 
dx="0,0,0,0,0,-0.2,0,0,0,0,0,0,0,0" 
class="s2_393"
>quarrel; noisy</text>

<text 
x="239" 
y="336" 
dx="0" 
class="s3_393"
>吵</text>

<text 
x="633" 
y="333" 
dx="0,0.2,0.2,0.2" 
class="s5_393"
>chǎo</text>

<text 
x="738" 
y="334" 
dx="0,0,0,0,0" 
class="s7_393"
>v/adj</text>

<text 
x="808" 
y="334" 
dx="0,0" 
class="s6_393"
>17</text>

<text 
x="61" 
y="377" 
dx="0,0,0,0,0,-0.2,0,0,0,0,-0.2,0,0,0,0,0,0,0,0,0" 
class="s2_393"
>quarter (of an hour)</text>

<text 
x="239" 
y="378" 
dx="0" 
class="s3_393"
>刻</text>

<text 
x="633" 
y="376" 
dx="0,0.2" 
class="s5_393"
>kè</text>

<text 
x="738" 
y="376" 
dx="0" 
class="s7_393"
>m</text>

<text 
x="808" 
y="376" 
dx="0" 
class="s6_393"
>3</text>

<text 
x="61" 
y="419" 
dx="0,0,0,0,0,0,0,0,0,0,0,0,0,0,0,0,0,0,0" 
class="s2_393"
>(question particle)</text>

<text 
x="239" 
y="420" 
dx="0" 
class="s3_393"
>吗</text>

<text 
x="436" 
y="420" 
dx="0" 
class="s4_393"
>嗎</text>

<text 
x="633" 
y="418" 
dx="0,0.2" 
class="s5_393"
>ma</text>

<text 
x="738" 
y="418" 
dx="0,0" 
class="s7_393"
>qp</text>

<text 
x="808" 
y="418" 
dx="0" 
class="s6_393"
>1</text>

<text 
x="61" 
y="461" 
dx="0,0,0,0,0,0,0,0,0,0,0,0,0,0,0,0,0,0,0" 
class="s2_393"
>(question particle)</text>

<text 
x="239" 
y="462" 
dx="0" 
class="s3_393"
>呢</text>

<text 
x="633" 
y="460" 
dx="0,0.2" 
class="s5_393"
>ne</text>

<text 
x="738" 
y="460" 
dx="0,0" 
class="s7_393"
>qp</text>

<text 
x="808" 
y="460" 
dx="0" 
class="s6_393"
>1</text>

<text 
x="61" 
y="503" 
dx="0,0,0,0,0,0,0,0,0,0,0,0,-0.2,0,0,0,0" 
class="s2_393"
>question, problem</text>

<text 
x="239" 
y="504" 
dx="0,0" 
class="s3_393"
>问题</text>

<text 
x="436" 
y="504" 
dx="0,0" 
class="s4_393"
>問題</text>

<text 
x="633" 
y="502" 
dx="0,0.2,0.2,0.2,0.2" 
class="s5_393"
>wèntí</text>

<text 
x="738" 
y="503" 
dx="0" 
class="s7_393"
>n</text>

<text 
x="808" 
y="503" 
dx="0" 
class="s6_393"
>6</text>

<text 
x="61" 
y="545" 
dx="0,0,0,0,-0.1" 
class="s2_393"
>quiet</text>

<text 
x="239" 
y="547" 
dx="0,0" 
class="s3_393"
>安静</text>

<text 
x="436" 
y="547" 
dx="0,0" 
class="s4_393"
>安靜</text>

<text 
x="633" 
y="544" 
dx="0,0.2,0.2,0.2,0.2,0.2" 
class="s5_393"
>ānjìng</text>

<text 
x="738" 
y="545" 
dx="0,0,0" 
class="s7_393"
>adj</text>

<text 
x="808" 
y="545" 
dx="0,0" 
class="s6_393"
>17</text>

<text 
x="61" 
y="587" 
dx="0,0,0,0,-0.2,0,0,0,0,-0.3,0" 
class="s2_393"
>quite a few</text>

<text 
x="239" 
y="589" 
dx="0,0" 
class="s3_393"
>好几</text>

<text 
x="436" 
y="589" 
dx="0,0" 
class="s4_393"
>好幾</text>

<text 
x="633" 
y="586" 
dx="0,0.2,0.2,0.2,0.2,0.2" 
class="s5_393"
>hǎo jǐ</text>

<text 
x="808" 
y="587" 
dx="0,0" 
class="s6_393"
>15</text>

<text 
x="453" 
y="632" 
dx="0" 
class="s8_393"
>R</text>

<text 
x="61" 
y="672" 
dx="0,0,0,0,-0.4,-0.1" 
class="s2_393"
>racket</text>

<text 
x="239" 
y="673" 
dx="0" 
class="s3_393"
>拍</text>

<text 
x="633" 
y="671" 
dx="0,0.2,0.2" 
class="s5_393"
>pāi</text>

<text 
x="738" 
y="671" 
dx="0" 
class="s7_393"
>n</text>

<text 
x="808" 
y="671" 
dx="0,0" 
class="s6_393"
>18</text>

<text 
x="61" 
y="714" 
dx="0,0,0,0" 
class="s2_393"
>rain</text>

<text 
x="239" 
y="715" 
dx="0,0" 
class="s3_393"
>下雨</text>

<text 
x="633" 
y="713" 
dx="0,0.2,0.2,0.2,0.2,0.2" 
class="s5_393"
>xià yǔ</text>

<text 
x="738" 
y="713" 
dx="0,-0.4" 
class="s7_393"
>vo</text>

<text 
x="808" 
y="713" 
dx="0,0" 
class="s6_393"
>11</text>

<text 
x="61" 
y="756" 
dx="0,0,0,0,0" 
class="s2_393"
>raise</text>

<text 
x="239" 
y="757" 
dx="0" 
class="s3_393"
>养</text>

<text 
x="436" 
y="757" 
dx="0" 
class="s4_393"
>養</text>

<text 
x="633" 
y="755" 
dx="0,0.2,0.2,0.2" 
class="s5_393"
>yǎng</text>

<text 
x="738" 
y="756" 
dx="0" 
class="s7_393"
>v</text>

<text 
x="808" 
y="756" 
dx="0,0" 
class="s6_393"
>17</text>

<text 
x="61" 
y="791" 
dx="0,0,0,0,0,0,0,0,-1,0,0,0,0,0,0,0,0,0,0,0,0,-1,0" 
class="s2_393"
>randomly, arbitrarily, </text>

<text 
x="61" 
y="810" 
dx="0,0,0,0,0,0,0" 
class="s2_393"
>messily</text>

<text 
x="239" 
y="802" 
dx="0" 
class="s3_393"
>乱</text>

<text 
x="436" 
y="802" 
dx="0" 
class="s4_393"
>亂</text>

<text 
x="633" 
y="800" 
dx="0,0.2,0.2,0.2" 
class="s5_393"
>luàn</text>

<text 
x="738" 
y="800" 
dx="0,0,0" 
class="s7_393"
>adv</text>

<text 
x="808" 
y="800" 
dx="0,0" 
class="s6_393"
>15</text>

<text 
x="61" 
y="845" 
dx="0,-0.2,0,0,0,0,0,0,0,0" 
class="s2_393"
>read aloud</text>

<text 
x="239" 
y="846" 
dx="0" 
class="s3_393"
>念</text>

<text 
x="633" 
y="844" 
dx="0,0.2,0.2,0.2" 
class="s5_393"
>niàn</text>

<text 
x="738" 
y="845" 
dx="0" 
class="s7_393"
>v</text>

<text 
x="808" 
y="845" 
dx="0" 
class="s6_393"
>7</text>

<text 
x="61" 
y="887" 
dx="0,-0.2,0,0,0,0" 
class="s2_393"
>really</text>

<text 
x="239" 
y="889" 
dx="0" 
class="s3_393"
>真</text>

<text 
x="633" 
y="886" 
dx="0,0.2,0.2,0.2" 
class="s5_393"
>zhēn</text>

<text 
x="738" 
y="887" 
dx="0,0,0" 
class="s7_393"
>adv</text>

<text 
x="808" 
y="887" 
dx="0" 
class="s6_393"
>7</text>

<text 
x="61" 
y="929" 
dx="0,-0.2,0,0,0,0,0,0,0,0,0,0,0,0,0" 
class="s2_393"
>really painful </text>

<text 
x="239" 
y="931" 
dx="0,0" 
class="s3_393"
>疼死</text>

<text 
x="633" 
y="928" 
dx="0,0.2,0.2,0.2,0.2,0.2,0.2" 
class="s5_393"
>téng sǐ</text>

<text 
x="738" 
y="929" 
dx="0,0,0,0,0" 
class="s7_393"
>adj+c</text>

<text 
x="808" 
y="929" 
dx="0,0" 
class="s6_393"
>15</text>

<text 
x="61" 
y="971" 
dx="0,-0.2,0,0,0,0,-0.5,0,0,0,0,0,0,0,0" 
class="s2_393"
>receive, accept</text>

<text 
x="239" 
y="973" 
dx="0" 
class="s3_393"
>收</text>

<text 
x="633" 
y="971" 
dx="0,0.2,0.2,0.2" 
class="s5_393"
>shōu</text>

<text 
x="738" 
y="971" 
dx="0" 
class="s7_393"
>v</text>

<text 
x="808" 
y="971" 
dx="0" 
class="s6_393"
>9</text>

<text 
x="61" 
y="1014" 
dx="0,-0.2,0,0,0,0,0,0" 
class="s2_393"
>recently</text>

<text 
x="239" 
y="1015" 
dx="0,0" 
class="s3_393"
>最近</text>

<text 
x="633" 
y="1013" 
dx="0,0.2,0.2,0.2,0.2,0.2" 
class="s5_393"
>zuìjìn</text>

<text 
x="738" 
y="1013" 
dx="0" 
class="s7_393"
>t</text>

<text 
x="808" 
y="1013" 
dx="0" 
class="s6_393"
>8</text>

<text 
x="61" 
y="1056" 
dx="0,-0.2,0" 
class="s2_393"
>red</text>

<text 
x="239" 
y="1057" 
dx="0" 
class="s3_393"
>红</text>

<text 
x="436" 
y="1057" 
dx="0" 
class="s4_393"
>紅</text>

<text 
x="633" 
y="1055" 
dx="0,0.2,0.2,0.2" 
class="s5_393"
>hóng</text>

<text 
x="738" 
y="1055" 
dx="0,0,0" 
class="s7_393"
>adj</text>

<text 
x="808" 
y="1055" 
dx="0" 
class="s6_393"
>9</text>

<text 
x="61" 
y="1098" 
dx="0,-0.2,0,0,0,0,-0.1,0,0,0,-0.2,0" 
class="s2_393"
>refrigerator</text>

<text 
x="239" 
y="1099" 
dx="0,0" 
class="s3_393"
>冰箱</text>

<text 
x="633" 
y="1097" 
dx="0,0.2,0.2,0.2,0.2,0.2,0.2,0.2,0.2" 
class="s5_393"
>bīngxiāng</text>

<text 
x="738" 
y="1098" 
dx="0" 
class="s7_393"
>n</text>

<text 
x="808" 
y="1098" 
dx="0,0" 
class="s6_393"
>15</text>

<path d="M-17.5,1209.2l58,0l0,-1222.1l-58,0l0,1222.1Z" class="g6_393" />
<text 
transform="matrix(0, -1, 1, 0, 32, 1173)"
dx="0,0.6,0.6,0.6" 
class="s9_393"
>372 </text>

<text 
transform="matrix(0, -1, 1, 0, 32, 1134)"
dx="0,0.6,0.6,0.5,0.6,0.6,0.6,0.6,0.5,0.6,0.6,0.6,0.6,0.6,0.6,0.6,0.6,0.6,0.6,0.6,0.6" 
class="s9_393"
>Integrated Chinese 2 </text>

<text 
transform="matrix(0, -1, 1, 0, 32, 1006)"
dx="0,0.6" 
class="s9_393"
>| </text>

<text 
transform="matrix(0, -1, 1, 0, 32, 994)"
dx="0,-0.6,0.4,0.3,0.6,0.6,0.6,0.6" 
class="s9_393"
>Textbook</text>



<!-- Any embedded fonts defined here -->
<style type="text/css" ><![CDATA[

@font-face {
	font-family: LibreFranklin-SemiBold_4gw;
	src: url("fonts/LibreFranklin-SemiBold_4gw.woff") format("woff");
}

@font-face {
	font-family: LibreFranklin-Regular_4h1;
	src: url("fonts/LibreFranklin-Regular_4h1.woff") format("woff");
}

@font-face {
	font-family: STKaitiTC-Regular_4h8;
	src: url("fonts/STKaitiTC-Regular_4h8.woff") format("woff");
}

@font-face {
	font-family: STKaitiSC-Regular_44y;
	src: url("fonts/STKaitiSC-Regular_44y.woff") format("woff");
}

@font-face {
	font-family: GentiumBookBasic-Italic_3mn;
	src: url("fonts/GentiumBookBasic-Italic_3mn.woff") format("woff");
}

]]></style>

</svg>
