<?xml version="1.0" encoding="UTF-8" standalone="no"?>
<!DOCTYPE svg PUBLIC "-//W3C//DTD SVG 1.1//EN"
"http://www.w3.org/Graphics/SVG/1.1/DTD/svg11.dtd">


<!-- Page 371 -->
<svg x="0" y="0" width="921" height="1196" viewBox="0 0 921 1196" version="1.1" xmlns="http://www.w3.org/2000/svg" xmlns:xlink="http://www.w3.org/1999/xlink"
style="display: block;margin-left: auto;margin-right: auto;">
<defs>

<style type="text/css"><![CDATA[

.g1_371{
fill: #F0F1F2;
}
.g2_371{
fill: #BDBEC1;
}
.g3_371{
fill: none;
stroke: #BDBEC1;
stroke-width: 0.38194445;
stroke-linecap: butt;
stroke-linejoin: miter;
}
.g4_371{
fill: none;
stroke: #DADBDD;
stroke-width: 1.5277778;
stroke-linecap: butt;
stroke-linejoin: miter;
}
.g5_371{
fill: none;
stroke: #BDBEC1;
stroke-width: 1.5277778;
stroke-linecap: butt;
stroke-linejoin: miter;
}
.g6_371{
fill: #57585A;
stroke: #B2B3B7;
stroke-width: 1.5277778;
stroke-linecap: butt;
stroke-linejoin: miter;
stroke-miterlimit: 4;
}

.s1_371{
font-size: 14.51px;
font-family: LibreFranklin-SemiBold_4gw;
fill: #57585A;
}
.s2_371{
font-size: 15.28px;
font-family: LibreFranklin-Regular_4h1;
fill: #3F3F40;
}
.s3_371{
font-size: 24.44px;
font-family: STKaitiSC-Regular_44y;
fill: #57585A;
}
.s4_371{
font-size: 14.90px;
font-family: GentiumBookBasic-Italic_3mn;
fill: #3F3F40;
}
.s5_371{
font-size: 14.51px;
font-family: LibreFranklin-Regular_4h1;
fill: #3F3F40;
}
.s6_371{
font-size: 14.51px;
font-family: LibreFranklin-SemiBold_4gw;
fill: #77787B;
}
.s7_371{
font-size: 24.44px;
font-family: STKaitiTC-Regular_4h8;
fill: #57585A;
}
.s8_371{
font-size: 19.86px;
font-family: LibreFranklin-SemiBold_4gw;
fill: #3F3F40;
}
.s9_371{
font-size: 10.69px;
font-family: LibreFranklin-SemiBold_4gw;
fill: #FFFFFF;
}

]]></style>

</defs>
<path d="M0,0
L0,1196
L921,1196
L921,0 Z " 
fill="#FFFFFF" stroke="none" />
<path d="M55,137.7l178.8,0l0,42.2L55,179.9l0,-42.2Zm178.8,0l196.9,0l0,42.2l-196.9,0l0,-42.2Zm196.9,0l196.9,0l0,42.2l-196.9,0l0,-42.2Zm196.9,0l104.5,0l0,42.2l-104.5,0l0,-42.2Zm104.5,0l70.4,0l0,42.2l-70.4,0l0,-42.2Zm70.4,0l63.8,0l0,42.2l-63.8,0l0,-42.2ZM55,222.1l178.8,0l0,42.1L55,264.2l0,-42.1Zm178.8,0l196.9,0l0,42.1l-196.9,0l0,-42.1Zm196.9,0l196.9,0l0,42.1l-196.9,0l0,-42.1Zm196.9,0l104.5,0l0,42.1l-104.5,0l0,-42.1Zm104.5,0l70.4,0l0,42.1l-70.4,0l0,-42.1Zm70.4,0l63.8,0l0,42.1l-63.8,0l0,-42.1ZM55,306.4l178.8,0l0,42.1L55,348.5l0,-42.1Zm178.8,0l196.9,0l0,42.1l-196.9,0l0,-42.1Zm196.9,0l196.9,0l0,42.1l-196.9,0l0,-42.1Zm196.9,0l104.5,0l0,42.1l-104.5,0l0,-42.1Zm104.5,0l70.4,0l0,42.1l-70.4,0l0,-42.1Zm70.4,0l63.8,0l0,42.1l-63.8,0l0,-42.1ZM55,390.7l178.8,0l0,42.2L55,432.9l0,-42.2Zm178.8,0l196.9,0l0,42.2l-196.9,0l0,-42.2Zm196.9,0l196.9,0l0,42.2l-196.9,0l0,-42.2Zm196.9,0l104.5,0l0,42.2l-104.5,0l0,-42.2Zm104.5,0l70.4,0l0,42.2l-70.4,0l0,-42.2Zm70.4,0l63.8,0l0,42.2l-63.8,0l0,-42.2ZM55,475l178.8,0l0,42.2L55,517.2L55,475Zm178.8,0l196.9,0l0,42.2l-196.9,0l0,-42.2Zm196.9,0l196.9,0l0,42.2l-196.9,0l0,-42.2Zm196.9,0l104.5,0l0,42.2l-104.5,0l0,-42.2Zm104.5,0l70.4,0l0,42.2l-70.4,0l0,-42.2Zm70.4,0l63.8,0l0,42.2l-63.8,0l0,-42.2ZM55,559.4l178.8,0l0,42.1L55,601.5l0,-42.1Zm178.8,0l196.9,0l0,42.1l-196.9,0l0,-42.1Zm196.9,0l196.9,0l0,42.1l-196.9,0l0,-42.1Zm196.9,0l104.5,0l0,42.1l-104.5,0l0,-42.1Zm104.5,0l70.4,0l0,42.1l-70.4,0l0,-42.1Zm70.4,0l63.8,0l0,42.1l-63.8,0l0,-42.1ZM55,643.7l178.8,0l0,42.1L55,685.8l0,-42.1Zm178.8,0l196.9,0l0,42.1l-196.9,0l0,-42.1Zm196.9,0l196.9,0l0,42.1l-196.9,0l0,-42.1Zm196.9,0l104.5,0l0,42.1l-104.5,0l0,-42.1Zm104.5,0l70.4,0l0,42.1l-70.4,0l0,-42.1Zm70.4,0l63.8,0l0,42.1l-63.8,0l0,-42.1ZM55,812.3l178.8,0l0,46.9L55,859.2l0,-46.9Zm178.8,0l196.9,0l0,46.9l-196.9,0l0,-46.9Zm196.9,0l196.9,0l0,46.9l-196.9,0l0,-46.9Zm196.9,0l104.5,0l0,46.9l-104.5,0l0,-46.9Zm104.5,0l70.4,0l0,46.9l-70.4,0l0,-46.9Zm70.4,0l63.8,0l0,46.9l-63.8,0l0,-46.9ZM55,901.3l178.8,0l0,42.2L55,943.5l0,-42.2Zm178.8,0l196.9,0l0,42.2l-196.9,0l0,-42.2Zm196.9,0l196.9,0l0,42.2l-196.9,0l0,-42.2Zm196.9,0l104.5,0l0,42.2l-104.5,0l0,-42.2Zm104.5,0l70.4,0l0,42.2l-70.4,0l0,-42.2Zm70.4,0l63.8,0l0,42.2l-63.8,0l0,-42.2ZM55,985.7l178.8,0l0,42.1l-178.8,0l0,-42.1Zm178.8,0l196.9,0l0,42.1l-196.9,0l0,-42.1Zm196.9,0l196.9,0l0,42.1l-196.9,0l0,-42.1Zm196.9,0l104.5,0l0,42.1l-104.5,0l0,-42.1Zm104.5,0l70.4,0l0,42.1l-70.4,0l0,-42.1Zm70.4,0l63.8,0l0,42.1l-63.8,0l0,-42.1ZM55,1074.7l178.8,0l0,42.7l-178.8,0l0,-42.7Zm178.8,0l196.9,0l0,42.7l-196.9,0l0,-42.7Zm196.9,0l196.9,0l0,42.7l-196.9,0l0,-42.7Zm196.9,0l104.5,0l0,42.7l-104.5,0l0,-42.7Zm104.5,0l70.4,0l0,42.7l-70.4,0l0,-42.7Zm70.4,0l63.8,0l0,42.7l-63.8,0l0,-42.7Z" class="g1_371" />
<path d="M55,728l811.3,0l0,42.2L55,770.2L55,728Z" class="g2_371" />
<path d="M55,728l178.8,0" class="g3_371" />
<path d="M233.8,728l196.9,0" class="g3_371" />
<path d="M430.7,728l196.9,0" class="g3_371" />
<path d="M627.6,728l104.5,0" class="g3_371" />
<path d="M732.1,728l70.4,0" class="g3_371" />
<path d="M802.5,728l63.8,0" class="g3_371" />
<path d="M55,770.2l178.8,0" class="g3_371" />
<path d="M233.8,770.2l196.9,0" class="g3_371" />
<path d="M430.7,770.2l196.9,0" class="g3_371" />
<path d="M627.6,770.2l104.5,0" class="g3_371" />
<path d="M732.1,770.2l70.4,0" class="g3_371" />
<path d="M802.5,770.2l63.8,0" class="g3_371" />
<path d="M55,137.7l178.8,0" class="g3_371" />
<path d="M233.8,137.7l196.9,0" class="g3_371" />
<path d="M430.7,137.7l196.9,0" class="g3_371" />
<path d="M627.6,137.7l104.5,0" class="g3_371" />
<path d="M732.1,137.7l70.4,0" class="g3_371" />
<path d="M802.5,137.7l63.8,0" class="g3_371" />
<path d="M55,179.9l178.8,0" class="g3_371" />
<path d="M233.8,179.9l196.9,0" class="g3_371" />
<path d="M430.7,179.9l196.9,0" class="g3_371" />
<path d="M627.6,179.9l104.5,0" class="g3_371" />
<path d="M732.1,179.9l70.4,0" class="g3_371" />
<path d="M802.5,179.9l63.8,0" class="g3_371" />
<path d="M55,222.1l178.8,0" class="g3_371" />
<path d="M233.8,222.1l196.9,0" class="g3_371" />
<path d="M430.7,222.1l196.9,0" class="g3_371" />
<path d="M627.6,222.1l104.5,0" class="g3_371" />
<path d="M732.1,222.1l70.4,0" class="g3_371" />
<path d="M802.5,222.1l63.8,0" class="g3_371" />
<path d="M55,264.2l178.8,0" class="g3_371" />
<path d="M233.8,264.2l196.9,0" class="g3_371" />
<path d="M430.7,264.2l196.9,0" class="g3_371" />
<path d="M627.6,264.2l104.5,0" class="g3_371" />
<path d="M732.1,264.2l70.4,0" class="g3_371" />
<path d="M802.5,264.2l63.8,0" class="g3_371" />
<path d="M55,306.4l178.8,0" class="g3_371" />
<path d="M233.8,306.4l196.9,0" class="g3_371" />
<path d="M430.7,306.4l196.9,0" class="g3_371" />
<path d="M627.6,306.4l104.5,0" class="g3_371" />
<path d="M732.1,306.4l70.4,0" class="g3_371" />
<path d="M802.5,306.4l63.8,0" class="g3_371" />
<path d="M55,348.5l178.8,0" class="g3_371" />
<path d="M233.8,348.5l196.9,0" class="g3_371" />
<path d="M430.7,348.5l196.9,0" class="g3_371" />
<path d="M627.6,348.5l104.5,0" class="g3_371" />
<path d="M732.1,348.5l70.4,0" class="g3_371" />
<path d="M802.5,348.5l63.8,0" class="g3_371" />
<path d="M55,390.7l178.8,0" class="g3_371" />
<path d="M233.8,390.7l196.9,0" class="g3_371" />
<path d="M430.7,390.7l196.9,0" class="g3_371" />
<path d="M627.6,390.7l104.5,0" class="g3_371" />
<path d="M732.1,390.7l70.4,0" class="g3_371" />
<path d="M802.5,390.7l63.8,0" class="g3_371" />
<path d="M55,432.9l178.8,0" class="g3_371" />
<path d="M233.8,432.9l196.9,0" class="g3_371" />
<path d="M430.7,432.9l196.9,0" class="g3_371" />
<path d="M627.6,432.9l104.5,0" class="g3_371" />
<path d="M732.1,432.9l70.4,0" class="g3_371" />
<path d="M802.5,432.9l63.8,0" class="g3_371" />
<path d="M55,475l178.8,0" class="g3_371" />
<path d="M233.8,475l196.9,0" class="g3_371" />
<path d="M430.7,475l196.9,0" class="g3_371" />
<path d="M627.6,475l104.5,0" class="g3_371" />
<path d="M732.1,475l70.4,0" class="g3_371" />
<path d="M802.5,475l63.8,0" class="g3_371" />
<path d="M55,517.2l178.8,0" class="g3_371" />
<path d="M233.8,517.2l196.9,0" class="g3_371" />
<path d="M430.7,517.2l196.9,0" class="g3_371" />
<path d="M627.6,517.2l104.5,0" class="g3_371" />
<path d="M732.1,517.2l70.4,0" class="g3_371" />
<path d="M802.5,517.2l63.8,0" class="g3_371" />
<path d="M55,559.4l178.8,0" class="g3_371" />
<path d="M233.8,559.4l196.9,0" class="g3_371" />
<path d="M430.7,559.4l196.9,0" class="g3_371" />
<path d="M627.6,559.4l104.5,0" class="g3_371" />
<path d="M732.1,559.4l70.4,0" class="g3_371" />
<path d="M802.5,559.4l63.8,0" class="g3_371" />
<path d="M55,601.5l178.8,0" class="g3_371" />
<path d="M233.8,601.5l196.9,0" class="g3_371" />
<path d="M430.7,601.5l196.9,0" class="g3_371" />
<path d="M627.6,601.5l104.5,0" class="g3_371" />
<path d="M732.1,601.5l70.4,0" class="g3_371" />
<path d="M802.5,601.5l63.8,0" class="g3_371" />
<path d="M55,643.7l178.8,0" class="g3_371" />
<path d="M233.8,643.7l196.9,0" class="g3_371" />
<path d="M430.7,643.7l196.9,0" class="g3_371" />
<path d="M627.6,643.7l104.5,0" class="g3_371" />
<path d="M732.1,643.7l70.4,0" class="g3_371" />
<path d="M802.5,643.7l63.8,0" class="g3_371" />
<path d="M55,685.8l178.8,0" class="g3_371" />
<path d="M233.8,685.8l196.9,0" class="g3_371" />
<path d="M430.7,685.8l196.9,0" class="g3_371" />
<path d="M627.6,685.8l104.5,0" class="g3_371" />
<path d="M732.1,685.8l70.4,0" class="g3_371" />
<path d="M802.5,685.8l63.8,0" class="g3_371" />
<path d="M55,812.3l178.8,0" class="g3_371" />
<path d="M233.8,812.3l196.9,0" class="g3_371" />
<path d="M430.7,812.3l196.9,0" class="g3_371" />
<path d="M627.6,812.3l104.5,0" class="g3_371" />
<path d="M732.1,812.3l70.4,0" class="g3_371" />
<path d="M802.5,812.3l63.8,0" class="g3_371" />
<path d="M55,859.2l178.8,0" class="g3_371" />
<path d="M233.8,859.2l196.9,0" class="g3_371" />
<path d="M430.7,859.2l196.9,0" class="g3_371" />
<path d="M627.6,859.2l104.5,0" class="g3_371" />
<path d="M732.1,859.2l70.4,0" class="g3_371" />
<path d="M802.5,859.2l63.8,0" class="g3_371" />
<path d="M55,901.3l178.8,0" class="g3_371" />
<path d="M233.8,901.3l196.9,0" class="g3_371" />
<path d="M430.7,901.3l196.9,0" class="g3_371" />
<path d="M627.6,901.3l104.5,0" class="g3_371" />
<path d="M732.1,901.3l70.4,0" class="g3_371" />
<path d="M802.5,901.3l63.8,0" class="g3_371" />
<path d="M55,943.5l178.8,0" class="g3_371" />
<path d="M233.8,943.5l196.9,0" class="g3_371" />
<path d="M430.7,943.5l196.9,0" class="g3_371" />
<path d="M627.6,943.5l104.5,0" class="g3_371" />
<path d="M732.1,943.5l70.4,0" class="g3_371" />
<path d="M802.5,943.5l63.8,0" class="g3_371" />
<path d="M55,985.7l178.8,0" class="g3_371" />
<path d="M233.8,985.7l196.9,0" class="g3_371" />
<path d="M430.7,985.7l196.9,0" class="g3_371" />
<path d="M627.6,985.7l104.5,0" class="g3_371" />
<path d="M732.1,985.7l70.4,0" class="g3_371" />
<path d="M802.5,985.7l63.8,0" class="g3_371" />
<path d="M55,1027.8l178.8,0" class="g3_371" />
<path d="M233.8,1027.8l196.9,0" class="g3_371" />
<path d="M430.7,1027.8l196.9,0" class="g3_371" />
<path d="M627.6,1027.8l104.5,0" class="g3_371" />
<path d="M732.1,1027.8l70.4,0" class="g3_371" />
<path d="M802.5,1027.8l63.8,0" class="g3_371" />
<path d="M55,1074.7l178.8,0" class="g3_371" />
<path d="M233.8,1074.7l196.9,0" class="g3_371" />
<path d="M430.7,1074.7l196.9,0" class="g3_371" />
<path d="M627.6,1074.7l104.5,0" class="g3_371" />
<path d="M732.1,1074.7l70.4,0" class="g3_371" />
<path d="M802.5,1074.7l63.8,0" class="g3_371" />
<path d="M55,95l178.8,0" class="g4_371" />
<path d="M233.8,95l196.9,0" class="g4_371" />
<path d="M430.7,95l196.9,0" class="g4_371" />
<path d="M627.6,95l104.5,0" class="g4_371" />
<path d="M732.1,95l70.4,0" class="g4_371" />
<path d="M802.5,95l63.8,0" class="g4_371" />
<path d="M55,1117.4l178.8,0" class="g5_371" />
<path d="M233.8,1117.4l196.9,0" class="g5_371" />
<path d="M430.7,1117.4l196.9,0" class="g5_371" />
<path d="M627.6,1117.4l104.5,0" class="g5_371" />
<path d="M732.1,1117.4l70.4,0" class="g5_371" />
<path d="M802.5,1117.4l63.8,0" class="g5_371" />
<text 
x="61" 
y="82" 
dx="0,0,0,0,0,0,0" 
class="s1_371"
>English</text>

<text 
x="239" 
y="82" 
dx="0,0,0,0,0,0,0,0,0,0" 
class="s1_371"
>Simplified</text>

<text 
x="436" 
y="82" 
dx="0,-1.2,-0.1,0,0,0,0,0,0,0,0" 
class="s1_371"
>Traditional</text>

<text 
x="633" 
y="82" 
dx="0,0,0,0,0,0" 
class="s1_371"
>Pinyin</text>

<text 
x="738" 
y="75" 
dx="0,0,0,0,0,0,-0.2,0" 
class="s1_371"
>Part of </text>

<text 
x="738" 
y="88" 
dx="0,0,0,0,0,0" 
class="s1_371"
>Speech</text>

<text 
x="808" 
y="81" 
dx="0,0,0,0,0,0" 
class="s1_371"
>Lesson</text>

<text 
x="61" 
y="124" 
dx="0,0,0,-0.2,0,-0.1,-0.1,0,0,0" 
class="s2_371"
>altogether</text>

<text 
x="239" 
y="125" 
dx="0,0" 
class="s3_371"
>一共</text>

<text 
x="633" 
y="123" 
dx="0,0.2,0.2,0.2,0.2,0.2" 
class="s4_371"
>yígòng</text>

<text 
x="738" 
y="123" 
dx="0,0,0" 
class="s5_371"
>adv</text>

<text 
x="808" 
y="123" 
dx="0" 
class="s6_371"
>9</text>

<text 
x="61" 
y="166" 
dx="0,0,0,0,0,0,0" 
class="s2_371"
>America</text>

<text 
x="239" 
y="167" 
dx="0,0" 
class="s3_371"
>美国</text>

<text 
x="436" 
y="167" 
dx="0,0" 
class="s7_371"
>美國</text>

<text 
x="633" 
y="165" 
dx="0,0.2,0.2,0.2,0.2,0.2" 
class="s4_371"
>Měiguó</text>

<text 
x="738" 
y="165" 
dx="0,0" 
class="s5_371"
>pn</text>

<text 
x="808" 
y="165" 
dx="0" 
class="s6_371"
>1</text>

<text 
x="61" 
y="208" 
dx="0,0,0,0,0,0,0,0,0,0,0,0,0,0" 
class="s2_371"
>American-style</text>

<text 
x="239" 
y="209" 
dx="0,0" 
class="s3_371"
>美式</text>

<text 
x="633" 
y="207" 
dx="0,0.2,0.2,0.2,0.2,0.2" 
class="s4_371"
>Měishì</text>

<text 
x="738" 
y="207" 
dx="0,0,0" 
class="s5_371"
>adj</text>

<text 
x="808" 
y="207" 
dx="0,0" 
class="s6_371"
>18</text>

<text 
x="61" 
y="250" 
dx="0,0,0,0,0,0,0,0,0,0,0,0,0,0,0,0,0,0,0,0,0" 
class="s2_371"
>American dollar (USD)</text>

<text 
x="239" 
y="251" 
dx="0,0" 
class="s3_371"
>美元</text>

<text 
x="633" 
y="249" 
dx="0,0.2,0.2,0.2,0.2,0.2,0.2" 
class="s4_371"
>Měiyuán</text>

<text 
x="738" 
y="250" 
dx="0" 
class="s5_371"
>n</text>

<text 
x="808" 
y="250" 
dx="0,0" 
class="s6_371"
>17</text>

<text 
x="61" 
y="292" 
dx="0,0,0" 
class="s2_371"
>and</text>

<text 
x="239" 
y="294" 
dx="0" 
class="s3_371"
>和</text>

<text 
x="633" 
y="291" 
dx="0,0.2" 
class="s4_371"
>hé</text>

<text 
x="738" 
y="292" 
dx="0,0,0,0" 
class="s5_371"
>conj</text>

<text 
x="808" 
y="292" 
dx="0" 
class="s6_371"
>2</text>

<text 
x="61" 
y="334" 
dx="0,0,0,0,0,0,0,0,0" 
class="s2_371"
>apartment</text>

<text 
x="239" 
y="336" 
dx="0,0" 
class="s3_371"
>公寓</text>

<text 
x="633" 
y="333" 
dx="0,0.2,0.2,0.2,0.2,0.2" 
class="s4_371"
>gōngyù</text>

<text 
x="738" 
y="334" 
dx="0" 
class="s5_371"
>n</text>

<text 
x="808" 
y="334" 
dx="0,0" 
class="s6_371"
>17</text>

<text 
x="61" 
y="377" 
dx="0,0,0,0,0" 
class="s2_371"
>apple</text>

<text 
x="239" 
y="378" 
dx="0,0" 
class="s3_371"
>苹果</text>

<text 
x="436" 
y="378" 
dx="0,0" 
class="s7_371"
>蘋果</text>

<text 
x="633" 
y="376" 
dx="0,0.2,0.2,0.2,0.2,0.2,0.2" 
class="s4_371"
>píngguǒ</text>

<text 
x="738" 
y="376" 
dx="0" 
class="s5_371"
>n</text>

<text 
x="808" 
y="376" 
dx="0,0" 
class="s6_371"
>14</text>

<text 
x="61" 
y="419" 
dx="0,0,0,0,0,0,0,0,0,0,0,0,0,0,0,0" 
class="s2_371"
>ask (a question)</text>

<text 
x="239" 
y="420" 
dx="0" 
class="s3_371"
>问</text>

<text 
x="436" 
y="420" 
dx="0" 
class="s7_371"
>問</text>

<text 
x="633" 
y="418" 
dx="0,0.2,0.2" 
class="s4_371"
>wèn</text>

<text 
x="738" 
y="418" 
dx="0" 
class="s5_371"
>v</text>

<text 
x="808" 
y="418" 
dx="0" 
class="s6_371"
>1</text>

<text 
x="61" 
y="461" 
dx="0,0,0,0,0,0,0,0,0,0,-0.2,0,0,0,0,0,0,0" 
class="s2_371"
>assume erroneously</text>

<text 
x="239" 
y="462" 
dx="0,0" 
class="s3_371"
>以为</text>

<text 
x="436" 
y="462" 
dx="0,0" 
class="s7_371"
>以為</text>

<text 
x="633" 
y="460" 
dx="0,0.2,0.2,0.2,0.2" 
class="s4_371"
>yǐwéi</text>

<text 
x="738" 
y="460" 
dx="0" 
class="s5_371"
>v</text>

<text 
x="808" 
y="460" 
dx="0,0" 
class="s6_371"
>14</text>

<text 
x="61" 
y="503" 
dx="0,0,0,0,0,0,0,0,0,0" 
class="s2_371"
>at, in, on</text>

<text 
x="239" 
y="504" 
dx="0" 
class="s3_371"
>在</text>

<text 
x="633" 
y="502" 
dx="0,0.2,0.2" 
class="s4_371"
>zài</text>

<text 
x="738" 
y="503" 
dx="0,0,-0.2,0" 
class="s5_371"
>prep</text>

<text 
x="808" 
y="503" 
dx="0" 
class="s6_371"
>5</text>

<text 
x="61" 
y="545" 
dx="0,0,0,0,0,0,0,0" 
class="s2_371"
>at night</text>

<text 
x="239" 
y="547" 
dx="0,0" 
class="s3_371"
>夜里</text>

<text 
x="436" 
y="547" 
dx="0,0" 
class="s7_371"
>夜裡</text>

<text 
x="633" 
y="544" 
dx="0,0.2,0.2,0.2,0.2" 
class="s4_371"
>yè lǐ</text>

<text 
x="738" 
y="545" 
dx="0" 
class="s5_371"
>n</text>

<text 
x="808" 
y="545" 
dx="0,0" 
class="s6_371"
>15</text>

<text 
x="61" 
y="587" 
dx="0,0,0,0" 
class="s2_371"
>aunt</text>

<text 
x="239" 
y="589" 
dx="0,0" 
class="s3_371"
>阿姨</text>

<text 
x="633" 
y="586" 
dx="0,0.2,0.2" 
class="s4_371"
>āyí</text>

<text 
x="738" 
y="587" 
dx="0" 
class="s5_371"
>n</text>

<text 
x="808" 
y="587" 
dx="0,0" 
class="s6_371"
>20</text>

<text 
x="61" 
y="629" 
dx="0,0,0,0,0,0,0,0,0,0,0,0" 
class="s2_371"
>autumn, fall</text>

<text 
x="239" 
y="631" 
dx="0,0" 
class="s3_371"
>秋天</text>

<text 
x="633" 
y="629" 
dx="0,0.2,0.2,0.2,0.2,0.2,0.2" 
class="s4_371"
>qiūtiān</text>

<text 
x="738" 
y="629" 
dx="0" 
class="s5_371"
>n</text>

<text 
x="808" 
y="629" 
dx="0,0" 
class="s6_371"
>11</text>

<text 
x="61" 
y="672" 
dx="0,0,0,0,0,0,0,0,0" 
class="s2_371"
>aviation </text>

<text 
x="239" 
y="673" 
dx="0,0" 
class="s3_371"
>航空</text>

<text 
x="633" 
y="671" 
dx="0,0.2,0.2,0.2,0.2,0.2,0.2,0.2" 
class="s4_371"
>hángkōng</text>

<text 
x="738" 
y="671" 
dx="0" 
class="s5_371"
>n</text>

<text 
x="808" 
y="671" 
dx="0,0" 
class="s6_371"
>19</text>

<text 
x="61" 
y="714" 
dx="0,0,0,0,0,0,0,-0.2,0" 
class="s2_371"
>away from</text>

<text 
x="239" 
y="715" 
dx="0" 
class="s3_371"
>离</text>

<text 
x="436" 
y="715" 
dx="0" 
class="s7_371"
>離</text>

<text 
x="633" 
y="713" 
dx="0,0.2" 
class="s4_371"
>lí</text>

<text 
x="738" 
y="713" 
dx="0,0,-0.2,0" 
class="s5_371"
>prep</text>

<text 
x="808" 
y="713" 
dx="0,0" 
class="s6_371"
>13</text>

<text 
x="453" 
y="758" 
dx="0" 
class="s8_371"
>B</text>

<text 
x="61" 
y="798" 
dx="0,0,0,0,0,0,0,0,0,0,0,0,0" 
class="s2_371"
>baby bok choy</text>

<text 
x="239" 
y="800" 
dx="0,0,0" 
class="s3_371"
>小白菜</text>

<text 
x="436" 
y="800" 
dx="0,0,0" 
class="s7_371"
>小白菜</text>

<text 
x="633" 
y="797" 
dx="0,0.2,0.2,0.2,0.2,0.2,0.2,0.2,0.2,0.2,0.2" 
class="s4_371"
>xiǎo báicài</text>

<text 
x="738" 
y="798" 
dx="0" 
class="s5_371"
>n</text>

<text 
x="808" 
y="798" 
dx="0,0" 
class="s6_371"
>12</text>

<text 
x="61" 
y="833" 
dx="0,0,0,0,0,0,0,0,0,0,0,0,0,0,0,0,0,0,0" 
class="s2_371"
>bag, sack, bundle, </text>

<text 
x="61" 
y="853" 
dx="0,0,0,0,0,0,-0.1" 
class="s2_371"
>package</text>

<text 
x="239" 
y="844" 
dx="0" 
class="s3_371"
>包</text>

<text 
x="633" 
y="842" 
dx="0,0.2,0.2" 
class="s4_371"
>bāo</text>

<text 
x="738" 
y="842" 
dx="0" 
class="s5_371"
>n</text>

<text 
x="808" 
y="842" 
dx="0,0" 
class="s6_371"
>20</text>

<text 
x="61" 
y="887" 
dx="0,0,0,0,0,0,0,0,0,0,0" 
class="s2_371"
>Bai Ying’ai</text>

<text 
x="239" 
y="889" 
dx="0,0,0" 
class="s3_371"
>白英爱</text>

<text 
x="436" 
y="889" 
dx="0,0,0" 
class="s7_371"
>白英愛</text>

<text 
x="633" 
y="886" 
dx="0,0.2,0.2,0.2,0.2,0.2,0.2,0.2,0.2,0.2,0.2" 
class="s4_371"
>Bái Yīng’ài</text>

<text 
x="738" 
y="887" 
dx="0,0" 
class="s5_371"
>pn</text>

<text 
x="808" 
y="887" 
dx="0" 
class="s6_371"
>2</text>

<text 
x="61" 
y="929" 
dx="0,0,0,0,-0.4,-0.1,0,0,0,0" 
class="s2_371"
>basketball</text>

<text 
x="239" 
y="931" 
dx="0,0" 
class="s3_371"
>篮球</text>

<text 
x="436" 
y="931" 
dx="0,0" 
class="s7_371"
>籃球</text>

<text 
x="633" 
y="928" 
dx="0,0.2,0.2,0.2,0.2,0.2" 
class="s4_371"
>lánqiú</text>

<text 
x="738" 
y="929" 
dx="0" 
class="s5_371"
>n</text>

<text 
x="808" 
y="929" 
dx="0,0" 
class="s6_371"
>18</text>

<text 
x="61" 
y="971" 
dx="0,0,0,0,0,-0.2,0,0" 
class="s2_371"
>bathroom</text>

<text 
x="239" 
y="973" 
dx="0,0,0" 
class="s3_371"
>卫生间</text>

<text 
x="436" 
y="973" 
dx="0,0,0" 
class="s7_371"
>衛生間</text>

<text 
x="633" 
y="971" 
dx="0,0.2,0.2,0.2,0.2,0.2,0.2,0.2,0.2,0.2,0.2,0.2" 
class="s4_371"
>wèishēngjiān</text>

<text 
x="738" 
y="971" 
dx="0" 
class="s5_371"
>n</text>

<text 
x="808" 
y="971" 
dx="0,0" 
class="s6_371"
>17</text>

<text 
x="61" 
y="1014" 
dx="0,0" 
class="s2_371"
>be</text>

<text 
x="239" 
y="1015" 
dx="0" 
class="s3_371"
>是</text>

<text 
x="633" 
y="1013" 
dx="0,0.2,0.2" 
class="s4_371"
>shì</text>

<text 
x="738" 
y="1013" 
dx="0" 
class="s5_371"
>v</text>

<text 
x="808" 
y="1013" 
dx="0" 
class="s6_371"
>1</text>

<text 
x="61" 
y="1048" 
dx="0,0,0,0,0,0,0,0,0,0,0,-0.2,0,0,0,0,0,0,0,0" 
class="s2_371"
>be acquainted with, </text>

<text 
x="61" 
y="1068" 
dx="0,-0.2,0,0,0,0,0,0,0" 
class="s2_371"
>recognize</text>

<text 
x="239" 
y="1060" 
dx="0,0" 
class="s3_371"
>认识</text>

<text 
x="436" 
y="1060" 
dx="0,0" 
class="s7_371"
>認識</text>

<text 
x="633" 
y="1057" 
dx="0,0.2,0.2,0.2,0.2,0.2" 
class="s4_371"
>rènshi</text>

<text 
x="738" 
y="1058" 
dx="0" 
class="s5_371"
>v</text>

<text 
x="808" 
y="1058" 
dx="0" 
class="s6_371"
>3</text>

<text 
x="61" 
y="1103" 
dx="0,0,0,0,0,0,0,0,0,0,0,0,0,-0.2" 
class="s2_371"
>be allergic to</text>

<text 
x="239" 
y="1104" 
dx="0,0" 
class="s3_371"
>过敏</text>

<text 
x="436" 
y="1104" 
dx="0,0" 
class="s7_371"
>過敏</text>

<text 
x="633" 
y="1102" 
dx="0,0.2,0.2,0.2,0.2,0.2" 
class="s4_371"
>guòmǐn</text>

<text 
x="738" 
y="1102" 
dx="0" 
class="s5_371"
>v</text>

<text 
x="808" 
y="1102" 
dx="0,0" 
class="s6_371"
>15</text>

<path d="M-17.5,1209.2l58,0l0,-1222.1l-58,0l0,1222.1Z" class="g6_371" />
<text 
transform="matrix(0, -1, 1, 0, 32, 1173)"
dx="0,0.6,0.6,0.6" 
class="s9_371"
>350 </text>

<text 
transform="matrix(0, -1, 1, 0, 32, 1132)"
dx="0,0.6,0.6,0.5,0.6,0.6,0.6,0.6,0.5,0.6,0.6,0.6,0.6,0.6,0.6,0.6,0.6,0.6,0.6,0.6,0.6" 
class="s9_371"
>Integrated Chinese 2 </text>

<text 
transform="matrix(0, -1, 1, 0, 32, 1004)"
dx="0,0.6" 
class="s9_371"
>| </text>

<text 
transform="matrix(0, -1, 1, 0, 32, 992)"
dx="0,-0.6,0.4,0.3,0.6,0.6,0.6,0.6" 
class="s9_371"
>Textbook</text>



<!-- Any embedded fonts defined here -->
<style type="text/css" ><![CDATA[

@font-face {
	font-family: LibreFranklin-SemiBold_4gw;
	src: url("fonts/LibreFranklin-SemiBold_4gw.woff") format("woff");
}

@font-face {
	font-family: LibreFranklin-Regular_4h1;
	src: url("fonts/LibreFranklin-Regular_4h1.woff") format("woff");
}

@font-face {
	font-family: STKaitiTC-Regular_4h8;
	src: url("fonts/STKaitiTC-Regular_4h8.woff") format("woff");
}

@font-face {
	font-family: STKaitiSC-Regular_44y;
	src: url("fonts/STKaitiSC-Regular_44y.woff") format("woff");
}

@font-face {
	font-family: GentiumBookBasic-Italic_3mn;
	src: url("fonts/GentiumBookBasic-Italic_3mn.woff") format("woff");
}

]]></style>

</svg>
