<?xml version="1.0" encoding="UTF-8" standalone="no"?>
<!DOCTYPE svg PUBLIC "-//W3C//DTD SVG 1.1//EN"
"http://www.w3.org/Graphics/SVG/1.1/DTD/svg11.dtd">


<!-- Page 197 -->
<svg x="0" y="0" width="921" height="1196" viewBox="0 0 921 1196" version="1.1" xmlns="http://www.w3.org/2000/svg" xmlns:xlink="http://www.w3.org/1999/xlink"
style="display: block;margin-left: auto;margin-right: auto;">
<defs>

<style type="text/css"><![CDATA[

.g1_197{
fill: none;
stroke: #007D9F;
stroke-width: 2.2916667;
stroke-linecap: butt;
stroke-linejoin: miter;
}
.g2_197{
fill: none;
stroke: #007598;
stroke-width: 1.5277778;
stroke-linecap: butt;
stroke-linejoin: miter;
stroke-miterlimit: 4;
}
.g3_197{
fill: none;
stroke: #007598;
stroke-width: 0.5102778;
stroke-linecap: butt;
stroke-linejoin: miter;
stroke-miterlimit: 4;
}
.g4_197{
fill: #007598;
stroke: #B2B3B7;
stroke-width: 1.5277778;
stroke-linecap: butt;
stroke-linejoin: miter;
stroke-miterlimit: 4;
}

.s1_197{
font-size: 18.33px;
font-family: LibreFranklin-ExtraBold_44v;
fill: #007D9F;
}
.s2_197{
font-size: 27.50px;
font-family: STKaitiSC-Bold_3wm;
fill: #3F3F40;
}
.s3_197{
font-size: 20.63px;
font-family: GentiumBasic-Italic_3ou;
fill: #3F3F40;
}
.s4_197{
font-size: 22.92px;
font-family: LibreFranklin-Bold_44h;
fill: #007D9F;
}
.s5_197{
font-size: 15.28px;
font-family: LibreFranklin-Regular_45b;
fill: #3F3F40;
}
.s6_197{
font-size: 24.44px;
font-family: STKaitiSC-Bold_3wm;
fill: #007598;
}
.s7_197{
font-size: 17.19px;
font-family: GentiumBasic-Italic_3ou;
fill: #3F3F40;
}
.s8_197{
font-size: 15.28px;
font-family: LibreFranklin-ExtraBold_44v;
fill: #3F3F40;
}
.s9_197{
font-size: 32.08px;
font-family: STKaitiSC-Regular_44y;
fill: #3F3F40;
}
.s10_197{
font-size: 33.61px;
font-family: ZenKai-Medium_3_v;
fill: #3F3F40;
}
.s11_197{
font-size: 32.08px;
font-family: STKaitiSC-Regular_44y;
fill: #007D9F;
}
.s12_197{
font-size: 17.19px;
font-family: GentiumBasic-Italic_3ou;
fill: #007D9F;
}
.s13_197{
font-size: 15.28px;
font-family: LibreFranklin-Bold_44h;
fill: #007598;
}
.s14_197{
font-size: 15.28px;
font-family: LibreFranklin-Bold_44h;
fill: #939598;
}
.s15_197{
font-size: 11.08px;
font-family: LibreFranklin-SemiBold_454;
fill: #FFFFFF;
}

]]></style>

</defs>
<path d="M0,0
L0,1196
L921,1196
L921,0 Z " 
fill="#FFFFFF" stroke="none" />
<path d="M105.3,90.6l13,0" class="g1_197" />
<text 
x="105" 
y="87" 
dx="0,0" 
class="s1_197"
>3 </text>

<text 
x="381" 
y="91" 
dx="0" 
class="s2_197"
>就</text>

<text 
x="413" 
y="91" 
dx="0,0.4,0.4,0.4,0.4" 
class="s3_197"
>(jiù)</text>

<text 
x="452" 
y="91" 
dx="0,0,0,0,0,-1.7,0,0,0,0,0,0" 
class="s4_197"
>(only, just)</text>

<text 
x="143" 
y="153" 
dx="0,0,0,0,0,0,0,0,0,0,0,0,0,-0.3,0,-0.2,0,0,0,0,0,0,0,0,0,0,0,-0.2,0,0,0,0,0,0,0,0,0,0,-0.5,0,0,0,0" 
class="s5_197"
>When used before a noun, pronoun, or verb, </text>

<text 
x="454" 
y="155" 
dx="0" 
class="s6_197"
>就</text>

<text 
x="482" 
y="153" 
dx="0,0.3,0.3,0.3,0.3" 
class="s7_197"
>(jiù)</text>

<text 
x="514" 
y="153" 
dx="0,0,0,0,0,0,0,0,0,0,0,0,0,0,0,0,0,0,0,0,0,0,0,0,0,0,0,-0.2,0,0,0,0,0,0,0,0,0,0,0,0,0" 
class="s5_197"
>means “only” or “just.” Often, the noun, </text>

<text 
x="143" 
y="181" 
dx="0,0,-0.2,0,0,0,0,0,0,0,0,0,0,-0.5,0,0,0,0,0,0,0,0,0,0,0,0,0,0,0,0,0,0,0,0,0,0,0,0,0,0,0,0,0,0,0,0,0,0,0,0,0,0,-0.2,0,0,0,0,-0.2,0,0,0,0,0,0,0,0,0,0,0,0,0,0" 
class="s5_197"
>pronoun, or verb can be modified by a numeral-measure word combination. </text>

<text 
x="155" 
y="246" 
dx="0,0" 
class="s8_197"
>A </text>

<text 
x="226" 
y="248" 
dx="0,0" 
class="s9_197"
>我们</text>

<text 
x="290" 
y="252" 
dx="0" 
class="s10_197"
>班</text>

<text 
x="323" 
y="248" 
dx="0,0,0,0" 
class="s9_197"
>人很少，</text>

<text 
x="452" 
y="248" 
dx="0" 
class="s11_197"
>就</text>

<text 
x="484" 
y="248" 
dx="0,0,0,0,0" 
class="s9_197"
>七个学生。</text>

<text 
x="232" 
y="286" 
dx="0,0.3,0.3,0.3,0.3,0.3,0.3,0.3,0.3,0.3,0.3,0.3,0.3,0.3,0.3,0.3,0.3,0.3,0.3,0.3,0.3,0.3,0.3,0.3" 
class="s7_197"
>Wǒmen bān rén hěn shǎo, </text>

<text 
x="405" 
y="286" 
dx="0,0.3,0.3,0.3" 
class="s12_197"
>jiù </text>

<text 
x="427" 
y="286" 
dx="0,0.3,0.3,0.3,0.3,0.3,0.3,0.3,0.3,0.3,0.3,0.3,0.3,0.3,0.3" 
class="s7_197"
>qī ge xuésheng.</text>

<text 
x="232" 
y="318" 
dx="0,0,0,0,0,0,0,0,0,0,0,0,0,0,0,0,0,0,0,0,0,0,0,0,0,0,0,0,0,0,0,0,0,-0.5,0,0,0,0,0,0,0,0,0,0,0" 
class="s5_197"
>Our class is small, with just seven students.</text>

<text 
x="155" 
y="381" 
dx="0,0" 
class="s8_197"
>B </text>

<text 
x="226" 
y="384" 
dx="0,0,0,0,0,0,0" 
class="s9_197"
>今天功课很少，</text>

<text 
x="450" 
y="384" 
dx="0" 
class="s11_197"
>就</text>

<text 
x="482" 
y="384" 
dx="0,0,0,0,0,0" 
class="s9_197"
>写五个汉字。</text>

<text 
x="232" 
y="421" 
dx="0,0.3,0.3,0.3,0.3,0.3,0.3,0.3,0.3,0.3,0.3,0.3,0.3,0.3,0.3,0.3,0.3,0.3,0.3,0.3,0.3,0.3,0.3,0.3,0.3" 
class="s7_197"
>Jīntiān gōngkè hěn shǎo, </text>

<text 
x="397" 
y="421" 
dx="0,0.3,0.3,0.3" 
class="s12_197"
>jiù </text>

<text 
x="419" 
y="421" 
dx="0,0.3,0.3,0.3,0.3,0.3,0.3,0.3,0.3,0.3,0.3,0.3,0.3,0.3,0.3,0.3" 
class="s7_197"
>xiě wǔ ge Hànzì.</text>

<text 
x="232" 
y="453" 
dx="0,0,0,0,-0.2,0,-0.9,0,0,0,0,0,0,0,0,0,0,0,0,0,0,0,0,0,0,-0.2,0,0,0,-1,0,0,-1.1,0,0,0,0,0,0,0,0,0,-0.5,0,0,-0.2,0,0,0,0,0,-0.2,0,0,0,0,-0.5,0,0,0,0,0,0,0,0,-0.2,0,0,0" 
class="s5_197"
>There’s little homework today. We only have to write five characters.</text>

<text 
x="155" 
y="516" 
dx="0,0" 
class="s8_197"
>C </text>

<text 
x="226" 
y="519" 
dx="0,0,0,0,0,0,0" 
class="s9_197"
>我们一家五口，</text>

<text 
x="450" 
y="519" 
dx="0" 
class="s11_197"
>就</text>

<text 
x="482" 
y="519" 
dx="0,0,0,0,0,0,0" 
class="s9_197"
>我对味精过敏。</text>

<text 
x="232" 
y="556" 
dx="0,0.3,0.3,0.3,0.3,0.3,0.3,0.3,0.3,0.3,0.3,0.3,0.3,0.3,0.3,0.3,0.3,0.3,0.3,0.3,0.3" 
class="s7_197"
>Wǒmen yì jiā wǔ kǒu, </text>

<text 
x="377" 
y="556" 
dx="0,0.3,0.3,0.3" 
class="s12_197"
>jiù </text>

<text 
x="398" 
y="556" 
dx="0,0.3,0.3,0.3,0.3,0.3,0.3,0.3,0.3,0.3,0.3,0.3,0.3,0.3,0.3,0.3,0.3,0.3,0.3,0.3,0.3,0.3" 
class="s7_197"
>wǒ duì wèijīng guòmǐn.</text>

<text 
x="232" 
y="588" 
dx="0,0,0,0,-0.2,0,0,0,-0.2,0,0,0,0,-0.5,0,0,0,0,0,0,0,0,0,0,0,0,0,0,0,0,0,0,0,0,0,-1,0,0,0,0,0,0,0,0,0,0,0,0,0,0,0,0,0,0,0,0,0,-0.2,0,0,0,0,0" 
class="s5_197"
>There are five people in our family. Only I am allergic to MSG.</text>

<text 
x="155" 
y="652" 
dx="0,0" 
class="s8_197"
>D </text>

<text 
x="226" 
y="654" 
dx="0,0,0" 
class="s9_197"
>今天我</text>

<text 
x="322" 
y="654" 
dx="0" 
class="s11_197"
>就</text>

<text 
x="354" 
y="654" 
dx="0,0,0,0,0" 
class="s9_197"
>有一节课。</text>

<text 
x="232" 
y="691" 
dx="0,0.3,0.3,0.3,0.3,0.3,0.3,0.3,0.3,0.3,0.3" 
class="s7_197"
>Jīntiān wǒ </text>

<text 
x="303" 
y="691" 
dx="0,0.3,0.3,0.3" 
class="s12_197"
>jiù </text>

<text 
x="324" 
y="691" 
dx="0,0.3,0.3,0.3,0.3,0.3,0.3,0.3,0.3,0.3,0.3,0.3,0.3,0.3" 
class="s7_197"
>yǒu yì jié kè.</text>

<text 
x="232" 
y="723" 
dx="0,-1.6,0,0,0,0,0,0,0,0,0,-0.5,0,0,0,0,0,0,0,0,0,0,0,0,0,0,0,0" 
class="s5_197"
>Today I have only one class.</text>

<text 
x="143" 
y="780" 
dx="0,0.2,0.2,0.2,0.2,0.2,0.2,0.2,0.2" 
class="s13_197"
>EXERCISES</text>

<text 
x="143" 
y="807" 
dx="0,0,0,0,0,0,-0.1,-0.2,0,0,0,0,0,0,0,0,0,-0.2,0,0,0,0,0,0,0,0,0,0,0,0,0,0,0,0,0,0" 
class="s5_197"
>Complete the sentences by inserting </text>

<text 
x="407" 
y="809" 
dx="0" 
class="s6_197"
>就</text>

<text 
x="435" 
y="807" 
dx="0,0,0,0,-0.2,0,0,0,0,0,-0.2,0,0,0,0,0,-0.2,0,0,0,0,0,0,0,-0.3,-0.4,0,-0.2,0,0,0,0,0,0,0,0,0,0,0,0,0,-0.3,0,0,0,0,0,0" 
class="s5_197"
>where appropriate. Use exercise 1 as an example.</text>

<text 
x="145" 
y="850" 
dx="0,0" 
class="s14_197"
>1 </text>

<text 
x="187" 
y="851" 
dx="0,0,0,0,0" 
class="s9_197"
>我们的电脑</text>

<text 
x="348" 
y="854" 
dx="0" 
class="s10_197"
>班</text>

<text 
x="381" 
y="851" 
dx="0,0,0" 
class="s9_197"
>很小 </text>

<text 
x="600" 
y="851" 
dx="0,0,0,0,0,0" 
class="s9_197"
>二十个学生 </text>

<text 
x="187" 
y="896" 
dx="0,0" 
class="s9_197"
>→ </text>

<text 
x="236" 
y="896" 
dx="0,0,0,0,0" 
class="s9_197"
>我们的电脑</text>

<text 
x="396" 
y="899" 
dx="0" 
class="s10_197"
>班</text>

<text 
x="430" 
y="896" 
dx="0,0,0,0,0,0,0,0,0,0" 
class="s9_197"
>很小，就二十个学生。</text>

<text 
x="145" 
y="938" 
dx="0,0" 
class="s14_197"
>2 </text>

<text 
x="187" 
y="940" 
dx="0,0,0,0,0,0,0,0,0,0,0,0" 
class="s9_197"
>这个城市的中国饭馆很多 </text>

<text 
x="600" 
y="940" 
dx="0,0,0,0,0" 
class="s9_197"
>我去过两家</text>

<text 
x="145" 
y="983" 
dx="0,0" 
class="s14_197"
>3 </text>

<text 
x="187" 
y="984" 
dx="0,0,0,0,0,0,0,0,0,0,0" 
class="s9_197"
>弟弟这个月没花很多钱 </text>

<text 
x="600" 
y="984" 
dx="0,0,0" 
class="s9_197"
>两百块</text>

<path d="M132.9,56.4l0,53.5l0,0.8l0.7,0l676.9,0l0.8,0l0,-0.8l0,-53.5l0,-0.7l-0.8,0l-676.9,0l-0.7,0l0,0.7Z" class="g2_197" />
<path d="M134.9,108.6l674.4,0l0,-50.9l-674.4,0l0,50.9Z" class="g3_197" />
<path d="M150.6,223.3c-0.1,0,-7.6,0.1,-7.6,7.7l0,19.6c0,0.1,0.1,7.7,7.6,7.7l22.4,0c0.1,0,7.7,-0.1,7.7,-7.7l0,-19.6c0,-0.1,-0.1,-7.7,-7.7,-7.7l-22.4,0Z" class="g2_197" />
<path d="M150.6,225.4c-0.6,0,-5.6,0.2,-5.6,5.6l0,19.6c0,0.6,0.2,5.6,5.6,5.6l22.4,0c0.6,0,5.6,-0.2,5.6,-5.6l0,-19.6c0,-0.6,-0.2,-5.6,-5.6,-5.6l-22.4,0Z" class="g3_197" />
<path d="M150.6,358.4c-0.1,0,-7.6,0.1,-7.6,7.7l0,19.7c0,0.1,0.1,7.6,7.6,7.6l22.4,0c0.1,0,7.7,-0.1,7.7,-7.6l0,-19.7c0,-0.1,-0.1,-7.7,-7.7,-7.7l-22.4,0Z" class="g2_197" />
<path d="M150.6,360.5c-0.6,0,-5.6,0.2,-5.6,5.6l0,19.7c0,0.5,0.2,5.6,5.6,5.6l22.4,0c0.6,0,5.6,-0.2,5.6,-5.6l0,-19.7c0,-0.6,-0.2,-5.6,-5.6,-5.6l-22.4,0Z" class="g3_197" />
<path d="M150.6,493.6c-0.1,0,-7.6,0.1,-7.6,7.6l0,19.7c0,0.1,0.1,7.6,7.6,7.6l22.4,0c0.1,0,7.7,0,7.7,-7.6l0,-19.7c0,-0.1,-0.1,-7.6,-7.7,-7.6l-22.4,0Z" class="g2_197" />
<path d="M150.6,495.6c-0.6,0,-5.6,0.2,-5.6,5.6l0,19.7c0,0.6,0.2,5.6,5.6,5.6l22.4,0c0.6,0,5.6,-0.2,5.6,-5.6l0,-19.7c0,-0.6,-0.2,-5.6,-5.6,-5.6l-22.4,0Z" class="g3_197" />
<path d="M150.6,628.7c-0.1,0,-7.6,0.1,-7.6,7.6l0,19.7c0,0.1,0.1,7.7,7.6,7.7l22.4,0c0.1,0,7.7,-0.1,7.7,-7.7l0,-19.7c0,0,-0.1,-7.6,-7.7,-7.6l-22.4,0Z" class="g2_197" />
<path d="M150.6,630.7c-0.6,0.1,-5.6,0.3,-5.6,5.6l0,19.7c0,0.6,0.2,5.6,5.6,5.6l22.4,0c0.6,0,5.6,-0.2,5.6,-5.6l0,-19.7c0,-0.5,-0.2,-5.6,-5.6,-5.6l-22.4,0Z" class="g3_197" />
<path d="M-17.5,1209.2l58,0l0,-1222.1l-58,0l0,1222.1Z" class="g4_197" />
<text 
transform="matrix(0, -1, 1, 0, 31, 1173)"
dx="0,1,1,1" 
class="s15_197"
>176 </text>

<text 
transform="matrix(0, -1, 1, 0, 31, 1130)"
dx="0,1,1,0.8,1,1,0.9,1,0.8,1,1,1,1,1,1,1,1,1,1,1,1" 
class="s15_197"
>Integrated Chinese 2 </text>

<text 
transform="matrix(0, -1, 1, 0, 31, 990)"
dx="0,1" 
class="s15_197"
>| </text>

<text 
transform="matrix(0, -1, 1, 0, 31, 977)"
dx="0,-0.2,0.7,0.7,1,1,1,1" 
class="s15_197"
>Textbook</text>



<!-- Any embedded fonts defined here -->
<style type="text/css" ><![CDATA[

@font-face {
	font-family: LibreFranklin-ExtraBold_44v;
	src: url("fonts/LibreFranklin-ExtraBold_44v.woff") format("woff");
}

@font-face {
	font-family: LibreFranklin-Regular_45b;
	src: url("fonts/LibreFranklin-Regular_45b.woff") format("woff");
}

@font-face {
	font-family: GentiumBasic-Italic_3ou;
	src: url("fonts/GentiumBasic-Italic_3ou.woff") format("woff");
}

@font-face {
	font-family: STKaitiSC-Bold_3wm;
	src: url("fonts/STKaitiSC-Bold_3wm.woff") format("woff");
}

@font-face {
	font-family: LibreFranklin-SemiBold_454;
	src: url("fonts/LibreFranklin-SemiBold_454.woff") format("woff");
}

@font-face {
	font-family: STKaitiSC-Regular_44y;
	src: url("fonts/STKaitiSC-Regular_44y.woff") format("woff");
}

@font-face {
	font-family: LibreFranklin-Bold_44h;
	src: url("fonts/LibreFranklin-Bold_44h.woff") format("woff");
}

@font-face {
	font-family: ZenKai-Medium_3_v;
	src: url("fonts/ZenKai-Medium_3_v.woff") format("woff");
}

]]></style>

</svg>
