<?xml version="1.0" encoding="UTF-8" standalone="no"?>
<!DOCTYPE svg PUBLIC "-//W3C//DTD SVG 1.1//EN"
"http://www.w3.org/Graphics/SVG/1.1/DTD/svg11.dtd">


<!-- Page 366 -->
<svg x="0" y="0" width="921" height="1196" viewBox="0 0 921 1196" version="1.1" xmlns="http://www.w3.org/2000/svg" xmlns:xlink="http://www.w3.org/1999/xlink"
style="display: block;margin-left: auto;margin-right: auto;">
<defs>

<style type="text/css"><![CDATA[

.g1_366{
fill: #F0F1F2;
}
.g2_366{
fill: #BDBEC1;
}
.g3_366{
fill: none;
stroke: #BDBEC1;
stroke-width: 1.5277778;
stroke-linecap: butt;
stroke-linejoin: miter;
}
.g4_366{
fill: none;
stroke: #DADBDD;
stroke-width: 1.5277778;
stroke-linecap: butt;
stroke-linejoin: miter;
}
.g5_366{
fill: none;
stroke: #BDBEC1;
stroke-width: 0.38194445;
stroke-linecap: butt;
stroke-linejoin: miter;
}
.g6_366{
fill: #57585A;
stroke: #B2B3B7;
stroke-width: 1.5277778;
stroke-linecap: butt;
stroke-linejoin: miter;
stroke-miterlimit: 4;
}

.s1_366{
font-size: 14.51px;
font-family: LibreFranklin-SemiBold_4gw;
fill: #57585A;
}
.s2_366{
font-size: 24.44px;
font-family: STKaitiSC-Regular_44y;
fill: #57585A;
}
.s3_366{
font-size: 14.90px;
font-family: GentiumBookBasic-Italic_3mn;
fill: #3F3F40;
}
.s4_366{
font-size: 14.51px;
font-family: LibreFranklin-Regular_4h1;
fill: #3F3F40;
}
.s5_366{
font-size: 13.75px;
font-family: LibreFranklin-Regular_4h1;
fill: #3F3F40;
}
.s6_366{
font-size: 14.51px;
font-family: LibreFranklin-SemiBold_4gw;
fill: #77787B;
}
.s7_366{
font-size: 24.44px;
font-family: STKaitiTC-Regular_4h8;
fill: #57585A;
}
.s8_366{
font-size: 13.75px;
font-family: LibreFranklin-Italic_4gr;
fill: #3F3F40;
}
.s9_366{
font-size: 19.86px;
font-family: LibreFranklin-SemiBold_4gw;
fill: #3F3F40;
}
.s10_366{
font-size: 10.69px;
font-family: LibreFranklin-SemiBold_4gw;
fill: #FFFFFF;
}

]]></style>

</defs>
<path d="M0,0
L0,1196
L921,1196
L921,0 Z " 
fill="#FFFFFF" stroke="none" />
<path d="M55,101.1l178.8,0l0,42.7L55,143.8l0,-42.7Zm178.8,0l178.7,0l0,42.7l-178.7,0l0,-42.7Zm178.7,0l135.2,0l0,42.7l-135.2,0l0,-42.7Zm135.2,0l66.1,0l0,42.7l-66.1,0l0,-42.7Zm66.1,0l189.2,0l0,42.7l-189.2,0l0,-42.7Zm189.2,0l63.3,0l0,42.7l-63.3,0l0,-42.7ZM55,186l178.8,0l0,42.2L55,228.2L55,186Zm178.8,0l178.7,0l0,42.2l-178.7,0l0,-42.2Zm178.7,0l135.2,0l0,42.2l-135.2,0l0,-42.2Zm135.2,0l66.1,0l0,42.2l-66.1,0l0,-42.2Zm66.1,0L803,186l0,42.2l-189.2,0l0,-42.2ZM803,186l63.3,0l0,42.2l-63.3,0L803,186ZM55,270.3l178.8,0l0,42.2L55,312.5l0,-42.2Zm178.8,0l178.7,0l0,42.2l-178.7,0l0,-42.2Zm178.7,0l135.2,0l0,42.2l-135.2,0l0,-42.2Zm135.2,0l66.1,0l0,42.2l-66.1,0l0,-42.2Zm66.1,0l189.2,0l0,42.2l-189.2,0l0,-42.2Zm189.2,0l63.3,0l0,42.2l-63.3,0l0,-42.2ZM55,354.7l178.8,0l0,42.1L55,396.8l0,-42.1Zm178.8,0l178.7,0l0,42.1l-178.7,0l0,-42.1Zm178.7,0l135.2,0l0,42.1l-135.2,0l0,-42.1Zm135.2,0l66.1,0l0,42.1l-66.1,0l0,-42.1Zm66.1,0l189.2,0l0,42.1l-189.2,0l0,-42.1Zm189.2,0l63.3,0l0,42.1l-63.3,0l0,-42.1ZM55,439l178.8,0l0,42.1L55,481.1L55,439Zm178.8,0l178.7,0l0,42.1l-178.7,0l0,-42.1Zm178.7,0l135.2,0l0,42.1l-135.2,0l0,-42.1Zm135.2,0l66.1,0l0,42.1l-66.1,0l0,-42.1Zm66.1,0L803,439l0,42.1l-189.2,0l0,-42.1ZM803,439l63.3,0l0,42.1l-63.3,0L803,439ZM55,546.4l178.8,0l0,42.1L55,588.5l0,-42.1Zm178.8,0l178.7,0l0,42.1l-178.7,0l0,-42.1Zm178.7,0l135.2,0l0,42.1l-135.2,0l0,-42.1Zm135.2,0l66.1,0l0,42.1l-66.1,0l0,-42.1Zm66.1,0l189.2,0l0,42.1l-189.2,0l0,-42.1Zm189.2,0l63.3,0l0,42.1l-63.3,0l0,-42.1ZM55,630.7l178.8,0l0,42.2L55,672.9l0,-42.2Zm178.8,0l178.7,0l0,42.2l-178.7,0l0,-42.2Zm178.7,0l135.2,0l0,42.2l-135.2,0l0,-42.2Zm135.2,0l66.1,0l0,42.2l-66.1,0l0,-42.2Zm66.1,0l189.2,0l0,42.2l-189.2,0l0,-42.2Zm189.2,0l63.3,0l0,42.2l-63.3,0l0,-42.2ZM55,715l178.8,0l0,42.2L55,757.2L55,715Zm178.8,0l178.7,0l0,42.2l-178.7,0l0,-42.2Zm178.7,0l135.2,0l0,42.2l-135.2,0l0,-42.2Zm135.2,0l66.1,0l0,42.2l-66.1,0l0,-42.2Zm66.1,0L803,715l0,42.2l-189.2,0l0,-42.2ZM803,715l63.3,0l0,42.2l-63.3,0L803,715ZM55,799.3l178.8,0l0,45.4L55,844.7l0,-45.4Zm178.8,0l178.7,0l0,45.4l-178.7,0l0,-45.4Zm178.7,0l135.2,0l0,45.4l-135.2,0l0,-45.4Zm135.2,0l66.1,0l0,45.4l-66.1,0l0,-45.4Zm66.1,0l189.2,0l0,45.4l-189.2,0l0,-45.4Zm189.2,0l63.3,0l0,45.4l-63.3,0l0,-45.4ZM55,886.9l178.8,0l0,42.1L55,929l0,-42.1Zm178.8,0l178.7,0l0,42.1l-178.7,0l0,-42.1Zm178.7,0l135.2,0l0,42.1l-135.2,0l0,-42.1Zm135.2,0l66.1,0l0,42.1l-66.1,0l0,-42.1Zm66.1,0l189.2,0l0,42.1l-189.2,0l0,-42.1Zm189.2,0l63.3,0l0,42.1L803,929l0,-42.1ZM55,974.4l178.8,0l0,42.2l-178.8,0l0,-42.2Zm178.8,0l178.7,0l0,42.2l-178.7,0l0,-42.2Zm178.7,0l135.2,0l0,42.2l-135.2,0l0,-42.2Zm135.2,0l66.1,0l0,42.2l-66.1,0l0,-42.2Zm66.1,0l189.2,0l0,42.2l-189.2,0l0,-42.2Zm189.2,0l63.3,0l0,42.2l-63.3,0l0,-42.2ZM55,1058.7l178.8,0l0,42.8l-178.8,0l0,-42.8Zm178.8,0l178.7,0l0,42.8l-178.7,0l0,-42.8Zm178.7,0l135.2,0l0,42.8l-135.2,0l0,-42.8Zm135.2,0l66.1,0l0,42.8l-66.1,0l0,-42.8Zm66.1,0l189.2,0l0,42.8l-189.2,0l0,-42.8Zm189.2,0l63.3,0l0,42.8l-63.3,0l0,-42.8Z" class="g1_366" />
<path d="M55,844.7l811.3,0l0,42.2L55,886.9l0,-42.2Z" class="g2_366" />
<path d="M55,1101.5l178.8,0" class="g3_366" />
<path d="M233.8,1101.5l178.7,0" class="g3_366" />
<path d="M412.5,1101.5l135.2,0" class="g3_366" />
<path d="M547.7,1101.5l66.1,0" class="g3_366" />
<path d="M613.8,1101.5l189.2,0" class="g3_366" />
<path d="M803,1101.5l63.3,0" class="g3_366" />
<path d="M55,101.1l178.8,0" class="g4_366" />
<path d="M233.8,101.1l178.7,0" class="g4_366" />
<path d="M412.5,101.1l135.2,0" class="g4_366" />
<path d="M547.7,101.1l66.1,0" class="g4_366" />
<path d="M613.8,101.1l189.2,0" class="g4_366" />
<path d="M803,101.1l63.3,0" class="g4_366" />
<path d="M55,886.9l178.8,0" class="g5_366" />
<path d="M233.8,886.9l178.7,0" class="g5_366" />
<path d="M412.5,886.9l135.2,0" class="g5_366" />
<path d="M547.7,886.9l66.1,0" class="g5_366" />
<path d="M613.8,886.9l189.2,0" class="g5_366" />
<path d="M803,886.9l63.3,0" class="g5_366" />
<path d="M55,143.8l178.8,0" class="g5_366" />
<path d="M233.8,143.8l178.7,0" class="g5_366" />
<path d="M412.5,143.8l135.2,0" class="g5_366" />
<path d="M547.7,143.8l66.1,0" class="g5_366" />
<path d="M613.8,143.8l189.2,0" class="g5_366" />
<path d="M803,143.8l63.3,0" class="g5_366" />
<path d="M55,186l178.8,0" class="g5_366" />
<path d="M233.8,186l178.7,0" class="g5_366" />
<path d="M412.5,186l135.2,0" class="g5_366" />
<path d="M547.7,186l66.1,0" class="g5_366" />
<path d="M613.8,186L803,186" class="g5_366" />
<path d="M803,186l63.3,0" class="g5_366" />
<path d="M55,228.2l178.8,0" class="g5_366" />
<path d="M233.8,228.2l178.7,0" class="g5_366" />
<path d="M412.5,228.2l135.2,0" class="g5_366" />
<path d="M547.7,228.2l66.1,0" class="g5_366" />
<path d="M613.8,228.2l189.2,0" class="g5_366" />
<path d="M803,228.2l63.3,0" class="g5_366" />
<path d="M55,270.3l178.8,0" class="g5_366" />
<path d="M233.8,270.3l178.7,0" class="g5_366" />
<path d="M412.5,270.3l135.2,0" class="g5_366" />
<path d="M547.7,270.3l66.1,0" class="g5_366" />
<path d="M613.8,270.3l189.2,0" class="g5_366" />
<path d="M803,270.3l63.3,0" class="g5_366" />
<path d="M55,312.5l178.8,0" class="g5_366" />
<path d="M233.8,312.5l178.7,0" class="g5_366" />
<path d="M412.5,312.5l135.2,0" class="g5_366" />
<path d="M547.7,312.5l66.1,0" class="g5_366" />
<path d="M613.8,312.5l189.2,0" class="g5_366" />
<path d="M803,312.5l63.3,0" class="g5_366" />
<path d="M55,354.7l178.8,0" class="g5_366" />
<path d="M233.8,354.7l178.7,0" class="g5_366" />
<path d="M412.5,354.7l135.2,0" class="g5_366" />
<path d="M547.7,354.7l66.1,0" class="g5_366" />
<path d="M613.8,354.7l189.2,0" class="g5_366" />
<path d="M803,354.7l63.3,0" class="g5_366" />
<path d="M55,396.8l178.8,0" class="g5_366" />
<path d="M233.8,396.8l178.7,0" class="g5_366" />
<path d="M412.5,396.8l135.2,0" class="g5_366" />
<path d="M547.7,396.8l66.1,0" class="g5_366" />
<path d="M613.8,396.8l189.2,0" class="g5_366" />
<path d="M803,396.8l63.3,0" class="g5_366" />
<path d="M55,439l178.8,0" class="g5_366" />
<path d="M233.8,439l178.7,0" class="g5_366" />
<path d="M412.5,439l135.2,0" class="g5_366" />
<path d="M547.7,439l66.1,0" class="g5_366" />
<path d="M613.8,439L803,439" class="g5_366" />
<path d="M803,439l63.3,0" class="g5_366" />
<path d="M55,481.1l178.8,0" class="g5_366" />
<path d="M233.8,481.1l178.7,0" class="g5_366" />
<path d="M412.5,481.1l135.2,0" class="g5_366" />
<path d="M547.7,481.1l66.1,0" class="g5_366" />
<path d="M613.8,481.1l189.2,0" class="g5_366" />
<path d="M803,481.1l63.3,0" class="g5_366" />
<path d="M55,546.4l178.8,0" class="g5_366" />
<path d="M233.8,546.4l178.7,0" class="g5_366" />
<path d="M412.5,546.4l135.2,0" class="g5_366" />
<path d="M547.7,546.4l66.1,0" class="g5_366" />
<path d="M613.8,546.4l189.2,0" class="g5_366" />
<path d="M803,546.4l63.3,0" class="g5_366" />
<path d="M55,588.5l178.8,0" class="g5_366" />
<path d="M233.8,588.5l178.7,0" class="g5_366" />
<path d="M412.5,588.5l135.2,0" class="g5_366" />
<path d="M547.7,588.5l66.1,0" class="g5_366" />
<path d="M613.8,588.5l189.2,0" class="g5_366" />
<path d="M803,588.5l63.3,0" class="g5_366" />
<path d="M55,630.7l178.8,0" class="g5_366" />
<path d="M233.8,630.7l178.7,0" class="g5_366" />
<path d="M412.5,630.7l135.2,0" class="g5_366" />
<path d="M547.7,630.7l66.1,0" class="g5_366" />
<path d="M613.8,630.7l189.2,0" class="g5_366" />
<path d="M803,630.7l63.3,0" class="g5_366" />
<path d="M55,672.9l178.8,0" class="g5_366" />
<path d="M233.8,672.9l178.7,0" class="g5_366" />
<path d="M412.5,672.9l135.2,0" class="g5_366" />
<path d="M547.7,672.9l66.1,0" class="g5_366" />
<path d="M613.8,672.9l189.2,0" class="g5_366" />
<path d="M803,672.9l63.3,0" class="g5_366" />
<path d="M55,715l178.8,0" class="g5_366" />
<path d="M233.8,715l178.7,0" class="g5_366" />
<path d="M412.5,715l135.2,0" class="g5_366" />
<path d="M547.7,715l66.1,0" class="g5_366" />
<path d="M613.8,715L803,715" class="g5_366" />
<path d="M803,715l63.3,0" class="g5_366" />
<path d="M55,757.2l178.8,0" class="g5_366" />
<path d="M233.8,757.2l178.7,0" class="g5_366" />
<path d="M412.5,757.2l135.2,0" class="g5_366" />
<path d="M547.7,757.2l66.1,0" class="g5_366" />
<path d="M613.8,757.2l189.2,0" class="g5_366" />
<path d="M803,757.2l63.3,0" class="g5_366" />
<path d="M55,799.3l178.8,0" class="g5_366" />
<path d="M233.8,799.3l178.7,0" class="g5_366" />
<path d="M412.5,799.3l135.2,0" class="g5_366" />
<path d="M547.7,799.3l66.1,0" class="g5_366" />
<path d="M613.8,799.3l189.2,0" class="g5_366" />
<path d="M803,799.3l63.3,0" class="g5_366" />
<path d="M55,929l178.8,0" class="g5_366" />
<path d="M233.8,929l178.7,0" class="g5_366" />
<path d="M412.5,929l135.2,0" class="g5_366" />
<path d="M547.7,929l66.1,0" class="g5_366" />
<path d="M613.8,929L803,929" class="g5_366" />
<path d="M803,929l63.3,0" class="g5_366" />
<path d="M55,974.4l178.8,0" class="g5_366" />
<path d="M233.8,974.4l178.7,0" class="g5_366" />
<path d="M412.5,974.4l135.2,0" class="g5_366" />
<path d="M547.7,974.4l66.1,0" class="g5_366" />
<path d="M613.8,974.4l189.2,0" class="g5_366" />
<path d="M803,974.4l63.3,0" class="g5_366" />
<path d="M55,1016.6l178.8,0" class="g5_366" />
<path d="M233.8,1016.6l178.7,0" class="g5_366" />
<path d="M412.5,1016.6l135.2,0" class="g5_366" />
<path d="M547.7,1016.6l66.1,0" class="g5_366" />
<path d="M613.8,1016.6l189.2,0" class="g5_366" />
<path d="M803,1016.6l63.3,0" class="g5_366" />
<path d="M55,1058.7l178.8,0" class="g5_366" />
<path d="M233.8,1058.7l178.7,0" class="g5_366" />
<path d="M412.5,1058.7l135.2,0" class="g5_366" />
<path d="M547.7,1058.7l66.1,0" class="g5_366" />
<path d="M613.8,1058.7l189.2,0" class="g5_366" />
<path d="M803,1058.7l63.3,0" class="g5_366" />
<path d="M55,844.7l178.8,0" class="g5_366" />
<path d="M233.8,844.7l178.7,0" class="g5_366" />
<path d="M412.5,844.7l135.2,0" class="g5_366" />
<path d="M547.7,844.7l66.1,0" class="g5_366" />
<path d="M613.8,844.7l189.2,0" class="g5_366" />
<path d="M803,844.7l63.3,0" class="g5_366" />
<text 
x="61" 
y="85" 
dx="0,0,0,0,0,0,0,0,0,0" 
class="s1_366"
>Simplified</text>

<text 
x="239" 
y="85" 
dx="0,-1.2,-0.1,0,0,0,0,0,0,0,0" 
class="s1_366"
>Traditional</text>

<text 
x="418" 
y="85" 
dx="0,0,0,0,0,0" 
class="s1_366"
>Pinyin</text>

<text 
x="553" 
y="75" 
dx="0,0,0,0,0,0,-0.2,0" 
class="s1_366"
>Part of </text>

<text 
x="553" 
y="94" 
dx="0,0,0,0,0,0" 
class="s1_366"
>Speech</text>

<text 
x="619" 
y="85" 
dx="0,0,0,0,0,0,0" 
class="s1_366"
>English</text>

<text 
x="809" 
y="85" 
dx="0,0,0,0,0,0" 
class="s1_366"
>Lesson</text>

<text 
x="61" 
y="131" 
dx="0,0" 
class="s2_366"
>有名</text>

<text 
x="418" 
y="129" 
dx="0,0.2,0.2,0.2,0.2,0.2,0.2" 
class="s3_366"
>yǒumíng</text>

<text 
x="553" 
y="129" 
dx="0,0,0" 
class="s4_366"
>adj</text>

<text 
x="619" 
y="129" 
dx="0,0,0,0,0,0,0,0,0,0,0,0,0,0,0,0,0,0" 
class="s5_366"
>famous, well-known</text>

<text 
x="809" 
y="129" 
dx="0,0" 
class="s6_366"
>19</text>

<text 
x="61" 
y="173" 
dx="0,0,0" 
class="s2_366"
>有意思</text>

<text 
x="418" 
y="171" 
dx="0,0.2,0.2,0.2,0.2,0.2,0.2,0.2" 
class="s3_366"
>yǒu yìsi</text>

<text 
x="553" 
y="171" 
dx="0,0,0" 
class="s4_366"
>adj</text>

<text 
x="619" 
y="171" 
dx="0,0,0,-0.2,0,-0.2,0,0,0,0,0" 
class="s5_366"
>interesting</text>

<text 
x="809" 
y="171" 
dx="0" 
class="s6_366"
>4</text>

<text 
x="61" 
y="215" 
dx="0" 
class="s2_366"
>又</text>

<text 
x="418" 
y="213" 
dx="0,0.2,0.2" 
class="s3_366"
>yòu</text>

<text 
x="553" 
y="214" 
dx="0,0,0" 
class="s4_366"
>adv</text>

<text 
x="619" 
y="213" 
dx="0,0,0,0,0" 
class="s5_366"
>again</text>

<text 
x="809" 
y="214" 
dx="0,0" 
class="s6_366"
>11</text>

<text 
x="61" 
y="258" 
dx="0" 
class="s2_366"
>右</text>

<text 
x="418" 
y="255" 
dx="0,0.2,0.2" 
class="s3_366"
>yòu</text>

<text 
x="553" 
y="256" 
dx="0" 
class="s4_366"
>n</text>

<text 
x="619" 
y="255" 
dx="0,0,0,0,0" 
class="s5_366"
>right</text>

<text 
x="809" 
y="256" 
dx="0,0" 
class="s6_366"
>13</text>

<text 
x="61" 
y="300" 
dx="0" 
class="s2_366"
>鱼</text>

<text 
x="239" 
y="300" 
dx="0" 
class="s7_366"
>魚</text>

<text 
x="418" 
y="297" 
dx="0,0.2" 
class="s3_366"
>yú</text>

<text 
x="553" 
y="298" 
dx="0" 
class="s4_366"
>n</text>

<text 
x="619" 
y="298" 
dx="0,0,0,0" 
class="s5_366"
>fish</text>

<text 
x="809" 
y="298" 
dx="0,0" 
class="s6_366"
>12</text>

<text 
x="61" 
y="342" 
dx="0,0" 
class="s2_366"
>语法</text>

<text 
x="239" 
y="342" 
dx="0,0" 
class="s7_366"
>語法</text>

<text 
x="418" 
y="340" 
dx="0,0.2,0.2,0.2" 
class="s3_366"
>yǔfǎ</text>

<text 
x="553" 
y="340" 
dx="0" 
class="s4_366"
>n</text>

<text 
x="619" 
y="340" 
dx="0,0,0,0,0,0,0" 
class="s5_366"
>grammar</text>

<text 
x="809" 
y="340" 
dx="0" 
class="s6_366"
>7</text>

<text 
x="61" 
y="384" 
dx="0,0" 
class="s2_366"
>预报</text>

<text 
x="239" 
y="384" 
dx="0,0" 
class="s7_366"
>預報</text>

<text 
x="418" 
y="382" 
dx="0,0.2,0.2,0.2,0.2" 
class="s3_366"
>yùbào</text>

<text 
x="553" 
y="382" 
dx="0,0,0" 
class="s4_366"
>v/n</text>

<text 
x="619" 
y="382" 
dx="0,-0.2,0,0,-0.3,0,-0.2,0,0,0,0,0,0,0,-0.3,0,-0.2,0,0,0,0" 
class="s5_366"
>to forecast; forecast</text>

<text 
x="809" 
y="382" 
dx="0,0" 
class="s6_366"
>11</text>

<text 
x="61" 
y="426" 
dx="0,0" 
class="s2_366"
>预习</text>

<text 
x="239" 
y="426" 
dx="0,0" 
class="s7_366"
>預習</text>

<text 
x="418" 
y="424" 
dx="0,0.2,0.2,0.2" 
class="s3_366"
>yùxí</text>

<text 
x="553" 
y="424" 
dx="0" 
class="s4_366"
>v</text>

<text 
x="619" 
y="424" 
dx="0,-0.2,0,0,0,-0.2,0,0,0,0" 
class="s5_366"
>to preview</text>

<text 
x="809" 
y="424" 
dx="0" 
class="s6_366"
>7</text>

<text 
x="61" 
y="468" 
dx="0" 
class="s2_366"
>圆</text>

<text 
x="239" 
y="468" 
dx="0" 
class="s7_366"
>圓</text>

<text 
x="418" 
y="466" 
dx="0,0.2,0.2,0.2" 
class="s3_366"
>yuán</text>

<text 
x="553" 
y="467" 
dx="0,0,0" 
class="s4_366"
>adj</text>

<text 
x="619" 
y="466" 
dx="0,-0.2,0,0,0" 
class="s5_366"
>round</text>

<text 
x="809" 
y="467" 
dx="0,0" 
class="s6_366"
>14</text>

<text 
x="61" 
y="522" 
dx="0" 
class="s2_366"
>元</text>

<text 
x="418" 
y="520" 
dx="0,0.2,0.2,0.2" 
class="s3_366"
>yuán</text>

<text 
x="553" 
y="520" 
dx="0" 
class="s4_366"
>m</text>

<text 
x="619" 
y="500" 
dx="0,0,0,0,0,0,0,-0.2,0,0,0,0,-0.2,0,0,-0.3,0,0,0,0,0,0" 
class="s5_366"
>(measure word for the </text>

<text 
x="619" 
y="520" 
dx="0,0,0,0,0,0,0,0,0,0,0,0,0,0,0,0,0,0,-0.1,0,0,0,0" 
class="s5_366"
>basic Chinese monetary </text>

<text 
x="619" 
y="540" 
dx="0,0,0,0,0,0,0" 
class="s5_366"
>unit), </text>

<text 
x="654" 
y="540" 
dx="0,0,0,0" 
class="s8_366"
>yuan</text>

<text 
x="809" 
y="520" 
dx="0,0" 
class="s6_366"
>17</text>

<text 
x="61" 
y="576" 
dx="0" 
class="s2_366"
>远</text>

<text 
x="239" 
y="576" 
dx="0" 
class="s7_366"
>遠</text>

<text 
x="418" 
y="573" 
dx="0,0.2,0.2,0.2" 
class="s3_366"
>yuǎn</text>

<text 
x="553" 
y="574" 
dx="0,0,0" 
class="s4_366"
>adj</text>

<text 
x="619" 
y="574" 
dx="0,0,0" 
class="s5_366"
>far</text>

<text 
x="809" 
y="574" 
dx="0,0" 
class="s6_366"
>13</text>

<text 
x="61" 
y="618" 
dx="0,0" 
class="s2_366"
>愿意</text>

<text 
x="239" 
y="618" 
dx="0,0" 
class="s7_366"
>願意</text>

<text 
x="418" 
y="616" 
dx="0,0.2,0.2,0.2,0.2,0.2" 
class="s3_366"
>yuànyì</text>

<text 
x="553" 
y="616" 
dx="0,0" 
class="s4_366"
>mv</text>

<text 
x="619" 
y="616" 
dx="0,-0.2,0,0,0,0,0,0,0,0,0,0,0" 
class="s5_366"
>to be willing</text>

<text 
x="809" 
y="616" 
dx="0,0" 
class="s6_366"
>18</text>

<text 
x="61" 
y="660" 
dx="0" 
class="s2_366"
>约</text>

<text 
x="239" 
y="660" 
dx="0" 
class="s7_366"
>約</text>

<text 
x="418" 
y="658" 
dx="0,0.2,0.2" 
class="s3_366"
>yuē</text>

<text 
x="553" 
y="658" 
dx="0" 
class="s4_366"
>v</text>

<text 
x="619" 
y="658" 
dx="0,-0.2,0,0,0,0,-0.4,0,0,0,0,0,0,0,0,0,0,0,0,0,0,0" 
class="s5_366"
>to make an appointment</text>

<text 
x="809" 
y="658" 
dx="0,0" 
class="s6_366"
>11</text>

<text 
x="61" 
y="702" 
dx="0" 
class="s2_366"
>月</text>

<text 
x="418" 
y="700" 
dx="0,0.2,0.2" 
class="s3_366"
>yuè</text>

<text 
x="553" 
y="700" 
dx="0" 
class="s4_366"
>n</text>

<text 
x="619" 
y="700" 
dx="0,0,0,0,0" 
class="s5_366"
>month</text>

<text 
x="809" 
y="700" 
dx="0" 
class="s6_366"
>3</text>

<text 
x="61" 
y="744" 
dx="0,0,0" 
class="s2_366"
>越来越</text>

<text 
x="239" 
y="744" 
dx="0,0,0" 
class="s7_366"
>越來越</text>

<text 
x="418" 
y="742" 
dx="0,0.2,0.2,0.2,0.2,0.2,0.2,0.2,0.2,0.2,0.2" 
class="s3_366"
>yuè lái yuè</text>

<text 
x="553" 
y="743" 
dx="0,0,0" 
class="s4_366"
>adv</text>

<text 
x="619" 
y="742" 
dx="0,0,0,-0.2,0,0,0,0,0,0,0,0,-0.2" 
class="s5_366"
>more and more</text>

<text 
x="809" 
y="743" 
dx="0,0" 
class="s6_366"
>15</text>

<text 
x="61" 
y="787" 
dx="0,0" 
class="s2_366"
>运动</text>

<text 
x="239" 
y="787" 
dx="0,0" 
class="s7_366"
>運動</text>

<text 
x="418" 
y="784" 
dx="0,0.2,0.2,0.2,0.2,0.2,0.2" 
class="s3_366"
>yùndòng</text>

<text 
x="553" 
y="785" 
dx="0" 
class="s4_366"
>n</text>

<text 
x="619" 
y="784" 
dx="0,0,0,0,0,0" 
class="s5_366"
>sports</text>

<text 
x="809" 
y="785" 
dx="0,0" 
class="s6_366"
>13</text>

<text 
x="61" 
y="830" 
dx="0,0,0" 
class="s2_366"
>运动服</text>

<text 
x="239" 
y="830" 
dx="0,0,0" 
class="s7_366"
>運動服</text>

<text 
x="418" 
y="828" 
dx="0,0.2,0.2,0.2,0.2,0.2,0.2,0.2,0.2" 
class="s3_366"
>yùndòngfú</text>

<text 
x="553" 
y="829" 
dx="0" 
class="s4_366"
>n</text>

<text 
x="619" 
y="818" 
dx="0,0,0,0,0,0,0,0,0,0,-1.1,0,0,0,0,0,0,-0.1,0,0,0" 
class="s5_366"
>sportswear, athletic </text>

<text 
x="619" 
y="838" 
dx="0,0,0,-0.1,0,0,0,0" 
class="s5_366"
>clothing</text>

<text 
x="809" 
y="829" 
dx="0,0" 
class="s6_366"
>18</text>

<text 
x="454" 
y="875" 
dx="0" 
class="s9_366"
>Z</text>

<text 
x="61" 
y="916" 
dx="0" 
class="s2_366"
>在</text>

<text 
x="418" 
y="914" 
dx="0,0.2,0.2" 
class="s3_366"
>zài</text>

<text 
x="553" 
y="914" 
dx="0,0,-0.2,0" 
class="s4_366"
>prep</text>

<text 
x="619" 
y="914" 
dx="0,0,0,0,0,0,0,0,0,0" 
class="s5_366"
>at, in, on</text>

<text 
x="809" 
y="914" 
dx="0" 
class="s6_366"
>5</text>

<text 
x="61" 
y="960" 
dx="0" 
class="s2_366"
>在</text>

<text 
x="418" 
y="958" 
dx="0,0.2,0.2" 
class="s3_366"
>zài</text>

<text 
x="553" 
y="958" 
dx="0" 
class="s4_366"
>v</text>

<text 
x="619" 
y="948" 
dx="0,-0.2,0,0,0,0,0,0,-0.2,0,0,0,0,0,0,0,-0.2,0,0,0,0,0,0,0" 
class="s5_366"
>to be present, to be at </text>

<text 
x="619" 
y="968" 
dx="0,0,0,0,0,0,0,0,0" 
class="s5_366"
>(a place)</text>

<text 
x="809" 
y="958" 
dx="0" 
class="s6_366"
>6</text>

<text 
x="61" 
y="1004" 
dx="0" 
class="s2_366"
>再</text>

<text 
x="418" 
y="1001" 
dx="0,0.2,0.2" 
class="s3_366"
>zài</text>

<text 
x="553" 
y="1002" 
dx="0,0,0" 
class="s4_366"
>adv</text>

<text 
x="619" 
y="1002" 
dx="0,0,0,0,0" 
class="s5_366"
>again</text>

<text 
x="809" 
y="1002" 
dx="0" 
class="s6_366"
>9</text>

<text 
x="61" 
y="1046" 
dx="0,0" 
class="s2_366"
>再见</text>

<text 
x="239" 
y="1046" 
dx="0,0" 
class="s7_366"
>再見</text>

<text 
x="418" 
y="1044" 
dx="0,0.2,0.2,0.2,0.2,0.2,0.2" 
class="s3_366"
>zàijiàn</text>

<text 
x="553" 
y="1044" 
dx="0" 
class="s4_366"
>v</text>

<text 
x="619" 
y="1044" 
dx="0,-0.1,0,0,0,0,0,0,0,0,0,0,0,0,0,0,0,0,0,0,0,0" 
class="s5_366"
>goodbye, see you again</text>

<text 
x="809" 
y="1044" 
dx="0" 
class="s6_366"
>3</text>

<text 
x="61" 
y="1088" 
dx="0,0" 
class="s2_366"
>再说</text>

<text 
x="239" 
y="1088" 
dx="0,0" 
class="s7_366"
>再說</text>

<text 
x="418" 
y="1086" 
dx="0,0.2,0.2,0.2,0.2,0.2,0.2" 
class="s3_366"
>zàishuō</text>

<text 
x="553" 
y="1086" 
dx="0,0,0,0" 
class="s4_366"
>conj</text>

<text 
x="619" 
y="1086" 
dx="0,0,0,-0.2,0,-0.3,-0.4,0" 
class="s5_366"
>moreover</text>

<text 
x="809" 
y="1086" 
dx="0,0" 
class="s6_366"
>15</text>

<path d="M880.8,1209.2l64.9,0l0,-1222.1l-64.9,0l0,1222.1Z" class="g6_366" />
<text 
transform="matrix(0, 1, -1, 0, 889, 864)"
dx="0,-0.1,0.6,0.6,0.6,0.6,0.6,0.6,0.6,0.6,0.6,0.6,0.6,0.6,0.6,0.4,0.6,0.6,0.6,0.6,0.6,0.6,0.6,0.6,0.6,0.6,0.6,0.6,0.6,0.6,0.6,0.6,0.6,0.6,0.6,0.6,0.6,-0.1,0.6,0.6,0.6,0.6,0.6,0.6,0.6,0.6,0.6,0.6" 
class="s10_366"
>Vocabulary Index (Chinese-English), Volumes 1–2 </text>

<text 
transform="matrix(0, 1, -1, 0, 889, 1150)"
dx="0,0.6,0.6" 
class="s10_366"
>345</text>



<!-- Any embedded fonts defined here -->
<style type="text/css" ><![CDATA[

@font-face {
	font-family: LibreFranklin-SemiBold_4gw;
	src: url("fonts/LibreFranklin-SemiBold_4gw.woff") format("woff");
}

@font-face {
	font-family: LibreFranklin-Regular_4h1;
	src: url("fonts/LibreFranklin-Regular_4h1.woff") format("woff");
}

@font-face {
	font-family: LibreFranklin-Italic_4gr;
	src: url("fonts/LibreFranklin-Italic_4gr.woff") format("woff");
}

@font-face {
	font-family: STKaitiTC-Regular_4h8;
	src: url("fonts/STKaitiTC-Regular_4h8.woff") format("woff");
}

@font-face {
	font-family: STKaitiSC-Regular_44y;
	src: url("fonts/STKaitiSC-Regular_44y.woff") format("woff");
}

@font-face {
	font-family: GentiumBookBasic-Italic_3mn;
	src: url("fonts/GentiumBookBasic-Italic_3mn.woff") format("woff");
}

]]></style>

</svg>
