<?xml version="1.0" encoding="UTF-8" standalone="no"?>
<!DOCTYPE svg PUBLIC "-//W3C//DTD SVG 1.1//EN"
"http://www.w3.org/Graphics/SVG/1.1/DTD/svg11.dtd">


<!-- Page 2 -->
<svg x="0" y="0" width="921" height="1196" viewBox="0 0 921 1196" version="1.1" xmlns="http://www.w3.org/2000/svg" xmlns:xlink="http://www.w3.org/1999/xlink"
style="display: block;margin-left: auto;margin-right: auto;">
<defs>
<clipPath id="c0_2"><path d="M115.9,575.8l0,-274.3l689.5,0l0,274.3Z" /></clipPath>
<clipPath id="c1_2"><path d="M117.3,570.2l0,-71.9l196.4,0l0,71.9Z" /></clipPath>

<style type="text/css"><![CDATA[

.g1_2{
fill: none;
stroke: #B5A6D0;
stroke-width: 1.2726389;
stroke-linecap: butt;
stroke-linejoin: miter;
}
.g2_2{
fill: #4E3181;
}
.g3_2{
fill: #C5B9DA;
}
.g4_2{
fill: #4F3181;
}
.g5_2{
fill: none;
stroke: #DCDDDF;
stroke-width: 0.7638889;
stroke-linecap: butt;
stroke-linejoin: miter;
stroke-miterlimit: 4;
}
.g6_2{
fill: #C21E37;
}
.g7_2{
fill: #231F20;
}
.g8_2{
fill: none;
stroke: #DCDDDF;
stroke-width: 1.8043056;
stroke-linecap: butt;
stroke-linejoin: round;
}

.s1_2{
font-size: 198.36px;
font-family: MuseoSans-300_3l2;
fill: #B5A6D0;
}
.s2_2{
font-size: 48.89px;
font-family: Museo-700_3l1;
fill: #4E3181;
}
.s3_2{
font-size: 21.39px;
font-family: MuseoSansCond-500_3lc;
fill: #56565A;
}
.s4_2{
font-size: 14.51px;
font-family: MuseoSansCond-500_3lc;
fill: #56565A;
}
.s5_2{
font-size: 29.03px;
font-family: MuseoSans-700_3l5;
fill: #4E3181;
}
.s6_2{
font-size: 13.75px;
font-family: LibreFranklin-Light_3l9;
fill: #231F20;
}
.s7_2{
font-size: 8.02px;
font-family: LibreFranklin-Light_3l9;
fill: #231F20;
}

]]></style>

</defs>
<path d="M0,0
L0,1196
L921,1196
L921,0 Z " 
fill="#FFFFFF" stroke="none" />
<path d="M116.4,302.2l688.5,0" class="g1_2" />
<path d="M116.4,366.9l688.5,0" class="g1_2" />
<path d="M343.1,325l-13.9,0l0,12.8l13.9,0l0,-12.8Zm-17.6,0l-13.8,0l0,12.8l13.8,0l0,-12.8Zm21.3,-3.6l0,22.7l-3.7,0l0,-2.8l-13.9,0l0,15.7l-3.7,0l0,-15.7l-13.8,0l0,3l-3.6,0l0,-22.9l17.4,0l0,-8.6l3.7,0l0,8.6Z" class="g2_2" />
<path d="M380.6,321.2c-0.6,-2,-2.2,-5.2,-3.6,-7.6l3.7,-1c1.4,2.2,3.1,5.3,3.8,7.4Zm-10.3,3.7c2.5,6.1,6,11.6,10.5,16.2c4.3,-4.4,7.6,-9.7,10,-16.2Zm24.6,0c-2.8,7.6,-6.5,13.7,-11.4,18.7c5.4,4.5,11.9,7.9,19.6,9.8c-0.9,0.8,-1.9,2.3,-2.5,3.3c-7.9,-2.2,-14.4,-5.7,-19.8,-10.6c-5.4,4.8,-12.1,8.3,-20.1,10.8c-0.5,-0.8,-1.5,-2.5,-2.3,-3.3c8,-2.3,14.5,-5.6,19.8,-10c-5,-5.1,-8.8,-11.4,-11.6,-18.7l-7.5,0l0,-3.6l43.4,0l0,3.6Z" class="g2_2" />
<path d="M455.5,331.9l-6.2,0l0,25l-3.6,0l0,-25l-9.4,0c-0.1,7.6,-1.1,18,-6.4,25c-0.6,-0.7,-2.1,-1.9,-3,-2.3c5.2,-7,5.8,-16.8,5.8,-24l0,-12.7c6.3,-1.2,13.6,-3,17.7,-4.8l3,2.8c-4.7,1.8,-11.1,3.4,-17.1,4.5l0,8l19.2,0ZM417,341.7l6.3,0l0,-21l-6.3,0l0,21Zm9.9,3.5l-9.9,0l0,3.8l-3.5,0l0,-31.8l13.4,0Z" class="g2_2" />
<path d="M485.1,334.5l16.3,0l0,-8.8l-16.3,0l0,8.8ZM504.5,353c1.1,0,1.4,-0.8,1.5,-5.9c0.7,0.5,2.1,1.1,3.1,1.4c-0.3,6.2,-1.2,7.9,-4.3,7.9l-4.8,0c-3.5,0,-4.4,-1.2,-4.4,-4.8l0,-13.9l-4.4,0c-0.7,9.2,-2.7,15.7,-11.6,19.4c-0.5,-0.9,-1.4,-2.2,-2.2,-2.8c8,-3,9.7,-8.7,10.3,-16.6l-6.1,0l0,-15.2l6.4,0c-0.8,-2.2,-2.6,-5.7,-4.4,-8.3l3,-1.2c1.9,2.5,3.8,5.9,4.5,8.1l-3,1.4l8.1,0c1.4,-2.8,3.2,-6.7,4.1,-9.6l3.7,1.2c-1.2,2.8,-2.6,5.9,-4,8.4l5,0l0,15.2l-5.9,0l0,13.8c0,1.3,0.2,1.5,1.4,1.5ZM475.8,323.9c-1.5,-2.1,-4.7,-5.5,-7.2,-7.8l2.3,-2.2c2.6,2.2,5.9,5.4,7.4,7.4Zm5.6,19.4c0.3,1.1,0.8,2.5,1.2,3.2c-9,6.6,-10.3,7.7,-11,8.6c-0.4,-0.9,-1.4,-2.5,-2.1,-3.2c1,-0.7,2.8,-2.3,2.8,-4.4l0,-16.1l-7,0l0,-3.4l10.6,0l0,19.2Z" class="g2_2" />
<path d="M551.3,346c3.9,2.6,8.7,6.3,11.1,8.9l-2.3,2.3c-2.3,-2.5,-7,-6.5,-11,-9.1Zm-6.7,-9.7c-1.5,-1.5,-4.5,-3.5,-7,-4.9l1.7,-1.8c2.5,1.3,5.5,3.2,7,4.6ZM535.9,334c2.4,1.2,5.6,3.2,7,4.7l-1.7,2.1c-1.5,-1.5,-4.5,-3.6,-7.1,-5Zm19.2,-0.5c0.6,-1.5,1.5,-3.6,2.1,-5.7l-23.2,0l0,-3.1l11.7,0l0,-4.3l-9.9,0l0,-3.1l9.9,0l0,-4.4l3.5,0l0,4.4l10,0l0,3.1l-10,0l0,4.3l9.3,0l0.5,-0.2l2.4,0.6c-1.1,3.2,-2.3,6.9,-3.4,9.1Zm-6,10.8c-1.8,4.7,-5.9,9.4,-14.7,13c-0.4,-0.9,-1.5,-2.2,-2.2,-2.8c7.4,-2.9,11.2,-6.5,13,-10.2l-12.2,0l0,-3.2l13.4,0c0.5,-2,0.6,-3.9,0.6,-5.7l0,-5.7l3.5,0l0,5.8c0,1.8,-0.1,3.7,-0.5,5.6l11.8,0l0,3.2ZM528.8,323.6c-1.6,-2,-4.8,-5.1,-7.4,-7.4l2.3,-2.3c2.6,2.2,6,5.2,7.5,7.1Zm4.2,21.1c0.4,1,1,2.4,1.4,3c-7.5,6.3,-8.7,7.3,-9.4,8.3l0,0.1c-0.4,-0.8,-1.3,-2,-1.9,-2.6c0.9,-0.7,2.3,-2.2,2.3,-4.5l0,-17.6l-7.1,0l0,-3.5l10.4,0l0,20.3Z" class="g2_2" />
<path d="M609.2,334.6c0,0,-0.1,1.2,-0.1,1.7c-1.2,11.9,-2.3,16.7,-4.1,18.6c-1.1,1.1,-2.2,1.4,-4.1,1.5c-1.5,0.1,-4.6,0,-7.8,-0.2c-0.1,-1,-0.5,-2.4,-1.1,-3.4c3.3,0.4,6.6,0.4,7.8,0.4c1.1,0,1.7,-0.1,2.2,-0.6c1.4,-1.2,2.4,-5.3,3.4,-14.8l-25.5,0c1.3,-4.6,3,-12.4,4,-18l3.7,0.3c-0.4,1.7,-0.8,3.4,-1.1,5.2l21.4,0l0,3.2l-22.1,0c-0.5,2.2,-0.9,4.2,-1.4,6.1Zm-8,11.7l-27.2,0l0,-3.3l27.2,0l0,3.3Zm12.6,-30.8l0,9.3l-3.6,0l0,-6l-33.3,0l0,6l-3.6,0l0,-9.3Z" class="g2_2" />
<g clip-path="url(#c0_2)">
<path d="M115.9,458.4l9,0l0,-54.8l-9,0l0,-10.5l32.2,0l0,10.5l-9.2,0l0,54.8l9.2,0l0,10.4l-32.2,0Z" class="g2_2" />
</g>
<path d="M156.2,458.4l9.1,0l0,-54.8l-9.1,0l0,-10.5l23,0l31.9,48.7c1.5,2.5,2.8,6.4,2.8,6.4l0.3,0c0,0,-0.5,-4.3,-0.4,-7.1l0,-37.5l-9.4,0l0,-10.5l32.5,0l0,10.5l-9.1,0l0,65.2l-14,0L181.9,420.3c-1.5,-2.6,-2.8,-6.4,-2.8,-6.4l-0.4,0c0,0,0.7,4.2,0.5,7l0,37.5l9.4,0l0,10.4l-32.4,0Z" class="g2_2" />
<path d="M259,458.4l9.1,0l0,-54.1l-14.3,0l0,11.4l-11.8,0l0,-22.6l66.3,0l0,22.6l-11.8,0l0,-11.4l-14.4,0l0,54.1l9.2,0l0,10.4l-32.3,0Z" class="g2_2" />
<path d="M313.9,458.4l9,0l0,-54.8l-9,0l0,-10.5l56.2,0l0,19.5l-11.9,0l0,-8.3l-21.3,0l0,20.8l25,0l0,11.2l-25,0l0,21.3l22.9,0l0,-8.5l11.9,0l0,19.7l-57.8,0Z" class="g2_2" />
<path d="M416.1,391.8c13.5,0,29.6,5.3,29.6,14.9l0,10.5l-12.7,0l0,-5.6c0,-5.2,-8.2,-7.9,-16.3,-7.9c-16.1,0,-26.1,10.3,-26.1,26.4c0,16.2,10,28,26.8,28c6,0,17.4,-1.6,17.4,-7.8l0,-8.2l-13.8,0l0,-10.4l26.4,0l0,22.8c0,11.5,-20.2,15.6,-31.4,15.6c-23.3,0,-39.9,-16.9,-39.9,-39.5c0,-22.5,16.4,-38.8,40,-38.8Z" class="g2_2" />
<path d="M489.1,428.6c7.3,0,12.1,-4.4,12.1,-12.5c0,-4.9,-1.8,-8.7,-6,-10.4c-2.1,-1,-5,-1.4,-8.5,-1.4l-10.2,0l0,24.3Zm-35.7,29.8l9.1,0l0,-54.8l-9.1,0l0,-10.5l33.4,0c5.6,0,10.1,0.3,14.4,1.6c8.4,2.7,14,9.6,14,20.2c0,10.6,-5.6,18.1,-14.3,21.1l0,0.2c0,0,2.2,1.1,3.7,3.9l8.8,15.8c1,1.9,2.5,2.5,5.1,2.5l2.5,0l0,10.4l-8.9,0c-6.3,0,-8.2,-1.3,-10.6,-5.6L490.8,443.6c-1.6,-2.8,-3,-3.8,-7.4,-3.8l-6.9,0l0,18.6l8.7,0l0,10.4l-31.8,0Z" class="g2_2" />
<path d="M572.2,433.3L565,411.8c-1.2,-3.7,-1.4,-6.6,-1.4,-6.6l-0.3,0c0,0,-0.3,2.9,-1.4,6.6l-7.2,21.5Zm-46.3,25.1l6.9,0l22.7,-65.3l15.9,0l22.7,65.3l7,0l0,10.4l-28.5,0l0,-10.4l7.5,0l-4.7,-14.2l-23.9,0l-4.7,14.2l7.4,0l0,10.4l-28.3,0Z" class="g2_2" />
<path d="M611.9,458.4l9,0l0,-54.1l-14.3,0l0,11.4l-11.8,0l0,-22.6l66.3,0l0,22.6l-11.8,0l0,-11.4l-14.4,0l0,54.1l9.2,0l0,10.4l-32.2,0Z" class="g2_2" />
<path d="M666.7,458.4l9.1,0l0,-54.8l-9.1,0l0,-10.5l56.2,0l0,19.5l-11.9,0l0,-8.3l-21.3,0l0,20.8l25,0l0,11.2l-25,0l0,21.3l22.9,0l0,-8.5l11.9,0l0,19.7l-57.8,0Z" class="g2_2" />
<g clip-path="url(#c0_2)">
<path d="M764.5,457.6c4.8,0,8.7,-0.4,12.4,-1.9c8.6,-3.5,14.1,-12.4,14.1,-24.8c0,-12.8,-5.8,-21.5,-14.6,-24.9c-3.9,-1.5,-7.4,-1.7,-11.9,-1.7l-9.2,0l0,53.3Zm-32.2,0.8l9.1,0l0,-54.8l-9.1,0l0,-10.5l32.8,0c6,0,10.8,0.3,15.7,1.8c14.8,4.4,24.6,17.4,24.6,36c0,18,-9.1,30.9,-23.5,35.7c-5.1,1.8,-10.4,2.2,-16.7,2.2l-32.9,0Z" class="g2_2" />
<path d="M372,491.5c20.2,0,30.6,11.5,30.6,11.5l-9.2,15.1c0,0,-9.2,-8.3,-20.4,-8.3c-15.7,0,-23.1,11.5,-23.1,23.2c0,12.1,8,24.6,23.1,24.6c12.3,0,21.6,-10.1,21.6,-10.1l10.3,14.6c0,0,-11.5,13.7,-32.9,13.7c-25.5,0,-42.8,-18.1,-42.8,-42.3c0,-23.7,18.3,-42,42.8,-42Z" class="g2_2" />
</g>
<path d="M414.7,492.9l20,0l0,32.6l29.7,0l0,-32.6l19.9,0l0,81.6l-19.9,0l0,-32l-29.7,0l0,32l-20,0Z" class="g2_2" />
<path d="M501.2,492.9l20,0l0,81.6l-20,0l0,-81.6Z" class="g2_2" />
<path d="M538.1,492.9l20.2,0L580.9,531c3.2,5.4,6.8,13.9,6.8,13.9l0.3,0c0,0,-0.9,-8.8,-0.9,-13.9l0,-38.1l19.9,0l0,81.6l-20.1,0l-22.7,-38c-3.2,-5.4,-6.8,-14,-6.8,-14l-0.2,0c0,0,0.9,8.8,0.9,14l0,38l-20,0Z" class="g2_2" />
<path d="M623.9,492.9l51.1,0l0,17.1l-31.1,0l0,14.8l24.9,0l0,17.1l-24.9,0l0,15.5l32.7,0l0,17.1l-52.7,0Z" class="g2_2" />
<g clip-path="url(#c0_2)">
<path d="M693.2,549c0,0,9.2,8.5,19.5,8.5c4.1,0,8.6,-1.6,8.6,-6.5c0,-9.7,-36.8,-9.4,-36.8,-34.5c0,-15.1,12.7,-25,28.9,-25c17.6,0,26.2,9.3,26.2,9.3l-8.4,16.3c0,0,-8.2,-7.2,-18,-7.2c-4.1,0,-8.7,1.8,-8.7,6.4c0,10.2,36.7,8.4,36.7,34.2c0,13.6,-10.3,25.3,-28.7,25.3c-19.2,0,-29.8,-11.6,-29.8,-11.6Z" class="g2_2" />
<path d="M752.7,492.9l51.1,0l0,17.1l-31.2,0l0,14.8l24.9,0l0,17.1l-24.9,0l0,15.5l32.8,0l0,17.1l-52.7,0Z" class="g2_2" />
</g>
<g clip-path="url(#c1_2)">
<path d="M313.7,498.3l-196.4,0l0,72l196.4,-0.1l0,-71.9Z" class="g3_2" />
</g>
<path d="M153.3,523.3l0,1.4c0,1.4,1.8,2.2,3.9,2.2c2.2,0,3.8,-1,3.8,-2.9c0,-2.2,-2.3,-3,-4.7,-3.9c-2.5,-1,-5.1,-2.1,-5.1,-5.5c0,-3.6,2.9,-5.2,6.2,-5.2c2.9,0,5.8,1.1,5.8,3.2l0,2.3l-2.5,0l0,-1.3c0,-1.1,-1.7,-1.7,-3.3,-1.7c-1.9,0,-3.4,0.8,-3.4,2.6c0,2,1.9,2.7,4.1,3.5c2.8,1.1,5.6,2.2,5.6,5.8c0,3.7,-3,5.6,-6.5,5.6c-3,0,-6.4,-1.4,-6.4,-4.1l0,-2Z" class="g4_2" />
<path d="M167.9,509.8l2.8,0l0,2.7l-2.8,0l0,-2.7ZM165.8,527l2.1,0l0,-9.7l-2.3,0l0,-2.1l5,0l0,11.8l2.2,0l0,2l-7,0Z" class="g4_2" />
<path d="M174.4,527l2.2,0l0,-9.1c0,-0.4,-0.3,-0.6,-0.6,-0.6l-1.7,0l0,-2.1l3.1,0c1.2,0,1.7,0.6,1.7,1.6l0,0.7c0,0.4,-0.1,0.8,-0.1,0.8l0.1,0c0.7,-1.7,2.7,-3.4,4.9,-3.4c2.2,0,3.6,1,4.1,3.3c0.8,-1.8,2.7,-3.3,4.9,-3.3c3.1,0,4.6,1.8,4.6,5.3l0,6.8l2.1,0l0,2l-4.8,0l0,-8.2c0,-2,-0.4,-3.5,-2.4,-3.5c-2.6,0,-4.1,2.7,-4.1,5.4l0,4.3l2.2,0l0,2l-4.8,0l0,-8.2c0,-1.8,-0.3,-3.5,-2.4,-3.5c-2.7,0,-4.2,2.8,-4.2,5.5l0,4.2l2.2,0l0,2l-7,0Z" class="g4_2" />
<path d="M209.3,527.1c2.1,0,3.9,-1.8,3.9,-4.9c0,-3,-1.6,-5,-3.9,-5c-2,0,-3.9,1.5,-3.9,5c0,2.5,1.3,4.9,3.9,4.9m-6.5,5.4l0,-14.6c0,-0.4,-0.3,-0.6,-0.6,-0.6l-1.7,0l0,-2.1l3,0c1.3,0,1.7,0.6,1.7,1.4l0,0.1c0,0.4,0,0.8,0,0.8c0,0,1.2,-2.6,4.7,-2.6c3.7,0,6,3,6,7.2c0,4.4,-2.6,7.3,-6.2,7.3c-3.1,0,-4.3,-2.4,-4.3,-2.4l-0.1,0c0,0,0.1,0.5,0.1,1.2l0,4.3l2.2,0l0,2l-7,0l0,-2Z" class="g4_2" />
<path d="M218.8,511.8l-2.3,0l0,-2l5,0l0,15.2c0,1.1,0.3,1.9,1.5,1.9c0.4,0,0.7,0,0.7,0l0,2.2c0,0,-0.6,0,-1.2,0c-2,0,-3.7,-0.8,-3.7,-4Z" class="g4_2" />
<path d="M227.4,509.8l2.8,0l0,2.7l-2.8,0l0,-2.7ZM225.3,527l2.1,0l0,-9.7l-2.3,0l0,-2.1l5,0l0,11.8l2.2,0l0,2l-7,0Z" class="g4_2" />
<path d="M245.4,509.8l2.7,0l0,2.7l-2.7,0l0,-2.7ZM233.9,527l2.2,0l0,-9.7l-2.3,0l0,-2.1l2.3,0l0,-0.6c0,-4.5,3.3,-5,4.9,-5c0.8,0,1.3,0.1,1.3,0.1l0,2.2c0,0,-0.4,-0.1,-1,-0.1c-0.9,0,-2.6,0.2,-2.6,2.7l0,0.7l9.4,0l0,11.8l2.2,0l0,2l-7,0l0,-2l2.1,0l0,-9.7l-6.7,0l0,9.7l2.5,0l0,2l-7.3,0Z" class="g4_2" />
<path d="M261.7,520.7c-0.1,-2.4,-1.5,-3.7,-3.3,-3.7c-2,0,-3.6,1.4,-4,3.7Zm-3.2,-5.8c3.9,0,5.9,2.9,5.9,6.5c0,0.3,0,1,0,1l-10.1,0c0.1,3,2.3,4.7,4.7,4.7c2.4,0,4.2,-1.6,4.2,-1.6l1,2c0,0,-2,1.9,-5.3,1.9c-4.4,0,-7.3,-3.2,-7.3,-7.3c0,-4.4,2.9,-7.2,6.9,-7.2Z" class="g4_2" />
<path d="M272.8,527.1c2,0,4,-1.5,4,-4.9c0,-2.6,-1.3,-5,-3.9,-5c-2.2,0,-4,1.8,-4,4.9c0,3,1.6,5,3.9,5m-0.3,-12.2c3.1,0,4.2,2.3,4.2,2.3l0.1,0c0,0,-0.1,-0.4,-0.1,-1l0,-4.4l-2.3,0l0,-2l4.9,0l0,16.6c0,0.4,0.3,0.6,0.6,0.6l1.4,0l0,2l-2.7,0c-1.3,0,-1.7,-0.6,-1.7,-1.5l0,-0.1c0,-0.5,0,-0.8,0,-0.8c0,0,-1.1,2.8,-4.7,2.8c-3.7,0,-6,-3,-6,-7.3c0,-4.4,2.6,-7.2,6.3,-7.2Z" class="g4_2" />
<path d="M156.8,536.7c2.3,0,7.3,0.9,7.3,3.9l0,2.3l-2.5,0l0,-1.5c0,-1.7,-2.9,-2.3,-4.7,-2.3c-4.1,0,-7.2,3,-7.2,7.4c0,4.5,3.2,7.8,7.4,7.8c1.3,0,4.8,-0.5,4.8,-2.3l0,-1.5l2.5,0l0,2.4c0,2.8,-4.8,3.8,-7.5,3.8c-5.8,0,-10,-4.5,-10,-10.1c0,-5.7,4.3,-9.9,9.9,-9.9Z" class="g4_2" />
<path d="M166.2,554.3l2.2,0l0,-15.2l-2.3,0l0,-2l4.9,0l0,7.1c0,0.7,0,1.2,0,1.2c0.6,-1.4,2.4,-3.2,5.2,-3.2c3.2,0,4.7,1.8,4.7,5.3l0,6.8l2.2,0l0,2l-4.8,0l0,-8.2c0,-1.9,-0.4,-3.5,-2.7,-3.5c-2.7,0,-4.6,2.3,-4.6,5.3l0,4.4l2.2,0l0,2l-7,0Z" class="g4_2" />
<path d="M189.3,554.6c2.3,0,3.8,-2.4,3.8,-4.5l0,-0.5l-0.7,0c-1.3,0,-5.6,0,-5.6,2.7c0,1.2,0.9,2.3,2.5,2.3m2.9,-6.7l0.8,0l0,-0.6c0,-2.2,-1.2,-2.9,-2.9,-2.9c-2.2,0,-4,1.3,-4,1.3l-1,-1.9c0,0,2,-1.6,5.2,-1.6c3.5,0,5.4,1.8,5.4,5.3l0,6.2c0,0.4,0.2,0.6,0.6,0.6l1.4,0l0,2l-2.8,0c-1.2,0,-1.7,-0.6,-1.7,-1.5l0,-0.2c0,-0.5,0.1,-0.9,0.1,-0.9c0,0,-1.3,3,-4.6,3c-2.3,0,-4.6,-1.4,-4.6,-4.2c0,-4.3,5.8,-4.6,8.1,-4.6Z" class="g4_2" />
<path d="M199.2,554.3l2,0l0,-9.1c0,-0.4,-0.2,-0.6,-0.6,-0.6l-1.7,0l0,-2.1l3.1,0c1.2,0,1.8,0.5,1.8,1.6l0,0.9c0,0.6,0,1,0,1c0.6,-2.1,2.2,-3.6,4.4,-3.6c0.3,0,0.7,0,0.7,0l0,2.6c0,0,-0.4,0,-0.8,0c-3,0,-4.2,2.9,-4.2,5.6l0,3.7l2,0l0,2l-6.7,0Z" class="g4_2" />
<path d="M214.9,554.6c2.3,0,3.8,-2.4,3.8,-4.5l0,-0.5l-0.7,0c-1.3,0,-5.6,0,-5.6,2.7c0,1.2,0.9,2.3,2.5,2.3m2.9,-6.7l0.8,0l0,-0.6c0,-2.2,-1.2,-2.9,-2.9,-2.9c-2.2,0,-4,1.3,-4,1.3l-1,-1.9c0,0,2,-1.6,5.2,-1.6c3.5,0,5.4,1.8,5.4,5.3l0,6.2c0,0.4,0.2,0.6,0.6,0.6l1.4,0l0,2l-2.8,0c-1.2,0,-1.7,-0.6,-1.7,-1.5l0,-0.2c0,-0.5,0.1,-0.9,0.1,-0.9c0,0,-1.2,3,-4.6,3c-2.3,0,-4.6,-1.4,-4.6,-4.2c0,-4.3,5.8,-4.6,8.1,-4.6Z" class="g4_2" />
<path d="M231.8,542.2c2.1,0,5.4,0.8,5.4,3.1l0,1.7l-2.3,0l0,-0.9c0,-1.1,-1.8,-1.6,-3,-1.6c-2.8,0,-4.7,2,-4.7,4.9c0,3.1,2.2,5,4.9,5c2.3,0,3.9,-1.4,4.4,-1.8l1,1.9c-0.6,0.6,-2.6,2.2,-5.6,2.2c-3.9,0,-7.4,-2.8,-7.4,-7.2c0,-4.3,3.2,-7.3,7.3,-7.3Z" class="g4_2" />
<path d="M240.8,544.6l-2.4,0l0,-2.1l2.4,0l0,-3.8l2.6,0l0,3.8l3.3,0l0,2.1l-3.3,0l0,6.4c0,2.9,1.9,3.2,3,3.2c0.3,0,0.6,0,0.6,0l0,2.2c0,0,-0.4,0,-1,0c-1.7,0,-5.2,-0.5,-5.2,-5.1Z" class="g4_2" />
<path d="M258.5,548c-0.1,-2.4,-1.6,-3.7,-3.3,-3.7c-2,0,-3.7,1.4,-4,3.7Zm-3.2,-5.8c3.9,0,5.9,2.9,5.9,6.5c0,0.3,0,1,0,1l-10.1,0c0.1,3,2.3,4.7,4.7,4.7c2.4,0,4.2,-1.6,4.2,-1.6l1,2c0,0,-2,1.9,-5.3,1.9c-4.4,0,-7.3,-3.2,-7.3,-7.3c0,-4.4,2.9,-7.2,6.9,-7.2Z" class="g4_2" />
<path d="M263.2,554.3l2.1,0l0,-9.1c0,-0.4,-0.2,-0.6,-0.6,-0.6l-1.7,0l0,-2.1l3.1,0c1.2,0,1.7,0.5,1.7,1.6l0,0.9c0,0.6,0,1,0,1c0.7,-2.1,2.3,-3.6,4.4,-3.6c0.4,0,0.7,0,0.7,0l0,2.6c0,0,-0.3,0,-0.8,0c-2.9,0,-4.2,2.9,-4.2,5.6l0,3.7l2.1,0l0,2l-6.8,0Z" class="g4_2" />
<path d="M273.9,551.9l2.3,0l0,0.9c0,1.2,1.7,1.7,3.2,1.7c1.6,0,2.8,-0.6,2.8,-1.8c0,-1.4,-1.5,-1.8,-3.4,-2.5c-2.1,-0.7,-4.4,-1.7,-4.4,-4.2c0,-2.7,2.7,-3.8,5.1,-3.8c2,0,4.8,0.8,4.8,2.8l0,1.6l-2.3,0l0,-0.9c0,-0.8,-1.1,-1.4,-2.4,-1.4c-1.3,0,-2.5,0.6,-2.5,1.7c0,1.3,1.5,1.8,3.2,2.4c2.1,0.7,4.6,1.6,4.6,4.2c0,2.6,-2.4,4.1,-5.6,4.1c-2.5,0,-5.4,-1.2,-5.4,-3.3Z" class="g4_2" />
<text 
x="406" 
y="765" 
dx="0" 
class="s1_2"
>2</text>

<text 
x="352" 
y="841" 
dx="0,-3.7,0,0,-0.3,0,0,-0.4" 
class="s2_2"
>Textbook</text>

<text 
x="340" 
y="1045" 
dx="0,-1,0,0,0,0,0,0,0,0,0,0,0,0,0,-0.6,-1.8,0,0,0,0,0,0,0,0,-0.6,-1.2,0" 
class="s3_2"
>Yuehua Liu and Tao-chung Yao</text>

<text 
x="308" 
y="1071" 
dx="0,0,-0.2,0,0,0,0,0,0,0,0,0,0,0,0,0,0,0,0,0,-0.2,0,0,0,0,0,0,-0.6,-1.2,0,0,0,0,0,0,0,0" 
class="s3_2"
>Nyan-Ping Bi, Liangyan Ge, Yaohua Shi</text>

<text 
x="327" 
y="1123" 
dx="0,0,0,0,0,0,0,0,0,0,-0.1,0,0,0,0,0,0,0,-0.2,-0.3,-0.4,-1.2,0,0,0,0,0,0,0,0,-0.4,-0.8,0,0,0,0,0,0,-0.4,-0.7,0,0,0,0,0,0,0,0" 
class="s4_2"
>Original Edition by Tao-chung Yao and Yuehua Liu</text>

<text 
x="279" 
y="1141" 
dx="0,0,0,0,0,0,-0.1,0,0,0,0,0,0,-0.4,-0.8,0,0,0,-0.2,0,0,0,0,0,0,0,0,0,0,-0.1,0,0,0,0,0,0,0,0,0,0,0,0,0,0,0,0,0,0,0,-0.3,-0.3,0,0,0,0,-0.4,-0.8,0,0,0,0,0,0,0,0" 
class="s4_2"
>Liangyan Ge, Yea-fen Chen, Nyan-Ping Bi, Xiaojun Wang, Yaohua Shi</text>

<text 
x="385" 
y="993" 
dx="0,0,0,0,0,0,0,0,0,0,0" 
class="s5_2"
>4th Edition</text>

<path d="M274,1093.4l373.2,0" class="g5_2" />
<path d="M274,1011.5l373.2,0" class="g5_2" />
<text 
x="374" 
y="168" 
dx="0,0,0,0,0,0,0,0,0,0,0,0,0,0,0,0,-0.2,0,0,0,0,0,0,-0.9,0,0,0,0" 
class="s6_2"
>“Bringing Asia to the World”</text>

<text 
x="550" 
y="163" 
dx="0,0" 
class="s7_2"
>TM</text>

<path d="M510.5,82.6c-0.1,0,-0.1,0,-0.2,0c0.1,0.1,0.2,0.1,0.2,0Z" class="g6_2" />
<path d="M420.7,89.1c-0.5,-1.3,1.3,-0.6,2.2,-0.6c0.5,-1.4,1.9,0,2.3,-1.8c-0.4,-0.5,-2.1,-0.3,-1.4,-0.5c-0.4,0,-2.7,-0.5,-3.1,0c-1.4,0.5,-0.7,2,-0.7,2.9c0,-0.4,0.7,0,0.7,0Z" class="g6_2" />
<path d="M445.7,109.9c0,0.5,0.4,0.4,-0.4,1.4c-0.5,1.3,0,1.8,-0.9,2.2c-0.5,1,0,2.3,0,3.7c0.9,-0.5,0,1.4,0.9,0.9c0.4,-0.4,0.9,-0.9,0.9,-1.8l0.4,-0.5l0,-5c0,-0.4,0.5,-1.4,-0.9,-0.9Z" class="g6_2" />
<path d="M449.8,107.2c0.5,-0.5,0.3,-0.9,0.6,-1.3c-1.2,-1.8,-0.7,-1.3,-2.6,-3.9c-1.3,-1.9,-0.8,-1,-2.1,-1.9c-0.4,-0.2,-1.9,-2.8,-3.2,-3.3c-2.2,0.7,-4.2,0.3,-6.9,0.7c-0.4,1,-0.9,4.3,-1.3,5.6L433.2,103c-0.4,-0.5,-1.1,-0.8,-1.1,-1.3c-0.1,-2.2,0.9,-2.4,1,-3.8c-0.1,-1,-0.1,-3,-0.6,-3.5c-0.9,0,0,1.4,-0.4,1.8l-0.5,0.5c-0.5,1.4,0.5,2.7,-0.9,3.6c-1.6,-0.2,-0.8,-1.2,-1.8,-2.2c0.7,-2.1,1,-4.5,1,-5.9C429,91.8,429.4,92.1,428.4,92c-0.5,1.4,-0.2,3,-0.2,4.3c-0.4,0.5,-0.3,0.6,-0.9,0.7c-1.2,-1.2,-0.5,-2.6,-1.4,-3c0.3,-0.8,1.1,-2.7,1.1,-3.7c0,-0.5,0.5,-1.4,0,-1.8c-0.9,0,-0.9,-0.3,-1.1,0.2c-0.2,0.8,-1.1,3.6,-1.2,4.8c-1.8,-0.9,-2.5,-0.9,-3.6,-2.7c0,-0.5,-0.9,-0.5,-0.4,-1l-1.4,0c0,1,-0.2,0.5,0,1.4l0.4,0.5c0.5,0.4,0,0.5,3.1,3.3c0.5,0.4,1.5,0.8,2.4,2.1c1.5,1.5,3.3,2.6,4.5,4.5c0.3,0.2,1.6,1.5,2.4,2.2c1.4,1.4,1.6,0.9,3.6,2.9c1.2,1.2,2.6,3.4,3.6,4.3c0.5,0.5,1.4,1.2,2.3,1.6c0.4,0.6,0.3,0.1,0.5,0.5l0.4,0.4c0.5,-2.7,0.6,-4.2,1,-7.4c1.4,0,3,0.1,4.5,0.6c0.7,0.7,1.1,0.4,1.8,0.5M439.2,101c-0.5,0.9,-0.7,1.8,-1,3.6l-0.2,1.7l-1.5,0c-0.3,-2.1,0.8,-4.3,0.7,-7.3c1.8,-0.3,3.9,-0.2,5.8,0l0.9,0.9l0.5,0.4c-0.5,1.9,-3.7,0.5,-5.2,0.7m8.3,3.4c-2,0.8,-3.1,0.5,-5.4,0.5c-0.8,1.7,-0.5,2.7,-0.9,4.5c0,0.5,-0.5,0,-0.5,0.5c-0.4,0,-0.9,-0.5,-1.4,-0.5c0,-2.2,0.6,-5.1,1,-6.9l3.3,0c1.4,0,2.1,-0.3,3.5,0.6c0.2,1.2,0.6,1.1,0.4,1.3Z" class="g6_2" />
<path d="M450.3,109.4c0,0,0.1,-0.1,0.1,-0.1c0,-0.1,-0.1,-0.2,-0.1,-0.3l0,0.4Z" class="g6_2" />
<path d="M424.3,85.7c1.4,0,1.8,-0.9,3.2,-0.9c0.9,-0.9,1.4,-0.4,1.4,-1.8c-1,0.5,-1,0,-1.4,-0.4c-0.5,0,-0.9,-0.5,-0.9,-1l-0.5,1c-0.9,0.9,-1.3,1.3,-2.7,1.3c-0.5,0.5,0,0.9,-0.5,1.4c0.5,0.9,1.4,0,1.4,0.4Z" class="g6_2" />
<path d="M450.4,109.3c0.1,0.5,-0.6,0.2,-0.6,0.6c-0.5,0.6,-0.6,1,-1.3,2.3c0.3,0.9,-0.6,2.1,0.9,2.3c0.9,0.1,1.5,-3,2.3,-3.7c-0.1,-1,0.9,-0.4,0.4,-1.8c0,-0.4,-1.2,-0.4,-1.7,0.3Z" class="g6_2" />
<path d="M436.2,79.4c0.4,-0.9,1.3,-0.5,2.2,-0.5c0.5,0,1.4,-0.4,0.9,-0.9c-0.4,-0.9,-0.5,-1.1,-1,-1.6l-0.8,-1.6c-0.4,0.5,-0.4,0.9,-0.4,0.9c-1.4,-0.4,-1.9,1.4,-3.2,0.9c-0.6,0.2,-0.5,0.3,-0.5,1.4c0,1,1.3,2.3,2.8,1.4Z" class="g6_2" />
<path d="M430.2,81.6l0,0.5c0.9,0,1.4,0.5,1.9,0c1.3,0.5,0.4,-0.9,0.9,-1.4c0,-0.9,0,-2.2,-0.5,-2.2c-0.4,1.3,-1.4,0.4,-1.8,0.9c-0.9,0.9,-1.8,0,-2.3,0.4l0,0.9c-0.5,1.9,1.8,0.5,1.8,0.9Z" class="g6_2" />
<path d="M432.5,82.6l0,0.9c0.5,0.9,1.4,1.3,0.9,2.2c-1.3,0.5,-4.4,0.5,-5.7,0L427,87.1l7.3,0c0.9,-0.4,0.9,1.4,2.3,0.5c0.5,-0.5,-0.4,-0.9,-0.9,-1.4l0,-1.4c-0.5,-0.4,-1.4,-0.4,-1.4,-0.9c-0.9,0,-0.4,-1.8,-1.8,-1.3Z" class="g6_2" />
<path d="M488.6,111.7c0.4,-0.9,-0.9,-0.9,-0.5,-2.3c-0.9,0,-0.9,-1.3,-2.3,-0.9c-0.4,0,0,0.5,0,0.9c0.9,0,0,1.4,0.9,1.9c0.3,1.2,1.4,1.6,1.4,3.2l0.9,0c-0.4,-1,0.5,-1.9,-0.4,-2.8Z" class="g6_2" />
<path d="M518.7,89.8c-0.5,-0.4,-1,0,-1.4,0c-1.3,1.1,-1.1,2.8,-2.9,3.4c-0.5,0.5,-0.4,0.4,-0.9,1c-0.5,0,-0.3,-0.3,-0.3,-0.3c0,-0.9,0,-1.8,-0.5,-1.8c0,-1.3,-0.4,-1.3,-0.9,-2.7c-0.4,-0.5,-0.4,-0.9,-0.9,-0.9l-0.2,1.2c0.1,1.6,1.6,3.1,1.6,4.7c-0.7,0.9,0.6,1.4,-0.8,1.8l-1,0.7c-1.3,-1.3,0.2,-2.9,-1.4,-4.3c-0.5,0,-0.5,0,-0.9,0.4c0.4,0.9,-0.2,3.2,1.2,4.1c-0.5,1.8,-1.2,1.9,-1.7,3.2c0,-0.4,0,0,-0.4,0c-1.4,-0.9,-0.5,-3.2,-1,-4.1c-0.6,-0.9,-0.4,-1.3,-0.4,-1.8L505,93.9l0,3.2l0.4,3.2c-0.3,0.9,-0.1,0.9,0,1.9c-0.4,0.9,-0.9,0.9,-1.3,0.9c-0.9,-1.3,-0.2,-3.5,-1.5,-5.9l-6.3,-0.1c0.5,-0.4,-0.6,-0.7,-0.6,-1.1c-0.9,0,-0.4,0.7,-1.2,0.7c-1.4,3.1,-4.5,4.7,-6.4,8.6c-0.9,0,0,1.4,0,1.9l1.8,0l0,-0.5c1.8,-0.4,3.2,0.3,4.6,-0.6c0.4,2.2,0.5,4.5,0.5,7l1.3,0c0.3,-0.9,1.7,-1.7,3.2,-3.2c1.7,-1.6,2.6,-3.3,4.1,-4.1c1.1,-1.5,4.6,-4.1,5.5,-5.9c1.2,-0.5,1.8,-2.9,3.2,-2.3c0,-0.9,1.3,-0.9,0.9,-1.8c0.4,0.4,0,-0.5,0.9,-0.5c0.6,-1.4,2.9,-2.1,3.6,-3.2c0,-0.4,0.5,-0.4,0.5,-0.4c0.9,-0.5,0,-0.9,0.5,-1.9m-21,20.1c-2.7,0,0.4,-4.6,-2.3,-5.5c-1.5,-0.2,-2.5,1.1,-4.6,0.4c0,-0.9,0.1,-0.8,0.1,-1.7c2.2,-0.9,5,0,6.8,-0.9l0.4,0.9c0,2.2,0.5,5,-0.4,6.8m4.1,-5.5c0,0.9,0,2.3,-0.5,1.9c-0.4,0,-1.3,0.4,-1.3,-0.5c0,-1.4,-0.6,-4.5,-0.4,-5.1c-1.9,-0.1,-2.1,0.1,-3.7,0.5c-0.9,0,-1.4,0,-2.3,-0.9C494.5,99.9,494,99.4,495,99c0,-0.5,1.8,-0.5,2.2,0c1.4,-0.5,2.8,-0.5,4.6,0Z" class="g6_2" />
<path d="M483.6,108.1c-1.5,-0.6,-0.5,-1.4,-1.4,-0.9c-1.4,-0.5,-0.9,-1.9,-2.3,-1.4c-0.4,0.5,0,0.9,-0.4,1.8c0.4,0,0.9,0,0.9,0.5l1.8,1.8c-0.5,1.4,1.4,0.9,0.9,2.3l1.4,0L484,110.8c0.9,-1.4,-0.4,-1.1,-0.4,-2.7Z" class="g6_2" />
<path d="M455.3,107.2c0,0,0,0.4,-0.5,0.9c0,0.9,-0.9,1.3,-1.3,1.8c0.4,0.9,0,1.4,0,2.3l1.3,0c0.5,-0.5,-0.4,-0.9,0.5,-1.4c0.9,0.5,-0.5,-0.9,0.5,-0.9c0.9,-0.5,1.3,-1.8,2.2,-2.3l0,-1.8c-1.2,0,-0.8,1,-2.7,1.4Z" class="g6_2" />
<path d="M453.9,71.2l0.5,0c0.1,0.6,0.1,0.6,0.4,0.9l1.6,0l0,-0.9l-0.9,-1c-0.5,-0.4,-0.8,-0.1,-1.1,-0.9l-0.9,0c-0.9,0.5,-2.8,-0.9,-1.8,0.9c0.4,0.5,0.4,0.5,1.3,0.5l0,0.5l0.9,0Z" class="g6_2" />
<path d="M477.2,106.7c-1.4,0,0.4,-1.8,-1.4,-1.8l0.5,0l-0.9,-0.5c0,-0.4,-1,-0.4,-1.4,-0.4c-0.9,0.9,-2.1,0.8,-3.5,0.8c-1.5,-1.7,-1.4,-0.5,-2.4,-0.4c-1,0.5,-2.5,0,-3.9,0c-1.4,-0.9,-2.1,-0.1,-3,0.9c0.1,1.5,-0.6,1.3,-0.9,2.3c0.8,0.8,0,0.9,1.4,0.5c0,-0.5,0.4,-0.9,0.9,-0.9c0.4,-0.9,1.4,-1,1.8,-1.9c0.5,0,0.9,0,0.9,0.5c0,0.9,-0.4,0.9,-0.4,1.8l0.9,0c1.8,-0.9,2.1,-1,3.2,-2.3c0,0.5,1.2,0.4,1.2,1.3c1.3,0.8,0.9,0.8,2,1l0.9,0c-0.5,-0.9,0,-1.6,0.6,-2c1.4,-0.4,1.2,1.1,2.1,1.6c0,0.4,0.5,0.9,0.9,0.9c0,-0.9,1.4,-0.5,0.9,-0.9c0,-0.5,-0.4,0,-0.4,-0.5Z" class="g6_2" />
<path d="M481.7,69.8c0.5,-0.9,0.5,-1.8,-0.4,-1.4c0,0.5,-0.9,0.5,-0.9,0.9l-0.5,-0.4c0,-0.5,-0.9,-0.5,-0.4,-0.9l-1,-0.5c0.6,1.2,-1.1,0.8,-1.3,1.5c-0.1,1,-0.9,1.2,-0.9,2.2c1.3,0.4,2.7,-0.5,3.6,0c0.1,-0.5,2.1,-0.6,1.8,-1.4Z" class="g6_2" />
<path d="M492.2,111.3c-0.4,0,0.5,-0.6,0,-1.5c0.5,-0.4,-0.9,0.1,-0.9,-0.4l0,6c0,0.9,0.9,0.9,0.5,2.3c0.4,-0.5,0.4,0.4,0.4,0.4c1.4,0.5,0.5,-1.4,1.4,-1.4l0,-2.7c-0.7,-0.8,-1.7,-1.5,-1.4,-2.7Z" class="g6_2" />
<path d="M508.2,91.2c0,-0.9,1.3,-0.4,0.9,-1.4l-6.4,0c-0.9,0,-1,0.4,-1.5,0l0.1,-0.4C500.9,88.9,501.8,88,500.9,88c0,0.5,-0.5,0.5,-0.9,0.9c0.1,1,-1,1.8,-1.4,2.3c0,0.5,-0.5,0.9,0.5,0.9c0.4,-0.1,0.2,0.1,0.4,-0.4c0.5,-0.9,1.4,-0.1,1.8,-1l3.2,0.1c1.4,0.4,2.8,0,3.7,0.4Z" class="g6_2" />
<path d="M503.6,83.9c-2.3,0.5,-0.4,3.2,-2.3,3.2l0,0.5c0.5,0,1.4,0.4,1.4,-0.5l8.2,0l0,-0.9c-2.3,-0.9,-4.6,0,-6.8,-0.5c0,-0.4,0,-0.9,0.4,-0.9c0.8,-0.3,0,-0.2,0.5,-0.9c0.4,-0.4,0,-0.9,0.4,-1.3l-0.4,0c-0.9,-0.6,-1.1,1.2,-1.4,1.3Z" class="g6_2" />
<path d="M505,81.2c0,1.4,1.3,0.4,2.3,0.9c0.4,0,0.4,-0.9,0.9,-0.5c0.4,-0.4,2.3,0,1.8,-0.9c0,-1.8,-1.8,-0.4,-2.7,-1.3c-1.1,-0.5,-0.6,0.3,-1.4,-0.5l-0.5,-0.5c-0.9,0.5,0.5,2.3,-0.4,2.8Z" class="g6_2" />
<path d="M498.1,92.6c0,0,-0.4,0.9,-0.9,0.9c0,0.5,-1.3,0.9,-0.9,1.8c0.5,0,1.4,0.5,1.8,0c1.3,-0.5,3.1,-0.9,5.5,-0.9c0,-0.4,0.9,0,0.5,-0.9l-4.1,0c-0.5,-0.5,-1.4,-0.9,-1.9,-0.9Z" class="g6_2" />
<path d="M510.3,82.6c0.1,0,0.1,0,0.2,0c-0.3,-0.3,-0.3,-0.1,-0.2,0Z" class="g6_2" />
<path d="M512.7,87.1c0,0,0.9,0,0.9,0.5c1.1,-0.9,1.3,1.4,2.3,0.4c0.5,0.5,0.8,-0.6,1.4,0.8c1.4,0.5,0.4,-1.2,0.9,-1.7c-0.5,-0.4,-0.5,-0.9,-0.9,-0.9c-0.5,-0.9,-1.7,0.2,-2.7,-0.3c-0.4,1.4,-1.9,-0.2,-1.9,1.2Z" class="g6_2" />
<path d="M510.3,82.6C509.9,83,509.5,83,509.1,83c-0.5,0.9,0.9,0.5,0.4,1.4l0.5,0c0,0.9,1.4,0.4,2.3,0.4l0,0.5c0.4,0.4,1.3,-0.7,1.7,0.2L514.6,85c0.4,-0.2,0,-0.6,0,-1.1l-1.4,0c-0.5,-1.8,-1.8,-1.3,-2.7,-1.3c0,0.1,-0.1,0.1,-0.2,0Z" class="g6_2" />
<path d="M500,76.2c0.4,0,0,0.4,0,0.4l-0.5,0.5c-0.4,0.4,-1.4,0.4,-0.9,1.3c0.5,0.5,0.9,1,1.4,0.5c0.9,-0.5,1.3,0,1.8,0c0.4,0.9,1.4,0.5,1.8,0.9c0,-0.9,-0.1,-1,0.8,-1.4c-0.1,-0.9,-1.3,-0.1,0.1,-0.9c0.5,-0.9,-0.4,-0.4,-0.4,-0.9c-1.9,0.5,-1.4,-1.3,-2.8,-0.9c-0.4,-0.4,-0.4,-1.3,-1.3,-0.9l0,0.5c-0.8,0.4,-0.5,1,0,0.9Z" class="g6_2" />
<path d="M428.9,89.8c0,1,0.4,0.5,0.4,1c0.9,0.4,3.3,0.8,4.2,0.3c1,0.1,1.6,0.1,2.5,0.1c1.2,-0.2,2.5,0.6,3.3,0.9l0,-0.9c-0.4,0,0,-0.9,-0.9,-0.9c0,-0.5,-0.4,-0.9,-0.4,-1.4c0,-0.4,-0.9,0,-0.5,-0.4c-0.4,0,-0.4,0,-0.9,-0.5c0,0.5,-0.4,1.8,0.5,1.4l0,0.4l-8.2,0Z" class="g6_2" />
<path d="M456.2,69.8c0,1.4,0.9,0,1.4,1.4l4.1,0l0,-0.5c-1.4,-0.5,0,-2.3,-1.4,-1.8c-0.4,-0.5,-0.9,-0.5,-0.9,-0.9c-0.9,-0.9,-0.5,0.4,-1.4,0.4c0.5,0,-0.4,0.5,0,0.9c-0.4,0,-0.9,0,-0.9,-0.4c-0.4,-0.5,-0.9,-0.9,-1.3,-0.5c0,0.5,0,1.4,0.4,1.4Z" class="g6_2" />
<path d="M489.9,74.8l1,0c0.4,-0.4,1,-0.5,2,-0.5l0.8,-0.5c0.4,0.2,2.2,-0.5,2.4,0.6c-0.9,1,-3,-0.5,-2.1,1.8c0.5,0,1.9,-0.9,1.9,0.4c0.4,0,0.9,-0.4,1.3,0c0.5,-0.4,0.9,-0.9,1.4,-0.9c0.9,0,0.5,-1.3,0.9,-1.3c-0.9,0.4,-1.4,-1,-2.3,-1c0,0,-0.4,0,-0.4,-0.4c-0.5,0.4,-0.9,-0.5,-1.4,-0.5c-0.9,-0.9,-1.6,-0.6,-3,-0.6c0,1.4,0.3,0.6,-0.2,1.1c-0.9,0,-1.3,0.4,-2.3,0c0,-0.9,1.4,-0.5,1.4,-1.4l-0.4,0c-0.5,-0.4,-1.4,-0.4,-1,-0.9l-1.3,-0.5c-0.9,-0.4,-0.5,1,-1.4,1c0.5,0.4,0.9,0.9,0.9,1.3c0.4,0.8,1.4,1.3,1.8,2.3Z" class="g6_2" />
<path d="M439.3,75.7c0.4,0.7,0.5,0,1,0.9l1.3,0c0.5,-0.4,1.8,-0.4,2.3,-0.9l0,-0.9c-0.9,0,-1.2,0.1,-1.6,-0.8c1.3,-0.5,1.1,0.4,2.5,-0.1c0.5,1.4,1.8,0,2.3,0.9c1.4,-0.3,1.8,-1.5,2.7,-2.3c0.7,-0.6,0.9,-0.4,0.9,-1.3c-0.4,-1,-1.8,-1,-2.7,-0.5c-0.8,0.4,-1.4,0.9,-0.9,1.4c0.9,0,0.6,0.2,0.9,0.9c-0.9,0.4,-1.8,0.4,-2.7,0c0.3,-0.3,0.3,-0.6,0,-0.9c-1.4,0,-1.9,0.4,-3.2,0.4c-0.8,0.9,-2,1.7,-3.7,1.9c-0.4,0.9,0.5,0.4,0.9,1.3Z" class="g6_2" />
<path d="M434,94.8l2.8,-0.2c2,0.4,1.8,-0.1,3,0.7l1.8,0L440.7,94c0,-0.5,-0.6,-0.4,-1.3,-1.1c-2,0.9,-4,0.3,-6.3,0.7c0.4,0.1,0.6,1.1,0.9,1.2Z" class="g6_2" />
<path d="M462.6,69.8c0.9,0.4,0.9,0.9,2.3,0.9c0.9,-0.5,0,0.5,0.9,0.5l0.9,-1c-0.5,-0.4,-1.4,-0.9,-1.4,-1.8c-0.4,-0.4,0,-0.9,-0.9,-0.9c-0.9,-0.9,-1.4,0.5,-2.7,0c-0.9,1.4,0.4,1.4,0.9,2.3Z" class="g6_2" />
<path d="M481.3,72.1l1.8,0c0.6,-0.8,2.2,-1.2,3.2,-1.9c0,0,0.9,-0.4,0,-0.9l-1.8,0c-1.4,-0.4,0,0.3,-1.3,0.3c-0.6,1,-2.3,1.4,-1.9,2.5Z" class="g6_2" />
<path d="M472.6,70.7c0.5,0,1.8,0,1.8,-0.5c1,0,1.4,-0.9,1.9,-0.9c0.4,0,0.4,-0.9,0.4,-1.8c-0.4,0,-1.8,0.5,-1.8,-0.4c-1.4,-0.5,-1.8,0.9,-2.3,1.3l0,0.9c-0.9,0,-0.4,0.9,-1.4,0.9c0,1,1,0,1.4,0.5Z" class="g6_2" />
<path d="M470.3,70.2c0.5,-1.3,0,-2.2,0,-2.7c-0.9,-0.9,-0.9,0.9,-1.8,0l-0.9,-0.4c-0.5,0.9,0,2.2,0,2.7c0.5,0.4,1.8,0.4,2.7,0.4Z" class="g6_2" />
<path d="M463.6,74.9c-3.2,0.5,-7.3,0.9,-10.5,2.3c-5.4,2.3,-9.5,6.8,-9.5,13.2c0,5.5,4.5,10.5,10,10.5c6.4,-0.3,10.5,-5,8.2,-11.4C460,84,450.4,82.2,447.7,88.1c-2.3,5.5,3.6,11.4,8.6,8.3c2.3,-1.4,2.8,-4.1,1.8,-6.4c-0.9,-2.3,-5.2,-3.4,-6.8,-0.9c-1.4,2.3,-0.3,4.6,2.5,4.4c1.3,-0.1,1.6,-1.7,1.6,-2.2c0,-1.8,-1.4,-0.9,-1.4,-0.9c-0.9,0,-0.9,-0.9,-0.4,-1.3c0.9,-0.5,0.4,0,0.9,0c4.1,0,2.2,5.9,-0.8,6.1c-1.9,0.1,-4.1,-0.8,-4.2,-3.9c-0.1,-3.2,1.9,-5.2,5.9,-5c4.6,0.2,6.6,6.1,3.7,9.6c-4.1,4.7,-11.4,2.7,-12.8,-3.2c-1.8,-6.8,4.9,-11,10.8,-9.2c6.4,1.4,8.3,9.7,5.6,14.7c-2.7,4.5,-10.9,5,-15,2.3c-3.2,-1.9,-5,-5.5,-5.5,-9.2c-0.9,-5.9,2.3,-10,6.4,-13.2c5.4,-4.5,17.8,-4.5,17.8,-4.5l1.8,0c6.8,-0.5,17.4,0.6,21.9,4.2c4.1,3.2,5.8,6.1,5.9,12.3c-0.4,3.6,-2,7.3,-5.2,9.2c-4.1,2.7,-10.1,3.4,-13.9,-1.3c-4.3,-5.1,-1,-13.5,5,-14.9c5.6,-1.7,11.8,3.8,10.6,9.3c-1.3,5.9,-9.3,9,-12.9,3.5c-2.8,-3.2,-0.5,-9.6,4.1,-9.6c2.7,-0.4,5.4,1.9,5.4,4.1c0,2.3,-1,4.2,-4.1,4.2c-3.3,0,-3.8,-4.6,-1.1,-5.3c0.9,-0.1,1.1,-0.2,2,-0.2c0.4,0.4,0.1,1.4,-0.4,1.4c-0.5,0,-1.9,-0.3,-2,0.9c-0.1,1.2,0.2,1.8,1.5,1.8c2.5,0,4.1,-2.8,2.3,-4.6c-3.4,-2.4,-6.9,0.1,-6.7,1.6c-0.9,2.3,-0.4,3.8,1.3,5.8c3,3.7,12,-2.7,8.6,-7.8c-3.7,-5.7,-11.8,-4.6,-13.7,1.3c-1.8,5.9,3.1,11,8.7,10.5c4.9,-0.5,9.5,-5.3,8.9,-10.3c-0.6,-5.7,-3.1,-9.9,-9,-12.2c-2.7,-1.4,-6.6,-1.9,-9.8,-2.3l-6.5,-0.3l-5.5,0Z" class="g6_2" />
<path d="M468.4,77.6l8.1,0.1c4.1,0.6,3.1,0.6,5,1.3c1.2,0.4,3.3,1.1,4.3,2c-6.7,0.4,-8.7,0.1,-10.3,1c-1.5,0.9,-2.9,1.9,-4,4.1c-0.3,0.5,-0.2,0.4,-0.7,2c-0.5,2,-0.5,1,-0.7,3.3c-0.2,1.8,0,3.1,-0.4,5.8c-0.2,1.3,-0.3,2.8,-0.3,4.2l-0.9,0c0,-1,0.2,-3,0,-4.1c-0.2,-2.1,-1,-8,-1.9,-10.4c-2.2,-3,-4.2,-5.3,-7.2,-5.6l-6.8,-0.4c-0.1,-0.1,-0.1,-0.1,-0.1,-0.2c0,-0.3,0.6,-0.3,0.6,-0.6c0,0,3.8,-1.6,5.9,-1.9c3.9,-0.5,6.2,-0.6,9.4,-0.6Z" class="g6_2" />
<path d="M383.7,138.4l-0.4,1.1c-1.8,0.9,-3.7,1.3,-5.6,1.3c-2.9,0,-5.2,-0.8,-7,-2.4c-1.8,-1.6,-2.7,-3.7,-2.7,-6.3c0,-1.8,0.5,-3.4,1.4,-4.8c0.9,-1.3,2,-2.3,3.5,-3c1.4,-0.6,3.1,-1,4.9,-1c1,0,2.1,0.1,3.1,0.4c1,0.2,1.9,0.4,2.6,0.8l0.1,0.1c-0.2,0.4,-0.4,1.5,-0.5,3.3l-0.1,0l-0.6,0l-0.1,0l-0.1,-2.1c-0.6,-0.4,-1.3,-0.8,-2.1,-1c-0.8,-0.3,-1.7,-0.4,-2.5,-0.4c-1.4,0,-2.6,0.3,-3.6,0.8c-1.1,0.6,-1.9,1.4,-2.5,2.5c-0.6,1.1,-0.9,2.4,-0.9,4c0,1.6,0.4,3,1.1,4.2c0.6,1.2,1.6,2.1,2.8,2.7c1.2,0.7,2.6,1,4.1,1c0.7,0,1.4,-0.1,2.1,-0.2c0.6,-0.2,1.2,-0.3,1.6,-0.5c0.4,-0.2,0.8,-0.5,1.2,-0.7Z" class="g7_2" />
<path d="M387.5,123.7c2,0,3.2,0.1,3.4,0.1c0.3,0,1.4,-0.1,3.4,-0.1l0.1,0.1l0,0.5l-0.1,0.1c-0.5,0,-1,0.1,-1.3,0.1c-0.2,0,-0.5,0.1,-0.6,0.2c-0.1,0.1,-0.2,0.3,-0.3,0.6c0,0.3,0,0.8,0,1.3l-0.1,2.7l0,1.7c1.8,0.1,3.4,0.1,5,0.1c2.1,0,3.7,0,4.8,-0.1l0,-1.7l0,-2.3c0,-0.9,-0.1,-1.4,-0.1,-1.7c0,-0.3,-0.1,-0.4,-0.2,-0.5c0,-0.1,-0.2,-0.2,-0.4,-0.2c-0.2,-0.1,-0.7,-0.1,-1.6,-0.2l-0.1,-0.1l0,-0.5l0.1,-0.1c2,0,3.2,0.1,3.4,0.1c0.3,0,1.4,-0.1,3.4,-0.1l0.1,0.1l0,0.5l-0.1,0.1c-0.5,0,-1,0.1,-1.3,0.1c-0.2,0,-0.5,0.1,-0.6,0.2c-0.1,0.1,-0.2,0.3,-0.3,0.6c0,0.3,0,0.8,0,1.3l-0.1,2.7l0,5.5l0.1,2.3c0,0.9,0,1.5,0,1.8c0.1,0.2,0.1,0.4,0.2,0.5c0.1,0.1,0.2,0.1,0.4,0.2c0.2,0.1,0.8,0.1,1.6,0.1l0.1,0.1l0,0.6l-0.1,0.1c-2,-0.1,-3.1,-0.1,-3.4,-0.1c-0.2,0,-1.4,0,-3.4,0.1l-0.1,-0.1l0,-0.6l0.1,-0.1c0.8,0,1.3,0,1.5,-0.1c0.2,0,0.4,-0.1,0.5,-0.2c0.1,0,0.1,-0.2,0.2,-0.4c0,-0.3,0.1,-0.8,0.1,-1.7l0,-2.5l0,-2.7c-2.3,0,-4,0,-4.9,0c-1,0,-2.6,0,-4.9,0l0,2.7l0.1,2.3c0,0.9,0,1.5,0,1.8c0.1,0.2,0.1,0.4,0.2,0.5c0.1,0.1,0.2,0.1,0.4,0.2c0.2,0.1,0.8,0.1,1.6,0.1l0.1,0.1l0,0.6l-0.1,0.1c-2,-0.1,-3.1,-0.1,-3.4,-0.1c-0.2,0,-1.4,0,-3.4,0.1l-0.1,-0.1l0,-0.6l0.1,-0.1c0.8,0,1.2,0,1.5,-0.1c0.2,0,0.4,-0.1,0.5,-0.2c0.1,0,0.1,-0.2,0.2,-0.4c0,-0.3,0.1,-0.8,0.1,-1.7l0,-2.5l0,-5.5l0,-2.3c0,-0.9,-0.1,-1.4,-0.1,-1.7c0,-0.3,-0.1,-0.4,-0.2,-0.5c0,-0.1,-0.2,-0.2,-0.4,-0.2c-0.2,-0.1,-0.7,-0.1,-1.6,-0.2l-0.1,-0.1l0,-0.5Z" class="g7_2" />
<path d="M410.3,123.8l0.1,-0.1c2.7,0,4.4,0,5.2,0c2.6,0,4.9,0,6.9,0l0.1,0.1c-0.2,0.7,-0.4,1.9,-0.5,3.5l0,0.1l-0.6,0l-0.1,-0.1c0,-0.1,0,-0.1,0,-0.2c0,-0.6,-0.1,-1.3,-0.2,-1.9c-0.5,-0.2,-1.2,-0.4,-2,-0.4c-0.9,-0.1,-1.6,-0.1,-2,-0.1c-0.6,0,-1.4,0,-2.4,0.1l-0.1,1.9l0,2.2l0,2.4c0.8,0,1.6,0,2.3,0c0.8,0,1.4,0,1.9,0c0.4,-0.1,0.7,-0.1,0.8,-0.2c0.1,0,0.2,-0.1,0.2,-0.3c0,-0.1,0.1,-0.4,0.1,-0.7l0.1,-0.8l0.1,-0.1l0.5,0l0.1,0.1c0,0.9,0,1.7,-0.1,2.6l0.1,2.7l-0.1,0.1l-0.5,0l-0.1,-0.1L420,133.9c-0.1,-0.6,-0.1,-0.9,-0.2,-1c0,-0.1,-0.1,-0.2,-0.2,-0.3c-0.1,-0.1,-0.4,-0.1,-0.9,-0.2c-0.5,0,-1.1,-0.1,-1.9,-0.1c-0.5,0,-1.2,0.1,-2.1,0.1c-0.1,0.7,-0.1,1.8,-0.1,3.3c0,1.7,0,2.9,0.1,3.7l2.2,0c1.9,0,3.1,0,3.6,-0.1c0.4,0,0.9,-0.2,1.3,-0.3c0.1,-0.2,0.2,-0.6,0.4,-1.3c0.1,-0.7,0.2,-1.1,0.3,-1.2l0.1,-0.1l0.5,0l0.1,0.1c0,0.3,-0.1,0.9,-0.2,1.7c0,0.9,-0.1,1.6,-0.1,2.2l-0.1,0.1c-1.5,0,-3.4,-0.1,-5.9,-0.1l-3.2,0c-0.8,0,-1.5,0,-2.3,0.1l-0.1,-0.1l0,-0.4l0.1,-0.1c0.4,-0.2,0.7,-0.4,0.8,-0.4c0,-0.1,0.1,-0.8,0.1,-2.1c0.1,-1.3,0.1,-2.3,0.1,-3l0,-4.4l0,-2.7c0,-0.6,0,-1,-0.1,-1.4c0,-0.4,0,-0.6,0,-0.8c-0.1,-0.2,-0.1,-0.3,-0.2,-0.3c0,-0.1,-0.1,-0.1,-0.2,-0.2c-0.1,0,-0.3,-0.1,-0.6,-0.1l-0.9,-0.1l-0.1,-0.1Z" class="g7_2" />
<path d="M427.5,140.5l-0.1,-0.1l0,-0.6l0.1,-0.1c0.4,0,0.8,0,1.1,0c0.3,-0.1,0.5,-0.2,0.6,-0.3c0.1,-0.1,0.1,-0.3,0.1,-0.5c0.1,-0.3,0.1,-0.8,0.1,-1.7c0.1,-0.8,0.1,-1.4,0.1,-1.8l0,-9.6c0,-0.4,-0.1,-0.7,-0.3,-0.9c-0.1,-0.2,-0.3,-0.3,-0.6,-0.3c-0.2,-0.1,-0.6,-0.1,-1.2,-0.1l-0.1,-0.1l0,-0.6l0.1,-0.1c1,0,1.8,0.1,2.1,0.1c0.8,0,1.5,-0.1,2,-0.1l3.7,4.9l5.6,7c0.7,0.8,1.4,1.6,2.1,2.4l0,-9.2c0,-0.3,-0.1,-0.9,-0.1,-1.8c0,-0.9,-0.1,-1.5,-0.1,-1.8c0,-0.2,-0.1,-0.4,-0.2,-0.5c-0.1,-0.1,-0.3,-0.1,-0.6,-0.2c-0.2,0,-0.6,0,-1.1,0l-0.1,-0.1l0,-0.6l0.1,-0.1c0.7,0,1.6,0.1,2.8,0.1c1.1,0,1.8,-0.1,2.3,-0.1l0.1,0.1l0,0.6l-0.1,0.1c-0.5,0,-0.9,0,-1.2,0c-0.2,0.1,-0.4,0.2,-0.5,0.3c-0.1,0.1,-0.1,0.3,-0.1,0.5c-0.1,0.2,-0.1,0.8,-0.1,1.7c-0.1,0.8,-0.1,1.4,-0.1,1.8l0,5.6l0,3.3c0.1,1.1,0.1,2.1,0.1,3.2c-0.4,-0.1,-1.1,-0.3,-2.1,-0.5l-0.8,-1l-2.5,-3.1l-8.1,-10l0,9.1c0,0.3,0.1,1,0.1,1.9c0,1,0,1.5,0.1,1.7c0,0.2,0.1,0.4,0.1,0.4c0.1,0.1,0.2,0.2,0.4,0.2c0.3,0.1,0.7,0.1,1.3,0.1l0.1,0.1l0,0.6l-0.1,0.1c-0.4,-0.1,-1,-0.1,-1.9,-0.1c-1.2,0,-2.3,0,-3.1,0.1Z" class="g7_2" />
<path d="M467,134l0,0.3l0,0.2l-0.6,0.3c-0.2,0.1,-0.2,0.1,-0.3,0.2c0,0,0,0.3,0,0.7c-0.1,0.4,-0.1,0.9,-0.1,1.5c0,0.7,0,1.5,0.1,2.3l0,0.1c-2.2,0.8,-4.4,1.2,-6.7,1.2c-1.8,0,-3.3,-0.3,-4.8,-0.9c-1.4,-0.7,-2.5,-1.7,-3.3,-3c-0.9,-1.3,-1.3,-2.8,-1.3,-4.6c0,-2.8,1,-4.9,2.8,-6.6c1.9,-1.6,4.3,-2.4,7.3,-2.4c2.3,0,4.2,0.4,6,1.2l0.1,0.1c-0.2,0.5,-0.3,1.6,-0.5,3.3l-0.1,0.1l-0.5,0L465,127.9l-0.1,-1.3c0,-0.4,-0.1,-0.6,-0.1,-0.7c0,-0.1,-0.1,-0.1,-0.2,-0.3c-0.2,-0.1,-0.5,-0.3,-1.1,-0.5c-0.6,-0.3,-1.2,-0.4,-1.8,-0.5c-0.6,-0.2,-1.2,-0.2,-1.9,-0.2c-1.5,0,-2.7,0.3,-3.8,0.9c-1.2,0.6,-2,1.5,-2.6,2.6c-0.5,1.2,-0.8,2.4,-0.8,3.8c0,1.5,0.3,2.8,0.9,4.1c0.6,1.2,1.5,2.2,2.6,2.9c1.2,0.7,2.5,1.1,4,1.1c0.6,0,1.3,-0.1,2,-0.2c0.7,-0.1,1.2,-0.3,1.7,-0.6c0.1,-0.2,0.1,-0.7,0.1,-1.5l0,-1.3c0,-0.6,-0.1,-1,-0.1,-1.2c-0.1,-0.1,-0.3,-0.2,-0.6,-0.3c-0.3,-0.1,-1,-0.1,-2,-0.1l-0.1,-0.1l0,-0.5l0.1,-0.2l0.7,0.1c1.2,0,2.2,0,3,0c0.5,0,1.1,0,2,0Z" class="g7_2" />
<path d="M485.1,130c0.7,-0.5,1.2,-1,1.6,-1.7c0.4,-0.6,0.7,-1.2,0.7,-1.7c0,-0.4,-0.2,-0.8,-0.4,-1.1c-0.3,-0.3,-0.6,-0.5,-1,-0.5c-0.4,0,-0.7,0.2,-1,0.5c-0.3,0.4,-0.5,0.9,-0.5,1.5c0,0.8,0.2,1.8,0.6,3m3.8,8.4c-1.5,-1.6,-2.5,-2.8,-3.2,-3.7c-0.6,-0.9,-1.2,-1.8,-1.8,-2.8c-0.8,0.5,-1.3,1.1,-1.6,1.6c-0.3,0.6,-0.4,1.2,-0.4,1.8c0,1.1,0.4,2,1.2,2.9c0.7,0.8,1.7,1.3,2.8,1.3c1,0,2,-0.4,3,-1.1m8,0.8c-0.7,0.5,-1.3,1,-2,1.6c-0.3,0,-0.6,0,-0.9,0c-0.7,0,-1.4,-0.1,-2.1,-0.4c-0.7,-0.3,-1.5,-0.8,-2.2,-1.4c-1.1,0.7,-2,1.3,-2.7,1.5c-0.7,0.2,-1.4,0.3,-2.3,0.3c-1.6,0,-2.8,-0.4,-3.6,-1.4c-0.9,-1,-1.3,-2.1,-1.3,-3.3c0,-2.1,1.2,-3.8,3.7,-5.2c-0.5,-1.1,-0.7,-2.1,-0.7,-3.1c0,-0.3,0.1,-0.7,0.2,-1c0.1,-0.4,0.2,-0.7,0.3,-0.8c0.2,-0.2,0.4,-0.5,0.7,-0.8c0.4,-0.2,0.7,-0.5,1,-0.8c0.3,-0.2,0.6,-0.4,0.9,-0.5c0.2,-0.1,0.5,-0.2,0.9,-0.2c0.7,0,1.2,0.2,1.6,0.6c0.4,0.5,0.6,1,0.6,1.6c0,1.7,-1.2,3.3,-3.5,4.9c0.5,1,1.3,2.1,2.3,3.4c1,1.2,1.9,2.1,2.6,2.7c0.8,-0.8,1.2,-1.8,1.2,-2.9c0,-0.4,0,-0.7,-0.1,-1c-0.1,-0.3,-0.2,-0.5,-0.4,-0.6c-0.2,-0.1,-0.4,-0.2,-0.8,-0.2c-0.5,0,-0.9,0,-1.3,0l-0.1,-0.1l0.8,-1.2c0.4,0.1,1.1,0.1,2,0.1c0.4,0,1.1,0,2.1,0c1,-0.1,1.9,-0.1,2.7,-0.1l0.1,0.1c-0.1,0.5,-0.2,1,-0.2,1.5l-0.1,0.1c-0.9,-0.2,-1.9,-0.3,-3,-0.3c0,0,-0.1,0,-0.3,0.1c0.1,0.3,0.1,0.6,0.1,1c0,1.4,-0.6,2.8,-2,4.1c1.5,1,2.9,1.5,4.3,1.5c0.2,0,0.4,0,0.5,0c0.2,-0.1,0.4,-0.2,0.8,-0.4l0.1,0.1l0.1,0.4Z" class="g7_2" />
<path d="M522.8,123.7l0.1,0.1c-0.1,0.7,-0.1,1.9,-0.1,3.7l-0.1,0.1l-0.6,0L522,127.5l-0.1,-1.1c0,-0.6,-0.1,-0.9,-0.1,-1.1c-0.1,-0.1,-0.1,-0.2,-0.2,-0.3c-0.1,0,-0.3,-0.1,-0.8,-0.1c-0.4,0,-0.9,-0.1,-1.4,-0.1l-2.3,0c0,1.8,-0.1,2.8,-0.1,3.1l0,6.9l0.1,2.3c0,0.9,0,1.5,0,1.8c0.1,0.2,0.1,0.4,0.2,0.5c0.1,0.1,0.2,0.1,0.4,0.2c0.2,0.1,0.8,0.1,1.6,0.1l0.1,0.1l0,0.6l-0.1,0.1c-2,-0.1,-3.1,-0.1,-3.4,-0.1c-0.2,0,-1.4,0,-3.4,0.1l0,-0.1l0,-0.6l0,-0.1c0.8,0,1.3,0,1.5,-0.1c0.3,0,0.4,-0.1,0.5,-0.2c0.1,0,0.2,-0.2,0.2,-0.4c0.1,-0.3,0.1,-0.8,0.1,-1.7l0,-2.5l0,-6.9c0,-0.1,0,-1.1,-0.1,-3.1l-1.7,0c-0.8,0,-1.4,0,-1.9,0.1c-0.6,0,-0.9,0.1,-0.9,0.2c-0.1,0.2,-0.2,0.6,-0.3,1.3l-0.1,1.1l-0.1,0.1l-0.5,0l-0.1,-0.1C509,125.6,509,124.4,509,123.8l0.1,-0.1c1.3,0,3.6,0.1,6.8,0.1c3.3,0,5.6,-0.1,6.9,-0.1Z" class="g7_2" />
<path d="M526.7,136.3l0.1,-0.1l0.6,0l0.1,0.1c0,1,0.1,1.7,0.2,1.9c0,0.2,0.2,0.4,0.6,0.7c0.4,0.2,0.8,0.5,1.4,0.6c0.6,0.2,1.2,0.2,1.8,0.2c0.9,0,1.6,-0.1,2.3,-0.4c0.7,-0.3,1.2,-0.8,1.5,-1.4c0.4,-0.6,0.6,-1.2,0.6,-2c0,-0.5,-0.1,-1,-0.3,-1.3c-0.1,-0.4,-0.4,-0.7,-0.7,-1c-0.3,-0.2,-0.7,-0.4,-1.1,-0.5c-0.4,-0.1,-1,-0.2,-1.8,-0.4c-0.8,-0.1,-1.4,-0.2,-1.9,-0.3c-0.4,-0.1,-0.9,-0.3,-1.3,-0.5c-0.5,-0.2,-0.8,-0.5,-1.1,-0.8c-0.3,-0.3,-0.6,-0.7,-0.7,-1.2c-0.2,-0.5,-0.3,-1,-0.3,-1.5c0,-1.5,0.5,-2.7,1.5,-3.7c1.1,-0.9,2.4,-1.4,4.2,-1.4c0.6,0,1.4,0.1,2.2,0.3c0.8,0.1,1.6,0.4,2.2,0.7l0.1,0.2c-0.2,0.7,-0.3,1.7,-0.3,3.1l-0.1,0.1l-0.6,0l-0.1,-0.1c-0.1,-1,-0.1,-1.6,-0.1,-1.8c0,-0.3,-0.4,-0.6,-1.1,-0.9c-0.7,-0.4,-1.4,-0.6,-2.2,-0.6c-0.7,0,-1.3,0.2,-1.9,0.4c-0.6,0.3,-1,0.7,-1.3,1.3c-0.3,0.6,-0.5,1.2,-0.5,1.8c0,0.4,0.1,0.8,0.3,1.2c0.2,0.4,0.4,0.6,0.7,0.9c0.3,0.2,0.6,0.3,1,0.4c0.4,0.1,1.1,0.3,2.1,0.4c1.4,0.2,2.4,0.4,3,0.7c0.7,0.3,1.2,0.7,1.6,1.4c0.4,0.6,0.6,1.3,0.6,2.2c0,1.6,-0.7,3,-2.1,4.2c-1.4,1.1,-3,1.6,-5,1.6c-1.6,0,-3.1,-0.2,-4.3,-0.8l-0.1,-0.2c0.1,-0.5,0.2,-1.6,0.2,-3.5Z" class="g7_2" />
<path d="M541.3,123.8l0.1,-0.1c2,0,3.1,0.1,3.4,0.1c0.3,0,1.4,-0.1,3.4,-0.1l0.1,0.1l0,0.5l-0.1,0.1c-0.6,0,-1,0.1,-1.3,0.1c-0.3,0,-0.5,0.1,-0.6,0.2c-0.2,0.1,-0.2,0.3,-0.3,0.6c0,0.3,-0.1,0.8,-0.1,1.3l0,2.7l0,3.8c0,1.3,0,2.2,0.1,2.7c0.1,0.6,0.2,1.1,0.3,1.5c0.2,0.4,0.5,0.8,0.8,1c0.4,0.3,0.9,0.6,1.5,0.7c0.6,0.2,1.4,0.3,2.2,0.3c0.9,0,1.7,-0.1,2.4,-0.3c0.8,-0.3,1.4,-0.6,1.8,-1.1c0.4,-0.4,0.6,-1.1,0.7,-1.8c0.2,-0.7,0.2,-1.8,0.2,-3.1l0,-3.7c0,-0.6,0,-1.4,0,-2.5c0,-1.1,-0.1,-1.7,-0.1,-1.9c-0.1,-0.1,-0.3,-0.2,-0.5,-0.3c-0.2,-0.1,-0.7,-0.2,-1.6,-0.2l-0.1,-0.1l0,-0.5l0.1,-0.1c1.1,0,2.1,0.1,2.8,0.1c0.6,0,1.5,-0.1,2.8,-0.1l0.1,0.1l0,0.5l-0.1,0.1c-0.8,0,-1.3,0.1,-1.5,0.1c-0.2,0.1,-0.4,0.1,-0.5,0.2c-0.1,0.1,-0.1,0.2,-0.2,0.4c0,0.2,0,0.7,-0.1,1.6l0,2.6l0,3.6c0,1.5,0,2.6,-0.2,3.4c-0.1,0.9,-0.3,1.6,-0.7,2.1c-0.4,0.5,-0.8,1,-1.4,1.3c-0.5,0.4,-1.2,0.7,-2,0.9c-0.8,0.2,-1.7,0.2,-2.5,0.2c-1.1,0,-2.1,-0.1,-3,-0.3c-0.8,-0.3,-1.5,-0.6,-2,-1c-0.5,-0.4,-0.8,-0.8,-1,-1.3c-0.2,-0.4,-0.4,-0.9,-0.4,-1.5c-0.1,-0.6,-0.1,-1.6,-0.1,-2.8l0,-4.6L543.6,127c0,-0.9,0,-1.4,0,-1.7c-0.1,-0.3,-0.1,-0.4,-0.2,-0.5c-0.1,-0.1,-0.2,-0.2,-0.4,-0.2c-0.2,-0.1,-0.8,-0.1,-1.6,-0.2l-0.1,-0.1Z" class="g7_2" />
<path d="M562.9,123.7l1.5,0c1,0,1.6,0.1,1.9,0.1c0.3,0,1.4,-0.1,3.4,-0.1l0.1,0.1l0,0.5l-0.1,0.1c-0.5,0,-0.9,0.1,-1.2,0.1c-0.3,0,-0.5,0.1,-0.7,0.2c-0.1,0.1,-0.2,0.3,-0.2,0.6c-0.1,0.3,-0.1,0.8,-0.1,1.3l0,2.7l0,5.5l0,2.3c0,0.9,0,1.5,0.1,1.8c0,0.2,0,0.4,0.1,0.5c0.1,0.1,0.2,0.1,0.5,0.2c0.2,0.1,0.7,0.1,1.5,0.1l0.1,0.1l0,0.6l-0.1,0.1c0,0,-0.7,0,-2.1,-0.1c-0.5,0,-1,0,-1.3,0c-0.2,0,-1.3,0,-3.4,0.1l-0.1,-0.1l0,-0.6l0.1,-0.1c0.8,0,1.3,0,1.5,-0.1c0.3,0,0.4,-0.1,0.5,-0.2c0.1,0,0.2,-0.2,0.2,-0.4c0.1,-0.3,0.1,-0.8,0.1,-1.7l0,-2.5l0,-5.5l0,-2.3c0,-0.9,0,-1.4,-0.1,-1.7c0,-0.3,-0.1,-0.4,-0.1,-0.5c-0.1,-0.1,-0.3,-0.2,-0.5,-0.2c-0.2,-0.1,-0.7,-0.1,-1.6,-0.2l-0.1,-0.1l0,-0.5Z" class="g7_2" />
<path d="M363.8,115.2l70.9,0" class="g8_2" />
<path d="M503.2,115.2l70.9,0" class="g8_2" />


<!-- Any embedded fonts defined here -->
<style type="text/css" ><![CDATA[

@font-face {
	font-family: MuseoSansCond-500_3lc;
	src: url("fonts/MuseoSansCond-500_3lc.woff") format("woff");
}

@font-face {
	font-family: LibreFranklin-Light_3l9;
	src: url("fonts/LibreFranklin-Light_3l9.woff") format("woff");
}

@font-face {
	font-family: MuseoSans-700_3l5;
	src: url("fonts/MuseoSans-700_3l5.woff") format("woff");
}

@font-face {
	font-family: MuseoSans-300_3l2;
	src: url("fonts/MuseoSans-300_3l2.woff") format("woff");
}

@font-face {
	font-family: Museo-700_3l1;
	src: url("fonts/Museo-700_3l1.woff") format("woff");
}

]]></style>

</svg>
