<?xml version="1.0" encoding="UTF-8" standalone="no"?>
<!DOCTYPE svg PUBLIC "-//W3C//DTD SVG 1.1//EN"
"http://www.w3.org/Graphics/SVG/1.1/DTD/svg11.dtd">


<!-- Page 292 -->
<svg x="0" y="0" width="921" height="1196" viewBox="0 0 921 1196" version="1.1" xmlns="http://www.w3.org/2000/svg" xmlns:xlink="http://www.w3.org/1999/xlink"
style="display: block;margin-left: auto;margin-right: auto;">
<defs>
<clipPath id="c0_292"><path d="M550.9,435l0,-17l17,0l0,17Z" /></clipPath>

<style type="text/css"><![CDATA[

.g1_292{
fill: none;
stroke: #007D9F;
stroke-width: 2.2916667;
stroke-linecap: butt;
stroke-linejoin: miter;
}
.g2_292{
fill: #C6D7E4;
}
.g3_292{
fill: #DC252E;
}
.g4_292{
fill: none;
stroke: #FFFFFF;
stroke-width: 2.2916667;
stroke-linecap: round;
stroke-linejoin: round;
stroke-miterlimit: 4;
}
.g5_292{
fill: #F0F1F2;
}
.g6_292{
fill: none;
stroke: #BDBEC1;
stroke-width: 0.38194445;
stroke-linecap: butt;
stroke-linejoin: miter;
}
.g7_292{
fill: none;
stroke: #A8A9AD;
stroke-width: 1.5277778;
stroke-linecap: butt;
stroke-linejoin: miter;
}
.g8_292{
fill: none;
stroke: #BDBEC1;
stroke-width: 1.5277778;
stroke-linecap: butt;
stroke-linejoin: miter;
}
.g9_292{
fill: none;
stroke: #007598;
stroke-width: 1.5277778;
stroke-linecap: butt;
stroke-linejoin: miter;
stroke-miterlimit: 4;
}
.g10_292{
fill: none;
stroke: #007598;
stroke-width: 0.5102778;
stroke-linecap: butt;
stroke-linejoin: miter;
stroke-miterlimit: 4;
}
.g11_292{
fill: #007598;
stroke: #B2B3B7;
stroke-width: 1.5277778;
stroke-linecap: butt;
stroke-linejoin: miter;
stroke-miterlimit: 4;
}

.s1_292{
font-size: 18.33px;
font-family: LibreFranklin-ExtraBold_4bw;
fill: #007D9F;
}
.s2_292{
font-size: 22.92px;
font-family: LibreFranklin-Bold_4bt;
fill: #007D9F;
}
.s3_292{
font-size: 15.28px;
font-family: LibreFranklin-Regular_4cd;
fill: #3F3F40;
}
.s4_292{
font-size: 61.11px;
font-family: STKaiti-SC-Regular_3nm;
fill: #007598;
}
.s5_292{
font-size: 18.33px;
font-family: GentiumBasic-Italic_3ou;
fill: #231F20;
}
.s6_292{
font-size: 15.28px;
font-family: LibreFranklin-SemiBold_4c4;
fill: #231F20;
}
.s7_292{
font-size: 14.90px;
font-family: LibreFranklin-Medium_4bz;
fill: #57585A;
}
.s8_292{
font-size: 24.44px;
font-family: STKaiti-SC-Bold_3mi;
fill: #007598;
}
.s9_292{
font-size: 17.19px;
font-family: GentiumBasic-Italic_3ou;
fill: #3F3F40;
}
.s10_292{
font-size: 14.90px;
font-family: LibreFranklin-SemiBold_4c4;
fill: #007598;
}
.s11_292{
font-size: 34.38px;
font-family: STKaiti-SC-Regular_3nm;
fill: #007598;
}
.s12_292{
font-size: 14.90px;
font-family: GentiumBookBasic-Italic_3mn;
fill: #231F20;
}
.s13_292{
font-size: 15.28px;
font-family: LibreFranklin-SemiBold_4c4;
fill: #77787B;
}
.s14_292{
font-size: 15.28px;
font-family: LibreFranklin-Regular_4cd;
fill: #57585A;
}
.s15_292{
font-size: 19.86px;
font-family: TimesNewRomanPSMT_2xm;
fill: #007598;
}
.s16_292{
font-size: 11.08px;
font-family: LibreFranklin-SemiBold_4c4;
fill: #FFFFFF;
}

]]></style>

</defs>
<path d="M0,0
L0,1196
L921,1196
L921,0 Z " 
fill="#FFFFFF" stroke="none" />
<path d="M119.1,90.5l12.9,0" class="g1_292" />
<text 
x="119" 
y="87" 
dx="0,0" 
class="s1_292"
>3 </text>

<text 
x="332" 
y="91" 
dx="0,0,0,0,0,0,0,0,0,-0.6,-0.7,0,0,0,0,0,0,0,0,0,0,0,0,0,0" 
class="s2_292"
>Numbers over one thousand</text>

<text 
x="157" 
y="153" 
dx="0,-1.6,0,0,0,0,0,-0.5,0,0,0,0,-0.2,0,0,0,0,0,0,0,0,0,0,0,0,0,0,0,0,0,-0.2,0,0,0,0,0,0,0,0,0,0,0,0,0,0,0,0,0,0,0,0,0,0,-0.2,0,0,0,0,0,0,0,0,0,0,0,0" 
class="s3_292"
>You have already learned how to count in Chinese up to a thousand.</text>

<text 
x="148" 
y="238" 
dx="0" 
class="s4_292"
>一</text>

<text 
x="340" 
y="238" 
dx="0" 
class="s4_292"
>十</text>

<text 
x="533" 
y="238" 
dx="0" 
class="s4_292"
>百</text>

<text 
x="725" 
y="238" 
dx="0" 
class="s4_292"
>千</text>

<text 
x="172" 
y="283" 
dx="0,0" 
class="s5_292"
>yī</text>

<text 
x="361" 
y="283" 
dx="0,0,0" 
class="s5_292"
>shí</text>

<text 
x="553" 
y="283" 
dx="0,0,0" 
class="s5_292"
>bǎi</text>

<text 
x="741" 
y="283" 
dx="0,0,0,0" 
class="s5_292"
>qiān</text>

<path d="M174.5,310.7c0,0,-12.3,0,-12.3,12.3l0,5.3c0,0,0,12.3,12.3,12.3l8.5,0c0,0,12.2,0,12.2,-12.3l0,-5.3c0,0,0,-12.3,-12.2,-12.3Z" class="g2_292" />
<text 
x="174" 
y="332" 
dx="0" 
class="s6_292"
>1</text>

<path d="M361.5,310.7c0,0,-12.2,0,-12.2,12.3l0,5.3c0,0,0,12.3,12.2,12.3l19.5,0c0,0,12.2,0,12.2,-12.3l0,-5.3c0,0,0,-12.3,-12.2,-12.3Z" class="g2_292" />
<text 
x="362" 
y="332" 
dx="0,0" 
class="s6_292"
>10</text>

<path d="M548.5,310.7c0,0,-12.2,0,-12.2,12.3l0,5.3c0,0,0,12.3,12.2,12.3l30.5,0c0,0,12.3,0,12.3,-12.3l0,-5.3c0,0,0,-12.3,-12.3,-12.3Z" class="g2_292" />
<text 
x="549" 
y="332" 
dx="0,0,0" 
class="s6_292"
>100</text>

<path d="M730,310.7c0,0,-12.3,0,-12.3,12.3l0,5.3c0,0,0,12.3,12.3,12.3l52.5,0c0,0,12.2,0,12.2,-12.3l0,-5.3c0,0,0,-12.3,-12.2,-12.3Z" class="g2_292" />
<text 
x="735" 
y="332" 
dx="0,0,0,0,0" 
class="s6_292"
>1,000</text>

<text 
x="165" 
y="368" 
dx="0,0,0" 
class="s7_292"
>one</text>

<text 
x="359" 
y="368" 
dx="0,-0.2,0" 
class="s7_292"
>ten</text>

<text 
x="534" 
y="368" 
dx="0,0,0,0,0,-0.2,0" 
class="s7_292"
>hundred</text>

<text 
x="723" 
y="368" 
dx="0,0,0,0,0,0,0,0" 
class="s7_292"
>thousand</text>

<text 
x="157" 
y="431" 
dx="0,0,0,0,0,0,0,0,0,0,0,0,0,0,0,0,0,0,-0.3,-0.2,0,0,0,0,0,-0.1,0,0,0,0,0,0,0,0,0,0,0,-0.2,0,0,0,0,0,0,0,0,0,0,0,0,0,0,0,0,0,0,-0.1" 
class="s3_292"
>In Chinese, the next-largest unit after a thousand is not</text>

<g clip-path="url(#c0_292)">
<path d="M559.4,435c4.7,0,8.5,-3.8,8.5,-8.5c0,-4.7,-3.8,-8.5,-8.5,-8.5c-4.7,0,-8.5,3.8,-8.5,8.5c0,4.7,3.8,8.5,8.5,8.5Z" class="g3_292" />
</g>
<path d="M555.7,422.8l7.5,7.4" class="g4_292" />
<path d="M563.2,422.8l-7.5,7.4" class="g4_292" />
<text 
x="571" 
y="433" 
dx="0,0" 
class="s8_292"
>十千</text>

<text 
x="620" 
y="431" 
dx="0,0,0,0,0,0" 
class="s3_292"
>, but </text>

<text 
x="653" 
y="433" 
dx="0" 
class="s8_292"
>万</text>

<text 
x="681" 
y="431" 
dx="0,0.3,0.3,0.3,0.3" 
class="s9_292"
>(wàn)</text>

<text 
x="720" 
y="431" 
dx="0,0,0,-1,-0.5,0,0" 
class="s3_292"
>. Even </text>

<text 
x="157" 
y="459" 
dx="0,0,0,0,0,0,0,0,0,0,0,0,0,0,0,0,0,0,0,0,0,0,0,0,0,0,0,0,0,-0.2,0,0,0,0,0,0,0,0,-0.2,0,0,0,0,0,-0.2,0,0,0,0,-0.2,0,0,0,0,0,0,0,0,0,0,-0.1,0,0,0,0,0,0,0,0,0,0,0,0,0,0,0,0,0,0,0,0,0,0,0,0,0,0,0,0,0,0,0,0" 
class="s3_292"
>though long Arabic numbers are segmented into three-digit sets in writing and in print, such </text>

<text 
x="157" 
y="486" 
dx="0,0,0,0,0,0,0,0,0,0,0,-0.5,0,0,-0.2,0,0,0,0,0,-0.3,0,0,-0.2,0,0,0,0,0,0,0,0,0,-0.3,0,0,-0.8,0,0,0,0,0,0,0,0,-0.1,0,0,0,0,0,0,0,0,-0.3,0,0,-0.8,0,0,0,0,0,0,0,0,-0.1,0,0,-0.2,0" 
class="s3_292"
>numbers have to be expressed in four-digit sets. The four-digit set of </text>

<text 
x="644" 
y="488" 
dx="0" 
class="s8_292"
>万</text>

<text 
x="671" 
y="486" 
dx="0,0.3,0.3,0.3,0.3" 
class="s9_292"
>(wàn)</text>

<text 
x="713" 
y="486" 
dx="0,0,0,0,0,0,0,0,0,0,0,0,0,0" 
class="s3_292"
>starts at the </text>

<text 
x="157" 
y="514" 
dx="0,0,0,0,0,0,0,0,0,0,0,0,0,0,-0.2,0,0,0,0,0,0,0,0,0,0,0,0,0,0,0,0,0,0,0,-0.3,-0.2,0,0,-0.3,0,0,-0.8,0,0,0,0,0,0,0,0,-0.1,0,0,0,0,0,0,0,0,0,0,-0.2,0" 
class="s3_292"
>fifth digit from the right; the next four-digit set is that of </text>

<text 
x="552" 
y="515" 
dx="0" 
class="s8_292"
>亿</text>

<text 
x="580" 
y="514" 
dx="0,0.3,0.3,0.3" 
class="s9_292"
>(yì)</text>

<text 
x="603" 
y="514" 
dx="0,0,0,0,0,0,0,0,0,0,-0.3,0,0,0,0,0,0,0,0,0,0,0,0,-1.1,0" 
class="s3_292"
>. In the examples below, </text>

<text 
x="157" 
y="541" 
dx="0,0,0,0,0,0,-0.5,0,0,0,0,0,0,0,0,-0.2,0,0,0,0,0,0,0,0,0,0,0,0,0,0,0,0,0,0,0,0,0,0,0,0,0,0,0" 
class="s3_292"
>we have indicated such divisions as an aid.</text>

<path d="M82.5,638.4l208.5,0l0,55.3l-208.5,0l0,-55.3Zm208.5,0l90.8,0l0,55.3l-90.8,0l0,-55.3Zm90.8,0l177.4,0l0,55.3l-177.4,0l0,-55.3Zm177.4,0l139.3,0l0,55.3l-139.3,0l0,-55.3Zm139.3,0l154,0l0,55.3l-154,0l0,-55.3ZM82.5,749L291,749l0,63.6l-208.5,0l0,-63.6ZM291,749l90.8,0l0,63.6l-90.8,0L291,749Zm90.8,0l177.4,0l0,63.6l-177.4,0l0,-63.6Zm177.4,0l139.3,0l0,63.6l-139.3,0l0,-63.6Zm139.3,0l154,0l0,63.6l-154,0l0,-63.6ZM82.5,867.9l208.5,0l0,55.3l-208.5,0l0,-55.3Zm208.5,0l90.8,0l0,55.3l-90.8,0l0,-55.3Zm90.8,0l177.4,0l0,55.3l-177.4,0l0,-55.3Zm177.4,0l139.3,0l0,55.3l-139.3,0l0,-55.3Zm139.3,0l154,0l0,55.3l-154,0l0,-55.3Zm-616,148.8l208.5,0l0,55.4l-208.5,0l0,-55.4Zm208.5,0l90.8,0l0,55.4l-90.8,0l0,-55.4Zm90.8,0l177.4,0l0,55.4l-177.4,0l0,-55.4Zm177.4,0l139.3,0l0,55.4l-139.3,0l0,-55.4Zm139.3,0l154,0l0,55.4l-154,0l0,-55.4Z" class="g5_292" />
<path d="M82.5,693.7l208.5,0" class="g6_292" />
<path d="M291,693.7l90.8,0" class="g6_292" />
<path d="M381.8,693.7l177.4,0" class="g6_292" />
<path d="M559.2,693.7l139.3,0" class="g6_292" />
<path d="M698.5,693.7l154,0" class="g6_292" />
<path d="M82.5,749L291,749" class="g6_292" />
<path d="M291,749l90.8,0" class="g6_292" />
<path d="M381.8,749l177.4,0" class="g6_292" />
<path d="M559.2,749l139.3,0" class="g6_292" />
<path d="M698.5,749l154,0" class="g6_292" />
<path d="M82.5,812.6l208.5,0" class="g6_292" />
<path d="M291,812.6l90.8,0" class="g6_292" />
<path d="M381.8,812.6l177.4,0" class="g6_292" />
<path d="M559.2,812.6l139.3,0" class="g6_292" />
<path d="M698.5,812.6l154,0" class="g6_292" />
<path d="M82.5,867.9l208.5,0" class="g6_292" />
<path d="M291,867.9l90.8,0" class="g6_292" />
<path d="M381.8,867.9l177.4,0" class="g6_292" />
<path d="M559.2,867.9l139.3,0" class="g6_292" />
<path d="M698.5,867.9l154,0" class="g6_292" />
<path d="M82.5,923.2l208.5,0" class="g6_292" />
<path d="M291,923.2l90.8,0" class="g6_292" />
<path d="M381.8,923.2l177.4,0" class="g6_292" />
<path d="M559.2,923.2l139.3,0" class="g6_292" />
<path d="M698.5,923.2l154,0" class="g6_292" />
<path d="M82.5,1016.7l208.5,0" class="g6_292" />
<path d="M291,1016.7l90.8,0" class="g6_292" />
<path d="M381.8,1016.7l177.4,0" class="g6_292" />
<path d="M559.2,1016.7l139.3,0" class="g6_292" />
<path d="M698.5,1016.7l154,0" class="g6_292" />
<path d="M82.5,638.4l208.5,0" class="g7_292" />
<path d="M291,638.4l90.8,0" class="g7_292" />
<path d="M381.8,638.4l177.4,0" class="g7_292" />
<path d="M559.2,638.4l139.3,0" class="g7_292" />
<path d="M698.5,638.4l154,0" class="g7_292" />
<path d="M82.5,1072.1l208.5,0" class="g8_292" />
<path d="M291,1072.1l90.8,0" class="g8_292" />
<path d="M381.8,1072.1l177.4,0" class="g8_292" />
<path d="M559.2,1072.1l139.3,0" class="g8_292" />
<path d="M698.5,1072.1l154,0" class="g8_292" />
<text 
x="97" 
y="614" 
dx="0,0,0,0,0,0,0" 
class="s10_292"
>Chinese</text>

<text 
x="297" 
y="614" 
dx="0,0,0,0,0,0" 
class="s10_292"
>Pinyin</text>

<text 
x="488" 
y="605" 
dx="0,0,0,0,0,0,0,0" 
class="s10_292"
>Chinese </text>

<text 
x="436" 
y="623" 
dx="0,0,0,0,0,0,0,0,0,0,0,0,0,0,0" 
class="s10_292"
>Mental Division</text>

<text 
x="645" 
y="605" 
dx="0,0,-0.1,0,0,0,0" 
class="s10_292"
>Arabic </text>

<text 
x="634" 
y="623" 
dx="0,0,0,0,0,0" 
class="s10_292"
>Number</text>

<text 
x="735" 
y="614" 
dx="0,0,0,0,0,0,0" 
class="s10_292"
>English</text>

<text 
x="82" 
y="678" 
dx="0,0,0,0" 
class="s11_292"
>（一）千</text>

<text 
x="297" 
y="672" 
dx="0,0,0,0,0,0,0,0,0" 
class="s12_292"
>(yì) qiān</text>

<text 
x="504" 
y="673" 
dx="0,0,0,0" 
class="s13_292"
>1000</text>

<text 
x="649" 
y="673" 
dx="0,0,0,0,0" 
class="s13_292"
>1,000</text>

<text 
x="735" 
y="673" 
dx="0,0,0,0,0,0,0,0" 
class="s14_292"
>thousand</text>

<text 
x="82" 
y="733" 
dx="0,0,0,0" 
class="s11_292"
>（一）万</text>

<text 
x="297" 
y="727" 
dx="0,0,0,0,0,0,0,0" 
class="s12_292"
>(yí) wàn</text>

<text 
x="487" 
y="728" 
dx="0" 
class="s13_292"
>1</text>

<text 
x="495" 
y="730" 
dx="0" 
class="s15_292"
>⁞</text>

<text 
x="501" 
y="728" 
dx="0,0,0,0" 
class="s13_292"
>0000</text>

<text 
x="638" 
y="728" 
dx="0,0,0,0,0,0" 
class="s13_292"
>10,000</text>

<text 
x="735" 
y="728" 
dx="0,-0.2,0,0,0,0,0,0,0,0,0,0" 
class="s14_292"
>ten thousand</text>

<text 
x="99" 
y="793" 
dx="0,0" 
class="s11_292"
>十万</text>

<text 
x="297" 
y="787" 
dx="0,0,0,0,0,0,0" 
class="s12_292"
>shí wàn</text>

<text 
x="477" 
y="788" 
dx="0,0" 
class="s13_292"
>10</text>

<text 
x="495" 
y="789" 
dx="0" 
class="s15_292"
>⁞</text>

<text 
x="501" 
y="788" 
dx="0,0,0,0" 
class="s13_292"
>0000</text>

<text 
x="627" 
y="788" 
dx="0,0,0,0,0,0,0" 
class="s13_292"
>100,000</text>

<text 
x="735" 
y="779" 
dx="0,0,0,0,0,-0.2,0,0" 
class="s14_292"
>hundred </text>

<text 
x="735" 
y="797" 
dx="0,0,0,0,0,0,0,0" 
class="s14_292"
>thousand</text>

<text 
x="82" 
y="852" 
dx="0,0,0,0,0" 
class="s11_292"
>（一）百万</text>

<text 
x="297" 
y="846" 
dx="0,0,0,0,0,0,0,0,0,0,0,0" 
class="s12_292"
>(yì) bǎi wàn</text>

<text 
x="466" 
y="847" 
dx="0,0,0" 
class="s13_292"
>100</text>

<text 
x="495" 
y="849" 
dx="0" 
class="s15_292"
>⁞</text>

<text 
x="501" 
y="847" 
dx="0,0,0,0" 
class="s13_292"
>0000</text>

<text 
x="613" 
y="847" 
dx="0,0,0,0,0,0,0,0,0" 
class="s13_292"
>1,000,000</text>

<text 
x="735" 
y="847" 
dx="0,0,0,0,0,0,0" 
class="s14_292"
>million</text>

<text 
x="82" 
y="907" 
dx="0,0,0,0,0" 
class="s11_292"
>（一）千万</text>

<text 
x="297" 
y="902" 
dx="0,0,0,0,0,0,0,0,0,0,0,0,0" 
class="s12_292"
>(yì) qiān wàn</text>

<text 
x="455" 
y="902" 
dx="0,0,0,0" 
class="s13_292"
>1000</text>

<text 
x="495" 
y="904" 
dx="0" 
class="s15_292"
>⁞</text>

<text 
x="501" 
y="902" 
dx="0,0,0,0" 
class="s13_292"
>0000</text>

<text 
x="602" 
y="902" 
dx="0,0,0,0,0,0,0,0,0,0" 
class="s13_292"
>10,000,000</text>

<text 
x="735" 
y="902" 
dx="0,-0.2,0,0,0,0,0,0,0,0,0" 
class="s14_292"
>ten million</text>

<text 
x="82" 
y="963" 
dx="0,0,0,0,0,0" 
class="s11_292"
>（一）亿/ </text>

<text 
x="82" 
y="1001" 
dx="0,0,0,0,0" 
class="s11_292"
>（一）万万</text>

<text 
x="297" 
y="967" 
dx="0,0,0,0,0,0,0,0" 
class="s12_292"
>(yí) yì/</text>

<text 
x="297" 
y="985" 
dx="0,0,0,0,0,0,0,0,0,0,0" 
class="s12_292"
>(yí) wànwàn</text>

<text 
x="439" 
y="977" 
dx="0" 
class="s13_292"
>1</text>

<text 
x="447" 
y="978" 
dx="0" 
class="s15_292"
>⁞</text>

<text 
x="452" 
y="977" 
dx="0,0,0,0" 
class="s13_292"
>0000</text>

<text 
x="495" 
y="978" 
dx="0" 
class="s15_292"
>⁞</text>

<text 
x="501" 
y="977" 
dx="0,0,0,0" 
class="s13_292"
>0000</text>

<text 
x="591" 
y="977" 
dx="0,0,0,0,0,0,0,0,0,0,0" 
class="s13_292"
>100,000,000</text>

<text 
x="735" 
y="968" 
dx="0,0,0,0,0,-0.2,0,0" 
class="s14_292"
>hundred </text>

<text 
x="735" 
y="986" 
dx="0,0,0,0,0,0,0" 
class="s14_292"
>million</text>

<text 
x="99" 
y="1056" 
dx="0,0" 
class="s11_292"
>十亿</text>

<text 
x="297" 
y="1050" 
dx="0,0,0,0,0,0" 
class="s12_292"
>shí yì</text>

<text 
x="428" 
y="1051" 
dx="0,0" 
class="s13_292"
>10</text>

<text 
x="447" 
y="1053" 
dx="0" 
class="s15_292"
>⁞</text>

<text 
x="452" 
y="1051" 
dx="0,0,0,0" 
class="s13_292"
>0000</text>

<text 
x="495" 
y="1053" 
dx="0" 
class="s15_292"
>⁞</text>

<text 
x="501" 
y="1051" 
dx="0,0,0,0" 
class="s13_292"
>0000</text>

<text 
x="577" 
y="1051" 
dx="0,0,0,0,0,0,0,0,0,0,0,0,0" 
class="s13_292"
>1,000,000,000</text>

<text 
x="735" 
y="1051" 
dx="0,0,0,0,0,0,0" 
class="s14_292"
>billion</text>

<path d="M146.6,56.3l0,53.5l0,0.8l0.8,0l676.9,0l0.8,0l0,-0.8l0,-53.5l0,-0.7l-0.8,0l-676.9,0l-0.8,0l0,0.7Z" class="g9_292" />
<path d="M148.7,108.5l674.3,0l0,-50.9l-674.3,0l0,50.9Z" class="g10_292" />
<path d="M881.6,1209.2l69.5,0l0,-1222.1l-69.5,0l0,1222.1Z" class="g11_292" />
<text 
transform="matrix(0, 1, -1, 0, 890, 927)"
dx="0,1,1,1,1,1,1,1,1,1" 
class="s16_292"
>Lesson 19 </text>

<text 
transform="matrix(0, 1, -1, 0, 890, 999)"
dx="0,1" 
class="s16_292"
>| </text>

<text 
transform="matrix(0, 1, -1, 0, 890, 1013)"
dx="0,0,0.9,1,0.7,1,1" 
class="s16_292"
>Travel </text>

<text 
transform="matrix(0, 1, -1, 0, 890, 1061)"
dx="0,1" 
class="s16_292"
>| </text>

<text 
transform="matrix(0, 1, -1, 0, 890, 1075)"
dx="0,1,0.9,1,1,1,1,1" 
class="s16_292"
>Grammar </text>

<text 
transform="matrix(0, 1, -1, 0, 890, 1152)"
dx="0,1,1,-2.3" 
class="s16_292"
>271 </text>



<!-- Any embedded fonts defined here -->
<style type="text/css" ><![CDATA[

@font-face {
	font-family: STKaiti-SC-Regular_3nm;
	src: url("fonts/STKaiti-SC-Regular_3nm.woff") format("woff");
}

@font-face {
	font-family: LibreFranklin-Bold_4bt;
	src: url("fonts/LibreFranklin-Bold_4bt.woff") format("woff");
}

@font-face {
	font-family: STKaiti-SC-Bold_3mi;
	src: url("fonts/STKaiti-SC-Bold_3mi.woff") format("woff");
}

@font-face {
	font-family: LibreFranklin-Regular_4cd;
	src: url("fonts/LibreFranklin-Regular_4cd.woff") format("woff");
}

@font-face {
	font-family: LibreFranklin-ExtraBold_4bw;
	src: url("fonts/LibreFranklin-ExtraBold_4bw.woff") format("woff");
}

@font-face {
	font-family: GentiumBasic-Italic_3ou;
	src: url("fonts/GentiumBasic-Italic_3ou.woff") format("woff");
}

@font-face {
	font-family: TimesNewRomanPSMT_2xm;
	src: url("fonts/TimesNewRomanPSMT_2xm.woff") format("woff");
}

@font-face {
	font-family: LibreFranklin-Medium_4bz;
	src: url("fonts/LibreFranklin-Medium_4bz.woff") format("woff");
}

@font-face {
	font-family: GentiumBookBasic-Italic_3mn;
	src: url("fonts/GentiumBookBasic-Italic_3mn.woff") format("woff");
}

@font-face {
	font-family: LibreFranklin-SemiBold_4c4;
	src: url("fonts/LibreFranklin-SemiBold_4c4.woff") format("woff");
}

]]></style>

</svg>
