<?xml version="1.0" encoding="UTF-8" standalone="no"?>
<!DOCTYPE svg PUBLIC "-//W3C//DTD SVG 1.1//EN"
"http://www.w3.org/Graphics/SVG/1.1/DTD/svg11.dtd">


<!-- Page 417 -->
<svg x="0" y="0" width="921" height="1196" viewBox="0 0 921 1196" version="1.1" xmlns="http://www.w3.org/2000/svg" xmlns:xlink="http://www.w3.org/1999/xlink"
style="display: block;margin-left: auto;margin-right: auto;">
<defs>

<style type="text/css"><![CDATA[

.g1_417{
fill: #A8A9AD;
stroke: #B2B3B7;
stroke-width: 1.5277778;
stroke-linecap: butt;
stroke-linejoin: miter;
stroke-miterlimit: 4;
}
.g2_417{
fill: none;
stroke: #BDBEC1;
stroke-width: 1.1458334;
stroke-linecap: butt;
stroke-linejoin: miter;
stroke-miterlimit: 4;
}
.g3_417{
fill: none;
stroke: #DC262E;
stroke-width: 1.5277778;
stroke-linecap: butt;
stroke-linejoin: miter;
}
.g4_417{
fill: none;
stroke: #007598;
stroke-width: 1.5277778;
stroke-linecap: butt;
stroke-linejoin: miter;
}
.g5_417{
fill: #FFFFFF;
}
.g6_417{
fill: none;
stroke: #57585A;
stroke-width: 1.5277778;
stroke-linecap: butt;
stroke-linejoin: miter;
stroke-miterlimit: 4;
}
.g7_417{
fill: none;
stroke: #57585A;
stroke-width: 0.5102778;
stroke-linecap: butt;
stroke-linejoin: miter;
stroke-miterlimit: 4;
}

.s1_417{
font-size: 10.69px;
font-family: LibreFranklin-SemiBold_4gw;
fill: #FFFFFF;
}
.s2_417{
font-size: 22.92px;
font-family: STKaitiTC-Regular_4h8;
fill: #77787B;
}
.s3_417{
font-size: 22.92px;
font-family: STKaitiTC-Regular_4h8;
fill: #3F3F40;
}
.s4_417{
font-size: 22.92px;
font-family: STKaitiTC-Regular_4h8;
fill: #DC262E;
}
.s5_417{
font-size: 9.80px;
font-family: ProximaNova-Extrabld_4hk;
fill: #DC262E;
}
.s6_417{
font-size: 22.92px;
font-family: STKaitiTC-Regular_4h8;
fill: #007598;
}
.s7_417{
font-size: 9.80px;
font-family: ProximaNova-Extrabld_4hk;
fill: #007598;
}
.s8_417{
font-size: 14.51px;
font-family: LibreFranklin-Light_4ho;
fill: #77787B;
}
.s9_417{
font-size: 13.75px;
font-family: LibreFranklin-SemiBold_4gw;
fill: #77787B;
}

]]></style>

</defs>
<path d="M0,0
L0,1196
L921,1196
L921,0 Z " 
fill="#FFFFFF" stroke="none" />
<path d="M-17.5,1209.2l58,0l0,-1222.1l-58,0l0,1222.1Z" class="g1_417" />
<text 
transform="matrix(0, -1, 1, 0, 32, 1173)"
dx="0,0.6,0.6,0.6" 
class="s1_417"
>396 </text>

<text 
transform="matrix(0, -1, 1, 0, 32, 1132)"
dx="0,0.6,0.6,0.5,0.6,0.6,0.6,0.6,0.5,0.6,0.6,0.6,0.6,0.6,0.6,0.6,0.6,0.6,0.6,0.6,0.6" 
class="s1_417"
>Integrated Chinese 2 </text>

<text 
transform="matrix(0, -1, 1, 0, 32, 1004)"
dx="0,0.6" 
class="s1_417"
>| </text>

<text 
transform="matrix(0, -1, 1, 0, 32, 992)"
dx="0,-0.6,0.4,0.3,0.6,0.6,0.6,0.6" 
class="s1_417"
>Textbook</text>

<path d="M317.9,70.9l0,911.1" class="g2_417" />
<path d="M724.2,218.7l5.4,0" class="g3_417" />
<path d="M517.9,244.7l5.8,0" class="g3_417" />
<path d="M540.8,322.6l5.9,0" class="g4_417" />
<path d="M609.6,348.5l4.9,0" class="g3_417" />
<path d="M792.9,400.5l6.1,0" class="g4_417" />
<path d="M540.8,478.4l6.1,0" class="g4_417" />
<path d="M684.4,478.4l5.8,0" class="g3_417" />
<path d="M563.8,634.2l5.3,0" class="g3_417" />
<path d="M637.9,634.2l6,0" class="g4_417" />
<path d="M586.7,712.2l3.4,0" class="g3_417" />
<path d="M609.6,738.1l5.8,0" class="g3_417" />
<text 
x="398" 
y="71" 
dx="0,0,0,0,0,0,0,0,0" 
class="s2_417"
>（在高小音家……）</text>

<text 
x="398" 
y="97" 
dx="0,0,0,0,0" 
class="s3_417"
>高小音： </text>

<text 
x="495" 
y="97" 
dx="0,0,0,0,0,0,0,0,0,0" 
class="s2_417"
>王朋，李友，快進來。</text>

<text 
x="398" 
y="123" 
dx="0,0,0,0" 
class="s3_417"
>李友： </text>

<text 
x="495" 
y="123" 
dx="0,0,0,0,0,0,0,0,0,0,0,0,0,0,0,0" 
class="s2_417"
>小音，祝你生日快樂！這是送給你 </text>

<text 
x="495" 
y="149" 
dx="0,0,0,0,0,0" 
class="s2_417"
>的生日禮物。</text>

<text 
x="398" 
y="175" 
dx="0,0,0,0,0" 
class="s3_417"
>高小音： </text>

<text 
x="495" 
y="175" 
dx="0,0,0,0,0,0,0,0,0,0,0,0,0,0,0,0" 
class="s2_417"
>謝謝！……太好了！我一直想買這本</text>

<text 
x="495" 
y="201" 
dx="0,0,0,0,0,0,0,0,0,0,0,0,0,0,0,0" 
class="s2_417"
>書。帶這麼多東西，你們太客氣了。</text>

<text 
x="398" 
y="227" 
dx="0,0,0,0" 
class="s3_417"
>王紅： </text>

<text 
x="495" 
y="227" 
dx="0,0,0,0,0,0" 
class="s2_417"
>哥哥，李友，</text>

<text 
x="632" 
y="227" 
dx="0,0,0,0" 
class="s4_417"
>你們來了</text>

<text 
x="724" 
y="215" 
dx="0" 
class="s5_417"
>a</text>

<text 
x="729" 
y="227" 
dx="0" 
class="s2_417"
>。</text>

<text 
x="398" 
y="253" 
dx="0,0,0,0" 
class="s3_417"
>李友： </text>

<text 
x="494" 
y="253" 
dx="0" 
class="s4_417"
>啊</text>

<text 
x="517" 
y="241" 
dx="0" 
class="s5_417"
>b</text>

<text 
x="523" 
y="253" 
dx="0,0,0,0,0,0,0,0,0" 
class="s2_417"
>。小紅，你怎麼樣？</text>

<text 
x="398" 
y="279" 
dx="0,0,0,0" 
class="s3_417"
>王紅： </text>

<text 
x="494" 
y="279" 
dx="0,0,0,0,0,0,0,0,0,0,0,0" 
class="s2_417"
>我很好。每天都在學英文。</text>

<text 
x="398" 
y="305" 
dx="0,0,0,0" 
class="s3_417"
>王朋： </text>

<text 
x="494" 
y="305" 
dx="0,0,0,0,0,0" 
class="s2_417"
>小紅，你每天</text>

<text 
x="632" 
y="305" 
dx="0,0,0,0,0,0,0,0,0" 
class="s6_417"
>練習英文練習多長 </text>

<text 
x="494" 
y="331" 
dx="0,0" 
class="s6_417"
>時間</text>

<text 
x="540" 
y="319" 
dx="0" 
class="s7_417"
>3</text>

<text 
x="546" 
y="331" 
dx="0" 
class="s2_417"
>？</text>

<text 
x="398" 
y="357" 
dx="0,0,0,0" 
class="s3_417"
>王紅： </text>

<text 
x="495" 
y="357" 
dx="0,0,0" 
class="s2_417"
>三個半</text>

<text 
x="563" 
y="357" 
dx="0,0" 
class="s4_417"
>鐘頭</text>

<text 
x="609" 
y="345" 
dx="0" 
class="s5_417"
>c</text>

<text 
x="620" 
y="357" 
dx="0,0,0,0,0,0,0,0,0,0" 
class="s2_417"
>。還看兩個鐘頭的英 </text>

<text 
x="494" 
y="383" 
dx="0,0,0,0" 
class="s2_417"
>文電視。</text>

<text 
x="398" 
y="409" 
dx="0,0,0,0,0" 
class="s3_417"
>高文中： </text>

<text 
x="494" 
y="409" 
dx="0,0,0,0,0,0" 
class="s2_417"
>哎，你們兩個</text>

<text 
x="632" 
y="409" 
dx="0" 
class="s6_417"
>是</text>

<text 
x="655" 
y="409" 
dx="0,0,0,0,0" 
class="s2_417"
>什麼時候到</text>

<text 
x="769" 
y="409" 
dx="0" 
class="s6_417"
>的</text>

<text 
x="792" 
y="397" 
dx="0" 
class="s7_417"
>4</text>

<text 
x="798" 
y="409" 
dx="0" 
class="s2_417"
>？</text>

<text 
x="398" 
y="435" 
dx="0,0,0,0" 
class="s3_417"
>李友： </text>

<text 
x="495" 
y="435" 
dx="0,0,0" 
class="s2_417"
>剛到。</text>

<text 
x="398" 
y="461" 
dx="0,0,0,0,0" 
class="s3_417"
>高文中： </text>

<text 
x="495" 
y="461" 
dx="0,0,0,0,0,0,0,0,0,0,0,0" 
class="s2_417"
>白英愛沒跟你們一起來嗎？</text>

<text 
x="398" 
y="487" 
dx="0,0,0,0" 
class="s3_417"
>李友： </text>

<text 
x="495" 
y="487" 
dx="0" 
class="s2_417"
>她</text>

<text 
x="517" 
y="487" 
dx="0" 
class="s6_417"
>還</text>

<text 
x="540" 
y="475" 
dx="0" 
class="s7_417"
>5</text>

<text 
x="546" 
y="487" 
dx="0,0,0,0" 
class="s2_417"
>沒來？我</text>

<text 
x="638" 
y="487" 
dx="0,0" 
class="s4_417"
>以為</text>

<text 
x="684" 
y="475" 
dx="0" 
class="s5_417"
>d</text>

<text 
x="690" 
y="487" 
dx="0,0,0,0,0,0" 
class="s2_417"
>她已經來了。</text>

<text 
x="398" 
y="513" 
dx="0,0,0,0,0" 
class="s3_417"
>高小音： </text>

<text 
x="495" 
y="513" 
dx="0,0,0,0,0,0,0,0,0,0,0,0,0,0,0" 
class="s2_417"
>王朋，李友，來，我給你們介紹 </text>

<text 
x="495" 
y="538" 
dx="0,0,0,0,0,0,0,0,0,0,0,0,0,0,0" 
class="s2_417"
>一下，這是我表姐海倫，這是她 </text>

<text 
x="495" 
y="564" 
dx="0,0,0,0,0,0" 
class="s2_417"
>的兒子湯姆。</text>

<text 
x="398" 
y="590" 
dx="0,0,0,0" 
class="s3_417"
>王朋： </text>

<text 
x="495" 
y="590" 
dx="0,0,0,0,0,0" 
class="s2_417"
>你好，海倫。</text>

<text 
x="398" 
y="616" 
dx="0,0,0,0" 
class="s3_417"
>海倫： </text>

<text 
x="495" 
y="616" 
dx="0,0,0,0,0,0,0,0,0,0,0,0,0,0,0" 
class="s2_417"
>你好，王朋。文中和小音都說你 </text>

<text 
x="495" 
y="642" 
dx="0" 
class="s6_417"
>又</text>

<text 
x="517" 
y="642" 
dx="0,0" 
class="s4_417"
>聰明</text>

<text 
x="563" 
y="631" 
dx="0" 
class="s5_417"
>e</text>

<text 
x="569" 
y="642" 
dx="0" 
class="s6_417"
>又</text>

<text 
x="592" 
y="642" 
dx="0,0" 
class="s2_417"
>用功</text>

<text 
x="637" 
y="631" 
dx="0" 
class="s7_417"
>6</text>

<text 
x="643" 
y="642" 
dx="0" 
class="s2_417"
>。</text>

<text 
x="398" 
y="668" 
dx="0,0,0,0" 
class="s3_417"
>王朋： </text>

<text 
x="495" 
y="668" 
dx="0,0,0,0,0,0,0,0,0,0,0,0,0,0,0,0" 
class="s2_417"
>哪裡，哪裡。你的中文說得真好， </text>

<text 
x="495" 
y="694" 
dx="0,0,0,0,0,0,0" 
class="s2_417"
>是在哪兒學的？</text>

<text 
x="398" 
y="720" 
dx="0,0,0,0" 
class="s3_417"
>海倫： </text>

<text 
x="495" 
y="720" 
dx="0,0,0" 
class="s2_417"
>在暑期</text>

<text 
x="563" 
y="720" 
dx="0" 
class="s4_417"
>班</text>

<text 
x="586" 
y="709" 
dx="0" 
class="s5_417"
>f</text>

<text 
x="590" 
y="720" 
dx="0,0,0" 
class="s2_417"
>學的。</text>

<text 
x="398" 
y="746" 
dx="0,0,0,0" 
class="s3_417"
>王朋： </text>

<text 
x="495" 
y="746" 
dx="0,0,0,0" 
class="s2_417"
>哎，湯姆</text>

<text 
x="586" 
y="746" 
dx="0" 
class="s4_417"
>長</text>

<text 
x="609" 
y="735" 
dx="0" 
class="s5_417"
>g</text>

<text 
x="615" 
y="746" 
dx="0,0,0,0,0,0,0,0,0,0" 
class="s2_417"
>得真可愛！你們看， </text>

<text 
x="495" 
y="772" 
dx="0,0,0,0,0,0,0,0,0" 
class="s2_417"
>他笑了。他幾歲了？</text>

<text 
x="398" 
y="798" 
dx="0,0,0,0" 
class="s3_417"
>海倫： </text>

<text 
x="495" 
y="798" 
dx="0,0,0,0,0,0,0,0,0,0,0,0,0" 
class="s2_417"
>剛一歲，是去年生的，屬狗。</text>

<text 
x="398" 
y="824" 
dx="0,0,0,0" 
class="s3_417"
>李友： </text>

<text 
x="495" 
y="824" 
dx="0,0,0,0,0,0,0,0,0,0,0,0,0,0,0" 
class="s2_417"
>你們看，他的臉圓圓的，眼睛大 </text>

<text 
x="495" 
y="850" 
dx="0,0,0,0,0,0,0,0,0,0,0,0,0,0,0" 
class="s2_417"
>大的，鼻子高高的，嘴不大也不 </text>

<text 
x="495" 
y="876" 
dx="0,0,0,0,0,0,0,0,0" 
class="s2_417"
>小，長得很像海倫。</text>

<text 
x="398" 
y="902" 
dx="0,0,0,0" 
class="s3_417"
>王紅： </text>

<text 
x="495" 
y="902" 
dx="0,0,0,0,0,0,0,0,0,0,0,0,0,0,0" 
class="s2_417"
>媽媽這麼漂亮，兒子長大一定也 </text>

<text 
x="495" 
y="928" 
dx="0,0,0" 
class="s2_417"
>很帥。</text>

<text 
x="398" 
y="954" 
dx="0,0,0,0,0" 
class="s3_417"
>高小音： </text>

<text 
x="495" 
y="954" 
dx="0,0,0,0,0,0,0,0,0,0,0,0,0" 
class="s2_417"
>來，來，來，我們吃蛋糕吧。</text>

<text 
x="398" 
y="980" 
dx="0,0,0,0,0" 
class="s3_417"
>高文中： </text>

<text 
x="495" 
y="980" 
dx="0,0,0,0,0,0,0,0,0,0,0,0,0,0" 
class="s2_417"
>等等白英愛吧。她最愛吃蛋糕。</text>

<path d="M243.8,121.1l143.7,0l0,-28.5l-143.7,0l0,28.5Z" class="g5_417" />
<text 
x="268" 
y="112" 
dx="0,0,0,0,0,0,0,0,0,0,0,0,0" 
class="s8_417"
>Birthday Bash</text>

<path d="M281.6,57.5c0,0,-15.3,0,-15.3,15.2l0,3.1c0,0,0,15.3,15.3,15.3l68.1,0c0,0,15.3,0,15.3,-15.3l0,-3.1c0,0,0,-15.2,-15.3,-15.2Z" class="g5_417" />
<text 
x="281" 
y="80" 
dx="0,-0.3,-0.3,-0.3,-0.3,-0.3,-0.3,-0.3,-0.3,-0.3" 
class="s9_417"
>Dialogue 2</text>

<path d="M281.6,56.7c-0.2,0,-16.1,0.2,-16.1,16l0,3.1c0,0.2,0.2,16.1,16.1,16.1l68.1,0c0.2,0,16.1,-0.2,16.1,-16.1l0,-3.1c0,-0.1,-0.2,-16,-16.1,-16l-68.1,0Z" class="g6_417" />
<path d="M281.6,58.7c-0.6,0,-14,0.2,-14,14l0,3.1c0,0.6,0.2,14,14,14l68.1,0c0.6,0,14,-0.2,14,-14l0,-3.1c0,-0.5,-0.2,-14,-14,-14l-68.1,0Z" class="g7_417" />


<!-- Any embedded fonts defined here -->
<style type="text/css" ><![CDATA[

@font-face {
	font-family: LibreFranklin-SemiBold_4gw;
	src: url("fonts/LibreFranklin-SemiBold_4gw.woff") format("woff");
}

@font-face {
	font-family: STKaitiTC-Regular_4h8;
	src: url("fonts/STKaitiTC-Regular_4h8.woff") format("woff");
}

@font-face {
	font-family: LibreFranklin-Light_4ho;
	src: url("fonts/LibreFranklin-Light_4ho.woff") format("woff");
}

@font-face {
	font-family: ProximaNova-Extrabld_4hk;
	src: url("fonts/ProximaNova-Extrabld_4hk.woff") format("woff");
}

]]></style>

</svg>
