<?xml version="1.0" encoding="UTF-8" standalone="no"?>
<!DOCTYPE svg PUBLIC "-//W3C//DTD SVG 1.1//EN"
"http://www.w3.org/Graphics/SVG/1.1/DTD/svg11.dtd">


<!-- Page 427 -->
<svg x="0" y="0" width="921" height="1196" viewBox="0 0 921 1196" version="1.1" xmlns="http://www.w3.org/2000/svg" xmlns:xlink="http://www.w3.org/1999/xlink"
style="display: block;margin-left: auto;margin-right: auto;">
<defs>

<style type="text/css"><![CDATA[

.g1_427{
fill: #A8A9AD;
stroke: #B2B3B7;
stroke-width: 1.5277778;
stroke-linecap: butt;
stroke-linejoin: miter;
stroke-miterlimit: 4;
}
.g2_427{
fill: none;
stroke: #BDBEC1;
stroke-width: 1.1458334;
stroke-linecap: butt;
stroke-linejoin: miter;
stroke-miterlimit: 4;
}
.g3_427{
fill: none;
stroke: #77787B;
stroke-width: 1.5277778;
stroke-linecap: butt;
stroke-linejoin: miter;
stroke-miterlimit: 4;
}
.g4_427{
fill: none;
stroke: #77787B;
stroke-width: 0.5102778;
stroke-linecap: butt;
stroke-linejoin: miter;
stroke-miterlimit: 4;
}
.g5_427{
fill: #FFFFFF;
}
.g6_427{
fill: none;
stroke: #57585A;
stroke-width: 1.5277778;
stroke-linecap: butt;
stroke-linejoin: miter;
stroke-miterlimit: 4;
}
.g7_427{
fill: none;
stroke: #57585A;
stroke-width: 0.5102778;
stroke-linecap: butt;
stroke-linejoin: miter;
stroke-miterlimit: 4;
}

.s1_427{
font-size: 10.69px;
font-family: LibreFranklin-SemiBold_4gw;
fill: #FFFFFF;
}
.s2_427{
font-size: 22.92px;
font-family: LibreFranklin-Bold_4h2;
fill: #909295;
}
.s3_427{
font-size: 21.39px;
font-family: LibreFranklin-ExtraBold_4hh;
fill: #909295;
}
.s4_427{
font-size: 14.51px;
font-family: LibreFranklin-Light_4ho;
fill: #3F3F40;
}
.s5_427{
font-size: 14.51px;
font-family: LibreFranklin-SemiBold_4gw;
fill: #A8A9AD;
}
.s6_427{
font-size: 14.51px;
font-family: LibreFranklin-Light_4ho;
fill: #77787B;
}
.s7_427{
font-size: 13.75px;
font-family: LibreFranklin-SemiBold_4gw;
fill: #77787B;
}

]]></style>

</defs>
<path d="M0,0
L0,1196
L921,1196
L921,0 Z " 
fill="#FFFFFF" stroke="none" />
<path d="M-17.5,1209.2l58,0l0,-1222.1l-58,0l0,1222.1Z" class="g1_427" />
<text 
transform="matrix(0, -1, 1, 0, 32, 1173)"
dx="0,0.6,0.6,0.6" 
class="s1_427"
>406 </text>

<text 
transform="matrix(0, -1, 1, 0, 32, 1132)"
dx="0,0.6,0.6,0.5,0.6,0.6,0.6,0.6,0.5,0.6,0.6,0.6,0.6,0.6,0.6,0.6,0.6,0.6,0.6,0.6,0.6" 
class="s1_427"
>Integrated Chinese 2 </text>

<text 
transform="matrix(0, -1, 1, 0, 32, 1004)"
dx="0,0.6" 
class="s1_427"
>| </text>

<text 
transform="matrix(0, -1, 1, 0, 32, 992)"
dx="0,-0.6,0.4,0.3,0.6,0.6,0.6,0.6" 
class="s1_427"
>Textbook</text>

<path d="M317.9,157l0,684.8" class="g2_427" />
<text 
x="265" 
y="77" 
dx="0,0,0,0,0,0,0,0,0,0,0,0,0,0,0,0,0,0,0,0,-2.6,-0.7,-0.8,0,0,0,0,0,0,0,0,0,0,0,0" 
class="s2_427"
>Appendix 2: Lesson Texts in English</text>

<text 
x="144" 
y="160" 
dx="0,0,0,0,0,0,0,0,0" 
class="s3_427"
>Lesson 11</text>

<text 
x="398" 
y="151" 
dx="0,0,0,0,0,0,0,0,0,0,0,0,0,0,0,0,0,0,0,0,0,0,0,0,0,0,-0.1,0,0,0,0,-0.2,0,0,0,0,0,0,0,0,0,0,-0.9,0,0,0,0,0,0,0,0,0,-0.2,0,0,0,0,0,0,0,0,0,0,0,0" 
class="s4_427"
>(Gao Xiaoyin and her younger brother Gao Wenzhong are discussing </text>

<text 
x="398" 
y="171" 
dx="0,0,0,0,0,0,0,0,0,0,0,0,0,0,0,0,0,0,0" 
class="s4_427"
>the weather . . . )</text>

<text 
x="398" 
y="190" 
dx="0,0,0,0,0,0,0,0,0,0,0,0,0" 
class="s5_427"
>Gao Xiaoyin: </text>

<text 
x="519" 
y="190" 
dx="0,-1.5,0,0,0,0,-1,0,0,0,0,0,0,0,0,0,0,0,0,0,0,0,0,-0.2,0,0,0,0,0,0,0,0,0,0,0,-0.2,0,-0.2,0,0,0,-1,0,0,0,0,0.4,-1,0,0,0,0,0" 
class="s4_427"
>Today’s weather is better than yesterday’s. It’s not </text>

<text 
x="519" 
y="210" 
dx="0,0,0,0,0,0,0,0,0,0,0,0,0,0,-0.2,0" 
class="s4_427"
>snowing anymore.</text>

<text 
x="398" 
y="230" 
dx="0,0,0,0,0,-1.1,0,0,0,0,0,0,0,0" 
class="s5_427"
>Gao Wenzhong: </text>

<text 
x="519" 
y="230" 
dx="0,0,0,0,0,-0.4,0,0,0,0,0,0,0,0,0,0,0,0,-0.2,0,0,-0.1,0,0,0,0,0,0,0,0,0,0,0,0,0,0,0,0,0,0,0,0,0,0,0,0,0,0,0,0,0,0,0,0,0" 
class="s4_427"
>I asked a friend to go ice skating with me in the park </text>

<text 
x="519" 
y="250" 
dx="0,-0.2,0,0,0,0,-0.2,0,-1,0,0,0,0,0,0,0,0,0,0,0,0,0,0,0,0,0,0,0,0,0,0,0,0,0,0,0,0,0,0,0,-0.1,0,0,0,0" 
class="s4_427"
>tomorrow. I wonder what the weather is going </text>

<text 
x="519" 
y="270" 
dx="0,-0.2,0,0,0,0,0,0,0,-0.4,0,0,0,0,0,0,0,0,0,0,0,0,0,0,0,0,0,0" 
class="s4_427"
>to be like. Will it be cold?</text>

<text 
x="398" 
y="290" 
dx="0,0,0,0,0,0,0,0,0,0,0,0,0" 
class="s5_427"
>Gao Xiaoyin: </text>

<text 
x="519" 
y="290" 
dx="0,0,0,0,0,0,0,0,0,0,0,-0.4,0,0,0,0,0,0,0,0,0,0,-0.3,0,-0.2,0,0,0,0,0,0,0,0,0,0,0,0,0,0,0,-0.2,0,0,0,0,0,0" 
class="s4_427"
>I just looked up the forecast on the Internet. </text>

<text 
x="519" 
y="310" 
dx="0,-1.5,0,0,0,0,-0.2,0,0,-1,0,0,0,0,0,0,0,0,0,0,0,0,0,0,0,0,0,0,0,-0.4,0,0,0,0,0,0,-0.2,0,0,0,0,0,0,0" 
class="s4_427"
>Tomorrow’s weather will be even better than </text>

<text 
x="519" 
y="329" 
dx="0,-0.2,0,0,0,0,-1,0,0,0,0,0,0,0,0,0,0,0,0,0,0,0,0,0,0,0,0,0,0,0,0,0,0,0,-1,0,0,0,0.4,0,0,0,0,0,0,0,0,0,0,0,0" 
class="s4_427"
>today’s. Not only will it not snow, it’ll be a bit </text>

<text 
x="519" 
y="349" 
dx="0,0,0,0,0,0,-1.2,0,0,-0.2,0,-0.4" 
class="s4_427"
>warmer, too.</text>

<text 
x="398" 
y="369" 
dx="0,0,0,0,0,-1.1,0,0,0,0,0,0,0,0" 
class="s5_427"
>Gao Wenzhong: </text>

<text 
x="519" 
y="369" 
dx="0,0,0,0,0,0,0,0,0,0,-0.2,0,0,0,0" 
class="s4_427"
>Really? Great! </text>

<text 
x="398" 
y="389" 
dx="0,0,0,0,0,0,0,0,0,0,0,0,0" 
class="s5_427"
>Gao Xiaoyin: </text>

<text 
x="519" 
y="389" 
dx="0,0,0,0,0,0,0,0,0,0,0,0,0,0,0,0,0,-0.2,0,0,-0.1,0,0,0,0,0,0,0,0,0,0,0,0,0,0,0,0,0,0" 
class="s4_427"
>Who did you ask to go ice skating with?</text>

<text 
x="398" 
y="409" 
dx="0,0,0,0,0,-1.1,0,0,0,0,0,0,0,0" 
class="s5_427"
>Gao Wenzhong: </text>

<text 
x="519" 
y="409" 
dx="0,0,0,0,0,0,0,0,0,0,0,0" 
class="s4_427"
>Bai Ying’ai.</text>

<text 
x="398" 
y="429" 
dx="0,0,0,0,0,0,0,0,0,0,0,0,0" 
class="s5_427"
>Gao Xiaoyin: </text>

<text 
x="519" 
y="429" 
dx="0,-1.5,0,0,0,0,0,-0.4,0,0,0,0,0,0,0,0,0,0,0,0,0,0,0,0,0,0,0,0,0,0,0,0,0,0,0,0,0,-0.2,0,0,0,0,0,0,-1.5,0,0,0" 
class="s4_427"
>You asked Bai Ying’ai? But she flew to New York </text>

<text 
x="519" 
y="449" 
dx="0,0,0,0,0,0,0,0,0,0,0,0,0" 
class="s4_427"
>this morning.</text>

<text 
x="398" 
y="468" 
dx="0,0,0,0,0,-1.1,0,0,0,0,0,0,0,0" 
class="s5_427"
>Gao Wenzhong: </text>

<text 
x="519" 
y="468" 
dx="0,0,0,0,0,0,0,0,0,0,0,0,0,0,0,0,0,0,0,0,0,0,0,0,0,0,0,-0.2,0,0,0,0,-0.2,0,0" 
class="s4_427"
>Really? Then what do I do tomorrow?</text>

<text 
x="398" 
y="488" 
dx="0,0,0,0,0,0,0,0,0,0,0,0,0" 
class="s5_427"
>Gao Xiaoyin: </text>

<text 
x="519" 
y="488" 
dx="0,0,0,0,0,0,0,0,0,0,0,0,0,0,0,0,0,0,0,0,0,0,0,0,0,0,0,0,0,0,0,-0.2,0,0,0,0,0" 
class="s4_427"
>Why don’t you stay home and watch TV?</text>

<text 
x="398" 
y="563" 
dx="0,0,0,0,0,0,-0.9,0,0,0,0,0,0,0,0,0,0,0,0,0,0,0,0,0,0,0,0,0,0,0,0,0,0,0,0,0,0,0,0,0,0,0,0,0,0,0,0,0,0,0,0" 
class="s4_427"
>(Gao Wenzhong is chatting with Bai Ying’ai online.)</text>

<text 
x="398" 
y="583" 
dx="0,0,0,0,0,-1.1,0,0,0,0,0,0,0,0" 
class="s5_427"
>Gao Wenzhong: </text>

<text 
x="519" 
y="583" 
dx="0,0,0,0,0,0,0,0,0,0,0,0,0,0,-1.5,0,0,0,0,0,0,0,0,0,0,0,0,0,0,0,0,0,0,0,0,0,0,0,0,0,0,0,0" 
class="s4_427"
>Ying’ai, New York is so much fun. How come </text>

<text 
x="519" 
y="603" 
dx="0,0,0,0,-0.4,-0.2,0,0,0,0,0,0,0,0,0,0,0,0,0,0,0,0,0,0,0,0,0,0,0,0,0,0,0,0,0,0" 
class="s4_427"
>you’re online and not out and about?</text>

<text 
x="398" 
y="623" 
dx="0,0,0,0,0,0,0,0,0,0,0,0,0" 
class="s5_427"
>Bai Ying’ai: </text>

<text 
x="519" 
y="623" 
dx="0,0,0,0,0,0,0,0,0,0,0,0,0,0,0,-0.2,0,0,0,0,0,0,0,0,0,0" 
class="s4_427"
>The weather here is awful.</text>

<text 
x="398" 
y="643" 
dx="0,0,0,0,0,-1.1,0,0,0,0,0,0,0,0" 
class="s5_427"
>Gao Wenzhong: </text>

<text 
x="519" 
y="643" 
dx="0,0,0,0,0,0,0,0,0" 
class="s4_427"
>How come?</text>

<text 
x="398" 
y="662" 
dx="0,0,0,0,0,0,0,0,0,0,0,0,0" 
class="s5_427"
>Bai Ying’ai: </text>

<text 
x="519" 
y="662" 
dx="0,-1.5,0,0,-0.2,0,-0.2,0,0,0,0,0,0,0,0,0,0,-0.2,0,0,0,0,0,0,0,0,0,0,0,0,0,0,0,0,0,0,0,0,-0.2,0,0,0,-0.9" 
class="s4_427"
>Yesterday it poured. It rained again today.</text>

<text 
x="398" 
y="682" 
dx="0,0,0,0,0,-1.1,0,0,0,0,0,0,0,0" 
class="s5_427"
>Gao Wenzhong: </text>

<text 
x="519" 
y="682" 
dx="0,0,0,0,0,0,0,0,0,0,0,0,0,0,0,-0.2,0,0,0,0,0,0,-0.2,0,0,0,0,0,0,0,0,0,0,0,0,-0.4,0,0,0,0" 
class="s4_427"
>The weather here is great this weekend. </text>

<text 
x="519" 
y="702" 
dx="0,-1.5,0,0,-1,0,0,0,0,0,-0.2,0,0,0,0,0,0,0,0,0,0,0,0,0,0,0,0,0,0,0,0,0,0,0,0,0,0,0,0,0,0,0" 
class="s4_427"
>You’d better come back as soon as you can.</text>

<text 
x="398" 
y="722" 
dx="0,0,0,0,0,0,0,0,0,0,0,0,0" 
class="s5_427"
>Bai Ying’ai: </text>

<text 
x="519" 
y="722" 
dx="0,0,0.4,-1,0,0,-0.1,0,0,0,0,0,-0.2,0,0,0,0,0,0,0,0,0,0,0,0,0,0,0,0,0,0,0,-1.5,0,0,0,0,0,0,0,0,0,0,0,0,-0.4,0,0,0,0" 
class="s4_427"
>It’s going to be warmer in New York this weekend. </text>

<text 
x="519" 
y="742" 
dx="0,0,0,0,0,-0.4,0,0,0,0,0,0,0,-0.2,0,0,0,0,0,0,0,0,-0.2,-0.1,0,0,0,0,0,0,0" 
class="s4_427"
>I have an interview next week, </text>

<text 
x="724" 
y="742" 
dx="0,0,0,0,0,0,0,0,0,0,0,0,0,0,0,0,0,0" 
class="s4_427"
>I can’t come back </text>

<text 
x="519" 
y="762" 
dx="0,0,0,0,0,0,0,0,0" 
class="s4_427"
>just yet.</text>

<text 
x="398" 
y="782" 
dx="0,0,0,0,0,-1.1,0,0,0,0,0,0,0,0" 
class="s5_427"
>Gao Wenzhong: </text>

<text 
x="519" 
y="782" 
dx="0,0,0,-0.3,0,0,0,0,0,0,0,0,0,0,0,0,0,0,0,0,0,0,-0.3,0,0,0,0,0,0,0,0,0,0,0,0,0,0,0,0,0,0,0,0,0.4,-1,0,0,0,0,0,0,0,0,0,0" 
class="s4_427"
>I found a job in California. Go with me. It’s not cold </text>

<text 
x="519" 
y="801" 
dx="0,0,0,0,0,0,0,0,0,0,0,-0.2,0,0,0,0,0,0,0,0,0,0,-0.3,0,0,0,0,0,0,0,0,0,0,0,0,0,0,0,0,0,0,0,0,0,0,0,0,0,0,-1.2,0" 
class="s4_427"
>in the winter in California, or hot in the summer. </text>

<text 
x="519" 
y="821" 
dx="0,0,0,0,0,0,0,0,0,0,0,0,0,0,0,0,0,0,-0.2,0,0,0,-0.4,0,0,0,0,0,-0.2,0,0,0,0,0,-0.3,0,0,0,0,0,0,0" 
class="s4_427"
>Spring and fall are even more comfortable.</text>

<text 
x="398" 
y="841" 
dx="0,0,0,0,0,0,0,0,0,0,0,0,0" 
class="s5_427"
>Bai Ying’ai: </text>

<text 
x="519" 
y="841" 
dx="0,0,0,0,0,-0.3,0,0,0,0,0,0,0,0,0,0,-0.2,0,0,0,0,0,0,0,0,0,0,0,0,0,-0.4,0,0,0,0,0,0,-1.5,0,0,0,0,0,0,-0.2,0" 
class="s4_427"
>California is great, but I like New York more.</text>

<path d="M146.6,41.8l0,53.5l0,0.8l0.8,0l676.9,0l0.8,0l0,-0.8l0,-53.5l0,-0.7l-0.8,0l-676.9,0l-0.8,0l0,0.7Z" class="g3_427" />
<path d="M148.7,94L823,94l0,-50.9l-674.3,0l0,50.9Z" class="g4_427" />
<path d="M243.8,208.8l143.7,0l0,-45.2l-143.7,0l0,45.2Z" class="g5_427" />
<text 
x="245" 
y="183" 
dx="0,-1.5,0,0,0,0,-0.2,0,0,-1,0,0,-0.9,0,0,0,0,0,0" 
class="s6_427"
>Tomorrow’s Weather </text>

<text 
x="249" 
y="200" 
dx="0,0,0,0,0,0,0,0,0,-0.9,-0.4,0,0,0,0,0,0,-0.2,0,0" 
class="s6_427"
>Will Be Even Better!</text>

<path d="M281.6,128.4c0,0,-15.3,0,-15.3,15.3l0,3c0,0,0,15.3,15.3,15.3l68.1,0c0,0,15.3,0,15.3,-15.3l0,-3c0,0,0,-15.3,-15.3,-15.3Z" class="g5_427" />
<text 
x="282" 
y="151" 
dx="0,-0.3,-0.3,-0.3,-0.3,-0.3,-0.3,-0.3,-0.3,-0.3" 
class="s7_427"
>Dialogue 1</text>

<path d="M281.6,127.6c-0.2,0,-16.1,0.2,-16.1,16.1l0,3c0,0.2,0.2,16.1,16.1,16.1l68.1,0c0.2,0,16.1,-0.2,16.1,-16.1l0,-3c0,-0.2,-0.2,-16.1,-16.1,-16.1l-68.1,0Z" class="g6_427" />
<path d="M281.6,129.7c-0.6,0,-14,0.2,-14,14l0,3c0,0.6,0.2,14.1,14,14.1l68.1,0c0.6,0,14,-0.3,14,-14.1l0,-3c0,-0.6,-0.2,-14,-14,-14l-68.1,0Z" class="g7_427" />
<path d="M243.8,621.3l143.7,0l0,-45.2l-143.7,0l0,45.2Z" class="g5_427" />
<text 
x="272" 
y="595" 
dx="0,0,0,0,0,-0.9,0,0,0,0,0,0" 
class="s6_427"
>The Weather </text>

<text 
x="269" 
y="612" 
dx="0,0,0,-0.2,0,0,0,0,0,-0.5,0,0,0,0" 
class="s6_427"
>Here Is Awful!</text>

<path d="M281.6,540.9c0,0,-15.3,0,-15.3,15.3l0,3c0,0,0,15.3,15.3,15.3l68.1,0c0,0,15.3,0,15.3,-15.3l0,-3c0,0,0,-15.3,-15.3,-15.3Z" class="g5_427" />
<text 
x="281" 
y="564" 
dx="0,-0.3,-0.3,-0.3,-0.3,-0.3,-0.3,-0.3,-0.3,-0.3" 
class="s7_427"
>Dialogue 2</text>

<path d="M281.6,540.1c-0.2,0,-16.1,0.2,-16.1,16.1l0,3c0,0.2,0.2,16.1,16.1,16.1l68.1,0c0.2,0,16.1,-0.2,16.1,-16.1l0,-3c0,-0.2,-0.2,-16.1,-16.1,-16.1l-68.1,0Z" class="g6_427" />
<path d="M281.6,542.2c-0.6,0,-14,0.2,-14,14l0,3c0,0.6,0.2,14.1,14,14.1l68.1,0c0.6,0,14,-0.3,14,-14.1l0,-3c0,-0.6,-0.2,-14,-14,-14l-68.1,0Z" class="g7_427" />


<!-- Any embedded fonts defined here -->
<style type="text/css" ><![CDATA[

@font-face {
	font-family: LibreFranklin-SemiBold_4gw;
	src: url("fonts/LibreFranklin-SemiBold_4gw.woff") format("woff");
}

@font-face {
	font-family: LibreFranklin-ExtraBold_4hh;
	src: url("fonts/LibreFranklin-ExtraBold_4hh.woff") format("woff");
}

@font-face {
	font-family: LibreFranklin-Bold_4h2;
	src: url("fonts/LibreFranklin-Bold_4h2.woff") format("woff");
}

@font-face {
	font-family: LibreFranklin-Light_4ho;
	src: url("fonts/LibreFranklin-Light_4ho.woff") format("woff");
}

]]></style>

</svg>
